<?xml version="1.0" encoding="utf-8" standalone="no"?>
<!DOCTYPE svg PUBLIC "-//W3C//DTD SVG 1.1//EN"
  "http://www.w3.org/Graphics/SVG/1.1/DTD/svg11.dtd">
<svg xmlns:xlink="http://www.w3.org/1999/xlink" width="425.730937pt" height="331.084266pt" viewBox="0 0 425.730937 331.084266" xmlns="http://www.w3.org/2000/svg" version="1.1">
 <defs>
  <style type="text/css">*{stroke-linejoin: round; stroke-linecap: butt}</style>
 </defs>
 <g id="figure_1">
  <g id="patch_1">
   <path d="M 0 331.084266 
L 425.730937 331.084266 
L 425.730937 0 
L 0 0 
L 0 331.084266 
z
" style="fill: none"/>
  </g>
  <g id="axes_1">
   <g id="patch_2">
    <path d="M 61.410938 279.010828 
L 418.530938 279.010828 
L 418.530938 12.898828 
L 61.410938 12.898828 
L 61.410938 279.010828 
z
" style="fill: none"/>
   </g>
   <g id="matplotlib.axis_1">
    <g id="xtick_1">
     <g id="line2d_1">
      <path d="M 77.643665 279.010828 
L 77.643665 12.898828 
" clip-path="url(#p3c3110dc2b)" style="fill: none; stroke: #b0b0b0; stroke-width: 0.8; stroke-linecap: square"/>
     </g>
     <g id="line2d_2">
      <defs>
       <path id="md39032bed2" d="M 0 0 
L 0 3.5 
" style="stroke: #000000; stroke-width: 0.8"/>
      </defs>
      <g>
       <use xlink:href="#md39032bed2" x="77.643665" y="279.010828" style="stroke: #000000; stroke-width: 0.8"/>
      </g>
     </g>
     <g id="text_1">
      <!-- 0 -->
      <g transform="translate(72.87179 297.408484) scale(0.15 -0.15)">
       <defs>
        <path id="DejaVuSans-30" d="M 2034 4250 
Q 1547 4250 1301 3770 
Q 1056 3291 1056 2328 
Q 1056 1369 1301 889 
Q 1547 409 2034 409 
Q 2525 409 2770 889 
Q 3016 1369 3016 2328 
Q 3016 3291 2770 3770 
Q 2525 4250 2034 4250 
z
M 2034 4750 
Q 2819 4750 3233 4129 
Q 3647 3509 3647 2328 
Q 3647 1150 3233 529 
Q 2819 -91 2034 -91 
Q 1250 -91 836 529 
Q 422 1150 422 2328 
Q 422 3509 836 4129 
Q 1250 4750 2034 4750 
z
" transform="scale(0.015625)"/>
       </defs>
       <use xlink:href="#DejaVuSans-30"/>
      </g>
     </g>
    </g>
    <g id="xtick_2">
     <g id="line2d_3">
      <path d="M 158.807301 279.010828 
L 158.807301 12.898828 
" clip-path="url(#p3c3110dc2b)" style="fill: none; stroke: #b0b0b0; stroke-width: 0.8; stroke-linecap: square"/>
     </g>
     <g id="line2d_4">
      <g>
       <use xlink:href="#md39032bed2" x="158.807301" y="279.010828" style="stroke: #000000; stroke-width: 0.8"/>
      </g>
     </g>
     <g id="text_2">
      <!-- 10 -->
      <g transform="translate(149.263551 297.408484) scale(0.15 -0.15)">
       <defs>
        <path id="DejaVuSans-31" d="M 794 531 
L 1825 531 
L 1825 4091 
L 703 3866 
L 703 4441 
L 1819 4666 
L 2450 4666 
L 2450 531 
L 3481 531 
L 3481 0 
L 794 0 
L 794 531 
z
" transform="scale(0.015625)"/>
       </defs>
       <use xlink:href="#DejaVuSans-31"/>
       <use xlink:href="#DejaVuSans-30" x="63.623047"/>
      </g>
     </g>
    </g>
    <g id="xtick_3">
     <g id="line2d_5">
      <path d="M 239.970938 279.010828 
L 239.970938 12.898828 
" clip-path="url(#p3c3110dc2b)" style="fill: none; stroke: #b0b0b0; stroke-width: 0.8; stroke-linecap: square"/>
     </g>
     <g id="line2d_6">
      <g>
       <use xlink:href="#md39032bed2" x="239.970938" y="279.010828" style="stroke: #000000; stroke-width: 0.8"/>
      </g>
     </g>
     <g id="text_3">
      <!-- 20 -->
      <g transform="translate(230.427188 297.408484) scale(0.15 -0.15)">
       <defs>
        <path id="DejaVuSans-32" d="M 1228 531 
L 3431 531 
L 3431 0 
L 469 0 
L 469 531 
Q 828 903 1448 1529 
Q 2069 2156 2228 2338 
Q 2531 2678 2651 2914 
Q 2772 3150 2772 3378 
Q 2772 3750 2511 3984 
Q 2250 4219 1831 4219 
Q 1534 4219 1204 4116 
Q 875 4013 500 3803 
L 500 4441 
Q 881 4594 1212 4672 
Q 1544 4750 1819 4750 
Q 2544 4750 2975 4387 
Q 3406 4025 3406 3419 
Q 3406 3131 3298 2873 
Q 3191 2616 2906 2266 
Q 2828 2175 2409 1742 
Q 1991 1309 1228 531 
z
" transform="scale(0.015625)"/>
       </defs>
       <use xlink:href="#DejaVuSans-32"/>
       <use xlink:href="#DejaVuSans-30" x="63.623047"/>
      </g>
     </g>
    </g>
    <g id="xtick_4">
     <g id="line2d_7">
      <path d="M 321.134574 279.010828 
L 321.134574 12.898828 
" clip-path="url(#p3c3110dc2b)" style="fill: none; stroke: #b0b0b0; stroke-width: 0.8; stroke-linecap: square"/>
     </g>
     <g id="line2d_8">
      <g>
       <use xlink:href="#md39032bed2" x="321.134574" y="279.010828" style="stroke: #000000; stroke-width: 0.8"/>
      </g>
     </g>
     <g id="text_4">
      <!-- 30 -->
      <g transform="translate(311.590824 297.408484) scale(0.15 -0.15)">
       <defs>
        <path id="DejaVuSans-33" d="M 2597 2516 
Q 3050 2419 3304 2112 
Q 3559 1806 3559 1356 
Q 3559 666 3084 287 
Q 2609 -91 1734 -91 
Q 1441 -91 1130 -33 
Q 819 25 488 141 
L 488 750 
Q 750 597 1062 519 
Q 1375 441 1716 441 
Q 2309 441 2620 675 
Q 2931 909 2931 1356 
Q 2931 1769 2642 2001 
Q 2353 2234 1838 2234 
L 1294 2234 
L 1294 2753 
L 1863 2753 
Q 2328 2753 2575 2939 
Q 2822 3125 2822 3475 
Q 2822 3834 2567 4026 
Q 2313 4219 1838 4219 
Q 1578 4219 1281 4162 
Q 984 4106 628 3988 
L 628 4550 
Q 988 4650 1302 4700 
Q 1616 4750 1894 4750 
Q 2613 4750 3031 4423 
Q 3450 4097 3450 3541 
Q 3450 3153 3228 2886 
Q 3006 2619 2597 2516 
z
" transform="scale(0.015625)"/>
       </defs>
       <use xlink:href="#DejaVuSans-33"/>
       <use xlink:href="#DejaVuSans-30" x="63.623047"/>
      </g>
     </g>
    </g>
    <g id="xtick_5">
     <g id="line2d_9">
      <path d="M 402.29821 279.010828 
L 402.29821 12.898828 
" clip-path="url(#p3c3110dc2b)" style="fill: none; stroke: #b0b0b0; stroke-width: 0.8; stroke-linecap: square"/>
     </g>
     <g id="line2d_10">
      <g>
       <use xlink:href="#md39032bed2" x="402.29821" y="279.010828" style="stroke: #000000; stroke-width: 0.8"/>
      </g>
     </g>
     <g id="text_5">
      <!-- 40 -->
      <g transform="translate(392.75446 297.408484) scale(0.15 -0.15)">
       <defs>
        <path id="DejaVuSans-34" d="M 2419 4116 
L 825 1625 
L 2419 1625 
L 2419 4116 
z
M 2253 4666 
L 3047 4666 
L 3047 1625 
L 3713 1625 
L 3713 1100 
L 3047 1100 
L 3047 0 
L 2419 0 
L 2419 1100 
L 313 1100 
L 313 1709 
L 2253 4666 
z
" transform="scale(0.015625)"/>
       </defs>
       <use xlink:href="#DejaVuSans-34"/>
       <use xlink:href="#DejaVuSans-30" x="63.623047"/>
      </g>
     </g>
    </g>
    <g id="text_6">
     <!-- t -->
     <g transform="translate(236.050625 319.724891) scale(0.2 -0.2)">
      <defs>
       <path id="DejaVuSans-74" d="M 1172 4494 
L 1172 3500 
L 2356 3500 
L 2356 3053 
L 1172 3053 
L 1172 1153 
Q 1172 725 1289 603 
Q 1406 481 1766 481 
L 2356 481 
L 2356 0 
L 1766 0 
Q 1100 0 847 248 
Q 594 497 594 1153 
L 594 3053 
L 172 3053 
L 172 3500 
L 594 3500 
L 594 4494 
L 1172 4494 
z
" transform="scale(0.015625)"/>
      </defs>
      <use xlink:href="#DejaVuSans-74"/>
     </g>
    </g>
   </g>
   <g id="matplotlib.axis_2">
    <g id="ytick_1">
     <g id="line2d_11">
      <path d="M 61.410938 279.010828 
L 418.530938 279.010828 
" clip-path="url(#p3c3110dc2b)" style="fill: none; stroke: #b0b0b0; stroke-width: 0.8; stroke-linecap: square"/>
     </g>
     <g id="line2d_12">
      <defs>
       <path id="m6f3f5b6aff" d="M 0 0 
L -3.5 0 
" style="stroke: #000000; stroke-width: 0.8"/>
      </defs>
      <g>
       <use xlink:href="#m6f3f5b6aff" x="61.410938" y="279.010828" style="stroke: #000000; stroke-width: 0.8"/>
      </g>
     </g>
     <g id="text_7">
      <!-- 0.0 -->
      <g transform="translate(30.55625 284.709656) scale(0.15 -0.15)">
       <defs>
        <path id="DejaVuSans-2e" d="M 684 794 
L 1344 794 
L 1344 0 
L 684 0 
L 684 794 
z
" transform="scale(0.015625)"/>
       </defs>
       <use xlink:href="#DejaVuSans-30"/>
       <use xlink:href="#DejaVuSans-2e" x="63.623047"/>
       <use xlink:href="#DejaVuSans-30" x="95.410156"/>
      </g>
     </g>
    </g>
    <g id="ytick_2">
     <g id="line2d_13">
      <path d="M 61.410938 225.788428 
L 418.530938 225.788428 
" clip-path="url(#p3c3110dc2b)" style="fill: none; stroke: #b0b0b0; stroke-width: 0.8; stroke-linecap: square"/>
     </g>
     <g id="line2d_14">
      <g>
       <use xlink:href="#m6f3f5b6aff" x="61.410938" y="225.788428" style="stroke: #000000; stroke-width: 0.8"/>
      </g>
     </g>
     <g id="text_8">
      <!-- 0.2 -->
      <g transform="translate(30.55625 231.487256) scale(0.15 -0.15)">
       <use xlink:href="#DejaVuSans-30"/>
       <use xlink:href="#DejaVuSans-2e" x="63.623047"/>
       <use xlink:href="#DejaVuSans-32" x="95.410156"/>
      </g>
     </g>
    </g>
    <g id="ytick_3">
     <g id="line2d_15">
      <path d="M 61.410938 172.566028 
L 418.530938 172.566028 
" clip-path="url(#p3c3110dc2b)" style="fill: none; stroke: #b0b0b0; stroke-width: 0.8; stroke-linecap: square"/>
     </g>
     <g id="line2d_16">
      <g>
       <use xlink:href="#m6f3f5b6aff" x="61.410938" y="172.566028" style="stroke: #000000; stroke-width: 0.8"/>
      </g>
     </g>
     <g id="text_9">
      <!-- 0.4 -->
      <g transform="translate(30.55625 178.264856) scale(0.15 -0.15)">
       <use xlink:href="#DejaVuSans-30"/>
       <use xlink:href="#DejaVuSans-2e" x="63.623047"/>
       <use xlink:href="#DejaVuSans-34" x="95.410156"/>
      </g>
     </g>
    </g>
    <g id="ytick_4">
     <g id="line2d_17">
      <path d="M 61.410938 119.343628 
L 418.530938 119.343628 
" clip-path="url(#p3c3110dc2b)" style="fill: none; stroke: #b0b0b0; stroke-width: 0.8; stroke-linecap: square"/>
     </g>
     <g id="line2d_18">
      <g>
       <use xlink:href="#m6f3f5b6aff" x="61.410938" y="119.343628" style="stroke: #000000; stroke-width: 0.8"/>
      </g>
     </g>
     <g id="text_10">
      <!-- 0.6 -->
      <g transform="translate(30.55625 125.042456) scale(0.15 -0.15)">
       <defs>
        <path id="DejaVuSans-36" d="M 2113 2584 
Q 1688 2584 1439 2293 
Q 1191 2003 1191 1497 
Q 1191 994 1439 701 
Q 1688 409 2113 409 
Q 2538 409 2786 701 
Q 3034 994 3034 1497 
Q 3034 2003 2786 2293 
Q 2538 2584 2113 2584 
z
M 3366 4563 
L 3366 3988 
Q 3128 4100 2886 4159 
Q 2644 4219 2406 4219 
Q 1781 4219 1451 3797 
Q 1122 3375 1075 2522 
Q 1259 2794 1537 2939 
Q 1816 3084 2150 3084 
Q 2853 3084 3261 2657 
Q 3669 2231 3669 1497 
Q 3669 778 3244 343 
Q 2819 -91 2113 -91 
Q 1303 -91 875 529 
Q 447 1150 447 2328 
Q 447 3434 972 4092 
Q 1497 4750 2381 4750 
Q 2619 4750 2861 4703 
Q 3103 4656 3366 4563 
z
" transform="scale(0.015625)"/>
       </defs>
       <use xlink:href="#DejaVuSans-30"/>
       <use xlink:href="#DejaVuSans-2e" x="63.623047"/>
       <use xlink:href="#DejaVuSans-36" x="95.410156"/>
      </g>
     </g>
    </g>
    <g id="ytick_5">
     <g id="line2d_19">
      <path d="M 61.410938 66.121228 
L 418.530938 66.121228 
" clip-path="url(#p3c3110dc2b)" style="fill: none; stroke: #b0b0b0; stroke-width: 0.8; stroke-linecap: square"/>
     </g>
     <g id="line2d_20">
      <g>
       <use xlink:href="#m6f3f5b6aff" x="61.410938" y="66.121228" style="stroke: #000000; stroke-width: 0.8"/>
      </g>
     </g>
     <g id="text_11">
      <!-- 0.8 -->
      <g transform="translate(30.55625 71.820056) scale(0.15 -0.15)">
       <defs>
        <path id="DejaVuSans-38" d="M 2034 2216 
Q 1584 2216 1326 1975 
Q 1069 1734 1069 1313 
Q 1069 891 1326 650 
Q 1584 409 2034 409 
Q 2484 409 2743 651 
Q 3003 894 3003 1313 
Q 3003 1734 2745 1975 
Q 2488 2216 2034 2216 
z
M 1403 2484 
Q 997 2584 770 2862 
Q 544 3141 544 3541 
Q 544 4100 942 4425 
Q 1341 4750 2034 4750 
Q 2731 4750 3128 4425 
Q 3525 4100 3525 3541 
Q 3525 3141 3298 2862 
Q 3072 2584 2669 2484 
Q 3125 2378 3379 2068 
Q 3634 1759 3634 1313 
Q 3634 634 3220 271 
Q 2806 -91 2034 -91 
Q 1263 -91 848 271 
Q 434 634 434 1313 
Q 434 1759 690 2068 
Q 947 2378 1403 2484 
z
M 1172 3481 
Q 1172 3119 1398 2916 
Q 1625 2713 2034 2713 
Q 2441 2713 2670 2916 
Q 2900 3119 2900 3481 
Q 2900 3844 2670 4047 
Q 2441 4250 2034 4250 
Q 1625 4250 1398 4047 
Q 1172 3844 1172 3481 
z
" transform="scale(0.015625)"/>
       </defs>
       <use xlink:href="#DejaVuSans-30"/>
       <use xlink:href="#DejaVuSans-2e" x="63.623047"/>
       <use xlink:href="#DejaVuSans-38" x="95.410156"/>
      </g>
     </g>
    </g>
    <g id="ytick_6">
     <g id="line2d_21">
      <path d="M 61.410938 12.898828 
L 418.530938 12.898828 
" clip-path="url(#p3c3110dc2b)" style="fill: none; stroke: #b0b0b0; stroke-width: 0.8; stroke-linecap: square"/>
     </g>
     <g id="line2d_22">
      <g>
       <use xlink:href="#m6f3f5b6aff" x="61.410938" y="12.898828" style="stroke: #000000; stroke-width: 0.8"/>
      </g>
     </g>
     <g id="text_12">
      <!-- 1.0 -->
      <g transform="translate(30.55625 18.597656) scale(0.15 -0.15)">
       <use xlink:href="#DejaVuSans-31"/>
       <use xlink:href="#DejaVuSans-2e" x="63.623047"/>
       <use xlink:href="#DejaVuSans-30" x="95.410156"/>
      </g>
     </g>
    </g>
    <g id="text_13">
     <!-- p -->
     <g transform="translate(22.396875 152.303266) rotate(-90) scale(0.2 -0.2)">
      <defs>
       <path id="DejaVuSans-70" d="M 1159 525 
L 1159 -1331 
L 581 -1331 
L 581 3500 
L 1159 3500 
L 1159 2969 
Q 1341 3281 1617 3432 
Q 1894 3584 2278 3584 
Q 2916 3584 3314 3078 
Q 3713 2572 3713 1747 
Q 3713 922 3314 415 
Q 2916 -91 2278 -91 
Q 1894 -91 1617 61 
Q 1341 213 1159 525 
z
M 3116 1747 
Q 3116 2381 2855 2742 
Q 2594 3103 2138 3103 
Q 1681 3103 1420 2742 
Q 1159 2381 1159 1747 
Q 1159 1113 1420 752 
Q 1681 391 2138 391 
Q 2594 391 2855 752 
Q 3116 1113 3116 1747 
z
" transform="scale(0.015625)"/>
      </defs>
      <use xlink:href="#DejaVuSans-70"/>
     </g>
    </g>
   </g>
   <g id="line2d_23">
    <path d="M 77.643665 279.010828 
L 78.487767 277.005791 
L 79.46173 274.071081 
L 80.630487 269.781292 
L 82.058967 263.63344 
L 84.169221 253.437539 
L 87.643025 236.658228 
L 89.201367 230.24693 
L 90.467519 225.910818 
L 91.571345 222.885746 
L 92.512843 220.909584 
L 93.356945 219.62878 
L 94.10365 218.886169 
L 94.752959 218.535446 
L 95.369803 218.45069 
L 95.986647 218.599895 
L 96.635956 218.998176 
L 97.350196 219.704365 
L 98.194298 220.869515 
L 99.200727 222.666907 
L 100.434414 225.35532 
L 102.187548 229.769844 
L 105.856145 239.124928 
L 107.219694 241.940725 
L 108.323519 243.749308 
L 109.265017 244.899501 
L 110.109119 245.594753 
L 110.855825 245.931784 
L 111.537599 246.00628 
L 112.219374 245.857058 
L 112.933614 245.463208 
L 113.712785 244.763608 
L 114.589352 243.655609 
L 115.595781 241.996332 
L 116.764538 239.612921 
L 118.193018 236.164746 
L 120.238341 230.576394 
L 124.10173 219.957977 
L 125.660072 216.365911 
L 126.95869 213.902874 
L 128.062516 212.253041 
L 129.068945 211.132669 
L 129.977978 210.445533 
L 130.822079 210.083964 
L 131.633716 209.982121 
L 132.445352 210.111537 
L 133.289454 210.476479 
L 134.230952 211.136187 
L 135.302312 212.169294 
L 136.60093 213.744614 
L 138.418996 216.336763 
L 142.31485 221.975013 
L 143.74333 223.606696 
L 144.944552 224.654892 
L 145.983447 225.281808 
L 146.95741 225.613532 
L 147.866443 225.69064 
L 148.775476 225.541258 
L 149.716974 225.151926 
L 150.723403 224.483584 
L 151.827228 223.47459 
L 153.093381 222.007186 
L 154.651723 219.842813 
L 156.989236 216.160872 
L 160.333178 210.936354 
L 162.021381 208.718531 
L 163.417396 207.237887 
L 164.651083 206.24321 
L 165.787374 205.607776 
L 166.858734 205.260922 
L 167.897628 205.154983 
L 168.968988 205.272045 
L 170.105279 205.626402 
L 171.371432 206.263658 
L 172.864843 207.274875 
L 174.975098 208.999432 
L 178.676159 212.038002 
L 180.299432 213.066464 
L 181.695447 213.69495 
L 182.961599 214.024687 
L 184.162821 214.11032 
L 185.364043 213.970844 
L 186.59773 213.599855 
L 187.928814 212.96027 
L 189.422225 211.987622 
L 191.272756 210.49903 
L 194.616698 207.451486 
L 197.181468 205.261301 
L 198.967068 204.017784 
L 200.52541 203.19832 
L 201.95389 202.695286 
L 203.317439 202.446057 
L 204.713454 202.419893 
L 206.174399 202.621453 
L 207.797672 203.079474 
L 209.778065 203.884128 
L 216.887999 207.000415 
L 218.608668 207.380335 
L 220.199476 207.508952 
L 221.790283 207.413076 
L 223.413556 207.091622 
L 225.199156 206.507348 
L 227.341876 205.561953 
L 231.464988 203.429078 
L 234.224552 202.147848 
L 236.269876 201.435988 
L 238.120407 201.021625 
L 239.938472 200.844143 
L 241.789003 200.889796 
L 243.834327 201.170068 
L 246.366632 201.755226 
L 253.249308 203.465831 
L 255.489425 203.713627 
L 257.599679 203.721003 
L 259.742399 203.502707 
L 262.144843 203.024813 
L 265.358923 202.136452 
L 270.780654 200.63028 
L 273.37789 200.163563 
L 275.780334 199.959077 
L 278.215243 199.978217 
L 280.974807 200.22962 
L 285.390108 200.895485 
L 289.578152 201.443333 
L 292.500043 201.597551 
L 295.292072 201.518938 
L 298.343825 201.202486 
L 302.824057 200.482608 
L 307.921134 199.722946 
L 311.167679 199.470213 
L 314.349294 199.447752 
L 318.082821 199.656916 
L 328.439301 200.371906 
L 332.140363 200.307248 
L 336.458268 199.995614 
L 346.392698 199.195708 
L 350.580741 199.148893 
L 355.710283 199.333164 
L 364.703214 199.676438 
L 369.637963 199.602388 
L 377.137483 199.222843 
L 383.72797 198.987796 
L 389.474356 199.019239 
L 402.29821 199.281288 
L 402.29821 199.281288 
" clip-path="url(#p3c3110dc2b)" style="fill: none; stroke: #1f77b4; stroke-width: 1.5; stroke-linecap: square"/>
   </g>
   <g id="line2d_24">
    <path d="M 77.643665 279.010828 
L 78.455301 277.090323 
L 79.396799 274.264371 
L 80.500625 270.203061 
L 81.831708 264.385036 
L 83.519912 255.916977 
L 86.896319 237.481083 
L 89.10397 226.148807 
L 90.662312 219.243156 
L 91.96093 214.43569 
L 93.097221 211.03922 
L 94.10365 208.703717 
L 94.980218 207.195425 
L 95.759388 206.263055 
L 96.473628 205.737562 
L 97.122938 205.522627 
L 97.772247 205.545424 
L 98.421556 205.791095 
L 99.168261 206.326618 
L 100.012363 207.221814 
L 101.051258 208.677135 
L 102.382341 210.964106 
L 104.914647 215.882815 
L 106.797643 219.291816 
L 108.063796 221.150468 
L 109.10269 222.300079 
L 109.979258 222.958453 
L 110.758428 223.280221 
L 111.472668 223.344841 
L 112.186908 223.182107 
L 112.901148 222.789002 
L 113.680319 222.098304 
L 114.556887 221.001929 
L 115.53085 219.405836 
L 116.667141 217.08275 
L 117.998225 213.817525 
L 119.686428 209.034628 
L 122.705716 199.64624 
L 125.205556 192.209011 
L 126.828828 188.04012 
L 128.192378 185.120322 
L 129.361134 183.108592 
L 130.432494 181.690893 
L 131.406458 180.763803 
L 132.283025 180.221138 
L 133.127127 179.951125 
L 133.971228 179.915639 
L 134.847796 180.108095 
L 135.789294 180.547553 
L 136.893119 181.323147 
L 138.256668 182.57777 
L 140.366923 184.874361 
L 142.996625 187.67003 
L 144.425105 188.868375 
L 145.593861 189.575086 
L 146.632756 189.954711 
L 147.606719 190.075936 
L 148.548218 189.965591 
L 149.489716 189.627183 
L 150.463679 189.039339 
L 151.535039 188.124451 
L 152.736261 186.790461 
L 154.132276 184.886046 
L 155.852945 182.137701 
L 158.807301 176.912179 
L 161.501934 172.324978 
L 163.222603 169.818382 
L 164.651083 168.107992 
L 165.917236 166.918578 
L 167.085992 166.111137 
L 168.189818 165.607927 
L 169.293643 165.350209 
L 170.397468 165.323144 
L 171.566225 165.520899 
L 172.864843 165.972224 
L 174.45565 166.776199 
L 176.987956 168.349204 
L 179.650123 169.922656 
L 181.273396 170.628301 
L 182.66941 170.997213 
L 183.935563 171.107206 
L 185.16925 170.992699 
L 186.402938 170.655323 
L 187.701556 170.066736 
L 189.130036 169.165897 
L 190.785774 167.842305 
L 192.928494 165.816771 
L 198.674879 160.229737 
L 200.428014 158.914497 
L 201.986356 158.014458 
L 203.447301 157.424972 
L 204.843316 157.096232 
L 206.271796 156.987343 
L 207.797672 157.099384 
L 209.518341 157.457085 
L 211.758458 158.167538 
L 216.887999 159.869769 
L 218.770996 160.209951 
L 220.459199 160.291125 
L 222.082472 160.148116 
L 223.73821 159.778373 
L 225.52381 159.147352 
L 227.601599 158.167861 
L 230.653352 156.451747 
L 234.646603 154.249441 
L 236.854254 153.294652 
L 238.769716 152.702068 
L 240.620247 152.361062 
L 242.503243 152.24434 
L 244.516101 152.346434 
L 246.95101 152.703146 
L 255.067374 154.081263 
L 257.275025 154.115236 
L 259.45021 153.924138 
L 261.755258 153.491072 
L 264.482356 152.74027 
L 273.475287 150.072629 
L 275.942661 149.692934 
L 278.37757 149.544324 
L 281.039738 149.612163 
L 284.513541 149.942307 
L 290.811839 150.563269 
L 293.798661 150.601519 
L 296.688087 150.412434 
L 299.934632 149.96781 
L 311.719592 148.120533 
L 314.933672 147.99931 
L 318.569803 148.093786 
L 330.549556 148.595273 
L 334.44541 148.396731 
L 339.80221 147.871851 
L 346.360232 147.274731 
L 350.613207 147.12405 
L 355.385628 147.189997 
L 367.170588 147.455505 
L 372.494923 147.26086 
L 386.357672 146.625397 
L 392.688436 146.678481 
L 402.29821 146.817269 
L 402.29821 146.817269 
" clip-path="url(#p3c3110dc2b)" style="fill: none; stroke-dasharray: 5.55,2.4; stroke-dashoffset: 0; stroke: #2ca02c; stroke-width: 1.5"/>
   </g>
   <g id="line2d_25">
    <path d="M 77.643665 279.010828 
L 78.455301 277.088146 
L 79.396799 274.242744 
L 80.468159 270.244443 
L 81.701847 264.73512 
L 83.195258 256.986926 
L 85.208116 245.252925 
L 90.272727 215.204019 
L 91.895999 207.16667 
L 93.259548 201.485644 
L 94.46077 197.400492 
L 95.499665 194.600298 
L 96.441163 192.656031 
L 97.285265 191.384025 
L 98.064436 190.59021 
L 98.778676 190.166223 
L 99.46045 190.014398 
L 100.142225 190.089619 
L 100.88893 190.406111 
L 101.733032 191.019027 
L 102.771927 192.072733 
L 104.167941 193.842029 
L 107.966399 198.832283 
L 109.070225 199.846848 
L 110.011723 200.42253 
L 110.823359 200.668019 
L 111.570065 200.668045 
L 112.31677 200.43803 
L 113.063476 199.969154 
L 113.875112 199.183516 
L 114.751679 198.012524 
L 115.725643 196.328422 
L 116.829468 193.959876 
L 118.128087 190.61225 
L 119.686428 185.938361 
L 121.829148 178.740038 
L 126.341847 163.431065 
L 128.03005 158.578012 
L 129.426065 155.196029 
L 130.659752 152.754455 
L 131.763577 151.031925 
L 132.770007 149.846665 
L 133.711505 149.064097 
L 134.620538 148.594342 
L 135.497105 148.389347 
L 136.406137 148.410096 
L 137.380101 148.66292 
L 138.483927 149.18676 
L 139.879941 150.110746 
L 145.204276 153.903991 
L 146.373032 154.321615 
L 147.411927 154.460721 
L 148.38589 154.368804 
L 149.359854 154.047634 
L 150.333818 153.490741 
L 151.372712 152.637815 
L 152.509003 151.410305 
L 153.807621 149.661082 
L 155.301032 147.259476 
L 157.216494 143.73065 
L 163.677119 131.465599 
L 165.267927 129.112744 
L 166.663941 127.434292 
L 167.930094 126.252495 
L 169.09885 125.455777 
L 170.235141 124.946165 
L 171.371432 124.682549 
L 172.540188 124.643132 
L 173.806341 124.826722 
L 175.299752 125.277045 
L 177.442472 126.182414 
L 180.721483 127.552874 
L 182.31229 127.967282 
L 183.708305 128.103849 
L 185.006923 128.005401 
L 186.273076 127.68335 
L 187.571694 127.117195 
L 188.935243 126.275053 
L 190.461119 125.061107 
L 192.279185 123.310548 
L 194.843956 120.492518 
L 198.999534 115.930913 
L 200.947461 114.144776 
L 202.603199 112.921309 
L 204.09661 112.083944 
L 205.52509 111.528548 
L 206.95357 111.206907 
L 208.446981 111.09925 
L 210.102719 111.21008 
L 212.115578 111.58062 
L 218.933323 113.030439 
L 220.718923 113.063784 
L 222.407127 112.869712 
L 224.09533 112.446088 
L 225.88093 111.7605 
L 227.893788 110.739369 
L 230.555956 109.117596 
L 235.977687 105.761724 
L 238.152872 104.717215 
L 240.068334 104.037269 
L 241.918865 103.612786 
L 243.801861 103.408646 
L 245.847185 103.41322 
L 248.37949 103.65457 
L 255.781614 104.50526 
L 258.054196 104.451896 
L 260.261847 104.175662 
L 262.566894 103.659729 
L 265.293992 102.811896 
L 274.611578 99.708425 
L 277.078952 99.249889 
L 279.513861 99.023197 
L 282.176028 99.003818 
L 285.682298 99.219359 
L 291.94813 99.623368 
L 294.967418 99.563954 
L 297.921774 99.278519 
L 301.298181 98.71732 
L 311.979316 96.761384 
L 315.193396 96.521317 
L 318.667199 96.492749 
L 324.023999 96.709446 
L 329.348334 96.845144 
L 333.244188 96.713304 
L 337.529628 96.333138 
L 349.249658 95.155906 
L 353.567563 95.050085 
L 359.44381 95.157507 
L 366.813468 95.249563 
L 372.007941 95.07273 
L 389.734079 94.235373 
L 398.629614 94.336892 
L 402.29821 94.353251 
L 402.29821 94.353251 
" clip-path="url(#p3c3110dc2b)" style="fill: none; stroke: #ff7f0e; stroke-width: 1.5; stroke-linecap: square"/>
   </g>
   <g id="line2d_26">
    <path d="M 77.643665 279.010828 
L 78.455301 277.090323 
L 79.396799 274.264371 
L 80.500625 270.203061 
L 81.831708 264.385036 
L 83.519912 255.916977 
L 86.896319 237.481083 
L 89.10397 226.148807 
L 90.662312 219.243156 
L 91.96093 214.43569 
L 93.097221 211.03922 
L 94.10365 208.703717 
L 94.980218 207.195425 
L 95.759388 206.263055 
L 96.473628 205.737562 
L 97.122938 205.522627 
L 97.772247 205.545424 
L 98.421556 205.791095 
L 99.168261 206.326618 
L 100.012363 207.221814 
L 101.051258 208.677135 
L 102.382341 210.964106 
L 104.914647 215.882815 
L 106.797643 219.291816 
L 108.063796 221.150468 
L 109.10269 222.300079 
L 109.979258 222.958453 
L 110.758428 223.280221 
L 111.472668 223.344841 
L 112.186908 223.182107 
L 112.901148 222.789002 
L 113.680319 222.098304 
L 114.556887 221.001929 
L 115.53085 219.405836 
L 116.667141 217.08275 
L 117.998225 213.817525 
L 119.686428 209.034628 
L 122.705716 199.64624 
L 125.205556 192.209011 
L 126.828828 188.04012 
L 128.192378 185.120322 
L 129.361134 183.108592 
L 130.432494 181.690893 
L 131.406458 180.763803 
L 132.283025 180.221138 
L 133.127127 179.951125 
L 133.971228 179.915639 
L 134.847796 180.108095 
L 135.789294 180.547553 
L 136.893119 181.323147 
L 138.256668 182.57777 
L 140.366923 184.874361 
L 142.996625 187.67003 
L 144.425105 188.868375 
L 145.593861 189.575086 
L 146.632756 189.954711 
L 147.606719 190.075936 
L 148.548218 189.965591 
L 149.489716 189.627183 
L 150.463679 189.039339 
L 151.535039 188.124451 
L 152.736261 186.790461 
L 154.132276 184.886046 
L 155.852945 182.137701 
L 158.807301 176.912179 
L 161.501934 172.324978 
L 163.222603 169.818382 
L 164.651083 168.107992 
L 165.917236 166.918578 
L 167.085992 166.111137 
L 168.189818 165.607927 
L 169.293643 165.350209 
L 170.397468 165.323144 
L 171.566225 165.520899 
L 172.864843 165.972224 
L 174.45565 166.776199 
L 176.987956 168.349204 
L 179.650123 169.922656 
L 181.273396 170.628301 
L 182.66941 170.997213 
L 183.935563 171.107206 
L 185.16925 170.992699 
L 186.402938 170.655323 
L 187.701556 170.066736 
L 189.130036 169.165897 
L 190.785774 167.842305 
L 192.928494 165.816771 
L 198.674879 160.229737 
L 200.428014 158.914497 
L 201.986356 158.014458 
L 203.447301 157.424972 
L 204.843316 157.096232 
L 206.271796 156.987343 
L 207.797672 157.099384 
L 209.518341 157.457085 
L 211.758458 158.167538 
L 216.887999 159.869769 
L 218.770996 160.209951 
L 220.459199 160.291125 
L 222.082472 160.148116 
L 223.73821 159.778373 
L 225.52381 159.147352 
L 227.601599 158.167861 
L 230.653352 156.451747 
L 234.646603 154.249441 
L 236.854254 153.294652 
L 238.769716 152.702068 
L 240.620247 152.361062 
L 242.503243 152.24434 
L 244.516101 152.346434 
L 246.95101 152.703146 
L 255.067374 154.081263 
L 257.275025 154.115236 
L 259.45021 153.924138 
L 261.755258 153.491072 
L 264.482356 152.74027 
L 273.475287 150.072629 
L 275.942661 149.692934 
L 278.37757 149.544324 
L 281.039738 149.612163 
L 284.513541 149.942307 
L 290.811839 150.563269 
L 293.798661 150.601519 
L 296.688087 150.412434 
L 299.934632 149.96781 
L 311.719592 148.120533 
L 314.933672 147.99931 
L 318.569803 148.093786 
L 330.549556 148.595273 
L 334.44541 148.396731 
L 339.80221 147.871851 
L 346.360232 147.274731 
L 350.613207 147.12405 
L 355.385628 147.189997 
L 367.170588 147.455505 
L 372.494923 147.26086 
L 386.357672 146.625397 
L 392.688436 146.678481 
L 402.29821 146.817269 
L 402.29821 146.817269 
" clip-path="url(#p3c3110dc2b)" style="fill: none; stroke-dasharray: 5.55,2.4; stroke-dashoffset: 0; stroke: #d62728; stroke-width: 1.5"/>
   </g>
   <g id="patch_3">
    <path d="M 61.410938 279.010828 
L 61.410938 12.898828 
" style="fill: none; stroke: #000000; stroke-width: 0.8; stroke-linejoin: miter; stroke-linecap: square"/>
   </g>
   <g id="patch_4">
    <path d="M 418.530938 279.010828 
L 418.530938 12.898828 
" style="fill: none; stroke: #000000; stroke-width: 0.8; stroke-linejoin: miter; stroke-linecap: square"/>
   </g>
   <g id="patch_5">
    <path d="M 61.410938 279.010828 
L 418.530938 279.010828 
" style="fill: none; stroke: #000000; stroke-width: 0.8; stroke-linejoin: miter; stroke-linecap: square"/>
   </g>
   <g id="patch_6">
    <path d="M 61.410938 12.898828 
L 418.530938 12.898828 
" style="fill: none; stroke: #000000; stroke-width: 0.8; stroke-linejoin: miter; stroke-linecap: square"/>
   </g>
  </g>
 </g>
 <defs>
  <clipPath id="p3c3110dc2b">
   <rect x="61.410938" y="12.898828" width="357.12" height="266.112"/>
  </clipPath>
 </defs>
</svg>
