<?xml version="1.0" encoding="utf-8" standalone="no"?>
<!DOCTYPE svg PUBLIC "-//W3C//DTD SVG 1.1//EN"
  "http://www.w3.org/Graphics/SVG/1.1/DTD/svg11.dtd">
<svg xmlns:xlink="http://www.w3.org/1999/xlink" width="425.730937pt" height="331.084266pt" viewBox="0 0 425.730937 331.084266" xmlns="http://www.w3.org/2000/svg" version="1.1">
 <defs>
  <style type="text/css">*{stroke-linejoin: round; stroke-linecap: butt}</style>
 </defs>
 <g id="figure_1">
  <g id="patch_1">
   <path d="M 0 331.084266 
L 425.730937 331.084266 
L 425.730937 0 
L 0 0 
L 0 331.084266 
z
" style="fill: none"/>
  </g>
  <g id="axes_1">
   <g id="patch_2">
    <path d="M 61.410938 279.010828 
L 418.530938 279.010828 
L 418.530938 12.898828 
L 61.410938 12.898828 
L 61.410938 279.010828 
z
" style="fill: none"/>
   </g>
   <g id="matplotlib.axis_1">
    <g id="xtick_1">
     <g id="line2d_1">
      <path d="M 84.95981 279.010828 
L 84.95981 12.898828 
" clip-path="url(#p3c3110dc2b)" style="fill: none; stroke: #b0b0b0; stroke-width: 0.8; stroke-linecap: square"/>
     </g>
     <g id="line2d_2">
      <defs>
       <path id="md39032bed2" d="M 0 0 
L 0 3.5 
" style="stroke: #000000; stroke-width: 0.8"/>
      </defs>
      <g>
       <use xlink:href="#md39032bed2" x="84.95981" y="279.010828" style="stroke: #000000; stroke-width: 0.8"/>
      </g>
     </g>
     <g id="text_1">
      <!-- −3 -->
      <g transform="translate(73.90317 297.408484) scale(0.15 -0.15)">
       <defs>
        <path id="DejaVuSans-2212" d="M 678 2272 
L 4684 2272 
L 4684 1741 
L 678 1741 
L 678 2272 
z
" transform="scale(0.015625)"/>
        <path id="DejaVuSans-33" d="M 2597 2516 
Q 3050 2419 3304 2112 
Q 3559 1806 3559 1356 
Q 3559 666 3084 287 
Q 2609 -91 1734 -91 
Q 1441 -91 1130 -33 
Q 819 25 488 141 
L 488 750 
Q 750 597 1062 519 
Q 1375 441 1716 441 
Q 2309 441 2620 675 
Q 2931 909 2931 1356 
Q 2931 1769 2642 2001 
Q 2353 2234 1838 2234 
L 1294 2234 
L 1294 2753 
L 1863 2753 
Q 2328 2753 2575 2939 
Q 2822 3125 2822 3475 
Q 2822 3834 2567 4026 
Q 2313 4219 1838 4219 
Q 1578 4219 1281 4162 
Q 984 4106 628 3988 
L 628 4550 
Q 988 4650 1302 4700 
Q 1616 4750 1894 4750 
Q 2613 4750 3031 4423 
Q 3450 4097 3450 3541 
Q 3450 3153 3228 2886 
Q 3006 2619 2597 2516 
z
" transform="scale(0.015625)"/>
       </defs>
       <use xlink:href="#DejaVuSans-2212"/>
       <use xlink:href="#DejaVuSans-33" x="83.789062"/>
      </g>
     </g>
    </g>
    <g id="xtick_2">
     <g id="line2d_3">
      <path d="M 136.630186 279.010828 
L 136.630186 12.898828 
" clip-path="url(#p3c3110dc2b)" style="fill: none; stroke: #b0b0b0; stroke-width: 0.8; stroke-linecap: square"/>
     </g>
     <g id="line2d_4">
      <g>
       <use xlink:href="#md39032bed2" x="136.630186" y="279.010828" style="stroke: #000000; stroke-width: 0.8"/>
      </g>
     </g>
     <g id="text_2">
      <!-- −2 -->
      <g transform="translate(125.573545 297.408484) scale(0.15 -0.15)">
       <defs>
        <path id="DejaVuSans-32" d="M 1228 531 
L 3431 531 
L 3431 0 
L 469 0 
L 469 531 
Q 828 903 1448 1529 
Q 2069 2156 2228 2338 
Q 2531 2678 2651 2914 
Q 2772 3150 2772 3378 
Q 2772 3750 2511 3984 
Q 2250 4219 1831 4219 
Q 1534 4219 1204 4116 
Q 875 4013 500 3803 
L 500 4441 
Q 881 4594 1212 4672 
Q 1544 4750 1819 4750 
Q 2544 4750 2975 4387 
Q 3406 4025 3406 3419 
Q 3406 3131 3298 2873 
Q 3191 2616 2906 2266 
Q 2828 2175 2409 1742 
Q 1991 1309 1228 531 
z
" transform="scale(0.015625)"/>
       </defs>
       <use xlink:href="#DejaVuSans-2212"/>
       <use xlink:href="#DejaVuSans-32" x="83.789062"/>
      </g>
     </g>
    </g>
    <g id="xtick_3">
     <g id="line2d_5">
      <path d="M 188.300562 279.010828 
L 188.300562 12.898828 
" clip-path="url(#p3c3110dc2b)" style="fill: none; stroke: #b0b0b0; stroke-width: 0.8; stroke-linecap: square"/>
     </g>
     <g id="line2d_6">
      <g>
       <use xlink:href="#md39032bed2" x="188.300562" y="279.010828" style="stroke: #000000; stroke-width: 0.8"/>
      </g>
     </g>
     <g id="text_3">
      <!-- −1 -->
      <g transform="translate(177.243921 297.408484) scale(0.15 -0.15)">
       <defs>
        <path id="DejaVuSans-31" d="M 794 531 
L 1825 531 
L 1825 4091 
L 703 3866 
L 703 4441 
L 1819 4666 
L 2450 4666 
L 2450 531 
L 3481 531 
L 3481 0 
L 794 0 
L 794 531 
z
" transform="scale(0.015625)"/>
       </defs>
       <use xlink:href="#DejaVuSans-2212"/>
       <use xlink:href="#DejaVuSans-31" x="83.789062"/>
      </g>
     </g>
    </g>
    <g id="xtick_4">
     <g id="line2d_7">
      <path d="M 239.970938 279.010828 
L 239.970938 12.898828 
" clip-path="url(#p3c3110dc2b)" style="fill: none; stroke: #b0b0b0; stroke-width: 0.8; stroke-linecap: square"/>
     </g>
     <g id="line2d_8">
      <g>
       <use xlink:href="#md39032bed2" x="239.970938" y="279.010828" style="stroke: #000000; stroke-width: 0.8"/>
      </g>
     </g>
     <g id="text_4">
      <!-- 0 -->
      <g transform="translate(235.199063 297.408484) scale(0.15 -0.15)">
       <defs>
        <path id="DejaVuSans-30" d="M 2034 4250 
Q 1547 4250 1301 3770 
Q 1056 3291 1056 2328 
Q 1056 1369 1301 889 
Q 1547 409 2034 409 
Q 2525 409 2770 889 
Q 3016 1369 3016 2328 
Q 3016 3291 2770 3770 
Q 2525 4250 2034 4250 
z
M 2034 4750 
Q 2819 4750 3233 4129 
Q 3647 3509 3647 2328 
Q 3647 1150 3233 529 
Q 2819 -91 2034 -91 
Q 1250 -91 836 529 
Q 422 1150 422 2328 
Q 422 3509 836 4129 
Q 1250 4750 2034 4750 
z
" transform="scale(0.015625)"/>
       </defs>
       <use xlink:href="#DejaVuSans-30"/>
      </g>
     </g>
    </g>
    <g id="xtick_5">
     <g id="line2d_9">
      <path d="M 291.641313 279.010828 
L 291.641313 12.898828 
" clip-path="url(#p3c3110dc2b)" style="fill: none; stroke: #b0b0b0; stroke-width: 0.8; stroke-linecap: square"/>
     </g>
     <g id="line2d_10">
      <g>
       <use xlink:href="#md39032bed2" x="291.641313" y="279.010828" style="stroke: #000000; stroke-width: 0.8"/>
      </g>
     </g>
     <g id="text_5">
      <!-- 1 -->
      <g transform="translate(286.869438 297.408484) scale(0.15 -0.15)">
       <use xlink:href="#DejaVuSans-31"/>
      </g>
     </g>
    </g>
    <g id="xtick_6">
     <g id="line2d_11">
      <path d="M 343.311689 279.010828 
L 343.311689 12.898828 
" clip-path="url(#p3c3110dc2b)" style="fill: none; stroke: #b0b0b0; stroke-width: 0.8; stroke-linecap: square"/>
     </g>
     <g id="line2d_12">
      <g>
       <use xlink:href="#md39032bed2" x="343.311689" y="279.010828" style="stroke: #000000; stroke-width: 0.8"/>
      </g>
     </g>
     <g id="text_6">
      <!-- 2 -->
      <g transform="translate(338.539814 297.408484) scale(0.15 -0.15)">
       <use xlink:href="#DejaVuSans-32"/>
      </g>
     </g>
    </g>
    <g id="xtick_7">
     <g id="line2d_13">
      <path d="M 394.982065 279.010828 
L 394.982065 12.898828 
" clip-path="url(#p3c3110dc2b)" style="fill: none; stroke: #b0b0b0; stroke-width: 0.8; stroke-linecap: square"/>
     </g>
     <g id="line2d_14">
      <g>
       <use xlink:href="#md39032bed2" x="394.982065" y="279.010828" style="stroke: #000000; stroke-width: 0.8"/>
      </g>
     </g>
     <g id="text_7">
      <!-- 3 -->
      <g transform="translate(390.21019 297.408484) scale(0.15 -0.15)">
       <use xlink:href="#DejaVuSans-33"/>
      </g>
     </g>
    </g>
    <g id="text_8">
     <!-- Detuning -->
     <g transform="translate(194.058438 319.724891) scale(0.2 -0.2)">
      <defs>
       <path id="DejaVuSans-44" d="M 1259 4147 
L 1259 519 
L 2022 519 
Q 2988 519 3436 956 
Q 3884 1394 3884 2338 
Q 3884 3275 3436 3711 
Q 2988 4147 2022 4147 
L 1259 4147 
z
M 628 4666 
L 1925 4666 
Q 3281 4666 3915 4102 
Q 4550 3538 4550 2338 
Q 4550 1131 3912 565 
Q 3275 0 1925 0 
L 628 0 
L 628 4666 
z
" transform="scale(0.015625)"/>
       <path id="DejaVuSans-65" d="M 3597 1894 
L 3597 1613 
L 953 1613 
Q 991 1019 1311 708 
Q 1631 397 2203 397 
Q 2534 397 2845 478 
Q 3156 559 3463 722 
L 3463 178 
Q 3153 47 2828 -22 
Q 2503 -91 2169 -91 
Q 1331 -91 842 396 
Q 353 884 353 1716 
Q 353 2575 817 3079 
Q 1281 3584 2069 3584 
Q 2775 3584 3186 3129 
Q 3597 2675 3597 1894 
z
M 3022 2063 
Q 3016 2534 2758 2815 
Q 2500 3097 2075 3097 
Q 1594 3097 1305 2825 
Q 1016 2553 972 2059 
L 3022 2063 
z
" transform="scale(0.015625)"/>
       <path id="DejaVuSans-74" d="M 1172 4494 
L 1172 3500 
L 2356 3500 
L 2356 3053 
L 1172 3053 
L 1172 1153 
Q 1172 725 1289 603 
Q 1406 481 1766 481 
L 2356 481 
L 2356 0 
L 1766 0 
Q 1100 0 847 248 
Q 594 497 594 1153 
L 594 3053 
L 172 3053 
L 172 3500 
L 594 3500 
L 594 4494 
L 1172 4494 
z
" transform="scale(0.015625)"/>
       <path id="DejaVuSans-75" d="M 544 1381 
L 544 3500 
L 1119 3500 
L 1119 1403 
Q 1119 906 1312 657 
Q 1506 409 1894 409 
Q 2359 409 2629 706 
Q 2900 1003 2900 1516 
L 2900 3500 
L 3475 3500 
L 3475 0 
L 2900 0 
L 2900 538 
Q 2691 219 2414 64 
Q 2138 -91 1772 -91 
Q 1169 -91 856 284 
Q 544 659 544 1381 
z
M 1991 3584 
L 1991 3584 
z
" transform="scale(0.015625)"/>
       <path id="DejaVuSans-6e" d="M 3513 2113 
L 3513 0 
L 2938 0 
L 2938 2094 
Q 2938 2591 2744 2837 
Q 2550 3084 2163 3084 
Q 1697 3084 1428 2787 
Q 1159 2491 1159 1978 
L 1159 0 
L 581 0 
L 581 3500 
L 1159 3500 
L 1159 2956 
Q 1366 3272 1645 3428 
Q 1925 3584 2291 3584 
Q 2894 3584 3203 3211 
Q 3513 2838 3513 2113 
z
" transform="scale(0.015625)"/>
       <path id="DejaVuSans-69" d="M 603 3500 
L 1178 3500 
L 1178 0 
L 603 0 
L 603 3500 
z
M 603 4863 
L 1178 4863 
L 1178 4134 
L 603 4134 
L 603 4863 
z
" transform="scale(0.015625)"/>
       <path id="DejaVuSans-67" d="M 2906 1791 
Q 2906 2416 2648 2759 
Q 2391 3103 1925 3103 
Q 1463 3103 1205 2759 
Q 947 2416 947 1791 
Q 947 1169 1205 825 
Q 1463 481 1925 481 
Q 2391 481 2648 825 
Q 2906 1169 2906 1791 
z
M 3481 434 
Q 3481 -459 3084 -895 
Q 2688 -1331 1869 -1331 
Q 1566 -1331 1297 -1286 
Q 1028 -1241 775 -1147 
L 775 -588 
Q 1028 -725 1275 -790 
Q 1522 -856 1778 -856 
Q 2344 -856 2625 -561 
Q 2906 -266 2906 331 
L 2906 616 
Q 2728 306 2450 153 
Q 2172 0 1784 0 
Q 1141 0 747 490 
Q 353 981 353 1791 
Q 353 2603 747 3093 
Q 1141 3584 1784 3584 
Q 2172 3584 2450 3431 
Q 2728 3278 2906 2969 
L 2906 3500 
L 3481 3500 
L 3481 434 
z
" transform="scale(0.015625)"/>
      </defs>
      <use xlink:href="#DejaVuSans-44"/>
      <use xlink:href="#DejaVuSans-65" x="77.001953"/>
      <use xlink:href="#DejaVuSans-74" x="138.525391"/>
      <use xlink:href="#DejaVuSans-75" x="177.734375"/>
      <use xlink:href="#DejaVuSans-6e" x="241.113281"/>
      <use xlink:href="#DejaVuSans-69" x="304.492188"/>
      <use xlink:href="#DejaVuSans-6e" x="332.275391"/>
      <use xlink:href="#DejaVuSans-67" x="395.654297"/>
     </g>
    </g>
   </g>
   <g id="matplotlib.axis_2">
    <g id="ytick_1">
     <g id="line2d_15">
      <path d="M 61.410938 279.010828 
L 418.530938 279.010828 
" clip-path="url(#p3c3110dc2b)" style="fill: none; stroke: #b0b0b0; stroke-width: 0.8; stroke-linecap: square"/>
     </g>
     <g id="line2d_16">
      <defs>
       <path id="m6f3f5b6aff" d="M 0 0 
L -3.5 0 
" style="stroke: #000000; stroke-width: 0.8"/>
      </defs>
      <g>
       <use xlink:href="#m6f3f5b6aff" x="61.410938" y="279.010828" style="stroke: #000000; stroke-width: 0.8"/>
      </g>
     </g>
     <g id="text_9">
      <!-- 0.0 -->
      <g transform="translate(30.55625 284.709656) scale(0.15 -0.15)">
       <defs>
        <path id="DejaVuSans-2e" d="M 684 794 
L 1344 794 
L 1344 0 
L 684 0 
L 684 794 
z
" transform="scale(0.015625)"/>
       </defs>
       <use xlink:href="#DejaVuSans-30"/>
       <use xlink:href="#DejaVuSans-2e" x="63.623047"/>
       <use xlink:href="#DejaVuSans-30" x="95.410156"/>
      </g>
     </g>
    </g>
    <g id="ytick_2">
     <g id="line2d_17">
      <path d="M 61.410938 225.788428 
L 418.530938 225.788428 
" clip-path="url(#p3c3110dc2b)" style="fill: none; stroke: #b0b0b0; stroke-width: 0.8; stroke-linecap: square"/>
     </g>
     <g id="line2d_18">
      <g>
       <use xlink:href="#m6f3f5b6aff" x="61.410938" y="225.788428" style="stroke: #000000; stroke-width: 0.8"/>
      </g>
     </g>
     <g id="text_10">
      <!-- 0.2 -->
      <g transform="translate(30.55625 231.487256) scale(0.15 -0.15)">
       <use xlink:href="#DejaVuSans-30"/>
       <use xlink:href="#DejaVuSans-2e" x="63.623047"/>
       <use xlink:href="#DejaVuSans-32" x="95.410156"/>
      </g>
     </g>
    </g>
    <g id="ytick_3">
     <g id="line2d_19">
      <path d="M 61.410938 172.566028 
L 418.530938 172.566028 
" clip-path="url(#p3c3110dc2b)" style="fill: none; stroke: #b0b0b0; stroke-width: 0.8; stroke-linecap: square"/>
     </g>
     <g id="line2d_20">
      <g>
       <use xlink:href="#m6f3f5b6aff" x="61.410938" y="172.566028" style="stroke: #000000; stroke-width: 0.8"/>
      </g>
     </g>
     <g id="text_11">
      <!-- 0.4 -->
      <g transform="translate(30.55625 178.264856) scale(0.15 -0.15)">
       <defs>
        <path id="DejaVuSans-34" d="M 2419 4116 
L 825 1625 
L 2419 1625 
L 2419 4116 
z
M 2253 4666 
L 3047 4666 
L 3047 1625 
L 3713 1625 
L 3713 1100 
L 3047 1100 
L 3047 0 
L 2419 0 
L 2419 1100 
L 313 1100 
L 313 1709 
L 2253 4666 
z
" transform="scale(0.015625)"/>
       </defs>
       <use xlink:href="#DejaVuSans-30"/>
       <use xlink:href="#DejaVuSans-2e" x="63.623047"/>
       <use xlink:href="#DejaVuSans-34" x="95.410156"/>
      </g>
     </g>
    </g>
    <g id="ytick_4">
     <g id="line2d_21">
      <path d="M 61.410938 119.343628 
L 418.530938 119.343628 
" clip-path="url(#p3c3110dc2b)" style="fill: none; stroke: #b0b0b0; stroke-width: 0.8; stroke-linecap: square"/>
     </g>
     <g id="line2d_22">
      <g>
       <use xlink:href="#m6f3f5b6aff" x="61.410938" y="119.343628" style="stroke: #000000; stroke-width: 0.8"/>
      </g>
     </g>
     <g id="text_12">
      <!-- 0.6 -->
      <g transform="translate(30.55625 125.042456) scale(0.15 -0.15)">
       <defs>
        <path id="DejaVuSans-36" d="M 2113 2584 
Q 1688 2584 1439 2293 
Q 1191 2003 1191 1497 
Q 1191 994 1439 701 
Q 1688 409 2113 409 
Q 2538 409 2786 701 
Q 3034 994 3034 1497 
Q 3034 2003 2786 2293 
Q 2538 2584 2113 2584 
z
M 3366 4563 
L 3366 3988 
Q 3128 4100 2886 4159 
Q 2644 4219 2406 4219 
Q 1781 4219 1451 3797 
Q 1122 3375 1075 2522 
Q 1259 2794 1537 2939 
Q 1816 3084 2150 3084 
Q 2853 3084 3261 2657 
Q 3669 2231 3669 1497 
Q 3669 778 3244 343 
Q 2819 -91 2113 -91 
Q 1303 -91 875 529 
Q 447 1150 447 2328 
Q 447 3434 972 4092 
Q 1497 4750 2381 4750 
Q 2619 4750 2861 4703 
Q 3103 4656 3366 4563 
z
" transform="scale(0.015625)"/>
       </defs>
       <use xlink:href="#DejaVuSans-30"/>
       <use xlink:href="#DejaVuSans-2e" x="63.623047"/>
       <use xlink:href="#DejaVuSans-36" x="95.410156"/>
      </g>
     </g>
    </g>
    <g id="ytick_5">
     <g id="line2d_23">
      <path d="M 61.410938 66.121228 
L 418.530938 66.121228 
" clip-path="url(#p3c3110dc2b)" style="fill: none; stroke: #b0b0b0; stroke-width: 0.8; stroke-linecap: square"/>
     </g>
     <g id="line2d_24">
      <g>
       <use xlink:href="#m6f3f5b6aff" x="61.410938" y="66.121228" style="stroke: #000000; stroke-width: 0.8"/>
      </g>
     </g>
     <g id="text_13">
      <!-- 0.8 -->
      <g transform="translate(30.55625 71.820056) scale(0.15 -0.15)">
       <defs>
        <path id="DejaVuSans-38" d="M 2034 2216 
Q 1584 2216 1326 1975 
Q 1069 1734 1069 1313 
Q 1069 891 1326 650 
Q 1584 409 2034 409 
Q 2484 409 2743 651 
Q 3003 894 3003 1313 
Q 3003 1734 2745 1975 
Q 2488 2216 2034 2216 
z
M 1403 2484 
Q 997 2584 770 2862 
Q 544 3141 544 3541 
Q 544 4100 942 4425 
Q 1341 4750 2034 4750 
Q 2731 4750 3128 4425 
Q 3525 4100 3525 3541 
Q 3525 3141 3298 2862 
Q 3072 2584 2669 2484 
Q 3125 2378 3379 2068 
Q 3634 1759 3634 1313 
Q 3634 634 3220 271 
Q 2806 -91 2034 -91 
Q 1263 -91 848 271 
Q 434 634 434 1313 
Q 434 1759 690 2068 
Q 947 2378 1403 2484 
z
M 1172 3481 
Q 1172 3119 1398 2916 
Q 1625 2713 2034 2713 
Q 2441 2713 2670 2916 
Q 2900 3119 2900 3481 
Q 2900 3844 2670 4047 
Q 2441 4250 2034 4250 
Q 1625 4250 1398 4047 
Q 1172 3844 1172 3481 
z
" transform="scale(0.015625)"/>
       </defs>
       <use xlink:href="#DejaVuSans-30"/>
       <use xlink:href="#DejaVuSans-2e" x="63.623047"/>
       <use xlink:href="#DejaVuSans-38" x="95.410156"/>
      </g>
     </g>
    </g>
    <g id="ytick_6">
     <g id="line2d_25">
      <path d="M 61.410938 12.898828 
L 418.530938 12.898828 
" clip-path="url(#p3c3110dc2b)" style="fill: none; stroke: #b0b0b0; stroke-width: 0.8; stroke-linecap: square"/>
     </g>
     <g id="line2d_26">
      <g>
       <use xlink:href="#m6f3f5b6aff" x="61.410938" y="12.898828" style="stroke: #000000; stroke-width: 0.8"/>
      </g>
     </g>
     <g id="text_14">
      <!-- 1.0 -->
      <g transform="translate(30.55625 18.597656) scale(0.15 -0.15)">
       <use xlink:href="#DejaVuSans-31"/>
       <use xlink:href="#DejaVuSans-2e" x="63.623047"/>
       <use xlink:href="#DejaVuSans-30" x="95.410156"/>
      </g>
     </g>
    </g>
    <g id="text_15">
     <!-- p -->
     <g transform="translate(22.396875 152.303266) rotate(-90) scale(0.2 -0.2)">
      <defs>
       <path id="DejaVuSans-70" d="M 1159 525 
L 1159 -1331 
L 581 -1331 
L 581 3500 
L 1159 3500 
L 1159 2969 
Q 1341 3281 1617 3432 
Q 1894 3584 2278 3584 
Q 2916 3584 3314 3078 
Q 3713 2572 3713 1747 
Q 3713 922 3314 415 
Q 2916 -91 2278 -91 
Q 1894 -91 1617 61 
Q 1341 213 1159 525 
z
M 3116 1747 
Q 3116 2381 2855 2742 
Q 2594 3103 2138 3103 
Q 1681 3103 1420 2742 
Q 1159 2381 1159 1747 
Q 1159 1113 1420 752 
Q 1681 391 2138 391 
Q 2594 391 2855 752 
Q 3116 1113 3116 1747 
z
" transform="scale(0.015625)"/>
      </defs>
      <use xlink:href="#DejaVuSans-70"/>
     </g>
    </g>
   </g>
   <g id="line2d_27">
    <path d="M 77.643665 223.650694 
L 80.922676 223.359699 
L 83.877032 223.316001 
L 86.701527 223.494154 
L 89.526021 223.897057 
L 92.415447 224.53547 
L 95.564596 225.463642 
L 99.330588 226.81654 
L 110.725963 231.079369 
L 113.550458 231.792675 
L 116.050298 232.199685 
L 118.38781 232.35803 
L 120.627927 232.289926 
L 122.868043 231.997999 
L 125.140625 231.473808 
L 127.510603 230.694201 
L 130.075374 229.610524 
L 133.062196 228.095226 
L 137.347636 225.639677 
L 142.639505 222.654236 
L 145.399068 221.358225 
L 147.67165 220.528179 
L 149.716974 220.014015 
L 151.59997 219.767386 
L 153.38557 219.755541 
L 155.138705 219.968602 
L 156.859374 220.402886 
L 158.612508 221.078312 
L 160.398108 222.005713 
L 162.281105 223.23583 
L 164.326428 224.843958 
L 166.59901 226.921222 
L 169.326108 229.728447 
L 173.968668 234.8945 
L 177.572334 238.753034 
L 179.877381 240.907794 
L 181.760378 242.37597 
L 183.38365 243.370964 
L 184.844596 244.012452 
L 186.175679 244.359308 
L 187.409367 244.457684 
L 188.610588 244.330286 
L 189.779345 243.980659 
L 190.948101 243.395733 
L 192.149323 242.537428 
L 193.38301 241.37336 
L 194.681628 239.827923 
L 196.045178 237.842036 
L 197.473658 235.354494 
L 198.999534 232.231976 
L 200.622807 228.381916 
L 202.343476 223.713251 
L 204.194007 218.035942 
L 206.206865 211.125581 
L 208.414516 202.733197 
L 210.914356 192.324936 
L 213.868712 179.020357 
L 217.829498 160.064607 
L 225.621207 122.595646 
L 228.543098 109.764919 
L 230.978007 100.042228 
L 233.088261 92.500448 
L 234.971258 86.56642 
L 236.659461 81.946379 
L 238.217803 78.308705 
L 239.613818 75.58465 
L 240.912436 73.518497 
L 242.081192 72.052209 
L 243.185018 71.013447 
L 244.191447 70.360834 
L 245.132945 70.00465 
L 246.041978 69.893089 
L 246.95101 70.008056 
L 247.860043 70.34702 
L 248.834007 70.954982 
L 249.872901 71.876973 
L 251.009192 73.200075 
L 252.242879 74.995919 
L 253.606428 77.396303 
L 255.099839 80.496295 
L 256.755578 84.464201 
L 258.606108 89.491672 
L 260.748828 95.984393 
L 263.313599 104.510003 
L 266.690007 116.571017 
L 275.780334 149.441356 
L 278.572363 158.491116 
L 280.974807 165.553743 
L 283.149992 171.274347 
L 285.130385 175.874341 
L 286.980916 179.622306 
L 288.701585 182.619448 
L 290.324858 185.014956 
L 291.883199 186.925233 
L 293.37661 188.407269 
L 294.80509 189.517471 
L 296.201105 190.325885 
L 297.597119 190.876841 
L 298.993134 191.188341 
L 300.421614 191.279967 
L 301.94749 191.149926 
L 303.570763 190.785857 
L 305.388828 190.147162 
L 307.564014 189.135312 
L 310.453439 187.524424 
L 317.498443 183.501855 
L 319.965818 182.408367 
L 322.108538 181.696974 
L 324.08893 181.269192 
L 325.971927 181.084822 
L 327.822458 181.123344 
L 329.705454 181.38759 
L 331.620916 181.883948 
L 333.633774 182.639642 
L 335.808959 183.701897 
L 338.211403 185.130745 
L 341.035898 187.079767 
L 344.964218 190.088795 
L 352.106618 195.583934 
L 355.190836 197.648367 
L 357.853003 199.171211 
L 360.320378 200.331002 
L 362.65789 201.189229 
L 364.962938 201.801676 
L 367.30045 202.191074 
L 369.702894 202.363818 
L 372.267665 202.322079 
L 375.124625 202.048849 
L 378.663359 201.474662 
L 391.065163 199.257321 
L 394.246778 199.036534 
L 397.266065 199.049056 
L 400.252887 199.283793 
L 402.29821 199.568034 
L 402.29821 199.568034 
" clip-path="url(#p3c3110dc2b)" style="fill: none; stroke: #1f77b4; stroke-width: 1.5; stroke-linecap: square"/>
   </g>
   <g id="line2d_28">
    <path d="M 77.643665 211.609364 
L 80.857745 211.264465 
L 83.844567 211.166359 
L 86.766458 211.293067 
L 89.753279 211.647777 
L 92.967359 212.259099 
L 96.765817 213.218928 
L 108.518312 216.366018 
L 111.342807 216.783508 
L 113.875112 216.936142 
L 116.24509 216.857668 
L 118.550138 216.557218 
L 120.822719 216.035813 
L 123.160232 215.266914 
L 125.595141 214.227313 
L 128.257308 212.841754 
L 131.373992 210.955493 
L 135.984087 207.868952 
L 141.113628 204.50208 
L 143.970588 202.893059 
L 146.340567 201.805081 
L 148.450821 201.073669 
L 150.398748 200.627094 
L 152.249279 200.425315 
L 154.067345 200.450102 
L 155.852945 200.695334 
L 157.67101 201.169808 
L 159.554007 201.893424 
L 161.566865 202.911675 
L 163.774516 204.286808 
L 166.339287 206.158433 
L 169.942952 209.094231 
L 174.942632 213.138014 
L 177.280145 214.737138 
L 179.195607 215.788689 
L 180.851345 216.45345 
L 182.344756 216.821284 
L 183.74077 216.938619 
L 185.071854 216.824717 
L 186.338007 216.494288 
L 187.604159 215.932139 
L 188.870312 215.124841 
L 190.16893 214.029866 
L 191.532479 212.577608 
L 192.928494 210.759711 
L 194.421905 208.435953 
L 195.980247 205.588481 
L 197.635985 202.090061 
L 199.421585 197.779046 
L 201.337047 192.554017 
L 203.414836 186.223668 
L 205.719883 178.468172 
L 208.349585 168.815599 
L 211.59613 156.004838 
L 217.959359 129.713805 
L 221.822748 114.333929 
L 224.549847 104.352082 
L 226.822428 96.839742 
L 228.802821 91.026536 
L 230.588421 86.454986 
L 232.179228 82.969914 
L 233.607708 80.345187 
L 234.938792 78.350558 
L 236.140014 76.937276 
L 237.243839 75.970056 
L 238.250268 75.369395 
L 239.191767 75.052792 
L 240.100799 74.973308 
L 241.009832 75.116354 
L 241.95133 75.498545 
L 242.925294 76.142946 
L 243.964188 77.106451 
L 245.100479 78.481381 
L 246.334167 80.345187 
L 247.66525 82.775468 
L 249.126196 85.922156 
L 250.749468 89.972434 
L 252.535068 95.04828 
L 254.547927 101.465968 
L 256.852974 109.585131 
L 259.645003 120.274167 
L 263.573323 136.282971 
L 270.650792 165.186391 
L 273.670079 176.50794 
L 276.202385 185.175924 
L 278.442501 192.083643 
L 280.487825 197.695589 
L 282.370821 202.236375 
L 284.123956 205.90528 
L 285.779694 208.868485 
L 287.338036 211.212802 
L 288.798981 213.024765 
L 290.194996 214.416074 
L 291.558545 215.465141 
L 292.857163 216.191693 
L 294.155781 216.665965 
L 295.454399 216.903147 
L 296.785483 216.917735 
L 298.181498 216.70562 
L 299.674908 216.247661 
L 301.330647 215.497212 
L 303.213643 214.386939 
L 305.486225 212.771708 
L 308.667839 210.208377 
L 314.609018 205.394355 
L 317.173788 203.629106 
L 319.381439 202.372369 
L 321.394298 201.477966 
L 323.277294 200.879358 
L 325.095359 200.530064 
L 326.913425 200.408391 
L 328.73149 200.511034 
L 330.614487 200.844115 
L 332.594879 201.425979 
L 334.737599 202.294543 
L 337.140043 203.5173 
L 340.029468 205.25127 
L 344.379839 208.157 
L 349.898967 211.790215 
L 352.983185 213.547523 
L 355.612887 214.797073 
L 358.047796 215.712261 
L 360.385308 216.354079 
L 362.65789 216.750374 
L 364.962938 216.927665 
L 367.365381 216.886558 
L 369.930152 216.616112 
L 372.819578 216.080455 
L 376.390778 215.179106 
L 388.338065 211.973276 
L 391.519679 211.46249 
L 394.506501 211.207774 
L 397.428392 211.182163 
L 400.415214 211.378934 
L 402.29821 211.609364 
L 402.29821 211.609364 
" clip-path="url(#p3c3110dc2b)" style="fill: none; stroke-dasharray: 5.55,2.4; stroke-dashoffset: 0; stroke: #1f77b4; stroke-width: 1.5"/>
   </g>
   <g id="line2d_29">
    <path d="M 77.643665 186.699923 
L 80.078574 186.577885 
L 81.929105 186.705009 
L 83.74717 187.055691 
L 85.824959 187.695188 
L 91.831068 189.704408 
L 93.584203 189.952321 
L 95.337338 189.97261 
L 97.447592 189.76015 
L 101.927825 189.241037 
L 103.583563 189.321121 
L 105.141905 189.617003 
L 106.797643 190.162721 
L 108.875432 191.099863 
L 113.063476 193.043349 
L 114.686748 193.51349 
L 116.180159 193.717564 
L 117.706036 193.698829 
L 119.491636 193.444055 
L 124.361454 192.614806 
L 125.789934 192.681954 
L 127.121018 192.9641 
L 128.517032 193.494219 
L 130.075374 194.333579 
L 132.380421 195.863463 
L 135.042588 197.567945 
L 136.568465 198.277302 
L 137.867083 198.644262 
L 139.133236 198.770773 
L 140.431854 198.673615 
L 141.95773 198.322574 
L 147.152203 196.909005 
L 148.353425 196.9442 
L 149.489716 197.202616 
L 150.626007 197.692268 
L 151.859694 198.473764 
L 153.320639 199.678249 
L 155.723083 202.007176 
L 157.865803 203.961919 
L 159.229352 204.911338 
L 160.365643 205.442974 
L 161.404538 205.693221 
L 162.443432 205.711921 
L 163.514792 205.501954 
L 164.716014 205.03136 
L 166.339287 204.131145 
L 169.228712 202.501319 
L 170.429934 202.103833 
L 171.436363 201.999654 
L 172.377861 202.127269 
L 173.286894 202.474436 
L 174.260858 203.094914 
L 175.332218 204.060466 
L 176.565905 205.490281 
L 178.221643 207.781816 
L 181.59805 212.528338 
L 182.831738 213.838804 
L 183.838167 214.601942 
L 184.714734 215.004672 
L 185.52637 215.143837 
L 186.338007 215.053443 
L 187.149643 214.738111 
L 188.058676 214.135136 
L 189.09757 213.163557 
L 190.428654 211.584362 
L 195.006283 205.847505 
L 196.012712 205.072595 
L 196.889279 204.665686 
L 197.66845 204.538063 
L 198.415156 204.634139 
L 199.194327 204.965992 
L 200.005963 205.558509 
L 200.914996 206.503414 
L 201.986356 207.953336 
L 203.349905 210.204697 
L 208.317119 218.811377 
L 209.323548 219.935396 
L 210.16765 220.568548 
L 210.914356 220.862204 
L 211.59613 220.894707 
L 212.245439 220.706534 
L 212.927214 220.272504 
L 213.673919 219.516134 
L 214.485556 218.362835 
L 215.394588 216.672761 
L 216.433483 214.254038 
L 217.634705 210.869704 
L 219.063185 206.146715 
L 220.848785 199.430282 
L 223.510952 188.443912 
L 229.549527 163.33972 
L 232.925934 150.42593 
L 236.756858 136.674647 
L 240.490385 124.051519 
L 243.217483 115.560699 
L 245.295272 109.782706 
L 246.983476 105.709055 
L 248.411956 102.804423 
L 249.678108 100.710458 
L 250.781934 99.29 
L 251.788363 98.343514 
L 252.697396 97.783323 
L 253.541498 97.515744 
L 254.353134 97.485448 
L 255.197236 97.683152 
L 256.073803 98.123261 
L 257.047767 98.870028 
L 258.184058 100.039611 
L 259.580072 101.819031 
L 261.885119 105.186449 
L 264.09277 108.273046 
L 265.423854 109.769384 
L 266.495214 110.662014 
L 267.436712 111.170727 
L 268.280814 111.38578 
L 269.09245 111.36798 
L 269.904087 111.128491 
L 270.780654 110.627831 
L 271.754618 109.797614 
L 272.890908 108.514058 
L 274.351854 106.495182 
L 278.702225 100.244388 
L 279.80605 99.157652 
L 280.747548 98.53292 
L 281.559185 98.249487 
L 282.30589 98.212487 
L 283.052596 98.396581 
L 283.831767 98.824414 
L 284.675868 99.551061 
L 285.649832 100.704989 
L 286.786123 102.420809 
L 288.247068 105.064077 
L 293.344145 114.673594 
L 294.545367 116.281032 
L 295.584261 117.319869 
L 296.525759 117.96283 
L 297.434792 118.316745 
L 298.311359 118.424669 
L 299.252858 118.314274 
L 300.324218 117.956805 
L 301.752698 117.225881 
L 304.901847 115.547687 
L 306.070603 115.221452 
L 307.077032 115.16759 
L 308.01853 115.334498 
L 308.992494 115.738328 
L 310.031388 116.422131 
L 311.200145 117.472625 
L 312.628625 119.073699 
L 315.323258 122.519044 
L 317.271185 124.819539 
L 318.634734 126.104697 
L 319.835956 126.938685 
L 320.939781 127.437477 
L 322.011141 127.681313 
L 323.147432 127.708045 
L 324.44605 127.507255 
L 326.393978 126.947583 
L 328.73149 126.324144 
L 330.095039 126.194917 
L 331.296261 126.301994 
L 332.465018 126.628854 
L 333.698705 127.209604 
L 335.094719 128.121226 
L 336.977716 129.640777 
L 340.581381 132.585611 
L 342.074792 133.490819 
L 343.405876 134.04419 
L 344.672028 134.335785 
L 346.003112 134.414207 
L 347.561454 134.273757 
L 353.307839 133.51942 
L 354.736319 133.70736 
L 356.164799 134.125579 
L 357.755607 134.834732 
L 359.930792 136.077665 
L 363.339665 138.022035 
L 365.027868 138.709179 
L 366.553745 139.088665 
L 368.079621 139.23589 
L 369.832756 139.169644 
L 373.274094 138.739747 
L 375.351883 138.629049 
L 377.040087 138.764761 
L 378.695825 139.126478 
L 380.546356 139.76733 
L 383.72797 141.158833 
L 386.195345 142.119635 
L 388.01341 142.590572 
L 389.734079 142.806834 
L 391.617076 142.812846 
L 394.506501 142.561442 
L 397.330996 142.391658 
L 399.278923 142.503243 
L 401.161919 142.837395 
L 402.29821 143.135984 
L 402.29821 143.135984 
" clip-path="url(#p3c3110dc2b)" style="fill: none; stroke: #ff7f0e; stroke-width: 1.5; stroke-linecap: square"/>
   </g>
   <g id="line2d_30">
    <path d="M 77.643665 164.917953 
L 79.916247 164.593294 
L 81.799243 164.549266 
L 83.682239 164.730309 
L 86.052218 165.199994 
L 90.17533 166.040714 
L 91.993396 166.15749 
L 93.714065 166.045766 
L 95.597061 165.690939 
L 98.454021 164.886086 
L 101.116188 164.22101 
L 102.869323 164.014104 
L 104.492596 164.048802 
L 106.180799 164.313084 
L 108.323519 164.892264 
L 112.154443 165.954239 
L 113.777716 166.147245 
L 115.271127 166.103285 
L 116.797003 165.831524 
L 118.550138 165.282621 
L 124.296523 163.282229 
L 125.725003 163.14308 
L 127.088552 163.230527 
L 128.549498 163.552934 
L 130.302632 164.180941 
L 134.81533 165.913878 
L 136.211345 166.138403 
L 137.477498 166.118958 
L 138.74365 165.874565 
L 140.107199 165.378093 
L 141.795403 164.509429 
L 146.113308 162.165667 
L 147.444392 161.768896 
L 148.613148 161.645612 
L 149.749439 161.744747 
L 150.950661 162.077736 
L 152.31421 162.698784 
L 154.229672 163.847158 
L 156.891839 165.41853 
L 158.222923 165.938253 
L 159.359214 166.144629 
L 160.398108 166.108855 
L 161.437003 165.847149 
L 162.540828 165.328913 
L 163.774516 164.492742 
L 165.397788 163.097358 
L 169.001454 159.909791 
L 170.235141 159.165674 
L 171.274036 158.789002 
L 172.215534 158.67405 
L 173.157032 158.785233 
L 174.130996 159.134443 
L 175.202356 159.770287 
L 176.468508 160.798192 
L 178.448901 162.743877 
L 180.591621 164.758617 
L 181.792843 165.589902 
L 182.766807 166.010547 
L 183.643374 166.156032 
L 184.487476 166.066866 
L 185.331578 165.743607 
L 186.208145 165.161462 
L 187.182108 164.236159 
L 188.318399 162.831789 
L 189.779345 160.641134 
L 194.194647 153.755299 
L 195.298472 152.554942 
L 196.23997 151.839114 
L 197.084072 151.469794 
L 197.863243 151.371381 
L 198.609948 151.499391 
L 199.389119 151.861323 
L 200.233221 152.503474 
L 201.207185 153.536474 
L 202.375941 155.118086 
L 203.999214 157.72594 
L 207.245759 163.004529 
L 208.479447 164.546117 
L 209.485876 165.461119 
L 210.329978 165.947262 
L 211.109148 166.146445 
L 211.823388 166.108138 
L 212.570094 165.837428 
L 213.349265 165.304141 
L 214.193367 164.444926 
L 215.134865 163.160262 
L 216.23869 161.257939 
L 217.569774 158.486252 
L 219.290443 154.34393 
L 225.848465 137.997069 
L 227.471738 134.819552 
L 228.965148 132.373957 
L 230.361163 130.50406 
L 231.724712 129.04453 
L 233.055796 127.936086 
L 234.419345 127.083477 
L 235.847825 126.45046 
L 237.373701 126.018213 
L 238.996974 125.788677 
L 240.685178 125.771763 
L 242.340916 125.972662 
L 243.899258 126.38223 
L 245.327738 126.982518 
L 246.691287 127.797759 
L 247.989905 128.834206 
L 249.288523 130.161817 
L 250.587141 131.812286 
L 251.95069 133.916117 
L 253.411636 136.598614 
L 255.034908 140.069971 
L 256.982836 144.793482 
L 263.086341 160.031405 
L 264.417425 162.534897 
L 265.52125 164.165382 
L 266.462748 165.190721 
L 267.30685 165.802722 
L 268.086021 166.101285 
L 268.832727 166.146445 
L 269.579432 165.960456 
L 270.358603 165.53092 
L 271.23517 164.782259 
L 272.274065 163.57729 
L 273.540218 161.74483 
L 275.618007 158.277501 
L 277.793192 154.785944 
L 279.059345 153.160046 
L 280.065774 152.201317 
L 280.942341 151.651722 
L 281.753978 151.400343 
L 282.500683 151.395346 
L 283.279854 151.620972 
L 284.09149 152.098026 
L 285.000523 152.903688 
L 286.071883 154.172071 
L 287.435432 156.163577 
L 292.500043 163.943763 
L 293.603868 165.054492 
L 294.577832 165.726481 
L 295.454399 166.066866 
L 296.298501 166.156032 
L 297.142603 166.020053 
L 298.051636 165.643172 
L 299.09053 164.963138 
L 300.421614 163.806012 
L 304.966778 159.6153 
L 306.070603 159.018836 
L 307.044567 158.731918 
L 307.986065 158.683363 
L 308.927563 158.859468 
L 309.933992 159.280322 
L 311.070283 160.003984 
L 312.531228 161.215971 
L 316.881599 165.006744 
L 318.115287 165.691497 
L 319.219112 166.05139 
L 320.258007 166.157398 
L 321.329367 166.036189 
L 322.465658 165.67901 
L 323.829207 165.008055 
L 326.199185 163.538528 
L 328.212043 162.40521 
L 329.575592 161.887839 
L 330.776814 161.666647 
L 331.913105 161.679206 
L 333.114327 161.921347 
L 334.44541 162.427985 
L 336.166079 163.340792 
L 339.997003 165.448472 
L 341.425483 165.934665 
L 342.724101 166.141296 
L 343.990254 166.115176 
L 345.353803 165.855808 
L 346.977076 165.307211 
L 352.236479 163.339712 
L 353.664959 163.1523 
L 355.028508 163.194047 
L 356.489454 163.466233 
L 358.242588 164.033854 
L 363.566923 165.928405 
L 365.092799 166.138425 
L 366.58621 166.119791 
L 368.209483 165.868794 
L 370.319738 165.296052 
L 374.118196 164.239756 
L 375.838865 164.019923 
L 377.462138 164.039158 
L 379.182807 164.290377 
L 381.390458 164.857601 
L 385.416174 165.91939 
L 387.234239 166.137897 
L 388.954908 166.121065 
L 390.837905 165.875156 
L 393.759796 165.230095 
L 396.616756 164.680008 
L 398.532218 164.539513 
L 400.382748 164.626696 
L 402.29821 164.917953 
L 402.29821 164.917953 
" clip-path="url(#p3c3110dc2b)" style="fill: none; stroke-dasharray: 5.55,2.4; stroke-dashoffset: 0; stroke: #ff7f0e; stroke-width: 1.5"/>
   </g>
   <g id="line2d_31">
    <path d="M 77.643665 172.808327 
L 83.000465 173.520962 
L 87.545628 174.285691 
L 91.895999 174.903603 
L 97.642385 175.957516 
L 101.018792 176.487173 
L 107.998865 177.872466 
L 110.563636 178.352963 
L 117.381381 179.88785 
L 119.913687 180.398977 
L 122.738181 181.253424 
L 125.108159 181.864493 
L 130.335098 183.037401 
L 135.204916 184.563073 
L 139.360494 185.556378 
L 141.730472 186.495828 
L 144.035519 187.325525 
L 146.308101 187.868468 
L 148.515752 188.464173 
L 150.301352 189.199952 
L 153.969948 190.786886 
L 156.047738 191.339962 
L 158.222923 191.973554 
L 159.81373 192.685759 
L 164.326428 194.883255 
L 166.566545 195.50263 
L 168.319679 196.091017 
L 169.780625 196.824547 
L 174.553047 199.454886 
L 176.403578 199.983998 
L 178.351505 200.601988 
L 179.715054 201.289411 
L 181.435723 202.439896 
L 183.675839 203.900544 
L 184.974458 204.474003 
L 186.435403 204.865643 
L 189.032639 205.520097 
L 190.298792 206.118263 
L 191.792203 207.095884 
L 194.45437 208.870101 
L 195.623127 209.345631 
L 196.759418 209.565628 
L 198.252828 209.604731 
L 200.330618 209.677512 
L 201.564305 209.965304 
L 202.927854 210.530845 
L 205.947141 211.87842 
L 206.95357 212.029397 
L 207.895068 211.943489 
L 208.869032 211.621806 
L 210.005323 210.995398 
L 211.758458 209.728927 
L 214.258298 207.968213 
L 216.401018 206.778705 
L 218.413876 205.592358 
L 219.615098 204.615924 
L 220.718923 203.426126 
L 221.822748 201.899318 
L 222.991505 199.889203 
L 224.290123 197.189753 
L 225.783534 193.538955 
L 227.569134 188.544828 
L 229.776785 181.664933 
L 232.503883 172.401567 
L 235.750428 160.556636 
L 240.490385 142.299862 
L 244.710894 126.358387 
L 247.145803 118.002118 
L 249.158661 111.852373 
L 250.976727 106.994054 
L 252.697396 103.015087 
L 254.482996 99.447153 
L 256.560785 95.809501 
L 259.937192 90.416123 
L 262.599359 86.488272 
L 264.09277 84.656888 
L 265.261527 83.553468 
L 266.300421 82.871588 
L 267.241919 82.508888 
L 268.215883 82.371301 
L 269.319708 82.448455 
L 271.137774 82.845599 
L 272.890908 83.143934 
L 274.221992 83.140045 
L 275.910196 82.887716 
L 277.858123 82.638543 
L 278.961948 82.726463 
L 280.000843 83.03295 
L 281.137134 83.606565 
L 282.890268 84.78164 
L 284.773265 85.963554 
L 286.071883 86.511673 
L 287.532828 86.869715 
L 290.16253 87.466908 
L 291.396218 88.021997 
L 292.792232 88.913162 
L 296.363432 91.331319 
L 297.726981 91.897564 
L 302.369541 93.565167 
L 304.122676 94.687216 
L 306.525119 96.194019 
L 307.986065 96.828876 
L 310.128785 97.471156 
L 311.94685 98.117421 
L 313.570123 98.948498 
L 317.30365 100.96898 
L 318.959388 101.51907 
L 322.400727 102.585946 
L 324.348654 103.520595 
L 326.978356 104.758767 
L 328.73149 105.307988 
L 332.692276 106.43654 
L 335.776494 107.762099 
L 337.65949 108.404021 
L 340.15933 108.974622 
L 342.366981 109.576841 
L 345.483665 110.737366 
L 347.496523 111.333799 
L 354.151941 113.014454 
L 356.749178 113.77279 
L 359.346414 114.252211 
L 361.94365 114.80789 
L 367.722501 116.240242 
L 371.845614 116.991138 
L 376.910225 118.124292 
L 381.974836 118.976025 
L 386.033018 119.794616 
L 392.461178 120.81315 
L 395.577861 121.346379 
L 401.973556 122.26038 
L 402.29821 122.320162 
L 402.29821 122.320162 
" clip-path="url(#p3c3110dc2b)" style="fill: none; stroke: #2ca02c; stroke-width: 1.5; stroke-linecap: square"/>
   </g>
   <g id="line2d_32">
    <path d="M 77.643665 147.564245 
L 82.67581 147.497902 
L 87.058647 147.563076 
L 92.058327 147.481686 
L 96.473628 147.562784 
L 101.538239 147.46539 
L 105.88861 147.563817 
L 111.083083 147.447147 
L 115.303592 147.566714 
L 120.757788 147.430164 
L 124.686108 147.573347 
L 130.724683 147.428265 
L 134.003694 147.583904 
L 136.373672 147.403311 
L 138.74365 147.290711 
L 140.88637 147.441829 
L 143.483607 147.589255 
L 145.463999 147.443338 
L 148.353425 147.227782 
L 150.203956 147.353817 
L 153.288174 147.589535 
L 155.041308 147.449815 
L 158.255388 147.146989 
L 159.943592 147.274345 
L 163.255068 147.589452 
L 164.845876 147.447667 
L 168.38461 147.036665 
L 169.910487 147.171441 
L 173.449221 147.588814 
L 174.877701 147.443245 
L 178.806021 146.880395 
L 180.202036 147.033305 
L 183.903098 147.589398 
L 185.16925 147.451118 
L 187.117178 146.970379 
L 188.74045 146.667251 
L 189.941672 146.668109 
L 191.272756 146.903246 
L 194.486836 147.584778 
L 195.623127 147.529381 
L 196.889279 147.236073 
L 200.395548 146.279135 
L 201.499374 146.300422 
L 202.733061 146.559818 
L 206.661381 147.587987 
L 207.765207 147.512771 
L 208.966428 147.192473 
L 210.88189 146.399889 
L 212.570094 145.798033 
L 213.73885 145.611137 
L 214.875141 145.657822 
L 216.108828 145.938785 
L 217.991825 146.63322 
L 220.102079 147.348602 
L 221.465628 147.571337 
L 222.764247 147.553499 
L 224.160261 147.303368 
L 225.978327 146.72925 
L 230.88061 145.067485 
L 233.02333 144.651683 
L 235.458239 144.416148 
L 239.029439 144.32118 
L 244.191447 144.400227 
L 246.886079 144.647064 
L 249.061265 145.067485 
L 251.23645 145.720808 
L 256.625716 147.48043 
L 257.989265 147.591087 
L 259.287883 147.467416 
L 260.683898 147.102011 
L 263.37853 146.08778 
L 264.871941 145.687719 
L 266.040698 145.603921 
L 267.176988 145.751166 
L 268.475607 146.160382 
L 272.274065 147.528479 
L 273.37789 147.583693 
L 274.514181 147.413325 
L 276.104988 146.920514 
L 278.052916 146.358512 
L 279.221672 146.262711 
L 280.357963 146.398801 
L 281.818908 146.823371 
L 284.123956 147.498515 
L 285.292712 147.590148 
L 286.493934 147.455177 
L 288.441861 146.960489 
L 290.032668 146.665201 
L 291.23389 146.670255 
L 292.597439 146.913555 
L 295.779054 147.578605 
L 297.045207 147.543255 
L 298.700945 147.245531 
L 300.843665 146.89408 
L 302.174748 146.91892 
L 303.830487 147.198676 
L 306.135534 147.572805 
L 307.531548 147.552573 
L 309.44701 147.265978 
L 311.427403 147.039513 
L 312.888348 147.106594 
L 317.758167 147.555857 
L 320.16061 147.254113 
L 321.94621 147.147671 
L 323.666879 147.283768 
L 326.913425 147.591191 
L 328.73149 147.470406 
L 331.880639 147.228482 
L 333.796101 147.365829 
L 336.782923 147.591076 
L 338.795781 147.467469 
L 341.717672 147.289434 
L 343.860392 147.431217 
L 346.652421 147.59 
L 348.957468 147.449778 
L 351.58717 147.338515 
L 354.119476 147.50229 
L 356.58685 147.585512 
L 359.80093 147.395805 
L 362.041047 147.40322 
L 367.105658 147.552104 
L 371.618356 147.428166 
L 376.812828 147.54989 
L 381.163199 147.448759 
L 386.487534 147.547917 
L 390.708043 147.466855 
L 396.097308 147.547822 
L 400.285352 147.48384 
L 402.29821 147.564245 
L 402.29821 147.564245 
" clip-path="url(#p3c3110dc2b)" style="fill: none; stroke-dasharray: 5.55,2.4; stroke-dashoffset: 0; stroke: #2ca02c; stroke-width: 1.5"/>
   </g>
   <g id="line2d_33">
    <path d="M 77.643665 171.511413 
L 89.655883 173.370517 
L 100.142225 175.215782 
L 110.238981 177.224229 
L 119.134516 179.215032 
L 127.445672 181.292925 
L 135.562036 183.554332 
L 143.38621 185.982113 
L 150.333818 188.368015 
L 157.443752 191.045503 
L 164.164101 193.816574 
L 171.566225 197.121132 
L 179.585192 200.961695 
L 193.447941 207.595144 
L 197.084072 209.063738 
L 200.233221 210.123596 
L 202.862923 210.765601 
L 205.16797 211.115213 
L 207.115898 211.187096 
L 209.031359 211.03696 
L 210.784494 210.68006 
L 212.375301 210.127057 
L 213.933643 209.346786 
L 215.491985 208.318273 
L 217.017861 207.046286 
L 218.511272 205.510368 
L 220.037148 203.61086 
L 221.59549 201.307543 
L 223.218763 198.504492 
L 224.906967 195.132914 
L 226.660101 191.115515 
L 228.478167 186.381892 
L 230.458559 180.584821 
L 232.633745 173.510152 
L 235.16605 164.488765 
L 238.542458 151.56249 
L 245.457599 124.904853 
L 248.087301 115.784885 
L 250.327418 108.790307 
L 252.372741 103.110096 
L 254.288203 98.431825 
L 256.073803 94.637871 
L 257.762007 91.552292 
L 259.385279 89.029695 
L 261.008552 86.910573 
L 262.631825 85.155826 
L 264.222632 83.762159 
L 265.748508 82.713269 
L 267.30685 81.909033 
L 268.962588 81.3055 
L 270.683258 80.91102 
L 272.436392 80.737448 
L 274.351854 80.780236 
L 276.59197 81.059416 
L 278.864552 81.565392 
L 281.721512 82.448101 
L 284.838196 83.632434 
L 289.44829 85.661111 
L 297.110138 89.371357 
L 309.706734 95.417758 
L 316.394618 98.377365 
L 323.601948 101.313545 
L 330.192436 103.771992 
L 337.529628 106.262236 
L 344.607098 108.441268 
L 352.788392 110.714957 
L 361.294341 112.830983 
L 370.15741 114.802689 
L 379.637323 116.68453 
L 390.15613 118.53722 
L 401.519039 120.305934 
L 402.29821 120.41893 
L 402.29821 120.41893 
" clip-path="url(#p3c3110dc2b)" style="fill: none; stroke: #d62728; stroke-width: 1.5; stroke-linecap: square"/>
   </g>
   <g id="line2d_34">
    <path d="M 77.643665 145.965172 
L 235.263447 145.945784 
L 313.797381 145.962645 
L 376.650501 145.964443 
L 402.29821 145.965172 
L 402.29821 145.965172 
" clip-path="url(#p3c3110dc2b)" style="fill: none; stroke-dasharray: 5.55,2.4; stroke-dashoffset: 0; stroke: #d62728; stroke-width: 1.5"/>
   </g>
   <g id="patch_3">
    <path d="M 61.410938 279.010828 
L 61.410938 12.898828 
" style="fill: none; stroke: #000000; stroke-width: 0.8; stroke-linejoin: miter; stroke-linecap: square"/>
   </g>
   <g id="patch_4">
    <path d="M 418.530938 279.010828 
L 418.530938 12.898828 
" style="fill: none; stroke: #000000; stroke-width: 0.8; stroke-linejoin: miter; stroke-linecap: square"/>
   </g>
   <g id="patch_5">
    <path d="M 61.410938 279.010828 
L 418.530938 279.010828 
" style="fill: none; stroke: #000000; stroke-width: 0.8; stroke-linejoin: miter; stroke-linecap: square"/>
   </g>
   <g id="patch_6">
    <path d="M 61.410938 12.898828 
L 418.530938 12.898828 
" style="fill: none; stroke: #000000; stroke-width: 0.8; stroke-linejoin: miter; stroke-linecap: square"/>
   </g>
   <g id="legend_1">
    <g id="patch_7">
     <path d="M 141.793438 50.255078 
L 411.530938 50.255078 
Q 413.530938 50.255078 413.530938 48.255078 
L 413.530938 19.898828 
Q 413.530938 17.898828 411.530938 17.898828 
L 141.793438 17.898828 
Q 139.793438 17.898828 139.793438 19.898828 
L 139.793438 48.255078 
Q 139.793438 50.255078 141.793438 50.255078 
z
" style="fill: #ffffff; opacity: 0.8; stroke: #cccccc; stroke-linejoin: miter"/>
    </g>
    <g id="line2d_35">
     <path d="M 143.793438 25.997266 
L 153.793438 25.997266 
L 163.793438 25.997266 
" style="fill: none; stroke: #1f77b4; stroke-width: 1.5; stroke-linecap: square"/>
    </g>
    <g id="text_16">
     <!-- t=5 -->
     <g transform="translate(171.793438 29.497266) scale(0.1 -0.1)">
      <defs>
       <path id="DejaVuSans-3d" d="M 678 2906 
L 4684 2906 
L 4684 2381 
L 678 2381 
L 678 2906 
z
M 678 1631 
L 4684 1631 
L 4684 1100 
L 678 1100 
L 678 1631 
z
" transform="scale(0.015625)"/>
       <path id="DejaVuSans-35" d="M 691 4666 
L 3169 4666 
L 3169 4134 
L 1269 4134 
L 1269 2991 
Q 1406 3038 1543 3061 
Q 1681 3084 1819 3084 
Q 2600 3084 3056 2656 
Q 3513 2228 3513 1497 
Q 3513 744 3044 326 
Q 2575 -91 1722 -91 
Q 1428 -91 1123 -41 
Q 819 9 494 109 
L 494 744 
Q 775 591 1075 516 
Q 1375 441 1709 441 
Q 2250 441 2565 725 
Q 2881 1009 2881 1497 
Q 2881 1984 2565 2268 
Q 2250 2553 1709 2553 
Q 1456 2553 1204 2497 
Q 953 2441 691 2322 
L 691 4666 
z
" transform="scale(0.015625)"/>
      </defs>
      <use xlink:href="#DejaVuSans-74"/>
      <use xlink:href="#DejaVuSans-3d" x="39.208984"/>
      <use xlink:href="#DejaVuSans-35" x="122.998047"/>
     </g>
    </g>
    <g id="line2d_36">
     <path d="M 143.793438 40.675391 
L 153.793438 40.675391 
L 163.793438 40.675391 
" style="fill: none; stroke-dasharray: 5.55,2.4; stroke-dashoffset: 0; stroke: #1f77b4; stroke-width: 1.5"/>
    </g>
    <g id="text_17">
     <!-- t=5 -->
     <g transform="translate(171.793438 44.175391) scale(0.1 -0.1)">
      <use xlink:href="#DejaVuSans-74"/>
      <use xlink:href="#DejaVuSans-3d" x="39.208984"/>
      <use xlink:href="#DejaVuSans-35" x="122.998047"/>
     </g>
    </g>
    <g id="line2d_37">
     <path d="M 210.455938 25.997266 
L 220.455938 25.997266 
L 230.455938 25.997266 
" style="fill: none; stroke: #ff7f0e; stroke-width: 1.5; stroke-linecap: square"/>
    </g>
    <g id="text_18">
     <!-- t=15 -->
     <g transform="translate(238.455938 29.497266) scale(0.1 -0.1)">
      <use xlink:href="#DejaVuSans-74"/>
      <use xlink:href="#DejaVuSans-3d" x="39.208984"/>
      <use xlink:href="#DejaVuSans-31" x="122.998047"/>
      <use xlink:href="#DejaVuSans-35" x="186.621094"/>
     </g>
    </g>
    <g id="line2d_38">
     <path d="M 210.455938 40.675391 
L 220.455938 40.675391 
L 230.455938 40.675391 
" style="fill: none; stroke-dasharray: 5.55,2.4; stroke-dashoffset: 0; stroke: #ff7f0e; stroke-width: 1.5"/>
    </g>
    <g id="text_19">
     <!-- t=15 -->
     <g transform="translate(238.455938 44.175391) scale(0.1 -0.1)">
      <use xlink:href="#DejaVuSans-74"/>
      <use xlink:href="#DejaVuSans-3d" x="39.208984"/>
      <use xlink:href="#DejaVuSans-31" x="122.998047"/>
      <use xlink:href="#DejaVuSans-35" x="186.621094"/>
     </g>
    </g>
    <g id="line2d_39">
     <path d="M 283.480938 25.997266 
L 293.480938 25.997266 
L 303.480938 25.997266 
" style="fill: none; stroke: #2ca02c; stroke-width: 1.5; stroke-linecap: square"/>
    </g>
    <g id="text_20">
     <!-- t=35 -->
     <g transform="translate(311.480938 29.497266) scale(0.1 -0.1)">
      <use xlink:href="#DejaVuSans-74"/>
      <use xlink:href="#DejaVuSans-3d" x="39.208984"/>
      <use xlink:href="#DejaVuSans-33" x="122.998047"/>
      <use xlink:href="#DejaVuSans-35" x="186.621094"/>
     </g>
    </g>
    <g id="line2d_40">
     <path d="M 283.480938 40.675391 
L 293.480938 40.675391 
L 303.480938 40.675391 
" style="fill: none; stroke-dasharray: 5.55,2.4; stroke-dashoffset: 0; stroke: #2ca02c; stroke-width: 1.5"/>
    </g>
    <g id="text_21">
     <!-- t=35 -->
     <g transform="translate(311.480938 44.175391) scale(0.1 -0.1)">
      <use xlink:href="#DejaVuSans-74"/>
      <use xlink:href="#DejaVuSans-3d" x="39.208984"/>
      <use xlink:href="#DejaVuSans-33" x="122.998047"/>
      <use xlink:href="#DejaVuSans-35" x="186.621094"/>
     </g>
    </g>
    <g id="line2d_41">
     <path d="M 356.505938 25.997266 
L 366.505938 25.997266 
L 376.505938 25.997266 
" style="fill: none; stroke: #d62728; stroke-width: 1.5; stroke-linecap: square"/>
    </g>
    <g id="text_22">
     <!-- t=75 -->
     <g transform="translate(384.505938 29.497266) scale(0.1 -0.1)">
      <defs>
       <path id="DejaVuSans-37" d="M 525 4666 
L 3525 4666 
L 3525 4397 
L 1831 0 
L 1172 0 
L 2766 4134 
L 525 4134 
L 525 4666 
z
" transform="scale(0.015625)"/>
      </defs>
      <use xlink:href="#DejaVuSans-74"/>
      <use xlink:href="#DejaVuSans-3d" x="39.208984"/>
      <use xlink:href="#DejaVuSans-37" x="122.998047"/>
      <use xlink:href="#DejaVuSans-35" x="186.621094"/>
     </g>
    </g>
    <g id="line2d_42">
     <path d="M 356.505938 40.675391 
L 366.505938 40.675391 
L 376.505938 40.675391 
" style="fill: none; stroke-dasharray: 5.55,2.4; stroke-dashoffset: 0; stroke: #d62728; stroke-width: 1.5"/>
    </g>
    <g id="text_23">
     <!-- t=75 -->
     <g transform="translate(384.505938 44.175391) scale(0.1 -0.1)">
      <use xlink:href="#DejaVuSans-74"/>
      <use xlink:href="#DejaVuSans-3d" x="39.208984"/>
      <use xlink:href="#DejaVuSans-37" x="122.998047"/>
      <use xlink:href="#DejaVuSans-35" x="186.621094"/>
     </g>
    </g>
   </g>
  </g>
 </g>
 <defs>
  <clipPath id="p3c3110dc2b">
   <rect x="61.410938" y="12.898828" width="357.12" height="266.112"/>
  </clipPath>
 </defs>
</svg>
