<?xml version="1.0" encoding="utf-8" standalone="no"?>
<!DOCTYPE svg PUBLIC "-//W3C//DTD SVG 1.1//EN"
  "http://www.w3.org/Graphics/SVG/1.1/DTD/svg11.dtd">
<svg xmlns:xlink="http://www.w3.org/1999/xlink" width="425.730937pt" height="331.084266pt" viewBox="0 0 425.730937 331.084266" xmlns="http://www.w3.org/2000/svg" version="1.1">
 <defs>
  <style type="text/css">*{stroke-linejoin: round; stroke-linecap: butt}</style>
 </defs>
 <g id="figure_1">
  <g id="patch_1">
   <path d="M 0 331.084266 
L 425.730937 331.084266 
L 425.730937 0 
L 0 0 
L 0 331.084266 
z
" style="fill: none"/>
  </g>
  <g id="axes_1">
   <g id="patch_2">
    <path d="M 61.410938 279.010828 
L 418.530938 279.010828 
L 418.530938 12.898828 
L 61.410938 12.898828 
L 61.410938 279.010828 
z
" style="fill: none"/>
   </g>
   <g id="matplotlib.axis_1">
    <g id="xtick_1">
     <g id="line2d_1">
      <path d="M 77.643665 279.010828 
L 77.643665 12.898828 
" clip-path="url(#p3c3110dc2b)" style="fill: none; stroke: #b0b0b0; stroke-width: 0.8; stroke-linecap: square"/>
     </g>
     <g id="line2d_2">
      <defs>
       <path id="md39032bed2" d="M 0 0 
L 0 3.5 
" style="stroke: #000000; stroke-width: 0.8"/>
      </defs>
      <g>
       <use xlink:href="#md39032bed2" x="77.643665" y="279.010828" style="stroke: #000000; stroke-width: 0.8"/>
      </g>
     </g>
     <g id="text_1">
      <!-- 0 -->
      <g transform="translate(72.87179 297.408484) scale(0.15 -0.15)">
       <defs>
        <path id="DejaVuSans-30" d="M 2034 4250 
Q 1547 4250 1301 3770 
Q 1056 3291 1056 2328 
Q 1056 1369 1301 889 
Q 1547 409 2034 409 
Q 2525 409 2770 889 
Q 3016 1369 3016 2328 
Q 3016 3291 2770 3770 
Q 2525 4250 2034 4250 
z
M 2034 4750 
Q 2819 4750 3233 4129 
Q 3647 3509 3647 2328 
Q 3647 1150 3233 529 
Q 2819 -91 2034 -91 
Q 1250 -91 836 529 
Q 422 1150 422 2328 
Q 422 3509 836 4129 
Q 1250 4750 2034 4750 
z
" transform="scale(0.015625)"/>
       </defs>
       <use xlink:href="#DejaVuSans-30"/>
      </g>
     </g>
    </g>
    <g id="xtick_2">
     <g id="line2d_3">
      <path d="M 158.807301 279.010828 
L 158.807301 12.898828 
" clip-path="url(#p3c3110dc2b)" style="fill: none; stroke: #b0b0b0; stroke-width: 0.8; stroke-linecap: square"/>
     </g>
     <g id="line2d_4">
      <g>
       <use xlink:href="#md39032bed2" x="158.807301" y="279.010828" style="stroke: #000000; stroke-width: 0.8"/>
      </g>
     </g>
     <g id="text_2">
      <!-- 100 -->
      <g transform="translate(144.491676 297.408484) scale(0.15 -0.15)">
       <defs>
        <path id="DejaVuSans-31" d="M 794 531 
L 1825 531 
L 1825 4091 
L 703 3866 
L 703 4441 
L 1819 4666 
L 2450 4666 
L 2450 531 
L 3481 531 
L 3481 0 
L 794 0 
L 794 531 
z
" transform="scale(0.015625)"/>
       </defs>
       <use xlink:href="#DejaVuSans-31"/>
       <use xlink:href="#DejaVuSans-30" x="63.623047"/>
       <use xlink:href="#DejaVuSans-30" x="127.246094"/>
      </g>
     </g>
    </g>
    <g id="xtick_3">
     <g id="line2d_5">
      <path d="M 239.970938 279.010828 
L 239.970938 12.898828 
" clip-path="url(#p3c3110dc2b)" style="fill: none; stroke: #b0b0b0; stroke-width: 0.8; stroke-linecap: square"/>
     </g>
     <g id="line2d_6">
      <g>
       <use xlink:href="#md39032bed2" x="239.970938" y="279.010828" style="stroke: #000000; stroke-width: 0.8"/>
      </g>
     </g>
     <g id="text_3">
      <!-- 200 -->
      <g transform="translate(225.655313 297.408484) scale(0.15 -0.15)">
       <defs>
        <path id="DejaVuSans-32" d="M 1228 531 
L 3431 531 
L 3431 0 
L 469 0 
L 469 531 
Q 828 903 1448 1529 
Q 2069 2156 2228 2338 
Q 2531 2678 2651 2914 
Q 2772 3150 2772 3378 
Q 2772 3750 2511 3984 
Q 2250 4219 1831 4219 
Q 1534 4219 1204 4116 
Q 875 4013 500 3803 
L 500 4441 
Q 881 4594 1212 4672 
Q 1544 4750 1819 4750 
Q 2544 4750 2975 4387 
Q 3406 4025 3406 3419 
Q 3406 3131 3298 2873 
Q 3191 2616 2906 2266 
Q 2828 2175 2409 1742 
Q 1991 1309 1228 531 
z
" transform="scale(0.015625)"/>
       </defs>
       <use xlink:href="#DejaVuSans-32"/>
       <use xlink:href="#DejaVuSans-30" x="63.623047"/>
       <use xlink:href="#DejaVuSans-30" x="127.246094"/>
      </g>
     </g>
    </g>
    <g id="xtick_4">
     <g id="line2d_7">
      <path d="M 321.134574 279.010828 
L 321.134574 12.898828 
" clip-path="url(#p3c3110dc2b)" style="fill: none; stroke: #b0b0b0; stroke-width: 0.8; stroke-linecap: square"/>
     </g>
     <g id="line2d_8">
      <g>
       <use xlink:href="#md39032bed2" x="321.134574" y="279.010828" style="stroke: #000000; stroke-width: 0.8"/>
      </g>
     </g>
     <g id="text_4">
      <!-- 300 -->
      <g transform="translate(306.818949 297.408484) scale(0.15 -0.15)">
       <defs>
        <path id="DejaVuSans-33" d="M 2597 2516 
Q 3050 2419 3304 2112 
Q 3559 1806 3559 1356 
Q 3559 666 3084 287 
Q 2609 -91 1734 -91 
Q 1441 -91 1130 -33 
Q 819 25 488 141 
L 488 750 
Q 750 597 1062 519 
Q 1375 441 1716 441 
Q 2309 441 2620 675 
Q 2931 909 2931 1356 
Q 2931 1769 2642 2001 
Q 2353 2234 1838 2234 
L 1294 2234 
L 1294 2753 
L 1863 2753 
Q 2328 2753 2575 2939 
Q 2822 3125 2822 3475 
Q 2822 3834 2567 4026 
Q 2313 4219 1838 4219 
Q 1578 4219 1281 4162 
Q 984 4106 628 3988 
L 628 4550 
Q 988 4650 1302 4700 
Q 1616 4750 1894 4750 
Q 2613 4750 3031 4423 
Q 3450 4097 3450 3541 
Q 3450 3153 3228 2886 
Q 3006 2619 2597 2516 
z
" transform="scale(0.015625)"/>
       </defs>
       <use xlink:href="#DejaVuSans-33"/>
       <use xlink:href="#DejaVuSans-30" x="63.623047"/>
       <use xlink:href="#DejaVuSans-30" x="127.246094"/>
      </g>
     </g>
    </g>
    <g id="xtick_5">
     <g id="line2d_9">
      <path d="M 402.29821 279.010828 
L 402.29821 12.898828 
" clip-path="url(#p3c3110dc2b)" style="fill: none; stroke: #b0b0b0; stroke-width: 0.8; stroke-linecap: square"/>
     </g>
     <g id="line2d_10">
      <g>
       <use xlink:href="#md39032bed2" x="402.29821" y="279.010828" style="stroke: #000000; stroke-width: 0.8"/>
      </g>
     </g>
     <g id="text_5">
      <!-- 400 -->
      <g transform="translate(387.982585 297.408484) scale(0.15 -0.15)">
       <defs>
        <path id="DejaVuSans-34" d="M 2419 4116 
L 825 1625 
L 2419 1625 
L 2419 4116 
z
M 2253 4666 
L 3047 4666 
L 3047 1625 
L 3713 1625 
L 3713 1100 
L 3047 1100 
L 3047 0 
L 2419 0 
L 2419 1100 
L 313 1100 
L 313 1709 
L 2253 4666 
z
" transform="scale(0.015625)"/>
       </defs>
       <use xlink:href="#DejaVuSans-34"/>
       <use xlink:href="#DejaVuSans-30" x="63.623047"/>
       <use xlink:href="#DejaVuSans-30" x="127.246094"/>
      </g>
     </g>
    </g>
    <g id="text_6">
     <!-- t -->
     <g transform="translate(236.050625 319.724891) scale(0.2 -0.2)">
      <defs>
       <path id="DejaVuSans-74" d="M 1172 4494 
L 1172 3500 
L 2356 3500 
L 2356 3053 
L 1172 3053 
L 1172 1153 
Q 1172 725 1289 603 
Q 1406 481 1766 481 
L 2356 481 
L 2356 0 
L 1766 0 
Q 1100 0 847 248 
Q 594 497 594 1153 
L 594 3053 
L 172 3053 
L 172 3500 
L 594 3500 
L 594 4494 
L 1172 4494 
z
" transform="scale(0.015625)"/>
      </defs>
      <use xlink:href="#DejaVuSans-74"/>
     </g>
    </g>
   </g>
   <g id="matplotlib.axis_2">
    <g id="ytick_1">
     <g id="line2d_11">
      <path d="M 61.410938 279.010828 
L 418.530938 279.010828 
" clip-path="url(#p3c3110dc2b)" style="fill: none; stroke: #b0b0b0; stroke-width: 0.8; stroke-linecap: square"/>
     </g>
     <g id="line2d_12">
      <defs>
       <path id="m6f3f5b6aff" d="M 0 0 
L -3.5 0 
" style="stroke: #000000; stroke-width: 0.8"/>
      </defs>
      <g>
       <use xlink:href="#m6f3f5b6aff" x="61.410938" y="279.010828" style="stroke: #000000; stroke-width: 0.8"/>
      </g>
     </g>
     <g id="text_7">
      <!-- 0.0 -->
      <g transform="translate(30.55625 284.709656) scale(0.15 -0.15)">
       <defs>
        <path id="DejaVuSans-2e" d="M 684 794 
L 1344 794 
L 1344 0 
L 684 0 
L 684 794 
z
" transform="scale(0.015625)"/>
       </defs>
       <use xlink:href="#DejaVuSans-30"/>
       <use xlink:href="#DejaVuSans-2e" x="63.623047"/>
       <use xlink:href="#DejaVuSans-30" x="95.410156"/>
      </g>
     </g>
    </g>
    <g id="ytick_2">
     <g id="line2d_13">
      <path d="M 61.410938 225.788428 
L 418.530938 225.788428 
" clip-path="url(#p3c3110dc2b)" style="fill: none; stroke: #b0b0b0; stroke-width: 0.8; stroke-linecap: square"/>
     </g>
     <g id="line2d_14">
      <g>
       <use xlink:href="#m6f3f5b6aff" x="61.410938" y="225.788428" style="stroke: #000000; stroke-width: 0.8"/>
      </g>
     </g>
     <g id="text_8">
      <!-- 0.2 -->
      <g transform="translate(30.55625 231.487256) scale(0.15 -0.15)">
       <use xlink:href="#DejaVuSans-30"/>
       <use xlink:href="#DejaVuSans-2e" x="63.623047"/>
       <use xlink:href="#DejaVuSans-32" x="95.410156"/>
      </g>
     </g>
    </g>
    <g id="ytick_3">
     <g id="line2d_15">
      <path d="M 61.410938 172.566028 
L 418.530938 172.566028 
" clip-path="url(#p3c3110dc2b)" style="fill: none; stroke: #b0b0b0; stroke-width: 0.8; stroke-linecap: square"/>
     </g>
     <g id="line2d_16">
      <g>
       <use xlink:href="#m6f3f5b6aff" x="61.410938" y="172.566028" style="stroke: #000000; stroke-width: 0.8"/>
      </g>
     </g>
     <g id="text_9">
      <!-- 0.4 -->
      <g transform="translate(30.55625 178.264856) scale(0.15 -0.15)">
       <use xlink:href="#DejaVuSans-30"/>
       <use xlink:href="#DejaVuSans-2e" x="63.623047"/>
       <use xlink:href="#DejaVuSans-34" x="95.410156"/>
      </g>
     </g>
    </g>
    <g id="ytick_4">
     <g id="line2d_17">
      <path d="M 61.410938 119.343628 
L 418.530938 119.343628 
" clip-path="url(#p3c3110dc2b)" style="fill: none; stroke: #b0b0b0; stroke-width: 0.8; stroke-linecap: square"/>
     </g>
     <g id="line2d_18">
      <g>
       <use xlink:href="#m6f3f5b6aff" x="61.410938" y="119.343628" style="stroke: #000000; stroke-width: 0.8"/>
      </g>
     </g>
     <g id="text_10">
      <!-- 0.6 -->
      <g transform="translate(30.55625 125.042456) scale(0.15 -0.15)">
       <defs>
        <path id="DejaVuSans-36" d="M 2113 2584 
Q 1688 2584 1439 2293 
Q 1191 2003 1191 1497 
Q 1191 994 1439 701 
Q 1688 409 2113 409 
Q 2538 409 2786 701 
Q 3034 994 3034 1497 
Q 3034 2003 2786 2293 
Q 2538 2584 2113 2584 
z
M 3366 4563 
L 3366 3988 
Q 3128 4100 2886 4159 
Q 2644 4219 2406 4219 
Q 1781 4219 1451 3797 
Q 1122 3375 1075 2522 
Q 1259 2794 1537 2939 
Q 1816 3084 2150 3084 
Q 2853 3084 3261 2657 
Q 3669 2231 3669 1497 
Q 3669 778 3244 343 
Q 2819 -91 2113 -91 
Q 1303 -91 875 529 
Q 447 1150 447 2328 
Q 447 3434 972 4092 
Q 1497 4750 2381 4750 
Q 2619 4750 2861 4703 
Q 3103 4656 3366 4563 
z
" transform="scale(0.015625)"/>
       </defs>
       <use xlink:href="#DejaVuSans-30"/>
       <use xlink:href="#DejaVuSans-2e" x="63.623047"/>
       <use xlink:href="#DejaVuSans-36" x="95.410156"/>
      </g>
     </g>
    </g>
    <g id="ytick_5">
     <g id="line2d_19">
      <path d="M 61.410938 66.121228 
L 418.530938 66.121228 
" clip-path="url(#p3c3110dc2b)" style="fill: none; stroke: #b0b0b0; stroke-width: 0.8; stroke-linecap: square"/>
     </g>
     <g id="line2d_20">
      <g>
       <use xlink:href="#m6f3f5b6aff" x="61.410938" y="66.121228" style="stroke: #000000; stroke-width: 0.8"/>
      </g>
     </g>
     <g id="text_11">
      <!-- 0.8 -->
      <g transform="translate(30.55625 71.820056) scale(0.15 -0.15)">
       <defs>
        <path id="DejaVuSans-38" d="M 2034 2216 
Q 1584 2216 1326 1975 
Q 1069 1734 1069 1313 
Q 1069 891 1326 650 
Q 1584 409 2034 409 
Q 2484 409 2743 651 
Q 3003 894 3003 1313 
Q 3003 1734 2745 1975 
Q 2488 2216 2034 2216 
z
M 1403 2484 
Q 997 2584 770 2862 
Q 544 3141 544 3541 
Q 544 4100 942 4425 
Q 1341 4750 2034 4750 
Q 2731 4750 3128 4425 
Q 3525 4100 3525 3541 
Q 3525 3141 3298 2862 
Q 3072 2584 2669 2484 
Q 3125 2378 3379 2068 
Q 3634 1759 3634 1313 
Q 3634 634 3220 271 
Q 2806 -91 2034 -91 
Q 1263 -91 848 271 
Q 434 634 434 1313 
Q 434 1759 690 2068 
Q 947 2378 1403 2484 
z
M 1172 3481 
Q 1172 3119 1398 2916 
Q 1625 2713 2034 2713 
Q 2441 2713 2670 2916 
Q 2900 3119 2900 3481 
Q 2900 3844 2670 4047 
Q 2441 4250 2034 4250 
Q 1625 4250 1398 4047 
Q 1172 3844 1172 3481 
z
" transform="scale(0.015625)"/>
       </defs>
       <use xlink:href="#DejaVuSans-30"/>
       <use xlink:href="#DejaVuSans-2e" x="63.623047"/>
       <use xlink:href="#DejaVuSans-38" x="95.410156"/>
      </g>
     </g>
    </g>
    <g id="ytick_6">
     <g id="line2d_21">
      <path d="M 61.410938 12.898828 
L 418.530938 12.898828 
" clip-path="url(#p3c3110dc2b)" style="fill: none; stroke: #b0b0b0; stroke-width: 0.8; stroke-linecap: square"/>
     </g>
     <g id="line2d_22">
      <g>
       <use xlink:href="#m6f3f5b6aff" x="61.410938" y="12.898828" style="stroke: #000000; stroke-width: 0.8"/>
      </g>
     </g>
     <g id="text_12">
      <!-- 1.0 -->
      <g transform="translate(30.55625 18.597656) scale(0.15 -0.15)">
       <use xlink:href="#DejaVuSans-31"/>
       <use xlink:href="#DejaVuSans-2e" x="63.623047"/>
       <use xlink:href="#DejaVuSans-30" x="95.410156"/>
      </g>
     </g>
    </g>
    <g id="text_13">
     <!-- p -->
     <g transform="translate(22.396875 152.303266) rotate(-90) scale(0.2 -0.2)">
      <defs>
       <path id="DejaVuSans-70" d="M 1159 525 
L 1159 -1331 
L 581 -1331 
L 581 3500 
L 1159 3500 
L 1159 2969 
Q 1341 3281 1617 3432 
Q 1894 3584 2278 3584 
Q 2916 3584 3314 3078 
Q 3713 2572 3713 1747 
Q 3713 922 3314 415 
Q 2916 -91 2278 -91 
Q 1894 -91 1617 61 
Q 1341 213 1159 525 
z
M 3116 1747 
Q 3116 2381 2855 2742 
Q 2594 3103 2138 3103 
Q 1681 3103 1420 2742 
Q 1159 2381 1159 1747 
Q 1159 1113 1420 752 
Q 1681 391 2138 391 
Q 2594 391 2855 752 
Q 3116 1113 3116 1747 
z
" transform="scale(0.015625)"/>
      </defs>
      <use xlink:href="#DejaVuSans-70"/>
     </g>
    </g>
   </g>
   <g id="line2d_23">
    <path d="M 77.643665 12.898828 
L 77.805992 13.337751 
L 78.03325 14.813172 
L 78.357905 18.661793 
L 78.779956 26.614005 
L 79.331868 41.665462 
L 80.046108 67.828272 
L 81.085003 115.243136 
L 83.422516 224.468355 
L 84.201687 250.025423 
L 84.786065 262.955585 
L 85.240581 268.851742 
L 85.565236 270.728893 
L 85.727563 270.928283 
L 85.857425 270.732867 
L 86.052218 269.850949 
L 86.344407 267.219033 
L 86.733992 261.334571 
L 87.253439 249.518645 
L 87.902748 229.115998 
L 88.779316 193.949185 
L 91.993396 57.338625 
L 92.67517 40.229257 
L 93.194618 32.158879 
L 93.584203 29.135027 
L 93.811461 28.598802 
L 93.941323 28.699996 
L 94.10365 29.241942 
L 94.363374 31.060602 
L 94.720494 35.43235 
L 95.17501 43.984381 
L 95.759388 59.448036 
L 96.538559 86.496961 
L 97.772247 138.409908 
L 99.492916 209.340977 
L 100.304552 234.339941 
L 100.921396 247.477553 
L 101.408378 253.736821 
L 101.765498 255.886428 
L 101.96029 256.17316 
L 102.090152 256.016444 
L 102.284945 255.261949 
L 102.577134 252.975133 
L 102.966719 247.829474 
L 103.486167 237.462638 
L 104.135476 219.525895 
L 105.012043 188.56406 
L 108.258588 67.138522 
L 108.940363 52.277403 
L 109.45981 45.353141 
L 109.81693 42.957299 
L 110.044188 42.458655 
L 110.17405 42.533212 
L 110.336378 42.992895 
L 110.596101 44.56795 
L 110.953221 48.385026 
L 111.407738 55.881377 
L 111.992116 69.467265 
L 112.771287 93.269669 
L 114.004974 139.01731 
L 115.725643 201.628235 
L 116.569745 224.470416 
L 117.186588 235.856171 
L 117.67357 241.204125 
L 117.998225 242.885745 
L 118.193018 243.159339 
L 118.322879 243.034912 
L 118.517672 242.390051 
L 118.809861 240.403554 
L 119.199447 235.904309 
L 119.686428 227.475235 
L 120.335738 211.931539 
L 121.212305 184.881955 
L 124.556247 75.130195 
L 125.205556 62.962358 
L 125.692538 57.293139 
L 126.049658 55.144837 
L 126.276916 54.682376 
L 126.406778 54.735174 
L 126.569105 55.12446 
L 126.828828 56.488068 
L 127.185948 59.820478 
L 127.640465 66.39116 
L 128.224843 78.327027 
L 129.004014 99.272293 
L 130.205236 138.475516 
L 131.95837 194.852733 
L 132.802472 215.055099 
L 133.419316 225.147894 
L 133.906297 229.908504 
L 134.230952 231.421854 
L 134.45821 231.677298 
L 134.588072 231.525691 
L 134.782865 230.894576 
L 135.075054 229.050658 
L 135.464639 224.964848 
L 135.984087 216.799277 
L 136.633396 202.740469 
L 137.542428 177.580003 
L 140.659112 86.304564 
L 141.340887 74.188762 
L 141.860334 68.329804 
L 142.249919 66.00283 
L 142.509643 65.463021 
L 142.639505 65.498158 
L 142.801832 65.827258 
L 143.061556 67.007382 
L 143.418676 69.916337 
L 143.873192 75.675385 
L 144.45757 86.161382 
L 145.236741 104.592227 
L 146.437963 139.138313 
L 148.223563 189.69037 
L 149.035199 206.768067 
L 149.652043 215.714431 
L 150.139025 219.95181 
L 150.496145 221.383863 
L 150.690938 221.557256 
L 150.853265 221.373774 
L 151.080523 220.619071 
L 151.405178 218.549141 
L 151.827228 214.175295 
L 152.379141 205.793885 
L 153.093381 191.107312 
L 154.09981 165.217587 
L 156.567185 99.970584 
L 157.346356 85.863561 
L 157.930734 78.883281 
L 158.38525 75.837853 
L 158.677439 75.027678 
L 158.839767 74.96976 
L 159.002094 75.191648 
L 159.229352 75.969158 
L 159.554007 78.009009 
L 159.976058 82.235062 
L 160.52797 90.245781 
L 161.24221 104.183846 
L 162.281105 129.463724 
L 164.618618 187.761019 
L 165.397788 201.420312 
L 165.982167 208.340257 
L 166.436683 211.50387 
L 166.761338 212.518463 
L 166.95613 212.622422 
L 167.118458 212.41994 
L 167.345716 211.697947 
L 167.67037 209.793707 
L 168.092421 205.83906 
L 168.644334 198.332692 
L 169.358574 185.260598 
L 170.397468 161.534474 
L 172.734981 106.767409 
L 173.514152 93.919522 
L 174.09853 87.402816 
L 174.553047 84.416698 
L 174.877701 83.452798 
L 175.072494 83.348492 
L 175.234821 83.533101 
L 175.462079 84.203442 
L 175.786734 85.981002 
L 176.208785 89.6816 
L 176.760698 96.715294 
L 177.474938 108.97514 
L 178.513832 131.242904 
L 180.88381 183.274812 
L 181.662981 195.189093 
L 182.247359 201.174381 
L 182.701876 203.86638 
L 183.02653 204.689439 
L 183.221323 204.737952 
L 183.416116 204.45298 
L 183.675839 203.559058 
L 184.032959 201.391706 
L 184.487476 197.134329 
L 185.071854 189.417574 
L 185.851025 175.896678 
L 187.084712 149.907808 
L 188.805381 114.335811 
L 189.649483 101.356766 
L 190.266327 94.886511 
L 190.753308 91.846688 
L 191.077963 90.890258 
L 191.305221 90.738681 
L 191.467548 90.891717 
L 191.694807 91.469351 
L 192.019461 93.018108 
L 192.441512 96.258389 
L 192.993425 102.434048 
L 193.707665 113.217576 
L 194.714094 132.174586 
L 197.149003 179.261897 
L 197.928174 189.651865 
L 198.512552 194.826281 
L 198.967068 197.11374 
L 199.291723 197.776308 
L 199.486516 197.78103 
L 199.681308 197.491849 
L 199.941032 196.653691 
L 200.298152 194.675925 
L 200.785134 190.514785 
L 201.401977 183.058462 
L 202.213614 170.25155 
L 203.609628 143.903145 
L 205.070574 117.676238 
L 205.88221 106.704843 
L 206.499054 100.969358 
L 206.986036 98.263399 
L 207.343156 97.358792 
L 207.570414 97.266832 
L 207.765207 97.487358 
L 208.02493 98.207332 
L 208.38205 99.975188 
L 208.836567 103.468783 
L 209.420945 109.823237 
L 210.200116 120.984155 
L 211.401338 141.890507 
L 213.186938 172.460381 
L 213.998574 182.77845 
L 214.615418 188.178381 
L 215.102399 190.731323 
L 215.459519 191.589731 
L 215.686778 191.681773 
L 215.88157 191.479522 
L 216.141294 190.80977 
L 216.498414 189.158073 
L 216.95293 185.887373 
L 217.537308 179.931364 
L 218.316479 169.461784 
L 219.517701 149.836468 
L 221.303301 121.115667 
L 222.114938 111.412029 
L 222.731781 106.328041 
L 223.218763 103.919503 
L 223.575883 103.105011 
L 223.803141 103.013231 
L 223.997934 103.198607 
L 224.257657 103.821575 
L 224.614778 105.364688 
L 225.069294 108.426662 
L 225.653672 114.009158 
L 226.432843 123.830166 
L 227.634065 142.252863 
L 229.419665 169.236321 
L 230.231301 178.362053 
L 230.848145 183.148524 
L 231.335127 185.42076 
L 231.692247 186.193488 
L 231.919505 186.284691 
L 232.114298 186.114879 
L 232.374021 185.535475 
L 232.731141 184.093838 
L 233.185658 181.22729 
L 233.770036 175.994896 
L 234.549207 166.782289 
L 235.750428 149.488516 
L 237.536028 124.137311 
L 238.38013 115.271091 
L 238.996974 110.86574 
L 239.483956 108.808785 
L 239.841076 108.141219 
L 240.068334 108.092721 
L 240.295592 108.336519 
L 240.587781 109.074537 
L 240.977367 110.781559 
L 241.464348 114.012833 
L 242.113658 120.009364 
L 242.990225 130.493351 
L 246.399098 173.926669 
L 247.048407 178.539834 
L 247.535388 180.64312 
L 247.892508 181.399832 
L 248.152232 181.524334 
L 248.347025 181.382122 
L 248.606748 180.881074 
L 248.963868 179.62293 
L 249.418385 177.110714 
L 250.002763 172.514129 
L 250.781934 164.407692 
L 251.983156 149.168603 
L 253.768756 126.791856 
L 254.612858 118.950111 
L 255.229701 115.044846 
L 255.716683 113.213556 
L 256.073803 112.611819 
L 256.301061 112.560743 
L 256.528319 112.767499 
L 256.820508 113.407934 
L 257.210094 114.899995 
L 257.697076 117.73423 
L 258.346385 123.00506 
L 259.190487 131.859896 
L 260.943621 153.362708 
L 262.112378 166.134676 
L 262.891548 172.410889 
L 263.475927 175.533005 
L 263.930443 176.910026 
L 264.255098 177.305897 
L 264.482356 177.288445 
L 264.709614 177.02931 
L 265.034268 176.245909 
L 265.456319 174.524467 
L 265.975767 171.387807 
L 266.657541 165.787576 
L 267.599039 156.006237 
L 270.423534 125.370825 
L 271.137774 120.362364 
L 271.689687 117.839843 
L 272.111738 116.780361 
L 272.403927 116.50375 
L 272.631185 116.549001 
L 272.890908 116.878189 
L 273.215563 117.698884 
L 273.637614 119.420723 
L 274.189527 122.707415 
L 274.903767 128.452144 
L 275.910196 138.559073 
L 278.345105 163.691163 
L 279.124276 169.244564 
L 279.708654 172.014189 
L 280.16317 173.242051 
L 280.487825 173.600985 
L 280.715083 173.592467 
L 280.974807 173.321795 
L 281.299461 172.598061 
L 281.721512 171.039188 
L 282.273425 168.021256 
L 282.987665 162.698233 
L 283.994094 153.266759 
L 286.493934 129.075654 
L 287.273105 123.928315 
L 287.857483 121.387322 
L 288.311999 120.284049 
L 288.636654 119.98331 
L 288.863912 120.016767 
L 289.123636 120.299786 
L 289.44829 121.014664 
L 289.870341 122.522181 
L 290.422254 125.407804 
L 291.136494 130.460638 
L 292.142923 139.362909 
L 294.577832 161.543214 
L 295.357003 166.456955 
L 295.941381 168.913786 
L 296.395898 170.008507 
L 296.720552 170.333706 
L 296.980276 170.316662 
L 297.239999 170.054304 
L 297.564654 169.387139 
L 297.986705 167.97659 
L 298.538618 165.272782 
L 299.252858 160.534009 
L 300.259287 152.179124 
L 302.726661 131.118635 
L 303.505832 126.56385 
L 304.09021 124.309456 
L 304.544727 123.325308 
L 304.869381 123.051954 
L 305.129105 123.093612 
L 305.421294 123.415375 
L 305.778414 124.195869 
L 306.23293 125.778318 
L 306.817308 128.6986 
L 307.596479 133.878837 
L 308.765236 143.387892 
L 310.615767 158.348038 
L 311.459868 163.385861 
L 312.076712 165.889314 
L 312.563694 167.058505 
L 312.920814 167.438215 
L 313.180538 167.456456 
L 313.440261 167.25805 
L 313.764916 166.709957 
L 314.186967 165.515844 
L 314.738879 163.190262 
L 315.453119 159.07294 
L 316.459548 151.756557 
L 318.991854 132.719211 
L 319.771025 128.748652 
L 320.355403 126.801331 
L 320.809919 125.967284 
L 321.134574 125.750901 
L 321.394297 125.807386 
L 321.686487 126.113093 
L 322.076072 126.91052 
L 322.563054 128.502942 
L 323.179898 131.376598 
L 323.991534 136.336256 
L 325.355083 146.341084 
L 326.880959 157.037412 
L 327.692596 161.295849 
L 328.309439 163.515111 
L 328.796421 164.556027 
L 329.153541 164.898285 
L 329.44573 164.908977 
L 329.737919 164.67811 
L 330.095039 164.074022 
L 330.549556 162.814175 
L 331.133934 160.453416 
L 331.880639 156.419455 
L 332.984465 149.078923 
L 335.029788 135.385032 
L 335.841425 131.431743 
L 336.458268 129.389979 
L 336.94525 128.448717 
L 337.30237 128.154662 
L 337.594559 128.167076 
L 337.886748 128.406095 
L 338.243868 128.9998 
L 338.698385 130.214611 
L 339.282763 132.467758 
L 340.061934 136.478141 
L 341.23069 143.860932 
L 343.113687 155.689811 
L 343.957788 159.580567 
L 344.574632 161.503052 
L 345.061614 162.391318 
L 345.418734 162.670723 
L 345.710923 162.661735 
L 346.035578 162.402264 
L 346.425163 161.752023 
L 346.912145 160.445043 
L 347.528988 158.078124 
L 348.340625 153.983221 
L 349.671708 145.908023 
L 351.23005 136.831776 
L 352.074152 133.17262 
L 352.690996 131.362453 
L 353.177978 130.524215 
L 353.567563 130.249497 
L 353.892218 130.293242 
L 354.216872 130.583023 
L 354.606458 131.247114 
L 355.125905 132.639796 
L 355.775214 135.106903 
L 356.651781 139.43731 
L 360.093119 157.611218 
L 360.742428 159.508133 
L 361.261876 160.405752 
L 361.651461 160.694731 
L 361.976116 160.679532 
L 362.30077 160.432895 
L 362.690356 159.838777 
L 363.177338 158.662054 
L 363.794181 156.54813 
L 364.605818 152.910938 
L 366.001832 145.415558 
L 367.462778 137.941404 
L 368.306879 134.704959 
L 368.956188 133.035679 
L 369.44317 132.321102 
L 369.832756 132.099117 
L 370.15741 132.154618 
L 370.51453 132.465793 
L 370.936581 133.161154 
L 371.456028 134.473744 
L 372.137803 136.868098 
L 373.046836 140.958686 
L 376.131054 155.572496 
L 376.845294 157.615418 
L 377.397207 158.580906 
L 377.819257 158.929315 
L 378.176378 158.953543 
L 378.533498 158.730472 
L 378.955548 158.155961 
L 379.474996 157.012248 
L 380.124305 154.979325 
L 381.000872 151.402652 
L 382.916334 142.26519 
L 384.020159 137.703988 
L 384.766865 135.457612 
L 385.351243 134.314854 
L 385.805759 133.83947 
L 386.195345 133.73101 
L 386.552465 133.875127 
L 386.94205 134.293159 
L 387.429032 135.181213 
L 388.045876 136.836332 
L 388.825047 139.624843 
L 390.058734 145.012712 
L 391.811868 152.551933 
L 392.65597 155.243999 
L 393.305279 156.637468 
L 393.824727 157.264057 
L 394.214312 157.433531 
L 394.571432 157.359879 
L 394.961018 157.032865 
L 395.415534 156.338112 
L 395.999912 154.987336 
L 396.746618 152.6251 
L 397.817978 148.383528 
L 400.090559 139.222882 
L 400.902196 136.930417 
L 401.519039 135.785866 
L 402.006021 135.293556 
L 402.29821 135.180088 
L 402.29821 135.180088 
" clip-path="url(#p3c3110dc2b)" style="fill: none; stroke: #1f77b4; stroke-width: 1.5; stroke-linecap: square"/>
   </g>
   <g id="line2d_24">
    <path d="M 77.643665 279.010828 
L 77.773527 278.706176 
L 78.000785 277.375954 
L 78.325439 273.729954 
L 78.74749 266.027999 
L 79.299403 251.271354 
L 80.013643 225.416164 
L 81.020072 179.841772 
L 83.487447 64.998222 
L 84.266618 40.171515 
L 84.850996 27.888803 
L 85.273047 22.788082 
L 85.597701 21.107661 
L 85.727563 20.987619 
L 85.760028 21.006928 
L 85.88989 21.281056 
L 86.117148 22.514911 
L 86.441803 25.917436 
L 86.863854 33.123861 
L 87.415767 46.950617 
L 88.130007 71.198632 
L 89.136436 113.970567 
L 91.60381 221.859687 
L 92.382981 245.213545 
L 92.967359 256.78268 
L 93.421876 261.842228 
L 93.714065 263.198124 
L 93.876392 263.303137 
L 94.006254 263.054006 
L 94.233512 261.909698 
L 94.558167 258.734494 
L 94.980218 251.991786 
L 95.53213 239.036367 
L 96.24637 216.295648 
L 97.252799 176.153849 
L 99.720174 74.798026 
L 100.499345 52.829676 
L 101.083723 41.932729 
L 101.538239 37.154459 
L 101.830428 35.863535 
L 101.992756 35.755123 
L 102.122618 35.981271 
L 102.31741 36.83921 
L 102.609599 39.278448 
L 102.999185 44.619236 
L 103.518632 55.224938 
L 104.167941 73.413033 
L 105.076974 105.868039 
L 108.161192 222.165009 
L 108.842967 237.901166 
L 109.362414 245.56979 
L 109.751999 248.668074 
L 110.011723 249.433982 
L 110.141585 249.424736 
L 110.303912 249.046335 
L 110.53117 247.836734 
L 110.855825 244.756849 
L 111.277876 238.465078 
L 111.829788 226.632914 
L 112.544028 206.153575 
L 113.582923 169.166874 
L 115.88797 85.327154 
L 116.667141 65.323004 
L 117.251519 55.153572 
L 117.706036 50.473634 
L 118.03069 48.944798 
L 118.225483 48.763294 
L 118.355345 48.948968 
L 118.550138 49.685093 
L 118.842327 51.806104 
L 119.231912 56.47762 
L 119.751359 65.78377 
L 120.400668 81.774615 
L 121.309701 110.350672 
L 124.426385 213.770892 
L 125.108159 227.451318 
L 125.627607 234.045636 
L 126.017192 236.645702 
L 126.276916 237.231845 
L 126.406778 237.179041 
L 126.569105 236.78975 
L 126.828828 235.426132 
L 127.185948 232.09371 
L 127.640465 225.523012 
L 128.224843 213.587125 
L 129.004014 192.641832 
L 130.205236 153.438567 
L 131.95837 97.061291 
L 132.802472 76.858897 
L 133.419316 66.766081 
L 133.906297 62.005455 
L 134.230952 60.492094 
L 134.45821 60.236642 
L 134.588072 60.388245 
L 134.782865 61.019354 
L 135.075054 62.863262 
L 135.464639 66.949059 
L 135.984087 75.114613 
L 136.633396 89.173399 
L 137.542428 114.333837 
L 140.659112 205.609176 
L 141.340887 217.724956 
L 141.860334 223.583897 
L 142.249919 225.910859 
L 142.509643 226.45066 
L 142.639505 226.415519 
L 142.801832 226.086414 
L 143.061556 224.906282 
L 143.418676 221.997317 
L 143.873192 216.238255 
L 144.45757 205.752239 
L 145.236741 187.321371 
L 146.437963 152.775248 
L 148.223563 102.223137 
L 149.035199 85.145416 
L 149.652043 76.199034 
L 150.139025 71.961641 
L 150.496145 70.529577 
L 150.690938 70.356178 
L 150.853265 70.539656 
L 151.080523 71.294352 
L 151.405178 73.364273 
L 151.827228 77.738107 
L 152.379141 86.119501 
L 153.093381 100.806053 
L 154.09981 126.695749 
L 156.567185 191.942683 
L 157.346356 206.049684 
L 157.930734 213.029947 
L 158.38525 216.075363 
L 158.677439 216.88553 
L 158.839767 216.943444 
L 159.002094 216.721551 
L 159.229352 215.944035 
L 159.554007 213.904176 
L 159.976058 209.678111 
L 160.52797 201.667376 
L 161.24221 187.729293 
L 162.281105 162.449386 
L 164.618618 104.152029 
L 165.397788 90.492716 
L 165.982167 83.572756 
L 166.436683 80.409131 
L 166.761338 79.39453 
L 166.95613 79.290565 
L 167.118458 79.493044 
L 167.345716 80.21503 
L 167.67037 82.119262 
L 168.092421 86.073899 
L 168.644334 93.580253 
L 169.358574 106.652329 
L 170.397468 130.378427 
L 172.734981 185.145433 
L 173.514152 197.993301 
L 174.09853 204.509993 
L 174.553047 207.4961 
L 174.877701 208.459992 
L 175.072494 208.564293 
L 175.234821 208.37968 
L 175.462079 207.709334 
L 175.786734 205.931765 
L 176.208785 202.231158 
L 176.760698 195.19745 
L 177.474938 182.937587 
L 178.513832 160.669799 
L 180.88381 108.637835 
L 181.662981 96.723537 
L 182.247359 90.738235 
L 182.701876 88.046226 
L 183.02653 87.223159 
L 183.221323 87.174642 
L 183.416116 87.45961 
L 183.675839 88.353525 
L 184.032959 90.52087 
L 184.487476 94.778236 
L 185.071854 102.494978 
L 185.851025 116.015857 
L 187.084712 142.004699 
L 188.805381 177.576659 
L 189.649483 190.555685 
L 190.266327 197.025927 
L 190.753308 200.06574 
L 191.077963 201.022163 
L 191.305221 201.173735 
L 191.467548 201.020695 
L 191.694807 200.443056 
L 192.019461 198.894292 
L 192.441512 195.654002 
L 192.993425 189.478332 
L 193.707665 178.694789 
L 194.714094 159.737758 
L 197.149003 112.650397 
L 197.928174 102.260413 
L 198.512552 97.085985 
L 198.967068 94.798517 
L 199.291723 94.135942 
L 199.486516 94.131216 
L 199.681308 94.420394 
L 199.941032 95.258546 
L 200.298152 97.236306 
L 200.785134 101.397436 
L 201.401977 108.853747 
L 202.213614 121.660643 
L 203.609628 148.00902 
L 205.070574 174.235899 
L 205.88221 185.207278 
L 206.499054 190.942752 
L 206.986036 193.648701 
L 207.343156 194.553302 
L 207.570414 194.645258 
L 207.765207 194.424728 
L 208.02493 193.704749 
L 208.38205 191.936886 
L 208.836567 188.443282 
L 209.420945 182.088818 
L 210.200116 170.927885 
L 211.401338 150.021512 
L 213.186938 119.451605 
L 213.998574 109.133522 
L 214.615418 103.733579 
L 215.102399 101.180629 
L 215.459519 100.322214 
L 215.686778 100.230168 
L 215.88157 100.432416 
L 216.141294 101.102164 
L 216.498414 102.753854 
L 216.95293 106.024546 
L 217.537308 111.980545 
L 218.316479 122.450111 
L 219.517701 142.075407 
L 221.303301 170.796178 
L 222.114938 180.499801 
L 222.731781 185.583779 
L 223.218763 187.992309 
L 223.575883 188.806795 
L 223.803141 188.898571 
L 223.997934 188.713192 
L 224.257657 188.09022 
L 224.614778 186.547101 
L 225.069294 183.48512 
L 225.653672 177.902614 
L 226.432843 168.081593 
L 227.634065 149.658876 
L 229.419665 122.67539 
L 230.231301 113.549645 
L 230.848145 108.763165 
L 231.335127 106.490921 
L 231.692247 105.718187 
L 231.919505 105.626981 
L 232.114298 105.79679 
L 232.374021 106.37619 
L 232.731141 107.817821 
L 233.185658 110.684362 
L 233.770036 115.916747 
L 234.549207 125.129342 
L 235.750428 142.423096 
L 237.536028 167.774275 
L 238.38013 176.640482 
L 238.996974 181.045824 
L 239.483956 183.102772 
L 239.841076 183.770332 
L 240.068334 183.818828 
L 240.295592 183.575026 
L 240.587781 182.837004 
L 240.977367 181.129976 
L 241.464348 177.898695 
L 242.113658 171.902155 
L 242.990225 161.418155 
L 246.399098 117.984789 
L 247.048407 113.371615 
L 247.535388 111.268322 
L 247.892508 110.511606 
L 248.152232 110.387099 
L 248.347025 110.529309 
L 248.606748 111.030354 
L 248.963868 112.288493 
L 249.418385 114.800703 
L 250.002763 119.39728 
L 250.781934 127.503706 
L 251.983156 142.742779 
L 253.768756 165.119502 
L 254.612858 172.961236 
L 255.229701 176.866493 
L 255.716683 178.697776 
L 256.073803 179.299509 
L 256.301061 179.350582 
L 256.528319 179.143823 
L 256.820508 178.503384 
L 257.210094 177.011318 
L 257.697076 174.177077 
L 258.346385 168.906239 
L 259.190487 160.051393 
L 260.943621 138.548558 
L 262.112378 125.776576 
L 262.891548 119.500353 
L 263.475927 116.37823 
L 263.930443 115.001204 
L 264.255098 114.605329 
L 264.482356 114.622778 
L 264.709614 114.88191 
L 265.034268 115.665307 
L 265.456319 117.386744 
L 265.975767 120.523397 
L 266.657541 126.123621 
L 267.599039 135.904948 
L 270.423534 166.540327 
L 271.137774 171.54878 
L 271.689687 174.071295 
L 272.111738 175.130772 
L 272.403927 175.40738 
L 272.631185 175.362126 
L 272.890908 175.032935 
L 273.215563 174.212237 
L 273.637614 172.490392 
L 274.189527 169.203694 
L 274.903767 163.458958 
L 275.910196 153.352017 
L 278.345105 128.2199 
L 279.124276 122.666491 
L 279.708654 119.896859 
L 280.16317 118.668993 
L 280.487825 118.310055 
L 280.715083 118.318571 
L 280.974807 118.58924 
L 281.299461 119.312971 
L 281.721512 120.871839 
L 282.273425 123.889765 
L 282.987665 129.21278 
L 283.994094 138.644244 
L 286.493934 162.835324 
L 287.273105 167.982655 
L 287.857483 170.523642 
L 288.311999 171.62691 
L 288.636654 171.927646 
L 288.863912 171.894186 
L 289.123636 171.611165 
L 289.44829 170.896284 
L 289.870341 169.388762 
L 290.422254 166.503134 
L 291.136494 161.450293 
L 292.142923 152.548012 
L 294.577832 130.367683 
L 295.357003 125.453934 
L 295.941381 122.997099 
L 296.395898 121.902373 
L 296.720552 121.577171 
L 296.980276 121.594213 
L 297.239999 121.856568 
L 297.564654 122.52373 
L 297.986705 123.934275 
L 298.538618 126.638078 
L 299.252858 131.376844 
L 300.259287 139.73172 
L 302.726661 160.792187 
L 303.505832 165.346965 
L 304.09021 167.601353 
L 304.544727 168.585497 
L 304.869381 168.858849 
L 305.129105 168.817188 
L 305.421294 168.495422 
L 305.778414 167.714926 
L 306.23293 166.132472 
L 306.817308 163.212185 
L 307.596479 158.031942 
L 308.765236 148.522876 
L 310.615767 133.562715 
L 311.459868 128.524885 
L 312.076712 126.021426 
L 312.563694 124.852231 
L 312.920814 124.472518 
L 313.180538 124.454275 
L 313.440261 124.652679 
L 313.764916 125.200769 
L 314.186967 126.394879 
L 314.738879 128.720456 
L 315.453119 132.837772 
L 316.459548 140.154147 
L 318.991854 159.191473 
L 319.771025 163.162026 
L 320.355403 165.109342 
L 320.809919 165.943385 
L 321.134574 166.159765 
L 321.394297 166.103278 
L 321.686487 165.797569 
L 322.076072 165.000139 
L 322.563054 163.407713 
L 323.179898 160.534053 
L 323.991534 155.574389 
L 325.355083 145.56955 
L 326.880959 134.873211 
L 327.692596 130.614768 
L 328.309439 128.395501 
L 328.796421 127.354582 
L 329.153541 127.012321 
L 329.44573 127.001627 
L 329.737919 127.232491 
L 330.095039 127.836577 
L 330.549556 129.096421 
L 331.133934 131.457176 
L 331.880639 135.491131 
L 332.984465 142.831656 
L 335.029788 156.525531 
L 335.841425 160.478815 
L 336.458268 162.520574 
L 336.94525 163.461834 
L 337.30237 163.755886 
L 337.594559 163.74347 
L 337.886748 163.504449 
L 338.243868 162.910742 
L 338.698385 161.695928 
L 339.282763 159.442776 
L 340.061934 155.432388 
L 341.23069 148.04959 
L 343.113687 136.220698 
L 343.957788 132.329937 
L 344.574632 130.407447 
L 345.061614 129.519178 
L 345.418734 129.239771 
L 345.710923 129.248757 
L 346.035578 129.508226 
L 346.425163 130.158464 
L 346.912145 131.465441 
L 347.528988 133.832356 
L 348.340625 137.927254 
L 349.671708 146.002444 
L 351.23005 155.078681 
L 352.074152 158.737831 
L 352.690996 160.547995 
L 353.177978 161.386229 
L 353.567563 161.660946 
L 353.892218 161.617199 
L 354.216872 161.327415 
L 354.606458 160.663323 
L 355.125905 159.270637 
L 355.775214 156.803526 
L 356.651781 152.473114 
L 360.093119 134.299185 
L 360.742428 132.402267 
L 361.261876 131.504645 
L 361.651461 131.215664 
L 361.976116 131.230861 
L 362.30077 131.477496 
L 362.690356 132.071612 
L 363.177338 133.248333 
L 363.794181 135.362252 
L 364.605818 138.99944 
L 366.001832 146.494812 
L 367.462778 153.968959 
L 368.306879 157.205399 
L 368.956188 158.874675 
L 369.44317 159.589249 
L 369.832756 159.811233 
L 370.15741 159.755729 
L 370.51453 159.444552 
L 370.936581 158.749189 
L 371.456028 157.436597 
L 372.137803 155.042239 
L 373.046836 150.951647 
L 376.131054 136.337821 
L 376.845294 134.294895 
L 377.397207 133.329405 
L 377.819257 132.980993 
L 378.176378 132.956764 
L 378.533498 133.179833 
L 378.955548 133.754342 
L 379.474996 134.898051 
L 380.124305 136.930972 
L 381.000872 140.50764 
L 382.916334 149.645093 
L 384.020159 154.206289 
L 384.766865 156.452662 
L 385.351243 157.595417 
L 385.805759 158.070799 
L 386.195345 158.179257 
L 386.552465 158.035138 
L 386.94205 157.617105 
L 387.429032 156.729048 
L 388.045876 155.073927 
L 388.825047 152.285412 
L 390.058734 146.897538 
L 391.811868 139.358308 
L 392.65597 136.666239 
L 393.305279 135.272766 
L 393.824727 134.646175 
L 394.214312 134.4767 
L 394.571432 134.55035 
L 394.961018 134.877362 
L 395.415534 135.572113 
L 395.999912 136.922887 
L 396.746618 139.285119 
L 397.817978 143.526687 
L 400.090559 152.687323 
L 400.902196 154.979784 
L 401.519039 156.124333 
L 402.006021 156.616641 
L 402.29821 156.730108 
L 402.29821 156.730108 
" clip-path="url(#p3c3110dc2b)" style="fill: none; stroke: #ff7f0e; stroke-width: 1.5; stroke-linecap: square"/>
   </g>
   <g id="patch_3">
    <path d="M 61.410938 279.010828 
L 61.410938 12.898828 
" style="fill: none; stroke: #000000; stroke-width: 0.8; stroke-linejoin: miter; stroke-linecap: square"/>
   </g>
   <g id="patch_4">
    <path d="M 418.530938 279.010828 
L 418.530938 12.898828 
" style="fill: none; stroke: #000000; stroke-width: 0.8; stroke-linejoin: miter; stroke-linecap: square"/>
   </g>
   <g id="patch_5">
    <path d="M 61.410938 279.010828 
L 418.530938 279.010828 
" style="fill: none; stroke: #000000; stroke-width: 0.8; stroke-linejoin: miter; stroke-linecap: square"/>
   </g>
   <g id="patch_6">
    <path d="M 61.410938 12.898828 
L 418.530938 12.898828 
" style="fill: none; stroke: #000000; stroke-width: 0.8; stroke-linejoin: miter; stroke-linecap: square"/>
   </g>
   <g id="legend_1">
    <g id="patch_7">
     <path d="M 356.477813 57.726328 
L 410.130938 57.726328 
Q 412.530938 57.726328 412.530938 55.326328 
L 412.530938 21.298828 
Q 412.530938 18.898828 410.130938 18.898828 
L 356.477813 18.898828 
Q 354.077813 18.898828 354.077813 21.298828 
L 354.077813 55.326328 
Q 354.077813 57.726328 356.477813 57.726328 
z
" style="fill: #ffffff; opacity: 0.8; stroke: #cccccc; stroke-linejoin: miter"/>
    </g>
    <g id="line2d_25">
     <path d="M 358.877813 28.616953 
L 370.877813 28.616953 
L 382.877813 28.616953 
" style="fill: none; stroke: #1f77b4; stroke-width: 1.5; stroke-linecap: square"/>
    </g>
    <g id="text_14">
     <!-- g1 -->
     <g transform="translate(392.477813 32.816953) scale(0.12 -0.12)">
      <defs>
       <path id="DejaVuSans-67" d="M 2906 1791 
Q 2906 2416 2648 2759 
Q 2391 3103 1925 3103 
Q 1463 3103 1205 2759 
Q 947 2416 947 1791 
Q 947 1169 1205 825 
Q 1463 481 1925 481 
Q 2391 481 2648 825 
Q 2906 1169 2906 1791 
z
M 3481 434 
Q 3481 -459 3084 -895 
Q 2688 -1331 1869 -1331 
Q 1566 -1331 1297 -1286 
Q 1028 -1241 775 -1147 
L 775 -588 
Q 1028 -725 1275 -790 
Q 1522 -856 1778 -856 
Q 2344 -856 2625 -561 
Q 2906 -266 2906 331 
L 2906 616 
Q 2728 306 2450 153 
Q 2172 0 1784 0 
Q 1141 0 747 490 
Q 353 981 353 1791 
Q 353 2603 747 3093 
Q 1141 3584 1784 3584 
Q 2172 3584 2450 3431 
Q 2728 3278 2906 2969 
L 2906 3500 
L 3481 3500 
L 3481 434 
z
" transform="scale(0.015625)"/>
      </defs>
      <use xlink:href="#DejaVuSans-67"/>
      <use xlink:href="#DejaVuSans-31" x="63.476562"/>
     </g>
    </g>
    <g id="line2d_26">
     <path d="M 358.877813 46.230703 
L 370.877813 46.230703 
L 382.877813 46.230703 
" style="fill: none; stroke: #ff7f0e; stroke-width: 1.5; stroke-linecap: square"/>
    </g>
    <g id="text_15">
     <!-- g2 -->
     <g transform="translate(392.477813 50.430703) scale(0.12 -0.12)">
      <use xlink:href="#DejaVuSans-67"/>
      <use xlink:href="#DejaVuSans-32" x="63.476562"/>
     </g>
    </g>
   </g>
  </g>
 </g>
 <defs>
  <clipPath id="p3c3110dc2b">
   <rect x="61.410938" y="12.898828" width="357.12" height="266.112"/>
  </clipPath>
 </defs>
</svg>
