<?xml version="1.0" encoding="utf-8" standalone="no"?>
<!DOCTYPE svg PUBLIC "-//W3C//DTD SVG 1.1//EN"
  "http://www.w3.org/Graphics/SVG/1.1/DTD/svg11.dtd">
<svg xmlns:xlink="http://www.w3.org/1999/xlink" width="425.730937pt" height="331.084266pt" viewBox="0 0 425.730937 331.084266" xmlns="http://www.w3.org/2000/svg" version="1.1">
 <defs>
  <style type="text/css">*{stroke-linejoin: round; stroke-linecap: butt}</style>
 </defs>
 <g id="figure_1">
  <g id="patch_1">
   <path d="M 0 331.084266 
L 425.730937 331.084266 
L 425.730937 0 
L 0 0 
L 0 331.084266 
z
" style="fill: none"/>
  </g>
  <g id="axes_1">
   <g id="patch_2">
    <path d="M 61.410938 279.010828 
L 418.530938 279.010828 
L 418.530938 12.898828 
L 61.410938 12.898828 
L 61.410938 279.010828 
z
" style="fill: none"/>
   </g>
   <g id="matplotlib.axis_1">
    <g id="xtick_1">
     <g id="line2d_1">
      <path d="M 138.516392 279.010828 
L 138.516392 12.898828 
" clip-path="url(#p3c3110dc2b)" style="fill: none; stroke: #b0b0b0; stroke-width: 0.8; stroke-linecap: square"/>
     </g>
     <g id="line2d_2">
      <defs>
       <path id="md39032bed2" d="M 0 0 
L 0 3.5 
" style="stroke: #000000; stroke-width: 0.8"/>
      </defs>
      <g>
       <use xlink:href="#md39032bed2" x="138.516392" y="279.010828" style="stroke: #000000; stroke-width: 0.8"/>
      </g>
     </g>
     <g id="text_1">
      <!-- −0.5 -->
      <g transform="translate(120.304283 297.408484) scale(0.15 -0.15)">
       <defs>
        <path id="DejaVuSans-2212" d="M 678 2272 
L 4684 2272 
L 4684 1741 
L 678 1741 
L 678 2272 
z
" transform="scale(0.015625)"/>
        <path id="DejaVuSans-30" d="M 2034 4250 
Q 1547 4250 1301 3770 
Q 1056 3291 1056 2328 
Q 1056 1369 1301 889 
Q 1547 409 2034 409 
Q 2525 409 2770 889 
Q 3016 1369 3016 2328 
Q 3016 3291 2770 3770 
Q 2525 4250 2034 4250 
z
M 2034 4750 
Q 2819 4750 3233 4129 
Q 3647 3509 3647 2328 
Q 3647 1150 3233 529 
Q 2819 -91 2034 -91 
Q 1250 -91 836 529 
Q 422 1150 422 2328 
Q 422 3509 836 4129 
Q 1250 4750 2034 4750 
z
" transform="scale(0.015625)"/>
        <path id="DejaVuSans-2e" d="M 684 794 
L 1344 794 
L 1344 0 
L 684 0 
L 684 794 
z
" transform="scale(0.015625)"/>
        <path id="DejaVuSans-35" d="M 691 4666 
L 3169 4666 
L 3169 4134 
L 1269 4134 
L 1269 2991 
Q 1406 3038 1543 3061 
Q 1681 3084 1819 3084 
Q 2600 3084 3056 2656 
Q 3513 2228 3513 1497 
Q 3513 744 3044 326 
Q 2575 -91 1722 -91 
Q 1428 -91 1123 -41 
Q 819 9 494 109 
L 494 744 
Q 775 591 1075 516 
Q 1375 441 1709 441 
Q 2250 441 2565 725 
Q 2881 1009 2881 1497 
Q 2881 1984 2565 2268 
Q 2250 2553 1709 2553 
Q 1456 2553 1204 2497 
Q 953 2441 691 2322 
L 691 4666 
z
" transform="scale(0.015625)"/>
       </defs>
       <use xlink:href="#DejaVuSans-2212"/>
       <use xlink:href="#DejaVuSans-30" x="83.789062"/>
       <use xlink:href="#DejaVuSans-2e" x="147.412109"/>
       <use xlink:href="#DejaVuSans-35" x="179.199219"/>
      </g>
     </g>
    </g>
    <g id="xtick_2">
     <g id="line2d_3">
      <path d="M 239.970938 279.010828 
L 239.970938 12.898828 
" clip-path="url(#p3c3110dc2b)" style="fill: none; stroke: #b0b0b0; stroke-width: 0.8; stroke-linecap: square"/>
     </g>
     <g id="line2d_4">
      <g>
       <use xlink:href="#md39032bed2" x="239.970938" y="279.010828" style="stroke: #000000; stroke-width: 0.8"/>
      </g>
     </g>
     <g id="text_2">
      <!-- 0.0 -->
      <g transform="translate(228.043594 297.408484) scale(0.15 -0.15)">
       <use xlink:href="#DejaVuSans-30"/>
       <use xlink:href="#DejaVuSans-2e" x="63.623047"/>
       <use xlink:href="#DejaVuSans-30" x="95.410156"/>
      </g>
     </g>
    </g>
    <g id="xtick_3">
     <g id="line2d_5">
      <path d="M 341.425483 279.010828 
L 341.425483 12.898828 
" clip-path="url(#p3c3110dc2b)" style="fill: none; stroke: #b0b0b0; stroke-width: 0.8; stroke-linecap: square"/>
     </g>
     <g id="line2d_6">
      <g>
       <use xlink:href="#md39032bed2" x="341.425483" y="279.010828" style="stroke: #000000; stroke-width: 0.8"/>
      </g>
     </g>
     <g id="text_3">
      <!-- 0.5 -->
      <g transform="translate(329.498139 297.408484) scale(0.15 -0.15)">
       <use xlink:href="#DejaVuSans-30"/>
       <use xlink:href="#DejaVuSans-2e" x="63.623047"/>
       <use xlink:href="#DejaVuSans-35" x="95.410156"/>
      </g>
     </g>
    </g>
    <g id="text_4">
     <!-- det -->
     <g transform="translate(223.549063 319.724891) scale(0.2 -0.2)">
      <defs>
       <path id="DejaVuSans-64" d="M 2906 2969 
L 2906 4863 
L 3481 4863 
L 3481 0 
L 2906 0 
L 2906 525 
Q 2725 213 2448 61 
Q 2172 -91 1784 -91 
Q 1150 -91 751 415 
Q 353 922 353 1747 
Q 353 2572 751 3078 
Q 1150 3584 1784 3584 
Q 2172 3584 2448 3432 
Q 2725 3281 2906 2969 
z
M 947 1747 
Q 947 1113 1208 752 
Q 1469 391 1925 391 
Q 2381 391 2643 752 
Q 2906 1113 2906 1747 
Q 2906 2381 2643 2742 
Q 2381 3103 1925 3103 
Q 1469 3103 1208 2742 
Q 947 2381 947 1747 
z
" transform="scale(0.015625)"/>
       <path id="DejaVuSans-65" d="M 3597 1894 
L 3597 1613 
L 953 1613 
Q 991 1019 1311 708 
Q 1631 397 2203 397 
Q 2534 397 2845 478 
Q 3156 559 3463 722 
L 3463 178 
Q 3153 47 2828 -22 
Q 2503 -91 2169 -91 
Q 1331 -91 842 396 
Q 353 884 353 1716 
Q 353 2575 817 3079 
Q 1281 3584 2069 3584 
Q 2775 3584 3186 3129 
Q 3597 2675 3597 1894 
z
M 3022 2063 
Q 3016 2534 2758 2815 
Q 2500 3097 2075 3097 
Q 1594 3097 1305 2825 
Q 1016 2553 972 2059 
L 3022 2063 
z
" transform="scale(0.015625)"/>
       <path id="DejaVuSans-74" d="M 1172 4494 
L 1172 3500 
L 2356 3500 
L 2356 3053 
L 1172 3053 
L 1172 1153 
Q 1172 725 1289 603 
Q 1406 481 1766 481 
L 2356 481 
L 2356 0 
L 1766 0 
Q 1100 0 847 248 
Q 594 497 594 1153 
L 594 3053 
L 172 3053 
L 172 3500 
L 594 3500 
L 594 4494 
L 1172 4494 
z
" transform="scale(0.015625)"/>
      </defs>
      <use xlink:href="#DejaVuSans-64"/>
      <use xlink:href="#DejaVuSans-65" x="63.476562"/>
      <use xlink:href="#DejaVuSans-74" x="125"/>
     </g>
    </g>
   </g>
   <g id="matplotlib.axis_2">
    <g id="ytick_1">
     <g id="line2d_7">
      <path d="M 61.410938 279.010828 
L 418.530938 279.010828 
" clip-path="url(#p3c3110dc2b)" style="fill: none; stroke: #b0b0b0; stroke-width: 0.8; stroke-linecap: square"/>
     </g>
     <g id="line2d_8">
      <defs>
       <path id="m6f3f5b6aff" d="M 0 0 
L -3.5 0 
" style="stroke: #000000; stroke-width: 0.8"/>
      </defs>
      <g>
       <use xlink:href="#m6f3f5b6aff" x="61.410938" y="279.010828" style="stroke: #000000; stroke-width: 0.8"/>
      </g>
     </g>
     <g id="text_5">
      <!-- 0.0 -->
      <g transform="translate(30.55625 284.709656) scale(0.15 -0.15)">
       <use xlink:href="#DejaVuSans-30"/>
       <use xlink:href="#DejaVuSans-2e" x="63.623047"/>
       <use xlink:href="#DejaVuSans-30" x="95.410156"/>
      </g>
     </g>
    </g>
    <g id="ytick_2">
     <g id="line2d_9">
      <path d="M 61.410938 225.788428 
L 418.530938 225.788428 
" clip-path="url(#p3c3110dc2b)" style="fill: none; stroke: #b0b0b0; stroke-width: 0.8; stroke-linecap: square"/>
     </g>
     <g id="line2d_10">
      <g>
       <use xlink:href="#m6f3f5b6aff" x="61.410938" y="225.788428" style="stroke: #000000; stroke-width: 0.8"/>
      </g>
     </g>
     <g id="text_6">
      <!-- 0.2 -->
      <g transform="translate(30.55625 231.487256) scale(0.15 -0.15)">
       <defs>
        <path id="DejaVuSans-32" d="M 1228 531 
L 3431 531 
L 3431 0 
L 469 0 
L 469 531 
Q 828 903 1448 1529 
Q 2069 2156 2228 2338 
Q 2531 2678 2651 2914 
Q 2772 3150 2772 3378 
Q 2772 3750 2511 3984 
Q 2250 4219 1831 4219 
Q 1534 4219 1204 4116 
Q 875 4013 500 3803 
L 500 4441 
Q 881 4594 1212 4672 
Q 1544 4750 1819 4750 
Q 2544 4750 2975 4387 
Q 3406 4025 3406 3419 
Q 3406 3131 3298 2873 
Q 3191 2616 2906 2266 
Q 2828 2175 2409 1742 
Q 1991 1309 1228 531 
z
" transform="scale(0.015625)"/>
       </defs>
       <use xlink:href="#DejaVuSans-30"/>
       <use xlink:href="#DejaVuSans-2e" x="63.623047"/>
       <use xlink:href="#DejaVuSans-32" x="95.410156"/>
      </g>
     </g>
    </g>
    <g id="ytick_3">
     <g id="line2d_11">
      <path d="M 61.410938 172.566028 
L 418.530938 172.566028 
" clip-path="url(#p3c3110dc2b)" style="fill: none; stroke: #b0b0b0; stroke-width: 0.8; stroke-linecap: square"/>
     </g>
     <g id="line2d_12">
      <g>
       <use xlink:href="#m6f3f5b6aff" x="61.410938" y="172.566028" style="stroke: #000000; stroke-width: 0.8"/>
      </g>
     </g>
     <g id="text_7">
      <!-- 0.4 -->
      <g transform="translate(30.55625 178.264856) scale(0.15 -0.15)">
       <defs>
        <path id="DejaVuSans-34" d="M 2419 4116 
L 825 1625 
L 2419 1625 
L 2419 4116 
z
M 2253 4666 
L 3047 4666 
L 3047 1625 
L 3713 1625 
L 3713 1100 
L 3047 1100 
L 3047 0 
L 2419 0 
L 2419 1100 
L 313 1100 
L 313 1709 
L 2253 4666 
z
" transform="scale(0.015625)"/>
       </defs>
       <use xlink:href="#DejaVuSans-30"/>
       <use xlink:href="#DejaVuSans-2e" x="63.623047"/>
       <use xlink:href="#DejaVuSans-34" x="95.410156"/>
      </g>
     </g>
    </g>
    <g id="ytick_4">
     <g id="line2d_13">
      <path d="M 61.410938 119.343628 
L 418.530938 119.343628 
" clip-path="url(#p3c3110dc2b)" style="fill: none; stroke: #b0b0b0; stroke-width: 0.8; stroke-linecap: square"/>
     </g>
     <g id="line2d_14">
      <g>
       <use xlink:href="#m6f3f5b6aff" x="61.410938" y="119.343628" style="stroke: #000000; stroke-width: 0.8"/>
      </g>
     </g>
     <g id="text_8">
      <!-- 0.6 -->
      <g transform="translate(30.55625 125.042456) scale(0.15 -0.15)">
       <defs>
        <path id="DejaVuSans-36" d="M 2113 2584 
Q 1688 2584 1439 2293 
Q 1191 2003 1191 1497 
Q 1191 994 1439 701 
Q 1688 409 2113 409 
Q 2538 409 2786 701 
Q 3034 994 3034 1497 
Q 3034 2003 2786 2293 
Q 2538 2584 2113 2584 
z
M 3366 4563 
L 3366 3988 
Q 3128 4100 2886 4159 
Q 2644 4219 2406 4219 
Q 1781 4219 1451 3797 
Q 1122 3375 1075 2522 
Q 1259 2794 1537 2939 
Q 1816 3084 2150 3084 
Q 2853 3084 3261 2657 
Q 3669 2231 3669 1497 
Q 3669 778 3244 343 
Q 2819 -91 2113 -91 
Q 1303 -91 875 529 
Q 447 1150 447 2328 
Q 447 3434 972 4092 
Q 1497 4750 2381 4750 
Q 2619 4750 2861 4703 
Q 3103 4656 3366 4563 
z
" transform="scale(0.015625)"/>
       </defs>
       <use xlink:href="#DejaVuSans-30"/>
       <use xlink:href="#DejaVuSans-2e" x="63.623047"/>
       <use xlink:href="#DejaVuSans-36" x="95.410156"/>
      </g>
     </g>
    </g>
    <g id="ytick_5">
     <g id="line2d_15">
      <path d="M 61.410938 66.121228 
L 418.530938 66.121228 
" clip-path="url(#p3c3110dc2b)" style="fill: none; stroke: #b0b0b0; stroke-width: 0.8; stroke-linecap: square"/>
     </g>
     <g id="line2d_16">
      <g>
       <use xlink:href="#m6f3f5b6aff" x="61.410938" y="66.121228" style="stroke: #000000; stroke-width: 0.8"/>
      </g>
     </g>
     <g id="text_9">
      <!-- 0.8 -->
      <g transform="translate(30.55625 71.820056) scale(0.15 -0.15)">
       <defs>
        <path id="DejaVuSans-38" d="M 2034 2216 
Q 1584 2216 1326 1975 
Q 1069 1734 1069 1313 
Q 1069 891 1326 650 
Q 1584 409 2034 409 
Q 2484 409 2743 651 
Q 3003 894 3003 1313 
Q 3003 1734 2745 1975 
Q 2488 2216 2034 2216 
z
M 1403 2484 
Q 997 2584 770 2862 
Q 544 3141 544 3541 
Q 544 4100 942 4425 
Q 1341 4750 2034 4750 
Q 2731 4750 3128 4425 
Q 3525 4100 3525 3541 
Q 3525 3141 3298 2862 
Q 3072 2584 2669 2484 
Q 3125 2378 3379 2068 
Q 3634 1759 3634 1313 
Q 3634 634 3220 271 
Q 2806 -91 2034 -91 
Q 1263 -91 848 271 
Q 434 634 434 1313 
Q 434 1759 690 2068 
Q 947 2378 1403 2484 
z
M 1172 3481 
Q 1172 3119 1398 2916 
Q 1625 2713 2034 2713 
Q 2441 2713 2670 2916 
Q 2900 3119 2900 3481 
Q 2900 3844 2670 4047 
Q 2441 4250 2034 4250 
Q 1625 4250 1398 4047 
Q 1172 3844 1172 3481 
z
" transform="scale(0.015625)"/>
       </defs>
       <use xlink:href="#DejaVuSans-30"/>
       <use xlink:href="#DejaVuSans-2e" x="63.623047"/>
       <use xlink:href="#DejaVuSans-38" x="95.410156"/>
      </g>
     </g>
    </g>
    <g id="ytick_6">
     <g id="line2d_17">
      <path d="M 61.410938 12.898828 
L 418.530938 12.898828 
" clip-path="url(#p3c3110dc2b)" style="fill: none; stroke: #b0b0b0; stroke-width: 0.8; stroke-linecap: square"/>
     </g>
     <g id="line2d_18">
      <g>
       <use xlink:href="#m6f3f5b6aff" x="61.410938" y="12.898828" style="stroke: #000000; stroke-width: 0.8"/>
      </g>
     </g>
     <g id="text_10">
      <!-- 1.0 -->
      <g transform="translate(30.55625 18.597656) scale(0.15 -0.15)">
       <defs>
        <path id="DejaVuSans-31" d="M 794 531 
L 1825 531 
L 1825 4091 
L 703 3866 
L 703 4441 
L 1819 4666 
L 2450 4666 
L 2450 531 
L 3481 531 
L 3481 0 
L 794 0 
L 794 531 
z
" transform="scale(0.015625)"/>
       </defs>
       <use xlink:href="#DejaVuSans-31"/>
       <use xlink:href="#DejaVuSans-2e" x="63.623047"/>
       <use xlink:href="#DejaVuSans-30" x="95.410156"/>
      </g>
     </g>
    </g>
    <g id="text_11">
     <!-- p -->
     <g transform="translate(22.396875 152.303266) rotate(-90) scale(0.2 -0.2)">
      <defs>
       <path id="DejaVuSans-70" d="M 1159 525 
L 1159 -1331 
L 581 -1331 
L 581 3500 
L 1159 3500 
L 1159 2969 
Q 1341 3281 1617 3432 
Q 1894 3584 2278 3584 
Q 2916 3584 3314 3078 
Q 3713 2572 3713 1747 
Q 3713 922 3314 415 
Q 2916 -91 2278 -91 
Q 1894 -91 1617 61 
Q 1341 213 1159 525 
z
M 3116 1747 
Q 3116 2381 2855 2742 
Q 2594 3103 2138 3103 
Q 1681 3103 1420 2742 
Q 1159 2381 1159 1747 
Q 1159 1113 1420 752 
Q 1681 391 2138 391 
Q 2594 391 2855 752 
Q 3116 1113 3116 1747 
z
" transform="scale(0.015625)"/>
      </defs>
      <use xlink:href="#DejaVuSans-70"/>
     </g>
    </g>
   </g>
   <g id="line2d_19">
    <path d="M 77.643665 278.857845 
L 82.935534 279.009377 
L 86.96125 278.869982 
L 93.129687 278.64734 
L 96.993076 278.779272 
L 103.193978 279.009585 
L 106.862574 278.872803 
L 113.420596 278.586542 
L 116.95933 278.717856 
L 123.484887 279.009594 
L 126.828828 278.87306 
L 133.808901 278.509804 
L 137.022981 278.645282 
L 143.808261 279.009357 
L 146.827548 278.872019 
L 154.262138 278.410871 
L 157.184028 278.557369 
L 164.066705 279.009703 
L 166.793803 278.874673 
L 174.942632 278.284581 
L 177.637265 278.467168 
L 184.065425 279.010739 
L 186.467868 278.90606 
L 189.649483 278.517094 
L 193.253148 278.126585 
L 195.52573 278.111731 
L 197.960639 278.326875 
L 204.226472 279.009342 
L 206.336727 278.925206 
L 208.804101 278.589713 
L 213.673919 277.871361 
L 215.686778 277.844867 
L 217.764567 278.044587 
L 221.23837 278.655114 
L 223.705745 278.971671 
L 225.588741 278.991702 
L 227.504203 278.783001 
L 229.971578 278.267823 
L 233.445381 277.562286 
L 235.263447 277.435533 
L 236.984116 277.537913 
L 238.964508 277.890908 
L 244.256378 278.973764 
L 245.87965 278.989559 
L 247.502923 278.776459 
L 249.385919 278.291022 
L 254.190807 276.932209 
L 255.716683 276.80822 
L 257.177628 276.913473 
L 258.768436 277.25801 
L 261.105948 278.027409 
L 263.573323 278.775755 
L 265.066734 278.994766 
L 266.397818 278.967722 
L 267.728901 278.717022 
L 269.222312 278.200988 
L 271.494894 277.141518 
L 273.767476 276.16281 
L 275.16349 275.804297 
L 276.397178 275.716421 
L 277.598399 275.856625 
L 278.897018 276.242557 
L 280.52029 276.979655 
L 284.059025 278.667059 
L 285.292712 278.961996 
L 286.396538 278.995843 
L 287.435432 278.807349 
L 288.539258 278.376008 
L 289.80541 277.627625 
L 291.59101 276.280353 
L 294.025919 274.479789 
L 295.227141 273.868636 
L 296.23357 273.591422 
L 297.175068 273.557214 
L 298.116567 273.749559 
L 299.122996 274.193647 
L 300.291752 274.969696 
L 302.012421 276.419178 
L 304.09021 278.109567 
L 305.194036 278.722833 
L 306.103068 278.980626 
L 306.914705 278.984509 
L 307.693876 278.769892 
L 308.505512 278.314257 
L 309.414545 277.534444 
L 310.485905 276.296172 
L 311.914385 274.267306 
L 314.80381 270.094717 
L 315.842705 269.022088 
L 316.686807 268.456303 
L 317.401047 268.228707 
L 318.082821 268.242965 
L 318.764596 268.48864 
L 319.478836 268.988932 
L 320.290472 269.836729 
L 321.296901 271.233968 
L 322.790312 273.748949 
L 324.80317 277.076366 
L 325.744668 278.218914 
L 326.491374 278.795577 
L 327.108218 279.001545 
L 327.66013 278.952111 
L 328.212043 278.664963 
L 328.796421 278.089864 
L 329.44573 277.117458 
L 330.192436 275.570887 
L 331.069003 273.206625 
L 332.140363 269.629811 
L 333.698705 263.543271 
L 336.068683 254.332072 
L 337.107578 251.183189 
L 337.886748 249.456219 
L 338.503592 248.555513 
L 339.023039 248.150597 
L 339.44509 248.073066 
L 339.867141 248.2277 
L 340.321658 248.656956 
L 340.841105 249.479491 
L 341.457948 250.902758 
L 342.204654 253.229138 
L 343.146152 256.96685 
L 344.477236 263.280601 
L 346.684887 273.745513 
L 347.528988 276.712443 
L 348.145832 278.194493 
L 348.632814 278.854046 
L 348.989934 279.010702 
L 349.282123 278.914125 
L 349.606778 278.553402 
L 349.996363 277.746696 
L 350.450879 276.258254 
L 351.002792 273.610211 
L 351.619636 269.500122 
L 352.333876 263.159625 
L 353.145512 253.849237 
L 354.08701 240.268678 
L 355.15837 221.389685 
L 356.456988 194.29442 
L 358.242588 151.860025 
L 361.58653 71.84741 
L 362.852683 47.222424 
L 363.859112 31.740144 
L 364.670748 22.414338 
L 365.320058 17.188813 
L 365.839505 14.51338 
L 366.261556 13.350077 
L 366.553745 13.081243 
L 366.748538 13.146676 
L 366.975796 13.470259 
L 367.30045 14.392825 
L 367.722501 16.394713 
L 368.241948 20.081104 
L 368.858792 26.151576 
L 369.605498 35.816604 
L 370.51453 50.676154 
L 371.650821 73.24601 
L 373.176698 108.464168 
L 377.559534 212.391447 
L 378.825687 236.02294 
L 379.897047 252.15922 
L 380.838545 263.165712 
L 381.650181 270.236778 
L 382.364421 274.656664 
L 382.981265 277.185202 
L 383.500712 278.449166 
L 383.890298 278.914661 
L 384.214952 279.008573 
L 384.539607 278.853351 
L 384.929192 278.363571 
L 385.416174 277.332848 
L 386.033018 275.456978 
L 386.877119 272.093421 
L 388.208203 265.713851 
L 390.285992 255.850114 
L 391.292421 252.132645 
L 392.071592 250.0128 
L 392.720901 248.821656 
L 393.272814 248.241663 
L 393.72733 248.065729 
L 394.149381 248.143596 
L 394.603898 248.480124 
L 395.123345 249.170847 
L 395.740188 250.383799 
L 396.519359 252.45138 
L 397.525788 255.822421 
L 399.08413 261.950895 
L 401.356712 270.782897 
L 402.29821 273.780604 
L 402.29821 273.780604 
" clip-path="url(#p3c3110dc2b)" style="fill: none; stroke: #1f77b4; stroke-width: 1.5; stroke-linecap: square"/>
   </g>
   <g id="line2d_20">
    <path d="M 77.643665 278.749575 
L 82.545948 278.414272 
L 85.370443 278.473548 
L 89.558487 278.831014 
L 92.869963 279.009414 
L 95.53213 278.924079 
L 99.330588 278.541902 
L 102.739461 278.285613 
L 105.271767 278.325604 
L 108.38845 278.62006 
L 112.576494 278.994633 
L 114.978937 278.967675 
L 117.641105 278.703889 
L 123.062836 278.105609 
L 125.335418 278.135037 
L 127.900188 278.403627 
L 132.997265 278.994119 
L 135.139985 278.9679 
L 137.445032 278.705296 
L 143.775796 277.834682 
L 145.756188 277.889486 
L 147.996305 278.183574 
L 153.353105 278.989788 
L 155.236101 278.973655 
L 157.184028 278.725365 
L 160.008523 278.103665 
L 162.800552 277.559903 
L 164.618618 277.434726 
L 166.339287 277.538933 
L 168.319679 277.893742 
L 173.579083 278.97252 
L 175.202356 278.990451 
L 176.825628 278.779146 
L 178.708625 278.294786 
L 183.545978 276.927913 
L 185.071854 276.806993 
L 186.532799 276.915571 
L 188.123607 277.26335 
L 190.461119 278.035044 
L 192.928494 278.781011 
L 194.421905 278.99628 
L 195.752988 278.964995 
L 197.084072 278.709879 
L 198.577483 278.189607 
L 200.88253 277.111501 
L 203.090181 276.162667 
L 204.486196 275.80307 
L 205.719883 275.714419 
L 206.921105 275.854162 
L 208.219723 276.239989 
L 209.842996 276.9775 
L 213.38173 278.666673 
L 214.615418 278.961957 
L 215.686778 278.998212 
L 216.725672 278.816188 
L 217.829498 278.390951 
L 219.09565 277.647682 
L 220.848785 276.328622 
L 223.348625 274.474976 
L 224.549847 273.863965 
L 225.556276 273.58736 
L 226.497774 273.554108 
L 227.439272 273.747718 
L 228.445701 274.193376 
L 229.614458 274.971295 
L 231.335127 276.422943 
L 233.412916 278.11368 
L 234.516741 278.725708 
L 235.425774 278.981687 
L 236.23741 278.983393 
L 237.016581 278.766273 
L 237.828218 278.307726 
L 238.73725 277.524479 
L 239.80861 276.282286 
L 241.23709 274.249202 
L 244.09405 270.114596 
L 245.132945 269.033241 
L 245.977047 268.459278 
L 246.691287 268.224401 
L 247.373061 268.231728 
L 248.054836 268.47079 
L 248.769076 268.964812 
L 249.580712 269.806693 
L 250.587141 271.198945 
L 252.048087 273.655126 
L 254.125876 277.095592 
L 255.067374 278.233043 
L 255.814079 278.803612 
L 256.430923 279.003255 
L 256.982836 278.947267 
L 257.534748 278.652837 
L 258.119127 278.06939 
L 258.768436 277.087178 
L 259.515141 275.529038 
L 260.391708 273.151488 
L 261.463068 269.560161 
L 263.02141 263.459214 
L 265.391388 254.250126 
L 266.430283 251.113123 
L 267.209454 249.399371 
L 267.826298 248.511478 
L 268.345745 248.118736 
L 268.767796 248.051867 
L 269.189847 248.217705 
L 269.644363 248.659456 
L 270.16381 249.496542 
L 270.780654 250.937005 
L 271.527359 253.283212 
L 272.468858 257.042637 
L 273.832407 263.538752 
L 275.975127 273.700367 
L 276.851694 276.776356 
L 277.468538 278.235441 
L 277.955519 278.872671 
L 278.312639 279.010633 
L 278.604828 278.897327 
L 278.929483 278.516545 
L 279.319068 277.683796 
L 279.773585 276.162402 
L 280.325498 273.470944 
L 280.974807 269.054661 
L 281.689047 262.571091 
L 282.500683 253.094062 
L 283.442181 239.322104 
L 284.513541 220.239359 
L 285.812159 192.936593 
L 287.630225 149.522224 
L 290.811839 73.231927 
L 292.077992 48.314602 
L 293.084421 32.545411 
L 293.896058 22.962149 
L 294.577832 17.301333 
L 295.129745 14.405013 
L 295.551796 13.23631 
L 295.843985 12.964409 
L 296.038778 13.02811 
L 296.266036 13.349994 
L 296.59069 14.270738 
L 297.012741 16.271329 
L 297.532188 19.957783 
L 298.149032 26.030655 
L 298.895738 35.70179 
L 299.80477 50.573022 
L 300.941061 73.162772 
L 302.466938 108.413348 
L 306.849774 212.421823 
L 308.115927 236.062717 
L 309.187287 252.20041 
L 310.128785 263.203409 
L 310.940421 270.26832 
L 311.654661 274.680789 
L 312.271505 277.201742 
L 312.790952 278.458697 
L 313.180538 278.918679 
L 313.505192 279.007896 
L 313.829847 278.847934 
L 314.219432 278.352476 
L 314.706414 277.314779 
L 315.323258 275.430488 
L 316.167359 272.056632 
L 317.498443 265.665011 
L 319.576232 255.795808 
L 320.582661 252.081912 
L 321.361832 249.967359 
L 322.011141 248.782067 
L 322.563054 248.207897 
L 323.01757 248.037221 
L 323.439621 248.120257 
L 323.894138 248.462562 
L 324.413585 249.160024 
L 325.030428 250.380964 
L 325.809599 252.45823 
L 326.816028 255.840395 
L 328.37437 261.981162 
L 330.646952 270.817035 
L 331.783243 274.357063 
L 332.692276 276.524766 
L 333.471447 277.852745 
L 334.153221 278.5997 
L 334.737599 278.935782 
L 335.289512 279.0065 
L 335.841425 278.853564 
L 336.458268 278.443389 
L 337.204974 277.657534 
L 338.146472 276.320242 
L 339.737279 273.598984 
L 341.522879 270.665215 
L 342.561774 269.363803 
L 343.405876 268.638149 
L 344.152581 268.279105 
L 344.834356 268.193636 
L 345.51613 268.337549 
L 346.23037 268.721637 
L 347.042007 269.418285 
L 348.048436 270.596234 
L 349.476916 272.651388 
L 352.171548 276.565765 
L 353.307839 277.802455 
L 354.249338 278.517424 
L 355.093439 278.892112 
L 355.905076 279.010811 
L 356.716712 278.903501 
L 357.593279 278.560877 
L 358.664639 277.884943 
L 360.190516 276.623627 
L 362.65789 274.5934 
L 363.826647 273.930435 
L 364.833076 273.608241 
L 365.774574 273.538978 
L 366.716072 273.694462 
L 367.722501 274.088403 
L 368.923723 274.807892 
L 370.741788 276.19408 
L 373.046836 277.898588 
L 374.345454 278.57899 
L 375.449279 278.9157 
L 376.520639 279.009955 
L 377.624465 278.875544 
L 378.858152 278.48851 
L 380.51389 277.708769 
L 383.663039 276.189116 
L 384.994123 275.818848 
L 386.195345 275.708485 
L 387.396567 275.821024 
L 388.695185 276.169217 
L 390.350923 276.859251 
L 394.311708 278.604352 
L 395.740188 278.932062 
L 397.071272 279.007764 
L 398.434821 278.860161 
L 400.058094 278.44817 
L 402.29821 277.682629 
L 402.29821 277.682629 
" clip-path="url(#p3c3110dc2b)" style="fill: none; stroke: #ff7f0e; stroke-width: 1.5; stroke-linecap: square"/>
   </g>
   <g id="line2d_21">
    <path d="M 77.643665 278.990917 
L 80.17597 278.780176 
L 86.831388 278.091301 
L 89.10397 278.181302 
L 92.025861 278.543734 
L 95.759388 278.975729 
L 97.934574 278.987454 
L 100.142225 278.770976 
L 107.544348 277.82833 
L 109.557207 277.95457 
L 112.121977 278.361008 
L 115.855505 278.945459 
L 117.770967 279.003746 
L 119.653963 278.834249 
L 121.926545 278.390146 
L 126.114588 277.537609 
L 127.900188 277.434991 
L 129.653323 277.561708 
L 131.666181 277.942067 
L 136.503534 278.953992 
L 138.126807 279.001111 
L 139.717614 278.824446 
L 141.535679 278.386539 
L 147.054807 276.876641 
L 148.548218 276.812483 
L 150.009163 276.972096 
L 151.664901 277.383221 
L 157.216494 278.969353 
L 158.580043 278.992012 
L 159.911127 278.787077 
L 161.372072 278.324624 
L 163.319999 277.448944 
L 166.176959 276.177228 
L 167.572974 275.809925 
L 168.806661 275.71323 
L 170.007883 275.845136 
L 171.274036 276.21164 
L 172.864843 276.922916 
L 176.630836 278.706046 
L 177.832058 278.973208 
L 178.903418 278.991141 
L 179.942312 278.790566 
L 181.046138 278.346855 
L 182.31229 277.586732 
L 184.162821 276.179127 
L 186.467868 274.47905 
L 187.66909 273.86618 
L 188.675519 273.587771 
L 189.617018 273.552786 
L 190.558516 273.744767 
L 191.564945 274.188955 
L 192.733701 274.965701 
L 194.45437 276.41696 
L 196.532159 278.109453 
L 197.635985 278.723215 
L 198.545018 278.980877 
L 199.356654 278.984165 
L 200.135825 278.76854 
L 200.947461 278.311432 
L 201.856494 277.529543 
L 202.927854 276.288464 
L 204.356334 274.255849 
L 207.213294 270.118571 
L 208.252188 269.035329 
L 209.09629 268.45966 
L 209.81053 268.223311 
L 210.492305 268.229274 
L 211.174079 268.467076 
L 211.888319 268.95995 
L 212.699956 269.800807 
L 213.706385 271.192294 
L 215.16733 273.648479 
L 217.245119 277.091104 
L 218.186618 278.230152 
L 218.933323 278.802133 
L 219.550167 279.002976 
L 220.102079 278.948046 
L 220.653992 278.654623 
L 221.23837 278.072151 
L 221.887679 277.090872 
L 222.634385 275.533552 
L 223.510952 273.15656 
L 224.582312 269.565257 
L 226.140654 263.463057 
L 228.510632 254.249913 
L 229.549527 251.11083 
L 230.328698 249.39561 
L 230.945541 248.506687 
L 231.464988 248.113203 
L 231.887039 248.045834 
L 232.30909 248.211274 
L 232.763607 248.65272 
L 233.283054 249.489625 
L 233.899898 250.930108 
L 234.646603 253.276677 
L 235.588101 257.037032 
L 236.95165 263.535164 
L 239.09437 273.700064 
L 239.970938 276.776789 
L 240.587781 278.235983 
L 241.074763 278.873001 
L 241.431883 279.010617 
L 241.724072 278.896901 
L 242.048727 278.515517 
L 242.438312 277.681838 
L 242.892828 276.159057 
L 243.444741 273.465466 
L 244.09405 269.04603 
L 244.80829 262.558204 
L 245.619927 253.075397 
L 246.561425 239.295666 
L 247.632785 220.203076 
L 248.931403 192.887848 
L 250.749468 149.457647 
L 253.931083 73.155682 
L 255.197236 48.242678 
L 256.203665 32.481147 
L 257.015301 22.906751 
L 257.697076 17.255123 
L 258.248988 14.3673 
L 258.671039 13.205668 
L 258.963228 12.938924 
L 259.158021 13.00617 
L 259.385279 13.332289 
L 259.709934 14.259251 
L 260.131985 16.268172 
L 260.651432 19.965165 
L 261.268276 26.050781 
L 262.014981 35.737342 
L 262.924014 50.626747 
L 264.060305 73.237141 
L 265.586181 108.509518 
L 269.969018 212.525384 
L 271.23517 236.15275 
L 272.30653 252.2749 
L 273.248028 263.262081 
L 274.059665 270.312429 
L 274.773905 274.71186 
L 275.390748 277.221702 
L 275.910196 278.4696 
L 276.299781 278.923059 
L 276.624436 279.00706 
L 276.94909 278.842116 
L 277.338676 278.341024 
L 277.825658 277.296878 
L 278.442501 275.405472 
L 279.286603 272.023982 
L 280.617687 265.625651 
L 282.695476 255.758836 
L 283.701905 252.050927 
L 284.481076 249.942624 
L 285.130385 248.763322 
L 285.649832 248.216913 
L 286.104348 248.031443 
L 286.526399 248.101135 
L 286.980916 248.429709 
L 287.500363 249.112545 
L 288.117207 250.317947 
L 288.896378 252.378959 
L 289.902807 255.746454 
L 291.428683 261.74668 
L 293.766196 270.846179 
L 294.902487 274.38096 
L 295.811519 276.543006 
L 296.59069 277.865464 
L 297.272465 278.607329 
L 297.856843 278.939019 
L 298.408756 279.005684 
L 298.960668 278.848892 
L 299.577512 278.434751 
L 300.324218 277.64474 
L 301.298181 276.252016 
L 302.953919 273.407489 
L 304.674588 270.601101 
L 305.713483 269.316055 
L 306.557585 268.606821 
L 307.30429 268.263615 
L 307.986065 268.192936 
L 308.667839 268.351307 
L 309.382079 268.74955 
L 310.226181 269.493846 
L 311.265076 270.738114 
L 312.790952 272.965568 
L 315.225861 276.499134 
L 316.362152 277.753443 
L 317.30365 278.485579 
L 318.147752 278.87636 
L 318.959388 279.010162 
L 319.771025 278.916731 
L 320.647592 278.586881 
L 321.686487 277.945955 
L 323.147432 276.753868 
L 325.809599 274.560642 
L 326.978356 273.908563 
L 327.984785 273.597748 
L 328.926283 273.539756 
L 329.867781 273.706165 
L 330.906676 274.126933 
L 332.140363 274.884493 
L 334.120756 276.412599 
L 336.198545 277.92806 
L 337.464698 278.585252 
L 338.568523 278.91873 
L 339.639883 279.009635 
L 340.743708 278.871934 
L 341.977396 278.481852 
L 343.633134 277.699713 
L 346.749818 276.193824 
L 348.080901 275.820596 
L 349.282123 275.707355 
L 350.483345 275.817229 
L 351.781963 276.163173 
L 353.437701 276.851729 
L 357.430952 278.610004 
L 358.859432 278.93469 
L 360.190516 279.007213 
L 361.554065 278.856554 
L 363.177338 278.441888 
L 368.501672 276.886377 
L 369.962618 276.804704 
L 371.456028 276.947558 
L 373.176698 277.348469 
L 379.08541 278.942212 
L 380.676218 279.005555 
L 382.331956 278.84524 
L 384.474676 278.394415 
L 388.305599 277.562317 
L 390.091199 277.431481 
L 391.844334 277.531009 
L 393.889658 277.884923 
L 399.311388 278.949624 
L 401.161919 279.003452 
L 402.29821 278.929849 
L 402.29821 278.929849 
" clip-path="url(#p3c3110dc2b)" style="fill: none; stroke: #2ca02c; stroke-width: 1.5; stroke-linecap: square"/>
   </g>
   <g id="line2d_22">
    <path d="M 77.643665 279.008369 
L 79.753919 278.931239 
L 82.188828 278.606124 
L 87.253439 277.863597 
L 89.266298 277.848047 
L 91.376552 278.062832 
L 98.486487 279.009649 
L 100.337018 278.876615 
L 102.479737 278.488842 
L 107.446952 277.49967 
L 109.200087 277.439967 
L 110.953221 277.605231 
L 113.095941 278.045986 
L 117.121657 278.912803 
L 118.809861 279.009667 
L 120.400668 278.875126 
L 122.153803 278.491806 
L 125.075694 277.569693 
L 127.250879 276.998167 
L 128.809221 276.813841 
L 130.270167 276.864511 
L 131.796043 277.143374 
L 133.776436 277.752412 
L 137.120378 278.796685 
L 138.581323 278.9986 
L 139.912407 278.960422 
L 141.24349 278.698376 
L 142.769367 278.15811 
L 145.204276 277.011592 
L 147.282065 276.135449 
L 148.645614 275.794136 
L 149.879301 275.71355 
L 151.080523 275.861457 
L 152.379141 276.255136 
L 154.002414 276.999022 
L 157.476218 278.659883 
L 158.709905 278.959287 
L 159.81373 278.997231 
L 160.852625 278.812216 
L 161.95645 278.383743 
L 163.222603 277.637176 
L 165.008203 276.289357 
L 167.443112 274.482886 
L 168.644334 273.86758 
L 169.650763 273.586844 
L 170.592261 273.549644 
L 171.533759 273.739561 
L 172.540188 274.181908 
L 173.708945 274.957229 
L 175.429614 276.408181 
L 177.507403 278.103315 
L 178.611228 278.71959 
L 179.520261 278.979682 
L 180.331898 278.985265 
L 181.111068 278.771821 
L 181.922705 278.316826 
L 182.831738 277.53695 
L 183.903098 276.297546 
L 185.331578 274.265662 
L 188.221003 270.084987 
L 189.259898 269.010172 
L 190.103999 268.443338 
L 190.818239 268.215477 
L 191.500014 268.23006 
L 192.181788 268.476629 
L 192.896028 268.978429 
L 193.707665 269.828543 
L 194.714094 271.229261 
L 196.207505 273.749608 
L 198.220363 277.081428 
L 199.161861 278.223697 
L 199.908567 278.798719 
L 200.52541 279.002297 
L 201.077323 278.949911 
L 201.629236 278.659057 
L 202.213614 278.079257 
L 202.862923 277.10079 
L 203.609628 275.546367 
L 204.486196 273.172116 
L 205.557556 269.582897 
L 207.115898 263.480727 
L 209.485876 254.260457 
L 210.52477 251.115964 
L 211.303941 249.396093 
L 211.920785 248.503281 
L 212.440232 248.106476 
L 212.862283 248.036429 
L 213.284334 248.199253 
L 213.73885 248.637997 
L 214.258298 249.472023 
L 214.875141 250.909469 
L 215.621847 253.253069 
L 216.563345 257.011033 
L 217.926894 263.508873 
L 220.069614 273.681583 
L 220.946181 276.764251 
L 221.563025 278.228423 
L 222.050007 278.869761 
L 222.407127 279.010725 
L 222.699316 278.899841 
L 223.02397 278.521685 
L 223.413556 277.691962 
L 223.868072 276.173862 
L 224.419985 273.485965 
L 225.069294 269.073101 
L 225.783534 262.592135 
L 226.59517 253.116369 
L 227.536668 239.343392 
L 228.608028 220.256128 
L 229.906647 192.943361 
L 231.724712 149.508605 
L 234.906327 73.178785 
L 236.172479 48.250227 
L 237.178908 32.475806 
L 237.990545 22.891185 
L 238.672319 17.231361 
L 239.224232 14.337305 
L 239.646283 13.171211 
L 239.938472 12.901555 
L 240.133265 12.966945 
L 240.360523 13.290992 
L 240.685178 14.215174 
L 241.107228 16.220817 
L 241.626676 19.914325 
L 242.243519 25.996625 
L 242.990225 35.680411 
L 243.899258 50.568269 
L 245.035548 73.179437 
L 246.561425 108.456971 
L 250.944261 212.501249 
L 252.210414 236.136698 
L 253.281774 252.264617 
L 254.223272 263.255846 
L 255.034908 270.308853 
L 255.749148 274.709985 
L 256.365992 277.220837 
L 256.885439 278.469277 
L 257.275025 278.922974 
L 257.599679 279.007071 
L 257.924334 278.842138 
L 258.313919 278.340958 
L 258.800901 277.296569 
L 259.417745 275.404685 
L 260.261847 272.022338 
L 261.59293 265.622508 
L 263.670719 255.75406 
L 264.677148 252.045997 
L 265.456319 249.937915 
L 266.105628 248.759022 
L 266.625076 248.213075 
L 267.079592 248.028099 
L 267.501643 248.098313 
L 267.956159 248.427506 
L 268.475607 249.111107 
L 269.09245 250.317467 
L 269.871621 252.379708 
L 270.87805 255.748707 
L 272.436392 261.883527 
L 274.741439 270.851018 
L 275.87773 274.385239 
L 276.786763 276.546437 
L 277.565934 277.867944 
L 278.247708 278.608857 
L 278.832087 278.939677 
L 279.383999 279.005504 
L 279.935912 278.847883 
L 280.552756 278.432858 
L 281.299461 277.641884 
L 282.273425 276.248162 
L 283.929163 273.402829 
L 285.649832 270.596956 
L 286.688727 269.312843 
L 287.532828 268.604638 
L 288.279534 268.262484 
L 288.961308 268.192834 
L 289.643083 268.352254 
L 290.357323 268.751565 
L 291.201425 269.497017 
L 292.240319 270.742444 
L 293.766196 272.970862 
L 296.201105 276.503832 
L 297.337396 277.757049 
L 298.278894 278.488008 
L 299.122996 278.877612 
L 299.934632 279.010248 
L 300.746268 278.915691 
L 301.622836 278.58475 
L 302.66173 277.9428 
L 304.122676 276.749936 
L 306.784843 274.557551 
L 307.953599 273.906634 
L 308.960028 273.597057 
L 309.901527 273.540311 
L 310.843025 273.707944 
L 311.881919 274.129919 
L 313.115607 274.888556 
L 315.095999 276.417272 
L 317.173788 277.931773 
L 318.439941 278.587734 
L 319.543767 278.919911 
L 320.615127 279.009497 
L 321.718952 278.870531 
L 322.952639 278.479319 
L 324.608378 277.696381 
L 327.725061 276.191579 
L 329.056145 275.819635 
L 330.257367 275.707737 
L 331.458588 275.81894 
L 332.757207 276.166099 
L 334.412945 276.855591 
L 338.406196 278.612549 
L 339.834676 278.93584 
L 341.165759 279.006959 
L 342.529308 278.855006 
L 344.152581 278.439287 
L 349.476916 276.885568 
L 350.937861 276.805312 
L 352.431272 276.949539 
L 354.151941 277.351576 
L 360.028188 278.939759 
L 361.618996 279.006202 
L 363.274734 278.848707 
L 365.417454 278.399886 
L 369.280843 277.561164 
L 371.066443 277.431806 
L 372.819578 277.532762 
L 374.864901 277.887775 
L 380.254167 278.94784 
L 382.104698 279.004053 
L 384.08509 278.833083 
L 387.104378 278.308232 
L 389.961338 277.894813 
L 391.974196 277.830486 
L 394.051985 277.993137 
L 397.071272 278.487241 
L 400.220421 278.933975 
L 402.29821 279.008358 
L 402.29821 279.008358 
" clip-path="url(#p3c3110dc2b)" style="fill: none; stroke: #d62728; stroke-width: 1.5; stroke-linecap: square"/>
   </g>
   <g id="line2d_23">
    <path d="M 77.643665 278.928552 
L 79.591592 279.007567 
L 81.442123 278.860007 
L 83.649774 278.446624 
L 88.259868 277.518108 
L 90.045468 277.437999 
L 91.798603 277.586672 
L 93.908858 278.006904 
L 98.226763 278.928024 
L 99.882501 279.007936 
L 101.473308 278.860518 
L 103.226443 278.466231 
L 106.60285 277.403127 
L 108.550778 276.94343 
L 110.076654 276.808075 
L 111.537599 276.902361 
L 113.128407 277.237485 
L 115.368523 277.968129 
L 117.998225 278.774755 
L 119.491636 278.994561 
L 120.822719 278.96795 
L 122.153803 278.717311 
L 123.647214 278.200903 
L 125.919796 277.140347 
L 128.192378 276.160851 
L 129.588392 275.80243 
L 130.822079 275.715108 
L 132.023301 275.856234 
L 133.321919 276.243426 
L 134.945192 276.982067 
L 138.483927 278.669811 
L 139.717614 278.963248 
L 140.788974 278.997507 
L 141.827868 278.813384 
L 142.931694 278.385972 
L 144.197847 277.640618 
L 145.983447 276.294171 
L 148.418356 274.48826 
L 149.619578 273.872533 
L 150.626007 273.591106 
L 151.567505 273.553033 
L 152.509003 273.741926 
L 153.515432 274.183107 
L 154.684188 274.95713 
L 156.404858 276.406649 
L 158.482647 278.101411 
L 159.586472 278.718239 
L 160.495505 278.979174 
L 161.307141 278.985768 
L 162.086312 278.773482 
L 162.897948 278.319829 
L 163.806981 277.541529 
L 164.878341 276.303933 
L 166.306821 274.274067 
L 169.196247 270.094673 
L 170.235141 269.01915 
L 171.079243 268.451293 
L 171.793483 268.222292 
L 172.475258 268.235599 
L 173.157032 268.480757 
L 173.871272 268.981 
L 174.682908 269.82934 
L 175.689338 271.228021 
L 177.182748 273.746123 
L 179.195607 277.077356 
L 180.137105 278.220551 
L 180.88381 278.796875 
L 181.500654 279.001892 
L 182.052567 278.951047 
L 182.604479 278.661948 
L 183.188858 278.084201 
L 183.838167 277.108195 
L 184.584872 275.55674 
L 185.461439 273.185998 
L 186.532799 269.600802 
L 188.091141 263.503187 
L 190.461119 254.284831 
L 191.500014 251.138816 
L 192.279185 249.416849 
L 192.896028 248.521844 
L 193.415476 248.122866 
L 193.837527 248.050865 
L 194.259578 248.211594 
L 194.714094 248.647957 
L 195.233541 249.479152 
L 195.850385 250.913173 
L 196.59709 253.252694 
L 197.538588 257.005948 
L 198.902138 263.498677 
L 201.044858 273.670169 
L 201.921425 276.755458 
L 202.538268 278.222681 
L 203.02525 278.867138 
L 203.38237 279.010786 
L 203.674559 278.902342 
L 203.999214 278.527148 
L 204.388799 277.701316 
L 204.843316 276.188196 
L 205.395228 273.506931 
L 206.012072 269.355834 
L 206.726312 262.96344 
L 207.537948 253.589644 
L 208.479447 239.932084 
L 209.550807 220.965272 
L 210.849425 193.771334 
L 212.635025 151.233967 
L 215.946501 71.900032 
L 217.212654 47.215786 
L 218.219083 31.687954 
L 219.030719 22.328552 
L 219.680028 17.079149 
L 220.199476 14.38696 
L 220.621527 13.211768 
L 220.913716 12.935674 
L 221.108508 12.996723 
L 221.335767 13.315668 
L 221.660421 14.232513 
L 222.082472 16.228586 
L 222.601919 19.910371 
L 223.218763 25.97902 
L 223.965468 35.646986 
L 224.874501 50.517164 
L 226.010792 73.109559 
L 227.536668 108.369246 
L 231.919505 212.415567 
L 233.185658 236.064211 
L 234.257018 252.205964 
L 235.198516 263.210514 
L 236.010152 270.275307 
L 236.724392 274.686673 
L 237.341236 277.206031 
L 237.860683 278.461267 
L 238.250268 278.919783 
L 238.574923 279.007687 
L 238.899578 278.846353 
L 239.289163 278.349194 
L 239.776145 277.309344 
L 240.392988 275.422377 
L 241.23709 272.045171 
L 242.568174 265.649653 
L 244.645963 255.779394 
L 245.652392 252.067469 
L 246.431563 249.955475 
L 247.080872 248.772904 
L 247.600319 248.223848 
L 248.054836 248.036093 
L 248.476887 248.103723 
L 248.931403 248.430173 
L 249.45085 249.110744 
L 250.067694 250.313728 
L 250.846865 252.372182 
L 251.853294 255.737284 
L 253.37917 261.735909 
L 255.716683 270.837065 
L 256.852974 274.373876 
L 257.762007 276.537829 
L 258.541178 277.861987 
L 259.222952 278.605313 
L 259.80733 278.938191 
L 260.359243 279.005896 
L 260.911156 278.850042 
L 261.527999 278.436811 
L 262.274705 277.647687 
L 263.248668 276.255746 
L 264.904407 273.411613 
L 266.625076 270.604627 
L 267.66397 269.318902 
L 268.508072 268.609032 
L 269.254778 268.265246 
L 269.936552 268.194055 
L 270.618327 268.351951 
L 271.332567 268.749755 
L 272.176668 269.493626 
L 273.215563 270.737527 
L 274.741439 272.964749 
L 277.176348 276.498507 
L 278.312639 277.753019 
L 279.254138 278.485328 
L 280.098239 278.876247 
L 280.909876 279.010155 
L 281.721512 278.916801 
L 282.598079 278.587 
L 283.636974 277.946095 
L 285.097919 276.753998 
L 287.760087 274.560807 
L 288.928843 273.908821 
L 289.935272 273.59813 
L 290.87677 273.540286 
L 291.818268 273.706859 
L 292.857163 274.12781 
L 294.09085 274.885553 
L 296.071243 276.413777 
L 298.149032 277.929025 
L 299.415185 278.585916 
L 300.51901 278.919056 
L 301.59037 279.009597 
L 302.694196 278.871527 
L 303.927883 278.481095 
L 305.583621 277.698682 
L 308.700305 276.193113 
L 310.031388 275.820328 
L 311.23261 275.707575 
L 312.433832 275.817954 
L 313.73245 276.164383 
L 315.388188 276.85334 
L 319.381439 278.611125 
L 320.809919 278.935209 
L 322.141003 279.007097 
L 323.504552 278.855828 
L 325.127825 278.440631 
L 330.452159 276.885867 
L 331.913105 276.804901 
L 333.406516 276.948473 
L 335.127185 277.35001 
L 341.035898 278.942842 
L 342.626705 279.005376 
L 344.282443 278.844294 
L 346.425163 278.392897 
L 350.256087 277.561453 
L 352.041687 277.431467 
L 353.794821 277.531862 
L 355.840145 277.8865 
L 361.22941 278.947409 
L 363.079941 279.004185 
L 365.060334 278.833657 
L 368.079621 278.308863 
L 370.936581 277.894856 
L 372.949439 277.829984 
L 375.027228 277.992207 
L 378.046516 278.486234 
L 381.195665 278.933547 
L 383.338385 279.007328 
L 385.578501 278.854833 
L 393.402676 278.093543 
L 395.772654 278.257974 
L 402.29821 278.991499 
L 402.29821 278.991499 
" clip-path="url(#p3c3110dc2b)" style="fill: none; stroke: #9467bd; stroke-width: 1.5; stroke-linecap: square"/>
   </g>
   <g id="line2d_24">
    <path d="M 77.643665 277.669736 
L 81.344727 278.820817 
L 82.805672 279.004113 
L 84.136756 278.946534 
L 85.467839 278.666003 
L 86.993716 278.109738 
L 89.81821 276.774934 
L 91.636276 276.058694 
L 92.967359 275.76577 
L 94.168581 275.723511 
L 95.369803 275.904325 
L 96.700887 276.341063 
L 98.454021 277.177886 
L 101.375912 278.586522 
L 102.642065 278.931984 
L 103.74589 279.00712 
L 104.784785 278.859109 
L 105.856145 278.482687 
L 107.057367 277.819236 
L 108.648174 276.663097 
L 111.732392 274.377077 
L 112.901148 273.815279 
L 113.907578 273.569889 
L 114.849076 273.568322 
L 115.790574 273.793399 
L 116.797003 274.269408 
L 117.998225 275.09962 
L 119.978618 276.797905 
L 121.699287 278.159967 
L 122.770647 278.740806 
L 123.679679 278.986611 
L 124.491316 278.978002 
L 125.270487 278.750428 
L 126.082123 278.281028 
L 126.991156 277.486485 
L 128.062516 276.23337 
L 129.523461 274.142717 
L 132.283025 270.147901 
L 133.321919 269.057599 
L 134.166021 268.474633 
L 134.880261 268.231343 
L 135.562036 268.230316 
L 136.24381 268.461064 
L 136.95805 268.94681 
L 137.769687 269.780332 
L 138.776116 271.16457 
L 140.237061 273.615432 
L 142.31485 277.06391 
L 143.256348 278.211037 
L 144.003054 278.791587 
L 144.619898 279.000736 
L 145.17181 278.953997 
L 145.723723 278.669302 
L 146.308101 278.096439 
L 146.95741 277.125979 
L 147.704116 275.580829 
L 148.580683 273.217018 
L 149.652043 269.638967 
L 151.210385 263.547671 
L 153.580363 254.326442 
L 154.619258 251.174057 
L 155.398428 249.445478 
L 156.015272 248.544299 
L 156.534719 248.139604 
L 156.95677 248.062692 
L 157.378821 248.218342 
L 157.833338 248.649131 
L 158.352785 249.473945 
L 158.969628 250.90057 
L 159.716334 253.231761 
L 160.657832 256.976164 
L 161.988916 263.298798 
L 164.196567 273.768588 
L 165.040668 276.731273 
L 165.657512 278.207315 
L 166.144494 278.860199 
L 166.501614 279.010819 
L 166.793803 278.908559 
L 167.118458 278.540721 
L 167.508043 277.724351 
L 167.962559 276.223076 
L 168.514472 273.557225 
L 169.131316 269.424453 
L 169.845556 263.05431 
L 170.657192 253.706464 
L 171.59869 240.078755 
L 172.67005 221.143801 
L 173.968668 193.982505 
L 175.754268 151.473321 
L 179.065745 72.121909 
L 180.331898 47.405501 
L 181.338327 31.843318 
L 182.149963 22.451525 
L 182.831738 16.964327 
L 183.351185 14.333517 
L 183.773236 13.208798 
L 184.065425 12.967732 
L 184.260218 13.052095 
L 184.519941 13.469305 
L 184.844596 14.478604 
L 185.266647 16.593141 
L 185.786094 20.416767 
L 186.435403 27.0229 
L 187.214574 37.462073 
L 188.156072 53.347865 
L 189.324828 77.165901 
L 190.948101 115.303316 
L 194.779025 206.822692 
L 196.110108 232.563597 
L 197.213934 249.866642 
L 198.155432 261.421606 
L 198.999534 269.21385 
L 199.713774 273.949721 
L 200.330618 276.733433 
L 200.850065 278.196279 
L 201.272116 278.832111 
L 201.629236 279.010108 
L 201.95389 278.90549 
L 202.31101 278.519288 
L 202.765527 277.655187 
L 203.349905 276.011589 
L 204.129076 273.077512 
L 205.265367 267.816078 
L 207.959999 255.046936 
L 208.933963 251.622727 
L 209.680668 249.722387 
L 210.297512 248.682281 
L 210.816959 248.193596 
L 211.271476 248.058238 
L 211.693527 248.173359 
L 212.148043 248.548925 
L 212.66749 249.282119 
L 213.316799 250.61854 
L 214.128436 252.859157 
L 215.16733 256.441464 
L 216.920465 263.436217 
L 218.868392 270.922648 
L 220.004683 274.439676 
L 220.913716 276.585677 
L 221.692887 277.894001 
L 222.374661 278.623783 
L 222.959039 278.945667 
L 223.510952 279.003773 
L 224.062865 278.839284 
L 224.679708 278.417749 
L 225.426414 277.620716 
L 226.400378 276.222287 
L 228.088581 273.320186 
L 229.776785 270.580864 
L 230.815679 269.305595 
L 231.659781 268.60543 
L 232.374021 268.279342 
L 233.055796 268.205071 
L 233.73757 268.359758 
L 234.45181 268.754204 
L 235.295912 269.494307 
L 236.334807 270.73416 
L 237.860683 272.957214 
L 240.295592 276.489718 
L 241.431883 277.745822 
L 242.373381 278.480262 
L 243.217483 278.873538 
L 244.029119 279.009943 
L 244.840756 278.919156 
L 245.717323 278.592028 
L 246.756218 277.953926 
L 248.217163 276.764675 
L 250.87933 274.572366 
L 252.048087 273.919044 
L 253.054516 273.606558 
L 253.996014 273.546667 
L 254.937512 273.711016 
L 255.976407 274.129521 
L 257.210094 274.884672 
L 259.158021 276.384313 
L 261.268276 277.925025 
L 262.534428 278.582908 
L 263.638254 278.917497 
L 264.709614 279.009781 
L 265.813439 278.873644 
L 267.047127 278.485271 
L 268.702865 277.704997 
L 271.852014 276.188393 
L 273.183098 275.820494 
L 274.384319 275.712387 
L 275.585541 275.826981 
L 276.916625 276.18817 
L 278.604828 276.898406 
L 282.435752 278.588792 
L 283.864232 278.9248 
L 285.195316 279.009002 
L 286.558865 278.869384 
L 288.149672 278.474186 
L 293.73373 276.870393 
L 295.194676 276.812956 
L 296.688087 276.978677 
L 298.441221 277.407302 
L 303.862952 278.90623 
L 305.453759 279.010704 
L 307.077032 278.893298 
L 309.057425 278.513092 
L 313.764916 277.517242 
L 315.51805 277.43648 
L 317.30365 277.58416 
L 319.511301 278.010152 
L 323.861672 278.89543 
L 325.744668 279.010826 
L 327.66013 278.899432 
L 330.127505 278.511345 
L 333.990894 277.90347 
L 336.036218 277.831426 
L 338.114007 277.989286 
L 341.100828 278.474517 
L 344.314908 278.933089 
L 346.457628 279.007465 
L 348.697745 278.855942 
L 356.554385 278.096134 
L 358.956828 278.266015 
L 366.651141 279.009732 
L 369.150981 278.876579 
L 376.910225 278.27892 
L 379.604858 278.442539 
L 386.747258 279.010825 
L 389.506821 278.898972 
L 397.428392 278.41514 
L 400.480145 278.589711 
L 402.29821 278.753244 
L 402.29821 278.753244 
" clip-path="url(#p3c3110dc2b)" style="fill: none; stroke: #8c564b; stroke-width: 1.5; stroke-linecap: square"/>
   </g>
   <g id="line2d_25">
    <path d="M 77.643665 274.069591 
L 78.650094 270.910447 
L 79.981178 265.920853 
L 83.292654 253.179426 
L 84.234152 250.5655 
L 84.980858 249.101414 
L 85.565236 248.394562 
L 86.052218 248.125628 
L 86.474268 248.13871 
L 86.896319 248.385534 
L 87.383301 248.962451 
L 87.935214 249.989649 
L 88.616988 251.782479 
L 89.428625 254.599951 
L 90.467519 259.074591 
L 94.265978 276.351956 
L 94.915287 278.026855 
L 95.402268 278.772759 
L 95.791854 279.005883 
L 96.084043 278.947945 
L 96.408698 278.632629 
L 96.798283 277.883561 
L 97.252799 276.466188 
L 97.804712 273.909003 
L 98.421556 269.904752 
L 99.135796 263.689769 
L 99.947432 254.521627 
L 100.856465 241.610318 
L 101.927825 222.99731 
L 103.193978 196.876608 
L 104.914647 156.306139 
L 108.550778 69.432016 
L 109.784465 45.806236 
L 110.758428 31.071681 
L 111.570065 21.925744 
L 112.219374 16.856686 
L 112.738821 14.312446 
L 113.128407 13.307073 
L 113.420596 13.065981 
L 113.615388 13.150173 
L 113.875112 13.566965 
L 114.199767 14.575438 
L 114.621817 16.688405 
L 115.141265 20.50935 
L 115.790574 27.111033 
L 116.569745 37.5434 
L 117.511243 53.419158 
L 118.679999 77.222718 
L 120.303272 115.338308 
L 124.134196 206.814701 
L 125.465279 232.547872 
L 126.569105 249.848162 
L 127.510603 261.403395 
L 128.354705 269.1978 
L 129.068945 273.936771 
L 129.685788 276.723972 
L 130.205236 278.19025 
L 130.627287 278.829149 
L 130.984407 279.009901 
L 131.309061 278.90789 
L 131.666181 278.524645 
L 132.120698 277.664396 
L 132.705076 276.025816 
L 133.484247 273.098351 
L 134.620538 267.84589 
L 137.347636 254.962047 
L 138.289134 251.669183 
L 139.035839 249.769215 
L 139.652683 248.728629 
L 140.17213 248.239014 
L 140.626647 248.102474 
L 141.048698 248.216213 
L 141.503214 248.590012 
L 142.022661 249.320873 
L 142.67197 250.653988 
L 143.483607 252.890018 
L 144.522501 256.466059 
L 146.275636 263.450449 
L 148.223563 270.927697 
L 149.359854 274.441202 
L 150.268887 276.585504 
L 151.048058 277.893165 
L 151.729832 278.622936 
L 152.31421 278.945201 
L 152.866123 279.00396 
L 153.418036 278.840373 
L 154.034879 278.420089 
L 154.781585 277.624827 
L 155.755548 276.228952 
L 157.443752 273.331232 
L 159.131956 270.595259 
L 160.17085 269.32118 
L 161.014952 268.621407 
L 161.761658 268.286424 
L 162.443432 268.222763 
L 163.125207 268.387391 
L 163.871912 268.814736 
L 164.716014 269.574209 
L 165.754908 270.830982 
L 167.31325 273.112805 
L 169.650763 276.491556 
L 170.787054 277.746318 
L 171.728552 278.480157 
L 172.572654 278.873295 
L 173.38429 279.00991 
L 174.195927 278.919627 
L 175.072494 278.593319 
L 176.111388 277.956447 
L 177.572334 276.769127 
L 180.266967 274.557938 
L 181.435723 273.913111 
L 182.442152 273.608794 
L 183.38365 273.556513 
L 184.325148 273.727805 
L 185.364043 274.152559 
L 186.59773 274.912494 
L 188.610588 276.464456 
L 190.655912 277.945834 
L 191.922065 278.596193 
L 193.02589 278.923565 
L 194.09725 279.00906 
L 195.201076 278.866872 
L 196.434763 278.473596 
L 198.090501 277.690678 
L 201.174719 276.204837 
L 202.538268 275.825398 
L 203.73949 275.717214 
L 204.940712 275.831413 
L 206.271796 276.191863 
L 207.959999 276.900904 
L 211.790923 278.589009 
L 213.219403 278.924737 
L 214.550487 279.009032 
L 215.914036 278.86982 
L 217.504843 278.475367 
L 223.088901 276.873699 
L 224.549847 276.816154 
L 226.043258 276.981446 
L 227.796392 277.40929 
L 233.250588 278.910551 
L 234.841396 279.010517 
L 236.464668 278.889233 
L 238.477527 278.498859 
L 243.055156 277.52687 
L 244.80829 277.437712 
L 246.561425 277.572629 
L 248.704145 277.97442 
L 253.346705 278.910541 
L 255.229701 279.010355 
L 257.145163 278.884849 
L 259.709934 278.470046 
L 263.313599 277.908216 
L 265.358923 277.832486 
L 267.436712 277.986634 
L 270.358603 278.457784 
L 273.637614 278.930255 
L 275.780334 279.008057 
L 278.02045 278.859894 
L 285.974487 278.099109 
L 288.37693 278.27421 
L 295.87645 279.010611 
L 298.37629 278.888483 
L 306.492654 278.285262 
L 309.252218 278.471629 
L 315.745308 279.008935 
L 318.472407 278.926761 
L 327.432872 278.435311 
L 330.809279 278.676411 
L 335.581701 279.001934 
L 338.536058 278.954411 
L 348.470487 278.559032 
L 353.632494 278.911283 
L 357.073832 279.009408 
L 360.547636 278.871326 
L 366.813468 278.585958 
L 370.319738 278.704511 
L 377.397207 279.009506 
L 381.22813 278.871185 
L 387.234239 278.646892 
L 391.097628 278.772073 
L 397.65565 279.009951 
L 401.811228 278.876599 
L 402.29821 278.852573 
L 402.29821 278.852573 
" clip-path="url(#p3c3110dc2b)" style="fill: none; stroke: #e377c2; stroke-width: 1.5; stroke-linecap: square"/>
   </g>
   <g id="line2d_26">
    <path d="M 77.643665 278.848249 
L 83.130327 279.009284 
L 87.156043 278.868778 
L 93.292014 278.646337 
L 97.155403 278.778097 
L 103.356305 279.009627 
L 107.024901 278.872719 
L 113.582923 278.585491 
L 117.089192 278.715269 
L 123.647214 279.009544 
L 126.991156 278.872155 
L 133.938763 278.508467 
L 137.152843 278.643192 
L 143.938123 279.009468 
L 146.95741 278.872561 
L 154.424465 278.409834 
L 157.346356 278.558613 
L 164.164101 279.009962 
L 166.858734 278.879784 
L 175.137425 278.284992 
L 177.864523 278.476831 
L 184.065425 279.010161 
L 186.467868 278.91572 
L 189.552087 278.545512 
L 193.350545 278.125507 
L 195.623127 278.109314 
L 198.058036 278.324055 
L 204.356334 279.009631 
L 206.466588 278.922596 
L 208.933963 278.584036 
L 213.771316 277.869149 
L 215.784174 277.842549 
L 217.861963 278.042888 
L 221.335767 278.655064 
L 223.803141 278.971963 
L 225.686138 278.991337 
L 227.569134 278.786589 
L 230.036508 278.271859 
L 233.510312 277.562274 
L 235.328378 277.432627 
L 237.049047 277.532865 
L 238.996974 277.8776 
L 244.418705 278.979984 
L 246.041978 278.984005 
L 247.66525 278.758834 
L 249.580712 278.252959 
L 254.158341 276.945256 
L 255.684218 276.805188 
L 257.145163 276.895091 
L 258.73597 277.226644 
L 260.943621 277.944603 
L 263.605788 278.767644 
L 265.099199 278.992579 
L 266.430283 278.970989 
L 267.761367 278.72494 
L 269.254778 278.212192 
L 271.494894 277.16824 
L 273.799941 276.167395 
L 275.195956 275.803211 
L 276.429643 275.710185 
L 277.630865 275.845996 
L 278.897018 276.216376 
L 280.487825 276.931215 
L 284.188887 278.691614 
L 285.390108 278.967764 
L 286.461468 278.994812 
L 287.500363 278.803146 
L 288.604188 278.367961 
L 289.870341 277.61514 
L 291.688407 276.237044 
L 294.058385 274.48151 
L 295.259607 273.865746 
L 296.266036 273.584688 
L 297.207534 273.547271 
L 298.149032 273.737069 
L 299.155461 274.179412 
L 300.324218 274.954889 
L 302.044887 276.40635 
L 304.122676 278.102361 
L 305.226501 278.71911 
L 306.135534 278.979545 
L 306.94717 278.985371 
L 307.726341 278.772088 
L 308.537978 278.317172 
L 309.44701 277.537266 
L 310.51837 276.297663 
L 311.94685 274.265258 
L 314.836276 270.082971 
L 315.87517 269.007557 
L 316.719272 268.440291 
L 317.433512 268.212125 
L 318.115287 268.226486 
L 318.797061 268.472907 
L 319.511301 268.974643 
L 320.322938 269.8248 
L 321.329367 271.225745 
L 322.822778 273.746745 
L 324.835636 277.079847 
L 325.777134 278.222764 
L 326.523839 278.798272 
L 327.140683 279.002215 
L 327.692596 278.950113 
L 328.244508 278.659493 
L 328.828887 278.079879 
L 329.478196 277.101533 
L 330.224901 275.547127 
L 331.101468 273.172717 
L 332.172828 269.583042 
L 333.73117 263.479739 
L 336.101148 254.257039 
L 337.140043 251.111411 
L 337.919214 249.390739 
L 338.536058 248.497352 
L 339.055505 248.100115 
L 339.477556 248.029762 
L 339.899607 248.192324 
L 340.354123 248.630841 
L 340.87357 249.464682 
L 341.490414 250.902019 
L 342.237119 253.245656 
L 343.178618 257.003939 
L 344.542167 263.50276 
L 346.684887 273.678043 
L 347.561454 276.762004 
L 348.178298 278.227126 
L 348.665279 278.869221 
L 349.022399 279.010739 
L 349.314588 278.900304 
L 349.639243 278.522639 
L 350.028828 277.693491 
L 350.483345 276.176036 
L 351.035258 273.488876 
L 351.684567 269.076799 
L 352.398807 262.59658 
L 353.210443 253.121491 
L 354.151941 239.349051 
L 355.223301 220.26206 
L 356.521919 192.949161 
L 358.339985 149.51351 
L 361.521599 73.181133 
L 362.787752 48.25161 
L 363.794181 32.476567 
L 364.605818 22.891569 
L 365.287592 17.231525 
L 365.839505 14.337357 
L 366.261556 13.17122 
L 366.553745 12.901553 
L 366.748538 12.966946 
L 366.975796 13.291005 
L 367.30045 14.21522 
L 367.722501 16.220933 
L 368.241948 19.914564 
L 368.858792 25.997062 
L 369.605498 35.681142 
L 370.51453 50.569415 
L 371.650821 73.181133 
L 373.176698 108.459336 
L 377.559534 212.504022 
L 378.825687 236.139089 
L 379.897047 252.266558 
L 380.838545 263.257335 
L 381.650181 270.309937 
L 382.364421 274.710723 
L 382.981265 277.221293 
L 383.500712 278.469517 
L 383.890298 278.923067 
L 384.214952 279.007052 
L 384.539607 278.84202 
L 384.929192 278.340737 
L 385.416174 277.296246 
L 386.033018 275.404278 
L 386.877119 272.021899 
L 388.208203 265.622212 
L 390.285992 255.754374 
L 391.292421 252.046709 
L 392.071592 249.938951 
L 392.720901 248.760321 
L 393.240348 248.214575 
L 393.694865 248.029762 
L 394.116916 248.100115 
L 394.571432 248.429442 
L 395.090879 249.113173 
L 395.707723 250.31965 
L 396.486894 252.381978 
L 397.493323 255.750982 
L 399.051665 261.885587 
L 401.356712 270.852387 
L 402.29821 273.841738 
L 402.29821 273.841738 
" clip-path="url(#p3c3110dc2b)" style="fill: none; stroke-dasharray: 1.5,2.475; stroke-dashoffset: 0; stroke: #2ca02c; stroke-width: 1.5"/>
   </g>
   <g id="line2d_27">
    <path d="M 77.643665 278.754287 
L 82.643345 278.412334 
L 85.435374 278.473023 
L 89.623418 278.831561 
L 92.934894 279.009515 
L 95.597061 278.923069 
L 99.395519 278.539633 
L 102.771927 278.284799 
L 105.304232 278.323291 
L 108.38845 278.613586 
L 112.641425 278.99517 
L 115.043868 278.966616 
L 117.738501 278.696777 
L 123.062836 278.105767 
L 125.335418 278.1308 
L 127.900188 278.396497 
L 133.094661 278.996189 
L 135.237381 278.964201 
L 137.542428 278.696193 
L 143.74333 277.835002 
L 145.723723 277.881947 
L 147.963839 278.170099 
L 153.482967 278.99421 
L 155.333498 278.969315 
L 157.281425 278.713991 
L 160.17085 278.072769 
L 162.897948 277.549846 
L 164.716014 277.432428 
L 166.436683 277.544667 
L 168.417076 277.906561 
L 173.546618 278.967088 
L 175.16989 278.994134 
L 176.760698 278.797522 
L 178.611228 278.332886 
L 183.74077 276.901163 
L 185.234181 276.804885 
L 186.695127 276.933537 
L 188.318399 277.308673 
L 190.948101 278.193047 
L 193.090821 278.809708 
L 194.551767 279.001774 
L 195.88285 278.953074 
L 197.213934 278.680772 
L 198.73981 278.131311 
L 201.337047 276.903386 
L 203.284974 276.10274 
L 204.648523 275.778096 
L 205.849745 275.714001 
L 207.050967 275.873456 
L 208.349585 276.277906 
L 210.005323 277.046789 
L 213.316799 278.636577 
L 214.550487 278.94947 
L 215.654312 279.00174 
L 216.693207 278.83074 
L 217.797032 278.41613 
L 219.030719 277.703783 
L 220.718923 276.445508 
L 223.413556 274.44263 
L 224.614778 273.841208 
L 225.621207 273.575119 
L 226.562705 273.552921 
L 227.504203 273.757861 
L 228.510632 274.214842 
L 229.679388 275.003365 
L 231.464988 276.519852 
L 233.445381 278.123309 
L 234.549207 278.731973 
L 235.458239 278.983852 
L 236.269876 278.981067 
L 237.049047 278.759111 
L 237.860683 278.295243 
L 238.769716 277.506075 
L 239.841076 276.257572 
L 241.302021 274.169154 
L 244.09405 270.124121 
L 245.132945 269.036652 
L 245.977047 268.457141 
L 246.691287 268.21744 
L 247.373061 268.220267 
L 248.054836 268.45513 
L 248.769076 268.945278 
L 249.580712 269.783649 
L 250.587141 271.173207 
L 252.048087 273.629298 
L 254.125876 277.077614 
L 255.067374 278.221207 
L 255.814079 278.797418 
L 256.430923 279.002036 
L 256.982836 278.950595 
L 257.534748 278.660676 
L 258.119127 278.081827 
L 258.768436 277.104337 
L 259.515141 275.550882 
L 260.391708 273.177485 
L 261.463068 269.588792 
L 263.02141 263.486186 
L 265.391388 254.262426 
L 266.430283 251.115506 
L 267.209454 249.393582 
L 267.826298 248.499066 
L 268.345745 248.100809 
L 268.767796 248.029594 
L 269.189847 248.191278 
L 269.644363 248.628846 
L 270.16381 249.461619 
L 270.780654 250.897744 
L 271.527359 253.240059 
L 272.468858 256.997013 
L 273.832407 263.494858 
L 275.975127 273.671635 
L 276.851694 276.757424 
L 277.468538 278.224262 
L 277.955519 278.867952 
L 278.312639 279.010769 
L 278.604828 278.901472 
L 278.929483 278.525149 
L 279.319068 277.697709 
L 279.773585 276.182369 
L 280.325498 273.497927 
L 280.942341 269.342693 
L 281.656581 262.944813 
L 282.468218 253.564033 
L 283.409716 239.897665 
L 284.481076 220.920429 
L 285.779694 193.714263 
L 287.565294 151.163084 
L 290.844305 72.517119 
L 292.110458 47.709238 
L 293.116887 32.058021 
L 293.928523 22.58667 
L 294.610298 17.02909 
L 295.129745 14.343432 
L 295.551796 13.173874 
L 295.843985 12.901824 
L 296.038778 12.965628 
L 296.266036 13.287835 
L 296.59069 14.20942 
L 297.012741 16.211755 
L 297.532188 19.901333 
L 298.149032 25.979225 
L 298.895738 35.658138 
L 299.80477 50.540888 
L 300.941061 73.147146 
L 302.466938 108.420937 
L 306.849774 212.47178 
L 308.115927 236.112593 
L 309.187287 252.2456 
L 310.128785 263.241446 
L 310.940421 270.29837 
L 311.654661 274.7028 
L 312.271505 277.216326 
L 312.790952 278.466862 
L 313.180538 278.922022 
L 313.505192 279.007261 
L 313.829847 278.843396 
L 314.219432 278.343395 
L 314.706414 277.300318 
L 315.323258 275.409825 
L 316.167359 272.028885 
L 317.498443 265.630136 
L 319.576232 255.760938 
L 320.582661 252.051701 
L 321.361832 249.942473 
L 322.011141 248.762522 
L 322.530588 248.215693 
L 322.985105 248.029933 
L 323.407156 248.099425 
L 323.861672 248.427855 
L 324.381119 249.11062 
L 324.997963 250.316053 
L 325.777134 252.377263 
L 326.783563 255.745211 
L 328.309439 261.746325 
L 330.646952 270.846925 
L 331.783243 274.381894 
L 332.692276 276.543888 
L 333.471447 277.866168 
L 334.153221 278.607792 
L 334.737599 278.939227 
L 335.289512 279.005626 
L 335.841425 278.848553 
L 336.458268 278.434101 
L 337.204974 277.643743 
L 338.178938 276.250669 
L 339.834676 273.40596 
L 341.555345 270.600078 
L 342.594239 269.31567 
L 343.438341 268.607099 
L 344.185047 268.264551 
L 344.866821 268.194504 
L 345.548596 268.353506 
L 346.262836 268.752377 
L 347.106938 269.49733 
L 348.145832 270.742209 
L 349.671708 272.970041 
L 352.106618 276.502759 
L 353.242908 277.756146 
L 354.184407 278.48736 
L 355.028508 278.877261 
L 355.840145 279.010223 
L 356.651781 278.916014 
L 357.528348 278.585447 
L 358.567243 277.943911 
L 360.028188 276.751513 
L 362.690356 274.55945 
L 363.859112 273.908439 
L 364.865541 273.598679 
L 365.807039 273.541697 
L 366.748538 273.709049 
L 367.787432 274.130689 
L 369.021119 274.888937 
L 371.001512 276.417155 
L 373.079301 277.931431 
L 374.345454 278.587429 
L 375.449279 278.919737 
L 376.520639 279.009522 
L 377.624465 278.870809 
L 378.858152 278.479906 
L 380.51389 277.697356 
L 383.630574 276.192939 
L 384.961658 275.820966 
L 386.162879 275.708947 
L 387.364101 275.819955 
L 388.662719 276.166851 
L 390.318458 276.855988 
L 394.311708 278.612434 
L 395.740188 278.935749 
L 397.071272 279.006988 
L 398.434821 278.855233 
L 400.058094 278.4398 
L 402.29821 277.673432 
L 402.29821 277.673432 
" clip-path="url(#p3c3110dc2b)" style="fill: none; stroke-dasharray: 1.5,2.475; stroke-dashoffset: 0; stroke: #d62728; stroke-width: 1.5"/>
   </g>
   <g id="line2d_28">
    <path d="M 77.643665 278.991682 
L 80.17597 278.782181 
L 86.863854 278.089596 
L 89.136436 278.181027 
L 92.058327 278.544927 
L 95.791854 278.976468 
L 97.967039 278.986724 
L 100.17469 278.768529 
L 107.544348 277.826372 
L 109.557207 277.951021 
L 112.089512 278.350882 
L 115.88797 278.946783 
L 117.803432 279.003226 
L 119.686428 278.831548 
L 121.991476 278.377852 
L 126.082123 277.541307 
L 127.867723 277.432532 
L 129.588392 277.549269 
L 131.60125 277.922258 
L 136.60093 278.961711 
L 138.224203 278.997309 
L 139.81501 278.808999 
L 141.633076 278.360939 
L 146.95741 276.887664 
L 148.450821 276.806671 
L 149.911767 276.950322 
L 151.567505 277.34812 
L 154.749119 278.419536 
L 156.567185 278.878638 
L 157.995665 279.010658 
L 159.326748 278.906242 
L 160.690298 278.571248 
L 162.31357 277.929587 
L 166.923665 275.949483 
L 168.222283 275.727533 
L 169.423505 275.748645 
L 170.657192 276.000181 
L 172.053207 276.525998 
L 174.195927 277.612568 
L 176.273716 278.579824 
L 177.539868 278.928978 
L 178.643694 279.007739 
L 179.682588 278.863109 
L 180.753948 278.489765 
L 181.95517 277.828829 
L 183.545978 276.673851 
L 186.662661 274.36281 
L 187.831418 273.803906 
L 188.837847 273.561934 
L 189.779345 273.564071 
L 190.720843 273.79304 
L 191.727272 274.273048 
L 192.928494 275.10726 
L 194.941352 276.837155 
L 196.629556 278.169124 
L 197.700916 278.746658 
L 198.609948 278.988485 
L 199.421585 278.975611 
L 200.200756 278.743517 
L 201.012392 278.269212 
L 201.921425 277.469278 
L 202.992785 276.21048 
L 204.45373 274.114311 
L 207.180828 270.159259 
L 208.219723 269.06167 
L 209.063825 268.471838 
L 209.778065 268.22239 
L 210.459839 268.215451 
L 211.141614 268.440507 
L 211.855854 268.920803 
L 212.66749 269.749122 
L 213.641454 271.07936 
L 215.037468 273.406753 
L 217.277585 277.12843 
L 218.219083 278.256472 
L 218.933323 278.799368 
L 219.550167 279.002442 
L 220.102079 278.949489 
L 220.653992 278.65797 
L 221.23837 278.077371 
L 221.887679 277.097925 
L 222.634385 275.542295 
L 223.510952 273.166584 
L 224.582312 269.575648 
L 226.140654 263.47145 
L 228.510632 254.250116 
L 229.549527 251.106151 
L 230.328698 249.387088 
L 230.945541 248.495152 
L 231.464988 248.099228 
L 231.887039 248.029983 
L 232.30909 248.193674 
L 232.763607 248.633411 
L 233.283054 249.468625 
L 233.899898 250.907519 
L 234.646603 253.252856 
L 235.588101 257.012847 
L 236.95165 263.51292 
L 239.09437 273.686278 
L 239.970938 276.767886 
L 240.587781 278.230801 
L 241.074763 278.870844 
L 241.431883 279.010692 
L 241.724072 278.898792 
L 242.048727 278.519402 
L 242.438312 277.688057 
L 242.892828 276.167882 
L 243.444741 273.477226 
L 244.09405 269.060828 
L 244.80829 262.575699 
L 245.619927 253.094991 
L 246.561425 239.316235 
L 247.632785 220.222717 
L 248.931403 192.903486 
L 250.749468 149.463149 
L 253.931083 73.137437 
L 255.197236 48.215874 
L 256.203665 32.448945 
L 257.015301 22.8714 
L 257.697076 17.21808 
L 258.248988 14.329566 
L 258.671039 13.167827 
L 258.963228 12.901223 
L 259.158021 12.96866 
L 259.385279 13.295098 
L 259.709934 14.222695 
L 260.131985 16.232751 
L 260.651432 19.931594 
L 261.268276 26.020011 
L 262.014981 35.710733 
L 262.924014 50.606105 
L 264.060305 73.22484 
L 265.586181 108.50871 
L 269.969018 212.545466 
L 271.23517 236.173143 
L 272.30653 252.29349 
L 273.248028 263.277751 
L 274.059665 270.324797 
L 274.773905 274.720897 
L 275.390748 277.227668 
L 275.910196 278.472921 
L 276.299781 278.924401 
L 276.624436 279.006776 
L 276.94909 278.840243 
L 277.338676 278.337312 
L 277.825658 277.291006 
L 278.442501 275.397141 
L 279.286603 272.012913 
L 280.617687 265.612024 
L 282.66301 255.88134 
L 283.669439 252.143466 
L 284.44861 250.007428 
L 285.097919 248.803342 
L 285.649832 248.213144 
L 286.104348 248.029547 
L 286.526399 248.101008 
L 286.980916 248.431486 
L 287.500363 249.11646 
L 288.117207 250.324278 
L 288.896378 252.388043 
L 289.902807 255.758405 
L 291.461148 261.893889 
L 293.766196 270.859408 
L 294.902487 274.391722 
L 295.811519 276.551164 
L 296.59069 277.871113 
L 297.272465 278.61069 
L 297.856843 278.940424 
L 298.408756 279.005304 
L 298.960668 278.846834 
L 299.577512 278.430998 
L 300.324218 277.63926 
L 301.298181 276.244935 
L 302.953919 273.399612 
L 304.674588 270.594942 
L 305.713483 269.311959 
L 306.557585 268.604786 
L 307.30429 268.263569 
L 307.986065 268.194749 
L 308.667839 268.354938 
L 309.382079 268.754959 
L 310.226181 269.501081 
L 311.265076 270.747033 
L 312.790952 272.975573 
L 315.193396 276.466388 
L 316.329687 277.729054 
L 317.271185 278.469503 
L 318.115287 278.868185 
L 318.926923 279.009489 
L 319.738559 278.923038 
L 320.615127 278.599717 
L 321.654021 277.964683 
L 323.114967 276.776814 
L 325.809599 274.557024 
L 326.978356 273.906889 
L 327.984785 273.598025 
L 328.926283 273.541916 
L 329.867781 273.710102 
L 330.906676 274.132539 
L 332.140363 274.891469 
L 334.120756 276.420028 
L 336.198545 277.933663 
L 337.464698 278.588899 
L 338.568523 278.920426 
L 339.639883 279.009439 
L 340.743708 278.870001 
L 341.977396 278.478463 
L 343.633134 277.695474 
L 346.749818 276.191618 
L 348.080901 275.820298 
L 349.282123 275.708949 
L 350.483345 275.820611 
L 351.781963 276.168096 
L 353.437701 276.857682 
L 357.430952 278.613548 
L 358.859432 278.936248 
L 360.190516 279.006875 
L 361.554065 278.854561 
L 363.177338 278.438672 
L 368.469207 276.890447 
L 369.962618 276.806406 
L 371.456028 276.950996 
L 373.176698 277.3532 
L 379.052945 278.94012 
L 380.643752 279.006122 
L 382.29949 278.848336 
L 384.44221 278.399493 
L 388.305599 277.561572 
L 390.091199 277.432683 
L 391.844334 277.533971 
L 393.889658 277.889091 
L 399.278923 278.948156 
L 401.129454 279.003966 
L 402.29821 278.928393 
L 402.29821 278.928393 
" clip-path="url(#p3c3110dc2b)" style="fill: none; stroke-dasharray: 1.5,2.475; stroke-dashoffset: 0; stroke: #9467bd; stroke-width: 1.5"/>
   </g>
   <g id="line2d_29">
    <path d="M 77.643665 279.00834 
L 79.753919 278.931322 
L 82.188828 278.606067 
L 87.253439 277.86275 
L 89.266298 277.847013 
L 91.376552 278.061823 
L 98.486487 279.009667 
L 100.337018 278.876712 
L 102.479737 278.488786 
L 107.446952 277.49871 
L 109.200087 277.438787 
L 110.953221 277.604005 
L 113.095941 278.044958 
L 117.121657 278.912561 
L 118.809861 279.009686 
L 120.400668 278.875246 
L 122.153803 278.491838 
L 125.043228 277.579455 
L 127.250879 276.997141 
L 128.809221 276.81252 
L 130.270167 276.863041 
L 131.796043 277.141916 
L 133.776436 277.751219 
L 137.120378 278.796297 
L 138.581323 278.998526 
L 139.912407 278.96053 
L 141.24349 278.698529 
L 142.736901 278.171763 
L 145.106879 277.057981 
L 147.249599 276.145212 
L 148.645614 275.792614 
L 149.879301 275.711795 
L 151.080523 275.859594 
L 152.379141 276.253309 
L 154.002414 276.997457 
L 157.476218 278.659358 
L 158.709905 278.959118 
L 159.81373 278.997301 
L 160.852625 278.812411 
L 161.95645 278.383949 
L 163.222603 277.63723 
L 165.008203 276.288927 
L 167.443112 274.48151 
L 168.644334 273.865746 
L 169.650763 273.584688 
L 170.592261 273.547271 
L 171.533759 273.737069 
L 172.540188 274.179412 
L 173.708945 274.954889 
L 175.429614 276.40635 
L 177.507403 278.102361 
L 178.611228 278.71911 
L 179.520261 278.979545 
L 180.331898 278.985371 
L 181.111068 278.772088 
L 181.922705 278.317172 
L 182.831738 277.537266 
L 183.903098 276.297663 
L 185.331578 274.265258 
L 188.221003 270.082971 
L 189.259898 269.007557 
L 190.103999 268.440291 
L 190.818239 268.212125 
L 191.500014 268.226486 
L 192.181788 268.472907 
L 192.896028 268.974643 
L 193.707665 269.8248 
L 194.714094 271.225745 
L 196.207505 273.746745 
L 198.220363 277.079847 
L 199.161861 278.222764 
L 199.908567 278.798272 
L 200.52541 279.002215 
L 201.077323 278.950113 
L 201.629236 278.659493 
L 202.213614 278.079879 
L 202.862923 277.101533 
L 203.609628 275.547127 
L 204.486196 273.172717 
L 205.557556 269.583042 
L 207.115898 263.479739 
L 209.485876 254.257039 
L 210.52477 251.111411 
L 211.303941 249.390739 
L 211.920785 248.497352 
L 212.440232 248.100115 
L 212.862283 248.029762 
L 213.284334 248.192324 
L 213.73885 248.630841 
L 214.258298 249.464682 
L 214.875141 250.902019 
L 215.621847 253.245656 
L 216.563345 257.003939 
L 217.926894 263.50276 
L 220.069614 273.678043 
L 220.946181 276.762004 
L 221.563025 278.227126 
L 222.050007 278.869221 
L 222.407127 279.010739 
L 222.699316 278.900304 
L 223.02397 278.522639 
L 223.413556 277.693491 
L 223.868072 276.176036 
L 224.419985 273.488876 
L 225.069294 269.076799 
L 225.783534 262.59658 
L 226.59517 253.121491 
L 227.536668 239.349051 
L 228.608028 220.26206 
L 229.906647 192.949161 
L 231.724712 149.51351 
L 234.906327 73.181133 
L 236.172479 48.25161 
L 237.178908 32.476567 
L 237.990545 22.891569 
L 238.672319 17.231525 
L 239.224232 14.337357 
L 239.646283 13.17122 
L 239.938472 12.901553 
L 240.133265 12.966946 
L 240.360523 13.291005 
L 240.685178 14.21522 
L 241.107228 16.220933 
L 241.626676 19.914564 
L 242.243519 25.997062 
L 242.990225 35.681142 
L 243.899258 50.569415 
L 245.035548 73.181133 
L 246.561425 108.459336 
L 250.944261 212.504022 
L 252.210414 236.139089 
L 253.281774 252.266558 
L 254.223272 263.257335 
L 255.034908 270.309937 
L 255.749148 274.710723 
L 256.365992 277.221293 
L 256.885439 278.469517 
L 257.275025 278.923067 
L 257.599679 279.007052 
L 257.924334 278.84202 
L 258.313919 278.340737 
L 258.800901 277.296246 
L 259.417745 275.404278 
L 260.261847 272.021899 
L 261.59293 265.622212 
L 263.670719 255.754374 
L 264.677148 252.046709 
L 265.456319 249.938951 
L 266.105628 248.760321 
L 266.625076 248.214575 
L 267.079592 248.029762 
L 267.501643 248.100115 
L 267.956159 248.429442 
L 268.475607 249.113173 
L 269.09245 250.31965 
L 269.871621 252.381978 
L 270.87805 255.750982 
L 272.436392 261.885587 
L 274.741439 270.852387 
L 275.87773 274.386195 
L 276.786763 276.547073 
L 277.565934 277.868333 
L 278.247708 278.609061 
L 278.832087 278.939752 
L 279.383999 279.005486 
L 279.935912 278.847802 
L 280.552756 278.432744 
L 281.299461 277.641783 
L 282.273425 276.248161 
L 283.929163 273.403183 
L 285.649832 270.59783 
L 286.688727 269.314046 
L 287.532828 268.606086 
L 288.279534 268.264121 
L 288.961308 268.19461 
L 289.643083 268.354132 
L 290.357323 268.753506 
L 291.201425 269.49897 
L 292.240319 270.744319 
L 293.766196 272.972461 
L 296.201105 276.504742 
L 297.337396 277.75762 
L 298.278894 278.488328 
L 299.122996 278.877749 
L 299.934632 279.010255 
L 300.746268 278.915622 
L 301.622836 278.584661 
L 302.66173 277.942771 
L 304.122676 276.750129 
L 306.784843 274.558389 
L 307.953599 273.90776 
L 308.960028 273.598393 
L 309.901527 273.541792 
L 310.843025 273.709509 
L 311.881919 274.131498 
L 313.115607 274.890044 
L 315.095999 276.418412 
L 317.173788 277.932408 
L 318.439941 278.588073 
L 319.543767 278.920039 
L 320.615127 279.009486 
L 321.718952 278.870456 
L 322.952639 278.479275 
L 324.608378 277.696532 
L 327.725061 276.192361 
L 329.056145 275.820674 
L 330.257367 275.708947 
L 331.458588 275.820241 
L 332.757207 276.167395 
L 334.412945 276.856729 
L 338.406196 278.612921 
L 339.834676 278.935968 
L 341.165759 279.006939 
L 342.529308 278.854939 
L 344.152581 278.439307 
L 349.44445 276.890717 
L 350.937861 276.806362 
L 352.431272 276.950655 
L 354.151941 277.352616 
L 360.028188 278.939893 
L 361.618996 279.00618 
L 363.274734 278.848652 
L 365.417454 278.399991 
L 369.280843 277.561846 
L 371.066443 277.432697 
L 372.819578 277.533731 
L 374.864901 277.888651 
L 380.254167 278.947973 
L 382.104698 279.004026 
L 384.08509 278.833047 
L 387.104378 278.308482 
L 389.961338 277.895452 
L 391.974196 277.831307 
L 394.051985 277.993979 
L 397.071272 278.487818 
L 400.220421 278.934135 
L 402.29821 279.00834 
L 402.29821 279.00834 
" clip-path="url(#p3c3110dc2b)" style="fill: none; stroke-dasharray: 1.5,2.475; stroke-dashoffset: 0; stroke: #8c564b; stroke-width: 1.5"/>
   </g>
   <g id="line2d_30">
    <path d="M 77.643665 278.928393 
L 79.591592 279.007563 
L 81.442123 278.859751 
L 83.649774 278.445651 
L 88.259868 277.515573 
L 90.045468 277.435356 
L 91.798603 277.58431 
L 93.876392 277.997502 
L 98.226763 278.927906 
L 99.882501 279.007928 
L 101.473308 278.860256 
L 103.226443 278.465333 
L 106.60285 277.400614 
L 108.550778 276.94028 
L 110.076654 276.804789 
L 111.537599 276.899286 
L 113.128407 277.234973 
L 115.368523 277.966738 
L 117.998225 278.774497 
L 119.491636 278.994561 
L 120.822719 278.967852 
L 122.153803 278.716803 
L 123.647214 278.199634 
L 125.919796 277.137634 
L 128.192378 276.15694 
L 129.588392 275.798168 
L 130.822079 275.710857 
L 132.023301 275.852293 
L 133.321919 276.240105 
L 134.945192 276.979789 
L 138.483927 278.66958 
L 139.717614 278.963266 
L 140.788974 278.997449 
L 141.827868 278.812984 
L 142.931694 278.384943 
L 144.197847 277.638606 
L 145.983447 276.290548 
L 148.418356 274.482766 
L 149.619578 273.866546 
L 150.626007 273.585011 
L 151.567505 273.547107 
L 152.509003 273.73642 
L 153.515432 274.178291 
L 154.684188 274.953346 
L 156.404858 276.404554 
L 158.482647 278.100979 
L 159.586472 278.718256 
L 160.495505 278.979251 
L 161.307141 278.985642 
L 162.086312 278.772928 
L 162.897948 278.318601 
L 163.806981 277.539305 
L 164.878341 276.300289 
L 166.306821 274.268331 
L 169.196247 270.085414 
L 170.235141 269.009278 
L 171.079243 268.44128 
L 171.793483 268.212426 
L 172.475258 268.226099 
L 173.157032 268.471832 
L 173.871272 268.972877 
L 174.682908 269.822334 
L 175.689338 271.222605 
L 177.182748 273.743161 
L 179.195607 277.076976 
L 180.137105 278.220761 
L 180.88381 278.797174 
L 181.500654 279.001985 
L 182.052567 278.950733 
L 182.604479 278.661014 
L 183.188858 278.082384 
L 183.838167 277.105138 
L 184.584872 275.551955 
L 185.461439 273.178847 
L 186.532799 269.590435 
L 188.091141 263.488028 
L 190.461119 254.263966 
L 191.500014 251.116676 
L 192.279185 249.394394 
L 192.896028 248.499556 
L 193.415476 248.101008 
L 193.837527 248.029547 
L 194.259578 248.19098 
L 194.714094 248.628277 
L 195.233541 249.460744 
L 195.850385 250.896524 
L 196.59709 253.23846 
L 197.538588 256.995034 
L 198.902138 263.4926 
L 201.044858 273.669803 
L 201.921425 276.756115 
L 202.538268 278.223443 
L 203.02525 278.867589 
L 203.38237 279.010776 
L 203.674559 278.901805 
L 203.999214 278.525865 
L 204.388799 277.698912 
L 204.843316 276.184177 
L 205.395228 273.500512 
L 206.012072 269.346189 
L 206.726312 262.949399 
L 207.537948 253.569868 
L 208.479447 239.904906 
L 209.550807 220.929128 
L 210.849425 193.724382 
L 212.635025 151.174259 
L 215.914036 72.526795 
L 217.180188 47.717131 
L 218.186618 32.064101 
L 218.998254 22.591089 
L 219.680028 17.032011 
L 220.199476 14.34517 
L 220.621527 13.174634 
L 220.913716 12.901904 
L 221.108508 12.965254 
L 221.335767 13.286932 
L 221.660421 14.207765 
L 222.082472 16.209135 
L 222.601919 19.897554 
L 223.218763 25.974131 
L 223.965468 35.651567 
L 224.874501 50.532739 
L 226.010792 73.137437 
L 227.536668 108.409966 
L 231.919505 212.462567 
L 233.185658 236.105022 
L 234.257018 252.239611 
L 235.198516 263.236904 
L 236.010152 270.295064 
L 236.724392 274.700536 
L 237.341236 277.214906 
L 237.860683 278.466102 
L 238.250268 278.921722 
L 238.574923 279.007319 
L 238.899578 278.843788 
L 239.289163 278.344154 
L 239.776145 277.30148 
L 240.392988 275.411409 
L 241.23709 272.030881 
L 242.568174 265.6324 
L 244.645963 255.762814 
L 245.652392 252.053128 
L 246.431563 249.943479 
L 247.080872 248.763151 
L 247.600319 248.216012 
L 248.054836 248.029983 
L 248.476887 248.099228 
L 248.931403 248.427402 
L 249.45085 249.109891 
L 250.067694 250.315026 
L 250.846865 252.375916 
L 251.853294 255.743562 
L 253.37917 261.744481 
L 255.716683 270.845364 
L 256.852974 274.380665 
L 257.762007 276.542978 
L 258.541178 277.865549 
L 259.222952 278.607429 
L 259.80733 278.939077 
L 260.359243 279.005665 
L 260.911156 278.848767 
L 261.527999 278.434488 
L 262.274705 277.644303 
L 263.248668 276.251385 
L 264.904407 273.406753 
L 266.625076 270.60072 
L 267.66397 269.316134 
L 268.508072 268.607388 
L 269.254778 268.264675 
L 269.936552 268.194474 
L 270.618327 268.353327 
L 271.332567 268.752055 
L 272.176668 269.496861 
L 273.215563 270.741607 
L 274.741439 272.96935 
L 277.176348 276.502192 
L 278.312639 277.755724 
L 279.254138 278.487084 
L 280.098239 278.877121 
L 280.909876 279.010214 
L 281.721512 278.916125 
L 282.598079 278.585672 
L 283.636974 277.944237 
L 285.097919 276.751909 
L 287.760087 274.559754 
L 288.928843 273.908633 
L 289.935272 273.598761 
L 290.87677 273.541669 
L 291.818268 273.708917 
L 292.857163 274.130458 
L 294.09085 274.88862 
L 296.071243 276.416796 
L 298.149032 277.931152 
L 299.415185 278.587245 
L 300.51901 278.91965 
L 301.59037 279.009532 
L 302.694196 278.87091 
L 303.927883 278.480086 
L 305.583621 277.697591 
L 308.700305 276.193104 
L 310.031388 275.82105 
L 311.23261 275.708946 
L 312.433832 275.819873 
L 313.73245 276.166695 
L 315.388188 276.855777 
L 319.381439 278.612294 
L 320.809919 278.935686 
L 322.141003 279.007002 
L 323.504552 278.855317 
L 325.127825 278.439941 
L 330.452159 276.886711 
L 331.913105 276.806319 
L 333.406516 276.950315 
L 335.127185 277.352031 
L 341.035898 278.943259 
L 342.626705 279.005275 
L 344.282443 278.843876 
L 346.425163 278.392513 
L 350.256087 277.56212 
L 352.041687 277.43271 
L 353.794821 277.533491 
L 355.840145 277.888211 
L 361.22941 278.947791 
L 363.079941 279.004086 
L 365.060334 278.833324 
L 368.079621 278.308855 
L 370.936581 277.895628 
L 372.949439 277.831257 
L 375.027228 277.993722 
L 378.046516 278.487459 
L 381.195665 278.933961 
L 383.338385 279.00726 
L 385.578501 278.854576 
L 393.402676 278.09473 
L 395.772654 278.25933 
L 402.29821 278.991682 
L 402.29821 278.991682 
" clip-path="url(#p3c3110dc2b)" style="fill: none; stroke-dasharray: 1.5,2.475; stroke-dashoffset: 0; stroke: #e377c2; stroke-width: 1.5"/>
   </g>
   <g id="line2d_31">
    <path d="M 77.643665 277.673432 
L 81.344727 278.823698 
L 82.805672 279.004716 
L 84.136756 278.944488 
L 85.467839 278.661186 
L 86.993716 278.102176 
L 89.883141 276.735597 
L 91.668741 276.04087 
L 92.999825 275.756203 
L 94.201047 275.722732 
L 95.402268 275.912409 
L 96.733352 276.357563 
L 98.518952 277.217832 
L 101.343447 278.579658 
L 102.609599 278.9289 
L 103.713425 279.007755 
L 104.752319 278.863219 
L 105.823679 278.489967 
L 107.024901 277.829118 
L 108.615708 276.674205 
L 111.732392 274.363074 
L 112.901148 273.804067 
L 113.907578 273.561987 
L 114.849076 273.564016 
L 115.790574 273.792878 
L 116.797003 274.272783 
L 117.998225 275.106905 
L 119.978618 276.808391 
L 121.699287 278.168825 
L 122.770647 278.746476 
L 123.679679 278.98843 
L 124.491316 278.975682 
L 125.270487 278.743715 
L 126.082123 278.26954 
L 126.991156 277.469741 
L 128.062516 276.21107 
L 129.523461 274.114997 
L 132.250559 270.15981 
L 133.289454 269.062063 
L 134.133556 268.472071 
L 134.847796 268.22247 
L 135.52957 268.215379 
L 136.211345 268.440282 
L 136.925585 268.920424 
L 137.737221 269.748585 
L 138.711185 271.078674 
L 140.107199 273.40596 
L 142.347316 277.127798 
L 143.288814 278.256036 
L 144.003054 278.799125 
L 144.619898 279.002392 
L 145.17181 278.949628 
L 145.723723 278.658309 
L 146.308101 278.077928 
L 146.95741 277.098727 
L 147.704116 275.543369 
L 148.580683 273.167947 
L 149.652043 269.577291 
L 151.210385 263.473292 
L 153.580363 254.251654 
L 154.619258 251.107319 
L 155.398428 249.387899 
L 156.015272 248.495641 
L 156.534719 248.099425 
L 156.95677 248.029933 
L 157.378821 248.193374 
L 157.833338 248.63284 
L 158.352785 249.467749 
L 158.969628 250.906297 
L 159.716334 253.251256 
L 160.657832 257.010867 
L 162.021381 263.510663 
L 164.164101 273.684448 
L 165.040668 276.76658 
L 165.657512 278.229985 
L 166.144494 278.870484 
L 166.501614 279.010703 
L 166.793803 278.899129 
L 167.118458 278.520122 
L 167.508043 277.689265 
L 167.962559 276.169695 
L 168.514472 273.479816 
L 169.163781 269.064378 
L 169.878021 262.580341 
L 170.689658 253.100881 
L 171.631156 239.323528 
L 172.702516 220.231461 
L 174.001134 192.913637 
L 175.819199 149.47434 
L 179.000814 73.147146 
L 180.266967 48.223814 
L 181.273396 32.455081 
L 182.085032 22.87588 
L 182.766807 17.221066 
L 183.318719 14.331296 
L 183.74077 13.168579 
L 184.032959 12.901295 
L 184.227752 12.968277 
L 184.45501 13.294187 
L 184.779665 14.221032 
L 185.201716 16.230122 
L 185.721163 19.927808 
L 186.338007 26.01491 
L 187.084712 35.704156 
L 187.993745 50.597951 
L 189.130036 73.215126 
L 190.655912 108.497737 
L 195.038748 212.536257 
L 196.304901 236.165577 
L 197.376261 252.287506 
L 198.317759 263.273216 
L 199.129396 270.321496 
L 199.843636 274.718637 
L 200.460479 277.226252 
L 200.979927 278.472165 
L 201.369512 278.924105 
L 201.694167 279.006838 
L 202.018821 278.840639 
L 202.408407 278.338074 
L 202.895388 277.292171 
L 203.512232 275.398728 
L 204.356334 272.01491 
L 205.687418 265.614288 
L 207.765207 255.747812 
L 208.771636 252.041721 
L 209.550807 249.935432 
L 210.200116 248.758123 
L 210.719563 248.213461 
L 211.174079 248.029594 
L 211.59613 248.100809 
L 212.050647 248.431032 
L 212.570094 249.115729 
L 213.186938 250.323249 
L 213.966108 252.386695 
L 214.972538 255.756756 
L 216.530879 261.892044 
L 218.835927 270.857848 
L 219.972218 274.390494 
L 220.88125 276.550255 
L 221.660421 277.870496 
L 222.342196 278.610328 
L 222.926574 278.940275 
L 223.478487 279.005345 
L 224.030399 278.847049 
L 224.647243 278.431386 
L 225.393948 277.639821 
L 226.367912 276.245652 
L 228.02365 273.400406 
L 229.744319 270.595584 
L 230.783214 269.312422 
L 231.627316 268.605075 
L 232.374021 268.263691 
L 233.055796 268.194718 
L 233.73757 268.354759 
L 234.45181 268.754636 
L 235.295912 269.500611 
L 236.334807 270.74643 
L 237.860683 272.974882 
L 240.263127 276.465818 
L 241.399418 277.728629 
L 242.340916 278.469222 
L 243.185018 278.868041 
L 243.996654 279.009475 
L 244.80829 278.923146 
L 245.684858 278.599938 
L 246.723752 277.965007 
L 248.184698 276.777209 
L 250.87933 274.557327 
L 252.048087 273.907082 
L 253.054516 273.598107 
L 253.996014 273.541889 
L 254.937512 273.70997 
L 255.976407 274.132307 
L 257.210094 274.891152 
L 259.190487 276.419669 
L 261.268276 277.933384 
L 262.534428 278.588716 
L 263.638254 278.92034 
L 264.709614 279.009449 
L 265.813439 278.870103 
L 267.047127 278.478644 
L 268.702865 277.695709 
L 271.819548 276.191783 
L 273.150632 275.820381 
L 274.351854 275.708948 
L 275.553076 275.820529 
L 276.851694 276.16794 
L 278.507432 276.85747 
L 282.500683 278.613409 
L 283.929163 278.936186 
L 285.260247 279.00689 
L 286.623796 278.854645 
L 288.247068 278.438813 
L 293.538938 276.890507 
L 295.032348 276.806396 
L 296.525759 276.95092 
L 298.246428 277.35307 
L 304.122676 278.940069 
L 305.713483 279.006135 
L 307.369221 278.848406 
L 309.511941 278.399604 
L 313.37533 277.561633 
L 315.16093 277.432686 
L 316.914065 277.533918 
L 318.959388 277.888993 
L 324.348654 278.948115 
L 326.199185 279.003979 
L 328.179578 278.832832 
L 331.198865 278.308192 
L 334.055825 277.895316 
L 336.068683 277.831345 
L 338.146472 277.994178 
L 341.165759 278.488098 
L 344.314908 278.934271 
L 346.457628 279.007192 
L 348.697745 278.854177 
L 356.489454 278.094088 
L 358.859432 278.256183 
L 366.748538 279.008455 
L 369.280843 278.863102 
L 376.682967 278.274876 
L 379.312668 278.41638 
L 387.136843 279.008068 
L 389.993803 278.859252 
L 396.746618 278.406907 
L 399.636043 278.523471 
L 402.29821 278.754287 
L 402.29821 278.754287 
" clip-path="url(#p3c3110dc2b)" style="fill: none; stroke-dasharray: 1.5,2.475; stroke-dashoffset: 0; stroke: #7f7f7f; stroke-width: 1.5"/>
   </g>
   <g id="line2d_32">
    <path d="M 77.643665 273.841738 
L 78.650094 270.626535 
L 80.013643 265.454827 
L 83.097861 253.498606 
L 84.071825 250.702795 
L 84.81853 249.166322 
L 85.435374 248.366675 
L 85.922356 248.063468 
L 86.344407 248.046452 
L 86.766458 248.263266 
L 87.220974 248.760321 
L 87.772887 249.727664 
L 88.422196 251.357507 
L 89.201367 253.955979 
L 90.207796 258.167691 
L 91.831068 266.110804 
L 93.454341 273.678043 
L 94.330908 276.762004 
L 94.947752 278.227126 
L 95.434734 278.869221 
L 95.791854 279.010739 
L 96.084043 278.900304 
L 96.408698 278.522639 
L 96.798283 277.693491 
L 97.252799 276.176036 
L 97.804712 273.488876 
L 98.454021 269.076799 
L 99.168261 262.59658 
L 99.979898 253.121491 
L 100.921396 239.349051 
L 101.992756 220.26206 
L 103.291374 192.949161 
L 105.109439 149.51351 
L 108.291054 73.181133 
L 109.557207 48.25161 
L 110.563636 32.476567 
L 111.375272 22.891569 
L 112.057047 17.231525 
L 112.608959 14.337357 
L 113.03101 13.17122 
L 113.323199 12.901553 
L 113.517992 12.966946 
L 113.74525 13.291005 
L 114.069905 14.21522 
L 114.491956 16.220933 
L 115.011403 19.914564 
L 115.628247 25.997062 
L 116.374952 35.681142 
L 117.283985 50.569415 
L 118.420276 73.181133 
L 119.946152 108.459336 
L 124.328988 212.504022 
L 125.595141 236.139089 
L 126.666501 252.266558 
L 127.607999 263.257335 
L 128.419636 270.309937 
L 129.133876 274.710723 
L 129.750719 277.221293 
L 130.270167 278.469517 
L 130.659752 278.923067 
L 130.984407 279.007052 
L 131.309061 278.84202 
L 131.698647 278.340737 
L 132.185628 277.296246 
L 132.802472 275.404278 
L 133.646574 272.021899 
L 134.977658 265.622212 
L 137.055447 255.754374 
L 138.061876 252.046709 
L 138.841047 249.938951 
L 139.490356 248.760321 
L 140.009803 248.214575 
L 140.464319 248.029762 
L 140.88637 248.100115 
L 141.340887 248.429442 
L 141.860334 249.113173 
L 142.477178 250.31965 
L 143.256348 252.381978 
L 144.262778 255.750982 
L 145.821119 261.885587 
L 148.126167 270.852387 
L 149.262458 274.386195 
L 150.17149 276.547073 
L 150.950661 277.868333 
L 151.632436 278.609061 
L 152.216814 278.939752 
L 152.768727 279.005486 
L 153.320639 278.847802 
L 153.937483 278.432744 
L 154.684188 277.641783 
L 155.658152 276.248161 
L 157.31389 273.403183 
L 159.034559 270.59783 
L 160.073454 269.314046 
L 160.917556 268.606086 
L 161.664261 268.264121 
L 162.346036 268.19461 
L 163.02781 268.354132 
L 163.74205 268.753506 
L 164.586152 269.49897 
L 165.625047 270.744319 
L 167.150923 272.972461 
L 169.585832 276.504742 
L 170.722123 277.75762 
L 171.663621 278.488328 
L 172.507723 278.877749 
L 173.319359 279.010255 
L 174.130996 278.915622 
L 175.007563 278.584661 
L 176.046458 277.942771 
L 177.507403 276.750129 
L 180.16957 274.558389 
L 181.338327 273.90776 
L 182.344756 273.598393 
L 183.286254 273.541792 
L 184.227752 273.709509 
L 185.266647 274.131498 
L 186.500334 274.890044 
L 188.480727 276.418412 
L 190.558516 277.932408 
L 191.824668 278.588073 
L 192.928494 278.920039 
L 193.999854 279.009486 
L 195.103679 278.870456 
L 196.337367 278.479275 
L 197.993105 277.696532 
L 201.109788 276.192361 
L 202.440872 275.820674 
L 203.642094 275.708947 
L 204.843316 275.820241 
L 206.141934 276.167395 
L 207.797672 276.856729 
L 211.790923 278.612921 
L 213.219403 278.935968 
L 214.550487 279.006939 
L 215.914036 278.854939 
L 217.537308 278.439307 
L 222.829178 276.890717 
L 224.322588 276.806362 
L 225.815999 276.950655 
L 227.536668 277.352616 
L 233.412916 278.939893 
L 235.003723 279.00618 
L 236.659461 278.848652 
L 238.802181 278.399991 
L 242.66557 277.561846 
L 244.45117 277.432697 
L 246.204305 277.533731 
L 248.249628 277.888651 
L 253.638894 278.947973 
L 255.489425 279.004026 
L 257.469818 278.833047 
L 260.489105 278.308482 
L 263.346065 277.895452 
L 265.358923 277.831307 
L 267.436712 277.993979 
L 270.455999 278.487818 
L 273.605148 278.934135 
L 275.747868 279.007222 
L 277.987985 278.854352 
L 285.812159 278.094776 
L 288.182138 278.259552 
L 296.006312 279.008895 
L 298.538618 278.866293 
L 306.005672 278.275262 
L 308.667839 278.422085 
L 316.329687 279.009218 
L 319.154181 278.870039 
L 326.199185 278.407587 
L 329.121076 278.537898 
L 336.717992 279.008806 
L 339.899607 278.863937 
L 346.327767 278.507403 
L 349.509381 278.620547 
L 357.203694 279.00728 
L 360.774894 278.851345 
L 366.58621 278.584787 
L 370.060014 278.693321 
L 377.494603 279.007973 
L 381.422923 278.855403 
L 387.071912 278.645734 
L 390.902836 278.765367 
L 397.65565 279.009478 
L 401.843694 278.870765 
L 402.29821 278.848249 
L 402.29821 278.848249 
" clip-path="url(#p3c3110dc2b)" style="fill: none; stroke-dasharray: 1.5,2.475; stroke-dashoffset: 0; stroke: #bcbd22; stroke-width: 1.5"/>
   </g>
   <g id="patch_3">
    <path d="M 61.410938 279.010828 
L 61.410938 12.898828 
" style="fill: none; stroke: #000000; stroke-width: 0.8; stroke-linejoin: miter; stroke-linecap: square"/>
   </g>
   <g id="patch_4">
    <path d="M 418.530938 279.010828 
L 418.530938 12.898828 
" style="fill: none; stroke: #000000; stroke-width: 0.8; stroke-linejoin: miter; stroke-linecap: square"/>
   </g>
   <g id="patch_5">
    <path d="M 61.410938 279.010828 
L 418.530938 279.010828 
" style="fill: none; stroke: #000000; stroke-width: 0.8; stroke-linejoin: miter; stroke-linecap: square"/>
   </g>
   <g id="patch_6">
    <path d="M 61.410938 12.898828 
L 418.530938 12.898828 
" style="fill: none; stroke: #000000; stroke-width: 0.8; stroke-linejoin: miter; stroke-linecap: square"/>
   </g>
  </g>
 </g>
 <defs>
  <clipPath id="p3c3110dc2b">
   <rect x="61.410938" y="12.898828" width="357.12" height="266.112"/>
  </clipPath>
 </defs>
</svg>
