<?xml version="1.0" encoding="utf-8" standalone="no"?>
<!DOCTYPE svg PUBLIC "-//W3C//DTD SVG 1.1//EN"
  "http://www.w3.org/Graphics/SVG/1.1/DTD/svg11.dtd">
<svg xmlns:xlink="http://www.w3.org/1999/xlink" width="425.730937pt" height="331.084266pt" viewBox="0 0 425.730937 331.084266" xmlns="http://www.w3.org/2000/svg" version="1.1">
 <defs>
  <style type="text/css">*{stroke-linejoin: round; stroke-linecap: butt}</style>
 </defs>
 <g id="figure_1">
  <g id="patch_1">
   <path d="M 0 331.084266 
L 425.730937 331.084266 
L 425.730937 0 
L 0 0 
L 0 331.084266 
z
" style="fill: none"/>
  </g>
  <g id="axes_1">
   <g id="patch_2">
    <path d="M 61.410938 279.010828 
L 418.530938 279.010828 
L 418.530938 12.898828 
L 61.410938 12.898828 
L 61.410938 279.010828 
z
" style="fill: none"/>
   </g>
   <g id="matplotlib.axis_1">
    <g id="xtick_1">
     <g id="line2d_1">
      <path d="M 110.109119 279.010828 
L 110.109119 12.898828 
" clip-path="url(#p3c3110dc2b)" style="fill: none; stroke: #b0b0b0; stroke-width: 0.8; stroke-linecap: square"/>
     </g>
     <g id="line2d_2">
      <defs>
       <path id="md39032bed2" d="M 0 0 
L 0 3.5 
" style="stroke: #000000; stroke-width: 0.8"/>
      </defs>
      <g>
       <use xlink:href="#md39032bed2" x="110.109119" y="279.010828" style="stroke: #000000; stroke-width: 0.8"/>
      </g>
     </g>
     <g id="text_1">
      <!-- −0.2 -->
      <g transform="translate(91.89701 297.408484) scale(0.15 -0.15)">
       <defs>
        <path id="DejaVuSans-2212" d="M 678 2272 
L 4684 2272 
L 4684 1741 
L 678 1741 
L 678 2272 
z
" transform="scale(0.015625)"/>
        <path id="DejaVuSans-30" d="M 2034 4250 
Q 1547 4250 1301 3770 
Q 1056 3291 1056 2328 
Q 1056 1369 1301 889 
Q 1547 409 2034 409 
Q 2525 409 2770 889 
Q 3016 1369 3016 2328 
Q 3016 3291 2770 3770 
Q 2525 4250 2034 4250 
z
M 2034 4750 
Q 2819 4750 3233 4129 
Q 3647 3509 3647 2328 
Q 3647 1150 3233 529 
Q 2819 -91 2034 -91 
Q 1250 -91 836 529 
Q 422 1150 422 2328 
Q 422 3509 836 4129 
Q 1250 4750 2034 4750 
z
" transform="scale(0.015625)"/>
        <path id="DejaVuSans-2e" d="M 684 794 
L 1344 794 
L 1344 0 
L 684 0 
L 684 794 
z
" transform="scale(0.015625)"/>
        <path id="DejaVuSans-32" d="M 1228 531 
L 3431 531 
L 3431 0 
L 469 0 
L 469 531 
Q 828 903 1448 1529 
Q 2069 2156 2228 2338 
Q 2531 2678 2651 2914 
Q 2772 3150 2772 3378 
Q 2772 3750 2511 3984 
Q 2250 4219 1831 4219 
Q 1534 4219 1204 4116 
Q 875 4013 500 3803 
L 500 4441 
Q 881 4594 1212 4672 
Q 1544 4750 1819 4750 
Q 2544 4750 2975 4387 
Q 3406 4025 3406 3419 
Q 3406 3131 3298 2873 
Q 3191 2616 2906 2266 
Q 2828 2175 2409 1742 
Q 1991 1309 1228 531 
z
" transform="scale(0.015625)"/>
       </defs>
       <use xlink:href="#DejaVuSans-2212"/>
       <use xlink:href="#DejaVuSans-30" x="83.789062"/>
       <use xlink:href="#DejaVuSans-2e" x="147.412109"/>
       <use xlink:href="#DejaVuSans-32" x="179.199219"/>
      </g>
     </g>
    </g>
    <g id="xtick_2">
     <g id="line2d_3">
      <path d="M 175.040028 279.010828 
L 175.040028 12.898828 
" clip-path="url(#p3c3110dc2b)" style="fill: none; stroke: #b0b0b0; stroke-width: 0.8; stroke-linecap: square"/>
     </g>
     <g id="line2d_4">
      <g>
       <use xlink:href="#md39032bed2" x="175.040028" y="279.010828" style="stroke: #000000; stroke-width: 0.8"/>
      </g>
     </g>
     <g id="text_2">
      <!-- −0.1 -->
      <g transform="translate(156.827919 297.408484) scale(0.15 -0.15)">
       <defs>
        <path id="DejaVuSans-31" d="M 794 531 
L 1825 531 
L 1825 4091 
L 703 3866 
L 703 4441 
L 1819 4666 
L 2450 4666 
L 2450 531 
L 3481 531 
L 3481 0 
L 794 0 
L 794 531 
z
" transform="scale(0.015625)"/>
       </defs>
       <use xlink:href="#DejaVuSans-2212"/>
       <use xlink:href="#DejaVuSans-30" x="83.789062"/>
       <use xlink:href="#DejaVuSans-2e" x="147.412109"/>
       <use xlink:href="#DejaVuSans-31" x="179.199219"/>
      </g>
     </g>
    </g>
    <g id="xtick_3">
     <g id="line2d_5">
      <path d="M 239.970938 279.010828 
L 239.970938 12.898828 
" clip-path="url(#p3c3110dc2b)" style="fill: none; stroke: #b0b0b0; stroke-width: 0.8; stroke-linecap: square"/>
     </g>
     <g id="line2d_6">
      <g>
       <use xlink:href="#md39032bed2" x="239.970938" y="279.010828" style="stroke: #000000; stroke-width: 0.8"/>
      </g>
     </g>
     <g id="text_3">
      <!-- 0.0 -->
      <g transform="translate(228.043594 297.408484) scale(0.15 -0.15)">
       <use xlink:href="#DejaVuSans-30"/>
       <use xlink:href="#DejaVuSans-2e" x="63.623047"/>
       <use xlink:href="#DejaVuSans-30" x="95.410156"/>
      </g>
     </g>
    </g>
    <g id="xtick_4">
     <g id="line2d_7">
      <path d="M 304.901847 279.010828 
L 304.901847 12.898828 
" clip-path="url(#p3c3110dc2b)" style="fill: none; stroke: #b0b0b0; stroke-width: 0.8; stroke-linecap: square"/>
     </g>
     <g id="line2d_8">
      <g>
       <use xlink:href="#md39032bed2" x="304.901847" y="279.010828" style="stroke: #000000; stroke-width: 0.8"/>
      </g>
     </g>
     <g id="text_4">
      <!-- 0.1 -->
      <g transform="translate(292.974503 297.408484) scale(0.15 -0.15)">
       <use xlink:href="#DejaVuSans-30"/>
       <use xlink:href="#DejaVuSans-2e" x="63.623047"/>
       <use xlink:href="#DejaVuSans-31" x="95.410156"/>
      </g>
     </g>
    </g>
    <g id="xtick_5">
     <g id="line2d_9">
      <path d="M 369.832756 279.010828 
L 369.832756 12.898828 
" clip-path="url(#p3c3110dc2b)" style="fill: none; stroke: #b0b0b0; stroke-width: 0.8; stroke-linecap: square"/>
     </g>
     <g id="line2d_10">
      <g>
       <use xlink:href="#md39032bed2" x="369.832756" y="279.010828" style="stroke: #000000; stroke-width: 0.8"/>
      </g>
     </g>
     <g id="text_5">
      <!-- 0.2 -->
      <g transform="translate(357.905412 297.408484) scale(0.15 -0.15)">
       <use xlink:href="#DejaVuSans-30"/>
       <use xlink:href="#DejaVuSans-2e" x="63.623047"/>
       <use xlink:href="#DejaVuSans-32" x="95.410156"/>
      </g>
     </g>
    </g>
    <g id="text_6">
     <!-- det -->
     <g transform="translate(223.549063 319.724891) scale(0.2 -0.2)">
      <defs>
       <path id="DejaVuSans-64" d="M 2906 2969 
L 2906 4863 
L 3481 4863 
L 3481 0 
L 2906 0 
L 2906 525 
Q 2725 213 2448 61 
Q 2172 -91 1784 -91 
Q 1150 -91 751 415 
Q 353 922 353 1747 
Q 353 2572 751 3078 
Q 1150 3584 1784 3584 
Q 2172 3584 2448 3432 
Q 2725 3281 2906 2969 
z
M 947 1747 
Q 947 1113 1208 752 
Q 1469 391 1925 391 
Q 2381 391 2643 752 
Q 2906 1113 2906 1747 
Q 2906 2381 2643 2742 
Q 2381 3103 1925 3103 
Q 1469 3103 1208 2742 
Q 947 2381 947 1747 
z
" transform="scale(0.015625)"/>
       <path id="DejaVuSans-65" d="M 3597 1894 
L 3597 1613 
L 953 1613 
Q 991 1019 1311 708 
Q 1631 397 2203 397 
Q 2534 397 2845 478 
Q 3156 559 3463 722 
L 3463 178 
Q 3153 47 2828 -22 
Q 2503 -91 2169 -91 
Q 1331 -91 842 396 
Q 353 884 353 1716 
Q 353 2575 817 3079 
Q 1281 3584 2069 3584 
Q 2775 3584 3186 3129 
Q 3597 2675 3597 1894 
z
M 3022 2063 
Q 3016 2534 2758 2815 
Q 2500 3097 2075 3097 
Q 1594 3097 1305 2825 
Q 1016 2553 972 2059 
L 3022 2063 
z
" transform="scale(0.015625)"/>
       <path id="DejaVuSans-74" d="M 1172 4494 
L 1172 3500 
L 2356 3500 
L 2356 3053 
L 1172 3053 
L 1172 1153 
Q 1172 725 1289 603 
Q 1406 481 1766 481 
L 2356 481 
L 2356 0 
L 1766 0 
Q 1100 0 847 248 
Q 594 497 594 1153 
L 594 3053 
L 172 3053 
L 172 3500 
L 594 3500 
L 594 4494 
L 1172 4494 
z
" transform="scale(0.015625)"/>
      </defs>
      <use xlink:href="#DejaVuSans-64"/>
      <use xlink:href="#DejaVuSans-65" x="63.476562"/>
      <use xlink:href="#DejaVuSans-74" x="125"/>
     </g>
    </g>
   </g>
   <g id="matplotlib.axis_2">
    <g id="ytick_1">
     <g id="line2d_11">
      <path d="M 61.410938 279.010828 
L 418.530938 279.010828 
" clip-path="url(#p3c3110dc2b)" style="fill: none; stroke: #b0b0b0; stroke-width: 0.8; stroke-linecap: square"/>
     </g>
     <g id="line2d_12">
      <defs>
       <path id="m6f3f5b6aff" d="M 0 0 
L -3.5 0 
" style="stroke: #000000; stroke-width: 0.8"/>
      </defs>
      <g>
       <use xlink:href="#m6f3f5b6aff" x="61.410938" y="279.010828" style="stroke: #000000; stroke-width: 0.8"/>
      </g>
     </g>
     <g id="text_7">
      <!-- 0.0 -->
      <g transform="translate(30.55625 284.709656) scale(0.15 -0.15)">
       <use xlink:href="#DejaVuSans-30"/>
       <use xlink:href="#DejaVuSans-2e" x="63.623047"/>
       <use xlink:href="#DejaVuSans-30" x="95.410156"/>
      </g>
     </g>
    </g>
    <g id="ytick_2">
     <g id="line2d_13">
      <path d="M 61.410938 225.788428 
L 418.530938 225.788428 
" clip-path="url(#p3c3110dc2b)" style="fill: none; stroke: #b0b0b0; stroke-width: 0.8; stroke-linecap: square"/>
     </g>
     <g id="line2d_14">
      <g>
       <use xlink:href="#m6f3f5b6aff" x="61.410938" y="225.788428" style="stroke: #000000; stroke-width: 0.8"/>
      </g>
     </g>
     <g id="text_8">
      <!-- 0.2 -->
      <g transform="translate(30.55625 231.487256) scale(0.15 -0.15)">
       <use xlink:href="#DejaVuSans-30"/>
       <use xlink:href="#DejaVuSans-2e" x="63.623047"/>
       <use xlink:href="#DejaVuSans-32" x="95.410156"/>
      </g>
     </g>
    </g>
    <g id="ytick_3">
     <g id="line2d_15">
      <path d="M 61.410938 172.566028 
L 418.530938 172.566028 
" clip-path="url(#p3c3110dc2b)" style="fill: none; stroke: #b0b0b0; stroke-width: 0.8; stroke-linecap: square"/>
     </g>
     <g id="line2d_16">
      <g>
       <use xlink:href="#m6f3f5b6aff" x="61.410938" y="172.566028" style="stroke: #000000; stroke-width: 0.8"/>
      </g>
     </g>
     <g id="text_9">
      <!-- 0.4 -->
      <g transform="translate(30.55625 178.264856) scale(0.15 -0.15)">
       <defs>
        <path id="DejaVuSans-34" d="M 2419 4116 
L 825 1625 
L 2419 1625 
L 2419 4116 
z
M 2253 4666 
L 3047 4666 
L 3047 1625 
L 3713 1625 
L 3713 1100 
L 3047 1100 
L 3047 0 
L 2419 0 
L 2419 1100 
L 313 1100 
L 313 1709 
L 2253 4666 
z
" transform="scale(0.015625)"/>
       </defs>
       <use xlink:href="#DejaVuSans-30"/>
       <use xlink:href="#DejaVuSans-2e" x="63.623047"/>
       <use xlink:href="#DejaVuSans-34" x="95.410156"/>
      </g>
     </g>
    </g>
    <g id="ytick_4">
     <g id="line2d_17">
      <path d="M 61.410938 119.343628 
L 418.530938 119.343628 
" clip-path="url(#p3c3110dc2b)" style="fill: none; stroke: #b0b0b0; stroke-width: 0.8; stroke-linecap: square"/>
     </g>
     <g id="line2d_18">
      <g>
       <use xlink:href="#m6f3f5b6aff" x="61.410938" y="119.343628" style="stroke: #000000; stroke-width: 0.8"/>
      </g>
     </g>
     <g id="text_10">
      <!-- 0.6 -->
      <g transform="translate(30.55625 125.042456) scale(0.15 -0.15)">
       <defs>
        <path id="DejaVuSans-36" d="M 2113 2584 
Q 1688 2584 1439 2293 
Q 1191 2003 1191 1497 
Q 1191 994 1439 701 
Q 1688 409 2113 409 
Q 2538 409 2786 701 
Q 3034 994 3034 1497 
Q 3034 2003 2786 2293 
Q 2538 2584 2113 2584 
z
M 3366 4563 
L 3366 3988 
Q 3128 4100 2886 4159 
Q 2644 4219 2406 4219 
Q 1781 4219 1451 3797 
Q 1122 3375 1075 2522 
Q 1259 2794 1537 2939 
Q 1816 3084 2150 3084 
Q 2853 3084 3261 2657 
Q 3669 2231 3669 1497 
Q 3669 778 3244 343 
Q 2819 -91 2113 -91 
Q 1303 -91 875 529 
Q 447 1150 447 2328 
Q 447 3434 972 4092 
Q 1497 4750 2381 4750 
Q 2619 4750 2861 4703 
Q 3103 4656 3366 4563 
z
" transform="scale(0.015625)"/>
       </defs>
       <use xlink:href="#DejaVuSans-30"/>
       <use xlink:href="#DejaVuSans-2e" x="63.623047"/>
       <use xlink:href="#DejaVuSans-36" x="95.410156"/>
      </g>
     </g>
    </g>
    <g id="ytick_5">
     <g id="line2d_19">
      <path d="M 61.410938 66.121228 
L 418.530938 66.121228 
" clip-path="url(#p3c3110dc2b)" style="fill: none; stroke: #b0b0b0; stroke-width: 0.8; stroke-linecap: square"/>
     </g>
     <g id="line2d_20">
      <g>
       <use xlink:href="#m6f3f5b6aff" x="61.410938" y="66.121228" style="stroke: #000000; stroke-width: 0.8"/>
      </g>
     </g>
     <g id="text_11">
      <!-- 0.8 -->
      <g transform="translate(30.55625 71.820056) scale(0.15 -0.15)">
       <defs>
        <path id="DejaVuSans-38" d="M 2034 2216 
Q 1584 2216 1326 1975 
Q 1069 1734 1069 1313 
Q 1069 891 1326 650 
Q 1584 409 2034 409 
Q 2484 409 2743 651 
Q 3003 894 3003 1313 
Q 3003 1734 2745 1975 
Q 2488 2216 2034 2216 
z
M 1403 2484 
Q 997 2584 770 2862 
Q 544 3141 544 3541 
Q 544 4100 942 4425 
Q 1341 4750 2034 4750 
Q 2731 4750 3128 4425 
Q 3525 4100 3525 3541 
Q 3525 3141 3298 2862 
Q 3072 2584 2669 2484 
Q 3125 2378 3379 2068 
Q 3634 1759 3634 1313 
Q 3634 634 3220 271 
Q 2806 -91 2034 -91 
Q 1263 -91 848 271 
Q 434 634 434 1313 
Q 434 1759 690 2068 
Q 947 2378 1403 2484 
z
M 1172 3481 
Q 1172 3119 1398 2916 
Q 1625 2713 2034 2713 
Q 2441 2713 2670 2916 
Q 2900 3119 2900 3481 
Q 2900 3844 2670 4047 
Q 2441 4250 2034 4250 
Q 1625 4250 1398 4047 
Q 1172 3844 1172 3481 
z
" transform="scale(0.015625)"/>
       </defs>
       <use xlink:href="#DejaVuSans-30"/>
       <use xlink:href="#DejaVuSans-2e" x="63.623047"/>
       <use xlink:href="#DejaVuSans-38" x="95.410156"/>
      </g>
     </g>
    </g>
    <g id="ytick_6">
     <g id="line2d_21">
      <path d="M 61.410938 12.898828 
L 418.530938 12.898828 
" clip-path="url(#p3c3110dc2b)" style="fill: none; stroke: #b0b0b0; stroke-width: 0.8; stroke-linecap: square"/>
     </g>
     <g id="line2d_22">
      <g>
       <use xlink:href="#m6f3f5b6aff" x="61.410938" y="12.898828" style="stroke: #000000; stroke-width: 0.8"/>
      </g>
     </g>
     <g id="text_12">
      <!-- 1.0 -->
      <g transform="translate(30.55625 18.597656) scale(0.15 -0.15)">
       <use xlink:href="#DejaVuSans-31"/>
       <use xlink:href="#DejaVuSans-2e" x="63.623047"/>
       <use xlink:href="#DejaVuSans-30" x="95.410156"/>
      </g>
     </g>
    </g>
    <g id="text_13">
     <!-- p -->
     <g transform="translate(22.396875 152.303266) rotate(-90) scale(0.2 -0.2)">
      <defs>
       <path id="DejaVuSans-70" d="M 1159 525 
L 1159 -1331 
L 581 -1331 
L 581 3500 
L 1159 3500 
L 1159 2969 
Q 1341 3281 1617 3432 
Q 1894 3584 2278 3584 
Q 2916 3584 3314 3078 
Q 3713 2572 3713 1747 
Q 3713 922 3314 415 
Q 2916 -91 2278 -91 
Q 1894 -91 1617 61 
Q 1341 213 1159 525 
z
M 3116 1747 
Q 3116 2381 2855 2742 
Q 2594 3103 2138 3103 
Q 1681 3103 1420 2742 
Q 1159 2381 1159 1747 
Q 1159 1113 1420 752 
Q 1681 391 2138 391 
Q 2594 391 2855 752 
Q 3116 1113 3116 1747 
z
" transform="scale(0.015625)"/>
      </defs>
      <use xlink:href="#DejaVuSans-70"/>
     </g>
    </g>
   </g>
   <g id="line2d_23">
    <path d="M 77.643665 269.02398 
L 80.046108 268.499398 
L 82.286225 268.237464 
L 84.428945 268.208659 
L 86.571665 268.403419 
L 88.74685 268.827161 
L 91.019432 269.49937 
L 93.519272 270.478502 
L 96.441163 271.874109 
L 100.953861 274.315683 
L 105.401628 276.637907 
L 108.03133 277.761877 
L 110.238981 278.467924 
L 112.186908 278.863279 
L 114.004974 279.008978 
L 115.725643 278.927602 
L 117.413847 278.626336 
L 119.10205 278.096721 
L 120.822719 277.317831 
L 122.575854 276.277494 
L 124.426385 274.917835 
L 126.439243 273.153711 
L 128.646894 270.915157 
L 131.24413 267.951538 
L 134.81533 263.505586 
L 140.659112 256.225491 
L 143.158952 253.489058 
L 145.204276 251.565522 
L 146.989876 250.178711 
L 148.613148 249.192027 
L 150.106559 248.539124 
L 151.502574 248.16561 
L 152.833658 248.032938 
L 154.164741 248.125126 
L 155.495825 248.445671 
L 156.859374 249.011051 
L 158.255388 249.834796 
L 159.748799 250.98136 
L 161.372072 252.521204 
L 163.157672 254.536374 
L 165.202996 257.198708 
L 167.702836 260.839968 
L 176.273716 273.665106 
L 178.059316 275.749888 
L 179.552727 277.165175 
L 180.851345 278.1028 
L 182.020101 278.679963 
L 183.091461 278.962856 
L 184.09789 278.995501 
L 185.039388 278.807113 
L 185.980887 278.394394 
L 186.95485 277.718968 
L 187.961279 276.74299 
L 189.032639 275.380145 
L 190.16893 273.555601 
L 191.370152 271.188105 
L 192.636305 268.190842 
L 193.999854 264.374759 
L 195.460799 259.600071 
L 197.019141 253.722067 
L 198.707345 246.447886 
L 200.52541 237.586033 
L 202.505803 226.775132 
L 204.680988 213.613338 
L 207.115898 197.468513 
L 210.005323 176.741901 
L 213.933643 146.78647 
L 221.205905 91.132592 
L 224.030399 71.395998 
L 226.367912 56.578816 
L 228.38077 45.197655 
L 230.16637 36.335192 
L 231.757178 29.519174 
L 233.185658 24.329531 
L 234.484276 20.416255 
L 235.653032 17.574113 
L 236.691927 15.602747 
L 237.633425 14.275565 
L 238.445061 13.486152 
L 239.191767 13.052071 
L 239.873541 12.901225 
L 240.52285 12.975725 
L 241.204625 13.282869 
L 241.918865 13.855478 
L 242.698036 14.77138 
L 243.574603 16.16204 
L 244.548567 18.149076 
L 245.619927 20.862453 
L 246.821148 24.545657 
L 248.152232 29.391334 
L 249.613178 35.591741 
L 251.23645 43.49612 
L 253.054516 53.510779 
L 255.099839 66.075492 
L 257.469818 82.073632 
L 260.391708 103.397167 
L 264.936872 138.446893 
L 270.391068 180.098251 
L 273.442821 201.689362 
L 275.975127 218.078689 
L 278.215243 231.171184 
L 280.228101 241.67481 
L 282.078632 250.205028 
L 283.799301 257.131114 
L 285.390108 262.65762 
L 286.883519 267.078015 
L 288.279534 270.544989 
L 289.578152 273.20477 
L 290.811839 275.241021 
L 291.94813 276.708119 
L 293.01949 277.746802 
L 294.025919 278.431092 
L 294.999883 278.837244 
L 295.973847 279.004653 
L 296.94781 278.947146 
L 297.954239 278.666916 
L 299.058065 278.12125 
L 300.259287 277.270298 
L 301.622836 276.01727 
L 303.181178 274.26783 
L 305.031708 271.841985 
L 307.466618 268.257656 
L 315.388188 256.309788 
L 317.465978 253.721918 
L 319.284043 251.799274 
L 320.907316 250.391191 
L 322.433192 249.355262 
L 323.861672 248.650222 
L 325.225221 248.221784 
L 326.556305 248.035256 
L 327.887388 248.075477 
L 329.218472 248.337125 
L 330.614487 248.840363 
L 332.107898 249.623754 
L 333.698705 250.715458 
L 335.451839 252.193354 
L 337.464698 254.192534 
L 339.867141 256.907669 
L 343.211083 261.054548 
L 349.574312 268.983926 
L 352.204014 271.871416 
L 354.44413 274.013804 
L 356.456988 275.642298 
L 358.339985 276.886071 
L 360.125585 277.803027 
L 361.846254 278.440555 
L 363.534458 278.833159 
L 365.255127 279.003234 
L 367.008261 278.950487 
L 368.858792 278.667234 
L 370.839185 278.134779 
L 373.079301 277.293611 
L 375.773934 276.029734 
L 379.864581 273.828917 
L 384.896727 271.174885 
L 387.753687 269.923683 
L 390.221061 269.082691 
L 392.493643 268.542049 
L 394.668828 268.253374 
L 396.811548 268.194469 
L 398.986734 268.360404 
L 401.22685 268.755929 
L 402.29821 269.01942 
L 402.29821 269.01942 
" clip-path="url(#p3c3110dc2b)" style="fill: none; stroke: #1f77b4; stroke-width: 1.5; stroke-linecap: square"/>
   </g>
   <g id="line2d_24">
    <path d="M 77.643665 269.021373 
L 80.046108 268.496403 
L 82.286225 268.234161 
L 84.428945 268.205123 
L 86.571665 268.399722 
L 88.74685 268.823382 
L 91.019432 269.495598 
L 93.519272 270.474848 
L 96.441163 271.870735 
L 100.953861 274.313001 
L 105.401628 276.636118 
L 108.03133 277.760656 
L 110.238981 278.46717 
L 112.186908 278.862913 
L 114.004974 279.00894 
L 115.725643 278.927835 
L 117.413847 278.626788 
L 119.10205 278.09734 
L 120.822719 277.318557 
L 122.575854 276.278263 
L 124.426385 274.918568 
L 126.439243 273.15431 
L 128.646894 270.915494 
L 131.24413 267.951418 
L 134.81533 263.504604 
L 140.659112 256.222678 
L 143.158952 253.485385 
L 145.204276 251.56115 
L 146.989876 250.17375 
L 148.613148 249.186559 
L 150.106559 248.533223 
L 151.502574 248.15934 
L 152.833658 248.026356 
L 154.164741 248.118272 
L 155.495825 248.438592 
L 156.859374 249.003792 
L 158.255388 249.827411 
L 159.748799 250.973908 
L 161.372072 252.513761 
L 163.157672 254.529042 
L 165.202996 257.191635 
L 167.702836 260.833397 
L 176.273716 273.66156 
L 178.059316 275.747155 
L 179.552727 277.163148 
L 180.851345 278.101399 
L 182.020101 278.67913 
L 183.091461 278.962544 
L 184.09789 278.995674 
L 185.039388 278.807736 
L 185.980887 278.39546 
L 186.95485 277.720482 
L 187.961279 276.744954 
L 189.032639 275.382571 
L 190.16893 273.558497 
L 191.370152 271.191468 
L 192.636305 268.194663 
L 193.999854 264.379029 
L 195.460799 259.604769 
L 197.019141 253.727155 
L 198.707345 246.453316 
L 200.52541 237.591735 
L 202.505803 226.781014 
L 204.680988 213.619282 
L 207.115898 197.474365 
L 210.005323 176.747441 
L 213.933643 146.791301 
L 221.205905 91.135609 
L 224.030399 71.398278 
L 226.367912 56.580525 
L 228.38077 45.198917 
L 230.16637 36.336105 
L 231.757178 29.519818 
L 233.185658 24.329971 
L 234.484276 20.416542 
L 235.653032 17.57429 
L 236.691927 15.602848 
L 237.633425 14.275615 
L 238.445061 13.486172 
L 239.191767 13.052075 
L 239.873541 12.901223 
L 240.52285 12.975726 
L 241.204625 13.282881 
L 241.918865 13.855511 
L 242.698036 14.771445 
L 243.574603 16.162153 
L 244.548567 18.149256 
L 245.619927 20.862724 
L 246.821148 24.546048 
L 248.152232 29.391876 
L 249.613178 35.59247 
L 251.23645 43.497075 
L 253.054516 53.512002 
L 255.099839 66.077026 
L 257.469818 82.075517 
L 260.391708 103.39945 
L 264.936872 138.449638 
L 270.391068 180.101197 
L 273.442821 201.692231 
L 275.975127 218.081395 
L 278.215243 231.173678 
L 280.228101 241.677067 
L 282.078632 250.207038 
L 283.799301 257.132874 
L 285.390108 262.659137 
L 286.883519 267.0793 
L 288.279534 270.546057 
L 289.578152 273.20564 
L 290.811839 275.241707 
L 291.94813 276.708643 
L 293.01949 277.74718 
L 294.025919 278.431341 
L 294.999883 278.837375 
L 295.973847 279.004677 
L 296.94781 278.947072 
L 297.954239 278.666752 
L 299.058065 278.121001 
L 300.259287 277.269974 
L 301.622836 276.016882 
L 303.181178 274.2674 
L 305.031708 271.841547 
L 307.466618 268.257276 
L 315.388188 256.310053 
L 317.465978 253.722432 
L 319.284043 251.80002 
L 320.907316 250.392146 
L 322.433192 249.356415 
L 323.861672 248.651554 
L 325.225221 248.223279 
L 326.556305 248.036902 
L 327.887388 248.077261 
L 329.218472 248.339035 
L 330.614487 248.842387 
L 332.107898 249.625879 
L 333.698705 250.717665 
L 335.451839 252.195619 
L 337.464698 254.194822 
L 339.867141 256.909923 
L 343.243548 261.098019 
L 349.541847 268.947735 
L 352.204014 271.872676 
L 354.44413 274.014809 
L 356.456988 275.643077 
L 358.339985 276.886649 
L 360.125585 277.80343 
L 361.846254 278.440807 
L 363.534458 278.833286 
L 365.255127 279.003257 
L 367.008261 278.950433 
L 368.858792 278.667131 
L 370.839185 278.134663 
L 373.079301 277.293528 
L 375.773934 276.029753 
L 379.864581 273.829208 
L 384.896727 271.175635 
L 387.753687 269.924718 
L 390.221061 269.083965 
L 392.493643 268.543525 
L 394.668828 268.255019 
L 396.811548 268.196249 
L 398.986734 268.362285 
L 401.22685 268.75787 
L 402.29821 269.021373 
L 402.29821 269.021373 
" clip-path="url(#p3c3110dc2b)" style="fill: none; stroke-dasharray: 5.55,2.4; stroke-dashoffset: 0; stroke: #2ca02c; stroke-width: 1.5"/>
   </g>
   <g id="patch_3">
    <path d="M 61.410938 279.010828 
L 61.410938 12.898828 
" style="fill: none; stroke: #000000; stroke-width: 0.8; stroke-linejoin: miter; stroke-linecap: square"/>
   </g>
   <g id="patch_4">
    <path d="M 418.530938 279.010828 
L 418.530938 12.898828 
" style="fill: none; stroke: #000000; stroke-width: 0.8; stroke-linejoin: miter; stroke-linecap: square"/>
   </g>
   <g id="patch_5">
    <path d="M 61.410938 279.010828 
L 418.530938 279.010828 
" style="fill: none; stroke: #000000; stroke-width: 0.8; stroke-linejoin: miter; stroke-linecap: square"/>
   </g>
   <g id="patch_6">
    <path d="M 61.410938 12.898828 
L 418.530938 12.898828 
" style="fill: none; stroke: #000000; stroke-width: 0.8; stroke-linejoin: miter; stroke-linecap: square"/>
   </g>
  </g>
 </g>
 <defs>
  <clipPath id="p3c3110dc2b">
   <rect x="61.410938" y="12.898828" width="357.12" height="266.112"/>
  </clipPath>
 </defs>
</svg>
