<?xml version="1.0" encoding="utf-8" standalone="no"?>
<!DOCTYPE svg PUBLIC "-//W3C//DTD SVG 1.1//EN"
  "http://www.w3.org/Graphics/SVG/1.1/DTD/svg11.dtd">
<svg xmlns:xlink="http://www.w3.org/1999/xlink" width="425.730937pt" height="331.084266pt" viewBox="0 0 425.730937 331.084266" xmlns="http://www.w3.org/2000/svg" version="1.1">
 <defs>
  <style type="text/css">*{stroke-linejoin: round; stroke-linecap: butt}</style>
 </defs>
 <g id="figure_1">
  <g id="patch_1">
   <path d="M 0 331.084266 
L 425.730937 331.084266 
L 425.730937 0 
L 0 0 
L 0 331.084266 
z
" style="fill: none"/>
  </g>
  <g id="axes_1">
   <g id="patch_2">
    <path d="M 61.410938 279.010828 
L 418.530938 279.010828 
L 418.530938 12.898828 
L 61.410938 12.898828 
L 61.410938 279.010828 
z
" style="fill: none"/>
   </g>
   <g id="matplotlib.axis_1">
    <g id="xtick_1">
     <g id="line2d_1">
      <path d="M 77.643665 279.010828 
L 77.643665 12.898828 
" clip-path="url(#p3c3110dc2b)" style="fill: none; stroke: #b0b0b0; stroke-width: 0.8; stroke-linecap: square"/>
     </g>
     <g id="line2d_2">
      <defs>
       <path id="md39032bed2" d="M 0 0 
L 0 3.5 
" style="stroke: #000000; stroke-width: 0.8"/>
      </defs>
      <g>
       <use xlink:href="#md39032bed2" x="77.643665" y="279.010828" style="stroke: #000000; stroke-width: 0.8"/>
      </g>
     </g>
     <g id="text_1">
      <!-- 0 -->
      <g transform="translate(72.87179 297.408484) scale(0.15 -0.15)">
       <defs>
        <path id="DejaVuSans-30" d="M 2034 4250 
Q 1547 4250 1301 3770 
Q 1056 3291 1056 2328 
Q 1056 1369 1301 889 
Q 1547 409 2034 409 
Q 2525 409 2770 889 
Q 3016 1369 3016 2328 
Q 3016 3291 2770 3770 
Q 2525 4250 2034 4250 
z
M 2034 4750 
Q 2819 4750 3233 4129 
Q 3647 3509 3647 2328 
Q 3647 1150 3233 529 
Q 2819 -91 2034 -91 
Q 1250 -91 836 529 
Q 422 1150 422 2328 
Q 422 3509 836 4129 
Q 1250 4750 2034 4750 
z
" transform="scale(0.015625)"/>
       </defs>
       <use xlink:href="#DejaVuSans-30"/>
      </g>
     </g>
    </g>
    <g id="xtick_2">
     <g id="line2d_3">
      <path d="M 158.807301 279.010828 
L 158.807301 12.898828 
" clip-path="url(#p3c3110dc2b)" style="fill: none; stroke: #b0b0b0; stroke-width: 0.8; stroke-linecap: square"/>
     </g>
     <g id="line2d_4">
      <g>
       <use xlink:href="#md39032bed2" x="158.807301" y="279.010828" style="stroke: #000000; stroke-width: 0.8"/>
      </g>
     </g>
     <g id="text_2">
      <!-- 100 -->
      <g transform="translate(144.491676 297.408484) scale(0.15 -0.15)">
       <defs>
        <path id="DejaVuSans-31" d="M 794 531 
L 1825 531 
L 1825 4091 
L 703 3866 
L 703 4441 
L 1819 4666 
L 2450 4666 
L 2450 531 
L 3481 531 
L 3481 0 
L 794 0 
L 794 531 
z
" transform="scale(0.015625)"/>
       </defs>
       <use xlink:href="#DejaVuSans-31"/>
       <use xlink:href="#DejaVuSans-30" x="63.623047"/>
       <use xlink:href="#DejaVuSans-30" x="127.246094"/>
      </g>
     </g>
    </g>
    <g id="xtick_3">
     <g id="line2d_5">
      <path d="M 239.970938 279.010828 
L 239.970938 12.898828 
" clip-path="url(#p3c3110dc2b)" style="fill: none; stroke: #b0b0b0; stroke-width: 0.8; stroke-linecap: square"/>
     </g>
     <g id="line2d_6">
      <g>
       <use xlink:href="#md39032bed2" x="239.970938" y="279.010828" style="stroke: #000000; stroke-width: 0.8"/>
      </g>
     </g>
     <g id="text_3">
      <!-- 200 -->
      <g transform="translate(225.655313 297.408484) scale(0.15 -0.15)">
       <defs>
        <path id="DejaVuSans-32" d="M 1228 531 
L 3431 531 
L 3431 0 
L 469 0 
L 469 531 
Q 828 903 1448 1529 
Q 2069 2156 2228 2338 
Q 2531 2678 2651 2914 
Q 2772 3150 2772 3378 
Q 2772 3750 2511 3984 
Q 2250 4219 1831 4219 
Q 1534 4219 1204 4116 
Q 875 4013 500 3803 
L 500 4441 
Q 881 4594 1212 4672 
Q 1544 4750 1819 4750 
Q 2544 4750 2975 4387 
Q 3406 4025 3406 3419 
Q 3406 3131 3298 2873 
Q 3191 2616 2906 2266 
Q 2828 2175 2409 1742 
Q 1991 1309 1228 531 
z
" transform="scale(0.015625)"/>
       </defs>
       <use xlink:href="#DejaVuSans-32"/>
       <use xlink:href="#DejaVuSans-30" x="63.623047"/>
       <use xlink:href="#DejaVuSans-30" x="127.246094"/>
      </g>
     </g>
    </g>
    <g id="xtick_4">
     <g id="line2d_7">
      <path d="M 321.134574 279.010828 
L 321.134574 12.898828 
" clip-path="url(#p3c3110dc2b)" style="fill: none; stroke: #b0b0b0; stroke-width: 0.8; stroke-linecap: square"/>
     </g>
     <g id="line2d_8">
      <g>
       <use xlink:href="#md39032bed2" x="321.134574" y="279.010828" style="stroke: #000000; stroke-width: 0.8"/>
      </g>
     </g>
     <g id="text_4">
      <!-- 300 -->
      <g transform="translate(306.818949 297.408484) scale(0.15 -0.15)">
       <defs>
        <path id="DejaVuSans-33" d="M 2597 2516 
Q 3050 2419 3304 2112 
Q 3559 1806 3559 1356 
Q 3559 666 3084 287 
Q 2609 -91 1734 -91 
Q 1441 -91 1130 -33 
Q 819 25 488 141 
L 488 750 
Q 750 597 1062 519 
Q 1375 441 1716 441 
Q 2309 441 2620 675 
Q 2931 909 2931 1356 
Q 2931 1769 2642 2001 
Q 2353 2234 1838 2234 
L 1294 2234 
L 1294 2753 
L 1863 2753 
Q 2328 2753 2575 2939 
Q 2822 3125 2822 3475 
Q 2822 3834 2567 4026 
Q 2313 4219 1838 4219 
Q 1578 4219 1281 4162 
Q 984 4106 628 3988 
L 628 4550 
Q 988 4650 1302 4700 
Q 1616 4750 1894 4750 
Q 2613 4750 3031 4423 
Q 3450 4097 3450 3541 
Q 3450 3153 3228 2886 
Q 3006 2619 2597 2516 
z
" transform="scale(0.015625)"/>
       </defs>
       <use xlink:href="#DejaVuSans-33"/>
       <use xlink:href="#DejaVuSans-30" x="63.623047"/>
       <use xlink:href="#DejaVuSans-30" x="127.246094"/>
      </g>
     </g>
    </g>
    <g id="xtick_5">
     <g id="line2d_9">
      <path d="M 402.29821 279.010828 
L 402.29821 12.898828 
" clip-path="url(#p3c3110dc2b)" style="fill: none; stroke: #b0b0b0; stroke-width: 0.8; stroke-linecap: square"/>
     </g>
     <g id="line2d_10">
      <g>
       <use xlink:href="#md39032bed2" x="402.29821" y="279.010828" style="stroke: #000000; stroke-width: 0.8"/>
      </g>
     </g>
     <g id="text_5">
      <!-- 400 -->
      <g transform="translate(387.982585 297.408484) scale(0.15 -0.15)">
       <defs>
        <path id="DejaVuSans-34" d="M 2419 4116 
L 825 1625 
L 2419 1625 
L 2419 4116 
z
M 2253 4666 
L 3047 4666 
L 3047 1625 
L 3713 1625 
L 3713 1100 
L 3047 1100 
L 3047 0 
L 2419 0 
L 2419 1100 
L 313 1100 
L 313 1709 
L 2253 4666 
z
" transform="scale(0.015625)"/>
       </defs>
       <use xlink:href="#DejaVuSans-34"/>
       <use xlink:href="#DejaVuSans-30" x="63.623047"/>
       <use xlink:href="#DejaVuSans-30" x="127.246094"/>
      </g>
     </g>
    </g>
    <g id="text_6">
     <!-- t -->
     <g transform="translate(236.050625 319.724891) scale(0.2 -0.2)">
      <defs>
       <path id="DejaVuSans-74" d="M 1172 4494 
L 1172 3500 
L 2356 3500 
L 2356 3053 
L 1172 3053 
L 1172 1153 
Q 1172 725 1289 603 
Q 1406 481 1766 481 
L 2356 481 
L 2356 0 
L 1766 0 
Q 1100 0 847 248 
Q 594 497 594 1153 
L 594 3053 
L 172 3053 
L 172 3500 
L 594 3500 
L 594 4494 
L 1172 4494 
z
" transform="scale(0.015625)"/>
      </defs>
      <use xlink:href="#DejaVuSans-74"/>
     </g>
    </g>
   </g>
   <g id="matplotlib.axis_2">
    <g id="ytick_1">
     <g id="line2d_11">
      <path d="M 61.410938 279.010828 
L 418.530938 279.010828 
" clip-path="url(#p3c3110dc2b)" style="fill: none; stroke: #b0b0b0; stroke-width: 0.8; stroke-linecap: square"/>
     </g>
     <g id="line2d_12">
      <defs>
       <path id="m6f3f5b6aff" d="M 0 0 
L -3.5 0 
" style="stroke: #000000; stroke-width: 0.8"/>
      </defs>
      <g>
       <use xlink:href="#m6f3f5b6aff" x="61.410938" y="279.010828" style="stroke: #000000; stroke-width: 0.8"/>
      </g>
     </g>
     <g id="text_7">
      <!-- 0.0 -->
      <g transform="translate(30.55625 284.709656) scale(0.15 -0.15)">
       <defs>
        <path id="DejaVuSans-2e" d="M 684 794 
L 1344 794 
L 1344 0 
L 684 0 
L 684 794 
z
" transform="scale(0.015625)"/>
       </defs>
       <use xlink:href="#DejaVuSans-30"/>
       <use xlink:href="#DejaVuSans-2e" x="63.623047"/>
       <use xlink:href="#DejaVuSans-30" x="95.410156"/>
      </g>
     </g>
    </g>
    <g id="ytick_2">
     <g id="line2d_13">
      <path d="M 61.410938 225.788428 
L 418.530938 225.788428 
" clip-path="url(#p3c3110dc2b)" style="fill: none; stroke: #b0b0b0; stroke-width: 0.8; stroke-linecap: square"/>
     </g>
     <g id="line2d_14">
      <g>
       <use xlink:href="#m6f3f5b6aff" x="61.410938" y="225.788428" style="stroke: #000000; stroke-width: 0.8"/>
      </g>
     </g>
     <g id="text_8">
      <!-- 0.2 -->
      <g transform="translate(30.55625 231.487256) scale(0.15 -0.15)">
       <use xlink:href="#DejaVuSans-30"/>
       <use xlink:href="#DejaVuSans-2e" x="63.623047"/>
       <use xlink:href="#DejaVuSans-32" x="95.410156"/>
      </g>
     </g>
    </g>
    <g id="ytick_3">
     <g id="line2d_15">
      <path d="M 61.410938 172.566028 
L 418.530938 172.566028 
" clip-path="url(#p3c3110dc2b)" style="fill: none; stroke: #b0b0b0; stroke-width: 0.8; stroke-linecap: square"/>
     </g>
     <g id="line2d_16">
      <g>
       <use xlink:href="#m6f3f5b6aff" x="61.410938" y="172.566028" style="stroke: #000000; stroke-width: 0.8"/>
      </g>
     </g>
     <g id="text_9">
      <!-- 0.4 -->
      <g transform="translate(30.55625 178.264856) scale(0.15 -0.15)">
       <use xlink:href="#DejaVuSans-30"/>
       <use xlink:href="#DejaVuSans-2e" x="63.623047"/>
       <use xlink:href="#DejaVuSans-34" x="95.410156"/>
      </g>
     </g>
    </g>
    <g id="ytick_4">
     <g id="line2d_17">
      <path d="M 61.410938 119.343628 
L 418.530938 119.343628 
" clip-path="url(#p3c3110dc2b)" style="fill: none; stroke: #b0b0b0; stroke-width: 0.8; stroke-linecap: square"/>
     </g>
     <g id="line2d_18">
      <g>
       <use xlink:href="#m6f3f5b6aff" x="61.410938" y="119.343628" style="stroke: #000000; stroke-width: 0.8"/>
      </g>
     </g>
     <g id="text_10">
      <!-- 0.6 -->
      <g transform="translate(30.55625 125.042456) scale(0.15 -0.15)">
       <defs>
        <path id="DejaVuSans-36" d="M 2113 2584 
Q 1688 2584 1439 2293 
Q 1191 2003 1191 1497 
Q 1191 994 1439 701 
Q 1688 409 2113 409 
Q 2538 409 2786 701 
Q 3034 994 3034 1497 
Q 3034 2003 2786 2293 
Q 2538 2584 2113 2584 
z
M 3366 4563 
L 3366 3988 
Q 3128 4100 2886 4159 
Q 2644 4219 2406 4219 
Q 1781 4219 1451 3797 
Q 1122 3375 1075 2522 
Q 1259 2794 1537 2939 
Q 1816 3084 2150 3084 
Q 2853 3084 3261 2657 
Q 3669 2231 3669 1497 
Q 3669 778 3244 343 
Q 2819 -91 2113 -91 
Q 1303 -91 875 529 
Q 447 1150 447 2328 
Q 447 3434 972 4092 
Q 1497 4750 2381 4750 
Q 2619 4750 2861 4703 
Q 3103 4656 3366 4563 
z
" transform="scale(0.015625)"/>
       </defs>
       <use xlink:href="#DejaVuSans-30"/>
       <use xlink:href="#DejaVuSans-2e" x="63.623047"/>
       <use xlink:href="#DejaVuSans-36" x="95.410156"/>
      </g>
     </g>
    </g>
    <g id="ytick_5">
     <g id="line2d_19">
      <path d="M 61.410938 66.121228 
L 418.530938 66.121228 
" clip-path="url(#p3c3110dc2b)" style="fill: none; stroke: #b0b0b0; stroke-width: 0.8; stroke-linecap: square"/>
     </g>
     <g id="line2d_20">
      <g>
       <use xlink:href="#m6f3f5b6aff" x="61.410938" y="66.121228" style="stroke: #000000; stroke-width: 0.8"/>
      </g>
     </g>
     <g id="text_11">
      <!-- 0.8 -->
      <g transform="translate(30.55625 71.820056) scale(0.15 -0.15)">
       <defs>
        <path id="DejaVuSans-38" d="M 2034 2216 
Q 1584 2216 1326 1975 
Q 1069 1734 1069 1313 
Q 1069 891 1326 650 
Q 1584 409 2034 409 
Q 2484 409 2743 651 
Q 3003 894 3003 1313 
Q 3003 1734 2745 1975 
Q 2488 2216 2034 2216 
z
M 1403 2484 
Q 997 2584 770 2862 
Q 544 3141 544 3541 
Q 544 4100 942 4425 
Q 1341 4750 2034 4750 
Q 2731 4750 3128 4425 
Q 3525 4100 3525 3541 
Q 3525 3141 3298 2862 
Q 3072 2584 2669 2484 
Q 3125 2378 3379 2068 
Q 3634 1759 3634 1313 
Q 3634 634 3220 271 
Q 2806 -91 2034 -91 
Q 1263 -91 848 271 
Q 434 634 434 1313 
Q 434 1759 690 2068 
Q 947 2378 1403 2484 
z
M 1172 3481 
Q 1172 3119 1398 2916 
Q 1625 2713 2034 2713 
Q 2441 2713 2670 2916 
Q 2900 3119 2900 3481 
Q 2900 3844 2670 4047 
Q 2441 4250 2034 4250 
Q 1625 4250 1398 4047 
Q 1172 3844 1172 3481 
z
" transform="scale(0.015625)"/>
       </defs>
       <use xlink:href="#DejaVuSans-30"/>
       <use xlink:href="#DejaVuSans-2e" x="63.623047"/>
       <use xlink:href="#DejaVuSans-38" x="95.410156"/>
      </g>
     </g>
    </g>
    <g id="ytick_6">
     <g id="line2d_21">
      <path d="M 61.410938 12.898828 
L 418.530938 12.898828 
" clip-path="url(#p3c3110dc2b)" style="fill: none; stroke: #b0b0b0; stroke-width: 0.8; stroke-linecap: square"/>
     </g>
     <g id="line2d_22">
      <g>
       <use xlink:href="#m6f3f5b6aff" x="61.410938" y="12.898828" style="stroke: #000000; stroke-width: 0.8"/>
      </g>
     </g>
     <g id="text_12">
      <!-- 1.0 -->
      <g transform="translate(30.55625 18.597656) scale(0.15 -0.15)">
       <use xlink:href="#DejaVuSans-31"/>
       <use xlink:href="#DejaVuSans-2e" x="63.623047"/>
       <use xlink:href="#DejaVuSans-30" x="95.410156"/>
      </g>
     </g>
    </g>
    <g id="text_13">
     <!-- p -->
     <g transform="translate(22.396875 152.303266) rotate(-90) scale(0.2 -0.2)">
      <defs>
       <path id="DejaVuSans-70" d="M 1159 525 
L 1159 -1331 
L 581 -1331 
L 581 3500 
L 1159 3500 
L 1159 2969 
Q 1341 3281 1617 3432 
Q 1894 3584 2278 3584 
Q 2916 3584 3314 3078 
Q 3713 2572 3713 1747 
Q 3713 922 3314 415 
Q 2916 -91 2278 -91 
Q 1894 -91 1617 61 
Q 1341 213 1159 525 
z
M 3116 1747 
Q 3116 2381 2855 2742 
Q 2594 3103 2138 3103 
Q 1681 3103 1420 2742 
Q 1159 2381 1159 1747 
Q 1159 1113 1420 752 
Q 1681 391 2138 391 
Q 2594 391 2855 752 
Q 3116 1113 3116 1747 
z
" transform="scale(0.015625)"/>
      </defs>
      <use xlink:href="#DejaVuSans-70"/>
     </g>
    </g>
   </g>
   <g id="line2d_23">
    <path d="M 77.643665 279.010828 
L 77.805992 278.578688 
L 78.03325 277.111507 
L 78.357905 273.363 
L 78.844887 264.694092 
L 79.948712 239.278046 
L 80.598021 227.400944 
L 81.020072 223.124163 
L 81.279796 222.138904 
L 81.409658 222.135073 
L 81.571985 222.58495 
L 81.799243 224.035864 
L 82.156363 228.080483 
L 82.67581 236.946437 
L 84.234152 265.373809 
L 84.623738 268.370676 
L 84.850996 268.858995 
L 84.948392 268.772048 
L 85.110719 268.231676 
L 85.370443 266.362303 
L 85.727563 261.927651 
L 86.279476 251.747787 
L 87.902748 219.482235 
L 88.292334 215.933376 
L 88.552058 215.058506 
L 88.681919 215.083256 
L 88.844247 215.543392 
L 89.10397 217.234512 
L 89.46109 221.291084 
L 90.013003 230.504007 
L 91.409018 255.005365 
L 91.831068 258.540836 
L 92.090792 259.235517 
L 92.188188 259.188831 
L 92.350516 258.736782 
L 92.610239 257.060072 
L 92.967359 252.977756 
L 93.486807 244.108718 
L 95.239941 211.706986 
L 95.629527 208.839363 
L 95.856785 208.35335 
L 95.986647 208.476113 
L 96.181439 209.196669 
L 96.473628 211.421223 
L 96.895679 216.722505 
L 97.609919 229.16769 
L 98.551418 244.757366 
L 99.005934 249.028164 
L 99.298123 250.099024 
L 99.427985 250.120326 
L 99.557847 249.858275 
L 99.785105 248.726375 
L 100.109759 245.699839 
L 100.564276 239.092972 
L 101.408378 222.77691 
L 102.252479 208.100685 
L 102.706996 203.475923 
L 102.999185 202.172199 
L 103.161512 202.048071 
L 103.291374 202.257635 
L 103.486167 203.074894 
L 103.778356 205.365084 
L 104.232872 211.068357 
L 105.076974 225.34357 
L 105.856145 236.968111 
L 106.278196 240.559295 
L 106.570385 241.517562 
L 106.700247 241.513018 
L 106.862574 241.130908 
L 107.089832 239.905191 
L 107.446952 236.456652 
L 107.966399 228.736587 
L 109.81693 198.559649 
L 110.17405 196.421079 
L 110.401308 196.070734 
L 110.53117 196.228129 
L 110.725963 196.94158 
L 111.018152 199.025493 
L 111.440203 203.873123 
L 112.186908 215.612692 
L 113.063476 228.509762 
L 113.517992 232.375934 
L 113.810181 233.369376 
L 113.940043 233.40504 
L 114.069905 233.187446 
L 114.297163 232.204233 
L 114.621818 229.536555 
L 115.076334 223.672418 
L 115.920436 209.113343 
L 116.764538 195.946179 
L 117.219054 191.76323 
L 117.511243 190.562199 
L 117.67357 190.431026 
L 117.803432 190.602312 
L 117.998225 191.309482 
L 118.290414 193.324453 
L 118.712465 197.958322 
L 119.491636 209.600815 
L 120.335738 221.221292 
L 120.790254 224.810928 
L 121.082443 225.701836 
L 121.212305 225.7135 
L 121.374632 225.391581 
L 121.60189 224.32272 
L 121.926545 221.618839 
L 122.413527 215.398744 
L 124.426385 186.683976 
L 124.751039 185.261483 
L 124.945832 185.101173 
L 125.075694 185.284328 
L 125.302952 186.148331 
L 125.627607 188.498055 
L 126.114588 194.022077 
L 127.932654 216.948586 
L 128.257308 218.309755 
L 128.452101 218.464367 
L 128.581963 218.284748 
L 128.809221 217.431444 
L 129.133876 215.080651 
L 129.588392 209.876268 
L 130.400028 197.406111 
L 131.276596 185.073188 
L 131.731112 181.290556 
L 132.055767 180.130539 
L 132.218094 180.06404 
L 132.380421 180.339282 
L 132.607679 181.280631 
L 132.964799 183.958358 
L 133.484247 189.891317 
L 135.075054 209.392604 
L 135.432174 211.237289 
L 135.659432 211.605716 
L 135.789294 211.523178 
L 135.984087 210.99976 
L 136.276276 209.34462 
L 136.665861 205.678234 
L 137.282705 197.416502 
L 138.581323 179.585943 
L 139.035839 176.229382 
L 139.328028 175.342349 
L 139.490356 175.303448 
L 139.652683 175.587219 
L 139.912407 176.68804 
L 140.269527 179.37802 
L 140.821439 185.549043 
L 142.249919 202.403564 
L 142.639505 204.59715 
L 142.899228 205.107741 
L 143.02909 205.061659 
L 143.191418 204.720097 
L 143.451141 203.532334 
L 143.808261 200.708934 
L 144.360174 194.220297 
L 145.983447 173.625224 
L 146.373032 171.354005 
L 146.632756 170.79083 
L 146.762618 170.804117 
L 146.924945 171.094618 
L 147.184668 172.168934 
L 147.541788 174.751622 
L 148.093701 180.624289 
L 149.489716 196.264132 
L 149.911767 198.526868 
L 150.17149 198.974887 
L 150.301352 198.913689 
L 150.496145 198.464539 
L 150.788334 197.01175 
L 151.177919 193.764899 
L 151.794763 186.408846 
L 153.093381 170.434628 
L 153.547898 167.396802 
L 153.840087 166.576857 
L 154.002414 166.526824 
L 154.164741 166.765433 
L 154.391999 167.56887 
L 154.749119 169.842411 
L 155.268567 174.866073 
L 156.826908 191.124509 
L 157.216494 192.872284 
L 157.443752 193.175291 
L 157.573614 193.100767 
L 157.768407 192.651428 
L 158.060596 191.242919 
L 158.482647 187.819653 
L 159.131956 180.320723 
L 160.333178 166.364639 
L 160.787694 163.407084 
L 161.079883 162.570319 
L 161.274676 162.50486 
L 161.437003 162.750333 
L 161.696727 163.689074 
L 162.053847 165.972076 
L 162.605759 171.196052 
L 164.034239 185.421987 
L 164.423825 187.263252 
L 164.683548 187.685759 
L 164.845876 187.604716 
L 165.040668 187.156586 
L 165.332858 185.791985 
L 165.754908 182.515918 
L 166.404218 175.393805 
L 167.572974 162.51074 
L 168.02749 159.634518 
L 168.352145 158.742517 
L 168.546938 158.703598 
L 168.709265 158.954433 
L 168.968988 159.870274 
L 169.326108 162.06199 
L 169.878021 167.03317 
L 171.274036 180.234036 
L 171.696087 182.133467 
L 171.95581 182.503578 
L 172.118138 182.408345 
L 172.31293 181.96267 
L 172.605119 180.641507 
L 173.02717 177.507086 
L 173.708945 170.372674 
L 174.845236 158.608478 
L 175.299752 155.933563 
L 175.624407 155.125943 
L 175.786734 155.088868 
L 175.949061 155.295582 
L 176.208785 156.115374 
L 176.565905 158.133093 
L 177.117818 162.779654 
L 178.546298 175.526102 
L 178.935883 177.198556 
L 179.195607 177.595889 
L 179.357934 177.536004 
L 179.552727 177.150358 
L 179.844916 175.951801 
L 180.266967 173.049197 
L 180.916276 166.704772 
L 182.117498 154.925391 
L 182.572014 152.438609 
L 182.864203 151.740335 
L 183.058996 151.690924 
L 183.253788 151.97272 
L 183.513512 152.841639 
L 183.903098 155.084091 
L 184.519941 160.259831 
L 185.721163 170.510438 
L 186.143214 172.440778 
L 186.435403 172.952999 
L 186.59773 172.924883 
L 186.792523 172.594132 
L 187.084712 171.509051 
L 187.474298 169.070821 
L 188.091141 163.528718 
L 189.422225 151.235055 
L 189.876741 149.033469 
L 190.16893 148.480227 
L 190.331258 148.479419 
L 190.52605 148.764779 
L 190.785774 149.609897 
L 191.175359 151.759553 
L 191.792203 156.678589 
L 192.960959 166.144482 
L 193.415476 168.121349 
L 193.707665 168.577949 
L 193.869992 168.53564 
L 194.064785 168.204274 
L 194.356974 167.151934 
L 194.779025 164.580548 
L 195.428334 158.929248 
L 196.629556 148.374558 
L 197.084072 146.125254 
L 197.408727 145.451549 
L 197.603519 145.444057 
L 197.798312 145.731708 
L 198.090501 146.688733 
L 198.512552 149.038236 
L 199.194327 154.383697 
L 200.200756 162.021114 
L 200.655272 163.9509 
L 200.947461 164.427279 
L 201.109788 164.412748 
L 201.304581 164.129749 
L 201.59677 163.177912 
L 201.986356 161.019156 
L 202.603199 156.085121 
L 203.934283 145.071168 
L 204.388799 143.077712 
L 204.680988 142.564882 
L 204.875781 142.575115 
L 205.070574 142.863912 
L 205.362763 143.792061 
L 205.784814 146.040396 
L 206.499054 151.374474 
L 207.473018 158.301602 
L 207.927534 160.092428 
L 208.219723 160.518121 
L 208.414516 160.461886 
L 208.641774 160.051372 
L 208.966428 158.849418 
L 209.420945 156.116045 
L 210.200116 149.720786 
L 211.141614 142.514424 
L 211.59613 140.480303 
L 211.920785 139.858986 
L 212.115578 139.840615 
L 212.31037 140.086312 
L 212.602559 140.9258 
L 213.02461 143.007163 
L 213.706385 147.77085 
L 214.712814 154.617981 
L 215.16733 156.365175 
L 215.459519 156.807517 
L 215.654312 156.78166 
L 215.88157 156.424943 
L 216.173759 155.469084 
L 216.59581 153.216298 
L 217.277585 148.110805 
L 218.38141 139.910615 
L 218.868392 137.839946 
L 219.193047 137.278046 
L 219.387839 137.276163 
L 219.582632 137.523533 
L 219.874821 138.338153 
L 220.296872 140.330275 
L 220.978647 144.851872 
L 221.985076 151.296587 
L 222.439592 152.918494 
L 222.731781 153.314667 
L 222.926574 153.275151 
L 223.153832 152.920593 
L 223.478487 151.862712 
L 223.933003 149.43802 
L 224.712174 143.734394 
L 225.653672 137.272124 
L 226.108188 135.432941 
L 226.432843 134.860505 
L 226.627636 134.833648 
L 226.822428 135.043042 
L 227.114618 135.779117 
L 227.504203 137.452938 
L 228.153512 141.428977 
L 229.257338 148.152842 
L 229.711854 149.657759 
L 230.004043 150.011438 
L 230.198836 149.959832 
L 230.426094 149.60829 
L 230.750748 148.586534 
L 231.205265 146.27017 
L 231.984436 140.862239 
L 232.893468 134.943369 
L 233.38045 133.071311 
L 233.705105 132.552889 
L 233.899898 132.541343 
L 234.127156 132.80922 
L 234.419345 133.574508 
L 234.841396 135.398009 
L 235.555636 139.678456 
L 236.497134 145.039968 
L 236.95165 146.508549 
L 237.243839 146.876645 
L 237.438632 146.85093 
L 237.66589 146.545085 
L 237.990545 145.614277 
L 238.445061 143.463639 
L 239.191767 138.602657 
L 240.16573 132.582485 
L 240.652712 130.84114 
L 240.977367 130.372574 
L 241.172159 130.374738 
L 241.399417 130.642794 
L 241.691607 131.383741 
L 242.113658 133.127688 
L 242.860363 137.385243 
L 243.769396 142.232707 
L 244.223912 143.595803 
L 244.516101 143.925185 
L 244.710894 143.888141 
L 244.938152 143.58437 
L 245.262807 142.684984 
L 245.717323 140.63012 
L 246.496494 135.806936 
L 247.437992 130.354245 
L 247.892508 128.807514 
L 248.217163 128.329691 
L 248.444421 128.326896 
L 248.671679 128.594273 
L 248.996334 129.414812 
L 249.45085 131.288714 
L 250.359883 136.302821 
L 251.106588 139.810853 
L 251.528639 140.893994 
L 251.820828 141.139739 
L 252.015621 141.060026 
L 252.275345 140.65234 
L 252.632465 139.563869 
L 253.119447 137.26697 
L 255.099839 126.961157 
L 255.456959 126.399886 
L 255.684218 126.373884 
L 255.911476 126.604022 
L 256.203665 127.255114 
L 256.625716 128.800978 
L 257.372421 132.597232 
L 258.281454 136.945048 
L 258.73597 138.179399 
L 259.028159 138.485636 
L 259.255418 138.438464 
L 259.515141 138.078388 
L 259.839796 137.193858 
L 260.326778 135.106269 
L 261.300741 129.593603 
L 262.047447 126.02358 
L 262.501963 124.811516 
L 262.794152 124.526728 
L 263.02141 124.584833 
L 263.281134 124.943358 
L 263.638254 125.900988 
L 264.157701 128.043193 
L 265.780974 135.247271 
L 266.170559 135.917559 
L 266.430283 135.988199 
L 266.657541 135.79528 
L 266.94973 135.208095 
L 267.371781 133.757453 
L 268.02109 130.548103 
L 269.254778 124.392736 
L 269.709294 123.150169 
L 270.033948 122.798082 
L 270.261207 122.832222 
L 270.52093 123.148483 
L 270.87805 124.026482 
L 271.397497 126.02456 
L 273.053236 132.955037 
L 273.410356 133.542574 
L 273.670079 133.632456 
L 273.897338 133.47026 
L 274.189527 132.939756 
L 274.579112 131.722755 
L 275.195956 128.92251 
L 276.559505 122.516843 
L 277.014021 121.41872 
L 277.30621 121.15369 
L 277.533468 121.197446 
L 277.793192 121.508964 
L 278.150312 122.354118 
L 278.669759 124.25809 
L 280.293032 130.713202 
L 280.682617 131.324985 
L 280.942341 131.397211 
L 281.169599 131.23273 
L 281.461788 130.717606 
L 281.883839 129.432868 
L 282.533148 126.574536 
L 283.766836 121.059234 
L 284.221352 119.934974 
L 284.546007 119.609319 
L 284.773265 119.632088 
L 285.032988 119.906271 
L 285.390108 120.680723 
L 285.909556 122.456208 
L 287.597759 128.733428 
L 287.954879 129.227442 
L 288.214603 129.28366 
L 288.474327 129.077716 
L 288.798981 128.465392 
L 289.253498 127.031788 
L 290.000203 123.763471 
L 291.006632 119.577169 
L 291.493614 118.432422 
L 291.818268 118.139126 
L 292.077992 118.191292 
L 292.370181 118.546231 
L 292.759767 119.456686 
L 293.344145 121.506548 
L 294.675228 126.366688 
L 295.097279 127.130494 
L 295.389468 127.298645 
L 295.649192 127.185218 
L 295.941381 126.766648 
L 296.330967 125.772391 
L 296.915345 123.577386 
L 298.37629 117.805545 
L 298.830807 116.930864 
L 299.122996 116.744339 
L 299.382719 116.834636 
L 299.674908 117.21346 
L 300.064494 118.122719 
L 300.681338 120.226421 
L 301.882559 124.403433 
L 302.337076 125.231155 
L 302.66173 125.412385 
L 302.921454 125.294359 
L 303.213643 124.887067 
L 303.635694 123.835767 
L 304.252538 121.583154 
L 305.583621 116.574118 
L 306.038138 115.673363 
L 306.362792 115.437334 
L 306.622516 115.504851 
L 306.914705 115.844186 
L 307.30429 116.68278 
L 307.921134 118.652781 
L 309.154821 122.703002 
L 309.609338 123.469938 
L 309.933992 123.62868 
L 310.193716 123.506903 
L 310.51837 123.050817 
L 310.940421 122.007715 
L 311.58973 119.710307 
L 312.823418 115.325347 
L 313.277934 114.447181 
L 313.602588 114.202911 
L 313.862312 114.249827 
L 314.154501 114.552731 
L 314.544087 115.325388 
L 315.128465 117.060401 
L 316.459548 121.16247 
L 316.881599 121.803829 
L 317.206254 121.941977 
L 317.465978 121.817222 
L 317.790632 121.374685 
L 318.212683 120.376259 
L 318.894458 118.073753 
L 320.063214 114.142959 
L 320.550196 113.248626 
L 320.87485 113.029359 
L 321.134574 113.083052 
L 321.426763 113.379301 
L 321.816348 114.120892 
L 322.433192 115.874383 
L 323.699345 119.570349 
L 324.153861 120.227715 
L 324.478516 120.347028 
L 324.770705 120.190317 
L 325.095359 119.732428 
L 325.549876 118.654944 
L 326.296581 116.190501 
L 327.30301 113.023359 
L 327.789992 112.152696 
L 328.147112 111.920457 
L 328.439301 112.000829 
L 328.763956 112.363744 
L 329.186007 113.208056 
L 329.900247 115.24523 
L 330.906676 118.00211 
L 331.361192 118.681879 
L 331.685847 118.841768 
L 331.978036 118.736421 
L 332.30269 118.348147 
L 332.724741 117.46365 
L 333.406516 115.412446 
L 334.575272 111.889938 
L 335.062254 111.080709 
L 335.419374 110.87262 
L 335.711563 110.95794 
L 336.036218 111.310593 
L 336.490734 112.194475 
L 337.269905 114.3367 
L 338.178938 116.646146 
L 338.633454 117.27645 
L 338.958108 117.417576 
L 339.250298 117.308824 
L 339.574952 116.932168 
L 340.029468 116.00627 
L 340.743708 113.933263 
L 341.815068 110.888628 
L 342.30205 110.101183 
L 342.65917 109.885907 
L 342.951359 109.951437 
L 343.276014 110.269316 
L 343.73053 111.087693 
L 344.477236 113.012035 
L 345.418734 115.304659 
L 345.87325 115.920459 
L 346.23037 116.070806 
L 346.522559 115.959344 
L 346.879679 115.544564 
L 347.334196 114.631294 
L 348.113367 112.449909 
L 349.08733 109.874469 
L 349.574312 109.14239 
L 349.931432 108.949109 
L 350.223621 109.019415 
L 350.580741 109.371845 
L 351.035258 110.180462 
L 351.846894 112.190983 
L 352.690996 114.093814 
L 353.145512 114.665 
L 353.502632 114.79727 
L 353.827287 114.658881 
L 354.184407 114.232434 
L 354.671388 113.257873 
L 355.580421 110.793882 
L 356.392058 108.857475 
L 356.879039 108.209291 
L 357.236159 108.062597 
L 357.560814 108.180587 
L 357.917934 108.569594 
L 358.404916 109.457509 
L 360.352843 113.426684 
L 360.709963 113.592859 
L 361.034618 113.499997 
L 361.391738 113.135582 
L 361.878719 112.255679 
L 362.690356 110.207285 
L 363.631854 108.01384 
L 364.118836 107.381815 
L 364.475956 107.227404 
L 364.80061 107.324869 
L 365.15773 107.678734 
L 365.644712 108.504135 
L 367.625105 112.307411 
L 367.982225 112.455754 
L 368.306879 112.35984 
L 368.663999 112.006997 
L 369.150981 111.166164 
L 369.995083 109.142541 
L 370.904116 107.161132 
L 371.391098 106.574236 
L 371.748218 106.43694 
L 372.072872 106.536858 
L 372.462458 106.921141 
L 372.981905 107.793468 
L 374.79997 111.17032 
L 375.189556 111.375025 
L 375.51421 111.31838 
L 375.87133 111.01992 
L 376.325847 110.324288 
L 377.072552 108.684129 
L 378.143912 106.406653 
L 378.630894 105.834678 
L 379.020479 105.689953 
L 379.377599 105.812722 
L 379.767185 106.204783 
L 380.319098 107.118395 
L 381.974836 110.086714 
L 382.396887 110.348358 
L 382.754007 110.314042 
L 383.111127 110.044877 
L 383.565643 109.400825 
L 384.279883 107.933815 
L 385.416174 105.643683 
L 385.903156 105.112395 
L 386.292741 104.984036 
L 386.649861 105.107682 
L 387.071912 105.527165 
L 387.65629 106.476225 
L 389.149701 109.055263 
L 389.604218 109.373386 
L 389.961338 109.37444 
L 390.318458 109.152036 
L 390.772974 108.577162 
L 391.454748 107.286035 
L 392.688436 104.923552 
L 393.175418 104.430259 
L 393.565003 104.316918 
L 393.922123 104.44096 
L 394.344174 104.844803 
L 394.928552 105.748363 
L 396.389498 108.144474 
L 396.844014 108.459564 
L 397.233599 108.463408 
L 397.623185 108.216544 
L 398.110167 107.59547 
L 398.856872 106.208155 
L 399.928232 104.286253 
L 400.447679 103.786028 
L 400.837265 103.686452 
L 401.22685 103.831528 
L 401.681367 104.278978 
L 402.29821 105.225035 
L 402.29821 105.225035 
" clip-path="url(#p3c3110dc2b)" style="fill: none; stroke: #1f77b4; stroke-width: 1.5; stroke-linecap: square"/>
   </g>
   <g id="line2d_24">
    <path d="M 77.643665 279.010828 
L 77.805992 278.579093 
L 78.03325 277.117456 
L 78.357905 273.399441 
L 78.844887 264.861445 
L 80.760348 227.501864 
L 81.085003 225.384442 
L 81.279796 225.078467 
L 81.409658 225.282181 
L 81.60445 226.189618 
L 81.896639 228.83724 
L 82.31869 235.020517 
L 83.03293 249.45711 
L 84.006894 268.234277 
L 84.46141 273.245013 
L 84.753599 274.578785 
L 84.883461 274.661306 
L 84.915927 274.632318 
L 85.078254 274.191 
L 85.305512 272.760164 
L 85.662632 268.733726 
L 86.182079 259.765567 
L 87.935214 226.782584 
L 88.292334 224.149821 
L 88.519592 223.659916 
L 88.616988 223.739143 
L 88.779316 224.253518 
L 89.039039 226.037642 
L 89.396159 230.242811 
L 89.948072 239.755273 
L 91.409018 266.272059 
L 91.798603 269.672716 
L 92.058327 270.518975 
L 92.188188 270.494287 
L 92.350516 270.0428 
L 92.610239 268.373516 
L 92.967359 264.329298 
L 93.519272 254.987014 
L 95.110079 226.169705 
L 95.499665 223.01973 
L 95.759388 222.326251 
L 95.88925 222.416509 
L 96.051578 222.935793 
L 96.311301 224.672473 
L 96.700887 229.156986 
L 97.285265 238.968689 
L 98.616348 261.997167 
L 99.038399 265.710006 
L 99.298123 266.598221 
L 99.427985 266.619676 
L 99.557847 266.357807 
L 99.785105 265.229705 
L 100.109759 262.226413 
L 100.596741 255.166944 
L 102.609599 222.590924 
L 102.934254 221.154604 
L 103.096581 221.077586 
L 103.226443 221.325453 
L 103.453701 222.406233 
L 103.778356 225.284935 
L 104.265338 232.019509 
L 106.148334 261.114883 
L 106.472988 262.754473 
L 106.667781 262.948806 
L 106.797643 262.743398 
L 106.992436 261.939307 
L 107.284625 259.669016 
L 107.706676 254.425495 
L 108.420916 242.183635 
L 109.427345 225.584458 
L 109.881861 221.232415 
L 110.17405 219.990841 
L 110.336378 219.866561 
L 110.466239 220.060038 
L 110.661032 220.829783 
L 110.953221 223.006767 
L 111.375272 228.017497 
L 112.121978 240.162458 
L 113.03101 254.132149 
L 113.485527 258.233748 
L 113.777716 259.372127 
L 113.940043 259.456515 
L 114.069905 259.239051 
L 114.297163 258.259016 
L 114.621818 255.611471 
L 115.076334 249.830102 
L 115.985367 234.564996 
L 116.732072 223.627271 
L 117.186588 219.769472 
L 117.478778 218.781998 
L 117.641105 218.769969 
L 117.803432 219.140979 
L 118.063156 220.505529 
L 118.420276 223.792544 
L 118.972188 231.319095 
L 120.465599 252.907963 
L 120.855185 255.547182 
L 121.114908 256.167002 
L 121.24477 256.118842 
L 121.407098 255.723028 
L 121.666821 254.335843 
L 122.023941 251.040754 
L 122.575854 243.512005 
L 124.134196 220.885925 
L 124.523781 218.285093 
L 124.783505 217.67033 
L 124.913367 217.711847 
L 125.075694 218.089028 
L 125.335418 219.419215 
L 125.692538 222.574428 
L 126.24445 229.737488 
L 127.705396 249.790485 
L 128.127447 252.513108 
L 128.38717 253.057769 
L 128.517032 252.991358 
L 128.679359 252.591369 
L 128.939083 251.240585 
L 129.328668 247.724296 
L 129.913047 239.947795 
L 131.309061 220.472856 
L 131.731112 217.465058 
L 132.023301 216.672661 
L 132.153163 216.677148 
L 132.31549 216.990889 
L 132.575214 218.18327 
L 132.932334 221.088599 
L 133.484247 227.782756 
L 134.977658 247.124713 
L 135.367243 249.521669 
L 135.626967 250.103417 
L 135.756828 250.074449 
L 135.919156 249.738103 
L 136.178879 248.524946 
L 136.535999 245.611992 
L 137.087912 238.916082 
L 138.646254 218.64596 
L 139.035839 216.283806 
L 139.295563 215.707218 
L 139.425425 215.73065 
L 139.587752 216.050912 
L 139.847476 217.214163 
L 140.204596 220.003691 
L 140.756508 226.375267 
L 142.249919 244.597657 
L 142.639505 246.812978 
L 142.899228 247.326075 
L 143.02909 247.280023 
L 143.191418 246.93897 
L 143.451141 245.756801 
L 143.808261 242.960604 
L 144.360174 236.587086 
L 145.918516 217.488791 
L 146.308101 215.305712 
L 146.567825 214.796642 
L 146.697687 214.836927 
L 146.860014 215.162019 
L 147.119737 216.295634 
L 147.476858 218.973044 
L 148.02877 225.036638 
L 149.489716 241.962862 
L 149.911767 244.248336 
L 150.17149 244.698495 
L 150.301352 244.637317 
L 150.496145 244.189042 
L 150.788334 242.744498 
L 151.177919 239.533996 
L 151.794763 232.329295 
L 153.02845 217.677307 
L 153.482967 214.741774 
L 153.775156 213.979934 
L 153.937483 213.961725 
L 154.09981 214.232885 
L 154.359534 215.249596 
L 154.716654 217.715385 
L 155.268567 223.382483 
L 156.761978 239.70874 
L 157.151563 241.720964 
L 157.411287 242.20303 
L 157.573614 242.138183 
L 157.768407 241.689793 
L 158.060596 240.289533 
L 158.482647 236.906341 
L 159.164421 229.169403 
L 160.268247 216.833225 
L 160.722763 213.973288 
L 161.014952 213.191648 
L 161.177279 213.139704 
L 161.339607 213.361751 
L 161.566865 214.120976 
L 161.923985 216.288849 
L 162.443432 221.128641 
L 164.131636 238.166581 
L 164.488756 239.600829 
L 164.716014 239.861099 
L 164.878341 239.726707 
L 165.105599 239.095755 
L 165.430254 237.348623 
L 165.88477 233.489564 
L 166.761338 223.582341 
L 167.540508 215.77427 
L 167.995025 213.117248 
L 168.287214 212.412181 
L 168.449541 212.382245 
L 168.611868 212.611106 
L 168.871592 213.499231 
L 169.228712 215.678457 
L 169.780625 220.718565 
L 171.306501 235.546416 
L 171.696087 237.263512 
L 171.95581 237.635377 
L 172.118138 237.540184 
L 172.31293 237.095598 
L 172.605119 235.782655 
L 173.02717 232.686176 
L 173.708945 225.713994 
L 174.780305 215.017543 
L 175.234821 212.430221 
L 175.52701 211.708854 
L 175.721803 211.667131 
L 175.88413 211.901369 
L 176.143854 212.768211 
L 176.500974 214.860895 
L 177.052887 219.658448 
L 178.546298 233.439061 
L 178.935883 235.128221 
L 179.195607 235.527528 
L 179.357934 235.467681 
L 179.552727 235.082868 
L 179.844916 233.891393 
L 180.266967 231.022933 
L 180.948741 224.477936 
L 182.052567 214.066976 
L 182.507083 211.662542 
L 182.799272 211.010814 
L 182.994065 210.99192 
L 183.188858 211.30516 
L 183.448581 212.219357 
L 183.838167 214.54178 
L 184.45501 219.887632 
L 185.688698 230.861004 
L 186.143214 233.016467 
L 186.435403 233.531526 
L 186.59773 233.503465 
L 186.792523 233.173335 
L 187.084712 232.094329 
L 187.474298 229.68319 
L 188.091141 224.254554 
L 189.324828 213.173824 
L 189.779345 210.940246 
L 190.071534 210.352758 
L 190.266327 210.354318 
L 190.461119 210.669492 
L 190.753308 211.704267 
L 191.175359 214.243621 
L 191.857134 220.064296 
L 192.928494 229.003948 
L 193.38301 231.10712 
L 193.675199 231.64164 
L 193.837527 231.64208 
L 194.032319 231.361905 
L 194.292043 230.526769 
L 194.681628 228.379597 
L 195.266007 223.664843 
L 196.662021 211.952782 
L 197.084072 210.169341 
L 197.376261 209.714873 
L 197.538588 209.752164 
L 197.733381 210.068087 
L 198.02557 211.071455 
L 198.447621 213.501668 
L 199.129396 219.027214 
L 200.16829 227.252732 
L 200.622807 229.302263 
L 200.914996 229.852424 
L 201.109788 229.859286 
L 201.304581 229.576786 
L 201.59677 228.630157 
L 201.986356 226.495084 
L 202.603199 221.661229 
L 203.869352 211.546065 
L 204.323868 209.621067 
L 204.616058 209.147336 
L 204.81085 209.183426 
L 205.005643 209.499038 
L 205.297832 210.47123 
L 205.719883 212.796389 
L 206.401657 218.041106 
L 207.440552 225.784451 
L 207.895068 227.688293 
L 208.187258 228.183671 
L 208.38205 228.173277 
L 208.576843 227.889571 
L 208.869032 226.971173 
L 209.291083 224.719653 
L 209.940392 219.794668 
L 211.076683 211.161029 
L 211.531199 209.193211 
L 211.855854 208.613243 
L 212.050647 208.619274 
L 212.245439 208.890183 
L 212.537628 209.770935 
L 212.959679 211.924081 
L 213.641454 216.847953 
L 214.680348 224.221013 
L 215.134865 226.075357 
L 215.427054 226.583685 
L 215.621847 226.601192 
L 215.816639 226.359941 
L 216.108828 225.529785 
L 216.498414 223.639436 
L 217.115258 219.335487 
L 218.38141 210.272394 
L 218.835927 208.529194 
L 219.128116 208.089439 
L 219.322908 208.110646 
L 219.550167 208.450909 
L 219.842356 209.361728 
L 220.264407 211.488605 
L 220.978647 216.453987 
L 221.95261 222.911736 
L 222.407127 224.634769 
L 222.699316 225.093263 
L 222.894108 225.094728 
L 223.088901 224.851767 
L 223.38109 224.045913 
L 223.770676 222.235198 
L 224.387519 218.144899 
L 225.653672 209.607308 
L 226.108188 207.98955 
L 226.400378 207.595529 
L 226.59517 207.630229 
L 226.822428 207.968535 
L 227.147083 208.975926 
L 227.601599 211.260705 
L 228.445701 216.960119 
L 229.257338 221.819268 
L 229.711854 223.341316 
L 230.004043 223.696923 
L 230.198836 223.645365 
L 230.426094 223.294781 
L 230.750748 222.28017 
L 231.205265 219.995069 
L 232.049367 214.269857 
L 232.893468 209.129787 
L 233.347985 207.551564 
L 233.640174 207.143931 
L 233.834967 207.153007 
L 234.062225 207.44588 
L 234.354414 208.246593 
L 234.776465 210.132003 
L 235.490705 214.558423 
L 236.464668 220.348496 
L 236.919185 221.907565 
L 237.243839 222.34846 
L 237.438632 222.322804 
L 237.66589 222.017704 
L 237.990545 221.093114 
L 238.445061 218.970748 
L 239.224232 214.014443 
L 240.133265 208.67506 
L 240.587781 207.13732 
L 240.912436 206.701695 
L 241.107228 206.723375 
L 241.334487 207.01514 
L 241.659141 207.901669 
L 242.113658 209.928738 
L 242.957759 215.014587 
L 243.769396 219.375776 
L 244.223912 220.754576 
L 244.516101 221.08579 
L 244.710894 221.048791 
L 244.938152 220.745812 
L 245.262807 219.852598 
L 245.717323 217.825167 
L 246.528959 212.92151 
L 247.405527 208.104732 
L 247.860043 206.676181 
L 248.152232 206.298825 
L 248.37949 206.317559 
L 248.606748 206.607428 
L 248.931403 207.46383 
L 249.385919 209.399916 
L 250.262487 214.408435 
L 251.041658 218.316828 
L 251.496174 219.595758 
L 251.788363 219.891107 
L 251.983156 219.844087 
L 252.210414 219.543936 
L 252.535068 218.681521 
L 252.989585 216.745189 
L 253.833687 211.904716 
L 254.677788 207.568847 
L 255.132305 206.24228 
L 255.424494 205.902838 
L 255.651752 205.934197 
L 255.87901 206.221472 
L 256.203665 207.0483 
L 256.658181 208.897089 
L 257.567214 213.819253 
L 258.313919 217.312683 
L 258.768436 218.498408 
L 259.060625 218.760793 
L 259.287883 218.677693 
L 259.547607 218.279014 
L 259.904727 217.240701 
L 260.424174 214.919142 
L 262.177308 206.340923 
L 262.566894 205.61528 
L 262.826617 205.523788 
L 263.053876 205.705357 
L 263.346065 206.282451 
L 263.768116 207.715116 
L 264.44989 211.022137 
L 265.52125 216.137736 
L 265.975767 217.3554 
L 266.300421 217.684965 
L 266.527679 217.627882 
L 266.787403 217.274688 
L 267.144523 216.322145 
L 267.66397 214.157367 
L 269.482036 205.837664 
L 269.839156 205.251543 
L 270.098879 205.178999 
L 270.326138 205.362652 
L 270.618327 205.922599 
L 271.040378 207.293998 
L 271.722152 210.433683 
L 272.793512 215.249712 
L 273.248028 216.380407 
L 273.572683 216.67533 
L 273.799941 216.609508 
L 274.059665 216.26251 
L 274.416785 215.34593 
L 274.936232 213.282788 
L 276.721832 205.519675 
L 277.078952 204.935894 
L 277.338676 204.844727 
L 277.565934 204.9989 
L 277.858123 205.504941 
L 278.280174 206.773821 
L 278.929483 209.566778 
L 280.065774 214.407573 
L 280.52029 215.457052 
L 280.812479 215.713193 
L 281.039738 215.67017 
L 281.299461 215.363355 
L 281.656581 214.52292 
L 282.176028 212.599511 
L 283.994094 205.145521 
L 284.351214 204.609992 
L 284.610938 204.53627 
L 284.838196 204.692763 
L 285.130385 205.184052 
L 285.552436 206.398904 
L 286.23421 209.196494 
L 287.30557 213.513605 
L 287.760087 214.537185 
L 288.084741 214.81137 
L 288.311999 214.760096 
L 288.571723 214.458312 
L 288.928843 213.649364 
L 289.44829 211.816032 
L 291.266356 204.793732 
L 291.623476 204.302973 
L 291.883199 204.245066 
L 292.142923 204.441283 
L 292.467578 205.024627 
L 292.922094 206.376421 
L 293.73373 209.663039 
L 294.577832 212.762628 
L 295.032348 213.712983 
L 295.357003 213.958124 
L 295.616727 213.875802 
L 295.908916 213.492378 
L 296.298501 212.546214 
L 296.882879 210.428383 
L 298.311359 204.968408 
L 298.73341 204.163227 
L 299.058065 203.958093 
L 299.317788 204.065229 
L 299.609978 204.464636 
L 300.032028 205.503092 
L 300.681338 207.835905 
L 301.850094 212.05046 
L 302.30461 212.932439 
L 302.629265 213.150866 
L 302.888988 213.062242 
L 303.181177 212.688193 
L 303.570763 211.78045 
L 304.155141 209.765894 
L 305.583621 204.621759 
L 306.005672 203.876032 
L 306.330327 203.695176 
L 306.59005 203.806892 
L 306.914705 204.254862 
L 307.336756 205.284992 
L 308.01853 207.651601 
L 309.08989 211.294822 
L 309.544407 212.155222 
L 309.869061 212.383276 
L 310.128785 212.316985 
L 310.420974 211.982125 
L 310.810559 211.1455 
L 311.394938 209.261213 
L 312.855883 204.296 
L 313.277934 203.605703 
L 313.602588 203.4471 
L 313.862312 203.562561 
L 314.186967 203.997497 
L 314.609018 204.983424 
L 315.323258 207.346535 
L 316.329687 210.582262 
L 316.816668 211.458491 
L 317.141323 211.662196 
L 317.401047 211.589868 
L 317.693236 211.262936 
L 318.082821 210.460097 
L 318.667199 208.667511 
L 320.095679 204.058778 
L 320.550196 203.351232 
L 320.87485 203.213001 
L 321.134574 203.33145 
L 321.459228 203.753392 
L 321.913745 204.784701 
L 322.66045 207.159973 
L 323.601948 209.985103 
L 324.056465 210.763893 
L 324.381119 210.975712 
L 324.673308 210.902489 
L 324.997963 210.533796 
L 325.420014 209.651805 
L 326.069323 207.675377 
L 327.270545 203.973754 
L 327.725061 203.205699 
L 328.049716 202.996291 
L 328.341905 203.064848 
L 328.666559 203.418365 
L 329.08861 204.262167 
L 329.737919 206.137111 
L 330.87421 209.418777 
L 331.328727 210.141986 
L 331.653381 210.331621 
L 331.94557 210.252699 
L 332.270225 209.89398 
L 332.692276 209.049163 
L 333.341585 207.171536 
L 334.542807 203.685138 
L 334.997323 202.971959 
L 335.354443 202.781238 
L 335.646632 202.880904 
L 335.971287 203.251154 
L 336.425803 204.165229 
L 337.172508 206.28301 
L 338.114007 208.816467 
L 338.600988 209.553014 
L 338.925643 209.722237 
L 339.217832 209.638464 
L 339.542487 209.289766 
L 339.964538 208.480779 
L 340.646312 206.598842 
L 341.782603 203.478413 
L 342.269585 202.752009 
L 342.626705 202.582533 
L 342.918894 202.6856 
L 343.276014 203.09379 
L 343.73053 203.995 
L 344.542167 206.206586 
L 345.418734 208.372409 
L 345.87325 208.995251 
L 346.23037 209.146417 
L 346.522559 209.035145 
L 346.879679 208.622961 
L 347.366661 207.643941 
L 348.243228 205.222133 
L 349.054865 203.21934 
L 349.541847 202.545022 
L 349.898967 202.395053 
L 350.191156 202.500838 
L 350.548276 202.896065 
L 351.035258 203.831068 
L 351.976756 206.2856 
L 352.723461 207.944458 
L 353.177978 208.491345 
L 353.502632 208.60004 
L 353.827287 208.461947 
L 354.184407 208.038456 
L 354.671388 207.077511 
L 355.677818 204.428285 
L 356.392058 202.865377 
L 356.846574 202.326289 
L 357.203694 202.22058 
L 357.528348 202.375783 
L 357.917934 202.856213 
L 358.469847 203.970191 
L 360.15805 207.710569 
L 360.580101 208.054626 
L 360.904756 208.055372 
L 361.22941 207.825042 
L 361.651461 207.211857 
L 362.268305 205.846801 
L 363.664319 202.644026 
L 364.118836 202.145068 
L 364.475956 202.054336 
L 364.80061 202.209245 
L 365.190196 202.672099 
L 365.742108 203.73362 
L 367.430312 207.257009 
L 367.852363 207.572224 
L 368.177018 207.564772 
L 368.534137 207.305177 
L 368.956188 206.69354 
L 369.605498 205.297911 
L 370.87165 202.532256 
L 371.358632 201.994296 
L 371.715752 201.893623 
L 372.040407 202.026806 
L 372.429992 202.450311 
L 372.981905 203.440186 
L 374.702574 206.82721 
L 375.124625 207.115676 
L 375.449279 207.100919 
L 375.806399 206.847428 
L 376.260916 206.205121 
L 376.94269 204.786774 
L 378.111447 202.377637 
L 378.598428 201.851853 
L 378.955548 201.742616 
L 379.312668 201.878126 
L 379.702254 202.286276 
L 380.254167 203.229655 
L 381.94237 206.386728 
L 382.364421 206.674849 
L 382.721541 206.66237 
L 383.078661 206.415117 
L 383.533178 205.799919 
L 384.247418 204.38245 
L 385.351243 202.23042 
L 385.838225 201.717233 
L 386.22781 201.601626 
L 386.58493 201.737353 
L 387.006981 202.173563 
L 387.591359 203.153513 
L 389.149701 205.936745 
L 389.604218 206.257677 
L 389.961338 206.258857 
L 390.318458 206.037446 
L 390.772974 205.468808 
L 391.454748 204.205357 
L 392.623505 202.046123 
L 393.110487 201.569852 
L 393.500072 201.468553 
L 393.857192 201.604053 
L 394.279243 202.023807 
L 394.863621 202.956775 
L 396.389498 205.544966 
L 396.844014 205.862933 
L 397.201134 205.876317 
L 397.590719 205.650799 
L 398.045236 205.106052 
L 398.759476 203.843116 
L 399.895767 201.872953 
L 400.382748 201.431141 
L 400.772334 201.342941 
L 401.161919 201.499941 
L 401.616436 201.964126 
L 402.265745 202.999188 
L 402.29821 203.057546 
L 402.29821 203.057546 
" clip-path="url(#p3c3110dc2b)" style="fill: none; stroke: #2ca02c; stroke-width: 1.5; stroke-linecap: square"/>
   </g>
   <g id="line2d_25">
    <path d="M 77.643665 279.010828 
L 77.741061 278.916333 
L 77.903388 278.341291 
L 78.163112 276.366371 
L 78.520232 271.712567 
L 79.072145 261.134217 
L 80.598021 230.207087 
L 80.987607 226.598473 
L 81.24733 225.795209 
L 81.344727 225.839103 
L 81.507054 226.330677 
L 81.734312 227.87785 
L 82.091432 232.184158 
L 82.610879 241.714054 
L 84.299083 275.45573 
L 84.656203 278.405245 
L 84.883461 279.00696 
L 84.980857 278.95068 
L 85.143185 278.438656 
L 85.402908 276.560069 
L 85.760028 272.021899 
L 86.311941 261.561525 
L 87.870283 230.046196 
L 88.259868 226.528058 
L 88.487127 225.809318 
L 88.616988 225.858859 
L 88.779316 226.391319 
L 89.039039 228.301178 
L 89.396159 232.87696 
L 89.948072 243.375893 
L 91.473948 274.421437 
L 91.863534 278.123968 
L 92.123258 278.995357 
L 92.220654 278.977309 
L 92.350516 278.659846 
L 92.577774 277.311629 
L 92.902428 273.739891 
L 93.38941 265.367992 
L 95.337338 227.825997 
L 95.661992 225.95777 
L 95.824319 225.798579 
L 95.954181 226.048862 
L 96.148974 227.045664 
L 96.441163 229.87449 
L 96.863214 236.422325 
L 97.577454 251.712747 
L 98.551418 271.804716 
L 99.005934 277.302682 
L 99.298123 278.857641 
L 99.46045 278.996211 
L 99.590312 278.729475 
L 99.785105 277.708553 
L 100.077294 274.846146 
L 100.499345 268.259124 
L 101.213585 252.939539 
L 102.187548 232.89424 
L 102.642065 227.445134 
L 102.934254 225.926268 
L 103.064116 225.789915 
L 103.096581 225.808323 
L 103.226443 226.091503 
L 103.453701 227.381436 
L 103.778356 230.877542 
L 104.232872 238.520892 
L 105.141905 258.676766 
L 105.88861 272.984494 
L 106.310661 277.650735 
L 106.60285 278.94896 
L 106.732712 278.984844 
L 106.862574 278.685228 
L 107.089832 277.367338 
L 107.414487 273.834924 
L 107.869003 266.152721 
L 108.810501 245.256687 
L 109.524741 231.72191 
L 109.946792 227.102509 
L 110.238981 225.840682 
L 110.368843 225.821313 
L 110.498705 226.137356 
L 110.725963 227.483162 
L 111.050618 231.051776 
L 111.537599 239.420169 
L 113.485527 276.96838 
L 113.810181 278.840051 
L 113.972508 279.001025 
L 114.10237 278.752165 
L 114.297163 277.757449 
L 114.589352 274.93153 
L 115.011403 268.387092 
L 115.725643 253.099213 
L 116.699607 233.003239 
L 117.154123 227.501057 
L 117.446312 225.94298 
L 117.608639 225.802627 
L 117.738501 226.067941 
L 117.933294 227.08678 
L 118.225483 229.946287 
L 118.647534 236.52993 
L 119.361774 251.847012 
L 120.335738 271.89637 
L 120.790254 277.349706 
L 121.082443 278.871693 
L 121.212305 279.009473 
L 121.24477 278.991422 
L 121.374632 278.709662 
L 121.60189 277.422148 
L 121.926545 273.929186 
L 122.381061 266.289206 
L 123.290094 246.13484 
L 124.036799 231.822818 
L 124.45885 227.152534 
L 124.751039 225.851165 
L 124.880901 225.813854 
L 125.010763 226.11205 
L 125.238021 227.427524 
L 125.562676 230.956804 
L 126.017192 238.635658 
L 126.95869 259.530327 
L 127.67293 273.069345 
L 128.094981 277.6928 
L 128.38717 278.957775 
L 128.517032 278.978572 
L 128.646894 278.663948 
L 128.874152 277.320554 
L 129.198807 273.755065 
L 129.685788 265.390179 
L 131.633716 227.835762 
L 131.95837 225.960645 
L 132.120698 225.797889 
L 132.250559 226.045327 
L 132.445352 227.037956 
L 132.737541 229.860968 
L 133.159592 236.402008 
L 133.873832 251.68734 
L 134.847796 271.787315 
L 135.302312 277.293712 
L 135.594501 278.854905 
L 135.756828 278.997041 
L 135.88669 278.733149 
L 136.081483 277.716394 
L 136.373672 274.859787 
L 136.795723 268.279526 
L 137.509963 252.964949 
L 138.483927 232.911537 
L 138.938443 227.453972 
L 139.230632 225.928864 
L 139.360494 225.789658 
L 139.392959 225.807352 
L 139.522821 226.08769 
L 139.750079 227.372786 
L 140.074734 230.862604 
L 140.52925 238.499213 
L 141.438283 258.652065 
L 142.184988 272.968378 
L 142.607039 277.642703 
L 142.899228 278.947216 
L 143.02909 278.985955 
L 143.158952 278.689179 
L 143.38621 277.37612 
L 143.710865 273.849976 
L 144.165381 266.174472 
L 145.106879 245.281173 
L 145.821119 231.737917 
L 146.24317 227.110409 
L 146.535359 225.842286 
L 146.665221 225.820062 
L 146.795083 226.133266 
L 147.022341 227.474248 
L 147.346996 231.036612 
L 147.833978 239.397988 
L 149.781905 276.958604 
L 150.106559 278.837165 
L 150.268887 279.001703 
L 150.398748 278.755688 
L 150.593541 277.765145 
L 150.88573 274.945042 
L 151.307781 268.407402 
L 152.022021 253.124619 
L 152.995985 233.020648 
L 153.450501 227.510038 
L 153.74269 225.945727 
L 153.905017 225.801809 
L 154.034879 226.064279 
L 154.229672 227.07895 
L 154.521861 229.932656 
L 154.943912 236.509535 
L 155.658152 251.821602 
L 156.632116 271.879063 
L 157.086632 277.340856 
L 157.378821 278.869086 
L 157.508683 279.009717 
L 157.541148 278.99238 
L 157.67101 278.713463 
L 157.898268 277.430786 
L 158.222923 273.944114 
L 158.677439 266.310878 
L 159.586472 246.159544 
L 160.333178 231.838943 
L 160.755228 227.160579 
L 161.047418 225.852921 
L 161.177279 225.812755 
L 161.307141 226.10811 
L 161.534399 227.418754 
L 161.859054 230.941762 
L 162.31357 238.613913 
L 163.255068 259.505838 
L 163.969308 273.053328 
L 164.391359 277.684889 
L 164.683548 278.956159 
L 164.81341 278.979811 
L 164.943272 278.668027 
L 165.17053 277.329456 
L 165.495185 273.770219 
L 165.982167 265.412354 
L 167.962559 227.567001 
L 168.254748 225.963544 
L 168.417076 225.797224 
L 168.546938 226.041816 
L 168.74173 227.030272 
L 169.033919 229.847466 
L 169.45597 236.381705 
L 170.17021 251.661934 
L 171.144174 271.769897 
L 171.59869 277.284719 
L 171.890879 278.852146 
L 172.053207 278.997847 
L 172.183068 278.736799 
L 172.377861 277.724213 
L 172.67005 274.873408 
L 173.092101 268.299912 
L 173.806341 252.990359 
L 174.780305 232.928853 
L 175.234821 227.462834 
L 175.52701 225.931483 
L 175.656872 225.789426 
L 175.689338 225.806406 
L 175.819199 226.083902 
L 176.046458 227.364159 
L 176.371112 230.847686 
L 176.825628 238.477547 
L 177.734661 258.627358 
L 178.481367 272.952243 
L 178.903418 277.634647 
L 179.195607 278.945448 
L 179.325468 278.987041 
L 179.45533 278.693107 
L 179.682588 277.384879 
L 180.007243 273.865007 
L 180.461759 266.196212 
L 181.403258 245.305665 
L 182.117498 231.753944 
L 182.539548 227.118331 
L 182.831738 225.843915 
L 182.961599 225.818835 
L 183.091461 226.1292 
L 183.318719 227.465357 
L 183.643374 231.021467 
L 184.130356 239.375819 
L 186.110748 277.227685 
L 186.402938 278.834254 
L 186.565265 279.002356 
L 186.695127 278.759187 
L 186.889919 277.772819 
L 187.182108 274.958534 
L 187.604159 268.427697 
L 188.318399 253.150025 
L 189.324828 232.532802 
L 189.779345 227.263644 
L 190.071534 225.877059 
L 190.201396 225.801015 
L 190.331258 226.060641 
L 190.52605 227.071143 
L 190.818239 229.919046 
L 191.24029 236.489156 
L 191.95453 251.796193 
L 192.928494 271.861739 
L 193.38301 277.331983 
L 193.675199 278.866454 
L 193.805061 279.009937 
L 193.837527 278.993314 
L 193.967388 278.71724 
L 194.162181 277.682636 
L 194.45437 274.801201 
L 194.876421 268.192018 
L 195.590661 252.856083 
L 196.564625 232.837554 
L 197.019141 227.416265 
L 197.31133 225.917914 
L 197.441192 225.790928 
L 197.473658 225.811681 
L 197.603519 226.104194 
L 197.830778 227.410006 
L 198.155432 230.926741 
L 198.609948 238.59218 
L 199.551447 259.481342 
L 200.265687 273.037292 
L 200.687738 277.676955 
L 200.979927 278.954518 
L 201.109788 278.981026 
L 201.23965 278.672081 
L 201.466908 277.338336 
L 201.791563 273.785354 
L 202.278545 265.434518 
L 204.258938 227.576148 
L 204.551127 225.966467 
L 204.713454 225.796583 
L 204.843316 226.038329 
L 205.038108 227.02261 
L 205.330298 229.833984 
L 205.752348 236.361417 
L 206.466588 251.636529 
L 207.473018 272.257998 
L 207.927534 277.531437 
L 208.219723 278.921158 
L 208.349585 278.998629 
L 208.479447 278.740425 
L 208.674239 277.732009 
L 208.966428 274.887008 
L 209.388479 268.320285 
L 210.102719 253.015767 
L 211.076683 232.946186 
L 211.531199 227.471718 
L 211.823388 225.934127 
L 211.95325 225.789218 
L 211.985716 225.805484 
L 212.115578 226.080137 
L 212.31037 227.112659 
L 212.602559 229.991199 
L 213.02461 236.597012 
L 213.73885 251.930468 
L 214.712814 271.953085 
L 215.16733 277.378613 
L 215.459519 278.880088 
L 215.589381 279.008499 
L 215.621847 278.988104 
L 215.751708 278.697011 
L 215.978967 277.393615 
L 216.303621 273.880019 
L 216.758138 266.217938 
L 217.699636 245.330164 
L 218.413876 231.769989 
L 218.835927 227.126277 
L 219.128116 225.845567 
L 219.257978 225.817632 
L 219.387839 226.125157 
L 219.615098 227.456489 
L 219.939752 231.006342 
L 220.426734 239.353661 
L 222.407127 277.218526 
L 222.699316 278.831319 
L 222.861643 279.002985 
L 222.991505 278.762662 
L 223.186298 277.780469 
L 223.478487 274.972005 
L 223.900538 268.447978 
L 224.614778 253.175429 
L 225.621207 232.54972 
L 226.075723 227.272 
L 226.367912 225.879144 
L 226.497774 225.800246 
L 226.627636 226.057027 
L 226.822428 227.063359 
L 227.114618 229.905456 
L 227.536668 236.468791 
L 228.250908 251.770785 
L 229.224872 271.844397 
L 229.679388 277.323087 
L 229.971578 278.863798 
L 230.101439 279.010133 
L 230.133905 278.994224 
L 230.263767 278.720993 
L 230.458559 277.690553 
L 230.750748 274.814909 
L 231.172799 268.212467 
L 231.887039 252.881494 
L 232.861003 232.854793 
L 233.315519 227.425029 
L 233.607708 225.92043 
L 233.73757 225.790592 
L 233.770036 225.810631 
L 233.899898 226.100303 
L 234.127156 227.401281 
L 234.45181 230.911738 
L 234.906327 238.57046 
L 235.847825 259.45684 
L 236.562065 273.021238 
L 236.984116 277.668998 
L 237.276305 278.952854 
L 237.406167 278.982216 
L 237.536028 278.676111 
L 237.763287 277.347192 
L 238.087941 273.80047 
L 238.574923 265.456669 
L 240.555316 227.585317 
L 240.847505 225.969414 
L 241.009832 225.795966 
L 241.139694 226.034866 
L 241.334487 227.014971 
L 241.626676 229.820524 
L 242.048727 236.341143 
L 242.762967 251.611125 
L 243.769396 272.24107 
L 244.223912 277.523069 
L 244.516101 278.919061 
L 244.645963 278.999386 
L 244.775825 278.744027 
L 244.970618 277.739781 
L 245.262807 274.900587 
L 245.684858 268.340643 
L 246.399098 253.041175 
L 247.373061 232.963537 
L 247.827578 227.480625 
L 248.119767 225.936795 
L 248.249628 225.789035 
L 248.282094 225.804587 
L 248.411956 226.076396 
L 248.606748 227.104753 
L 248.898938 229.977501 
L 249.320988 236.57657 
L 250.035228 251.905057 
L 251.009192 271.935837 
L 251.463708 277.369837 
L 251.755898 278.877559 
L 251.885759 279.008823 
L 251.918225 278.989142 
L 252.048087 278.70089 
L 252.275345 277.402329 
L 252.599999 273.895012 
L 253.054516 266.239652 
L 253.963548 246.078431 
L 254.710254 231.786053 
L 255.132305 227.134245 
L 255.424494 225.847244 
L 255.554356 225.816454 
L 255.684218 226.121139 
L 255.911476 227.447644 
L 256.23613 230.991236 
L 256.723112 239.331516 
L 258.703505 277.209346 
L 258.995694 278.82836 
L 259.158021 279.00359 
L 259.287883 278.766112 
L 259.482676 277.788096 
L 259.774865 274.985455 
L 260.196916 268.468244 
L 260.911156 253.200834 
L 261.917585 232.566656 
L 262.372101 227.280379 
L 262.66429 225.881252 
L 262.794152 225.799501 
L 262.924014 226.053437 
L 263.118807 227.055598 
L 263.410996 229.891887 
L 263.833047 236.44844 
L 264.547287 251.745377 
L 265.52125 271.827037 
L 265.975767 277.314169 
L 266.267956 278.861118 
L 266.430283 278.995109 
L 266.560145 278.724722 
L 266.754937 277.698448 
L 267.047127 274.828597 
L 267.469178 268.232901 
L 268.183418 252.906905 
L 269.157381 232.87205 
L 269.611898 227.433815 
L 269.904087 225.92297 
L 270.033948 225.79028 
L 270.066414 225.809605 
L 270.196276 226.096435 
L 270.423534 227.392579 
L 270.748188 230.896756 
L 271.202705 238.548752 
L 272.111738 258.708481 
L 272.858443 273.005165 
L 273.280494 277.661018 
L 273.572683 278.951165 
L 273.702545 278.983382 
L 273.832407 278.680118 
L 274.059665 277.356026 
L 274.384319 273.815565 
L 274.838836 266.124767 
L 275.780334 245.225249 
L 276.494574 231.701379 
L 276.916625 227.092398 
L 277.208814 225.838658 
L 277.338676 225.822955 
L 277.468538 226.142644 
L 277.695796 227.494643 
L 278.02045 231.07128 
L 278.507432 239.448674 
L 280.455359 276.980902 
L 280.780014 278.843724 
L 280.942341 279.000119 
L 281.072203 278.747605 
L 281.266996 277.74753 
L 281.559185 274.914146 
L 281.981236 268.360986 
L 282.695476 253.066583 
L 283.669439 232.980906 
L 284.123956 227.489555 
L 284.416145 225.939487 
L 284.578472 225.803713 
L 284.708334 226.072679 
L 284.903127 227.09687 
L 285.195316 229.963823 
L 285.617367 236.556143 
L 286.331607 251.879646 
L 287.30557 271.918571 
L 287.760087 277.361039 
L 288.052276 278.875007 
L 288.182138 279.009123 
L 288.214603 278.990155 
L 288.344465 278.704746 
L 288.571723 277.41102 
L 288.896377 273.909985 
L 289.350894 266.261353 
L 290.259927 246.103122 
L 291.006632 231.802135 
L 291.428683 227.142237 
L 291.720872 225.848945 
L 291.850734 225.8153 
L 291.980596 226.117144 
L 292.207854 227.438822 
L 292.532508 230.97615 
L 292.987025 238.663604 
L 293.928523 259.561769 
L 294.642763 273.089888 
L 295.064814 277.702926 
L 295.357003 278.959815 
L 295.486865 278.976945 
L 295.616727 278.658676 
L 295.843985 277.309088 
L 296.168639 273.735573 
L 296.655621 265.361682 
L 298.603548 227.823225 
L 298.928203 225.956958 
L 299.09053 225.79878 
L 299.220392 226.049871 
L 299.415185 227.04786 
L 299.707374 229.878338 
L 300.129425 236.428104 
L 300.843665 251.71997 
L 301.817628 271.809659 
L 302.272145 277.305228 
L 302.564334 278.858414 
L 302.726661 278.995971 
L 302.856523 278.728427 
L 303.051316 277.706319 
L 303.343505 274.842264 
L 303.765556 268.253321 
L 304.479796 252.932315 
L 305.453759 232.889325 
L 305.908276 227.442625 
L 306.200465 225.925535 
L 306.330327 225.789992 
L 306.362792 225.808603 
L 306.492654 226.092592 
L 306.719912 227.3839 
L 307.044567 230.881792 
L 307.499083 238.527057 
L 308.408116 258.683787 
L 309.154821 272.989073 
L 309.576872 277.653015 
L 309.869061 278.949452 
L 309.998923 278.984524 
L 310.128785 278.6841 
L 310.356043 277.364837 
L 310.680698 273.830642 
L 311.135214 266.146535 
L 312.076712 245.249727 
L 312.790952 231.717363 
L 313.213003 227.100268 
L 313.505192 225.840231 
L 313.635054 225.821673 
L 313.764916 226.138523 
L 313.992174 227.4857 
L 314.316828 231.056091 
L 314.80381 239.426478 
L 316.751738 276.971155 
L 317.076392 278.840868 
L 317.238719 279.000828 
L 317.368581 278.751159 
L 317.563374 277.755256 
L 317.855563 274.927685 
L 318.277614 268.381315 
L 318.991854 253.09199 
L 319.965818 232.998292 
L 320.420334 227.498507 
L 320.712523 225.942204 
L 320.87485 225.802864 
L 321.004712 226.068986 
L 321.199505 227.08901 
L 321.491694 229.950166 
L 321.913745 236.53573 
L 322.627985 251.854236 
L 323.601948 271.901287 
L 324.056465 277.352218 
L 324.348654 278.87243 
L 324.478516 279.009399 
L 324.510981 278.991145 
L 324.640843 278.708578 
L 324.868101 277.419688 
L 325.192756 273.924938 
L 325.647272 266.283042 
L 326.556305 246.127818 
L 327.30301 231.818237 
L 327.725061 227.150252 
L 328.01725 225.85067 
L 328.147112 225.81417 
L 328.276974 226.113174 
L 328.504232 227.430022 
L 328.828887 230.961084 
L 329.283403 238.641843 
L 330.224901 259.537288 
L 330.939141 273.073895 
L 331.361192 277.695045 
L 331.653381 278.95823 
L 331.783243 278.978215 
L 331.913105 278.662785 
L 332.140363 277.318019 
L 332.465018 273.750753 
L 332.951999 265.383872 
L 334.899927 227.832983 
L 335.224581 225.959825 
L 335.386908 225.798083 
L 335.51677 226.046329 
L 335.711563 227.040145 
L 336.003752 229.86481 
L 336.425803 236.407783 
L 337.140043 251.694563 
L 338.114007 271.792264 
L 338.568523 277.296264 
L 338.860712 278.855686 
L 339.023039 278.996808 
L 339.152901 278.732107 
L 339.347694 277.714167 
L 339.639883 274.855911 
L 340.061934 268.273727 
L 340.776174 252.957725 
L 341.750137 232.906618 
L 342.204654 227.451457 
L 342.496843 225.928123 
L 342.626705 225.789729 
L 342.65917 225.807626 
L 342.789032 226.088772 
L 343.01629 227.375243 
L 343.340945 230.866849 
L 343.795461 238.505375 
L 344.704494 258.659088 
L 345.451199 272.972962 
L 345.87325 277.644989 
L 346.165439 278.947715 
L 346.295301 278.985642 
L 346.425163 278.688058 
L 346.652421 277.373626 
L 346.977076 273.845699 
L 347.431592 266.16829 
L 348.37309 245.274211 
L 349.08733 231.733365 
L 349.509381 227.108161 
L 349.80157 225.841828 
L 349.931432 225.820415 
L 350.061294 226.134426 
L 350.288552 227.47678 
L 350.613207 231.040921 
L 351.100188 239.404293 
L 353.048116 276.961385 
L 353.37277 278.837988 
L 353.535098 279.001513 
L 353.664959 278.754689 
L 353.859752 277.762959 
L 354.151941 274.941203 
L 354.573992 268.401629 
L 355.288232 253.117396 
L 356.262196 233.015697 
L 356.716712 227.507483 
L 357.008901 225.944944 
L 357.171228 225.802039 
L 357.30109 226.065317 
L 357.495883 227.081173 
L 357.788072 229.93653 
L 358.210123 236.515332 
L 358.924363 251.828826 
L 359.898327 271.883985 
L 360.352843 277.343374 
L 360.645032 278.86983 
L 360.774894 279.00965 
L 360.807359 278.99211 
L 360.937221 278.712385 
L 361.164479 277.428333 
L 361.489134 273.939872 
L 361.94365 266.304718 
L 362.852683 246.15252 
L 363.599388 231.834357 
L 364.021439 227.158289 
L 364.313628 225.852419 
L 364.44349 225.813065 
L 364.573352 226.109228 
L 364.80061 227.421245 
L 365.125265 230.946037 
L 365.579781 238.620094 
L 366.521279 259.512801 
L 367.235519 273.057884 
L 367.65757 277.687141 
L 367.949759 278.956621 
L 368.079621 278.979461 
L 368.209483 278.66687 
L 368.436741 277.326928 
L 368.761396 273.765913 
L 369.248378 265.406051 
L 371.196305 227.842764 
L 371.520959 225.962717 
L 371.683287 225.797411 
L 371.813148 226.042812 
L 372.007941 227.032454 
L 372.30013 229.851302 
L 372.722181 236.387476 
L 373.436421 251.669157 
L 374.410385 271.774851 
L 374.864901 277.287278 
L 375.15709 278.852933 
L 375.319418 278.99762 
L 375.449279 278.735764 
L 375.644072 277.721993 
L 375.936261 274.869537 
L 376.358312 268.294118 
L 377.072552 252.983135 
L 378.046516 232.923928 
L 378.501032 227.460312 
L 378.793221 225.930736 
L 378.923083 225.78949 
L 378.955548 225.806673 
L 379.08541 226.084976 
L 379.312668 227.36661 
L 379.637323 230.851925 
L 380.091839 238.483705 
L 381.000872 258.634383 
L 381.747578 272.956832 
L 382.169628 277.636939 
L 382.461818 278.945953 
L 382.591679 278.986735 
L 382.721541 278.691993 
L 382.948799 277.382391 
L 383.273454 273.860736 
L 383.72797 266.190032 
L 384.669468 245.298701 
L 385.383708 231.749386 
L 385.805759 227.116077 
L 386.097948 225.843449 
L 386.22781 225.819181 
L 386.357672 226.130353 
L 386.58493 227.467883 
L 386.909585 231.025771 
L 387.396567 239.38212 
L 389.376959 277.230284 
L 389.669148 278.835084 
L 389.831476 279.002173 
L 389.961338 278.758194 
L 390.15613 277.770639 
L 390.448319 274.9547 
L 390.87037 268.421929 
L 391.58461 253.142802 
L 392.558574 233.033118 
L 393.01309 227.516481 
L 393.305279 225.947708 
L 393.467607 225.801238 
L 393.597468 226.061673 
L 393.792261 227.07336 
L 394.08445 229.922913 
L 394.506501 236.494948 
L 395.220741 251.803417 
L 396.194705 271.866666 
L 396.649221 277.334508 
L 396.94141 278.867205 
L 397.071272 279.009877 
L 397.103738 278.993051 
L 397.233599 278.716169 
L 397.460858 277.436955 
L 397.785512 273.954786 
L 398.240028 266.326381 
L 399.149061 246.177228 
L 399.895767 231.850496 
L 400.317818 227.16635 
L 400.610007 225.854193 
L 400.739868 225.811984 
L 400.86973 226.105305 
L 401.096988 227.412491 
L 401.421643 230.931009 
L 401.876159 238.598357 
L 402.29821 247.63666 
L 402.29821 247.63666 
" clip-path="url(#p3c3110dc2b)" style="fill: none; stroke: #ff7f0e; stroke-width: 1.5; stroke-linecap: square"/>
   </g>
   <g id="patch_3">
    <path d="M 61.410938 279.010828 
L 61.410938 12.898828 
" style="fill: none; stroke: #000000; stroke-width: 0.8; stroke-linejoin: miter; stroke-linecap: square"/>
   </g>
   <g id="patch_4">
    <path d="M 418.530938 279.010828 
L 418.530938 12.898828 
" style="fill: none; stroke: #000000; stroke-width: 0.8; stroke-linejoin: miter; stroke-linecap: square"/>
   </g>
   <g id="patch_5">
    <path d="M 61.410938 279.010828 
L 418.530938 279.010828 
" style="fill: none; stroke: #000000; stroke-width: 0.8; stroke-linejoin: miter; stroke-linecap: square"/>
   </g>
   <g id="patch_6">
    <path d="M 61.410938 12.898828 
L 418.530938 12.898828 
" style="fill: none; stroke: #000000; stroke-width: 0.8; stroke-linejoin: miter; stroke-linecap: square"/>
   </g>
   <g id="legend_1">
    <g id="patch_7">
     <path d="M 244.770938 75.366328 
L 410.130938 75.366328 
Q 412.530938 75.366328 412.530938 72.966328 
L 412.530938 21.298828 
Q 412.530938 18.898828 410.130938 18.898828 
L 244.770938 18.898828 
Q 242.370938 18.898828 242.370938 21.298828 
L 242.370938 72.966328 
Q 242.370938 75.366328 244.770938 75.366328 
z
" style="fill: #ffffff; opacity: 0.8; stroke: #cccccc; stroke-linejoin: miter"/>
    </g>
    <g id="line2d_26">
     <path d="M 247.170938 28.616953 
L 259.170938 28.616953 
L 271.170938 28.616953 
" style="fill: none; stroke: #1f77b4; stroke-width: 1.5; stroke-linecap: square"/>
    </g>
    <g id="text_14">
     <!-- $\delta=2\pi\cdot0.1$ -->
     <g transform="translate(280.770938 32.816953) scale(0.12 -0.12)">
      <defs>
       <path id="DejaVuSans-Oblique-3b4" d="M 3472 4053 
Q 3197 4272 2450 4272 
Q 1659 4272 1588 3906 
Q 1531 3619 2328 3469 
Q 2953 3353 3253 3003 
Q 3616 2581 3447 1716 
Q 3284 888 2763 400 
Q 2238 -91 1488 -91 
Q 741 -91 406 400 
Q 72 888 241 1747 
Q 363 2384 891 2900 
Q 1097 3100 1353 3213 
Q 913 3459 1000 3900 
Q 1166 4750 2544 4750 
Q 3234 4750 3566 4531 
L 3472 4053 
z
M 1753 3056 
Q 1525 2966 1306 2738 
Q 969 2384 847 1747 
Q 722 1113 919 756 
Q 1119 397 1584 397 
Q 2044 397 2381 759 
Q 2722 1122 2838 1716 
Q 2956 2338 2731 2638 
Q 2491 2959 2103 2994 
Q 1906 3013 1753 3056 
z
" transform="scale(0.015625)"/>
       <path id="DejaVuSans-3d" d="M 678 2906 
L 4684 2906 
L 4684 2381 
L 678 2381 
L 678 2906 
z
M 678 1631 
L 4684 1631 
L 4684 1100 
L 678 1100 
L 678 1631 
z
" transform="scale(0.015625)"/>
       <path id="DejaVuSans-Oblique-3c0" d="M 584 3500 
L 3938 3500 
L 3825 2925 
L 3384 2925 
L 2966 775 
Q 2922 550 2981 450 
Q 3038 353 3209 353 
Q 3256 353 3325 363 
Q 3397 369 3419 372 
L 3338 -44 
Q 3222 -84 3103 -103 
Q 2981 -122 2866 -122 
Q 2491 -122 2388 81 
Q 2284 288 2391 838 
L 2797 2925 
L 1506 2925 
L 938 0 
L 350 0 
L 919 2925 
L 472 2925 
L 584 3500 
z
" transform="scale(0.015625)"/>
       <path id="DejaVuSans-22c5" d="M 684 2619 
L 1344 2619 
L 1344 1825 
L 684 1825 
L 684 2619 
z
" transform="scale(0.015625)"/>
      </defs>
      <use xlink:href="#DejaVuSans-Oblique-3b4" transform="translate(0 0.78125)"/>
      <use xlink:href="#DejaVuSans-3d" transform="translate(80.664062 0.78125)"/>
      <use xlink:href="#DejaVuSans-32" transform="translate(183.935547 0.78125)"/>
      <use xlink:href="#DejaVuSans-Oblique-3c0" transform="translate(247.558594 0.78125)"/>
      <use xlink:href="#DejaVuSans-22c5" transform="translate(327.246094 0.78125)"/>
      <use xlink:href="#DejaVuSans-30" transform="translate(378.515625 0.78125)"/>
      <use xlink:href="#DejaVuSans-2e" transform="translate(442.138672 0.78125)"/>
      <use xlink:href="#DejaVuSans-31" transform="translate(473.925781 0.78125)"/>
     </g>
    </g>
    <g id="line2d_27">
     <path d="M 247.170938 46.230703 
L 259.170938 46.230703 
L 271.170938 46.230703 
" style="fill: none; stroke: #2ca02c; stroke-width: 1.5; stroke-linecap: square"/>
    </g>
    <g id="text_15">
     <!-- $\delta=-2\pi\cdot0.1$ -->
     <g transform="translate(280.770938 50.430703) scale(0.12 -0.12)">
      <defs>
       <path id="DejaVuSans-2212" d="M 678 2272 
L 4684 2272 
L 4684 1741 
L 678 1741 
L 678 2272 
z
" transform="scale(0.015625)"/>
      </defs>
      <use xlink:href="#DejaVuSans-Oblique-3b4" transform="translate(0 0.78125)"/>
      <use xlink:href="#DejaVuSans-3d" transform="translate(80.664062 0.78125)"/>
      <use xlink:href="#DejaVuSans-2212" transform="translate(203.417969 0.78125)"/>
      <use xlink:href="#DejaVuSans-32" transform="translate(306.689453 0.78125)"/>
      <use xlink:href="#DejaVuSans-Oblique-3c0" transform="translate(370.3125 0.78125)"/>
      <use xlink:href="#DejaVuSans-22c5" transform="translate(450 0.78125)"/>
      <use xlink:href="#DejaVuSans-30" transform="translate(501.269531 0.78125)"/>
      <use xlink:href="#DejaVuSans-2e" transform="translate(564.892578 0.78125)"/>
      <use xlink:href="#DejaVuSans-31" transform="translate(596.679688 0.78125)"/>
     </g>
    </g>
    <g id="line2d_28">
     <path d="M 247.170938 63.846328 
L 259.170938 63.846328 
L 271.170938 63.846328 
" style="fill: none; stroke: #ff7f0e; stroke-width: 1.5; stroke-linecap: square"/>
    </g>
    <g id="text_16">
     <!-- $\delta=2\pi\cdot0.1$, no decay -->
     <g transform="translate(280.770938 68.046328) scale(0.12 -0.12)">
      <defs>
       <path id="DejaVuSans-2c" d="M 750 794 
L 1409 794 
L 1409 256 
L 897 -744 
L 494 -744 
L 750 256 
L 750 794 
z
" transform="scale(0.015625)"/>
       <path id="DejaVuSans-20" transform="scale(0.015625)"/>
       <path id="DejaVuSans-6e" d="M 3513 2113 
L 3513 0 
L 2938 0 
L 2938 2094 
Q 2938 2591 2744 2837 
Q 2550 3084 2163 3084 
Q 1697 3084 1428 2787 
Q 1159 2491 1159 1978 
L 1159 0 
L 581 0 
L 581 3500 
L 1159 3500 
L 1159 2956 
Q 1366 3272 1645 3428 
Q 1925 3584 2291 3584 
Q 2894 3584 3203 3211 
Q 3513 2838 3513 2113 
z
" transform="scale(0.015625)"/>
       <path id="DejaVuSans-6f" d="M 1959 3097 
Q 1497 3097 1228 2736 
Q 959 2375 959 1747 
Q 959 1119 1226 758 
Q 1494 397 1959 397 
Q 2419 397 2687 759 
Q 2956 1122 2956 1747 
Q 2956 2369 2687 2733 
Q 2419 3097 1959 3097 
z
M 1959 3584 
Q 2709 3584 3137 3096 
Q 3566 2609 3566 1747 
Q 3566 888 3137 398 
Q 2709 -91 1959 -91 
Q 1206 -91 779 398 
Q 353 888 353 1747 
Q 353 2609 779 3096 
Q 1206 3584 1959 3584 
z
" transform="scale(0.015625)"/>
       <path id="DejaVuSans-64" d="M 2906 2969 
L 2906 4863 
L 3481 4863 
L 3481 0 
L 2906 0 
L 2906 525 
Q 2725 213 2448 61 
Q 2172 -91 1784 -91 
Q 1150 -91 751 415 
Q 353 922 353 1747 
Q 353 2572 751 3078 
Q 1150 3584 1784 3584 
Q 2172 3584 2448 3432 
Q 2725 3281 2906 2969 
z
M 947 1747 
Q 947 1113 1208 752 
Q 1469 391 1925 391 
Q 2381 391 2643 752 
Q 2906 1113 2906 1747 
Q 2906 2381 2643 2742 
Q 2381 3103 1925 3103 
Q 1469 3103 1208 2742 
Q 947 2381 947 1747 
z
" transform="scale(0.015625)"/>
       <path id="DejaVuSans-65" d="M 3597 1894 
L 3597 1613 
L 953 1613 
Q 991 1019 1311 708 
Q 1631 397 2203 397 
Q 2534 397 2845 478 
Q 3156 559 3463 722 
L 3463 178 
Q 3153 47 2828 -22 
Q 2503 -91 2169 -91 
Q 1331 -91 842 396 
Q 353 884 353 1716 
Q 353 2575 817 3079 
Q 1281 3584 2069 3584 
Q 2775 3584 3186 3129 
Q 3597 2675 3597 1894 
z
M 3022 2063 
Q 3016 2534 2758 2815 
Q 2500 3097 2075 3097 
Q 1594 3097 1305 2825 
Q 1016 2553 972 2059 
L 3022 2063 
z
" transform="scale(0.015625)"/>
       <path id="DejaVuSans-63" d="M 3122 3366 
L 3122 2828 
Q 2878 2963 2633 3030 
Q 2388 3097 2138 3097 
Q 1578 3097 1268 2742 
Q 959 2388 959 1747 
Q 959 1106 1268 751 
Q 1578 397 2138 397 
Q 2388 397 2633 464 
Q 2878 531 3122 666 
L 3122 134 
Q 2881 22 2623 -34 
Q 2366 -91 2075 -91 
Q 1284 -91 818 406 
Q 353 903 353 1747 
Q 353 2603 823 3093 
Q 1294 3584 2113 3584 
Q 2378 3584 2631 3529 
Q 2884 3475 3122 3366 
z
" transform="scale(0.015625)"/>
       <path id="DejaVuSans-61" d="M 2194 1759 
Q 1497 1759 1228 1600 
Q 959 1441 959 1056 
Q 959 750 1161 570 
Q 1363 391 1709 391 
Q 2188 391 2477 730 
Q 2766 1069 2766 1631 
L 2766 1759 
L 2194 1759 
z
M 3341 1997 
L 3341 0 
L 2766 0 
L 2766 531 
Q 2569 213 2275 61 
Q 1981 -91 1556 -91 
Q 1019 -91 701 211 
Q 384 513 384 1019 
Q 384 1609 779 1909 
Q 1175 2209 1959 2209 
L 2766 2209 
L 2766 2266 
Q 2766 2663 2505 2880 
Q 2244 3097 1772 3097 
Q 1472 3097 1187 3025 
Q 903 2953 641 2809 
L 641 3341 
Q 956 3463 1253 3523 
Q 1550 3584 1831 3584 
Q 2591 3584 2966 3190 
Q 3341 2797 3341 1997 
z
" transform="scale(0.015625)"/>
       <path id="DejaVuSans-79" d="M 2059 -325 
Q 1816 -950 1584 -1140 
Q 1353 -1331 966 -1331 
L 506 -1331 
L 506 -850 
L 844 -850 
Q 1081 -850 1212 -737 
Q 1344 -625 1503 -206 
L 1606 56 
L 191 3500 
L 800 3500 
L 1894 763 
L 2988 3500 
L 3597 3500 
L 2059 -325 
z
" transform="scale(0.015625)"/>
      </defs>
      <use xlink:href="#DejaVuSans-Oblique-3b4" transform="translate(0 0.015625)"/>
      <use xlink:href="#DejaVuSans-3d" transform="translate(80.664062 0.015625)"/>
      <use xlink:href="#DejaVuSans-32" transform="translate(183.935547 0.015625)"/>
      <use xlink:href="#DejaVuSans-Oblique-3c0" transform="translate(247.558594 0.015625)"/>
      <use xlink:href="#DejaVuSans-22c5" transform="translate(327.246094 0.015625)"/>
      <use xlink:href="#DejaVuSans-30" transform="translate(378.515625 0.015625)"/>
      <use xlink:href="#DejaVuSans-2e" transform="translate(442.138672 0.015625)"/>
      <use xlink:href="#DejaVuSans-31" transform="translate(473.925781 0.015625)"/>
      <use xlink:href="#DejaVuSans-2c" transform="translate(537.548828 0.015625)"/>
      <use xlink:href="#DejaVuSans-20" transform="translate(569.335938 0.015625)"/>
      <use xlink:href="#DejaVuSans-6e" transform="translate(601.123047 0.015625)"/>
      <use xlink:href="#DejaVuSans-6f" transform="translate(664.501953 0.015625)"/>
      <use xlink:href="#DejaVuSans-20" transform="translate(725.683594 0.015625)"/>
      <use xlink:href="#DejaVuSans-64" transform="translate(757.470703 0.015625)"/>
      <use xlink:href="#DejaVuSans-65" transform="translate(820.947266 0.015625)"/>
      <use xlink:href="#DejaVuSans-63" transform="translate(882.470703 0.015625)"/>
      <use xlink:href="#DejaVuSans-61" transform="translate(937.451172 0.015625)"/>
      <use xlink:href="#DejaVuSans-79" transform="translate(998.730469 0.015625)"/>
     </g>
    </g>
   </g>
  </g>
 </g>
 <defs>
  <clipPath id="p3c3110dc2b">
   <rect x="61.410938" y="12.898828" width="357.12" height="266.112"/>
  </clipPath>
 </defs>
</svg>
