<?xml version="1.0" encoding="utf-8" standalone="no"?>
<!DOCTYPE svg PUBLIC "-//W3C//DTD SVG 1.1//EN"
  "http://www.w3.org/Graphics/SVG/1.1/DTD/svg11.dtd">
<svg xmlns:xlink="http://www.w3.org/1999/xlink" width="425.730937pt" height="349.865437pt" viewBox="0 0 425.730937 349.865437" xmlns="http://www.w3.org/2000/svg" version="1.1">
 <defs>
  <style type="text/css">*{stroke-linejoin: round; stroke-linecap: butt}</style>
 </defs>
 <g id="figure_1">
  <g id="patch_1">
   <path d="M 0 349.865437 
L 425.730937 349.865437 
L 425.730937 -0 
L 0 -0 
L 0 349.865437 
z
" style="fill: none"/>
  </g>
  <g id="axes_1">
   <g id="patch_2">
    <path d="M 61.410938 297.792 
L 418.530938 297.792 
L 418.530938 31.68 
L 61.410938 31.68 
L 61.410938 297.792 
z
" style="fill: none"/>
   </g>
   <g id="matplotlib.axis_1">
    <g id="xtick_1">
     <g id="line2d_1">
      <path d="M 110.109119 297.792 
L 110.109119 31.68 
" clip-path="url(#pdbb66de9b8)" style="fill: none; stroke: #b0b0b0; stroke-width: 0.8; stroke-linecap: square"/>
     </g>
     <g id="line2d_2">
      <defs>
       <path id="md39032bed2" d="M 0 0 
L 0 3.5 
" style="stroke: #000000; stroke-width: 0.8"/>
      </defs>
      <g>
       <use xlink:href="#md39032bed2" x="110.109119" y="297.792" style="stroke: #000000; stroke-width: 0.8"/>
      </g>
     </g>
     <g id="text_1">
      <!-- −0.2 -->
      <g transform="translate(91.89701 316.189656) scale(0.15 -0.15)">
       <defs>
        <path id="DejaVuSans-2212" d="M 678 2272 
L 4684 2272 
L 4684 1741 
L 678 1741 
L 678 2272 
z
" transform="scale(0.015625)"/>
        <path id="DejaVuSans-30" d="M 2034 4250 
Q 1547 4250 1301 3770 
Q 1056 3291 1056 2328 
Q 1056 1369 1301 889 
Q 1547 409 2034 409 
Q 2525 409 2770 889 
Q 3016 1369 3016 2328 
Q 3016 3291 2770 3770 
Q 2525 4250 2034 4250 
z
M 2034 4750 
Q 2819 4750 3233 4129 
Q 3647 3509 3647 2328 
Q 3647 1150 3233 529 
Q 2819 -91 2034 -91 
Q 1250 -91 836 529 
Q 422 1150 422 2328 
Q 422 3509 836 4129 
Q 1250 4750 2034 4750 
z
" transform="scale(0.015625)"/>
        <path id="DejaVuSans-2e" d="M 684 794 
L 1344 794 
L 1344 0 
L 684 0 
L 684 794 
z
" transform="scale(0.015625)"/>
        <path id="DejaVuSans-32" d="M 1228 531 
L 3431 531 
L 3431 0 
L 469 0 
L 469 531 
Q 828 903 1448 1529 
Q 2069 2156 2228 2338 
Q 2531 2678 2651 2914 
Q 2772 3150 2772 3378 
Q 2772 3750 2511 3984 
Q 2250 4219 1831 4219 
Q 1534 4219 1204 4116 
Q 875 4013 500 3803 
L 500 4441 
Q 881 4594 1212 4672 
Q 1544 4750 1819 4750 
Q 2544 4750 2975 4387 
Q 3406 4025 3406 3419 
Q 3406 3131 3298 2873 
Q 3191 2616 2906 2266 
Q 2828 2175 2409 1742 
Q 1991 1309 1228 531 
z
" transform="scale(0.015625)"/>
       </defs>
       <use xlink:href="#DejaVuSans-2212"/>
       <use xlink:href="#DejaVuSans-30" x="83.789062"/>
       <use xlink:href="#DejaVuSans-2e" x="147.412109"/>
       <use xlink:href="#DejaVuSans-32" x="179.199219"/>
      </g>
     </g>
    </g>
    <g id="xtick_2">
     <g id="line2d_3">
      <path d="M 175.040028 297.792 
L 175.040028 31.68 
" clip-path="url(#pdbb66de9b8)" style="fill: none; stroke: #b0b0b0; stroke-width: 0.8; stroke-linecap: square"/>
     </g>
     <g id="line2d_4">
      <g>
       <use xlink:href="#md39032bed2" x="175.040028" y="297.792" style="stroke: #000000; stroke-width: 0.8"/>
      </g>
     </g>
     <g id="text_2">
      <!-- −0.1 -->
      <g transform="translate(156.827919 316.189656) scale(0.15 -0.15)">
       <defs>
        <path id="DejaVuSans-31" d="M 794 531 
L 1825 531 
L 1825 4091 
L 703 3866 
L 703 4441 
L 1819 4666 
L 2450 4666 
L 2450 531 
L 3481 531 
L 3481 0 
L 794 0 
L 794 531 
z
" transform="scale(0.015625)"/>
       </defs>
       <use xlink:href="#DejaVuSans-2212"/>
       <use xlink:href="#DejaVuSans-30" x="83.789062"/>
       <use xlink:href="#DejaVuSans-2e" x="147.412109"/>
       <use xlink:href="#DejaVuSans-31" x="179.199219"/>
      </g>
     </g>
    </g>
    <g id="xtick_3">
     <g id="line2d_5">
      <path d="M 239.970938 297.792 
L 239.970938 31.68 
" clip-path="url(#pdbb66de9b8)" style="fill: none; stroke: #b0b0b0; stroke-width: 0.8; stroke-linecap: square"/>
     </g>
     <g id="line2d_6">
      <g>
       <use xlink:href="#md39032bed2" x="239.970938" y="297.792" style="stroke: #000000; stroke-width: 0.8"/>
      </g>
     </g>
     <g id="text_3">
      <!-- 0.0 -->
      <g transform="translate(228.043594 316.189656) scale(0.15 -0.15)">
       <use xlink:href="#DejaVuSans-30"/>
       <use xlink:href="#DejaVuSans-2e" x="63.623047"/>
       <use xlink:href="#DejaVuSans-30" x="95.410156"/>
      </g>
     </g>
    </g>
    <g id="xtick_4">
     <g id="line2d_7">
      <path d="M 304.901847 297.792 
L 304.901847 31.68 
" clip-path="url(#pdbb66de9b8)" style="fill: none; stroke: #b0b0b0; stroke-width: 0.8; stroke-linecap: square"/>
     </g>
     <g id="line2d_8">
      <g>
       <use xlink:href="#md39032bed2" x="304.901847" y="297.792" style="stroke: #000000; stroke-width: 0.8"/>
      </g>
     </g>
     <g id="text_4">
      <!-- 0.1 -->
      <g transform="translate(292.974503 316.189656) scale(0.15 -0.15)">
       <use xlink:href="#DejaVuSans-30"/>
       <use xlink:href="#DejaVuSans-2e" x="63.623047"/>
       <use xlink:href="#DejaVuSans-31" x="95.410156"/>
      </g>
     </g>
    </g>
    <g id="xtick_5">
     <g id="line2d_9">
      <path d="M 369.832756 297.792 
L 369.832756 31.68 
" clip-path="url(#pdbb66de9b8)" style="fill: none; stroke: #b0b0b0; stroke-width: 0.8; stroke-linecap: square"/>
     </g>
     <g id="line2d_10">
      <g>
       <use xlink:href="#md39032bed2" x="369.832756" y="297.792" style="stroke: #000000; stroke-width: 0.8"/>
      </g>
     </g>
     <g id="text_5">
      <!-- 0.2 -->
      <g transform="translate(357.905412 316.189656) scale(0.15 -0.15)">
       <use xlink:href="#DejaVuSans-30"/>
       <use xlink:href="#DejaVuSans-2e" x="63.623047"/>
       <use xlink:href="#DejaVuSans-32" x="95.410156"/>
      </g>
     </g>
    </g>
    <g id="text_6">
     <!-- det -->
     <g transform="translate(223.549063 338.506062) scale(0.2 -0.2)">
      <defs>
       <path id="DejaVuSans-64" d="M 2906 2969 
L 2906 4863 
L 3481 4863 
L 3481 0 
L 2906 0 
L 2906 525 
Q 2725 213 2448 61 
Q 2172 -91 1784 -91 
Q 1150 -91 751 415 
Q 353 922 353 1747 
Q 353 2572 751 3078 
Q 1150 3584 1784 3584 
Q 2172 3584 2448 3432 
Q 2725 3281 2906 2969 
z
M 947 1747 
Q 947 1113 1208 752 
Q 1469 391 1925 391 
Q 2381 391 2643 752 
Q 2906 1113 2906 1747 
Q 2906 2381 2643 2742 
Q 2381 3103 1925 3103 
Q 1469 3103 1208 2742 
Q 947 2381 947 1747 
z
" transform="scale(0.015625)"/>
       <path id="DejaVuSans-65" d="M 3597 1894 
L 3597 1613 
L 953 1613 
Q 991 1019 1311 708 
Q 1631 397 2203 397 
Q 2534 397 2845 478 
Q 3156 559 3463 722 
L 3463 178 
Q 3153 47 2828 -22 
Q 2503 -91 2169 -91 
Q 1331 -91 842 396 
Q 353 884 353 1716 
Q 353 2575 817 3079 
Q 1281 3584 2069 3584 
Q 2775 3584 3186 3129 
Q 3597 2675 3597 1894 
z
M 3022 2063 
Q 3016 2534 2758 2815 
Q 2500 3097 2075 3097 
Q 1594 3097 1305 2825 
Q 1016 2553 972 2059 
L 3022 2063 
z
" transform="scale(0.015625)"/>
       <path id="DejaVuSans-74" d="M 1172 4494 
L 1172 3500 
L 2356 3500 
L 2356 3053 
L 1172 3053 
L 1172 1153 
Q 1172 725 1289 603 
Q 1406 481 1766 481 
L 2356 481 
L 2356 0 
L 1766 0 
Q 1100 0 847 248 
Q 594 497 594 1153 
L 594 3053 
L 172 3053 
L 172 3500 
L 594 3500 
L 594 4494 
L 1172 4494 
z
" transform="scale(0.015625)"/>
      </defs>
      <use xlink:href="#DejaVuSans-64"/>
      <use xlink:href="#DejaVuSans-65" x="63.476562"/>
      <use xlink:href="#DejaVuSans-74" x="125"/>
     </g>
    </g>
   </g>
   <g id="matplotlib.axis_2">
    <g id="ytick_1">
     <g id="line2d_11">
      <path d="M 61.410938 297.792 
L 418.530938 297.792 
" clip-path="url(#pdbb66de9b8)" style="fill: none; stroke: #b0b0b0; stroke-width: 0.8; stroke-linecap: square"/>
     </g>
     <g id="line2d_12">
      <defs>
       <path id="m6f3f5b6aff" d="M 0 0 
L -3.5 0 
" style="stroke: #000000; stroke-width: 0.8"/>
      </defs>
      <g>
       <use xlink:href="#m6f3f5b6aff" x="61.410938" y="297.792" style="stroke: #000000; stroke-width: 0.8"/>
      </g>
     </g>
     <g id="text_7">
      <!-- 0.0 -->
      <g transform="translate(30.55625 303.490828) scale(0.15 -0.15)">
       <use xlink:href="#DejaVuSans-30"/>
       <use xlink:href="#DejaVuSans-2e" x="63.623047"/>
       <use xlink:href="#DejaVuSans-30" x="95.410156"/>
      </g>
     </g>
    </g>
    <g id="ytick_2">
     <g id="line2d_13">
      <path d="M 61.410938 244.5696 
L 418.530938 244.5696 
" clip-path="url(#pdbb66de9b8)" style="fill: none; stroke: #b0b0b0; stroke-width: 0.8; stroke-linecap: square"/>
     </g>
     <g id="line2d_14">
      <g>
       <use xlink:href="#m6f3f5b6aff" x="61.410938" y="244.5696" style="stroke: #000000; stroke-width: 0.8"/>
      </g>
     </g>
     <g id="text_8">
      <!-- 0.2 -->
      <g transform="translate(30.55625 250.268428) scale(0.15 -0.15)">
       <use xlink:href="#DejaVuSans-30"/>
       <use xlink:href="#DejaVuSans-2e" x="63.623047"/>
       <use xlink:href="#DejaVuSans-32" x="95.410156"/>
      </g>
     </g>
    </g>
    <g id="ytick_3">
     <g id="line2d_15">
      <path d="M 61.410938 191.3472 
L 418.530938 191.3472 
" clip-path="url(#pdbb66de9b8)" style="fill: none; stroke: #b0b0b0; stroke-width: 0.8; stroke-linecap: square"/>
     </g>
     <g id="line2d_16">
      <g>
       <use xlink:href="#m6f3f5b6aff" x="61.410938" y="191.3472" style="stroke: #000000; stroke-width: 0.8"/>
      </g>
     </g>
     <g id="text_9">
      <!-- 0.4 -->
      <g transform="translate(30.55625 197.046028) scale(0.15 -0.15)">
       <defs>
        <path id="DejaVuSans-34" d="M 2419 4116 
L 825 1625 
L 2419 1625 
L 2419 4116 
z
M 2253 4666 
L 3047 4666 
L 3047 1625 
L 3713 1625 
L 3713 1100 
L 3047 1100 
L 3047 0 
L 2419 0 
L 2419 1100 
L 313 1100 
L 313 1709 
L 2253 4666 
z
" transform="scale(0.015625)"/>
       </defs>
       <use xlink:href="#DejaVuSans-30"/>
       <use xlink:href="#DejaVuSans-2e" x="63.623047"/>
       <use xlink:href="#DejaVuSans-34" x="95.410156"/>
      </g>
     </g>
    </g>
    <g id="ytick_4">
     <g id="line2d_17">
      <path d="M 61.410938 138.1248 
L 418.530938 138.1248 
" clip-path="url(#pdbb66de9b8)" style="fill: none; stroke: #b0b0b0; stroke-width: 0.8; stroke-linecap: square"/>
     </g>
     <g id="line2d_18">
      <g>
       <use xlink:href="#m6f3f5b6aff" x="61.410938" y="138.1248" style="stroke: #000000; stroke-width: 0.8"/>
      </g>
     </g>
     <g id="text_10">
      <!-- 0.6 -->
      <g transform="translate(30.55625 143.823628) scale(0.15 -0.15)">
       <defs>
        <path id="DejaVuSans-36" d="M 2113 2584 
Q 1688 2584 1439 2293 
Q 1191 2003 1191 1497 
Q 1191 994 1439 701 
Q 1688 409 2113 409 
Q 2538 409 2786 701 
Q 3034 994 3034 1497 
Q 3034 2003 2786 2293 
Q 2538 2584 2113 2584 
z
M 3366 4563 
L 3366 3988 
Q 3128 4100 2886 4159 
Q 2644 4219 2406 4219 
Q 1781 4219 1451 3797 
Q 1122 3375 1075 2522 
Q 1259 2794 1537 2939 
Q 1816 3084 2150 3084 
Q 2853 3084 3261 2657 
Q 3669 2231 3669 1497 
Q 3669 778 3244 343 
Q 2819 -91 2113 -91 
Q 1303 -91 875 529 
Q 447 1150 447 2328 
Q 447 3434 972 4092 
Q 1497 4750 2381 4750 
Q 2619 4750 2861 4703 
Q 3103 4656 3366 4563 
z
" transform="scale(0.015625)"/>
       </defs>
       <use xlink:href="#DejaVuSans-30"/>
       <use xlink:href="#DejaVuSans-2e" x="63.623047"/>
       <use xlink:href="#DejaVuSans-36" x="95.410156"/>
      </g>
     </g>
    </g>
    <g id="ytick_5">
     <g id="line2d_19">
      <path d="M 61.410938 84.9024 
L 418.530938 84.9024 
" clip-path="url(#pdbb66de9b8)" style="fill: none; stroke: #b0b0b0; stroke-width: 0.8; stroke-linecap: square"/>
     </g>
     <g id="line2d_20">
      <g>
       <use xlink:href="#m6f3f5b6aff" x="61.410938" y="84.9024" style="stroke: #000000; stroke-width: 0.8"/>
      </g>
     </g>
     <g id="text_11">
      <!-- 0.8 -->
      <g transform="translate(30.55625 90.601228) scale(0.15 -0.15)">
       <defs>
        <path id="DejaVuSans-38" d="M 2034 2216 
Q 1584 2216 1326 1975 
Q 1069 1734 1069 1313 
Q 1069 891 1326 650 
Q 1584 409 2034 409 
Q 2484 409 2743 651 
Q 3003 894 3003 1313 
Q 3003 1734 2745 1975 
Q 2488 2216 2034 2216 
z
M 1403 2484 
Q 997 2584 770 2862 
Q 544 3141 544 3541 
Q 544 4100 942 4425 
Q 1341 4750 2034 4750 
Q 2731 4750 3128 4425 
Q 3525 4100 3525 3541 
Q 3525 3141 3298 2862 
Q 3072 2584 2669 2484 
Q 3125 2378 3379 2068 
Q 3634 1759 3634 1313 
Q 3634 634 3220 271 
Q 2806 -91 2034 -91 
Q 1263 -91 848 271 
Q 434 634 434 1313 
Q 434 1759 690 2068 
Q 947 2378 1403 2484 
z
M 1172 3481 
Q 1172 3119 1398 2916 
Q 1625 2713 2034 2713 
Q 2441 2713 2670 2916 
Q 2900 3119 2900 3481 
Q 2900 3844 2670 4047 
Q 2441 4250 2034 4250 
Q 1625 4250 1398 4047 
Q 1172 3844 1172 3481 
z
" transform="scale(0.015625)"/>
       </defs>
       <use xlink:href="#DejaVuSans-30"/>
       <use xlink:href="#DejaVuSans-2e" x="63.623047"/>
       <use xlink:href="#DejaVuSans-38" x="95.410156"/>
      </g>
     </g>
    </g>
    <g id="ytick_6">
     <g id="line2d_21">
      <path d="M 61.410938 31.68 
L 418.530938 31.68 
" clip-path="url(#pdbb66de9b8)" style="fill: none; stroke: #b0b0b0; stroke-width: 0.8; stroke-linecap: square"/>
     </g>
     <g id="line2d_22">
      <g>
       <use xlink:href="#m6f3f5b6aff" x="61.410938" y="31.68" style="stroke: #000000; stroke-width: 0.8"/>
      </g>
     </g>
     <g id="text_12">
      <!-- 1.0 -->
      <g transform="translate(30.55625 37.378828) scale(0.15 -0.15)">
       <use xlink:href="#DejaVuSans-31"/>
       <use xlink:href="#DejaVuSans-2e" x="63.623047"/>
       <use xlink:href="#DejaVuSans-30" x="95.410156"/>
      </g>
     </g>
    </g>
    <g id="text_13">
     <!-- p -->
     <g transform="translate(22.396875 171.084437) rotate(-90) scale(0.2 -0.2)">
      <defs>
       <path id="DejaVuSans-70" d="M 1159 525 
L 1159 -1331 
L 581 -1331 
L 581 3500 
L 1159 3500 
L 1159 2969 
Q 1341 3281 1617 3432 
Q 1894 3584 2278 3584 
Q 2916 3584 3314 3078 
Q 3713 2572 3713 1747 
Q 3713 922 3314 415 
Q 2916 -91 2278 -91 
Q 1894 -91 1617 61 
Q 1341 213 1159 525 
z
M 3116 1747 
Q 3116 2381 2855 2742 
Q 2594 3103 2138 3103 
Q 1681 3103 1420 2742 
Q 1159 2381 1159 1747 
Q 1159 1113 1420 752 
Q 1681 391 2138 391 
Q 2594 391 2855 752 
Q 3116 1113 3116 1747 
z
" transform="scale(0.015625)"/>
      </defs>
      <use xlink:href="#DejaVuSans-70"/>
     </g>
    </g>
   </g>
   <g id="line2d_23">
    <path d="M 77.643665 166.323379 
L 103.583563 166.451833 
L 118.355345 166.815715 
L 136.665861 167.239106 
L 149.45725 167.277246 
L 165.689978 167.340584 
L 173.871272 167.61624 
L 182.117498 168.123368 
L 203.414836 169.573229 
L 208.73917 169.612813 
L 213.576523 169.428013 
L 218.251548 169.026152 
L 222.991505 168.392395 
L 228.056116 167.485622 
L 234.029759 166.179246 
L 254.45053 161.50626 
L 259.45021 160.724001 
L 264.157701 160.212197 
L 268.832727 159.927832 
L 273.73501 159.855518 
L 279.189207 160.004461 
L 286.006952 160.426839 
L 307.856203 161.942348 
L 315.940101 162.167675 
L 326.296581 162.213828 
L 345.970647 162.276692 
L 359.573672 162.604188 
L 379.572392 163.075135 
L 394.246778 163.154782 
L 402.29821 163.155262 
L 402.29821 163.155262 
" clip-path="url(#pdbb66de9b8)" style="fill: none; stroke: #1f77b4; stroke-width: 1.5; stroke-linecap: square"/>
   </g>
   <g id="line2d_24">
    <path d="M 77.643665 169.192659 
L 90.986967 169.458278 
L 99.979898 169.844928 
L 112.251839 170.119725 
L 122.640785 170.711531 
L 133.679039 170.981581 
L 140.269527 171.626319 
L 144.327708 171.873198 
L 149.10013 171.909822 
L 153.775156 172.013127 
L 157.151563 172.323155 
L 163.352465 173.196792 
L 166.761338 173.513218 
L 170.105279 173.59053 
L 177.539868 173.667653 
L 180.364363 173.997247 
L 183.805701 174.642696 
L 188.870312 175.584561 
L 191.500014 175.8252 
L 194.129716 175.837917 
L 197.700916 175.606468 
L 202.31101 175.343481 
L 205.200436 175.417179 
L 208.544378 175.740458 
L 213.998574 176.282912 
L 216.401018 176.270331 
L 218.576203 176.036269 
L 220.718923 175.578517 
L 222.926574 174.876465 
L 225.329018 173.874781 
L 228.056116 172.490596 
L 231.302661 170.584315 
L 235.425774 167.891066 
L 250.652072 157.683035 
L 253.768756 156.006067 
L 256.398458 154.836344 
L 258.73597 154.034658 
L 260.911156 153.519706 
L 263.053876 153.240363 
L 265.293992 153.175841 
L 267.891228 153.332172 
L 277.468538 154.136387 
L 280.617687 153.99813 
L 287.402967 153.622338 
L 289.967738 153.764742 
L 292.694836 154.147928 
L 297.402327 155.093581 
L 300.811199 155.65235 
L 303.635694 155.885063 
L 307.012101 155.922135 
L 313.083141 155.95989 
L 316.297221 156.245742 
L 321.58909 156.997919 
L 325.420014 157.415926 
L 328.893818 157.559538 
L 339.152901 157.807945 
L 351.814428 158.741178 
L 362.268305 158.964343 
L 373.923403 159.603241 
L 385.805759 159.841826 
L 395.318138 160.249633 
L 402.29821 160.285963 
L 402.29821 160.285963 
" clip-path="url(#pdbb66de9b8)" style="fill: none; stroke: #ff7f0e; stroke-width: 1.5; stroke-linecap: square"/>
   </g>
   <g id="line2d_25">
    <path d="M 77.643665 173.878901 
L 80.598021 173.995465 
L 84.493876 174.145499 
L 90.077934 174.532094 
L 93.811461 174.682619 
L 99.720174 175.133907 
L 103.129047 175.280165 
L 109.557207 175.812763 
L 112.511563 175.955144 
L 119.45917 176.581771 
L 122.023941 176.72846 
L 124.945832 177.179814 
L 127.185948 177.410189 
L 132.737541 177.78763 
L 136.730792 178.397574 
L 142.607039 178.865776 
L 146.24317 179.526333 
L 148.418356 179.602458 
L 150.690938 179.739447 
L 152.476538 180.091921 
L 155.950341 180.839612 
L 157.800872 180.932976 
L 160.495505 181.068747 
L 162.118778 181.411619 
L 166.176959 182.408486 
L 167.930094 182.483265 
L 170.462399 182.597526 
L 171.923345 182.91567 
L 174.682908 183.831306 
L 176.208785 184.168694 
L 177.702196 184.264208 
L 181.046138 184.380722 
L 182.409687 184.727402 
L 184.682268 185.59483 
L 186.273076 186.072186 
L 187.604159 186.233178 
L 189.292363 186.186484 
L 191.370152 186.167109 
L 192.66877 186.394801 
L 194.129716 186.894366 
L 197.149003 187.992896 
L 198.38269 188.151596 
L 199.681308 188.088007 
L 203.869352 187.690477 
L 205.232901 187.927624 
L 209.778065 188.943932 
L 210.946821 188.833372 
L 212.212974 188.484422 
L 213.933643 187.75487 
L 217.407447 186.245925 
L 219.939752 185.463609 
L 222.374661 184.643944 
L 223.933003 183.879841 
L 225.426414 182.89555 
L 226.984756 181.594153 
L 228.73789 179.828918 
L 230.848145 177.371566 
L 233.575243 173.830143 
L 237.406167 168.456727 
L 247.405527 154.259562 
L 250.132625 150.856562 
L 252.210414 148.598553 
L 253.963548 147.010708 
L 255.52189 145.88936 
L 257.047767 145.060422 
L 258.73597 144.400801 
L 264.871941 142.258168 
L 268.118487 140.863259 
L 269.417105 140.578957 
L 270.585861 140.547094 
L 271.852014 140.740142 
L 273.864872 141.317203 
L 275.650472 141.736832 
L 276.981556 141.817726 
L 278.474967 141.670305 
L 281.396858 141.32234 
L 282.630545 141.450851 
L 283.929163 141.821841 
L 288.247068 143.275214 
L 289.610618 143.341417 
L 293.441541 143.362007 
L 294.772625 143.709954 
L 299.44765 145.174108 
L 301.038458 145.229619 
L 303.668159 145.300766 
L 305.096639 145.599932 
L 307.369221 146.359773 
L 309.08989 146.817474 
L 310.583301 146.978306 
L 314.966138 147.265052 
L 316.94653 147.81197 
L 319.154181 148.36446 
L 320.777454 148.523395 
L 324.997963 148.790688 
L 327.270545 149.337658 
L 329.348334 149.75161 
L 331.166399 149.870352 
L 334.510341 150.04448 
L 336.620596 150.45584 
L 339.217832 150.923597 
L 341.23069 151.027266 
L 344.282443 151.180071 
L 346.652421 151.58787 
L 349.152261 151.953252 
L 351.522239 152.034138 
L 354.119476 152.179955 
L 357.073832 152.636779 
L 359.313948 152.863425 
L 365.51485 153.267109 
L 368.663999 153.620479 
L 376.033658 154.111647 
L 378.663359 154.318282 
L 384.409745 154.606897 
L 388.078341 154.91813 
L 394.279243 155.218203 
L 397.688116 155.460651 
L 402.29821 155.599671 
L 402.29821 155.599671 
" clip-path="url(#pdbb66de9b8)" style="fill: none; stroke: #2ca02c; stroke-width: 1.5; stroke-linecap: square"/>
   </g>
   <g id="line2d_26">
    <path d="M 77.643665 180.286421 
L 92.220654 181.747227 
L 94.006254 181.933017 
L 96.116508 182.128655 
L 98.421556 182.419524 
L 100.53181 182.62228 
L 102.869323 182.934455 
L 104.914647 183.136104 
L 107.31709 183.47861 
L 109.329948 183.684032 
L 111.764858 184.054365 
L 113.777716 184.268983 
L 116.212625 184.664323 
L 118.193018 184.880195 
L 120.725323 185.315115 
L 122.640785 185.533807 
L 125.238021 186.006504 
L 127.056087 186.218381 
L 129.848116 186.747833 
L 131.503854 186.951613 
L 134.425745 187.535514 
L 135.984087 187.737434 
L 139.035839 188.377706 
L 140.496785 188.580096 
L 143.613468 189.274923 
L 145.009483 189.475472 
L 148.288494 190.240571 
L 149.554647 190.436013 
L 151.210385 191.009194 
L 152.281745 191.220742 
L 154.359534 191.536202 
L 157.086632 192.337021 
L 158.807301 192.589431 
L 160.138385 193.124234 
L 161.24221 193.453925 
L 164.164101 194.054709 
L 165.819839 194.690824 
L 166.988596 194.819429 
L 168.092421 195.017989 
L 169.131316 195.468426 
L 170.462399 196.01274 
L 171.468828 196.148673 
L 172.767447 196.341696 
L 173.708945 196.747603 
L 175.267287 197.444803 
L 176.24125 197.579285 
L 177.572334 197.764833 
L 178.448901 198.147816 
L 180.202036 198.97203 
L 181.143534 199.088966 
L 182.442152 199.250594 
L 183.286254 199.616046 
L 185.201716 200.553562 
L 186.110748 200.650973 
L 187.441832 200.784168 
L 188.253468 201.12761 
L 190.331258 202.15596 
L 191.207825 202.220185 
L 192.571374 202.298573 
L 193.350545 202.601859 
L 195.655592 203.69377 
L 196.499694 203.698914 
L 197.895708 203.682785 
L 198.674879 203.937476 
L 201.142254 204.974946 
L 201.95389 204.905886 
L 203.577163 204.708642 
L 204.356334 204.889177 
L 206.791243 205.66078 
L 207.570414 205.514147 
L 210.070254 204.823301 
L 211.076683 204.956369 
L 212.407767 205.115456 
L 213.154472 204.972418 
L 213.966108 204.57802 
L 215.362123 203.585493 
L 216.628276 202.807592 
L 217.894428 202.318107 
L 219.420305 201.702092 
L 220.329338 201.074526 
L 221.303301 200.117373 
L 222.601919 198.496463 
L 228.153512 190.872256 
L 229.744319 188.217441 
L 231.432523 184.949145 
L 233.542778 180.350408 
L 236.562065 173.189919 
L 247.860043 145.889646 
L 249.840436 141.911705 
L 251.528639 139.007874 
L 253.281774 136.448257 
L 258.476247 129.543304 
L 259.580072 128.428403 
L 260.554036 127.755848 
L 261.625396 127.29827 
L 263.670719 126.48097 
L 264.871941 125.676814 
L 266.462748 124.634126 
L 267.274385 124.385889 
L 268.086021 124.383137 
L 270.618327 124.579426 
L 271.624756 124.243608 
L 272.923374 123.83548 
L 273.670079 123.852767 
L 274.481716 124.110663 
L 276.267316 124.757538 
L 277.078952 124.745049 
L 279.189207 124.553188 
L 279.968378 124.838202 
L 282.143563 125.809969 
L 282.987665 125.819592 
L 284.416145 125.804623 
L 285.16285 126.056912 
L 286.461468 126.805778 
L 287.370501 127.178762 
L 288.214603 127.267391 
L 289.80541 127.368821 
L 290.617047 127.715451 
L 292.66237 128.734086 
L 293.571403 128.822056 
L 294.837556 128.948771 
L 295.649192 129.281793 
L 297.759447 130.292185 
L 298.765876 130.387321 
L 299.869701 130.540803 
L 300.746268 130.914501 
L 302.564334 131.766603 
L 303.538298 131.889251 
L 304.80445 132.069479 
L 305.745948 132.472465 
L 307.336756 133.181907 
L 308.310719 133.318608 
L 309.674268 133.519241 
L 310.680698 133.944729 
L 312.109178 134.533497 
L 313.148072 134.672692 
L 314.44669 134.869134 
L 315.51805 135.30321 
L 316.849134 135.806297 
L 317.952959 135.94294 
L 319.219112 136.144929 
L 320.420334 136.617913 
L 321.621556 137.011783 
L 322.920174 137.146785 
L 324.023999 137.357078 
L 327.140683 138.216433 
L 328.569163 138.422113 
L 330.192436 138.985229 
L 331.263796 139.204496 
L 333.568843 139.554456 
L 335.808959 140.161619 
L 338.211403 140.515944 
L 340.321658 141.054792 
L 342.886428 141.429141 
L 344.80189 141.888738 
L 347.593919 142.29664 
L 349.282123 142.671427 
L 352.236479 143.093807 
L 353.827287 143.413605 
L 356.716712 143.802066 
L 358.37245 144.111407 
L 361.132014 144.455373 
L 362.917614 144.768074 
L 365.547316 145.073686 
L 367.430312 145.384428 
L 369.995083 145.666078 
L 371.94301 145.966029 
L 374.44285 146.227072 
L 376.455708 146.515441 
L 378.890618 146.758784 
L 380.935941 147.033408 
L 383.338385 147.263194 
L 385.416174 147.524057 
L 387.786152 147.742145 
L 389.896407 147.989352 
L 392.233919 148.197348 
L 394.376639 148.431098 
L 396.681687 148.630386 
L 398.824407 148.849776 
L 401.129454 149.042722 
L 402.29821 149.192063 
L 402.29821 149.192063 
" clip-path="url(#pdbb66de9b8)" style="fill: none; stroke: #d62728; stroke-width: 1.5; stroke-linecap: square"/>
   </g>
   <g id="line2d_27">
    <path d="M 77.643665 186.635292 
L 80.727883 187.037648 
L 83.909498 187.438895 
L 87.350836 187.916679 
L 89.915607 188.263392 
L 95.110079 189.058492 
L 98.129367 189.509599 
L 99.81757 189.799236 
L 103.74589 190.444626 
L 106.732712 190.938257 
L 108.161192 191.213979 
L 113.582923 192.171622 
L 116.829468 192.848236 
L 134.003694 196.673559 
L 135.107519 196.917024 
L 136.146414 197.213402 
L 137.250239 197.472188 
L 138.289134 197.768564 
L 139.392959 198.044842 
L 140.431854 198.339538 
L 141.535679 198.635596 
L 142.574574 198.926877 
L 143.74333 199.256776 
L 144.782225 199.556811 
L 145.918516 199.891761 
L 146.95741 200.192474 
L 148.126167 200.553189 
L 149.165061 200.860404 
L 150.333818 201.235858 
L 151.372712 201.548222 
L 152.573934 201.947003 
L 153.580363 202.256343 
L 154.781585 202.674343 
L 155.820479 202.999908 
L 157.021701 203.431783 
L 158.060596 203.765217 
L 159.261818 204.21332 
L 160.300712 204.55241 
L 161.501934 205.01941 
L 162.540828 205.36151 
L 163.774516 205.857898 
L 164.81341 206.208838 
L 166.047098 206.721822 
L 167.085992 207.078309 
L 168.352145 207.618938 
L 169.358574 207.96919 
L 170.657192 208.541413 
L 171.631156 208.880497 
L 172.994705 209.496459 
L 173.936203 209.828443 
L 175.332218 210.475092 
L 176.273716 210.811595 
L 177.66973 211.475434 
L 178.611228 211.809446 
L 180.072174 212.510398 
L 180.981207 212.836077 
L 182.474618 213.560063 
L 183.351185 213.867918 
L 184.909527 214.626211 
L 185.753628 214.91583 
L 187.376901 215.700289 
L 188.221003 215.987322 
L 189.81181 216.758287 
L 190.688378 217.032623 
L 192.344116 217.810419 
L 193.188218 218.051135 
L 194.941352 218.825725 
L 195.752988 219.033214 
L 197.506123 219.763555 
L 198.350225 219.927551 
L 200.200756 220.598869 
L 201.044858 220.711976 
L 202.895388 221.26885 
L 203.804421 221.301818 
L 205.687418 221.696607 
L 206.693847 221.612526 
L 208.511912 221.787955 
L 209.81053 221.488207 
L 211.303941 221.440193 
L 212.180508 220.985994 
L 212.992145 220.67865 
L 214.485556 220.262851 
L 215.297192 219.639063 
L 216.401018 218.838033 
L 217.926894 217.881117 
L 218.770996 216.948352 
L 220.556596 214.925994 
L 221.725352 213.586313 
L 222.699316 212.067273 
L 226.270516 205.705768 
L 227.569134 202.81534 
L 229.776785 197.232008 
L 232.179228 190.65437 
L 234.289483 184.16601 
L 237.178908 174.482826 
L 246.821148 141.631281 
L 248.931403 135.525986 
L 251.626036 128.495629 
L 253.411636 124.305455 
L 254.710254 121.818334 
L 258.216523 115.888008 
L 259.190487 114.747327 
L 261.041018 112.686659 
L 262.177308 111.451008 
L 262.988945 110.923495 
L 264.287563 110.133043 
L 265.845905 109.022256 
L 266.625076 108.852472 
L 267.501643 108.617274 
L 269.287243 107.918386 
L 271.007912 107.833049 
L 272.014341 107.593362 
L 272.66365 107.715759 
L 273.605148 107.881008 
L 275.390748 107.887179 
L 276.527039 108.231492 
L 278.085381 108.378081 
L 279.383999 108.866822 
L 280.682618 109.06515 
L 282.240959 109.697865 
L 283.214923 109.89166 
L 285.16285 110.672279 
L 285.844625 110.882454 
L 287.597759 111.666424 
L 288.344465 111.889911 
L 290.227461 112.737866 
L 290.941701 113.001344 
L 292.467578 113.756487 
L 293.37661 114.056501 
L 294.999883 114.843791 
L 295.811519 115.127659 
L 297.434792 115.909714 
L 298.246428 116.203119 
L 299.80477 116.951609 
L 300.648872 117.256524 
L 302.142283 117.970835 
L 303.051316 118.299603 
L 304.44733 118.96328 
L 305.421294 119.30991 
L 306.784843 119.942103 
L 307.758807 120.284543 
L 309.08989 120.889684 
L 310.096319 121.239063 
L 311.394938 121.812789 
L 312.433832 122.171736 
L 313.667519 122.702969 
L 314.738879 123.064763 
L 315.972567 123.575469 
L 317.043927 123.934668 
L 318.245148 124.414898 
L 319.316508 124.765215 
L 320.51773 125.229141 
L 321.58909 125.572835 
L 322.757847 126.011485 
L 323.861672 126.357536 
L 325.030428 126.776635 
L 326.134254 127.119504 
L 327.270545 127.511245 
L 328.37437 127.844921 
L 329.510661 128.222946 
L 330.614487 128.549103 
L 331.750778 128.912384 
L 332.854603 129.232474 
L 333.990894 129.580231 
L 335.094719 129.895517 
L 336.23101 130.227182 
L 337.334836 130.538747 
L 338.438661 130.848227 
L 339.542487 131.15063 
L 340.678778 131.455682 
L 341.782603 131.756232 
L 342.886428 132.038938 
L 343.990254 132.332355 
L 345.126545 132.609726 
L 346.23037 132.902486 
L 347.334196 133.157936 
L 348.470487 133.455427 
L 349.606778 133.700207 
L 350.743068 134.001407 
L 351.911825 134.232745 
L 353.307839 134.600578 
L 371.326167 138.190748 
L 373.923403 138.64122 
L 379.345134 139.587592 
L 385.221381 140.497616 
L 387.688756 140.876251 
L 392.948159 141.597079 
L 397.980305 142.289281 
L 400.707403 142.654093 
L 402.29821 142.843138 
L 402.29821 142.843138 
" clip-path="url(#pdbb66de9b8)" style="fill: none; stroke: #9467bd; stroke-width: 1.5; stroke-linecap: square"/>
   </g>
   <g id="line2d_28">
    <path d="M 77.643665 189.796913 
L 84.948392 190.884088 
L 92.967359 192.181445 
L 110.855825 195.564603 
L 123.809541 198.536585 
L 139.45789 202.87741 
L 142.996625 203.990825 
L 151.95709 207.082213 
L 167.508043 213.404991 
L 171.403898 215.192826 
L 174.228392 216.517491 
L 178.643694 218.66792 
L 183.675839 221.189647 
L 185.753628 222.225286 
L 196.23997 227.191001 
L 198.155432 227.923357 
L 203.090181 229.460301 
L 206.271796 229.918069 
L 209.291083 229.855827 
L 211.693527 229.37947 
L 213.284334 228.764417 
L 214.777745 227.951621 
L 215.751708 227.256937 
L 217.374981 225.904558 
L 219.225512 223.930386 
L 221.076043 221.459833 
L 223.02397 218.270997 
L 225.036828 214.296714 
L 226.887359 209.985727 
L 228.478167 205.780701 
L 230.653352 199.353757 
L 232.763607 192.337302 
L 235.295912 183.154151 
L 238.607388 170.207944 
L 245.360203 143.648689 
L 247.989905 134.359779 
L 250.132625 127.532597 
L 252.340276 121.303289 
L 254.060945 117.092156 
L 255.781614 113.370083 
L 257.794472 109.678159 
L 259.742399 106.752836 
L 261.625396 104.48372 
L 263.475927 102.740591 
L 265.423854 101.381872 
L 267.858763 100.241654 
L 268.767796 99.97413 
L 271.527359 99.516477 
L 274.708974 99.662491 
L 278.604828 100.473836 
L 285.455039 103.061899 
L 291.688407 106.00747 
L 310.907956 115.374846 
L 320.939781 119.682801 
L 333.341585 124.283739 
L 336.977716 125.497776 
L 344.736959 127.875088 
L 360.807359 132.072994 
L 377.494603 135.595204 
L 383.403316 136.674914 
L 396.94141 138.894265 
L 402.29821 139.681487 
L 402.29821 139.681487 
" clip-path="url(#pdbb66de9b8)" style="fill: none; stroke: #8c564b; stroke-width: 1.5; stroke-linecap: square"/>
   </g>
   <g id="line2d_29">
    <path d="M 77.643665 190.275715 
L 89.201367 192.070719 
L 99.622778 193.905432 
L 109.362414 195.83992 
L 118.485207 197.878703 
L 127.088552 200.035726 
L 134.880261 202.215492 
L 142.477178 204.576963 
L 149.749439 207.08225 
L 156.339927 209.579651 
L 162.800552 212.251104 
L 169.45597 215.237278 
L 176.793163 218.78227 
L 196.175039 228.347517 
L 199.648843 229.689261 
L 202.375941 230.513172 
L 204.680988 230.993323 
L 206.758778 231.207998 
L 208.641774 231.183506 
L 210.362443 230.946106 
L 211.985716 230.501883 
L 213.544058 229.845673 
L 215.037468 228.978691 
L 216.498414 227.879959 
L 217.991825 226.475016 
L 219.485236 224.756832 
L 220.978647 222.701306 
L 222.536988 220.170046 
L 224.127796 217.156399 
L 225.815999 213.461687 
L 227.569134 209.073484 
L 229.419665 203.833324 
L 231.432523 197.453943 
L 233.705105 189.484923 
L 236.432203 179.063928 
L 240.815039 161.280076 
L 245.068014 144.356199 
L 247.730181 134.665438 
L 249.970298 127.320399 
L 251.983156 121.45096 
L 253.866152 116.625638 
L 255.651752 112.649886 
L 257.339956 109.417678 
L 258.995694 106.723876 
L 260.554036 104.595187 
L 262.112378 102.831661 
L 263.670719 101.405665 
L 265.196596 100.306823 
L 266.722472 99.472979 
L 268.313279 98.856008 
L 269.936552 98.461322 
L 271.657221 98.268752 
L 273.507752 98.286073 
L 275.52061 98.525189 
L 277.858123 99.038537 
L 280.422894 99.831566 
L 283.442181 100.992779 
L 287.500363 102.812821 
L 293.01949 105.543399 
L 309.544407 113.799436 
L 316.329687 116.875252 
L 323.114967 119.704501 
L 330.095039 122.360443 
L 337.237439 124.82648 
L 344.736959 127.166573 
L 352.690996 129.399401 
L 361.132014 131.522529 
L 370.092479 133.535368 
L 379.702254 135.457065 
L 390.188596 137.315954 
L 401.58397 139.098325 
L 402.29821 139.202679 
L 402.29821 139.202679 
" clip-path="url(#pdbb66de9b8)" style="fill: none; stroke: #e377c2; stroke-width: 1.5; stroke-linecap: square"/>
   </g>
   <g id="patch_3">
    <path d="M 61.410938 297.792 
L 61.410938 31.68 
" style="fill: none; stroke: #000000; stroke-width: 0.8; stroke-linejoin: miter; stroke-linecap: square"/>
   </g>
   <g id="patch_4">
    <path d="M 418.530938 297.792 
L 418.530938 31.68 
" style="fill: none; stroke: #000000; stroke-width: 0.8; stroke-linejoin: miter; stroke-linecap: square"/>
   </g>
   <g id="patch_5">
    <path d="M 61.410938 297.792 
L 418.530938 297.792 
" style="fill: none; stroke: #000000; stroke-width: 0.8; stroke-linejoin: miter; stroke-linecap: square"/>
   </g>
   <g id="patch_6">
    <path d="M 61.410938 31.68 
L 418.530938 31.68 
" style="fill: none; stroke: #000000; stroke-width: 0.8; stroke-linejoin: miter; stroke-linecap: square"/>
   </g>
   <g id="text_14">
    <!-- $\rho_0=(|g1\rangle\langle g1|+|g2\rangle\langle g2|)/2$ -->
    <g transform="translate(80.610938 25.68) scale(0.24 -0.24)">
     <defs>
      <path id="DejaVuSans-Oblique-3c1" d="M 1203 2875 
Q 1453 3194 1981 3475 
Q 2188 3584 2756 3584 
Q 3394 3584 3694 3078 
Q 3994 2572 3834 1747 
Q 3672 922 3175 415 
Q 2678 -91 2041 -91 
Q 1656 -91 1409 63 
Q 1163 213 1044 525 
L 681 -1331 
L 103 -1331 
L 697 1716 
Q 838 2438 1203 2875 
z
M 3238 1747 
Q 3359 2381 3169 2744 
Q 2978 3103 2522 3103 
Q 2066 3103 1734 2744 
Q 1403 2381 1281 1747 
Q 1156 1113 1347 750 
Q 1538 391 1994 391 
Q 2450 391 2781 750 
Q 3113 1113 3238 1747 
z
" transform="scale(0.015625)"/>
      <path id="DejaVuSans-3d" d="M 678 2906 
L 4684 2906 
L 4684 2381 
L 678 2381 
L 678 2906 
z
M 678 1631 
L 4684 1631 
L 4684 1100 
L 678 1100 
L 678 1631 
z
" transform="scale(0.015625)"/>
      <path id="DejaVuSans-28" d="M 1984 4856 
Q 1566 4138 1362 3434 
Q 1159 2731 1159 2009 
Q 1159 1288 1364 580 
Q 1569 -128 1984 -844 
L 1484 -844 
Q 1016 -109 783 600 
Q 550 1309 550 2009 
Q 550 2706 781 3412 
Q 1013 4119 1484 4856 
L 1984 4856 
z
" transform="scale(0.015625)"/>
      <path id="DejaVuSans-7c" d="M 1344 4891 
L 1344 -1509 
L 813 -1509 
L 813 4891 
L 1344 4891 
z
" transform="scale(0.015625)"/>
      <path id="DejaVuSans-Oblique-67" d="M 3816 3500 
L 3219 434 
Q 3047 -456 2561 -893 
Q 2075 -1331 1253 -1331 
Q 950 -1331 690 -1286 
Q 431 -1241 206 -1147 
L 313 -588 
Q 525 -725 762 -790 
Q 1000 -856 1269 -856 
Q 1816 -856 2167 -557 
Q 2519 -259 2631 300 
L 2681 563 
Q 2441 288 2122 144 
Q 1803 0 1434 0 
Q 903 0 598 351 
Q 294 703 294 1319 
Q 294 1803 478 2267 
Q 663 2731 997 3091 
Q 1219 3328 1514 3456 
Q 1809 3584 2131 3584 
Q 2484 3584 2746 3420 
Q 3009 3256 3138 2956 
L 3238 3500 
L 3816 3500 
z
M 2950 2216 
Q 2950 2641 2750 2872 
Q 2550 3103 2181 3103 
Q 1953 3103 1747 3012 
Q 1541 2922 1394 2759 
Q 1156 2491 1023 2127 
Q 891 1763 891 1375 
Q 891 944 1092 712 
Q 1294 481 1672 481 
Q 2219 481 2584 976 
Q 2950 1472 2950 2216 
z
" transform="scale(0.015625)"/>
      <path id="DejaVuSans-27e9" d="M 1925 2006 
L 1044 -844 
L 513 -844 
L 1394 2006 
L 513 4856 
L 1044 4856 
L 1925 2006 
z
" transform="scale(0.015625)"/>
      <path id="DejaVuSans-27e8" d="M 572 2006 
L 1453 4856 
L 1984 4856 
L 1103 2006 
L 1984 -844 
L 1453 -844 
L 572 2006 
z
" transform="scale(0.015625)"/>
      <path id="DejaVuSans-2b" d="M 2944 4013 
L 2944 2272 
L 4684 2272 
L 4684 1741 
L 2944 1741 
L 2944 0 
L 2419 0 
L 2419 1741 
L 678 1741 
L 678 2272 
L 2419 2272 
L 2419 4013 
L 2944 4013 
z
" transform="scale(0.015625)"/>
      <path id="DejaVuSans-29" d="M 513 4856 
L 1013 4856 
Q 1481 4119 1714 3412 
Q 1947 2706 1947 2009 
Q 1947 1309 1714 600 
Q 1481 -109 1013 -844 
L 513 -844 
Q 928 -128 1133 580 
Q 1338 1288 1338 2009 
Q 1338 2731 1133 3434 
Q 928 4138 513 4856 
z
" transform="scale(0.015625)"/>
      <path id="DejaVuSans-2f" d="M 1625 4666 
L 2156 4666 
L 531 -594 
L 0 -594 
L 1625 4666 
z
" transform="scale(0.015625)"/>
     </defs>
     <use xlink:href="#DejaVuSans-Oblique-3c1" transform="translate(0 0.578125)"/>
     <use xlink:href="#DejaVuSans-30" transform="translate(63.476562 -15.828125) scale(0.7)"/>
     <use xlink:href="#DejaVuSans-3d" transform="translate(130.229492 0.578125)"/>
     <use xlink:href="#DejaVuSans-28" transform="translate(233.500977 0.578125)"/>
     <use xlink:href="#DejaVuSans-7c" transform="translate(272.514648 0.578125)"/>
     <use xlink:href="#DejaVuSans-Oblique-67" transform="translate(306.206055 0.578125)"/>
     <use xlink:href="#DejaVuSans-31" transform="translate(369.682617 0.578125)"/>
     <use xlink:href="#DejaVuSans-27e9" transform="translate(433.305664 0.578125)"/>
     <use xlink:href="#DejaVuSans-27e8" transform="translate(472.319336 0.578125)"/>
     <use xlink:href="#DejaVuSans-Oblique-67" transform="translate(511.333008 0.578125)"/>
     <use xlink:href="#DejaVuSans-31" transform="translate(574.80957 0.578125)"/>
     <use xlink:href="#DejaVuSans-7c" transform="translate(638.432617 0.578125)"/>
     <use xlink:href="#DejaVuSans-2b" transform="translate(691.606445 0.578125)"/>
     <use xlink:href="#DejaVuSans-7c" transform="translate(794.87793 0.578125)"/>
     <use xlink:href="#DejaVuSans-Oblique-67" transform="translate(828.569336 0.578125)"/>
     <use xlink:href="#DejaVuSans-32" transform="translate(892.045898 0.578125)"/>
     <use xlink:href="#DejaVuSans-27e9" transform="translate(955.668945 0.578125)"/>
     <use xlink:href="#DejaVuSans-27e8" transform="translate(994.682617 0.578125)"/>
     <use xlink:href="#DejaVuSans-Oblique-67" transform="translate(1033.696289 0.578125)"/>
     <use xlink:href="#DejaVuSans-32" transform="translate(1097.172852 0.578125)"/>
     <use xlink:href="#DejaVuSans-7c" transform="translate(1160.795898 0.578125)"/>
     <use xlink:href="#DejaVuSans-29" transform="translate(1194.487305 0.578125)"/>
     <use xlink:href="#DejaVuSans-2f" transform="translate(1233.500977 0.578125)"/>
     <use xlink:href="#DejaVuSans-32" transform="translate(1263.567383 0.578125)"/>
    </g>
   </g>
   <g id="legend_1">
    <g id="patch_7">
     <path d="M 143.535938 94.12125 
L 410.130938 94.12125 
Q 412.530938 94.12125 412.530938 91.72125 
L 412.530938 40.08 
Q 412.530938 37.68 410.130938 37.68 
L 143.535938 37.68 
Q 141.135938 37.68 141.135938 40.08 
L 141.135938 91.72125 
Q 141.135938 94.12125 143.535938 94.12125 
z
" style="fill: #ffffff; opacity: 0.8; stroke: #cccccc; stroke-linejoin: miter"/>
    </g>
    <g id="line2d_30">
     <path d="M 145.935938 47.398125 
L 157.935938 47.398125 
L 169.935938 47.398125 
" style="fill: none; stroke: #1f77b4; stroke-width: 1.5; stroke-linecap: square"/>
    </g>
    <g id="text_15">
     <!-- t=10 -->
     <g transform="translate(179.535938 51.598125) scale(0.12 -0.12)">
      <use xlink:href="#DejaVuSans-74"/>
      <use xlink:href="#DejaVuSans-3d" x="39.208984"/>
      <use xlink:href="#DejaVuSans-31" x="122.998047"/>
      <use xlink:href="#DejaVuSans-30" x="186.621094"/>
     </g>
    </g>
    <g id="line2d_31">
     <path d="M 145.935938 65.011875 
L 157.935938 65.011875 
L 169.935938 65.011875 
" style="fill: none; stroke: #ff7f0e; stroke-width: 1.5; stroke-linecap: square"/>
    </g>
    <g id="text_16">
     <!-- t=30 -->
     <g transform="translate(179.535938 69.211875) scale(0.12 -0.12)">
      <defs>
       <path id="DejaVuSans-33" d="M 2597 2516 
Q 3050 2419 3304 2112 
Q 3559 1806 3559 1356 
Q 3559 666 3084 287 
Q 2609 -91 1734 -91 
Q 1441 -91 1130 -33 
Q 819 25 488 141 
L 488 750 
Q 750 597 1062 519 
Q 1375 441 1716 441 
Q 2309 441 2620 675 
Q 2931 909 2931 1356 
Q 2931 1769 2642 2001 
Q 2353 2234 1838 2234 
L 1294 2234 
L 1294 2753 
L 1863 2753 
Q 2328 2753 2575 2939 
Q 2822 3125 2822 3475 
Q 2822 3834 2567 4026 
Q 2313 4219 1838 4219 
Q 1578 4219 1281 4162 
Q 984 4106 628 3988 
L 628 4550 
Q 988 4650 1302 4700 
Q 1616 4750 1894 4750 
Q 2613 4750 3031 4423 
Q 3450 4097 3450 3541 
Q 3450 3153 3228 2886 
Q 3006 2619 2597 2516 
z
" transform="scale(0.015625)"/>
      </defs>
      <use xlink:href="#DejaVuSans-74"/>
      <use xlink:href="#DejaVuSans-3d" x="39.208984"/>
      <use xlink:href="#DejaVuSans-33" x="122.998047"/>
      <use xlink:href="#DejaVuSans-30" x="186.621094"/>
     </g>
    </g>
    <g id="line2d_32">
     <path d="M 145.935938 82.625625 
L 157.935938 82.625625 
L 169.935938 82.625625 
" style="fill: none; stroke: #2ca02c; stroke-width: 1.5; stroke-linecap: square"/>
    </g>
    <g id="text_17">
     <!-- t=70 -->
     <g transform="translate(179.535938 86.825625) scale(0.12 -0.12)">
      <defs>
       <path id="DejaVuSans-37" d="M 525 4666 
L 3525 4666 
L 3525 4397 
L 1831 0 
L 1172 0 
L 2766 4134 
L 525 4134 
L 525 4666 
z
" transform="scale(0.015625)"/>
      </defs>
      <use xlink:href="#DejaVuSans-74"/>
      <use xlink:href="#DejaVuSans-3d" x="39.208984"/>
      <use xlink:href="#DejaVuSans-37" x="122.998047"/>
      <use xlink:href="#DejaVuSans-30" x="186.621094"/>
     </g>
    </g>
    <g id="line2d_33">
     <path d="M 233.565938 47.398125 
L 245.565938 47.398125 
L 257.565938 47.398125 
" style="fill: none; stroke: #d62728; stroke-width: 1.5; stroke-linecap: square"/>
    </g>
    <g id="text_18">
     <!-- t=150 -->
     <g transform="translate(267.165938 51.598125) scale(0.12 -0.12)">
      <defs>
       <path id="DejaVuSans-35" d="M 691 4666 
L 3169 4666 
L 3169 4134 
L 1269 4134 
L 1269 2991 
Q 1406 3038 1543 3061 
Q 1681 3084 1819 3084 
Q 2600 3084 3056 2656 
Q 3513 2228 3513 1497 
Q 3513 744 3044 326 
Q 2575 -91 1722 -91 
Q 1428 -91 1123 -41 
Q 819 9 494 109 
L 494 744 
Q 775 591 1075 516 
Q 1375 441 1709 441 
Q 2250 441 2565 725 
Q 2881 1009 2881 1497 
Q 2881 1984 2565 2268 
Q 2250 2553 1709 2553 
Q 1456 2553 1204 2497 
Q 953 2441 691 2322 
L 691 4666 
z
" transform="scale(0.015625)"/>
      </defs>
      <use xlink:href="#DejaVuSans-74"/>
      <use xlink:href="#DejaVuSans-3d" x="39.208984"/>
      <use xlink:href="#DejaVuSans-31" x="122.998047"/>
      <use xlink:href="#DejaVuSans-35" x="186.621094"/>
      <use xlink:href="#DejaVuSans-30" x="250.244141"/>
     </g>
    </g>
    <g id="line2d_34">
     <path d="M 233.565938 65.011875 
L 245.565938 65.011875 
L 257.565938 65.011875 
" style="fill: none; stroke: #9467bd; stroke-width: 1.5; stroke-linecap: square"/>
    </g>
    <g id="text_19">
     <!-- t=310 -->
     <g transform="translate(267.165938 69.211875) scale(0.12 -0.12)">
      <use xlink:href="#DejaVuSans-74"/>
      <use xlink:href="#DejaVuSans-3d" x="39.208984"/>
      <use xlink:href="#DejaVuSans-33" x="122.998047"/>
      <use xlink:href="#DejaVuSans-31" x="186.621094"/>
      <use xlink:href="#DejaVuSans-30" x="250.244141"/>
     </g>
    </g>
    <g id="line2d_35">
     <path d="M 328.830938 47.398125 
L 340.830938 47.398125 
L 352.830938 47.398125 
" style="fill: none; stroke: #8c564b; stroke-width: 1.5; stroke-linecap: square"/>
    </g>
    <g id="text_20">
     <!-- t=630 -->
     <g transform="translate(362.430938 51.598125) scale(0.12 -0.12)">
      <use xlink:href="#DejaVuSans-74"/>
      <use xlink:href="#DejaVuSans-3d" x="39.208984"/>
      <use xlink:href="#DejaVuSans-36" x="122.998047"/>
      <use xlink:href="#DejaVuSans-33" x="186.621094"/>
      <use xlink:href="#DejaVuSans-30" x="250.244141"/>
     </g>
    </g>
    <g id="line2d_36">
     <path d="M 328.830938 65.011875 
L 340.830938 65.011875 
L 352.830938 65.011875 
" style="fill: none; stroke: #e377c2; stroke-width: 1.5; stroke-linecap: square"/>
    </g>
    <g id="text_21">
     <!-- t=1270 -->
     <g transform="translate(362.430938 69.211875) scale(0.12 -0.12)">
      <use xlink:href="#DejaVuSans-74"/>
      <use xlink:href="#DejaVuSans-3d" x="39.208984"/>
      <use xlink:href="#DejaVuSans-31" x="122.998047"/>
      <use xlink:href="#DejaVuSans-32" x="186.621094"/>
      <use xlink:href="#DejaVuSans-37" x="250.244141"/>
      <use xlink:href="#DejaVuSans-30" x="313.867188"/>
     </g>
    </g>
   </g>
  </g>
 </g>
 <defs>
  <clipPath id="pdbb66de9b8">
   <rect x="61.410938" y="31.68" width="357.12" height="266.112"/>
  </clipPath>
 </defs>
</svg>
