<?xml version="1.0" encoding="utf-8" standalone="no"?>
<!DOCTYPE svg PUBLIC "-//W3C//DTD SVG 1.1//EN"
  "http://www.w3.org/Graphics/SVG/1.1/DTD/svg11.dtd">
<svg xmlns:xlink="http://www.w3.org/1999/xlink" width="425.730937pt" height="331.084266pt" viewBox="0 0 425.730937 331.084266" xmlns="http://www.w3.org/2000/svg" version="1.1">
 <defs>
  <style type="text/css">*{stroke-linejoin: round; stroke-linecap: butt}</style>
 </defs>
 <g id="figure_1">
  <g id="patch_1">
   <path d="M 0 331.084266 
L 425.730937 331.084266 
L 425.730937 0 
L 0 0 
L 0 331.084266 
z
" style="fill: none"/>
  </g>
  <g id="axes_1">
   <g id="patch_2">
    <path d="M 61.410938 279.010828 
L 418.530938 279.010828 
L 418.530938 12.898828 
L 61.410938 12.898828 
L 61.410938 279.010828 
z
" style="fill: none"/>
   </g>
   <g id="matplotlib.axis_1">
    <g id="xtick_1">
     <g id="line2d_1">
      <path d="M 77.643665 279.010828 
L 77.643665 12.898828 
" clip-path="url(#p3c3110dc2b)" style="fill: none; stroke: #b0b0b0; stroke-width: 0.8; stroke-linecap: square"/>
     </g>
     <g id="line2d_2">
      <defs>
       <path id="md39032bed2" d="M 0 0 
L 0 3.5 
" style="stroke: #000000; stroke-width: 0.8"/>
      </defs>
      <g>
       <use xlink:href="#md39032bed2" x="77.643665" y="279.010828" style="stroke: #000000; stroke-width: 0.8"/>
      </g>
     </g>
     <g id="text_1">
      <!-- 0 -->
      <g transform="translate(72.87179 297.408484) scale(0.15 -0.15)">
       <defs>
        <path id="DejaVuSans-30" d="M 2034 4250 
Q 1547 4250 1301 3770 
Q 1056 3291 1056 2328 
Q 1056 1369 1301 889 
Q 1547 409 2034 409 
Q 2525 409 2770 889 
Q 3016 1369 3016 2328 
Q 3016 3291 2770 3770 
Q 2525 4250 2034 4250 
z
M 2034 4750 
Q 2819 4750 3233 4129 
Q 3647 3509 3647 2328 
Q 3647 1150 3233 529 
Q 2819 -91 2034 -91 
Q 1250 -91 836 529 
Q 422 1150 422 2328 
Q 422 3509 836 4129 
Q 1250 4750 2034 4750 
z
" transform="scale(0.015625)"/>
       </defs>
       <use xlink:href="#DejaVuSans-30"/>
      </g>
     </g>
    </g>
    <g id="xtick_2">
     <g id="line2d_3">
      <path d="M 158.807301 279.010828 
L 158.807301 12.898828 
" clip-path="url(#p3c3110dc2b)" style="fill: none; stroke: #b0b0b0; stroke-width: 0.8; stroke-linecap: square"/>
     </g>
     <g id="line2d_4">
      <g>
       <use xlink:href="#md39032bed2" x="158.807301" y="279.010828" style="stroke: #000000; stroke-width: 0.8"/>
      </g>
     </g>
     <g id="text_2">
      <!-- 10 -->
      <g transform="translate(149.263551 297.408484) scale(0.15 -0.15)">
       <defs>
        <path id="DejaVuSans-31" d="M 794 531 
L 1825 531 
L 1825 4091 
L 703 3866 
L 703 4441 
L 1819 4666 
L 2450 4666 
L 2450 531 
L 3481 531 
L 3481 0 
L 794 0 
L 794 531 
z
" transform="scale(0.015625)"/>
       </defs>
       <use xlink:href="#DejaVuSans-31"/>
       <use xlink:href="#DejaVuSans-30" x="63.623047"/>
      </g>
     </g>
    </g>
    <g id="xtick_3">
     <g id="line2d_5">
      <path d="M 239.970938 279.010828 
L 239.970938 12.898828 
" clip-path="url(#p3c3110dc2b)" style="fill: none; stroke: #b0b0b0; stroke-width: 0.8; stroke-linecap: square"/>
     </g>
     <g id="line2d_6">
      <g>
       <use xlink:href="#md39032bed2" x="239.970938" y="279.010828" style="stroke: #000000; stroke-width: 0.8"/>
      </g>
     </g>
     <g id="text_3">
      <!-- 20 -->
      <g transform="translate(230.427188 297.408484) scale(0.15 -0.15)">
       <defs>
        <path id="DejaVuSans-32" d="M 1228 531 
L 3431 531 
L 3431 0 
L 469 0 
L 469 531 
Q 828 903 1448 1529 
Q 2069 2156 2228 2338 
Q 2531 2678 2651 2914 
Q 2772 3150 2772 3378 
Q 2772 3750 2511 3984 
Q 2250 4219 1831 4219 
Q 1534 4219 1204 4116 
Q 875 4013 500 3803 
L 500 4441 
Q 881 4594 1212 4672 
Q 1544 4750 1819 4750 
Q 2544 4750 2975 4387 
Q 3406 4025 3406 3419 
Q 3406 3131 3298 2873 
Q 3191 2616 2906 2266 
Q 2828 2175 2409 1742 
Q 1991 1309 1228 531 
z
" transform="scale(0.015625)"/>
       </defs>
       <use xlink:href="#DejaVuSans-32"/>
       <use xlink:href="#DejaVuSans-30" x="63.623047"/>
      </g>
     </g>
    </g>
    <g id="xtick_4">
     <g id="line2d_7">
      <path d="M 321.134574 279.010828 
L 321.134574 12.898828 
" clip-path="url(#p3c3110dc2b)" style="fill: none; stroke: #b0b0b0; stroke-width: 0.8; stroke-linecap: square"/>
     </g>
     <g id="line2d_8">
      <g>
       <use xlink:href="#md39032bed2" x="321.134574" y="279.010828" style="stroke: #000000; stroke-width: 0.8"/>
      </g>
     </g>
     <g id="text_4">
      <!-- 30 -->
      <g transform="translate(311.590824 297.408484) scale(0.15 -0.15)">
       <defs>
        <path id="DejaVuSans-33" d="M 2597 2516 
Q 3050 2419 3304 2112 
Q 3559 1806 3559 1356 
Q 3559 666 3084 287 
Q 2609 -91 1734 -91 
Q 1441 -91 1130 -33 
Q 819 25 488 141 
L 488 750 
Q 750 597 1062 519 
Q 1375 441 1716 441 
Q 2309 441 2620 675 
Q 2931 909 2931 1356 
Q 2931 1769 2642 2001 
Q 2353 2234 1838 2234 
L 1294 2234 
L 1294 2753 
L 1863 2753 
Q 2328 2753 2575 2939 
Q 2822 3125 2822 3475 
Q 2822 3834 2567 4026 
Q 2313 4219 1838 4219 
Q 1578 4219 1281 4162 
Q 984 4106 628 3988 
L 628 4550 
Q 988 4650 1302 4700 
Q 1616 4750 1894 4750 
Q 2613 4750 3031 4423 
Q 3450 4097 3450 3541 
Q 3450 3153 3228 2886 
Q 3006 2619 2597 2516 
z
" transform="scale(0.015625)"/>
       </defs>
       <use xlink:href="#DejaVuSans-33"/>
       <use xlink:href="#DejaVuSans-30" x="63.623047"/>
      </g>
     </g>
    </g>
    <g id="xtick_5">
     <g id="line2d_9">
      <path d="M 402.29821 279.010828 
L 402.29821 12.898828 
" clip-path="url(#p3c3110dc2b)" style="fill: none; stroke: #b0b0b0; stroke-width: 0.8; stroke-linecap: square"/>
     </g>
     <g id="line2d_10">
      <g>
       <use xlink:href="#md39032bed2" x="402.29821" y="279.010828" style="stroke: #000000; stroke-width: 0.8"/>
      </g>
     </g>
     <g id="text_5">
      <!-- 40 -->
      <g transform="translate(392.75446 297.408484) scale(0.15 -0.15)">
       <defs>
        <path id="DejaVuSans-34" d="M 2419 4116 
L 825 1625 
L 2419 1625 
L 2419 4116 
z
M 2253 4666 
L 3047 4666 
L 3047 1625 
L 3713 1625 
L 3713 1100 
L 3047 1100 
L 3047 0 
L 2419 0 
L 2419 1100 
L 313 1100 
L 313 1709 
L 2253 4666 
z
" transform="scale(0.015625)"/>
       </defs>
       <use xlink:href="#DejaVuSans-34"/>
       <use xlink:href="#DejaVuSans-30" x="63.623047"/>
      </g>
     </g>
    </g>
    <g id="text_6">
     <!-- t -->
     <g transform="translate(236.050625 319.724891) scale(0.2 -0.2)">
      <defs>
       <path id="DejaVuSans-74" d="M 1172 4494 
L 1172 3500 
L 2356 3500 
L 2356 3053 
L 1172 3053 
L 1172 1153 
Q 1172 725 1289 603 
Q 1406 481 1766 481 
L 2356 481 
L 2356 0 
L 1766 0 
Q 1100 0 847 248 
Q 594 497 594 1153 
L 594 3053 
L 172 3053 
L 172 3500 
L 594 3500 
L 594 4494 
L 1172 4494 
z
" transform="scale(0.015625)"/>
      </defs>
      <use xlink:href="#DejaVuSans-74"/>
     </g>
    </g>
   </g>
   <g id="matplotlib.axis_2">
    <g id="ytick_1">
     <g id="line2d_11">
      <path d="M 61.410938 279.010828 
L 418.530938 279.010828 
" clip-path="url(#p3c3110dc2b)" style="fill: none; stroke: #b0b0b0; stroke-width: 0.8; stroke-linecap: square"/>
     </g>
     <g id="line2d_12">
      <defs>
       <path id="m6f3f5b6aff" d="M 0 0 
L -3.5 0 
" style="stroke: #000000; stroke-width: 0.8"/>
      </defs>
      <g>
       <use xlink:href="#m6f3f5b6aff" x="61.410938" y="279.010828" style="stroke: #000000; stroke-width: 0.8"/>
      </g>
     </g>
     <g id="text_7">
      <!-- 0.0 -->
      <g transform="translate(30.55625 284.709656) scale(0.15 -0.15)">
       <defs>
        <path id="DejaVuSans-2e" d="M 684 794 
L 1344 794 
L 1344 0 
L 684 0 
L 684 794 
z
" transform="scale(0.015625)"/>
       </defs>
       <use xlink:href="#DejaVuSans-30"/>
       <use xlink:href="#DejaVuSans-2e" x="63.623047"/>
       <use xlink:href="#DejaVuSans-30" x="95.410156"/>
      </g>
     </g>
    </g>
    <g id="ytick_2">
     <g id="line2d_13">
      <path d="M 61.410938 225.788428 
L 418.530938 225.788428 
" clip-path="url(#p3c3110dc2b)" style="fill: none; stroke: #b0b0b0; stroke-width: 0.8; stroke-linecap: square"/>
     </g>
     <g id="line2d_14">
      <g>
       <use xlink:href="#m6f3f5b6aff" x="61.410938" y="225.788428" style="stroke: #000000; stroke-width: 0.8"/>
      </g>
     </g>
     <g id="text_8">
      <!-- 0.2 -->
      <g transform="translate(30.55625 231.487256) scale(0.15 -0.15)">
       <use xlink:href="#DejaVuSans-30"/>
       <use xlink:href="#DejaVuSans-2e" x="63.623047"/>
       <use xlink:href="#DejaVuSans-32" x="95.410156"/>
      </g>
     </g>
    </g>
    <g id="ytick_3">
     <g id="line2d_15">
      <path d="M 61.410938 172.566028 
L 418.530938 172.566028 
" clip-path="url(#p3c3110dc2b)" style="fill: none; stroke: #b0b0b0; stroke-width: 0.8; stroke-linecap: square"/>
     </g>
     <g id="line2d_16">
      <g>
       <use xlink:href="#m6f3f5b6aff" x="61.410938" y="172.566028" style="stroke: #000000; stroke-width: 0.8"/>
      </g>
     </g>
     <g id="text_9">
      <!-- 0.4 -->
      <g transform="translate(30.55625 178.264856) scale(0.15 -0.15)">
       <use xlink:href="#DejaVuSans-30"/>
       <use xlink:href="#DejaVuSans-2e" x="63.623047"/>
       <use xlink:href="#DejaVuSans-34" x="95.410156"/>
      </g>
     </g>
    </g>
    <g id="ytick_4">
     <g id="line2d_17">
      <path d="M 61.410938 119.343628 
L 418.530938 119.343628 
" clip-path="url(#p3c3110dc2b)" style="fill: none; stroke: #b0b0b0; stroke-width: 0.8; stroke-linecap: square"/>
     </g>
     <g id="line2d_18">
      <g>
       <use xlink:href="#m6f3f5b6aff" x="61.410938" y="119.343628" style="stroke: #000000; stroke-width: 0.8"/>
      </g>
     </g>
     <g id="text_10">
      <!-- 0.6 -->
      <g transform="translate(30.55625 125.042456) scale(0.15 -0.15)">
       <defs>
        <path id="DejaVuSans-36" d="M 2113 2584 
Q 1688 2584 1439 2293 
Q 1191 2003 1191 1497 
Q 1191 994 1439 701 
Q 1688 409 2113 409 
Q 2538 409 2786 701 
Q 3034 994 3034 1497 
Q 3034 2003 2786 2293 
Q 2538 2584 2113 2584 
z
M 3366 4563 
L 3366 3988 
Q 3128 4100 2886 4159 
Q 2644 4219 2406 4219 
Q 1781 4219 1451 3797 
Q 1122 3375 1075 2522 
Q 1259 2794 1537 2939 
Q 1816 3084 2150 3084 
Q 2853 3084 3261 2657 
Q 3669 2231 3669 1497 
Q 3669 778 3244 343 
Q 2819 -91 2113 -91 
Q 1303 -91 875 529 
Q 447 1150 447 2328 
Q 447 3434 972 4092 
Q 1497 4750 2381 4750 
Q 2619 4750 2861 4703 
Q 3103 4656 3366 4563 
z
" transform="scale(0.015625)"/>
       </defs>
       <use xlink:href="#DejaVuSans-30"/>
       <use xlink:href="#DejaVuSans-2e" x="63.623047"/>
       <use xlink:href="#DejaVuSans-36" x="95.410156"/>
      </g>
     </g>
    </g>
    <g id="ytick_5">
     <g id="line2d_19">
      <path d="M 61.410938 66.121228 
L 418.530938 66.121228 
" clip-path="url(#p3c3110dc2b)" style="fill: none; stroke: #b0b0b0; stroke-width: 0.8; stroke-linecap: square"/>
     </g>
     <g id="line2d_20">
      <g>
       <use xlink:href="#m6f3f5b6aff" x="61.410938" y="66.121228" style="stroke: #000000; stroke-width: 0.8"/>
      </g>
     </g>
     <g id="text_11">
      <!-- 0.8 -->
      <g transform="translate(30.55625 71.820056) scale(0.15 -0.15)">
       <defs>
        <path id="DejaVuSans-38" d="M 2034 2216 
Q 1584 2216 1326 1975 
Q 1069 1734 1069 1313 
Q 1069 891 1326 650 
Q 1584 409 2034 409 
Q 2484 409 2743 651 
Q 3003 894 3003 1313 
Q 3003 1734 2745 1975 
Q 2488 2216 2034 2216 
z
M 1403 2484 
Q 997 2584 770 2862 
Q 544 3141 544 3541 
Q 544 4100 942 4425 
Q 1341 4750 2034 4750 
Q 2731 4750 3128 4425 
Q 3525 4100 3525 3541 
Q 3525 3141 3298 2862 
Q 3072 2584 2669 2484 
Q 3125 2378 3379 2068 
Q 3634 1759 3634 1313 
Q 3634 634 3220 271 
Q 2806 -91 2034 -91 
Q 1263 -91 848 271 
Q 434 634 434 1313 
Q 434 1759 690 2068 
Q 947 2378 1403 2484 
z
M 1172 3481 
Q 1172 3119 1398 2916 
Q 1625 2713 2034 2713 
Q 2441 2713 2670 2916 
Q 2900 3119 2900 3481 
Q 2900 3844 2670 4047 
Q 2441 4250 2034 4250 
Q 1625 4250 1398 4047 
Q 1172 3844 1172 3481 
z
" transform="scale(0.015625)"/>
       </defs>
       <use xlink:href="#DejaVuSans-30"/>
       <use xlink:href="#DejaVuSans-2e" x="63.623047"/>
       <use xlink:href="#DejaVuSans-38" x="95.410156"/>
      </g>
     </g>
    </g>
    <g id="ytick_6">
     <g id="line2d_21">
      <path d="M 61.410938 12.898828 
L 418.530938 12.898828 
" clip-path="url(#p3c3110dc2b)" style="fill: none; stroke: #b0b0b0; stroke-width: 0.8; stroke-linecap: square"/>
     </g>
     <g id="line2d_22">
      <g>
       <use xlink:href="#m6f3f5b6aff" x="61.410938" y="12.898828" style="stroke: #000000; stroke-width: 0.8"/>
      </g>
     </g>
     <g id="text_12">
      <!-- 1.0 -->
      <g transform="translate(30.55625 18.597656) scale(0.15 -0.15)">
       <use xlink:href="#DejaVuSans-31"/>
       <use xlink:href="#DejaVuSans-2e" x="63.623047"/>
       <use xlink:href="#DejaVuSans-30" x="95.410156"/>
      </g>
     </g>
    </g>
    <g id="text_13">
     <!-- p -->
     <g transform="translate(22.396875 152.303266) rotate(-90) scale(0.2 -0.2)">
      <defs>
       <path id="DejaVuSans-70" d="M 1159 525 
L 1159 -1331 
L 581 -1331 
L 581 3500 
L 1159 3500 
L 1159 2969 
Q 1341 3281 1617 3432 
Q 1894 3584 2278 3584 
Q 2916 3584 3314 3078 
Q 3713 2572 3713 1747 
Q 3713 922 3314 415 
Q 2916 -91 2278 -91 
Q 1894 -91 1617 61 
Q 1341 213 1159 525 
z
M 3116 1747 
Q 3116 2381 2855 2742 
Q 2594 3103 2138 3103 
Q 1681 3103 1420 2742 
Q 1159 2381 1159 1747 
Q 1159 1113 1420 752 
Q 1681 391 2138 391 
Q 2594 391 2855 752 
Q 3116 1113 3116 1747 
z
" transform="scale(0.015625)"/>
      </defs>
      <use xlink:href="#DejaVuSans-70"/>
     </g>
    </g>
   </g>
   <g id="line2d_23">
    <path d="M 77.643665 12.898828 
L 78.715025 13.01323 
L 79.786385 13.356239 
L 80.89021 13.948119 
L 82.058967 14.837425 
L 83.292654 16.067186 
L 84.591272 17.681549 
L 85.987287 19.778282 
L 87.480698 22.428917 
L 89.10397 25.777773 
L 90.857105 29.926847 
L 92.740101 34.977592 
L 94.752959 41.027575 
L 96.96061 48.393573 
L 99.363054 57.216518 
L 101.992756 67.750108 
L 104.914647 80.398461 
L 108.258588 95.891442 
L 112.349236 115.955258 
L 118.615068 147.963941 
L 125.919796 184.999019 
L 129.945512 204.264685 
L 133.256988 219.072791 
L 136.178879 231.15008 
L 138.776116 240.976202 
L 141.146094 249.107774 
L 143.321279 255.809244 
L 145.334137 261.318407 
L 147.217134 265.839237 
L 148.937803 269.414406 
L 150.52861 272.233173 
L 152.022021 274.444084 
L 153.418036 276.122895 
L 154.716654 277.343629 
L 155.917876 278.177455 
L 157.054167 278.703273 
L 158.125527 278.963962 
L 159.196887 278.996018 
L 160.268247 278.799388 
L 161.339607 278.374408 
L 162.475898 277.674966 
L 163.644654 276.689848 
L 164.910807 275.320923 
L 166.24189 273.547002 
L 167.67037 271.266839 
L 169.228712 268.342964 
L 170.88445 264.748991 
L 172.67005 260.327111 
L 174.585512 254.977262 
L 176.663301 248.497891 
L 178.935883 240.653809 
L 181.403258 231.310497 
L 184.130356 220.082417 
L 187.182108 206.545577 
L 190.753308 189.646605 
L 195.266007 167.142462 
L 209.778065 93.922791 
L 213.316799 77.688778 
L 216.368552 64.70498 
L 219.063185 54.176341 
L 221.530559 45.407872 
L 223.770676 38.238734 
L 225.848465 32.311529 
L 227.763927 27.497421 
L 229.549527 23.595406 
L 231.205265 20.49892 
L 232.731141 18.101169 
L 234.159621 16.260442 
L 235.490705 14.901937 
L 236.724392 13.953364 
L 237.893148 13.332317 
L 238.996974 12.99496 
L 240.068334 12.899623 
L 241.139694 13.033088 
L 242.211054 13.395127 
L 243.314879 14.006542 
L 244.483636 14.916417 
L 245.717323 16.167712 
L 247.048407 17.84958 
L 248.476887 20.032612 
L 250.002763 22.78946 
L 251.626036 26.193571 
L 253.37917 30.400469 
L 255.262167 35.510886 
L 257.30749 41.725367 
L 259.515141 49.164528 
L 261.917585 58.060679 
L 264.579752 68.80218 
L 267.534108 81.675526 
L 270.942981 97.561288 
L 275.131025 118.199408 
L 282.046167 153.602604 
L 288.474327 186.076453 
L 292.467578 205.127256 
L 295.779054 219.874034 
L 298.668479 231.75855 
L 301.265716 241.530388 
L 303.635694 249.607531 
L 305.810879 256.255337 
L 307.823737 261.712018 
L 309.674268 266.109868 
L 311.394938 269.646806 
L 312.985745 272.429308 
L 314.479156 274.605495 
L 315.842705 276.217383 
L 317.108857 277.38948 
L 318.310079 278.209829 
L 319.44637 278.722833 
L 320.51773 278.971405 
L 321.58909 278.991332 
L 322.66045 278.78258 
L 323.73181 278.345508 
L 324.868101 277.633294 
L 326.069323 276.603572 
L 327.335476 275.212632 
L 328.699025 273.367776 
L 330.15997 270.997651 
L 331.718312 268.029235 
L 333.406516 264.312906 
L 335.224581 259.746356 
L 337.172508 254.229356 
L 339.282763 247.559548 
L 341.555345 239.62051 
L 344.055185 230.053679 
L 346.814748 218.583204 
L 349.931432 204.640088 
L 353.567563 187.309934 
L 358.275054 163.710673 
L 371.293701 97.833961 
L 374.962298 80.762531 
L 378.078981 67.277401 
L 380.838545 56.286049 
L 383.338385 47.208282 
L 385.643432 39.65469 
L 387.753687 33.479535 
L 389.701614 28.444242 
L 391.519679 24.346578 
L 393.207883 21.080268 
L 394.766225 18.538065 
L 396.194705 16.614673 
L 397.525788 15.178158 
L 398.759476 14.156623 
L 399.928232 13.466024 
L 401.032058 13.062726 
L 402.103418 12.903267 
L 402.29821 12.898854 
L 402.29821 12.898854 
" clip-path="url(#p3c3110dc2b)" style="fill: none; stroke: #1f77b4; stroke-width: 1.5; stroke-linecap: square"/>
   </g>
   <g id="line2d_24">
    <path d="M 77.643665 279.010828 
L 402.29821 279.010828 
L 402.29821 279.010828 
" clip-path="url(#p3c3110dc2b)" style="fill: none; stroke: #9467bd; stroke-width: 1.5; stroke-linecap: square"/>
   </g>
   <g id="line2d_25">
    <path d="M 77.643665 279.010828 
L 78.715025 278.896472 
L 79.786385 278.5536 
L 80.89021 277.961956 
L 82.058967 277.073 
L 83.292654 275.843722 
L 84.591272 274.229986 
L 85.987287 272.134054 
L 87.480698 269.484413 
L 89.10397 266.136783 
L 90.857105 261.989183 
L 92.740101 256.94016 
L 94.752959 250.89214 
L 96.96061 243.528383 
L 99.363054 234.707909 
L 101.992756 224.176961 
L 104.914647 211.53134 
L 108.258588 196.041052 
L 112.349236 175.979651 
L 118.615068 143.972315 
L 125.919796 106.934954 
L 129.945512 87.666469 
L 133.289454 72.715786 
L 136.211345 60.646892 
L 138.808581 50.829507 
L 141.178559 42.706948 
L 143.353745 36.014613 
L 145.366603 30.51462 
L 147.217134 26.075427 
L 148.937803 22.498951 
L 150.52861 19.679125 
L 152.022021 17.467368 
L 153.418036 15.787904 
L 154.716654 14.56669 
L 155.917876 13.732533 
L 157.054167 13.206506 
L 158.125527 12.945713 
L 159.196887 12.913644 
L 160.268247 13.110353 
L 161.339607 13.535502 
L 162.475898 14.235222 
L 163.644654 15.220728 
L 164.910807 16.590188 
L 166.24189 18.364795 
L 167.67037 20.645824 
L 169.228712 23.570788 
L 170.88445 27.166064 
L 172.67005 31.589493 
L 174.585512 36.941139 
L 176.663301 43.422571 
L 178.935883 51.268978 
L 181.403258 60.614818 
L 184.130356 71.845589 
L 187.182108 85.385169 
L 190.753308 102.28679 
L 195.266007 124.793127 
L 209.745599 197.855497 
L 213.284334 214.096935 
L 216.336087 227.088917 
L 219.030719 237.62616 
L 221.498094 246.403637 
L 223.73821 253.581878 
L 225.815999 259.518296 
L 227.731461 264.341537 
L 229.517061 268.252597 
L 231.172799 271.357907 
L 232.698676 273.764145 
L 234.127156 275.613104 
L 235.458239 276.979517 
L 236.691927 277.935606 
L 237.860683 278.563927 
L 238.964508 278.908278 
L 240.035868 279.010506 
L 241.107228 278.884024 
L 242.178588 278.529046 
L 243.282414 277.924974 
L 244.45117 277.022934 
L 245.684858 275.779955 
L 247.015941 274.107088 
L 248.411956 271.987413 
L 249.937832 269.250093 
L 251.561105 265.866418 
L 253.314239 261.681091 
L 255.197236 256.59313 
L 257.242559 250.402039 
L 259.45021 242.986746 
L 261.852654 234.114688 
L 264.482356 223.533166 
L 267.436712 210.693173 
L 270.813119 194.993747 
L 274.968698 174.552674 
L 281.59165 140.671524 
L 288.37693 106.335955 
L 292.402647 87.103475 
L 295.714123 72.332337 
L 298.603548 60.422542 
L 301.200785 50.625142 
L 303.570763 42.522626 
L 305.745948 35.850055 
L 307.758807 30.369394 
L 309.609338 25.948755 
L 311.330007 22.390115 
L 312.920814 19.587211 
L 314.414225 17.391658 
L 315.810239 15.727572 
L 317.108857 14.520821 
L 318.310079 13.700147 
L 319.44637 13.186938 
L 320.51773 12.938267 
L 321.58909 12.918332 
L 322.66045 13.127168 
L 323.73181 13.564414 
L 324.868101 14.27691 
L 326.069323 15.307038 
L 327.335476 16.698522 
L 328.699025 18.544089 
L 330.15997 20.915114 
L 331.718312 23.884633 
L 333.406516 27.602305 
L 335.224581 32.170448 
L 337.172508 37.68929 
L 339.282763 44.361201 
L 341.555345 52.302569 
L 344.055185 61.871956 
L 346.814748 73.345133 
L 349.931432 87.291 
L 353.567563 104.623759 
L 358.275054 128.225116 
L 371.261236 193.942921 
L 374.929832 211.021561 
L 378.046516 224.514685 
L 380.806079 235.514557 
L 383.305919 244.601211 
L 385.610967 252.163971 
L 387.721221 258.348323 
L 389.669148 263.392771 
L 391.487214 267.499534 
L 393.175418 270.774753 
L 394.733759 273.325552 
L 396.162239 275.257121 
L 397.493323 276.701493 
L 398.759476 277.753533 
L 399.928232 278.443859 
L 401.032058 278.846996 
L 402.103418 279.006391 
L 402.29821 279.010802 
L 402.29821 279.010802 
" clip-path="url(#p3c3110dc2b)" style="fill: none; stroke: #ff7f0e; stroke-width: 1.5; stroke-linecap: square"/>
   </g>
   <g id="line2d_26">
    <path d="M 77.643665 12.898828 
L 78.715025 13.013219 
L 79.786385 13.356193 
L 80.89021 13.948014 
L 82.058967 14.837234 
L 83.292654 16.066876 
L 84.591272 17.681085 
L 85.987287 19.777624 
L 87.480698 22.428021 
L 89.10397 25.77659 
L 90.857105 29.925325 
L 92.740101 34.975688 
L 94.752959 41.025255 
L 96.96061 48.390805 
L 99.363054 57.213299 
L 101.992756 67.746474 
L 104.914647 80.394499 
L 108.258588 95.887326 
L 112.349236 115.951337 
L 118.615068 147.961189 
L 125.919796 184.998744 
L 129.945512 204.266041 
L 133.256988 219.075469 
L 136.178879 231.153808 
L 138.776116 240.980701 
L 141.146094 249.112794 
L 143.321279 255.814549 
L 145.334137 261.323787 
L 147.217134 265.844504 
L 148.937803 269.4194 
L 150.52861 272.237765 
L 152.022021 274.44816 
L 153.418036 276.126365 
L 154.716654 277.346428 
L 155.917876 278.17954 
L 157.054167 278.7046 
L 158.125527 278.964501 
L 159.196887 278.9957 
L 160.268247 278.798145 
L 161.339607 278.372174 
L 162.475898 277.67161 
L 163.644654 276.685268 
L 164.910807 275.314938 
L 166.24189 273.539459 
L 167.67037 271.25754 
L 169.228712 268.331661 
L 170.88445 264.735475 
L 172.67005 260.311131 
L 174.585512 254.958577 
L 176.663301 248.476238 
L 178.935883 240.628919 
L 181.403258 231.28217 
L 184.130356 220.05047 
L 187.182108 206.509919 
L 190.753308 189.607225 
L 195.266007 167.099595 
L 209.745599 94.03412 
L 213.284334 77.79254 
L 216.336087 64.800795 
L 219.030719 54.264101 
L 221.498094 45.487453 
L 223.73821 38.310263 
L 225.815999 32.375095 
L 227.731461 27.553256 
L 229.517061 23.643724 
L 231.172799 20.540027 
L 232.698676 18.135444 
L 234.127156 16.288181 
L 235.458239 14.923475 
L 236.691927 13.969075 
L 237.860683 13.342446 
L 238.964508 12.999775 
L 240.035868 12.899248 
L 241.107228 13.027502 
L 242.178588 13.384315 
L 243.282414 13.990344 
L 244.45117 14.894521 
L 245.684858 16.139824 
L 247.015941 17.815269 
L 248.411956 19.937716 
L 249.937832 22.67813 
L 251.561105 26.065153 
L 253.314239 30.254135 
L 255.197236 35.346036 
L 257.242559 41.541381 
L 259.45021 48.961178 
L 261.852654 57.837965 
L 264.482356 68.424364 
L 267.436712 81.269339 
L 270.845585 97.129148 
L 275.001163 117.58263 
L 281.721512 151.972087 
L 288.37693 185.637618 
L 292.402647 204.866467 
L 295.714123 219.63331 
L 298.603548 231.53849 
L 301.200785 241.331133 
L 303.570763 249.428874 
L 305.745948 256.096756 
L 307.758807 261.572861 
L 309.609338 265.989164 
L 311.330007 269.543675 
L 312.920814 272.342699 
L 314.414225 274.534575 
L 315.777774 276.160889 
L 317.076392 277.372688 
L 318.277614 278.198097 
L 319.413905 278.715833 
L 320.485265 278.968808 
L 321.556625 278.993074 
L 322.627985 278.78859 
L 323.699345 278.355707 
L 324.835636 277.647843 
L 326.004392 276.654041 
L 327.270545 275.275701 
L 328.601628 273.491903 
L 330.030108 271.201199 
L 331.58845 268.265932 
L 333.244188 264.660035 
L 335.029788 260.225566 
L 336.94525 254.862607 
L 339.023039 248.369578 
L 341.295621 240.511359 
L 343.762996 231.153808 
L 346.490094 219.911533 
L 349.541847 206.360988 
L 353.113047 189.449242 
L 357.625745 166.9345 
L 372.040407 94.188109 
L 375.579141 77.93619 
L 378.630894 64.933361 
L 381.357992 54.264101 
L 383.825367 45.487453 
L 386.065483 38.310263 
L 388.143272 32.375095 
L 390.058734 27.553256 
L 391.844334 23.643724 
L 393.500072 20.540027 
L 395.025948 18.135444 
L 396.454428 16.288181 
L 397.785512 14.923475 
L 399.019199 13.969075 
L 400.187956 13.342446 
L 401.291781 12.999775 
L 402.29821 12.898828 
L 402.29821 12.898828 
" clip-path="url(#p3c3110dc2b)" style="fill: none; stroke-dasharray: 5.55,2.4; stroke-dashoffset: 0; stroke: #2ca02c; stroke-width: 1.5"/>
   </g>
   <g id="line2d_27">
    <path d="M 77.643665 279.010828 
L 78.715025 278.896438 
L 79.786385 278.553463 
L 80.89021 277.961642 
L 82.058967 277.072422 
L 83.292654 275.84278 
L 84.591272 274.228571 
L 85.987287 272.132033 
L 87.480698 269.481635 
L 89.10397 266.133067 
L 90.857105 261.984331 
L 92.740101 256.933968 
L 94.752959 250.884402 
L 96.96061 243.518851 
L 99.363054 234.696357 
L 101.992756 224.163183 
L 104.914647 211.515157 
L 108.258588 196.02233 
L 112.349236 175.958319 
L 118.615068 143.948467 
L 125.919796 106.910912 
L 129.945512 87.643615 
L 133.256988 72.834188 
L 136.178879 60.755849 
L 138.776116 50.928955 
L 141.146094 42.796863 
L 143.321279 36.095107 
L 145.334137 30.585869 
L 147.217134 26.065153 
L 148.937803 22.490256 
L 150.52861 19.671891 
L 152.022021 17.461497 
L 153.418036 15.783291 
L 154.716654 14.563228 
L 155.917876 13.730116 
L 157.054167 13.205056 
L 158.125527 12.945155 
L 159.196887 12.913956 
L 160.268247 13.111511 
L 161.339607 13.537482 
L 162.475898 14.238046 
L 163.644654 15.224388 
L 164.910807 16.594718 
L 166.24189 18.370198 
L 167.67037 20.652116 
L 169.228712 23.577995 
L 170.88445 27.174181 
L 172.67005 31.598525 
L 174.585512 36.951079 
L 176.663301 43.433418 
L 178.935883 51.280737 
L 181.403258 60.627487 
L 184.130356 71.859186 
L 187.182108 85.399737 
L 190.753308 102.302431 
L 195.266007 124.810061 
L 209.745599 197.875536 
L 213.284334 214.117117 
L 216.336087 227.108861 
L 219.030719 237.645555 
L 221.498094 246.422204 
L 223.73821 253.599393 
L 225.815999 259.534561 
L 227.731461 264.356401 
L 229.517061 268.265932 
L 231.172799 271.369629 
L 232.698676 273.774212 
L 234.127156 275.621476 
L 235.458239 276.986181 
L 236.691927 277.940581 
L 237.860683 278.56721 
L 238.964508 278.909881 
L 240.035868 279.010408 
L 241.107228 278.882154 
L 242.178588 278.525341 
L 243.282414 277.919313 
L 244.45117 277.015135 
L 245.684858 275.769832 
L 247.015941 274.094387 
L 248.411956 271.97194 
L 249.937832 269.231527 
L 251.561105 265.844504 
L 253.314239 261.655521 
L 255.197236 256.56362 
L 257.242559 250.368275 
L 259.45021 242.948478 
L 261.852654 234.071691 
L 264.482356 223.485293 
L 267.436712 210.640318 
L 270.845585 194.780508 
L 275.001163 174.327026 
L 281.721512 139.937569 
L 288.37693 106.272038 
L 292.402647 87.043189 
L 295.714123 72.276346 
L 298.603548 60.371167 
L 301.200785 50.578523 
L 303.570763 42.480782 
L 305.745948 35.8129 
L 307.758807 30.336795 
L 309.609338 25.920492 
L 311.330007 22.365982 
L 312.920814 19.566957 
L 314.414225 17.375081 
L 315.777774 15.748767 
L 317.076392 14.536968 
L 318.277614 13.711559 
L 319.413905 13.193824 
L 320.485265 12.940849 
L 321.556625 12.916582 
L 322.627985 13.121066 
L 323.699345 13.553949 
L 324.835636 14.261813 
L 326.004392 15.255616 
L 327.270545 16.633955 
L 328.601628 18.417753 
L 330.030108 20.708457 
L 331.58845 23.643724 
L 333.244188 27.249621 
L 335.029788 31.68409 
L 336.94525 37.047049 
L 339.023039 43.540078 
L 341.295621 51.398297 
L 343.762996 60.755849 
L 346.490094 71.998123 
L 349.541847 85.548668 
L 353.113047 102.460414 
L 357.625745 124.975156 
L 372.040407 197.721547 
L 375.579141 213.973466 
L 378.630894 226.976296 
L 381.357992 237.645555 
L 383.825367 246.422204 
L 386.065483 253.599393 
L 388.143272 259.534561 
L 390.058734 264.356401 
L 391.844334 268.265932 
L 393.500072 271.369629 
L 395.025948 273.774212 
L 396.454428 275.621476 
L 397.785512 276.986181 
L 399.019199 277.940581 
L 400.187956 278.56721 
L 401.291781 278.909881 
L 402.29821 279.010828 
L 402.29821 279.010828 
" clip-path="url(#p3c3110dc2b)" style="fill: none; stroke-dasharray: 5.55,2.4; stroke-dashoffset: 0; stroke: #d62728; stroke-width: 1.5"/>
   </g>
   <g id="patch_3">
    <path d="M 61.410938 279.010828 
L 61.410938 12.898828 
" style="fill: none; stroke: #000000; stroke-width: 0.8; stroke-linejoin: miter; stroke-linecap: square"/>
   </g>
   <g id="patch_4">
    <path d="M 418.530938 279.010828 
L 418.530938 12.898828 
" style="fill: none; stroke: #000000; stroke-width: 0.8; stroke-linejoin: miter; stroke-linecap: square"/>
   </g>
   <g id="patch_5">
    <path d="M 61.410938 279.010828 
L 418.530938 279.010828 
" style="fill: none; stroke: #000000; stroke-width: 0.8; stroke-linejoin: miter; stroke-linecap: square"/>
   </g>
   <g id="patch_6">
    <path d="M 61.410938 12.898828 
L 418.530938 12.898828 
" style="fill: none; stroke: #000000; stroke-width: 0.8; stroke-linejoin: miter; stroke-linecap: square"/>
   </g>
  </g>
 </g>
 <defs>
  <clipPath id="p3c3110dc2b">
   <rect x="61.410938" y="12.898828" width="357.12" height="266.112"/>
  </clipPath>
 </defs>
</svg>
