<?xml version="1.0" encoding="utf-8" standalone="no"?>
<!DOCTYPE svg PUBLIC "-//W3C//DTD SVG 1.1//EN"
  "http://www.w3.org/Graphics/SVG/1.1/DTD/svg11.dtd">
<svg xmlns:xlink="http://www.w3.org/1999/xlink" width="425.730937pt" height="331.084266pt" viewBox="0 0 425.730937 331.084266" xmlns="http://www.w3.org/2000/svg" version="1.1">
 <defs>
  <style type="text/css">*{stroke-linejoin: round; stroke-linecap: butt}</style>
 </defs>
 <g id="figure_1">
  <g id="patch_1">
   <path d="M 0 331.084266 
L 425.730937 331.084266 
L 425.730937 0 
L 0 0 
L 0 331.084266 
z
" style="fill: none"/>
  </g>
  <g id="axes_1">
   <g id="patch_2">
    <path d="M 61.410938 279.010828 
L 418.530938 279.010828 
L 418.530938 12.898828 
L 61.410938 12.898828 
L 61.410938 279.010828 
z
" style="fill: none"/>
   </g>
   <g id="matplotlib.axis_1">
    <g id="xtick_1">
     <g id="line2d_1">
      <path d="M 77.643665 279.010828 
L 77.643665 12.898828 
" clip-path="url(#p3c3110dc2b)" style="fill: none; stroke: #b0b0b0; stroke-width: 0.8; stroke-linecap: square"/>
     </g>
     <g id="line2d_2">
      <defs>
       <path id="md39032bed2" d="M 0 0 
L 0 3.5 
" style="stroke: #000000; stroke-width: 0.8"/>
      </defs>
      <g>
       <use xlink:href="#md39032bed2" x="77.643665" y="279.010828" style="stroke: #000000; stroke-width: 0.8"/>
      </g>
     </g>
     <g id="text_1">
      <!-- 0.0 -->
      <g transform="translate(65.716321 297.408484) scale(0.15 -0.15)">
       <defs>
        <path id="DejaVuSans-30" d="M 2034 4250 
Q 1547 4250 1301 3770 
Q 1056 3291 1056 2328 
Q 1056 1369 1301 889 
Q 1547 409 2034 409 
Q 2525 409 2770 889 
Q 3016 1369 3016 2328 
Q 3016 3291 2770 3770 
Q 2525 4250 2034 4250 
z
M 2034 4750 
Q 2819 4750 3233 4129 
Q 3647 3509 3647 2328 
Q 3647 1150 3233 529 
Q 2819 -91 2034 -91 
Q 1250 -91 836 529 
Q 422 1150 422 2328 
Q 422 3509 836 4129 
Q 1250 4750 2034 4750 
z
" transform="scale(0.015625)"/>
        <path id="DejaVuSans-2e" d="M 684 794 
L 1344 794 
L 1344 0 
L 684 0 
L 684 794 
z
" transform="scale(0.015625)"/>
       </defs>
       <use xlink:href="#DejaVuSans-30"/>
       <use xlink:href="#DejaVuSans-2e" x="63.623047"/>
       <use xlink:href="#DejaVuSans-30" x="95.410156"/>
      </g>
     </g>
    </g>
    <g id="xtick_2">
     <g id="line2d_3">
      <path d="M 142.574574 279.010828 
L 142.574574 12.898828 
" clip-path="url(#p3c3110dc2b)" style="fill: none; stroke: #b0b0b0; stroke-width: 0.8; stroke-linecap: square"/>
     </g>
     <g id="line2d_4">
      <g>
       <use xlink:href="#md39032bed2" x="142.574574" y="279.010828" style="stroke: #000000; stroke-width: 0.8"/>
      </g>
     </g>
     <g id="text_2">
      <!-- 0.2 -->
      <g transform="translate(130.64723 297.408484) scale(0.15 -0.15)">
       <defs>
        <path id="DejaVuSans-32" d="M 1228 531 
L 3431 531 
L 3431 0 
L 469 0 
L 469 531 
Q 828 903 1448 1529 
Q 2069 2156 2228 2338 
Q 2531 2678 2651 2914 
Q 2772 3150 2772 3378 
Q 2772 3750 2511 3984 
Q 2250 4219 1831 4219 
Q 1534 4219 1204 4116 
Q 875 4013 500 3803 
L 500 4441 
Q 881 4594 1212 4672 
Q 1544 4750 1819 4750 
Q 2544 4750 2975 4387 
Q 3406 4025 3406 3419 
Q 3406 3131 3298 2873 
Q 3191 2616 2906 2266 
Q 2828 2175 2409 1742 
Q 1991 1309 1228 531 
z
" transform="scale(0.015625)"/>
       </defs>
       <use xlink:href="#DejaVuSans-30"/>
       <use xlink:href="#DejaVuSans-2e" x="63.623047"/>
       <use xlink:href="#DejaVuSans-32" x="95.410156"/>
      </g>
     </g>
    </g>
    <g id="xtick_3">
     <g id="line2d_5">
      <path d="M 207.505483 279.010828 
L 207.505483 12.898828 
" clip-path="url(#p3c3110dc2b)" style="fill: none; stroke: #b0b0b0; stroke-width: 0.8; stroke-linecap: square"/>
     </g>
     <g id="line2d_6">
      <g>
       <use xlink:href="#md39032bed2" x="207.505483" y="279.010828" style="stroke: #000000; stroke-width: 0.8"/>
      </g>
     </g>
     <g id="text_3">
      <!-- 0.4 -->
      <g transform="translate(195.578139 297.408484) scale(0.15 -0.15)">
       <defs>
        <path id="DejaVuSans-34" d="M 2419 4116 
L 825 1625 
L 2419 1625 
L 2419 4116 
z
M 2253 4666 
L 3047 4666 
L 3047 1625 
L 3713 1625 
L 3713 1100 
L 3047 1100 
L 3047 0 
L 2419 0 
L 2419 1100 
L 313 1100 
L 313 1709 
L 2253 4666 
z
" transform="scale(0.015625)"/>
       </defs>
       <use xlink:href="#DejaVuSans-30"/>
       <use xlink:href="#DejaVuSans-2e" x="63.623047"/>
       <use xlink:href="#DejaVuSans-34" x="95.410156"/>
      </g>
     </g>
    </g>
    <g id="xtick_4">
     <g id="line2d_7">
      <path d="M 272.436392 279.010828 
L 272.436392 12.898828 
" clip-path="url(#p3c3110dc2b)" style="fill: none; stroke: #b0b0b0; stroke-width: 0.8; stroke-linecap: square"/>
     </g>
     <g id="line2d_8">
      <g>
       <use xlink:href="#md39032bed2" x="272.436392" y="279.010828" style="stroke: #000000; stroke-width: 0.8"/>
      </g>
     </g>
     <g id="text_4">
      <!-- 0.6 -->
      <g transform="translate(260.509048 297.408484) scale(0.15 -0.15)">
       <defs>
        <path id="DejaVuSans-36" d="M 2113 2584 
Q 1688 2584 1439 2293 
Q 1191 2003 1191 1497 
Q 1191 994 1439 701 
Q 1688 409 2113 409 
Q 2538 409 2786 701 
Q 3034 994 3034 1497 
Q 3034 2003 2786 2293 
Q 2538 2584 2113 2584 
z
M 3366 4563 
L 3366 3988 
Q 3128 4100 2886 4159 
Q 2644 4219 2406 4219 
Q 1781 4219 1451 3797 
Q 1122 3375 1075 2522 
Q 1259 2794 1537 2939 
Q 1816 3084 2150 3084 
Q 2853 3084 3261 2657 
Q 3669 2231 3669 1497 
Q 3669 778 3244 343 
Q 2819 -91 2113 -91 
Q 1303 -91 875 529 
Q 447 1150 447 2328 
Q 447 3434 972 4092 
Q 1497 4750 2381 4750 
Q 2619 4750 2861 4703 
Q 3103 4656 3366 4563 
z
" transform="scale(0.015625)"/>
       </defs>
       <use xlink:href="#DejaVuSans-30"/>
       <use xlink:href="#DejaVuSans-2e" x="63.623047"/>
       <use xlink:href="#DejaVuSans-36" x="95.410156"/>
      </g>
     </g>
    </g>
    <g id="xtick_5">
     <g id="line2d_9">
      <path d="M 337.367301 279.010828 
L 337.367301 12.898828 
" clip-path="url(#p3c3110dc2b)" style="fill: none; stroke: #b0b0b0; stroke-width: 0.8; stroke-linecap: square"/>
     </g>
     <g id="line2d_10">
      <g>
       <use xlink:href="#md39032bed2" x="337.367301" y="279.010828" style="stroke: #000000; stroke-width: 0.8"/>
      </g>
     </g>
     <g id="text_5">
      <!-- 0.8 -->
      <g transform="translate(325.439957 297.408484) scale(0.15 -0.15)">
       <defs>
        <path id="DejaVuSans-38" d="M 2034 2216 
Q 1584 2216 1326 1975 
Q 1069 1734 1069 1313 
Q 1069 891 1326 650 
Q 1584 409 2034 409 
Q 2484 409 2743 651 
Q 3003 894 3003 1313 
Q 3003 1734 2745 1975 
Q 2488 2216 2034 2216 
z
M 1403 2484 
Q 997 2584 770 2862 
Q 544 3141 544 3541 
Q 544 4100 942 4425 
Q 1341 4750 2034 4750 
Q 2731 4750 3128 4425 
Q 3525 4100 3525 3541 
Q 3525 3141 3298 2862 
Q 3072 2584 2669 2484 
Q 3125 2378 3379 2068 
Q 3634 1759 3634 1313 
Q 3634 634 3220 271 
Q 2806 -91 2034 -91 
Q 1263 -91 848 271 
Q 434 634 434 1313 
Q 434 1759 690 2068 
Q 947 2378 1403 2484 
z
M 1172 3481 
Q 1172 3119 1398 2916 
Q 1625 2713 2034 2713 
Q 2441 2713 2670 2916 
Q 2900 3119 2900 3481 
Q 2900 3844 2670 4047 
Q 2441 4250 2034 4250 
Q 1625 4250 1398 4047 
Q 1172 3844 1172 3481 
z
" transform="scale(0.015625)"/>
       </defs>
       <use xlink:href="#DejaVuSans-30"/>
       <use xlink:href="#DejaVuSans-2e" x="63.623047"/>
       <use xlink:href="#DejaVuSans-38" x="95.410156"/>
      </g>
     </g>
    </g>
    <g id="xtick_6">
     <g id="line2d_11">
      <path d="M 402.29821 279.010828 
L 402.29821 12.898828 
" clip-path="url(#p3c3110dc2b)" style="fill: none; stroke: #b0b0b0; stroke-width: 0.8; stroke-linecap: square"/>
     </g>
     <g id="line2d_12">
      <g>
       <use xlink:href="#md39032bed2" x="402.29821" y="279.010828" style="stroke: #000000; stroke-width: 0.8"/>
      </g>
     </g>
     <g id="text_6">
      <!-- 1.0 -->
      <g transform="translate(390.370866 297.408484) scale(0.15 -0.15)">
       <defs>
        <path id="DejaVuSans-31" d="M 794 531 
L 1825 531 
L 1825 4091 
L 703 3866 
L 703 4441 
L 1819 4666 
L 2450 4666 
L 2450 531 
L 3481 531 
L 3481 0 
L 794 0 
L 794 531 
z
" transform="scale(0.015625)"/>
       </defs>
       <use xlink:href="#DejaVuSans-31"/>
       <use xlink:href="#DejaVuSans-2e" x="63.623047"/>
       <use xlink:href="#DejaVuSans-30" x="95.410156"/>
      </g>
     </g>
    </g>
    <g id="text_7">
     <!-- t -->
     <g transform="translate(236.050625 319.724891) scale(0.2 -0.2)">
      <defs>
       <path id="DejaVuSans-74" d="M 1172 4494 
L 1172 3500 
L 2356 3500 
L 2356 3053 
L 1172 3053 
L 1172 1153 
Q 1172 725 1289 603 
Q 1406 481 1766 481 
L 2356 481 
L 2356 0 
L 1766 0 
Q 1100 0 847 248 
Q 594 497 594 1153 
L 594 3053 
L 172 3053 
L 172 3500 
L 594 3500 
L 594 4494 
L 1172 4494 
z
" transform="scale(0.015625)"/>
      </defs>
      <use xlink:href="#DejaVuSans-74"/>
     </g>
    </g>
   </g>
   <g id="matplotlib.axis_2">
    <g id="ytick_1">
     <g id="line2d_13">
      <path d="M 61.410938 279.010828 
L 418.530938 279.010828 
" clip-path="url(#p3c3110dc2b)" style="fill: none; stroke: #b0b0b0; stroke-width: 0.8; stroke-linecap: square"/>
     </g>
     <g id="line2d_14">
      <defs>
       <path id="m6f3f5b6aff" d="M 0 0 
L -3.5 0 
" style="stroke: #000000; stroke-width: 0.8"/>
      </defs>
      <g>
       <use xlink:href="#m6f3f5b6aff" x="61.410938" y="279.010828" style="stroke: #000000; stroke-width: 0.8"/>
      </g>
     </g>
     <g id="text_8">
      <!-- 0.0 -->
      <g transform="translate(30.55625 284.709656) scale(0.15 -0.15)">
       <use xlink:href="#DejaVuSans-30"/>
       <use xlink:href="#DejaVuSans-2e" x="63.623047"/>
       <use xlink:href="#DejaVuSans-30" x="95.410156"/>
      </g>
     </g>
    </g>
    <g id="ytick_2">
     <g id="line2d_15">
      <path d="M 61.410938 225.788428 
L 418.530938 225.788428 
" clip-path="url(#p3c3110dc2b)" style="fill: none; stroke: #b0b0b0; stroke-width: 0.8; stroke-linecap: square"/>
     </g>
     <g id="line2d_16">
      <g>
       <use xlink:href="#m6f3f5b6aff" x="61.410938" y="225.788428" style="stroke: #000000; stroke-width: 0.8"/>
      </g>
     </g>
     <g id="text_9">
      <!-- 0.2 -->
      <g transform="translate(30.55625 231.487256) scale(0.15 -0.15)">
       <use xlink:href="#DejaVuSans-30"/>
       <use xlink:href="#DejaVuSans-2e" x="63.623047"/>
       <use xlink:href="#DejaVuSans-32" x="95.410156"/>
      </g>
     </g>
    </g>
    <g id="ytick_3">
     <g id="line2d_17">
      <path d="M 61.410938 172.566028 
L 418.530938 172.566028 
" clip-path="url(#p3c3110dc2b)" style="fill: none; stroke: #b0b0b0; stroke-width: 0.8; stroke-linecap: square"/>
     </g>
     <g id="line2d_18">
      <g>
       <use xlink:href="#m6f3f5b6aff" x="61.410938" y="172.566028" style="stroke: #000000; stroke-width: 0.8"/>
      </g>
     </g>
     <g id="text_10">
      <!-- 0.4 -->
      <g transform="translate(30.55625 178.264856) scale(0.15 -0.15)">
       <use xlink:href="#DejaVuSans-30"/>
       <use xlink:href="#DejaVuSans-2e" x="63.623047"/>
       <use xlink:href="#DejaVuSans-34" x="95.410156"/>
      </g>
     </g>
    </g>
    <g id="ytick_4">
     <g id="line2d_19">
      <path d="M 61.410938 119.343628 
L 418.530938 119.343628 
" clip-path="url(#p3c3110dc2b)" style="fill: none; stroke: #b0b0b0; stroke-width: 0.8; stroke-linecap: square"/>
     </g>
     <g id="line2d_20">
      <g>
       <use xlink:href="#m6f3f5b6aff" x="61.410938" y="119.343628" style="stroke: #000000; stroke-width: 0.8"/>
      </g>
     </g>
     <g id="text_11">
      <!-- 0.6 -->
      <g transform="translate(30.55625 125.042456) scale(0.15 -0.15)">
       <use xlink:href="#DejaVuSans-30"/>
       <use xlink:href="#DejaVuSans-2e" x="63.623047"/>
       <use xlink:href="#DejaVuSans-36" x="95.410156"/>
      </g>
     </g>
    </g>
    <g id="ytick_5">
     <g id="line2d_21">
      <path d="M 61.410938 66.121228 
L 418.530938 66.121228 
" clip-path="url(#p3c3110dc2b)" style="fill: none; stroke: #b0b0b0; stroke-width: 0.8; stroke-linecap: square"/>
     </g>
     <g id="line2d_22">
      <g>
       <use xlink:href="#m6f3f5b6aff" x="61.410938" y="66.121228" style="stroke: #000000; stroke-width: 0.8"/>
      </g>
     </g>
     <g id="text_12">
      <!-- 0.8 -->
      <g transform="translate(30.55625 71.820056) scale(0.15 -0.15)">
       <use xlink:href="#DejaVuSans-30"/>
       <use xlink:href="#DejaVuSans-2e" x="63.623047"/>
       <use xlink:href="#DejaVuSans-38" x="95.410156"/>
      </g>
     </g>
    </g>
    <g id="ytick_6">
     <g id="line2d_23">
      <path d="M 61.410938 12.898828 
L 418.530938 12.898828 
" clip-path="url(#p3c3110dc2b)" style="fill: none; stroke: #b0b0b0; stroke-width: 0.8; stroke-linecap: square"/>
     </g>
     <g id="line2d_24">
      <g>
       <use xlink:href="#m6f3f5b6aff" x="61.410938" y="12.898828" style="stroke: #000000; stroke-width: 0.8"/>
      </g>
     </g>
     <g id="text_13">
      <!-- 1.0 -->
      <g transform="translate(30.55625 18.597656) scale(0.15 -0.15)">
       <use xlink:href="#DejaVuSans-31"/>
       <use xlink:href="#DejaVuSans-2e" x="63.623047"/>
       <use xlink:href="#DejaVuSans-30" x="95.410156"/>
      </g>
     </g>
    </g>
    <g id="text_14">
     <!-- p -->
     <g transform="translate(22.396875 152.303266) rotate(-90) scale(0.2 -0.2)">
      <defs>
       <path id="DejaVuSans-70" d="M 1159 525 
L 1159 -1331 
L 581 -1331 
L 581 3500 
L 1159 3500 
L 1159 2969 
Q 1341 3281 1617 3432 
Q 1894 3584 2278 3584 
Q 2916 3584 3314 3078 
Q 3713 2572 3713 1747 
Q 3713 922 3314 415 
Q 2916 -91 2278 -91 
Q 1894 -91 1617 61 
Q 1341 213 1159 525 
z
M 3116 1747 
Q 3116 2381 2855 2742 
Q 2594 3103 2138 3103 
Q 1681 3103 1420 2742 
Q 1159 2381 1159 1747 
Q 1159 1113 1420 752 
Q 1681 391 2138 391 
Q 2594 391 2855 752 
Q 3116 1113 3116 1747 
z
" transform="scale(0.015625)"/>
      </defs>
      <use xlink:href="#DejaVuSans-70"/>
     </g>
    </g>
   </g>
   <g id="line2d_25">
    <path d="M 77.643665 279.010828 
L 77.870923 278.882201 
L 78.130647 278.421304 
L 78.487767 277.248164 
L 78.942283 274.879955 
L 79.526661 270.488802 
L 80.273367 262.954303 
L 81.279796 250.253384 
L 84.396479 209.125475 
L 85.17565 202.414052 
L 85.760028 199.079185 
L 86.214545 197.597415 
L 86.539199 197.159686 
L 86.766458 197.165196 
L 86.993716 197.427741 
L 87.285905 198.140143 
L 87.67549 199.733083 
L 88.194938 202.950164 
L 88.844247 208.573282 
L 89.688348 218.08412 
L 90.954501 235.278599 
L 92.934894 261.948479 
L 93.811461 270.853401 
L 94.493236 275.708812 
L 95.012683 277.995743 
L 95.402268 278.855198 
L 95.661992 279.010592 
L 95.88925 278.870953 
L 96.148974 278.397562 
L 96.506094 277.207582 
L 96.96061 274.818884 
L 97.544988 270.403706 
L 98.291694 262.843758 
L 99.298123 250.120582 
L 102.382341 209.356018 
L 103.161512 202.574731 
L 103.74589 199.179403 
L 104.200407 197.647603 
L 104.525061 197.173291 
L 104.752319 197.153062 
L 104.979578 197.389944 
L 105.271767 198.069722 
L 105.661352 199.620358 
L 106.148334 202.55151 
L 106.765178 207.718872 
L 107.576814 216.604556 
L 108.74557 232.189709 
L 111.018152 262.806604 
L 111.894719 271.481044 
L 112.544028 275.941884 
L 113.063476 278.124804 
L 113.420596 278.867074 
L 113.680319 279.009884 
L 113.907578 278.859235 
L 114.167301 278.373356 
L 114.524421 277.166549 
L 114.978938 274.757388 
L 115.563316 270.318237 
L 116.310021 262.732927 
L 117.31645 249.987641 
L 120.400668 209.257084 
L 121.179839 202.505659 
L 121.764218 199.136193 
L 122.218734 197.625803 
L 122.543388 197.167151 
L 122.770647 197.157943 
L 122.997905 197.405815 
L 123.290094 198.099566 
L 123.679679 199.668328 
L 124.166661 202.620854 
L 124.783505 207.812351 
L 125.595141 216.723067 
L 126.763898 232.327332 
L 129.036479 262.917245 
L 129.880581 271.292334 
L 130.52989 275.817347 
L 131.049338 278.056357 
L 131.438923 278.87848 
L 131.698647 279.008704 
L 131.925905 278.847047 
L 132.185628 278.348685 
L 132.542748 277.125065 
L 132.997265 274.695469 
L 133.581643 270.232396 
L 134.328348 262.621811 
L 135.334778 249.854563 
L 138.38653 209.488662 
L 139.165701 202.667616 
L 139.750079 199.237811 
L 140.204596 197.677445 
L 140.52925 197.182227 
L 140.756508 197.147281 
L 140.983767 197.369481 
L 141.275956 198.030584 
L 141.665541 199.556986 
L 142.152523 202.459539 
L 142.769367 207.594576 
L 143.581003 216.44667 
L 144.749759 232.006019 
L 147.054807 263.0276 
L 147.898908 271.373391 
L 148.548218 275.870961 
L 149.067665 278.085972 
L 149.45725 278.889414 
L 149.716974 279.007051 
L 149.944232 278.834388 
L 150.236421 278.236353 
L 150.593541 276.940007 
L 151.080523 274.206497 
L 151.697367 269.263298 
L 152.476538 260.997672 
L 153.580363 246.57606 
L 156.177599 211.793407 
L 156.989236 204.06801 
L 157.638545 199.815216 
L 158.125527 197.900355 
L 158.482647 197.229539 
L 158.74237 197.139193 
L 158.969628 197.335707 
L 159.261818 197.96412 
L 159.651403 199.448066 
L 160.138385 202.300464 
L 160.755228 207.378719 
L 161.534399 215.781227 
L 162.67069 230.770679 
L 165.105599 263.502699 
L 165.949701 271.72036 
L 166.59901 276.098358 
L 167.085992 278.115126 
L 167.443112 278.863142 
L 167.702836 279.010174 
L 167.930094 278.863219 
L 168.189818 278.381529 
L 168.546938 277.180366 
L 169.001454 274.778068 
L 169.585832 270.346955 
L 170.332538 262.770144 
L 171.338967 250.032261 
L 174.423185 209.290241 
L 175.202356 202.528788 
L 175.786734 199.150641 
L 176.24125 197.633065 
L 176.565905 197.169159 
L 176.793163 197.156253 
L 177.020421 197.400438 
L 177.31261 198.089502 
L 177.702196 199.652184 
L 178.189177 202.597543 
L 178.806021 207.780949 
L 179.617658 216.683277 
L 180.786414 232.28115 
L 183.058996 262.880155 
L 183.903098 271.265052 
L 184.552407 275.799261 
L 185.071854 278.046317 
L 185.461439 278.874705 
L 185.721163 279.009152 
L 185.948421 278.851189 
L 186.208145 278.357014 
L 186.565265 277.139033 
L 187.019781 274.716291 
L 187.604159 270.261238 
L 188.350865 262.659124 
L 189.357294 249.899228 
L 192.409047 209.522078 
L 193.188218 202.691065 
L 193.772596 199.25261 
L 194.227112 197.685072 
L 194.551767 197.184605 
L 194.779025 197.14596 
L 195.006283 197.364472 
L 195.298472 198.020881 
L 195.688058 199.54119 
L 196.175039 202.436549 
L 196.791883 207.563448 
L 197.603519 216.407075 
L 198.772276 231.959891 
L 201.077323 262.990606 
L 201.921425 271.346238 
L 202.570734 275.853021 
L 203.090181 278.076087 
L 203.479767 278.885798 
L 203.73949 279.007658 
L 203.966748 278.838688 
L 204.258938 278.245357 
L 204.616058 276.954629 
L 205.103039 274.228398 
L 205.719883 269.29349 
L 206.499054 261.036303 
L 207.602879 246.621684 
L 210.200116 211.829194 
L 211.011752 204.094012 
L 211.661061 199.831855 
L 212.148043 197.909386 
L 212.505163 197.232813 
L 212.764887 197.138242 
L 212.992145 197.331066 
L 213.284334 197.954779 
L 213.673919 199.432619 
L 214.160901 202.277797 
L 214.777745 207.347867 
L 215.556916 215.742114 
L 216.693207 230.724784 
L 219.128116 263.466128 
L 219.972218 271.693768 
L 220.621527 276.081054 
L 221.108508 278.105396 
L 221.465628 278.859157 
L 221.725352 279.010411 
L 221.95261 278.86715 
L 222.212334 278.389651 
L 222.569454 277.194133 
L 223.02397 274.7987 
L 223.608348 270.37563 
L 224.355054 262.807329 
L 225.361483 250.076864 
L 228.445701 209.323435 
L 229.224872 202.551963 
L 229.80925 199.165139 
L 230.263767 197.64038 
L 230.588421 197.171219 
L 230.815679 197.154616 
L 231.042938 197.395114 
L 231.335127 198.079489 
L 231.724712 199.63609 
L 232.211694 202.574277 
L 232.828538 207.749585 
L 233.640174 216.643516 
L 234.80893 232.234975 
L 237.081512 262.843033 
L 237.958079 271.507456 
L 238.607388 275.959235 
L 239.126836 278.134243 
L 239.483956 278.870878 
L 239.743679 279.009548 
L 239.970938 278.855278 
L 240.230661 278.365291 
L 240.587781 277.152951 
L 241.042298 274.737065 
L 241.626676 270.290039 
L 242.373381 262.696404 
L 243.37981 249.943878 
L 246.464028 209.22461 
L 247.243199 202.483026 
L 247.827578 199.122076 
L 248.282094 197.618733 
L 248.606748 197.165234 
L 248.834007 197.159651 
L 249.061265 197.411138 
L 249.353454 198.109485 
L 249.743039 199.684205 
L 250.230021 202.643756 
L 250.846865 207.843179 
L 251.658501 216.762107 
L 252.827258 232.37262 
L 255.067374 262.583738 
L 255.943941 271.319041 
L 256.59325 275.835032 
L 257.112697 278.06615 
L 257.502283 278.882129 
L 257.762007 279.008212 
L 257.989265 278.842935 
L 258.281454 278.254309 
L 258.638574 276.969201 
L 259.125556 274.250253 
L 259.742399 269.323642 
L 260.52157 261.074904 
L 261.625396 246.667296 
L 264.222632 211.865016 
L 265.066734 203.863082 
L 265.683578 199.848545 
L 266.170559 197.91847 
L 266.527679 197.23614 
L 266.787403 197.137345 
L 267.014661 197.326477 
L 267.30685 197.94549 
L 267.696436 199.417221 
L 268.183418 202.255175 
L 268.800261 207.317056 
L 269.579432 215.70303 
L 270.715723 230.678899 
L 273.150632 263.429524 
L 273.994734 271.667133 
L 274.644043 276.0637 
L 275.131025 278.095614 
L 275.52061 278.892909 
L 275.780334 279.006404 
L 276.007592 278.830121 
L 276.299781 278.227474 
L 276.689367 276.777019 
L 277.176348 273.964236 
L 277.793192 268.930913 
L 278.572363 260.573816 
L 279.676188 246.077056 
L 282.208494 212.11531 
L 283.052596 204.042557 
L 283.701905 199.798949 
L 284.188887 197.89155 
L 284.546007 197.22638 
L 284.80573 197.140176 
L 285.032988 197.34031 
L 285.325178 197.973329 
L 285.714763 199.463261 
L 286.201745 202.322735 
L 286.818588 207.409007 
L 287.597759 215.819605 
L 288.73405 230.815687 
L 291.168959 263.538525 
L 292.013061 271.746391 
L 292.66237 276.115276 
L 293.149352 278.124616 
L 293.506472 278.866998 
L 293.766196 279.00989 
L 293.993454 278.859314 
L 294.253177 278.373516 
L 294.610298 277.166819 
L 295.064814 274.757792 
L 295.649192 270.318798 
L 296.395898 262.733653 
L 297.402327 249.988512 
L 300.486545 209.257731 
L 301.265716 202.50611 
L 301.850094 199.136474 
L 302.30461 197.625944 
L 302.629265 197.16719 
L 302.856523 197.157909 
L 303.083781 197.405709 
L 303.37597 198.09937 
L 303.765556 199.668013 
L 304.252538 202.620399 
L 304.869381 207.811738 
L 305.681018 216.722291 
L 306.849774 232.326431 
L 309.122356 262.916522 
L 309.966458 271.291802 
L 310.615767 275.816994 
L 311.135214 278.056161 
L 311.524799 278.878407 
L 311.784523 279.008713 
L 312.011781 278.847128 
L 312.271505 278.348848 
L 312.628625 277.125338 
L 313.083141 274.695876 
L 313.667519 270.232959 
L 314.414225 262.62254 
L 315.420654 249.855434 
L 318.472407 209.489314 
L 319.251578 202.668073 
L 319.835956 199.238099 
L 320.290472 197.677593 
L 320.615127 197.182273 
L 320.842385 197.147254 
L 321.069643 197.369383 
L 321.361832 198.030394 
L 321.751418 199.556677 
L 322.238399 202.45909 
L 322.855243 207.593969 
L 323.666879 216.445897 
L 324.835636 232.005119 
L 327.140683 263.026879 
L 327.984785 271.372861 
L 328.634094 275.870612 
L 329.153541 278.08578 
L 329.543127 278.889344 
L 329.80285 279.007063 
L 330.030108 278.834473 
L 330.322297 278.236529 
L 330.679417 276.940293 
L 331.166399 274.206924 
L 331.783243 269.263888 
L 332.562414 260.998426 
L 333.666239 246.57695 
L 336.263476 211.794105 
L 337.075112 204.068517 
L 337.724421 199.81554 
L 338.211403 197.90053 
L 338.568523 197.229602 
L 338.828247 197.139174 
L 339.055505 197.335616 
L 339.347694 197.963937 
L 339.737279 199.447765 
L 340.224261 202.300022 
L 340.841105 207.378116 
L 341.620276 215.780463 
L 342.756567 230.769784 
L 345.191476 263.501986 
L 346.035578 271.719842 
L 346.684887 276.098021 
L 347.171868 278.114936 
L 347.528988 278.863065 
L 347.788712 279.010179 
L 348.01597 278.863297 
L 348.275694 278.381688 
L 348.632814 277.180635 
L 349.08733 274.778471 
L 349.671708 270.347514 
L 350.418414 262.77087 
L 351.424843 250.033131 
L 354.509061 209.290888 
L 355.288232 202.529239 
L 355.87261 199.150923 
L 356.327127 197.633207 
L 356.651781 197.169198 
L 356.879039 197.15622 
L 357.106298 197.400333 
L 357.398487 198.089306 
L 357.788072 199.65187 
L 358.275054 202.597089 
L 358.891898 207.780336 
L 359.703534 216.682502 
L 360.87229 232.280249 
L 363.144872 262.879431 
L 363.988974 271.264519 
L 364.638283 275.798907 
L 365.15773 278.046121 
L 365.547316 278.874631 
L 365.807039 279.00916 
L 366.034298 278.851269 
L 366.294021 278.357176 
L 366.651141 277.139305 
L 367.105658 274.716697 
L 367.690036 270.261801 
L 368.436741 262.659851 
L 369.44317 249.900099 
L 372.494923 209.522731 
L 373.274094 202.691523 
L 373.858472 199.252899 
L 374.312988 197.685221 
L 374.637643 197.184652 
L 374.864901 197.145935 
L 375.092159 197.364374 
L 375.384348 198.020692 
L 375.773934 199.540882 
L 376.260916 202.436101 
L 376.877759 207.562842 
L 377.689396 216.406303 
L 378.858152 231.958991 
L 381.163199 262.989884 
L 382.007301 271.345707 
L 382.65661 275.852671 
L 383.176058 278.075894 
L 383.565643 278.885727 
L 383.825367 279.007669 
L 384.052625 278.838771 
L 384.344814 278.245532 
L 384.701934 276.954914 
L 385.188916 274.228825 
L 385.805759 269.294079 
L 386.58493 261.037056 
L 387.688756 246.622574 
L 390.285992 211.829893 
L 391.097628 204.09452 
L 391.746938 199.832181 
L 392.233919 197.909563 
L 392.591039 197.232877 
L 392.850763 197.138224 
L 393.078021 197.330976 
L 393.37021 197.954597 
L 393.759796 199.432318 
L 394.246778 202.277355 
L 394.863621 207.347266 
L 395.642792 215.741351 
L 396.779083 230.723889 
L 399.213992 263.465414 
L 400.058094 271.693249 
L 400.707403 276.080716 
L 401.194385 278.105205 
L 401.551505 278.859079 
L 401.811228 279.010415 
L 402.038487 278.867227 
L 402.29821 278.389808 
L 402.29821 278.389808 
" clip-path="url(#p3c3110dc2b)" style="fill: none; stroke: #1f77b4; stroke-width: 1.5; stroke-linecap: square"/>
   </g>
   <g id="line2d_26">
    <path d="M 77.643665 279.010828 
L 77.870923 278.882201 
L 78.130647 278.421304 
L 78.487767 277.248164 
L 78.942283 274.879955 
L 79.526661 270.488802 
L 80.273367 262.954303 
L 81.279796 250.253384 
L 84.396479 209.125475 
L 85.17565 202.414052 
L 85.760028 199.079185 
L 86.214545 197.597415 
L 86.539199 197.159686 
L 86.766458 197.165196 
L 86.993716 197.427741 
L 87.285905 198.140143 
L 87.67549 199.733083 
L 88.194938 202.950164 
L 88.844247 208.573282 
L 89.688348 218.08412 
L 90.954501 235.278599 
L 92.934894 261.948479 
L 93.811461 270.853401 
L 94.493236 275.708812 
L 95.012683 277.995743 
L 95.402268 278.855198 
L 95.661992 279.010592 
L 95.88925 278.870953 
L 96.148974 278.397562 
L 96.506094 277.207582 
L 96.96061 274.818884 
L 97.544988 270.403706 
L 98.291694 262.843758 
L 99.298123 250.120582 
L 102.382341 209.356018 
L 103.161512 202.574731 
L 103.74589 199.179403 
L 104.200407 197.647603 
L 104.525061 197.173291 
L 104.752319 197.153062 
L 104.979578 197.389944 
L 105.271767 198.069722 
L 105.661352 199.620358 
L 106.148334 202.55151 
L 106.765178 207.718872 
L 107.576814 216.604556 
L 108.74557 232.189709 
L 111.018152 262.806604 
L 111.894719 271.481044 
L 112.544028 275.941884 
L 113.063476 278.124804 
L 113.420596 278.867074 
L 113.680319 279.009884 
L 113.907578 278.859235 
L 114.167301 278.373356 
L 114.524421 277.166549 
L 114.978938 274.757388 
L 115.563316 270.318237 
L 116.310021 262.732927 
L 117.31645 249.987641 
L 120.400668 209.257084 
L 121.179839 202.505659 
L 121.764218 199.136193 
L 122.218734 197.625803 
L 122.543388 197.167151 
L 122.770647 197.157943 
L 122.997905 197.405815 
L 123.290094 198.099566 
L 123.679679 199.668328 
L 124.166661 202.620854 
L 124.783505 207.812351 
L 125.595141 216.723067 
L 126.763898 232.327332 
L 129.036479 262.917245 
L 129.880581 271.292334 
L 130.52989 275.817347 
L 131.049338 278.056357 
L 131.438923 278.87848 
L 131.698647 279.008704 
L 131.925905 278.847047 
L 132.185628 278.348685 
L 132.542748 277.125065 
L 132.997265 274.695469 
L 133.581643 270.232396 
L 134.328348 262.621811 
L 135.334778 249.854563 
L 138.38653 209.488662 
L 139.165701 202.667616 
L 139.750079 199.237811 
L 140.204596 197.677445 
L 140.52925 197.182227 
L 140.756508 197.147281 
L 140.983767 197.369481 
L 141.275956 198.030584 
L 141.665541 199.556986 
L 142.152523 202.459539 
L 142.769367 207.594576 
L 143.581003 216.44667 
L 144.749759 232.006019 
L 147.054807 263.0276 
L 147.898908 271.373391 
L 148.548218 275.870961 
L 149.067665 278.085972 
L 149.45725 278.889414 
L 149.716974 279.007051 
L 149.944232 278.834388 
L 150.236421 278.236353 
L 150.593541 276.940007 
L 151.080523 274.206497 
L 151.697367 269.263298 
L 152.476538 260.997672 
L 153.580363 246.57606 
L 156.177599 211.793407 
L 156.989236 204.06801 
L 157.638545 199.815216 
L 158.125527 197.900355 
L 158.482647 197.229539 
L 158.74237 197.139193 
L 158.969628 197.335707 
L 159.261818 197.96412 
L 159.651403 199.448066 
L 160.138385 202.300464 
L 160.755228 207.378719 
L 161.534399 215.781227 
L 162.67069 230.770679 
L 165.105599 263.502699 
L 165.949701 271.72036 
L 166.59901 276.098358 
L 167.085992 278.115126 
L 167.443112 278.863142 
L 167.702836 279.010174 
L 167.930094 278.863219 
L 168.189818 278.381529 
L 168.546938 277.180366 
L 169.001454 274.778068 
L 169.585832 270.346955 
L 170.332538 262.770144 
L 171.338967 250.032261 
L 174.423185 209.290241 
L 175.202356 202.528788 
L 175.786734 199.150641 
L 176.24125 197.633065 
L 176.565905 197.169159 
L 176.793163 197.156253 
L 177.020421 197.400438 
L 177.31261 198.089502 
L 177.702196 199.652184 
L 178.189177 202.597543 
L 178.806021 207.780949 
L 179.617658 216.683277 
L 180.786414 232.28115 
L 183.058996 262.880155 
L 183.903098 271.265052 
L 184.552407 275.799261 
L 185.071854 278.046317 
L 185.461439 278.874705 
L 185.721163 279.009152 
L 185.948421 278.851189 
L 186.208145 278.357014 
L 186.565265 277.139033 
L 187.019781 274.716291 
L 187.604159 270.261238 
L 188.350865 262.659124 
L 189.357294 249.899228 
L 192.409047 209.522078 
L 193.188218 202.691065 
L 193.772596 199.25261 
L 194.227112 197.685072 
L 194.551767 197.184605 
L 194.779025 197.14596 
L 195.006283 197.364472 
L 195.298472 198.020881 
L 195.688058 199.54119 
L 196.175039 202.436549 
L 196.791883 207.563448 
L 197.603519 216.407075 
L 198.772276 231.959891 
L 201.077323 262.990606 
L 201.921425 271.346238 
L 202.570734 275.853021 
L 203.090181 278.076087 
L 203.479767 278.885798 
L 203.73949 279.007658 
L 203.966748 278.838688 
L 204.258938 278.245357 
L 204.616058 276.954629 
L 205.103039 274.228398 
L 205.719883 269.29349 
L 206.499054 261.036303 
L 207.602879 246.621684 
L 210.200116 211.829194 
L 211.011752 204.094012 
L 211.661061 199.831855 
L 212.148043 197.909386 
L 212.505163 197.232813 
L 212.764887 197.138242 
L 212.992145 197.331066 
L 213.284334 197.954779 
L 213.673919 199.432619 
L 214.160901 202.277797 
L 214.777745 207.347867 
L 215.556916 215.742114 
L 216.693207 230.724784 
L 219.128116 263.466128 
L 219.972218 271.693768 
L 220.621527 276.081054 
L 221.108508 278.105396 
L 221.465628 278.859157 
L 221.725352 279.010411 
L 221.95261 278.86715 
L 222.212334 278.389651 
L 222.569454 277.194133 
L 223.02397 274.7987 
L 223.608348 270.37563 
L 224.355054 262.807329 
L 225.361483 250.076864 
L 228.445701 209.323435 
L 229.224872 202.551963 
L 229.80925 199.165139 
L 230.263767 197.64038 
L 230.588421 197.171219 
L 230.815679 197.154616 
L 231.042938 197.395114 
L 231.335127 198.079489 
L 231.724712 199.63609 
L 232.211694 202.574277 
L 232.828538 207.749585 
L 233.640174 216.643516 
L 234.80893 232.234975 
L 237.081512 262.843033 
L 237.958079 271.507456 
L 238.607388 275.959235 
L 239.126836 278.134243 
L 239.483956 278.870878 
L 239.743679 279.009548 
L 239.970938 278.855278 
L 240.230661 278.365291 
L 240.587781 277.152951 
L 241.042298 274.737065 
L 241.626676 270.290039 
L 242.373381 262.696404 
L 243.37981 249.943878 
L 246.464028 209.22461 
L 247.243199 202.483026 
L 247.827578 199.122076 
L 248.282094 197.618733 
L 248.606748 197.165234 
L 248.834007 197.159651 
L 249.061265 197.411138 
L 249.353454 198.109485 
L 249.743039 199.684205 
L 250.230021 202.643756 
L 250.846865 207.843179 
L 251.658501 216.762107 
L 252.827258 232.37262 
L 255.067374 262.583738 
L 255.943941 271.319041 
L 256.59325 275.835032 
L 257.112697 278.06615 
L 257.502283 278.882129 
L 257.762007 279.008212 
L 257.989265 278.842935 
L 258.281454 278.254309 
L 258.638574 276.969201 
L 259.125556 274.250253 
L 259.742399 269.323642 
L 260.52157 261.074904 
L 261.625396 246.667296 
L 264.222632 211.865016 
L 265.066734 203.863082 
L 265.683578 199.848545 
L 266.170559 197.91847 
L 266.527679 197.23614 
L 266.787403 197.137345 
L 267.014661 197.326477 
L 267.30685 197.94549 
L 267.696436 199.417221 
L 268.183418 202.255175 
L 268.800261 207.317056 
L 269.579432 215.70303 
L 270.715723 230.678899 
L 273.150632 263.429524 
L 273.994734 271.667133 
L 274.644043 276.0637 
L 275.131025 278.095614 
L 275.52061 278.892909 
L 275.780334 279.006404 
L 276.007592 278.830121 
L 276.299781 278.227474 
L 276.689367 276.777019 
L 277.176348 273.964236 
L 277.793192 268.930913 
L 278.572363 260.573816 
L 279.676188 246.077056 
L 282.208494 212.11531 
L 283.052596 204.042557 
L 283.701905 199.798949 
L 284.188887 197.89155 
L 284.546007 197.22638 
L 284.80573 197.140176 
L 285.032988 197.34031 
L 285.325178 197.973329 
L 285.714763 199.463261 
L 286.201745 202.322735 
L 286.818588 207.409007 
L 287.597759 215.819605 
L 288.73405 230.815687 
L 291.168959 263.538525 
L 292.013061 271.746391 
L 292.66237 276.115276 
L 293.149352 278.124616 
L 293.506472 278.866998 
L 293.766196 279.00989 
L 293.993454 278.859314 
L 294.253177 278.373516 
L 294.610298 277.166819 
L 295.064814 274.757792 
L 295.649192 270.318798 
L 296.395898 262.733653 
L 297.402327 249.988512 
L 300.486545 209.257731 
L 301.265716 202.50611 
L 301.850094 199.136474 
L 302.30461 197.625944 
L 302.629265 197.16719 
L 302.856523 197.157909 
L 303.083781 197.405709 
L 303.37597 198.09937 
L 303.765556 199.668013 
L 304.252538 202.620399 
L 304.869381 207.811738 
L 305.681018 216.722291 
L 306.849774 232.326431 
L 309.122356 262.916522 
L 309.966458 271.291802 
L 310.615767 275.816994 
L 311.135214 278.056161 
L 311.524799 278.878407 
L 311.784523 279.008713 
L 312.011781 278.847128 
L 312.271505 278.348848 
L 312.628625 277.125338 
L 313.083141 274.695876 
L 313.667519 270.232959 
L 314.414225 262.62254 
L 315.420654 249.855434 
L 318.472407 209.489314 
L 319.251578 202.668073 
L 319.835956 199.238099 
L 320.290472 197.677593 
L 320.615127 197.182273 
L 320.842385 197.147254 
L 321.069643 197.369383 
L 321.361832 198.030394 
L 321.751418 199.556677 
L 322.238399 202.45909 
L 322.855243 207.593969 
L 323.666879 216.445897 
L 324.835636 232.005119 
L 327.140683 263.026879 
L 327.984785 271.372861 
L 328.634094 275.870612 
L 329.153541 278.08578 
L 329.543127 278.889344 
L 329.80285 279.007063 
L 330.030108 278.834473 
L 330.322297 278.236529 
L 330.679417 276.940293 
L 331.166399 274.206924 
L 331.783243 269.263888 
L 332.562414 260.998426 
L 333.666239 246.57695 
L 336.263476 211.794105 
L 337.075112 204.068517 
L 337.724421 199.81554 
L 338.211403 197.90053 
L 338.568523 197.229602 
L 338.828247 197.139174 
L 339.055505 197.335616 
L 339.347694 197.963937 
L 339.737279 199.447765 
L 340.224261 202.300022 
L 340.841105 207.378116 
L 341.620276 215.780463 
L 342.756567 230.769784 
L 345.191476 263.501986 
L 346.035578 271.719842 
L 346.684887 276.098021 
L 347.171868 278.114936 
L 347.528988 278.863065 
L 347.788712 279.010179 
L 348.01597 278.863297 
L 348.275694 278.381688 
L 348.632814 277.180635 
L 349.08733 274.778471 
L 349.671708 270.347514 
L 350.418414 262.77087 
L 351.424843 250.033131 
L 354.509061 209.290888 
L 355.288232 202.529239 
L 355.87261 199.150923 
L 356.327127 197.633207 
L 356.651781 197.169198 
L 356.879039 197.15622 
L 357.106298 197.400333 
L 357.398487 198.089306 
L 357.788072 199.65187 
L 358.275054 202.597089 
L 358.891898 207.780336 
L 359.703534 216.682502 
L 360.87229 232.280249 
L 363.144872 262.879431 
L 363.988974 271.264519 
L 364.638283 275.798907 
L 365.15773 278.046121 
L 365.547316 278.874631 
L 365.807039 279.00916 
L 366.034298 278.851269 
L 366.294021 278.357176 
L 366.651141 277.139305 
L 367.105658 274.716697 
L 367.690036 270.261801 
L 368.436741 262.659851 
L 369.44317 249.900099 
L 372.494923 209.522731 
L 373.274094 202.691523 
L 373.858472 199.252899 
L 374.312988 197.685221 
L 374.637643 197.184652 
L 374.864901 197.145935 
L 375.092159 197.364374 
L 375.384348 198.020692 
L 375.773934 199.540882 
L 376.260916 202.436101 
L 376.877759 207.562842 
L 377.689396 216.406303 
L 378.858152 231.958991 
L 381.163199 262.989884 
L 382.007301 271.345707 
L 382.65661 275.852671 
L 383.176058 278.075894 
L 383.565643 278.885727 
L 383.825367 279.007669 
L 384.052625 278.838771 
L 384.344814 278.245532 
L 384.701934 276.954914 
L 385.188916 274.228825 
L 385.805759 269.294079 
L 386.58493 261.037056 
L 387.688756 246.622574 
L 390.285992 211.829893 
L 391.097628 204.09452 
L 391.746938 199.832181 
L 392.233919 197.909563 
L 392.591039 197.232877 
L 392.850763 197.138224 
L 393.078021 197.330976 
L 393.37021 197.954597 
L 393.759796 199.432318 
L 394.246778 202.277355 
L 394.863621 207.347266 
L 395.642792 215.741351 
L 396.779083 230.723889 
L 399.213992 263.465414 
L 400.058094 271.693249 
L 400.707403 276.080716 
L 401.194385 278.105205 
L 401.551505 278.859079 
L 401.811228 279.010415 
L 402.038487 278.867227 
L 402.29821 278.389808 
L 402.29821 278.389808 
" clip-path="url(#p3c3110dc2b)" style="fill: none; stroke-dasharray: 5.55,2.4; stroke-dashoffset: 0; stroke: #ff7f0e; stroke-width: 1.5"/>
   </g>
   <g id="patch_3">
    <path d="M 61.410938 279.010828 
L 61.410938 12.898828 
" style="fill: none; stroke: #000000; stroke-width: 0.8; stroke-linejoin: miter; stroke-linecap: square"/>
   </g>
   <g id="patch_4">
    <path d="M 418.530938 279.010828 
L 418.530938 12.898828 
" style="fill: none; stroke: #000000; stroke-width: 0.8; stroke-linejoin: miter; stroke-linecap: square"/>
   </g>
   <g id="patch_5">
    <path d="M 61.410938 279.010828 
L 418.530938 279.010828 
" style="fill: none; stroke: #000000; stroke-width: 0.8; stroke-linejoin: miter; stroke-linecap: square"/>
   </g>
   <g id="patch_6">
    <path d="M 61.410938 12.898828 
L 418.530938 12.898828 
" style="fill: none; stroke: #000000; stroke-width: 0.8; stroke-linejoin: miter; stroke-linecap: square"/>
   </g>
  </g>
 </g>
 <defs>
  <clipPath id="p3c3110dc2b">
   <rect x="61.410938" y="12.898828" width="357.12" height="266.112"/>
  </clipPath>
 </defs>
</svg>
