<?xml version="1.0" encoding="utf-8" standalone="no"?>
<!DOCTYPE svg PUBLIC "-//W3C//DTD SVG 1.1//EN"
  "http://www.w3.org/Graphics/SVG/1.1/DTD/svg11.dtd">
<svg xmlns:xlink="http://www.w3.org/1999/xlink" width="425.730937pt" height="331.084266pt" viewBox="0 0 425.730937 331.084266" xmlns="http://www.w3.org/2000/svg" version="1.1">
 <defs>
  <style type="text/css">*{stroke-linejoin: round; stroke-linecap: butt}</style>
 </defs>
 <g id="figure_1">
  <g id="patch_1">
   <path d="M 0 331.084266 
L 425.730937 331.084266 
L 425.730937 0 
L 0 0 
L 0 331.084266 
z
" style="fill: none"/>
  </g>
  <g id="axes_1">
   <g id="patch_2">
    <path d="M 61.410938 279.010828 
L 418.530938 279.010828 
L 418.530938 12.898828 
L 61.410938 12.898828 
L 61.410938 279.010828 
z
" style="fill: none"/>
   </g>
   <g id="matplotlib.axis_1">
    <g id="xtick_1">
     <g id="line2d_1">
      <path d="M 77.643665 279.010828 
L 77.643665 12.898828 
" clip-path="url(#p3c3110dc2b)" style="fill: none; stroke: #b0b0b0; stroke-width: 0.8; stroke-linecap: square"/>
     </g>
     <g id="line2d_2">
      <defs>
       <path id="md39032bed2" d="M 0 0 
L 0 3.5 
" style="stroke: #000000; stroke-width: 0.8"/>
      </defs>
      <g>
       <use xlink:href="#md39032bed2" x="77.643665" y="279.010828" style="stroke: #000000; stroke-width: 0.8"/>
      </g>
     </g>
     <g id="text_1">
      <!-- 0.0 -->
      <g transform="translate(65.716321 297.408484) scale(0.15 -0.15)">
       <defs>
        <path id="DejaVuSans-30" d="M 2034 4250 
Q 1547 4250 1301 3770 
Q 1056 3291 1056 2328 
Q 1056 1369 1301 889 
Q 1547 409 2034 409 
Q 2525 409 2770 889 
Q 3016 1369 3016 2328 
Q 3016 3291 2770 3770 
Q 2525 4250 2034 4250 
z
M 2034 4750 
Q 2819 4750 3233 4129 
Q 3647 3509 3647 2328 
Q 3647 1150 3233 529 
Q 2819 -91 2034 -91 
Q 1250 -91 836 529 
Q 422 1150 422 2328 
Q 422 3509 836 4129 
Q 1250 4750 2034 4750 
z
" transform="scale(0.015625)"/>
        <path id="DejaVuSans-2e" d="M 684 794 
L 1344 794 
L 1344 0 
L 684 0 
L 684 794 
z
" transform="scale(0.015625)"/>
       </defs>
       <use xlink:href="#DejaVuSans-30"/>
       <use xlink:href="#DejaVuSans-2e" x="63.623047"/>
       <use xlink:href="#DejaVuSans-30" x="95.410156"/>
      </g>
     </g>
    </g>
    <g id="xtick_2">
     <g id="line2d_3">
      <path d="M 158.807301 279.010828 
L 158.807301 12.898828 
" clip-path="url(#p3c3110dc2b)" style="fill: none; stroke: #b0b0b0; stroke-width: 0.8; stroke-linecap: square"/>
     </g>
     <g id="line2d_4">
      <g>
       <use xlink:href="#md39032bed2" x="158.807301" y="279.010828" style="stroke: #000000; stroke-width: 0.8"/>
      </g>
     </g>
     <g id="text_2">
      <!-- 0.5 -->
      <g transform="translate(146.879957 297.408484) scale(0.15 -0.15)">
       <defs>
        <path id="DejaVuSans-35" d="M 691 4666 
L 3169 4666 
L 3169 4134 
L 1269 4134 
L 1269 2991 
Q 1406 3038 1543 3061 
Q 1681 3084 1819 3084 
Q 2600 3084 3056 2656 
Q 3513 2228 3513 1497 
Q 3513 744 3044 326 
Q 2575 -91 1722 -91 
Q 1428 -91 1123 -41 
Q 819 9 494 109 
L 494 744 
Q 775 591 1075 516 
Q 1375 441 1709 441 
Q 2250 441 2565 725 
Q 2881 1009 2881 1497 
Q 2881 1984 2565 2268 
Q 2250 2553 1709 2553 
Q 1456 2553 1204 2497 
Q 953 2441 691 2322 
L 691 4666 
z
" transform="scale(0.015625)"/>
       </defs>
       <use xlink:href="#DejaVuSans-30"/>
       <use xlink:href="#DejaVuSans-2e" x="63.623047"/>
       <use xlink:href="#DejaVuSans-35" x="95.410156"/>
      </g>
     </g>
    </g>
    <g id="xtick_3">
     <g id="line2d_5">
      <path d="M 239.970938 279.010828 
L 239.970938 12.898828 
" clip-path="url(#p3c3110dc2b)" style="fill: none; stroke: #b0b0b0; stroke-width: 0.8; stroke-linecap: square"/>
     </g>
     <g id="line2d_6">
      <g>
       <use xlink:href="#md39032bed2" x="239.970938" y="279.010828" style="stroke: #000000; stroke-width: 0.8"/>
      </g>
     </g>
     <g id="text_3">
      <!-- 1.0 -->
      <g transform="translate(228.043594 297.408484) scale(0.15 -0.15)">
       <defs>
        <path id="DejaVuSans-31" d="M 794 531 
L 1825 531 
L 1825 4091 
L 703 3866 
L 703 4441 
L 1819 4666 
L 2450 4666 
L 2450 531 
L 3481 531 
L 3481 0 
L 794 0 
L 794 531 
z
" transform="scale(0.015625)"/>
       </defs>
       <use xlink:href="#DejaVuSans-31"/>
       <use xlink:href="#DejaVuSans-2e" x="63.623047"/>
       <use xlink:href="#DejaVuSans-30" x="95.410156"/>
      </g>
     </g>
    </g>
    <g id="xtick_4">
     <g id="line2d_7">
      <path d="M 321.134574 279.010828 
L 321.134574 12.898828 
" clip-path="url(#p3c3110dc2b)" style="fill: none; stroke: #b0b0b0; stroke-width: 0.8; stroke-linecap: square"/>
     </g>
     <g id="line2d_8">
      <g>
       <use xlink:href="#md39032bed2" x="321.134574" y="279.010828" style="stroke: #000000; stroke-width: 0.8"/>
      </g>
     </g>
     <g id="text_4">
      <!-- 1.5 -->
      <g transform="translate(309.20723 297.408484) scale(0.15 -0.15)">
       <use xlink:href="#DejaVuSans-31"/>
       <use xlink:href="#DejaVuSans-2e" x="63.623047"/>
       <use xlink:href="#DejaVuSans-35" x="95.410156"/>
      </g>
     </g>
    </g>
    <g id="xtick_5">
     <g id="line2d_9">
      <path d="M 402.29821 279.010828 
L 402.29821 12.898828 
" clip-path="url(#p3c3110dc2b)" style="fill: none; stroke: #b0b0b0; stroke-width: 0.8; stroke-linecap: square"/>
     </g>
     <g id="line2d_10">
      <g>
       <use xlink:href="#md39032bed2" x="402.29821" y="279.010828" style="stroke: #000000; stroke-width: 0.8"/>
      </g>
     </g>
     <g id="text_5">
      <!-- 2.0 -->
      <g transform="translate(390.370866 297.408484) scale(0.15 -0.15)">
       <defs>
        <path id="DejaVuSans-32" d="M 1228 531 
L 3431 531 
L 3431 0 
L 469 0 
L 469 531 
Q 828 903 1448 1529 
Q 2069 2156 2228 2338 
Q 2531 2678 2651 2914 
Q 2772 3150 2772 3378 
Q 2772 3750 2511 3984 
Q 2250 4219 1831 4219 
Q 1534 4219 1204 4116 
Q 875 4013 500 3803 
L 500 4441 
Q 881 4594 1212 4672 
Q 1544 4750 1819 4750 
Q 2544 4750 2975 4387 
Q 3406 4025 3406 3419 
Q 3406 3131 3298 2873 
Q 3191 2616 2906 2266 
Q 2828 2175 2409 1742 
Q 1991 1309 1228 531 
z
" transform="scale(0.015625)"/>
       </defs>
       <use xlink:href="#DejaVuSans-32"/>
       <use xlink:href="#DejaVuSans-2e" x="63.623047"/>
       <use xlink:href="#DejaVuSans-30" x="95.410156"/>
      </g>
     </g>
    </g>
    <g id="text_6">
     <!-- t -->
     <g transform="translate(236.050625 319.724891) scale(0.2 -0.2)">
      <defs>
       <path id="DejaVuSans-74" d="M 1172 4494 
L 1172 3500 
L 2356 3500 
L 2356 3053 
L 1172 3053 
L 1172 1153 
Q 1172 725 1289 603 
Q 1406 481 1766 481 
L 2356 481 
L 2356 0 
L 1766 0 
Q 1100 0 847 248 
Q 594 497 594 1153 
L 594 3053 
L 172 3053 
L 172 3500 
L 594 3500 
L 594 4494 
L 1172 4494 
z
" transform="scale(0.015625)"/>
      </defs>
      <use xlink:href="#DejaVuSans-74"/>
     </g>
    </g>
   </g>
   <g id="matplotlib.axis_2">
    <g id="ytick_1">
     <g id="line2d_11">
      <path d="M 61.410938 279.010828 
L 418.530938 279.010828 
" clip-path="url(#p3c3110dc2b)" style="fill: none; stroke: #b0b0b0; stroke-width: 0.8; stroke-linecap: square"/>
     </g>
     <g id="line2d_12">
      <defs>
       <path id="m6f3f5b6aff" d="M 0 0 
L -3.5 0 
" style="stroke: #000000; stroke-width: 0.8"/>
      </defs>
      <g>
       <use xlink:href="#m6f3f5b6aff" x="61.410938" y="279.010828" style="stroke: #000000; stroke-width: 0.8"/>
      </g>
     </g>
     <g id="text_7">
      <!-- 0.0 -->
      <g transform="translate(30.55625 284.709656) scale(0.15 -0.15)">
       <use xlink:href="#DejaVuSans-30"/>
       <use xlink:href="#DejaVuSans-2e" x="63.623047"/>
       <use xlink:href="#DejaVuSans-30" x="95.410156"/>
      </g>
     </g>
    </g>
    <g id="ytick_2">
     <g id="line2d_13">
      <path d="M 61.410938 225.788428 
L 418.530938 225.788428 
" clip-path="url(#p3c3110dc2b)" style="fill: none; stroke: #b0b0b0; stroke-width: 0.8; stroke-linecap: square"/>
     </g>
     <g id="line2d_14">
      <g>
       <use xlink:href="#m6f3f5b6aff" x="61.410938" y="225.788428" style="stroke: #000000; stroke-width: 0.8"/>
      </g>
     </g>
     <g id="text_8">
      <!-- 0.2 -->
      <g transform="translate(30.55625 231.487256) scale(0.15 -0.15)">
       <use xlink:href="#DejaVuSans-30"/>
       <use xlink:href="#DejaVuSans-2e" x="63.623047"/>
       <use xlink:href="#DejaVuSans-32" x="95.410156"/>
      </g>
     </g>
    </g>
    <g id="ytick_3">
     <g id="line2d_15">
      <path d="M 61.410938 172.566028 
L 418.530938 172.566028 
" clip-path="url(#p3c3110dc2b)" style="fill: none; stroke: #b0b0b0; stroke-width: 0.8; stroke-linecap: square"/>
     </g>
     <g id="line2d_16">
      <g>
       <use xlink:href="#m6f3f5b6aff" x="61.410938" y="172.566028" style="stroke: #000000; stroke-width: 0.8"/>
      </g>
     </g>
     <g id="text_9">
      <!-- 0.4 -->
      <g transform="translate(30.55625 178.264856) scale(0.15 -0.15)">
       <defs>
        <path id="DejaVuSans-34" d="M 2419 4116 
L 825 1625 
L 2419 1625 
L 2419 4116 
z
M 2253 4666 
L 3047 4666 
L 3047 1625 
L 3713 1625 
L 3713 1100 
L 3047 1100 
L 3047 0 
L 2419 0 
L 2419 1100 
L 313 1100 
L 313 1709 
L 2253 4666 
z
" transform="scale(0.015625)"/>
       </defs>
       <use xlink:href="#DejaVuSans-30"/>
       <use xlink:href="#DejaVuSans-2e" x="63.623047"/>
       <use xlink:href="#DejaVuSans-34" x="95.410156"/>
      </g>
     </g>
    </g>
    <g id="ytick_4">
     <g id="line2d_17">
      <path d="M 61.410938 119.343628 
L 418.530938 119.343628 
" clip-path="url(#p3c3110dc2b)" style="fill: none; stroke: #b0b0b0; stroke-width: 0.8; stroke-linecap: square"/>
     </g>
     <g id="line2d_18">
      <g>
       <use xlink:href="#m6f3f5b6aff" x="61.410938" y="119.343628" style="stroke: #000000; stroke-width: 0.8"/>
      </g>
     </g>
     <g id="text_10">
      <!-- 0.6 -->
      <g transform="translate(30.55625 125.042456) scale(0.15 -0.15)">
       <defs>
        <path id="DejaVuSans-36" d="M 2113 2584 
Q 1688 2584 1439 2293 
Q 1191 2003 1191 1497 
Q 1191 994 1439 701 
Q 1688 409 2113 409 
Q 2538 409 2786 701 
Q 3034 994 3034 1497 
Q 3034 2003 2786 2293 
Q 2538 2584 2113 2584 
z
M 3366 4563 
L 3366 3988 
Q 3128 4100 2886 4159 
Q 2644 4219 2406 4219 
Q 1781 4219 1451 3797 
Q 1122 3375 1075 2522 
Q 1259 2794 1537 2939 
Q 1816 3084 2150 3084 
Q 2853 3084 3261 2657 
Q 3669 2231 3669 1497 
Q 3669 778 3244 343 
Q 2819 -91 2113 -91 
Q 1303 -91 875 529 
Q 447 1150 447 2328 
Q 447 3434 972 4092 
Q 1497 4750 2381 4750 
Q 2619 4750 2861 4703 
Q 3103 4656 3366 4563 
z
" transform="scale(0.015625)"/>
       </defs>
       <use xlink:href="#DejaVuSans-30"/>
       <use xlink:href="#DejaVuSans-2e" x="63.623047"/>
       <use xlink:href="#DejaVuSans-36" x="95.410156"/>
      </g>
     </g>
    </g>
    <g id="ytick_5">
     <g id="line2d_19">
      <path d="M 61.410938 66.121228 
L 418.530938 66.121228 
" clip-path="url(#p3c3110dc2b)" style="fill: none; stroke: #b0b0b0; stroke-width: 0.8; stroke-linecap: square"/>
     </g>
     <g id="line2d_20">
      <g>
       <use xlink:href="#m6f3f5b6aff" x="61.410938" y="66.121228" style="stroke: #000000; stroke-width: 0.8"/>
      </g>
     </g>
     <g id="text_11">
      <!-- 0.8 -->
      <g transform="translate(30.55625 71.820056) scale(0.15 -0.15)">
       <defs>
        <path id="DejaVuSans-38" d="M 2034 2216 
Q 1584 2216 1326 1975 
Q 1069 1734 1069 1313 
Q 1069 891 1326 650 
Q 1584 409 2034 409 
Q 2484 409 2743 651 
Q 3003 894 3003 1313 
Q 3003 1734 2745 1975 
Q 2488 2216 2034 2216 
z
M 1403 2484 
Q 997 2584 770 2862 
Q 544 3141 544 3541 
Q 544 4100 942 4425 
Q 1341 4750 2034 4750 
Q 2731 4750 3128 4425 
Q 3525 4100 3525 3541 
Q 3525 3141 3298 2862 
Q 3072 2584 2669 2484 
Q 3125 2378 3379 2068 
Q 3634 1759 3634 1313 
Q 3634 634 3220 271 
Q 2806 -91 2034 -91 
Q 1263 -91 848 271 
Q 434 634 434 1313 
Q 434 1759 690 2068 
Q 947 2378 1403 2484 
z
M 1172 3481 
Q 1172 3119 1398 2916 
Q 1625 2713 2034 2713 
Q 2441 2713 2670 2916 
Q 2900 3119 2900 3481 
Q 2900 3844 2670 4047 
Q 2441 4250 2034 4250 
Q 1625 4250 1398 4047 
Q 1172 3844 1172 3481 
z
" transform="scale(0.015625)"/>
       </defs>
       <use xlink:href="#DejaVuSans-30"/>
       <use xlink:href="#DejaVuSans-2e" x="63.623047"/>
       <use xlink:href="#DejaVuSans-38" x="95.410156"/>
      </g>
     </g>
    </g>
    <g id="ytick_6">
     <g id="line2d_21">
      <path d="M 61.410938 12.898828 
L 418.530938 12.898828 
" clip-path="url(#p3c3110dc2b)" style="fill: none; stroke: #b0b0b0; stroke-width: 0.8; stroke-linecap: square"/>
     </g>
     <g id="line2d_22">
      <g>
       <use xlink:href="#m6f3f5b6aff" x="61.410938" y="12.898828" style="stroke: #000000; stroke-width: 0.8"/>
      </g>
     </g>
     <g id="text_12">
      <!-- 1.0 -->
      <g transform="translate(30.55625 18.597656) scale(0.15 -0.15)">
       <use xlink:href="#DejaVuSans-31"/>
       <use xlink:href="#DejaVuSans-2e" x="63.623047"/>
       <use xlink:href="#DejaVuSans-30" x="95.410156"/>
      </g>
     </g>
    </g>
    <g id="text_13">
     <!-- p -->
     <g transform="translate(22.396875 152.303266) rotate(-90) scale(0.2 -0.2)">
      <defs>
       <path id="DejaVuSans-70" d="M 1159 525 
L 1159 -1331 
L 581 -1331 
L 581 3500 
L 1159 3500 
L 1159 2969 
Q 1341 3281 1617 3432 
Q 1894 3584 2278 3584 
Q 2916 3584 3314 3078 
Q 3713 2572 3713 1747 
Q 3713 922 3314 415 
Q 2916 -91 2278 -91 
Q 1894 -91 1617 61 
Q 1341 213 1159 525 
z
M 3116 1747 
Q 3116 2381 2855 2742 
Q 2594 3103 2138 3103 
Q 1681 3103 1420 2742 
Q 1159 2381 1159 1747 
Q 1159 1113 1420 752 
Q 1681 391 2138 391 
Q 2594 391 2855 752 
Q 3116 1113 3116 1747 
z
" transform="scale(0.015625)"/>
      </defs>
      <use xlink:href="#DejaVuSans-70"/>
     </g>
    </g>
   </g>
   <g id="line2d_23">
    <path d="M 77.643665 279.010828 
L 77.838458 278.878386 
L 78.098181 278.331436 
L 78.552698 276.702556 
L 79.364334 273.806372 
L 79.753919 273.154905 
L 80.046108 273.034746 
L 80.370763 273.174219 
L 81.442123 273.840223 
L 81.766778 273.688216 
L 82.188828 273.190018 
L 83.974428 270.676535 
L 84.623738 270.401393 
L 85.53277 270.013718 
L 86.214545 269.436172 
L 88.259868 267.513234 
L 90.564916 265.809841 
L 92.707636 264.095474 
L 97.480058 260.464442 
L 106.343127 253.984979 
L 113.972508 248.70487 
L 121.829148 243.53733 
L 129.81565 238.5507 
L 137.964479 233.725274 
L 146.275636 229.062663 
L 154.749119 224.56389 
L 163.417396 220.21358 
L 172.280465 216.014332 
L 181.370792 211.953965 
L 190.688378 208.036189 
L 200.265687 204.251448 
L 210.102719 200.604141 
L 220.231941 197.086808 
L 230.653352 193.704136 
L 241.399417 190.450271 
L 252.502603 187.321001 
L 263.995374 184.313532 
L 275.910196 181.426256 
L 288.279534 178.658534 
L 301.168319 176.004077 
L 314.576552 173.47104 
L 328.569163 171.055006 
L 343.211083 168.753676 
L 358.567243 166.56643 
L 374.735039 164.489952 
L 391.779403 162.526983 
L 402.29821 161.420745 
L 402.29821 161.420745 
" clip-path="url(#p3c3110dc2b)" style="fill: none; stroke: #1f77b4; stroke-width: 1.5; stroke-linecap: square"/>
   </g>
   <g id="line2d_24">
    <path d="M 77.643665 279.010828 
L 77.805992 278.916785 
L 78.03325 278.48289 
L 78.39037 277.227851 
L 79.396799 273.382654 
L 79.656523 273.155202 
L 79.851316 273.298853 
L 80.111039 273.884301 
L 80.53309 275.533691 
L 81.312261 278.594756 
L 81.60445 279.000944 
L 81.799243 278.938474 
L 82.026501 278.534301 
L 82.383621 277.31179 
L 83.422516 273.361137 
L 83.682239 273.156311 
L 83.877032 273.317019 
L 84.136756 273.92235 
L 84.591272 275.737035 
L 85.305512 278.546345 
L 85.597701 278.991972 
L 85.792494 278.957354 
L 86.019752 278.5833 
L 86.344407 277.52582 
L 87.513163 273.250707 
L 87.740421 273.169541 
L 87.935214 273.391295 
L 88.227403 274.17692 
L 88.779316 276.535484 
L 89.331228 278.576678 
L 89.623418 278.997878 
L 89.81821 278.945968 
L 90.045468 278.553176 
L 90.402588 277.343322 
L 91.473948 273.321205 
L 91.701207 273.155501 
L 91.895999 273.30579 
L 92.155723 273.898994 
L 92.577774 275.555467 
L 93.356945 278.606067 
L 93.649134 279.00268 
L 93.843927 278.933497 
L 94.071185 278.522116 
L 94.428305 277.291647 
L 95.467199 273.353051 
L 95.694457 273.155352 
L 95.856785 273.239034 
L 96.084043 273.659652 
L 96.441163 274.900255 
L 97.480058 278.823011 
L 97.707316 279.010801 
L 97.869643 278.919947 
L 98.096901 278.490132 
L 98.454021 277.239513 
L 99.46045 273.387582 
L 99.720174 273.155106 
L 99.882501 273.253123 
L 100.109759 273.692094 
L 100.466879 274.95261 
L 101.473308 278.78931 
L 101.733032 279.010493 
L 101.927825 278.862103 
L 102.187548 278.271116 
L 102.609599 276.61666 
L 103.38877 273.563047 
L 103.680959 273.163691 
L 103.875752 273.230952 
L 104.10301 273.640273 
L 104.46013 274.868472 
L 105.499025 278.810541 
L 105.726283 279.010443 
L 105.88861 278.928358 
L 106.115868 278.509792 
L 106.472988 277.271434 
L 107.511883 273.345121 
L 107.739141 273.155125 
L 107.901468 273.244383 
L 108.128727 273.672155 
L 108.485847 274.920555 
L 109.492276 278.775826 
L 109.751999 279.010813 
L 109.914327 278.914389 
L 110.141585 278.477451 
L 110.498705 277.219128 
L 111.505134 273.379007 
L 111.764858 273.155309 
L 111.95965 273.301799 
L 112.219374 273.890567 
L 112.641425 275.542997 
L 113.420596 278.599609 
L 113.712785 279.001707 
L 113.907578 278.936366 
L 114.134836 278.529108 
L 114.491956 277.303186 
L 115.53085 273.357661 
L 115.790574 273.156603 
L 115.985367 273.32014 
L 116.24509 273.928754 
L 116.699607 275.746443 
L 117.413847 278.551451 
L 117.706036 278.99303 
L 117.900828 278.955537 
L 118.128087 278.578359 
L 118.452741 277.517571 
L 119.589032 273.289226 
L 119.81629 273.159005 
L 120.011083 273.339528 
L 120.270807 273.967756 
L 120.725323 275.803116 
L 121.439563 278.581629 
L 121.731752 278.998752 
L 121.926545 278.943971 
L 122.153803 278.548079 
L 122.510923 277.334766 
L 123.582283 273.318074 
L 123.809541 273.15568 
L 124.004334 273.308804 
L 124.264058 273.905314 
L 124.686108 275.564787 
L 125.465279 278.610859 
L 125.757468 279.00337 
L 125.952261 278.93132 
L 126.179519 278.516864 
L 126.536639 277.283013 
L 127.575534 273.349641 
L 127.802792 273.155235 
L 127.965119 273.241301 
L 128.192378 273.664981 
L 128.549498 274.908926 
L 129.555927 278.770823 
L 129.81565 279.010826 
L 129.977978 278.91759 
L 130.205236 278.484727 
L 130.562356 277.230806 
L 131.568785 273.383897 
L 131.828508 273.155172 
L 132.023301 273.297861 
L 132.283025 273.882182 
L 132.705076 275.530537 
L 133.484247 278.593105 
L 133.776436 279.000679 
L 133.971228 278.939181 
L 134.198487 278.536055 
L 134.555607 277.314703 
L 135.594501 273.362322 
L 135.854225 273.156219 
L 136.049018 273.315968 
L 136.308741 273.920185 
L 136.730792 275.586606 
L 137.509963 278.621964 
L 137.802152 279.004867 
L 137.964479 278.957963 
L 138.191738 278.584969 
L 138.516392 277.528613 
L 139.685148 273.251523 
L 139.912407 273.169224 
L 140.107199 273.390033 
L 140.399388 274.174485 
L 140.951301 276.532312 
L 141.503214 278.574995 
L 141.795403 278.997574 
L 141.990196 278.946639 
L 142.217454 278.554898 
L 142.574574 277.346219 
L 143.645934 273.322273 
L 143.873192 273.155447 
L 144.067985 273.304775 
L 144.327708 273.896857 
L 144.749759 275.552309 
L 145.52893 278.604437 
L 145.821119 279.002438 
L 146.015912 278.934229 
L 146.24317 278.52389 
L 146.60029 277.29457 
L 147.639185 273.354213 
L 147.866443 273.155399 
L 148.02877 273.238273 
L 148.256028 273.657852 
L 148.613148 274.897319 
L 149.652043 278.821878 
L 149.879301 279.010785 
L 150.041628 278.920739 
L 150.268887 278.491958 
L 150.626007 277.242462 
L 151.632436 273.388837 
L 151.892159 273.15509 
L 152.054487 273.252301 
L 152.281745 273.690242 
L 152.638865 274.949649 
L 153.645294 278.788083 
L 153.905018 279.01054 
L 154.09981 278.863112 
L 154.359534 278.273248 
L 154.781585 276.619817 
L 155.560756 273.564683 
L 155.852945 273.163939 
L 156.047738 273.230228 
L 156.274996 273.638504 
L 156.632116 274.865551 
L 157.67101 278.809373 
L 157.930734 279.009185 
L 158.125527 278.844713 
L 158.38525 278.235016 
L 158.839767 276.416338 
L 159.554007 273.612758 
L 159.846196 273.172518 
L 160.040988 273.210961 
L 160.268247 273.589171 
L 160.592901 274.65105 
L 161.729192 278.8776 
L 161.95645 279.006722 
L 162.151243 278.825267 
L 162.410967 278.195969 
L 162.865483 276.359659 
L 163.579723 273.582632 
L 163.871912 273.166856 
L 164.066705 273.222587 
L 164.293963 273.619503 
L 164.651083 274.833956 
L 165.722443 278.848845 
L 165.949701 279.010145 
L 166.144494 278.856084 
L 166.404218 278.258483 
L 166.826268 276.598023 
L 167.605439 273.553454 
L 167.897628 273.162299 
L 168.092421 273.235297 
L 168.319679 273.650769 
L 168.676799 274.885734 
L 169.715694 278.81737 
L 169.942952 279.010689 
L 170.105279 278.923834 
L 170.332538 278.499143 
L 170.689658 277.254096 
L 171.696087 273.393829 
L 171.95581 273.155063 
L 172.118137 273.249086 
L 172.345396 273.682956 
L 172.702516 274.937966 
L 173.708945 278.783206 
L 173.968668 279.01069 
L 174.163461 278.867063 
L 174.423185 278.281643 
L 174.845236 276.632279 
L 175.624407 273.571176 
L 175.916596 273.164953 
L 176.111388 273.227399 
L 176.338647 273.631547 
L 176.695767 274.854028 
L 177.734661 278.804724 
L 177.994385 279.009583 
L 178.189177 278.848898 
L 178.448901 278.243595 
L 178.870952 276.5762 
L 179.650123 273.542369 
L 179.942312 273.160826 
L 180.104639 273.208521 
L 180.331898 273.582549 
L 180.656552 274.640001 
L 181.825308 278.915164 
L 182.052567 278.996358 
L 182.247359 278.774627 
L 182.539548 277.989031 
L 183.091461 275.630486 
L 183.643374 273.589254 
L 183.935563 273.168021 
L 184.130356 273.219906 
L 184.357614 273.612672 
L 184.714734 274.822497 
L 185.786094 278.84466 
L 186.013352 279.010391 
L 186.208145 278.860127 
L 186.467868 278.266951 
L 186.889919 276.610503 
L 187.66909 273.559864 
L 187.961279 273.163217 
L 188.156072 273.232375 
L 188.38333 273.643731 
L 188.74045 274.874172 
L 189.779345 278.812811 
L 190.006603 279.010537 
L 190.16893 278.926876 
L 190.396188 278.506283 
L 190.753308 277.265709 
L 191.792203 273.342908 
L 192.019461 273.155091 
L 192.181788 273.245925 
L 192.409047 273.675714 
L 192.766167 274.926304 
L 193.772596 278.778278 
L 194.032319 279.010786 
L 194.194647 278.912788 
L 194.421905 278.473843 
L 194.779025 277.213355 
L 195.785454 273.376612 
L 196.045178 273.155397 
L 196.23997 273.303763 
L 196.499694 273.894722 
L 196.921745 275.549152 
L 197.700916 278.602804 
L 197.993105 279.002194 
L 198.187898 278.934957 
L 198.415156 278.525662 
L 198.772276 277.297492 
L 199.81117 273.355379 
L 200.038428 273.15545 
L 200.200756 273.237514 
L 200.428014 273.656055 
L 200.785134 274.894384 
L 201.824028 278.820742 
L 202.051287 279.010766 
L 202.213614 278.921527 
L 202.440872 278.493781 
L 202.797992 277.245409 
L 203.804421 273.390096 
L 204.064145 273.155078 
L 204.226472 273.251482 
L 204.45373 273.688394 
L 204.81085 274.94669 
L 205.817279 278.786853 
L 206.077003 279.010583 
L 206.271796 278.864117 
L 206.531519 278.275377 
L 206.95357 276.622972 
L 207.732741 273.566322 
L 208.02493 273.164191 
L 208.219723 273.229507 
L 208.446981 273.636739 
L 208.804101 274.862632 
L 209.842996 278.808201 
L 210.102719 279.009291 
L 210.297512 278.845777 
L 210.557236 278.237191 
L 211.011752 276.419528 
L 211.725992 273.614483 
L 212.018181 273.17287 
L 212.212974 273.210338 
L 212.440232 273.58749 
L 212.764887 274.648251 
L 213.901178 278.876641 
L 214.128436 279.00689 
L 214.323228 278.82639 
L 214.582952 278.19819 
L 215.037468 276.362855 
L 215.751708 273.584304 
L 216.043898 273.167146 
L 216.23869 273.221903 
L 216.465948 273.617769 
L 216.823068 274.831053 
L 217.894428 278.847791 
L 218.121687 279.010213 
L 218.316479 278.857112 
L 218.576203 278.260631 
L 218.998254 276.601183 
L 219.777425 273.555072 
L 220.069614 273.162526 
L 220.264407 273.234552 
L 220.491665 273.648983 
L 220.848785 274.882805 
L 221.887679 278.816221 
L 222.114938 279.010656 
L 222.277265 278.924609 
L 222.504523 278.500955 
L 222.861643 277.257038 
L 223.868072 273.3951 
L 224.127796 273.155065 
L 224.290123 273.248281 
L 224.517381 273.681118 
L 224.874501 274.935012 
L 225.88093 278.781963 
L 226.140654 279.01072 
L 226.335447 278.868055 
L 226.59517 278.283762 
L 227.017221 276.635432 
L 227.796392 273.572828 
L 228.088581 273.165219 
L 228.283374 273.226692 
L 228.510632 273.629793 
L 228.867752 274.851115 
L 229.906647 278.803539 
L 230.16637 279.009674 
L 230.361163 278.849949 
L 230.620887 278.24576 
L 231.042938 276.579364 
L 231.822108 273.543967 
L 232.114298 273.161029 
L 232.276625 273.207912 
L 232.503883 273.58088 
L 232.828538 274.637209 
L 233.997294 278.914348 
L 234.224552 278.996675 
L 234.419345 278.775889 
L 234.711534 277.991467 
L 235.263447 275.633658 
L 235.815359 273.590938 
L 236.107548 273.168324 
L 236.302341 273.219236 
L 236.529599 273.61095 
L 236.886719 274.8196 
L 237.958079 278.843592 
L 238.185338 279.010445 
L 238.38013 278.861142 
L 238.639854 278.269088 
L 239.061905 276.61366 
L 239.841076 273.561495 
L 240.133265 273.163459 
L 240.328058 273.231644 
L 240.555316 273.641956 
L 240.912436 274.871248 
L 241.95133 278.811649 
L 242.178588 279.01049 
L 242.340916 278.927637 
L 242.568174 278.508084 
L 242.925294 277.268645 
L 243.964188 273.344041 
L 244.191447 273.155106 
L 244.353774 273.245133 
L 244.581032 273.673888 
L 244.938152 274.923356 
L 245.944581 278.777022 
L 246.204305 279.010801 
L 246.366632 278.913611 
L 246.59389 278.475695 
L 246.95101 277.216315 
L 247.957439 273.377838 
L 248.217163 273.15535 
L 248.411956 273.302754 
L 248.671679 273.89259 
L 249.09373 275.545996 
L 249.872901 278.601167 
L 250.16509 279.001946 
L 250.359883 278.935681 
L 250.587141 278.52743 
L 250.944261 277.300413 
L 251.983156 273.356547 
L 252.242879 273.156703 
L 252.437672 273.321152 
L 252.697396 273.930821 
L 253.151912 275.749473 
L 253.866152 278.55309 
L 254.158341 278.993364 
L 254.353134 278.954946 
L 254.580392 278.576762 
L 254.905047 277.514911 
L 256.041338 273.288315 
L 256.268596 273.159165 
L 256.463388 273.340596 
L 256.723112 273.969867 
L 257.177628 275.806153 
L 257.891868 278.583217 
L 258.184057 278.999028 
L 258.37885 278.943321 
L 258.606108 278.546431 
L 258.963228 277.332008 
L 260.034588 273.317072 
L 260.261847 273.155744 
L 260.456639 273.309781 
L 260.716363 273.907354 
L 261.138414 275.567789 
L 261.917585 278.612397 
L 262.209774 279.003586 
L 262.404567 278.930612 
L 262.631825 278.515167 
L 262.988945 277.28023 
L 264.027839 273.348549 
L 264.255098 273.155203 
L 264.417425 273.242038 
L 264.644683 273.666703 
L 265.001803 274.911721 
L 266.008232 278.772031 
L 266.267956 279.010828 
L 266.430283 278.916825 
L 266.657541 278.482981 
L 267.014661 277.227998 
L 268.02109 273.382716 
L 268.280814 273.1552 
L 268.475607 273.298803 
L 268.73533 273.884195 
L 269.157381 275.533534 
L 269.936552 278.594674 
L 270.228741 279.000931 
L 270.423534 278.938509 
L 270.650792 278.534388 
L 271.007912 277.311935 
L 272.046807 273.361196 
L 272.30653 273.156306 
L 272.501323 273.316967 
L 272.761047 273.922242 
L 273.183098 275.589613 
L 273.962268 278.623482 
L 274.254458 279.00506 
L 274.416785 278.957385 
L 274.644043 278.583384 
L 274.968698 277.525959 
L 276.137454 273.250748 
L 276.364712 273.169525 
L 276.559505 273.391232 
L 276.851694 274.176799 
L 277.403607 276.535326 
L 277.955519 278.576595 
L 278.247708 278.997863 
L 278.442501 278.946002 
L 278.669759 278.553262 
L 279.026879 277.343466 
L 280.098239 273.321258 
L 280.325497 273.155498 
L 280.52029 273.305739 
L 280.780014 273.898887 
L 281.202065 275.55531 
L 281.981236 278.605986 
L 282.273425 279.002668 
L 282.468218 278.933534 
L 282.695476 278.522204 
L 283.052596 277.291792 
L 284.09149 273.353109 
L 284.318748 273.155355 
L 284.481076 273.238996 
L 284.708334 273.659563 
L 285.065454 274.900109 
L 286.104348 278.822955 
L 286.331607 279.0108 
L 286.493934 278.919986 
L 286.721192 278.490223 
L 287.078312 277.23966 
L 288.084741 273.387644 
L 288.344465 273.155105 
L 288.506792 273.253082 
L 288.73405 273.692002 
L 289.09117 274.952463 
L 290.097599 278.789249 
L 290.357323 279.010495 
L 290.552116 278.862153 
L 290.811839 278.271222 
L 291.23389 276.616817 
L 292.013061 273.563128 
L 292.30525 273.163703 
L 292.500043 273.230916 
L 292.727301 273.640185 
L 293.084421 274.868326 
L 294.123316 278.810483 
L 294.350574 279.01044 
L 294.512901 278.928396 
L 294.740159 278.509881 
L 295.097279 277.27158 
L 296.136174 273.345177 
L 296.363432 273.155126 
L 296.525759 273.244344 
L 296.753018 273.672065 
L 297.110138 274.920408 
L 298.116567 278.775763 
L 298.37629 279.010813 
L 298.538617 278.914429 
L 298.765876 278.477543 
L 299.122996 277.219275 
L 300.129425 273.379068 
L 300.389148 273.155307 
L 300.583941 273.301749 
L 300.843665 273.890461 
L 301.265716 275.54284 
L 302.044887 278.599528 
L 302.337076 279.001694 
L 302.531868 278.936402 
L 302.759127 278.529196 
L 303.116247 277.303332 
L 304.155141 273.357719 
L 304.414865 273.156597 
L 304.609658 273.320088 
L 304.869381 273.928645 
L 305.323898 275.746284 
L 306.038138 278.551365 
L 306.330327 278.993012 
L 306.525119 278.955568 
L 306.752378 278.578443 
L 307.077032 277.51771 
L 308.213323 273.289274 
L 308.440581 273.158997 
L 308.635374 273.339473 
L 308.895098 273.967646 
L 309.349614 275.802957 
L 310.063854 278.581545 
L 310.356043 278.998738 
L 310.550836 278.944005 
L 310.778094 278.548165 
L 311.135214 277.334911 
L 312.206574 273.318127 
L 312.433832 273.155677 
L 312.628625 273.308753 
L 312.888348 273.905207 
L 313.310399 275.564629 
L 314.08957 278.610779 
L 314.381759 279.003359 
L 314.576552 278.931357 
L 314.80381 278.516953 
L 315.16093 277.283159 
L 316.199825 273.349699 
L 316.427083 273.155236 
L 316.58941 273.241263 
L 316.816668 273.664891 
L 317.173788 274.90878 
L 318.180218 278.770759 
L 318.439941 279.010826 
L 318.602268 278.91763 
L 318.829527 278.484818 
L 319.186647 277.230953 
L 320.193076 273.383959 
L 320.452799 273.155171 
L 320.647592 273.297811 
L 320.907316 273.882076 
L 321.329367 275.530381 
L 322.108538 278.593022 
L 322.400727 279.000666 
L 322.595519 278.939217 
L 322.822778 278.536142 
L 323.179898 277.314848 
L 324.218792 273.362381 
L 324.478516 273.156214 
L 324.673308 273.315916 
L 324.933032 273.920077 
L 325.355083 275.586448 
L 326.134254 278.621885 
L 326.426443 279.004857 
L 326.58877 278.957994 
L 326.816028 278.585052 
L 327.140683 277.528752 
L 328.309439 273.251563 
L 328.536698 273.169209 
L 328.73149 273.389971 
L 329.023679 274.174363 
L 329.575592 276.532154 
L 330.127505 278.574911 
L 330.419694 278.997559 
L 330.614487 278.946672 
L 330.841745 278.554984 
L 331.198865 277.346363 
L 332.270225 273.322326 
L 332.497483 273.155445 
L 332.692276 273.304724 
L 332.951999 273.89675 
L 333.37405 275.552152 
L 334.153221 278.604356 
L 334.44541 279.002426 
L 334.640203 278.934265 
L 334.867461 278.523979 
L 335.224581 277.294715 
L 336.263476 273.354271 
L 336.490734 273.155402 
L 336.653061 273.238235 
L 336.880319 273.657763 
L 337.237439 274.897173 
L 338.276334 278.821822 
L 338.503592 279.010784 
L 338.665919 278.920778 
L 338.893178 278.492049 
L 339.250297 277.242609 
L 340.256727 273.3889 
L 340.51645 273.155089 
L 340.678778 273.25226 
L 340.906036 273.69015 
L 341.263156 274.949502 
L 342.269585 278.788022 
L 342.529308 279.010542 
L 342.724101 278.863162 
L 342.983825 278.273354 
L 343.405876 276.619974 
L 344.185047 273.564764 
L 344.477236 273.163952 
L 344.672028 273.230192 
L 344.899287 273.638417 
L 345.256407 274.865406 
L 346.295301 278.809315 
L 346.555025 279.009191 
L 346.749818 278.844766 
L 347.009541 278.235124 
L 347.464058 276.416497 
L 348.178298 273.612843 
L 348.470487 273.172536 
L 348.665279 273.21093 
L 348.892538 273.589087 
L 349.217192 274.650911 
L 350.353483 278.877553 
L 350.580741 279.006731 
L 350.775534 278.825323 
L 351.035258 278.196079 
L 351.489774 276.359818 
L 352.204014 273.582715 
L 352.496203 273.166871 
L 352.690996 273.222553 
L 352.918254 273.619417 
L 353.275374 274.833811 
L 354.346734 278.848793 
L 354.573992 279.010148 
L 354.768785 278.856135 
L 355.028508 278.25859 
L 355.450559 276.59818 
L 356.22973 273.553534 
L 356.521919 273.16231 
L 356.716712 273.23526 
L 356.94397 273.65068 
L 357.30109 274.885588 
L 358.339985 278.817313 
L 358.567243 279.010687 
L 358.72957 278.923873 
L 358.956828 278.499233 
L 359.313948 277.254243 
L 360.320378 273.393892 
L 360.580101 273.155063 
L 360.742428 273.249046 
L 360.969687 273.682864 
L 361.326807 274.937819 
L 362.333236 278.783144 
L 362.592959 279.010692 
L 362.787752 278.867112 
L 363.047476 278.281749 
L 363.469527 276.632436 
L 364.248698 273.571258 
L 364.540887 273.164966 
L 364.735679 273.227364 
L 364.962938 273.631459 
L 365.320058 274.853883 
L 366.358952 278.804665 
L 366.618676 279.009587 
L 366.813468 278.84895 
L 367.073192 278.243703 
L 367.495243 276.576357 
L 368.274414 273.542449 
L 368.566603 273.160836 
L 368.72893 273.208491 
L 368.956188 273.582466 
L 369.280843 274.639862 
L 370.449599 278.915123 
L 370.676858 278.996373 
L 370.87165 278.77469 
L 371.163839 277.989152 
L 371.715752 275.630643 
L 372.267665 273.589338 
L 372.559854 273.168036 
L 372.754647 273.219873 
L 372.981905 273.612586 
L 373.339025 274.822353 
L 374.410385 278.844607 
L 374.637643 279.010394 
L 374.832436 278.860177 
L 375.092159 278.267057 
L 375.51421 276.61066 
L 376.293381 273.559945 
L 376.58557 273.163229 
L 376.780363 273.232339 
L 377.007621 273.643642 
L 377.364741 274.874026 
L 378.403636 278.812753 
L 378.630894 279.010535 
L 378.793221 278.926914 
L 379.020479 278.506373 
L 379.377599 277.265855 
L 380.416494 273.342964 
L 380.643752 273.155091 
L 380.806079 273.245885 
L 381.033338 273.675623 
L 381.390458 274.926158 
L 382.396887 278.778215 
L 382.65661 279.010787 
L 382.818938 278.912829 
L 383.046196 278.473935 
L 383.403316 277.213502 
L 384.409745 273.376673 
L 384.669468 273.155394 
L 384.864261 273.303712 
L 385.123985 273.894616 
L 385.546036 275.548995 
L 386.325207 278.602722 
L 386.617396 279.002182 
L 386.812188 278.934993 
L 387.039447 278.52575 
L 387.396567 277.297637 
L 388.435461 273.355437 
L 388.662719 273.155452 
L 388.825047 273.237477 
L 389.052305 273.655965 
L 389.409425 274.894238 
L 390.448319 278.820685 
L 390.675578 279.010765 
L 390.837905 278.921566 
L 391.065163 278.493872 
L 391.422283 277.245556 
L 392.428712 273.390159 
L 392.688436 273.155077 
L 392.850763 273.251441 
L 393.078021 273.688302 
L 393.435141 274.946542 
L 394.44157 278.786792 
L 394.701294 279.010585 
L 394.896087 278.864167 
L 395.15581 278.275483 
L 395.577861 276.623129 
L 396.357032 273.566404 
L 396.649221 273.164203 
L 396.844014 273.229471 
L 397.071272 273.636651 
L 397.428392 274.862487 
L 398.467287 278.808142 
L 398.72701 279.009296 
L 398.921803 278.84583 
L 399.181527 278.2373 
L 399.636043 276.419686 
L 400.350283 273.614569 
L 400.642472 273.172888 
L 400.837265 273.210307 
L 401.064523 273.587407 
L 401.389178 274.648111 
L 402.29821 278.396355 
L 402.29821 278.396355 
" clip-path="url(#p3c3110dc2b)" style="fill: none; stroke: #ff7f0e; stroke-width: 1.5; stroke-linecap: square"/>
   </g>
   <g id="line2d_25">
    <path d="M 77.643665 279.010828 
L 84.656203 272.802529 
L 91.766137 266.803676 
L 98.973468 261.012136 
L 106.310661 255.401261 
L 113.74525 249.994936 
L 121.309701 244.768191 
L 129.004014 239.721019 
L 136.860654 234.833284 
L 144.879621 230.1072 
L 153.060916 225.544342 
L 161.404538 221.145675 
L 169.942952 216.895886 
L 178.676159 212.797516 
L 187.636625 208.838462 
L 196.824348 205.022363 
L 206.271796 201.339741 
L 215.978967 197.79489 
L 225.978327 194.380415 
L 236.302341 191.090877 
L 246.95101 187.931833 
L 257.989265 184.890393 
L 269.417105 181.973577 
L 281.266996 179.179585 
L 293.603868 176.500797 
L 306.427723 173.944957 
L 319.835956 171.501043 
L 333.861032 169.172723 
L 348.535418 166.963454 
L 363.956508 164.86793 
L 380.221701 162.883776 
L 397.428392 161.010878 
L 402.29821 160.519477 
L 402.29821 160.519477 
" clip-path="url(#p3c3110dc2b)" style="fill: none; stroke-dasharray: 5.55,2.4; stroke-dashoffset: 0; stroke: #2ca02c; stroke-width: 1.5"/>
   </g>
   <g id="patch_3">
    <path d="M 61.410938 279.010828 
L 61.410938 12.898828 
" style="fill: none; stroke: #000000; stroke-width: 0.8; stroke-linejoin: miter; stroke-linecap: square"/>
   </g>
   <g id="patch_4">
    <path d="M 418.530938 279.010828 
L 418.530938 12.898828 
" style="fill: none; stroke: #000000; stroke-width: 0.8; stroke-linejoin: miter; stroke-linecap: square"/>
   </g>
   <g id="patch_5">
    <path d="M 61.410938 279.010828 
L 418.530938 279.010828 
" style="fill: none; stroke: #000000; stroke-width: 0.8; stroke-linejoin: miter; stroke-linecap: square"/>
   </g>
   <g id="patch_6">
    <path d="M 61.410938 12.898828 
L 418.530938 12.898828 
" style="fill: none; stroke: #000000; stroke-width: 0.8; stroke-linejoin: miter; stroke-linecap: square"/>
   </g>
  </g>
 </g>
 <defs>
  <clipPath id="p3c3110dc2b">
   <rect x="61.410938" y="12.898828" width="357.12" height="266.112"/>
  </clipPath>
 </defs>
</svg>
