<?xml version="1.0" encoding="utf-8" standalone="no"?>
<!DOCTYPE svg PUBLIC "-//W3C//DTD SVG 1.1//EN"
  "http://www.w3.org/Graphics/SVG/1.1/DTD/svg11.dtd">
<svg xmlns:xlink="http://www.w3.org/1999/xlink" width="425.730937pt" height="282.696638pt" viewBox="0 0 425.730937 282.696638" xmlns="http://www.w3.org/2000/svg" version="1.1">
 <defs>
  <style type="text/css">*{stroke-linejoin: round; stroke-linecap: butt}</style>
 </defs>
 <g id="figure_1">
  <g id="patch_1">
   <path d="M 0 282.696638 
L 425.730937 282.696638 
L 425.730937 0 
L 0 0 
L 0 282.696638 
z
" style="fill: none"/>
  </g>
  <g id="axes_1">
   <g id="patch_2">
    <path d="M 61.410938 230.6232 
L 418.530938 230.6232 
L 418.530938 7.2 
L 61.410938 7.2 
L 61.410938 230.6232 
z
" style="fill: none"/>
   </g>
   <g id="matplotlib.axis_1">
    <g id="xtick_1">
     <g id="line2d_1">
      <path d="M 61.410938 230.6232 
L 61.410938 7.2 
" clip-path="url(#p71703f316d)" style="fill: none; stroke: #b0b0b0; stroke-width: 0.8; stroke-linecap: square"/>
     </g>
     <g id="line2d_2">
      <defs>
       <path id="md39032bed2" d="M 0 0 
L 0 3.5 
" style="stroke: #000000; stroke-width: 0.8"/>
      </defs>
      <g>
       <use xlink:href="#md39032bed2" x="61.410938" y="230.6232" style="stroke: #000000; stroke-width: 0.8"/>
      </g>
     </g>
     <g id="text_1">
      <!-- 0.0 -->
      <g transform="translate(49.483594 249.020856) scale(0.15 -0.15)">
       <defs>
        <path id="DejaVuSans-30" d="M 2034 4250 
Q 1547 4250 1301 3770 
Q 1056 3291 1056 2328 
Q 1056 1369 1301 889 
Q 1547 409 2034 409 
Q 2525 409 2770 889 
Q 3016 1369 3016 2328 
Q 3016 3291 2770 3770 
Q 2525 4250 2034 4250 
z
M 2034 4750 
Q 2819 4750 3233 4129 
Q 3647 3509 3647 2328 
Q 3647 1150 3233 529 
Q 2819 -91 2034 -91 
Q 1250 -91 836 529 
Q 422 1150 422 2328 
Q 422 3509 836 4129 
Q 1250 4750 2034 4750 
z
" transform="scale(0.015625)"/>
        <path id="DejaVuSans-2e" d="M 684 794 
L 1344 794 
L 1344 0 
L 684 0 
L 684 794 
z
" transform="scale(0.015625)"/>
       </defs>
       <use xlink:href="#DejaVuSans-30"/>
       <use xlink:href="#DejaVuSans-2e" transform="translate(63.623047 0)"/>
       <use xlink:href="#DejaVuSans-30" transform="translate(95.410156 0)"/>
      </g>
     </g>
    </g>
    <g id="xtick_2">
     <g id="line2d_3">
      <path d="M 144.4621 230.6232 
L 144.4621 7.2 
" clip-path="url(#p71703f316d)" style="fill: none; stroke: #b0b0b0; stroke-width: 0.8; stroke-linecap: square"/>
     </g>
     <g id="line2d_4">
      <g>
       <use xlink:href="#md39032bed2" x="144.4621" y="230.6232" style="stroke: #000000; stroke-width: 0.8"/>
      </g>
     </g>
     <g id="text_2">
      <!-- 0.2 -->
      <g transform="translate(132.534757 249.020856) scale(0.15 -0.15)">
       <defs>
        <path id="DejaVuSans-32" d="M 1228 531 
L 3431 531 
L 3431 0 
L 469 0 
L 469 531 
Q 828 903 1448 1529 
Q 2069 2156 2228 2338 
Q 2531 2678 2651 2914 
Q 2772 3150 2772 3378 
Q 2772 3750 2511 3984 
Q 2250 4219 1831 4219 
Q 1534 4219 1204 4116 
Q 875 4013 500 3803 
L 500 4441 
Q 881 4594 1212 4672 
Q 1544 4750 1819 4750 
Q 2544 4750 2975 4387 
Q 3406 4025 3406 3419 
Q 3406 3131 3298 2873 
Q 3191 2616 2906 2266 
Q 2828 2175 2409 1742 
Q 1991 1309 1228 531 
z
" transform="scale(0.015625)"/>
       </defs>
       <use xlink:href="#DejaVuSans-30"/>
       <use xlink:href="#DejaVuSans-2e" transform="translate(63.623047 0)"/>
       <use xlink:href="#DejaVuSans-32" transform="translate(95.410156 0)"/>
      </g>
     </g>
    </g>
    <g id="xtick_3">
     <g id="line2d_5">
      <path d="M 227.513263 230.6232 
L 227.513263 7.2 
" clip-path="url(#p71703f316d)" style="fill: none; stroke: #b0b0b0; stroke-width: 0.8; stroke-linecap: square"/>
     </g>
     <g id="line2d_6">
      <g>
       <use xlink:href="#md39032bed2" x="227.513263" y="230.6232" style="stroke: #000000; stroke-width: 0.8"/>
      </g>
     </g>
     <g id="text_3">
      <!-- 0.4 -->
      <g transform="translate(215.585919 249.020856) scale(0.15 -0.15)">
       <defs>
        <path id="DejaVuSans-34" d="M 2419 4116 
L 825 1625 
L 2419 1625 
L 2419 4116 
z
M 2253 4666 
L 3047 4666 
L 3047 1625 
L 3713 1625 
L 3713 1100 
L 3047 1100 
L 3047 0 
L 2419 0 
L 2419 1100 
L 313 1100 
L 313 1709 
L 2253 4666 
z
" transform="scale(0.015625)"/>
       </defs>
       <use xlink:href="#DejaVuSans-30"/>
       <use xlink:href="#DejaVuSans-2e" transform="translate(63.623047 0)"/>
       <use xlink:href="#DejaVuSans-34" transform="translate(95.410156 0)"/>
      </g>
     </g>
    </g>
    <g id="xtick_4">
     <g id="line2d_7">
      <path d="M 310.564426 230.6232 
L 310.564426 7.2 
" clip-path="url(#p71703f316d)" style="fill: none; stroke: #b0b0b0; stroke-width: 0.8; stroke-linecap: square"/>
     </g>
     <g id="line2d_8">
      <g>
       <use xlink:href="#md39032bed2" x="310.564426" y="230.6232" style="stroke: #000000; stroke-width: 0.8"/>
      </g>
     </g>
     <g id="text_4">
      <!-- 0.6 -->
      <g transform="translate(298.637082 249.020856) scale(0.15 -0.15)">
       <defs>
        <path id="DejaVuSans-36" d="M 2113 2584 
Q 1688 2584 1439 2293 
Q 1191 2003 1191 1497 
Q 1191 994 1439 701 
Q 1688 409 2113 409 
Q 2538 409 2786 701 
Q 3034 994 3034 1497 
Q 3034 2003 2786 2293 
Q 2538 2584 2113 2584 
z
M 3366 4563 
L 3366 3988 
Q 3128 4100 2886 4159 
Q 2644 4219 2406 4219 
Q 1781 4219 1451 3797 
Q 1122 3375 1075 2522 
Q 1259 2794 1537 2939 
Q 1816 3084 2150 3084 
Q 2853 3084 3261 2657 
Q 3669 2231 3669 1497 
Q 3669 778 3244 343 
Q 2819 -91 2113 -91 
Q 1303 -91 875 529 
Q 447 1150 447 2328 
Q 447 3434 972 4092 
Q 1497 4750 2381 4750 
Q 2619 4750 2861 4703 
Q 3103 4656 3366 4563 
z
" transform="scale(0.015625)"/>
       </defs>
       <use xlink:href="#DejaVuSans-30"/>
       <use xlink:href="#DejaVuSans-2e" transform="translate(63.623047 0)"/>
       <use xlink:href="#DejaVuSans-36" transform="translate(95.410156 0)"/>
      </g>
     </g>
    </g>
    <g id="xtick_5">
     <g id="line2d_9">
      <path d="M 393.615589 230.6232 
L 393.615589 7.2 
" clip-path="url(#p71703f316d)" style="fill: none; stroke: #b0b0b0; stroke-width: 0.8; stroke-linecap: square"/>
     </g>
     <g id="line2d_10">
      <g>
       <use xlink:href="#md39032bed2" x="393.615589" y="230.6232" style="stroke: #000000; stroke-width: 0.8"/>
      </g>
     </g>
     <g id="text_5">
      <!-- 0.8 -->
      <g transform="translate(381.688245 249.020856) scale(0.15 -0.15)">
       <defs>
        <path id="DejaVuSans-38" d="M 2034 2216 
Q 1584 2216 1326 1975 
Q 1069 1734 1069 1313 
Q 1069 891 1326 650 
Q 1584 409 2034 409 
Q 2484 409 2743 651 
Q 3003 894 3003 1313 
Q 3003 1734 2745 1975 
Q 2488 2216 2034 2216 
z
M 1403 2484 
Q 997 2584 770 2862 
Q 544 3141 544 3541 
Q 544 4100 942 4425 
Q 1341 4750 2034 4750 
Q 2731 4750 3128 4425 
Q 3525 4100 3525 3541 
Q 3525 3141 3298 2862 
Q 3072 2584 2669 2484 
Q 3125 2378 3379 2068 
Q 3634 1759 3634 1313 
Q 3634 634 3220 271 
Q 2806 -91 2034 -91 
Q 1263 -91 848 271 
Q 434 634 434 1313 
Q 434 1759 690 2068 
Q 947 2378 1403 2484 
z
M 1172 3481 
Q 1172 3119 1398 2916 
Q 1625 2713 2034 2713 
Q 2441 2713 2670 2916 
Q 2900 3119 2900 3481 
Q 2900 3844 2670 4047 
Q 2441 4250 2034 4250 
Q 1625 4250 1398 4047 
Q 1172 3844 1172 3481 
z
" transform="scale(0.015625)"/>
       </defs>
       <use xlink:href="#DejaVuSans-30"/>
       <use xlink:href="#DejaVuSans-2e" transform="translate(63.623047 0)"/>
       <use xlink:href="#DejaVuSans-38" transform="translate(95.410156 0)"/>
      </g>
     </g>
    </g>
    <g id="text_6">
     <!-- Raman Time (ms) -->
     <g transform="translate(151.336563 271.337263) scale(0.2 -0.2)">
      <defs>
       <path id="DejaVuSans-52" d="M 2841 2188 
Q 3044 2119 3236 1894 
Q 3428 1669 3622 1275 
L 4263 0 
L 3584 0 
L 2988 1197 
Q 2756 1666 2539 1819 
Q 2322 1972 1947 1972 
L 1259 1972 
L 1259 0 
L 628 0 
L 628 4666 
L 2053 4666 
Q 2853 4666 3247 4331 
Q 3641 3997 3641 3322 
Q 3641 2881 3436 2590 
Q 3231 2300 2841 2188 
z
M 1259 4147 
L 1259 2491 
L 2053 2491 
Q 2509 2491 2742 2702 
Q 2975 2913 2975 3322 
Q 2975 3731 2742 3939 
Q 2509 4147 2053 4147 
L 1259 4147 
z
" transform="scale(0.015625)"/>
       <path id="DejaVuSans-61" d="M 2194 1759 
Q 1497 1759 1228 1600 
Q 959 1441 959 1056 
Q 959 750 1161 570 
Q 1363 391 1709 391 
Q 2188 391 2477 730 
Q 2766 1069 2766 1631 
L 2766 1759 
L 2194 1759 
z
M 3341 1997 
L 3341 0 
L 2766 0 
L 2766 531 
Q 2569 213 2275 61 
Q 1981 -91 1556 -91 
Q 1019 -91 701 211 
Q 384 513 384 1019 
Q 384 1609 779 1909 
Q 1175 2209 1959 2209 
L 2766 2209 
L 2766 2266 
Q 2766 2663 2505 2880 
Q 2244 3097 1772 3097 
Q 1472 3097 1187 3025 
Q 903 2953 641 2809 
L 641 3341 
Q 956 3463 1253 3523 
Q 1550 3584 1831 3584 
Q 2591 3584 2966 3190 
Q 3341 2797 3341 1997 
z
" transform="scale(0.015625)"/>
       <path id="DejaVuSans-6d" d="M 3328 2828 
Q 3544 3216 3844 3400 
Q 4144 3584 4550 3584 
Q 5097 3584 5394 3201 
Q 5691 2819 5691 2113 
L 5691 0 
L 5113 0 
L 5113 2094 
Q 5113 2597 4934 2840 
Q 4756 3084 4391 3084 
Q 3944 3084 3684 2787 
Q 3425 2491 3425 1978 
L 3425 0 
L 2847 0 
L 2847 2094 
Q 2847 2600 2669 2842 
Q 2491 3084 2119 3084 
Q 1678 3084 1418 2786 
Q 1159 2488 1159 1978 
L 1159 0 
L 581 0 
L 581 3500 
L 1159 3500 
L 1159 2956 
Q 1356 3278 1631 3431 
Q 1906 3584 2284 3584 
Q 2666 3584 2933 3390 
Q 3200 3197 3328 2828 
z
" transform="scale(0.015625)"/>
       <path id="DejaVuSans-6e" d="M 3513 2113 
L 3513 0 
L 2938 0 
L 2938 2094 
Q 2938 2591 2744 2837 
Q 2550 3084 2163 3084 
Q 1697 3084 1428 2787 
Q 1159 2491 1159 1978 
L 1159 0 
L 581 0 
L 581 3500 
L 1159 3500 
L 1159 2956 
Q 1366 3272 1645 3428 
Q 1925 3584 2291 3584 
Q 2894 3584 3203 3211 
Q 3513 2838 3513 2113 
z
" transform="scale(0.015625)"/>
       <path id="DejaVuSans-20" transform="scale(0.015625)"/>
       <path id="DejaVuSans-54" d="M -19 4666 
L 3928 4666 
L 3928 4134 
L 2272 4134 
L 2272 0 
L 1638 0 
L 1638 4134 
L -19 4134 
L -19 4666 
z
" transform="scale(0.015625)"/>
       <path id="DejaVuSans-69" d="M 603 3500 
L 1178 3500 
L 1178 0 
L 603 0 
L 603 3500 
z
M 603 4863 
L 1178 4863 
L 1178 4134 
L 603 4134 
L 603 4863 
z
" transform="scale(0.015625)"/>
       <path id="DejaVuSans-65" d="M 3597 1894 
L 3597 1613 
L 953 1613 
Q 991 1019 1311 708 
Q 1631 397 2203 397 
Q 2534 397 2845 478 
Q 3156 559 3463 722 
L 3463 178 
Q 3153 47 2828 -22 
Q 2503 -91 2169 -91 
Q 1331 -91 842 396 
Q 353 884 353 1716 
Q 353 2575 817 3079 
Q 1281 3584 2069 3584 
Q 2775 3584 3186 3129 
Q 3597 2675 3597 1894 
z
M 3022 2063 
Q 3016 2534 2758 2815 
Q 2500 3097 2075 3097 
Q 1594 3097 1305 2825 
Q 1016 2553 972 2059 
L 3022 2063 
z
" transform="scale(0.015625)"/>
       <path id="DejaVuSans-28" d="M 1984 4856 
Q 1566 4138 1362 3434 
Q 1159 2731 1159 2009 
Q 1159 1288 1364 580 
Q 1569 -128 1984 -844 
L 1484 -844 
Q 1016 -109 783 600 
Q 550 1309 550 2009 
Q 550 2706 781 3412 
Q 1013 4119 1484 4856 
L 1984 4856 
z
" transform="scale(0.015625)"/>
       <path id="DejaVuSans-73" d="M 2834 3397 
L 2834 2853 
Q 2591 2978 2328 3040 
Q 2066 3103 1784 3103 
Q 1356 3103 1142 2972 
Q 928 2841 928 2578 
Q 928 2378 1081 2264 
Q 1234 2150 1697 2047 
L 1894 2003 
Q 2506 1872 2764 1633 
Q 3022 1394 3022 966 
Q 3022 478 2636 193 
Q 2250 -91 1575 -91 
Q 1294 -91 989 -36 
Q 684 19 347 128 
L 347 722 
Q 666 556 975 473 
Q 1284 391 1588 391 
Q 1994 391 2212 530 
Q 2431 669 2431 922 
Q 2431 1156 2273 1281 
Q 2116 1406 1581 1522 
L 1381 1569 
Q 847 1681 609 1914 
Q 372 2147 372 2553 
Q 372 3047 722 3315 
Q 1072 3584 1716 3584 
Q 2034 3584 2315 3537 
Q 2597 3491 2834 3397 
z
" transform="scale(0.015625)"/>
       <path id="DejaVuSans-29" d="M 513 4856 
L 1013 4856 
Q 1481 4119 1714 3412 
Q 1947 2706 1947 2009 
Q 1947 1309 1714 600 
Q 1481 -109 1013 -844 
L 513 -844 
Q 928 -128 1133 580 
Q 1338 1288 1338 2009 
Q 1338 2731 1133 3434 
Q 928 4138 513 4856 
z
" transform="scale(0.015625)"/>
      </defs>
      <use xlink:href="#DejaVuSans-52"/>
      <use xlink:href="#DejaVuSans-61" transform="translate(67.232422 0)"/>
      <use xlink:href="#DejaVuSans-6d" transform="translate(128.511719 0)"/>
      <use xlink:href="#DejaVuSans-61" transform="translate(225.923828 0)"/>
      <use xlink:href="#DejaVuSans-6e" transform="translate(287.203125 0)"/>
      <use xlink:href="#DejaVuSans-20" transform="translate(350.582031 0)"/>
      <use xlink:href="#DejaVuSans-54" transform="translate(382.369141 0)"/>
      <use xlink:href="#DejaVuSans-69" transform="translate(440.328125 0)"/>
      <use xlink:href="#DejaVuSans-6d" transform="translate(468.111328 0)"/>
      <use xlink:href="#DejaVuSans-65" transform="translate(565.523438 0)"/>
      <use xlink:href="#DejaVuSans-20" transform="translate(627.046875 0)"/>
      <use xlink:href="#DejaVuSans-28" transform="translate(658.833984 0)"/>
      <use xlink:href="#DejaVuSans-6d" transform="translate(697.847656 0)"/>
      <use xlink:href="#DejaVuSans-73" transform="translate(795.259766 0)"/>
      <use xlink:href="#DejaVuSans-29" transform="translate(847.359375 0)"/>
     </g>
    </g>
   </g>
   <g id="matplotlib.axis_2">
    <g id="ytick_1">
     <g id="line2d_11">
      <path d="M 61.410938 196.2504 
L 418.530938 196.2504 
" clip-path="url(#p71703f316d)" style="fill: none; stroke: #b0b0b0; stroke-width: 0.8; stroke-linecap: square"/>
     </g>
     <g id="line2d_12">
      <defs>
       <path id="m6f3f5b6aff" d="M 0 0 
L -3.5 0 
" style="stroke: #000000; stroke-width: 0.8"/>
      </defs>
      <g>
       <use xlink:href="#m6f3f5b6aff" x="61.410938" y="196.2504" style="stroke: #000000; stroke-width: 0.8"/>
      </g>
     </g>
     <g id="text_7">
      <!-- 0.2 -->
      <g transform="translate(30.55625 201.949228) scale(0.15 -0.15)">
       <use xlink:href="#DejaVuSans-30"/>
       <use xlink:href="#DejaVuSans-2e" transform="translate(63.623047 0)"/>
       <use xlink:href="#DejaVuSans-32" transform="translate(95.410156 0)"/>
      </g>
     </g>
    </g>
    <g id="ytick_2">
     <g id="line2d_13">
      <path d="M 61.410938 110.3184 
L 418.530938 110.3184 
" clip-path="url(#p71703f316d)" style="fill: none; stroke: #b0b0b0; stroke-width: 0.8; stroke-linecap: square"/>
     </g>
     <g id="line2d_14">
      <g>
       <use xlink:href="#m6f3f5b6aff" x="61.410938" y="110.3184" style="stroke: #000000; stroke-width: 0.8"/>
      </g>
     </g>
     <g id="text_8">
      <!-- 0.6 -->
      <g transform="translate(30.55625 116.017228) scale(0.15 -0.15)">
       <use xlink:href="#DejaVuSans-30"/>
       <use xlink:href="#DejaVuSans-2e" transform="translate(63.623047 0)"/>
       <use xlink:href="#DejaVuSans-36" transform="translate(95.410156 0)"/>
      </g>
     </g>
    </g>
    <g id="ytick_3">
     <g id="line2d_15">
      <path d="M 61.410938 24.3864 
L 418.530938 24.3864 
" clip-path="url(#p71703f316d)" style="fill: none; stroke: #b0b0b0; stroke-width: 0.8; stroke-linecap: square"/>
     </g>
     <g id="line2d_16">
      <g>
       <use xlink:href="#m6f3f5b6aff" x="61.410938" y="24.3864" style="stroke: #000000; stroke-width: 0.8"/>
      </g>
     </g>
     <g id="text_9">
      <!-- 1.0 -->
      <g transform="translate(30.55625 30.085228) scale(0.15 -0.15)">
       <defs>
        <path id="DejaVuSans-31" d="M 794 531 
L 1825 531 
L 1825 4091 
L 703 3866 
L 703 4441 
L 1819 4666 
L 2450 4666 
L 2450 531 
L 3481 531 
L 3481 0 
L 794 0 
L 794 531 
z
" transform="scale(0.015625)"/>
       </defs>
       <use xlink:href="#DejaVuSans-31"/>
       <use xlink:href="#DejaVuSans-2e" transform="translate(63.623047 0)"/>
       <use xlink:href="#DejaVuSans-30" transform="translate(95.410156 0)"/>
      </g>
     </g>
    </g>
    <g id="text_10">
     <!-- Atomic Fraction -->
     <g transform="translate(22.396875 196.73035) rotate(-90) scale(0.2 -0.2)">
      <defs>
       <path id="DejaVuSans-41" d="M 2188 4044 
L 1331 1722 
L 3047 1722 
L 2188 4044 
z
M 1831 4666 
L 2547 4666 
L 4325 0 
L 3669 0 
L 3244 1197 
L 1141 1197 
L 716 0 
L 50 0 
L 1831 4666 
z
" transform="scale(0.015625)"/>
       <path id="DejaVuSans-74" d="M 1172 4494 
L 1172 3500 
L 2356 3500 
L 2356 3053 
L 1172 3053 
L 1172 1153 
Q 1172 725 1289 603 
Q 1406 481 1766 481 
L 2356 481 
L 2356 0 
L 1766 0 
Q 1100 0 847 248 
Q 594 497 594 1153 
L 594 3053 
L 172 3053 
L 172 3500 
L 594 3500 
L 594 4494 
L 1172 4494 
z
" transform="scale(0.015625)"/>
       <path id="DejaVuSans-6f" d="M 1959 3097 
Q 1497 3097 1228 2736 
Q 959 2375 959 1747 
Q 959 1119 1226 758 
Q 1494 397 1959 397 
Q 2419 397 2687 759 
Q 2956 1122 2956 1747 
Q 2956 2369 2687 2733 
Q 2419 3097 1959 3097 
z
M 1959 3584 
Q 2709 3584 3137 3096 
Q 3566 2609 3566 1747 
Q 3566 888 3137 398 
Q 2709 -91 1959 -91 
Q 1206 -91 779 398 
Q 353 888 353 1747 
Q 353 2609 779 3096 
Q 1206 3584 1959 3584 
z
" transform="scale(0.015625)"/>
       <path id="DejaVuSans-63" d="M 3122 3366 
L 3122 2828 
Q 2878 2963 2633 3030 
Q 2388 3097 2138 3097 
Q 1578 3097 1268 2742 
Q 959 2388 959 1747 
Q 959 1106 1268 751 
Q 1578 397 2138 397 
Q 2388 397 2633 464 
Q 2878 531 3122 666 
L 3122 134 
Q 2881 22 2623 -34 
Q 2366 -91 2075 -91 
Q 1284 -91 818 406 
Q 353 903 353 1747 
Q 353 2603 823 3093 
Q 1294 3584 2113 3584 
Q 2378 3584 2631 3529 
Q 2884 3475 3122 3366 
z
" transform="scale(0.015625)"/>
       <path id="DejaVuSans-46" d="M 628 4666 
L 3309 4666 
L 3309 4134 
L 1259 4134 
L 1259 2759 
L 3109 2759 
L 3109 2228 
L 1259 2228 
L 1259 0 
L 628 0 
L 628 4666 
z
" transform="scale(0.015625)"/>
       <path id="DejaVuSans-72" d="M 2631 2963 
Q 2534 3019 2420 3045 
Q 2306 3072 2169 3072 
Q 1681 3072 1420 2755 
Q 1159 2438 1159 1844 
L 1159 0 
L 581 0 
L 581 3500 
L 1159 3500 
L 1159 2956 
Q 1341 3275 1631 3429 
Q 1922 3584 2338 3584 
Q 2397 3584 2469 3576 
Q 2541 3569 2628 3553 
L 2631 2963 
z
" transform="scale(0.015625)"/>
      </defs>
      <use xlink:href="#DejaVuSans-41"/>
      <use xlink:href="#DejaVuSans-74" transform="translate(66.658203 0)"/>
      <use xlink:href="#DejaVuSans-6f" transform="translate(105.867188 0)"/>
      <use xlink:href="#DejaVuSans-6d" transform="translate(167.048828 0)"/>
      <use xlink:href="#DejaVuSans-69" transform="translate(264.460938 0)"/>
      <use xlink:href="#DejaVuSans-63" transform="translate(292.244141 0)"/>
      <use xlink:href="#DejaVuSans-20" transform="translate(347.224609 0)"/>
      <use xlink:href="#DejaVuSans-46" transform="translate(379.011719 0)"/>
      <use xlink:href="#DejaVuSans-72" transform="translate(429.28125 0)"/>
      <use xlink:href="#DejaVuSans-61" transform="translate(470.394531 0)"/>
      <use xlink:href="#DejaVuSans-63" transform="translate(531.673828 0)"/>
      <use xlink:href="#DejaVuSans-74" transform="translate(586.654297 0)"/>
      <use xlink:href="#DejaVuSans-69" transform="translate(625.863281 0)"/>
      <use xlink:href="#DejaVuSans-6f" transform="translate(653.646484 0)"/>
      <use xlink:href="#DejaVuSans-6e" transform="translate(714.828125 0)"/>
     </g>
    </g>
   </g>
   <g id="LineCollection_1">
    <path d="M 61.410938 44.826882 
L 61.410938 19.015402 
" clip-path="url(#p71703f316d)" style="fill: none; stroke: #1f77b4; stroke-width: 1.5"/>
    <path d="M 70.546565 45.615708 
L 70.546565 19.746097 
" clip-path="url(#p71703f316d)" style="fill: none; stroke: #1f77b4; stroke-width: 1.5"/>
    <path d="M 83.834751 81.658804 
L 83.834751 57.122848 
" clip-path="url(#p71703f316d)" style="fill: none; stroke: #1f77b4; stroke-width: 1.5"/>
    <path d="M 103.767031 175.540309 
L 103.767031 158.561127 
" clip-path="url(#p71703f316d)" style="fill: none; stroke: #1f77b4; stroke-width: 1.5"/>
    <path d="M 113.73317 215.911401 
L 113.73317 204.725895 
" clip-path="url(#p71703f316d)" style="fill: none; stroke: #1f77b4; stroke-width: 1.5"/>
    <path d="M 123.69931 216.84053 
L 123.69931 205.824251 
" clip-path="url(#p71703f316d)" style="fill: none; stroke: #1f77b4; stroke-width: 1.5"/>
    <path d="M 143.631589 203.734966 
L 143.631589 190.159399 
" clip-path="url(#p71703f316d)" style="fill: none; stroke: #1f77b4; stroke-width: 1.5"/>
    <path d="M 153.597728 176.230992 
L 153.597728 159.279966 
" clip-path="url(#p71703f316d)" style="fill: none; stroke: #1f77b4; stroke-width: 1.5"/>
    <path d="M 163.563868 152.768319 
L 163.563868 132.895972 
" clip-path="url(#p71703f316d)" style="fill: none; stroke: #1f77b4; stroke-width: 1.5"/>
    <path d="M 173.530007 148.582502 
L 173.530007 129.090723 
" clip-path="url(#p71703f316d)" style="fill: none; stroke: #1f77b4; stroke-width: 1.5"/>
    <path d="M 183.496147 146.493057 
L 183.496147 125.971592 
" clip-path="url(#p71703f316d)" style="fill: none; stroke: #1f77b4; stroke-width: 1.5"/>
    <path d="M 203.428426 161.720897 
L 203.428426 142.432533 
" clip-path="url(#p71703f316d)" style="fill: none; stroke: #1f77b4; stroke-width: 1.5"/>
    <path d="M 223.360705 204.044667 
L 223.360705 190.583751 
" clip-path="url(#p71703f316d)" style="fill: none; stroke: #1f77b4; stroke-width: 1.5"/>
    <path d="M 243.292984 214.789831 
L 243.292984 203.078819 
" clip-path="url(#p71703f316d)" style="fill: none; stroke: #1f77b4; stroke-width: 1.5"/>
    <path d="M 263.225263 224.600463 
L 263.225263 215.641819 
" clip-path="url(#p71703f316d)" style="fill: none; stroke: #1f77b4; stroke-width: 1.5"/>
    <path d="M 283.157542 194.252923 
L 283.157542 180.127366 
" clip-path="url(#p71703f316d)" style="fill: none; stroke: #1f77b4; stroke-width: 1.5"/>
    <path d="M 303.089821 189.494294 
L 303.089821 173.575167 
" clip-path="url(#p71703f316d)" style="fill: none; stroke: #1f77b4; stroke-width: 1.5"/>
    <path d="M 323.0221 196.403441 
L 323.0221 181.717395 
" clip-path="url(#p71703f316d)" style="fill: none; stroke: #1f77b4; stroke-width: 1.5"/>
    <path d="M 342.954379 219.066774 
L 342.954379 208.587615 
" clip-path="url(#p71703f316d)" style="fill: none; stroke: #1f77b4; stroke-width: 1.5"/>
    <path d="M 362.886658 228.804626 
L 362.886658 220.802897 
" clip-path="url(#p71703f316d)" style="fill: none; stroke: #1f77b4; stroke-width: 1.5"/>
    <path d="M 382.818938 222.047685 
L 382.818938 212.251602 
" clip-path="url(#p71703f316d)" style="fill: none; stroke: #1f77b4; stroke-width: 1.5"/>
   </g>
   <g id="line2d_17">
    <path d="M 61.410938 24.3864 
L 62.396079 24.612239 
L 63.38122 25.091707 
L 64.366362 25.821991 
L 65.351503 26.799637 
L 66.665025 28.480811 
L 67.978547 30.583075 
L 69.292069 33.093256 
L 70.933971 36.781737 
L 72.575874 41.05146 
L 74.546156 46.890895 
L 76.516439 53.445593 
L 78.815103 61.896186 
L 81.442146 72.456108 
L 84.725951 86.711393 
L 88.994897 106.35739 
L 97.86117 147.449416 
L 101.144975 161.558715 
L 104.100399 173.28844 
L 106.727443 182.766813 
L 109.026106 190.2248 
L 110.996389 195.94063 
L 112.966672 200.99398 
L 114.608574 204.678808 
L 116.250477 207.872331 
L 117.892379 210.566503 
L 119.205901 212.359325 
L 120.519423 213.829327 
L 121.832945 214.977579 
L 123.146467 215.806633 
L 124.459988 216.320494 
L 125.44513 216.502245 
L 126.430271 216.512498 
L 127.743793 216.264988 
L 129.057315 215.727029 
L 130.370837 214.908533 
L 131.684359 213.820555 
L 132.997881 212.475225 
L 134.639783 210.451757 
L 136.281685 208.074412 
L 138.251968 204.79635 
L 140.550632 200.454835 
L 143.177675 194.923651 
L 146.1331 188.146085 
L 150.402046 177.729325 
L 157.626416 160.01894 
L 160.910221 152.578089 
L 163.537265 147.130086 
L 165.835928 142.821377 
L 168.134591 139.004748 
L 170.104874 136.164798 
L 172.075157 133.752187 
L 173.717059 132.084198 
L 175.358962 130.738315 
L 177.000864 129.72185 
L 178.314386 129.149103 
L 179.627908 128.79145 
L 180.94143 128.64905 
L 182.254952 128.721026 
L 183.568474 129.00549 
L 184.881996 129.499565 
L 186.195517 130.199418 
L 187.83742 131.356276 
L 189.479322 132.815935 
L 191.121225 134.565131 
L 193.091507 137.024889 
L 195.06179 139.850183 
L 197.360454 143.564578 
L 199.987497 148.291324 
L 202.942922 154.113673 
L 206.555107 161.761291 
L 212.794336 175.622166 
L 218.376804 187.79816 
L 221.988989 195.130244 
L 224.944413 200.635386 
L 227.571457 205.071033 
L 229.87012 208.551683 
L 232.168784 211.62556 
L 234.139067 213.917744 
L 236.109349 215.881418 
L 238.079632 217.508797 
L 239.721535 218.604996 
L 241.363437 219.464334 
L 243.005339 220.088122 
L 244.647242 220.479353 
L 246.289144 220.642654 
L 247.931046 220.584212 
L 249.572949 220.311701 
L 251.214851 219.834191 
L 253.185134 219.005274 
L 255.155417 217.91635 
L 257.1257 216.589823 
L 259.424363 214.774448 
L 262.051407 212.39753 
L 265.006831 209.416577 
L 268.947397 205.098802 
L 280.112333 192.648002 
L 283.396138 189.43622 
L 286.023181 187.148716 
L 288.650225 185.159594 
L 290.948888 183.692807 
L 293.247552 182.502323 
L 295.217835 181.713426 
L 297.188117 181.145522 
L 299.1584 180.802861 
L 301.128683 180.687167 
L 303.098966 180.797685 
L 305.069249 181.131245 
L 307.039532 181.682358 
L 309.009815 182.443331 
L 311.308478 183.583242 
L 313.607141 184.976661 
L 316.234185 186.85128 
L 319.189609 189.275254 
L 322.473414 192.290659 
L 326.41398 196.237613 
L 332.981589 203.202174 
L 338.892438 209.365993 
L 342.833003 213.16792 
L 346.116808 216.041595 
L 349.072232 218.345535 
L 351.699276 220.138929 
L 354.32632 221.672529 
L 356.953364 222.932502 
L 359.252027 223.803826 
L 361.55069 224.45704 
L 363.849354 224.893145 
L 366.148017 225.116193 
L 368.44668 225.133133 
L 371.073724 224.91264 
L 373.700768 224.454076 
L 376.327812 223.77964 
L 379.283236 222.794659 
L 382.567041 221.466686 
L 386.507606 219.630338 
L 389.463031 218.140452 
L 389.463031 218.140452 
" clip-path="url(#p71703f316d)" style="fill: none; stroke: #1f77b4; stroke-width: 1.5; stroke-linecap: square"/>
   </g>
   <g id="line2d_18">
    <defs>
     <path id="mcceb8b8273" d="M 0 3 
C 0.795609 3 1.55874 2.683901 2.12132 2.12132 
C 2.683901 1.55874 3 0.795609 3 0 
C 3 -0.795609 2.683901 -1.55874 2.12132 -2.12132 
C 1.55874 -2.683901 0.795609 -3 0 -3 
C -0.795609 -3 -1.55874 -2.683901 -2.12132 -2.12132 
C -2.683901 -1.55874 -3 -0.795609 -3 0 
C -3 0.795609 -2.683901 1.55874 -2.12132 2.12132 
C -1.55874 2.683901 -0.795609 3 0 3 
z
" style="stroke: #1f77b4"/>
    </defs>
    <g clip-path="url(#p71703f316d)">
     <use xlink:href="#mcceb8b8273" x="61.410938" y="31.921142" style="fill: #1f77b4; stroke: #1f77b4"/>
     <use xlink:href="#mcceb8b8273" x="70.546565" y="32.680903" style="fill: #1f77b4; stroke: #1f77b4"/>
     <use xlink:href="#mcceb8b8273" x="83.834751" y="69.390826" style="fill: #1f77b4; stroke: #1f77b4"/>
     <use xlink:href="#mcceb8b8273" x="103.767031" y="167.050718" style="fill: #1f77b4; stroke: #1f77b4"/>
     <use xlink:href="#mcceb8b8273" x="113.73317" y="210.318648" style="fill: #1f77b4; stroke: #1f77b4"/>
     <use xlink:href="#mcceb8b8273" x="123.69931" y="211.33239" style="fill: #1f77b4; stroke: #1f77b4"/>
     <use xlink:href="#mcceb8b8273" x="143.631589" y="196.947182" style="fill: #1f77b4; stroke: #1f77b4"/>
     <use xlink:href="#mcceb8b8273" x="153.597728" y="167.755479" style="fill: #1f77b4; stroke: #1f77b4"/>
     <use xlink:href="#mcceb8b8273" x="163.563868" y="142.832146" style="fill: #1f77b4; stroke: #1f77b4"/>
     <use xlink:href="#mcceb8b8273" x="173.530007" y="138.836612" style="fill: #1f77b4; stroke: #1f77b4"/>
     <use xlink:href="#mcceb8b8273" x="183.496147" y="136.232325" style="fill: #1f77b4; stroke: #1f77b4"/>
     <use xlink:href="#mcceb8b8273" x="203.428426" y="152.076715" style="fill: #1f77b4; stroke: #1f77b4"/>
     <use xlink:href="#mcceb8b8273" x="223.360705" y="197.314209" style="fill: #1f77b4; stroke: #1f77b4"/>
     <use xlink:href="#mcceb8b8273" x="243.292984" y="208.934325" style="fill: #1f77b4; stroke: #1f77b4"/>
     <use xlink:href="#mcceb8b8273" x="263.225263" y="220.121141" style="fill: #1f77b4; stroke: #1f77b4"/>
     <use xlink:href="#mcceb8b8273" x="283.157542" y="187.190145" style="fill: #1f77b4; stroke: #1f77b4"/>
     <use xlink:href="#mcceb8b8273" x="303.089821" y="181.534731" style="fill: #1f77b4; stroke: #1f77b4"/>
     <use xlink:href="#mcceb8b8273" x="323.0221" y="189.060418" style="fill: #1f77b4; stroke: #1f77b4"/>
     <use xlink:href="#mcceb8b8273" x="342.954379" y="213.827195" style="fill: #1f77b4; stroke: #1f77b4"/>
     <use xlink:href="#mcceb8b8273" x="362.886658" y="224.803762" style="fill: #1f77b4; stroke: #1f77b4"/>
     <use xlink:href="#mcceb8b8273" x="382.818938" y="217.149643" style="fill: #1f77b4; stroke: #1f77b4"/>
    </g>
   </g>
   <g id="patch_3">
    <path d="M 61.410938 230.6232 
L 61.410938 7.2 
" style="fill: none; stroke: #000000; stroke-width: 0.8; stroke-linejoin: miter; stroke-linecap: square"/>
   </g>
   <g id="patch_4">
    <path d="M 418.530938 230.6232 
L 418.530938 7.2 
" style="fill: none; stroke: #000000; stroke-width: 0.8; stroke-linejoin: miter; stroke-linecap: square"/>
   </g>
   <g id="patch_5">
    <path d="M 61.410938 230.6232 
L 418.530938 230.6232 
" style="fill: none; stroke: #000000; stroke-width: 0.8; stroke-linejoin: miter; stroke-linecap: square"/>
   </g>
   <g id="patch_6">
    <path d="M 61.410938 7.2 
L 418.530938 7.2 
" style="fill: none; stroke: #000000; stroke-width: 0.8; stroke-linejoin: miter; stroke-linecap: square"/>
   </g>
  </g>
 </g>
 <defs>
  <clipPath id="p71703f316d">
   <rect x="61.410938" y="7.2" width="357.12" height="223.4232"/>
  </clipPath>
 </defs>
</svg>
