<?xml version="1.0" encoding="utf-8" standalone="no"?>
<!DOCTYPE svg PUBLIC "-//W3C//DTD SVG 1.1//EN"
  "http://www.w3.org/Graphics/SVG/1.1/DTD/svg11.dtd">
<svg xmlns:xlink="http://www.w3.org/1999/xlink" width="425.730937pt" height="325.385437pt" viewBox="0 0 425.730937 325.385437" xmlns="http://www.w3.org/2000/svg" version="1.1">
 <defs>
  <style type="text/css">*{stroke-linejoin: round; stroke-linecap: butt}</style>
 </defs>
 <g id="figure_1">
  <g id="patch_1">
   <path d="M 0 325.385437 
L 425.730937 325.385437 
L 425.730937 0 
L 0 0 
L 0 325.385437 
z
" style="fill: none"/>
  </g>
  <g id="axes_1">
   <g id="patch_2">
    <path d="M 61.410938 273.312 
L 418.530938 273.312 
L 418.530938 7.2 
L 61.410938 7.2 
L 61.410938 273.312 
z
" style="fill: none"/>
   </g>
   <g id="matplotlib.axis_1">
    <g id="xtick_1">
     <g id="line2d_1">
      <path d="M 61.410938 273.312 
L 61.410938 7.2 
" clip-path="url(#p4131f432a9)" style="fill: none; stroke: #b0b0b0; stroke-width: 0.8; stroke-linecap: square"/>
     </g>
     <g id="line2d_2">
      <defs>
       <path id="md39032bed2" d="M 0 0 
L 0 3.5 
" style="stroke: #000000; stroke-width: 0.8"/>
      </defs>
      <g>
       <use xlink:href="#md39032bed2" x="61.410938" y="273.312" style="stroke: #000000; stroke-width: 0.8"/>
      </g>
     </g>
     <g id="text_1">
      <!-- 0.0 -->
      <g transform="translate(49.483594 291.709656) scale(0.15 -0.15)">
       <defs>
        <path id="DejaVuSans-30" d="M 2034 4250 
Q 1547 4250 1301 3770 
Q 1056 3291 1056 2328 
Q 1056 1369 1301 889 
Q 1547 409 2034 409 
Q 2525 409 2770 889 
Q 3016 1369 3016 2328 
Q 3016 3291 2770 3770 
Q 2525 4250 2034 4250 
z
M 2034 4750 
Q 2819 4750 3233 4129 
Q 3647 3509 3647 2328 
Q 3647 1150 3233 529 
Q 2819 -91 2034 -91 
Q 1250 -91 836 529 
Q 422 1150 422 2328 
Q 422 3509 836 4129 
Q 1250 4750 2034 4750 
z
" transform="scale(0.015625)"/>
        <path id="DejaVuSans-2e" d="M 684 794 
L 1344 794 
L 1344 0 
L 684 0 
L 684 794 
z
" transform="scale(0.015625)"/>
       </defs>
       <use xlink:href="#DejaVuSans-30"/>
       <use xlink:href="#DejaVuSans-2e" transform="translate(63.623047 0)"/>
       <use xlink:href="#DejaVuSans-30" transform="translate(95.410156 0)"/>
      </g>
     </g>
    </g>
    <g id="xtick_2">
     <g id="line2d_3">
      <path d="M 144.4621 273.312 
L 144.4621 7.2 
" clip-path="url(#p4131f432a9)" style="fill: none; stroke: #b0b0b0; stroke-width: 0.8; stroke-linecap: square"/>
     </g>
     <g id="line2d_4">
      <g>
       <use xlink:href="#md39032bed2" x="144.4621" y="273.312" style="stroke: #000000; stroke-width: 0.8"/>
      </g>
     </g>
     <g id="text_2">
      <!-- 0.2 -->
      <g transform="translate(132.534757 291.709656) scale(0.15 -0.15)">
       <defs>
        <path id="DejaVuSans-32" d="M 1228 531 
L 3431 531 
L 3431 0 
L 469 0 
L 469 531 
Q 828 903 1448 1529 
Q 2069 2156 2228 2338 
Q 2531 2678 2651 2914 
Q 2772 3150 2772 3378 
Q 2772 3750 2511 3984 
Q 2250 4219 1831 4219 
Q 1534 4219 1204 4116 
Q 875 4013 500 3803 
L 500 4441 
Q 881 4594 1212 4672 
Q 1544 4750 1819 4750 
Q 2544 4750 2975 4387 
Q 3406 4025 3406 3419 
Q 3406 3131 3298 2873 
Q 3191 2616 2906 2266 
Q 2828 2175 2409 1742 
Q 1991 1309 1228 531 
z
" transform="scale(0.015625)"/>
       </defs>
       <use xlink:href="#DejaVuSans-30"/>
       <use xlink:href="#DejaVuSans-2e" transform="translate(63.623047 0)"/>
       <use xlink:href="#DejaVuSans-32" transform="translate(95.410156 0)"/>
      </g>
     </g>
    </g>
    <g id="xtick_3">
     <g id="line2d_5">
      <path d="M 227.513263 273.312 
L 227.513263 7.2 
" clip-path="url(#p4131f432a9)" style="fill: none; stroke: #b0b0b0; stroke-width: 0.8; stroke-linecap: square"/>
     </g>
     <g id="line2d_6">
      <g>
       <use xlink:href="#md39032bed2" x="227.513263" y="273.312" style="stroke: #000000; stroke-width: 0.8"/>
      </g>
     </g>
     <g id="text_3">
      <!-- 0.4 -->
      <g transform="translate(215.585919 291.709656) scale(0.15 -0.15)">
       <defs>
        <path id="DejaVuSans-34" d="M 2419 4116 
L 825 1625 
L 2419 1625 
L 2419 4116 
z
M 2253 4666 
L 3047 4666 
L 3047 1625 
L 3713 1625 
L 3713 1100 
L 3047 1100 
L 3047 0 
L 2419 0 
L 2419 1100 
L 313 1100 
L 313 1709 
L 2253 4666 
z
" transform="scale(0.015625)"/>
       </defs>
       <use xlink:href="#DejaVuSans-30"/>
       <use xlink:href="#DejaVuSans-2e" transform="translate(63.623047 0)"/>
       <use xlink:href="#DejaVuSans-34" transform="translate(95.410156 0)"/>
      </g>
     </g>
    </g>
    <g id="xtick_4">
     <g id="line2d_7">
      <path d="M 310.564426 273.312 
L 310.564426 7.2 
" clip-path="url(#p4131f432a9)" style="fill: none; stroke: #b0b0b0; stroke-width: 0.8; stroke-linecap: square"/>
     </g>
     <g id="line2d_8">
      <g>
       <use xlink:href="#md39032bed2" x="310.564426" y="273.312" style="stroke: #000000; stroke-width: 0.8"/>
      </g>
     </g>
     <g id="text_4">
      <!-- 0.6 -->
      <g transform="translate(298.637082 291.709656) scale(0.15 -0.15)">
       <defs>
        <path id="DejaVuSans-36" d="M 2113 2584 
Q 1688 2584 1439 2293 
Q 1191 2003 1191 1497 
Q 1191 994 1439 701 
Q 1688 409 2113 409 
Q 2538 409 2786 701 
Q 3034 994 3034 1497 
Q 3034 2003 2786 2293 
Q 2538 2584 2113 2584 
z
M 3366 4563 
L 3366 3988 
Q 3128 4100 2886 4159 
Q 2644 4219 2406 4219 
Q 1781 4219 1451 3797 
Q 1122 3375 1075 2522 
Q 1259 2794 1537 2939 
Q 1816 3084 2150 3084 
Q 2853 3084 3261 2657 
Q 3669 2231 3669 1497 
Q 3669 778 3244 343 
Q 2819 -91 2113 -91 
Q 1303 -91 875 529 
Q 447 1150 447 2328 
Q 447 3434 972 4092 
Q 1497 4750 2381 4750 
Q 2619 4750 2861 4703 
Q 3103 4656 3366 4563 
z
" transform="scale(0.015625)"/>
       </defs>
       <use xlink:href="#DejaVuSans-30"/>
       <use xlink:href="#DejaVuSans-2e" transform="translate(63.623047 0)"/>
       <use xlink:href="#DejaVuSans-36" transform="translate(95.410156 0)"/>
      </g>
     </g>
    </g>
    <g id="xtick_5">
     <g id="line2d_9">
      <path d="M 393.615589 273.312 
L 393.615589 7.2 
" clip-path="url(#p4131f432a9)" style="fill: none; stroke: #b0b0b0; stroke-width: 0.8; stroke-linecap: square"/>
     </g>
     <g id="line2d_10">
      <g>
       <use xlink:href="#md39032bed2" x="393.615589" y="273.312" style="stroke: #000000; stroke-width: 0.8"/>
      </g>
     </g>
     <g id="text_5">
      <!-- 0.8 -->
      <g transform="translate(381.688245 291.709656) scale(0.15 -0.15)">
       <defs>
        <path id="DejaVuSans-38" d="M 2034 2216 
Q 1584 2216 1326 1975 
Q 1069 1734 1069 1313 
Q 1069 891 1326 650 
Q 1584 409 2034 409 
Q 2484 409 2743 651 
Q 3003 894 3003 1313 
Q 3003 1734 2745 1975 
Q 2488 2216 2034 2216 
z
M 1403 2484 
Q 997 2584 770 2862 
Q 544 3141 544 3541 
Q 544 4100 942 4425 
Q 1341 4750 2034 4750 
Q 2731 4750 3128 4425 
Q 3525 4100 3525 3541 
Q 3525 3141 3298 2862 
Q 3072 2584 2669 2484 
Q 3125 2378 3379 2068 
Q 3634 1759 3634 1313 
Q 3634 634 3220 271 
Q 2806 -91 2034 -91 
Q 1263 -91 848 271 
Q 434 634 434 1313 
Q 434 1759 690 2068 
Q 947 2378 1403 2484 
z
M 1172 3481 
Q 1172 3119 1398 2916 
Q 1625 2713 2034 2713 
Q 2441 2713 2670 2916 
Q 2900 3119 2900 3481 
Q 2900 3844 2670 4047 
Q 2441 4250 2034 4250 
Q 1625 4250 1398 4047 
Q 1172 3844 1172 3481 
z
" transform="scale(0.015625)"/>
       </defs>
       <use xlink:href="#DejaVuSans-30"/>
       <use xlink:href="#DejaVuSans-2e" transform="translate(63.623047 0)"/>
       <use xlink:href="#DejaVuSans-38" transform="translate(95.410156 0)"/>
      </g>
     </g>
    </g>
    <g id="text_6">
     <!-- Raman Time (ms) -->
     <g transform="translate(151.336563 314.026062) scale(0.2 -0.2)">
      <defs>
       <path id="DejaVuSans-52" d="M 2841 2188 
Q 3044 2119 3236 1894 
Q 3428 1669 3622 1275 
L 4263 0 
L 3584 0 
L 2988 1197 
Q 2756 1666 2539 1819 
Q 2322 1972 1947 1972 
L 1259 1972 
L 1259 0 
L 628 0 
L 628 4666 
L 2053 4666 
Q 2853 4666 3247 4331 
Q 3641 3997 3641 3322 
Q 3641 2881 3436 2590 
Q 3231 2300 2841 2188 
z
M 1259 4147 
L 1259 2491 
L 2053 2491 
Q 2509 2491 2742 2702 
Q 2975 2913 2975 3322 
Q 2975 3731 2742 3939 
Q 2509 4147 2053 4147 
L 1259 4147 
z
" transform="scale(0.015625)"/>
       <path id="DejaVuSans-61" d="M 2194 1759 
Q 1497 1759 1228 1600 
Q 959 1441 959 1056 
Q 959 750 1161 570 
Q 1363 391 1709 391 
Q 2188 391 2477 730 
Q 2766 1069 2766 1631 
L 2766 1759 
L 2194 1759 
z
M 3341 1997 
L 3341 0 
L 2766 0 
L 2766 531 
Q 2569 213 2275 61 
Q 1981 -91 1556 -91 
Q 1019 -91 701 211 
Q 384 513 384 1019 
Q 384 1609 779 1909 
Q 1175 2209 1959 2209 
L 2766 2209 
L 2766 2266 
Q 2766 2663 2505 2880 
Q 2244 3097 1772 3097 
Q 1472 3097 1187 3025 
Q 903 2953 641 2809 
L 641 3341 
Q 956 3463 1253 3523 
Q 1550 3584 1831 3584 
Q 2591 3584 2966 3190 
Q 3341 2797 3341 1997 
z
" transform="scale(0.015625)"/>
       <path id="DejaVuSans-6d" d="M 3328 2828 
Q 3544 3216 3844 3400 
Q 4144 3584 4550 3584 
Q 5097 3584 5394 3201 
Q 5691 2819 5691 2113 
L 5691 0 
L 5113 0 
L 5113 2094 
Q 5113 2597 4934 2840 
Q 4756 3084 4391 3084 
Q 3944 3084 3684 2787 
Q 3425 2491 3425 1978 
L 3425 0 
L 2847 0 
L 2847 2094 
Q 2847 2600 2669 2842 
Q 2491 3084 2119 3084 
Q 1678 3084 1418 2786 
Q 1159 2488 1159 1978 
L 1159 0 
L 581 0 
L 581 3500 
L 1159 3500 
L 1159 2956 
Q 1356 3278 1631 3431 
Q 1906 3584 2284 3584 
Q 2666 3584 2933 3390 
Q 3200 3197 3328 2828 
z
" transform="scale(0.015625)"/>
       <path id="DejaVuSans-6e" d="M 3513 2113 
L 3513 0 
L 2938 0 
L 2938 2094 
Q 2938 2591 2744 2837 
Q 2550 3084 2163 3084 
Q 1697 3084 1428 2787 
Q 1159 2491 1159 1978 
L 1159 0 
L 581 0 
L 581 3500 
L 1159 3500 
L 1159 2956 
Q 1366 3272 1645 3428 
Q 1925 3584 2291 3584 
Q 2894 3584 3203 3211 
Q 3513 2838 3513 2113 
z
" transform="scale(0.015625)"/>
       <path id="DejaVuSans-20" transform="scale(0.015625)"/>
       <path id="DejaVuSans-54" d="M -19 4666 
L 3928 4666 
L 3928 4134 
L 2272 4134 
L 2272 0 
L 1638 0 
L 1638 4134 
L -19 4134 
L -19 4666 
z
" transform="scale(0.015625)"/>
       <path id="DejaVuSans-69" d="M 603 3500 
L 1178 3500 
L 1178 0 
L 603 0 
L 603 3500 
z
M 603 4863 
L 1178 4863 
L 1178 4134 
L 603 4134 
L 603 4863 
z
" transform="scale(0.015625)"/>
       <path id="DejaVuSans-65" d="M 3597 1894 
L 3597 1613 
L 953 1613 
Q 991 1019 1311 708 
Q 1631 397 2203 397 
Q 2534 397 2845 478 
Q 3156 559 3463 722 
L 3463 178 
Q 3153 47 2828 -22 
Q 2503 -91 2169 -91 
Q 1331 -91 842 396 
Q 353 884 353 1716 
Q 353 2575 817 3079 
Q 1281 3584 2069 3584 
Q 2775 3584 3186 3129 
Q 3597 2675 3597 1894 
z
M 3022 2063 
Q 3016 2534 2758 2815 
Q 2500 3097 2075 3097 
Q 1594 3097 1305 2825 
Q 1016 2553 972 2059 
L 3022 2063 
z
" transform="scale(0.015625)"/>
       <path id="DejaVuSans-28" d="M 1984 4856 
Q 1566 4138 1362 3434 
Q 1159 2731 1159 2009 
Q 1159 1288 1364 580 
Q 1569 -128 1984 -844 
L 1484 -844 
Q 1016 -109 783 600 
Q 550 1309 550 2009 
Q 550 2706 781 3412 
Q 1013 4119 1484 4856 
L 1984 4856 
z
" transform="scale(0.015625)"/>
       <path id="DejaVuSans-73" d="M 2834 3397 
L 2834 2853 
Q 2591 2978 2328 3040 
Q 2066 3103 1784 3103 
Q 1356 3103 1142 2972 
Q 928 2841 928 2578 
Q 928 2378 1081 2264 
Q 1234 2150 1697 2047 
L 1894 2003 
Q 2506 1872 2764 1633 
Q 3022 1394 3022 966 
Q 3022 478 2636 193 
Q 2250 -91 1575 -91 
Q 1294 -91 989 -36 
Q 684 19 347 128 
L 347 722 
Q 666 556 975 473 
Q 1284 391 1588 391 
Q 1994 391 2212 530 
Q 2431 669 2431 922 
Q 2431 1156 2273 1281 
Q 2116 1406 1581 1522 
L 1381 1569 
Q 847 1681 609 1914 
Q 372 2147 372 2553 
Q 372 3047 722 3315 
Q 1072 3584 1716 3584 
Q 2034 3584 2315 3537 
Q 2597 3491 2834 3397 
z
" transform="scale(0.015625)"/>
       <path id="DejaVuSans-29" d="M 513 4856 
L 1013 4856 
Q 1481 4119 1714 3412 
Q 1947 2706 1947 2009 
Q 1947 1309 1714 600 
Q 1481 -109 1013 -844 
L 513 -844 
Q 928 -128 1133 580 
Q 1338 1288 1338 2009 
Q 1338 2731 1133 3434 
Q 928 4138 513 4856 
z
" transform="scale(0.015625)"/>
      </defs>
      <use xlink:href="#DejaVuSans-52"/>
      <use xlink:href="#DejaVuSans-61" transform="translate(67.232422 0)"/>
      <use xlink:href="#DejaVuSans-6d" transform="translate(128.511719 0)"/>
      <use xlink:href="#DejaVuSans-61" transform="translate(225.923828 0)"/>
      <use xlink:href="#DejaVuSans-6e" transform="translate(287.203125 0)"/>
      <use xlink:href="#DejaVuSans-20" transform="translate(350.582031 0)"/>
      <use xlink:href="#DejaVuSans-54" transform="translate(382.369141 0)"/>
      <use xlink:href="#DejaVuSans-69" transform="translate(440.328125 0)"/>
      <use xlink:href="#DejaVuSans-6d" transform="translate(468.111328 0)"/>
      <use xlink:href="#DejaVuSans-65" transform="translate(565.523438 0)"/>
      <use xlink:href="#DejaVuSans-20" transform="translate(627.046875 0)"/>
      <use xlink:href="#DejaVuSans-28" transform="translate(658.833984 0)"/>
      <use xlink:href="#DejaVuSans-6d" transform="translate(697.847656 0)"/>
      <use xlink:href="#DejaVuSans-73" transform="translate(795.259766 0)"/>
      <use xlink:href="#DejaVuSans-29" transform="translate(847.359375 0)"/>
     </g>
    </g>
   </g>
   <g id="matplotlib.axis_2">
    <g id="ytick_1">
     <g id="line2d_11">
      <path d="M 61.410938 232.371692 
L 418.530938 232.371692 
" clip-path="url(#p4131f432a9)" style="fill: none; stroke: #b0b0b0; stroke-width: 0.8; stroke-linecap: square"/>
     </g>
     <g id="line2d_12">
      <defs>
       <path id="m6f3f5b6aff" d="M 0 0 
L -3.5 0 
" style="stroke: #000000; stroke-width: 0.8"/>
      </defs>
      <g>
       <use xlink:href="#m6f3f5b6aff" x="61.410938" y="232.371692" style="stroke: #000000; stroke-width: 0.8"/>
      </g>
     </g>
     <g id="text_7">
      <!-- 0.2 -->
      <g transform="translate(30.55625 238.07052) scale(0.15 -0.15)">
       <use xlink:href="#DejaVuSans-30"/>
       <use xlink:href="#DejaVuSans-2e" transform="translate(63.623047 0)"/>
       <use xlink:href="#DejaVuSans-32" transform="translate(95.410156 0)"/>
      </g>
     </g>
    </g>
    <g id="ytick_2">
     <g id="line2d_13">
      <path d="M 61.410938 130.020923 
L 418.530938 130.020923 
" clip-path="url(#p4131f432a9)" style="fill: none; stroke: #b0b0b0; stroke-width: 0.8; stroke-linecap: square"/>
     </g>
     <g id="line2d_14">
      <g>
       <use xlink:href="#m6f3f5b6aff" x="61.410938" y="130.020923" style="stroke: #000000; stroke-width: 0.8"/>
      </g>
     </g>
     <g id="text_8">
      <!-- 0.6 -->
      <g transform="translate(30.55625 135.719751) scale(0.15 -0.15)">
       <use xlink:href="#DejaVuSans-30"/>
       <use xlink:href="#DejaVuSans-2e" transform="translate(63.623047 0)"/>
       <use xlink:href="#DejaVuSans-36" transform="translate(95.410156 0)"/>
      </g>
     </g>
    </g>
    <g id="ytick_3">
     <g id="line2d_15">
      <path d="M 61.410938 27.670154 
L 418.530938 27.670154 
" clip-path="url(#p4131f432a9)" style="fill: none; stroke: #b0b0b0; stroke-width: 0.8; stroke-linecap: square"/>
     </g>
     <g id="line2d_16">
      <g>
       <use xlink:href="#m6f3f5b6aff" x="61.410938" y="27.670154" style="stroke: #000000; stroke-width: 0.8"/>
      </g>
     </g>
     <g id="text_9">
      <!-- 1.0 -->
      <g transform="translate(30.55625 33.368982) scale(0.15 -0.15)">
       <defs>
        <path id="DejaVuSans-31" d="M 794 531 
L 1825 531 
L 1825 4091 
L 703 3866 
L 703 4441 
L 1819 4666 
L 2450 4666 
L 2450 531 
L 3481 531 
L 3481 0 
L 794 0 
L 794 531 
z
" transform="scale(0.015625)"/>
       </defs>
       <use xlink:href="#DejaVuSans-31"/>
       <use xlink:href="#DejaVuSans-2e" transform="translate(63.623047 0)"/>
       <use xlink:href="#DejaVuSans-30" transform="translate(95.410156 0)"/>
      </g>
     </g>
    </g>
    <g id="text_10">
     <!-- Atomic Fraction -->
     <g transform="translate(22.396875 218.07475) rotate(-90) scale(0.2 -0.2)">
      <defs>
       <path id="DejaVuSans-41" d="M 2188 4044 
L 1331 1722 
L 3047 1722 
L 2188 4044 
z
M 1831 4666 
L 2547 4666 
L 4325 0 
L 3669 0 
L 3244 1197 
L 1141 1197 
L 716 0 
L 50 0 
L 1831 4666 
z
" transform="scale(0.015625)"/>
       <path id="DejaVuSans-74" d="M 1172 4494 
L 1172 3500 
L 2356 3500 
L 2356 3053 
L 1172 3053 
L 1172 1153 
Q 1172 725 1289 603 
Q 1406 481 1766 481 
L 2356 481 
L 2356 0 
L 1766 0 
Q 1100 0 847 248 
Q 594 497 594 1153 
L 594 3053 
L 172 3053 
L 172 3500 
L 594 3500 
L 594 4494 
L 1172 4494 
z
" transform="scale(0.015625)"/>
       <path id="DejaVuSans-6f" d="M 1959 3097 
Q 1497 3097 1228 2736 
Q 959 2375 959 1747 
Q 959 1119 1226 758 
Q 1494 397 1959 397 
Q 2419 397 2687 759 
Q 2956 1122 2956 1747 
Q 2956 2369 2687 2733 
Q 2419 3097 1959 3097 
z
M 1959 3584 
Q 2709 3584 3137 3096 
Q 3566 2609 3566 1747 
Q 3566 888 3137 398 
Q 2709 -91 1959 -91 
Q 1206 -91 779 398 
Q 353 888 353 1747 
Q 353 2609 779 3096 
Q 1206 3584 1959 3584 
z
" transform="scale(0.015625)"/>
       <path id="DejaVuSans-63" d="M 3122 3366 
L 3122 2828 
Q 2878 2963 2633 3030 
Q 2388 3097 2138 3097 
Q 1578 3097 1268 2742 
Q 959 2388 959 1747 
Q 959 1106 1268 751 
Q 1578 397 2138 397 
Q 2388 397 2633 464 
Q 2878 531 3122 666 
L 3122 134 
Q 2881 22 2623 -34 
Q 2366 -91 2075 -91 
Q 1284 -91 818 406 
Q 353 903 353 1747 
Q 353 2603 823 3093 
Q 1294 3584 2113 3584 
Q 2378 3584 2631 3529 
Q 2884 3475 3122 3366 
z
" transform="scale(0.015625)"/>
       <path id="DejaVuSans-46" d="M 628 4666 
L 3309 4666 
L 3309 4134 
L 1259 4134 
L 1259 2759 
L 3109 2759 
L 3109 2228 
L 1259 2228 
L 1259 0 
L 628 0 
L 628 4666 
z
" transform="scale(0.015625)"/>
       <path id="DejaVuSans-72" d="M 2631 2963 
Q 2534 3019 2420 3045 
Q 2306 3072 2169 3072 
Q 1681 3072 1420 2755 
Q 1159 2438 1159 1844 
L 1159 0 
L 581 0 
L 581 3500 
L 1159 3500 
L 1159 2956 
Q 1341 3275 1631 3429 
Q 1922 3584 2338 3584 
Q 2397 3584 2469 3576 
Q 2541 3569 2628 3553 
L 2631 2963 
z
" transform="scale(0.015625)"/>
      </defs>
      <use xlink:href="#DejaVuSans-41"/>
      <use xlink:href="#DejaVuSans-74" transform="translate(66.658203 0)"/>
      <use xlink:href="#DejaVuSans-6f" transform="translate(105.867188 0)"/>
      <use xlink:href="#DejaVuSans-6d" transform="translate(167.048828 0)"/>
      <use xlink:href="#DejaVuSans-69" transform="translate(264.460938 0)"/>
      <use xlink:href="#DejaVuSans-63" transform="translate(292.244141 0)"/>
      <use xlink:href="#DejaVuSans-20" transform="translate(347.224609 0)"/>
      <use xlink:href="#DejaVuSans-46" transform="translate(379.011719 0)"/>
      <use xlink:href="#DejaVuSans-72" transform="translate(429.28125 0)"/>
      <use xlink:href="#DejaVuSans-61" transform="translate(470.394531 0)"/>
      <use xlink:href="#DejaVuSans-63" transform="translate(531.673828 0)"/>
      <use xlink:href="#DejaVuSans-74" transform="translate(586.654297 0)"/>
      <use xlink:href="#DejaVuSans-69" transform="translate(625.863281 0)"/>
      <use xlink:href="#DejaVuSans-6f" transform="translate(653.646484 0)"/>
      <use xlink:href="#DejaVuSans-6e" transform="translate(714.828125 0)"/>
     </g>
    </g>
   </g>
   <g id="LineCollection_1">
    <path d="M 61.410938 52.016137 
L 61.410938 21.272935 
" clip-path="url(#p4131f432a9)" style="fill: none; stroke: #1f77b4; stroke-width: 1.5"/>
    <path d="M 70.546565 52.955682 
L 70.546565 22.143243 
" clip-path="url(#p4131f432a9)" style="fill: none; stroke: #1f77b4; stroke-width: 1.5"/>
    <path d="M 83.834751 95.885424 
L 83.834751 66.661457 
" clip-path="url(#p4131f432a9)" style="fill: none; stroke: #1f77b4; stroke-width: 1.5"/>
    <path d="M 103.767031 207.704587 
L 103.767031 187.481243 
" clip-path="url(#p4131f432a9)" style="fill: none; stroke: #1f77b4; stroke-width: 1.5"/>
    <path d="M 113.73317 255.789262 
L 113.73317 242.466575 
" clip-path="url(#p4131f432a9)" style="fill: none; stroke: #1f77b4; stroke-width: 1.5"/>
    <path d="M 123.69931 256.895917 
L 123.69931 243.77479 
" clip-path="url(#p4131f432a9)" style="fill: none; stroke: #1f77b4; stroke-width: 1.5"/>
    <path d="M 143.631589 241.286312 
L 143.631589 225.116902 
" clip-path="url(#p4131f432a9)" style="fill: none; stroke: #1f77b4; stroke-width: 1.5"/>
    <path d="M 153.597728 208.527236 
L 153.597728 188.337429 
" clip-path="url(#p4131f432a9)" style="fill: none; stroke: #1f77b4; stroke-width: 1.5"/>
    <path d="M 163.563868 180.581621 
L 163.563868 156.912324 
" clip-path="url(#p4131f432a9)" style="fill: none; stroke: #1f77b4; stroke-width: 1.5"/>
    <path d="M 173.530007 175.596032 
L 173.530007 152.380018 
" clip-path="url(#p4131f432a9)" style="fill: none; stroke: #1f77b4; stroke-width: 1.5"/>
    <path d="M 183.496147 173.107364 
L 183.496147 148.664924 
" clip-path="url(#p4131f432a9)" style="fill: none; stroke: #1f77b4; stroke-width: 1.5"/>
    <path d="M 203.428426 191.24474 
L 203.428426 168.271007 
" clip-path="url(#p4131f432a9)" style="fill: none; stroke: #1f77b4; stroke-width: 1.5"/>
    <path d="M 223.360705 241.655186 
L 223.360705 225.622333 
" clip-path="url(#p4131f432a9)" style="fill: none; stroke: #1f77b4; stroke-width: 1.5"/>
    <path d="M 243.292984 254.453397 
L 243.292984 240.504796 
" clip-path="url(#p4131f432a9)" style="fill: none; stroke: #1f77b4; stroke-width: 1.5"/>
    <path d="M 263.225263 266.138517 
L 263.225263 255.468171 
" clip-path="url(#p4131f432a9)" style="fill: none; stroke: #1f77b4; stroke-width: 1.5"/>
    <path d="M 283.157542 229.992564 
L 283.157542 213.168078 
" clip-path="url(#p4131f432a9)" style="fill: none; stroke: #1f77b4; stroke-width: 1.5"/>
    <path d="M 303.089821 224.324717 
L 303.089821 205.363971 
" clip-path="url(#p4131f432a9)" style="fill: none; stroke: #1f77b4; stroke-width: 1.5"/>
    <path d="M 323.0221 232.553975 
L 323.0221 215.06191 
" clip-path="url(#p4131f432a9)" style="fill: none; stroke: #1f77b4; stroke-width: 1.5"/>
    <path d="M 342.954379 259.547522 
L 342.954379 247.066142 
" clip-path="url(#p4131f432a9)" style="fill: none; stroke: #1f77b4; stroke-width: 1.5"/>
    <path d="M 362.886658 271.145956 
L 362.886658 261.615362 
" clip-path="url(#p4131f432a9)" style="fill: none; stroke: #1f77b4; stroke-width: 1.5"/>
    <path d="M 382.818938 263.097987 
L 382.818938 251.430195 
" clip-path="url(#p4131f432a9)" style="fill: none; stroke: #1f77b4; stroke-width: 1.5"/>
   </g>
   <g id="line2d_17">
    <path d="M 61.410938 27.670154 
L 62.396079 27.939144 
L 63.38122 28.510222 
L 64.366362 29.380039 
L 65.351503 30.544481 
L 66.336645 31.998688 
L 67.650166 34.378627 
L 68.963688 37.248542 
L 70.605591 41.498489 
L 72.247493 46.448888 
L 73.889395 52.057245 
L 75.859678 59.589971 
L 78.158342 69.373882 
L 80.785385 81.684629 
L 83.74081 96.688612 
L 87.681375 118.000377 
L 99.174692 181.10773 
L 102.458497 197.412811 
L 105.08554 209.389913 
L 107.384204 218.948995 
L 109.682867 227.549363 
L 111.65315 234.098525 
L 113.623433 239.846584 
L 115.265335 244.002831 
L 116.907238 247.569522 
L 118.54914 250.538888 
L 119.862662 252.481962 
L 121.176184 254.040949 
L 122.489706 255.218012 
L 123.474847 255.852459 
L 124.459988 256.276519 
L 125.44513 256.492996 
L 126.430271 256.505209 
L 127.415413 256.31697 
L 128.400554 255.932573 
L 129.385696 255.356775 
L 130.699217 254.300363 
L 132.012739 252.926474 
L 133.326261 251.249866 
L 134.968164 248.752766 
L 136.610066 245.841057 
L 138.580349 241.850207 
L 140.879012 236.592471 
L 143.506056 229.924997 
L 146.46148 221.788975 
L 151.058807 208.365922 
L 157.626416 189.217595 
L 160.910221 180.355044 
L 163.537265 173.866108 
L 165.835928 168.734146 
L 167.806211 164.799336 
L 169.776494 161.334933 
L 171.418396 158.831686 
L 173.060298 156.694676 
L 174.702201 154.93696 
L 176.015723 153.810673 
L 177.329245 152.937226 
L 178.642767 152.319008 
L 179.956288 151.957146 
L 181.26981 151.851517 
L 182.583332 152.000774 
L 183.896854 152.402372 
L 185.210376 153.052594 
L 186.523898 153.946596 
L 187.83742 155.078443 
L 189.479322 156.816994 
L 191.121225 158.900404 
L 192.763127 161.310619 
L 194.73341 164.605777 
L 197.032073 168.956805 
L 199.330736 173.789788 
L 201.95778 179.811 
L 205.241585 187.917276 
L 209.838912 199.933164 
L 218.048423 221.478869 
L 221.660609 230.273426 
L 224.616033 236.896277 
L 227.243077 242.247936 
L 229.54174 246.459984 
L 231.840403 250.192369 
L 233.810686 252.986516 
L 235.780969 255.39136 
L 237.422871 257.090658 
L 239.064774 258.509128 
L 240.706676 259.645431 
L 242.348578 260.50031 
L 243.990481 261.076534 
L 245.632383 261.378847 
L 247.274285 261.413883 
L 248.916188 261.190087 
L 250.55809 260.717608 
L 252.199993 260.008198 
L 253.841895 259.075087 
L 255.812178 257.680687 
L 257.782461 256.012706 
L 260.081124 253.760621 
L 262.708168 250.844806 
L 265.663592 247.222908 
L 269.604158 242.025491 
L 279.127191 229.303681 
L 282.410996 225.358521 
L 285.03804 222.51366 
L 287.665084 220.005636 
L 289.963747 218.124439 
L 291.93403 216.76559 
L 293.904313 215.654792 
L 295.874596 214.802154 
L 297.844878 214.214755 
L 299.815161 213.896653 
L 301.457064 213.838135 
L 303.098966 213.966473 
L 305.069249 214.363765 
L 307.039532 215.020178 
L 309.009815 215.926548 
L 310.980097 217.071249 
L 313.278761 218.689286 
L 315.577424 220.587081 
L 318.204468 223.061224 
L 321.159892 226.176381 
L 324.443697 229.962893 
L 329.041023 235.640745 
L 339.549199 248.774447 
L 343.161384 252.87974 
L 346.445188 256.265913 
L 349.400613 258.971684 
L 352.027657 261.07018 
L 354.32632 262.651151 
L 356.624983 263.9825 
L 358.923646 265.057297 
L 361.22231 265.872444 
L 363.520973 266.428604 
L 365.819636 266.730092 
L 368.1183 266.784707 
L 370.416963 266.603519 
L 372.715626 266.20062 
L 375.34267 265.490382 
L 377.969714 264.541559 
L 380.925138 263.22938 
L 384.208943 261.526521 
L 388.477889 259.044416 
L 389.463031 258.444211 
L 389.463031 258.444211 
" clip-path="url(#p4131f432a9)" style="fill: none; stroke: #1f77b4; stroke-width: 1.5; stroke-linecap: square"/>
   </g>
   <g id="line2d_18">
    <defs>
     <path id="mcceb8b8273" d="M 0 3 
C 0.795609 3 1.55874 2.683901 2.12132 2.12132 
C 2.683901 1.55874 3 0.795609 3 0 
C 3 -0.795609 2.683901 -1.55874 2.12132 -2.12132 
C 1.55874 -2.683901 0.795609 -3 0 -3 
C -0.795609 -3 -1.55874 -2.683901 -2.12132 -2.12132 
C -2.683901 -1.55874 -3 -0.795609 -3 0 
C -3 0.795609 -2.683901 1.55874 -2.12132 2.12132 
C -1.55874 2.683901 -0.795609 3 0 3 
z
" style="stroke: #1f77b4"/>
    </defs>
    <g clip-path="url(#p4131f432a9)">
     <use xlink:href="#mcceb8b8273" x="61.410938" y="36.644536" style="fill: #1f77b4; stroke: #1f77b4"/>
     <use xlink:href="#mcceb8b8273" x="70.546565" y="37.549462" style="fill: #1f77b4; stroke: #1f77b4"/>
     <use xlink:href="#mcceb8b8273" x="83.834751" y="81.27344" style="fill: #1f77b4; stroke: #1f77b4"/>
     <use xlink:href="#mcceb8b8273" x="103.767031" y="197.592915" style="fill: #1f77b4; stroke: #1f77b4"/>
     <use xlink:href="#mcceb8b8273" x="113.73317" y="249.127918" style="fill: #1f77b4; stroke: #1f77b4"/>
     <use xlink:href="#mcceb8b8273" x="123.69931" y="250.335353" style="fill: #1f77b4; stroke: #1f77b4"/>
     <use xlink:href="#mcceb8b8273" x="143.631589" y="233.201607" style="fill: #1f77b4; stroke: #1f77b4"/>
     <use xlink:href="#mcceb8b8273" x="153.597728" y="198.432332" style="fill: #1f77b4; stroke: #1f77b4"/>
     <use xlink:href="#mcceb8b8273" x="163.563868" y="168.746973" style="fill: #1f77b4; stroke: #1f77b4"/>
     <use xlink:href="#mcceb8b8273" x="173.530007" y="163.988025" style="fill: #1f77b4; stroke: #1f77b4"/>
     <use xlink:href="#mcceb8b8273" x="183.496147" y="160.886144" style="fill: #1f77b4; stroke: #1f77b4"/>
     <use xlink:href="#mcceb8b8273" x="203.428426" y="179.757874" style="fill: #1f77b4; stroke: #1f77b4"/>
     <use xlink:href="#mcceb8b8273" x="223.360705" y="233.63876" style="fill: #1f77b4; stroke: #1f77b4"/>
     <use xlink:href="#mcceb8b8273" x="243.292984" y="247.479096" style="fill: #1f77b4; stroke: #1f77b4"/>
     <use xlink:href="#mcceb8b8273" x="263.225263" y="260.803344" style="fill: #1f77b4; stroke: #1f77b4"/>
     <use xlink:href="#mcceb8b8273" x="283.157542" y="221.580321" style="fill: #1f77b4; stroke: #1f77b4"/>
     <use xlink:href="#mcceb8b8273" x="303.089821" y="214.844344" style="fill: #1f77b4; stroke: #1f77b4"/>
     <use xlink:href="#mcceb8b8273" x="323.0221" y="223.807942" style="fill: #1f77b4; stroke: #1f77b4"/>
     <use xlink:href="#mcceb8b8273" x="342.954379" y="253.306832" style="fill: #1f77b4; stroke: #1f77b4"/>
     <use xlink:href="#mcceb8b8273" x="362.886658" y="266.380659" style="fill: #1f77b4; stroke: #1f77b4"/>
     <use xlink:href="#mcceb8b8273" x="382.818938" y="257.264091" style="fill: #1f77b4; stroke: #1f77b4"/>
    </g>
   </g>
   <g id="patch_3">
    <path d="M 61.410938 273.312 
L 61.410938 7.2 
" style="fill: none; stroke: #000000; stroke-width: 0.8; stroke-linejoin: miter; stroke-linecap: square"/>
   </g>
   <g id="patch_4">
    <path d="M 418.530938 273.312 
L 418.530938 7.2 
" style="fill: none; stroke: #000000; stroke-width: 0.8; stroke-linejoin: miter; stroke-linecap: square"/>
   </g>
   <g id="patch_5">
    <path d="M 61.410938 273.312 
L 418.530938 273.312 
" style="fill: none; stroke: #000000; stroke-width: 0.8; stroke-linejoin: miter; stroke-linecap: square"/>
   </g>
   <g id="patch_6">
    <path d="M 61.410938 7.2 
L 418.530938 7.2 
" style="fill: none; stroke: #000000; stroke-width: 0.8; stroke-linejoin: miter; stroke-linecap: square"/>
   </g>
  </g>
 </g>
 <defs>
  <clipPath id="p4131f432a9">
   <rect x="61.410938" y="7.2" width="357.12" height="266.112"/>
  </clipPath>
 </defs>
</svg>
