<?xml version="1.0" encoding="UTF-8" standalone="no"?>
<!-- Created with Inkscape (http://www.inkscape.org/) -->

<svg
   xmlns:ns="http://ns.adobe.com/SaveForWeb/1.0/"
   xmlns:dc="http://purl.org/dc/elements/1.1/"
   xmlns:cc="http://creativecommons.org/ns#"
   xmlns:rdf="http://www.w3.org/1999/02/22-rdf-syntax-ns#"
   xmlns:svg="http://www.w3.org/2000/svg"
   xmlns="http://www.w3.org/2000/svg"
   xmlns:sodipodi="http://sodipodi.sourceforge.net/DTD/sodipodi-0.dtd"
   xmlns:inkscape="http://www.inkscape.org/namespaces/inkscape"
   version="1.1"
   width="396.85001"
   height="680.31403"
   viewBox="0 0 396.85001 680.31403"
   id="svg2"
   xml:space="preserve"
   inkscape:version="0.48.2 r9819"
   sodipodi:docname="Pfeilhöhe.svg"><sodipodi:namedview
     pagecolor="#ffffff"
     bordercolor="#666666"
     borderopacity="1"
     objecttolerance="10"
     gridtolerance="10"
     guidetolerance="10"
     inkscape:pageopacity="0"
     inkscape:pageshadow="2"
     inkscape:window-width="1024"
     inkscape:window-height="719"
     id="namedview3017"
     showgrid="false"
     showguides="true"
     inkscape:guide-bbox="true"
     inkscape:snap-center="true"
     inkscape:snap-object-midpoints="true"
     inkscape:snap-bbox="true"
     inkscape:zoom="0.73495471"
     inkscape:cx="179.37621"
     inkscape:cy="340.15701"
     inkscape:window-x="-4"
     inkscape:window-y="-4"
     inkscape:window-maximized="1"
     inkscape:current-layer="svg2"
     showborder="true" /><defs
     id="defs41" /><metadata
     id="metadata3">
	<ns:sfw>
		<ns:slices />
		<ns:sliceSourceBounds
   bottomLeftOrigin="true"
   y="79.604"
   x="93.038"
   width="396.85"
   height="680.314" />
	</ns:sfw>
<rdf:RDF><cc:Work
     rdf:about=""><dc:format>image/svg+xml</dc:format><dc:type
       rdf:resource="http://purl.org/dc/dcmitype/StillImage" /><dc:title /></cc:Work></rdf:RDF></metadata><path
     d="m 279.078,623.421 h -51.81 c -7.916,-30.314 -15.832,-60.629 -29.899,-87.684 -13.855,-26.647 -33.678,-50.133 -49.646,-76.556 -21.684,-35.882 -36.26,-77.18 -36.264,-118.48 -0.004,-41.3 14.563,-82.602 36.264,-118.48 15.981,-26.421 35.831,-49.9 49.646,-76.556 14.241,-27.476 22.07,-58.324 29.899,-89.174 h 51.81 c 44.597,185.456 44.597,381.475 0,566.93 z"
     id="path7"
     style="fill:#cce2ef" /><path
     d="M 108.336,173.099 H 63.944998 c -0.414,0 -0.75,-0.336 -0.75,-0.75 0,-0.414 0.336,-0.75 0.75,-0.75 H 108.336 c 0.414,0 0.75,0.336 0.75,0.75 0,0.414 -0.336,0.75 -0.75,0.75 z"
     id="path9" /><polygon
     points="159.526,272.882 159.526,400.26 155.957,400.26 160.526,420.179 165.097,400.26 161.526,400.26 161.526,272.882 165.097,272.882 160.526,252.965 155.957,272.882 "
     transform="translate(-93.038002,-80.083)"
     id="polygon11" /><rect
     width="1.5"
     height="566.92902"
     x="110.70899"
     y="56.491997"
     id="rect13" /><path
     d="m 239.226,512.701 c -4.074,-1.221 -8.164,-2.604 -12.157,-4.11 l 0.529,-1.404 c 3.961,1.495 8.018,2.867 12.058,4.077 l -0.43,1.437 z m -16.831,-5.947 c -1.54,-0.63 -3.094,-1.291 -4.619,-1.964 l 0.605,-1.373 c 1.513,0.668 3.055,1.323 4.582,1.948 l -0.568,1.389 z m -9.186,-4.053 c -1.52,-0.722 -3.036,-1.466 -4.506,-2.213 l 0.68,-1.338 c 1.458,0.741 2.962,1.479 4.469,2.195 l -0.643,1.356 z m -8.949,-4.55 c -7.359,-3.995 -14.48,-8.524 -21.166,-13.462 l 0.892,-1.207 c 6.629,4.897 13.691,9.389 20.989,13.351 l -0.715,1.318 z m -25.162,-16.5 c -1.319,-1.034 -2.634,-2.094 -3.909,-3.152 l 0.958,-1.154 c 1.264,1.049 2.568,2.101 3.875,3.125 l -0.924,1.181 z m -7.726,-6.413 c -1.245,-1.095 -2.498,-2.229 -3.722,-3.371 l 1.022,-1.098 c 1.214,1.133 2.456,2.257 3.69,3.342 l -0.99,1.127 z m -7.347,-6.849 -0.719,-0.716 c -5.623,-5.622 -10.939,-11.731 -15.801,-18.16 l 1.196,-0.904 c 4.82,6.373 10.091,12.431 15.665,18.004 l 0.716,0.712 -1.057,1.064 z m -19.493,-22.923 c -0.972,-1.363 -1.934,-2.753 -2.857,-4.128 l 1.245,-0.836 c 0.916,1.363 1.869,2.74 2.833,4.093 l -1.221,0.871 z m -5.598,-8.336 c -0.892,-1.412 -1.775,-2.853 -2.623,-4.28 l 1.289,-0.766 c 0.842,1.415 1.717,2.844 2.603,4.245 l -1.269,0.801 z m -5.129,-8.631 c -4.057,-7.279 -7.653,-14.914 -10.688,-22.692 l 1.397,-0.545 c 3.01,7.715 6.577,15.287 10.601,22.507 l -1.31,0.73 z m -12.448,-27.394 c -0.565,-1.574 -1.114,-3.171 -1.631,-4.746 l 1.425,-0.469 c 0.513,1.562 1.058,3.146 1.619,4.709 l -1.413,0.506 z m -3.134,-9.54 c -0.477,-1.598 -0.937,-3.223 -1.369,-4.829 l 1.448,-0.389 c 0.428,1.593 0.885,3.204 1.358,4.79 l -1.437,0.428 z m -2.606,-9.693 c -1.952,-8.157 -3.34,-16.482 -4.125,-24.742 l 1.493,-0.143 c 0.779,8.191 2.155,16.446 4.091,24.535 l -1.459,0.35 z m -4.53,-29.749 c -0.11,-1.677 -0.197,-3.364 -0.259,-5.014 l 1.499,-0.057 c 0.061,1.636 0.147,3.309 0.257,4.973 l -1.497,0.098 z m -0.372,-10.035 c -0.004,-0.465 -0.006,-0.931 -0.006,-1.396 0,-1.209 0.013,-2.418 0.038,-3.626 l 1.5,0.031 c -0.025,1.198 -0.038,2.396 -0.038,3.595 0,0.461 0.002,0.923 0.006,1.384 l -1.5,0.012 z m 1.709,-9.964 -1.498,-0.075 c 0.416,-8.285 1.438,-16.663 3.037,-24.9 l 1.473,0.286 c -1.586,8.167 -2.599,16.474 -3.012,24.689 z m 4.029,-29.564 -1.464,-0.326 c 0.36,-1.615 0.75,-3.259 1.161,-4.885 l 1.454,0.367 c -0.407,1.613 -0.794,3.243 -1.151,4.844 z m 2.436,-9.655 -1.443,-0.407 c 0.453,-1.606 0.933,-3.226 1.428,-4.813 l 1.432,0.446 c -0.491,1.575 -0.968,3.181 -1.417,4.774 z m 2.963,-9.507 -1.419,-0.485 c 2.7,-7.894 5.969,-15.675 9.715,-23.125 l 1.34,0.674 c -3.715,7.39 -6.958,15.107 -9.636,22.936 z m 11.934,-27.353 -1.321,-0.71 c 0.781,-1.454 1.601,-2.931 2.438,-4.389 l 1.301,0.746 c -0.83,1.446 -1.643,2.911 -2.418,4.353 z m 4.954,-8.638 -1.28,-0.781 c 0.868,-1.422 1.769,-2.852 2.676,-4.249 l 1.258,0.817 c -0.9,1.385 -1.793,2.803 -2.654,4.213 z m 5.424,-8.35 -1.234,-0.852 c 4.765,-6.909 10.036,-13.5 15.665,-19.592 l 1.102,1.018 c -5.582,6.04 -10.807,12.576 -15.533,19.426 z m 18.963,-23.033 -1.071,-1.05 c 0.415,-0.423 0.832,-0.845 1.251,-1.264 0.765,-0.765 1.537,-1.522 2.316,-2.272 l 1.04,1.08 c -0.772,0.744 -1.537,1.494 -2.295,2.252 -0.417,0.418 -0.83,0.835 -1.241,1.254 z m 7.171,-6.906 -1.009,-1.11 c 1.234,-1.121 2.501,-2.239 3.765,-3.322 l 0.977,1.139 c -1.254,1.073 -2.509,2.182 -3.733,3.293 z m 7.558,-6.479 -0.943,-1.166 c 6.454,-5.221 13.372,-10.054 20.562,-14.367 l 0.771,1.286 c -7.13,4.277 -13.99,9.07 -20.39,14.247 z"
     id="path15" /><path
     d="m 280.328,56.348 v -1.106 h -0.265 -1.396 -52.372 l -0.239,0.942 c -7.68,30.264 -15.622,61.558 -29.797,88.906 -8.005,15.444 -18.284,30.159 -28.224,44.389 -7.219,10.334 -14.683,21.02 -21.382,32.095 -23.847,39.425 -36.449,80.619 -36.445,119.127 0.004,38.487 12.606,79.68 36.444,119.126 6.718,11.117 14.205,21.842 21.445,32.214 9.909,14.194 20.155,28.872 28.162,44.272 14.002,26.93 22.032,57.682 29.798,87.422 l 0.244,0.935 h 53.761 l 0.229,-0.958 c 44.631,-185.584 44.642,-381.773 0.037,-567.364 z m 0,556.309 V 67.256 c 41.26,178.661 41.26,366.741 0,545.401 z m -53.764,3.133 c -7.241,-27.564 -15.104,-55.663 -28.085,-80.629 -8.082,-15.544 -18.375,-30.29 -28.33,-44.551 -7.217,-10.338 -14.68,-21.029 -21.355,-32.075 -23.603,-39.056 -36.08,-79.802 -36.084,-117.833 -0.004,-38.052 12.474,-78.798 36.084,-117.833 6.656,-11.005 14.097,-21.656 21.292,-31.957 9.987,-14.296 20.314,-29.08 28.395,-44.67 13.129,-25.331 20.927,-53.886 28.084,-81.909 V 615.79 z m 2.5,-558.048 h 48.765 V 622.171 H 229.064 V 57.742 z"
     id="path17" /><path
     d="m 349.273,341.452 h -5.328 v -1.5 h 5.328 v 1.5 z m -10.329,0 h -5 v -1.5 h 5 v 1.5 z m -10,0 h -25 v -1.5 h 25 v 1.5 z m -30,0 h -5 v -1.5 h 5 v 1.5 z m -10,0 h -25 v -1.5 h 25 v 1.5 z m -30,0 h -5 v -1.5 h 5 v 1.5 z m -10,0 h -25 v -1.5 h 25 v 1.5 z m -30,0 h -5 v -1.5 h 5 v 1.5 z m -10,0 h -25 v -1.5 h 25 v 1.5 z m -29.999,0 h -5 v -1.5 h 5 v 1.5 z m -10,0 h -25 v -1.5 h 25 v 1.5 z m -30,0 h -5 v -1.5 h 5 v 1.5 z m -10,0 h -25 v -1.5 h 25 v 1.5 z m -30.000002,0 h -5 v -1.5 h 5 v 1.5 z m -10,0 h -25 v -1.5 h 25 v 1.5 z"
     id="path19" /><polygon
     points="204.28,254.761 241.11,254.761 241.11,261.381 276.363,252.568 241.11,243.755 241.11,250.253 204.28,250.253 "
     transform="translate(-93.038002,-80.083)"
     id="polygon33"
     style="fill:#ff0000" /><polygon
     points="314.869,547.802 307.765,583.438 330.802,555.336 324.928,552.559 386.458,422.444 382.383,420.516 320.852,550.631 "
     transform="translate(-93.038002,-80.083)"
     id="polygon37"
     style="fill:#ff0000" /><text
     xml:space="preserve"
     style="font-size:36px;font-style:italic;font-variant:normal;font-weight:normal;font-stretch:normal;text-indent:0;text-align:start;text-decoration:none;line-height:125%;letter-spacing:0px;word-spacing:0px;text-transform:none;direction:ltr;block-progression:tb;writing-mode:lr-tb;text-anchor:start;baseline-shift:baseline;color:#000000;fill:#00000f;fill-opacity:0.94117647;fill-rule:nonzero;stroke:none;stroke-width:1px;marker:none;visibility:visible;display:inline;overflow:visible;enable-background:accumulate;font-family:DejaVu Serif;-inkscape-font-specification:DejaVu Serif Italic"
     x="35.238895"
     y="264.70767"
     id="text3791"
     sodipodi:linespacing="125%"><tspan
       sodipodi:role="line"
       id="tspan3793"
       x="35.238895"
       y="264.70767">r</tspan></text>
<text
     xml:space="preserve"
     style="font-size:36px;font-style:italic;font-variant:normal;font-weight:normal;font-stretch:normal;text-indent:0;text-align:start;text-decoration:none;line-height:125%;letter-spacing:0px;word-spacing:0px;text-transform:none;direction:ltr;block-progression:tb;writing-mode:lr-tb;text-anchor:start;baseline-shift:baseline;color:#000000;fill:#00000f;fill-opacity:0.94117647;fill-rule:nonzero;stroke:none;stroke-width:1px;marker:none;visibility:visible;display:inline;overflow:visible;enable-background:accumulate;font-family:DejaVu Serif;-inkscape-font-specification:DejaVu Serif Italic"
     x="245.48479"
     y="471.25134"
     id="text3791-4"
     sodipodi:linespacing="125%"><tspan
       sodipodi:role="line"
       id="tspan3793-0"
       x="245.48479"
       y="471.25134">R</tspan></text>
<text
     xml:space="preserve"
     style="font-size:36px;font-style:italic;font-variant:normal;font-weight:normal;font-stretch:normal;text-indent:0;text-align:start;text-decoration:none;line-height:125%;letter-spacing:0px;word-spacing:0px;text-transform:none;direction:ltr;block-progression:tb;writing-mode:lr-tb;text-anchor:start;baseline-shift:baseline;color:#000000;fill:#00000f;fill-opacity:0.94117647;fill-rule:nonzero;stroke:none;stroke-width:1px;marker:none;visibility:visible;display:inline;overflow:visible;enable-background:accumulate;font-family:DejaVu Serif;-inkscape-font-specification:DejaVu Serif Italic"
     x="127.44849"
     y="156.74628"
     id="text3791-9"
     sodipodi:linespacing="125%"><tspan
       sodipodi:role="line"
       id="tspan3793-4"
       x="127.44849"
       y="156.74628">z</tspan></text>
</svg>