<?xml version="1.0" encoding="utf-8" standalone="no"?>
<!DOCTYPE svg PUBLIC "-//W3C//DTD SVG 1.1//EN"
  "http://www.w3.org/Graphics/SVG/1.1/DTD/svg11.dtd">
<svg xmlns:xlink="http://www.w3.org/1999/xlink" width="416.695pt" height="302.029187pt" viewBox="0 0 416.695 302.029187" xmlns="http://www.w3.org/2000/svg" version="1.1">
 <defs>
  <style type="text/css">*{stroke-linejoin: round; stroke-linecap: butt}</style>
 </defs>
 <g id="figure_1">
  <g id="patch_1">
   <path d="M 0 302.029187 
L 416.695 302.029187 
L 416.695 0 
L 0 0 
L 0 302.029187 
z
" style="fill: none"/>
  </g>
  <g id="axes_1">
   <g id="patch_2">
    <path d="M 52.375 273.312 
L 409.495 273.312 
L 409.495 7.2 
L 52.375 7.2 
L 52.375 273.312 
z
" style="fill: none"/>
   </g>
   <g id="matplotlib.axis_1">
    <g id="xtick_1">
     <g id="line2d_1">
      <path d="M 87.428281 273.312 
L 87.428281 7.2 
" clip-path="url(#p8bc00dfc79)" style="fill: none; stroke: #b0b0b0; stroke-width: 0.8; stroke-linecap: square"/>
     </g>
     <g id="line2d_2">
      <defs>
       <path id="md39032bed2" d="M 0 0 
L 0 3.5 
" style="stroke: #000000; stroke-width: 0.8"/>
      </defs>
      <g>
       <use xlink:href="#md39032bed2" x="87.428281" y="273.312" style="stroke: #000000; stroke-width: 0.8"/>
      </g>
     </g>
     <g id="text_1">
      <!-- 250 -->
      <g transform="translate(73.112656 291.709656) scale(0.15 -0.15)">
       <defs>
        <path id="DejaVuSans-32" d="M 1228 531 
L 3431 531 
L 3431 0 
L 469 0 
L 469 531 
Q 828 903 1448 1529 
Q 2069 2156 2228 2338 
Q 2531 2678 2651 2914 
Q 2772 3150 2772 3378 
Q 2772 3750 2511 3984 
Q 2250 4219 1831 4219 
Q 1534 4219 1204 4116 
Q 875 4013 500 3803 
L 500 4441 
Q 881 4594 1212 4672 
Q 1544 4750 1819 4750 
Q 2544 4750 2975 4387 
Q 3406 4025 3406 3419 
Q 3406 3131 3298 2873 
Q 3191 2616 2906 2266 
Q 2828 2175 2409 1742 
Q 1991 1309 1228 531 
z
" transform="scale(0.015625)"/>
        <path id="DejaVuSans-35" d="M 691 4666 
L 3169 4666 
L 3169 4134 
L 1269 4134 
L 1269 2991 
Q 1406 3038 1543 3061 
Q 1681 3084 1819 3084 
Q 2600 3084 3056 2656 
Q 3513 2228 3513 1497 
Q 3513 744 3044 326 
Q 2575 -91 1722 -91 
Q 1428 -91 1123 -41 
Q 819 9 494 109 
L 494 744 
Q 775 591 1075 516 
Q 1375 441 1709 441 
Q 2250 441 2565 725 
Q 2881 1009 2881 1497 
Q 2881 1984 2565 2268 
Q 2250 2553 1709 2553 
Q 1456 2553 1204 2497 
Q 953 2441 691 2322 
L 691 4666 
z
" transform="scale(0.015625)"/>
        <path id="DejaVuSans-30" d="M 2034 4250 
Q 1547 4250 1301 3770 
Q 1056 3291 1056 2328 
Q 1056 1369 1301 889 
Q 1547 409 2034 409 
Q 2525 409 2770 889 
Q 3016 1369 3016 2328 
Q 3016 3291 2770 3770 
Q 2525 4250 2034 4250 
z
M 2034 4750 
Q 2819 4750 3233 4129 
Q 3647 3509 3647 2328 
Q 3647 1150 3233 529 
Q 2819 -91 2034 -91 
Q 1250 -91 836 529 
Q 422 1150 422 2328 
Q 422 3509 836 4129 
Q 1250 4750 2034 4750 
z
" transform="scale(0.015625)"/>
       </defs>
       <use xlink:href="#DejaVuSans-32"/>
       <use xlink:href="#DejaVuSans-35" x="63.623047"/>
       <use xlink:href="#DejaVuSans-30" x="127.246094"/>
      </g>
     </g>
    </g>
    <g id="xtick_2">
     <g id="line2d_3">
      <path d="M 146.24251 273.312 
L 146.24251 7.2 
" clip-path="url(#p8bc00dfc79)" style="fill: none; stroke: #b0b0b0; stroke-width: 0.8; stroke-linecap: square"/>
     </g>
     <g id="line2d_4">
      <g>
       <use xlink:href="#md39032bed2" x="146.24251" y="273.312" style="stroke: #000000; stroke-width: 0.8"/>
      </g>
     </g>
     <g id="text_2">
      <!-- 500 -->
      <g transform="translate(131.926885 291.709656) scale(0.15 -0.15)">
       <use xlink:href="#DejaVuSans-35"/>
       <use xlink:href="#DejaVuSans-30" x="63.623047"/>
       <use xlink:href="#DejaVuSans-30" x="127.246094"/>
      </g>
     </g>
    </g>
    <g id="xtick_3">
     <g id="line2d_5">
      <path d="M 205.056739 273.312 
L 205.056739 7.2 
" clip-path="url(#p8bc00dfc79)" style="fill: none; stroke: #b0b0b0; stroke-width: 0.8; stroke-linecap: square"/>
     </g>
     <g id="line2d_6">
      <g>
       <use xlink:href="#md39032bed2" x="205.056739" y="273.312" style="stroke: #000000; stroke-width: 0.8"/>
      </g>
     </g>
     <g id="text_3">
      <!-- 750 -->
      <g transform="translate(190.741114 291.709656) scale(0.15 -0.15)">
       <defs>
        <path id="DejaVuSans-37" d="M 525 4666 
L 3525 4666 
L 3525 4397 
L 1831 0 
L 1172 0 
L 2766 4134 
L 525 4134 
L 525 4666 
z
" transform="scale(0.015625)"/>
       </defs>
       <use xlink:href="#DejaVuSans-37"/>
       <use xlink:href="#DejaVuSans-35" x="63.623047"/>
       <use xlink:href="#DejaVuSans-30" x="127.246094"/>
      </g>
     </g>
    </g>
    <g id="xtick_4">
     <g id="line2d_7">
      <path d="M 263.870968 273.312 
L 263.870968 7.2 
" clip-path="url(#p8bc00dfc79)" style="fill: none; stroke: #b0b0b0; stroke-width: 0.8; stroke-linecap: square"/>
     </g>
     <g id="line2d_8">
      <g>
       <use xlink:href="#md39032bed2" x="263.870968" y="273.312" style="stroke: #000000; stroke-width: 0.8"/>
      </g>
     </g>
     <g id="text_4">
      <!-- 1000 -->
      <g transform="translate(244.783468 291.709656) scale(0.15 -0.15)">
       <defs>
        <path id="DejaVuSans-31" d="M 794 531 
L 1825 531 
L 1825 4091 
L 703 3866 
L 703 4441 
L 1819 4666 
L 2450 4666 
L 2450 531 
L 3481 531 
L 3481 0 
L 794 0 
L 794 531 
z
" transform="scale(0.015625)"/>
       </defs>
       <use xlink:href="#DejaVuSans-31"/>
       <use xlink:href="#DejaVuSans-30" x="63.623047"/>
       <use xlink:href="#DejaVuSans-30" x="127.246094"/>
       <use xlink:href="#DejaVuSans-30" x="190.869141"/>
      </g>
     </g>
    </g>
    <g id="xtick_5">
     <g id="line2d_9">
      <path d="M 322.685198 273.312 
L 322.685198 7.2 
" clip-path="url(#p8bc00dfc79)" style="fill: none; stroke: #b0b0b0; stroke-width: 0.8; stroke-linecap: square"/>
     </g>
     <g id="line2d_10">
      <g>
       <use xlink:href="#md39032bed2" x="322.685198" y="273.312" style="stroke: #000000; stroke-width: 0.8"/>
      </g>
     </g>
     <g id="text_5">
      <!-- 1250 -->
      <g transform="translate(303.597698 291.709656) scale(0.15 -0.15)">
       <use xlink:href="#DejaVuSans-31"/>
       <use xlink:href="#DejaVuSans-32" x="63.623047"/>
       <use xlink:href="#DejaVuSans-35" x="127.246094"/>
       <use xlink:href="#DejaVuSans-30" x="190.869141"/>
      </g>
     </g>
    </g>
    <g id="xtick_6">
     <g id="line2d_11">
      <path d="M 381.499427 273.312 
L 381.499427 7.2 
" clip-path="url(#p8bc00dfc79)" style="fill: none; stroke: #b0b0b0; stroke-width: 0.8; stroke-linecap: square"/>
     </g>
     <g id="line2d_12">
      <g>
       <use xlink:href="#md39032bed2" x="381.499427" y="273.312" style="stroke: #000000; stroke-width: 0.8"/>
      </g>
     </g>
     <g id="text_6">
      <!-- 1500 -->
      <g transform="translate(362.411927 291.709656) scale(0.15 -0.15)">
       <use xlink:href="#DejaVuSans-31"/>
       <use xlink:href="#DejaVuSans-35" x="63.623047"/>
       <use xlink:href="#DejaVuSans-30" x="127.246094"/>
       <use xlink:href="#DejaVuSans-30" x="190.869141"/>
      </g>
     </g>
    </g>
   </g>
   <g id="matplotlib.axis_2">
    <g id="ytick_1">
     <g id="line2d_13">
      <path d="M 52.375 221.280641 
L 409.495 221.280641 
" clip-path="url(#p8bc00dfc79)" style="fill: none; stroke: #b0b0b0; stroke-width: 0.8; stroke-linecap: square"/>
     </g>
     <g id="line2d_14">
      <defs>
       <path id="m6f3f5b6aff" d="M 0 0 
L -3.5 0 
" style="stroke: #000000; stroke-width: 0.8"/>
      </defs>
      <g>
       <use xlink:href="#m6f3f5b6aff" x="52.375" y="221.280641" style="stroke: #000000; stroke-width: 0.8"/>
      </g>
     </g>
     <g id="text_7">
      <!-- 1000 -->
      <g transform="translate(7.2 226.979469) scale(0.15 -0.15)">
       <use xlink:href="#DejaVuSans-31"/>
       <use xlink:href="#DejaVuSans-30" x="63.623047"/>
       <use xlink:href="#DejaVuSans-30" x="127.246094"/>
       <use xlink:href="#DejaVuSans-30" x="190.869141"/>
      </g>
     </g>
    </g>
    <g id="ytick_2">
     <g id="line2d_15">
      <path d="M 52.375 158.881643 
L 409.495 158.881643 
" clip-path="url(#p8bc00dfc79)" style="fill: none; stroke: #b0b0b0; stroke-width: 0.8; stroke-linecap: square"/>
     </g>
     <g id="line2d_16">
      <g>
       <use xlink:href="#m6f3f5b6aff" x="52.375" y="158.881643" style="stroke: #000000; stroke-width: 0.8"/>
      </g>
     </g>
     <g id="text_8">
      <!-- 1200 -->
      <g transform="translate(7.2 164.580472) scale(0.15 -0.15)">
       <use xlink:href="#DejaVuSans-31"/>
       <use xlink:href="#DejaVuSans-32" x="63.623047"/>
       <use xlink:href="#DejaVuSans-30" x="127.246094"/>
       <use xlink:href="#DejaVuSans-30" x="190.869141"/>
      </g>
     </g>
    </g>
    <g id="ytick_3">
     <g id="line2d_17">
      <path d="M 52.375 96.482646 
L 409.495 96.482646 
" clip-path="url(#p8bc00dfc79)" style="fill: none; stroke: #b0b0b0; stroke-width: 0.8; stroke-linecap: square"/>
     </g>
     <g id="line2d_18">
      <g>
       <use xlink:href="#m6f3f5b6aff" x="52.375" y="96.482646" style="stroke: #000000; stroke-width: 0.8"/>
      </g>
     </g>
     <g id="text_9">
      <!-- 1400 -->
      <g transform="translate(7.2 102.181474) scale(0.15 -0.15)">
       <defs>
        <path id="DejaVuSans-34" d="M 2419 4116 
L 825 1625 
L 2419 1625 
L 2419 4116 
z
M 2253 4666 
L 3047 4666 
L 3047 1625 
L 3713 1625 
L 3713 1100 
L 3047 1100 
L 3047 0 
L 2419 0 
L 2419 1100 
L 313 1100 
L 313 1709 
L 2253 4666 
z
" transform="scale(0.015625)"/>
       </defs>
       <use xlink:href="#DejaVuSans-31"/>
       <use xlink:href="#DejaVuSans-34" x="63.623047"/>
       <use xlink:href="#DejaVuSans-30" x="127.246094"/>
       <use xlink:href="#DejaVuSans-30" x="190.869141"/>
      </g>
     </g>
    </g>
    <g id="ytick_4">
     <g id="line2d_19">
      <path d="M 52.375 34.083648 
L 409.495 34.083648 
" clip-path="url(#p8bc00dfc79)" style="fill: none; stroke: #b0b0b0; stroke-width: 0.8; stroke-linecap: square"/>
     </g>
     <g id="line2d_20">
      <g>
       <use xlink:href="#m6f3f5b6aff" x="52.375" y="34.083648" style="stroke: #000000; stroke-width: 0.8"/>
      </g>
     </g>
     <g id="text_10">
      <!-- 1600 -->
      <g transform="translate(7.2 39.782476) scale(0.15 -0.15)">
       <defs>
        <path id="DejaVuSans-36" d="M 2113 2584 
Q 1688 2584 1439 2293 
Q 1191 2003 1191 1497 
Q 1191 994 1439 701 
Q 1688 409 2113 409 
Q 2538 409 2786 701 
Q 3034 994 3034 1497 
Q 3034 2003 2786 2293 
Q 2538 2584 2113 2584 
z
M 3366 4563 
L 3366 3988 
Q 3128 4100 2886 4159 
Q 2644 4219 2406 4219 
Q 1781 4219 1451 3797 
Q 1122 3375 1075 2522 
Q 1259 2794 1537 2939 
Q 1816 3084 2150 3084 
Q 2853 3084 3261 2657 
Q 3669 2231 3669 1497 
Q 3669 778 3244 343 
Q 2819 -91 2113 -91 
Q 1303 -91 875 529 
Q 447 1150 447 2328 
Q 447 3434 972 4092 
Q 1497 4750 2381 4750 
Q 2619 4750 2861 4703 
Q 3103 4656 3366 4563 
z
" transform="scale(0.015625)"/>
       </defs>
       <use xlink:href="#DejaVuSans-31"/>
       <use xlink:href="#DejaVuSans-36" x="63.623047"/>
       <use xlink:href="#DejaVuSans-30" x="127.246094"/>
       <use xlink:href="#DejaVuSans-30" x="190.869141"/>
      </g>
     </g>
    </g>
   </g>
   <g id="line2d_21">
    <defs>
     <path id="mff6e4f8517" d="M 0 3 
C 0.795609 3 1.55874 2.683901 2.12132 2.12132 
C 2.683901 1.55874 3 0.795609 3 0 
C 3 -0.795609 2.683901 -1.55874 2.12132 -2.12132 
C 1.55874 -2.683901 0.795609 -3 0 -3 
C -0.795609 -3 -1.55874 -2.683901 -2.12132 -2.12132 
C -2.683901 -1.55874 -3 -0.795609 -3 0 
C -3 0.795609 -2.683901 1.55874 -2.12132 2.12132 
C -1.55874 2.683901 -0.795609 3 0 3 
z
" style="stroke: #ff7f0e"/>
    </defs>
    <g clip-path="url(#p8bc00dfc79)">
     <use xlink:href="#mff6e4f8517" x="84.134684" y="20.979858" style="fill: #ff7f0e; stroke: #ff7f0e"/>
     <use xlink:href="#mff6e4f8517" x="241.286304" y="32.835668" style="fill: #ff7f0e; stroke: #ff7f0e"/>
     <use xlink:href="#mff6e4f8517" x="326.684565" y="32.835668" style="fill: #ff7f0e; stroke: #ff7f0e"/>
     <use xlink:href="#mff6e4f8517" x="384.793024" y="36.579608" style="fill: #ff7f0e; stroke: #ff7f0e"/>
    </g>
   </g>
   <g id="line2d_22">
    <path d="M 68.607727 19.296 
L 71.854273 19.514979 
L 75.100818 19.733957 
L 78.347364 19.952936 
L 81.593909 20.171915 
L 84.840455 20.390893 
L 88.087 20.609872 
L 91.333545 20.828851 
L 94.580091 21.047829 
L 97.826636 21.266808 
L 101.073182 21.485787 
L 104.319727 21.704765 
L 107.566273 21.923744 
L 110.812818 22.142723 
L 114.059364 22.361701 
L 117.305909 22.58068 
L 120.552455 22.799659 
L 123.799 23.018637 
L 127.045545 23.237616 
L 130.292091 23.456595 
L 133.538636 23.675573 
L 136.785182 23.894552 
L 140.031727 24.113531 
L 143.278273 24.332509 
L 146.524818 24.551488 
L 149.771364 24.770467 
L 153.017909 24.989445 
L 156.264455 25.208424 
L 159.511 25.427403 
L 162.757545 25.646381 
L 166.004091 25.86536 
L 169.250636 26.084339 
L 172.497182 26.303317 
L 175.743727 26.522296 
L 178.990273 26.741275 
L 182.236818 26.960253 
L 185.483364 27.179232 
L 188.729909 27.398211 
L 191.976455 27.617189 
L 195.223 27.836168 
L 198.469545 28.055147 
L 201.716091 28.274125 
L 204.962636 28.493104 
L 208.209182 28.712083 
L 211.455727 28.931061 
L 214.702273 29.15004 
L 217.948818 29.369019 
L 221.195364 29.587997 
L 224.441909 29.806976 
L 227.688455 30.025955 
L 230.935 30.244933 
L 234.181545 30.463912 
L 237.428091 30.682891 
L 240.674636 30.901869 
L 243.921182 31.120848 
L 247.167727 31.339827 
L 250.414273 31.558805 
L 253.660818 31.777784 
L 256.907364 31.996763 
L 260.153909 32.215741 
L 263.400455 32.43472 
L 266.647 32.653699 
L 269.893545 32.872677 
L 273.140091 33.091656 
L 276.386636 33.310635 
L 279.633182 33.529613 
L 282.879727 33.748592 
L 286.126273 33.967571 
L 289.372818 34.186549 
L 292.619364 34.405528 
L 295.865909 34.624507 
L 299.112455 34.843485 
L 302.359 35.062464 
L 305.605545 35.281443 
L 308.852091 35.500421 
L 312.098636 35.7194 
L 315.345182 35.938379 
L 318.591727 36.157357 
L 321.838273 36.376336 
L 325.084818 36.595315 
L 328.331364 36.814293 
L 331.577909 37.033272 
L 334.824455 37.252251 
L 338.071 37.471229 
L 341.317545 37.690208 
L 344.564091 37.909187 
L 347.810636 38.128165 
L 351.057182 38.347144 
L 354.303727 38.566123 
L 357.550273 38.785101 
L 360.796818 39.00408 
L 364.043364 39.223059 
L 367.289909 39.442037 
L 370.536455 39.661016 
L 373.783 39.879995 
L 377.029545 40.098973 
L 380.276091 40.317952 
L 383.522636 40.536931 
L 386.769182 40.755909 
L 390.015727 40.974888 
L 393.262273 41.193867 
" clip-path="url(#p8bc00dfc79)" style="fill: none; stroke: #ff7f0e; stroke-width: 1.5; stroke-linecap: square"/>
   </g>
   <g id="line2d_23">
    <defs>
     <path id="m5b2af9e1fb" d="M 0 3 
C 0.795609 3 1.55874 2.683901 2.12132 2.12132 
C 2.683901 1.55874 3 0.795609 3 0 
C 3 -0.795609 2.683901 -1.55874 2.12132 -2.12132 
C 1.55874 -2.683901 0.795609 -3 0 -3 
C -0.795609 -3 -1.55874 -2.683901 -2.12132 -2.12132 
C -2.683901 -1.55874 -3 -0.795609 -3 0 
C -3 0.795609 -2.683901 1.55874 -2.12132 2.12132 
C -1.55874 2.683901 -0.795609 3 0 3 
z
" style="stroke: #2ca02c"/>
    </defs>
    <g clip-path="url(#p8bc00dfc79)">
     <use xlink:href="#m5b2af9e1fb" x="81.311601" y="79.946911" style="fill: #2ca02c; stroke: #2ca02c"/>
     <use xlink:href="#m5b2af9e1fb" x="240.580534" y="87.122796" style="fill: #2ca02c; stroke: #2ca02c"/>
     <use xlink:href="#m5b2af9e1fb" x="323.390968" y="88.994766" style="fill: #2ca02c; stroke: #2ca02c"/>
     <use xlink:href="#m5b2af9e1fb" x="383.381482" y="96.170651" style="fill: #2ca02c; stroke: #2ca02c"/>
    </g>
   </g>
   <g id="line2d_24">
    <path d="M 68.607727 78.336679 
L 71.854273 78.492967 
L 75.100818 78.649254 
L 78.347364 78.805541 
L 81.593909 78.961828 
L 84.840455 79.118115 
L 88.087 79.274402 
L 91.333545 79.43069 
L 94.580091 79.586977 
L 97.826636 79.743264 
L 101.073182 79.899551 
L 104.319727 80.055838 
L 107.566273 80.212125 
L 110.812818 80.368413 
L 114.059364 80.5247 
L 117.305909 80.680987 
L 120.552455 80.837274 
L 123.799 80.993561 
L 127.045545 81.149848 
L 130.292091 81.306136 
L 133.538636 81.462423 
L 136.785182 81.61871 
L 140.031727 81.774997 
L 143.278273 81.931284 
L 146.524818 82.087571 
L 149.771364 82.243859 
L 153.017909 82.400146 
L 156.264455 82.556433 
L 159.511 82.71272 
L 162.757545 82.869007 
L 166.004091 83.025294 
L 169.250636 83.181582 
L 172.497182 83.337869 
L 175.743727 83.494156 
L 178.990273 83.650443 
L 182.236818 83.80673 
L 185.483364 83.963017 
L 188.729909 84.119304 
L 191.976455 84.275592 
L 195.223 84.431879 
L 198.469545 84.588166 
L 201.716091 84.744453 
L 204.962636 84.90074 
L 208.209182 85.057027 
L 211.455727 85.213315 
L 214.702273 85.369602 
L 217.948818 85.525889 
L 221.195364 85.682176 
L 224.441909 85.838463 
L 227.688455 85.99475 
L 230.935 86.151038 
L 234.181545 86.307325 
L 237.428091 86.463612 
L 240.674636 86.619899 
L 243.921182 86.776186 
L 247.167727 86.932473 
L 250.414273 87.088761 
L 253.660818 87.245048 
L 256.907364 87.401335 
L 260.153909 87.557622 
L 263.400455 87.713909 
L 266.647 87.870196 
L 269.893545 88.026484 
L 273.140091 88.182771 
L 276.386636 88.339058 
L 279.633182 88.495345 
L 282.879727 88.651632 
L 286.126273 88.807919 
L 289.372818 88.964207 
L 292.619364 89.120494 
L 295.865909 89.276781 
L 299.112455 89.433068 
L 302.359 89.589355 
L 305.605545 89.745642 
L 308.852091 89.90193 
L 312.098636 90.058217 
L 315.345182 90.214504 
L 318.591727 90.370791 
L 321.838273 90.527078 
L 325.084818 90.683365 
L 328.331364 90.839652 
L 331.577909 90.99594 
L 334.824455 91.152227 
L 338.071 91.308514 
L 341.317545 91.464801 
L 344.564091 91.621088 
L 347.810636 91.777375 
L 351.057182 91.933663 
L 354.303727 92.08995 
L 357.550273 92.246237 
L 360.796818 92.402524 
L 364.043364 92.558811 
L 367.289909 92.715098 
L 370.536455 92.871386 
L 373.783 93.027673 
L 377.029545 93.18396 
L 380.276091 93.340247 
L 383.522636 93.496534 
L 386.769182 93.652821 
L 390.015727 93.809109 
L 393.262273 93.965396 
" clip-path="url(#p8bc00dfc79)" style="fill: none; stroke: #2ca02c; stroke-width: 1.5; stroke-linecap: square"/>
   </g>
   <g id="line2d_25">
    <defs>
     <path id="m2c75f8ed43" d="M 0 3 
C 0.795609 3 1.55874 2.683901 2.12132 2.12132 
C 2.683901 1.55874 3 0.795609 3 0 
C 3 -0.795609 2.683901 -1.55874 2.12132 -2.12132 
C 1.55874 -2.683901 0.795609 -3 0 -3 
C -0.795609 -3 -1.55874 -2.683901 -2.12132 -2.12132 
C -2.683901 -1.55874 -3 -0.795609 -3 0 
C -3 0.795609 -2.683901 1.55874 -2.12132 2.12132 
C -1.55874 2.683901 -0.795609 3 0 3 
z
" style="stroke: #d62728"/>
    </defs>
    <g clip-path="url(#p8bc00dfc79)">
     <use xlink:href="#m2c75f8ed43" x="83.428913" y="129.866109" style="fill: #d62728; stroke: #d62728"/>
     <use xlink:href="#m2c75f8ed43" x="239.168992" y="152.329749" style="fill: #d62728; stroke: #d62728"/>
     <use xlink:href="#m2c75f8ed43" x="324.567253" y="145.153864" style="fill: #d62728; stroke: #d62728"/>
     <use xlink:href="#m2c75f8ed43" x="381.969941" y="150.769774" style="fill: #d62728; stroke: #d62728"/>
    </g>
   </g>
   <g id="line2d_26">
    <path d="M 68.607727 137.377359 
L 71.854273 137.470955 
L 75.100818 137.56455 
L 78.347364 137.658146 
L 81.593909 137.751742 
L 84.840455 137.845337 
L 88.087 137.938933 
L 91.333545 138.032529 
L 94.580091 138.126124 
L 97.826636 138.21972 
L 101.073182 138.313316 
L 104.319727 138.406911 
L 107.566273 138.500507 
L 110.812818 138.594103 
L 114.059364 138.687698 
L 117.305909 138.781294 
L 120.552455 138.87489 
L 123.799 138.968485 
L 127.045545 139.062081 
L 130.292091 139.155677 
L 133.538636 139.249272 
L 136.785182 139.342868 
L 140.031727 139.436463 
L 143.278273 139.530059 
L 146.524818 139.623655 
L 149.771364 139.71725 
L 153.017909 139.810846 
L 156.264455 139.904442 
L 159.511 139.998037 
L 162.757545 140.091633 
L 166.004091 140.185229 
L 169.250636 140.278824 
L 172.497182 140.37242 
L 175.743727 140.466016 
L 178.990273 140.559611 
L 182.236818 140.653207 
L 185.483364 140.746803 
L 188.729909 140.840398 
L 191.976455 140.933994 
L 195.223 141.02759 
L 198.469545 141.121185 
L 201.716091 141.214781 
L 204.962636 141.308377 
L 208.209182 141.401972 
L 211.455727 141.495568 
L 214.702273 141.589164 
L 217.948818 141.682759 
L 221.195364 141.776355 
L 224.441909 141.869951 
L 227.688455 141.963546 
L 230.935 142.057142 
L 234.181545 142.150738 
L 237.428091 142.244333 
L 240.674636 142.337929 
L 243.921182 142.431525 
L 247.167727 142.52512 
L 250.414273 142.618716 
L 253.660818 142.712312 
L 256.907364 142.805907 
L 260.153909 142.899503 
L 263.400455 142.993099 
L 266.647 143.086694 
L 269.893545 143.18029 
L 273.140091 143.273886 
L 276.386636 143.367481 
L 279.633182 143.461077 
L 282.879727 143.554673 
L 286.126273 143.648268 
L 289.372818 143.741864 
L 292.619364 143.83546 
L 295.865909 143.929055 
L 299.112455 144.022651 
L 302.359 144.116246 
L 305.605545 144.209842 
L 308.852091 144.303438 
L 312.098636 144.397033 
L 315.345182 144.490629 
L 318.591727 144.584225 
L 321.838273 144.67782 
L 325.084818 144.771416 
L 328.331364 144.865012 
L 331.577909 144.958607 
L 334.824455 145.052203 
L 338.071 145.145799 
L 341.317545 145.239394 
L 344.564091 145.33299 
L 347.810636 145.426586 
L 351.057182 145.520181 
L 354.303727 145.613777 
L 357.550273 145.707373 
L 360.796818 145.800968 
L 364.043364 145.894564 
L 367.289909 145.98816 
L 370.536455 146.081755 
L 373.783 146.175351 
L 377.029545 146.268947 
L 380.276091 146.362542 
L 383.522636 146.456138 
L 386.769182 146.549734 
L 390.015727 146.643329 
L 393.262273 146.736925 
" clip-path="url(#p8bc00dfc79)" style="fill: none; stroke: #d62728; stroke-width: 1.5; stroke-linecap: square"/>
   </g>
   <g id="line2d_27">
    <defs>
     <path id="ma833c5b6ac" d="M 0 3 
C 0.795609 3 1.55874 2.683901 2.12132 2.12132 
C 2.683901 1.55874 3 0.795609 3 0 
C 3 -0.795609 2.683901 -1.55874 2.12132 -2.12132 
C 1.55874 -2.683901 0.795609 -3 0 -3 
C -0.795609 -3 -1.55874 -2.683901 -2.12132 -2.12132 
C -2.683901 -1.55874 -3 -0.795609 -3 0 
C -3 0.795609 -2.683901 1.55874 -2.12132 2.12132 
C -1.55874 2.683901 -0.795609 3 0 3 
z
" style="stroke: #9467bd"/>
    </defs>
    <g clip-path="url(#p8bc00dfc79)">
     <use xlink:href="#ma833c5b6ac" x="80.60583" y="255.912085" style="fill: #9467bd; stroke: #9467bd"/>
     <use xlink:href="#ma833c5b6ac" x="237.286937" y="261.216" style="fill: #9467bd; stroke: #9467bd"/>
     <use xlink:href="#ma833c5b6ac" x="322.685198" y="248.424205" style="fill: #9467bd; stroke: #9467bd"/>
     <use xlink:href="#ma833c5b6ac" x="380.087885" y="249.36019" style="fill: #9467bd; stroke: #9467bd"/>
    </g>
   </g>
   <g id="line2d_28">
    <path d="M 68.607727 256.639532 
L 71.854273 256.60649 
L 75.100818 256.573449 
L 78.347364 256.540408 
L 81.593909 256.507367 
L 84.840455 256.474326 
L 88.087 256.441284 
L 91.333545 256.408243 
L 94.580091 256.375202 
L 97.826636 256.342161 
L 101.073182 256.30912 
L 104.319727 256.276079 
L 107.566273 256.243037 
L 110.812818 256.209996 
L 114.059364 256.176955 
L 117.305909 256.143914 
L 120.552455 256.110873 
L 123.799 256.077832 
L 127.045545 256.04479 
L 130.292091 256.011749 
L 133.538636 255.978708 
L 136.785182 255.945667 
L 140.031727 255.912626 
L 143.278273 255.879584 
L 146.524818 255.846543 
L 149.771364 255.813502 
L 153.017909 255.780461 
L 156.264455 255.74742 
L 159.511 255.714379 
L 162.757545 255.681337 
L 166.004091 255.648296 
L 169.250636 255.615255 
L 172.497182 255.582214 
L 175.743727 255.549173 
L 178.990273 255.516132 
L 182.236818 255.48309 
L 185.483364 255.450049 
L 188.729909 255.417008 
L 191.976455 255.383967 
L 195.223 255.350926 
L 198.469545 255.317885 
L 201.716091 255.284843 
L 204.962636 255.251802 
L 208.209182 255.218761 
L 211.455727 255.18572 
L 214.702273 255.152679 
L 217.948818 255.119637 
L 221.195364 255.086596 
L 224.441909 255.053555 
L 227.688455 255.020514 
L 230.935 254.987473 
L 234.181545 254.954432 
L 237.428091 254.92139 
L 240.674636 254.888349 
L 243.921182 254.855308 
L 247.167727 254.822267 
L 250.414273 254.789226 
L 253.660818 254.756185 
L 256.907364 254.723143 
L 260.153909 254.690102 
L 263.400455 254.657061 
L 266.647 254.62402 
L 269.893545 254.590979 
L 273.140091 254.557937 
L 276.386636 254.524896 
L 279.633182 254.491855 
L 282.879727 254.458814 
L 286.126273 254.425773 
L 289.372818 254.392732 
L 292.619364 254.35969 
L 295.865909 254.326649 
L 299.112455 254.293608 
L 302.359 254.260567 
L 305.605545 254.227526 
L 308.852091 254.194485 
L 312.098636 254.161443 
L 315.345182 254.128402 
L 318.591727 254.095361 
L 321.838273 254.06232 
L 325.084818 254.029279 
L 328.331364 253.996238 
L 331.577909 253.963196 
L 334.824455 253.930155 
L 338.071 253.897114 
L 341.317545 253.864073 
L 344.564091 253.831032 
L 347.810636 253.79799 
L 351.057182 253.764949 
L 354.303727 253.731908 
L 357.550273 253.698867 
L 360.796818 253.665826 
L 364.043364 253.632785 
L 367.289909 253.599743 
L 370.536455 253.566702 
L 373.783 253.533661 
L 377.029545 253.50062 
L 380.276091 253.467579 
L 383.522636 253.434538 
L 386.769182 253.401496 
L 390.015727 253.368455 
L 393.262273 253.335414 
" clip-path="url(#p8bc00dfc79)" style="fill: none; stroke: #9467bd; stroke-width: 1.5; stroke-linecap: square"/>
   </g>
   <g id="patch_3">
    <path d="M 52.375 273.312 
L 52.375 7.2 
" style="fill: none; stroke: #000000; stroke-width: 0.8; stroke-linejoin: miter; stroke-linecap: square"/>
   </g>
   <g id="patch_4">
    <path d="M 409.495 273.312 
L 409.495 7.2 
" style="fill: none; stroke: #000000; stroke-width: 0.8; stroke-linejoin: miter; stroke-linecap: square"/>
   </g>
   <g id="patch_5">
    <path d="M 52.375 273.312 
L 409.495 273.312 
" style="fill: none; stroke: #000000; stroke-width: 0.8; stroke-linejoin: miter; stroke-linecap: square"/>
   </g>
   <g id="patch_6">
    <path d="M 52.375 7.2 
L 409.495 7.2 
" style="fill: none; stroke: #000000; stroke-width: 0.8; stroke-linejoin: miter; stroke-linecap: square"/>
   </g>
   <g id="legend_1">
    <g id="patch_7">
     <path d="M 60.775 52.0275 
L 279.37375 52.0275 
Q 281.77375 52.0275 281.77375 49.6275 
L 281.77375 15.6 
Q 281.77375 13.2 279.37375 13.2 
L 60.775 13.2 
Q 58.375 13.2 58.375 15.6 
L 58.375 49.6275 
Q 58.375 52.0275 60.775 52.0275 
z
" style="fill: #ffffff; opacity: 0.8; stroke: #cccccc; stroke-linejoin: miter"/>
    </g>
    <g id="line2d_29">
     <g>
      <use xlink:href="#mff6e4f8517" x="75.175" y="22.918125" style="fill: #ff7f0e; stroke: #ff7f0e"/>
     </g>
    </g>
    <g id="text_11">
     <!-- -0.76 deg -->
     <g transform="translate(96.775 27.118125) scale(0.12 -0.12)">
      <defs>
       <path id="DejaVuSans-2d" d="M 313 2009 
L 1997 2009 
L 1997 1497 
L 313 1497 
L 313 2009 
z
" transform="scale(0.015625)"/>
       <path id="DejaVuSans-2e" d="M 684 794 
L 1344 794 
L 1344 0 
L 684 0 
L 684 794 
z
" transform="scale(0.015625)"/>
       <path id="DejaVuSans-20" transform="scale(0.015625)"/>
       <path id="DejaVuSans-64" d="M 2906 2969 
L 2906 4863 
L 3481 4863 
L 3481 0 
L 2906 0 
L 2906 525 
Q 2725 213 2448 61 
Q 2172 -91 1784 -91 
Q 1150 -91 751 415 
Q 353 922 353 1747 
Q 353 2572 751 3078 
Q 1150 3584 1784 3584 
Q 2172 3584 2448 3432 
Q 2725 3281 2906 2969 
z
M 947 1747 
Q 947 1113 1208 752 
Q 1469 391 1925 391 
Q 2381 391 2643 752 
Q 2906 1113 2906 1747 
Q 2906 2381 2643 2742 
Q 2381 3103 1925 3103 
Q 1469 3103 1208 2742 
Q 947 2381 947 1747 
z
" transform="scale(0.015625)"/>
       <path id="DejaVuSans-65" d="M 3597 1894 
L 3597 1613 
L 953 1613 
Q 991 1019 1311 708 
Q 1631 397 2203 397 
Q 2534 397 2845 478 
Q 3156 559 3463 722 
L 3463 178 
Q 3153 47 2828 -22 
Q 2503 -91 2169 -91 
Q 1331 -91 842 396 
Q 353 884 353 1716 
Q 353 2575 817 3079 
Q 1281 3584 2069 3584 
Q 2775 3584 3186 3129 
Q 3597 2675 3597 1894 
z
M 3022 2063 
Q 3016 2534 2758 2815 
Q 2500 3097 2075 3097 
Q 1594 3097 1305 2825 
Q 1016 2553 972 2059 
L 3022 2063 
z
" transform="scale(0.015625)"/>
       <path id="DejaVuSans-67" d="M 2906 1791 
Q 2906 2416 2648 2759 
Q 2391 3103 1925 3103 
Q 1463 3103 1205 2759 
Q 947 2416 947 1791 
Q 947 1169 1205 825 
Q 1463 481 1925 481 
Q 2391 481 2648 825 
Q 2906 1169 2906 1791 
z
M 3481 434 
Q 3481 -459 3084 -895 
Q 2688 -1331 1869 -1331 
Q 1566 -1331 1297 -1286 
Q 1028 -1241 775 -1147 
L 775 -588 
Q 1028 -725 1275 -790 
Q 1522 -856 1778 -856 
Q 2344 -856 2625 -561 
Q 2906 -266 2906 331 
L 2906 616 
Q 2728 306 2450 153 
Q 2172 0 1784 0 
Q 1141 0 747 490 
Q 353 981 353 1791 
Q 353 2603 747 3093 
Q 1141 3584 1784 3584 
Q 2172 3584 2450 3431 
Q 2728 3278 2906 2969 
L 2906 3500 
L 3481 3500 
L 3481 434 
z
" transform="scale(0.015625)"/>
      </defs>
      <use xlink:href="#DejaVuSans-2d"/>
      <use xlink:href="#DejaVuSans-30" x="36.083984"/>
      <use xlink:href="#DejaVuSans-2e" x="99.707031"/>
      <use xlink:href="#DejaVuSans-37" x="131.494141"/>
      <use xlink:href="#DejaVuSans-36" x="195.117188"/>
      <use xlink:href="#DejaVuSans-20" x="258.740234"/>
      <use xlink:href="#DejaVuSans-64" x="290.527344"/>
      <use xlink:href="#DejaVuSans-65" x="354.003906"/>
      <use xlink:href="#DejaVuSans-67" x="415.527344"/>
     </g>
    </g>
    <g id="line2d_30">
     <g>
      <use xlink:href="#m5b2af9e1fb" x="75.175" y="40.531875" style="fill: #2ca02c; stroke: #2ca02c"/>
     </g>
    </g>
    <g id="text_12">
     <!-- -0.66 deg -->
     <g transform="translate(96.775 44.731875) scale(0.12 -0.12)">
      <use xlink:href="#DejaVuSans-2d"/>
      <use xlink:href="#DejaVuSans-30" x="36.083984"/>
      <use xlink:href="#DejaVuSans-2e" x="99.707031"/>
      <use xlink:href="#DejaVuSans-36" x="131.494141"/>
      <use xlink:href="#DejaVuSans-36" x="195.117188"/>
      <use xlink:href="#DejaVuSans-20" x="258.740234"/>
      <use xlink:href="#DejaVuSans-64" x="290.527344"/>
      <use xlink:href="#DejaVuSans-65" x="354.003906"/>
      <use xlink:href="#DejaVuSans-67" x="415.527344"/>
     </g>
    </g>
    <g id="line2d_31">
     <g>
      <use xlink:href="#m2c75f8ed43" x="190.256875" y="22.918125" style="fill: #d62728; stroke: #d62728"/>
     </g>
    </g>
    <g id="text_13">
     <!-- -0.56 deg -->
     <g transform="translate(211.856875 27.118125) scale(0.12 -0.12)">
      <use xlink:href="#DejaVuSans-2d"/>
      <use xlink:href="#DejaVuSans-30" x="36.083984"/>
      <use xlink:href="#DejaVuSans-2e" x="99.707031"/>
      <use xlink:href="#DejaVuSans-35" x="131.494141"/>
      <use xlink:href="#DejaVuSans-36" x="195.117188"/>
      <use xlink:href="#DejaVuSans-20" x="258.740234"/>
      <use xlink:href="#DejaVuSans-64" x="290.527344"/>
      <use xlink:href="#DejaVuSans-65" x="354.003906"/>
      <use xlink:href="#DejaVuSans-67" x="415.527344"/>
     </g>
    </g>
    <g id="line2d_32">
     <g>
      <use xlink:href="#ma833c5b6ac" x="190.256875" y="40.531875" style="fill: #9467bd; stroke: #9467bd"/>
     </g>
    </g>
    <g id="text_14">
     <!-- -0.358 deg -->
     <g transform="translate(211.856875 44.731875) scale(0.12 -0.12)">
      <defs>
       <path id="DejaVuSans-33" d="M 2597 2516 
Q 3050 2419 3304 2112 
Q 3559 1806 3559 1356 
Q 3559 666 3084 287 
Q 2609 -91 1734 -91 
Q 1441 -91 1130 -33 
Q 819 25 488 141 
L 488 750 
Q 750 597 1062 519 
Q 1375 441 1716 441 
Q 2309 441 2620 675 
Q 2931 909 2931 1356 
Q 2931 1769 2642 2001 
Q 2353 2234 1838 2234 
L 1294 2234 
L 1294 2753 
L 1863 2753 
Q 2328 2753 2575 2939 
Q 2822 3125 2822 3475 
Q 2822 3834 2567 4026 
Q 2313 4219 1838 4219 
Q 1578 4219 1281 4162 
Q 984 4106 628 3988 
L 628 4550 
Q 988 4650 1302 4700 
Q 1616 4750 1894 4750 
Q 2613 4750 3031 4423 
Q 3450 4097 3450 3541 
Q 3450 3153 3228 2886 
Q 3006 2619 2597 2516 
z
" transform="scale(0.015625)"/>
       <path id="DejaVuSans-38" d="M 2034 2216 
Q 1584 2216 1326 1975 
Q 1069 1734 1069 1313 
Q 1069 891 1326 650 
Q 1584 409 2034 409 
Q 2484 409 2743 651 
Q 3003 894 3003 1313 
Q 3003 1734 2745 1975 
Q 2488 2216 2034 2216 
z
M 1403 2484 
Q 997 2584 770 2862 
Q 544 3141 544 3541 
Q 544 4100 942 4425 
Q 1341 4750 2034 4750 
Q 2731 4750 3128 4425 
Q 3525 4100 3525 3541 
Q 3525 3141 3298 2862 
Q 3072 2584 2669 2484 
Q 3125 2378 3379 2068 
Q 3634 1759 3634 1313 
Q 3634 634 3220 271 
Q 2806 -91 2034 -91 
Q 1263 -91 848 271 
Q 434 634 434 1313 
Q 434 1759 690 2068 
Q 947 2378 1403 2484 
z
M 1172 3481 
Q 1172 3119 1398 2916 
Q 1625 2713 2034 2713 
Q 2441 2713 2670 2916 
Q 2900 3119 2900 3481 
Q 2900 3844 2670 4047 
Q 2441 4250 2034 4250 
Q 1625 4250 1398 4047 
Q 1172 3844 1172 3481 
z
" transform="scale(0.015625)"/>
      </defs>
      <use xlink:href="#DejaVuSans-2d"/>
      <use xlink:href="#DejaVuSans-30" x="36.083984"/>
      <use xlink:href="#DejaVuSans-2e" x="99.707031"/>
      <use xlink:href="#DejaVuSans-33" x="131.494141"/>
      <use xlink:href="#DejaVuSans-35" x="195.117188"/>
      <use xlink:href="#DejaVuSans-38" x="258.740234"/>
      <use xlink:href="#DejaVuSans-20" x="322.363281"/>
      <use xlink:href="#DejaVuSans-64" x="354.150391"/>
      <use xlink:href="#DejaVuSans-65" x="417.626953"/>
      <use xlink:href="#DejaVuSans-67" x="479.150391"/>
     </g>
    </g>
   </g>
  </g>
 </g>
 <defs>
  <clipPath id="p8bc00dfc79">
   <rect x="52.375" y="7.2" width="357.12" height="266.112"/>
  </clipPath>
 </defs>
</svg>
