<?xml version="1.0" encoding="utf-8" standalone="no"?>
<!DOCTYPE svg PUBLIC "-//W3C//DTD SVG 1.1//EN"
  "http://www.w3.org/Graphics/SVG/1.1/DTD/svg11.dtd">
<svg xmlns:xlink="http://www.w3.org/1999/xlink" width="416.695pt" height="302.029187pt" viewBox="0 0 416.695 302.029187" xmlns="http://www.w3.org/2000/svg" version="1.1">
 <defs>
  <style type="text/css">*{stroke-linejoin: round; stroke-linecap: butt}</style>
 </defs>
 <g id="figure_1">
  <g id="patch_1">
   <path d="M 0 302.029187 
L 416.695 302.029187 
L 416.695 0 
L 0 0 
L 0 302.029187 
z
" style="fill: none"/>
  </g>
  <g id="axes_1">
   <g id="patch_2">
    <path d="M 52.375 273.312 
L 409.495 273.312 
L 409.495 7.2 
L 52.375 7.2 
L 52.375 273.312 
z
" style="fill: none"/>
   </g>
   <g id="matplotlib.axis_1">
    <g id="xtick_1">
     <g id="line2d_1">
      <path d="M 60.491364 273.312 
L 60.491364 7.2 
" clip-path="url(#p8bc00dfc79)" style="fill: none; stroke: #b0b0b0; stroke-width: 0.8; stroke-linecap: square"/>
     </g>
     <g id="line2d_2">
      <defs>
       <path id="md39032bed2" d="M 0 0 
L 0 3.5 
" style="stroke: #000000; stroke-width: 0.8"/>
      </defs>
      <g>
       <use xlink:href="#md39032bed2" x="60.491364" y="273.312" style="stroke: #000000; stroke-width: 0.8"/>
      </g>
     </g>
     <g id="text_1">
      <!-- 800 -->
      <g transform="translate(46.175739 291.709656) scale(0.15 -0.15)">
       <defs>
        <path id="DejaVuSans-38" d="M 2034 2216 
Q 1584 2216 1326 1975 
Q 1069 1734 1069 1313 
Q 1069 891 1326 650 
Q 1584 409 2034 409 
Q 2484 409 2743 651 
Q 3003 894 3003 1313 
Q 3003 1734 2745 1975 
Q 2488 2216 2034 2216 
z
M 1403 2484 
Q 997 2584 770 2862 
Q 544 3141 544 3541 
Q 544 4100 942 4425 
Q 1341 4750 2034 4750 
Q 2731 4750 3128 4425 
Q 3525 4100 3525 3541 
Q 3525 3141 3298 2862 
Q 3072 2584 2669 2484 
Q 3125 2378 3379 2068 
Q 3634 1759 3634 1313 
Q 3634 634 3220 271 
Q 2806 -91 2034 -91 
Q 1263 -91 848 271 
Q 434 634 434 1313 
Q 434 1759 690 2068 
Q 947 2378 1403 2484 
z
M 1172 3481 
Q 1172 3119 1398 2916 
Q 1625 2713 2034 2713 
Q 2441 2713 2670 2916 
Q 2900 3119 2900 3481 
Q 2900 3844 2670 4047 
Q 2441 4250 2034 4250 
Q 1625 4250 1398 4047 
Q 1172 3844 1172 3481 
z
" transform="scale(0.015625)"/>
        <path id="DejaVuSans-30" d="M 2034 4250 
Q 1547 4250 1301 3770 
Q 1056 3291 1056 2328 
Q 1056 1369 1301 889 
Q 1547 409 2034 409 
Q 2525 409 2770 889 
Q 3016 1369 3016 2328 
Q 3016 3291 2770 3770 
Q 2525 4250 2034 4250 
z
M 2034 4750 
Q 2819 4750 3233 4129 
Q 3647 3509 3647 2328 
Q 3647 1150 3233 529 
Q 2819 -91 2034 -91 
Q 1250 -91 836 529 
Q 422 1150 422 2328 
Q 422 3509 836 4129 
Q 1250 4750 2034 4750 
z
" transform="scale(0.015625)"/>
       </defs>
       <use xlink:href="#DejaVuSans-38"/>
       <use xlink:href="#DejaVuSans-30" x="63.623047"/>
       <use xlink:href="#DejaVuSans-30" x="127.246094"/>
      </g>
     </g>
    </g>
    <g id="xtick_2">
     <g id="line2d_3">
      <path d="M 114.600455 273.312 
L 114.600455 7.2 
" clip-path="url(#p8bc00dfc79)" style="fill: none; stroke: #b0b0b0; stroke-width: 0.8; stroke-linecap: square"/>
     </g>
     <g id="line2d_4">
      <g>
       <use xlink:href="#md39032bed2" x="114.600455" y="273.312" style="stroke: #000000; stroke-width: 0.8"/>
      </g>
     </g>
     <g id="text_2">
      <!-- 1000 -->
      <g transform="translate(95.512955 291.709656) scale(0.15 -0.15)">
       <defs>
        <path id="DejaVuSans-31" d="M 794 531 
L 1825 531 
L 1825 4091 
L 703 3866 
L 703 4441 
L 1819 4666 
L 2450 4666 
L 2450 531 
L 3481 531 
L 3481 0 
L 794 0 
L 794 531 
z
" transform="scale(0.015625)"/>
       </defs>
       <use xlink:href="#DejaVuSans-31"/>
       <use xlink:href="#DejaVuSans-30" x="63.623047"/>
       <use xlink:href="#DejaVuSans-30" x="127.246094"/>
       <use xlink:href="#DejaVuSans-30" x="190.869141"/>
      </g>
     </g>
    </g>
    <g id="xtick_3">
     <g id="line2d_5">
      <path d="M 168.709545 273.312 
L 168.709545 7.2 
" clip-path="url(#p8bc00dfc79)" style="fill: none; stroke: #b0b0b0; stroke-width: 0.8; stroke-linecap: square"/>
     </g>
     <g id="line2d_6">
      <g>
       <use xlink:href="#md39032bed2" x="168.709545" y="273.312" style="stroke: #000000; stroke-width: 0.8"/>
      </g>
     </g>
     <g id="text_3">
      <!-- 1200 -->
      <g transform="translate(149.622045 291.709656) scale(0.15 -0.15)">
       <defs>
        <path id="DejaVuSans-32" d="M 1228 531 
L 3431 531 
L 3431 0 
L 469 0 
L 469 531 
Q 828 903 1448 1529 
Q 2069 2156 2228 2338 
Q 2531 2678 2651 2914 
Q 2772 3150 2772 3378 
Q 2772 3750 2511 3984 
Q 2250 4219 1831 4219 
Q 1534 4219 1204 4116 
Q 875 4013 500 3803 
L 500 4441 
Q 881 4594 1212 4672 
Q 1544 4750 1819 4750 
Q 2544 4750 2975 4387 
Q 3406 4025 3406 3419 
Q 3406 3131 3298 2873 
Q 3191 2616 2906 2266 
Q 2828 2175 2409 1742 
Q 1991 1309 1228 531 
z
" transform="scale(0.015625)"/>
       </defs>
       <use xlink:href="#DejaVuSans-31"/>
       <use xlink:href="#DejaVuSans-32" x="63.623047"/>
       <use xlink:href="#DejaVuSans-30" x="127.246094"/>
       <use xlink:href="#DejaVuSans-30" x="190.869141"/>
      </g>
     </g>
    </g>
    <g id="xtick_4">
     <g id="line2d_7">
      <path d="M 222.818636 273.312 
L 222.818636 7.2 
" clip-path="url(#p8bc00dfc79)" style="fill: none; stroke: #b0b0b0; stroke-width: 0.8; stroke-linecap: square"/>
     </g>
     <g id="line2d_8">
      <g>
       <use xlink:href="#md39032bed2" x="222.818636" y="273.312" style="stroke: #000000; stroke-width: 0.8"/>
      </g>
     </g>
     <g id="text_4">
      <!-- 1400 -->
      <g transform="translate(203.731136 291.709656) scale(0.15 -0.15)">
       <defs>
        <path id="DejaVuSans-34" d="M 2419 4116 
L 825 1625 
L 2419 1625 
L 2419 4116 
z
M 2253 4666 
L 3047 4666 
L 3047 1625 
L 3713 1625 
L 3713 1100 
L 3047 1100 
L 3047 0 
L 2419 0 
L 2419 1100 
L 313 1100 
L 313 1709 
L 2253 4666 
z
" transform="scale(0.015625)"/>
       </defs>
       <use xlink:href="#DejaVuSans-31"/>
       <use xlink:href="#DejaVuSans-34" x="63.623047"/>
       <use xlink:href="#DejaVuSans-30" x="127.246094"/>
       <use xlink:href="#DejaVuSans-30" x="190.869141"/>
      </g>
     </g>
    </g>
    <g id="xtick_5">
     <g id="line2d_9">
      <path d="M 276.927727 273.312 
L 276.927727 7.2 
" clip-path="url(#p8bc00dfc79)" style="fill: none; stroke: #b0b0b0; stroke-width: 0.8; stroke-linecap: square"/>
     </g>
     <g id="line2d_10">
      <g>
       <use xlink:href="#md39032bed2" x="276.927727" y="273.312" style="stroke: #000000; stroke-width: 0.8"/>
      </g>
     </g>
     <g id="text_5">
      <!-- 1600 -->
      <g transform="translate(257.840227 291.709656) scale(0.15 -0.15)">
       <defs>
        <path id="DejaVuSans-36" d="M 2113 2584 
Q 1688 2584 1439 2293 
Q 1191 2003 1191 1497 
Q 1191 994 1439 701 
Q 1688 409 2113 409 
Q 2538 409 2786 701 
Q 3034 994 3034 1497 
Q 3034 2003 2786 2293 
Q 2538 2584 2113 2584 
z
M 3366 4563 
L 3366 3988 
Q 3128 4100 2886 4159 
Q 2644 4219 2406 4219 
Q 1781 4219 1451 3797 
Q 1122 3375 1075 2522 
Q 1259 2794 1537 2939 
Q 1816 3084 2150 3084 
Q 2853 3084 3261 2657 
Q 3669 2231 3669 1497 
Q 3669 778 3244 343 
Q 2819 -91 2113 -91 
Q 1303 -91 875 529 
Q 447 1150 447 2328 
Q 447 3434 972 4092 
Q 1497 4750 2381 4750 
Q 2619 4750 2861 4703 
Q 3103 4656 3366 4563 
z
" transform="scale(0.015625)"/>
       </defs>
       <use xlink:href="#DejaVuSans-31"/>
       <use xlink:href="#DejaVuSans-36" x="63.623047"/>
       <use xlink:href="#DejaVuSans-30" x="127.246094"/>
       <use xlink:href="#DejaVuSans-30" x="190.869141"/>
      </g>
     </g>
    </g>
    <g id="xtick_6">
     <g id="line2d_11">
      <path d="M 331.036818 273.312 
L 331.036818 7.2 
" clip-path="url(#p8bc00dfc79)" style="fill: none; stroke: #b0b0b0; stroke-width: 0.8; stroke-linecap: square"/>
     </g>
     <g id="line2d_12">
      <g>
       <use xlink:href="#md39032bed2" x="331.036818" y="273.312" style="stroke: #000000; stroke-width: 0.8"/>
      </g>
     </g>
     <g id="text_6">
      <!-- 1800 -->
      <g transform="translate(311.949318 291.709656) scale(0.15 -0.15)">
       <use xlink:href="#DejaVuSans-31"/>
       <use xlink:href="#DejaVuSans-38" x="63.623047"/>
       <use xlink:href="#DejaVuSans-30" x="127.246094"/>
       <use xlink:href="#DejaVuSans-30" x="190.869141"/>
      </g>
     </g>
    </g>
    <g id="xtick_7">
     <g id="line2d_13">
      <path d="M 385.145909 273.312 
L 385.145909 7.2 
" clip-path="url(#p8bc00dfc79)" style="fill: none; stroke: #b0b0b0; stroke-width: 0.8; stroke-linecap: square"/>
     </g>
     <g id="line2d_14">
      <g>
       <use xlink:href="#md39032bed2" x="385.145909" y="273.312" style="stroke: #000000; stroke-width: 0.8"/>
      </g>
     </g>
     <g id="text_7">
      <!-- 2000 -->
      <g transform="translate(366.058409 291.709656) scale(0.15 -0.15)">
       <use xlink:href="#DejaVuSans-32"/>
       <use xlink:href="#DejaVuSans-30" x="63.623047"/>
       <use xlink:href="#DejaVuSans-30" x="127.246094"/>
       <use xlink:href="#DejaVuSans-30" x="190.869141"/>
      </g>
     </g>
    </g>
   </g>
   <g id="matplotlib.axis_2">
    <g id="ytick_1">
     <g id="line2d_15">
      <path d="M 52.375 243.962032 
L 409.495 243.962032 
" clip-path="url(#p8bc00dfc79)" style="fill: none; stroke: #b0b0b0; stroke-width: 0.8; stroke-linecap: square"/>
     </g>
     <g id="line2d_16">
      <defs>
       <path id="m6f3f5b6aff" d="M 0 0 
L -3.5 0 
" style="stroke: #000000; stroke-width: 0.8"/>
      </defs>
      <g>
       <use xlink:href="#m6f3f5b6aff" x="52.375" y="243.962032" style="stroke: #000000; stroke-width: 0.8"/>
      </g>
     </g>
     <g id="text_8">
      <!-- 400 -->
      <g transform="translate(16.74375 249.66086) scale(0.15 -0.15)">
       <use xlink:href="#DejaVuSans-34"/>
       <use xlink:href="#DejaVuSans-30" x="63.623047"/>
       <use xlink:href="#DejaVuSans-30" x="127.246094"/>
      </g>
     </g>
    </g>
    <g id="ytick_2">
     <g id="line2d_17">
      <path d="M 52.375 195.19465 
L 409.495 195.19465 
" clip-path="url(#p8bc00dfc79)" style="fill: none; stroke: #b0b0b0; stroke-width: 0.8; stroke-linecap: square"/>
     </g>
     <g id="line2d_18">
      <g>
       <use xlink:href="#m6f3f5b6aff" x="52.375" y="195.19465" style="stroke: #000000; stroke-width: 0.8"/>
      </g>
     </g>
     <g id="text_9">
      <!-- 600 -->
      <g transform="translate(16.74375 200.893478) scale(0.15 -0.15)">
       <use xlink:href="#DejaVuSans-36"/>
       <use xlink:href="#DejaVuSans-30" x="63.623047"/>
       <use xlink:href="#DejaVuSans-30" x="127.246094"/>
      </g>
     </g>
    </g>
    <g id="ytick_3">
     <g id="line2d_19">
      <path d="M 52.375 146.427268 
L 409.495 146.427268 
" clip-path="url(#p8bc00dfc79)" style="fill: none; stroke: #b0b0b0; stroke-width: 0.8; stroke-linecap: square"/>
     </g>
     <g id="line2d_20">
      <g>
       <use xlink:href="#m6f3f5b6aff" x="52.375" y="146.427268" style="stroke: #000000; stroke-width: 0.8"/>
      </g>
     </g>
     <g id="text_10">
      <!-- 800 -->
      <g transform="translate(16.74375 152.126096) scale(0.15 -0.15)">
       <use xlink:href="#DejaVuSans-38"/>
       <use xlink:href="#DejaVuSans-30" x="63.623047"/>
       <use xlink:href="#DejaVuSans-30" x="127.246094"/>
      </g>
     </g>
    </g>
    <g id="ytick_4">
     <g id="line2d_21">
      <path d="M 52.375 97.659886 
L 409.495 97.659886 
" clip-path="url(#p8bc00dfc79)" style="fill: none; stroke: #b0b0b0; stroke-width: 0.8; stroke-linecap: square"/>
     </g>
     <g id="line2d_22">
      <g>
       <use xlink:href="#m6f3f5b6aff" x="52.375" y="97.659886" style="stroke: #000000; stroke-width: 0.8"/>
      </g>
     </g>
     <g id="text_11">
      <!-- 1000 -->
      <g transform="translate(7.2 103.358714) scale(0.15 -0.15)">
       <use xlink:href="#DejaVuSans-31"/>
       <use xlink:href="#DejaVuSans-30" x="63.623047"/>
       <use xlink:href="#DejaVuSans-30" x="127.246094"/>
       <use xlink:href="#DejaVuSans-30" x="190.869141"/>
      </g>
     </g>
    </g>
    <g id="ytick_5">
     <g id="line2d_23">
      <path d="M 52.375 48.892504 
L 409.495 48.892504 
" clip-path="url(#p8bc00dfc79)" style="fill: none; stroke: #b0b0b0; stroke-width: 0.8; stroke-linecap: square"/>
     </g>
     <g id="line2d_24">
      <g>
       <use xlink:href="#m6f3f5b6aff" x="52.375" y="48.892504" style="stroke: #000000; stroke-width: 0.8"/>
      </g>
     </g>
     <g id="text_12">
      <!-- 1200 -->
      <g transform="translate(7.2 54.591333) scale(0.15 -0.15)">
       <use xlink:href="#DejaVuSans-31"/>
       <use xlink:href="#DejaVuSans-32" x="63.623047"/>
       <use xlink:href="#DejaVuSans-30" x="127.246094"/>
       <use xlink:href="#DejaVuSans-30" x="190.869141"/>
      </g>
     </g>
    </g>
   </g>
   <g id="line2d_25">
    <defs>
     <path id="mff6e4f8517" d="M 0 3 
C 0.795609 3 1.55874 2.683901 2.12132 2.12132 
C 2.683901 1.55874 3 0.795609 3 0 
C 3 -0.795609 2.683901 -1.55874 2.12132 -2.12132 
C 1.55874 -2.683901 0.795609 -3 0 -3 
C -0.795609 -3 -1.55874 -2.683901 -2.12132 -2.12132 
C -2.683901 -1.55874 -3 -0.795609 -3 0 
C -3 0.795609 -2.683901 1.55874 -2.12132 2.12132 
C -1.55874 2.683901 -0.795609 3 0 3 
z
" style="stroke: #ff7f0e"/>
    </defs>
    <g clip-path="url(#p8bc00dfc79)">
     <use xlink:href="#mff6e4f8517" x="79.970636" y="120.336719" style="fill: #ff7f0e; stroke: #ff7f0e"/>
     <use xlink:href="#mff6e4f8517" x="176.825909" y="138.38065" style="fill: #ff7f0e; stroke: #ff7f0e"/>
     <use xlink:href="#mff6e4f8517" x="311.557545" y="163.252015" style="fill: #ff7f0e; stroke: #ff7f0e"/>
     <use xlink:href="#mff6e4f8517" x="382.711" y="174.224676" style="fill: #ff7f0e; stroke: #ff7f0e"/>
    </g>
   </g>
   <g id="line2d_26">
    <path d="M 68.607727 118.318067 
L 71.854273 118.879315 
L 75.100818 119.440562 
L 78.347364 120.001809 
L 81.593909 120.563056 
L 84.840455 121.124304 
L 88.087 121.685551 
L 91.333545 122.246798 
L 94.580091 122.808045 
L 97.826636 123.369293 
L 101.073182 123.93054 
L 104.319727 124.491787 
L 107.566273 125.053034 
L 110.812818 125.614282 
L 114.059364 126.175529 
L 117.305909 126.736776 
L 120.552455 127.298023 
L 123.799 127.859271 
L 127.045545 128.420518 
L 130.292091 128.981765 
L 133.538636 129.543012 
L 136.785182 130.104259 
L 140.031727 130.665507 
L 143.278273 131.226754 
L 146.524818 131.788001 
L 149.771364 132.349248 
L 153.017909 132.910496 
L 156.264455 133.471743 
L 159.511 134.03299 
L 162.757545 134.594237 
L 166.004091 135.155485 
L 169.250636 135.716732 
L 172.497182 136.277979 
L 175.743727 136.839226 
L 178.990273 137.400474 
L 182.236818 137.961721 
L 185.483364 138.522968 
L 188.729909 139.084215 
L 191.976455 139.645462 
L 195.223 140.20671 
L 198.469545 140.767957 
L 201.716091 141.329204 
L 204.962636 141.890451 
L 208.209182 142.451699 
L 211.455727 143.012946 
L 214.702273 143.574193 
L 217.948818 144.13544 
L 221.195364 144.696688 
L 224.441909 145.257935 
L 227.688455 145.819182 
L 230.935 146.380429 
L 234.181545 146.941677 
L 237.428091 147.502924 
L 240.674636 148.064171 
L 243.921182 148.625418 
L 247.167727 149.186666 
L 250.414273 149.747913 
L 253.660818 150.30916 
L 256.907364 150.870407 
L 260.153909 151.431654 
L 263.400455 151.992902 
L 266.647 152.554149 
L 269.893545 153.115396 
L 273.140091 153.676643 
L 276.386636 154.237891 
L 279.633182 154.799138 
L 282.879727 155.360385 
L 286.126273 155.921632 
L 289.372818 156.48288 
L 292.619364 157.044127 
L 295.865909 157.605374 
L 299.112455 158.166621 
L 302.359 158.727869 
L 305.605545 159.289116 
L 308.852091 159.850363 
L 312.098636 160.41161 
L 315.345182 160.972857 
L 318.591727 161.534105 
L 321.838273 162.095352 
L 325.084818 162.656599 
L 328.331364 163.217846 
L 331.577909 163.779094 
L 334.824455 164.340341 
L 338.071 164.901588 
L 341.317545 165.462835 
L 344.564091 166.024083 
L 347.810636 166.58533 
L 351.057182 167.146577 
L 354.303727 167.707824 
L 357.550273 168.269072 
L 360.796818 168.830319 
L 364.043364 169.391566 
L 367.289909 169.952813 
L 370.536455 170.514061 
L 373.783 171.075308 
L 377.029545 171.636555 
L 380.276091 172.197802 
L 383.522636 172.759049 
L 386.769182 173.320297 
L 390.015727 173.881544 
L 393.262273 174.442791 
" clip-path="url(#p8bc00dfc79)" style="fill: none; stroke: #ff7f0e; stroke-width: 1.5; stroke-linecap: square"/>
   </g>
   <g id="line2d_27">
    <defs>
     <path id="m5b2af9e1fb" d="M 0 3 
C 0.795609 3 1.55874 2.683901 2.12132 2.12132 
C 2.683901 1.55874 3 0.795609 3 0 
C 3 -0.795609 2.683901 -1.55874 2.12132 -2.12132 
C 1.55874 -2.683901 0.795609 -3 0 -3 
C -0.795609 -3 -1.55874 -2.683901 -2.12132 -2.12132 
C -2.683901 -1.55874 -3 -0.795609 -3 0 
C -3 0.795609 -2.683901 1.55874 -2.12132 2.12132 
C -1.55874 2.683901 -0.795609 3 0 3 
z
" style="stroke: #2ca02c"/>
    </defs>
    <g clip-path="url(#p8bc00dfc79)">
     <use xlink:href="#m5b2af9e1fb" x="76.994636" y="214.701603" style="fill: #2ca02c; stroke: #2ca02c"/>
     <use xlink:href="#m5b2af9e1fb" x="174.120455" y="227.381122" style="fill: #2ca02c; stroke: #2ca02c"/>
     <use xlink:href="#m5b2af9e1fb" x="309.393182" y="246.156564" style="fill: #2ca02c; stroke: #2ca02c"/>
     <use xlink:href="#m5b2af9e1fb" x="380.005545" y="255.91004" style="fill: #2ca02c; stroke: #2ca02c"/>
    </g>
   </g>
   <g id="line2d_28">
    <path d="M 68.607727 213.673791 
L 71.854273 214.149213 
L 75.100818 214.624635 
L 78.347364 215.100058 
L 81.593909 215.57548 
L 84.840455 216.050902 
L 88.087 216.526324 
L 91.333545 217.001746 
L 94.580091 217.477168 
L 97.826636 217.95259 
L 101.073182 218.428012 
L 104.319727 218.903434 
L 107.566273 219.378856 
L 110.812818 219.854278 
L 114.059364 220.329701 
L 117.305909 220.805123 
L 120.552455 221.280545 
L 123.799 221.755967 
L 127.045545 222.231389 
L 130.292091 222.706811 
L 133.538636 223.182233 
L 136.785182 223.657655 
L 140.031727 224.133077 
L 143.278273 224.608499 
L 146.524818 225.083921 
L 149.771364 225.559343 
L 153.017909 226.034766 
L 156.264455 226.510188 
L 159.511 226.98561 
L 162.757545 227.461032 
L 166.004091 227.936454 
L 169.250636 228.411876 
L 172.497182 228.887298 
L 175.743727 229.36272 
L 178.990273 229.838142 
L 182.236818 230.313564 
L 185.483364 230.788986 
L 188.729909 231.264409 
L 191.976455 231.739831 
L 195.223 232.215253 
L 198.469545 232.690675 
L 201.716091 233.166097 
L 204.962636 233.641519 
L 208.209182 234.116941 
L 211.455727 234.592363 
L 214.702273 235.067785 
L 217.948818 235.543207 
L 221.195364 236.018629 
L 224.441909 236.494051 
L 227.688455 236.969474 
L 230.935 237.444896 
L 234.181545 237.920318 
L 237.428091 238.39574 
L 240.674636 238.871162 
L 243.921182 239.346584 
L 247.167727 239.822006 
L 250.414273 240.297428 
L 253.660818 240.77285 
L 256.907364 241.248272 
L 260.153909 241.723694 
L 263.400455 242.199117 
L 266.647 242.674539 
L 269.893545 243.149961 
L 273.140091 243.625383 
L 276.386636 244.100805 
L 279.633182 244.576227 
L 282.879727 245.051649 
L 286.126273 245.527071 
L 289.372818 246.002493 
L 292.619364 246.477915 
L 295.865909 246.953337 
L 299.112455 247.428759 
L 302.359 247.904182 
L 305.605545 248.379604 
L 308.852091 248.855026 
L 312.098636 249.330448 
L 315.345182 249.80587 
L 318.591727 250.281292 
L 321.838273 250.756714 
L 325.084818 251.232136 
L 328.331364 251.707558 
L 331.577909 252.18298 
L 334.824455 252.658402 
L 338.071 253.133825 
L 341.317545 253.609247 
L 344.564091 254.084669 
L 347.810636 254.560091 
L 351.057182 255.035513 
L 354.303727 255.510935 
L 357.550273 255.986357 
L 360.796818 256.461779 
L 364.043364 256.937201 
L 367.289909 257.412623 
L 370.536455 257.888045 
L 373.783 258.363467 
L 377.029545 258.83889 
L 380.276091 259.314312 
L 383.522636 259.789734 
L 386.769182 260.265156 
L 390.015727 260.740578 
L 393.262273 261.216 
" clip-path="url(#p8bc00dfc79)" style="fill: none; stroke: #2ca02c; stroke-width: 1.5; stroke-linecap: square"/>
   </g>
   <g id="line2d_29">
    <defs>
     <path id="m2c75f8ed43" d="M 0 3 
C 0.795609 3 1.55874 2.683901 2.12132 2.12132 
C 2.683901 1.55874 3 0.795609 3 0 
C 3 -0.795609 2.683901 -1.55874 2.12132 -2.12132 
C 1.55874 -2.683901 0.795609 -3 0 -3 
C -0.795609 -3 -1.55874 -2.683901 -2.12132 -2.12132 
C -2.683901 -1.55874 -3 -0.795609 -3 0 
C -3 0.795609 -2.683901 1.55874 -2.12132 2.12132 
C -1.55874 2.683901 -0.795609 3 0 3 
z
" style="stroke: #d62728"/>
    </defs>
    <g clip-path="url(#p8bc00dfc79)">
     <use xlink:href="#m2c75f8ed43" x="79.429545" y="117.89835" style="fill: #d62728; stroke: #d62728"/>
     <use xlink:href="#m2c75f8ed43" x="176.825909" y="136.429955" style="fill: #d62728; stroke: #d62728"/>
     <use xlink:href="#m2c75f8ed43" x="311.016455" y="161.30132" style="fill: #d62728; stroke: #d62728"/>
     <use xlink:href="#m2c75f8ed43" x="382.711" y="171.786307" style="fill: #d62728; stroke: #d62728"/>
    </g>
   </g>
   <g id="line2d_30">
    <path d="M 68.607727 116.484896 
L 71.854273 117.047793 
L 75.100818 117.61069 
L 78.347364 118.173587 
L 81.593909 118.736484 
L 84.840455 119.299382 
L 88.087 119.862279 
L 91.333545 120.425176 
L 94.580091 120.988073 
L 97.826636 121.55097 
L 101.073182 122.113868 
L 104.319727 122.676765 
L 107.566273 123.239662 
L 110.812818 123.802559 
L 114.059364 124.365456 
L 117.305909 124.928353 
L 120.552455 125.491251 
L 123.799 126.054148 
L 127.045545 126.617045 
L 130.292091 127.179942 
L 133.538636 127.742839 
L 136.785182 128.305737 
L 140.031727 128.868634 
L 143.278273 129.431531 
L 146.524818 129.994428 
L 149.771364 130.557325 
L 153.017909 131.120223 
L 156.264455 131.68312 
L 159.511 132.246017 
L 162.757545 132.808914 
L 166.004091 133.371811 
L 169.250636 133.934708 
L 172.497182 134.497606 
L 175.743727 135.060503 
L 178.990273 135.6234 
L 182.236818 136.186297 
L 185.483364 136.749194 
L 188.729909 137.312092 
L 191.976455 137.874989 
L 195.223 138.437886 
L 198.469545 139.000783 
L 201.716091 139.56368 
L 204.962636 140.126578 
L 208.209182 140.689475 
L 211.455727 141.252372 
L 214.702273 141.815269 
L 217.948818 142.378166 
L 221.195364 142.941063 
L 224.441909 143.503961 
L 227.688455 144.066858 
L 230.935 144.629755 
L 234.181545 145.192652 
L 237.428091 145.755549 
L 240.674636 146.318447 
L 243.921182 146.881344 
L 247.167727 147.444241 
L 250.414273 148.007138 
L 253.660818 148.570035 
L 256.907364 149.132933 
L 260.153909 149.69583 
L 263.400455 150.258727 
L 266.647 150.821624 
L 269.893545 151.384521 
L 273.140091 151.947418 
L 276.386636 152.510316 
L 279.633182 153.073213 
L 282.879727 153.63611 
L 286.126273 154.199007 
L 289.372818 154.761904 
L 292.619364 155.324802 
L 295.865909 155.887699 
L 299.112455 156.450596 
L 302.359 157.013493 
L 305.605545 157.57639 
L 308.852091 158.139288 
L 312.098636 158.702185 
L 315.345182 159.265082 
L 318.591727 159.827979 
L 321.838273 160.390876 
L 325.084818 160.953773 
L 328.331364 161.516671 
L 331.577909 162.079568 
L 334.824455 162.642465 
L 338.071 163.205362 
L 341.317545 163.768259 
L 344.564091 164.331157 
L 347.810636 164.894054 
L 351.057182 165.456951 
L 354.303727 166.019848 
L 357.550273 166.582745 
L 360.796818 167.145643 
L 364.043364 167.70854 
L 367.289909 168.271437 
L 370.536455 168.834334 
L 373.783 169.397231 
L 377.029545 169.960128 
L 380.276091 170.523026 
L 383.522636 171.085923 
L 386.769182 171.64882 
L 390.015727 172.211717 
L 393.262273 172.774614 
" clip-path="url(#p8bc00dfc79)" style="fill: none; stroke: #d62728; stroke-width: 1.5; stroke-linecap: square"/>
   </g>
   <g id="line2d_31">
    <defs>
     <path id="ma833c5b6ac" d="M 0 3 
C 0.795609 3 1.55874 2.683901 2.12132 2.12132 
C 2.683901 1.55874 3 0.795609 3 0 
C 3 -0.795609 2.683901 -1.55874 2.12132 -2.12132 
C 1.55874 -2.683901 0.795609 -3 0 -3 
C -0.795609 -3 -1.55874 -2.683901 -2.12132 -2.12132 
C -2.683901 -1.55874 -3 -0.795609 -3 0 
C -3 0.795609 -2.683901 1.55874 -2.12132 2.12132 
C -1.55874 2.683901 -0.795609 3 0 3 
z
" style="stroke: #9467bd"/>
    </defs>
    <g clip-path="url(#p8bc00dfc79)">
     <use xlink:href="#ma833c5b6ac" x="82.676091" y="21.338934" style="fill: #9467bd; stroke: #9467bd"/>
     <use xlink:href="#ma833c5b6ac" x="180.072455" y="40.114376" style="fill: #9467bd; stroke: #9467bd"/>
     <use xlink:href="#ma833c5b6ac" x="314.533545" y="66.936436" style="fill: #9467bd; stroke: #9467bd"/>
     <use xlink:href="#ma833c5b6ac" x="385.687" y="78.640607" style="fill: #9467bd; stroke: #9467bd"/>
    </g>
   </g>
   <g id="line2d_32">
    <path d="M 68.607727 19.296 
L 71.854273 19.946372 
L 75.100818 20.596745 
L 78.347364 21.247117 
L 81.593909 21.897489 
L 84.840455 22.547861 
L 88.087 23.198234 
L 91.333545 23.848606 
L 94.580091 24.498978 
L 97.826636 25.149351 
L 101.073182 25.799723 
L 104.319727 26.450095 
L 107.566273 27.100467 
L 110.812818 27.75084 
L 114.059364 28.401212 
L 117.305909 29.051584 
L 120.552455 29.701957 
L 123.799 30.352329 
L 127.045545 31.002701 
L 130.292091 31.653073 
L 133.538636 32.303446 
L 136.785182 32.953818 
L 140.031727 33.60419 
L 143.278273 34.254563 
L 146.524818 34.904935 
L 149.771364 35.555307 
L 153.017909 36.205679 
L 156.264455 36.856052 
L 159.511 37.506424 
L 162.757545 38.156796 
L 166.004091 38.807169 
L 169.250636 39.457541 
L 172.497182 40.107913 
L 175.743727 40.758285 
L 178.990273 41.408658 
L 182.236818 42.05903 
L 185.483364 42.709402 
L 188.729909 43.359775 
L 191.976455 44.010147 
L 195.223 44.660519 
L 198.469545 45.310892 
L 201.716091 45.961264 
L 204.962636 46.611636 
L 208.209182 47.262008 
L 211.455727 47.912381 
L 214.702273 48.562753 
L 217.948818 49.213125 
L 221.195364 49.863498 
L 224.441909 50.51387 
L 227.688455 51.164242 
L 230.935 51.814614 
L 234.181545 52.464987 
L 237.428091 53.115359 
L 240.674636 53.765731 
L 243.921182 54.416104 
L 247.167727 55.066476 
L 250.414273 55.716848 
L 253.660818 56.36722 
L 256.907364 57.017593 
L 260.153909 57.667965 
L 263.400455 58.318337 
L 266.647 58.96871 
L 269.893545 59.619082 
L 273.140091 60.269454 
L 276.386636 60.919826 
L 279.633182 61.570199 
L 282.879727 62.220571 
L 286.126273 62.870943 
L 289.372818 63.521316 
L 292.619364 64.171688 
L 295.865909 64.82206 
L 299.112455 65.472432 
L 302.359 66.122805 
L 305.605545 66.773177 
L 308.852091 67.423549 
L 312.098636 68.073922 
L 315.345182 68.724294 
L 318.591727 69.374666 
L 321.838273 70.025038 
L 325.084818 70.675411 
L 328.331364 71.325783 
L 331.577909 71.976155 
L 334.824455 72.626528 
L 338.071 73.2769 
L 341.317545 73.927272 
L 344.564091 74.577644 
L 347.810636 75.228017 
L 351.057182 75.878389 
L 354.303727 76.528761 
L 357.550273 77.179134 
L 360.796818 77.829506 
L 364.043364 78.479878 
L 367.289909 79.13025 
L 370.536455 79.780623 
L 373.783 80.430995 
L 377.029545 81.081367 
L 380.276091 81.73174 
L 383.522636 82.382112 
L 386.769182 83.032484 
L 390.015727 83.682856 
L 393.262273 84.333229 
" clip-path="url(#p8bc00dfc79)" style="fill: none; stroke: #9467bd; stroke-width: 1.5; stroke-linecap: square"/>
   </g>
   <g id="line2d_33">
    <defs>
     <path id="mc8bf80d0e1" d="M 0 3 
C 0.795609 3 1.55874 2.683901 2.12132 2.12132 
C 2.683901 1.55874 3 0.795609 3 0 
C 3 -0.795609 2.683901 -1.55874 2.12132 -2.12132 
C 1.55874 -2.683901 0.795609 -3 0 -3 
C -0.795609 -3 -1.55874 -2.683901 -2.12132 -2.12132 
C -2.683901 -1.55874 -3 -0.795609 -3 0 
C -3 0.795609 -2.683901 1.55874 -2.12132 2.12132 
C -1.55874 2.683901 -0.795609 3 0 3 
z
" style="stroke: #8c564b"/>
    </defs>
    <g clip-path="url(#p8bc00dfc79)">
     <use xlink:href="#mc8bf80d0e1" x="79.429545" y="116.191491" style="fill: #8c564b; stroke: #8c564b"/>
     <use xlink:href="#mc8bf80d0e1" x="176.825909" y="135.454607" style="fill: #8c564b; stroke: #8c564b"/>
     <use xlink:href="#mc8bf80d0e1" x="312.098636" y="159.106787" style="fill: #8c564b; stroke: #8c564b"/>
     <use xlink:href="#mc8bf80d0e1" x="382.711" y="171.298633" style="fill: #8c564b; stroke: #8c564b"/>
    </g>
   </g>
   <g id="line2d_34">
    <path d="M 68.607727 114.626951 
L 71.854273 115.191521 
L 75.100818 115.75609 
L 78.347364 116.32066 
L 81.593909 116.885229 
L 84.840455 117.449798 
L 88.087 118.014368 
L 91.333545 118.578937 
L 94.580091 119.143507 
L 97.826636 119.708076 
L 101.073182 120.272646 
L 104.319727 120.837215 
L 107.566273 121.401784 
L 110.812818 121.966354 
L 114.059364 122.530923 
L 117.305909 123.095493 
L 120.552455 123.660062 
L 123.799 124.224632 
L 127.045545 124.789201 
L 130.292091 125.35377 
L 133.538636 125.91834 
L 136.785182 126.482909 
L 140.031727 127.047479 
L 143.278273 127.612048 
L 146.524818 128.176618 
L 149.771364 128.741187 
L 153.017909 129.305757 
L 156.264455 129.870326 
L 159.511 130.434895 
L 162.757545 130.999465 
L 166.004091 131.564034 
L 169.250636 132.128604 
L 172.497182 132.693173 
L 175.743727 133.257743 
L 178.990273 133.822312 
L 182.236818 134.386881 
L 185.483364 134.951451 
L 188.729909 135.51602 
L 191.976455 136.08059 
L 195.223 136.645159 
L 198.469545 137.209729 
L 201.716091 137.774298 
L 204.962636 138.338867 
L 208.209182 138.903437 
L 211.455727 139.468006 
L 214.702273 140.032576 
L 217.948818 140.597145 
L 221.195364 141.161715 
L 224.441909 141.726284 
L 227.688455 142.290854 
L 230.935 142.855423 
L 234.181545 143.419992 
L 237.428091 143.984562 
L 240.674636 144.549131 
L 243.921182 145.113701 
L 247.167727 145.67827 
L 250.414273 146.24284 
L 253.660818 146.807409 
L 256.907364 147.371978 
L 260.153909 147.936548 
L 263.400455 148.501117 
L 266.647 149.065687 
L 269.893545 149.630256 
L 273.140091 150.194826 
L 276.386636 150.759395 
L 279.633182 151.323964 
L 282.879727 151.888534 
L 286.126273 152.453103 
L 289.372818 153.017673 
L 292.619364 153.582242 
L 295.865909 154.146812 
L 299.112455 154.711381 
L 302.359 155.275951 
L 305.605545 155.84052 
L 308.852091 156.405089 
L 312.098636 156.969659 
L 315.345182 157.534228 
L 318.591727 158.098798 
L 321.838273 158.663367 
L 325.084818 159.227937 
L 328.331364 159.792506 
L 331.577909 160.357075 
L 334.824455 160.921645 
L 338.071 161.486214 
L 341.317545 162.050784 
L 344.564091 162.615353 
L 347.810636 163.179923 
L 351.057182 163.744492 
L 354.303727 164.309061 
L 357.550273 164.873631 
L 360.796818 165.4382 
L 364.043364 166.00277 
L 367.289909 166.567339 
L 370.536455 167.131909 
L 373.783 167.696478 
L 377.029545 168.261048 
L 380.276091 168.825617 
L 383.522636 169.390186 
L 386.769182 169.954756 
L 390.015727 170.519325 
L 393.262273 171.083895 
" clip-path="url(#p8bc00dfc79)" style="fill: none; stroke: #8c564b; stroke-width: 1.5; stroke-linecap: square"/>
   </g>
   <g id="patch_3">
    <path d="M 52.375 273.312 
L 52.375 7.2 
" style="fill: none; stroke: #000000; stroke-width: 0.8; stroke-linejoin: miter; stroke-linecap: square"/>
   </g>
   <g id="patch_4">
    <path d="M 409.495 273.312 
L 409.495 7.2 
" style="fill: none; stroke: #000000; stroke-width: 0.8; stroke-linejoin: miter; stroke-linecap: square"/>
   </g>
   <g id="patch_5">
    <path d="M 52.375 273.312 
L 409.495 273.312 
" style="fill: none; stroke: #000000; stroke-width: 0.8; stroke-linejoin: miter; stroke-linecap: square"/>
   </g>
   <g id="patch_6">
    <path d="M 52.375 7.2 
L 409.495 7.2 
" style="fill: none; stroke: #000000; stroke-width: 0.8; stroke-linejoin: miter; stroke-linecap: square"/>
   </g>
   <g id="legend_1">
    <g id="patch_7">
     <path d="M 149.498125 69.64125 
L 401.095 69.64125 
Q 403.495 69.64125 403.495 67.24125 
L 403.495 15.6 
Q 403.495 13.2 401.095 13.2 
L 149.498125 13.2 
Q 147.098125 13.2 147.098125 15.6 
L 147.098125 67.24125 
Q 147.098125 69.64125 149.498125 69.64125 
z
" style="fill: #ffffff; opacity: 0.8; stroke: #cccccc; stroke-linejoin: miter"/>
    </g>
    <g id="line2d_35">
     <g>
      <use xlink:href="#mff6e4f8517" x="163.898125" y="22.918125" style="fill: #ff7f0e; stroke: #ff7f0e"/>
     </g>
    </g>
    <g id="text_13">
     <!-- 0 V, 0 Turn -->
     <g transform="translate(185.498125 27.118125) scale(0.12 -0.12)">
      <defs>
       <path id="DejaVuSans-20" transform="scale(0.015625)"/>
       <path id="DejaVuSans-56" d="M 1831 0 
L 50 4666 
L 709 4666 
L 2188 738 
L 3669 4666 
L 4325 4666 
L 2547 0 
L 1831 0 
z
" transform="scale(0.015625)"/>
       <path id="DejaVuSans-2c" d="M 750 794 
L 1409 794 
L 1409 256 
L 897 -744 
L 494 -744 
L 750 256 
L 750 794 
z
" transform="scale(0.015625)"/>
       <path id="DejaVuSans-54" d="M -19 4666 
L 3928 4666 
L 3928 4134 
L 2272 4134 
L 2272 0 
L 1638 0 
L 1638 4134 
L -19 4134 
L -19 4666 
z
" transform="scale(0.015625)"/>
       <path id="DejaVuSans-75" d="M 544 1381 
L 544 3500 
L 1119 3500 
L 1119 1403 
Q 1119 906 1312 657 
Q 1506 409 1894 409 
Q 2359 409 2629 706 
Q 2900 1003 2900 1516 
L 2900 3500 
L 3475 3500 
L 3475 0 
L 2900 0 
L 2900 538 
Q 2691 219 2414 64 
Q 2138 -91 1772 -91 
Q 1169 -91 856 284 
Q 544 659 544 1381 
z
M 1991 3584 
L 1991 3584 
z
" transform="scale(0.015625)"/>
       <path id="DejaVuSans-72" d="M 2631 2963 
Q 2534 3019 2420 3045 
Q 2306 3072 2169 3072 
Q 1681 3072 1420 2755 
Q 1159 2438 1159 1844 
L 1159 0 
L 581 0 
L 581 3500 
L 1159 3500 
L 1159 2956 
Q 1341 3275 1631 3429 
Q 1922 3584 2338 3584 
Q 2397 3584 2469 3576 
Q 2541 3569 2628 3553 
L 2631 2963 
z
" transform="scale(0.015625)"/>
       <path id="DejaVuSans-6e" d="M 3513 2113 
L 3513 0 
L 2938 0 
L 2938 2094 
Q 2938 2591 2744 2837 
Q 2550 3084 2163 3084 
Q 1697 3084 1428 2787 
Q 1159 2491 1159 1978 
L 1159 0 
L 581 0 
L 581 3500 
L 1159 3500 
L 1159 2956 
Q 1366 3272 1645 3428 
Q 1925 3584 2291 3584 
Q 2894 3584 3203 3211 
Q 3513 2838 3513 2113 
z
" transform="scale(0.015625)"/>
      </defs>
      <use xlink:href="#DejaVuSans-30"/>
      <use xlink:href="#DejaVuSans-20" x="63.623047"/>
      <use xlink:href="#DejaVuSans-56" x="95.410156"/>
      <use xlink:href="#DejaVuSans-2c" x="163.818359"/>
      <use xlink:href="#DejaVuSans-20" x="195.605469"/>
      <use xlink:href="#DejaVuSans-30" x="227.392578"/>
      <use xlink:href="#DejaVuSans-20" x="291.015625"/>
      <use xlink:href="#DejaVuSans-54" x="322.802734"/>
      <use xlink:href="#DejaVuSans-75" x="368.761719"/>
      <use xlink:href="#DejaVuSans-72" x="432.140625"/>
      <use xlink:href="#DejaVuSans-6e" x="471.503906"/>
     </g>
    </g>
    <g id="line2d_36">
     <g>
      <use xlink:href="#m5b2af9e1fb" x="163.898125" y="40.531875" style="fill: #2ca02c; stroke: #2ca02c"/>
     </g>
    </g>
    <g id="text_14">
     <!-- 74 V, -1 Turn -->
     <g transform="translate(185.498125 44.731875) scale(0.12 -0.12)">
      <defs>
       <path id="DejaVuSans-37" d="M 525 4666 
L 3525 4666 
L 3525 4397 
L 1831 0 
L 1172 0 
L 2766 4134 
L 525 4134 
L 525 4666 
z
" transform="scale(0.015625)"/>
       <path id="DejaVuSans-2d" d="M 313 2009 
L 1997 2009 
L 1997 1497 
L 313 1497 
L 313 2009 
z
" transform="scale(0.015625)"/>
      </defs>
      <use xlink:href="#DejaVuSans-37"/>
      <use xlink:href="#DejaVuSans-34" x="63.623047"/>
      <use xlink:href="#DejaVuSans-20" x="127.246094"/>
      <use xlink:href="#DejaVuSans-56" x="159.033203"/>
      <use xlink:href="#DejaVuSans-2c" x="227.441406"/>
      <use xlink:href="#DejaVuSans-20" x="259.228516"/>
      <use xlink:href="#DejaVuSans-2d" x="291.015625"/>
      <use xlink:href="#DejaVuSans-31" x="327.099609"/>
      <use xlink:href="#DejaVuSans-20" x="390.722656"/>
      <use xlink:href="#DejaVuSans-54" x="422.509766"/>
      <use xlink:href="#DejaVuSans-75" x="468.46875"/>
      <use xlink:href="#DejaVuSans-72" x="531.847656"/>
      <use xlink:href="#DejaVuSans-6e" x="571.210938"/>
     </g>
    </g>
    <g id="line2d_37">
     <g>
      <use xlink:href="#m2c75f8ed43" x="163.898125" y="58.145625" style="fill: #d62728; stroke: #d62728"/>
     </g>
    </g>
    <g id="text_15">
     <!-- 74 V, 0 Turn -->
     <g transform="translate(185.498125 62.345625) scale(0.12 -0.12)">
      <use xlink:href="#DejaVuSans-37"/>
      <use xlink:href="#DejaVuSans-34" x="63.623047"/>
      <use xlink:href="#DejaVuSans-20" x="127.246094"/>
      <use xlink:href="#DejaVuSans-56" x="159.033203"/>
      <use xlink:href="#DejaVuSans-2c" x="227.441406"/>
      <use xlink:href="#DejaVuSans-20" x="259.228516"/>
      <use xlink:href="#DejaVuSans-30" x="291.015625"/>
      <use xlink:href="#DejaVuSans-20" x="354.638672"/>
      <use xlink:href="#DejaVuSans-54" x="386.425781"/>
      <use xlink:href="#DejaVuSans-75" x="432.384766"/>
      <use xlink:href="#DejaVuSans-72" x="495.763672"/>
      <use xlink:href="#DejaVuSans-6e" x="535.126953"/>
     </g>
    </g>
    <g id="line2d_38">
     <g>
      <use xlink:href="#ma833c5b6ac" x="297.64375" y="22.918125" style="fill: #9467bd; stroke: #9467bd"/>
     </g>
    </g>
    <g id="text_16">
     <!-- 74 V, 1 Turn -->
     <g transform="translate(319.24375 27.118125) scale(0.12 -0.12)">
      <use xlink:href="#DejaVuSans-37"/>
      <use xlink:href="#DejaVuSans-34" x="63.623047"/>
      <use xlink:href="#DejaVuSans-20" x="127.246094"/>
      <use xlink:href="#DejaVuSans-56" x="159.033203"/>
      <use xlink:href="#DejaVuSans-2c" x="227.441406"/>
      <use xlink:href="#DejaVuSans-20" x="259.228516"/>
      <use xlink:href="#DejaVuSans-31" x="291.015625"/>
      <use xlink:href="#DejaVuSans-20" x="354.638672"/>
      <use xlink:href="#DejaVuSans-54" x="386.425781"/>
      <use xlink:href="#DejaVuSans-75" x="432.384766"/>
      <use xlink:href="#DejaVuSans-72" x="495.763672"/>
      <use xlink:href="#DejaVuSans-6e" x="535.126953"/>
     </g>
    </g>
    <g id="line2d_39">
     <g>
      <use xlink:href="#mc8bf80d0e1" x="297.64375" y="40.531875" style="fill: #8c564b; stroke: #8c564b"/>
     </g>
    </g>
    <g id="text_17">
     <!-- 149 V, 0 Turn -->
     <g transform="translate(319.24375 44.731875) scale(0.12 -0.12)">
      <defs>
       <path id="DejaVuSans-39" d="M 703 97 
L 703 672 
Q 941 559 1184 500 
Q 1428 441 1663 441 
Q 2288 441 2617 861 
Q 2947 1281 2994 2138 
Q 2813 1869 2534 1725 
Q 2256 1581 1919 1581 
Q 1219 1581 811 2004 
Q 403 2428 403 3163 
Q 403 3881 828 4315 
Q 1253 4750 1959 4750 
Q 2769 4750 3195 4129 
Q 3622 3509 3622 2328 
Q 3622 1225 3098 567 
Q 2575 -91 1691 -91 
Q 1453 -91 1209 -44 
Q 966 3 703 97 
z
M 1959 2075 
Q 2384 2075 2632 2365 
Q 2881 2656 2881 3163 
Q 2881 3666 2632 3958 
Q 2384 4250 1959 4250 
Q 1534 4250 1286 3958 
Q 1038 3666 1038 3163 
Q 1038 2656 1286 2365 
Q 1534 2075 1959 2075 
z
" transform="scale(0.015625)"/>
      </defs>
      <use xlink:href="#DejaVuSans-31"/>
      <use xlink:href="#DejaVuSans-34" x="63.623047"/>
      <use xlink:href="#DejaVuSans-39" x="127.246094"/>
      <use xlink:href="#DejaVuSans-20" x="190.869141"/>
      <use xlink:href="#DejaVuSans-56" x="222.65625"/>
      <use xlink:href="#DejaVuSans-2c" x="291.064453"/>
      <use xlink:href="#DejaVuSans-20" x="322.851562"/>
      <use xlink:href="#DejaVuSans-30" x="354.638672"/>
      <use xlink:href="#DejaVuSans-20" x="418.261719"/>
      <use xlink:href="#DejaVuSans-54" x="450.048828"/>
      <use xlink:href="#DejaVuSans-75" x="496.007812"/>
      <use xlink:href="#DejaVuSans-72" x="559.386719"/>
      <use xlink:href="#DejaVuSans-6e" x="598.75"/>
     </g>
    </g>
   </g>
  </g>
 </g>
 <defs>
  <clipPath id="p8bc00dfc79">
   <rect x="52.375" y="7.2" width="357.12" height="266.112"/>
  </clipPath>
 </defs>
</svg>
