<?xml version="1.0" encoding="utf-8" standalone="no"?>
<!DOCTYPE svg PUBLIC "-//W3C//DTD SVG 1.1//EN"
  "http://www.w3.org/Graphics/SVG/1.1/DTD/svg11.dtd">
<svg xmlns:xlink="http://www.w3.org/1999/xlink" width="425.730937pt" height="331.128016pt" viewBox="0 0 425.730937 331.128016" xmlns="http://www.w3.org/2000/svg" version="1.1">
 <defs>
  <style type="text/css">*{stroke-linejoin: round; stroke-linecap: butt}</style>
 </defs>
 <g id="figure_1">
  <g id="patch_1">
   <path d="M 0 331.128016 
L 425.730937 331.128016 
L 425.730937 0 
L 0 0 
L 0 331.128016 
z
" style="fill: none"/>
  </g>
  <g id="axes_1">
   <g id="patch_2">
    <path d="M 61.410938 279.010828 
L 418.530938 279.010828 
L 418.530938 12.898828 
L 61.410938 12.898828 
L 61.410938 279.010828 
z
" style="fill: none"/>
   </g>
   <g id="matplotlib.axis_1">
    <g id="xtick_1">
     <g id="line2d_1">
      <path d="M 77.643665 279.010828 
L 77.643665 12.898828 
" clip-path="url(#pb29c5caca8)" style="fill: none; stroke: #b0b0b0; stroke-width: 0.8; stroke-linecap: square"/>
     </g>
     <g id="line2d_2">
      <defs>
       <path id="md39032bed2" d="M 0 0 
L 0 3.5 
" style="stroke: #000000; stroke-width: 0.8"/>
      </defs>
      <g>
       <use xlink:href="#md39032bed2" x="77.643665" y="279.010828" style="stroke: #000000; stroke-width: 0.8"/>
      </g>
     </g>
     <g id="text_1">
      <!-- 0 -->
      <g transform="translate(72.87179 297.408484)scale(0.15 -0.15)">
       <defs>
        <path id="DejaVuSans-30" d="M 2034 4250 
Q 1547 4250 1301 3770 
Q 1056 3291 1056 2328 
Q 1056 1369 1301 889 
Q 1547 409 2034 409 
Q 2525 409 2770 889 
Q 3016 1369 3016 2328 
Q 3016 3291 2770 3770 
Q 2525 4250 2034 4250 
z
M 2034 4750 
Q 2819 4750 3233 4129 
Q 3647 3509 3647 2328 
Q 3647 1150 3233 529 
Q 2819 -91 2034 -91 
Q 1250 -91 836 529 
Q 422 1150 422 2328 
Q 422 3509 836 4129 
Q 1250 4750 2034 4750 
z
" transform="scale(0.015625)"/>
       </defs>
       <use xlink:href="#DejaVuSans-30"/>
      </g>
     </g>
    </g>
    <g id="xtick_2">
     <g id="line2d_3">
      <path d="M 154.942366 279.010828 
L 154.942366 12.898828 
" clip-path="url(#pb29c5caca8)" style="fill: none; stroke: #b0b0b0; stroke-width: 0.8; stroke-linecap: square"/>
     </g>
     <g id="line2d_4">
      <g>
       <use xlink:href="#md39032bed2" x="154.942366" y="279.010828" style="stroke: #000000; stroke-width: 0.8"/>
      </g>
     </g>
     <g id="text_2">
      <!-- 10 -->
      <g transform="translate(145.398616 297.408484)scale(0.15 -0.15)">
       <defs>
        <path id="DejaVuSans-31" d="M 794 531 
L 1825 531 
L 1825 4091 
L 703 3866 
L 703 4441 
L 1819 4666 
L 2450 4666 
L 2450 531 
L 3481 531 
L 3481 0 
L 794 0 
L 794 531 
z
" transform="scale(0.015625)"/>
       </defs>
       <use xlink:href="#DejaVuSans-31"/>
       <use xlink:href="#DejaVuSans-30" x="63.623047"/>
      </g>
     </g>
    </g>
    <g id="xtick_3">
     <g id="line2d_5">
      <path d="M 232.241067 279.010828 
L 232.241067 12.898828 
" clip-path="url(#pb29c5caca8)" style="fill: none; stroke: #b0b0b0; stroke-width: 0.8; stroke-linecap: square"/>
     </g>
     <g id="line2d_6">
      <g>
       <use xlink:href="#md39032bed2" x="232.241067" y="279.010828" style="stroke: #000000; stroke-width: 0.8"/>
      </g>
     </g>
     <g id="text_3">
      <!-- 20 -->
      <g transform="translate(222.697317 297.408484)scale(0.15 -0.15)">
       <defs>
        <path id="DejaVuSans-32" d="M 1228 531 
L 3431 531 
L 3431 0 
L 469 0 
L 469 531 
Q 828 903 1448 1529 
Q 2069 2156 2228 2338 
Q 2531 2678 2651 2914 
Q 2772 3150 2772 3378 
Q 2772 3750 2511 3984 
Q 2250 4219 1831 4219 
Q 1534 4219 1204 4116 
Q 875 4013 500 3803 
L 500 4441 
Q 881 4594 1212 4672 
Q 1544 4750 1819 4750 
Q 2544 4750 2975 4387 
Q 3406 4025 3406 3419 
Q 3406 3131 3298 2873 
Q 3191 2616 2906 2266 
Q 2828 2175 2409 1742 
Q 1991 1309 1228 531 
z
" transform="scale(0.015625)"/>
       </defs>
       <use xlink:href="#DejaVuSans-32"/>
       <use xlink:href="#DejaVuSans-30" x="63.623047"/>
      </g>
     </g>
    </g>
    <g id="xtick_4">
     <g id="line2d_7">
      <path d="M 309.539769 279.010828 
L 309.539769 12.898828 
" clip-path="url(#pb29c5caca8)" style="fill: none; stroke: #b0b0b0; stroke-width: 0.8; stroke-linecap: square"/>
     </g>
     <g id="line2d_8">
      <g>
       <use xlink:href="#md39032bed2" x="309.539769" y="279.010828" style="stroke: #000000; stroke-width: 0.8"/>
      </g>
     </g>
     <g id="text_4">
      <!-- 30 -->
      <g transform="translate(299.996019 297.408484)scale(0.15 -0.15)">
       <defs>
        <path id="DejaVuSans-33" d="M 2597 2516 
Q 3050 2419 3304 2112 
Q 3559 1806 3559 1356 
Q 3559 666 3084 287 
Q 2609 -91 1734 -91 
Q 1441 -91 1130 -33 
Q 819 25 488 141 
L 488 750 
Q 750 597 1062 519 
Q 1375 441 1716 441 
Q 2309 441 2620 675 
Q 2931 909 2931 1356 
Q 2931 1769 2642 2001 
Q 2353 2234 1838 2234 
L 1294 2234 
L 1294 2753 
L 1863 2753 
Q 2328 2753 2575 2939 
Q 2822 3125 2822 3475 
Q 2822 3834 2567 4026 
Q 2313 4219 1838 4219 
Q 1578 4219 1281 4162 
Q 984 4106 628 3988 
L 628 4550 
Q 988 4650 1302 4700 
Q 1616 4750 1894 4750 
Q 2613 4750 3031 4423 
Q 3450 4097 3450 3541 
Q 3450 3153 3228 2886 
Q 3006 2619 2597 2516 
z
" transform="scale(0.015625)"/>
       </defs>
       <use xlink:href="#DejaVuSans-33"/>
       <use xlink:href="#DejaVuSans-30" x="63.623047"/>
      </g>
     </g>
    </g>
    <g id="xtick_5">
     <g id="line2d_9">
      <path d="M 386.83847 279.010828 
L 386.83847 12.898828 
" clip-path="url(#pb29c5caca8)" style="fill: none; stroke: #b0b0b0; stroke-width: 0.8; stroke-linecap: square"/>
     </g>
     <g id="line2d_10">
      <g>
       <use xlink:href="#md39032bed2" x="386.83847" y="279.010828" style="stroke: #000000; stroke-width: 0.8"/>
      </g>
     </g>
     <g id="text_5">
      <!-- 40 -->
      <g transform="translate(377.29472 297.408484)scale(0.15 -0.15)">
       <defs>
        <path id="DejaVuSans-34" d="M 2419 4116 
L 825 1625 
L 2419 1625 
L 2419 4116 
z
M 2253 4666 
L 3047 4666 
L 3047 1625 
L 3713 1625 
L 3713 1100 
L 3047 1100 
L 3047 0 
L 2419 0 
L 2419 1100 
L 313 1100 
L 313 1709 
L 2253 4666 
z
" transform="scale(0.015625)"/>
       </defs>
       <use xlink:href="#DejaVuSans-34"/>
       <use xlink:href="#DejaVuSans-30" x="63.623047"/>
      </g>
     </g>
    </g>
    <g id="text_6">
     <!-- 435 Pulse Time ($\mu s$) -->
     <g transform="translate(140.670938 319.728016)scale(0.2 -0.2)">
      <defs>
       <path id="DejaVuSans-35" d="M 691 4666 
L 3169 4666 
L 3169 4134 
L 1269 4134 
L 1269 2991 
Q 1406 3038 1543 3061 
Q 1681 3084 1819 3084 
Q 2600 3084 3056 2656 
Q 3513 2228 3513 1497 
Q 3513 744 3044 326 
Q 2575 -91 1722 -91 
Q 1428 -91 1123 -41 
Q 819 9 494 109 
L 494 744 
Q 775 591 1075 516 
Q 1375 441 1709 441 
Q 2250 441 2565 725 
Q 2881 1009 2881 1497 
Q 2881 1984 2565 2268 
Q 2250 2553 1709 2553 
Q 1456 2553 1204 2497 
Q 953 2441 691 2322 
L 691 4666 
z
" transform="scale(0.015625)"/>
       <path id="DejaVuSans-20" transform="scale(0.015625)"/>
       <path id="DejaVuSans-50" d="M 1259 4147 
L 1259 2394 
L 2053 2394 
Q 2494 2394 2734 2622 
Q 2975 2850 2975 3272 
Q 2975 3691 2734 3919 
Q 2494 4147 2053 4147 
L 1259 4147 
z
M 628 4666 
L 2053 4666 
Q 2838 4666 3239 4311 
Q 3641 3956 3641 3272 
Q 3641 2581 3239 2228 
Q 2838 1875 2053 1875 
L 1259 1875 
L 1259 0 
L 628 0 
L 628 4666 
z
" transform="scale(0.015625)"/>
       <path id="DejaVuSans-75" d="M 544 1381 
L 544 3500 
L 1119 3500 
L 1119 1403 
Q 1119 906 1312 657 
Q 1506 409 1894 409 
Q 2359 409 2629 706 
Q 2900 1003 2900 1516 
L 2900 3500 
L 3475 3500 
L 3475 0 
L 2900 0 
L 2900 538 
Q 2691 219 2414 64 
Q 2138 -91 1772 -91 
Q 1169 -91 856 284 
Q 544 659 544 1381 
z
M 1991 3584 
L 1991 3584 
z
" transform="scale(0.015625)"/>
       <path id="DejaVuSans-6c" d="M 603 4863 
L 1178 4863 
L 1178 0 
L 603 0 
L 603 4863 
z
" transform="scale(0.015625)"/>
       <path id="DejaVuSans-73" d="M 2834 3397 
L 2834 2853 
Q 2591 2978 2328 3040 
Q 2066 3103 1784 3103 
Q 1356 3103 1142 2972 
Q 928 2841 928 2578 
Q 928 2378 1081 2264 
Q 1234 2150 1697 2047 
L 1894 2003 
Q 2506 1872 2764 1633 
Q 3022 1394 3022 966 
Q 3022 478 2636 193 
Q 2250 -91 1575 -91 
Q 1294 -91 989 -36 
Q 684 19 347 128 
L 347 722 
Q 666 556 975 473 
Q 1284 391 1588 391 
Q 1994 391 2212 530 
Q 2431 669 2431 922 
Q 2431 1156 2273 1281 
Q 2116 1406 1581 1522 
L 1381 1569 
Q 847 1681 609 1914 
Q 372 2147 372 2553 
Q 372 3047 722 3315 
Q 1072 3584 1716 3584 
Q 2034 3584 2315 3537 
Q 2597 3491 2834 3397 
z
" transform="scale(0.015625)"/>
       <path id="DejaVuSans-65" d="M 3597 1894 
L 3597 1613 
L 953 1613 
Q 991 1019 1311 708 
Q 1631 397 2203 397 
Q 2534 397 2845 478 
Q 3156 559 3463 722 
L 3463 178 
Q 3153 47 2828 -22 
Q 2503 -91 2169 -91 
Q 1331 -91 842 396 
Q 353 884 353 1716 
Q 353 2575 817 3079 
Q 1281 3584 2069 3584 
Q 2775 3584 3186 3129 
Q 3597 2675 3597 1894 
z
M 3022 2063 
Q 3016 2534 2758 2815 
Q 2500 3097 2075 3097 
Q 1594 3097 1305 2825 
Q 1016 2553 972 2059 
L 3022 2063 
z
" transform="scale(0.015625)"/>
       <path id="DejaVuSans-54" d="M -19 4666 
L 3928 4666 
L 3928 4134 
L 2272 4134 
L 2272 0 
L 1638 0 
L 1638 4134 
L -19 4134 
L -19 4666 
z
" transform="scale(0.015625)"/>
       <path id="DejaVuSans-69" d="M 603 3500 
L 1178 3500 
L 1178 0 
L 603 0 
L 603 3500 
z
M 603 4863 
L 1178 4863 
L 1178 4134 
L 603 4134 
L 603 4863 
z
" transform="scale(0.015625)"/>
       <path id="DejaVuSans-6d" d="M 3328 2828 
Q 3544 3216 3844 3400 
Q 4144 3584 4550 3584 
Q 5097 3584 5394 3201 
Q 5691 2819 5691 2113 
L 5691 0 
L 5113 0 
L 5113 2094 
Q 5113 2597 4934 2840 
Q 4756 3084 4391 3084 
Q 3944 3084 3684 2787 
Q 3425 2491 3425 1978 
L 3425 0 
L 2847 0 
L 2847 2094 
Q 2847 2600 2669 2842 
Q 2491 3084 2119 3084 
Q 1678 3084 1418 2786 
Q 1159 2488 1159 1978 
L 1159 0 
L 581 0 
L 581 3500 
L 1159 3500 
L 1159 2956 
Q 1356 3278 1631 3431 
Q 1906 3584 2284 3584 
Q 2666 3584 2933 3390 
Q 3200 3197 3328 2828 
z
" transform="scale(0.015625)"/>
       <path id="DejaVuSans-28" d="M 1984 4856 
Q 1566 4138 1362 3434 
Q 1159 2731 1159 2009 
Q 1159 1288 1364 580 
Q 1569 -128 1984 -844 
L 1484 -844 
Q 1016 -109 783 600 
Q 550 1309 550 2009 
Q 550 2706 781 3412 
Q 1013 4119 1484 4856 
L 1984 4856 
z
" transform="scale(0.015625)"/>
       <path id="DejaVuSans-Oblique-3bc" d="M -84 -1331 
L 856 3500 
L 1434 3500 
L 1009 1322 
Q 997 1256 987 1175 
Q 978 1094 978 1013 
Q 978 722 1161 565 
Q 1344 409 1684 409 
Q 2147 409 2431 671 
Q 2716 934 2816 1459 
L 3213 3500 
L 3788 3500 
L 3266 809 
Q 3253 750 3248 706 
Q 3244 663 3244 628 
Q 3244 531 3283 486 
Q 3322 441 3406 441 
Q 3438 441 3492 456 
Q 3547 472 3647 513 
L 3559 50 
Q 3422 -19 3297 -55 
Q 3172 -91 3053 -91 
Q 2847 -91 2730 40 
Q 2613 172 2613 403 
Q 2438 153 2195 31 
Q 1953 -91 1625 -91 
Q 1334 -91 1117 43 
Q 900 178 831 397 
L 494 -1331 
L -84 -1331 
z
" transform="scale(0.015625)"/>
       <path id="DejaVuSans-Oblique-73" d="M 3200 3397 
L 3091 2853 
Q 2863 2978 2609 3040 
Q 2356 3103 2088 3103 
Q 1634 3103 1373 2948 
Q 1113 2794 1113 2528 
Q 1113 2219 1719 2053 
Q 1766 2041 1788 2034 
L 1972 1978 
Q 2547 1819 2739 1644 
Q 2931 1469 2931 1166 
Q 2931 609 2489 259 
Q 2047 -91 1331 -91 
Q 1053 -91 747 -37 
Q 441 16 72 128 
L 184 722 
Q 500 559 806 475 
Q 1113 391 1394 391 
Q 1816 391 2080 572 
Q 2344 753 2344 1031 
Q 2344 1331 1650 1516 
L 1591 1531 
L 1394 1581 
Q 956 1697 753 1886 
Q 550 2075 550 2369 
Q 550 2928 970 3256 
Q 1391 3584 2113 3584 
Q 2397 3584 2667 3537 
Q 2938 3491 3200 3397 
z
" transform="scale(0.015625)"/>
       <path id="DejaVuSans-29" d="M 513 4856 
L 1013 4856 
Q 1481 4119 1714 3412 
Q 1947 2706 1947 2009 
Q 1947 1309 1714 600 
Q 1481 -109 1013 -844 
L 513 -844 
Q 928 -128 1133 580 
Q 1338 1288 1338 2009 
Q 1338 2731 1133 3434 
Q 928 4138 513 4856 
z
" transform="scale(0.015625)"/>
      </defs>
      <use xlink:href="#DejaVuSans-34" transform="translate(0 0.015625)"/>
      <use xlink:href="#DejaVuSans-33" transform="translate(63.623047 0.015625)"/>
      <use xlink:href="#DejaVuSans-35" transform="translate(127.246094 0.015625)"/>
      <use xlink:href="#DejaVuSans-20" transform="translate(190.869141 0.015625)"/>
      <use xlink:href="#DejaVuSans-50" transform="translate(222.65625 0.015625)"/>
      <use xlink:href="#DejaVuSans-75" transform="translate(282.958984 0.015625)"/>
      <use xlink:href="#DejaVuSans-6c" transform="translate(346.337891 0.015625)"/>
      <use xlink:href="#DejaVuSans-73" transform="translate(374.121094 0.015625)"/>
      <use xlink:href="#DejaVuSans-65" transform="translate(426.220703 0.015625)"/>
      <use xlink:href="#DejaVuSans-20" transform="translate(487.744141 0.015625)"/>
      <use xlink:href="#DejaVuSans-54" transform="translate(519.53125 0.015625)"/>
      <use xlink:href="#DejaVuSans-69" transform="translate(580.615234 0.015625)"/>
      <use xlink:href="#DejaVuSans-6d" transform="translate(608.398438 0.015625)"/>
      <use xlink:href="#DejaVuSans-65" transform="translate(705.810547 0.015625)"/>
      <use xlink:href="#DejaVuSans-20" transform="translate(767.333984 0.015625)"/>
      <use xlink:href="#DejaVuSans-28" transform="translate(799.121094 0.015625)"/>
      <use xlink:href="#DejaVuSans-Oblique-3bc" transform="translate(838.134766 0.015625)"/>
      <use xlink:href="#DejaVuSans-Oblique-73" transform="translate(901.757812 0.015625)"/>
      <use xlink:href="#DejaVuSans-29" transform="translate(953.857422 0.015625)"/>
     </g>
    </g>
   </g>
   <g id="matplotlib.axis_2">
    <g id="ytick_1">
     <g id="line2d_11">
      <path d="M 61.410938 279.010828 
L 418.530938 279.010828 
" clip-path="url(#pb29c5caca8)" style="fill: none; stroke: #b0b0b0; stroke-width: 0.8; stroke-linecap: square"/>
     </g>
     <g id="line2d_12">
      <defs>
       <path id="m6f3f5b6aff" d="M 0 0 
L -3.5 0 
" style="stroke: #000000; stroke-width: 0.8"/>
      </defs>
      <g>
       <use xlink:href="#m6f3f5b6aff" x="61.410938" y="279.010828" style="stroke: #000000; stroke-width: 0.8"/>
      </g>
     </g>
     <g id="text_7">
      <!-- 0.0 -->
      <g transform="translate(30.55625 284.709656)scale(0.15 -0.15)">
       <defs>
        <path id="DejaVuSans-2e" d="M 684 794 
L 1344 794 
L 1344 0 
L 684 0 
L 684 794 
z
" transform="scale(0.015625)"/>
       </defs>
       <use xlink:href="#DejaVuSans-30"/>
       <use xlink:href="#DejaVuSans-2e" x="63.623047"/>
       <use xlink:href="#DejaVuSans-30" x="95.410156"/>
      </g>
     </g>
    </g>
    <g id="ytick_2">
     <g id="line2d_13">
      <path d="M 61.410938 225.788428 
L 418.530938 225.788428 
" clip-path="url(#pb29c5caca8)" style="fill: none; stroke: #b0b0b0; stroke-width: 0.8; stroke-linecap: square"/>
     </g>
     <g id="line2d_14">
      <g>
       <use xlink:href="#m6f3f5b6aff" x="61.410938" y="225.788428" style="stroke: #000000; stroke-width: 0.8"/>
      </g>
     </g>
     <g id="text_8">
      <!-- 0.2 -->
      <g transform="translate(30.55625 231.487256)scale(0.15 -0.15)">
       <use xlink:href="#DejaVuSans-30"/>
       <use xlink:href="#DejaVuSans-2e" x="63.623047"/>
       <use xlink:href="#DejaVuSans-32" x="95.410156"/>
      </g>
     </g>
    </g>
    <g id="ytick_3">
     <g id="line2d_15">
      <path d="M 61.410938 172.566028 
L 418.530938 172.566028 
" clip-path="url(#pb29c5caca8)" style="fill: none; stroke: #b0b0b0; stroke-width: 0.8; stroke-linecap: square"/>
     </g>
     <g id="line2d_16">
      <g>
       <use xlink:href="#m6f3f5b6aff" x="61.410938" y="172.566028" style="stroke: #000000; stroke-width: 0.8"/>
      </g>
     </g>
     <g id="text_9">
      <!-- 0.4 -->
      <g transform="translate(30.55625 178.264856)scale(0.15 -0.15)">
       <use xlink:href="#DejaVuSans-30"/>
       <use xlink:href="#DejaVuSans-2e" x="63.623047"/>
       <use xlink:href="#DejaVuSans-34" x="95.410156"/>
      </g>
     </g>
    </g>
    <g id="ytick_4">
     <g id="line2d_17">
      <path d="M 61.410938 119.343628 
L 418.530938 119.343628 
" clip-path="url(#pb29c5caca8)" style="fill: none; stroke: #b0b0b0; stroke-width: 0.8; stroke-linecap: square"/>
     </g>
     <g id="line2d_18">
      <g>
       <use xlink:href="#m6f3f5b6aff" x="61.410938" y="119.343628" style="stroke: #000000; stroke-width: 0.8"/>
      </g>
     </g>
     <g id="text_10">
      <!-- 0.6 -->
      <g transform="translate(30.55625 125.042456)scale(0.15 -0.15)">
       <defs>
        <path id="DejaVuSans-36" d="M 2113 2584 
Q 1688 2584 1439 2293 
Q 1191 2003 1191 1497 
Q 1191 994 1439 701 
Q 1688 409 2113 409 
Q 2538 409 2786 701 
Q 3034 994 3034 1497 
Q 3034 2003 2786 2293 
Q 2538 2584 2113 2584 
z
M 3366 4563 
L 3366 3988 
Q 3128 4100 2886 4159 
Q 2644 4219 2406 4219 
Q 1781 4219 1451 3797 
Q 1122 3375 1075 2522 
Q 1259 2794 1537 2939 
Q 1816 3084 2150 3084 
Q 2853 3084 3261 2657 
Q 3669 2231 3669 1497 
Q 3669 778 3244 343 
Q 2819 -91 2113 -91 
Q 1303 -91 875 529 
Q 447 1150 447 2328 
Q 447 3434 972 4092 
Q 1497 4750 2381 4750 
Q 2619 4750 2861 4703 
Q 3103 4656 3366 4563 
z
" transform="scale(0.015625)"/>
       </defs>
       <use xlink:href="#DejaVuSans-30"/>
       <use xlink:href="#DejaVuSans-2e" x="63.623047"/>
       <use xlink:href="#DejaVuSans-36" x="95.410156"/>
      </g>
     </g>
    </g>
    <g id="ytick_5">
     <g id="line2d_19">
      <path d="M 61.410938 66.121228 
L 418.530938 66.121228 
" clip-path="url(#pb29c5caca8)" style="fill: none; stroke: #b0b0b0; stroke-width: 0.8; stroke-linecap: square"/>
     </g>
     <g id="line2d_20">
      <g>
       <use xlink:href="#m6f3f5b6aff" x="61.410938" y="66.121228" style="stroke: #000000; stroke-width: 0.8"/>
      </g>
     </g>
     <g id="text_11">
      <!-- 0.8 -->
      <g transform="translate(30.55625 71.820056)scale(0.15 -0.15)">
       <defs>
        <path id="DejaVuSans-38" d="M 2034 2216 
Q 1584 2216 1326 1975 
Q 1069 1734 1069 1313 
Q 1069 891 1326 650 
Q 1584 409 2034 409 
Q 2484 409 2743 651 
Q 3003 894 3003 1313 
Q 3003 1734 2745 1975 
Q 2488 2216 2034 2216 
z
M 1403 2484 
Q 997 2584 770 2862 
Q 544 3141 544 3541 
Q 544 4100 942 4425 
Q 1341 4750 2034 4750 
Q 2731 4750 3128 4425 
Q 3525 4100 3525 3541 
Q 3525 3141 3298 2862 
Q 3072 2584 2669 2484 
Q 3125 2378 3379 2068 
Q 3634 1759 3634 1313 
Q 3634 634 3220 271 
Q 2806 -91 2034 -91 
Q 1263 -91 848 271 
Q 434 634 434 1313 
Q 434 1759 690 2068 
Q 947 2378 1403 2484 
z
M 1172 3481 
Q 1172 3119 1398 2916 
Q 1625 2713 2034 2713 
Q 2441 2713 2670 2916 
Q 2900 3119 2900 3481 
Q 2900 3844 2670 4047 
Q 2441 4250 2034 4250 
Q 1625 4250 1398 4047 
Q 1172 3844 1172 3481 
z
" transform="scale(0.015625)"/>
       </defs>
       <use xlink:href="#DejaVuSans-30"/>
       <use xlink:href="#DejaVuSans-2e" x="63.623047"/>
       <use xlink:href="#DejaVuSans-38" x="95.410156"/>
      </g>
     </g>
    </g>
    <g id="ytick_6">
     <g id="line2d_21">
      <path d="M 61.410938 12.898828 
L 418.530938 12.898828 
" clip-path="url(#pb29c5caca8)" style="fill: none; stroke: #b0b0b0; stroke-width: 0.8; stroke-linecap: square"/>
     </g>
     <g id="line2d_22">
      <g>
       <use xlink:href="#m6f3f5b6aff" x="61.410938" y="12.898828" style="stroke: #000000; stroke-width: 0.8"/>
      </g>
     </g>
     <g id="text_12">
      <!-- 1.0 -->
      <g transform="translate(30.55625 18.597656)scale(0.15 -0.15)">
       <use xlink:href="#DejaVuSans-31"/>
       <use xlink:href="#DejaVuSans-2e" x="63.623047"/>
       <use xlink:href="#DejaVuSans-30" x="95.410156"/>
      </g>
     </g>
    </g>
    <g id="text_13">
     <!-- $P_{detect}$ -->
     <g transform="translate(22.396875 174.654828)rotate(-90)scale(0.2 -0.2)">
      <defs>
       <path id="DejaVuSans-Oblique-50" d="M 1081 4666 
L 2541 4666 
Q 3178 4666 3512 4369 
Q 3847 4072 3847 3500 
Q 3847 2731 3353 2303 
Q 2859 1875 1966 1875 
L 1172 1875 
L 806 0 
L 172 0 
L 1081 4666 
z
M 1613 4147 
L 1275 2394 
L 2069 2394 
Q 2606 2394 2893 2669 
Q 3181 2944 3181 3456 
Q 3181 3784 2986 3965 
Q 2791 4147 2438 4147 
L 1613 4147 
z
" transform="scale(0.015625)"/>
       <path id="DejaVuSans-Oblique-64" d="M 2675 525 
Q 2444 222 2128 65 
Q 1813 -91 1428 -91 
Q 903 -91 598 267 
Q 294 625 294 1247 
Q 294 1766 478 2236 
Q 663 2706 1013 3078 
Q 1244 3325 1534 3454 
Q 1825 3584 2144 3584 
Q 2481 3584 2739 3421 
Q 2997 3259 3138 2956 
L 3513 4863 
L 4091 4863 
L 3144 0 
L 2566 0 
L 2675 525 
z
M 891 1350 
Q 891 897 1095 644 
Q 1300 391 1663 391 
Q 1931 391 2161 520 
Q 2391 650 2566 903 
Q 2750 1166 2856 1509 
Q 2963 1853 2963 2188 
Q 2963 2622 2758 2865 
Q 2553 3109 2194 3109 
Q 1922 3109 1687 2981 
Q 1453 2853 1288 2613 
Q 1106 2353 998 2009 
Q 891 1666 891 1350 
z
" transform="scale(0.015625)"/>
       <path id="DejaVuSans-Oblique-65" d="M 3078 2063 
Q 3088 2113 3092 2166 
Q 3097 2219 3097 2272 
Q 3097 2653 2873 2875 
Q 2650 3097 2266 3097 
Q 1838 3097 1509 2826 
Q 1181 2556 1013 2059 
L 3078 2063 
z
M 3578 1613 
L 903 1613 
Q 884 1494 878 1425 
Q 872 1356 872 1306 
Q 872 872 1139 634 
Q 1406 397 1894 397 
Q 2269 397 2603 481 
Q 2938 566 3225 728 
L 3116 159 
Q 2806 34 2476 -28 
Q 2147 -91 1806 -91 
Q 1078 -91 686 257 
Q 294 606 294 1247 
Q 294 1794 489 2264 
Q 684 2734 1063 3103 
Q 1306 3334 1642 3459 
Q 1978 3584 2356 3584 
Q 2950 3584 3301 3228 
Q 3653 2872 3653 2272 
Q 3653 2128 3634 1964 
Q 3616 1800 3578 1613 
z
" transform="scale(0.015625)"/>
       <path id="DejaVuSans-Oblique-74" d="M 2706 3500 
L 2619 3053 
L 1472 3053 
L 1100 1153 
Q 1081 1047 1072 975 
Q 1063 903 1063 863 
Q 1063 663 1183 572 
Q 1303 481 1569 481 
L 2150 481 
L 2053 0 
L 1503 0 
Q 991 0 739 200 
Q 488 400 488 806 
Q 488 878 497 964 
Q 506 1050 525 1153 
L 897 3053 
L 409 3053 
L 500 3500 
L 978 3500 
L 1172 4494 
L 1747 4494 
L 1556 3500 
L 2706 3500 
z
" transform="scale(0.015625)"/>
       <path id="DejaVuSans-Oblique-63" d="M 3431 3366 
L 3316 2797 
Q 3109 2947 2876 3022 
Q 2644 3097 2394 3097 
Q 2119 3097 1870 3000 
Q 1622 2903 1453 2725 
Q 1184 2453 1037 2087 
Q 891 1722 891 1331 
Q 891 859 1127 628 
Q 1363 397 1844 397 
Q 2081 397 2348 469 
Q 2616 541 2906 684 
L 2797 116 
Q 2547 13 2283 -39 
Q 2019 -91 1741 -91 
Q 1044 -91 669 257 
Q 294 606 294 1253 
Q 294 1797 489 2255 
Q 684 2713 1069 3078 
Q 1331 3328 1684 3456 
Q 2038 3584 2456 3584 
Q 2700 3584 2940 3529 
Q 3181 3475 3431 3366 
z
" transform="scale(0.015625)"/>
      </defs>
      <use xlink:href="#DejaVuSans-Oblique-50" transform="translate(0 0.09375)"/>
      <use xlink:href="#DejaVuSans-Oblique-64" transform="translate(60.302734 -16.3125)scale(0.7)"/>
      <use xlink:href="#DejaVuSans-Oblique-65" transform="translate(104.736328 -16.3125)scale(0.7)"/>
      <use xlink:href="#DejaVuSans-Oblique-74" transform="translate(147.802734 -16.3125)scale(0.7)"/>
      <use xlink:href="#DejaVuSans-Oblique-65" transform="translate(175.249023 -16.3125)scale(0.7)"/>
      <use xlink:href="#DejaVuSans-Oblique-63" transform="translate(218.31543 -16.3125)scale(0.7)"/>
      <use xlink:href="#DejaVuSans-Oblique-74" transform="translate(256.801758 -16.3125)scale(0.7)"/>
     </g>
    </g>
   </g>
   <g id="LineCollection_1">
    <path d="M 77.643665 19.838914 
L 77.643665 15.500607 
" clip-path="url(#pb29c5caca8)" style="fill: none; stroke: #1f77b4; stroke-width: 1.5"/>
    <path d="M 93.103405 35.705721 
L 93.103405 27.199186 
" clip-path="url(#pb29c5caca8)" style="fill: none; stroke: #1f77b4; stroke-width: 1.5"/>
    <path d="M 108.563145 96.281416 
L 108.563145 81.125866 
" clip-path="url(#pb29c5caca8)" style="fill: none; stroke: #1f77b4; stroke-width: 1.5"/>
    <path d="M 124.022886 172.299052 
L 124.022886 155.657649 
" clip-path="url(#pb29c5caca8)" style="fill: none; stroke: #1f77b4; stroke-width: 1.5"/>
    <path d="M 139.482626 224.084497 
L 139.482626 209.89292 
" clip-path="url(#pb29c5caca8)" style="fill: none; stroke: #1f77b4; stroke-width: 1.5"/>
    <path d="M 154.942366 241.241884 
L 154.942366 228.782577 
" clip-path="url(#pb29c5caca8)" style="fill: none; stroke: #1f77b4; stroke-width: 1.5"/>
    <path d="M 170.402106 210.78379 
L 170.402106 195.628241 
" clip-path="url(#pb29c5caca8)" style="fill: none; stroke: #1f77b4; stroke-width: 1.5"/>
    <path d="M 185.861847 165.983075 
L 185.861847 149.251139 
" clip-path="url(#pb29c5caca8)" style="fill: none; stroke: #1f77b4; stroke-width: 1.5"/>
    <path d="M 201.321587 87.519259 
L 201.321587 72.924708 
" clip-path="url(#pb29c5caca8)" style="fill: none; stroke: #1f77b4; stroke-width: 1.5"/>
    <path d="M 216.781327 38.046641 
L 216.781327 29.099095 
" clip-path="url(#pb29c5caca8)" style="fill: none; stroke: #1f77b4; stroke-width: 1.5"/>
    <path d="M 232.241067 22.409981 
L 232.241067 17.170369 
" clip-path="url(#pb29c5caca8)" style="fill: none; stroke: #1f77b4; stroke-width: 1.5"/>
    <path d="M 247.700808 68.715589 
L 247.700808 55.681334 
" clip-path="url(#pb29c5caca8)" style="fill: none; stroke: #1f77b4; stroke-width: 1.5"/>
    <path d="M 263.160548 122.302564 
L 263.160548 105.994662 
" clip-path="url(#pb29c5caca8)" style="fill: none; stroke: #1f77b4; stroke-width: 1.5"/>
    <path d="M 278.620288 184.871038 
L 278.620288 168.530634 
" clip-path="url(#pb29c5caca8)" style="fill: none; stroke: #1f77b4; stroke-width: 1.5"/>
    <path d="M 294.080028 231.186036 
L 294.080028 217.634282 
" clip-path="url(#pb29c5caca8)" style="fill: none; stroke: #1f77b4; stroke-width: 1.5"/>
    <path d="M 309.539769 220.006545 
L 309.539769 205.489215 
" clip-path="url(#pb29c5caca8)" style="fill: none; stroke: #1f77b4; stroke-width: 1.5"/>
    <path d="M 324.999509 178.595197 
L 324.999509 162.083989 
" clip-path="url(#pb29c5caca8)" style="fill: none; stroke: #1f77b4; stroke-width: 1.5"/>
    <path d="M 340.459249 124.454898 
L 340.459249 108.083157 
" clip-path="url(#pb29c5caca8)" style="fill: none; stroke: #1f77b4; stroke-width: 1.5"/>
    <path d="M 355.918989 67.600302 
L 355.918989 54.676207 
" clip-path="url(#pb29c5caca8)" style="fill: none; stroke: #1f77b4; stroke-width: 1.5"/>
    <path d="M 371.37873 40.373349 
L 371.37873 31.013215 
" clip-path="url(#pb29c5caca8)" style="fill: none; stroke: #1f77b4; stroke-width: 1.5"/>
    <path d="M 386.83847 66.48384 
L 386.83847 53.672255 
" clip-path="url(#pb29c5caca8)" style="fill: none; stroke: #1f77b4; stroke-width: 1.5"/>
   </g>
   <g id="line2d_23">
    <path d="M 77.643665 16.091023 
L 78.780069 15.58652 
L 79.851536 15.348382 
L 80.890535 15.338132 
L 81.929533 15.545183 
L 83.001001 15.98586 
L 84.137405 16.704246 
L 85.306278 17.710945 
L 86.572558 19.105055 
L 87.936243 20.954787 
L 89.397335 23.330494 
L 90.955832 26.303331 
L 92.644205 30.019834 
L 94.462452 34.577145 
L 96.443043 40.164365 
L 98.585977 46.895699 
L 100.923724 54.987006 
L 103.52122 64.796342 
L 106.475872 76.852391 
L 109.982491 92.143662 
L 114.625516 113.4694 
L 125.27525 162.713396 
L 128.846807 177.982134 
L 131.866396 189.945319 
L 134.52883 199.605805 
L 136.899045 207.400279 
L 139.074448 213.815273 
L 141.055039 218.993009 
L 142.905755 223.226848 
L 144.594127 226.557431 
L 146.152625 229.166258 
L 147.613716 231.195863 
L 148.977402 232.719945 
L 150.243681 233.810707 
L 151.412554 234.53762 
L 152.548959 234.985109 
L 153.620426 235.172151 
L 154.691893 235.130996 
L 155.76336 234.86191 
L 156.867296 234.347068 
L 158.003701 233.56661 
L 159.205043 232.467539 
L 160.503791 230.966175 
L 161.899945 228.994894 
L 163.393505 226.484509 
L 164.984472 223.365705 
L 166.705313 219.493026 
L 168.588497 214.685644 
L 170.634026 208.826344 
L 172.841897 201.809035 
L 175.27705 193.310393 
L 178.004421 182.95999 
L 181.153885 170.096103 
L 184.985192 153.459478 
L 190.959433 126.376182 
L 197.615517 96.485327 
L 201.381886 80.586077 
L 204.498881 68.359041 
L 207.226252 58.534277 
L 209.661405 50.564457 
L 211.869276 44.066828 
L 213.914805 38.716119 
L 215.797989 34.394183 
L 217.551299 30.915284 
L 219.174734 28.179217 
L 220.668295 26.084954 
L 222.064449 24.500942 
L 223.363197 23.356148 
L 224.564539 22.581991 
L 225.700943 22.103092 
L 226.804879 21.874532 
L 227.876346 21.87589 
L 228.947813 22.096784 
L 230.051749 22.553142 
L 231.188154 23.263995 
L 232.389496 24.279094 
L 233.688244 25.677669 
L 235.084398 27.524583 
L 236.577958 29.886124 
L 238.168925 32.828615 
L 239.889766 36.490306 
L 241.740482 40.960055 
L 243.753541 46.41341 
L 245.961413 53.053732 
L 248.396566 61.104803 
L 251.123936 70.91819 
L 254.240932 82.99158 
L 258.072239 98.771135 
L 264.04648 124.464761 
L 270.670095 152.678904 
L 274.436464 167.756676 
L 277.553459 179.348086 
L 280.28083 188.658848 
L 282.715983 196.209067 
L 284.956323 202.447796 
L 287.001852 207.503377 
L 288.885036 211.584043 
L 290.638346 214.866216 
L 292.261781 217.445344 
L 293.755341 219.417519 
L 295.151496 220.907364 
L 296.450244 221.982337 
L 297.684054 222.723484 
L 298.852928 223.17253 
L 299.989332 223.372429 
L 301.093268 223.343199 
L 302.197204 223.094324 
L 303.333608 222.609791 
L 304.53495 221.847539 
L 305.80123 220.76878 
L 307.132446 219.334292 
L 308.561069 217.458541 
L 310.087098 215.079311 
L 311.743002 212.071843 
L 313.528781 208.350802 
L 315.444434 203.834669 
L 317.5549 198.269514 
L 319.860177 191.540113 
L 322.425205 183.337235 
L 325.314919 173.320252 
L 328.724133 160.657723 
L 333.139876 143.336476 
L 344.926015 96.668183 
L 348.400166 84.072924 
L 351.354818 74.174459 
L 353.952314 66.22261 
L 356.322529 59.664874 
L 358.465463 54.366193 
L 360.446054 50.039715 
L 362.29677 46.519336 
L 363.985143 43.765886 
L 365.576109 41.583489 
L 367.0372 39.939435 
L 368.433355 38.695869 
L 369.732103 37.829516 
L 370.965913 37.267604 
L 372.134787 36.9708 
L 373.30366 36.903324 
L 374.472533 37.064735 
L 375.641406 37.454001 
L 376.842748 38.089818 
L 378.109028 39.01607 
L 379.440244 40.269326 
L 380.868867 41.927276 
L 382.394896 44.047933 
L 384.0508 46.745568 
L 385.836579 50.099805 
L 387.752232 54.186771 
L 389.830229 59.157333 
L 392.103038 65.184198 
L 394.635597 72.552413 
L 397.492842 81.577866 
L 400.837119 92.914487 
L 402.29821 98.070511 
L 402.29821 98.070511 
" clip-path="url(#pb29c5caca8)" style="fill: none; stroke: #1f77b4; stroke-width: 1.5; stroke-linecap: square"/>
   </g>
   <g id="line2d_24">
    <path d="M 77.643665 16.050065 
L 78.780069 15.55361 
L 79.851536 15.322897 
L 80.890535 15.319683 
L 81.929533 15.533591 
L 83.001001 15.981139 
L 84.137405 16.706577 
L 85.338747 17.752268 
L 86.605026 19.161656 
L 87.968712 21.02731 
L 89.429803 23.419414 
L 90.988301 26.408925 
L 92.676674 30.142473 
L 94.494921 34.716878 
L 96.475512 40.321144 
L 98.618446 47.068981 
L 100.988661 55.293617 
L 103.618626 65.255195 
L 106.605746 77.480027 
L 110.144835 92.951593 
L 114.885265 114.760461 
L 125.047969 161.76889 
L 128.684463 177.365528 
L 131.704053 189.375091 
L 134.366486 199.085206 
L 136.76917 207.032129 
L 138.944573 213.487561 
L 140.957633 218.785268 
L 142.808349 223.048346 
L 144.52919 226.466578 
L 146.120156 229.142967 
L 147.581248 231.180792 
L 148.944933 232.712947 
L 150.211212 233.811532 
L 151.380086 234.545926 
L 152.51649 235.000909 
L 153.587957 235.195201 
L 154.659425 235.161459 
L 155.730892 234.899933 
L 156.834828 234.393015 
L 157.971232 233.620838 
L 159.172574 232.530632 
L 160.471322 231.038952 
L 161.867476 229.078157 
L 163.361037 226.579028 
L 164.952003 223.472196 
L 166.672844 219.612368 
L 168.556029 214.81883 
L 170.569088 209.071915 
L 172.77696 202.079953 
L 175.212113 193.607158 
L 177.939483 183.282658 
L 181.056479 170.580746 
L 184.855317 154.119327 
L 190.667214 127.804037 
L 197.583048 96.725663 
L 201.381886 80.685212 
L 204.498881 68.456323 
L 207.226252 58.628437 
L 209.661405 50.654645 
L 211.869276 44.152465 
L 213.914805 38.79676 
L 215.797989 34.46959 
L 217.551299 30.9853 
L 219.174734 28.243825 
L 220.668295 26.144255 
L 222.064449 24.555019 
L 223.363197 23.405156 
L 224.564539 22.626145 
L 225.700943 22.142523 
L 226.804879 21.909266 
L 227.876346 21.905975 
L 228.947813 22.122142 
L 230.051749 22.573561 
L 231.188154 23.279271 
L 232.389496 24.288885 
L 233.688244 25.681496 
L 235.084398 27.521984 
L 236.577958 29.876664 
L 238.168925 32.811901 
L 239.889766 36.465857 
L 241.740482 40.927473 
L 243.753541 46.372271 
L 245.961413 53.003647 
L 248.396566 61.045489 
L 251.123936 70.849476 
L 254.240932 82.913507 
L 258.072239 98.683816 
L 264.014011 124.227733 
L 270.670095 152.580381 
L 274.436464 167.660324 
L 277.553459 179.255155 
L 280.28083 188.569937 
L 282.715983 196.12441 
L 284.956323 202.36749 
L 287.001852 207.42731 
L 288.885036 211.512029 
L 290.638346 214.798041 
L 292.261781 217.38073 
L 293.755341 219.356148 
L 295.151496 220.848963 
L 296.450244 221.926622 
L 297.684054 222.670233 
L 298.852928 223.121517 
L 299.989332 223.323487 
L 301.093268 223.296161 
L 302.197204 223.049069 
L 303.333608 222.566236 
L 304.53495 221.80562 
L 305.80123 220.728393 
L 307.132446 219.295289 
L 308.561069 217.420753 
L 310.087098 215.042496 
L 311.743002 212.035692 
L 313.528781 208.314897 
L 315.444434 203.798479 
L 317.5549 198.232355 
L 319.860177 191.50113 
L 322.425205 183.295335 
L 325.314919 173.274059 
L 328.691664 160.729508 
L 333.107408 143.404736 
L 344.958484 96.462029 
L 348.400166 83.98509 
L 351.354818 74.085849 
L 353.952314 66.135313 
L 356.29006 59.665604 
L 358.432995 54.36195 
L 360.413585 50.031885 
L 362.264301 46.509176 
L 363.952674 43.754565 
L 365.54364 41.571997 
L 367.004732 39.92863 
L 368.368417 38.711734 
L 369.667165 37.840422 
L 370.900976 37.274442 
L 372.069849 36.974395 
L 373.238722 36.904303 
L 374.375127 37.056227 
L 375.544 37.437876 
L 376.745342 38.066645 
L 378.011622 38.986367 
L 379.342838 40.233793 
L 380.771461 41.886711 
L 382.29749 44.003439 
L 383.920925 46.641807 
L 385.674235 49.922272 
L 387.589888 53.994147 
L 389.667885 58.95238 
L 391.940694 64.970677 
L 394.440784 72.237002 
L 397.265562 81.151968 
L 400.577369 92.375229 
L 402.29821 98.461424 
L 402.29821 98.461424 
" clip-path="url(#pb29c5caca8)" style="fill: none; stroke: #ff7f0e; stroke-width: 1.5; stroke-linecap: square"/>
   </g>
   <g id="line2d_25">
    <defs>
     <path id="mcceb8b8273" d="M 0 3 
C 0.795609 3 1.55874 2.683901 2.12132 2.12132 
C 2.683901 1.55874 3 0.795609 3 0 
C 3 -0.795609 2.683901 -1.55874 2.12132 -2.12132 
C 1.55874 -2.683901 0.795609 -3 0 -3 
C -0.795609 -3 -1.55874 -2.683901 -2.12132 -2.12132 
C -2.683901 -1.55874 -3 -0.795609 -3 0 
C -3 0.795609 -2.683901 1.55874 -2.12132 2.12132 
C -1.55874 2.683901 -0.795609 3 0 3 
z
" style="stroke: #1f77b4"/>
    </defs>
    <g clip-path="url(#pb29c5caca8)">
     <use xlink:href="#mcceb8b8273" x="77.643665" y="17.66976" style="fill: #1f77b4; stroke: #1f77b4"/>
     <use xlink:href="#mcceb8b8273" x="93.103405" y="31.452454" style="fill: #1f77b4; stroke: #1f77b4"/>
     <use xlink:href="#mcceb8b8273" x="108.563145" y="88.703641" style="fill: #1f77b4; stroke: #1f77b4"/>
     <use xlink:href="#mcceb8b8273" x="124.022886" y="163.97835" style="fill: #1f77b4; stroke: #1f77b4"/>
     <use xlink:href="#mcceb8b8273" x="139.482626" y="216.988709" style="fill: #1f77b4; stroke: #1f77b4"/>
     <use xlink:href="#mcceb8b8273" x="154.942366" y="235.012231" style="fill: #1f77b4; stroke: #1f77b4"/>
     <use xlink:href="#mcceb8b8273" x="170.402106" y="203.206015" style="fill: #1f77b4; stroke: #1f77b4"/>
     <use xlink:href="#mcceb8b8273" x="185.861847" y="157.617107" style="fill: #1f77b4; stroke: #1f77b4"/>
     <use xlink:href="#mcceb8b8273" x="201.321587" y="80.221984" style="fill: #1f77b4; stroke: #1f77b4"/>
     <use xlink:href="#mcceb8b8273" x="216.781327" y="33.572868" style="fill: #1f77b4; stroke: #1f77b4"/>
     <use xlink:href="#mcceb8b8273" x="232.241067" y="19.790175" style="fill: #1f77b4; stroke: #1f77b4"/>
     <use xlink:href="#mcceb8b8273" x="247.700808" y="62.198462" style="fill: #1f77b4; stroke: #1f77b4"/>
     <use xlink:href="#mcceb8b8273" x="263.160548" y="114.148613" style="fill: #1f77b4; stroke: #1f77b4"/>
     <use xlink:href="#mcceb8b8273" x="278.620288" y="176.700836" style="fill: #1f77b4; stroke: #1f77b4"/>
     <use xlink:href="#mcceb8b8273" x="294.080028" y="224.410159" style="fill: #1f77b4; stroke: #1f77b4"/>
     <use xlink:href="#mcceb8b8273" x="309.539769" y="212.74788" style="fill: #1f77b4; stroke: #1f77b4"/>
     <use xlink:href="#mcceb8b8273" x="324.999509" y="170.339593" style="fill: #1f77b4; stroke: #1f77b4"/>
     <use xlink:href="#mcceb8b8273" x="340.459249" y="116.269027" style="fill: #1f77b4; stroke: #1f77b4"/>
     <use xlink:href="#mcceb8b8273" x="355.918989" y="61.138254" style="fill: #1f77b4; stroke: #1f77b4"/>
     <use xlink:href="#mcceb8b8273" x="371.37873" y="35.693282" style="fill: #1f77b4; stroke: #1f77b4"/>
     <use xlink:href="#mcceb8b8273" x="386.83847" y="60.078047" style="fill: #1f77b4; stroke: #1f77b4"/>
    </g>
   </g>
   <g id="patch_3">
    <path d="M 61.410938 279.010828 
L 61.410938 12.898828 
" style="fill: none; stroke: #000000; stroke-width: 0.8; stroke-linejoin: miter; stroke-linecap: square"/>
   </g>
   <g id="patch_4">
    <path d="M 418.530938 279.010828 
L 418.530938 12.898828 
" style="fill: none; stroke: #000000; stroke-width: 0.8; stroke-linejoin: miter; stroke-linecap: square"/>
   </g>
   <g id="patch_5">
    <path d="M 61.410938 279.010828 
L 418.530938 279.010828 
" style="fill: none; stroke: #000000; stroke-width: 0.8; stroke-linejoin: miter; stroke-linecap: square"/>
   </g>
   <g id="patch_6">
    <path d="M 61.410938 12.898828 
L 418.530938 12.898828 
" style="fill: none; stroke: #000000; stroke-width: 0.8; stroke-linejoin: miter; stroke-linecap: square"/>
   </g>
   <g id="text_14">
    <!-- T$_{3D}=18.31(34) MHz$ -->
    <g style="fill: #1f77b4" transform="translate(174.267041 273.688588)scale(0.2 -0.2)">
     <defs>
      <path id="DejaVuSans-Oblique-44" d="M 1081 4666 
L 2438 4666 
Q 3519 4666 4070 4208 
Q 4622 3750 4622 2847 
Q 4622 2250 4412 1698 
Q 4203 1147 3834 769 
Q 3463 381 2891 190 
Q 2319 0 1538 0 
L 172 0 
L 1081 4666 
z
M 1613 4147 
L 909 519 
L 1734 519 
Q 2794 519 3375 1128 
Q 3956 1738 3956 2847 
Q 3956 3519 3581 3833 
Q 3206 4147 2406 4147 
L 1613 4147 
z
" transform="scale(0.015625)"/>
      <path id="DejaVuSans-3d" d="M 678 2906 
L 4684 2906 
L 4684 2381 
L 678 2381 
L 678 2906 
z
M 678 1631 
L 4684 1631 
L 4684 1100 
L 678 1100 
L 678 1631 
z
" transform="scale(0.015625)"/>
      <path id="DejaVuSans-Oblique-4d" d="M 1081 4666 
L 2028 4666 
L 2572 1522 
L 4378 4666 
L 5350 4666 
L 4441 0 
L 3828 0 
L 4622 4091 
L 2791 897 
L 2175 897 
L 1581 4103 
L 788 0 
L 172 0 
L 1081 4666 
z
" transform="scale(0.015625)"/>
      <path id="DejaVuSans-Oblique-48" d="M 1081 4666 
L 1716 4666 
L 1344 2753 
L 3634 2753 
L 4006 4666 
L 4641 4666 
L 3731 0 
L 3097 0 
L 3531 2222 
L 1241 2222 
L 806 0 
L 172 0 
L 1081 4666 
z
" transform="scale(0.015625)"/>
      <path id="DejaVuSans-Oblique-7a" d="M 744 3500 
L 3475 3500 
L 3372 2975 
L 738 459 
L 2913 459 
L 2822 0 
L -19 0 
L 84 525 
L 2719 3041 
L 653 3041 
L 744 3500 
z
" transform="scale(0.015625)"/>
     </defs>
     <use xlink:href="#DejaVuSans-54" transform="translate(0 0.125)"/>
     <use xlink:href="#DejaVuSans-33" transform="translate(62.041016 -16.28125)scale(0.7)"/>
     <use xlink:href="#DejaVuSans-Oblique-44" transform="translate(103.427148 -16.28125)scale(0.7)"/>
     <use xlink:href="#DejaVuSans-3d" transform="translate(179.545312 0.125)"/>
     <use xlink:href="#DejaVuSans-31" transform="translate(282.816797 0.125)"/>
     <use xlink:href="#DejaVuSans-38" transform="translate(346.439844 0.125)"/>
     <use xlink:href="#DejaVuSans-2e" transform="translate(410.062891 0.125)"/>
     <use xlink:href="#DejaVuSans-33" transform="translate(441.85 0.125)"/>
     <use xlink:href="#DejaVuSans-31" transform="translate(505.473047 0.125)"/>
     <use xlink:href="#DejaVuSans-28" transform="translate(569.096094 0.125)"/>
     <use xlink:href="#DejaVuSans-33" transform="translate(608.109766 0.125)"/>
     <use xlink:href="#DejaVuSans-34" transform="translate(671.732813 0.125)"/>
     <use xlink:href="#DejaVuSans-29" transform="translate(735.355859 0.125)"/>
     <use xlink:href="#DejaVuSans-Oblique-4d" transform="translate(774.369531 0.125)"/>
     <use xlink:href="#DejaVuSans-Oblique-48" transform="translate(860.648828 0.125)"/>
     <use xlink:href="#DejaVuSans-Oblique-7a" transform="translate(935.844141 0.125)"/>
    </g>
   </g>
   <g id="text_15">
    <!-- T$_{1D}=19.5(22) MHz$ -->
    <g style="fill: #ff7f0e" transform="translate(174.267041 248.407948)scale(0.2 -0.2)">
     <defs>
      <path id="DejaVuSans-39" d="M 703 97 
L 703 672 
Q 941 559 1184 500 
Q 1428 441 1663 441 
Q 2288 441 2617 861 
Q 2947 1281 2994 2138 
Q 2813 1869 2534 1725 
Q 2256 1581 1919 1581 
Q 1219 1581 811 2004 
Q 403 2428 403 3163 
Q 403 3881 828 4315 
Q 1253 4750 1959 4750 
Q 2769 4750 3195 4129 
Q 3622 3509 3622 2328 
Q 3622 1225 3098 567 
Q 2575 -91 1691 -91 
Q 1453 -91 1209 -44 
Q 966 3 703 97 
z
M 1959 2075 
Q 2384 2075 2632 2365 
Q 2881 2656 2881 3163 
Q 2881 3666 2632 3958 
Q 2384 4250 1959 4250 
Q 1534 4250 1286 3958 
Q 1038 3666 1038 3163 
Q 1038 2656 1286 2365 
Q 1534 2075 1959 2075 
z
" transform="scale(0.015625)"/>
     </defs>
     <use xlink:href="#DejaVuSans-54" transform="translate(0 0.125)"/>
     <use xlink:href="#DejaVuSans-31" transform="translate(62.041016 -16.28125)scale(0.7)"/>
     <use xlink:href="#DejaVuSans-Oblique-44" transform="translate(106.577148 -16.28125)scale(0.7)"/>
     <use xlink:href="#DejaVuSans-3d" transform="translate(182.695312 0.125)"/>
     <use xlink:href="#DejaVuSans-31" transform="translate(285.966797 0.125)"/>
     <use xlink:href="#DejaVuSans-39" transform="translate(349.589844 0.125)"/>
     <use xlink:href="#DejaVuSans-2e" transform="translate(413.212891 0.125)"/>
     <use xlink:href="#DejaVuSans-35" transform="translate(445 0.125)"/>
     <use xlink:href="#DejaVuSans-28" transform="translate(508.623047 0.125)"/>
     <use xlink:href="#DejaVuSans-32" transform="translate(547.636719 0.125)"/>
     <use xlink:href="#DejaVuSans-32" transform="translate(611.259766 0.125)"/>
     <use xlink:href="#DejaVuSans-29" transform="translate(674.882812 0.125)"/>
     <use xlink:href="#DejaVuSans-Oblique-4d" transform="translate(713.896484 0.125)"/>
     <use xlink:href="#DejaVuSans-Oblique-48" transform="translate(800.175781 0.125)"/>
     <use xlink:href="#DejaVuSans-Oblique-7a" transform="translate(875.371094 0.125)"/>
    </g>
   </g>
  </g>
 </g>
 <defs>
  <clipPath id="pb29c5caca8">
   <rect x="61.410938" y="12.898828" width="357.12" height="266.112"/>
  </clipPath>
 </defs>
</svg>
