<?xml version="1.0" encoding="utf-8" standalone="no"?>
<!DOCTYPE svg PUBLIC "-//W3C//DTD SVG 1.1//EN"
  "http://www.w3.org/Graphics/SVG/1.1/DTD/svg11.dtd">
<svg xmlns:xlink="http://www.w3.org/1999/xlink" width="347.292469pt" height="325.385437pt" viewBox="0 0 347.292469 325.385437" xmlns="http://www.w3.org/2000/svg" version="1.1">
 <defs>
  <style type="text/css">*{stroke-linejoin: round; stroke-linecap: butt}</style>
 </defs>
 <g id="figure_1">
  <g id="patch_1">
   <path d="M 0 325.385437 
L 347.292469 325.385437 
L 347.292469 0 
L 0 0 
L 0 325.385437 
z
" style="fill: none"/>
  </g>
  <g id="axes_1">
   <g id="patch_2">
    <path d="M 73.980469 273.312 
L 340.092469 273.312 
L 340.092469 7.2 
L 73.980469 7.2 
L 73.980469 273.312 
z
" style="fill: none"/>
   </g>
   <g id="matplotlib.axis_1">
    <g id="xtick_1">
     <g id="line2d_1">
      <path d="M 88.764469 273.312 
L 88.764469 7.2 
" clip-path="url(#p77107b6a17)" style="fill: none; stroke: #b0b0b0; stroke-width: 0.8; stroke-linecap: square"/>
     </g>
     <g id="line2d_2">
      <defs>
       <path id="md39032bed2" d="M 0 0 
L 0 3.5 
" style="stroke: #000000; stroke-width: 0.8"/>
      </defs>
      <g>
       <use xlink:href="#md39032bed2" x="88.764469" y="273.312" style="stroke: #000000; stroke-width: 0.8"/>
      </g>
     </g>
     <g id="text_1">
      <!-- −0.4 -->
      <g transform="translate(70.552359 291.709656)scale(0.15 -0.15)">
       <defs>
        <path id="DejaVuSans-2212" d="M 678 2272 
L 4684 2272 
L 4684 1741 
L 678 1741 
L 678 2272 
z
" transform="scale(0.015625)"/>
        <path id="DejaVuSans-30" d="M 2034 4250 
Q 1547 4250 1301 3770 
Q 1056 3291 1056 2328 
Q 1056 1369 1301 889 
Q 1547 409 2034 409 
Q 2525 409 2770 889 
Q 3016 1369 3016 2328 
Q 3016 3291 2770 3770 
Q 2525 4250 2034 4250 
z
M 2034 4750 
Q 2819 4750 3233 4129 
Q 3647 3509 3647 2328 
Q 3647 1150 3233 529 
Q 2819 -91 2034 -91 
Q 1250 -91 836 529 
Q 422 1150 422 2328 
Q 422 3509 836 4129 
Q 1250 4750 2034 4750 
z
" transform="scale(0.015625)"/>
        <path id="DejaVuSans-2e" d="M 684 794 
L 1344 794 
L 1344 0 
L 684 0 
L 684 794 
z
" transform="scale(0.015625)"/>
        <path id="DejaVuSans-34" d="M 2419 4116 
L 825 1625 
L 2419 1625 
L 2419 4116 
z
M 2253 4666 
L 3047 4666 
L 3047 1625 
L 3713 1625 
L 3713 1100 
L 3047 1100 
L 3047 0 
L 2419 0 
L 2419 1100 
L 313 1100 
L 313 1709 
L 2253 4666 
z
" transform="scale(0.015625)"/>
       </defs>
       <use xlink:href="#DejaVuSans-2212"/>
       <use xlink:href="#DejaVuSans-30" x="83.789062"/>
       <use xlink:href="#DejaVuSans-2e" x="147.412109"/>
       <use xlink:href="#DejaVuSans-34" x="179.199219"/>
      </g>
     </g>
    </g>
    <g id="xtick_2">
     <g id="line2d_3">
      <path d="M 147.900469 273.312 
L 147.900469 7.2 
" clip-path="url(#p77107b6a17)" style="fill: none; stroke: #b0b0b0; stroke-width: 0.8; stroke-linecap: square"/>
     </g>
     <g id="line2d_4">
      <g>
       <use xlink:href="#md39032bed2" x="147.900469" y="273.312" style="stroke: #000000; stroke-width: 0.8"/>
      </g>
     </g>
     <g id="text_2">
      <!-- −0.2 -->
      <g transform="translate(129.688359 291.709656)scale(0.15 -0.15)">
       <defs>
        <path id="DejaVuSans-32" d="M 1228 531 
L 3431 531 
L 3431 0 
L 469 0 
L 469 531 
Q 828 903 1448 1529 
Q 2069 2156 2228 2338 
Q 2531 2678 2651 2914 
Q 2772 3150 2772 3378 
Q 2772 3750 2511 3984 
Q 2250 4219 1831 4219 
Q 1534 4219 1204 4116 
Q 875 4013 500 3803 
L 500 4441 
Q 881 4594 1212 4672 
Q 1544 4750 1819 4750 
Q 2544 4750 2975 4387 
Q 3406 4025 3406 3419 
Q 3406 3131 3298 2873 
Q 3191 2616 2906 2266 
Q 2828 2175 2409 1742 
Q 1991 1309 1228 531 
z
" transform="scale(0.015625)"/>
       </defs>
       <use xlink:href="#DejaVuSans-2212"/>
       <use xlink:href="#DejaVuSans-30" x="83.789062"/>
       <use xlink:href="#DejaVuSans-2e" x="147.412109"/>
       <use xlink:href="#DejaVuSans-32" x="179.199219"/>
      </g>
     </g>
    </g>
    <g id="xtick_3">
     <g id="line2d_5">
      <path d="M 207.036469 273.312 
L 207.036469 7.2 
" clip-path="url(#p77107b6a17)" style="fill: none; stroke: #b0b0b0; stroke-width: 0.8; stroke-linecap: square"/>
     </g>
     <g id="line2d_6">
      <g>
       <use xlink:href="#md39032bed2" x="207.036469" y="273.312" style="stroke: #000000; stroke-width: 0.8"/>
      </g>
     </g>
     <g id="text_3">
      <!-- 0.0 -->
      <g transform="translate(195.109125 291.709656)scale(0.15 -0.15)">
       <use xlink:href="#DejaVuSans-30"/>
       <use xlink:href="#DejaVuSans-2e" x="63.623047"/>
       <use xlink:href="#DejaVuSans-30" x="95.410156"/>
      </g>
     </g>
    </g>
    <g id="xtick_4">
     <g id="line2d_7">
      <path d="M 266.172469 273.312 
L 266.172469 7.2 
" clip-path="url(#p77107b6a17)" style="fill: none; stroke: #b0b0b0; stroke-width: 0.8; stroke-linecap: square"/>
     </g>
     <g id="line2d_8">
      <g>
       <use xlink:href="#md39032bed2" x="266.172469" y="273.312" style="stroke: #000000; stroke-width: 0.8"/>
      </g>
     </g>
     <g id="text_4">
      <!-- 0.2 -->
      <g transform="translate(254.245125 291.709656)scale(0.15 -0.15)">
       <use xlink:href="#DejaVuSans-30"/>
       <use xlink:href="#DejaVuSans-2e" x="63.623047"/>
       <use xlink:href="#DejaVuSans-32" x="95.410156"/>
      </g>
     </g>
    </g>
    <g id="xtick_5">
     <g id="line2d_9">
      <path d="M 325.308469 273.312 
L 325.308469 7.2 
" clip-path="url(#p77107b6a17)" style="fill: none; stroke: #b0b0b0; stroke-width: 0.8; stroke-linecap: square"/>
     </g>
     <g id="line2d_10">
      <g>
       <use xlink:href="#md39032bed2" x="325.308469" y="273.312" style="stroke: #000000; stroke-width: 0.8"/>
      </g>
     </g>
     <g id="text_5">
      <!-- 0.4 -->
      <g transform="translate(313.381125 291.709656)scale(0.15 -0.15)">
       <use xlink:href="#DejaVuSans-30"/>
       <use xlink:href="#DejaVuSans-2e" x="63.623047"/>
       <use xlink:href="#DejaVuSans-34" x="95.410156"/>
      </g>
     </g>
    </g>
    <g id="text_6">
     <!-- Amplitude 1 -->
     <g transform="translate(146.250531 314.026062)scale(0.2 -0.2)">
      <defs>
       <path id="DejaVuSans-41" d="M 2188 4044 
L 1331 1722 
L 3047 1722 
L 2188 4044 
z
M 1831 4666 
L 2547 4666 
L 4325 0 
L 3669 0 
L 3244 1197 
L 1141 1197 
L 716 0 
L 50 0 
L 1831 4666 
z
" transform="scale(0.015625)"/>
       <path id="DejaVuSans-6d" d="M 3328 2828 
Q 3544 3216 3844 3400 
Q 4144 3584 4550 3584 
Q 5097 3584 5394 3201 
Q 5691 2819 5691 2113 
L 5691 0 
L 5113 0 
L 5113 2094 
Q 5113 2597 4934 2840 
Q 4756 3084 4391 3084 
Q 3944 3084 3684 2787 
Q 3425 2491 3425 1978 
L 3425 0 
L 2847 0 
L 2847 2094 
Q 2847 2600 2669 2842 
Q 2491 3084 2119 3084 
Q 1678 3084 1418 2786 
Q 1159 2488 1159 1978 
L 1159 0 
L 581 0 
L 581 3500 
L 1159 3500 
L 1159 2956 
Q 1356 3278 1631 3431 
Q 1906 3584 2284 3584 
Q 2666 3584 2933 3390 
Q 3200 3197 3328 2828 
z
" transform="scale(0.015625)"/>
       <path id="DejaVuSans-70" d="M 1159 525 
L 1159 -1331 
L 581 -1331 
L 581 3500 
L 1159 3500 
L 1159 2969 
Q 1341 3281 1617 3432 
Q 1894 3584 2278 3584 
Q 2916 3584 3314 3078 
Q 3713 2572 3713 1747 
Q 3713 922 3314 415 
Q 2916 -91 2278 -91 
Q 1894 -91 1617 61 
Q 1341 213 1159 525 
z
M 3116 1747 
Q 3116 2381 2855 2742 
Q 2594 3103 2138 3103 
Q 1681 3103 1420 2742 
Q 1159 2381 1159 1747 
Q 1159 1113 1420 752 
Q 1681 391 2138 391 
Q 2594 391 2855 752 
Q 3116 1113 3116 1747 
z
" transform="scale(0.015625)"/>
       <path id="DejaVuSans-6c" d="M 603 4863 
L 1178 4863 
L 1178 0 
L 603 0 
L 603 4863 
z
" transform="scale(0.015625)"/>
       <path id="DejaVuSans-69" d="M 603 3500 
L 1178 3500 
L 1178 0 
L 603 0 
L 603 3500 
z
M 603 4863 
L 1178 4863 
L 1178 4134 
L 603 4134 
L 603 4863 
z
" transform="scale(0.015625)"/>
       <path id="DejaVuSans-74" d="M 1172 4494 
L 1172 3500 
L 2356 3500 
L 2356 3053 
L 1172 3053 
L 1172 1153 
Q 1172 725 1289 603 
Q 1406 481 1766 481 
L 2356 481 
L 2356 0 
L 1766 0 
Q 1100 0 847 248 
Q 594 497 594 1153 
L 594 3053 
L 172 3053 
L 172 3500 
L 594 3500 
L 594 4494 
L 1172 4494 
z
" transform="scale(0.015625)"/>
       <path id="DejaVuSans-75" d="M 544 1381 
L 544 3500 
L 1119 3500 
L 1119 1403 
Q 1119 906 1312 657 
Q 1506 409 1894 409 
Q 2359 409 2629 706 
Q 2900 1003 2900 1516 
L 2900 3500 
L 3475 3500 
L 3475 0 
L 2900 0 
L 2900 538 
Q 2691 219 2414 64 
Q 2138 -91 1772 -91 
Q 1169 -91 856 284 
Q 544 659 544 1381 
z
M 1991 3584 
L 1991 3584 
z
" transform="scale(0.015625)"/>
       <path id="DejaVuSans-64" d="M 2906 2969 
L 2906 4863 
L 3481 4863 
L 3481 0 
L 2906 0 
L 2906 525 
Q 2725 213 2448 61 
Q 2172 -91 1784 -91 
Q 1150 -91 751 415 
Q 353 922 353 1747 
Q 353 2572 751 3078 
Q 1150 3584 1784 3584 
Q 2172 3584 2448 3432 
Q 2725 3281 2906 2969 
z
M 947 1747 
Q 947 1113 1208 752 
Q 1469 391 1925 391 
Q 2381 391 2643 752 
Q 2906 1113 2906 1747 
Q 2906 2381 2643 2742 
Q 2381 3103 1925 3103 
Q 1469 3103 1208 2742 
Q 947 2381 947 1747 
z
" transform="scale(0.015625)"/>
       <path id="DejaVuSans-65" d="M 3597 1894 
L 3597 1613 
L 953 1613 
Q 991 1019 1311 708 
Q 1631 397 2203 397 
Q 2534 397 2845 478 
Q 3156 559 3463 722 
L 3463 178 
Q 3153 47 2828 -22 
Q 2503 -91 2169 -91 
Q 1331 -91 842 396 
Q 353 884 353 1716 
Q 353 2575 817 3079 
Q 1281 3584 2069 3584 
Q 2775 3584 3186 3129 
Q 3597 2675 3597 1894 
z
M 3022 2063 
Q 3016 2534 2758 2815 
Q 2500 3097 2075 3097 
Q 1594 3097 1305 2825 
Q 1016 2553 972 2059 
L 3022 2063 
z
" transform="scale(0.015625)"/>
       <path id="DejaVuSans-20" transform="scale(0.015625)"/>
       <path id="DejaVuSans-31" d="M 794 531 
L 1825 531 
L 1825 4091 
L 703 3866 
L 703 4441 
L 1819 4666 
L 2450 4666 
L 2450 531 
L 3481 531 
L 3481 0 
L 794 0 
L 794 531 
z
" transform="scale(0.015625)"/>
      </defs>
      <use xlink:href="#DejaVuSans-41"/>
      <use xlink:href="#DejaVuSans-6d" x="68.408203"/>
      <use xlink:href="#DejaVuSans-70" x="165.820312"/>
      <use xlink:href="#DejaVuSans-6c" x="229.296875"/>
      <use xlink:href="#DejaVuSans-69" x="257.080078"/>
      <use xlink:href="#DejaVuSans-74" x="284.863281"/>
      <use xlink:href="#DejaVuSans-75" x="324.072266"/>
      <use xlink:href="#DejaVuSans-64" x="387.451172"/>
      <use xlink:href="#DejaVuSans-65" x="450.927734"/>
      <use xlink:href="#DejaVuSans-20" x="512.451172"/>
      <use xlink:href="#DejaVuSans-31" x="544.238281"/>
     </g>
    </g>
   </g>
   <g id="matplotlib.axis_2">
    <g id="ytick_1">
     <g id="line2d_11">
      <path d="M 73.980469 258.528 
L 340.092469 258.528 
" clip-path="url(#p77107b6a17)" style="fill: none; stroke: #b0b0b0; stroke-width: 0.8; stroke-linecap: square"/>
     </g>
     <g id="line2d_12">
      <defs>
       <path id="m6f3f5b6aff" d="M 0 0 
L -3.5 0 
" style="stroke: #000000; stroke-width: 0.8"/>
      </defs>
      <g>
       <use xlink:href="#m6f3f5b6aff" x="73.980469" y="258.528" style="stroke: #000000; stroke-width: 0.8"/>
      </g>
     </g>
     <g id="text_7">
      <!-- −0.4 -->
      <g transform="translate(30.55625 264.226828)scale(0.15 -0.15)">
       <use xlink:href="#DejaVuSans-2212"/>
       <use xlink:href="#DejaVuSans-30" x="83.789062"/>
       <use xlink:href="#DejaVuSans-2e" x="147.412109"/>
       <use xlink:href="#DejaVuSans-34" x="179.199219"/>
      </g>
     </g>
    </g>
    <g id="ytick_2">
     <g id="line2d_13">
      <path d="M 73.980469 199.392 
L 340.092469 199.392 
" clip-path="url(#p77107b6a17)" style="fill: none; stroke: #b0b0b0; stroke-width: 0.8; stroke-linecap: square"/>
     </g>
     <g id="line2d_14">
      <g>
       <use xlink:href="#m6f3f5b6aff" x="73.980469" y="199.392" style="stroke: #000000; stroke-width: 0.8"/>
      </g>
     </g>
     <g id="text_8">
      <!-- −0.2 -->
      <g transform="translate(30.55625 205.090828)scale(0.15 -0.15)">
       <use xlink:href="#DejaVuSans-2212"/>
       <use xlink:href="#DejaVuSans-30" x="83.789062"/>
       <use xlink:href="#DejaVuSans-2e" x="147.412109"/>
       <use xlink:href="#DejaVuSans-32" x="179.199219"/>
      </g>
     </g>
    </g>
    <g id="ytick_3">
     <g id="line2d_15">
      <path d="M 73.980469 140.256 
L 340.092469 140.256 
" clip-path="url(#p77107b6a17)" style="fill: none; stroke: #b0b0b0; stroke-width: 0.8; stroke-linecap: square"/>
     </g>
     <g id="line2d_16">
      <g>
       <use xlink:href="#m6f3f5b6aff" x="73.980469" y="140.256" style="stroke: #000000; stroke-width: 0.8"/>
      </g>
     </g>
     <g id="text_9">
      <!-- 0.0 -->
      <g transform="translate(43.125781 145.954828)scale(0.15 -0.15)">
       <use xlink:href="#DejaVuSans-30"/>
       <use xlink:href="#DejaVuSans-2e" x="63.623047"/>
       <use xlink:href="#DejaVuSans-30" x="95.410156"/>
      </g>
     </g>
    </g>
    <g id="ytick_4">
     <g id="line2d_17">
      <path d="M 73.980469 81.12 
L 340.092469 81.12 
" clip-path="url(#p77107b6a17)" style="fill: none; stroke: #b0b0b0; stroke-width: 0.8; stroke-linecap: square"/>
     </g>
     <g id="line2d_18">
      <g>
       <use xlink:href="#m6f3f5b6aff" x="73.980469" y="81.12" style="stroke: #000000; stroke-width: 0.8"/>
      </g>
     </g>
     <g id="text_10">
      <!-- 0.2 -->
      <g transform="translate(43.125781 86.818828)scale(0.15 -0.15)">
       <use xlink:href="#DejaVuSans-30"/>
       <use xlink:href="#DejaVuSans-2e" x="63.623047"/>
       <use xlink:href="#DejaVuSans-32" x="95.410156"/>
      </g>
     </g>
    </g>
    <g id="ytick_5">
     <g id="line2d_19">
      <path d="M 73.980469 21.984 
L 340.092469 21.984 
" clip-path="url(#p77107b6a17)" style="fill: none; stroke: #b0b0b0; stroke-width: 0.8; stroke-linecap: square"/>
     </g>
     <g id="line2d_20">
      <g>
       <use xlink:href="#m6f3f5b6aff" x="73.980469" y="21.984" style="stroke: #000000; stroke-width: 0.8"/>
      </g>
     </g>
     <g id="text_11">
      <!-- 0.4 -->
      <g transform="translate(43.125781 27.682828)scale(0.15 -0.15)">
       <use xlink:href="#DejaVuSans-30"/>
       <use xlink:href="#DejaVuSans-2e" x="63.623047"/>
       <use xlink:href="#DejaVuSans-34" x="95.410156"/>
      </g>
     </g>
    </g>
    <g id="text_12">
     <!-- Amplitude 2 -->
     <g transform="translate(22.396875 201.041937)rotate(-90)scale(0.2 -0.2)">
      <use xlink:href="#DejaVuSans-41"/>
      <use xlink:href="#DejaVuSans-6d" x="68.408203"/>
      <use xlink:href="#DejaVuSans-70" x="165.820312"/>
      <use xlink:href="#DejaVuSans-6c" x="229.296875"/>
      <use xlink:href="#DejaVuSans-69" x="257.080078"/>
      <use xlink:href="#DejaVuSans-74" x="284.863281"/>
      <use xlink:href="#DejaVuSans-75" x="324.072266"/>
      <use xlink:href="#DejaVuSans-64" x="387.451172"/>
      <use xlink:href="#DejaVuSans-65" x="450.927734"/>
      <use xlink:href="#DejaVuSans-20" x="512.451172"/>
      <use xlink:href="#DejaVuSans-32" x="544.238281"/>
     </g>
    </g>
   </g>
   <g id="LineCollection_1">
    <path d="M 80.174015 89.409848 
L 80.548092 89.409848 
" clip-path="url(#p77107b6a17)" style="fill: none; stroke: #1f77b4; stroke-width: 1.5"/>
    <path d="M 87.46844 94.955958 
L 87.849352 94.955958 
" clip-path="url(#p77107b6a17)" style="fill: none; stroke: #1f77b4; stroke-width: 1.5"/>
    <path d="M 97.796572 101.346512 
L 98.187142 101.346512 
" clip-path="url(#p77107b6a17)" style="fill: none; stroke: #1f77b4; stroke-width: 1.5"/>
    <path d="M 110.601594 106.724784 
L 111.000275 106.724784 
" clip-path="url(#p77107b6a17)" style="fill: none; stroke: #1f77b4; stroke-width: 1.5"/>
    <path d="M 125.798829 112.245511 
L 126.207036 112.245511 
" clip-path="url(#p77107b6a17)" style="fill: none; stroke: #1f77b4; stroke-width: 1.5"/>
    <path d="M 142.357743 119.592127 
L 142.776091 119.592127 
" clip-path="url(#p77107b6a17)" style="fill: none; stroke: #1f77b4; stroke-width: 1.5"/>
    <path d="M 163.978487 125.260577 
L 164.400503 125.260577 
" clip-path="url(#p77107b6a17)" style="fill: none; stroke: #1f77b4; stroke-width: 1.5"/>
    <path d="M 185.378768 132.740519 
L 185.807676 132.740519 
" clip-path="url(#p77107b6a17)" style="fill: none; stroke: #1f77b4; stroke-width: 1.5"/>
    <path d="M 208.748267 139.295337 
L 209.178972 139.295337 
" clip-path="url(#p77107b6a17)" style="fill: none; stroke: #1f77b4; stroke-width: 1.5"/>
    <path d="M 232.531025 145.5406 
L 232.959714 145.5406 
" clip-path="url(#p77107b6a17)" style="fill: none; stroke: #1f77b4; stroke-width: 1.5"/>
    <path d="M 255.13759 152.04849 
L 255.560377 152.04849 
" clip-path="url(#p77107b6a17)" style="fill: none; stroke: #1f77b4; stroke-width: 1.5"/>
   </g>
   <g id="LineCollection_2">
    <path d="M 80.361054 89.607386 
L 80.361054 89.212311 
" clip-path="url(#p77107b6a17)" style="fill: none; stroke: #1f77b4; stroke-width: 1.5"/>
    <path d="M 87.658896 95.156203 
L 87.658896 94.755713 
" clip-path="url(#p77107b6a17)" style="fill: none; stroke: #1f77b4; stroke-width: 1.5"/>
    <path d="M 97.991857 101.550399 
L 97.991857 101.142625 
" clip-path="url(#p77107b6a17)" style="fill: none; stroke: #1f77b4; stroke-width: 1.5"/>
    <path d="M 110.800935 106.931235 
L 110.800935 106.518333 
" clip-path="url(#p77107b6a17)" style="fill: none; stroke: #1f77b4; stroke-width: 1.5"/>
    <path d="M 126.002932 112.455296 
L 126.002932 112.035726 
" clip-path="url(#p77107b6a17)" style="fill: none; stroke: #1f77b4; stroke-width: 1.5"/>
    <path d="M 142.566917 119.80609 
L 142.566917 119.378164 
" clip-path="url(#p77107b6a17)" style="fill: none; stroke: #1f77b4; stroke-width: 1.5"/>
    <path d="M 164.189495 125.474879 
L 164.189495 125.046275 
" clip-path="url(#p77107b6a17)" style="fill: none; stroke: #1f77b4; stroke-width: 1.5"/>
    <path d="M 185.593222 132.957642 
L 185.593222 132.523397 
" clip-path="url(#p77107b6a17)" style="fill: none; stroke: #1f77b4; stroke-width: 1.5"/>
    <path d="M 208.96362 139.513236 
L 208.96362 139.077438 
" clip-path="url(#p77107b6a17)" style="fill: none; stroke: #1f77b4; stroke-width: 1.5"/>
    <path d="M 232.745369 145.75775 
L 232.745369 145.323451 
" clip-path="url(#p77107b6a17)" style="fill: none; stroke: #1f77b4; stroke-width: 1.5"/>
    <path d="M 255.348983 152.26376 
L 255.348983 151.83322 
" clip-path="url(#p77107b6a17)" style="fill: none; stroke: #1f77b4; stroke-width: 1.5"/>
   </g>
   <g id="LineCollection_3">
    <path d="M 78.980798 81.99069 
L 79.331272 81.99069 
" clip-path="url(#p77107b6a17)" style="fill: none; stroke: #ff7f0e; stroke-width: 1.5"/>
    <path d="M 86.465496 87.22262 
L 86.826332 87.22262 
" clip-path="url(#p77107b6a17)" style="fill: none; stroke: #ff7f0e; stroke-width: 1.5"/>
    <path d="M 99.633215 93.534564 
L 100.002975 93.534564 
" clip-path="url(#p77107b6a17)" style="fill: none; stroke: #ff7f0e; stroke-width: 1.5"/>
    <path d="M 112.637787 101.537399 
L 113.0191 101.537399 
" clip-path="url(#p77107b6a17)" style="fill: none; stroke: #ff7f0e; stroke-width: 1.5"/>
    <path d="M 129.878111 108.248449 
L 130.268504 108.248449 
" clip-path="url(#p77107b6a17)" style="fill: none; stroke: #ff7f0e; stroke-width: 1.5"/>
    <path d="M 149.886422 115.812015 
L 150.280972 115.812015 
" clip-path="url(#p77107b6a17)" style="fill: none; stroke: #ff7f0e; stroke-width: 1.5"/>
    <path d="M 170.109831 124.450337 
L 170.51402 124.450337 
" clip-path="url(#p77107b6a17)" style="fill: none; stroke: #ff7f0e; stroke-width: 1.5"/>
    <path d="M 191.927643 132.484176 
L 192.334798 132.484176 
" clip-path="url(#p77107b6a17)" style="fill: none; stroke: #ff7f0e; stroke-width: 1.5"/>
    <path d="M 215.162174 140.977342 
L 215.567758 140.977342 
" clip-path="url(#p77107b6a17)" style="fill: none; stroke: #ff7f0e; stroke-width: 1.5"/>
    <path d="M 238.086324 149.087209 
L 238.489354 149.087209 
" clip-path="url(#p77107b6a17)" style="fill: none; stroke: #ff7f0e; stroke-width: 1.5"/>
    <path d="M 260.496248 156.764092 
L 260.894604 156.764092 
" clip-path="url(#p77107b6a17)" style="fill: none; stroke: #ff7f0e; stroke-width: 1.5"/>
   </g>
   <g id="LineCollection_4">
    <path d="M 79.156035 82.175659 
L 79.156035 81.80572 
" clip-path="url(#p77107b6a17)" style="fill: none; stroke: #ff7f0e; stroke-width: 1.5"/>
    <path d="M 86.645914 87.412089 
L 86.645914 87.033151 
" clip-path="url(#p77107b6a17)" style="fill: none; stroke: #ff7f0e; stroke-width: 1.5"/>
    <path d="M 99.818095 93.727037 
L 99.818095 93.342091 
" clip-path="url(#p77107b6a17)" style="fill: none; stroke: #ff7f0e; stroke-width: 1.5"/>
    <path d="M 112.828443 101.734643 
L 112.828443 101.340155 
" clip-path="url(#p77107b6a17)" style="fill: none; stroke: #ff7f0e; stroke-width: 1.5"/>
    <path d="M 130.073308 108.448663 
L 130.073308 108.048236 
" clip-path="url(#p77107b6a17)" style="fill: none; stroke: #ff7f0e; stroke-width: 1.5"/>
    <path d="M 150.083697 116.01309 
L 150.083697 115.61094 
" clip-path="url(#p77107b6a17)" style="fill: none; stroke: #ff7f0e; stroke-width: 1.5"/>
    <path d="M 170.311926 124.655378 
L 170.311926 124.245296 
" clip-path="url(#p77107b6a17)" style="fill: none; stroke: #ff7f0e; stroke-width: 1.5"/>
    <path d="M 192.131221 132.690108 
L 192.131221 132.278245 
" clip-path="url(#p77107b6a17)" style="fill: none; stroke: #ff7f0e; stroke-width: 1.5"/>
    <path d="M 215.364966 141.182582 
L 215.364966 140.772102 
" clip-path="url(#p77107b6a17)" style="fill: none; stroke: #ff7f0e; stroke-width: 1.5"/>
    <path d="M 238.287839 149.291572 
L 238.287839 148.882847 
" clip-path="url(#p77107b6a17)" style="fill: none; stroke: #ff7f0e; stroke-width: 1.5"/>
    <path d="M 260.695426 156.967286 
L 260.695426 156.560897 
" clip-path="url(#p77107b6a17)" style="fill: none; stroke: #ff7f0e; stroke-width: 1.5"/>
   </g>
   <g id="line2d_21">
    <path d="M 80.361054 89.409848 
L 87.658896 94.955958 
L 97.991857 101.346512 
L 110.800935 106.724784 
L 126.002932 112.245511 
L 142.566917 119.592127 
L 164.189495 125.260577 
L 185.593222 132.740519 
L 208.96362 139.295337 
L 232.745369 145.5406 
L 255.348983 152.04849 
" clip-path="url(#p77107b6a17)" style="fill: none; stroke: #1f77b4; stroke-width: 1.5; stroke-linecap: square"/>
    <defs>
     <path id="mcceb8b8273" d="M 0 3 
C 0.795609 3 1.55874 2.683901 2.12132 2.12132 
C 2.683901 1.55874 3 0.795609 3 0 
C 3 -0.795609 2.683901 -1.55874 2.12132 -2.12132 
C 1.55874 -2.683901 0.795609 -3 0 -3 
C -0.795609 -3 -1.55874 -2.683901 -2.12132 -2.12132 
C -2.683901 -1.55874 -3 -0.795609 -3 0 
C -3 0.795609 -2.683901 1.55874 -2.12132 2.12132 
C -1.55874 2.683901 -0.795609 3 0 3 
z
" style="stroke: #1f77b4"/>
    </defs>
    <g clip-path="url(#p77107b6a17)">
     <use xlink:href="#mcceb8b8273" x="80.361054" y="89.409848" style="fill: #1f77b4; stroke: #1f77b4"/>
     <use xlink:href="#mcceb8b8273" x="87.658896" y="94.955958" style="fill: #1f77b4; stroke: #1f77b4"/>
     <use xlink:href="#mcceb8b8273" x="97.991857" y="101.346512" style="fill: #1f77b4; stroke: #1f77b4"/>
     <use xlink:href="#mcceb8b8273" x="110.800935" y="106.724784" style="fill: #1f77b4; stroke: #1f77b4"/>
     <use xlink:href="#mcceb8b8273" x="126.002932" y="112.245511" style="fill: #1f77b4; stroke: #1f77b4"/>
     <use xlink:href="#mcceb8b8273" x="142.566917" y="119.592127" style="fill: #1f77b4; stroke: #1f77b4"/>
     <use xlink:href="#mcceb8b8273" x="164.189495" y="125.260577" style="fill: #1f77b4; stroke: #1f77b4"/>
     <use xlink:href="#mcceb8b8273" x="185.593222" y="132.740519" style="fill: #1f77b4; stroke: #1f77b4"/>
     <use xlink:href="#mcceb8b8273" x="208.96362" y="139.295337" style="fill: #1f77b4; stroke: #1f77b4"/>
     <use xlink:href="#mcceb8b8273" x="232.745369" y="145.5406" style="fill: #1f77b4; stroke: #1f77b4"/>
     <use xlink:href="#mcceb8b8273" x="255.348983" y="152.04849" style="fill: #1f77b4; stroke: #1f77b4"/>
    </g>
   </g>
   <g id="line2d_22">
    <path d="M 79.156035 81.99069 
L 86.645914 87.22262 
L 99.818095 93.534564 
L 112.828443 101.537399 
L 130.073308 108.248449 
L 150.083697 115.812015 
L 170.311926 124.450337 
L 192.131221 132.484176 
L 215.364966 140.977342 
L 238.287839 149.087209 
L 260.695426 156.764092 
" clip-path="url(#p77107b6a17)" style="fill: none; stroke: #ff7f0e; stroke-width: 1.5; stroke-linecap: square"/>
    <defs>
     <path id="mff6e4f8517" d="M 0 3 
C 0.795609 3 1.55874 2.683901 2.12132 2.12132 
C 2.683901 1.55874 3 0.795609 3 0 
C 3 -0.795609 2.683901 -1.55874 2.12132 -2.12132 
C 1.55874 -2.683901 0.795609 -3 0 -3 
C -0.795609 -3 -1.55874 -2.683901 -2.12132 -2.12132 
C -2.683901 -1.55874 -3 -0.795609 -3 0 
C -3 0.795609 -2.683901 1.55874 -2.12132 2.12132 
C -1.55874 2.683901 -0.795609 3 0 3 
z
" style="stroke: #ff7f0e"/>
    </defs>
    <g clip-path="url(#p77107b6a17)">
     <use xlink:href="#mff6e4f8517" x="79.156035" y="81.99069" style="fill: #ff7f0e; stroke: #ff7f0e"/>
     <use xlink:href="#mff6e4f8517" x="86.645914" y="87.22262" style="fill: #ff7f0e; stroke: #ff7f0e"/>
     <use xlink:href="#mff6e4f8517" x="99.818095" y="93.534564" style="fill: #ff7f0e; stroke: #ff7f0e"/>
     <use xlink:href="#mff6e4f8517" x="112.828443" y="101.537399" style="fill: #ff7f0e; stroke: #ff7f0e"/>
     <use xlink:href="#mff6e4f8517" x="130.073308" y="108.248449" style="fill: #ff7f0e; stroke: #ff7f0e"/>
     <use xlink:href="#mff6e4f8517" x="150.083697" y="115.812015" style="fill: #ff7f0e; stroke: #ff7f0e"/>
     <use xlink:href="#mff6e4f8517" x="170.311926" y="124.450337" style="fill: #ff7f0e; stroke: #ff7f0e"/>
     <use xlink:href="#mff6e4f8517" x="192.131221" y="132.484176" style="fill: #ff7f0e; stroke: #ff7f0e"/>
     <use xlink:href="#mff6e4f8517" x="215.364966" y="140.977342" style="fill: #ff7f0e; stroke: #ff7f0e"/>
     <use xlink:href="#mff6e4f8517" x="238.287839" y="149.087209" style="fill: #ff7f0e; stroke: #ff7f0e"/>
     <use xlink:href="#mff6e4f8517" x="260.695426" y="156.764092" style="fill: #ff7f0e; stroke: #ff7f0e"/>
    </g>
   </g>
   <g id="patch_3">
    <path d="M 73.980469 273.312 
L 73.980469 7.2 
" style="fill: none; stroke: #000000; stroke-width: 0.8; stroke-linejoin: miter; stroke-linecap: square"/>
   </g>
   <g id="patch_4">
    <path d="M 340.092469 273.312 
L 340.092469 7.2 
" style="fill: none; stroke: #000000; stroke-width: 0.8; stroke-linejoin: miter; stroke-linecap: square"/>
   </g>
   <g id="patch_5">
    <path d="M 73.980469 273.312 
L 340.092469 273.312 
" style="fill: none; stroke: #000000; stroke-width: 0.8; stroke-linejoin: miter; stroke-linecap: square"/>
   </g>
   <g id="patch_6">
    <path d="M 73.980469 7.2 
L 340.092469 7.2 
" style="fill: none; stroke: #000000; stroke-width: 0.8; stroke-linejoin: miter; stroke-linecap: square"/>
   </g>
  </g>
 </g>
 <defs>
  <clipPath id="p77107b6a17">
   <rect x="73.980469" y="7.2" width="266.112" height="266.112"/>
  </clipPath>
 </defs>
</svg>
