M48
; DRILL file {KiCad (6.0.7)} date 2022年08月25日 星期四 07时22分19秒
; FORMAT={-:-/ absolute / inch / decimal}
; #@! TF.CreationDate,2022-08-25T07:22:19-04:00
; #@! TF.GenerationSoftware,Kicad,Pcbnew,(6.0.7)
; #@! TF.FileFunction,MixedPlating,1,2
FMAT,2
INCH
; #@! TA.AperFunction,Plated,PTH,ComponentDrill
T1C0.0276
; #@! TA.AperFunction,Plated,PTH,ComponentDrill
T2C0.0315
; #@! TA.AperFunction,Plated,PTH,ComponentDrill
T3C0.0350
; #@! TA.AperFunction,Plated,PTH,ComponentDrill
T4C0.0472
; #@! TA.AperFunction,Plated,PTH,ComponentDrill
T5C0.0791
; #@! TA.AperFunction,Plated,PTH,ComponentDrill
T6C0.1457
; #@! TA.AperFunction,Plated,PTH,ComponentDrill
T7C0.1575
%
G90
G05
T1
X12.9807Y-3.5315
X12.9807Y-3.6575
X12.9807Y-3.7441
X12.9807Y-3.8307
X13.1807Y-3.5315
X13.1807Y-3.6575
X13.1807Y-3.7441
X13.1807Y-3.8307
X13.4335Y-3.5315
X13.4335Y-3.6575
X13.4335Y-3.7441
X13.4335Y-3.8307
X13.6335Y-3.5315
X13.6335Y-3.6575
X13.6335Y-3.7441
X13.6335Y-3.8307
X13.8862Y-3.5315
X13.8862Y-3.6575
X13.8862Y-3.7441
X13.8862Y-3.8307
X14.0862Y-3.5315
X14.0862Y-3.6575
X14.0862Y-3.7441
X14.0862Y-3.8307
X14.339Y-3.5315
X14.339Y-3.6575
X14.339Y-3.7441
X14.339Y-3.8307
X14.539Y-3.5315
X14.539Y-3.6575
X14.539Y-3.7441
X14.539Y-3.8307
X14.7917Y-3.5315
X14.7917Y-3.6575
X14.7917Y-3.7441
X14.7917Y-3.8307
X14.9917Y-3.5315
X14.9917Y-3.6575
X14.9917Y-3.7441
X14.9917Y-3.8307
T2
X13.2972Y-3.4811
X13.2972Y-3.8811
X13.75Y-3.4811
X13.75Y-3.8811
X14.2028Y-3.4811
X14.2028Y-3.8811
X14.6555Y-3.4811
X14.6555Y-3.8811
X15.1083Y-3.4811
X15.1083Y-3.8811
X15.3543Y-3.6357
X15.3543Y-3.7735
X15.3543Y-4.0021
X15.3543Y-4.1399
X15.6661Y-3.5433
X16.0661Y-3.5433
T3
X15.8661Y-3.7598
X15.9661Y-3.7598
T4
X13.08Y-4.0692
X13.0814Y-3.293
X13.2178Y-4.0692
X13.2192Y-3.293
X13.5328Y-4.0692
X13.5342Y-3.293
X13.6706Y-4.0692
X13.6719Y-3.293
X13.9855Y-4.0692
X13.9869Y-3.293
X14.1233Y-4.0692
X14.1247Y-3.293
X14.4383Y-4.0692
X14.4397Y-3.293
X14.5761Y-4.0692
X14.5775Y-3.293
X14.891Y-4.0692
X14.8924Y-3.293
X15.0288Y-4.0692
X15.0302Y-3.293
X15.5027Y-3.293
X15.6405Y-3.293
X15.9357Y-3.293
X16.0735Y-3.293
T5
X15.6661Y-3.9598
X16.0661Y-3.9598
T6
X12.7953Y-4.065
T7
X16.3189Y-3.5531
T0
M30
