%TF.GenerationSoftware,KiCad,Pcbnew,(6.0.7)*%
%TF.CreationDate,2022-08-25T07:22:17-04:00*%
%TF.ProjectId,chiller_interlock_aosense,6368696c-6c65-4725-9f69-6e7465726c6f,rev?*%
%TF.SameCoordinates,Original*%
%TF.FileFunction,Copper,L2,Bot*%
%TF.FilePolarity,Positive*%
%FSLAX46Y46*%
G04 Gerber Fmt 4.6, Leading zero omitted, Abs format (unit mm)*
G04 Created by KiCad (PCBNEW (6.0.7)) date 2022-08-25 07:22:17*
%MOMM*%
%LPD*%
G01*
G04 APERTURE LIST*
G04 Aperture macros list*
%AMRoundRect*
0 Rectangle with rounded corners*
0 $1 Rounding radius*
0 $2 $3 $4 $5 $6 $7 $8 $9 X,Y pos of 4 corners*
0 Add a 4 corners polygon primitive as box body*
4,1,4,$2,$3,$4,$5,$6,$7,$8,$9,$2,$3,0*
0 Add four circle primitives for the rounded corners*
1,1,$1+$1,$2,$3*
1,1,$1+$1,$4,$5*
1,1,$1+$1,$6,$7*
1,1,$1+$1,$8,$9*
0 Add four rect primitives between the rounded corners*
20,1,$1+$1,$2,$3,$4,$5,0*
20,1,$1+$1,$4,$5,$6,$7,0*
20,1,$1+$1,$6,$7,$8,$9,0*
20,1,$1+$1,$8,$9,$2,$3,0*%
G04 Aperture macros list end*
%TA.AperFunction,Profile*%
%ADD10C,0.100000*%
%TD*%
%TA.AperFunction,ComponentPad*%
%ADD11R,1.600000X1.600000*%
%TD*%
%TA.AperFunction,ComponentPad*%
%ADD12C,1.600000*%
%TD*%
%TA.AperFunction,ComponentPad*%
%ADD13C,7.400000*%
%TD*%
%TA.AperFunction,ComponentPad*%
%ADD14C,8.000000*%
%TD*%
%TA.AperFunction,ComponentPad*%
%ADD15RoundRect,0.250000X-0.650000X-1.550000X0.650000X-1.550000X0.650000X1.550000X-0.650000X1.550000X0*%
%TD*%
%TA.AperFunction,ComponentPad*%
%ADD16O,1.800000X3.600000*%
%TD*%
%TA.AperFunction,ComponentPad*%
%ADD17O,1.600000X1.600000*%
%TD*%
%TA.AperFunction,ComponentPad*%
%ADD18RoundRect,0.250000X0.650000X1.550000X-0.650000X1.550000X-0.650000X-1.550000X0.650000X-1.550000X0*%
%TD*%
%TA.AperFunction,ComponentPad*%
%ADD19O,1.600000X2.500000*%
%TD*%
%TA.AperFunction,ComponentPad*%
%ADD20O,3.500000X7.000000*%
%TD*%
%TA.AperFunction,ComponentPad*%
%ADD21C,1.400000*%
%TD*%
G04 APERTURE END LIST*
D10*
X321000000Y-108250000D02*
X321000000Y-78500000D01*
X321000000Y-78500000D02*
X419000000Y-78500000D01*
X419000000Y-108250000D02*
X321000000Y-108250000D01*
X419000000Y-78500000D02*
X419000000Y-108250000D01*
D11*
%TO.P,C1,1*%
%TO.N,TTL_OUT*%
X390000000Y-105152651D03*
D12*
%TO.P,C1,2*%
%TO.N,GND*%
X390000000Y-101652651D03*
%TD*%
D13*
%TO.P,J14,1,Pin_1*%
%TO.N,GND*%
X325000000Y-103250000D03*
%TD*%
D14*
%TO.P,J15,1,Pin_1*%
%TO.N,GND*%
X414500000Y-90250000D03*
%TD*%
D15*
%TO.P,J2,1,Pin_1*%
%TO.N,TTL_OUT*%
X393767500Y-83642500D03*
D16*
%TO.P,J2,2,Pin_2*%
%TO.N,GND*%
X397267500Y-83642500D03*
%TD*%
D12*
%TO.P,R2,1*%
%TO.N,TTL_IN*%
X372250000Y-98580000D03*
D17*
%TO.P,R2,2*%
%TO.N,Net-(K2-Pad1)*%
X372250000Y-88420000D03*
%TD*%
D18*
%TO.P,J12,1,Pin_1*%
%TO.N,Net-(J12-Pad1)*%
X335732500Y-103357500D03*
D16*
%TO.P,J12,2,Pin_2*%
%TO.N,Net-(J12-Pad2)*%
X332232500Y-103357500D03*
%TD*%
D19*
%TO.P,J1,1,In*%
%TO.N,TTL_IN*%
X403000000Y-95500000D03*
%TO.P,J1,2,Ext*%
%TO.N,GND*%
X405540000Y-95500000D03*
D20*
X408080000Y-100580000D03*
X397920000Y-100580000D03*
%TD*%
D12*
%TO.P,R5,1*%
%TO.N,TTL_IN*%
X337750000Y-98580000D03*
D17*
%TO.P,R5,2*%
%TO.N,Net-(K5-Pad1)*%
X337750000Y-88420000D03*
%TD*%
D15*
%TO.P,J3,1,Pin_1*%
%TO.N,TTL_OUT*%
X404767500Y-83642500D03*
D16*
%TO.P,J3,2,Pin_2*%
%TO.N,GND*%
X408267500Y-83642500D03*
%TD*%
D18*
%TO.P,J8,1,Pin_1*%
%TO.N,Net-(J8-Pad1)*%
X358732500Y-103357500D03*
D16*
%TO.P,J8,2,Pin_2*%
%TO.N,Net-(J8-Pad2)*%
X355232500Y-103357500D03*
%TD*%
D21*
%TO.P,K2,1*%
%TO.N,Net-(K2-Pad1)*%
X364210000Y-89700000D03*
%TO.P,K2,2*%
%TO.N,unconnected-(K2-Pad2)*%
X364210000Y-92900000D03*
%TO.P,K2,3*%
%TO.N,Net-(J6-Pad2)*%
X364210000Y-95100000D03*
%TO.P,K2,4*%
%TO.N,Net-(J6-Pad1)*%
X364210000Y-97300000D03*
%TO.P,K2,5*%
%TO.N,Net-(J7-Pad1)*%
X369290000Y-97300000D03*
%TO.P,K2,6*%
%TO.N,Net-(J7-Pad2)*%
X369290000Y-95100000D03*
%TO.P,K2,7*%
%TO.N,unconnected-(K2-Pad7)*%
X369290000Y-92900000D03*
%TO.P,K2,8*%
%TO.N,GND*%
X369290000Y-89700000D03*
%TD*%
D11*
%TO.P,C2,1*%
%TO.N,TTL_OUT*%
X390000000Y-92347349D03*
D12*
%TO.P,C2,2*%
%TO.N,GND*%
X390000000Y-95847349D03*
%TD*%
D15*
%TO.P,J11,1,Pin_1*%
%TO.N,Net-(J11-Pad1)*%
X343767500Y-83642500D03*
D16*
%TO.P,J11,2,Pin_2*%
%TO.N,Net-(J11-Pad2)*%
X347267500Y-83642500D03*
%TD*%
D12*
%TO.P,R3,1*%
%TO.N,TTL_IN*%
X360750000Y-98580000D03*
D17*
%TO.P,R3,2*%
%TO.N,Net-(K3-Pad1)*%
X360750000Y-88420000D03*
%TD*%
D21*
%TO.P,K1,1*%
%TO.N,Net-(K1-Pad1)*%
X375710000Y-89700000D03*
%TO.P,K1,2*%
%TO.N,unconnected-(K1-Pad2)*%
X375710000Y-92900000D03*
%TO.P,K1,3*%
%TO.N,Net-(J4-Pad2)*%
X375710000Y-95100000D03*
%TO.P,K1,4*%
%TO.N,Net-(J4-Pad1)*%
X375710000Y-97300000D03*
%TO.P,K1,5*%
%TO.N,Net-(J5-Pad1)*%
X380790000Y-97300000D03*
%TO.P,K1,6*%
%TO.N,Net-(J5-Pad2)*%
X380790000Y-95100000D03*
%TO.P,K1,7*%
%TO.N,unconnected-(K1-Pad7)*%
X380790000Y-92900000D03*
%TO.P,K1,8*%
%TO.N,GND*%
X380790000Y-89700000D03*
%TD*%
D12*
%TO.P,R4,1*%
%TO.N,TTL_IN*%
X349250000Y-98580000D03*
D17*
%TO.P,R4,2*%
%TO.N,Net-(K4-Pad1)*%
X349250000Y-88420000D03*
%TD*%
D15*
%TO.P,J7,1,Pin_1*%
%TO.N,Net-(J7-Pad1)*%
X366767500Y-83642500D03*
D16*
%TO.P,J7,2,Pin_2*%
%TO.N,Net-(J7-Pad2)*%
X370267500Y-83642500D03*
%TD*%
D15*
%TO.P,J13,1,Pin_1*%
%TO.N,Net-(J13-Pad1)*%
X332267500Y-83642500D03*
D16*
%TO.P,J13,2,Pin_2*%
%TO.N,Net-(J13-Pad2)*%
X335767500Y-83642500D03*
%TD*%
D18*
%TO.P,J6,1,Pin_1*%
%TO.N,Net-(J6-Pad1)*%
X370232500Y-103357500D03*
D16*
%TO.P,J6,2,Pin_2*%
%TO.N,Net-(J6-Pad2)*%
X366732500Y-103357500D03*
%TD*%
%TO.P,J4,2,Pin_2*%
%TO.N,Net-(J4-Pad2)*%
X378232500Y-103357500D03*
D18*
%TO.P,J4,1,Pin_1*%
%TO.N,Net-(J4-Pad1)*%
X381732500Y-103357500D03*
%TD*%
D12*
%TO.P,R1,1*%
%TO.N,TTL_IN*%
X383750000Y-98580000D03*
D17*
%TO.P,R1,2*%
%TO.N,Net-(K1-Pad1)*%
X383750000Y-88420000D03*
%TD*%
D21*
%TO.P,K3,1*%
%TO.N,Net-(K3-Pad1)*%
X352710000Y-89700000D03*
%TO.P,K3,2*%
%TO.N,unconnected-(K3-Pad2)*%
X352710000Y-92900000D03*
%TO.P,K3,3*%
%TO.N,Net-(J8-Pad2)*%
X352710000Y-95100000D03*
%TO.P,K3,4*%
%TO.N,Net-(J8-Pad1)*%
X352710000Y-97300000D03*
%TO.P,K3,5*%
%TO.N,Net-(J9-Pad1)*%
X357790000Y-97300000D03*
%TO.P,K3,6*%
%TO.N,Net-(J9-Pad2)*%
X357790000Y-95100000D03*
%TO.P,K3,7*%
%TO.N,unconnected-(K3-Pad7)*%
X357790000Y-92900000D03*
%TO.P,K3,8*%
%TO.N,GND*%
X357790000Y-89700000D03*
%TD*%
D12*
%TO.P,R6,1*%
%TO.N,TTL_IN*%
X408080000Y-90000000D03*
D17*
%TO.P,R6,2*%
%TO.N,TTL_OUT*%
X397920000Y-90000000D03*
%TD*%
D18*
%TO.P,J10,1,Pin_1*%
%TO.N,Net-(J10-Pad1)*%
X347232500Y-103357500D03*
D16*
%TO.P,J10,2,Pin_2*%
%TO.N,Net-(J10-Pad2)*%
X343732500Y-103357500D03*
%TD*%
D15*
%TO.P,J9,1,Pin_1*%
%TO.N,Net-(J9-Pad1)*%
X355267500Y-83642500D03*
D16*
%TO.P,J9,2,Pin_2*%
%TO.N,Net-(J9-Pad2)*%
X358767500Y-83642500D03*
%TD*%
D15*
%TO.P,J5,1,Pin_1*%
%TO.N,Net-(J5-Pad1)*%
X378267500Y-83642500D03*
D16*
%TO.P,J5,2,Pin_2*%
%TO.N,Net-(J5-Pad2)*%
X381767500Y-83642500D03*
%TD*%
D21*
%TO.P,K4,1*%
%TO.N,Net-(K4-Pad1)*%
X341210000Y-89700000D03*
%TO.P,K4,2*%
%TO.N,unconnected-(K4-Pad2)*%
X341210000Y-92900000D03*
%TO.P,K4,3*%
%TO.N,Net-(J10-Pad2)*%
X341210000Y-95100000D03*
%TO.P,K4,4*%
%TO.N,Net-(J10-Pad1)*%
X341210000Y-97300000D03*
%TO.P,K4,5*%
%TO.N,Net-(J11-Pad1)*%
X346290000Y-97300000D03*
%TO.P,K4,6*%
%TO.N,Net-(J11-Pad2)*%
X346290000Y-95100000D03*
%TO.P,K4,7*%
%TO.N,unconnected-(K4-Pad7)*%
X346290000Y-92900000D03*
%TO.P,K4,8*%
%TO.N,GND*%
X346290000Y-89700000D03*
%TD*%
%TO.P,K5,1*%
%TO.N,Net-(K5-Pad1)*%
X329710000Y-89700000D03*
%TO.P,K5,2*%
%TO.N,unconnected-(K5-Pad2)*%
X329710000Y-92900000D03*
%TO.P,K5,3*%
%TO.N,Net-(J12-Pad2)*%
X329710000Y-95100000D03*
%TO.P,K5,4*%
%TO.N,Net-(J12-Pad1)*%
X329710000Y-97300000D03*
%TO.P,K5,5*%
%TO.N,Net-(J13-Pad1)*%
X334790000Y-97300000D03*
%TO.P,K5,6*%
%TO.N,Net-(J13-Pad2)*%
X334790000Y-95100000D03*
%TO.P,K5,7*%
%TO.N,unconnected-(K5-Pad7)*%
X334790000Y-92900000D03*
%TO.P,K5,8*%
%TO.N,GND*%
X334790000Y-89700000D03*
%TD*%
%TA.AperFunction,Conductor*%
%TO.N,GND*%
G36*
X411524431Y-79028502D02*
G01*
X411545405Y-79045405D01*
X418454595Y-85954595D01*
X418488621Y-86016907D01*
X418491500Y-86043690D01*
X418491500Y-87693807D01*
X418471498Y-87761928D01*
X418417842Y-87808421D01*
X418347568Y-87818525D01*
X418282988Y-87789031D01*
X418260796Y-87763900D01*
X418133930Y-87574389D01*
X418130537Y-87569787D01*
X417876832Y-87256489D01*
X417863963Y-87249226D01*
X417862596Y-87249305D01*
X417855268Y-87253942D01*
X414872022Y-90237188D01*
X414864408Y-90251132D01*
X414864539Y-90252965D01*
X414868790Y-90259580D01*
X417850688Y-93241478D01*
X417864134Y-93248820D01*
X417873970Y-93241900D01*
X418073611Y-93005657D01*
X418077097Y-93001130D01*
X418262287Y-92736651D01*
X418317744Y-92692323D01*
X418388363Y-92685014D01*
X418451724Y-92717045D01*
X418487709Y-92778246D01*
X418491500Y-92808922D01*
X418491500Y-99956310D01*
X418471498Y-100024431D01*
X418454595Y-100045405D01*
X410795405Y-107704595D01*
X410733093Y-107738621D01*
X410706310Y-107741500D01*
X325293690Y-107741500D01*
X325225569Y-107721498D01*
X325204595Y-107704595D01*
X325167659Y-107667659D01*
X325133633Y-107605347D01*
X325138698Y-107534532D01*
X325181245Y-107477696D01*
X325253236Y-107452613D01*
X325320149Y-107450744D01*
X325326280Y-107450272D01*
X325728528Y-107399456D01*
X325734600Y-107398386D01*
X326129983Y-107308557D01*
X326135898Y-107306905D01*
X326520627Y-107178923D01*
X326526361Y-107176699D01*
X326896781Y-107011778D01*
X326902250Y-107009015D01*
X327254810Y-106808733D01*
X327259984Y-106805449D01*
X327591315Y-106571721D01*
X327596153Y-106567941D01*
X327777043Y-106411802D01*
X327785458Y-106398762D01*
X327779519Y-106388730D01*
X324641922Y-103251132D01*
X325364408Y-103251132D01*
X325364539Y-103252965D01*
X325368790Y-103259580D01*
X328138830Y-106029619D01*
X328152774Y-106037233D01*
X328153790Y-106037161D01*
X328161519Y-106032059D01*
X328187160Y-106005133D01*
X328190913Y-106000785D01*
X388691500Y-106000785D01*
X388698255Y-106062967D01*
X388749385Y-106199356D01*
X388836739Y-106315912D01*
X388953295Y-106403266D01*
X389089684Y-106454396D01*
X389151866Y-106461151D01*
X390848134Y-106461151D01*
X390910316Y-106454396D01*
X391046705Y-106403266D01*
X391163261Y-106315912D01*
X391250615Y-106199356D01*
X391301745Y-106062967D01*
X391308500Y-106000785D01*
X391308500Y-104304517D01*
X391301745Y-104242335D01*
X391250615Y-104105946D01*
X391163261Y-103989390D01*
X391046705Y-103902036D01*
X390910316Y-103850906D01*
X390848134Y-103844151D01*
X389151866Y-103844151D01*
X389089684Y-103850906D01*
X388953295Y-103902036D01*
X388836739Y-103989390D01*
X388749385Y-104105946D01*
X388698255Y-104242335D01*
X388691500Y-104304517D01*
X388691500Y-106000785D01*
X328190913Y-106000785D01*
X328191172Y-106000485D01*
X328440783Y-105680998D01*
X328444355Y-105675935D01*
X328661593Y-105333621D01*
X328664636Y-105328265D01*
X328847452Y-104966353D01*
X328849947Y-104960749D01*
X328996572Y-104582724D01*
X328998513Y-104576890D01*
X329070932Y-104317512D01*
X330824000Y-104317512D01*
X330839117Y-104495675D01*
X330840457Y-104500839D01*
X330840458Y-104500843D01*
X330861711Y-104582724D01*
X330899168Y-104727040D01*
X330901360Y-104731906D01*
X330956845Y-104855077D01*
X330997343Y-104944980D01*
X331130834Y-105143262D01*
X331295826Y-105316218D01*
X331487600Y-105458902D01*
X331492351Y-105461318D01*
X331492355Y-105461320D01*
X331695914Y-105564814D01*
X331700672Y-105567233D01*
X331790721Y-105595194D01*
X331923849Y-105636532D01*
X331923855Y-105636533D01*
X331928952Y-105638116D01*
X332056383Y-105655006D01*
X332160627Y-105668823D01*
X332160631Y-105668823D01*
X332165911Y-105669523D01*
X332171240Y-105669323D01*
X332171241Y-105669323D01*
X332269009Y-105665652D01*
X332404774Y-105660555D01*
X332491684Y-105642319D01*
X332633484Y-105612567D01*
X332633487Y-105612566D01*
X332638711Y-105611470D01*
X332861033Y-105523671D01*
X333065383Y-105399668D01*
X333245919Y-105243007D01*
X333249302Y-105238881D01*
X333249306Y-105238877D01*
X333387608Y-105070204D01*
X333397478Y-105058167D01*
X333454554Y-104957900D01*
X334324000Y-104957900D01*
X334334974Y-105063666D01*
X334390950Y-105231446D01*
X334484022Y-105381848D01*
X334609197Y-105506805D01*
X334615427Y-105510645D01*
X334615428Y-105510646D01*
X334752590Y-105595194D01*
X334759762Y-105599615D01*
X334839505Y-105626064D01*
X334921111Y-105653132D01*
X334921113Y-105653132D01*
X334927639Y-105655297D01*
X334934475Y-105655997D01*
X334934478Y-105655998D01*
X334977531Y-105660409D01*
X335032100Y-105666000D01*
X336432900Y-105666000D01*
X336436146Y-105665663D01*
X336436150Y-105665663D01*
X336531808Y-105655738D01*
X336531812Y-105655737D01*
X336538666Y-105655026D01*
X336545202Y-105652845D01*
X336545204Y-105652845D01*
X336677306Y-105608772D01*
X336706446Y-105599050D01*
X336856848Y-105505978D01*
X336981805Y-105380803D01*
X337021616Y-105316218D01*
X337070775Y-105236468D01*
X337070776Y-105236466D01*
X337074615Y-105230238D01*
X337102184Y-105147121D01*
X337128132Y-105068889D01*
X337128132Y-105068887D01*
X337130297Y-105062361D01*
X337141000Y-104957900D01*
X337141000Y-104317512D01*
X342324000Y-104317512D01*
X342339117Y-104495675D01*
X342340457Y-104500839D01*
X342340458Y-104500843D01*
X342361711Y-104582724D01*
X342399168Y-104727040D01*
X342401360Y-104731906D01*
X342456845Y-104855077D01*
X342497343Y-104944980D01*
X342630834Y-105143262D01*
X342795826Y-105316218D01*
X342987600Y-105458902D01*
X342992351Y-105461318D01*
X342992355Y-105461320D01*
X343195914Y-105564814D01*
X343200672Y-105567233D01*
X343290721Y-105595194D01*
X343423849Y-105636532D01*
X343423855Y-105636533D01*
X343428952Y-105638116D01*
X343556383Y-105655006D01*
X343660627Y-105668823D01*
X343660631Y-105668823D01*
X343665911Y-105669523D01*
X343671240Y-105669323D01*
X343671241Y-105669323D01*
X343769009Y-105665652D01*
X343904774Y-105660555D01*
X343991684Y-105642319D01*
X344133484Y-105612567D01*
X344133487Y-105612566D01*
X344138711Y-105611470D01*
X344361033Y-105523671D01*
X344565383Y-105399668D01*
X344745919Y-105243007D01*
X344749302Y-105238881D01*
X344749306Y-105238877D01*
X344887608Y-105070204D01*
X344897478Y-105058167D01*
X344954554Y-104957900D01*
X345824000Y-104957900D01*
X345834974Y-105063666D01*
X345890950Y-105231446D01*
X345984022Y-105381848D01*
X346109197Y-105506805D01*
X346115427Y-105510645D01*
X346115428Y-105510646D01*
X346252590Y-105595194D01*
X346259762Y-105599615D01*
X346339505Y-105626064D01*
X346421111Y-105653132D01*
X346421113Y-105653132D01*
X346427639Y-105655297D01*
X346434475Y-105655997D01*
X346434478Y-105655998D01*
X346477531Y-105660409D01*
X346532100Y-105666000D01*
X347932900Y-105666000D01*
X347936146Y-105665663D01*
X347936150Y-105665663D01*
X348031808Y-105655738D01*
X348031812Y-105655737D01*
X348038666Y-105655026D01*
X348045202Y-105652845D01*
X348045204Y-105652845D01*
X348177306Y-105608772D01*
X348206446Y-105599050D01*
X348356848Y-105505978D01*
X348481805Y-105380803D01*
X348521616Y-105316218D01*
X348570775Y-105236468D01*
X348570776Y-105236466D01*
X348574615Y-105230238D01*
X348602184Y-105147121D01*
X348628132Y-105068889D01*
X348628132Y-105068887D01*
X348630297Y-105062361D01*
X348641000Y-104957900D01*
X348641000Y-104317512D01*
X353824000Y-104317512D01*
X353839117Y-104495675D01*
X353840457Y-104500839D01*
X353840458Y-104500843D01*
X353861711Y-104582724D01*
X353899168Y-104727040D01*
X353901360Y-104731906D01*
X353956845Y-104855077D01*
X353997343Y-104944980D01*
X354130834Y-105143262D01*
X354295826Y-105316218D01*
X354487600Y-105458902D01*
X354492351Y-105461318D01*
X354492355Y-105461320D01*
X354695914Y-105564814D01*
X354700672Y-105567233D01*
X354790721Y-105595194D01*
X354923849Y-105636532D01*
X354923855Y-105636533D01*
X354928952Y-105638116D01*
X355056383Y-105655006D01*
X355160627Y-105668823D01*
X355160631Y-105668823D01*
X355165911Y-105669523D01*
X355171240Y-105669323D01*
X355171241Y-105669323D01*
X355269009Y-105665652D01*
X355404774Y-105660555D01*
X355491684Y-105642319D01*
X355633484Y-105612567D01*
X355633487Y-105612566D01*
X355638711Y-105611470D01*
X355861033Y-105523671D01*
X356065383Y-105399668D01*
X356245919Y-105243007D01*
X356249302Y-105238881D01*
X356249306Y-105238877D01*
X356387608Y-105070204D01*
X356397478Y-105058167D01*
X356454554Y-104957900D01*
X357324000Y-104957900D01*
X357334974Y-105063666D01*
X357390950Y-105231446D01*
X357484022Y-105381848D01*
X357609197Y-105506805D01*
X357615427Y-105510645D01*
X357615428Y-105510646D01*
X357752590Y-105595194D01*
X357759762Y-105599615D01*
X357839505Y-105626064D01*
X357921111Y-105653132D01*
X357921113Y-105653132D01*
X357927639Y-105655297D01*
X357934475Y-105655997D01*
X357934478Y-105655998D01*
X357977531Y-105660409D01*
X358032100Y-105666000D01*
X359432900Y-105666000D01*
X359436146Y-105665663D01*
X359436150Y-105665663D01*
X359531808Y-105655738D01*
X359531812Y-105655737D01*
X359538666Y-105655026D01*
X359545202Y-105652845D01*
X359545204Y-105652845D01*
X359677306Y-105608772D01*
X359706446Y-105599050D01*
X359856848Y-105505978D01*
X359981805Y-105380803D01*
X360021616Y-105316218D01*
X360070775Y-105236468D01*
X360070776Y-105236466D01*
X360074615Y-105230238D01*
X360102184Y-105147121D01*
X360128132Y-105068889D01*
X360128132Y-105068887D01*
X360130297Y-105062361D01*
X360141000Y-104957900D01*
X360141000Y-104317512D01*
X365324000Y-104317512D01*
X365339117Y-104495675D01*
X365340457Y-104500839D01*
X365340458Y-104500843D01*
X365361711Y-104582724D01*
X365399168Y-104727040D01*
X365401360Y-104731906D01*
X365456845Y-104855077D01*
X365497343Y-104944980D01*
X365630834Y-105143262D01*
X365795826Y-105316218D01*
X365987600Y-105458902D01*
X365992351Y-105461318D01*
X365992355Y-105461320D01*
X366195914Y-105564814D01*
X366200672Y-105567233D01*
X366290721Y-105595194D01*
X366423849Y-105636532D01*
X366423855Y-105636533D01*
X366428952Y-105638116D01*
X366556383Y-105655006D01*
X366660627Y-105668823D01*
X366660631Y-105668823D01*
X366665911Y-105669523D01*
X366671240Y-105669323D01*
X366671241Y-105669323D01*
X366769009Y-105665652D01*
X366904774Y-105660555D01*
X366991684Y-105642319D01*
X367133484Y-105612567D01*
X367133487Y-105612566D01*
X367138711Y-105611470D01*
X367361033Y-105523671D01*
X367565383Y-105399668D01*
X367745919Y-105243007D01*
X367749302Y-105238881D01*
X367749306Y-105238877D01*
X367887608Y-105070204D01*
X367897478Y-105058167D01*
X367954554Y-104957900D01*
X368824000Y-104957900D01*
X368834974Y-105063666D01*
X368890950Y-105231446D01*
X368984022Y-105381848D01*
X369109197Y-105506805D01*
X369115427Y-105510645D01*
X369115428Y-105510646D01*
X369252590Y-105595194D01*
X369259762Y-105599615D01*
X369339505Y-105626064D01*
X369421111Y-105653132D01*
X369421113Y-105653132D01*
X369427639Y-105655297D01*
X369434475Y-105655997D01*
X369434478Y-105655998D01*
X369477531Y-105660409D01*
X369532100Y-105666000D01*
X370932900Y-105666000D01*
X370936146Y-105665663D01*
X370936150Y-105665663D01*
X371031808Y-105655738D01*
X371031812Y-105655737D01*
X371038666Y-105655026D01*
X371045202Y-105652845D01*
X371045204Y-105652845D01*
X371177306Y-105608772D01*
X371206446Y-105599050D01*
X371356848Y-105505978D01*
X371481805Y-105380803D01*
X371521616Y-105316218D01*
X371570775Y-105236468D01*
X371570776Y-105236466D01*
X371574615Y-105230238D01*
X371602184Y-105147121D01*
X371628132Y-105068889D01*
X371628132Y-105068887D01*
X371630297Y-105062361D01*
X371641000Y-104957900D01*
X371641000Y-104317512D01*
X376824000Y-104317512D01*
X376839117Y-104495675D01*
X376840457Y-104500839D01*
X376840458Y-104500843D01*
X376861711Y-104582724D01*
X376899168Y-104727040D01*
X376901360Y-104731906D01*
X376956845Y-104855077D01*
X376997343Y-104944980D01*
X377130834Y-105143262D01*
X377295826Y-105316218D01*
X377487600Y-105458902D01*
X377492351Y-105461318D01*
X377492355Y-105461320D01*
X377695914Y-105564814D01*
X377700672Y-105567233D01*
X377790721Y-105595194D01*
X377923849Y-105636532D01*
X377923855Y-105636533D01*
X377928952Y-105638116D01*
X378056383Y-105655006D01*
X378160627Y-105668823D01*
X378160631Y-105668823D01*
X378165911Y-105669523D01*
X378171240Y-105669323D01*
X378171241Y-105669323D01*
X378269009Y-105665652D01*
X378404774Y-105660555D01*
X378491684Y-105642319D01*
X378633484Y-105612567D01*
X378633487Y-105612566D01*
X378638711Y-105611470D01*
X378861033Y-105523671D01*
X379065383Y-105399668D01*
X379245919Y-105243007D01*
X379249302Y-105238881D01*
X379249306Y-105238877D01*
X379387608Y-105070204D01*
X379397478Y-105058167D01*
X379454554Y-104957900D01*
X380324000Y-104957900D01*
X380334974Y-105063666D01*
X380390950Y-105231446D01*
X380484022Y-105381848D01*
X380609197Y-105506805D01*
X380615427Y-105510645D01*
X380615428Y-105510646D01*
X380752590Y-105595194D01*
X380759762Y-105599615D01*
X380839505Y-105626064D01*
X380921111Y-105653132D01*
X380921113Y-105653132D01*
X380927639Y-105655297D01*
X380934475Y-105655997D01*
X380934478Y-105655998D01*
X380977531Y-105660409D01*
X381032100Y-105666000D01*
X382432900Y-105666000D01*
X382436146Y-105665663D01*
X382436150Y-105665663D01*
X382531808Y-105655738D01*
X382531812Y-105655737D01*
X382538666Y-105655026D01*
X382545202Y-105652845D01*
X382545204Y-105652845D01*
X382677306Y-105608772D01*
X382706446Y-105599050D01*
X382856848Y-105505978D01*
X382981805Y-105380803D01*
X383021616Y-105316218D01*
X383070775Y-105236468D01*
X383070776Y-105236466D01*
X383074615Y-105230238D01*
X383102184Y-105147121D01*
X383128132Y-105068889D01*
X383128132Y-105068887D01*
X383130297Y-105062361D01*
X383141000Y-104957900D01*
X383141000Y-102738713D01*
X389278493Y-102738713D01*
X389287789Y-102750728D01*
X389338994Y-102786582D01*
X389348489Y-102792065D01*
X389545947Y-102884141D01*
X389556239Y-102887887D01*
X389766688Y-102944276D01*
X389777481Y-102946179D01*
X389994525Y-102965168D01*
X390005475Y-102965168D01*
X390222519Y-102946179D01*
X390233312Y-102944276D01*
X390443761Y-102887887D01*
X390454053Y-102884141D01*
X390651511Y-102792065D01*
X390661006Y-102786582D01*
X390713048Y-102750142D01*
X390721424Y-102739663D01*
X390714356Y-102726217D01*
X390392132Y-102403993D01*
X395662000Y-102403993D01*
X395662139Y-102408182D01*
X395676549Y-102625132D01*
X395677653Y-102633403D01*
X395735290Y-102919251D01*
X395737478Y-102927303D01*
X395832409Y-103203005D01*
X395835650Y-103210716D01*
X395966213Y-103471444D01*
X395970434Y-103478638D01*
X396134341Y-103719820D01*
X396139474Y-103726390D01*
X396333839Y-103943775D01*
X396339795Y-103949608D01*
X396561203Y-104139378D01*
X396567884Y-104144376D01*
X396812437Y-104303191D01*
X396819727Y-104307265D01*
X397083132Y-104432338D01*
X397090900Y-104435414D01*
X397368531Y-104524552D01*
X397376637Y-104526573D01*
X397648170Y-104575429D01*
X397661429Y-104573997D01*
X397666000Y-104559387D01*
X397666000Y-104556367D01*
X398174000Y-104556367D01*
X398178295Y-104570996D01*
X398190272Y-104573058D01*
X398262053Y-104566778D01*
X398270292Y-104565503D01*
X398554880Y-104501890D01*
X398562877Y-104499536D01*
X398836534Y-104398850D01*
X398844172Y-104395450D01*
X399102115Y-104259451D01*
X399109213Y-104255084D01*
X399346905Y-104086165D01*
X399353372Y-104080892D01*
X399566639Y-103882017D01*
X399572351Y-103875933D01*
X399757437Y-103650607D01*
X399762292Y-103643826D01*
X399915958Y-103395987D01*
X399919871Y-103388627D01*
X400039404Y-103122654D01*
X400042314Y-103114831D01*
X400125624Y-102835375D01*
X400127469Y-102827254D01*
X400173191Y-102538571D01*
X400173899Y-102531597D01*
X400177936Y-102442714D01*
X400178000Y-102439881D01*
X400178000Y-102403993D01*
X405822000Y-102403993D01*
X405822139Y-102408182D01*
X405836549Y-102625132D01*
X405837653Y-102633403D01*
X405895290Y-102919251D01*
X405897478Y-102927303D01*
X405992409Y-103203005D01*
X405995650Y-103210716D01*
X406126213Y-103471444D01*
X406130434Y-103478638D01*
X406294341Y-103719820D01*
X406299474Y-103726390D01*
X406493839Y-103943775D01*
X406499795Y-103949608D01*
X406721203Y-104139378D01*
X406727884Y-104144376D01*
X406972437Y-104303191D01*
X406979727Y-104307265D01*
X407243132Y-104432338D01*
X407250900Y-104435414D01*
X407528531Y-104524552D01*
X407536637Y-104526573D01*
X407808170Y-104575429D01*
X407821429Y-104573997D01*
X407826000Y-104559387D01*
X407826000Y-104556367D01*
X408334000Y-104556367D01*
X408338295Y-104570996D01*
X408350272Y-104573058D01*
X408422053Y-104566778D01*
X408430292Y-104565503D01*
X408714880Y-104501890D01*
X408722877Y-104499536D01*
X408996534Y-104398850D01*
X409004172Y-104395450D01*
X409262115Y-104259451D01*
X409269213Y-104255084D01*
X409506905Y-104086165D01*
X409513372Y-104080892D01*
X409726639Y-103882017D01*
X409732351Y-103875933D01*
X409917437Y-103650607D01*
X409922292Y-103643826D01*
X410075958Y-103395987D01*
X410079871Y-103388627D01*
X410199404Y-103122654D01*
X410202314Y-103114831D01*
X410285624Y-102835375D01*
X410287469Y-102827254D01*
X410333191Y-102538571D01*
X410333899Y-102531597D01*
X410337936Y-102442714D01*
X410338000Y-102439881D01*
X410338000Y-100852115D01*
X410333525Y-100836876D01*
X410332135Y-100835671D01*
X410324452Y-100834000D01*
X408352115Y-100834000D01*
X408336876Y-100838475D01*
X408335671Y-100839865D01*
X408334000Y-100847548D01*
X408334000Y-104556367D01*
X407826000Y-104556367D01*
X407826000Y-100852115D01*
X407821525Y-100836876D01*
X407820135Y-100835671D01*
X407812452Y-100834000D01*
X405840115Y-100834000D01*
X405824876Y-100838475D01*
X405823671Y-100839865D01*
X405822000Y-100847548D01*
X405822000Y-102403993D01*
X400178000Y-102403993D01*
X400178000Y-100852115D01*
X400173525Y-100836876D01*
X400172135Y-100835671D01*
X400164452Y-100834000D01*
X398192115Y-100834000D01*
X398176876Y-100838475D01*
X398175671Y-100839865D01*
X398174000Y-100847548D01*
X398174000Y-104556367D01*
X397666000Y-104556367D01*
X397666000Y-100852115D01*
X397661525Y-100836876D01*
X397660135Y-100835671D01*
X397652452Y-100834000D01*
X395680115Y-100834000D01*
X395664876Y-100838475D01*
X395663671Y-100839865D01*
X395662000Y-100847548D01*
X395662000Y-102403993D01*
X390392132Y-102403993D01*
X390012812Y-102024673D01*
X389998868Y-102017059D01*
X389997035Y-102017190D01*
X389990420Y-102021441D01*
X389284923Y-102726938D01*
X389278493Y-102738713D01*
X383141000Y-102738713D01*
X383141000Y-101757100D01*
X383130731Y-101658126D01*
X388687483Y-101658126D01*
X388706472Y-101875170D01*
X388708375Y-101885963D01*
X388764764Y-102096412D01*
X388768510Y-102106704D01*
X388860586Y-102304162D01*
X388866069Y-102313657D01*
X388902509Y-102365699D01*
X388912988Y-102374075D01*
X388926434Y-102367007D01*
X389627978Y-101665463D01*
X389634356Y-101653783D01*
X390364408Y-101653783D01*
X390364539Y-101655616D01*
X390368790Y-101662231D01*
X391074287Y-102367728D01*
X391086062Y-102374158D01*
X391098077Y-102364862D01*
X391133931Y-102313657D01*
X391139414Y-102304162D01*
X391231490Y-102106704D01*
X391235236Y-102096412D01*
X391291625Y-101885963D01*
X391293528Y-101875170D01*
X391312517Y-101658126D01*
X391312517Y-101647176D01*
X391293528Y-101430132D01*
X391291625Y-101419339D01*
X391235236Y-101208890D01*
X391231490Y-101198598D01*
X391139414Y-101001140D01*
X391133931Y-100991645D01*
X391097491Y-100939603D01*
X391087012Y-100931227D01*
X391073566Y-100938295D01*
X390372022Y-101639839D01*
X390364408Y-101653783D01*
X389634356Y-101653783D01*
X389635592Y-101651519D01*
X389635461Y-101649686D01*
X389631210Y-101643071D01*
X388925713Y-100937574D01*
X388913938Y-100931144D01*
X388901923Y-100940440D01*
X388866069Y-100991645D01*
X388860586Y-101001140D01*
X388768510Y-101198598D01*
X388764764Y-101208890D01*
X388708375Y-101419339D01*
X388706472Y-101430132D01*
X388687483Y-101647176D01*
X388687483Y-101658126D01*
X383130731Y-101658126D01*
X383130026Y-101651334D01*
X383074050Y-101483554D01*
X382980978Y-101333152D01*
X382855803Y-101208195D01*
X382832934Y-101194098D01*
X382711468Y-101119225D01*
X382711466Y-101119224D01*
X382705238Y-101115385D01*
X382593936Y-101078468D01*
X382543889Y-101061868D01*
X382543887Y-101061868D01*
X382537361Y-101059703D01*
X382530525Y-101059003D01*
X382530522Y-101059002D01*
X382484091Y-101054245D01*
X382432900Y-101049000D01*
X381032100Y-101049000D01*
X381028854Y-101049337D01*
X381028850Y-101049337D01*
X380933192Y-101059262D01*
X380933188Y-101059263D01*
X380926334Y-101059974D01*
X380919798Y-101062155D01*
X380919796Y-101062155D01*
X380799069Y-101102433D01*
X380758554Y-101115950D01*
X380608152Y-101209022D01*
X380483195Y-101334197D01*
X380479355Y-101340427D01*
X380479354Y-101340428D01*
X380424060Y-101430132D01*
X380390385Y-101484762D01*
X380388081Y-101491709D01*
X380337877Y-101643071D01*
X380334703Y-101652639D01*
X380324000Y-101757100D01*
X380324000Y-104957900D01*
X379454554Y-104957900D01*
X379515727Y-104850434D01*
X379597284Y-104625747D01*
X379607185Y-104570996D01*
X379639080Y-104394615D01*
X379639081Y-104394607D01*
X379639818Y-104390531D01*
X379641000Y-104365468D01*
X379641000Y-102397488D01*
X379625883Y-102219325D01*
X379624542Y-102214157D01*
X379567173Y-101993125D01*
X379567171Y-101993120D01*
X379565832Y-101987960D01*
X379510247Y-101864566D01*
X379469847Y-101774881D01*
X379469846Y-101774878D01*
X379467657Y-101770020D01*
X379334166Y-101571738D01*
X379169174Y-101398782D01*
X378977400Y-101256098D01*
X378972649Y-101253682D01*
X378972645Y-101253680D01*
X378769086Y-101150186D01*
X378769085Y-101150186D01*
X378764328Y-101147767D01*
X378621862Y-101103530D01*
X378541151Y-101078468D01*
X378541145Y-101078467D01*
X378536048Y-101076884D01*
X378401132Y-101059002D01*
X378304373Y-101046177D01*
X378304369Y-101046177D01*
X378299089Y-101045477D01*
X378293760Y-101045677D01*
X378293759Y-101045677D01*
X378196517Y-101049328D01*
X378060226Y-101054445D01*
X377973316Y-101072681D01*
X377831516Y-101102433D01*
X377831513Y-101102434D01*
X377826289Y-101103530D01*
X377603967Y-101191329D01*
X377399617Y-101315332D01*
X377395587Y-101318829D01*
X377267322Y-101430132D01*
X377219081Y-101471993D01*
X377215698Y-101476119D01*
X377215694Y-101476123D01*
X377137295Y-101571738D01*
X377067522Y-101656833D01*
X376949273Y-101864566D01*
X376867716Y-102089253D01*
X376866767Y-102094502D01*
X376866766Y-102094505D01*
X376825920Y-102320385D01*
X376825919Y-102320393D01*
X376825182Y-102324469D01*
X376824000Y-102349532D01*
X376824000Y-104317512D01*
X371641000Y-104317512D01*
X371641000Y-101757100D01*
X371630026Y-101651334D01*
X371574050Y-101483554D01*
X371480978Y-101333152D01*
X371355803Y-101208195D01*
X371332934Y-101194098D01*
X371211468Y-101119225D01*
X371211466Y-101119224D01*
X371205238Y-101115385D01*
X371093936Y-101078468D01*
X371043889Y-101061868D01*
X371043887Y-101061868D01*
X371037361Y-101059703D01*
X371030525Y-101059003D01*
X371030522Y-101059002D01*
X370984091Y-101054245D01*
X370932900Y-101049000D01*
X369532100Y-101049000D01*
X369528854Y-101049337D01*
X369528850Y-101049337D01*
X369433192Y-101059262D01*
X369433188Y-101059263D01*
X369426334Y-101059974D01*
X369419798Y-101062155D01*
X369419796Y-101062155D01*
X369299069Y-101102433D01*
X369258554Y-101115950D01*
X369108152Y-101209022D01*
X368983195Y-101334197D01*
X368979355Y-101340427D01*
X368979354Y-101340428D01*
X368924060Y-101430132D01*
X368890385Y-101484762D01*
X368888081Y-101491709D01*
X368837877Y-101643071D01*
X368834703Y-101652639D01*
X368824000Y-101757100D01*
X368824000Y-104957900D01*
X367954554Y-104957900D01*
X368015727Y-104850434D01*
X368097284Y-104625747D01*
X368107185Y-104570996D01*
X368139080Y-104394615D01*
X368139081Y-104394607D01*
X368139818Y-104390531D01*
X368141000Y-104365468D01*
X368141000Y-102397488D01*
X368125883Y-102219325D01*
X368124542Y-102214157D01*
X368067173Y-101993125D01*
X368067171Y-101993120D01*
X368065832Y-101987960D01*
X368010247Y-101864566D01*
X367969847Y-101774881D01*
X367969846Y-101774878D01*
X367967657Y-101770020D01*
X367834166Y-101571738D01*
X367669174Y-101398782D01*
X367477400Y-101256098D01*
X367472649Y-101253682D01*
X367472645Y-101253680D01*
X367269086Y-101150186D01*
X367269085Y-101150186D01*
X367264328Y-101147767D01*
X367121862Y-101103530D01*
X367041151Y-101078468D01*
X367041145Y-101078467D01*
X367036048Y-101076884D01*
X366901132Y-101059002D01*
X366804373Y-101046177D01*
X366804369Y-101046177D01*
X366799089Y-101045477D01*
X366793760Y-101045677D01*
X366793759Y-101045677D01*
X366696517Y-101049328D01*
X366560226Y-101054445D01*
X366473316Y-101072681D01*
X366331516Y-101102433D01*
X366331513Y-101102434D01*
X366326289Y-101103530D01*
X366103967Y-101191329D01*
X365899617Y-101315332D01*
X365895587Y-101318829D01*
X365767322Y-101430132D01*
X365719081Y-101471993D01*
X365715698Y-101476119D01*
X365715694Y-101476123D01*
X365637295Y-101571738D01*
X365567522Y-101656833D01*
X365449273Y-101864566D01*
X365367716Y-102089253D01*
X365366767Y-102094502D01*
X365366766Y-102094505D01*
X365325920Y-102320385D01*
X365325919Y-102320393D01*
X365325182Y-102324469D01*
X365324000Y-102349532D01*
X365324000Y-104317512D01*
X360141000Y-104317512D01*
X360141000Y-101757100D01*
X360130026Y-101651334D01*
X360074050Y-101483554D01*
X359980978Y-101333152D01*
X359855803Y-101208195D01*
X359832934Y-101194098D01*
X359711468Y-101119225D01*
X359711466Y-101119224D01*
X359705238Y-101115385D01*
X359593936Y-101078468D01*
X359543889Y-101061868D01*
X359543887Y-101061868D01*
X359537361Y-101059703D01*
X359530525Y-101059003D01*
X359530522Y-101059002D01*
X359484091Y-101054245D01*
X359432900Y-101049000D01*
X358032100Y-101049000D01*
X358028854Y-101049337D01*
X358028850Y-101049337D01*
X357933192Y-101059262D01*
X357933188Y-101059263D01*
X357926334Y-101059974D01*
X357919798Y-101062155D01*
X357919796Y-101062155D01*
X357799069Y-101102433D01*
X357758554Y-101115950D01*
X357608152Y-101209022D01*
X357483195Y-101334197D01*
X357479355Y-101340427D01*
X357479354Y-101340428D01*
X357424060Y-101430132D01*
X357390385Y-101484762D01*
X357388081Y-101491709D01*
X357337877Y-101643071D01*
X357334703Y-101652639D01*
X357324000Y-101757100D01*
X357324000Y-104957900D01*
X356454554Y-104957900D01*
X356515727Y-104850434D01*
X356597284Y-104625747D01*
X356607185Y-104570996D01*
X356639080Y-104394615D01*
X356639081Y-104394607D01*
X356639818Y-104390531D01*
X356641000Y-104365468D01*
X356641000Y-102397488D01*
X356625883Y-102219325D01*
X356624542Y-102214157D01*
X356567173Y-101993125D01*
X356567171Y-101993120D01*
X356565832Y-101987960D01*
X356510247Y-101864566D01*
X356469847Y-101774881D01*
X356469846Y-101774878D01*
X356467657Y-101770020D01*
X356334166Y-101571738D01*
X356169174Y-101398782D01*
X355977400Y-101256098D01*
X355972649Y-101253682D01*
X355972645Y-101253680D01*
X355769086Y-101150186D01*
X355769085Y-101150186D01*
X355764328Y-101147767D01*
X355621862Y-101103530D01*
X355541151Y-101078468D01*
X355541145Y-101078467D01*
X355536048Y-101076884D01*
X355401132Y-101059002D01*
X355304373Y-101046177D01*
X355304369Y-101046177D01*
X355299089Y-101045477D01*
X355293760Y-101045677D01*
X355293759Y-101045677D01*
X355196517Y-101049328D01*
X355060226Y-101054445D01*
X354973316Y-101072681D01*
X354831516Y-101102433D01*
X354831513Y-101102434D01*
X354826289Y-101103530D01*
X354603967Y-101191329D01*
X354399617Y-101315332D01*
X354395587Y-101318829D01*
X354267322Y-101430132D01*
X354219081Y-101471993D01*
X354215698Y-101476119D01*
X354215694Y-101476123D01*
X354137295Y-101571738D01*
X354067522Y-101656833D01*
X353949273Y-101864566D01*
X353867716Y-102089253D01*
X353866767Y-102094502D01*
X353866766Y-102094505D01*
X353825920Y-102320385D01*
X353825919Y-102320393D01*
X353825182Y-102324469D01*
X353824000Y-102349532D01*
X353824000Y-104317512D01*
X348641000Y-104317512D01*
X348641000Y-101757100D01*
X348630026Y-101651334D01*
X348574050Y-101483554D01*
X348480978Y-101333152D01*
X348355803Y-101208195D01*
X348332934Y-101194098D01*
X348211468Y-101119225D01*
X348211466Y-101119224D01*
X348205238Y-101115385D01*
X348093936Y-101078468D01*
X348043889Y-101061868D01*
X348043887Y-101061868D01*
X348037361Y-101059703D01*
X348030525Y-101059003D01*
X348030522Y-101059002D01*
X347984091Y-101054245D01*
X347932900Y-101049000D01*
X346532100Y-101049000D01*
X346528854Y-101049337D01*
X346528850Y-101049337D01*
X346433192Y-101059262D01*
X346433188Y-101059263D01*
X346426334Y-101059974D01*
X346419798Y-101062155D01*
X346419796Y-101062155D01*
X346299069Y-101102433D01*
X346258554Y-101115950D01*
X346108152Y-101209022D01*
X345983195Y-101334197D01*
X345979355Y-101340427D01*
X345979354Y-101340428D01*
X345924060Y-101430132D01*
X345890385Y-101484762D01*
X345888081Y-101491709D01*
X345837877Y-101643071D01*
X345834703Y-101652639D01*
X345824000Y-101757100D01*
X345824000Y-104957900D01*
X344954554Y-104957900D01*
X345015727Y-104850434D01*
X345097284Y-104625747D01*
X345107185Y-104570996D01*
X345139080Y-104394615D01*
X345139081Y-104394607D01*
X345139818Y-104390531D01*
X345141000Y-104365468D01*
X345141000Y-102397488D01*
X345125883Y-102219325D01*
X345124542Y-102214157D01*
X345067173Y-101993125D01*
X345067171Y-101993120D01*
X345065832Y-101987960D01*
X345010247Y-101864566D01*
X344969847Y-101774881D01*
X344969846Y-101774878D01*
X344967657Y-101770020D01*
X344834166Y-101571738D01*
X344669174Y-101398782D01*
X344477400Y-101256098D01*
X344472649Y-101253682D01*
X344472645Y-101253680D01*
X344269086Y-101150186D01*
X344269085Y-101150186D01*
X344264328Y-101147767D01*
X344121862Y-101103530D01*
X344041151Y-101078468D01*
X344041145Y-101078467D01*
X344036048Y-101076884D01*
X343901132Y-101059002D01*
X343804373Y-101046177D01*
X343804369Y-101046177D01*
X343799089Y-101045477D01*
X343793760Y-101045677D01*
X343793759Y-101045677D01*
X343696517Y-101049328D01*
X343560226Y-101054445D01*
X343473316Y-101072681D01*
X343331516Y-101102433D01*
X343331513Y-101102434D01*
X343326289Y-101103530D01*
X343103967Y-101191329D01*
X342899617Y-101315332D01*
X342895587Y-101318829D01*
X342767322Y-101430132D01*
X342719081Y-101471993D01*
X342715698Y-101476119D01*
X342715694Y-101476123D01*
X342637295Y-101571738D01*
X342567522Y-101656833D01*
X342449273Y-101864566D01*
X342367716Y-102089253D01*
X342366767Y-102094502D01*
X342366766Y-102094505D01*
X342325920Y-102320385D01*
X342325919Y-102320393D01*
X342325182Y-102324469D01*
X342324000Y-102349532D01*
X342324000Y-104317512D01*
X337141000Y-104317512D01*
X337141000Y-101757100D01*
X337130026Y-101651334D01*
X337074050Y-101483554D01*
X336980978Y-101333152D01*
X336855803Y-101208195D01*
X336832934Y-101194098D01*
X336711468Y-101119225D01*
X336711466Y-101119224D01*
X336705238Y-101115385D01*
X336593936Y-101078468D01*
X336543889Y-101061868D01*
X336543887Y-101061868D01*
X336537361Y-101059703D01*
X336530525Y-101059003D01*
X336530522Y-101059002D01*
X336484091Y-101054245D01*
X336432900Y-101049000D01*
X335032100Y-101049000D01*
X335028854Y-101049337D01*
X335028850Y-101049337D01*
X334933192Y-101059262D01*
X334933188Y-101059263D01*
X334926334Y-101059974D01*
X334919798Y-101062155D01*
X334919796Y-101062155D01*
X334799069Y-101102433D01*
X334758554Y-101115950D01*
X334608152Y-101209022D01*
X334483195Y-101334197D01*
X334479355Y-101340427D01*
X334479354Y-101340428D01*
X334424060Y-101430132D01*
X334390385Y-101484762D01*
X334388081Y-101491709D01*
X334337877Y-101643071D01*
X334334703Y-101652639D01*
X334324000Y-101757100D01*
X334324000Y-104957900D01*
X333454554Y-104957900D01*
X333515727Y-104850434D01*
X333597284Y-104625747D01*
X333607185Y-104570996D01*
X333639080Y-104394615D01*
X333639081Y-104394607D01*
X333639818Y-104390531D01*
X333641000Y-104365468D01*
X333641000Y-102397488D01*
X333625883Y-102219325D01*
X333624542Y-102214157D01*
X333567173Y-101993125D01*
X333567171Y-101993120D01*
X333565832Y-101987960D01*
X333510247Y-101864566D01*
X333469847Y-101774881D01*
X333469846Y-101774878D01*
X333467657Y-101770020D01*
X333334166Y-101571738D01*
X333169174Y-101398782D01*
X332977400Y-101256098D01*
X332972649Y-101253682D01*
X332972645Y-101253680D01*
X332769086Y-101150186D01*
X332769085Y-101150186D01*
X332764328Y-101147767D01*
X332621862Y-101103530D01*
X332541151Y-101078468D01*
X332541145Y-101078467D01*
X332536048Y-101076884D01*
X332401132Y-101059002D01*
X332304373Y-101046177D01*
X332304369Y-101046177D01*
X332299089Y-101045477D01*
X332293760Y-101045677D01*
X332293759Y-101045677D01*
X332196517Y-101049328D01*
X332060226Y-101054445D01*
X331973316Y-101072681D01*
X331831516Y-101102433D01*
X331831513Y-101102434D01*
X331826289Y-101103530D01*
X331603967Y-101191329D01*
X331399617Y-101315332D01*
X331395587Y-101318829D01*
X331267322Y-101430132D01*
X331219081Y-101471993D01*
X331215698Y-101476119D01*
X331215694Y-101476123D01*
X331137295Y-101571738D01*
X331067522Y-101656833D01*
X330949273Y-101864566D01*
X330867716Y-102089253D01*
X330866767Y-102094502D01*
X330866766Y-102094505D01*
X330825920Y-102320385D01*
X330825919Y-102320393D01*
X330825182Y-102324469D01*
X330824000Y-102349532D01*
X330824000Y-104317512D01*
X329070932Y-104317512D01*
X329107553Y-104186351D01*
X329108909Y-104180380D01*
X329179322Y-103781056D01*
X329180089Y-103774982D01*
X329211282Y-103369591D01*
X329211459Y-103365676D01*
X329213047Y-103251974D01*
X329212979Y-103248030D01*
X329193118Y-102841949D01*
X329192517Y-102835825D01*
X329133290Y-102434737D01*
X329132090Y-102428675D01*
X329034007Y-102035289D01*
X329032222Y-102029374D01*
X328896214Y-101647421D01*
X328893871Y-101641737D01*
X328721236Y-101274869D01*
X328718347Y-101269435D01*
X328510740Y-100921171D01*
X328507332Y-100916041D01*
X328266722Y-100589686D01*
X328262842Y-100584929D01*
X328245473Y-100565639D01*
X389278576Y-100565639D01*
X389285644Y-100579085D01*
X389987188Y-101280629D01*
X390001132Y-101288243D01*
X390002965Y-101288112D01*
X390009580Y-101283861D01*
X390715077Y-100578364D01*
X390721507Y-100566589D01*
X390712211Y-100554574D01*
X390661006Y-100518720D01*
X390651511Y-100513237D01*
X390454053Y-100421161D01*
X390443761Y-100417415D01*
X390233312Y-100361026D01*
X390222519Y-100359123D01*
X390005475Y-100340134D01*
X389994525Y-100340134D01*
X389777481Y-100359123D01*
X389766688Y-100361026D01*
X389556239Y-100417415D01*
X389545947Y-100421161D01*
X389348489Y-100513237D01*
X389338994Y-100518720D01*
X389286952Y-100555160D01*
X389278576Y-100565639D01*
X328245473Y-100565639D01*
X328161935Y-100472859D01*
X328148413Y-100464528D01*
X328148337Y-100464529D01*
X328139053Y-100470158D01*
X325372022Y-103237188D01*
X325364408Y-103251132D01*
X324641922Y-103251132D01*
X324640790Y-103250000D01*
X321862374Y-100471585D01*
X321848430Y-100463971D01*
X321847885Y-100464010D01*
X321839525Y-100469612D01*
X321774692Y-100539625D01*
X321770734Y-100544342D01*
X321734863Y-100591601D01*
X321677745Y-100633768D01*
X321606897Y-100638361D01*
X321544813Y-100603922D01*
X321511204Y-100541385D01*
X321508500Y-100515422D01*
X321508500Y-100101641D01*
X322214661Y-100101641D01*
X322220411Y-100111200D01*
X324987188Y-102877978D01*
X325001132Y-102885592D01*
X325002965Y-102885461D01*
X325009580Y-102881210D01*
X327582904Y-100307885D01*
X395662000Y-100307885D01*
X395666475Y-100323124D01*
X395667865Y-100324329D01*
X395675548Y-100326000D01*
X397647885Y-100326000D01*
X397663124Y-100321525D01*
X397664329Y-100320135D01*
X397666000Y-100312452D01*
X397666000Y-100307885D01*
X398174000Y-100307885D01*
X398178475Y-100323124D01*
X398179865Y-100324329D01*
X398187548Y-100326000D01*
X400159885Y-100326000D01*
X400175124Y-100321525D01*
X400176329Y-100320135D01*
X400178000Y-100312452D01*
X400178000Y-100307885D01*
X405822000Y-100307885D01*
X405826475Y-100323124D01*
X405827865Y-100324329D01*
X405835548Y-100326000D01*
X407807885Y-100326000D01*
X407823124Y-100321525D01*
X407824329Y-100320135D01*
X407826000Y-100312452D01*
X407826000Y-100307885D01*
X408334000Y-100307885D01*
X408338475Y-100323124D01*
X408339865Y-100324329D01*
X408347548Y-100326000D01*
X410319885Y-100326000D01*
X410335124Y-100321525D01*
X410336329Y-100320135D01*
X410338000Y-100312452D01*
X410338000Y-98756007D01*
X410337861Y-98751818D01*
X410323451Y-98534868D01*
X410322347Y-98526597D01*
X410264710Y-98240749D01*
X410262522Y-98232697D01*
X410167591Y-97956995D01*
X410164350Y-97949284D01*
X410033787Y-97688556D01*
X410029566Y-97681362D01*
X409865659Y-97440180D01*
X409860526Y-97433610D01*
X409666161Y-97216225D01*
X409660205Y-97210392D01*
X409438797Y-97020622D01*
X409432116Y-97015624D01*
X409187563Y-96856809D01*
X409180273Y-96852735D01*
X408916868Y-96727662D01*
X408909100Y-96724586D01*
X408631469Y-96635448D01*
X408623363Y-96633427D01*
X408351830Y-96584571D01*
X408338571Y-96586003D01*
X408334000Y-96600613D01*
X408334000Y-100307885D01*
X407826000Y-100307885D01*
X407826000Y-96603633D01*
X407821705Y-96589004D01*
X407809728Y-96586942D01*
X407737947Y-96593222D01*
X407729708Y-96594497D01*
X407445120Y-96658110D01*
X407437123Y-96660464D01*
X407163466Y-96761150D01*
X407155828Y-96764550D01*
X406897885Y-96900549D01*
X406890787Y-96904916D01*
X406653095Y-97073835D01*
X406646628Y-97079108D01*
X406433361Y-97277983D01*
X406427649Y-97284067D01*
X406242563Y-97509393D01*
X406237708Y-97516174D01*
X406084042Y-97764013D01*
X406080129Y-97771373D01*
X405960596Y-98037346D01*
X405957686Y-98045169D01*
X405874376Y-98324625D01*
X405872531Y-98332746D01*
X405826809Y-98621429D01*
X405826101Y-98628403D01*
X405822064Y-98717286D01*
X405822000Y-98720119D01*
X405822000Y-100307885D01*
X400178000Y-100307885D01*
X400178000Y-98756007D01*
X400177861Y-98751818D01*
X400163451Y-98534868D01*
X400162347Y-98526597D01*
X400104710Y-98240749D01*
X400102522Y-98232697D01*
X400007591Y-97956995D01*
X400004350Y-97949284D01*
X399873787Y-97688556D01*
X399869566Y-97681362D01*
X399705659Y-97440180D01*
X399700526Y-97433610D01*
X399506161Y-97216225D01*
X399500205Y-97210392D01*
X399278797Y-97020622D01*
X399272116Y-97015624D01*
X399027563Y-96856809D01*
X399020273Y-96852735D01*
X398756868Y-96727662D01*
X398749100Y-96724586D01*
X398471469Y-96635448D01*
X398463363Y-96633427D01*
X398191830Y-96584571D01*
X398178571Y-96586003D01*
X398174000Y-96600613D01*
X398174000Y-100307885D01*
X397666000Y-100307885D01*
X397666000Y-96603633D01*
X397661705Y-96589004D01*
X397649728Y-96586942D01*
X397577947Y-96593222D01*
X397569708Y-96594497D01*
X397285120Y-96658110D01*
X397277123Y-96660464D01*
X397003466Y-96761150D01*
X396995828Y-96764550D01*
X396737885Y-96900549D01*
X396730787Y-96904916D01*
X396493095Y-97073835D01*
X396486628Y-97079108D01*
X396273361Y-97277983D01*
X396267649Y-97284067D01*
X396082563Y-97509393D01*
X396077708Y-97516174D01*
X395924042Y-97764013D01*
X395920129Y-97771373D01*
X395800596Y-98037346D01*
X395797686Y-98045169D01*
X395714376Y-98324625D01*
X395712531Y-98332746D01*
X395666809Y-98621429D01*
X395666101Y-98628403D01*
X395662064Y-98717286D01*
X395662000Y-98720119D01*
X395662000Y-100307885D01*
X327582904Y-100307885D01*
X327778030Y-100112759D01*
X327785644Y-100098815D01*
X327785622Y-100098505D01*
X327779769Y-100089836D01*
X327687789Y-100005846D01*
X327683051Y-100001927D01*
X327358391Y-99759050D01*
X327353285Y-99755606D01*
X327006468Y-99545566D01*
X327001072Y-99542649D01*
X326635404Y-99367449D01*
X326629737Y-99365067D01*
X326248739Y-99226396D01*
X326242851Y-99224574D01*
X325850140Y-99123742D01*
X325844117Y-99122506D01*
X325443415Y-99060474D01*
X325437328Y-99059834D01*
X325032483Y-99037200D01*
X325026331Y-99037157D01*
X324621238Y-99054135D01*
X324615112Y-99054692D01*
X324213601Y-99111121D01*
X324207548Y-99112276D01*
X323813463Y-99207615D01*
X323807566Y-99209351D01*
X323424669Y-99342690D01*
X323418956Y-99344998D01*
X323050896Y-99515065D01*
X323045442Y-99517917D01*
X322695731Y-99723091D01*
X322690583Y-99726460D01*
X322362552Y-99964788D01*
X322357782Y-99968623D01*
X322223037Y-100088255D01*
X322214661Y-100101641D01*
X321508500Y-100101641D01*
X321508500Y-98580000D01*
X336436502Y-98580000D01*
X336456457Y-98808087D01*
X336515716Y-99029243D01*
X336518039Y-99034224D01*
X336518039Y-99034225D01*
X336610151Y-99231762D01*
X336610154Y-99231767D01*
X336612477Y-99236749D01*
X336743802Y-99424300D01*
X336905700Y-99586198D01*
X336910208Y-99589355D01*
X336910211Y-99589357D01*
X336988389Y-99644098D01*
X337093251Y-99717523D01*
X337098233Y-99719846D01*
X337098238Y-99719849D01*
X337295775Y-99811961D01*
X337300757Y-99814284D01*
X337306065Y-99815706D01*
X337306067Y-99815707D01*
X337516598Y-99872119D01*
X337516600Y-99872119D01*
X337521913Y-99873543D01*
X337750000Y-99893498D01*
X337978087Y-99873543D01*
X337983400Y-99872119D01*
X337983402Y-99872119D01*
X338193933Y-99815707D01*
X338193935Y-99815706D01*
X338199243Y-99814284D01*
X338204225Y-99811961D01*
X338401762Y-99719849D01*
X338401767Y-99719846D01*
X338406749Y-99717523D01*
X338511611Y-99644098D01*
X338589789Y-99589357D01*
X338589792Y-99589355D01*
X338594300Y-99586198D01*
X338756198Y-99424300D01*
X338887523Y-99236749D01*
X338889846Y-99231767D01*
X338889849Y-99231762D01*
X338981961Y-99034225D01*
X338981961Y-99034224D01*
X338984284Y-99029243D01*
X339043543Y-98808087D01*
X339063498Y-98580000D01*
X347936502Y-98580000D01*
X347956457Y-98808087D01*
X348015716Y-99029243D01*
X348018039Y-99034224D01*
X348018039Y-99034225D01*
X348110151Y-99231762D01*
X348110154Y-99231767D01*
X348112477Y-99236749D01*
X348243802Y-99424300D01*
X348405700Y-99586198D01*
X348410208Y-99589355D01*
X348410211Y-99589357D01*
X348488389Y-99644098D01*
X348593251Y-99717523D01*
X348598233Y-99719846D01*
X348598238Y-99719849D01*
X348795775Y-99811961D01*
X348800757Y-99814284D01*
X348806065Y-99815706D01*
X348806067Y-99815707D01*
X349016598Y-99872119D01*
X349016600Y-99872119D01*
X349021913Y-99873543D01*
X349250000Y-99893498D01*
X349478087Y-99873543D01*
X349483400Y-99872119D01*
X349483402Y-99872119D01*
X349693933Y-99815707D01*
X349693935Y-99815706D01*
X349699243Y-99814284D01*
X349704225Y-99811961D01*
X349901762Y-99719849D01*
X349901767Y-99719846D01*
X349906749Y-99717523D01*
X350011611Y-99644098D01*
X350089789Y-99589357D01*
X350089792Y-99589355D01*
X350094300Y-99586198D01*
X350256198Y-99424300D01*
X350387523Y-99236749D01*
X350389846Y-99231767D01*
X350389849Y-99231762D01*
X350481961Y-99034225D01*
X350481961Y-99034224D01*
X350484284Y-99029243D01*
X350543543Y-98808087D01*
X350563498Y-98580000D01*
X359436502Y-98580000D01*
X359456457Y-98808087D01*
X359515716Y-99029243D01*
X359518039Y-99034224D01*
X359518039Y-99034225D01*
X359610151Y-99231762D01*
X359610154Y-99231767D01*
X359612477Y-99236749D01*
X359743802Y-99424300D01*
X359905700Y-99586198D01*
X359910208Y-99589355D01*
X359910211Y-99589357D01*
X359988389Y-99644098D01*
X360093251Y-99717523D01*
X360098233Y-99719846D01*
X360098238Y-99719849D01*
X360295775Y-99811961D01*
X360300757Y-99814284D01*
X360306065Y-99815706D01*
X360306067Y-99815707D01*
X360516598Y-99872119D01*
X360516600Y-99872119D01*
X360521913Y-99873543D01*
X360750000Y-99893498D01*
X360978087Y-99873543D01*
X360983400Y-99872119D01*
X360983402Y-99872119D01*
X361193933Y-99815707D01*
X361193935Y-99815706D01*
X361199243Y-99814284D01*
X361204225Y-99811961D01*
X361401762Y-99719849D01*
X361401767Y-99719846D01*
X361406749Y-99717523D01*
X361511611Y-99644098D01*
X361589789Y-99589357D01*
X361589792Y-99589355D01*
X361594300Y-99586198D01*
X361756198Y-99424300D01*
X361887523Y-99236749D01*
X361889846Y-99231767D01*
X361889849Y-99231762D01*
X361981961Y-99034225D01*
X361981961Y-99034224D01*
X361984284Y-99029243D01*
X362043543Y-98808087D01*
X362063498Y-98580000D01*
X370936502Y-98580000D01*
X370956457Y-98808087D01*
X371015716Y-99029243D01*
X371018039Y-99034224D01*
X371018039Y-99034225D01*
X371110151Y-99231762D01*
X371110154Y-99231767D01*
X371112477Y-99236749D01*
X371243802Y-99424300D01*
X371405700Y-99586198D01*
X371410208Y-99589355D01*
X371410211Y-99589357D01*
X371488389Y-99644098D01*
X371593251Y-99717523D01*
X371598233Y-99719846D01*
X371598238Y-99719849D01*
X371795775Y-99811961D01*
X371800757Y-99814284D01*
X371806065Y-99815706D01*
X371806067Y-99815707D01*
X372016598Y-99872119D01*
X372016600Y-99872119D01*
X372021913Y-99873543D01*
X372250000Y-99893498D01*
X372478087Y-99873543D01*
X372483400Y-99872119D01*
X372483402Y-99872119D01*
X372693933Y-99815707D01*
X372693935Y-99815706D01*
X372699243Y-99814284D01*
X372704225Y-99811961D01*
X372901762Y-99719849D01*
X372901767Y-99719846D01*
X372906749Y-99717523D01*
X373011611Y-99644098D01*
X373089789Y-99589357D01*
X373089792Y-99589355D01*
X373094300Y-99586198D01*
X373256198Y-99424300D01*
X373387523Y-99236749D01*
X373389846Y-99231767D01*
X373389849Y-99231762D01*
X373481961Y-99034225D01*
X373481961Y-99034224D01*
X373484284Y-99029243D01*
X373543543Y-98808087D01*
X373563498Y-98580000D01*
X382436502Y-98580000D01*
X382456457Y-98808087D01*
X382515716Y-99029243D01*
X382518039Y-99034224D01*
X382518039Y-99034225D01*
X382610151Y-99231762D01*
X382610154Y-99231767D01*
X382612477Y-99236749D01*
X382743802Y-99424300D01*
X382905700Y-99586198D01*
X382910208Y-99589355D01*
X382910211Y-99589357D01*
X382988389Y-99644098D01*
X383093251Y-99717523D01*
X383098233Y-99719846D01*
X383098238Y-99719849D01*
X383295775Y-99811961D01*
X383300757Y-99814284D01*
X383306065Y-99815706D01*
X383306067Y-99815707D01*
X383516598Y-99872119D01*
X383516600Y-99872119D01*
X383521913Y-99873543D01*
X383750000Y-99893498D01*
X383978087Y-99873543D01*
X383983400Y-99872119D01*
X383983402Y-99872119D01*
X384193933Y-99815707D01*
X384193935Y-99815706D01*
X384199243Y-99814284D01*
X384204225Y-99811961D01*
X384401762Y-99719849D01*
X384401767Y-99719846D01*
X384406749Y-99717523D01*
X384511611Y-99644098D01*
X384589789Y-99589357D01*
X384589792Y-99589355D01*
X384594300Y-99586198D01*
X384756198Y-99424300D01*
X384887523Y-99236749D01*
X384889846Y-99231767D01*
X384889849Y-99231762D01*
X384981961Y-99034225D01*
X384981961Y-99034224D01*
X384984284Y-99029243D01*
X385043543Y-98808087D01*
X385063498Y-98580000D01*
X385043543Y-98351913D01*
X385036231Y-98324625D01*
X384985707Y-98136067D01*
X384985706Y-98136065D01*
X384984284Y-98130757D01*
X384962328Y-98083671D01*
X384889849Y-97928238D01*
X384889846Y-97928233D01*
X384887523Y-97923251D01*
X384756198Y-97735700D01*
X384594300Y-97573802D01*
X384589792Y-97570645D01*
X384589789Y-97570643D01*
X384496291Y-97505175D01*
X384406749Y-97442477D01*
X384401767Y-97440154D01*
X384401762Y-97440151D01*
X384204225Y-97348039D01*
X384204224Y-97348039D01*
X384199243Y-97345716D01*
X384193935Y-97344294D01*
X384193933Y-97344293D01*
X383983402Y-97287881D01*
X383983400Y-97287881D01*
X383978087Y-97286457D01*
X383750000Y-97266502D01*
X383521913Y-97286457D01*
X383516600Y-97287881D01*
X383516598Y-97287881D01*
X383306067Y-97344293D01*
X383306065Y-97344294D01*
X383300757Y-97345716D01*
X383295776Y-97348039D01*
X383295775Y-97348039D01*
X383098238Y-97440151D01*
X383098233Y-97440154D01*
X383093251Y-97442477D01*
X383003709Y-97505175D01*
X382910211Y-97570643D01*
X382910208Y-97570645D01*
X382905700Y-97573802D01*
X382743802Y-97735700D01*
X382612477Y-97923251D01*
X382610154Y-97928233D01*
X382610151Y-97928238D01*
X382537672Y-98083671D01*
X382515716Y-98130757D01*
X382514294Y-98136065D01*
X382514293Y-98136067D01*
X382463769Y-98324625D01*
X382456457Y-98351913D01*
X382436502Y-98580000D01*
X373563498Y-98580000D01*
X373543543Y-98351913D01*
X373536231Y-98324625D01*
X373485707Y-98136067D01*
X373485706Y-98136065D01*
X373484284Y-98130757D01*
X373462328Y-98083671D01*
X373389849Y-97928238D01*
X373389846Y-97928233D01*
X373387523Y-97923251D01*
X373256198Y-97735700D01*
X373094300Y-97573802D01*
X373089792Y-97570645D01*
X373089789Y-97570643D01*
X372996291Y-97505175D01*
X372906749Y-97442477D01*
X372901767Y-97440154D01*
X372901762Y-97440151D01*
X372704225Y-97348039D01*
X372704224Y-97348039D01*
X372699243Y-97345716D01*
X372693935Y-97344294D01*
X372693933Y-97344293D01*
X372528630Y-97300000D01*
X374496884Y-97300000D01*
X374515314Y-97510655D01*
X374570044Y-97714910D01*
X374572366Y-97719891D01*
X374572367Y-97719892D01*
X374579739Y-97735700D01*
X374659411Y-97906558D01*
X374780699Y-98079776D01*
X374930224Y-98229301D01*
X375103442Y-98350589D01*
X375108420Y-98352910D01*
X375108423Y-98352912D01*
X375118033Y-98357393D01*
X375295090Y-98439956D01*
X375300398Y-98441378D01*
X375300400Y-98441379D01*
X375494030Y-98493262D01*
X375494032Y-98493262D01*
X375499345Y-98494686D01*
X375710000Y-98513116D01*
X375920655Y-98494686D01*
X375925968Y-98493262D01*
X375925970Y-98493262D01*
X376119600Y-98441379D01*
X376119602Y-98441378D01*
X376124910Y-98439956D01*
X376301967Y-98357393D01*
X376311577Y-98352912D01*
X376311580Y-98352910D01*
X376316558Y-98350589D01*
X376489776Y-98229301D01*
X376639301Y-98079776D01*
X376760589Y-97906558D01*
X376840262Y-97735700D01*
X376847633Y-97719892D01*
X376847634Y-97719891D01*
X376849956Y-97714910D01*
X376904686Y-97510655D01*
X376923116Y-97300000D01*
X379576884Y-97300000D01*
X379595314Y-97510655D01*
X379650044Y-97714910D01*
X379652366Y-97719891D01*
X379652367Y-97719892D01*
X379659739Y-97735700D01*
X379739411Y-97906558D01*
X379860699Y-98079776D01*
X380010224Y-98229301D01*
X380183442Y-98350589D01*
X380188420Y-98352910D01*
X380188423Y-98352912D01*
X380198033Y-98357393D01*
X380375090Y-98439956D01*
X380380398Y-98441378D01*
X380380400Y-98441379D01*
X380574030Y-98493262D01*
X380574032Y-98493262D01*
X380579345Y-98494686D01*
X380790000Y-98513116D01*
X381000655Y-98494686D01*
X381005968Y-98493262D01*
X381005970Y-98493262D01*
X381199600Y-98441379D01*
X381199602Y-98441378D01*
X381204910Y-98439956D01*
X381381967Y-98357393D01*
X381391577Y-98352912D01*
X381391580Y-98352910D01*
X381396558Y-98350589D01*
X381569776Y-98229301D01*
X381719301Y-98079776D01*
X381840589Y-97906558D01*
X381920262Y-97735700D01*
X381927633Y-97719892D01*
X381927634Y-97719891D01*
X381929956Y-97714910D01*
X381984686Y-97510655D01*
X382003116Y-97300000D01*
X381984686Y-97089345D01*
X381949753Y-96958972D01*
X381942904Y-96933411D01*
X389278493Y-96933411D01*
X389287789Y-96945426D01*
X389338994Y-96981280D01*
X389348489Y-96986763D01*
X389545947Y-97078839D01*
X389556239Y-97082585D01*
X389766688Y-97138974D01*
X389777481Y-97140877D01*
X389994525Y-97159866D01*
X390005475Y-97159866D01*
X390222519Y-97140877D01*
X390233312Y-97138974D01*
X390443761Y-97082585D01*
X390454053Y-97078839D01*
X390651511Y-96986763D01*
X390661006Y-96981280D01*
X390713048Y-96944840D01*
X390721424Y-96934361D01*
X390714356Y-96920915D01*
X390012812Y-96219371D01*
X389998868Y-96211757D01*
X389997035Y-96211888D01*
X389990420Y-96216139D01*
X389284923Y-96921636D01*
X389278493Y-96933411D01*
X381942904Y-96933411D01*
X381931379Y-96890400D01*
X381931378Y-96890398D01*
X381929956Y-96885090D01*
X381927633Y-96880108D01*
X381842912Y-96698423D01*
X381842910Y-96698420D01*
X381840589Y-96693442D01*
X381719301Y-96520224D01*
X381569776Y-96370699D01*
X381473394Y-96303212D01*
X381429067Y-96247756D01*
X381421758Y-96177137D01*
X381453789Y-96113776D01*
X381473393Y-96096789D01*
X381569776Y-96029301D01*
X381719301Y-95879776D01*
X381738173Y-95852824D01*
X388687483Y-95852824D01*
X388706472Y-96069868D01*
X388708375Y-96080661D01*
X388764764Y-96291110D01*
X388768510Y-96301402D01*
X388860586Y-96498860D01*
X388866069Y-96508355D01*
X388902509Y-96560397D01*
X388912988Y-96568773D01*
X388926434Y-96561705D01*
X389627978Y-95860161D01*
X389634356Y-95848481D01*
X390364408Y-95848481D01*
X390364539Y-95850314D01*
X390368790Y-95856929D01*
X391074287Y-96562426D01*
X391086062Y-96568856D01*
X391098077Y-96559560D01*
X391133931Y-96508355D01*
X391139414Y-96498860D01*
X391231490Y-96301402D01*
X391235236Y-96291110D01*
X391291625Y-96080661D01*
X391293528Y-96069868D01*
X391299017Y-96007127D01*
X401691500Y-96007127D01*
X401706457Y-96178087D01*
X401707881Y-96183400D01*
X401707881Y-96183402D01*
X401758068Y-96370699D01*
X401765716Y-96399243D01*
X401768039Y-96404224D01*
X401768039Y-96404225D01*
X401860151Y-96601762D01*
X401860154Y-96601767D01*
X401862477Y-96606749D01*
X401993802Y-96794300D01*
X402155700Y-96956198D01*
X402160208Y-96959355D01*
X402160211Y-96959357D01*
X402199351Y-96986763D01*
X402343251Y-97087523D01*
X402348233Y-97089846D01*
X402348238Y-97089849D01*
X402498392Y-97159866D01*
X402550757Y-97184284D01*
X402556065Y-97185706D01*
X402556067Y-97185707D01*
X402766598Y-97242119D01*
X402766600Y-97242119D01*
X402771913Y-97243543D01*
X403000000Y-97263498D01*
X403228087Y-97243543D01*
X403233400Y-97242119D01*
X403233402Y-97242119D01*
X403443933Y-97185707D01*
X403443935Y-97185706D01*
X403449243Y-97184284D01*
X403501608Y-97159866D01*
X403651762Y-97089849D01*
X403651767Y-97089846D01*
X403656749Y-97087523D01*
X403800649Y-96986763D01*
X403839789Y-96959357D01*
X403839792Y-96959355D01*
X403844300Y-96956198D01*
X404006198Y-96794300D01*
X404137523Y-96606749D01*
X404139846Y-96601767D01*
X404139849Y-96601762D01*
X404156081Y-96566951D01*
X404202998Y-96513666D01*
X404271275Y-96494205D01*
X404339235Y-96514747D01*
X404384471Y-96566951D01*
X404400586Y-96601511D01*
X404406069Y-96611007D01*
X404531028Y-96789467D01*
X404538084Y-96797875D01*
X404692125Y-96951916D01*
X404700533Y-96958972D01*
X404878993Y-97083931D01*
X404888489Y-97089414D01*
X405085947Y-97181490D01*
X405096239Y-97185236D01*
X405268503Y-97231394D01*
X405282599Y-97231058D01*
X405286000Y-97223116D01*
X405286000Y-97217967D01*
X405794000Y-97217967D01*
X405797973Y-97231498D01*
X405806522Y-97232727D01*
X405983761Y-97185236D01*
X405994053Y-97181490D01*
X406191511Y-97089414D01*
X406201007Y-97083931D01*
X406379467Y-96958972D01*
X406387875Y-96951916D01*
X406541916Y-96797875D01*
X406548972Y-96789467D01*
X406673931Y-96611007D01*
X406679414Y-96601511D01*
X406771490Y-96404053D01*
X406775236Y-96393761D01*
X406831625Y-96183312D01*
X406833528Y-96172519D01*
X406847762Y-96009830D01*
X406848000Y-96004365D01*
X406848000Y-95772115D01*
X406843525Y-95756876D01*
X406842135Y-95755671D01*
X406834452Y-95754000D01*
X405812115Y-95754000D01*
X405796876Y-95758475D01*
X405795671Y-95759865D01*
X405794000Y-95767548D01*
X405794000Y-97217967D01*
X405286000Y-97217967D01*
X405286000Y-95227885D01*
X405794000Y-95227885D01*
X405798475Y-95243124D01*
X405799865Y-95244329D01*
X405807548Y-95246000D01*
X406829885Y-95246000D01*
X406845124Y-95241525D01*
X406846329Y-95240135D01*
X406848000Y-95232452D01*
X406848000Y-94995635D01*
X406847762Y-94990170D01*
X406833528Y-94827481D01*
X406831625Y-94816688D01*
X406775236Y-94606239D01*
X406771490Y-94595947D01*
X406679414Y-94398489D01*
X406673931Y-94388993D01*
X406548972Y-94210533D01*
X406541916Y-94202125D01*
X406387875Y-94048084D01*
X406379467Y-94041028D01*
X406201007Y-93916069D01*
X406191511Y-93910586D01*
X405994053Y-93818510D01*
X405983761Y-93814764D01*
X405811497Y-93768606D01*
X405797401Y-93768942D01*
X405794000Y-93776884D01*
X405794000Y-95227885D01*
X405286000Y-95227885D01*
X405286000Y-93782033D01*
X405282027Y-93768502D01*
X405273478Y-93767273D01*
X405096239Y-93814764D01*
X405085947Y-93818510D01*
X404888489Y-93910586D01*
X404878993Y-93916069D01*
X404700533Y-94041028D01*
X404692125Y-94048084D01*
X404538084Y-94202125D01*
X404531028Y-94210533D01*
X404406069Y-94388993D01*
X404400586Y-94398489D01*
X404384471Y-94433049D01*
X404337554Y-94486334D01*
X404269277Y-94505795D01*
X404201317Y-94485253D01*
X404156081Y-94433049D01*
X404139849Y-94398238D01*
X404139846Y-94398233D01*
X404137523Y-94393251D01*
X404006198Y-94205700D01*
X403844300Y-94043802D01*
X403839792Y-94040645D01*
X403839789Y-94040643D01*
X403711178Y-93950589D01*
X403656749Y-93912477D01*
X403651767Y-93910154D01*
X403651762Y-93910151D01*
X403454225Y-93818039D01*
X403454224Y-93818039D01*
X403449243Y-93815716D01*
X403443935Y-93814294D01*
X403443933Y-93814293D01*
X403233402Y-93757881D01*
X403233400Y-93757881D01*
X403228087Y-93756457D01*
X403000000Y-93736502D01*
X402771913Y-93756457D01*
X402766600Y-93757881D01*
X402766598Y-93757881D01*
X402556067Y-93814293D01*
X402556065Y-93814294D01*
X402550757Y-93815716D01*
X402545776Y-93818039D01*
X402545775Y-93818039D01*
X402348238Y-93910151D01*
X402348233Y-93910154D01*
X402343251Y-93912477D01*
X402288822Y-93950589D01*
X402160211Y-94040643D01*
X402160208Y-94040645D01*
X402155700Y-94043802D01*
X401993802Y-94205700D01*
X401862477Y-94393251D01*
X401860154Y-94398233D01*
X401860151Y-94398238D01*
X401809997Y-94505795D01*
X401765716Y-94600757D01*
X401764294Y-94606065D01*
X401764293Y-94606067D01*
X401728023Y-94741427D01*
X401706457Y-94821913D01*
X401691500Y-94992873D01*
X401691500Y-96007127D01*
X391299017Y-96007127D01*
X391312517Y-95852824D01*
X391312517Y-95841874D01*
X391293528Y-95624830D01*
X391291625Y-95614037D01*
X391235236Y-95403588D01*
X391231490Y-95393296D01*
X391139414Y-95195838D01*
X391133931Y-95186343D01*
X391097491Y-95134301D01*
X391087012Y-95125925D01*
X391073566Y-95132993D01*
X390372022Y-95834537D01*
X390364408Y-95848481D01*
X389634356Y-95848481D01*
X389635592Y-95846217D01*
X389635461Y-95844384D01*
X389631210Y-95837769D01*
X388925713Y-95132272D01*
X388913938Y-95125842D01*
X388901923Y-95135138D01*
X388866069Y-95186343D01*
X388860586Y-95195838D01*
X388768510Y-95393296D01*
X388764764Y-95403588D01*
X388708375Y-95614037D01*
X388706472Y-95624830D01*
X388687483Y-95841874D01*
X388687483Y-95852824D01*
X381738173Y-95852824D01*
X381840589Y-95706558D01*
X381878700Y-95624830D01*
X381927633Y-95519892D01*
X381927634Y-95519891D01*
X381929956Y-95514910D01*
X381962543Y-95393296D01*
X381983262Y-95315970D01*
X381983262Y-95315968D01*
X381984686Y-95310655D01*
X382003116Y-95100000D01*
X381984686Y-94889345D01*
X381965218Y-94816688D01*
X381950119Y-94760337D01*
X389278576Y-94760337D01*
X389285644Y-94773783D01*
X389987188Y-95475327D01*
X390001132Y-95482941D01*
X390002965Y-95482810D01*
X390009580Y-95478559D01*
X390715077Y-94773062D01*
X390721507Y-94761287D01*
X390712211Y-94749272D01*
X390661006Y-94713418D01*
X390651511Y-94707935D01*
X390454053Y-94615859D01*
X390443761Y-94612113D01*
X390233312Y-94555724D01*
X390222519Y-94553821D01*
X390005475Y-94534832D01*
X389994525Y-94534832D01*
X389777481Y-94553821D01*
X389766688Y-94555724D01*
X389556239Y-94612113D01*
X389545947Y-94615859D01*
X389348489Y-94707935D01*
X389338994Y-94713418D01*
X389286952Y-94749858D01*
X389278576Y-94760337D01*
X381950119Y-94760337D01*
X381931379Y-94690400D01*
X381931378Y-94690398D01*
X381929956Y-94685090D01*
X381868744Y-94553821D01*
X381842912Y-94498423D01*
X381842910Y-94498420D01*
X381840589Y-94493442D01*
X381719301Y-94320224D01*
X381569776Y-94170699D01*
X381473394Y-94103212D01*
X381429067Y-94047756D01*
X381421758Y-93977137D01*
X381453789Y-93913776D01*
X381473393Y-93896789D01*
X381569776Y-93829301D01*
X381719301Y-93679776D01*
X381840589Y-93506558D01*
X381929956Y-93314910D01*
X381950108Y-93239704D01*
X381961957Y-93195483D01*
X388691500Y-93195483D01*
X388698255Y-93257665D01*
X388749385Y-93394054D01*
X388836739Y-93510610D01*
X388953295Y-93597964D01*
X389089684Y-93649094D01*
X389151866Y-93655849D01*
X390848134Y-93655849D01*
X390910316Y-93649094D01*
X391000112Y-93615431D01*
X411500109Y-93615431D01*
X411500190Y-93616564D01*
X411505168Y-93624136D01*
X411525401Y-93643539D01*
X411529678Y-93647283D01*
X411845218Y-93899175D01*
X411849801Y-93902505D01*
X412186867Y-94124759D01*
X412191763Y-94127677D01*
X412547543Y-94318444D01*
X412552717Y-94320923D01*
X412924339Y-94478668D01*
X412929674Y-94480652D01*
X413314069Y-94604068D01*
X413319570Y-94605563D01*
X413713575Y-94693633D01*
X413719187Y-94694622D01*
X414119538Y-94746619D01*
X414125244Y-94747098D01*
X414528642Y-94762595D01*
X414534368Y-94762555D01*
X414937518Y-94741427D01*
X414943199Y-94740870D01*
X415342795Y-94683288D01*
X415348390Y-94682220D01*
X415741123Y-94588657D01*
X415746605Y-94587086D01*
X416129233Y-94458318D01*
X416134563Y-94456250D01*
X416503946Y-94293332D01*
X416509053Y-94290797D01*
X416862145Y-94095075D01*
X416867024Y-94092074D01*
X417200898Y-93865174D01*
X417205511Y-93861723D01*
X417491829Y-93626539D01*
X417500290Y-93614106D01*
X417494040Y-93603250D01*
X414512812Y-90622022D01*
X414498868Y-90614408D01*
X414497035Y-90614539D01*
X414490420Y-90618790D01*
X411507723Y-93601487D01*
X411500109Y-93615431D01*
X391000112Y-93615431D01*
X391046705Y-93597964D01*
X391163261Y-93510610D01*
X391250615Y-93394054D01*
X391301745Y-93257665D01*
X391308500Y-93195483D01*
X391308500Y-91499215D01*
X391301745Y-91437033D01*
X391250615Y-91300644D01*
X391163261Y-91184088D01*
X391046705Y-91096734D01*
X390910316Y-91045604D01*
X390848134Y-91038849D01*
X389151866Y-91038849D01*
X389089684Y-91045604D01*
X388953295Y-91096734D01*
X388836739Y-91184088D01*
X388749385Y-91300644D01*
X388698255Y-91437033D01*
X388691500Y-91499215D01*
X388691500Y-93195483D01*
X381961957Y-93195483D01*
X381983262Y-93115970D01*
X381983262Y-93115968D01*
X381984686Y-93110655D01*
X382003116Y-92900000D01*
X381984686Y-92689345D01*
X381929956Y-92485090D01*
X381840589Y-92293442D01*
X381719301Y-92120224D01*
X381569776Y-91970699D01*
X381396558Y-91849411D01*
X381391580Y-91847090D01*
X381391577Y-91847088D01*
X381209892Y-91762367D01*
X381209891Y-91762366D01*
X381204910Y-91760044D01*
X381199602Y-91758622D01*
X381199600Y-91758621D01*
X381005970Y-91706738D01*
X381005968Y-91706738D01*
X381000655Y-91705314D01*
X380790000Y-91686884D01*
X380579345Y-91705314D01*
X380574032Y-91706738D01*
X380574030Y-91706738D01*
X380380400Y-91758621D01*
X380380398Y-91758622D01*
X380375090Y-91760044D01*
X380370109Y-91762366D01*
X380370108Y-91762367D01*
X380188423Y-91847088D01*
X380188420Y-91847090D01*
X380183442Y-91849411D01*
X380010224Y-91970699D01*
X379860699Y-92120224D01*
X379739411Y-92293442D01*
X379650044Y-92485090D01*
X379595314Y-92689345D01*
X379576884Y-92900000D01*
X379595314Y-93110655D01*
X379596738Y-93115968D01*
X379596738Y-93115970D01*
X379629893Y-93239704D01*
X379650044Y-93314910D01*
X379739411Y-93506558D01*
X379860699Y-93679776D01*
X380010224Y-93829301D01*
X380106606Y-93896788D01*
X380150933Y-93952244D01*
X380158242Y-94022863D01*
X380126211Y-94086224D01*
X380106607Y-94103211D01*
X380010224Y-94170699D01*
X379860699Y-94320224D01*
X379739411Y-94493442D01*
X379737090Y-94498420D01*
X379737088Y-94498423D01*
X379711256Y-94553821D01*
X379650044Y-94685090D01*
X379648622Y-94690398D01*
X379648621Y-94690400D01*
X379614782Y-94816688D01*
X379595314Y-94889345D01*
X379576884Y-95100000D01*
X379595314Y-95310655D01*
X379596738Y-95315968D01*
X379596738Y-95315970D01*
X379617458Y-95393296D01*
X379650044Y-95514910D01*
X379652366Y-95519891D01*
X379652367Y-95519892D01*
X379701301Y-95624830D01*
X379739411Y-95706558D01*
X379860699Y-95879776D01*
X380010224Y-96029301D01*
X380106606Y-96096788D01*
X380150933Y-96152244D01*
X380158242Y-96222863D01*
X380126211Y-96286224D01*
X380106607Y-96303211D01*
X380010224Y-96370699D01*
X379860699Y-96520224D01*
X379739411Y-96693442D01*
X379737090Y-96698420D01*
X379737088Y-96698423D01*
X379652367Y-96880108D01*
X379650044Y-96885090D01*
X379648622Y-96890398D01*
X379648621Y-96890400D01*
X379630247Y-96958972D01*
X379595314Y-97089345D01*
X379576884Y-97300000D01*
X376923116Y-97300000D01*
X376904686Y-97089345D01*
X376869753Y-96958972D01*
X376851379Y-96890400D01*
X376851378Y-96890398D01*
X376849956Y-96885090D01*
X376847633Y-96880108D01*
X376762912Y-96698423D01*
X376762910Y-96698420D01*
X376760589Y-96693442D01*
X376639301Y-96520224D01*
X376489776Y-96370699D01*
X376393394Y-96303212D01*
X376349067Y-96247756D01*
X376341758Y-96177137D01*
X376373789Y-96113776D01*
X376393393Y-96096789D01*
X376489776Y-96029301D01*
X376639301Y-95879776D01*
X376760589Y-95706558D01*
X376798700Y-95624830D01*
X376847633Y-95519892D01*
X376847634Y-95519891D01*
X376849956Y-95514910D01*
X376882543Y-95393296D01*
X376903262Y-95315970D01*
X376903262Y-95315968D01*
X376904686Y-95310655D01*
X376923116Y-95100000D01*
X376904686Y-94889345D01*
X376885218Y-94816688D01*
X376851379Y-94690400D01*
X376851378Y-94690398D01*
X376849956Y-94685090D01*
X376788744Y-94553821D01*
X376762912Y-94498423D01*
X376762910Y-94498420D01*
X376760589Y-94493442D01*
X376639301Y-94320224D01*
X376489776Y-94170699D01*
X376393394Y-94103212D01*
X376349067Y-94047756D01*
X376341758Y-93977137D01*
X376373789Y-93913776D01*
X376393393Y-93896789D01*
X376489776Y-93829301D01*
X376639301Y-93679776D01*
X376760589Y-93506558D01*
X376849956Y-93314910D01*
X376870108Y-93239704D01*
X376903262Y-93115970D01*
X376903262Y-93115968D01*
X376904686Y-93110655D01*
X376923116Y-92900000D01*
X376904686Y-92689345D01*
X376849956Y-92485090D01*
X376760589Y-92293442D01*
X376639301Y-92120224D01*
X376489776Y-91970699D01*
X376316558Y-91849411D01*
X376311580Y-91847090D01*
X376311577Y-91847088D01*
X376129892Y-91762367D01*
X376129891Y-91762366D01*
X376124910Y-91760044D01*
X376119602Y-91758622D01*
X376119600Y-91758621D01*
X375925970Y-91706738D01*
X375925968Y-91706738D01*
X375920655Y-91705314D01*
X375710000Y-91686884D01*
X375499345Y-91705314D01*
X375494032Y-91706738D01*
X375494030Y-91706738D01*
X375300400Y-91758621D01*
X375300398Y-91758622D01*
X375295090Y-91760044D01*
X375290109Y-91762366D01*
X375290108Y-91762367D01*
X375108423Y-91847088D01*
X375108420Y-91847090D01*
X375103442Y-91849411D01*
X374930224Y-91970699D01*
X374780699Y-92120224D01*
X374659411Y-92293442D01*
X374570044Y-92485090D01*
X374515314Y-92689345D01*
X374496884Y-92900000D01*
X374515314Y-93110655D01*
X374516738Y-93115968D01*
X374516738Y-93115970D01*
X374549893Y-93239704D01*
X374570044Y-93314910D01*
X374659411Y-93506558D01*
X374780699Y-93679776D01*
X374930224Y-93829301D01*
X375026606Y-93896788D01*
X375070933Y-93952244D01*
X375078242Y-94022863D01*
X375046211Y-94086224D01*
X375026607Y-94103211D01*
X374930224Y-94170699D01*
X374780699Y-94320224D01*
X374659411Y-94493442D01*
X374657090Y-94498420D01*
X374657088Y-94498423D01*
X374631256Y-94553821D01*
X374570044Y-94685090D01*
X374568622Y-94690398D01*
X374568621Y-94690400D01*
X374534782Y-94816688D01*
X374515314Y-94889345D01*
X374496884Y-95100000D01*
X374515314Y-95310655D01*
X374516738Y-95315968D01*
X374516738Y-95315970D01*
X374537458Y-95393296D01*
X374570044Y-95514910D01*
X374572366Y-95519891D01*
X374572367Y-95519892D01*
X374621301Y-95624830D01*
X374659411Y-95706558D01*
X374780699Y-95879776D01*
X374930224Y-96029301D01*
X375026606Y-96096788D01*
X375070933Y-96152244D01*
X375078242Y-96222863D01*
X375046211Y-96286224D01*
X375026607Y-96303211D01*
X374930224Y-96370699D01*
X374780699Y-96520224D01*
X374659411Y-96693442D01*
X374657090Y-96698420D01*
X374657088Y-96698423D01*
X374572367Y-96880108D01*
X374570044Y-96885090D01*
X374568622Y-96890398D01*
X374568621Y-96890400D01*
X374550247Y-96958972D01*
X374515314Y-97089345D01*
X374496884Y-97300000D01*
X372528630Y-97300000D01*
X372483402Y-97287881D01*
X372483400Y-97287881D01*
X372478087Y-97286457D01*
X372250000Y-97266502D01*
X372021913Y-97286457D01*
X372016600Y-97287881D01*
X372016598Y-97287881D01*
X371806067Y-97344293D01*
X371806065Y-97344294D01*
X371800757Y-97345716D01*
X371795776Y-97348039D01*
X371795775Y-97348039D01*
X371598238Y-97440151D01*
X371598233Y-97440154D01*
X371593251Y-97442477D01*
X371503709Y-97505175D01*
X371410211Y-97570643D01*
X371410208Y-97570645D01*
X371405700Y-97573802D01*
X371243802Y-97735700D01*
X371112477Y-97923251D01*
X371110154Y-97928233D01*
X371110151Y-97928238D01*
X371037672Y-98083671D01*
X371015716Y-98130757D01*
X371014294Y-98136065D01*
X371014293Y-98136067D01*
X370963769Y-98324625D01*
X370956457Y-98351913D01*
X370936502Y-98580000D01*
X362063498Y-98580000D01*
X362043543Y-98351913D01*
X362036231Y-98324625D01*
X361985707Y-98136067D01*
X361985706Y-98136065D01*
X361984284Y-98130757D01*
X361962328Y-98083671D01*
X361889849Y-97928238D01*
X361889846Y-97928233D01*
X361887523Y-97923251D01*
X361756198Y-97735700D01*
X361594300Y-97573802D01*
X361589792Y-97570645D01*
X361589789Y-97570643D01*
X361496291Y-97505175D01*
X361406749Y-97442477D01*
X361401767Y-97440154D01*
X361401762Y-97440151D01*
X361204225Y-97348039D01*
X361204224Y-97348039D01*
X361199243Y-97345716D01*
X361193935Y-97344294D01*
X361193933Y-97344293D01*
X361028630Y-97300000D01*
X362996884Y-97300000D01*
X363015314Y-97510655D01*
X363070044Y-97714910D01*
X363072366Y-97719891D01*
X363072367Y-97719892D01*
X363079739Y-97735700D01*
X363159411Y-97906558D01*
X363280699Y-98079776D01*
X363430224Y-98229301D01*
X363603442Y-98350589D01*
X363608420Y-98352910D01*
X363608423Y-98352912D01*
X363618033Y-98357393D01*
X363795090Y-98439956D01*
X363800398Y-98441378D01*
X363800400Y-98441379D01*
X363994030Y-98493262D01*
X363994032Y-98493262D01*
X363999345Y-98494686D01*
X364210000Y-98513116D01*
X364420655Y-98494686D01*
X364425968Y-98493262D01*
X364425970Y-98493262D01*
X364619600Y-98441379D01*
X364619602Y-98441378D01*
X364624910Y-98439956D01*
X364801967Y-98357393D01*
X364811577Y-98352912D01*
X364811580Y-98352910D01*
X364816558Y-98350589D01*
X364989776Y-98229301D01*
X365139301Y-98079776D01*
X365260589Y-97906558D01*
X365340262Y-97735700D01*
X365347633Y-97719892D01*
X365347634Y-97719891D01*
X365349956Y-97714910D01*
X365404686Y-97510655D01*
X365423116Y-97300000D01*
X368076884Y-97300000D01*
X368095314Y-97510655D01*
X368150044Y-97714910D01*
X368152366Y-97719891D01*
X368152367Y-97719892D01*
X368159739Y-97735700D01*
X368239411Y-97906558D01*
X368360699Y-98079776D01*
X368510224Y-98229301D01*
X368683442Y-98350589D01*
X368688420Y-98352910D01*
X368688423Y-98352912D01*
X368698033Y-98357393D01*
X368875090Y-98439956D01*
X368880398Y-98441378D01*
X368880400Y-98441379D01*
X369074030Y-98493262D01*
X369074032Y-98493262D01*
X369079345Y-98494686D01*
X369290000Y-98513116D01*
X369500655Y-98494686D01*
X369505968Y-98493262D01*
X369505970Y-98493262D01*
X369699600Y-98441379D01*
X369699602Y-98441378D01*
X369704910Y-98439956D01*
X369881967Y-98357393D01*
X369891577Y-98352912D01*
X369891580Y-98352910D01*
X369896558Y-98350589D01*
X370069776Y-98229301D01*
X370219301Y-98079776D01*
X370340589Y-97906558D01*
X370420262Y-97735700D01*
X370427633Y-97719892D01*
X370427634Y-97719891D01*
X370429956Y-97714910D01*
X370484686Y-97510655D01*
X370503116Y-97300000D01*
X370484686Y-97089345D01*
X370449753Y-96958972D01*
X370431379Y-96890400D01*
X370431378Y-96890398D01*
X370429956Y-96885090D01*
X370427633Y-96880108D01*
X370342912Y-96698423D01*
X370342910Y-96698420D01*
X370340589Y-96693442D01*
X370219301Y-96520224D01*
X370069776Y-96370699D01*
X369973394Y-96303212D01*
X369929067Y-96247756D01*
X369921758Y-96177137D01*
X369953789Y-96113776D01*
X369973393Y-96096789D01*
X370069776Y-96029301D01*
X370219301Y-95879776D01*
X370340589Y-95706558D01*
X370378700Y-95624830D01*
X370427633Y-95519892D01*
X370427634Y-95519891D01*
X370429956Y-95514910D01*
X370462543Y-95393296D01*
X370483262Y-95315970D01*
X370483262Y-95315968D01*
X370484686Y-95310655D01*
X370503116Y-95100000D01*
X370484686Y-94889345D01*
X370465218Y-94816688D01*
X370431379Y-94690400D01*
X370431378Y-94690398D01*
X370429956Y-94685090D01*
X370368744Y-94553821D01*
X370342912Y-94498423D01*
X370342910Y-94498420D01*
X370340589Y-94493442D01*
X370219301Y-94320224D01*
X370069776Y-94170699D01*
X369973394Y-94103212D01*
X369929067Y-94047756D01*
X369921758Y-93977137D01*
X369953789Y-93913776D01*
X369973393Y-93896789D01*
X370069776Y-93829301D01*
X370219301Y-93679776D01*
X370340589Y-93506558D01*
X370429956Y-93314910D01*
X370450108Y-93239704D01*
X370483262Y-93115970D01*
X370483262Y-93115968D01*
X370484686Y-93110655D01*
X370503116Y-92900000D01*
X370484686Y-92689345D01*
X370429956Y-92485090D01*
X370340589Y-92293442D01*
X370219301Y-92120224D01*
X370069776Y-91970699D01*
X369896558Y-91849411D01*
X369891580Y-91847090D01*
X369891577Y-91847088D01*
X369709892Y-91762367D01*
X369709891Y-91762366D01*
X369704910Y-91760044D01*
X369699602Y-91758622D01*
X369699600Y-91758621D01*
X369505970Y-91706738D01*
X369505968Y-91706738D01*
X369500655Y-91705314D01*
X369290000Y-91686884D01*
X369079345Y-91705314D01*
X369074032Y-91706738D01*
X369074030Y-91706738D01*
X368880400Y-91758621D01*
X368880398Y-91758622D01*
X368875090Y-91760044D01*
X368870109Y-91762366D01*
X368870108Y-91762367D01*
X368688423Y-91847088D01*
X368688420Y-91847090D01*
X368683442Y-91849411D01*
X368510224Y-91970699D01*
X368360699Y-92120224D01*
X368239411Y-92293442D01*
X368150044Y-92485090D01*
X368095314Y-92689345D01*
X368076884Y-92900000D01*
X368095314Y-93110655D01*
X368096738Y-93115968D01*
X368096738Y-93115970D01*
X368129893Y-93239704D01*
X368150044Y-93314910D01*
X368239411Y-93506558D01*
X368360699Y-93679776D01*
X368510224Y-93829301D01*
X368606606Y-93896788D01*
X368650933Y-93952244D01*
X368658242Y-94022863D01*
X368626211Y-94086224D01*
X368606607Y-94103211D01*
X368510224Y-94170699D01*
X368360699Y-94320224D01*
X368239411Y-94493442D01*
X368237090Y-94498420D01*
X368237088Y-94498423D01*
X368211256Y-94553821D01*
X368150044Y-94685090D01*
X368148622Y-94690398D01*
X368148621Y-94690400D01*
X368114782Y-94816688D01*
X368095314Y-94889345D01*
X368076884Y-95100000D01*
X368095314Y-95310655D01*
X368096738Y-95315968D01*
X368096738Y-95315970D01*
X368117458Y-95393296D01*
X368150044Y-95514910D01*
X368152366Y-95519891D01*
X368152367Y-95519892D01*
X368201301Y-95624830D01*
X368239411Y-95706558D01*
X368360699Y-95879776D01*
X368510224Y-96029301D01*
X368606606Y-96096788D01*
X368650933Y-96152244D01*
X368658242Y-96222863D01*
X368626211Y-96286224D01*
X368606607Y-96303211D01*
X368510224Y-96370699D01*
X368360699Y-96520224D01*
X368239411Y-96693442D01*
X368237090Y-96698420D01*
X368237088Y-96698423D01*
X368152367Y-96880108D01*
X368150044Y-96885090D01*
X368148622Y-96890398D01*
X368148621Y-96890400D01*
X368130247Y-96958972D01*
X368095314Y-97089345D01*
X368076884Y-97300000D01*
X365423116Y-97300000D01*
X365404686Y-97089345D01*
X365369753Y-96958972D01*
X365351379Y-96890400D01*
X365351378Y-96890398D01*
X365349956Y-96885090D01*
X365347633Y-96880108D01*
X365262912Y-96698423D01*
X365262910Y-96698420D01*
X365260589Y-96693442D01*
X365139301Y-96520224D01*
X364989776Y-96370699D01*
X364893394Y-96303212D01*
X364849067Y-96247756D01*
X364841758Y-96177137D01*
X364873789Y-96113776D01*
X364893393Y-96096789D01*
X364989776Y-96029301D01*
X365139301Y-95879776D01*
X365260589Y-95706558D01*
X365298700Y-95624830D01*
X365347633Y-95519892D01*
X365347634Y-95519891D01*
X365349956Y-95514910D01*
X365382543Y-95393296D01*
X365403262Y-95315970D01*
X365403262Y-95315968D01*
X365404686Y-95310655D01*
X365423116Y-95100000D01*
X365404686Y-94889345D01*
X365385218Y-94816688D01*
X365351379Y-94690400D01*
X365351378Y-94690398D01*
X365349956Y-94685090D01*
X365288744Y-94553821D01*
X365262912Y-94498423D01*
X365262910Y-94498420D01*
X365260589Y-94493442D01*
X365139301Y-94320224D01*
X364989776Y-94170699D01*
X364893394Y-94103212D01*
X364849067Y-94047756D01*
X364841758Y-93977137D01*
X364873789Y-93913776D01*
X364893393Y-93896789D01*
X364989776Y-93829301D01*
X365139301Y-93679776D01*
X365260589Y-93506558D01*
X365349956Y-93314910D01*
X365370108Y-93239704D01*
X365403262Y-93115970D01*
X365403262Y-93115968D01*
X365404686Y-93110655D01*
X365423116Y-92900000D01*
X365404686Y-92689345D01*
X365349956Y-92485090D01*
X365260589Y-92293442D01*
X365139301Y-92120224D01*
X364989776Y-91970699D01*
X364816558Y-91849411D01*
X364811580Y-91847090D01*
X364811577Y-91847088D01*
X364629892Y-91762367D01*
X364629891Y-91762366D01*
X364624910Y-91760044D01*
X364619602Y-91758622D01*
X364619600Y-91758621D01*
X364425970Y-91706738D01*
X364425968Y-91706738D01*
X364420655Y-91705314D01*
X364210000Y-91686884D01*
X363999345Y-91705314D01*
X363994032Y-91706738D01*
X363994030Y-91706738D01*
X363800400Y-91758621D01*
X363800398Y-91758622D01*
X363795090Y-91760044D01*
X363790109Y-91762366D01*
X363790108Y-91762367D01*
X363608423Y-91847088D01*
X363608420Y-91847090D01*
X363603442Y-91849411D01*
X363430224Y-91970699D01*
X363280699Y-92120224D01*
X363159411Y-92293442D01*
X363070044Y-92485090D01*
X363015314Y-92689345D01*
X362996884Y-92900000D01*
X363015314Y-93110655D01*
X363016738Y-93115968D01*
X363016738Y-93115970D01*
X363049893Y-93239704D01*
X363070044Y-93314910D01*
X363159411Y-93506558D01*
X363280699Y-93679776D01*
X363430224Y-93829301D01*
X363526606Y-93896788D01*
X363570933Y-93952244D01*
X363578242Y-94022863D01*
X363546211Y-94086224D01*
X363526607Y-94103211D01*
X363430224Y-94170699D01*
X363280699Y-94320224D01*
X363159411Y-94493442D01*
X363157090Y-94498420D01*
X363157088Y-94498423D01*
X363131256Y-94553821D01*
X363070044Y-94685090D01*
X363068622Y-94690398D01*
X363068621Y-94690400D01*
X363034782Y-94816688D01*
X363015314Y-94889345D01*
X362996884Y-95100000D01*
X363015314Y-95310655D01*
X363016738Y-95315968D01*
X363016738Y-95315970D01*
X363037458Y-95393296D01*
X363070044Y-95514910D01*
X363072366Y-95519891D01*
X363072367Y-95519892D01*
X363121301Y-95624830D01*
X363159411Y-95706558D01*
X363280699Y-95879776D01*
X363430224Y-96029301D01*
X363526606Y-96096788D01*
X363570933Y-96152244D01*
X363578242Y-96222863D01*
X363546211Y-96286224D01*
X363526607Y-96303211D01*
X363430224Y-96370699D01*
X363280699Y-96520224D01*
X363159411Y-96693442D01*
X363157090Y-96698420D01*
X363157088Y-96698423D01*
X363072367Y-96880108D01*
X363070044Y-96885090D01*
X363068622Y-96890398D01*
X363068621Y-96890400D01*
X363050247Y-96958972D01*
X363015314Y-97089345D01*
X362996884Y-97300000D01*
X361028630Y-97300000D01*
X360983402Y-97287881D01*
X360983400Y-97287881D01*
X360978087Y-97286457D01*
X360750000Y-97266502D01*
X360521913Y-97286457D01*
X360516600Y-97287881D01*
X360516598Y-97287881D01*
X360306067Y-97344293D01*
X360306065Y-97344294D01*
X360300757Y-97345716D01*
X360295776Y-97348039D01*
X360295775Y-97348039D01*
X360098238Y-97440151D01*
X360098233Y-97440154D01*
X360093251Y-97442477D01*
X360003709Y-97505175D01*
X359910211Y-97570643D01*
X359910208Y-97570645D01*
X359905700Y-97573802D01*
X359743802Y-97735700D01*
X359612477Y-97923251D01*
X359610154Y-97928233D01*
X359610151Y-97928238D01*
X359537672Y-98083671D01*
X359515716Y-98130757D01*
X359514294Y-98136065D01*
X359514293Y-98136067D01*
X359463769Y-98324625D01*
X359456457Y-98351913D01*
X359436502Y-98580000D01*
X350563498Y-98580000D01*
X350543543Y-98351913D01*
X350536231Y-98324625D01*
X350485707Y-98136067D01*
X350485706Y-98136065D01*
X350484284Y-98130757D01*
X350462328Y-98083671D01*
X350389849Y-97928238D01*
X350389846Y-97928233D01*
X350387523Y-97923251D01*
X350256198Y-97735700D01*
X350094300Y-97573802D01*
X350089792Y-97570645D01*
X350089789Y-97570643D01*
X349996291Y-97505175D01*
X349906749Y-97442477D01*
X349901767Y-97440154D01*
X349901762Y-97440151D01*
X349704225Y-97348039D01*
X349704224Y-97348039D01*
X349699243Y-97345716D01*
X349693935Y-97344294D01*
X349693933Y-97344293D01*
X349528630Y-97300000D01*
X351496884Y-97300000D01*
X351515314Y-97510655D01*
X351570044Y-97714910D01*
X351572366Y-97719891D01*
X351572367Y-97719892D01*
X351579739Y-97735700D01*
X351659411Y-97906558D01*
X351780699Y-98079776D01*
X351930224Y-98229301D01*
X352103442Y-98350589D01*
X352108420Y-98352910D01*
X352108423Y-98352912D01*
X352118033Y-98357393D01*
X352295090Y-98439956D01*
X352300398Y-98441378D01*
X352300400Y-98441379D01*
X352494030Y-98493262D01*
X352494032Y-98493262D01*
X352499345Y-98494686D01*
X352710000Y-98513116D01*
X352920655Y-98494686D01*
X352925968Y-98493262D01*
X352925970Y-98493262D01*
X353119600Y-98441379D01*
X353119602Y-98441378D01*
X353124910Y-98439956D01*
X353301967Y-98357393D01*
X353311577Y-98352912D01*
X353311580Y-98352910D01*
X353316558Y-98350589D01*
X353489776Y-98229301D01*
X353639301Y-98079776D01*
X353760589Y-97906558D01*
X353840262Y-97735700D01*
X353847633Y-97719892D01*
X353847634Y-97719891D01*
X353849956Y-97714910D01*
X353904686Y-97510655D01*
X353923116Y-97300000D01*
X356576884Y-97300000D01*
X356595314Y-97510655D01*
X356650044Y-97714910D01*
X356652366Y-97719891D01*
X356652367Y-97719892D01*
X356659739Y-97735700D01*
X356739411Y-97906558D01*
X356860699Y-98079776D01*
X357010224Y-98229301D01*
X357183442Y-98350589D01*
X357188420Y-98352910D01*
X357188423Y-98352912D01*
X357198033Y-98357393D01*
X357375090Y-98439956D01*
X357380398Y-98441378D01*
X357380400Y-98441379D01*
X357574030Y-98493262D01*
X357574032Y-98493262D01*
X357579345Y-98494686D01*
X357790000Y-98513116D01*
X358000655Y-98494686D01*
X358005968Y-98493262D01*
X358005970Y-98493262D01*
X358199600Y-98441379D01*
X358199602Y-98441378D01*
X358204910Y-98439956D01*
X358381967Y-98357393D01*
X358391577Y-98352912D01*
X358391580Y-98352910D01*
X358396558Y-98350589D01*
X358569776Y-98229301D01*
X358719301Y-98079776D01*
X358840589Y-97906558D01*
X358920262Y-97735700D01*
X358927633Y-97719892D01*
X358927634Y-97719891D01*
X358929956Y-97714910D01*
X358984686Y-97510655D01*
X359003116Y-97300000D01*
X358984686Y-97089345D01*
X358949753Y-96958972D01*
X358931379Y-96890400D01*
X358931378Y-96890398D01*
X358929956Y-96885090D01*
X358927633Y-96880108D01*
X358842912Y-96698423D01*
X358842910Y-96698420D01*
X358840589Y-96693442D01*
X358719301Y-96520224D01*
X358569776Y-96370699D01*
X358473394Y-96303212D01*
X358429067Y-96247756D01*
X358421758Y-96177137D01*
X358453789Y-96113776D01*
X358473393Y-96096789D01*
X358569776Y-96029301D01*
X358719301Y-95879776D01*
X358840589Y-95706558D01*
X358878700Y-95624830D01*
X358927633Y-95519892D01*
X358927634Y-95519891D01*
X358929956Y-95514910D01*
X358962543Y-95393296D01*
X358983262Y-95315970D01*
X358983262Y-95315968D01*
X358984686Y-95310655D01*
X359003116Y-95100000D01*
X358984686Y-94889345D01*
X358965218Y-94816688D01*
X358931379Y-94690400D01*
X358931378Y-94690398D01*
X358929956Y-94685090D01*
X358868744Y-94553821D01*
X358842912Y-94498423D01*
X358842910Y-94498420D01*
X358840589Y-94493442D01*
X358719301Y-94320224D01*
X358569776Y-94170699D01*
X358473394Y-94103212D01*
X358429067Y-94047756D01*
X358421758Y-93977137D01*
X358453789Y-93913776D01*
X358473393Y-93896789D01*
X358569776Y-93829301D01*
X358719301Y-93679776D01*
X358840589Y-93506558D01*
X358929956Y-93314910D01*
X358950108Y-93239704D01*
X358983262Y-93115970D01*
X358983262Y-93115968D01*
X358984686Y-93110655D01*
X359003116Y-92900000D01*
X358984686Y-92689345D01*
X358929956Y-92485090D01*
X358840589Y-92293442D01*
X358719301Y-92120224D01*
X358569776Y-91970699D01*
X358396558Y-91849411D01*
X358391580Y-91847090D01*
X358391577Y-91847088D01*
X358209892Y-91762367D01*
X358209891Y-91762366D01*
X358204910Y-91760044D01*
X358199602Y-91758622D01*
X358199600Y-91758621D01*
X358005970Y-91706738D01*
X358005968Y-91706738D01*
X358000655Y-91705314D01*
X357790000Y-91686884D01*
X357579345Y-91705314D01*
X357574032Y-91706738D01*
X357574030Y-91706738D01*
X357380400Y-91758621D01*
X357380398Y-91758622D01*
X357375090Y-91760044D01*
X357370109Y-91762366D01*
X357370108Y-91762367D01*
X357188423Y-91847088D01*
X357188420Y-91847090D01*
X357183442Y-91849411D01*
X357010224Y-91970699D01*
X356860699Y-92120224D01*
X356739411Y-92293442D01*
X356650044Y-92485090D01*
X356595314Y-92689345D01*
X356576884Y-92900000D01*
X356595314Y-93110655D01*
X356596738Y-93115968D01*
X356596738Y-93115970D01*
X356629893Y-93239704D01*
X356650044Y-93314910D01*
X356739411Y-93506558D01*
X356860699Y-93679776D01*
X357010224Y-93829301D01*
X357106606Y-93896788D01*
X357150933Y-93952244D01*
X357158242Y-94022863D01*
X357126211Y-94086224D01*
X357106607Y-94103211D01*
X357010224Y-94170699D01*
X356860699Y-94320224D01*
X356739411Y-94493442D01*
X356737090Y-94498420D01*
X356737088Y-94498423D01*
X356711256Y-94553821D01*
X356650044Y-94685090D01*
X356648622Y-94690398D01*
X356648621Y-94690400D01*
X356614782Y-94816688D01*
X356595314Y-94889345D01*
X356576884Y-95100000D01*
X356595314Y-95310655D01*
X356596738Y-95315968D01*
X356596738Y-95315970D01*
X356617458Y-95393296D01*
X356650044Y-95514910D01*
X356652366Y-95519891D01*
X356652367Y-95519892D01*
X356701301Y-95624830D01*
X356739411Y-95706558D01*
X356860699Y-95879776D01*
X357010224Y-96029301D01*
X357106606Y-96096788D01*
X357150933Y-96152244D01*
X357158242Y-96222863D01*
X357126211Y-96286224D01*
X357106607Y-96303211D01*
X357010224Y-96370699D01*
X356860699Y-96520224D01*
X356739411Y-96693442D01*
X356737090Y-96698420D01*
X356737088Y-96698423D01*
X356652367Y-96880108D01*
X356650044Y-96885090D01*
X356648622Y-96890398D01*
X356648621Y-96890400D01*
X356630247Y-96958972D01*
X356595314Y-97089345D01*
X356576884Y-97300000D01*
X353923116Y-97300000D01*
X353904686Y-97089345D01*
X353869753Y-96958972D01*
X353851379Y-96890400D01*
X353851378Y-96890398D01*
X353849956Y-96885090D01*
X353847633Y-96880108D01*
X353762912Y-96698423D01*
X353762910Y-96698420D01*
X353760589Y-96693442D01*
X353639301Y-96520224D01*
X353489776Y-96370699D01*
X353393394Y-96303212D01*
X353349067Y-96247756D01*
X353341758Y-96177137D01*
X353373789Y-96113776D01*
X353393393Y-96096789D01*
X353489776Y-96029301D01*
X353639301Y-95879776D01*
X353760589Y-95706558D01*
X353798700Y-95624830D01*
X353847633Y-95519892D01*
X353847634Y-95519891D01*
X353849956Y-95514910D01*
X353882543Y-95393296D01*
X353903262Y-95315970D01*
X353903262Y-95315968D01*
X353904686Y-95310655D01*
X353923116Y-95100000D01*
X353904686Y-94889345D01*
X353885218Y-94816688D01*
X353851379Y-94690400D01*
X353851378Y-94690398D01*
X353849956Y-94685090D01*
X353788744Y-94553821D01*
X353762912Y-94498423D01*
X353762910Y-94498420D01*
X353760589Y-94493442D01*
X353639301Y-94320224D01*
X353489776Y-94170699D01*
X353393394Y-94103212D01*
X353349067Y-94047756D01*
X353341758Y-93977137D01*
X353373789Y-93913776D01*
X353393393Y-93896789D01*
X353489776Y-93829301D01*
X353639301Y-93679776D01*
X353760589Y-93506558D01*
X353849956Y-93314910D01*
X353870108Y-93239704D01*
X353903262Y-93115970D01*
X353903262Y-93115968D01*
X353904686Y-93110655D01*
X353923116Y-92900000D01*
X353904686Y-92689345D01*
X353849956Y-92485090D01*
X353760589Y-92293442D01*
X353639301Y-92120224D01*
X353489776Y-91970699D01*
X353316558Y-91849411D01*
X353311580Y-91847090D01*
X353311577Y-91847088D01*
X353129892Y-91762367D01*
X353129891Y-91762366D01*
X353124910Y-91760044D01*
X353119602Y-91758622D01*
X353119600Y-91758621D01*
X352925970Y-91706738D01*
X352925968Y-91706738D01*
X352920655Y-91705314D01*
X352710000Y-91686884D01*
X352499345Y-91705314D01*
X352494032Y-91706738D01*
X352494030Y-91706738D01*
X352300400Y-91758621D01*
X352300398Y-91758622D01*
X352295090Y-91760044D01*
X352290109Y-91762366D01*
X352290108Y-91762367D01*
X352108423Y-91847088D01*
X352108420Y-91847090D01*
X352103442Y-91849411D01*
X351930224Y-91970699D01*
X351780699Y-92120224D01*
X351659411Y-92293442D01*
X351570044Y-92485090D01*
X351515314Y-92689345D01*
X351496884Y-92900000D01*
X351515314Y-93110655D01*
X351516738Y-93115968D01*
X351516738Y-93115970D01*
X351549893Y-93239704D01*
X351570044Y-93314910D01*
X351659411Y-93506558D01*
X351780699Y-93679776D01*
X351930224Y-93829301D01*
X352026606Y-93896788D01*
X352070933Y-93952244D01*
X352078242Y-94022863D01*
X352046211Y-94086224D01*
X352026607Y-94103211D01*
X351930224Y-94170699D01*
X351780699Y-94320224D01*
X351659411Y-94493442D01*
X351657090Y-94498420D01*
X351657088Y-94498423D01*
X351631256Y-94553821D01*
X351570044Y-94685090D01*
X351568622Y-94690398D01*
X351568621Y-94690400D01*
X351534782Y-94816688D01*
X351515314Y-94889345D01*
X351496884Y-95100000D01*
X351515314Y-95310655D01*
X351516738Y-95315968D01*
X351516738Y-95315970D01*
X351537458Y-95393296D01*
X351570044Y-95514910D01*
X351572366Y-95519891D01*
X351572367Y-95519892D01*
X351621301Y-95624830D01*
X351659411Y-95706558D01*
X351780699Y-95879776D01*
X351930224Y-96029301D01*
X352026606Y-96096788D01*
X352070933Y-96152244D01*
X352078242Y-96222863D01*
X352046211Y-96286224D01*
X352026607Y-96303211D01*
X351930224Y-96370699D01*
X351780699Y-96520224D01*
X351659411Y-96693442D01*
X351657090Y-96698420D01*
X351657088Y-96698423D01*
X351572367Y-96880108D01*
X351570044Y-96885090D01*
X351568622Y-96890398D01*
X351568621Y-96890400D01*
X351550247Y-96958972D01*
X351515314Y-97089345D01*
X351496884Y-97300000D01*
X349528630Y-97300000D01*
X349483402Y-97287881D01*
X349483400Y-97287881D01*
X349478087Y-97286457D01*
X349250000Y-97266502D01*
X349021913Y-97286457D01*
X349016600Y-97287881D01*
X349016598Y-97287881D01*
X348806067Y-97344293D01*
X348806065Y-97344294D01*
X348800757Y-97345716D01*
X348795776Y-97348039D01*
X348795775Y-97348039D01*
X348598238Y-97440151D01*
X348598233Y-97440154D01*
X348593251Y-97442477D01*
X348503709Y-97505175D01*
X348410211Y-97570643D01*
X348410208Y-97570645D01*
X348405700Y-97573802D01*
X348243802Y-97735700D01*
X348112477Y-97923251D01*
X348110154Y-97928233D01*
X348110151Y-97928238D01*
X348037672Y-98083671D01*
X348015716Y-98130757D01*
X348014294Y-98136065D01*
X348014293Y-98136067D01*
X347963769Y-98324625D01*
X347956457Y-98351913D01*
X347936502Y-98580000D01*
X339063498Y-98580000D01*
X339043543Y-98351913D01*
X339036231Y-98324625D01*
X338985707Y-98136067D01*
X338985706Y-98136065D01*
X338984284Y-98130757D01*
X338962328Y-98083671D01*
X338889849Y-97928238D01*
X338889846Y-97928233D01*
X338887523Y-97923251D01*
X338756198Y-97735700D01*
X338594300Y-97573802D01*
X338589792Y-97570645D01*
X338589789Y-97570643D01*
X338496291Y-97505175D01*
X338406749Y-97442477D01*
X338401767Y-97440154D01*
X338401762Y-97440151D01*
X338204225Y-97348039D01*
X338204224Y-97348039D01*
X338199243Y-97345716D01*
X338193935Y-97344294D01*
X338193933Y-97344293D01*
X338028630Y-97300000D01*
X339996884Y-97300000D01*
X340015314Y-97510655D01*
X340070044Y-97714910D01*
X340072366Y-97719891D01*
X340072367Y-97719892D01*
X340079739Y-97735700D01*
X340159411Y-97906558D01*
X340280699Y-98079776D01*
X340430224Y-98229301D01*
X340603442Y-98350589D01*
X340608420Y-98352910D01*
X340608423Y-98352912D01*
X340618033Y-98357393D01*
X340795090Y-98439956D01*
X340800398Y-98441378D01*
X340800400Y-98441379D01*
X340994030Y-98493262D01*
X340994032Y-98493262D01*
X340999345Y-98494686D01*
X341210000Y-98513116D01*
X341420655Y-98494686D01*
X341425968Y-98493262D01*
X341425970Y-98493262D01*
X341619600Y-98441379D01*
X341619602Y-98441378D01*
X341624910Y-98439956D01*
X341801967Y-98357393D01*
X341811577Y-98352912D01*
X341811580Y-98352910D01*
X341816558Y-98350589D01*
X341989776Y-98229301D01*
X342139301Y-98079776D01*
X342260589Y-97906558D01*
X342340262Y-97735700D01*
X342347633Y-97719892D01*
X342347634Y-97719891D01*
X342349956Y-97714910D01*
X342404686Y-97510655D01*
X342423116Y-97300000D01*
X345076884Y-97300000D01*
X345095314Y-97510655D01*
X345150044Y-97714910D01*
X345152366Y-97719891D01*
X345152367Y-97719892D01*
X345159739Y-97735700D01*
X345239411Y-97906558D01*
X345360699Y-98079776D01*
X345510224Y-98229301D01*
X345683442Y-98350589D01*
X345688420Y-98352910D01*
X345688423Y-98352912D01*
X345698033Y-98357393D01*
X345875090Y-98439956D01*
X345880398Y-98441378D01*
X345880400Y-98441379D01*
X346074030Y-98493262D01*
X346074032Y-98493262D01*
X346079345Y-98494686D01*
X346290000Y-98513116D01*
X346500655Y-98494686D01*
X346505968Y-98493262D01*
X346505970Y-98493262D01*
X346699600Y-98441379D01*
X346699602Y-98441378D01*
X346704910Y-98439956D01*
X346881967Y-98357393D01*
X346891577Y-98352912D01*
X346891580Y-98352910D01*
X346896558Y-98350589D01*
X347069776Y-98229301D01*
X347219301Y-98079776D01*
X347340589Y-97906558D01*
X347420262Y-97735700D01*
X347427633Y-97719892D01*
X347427634Y-97719891D01*
X347429956Y-97714910D01*
X347484686Y-97510655D01*
X347503116Y-97300000D01*
X347484686Y-97089345D01*
X347449753Y-96958972D01*
X347431379Y-96890400D01*
X347431378Y-96890398D01*
X347429956Y-96885090D01*
X347427633Y-96880108D01*
X347342912Y-96698423D01*
X347342910Y-96698420D01*
X347340589Y-96693442D01*
X347219301Y-96520224D01*
X347069776Y-96370699D01*
X346973394Y-96303212D01*
X346929067Y-96247756D01*
X346921758Y-96177137D01*
X346953789Y-96113776D01*
X346973393Y-96096789D01*
X347069776Y-96029301D01*
X347219301Y-95879776D01*
X347340589Y-95706558D01*
X347378700Y-95624830D01*
X347427633Y-95519892D01*
X347427634Y-95519891D01*
X347429956Y-95514910D01*
X347462543Y-95393296D01*
X347483262Y-95315970D01*
X347483262Y-95315968D01*
X347484686Y-95310655D01*
X347503116Y-95100000D01*
X347484686Y-94889345D01*
X347465218Y-94816688D01*
X347431379Y-94690400D01*
X347431378Y-94690398D01*
X347429956Y-94685090D01*
X347368744Y-94553821D01*
X347342912Y-94498423D01*
X347342910Y-94498420D01*
X347340589Y-94493442D01*
X347219301Y-94320224D01*
X347069776Y-94170699D01*
X346973394Y-94103212D01*
X346929067Y-94047756D01*
X346921758Y-93977137D01*
X346953789Y-93913776D01*
X346973393Y-93896789D01*
X347069776Y-93829301D01*
X347219301Y-93679776D01*
X347340589Y-93506558D01*
X347429956Y-93314910D01*
X347450108Y-93239704D01*
X347483262Y-93115970D01*
X347483262Y-93115968D01*
X347484686Y-93110655D01*
X347503116Y-92900000D01*
X347484686Y-92689345D01*
X347429956Y-92485090D01*
X347340589Y-92293442D01*
X347219301Y-92120224D01*
X347069776Y-91970699D01*
X346896558Y-91849411D01*
X346891580Y-91847090D01*
X346891577Y-91847088D01*
X346709892Y-91762367D01*
X346709891Y-91762366D01*
X346704910Y-91760044D01*
X346699602Y-91758622D01*
X346699600Y-91758621D01*
X346505970Y-91706738D01*
X346505968Y-91706738D01*
X346500655Y-91705314D01*
X346290000Y-91686884D01*
X346079345Y-91705314D01*
X346074032Y-91706738D01*
X346074030Y-91706738D01*
X345880400Y-91758621D01*
X345880398Y-91758622D01*
X345875090Y-91760044D01*
X345870109Y-91762366D01*
X345870108Y-91762367D01*
X345688423Y-91847088D01*
X345688420Y-91847090D01*
X345683442Y-91849411D01*
X345510224Y-91970699D01*
X345360699Y-92120224D01*
X345239411Y-92293442D01*
X345150044Y-92485090D01*
X345095314Y-92689345D01*
X345076884Y-92900000D01*
X345095314Y-93110655D01*
X345096738Y-93115968D01*
X345096738Y-93115970D01*
X345129893Y-93239704D01*
X345150044Y-93314910D01*
X345239411Y-93506558D01*
X345360699Y-93679776D01*
X345510224Y-93829301D01*
X345606606Y-93896788D01*
X345650933Y-93952244D01*
X345658242Y-94022863D01*
X345626211Y-94086224D01*
X345606607Y-94103211D01*
X345510224Y-94170699D01*
X345360699Y-94320224D01*
X345239411Y-94493442D01*
X345237090Y-94498420D01*
X345237088Y-94498423D01*
X345211256Y-94553821D01*
X345150044Y-94685090D01*
X345148622Y-94690398D01*
X345148621Y-94690400D01*
X345114782Y-94816688D01*
X345095314Y-94889345D01*
X345076884Y-95100000D01*
X345095314Y-95310655D01*
X345096738Y-95315968D01*
X345096738Y-95315970D01*
X345117458Y-95393296D01*
X345150044Y-95514910D01*
X345152366Y-95519891D01*
X345152367Y-95519892D01*
X345201301Y-95624830D01*
X345239411Y-95706558D01*
X345360699Y-95879776D01*
X345510224Y-96029301D01*
X345606606Y-96096788D01*
X345650933Y-96152244D01*
X345658242Y-96222863D01*
X345626211Y-96286224D01*
X345606607Y-96303211D01*
X345510224Y-96370699D01*
X345360699Y-96520224D01*
X345239411Y-96693442D01*
X345237090Y-96698420D01*
X345237088Y-96698423D01*
X345152367Y-96880108D01*
X345150044Y-96885090D01*
X345148622Y-96890398D01*
X345148621Y-96890400D01*
X345130247Y-96958972D01*
X345095314Y-97089345D01*
X345076884Y-97300000D01*
X342423116Y-97300000D01*
X342404686Y-97089345D01*
X342369753Y-96958972D01*
X342351379Y-96890400D01*
X342351378Y-96890398D01*
X342349956Y-96885090D01*
X342347633Y-96880108D01*
X342262912Y-96698423D01*
X342262910Y-96698420D01*
X342260589Y-96693442D01*
X342139301Y-96520224D01*
X341989776Y-96370699D01*
X341893394Y-96303212D01*
X341849067Y-96247756D01*
X341841758Y-96177137D01*
X341873789Y-96113776D01*
X341893393Y-96096789D01*
X341989776Y-96029301D01*
X342139301Y-95879776D01*
X342260589Y-95706558D01*
X342298700Y-95624830D01*
X342347633Y-95519892D01*
X342347634Y-95519891D01*
X342349956Y-95514910D01*
X342382543Y-95393296D01*
X342403262Y-95315970D01*
X342403262Y-95315968D01*
X342404686Y-95310655D01*
X342423116Y-95100000D01*
X342404686Y-94889345D01*
X342385218Y-94816688D01*
X342351379Y-94690400D01*
X342351378Y-94690398D01*
X342349956Y-94685090D01*
X342288744Y-94553821D01*
X342262912Y-94498423D01*
X342262910Y-94498420D01*
X342260589Y-94493442D01*
X342139301Y-94320224D01*
X341989776Y-94170699D01*
X341893394Y-94103212D01*
X341849067Y-94047756D01*
X341841758Y-93977137D01*
X341873789Y-93913776D01*
X341893393Y-93896789D01*
X341989776Y-93829301D01*
X342139301Y-93679776D01*
X342260589Y-93506558D01*
X342349956Y-93314910D01*
X342370108Y-93239704D01*
X342403262Y-93115970D01*
X342403262Y-93115968D01*
X342404686Y-93110655D01*
X342423116Y-92900000D01*
X342404686Y-92689345D01*
X342349956Y-92485090D01*
X342260589Y-92293442D01*
X342139301Y-92120224D01*
X341989776Y-91970699D01*
X341816558Y-91849411D01*
X341811580Y-91847090D01*
X341811577Y-91847088D01*
X341629892Y-91762367D01*
X341629891Y-91762366D01*
X341624910Y-91760044D01*
X341619602Y-91758622D01*
X341619600Y-91758621D01*
X341425970Y-91706738D01*
X341425968Y-91706738D01*
X341420655Y-91705314D01*
X341210000Y-91686884D01*
X340999345Y-91705314D01*
X340994032Y-91706738D01*
X340994030Y-91706738D01*
X340800400Y-91758621D01*
X340800398Y-91758622D01*
X340795090Y-91760044D01*
X340790109Y-91762366D01*
X340790108Y-91762367D01*
X340608423Y-91847088D01*
X340608420Y-91847090D01*
X340603442Y-91849411D01*
X340430224Y-91970699D01*
X340280699Y-92120224D01*
X340159411Y-92293442D01*
X340070044Y-92485090D01*
X340015314Y-92689345D01*
X339996884Y-92900000D01*
X340015314Y-93110655D01*
X340016738Y-93115968D01*
X340016738Y-93115970D01*
X340049893Y-93239704D01*
X340070044Y-93314910D01*
X340159411Y-93506558D01*
X340280699Y-93679776D01*
X340430224Y-93829301D01*
X340526606Y-93896788D01*
X340570933Y-93952244D01*
X340578242Y-94022863D01*
X340546211Y-94086224D01*
X340526607Y-94103211D01*
X340430224Y-94170699D01*
X340280699Y-94320224D01*
X340159411Y-94493442D01*
X340157090Y-94498420D01*
X340157088Y-94498423D01*
X340131256Y-94553821D01*
X340070044Y-94685090D01*
X340068622Y-94690398D01*
X340068621Y-94690400D01*
X340034782Y-94816688D01*
X340015314Y-94889345D01*
X339996884Y-95100000D01*
X340015314Y-95310655D01*
X340016738Y-95315968D01*
X340016738Y-95315970D01*
X340037458Y-95393296D01*
X340070044Y-95514910D01*
X340072366Y-95519891D01*
X340072367Y-95519892D01*
X340121301Y-95624830D01*
X340159411Y-95706558D01*
X340280699Y-95879776D01*
X340430224Y-96029301D01*
X340526606Y-96096788D01*
X340570933Y-96152244D01*
X340578242Y-96222863D01*
X340546211Y-96286224D01*
X340526607Y-96303211D01*
X340430224Y-96370699D01*
X340280699Y-96520224D01*
X340159411Y-96693442D01*
X340157090Y-96698420D01*
X340157088Y-96698423D01*
X340072367Y-96880108D01*
X340070044Y-96885090D01*
X340068622Y-96890398D01*
X340068621Y-96890400D01*
X340050247Y-96958972D01*
X340015314Y-97089345D01*
X339996884Y-97300000D01*
X338028630Y-97300000D01*
X337983402Y-97287881D01*
X337983400Y-97287881D01*
X337978087Y-97286457D01*
X337750000Y-97266502D01*
X337521913Y-97286457D01*
X337516600Y-97287881D01*
X337516598Y-97287881D01*
X337306067Y-97344293D01*
X337306065Y-97344294D01*
X337300757Y-97345716D01*
X337295776Y-97348039D01*
X337295775Y-97348039D01*
X337098238Y-97440151D01*
X337098233Y-97440154D01*
X337093251Y-97442477D01*
X337003709Y-97505175D01*
X336910211Y-97570643D01*
X336910208Y-97570645D01*
X336905700Y-97573802D01*
X336743802Y-97735700D01*
X336612477Y-97923251D01*
X336610154Y-97928233D01*
X336610151Y-97928238D01*
X336537672Y-98083671D01*
X336515716Y-98130757D01*
X336514294Y-98136065D01*
X336514293Y-98136067D01*
X336463769Y-98324625D01*
X336456457Y-98351913D01*
X336436502Y-98580000D01*
X321508500Y-98580000D01*
X321508500Y-97300000D01*
X328496884Y-97300000D01*
X328515314Y-97510655D01*
X328570044Y-97714910D01*
X328572366Y-97719891D01*
X328572367Y-97719892D01*
X328579739Y-97735700D01*
X328659411Y-97906558D01*
X328780699Y-98079776D01*
X328930224Y-98229301D01*
X329103442Y-98350589D01*
X329108420Y-98352910D01*
X329108423Y-98352912D01*
X329118033Y-98357393D01*
X329295090Y-98439956D01*
X329300398Y-98441378D01*
X329300400Y-98441379D01*
X329494030Y-98493262D01*
X329494032Y-98493262D01*
X329499345Y-98494686D01*
X329710000Y-98513116D01*
X329920655Y-98494686D01*
X329925968Y-98493262D01*
X329925970Y-98493262D01*
X330119600Y-98441379D01*
X330119602Y-98441378D01*
X330124910Y-98439956D01*
X330301967Y-98357393D01*
X330311577Y-98352912D01*
X330311580Y-98352910D01*
X330316558Y-98350589D01*
X330489776Y-98229301D01*
X330639301Y-98079776D01*
X330760589Y-97906558D01*
X330840262Y-97735700D01*
X330847633Y-97719892D01*
X330847634Y-97719891D01*
X330849956Y-97714910D01*
X330904686Y-97510655D01*
X330923116Y-97300000D01*
X333576884Y-97300000D01*
X333595314Y-97510655D01*
X333650044Y-97714910D01*
X333652366Y-97719891D01*
X333652367Y-97719892D01*
X333659739Y-97735700D01*
X333739411Y-97906558D01*
X333860699Y-98079776D01*
X334010224Y-98229301D01*
X334183442Y-98350589D01*
X334188420Y-98352910D01*
X334188423Y-98352912D01*
X334198033Y-98357393D01*
X334375090Y-98439956D01*
X334380398Y-98441378D01*
X334380400Y-98441379D01*
X334574030Y-98493262D01*
X334574032Y-98493262D01*
X334579345Y-98494686D01*
X334790000Y-98513116D01*
X335000655Y-98494686D01*
X335005968Y-98493262D01*
X335005970Y-98493262D01*
X335199600Y-98441379D01*
X335199602Y-98441378D01*
X335204910Y-98439956D01*
X335381967Y-98357393D01*
X335391577Y-98352912D01*
X335391580Y-98352910D01*
X335396558Y-98350589D01*
X335569776Y-98229301D01*
X335719301Y-98079776D01*
X335840589Y-97906558D01*
X335920262Y-97735700D01*
X335927633Y-97719892D01*
X335927634Y-97719891D01*
X335929956Y-97714910D01*
X335984686Y-97510655D01*
X336003116Y-97300000D01*
X335984686Y-97089345D01*
X335949753Y-96958972D01*
X335931379Y-96890400D01*
X335931378Y-96890398D01*
X335929956Y-96885090D01*
X335927633Y-96880108D01*
X335842912Y-96698423D01*
X335842910Y-96698420D01*
X335840589Y-96693442D01*
X335719301Y-96520224D01*
X335569776Y-96370699D01*
X335473394Y-96303212D01*
X335429067Y-96247756D01*
X335421758Y-96177137D01*
X335453789Y-96113776D01*
X335473393Y-96096789D01*
X335569776Y-96029301D01*
X335719301Y-95879776D01*
X335840589Y-95706558D01*
X335878700Y-95624830D01*
X335927633Y-95519892D01*
X335927634Y-95519891D01*
X335929956Y-95514910D01*
X335962543Y-95393296D01*
X335983262Y-95315970D01*
X335983262Y-95315968D01*
X335984686Y-95310655D01*
X336003116Y-95100000D01*
X335984686Y-94889345D01*
X335965218Y-94816688D01*
X335931379Y-94690400D01*
X335931378Y-94690398D01*
X335929956Y-94685090D01*
X335868744Y-94553821D01*
X335842912Y-94498423D01*
X335842910Y-94498420D01*
X335840589Y-94493442D01*
X335719301Y-94320224D01*
X335569776Y-94170699D01*
X335473394Y-94103212D01*
X335429067Y-94047756D01*
X335421758Y-93977137D01*
X335453789Y-93913776D01*
X335473393Y-93896789D01*
X335569776Y-93829301D01*
X335719301Y-93679776D01*
X335840589Y-93506558D01*
X335929956Y-93314910D01*
X335950108Y-93239704D01*
X335983262Y-93115970D01*
X335983262Y-93115968D01*
X335984686Y-93110655D01*
X336003116Y-92900000D01*
X335984686Y-92689345D01*
X335929956Y-92485090D01*
X335840589Y-92293442D01*
X335719301Y-92120224D01*
X335569776Y-91970699D01*
X335396558Y-91849411D01*
X335391580Y-91847090D01*
X335391577Y-91847088D01*
X335209892Y-91762367D01*
X335209891Y-91762366D01*
X335204910Y-91760044D01*
X335199602Y-91758622D01*
X335199600Y-91758621D01*
X335005970Y-91706738D01*
X335005968Y-91706738D01*
X335000655Y-91705314D01*
X334790000Y-91686884D01*
X334579345Y-91705314D01*
X334574032Y-91706738D01*
X334574030Y-91706738D01*
X334380400Y-91758621D01*
X334380398Y-91758622D01*
X334375090Y-91760044D01*
X334370109Y-91762366D01*
X334370108Y-91762367D01*
X334188423Y-91847088D01*
X334188420Y-91847090D01*
X334183442Y-91849411D01*
X334010224Y-91970699D01*
X333860699Y-92120224D01*
X333739411Y-92293442D01*
X333650044Y-92485090D01*
X333595314Y-92689345D01*
X333576884Y-92900000D01*
X333595314Y-93110655D01*
X333596738Y-93115968D01*
X333596738Y-93115970D01*
X333629893Y-93239704D01*
X333650044Y-93314910D01*
X333739411Y-93506558D01*
X333860699Y-93679776D01*
X334010224Y-93829301D01*
X334106606Y-93896788D01*
X334150933Y-93952244D01*
X334158242Y-94022863D01*
X334126211Y-94086224D01*
X334106607Y-94103211D01*
X334010224Y-94170699D01*
X333860699Y-94320224D01*
X333739411Y-94493442D01*
X333737090Y-94498420D01*
X333737088Y-94498423D01*
X333711256Y-94553821D01*
X333650044Y-94685090D01*
X333648622Y-94690398D01*
X333648621Y-94690400D01*
X333614782Y-94816688D01*
X333595314Y-94889345D01*
X333576884Y-95100000D01*
X333595314Y-95310655D01*
X333596738Y-95315968D01*
X333596738Y-95315970D01*
X333617458Y-95393296D01*
X333650044Y-95514910D01*
X333652366Y-95519891D01*
X333652367Y-95519892D01*
X333701301Y-95624830D01*
X333739411Y-95706558D01*
X333860699Y-95879776D01*
X334010224Y-96029301D01*
X334106606Y-96096788D01*
X334150933Y-96152244D01*
X334158242Y-96222863D01*
X334126211Y-96286224D01*
X334106607Y-96303211D01*
X334010224Y-96370699D01*
X333860699Y-96520224D01*
X333739411Y-96693442D01*
X333737090Y-96698420D01*
X333737088Y-96698423D01*
X333652367Y-96880108D01*
X333650044Y-96885090D01*
X333648622Y-96890398D01*
X333648621Y-96890400D01*
X333630247Y-96958972D01*
X333595314Y-97089345D01*
X333576884Y-97300000D01*
X330923116Y-97300000D01*
X330904686Y-97089345D01*
X330869753Y-96958972D01*
X330851379Y-96890400D01*
X330851378Y-96890398D01*
X330849956Y-96885090D01*
X330847633Y-96880108D01*
X330762912Y-96698423D01*
X330762910Y-96698420D01*
X330760589Y-96693442D01*
X330639301Y-96520224D01*
X330489776Y-96370699D01*
X330393394Y-96303212D01*
X330349067Y-96247756D01*
X330341758Y-96177137D01*
X330373789Y-96113776D01*
X330393393Y-96096789D01*
X330489776Y-96029301D01*
X330639301Y-95879776D01*
X330760589Y-95706558D01*
X330798700Y-95624830D01*
X330847633Y-95519892D01*
X330847634Y-95519891D01*
X330849956Y-95514910D01*
X330882543Y-95393296D01*
X330903262Y-95315970D01*
X330903262Y-95315968D01*
X330904686Y-95310655D01*
X330923116Y-95100000D01*
X330904686Y-94889345D01*
X330885218Y-94816688D01*
X330851379Y-94690400D01*
X330851378Y-94690398D01*
X330849956Y-94685090D01*
X330788744Y-94553821D01*
X330762912Y-94498423D01*
X330762910Y-94498420D01*
X330760589Y-94493442D01*
X330639301Y-94320224D01*
X330489776Y-94170699D01*
X330393394Y-94103212D01*
X330349067Y-94047756D01*
X330341758Y-93977137D01*
X330373789Y-93913776D01*
X330393393Y-93896789D01*
X330489776Y-93829301D01*
X330639301Y-93679776D01*
X330760589Y-93506558D01*
X330849956Y-93314910D01*
X330870108Y-93239704D01*
X330903262Y-93115970D01*
X330903262Y-93115968D01*
X330904686Y-93110655D01*
X330923116Y-92900000D01*
X330904686Y-92689345D01*
X330849956Y-92485090D01*
X330760589Y-92293442D01*
X330639301Y-92120224D01*
X330489776Y-91970699D01*
X330316558Y-91849411D01*
X330311580Y-91847090D01*
X330311577Y-91847088D01*
X330129892Y-91762367D01*
X330129891Y-91762366D01*
X330124910Y-91760044D01*
X330119602Y-91758622D01*
X330119600Y-91758621D01*
X329925970Y-91706738D01*
X329925968Y-91706738D01*
X329920655Y-91705314D01*
X329710000Y-91686884D01*
X329499345Y-91705314D01*
X329494032Y-91706738D01*
X329494030Y-91706738D01*
X329300400Y-91758621D01*
X329300398Y-91758622D01*
X329295090Y-91760044D01*
X329290109Y-91762366D01*
X329290108Y-91762367D01*
X329108423Y-91847088D01*
X329108420Y-91847090D01*
X329103442Y-91849411D01*
X328930224Y-91970699D01*
X328780699Y-92120224D01*
X328659411Y-92293442D01*
X328570044Y-92485090D01*
X328515314Y-92689345D01*
X328496884Y-92900000D01*
X328515314Y-93110655D01*
X328516738Y-93115968D01*
X328516738Y-93115970D01*
X328549893Y-93239704D01*
X328570044Y-93314910D01*
X328659411Y-93506558D01*
X328780699Y-93679776D01*
X328930224Y-93829301D01*
X329026606Y-93896788D01*
X329070933Y-93952244D01*
X329078242Y-94022863D01*
X329046211Y-94086224D01*
X329026607Y-94103211D01*
X328930224Y-94170699D01*
X328780699Y-94320224D01*
X328659411Y-94493442D01*
X328657090Y-94498420D01*
X328657088Y-94498423D01*
X328631256Y-94553821D01*
X328570044Y-94685090D01*
X328568622Y-94690398D01*
X328568621Y-94690400D01*
X328534782Y-94816688D01*
X328515314Y-94889345D01*
X328496884Y-95100000D01*
X328515314Y-95310655D01*
X328516738Y-95315968D01*
X328516738Y-95315970D01*
X328537458Y-95393296D01*
X328570044Y-95514910D01*
X328572366Y-95519891D01*
X328572367Y-95519892D01*
X328621301Y-95624830D01*
X328659411Y-95706558D01*
X328780699Y-95879776D01*
X328930224Y-96029301D01*
X329026606Y-96096788D01*
X329070933Y-96152244D01*
X329078242Y-96222863D01*
X329046211Y-96286224D01*
X329026607Y-96303211D01*
X328930224Y-96370699D01*
X328780699Y-96520224D01*
X328659411Y-96693442D01*
X328657090Y-96698420D01*
X328657088Y-96698423D01*
X328572367Y-96880108D01*
X328570044Y-96885090D01*
X328568622Y-96890398D01*
X328568621Y-96890400D01*
X328550247Y-96958972D01*
X328515314Y-97089345D01*
X328496884Y-97300000D01*
X321508500Y-97300000D01*
X321508500Y-89700000D01*
X328496884Y-89700000D01*
X328515314Y-89910655D01*
X328516738Y-89915968D01*
X328516738Y-89915970D01*
X328539511Y-90000958D01*
X328570044Y-90114910D01*
X328572366Y-90119891D01*
X328572367Y-90119892D01*
X328632510Y-90248868D01*
X328659411Y-90306558D01*
X328780699Y-90479776D01*
X328930224Y-90629301D01*
X329103442Y-90750589D01*
X329108420Y-90752910D01*
X329108423Y-90752912D01*
X329236753Y-90812753D01*
X329295090Y-90839956D01*
X329300398Y-90841378D01*
X329300400Y-90841379D01*
X329494030Y-90893262D01*
X329494032Y-90893262D01*
X329499345Y-90894686D01*
X329710000Y-90913116D01*
X329920655Y-90894686D01*
X329925968Y-90893262D01*
X329925970Y-90893262D01*
X330119600Y-90841379D01*
X330119602Y-90841378D01*
X330124910Y-90839956D01*
X330183247Y-90812753D01*
X330311577Y-90752912D01*
X330311580Y-90752910D01*
X330316558Y-90750589D01*
X330368440Y-90714261D01*
X334140294Y-90714261D01*
X334149590Y-90726276D01*
X334179189Y-90747001D01*
X334188677Y-90752479D01*
X334370277Y-90837159D01*
X334380571Y-90840907D01*
X334574122Y-90892769D01*
X334584909Y-90894671D01*
X334784525Y-90912135D01*
X334795475Y-90912135D01*
X334995091Y-90894671D01*
X335005878Y-90892769D01*
X335199429Y-90840907D01*
X335209723Y-90837159D01*
X335391323Y-90752479D01*
X335400811Y-90747001D01*
X335431248Y-90725689D01*
X335439623Y-90715212D01*
X335432554Y-90701764D01*
X334802812Y-90072022D01*
X334788868Y-90064408D01*
X334787035Y-90064539D01*
X334780420Y-90068790D01*
X334146724Y-90702486D01*
X334140294Y-90714261D01*
X330368440Y-90714261D01*
X330489776Y-90629301D01*
X330639301Y-90479776D01*
X330760589Y-90306558D01*
X330787491Y-90248868D01*
X330847633Y-90119892D01*
X330847634Y-90119891D01*
X330849956Y-90114910D01*
X330880490Y-90000958D01*
X330903262Y-89915970D01*
X330903262Y-89915968D01*
X330904686Y-89910655D01*
X330922637Y-89705475D01*
X333577865Y-89705475D01*
X333595329Y-89905091D01*
X333597231Y-89915878D01*
X333649093Y-90109429D01*
X333652841Y-90119723D01*
X333737521Y-90301323D01*
X333742999Y-90310811D01*
X333764311Y-90341248D01*
X333774788Y-90349623D01*
X333788236Y-90342554D01*
X334417978Y-89712812D01*
X334424356Y-89701132D01*
X335154408Y-89701132D01*
X335154539Y-89702965D01*
X335158790Y-89709580D01*
X335792486Y-90343276D01*
X335804261Y-90349706D01*
X335816276Y-90340410D01*
X335837001Y-90310811D01*
X335842479Y-90301323D01*
X335927159Y-90119723D01*
X335930907Y-90109429D01*
X335982769Y-89915878D01*
X335984671Y-89905091D01*
X336002135Y-89705475D01*
X336002135Y-89694525D01*
X335984671Y-89494909D01*
X335982769Y-89484122D01*
X335930907Y-89290571D01*
X335927159Y-89280277D01*
X335842479Y-89098677D01*
X335837001Y-89089189D01*
X335815689Y-89058752D01*
X335805212Y-89050377D01*
X335791764Y-89057446D01*
X335162022Y-89687188D01*
X335154408Y-89701132D01*
X334424356Y-89701132D01*
X334425592Y-89698868D01*
X334425461Y-89697035D01*
X334421210Y-89690420D01*
X333787514Y-89056724D01*
X333775739Y-89050294D01*
X333763724Y-89059590D01*
X333742999Y-89089189D01*
X333737521Y-89098677D01*
X333652841Y-89280277D01*
X333649093Y-89290571D01*
X333597231Y-89484122D01*
X333595329Y-89494909D01*
X333577865Y-89694525D01*
X333577865Y-89705475D01*
X330922637Y-89705475D01*
X330923116Y-89700000D01*
X330904686Y-89489345D01*
X330886722Y-89422301D01*
X330851379Y-89290400D01*
X330851378Y-89290398D01*
X330849956Y-89285090D01*
X330842079Y-89268197D01*
X330762912Y-89098423D01*
X330762910Y-89098420D01*
X330760589Y-89093442D01*
X330639301Y-88920224D01*
X330489776Y-88770699D01*
X330367082Y-88684788D01*
X334140377Y-88684788D01*
X334147446Y-88698236D01*
X334777188Y-89327978D01*
X334791132Y-89335592D01*
X334792965Y-89335461D01*
X334799580Y-89331210D01*
X335433276Y-88697514D01*
X335439706Y-88685739D01*
X335430410Y-88673724D01*
X335400811Y-88652999D01*
X335391323Y-88647521D01*
X335209723Y-88562841D01*
X335199429Y-88559093D01*
X335005878Y-88507231D01*
X334995091Y-88505329D01*
X334795475Y-88487865D01*
X334784525Y-88487865D01*
X334584909Y-88505329D01*
X334574122Y-88507231D01*
X334380571Y-88559093D01*
X334370277Y-88562841D01*
X334188677Y-88647521D01*
X334179189Y-88652999D01*
X334148752Y-88674311D01*
X334140377Y-88684788D01*
X330367082Y-88684788D01*
X330316558Y-88649411D01*
X330311580Y-88647090D01*
X330311577Y-88647088D01*
X330129892Y-88562367D01*
X330129891Y-88562366D01*
X330124910Y-88560044D01*
X330119602Y-88558622D01*
X330119600Y-88558621D01*
X329925970Y-88506738D01*
X329925968Y-88506738D01*
X329920655Y-88505314D01*
X329710000Y-88486884D01*
X329499345Y-88505314D01*
X329494032Y-88506738D01*
X329494030Y-88506738D01*
X329300400Y-88558621D01*
X329300398Y-88558622D01*
X329295090Y-88560044D01*
X329290109Y-88562366D01*
X329290108Y-88562367D01*
X329108423Y-88647088D01*
X329108420Y-88647090D01*
X329103442Y-88649411D01*
X328930224Y-88770699D01*
X328780699Y-88920224D01*
X328659411Y-89093442D01*
X328657090Y-89098420D01*
X328657088Y-89098423D01*
X328577921Y-89268197D01*
X328570044Y-89285090D01*
X328568622Y-89290398D01*
X328568621Y-89290400D01*
X328533278Y-89422301D01*
X328515314Y-89489345D01*
X328496884Y-89700000D01*
X321508500Y-89700000D01*
X321508500Y-88420000D01*
X336436502Y-88420000D01*
X336456457Y-88648087D01*
X336457881Y-88653400D01*
X336457881Y-88653402D01*
X336488465Y-88767540D01*
X336515716Y-88869243D01*
X336518039Y-88874224D01*
X336518039Y-88874225D01*
X336610151Y-89071762D01*
X336610154Y-89071767D01*
X336612477Y-89076749D01*
X336743802Y-89264300D01*
X336905700Y-89426198D01*
X336910208Y-89429355D01*
X336910211Y-89429357D01*
X336988292Y-89484030D01*
X337093251Y-89557523D01*
X337098233Y-89559846D01*
X337098238Y-89559849D01*
X337295775Y-89651961D01*
X337300757Y-89654284D01*
X337306065Y-89655706D01*
X337306067Y-89655707D01*
X337516598Y-89712119D01*
X337516600Y-89712119D01*
X337521913Y-89713543D01*
X337750000Y-89733498D01*
X337978087Y-89713543D01*
X337983400Y-89712119D01*
X337983402Y-89712119D01*
X338028630Y-89700000D01*
X339996884Y-89700000D01*
X340015314Y-89910655D01*
X340016738Y-89915968D01*
X340016738Y-89915970D01*
X340039511Y-90000958D01*
X340070044Y-90114910D01*
X340072366Y-90119891D01*
X340072367Y-90119892D01*
X340132510Y-90248868D01*
X340159411Y-90306558D01*
X340280699Y-90479776D01*
X340430224Y-90629301D01*
X340603442Y-90750589D01*
X340608420Y-90752910D01*
X340608423Y-90752912D01*
X340736753Y-90812753D01*
X340795090Y-90839956D01*
X340800398Y-90841378D01*
X340800400Y-90841379D01*
X340994030Y-90893262D01*
X340994032Y-90893262D01*
X340999345Y-90894686D01*
X341210000Y-90913116D01*
X341420655Y-90894686D01*
X341425968Y-90893262D01*
X341425970Y-90893262D01*
X341619600Y-90841379D01*
X341619602Y-90841378D01*
X341624910Y-90839956D01*
X341683247Y-90812753D01*
X341811577Y-90752912D01*
X341811580Y-90752910D01*
X341816558Y-90750589D01*
X341868440Y-90714261D01*
X345640294Y-90714261D01*
X345649590Y-90726276D01*
X345679189Y-90747001D01*
X345688677Y-90752479D01*
X345870277Y-90837159D01*
X345880571Y-90840907D01*
X346074122Y-90892769D01*
X346084909Y-90894671D01*
X346284525Y-90912135D01*
X346295475Y-90912135D01*
X346495091Y-90894671D01*
X346505878Y-90892769D01*
X346699429Y-90840907D01*
X346709723Y-90837159D01*
X346891323Y-90752479D01*
X346900811Y-90747001D01*
X346931248Y-90725689D01*
X346939623Y-90715212D01*
X346932554Y-90701764D01*
X346302812Y-90072022D01*
X346288868Y-90064408D01*
X346287035Y-90064539D01*
X346280420Y-90068790D01*
X345646724Y-90702486D01*
X345640294Y-90714261D01*
X341868440Y-90714261D01*
X341989776Y-90629301D01*
X342139301Y-90479776D01*
X342260589Y-90306558D01*
X342287491Y-90248868D01*
X342347633Y-90119892D01*
X342347634Y-90119891D01*
X342349956Y-90114910D01*
X342380490Y-90000958D01*
X342403262Y-89915970D01*
X342403262Y-89915968D01*
X342404686Y-89910655D01*
X342422637Y-89705475D01*
X345077865Y-89705475D01*
X345095329Y-89905091D01*
X345097231Y-89915878D01*
X345149093Y-90109429D01*
X345152841Y-90119723D01*
X345237521Y-90301323D01*
X345242999Y-90310811D01*
X345264311Y-90341248D01*
X345274788Y-90349623D01*
X345288236Y-90342554D01*
X345917978Y-89712812D01*
X345924356Y-89701132D01*
X346654408Y-89701132D01*
X346654539Y-89702965D01*
X346658790Y-89709580D01*
X347292486Y-90343276D01*
X347304261Y-90349706D01*
X347316276Y-90340410D01*
X347337001Y-90310811D01*
X347342479Y-90301323D01*
X347427159Y-90119723D01*
X347430907Y-90109429D01*
X347482769Y-89915878D01*
X347484671Y-89905091D01*
X347502135Y-89705475D01*
X347502135Y-89694525D01*
X347484671Y-89494909D01*
X347482769Y-89484122D01*
X347430907Y-89290571D01*
X347427159Y-89280277D01*
X347342479Y-89098677D01*
X347337001Y-89089189D01*
X347315689Y-89058752D01*
X347305212Y-89050377D01*
X347291764Y-89057446D01*
X346662022Y-89687188D01*
X346654408Y-89701132D01*
X345924356Y-89701132D01*
X345925592Y-89698868D01*
X345925461Y-89697035D01*
X345921210Y-89690420D01*
X345287514Y-89056724D01*
X345275739Y-89050294D01*
X345263724Y-89059590D01*
X345242999Y-89089189D01*
X345237521Y-89098677D01*
X345152841Y-89280277D01*
X345149093Y-89290571D01*
X345097231Y-89484122D01*
X345095329Y-89494909D01*
X345077865Y-89694525D01*
X345077865Y-89705475D01*
X342422637Y-89705475D01*
X342423116Y-89700000D01*
X342404686Y-89489345D01*
X342386722Y-89422301D01*
X342351379Y-89290400D01*
X342351378Y-89290398D01*
X342349956Y-89285090D01*
X342342079Y-89268197D01*
X342262912Y-89098423D01*
X342262910Y-89098420D01*
X342260589Y-89093442D01*
X342139301Y-88920224D01*
X341989776Y-88770699D01*
X341867082Y-88684788D01*
X345640377Y-88684788D01*
X345647446Y-88698236D01*
X346277188Y-89327978D01*
X346291132Y-89335592D01*
X346292965Y-89335461D01*
X346299580Y-89331210D01*
X346933276Y-88697514D01*
X346939706Y-88685739D01*
X346930410Y-88673724D01*
X346900811Y-88652999D01*
X346891323Y-88647521D01*
X346709723Y-88562841D01*
X346699429Y-88559093D01*
X346505878Y-88507231D01*
X346495091Y-88505329D01*
X346295475Y-88487865D01*
X346284525Y-88487865D01*
X346084909Y-88505329D01*
X346074122Y-88507231D01*
X345880571Y-88559093D01*
X345870277Y-88562841D01*
X345688677Y-88647521D01*
X345679189Y-88652999D01*
X345648752Y-88674311D01*
X345640377Y-88684788D01*
X341867082Y-88684788D01*
X341816558Y-88649411D01*
X341811580Y-88647090D01*
X341811577Y-88647088D01*
X341629892Y-88562367D01*
X341629891Y-88562366D01*
X341624910Y-88560044D01*
X341619602Y-88558622D01*
X341619600Y-88558621D01*
X341425970Y-88506738D01*
X341425968Y-88506738D01*
X341420655Y-88505314D01*
X341210000Y-88486884D01*
X340999345Y-88505314D01*
X340994032Y-88506738D01*
X340994030Y-88506738D01*
X340800400Y-88558621D01*
X340800398Y-88558622D01*
X340795090Y-88560044D01*
X340790109Y-88562366D01*
X340790108Y-88562367D01*
X340608423Y-88647088D01*
X340608420Y-88647090D01*
X340603442Y-88649411D01*
X340430224Y-88770699D01*
X340280699Y-88920224D01*
X340159411Y-89093442D01*
X340157090Y-89098420D01*
X340157088Y-89098423D01*
X340077921Y-89268197D01*
X340070044Y-89285090D01*
X340068622Y-89290398D01*
X340068621Y-89290400D01*
X340033278Y-89422301D01*
X340015314Y-89489345D01*
X339996884Y-89700000D01*
X338028630Y-89700000D01*
X338193933Y-89655707D01*
X338193935Y-89655706D01*
X338199243Y-89654284D01*
X338204225Y-89651961D01*
X338401762Y-89559849D01*
X338401767Y-89559846D01*
X338406749Y-89557523D01*
X338511708Y-89484030D01*
X338589789Y-89429357D01*
X338589792Y-89429355D01*
X338594300Y-89426198D01*
X338756198Y-89264300D01*
X338887523Y-89076749D01*
X338889846Y-89071767D01*
X338889849Y-89071762D01*
X338981961Y-88874225D01*
X338981961Y-88874224D01*
X338984284Y-88869243D01*
X339011536Y-88767540D01*
X339042119Y-88653402D01*
X339042119Y-88653400D01*
X339043543Y-88648087D01*
X339063498Y-88420000D01*
X347936502Y-88420000D01*
X347956457Y-88648087D01*
X347957881Y-88653400D01*
X347957881Y-88653402D01*
X347988465Y-88767540D01*
X348015716Y-88869243D01*
X348018039Y-88874224D01*
X348018039Y-88874225D01*
X348110151Y-89071762D01*
X348110154Y-89071767D01*
X348112477Y-89076749D01*
X348243802Y-89264300D01*
X348405700Y-89426198D01*
X348410208Y-89429355D01*
X348410211Y-89429357D01*
X348488292Y-89484030D01*
X348593251Y-89557523D01*
X348598233Y-89559846D01*
X348598238Y-89559849D01*
X348795775Y-89651961D01*
X348800757Y-89654284D01*
X348806065Y-89655706D01*
X348806067Y-89655707D01*
X349016598Y-89712119D01*
X349016600Y-89712119D01*
X349021913Y-89713543D01*
X349250000Y-89733498D01*
X349478087Y-89713543D01*
X349483400Y-89712119D01*
X349483402Y-89712119D01*
X349528630Y-89700000D01*
X351496884Y-89700000D01*
X351515314Y-89910655D01*
X351516738Y-89915968D01*
X351516738Y-89915970D01*
X351539511Y-90000958D01*
X351570044Y-90114910D01*
X351572366Y-90119891D01*
X351572367Y-90119892D01*
X351632510Y-90248868D01*
X351659411Y-90306558D01*
X351780699Y-90479776D01*
X351930224Y-90629301D01*
X352103442Y-90750589D01*
X352108420Y-90752910D01*
X352108423Y-90752912D01*
X352236753Y-90812753D01*
X352295090Y-90839956D01*
X352300398Y-90841378D01*
X352300400Y-90841379D01*
X352494030Y-90893262D01*
X352494032Y-90893262D01*
X352499345Y-90894686D01*
X352710000Y-90913116D01*
X352920655Y-90894686D01*
X352925968Y-90893262D01*
X352925970Y-90893262D01*
X353119600Y-90841379D01*
X353119602Y-90841378D01*
X353124910Y-90839956D01*
X353183247Y-90812753D01*
X353311577Y-90752912D01*
X353311580Y-90752910D01*
X353316558Y-90750589D01*
X353368440Y-90714261D01*
X357140294Y-90714261D01*
X357149590Y-90726276D01*
X357179189Y-90747001D01*
X357188677Y-90752479D01*
X357370277Y-90837159D01*
X357380571Y-90840907D01*
X357574122Y-90892769D01*
X357584909Y-90894671D01*
X357784525Y-90912135D01*
X357795475Y-90912135D01*
X357995091Y-90894671D01*
X358005878Y-90892769D01*
X358199429Y-90840907D01*
X358209723Y-90837159D01*
X358391323Y-90752479D01*
X358400811Y-90747001D01*
X358431248Y-90725689D01*
X358439623Y-90715212D01*
X358432554Y-90701764D01*
X357802812Y-90072022D01*
X357788868Y-90064408D01*
X357787035Y-90064539D01*
X357780420Y-90068790D01*
X357146724Y-90702486D01*
X357140294Y-90714261D01*
X353368440Y-90714261D01*
X353489776Y-90629301D01*
X353639301Y-90479776D01*
X353760589Y-90306558D01*
X353787491Y-90248868D01*
X353847633Y-90119892D01*
X353847634Y-90119891D01*
X353849956Y-90114910D01*
X353880490Y-90000958D01*
X353903262Y-89915970D01*
X353903262Y-89915968D01*
X353904686Y-89910655D01*
X353922637Y-89705475D01*
X356577865Y-89705475D01*
X356595329Y-89905091D01*
X356597231Y-89915878D01*
X356649093Y-90109429D01*
X356652841Y-90119723D01*
X356737521Y-90301323D01*
X356742999Y-90310811D01*
X356764311Y-90341248D01*
X356774788Y-90349623D01*
X356788236Y-90342554D01*
X357417978Y-89712812D01*
X357424356Y-89701132D01*
X358154408Y-89701132D01*
X358154539Y-89702965D01*
X358158790Y-89709580D01*
X358792486Y-90343276D01*
X358804261Y-90349706D01*
X358816276Y-90340410D01*
X358837001Y-90310811D01*
X358842479Y-90301323D01*
X358927159Y-90119723D01*
X358930907Y-90109429D01*
X358982769Y-89915878D01*
X358984671Y-89905091D01*
X359002135Y-89705475D01*
X359002135Y-89694525D01*
X358984671Y-89494909D01*
X358982769Y-89484122D01*
X358930907Y-89290571D01*
X358927159Y-89280277D01*
X358842479Y-89098677D01*
X358837001Y-89089189D01*
X358815689Y-89058752D01*
X358805212Y-89050377D01*
X358791764Y-89057446D01*
X358162022Y-89687188D01*
X358154408Y-89701132D01*
X357424356Y-89701132D01*
X357425592Y-89698868D01*
X357425461Y-89697035D01*
X357421210Y-89690420D01*
X356787514Y-89056724D01*
X356775739Y-89050294D01*
X356763724Y-89059590D01*
X356742999Y-89089189D01*
X356737521Y-89098677D01*
X356652841Y-89280277D01*
X356649093Y-89290571D01*
X356597231Y-89484122D01*
X356595329Y-89494909D01*
X356577865Y-89694525D01*
X356577865Y-89705475D01*
X353922637Y-89705475D01*
X353923116Y-89700000D01*
X353904686Y-89489345D01*
X353886722Y-89422301D01*
X353851379Y-89290400D01*
X353851378Y-89290398D01*
X353849956Y-89285090D01*
X353842079Y-89268197D01*
X353762912Y-89098423D01*
X353762910Y-89098420D01*
X353760589Y-89093442D01*
X353639301Y-88920224D01*
X353489776Y-88770699D01*
X353367082Y-88684788D01*
X357140377Y-88684788D01*
X357147446Y-88698236D01*
X357777188Y-89327978D01*
X357791132Y-89335592D01*
X357792965Y-89335461D01*
X357799580Y-89331210D01*
X358433276Y-88697514D01*
X358439706Y-88685739D01*
X358430410Y-88673724D01*
X358400811Y-88652999D01*
X358391323Y-88647521D01*
X358209723Y-88562841D01*
X358199429Y-88559093D01*
X358005878Y-88507231D01*
X357995091Y-88505329D01*
X357795475Y-88487865D01*
X357784525Y-88487865D01*
X357584909Y-88505329D01*
X357574122Y-88507231D01*
X357380571Y-88559093D01*
X357370277Y-88562841D01*
X357188677Y-88647521D01*
X357179189Y-88652999D01*
X357148752Y-88674311D01*
X357140377Y-88684788D01*
X353367082Y-88684788D01*
X353316558Y-88649411D01*
X353311580Y-88647090D01*
X353311577Y-88647088D01*
X353129892Y-88562367D01*
X353129891Y-88562366D01*
X353124910Y-88560044D01*
X353119602Y-88558622D01*
X353119600Y-88558621D01*
X352925970Y-88506738D01*
X352925968Y-88506738D01*
X352920655Y-88505314D01*
X352710000Y-88486884D01*
X352499345Y-88505314D01*
X352494032Y-88506738D01*
X352494030Y-88506738D01*
X352300400Y-88558621D01*
X352300398Y-88558622D01*
X352295090Y-88560044D01*
X352290109Y-88562366D01*
X352290108Y-88562367D01*
X352108423Y-88647088D01*
X352108420Y-88647090D01*
X352103442Y-88649411D01*
X351930224Y-88770699D01*
X351780699Y-88920224D01*
X351659411Y-89093442D01*
X351657090Y-89098420D01*
X351657088Y-89098423D01*
X351577921Y-89268197D01*
X351570044Y-89285090D01*
X351568622Y-89290398D01*
X351568621Y-89290400D01*
X351533278Y-89422301D01*
X351515314Y-89489345D01*
X351496884Y-89700000D01*
X349528630Y-89700000D01*
X349693933Y-89655707D01*
X349693935Y-89655706D01*
X349699243Y-89654284D01*
X349704225Y-89651961D01*
X349901762Y-89559849D01*
X349901767Y-89559846D01*
X349906749Y-89557523D01*
X350011708Y-89484030D01*
X350089789Y-89429357D01*
X350089792Y-89429355D01*
X350094300Y-89426198D01*
X350256198Y-89264300D01*
X350387523Y-89076749D01*
X350389846Y-89071767D01*
X350389849Y-89071762D01*
X350481961Y-88874225D01*
X350481961Y-88874224D01*
X350484284Y-88869243D01*
X350511536Y-88767540D01*
X350542119Y-88653402D01*
X350542119Y-88653400D01*
X350543543Y-88648087D01*
X350563498Y-88420000D01*
X359436502Y-88420000D01*
X359456457Y-88648087D01*
X359457881Y-88653400D01*
X359457881Y-88653402D01*
X359488465Y-88767540D01*
X359515716Y-88869243D01*
X359518039Y-88874224D01*
X359518039Y-88874225D01*
X359610151Y-89071762D01*
X359610154Y-89071767D01*
X359612477Y-89076749D01*
X359743802Y-89264300D01*
X359905700Y-89426198D01*
X359910208Y-89429355D01*
X359910211Y-89429357D01*
X359988292Y-89484030D01*
X360093251Y-89557523D01*
X360098233Y-89559846D01*
X360098238Y-89559849D01*
X360295775Y-89651961D01*
X360300757Y-89654284D01*
X360306065Y-89655706D01*
X360306067Y-89655707D01*
X360516598Y-89712119D01*
X360516600Y-89712119D01*
X360521913Y-89713543D01*
X360750000Y-89733498D01*
X360978087Y-89713543D01*
X360983400Y-89712119D01*
X360983402Y-89712119D01*
X361028630Y-89700000D01*
X362996884Y-89700000D01*
X363015314Y-89910655D01*
X363016738Y-89915968D01*
X363016738Y-89915970D01*
X363039511Y-90000958D01*
X363070044Y-90114910D01*
X363072366Y-90119891D01*
X363072367Y-90119892D01*
X363132510Y-90248868D01*
X363159411Y-90306558D01*
X363280699Y-90479776D01*
X363430224Y-90629301D01*
X363603442Y-90750589D01*
X363608420Y-90752910D01*
X363608423Y-90752912D01*
X363736753Y-90812753D01*
X363795090Y-90839956D01*
X363800398Y-90841378D01*
X363800400Y-90841379D01*
X363994030Y-90893262D01*
X363994032Y-90893262D01*
X363999345Y-90894686D01*
X364210000Y-90913116D01*
X364420655Y-90894686D01*
X364425968Y-90893262D01*
X364425970Y-90893262D01*
X364619600Y-90841379D01*
X364619602Y-90841378D01*
X364624910Y-90839956D01*
X364683247Y-90812753D01*
X364811577Y-90752912D01*
X364811580Y-90752910D01*
X364816558Y-90750589D01*
X364868440Y-90714261D01*
X368640294Y-90714261D01*
X368649590Y-90726276D01*
X368679189Y-90747001D01*
X368688677Y-90752479D01*
X368870277Y-90837159D01*
X368880571Y-90840907D01*
X369074122Y-90892769D01*
X369084909Y-90894671D01*
X369284525Y-90912135D01*
X369295475Y-90912135D01*
X369495091Y-90894671D01*
X369505878Y-90892769D01*
X369699429Y-90840907D01*
X369709723Y-90837159D01*
X369891323Y-90752479D01*
X369900811Y-90747001D01*
X369931248Y-90725689D01*
X369939623Y-90715212D01*
X369932554Y-90701764D01*
X369302812Y-90072022D01*
X369288868Y-90064408D01*
X369287035Y-90064539D01*
X369280420Y-90068790D01*
X368646724Y-90702486D01*
X368640294Y-90714261D01*
X364868440Y-90714261D01*
X364989776Y-90629301D01*
X365139301Y-90479776D01*
X365260589Y-90306558D01*
X365287491Y-90248868D01*
X365347633Y-90119892D01*
X365347634Y-90119891D01*
X365349956Y-90114910D01*
X365380490Y-90000958D01*
X365403262Y-89915970D01*
X365403262Y-89915968D01*
X365404686Y-89910655D01*
X365422637Y-89705475D01*
X368077865Y-89705475D01*
X368095329Y-89905091D01*
X368097231Y-89915878D01*
X368149093Y-90109429D01*
X368152841Y-90119723D01*
X368237521Y-90301323D01*
X368242999Y-90310811D01*
X368264311Y-90341248D01*
X368274788Y-90349623D01*
X368288236Y-90342554D01*
X368917978Y-89712812D01*
X368924356Y-89701132D01*
X369654408Y-89701132D01*
X369654539Y-89702965D01*
X369658790Y-89709580D01*
X370292486Y-90343276D01*
X370304261Y-90349706D01*
X370316276Y-90340410D01*
X370337001Y-90310811D01*
X370342479Y-90301323D01*
X370427159Y-90119723D01*
X370430907Y-90109429D01*
X370482769Y-89915878D01*
X370484671Y-89905091D01*
X370502135Y-89705475D01*
X370502135Y-89694525D01*
X370484671Y-89494909D01*
X370482769Y-89484122D01*
X370430907Y-89290571D01*
X370427159Y-89280277D01*
X370342479Y-89098677D01*
X370337001Y-89089189D01*
X370315689Y-89058752D01*
X370305212Y-89050377D01*
X370291764Y-89057446D01*
X369662022Y-89687188D01*
X369654408Y-89701132D01*
X368924356Y-89701132D01*
X368925592Y-89698868D01*
X368925461Y-89697035D01*
X368921210Y-89690420D01*
X368287514Y-89056724D01*
X368275739Y-89050294D01*
X368263724Y-89059590D01*
X368242999Y-89089189D01*
X368237521Y-89098677D01*
X368152841Y-89280277D01*
X368149093Y-89290571D01*
X368097231Y-89484122D01*
X368095329Y-89494909D01*
X368077865Y-89694525D01*
X368077865Y-89705475D01*
X365422637Y-89705475D01*
X365423116Y-89700000D01*
X365404686Y-89489345D01*
X365386722Y-89422301D01*
X365351379Y-89290400D01*
X365351378Y-89290398D01*
X365349956Y-89285090D01*
X365342079Y-89268197D01*
X365262912Y-89098423D01*
X365262910Y-89098420D01*
X365260589Y-89093442D01*
X365139301Y-88920224D01*
X364989776Y-88770699D01*
X364867082Y-88684788D01*
X368640377Y-88684788D01*
X368647446Y-88698236D01*
X369277188Y-89327978D01*
X369291132Y-89335592D01*
X369292965Y-89335461D01*
X369299580Y-89331210D01*
X369933276Y-88697514D01*
X369939706Y-88685739D01*
X369930410Y-88673724D01*
X369900811Y-88652999D01*
X369891323Y-88647521D01*
X369709723Y-88562841D01*
X369699429Y-88559093D01*
X369505878Y-88507231D01*
X369495091Y-88505329D01*
X369295475Y-88487865D01*
X369284525Y-88487865D01*
X369084909Y-88505329D01*
X369074122Y-88507231D01*
X368880571Y-88559093D01*
X368870277Y-88562841D01*
X368688677Y-88647521D01*
X368679189Y-88652999D01*
X368648752Y-88674311D01*
X368640377Y-88684788D01*
X364867082Y-88684788D01*
X364816558Y-88649411D01*
X364811580Y-88647090D01*
X364811577Y-88647088D01*
X364629892Y-88562367D01*
X364629891Y-88562366D01*
X364624910Y-88560044D01*
X364619602Y-88558622D01*
X364619600Y-88558621D01*
X364425970Y-88506738D01*
X364425968Y-88506738D01*
X364420655Y-88505314D01*
X364210000Y-88486884D01*
X363999345Y-88505314D01*
X363994032Y-88506738D01*
X363994030Y-88506738D01*
X363800400Y-88558621D01*
X363800398Y-88558622D01*
X363795090Y-88560044D01*
X363790109Y-88562366D01*
X363790108Y-88562367D01*
X363608423Y-88647088D01*
X363608420Y-88647090D01*
X363603442Y-88649411D01*
X363430224Y-88770699D01*
X363280699Y-88920224D01*
X363159411Y-89093442D01*
X363157090Y-89098420D01*
X363157088Y-89098423D01*
X363077921Y-89268197D01*
X363070044Y-89285090D01*
X363068622Y-89290398D01*
X363068621Y-89290400D01*
X363033278Y-89422301D01*
X363015314Y-89489345D01*
X362996884Y-89700000D01*
X361028630Y-89700000D01*
X361193933Y-89655707D01*
X361193935Y-89655706D01*
X361199243Y-89654284D01*
X361204225Y-89651961D01*
X361401762Y-89559849D01*
X361401767Y-89559846D01*
X361406749Y-89557523D01*
X361511708Y-89484030D01*
X361589789Y-89429357D01*
X361589792Y-89429355D01*
X361594300Y-89426198D01*
X361756198Y-89264300D01*
X361887523Y-89076749D01*
X361889846Y-89071767D01*
X361889849Y-89071762D01*
X361981961Y-88874225D01*
X361981961Y-88874224D01*
X361984284Y-88869243D01*
X362011536Y-88767540D01*
X362042119Y-88653402D01*
X362042119Y-88653400D01*
X362043543Y-88648087D01*
X362063498Y-88420000D01*
X370936502Y-88420000D01*
X370956457Y-88648087D01*
X370957881Y-88653400D01*
X370957881Y-88653402D01*
X370988465Y-88767540D01*
X371015716Y-88869243D01*
X371018039Y-88874224D01*
X371018039Y-88874225D01*
X371110151Y-89071762D01*
X371110154Y-89071767D01*
X371112477Y-89076749D01*
X371243802Y-89264300D01*
X371405700Y-89426198D01*
X371410208Y-89429355D01*
X371410211Y-89429357D01*
X371488292Y-89484030D01*
X371593251Y-89557523D01*
X371598233Y-89559846D01*
X371598238Y-89559849D01*
X371795775Y-89651961D01*
X371800757Y-89654284D01*
X371806065Y-89655706D01*
X371806067Y-89655707D01*
X372016598Y-89712119D01*
X372016600Y-89712119D01*
X372021913Y-89713543D01*
X372250000Y-89733498D01*
X372478087Y-89713543D01*
X372483400Y-89712119D01*
X372483402Y-89712119D01*
X372528630Y-89700000D01*
X374496884Y-89700000D01*
X374515314Y-89910655D01*
X374516738Y-89915968D01*
X374516738Y-89915970D01*
X374539511Y-90000958D01*
X374570044Y-90114910D01*
X374572366Y-90119891D01*
X374572367Y-90119892D01*
X374632510Y-90248868D01*
X374659411Y-90306558D01*
X374780699Y-90479776D01*
X374930224Y-90629301D01*
X375103442Y-90750589D01*
X375108420Y-90752910D01*
X375108423Y-90752912D01*
X375236753Y-90812753D01*
X375295090Y-90839956D01*
X375300398Y-90841378D01*
X375300400Y-90841379D01*
X375494030Y-90893262D01*
X375494032Y-90893262D01*
X375499345Y-90894686D01*
X375710000Y-90913116D01*
X375920655Y-90894686D01*
X375925968Y-90893262D01*
X375925970Y-90893262D01*
X376119600Y-90841379D01*
X376119602Y-90841378D01*
X376124910Y-90839956D01*
X376183247Y-90812753D01*
X376311577Y-90752912D01*
X376311580Y-90752910D01*
X376316558Y-90750589D01*
X376368440Y-90714261D01*
X380140294Y-90714261D01*
X380149590Y-90726276D01*
X380179189Y-90747001D01*
X380188677Y-90752479D01*
X380370277Y-90837159D01*
X380380571Y-90840907D01*
X380574122Y-90892769D01*
X380584909Y-90894671D01*
X380784525Y-90912135D01*
X380795475Y-90912135D01*
X380995091Y-90894671D01*
X381005878Y-90892769D01*
X381199429Y-90840907D01*
X381209723Y-90837159D01*
X381391323Y-90752479D01*
X381400811Y-90747001D01*
X381431248Y-90725689D01*
X381439623Y-90715212D01*
X381432554Y-90701764D01*
X380802812Y-90072022D01*
X380788868Y-90064408D01*
X380787035Y-90064539D01*
X380780420Y-90068790D01*
X380146724Y-90702486D01*
X380140294Y-90714261D01*
X376368440Y-90714261D01*
X376489776Y-90629301D01*
X376639301Y-90479776D01*
X376760589Y-90306558D01*
X376787491Y-90248868D01*
X376847633Y-90119892D01*
X376847634Y-90119891D01*
X376849956Y-90114910D01*
X376880490Y-90000958D01*
X376903262Y-89915970D01*
X376903262Y-89915968D01*
X376904686Y-89910655D01*
X376922637Y-89705475D01*
X379577865Y-89705475D01*
X379595329Y-89905091D01*
X379597231Y-89915878D01*
X379649093Y-90109429D01*
X379652841Y-90119723D01*
X379737521Y-90301323D01*
X379742999Y-90310811D01*
X379764311Y-90341248D01*
X379774788Y-90349623D01*
X379788236Y-90342554D01*
X380417978Y-89712812D01*
X380424356Y-89701132D01*
X381154408Y-89701132D01*
X381154539Y-89702965D01*
X381158790Y-89709580D01*
X381792486Y-90343276D01*
X381804261Y-90349706D01*
X381816276Y-90340410D01*
X381837001Y-90310811D01*
X381842479Y-90301323D01*
X381927159Y-90119723D01*
X381930907Y-90109429D01*
X381960229Y-90000000D01*
X396606502Y-90000000D01*
X396626457Y-90228087D01*
X396627881Y-90233400D01*
X396627881Y-90233402D01*
X396657129Y-90342554D01*
X396685716Y-90449243D01*
X396688039Y-90454224D01*
X396688039Y-90454225D01*
X396780151Y-90651762D01*
X396780154Y-90651767D01*
X396782477Y-90656749D01*
X396845672Y-90747001D01*
X396909134Y-90837633D01*
X396913802Y-90844300D01*
X397075700Y-91006198D01*
X397080208Y-91009355D01*
X397080211Y-91009357D01*
X397122330Y-91038849D01*
X397263251Y-91137523D01*
X397268233Y-91139846D01*
X397268238Y-91139849D01*
X397444047Y-91221829D01*
X397470757Y-91234284D01*
X397476065Y-91235706D01*
X397476067Y-91235707D01*
X397686598Y-91292119D01*
X397686600Y-91292119D01*
X397691913Y-91293543D01*
X397920000Y-91313498D01*
X398148087Y-91293543D01*
X398153400Y-91292119D01*
X398153402Y-91292119D01*
X398363933Y-91235707D01*
X398363935Y-91235706D01*
X398369243Y-91234284D01*
X398395953Y-91221829D01*
X398571762Y-91139849D01*
X398571767Y-91139846D01*
X398576749Y-91137523D01*
X398717670Y-91038849D01*
X398759789Y-91009357D01*
X398759792Y-91009355D01*
X398764300Y-91006198D01*
X398926198Y-90844300D01*
X398930867Y-90837633D01*
X398994328Y-90747001D01*
X399057523Y-90656749D01*
X399059846Y-90651767D01*
X399059849Y-90651762D01*
X399151961Y-90454225D01*
X399151961Y-90454224D01*
X399154284Y-90449243D01*
X399182872Y-90342554D01*
X399212119Y-90233402D01*
X399212119Y-90233400D01*
X399213543Y-90228087D01*
X399233498Y-90000000D01*
X406766502Y-90000000D01*
X406786457Y-90228087D01*
X406787881Y-90233400D01*
X406787881Y-90233402D01*
X406817129Y-90342554D01*
X406845716Y-90449243D01*
X406848039Y-90454224D01*
X406848039Y-90454225D01*
X406940151Y-90651762D01*
X406940154Y-90651767D01*
X406942477Y-90656749D01*
X407005672Y-90747001D01*
X407069134Y-90837633D01*
X407073802Y-90844300D01*
X407235700Y-91006198D01*
X407240208Y-91009355D01*
X407240211Y-91009357D01*
X407282330Y-91038849D01*
X407423251Y-91137523D01*
X407428233Y-91139846D01*
X407428238Y-91139849D01*
X407604047Y-91221829D01*
X407630757Y-91234284D01*
X407636065Y-91235706D01*
X407636067Y-91235707D01*
X407846598Y-91292119D01*
X407846600Y-91292119D01*
X407851913Y-91293543D01*
X408080000Y-91313498D01*
X408308087Y-91293543D01*
X408313400Y-91292119D01*
X408313402Y-91292119D01*
X408523933Y-91235707D01*
X408523935Y-91235706D01*
X408529243Y-91234284D01*
X408555953Y-91221829D01*
X408731762Y-91139849D01*
X408731767Y-91139846D01*
X408736749Y-91137523D01*
X408877670Y-91038849D01*
X408919789Y-91009357D01*
X408919792Y-91009355D01*
X408924300Y-91006198D01*
X409086198Y-90844300D01*
X409090867Y-90837633D01*
X409154328Y-90747001D01*
X409217523Y-90656749D01*
X409219846Y-90651767D01*
X409219849Y-90651762D01*
X409311961Y-90454225D01*
X409311961Y-90454224D01*
X409314284Y-90449243D01*
X409326236Y-90404638D01*
X409989964Y-90404638D01*
X409990163Y-90410343D01*
X410022540Y-90812753D01*
X410023258Y-90818430D01*
X410091970Y-91216229D01*
X410093201Y-91221829D01*
X410197689Y-91611786D01*
X410199413Y-91617219D01*
X410338817Y-91996108D01*
X410341025Y-92001362D01*
X410514192Y-92366050D01*
X410516877Y-92371099D01*
X410722390Y-92718606D01*
X410725500Y-92723358D01*
X410961668Y-93050812D01*
X410965208Y-93055278D01*
X411125528Y-93239704D01*
X411138657Y-93248113D01*
X411148570Y-93242220D01*
X414127978Y-90262812D01*
X414135592Y-90248868D01*
X414135461Y-90247035D01*
X414131210Y-90240420D01*
X411150424Y-87259634D01*
X411136480Y-87252020D01*
X411136287Y-87252033D01*
X411127465Y-87258012D01*
X411024743Y-87371298D01*
X411021091Y-87375712D01*
X410778139Y-87698120D01*
X410774906Y-87702843D01*
X410562173Y-88045946D01*
X410559379Y-88050946D01*
X410378624Y-88411905D01*
X410376290Y-88417147D01*
X410228992Y-88793009D01*
X410227149Y-88798422D01*
X410114517Y-89186103D01*
X410113175Y-89191653D01*
X410036142Y-89587952D01*
X410035309Y-89593593D01*
X409994512Y-89995234D01*
X409994192Y-90000958D01*
X409989964Y-90404638D01*
X409326236Y-90404638D01*
X409342872Y-90342554D01*
X409372119Y-90233402D01*
X409372119Y-90233400D01*
X409373543Y-90228087D01*
X409393498Y-90000000D01*
X409373543Y-89771913D01*
X409353971Y-89698868D01*
X409315707Y-89556067D01*
X409315706Y-89556065D01*
X409314284Y-89550757D01*
X409288203Y-89494825D01*
X409219849Y-89348238D01*
X409219846Y-89348233D01*
X409217523Y-89343251D01*
X409111373Y-89191653D01*
X409089357Y-89160211D01*
X409089355Y-89160208D01*
X409086198Y-89155700D01*
X408924300Y-88993802D01*
X408919792Y-88990645D01*
X408919789Y-88990643D01*
X408813657Y-88916329D01*
X408736749Y-88862477D01*
X408731767Y-88860154D01*
X408731762Y-88860151D01*
X408534225Y-88768039D01*
X408534224Y-88768039D01*
X408529243Y-88765716D01*
X408523935Y-88764294D01*
X408523933Y-88764293D01*
X408313402Y-88707881D01*
X408313400Y-88707881D01*
X408308087Y-88706457D01*
X408080000Y-88686502D01*
X407851913Y-88706457D01*
X407846600Y-88707881D01*
X407846598Y-88707881D01*
X407636067Y-88764293D01*
X407636065Y-88764294D01*
X407630757Y-88765716D01*
X407625776Y-88768039D01*
X407625775Y-88768039D01*
X407428238Y-88860151D01*
X407428233Y-88860154D01*
X407423251Y-88862477D01*
X407346343Y-88916329D01*
X407240211Y-88990643D01*
X407240208Y-88990645D01*
X407235700Y-88993802D01*
X407073802Y-89155700D01*
X407070645Y-89160208D01*
X407070643Y-89160211D01*
X407048627Y-89191653D01*
X406942477Y-89343251D01*
X406940154Y-89348233D01*
X406940151Y-89348238D01*
X406871797Y-89494825D01*
X406845716Y-89550757D01*
X406844294Y-89556065D01*
X406844293Y-89556067D01*
X406806029Y-89698868D01*
X406786457Y-89771913D01*
X406766502Y-90000000D01*
X399233498Y-90000000D01*
X399213543Y-89771913D01*
X399193971Y-89698868D01*
X399155707Y-89556067D01*
X399155706Y-89556065D01*
X399154284Y-89550757D01*
X399128203Y-89494825D01*
X399059849Y-89348238D01*
X399059846Y-89348233D01*
X399057523Y-89343251D01*
X398951373Y-89191653D01*
X398929357Y-89160211D01*
X398929355Y-89160208D01*
X398926198Y-89155700D01*
X398764300Y-88993802D01*
X398759792Y-88990645D01*
X398759789Y-88990643D01*
X398653657Y-88916329D01*
X398576749Y-88862477D01*
X398571767Y-88860154D01*
X398571762Y-88860151D01*
X398374225Y-88768039D01*
X398374224Y-88768039D01*
X398369243Y-88765716D01*
X398363935Y-88764294D01*
X398363933Y-88764293D01*
X398153402Y-88707881D01*
X398153400Y-88707881D01*
X398148087Y-88706457D01*
X397920000Y-88686502D01*
X397691913Y-88706457D01*
X397686600Y-88707881D01*
X397686598Y-88707881D01*
X397476067Y-88764293D01*
X397476065Y-88764294D01*
X397470757Y-88765716D01*
X397465776Y-88768039D01*
X397465775Y-88768039D01*
X397268238Y-88860151D01*
X397268233Y-88860154D01*
X397263251Y-88862477D01*
X397186343Y-88916329D01*
X397080211Y-88990643D01*
X397080208Y-88990645D01*
X397075700Y-88993802D01*
X396913802Y-89155700D01*
X396910645Y-89160208D01*
X396910643Y-89160211D01*
X396888627Y-89191653D01*
X396782477Y-89343251D01*
X396780154Y-89348233D01*
X396780151Y-89348238D01*
X396711797Y-89494825D01*
X396685716Y-89550757D01*
X396684294Y-89556065D01*
X396684293Y-89556067D01*
X396646029Y-89698868D01*
X396626457Y-89771913D01*
X396606502Y-90000000D01*
X381960229Y-90000000D01*
X381982769Y-89915878D01*
X381984671Y-89905091D01*
X382002135Y-89705475D01*
X382002135Y-89694525D01*
X381984671Y-89494909D01*
X381982769Y-89484122D01*
X381930907Y-89290571D01*
X381927159Y-89280277D01*
X381842479Y-89098677D01*
X381837001Y-89089189D01*
X381815689Y-89058752D01*
X381805212Y-89050377D01*
X381791764Y-89057446D01*
X381162022Y-89687188D01*
X381154408Y-89701132D01*
X380424356Y-89701132D01*
X380425592Y-89698868D01*
X380425461Y-89697035D01*
X380421210Y-89690420D01*
X379787514Y-89056724D01*
X379775739Y-89050294D01*
X379763724Y-89059590D01*
X379742999Y-89089189D01*
X379737521Y-89098677D01*
X379652841Y-89280277D01*
X379649093Y-89290571D01*
X379597231Y-89484122D01*
X379595329Y-89494909D01*
X379577865Y-89694525D01*
X379577865Y-89705475D01*
X376922637Y-89705475D01*
X376923116Y-89700000D01*
X376904686Y-89489345D01*
X376886722Y-89422301D01*
X376851379Y-89290400D01*
X376851378Y-89290398D01*
X376849956Y-89285090D01*
X376842079Y-89268197D01*
X376762912Y-89098423D01*
X376762910Y-89098420D01*
X376760589Y-89093442D01*
X376639301Y-88920224D01*
X376489776Y-88770699D01*
X376367082Y-88684788D01*
X380140377Y-88684788D01*
X380147446Y-88698236D01*
X380777188Y-89327978D01*
X380791132Y-89335592D01*
X380792965Y-89335461D01*
X380799580Y-89331210D01*
X381433276Y-88697514D01*
X381439706Y-88685739D01*
X381430410Y-88673724D01*
X381400811Y-88652999D01*
X381391323Y-88647521D01*
X381209723Y-88562841D01*
X381199429Y-88559093D01*
X381005878Y-88507231D01*
X380995091Y-88505329D01*
X380795475Y-88487865D01*
X380784525Y-88487865D01*
X380584909Y-88505329D01*
X380574122Y-88507231D01*
X380380571Y-88559093D01*
X380370277Y-88562841D01*
X380188677Y-88647521D01*
X380179189Y-88652999D01*
X380148752Y-88674311D01*
X380140377Y-88684788D01*
X376367082Y-88684788D01*
X376316558Y-88649411D01*
X376311580Y-88647090D01*
X376311577Y-88647088D01*
X376129892Y-88562367D01*
X376129891Y-88562366D01*
X376124910Y-88560044D01*
X376119602Y-88558622D01*
X376119600Y-88558621D01*
X375925970Y-88506738D01*
X375925968Y-88506738D01*
X375920655Y-88505314D01*
X375710000Y-88486884D01*
X375499345Y-88505314D01*
X375494032Y-88506738D01*
X375494030Y-88506738D01*
X375300400Y-88558621D01*
X375300398Y-88558622D01*
X375295090Y-88560044D01*
X375290109Y-88562366D01*
X375290108Y-88562367D01*
X375108423Y-88647088D01*
X375108420Y-88647090D01*
X375103442Y-88649411D01*
X374930224Y-88770699D01*
X374780699Y-88920224D01*
X374659411Y-89093442D01*
X374657090Y-89098420D01*
X374657088Y-89098423D01*
X374577921Y-89268197D01*
X374570044Y-89285090D01*
X374568622Y-89290398D01*
X374568621Y-89290400D01*
X374533278Y-89422301D01*
X374515314Y-89489345D01*
X374496884Y-89700000D01*
X372528630Y-89700000D01*
X372693933Y-89655707D01*
X372693935Y-89655706D01*
X372699243Y-89654284D01*
X372704225Y-89651961D01*
X372901762Y-89559849D01*
X372901767Y-89559846D01*
X372906749Y-89557523D01*
X373011708Y-89484030D01*
X373089789Y-89429357D01*
X373089792Y-89429355D01*
X373094300Y-89426198D01*
X373256198Y-89264300D01*
X373387523Y-89076749D01*
X373389846Y-89071767D01*
X373389849Y-89071762D01*
X373481961Y-88874225D01*
X373481961Y-88874224D01*
X373484284Y-88869243D01*
X373511536Y-88767540D01*
X373542119Y-88653402D01*
X373542119Y-88653400D01*
X373543543Y-88648087D01*
X373563498Y-88420000D01*
X382436502Y-88420000D01*
X382456457Y-88648087D01*
X382457881Y-88653400D01*
X382457881Y-88653402D01*
X382488465Y-88767540D01*
X382515716Y-88869243D01*
X382518039Y-88874224D01*
X382518039Y-88874225D01*
X382610151Y-89071762D01*
X382610154Y-89071767D01*
X382612477Y-89076749D01*
X382743802Y-89264300D01*
X382905700Y-89426198D01*
X382910208Y-89429355D01*
X382910211Y-89429357D01*
X382988292Y-89484030D01*
X383093251Y-89557523D01*
X383098233Y-89559846D01*
X383098238Y-89559849D01*
X383295775Y-89651961D01*
X383300757Y-89654284D01*
X383306065Y-89655706D01*
X383306067Y-89655707D01*
X383516598Y-89712119D01*
X383516600Y-89712119D01*
X383521913Y-89713543D01*
X383750000Y-89733498D01*
X383978087Y-89713543D01*
X383983400Y-89712119D01*
X383983402Y-89712119D01*
X384193933Y-89655707D01*
X384193935Y-89655706D01*
X384199243Y-89654284D01*
X384204225Y-89651961D01*
X384401762Y-89559849D01*
X384401767Y-89559846D01*
X384406749Y-89557523D01*
X384511708Y-89484030D01*
X384589789Y-89429357D01*
X384589792Y-89429355D01*
X384594300Y-89426198D01*
X384756198Y-89264300D01*
X384887523Y-89076749D01*
X384889846Y-89071767D01*
X384889849Y-89071762D01*
X384981961Y-88874225D01*
X384981961Y-88874224D01*
X384984284Y-88869243D01*
X385011536Y-88767540D01*
X385042119Y-88653402D01*
X385042119Y-88653400D01*
X385043543Y-88648087D01*
X385063498Y-88420000D01*
X385043543Y-88191913D01*
X384984284Y-87970757D01*
X384908586Y-87808421D01*
X384889849Y-87768238D01*
X384889846Y-87768233D01*
X384887523Y-87763251D01*
X384756198Y-87575700D01*
X384594300Y-87413802D01*
X384589792Y-87410645D01*
X384589789Y-87410643D01*
X384511611Y-87355902D01*
X384406749Y-87282477D01*
X384401767Y-87280154D01*
X384401762Y-87280151D01*
X384204225Y-87188039D01*
X384204224Y-87188039D01*
X384199243Y-87185716D01*
X384193935Y-87184294D01*
X384193933Y-87184293D01*
X383983402Y-87127881D01*
X383983400Y-87127881D01*
X383978087Y-87126457D01*
X383750000Y-87106502D01*
X383521913Y-87126457D01*
X383516600Y-87127881D01*
X383516598Y-87127881D01*
X383306067Y-87184293D01*
X383306065Y-87184294D01*
X383300757Y-87185716D01*
X383295776Y-87188039D01*
X383295775Y-87188039D01*
X383098238Y-87280151D01*
X383098233Y-87280154D01*
X383093251Y-87282477D01*
X382988389Y-87355902D01*
X382910211Y-87410643D01*
X382910208Y-87410645D01*
X382905700Y-87413802D01*
X382743802Y-87575700D01*
X382612477Y-87763251D01*
X382610154Y-87768233D01*
X382610151Y-87768238D01*
X382591414Y-87808421D01*
X382515716Y-87970757D01*
X382456457Y-88191913D01*
X382436502Y-88420000D01*
X373563498Y-88420000D01*
X373543543Y-88191913D01*
X373484284Y-87970757D01*
X373408586Y-87808421D01*
X373389849Y-87768238D01*
X373389846Y-87768233D01*
X373387523Y-87763251D01*
X373256198Y-87575700D01*
X373094300Y-87413802D01*
X373089792Y-87410645D01*
X373089789Y-87410643D01*
X373011611Y-87355902D01*
X372906749Y-87282477D01*
X372901767Y-87280154D01*
X372901762Y-87280151D01*
X372704225Y-87188039D01*
X372704224Y-87188039D01*
X372699243Y-87185716D01*
X372693935Y-87184294D01*
X372693933Y-87184293D01*
X372483402Y-87127881D01*
X372483400Y-87127881D01*
X372478087Y-87126457D01*
X372250000Y-87106502D01*
X372021913Y-87126457D01*
X372016600Y-87127881D01*
X372016598Y-87127881D01*
X371806067Y-87184293D01*
X371806065Y-87184294D01*
X371800757Y-87185716D01*
X371795776Y-87188039D01*
X371795775Y-87188039D01*
X371598238Y-87280151D01*
X371598233Y-87280154D01*
X371593251Y-87282477D01*
X371488389Y-87355902D01*
X371410211Y-87410643D01*
X371410208Y-87410645D01*
X371405700Y-87413802D01*
X371243802Y-87575700D01*
X371112477Y-87763251D01*
X371110154Y-87768233D01*
X371110151Y-87768238D01*
X371091414Y-87808421D01*
X371015716Y-87970757D01*
X370956457Y-88191913D01*
X370936502Y-88420000D01*
X362063498Y-88420000D01*
X362043543Y-88191913D01*
X361984284Y-87970757D01*
X361908586Y-87808421D01*
X361889849Y-87768238D01*
X361889846Y-87768233D01*
X361887523Y-87763251D01*
X361756198Y-87575700D01*
X361594300Y-87413802D01*
X361589792Y-87410645D01*
X361589789Y-87410643D01*
X361511611Y-87355902D01*
X361406749Y-87282477D01*
X361401767Y-87280154D01*
X361401762Y-87280151D01*
X361204225Y-87188039D01*
X361204224Y-87188039D01*
X361199243Y-87185716D01*
X361193935Y-87184294D01*
X361193933Y-87184293D01*
X360983402Y-87127881D01*
X360983400Y-87127881D01*
X360978087Y-87126457D01*
X360750000Y-87106502D01*
X360521913Y-87126457D01*
X360516600Y-87127881D01*
X360516598Y-87127881D01*
X360306067Y-87184293D01*
X360306065Y-87184294D01*
X360300757Y-87185716D01*
X360295776Y-87188039D01*
X360295775Y-87188039D01*
X360098238Y-87280151D01*
X360098233Y-87280154D01*
X360093251Y-87282477D01*
X359988389Y-87355902D01*
X359910211Y-87410643D01*
X359910208Y-87410645D01*
X359905700Y-87413802D01*
X359743802Y-87575700D01*
X359612477Y-87763251D01*
X359610154Y-87768233D01*
X359610151Y-87768238D01*
X359591414Y-87808421D01*
X359515716Y-87970757D01*
X359456457Y-88191913D01*
X359436502Y-88420000D01*
X350563498Y-88420000D01*
X350543543Y-88191913D01*
X350484284Y-87970757D01*
X350408586Y-87808421D01*
X350389849Y-87768238D01*
X350389846Y-87768233D01*
X350387523Y-87763251D01*
X350256198Y-87575700D01*
X350094300Y-87413802D01*
X350089792Y-87410645D01*
X350089789Y-87410643D01*
X350011611Y-87355902D01*
X349906749Y-87282477D01*
X349901767Y-87280154D01*
X349901762Y-87280151D01*
X349704225Y-87188039D01*
X349704224Y-87188039D01*
X349699243Y-87185716D01*
X349693935Y-87184294D01*
X349693933Y-87184293D01*
X349483402Y-87127881D01*
X349483400Y-87127881D01*
X349478087Y-87126457D01*
X349250000Y-87106502D01*
X349021913Y-87126457D01*
X349016600Y-87127881D01*
X349016598Y-87127881D01*
X348806067Y-87184293D01*
X348806065Y-87184294D01*
X348800757Y-87185716D01*
X348795776Y-87188039D01*
X348795775Y-87188039D01*
X348598238Y-87280151D01*
X348598233Y-87280154D01*
X348593251Y-87282477D01*
X348488389Y-87355902D01*
X348410211Y-87410643D01*
X348410208Y-87410645D01*
X348405700Y-87413802D01*
X348243802Y-87575700D01*
X348112477Y-87763251D01*
X348110154Y-87768233D01*
X348110151Y-87768238D01*
X348091414Y-87808421D01*
X348015716Y-87970757D01*
X347956457Y-88191913D01*
X347936502Y-88420000D01*
X339063498Y-88420000D01*
X339043543Y-88191913D01*
X338984284Y-87970757D01*
X338908586Y-87808421D01*
X338889849Y-87768238D01*
X338889846Y-87768233D01*
X338887523Y-87763251D01*
X338756198Y-87575700D01*
X338594300Y-87413802D01*
X338589792Y-87410645D01*
X338589789Y-87410643D01*
X338511611Y-87355902D01*
X338406749Y-87282477D01*
X338401767Y-87280154D01*
X338401762Y-87280151D01*
X338204225Y-87188039D01*
X338204224Y-87188039D01*
X338199243Y-87185716D01*
X338193935Y-87184294D01*
X338193933Y-87184293D01*
X337983402Y-87127881D01*
X337983400Y-87127881D01*
X337978087Y-87126457D01*
X337750000Y-87106502D01*
X337521913Y-87126457D01*
X337516600Y-87127881D01*
X337516598Y-87127881D01*
X337306067Y-87184293D01*
X337306065Y-87184294D01*
X337300757Y-87185716D01*
X337295776Y-87188039D01*
X337295775Y-87188039D01*
X337098238Y-87280151D01*
X337098233Y-87280154D01*
X337093251Y-87282477D01*
X336988389Y-87355902D01*
X336910211Y-87410643D01*
X336910208Y-87410645D01*
X336905700Y-87413802D01*
X336743802Y-87575700D01*
X336612477Y-87763251D01*
X336610154Y-87768233D01*
X336610151Y-87768238D01*
X336591414Y-87808421D01*
X336515716Y-87970757D01*
X336456457Y-88191913D01*
X336436502Y-88420000D01*
X321508500Y-88420000D01*
X321508500Y-86888713D01*
X411501723Y-86888713D01*
X411501735Y-86889144D01*
X411507102Y-86897892D01*
X414487188Y-89877978D01*
X414501132Y-89885592D01*
X414502965Y-89885461D01*
X414509580Y-89881210D01*
X417490943Y-86899847D01*
X417498351Y-86886280D01*
X417491609Y-86876624D01*
X417280533Y-86695711D01*
X417276040Y-86692200D01*
X416946969Y-86458341D01*
X416942146Y-86455233D01*
X416593242Y-86252166D01*
X416588177Y-86249519D01*
X416222296Y-86078905D01*
X416217003Y-86076724D01*
X415837166Y-85939973D01*
X415831706Y-85938284D01*
X415441036Y-85836522D01*
X415435446Y-85835334D01*
X415037154Y-85769397D01*
X415031490Y-85768721D01*
X414628851Y-85739153D01*
X414623150Y-85738994D01*
X414219489Y-85746040D01*
X414213801Y-85746398D01*
X413812457Y-85789998D01*
X413806787Y-85790876D01*
X413411058Y-85870669D01*
X413405512Y-85872051D01*
X413018627Y-85987387D01*
X413013223Y-85989269D01*
X412638396Y-86139189D01*
X412633189Y-86141551D01*
X412273475Y-86324834D01*
X412268510Y-86327655D01*
X411926897Y-86542781D01*
X411922202Y-86546044D01*
X411601494Y-86791243D01*
X411597114Y-86794917D01*
X411509910Y-86875106D01*
X411501723Y-86888713D01*
X321508500Y-86888713D01*
X321508500Y-86543690D01*
X321528502Y-86475569D01*
X321545405Y-86454595D01*
X322757100Y-85242900D01*
X330859000Y-85242900D01*
X330859337Y-85246146D01*
X330859337Y-85246150D01*
X330868893Y-85338245D01*
X330869974Y-85348666D01*
X330925950Y-85516446D01*
X331019022Y-85666848D01*
X331144197Y-85791805D01*
X331150427Y-85795645D01*
X331150428Y-85795646D01*
X331287590Y-85880194D01*
X331294762Y-85884615D01*
X331370639Y-85909782D01*
X331456111Y-85938132D01*
X331456113Y-85938132D01*
X331462639Y-85940297D01*
X331469475Y-85940997D01*
X331469478Y-85940998D01*
X331512531Y-85945409D01*
X331567100Y-85951000D01*
X332967900Y-85951000D01*
X332971146Y-85950663D01*
X332971150Y-85950663D01*
X333066808Y-85940738D01*
X333066812Y-85940737D01*
X333073666Y-85940026D01*
X333080202Y-85937845D01*
X333080204Y-85937845D01*
X333212306Y-85893772D01*
X333241446Y-85884050D01*
X333391848Y-85790978D01*
X333516805Y-85665803D01*
X333556616Y-85601218D01*
X333605775Y-85521468D01*
X333605776Y-85521466D01*
X333609615Y-85515238D01*
X333637288Y-85431807D01*
X333663132Y-85353889D01*
X333663132Y-85353887D01*
X333665297Y-85347361D01*
X333676000Y-85242900D01*
X333676000Y-84602512D01*
X334359000Y-84602512D01*
X334374117Y-84780675D01*
X334375457Y-84785839D01*
X334375458Y-84785843D01*
X334432785Y-85006711D01*
X334434168Y-85012040D01*
X334436360Y-85016906D01*
X334491845Y-85140077D01*
X334532343Y-85229980D01*
X334665834Y-85428262D01*
X334830826Y-85601218D01*
X335022600Y-85743902D01*
X335027351Y-85746318D01*
X335027355Y-85746320D01*
X335230914Y-85849814D01*
X335235672Y-85852233D01*
X335325721Y-85880194D01*
X335458849Y-85921532D01*
X335458855Y-85921533D01*
X335463952Y-85923116D01*
X335591134Y-85939973D01*
X335695627Y-85953823D01*
X335695631Y-85953823D01*
X335700911Y-85954523D01*
X335706240Y-85954323D01*
X335706241Y-85954323D01*
X335804009Y-85950652D01*
X335939774Y-85945555D01*
X336039626Y-85924604D01*
X336168484Y-85897567D01*
X336168487Y-85897566D01*
X336173711Y-85896470D01*
X336396033Y-85808671D01*
X336600383Y-85684668D01*
X336780919Y-85528007D01*
X336784302Y-85523881D01*
X336784306Y-85523877D01*
X336922608Y-85355204D01*
X336932478Y-85343167D01*
X336989554Y-85242900D01*
X342359000Y-85242900D01*
X342359337Y-85246146D01*
X342359337Y-85246150D01*
X342368893Y-85338245D01*
X342369974Y-85348666D01*
X342425950Y-85516446D01*
X342519022Y-85666848D01*
X342644197Y-85791805D01*
X342650427Y-85795645D01*
X342650428Y-85795646D01*
X342787590Y-85880194D01*
X342794762Y-85884615D01*
X342870639Y-85909782D01*
X342956111Y-85938132D01*
X342956113Y-85938132D01*
X342962639Y-85940297D01*
X342969475Y-85940997D01*
X342969478Y-85940998D01*
X343012531Y-85945409D01*
X343067100Y-85951000D01*
X344467900Y-85951000D01*
X344471146Y-85950663D01*
X344471150Y-85950663D01*
X344566808Y-85940738D01*
X344566812Y-85940737D01*
X344573666Y-85940026D01*
X344580202Y-85937845D01*
X344580204Y-85937845D01*
X344712306Y-85893772D01*
X344741446Y-85884050D01*
X344891848Y-85790978D01*
X345016805Y-85665803D01*
X345056616Y-85601218D01*
X345105775Y-85521468D01*
X345105776Y-85521466D01*
X345109615Y-85515238D01*
X345137288Y-85431807D01*
X345163132Y-85353889D01*
X345163132Y-85353887D01*
X345165297Y-85347361D01*
X345176000Y-85242900D01*
X345176000Y-84602512D01*
X345859000Y-84602512D01*
X345874117Y-84780675D01*
X345875457Y-84785839D01*
X345875458Y-84785843D01*
X345932785Y-85006711D01*
X345934168Y-85012040D01*
X345936360Y-85016906D01*
X345991845Y-85140077D01*
X346032343Y-85229980D01*
X346165834Y-85428262D01*
X346330826Y-85601218D01*
X346522600Y-85743902D01*
X346527351Y-85746318D01*
X346527355Y-85746320D01*
X346730914Y-85849814D01*
X346735672Y-85852233D01*
X346825721Y-85880194D01*
X346958849Y-85921532D01*
X346958855Y-85921533D01*
X346963952Y-85923116D01*
X347091134Y-85939973D01*
X347195627Y-85953823D01*
X347195631Y-85953823D01*
X347200911Y-85954523D01*
X347206240Y-85954323D01*
X347206241Y-85954323D01*
X347304009Y-85950652D01*
X347439774Y-85945555D01*
X347539626Y-85924604D01*
X347668484Y-85897567D01*
X347668487Y-85897566D01*
X347673711Y-85896470D01*
X347896033Y-85808671D01*
X348100383Y-85684668D01*
X348280919Y-85528007D01*
X348284302Y-85523881D01*
X348284306Y-85523877D01*
X348422608Y-85355204D01*
X348432478Y-85343167D01*
X348489554Y-85242900D01*
X353859000Y-85242900D01*
X353859337Y-85246146D01*
X353859337Y-85246150D01*
X353868893Y-85338245D01*
X353869974Y-85348666D01*
X353925950Y-85516446D01*
X354019022Y-85666848D01*
X354144197Y-85791805D01*
X354150427Y-85795645D01*
X354150428Y-85795646D01*
X354287590Y-85880194D01*
X354294762Y-85884615D01*
X354370639Y-85909782D01*
X354456111Y-85938132D01*
X354456113Y-85938132D01*
X354462639Y-85940297D01*
X354469475Y-85940997D01*
X354469478Y-85940998D01*
X354512531Y-85945409D01*
X354567100Y-85951000D01*
X355967900Y-85951000D01*
X355971146Y-85950663D01*
X355971150Y-85950663D01*
X356066808Y-85940738D01*
X356066812Y-85940737D01*
X356073666Y-85940026D01*
X356080202Y-85937845D01*
X356080204Y-85937845D01*
X356212306Y-85893772D01*
X356241446Y-85884050D01*
X356391848Y-85790978D01*
X356516805Y-85665803D01*
X356556616Y-85601218D01*
X356605775Y-85521468D01*
X356605776Y-85521466D01*
X356609615Y-85515238D01*
X356637288Y-85431807D01*
X356663132Y-85353889D01*
X356663132Y-85353887D01*
X356665297Y-85347361D01*
X356676000Y-85242900D01*
X356676000Y-84602512D01*
X357359000Y-84602512D01*
X357374117Y-84780675D01*
X357375457Y-84785839D01*
X357375458Y-84785843D01*
X357432785Y-85006711D01*
X357434168Y-85012040D01*
X357436360Y-85016906D01*
X357491845Y-85140077D01*
X357532343Y-85229980D01*
X357665834Y-85428262D01*
X357830826Y-85601218D01*
X358022600Y-85743902D01*
X358027351Y-85746318D01*
X358027355Y-85746320D01*
X358230914Y-85849814D01*
X358235672Y-85852233D01*
X358325721Y-85880194D01*
X358458849Y-85921532D01*
X358458855Y-85921533D01*
X358463952Y-85923116D01*
X358591134Y-85939973D01*
X358695627Y-85953823D01*
X358695631Y-85953823D01*
X358700911Y-85954523D01*
X358706240Y-85954323D01*
X358706241Y-85954323D01*
X358804009Y-85950652D01*
X358939774Y-85945555D01*
X359039626Y-85924604D01*
X359168484Y-85897567D01*
X359168487Y-85897566D01*
X359173711Y-85896470D01*
X359396033Y-85808671D01*
X359600383Y-85684668D01*
X359780919Y-85528007D01*
X359784302Y-85523881D01*
X359784306Y-85523877D01*
X359922608Y-85355204D01*
X359932478Y-85343167D01*
X359989554Y-85242900D01*
X365359000Y-85242900D01*
X365359337Y-85246146D01*
X365359337Y-85246150D01*
X365368893Y-85338245D01*
X365369974Y-85348666D01*
X365425950Y-85516446D01*
X365519022Y-85666848D01*
X365644197Y-85791805D01*
X365650427Y-85795645D01*
X365650428Y-85795646D01*
X365787590Y-85880194D01*
X365794762Y-85884615D01*
X365870639Y-85909782D01*
X365956111Y-85938132D01*
X365956113Y-85938132D01*
X365962639Y-85940297D01*
X365969475Y-85940997D01*
X365969478Y-85940998D01*
X366012531Y-85945409D01*
X366067100Y-85951000D01*
X367467900Y-85951000D01*
X367471146Y-85950663D01*
X367471150Y-85950663D01*
X367566808Y-85940738D01*
X367566812Y-85940737D01*
X367573666Y-85940026D01*
X367580202Y-85937845D01*
X367580204Y-85937845D01*
X367712306Y-85893772D01*
X367741446Y-85884050D01*
X367891848Y-85790978D01*
X368016805Y-85665803D01*
X368056616Y-85601218D01*
X368105775Y-85521468D01*
X368105776Y-85521466D01*
X368109615Y-85515238D01*
X368137288Y-85431807D01*
X368163132Y-85353889D01*
X368163132Y-85353887D01*
X368165297Y-85347361D01*
X368176000Y-85242900D01*
X368176000Y-84602512D01*
X368859000Y-84602512D01*
X368874117Y-84780675D01*
X368875457Y-84785839D01*
X368875458Y-84785843D01*
X368932785Y-85006711D01*
X368934168Y-85012040D01*
X368936360Y-85016906D01*
X368991845Y-85140077D01*
X369032343Y-85229980D01*
X369165834Y-85428262D01*
X369330826Y-85601218D01*
X369522600Y-85743902D01*
X369527351Y-85746318D01*
X369527355Y-85746320D01*
X369730914Y-85849814D01*
X369735672Y-85852233D01*
X369825721Y-85880194D01*
X369958849Y-85921532D01*
X369958855Y-85921533D01*
X369963952Y-85923116D01*
X370091134Y-85939973D01*
X370195627Y-85953823D01*
X370195631Y-85953823D01*
X370200911Y-85954523D01*
X370206240Y-85954323D01*
X370206241Y-85954323D01*
X370304009Y-85950652D01*
X370439774Y-85945555D01*
X370539626Y-85924604D01*
X370668484Y-85897567D01*
X370668487Y-85897566D01*
X370673711Y-85896470D01*
X370896033Y-85808671D01*
X371100383Y-85684668D01*
X371280919Y-85528007D01*
X371284302Y-85523881D01*
X371284306Y-85523877D01*
X371422608Y-85355204D01*
X371432478Y-85343167D01*
X371489554Y-85242900D01*
X376859000Y-85242900D01*
X376859337Y-85246146D01*
X376859337Y-85246150D01*
X376868893Y-85338245D01*
X376869974Y-85348666D01*
X376925950Y-85516446D01*
X377019022Y-85666848D01*
X377144197Y-85791805D01*
X377150427Y-85795645D01*
X377150428Y-85795646D01*
X377287590Y-85880194D01*
X377294762Y-85884615D01*
X377370639Y-85909782D01*
X377456111Y-85938132D01*
X377456113Y-85938132D01*
X377462639Y-85940297D01*
X377469475Y-85940997D01*
X377469478Y-85940998D01*
X377512531Y-85945409D01*
X377567100Y-85951000D01*
X378967900Y-85951000D01*
X378971146Y-85950663D01*
X378971150Y-85950663D01*
X379066808Y-85940738D01*
X379066812Y-85940737D01*
X379073666Y-85940026D01*
X379080202Y-85937845D01*
X379080204Y-85937845D01*
X379212306Y-85893772D01*
X379241446Y-85884050D01*
X379391848Y-85790978D01*
X379516805Y-85665803D01*
X379556616Y-85601218D01*
X379605775Y-85521468D01*
X379605776Y-85521466D01*
X379609615Y-85515238D01*
X379637288Y-85431807D01*
X379663132Y-85353889D01*
X379663132Y-85353887D01*
X379665297Y-85347361D01*
X379676000Y-85242900D01*
X379676000Y-84602512D01*
X380359000Y-84602512D01*
X380374117Y-84780675D01*
X380375457Y-84785839D01*
X380375458Y-84785843D01*
X380432785Y-85006711D01*
X380434168Y-85012040D01*
X380436360Y-85016906D01*
X380491845Y-85140077D01*
X380532343Y-85229980D01*
X380665834Y-85428262D01*
X380830826Y-85601218D01*
X381022600Y-85743902D01*
X381027351Y-85746318D01*
X381027355Y-85746320D01*
X381230914Y-85849814D01*
X381235672Y-85852233D01*
X381325721Y-85880194D01*
X381458849Y-85921532D01*
X381458855Y-85921533D01*
X381463952Y-85923116D01*
X381591134Y-85939973D01*
X381695627Y-85953823D01*
X381695631Y-85953823D01*
X381700911Y-85954523D01*
X381706240Y-85954323D01*
X381706241Y-85954323D01*
X381804009Y-85950652D01*
X381939774Y-85945555D01*
X382039626Y-85924604D01*
X382168484Y-85897567D01*
X382168487Y-85897566D01*
X382173711Y-85896470D01*
X382396033Y-85808671D01*
X382600383Y-85684668D01*
X382780919Y-85528007D01*
X382784302Y-85523881D01*
X382784306Y-85523877D01*
X382922608Y-85355204D01*
X382932478Y-85343167D01*
X382989554Y-85242900D01*
X392359000Y-85242900D01*
X392359337Y-85246146D01*
X392359337Y-85246150D01*
X392368893Y-85338245D01*
X392369974Y-85348666D01*
X392425950Y-85516446D01*
X392519022Y-85666848D01*
X392644197Y-85791805D01*
X392650427Y-85795645D01*
X392650428Y-85795646D01*
X392787590Y-85880194D01*
X392794762Y-85884615D01*
X392870639Y-85909782D01*
X392956111Y-85938132D01*
X392956113Y-85938132D01*
X392962639Y-85940297D01*
X392969475Y-85940997D01*
X392969478Y-85940998D01*
X393012531Y-85945409D01*
X393067100Y-85951000D01*
X394467900Y-85951000D01*
X394471146Y-85950663D01*
X394471150Y-85950663D01*
X394566808Y-85940738D01*
X394566812Y-85940737D01*
X394573666Y-85940026D01*
X394580202Y-85937845D01*
X394580204Y-85937845D01*
X394712306Y-85893772D01*
X394741446Y-85884050D01*
X394891848Y-85790978D01*
X395016805Y-85665803D01*
X395056616Y-85601218D01*
X395105775Y-85521468D01*
X395105776Y-85521466D01*
X395109615Y-85515238D01*
X395137288Y-85431807D01*
X395163132Y-85353889D01*
X395163132Y-85353887D01*
X395165297Y-85347361D01*
X395176000Y-85242900D01*
X395176000Y-84599840D01*
X395859500Y-84599840D01*
X395859725Y-84605149D01*
X395874160Y-84775271D01*
X395875952Y-84785759D01*
X395933301Y-85006711D01*
X395936833Y-85016739D01*
X396030585Y-85224863D01*
X396035765Y-85234169D01*
X396163247Y-85423524D01*
X396169906Y-85431807D01*
X396327471Y-85596978D01*
X396335442Y-85604030D01*
X396518582Y-85740290D01*
X396527619Y-85745894D01*
X396731106Y-85849351D01*
X396740959Y-85853352D01*
X396958961Y-85921044D01*
X396969348Y-85923328D01*
X396995543Y-85926800D01*
X397009707Y-85924604D01*
X397013500Y-85911419D01*
X397013500Y-85909782D01*
X397521500Y-85909782D01*
X397525473Y-85923313D01*
X397536080Y-85924838D01*
X397668340Y-85897087D01*
X397678537Y-85894027D01*
X397890840Y-85810185D01*
X397900376Y-85805451D01*
X398095525Y-85687032D01*
X398104118Y-85680766D01*
X398276527Y-85531158D01*
X398283947Y-85523528D01*
X398428680Y-85347012D01*
X398434706Y-85338245D01*
X398488979Y-85242900D01*
X403359000Y-85242900D01*
X403359337Y-85246146D01*
X403359337Y-85246150D01*
X403368893Y-85338245D01*
X403369974Y-85348666D01*
X403425950Y-85516446D01*
X403519022Y-85666848D01*
X403644197Y-85791805D01*
X403650427Y-85795645D01*
X403650428Y-85795646D01*
X403787590Y-85880194D01*
X403794762Y-85884615D01*
X403870639Y-85909782D01*
X403956111Y-85938132D01*
X403956113Y-85938132D01*
X403962639Y-85940297D01*
X403969475Y-85940997D01*
X403969478Y-85940998D01*
X404012531Y-85945409D01*
X404067100Y-85951000D01*
X405467900Y-85951000D01*
X405471146Y-85950663D01*
X405471150Y-85950663D01*
X405566808Y-85940738D01*
X405566812Y-85940737D01*
X405573666Y-85940026D01*
X405580202Y-85937845D01*
X405580204Y-85937845D01*
X405712306Y-85893772D01*
X405741446Y-85884050D01*
X405891848Y-85790978D01*
X406016805Y-85665803D01*
X406056616Y-85601218D01*
X406105775Y-85521468D01*
X406105776Y-85521466D01*
X406109615Y-85515238D01*
X406137288Y-85431807D01*
X406163132Y-85353889D01*
X406163132Y-85353887D01*
X406165297Y-85347361D01*
X406176000Y-85242900D01*
X406176000Y-84599840D01*
X406859500Y-84599840D01*
X406859725Y-84605149D01*
X406874160Y-84775271D01*
X406875952Y-84785759D01*
X406933301Y-85006711D01*
X406936833Y-85016739D01*
X407030585Y-85224863D01*
X407035765Y-85234169D01*
X407163247Y-85423524D01*
X407169906Y-85431807D01*
X407327471Y-85596978D01*
X407335442Y-85604030D01*
X407518582Y-85740290D01*
X407527619Y-85745894D01*
X407731106Y-85849351D01*
X407740959Y-85853352D01*
X407958961Y-85921044D01*
X407969348Y-85923328D01*
X407995543Y-85926800D01*
X408009707Y-85924604D01*
X408013500Y-85911419D01*
X408013500Y-85909782D01*
X408521500Y-85909782D01*
X408525473Y-85923313D01*
X408536080Y-85924838D01*
X408668340Y-85897087D01*
X408678537Y-85894027D01*
X408890840Y-85810185D01*
X408900376Y-85805451D01*
X409095525Y-85687032D01*
X409104118Y-85680766D01*
X409276527Y-85531158D01*
X409283947Y-85523528D01*
X409428680Y-85347012D01*
X409434706Y-85338245D01*
X409547629Y-85139867D01*
X409552095Y-85130203D01*
X409629981Y-84915632D01*
X409632751Y-84905365D01*
X409673581Y-84679568D01*
X409674516Y-84671338D01*
X409675430Y-84651950D01*
X409675500Y-84648974D01*
X409675500Y-83914615D01*
X409671025Y-83899376D01*
X409669635Y-83898171D01*
X409661952Y-83896500D01*
X408539615Y-83896500D01*
X408524376Y-83900975D01*
X408523171Y-83902365D01*
X408521500Y-83910048D01*
X408521500Y-85909782D01*
X408013500Y-85909782D01*
X408013500Y-83914615D01*
X408009025Y-83899376D01*
X408007635Y-83898171D01*
X407999952Y-83896500D01*
X406877615Y-83896500D01*
X406862376Y-83900975D01*
X406861171Y-83902365D01*
X406859500Y-83910048D01*
X406859500Y-84599840D01*
X406176000Y-84599840D01*
X406176000Y-83370385D01*
X406859500Y-83370385D01*
X406863975Y-83385624D01*
X406865365Y-83386829D01*
X406873048Y-83388500D01*
X407995385Y-83388500D01*
X408010624Y-83384025D01*
X408011829Y-83382635D01*
X408013500Y-83374952D01*
X408013500Y-83370385D01*
X408521500Y-83370385D01*
X408525975Y-83385624D01*
X408527365Y-83386829D01*
X408535048Y-83388500D01*
X409657385Y-83388500D01*
X409672624Y-83384025D01*
X409673829Y-83382635D01*
X409675500Y-83374952D01*
X409675500Y-82685160D01*
X409675275Y-82679851D01*
X409660840Y-82509729D01*
X409659048Y-82499241D01*
X409601699Y-82278289D01*
X409598167Y-82268261D01*
X409504415Y-82060137D01*
X409499235Y-82050831D01*
X409371753Y-81861476D01*
X409365094Y-81853193D01*
X409207529Y-81688022D01*
X409199558Y-81680970D01*
X409016418Y-81544710D01*
X409007381Y-81539106D01*
X408803894Y-81435649D01*
X408794041Y-81431648D01*
X408576039Y-81363956D01*
X408565652Y-81361672D01*
X408539457Y-81358200D01*
X408525293Y-81360396D01*
X408521500Y-81373581D01*
X408521500Y-83370385D01*
X408013500Y-83370385D01*
X408013500Y-81375218D01*
X408009527Y-81361687D01*
X407998920Y-81360162D01*
X407866660Y-81387913D01*
X407856463Y-81390973D01*
X407644160Y-81474815D01*
X407634624Y-81479549D01*
X407439475Y-81597968D01*
X407430882Y-81604234D01*
X407258473Y-81753842D01*
X407251053Y-81761472D01*
X407106320Y-81937988D01*
X407100294Y-81946755D01*
X406987371Y-82145133D01*
X406982905Y-82154797D01*
X406905019Y-82369368D01*
X406902249Y-82379635D01*
X406861419Y-82605432D01*
X406860484Y-82613662D01*
X406859570Y-82633050D01*
X406859500Y-82636026D01*
X406859500Y-83370385D01*
X406176000Y-83370385D01*
X406176000Y-82042100D01*
X406175663Y-82038850D01*
X406165738Y-81943192D01*
X406165737Y-81943188D01*
X406165026Y-81936334D01*
X406109050Y-81768554D01*
X406015978Y-81618152D01*
X405890803Y-81493195D01*
X405867934Y-81479098D01*
X405746468Y-81404225D01*
X405746466Y-81404224D01*
X405740238Y-81400385D01*
X405659426Y-81373581D01*
X405578889Y-81346868D01*
X405578887Y-81346868D01*
X405572361Y-81344703D01*
X405565525Y-81344003D01*
X405565522Y-81344002D01*
X405519091Y-81339245D01*
X405467900Y-81334000D01*
X404067100Y-81334000D01*
X404063854Y-81334337D01*
X404063850Y-81334337D01*
X403968192Y-81344262D01*
X403968188Y-81344263D01*
X403961334Y-81344974D01*
X403954798Y-81347155D01*
X403954796Y-81347155D01*
X403830781Y-81388530D01*
X403793554Y-81400950D01*
X403643152Y-81494022D01*
X403518195Y-81619197D01*
X403514355Y-81625427D01*
X403514354Y-81625428D01*
X403476007Y-81687639D01*
X403425385Y-81769762D01*
X403423081Y-81776709D01*
X403396537Y-81856738D01*
X403369703Y-81937639D01*
X403359000Y-82042100D01*
X403359000Y-85242900D01*
X398488979Y-85242900D01*
X398547629Y-85139867D01*
X398552095Y-85130203D01*
X398629981Y-84915632D01*
X398632751Y-84905365D01*
X398673581Y-84679568D01*
X398674516Y-84671338D01*
X398675430Y-84651950D01*
X398675500Y-84648974D01*
X398675500Y-83914615D01*
X398671025Y-83899376D01*
X398669635Y-83898171D01*
X398661952Y-83896500D01*
X397539615Y-83896500D01*
X397524376Y-83900975D01*
X397523171Y-83902365D01*
X397521500Y-83910048D01*
X397521500Y-85909782D01*
X397013500Y-85909782D01*
X397013500Y-83914615D01*
X397009025Y-83899376D01*
X397007635Y-83898171D01*
X396999952Y-83896500D01*
X395877615Y-83896500D01*
X395862376Y-83900975D01*
X395861171Y-83902365D01*
X395859500Y-83910048D01*
X395859500Y-84599840D01*
X395176000Y-84599840D01*
X395176000Y-83370385D01*
X395859500Y-83370385D01*
X395863975Y-83385624D01*
X395865365Y-83386829D01*
X395873048Y-83388500D01*
X396995385Y-83388500D01*
X397010624Y-83384025D01*
X397011829Y-83382635D01*
X397013500Y-83374952D01*
X397013500Y-83370385D01*
X397521500Y-83370385D01*
X397525975Y-83385624D01*
X397527365Y-83386829D01*
X397535048Y-83388500D01*
X398657385Y-83388500D01*
X398672624Y-83384025D01*
X398673829Y-83382635D01*
X398675500Y-83374952D01*
X398675500Y-82685160D01*
X398675275Y-82679851D01*
X398660840Y-82509729D01*
X398659048Y-82499241D01*
X398601699Y-82278289D01*
X398598167Y-82268261D01*
X398504415Y-82060137D01*
X398499235Y-82050831D01*
X398371753Y-81861476D01*
X398365094Y-81853193D01*
X398207529Y-81688022D01*
X398199558Y-81680970D01*
X398016418Y-81544710D01*
X398007381Y-81539106D01*
X397803894Y-81435649D01*
X397794041Y-81431648D01*
X397576039Y-81363956D01*
X397565652Y-81361672D01*
X397539457Y-81358200D01*
X397525293Y-81360396D01*
X397521500Y-81373581D01*
X397521500Y-83370385D01*
X397013500Y-83370385D01*
X397013500Y-81375218D01*
X397009527Y-81361687D01*
X396998920Y-81360162D01*
X396866660Y-81387913D01*
X396856463Y-81390973D01*
X396644160Y-81474815D01*
X396634624Y-81479549D01*
X396439475Y-81597968D01*
X396430882Y-81604234D01*
X396258473Y-81753842D01*
X396251053Y-81761472D01*
X396106320Y-81937988D01*
X396100294Y-81946755D01*
X395987371Y-82145133D01*
X395982905Y-82154797D01*
X395905019Y-82369368D01*
X395902249Y-82379635D01*
X395861419Y-82605432D01*
X395860484Y-82613662D01*
X395859570Y-82633050D01*
X395859500Y-82636026D01*
X395859500Y-83370385D01*
X395176000Y-83370385D01*
X395176000Y-82042100D01*
X395175663Y-82038850D01*
X395165738Y-81943192D01*
X395165737Y-81943188D01*
X395165026Y-81936334D01*
X395109050Y-81768554D01*
X395015978Y-81618152D01*
X394890803Y-81493195D01*
X394867934Y-81479098D01*
X394746468Y-81404225D01*
X394746466Y-81404224D01*
X394740238Y-81400385D01*
X394659426Y-81373581D01*
X394578889Y-81346868D01*
X394578887Y-81346868D01*
X394572361Y-81344703D01*
X394565525Y-81344003D01*
X394565522Y-81344002D01*
X394519091Y-81339245D01*
X394467900Y-81334000D01*
X393067100Y-81334000D01*
X393063854Y-81334337D01*
X393063850Y-81334337D01*
X392968192Y-81344262D01*
X392968188Y-81344263D01*
X392961334Y-81344974D01*
X392954798Y-81347155D01*
X392954796Y-81347155D01*
X392830781Y-81388530D01*
X392793554Y-81400950D01*
X392643152Y-81494022D01*
X392518195Y-81619197D01*
X392514355Y-81625427D01*
X392514354Y-81625428D01*
X392476007Y-81687639D01*
X392425385Y-81769762D01*
X392423081Y-81776709D01*
X392396537Y-81856738D01*
X392369703Y-81937639D01*
X392359000Y-82042100D01*
X392359000Y-85242900D01*
X382989554Y-85242900D01*
X383050727Y-85135434D01*
X383132284Y-84910747D01*
X383133234Y-84905495D01*
X383174080Y-84679615D01*
X383174081Y-84679607D01*
X383174818Y-84675531D01*
X383176000Y-84650468D01*
X383176000Y-82682488D01*
X383160883Y-82504325D01*
X383125821Y-82369237D01*
X383102173Y-82278125D01*
X383102171Y-82278120D01*
X383100832Y-82272960D01*
X383043250Y-82145133D01*
X383004847Y-82059881D01*
X383004846Y-82059878D01*
X383002657Y-82055020D01*
X382869166Y-81856738D01*
X382704174Y-81683782D01*
X382512400Y-81541098D01*
X382507649Y-81538682D01*
X382507645Y-81538680D01*
X382304086Y-81435186D01*
X382304085Y-81435186D01*
X382299328Y-81432767D01*
X382154875Y-81387913D01*
X382076151Y-81363468D01*
X382076145Y-81363467D01*
X382071048Y-81361884D01*
X381936132Y-81344002D01*
X381839373Y-81331177D01*
X381839369Y-81331177D01*
X381834089Y-81330477D01*
X381828760Y-81330677D01*
X381828759Y-81330677D01*
X381731517Y-81334328D01*
X381595226Y-81339445D01*
X381508316Y-81357681D01*
X381366516Y-81387433D01*
X381366513Y-81387434D01*
X381361289Y-81388530D01*
X381138967Y-81476329D01*
X380934617Y-81600332D01*
X380754081Y-81756993D01*
X380750698Y-81761119D01*
X380750694Y-81761123D01*
X380675202Y-81853193D01*
X380602522Y-81941833D01*
X380484273Y-82149566D01*
X380402716Y-82374253D01*
X380401767Y-82379502D01*
X380401766Y-82379505D01*
X380360920Y-82605385D01*
X380360919Y-82605393D01*
X380360182Y-82609469D01*
X380359000Y-82634532D01*
X380359000Y-84602512D01*
X379676000Y-84602512D01*
X379676000Y-82042100D01*
X379675663Y-82038850D01*
X379665738Y-81943192D01*
X379665737Y-81943188D01*
X379665026Y-81936334D01*
X379609050Y-81768554D01*
X379515978Y-81618152D01*
X379390803Y-81493195D01*
X379367934Y-81479098D01*
X379246468Y-81404225D01*
X379246466Y-81404224D01*
X379240238Y-81400385D01*
X379159426Y-81373581D01*
X379078889Y-81346868D01*
X379078887Y-81346868D01*
X379072361Y-81344703D01*
X379065525Y-81344003D01*
X379065522Y-81344002D01*
X379019091Y-81339245D01*
X378967900Y-81334000D01*
X377567100Y-81334000D01*
X377563854Y-81334337D01*
X377563850Y-81334337D01*
X377468192Y-81344262D01*
X377468188Y-81344263D01*
X377461334Y-81344974D01*
X377454798Y-81347155D01*
X377454796Y-81347155D01*
X377330781Y-81388530D01*
X377293554Y-81400950D01*
X377143152Y-81494022D01*
X377018195Y-81619197D01*
X377014355Y-81625427D01*
X377014354Y-81625428D01*
X376976007Y-81687639D01*
X376925385Y-81769762D01*
X376923081Y-81776709D01*
X376896537Y-81856738D01*
X376869703Y-81937639D01*
X376859000Y-82042100D01*
X376859000Y-85242900D01*
X371489554Y-85242900D01*
X371550727Y-85135434D01*
X371632284Y-84910747D01*
X371633234Y-84905495D01*
X371674080Y-84679615D01*
X371674081Y-84679607D01*
X371674818Y-84675531D01*
X371676000Y-84650468D01*
X371676000Y-82682488D01*
X371660883Y-82504325D01*
X371625821Y-82369237D01*
X371602173Y-82278125D01*
X371602171Y-82278120D01*
X371600832Y-82272960D01*
X371543250Y-82145133D01*
X371504847Y-82059881D01*
X371504846Y-82059878D01*
X371502657Y-82055020D01*
X371369166Y-81856738D01*
X371204174Y-81683782D01*
X371012400Y-81541098D01*
X371007649Y-81538682D01*
X371007645Y-81538680D01*
X370804086Y-81435186D01*
X370804085Y-81435186D01*
X370799328Y-81432767D01*
X370654875Y-81387913D01*
X370576151Y-81363468D01*
X370576145Y-81363467D01*
X370571048Y-81361884D01*
X370436132Y-81344002D01*
X370339373Y-81331177D01*
X370339369Y-81331177D01*
X370334089Y-81330477D01*
X370328760Y-81330677D01*
X370328759Y-81330677D01*
X370231517Y-81334328D01*
X370095226Y-81339445D01*
X370008316Y-81357681D01*
X369866516Y-81387433D01*
X369866513Y-81387434D01*
X369861289Y-81388530D01*
X369638967Y-81476329D01*
X369434617Y-81600332D01*
X369254081Y-81756993D01*
X369250698Y-81761119D01*
X369250694Y-81761123D01*
X369175202Y-81853193D01*
X369102522Y-81941833D01*
X368984273Y-82149566D01*
X368902716Y-82374253D01*
X368901767Y-82379502D01*
X368901766Y-82379505D01*
X368860920Y-82605385D01*
X368860919Y-82605393D01*
X368860182Y-82609469D01*
X368859000Y-82634532D01*
X368859000Y-84602512D01*
X368176000Y-84602512D01*
X368176000Y-82042100D01*
X368175663Y-82038850D01*
X368165738Y-81943192D01*
X368165737Y-81943188D01*
X368165026Y-81936334D01*
X368109050Y-81768554D01*
X368015978Y-81618152D01*
X367890803Y-81493195D01*
X367867934Y-81479098D01*
X367746468Y-81404225D01*
X367746466Y-81404224D01*
X367740238Y-81400385D01*
X367659426Y-81373581D01*
X367578889Y-81346868D01*
X367578887Y-81346868D01*
X367572361Y-81344703D01*
X367565525Y-81344003D01*
X367565522Y-81344002D01*
X367519091Y-81339245D01*
X367467900Y-81334000D01*
X366067100Y-81334000D01*
X366063854Y-81334337D01*
X366063850Y-81334337D01*
X365968192Y-81344262D01*
X365968188Y-81344263D01*
X365961334Y-81344974D01*
X365954798Y-81347155D01*
X365954796Y-81347155D01*
X365830781Y-81388530D01*
X365793554Y-81400950D01*
X365643152Y-81494022D01*
X365518195Y-81619197D01*
X365514355Y-81625427D01*
X365514354Y-81625428D01*
X365476007Y-81687639D01*
X365425385Y-81769762D01*
X365423081Y-81776709D01*
X365396537Y-81856738D01*
X365369703Y-81937639D01*
X365359000Y-82042100D01*
X365359000Y-85242900D01*
X359989554Y-85242900D01*
X360050727Y-85135434D01*
X360132284Y-84910747D01*
X360133234Y-84905495D01*
X360174080Y-84679615D01*
X360174081Y-84679607D01*
X360174818Y-84675531D01*
X360176000Y-84650468D01*
X360176000Y-82682488D01*
X360160883Y-82504325D01*
X360125821Y-82369237D01*
X360102173Y-82278125D01*
X360102171Y-82278120D01*
X360100832Y-82272960D01*
X360043250Y-82145133D01*
X360004847Y-82059881D01*
X360004846Y-82059878D01*
X360002657Y-82055020D01*
X359869166Y-81856738D01*
X359704174Y-81683782D01*
X359512400Y-81541098D01*
X359507649Y-81538682D01*
X359507645Y-81538680D01*
X359304086Y-81435186D01*
X359304085Y-81435186D01*
X359299328Y-81432767D01*
X359154875Y-81387913D01*
X359076151Y-81363468D01*
X359076145Y-81363467D01*
X359071048Y-81361884D01*
X358936132Y-81344002D01*
X358839373Y-81331177D01*
X358839369Y-81331177D01*
X358834089Y-81330477D01*
X358828760Y-81330677D01*
X358828759Y-81330677D01*
X358731517Y-81334328D01*
X358595226Y-81339445D01*
X358508316Y-81357681D01*
X358366516Y-81387433D01*
X358366513Y-81387434D01*
X358361289Y-81388530D01*
X358138967Y-81476329D01*
X357934617Y-81600332D01*
X357754081Y-81756993D01*
X357750698Y-81761119D01*
X357750694Y-81761123D01*
X357675202Y-81853193D01*
X357602522Y-81941833D01*
X357484273Y-82149566D01*
X357402716Y-82374253D01*
X357401767Y-82379502D01*
X357401766Y-82379505D01*
X357360920Y-82605385D01*
X357360919Y-82605393D01*
X357360182Y-82609469D01*
X357359000Y-82634532D01*
X357359000Y-84602512D01*
X356676000Y-84602512D01*
X356676000Y-82042100D01*
X356675663Y-82038850D01*
X356665738Y-81943192D01*
X356665737Y-81943188D01*
X356665026Y-81936334D01*
X356609050Y-81768554D01*
X356515978Y-81618152D01*
X356390803Y-81493195D01*
X356367934Y-81479098D01*
X356246468Y-81404225D01*
X356246466Y-81404224D01*
X356240238Y-81400385D01*
X356159426Y-81373581D01*
X356078889Y-81346868D01*
X356078887Y-81346868D01*
X356072361Y-81344703D01*
X356065525Y-81344003D01*
X356065522Y-81344002D01*
X356019091Y-81339245D01*
X355967900Y-81334000D01*
X354567100Y-81334000D01*
X354563854Y-81334337D01*
X354563850Y-81334337D01*
X354468192Y-81344262D01*
X354468188Y-81344263D01*
X354461334Y-81344974D01*
X354454798Y-81347155D01*
X354454796Y-81347155D01*
X354330781Y-81388530D01*
X354293554Y-81400950D01*
X354143152Y-81494022D01*
X354018195Y-81619197D01*
X354014355Y-81625427D01*
X354014354Y-81625428D01*
X353976007Y-81687639D01*
X353925385Y-81769762D01*
X353923081Y-81776709D01*
X353896537Y-81856738D01*
X353869703Y-81937639D01*
X353859000Y-82042100D01*
X353859000Y-85242900D01*
X348489554Y-85242900D01*
X348550727Y-85135434D01*
X348632284Y-84910747D01*
X348633234Y-84905495D01*
X348674080Y-84679615D01*
X348674081Y-84679607D01*
X348674818Y-84675531D01*
X348676000Y-84650468D01*
X348676000Y-82682488D01*
X348660883Y-82504325D01*
X348625821Y-82369237D01*
X348602173Y-82278125D01*
X348602171Y-82278120D01*
X348600832Y-82272960D01*
X348543250Y-82145133D01*
X348504847Y-82059881D01*
X348504846Y-82059878D01*
X348502657Y-82055020D01*
X348369166Y-81856738D01*
X348204174Y-81683782D01*
X348012400Y-81541098D01*
X348007649Y-81538682D01*
X348007645Y-81538680D01*
X347804086Y-81435186D01*
X347804085Y-81435186D01*
X347799328Y-81432767D01*
X347654875Y-81387913D01*
X347576151Y-81363468D01*
X347576145Y-81363467D01*
X347571048Y-81361884D01*
X347436132Y-81344002D01*
X347339373Y-81331177D01*
X347339369Y-81331177D01*
X347334089Y-81330477D01*
X347328760Y-81330677D01*
X347328759Y-81330677D01*
X347231517Y-81334328D01*
X347095226Y-81339445D01*
X347008316Y-81357681D01*
X346866516Y-81387433D01*
X346866513Y-81387434D01*
X346861289Y-81388530D01*
X346638967Y-81476329D01*
X346434617Y-81600332D01*
X346254081Y-81756993D01*
X346250698Y-81761119D01*
X346250694Y-81761123D01*
X346175202Y-81853193D01*
X346102522Y-81941833D01*
X345984273Y-82149566D01*
X345902716Y-82374253D01*
X345901767Y-82379502D01*
X345901766Y-82379505D01*
X345860920Y-82605385D01*
X345860919Y-82605393D01*
X345860182Y-82609469D01*
X345859000Y-82634532D01*
X345859000Y-84602512D01*
X345176000Y-84602512D01*
X345176000Y-82042100D01*
X345175663Y-82038850D01*
X345165738Y-81943192D01*
X345165737Y-81943188D01*
X345165026Y-81936334D01*
X345109050Y-81768554D01*
X345015978Y-81618152D01*
X344890803Y-81493195D01*
X344867934Y-81479098D01*
X344746468Y-81404225D01*
X344746466Y-81404224D01*
X344740238Y-81400385D01*
X344659426Y-81373581D01*
X344578889Y-81346868D01*
X344578887Y-81346868D01*
X344572361Y-81344703D01*
X344565525Y-81344003D01*
X344565522Y-81344002D01*
X344519091Y-81339245D01*
X344467900Y-81334000D01*
X343067100Y-81334000D01*
X343063854Y-81334337D01*
X343063850Y-81334337D01*
X342968192Y-81344262D01*
X342968188Y-81344263D01*
X342961334Y-81344974D01*
X342954798Y-81347155D01*
X342954796Y-81347155D01*
X342830781Y-81388530D01*
X342793554Y-81400950D01*
X342643152Y-81494022D01*
X342518195Y-81619197D01*
X342514355Y-81625427D01*
X342514354Y-81625428D01*
X342476007Y-81687639D01*
X342425385Y-81769762D01*
X342423081Y-81776709D01*
X342396537Y-81856738D01*
X342369703Y-81937639D01*
X342359000Y-82042100D01*
X342359000Y-85242900D01*
X336989554Y-85242900D01*
X337050727Y-85135434D01*
X337132284Y-84910747D01*
X337133234Y-84905495D01*
X337174080Y-84679615D01*
X337174081Y-84679607D01*
X337174818Y-84675531D01*
X337176000Y-84650468D01*
X337176000Y-82682488D01*
X337160883Y-82504325D01*
X337125821Y-82369237D01*
X337102173Y-82278125D01*
X337102171Y-82278120D01*
X337100832Y-82272960D01*
X337043250Y-82145133D01*
X337004847Y-82059881D01*
X337004846Y-82059878D01*
X337002657Y-82055020D01*
X336869166Y-81856738D01*
X336704174Y-81683782D01*
X336512400Y-81541098D01*
X336507649Y-81538682D01*
X336507645Y-81538680D01*
X336304086Y-81435186D01*
X336304085Y-81435186D01*
X336299328Y-81432767D01*
X336154875Y-81387913D01*
X336076151Y-81363468D01*
X336076145Y-81363467D01*
X336071048Y-81361884D01*
X335936132Y-81344002D01*
X335839373Y-81331177D01*
X335839369Y-81331177D01*
X335834089Y-81330477D01*
X335828760Y-81330677D01*
X335828759Y-81330677D01*
X335731517Y-81334328D01*
X335595226Y-81339445D01*
X335508316Y-81357681D01*
X335366516Y-81387433D01*
X335366513Y-81387434D01*
X335361289Y-81388530D01*
X335138967Y-81476329D01*
X334934617Y-81600332D01*
X334754081Y-81756993D01*
X334750698Y-81761119D01*
X334750694Y-81761123D01*
X334675202Y-81853193D01*
X334602522Y-81941833D01*
X334484273Y-82149566D01*
X334402716Y-82374253D01*
X334401767Y-82379502D01*
X334401766Y-82379505D01*
X334360920Y-82605385D01*
X334360919Y-82605393D01*
X334360182Y-82609469D01*
X334359000Y-82634532D01*
X334359000Y-84602512D01*
X333676000Y-84602512D01*
X333676000Y-82042100D01*
X333675663Y-82038850D01*
X333665738Y-81943192D01*
X333665737Y-81943188D01*
X333665026Y-81936334D01*
X333609050Y-81768554D01*
X333515978Y-81618152D01*
X333390803Y-81493195D01*
X333367934Y-81479098D01*
X333246468Y-81404225D01*
X333246466Y-81404224D01*
X333240238Y-81400385D01*
X333159426Y-81373581D01*
X333078889Y-81346868D01*
X333078887Y-81346868D01*
X333072361Y-81344703D01*
X333065525Y-81344003D01*
X333065522Y-81344002D01*
X333019091Y-81339245D01*
X332967900Y-81334000D01*
X331567100Y-81334000D01*
X331563854Y-81334337D01*
X331563850Y-81334337D01*
X331468192Y-81344262D01*
X331468188Y-81344263D01*
X331461334Y-81344974D01*
X331454798Y-81347155D01*
X331454796Y-81347155D01*
X331330781Y-81388530D01*
X331293554Y-81400950D01*
X331143152Y-81494022D01*
X331018195Y-81619197D01*
X331014355Y-81625427D01*
X331014354Y-81625428D01*
X330976007Y-81687639D01*
X330925385Y-81769762D01*
X330923081Y-81776709D01*
X330896537Y-81856738D01*
X330869703Y-81937639D01*
X330859000Y-82042100D01*
X330859000Y-85242900D01*
X322757100Y-85242900D01*
X328954595Y-79045405D01*
X329016907Y-79011379D01*
X329043690Y-79008500D01*
X411456310Y-79008500D01*
X411524431Y-79028502D01*
G37*
%TD.AperFunction*%
%TD*%
M02*
