M48
; DRILL file {KiCad (6.0.7)} date 2022年08月24日 星期三 20时04分55秒
; FORMAT={-:-/ absolute / inch / decimal}
; #@! TF.CreationDate,2022-08-24T20:04:55-04:00
; #@! TF.GenerationSoftware,Kicad,Pcbnew,(6.0.7)
; #@! TF.FileFunction,MixedPlating,1,2
FMAT,2
INCH
; #@! TA.AperFunction,Plated,PTH,ComponentDrill
T1C0.0276
; #@! TA.AperFunction,Plated,PTH,ComponentDrill
T2C0.0315
; #@! TA.AperFunction,Plated,PTH,ComponentDrill
T3C0.0350
; #@! TA.AperFunction,Plated,PTH,ComponentDrill
T4C0.0791
; #@! TA.AperFunction,Plated,PTH,ComponentDrill
T5C0.1457
; #@! TA.AperFunction,Plated,PTH,ComponentDrill
T6C0.1575
%
G90
G05
T1
X4.524Y-3.1844
X4.524Y-3.3104
X4.524Y-3.397
X4.524Y-3.4836
X4.524Y-3.6544
X4.524Y-3.7804
X4.524Y-3.867
X4.524Y-3.9536
X4.526Y-4.1304
X4.526Y-4.2564
X4.526Y-4.343
X4.526Y-4.4296
X4.724Y-3.1844
X4.724Y-3.3104
X4.724Y-3.397
X4.724Y-3.4836
X4.724Y-3.6544
X4.724Y-3.7804
X4.724Y-3.867
X4.724Y-3.9536
X4.726Y-4.1304
X4.726Y-4.2564
X4.726Y-4.343
X4.726Y-4.4296
X7.2344Y-4.23
X7.2344Y-4.43
X7.2364Y-3.784
X7.2364Y-3.984
X7.321Y-4.23
X7.321Y-4.43
X7.323Y-3.784
X7.323Y-3.984
X7.4076Y-4.23
X7.4076Y-4.43
X7.4096Y-3.784
X7.4096Y-3.984
X7.5336Y-4.23
X7.5336Y-4.43
X7.5356Y-3.784
X7.5356Y-3.984
T2
X4.878Y-3.786
X5.278Y-3.786
X5.52Y-3.182
X5.52Y-3.582
X5.53Y-3.952
X5.53Y-4.352
X7.22Y-4.104
X7.62Y-4.104
X7.766Y-3.784
X7.766Y-4.184
X7.9809Y-3.97
X7.9809Y-4.328
X8.1187Y-3.97
X8.1187Y-4.328
X8.404Y-3.798
X8.804Y-3.798
T3
X3.195Y-3.586
X3.295Y-3.586
X3.3Y-3.9838
X3.4Y-3.9838
X4.059Y-3.59
X4.159Y-3.59
X4.164Y-3.9878
X4.264Y-3.9878
X4.98Y-3.592
X5.08Y-3.592
X5.085Y-3.9898
X5.185Y-3.9898
X5.845Y-3.6
X5.945Y-3.6
X5.95Y-3.9978
X6.05Y-3.9978
X6.71Y-3.6
X6.81Y-3.6
X6.815Y-3.9978
X6.915Y-3.9978
X7.575Y-3.6
X7.675Y-3.6
X8.44Y-3.6
X8.54Y-3.6
X8.545Y-3.9978
X8.645Y-3.9978
T4
X3.095Y-3.386
X3.1Y-4.1838
X3.495Y-3.386
X3.5Y-4.1838
X3.959Y-3.39
X3.964Y-4.1878
X4.359Y-3.39
X4.364Y-4.1878
X4.88Y-3.392
X4.885Y-4.1898
X5.28Y-3.392
X5.285Y-4.1898
X5.745Y-3.4
X5.75Y-4.1978
X6.145Y-3.4
X6.15Y-4.1978
X6.61Y-3.4
X6.615Y-4.1978
X7.01Y-3.4
X7.015Y-4.1978
X7.475Y-3.4
X7.875Y-3.4
X8.34Y-3.4
X8.345Y-4.1978
X8.74Y-3.4
X8.745Y-4.1978
T5
X8.1Y-3.64
T6
X3.72Y-3.78
T0
M30
