%TF.GenerationSoftware,KiCad,Pcbnew,(6.0.7)*%
%TF.CreationDate,2022-08-24T20:04:41-04:00*%
%TF.ProjectId,chiller_interlock_aosense,6368696c-6c65-4725-9f69-6e7465726c6f,rev?*%
%TF.SameCoordinates,Original*%
%TF.FileFunction,Copper,L2,Bot*%
%TF.FilePolarity,Positive*%
%FSLAX46Y46*%
G04 Gerber Fmt 4.6, Leading zero omitted, Abs format (unit mm)*
G04 Created by KiCad (PCBNEW (6.0.7)) date 2022-08-24 20:04:41*
%MOMM*%
%LPD*%
G01*
G04 APERTURE LIST*
%TA.AperFunction,Profile*%
%ADD10C,0.100000*%
%TD*%
%TA.AperFunction,ComponentPad*%
%ADD11O,1.600000X2.500000*%
%TD*%
%TA.AperFunction,ComponentPad*%
%ADD12O,3.500000X7.000000*%
%TD*%
%TA.AperFunction,ComponentPad*%
%ADD13C,8.000000*%
%TD*%
%TA.AperFunction,ComponentPad*%
%ADD14C,7.400000*%
%TD*%
%TA.AperFunction,ComponentPad*%
%ADD15C,1.400000*%
%TD*%
%TA.AperFunction,ComponentPad*%
%ADD16C,1.600000*%
%TD*%
%TA.AperFunction,ComponentPad*%
%ADD17O,1.600000X1.600000*%
%TD*%
%TA.AperFunction,ComponentPad*%
%ADD18R,1.600000X1.600000*%
%TD*%
%TA.AperFunction,Conductor*%
%ADD19C,0.250000*%
%TD*%
G04 APERTURE END LIST*
D10*
X225044000Y-77724000D02*
X225044000Y-114808000D01*
X75692000Y-77724000D02*
X225044000Y-77724000D01*
X75692000Y-114808000D02*
X75692000Y-77724000D01*
X225044000Y-114808000D02*
X75692000Y-114808000D01*
D11*
%TO.P,J13,2,Ext*%
%TO.N,Net-(J13-Pad2)*%
X86360000Y-101188400D03*
D12*
X88900000Y-106268400D03*
X78740000Y-106268400D03*
D11*
%TO.P,J13,1,In*%
%TO.N,Net-(J13-Pad1)*%
X83820000Y-101188400D03*
%TD*%
D13*
%TO.P,J15,1,Pin_1*%
%TO.N,GND*%
X94488000Y-96012000D03*
%TD*%
D14*
%TO.P,J14,1,Pin_1*%
%TO.N,GND*%
X205740000Y-92456000D03*
%TD*%
D15*
%TO.P,K1,8*%
%TO.N,GND*%
X191404400Y-101193600D03*
%TO.P,K1,7*%
%TO.N,unconnected-(K1-Pad7)*%
X188204400Y-101193600D03*
%TO.P,K1,6*%
%TO.N,Net-(J5-Pad1)*%
X186004400Y-101193600D03*
%TO.P,K1,5*%
%TO.N,Net-(J5-Pad2)*%
X183804400Y-101193600D03*
%TO.P,K1,4*%
%TO.N,Net-(J4-Pad2)*%
X183804400Y-96113600D03*
%TO.P,K1,3*%
%TO.N,Net-(J4-Pad1)*%
X186004400Y-96113600D03*
%TO.P,K1,2*%
%TO.N,unconnected-(K1-Pad2)*%
X188204400Y-96113600D03*
%TO.P,K1,1*%
%TO.N,Net-(K1-Pad1)*%
X191404400Y-96113600D03*
%TD*%
D16*
%TO.P,R6,1*%
%TO.N,TTL_IN*%
X223621600Y-96469200D03*
D17*
%TO.P,R6,2*%
%TO.N,TTL_OUT*%
X213461600Y-96469200D03*
%TD*%
D16*
%TO.P,R5,1*%
%TO.N,TTL_IN*%
X140462000Y-100380800D03*
D17*
%TO.P,R5,2*%
%TO.N,Net-(K5-Pad1)*%
X140462000Y-110540800D03*
%TD*%
D16*
%TO.P,R4,1*%
%TO.N,TTL_IN*%
X134061200Y-96164400D03*
D17*
%TO.P,R4,2*%
%TO.N,Net-(K4-Pad1)*%
X123901200Y-96164400D03*
%TD*%
%TO.P,R3,2*%
%TO.N,Net-(K3-Pad1)*%
X140208000Y-80822800D03*
D16*
%TO.P,R3,1*%
%TO.N,TTL_IN*%
X140208000Y-90982800D03*
%TD*%
%TO.P,R2,1*%
%TO.N,TTL_IN*%
X193548000Y-104241600D03*
D17*
%TO.P,R2,2*%
%TO.N,Net-(K2-Pad1)*%
X183388000Y-104241600D03*
%TD*%
D16*
%TO.P,R1,1*%
%TO.N,TTL_IN*%
X197256400Y-106273600D03*
D17*
%TO.P,R1,2*%
%TO.N,Net-(K1-Pad1)*%
X197256400Y-96113600D03*
%TD*%
D15*
%TO.P,K5,1*%
%TO.N,Net-(K5-Pad1)*%
X114960400Y-104912000D03*
%TO.P,K5,2*%
%TO.N,unconnected-(K5-Pad2)*%
X114960400Y-108112000D03*
%TO.P,K5,3*%
%TO.N,Net-(J12-Pad1)*%
X114960400Y-110312000D03*
%TO.P,K5,4*%
%TO.N,Net-(J12-Pad2)*%
X114960400Y-112512000D03*
%TO.P,K5,5*%
%TO.N,Net-(J13-Pad2)*%
X120040400Y-112512000D03*
%TO.P,K5,6*%
%TO.N,Net-(J13-Pad1)*%
X120040400Y-110312000D03*
%TO.P,K5,7*%
%TO.N,unconnected-(K5-Pad7)*%
X120040400Y-108112000D03*
%TO.P,K5,8*%
%TO.N,GND*%
X120040400Y-104912000D03*
%TD*%
%TO.P,K4,1*%
%TO.N,Net-(K4-Pad1)*%
X114909600Y-92821600D03*
%TO.P,K4,2*%
%TO.N,unconnected-(K4-Pad2)*%
X114909600Y-96021600D03*
%TO.P,K4,3*%
%TO.N,Net-(J10-Pad1)*%
X114909600Y-98221600D03*
%TO.P,K4,4*%
%TO.N,Net-(J10-Pad2)*%
X114909600Y-100421600D03*
%TO.P,K4,5*%
%TO.N,Net-(J11-Pad2)*%
X119989600Y-100421600D03*
%TO.P,K4,6*%
%TO.N,Net-(J11-Pad1)*%
X119989600Y-98221600D03*
%TO.P,K4,7*%
%TO.N,unconnected-(K4-Pad7)*%
X119989600Y-96021600D03*
%TO.P,K4,8*%
%TO.N,GND*%
X119989600Y-92821600D03*
%TD*%
%TO.P,K3,8*%
%TO.N,GND*%
X119989600Y-80883600D03*
%TO.P,K3,7*%
%TO.N,unconnected-(K3-Pad7)*%
X119989600Y-84083600D03*
%TO.P,K3,6*%
%TO.N,Net-(J9-Pad1)*%
X119989600Y-86283600D03*
%TO.P,K3,5*%
%TO.N,Net-(J9-Pad2)*%
X119989600Y-88483600D03*
%TO.P,K3,4*%
%TO.N,Net-(J8-Pad2)*%
X114909600Y-88483600D03*
%TO.P,K3,3*%
%TO.N,Net-(J8-Pad1)*%
X114909600Y-86283600D03*
%TO.P,K3,2*%
%TO.N,unconnected-(K3-Pad2)*%
X114909600Y-84083600D03*
%TO.P,K3,1*%
%TO.N,Net-(K3-Pad1)*%
X114909600Y-80883600D03*
%TD*%
%TO.P,K2,1*%
%TO.N,Net-(K2-Pad1)*%
X191353600Y-107442000D03*
%TO.P,K2,2*%
%TO.N,unconnected-(K2-Pad2)*%
X188153600Y-107442000D03*
%TO.P,K2,3*%
%TO.N,Net-(J6-Pad1)*%
X185953600Y-107442000D03*
%TO.P,K2,4*%
%TO.N,Net-(J6-Pad2)*%
X183753600Y-107442000D03*
%TO.P,K2,5*%
%TO.N,Net-(J7-Pad2)*%
X183753600Y-112522000D03*
%TO.P,K2,6*%
%TO.N,Net-(J7-Pad1)*%
X185953600Y-112522000D03*
%TO.P,K2,7*%
%TO.N,unconnected-(K2-Pad7)*%
X188153600Y-112522000D03*
%TO.P,K2,8*%
%TO.N,GND*%
X191353600Y-112522000D03*
%TD*%
D11*
%TO.P,J12,2,Ext*%
%TO.N,Net-(J12-Pad2)*%
X81153000Y-91084400D03*
D12*
X78613000Y-86004400D03*
X88773000Y-86004400D03*
D11*
%TO.P,J12,1,In*%
%TO.N,Net-(J12-Pad1)*%
X83693000Y-91084400D03*
%TD*%
%TO.P,J11,1,In*%
%TO.N,Net-(J11-Pad1)*%
X105765600Y-101290000D03*
D12*
%TO.P,J11,2,Ext*%
%TO.N,Net-(J11-Pad2)*%
X100685600Y-106370000D03*
X110845600Y-106370000D03*
D11*
X108305600Y-101290000D03*
%TD*%
%TO.P,J10,1,In*%
%TO.N,Net-(J10-Pad1)*%
X105638600Y-91186000D03*
D12*
%TO.P,J10,2,Ext*%
%TO.N,Net-(J10-Pad2)*%
X110718600Y-86106000D03*
X100558600Y-86106000D03*
D11*
X103098600Y-91186000D03*
%TD*%
%TO.P,J9,2,Ext*%
%TO.N,Net-(J9-Pad2)*%
X131699000Y-101340800D03*
D12*
X134239000Y-106420800D03*
X124079000Y-106420800D03*
D11*
%TO.P,J9,1,In*%
%TO.N,Net-(J9-Pad1)*%
X129159000Y-101340800D03*
%TD*%
%TO.P,J8,2,Ext*%
%TO.N,Net-(J8-Pad2)*%
X126492000Y-91236800D03*
D12*
X123952000Y-86156800D03*
X134112000Y-86156800D03*
D11*
%TO.P,J8,1,In*%
%TO.N,Net-(J8-Pad1)*%
X129032000Y-91236800D03*
%TD*%
%TO.P,J7,2,Ext*%
%TO.N,Net-(J7-Pad2)*%
X153670000Y-101544000D03*
D12*
X156210000Y-106624000D03*
X146050000Y-106624000D03*
D11*
%TO.P,J7,1,In*%
%TO.N,Net-(J7-Pad1)*%
X151130000Y-101544000D03*
%TD*%
%TO.P,J6,1,In*%
%TO.N,Net-(J6-Pad1)*%
X151003000Y-91440000D03*
D12*
%TO.P,J6,2,Ext*%
%TO.N,Net-(J6-Pad2)*%
X156083000Y-86360000D03*
X145923000Y-86360000D03*
D11*
X148463000Y-91440000D03*
%TD*%
%TO.P,J5,1,In*%
%TO.N,Net-(J5-Pad1)*%
X173101000Y-101544000D03*
D12*
%TO.P,J5,2,Ext*%
%TO.N,Net-(J5-Pad2)*%
X168021000Y-106624000D03*
X178181000Y-106624000D03*
D11*
X175641000Y-101544000D03*
%TD*%
%TO.P,J4,2,Ext*%
%TO.N,Net-(J4-Pad2)*%
X170434000Y-91440000D03*
D12*
X167894000Y-86360000D03*
X178054000Y-86360000D03*
D11*
%TO.P,J4,1,In*%
%TO.N,Net-(J4-Pad1)*%
X172974000Y-91440000D03*
%TD*%
%TO.P,J3,1,In*%
%TO.N,TTL_OUT*%
X194945000Y-91440000D03*
D12*
%TO.P,J3,2,Ext*%
%TO.N,GND*%
X200025000Y-86360000D03*
X189865000Y-86360000D03*
D11*
X192405000Y-91440000D03*
%TD*%
%TO.P,J2,2,Ext*%
%TO.N,GND*%
X214376000Y-91440000D03*
D12*
X211836000Y-86360000D03*
X221996000Y-86360000D03*
D11*
%TO.P,J2,1,In*%
%TO.N,TTL_OUT*%
X216916000Y-91440000D03*
%TD*%
%TO.P,J1,2,Ext*%
%TO.N,GND*%
X219583000Y-101544000D03*
D12*
X222123000Y-106624000D03*
X211963000Y-106624000D03*
D11*
%TO.P,J1,1,In*%
%TO.N,TTL_IN*%
X217043000Y-101544000D03*
%TD*%
D18*
%TO.P,C2,1*%
%TO.N,TTL_OUT*%
X202715749Y-109931200D03*
D16*
%TO.P,C2,2*%
%TO.N,GND*%
X206215749Y-109931200D03*
%TD*%
D18*
%TO.P,C1,1*%
%TO.N,TTL_OUT*%
X202715749Y-100838000D03*
D16*
%TO.P,C1,2*%
%TO.N,GND*%
X206215749Y-100838000D03*
%TD*%
D19*
%TO.N,GND*%
X219583000Y-101544000D02*
X219583000Y-96647000D01*
X219583000Y-96647000D02*
X214376000Y-91440000D01*
X211963000Y-106624000D02*
X211963000Y-106585251D01*
X211963000Y-106585251D02*
X206215749Y-100838000D01*
%TD*%
M02*
