%TF.GenerationSoftware,KiCad,Pcbnew,(6.0.7)*%
%TF.CreationDate,2022-08-25T07:22:17-04:00*%
%TF.ProjectId,chiller_interlock_aosense,6368696c-6c65-4725-9f69-6e7465726c6f,rev?*%
%TF.SameCoordinates,Original*%
%TF.FileFunction,Soldermask,Top*%
%TF.FilePolarity,Negative*%
%FSLAX46Y46*%
G04 Gerber Fmt 4.6, Leading zero omitted, Abs format (unit mm)*
G04 Created by KiCad (PCBNEW (6.0.7)) date 2022-08-25 07:22:17*
%MOMM*%
%LPD*%
G01*
G04 APERTURE LIST*
G04 Aperture macros list*
%AMRoundRect*
0 Rectangle with rounded corners*
0 $1 Rounding radius*
0 $2 $3 $4 $5 $6 $7 $8 $9 X,Y pos of 4 corners*
0 Add a 4 corners polygon primitive as box body*
4,1,4,$2,$3,$4,$5,$6,$7,$8,$9,$2,$3,0*
0 Add four circle primitives for the rounded corners*
1,1,$1+$1,$2,$3*
1,1,$1+$1,$4,$5*
1,1,$1+$1,$6,$7*
1,1,$1+$1,$8,$9*
0 Add four rect primitives between the rounded corners*
20,1,$1+$1,$2,$3,$4,$5,0*
20,1,$1+$1,$4,$5,$6,$7,0*
20,1,$1+$1,$6,$7,$8,$9,0*
20,1,$1+$1,$8,$9,$2,$3,0*%
G04 Aperture macros list end*
%TA.AperFunction,Profile*%
%ADD10C,0.100000*%
%TD*%
%ADD11R,1.600000X1.600000*%
%ADD12C,1.600000*%
%ADD13C,7.400000*%
%ADD14C,8.000000*%
%ADD15RoundRect,0.250000X-0.650000X-1.550000X0.650000X-1.550000X0.650000X1.550000X-0.650000X1.550000X0*%
%ADD16O,1.800000X3.600000*%
%ADD17O,1.600000X1.600000*%
%ADD18RoundRect,0.250000X0.650000X1.550000X-0.650000X1.550000X-0.650000X-1.550000X0.650000X-1.550000X0*%
%ADD19O,1.600000X2.500000*%
%ADD20O,3.500000X7.000000*%
%ADD21C,1.400000*%
G04 APERTURE END LIST*
D10*
X321000000Y-108250000D02*
X321000000Y-78500000D01*
X321000000Y-78500000D02*
X419000000Y-78500000D01*
X419000000Y-108250000D02*
X321000000Y-108250000D01*
X419000000Y-78500000D02*
X419000000Y-108250000D01*
D11*
%TO.C,C1*%
X390000000Y-105152651D03*
D12*
X390000000Y-101652651D03*
%TD*%
D13*
%TO.C,J14*%
X325000000Y-103250000D03*
%TD*%
D14*
%TO.C,J15*%
X414500000Y-90250000D03*
%TD*%
D15*
%TO.C,J2*%
X393767500Y-83642500D03*
D16*
X397267500Y-83642500D03*
%TD*%
D12*
%TO.C,R2*%
X372250000Y-98580000D03*
D17*
X372250000Y-88420000D03*
%TD*%
D18*
%TO.C,J12*%
X335732500Y-103357500D03*
D16*
X332232500Y-103357500D03*
%TD*%
D19*
%TO.C,J1*%
X403000000Y-95500000D03*
X405540000Y-95500000D03*
D20*
X408080000Y-100580000D03*
X397920000Y-100580000D03*
%TD*%
D12*
%TO.C,R5*%
X337750000Y-98580000D03*
D17*
X337750000Y-88420000D03*
%TD*%
D15*
%TO.C,J3*%
X404767500Y-83642500D03*
D16*
X408267500Y-83642500D03*
%TD*%
D18*
%TO.C,J8*%
X358732500Y-103357500D03*
D16*
X355232500Y-103357500D03*
%TD*%
D21*
%TO.C,K2*%
X364210000Y-89700000D03*
X364210000Y-92900000D03*
X364210000Y-95100000D03*
X364210000Y-97300000D03*
X369290000Y-97300000D03*
X369290000Y-95100000D03*
X369290000Y-92900000D03*
X369290000Y-89700000D03*
%TD*%
D11*
%TO.C,C2*%
X390000000Y-92347349D03*
D12*
X390000000Y-95847349D03*
%TD*%
D15*
%TO.C,J11*%
X343767500Y-83642500D03*
D16*
X347267500Y-83642500D03*
%TD*%
D12*
%TO.C,R3*%
X360750000Y-98580000D03*
D17*
X360750000Y-88420000D03*
%TD*%
D21*
%TO.C,K1*%
X375710000Y-89700000D03*
X375710000Y-92900000D03*
X375710000Y-95100000D03*
X375710000Y-97300000D03*
X380790000Y-97300000D03*
X380790000Y-95100000D03*
X380790000Y-92900000D03*
X380790000Y-89700000D03*
%TD*%
D12*
%TO.C,R4*%
X349250000Y-98580000D03*
D17*
X349250000Y-88420000D03*
%TD*%
D15*
%TO.C,J7*%
X366767500Y-83642500D03*
D16*
X370267500Y-83642500D03*
%TD*%
D15*
%TO.C,J13*%
X332267500Y-83642500D03*
D16*
X335767500Y-83642500D03*
%TD*%
D18*
%TO.C,J6*%
X370232500Y-103357500D03*
D16*
X366732500Y-103357500D03*
%TD*%
%TO.C,J4*%
X378232500Y-103357500D03*
D18*
X381732500Y-103357500D03*
%TD*%
D12*
%TO.C,R1*%
X383750000Y-98580000D03*
D17*
X383750000Y-88420000D03*
%TD*%
D21*
%TO.C,K3*%
X352710000Y-89700000D03*
X352710000Y-92900000D03*
X352710000Y-95100000D03*
X352710000Y-97300000D03*
X357790000Y-97300000D03*
X357790000Y-95100000D03*
X357790000Y-92900000D03*
X357790000Y-89700000D03*
%TD*%
D12*
%TO.C,R6*%
X408080000Y-90000000D03*
D17*
X397920000Y-90000000D03*
%TD*%
D18*
%TO.C,J10*%
X347232500Y-103357500D03*
D16*
X343732500Y-103357500D03*
%TD*%
D15*
%TO.C,J9*%
X355267500Y-83642500D03*
D16*
X358767500Y-83642500D03*
%TD*%
D15*
%TO.C,J5*%
X378267500Y-83642500D03*
D16*
X381767500Y-83642500D03*
%TD*%
D21*
%TO.C,K4*%
X341210000Y-89700000D03*
X341210000Y-92900000D03*
X341210000Y-95100000D03*
X341210000Y-97300000D03*
X346290000Y-97300000D03*
X346290000Y-95100000D03*
X346290000Y-92900000D03*
X346290000Y-89700000D03*
%TD*%
%TO.C,K5*%
X329710000Y-89700000D03*
X329710000Y-92900000D03*
X329710000Y-95100000D03*
X329710000Y-97300000D03*
X334790000Y-97300000D03*
X334790000Y-95100000D03*
X334790000Y-92900000D03*
X334790000Y-89700000D03*
%TD*%
M02*
