%TF.GenerationSoftware,KiCad,Pcbnew,(6.0.7)*%
%TF.CreationDate,2022-08-24T20:04:41-04:00*%
%TF.ProjectId,chiller_interlock_aosense,6368696c-6c65-4725-9f69-6e7465726c6f,rev?*%
%TF.SameCoordinates,Original*%
%TF.FileFunction,Legend,Top*%
%TF.FilePolarity,Positive*%
%FSLAX46Y46*%
G04 Gerber Fmt 4.6, Leading zero omitted, Abs format (unit mm)*
G04 Created by KiCad (PCBNEW (6.0.7)) date 2022-08-24 20:04:41*
%MOMM*%
%LPD*%
G01*
G04 APERTURE LIST*
%TA.AperFunction,Profile*%
%ADD10C,0.100000*%
%TD*%
%ADD11C,0.150000*%
%ADD12C,0.120000*%
G04 APERTURE END LIST*
D10*
X225044000Y-77724000D02*
X225044000Y-114808000D01*
X75692000Y-77724000D02*
X225044000Y-77724000D01*
X75692000Y-114808000D02*
X75692000Y-77724000D01*
X225044000Y-114808000D02*
X75692000Y-114808000D01*
D11*
%TO.C,J13*%
X83010476Y-96640780D02*
X83010476Y-97355066D01*
X82962857Y-97497923D01*
X82867619Y-97593161D01*
X82724761Y-97640780D01*
X82629523Y-97640780D01*
X84010476Y-97640780D02*
X83439047Y-97640780D01*
X83724761Y-97640780D02*
X83724761Y-96640780D01*
X83629523Y-96783638D01*
X83534285Y-96878876D01*
X83439047Y-96926495D01*
X84343809Y-96640780D02*
X84962857Y-96640780D01*
X84629523Y-97021733D01*
X84772380Y-97021733D01*
X84867619Y-97069352D01*
X84915238Y-97116971D01*
X84962857Y-97212209D01*
X84962857Y-97450304D01*
X84915238Y-97545542D01*
X84867619Y-97593161D01*
X84772380Y-97640780D01*
X84486666Y-97640780D01*
X84391428Y-97593161D01*
X84343809Y-97545542D01*
%TO.C,J15*%
X93678476Y-90464380D02*
X93678476Y-91178666D01*
X93630857Y-91321523D01*
X93535619Y-91416761D01*
X93392761Y-91464380D01*
X93297523Y-91464380D01*
X94678476Y-91464380D02*
X94107047Y-91464380D01*
X94392761Y-91464380D02*
X94392761Y-90464380D01*
X94297523Y-90607238D01*
X94202285Y-90702476D01*
X94107047Y-90750095D01*
X95583238Y-90464380D02*
X95107047Y-90464380D01*
X95059428Y-90940571D01*
X95107047Y-90892952D01*
X95202285Y-90845333D01*
X95440380Y-90845333D01*
X95535619Y-90892952D01*
X95583238Y-90940571D01*
X95630857Y-91035809D01*
X95630857Y-91273904D01*
X95583238Y-91369142D01*
X95535619Y-91416761D01*
X95440380Y-91464380D01*
X95202285Y-91464380D01*
X95107047Y-91416761D01*
X95059428Y-91369142D01*
%TO.C,J14*%
X204930476Y-87208380D02*
X204930476Y-87922666D01*
X204882857Y-88065523D01*
X204787619Y-88160761D01*
X204644761Y-88208380D01*
X204549523Y-88208380D01*
X205930476Y-88208380D02*
X205359047Y-88208380D01*
X205644761Y-88208380D02*
X205644761Y-87208380D01*
X205549523Y-87351238D01*
X205454285Y-87446476D01*
X205359047Y-87494095D01*
X206787619Y-87541714D02*
X206787619Y-88208380D01*
X206549523Y-87160761D02*
X206311428Y-87875047D01*
X206930476Y-87875047D01*
%TO.C,K1*%
X194156780Y-99451695D02*
X193156780Y-99451695D01*
X194156780Y-98880266D02*
X193585352Y-99308838D01*
X193156780Y-98880266D02*
X193728209Y-99451695D01*
X194156780Y-97927885D02*
X194156780Y-98499314D01*
X194156780Y-98213600D02*
X193156780Y-98213600D01*
X193299638Y-98308838D01*
X193394876Y-98404076D01*
X193442495Y-98499314D01*
%TO.C,R6*%
X218374933Y-99291580D02*
X218041600Y-98815390D01*
X217803504Y-99291580D02*
X217803504Y-98291580D01*
X218184457Y-98291580D01*
X218279695Y-98339200D01*
X218327314Y-98386819D01*
X218374933Y-98482057D01*
X218374933Y-98624914D01*
X218327314Y-98720152D01*
X218279695Y-98767771D01*
X218184457Y-98815390D01*
X217803504Y-98815390D01*
X219232076Y-98291580D02*
X219041600Y-98291580D01*
X218946361Y-98339200D01*
X218898742Y-98386819D01*
X218803504Y-98529676D01*
X218755885Y-98720152D01*
X218755885Y-99101104D01*
X218803504Y-99196342D01*
X218851123Y-99243961D01*
X218946361Y-99291580D01*
X219136838Y-99291580D01*
X219232076Y-99243961D01*
X219279695Y-99196342D01*
X219327314Y-99101104D01*
X219327314Y-98863009D01*
X219279695Y-98767771D01*
X219232076Y-98720152D01*
X219136838Y-98672533D01*
X218946361Y-98672533D01*
X218851123Y-98720152D01*
X218803504Y-98767771D01*
X218755885Y-98863009D01*
%TO.C,R5*%
X143284380Y-105627466D02*
X142808190Y-105960800D01*
X143284380Y-106198895D02*
X142284380Y-106198895D01*
X142284380Y-105817942D01*
X142332000Y-105722704D01*
X142379619Y-105675085D01*
X142474857Y-105627466D01*
X142617714Y-105627466D01*
X142712952Y-105675085D01*
X142760571Y-105722704D01*
X142808190Y-105817942D01*
X142808190Y-106198895D01*
X142284380Y-104722704D02*
X142284380Y-105198895D01*
X142760571Y-105246514D01*
X142712952Y-105198895D01*
X142665333Y-105103657D01*
X142665333Y-104865561D01*
X142712952Y-104770323D01*
X142760571Y-104722704D01*
X142855809Y-104675085D01*
X143093904Y-104675085D01*
X143189142Y-104722704D01*
X143236761Y-104770323D01*
X143284380Y-104865561D01*
X143284380Y-105103657D01*
X143236761Y-105198895D01*
X143189142Y-105246514D01*
%TO.C,R4*%
X133437333Y-98496380D02*
X133104000Y-98020190D01*
X132865904Y-98496380D02*
X132865904Y-97496380D01*
X133246857Y-97496380D01*
X133342095Y-97544000D01*
X133389714Y-97591619D01*
X133437333Y-97686857D01*
X133437333Y-97829714D01*
X133389714Y-97924952D01*
X133342095Y-97972571D01*
X133246857Y-98020190D01*
X132865904Y-98020190D01*
X134294476Y-97829714D02*
X134294476Y-98496380D01*
X134056380Y-97448761D02*
X133818285Y-98163047D01*
X134437333Y-98163047D01*
%TO.C,R3*%
X138290380Y-86069466D02*
X137814190Y-86402800D01*
X138290380Y-86640895D02*
X137290380Y-86640895D01*
X137290380Y-86259942D01*
X137338000Y-86164704D01*
X137385619Y-86117085D01*
X137480857Y-86069466D01*
X137623714Y-86069466D01*
X137718952Y-86117085D01*
X137766571Y-86164704D01*
X137814190Y-86259942D01*
X137814190Y-86640895D01*
X137290380Y-85736133D02*
X137290380Y-85117085D01*
X137671333Y-85450419D01*
X137671333Y-85307561D01*
X137718952Y-85212323D01*
X137766571Y-85164704D01*
X137861809Y-85117085D01*
X138099904Y-85117085D01*
X138195142Y-85164704D01*
X138242761Y-85212323D01*
X138290380Y-85307561D01*
X138290380Y-85593276D01*
X138242761Y-85688514D01*
X138195142Y-85736133D01*
%TO.C,R2*%
X188301333Y-107063980D02*
X187968000Y-106587790D01*
X187729904Y-107063980D02*
X187729904Y-106063980D01*
X188110857Y-106063980D01*
X188206095Y-106111600D01*
X188253714Y-106159219D01*
X188301333Y-106254457D01*
X188301333Y-106397314D01*
X188253714Y-106492552D01*
X188206095Y-106540171D01*
X188110857Y-106587790D01*
X187729904Y-106587790D01*
X188682285Y-106159219D02*
X188729904Y-106111600D01*
X188825142Y-106063980D01*
X189063238Y-106063980D01*
X189158476Y-106111600D01*
X189206095Y-106159219D01*
X189253714Y-106254457D01*
X189253714Y-106349695D01*
X189206095Y-106492552D01*
X188634666Y-107063980D01*
X189253714Y-107063980D01*
%TO.C,R1*%
X195338780Y-101360266D02*
X194862590Y-101693600D01*
X195338780Y-101931695D02*
X194338780Y-101931695D01*
X194338780Y-101550742D01*
X194386400Y-101455504D01*
X194434019Y-101407885D01*
X194529257Y-101360266D01*
X194672114Y-101360266D01*
X194767352Y-101407885D01*
X194814971Y-101455504D01*
X194862590Y-101550742D01*
X194862590Y-101931695D01*
X195338780Y-100407885D02*
X195338780Y-100979314D01*
X195338780Y-100693600D02*
X194338780Y-100693600D01*
X194481638Y-100788838D01*
X194576876Y-100884076D01*
X194624495Y-100979314D01*
%TO.C,K5*%
X116822304Y-103064380D02*
X116822304Y-102064380D01*
X117393733Y-103064380D02*
X116965161Y-102492952D01*
X117393733Y-102064380D02*
X116822304Y-102635809D01*
X118298495Y-102064380D02*
X117822304Y-102064380D01*
X117774685Y-102540571D01*
X117822304Y-102492952D01*
X117917542Y-102445333D01*
X118155638Y-102445333D01*
X118250876Y-102492952D01*
X118298495Y-102540571D01*
X118346114Y-102635809D01*
X118346114Y-102873904D01*
X118298495Y-102969142D01*
X118250876Y-103016761D01*
X118155638Y-103064380D01*
X117917542Y-103064380D01*
X117822304Y-103016761D01*
X117774685Y-102969142D01*
%TO.C,K4*%
X112037904Y-95956380D02*
X112037904Y-94956380D01*
X112609333Y-95956380D02*
X112180761Y-95384952D01*
X112609333Y-94956380D02*
X112037904Y-95527809D01*
X113466476Y-95289714D02*
X113466476Y-95956380D01*
X113228380Y-94908761D02*
X112990285Y-95623047D01*
X113609333Y-95623047D01*
%TO.C,K3*%
X116771504Y-79035980D02*
X116771504Y-78035980D01*
X117342933Y-79035980D02*
X116914361Y-78464552D01*
X117342933Y-78035980D02*
X116771504Y-78607409D01*
X117676266Y-78035980D02*
X118295314Y-78035980D01*
X117961980Y-78416933D01*
X118104838Y-78416933D01*
X118200076Y-78464552D01*
X118247695Y-78512171D01*
X118295314Y-78607409D01*
X118295314Y-78845504D01*
X118247695Y-78940742D01*
X118200076Y-78988361D01*
X118104838Y-79035980D01*
X117819123Y-79035980D01*
X117723885Y-78988361D01*
X117676266Y-78940742D01*
%TO.C,K2*%
X194105980Y-110780095D02*
X193105980Y-110780095D01*
X194105980Y-110208666D02*
X193534552Y-110637238D01*
X193105980Y-110208666D02*
X193677409Y-110780095D01*
X193201219Y-109827714D02*
X193153600Y-109780095D01*
X193105980Y-109684857D01*
X193105980Y-109446761D01*
X193153600Y-109351523D01*
X193201219Y-109303904D01*
X193296457Y-109256285D01*
X193391695Y-109256285D01*
X193534552Y-109303904D01*
X194105980Y-109875333D01*
X194105980Y-109256285D01*
%TO.C,J12*%
X82883476Y-94536780D02*
X82883476Y-95251066D01*
X82835857Y-95393923D01*
X82740619Y-95489161D01*
X82597761Y-95536780D01*
X82502523Y-95536780D01*
X83883476Y-95536780D02*
X83312047Y-95536780D01*
X83597761Y-95536780D02*
X83597761Y-94536780D01*
X83502523Y-94679638D01*
X83407285Y-94774876D01*
X83312047Y-94822495D01*
X84264428Y-94632019D02*
X84312047Y-94584400D01*
X84407285Y-94536780D01*
X84645380Y-94536780D01*
X84740619Y-94584400D01*
X84788238Y-94632019D01*
X84835857Y-94727257D01*
X84835857Y-94822495D01*
X84788238Y-94965352D01*
X84216809Y-95536780D01*
X84835857Y-95536780D01*
%TO.C,J11*%
X104956076Y-96742380D02*
X104956076Y-97456666D01*
X104908457Y-97599523D01*
X104813219Y-97694761D01*
X104670361Y-97742380D01*
X104575123Y-97742380D01*
X105956076Y-97742380D02*
X105384647Y-97742380D01*
X105670361Y-97742380D02*
X105670361Y-96742380D01*
X105575123Y-96885238D01*
X105479885Y-96980476D01*
X105384647Y-97028095D01*
X106908457Y-97742380D02*
X106337028Y-97742380D01*
X106622742Y-97742380D02*
X106622742Y-96742380D01*
X106527504Y-96885238D01*
X106432266Y-96980476D01*
X106337028Y-97028095D01*
%TO.C,J10*%
X104829076Y-94638380D02*
X104829076Y-95352666D01*
X104781457Y-95495523D01*
X104686219Y-95590761D01*
X104543361Y-95638380D01*
X104448123Y-95638380D01*
X105829076Y-95638380D02*
X105257647Y-95638380D01*
X105543361Y-95638380D02*
X105543361Y-94638380D01*
X105448123Y-94781238D01*
X105352885Y-94876476D01*
X105257647Y-94924095D01*
X106448123Y-94638380D02*
X106543361Y-94638380D01*
X106638600Y-94686000D01*
X106686219Y-94733619D01*
X106733838Y-94828857D01*
X106781457Y-95019333D01*
X106781457Y-95257428D01*
X106733838Y-95447904D01*
X106686219Y-95543142D01*
X106638600Y-95590761D01*
X106543361Y-95638380D01*
X106448123Y-95638380D01*
X106352885Y-95590761D01*
X106305266Y-95543142D01*
X106257647Y-95447904D01*
X106210028Y-95257428D01*
X106210028Y-95019333D01*
X106257647Y-94828857D01*
X106305266Y-94733619D01*
X106352885Y-94686000D01*
X106448123Y-94638380D01*
%TO.C,J9*%
X137334666Y-99020380D02*
X137334666Y-99734666D01*
X137287047Y-99877523D01*
X137191809Y-99972761D01*
X137048952Y-100020380D01*
X136953714Y-100020380D01*
X137858476Y-100020380D02*
X138048952Y-100020380D01*
X138144190Y-99972761D01*
X138191809Y-99925142D01*
X138287047Y-99782285D01*
X138334666Y-99591809D01*
X138334666Y-99210857D01*
X138287047Y-99115619D01*
X138239428Y-99068000D01*
X138144190Y-99020380D01*
X137953714Y-99020380D01*
X137858476Y-99068000D01*
X137810857Y-99115619D01*
X137763238Y-99210857D01*
X137763238Y-99448952D01*
X137810857Y-99544190D01*
X137858476Y-99591809D01*
X137953714Y-99639428D01*
X138144190Y-99639428D01*
X138239428Y-99591809D01*
X138287047Y-99544190D01*
X138334666Y-99448952D01*
%TO.C,J8*%
X137334666Y-92924380D02*
X137334666Y-93638666D01*
X137287047Y-93781523D01*
X137191809Y-93876761D01*
X137048952Y-93924380D01*
X136953714Y-93924380D01*
X137953714Y-93352952D02*
X137858476Y-93305333D01*
X137810857Y-93257714D01*
X137763238Y-93162476D01*
X137763238Y-93114857D01*
X137810857Y-93019619D01*
X137858476Y-92972000D01*
X137953714Y-92924380D01*
X138144190Y-92924380D01*
X138239428Y-92972000D01*
X138287047Y-93019619D01*
X138334666Y-93114857D01*
X138334666Y-93162476D01*
X138287047Y-93257714D01*
X138239428Y-93305333D01*
X138144190Y-93352952D01*
X137953714Y-93352952D01*
X137858476Y-93400571D01*
X137810857Y-93448190D01*
X137763238Y-93543428D01*
X137763238Y-93733904D01*
X137810857Y-93829142D01*
X137858476Y-93876761D01*
X137953714Y-93924380D01*
X138144190Y-93924380D01*
X138239428Y-93876761D01*
X138287047Y-93829142D01*
X138334666Y-93733904D01*
X138334666Y-93543428D01*
X138287047Y-93448190D01*
X138239428Y-93400571D01*
X138144190Y-93352952D01*
%TO.C,J7*%
X150796666Y-96996380D02*
X150796666Y-97710666D01*
X150749047Y-97853523D01*
X150653809Y-97948761D01*
X150510952Y-97996380D01*
X150415714Y-97996380D01*
X151177619Y-96996380D02*
X151844285Y-96996380D01*
X151415714Y-97996380D01*
%TO.C,J6*%
X150669666Y-94892380D02*
X150669666Y-95606666D01*
X150622047Y-95749523D01*
X150526809Y-95844761D01*
X150383952Y-95892380D01*
X150288714Y-95892380D01*
X151574428Y-94892380D02*
X151383952Y-94892380D01*
X151288714Y-94940000D01*
X151241095Y-94987619D01*
X151145857Y-95130476D01*
X151098238Y-95320952D01*
X151098238Y-95701904D01*
X151145857Y-95797142D01*
X151193476Y-95844761D01*
X151288714Y-95892380D01*
X151479190Y-95892380D01*
X151574428Y-95844761D01*
X151622047Y-95797142D01*
X151669666Y-95701904D01*
X151669666Y-95463809D01*
X151622047Y-95368571D01*
X151574428Y-95320952D01*
X151479190Y-95273333D01*
X151288714Y-95273333D01*
X151193476Y-95320952D01*
X151145857Y-95368571D01*
X151098238Y-95463809D01*
%TO.C,J5*%
X172767666Y-96996380D02*
X172767666Y-97710666D01*
X172720047Y-97853523D01*
X172624809Y-97948761D01*
X172481952Y-97996380D01*
X172386714Y-97996380D01*
X173720047Y-96996380D02*
X173243857Y-96996380D01*
X173196238Y-97472571D01*
X173243857Y-97424952D01*
X173339095Y-97377333D01*
X173577190Y-97377333D01*
X173672428Y-97424952D01*
X173720047Y-97472571D01*
X173767666Y-97567809D01*
X173767666Y-97805904D01*
X173720047Y-97901142D01*
X173672428Y-97948761D01*
X173577190Y-97996380D01*
X173339095Y-97996380D01*
X173243857Y-97948761D01*
X173196238Y-97901142D01*
%TO.C,J4*%
X172640666Y-94892380D02*
X172640666Y-95606666D01*
X172593047Y-95749523D01*
X172497809Y-95844761D01*
X172354952Y-95892380D01*
X172259714Y-95892380D01*
X173545428Y-95225714D02*
X173545428Y-95892380D01*
X173307333Y-94844761D02*
X173069238Y-95559047D01*
X173688285Y-95559047D01*
%TO.C,J3*%
X194611666Y-94892380D02*
X194611666Y-95606666D01*
X194564047Y-95749523D01*
X194468809Y-95844761D01*
X194325952Y-95892380D01*
X194230714Y-95892380D01*
X194992619Y-94892380D02*
X195611666Y-94892380D01*
X195278333Y-95273333D01*
X195421190Y-95273333D01*
X195516428Y-95320952D01*
X195564047Y-95368571D01*
X195611666Y-95463809D01*
X195611666Y-95701904D01*
X195564047Y-95797142D01*
X195516428Y-95844761D01*
X195421190Y-95892380D01*
X195135476Y-95892380D01*
X195040238Y-95844761D01*
X194992619Y-95797142D01*
%TO.C,J2*%
X216582666Y-94892380D02*
X216582666Y-95606666D01*
X216535047Y-95749523D01*
X216439809Y-95844761D01*
X216296952Y-95892380D01*
X216201714Y-95892380D01*
X217011238Y-94987619D02*
X217058857Y-94940000D01*
X217154095Y-94892380D01*
X217392190Y-94892380D01*
X217487428Y-94940000D01*
X217535047Y-94987619D01*
X217582666Y-95082857D01*
X217582666Y-95178095D01*
X217535047Y-95320952D01*
X216963619Y-95892380D01*
X217582666Y-95892380D01*
%TO.C,J1*%
X216709666Y-96996380D02*
X216709666Y-97710666D01*
X216662047Y-97853523D01*
X216566809Y-97948761D01*
X216423952Y-97996380D01*
X216328714Y-97996380D01*
X217709666Y-97996380D02*
X217138238Y-97996380D01*
X217423952Y-97996380D02*
X217423952Y-96996380D01*
X217328714Y-97139238D01*
X217233476Y-97234476D01*
X217138238Y-97282095D01*
%TO.C,C2*%
X204299082Y-105038342D02*
X204251463Y-105085961D01*
X204108606Y-105133580D01*
X204013368Y-105133580D01*
X203870510Y-105085961D01*
X203775272Y-104990723D01*
X203727653Y-104895485D01*
X203680034Y-104705009D01*
X203680034Y-104562152D01*
X203727653Y-104371676D01*
X203775272Y-104276438D01*
X203870510Y-104181200D01*
X204013368Y-104133580D01*
X204108606Y-104133580D01*
X204251463Y-104181200D01*
X204299082Y-104228819D01*
X204680034Y-104228819D02*
X204727653Y-104181200D01*
X204822891Y-104133580D01*
X205060987Y-104133580D01*
X205156225Y-104181200D01*
X205203844Y-104228819D01*
X205251463Y-104324057D01*
X205251463Y-104419295D01*
X205203844Y-104562152D01*
X204632415Y-105133580D01*
X205251463Y-105133580D01*
%TO.C,C1*%
X204299082Y-95945142D02*
X204251463Y-95992761D01*
X204108606Y-96040380D01*
X204013368Y-96040380D01*
X203870510Y-95992761D01*
X203775272Y-95897523D01*
X203727653Y-95802285D01*
X203680034Y-95611809D01*
X203680034Y-95468952D01*
X203727653Y-95278476D01*
X203775272Y-95183238D01*
X203870510Y-95088000D01*
X204013368Y-95040380D01*
X204108606Y-95040380D01*
X204251463Y-95088000D01*
X204299082Y-95135619D01*
X205251463Y-96040380D02*
X204680034Y-96040380D01*
X204965749Y-96040380D02*
X204965749Y-95040380D01*
X204870510Y-95183238D01*
X204775272Y-95278476D01*
X204680034Y-95326095D01*
D12*
%TO.C,J13*%
X76320000Y-113888400D02*
X76320000Y-98888400D01*
X91320000Y-113888400D02*
X76320000Y-113888400D01*
X83820000Y-113688400D02*
X84820000Y-112688400D01*
X91320000Y-98888400D02*
X91320000Y-113888400D01*
X76320000Y-98888400D02*
X91320000Y-98888400D01*
X83820000Y-113688400D02*
X82820000Y-112688400D01*
%TO.C,K1*%
X183204400Y-95513600D02*
X182504400Y-95513600D01*
X183204400Y-101813600D02*
X182504400Y-101813600D01*
X192004400Y-95513600D02*
X192704400Y-95513600D01*
X188804400Y-95513600D02*
X190804400Y-95513600D01*
X192004400Y-98313600D02*
X190804400Y-98313600D01*
X192004400Y-95413600D02*
X192804400Y-95413600D01*
X187604400Y-101813600D02*
X186604400Y-101813600D01*
X182504400Y-101813600D02*
X182504400Y-95513600D01*
X191204400Y-98313600D02*
X191604400Y-99013600D01*
X184404400Y-95513600D02*
X185404400Y-95513600D01*
X190804400Y-101813600D02*
X188804400Y-101813600D01*
X192704400Y-95513600D02*
X192704400Y-101813600D01*
X191404400Y-99013600D02*
X191404400Y-100113600D01*
X191404400Y-98313600D02*
X191404400Y-97213600D01*
X192004400Y-99013600D02*
X192004400Y-98313600D01*
X190804400Y-98313600D02*
X190804400Y-99013600D01*
X192804400Y-95413600D02*
X192804400Y-96113600D01*
X186604400Y-95513600D02*
X187604400Y-95513600D01*
X192704400Y-101813600D02*
X192004400Y-101813600D01*
X190804400Y-99013600D02*
X192004400Y-99013600D01*
X185404400Y-101813600D02*
X184404400Y-101813600D01*
%TO.C,R6*%
X214501600Y-96469200D02*
X215271600Y-96469200D01*
X222581600Y-96469200D02*
X221811600Y-96469200D01*
X221811600Y-97839200D02*
X221811600Y-95099200D01*
X215271600Y-95099200D02*
X215271600Y-97839200D01*
X221811600Y-95099200D02*
X215271600Y-95099200D01*
X215271600Y-97839200D02*
X221811600Y-97839200D01*
%TO.C,R5*%
X140462000Y-109500800D02*
X140462000Y-108730800D01*
X140462000Y-101420800D02*
X140462000Y-102190800D01*
X141832000Y-102190800D02*
X139092000Y-102190800D01*
X139092000Y-108730800D02*
X141832000Y-108730800D01*
X139092000Y-102190800D02*
X139092000Y-108730800D01*
X141832000Y-108730800D02*
X141832000Y-102190800D01*
%TO.C,R4*%
X124941200Y-96164400D02*
X125711200Y-96164400D01*
X133021200Y-96164400D02*
X132251200Y-96164400D01*
X132251200Y-97534400D02*
X132251200Y-94794400D01*
X125711200Y-94794400D02*
X125711200Y-97534400D01*
X132251200Y-94794400D02*
X125711200Y-94794400D01*
X125711200Y-97534400D02*
X132251200Y-97534400D01*
%TO.C,R3*%
X138838000Y-82632800D02*
X138838000Y-89172800D01*
X141578000Y-89172800D02*
X141578000Y-82632800D01*
X141578000Y-82632800D02*
X138838000Y-82632800D01*
X138838000Y-89172800D02*
X141578000Y-89172800D01*
X140208000Y-89942800D02*
X140208000Y-89172800D01*
X140208000Y-81862800D02*
X140208000Y-82632800D01*
%TO.C,R2*%
X184428000Y-104241600D02*
X185198000Y-104241600D01*
X192508000Y-104241600D02*
X191738000Y-104241600D01*
X191738000Y-105611600D02*
X191738000Y-102871600D01*
X185198000Y-102871600D02*
X185198000Y-105611600D01*
X191738000Y-102871600D02*
X185198000Y-102871600D01*
X185198000Y-105611600D02*
X191738000Y-105611600D01*
%TO.C,R1*%
X197256400Y-97153600D02*
X197256400Y-97923600D01*
X197256400Y-105233600D02*
X197256400Y-104463600D01*
X195886400Y-104463600D02*
X198626400Y-104463600D01*
X198626400Y-97923600D02*
X195886400Y-97923600D01*
X198626400Y-104463600D02*
X198626400Y-97923600D01*
X195886400Y-97923600D02*
X195886400Y-104463600D01*
%TO.C,K5*%
X120660400Y-110912000D02*
X120660400Y-111912000D01*
X117860400Y-105512000D02*
X117860400Y-104312000D01*
X120660400Y-103612000D02*
X120660400Y-104312000D01*
X114360400Y-109712000D02*
X114360400Y-108712000D01*
X114260400Y-103512000D02*
X114960400Y-103512000D01*
X117160400Y-105512000D02*
X117860400Y-105512000D01*
X117860400Y-104312000D02*
X117160400Y-104312000D01*
X117160400Y-104912000D02*
X116060400Y-104912000D01*
X117860400Y-104912000D02*
X118960400Y-104912000D01*
X114360400Y-103612000D02*
X120660400Y-103612000D01*
X120660400Y-105512000D02*
X120660400Y-107512000D01*
X114360400Y-111912000D02*
X114360400Y-110912000D01*
X117160400Y-105112000D02*
X117860400Y-104712000D01*
X120660400Y-113812000D02*
X114360400Y-113812000D01*
X120660400Y-108712000D02*
X120660400Y-109712000D01*
X114260400Y-104312000D02*
X114260400Y-103512000D01*
X117160400Y-104312000D02*
X117160400Y-105512000D01*
X114360400Y-107512000D02*
X114360400Y-105512000D01*
X114360400Y-104312000D02*
X114360400Y-103612000D01*
X120660400Y-113112000D02*
X120660400Y-113812000D01*
X114360400Y-113112000D02*
X114360400Y-113812000D01*
%TO.C,K4*%
X120609600Y-98821600D02*
X120609600Y-99821600D01*
X117809600Y-93421600D02*
X117809600Y-92221600D01*
X120609600Y-91521600D02*
X120609600Y-92221600D01*
X114309600Y-97621600D02*
X114309600Y-96621600D01*
X114209600Y-91421600D02*
X114909600Y-91421600D01*
X117109600Y-93421600D02*
X117809600Y-93421600D01*
X117809600Y-92221600D02*
X117109600Y-92221600D01*
X117109600Y-92821600D02*
X116009600Y-92821600D01*
X117809600Y-92821600D02*
X118909600Y-92821600D01*
X114309600Y-91521600D02*
X120609600Y-91521600D01*
X120609600Y-93421600D02*
X120609600Y-95421600D01*
X114309600Y-99821600D02*
X114309600Y-98821600D01*
X117109600Y-93021600D02*
X117809600Y-92621600D01*
X120609600Y-101721600D02*
X114309600Y-101721600D01*
X120609600Y-96621600D02*
X120609600Y-97621600D01*
X114209600Y-92221600D02*
X114209600Y-91421600D01*
X117109600Y-92221600D02*
X117109600Y-93421600D01*
X114309600Y-95421600D02*
X114309600Y-93421600D01*
X114309600Y-92221600D02*
X114309600Y-91521600D01*
X120609600Y-101021600D02*
X120609600Y-101721600D01*
X114309600Y-101021600D02*
X114309600Y-101721600D01*
%TO.C,K3*%
X114309600Y-89083600D02*
X114309600Y-89783600D01*
X120609600Y-89083600D02*
X120609600Y-89783600D01*
X114309600Y-80283600D02*
X114309600Y-79583600D01*
X114309600Y-83483600D02*
X114309600Y-81483600D01*
X117109600Y-80283600D02*
X117109600Y-81483600D01*
X114209600Y-80283600D02*
X114209600Y-79483600D01*
X120609600Y-84683600D02*
X120609600Y-85683600D01*
X120609600Y-89783600D02*
X114309600Y-89783600D01*
X117109600Y-81083600D02*
X117809600Y-80683600D01*
X114309600Y-87883600D02*
X114309600Y-86883600D01*
X120609600Y-81483600D02*
X120609600Y-83483600D01*
X114309600Y-79583600D02*
X120609600Y-79583600D01*
X117809600Y-80883600D02*
X118909600Y-80883600D01*
X117109600Y-80883600D02*
X116009600Y-80883600D01*
X117809600Y-80283600D02*
X117109600Y-80283600D01*
X117109600Y-81483600D02*
X117809600Y-81483600D01*
X114209600Y-79483600D02*
X114909600Y-79483600D01*
X114309600Y-85683600D02*
X114309600Y-84683600D01*
X120609600Y-79583600D02*
X120609600Y-80283600D01*
X117809600Y-81483600D02*
X117809600Y-80283600D01*
X120609600Y-86883600D02*
X120609600Y-87883600D01*
%TO.C,K2*%
X185353600Y-113142000D02*
X184353600Y-113142000D01*
X190753600Y-110342000D02*
X191953600Y-110342000D01*
X192653600Y-113142000D02*
X191953600Y-113142000D01*
X186553600Y-106842000D02*
X187553600Y-106842000D01*
X192753600Y-106742000D02*
X192753600Y-107442000D01*
X190753600Y-109642000D02*
X190753600Y-110342000D01*
X191953600Y-110342000D02*
X191953600Y-109642000D01*
X191353600Y-109642000D02*
X191353600Y-108542000D01*
X191353600Y-110342000D02*
X191353600Y-111442000D01*
X192653600Y-106842000D02*
X192653600Y-113142000D01*
X190753600Y-113142000D02*
X188753600Y-113142000D01*
X184353600Y-106842000D02*
X185353600Y-106842000D01*
X191153600Y-109642000D02*
X191553600Y-110342000D01*
X182453600Y-113142000D02*
X182453600Y-106842000D01*
X187553600Y-113142000D02*
X186553600Y-113142000D01*
X191953600Y-106742000D02*
X192753600Y-106742000D01*
X191953600Y-109642000D02*
X190753600Y-109642000D01*
X188753600Y-106842000D02*
X190753600Y-106842000D01*
X191953600Y-106842000D02*
X192653600Y-106842000D01*
X183153600Y-113142000D02*
X182453600Y-113142000D01*
X183153600Y-106842000D02*
X182453600Y-106842000D01*
%TO.C,J12*%
X91193000Y-78384400D02*
X91193000Y-93384400D01*
X76193000Y-78384400D02*
X91193000Y-78384400D01*
X83693000Y-78584400D02*
X82693000Y-79584400D01*
X76193000Y-93384400D02*
X76193000Y-78384400D01*
X91193000Y-93384400D02*
X76193000Y-93384400D01*
X83693000Y-78584400D02*
X84693000Y-79584400D01*
%TO.C,J11*%
X105765600Y-113790000D02*
X104765600Y-112790000D01*
X98265600Y-98990000D02*
X113265600Y-98990000D01*
X113265600Y-98990000D02*
X113265600Y-113990000D01*
X105765600Y-113790000D02*
X106765600Y-112790000D01*
X113265600Y-113990000D02*
X98265600Y-113990000D01*
X98265600Y-113990000D02*
X98265600Y-98990000D01*
%TO.C,J10*%
X105638600Y-78686000D02*
X106638600Y-79686000D01*
X113138600Y-93486000D02*
X98138600Y-93486000D01*
X98138600Y-93486000D02*
X98138600Y-78486000D01*
X105638600Y-78686000D02*
X104638600Y-79686000D01*
X98138600Y-78486000D02*
X113138600Y-78486000D01*
X113138600Y-78486000D02*
X113138600Y-93486000D01*
%TO.C,J9*%
X121659000Y-114040800D02*
X121659000Y-99040800D01*
X136659000Y-114040800D02*
X121659000Y-114040800D01*
X129159000Y-113840800D02*
X130159000Y-112840800D01*
X136659000Y-99040800D02*
X136659000Y-114040800D01*
X121659000Y-99040800D02*
X136659000Y-99040800D01*
X129159000Y-113840800D02*
X128159000Y-112840800D01*
%TO.C,J8*%
X136532000Y-78536800D02*
X136532000Y-93536800D01*
X121532000Y-78536800D02*
X136532000Y-78536800D01*
X129032000Y-78736800D02*
X128032000Y-79736800D01*
X121532000Y-93536800D02*
X121532000Y-78536800D01*
X136532000Y-93536800D02*
X121532000Y-93536800D01*
X129032000Y-78736800D02*
X130032000Y-79736800D01*
%TO.C,J7*%
X143630000Y-114244000D02*
X143630000Y-99244000D01*
X158630000Y-114244000D02*
X143630000Y-114244000D01*
X151130000Y-114044000D02*
X152130000Y-113044000D01*
X158630000Y-99244000D02*
X158630000Y-114244000D01*
X143630000Y-99244000D02*
X158630000Y-99244000D01*
X151130000Y-114044000D02*
X150130000Y-113044000D01*
%TO.C,J6*%
X151003000Y-78940000D02*
X152003000Y-79940000D01*
X158503000Y-93740000D02*
X143503000Y-93740000D01*
X143503000Y-93740000D02*
X143503000Y-78740000D01*
X151003000Y-78940000D02*
X150003000Y-79940000D01*
X143503000Y-78740000D02*
X158503000Y-78740000D01*
X158503000Y-78740000D02*
X158503000Y-93740000D01*
%TO.C,J5*%
X173101000Y-114044000D02*
X172101000Y-113044000D01*
X165601000Y-99244000D02*
X180601000Y-99244000D01*
X180601000Y-99244000D02*
X180601000Y-114244000D01*
X173101000Y-114044000D02*
X174101000Y-113044000D01*
X180601000Y-114244000D02*
X165601000Y-114244000D01*
X165601000Y-114244000D02*
X165601000Y-99244000D01*
%TO.C,J4*%
X180474000Y-78740000D02*
X180474000Y-93740000D01*
X165474000Y-78740000D02*
X180474000Y-78740000D01*
X172974000Y-78940000D02*
X171974000Y-79940000D01*
X165474000Y-93740000D02*
X165474000Y-78740000D01*
X180474000Y-93740000D02*
X165474000Y-93740000D01*
X172974000Y-78940000D02*
X173974000Y-79940000D01*
%TO.C,J3*%
X194945000Y-78940000D02*
X195945000Y-79940000D01*
X202445000Y-93740000D02*
X187445000Y-93740000D01*
X187445000Y-93740000D02*
X187445000Y-78740000D01*
X194945000Y-78940000D02*
X193945000Y-79940000D01*
X187445000Y-78740000D02*
X202445000Y-78740000D01*
X202445000Y-78740000D02*
X202445000Y-93740000D01*
%TO.C,J2*%
X224416000Y-78740000D02*
X224416000Y-93740000D01*
X209416000Y-78740000D02*
X224416000Y-78740000D01*
X216916000Y-78940000D02*
X215916000Y-79940000D01*
X209416000Y-93740000D02*
X209416000Y-78740000D01*
X224416000Y-93740000D02*
X209416000Y-93740000D01*
X216916000Y-78940000D02*
X217916000Y-79940000D01*
%TO.C,J1*%
X209543000Y-114244000D02*
X209543000Y-99244000D01*
X224543000Y-114244000D02*
X209543000Y-114244000D01*
X217043000Y-114044000D02*
X218043000Y-113044000D01*
X224543000Y-99244000D02*
X224543000Y-114244000D01*
X209543000Y-99244000D02*
X224543000Y-99244000D01*
X217043000Y-114044000D02*
X216043000Y-113044000D01*
%TO.C,C2*%
X207306749Y-106986200D02*
X207306749Y-112876200D01*
X205025749Y-105889200D02*
X205025749Y-113973200D01*
X205306749Y-110971200D02*
X205306749Y-113925200D01*
X204665749Y-105855200D02*
X204665749Y-114007200D01*
X204865749Y-105870200D02*
X204865749Y-113992200D01*
X205746749Y-110971200D02*
X205746749Y-113808200D01*
X207866749Y-107644200D02*
X207866749Y-112218200D01*
X205826749Y-106081200D02*
X205826749Y-108891200D01*
X205506749Y-105984200D02*
X205506749Y-108891200D01*
X208226749Y-108286200D02*
X208226749Y-111576200D01*
X207706749Y-107426200D02*
X207706749Y-112436200D01*
X204625749Y-105854200D02*
X204625749Y-114008200D01*
X206506749Y-110971200D02*
X206506749Y-113471200D01*
X205426749Y-110971200D02*
X205426749Y-113898200D01*
X206026749Y-110971200D02*
X206026749Y-113705200D01*
X207346749Y-107024200D02*
X207346749Y-112838200D01*
X206226749Y-106245200D02*
X206226749Y-108891200D01*
X206106749Y-106191200D02*
X206106749Y-108891200D01*
X207546749Y-107234200D02*
X207546749Y-112628200D01*
X205266749Y-105929200D02*
X205266749Y-108891200D01*
X205226749Y-110971200D02*
X205226749Y-113941200D01*
X206746749Y-106539200D02*
X206746749Y-108891200D01*
X205986749Y-106141200D02*
X205986749Y-108891200D01*
X205666749Y-110971200D02*
X205666749Y-113833200D01*
X205706749Y-106042200D02*
X205706749Y-108891200D01*
X205426749Y-105964200D02*
X205426749Y-108891200D01*
X206586749Y-110971200D02*
X206586749Y-113424200D01*
X207666749Y-107375200D02*
X207666749Y-112487200D01*
X208146749Y-108118200D02*
X208146749Y-111744200D01*
X205226749Y-105921200D02*
X205226749Y-108891200D01*
X205105749Y-105901200D02*
X205105749Y-113961200D01*
X204505749Y-105851200D02*
X204505749Y-114011200D01*
X206626749Y-106462200D02*
X206626749Y-108891200D01*
X205546749Y-105995200D02*
X205546749Y-108891200D01*
X205786749Y-110971200D02*
X205786749Y-113794200D01*
X207426749Y-107105200D02*
X207426749Y-112757200D01*
X207946749Y-107765200D02*
X207946749Y-112097200D01*
X207106749Y-106807200D02*
X207106749Y-108891200D01*
X206986749Y-110971200D02*
X206986749Y-113151200D01*
X204825749Y-105866200D02*
X204825749Y-113996200D01*
X208386749Y-108702200D02*
X208386749Y-111160200D01*
X206426749Y-110971200D02*
X206426749Y-113515200D01*
X205386749Y-105955200D02*
X205386749Y-108891200D01*
X200456051Y-107216200D02*
X200456051Y-108016200D01*
X205586749Y-106006200D02*
X205586749Y-108891200D01*
X205266749Y-110971200D02*
X205266749Y-113933200D01*
X205466749Y-105974200D02*
X205466749Y-108891200D01*
X206146749Y-110971200D02*
X206146749Y-113653200D01*
X206706749Y-110971200D02*
X206706749Y-113349200D01*
X204745749Y-105860200D02*
X204745749Y-114002200D01*
X205866749Y-106096200D02*
X205866749Y-108891200D01*
X206386749Y-106325200D02*
X206386749Y-108891200D01*
X206266749Y-110971200D02*
X206266749Y-113597200D01*
X207026749Y-110971200D02*
X207026749Y-113120200D01*
X205626749Y-110971200D02*
X205626749Y-113845200D01*
X205306749Y-105937200D02*
X205306749Y-108891200D01*
X206386749Y-110971200D02*
X206386749Y-113537200D01*
X207586749Y-107280200D02*
X207586749Y-112582200D01*
X206106749Y-110971200D02*
X206106749Y-113671200D01*
X205706749Y-110971200D02*
X205706749Y-113820200D01*
X206786749Y-110971200D02*
X206786749Y-113296200D01*
X205186749Y-110971200D02*
X205186749Y-113948200D01*
X206466749Y-110971200D02*
X206466749Y-113493200D01*
X207066749Y-110971200D02*
X207066749Y-113087200D01*
X207186749Y-110971200D02*
X207186749Y-112986200D01*
X207506749Y-107190200D02*
X207506749Y-112672200D01*
X206546749Y-106414200D02*
X206546749Y-108891200D01*
X205866749Y-110971200D02*
X205866749Y-113766200D01*
X206506749Y-106391200D02*
X206506749Y-108891200D01*
X207106749Y-110971200D02*
X207106749Y-113055200D01*
X207226749Y-106912200D02*
X207226749Y-108891200D01*
X204985749Y-105883200D02*
X204985749Y-113979200D01*
X206186749Y-110971200D02*
X206186749Y-113635200D01*
X205986749Y-110971200D02*
X205986749Y-113721200D01*
X206826749Y-106593200D02*
X206826749Y-108891200D01*
X205145749Y-105907200D02*
X205145749Y-113955200D01*
X205346749Y-110971200D02*
X205346749Y-113916200D01*
X207146749Y-106841200D02*
X207146749Y-108891200D01*
X208066749Y-107967200D02*
X208066749Y-111895200D01*
X207986749Y-107829200D02*
X207986749Y-112033200D01*
X208546749Y-109398200D02*
X208546749Y-110464200D01*
X207786749Y-107531200D02*
X207786749Y-112331200D01*
X206746749Y-110971200D02*
X206746749Y-113323200D01*
X206906749Y-106651200D02*
X206906749Y-108891200D01*
X205786749Y-106068200D02*
X205786749Y-108891200D01*
X208026749Y-107897200D02*
X208026749Y-111965200D01*
X206546749Y-110971200D02*
X206546749Y-113448200D01*
X206466749Y-106369200D02*
X206466749Y-108891200D01*
X204585749Y-105852200D02*
X204585749Y-114010200D01*
X205906749Y-110971200D02*
X205906749Y-113752200D01*
X207266749Y-106948200D02*
X207266749Y-112914200D01*
X207226749Y-110971200D02*
X207226749Y-112950200D01*
X207146749Y-110971200D02*
X207146749Y-113021200D01*
X206346749Y-110971200D02*
X206346749Y-113558200D01*
X204705749Y-105857200D02*
X204705749Y-114005200D01*
X207466749Y-107147200D02*
X207466749Y-112715200D01*
X207186749Y-106876200D02*
X207186749Y-108891200D01*
X206186749Y-106227200D02*
X206186749Y-108891200D01*
X205906749Y-106110200D02*
X205906749Y-108891200D01*
X206826749Y-110971200D02*
X206826749Y-113269200D01*
X205546749Y-110971200D02*
X205546749Y-113867200D01*
X205746749Y-106054200D02*
X205746749Y-108891200D01*
X206146749Y-106209200D02*
X206146749Y-108891200D01*
X206906749Y-110971200D02*
X206906749Y-113211200D01*
X206586749Y-106438200D02*
X206586749Y-108891200D01*
X205466749Y-110971200D02*
X205466749Y-113888200D01*
X200056051Y-107616200D02*
X200856051Y-107616200D01*
X208506749Y-109163200D02*
X208506749Y-110699200D01*
X205946749Y-110971200D02*
X205946749Y-113736200D01*
X205666749Y-106029200D02*
X205666749Y-108891200D01*
X205506749Y-110971200D02*
X205506749Y-113878200D01*
X207386749Y-107064200D02*
X207386749Y-112798200D01*
X205346749Y-105946200D02*
X205346749Y-108891200D01*
X208106749Y-108041200D02*
X208106749Y-111821200D01*
X206946749Y-110971200D02*
X206946749Y-113181200D01*
X206786749Y-106566200D02*
X206786749Y-108891200D01*
X206426749Y-106347200D02*
X206426749Y-108891200D01*
X205586749Y-110971200D02*
X205586749Y-113856200D01*
X206066749Y-110971200D02*
X206066749Y-113688200D01*
X207826749Y-107586200D02*
X207826749Y-112276200D01*
X206666749Y-110971200D02*
X206666749Y-113375200D01*
X206266749Y-106265200D02*
X206266749Y-108891200D01*
X207026749Y-106742200D02*
X207026749Y-108891200D01*
X206986749Y-106711200D02*
X206986749Y-108891200D01*
X206026749Y-106157200D02*
X206026749Y-108891200D01*
X206346749Y-106304200D02*
X206346749Y-108891200D01*
X208266749Y-108379200D02*
X208266749Y-111483200D01*
X204465749Y-105851200D02*
X204465749Y-114011200D01*
X206626749Y-110971200D02*
X206626749Y-113400200D01*
X205946749Y-106126200D02*
X205946749Y-108891200D01*
X205386749Y-110971200D02*
X205386749Y-113907200D01*
X204945749Y-105879200D02*
X204945749Y-113983200D01*
X205186749Y-105914200D02*
X205186749Y-108891200D01*
X206706749Y-106513200D02*
X206706749Y-108891200D01*
X207066749Y-106775200D02*
X207066749Y-108891200D01*
X207906749Y-107703200D02*
X207906749Y-112159200D01*
X206946749Y-106681200D02*
X206946749Y-108891200D01*
X208346749Y-108585200D02*
X208346749Y-111277200D01*
X205826749Y-110971200D02*
X205826749Y-113781200D01*
X204545749Y-105851200D02*
X204545749Y-114011200D01*
X207626749Y-107327200D02*
X207626749Y-112535200D01*
X205065749Y-105894200D02*
X205065749Y-113968200D01*
X206306749Y-106284200D02*
X206306749Y-108891200D01*
X206866749Y-106622200D02*
X206866749Y-108891200D01*
X208426749Y-108833200D02*
X208426749Y-111029200D01*
X208186749Y-108200200D02*
X208186749Y-111662200D01*
X204785749Y-105863200D02*
X204785749Y-113999200D01*
X208306749Y-108478200D02*
X208306749Y-111384200D01*
X206306749Y-110971200D02*
X206306749Y-113578200D01*
X206666749Y-106487200D02*
X206666749Y-108891200D01*
X206066749Y-106174200D02*
X206066749Y-108891200D01*
X206226749Y-110971200D02*
X206226749Y-113617200D01*
X204905749Y-105874200D02*
X204905749Y-113988200D01*
X208466749Y-108983200D02*
X208466749Y-110879200D01*
X207746749Y-107477200D02*
X207746749Y-112385200D01*
X205626749Y-106017200D02*
X205626749Y-108891200D01*
X206866749Y-110971200D02*
X206866749Y-113240200D01*
X208585749Y-109931200D02*
G75*
G03*
X208585749Y-109931200I-4120000J0D01*
G01*
%TO.C,C1*%
X207306749Y-97893000D02*
X207306749Y-103783000D01*
X205025749Y-96796000D02*
X205025749Y-104880000D01*
X205306749Y-101878000D02*
X205306749Y-104832000D01*
X204665749Y-96762000D02*
X204665749Y-104914000D01*
X204865749Y-96777000D02*
X204865749Y-104899000D01*
X205746749Y-101878000D02*
X205746749Y-104715000D01*
X207866749Y-98551000D02*
X207866749Y-103125000D01*
X205826749Y-96988000D02*
X205826749Y-99798000D01*
X205506749Y-96891000D02*
X205506749Y-99798000D01*
X208226749Y-99193000D02*
X208226749Y-102483000D01*
X207706749Y-98333000D02*
X207706749Y-103343000D01*
X204625749Y-96761000D02*
X204625749Y-104915000D01*
X206506749Y-101878000D02*
X206506749Y-104378000D01*
X205426749Y-101878000D02*
X205426749Y-104805000D01*
X206026749Y-101878000D02*
X206026749Y-104612000D01*
X207346749Y-97931000D02*
X207346749Y-103745000D01*
X206226749Y-97152000D02*
X206226749Y-99798000D01*
X206106749Y-97098000D02*
X206106749Y-99798000D01*
X207546749Y-98141000D02*
X207546749Y-103535000D01*
X205266749Y-96836000D02*
X205266749Y-99798000D01*
X205226749Y-101878000D02*
X205226749Y-104848000D01*
X206746749Y-97446000D02*
X206746749Y-99798000D01*
X205986749Y-97048000D02*
X205986749Y-99798000D01*
X205666749Y-101878000D02*
X205666749Y-104740000D01*
X205706749Y-96949000D02*
X205706749Y-99798000D01*
X205426749Y-96871000D02*
X205426749Y-99798000D01*
X206586749Y-101878000D02*
X206586749Y-104331000D01*
X207666749Y-98282000D02*
X207666749Y-103394000D01*
X208146749Y-99025000D02*
X208146749Y-102651000D01*
X205226749Y-96828000D02*
X205226749Y-99798000D01*
X205105749Y-96808000D02*
X205105749Y-104868000D01*
X204505749Y-96758000D02*
X204505749Y-104918000D01*
X206626749Y-97369000D02*
X206626749Y-99798000D01*
X205546749Y-96902000D02*
X205546749Y-99798000D01*
X205786749Y-101878000D02*
X205786749Y-104701000D01*
X207426749Y-98012000D02*
X207426749Y-103664000D01*
X207946749Y-98672000D02*
X207946749Y-103004000D01*
X207106749Y-97714000D02*
X207106749Y-99798000D01*
X206986749Y-101878000D02*
X206986749Y-104058000D01*
X204825749Y-96773000D02*
X204825749Y-104903000D01*
X208386749Y-99609000D02*
X208386749Y-102067000D01*
X206426749Y-101878000D02*
X206426749Y-104422000D01*
X205386749Y-96862000D02*
X205386749Y-99798000D01*
X200456051Y-98123000D02*
X200456051Y-98923000D01*
X205586749Y-96913000D02*
X205586749Y-99798000D01*
X205266749Y-101878000D02*
X205266749Y-104840000D01*
X205466749Y-96881000D02*
X205466749Y-99798000D01*
X206146749Y-101878000D02*
X206146749Y-104560000D01*
X206706749Y-101878000D02*
X206706749Y-104256000D01*
X204745749Y-96767000D02*
X204745749Y-104909000D01*
X205866749Y-97003000D02*
X205866749Y-99798000D01*
X206386749Y-97232000D02*
X206386749Y-99798000D01*
X206266749Y-101878000D02*
X206266749Y-104504000D01*
X207026749Y-101878000D02*
X207026749Y-104027000D01*
X205626749Y-101878000D02*
X205626749Y-104752000D01*
X205306749Y-96844000D02*
X205306749Y-99798000D01*
X206386749Y-101878000D02*
X206386749Y-104444000D01*
X207586749Y-98187000D02*
X207586749Y-103489000D01*
X206106749Y-101878000D02*
X206106749Y-104578000D01*
X205706749Y-101878000D02*
X205706749Y-104727000D01*
X206786749Y-101878000D02*
X206786749Y-104203000D01*
X205186749Y-101878000D02*
X205186749Y-104855000D01*
X206466749Y-101878000D02*
X206466749Y-104400000D01*
X207066749Y-101878000D02*
X207066749Y-103994000D01*
X207186749Y-101878000D02*
X207186749Y-103893000D01*
X207506749Y-98097000D02*
X207506749Y-103579000D01*
X206546749Y-97321000D02*
X206546749Y-99798000D01*
X205866749Y-101878000D02*
X205866749Y-104673000D01*
X206506749Y-97298000D02*
X206506749Y-99798000D01*
X207106749Y-101878000D02*
X207106749Y-103962000D01*
X207226749Y-97819000D02*
X207226749Y-99798000D01*
X204985749Y-96790000D02*
X204985749Y-104886000D01*
X206186749Y-101878000D02*
X206186749Y-104542000D01*
X205986749Y-101878000D02*
X205986749Y-104628000D01*
X206826749Y-97500000D02*
X206826749Y-99798000D01*
X205145749Y-96814000D02*
X205145749Y-104862000D01*
X205346749Y-101878000D02*
X205346749Y-104823000D01*
X207146749Y-97748000D02*
X207146749Y-99798000D01*
X208066749Y-98874000D02*
X208066749Y-102802000D01*
X207986749Y-98736000D02*
X207986749Y-102940000D01*
X208546749Y-100305000D02*
X208546749Y-101371000D01*
X207786749Y-98438000D02*
X207786749Y-103238000D01*
X206746749Y-101878000D02*
X206746749Y-104230000D01*
X206906749Y-97558000D02*
X206906749Y-99798000D01*
X205786749Y-96975000D02*
X205786749Y-99798000D01*
X208026749Y-98804000D02*
X208026749Y-102872000D01*
X206546749Y-101878000D02*
X206546749Y-104355000D01*
X206466749Y-97276000D02*
X206466749Y-99798000D01*
X204585749Y-96759000D02*
X204585749Y-104917000D01*
X205906749Y-101878000D02*
X205906749Y-104659000D01*
X207266749Y-97855000D02*
X207266749Y-103821000D01*
X207226749Y-101878000D02*
X207226749Y-103857000D01*
X207146749Y-101878000D02*
X207146749Y-103928000D01*
X206346749Y-101878000D02*
X206346749Y-104465000D01*
X204705749Y-96764000D02*
X204705749Y-104912000D01*
X207466749Y-98054000D02*
X207466749Y-103622000D01*
X207186749Y-97783000D02*
X207186749Y-99798000D01*
X206186749Y-97134000D02*
X206186749Y-99798000D01*
X205906749Y-97017000D02*
X205906749Y-99798000D01*
X206826749Y-101878000D02*
X206826749Y-104176000D01*
X205546749Y-101878000D02*
X205546749Y-104774000D01*
X205746749Y-96961000D02*
X205746749Y-99798000D01*
X206146749Y-97116000D02*
X206146749Y-99798000D01*
X206906749Y-101878000D02*
X206906749Y-104118000D01*
X206586749Y-97345000D02*
X206586749Y-99798000D01*
X205466749Y-101878000D02*
X205466749Y-104795000D01*
X200056051Y-98523000D02*
X200856051Y-98523000D01*
X208506749Y-100070000D02*
X208506749Y-101606000D01*
X205946749Y-101878000D02*
X205946749Y-104643000D01*
X205666749Y-96936000D02*
X205666749Y-99798000D01*
X205506749Y-101878000D02*
X205506749Y-104785000D01*
X207386749Y-97971000D02*
X207386749Y-103705000D01*
X205346749Y-96853000D02*
X205346749Y-99798000D01*
X208106749Y-98948000D02*
X208106749Y-102728000D01*
X206946749Y-101878000D02*
X206946749Y-104088000D01*
X206786749Y-97473000D02*
X206786749Y-99798000D01*
X206426749Y-97254000D02*
X206426749Y-99798000D01*
X205586749Y-101878000D02*
X205586749Y-104763000D01*
X206066749Y-101878000D02*
X206066749Y-104595000D01*
X207826749Y-98493000D02*
X207826749Y-103183000D01*
X206666749Y-101878000D02*
X206666749Y-104282000D01*
X206266749Y-97172000D02*
X206266749Y-99798000D01*
X207026749Y-97649000D02*
X207026749Y-99798000D01*
X206986749Y-97618000D02*
X206986749Y-99798000D01*
X206026749Y-97064000D02*
X206026749Y-99798000D01*
X206346749Y-97211000D02*
X206346749Y-99798000D01*
X208266749Y-99286000D02*
X208266749Y-102390000D01*
X204465749Y-96758000D02*
X204465749Y-104918000D01*
X206626749Y-101878000D02*
X206626749Y-104307000D01*
X205946749Y-97033000D02*
X205946749Y-99798000D01*
X205386749Y-101878000D02*
X205386749Y-104814000D01*
X204945749Y-96786000D02*
X204945749Y-104890000D01*
X205186749Y-96821000D02*
X205186749Y-99798000D01*
X206706749Y-97420000D02*
X206706749Y-99798000D01*
X207066749Y-97682000D02*
X207066749Y-99798000D01*
X207906749Y-98610000D02*
X207906749Y-103066000D01*
X206946749Y-97588000D02*
X206946749Y-99798000D01*
X208346749Y-99492000D02*
X208346749Y-102184000D01*
X205826749Y-101878000D02*
X205826749Y-104688000D01*
X204545749Y-96758000D02*
X204545749Y-104918000D01*
X207626749Y-98234000D02*
X207626749Y-103442000D01*
X205065749Y-96801000D02*
X205065749Y-104875000D01*
X206306749Y-97191000D02*
X206306749Y-99798000D01*
X206866749Y-97529000D02*
X206866749Y-99798000D01*
X208426749Y-99740000D02*
X208426749Y-101936000D01*
X208186749Y-99107000D02*
X208186749Y-102569000D01*
X204785749Y-96770000D02*
X204785749Y-104906000D01*
X208306749Y-99385000D02*
X208306749Y-102291000D01*
X206306749Y-101878000D02*
X206306749Y-104485000D01*
X206666749Y-97394000D02*
X206666749Y-99798000D01*
X206066749Y-97081000D02*
X206066749Y-99798000D01*
X206226749Y-101878000D02*
X206226749Y-104524000D01*
X204905749Y-96781000D02*
X204905749Y-104895000D01*
X208466749Y-99890000D02*
X208466749Y-101786000D01*
X207746749Y-98384000D02*
X207746749Y-103292000D01*
X205626749Y-96924000D02*
X205626749Y-99798000D01*
X206866749Y-101878000D02*
X206866749Y-104147000D01*
X208585749Y-100838000D02*
G75*
G03*
X208585749Y-100838000I-4120000J0D01*
G01*
%TD*%
M02*
