<?xml version="1.0" encoding="utf-8" standalone="no"?>
<!DOCTYPE svg PUBLIC "-//W3C//DTD SVG 1.1//EN"
  "http://www.w3.org/Graphics/SVG/1.1/DTD/svg11.dtd">
<svg xmlns:xlink="http://www.w3.org/1999/xlink" width="431.170469pt" height="313.277187pt" viewBox="0 0 431.170469 313.277187" xmlns="http://www.w3.org/2000/svg" version="1.1">
 <defs>
  <style type="text/css">*{stroke-linejoin: round; stroke-linecap: butt}</style>
 </defs>
 <g id="figure_1">
  <g id="patch_1">
   <path d="M -0 313.277187 
L 431.170469 313.277187 
L 431.170469 0 
L -0 0 
L -0 313.277187 
z
" style="fill: none"/>
  </g>
  <g id="axes_1">
   <g id="patch_2">
    <path d="M 73.980469 261.16 
L 423.970469 261.16 
L 423.970469 7.2 
L 73.980469 7.2 
L 73.980469 261.16 
z
" style="fill: none"/>
   </g>
   <g id="matplotlib.axis_1">
    <g id="xtick_1">
     <g id="line2d_1">
      <path d="M 89.889105 261.16 
L 89.889105 7.2 
" clip-path="url(#p60d9c944ce)" style="fill: none; stroke: #b0b0b0; stroke-width: 0.8; stroke-linecap: square"/>
     </g>
     <g id="line2d_2">
      <defs>
       <path id="md39032bed2" d="M 0 0 
L 0 3.5 
" style="stroke: #000000; stroke-width: 0.8"/>
      </defs>
      <g>
       <use xlink:href="#md39032bed2" x="89.889105" y="261.16" style="stroke: #000000; stroke-width: 0.8"/>
      </g>
     </g>
     <g id="text_1">
      <!-- 0 -->
      <g transform="translate(85.11723 279.557656)scale(0.15 -0.15)">
       <defs>
        <path id="DejaVuSans-30" d="M 2034 4250 
Q 1547 4250 1301 3770 
Q 1056 3291 1056 2328 
Q 1056 1369 1301 889 
Q 1547 409 2034 409 
Q 2525 409 2770 889 
Q 3016 1369 3016 2328 
Q 3016 3291 2770 3770 
Q 2525 4250 2034 4250 
z
M 2034 4750 
Q 2819 4750 3233 4129 
Q 3647 3509 3647 2328 
Q 3647 1150 3233 529 
Q 2819 -91 2034 -91 
Q 1250 -91 836 529 
Q 422 1150 422 2328 
Q 422 3509 836 4129 
Q 1250 4750 2034 4750 
z
" transform="scale(0.015625)"/>
       </defs>
       <use xlink:href="#DejaVuSans-30"/>
      </g>
     </g>
    </g>
    <g id="xtick_2">
     <g id="line2d_3">
      <path d="M 160.594156 261.16 
L 160.594156 7.2 
" clip-path="url(#p60d9c944ce)" style="fill: none; stroke: #b0b0b0; stroke-width: 0.8; stroke-linecap: square"/>
     </g>
     <g id="line2d_4">
      <g>
       <use xlink:href="#md39032bed2" x="160.594156" y="261.16" style="stroke: #000000; stroke-width: 0.8"/>
      </g>
     </g>
     <g id="text_2">
      <!-- 2000 -->
      <g transform="translate(141.506656 279.557656)scale(0.15 -0.15)">
       <defs>
        <path id="DejaVuSans-32" d="M 1228 531 
L 3431 531 
L 3431 0 
L 469 0 
L 469 531 
Q 828 903 1448 1529 
Q 2069 2156 2228 2338 
Q 2531 2678 2651 2914 
Q 2772 3150 2772 3378 
Q 2772 3750 2511 3984 
Q 2250 4219 1831 4219 
Q 1534 4219 1204 4116 
Q 875 4013 500 3803 
L 500 4441 
Q 881 4594 1212 4672 
Q 1544 4750 1819 4750 
Q 2544 4750 2975 4387 
Q 3406 4025 3406 3419 
Q 3406 3131 3298 2873 
Q 3191 2616 2906 2266 
Q 2828 2175 2409 1742 
Q 1991 1309 1228 531 
z
" transform="scale(0.015625)"/>
       </defs>
       <use xlink:href="#DejaVuSans-32"/>
       <use xlink:href="#DejaVuSans-30" x="63.623047"/>
       <use xlink:href="#DejaVuSans-30" x="127.246094"/>
       <use xlink:href="#DejaVuSans-30" x="190.869141"/>
      </g>
     </g>
    </g>
    <g id="xtick_3">
     <g id="line2d_5">
      <path d="M 231.299206 261.16 
L 231.299206 7.2 
" clip-path="url(#p60d9c944ce)" style="fill: none; stroke: #b0b0b0; stroke-width: 0.8; stroke-linecap: square"/>
     </g>
     <g id="line2d_6">
      <g>
       <use xlink:href="#md39032bed2" x="231.299206" y="261.16" style="stroke: #000000; stroke-width: 0.8"/>
      </g>
     </g>
     <g id="text_3">
      <!-- 4000 -->
      <g transform="translate(212.211706 279.557656)scale(0.15 -0.15)">
       <defs>
        <path id="DejaVuSans-34" d="M 2419 4116 
L 825 1625 
L 2419 1625 
L 2419 4116 
z
M 2253 4666 
L 3047 4666 
L 3047 1625 
L 3713 1625 
L 3713 1100 
L 3047 1100 
L 3047 0 
L 2419 0 
L 2419 1100 
L 313 1100 
L 313 1709 
L 2253 4666 
z
" transform="scale(0.015625)"/>
       </defs>
       <use xlink:href="#DejaVuSans-34"/>
       <use xlink:href="#DejaVuSans-30" x="63.623047"/>
       <use xlink:href="#DejaVuSans-30" x="127.246094"/>
       <use xlink:href="#DejaVuSans-30" x="190.869141"/>
      </g>
     </g>
    </g>
    <g id="xtick_4">
     <g id="line2d_7">
      <path d="M 302.004257 261.16 
L 302.004257 7.2 
" clip-path="url(#p60d9c944ce)" style="fill: none; stroke: #b0b0b0; stroke-width: 0.8; stroke-linecap: square"/>
     </g>
     <g id="line2d_8">
      <g>
       <use xlink:href="#md39032bed2" x="302.004257" y="261.16" style="stroke: #000000; stroke-width: 0.8"/>
      </g>
     </g>
     <g id="text_4">
      <!-- 6000 -->
      <g transform="translate(282.916757 279.557656)scale(0.15 -0.15)">
       <defs>
        <path id="DejaVuSans-36" d="M 2113 2584 
Q 1688 2584 1439 2293 
Q 1191 2003 1191 1497 
Q 1191 994 1439 701 
Q 1688 409 2113 409 
Q 2538 409 2786 701 
Q 3034 994 3034 1497 
Q 3034 2003 2786 2293 
Q 2538 2584 2113 2584 
z
M 3366 4563 
L 3366 3988 
Q 3128 4100 2886 4159 
Q 2644 4219 2406 4219 
Q 1781 4219 1451 3797 
Q 1122 3375 1075 2522 
Q 1259 2794 1537 2939 
Q 1816 3084 2150 3084 
Q 2853 3084 3261 2657 
Q 3669 2231 3669 1497 
Q 3669 778 3244 343 
Q 2819 -91 2113 -91 
Q 1303 -91 875 529 
Q 447 1150 447 2328 
Q 447 3434 972 4092 
Q 1497 4750 2381 4750 
Q 2619 4750 2861 4703 
Q 3103 4656 3366 4563 
z
" transform="scale(0.015625)"/>
       </defs>
       <use xlink:href="#DejaVuSans-36"/>
       <use xlink:href="#DejaVuSans-30" x="63.623047"/>
       <use xlink:href="#DejaVuSans-30" x="127.246094"/>
       <use xlink:href="#DejaVuSans-30" x="190.869141"/>
      </g>
     </g>
    </g>
    <g id="xtick_5">
     <g id="line2d_9">
      <path d="M 372.709307 261.16 
L 372.709307 7.2 
" clip-path="url(#p60d9c944ce)" style="fill: none; stroke: #b0b0b0; stroke-width: 0.8; stroke-linecap: square"/>
     </g>
     <g id="line2d_10">
      <g>
       <use xlink:href="#md39032bed2" x="372.709307" y="261.16" style="stroke: #000000; stroke-width: 0.8"/>
      </g>
     </g>
     <g id="text_5">
      <!-- 8000 -->
      <g transform="translate(353.621807 279.557656)scale(0.15 -0.15)">
       <defs>
        <path id="DejaVuSans-38" d="M 2034 2216 
Q 1584 2216 1326 1975 
Q 1069 1734 1069 1313 
Q 1069 891 1326 650 
Q 1584 409 2034 409 
Q 2484 409 2743 651 
Q 3003 894 3003 1313 
Q 3003 1734 2745 1975 
Q 2488 2216 2034 2216 
z
M 1403 2484 
Q 997 2584 770 2862 
Q 544 3141 544 3541 
Q 544 4100 942 4425 
Q 1341 4750 2034 4750 
Q 2731 4750 3128 4425 
Q 3525 4100 3525 3541 
Q 3525 3141 3298 2862 
Q 3072 2584 2669 2484 
Q 3125 2378 3379 2068 
Q 3634 1759 3634 1313 
Q 3634 634 3220 271 
Q 2806 -91 2034 -91 
Q 1263 -91 848 271 
Q 434 634 434 1313 
Q 434 1759 690 2068 
Q 947 2378 1403 2484 
z
M 1172 3481 
Q 1172 3119 1398 2916 
Q 1625 2713 2034 2713 
Q 2441 2713 2670 2916 
Q 2900 3119 2900 3481 
Q 2900 3844 2670 4047 
Q 2441 4250 2034 4250 
Q 1625 4250 1398 4047 
Q 1172 3844 1172 3481 
z
" transform="scale(0.015625)"/>
       </defs>
       <use xlink:href="#DejaVuSans-38"/>
       <use xlink:href="#DejaVuSans-30" x="63.623047"/>
       <use xlink:href="#DejaVuSans-30" x="127.246094"/>
       <use xlink:href="#DejaVuSans-30" x="190.869141"/>
      </g>
     </g>
    </g>
    <g id="text_6">
     <!-- Wait time ($\mu s$) -->
     <g transform="translate(177.875469 301.877187)scale(0.2 -0.2)">
      <defs>
       <path id="DejaVuSans-57" d="M 213 4666 
L 850 4666 
L 1831 722 
L 2809 4666 
L 3519 4666 
L 4500 722 
L 5478 4666 
L 6119 4666 
L 4947 0 
L 4153 0 
L 3169 4050 
L 2175 0 
L 1381 0 
L 213 4666 
z
" transform="scale(0.015625)"/>
       <path id="DejaVuSans-61" d="M 2194 1759 
Q 1497 1759 1228 1600 
Q 959 1441 959 1056 
Q 959 750 1161 570 
Q 1363 391 1709 391 
Q 2188 391 2477 730 
Q 2766 1069 2766 1631 
L 2766 1759 
L 2194 1759 
z
M 3341 1997 
L 3341 0 
L 2766 0 
L 2766 531 
Q 2569 213 2275 61 
Q 1981 -91 1556 -91 
Q 1019 -91 701 211 
Q 384 513 384 1019 
Q 384 1609 779 1909 
Q 1175 2209 1959 2209 
L 2766 2209 
L 2766 2266 
Q 2766 2663 2505 2880 
Q 2244 3097 1772 3097 
Q 1472 3097 1187 3025 
Q 903 2953 641 2809 
L 641 3341 
Q 956 3463 1253 3523 
Q 1550 3584 1831 3584 
Q 2591 3584 2966 3190 
Q 3341 2797 3341 1997 
z
" transform="scale(0.015625)"/>
       <path id="DejaVuSans-69" d="M 603 3500 
L 1178 3500 
L 1178 0 
L 603 0 
L 603 3500 
z
M 603 4863 
L 1178 4863 
L 1178 4134 
L 603 4134 
L 603 4863 
z
" transform="scale(0.015625)"/>
       <path id="DejaVuSans-74" d="M 1172 4494 
L 1172 3500 
L 2356 3500 
L 2356 3053 
L 1172 3053 
L 1172 1153 
Q 1172 725 1289 603 
Q 1406 481 1766 481 
L 2356 481 
L 2356 0 
L 1766 0 
Q 1100 0 847 248 
Q 594 497 594 1153 
L 594 3053 
L 172 3053 
L 172 3500 
L 594 3500 
L 594 4494 
L 1172 4494 
z
" transform="scale(0.015625)"/>
       <path id="DejaVuSans-20" transform="scale(0.015625)"/>
       <path id="DejaVuSans-6d" d="M 3328 2828 
Q 3544 3216 3844 3400 
Q 4144 3584 4550 3584 
Q 5097 3584 5394 3201 
Q 5691 2819 5691 2113 
L 5691 0 
L 5113 0 
L 5113 2094 
Q 5113 2597 4934 2840 
Q 4756 3084 4391 3084 
Q 3944 3084 3684 2787 
Q 3425 2491 3425 1978 
L 3425 0 
L 2847 0 
L 2847 2094 
Q 2847 2600 2669 2842 
Q 2491 3084 2119 3084 
Q 1678 3084 1418 2786 
Q 1159 2488 1159 1978 
L 1159 0 
L 581 0 
L 581 3500 
L 1159 3500 
L 1159 2956 
Q 1356 3278 1631 3431 
Q 1906 3584 2284 3584 
Q 2666 3584 2933 3390 
Q 3200 3197 3328 2828 
z
" transform="scale(0.015625)"/>
       <path id="DejaVuSans-65" d="M 3597 1894 
L 3597 1613 
L 953 1613 
Q 991 1019 1311 708 
Q 1631 397 2203 397 
Q 2534 397 2845 478 
Q 3156 559 3463 722 
L 3463 178 
Q 3153 47 2828 -22 
Q 2503 -91 2169 -91 
Q 1331 -91 842 396 
Q 353 884 353 1716 
Q 353 2575 817 3079 
Q 1281 3584 2069 3584 
Q 2775 3584 3186 3129 
Q 3597 2675 3597 1894 
z
M 3022 2063 
Q 3016 2534 2758 2815 
Q 2500 3097 2075 3097 
Q 1594 3097 1305 2825 
Q 1016 2553 972 2059 
L 3022 2063 
z
" transform="scale(0.015625)"/>
       <path id="DejaVuSans-28" d="M 1984 4856 
Q 1566 4138 1362 3434 
Q 1159 2731 1159 2009 
Q 1159 1288 1364 580 
Q 1569 -128 1984 -844 
L 1484 -844 
Q 1016 -109 783 600 
Q 550 1309 550 2009 
Q 550 2706 781 3412 
Q 1013 4119 1484 4856 
L 1984 4856 
z
" transform="scale(0.015625)"/>
       <path id="DejaVuSans-Oblique-3bc" d="M -84 -1331 
L 856 3500 
L 1434 3500 
L 1009 1322 
Q 997 1256 987 1175 
Q 978 1094 978 1013 
Q 978 722 1161 565 
Q 1344 409 1684 409 
Q 2147 409 2431 671 
Q 2716 934 2816 1459 
L 3213 3500 
L 3788 3500 
L 3266 809 
Q 3253 750 3248 706 
Q 3244 663 3244 628 
Q 3244 531 3283 486 
Q 3322 441 3406 441 
Q 3438 441 3492 456 
Q 3547 472 3647 513 
L 3559 50 
Q 3422 -19 3297 -55 
Q 3172 -91 3053 -91 
Q 2847 -91 2730 40 
Q 2613 172 2613 403 
Q 2438 153 2195 31 
Q 1953 -91 1625 -91 
Q 1334 -91 1117 43 
Q 900 178 831 397 
L 494 -1331 
L -84 -1331 
z
" transform="scale(0.015625)"/>
       <path id="DejaVuSans-Oblique-73" d="M 3200 3397 
L 3091 2853 
Q 2863 2978 2609 3040 
Q 2356 3103 2088 3103 
Q 1634 3103 1373 2948 
Q 1113 2794 1113 2528 
Q 1113 2219 1719 2053 
Q 1766 2041 1788 2034 
L 1972 1978 
Q 2547 1819 2739 1644 
Q 2931 1469 2931 1166 
Q 2931 609 2489 259 
Q 2047 -91 1331 -91 
Q 1053 -91 747 -37 
Q 441 16 72 128 
L 184 722 
Q 500 559 806 475 
Q 1113 391 1394 391 
Q 1816 391 2080 572 
Q 2344 753 2344 1031 
Q 2344 1331 1650 1516 
L 1591 1531 
L 1394 1581 
Q 956 1697 753 1886 
Q 550 2075 550 2369 
Q 550 2928 970 3256 
Q 1391 3584 2113 3584 
Q 2397 3584 2667 3537 
Q 2938 3491 3200 3397 
z
" transform="scale(0.015625)"/>
       <path id="DejaVuSans-29" d="M 513 4856 
L 1013 4856 
Q 1481 4119 1714 3412 
Q 1947 2706 1947 2009 
Q 1947 1309 1714 600 
Q 1481 -109 1013 -844 
L 513 -844 
Q 928 -128 1133 580 
Q 1338 1288 1338 2009 
Q 1338 2731 1133 3434 
Q 928 4138 513 4856 
z
" transform="scale(0.015625)"/>
      </defs>
      <use xlink:href="#DejaVuSans-57" transform="translate(0 0.015625)"/>
      <use xlink:href="#DejaVuSans-61" transform="translate(98.876953 0.015625)"/>
      <use xlink:href="#DejaVuSans-69" transform="translate(160.15625 0.015625)"/>
      <use xlink:href="#DejaVuSans-74" transform="translate(187.939453 0.015625)"/>
      <use xlink:href="#DejaVuSans-20" transform="translate(227.148438 0.015625)"/>
      <use xlink:href="#DejaVuSans-74" transform="translate(258.935547 0.015625)"/>
      <use xlink:href="#DejaVuSans-69" transform="translate(298.144531 0.015625)"/>
      <use xlink:href="#DejaVuSans-6d" transform="translate(325.927734 0.015625)"/>
      <use xlink:href="#DejaVuSans-65" transform="translate(423.339844 0.015625)"/>
      <use xlink:href="#DejaVuSans-20" transform="translate(484.863281 0.015625)"/>
      <use xlink:href="#DejaVuSans-28" transform="translate(516.650391 0.015625)"/>
      <use xlink:href="#DejaVuSans-Oblique-3bc" transform="translate(555.664062 0.015625)"/>
      <use xlink:href="#DejaVuSans-Oblique-73" transform="translate(619.287109 0.015625)"/>
      <use xlink:href="#DejaVuSans-29" transform="translate(671.386719 0.015625)"/>
     </g>
    </g>
   </g>
   <g id="matplotlib.axis_2">
    <g id="ytick_1">
     <g id="line2d_11">
      <path d="M 73.980469 254.305186 
L 423.970469 254.305186 
" clip-path="url(#p60d9c944ce)" style="fill: none; stroke: #b0b0b0; stroke-width: 0.8; stroke-linecap: square"/>
     </g>
     <g id="line2d_12">
      <defs>
       <path id="m6f3f5b6aff" d="M 0 0 
L -3.5 0 
" style="stroke: #000000; stroke-width: 0.8"/>
      </defs>
      <g>
       <use xlink:href="#m6f3f5b6aff" x="73.980469" y="254.305186" style="stroke: #000000; stroke-width: 0.8"/>
      </g>
     </g>
     <g id="text_7">
      <!-- −0.4 -->
      <g transform="translate(30.55625 260.004015)scale(0.15 -0.15)">
       <defs>
        <path id="DejaVuSans-2212" d="M 678 2272 
L 4684 2272 
L 4684 1741 
L 678 1741 
L 678 2272 
z
" transform="scale(0.015625)"/>
        <path id="DejaVuSans-2e" d="M 684 794 
L 1344 794 
L 1344 0 
L 684 0 
L 684 794 
z
" transform="scale(0.015625)"/>
       </defs>
       <use xlink:href="#DejaVuSans-2212"/>
       <use xlink:href="#DejaVuSans-30" x="83.789062"/>
       <use xlink:href="#DejaVuSans-2e" x="147.412109"/>
       <use xlink:href="#DejaVuSans-34" x="179.199219"/>
      </g>
     </g>
    </g>
    <g id="ytick_2">
     <g id="line2d_13">
      <path d="M 73.980469 197.624821 
L 423.970469 197.624821 
" clip-path="url(#p60d9c944ce)" style="fill: none; stroke: #b0b0b0; stroke-width: 0.8; stroke-linecap: square"/>
     </g>
     <g id="line2d_14">
      <g>
       <use xlink:href="#m6f3f5b6aff" x="73.980469" y="197.624821" style="stroke: #000000; stroke-width: 0.8"/>
      </g>
     </g>
     <g id="text_8">
      <!-- −0.2 -->
      <g transform="translate(30.55625 203.323649)scale(0.15 -0.15)">
       <use xlink:href="#DejaVuSans-2212"/>
       <use xlink:href="#DejaVuSans-30" x="83.789062"/>
       <use xlink:href="#DejaVuSans-2e" x="147.412109"/>
       <use xlink:href="#DejaVuSans-32" x="179.199219"/>
      </g>
     </g>
    </g>
    <g id="ytick_3">
     <g id="line2d_15">
      <path d="M 73.980469 140.944456 
L 423.970469 140.944456 
" clip-path="url(#p60d9c944ce)" style="fill: none; stroke: #b0b0b0; stroke-width: 0.8; stroke-linecap: square"/>
     </g>
     <g id="line2d_16">
      <g>
       <use xlink:href="#m6f3f5b6aff" x="73.980469" y="140.944456" style="stroke: #000000; stroke-width: 0.8"/>
      </g>
     </g>
     <g id="text_9">
      <!-- 0.0 -->
      <g transform="translate(43.125781 146.643284)scale(0.15 -0.15)">
       <use xlink:href="#DejaVuSans-30"/>
       <use xlink:href="#DejaVuSans-2e" x="63.623047"/>
       <use xlink:href="#DejaVuSans-30" x="95.410156"/>
      </g>
     </g>
    </g>
    <g id="ytick_4">
     <g id="line2d_17">
      <path d="M 73.980469 84.26409 
L 423.970469 84.26409 
" clip-path="url(#p60d9c944ce)" style="fill: none; stroke: #b0b0b0; stroke-width: 0.8; stroke-linecap: square"/>
     </g>
     <g id="line2d_18">
      <g>
       <use xlink:href="#m6f3f5b6aff" x="73.980469" y="84.26409" style="stroke: #000000; stroke-width: 0.8"/>
      </g>
     </g>
     <g id="text_10">
      <!-- 0.2 -->
      <g transform="translate(43.125781 89.962918)scale(0.15 -0.15)">
       <use xlink:href="#DejaVuSans-30"/>
       <use xlink:href="#DejaVuSans-2e" x="63.623047"/>
       <use xlink:href="#DejaVuSans-32" x="95.410156"/>
      </g>
     </g>
    </g>
    <g id="ytick_5">
     <g id="line2d_19">
      <path d="M 73.980469 27.583725 
L 423.970469 27.583725 
" clip-path="url(#p60d9c944ce)" style="fill: none; stroke: #b0b0b0; stroke-width: 0.8; stroke-linecap: square"/>
     </g>
     <g id="line2d_20">
      <g>
       <use xlink:href="#m6f3f5b6aff" x="73.980469" y="27.583725" style="stroke: #000000; stroke-width: 0.8"/>
      </g>
     </g>
     <g id="text_11">
      <!-- 0.4 -->
      <g transform="translate(43.125781 33.282553)scale(0.15 -0.15)">
       <use xlink:href="#DejaVuSans-30"/>
       <use xlink:href="#DejaVuSans-2e" x="63.623047"/>
       <use xlink:href="#DejaVuSans-34" x="95.410156"/>
      </g>
     </g>
    </g>
    <g id="text_12">
     <!-- Phase (cycle) -->
     <g transform="translate(22.396875 200.865937)rotate(-90)scale(0.2 -0.2)">
      <defs>
       <path id="DejaVuSans-50" d="M 1259 4147 
L 1259 2394 
L 2053 2394 
Q 2494 2394 2734 2622 
Q 2975 2850 2975 3272 
Q 2975 3691 2734 3919 
Q 2494 4147 2053 4147 
L 1259 4147 
z
M 628 4666 
L 2053 4666 
Q 2838 4666 3239 4311 
Q 3641 3956 3641 3272 
Q 3641 2581 3239 2228 
Q 2838 1875 2053 1875 
L 1259 1875 
L 1259 0 
L 628 0 
L 628 4666 
z
" transform="scale(0.015625)"/>
       <path id="DejaVuSans-68" d="M 3513 2113 
L 3513 0 
L 2938 0 
L 2938 2094 
Q 2938 2591 2744 2837 
Q 2550 3084 2163 3084 
Q 1697 3084 1428 2787 
Q 1159 2491 1159 1978 
L 1159 0 
L 581 0 
L 581 4863 
L 1159 4863 
L 1159 2956 
Q 1366 3272 1645 3428 
Q 1925 3584 2291 3584 
Q 2894 3584 3203 3211 
Q 3513 2838 3513 2113 
z
" transform="scale(0.015625)"/>
       <path id="DejaVuSans-73" d="M 2834 3397 
L 2834 2853 
Q 2591 2978 2328 3040 
Q 2066 3103 1784 3103 
Q 1356 3103 1142 2972 
Q 928 2841 928 2578 
Q 928 2378 1081 2264 
Q 1234 2150 1697 2047 
L 1894 2003 
Q 2506 1872 2764 1633 
Q 3022 1394 3022 966 
Q 3022 478 2636 193 
Q 2250 -91 1575 -91 
Q 1294 -91 989 -36 
Q 684 19 347 128 
L 347 722 
Q 666 556 975 473 
Q 1284 391 1588 391 
Q 1994 391 2212 530 
Q 2431 669 2431 922 
Q 2431 1156 2273 1281 
Q 2116 1406 1581 1522 
L 1381 1569 
Q 847 1681 609 1914 
Q 372 2147 372 2553 
Q 372 3047 722 3315 
Q 1072 3584 1716 3584 
Q 2034 3584 2315 3537 
Q 2597 3491 2834 3397 
z
" transform="scale(0.015625)"/>
       <path id="DejaVuSans-63" d="M 3122 3366 
L 3122 2828 
Q 2878 2963 2633 3030 
Q 2388 3097 2138 3097 
Q 1578 3097 1268 2742 
Q 959 2388 959 1747 
Q 959 1106 1268 751 
Q 1578 397 2138 397 
Q 2388 397 2633 464 
Q 2878 531 3122 666 
L 3122 134 
Q 2881 22 2623 -34 
Q 2366 -91 2075 -91 
Q 1284 -91 818 406 
Q 353 903 353 1747 
Q 353 2603 823 3093 
Q 1294 3584 2113 3584 
Q 2378 3584 2631 3529 
Q 2884 3475 3122 3366 
z
" transform="scale(0.015625)"/>
       <path id="DejaVuSans-79" d="M 2059 -325 
Q 1816 -950 1584 -1140 
Q 1353 -1331 966 -1331 
L 506 -1331 
L 506 -850 
L 844 -850 
Q 1081 -850 1212 -737 
Q 1344 -625 1503 -206 
L 1606 56 
L 191 3500 
L 800 3500 
L 1894 763 
L 2988 3500 
L 3597 3500 
L 2059 -325 
z
" transform="scale(0.015625)"/>
       <path id="DejaVuSans-6c" d="M 603 4863 
L 1178 4863 
L 1178 0 
L 603 0 
L 603 4863 
z
" transform="scale(0.015625)"/>
      </defs>
      <use xlink:href="#DejaVuSans-50"/>
      <use xlink:href="#DejaVuSans-68" x="60.302734"/>
      <use xlink:href="#DejaVuSans-61" x="123.681641"/>
      <use xlink:href="#DejaVuSans-73" x="184.960938"/>
      <use xlink:href="#DejaVuSans-65" x="237.060547"/>
      <use xlink:href="#DejaVuSans-20" x="298.583984"/>
      <use xlink:href="#DejaVuSans-28" x="330.371094"/>
      <use xlink:href="#DejaVuSans-63" x="369.384766"/>
      <use xlink:href="#DejaVuSans-79" x="424.365234"/>
      <use xlink:href="#DejaVuSans-63" x="483.544922"/>
      <use xlink:href="#DejaVuSans-6c" x="538.525391"/>
      <use xlink:href="#DejaVuSans-65" x="566.308594"/>
      <use xlink:href="#DejaVuSans-29" x="627.832031"/>
     </g>
    </g>
   </g>
   <g id="LineCollection_1">
    <path d="M 89.889105 140.618627 
L 89.889105 140.547862 
" clip-path="url(#p60d9c944ce)" style="fill: none; stroke: #1f77b4; stroke-width: 1.5"/>
    <path d="M 107.565368 144.126038 
L 107.565368 141.793502 
" clip-path="url(#p60d9c944ce)" style="fill: none; stroke: #1f77b4; stroke-width: 1.5"/>
    <path d="M 125.24163 147.266984 
L 125.24163 142.665488 
" clip-path="url(#p60d9c944ce)" style="fill: none; stroke: #1f77b4; stroke-width: 1.5"/>
    <path d="M 142.917893 148.824834 
L 142.917893 141.954302 
" clip-path="url(#p60d9c944ce)" style="fill: none; stroke: #1f77b4; stroke-width: 1.5"/>
    <path d="M 146.453146 149.375501 
L 146.453146 142.051171 
" clip-path="url(#p60d9c944ce)" style="fill: none; stroke: #1f77b4; stroke-width: 1.5"/>
    <path d="M 160.594156 144.907759 
L 160.594156 135.768197 
" clip-path="url(#p60d9c944ce)" style="fill: none; stroke: #1f77b4; stroke-width: 1.5"/>
    <path d="M 195.946681 134.094078 
L 195.946681 120.416405 
" clip-path="url(#p60d9c944ce)" style="fill: none; stroke: #1f77b4; stroke-width: 1.5"/>
    <path d="M 231.299206 140.364014 
L 231.299206 122.148234 
" clip-path="url(#p60d9c944ce)" style="fill: none; stroke: #1f77b4; stroke-width: 1.5"/>
    <path d="M 266.651731 137.310191 
L 266.651731 114.556264 
" clip-path="url(#p60d9c944ce)" style="fill: none; stroke: #1f77b4; stroke-width: 1.5"/>
    <path d="M 302.004257 146.140891 
L 302.004257 118.848846 
" clip-path="url(#p60d9c944ce)" style="fill: none; stroke: #1f77b4; stroke-width: 1.5"/>
    <path d="M 337.356782 138.996572 
L 337.356782 107.166417 
" clip-path="url(#p60d9c944ce)" style="fill: none; stroke: #1f77b4; stroke-width: 1.5"/>
    <path d="M 372.709307 133.637191 
L 372.709307 97.268916 
" clip-path="url(#p60d9c944ce)" style="fill: none; stroke: #1f77b4; stroke-width: 1.5"/>
    <path d="M 408.061832 138.143983 
L 408.061832 97.237594 
" clip-path="url(#p60d9c944ce)" style="fill: none; stroke: #1f77b4; stroke-width: 1.5"/>
   </g>
   <g id="LineCollection_2">
    <path d="M 89.889105 110.921278 
L 89.889105 109.567733 
" clip-path="url(#p60d9c944ce)" style="fill: none; stroke: #ff7f0e; stroke-width: 1.5"/>
    <path d="M 107.565368 122.839266 
L 107.565368 121.511861 
" clip-path="url(#p60d9c944ce)" style="fill: none; stroke: #ff7f0e; stroke-width: 1.5"/>
    <path d="M 125.24163 141.147483 
L 125.24163 137.302491 
" clip-path="url(#p60d9c944ce)" style="fill: none; stroke: #ff7f0e; stroke-width: 1.5"/>
    <path d="M 142.917893 44.196743 
L 142.917893 38.295534 
" clip-path="url(#p60d9c944ce)" style="fill: none; stroke: #ff7f0e; stroke-width: 1.5"/>
    <path d="M 146.453146 52.45019 
L 146.453146 46.159322 
" clip-path="url(#p60d9c944ce)" style="fill: none; stroke: #ff7f0e; stroke-width: 1.5"/>
    <path d="M 160.594156 222.259009 
L 160.594156 214.409397 
" clip-path="url(#p60d9c944ce)" style="fill: none; stroke: #ff7f0e; stroke-width: 1.5"/>
    <path d="M 195.946681 112.587763 
L 195.946681 100.841101 
" clip-path="url(#p60d9c944ce)" style="fill: none; stroke: #ff7f0e; stroke-width: 1.5"/>
    <path d="M 231.299206 238.19477 
L 231.299206 222.550936 
" clip-path="url(#p60d9c944ce)" style="fill: none; stroke: #ff7f0e; stroke-width: 1.5"/>
    <path d="M 266.651731 106.332158 
L 266.651731 86.790818 
" clip-path="url(#p60d9c944ce)" style="fill: none; stroke: #ff7f0e; stroke-width: 1.5"/>
    <path d="M 302.004257 173.229802 
L 302.004257 149.791256 
" clip-path="url(#p60d9c944ce)" style="fill: none; stroke: #ff7f0e; stroke-width: 1.5"/>
    <path d="M 337.356782 123.407555 
L 337.356782 96.071801 
" clip-path="url(#p60d9c944ce)" style="fill: none; stroke: #ff7f0e; stroke-width: 1.5"/>
    <path d="M 372.709307 142.305427 
L 372.709307 111.072408 
" clip-path="url(#p60d9c944ce)" style="fill: none; stroke: #ff7f0e; stroke-width: 1.5"/>
    <path d="M 408.061832 53.873885 
L 408.061832 18.743636 
" clip-path="url(#p60d9c944ce)" style="fill: none; stroke: #ff7f0e; stroke-width: 1.5"/>
   </g>
   <g id="LineCollection_3">
    <path d="M 89.889105 171.960891 
L 89.889105 170.605497 
" clip-path="url(#p60d9c944ce)" style="fill: none; stroke: #2ca02c; stroke-width: 1.5"/>
    <path d="M 107.565368 163.070557 
L 107.565368 160.386767 
" clip-path="url(#p60d9c944ce)" style="fill: none; stroke: #2ca02c; stroke-width: 1.5"/>
    <path d="M 125.24163 149.683942 
L 125.24163 143.687466 
" clip-path="url(#p60d9c944ce)" style="fill: none; stroke: #2ca02c; stroke-width: 1.5"/>
    <path d="M 142.917893 249.616364 
L 142.917893 240.559406 
" clip-path="url(#p60d9c944ce)" style="fill: none; stroke: #2ca02c; stroke-width: 1.5"/>
    <path d="M 146.453146 242.180583 
L 146.453146 232.525489 
" clip-path="url(#p60d9c944ce)" style="fill: none; stroke: #2ca02c; stroke-width: 1.5"/>
    <path d="M 160.594156 68.9721 
L 160.594156 56.924361 
" clip-path="url(#p60d9c944ce)" style="fill: none; stroke: #2ca02c; stroke-width: 1.5"/>
    <path d="M 195.946681 170.500014 
L 195.946681 152.470516 
" clip-path="url(#p60d9c944ce)" style="fill: none; stroke: #2ca02c; stroke-width: 1.5"/>
    <path d="M 231.299206 53.833394 
L 231.299206 29.822059 
" clip-path="url(#p60d9c944ce)" style="fill: none; stroke: #2ca02c; stroke-width: 1.5"/>
    <path d="M 266.651731 185.312905 
L 266.651731 155.319485 
" clip-path="url(#p60d9c944ce)" style="fill: none; stroke: #2ca02c; stroke-width: 1.5"/>
    <path d="M 302.004257 129.916438 
L 302.004257 93.941152 
" clip-path="url(#p60d9c944ce)" style="fill: none; stroke: #2ca02c; stroke-width: 1.5"/>
    <path d="M 337.356782 175.264846 
L 337.356782 133.307699 
" clip-path="url(#p60d9c944ce)" style="fill: none; stroke: #2ca02c; stroke-width: 1.5"/>
    <path d="M 372.709307 153.678119 
L 372.709307 105.739064 
" clip-path="url(#p60d9c944ce)" style="fill: none; stroke: #2ca02c; stroke-width: 1.5"/>
    <path d="M 408.061832 249.28695 
L 408.061832 195.366016 
" clip-path="url(#p60d9c944ce)" style="fill: none; stroke: #2ca02c; stroke-width: 1.5"/>
   </g>
   <g id="line2d_21">
    <path d="M 89.889105 140.583244 
L 107.565368 142.95977 
L 125.24163 144.966236 
L 142.917893 145.389568 
L 146.453146 145.713336 
L 160.594156 140.337978 
L 195.946681 127.255242 
L 231.299206 131.256124 
L 266.651731 125.933228 
L 302.004257 132.494868 
L 337.356782 123.081495 
L 372.709307 115.453054 
L 408.061832 117.690789 
" clip-path="url(#p60d9c944ce)" style="fill: none; stroke: #1f77b4; stroke-width: 1.5; stroke-linecap: square"/>
   </g>
   <g id="line2d_22">
    <path d="M 89.889105 110.244506 
L 107.565368 122.175563 
L 125.24163 139.224987 
L 142.917893 41.246139 
L 146.453146 49.304756 
L 160.594156 218.334203 
L 195.946681 106.714432 
L 231.299206 230.372853 
L 266.651731 96.561488 
L 302.004257 161.510529 
L 337.356782 109.739678 
L 372.709307 126.688917 
L 408.061832 36.308761 
" clip-path="url(#p60d9c944ce)" style="fill: none; stroke: #ff7f0e; stroke-width: 1.5; stroke-linecap: square"/>
   </g>
   <g id="line2d_23">
    <path d="M 89.889105 171.283194 
L 107.565368 161.728662 
L 125.24163 146.685704 
L 142.917893 245.087885 
L 146.453146 237.353036 
L 160.594156 62.948231 
L 195.946681 161.485265 
L 231.299206 41.827726 
L 266.651731 170.316195 
L 302.004257 111.928795 
L 337.356782 154.286272 
L 372.709307 129.708592 
L 408.061832 222.326483 
" clip-path="url(#p60d9c944ce)" style="fill: none; stroke: #2ca02c; stroke-width: 1.5; stroke-linecap: square"/>
   </g>
   <g id="patch_3">
    <path d="M 73.980469 261.16 
L 73.980469 7.2 
" style="fill: none; stroke: #000000; stroke-width: 0.8; stroke-linejoin: miter; stroke-linecap: square"/>
   </g>
   <g id="patch_4">
    <path d="M 423.970469 261.16 
L 423.970469 7.2 
" style="fill: none; stroke: #000000; stroke-width: 0.8; stroke-linejoin: miter; stroke-linecap: square"/>
   </g>
   <g id="patch_5">
    <path d="M 73.980469 261.16 
L 423.970469 261.16 
" style="fill: none; stroke: #000000; stroke-width: 0.8; stroke-linejoin: miter; stroke-linecap: square"/>
   </g>
   <g id="patch_6">
    <path d="M 73.980469 7.2 
L 423.970469 7.2 
" style="fill: none; stroke: #000000; stroke-width: 0.8; stroke-linejoin: miter; stroke-linecap: square"/>
   </g>
   <g id="legend_1">
    <g id="patch_7">
     <path d="M 179.777969 34.41375 
L 415.570469 34.41375 
Q 417.970469 34.41375 417.970469 32.01375 
L 417.970469 15.6 
Q 417.970469 13.2 415.570469 13.2 
L 179.777969 13.2 
Q 177.377969 13.2 177.377969 15.6 
L 177.377969 32.01375 
Q 177.377969 34.41375 179.777969 34.41375 
z
" style="fill: #ffffff; opacity: 0.8; stroke: #cccccc; stroke-linejoin: miter"/>
    </g>
    <g id="LineCollection_4">
     <path d="M 194.177969 28.918125 
L 194.177969 16.918125 
" style="fill: none; stroke: #1f77b4; stroke-width: 1.5"/>
    </g>
    <g id="line2d_24">
     <path d="M 182.177969 22.918125 
L 206.177969 22.918125 
" style="fill: none; stroke: #1f77b4; stroke-width: 1.5; stroke-linecap: square"/>
    </g>
    <g id="line2d_25"/>
    <g id="text_13">
     <!-- global -->
     <g transform="translate(215.777969 27.118125)scale(0.12 -0.12)">
      <defs>
       <path id="DejaVuSans-67" d="M 2906 1791 
Q 2906 2416 2648 2759 
Q 2391 3103 1925 3103 
Q 1463 3103 1205 2759 
Q 947 2416 947 1791 
Q 947 1169 1205 825 
Q 1463 481 1925 481 
Q 2391 481 2648 825 
Q 2906 1169 2906 1791 
z
M 3481 434 
Q 3481 -459 3084 -895 
Q 2688 -1331 1869 -1331 
Q 1566 -1331 1297 -1286 
Q 1028 -1241 775 -1147 
L 775 -588 
Q 1028 -725 1275 -790 
Q 1522 -856 1778 -856 
Q 2344 -856 2625 -561 
Q 2906 -266 2906 331 
L 2906 616 
Q 2728 306 2450 153 
Q 2172 0 1784 0 
Q 1141 0 747 490 
Q 353 981 353 1791 
Q 353 2603 747 3093 
Q 1141 3584 1784 3584 
Q 2172 3584 2450 3431 
Q 2728 3278 2906 2969 
L 2906 3500 
L 3481 3500 
L 3481 434 
z
" transform="scale(0.015625)"/>
       <path id="DejaVuSans-6f" d="M 1959 3097 
Q 1497 3097 1228 2736 
Q 959 2375 959 1747 
Q 959 1119 1226 758 
Q 1494 397 1959 397 
Q 2419 397 2687 759 
Q 2956 1122 2956 1747 
Q 2956 2369 2687 2733 
Q 2419 3097 1959 3097 
z
M 1959 3584 
Q 2709 3584 3137 3096 
Q 3566 2609 3566 1747 
Q 3566 888 3137 398 
Q 2709 -91 1959 -91 
Q 1206 -91 779 398 
Q 353 888 353 1747 
Q 353 2609 779 3096 
Q 1206 3584 1959 3584 
z
" transform="scale(0.015625)"/>
       <path id="DejaVuSans-62" d="M 3116 1747 
Q 3116 2381 2855 2742 
Q 2594 3103 2138 3103 
Q 1681 3103 1420 2742 
Q 1159 2381 1159 1747 
Q 1159 1113 1420 752 
Q 1681 391 2138 391 
Q 2594 391 2855 752 
Q 3116 1113 3116 1747 
z
M 1159 2969 
Q 1341 3281 1617 3432 
Q 1894 3584 2278 3584 
Q 2916 3584 3314 3078 
Q 3713 2572 3713 1747 
Q 3713 922 3314 415 
Q 2916 -91 2278 -91 
Q 1894 -91 1617 61 
Q 1341 213 1159 525 
L 1159 0 
L 581 0 
L 581 4863 
L 1159 4863 
L 1159 2969 
z
" transform="scale(0.015625)"/>
      </defs>
      <use xlink:href="#DejaVuSans-67"/>
      <use xlink:href="#DejaVuSans-6c" x="63.476562"/>
      <use xlink:href="#DejaVuSans-6f" x="91.259766"/>
      <use xlink:href="#DejaVuSans-62" x="152.441406"/>
      <use xlink:href="#DejaVuSans-61" x="215.917969"/>
      <use xlink:href="#DejaVuSans-6c" x="277.197266"/>
     </g>
    </g>
    <g id="LineCollection_5">
     <path d="M 288.377969 28.918125 
L 288.377969 16.918125 
" style="fill: none; stroke: #ff7f0e; stroke-width: 1.5"/>
    </g>
    <g id="line2d_26">
     <path d="M 276.377969 22.918125 
L 300.377969 22.918125 
" style="fill: none; stroke: #ff7f0e; stroke-width: 1.5; stroke-linecap: square"/>
    </g>
    <g id="line2d_27"/>
    <g id="text_14">
     <!-- ind2 -->
     <g transform="translate(309.977969 27.118125)scale(0.12 -0.12)">
      <defs>
       <path id="DejaVuSans-6e" d="M 3513 2113 
L 3513 0 
L 2938 0 
L 2938 2094 
Q 2938 2591 2744 2837 
Q 2550 3084 2163 3084 
Q 1697 3084 1428 2787 
Q 1159 2491 1159 1978 
L 1159 0 
L 581 0 
L 581 3500 
L 1159 3500 
L 1159 2956 
Q 1366 3272 1645 3428 
Q 1925 3584 2291 3584 
Q 2894 3584 3203 3211 
Q 3513 2838 3513 2113 
z
" transform="scale(0.015625)"/>
       <path id="DejaVuSans-64" d="M 2906 2969 
L 2906 4863 
L 3481 4863 
L 3481 0 
L 2906 0 
L 2906 525 
Q 2725 213 2448 61 
Q 2172 -91 1784 -91 
Q 1150 -91 751 415 
Q 353 922 353 1747 
Q 353 2572 751 3078 
Q 1150 3584 1784 3584 
Q 2172 3584 2448 3432 
Q 2725 3281 2906 2969 
z
M 947 1747 
Q 947 1113 1208 752 
Q 1469 391 1925 391 
Q 2381 391 2643 752 
Q 2906 1113 2906 1747 
Q 2906 2381 2643 2742 
Q 2381 3103 1925 3103 
Q 1469 3103 1208 2742 
Q 947 2381 947 1747 
z
" transform="scale(0.015625)"/>
      </defs>
      <use xlink:href="#DejaVuSans-69"/>
      <use xlink:href="#DejaVuSans-6e" x="27.783203"/>
      <use xlink:href="#DejaVuSans-64" x="91.162109"/>
      <use xlink:href="#DejaVuSans-32" x="154.638672"/>
     </g>
    </g>
    <g id="LineCollection_6">
     <path d="M 372.169844 28.918125 
L 372.169844 16.918125 
" style="fill: none; stroke: #2ca02c; stroke-width: 1.5"/>
    </g>
    <g id="line2d_28">
     <path d="M 360.169844 22.918125 
L 384.169844 22.918125 
" style="fill: none; stroke: #2ca02c; stroke-width: 1.5; stroke-linecap: square"/>
    </g>
    <g id="line2d_29"/>
    <g id="text_15">
     <!-- diff -->
     <g transform="translate(393.769844 27.118125)scale(0.12 -0.12)">
      <defs>
       <path id="DejaVuSans-66" d="M 2375 4863 
L 2375 4384 
L 1825 4384 
Q 1516 4384 1395 4259 
Q 1275 4134 1275 3809 
L 1275 3500 
L 2222 3500 
L 2222 3053 
L 1275 3053 
L 1275 0 
L 697 0 
L 697 3053 
L 147 3053 
L 147 3500 
L 697 3500 
L 697 3744 
Q 697 4328 969 4595 
Q 1241 4863 1831 4863 
L 2375 4863 
z
" transform="scale(0.015625)"/>
      </defs>
      <use xlink:href="#DejaVuSans-64"/>
      <use xlink:href="#DejaVuSans-69" x="63.476562"/>
      <use xlink:href="#DejaVuSans-66" x="91.259766"/>
      <use xlink:href="#DejaVuSans-66" x="126.464844"/>
     </g>
    </g>
   </g>
  </g>
 </g>
 <defs>
  <clipPath id="p60d9c944ce">
   <rect x="73.980469" y="7.2" width="349.99" height="253.96"/>
  </clipPath>
 </defs>
</svg>
