<?xml version="1.0" encoding="utf-8" standalone="no"?>
<!DOCTYPE svg PUBLIC "-//W3C//DTD SVG 1.1//EN"
  "http://www.w3.org/Graphics/SVG/1.1/DTD/svg11.dtd">
<svg xmlns:xlink="http://www.w3.org/1999/xlink" width="411.42pt" height="325.385437pt" viewBox="0 0 411.42 325.385437" xmlns="http://www.w3.org/2000/svg" version="1.1">
 <defs>
  <style type="text/css">*{stroke-linejoin: round; stroke-linecap: butt}</style>
 </defs>
 <g id="figure_1">
  <g id="patch_1">
   <path d="M 0 325.385437 
L 411.42 325.385437 
L 411.42 0 
L 0 0 
L 0 325.385437 
z
" style="fill: none"/>
  </g>
  <g id="axes_1">
   <g id="patch_2">
    <path d="M 47.1 273.312 
L 404.22 273.312 
L 404.22 7.2 
L 47.1 7.2 
L 47.1 273.312 
z
" style="fill: none"/>
   </g>
   <g id="matplotlib.axis_1">
    <g id="xtick_1">
     <g id="line2d_1">
      <path d="M 63.332727 273.312 
L 63.332727 7.2 
" clip-path="url(#p16bff08ead)" style="fill: none; stroke: #b0b0b0; stroke-width: 0.8; stroke-linecap: square"/>
     </g>
     <g id="line2d_2">
      <defs>
       <path id="md39032bed2" d="M 0 0 
L 0 3.5 
" style="stroke: #000000; stroke-width: 0.8"/>
      </defs>
      <g>
       <use xlink:href="#md39032bed2" x="63.332727" y="273.312" style="stroke: #000000; stroke-width: 0.8"/>
      </g>
     </g>
     <g id="text_1">
      <!-- 0 -->
      <g transform="translate(58.560852 291.709656) scale(0.15 -0.15)">
       <defs>
        <path id="DejaVuSans-30" d="M 2034 4250 
Q 1547 4250 1301 3770 
Q 1056 3291 1056 2328 
Q 1056 1369 1301 889 
Q 1547 409 2034 409 
Q 2525 409 2770 889 
Q 3016 1369 3016 2328 
Q 3016 3291 2770 3770 
Q 2525 4250 2034 4250 
z
M 2034 4750 
Q 2819 4750 3233 4129 
Q 3647 3509 3647 2328 
Q 3647 1150 3233 529 
Q 2819 -91 2034 -91 
Q 1250 -91 836 529 
Q 422 1150 422 2328 
Q 422 3509 836 4129 
Q 1250 4750 2034 4750 
z
" transform="scale(0.015625)"/>
       </defs>
       <use xlink:href="#DejaVuSans-30"/>
      </g>
     </g>
    </g>
    <g id="xtick_2">
     <g id="line2d_3">
      <path d="M 128.263636 273.312 
L 128.263636 7.2 
" clip-path="url(#p16bff08ead)" style="fill: none; stroke: #b0b0b0; stroke-width: 0.8; stroke-linecap: square"/>
     </g>
     <g id="line2d_4">
      <g>
       <use xlink:href="#md39032bed2" x="128.263636" y="273.312" style="stroke: #000000; stroke-width: 0.8"/>
      </g>
     </g>
     <g id="text_2">
      <!-- 1 -->
      <g transform="translate(123.491761 291.709656) scale(0.15 -0.15)">
       <defs>
        <path id="DejaVuSans-31" d="M 794 531 
L 1825 531 
L 1825 4091 
L 703 3866 
L 703 4441 
L 1819 4666 
L 2450 4666 
L 2450 531 
L 3481 531 
L 3481 0 
L 794 0 
L 794 531 
z
" transform="scale(0.015625)"/>
       </defs>
       <use xlink:href="#DejaVuSans-31"/>
      </g>
     </g>
    </g>
    <g id="xtick_3">
     <g id="line2d_5">
      <path d="M 193.194545 273.312 
L 193.194545 7.2 
" clip-path="url(#p16bff08ead)" style="fill: none; stroke: #b0b0b0; stroke-width: 0.8; stroke-linecap: square"/>
     </g>
     <g id="line2d_6">
      <g>
       <use xlink:href="#md39032bed2" x="193.194545" y="273.312" style="stroke: #000000; stroke-width: 0.8"/>
      </g>
     </g>
     <g id="text_3">
      <!-- 2 -->
      <g transform="translate(188.42267 291.709656) scale(0.15 -0.15)">
       <defs>
        <path id="DejaVuSans-32" d="M 1228 531 
L 3431 531 
L 3431 0 
L 469 0 
L 469 531 
Q 828 903 1448 1529 
Q 2069 2156 2228 2338 
Q 2531 2678 2651 2914 
Q 2772 3150 2772 3378 
Q 2772 3750 2511 3984 
Q 2250 4219 1831 4219 
Q 1534 4219 1204 4116 
Q 875 4013 500 3803 
L 500 4441 
Q 881 4594 1212 4672 
Q 1544 4750 1819 4750 
Q 2544 4750 2975 4387 
Q 3406 4025 3406 3419 
Q 3406 3131 3298 2873 
Q 3191 2616 2906 2266 
Q 2828 2175 2409 1742 
Q 1991 1309 1228 531 
z
" transform="scale(0.015625)"/>
       </defs>
       <use xlink:href="#DejaVuSans-32"/>
      </g>
     </g>
    </g>
    <g id="xtick_4">
     <g id="line2d_7">
      <path d="M 258.125455 273.312 
L 258.125455 7.2 
" clip-path="url(#p16bff08ead)" style="fill: none; stroke: #b0b0b0; stroke-width: 0.8; stroke-linecap: square"/>
     </g>
     <g id="line2d_8">
      <g>
       <use xlink:href="#md39032bed2" x="258.125455" y="273.312" style="stroke: #000000; stroke-width: 0.8"/>
      </g>
     </g>
     <g id="text_4">
      <!-- 3 -->
      <g transform="translate(253.35358 291.709656) scale(0.15 -0.15)">
       <defs>
        <path id="DejaVuSans-33" d="M 2597 2516 
Q 3050 2419 3304 2112 
Q 3559 1806 3559 1356 
Q 3559 666 3084 287 
Q 2609 -91 1734 -91 
Q 1441 -91 1130 -33 
Q 819 25 488 141 
L 488 750 
Q 750 597 1062 519 
Q 1375 441 1716 441 
Q 2309 441 2620 675 
Q 2931 909 2931 1356 
Q 2931 1769 2642 2001 
Q 2353 2234 1838 2234 
L 1294 2234 
L 1294 2753 
L 1863 2753 
Q 2328 2753 2575 2939 
Q 2822 3125 2822 3475 
Q 2822 3834 2567 4026 
Q 2313 4219 1838 4219 
Q 1578 4219 1281 4162 
Q 984 4106 628 3988 
L 628 4550 
Q 988 4650 1302 4700 
Q 1616 4750 1894 4750 
Q 2613 4750 3031 4423 
Q 3450 4097 3450 3541 
Q 3450 3153 3228 2886 
Q 3006 2619 2597 2516 
z
" transform="scale(0.015625)"/>
       </defs>
       <use xlink:href="#DejaVuSans-33"/>
      </g>
     </g>
    </g>
    <g id="xtick_5">
     <g id="line2d_9">
      <path d="M 323.056364 273.312 
L 323.056364 7.2 
" clip-path="url(#p16bff08ead)" style="fill: none; stroke: #b0b0b0; stroke-width: 0.8; stroke-linecap: square"/>
     </g>
     <g id="line2d_10">
      <g>
       <use xlink:href="#md39032bed2" x="323.056364" y="273.312" style="stroke: #000000; stroke-width: 0.8"/>
      </g>
     </g>
     <g id="text_5">
      <!-- 4 -->
      <g transform="translate(318.284489 291.709656) scale(0.15 -0.15)">
       <defs>
        <path id="DejaVuSans-34" d="M 2419 4116 
L 825 1625 
L 2419 1625 
L 2419 4116 
z
M 2253 4666 
L 3047 4666 
L 3047 1625 
L 3713 1625 
L 3713 1100 
L 3047 1100 
L 3047 0 
L 2419 0 
L 2419 1100 
L 313 1100 
L 313 1709 
L 2253 4666 
z
" transform="scale(0.015625)"/>
       </defs>
       <use xlink:href="#DejaVuSans-34"/>
      </g>
     </g>
    </g>
    <g id="xtick_6">
     <g id="line2d_11">
      <path d="M 387.987273 273.312 
L 387.987273 7.2 
" clip-path="url(#p16bff08ead)" style="fill: none; stroke: #b0b0b0; stroke-width: 0.8; stroke-linecap: square"/>
     </g>
     <g id="line2d_12">
      <g>
       <use xlink:href="#md39032bed2" x="387.987273" y="273.312" style="stroke: #000000; stroke-width: 0.8"/>
      </g>
     </g>
     <g id="text_6">
      <!-- 5 -->
      <g transform="translate(383.215398 291.709656) scale(0.15 -0.15)">
       <defs>
        <path id="DejaVuSans-35" d="M 691 4666 
L 3169 4666 
L 3169 4134 
L 1269 4134 
L 1269 2991 
Q 1406 3038 1543 3061 
Q 1681 3084 1819 3084 
Q 2600 3084 3056 2656 
Q 3513 2228 3513 1497 
Q 3513 744 3044 326 
Q 2575 -91 1722 -91 
Q 1428 -91 1123 -41 
Q 819 9 494 109 
L 494 744 
Q 775 591 1075 516 
Q 1375 441 1709 441 
Q 2250 441 2565 725 
Q 2881 1009 2881 1497 
Q 2881 1984 2565 2268 
Q 2250 2553 1709 2553 
Q 1456 2553 1204 2497 
Q 953 2441 691 2322 
L 691 4666 
z
" transform="scale(0.015625)"/>
       </defs>
       <use xlink:href="#DejaVuSans-35"/>
      </g>
     </g>
    </g>
    <g id="text_7">
     <!-- Time (ms) -->
     <g transform="translate(175.261562 314.026062) scale(0.2 -0.2)">
      <defs>
       <path id="DejaVuSans-54" d="M -19 4666 
L 3928 4666 
L 3928 4134 
L 2272 4134 
L 2272 0 
L 1638 0 
L 1638 4134 
L -19 4134 
L -19 4666 
z
" transform="scale(0.015625)"/>
       <path id="DejaVuSans-69" d="M 603 3500 
L 1178 3500 
L 1178 0 
L 603 0 
L 603 3500 
z
M 603 4863 
L 1178 4863 
L 1178 4134 
L 603 4134 
L 603 4863 
z
" transform="scale(0.015625)"/>
       <path id="DejaVuSans-6d" d="M 3328 2828 
Q 3544 3216 3844 3400 
Q 4144 3584 4550 3584 
Q 5097 3584 5394 3201 
Q 5691 2819 5691 2113 
L 5691 0 
L 5113 0 
L 5113 2094 
Q 5113 2597 4934 2840 
Q 4756 3084 4391 3084 
Q 3944 3084 3684 2787 
Q 3425 2491 3425 1978 
L 3425 0 
L 2847 0 
L 2847 2094 
Q 2847 2600 2669 2842 
Q 2491 3084 2119 3084 
Q 1678 3084 1418 2786 
Q 1159 2488 1159 1978 
L 1159 0 
L 581 0 
L 581 3500 
L 1159 3500 
L 1159 2956 
Q 1356 3278 1631 3431 
Q 1906 3584 2284 3584 
Q 2666 3584 2933 3390 
Q 3200 3197 3328 2828 
z
" transform="scale(0.015625)"/>
       <path id="DejaVuSans-65" d="M 3597 1894 
L 3597 1613 
L 953 1613 
Q 991 1019 1311 708 
Q 1631 397 2203 397 
Q 2534 397 2845 478 
Q 3156 559 3463 722 
L 3463 178 
Q 3153 47 2828 -22 
Q 2503 -91 2169 -91 
Q 1331 -91 842 396 
Q 353 884 353 1716 
Q 353 2575 817 3079 
Q 1281 3584 2069 3584 
Q 2775 3584 3186 3129 
Q 3597 2675 3597 1894 
z
M 3022 2063 
Q 3016 2534 2758 2815 
Q 2500 3097 2075 3097 
Q 1594 3097 1305 2825 
Q 1016 2553 972 2059 
L 3022 2063 
z
" transform="scale(0.015625)"/>
       <path id="DejaVuSans-20" transform="scale(0.015625)"/>
       <path id="DejaVuSans-28" d="M 1984 4856 
Q 1566 4138 1362 3434 
Q 1159 2731 1159 2009 
Q 1159 1288 1364 580 
Q 1569 -128 1984 -844 
L 1484 -844 
Q 1016 -109 783 600 
Q 550 1309 550 2009 
Q 550 2706 781 3412 
Q 1013 4119 1484 4856 
L 1984 4856 
z
" transform="scale(0.015625)"/>
       <path id="DejaVuSans-73" d="M 2834 3397 
L 2834 2853 
Q 2591 2978 2328 3040 
Q 2066 3103 1784 3103 
Q 1356 3103 1142 2972 
Q 928 2841 928 2578 
Q 928 2378 1081 2264 
Q 1234 2150 1697 2047 
L 1894 2003 
Q 2506 1872 2764 1633 
Q 3022 1394 3022 966 
Q 3022 478 2636 193 
Q 2250 -91 1575 -91 
Q 1294 -91 989 -36 
Q 684 19 347 128 
L 347 722 
Q 666 556 975 473 
Q 1284 391 1588 391 
Q 1994 391 2212 530 
Q 2431 669 2431 922 
Q 2431 1156 2273 1281 
Q 2116 1406 1581 1522 
L 1381 1569 
Q 847 1681 609 1914 
Q 372 2147 372 2553 
Q 372 3047 722 3315 
Q 1072 3584 1716 3584 
Q 2034 3584 2315 3537 
Q 2597 3491 2834 3397 
z
" transform="scale(0.015625)"/>
       <path id="DejaVuSans-29" d="M 513 4856 
L 1013 4856 
Q 1481 4119 1714 3412 
Q 1947 2706 1947 2009 
Q 1947 1309 1714 600 
Q 1481 -109 1013 -844 
L 513 -844 
Q 928 -128 1133 580 
Q 1338 1288 1338 2009 
Q 1338 2731 1133 3434 
Q 928 4138 513 4856 
z
" transform="scale(0.015625)"/>
      </defs>
      <use xlink:href="#DejaVuSans-54"/>
      <use xlink:href="#DejaVuSans-69" transform="translate(57.958984 0)"/>
      <use xlink:href="#DejaVuSans-6d" transform="translate(85.742188 0)"/>
      <use xlink:href="#DejaVuSans-65" transform="translate(183.154297 0)"/>
      <use xlink:href="#DejaVuSans-20" transform="translate(244.677734 0)"/>
      <use xlink:href="#DejaVuSans-28" transform="translate(276.464844 0)"/>
      <use xlink:href="#DejaVuSans-6d" transform="translate(315.478516 0)"/>
      <use xlink:href="#DejaVuSans-73" transform="translate(412.890625 0)"/>
      <use xlink:href="#DejaVuSans-29" transform="translate(464.990234 0)"/>
     </g>
    </g>
   </g>
   <g id="matplotlib.axis_2">
    <g id="ytick_1">
     <g id="line2d_13">
      <path d="M 47.1 261.216 
L 404.22 261.216 
" clip-path="url(#p16bff08ead)" style="fill: none; stroke: #b0b0b0; stroke-width: 0.8; stroke-linecap: square"/>
     </g>
     <g id="line2d_14">
      <defs>
       <path id="m6f3f5b6aff" d="M 0 0 
L -3.5 0 
" style="stroke: #000000; stroke-width: 0.8"/>
      </defs>
      <g>
       <use xlink:href="#m6f3f5b6aff" x="47.1" y="261.216" style="stroke: #000000; stroke-width: 0.8"/>
      </g>
     </g>
     <g id="text_8">
      <!-- 0 -->
      <g transform="translate(30.55625 266.914828) scale(0.15 -0.15)">
       <use xlink:href="#DejaVuSans-30"/>
      </g>
     </g>
    </g>
    <g id="ytick_2">
     <g id="line2d_15">
      <path d="M 47.1 214.108731 
L 404.22 214.108731 
" clip-path="url(#p16bff08ead)" style="fill: none; stroke: #b0b0b0; stroke-width: 0.8; stroke-linecap: square"/>
     </g>
     <g id="line2d_16">
      <g>
       <use xlink:href="#m6f3f5b6aff" x="47.1" y="214.108731" style="stroke: #000000; stroke-width: 0.8"/>
      </g>
     </g>
     <g id="text_9">
      <!-- 1 -->
      <g transform="translate(30.55625 219.807559) scale(0.15 -0.15)">
       <use xlink:href="#DejaVuSans-31"/>
      </g>
     </g>
    </g>
    <g id="ytick_3">
     <g id="line2d_17">
      <path d="M 47.1 167.001462 
L 404.22 167.001462 
" clip-path="url(#p16bff08ead)" style="fill: none; stroke: #b0b0b0; stroke-width: 0.8; stroke-linecap: square"/>
     </g>
     <g id="line2d_18">
      <g>
       <use xlink:href="#m6f3f5b6aff" x="47.1" y="167.001462" style="stroke: #000000; stroke-width: 0.8"/>
      </g>
     </g>
     <g id="text_10">
      <!-- 2 -->
      <g transform="translate(30.55625 172.70029) scale(0.15 -0.15)">
       <use xlink:href="#DejaVuSans-32"/>
      </g>
     </g>
    </g>
    <g id="ytick_4">
     <g id="line2d_19">
      <path d="M 47.1 119.894193 
L 404.22 119.894193 
" clip-path="url(#p16bff08ead)" style="fill: none; stroke: #b0b0b0; stroke-width: 0.8; stroke-linecap: square"/>
     </g>
     <g id="line2d_20">
      <g>
       <use xlink:href="#m6f3f5b6aff" x="47.1" y="119.894193" style="stroke: #000000; stroke-width: 0.8"/>
      </g>
     </g>
     <g id="text_11">
      <!-- 3 -->
      <g transform="translate(30.55625 125.593021) scale(0.15 -0.15)">
       <use xlink:href="#DejaVuSans-33"/>
      </g>
     </g>
    </g>
    <g id="ytick_5">
     <g id="line2d_21">
      <path d="M 47.1 72.786924 
L 404.22 72.786924 
" clip-path="url(#p16bff08ead)" style="fill: none; stroke: #b0b0b0; stroke-width: 0.8; stroke-linecap: square"/>
     </g>
     <g id="line2d_22">
      <g>
       <use xlink:href="#m6f3f5b6aff" x="47.1" y="72.786924" style="stroke: #000000; stroke-width: 0.8"/>
      </g>
     </g>
     <g id="text_12">
      <!-- 4 -->
      <g transform="translate(30.55625 78.485752) scale(0.15 -0.15)">
       <use xlink:href="#DejaVuSans-34"/>
      </g>
     </g>
    </g>
    <g id="ytick_6">
     <g id="line2d_23">
      <path d="M 47.1 25.679655 
L 404.22 25.679655 
" clip-path="url(#p16bff08ead)" style="fill: none; stroke: #b0b0b0; stroke-width: 0.8; stroke-linecap: square"/>
     </g>
     <g id="line2d_24">
      <g>
       <use xlink:href="#m6f3f5b6aff" x="47.1" y="25.679655" style="stroke: #000000; stroke-width: 0.8"/>
      </g>
     </g>
     <g id="text_13">
      <!-- 5 -->
      <g transform="translate(30.55625 31.378483) scale(0.15 -0.15)">
       <use xlink:href="#DejaVuSans-35"/>
      </g>
     </g>
    </g>
    <g id="text_14">
     <!-- Probability (%) -->
     <g transform="translate(22.396875 213.596625) rotate(-90) scale(0.2 -0.2)">
      <defs>
       <path id="DejaVuSans-50" d="M 1259 4147 
L 1259 2394 
L 2053 2394 
Q 2494 2394 2734 2622 
Q 2975 2850 2975 3272 
Q 2975 3691 2734 3919 
Q 2494 4147 2053 4147 
L 1259 4147 
z
M 628 4666 
L 2053 4666 
Q 2838 4666 3239 4311 
Q 3641 3956 3641 3272 
Q 3641 2581 3239 2228 
Q 2838 1875 2053 1875 
L 1259 1875 
L 1259 0 
L 628 0 
L 628 4666 
z
" transform="scale(0.015625)"/>
       <path id="DejaVuSans-72" d="M 2631 2963 
Q 2534 3019 2420 3045 
Q 2306 3072 2169 3072 
Q 1681 3072 1420 2755 
Q 1159 2438 1159 1844 
L 1159 0 
L 581 0 
L 581 3500 
L 1159 3500 
L 1159 2956 
Q 1341 3275 1631 3429 
Q 1922 3584 2338 3584 
Q 2397 3584 2469 3576 
Q 2541 3569 2628 3553 
L 2631 2963 
z
" transform="scale(0.015625)"/>
       <path id="DejaVuSans-6f" d="M 1959 3097 
Q 1497 3097 1228 2736 
Q 959 2375 959 1747 
Q 959 1119 1226 758 
Q 1494 397 1959 397 
Q 2419 397 2687 759 
Q 2956 1122 2956 1747 
Q 2956 2369 2687 2733 
Q 2419 3097 1959 3097 
z
M 1959 3584 
Q 2709 3584 3137 3096 
Q 3566 2609 3566 1747 
Q 3566 888 3137 398 
Q 2709 -91 1959 -91 
Q 1206 -91 779 398 
Q 353 888 353 1747 
Q 353 2609 779 3096 
Q 1206 3584 1959 3584 
z
" transform="scale(0.015625)"/>
       <path id="DejaVuSans-62" d="M 3116 1747 
Q 3116 2381 2855 2742 
Q 2594 3103 2138 3103 
Q 1681 3103 1420 2742 
Q 1159 2381 1159 1747 
Q 1159 1113 1420 752 
Q 1681 391 2138 391 
Q 2594 391 2855 752 
Q 3116 1113 3116 1747 
z
M 1159 2969 
Q 1341 3281 1617 3432 
Q 1894 3584 2278 3584 
Q 2916 3584 3314 3078 
Q 3713 2572 3713 1747 
Q 3713 922 3314 415 
Q 2916 -91 2278 -91 
Q 1894 -91 1617 61 
Q 1341 213 1159 525 
L 1159 0 
L 581 0 
L 581 4863 
L 1159 4863 
L 1159 2969 
z
" transform="scale(0.015625)"/>
       <path id="DejaVuSans-61" d="M 2194 1759 
Q 1497 1759 1228 1600 
Q 959 1441 959 1056 
Q 959 750 1161 570 
Q 1363 391 1709 391 
Q 2188 391 2477 730 
Q 2766 1069 2766 1631 
L 2766 1759 
L 2194 1759 
z
M 3341 1997 
L 3341 0 
L 2766 0 
L 2766 531 
Q 2569 213 2275 61 
Q 1981 -91 1556 -91 
Q 1019 -91 701 211 
Q 384 513 384 1019 
Q 384 1609 779 1909 
Q 1175 2209 1959 2209 
L 2766 2209 
L 2766 2266 
Q 2766 2663 2505 2880 
Q 2244 3097 1772 3097 
Q 1472 3097 1187 3025 
Q 903 2953 641 2809 
L 641 3341 
Q 956 3463 1253 3523 
Q 1550 3584 1831 3584 
Q 2591 3584 2966 3190 
Q 3341 2797 3341 1997 
z
" transform="scale(0.015625)"/>
       <path id="DejaVuSans-6c" d="M 603 4863 
L 1178 4863 
L 1178 0 
L 603 0 
L 603 4863 
z
" transform="scale(0.015625)"/>
       <path id="DejaVuSans-74" d="M 1172 4494 
L 1172 3500 
L 2356 3500 
L 2356 3053 
L 1172 3053 
L 1172 1153 
Q 1172 725 1289 603 
Q 1406 481 1766 481 
L 2356 481 
L 2356 0 
L 1766 0 
Q 1100 0 847 248 
Q 594 497 594 1153 
L 594 3053 
L 172 3053 
L 172 3500 
L 594 3500 
L 594 4494 
L 1172 4494 
z
" transform="scale(0.015625)"/>
       <path id="DejaVuSans-79" d="M 2059 -325 
Q 1816 -950 1584 -1140 
Q 1353 -1331 966 -1331 
L 506 -1331 
L 506 -850 
L 844 -850 
Q 1081 -850 1212 -737 
Q 1344 -625 1503 -206 
L 1606 56 
L 191 3500 
L 800 3500 
L 1894 763 
L 2988 3500 
L 3597 3500 
L 2059 -325 
z
" transform="scale(0.015625)"/>
       <path id="DejaVuSans-25" d="M 4653 2053 
Q 4381 2053 4226 1822 
Q 4072 1591 4072 1178 
Q 4072 772 4226 539 
Q 4381 306 4653 306 
Q 4919 306 5073 539 
Q 5228 772 5228 1178 
Q 5228 1588 5073 1820 
Q 4919 2053 4653 2053 
z
M 4653 2450 
Q 5147 2450 5437 2106 
Q 5728 1763 5728 1178 
Q 5728 594 5436 251 
Q 5144 -91 4653 -91 
Q 4153 -91 3862 251 
Q 3572 594 3572 1178 
Q 3572 1766 3864 2108 
Q 4156 2450 4653 2450 
z
M 1428 4353 
Q 1159 4353 1004 4120 
Q 850 3888 850 3481 
Q 850 3069 1003 2837 
Q 1156 2606 1428 2606 
Q 1700 2606 1854 2837 
Q 2009 3069 2009 3481 
Q 2009 3884 1853 4118 
Q 1697 4353 1428 4353 
z
M 4250 4750 
L 4750 4750 
L 1831 -91 
L 1331 -91 
L 4250 4750 
z
M 1428 4750 
Q 1922 4750 2215 4408 
Q 2509 4066 2509 3481 
Q 2509 2891 2217 2550 
Q 1925 2209 1428 2209 
Q 931 2209 642 2551 
Q 353 2894 353 3481 
Q 353 4063 643 4406 
Q 934 4750 1428 4750 
z
" transform="scale(0.015625)"/>
      </defs>
      <use xlink:href="#DejaVuSans-50"/>
      <use xlink:href="#DejaVuSans-72" transform="translate(58.552734 0)"/>
      <use xlink:href="#DejaVuSans-6f" transform="translate(97.416016 0)"/>
      <use xlink:href="#DejaVuSans-62" transform="translate(158.597656 0)"/>
      <use xlink:href="#DejaVuSans-61" transform="translate(222.074219 0)"/>
      <use xlink:href="#DejaVuSans-62" transform="translate(283.353516 0)"/>
      <use xlink:href="#DejaVuSans-69" transform="translate(346.830078 0)"/>
      <use xlink:href="#DejaVuSans-6c" transform="translate(374.613281 0)"/>
      <use xlink:href="#DejaVuSans-69" transform="translate(402.396484 0)"/>
      <use xlink:href="#DejaVuSans-74" transform="translate(430.179688 0)"/>
      <use xlink:href="#DejaVuSans-79" transform="translate(469.388672 0)"/>
      <use xlink:href="#DejaVuSans-20" transform="translate(528.568359 0)"/>
      <use xlink:href="#DejaVuSans-28" transform="translate(560.355469 0)"/>
      <use xlink:href="#DejaVuSans-25" transform="translate(599.369141 0)"/>
      <use xlink:href="#DejaVuSans-29" transform="translate(694.388672 0)"/>
     </g>
    </g>
   </g>
   <g id="line2d_25">
    <path d="M 63.332727 261.216 
L 116.429978 261.104892 
L 144.989839 260.810363 
L 169.830781 260.342672 
L 194.428233 259.663576 
L 242.063171 258.024273 
L 282.831665 256.696379 
L 318.168689 255.519157 
L 350.182874 254.162078 
L 387.057137 252.224618 
L 387.987273 252.175313 
L 387.987273 252.175313 
" clip-path="url(#p16bff08ead)" style="fill: none; stroke: #1f77b4; stroke-width: 1.5; stroke-linecap: square"/>
   </g>
   <g id="line2d_26">
    <path d="M 63.332727 261.216 
L 115.374851 261.104895 
L 141.095607 260.820185 
L 166.02096 260.31357 
L 188.219215 259.630145 
L 228.614356 258.043673 
L 252.452116 257.233257 
L 283.083273 256.454916 
L 308.755331 255.993826 
L 340.20624 255.553446 
L 387.987273 254.811217 
L 387.987273 254.811217 
" clip-path="url(#p16bff08ead)" style="fill: none; stroke: #ff7f0e; stroke-width: 1.5; stroke-linecap: square"/>
   </g>
   <g id="line2d_27">
    <path d="M 63.332727 261.216 
L 116.681585 261.104889 
L 144.68304 260.807924 
L 170.330749 260.269373 
L 203.404931 259.290368 
L 281.362604 256.791483 
L 310.581513 256.049373 
L 362.566822 255.009003 
L 387.987273 254.552531 
L 387.987273 254.552531 
" clip-path="url(#p16bff08ead)" style="fill: none; stroke: #2ca02c; stroke-width: 1.5; stroke-linecap: square"/>
   </g>
   <g id="line2d_28">
    <path d="M 63.332727 261.216 
L 118.329207 261.104913 
L 151.224829 260.817261 
L 183.284465 260.334329 
L 232.8024 259.393449 
L 257.386865 258.974581 
L 309.453338 258.28482 
L 346.894124 258.017064 
L 374.278735 257.906818 
L 387.987273 257.828418 
L 387.987273 257.828418 
" clip-path="url(#p16bff08ead)" style="fill: none; stroke: #d62728; stroke-width: 1.5; stroke-linecap: square"/>
   </g>
   <g id="line2d_29">
    <path d="M 63.332727 261.216 
L 111.316669 261.104917 
L 136.20144 260.805267 
L 158.837978 260.298354 
L 181.588145 259.542069 
L 201.538167 258.691197 
L 273.035215 255.366703 
L 311.425615 253.84471 
L 355.960102 251.857952 
L 373.629425 250.821097 
L 387.987273 249.812962 
L 387.987273 249.812962 
" clip-path="url(#p16bff08ead)" style="fill: none; stroke: #9467bd; stroke-width: 1.5; stroke-linecap: square"/>
   </g>
   <g id="LineCollection_1">
    <path d="M 63.332727 261.216 
L 63.332727 230.019133 
" clip-path="url(#p16bff08ead)" style="fill: none; stroke: #8c564b; stroke-width: 1.5"/>
    <path d="M 80.419809 261.216 
L 80.419809 230.019133 
" clip-path="url(#p16bff08ead)" style="fill: none; stroke: #8c564b; stroke-width: 1.5"/>
    <path d="M 97.50689 261.216 
L 97.50689 230.019133 
" clip-path="url(#p16bff08ead)" style="fill: none; stroke: #8c564b; stroke-width: 1.5"/>
    <path d="M 114.593971 261.216 
L 114.593971 230.019133 
" clip-path="url(#p16bff08ead)" style="fill: none; stroke: #8c564b; stroke-width: 1.5"/>
    <path d="M 131.681053 159.970464 
L 131.681053 19.296 
" clip-path="url(#p16bff08ead)" style="fill: none; stroke: #8c564b; stroke-width: 1.5"/>
    <path d="M 148.768134 249.206722 
L 148.768134 179.634678 
" clip-path="url(#p16bff08ead)" style="fill: none; stroke: #8c564b; stroke-width: 1.5"/>
    <path d="M 165.855215 249.206722 
L 165.855215 179.634678 
" clip-path="url(#p16bff08ead)" style="fill: none; stroke: #8c564b; stroke-width: 1.5"/>
    <path d="M 182.942297 249.206722 
L 182.942297 179.634678 
" clip-path="url(#p16bff08ead)" style="fill: none; stroke: #8c564b; stroke-width: 1.5"/>
    <path d="M 200.029378 229.741001 
L 200.029378 136.706665 
" clip-path="url(#p16bff08ead)" style="fill: none; stroke: #8c564b; stroke-width: 1.5"/>
    <path d="M 217.116459 229.741001 
L 217.116459 136.706665 
" clip-path="url(#p16bff08ead)" style="fill: none; stroke: #8c564b; stroke-width: 1.5"/>
    <path d="M 234.203541 184.331882 
L 234.203541 57.328316 
" clip-path="url(#p16bff08ead)" style="fill: none; stroke: #8c564b; stroke-width: 1.5"/>
    <path d="M 251.290622 249.206722 
L 251.290622 179.634678 
" clip-path="url(#p16bff08ead)" style="fill: none; stroke: #8c564b; stroke-width: 1.5"/>
    <path d="M 268.377703 249.206722 
L 268.377703 179.634678 
" clip-path="url(#p16bff08ead)" style="fill: none; stroke: #8c564b; stroke-width: 1.5"/>
    <path d="M 285.464785 249.206722 
L 285.464785 179.634678 
" clip-path="url(#p16bff08ead)" style="fill: none; stroke: #8c564b; stroke-width: 1.5"/>
    <path d="M 302.551866 207.746352 
L 302.551866 96.30758 
" clip-path="url(#p16bff08ead)" style="fill: none; stroke: #8c564b; stroke-width: 1.5"/>
    <path d="M 319.638947 249.206722 
L 319.638947 179.634678 
" clip-path="url(#p16bff08ead)" style="fill: none; stroke: #8c564b; stroke-width: 1.5"/>
    <path d="M 336.726029 249.206722 
L 336.726029 179.634678 
" clip-path="url(#p16bff08ead)" style="fill: none; stroke: #8c564b; stroke-width: 1.5"/>
    <path d="M 353.81311 159.970464 
L 353.81311 19.296 
" clip-path="url(#p16bff08ead)" style="fill: none; stroke: #8c564b; stroke-width: 1.5"/>
    <path d="M 370.900191 159.970464 
L 370.900191 19.296 
" clip-path="url(#p16bff08ead)" style="fill: none; stroke: #8c564b; stroke-width: 1.5"/>
    <path d="M 387.987273 229.741001 
L 387.987273 136.706665 
" clip-path="url(#p16bff08ead)" style="fill: none; stroke: #8c564b; stroke-width: 1.5"/>
   </g>
   <g id="line2d_30">
    <defs>
     <path id="mc8bf80d0e1" d="M 0 3 
C 0.795609 3 1.55874 2.683901 2.12132 2.12132 
C 2.683901 1.55874 3 0.795609 3 0 
C 3 -0.795609 2.683901 -1.55874 2.12132 -2.12132 
C 1.55874 -2.683901 0.795609 -3 0 -3 
C -0.795609 -3 -1.55874 -2.683901 -2.12132 -2.12132 
C -2.683901 -1.55874 -3 -0.795609 -3 0 
C -3 0.795609 -2.683901 1.55874 -2.12132 2.12132 
C -1.55874 2.683901 -0.795609 3 0 3 
z
" style="stroke: #8c564b"/>
    </defs>
    <g clip-path="url(#p16bff08ead)">
     <use xlink:href="#mc8bf80d0e1" x="63.332727" y="245.617567" style="fill: #8c564b; stroke: #8c564b"/>
     <use xlink:href="#mc8bf80d0e1" x="80.419809" y="245.617567" style="fill: #8c564b; stroke: #8c564b"/>
     <use xlink:href="#mc8bf80d0e1" x="97.50689" y="245.617567" style="fill: #8c564b; stroke: #8c564b"/>
     <use xlink:href="#mc8bf80d0e1" x="114.593971" y="245.617567" style="fill: #8c564b; stroke: #8c564b"/>
     <use xlink:href="#mc8bf80d0e1" x="131.681053" y="89.633232" style="fill: #8c564b; stroke: #8c564b"/>
     <use xlink:href="#mc8bf80d0e1" x="148.768134" y="214.4207" style="fill: #8c564b; stroke: #8c564b"/>
     <use xlink:href="#mc8bf80d0e1" x="165.855215" y="214.4207" style="fill: #8c564b; stroke: #8c564b"/>
     <use xlink:href="#mc8bf80d0e1" x="182.942297" y="214.4207" style="fill: #8c564b; stroke: #8c564b"/>
     <use xlink:href="#mc8bf80d0e1" x="200.029378" y="183.223833" style="fill: #8c564b; stroke: #8c564b"/>
     <use xlink:href="#mc8bf80d0e1" x="217.116459" y="183.223833" style="fill: #8c564b; stroke: #8c564b"/>
     <use xlink:href="#mc8bf80d0e1" x="234.203541" y="120.830099" style="fill: #8c564b; stroke: #8c564b"/>
     <use xlink:href="#mc8bf80d0e1" x="251.290622" y="214.4207" style="fill: #8c564b; stroke: #8c564b"/>
     <use xlink:href="#mc8bf80d0e1" x="268.377703" y="214.4207" style="fill: #8c564b; stroke: #8c564b"/>
     <use xlink:href="#mc8bf80d0e1" x="285.464785" y="214.4207" style="fill: #8c564b; stroke: #8c564b"/>
     <use xlink:href="#mc8bf80d0e1" x="302.551866" y="152.026966" style="fill: #8c564b; stroke: #8c564b"/>
     <use xlink:href="#mc8bf80d0e1" x="319.638947" y="214.4207" style="fill: #8c564b; stroke: #8c564b"/>
     <use xlink:href="#mc8bf80d0e1" x="336.726029" y="214.4207" style="fill: #8c564b; stroke: #8c564b"/>
     <use xlink:href="#mc8bf80d0e1" x="353.81311" y="89.633232" style="fill: #8c564b; stroke: #8c564b"/>
     <use xlink:href="#mc8bf80d0e1" x="370.900191" y="89.633232" style="fill: #8c564b; stroke: #8c564b"/>
     <use xlink:href="#mc8bf80d0e1" x="387.987273" y="183.223833" style="fill: #8c564b; stroke: #8c564b"/>
    </g>
   </g>
   <g id="patch_3">
    <path d="M 47.1 273.312 
L 47.1 7.2 
" style="fill: none; stroke: #000000; stroke-width: 0.8; stroke-linejoin: miter; stroke-linecap: square"/>
   </g>
   <g id="patch_4">
    <path d="M 404.22 273.312 
L 404.22 7.2 
" style="fill: none; stroke: #000000; stroke-width: 0.8; stroke-linejoin: miter; stroke-linecap: square"/>
   </g>
   <g id="patch_5">
    <path d="M 47.1 273.312 
L 404.22 273.312 
" style="fill: none; stroke: #000000; stroke-width: 0.8; stroke-linejoin: miter; stroke-linecap: square"/>
   </g>
   <g id="patch_6">
    <path d="M 47.1 7.2 
L 404.22 7.2 
" style="fill: none; stroke: #000000; stroke-width: 0.8; stroke-linejoin: miter; stroke-linecap: square"/>
   </g>
   <g id="legend_1">
    <g id="patch_7">
     <path d="M 112.412187 59.234375 
L 397.22 59.234375 
Q 399.22 59.234375 399.22 57.234375 
L 399.22 14.2 
Q 399.22 12.2 397.22 12.2 
L 112.412187 12.2 
Q 110.412187 12.2 110.412187 14.2 
L 110.412187 57.234375 
Q 110.412187 59.234375 112.412187 59.234375 
z
" style="fill: #ffffff; opacity: 0.8; stroke: #cccccc; stroke-linejoin: miter"/>
    </g>
    <g id="line2d_31">
     <path d="M 114.412187 20.298437 
L 124.412187 20.298437 
L 134.412187 20.298437 
" style="fill: none; stroke: #1f77b4; stroke-width: 1.5; stroke-linecap: square"/>
    </g>
    <g id="text_15">
     <!-- Upstream -->
     <g transform="translate(142.412187 23.798437) scale(0.1 -0.1)">
      <defs>
       <path id="DejaVuSans-55" d="M 556 4666 
L 1191 4666 
L 1191 1831 
Q 1191 1081 1462 751 
Q 1734 422 2344 422 
Q 2950 422 3222 751 
Q 3494 1081 3494 1831 
L 3494 4666 
L 4128 4666 
L 4128 1753 
Q 4128 841 3676 375 
Q 3225 -91 2344 -91 
Q 1459 -91 1007 375 
Q 556 841 556 1753 
L 556 4666 
z
" transform="scale(0.015625)"/>
       <path id="DejaVuSans-70" d="M 1159 525 
L 1159 -1331 
L 581 -1331 
L 581 3500 
L 1159 3500 
L 1159 2969 
Q 1341 3281 1617 3432 
Q 1894 3584 2278 3584 
Q 2916 3584 3314 3078 
Q 3713 2572 3713 1747 
Q 3713 922 3314 415 
Q 2916 -91 2278 -91 
Q 1894 -91 1617 61 
Q 1341 213 1159 525 
z
M 3116 1747 
Q 3116 2381 2855 2742 
Q 2594 3103 2138 3103 
Q 1681 3103 1420 2742 
Q 1159 2381 1159 1747 
Q 1159 1113 1420 752 
Q 1681 391 2138 391 
Q 2594 391 2855 752 
Q 3116 1113 3116 1747 
z
" transform="scale(0.015625)"/>
      </defs>
      <use xlink:href="#DejaVuSans-55"/>
      <use xlink:href="#DejaVuSans-70" transform="translate(73.193359 0)"/>
      <use xlink:href="#DejaVuSans-73" transform="translate(136.669922 0)"/>
      <use xlink:href="#DejaVuSans-74" transform="translate(188.769531 0)"/>
      <use xlink:href="#DejaVuSans-72" transform="translate(227.978516 0)"/>
      <use xlink:href="#DejaVuSans-65" transform="translate(266.841797 0)"/>
      <use xlink:href="#DejaVuSans-61" transform="translate(328.365234 0)"/>
      <use xlink:href="#DejaVuSans-6d" transform="translate(389.644531 0)"/>
     </g>
    </g>
    <g id="line2d_32">
     <path d="M 114.412187 34.976562 
L 124.412187 34.976562 
L 134.412187 34.976562 
" style="fill: none; stroke: #ff7f0e; stroke-width: 1.5; stroke-linecap: square"/>
    </g>
    <g id="text_16">
     <!-- Fixed AOM -->
     <g transform="translate(142.412187 38.476562) scale(0.1 -0.1)">
      <defs>
       <path id="DejaVuSans-46" d="M 628 4666 
L 3309 4666 
L 3309 4134 
L 1259 4134 
L 1259 2759 
L 3109 2759 
L 3109 2228 
L 1259 2228 
L 1259 0 
L 628 0 
L 628 4666 
z
" transform="scale(0.015625)"/>
       <path id="DejaVuSans-78" d="M 3513 3500 
L 2247 1797 
L 3578 0 
L 2900 0 
L 1881 1375 
L 863 0 
L 184 0 
L 1544 1831 
L 300 3500 
L 978 3500 
L 1906 2253 
L 2834 3500 
L 3513 3500 
z
" transform="scale(0.015625)"/>
       <path id="DejaVuSans-64" d="M 2906 2969 
L 2906 4863 
L 3481 4863 
L 3481 0 
L 2906 0 
L 2906 525 
Q 2725 213 2448 61 
Q 2172 -91 1784 -91 
Q 1150 -91 751 415 
Q 353 922 353 1747 
Q 353 2572 751 3078 
Q 1150 3584 1784 3584 
Q 2172 3584 2448 3432 
Q 2725 3281 2906 2969 
z
M 947 1747 
Q 947 1113 1208 752 
Q 1469 391 1925 391 
Q 2381 391 2643 752 
Q 2906 1113 2906 1747 
Q 2906 2381 2643 2742 
Q 2381 3103 1925 3103 
Q 1469 3103 1208 2742 
Q 947 2381 947 1747 
z
" transform="scale(0.015625)"/>
       <path id="DejaVuSans-41" d="M 2188 4044 
L 1331 1722 
L 3047 1722 
L 2188 4044 
z
M 1831 4666 
L 2547 4666 
L 4325 0 
L 3669 0 
L 3244 1197 
L 1141 1197 
L 716 0 
L 50 0 
L 1831 4666 
z
" transform="scale(0.015625)"/>
       <path id="DejaVuSans-4f" d="M 2522 4238 
Q 1834 4238 1429 3725 
Q 1025 3213 1025 2328 
Q 1025 1447 1429 934 
Q 1834 422 2522 422 
Q 3209 422 3611 934 
Q 4013 1447 4013 2328 
Q 4013 3213 3611 3725 
Q 3209 4238 2522 4238 
z
M 2522 4750 
Q 3503 4750 4090 4092 
Q 4678 3434 4678 2328 
Q 4678 1225 4090 567 
Q 3503 -91 2522 -91 
Q 1538 -91 948 565 
Q 359 1222 359 2328 
Q 359 3434 948 4092 
Q 1538 4750 2522 4750 
z
" transform="scale(0.015625)"/>
       <path id="DejaVuSans-4d" d="M 628 4666 
L 1569 4666 
L 2759 1491 
L 3956 4666 
L 4897 4666 
L 4897 0 
L 4281 0 
L 4281 4097 
L 3078 897 
L 2444 897 
L 1241 4097 
L 1241 0 
L 628 0 
L 628 4666 
z
" transform="scale(0.015625)"/>
      </defs>
      <use xlink:href="#DejaVuSans-46"/>
      <use xlink:href="#DejaVuSans-69" transform="translate(50.269531 0)"/>
      <use xlink:href="#DejaVuSans-78" transform="translate(78.052734 0)"/>
      <use xlink:href="#DejaVuSans-65" transform="translate(134.107422 0)"/>
      <use xlink:href="#DejaVuSans-64" transform="translate(195.630859 0)"/>
      <use xlink:href="#DejaVuSans-20" transform="translate(259.107422 0)"/>
      <use xlink:href="#DejaVuSans-41" transform="translate(290.894531 0)"/>
      <use xlink:href="#DejaVuSans-4f" transform="translate(357.552734 0)"/>
      <use xlink:href="#DejaVuSans-4d" transform="translate(436.263672 0)"/>
     </g>
    </g>
    <g id="line2d_33">
     <path d="M 114.412187 49.654687 
L 124.412187 49.654687 
L 134.412187 49.654687 
" style="fill: none; stroke: #2ca02c; stroke-width: 1.5; stroke-linecap: square"/>
    </g>
    <g id="text_17">
     <!-- Fixed AOM (AC) -->
     <g transform="translate(142.412187 53.154687) scale(0.1 -0.1)">
      <defs>
       <path id="DejaVuSans-43" d="M 4122 4306 
L 4122 3641 
Q 3803 3938 3442 4084 
Q 3081 4231 2675 4231 
Q 1875 4231 1450 3742 
Q 1025 3253 1025 2328 
Q 1025 1406 1450 917 
Q 1875 428 2675 428 
Q 3081 428 3442 575 
Q 3803 722 4122 1019 
L 4122 359 
Q 3791 134 3420 21 
Q 3050 -91 2638 -91 
Q 1578 -91 968 557 
Q 359 1206 359 2328 
Q 359 3453 968 4101 
Q 1578 4750 2638 4750 
Q 3056 4750 3426 4639 
Q 3797 4528 4122 4306 
z
" transform="scale(0.015625)"/>
      </defs>
      <use xlink:href="#DejaVuSans-46"/>
      <use xlink:href="#DejaVuSans-69" transform="translate(50.269531 0)"/>
      <use xlink:href="#DejaVuSans-78" transform="translate(78.052734 0)"/>
      <use xlink:href="#DejaVuSans-65" transform="translate(134.107422 0)"/>
      <use xlink:href="#DejaVuSans-64" transform="translate(195.630859 0)"/>
      <use xlink:href="#DejaVuSans-20" transform="translate(259.107422 0)"/>
      <use xlink:href="#DejaVuSans-41" transform="translate(290.894531 0)"/>
      <use xlink:href="#DejaVuSans-4f" transform="translate(357.552734 0)"/>
      <use xlink:href="#DejaVuSans-4d" transform="translate(436.263672 0)"/>
      <use xlink:href="#DejaVuSans-20" transform="translate(522.542969 0)"/>
      <use xlink:href="#DejaVuSans-28" transform="translate(554.330078 0)"/>
      <use xlink:href="#DejaVuSans-41" transform="translate(593.34375 0)"/>
      <use xlink:href="#DejaVuSans-43" transform="translate(660.001953 0)"/>
      <use xlink:href="#DejaVuSans-29" transform="translate(729.826172 0)"/>
     </g>
    </g>
    <g id="line2d_34">
     <path d="M 239.298125 20.298437 
L 249.298125 20.298437 
L 259.298125 20.298437 
" style="fill: none; stroke: #d62728; stroke-width: 1.5; stroke-linecap: square"/>
    </g>
    <g id="text_18">
     <!-- FF AOM -->
     <g transform="translate(267.298125 23.798437) scale(0.1 -0.1)">
      <use xlink:href="#DejaVuSans-46"/>
      <use xlink:href="#DejaVuSans-46" transform="translate(57.519531 0)"/>
      <use xlink:href="#DejaVuSans-20" transform="translate(115.039062 0)"/>
      <use xlink:href="#DejaVuSans-41" transform="translate(146.826172 0)"/>
      <use xlink:href="#DejaVuSans-4f" transform="translate(213.484375 0)"/>
      <use xlink:href="#DejaVuSans-4d" transform="translate(292.195312 0)"/>
     </g>
    </g>
    <g id="line2d_35">
     <path d="M 239.298125 34.976562 
L 249.298125 34.976562 
L 259.298125 34.976562 
" style="fill: none; stroke: #9467bd; stroke-width: 1.5; stroke-linecap: square"/>
    </g>
    <g id="text_19">
     <!-- Fixed AOM Cur Mode (AC) -->
     <g transform="translate(267.298125 38.476562) scale(0.1 -0.1)">
      <defs>
       <path id="DejaVuSans-75" d="M 544 1381 
L 544 3500 
L 1119 3500 
L 1119 1403 
Q 1119 906 1312 657 
Q 1506 409 1894 409 
Q 2359 409 2629 706 
Q 2900 1003 2900 1516 
L 2900 3500 
L 3475 3500 
L 3475 0 
L 2900 0 
L 2900 538 
Q 2691 219 2414 64 
Q 2138 -91 1772 -91 
Q 1169 -91 856 284 
Q 544 659 544 1381 
z
M 1991 3584 
L 1991 3584 
z
" transform="scale(0.015625)"/>
      </defs>
      <use xlink:href="#DejaVuSans-46"/>
      <use xlink:href="#DejaVuSans-69" transform="translate(50.269531 0)"/>
      <use xlink:href="#DejaVuSans-78" transform="translate(78.052734 0)"/>
      <use xlink:href="#DejaVuSans-65" transform="translate(134.107422 0)"/>
      <use xlink:href="#DejaVuSans-64" transform="translate(195.630859 0)"/>
      <use xlink:href="#DejaVuSans-20" transform="translate(259.107422 0)"/>
      <use xlink:href="#DejaVuSans-41" transform="translate(290.894531 0)"/>
      <use xlink:href="#DejaVuSans-4f" transform="translate(357.552734 0)"/>
      <use xlink:href="#DejaVuSans-4d" transform="translate(436.263672 0)"/>
      <use xlink:href="#DejaVuSans-20" transform="translate(522.542969 0)"/>
      <use xlink:href="#DejaVuSans-43" transform="translate(554.330078 0)"/>
      <use xlink:href="#DejaVuSans-75" transform="translate(624.154297 0)"/>
      <use xlink:href="#DejaVuSans-72" transform="translate(687.533203 0)"/>
      <use xlink:href="#DejaVuSans-20" transform="translate(728.646484 0)"/>
      <use xlink:href="#DejaVuSans-4d" transform="translate(760.433594 0)"/>
      <use xlink:href="#DejaVuSans-6f" transform="translate(846.712891 0)"/>
      <use xlink:href="#DejaVuSans-64" transform="translate(907.894531 0)"/>
      <use xlink:href="#DejaVuSans-65" transform="translate(971.371094 0)"/>
      <use xlink:href="#DejaVuSans-20" transform="translate(1032.894531 0)"/>
      <use xlink:href="#DejaVuSans-28" transform="translate(1064.681641 0)"/>
      <use xlink:href="#DejaVuSans-41" transform="translate(1103.695312 0)"/>
      <use xlink:href="#DejaVuSans-43" transform="translate(1170.353516 0)"/>
      <use xlink:href="#DejaVuSans-29" transform="translate(1240.177734 0)"/>
     </g>
    </g>
    <g id="LineCollection_2">
     <path d="M 249.298125 54.654687 
L 249.298125 44.654687 
" style="fill: none; stroke: #8c564b; stroke-width: 1.5"/>
    </g>
    <g id="line2d_36"/>
    <g id="line2d_37">
     <g>
      <use xlink:href="#mc8bf80d0e1" x="249.298125" y="49.654687" style="fill: #8c564b; stroke: #8c564b"/>
     </g>
    </g>
    <g id="text_20">
     <!-- Data -->
     <g transform="translate(267.298125 53.154687) scale(0.1 -0.1)">
      <defs>
       <path id="DejaVuSans-44" d="M 1259 4147 
L 1259 519 
L 2022 519 
Q 2988 519 3436 956 
Q 3884 1394 3884 2338 
Q 3884 3275 3436 3711 
Q 2988 4147 2022 4147 
L 1259 4147 
z
M 628 4666 
L 1925 4666 
Q 3281 4666 3915 4102 
Q 4550 3538 4550 2338 
Q 4550 1131 3912 565 
Q 3275 0 1925 0 
L 628 0 
L 628 4666 
z
" transform="scale(0.015625)"/>
      </defs>
      <use xlink:href="#DejaVuSans-44"/>
      <use xlink:href="#DejaVuSans-61" transform="translate(77.001953 0)"/>
      <use xlink:href="#DejaVuSans-74" transform="translate(138.28125 0)"/>
      <use xlink:href="#DejaVuSans-61" transform="translate(177.490234 0)"/>
     </g>
    </g>
   </g>
  </g>
 </g>
 <defs>
  <clipPath id="p16bff08ead">
   <rect x="47.1" y="7.2" width="357.12" height="266.112"/>
  </clipPath>
 </defs>
</svg>
