<?xml version="1.0" encoding="utf-8" standalone="no"?>
<!DOCTYPE svg PUBLIC "-//W3C//DTD SVG 1.1//EN"
  "http://www.w3.org/Graphics/SVG/1.1/DTD/svg11.dtd">
<svg xmlns:xlink="http://www.w3.org/1999/xlink" width="430.502813pt" height="331.128016pt" viewBox="0 0 430.502813 331.128016" xmlns="http://www.w3.org/2000/svg" version="1.1">
 <defs>
  <style type="text/css">*{stroke-linejoin: round; stroke-linecap: butt}</style>
 </defs>
 <g id="figure_1">
  <g id="patch_1">
   <path d="M 0 331.128016 
L 430.502813 331.128016 
L 430.502813 0 
L 0 0 
L 0 331.128016 
z
" style="fill: none"/>
  </g>
  <g id="axes_1">
   <g id="patch_2">
    <path d="M 61.410938 279.010828 
L 418.530938 279.010828 
L 418.530938 12.898828 
L 61.410938 12.898828 
L 61.410938 279.010828 
z
" style="fill: none"/>
   </g>
   <g id="matplotlib.axis_1">
    <g id="xtick_1">
     <g id="line2d_1">
      <path d="M 101.090938 279.010828 
L 101.090938 12.898828 
" clip-path="url(#pb29c5caca8)" style="fill: none; stroke: #b0b0b0; stroke-width: 0.8; stroke-linecap: square"/>
     </g>
     <g id="line2d_2">
      <defs>
       <path id="md39032bed2" d="M 0 0 
L 0 3.5 
" style="stroke: #000000; stroke-width: 0.8"/>
      </defs>
      <g>
       <use xlink:href="#md39032bed2" x="101.090938" y="279.010828" style="stroke: #000000; stroke-width: 0.8"/>
      </g>
     </g>
     <g id="text_1">
      <!-- 1 -->
      <g transform="translate(96.319063 297.408484)scale(0.15 -0.15)">
       <defs>
        <path id="DejaVuSans-31" d="M 794 531 
L 1825 531 
L 1825 4091 
L 703 3866 
L 703 4441 
L 1819 4666 
L 2450 4666 
L 2450 531 
L 3481 531 
L 3481 0 
L 794 0 
L 794 531 
z
" transform="scale(0.015625)"/>
       </defs>
       <use xlink:href="#DejaVuSans-31"/>
      </g>
     </g>
    </g>
    <g id="xtick_2">
     <g id="line2d_3">
      <path d="M 180.450938 279.010828 
L 180.450938 12.898828 
" clip-path="url(#pb29c5caca8)" style="fill: none; stroke: #b0b0b0; stroke-width: 0.8; stroke-linecap: square"/>
     </g>
     <g id="line2d_4">
      <g>
       <use xlink:href="#md39032bed2" x="180.450938" y="279.010828" style="stroke: #000000; stroke-width: 0.8"/>
      </g>
     </g>
     <g id="text_2">
      <!-- 2 -->
      <g transform="translate(175.679063 297.408484)scale(0.15 -0.15)">
       <defs>
        <path id="DejaVuSans-32" d="M 1228 531 
L 3431 531 
L 3431 0 
L 469 0 
L 469 531 
Q 828 903 1448 1529 
Q 2069 2156 2228 2338 
Q 2531 2678 2651 2914 
Q 2772 3150 2772 3378 
Q 2772 3750 2511 3984 
Q 2250 4219 1831 4219 
Q 1534 4219 1204 4116 
Q 875 4013 500 3803 
L 500 4441 
Q 881 4594 1212 4672 
Q 1544 4750 1819 4750 
Q 2544 4750 2975 4387 
Q 3406 4025 3406 3419 
Q 3406 3131 3298 2873 
Q 3191 2616 2906 2266 
Q 2828 2175 2409 1742 
Q 1991 1309 1228 531 
z
" transform="scale(0.015625)"/>
       </defs>
       <use xlink:href="#DejaVuSans-32"/>
      </g>
     </g>
    </g>
    <g id="xtick_3">
     <g id="line2d_5">
      <path d="M 259.810938 279.010828 
L 259.810938 12.898828 
" clip-path="url(#pb29c5caca8)" style="fill: none; stroke: #b0b0b0; stroke-width: 0.8; stroke-linecap: square"/>
     </g>
     <g id="line2d_6">
      <g>
       <use xlink:href="#md39032bed2" x="259.810938" y="279.010828" style="stroke: #000000; stroke-width: 0.8"/>
      </g>
     </g>
     <g id="text_3">
      <!-- 3 -->
      <g transform="translate(255.039063 297.408484)scale(0.15 -0.15)">
       <defs>
        <path id="DejaVuSans-33" d="M 2597 2516 
Q 3050 2419 3304 2112 
Q 3559 1806 3559 1356 
Q 3559 666 3084 287 
Q 2609 -91 1734 -91 
Q 1441 -91 1130 -33 
Q 819 25 488 141 
L 488 750 
Q 750 597 1062 519 
Q 1375 441 1716 441 
Q 2309 441 2620 675 
Q 2931 909 2931 1356 
Q 2931 1769 2642 2001 
Q 2353 2234 1838 2234 
L 1294 2234 
L 1294 2753 
L 1863 2753 
Q 2328 2753 2575 2939 
Q 2822 3125 2822 3475 
Q 2822 3834 2567 4026 
Q 2313 4219 1838 4219 
Q 1578 4219 1281 4162 
Q 984 4106 628 3988 
L 628 4550 
Q 988 4650 1302 4700 
Q 1616 4750 1894 4750 
Q 2613 4750 3031 4423 
Q 3450 4097 3450 3541 
Q 3450 3153 3228 2886 
Q 3006 2619 2597 2516 
z
" transform="scale(0.015625)"/>
       </defs>
       <use xlink:href="#DejaVuSans-33"/>
      </g>
     </g>
    </g>
    <g id="xtick_4">
     <g id="line2d_7">
      <path d="M 339.170938 279.010828 
L 339.170938 12.898828 
" clip-path="url(#pb29c5caca8)" style="fill: none; stroke: #b0b0b0; stroke-width: 0.8; stroke-linecap: square"/>
     </g>
     <g id="line2d_8">
      <g>
       <use xlink:href="#md39032bed2" x="339.170938" y="279.010828" style="stroke: #000000; stroke-width: 0.8"/>
      </g>
     </g>
     <g id="text_4">
      <!-- 4 -->
      <g transform="translate(334.399063 297.408484)scale(0.15 -0.15)">
       <defs>
        <path id="DejaVuSans-34" d="M 2419 4116 
L 825 1625 
L 2419 1625 
L 2419 4116 
z
M 2253 4666 
L 3047 4666 
L 3047 1625 
L 3713 1625 
L 3713 1100 
L 3047 1100 
L 3047 0 
L 2419 0 
L 2419 1100 
L 313 1100 
L 313 1709 
L 2253 4666 
z
" transform="scale(0.015625)"/>
       </defs>
       <use xlink:href="#DejaVuSans-34"/>
      </g>
     </g>
    </g>
    <g id="xtick_5">
     <g id="line2d_9">
      <path d="M 418.530938 279.010828 
L 418.530938 12.898828 
" clip-path="url(#pb29c5caca8)" style="fill: none; stroke: #b0b0b0; stroke-width: 0.8; stroke-linecap: square"/>
     </g>
     <g id="line2d_10">
      <g>
       <use xlink:href="#md39032bed2" x="418.530938" y="279.010828" style="stroke: #000000; stroke-width: 0.8"/>
      </g>
     </g>
     <g id="text_5">
      <!-- 5 -->
      <g transform="translate(413.759063 297.408484)scale(0.15 -0.15)">
       <defs>
        <path id="DejaVuSans-35" d="M 691 4666 
L 3169 4666 
L 3169 4134 
L 1269 4134 
L 1269 2991 
Q 1406 3038 1543 3061 
Q 1681 3084 1819 3084 
Q 2600 3084 3056 2656 
Q 3513 2228 3513 1497 
Q 3513 744 3044 326 
Q 2575 -91 1722 -91 
Q 1428 -91 1123 -41 
Q 819 9 494 109 
L 494 744 
Q 775 591 1075 516 
Q 1375 441 1709 441 
Q 2250 441 2565 725 
Q 2881 1009 2881 1497 
Q 2881 1984 2565 2268 
Q 2250 2553 1709 2553 
Q 1456 2553 1204 2497 
Q 953 2441 691 2322 
L 691 4666 
z
" transform="scale(0.015625)"/>
       </defs>
       <use xlink:href="#DejaVuSans-35"/>
      </g>
     </g>
    </g>
    <g id="text_6">
     <!-- Pump Time ($\mu s$) -->
     <g transform="translate(160.970938 319.728016)scale(0.2 -0.2)">
      <defs>
       <path id="DejaVuSans-50" d="M 1259 4147 
L 1259 2394 
L 2053 2394 
Q 2494 2394 2734 2622 
Q 2975 2850 2975 3272 
Q 2975 3691 2734 3919 
Q 2494 4147 2053 4147 
L 1259 4147 
z
M 628 4666 
L 2053 4666 
Q 2838 4666 3239 4311 
Q 3641 3956 3641 3272 
Q 3641 2581 3239 2228 
Q 2838 1875 2053 1875 
L 1259 1875 
L 1259 0 
L 628 0 
L 628 4666 
z
" transform="scale(0.015625)"/>
       <path id="DejaVuSans-75" d="M 544 1381 
L 544 3500 
L 1119 3500 
L 1119 1403 
Q 1119 906 1312 657 
Q 1506 409 1894 409 
Q 2359 409 2629 706 
Q 2900 1003 2900 1516 
L 2900 3500 
L 3475 3500 
L 3475 0 
L 2900 0 
L 2900 538 
Q 2691 219 2414 64 
Q 2138 -91 1772 -91 
Q 1169 -91 856 284 
Q 544 659 544 1381 
z
M 1991 3584 
L 1991 3584 
z
" transform="scale(0.015625)"/>
       <path id="DejaVuSans-6d" d="M 3328 2828 
Q 3544 3216 3844 3400 
Q 4144 3584 4550 3584 
Q 5097 3584 5394 3201 
Q 5691 2819 5691 2113 
L 5691 0 
L 5113 0 
L 5113 2094 
Q 5113 2597 4934 2840 
Q 4756 3084 4391 3084 
Q 3944 3084 3684 2787 
Q 3425 2491 3425 1978 
L 3425 0 
L 2847 0 
L 2847 2094 
Q 2847 2600 2669 2842 
Q 2491 3084 2119 3084 
Q 1678 3084 1418 2786 
Q 1159 2488 1159 1978 
L 1159 0 
L 581 0 
L 581 3500 
L 1159 3500 
L 1159 2956 
Q 1356 3278 1631 3431 
Q 1906 3584 2284 3584 
Q 2666 3584 2933 3390 
Q 3200 3197 3328 2828 
z
" transform="scale(0.015625)"/>
       <path id="DejaVuSans-70" d="M 1159 525 
L 1159 -1331 
L 581 -1331 
L 581 3500 
L 1159 3500 
L 1159 2969 
Q 1341 3281 1617 3432 
Q 1894 3584 2278 3584 
Q 2916 3584 3314 3078 
Q 3713 2572 3713 1747 
Q 3713 922 3314 415 
Q 2916 -91 2278 -91 
Q 1894 -91 1617 61 
Q 1341 213 1159 525 
z
M 3116 1747 
Q 3116 2381 2855 2742 
Q 2594 3103 2138 3103 
Q 1681 3103 1420 2742 
Q 1159 2381 1159 1747 
Q 1159 1113 1420 752 
Q 1681 391 2138 391 
Q 2594 391 2855 752 
Q 3116 1113 3116 1747 
z
" transform="scale(0.015625)"/>
       <path id="DejaVuSans-20" transform="scale(0.015625)"/>
       <path id="DejaVuSans-54" d="M -19 4666 
L 3928 4666 
L 3928 4134 
L 2272 4134 
L 2272 0 
L 1638 0 
L 1638 4134 
L -19 4134 
L -19 4666 
z
" transform="scale(0.015625)"/>
       <path id="DejaVuSans-69" d="M 603 3500 
L 1178 3500 
L 1178 0 
L 603 0 
L 603 3500 
z
M 603 4863 
L 1178 4863 
L 1178 4134 
L 603 4134 
L 603 4863 
z
" transform="scale(0.015625)"/>
       <path id="DejaVuSans-65" d="M 3597 1894 
L 3597 1613 
L 953 1613 
Q 991 1019 1311 708 
Q 1631 397 2203 397 
Q 2534 397 2845 478 
Q 3156 559 3463 722 
L 3463 178 
Q 3153 47 2828 -22 
Q 2503 -91 2169 -91 
Q 1331 -91 842 396 
Q 353 884 353 1716 
Q 353 2575 817 3079 
Q 1281 3584 2069 3584 
Q 2775 3584 3186 3129 
Q 3597 2675 3597 1894 
z
M 3022 2063 
Q 3016 2534 2758 2815 
Q 2500 3097 2075 3097 
Q 1594 3097 1305 2825 
Q 1016 2553 972 2059 
L 3022 2063 
z
" transform="scale(0.015625)"/>
       <path id="DejaVuSans-28" d="M 1984 4856 
Q 1566 4138 1362 3434 
Q 1159 2731 1159 2009 
Q 1159 1288 1364 580 
Q 1569 -128 1984 -844 
L 1484 -844 
Q 1016 -109 783 600 
Q 550 1309 550 2009 
Q 550 2706 781 3412 
Q 1013 4119 1484 4856 
L 1984 4856 
z
" transform="scale(0.015625)"/>
       <path id="DejaVuSans-Oblique-3bc" d="M -84 -1331 
L 856 3500 
L 1434 3500 
L 1009 1322 
Q 997 1256 987 1175 
Q 978 1094 978 1013 
Q 978 722 1161 565 
Q 1344 409 1684 409 
Q 2147 409 2431 671 
Q 2716 934 2816 1459 
L 3213 3500 
L 3788 3500 
L 3266 809 
Q 3253 750 3248 706 
Q 3244 663 3244 628 
Q 3244 531 3283 486 
Q 3322 441 3406 441 
Q 3438 441 3492 456 
Q 3547 472 3647 513 
L 3559 50 
Q 3422 -19 3297 -55 
Q 3172 -91 3053 -91 
Q 2847 -91 2730 40 
Q 2613 172 2613 403 
Q 2438 153 2195 31 
Q 1953 -91 1625 -91 
Q 1334 -91 1117 43 
Q 900 178 831 397 
L 494 -1331 
L -84 -1331 
z
" transform="scale(0.015625)"/>
       <path id="DejaVuSans-Oblique-73" d="M 3200 3397 
L 3091 2853 
Q 2863 2978 2609 3040 
Q 2356 3103 2088 3103 
Q 1634 3103 1373 2948 
Q 1113 2794 1113 2528 
Q 1113 2219 1719 2053 
Q 1766 2041 1788 2034 
L 1972 1978 
Q 2547 1819 2739 1644 
Q 2931 1469 2931 1166 
Q 2931 609 2489 259 
Q 2047 -91 1331 -91 
Q 1053 -91 747 -37 
Q 441 16 72 128 
L 184 722 
Q 500 559 806 475 
Q 1113 391 1394 391 
Q 1816 391 2080 572 
Q 2344 753 2344 1031 
Q 2344 1331 1650 1516 
L 1591 1531 
L 1394 1581 
Q 956 1697 753 1886 
Q 550 2075 550 2369 
Q 550 2928 970 3256 
Q 1391 3584 2113 3584 
Q 2397 3584 2667 3537 
Q 2938 3491 3200 3397 
z
" transform="scale(0.015625)"/>
       <path id="DejaVuSans-29" d="M 513 4856 
L 1013 4856 
Q 1481 4119 1714 3412 
Q 1947 2706 1947 2009 
Q 1947 1309 1714 600 
Q 1481 -109 1013 -844 
L 513 -844 
Q 928 -128 1133 580 
Q 1338 1288 1338 2009 
Q 1338 2731 1133 3434 
Q 928 4138 513 4856 
z
" transform="scale(0.015625)"/>
      </defs>
      <use xlink:href="#DejaVuSans-50" transform="translate(0 0.015625)"/>
      <use xlink:href="#DejaVuSans-75" transform="translate(60.302734 0.015625)"/>
      <use xlink:href="#DejaVuSans-6d" transform="translate(123.681641 0.015625)"/>
      <use xlink:href="#DejaVuSans-70" transform="translate(221.09375 0.015625)"/>
      <use xlink:href="#DejaVuSans-20" transform="translate(284.570312 0.015625)"/>
      <use xlink:href="#DejaVuSans-54" transform="translate(316.357422 0.015625)"/>
      <use xlink:href="#DejaVuSans-69" transform="translate(377.441406 0.015625)"/>
      <use xlink:href="#DejaVuSans-6d" transform="translate(405.224609 0.015625)"/>
      <use xlink:href="#DejaVuSans-65" transform="translate(502.636719 0.015625)"/>
      <use xlink:href="#DejaVuSans-20" transform="translate(564.160156 0.015625)"/>
      <use xlink:href="#DejaVuSans-28" transform="translate(595.947266 0.015625)"/>
      <use xlink:href="#DejaVuSans-Oblique-3bc" transform="translate(634.960938 0.015625)"/>
      <use xlink:href="#DejaVuSans-Oblique-73" transform="translate(698.583984 0.015625)"/>
      <use xlink:href="#DejaVuSans-29" transform="translate(750.683594 0.015625)"/>
     </g>
    </g>
   </g>
   <g id="matplotlib.axis_2">
    <g id="ytick_1">
     <g id="line2d_11">
      <path d="M 61.410938 279.010828 
L 418.530938 279.010828 
" clip-path="url(#pb29c5caca8)" style="fill: none; stroke: #b0b0b0; stroke-width: 0.8; stroke-linecap: square"/>
     </g>
     <g id="line2d_12">
      <defs>
       <path id="m6f3f5b6aff" d="M 0 0 
L -3.5 0 
" style="stroke: #000000; stroke-width: 0.8"/>
      </defs>
      <g>
       <use xlink:href="#m6f3f5b6aff" x="61.410938" y="279.010828" style="stroke: #000000; stroke-width: 0.8"/>
      </g>
     </g>
     <g id="text_7">
      <!-- 0.0 -->
      <g transform="translate(30.55625 284.709656)scale(0.15 -0.15)">
       <defs>
        <path id="DejaVuSans-30" d="M 2034 4250 
Q 1547 4250 1301 3770 
Q 1056 3291 1056 2328 
Q 1056 1369 1301 889 
Q 1547 409 2034 409 
Q 2525 409 2770 889 
Q 3016 1369 3016 2328 
Q 3016 3291 2770 3770 
Q 2525 4250 2034 4250 
z
M 2034 4750 
Q 2819 4750 3233 4129 
Q 3647 3509 3647 2328 
Q 3647 1150 3233 529 
Q 2819 -91 2034 -91 
Q 1250 -91 836 529 
Q 422 1150 422 2328 
Q 422 3509 836 4129 
Q 1250 4750 2034 4750 
z
" transform="scale(0.015625)"/>
        <path id="DejaVuSans-2e" d="M 684 794 
L 1344 794 
L 1344 0 
L 684 0 
L 684 794 
z
" transform="scale(0.015625)"/>
       </defs>
       <use xlink:href="#DejaVuSans-30"/>
       <use xlink:href="#DejaVuSans-2e" x="63.623047"/>
       <use xlink:href="#DejaVuSans-30" x="95.410156"/>
      </g>
     </g>
    </g>
    <g id="ytick_2">
     <g id="line2d_13">
      <path d="M 61.410938 225.788428 
L 418.530938 225.788428 
" clip-path="url(#pb29c5caca8)" style="fill: none; stroke: #b0b0b0; stroke-width: 0.8; stroke-linecap: square"/>
     </g>
     <g id="line2d_14">
      <g>
       <use xlink:href="#m6f3f5b6aff" x="61.410938" y="225.788428" style="stroke: #000000; stroke-width: 0.8"/>
      </g>
     </g>
     <g id="text_8">
      <!-- 0.2 -->
      <g transform="translate(30.55625 231.487256)scale(0.15 -0.15)">
       <use xlink:href="#DejaVuSans-30"/>
       <use xlink:href="#DejaVuSans-2e" x="63.623047"/>
       <use xlink:href="#DejaVuSans-32" x="95.410156"/>
      </g>
     </g>
    </g>
    <g id="ytick_3">
     <g id="line2d_15">
      <path d="M 61.410938 172.566028 
L 418.530938 172.566028 
" clip-path="url(#pb29c5caca8)" style="fill: none; stroke: #b0b0b0; stroke-width: 0.8; stroke-linecap: square"/>
     </g>
     <g id="line2d_16">
      <g>
       <use xlink:href="#m6f3f5b6aff" x="61.410938" y="172.566028" style="stroke: #000000; stroke-width: 0.8"/>
      </g>
     </g>
     <g id="text_9">
      <!-- 0.4 -->
      <g transform="translate(30.55625 178.264856)scale(0.15 -0.15)">
       <use xlink:href="#DejaVuSans-30"/>
       <use xlink:href="#DejaVuSans-2e" x="63.623047"/>
       <use xlink:href="#DejaVuSans-34" x="95.410156"/>
      </g>
     </g>
    </g>
    <g id="ytick_4">
     <g id="line2d_17">
      <path d="M 61.410938 119.343628 
L 418.530938 119.343628 
" clip-path="url(#pb29c5caca8)" style="fill: none; stroke: #b0b0b0; stroke-width: 0.8; stroke-linecap: square"/>
     </g>
     <g id="line2d_18">
      <g>
       <use xlink:href="#m6f3f5b6aff" x="61.410938" y="119.343628" style="stroke: #000000; stroke-width: 0.8"/>
      </g>
     </g>
     <g id="text_10">
      <!-- 0.6 -->
      <g transform="translate(30.55625 125.042456)scale(0.15 -0.15)">
       <defs>
        <path id="DejaVuSans-36" d="M 2113 2584 
Q 1688 2584 1439 2293 
Q 1191 2003 1191 1497 
Q 1191 994 1439 701 
Q 1688 409 2113 409 
Q 2538 409 2786 701 
Q 3034 994 3034 1497 
Q 3034 2003 2786 2293 
Q 2538 2584 2113 2584 
z
M 3366 4563 
L 3366 3988 
Q 3128 4100 2886 4159 
Q 2644 4219 2406 4219 
Q 1781 4219 1451 3797 
Q 1122 3375 1075 2522 
Q 1259 2794 1537 2939 
Q 1816 3084 2150 3084 
Q 2853 3084 3261 2657 
Q 3669 2231 3669 1497 
Q 3669 778 3244 343 
Q 2819 -91 2113 -91 
Q 1303 -91 875 529 
Q 447 1150 447 2328 
Q 447 3434 972 4092 
Q 1497 4750 2381 4750 
Q 2619 4750 2861 4703 
Q 3103 4656 3366 4563 
z
" transform="scale(0.015625)"/>
       </defs>
       <use xlink:href="#DejaVuSans-30"/>
       <use xlink:href="#DejaVuSans-2e" x="63.623047"/>
       <use xlink:href="#DejaVuSans-36" x="95.410156"/>
      </g>
     </g>
    </g>
    <g id="ytick_5">
     <g id="line2d_19">
      <path d="M 61.410938 66.121228 
L 418.530938 66.121228 
" clip-path="url(#pb29c5caca8)" style="fill: none; stroke: #b0b0b0; stroke-width: 0.8; stroke-linecap: square"/>
     </g>
     <g id="line2d_20">
      <g>
       <use xlink:href="#m6f3f5b6aff" x="61.410938" y="66.121228" style="stroke: #000000; stroke-width: 0.8"/>
      </g>
     </g>
     <g id="text_11">
      <!-- 0.8 -->
      <g transform="translate(30.55625 71.820056)scale(0.15 -0.15)">
       <defs>
        <path id="DejaVuSans-38" d="M 2034 2216 
Q 1584 2216 1326 1975 
Q 1069 1734 1069 1313 
Q 1069 891 1326 650 
Q 1584 409 2034 409 
Q 2484 409 2743 651 
Q 3003 894 3003 1313 
Q 3003 1734 2745 1975 
Q 2488 2216 2034 2216 
z
M 1403 2484 
Q 997 2584 770 2862 
Q 544 3141 544 3541 
Q 544 4100 942 4425 
Q 1341 4750 2034 4750 
Q 2731 4750 3128 4425 
Q 3525 4100 3525 3541 
Q 3525 3141 3298 2862 
Q 3072 2584 2669 2484 
Q 3125 2378 3379 2068 
Q 3634 1759 3634 1313 
Q 3634 634 3220 271 
Q 2806 -91 2034 -91 
Q 1263 -91 848 271 
Q 434 634 434 1313 
Q 434 1759 690 2068 
Q 947 2378 1403 2484 
z
M 1172 3481 
Q 1172 3119 1398 2916 
Q 1625 2713 2034 2713 
Q 2441 2713 2670 2916 
Q 2900 3119 2900 3481 
Q 2900 3844 2670 4047 
Q 2441 4250 2034 4250 
Q 1625 4250 1398 4047 
Q 1172 3844 1172 3481 
z
" transform="scale(0.015625)"/>
       </defs>
       <use xlink:href="#DejaVuSans-30"/>
       <use xlink:href="#DejaVuSans-2e" x="63.623047"/>
       <use xlink:href="#DejaVuSans-38" x="95.410156"/>
      </g>
     </g>
    </g>
    <g id="ytick_6">
     <g id="line2d_21">
      <path d="M 61.410938 12.898828 
L 418.530938 12.898828 
" clip-path="url(#pb29c5caca8)" style="fill: none; stroke: #b0b0b0; stroke-width: 0.8; stroke-linecap: square"/>
     </g>
     <g id="line2d_22">
      <g>
       <use xlink:href="#m6f3f5b6aff" x="61.410938" y="12.898828" style="stroke: #000000; stroke-width: 0.8"/>
      </g>
     </g>
     <g id="text_12">
      <!-- 1.0 -->
      <g transform="translate(30.55625 18.597656)scale(0.15 -0.15)">
       <use xlink:href="#DejaVuSans-31"/>
       <use xlink:href="#DejaVuSans-2e" x="63.623047"/>
       <use xlink:href="#DejaVuSans-30" x="95.410156"/>
      </g>
     </g>
    </g>
    <g id="text_13">
     <!-- $P_{detect}$ -->
     <g transform="translate(22.396875 174.654828)rotate(-90)scale(0.2 -0.2)">
      <defs>
       <path id="DejaVuSans-Oblique-50" d="M 1081 4666 
L 2541 4666 
Q 3178 4666 3512 4369 
Q 3847 4072 3847 3500 
Q 3847 2731 3353 2303 
Q 2859 1875 1966 1875 
L 1172 1875 
L 806 0 
L 172 0 
L 1081 4666 
z
M 1613 4147 
L 1275 2394 
L 2069 2394 
Q 2606 2394 2893 2669 
Q 3181 2944 3181 3456 
Q 3181 3784 2986 3965 
Q 2791 4147 2438 4147 
L 1613 4147 
z
" transform="scale(0.015625)"/>
       <path id="DejaVuSans-Oblique-64" d="M 2675 525 
Q 2444 222 2128 65 
Q 1813 -91 1428 -91 
Q 903 -91 598 267 
Q 294 625 294 1247 
Q 294 1766 478 2236 
Q 663 2706 1013 3078 
Q 1244 3325 1534 3454 
Q 1825 3584 2144 3584 
Q 2481 3584 2739 3421 
Q 2997 3259 3138 2956 
L 3513 4863 
L 4091 4863 
L 3144 0 
L 2566 0 
L 2675 525 
z
M 891 1350 
Q 891 897 1095 644 
Q 1300 391 1663 391 
Q 1931 391 2161 520 
Q 2391 650 2566 903 
Q 2750 1166 2856 1509 
Q 2963 1853 2963 2188 
Q 2963 2622 2758 2865 
Q 2553 3109 2194 3109 
Q 1922 3109 1687 2981 
Q 1453 2853 1288 2613 
Q 1106 2353 998 2009 
Q 891 1666 891 1350 
z
" transform="scale(0.015625)"/>
       <path id="DejaVuSans-Oblique-65" d="M 3078 2063 
Q 3088 2113 3092 2166 
Q 3097 2219 3097 2272 
Q 3097 2653 2873 2875 
Q 2650 3097 2266 3097 
Q 1838 3097 1509 2826 
Q 1181 2556 1013 2059 
L 3078 2063 
z
M 3578 1613 
L 903 1613 
Q 884 1494 878 1425 
Q 872 1356 872 1306 
Q 872 872 1139 634 
Q 1406 397 1894 397 
Q 2269 397 2603 481 
Q 2938 566 3225 728 
L 3116 159 
Q 2806 34 2476 -28 
Q 2147 -91 1806 -91 
Q 1078 -91 686 257 
Q 294 606 294 1247 
Q 294 1794 489 2264 
Q 684 2734 1063 3103 
Q 1306 3334 1642 3459 
Q 1978 3584 2356 3584 
Q 2950 3584 3301 3228 
Q 3653 2872 3653 2272 
Q 3653 2128 3634 1964 
Q 3616 1800 3578 1613 
z
" transform="scale(0.015625)"/>
       <path id="DejaVuSans-Oblique-74" d="M 2706 3500 
L 2619 3053 
L 1472 3053 
L 1100 1153 
Q 1081 1047 1072 975 
Q 1063 903 1063 863 
Q 1063 663 1183 572 
Q 1303 481 1569 481 
L 2150 481 
L 2053 0 
L 1503 0 
Q 991 0 739 200 
Q 488 400 488 806 
Q 488 878 497 964 
Q 506 1050 525 1153 
L 897 3053 
L 409 3053 
L 500 3500 
L 978 3500 
L 1172 4494 
L 1747 4494 
L 1556 3500 
L 2706 3500 
z
" transform="scale(0.015625)"/>
       <path id="DejaVuSans-Oblique-63" d="M 3431 3366 
L 3316 2797 
Q 3109 2947 2876 3022 
Q 2644 3097 2394 3097 
Q 2119 3097 1870 3000 
Q 1622 2903 1453 2725 
Q 1184 2453 1037 2087 
Q 891 1722 891 1331 
Q 891 859 1127 628 
Q 1363 397 1844 397 
Q 2081 397 2348 469 
Q 2616 541 2906 684 
L 2797 116 
Q 2547 13 2283 -39 
Q 2019 -91 1741 -91 
Q 1044 -91 669 257 
Q 294 606 294 1253 
Q 294 1797 489 2255 
Q 684 2713 1069 3078 
Q 1331 3328 1684 3456 
Q 2038 3584 2456 3584 
Q 2700 3584 2940 3529 
Q 3181 3475 3431 3366 
z
" transform="scale(0.015625)"/>
      </defs>
      <use xlink:href="#DejaVuSans-Oblique-50" transform="translate(0 0.09375)"/>
      <use xlink:href="#DejaVuSans-Oblique-64" transform="translate(60.302734 -16.3125)scale(0.7)"/>
      <use xlink:href="#DejaVuSans-Oblique-65" transform="translate(104.736328 -16.3125)scale(0.7)"/>
      <use xlink:href="#DejaVuSans-Oblique-74" transform="translate(147.802734 -16.3125)scale(0.7)"/>
      <use xlink:href="#DejaVuSans-Oblique-65" transform="translate(175.249023 -16.3125)scale(0.7)"/>
      <use xlink:href="#DejaVuSans-Oblique-63" transform="translate(218.31543 -16.3125)scale(0.7)"/>
      <use xlink:href="#DejaVuSans-Oblique-74" transform="translate(256.801758 -16.3125)scale(0.7)"/>
     </g>
    </g>
   </g>
   <g id="LineCollection_1">
    <path d="M 61.410938 21.560122 
L 61.410938 16.152997 
" clip-path="url(#pb29c5caca8)" style="fill: none; stroke: #1f77b4; stroke-width: 1.5"/>
    <path d="M 73.314937 60.339773 
L 73.314937 41.86628 
" clip-path="url(#pb29c5caca8)" style="fill: none; stroke: #1f77b4; stroke-width: 1.5"/>
    <path d="M 77.282938 94.352149 
L 77.282938 71.088438 
" clip-path="url(#pb29c5caca8)" style="fill: none; stroke: #1f77b4; stroke-width: 1.5"/>
    <path d="M 85.218938 124.491616 
L 85.218938 98.913961 
" clip-path="url(#pb29c5caca8)" style="fill: none; stroke: #1f77b4; stroke-width: 1.5"/>
    <path d="M 93.154938 174.908309 
L 93.154938 148.618615 
" clip-path="url(#pb29c5caca8)" style="fill: none; stroke: #1f77b4; stroke-width: 1.5"/>
    <path d="M 97.122938 151.266462 
L 97.122938 124.834561 
" clip-path="url(#pb29c5caca8)" style="fill: none; stroke: #1f77b4; stroke-width: 1.5"/>
    <path d="M 109.026938 203.663065 
L 109.026938 186.218173 
" clip-path="url(#pb29c5caca8)" style="fill: none; stroke: #1f77b4; stroke-width: 1.5"/>
    <path d="M 120.930938 225.788428 
L 120.930938 203.129387 
" clip-path="url(#pb29c5caca8)" style="fill: none; stroke: #1f77b4; stroke-width: 1.5"/>
    <path d="M 124.898938 223.308841 
L 124.898938 200.339429 
" clip-path="url(#pb29c5caca8)" style="fill: none; stroke: #1f77b4; stroke-width: 1.5"/>
    <path d="M 132.834938 259.359066 
L 132.834938 243.332372 
" clip-path="url(#pb29c5caca8)" style="fill: none; stroke: #1f77b4; stroke-width: 1.5"/>
    <path d="M 140.770938 250.043377 
L 140.770938 231.569884 
" clip-path="url(#pb29c5caca8)" style="fill: none; stroke: #1f77b4; stroke-width: 1.5"/>
    <path d="M 144.738938 252.399628 
L 144.738938 234.483177 
" clip-path="url(#pb29c5caca8)" style="fill: none; stroke: #1f77b4; stroke-width: 1.5"/>
    <path d="M 156.642938 250.257835 
L 156.642938 237.594985 
" clip-path="url(#pb29c5caca8)" style="fill: none; stroke: #1f77b4; stroke-width: 1.5"/>
    <path d="M 168.546938 254.738928 
L 168.546938 237.413422 
" clip-path="url(#pb29c5caca8)" style="fill: none; stroke: #1f77b4; stroke-width: 1.5"/>
    <path d="M 172.514938 263.883607 
L 172.514938 249.346921 
" clip-path="url(#pb29c5caca8)" style="fill: none; stroke: #1f77b4; stroke-width: 1.5"/>
    <path d="M 180.450938 266.100444 
L 180.450938 252.399628 
" clip-path="url(#pb29c5caca8)" style="fill: none; stroke: #1f77b4; stroke-width: 1.5"/>
    <path d="M 188.386937 266.100444 
L 188.386937 252.399628 
" clip-path="url(#pb29c5caca8)" style="fill: none; stroke: #1f77b4; stroke-width: 1.5"/>
    <path d="M 192.354938 259.359066 
L 192.354938 243.332372 
" clip-path="url(#pb29c5caca8)" style="fill: none; stroke: #1f77b4; stroke-width: 1.5"/>
    <path d="M 204.258938 264.636545 
L 204.258938 254.990843 
" clip-path="url(#pb29c5caca8)" style="fill: none; stroke: #1f77b4; stroke-width: 1.5"/>
    <path d="M 216.162937 250.043377 
L 216.162937 231.569884 
" clip-path="url(#pb29c5caca8)" style="fill: none; stroke: #1f77b4; stroke-width: 1.5"/>
    <path d="M 220.130938 270.411111 
L 220.130938 258.628051 
" clip-path="url(#pb29c5caca8)" style="fill: none; stroke: #1f77b4; stroke-width: 1.5"/>
    <path d="M 228.066937 274.472799 
L 228.066937 265.105452 
" clip-path="url(#pb29c5caca8)" style="fill: none; stroke: #1f77b4; stroke-width: 1.5"/>
    <path d="M 236.002938 259.359066 
L 236.002938 243.332372 
" clip-path="url(#pb29c5caca8)" style="fill: none; stroke: #1f77b4; stroke-width: 1.5"/>
    <path d="M 239.970938 270.411111 
L 239.970938 258.628051 
" clip-path="url(#pb29c5caca8)" style="fill: none; stroke: #1f77b4; stroke-width: 1.5"/>
    <path d="M 251.874938 276.747223 
L 251.874938 272.006851 
" clip-path="url(#pb29c5caca8)" style="fill: none; stroke: #1f77b4; stroke-width: 1.5"/>
    <path d="M 263.778937 276.340768 
L 263.778937 268.507027 
" clip-path="url(#pb29c5caca8)" style="fill: none; stroke: #1f77b4; stroke-width: 1.5"/>
    <path d="M 267.746938 268.279222 
L 267.746938 255.490395 
" clip-path="url(#pb29c5caca8)" style="fill: none; stroke: #1f77b4; stroke-width: 1.5"/>
    <path d="M 275.682938 266.100444 
L 275.682938 252.399628 
" clip-path="url(#pb29c5caca8)" style="fill: none; stroke: #1f77b4; stroke-width: 1.5"/>
    <path d="M 283.618938 274.472799 
L 283.618938 265.105452 
" clip-path="url(#pb29c5caca8)" style="fill: none; stroke: #1f77b4; stroke-width: 1.5"/>
    <path d="M 287.586937 268.279222 
L 287.586937 255.490395 
" clip-path="url(#pb29c5caca8)" style="fill: none; stroke: #1f77b4; stroke-width: 1.5"/>
    <path d="M 299.490938 269.243457 
L 299.490938 260.975453 
" clip-path="url(#pb29c5caca8)" style="fill: none; stroke: #1f77b4; stroke-width: 1.5"/>
    <path d="M 315.362937 266.100444 
L 315.362937 252.399628 
" clip-path="url(#pb29c5caca8)" style="fill: none; stroke: #1f77b4; stroke-width: 1.5"/>
    <path d="M 331.234938 277.992628 
L 331.234938 272.124711 
" clip-path="url(#pb29c5caca8)" style="fill: none; stroke: #1f77b4; stroke-width: 1.5"/>
    <path d="M 347.106938 270.411111 
L 347.106938 258.628051 
" clip-path="url(#pb29c5caca8)" style="fill: none; stroke: #1f77b4; stroke-width: 1.5"/>
    <path d="M 362.978938 274.472799 
L 362.978938 265.105452 
" clip-path="url(#pb29c5caca8)" style="fill: none; stroke: #1f77b4; stroke-width: 1.5"/>
    <path d="M 378.850938 279.010828 
L 378.850938 276.376056 
" clip-path="url(#pb29c5caca8)" style="fill: none; stroke: #1f77b4; stroke-width: 1.5"/>
   </g>
   <g id="line2d_23">
    <path d="M 61.393477 18.716047 
L 64.711056 35.925542 
L 68.028636 51.982048 
L 71.381138 67.115044 
L 74.733639 81.223869 
L 78.086141 94.377836 
L 81.438643 106.641567 
L 84.791144 118.075314 
L 88.178568 128.842403 
L 91.565991 138.873471 
L 94.953415 148.218832 
L 98.37576 157.011945 
L 101.798106 165.197998 
L 105.255373 172.893888 
L 108.71264 180.053241 
L 112.20483 186.778311 
L 115.731941 193.0902 
L 119.293974 199.009393 
L 122.890929 204.555736 
L 126.522805 209.748434 
L 130.189604 214.60604 
L 133.926247 219.187634 
L 137.697811 223.463053 
L 141.539219 227.484631 
L 145.450471 231.260672 
L 149.466489 234.829627 
L 153.587272 238.193186 
L 157.812821 241.35419 
L 162.143136 244.31652 
L 166.613138 247.105765 
L 171.257749 249.740697 
L 176.076971 252.217284 
L 181.070801 254.533519 
L 186.309085 256.71682 
L 191.791822 258.759875 
L 197.553934 260.669063 
L 203.665265 262.457781 
L 210.160737 264.124386 
L 217.075272 265.666658 
L 224.513635 267.094851 
L 232.54567 268.407013 
L 241.276143 269.604324 
L 250.844742 270.688447 
L 261.426075 271.660011 
L 273.299518 272.522621 
L 286.814291 273.276216 
L 302.49422 273.921361 
L 321.107589 274.457496 
L 344.051272 274.886936 
L 373.839646 275.210361 
L 394.722938 275.342788 
L 394.722938 275.342788 
" clip-path="url(#pb29c5caca8)" style="fill: none; stroke: #1f77b4; stroke-width: 1.5; stroke-linecap: square"/>
   </g>
   <g id="LineCollection_2">
    <path d="M 61.410938 19.784945 
L 61.410938 13.917028 
" clip-path="url(#pb29c5caca8)" style="fill: none; stroke: #ff7f0e; stroke-width: 1.5"/>
    <path d="M 73.314937 51.547238 
L 73.314937 34.850181 
" clip-path="url(#pb29c5caca8)" style="fill: none; stroke: #ff7f0e; stroke-width: 1.5"/>
    <path d="M 85.218938 105.405083 
L 85.218938 81.113683 
" clip-path="url(#pb29c5caca8)" style="fill: none; stroke: #ff7f0e; stroke-width: 1.5"/>
    <path d="M 97.122938 119.069168 
L 97.122938 93.79732 
" clip-path="url(#pb29c5caca8)" style="fill: none; stroke: #ff7f0e; stroke-width: 1.5"/>
    <path d="M 109.026938 159.194395 
L 109.026938 132.715261 
" clip-path="url(#pb29c5caca8)" style="fill: none; stroke: #ff7f0e; stroke-width: 1.5"/>
    <path d="M 120.930938 205.741715 
L 120.930938 181.019743 
" clip-path="url(#pb29c5caca8)" style="fill: none; stroke: #ff7f0e; stroke-width: 1.5"/>
    <path d="M 132.834938 215.823042 
L 132.834938 192.016595 
" clip-path="url(#pb29c5caca8)" style="fill: none; stroke: #ff7f0e; stroke-width: 1.5"/>
    <path d="M 144.738938 225.788428 
L 144.738938 203.129387 
" clip-path="url(#pb29c5caca8)" style="fill: none; stroke: #ff7f0e; stroke-width: 1.5"/>
    <path d="M 156.642938 238.052619 
L 156.642938 217.212919 
" clip-path="url(#pb29c5caca8)" style="fill: none; stroke: #ff7f0e; stroke-width: 1.5"/>
    <path d="M 168.546938 250.043377 
L 168.546938 231.569884 
" clip-path="url(#pb29c5caca8)" style="fill: none; stroke: #ff7f0e; stroke-width: 1.5"/>
    <path d="M 180.450938 252.399628 
L 180.450938 234.483177 
" clip-path="url(#pb29c5caca8)" style="fill: none; stroke: #ff7f0e; stroke-width: 1.5"/>
    <path d="M 192.354938 250.043377 
L 192.354938 231.569884 
" clip-path="url(#pb29c5caca8)" style="fill: none; stroke: #ff7f0e; stroke-width: 1.5"/>
    <path d="M 204.258938 254.738928 
L 204.258938 237.413422 
" clip-path="url(#pb29c5caca8)" style="fill: none; stroke: #ff7f0e; stroke-width: 1.5"/>
    <path d="M 216.162937 261.634947 
L 216.162937 246.326036 
" clip-path="url(#pb29c5caca8)" style="fill: none; stroke: #ff7f0e; stroke-width: 1.5"/>
    <path d="M 228.066937 257.059476 
L 228.066937 240.362418 
" clip-path="url(#pb29c5caca8)" style="fill: none; stroke: #ff7f0e; stroke-width: 1.5"/>
    <path d="M 239.970938 272.48285 
L 239.970938 261.825856 
" clip-path="url(#pb29c5caca8)" style="fill: none; stroke: #ff7f0e; stroke-width: 1.5"/>
    <path d="M 251.874938 268.279222 
L 251.874938 255.490395 
" clip-path="url(#pb29c5caca8)" style="fill: none; stroke: #ff7f0e; stroke-width: 1.5"/>
    <path d="M 263.778937 266.100444 
L 263.778937 252.399628 
" clip-path="url(#pb29c5caca8)" style="fill: none; stroke: #ff7f0e; stroke-width: 1.5"/>
    <path d="M 275.682938 272.48285 
L 275.682938 261.825856 
" clip-path="url(#pb29c5caca8)" style="fill: none; stroke: #ff7f0e; stroke-width: 1.5"/>
    <path d="M 287.586937 266.100444 
L 287.586937 252.399628 
" clip-path="url(#pb29c5caca8)" style="fill: none; stroke: #ff7f0e; stroke-width: 1.5"/>
    <path d="M 299.490938 268.279222 
L 299.490938 255.490395 
" clip-path="url(#pb29c5caca8)" style="fill: none; stroke: #ff7f0e; stroke-width: 1.5"/>
   </g>
   <g id="line2d_24">
    <path d="M 61.397842 13.08134 
L 64.986066 29.382401 
L 68.574291 44.663826 
L 72.188706 59.090595 
L 75.803122 72.60859 
L 79.417538 85.275057 
L 83.031954 97.143636 
L 86.672561 108.342562 
L 90.313169 118.831097 
L 93.979967 128.722668 
L 97.646766 137.982412 
L 101.339756 146.710568 
L 105.058937 154.933362 
L 108.80431 162.67602 
L 112.549683 169.913868 
L 116.321248 176.725546 
L 120.145195 183.175502 
L 123.995334 189.236235 
L 127.871664 194.928285 
L 131.800376 200.305923 
L 135.781472 205.380824 
L 139.814951 210.164691 
L 143.927004 214.697022 
L 148.091439 218.957612 
L 152.334449 222.982257 
L 156.682225 226.799461 
L 161.108574 230.390589 
L 165.63969 233.782012 
L 170.301763 236.994398 
L 175.094792 240.027639 
L 180.044971 242.897372 
L 185.178489 245.615252 
L 190.495347 248.177564 
L 196.021736 250.593285 
L 201.783848 252.868785 
L 207.834066 255.017173 
L 214.17239 257.030488 
L 220.851202 258.917522 
L 227.922885 260.683094 
L 235.439822 262.329044 
L 243.480588 263.859804 
L 252.123756 265.276007 
L 261.447901 266.575881 
L 271.610172 267.764953 
L 282.767716 268.84284 
L 295.130066 269.809636 
L 308.985327 270.665876 
L 311.394937 270.794186 
L 311.394937 270.794186 
" clip-path="url(#pb29c5caca8)" style="fill: none; stroke: #ff7f0e; stroke-width: 1.5; stroke-linecap: square"/>
   </g>
   <g id="LineCollection_3">
    <path d="M 61.410938 24.766281 
L 61.410938 18.242599 
" clip-path="url(#pb29c5caca8)" style="fill: none; stroke: #2ca02c; stroke-width: 1.5"/>
    <path d="M 73.314937 39.510028 
L 73.314937 25.809212 
" clip-path="url(#pb29c5caca8)" style="fill: none; stroke: #2ca02c; stroke-width: 1.5"/>
    <path d="M 77.282938 57.42648 
L 77.282938 39.510028 
" clip-path="url(#pb29c5caca8)" style="fill: none; stroke: #2ca02c; stroke-width: 1.5"/>
    <path d="M 85.218938 99.893062 
L 85.218938 76.086615 
" clip-path="url(#pb29c5caca8)" style="fill: none; stroke: #2ca02c; stroke-width: 1.5"/>
    <path d="M 93.154938 110.889913 
L 93.154938 86.167941 
" clip-path="url(#pb29c5caca8)" style="fill: none; stroke: #2ca02c; stroke-width: 1.5"/>
    <path d="M 97.122938 135.267356 
L 97.122938 109.216399 
" clip-path="url(#pb29c5caca8)" style="fill: none; stroke: #2ca02c; stroke-width: 1.5"/>
    <path d="M 109.026938 160.628162 
L 109.026938 141.873016 
" clip-path="url(#pb29c5caca8)" style="fill: none; stroke: #2ca02c; stroke-width: 1.5"/>
    <path d="M 120.930938 200.661664 
L 120.930938 175.560705 
" clip-path="url(#pb29c5caca8)" style="fill: none; stroke: #2ca02c; stroke-width: 1.5"/>
    <path d="M 124.898938 167.075095 
L 124.898938 140.643194 
" clip-path="url(#pb29c5caca8)" style="fill: none; stroke: #2ca02c; stroke-width: 1.5"/>
    <path d="M 132.834938 200.661664 
L 132.834938 175.560705 
" clip-path="url(#pb29c5caca8)" style="fill: none; stroke: #2ca02c; stroke-width: 1.5"/>
    <path d="M 140.770938 200.661664 
L 140.770938 175.560705 
" clip-path="url(#pb29c5caca8)" style="fill: none; stroke: #2ca02c; stroke-width: 1.5"/>
    <path d="M 144.738938 208.272149 
L 144.738938 183.758853 
" clip-path="url(#pb29c5caca8)" style="fill: none; stroke: #2ca02c; stroke-width: 1.5"/>
    <path d="M 156.642938 225.354754 
L 156.642938 209.540455 
" clip-path="url(#pb29c5caca8)" style="fill: none; stroke: #2ca02c; stroke-width: 1.5"/>
    <path d="M 168.546938 215.823042 
L 168.546938 192.016595 
" clip-path="url(#pb29c5caca8)" style="fill: none; stroke: #2ca02c; stroke-width: 1.5"/>
    <path d="M 172.514938 238.052619 
L 172.514938 217.212919 
" clip-path="url(#pb29c5caca8)" style="fill: none; stroke: #2ca02c; stroke-width: 1.5"/>
    <path d="M 180.450938 242.886675 
L 180.450938 222.917952 
" clip-path="url(#pb29c5caca8)" style="fill: none; stroke: #2ca02c; stroke-width: 1.5"/>
    <path d="M 188.386937 242.886675 
L 188.386937 222.917952 
" clip-path="url(#pb29c5caca8)" style="fill: none; stroke: #2ca02c; stroke-width: 1.5"/>
    <path d="M 192.354938 254.738928 
L 192.354938 237.413422 
" clip-path="url(#pb29c5caca8)" style="fill: none; stroke: #2ca02c; stroke-width: 1.5"/>
    <path d="M 204.258938 240.399074 
L 204.258938 226.270702 
" clip-path="url(#pb29c5caca8)" style="fill: none; stroke: #2ca02c; stroke-width: 1.5"/>
    <path d="M 216.162937 250.043377 
L 216.162937 231.569884 
" clip-path="url(#pb29c5caca8)" style="fill: none; stroke: #2ca02c; stroke-width: 1.5"/>
    <path d="M 220.130938 259.359066 
L 220.130938 243.332372 
" clip-path="url(#pb29c5caca8)" style="fill: none; stroke: #2ca02c; stroke-width: 1.5"/>
    <path d="M 228.066937 261.634947 
L 228.066937 246.326036 
" clip-path="url(#pb29c5caca8)" style="fill: none; stroke: #2ca02c; stroke-width: 1.5"/>
    <path d="M 236.002938 261.634947 
L 236.002938 246.326036 
" clip-path="url(#pb29c5caca8)" style="fill: none; stroke: #2ca02c; stroke-width: 1.5"/>
    <path d="M 239.970938 266.100444 
L 239.970938 252.399628 
" clip-path="url(#pb29c5caca8)" style="fill: none; stroke: #2ca02c; stroke-width: 1.5"/>
    <path d="M 251.874938 266.957127 
L 251.874938 257.966022 
" clip-path="url(#pb29c5caca8)" style="fill: none; stroke: #2ca02c; stroke-width: 1.5"/>
    <path d="M 263.778937 274.472799 
L 263.778937 265.105452 
" clip-path="url(#pb29c5caca8)" style="fill: none; stroke: #2ca02c; stroke-width: 1.5"/>
    <path d="M 267.746938 263.883607 
L 267.746938 249.346921 
" clip-path="url(#pb29c5caca8)" style="fill: none; stroke: #2ca02c; stroke-width: 1.5"/>
    <path d="M 275.682938 266.100444 
L 275.682938 252.399628 
" clip-path="url(#pb29c5caca8)" style="fill: none; stroke: #2ca02c; stroke-width: 1.5"/>
    <path d="M 283.618938 270.411111 
L 283.618938 258.628051 
" clip-path="url(#pb29c5caca8)" style="fill: none; stroke: #2ca02c; stroke-width: 1.5"/>
    <path d="M 287.586937 266.100444 
L 287.586937 252.399628 
" clip-path="url(#pb29c5caca8)" style="fill: none; stroke: #2ca02c; stroke-width: 1.5"/>
    <path d="M 299.490938 270.370866 
L 299.490938 262.495925 
" clip-path="url(#pb29c5caca8)" style="fill: none; stroke: #2ca02c; stroke-width: 1.5"/>
    <path d="M 315.362937 276.340768 
L 315.362937 268.507027 
" clip-path="url(#pb29c5caca8)" style="fill: none; stroke: #2ca02c; stroke-width: 1.5"/>
    <path d="M 331.234938 268.279222 
L 331.234938 255.490395 
" clip-path="url(#pb29c5caca8)" style="fill: none; stroke: #2ca02c; stroke-width: 1.5"/>
    <path d="M 347.106938 270.411111 
L 347.106938 258.628051 
" clip-path="url(#pb29c5caca8)" style="fill: none; stroke: #2ca02c; stroke-width: 1.5"/>
    <path d="M 362.978938 274.472799 
L 362.978938 265.105452 
" clip-path="url(#pb29c5caca8)" style="fill: none; stroke: #2ca02c; stroke-width: 1.5"/>
    <path d="M 378.850938 272.48285 
L 378.850938 261.825856 
" clip-path="url(#pb29c5caca8)" style="fill: none; stroke: #2ca02c; stroke-width: 1.5"/>
   </g>
   <g id="line2d_25">
    <path d="M 61.393477 14.541175 
L 65.33965 29.471317 
L 69.285824 43.539717 
L 73.231998 56.796114 
L 77.213094 69.394636 
L 81.194189 81.259749 
L 85.175285 92.434149 
L 89.191303 103.047594 
L 93.20732 113.037933 
L 97.25826 122.521049 
L 101.309199 131.442724 
L 105.395061 139.906351 
L 109.480922 147.864707 
L 113.601705 155.409951 
L 117.757411 162.55925 
L 121.948038 169.329343 
L 126.173587 175.736525 
L 130.434057 181.796647 
L 134.764372 187.570179 
L 139.129609 193.021282 
L 143.564689 198.204399 
L 148.069613 203.126302 
L 152.644381 207.794117 
L 157.288993 212.215277 
L 162.003448 216.397465 
L 166.822669 220.376376 
L 171.746656 224.154136 
L 176.775408 227.733636 
L 181.943848 231.140604 
L 187.251976 234.374178 
L 192.734713 237.453428 
L 198.39206 240.375053 
L 204.258938 243.153026 
L 210.335347 245.782729 
L 216.656209 248.274406 
L 223.256447 250.634989 
L 230.13606 252.857997 
L 237.364891 254.958439 
L 244.977864 256.936622 
L 253.009899 258.791789 
L 261.530841 260.529297 
L 270.610533 262.151 
L 280.318819 263.656317 
L 290.760464 265.047538 
L 302.075158 266.32743 
L 314.402585 267.494665 
L 327.95228 268.550729 
L 343.003615 269.496848 
L 359.940733 270.334011 
L 379.287461 271.062187 
L 394.722938 271.508669 
L 394.722938 271.508669 
" clip-path="url(#pb29c5caca8)" style="fill: none; stroke: #2ca02c; stroke-width: 1.5; stroke-linecap: square"/>
   </g>
   <g id="LineCollection_4">
    <path d="M 61.410938 23.402629 
L 61.410938 15.568888 
" clip-path="url(#pb29c5caca8)" style="fill: none; stroke: #d62728; stroke-width: 1.5"/>
    <path d="M 77.282938 68.991705 
L 77.282938 49.022981 
" clip-path="url(#pb29c5caca8)" style="fill: none; stroke: #d62728; stroke-width: 1.5"/>
    <path d="M 93.154938 116.348952 
L 93.154938 91.247992 
" clip-path="url(#pb29c5caca8)" style="fill: none; stroke: #d62728; stroke-width: 1.5"/>
    <path d="M 109.026938 119.069168 
L 109.026938 93.79732 
" clip-path="url(#pb29c5caca8)" style="fill: none; stroke: #d62728; stroke-width: 1.5"/>
    <path d="M 124.898938 174.908309 
L 124.898938 148.618615 
" clip-path="url(#pb29c5caca8)" style="fill: none; stroke: #d62728; stroke-width: 1.5"/>
    <path d="M 140.770938 200.661664 
L 140.770938 175.560705 
" clip-path="url(#pb29c5caca8)" style="fill: none; stroke: #d62728; stroke-width: 1.5"/>
    <path d="M 156.642938 192.995695 
L 156.642938 167.41804 
" clip-path="url(#pb29c5caca8)" style="fill: none; stroke: #d62728; stroke-width: 1.5"/>
    <path d="M 172.514938 223.308841 
L 172.514938 200.339429 
" clip-path="url(#pb29c5caca8)" style="fill: none; stroke: #d62728; stroke-width: 1.5"/>
    <path d="M 188.386937 247.671664 
L 188.386937 228.672051 
" clip-path="url(#pb29c5caca8)" style="fill: none; stroke: #d62728; stroke-width: 1.5"/>
    <path d="M 204.258938 252.399628 
L 204.258938 234.483177 
" clip-path="url(#pb29c5caca8)" style="fill: none; stroke: #d62728; stroke-width: 1.5"/>
    <path d="M 220.130938 257.059476 
L 220.130938 240.362418 
" clip-path="url(#pb29c5caca8)" style="fill: none; stroke: #d62728; stroke-width: 1.5"/>
    <path d="M 236.002938 263.883607 
L 236.002938 249.346921 
" clip-path="url(#pb29c5caca8)" style="fill: none; stroke: #d62728; stroke-width: 1.5"/>
    <path d="M 251.874938 261.634947 
L 251.874938 246.326036 
" clip-path="url(#pb29c5caca8)" style="fill: none; stroke: #d62728; stroke-width: 1.5"/>
    <path d="M 267.746938 266.100444 
L 267.746938 252.399628 
" clip-path="url(#pb29c5caca8)" style="fill: none; stroke: #d62728; stroke-width: 1.5"/>
    <path d="M 283.618938 266.100444 
L 283.618938 252.399628 
" clip-path="url(#pb29c5caca8)" style="fill: none; stroke: #d62728; stroke-width: 1.5"/>
    <path d="M 299.490938 268.279222 
L 299.490938 255.490395 
" clip-path="url(#pb29c5caca8)" style="fill: none; stroke: #d62728; stroke-width: 1.5"/>
    <path d="M 315.362937 274.472799 
L 315.362937 265.105452 
" clip-path="url(#pb29c5caca8)" style="fill: none; stroke: #d62728; stroke-width: 1.5"/>
    <path d="M 331.234938 270.411111 
L 331.234938 258.628051 
" clip-path="url(#pb29c5caca8)" style="fill: none; stroke: #d62728; stroke-width: 1.5"/>
    <path d="M 347.106938 276.340768 
L 347.106938 268.507027 
" clip-path="url(#pb29c5caca8)" style="fill: none; stroke: #d62728; stroke-width: 1.5"/>
    <path d="M 362.978938 270.411111 
L 362.978938 258.628051 
" clip-path="url(#pb29c5caca8)" style="fill: none; stroke: #d62728; stroke-width: 1.5"/>
    <path d="M 378.850938 276.340768 
L 378.850938 268.507027 
" clip-path="url(#pb29c5caca8)" style="fill: none; stroke: #d62728; stroke-width: 1.5"/>
   </g>
   <g id="line2d_26">
    <path d="M 61.393477 17.000557 
L 65.619026 31.000539 
L 69.879496 44.350289 
L 74.139967 56.972739 
L 78.400438 68.907513 
L 82.695831 80.281984 
L 86.991224 91.031833 
L 91.321538 101.271628 
L 95.651853 110.944667 
L 100.017089 120.153916 
L 104.382326 128.849455 
L 108.782484 137.123741 
L 113.217565 144.993072 
L 117.687567 152.473368 
L 122.192491 159.580162 
L 126.732337 166.3286 
L 131.307105 172.733431 
L 135.951716 178.853641 
L 140.63125 184.653237 
L 145.380627 190.185616 
L 150.199848 195.457106 
L 155.088913 200.474345 
L 160.047822 205.24424 
L 165.076574 209.773924 
L 170.210093 214.099163 
L 175.448376 218.221783 
L 180.791426 222.144297 
L 186.274163 225.89288 
L 191.896588 229.466349 
L 197.6587 232.864537 
L 203.595422 236.106556 
L 209.706753 239.189823 
L 216.027615 242.128573 
L 222.558009 244.918806 
L 229.332856 247.571095 
L 236.387078 250.092816 
L 243.755598 252.488678 
L 251.438414 254.751453 
L 259.505371 256.893752 
L 267.991391 258.915062 
L 276.931395 260.814109 
L 286.395228 262.595452 
L 296.452733 264.26066 
L 307.208676 265.813921 
L 318.767822 267.25558 
L 331.234938 268.583494 
L 344.784632 269.800064 
L 359.626436 270.906035 
L 376.039725 271.902277 
L 394.40864 272.789747 
L 394.722938 272.803144 
L 394.722938 272.803144 
" clip-path="url(#pb29c5caca8)" style="fill: none; stroke: #d62728; stroke-width: 1.5; stroke-linecap: square"/>
   </g>
   <g id="line2d_27">
    <defs>
     <path id="mcceb8b8273" d="M 0 3 
C 0.795609 3 1.55874 2.683901 2.12132 2.12132 
C 2.683901 1.55874 3 0.795609 3 0 
C 3 -0.795609 2.683901 -1.55874 2.12132 -2.12132 
C 1.55874 -2.683901 0.795609 -3 0 -3 
C -0.795609 -3 -1.55874 -2.683901 -2.12132 -2.12132 
C -2.683901 -1.55874 -3 -0.795609 -3 0 
C -3 0.795609 -2.683901 1.55874 -2.12132 2.12132 
C -1.55874 2.683901 -0.795609 3 0 3 
z
" style="stroke: #1f77b4"/>
    </defs>
    <g clip-path="url(#pb29c5caca8)">
     <use xlink:href="#mcceb8b8273" x="61.410938" y="18.856559" style="fill: #1f77b4; stroke: #1f77b4"/>
     <use xlink:href="#mcceb8b8273" x="73.314937" y="51.103026" style="fill: #1f77b4; stroke: #1f77b4"/>
     <use xlink:href="#mcceb8b8273" x="77.282938" y="82.720293" style="fill: #1f77b4; stroke: #1f77b4"/>
     <use xlink:href="#mcceb8b8273" x="85.218938" y="111.702789" style="fill: #1f77b4; stroke: #1f77b4"/>
     <use xlink:href="#mcceb8b8273" x="93.154938" y="161.763462" style="fill: #1f77b4; stroke: #1f77b4"/>
     <use xlink:href="#mcceb8b8273" x="97.122938" y="138.050511" style="fill: #1f77b4; stroke: #1f77b4"/>
     <use xlink:href="#mcceb8b8273" x="109.026938" y="194.940619" style="fill: #1f77b4; stroke: #1f77b4"/>
     <use xlink:href="#mcceb8b8273" x="120.930938" y="214.458907" style="fill: #1f77b4; stroke: #1f77b4"/>
     <use xlink:href="#mcceb8b8273" x="124.898938" y="211.824135" style="fill: #1f77b4; stroke: #1f77b4"/>
     <use xlink:href="#mcceb8b8273" x="132.834938" y="251.345719" style="fill: #1f77b4; stroke: #1f77b4"/>
     <use xlink:href="#mcceb8b8273" x="140.770938" y="240.80663" style="fill: #1f77b4; stroke: #1f77b4"/>
     <use xlink:href="#mcceb8b8273" x="144.738938" y="243.441402" style="fill: #1f77b4; stroke: #1f77b4"/>
     <use xlink:href="#mcceb8b8273" x="156.642938" y="243.92641" style="fill: #1f77b4; stroke: #1f77b4"/>
     <use xlink:href="#mcceb8b8273" x="168.546938" y="246.076175" style="fill: #1f77b4; stroke: #1f77b4"/>
     <use xlink:href="#mcceb8b8273" x="172.514938" y="256.615264" style="fill: #1f77b4; stroke: #1f77b4"/>
     <use xlink:href="#mcceb8b8273" x="180.450938" y="259.250036" style="fill: #1f77b4; stroke: #1f77b4"/>
     <use xlink:href="#mcceb8b8273" x="188.386937" y="259.250036" style="fill: #1f77b4; stroke: #1f77b4"/>
     <use xlink:href="#mcceb8b8273" x="192.354938" y="251.345719" style="fill: #1f77b4; stroke: #1f77b4"/>
     <use xlink:href="#mcceb8b8273" x="204.258938" y="259.813694" style="fill: #1f77b4; stroke: #1f77b4"/>
     <use xlink:href="#mcceb8b8273" x="216.162937" y="240.80663" style="fill: #1f77b4; stroke: #1f77b4"/>
     <use xlink:href="#mcceb8b8273" x="220.130938" y="264.519581" style="fill: #1f77b4; stroke: #1f77b4"/>
     <use xlink:href="#mcceb8b8273" x="228.066937" y="269.789125" style="fill: #1f77b4; stroke: #1f77b4"/>
     <use xlink:href="#mcceb8b8273" x="236.002938" y="251.345719" style="fill: #1f77b4; stroke: #1f77b4"/>
     <use xlink:href="#mcceb8b8273" x="239.970938" y="264.519581" style="fill: #1f77b4; stroke: #1f77b4"/>
     <use xlink:href="#mcceb8b8273" x="251.874938" y="274.377037" style="fill: #1f77b4; stroke: #1f77b4"/>
     <use xlink:href="#mcceb8b8273" x="263.778937" y="272.423897" style="fill: #1f77b4; stroke: #1f77b4"/>
     <use xlink:href="#mcceb8b8273" x="267.746938" y="261.884808" style="fill: #1f77b4; stroke: #1f77b4"/>
     <use xlink:href="#mcceb8b8273" x="275.682938" y="259.250036" style="fill: #1f77b4; stroke: #1f77b4"/>
     <use xlink:href="#mcceb8b8273" x="283.618938" y="269.789125" style="fill: #1f77b4; stroke: #1f77b4"/>
     <use xlink:href="#mcceb8b8273" x="287.586937" y="261.884808" style="fill: #1f77b4; stroke: #1f77b4"/>
     <use xlink:href="#mcceb8b8273" x="299.490938" y="265.109455" style="fill: #1f77b4; stroke: #1f77b4"/>
     <use xlink:href="#mcceb8b8273" x="315.362937" y="259.250036" style="fill: #1f77b4; stroke: #1f77b4"/>
     <use xlink:href="#mcceb8b8273" x="331.234938" y="275.05867" style="fill: #1f77b4; stroke: #1f77b4"/>
     <use xlink:href="#mcceb8b8273" x="347.106938" y="264.519581" style="fill: #1f77b4; stroke: #1f77b4"/>
     <use xlink:href="#mcceb8b8273" x="362.978938" y="269.789125" style="fill: #1f77b4; stroke: #1f77b4"/>
     <use xlink:href="#mcceb8b8273" x="378.850938" y="277.693442" style="fill: #1f77b4; stroke: #1f77b4"/>
    </g>
   </g>
   <g id="line2d_28">
    <defs>
     <path id="mff6e4f8517" d="M 0 3 
C 0.795609 3 1.55874 2.683901 2.12132 2.12132 
C 2.683901 1.55874 3 0.795609 3 0 
C 3 -0.795609 2.683901 -1.55874 2.12132 -2.12132 
C 1.55874 -2.683901 0.795609 -3 0 -3 
C -0.795609 -3 -1.55874 -2.683901 -2.12132 -2.12132 
C -2.683901 -1.55874 -3 -0.795609 -3 0 
C -3 0.795609 -2.683901 1.55874 -2.12132 2.12132 
C -1.55874 2.683901 -0.795609 3 0 3 
z
" style="stroke: #ff7f0e"/>
    </defs>
    <g clip-path="url(#pb29c5caca8)">
     <use xlink:href="#mff6e4f8517" x="61.410938" y="16.850987" style="fill: #ff7f0e; stroke: #ff7f0e"/>
     <use xlink:href="#mff6e4f8517" x="73.314937" y="43.198709" style="fill: #ff7f0e; stroke: #ff7f0e"/>
     <use xlink:href="#mff6e4f8517" x="85.218938" y="93.259383" style="fill: #ff7f0e; stroke: #ff7f0e"/>
     <use xlink:href="#mff6e4f8517" x="97.122938" y="106.433244" style="fill: #ff7f0e; stroke: #ff7f0e"/>
     <use xlink:href="#mff6e4f8517" x="109.026938" y="145.954828" style="fill: #ff7f0e; stroke: #ff7f0e"/>
     <use xlink:href="#mff6e4f8517" x="120.930938" y="193.380729" style="fill: #ff7f0e; stroke: #ff7f0e"/>
     <use xlink:href="#mff6e4f8517" x="132.834938" y="203.919818" style="fill: #ff7f0e; stroke: #ff7f0e"/>
     <use xlink:href="#mff6e4f8517" x="144.738938" y="214.458907" style="fill: #ff7f0e; stroke: #ff7f0e"/>
     <use xlink:href="#mff6e4f8517" x="156.642938" y="227.632769" style="fill: #ff7f0e; stroke: #ff7f0e"/>
     <use xlink:href="#mff6e4f8517" x="168.546938" y="240.80663" style="fill: #ff7f0e; stroke: #ff7f0e"/>
     <use xlink:href="#mff6e4f8517" x="180.450938" y="243.441402" style="fill: #ff7f0e; stroke: #ff7f0e"/>
     <use xlink:href="#mff6e4f8517" x="192.354938" y="240.80663" style="fill: #ff7f0e; stroke: #ff7f0e"/>
     <use xlink:href="#mff6e4f8517" x="204.258938" y="246.076175" style="fill: #ff7f0e; stroke: #ff7f0e"/>
     <use xlink:href="#mff6e4f8517" x="216.162937" y="253.980491" style="fill: #ff7f0e; stroke: #ff7f0e"/>
     <use xlink:href="#mff6e4f8517" x="228.066937" y="248.710947" style="fill: #ff7f0e; stroke: #ff7f0e"/>
     <use xlink:href="#mff6e4f8517" x="239.970938" y="267.154353" style="fill: #ff7f0e; stroke: #ff7f0e"/>
     <use xlink:href="#mff6e4f8517" x="251.874938" y="261.884808" style="fill: #ff7f0e; stroke: #ff7f0e"/>
     <use xlink:href="#mff6e4f8517" x="263.778937" y="259.250036" style="fill: #ff7f0e; stroke: #ff7f0e"/>
     <use xlink:href="#mff6e4f8517" x="275.682938" y="267.154353" style="fill: #ff7f0e; stroke: #ff7f0e"/>
     <use xlink:href="#mff6e4f8517" x="287.586937" y="259.250036" style="fill: #ff7f0e; stroke: #ff7f0e"/>
     <use xlink:href="#mff6e4f8517" x="299.490938" y="261.884808" style="fill: #ff7f0e; stroke: #ff7f0e"/>
    </g>
   </g>
   <g id="line2d_29">
    <defs>
     <path id="m5b2af9e1fb" d="M 0 3 
C 0.795609 3 1.55874 2.683901 2.12132 2.12132 
C 2.683901 1.55874 3 0.795609 3 0 
C 3 -0.795609 2.683901 -1.55874 2.12132 -2.12132 
C 1.55874 -2.683901 0.795609 -3 0 -3 
C -0.795609 -3 -1.55874 -2.683901 -2.12132 -2.12132 
C -2.683901 -1.55874 -3 -0.795609 -3 0 
C -3 0.795609 -2.683901 1.55874 -2.12132 2.12132 
C -1.55874 2.683901 -0.795609 3 0 3 
z
" style="stroke: #2ca02c"/>
    </defs>
    <g clip-path="url(#pb29c5caca8)">
     <use xlink:href="#m5b2af9e1fb" x="61.410938" y="21.50444" style="fill: #2ca02c; stroke: #2ca02c"/>
     <use xlink:href="#m5b2af9e1fb" x="73.314937" y="32.65962" style="fill: #2ca02c; stroke: #2ca02c"/>
     <use xlink:href="#m5b2af9e1fb" x="77.282938" y="48.468254" style="fill: #2ca02c; stroke: #2ca02c"/>
     <use xlink:href="#m5b2af9e1fb" x="85.218938" y="87.989838" style="fill: #2ca02c; stroke: #2ca02c"/>
     <use xlink:href="#m5b2af9e1fb" x="93.154938" y="98.528927" style="fill: #2ca02c; stroke: #2ca02c"/>
     <use xlink:href="#m5b2af9e1fb" x="97.122938" y="122.241878" style="fill: #2ca02c; stroke: #2ca02c"/>
     <use xlink:href="#m5b2af9e1fb" x="109.026938" y="151.250589" style="fill: #2ca02c; stroke: #2ca02c"/>
     <use xlink:href="#m5b2af9e1fb" x="120.930938" y="188.111185" style="fill: #2ca02c; stroke: #2ca02c"/>
     <use xlink:href="#m5b2af9e1fb" x="124.898938" y="153.859145" style="fill: #2ca02c; stroke: #2ca02c"/>
     <use xlink:href="#m5b2af9e1fb" x="132.834938" y="188.111185" style="fill: #2ca02c; stroke: #2ca02c"/>
     <use xlink:href="#m5b2af9e1fb" x="140.770938" y="188.111185" style="fill: #2ca02c; stroke: #2ca02c"/>
     <use xlink:href="#m5b2af9e1fb" x="144.738938" y="196.015501" style="fill: #2ca02c; stroke: #2ca02c"/>
     <use xlink:href="#m5b2af9e1fb" x="156.642938" y="217.447604" style="fill: #2ca02c; stroke: #2ca02c"/>
     <use xlink:href="#m5b2af9e1fb" x="168.546938" y="203.919818" style="fill: #2ca02c; stroke: #2ca02c"/>
     <use xlink:href="#m5b2af9e1fb" x="172.514938" y="227.632769" style="fill: #2ca02c; stroke: #2ca02c"/>
     <use xlink:href="#m5b2af9e1fb" x="180.450938" y="232.902313" style="fill: #2ca02c; stroke: #2ca02c"/>
     <use xlink:href="#m5b2af9e1fb" x="188.386937" y="232.902313" style="fill: #2ca02c; stroke: #2ca02c"/>
     <use xlink:href="#m5b2af9e1fb" x="192.354938" y="246.076175" style="fill: #2ca02c; stroke: #2ca02c"/>
     <use xlink:href="#m5b2af9e1fb" x="204.258938" y="233.334888" style="fill: #2ca02c; stroke: #2ca02c"/>
     <use xlink:href="#m5b2af9e1fb" x="216.162937" y="240.80663" style="fill: #2ca02c; stroke: #2ca02c"/>
     <use xlink:href="#m5b2af9e1fb" x="220.130938" y="251.345719" style="fill: #2ca02c; stroke: #2ca02c"/>
     <use xlink:href="#m5b2af9e1fb" x="228.066937" y="253.980491" style="fill: #2ca02c; stroke: #2ca02c"/>
     <use xlink:href="#m5b2af9e1fb" x="236.002938" y="253.980491" style="fill: #2ca02c; stroke: #2ca02c"/>
     <use xlink:href="#m5b2af9e1fb" x="239.970938" y="259.250036" style="fill: #2ca02c; stroke: #2ca02c"/>
     <use xlink:href="#m5b2af9e1fb" x="251.874938" y="262.461574" style="fill: #2ca02c; stroke: #2ca02c"/>
     <use xlink:href="#m5b2af9e1fb" x="263.778937" y="269.789125" style="fill: #2ca02c; stroke: #2ca02c"/>
     <use xlink:href="#m5b2af9e1fb" x="267.746938" y="256.615264" style="fill: #2ca02c; stroke: #2ca02c"/>
     <use xlink:href="#m5b2af9e1fb" x="275.682938" y="259.250036" style="fill: #2ca02c; stroke: #2ca02c"/>
     <use xlink:href="#m5b2af9e1fb" x="283.618938" y="264.519581" style="fill: #2ca02c; stroke: #2ca02c"/>
     <use xlink:href="#m5b2af9e1fb" x="287.586937" y="259.250036" style="fill: #2ca02c; stroke: #2ca02c"/>
     <use xlink:href="#m5b2af9e1fb" x="299.490938" y="266.433395" style="fill: #2ca02c; stroke: #2ca02c"/>
     <use xlink:href="#m5b2af9e1fb" x="315.362937" y="272.423897" style="fill: #2ca02c; stroke: #2ca02c"/>
     <use xlink:href="#m5b2af9e1fb" x="331.234938" y="261.884808" style="fill: #2ca02c; stroke: #2ca02c"/>
     <use xlink:href="#m5b2af9e1fb" x="347.106938" y="264.519581" style="fill: #2ca02c; stroke: #2ca02c"/>
     <use xlink:href="#m5b2af9e1fb" x="362.978938" y="269.789125" style="fill: #2ca02c; stroke: #2ca02c"/>
     <use xlink:href="#m5b2af9e1fb" x="378.850938" y="267.154353" style="fill: #2ca02c; stroke: #2ca02c"/>
    </g>
   </g>
   <g id="line2d_30">
    <defs>
     <path id="m2c75f8ed43" d="M 0 3 
C 0.795609 3 1.55874 2.683901 2.12132 2.12132 
C 2.683901 1.55874 3 0.795609 3 0 
C 3 -0.795609 2.683901 -1.55874 2.12132 -2.12132 
C 1.55874 -2.683901 0.795609 -3 0 -3 
C -0.795609 -3 -1.55874 -2.683901 -2.12132 -2.12132 
C -2.683901 -1.55874 -3 -0.795609 -3 0 
C -3 0.795609 -2.683901 1.55874 -2.12132 2.12132 
C -1.55874 2.683901 -0.795609 3 0 3 
z
" style="stroke: #d62728"/>
    </defs>
    <g clip-path="url(#pb29c5caca8)">
     <use xlink:href="#m2c75f8ed43" x="61.410938" y="19.485759" style="fill: #d62728; stroke: #d62728"/>
     <use xlink:href="#m2c75f8ed43" x="77.282938" y="59.007343" style="fill: #d62728; stroke: #d62728"/>
     <use xlink:href="#m2c75f8ed43" x="93.154938" y="103.798472" style="fill: #d62728; stroke: #d62728"/>
     <use xlink:href="#m2c75f8ed43" x="109.026938" y="106.433244" style="fill: #d62728; stroke: #d62728"/>
     <use xlink:href="#m2c75f8ed43" x="124.898938" y="161.763462" style="fill: #d62728; stroke: #d62728"/>
     <use xlink:href="#m2c75f8ed43" x="140.770938" y="188.111185" style="fill: #d62728; stroke: #d62728"/>
     <use xlink:href="#m2c75f8ed43" x="156.642938" y="180.206868" style="fill: #d62728; stroke: #d62728"/>
     <use xlink:href="#m2c75f8ed43" x="172.514938" y="211.824135" style="fill: #d62728; stroke: #d62728"/>
     <use xlink:href="#m2c75f8ed43" x="188.386937" y="238.171858" style="fill: #d62728; stroke: #d62728"/>
     <use xlink:href="#m2c75f8ed43" x="204.258938" y="243.441402" style="fill: #d62728; stroke: #d62728"/>
     <use xlink:href="#m2c75f8ed43" x="220.130938" y="248.710947" style="fill: #d62728; stroke: #d62728"/>
     <use xlink:href="#m2c75f8ed43" x="236.002938" y="256.615264" style="fill: #d62728; stroke: #d62728"/>
     <use xlink:href="#m2c75f8ed43" x="251.874938" y="253.980491" style="fill: #d62728; stroke: #d62728"/>
     <use xlink:href="#m2c75f8ed43" x="267.746938" y="259.250036" style="fill: #d62728; stroke: #d62728"/>
     <use xlink:href="#m2c75f8ed43" x="283.618938" y="259.250036" style="fill: #d62728; stroke: #d62728"/>
     <use xlink:href="#m2c75f8ed43" x="299.490938" y="261.884808" style="fill: #d62728; stroke: #d62728"/>
     <use xlink:href="#m2c75f8ed43" x="315.362937" y="269.789125" style="fill: #d62728; stroke: #d62728"/>
     <use xlink:href="#m2c75f8ed43" x="331.234938" y="264.519581" style="fill: #d62728; stroke: #d62728"/>
     <use xlink:href="#m2c75f8ed43" x="347.106938" y="272.423897" style="fill: #d62728; stroke: #d62728"/>
     <use xlink:href="#m2c75f8ed43" x="362.978938" y="264.519581" style="fill: #d62728; stroke: #d62728"/>
     <use xlink:href="#m2c75f8ed43" x="378.850938" y="272.423897" style="fill: #d62728; stroke: #d62728"/>
    </g>
   </g>
   <g id="patch_3">
    <path d="M 61.410938 279.010828 
L 61.410938 12.898828 
" style="fill: none; stroke: #000000; stroke-width: 0.8; stroke-linejoin: miter; stroke-linecap: square"/>
   </g>
   <g id="patch_4">
    <path d="M 418.530938 279.010828 
L 418.530938 12.898828 
" style="fill: none; stroke: #000000; stroke-width: 0.8; stroke-linejoin: miter; stroke-linecap: square"/>
   </g>
   <g id="patch_5">
    <path d="M 61.410938 279.010828 
L 418.530938 279.010828 
" style="fill: none; stroke: #000000; stroke-width: 0.8; stroke-linejoin: miter; stroke-linecap: square"/>
   </g>
   <g id="patch_6">
    <path d="M 61.410938 12.898828 
L 418.530938 12.898828 
" style="fill: none; stroke: #000000; stroke-width: 0.8; stroke-linejoin: miter; stroke-linecap: square"/>
   </g>
   <g id="text_14">
    <!-- $\tau_{\mathrm{0.99 W}}=0.603(44) \mu s$ -->
    <g style="fill: #1f77b4" transform="translate(204.258938 212.482828)scale(0.2 -0.2)">
     <defs>
      <path id="DejaVuSans-Oblique-3c4" d="M 2103 638 
Q 2188 488 2525 488 
L 2800 488 
L 2706 0 
L 2363 0 
Q 1800 0 1600 300 
Q 1403 606 1534 1269 
L 1856 2925 
L 541 2925 
L 653 3500 
L 3881 3500 
L 3769 2925 
L 2444 2925 
L 2113 1234 
Q 2025 781 2103 638 
z
" transform="scale(0.015625)"/>
      <path id="DejaVuSans-39" d="M 703 97 
L 703 672 
Q 941 559 1184 500 
Q 1428 441 1663 441 
Q 2288 441 2617 861 
Q 2947 1281 2994 2138 
Q 2813 1869 2534 1725 
Q 2256 1581 1919 1581 
Q 1219 1581 811 2004 
Q 403 2428 403 3163 
Q 403 3881 828 4315 
Q 1253 4750 1959 4750 
Q 2769 4750 3195 4129 
Q 3622 3509 3622 2328 
Q 3622 1225 3098 567 
Q 2575 -91 1691 -91 
Q 1453 -91 1209 -44 
Q 966 3 703 97 
z
M 1959 2075 
Q 2384 2075 2632 2365 
Q 2881 2656 2881 3163 
Q 2881 3666 2632 3958 
Q 2384 4250 1959 4250 
Q 1534 4250 1286 3958 
Q 1038 3666 1038 3163 
Q 1038 2656 1286 2365 
Q 1534 2075 1959 2075 
z
" transform="scale(0.015625)"/>
      <path id="DejaVuSans-57" d="M 213 4666 
L 850 4666 
L 1831 722 
L 2809 4666 
L 3519 4666 
L 4500 722 
L 5478 4666 
L 6119 4666 
L 4947 0 
L 4153 0 
L 3169 4050 
L 2175 0 
L 1381 0 
L 213 4666 
z
" transform="scale(0.015625)"/>
      <path id="DejaVuSans-3d" d="M 678 2906 
L 4684 2906 
L 4684 2381 
L 678 2381 
L 678 2906 
z
M 678 1631 
L 4684 1631 
L 4684 1100 
L 678 1100 
L 678 1631 
z
" transform="scale(0.015625)"/>
     </defs>
     <use xlink:href="#DejaVuSans-Oblique-3c4" transform="translate(0 0.125)"/>
     <use xlink:href="#DejaVuSans-30" transform="translate(60.205078 -16.28125)scale(0.7)"/>
     <use xlink:href="#DejaVuSans-2e" transform="translate(104.741211 -16.28125)scale(0.7)"/>
     <use xlink:href="#DejaVuSans-39" transform="translate(126.992188 -16.28125)scale(0.7)"/>
     <use xlink:href="#DejaVuSans-39" transform="translate(171.52832 -16.28125)scale(0.7)"/>
     <use xlink:href="#DejaVuSans-57" transform="translate(216.064453 -16.28125)scale(0.7)"/>
     <use xlink:href="#DejaVuSans-3d" transform="translate(307.495117 0.125)"/>
     <use xlink:href="#DejaVuSans-30" transform="translate(410.766602 0.125)"/>
     <use xlink:href="#DejaVuSans-2e" transform="translate(474.389648 0.125)"/>
     <use xlink:href="#DejaVuSans-36" transform="translate(506.176758 0.125)"/>
     <use xlink:href="#DejaVuSans-30" transform="translate(569.799805 0.125)"/>
     <use xlink:href="#DejaVuSans-33" transform="translate(633.422852 0.125)"/>
     <use xlink:href="#DejaVuSans-28" transform="translate(697.045898 0.125)"/>
     <use xlink:href="#DejaVuSans-34" transform="translate(736.05957 0.125)"/>
     <use xlink:href="#DejaVuSans-34" transform="translate(799.682617 0.125)"/>
     <use xlink:href="#DejaVuSans-29" transform="translate(863.305664 0.125)"/>
     <use xlink:href="#DejaVuSans-Oblique-3bc" transform="translate(902.319336 0.125)"/>
     <use xlink:href="#DejaVuSans-Oblique-73" transform="translate(965.942383 0.125)"/>
    </g>
   </g>
   <g id="text_15">
    <!-- $\tau_{\mathrm{0.59 W}}=0.70(21) \mu s$ -->
    <g style="fill: #ff7f0e" transform="translate(204.258938 188.532748)scale(0.2 -0.2)">
     <defs>
      <path id="DejaVuSans-37" d="M 525 4666 
L 3525 4666 
L 3525 4397 
L 1831 0 
L 1172 0 
L 2766 4134 
L 525 4134 
L 525 4666 
z
" transform="scale(0.015625)"/>
     </defs>
     <use xlink:href="#DejaVuSans-Oblique-3c4" transform="translate(0 0.125)"/>
     <use xlink:href="#DejaVuSans-30" transform="translate(60.205078 -16.28125)scale(0.7)"/>
     <use xlink:href="#DejaVuSans-2e" transform="translate(104.741211 -16.28125)scale(0.7)"/>
     <use xlink:href="#DejaVuSans-35" transform="translate(126.992188 -16.28125)scale(0.7)"/>
     <use xlink:href="#DejaVuSans-39" transform="translate(167.67832 -16.28125)scale(0.7)"/>
     <use xlink:href="#DejaVuSans-57" transform="translate(212.214453 -16.28125)scale(0.7)"/>
     <use xlink:href="#DejaVuSans-3d" transform="translate(303.645117 0.125)"/>
     <use xlink:href="#DejaVuSans-30" transform="translate(406.916602 0.125)"/>
     <use xlink:href="#DejaVuSans-2e" transform="translate(470.539648 0.125)"/>
     <use xlink:href="#DejaVuSans-37" transform="translate(494.576758 0.125)"/>
     <use xlink:href="#DejaVuSans-30" transform="translate(558.199805 0.125)"/>
     <use xlink:href="#DejaVuSans-28" transform="translate(621.822852 0.125)"/>
     <use xlink:href="#DejaVuSans-32" transform="translate(660.836523 0.125)"/>
     <use xlink:href="#DejaVuSans-31" transform="translate(724.45957 0.125)"/>
     <use xlink:href="#DejaVuSans-29" transform="translate(788.082617 0.125)"/>
     <use xlink:href="#DejaVuSans-Oblique-3bc" transform="translate(827.096289 0.125)"/>
     <use xlink:href="#DejaVuSans-Oblique-73" transform="translate(890.719336 0.125)"/>
    </g>
   </g>
   <g id="text_16">
    <!-- $\tau_{\mathrm{0.47 W}}=0.84(11) \mu s$ -->
    <g style="fill: #2ca02c" transform="translate(204.258938 164.582668)scale(0.2 -0.2)">
     <use xlink:href="#DejaVuSans-Oblique-3c4" transform="translate(0 0.125)"/>
     <use xlink:href="#DejaVuSans-30" transform="translate(60.205078 -16.28125)scale(0.7)"/>
     <use xlink:href="#DejaVuSans-2e" transform="translate(104.741211 -16.28125)scale(0.7)"/>
     <use xlink:href="#DejaVuSans-34" transform="translate(126.992188 -16.28125)scale(0.7)"/>
     <use xlink:href="#DejaVuSans-37" transform="translate(171.52832 -16.28125)scale(0.7)"/>
     <use xlink:href="#DejaVuSans-57" transform="translate(216.064453 -16.28125)scale(0.7)"/>
     <use xlink:href="#DejaVuSans-3d" transform="translate(307.495117 0.125)"/>
     <use xlink:href="#DejaVuSans-30" transform="translate(410.766602 0.125)"/>
     <use xlink:href="#DejaVuSans-2e" transform="translate(474.389648 0.125)"/>
     <use xlink:href="#DejaVuSans-38" transform="translate(503.551758 0.125)"/>
     <use xlink:href="#DejaVuSans-34" transform="translate(567.174805 0.125)"/>
     <use xlink:href="#DejaVuSans-28" transform="translate(630.797852 0.125)"/>
     <use xlink:href="#DejaVuSans-31" transform="translate(669.811523 0.125)"/>
     <use xlink:href="#DejaVuSans-31" transform="translate(733.43457 0.125)"/>
     <use xlink:href="#DejaVuSans-29" transform="translate(797.057617 0.125)"/>
     <use xlink:href="#DejaVuSans-Oblique-3bc" transform="translate(836.071289 0.125)"/>
     <use xlink:href="#DejaVuSans-Oblique-73" transform="translate(899.694336 0.125)"/>
    </g>
   </g>
   <g id="text_17">
    <!-- $\tau_{\mathrm{0.38 W}}=0.96(14) \mu s$ -->
    <g style="fill: #d62728" transform="translate(204.258938 135.310348)scale(0.2 -0.2)">
     <use xlink:href="#DejaVuSans-Oblique-3c4" transform="translate(0 0.125)"/>
     <use xlink:href="#DejaVuSans-30" transform="translate(60.205078 -16.28125)scale(0.7)"/>
     <use xlink:href="#DejaVuSans-2e" transform="translate(104.741211 -16.28125)scale(0.7)"/>
     <use xlink:href="#DejaVuSans-33" transform="translate(126.992188 -16.28125)scale(0.7)"/>
     <use xlink:href="#DejaVuSans-38" transform="translate(171.52832 -16.28125)scale(0.7)"/>
     <use xlink:href="#DejaVuSans-57" transform="translate(216.064453 -16.28125)scale(0.7)"/>
     <use xlink:href="#DejaVuSans-3d" transform="translate(307.495117 0.125)"/>
     <use xlink:href="#DejaVuSans-30" transform="translate(410.766602 0.125)"/>
     <use xlink:href="#DejaVuSans-2e" transform="translate(474.389648 0.125)"/>
     <use xlink:href="#DejaVuSans-39" transform="translate(506.176758 0.125)"/>
     <use xlink:href="#DejaVuSans-36" transform="translate(569.799805 0.125)"/>
     <use xlink:href="#DejaVuSans-28" transform="translate(633.422852 0.125)"/>
     <use xlink:href="#DejaVuSans-31" transform="translate(672.436523 0.125)"/>
     <use xlink:href="#DejaVuSans-34" transform="translate(736.05957 0.125)"/>
     <use xlink:href="#DejaVuSans-29" transform="translate(799.682617 0.125)"/>
     <use xlink:href="#DejaVuSans-Oblique-3bc" transform="translate(838.696289 0.125)"/>
     <use xlink:href="#DejaVuSans-Oblique-73" transform="translate(902.319336 0.125)"/>
    </g>
   </g>
   <g id="legend_1">
    <g id="patch_7">
     <path d="M 229.335938 57.726328 
L 410.130938 57.726328 
Q 412.530938 57.726328 412.530938 55.326328 
L 412.530938 21.298828 
Q 412.530938 18.898828 410.130938 18.898828 
L 229.335938 18.898828 
Q 226.935938 18.898828 226.935938 21.298828 
L 226.935938 55.326328 
Q 226.935938 57.726328 229.335938 57.726328 
z
" style="fill: #ffffff; opacity: 0.8; stroke: #cccccc; stroke-linejoin: miter"/>
    </g>
    <g id="LineCollection_5">
     <path d="M 243.735938 34.616953 
L 243.735938 22.616953 
" style="fill: none; stroke: #1f77b4; stroke-width: 1.5"/>
    </g>
    <g id="line2d_31"/>
    <g id="line2d_32">
     <g>
      <use xlink:href="#mcceb8b8273" x="243.735938" y="28.616953" style="fill: #1f77b4; stroke: #1f77b4"/>
     </g>
    </g>
    <g id="text_18">
     <!-- 0.99 W -->
     <g transform="translate(265.335938 32.816953)scale(0.12 -0.12)">
      <use xlink:href="#DejaVuSans-30"/>
      <use xlink:href="#DejaVuSans-2e" x="63.623047"/>
      <use xlink:href="#DejaVuSans-39" x="95.410156"/>
      <use xlink:href="#DejaVuSans-39" x="159.033203"/>
      <use xlink:href="#DejaVuSans-20" x="222.65625"/>
      <use xlink:href="#DejaVuSans-57" x="254.443359"/>
     </g>
    </g>
    <g id="LineCollection_6">
     <path d="M 243.735938 52.230703 
L 243.735938 40.230703 
" style="fill: none; stroke: #ff7f0e; stroke-width: 1.5"/>
    </g>
    <g id="line2d_33"/>
    <g id="line2d_34">
     <g>
      <use xlink:href="#mff6e4f8517" x="243.735938" y="46.230703" style="fill: #ff7f0e; stroke: #ff7f0e"/>
     </g>
    </g>
    <g id="text_19">
     <!-- 0.59 W -->
     <g transform="translate(265.335938 50.430703)scale(0.12 -0.12)">
      <use xlink:href="#DejaVuSans-30"/>
      <use xlink:href="#DejaVuSans-2e" x="63.623047"/>
      <use xlink:href="#DejaVuSans-35" x="95.410156"/>
      <use xlink:href="#DejaVuSans-39" x="159.033203"/>
      <use xlink:href="#DejaVuSans-20" x="222.65625"/>
      <use xlink:href="#DejaVuSans-57" x="254.443359"/>
     </g>
    </g>
    <g id="LineCollection_7">
     <path d="M 343.733438 34.616953 
L 343.733438 22.616953 
" style="fill: none; stroke: #2ca02c; stroke-width: 1.5"/>
    </g>
    <g id="line2d_35"/>
    <g id="line2d_36">
     <g>
      <use xlink:href="#m5b2af9e1fb" x="343.733438" y="28.616953" style="fill: #2ca02c; stroke: #2ca02c"/>
     </g>
    </g>
    <g id="text_20">
     <!-- 0.47 W -->
     <g transform="translate(365.333438 32.816953)scale(0.12 -0.12)">
      <use xlink:href="#DejaVuSans-30"/>
      <use xlink:href="#DejaVuSans-2e" x="63.623047"/>
      <use xlink:href="#DejaVuSans-34" x="95.410156"/>
      <use xlink:href="#DejaVuSans-37" x="159.033203"/>
      <use xlink:href="#DejaVuSans-20" x="222.65625"/>
      <use xlink:href="#DejaVuSans-57" x="254.443359"/>
     </g>
    </g>
    <g id="LineCollection_8">
     <path d="M 343.733438 52.230703 
L 343.733438 40.230703 
" style="fill: none; stroke: #d62728; stroke-width: 1.5"/>
    </g>
    <g id="line2d_37"/>
    <g id="line2d_38">
     <g>
      <use xlink:href="#m2c75f8ed43" x="343.733438" y="46.230703" style="fill: #d62728; stroke: #d62728"/>
     </g>
    </g>
    <g id="text_21">
     <!-- 0.38 W -->
     <g transform="translate(365.333438 50.430703)scale(0.12 -0.12)">
      <use xlink:href="#DejaVuSans-30"/>
      <use xlink:href="#DejaVuSans-2e" x="63.623047"/>
      <use xlink:href="#DejaVuSans-33" x="95.410156"/>
      <use xlink:href="#DejaVuSans-38" x="159.033203"/>
      <use xlink:href="#DejaVuSans-20" x="222.65625"/>
      <use xlink:href="#DejaVuSans-57" x="254.443359"/>
     </g>
    </g>
   </g>
  </g>
 </g>
 <defs>
  <clipPath id="pb29c5caca8">
   <rect x="61.410938" y="12.898828" width="357.12" height="266.112"/>
  </clipPath>
 </defs>
</svg>
