<?xml version="1.0" encoding="utf-8" standalone="no"?>
<!DOCTYPE svg PUBLIC "-//W3C//DTD SVG 1.1//EN"
  "http://www.w3.org/Graphics/SVG/1.1/DTD/svg11.dtd">
<svg xmlns:xlink="http://www.w3.org/1999/xlink" width="435.274687pt" height="325.429187pt" viewBox="0 0 435.274687 325.429187" xmlns="http://www.w3.org/2000/svg" version="1.1">
 <defs>
  <style type="text/css">*{stroke-linejoin: round; stroke-linecap: butt}</style>
 </defs>
 <g id="figure_1">
  <g id="patch_1">
   <path d="M 0 325.429187 
L 435.274687 325.429187 
L 435.274687 0 
L 0 0 
L 0 325.429187 
z
" style="fill: none"/>
  </g>
  <g id="axes_1">
   <g id="patch_2">
    <path d="M 61.410938 273.312 
L 418.530938 273.312 
L 418.530938 7.2 
L 61.410938 7.2 
L 61.410938 273.312 
z
" style="fill: none"/>
   </g>
   <g id="matplotlib.axis_1">
    <g id="xtick_1">
     <g id="line2d_1">
      <path d="M 61.410938 273.312 
L 61.410938 7.2 
" clip-path="url(#p328bf03e80)" style="fill: none; stroke: #b0b0b0; stroke-width: 0.8; stroke-linecap: square"/>
     </g>
     <g id="line2d_2">
      <defs>
       <path id="md39032bed2" d="M 0 0 
L 0 3.5 
" style="stroke: #000000; stroke-width: 0.8"/>
      </defs>
      <g>
       <use xlink:href="#md39032bed2" x="61.410938" y="273.312" style="stroke: #000000; stroke-width: 0.8"/>
      </g>
     </g>
     <g id="text_1">
      <!-- 0 -->
      <g transform="translate(56.639063 291.709656)scale(0.15 -0.15)">
       <defs>
        <path id="DejaVuSans-30" d="M 2034 4250 
Q 1547 4250 1301 3770 
Q 1056 3291 1056 2328 
Q 1056 1369 1301 889 
Q 1547 409 2034 409 
Q 2525 409 2770 889 
Q 3016 1369 3016 2328 
Q 3016 3291 2770 3770 
Q 2525 4250 2034 4250 
z
M 2034 4750 
Q 2819 4750 3233 4129 
Q 3647 3509 3647 2328 
Q 3647 1150 3233 529 
Q 2819 -91 2034 -91 
Q 1250 -91 836 529 
Q 422 1150 422 2328 
Q 422 3509 836 4129 
Q 1250 4750 2034 4750 
z
" transform="scale(0.015625)"/>
       </defs>
       <use xlink:href="#DejaVuSans-30"/>
      </g>
     </g>
    </g>
    <g id="xtick_2">
     <g id="line2d_3">
      <path d="M 132.834938 273.312 
L 132.834938 7.2 
" clip-path="url(#p328bf03e80)" style="fill: none; stroke: #b0b0b0; stroke-width: 0.8; stroke-linecap: square"/>
     </g>
     <g id="line2d_4">
      <g>
       <use xlink:href="#md39032bed2" x="132.834938" y="273.312" style="stroke: #000000; stroke-width: 0.8"/>
      </g>
     </g>
     <g id="text_2">
      <!-- 2 -->
      <g transform="translate(128.063063 291.709656)scale(0.15 -0.15)">
       <defs>
        <path id="DejaVuSans-32" d="M 1228 531 
L 3431 531 
L 3431 0 
L 469 0 
L 469 531 
Q 828 903 1448 1529 
Q 2069 2156 2228 2338 
Q 2531 2678 2651 2914 
Q 2772 3150 2772 3378 
Q 2772 3750 2511 3984 
Q 2250 4219 1831 4219 
Q 1534 4219 1204 4116 
Q 875 4013 500 3803 
L 500 4441 
Q 881 4594 1212 4672 
Q 1544 4750 1819 4750 
Q 2544 4750 2975 4387 
Q 3406 4025 3406 3419 
Q 3406 3131 3298 2873 
Q 3191 2616 2906 2266 
Q 2828 2175 2409 1742 
Q 1991 1309 1228 531 
z
" transform="scale(0.015625)"/>
       </defs>
       <use xlink:href="#DejaVuSans-32"/>
      </g>
     </g>
    </g>
    <g id="xtick_3">
     <g id="line2d_5">
      <path d="M 204.258938 273.312 
L 204.258938 7.2 
" clip-path="url(#p328bf03e80)" style="fill: none; stroke: #b0b0b0; stroke-width: 0.8; stroke-linecap: square"/>
     </g>
     <g id="line2d_6">
      <g>
       <use xlink:href="#md39032bed2" x="204.258938" y="273.312" style="stroke: #000000; stroke-width: 0.8"/>
      </g>
     </g>
     <g id="text_3">
      <!-- 4 -->
      <g transform="translate(199.487063 291.709656)scale(0.15 -0.15)">
       <defs>
        <path id="DejaVuSans-34" d="M 2419 4116 
L 825 1625 
L 2419 1625 
L 2419 4116 
z
M 2253 4666 
L 3047 4666 
L 3047 1625 
L 3713 1625 
L 3713 1100 
L 3047 1100 
L 3047 0 
L 2419 0 
L 2419 1100 
L 313 1100 
L 313 1709 
L 2253 4666 
z
" transform="scale(0.015625)"/>
       </defs>
       <use xlink:href="#DejaVuSans-34"/>
      </g>
     </g>
    </g>
    <g id="xtick_4">
     <g id="line2d_7">
      <path d="M 275.682938 273.312 
L 275.682938 7.2 
" clip-path="url(#p328bf03e80)" style="fill: none; stroke: #b0b0b0; stroke-width: 0.8; stroke-linecap: square"/>
     </g>
     <g id="line2d_8">
      <g>
       <use xlink:href="#md39032bed2" x="275.682938" y="273.312" style="stroke: #000000; stroke-width: 0.8"/>
      </g>
     </g>
     <g id="text_4">
      <!-- 6 -->
      <g transform="translate(270.911063 291.709656)scale(0.15 -0.15)">
       <defs>
        <path id="DejaVuSans-36" d="M 2113 2584 
Q 1688 2584 1439 2293 
Q 1191 2003 1191 1497 
Q 1191 994 1439 701 
Q 1688 409 2113 409 
Q 2538 409 2786 701 
Q 3034 994 3034 1497 
Q 3034 2003 2786 2293 
Q 2538 2584 2113 2584 
z
M 3366 4563 
L 3366 3988 
Q 3128 4100 2886 4159 
Q 2644 4219 2406 4219 
Q 1781 4219 1451 3797 
Q 1122 3375 1075 2522 
Q 1259 2794 1537 2939 
Q 1816 3084 2150 3084 
Q 2853 3084 3261 2657 
Q 3669 2231 3669 1497 
Q 3669 778 3244 343 
Q 2819 -91 2113 -91 
Q 1303 -91 875 529 
Q 447 1150 447 2328 
Q 447 3434 972 4092 
Q 1497 4750 2381 4750 
Q 2619 4750 2861 4703 
Q 3103 4656 3366 4563 
z
" transform="scale(0.015625)"/>
       </defs>
       <use xlink:href="#DejaVuSans-36"/>
      </g>
     </g>
    </g>
    <g id="xtick_5">
     <g id="line2d_9">
      <path d="M 347.106938 273.312 
L 347.106938 7.2 
" clip-path="url(#p328bf03e80)" style="fill: none; stroke: #b0b0b0; stroke-width: 0.8; stroke-linecap: square"/>
     </g>
     <g id="line2d_10">
      <g>
       <use xlink:href="#md39032bed2" x="347.106938" y="273.312" style="stroke: #000000; stroke-width: 0.8"/>
      </g>
     </g>
     <g id="text_5">
      <!-- 8 -->
      <g transform="translate(342.335063 291.709656)scale(0.15 -0.15)">
       <defs>
        <path id="DejaVuSans-38" d="M 2034 2216 
Q 1584 2216 1326 1975 
Q 1069 1734 1069 1313 
Q 1069 891 1326 650 
Q 1584 409 2034 409 
Q 2484 409 2743 651 
Q 3003 894 3003 1313 
Q 3003 1734 2745 1975 
Q 2488 2216 2034 2216 
z
M 1403 2484 
Q 997 2584 770 2862 
Q 544 3141 544 3541 
Q 544 4100 942 4425 
Q 1341 4750 2034 4750 
Q 2731 4750 3128 4425 
Q 3525 4100 3525 3541 
Q 3525 3141 3298 2862 
Q 3072 2584 2669 2484 
Q 3125 2378 3379 2068 
Q 3634 1759 3634 1313 
Q 3634 634 3220 271 
Q 2806 -91 2034 -91 
Q 1263 -91 848 271 
Q 434 634 434 1313 
Q 434 1759 690 2068 
Q 947 2378 1403 2484 
z
M 1172 3481 
Q 1172 3119 1398 2916 
Q 1625 2713 2034 2713 
Q 2441 2713 2670 2916 
Q 2900 3119 2900 3481 
Q 2900 3844 2670 4047 
Q 2441 4250 2034 4250 
Q 1625 4250 1398 4047 
Q 1172 3844 1172 3481 
z
" transform="scale(0.015625)"/>
       </defs>
       <use xlink:href="#DejaVuSans-38"/>
      </g>
     </g>
    </g>
    <g id="xtick_6">
     <g id="line2d_11">
      <path d="M 418.530938 273.312 
L 418.530938 7.2 
" clip-path="url(#p328bf03e80)" style="fill: none; stroke: #b0b0b0; stroke-width: 0.8; stroke-linecap: square"/>
     </g>
     <g id="line2d_12">
      <g>
       <use xlink:href="#md39032bed2" x="418.530938" y="273.312" style="stroke: #000000; stroke-width: 0.8"/>
      </g>
     </g>
     <g id="text_6">
      <!-- 10 -->
      <g transform="translate(408.987188 291.709656)scale(0.15 -0.15)">
       <defs>
        <path id="DejaVuSans-31" d="M 794 531 
L 1825 531 
L 1825 4091 
L 703 3866 
L 703 4441 
L 1819 4666 
L 2450 4666 
L 2450 531 
L 3481 531 
L 3481 0 
L 794 0 
L 794 531 
z
" transform="scale(0.015625)"/>
       </defs>
       <use xlink:href="#DejaVuSans-31"/>
       <use xlink:href="#DejaVuSans-30" x="63.623047"/>
      </g>
     </g>
    </g>
    <g id="text_7">
     <!-- Pump Time ($ms$) -->
     <g transform="translate(157.570938 314.029187)scale(0.2 -0.2)">
      <defs>
       <path id="DejaVuSans-50" d="M 1259 4147 
L 1259 2394 
L 2053 2394 
Q 2494 2394 2734 2622 
Q 2975 2850 2975 3272 
Q 2975 3691 2734 3919 
Q 2494 4147 2053 4147 
L 1259 4147 
z
M 628 4666 
L 2053 4666 
Q 2838 4666 3239 4311 
Q 3641 3956 3641 3272 
Q 3641 2581 3239 2228 
Q 2838 1875 2053 1875 
L 1259 1875 
L 1259 0 
L 628 0 
L 628 4666 
z
" transform="scale(0.015625)"/>
       <path id="DejaVuSans-75" d="M 544 1381 
L 544 3500 
L 1119 3500 
L 1119 1403 
Q 1119 906 1312 657 
Q 1506 409 1894 409 
Q 2359 409 2629 706 
Q 2900 1003 2900 1516 
L 2900 3500 
L 3475 3500 
L 3475 0 
L 2900 0 
L 2900 538 
Q 2691 219 2414 64 
Q 2138 -91 1772 -91 
Q 1169 -91 856 284 
Q 544 659 544 1381 
z
M 1991 3584 
L 1991 3584 
z
" transform="scale(0.015625)"/>
       <path id="DejaVuSans-6d" d="M 3328 2828 
Q 3544 3216 3844 3400 
Q 4144 3584 4550 3584 
Q 5097 3584 5394 3201 
Q 5691 2819 5691 2113 
L 5691 0 
L 5113 0 
L 5113 2094 
Q 5113 2597 4934 2840 
Q 4756 3084 4391 3084 
Q 3944 3084 3684 2787 
Q 3425 2491 3425 1978 
L 3425 0 
L 2847 0 
L 2847 2094 
Q 2847 2600 2669 2842 
Q 2491 3084 2119 3084 
Q 1678 3084 1418 2786 
Q 1159 2488 1159 1978 
L 1159 0 
L 581 0 
L 581 3500 
L 1159 3500 
L 1159 2956 
Q 1356 3278 1631 3431 
Q 1906 3584 2284 3584 
Q 2666 3584 2933 3390 
Q 3200 3197 3328 2828 
z
" transform="scale(0.015625)"/>
       <path id="DejaVuSans-70" d="M 1159 525 
L 1159 -1331 
L 581 -1331 
L 581 3500 
L 1159 3500 
L 1159 2969 
Q 1341 3281 1617 3432 
Q 1894 3584 2278 3584 
Q 2916 3584 3314 3078 
Q 3713 2572 3713 1747 
Q 3713 922 3314 415 
Q 2916 -91 2278 -91 
Q 1894 -91 1617 61 
Q 1341 213 1159 525 
z
M 3116 1747 
Q 3116 2381 2855 2742 
Q 2594 3103 2138 3103 
Q 1681 3103 1420 2742 
Q 1159 2381 1159 1747 
Q 1159 1113 1420 752 
Q 1681 391 2138 391 
Q 2594 391 2855 752 
Q 3116 1113 3116 1747 
z
" transform="scale(0.015625)"/>
       <path id="DejaVuSans-20" transform="scale(0.015625)"/>
       <path id="DejaVuSans-54" d="M -19 4666 
L 3928 4666 
L 3928 4134 
L 2272 4134 
L 2272 0 
L 1638 0 
L 1638 4134 
L -19 4134 
L -19 4666 
z
" transform="scale(0.015625)"/>
       <path id="DejaVuSans-69" d="M 603 3500 
L 1178 3500 
L 1178 0 
L 603 0 
L 603 3500 
z
M 603 4863 
L 1178 4863 
L 1178 4134 
L 603 4134 
L 603 4863 
z
" transform="scale(0.015625)"/>
       <path id="DejaVuSans-65" d="M 3597 1894 
L 3597 1613 
L 953 1613 
Q 991 1019 1311 708 
Q 1631 397 2203 397 
Q 2534 397 2845 478 
Q 3156 559 3463 722 
L 3463 178 
Q 3153 47 2828 -22 
Q 2503 -91 2169 -91 
Q 1331 -91 842 396 
Q 353 884 353 1716 
Q 353 2575 817 3079 
Q 1281 3584 2069 3584 
Q 2775 3584 3186 3129 
Q 3597 2675 3597 1894 
z
M 3022 2063 
Q 3016 2534 2758 2815 
Q 2500 3097 2075 3097 
Q 1594 3097 1305 2825 
Q 1016 2553 972 2059 
L 3022 2063 
z
" transform="scale(0.015625)"/>
       <path id="DejaVuSans-28" d="M 1984 4856 
Q 1566 4138 1362 3434 
Q 1159 2731 1159 2009 
Q 1159 1288 1364 580 
Q 1569 -128 1984 -844 
L 1484 -844 
Q 1016 -109 783 600 
Q 550 1309 550 2009 
Q 550 2706 781 3412 
Q 1013 4119 1484 4856 
L 1984 4856 
z
" transform="scale(0.015625)"/>
       <path id="DejaVuSans-Oblique-6d" d="M 5747 2113 
L 5338 0 
L 4763 0 
L 5166 2094 
Q 5191 2228 5203 2325 
Q 5216 2422 5216 2491 
Q 5216 2772 5059 2928 
Q 4903 3084 4622 3084 
Q 4203 3084 3875 2770 
Q 3547 2456 3450 1953 
L 3066 0 
L 2491 0 
L 2900 2094 
Q 2925 2209 2937 2307 
Q 2950 2406 2950 2484 
Q 2950 2769 2794 2926 
Q 2638 3084 2363 3084 
Q 1938 3084 1609 2770 
Q 1281 2456 1184 1953 
L 800 0 
L 225 0 
L 909 3500 
L 1484 3500 
L 1375 2956 
Q 1609 3263 1923 3423 
Q 2238 3584 2597 3584 
Q 2978 3584 3223 3384 
Q 3469 3184 3519 2828 
Q 3781 3197 4126 3390 
Q 4472 3584 4856 3584 
Q 5306 3584 5551 3325 
Q 5797 3066 5797 2591 
Q 5797 2488 5784 2364 
Q 5772 2241 5747 2113 
z
" transform="scale(0.015625)"/>
       <path id="DejaVuSans-Oblique-73" d="M 3200 3397 
L 3091 2853 
Q 2863 2978 2609 3040 
Q 2356 3103 2088 3103 
Q 1634 3103 1373 2948 
Q 1113 2794 1113 2528 
Q 1113 2219 1719 2053 
Q 1766 2041 1788 2034 
L 1972 1978 
Q 2547 1819 2739 1644 
Q 2931 1469 2931 1166 
Q 2931 609 2489 259 
Q 2047 -91 1331 -91 
Q 1053 -91 747 -37 
Q 441 16 72 128 
L 184 722 
Q 500 559 806 475 
Q 1113 391 1394 391 
Q 1816 391 2080 572 
Q 2344 753 2344 1031 
Q 2344 1331 1650 1516 
L 1591 1531 
L 1394 1581 
Q 956 1697 753 1886 
Q 550 2075 550 2369 
Q 550 2928 970 3256 
Q 1391 3584 2113 3584 
Q 2397 3584 2667 3537 
Q 2938 3491 3200 3397 
z
" transform="scale(0.015625)"/>
       <path id="DejaVuSans-29" d="M 513 4856 
L 1013 4856 
Q 1481 4119 1714 3412 
Q 1947 2706 1947 2009 
Q 1947 1309 1714 600 
Q 1481 -109 1013 -844 
L 513 -844 
Q 928 -128 1133 580 
Q 1338 1288 1338 2009 
Q 1338 2731 1133 3434 
Q 928 4138 513 4856 
z
" transform="scale(0.015625)"/>
      </defs>
      <use xlink:href="#DejaVuSans-50" transform="translate(0 0.015625)"/>
      <use xlink:href="#DejaVuSans-75" transform="translate(60.302734 0.015625)"/>
      <use xlink:href="#DejaVuSans-6d" transform="translate(123.681641 0.015625)"/>
      <use xlink:href="#DejaVuSans-70" transform="translate(221.09375 0.015625)"/>
      <use xlink:href="#DejaVuSans-20" transform="translate(284.570312 0.015625)"/>
      <use xlink:href="#DejaVuSans-54" transform="translate(316.357422 0.015625)"/>
      <use xlink:href="#DejaVuSans-69" transform="translate(377.441406 0.015625)"/>
      <use xlink:href="#DejaVuSans-6d" transform="translate(405.224609 0.015625)"/>
      <use xlink:href="#DejaVuSans-65" transform="translate(502.636719 0.015625)"/>
      <use xlink:href="#DejaVuSans-20" transform="translate(564.160156 0.015625)"/>
      <use xlink:href="#DejaVuSans-28" transform="translate(595.947266 0.015625)"/>
      <use xlink:href="#DejaVuSans-Oblique-6d" transform="translate(634.960938 0.015625)"/>
      <use xlink:href="#DejaVuSans-Oblique-73" transform="translate(732.373047 0.015625)"/>
      <use xlink:href="#DejaVuSans-29" transform="translate(784.472656 0.015625)"/>
     </g>
    </g>
   </g>
   <g id="matplotlib.axis_2">
    <g id="ytick_1">
     <g id="line2d_13">
      <path d="M 61.410938 266.871731 
L 418.530938 266.871731 
" clip-path="url(#p328bf03e80)" style="fill: none; stroke: #b0b0b0; stroke-width: 0.8; stroke-linecap: square"/>
     </g>
     <g id="line2d_14">
      <defs>
       <path id="m6f3f5b6aff" d="M 0 0 
L -3.5 0 
" style="stroke: #000000; stroke-width: 0.8"/>
      </defs>
      <g>
       <use xlink:href="#m6f3f5b6aff" x="61.410938" y="266.871731" style="stroke: #000000; stroke-width: 0.8"/>
      </g>
     </g>
     <g id="text_8">
      <!-- 0.1 -->
      <g transform="translate(30.55625 272.570559)scale(0.15 -0.15)">
       <defs>
        <path id="DejaVuSans-2e" d="M 684 794 
L 1344 794 
L 1344 0 
L 684 0 
L 684 794 
z
" transform="scale(0.015625)"/>
       </defs>
       <use xlink:href="#DejaVuSans-30"/>
       <use xlink:href="#DejaVuSans-2e" x="63.623047"/>
       <use xlink:href="#DejaVuSans-31" x="95.410156"/>
      </g>
     </g>
    </g>
    <g id="ytick_2">
     <g id="line2d_15">
      <path d="M 61.410938 228.965088 
L 418.530938 228.965088 
" clip-path="url(#p328bf03e80)" style="fill: none; stroke: #b0b0b0; stroke-width: 0.8; stroke-linecap: square"/>
     </g>
     <g id="line2d_16">
      <g>
       <use xlink:href="#m6f3f5b6aff" x="61.410938" y="228.965088" style="stroke: #000000; stroke-width: 0.8"/>
      </g>
     </g>
     <g id="text_9">
      <!-- 0.2 -->
      <g transform="translate(30.55625 234.663916)scale(0.15 -0.15)">
       <use xlink:href="#DejaVuSans-30"/>
       <use xlink:href="#DejaVuSans-2e" x="63.623047"/>
       <use xlink:href="#DejaVuSans-32" x="95.410156"/>
      </g>
     </g>
    </g>
    <g id="ytick_3">
     <g id="line2d_17">
      <path d="M 61.410938 191.058446 
L 418.530938 191.058446 
" clip-path="url(#p328bf03e80)" style="fill: none; stroke: #b0b0b0; stroke-width: 0.8; stroke-linecap: square"/>
     </g>
     <g id="line2d_18">
      <g>
       <use xlink:href="#m6f3f5b6aff" x="61.410938" y="191.058446" style="stroke: #000000; stroke-width: 0.8"/>
      </g>
     </g>
     <g id="text_10">
      <!-- 0.3 -->
      <g transform="translate(30.55625 196.757274)scale(0.15 -0.15)">
       <defs>
        <path id="DejaVuSans-33" d="M 2597 2516 
Q 3050 2419 3304 2112 
Q 3559 1806 3559 1356 
Q 3559 666 3084 287 
Q 2609 -91 1734 -91 
Q 1441 -91 1130 -33 
Q 819 25 488 141 
L 488 750 
Q 750 597 1062 519 
Q 1375 441 1716 441 
Q 2309 441 2620 675 
Q 2931 909 2931 1356 
Q 2931 1769 2642 2001 
Q 2353 2234 1838 2234 
L 1294 2234 
L 1294 2753 
L 1863 2753 
Q 2328 2753 2575 2939 
Q 2822 3125 2822 3475 
Q 2822 3834 2567 4026 
Q 2313 4219 1838 4219 
Q 1578 4219 1281 4162 
Q 984 4106 628 3988 
L 628 4550 
Q 988 4650 1302 4700 
Q 1616 4750 1894 4750 
Q 2613 4750 3031 4423 
Q 3450 4097 3450 3541 
Q 3450 3153 3228 2886 
Q 3006 2619 2597 2516 
z
" transform="scale(0.015625)"/>
       </defs>
       <use xlink:href="#DejaVuSans-30"/>
       <use xlink:href="#DejaVuSans-2e" x="63.623047"/>
       <use xlink:href="#DejaVuSans-33" x="95.410156"/>
      </g>
     </g>
    </g>
    <g id="ytick_4">
     <g id="line2d_19">
      <path d="M 61.410938 153.151804 
L 418.530938 153.151804 
" clip-path="url(#p328bf03e80)" style="fill: none; stroke: #b0b0b0; stroke-width: 0.8; stroke-linecap: square"/>
     </g>
     <g id="line2d_20">
      <g>
       <use xlink:href="#m6f3f5b6aff" x="61.410938" y="153.151804" style="stroke: #000000; stroke-width: 0.8"/>
      </g>
     </g>
     <g id="text_11">
      <!-- 0.4 -->
      <g transform="translate(30.55625 158.850632)scale(0.15 -0.15)">
       <use xlink:href="#DejaVuSans-30"/>
       <use xlink:href="#DejaVuSans-2e" x="63.623047"/>
       <use xlink:href="#DejaVuSans-34" x="95.410156"/>
      </g>
     </g>
    </g>
    <g id="ytick_5">
     <g id="line2d_21">
      <path d="M 61.410938 115.245161 
L 418.530938 115.245161 
" clip-path="url(#p328bf03e80)" style="fill: none; stroke: #b0b0b0; stroke-width: 0.8; stroke-linecap: square"/>
     </g>
     <g id="line2d_22">
      <g>
       <use xlink:href="#m6f3f5b6aff" x="61.410938" y="115.245161" style="stroke: #000000; stroke-width: 0.8"/>
      </g>
     </g>
     <g id="text_12">
      <!-- 0.5 -->
      <g transform="translate(30.55625 120.943989)scale(0.15 -0.15)">
       <defs>
        <path id="DejaVuSans-35" d="M 691 4666 
L 3169 4666 
L 3169 4134 
L 1269 4134 
L 1269 2991 
Q 1406 3038 1543 3061 
Q 1681 3084 1819 3084 
Q 2600 3084 3056 2656 
Q 3513 2228 3513 1497 
Q 3513 744 3044 326 
Q 2575 -91 1722 -91 
Q 1428 -91 1123 -41 
Q 819 9 494 109 
L 494 744 
Q 775 591 1075 516 
Q 1375 441 1709 441 
Q 2250 441 2565 725 
Q 2881 1009 2881 1497 
Q 2881 1984 2565 2268 
Q 2250 2553 1709 2553 
Q 1456 2553 1204 2497 
Q 953 2441 691 2322 
L 691 4666 
z
" transform="scale(0.015625)"/>
       </defs>
       <use xlink:href="#DejaVuSans-30"/>
       <use xlink:href="#DejaVuSans-2e" x="63.623047"/>
       <use xlink:href="#DejaVuSans-35" x="95.410156"/>
      </g>
     </g>
    </g>
    <g id="ytick_6">
     <g id="line2d_23">
      <path d="M 61.410938 77.338519 
L 418.530938 77.338519 
" clip-path="url(#p328bf03e80)" style="fill: none; stroke: #b0b0b0; stroke-width: 0.8; stroke-linecap: square"/>
     </g>
     <g id="line2d_24">
      <g>
       <use xlink:href="#m6f3f5b6aff" x="61.410938" y="77.338519" style="stroke: #000000; stroke-width: 0.8"/>
      </g>
     </g>
     <g id="text_13">
      <!-- 0.6 -->
      <g transform="translate(30.55625 83.037347)scale(0.15 -0.15)">
       <use xlink:href="#DejaVuSans-30"/>
       <use xlink:href="#DejaVuSans-2e" x="63.623047"/>
       <use xlink:href="#DejaVuSans-36" x="95.410156"/>
      </g>
     </g>
    </g>
    <g id="ytick_7">
     <g id="line2d_25">
      <path d="M 61.410938 39.431877 
L 418.530938 39.431877 
" clip-path="url(#p328bf03e80)" style="fill: none; stroke: #b0b0b0; stroke-width: 0.8; stroke-linecap: square"/>
     </g>
     <g id="line2d_26">
      <g>
       <use xlink:href="#m6f3f5b6aff" x="61.410938" y="39.431877" style="stroke: #000000; stroke-width: 0.8"/>
      </g>
     </g>
     <g id="text_14">
      <!-- 0.7 -->
      <g transform="translate(30.55625 45.130705)scale(0.15 -0.15)">
       <defs>
        <path id="DejaVuSans-37" d="M 525 4666 
L 3525 4666 
L 3525 4397 
L 1831 0 
L 1172 0 
L 2766 4134 
L 525 4134 
L 525 4666 
z
" transform="scale(0.015625)"/>
       </defs>
       <use xlink:href="#DejaVuSans-30"/>
       <use xlink:href="#DejaVuSans-2e" x="63.623047"/>
       <use xlink:href="#DejaVuSans-37" x="95.410156"/>
      </g>
     </g>
    </g>
    <g id="text_15">
     <!-- $P_{detect}$ -->
     <g transform="translate(22.396875 168.956)rotate(-90)scale(0.2 -0.2)">
      <defs>
       <path id="DejaVuSans-Oblique-50" d="M 1081 4666 
L 2541 4666 
Q 3178 4666 3512 4369 
Q 3847 4072 3847 3500 
Q 3847 2731 3353 2303 
Q 2859 1875 1966 1875 
L 1172 1875 
L 806 0 
L 172 0 
L 1081 4666 
z
M 1613 4147 
L 1275 2394 
L 2069 2394 
Q 2606 2394 2893 2669 
Q 3181 2944 3181 3456 
Q 3181 3784 2986 3965 
Q 2791 4147 2438 4147 
L 1613 4147 
z
" transform="scale(0.015625)"/>
       <path id="DejaVuSans-Oblique-64" d="M 2675 525 
Q 2444 222 2128 65 
Q 1813 -91 1428 -91 
Q 903 -91 598 267 
Q 294 625 294 1247 
Q 294 1766 478 2236 
Q 663 2706 1013 3078 
Q 1244 3325 1534 3454 
Q 1825 3584 2144 3584 
Q 2481 3584 2739 3421 
Q 2997 3259 3138 2956 
L 3513 4863 
L 4091 4863 
L 3144 0 
L 2566 0 
L 2675 525 
z
M 891 1350 
Q 891 897 1095 644 
Q 1300 391 1663 391 
Q 1931 391 2161 520 
Q 2391 650 2566 903 
Q 2750 1166 2856 1509 
Q 2963 1853 2963 2188 
Q 2963 2622 2758 2865 
Q 2553 3109 2194 3109 
Q 1922 3109 1687 2981 
Q 1453 2853 1288 2613 
Q 1106 2353 998 2009 
Q 891 1666 891 1350 
z
" transform="scale(0.015625)"/>
       <path id="DejaVuSans-Oblique-65" d="M 3078 2063 
Q 3088 2113 3092 2166 
Q 3097 2219 3097 2272 
Q 3097 2653 2873 2875 
Q 2650 3097 2266 3097 
Q 1838 3097 1509 2826 
Q 1181 2556 1013 2059 
L 3078 2063 
z
M 3578 1613 
L 903 1613 
Q 884 1494 878 1425 
Q 872 1356 872 1306 
Q 872 872 1139 634 
Q 1406 397 1894 397 
Q 2269 397 2603 481 
Q 2938 566 3225 728 
L 3116 159 
Q 2806 34 2476 -28 
Q 2147 -91 1806 -91 
Q 1078 -91 686 257 
Q 294 606 294 1247 
Q 294 1794 489 2264 
Q 684 2734 1063 3103 
Q 1306 3334 1642 3459 
Q 1978 3584 2356 3584 
Q 2950 3584 3301 3228 
Q 3653 2872 3653 2272 
Q 3653 2128 3634 1964 
Q 3616 1800 3578 1613 
z
" transform="scale(0.015625)"/>
       <path id="DejaVuSans-Oblique-74" d="M 2706 3500 
L 2619 3053 
L 1472 3053 
L 1100 1153 
Q 1081 1047 1072 975 
Q 1063 903 1063 863 
Q 1063 663 1183 572 
Q 1303 481 1569 481 
L 2150 481 
L 2053 0 
L 1503 0 
Q 991 0 739 200 
Q 488 400 488 806 
Q 488 878 497 964 
Q 506 1050 525 1153 
L 897 3053 
L 409 3053 
L 500 3500 
L 978 3500 
L 1172 4494 
L 1747 4494 
L 1556 3500 
L 2706 3500 
z
" transform="scale(0.015625)"/>
       <path id="DejaVuSans-Oblique-63" d="M 3431 3366 
L 3316 2797 
Q 3109 2947 2876 3022 
Q 2644 3097 2394 3097 
Q 2119 3097 1870 3000 
Q 1622 2903 1453 2725 
Q 1184 2453 1037 2087 
Q 891 1722 891 1331 
Q 891 859 1127 628 
Q 1363 397 1844 397 
Q 2081 397 2348 469 
Q 2616 541 2906 684 
L 2797 116 
Q 2547 13 2283 -39 
Q 2019 -91 1741 -91 
Q 1044 -91 669 257 
Q 294 606 294 1253 
Q 294 1797 489 2255 
Q 684 2713 1069 3078 
Q 1331 3328 1684 3456 
Q 2038 3584 2456 3584 
Q 2700 3584 2940 3529 
Q 3181 3475 3431 3366 
z
" transform="scale(0.015625)"/>
      </defs>
      <use xlink:href="#DejaVuSans-Oblique-50" transform="translate(0 0.09375)"/>
      <use xlink:href="#DejaVuSans-Oblique-64" transform="translate(60.302734 -16.3125)scale(0.7)"/>
      <use xlink:href="#DejaVuSans-Oblique-65" transform="translate(104.736328 -16.3125)scale(0.7)"/>
      <use xlink:href="#DejaVuSans-Oblique-74" transform="translate(147.802734 -16.3125)scale(0.7)"/>
      <use xlink:href="#DejaVuSans-Oblique-65" transform="translate(175.249023 -16.3125)scale(0.7)"/>
      <use xlink:href="#DejaVuSans-Oblique-63" transform="translate(218.31543 -16.3125)scale(0.7)"/>
      <use xlink:href="#DejaVuSans-Oblique-74" transform="translate(256.801758 -16.3125)scale(0.7)"/>
     </g>
    </g>
   </g>
   <g id="LineCollection_1">
    <path d="M 61.410938 261.216 
L 61.410938 246.332838 
" clip-path="url(#p328bf03e80)" style="fill: none; stroke: #1f77b4; stroke-width: 1.5"/>
    <path d="M 63.196538 251.720985 
L 63.196538 235.678143 
" clip-path="url(#p328bf03e80)" style="fill: none; stroke: #1f77b4; stroke-width: 1.5"/>
    <path d="M 64.982138 199.594224 
L 64.982138 179.500212 
" clip-path="url(#p328bf03e80)" style="fill: none; stroke: #1f77b4; stroke-width: 1.5"/>
    <path d="M 66.767738 203.276333 
L 66.767738 183.374244 
" clip-path="url(#p328bf03e80)" style="fill: none; stroke: #1f77b4; stroke-width: 1.5"/>
    <path d="M 68.553337 204.502431 
L 68.553337 184.66686 
" clip-path="url(#p328bf03e80)" style="fill: none; stroke: #1f77b4; stroke-width: 1.5"/>
    <path d="M 70.338938 204.502431 
L 70.338938 184.66686 
" clip-path="url(#p328bf03e80)" style="fill: none; stroke: #1f77b4; stroke-width: 1.5"/>
    <path d="M 72.124538 171.188307 
L 72.124538 149.975712 
" clip-path="url(#p328bf03e80)" style="fill: none; stroke: #1f77b4; stroke-width: 1.5"/>
    <path d="M 73.910138 161.240294 
L 73.910138 139.774015 
" clip-path="url(#p328bf03e80)" style="fill: none; stroke: #1f77b4; stroke-width: 1.5"/>
    <path d="M 75.695738 182.339254 
L 75.695738 161.493188 
" clip-path="url(#p328bf03e80)" style="fill: none; stroke: #1f77b4; stroke-width: 1.5"/>
    <path d="M 77.481338 181.102443 
L 77.481338 160.211285 
" clip-path="url(#p328bf03e80)" style="fill: none; stroke: #1f77b4; stroke-width: 1.5"/>
    <path d="M 79.266938 172.429455 
L 79.266938 151.253277 
" clip-path="url(#p328bf03e80)" style="fill: none; stroke: #1f77b4; stroke-width: 1.5"/>
    <path d="M 81.052538 167.4617 
L 81.052538 146.146178 
" clip-path="url(#p328bf03e80)" style="fill: none; stroke: #1f77b4; stroke-width: 1.5"/>
    <path d="M 82.838138 167.4617 
L 82.838138 146.146178 
" clip-path="url(#p328bf03e80)" style="fill: none; stroke: #1f77b4; stroke-width: 1.5"/>
    <path d="M 84.623738 172.429455 
L 84.623738 151.253277 
" clip-path="url(#p328bf03e80)" style="fill: none; stroke: #1f77b4; stroke-width: 1.5"/>
    <path d="M 86.409338 153.757782 
L 86.409338 132.144244 
" clip-path="url(#p328bf03e80)" style="fill: none; stroke: #1f77b4; stroke-width: 1.5"/>
    <path d="M 88.194938 147.508589 
L 88.194938 125.799868 
" clip-path="url(#p328bf03e80)" style="fill: none; stroke: #1f77b4; stroke-width: 1.5"/>
    <path d="M 89.980538 137.48427 
L 89.980538 115.674477 
" clip-path="url(#p328bf03e80)" style="fill: none; stroke: #1f77b4; stroke-width: 1.5"/>
    <path d="M 91.766138 138.73902 
L 91.766138 116.93844 
" clip-path="url(#p328bf03e80)" style="fill: none; stroke: #1f77b4; stroke-width: 1.5"/>
    <path d="M 93.551738 123.649992 
L 93.551738 101.802903 
" clip-path="url(#p328bf03e80)" style="fill: none; stroke: #1f77b4; stroke-width: 1.5"/>
    <path d="M 95.337338 138.73902 
L 95.337338 116.93844 
" clip-path="url(#p328bf03e80)" style="fill: none; stroke: #1f77b4; stroke-width: 1.5"/>
    <path d="M 97.122938 173.670072 
L 97.122938 152.531375 
" clip-path="url(#p328bf03e80)" style="fill: none; stroke: #1f77b4; stroke-width: 1.5"/>
    <path d="M 98.908538 137.48427 
L 98.908538 115.674477 
" clip-path="url(#p328bf03e80)" style="fill: none; stroke: #1f77b4; stroke-width: 1.5"/>
    <path d="M 100.694138 132.460408 
L 100.694138 110.623484 
" clip-path="url(#p328bf03e80)" style="fill: none; stroke: #1f77b4; stroke-width: 1.5"/>
    <path d="M 102.479738 124.910075 
L 102.479738 103.061534 
" clip-path="url(#p328bf03e80)" style="fill: none; stroke: #1f77b4; stroke-width: 1.5"/>
    <path d="M 104.265338 138.73902 
L 104.265338 116.93844 
" clip-path="url(#p328bf03e80)" style="fill: none; stroke: #1f77b4; stroke-width: 1.5"/>
    <path d="M 106.050938 121.128374 
L 106.050938 99.287093 
" clip-path="url(#p328bf03e80)" style="fill: none; stroke: #1f77b4; stroke-width: 1.5"/>
    <path d="M 107.836538 111.022493 
L 107.836538 89.243264 
" clip-path="url(#p328bf03e80)" style="fill: none; stroke: #1f77b4; stroke-width: 1.5"/>
    <path d="M 109.622138 105.957845 
L 109.622138 84.233057 
" clip-path="url(#p328bf03e80)" style="fill: none; stroke: #1f77b4; stroke-width: 1.5"/>
    <path d="M 111.407738 126.169674 
L 111.407738 104.320649 
" clip-path="url(#p328bf03e80)" style="fill: none; stroke: #1f77b4; stroke-width: 1.5"/>
    <path d="M 113.193338 139.993283 
L 113.193338 118.202891 
" clip-path="url(#p328bf03e80)" style="fill: none; stroke: #1f77b4; stroke-width: 1.5"/>
    <path d="M 114.978938 118.604819 
L 114.978938 96.773221 
" clip-path="url(#p328bf03e80)" style="fill: none; stroke: #1f77b4; stroke-width: 1.5"/>
    <path d="M 116.764538 132.460408 
L 116.764538 110.623484 
" clip-path="url(#p328bf03e80)" style="fill: none; stroke: #1f77b4; stroke-width: 1.5"/>
    <path d="M 118.550138 105.957845 
L 118.550138 84.233057 
" clip-path="url(#p328bf03e80)" style="fill: none; stroke: #1f77b4; stroke-width: 1.5"/>
    <path d="M 120.335738 126.169674 
L 120.335738 104.320649 
" clip-path="url(#p328bf03e80)" style="fill: none; stroke: #1f77b4; stroke-width: 1.5"/>
    <path d="M 122.121338 117.342313 
L 122.121338 95.517013 
" clip-path="url(#p328bf03e80)" style="fill: none; stroke: #1f77b4; stroke-width: 1.5"/>
    <path d="M 123.906938 88.168988 
L 123.906938 66.759921 
" clip-path="url(#p328bf03e80)" style="fill: none; stroke: #1f77b4; stroke-width: 1.5"/>
    <path d="M 125.692538 108.49115 
L 125.692538 86.73718 
" clip-path="url(#p328bf03e80)" style="fill: none; stroke: #1f77b4; stroke-width: 1.5"/>
    <path d="M 127.478138 116.079322 
L 127.478138 94.26129 
" clip-path="url(#p328bf03e80)" style="fill: none; stroke: #1f77b4; stroke-width: 1.5"/>
    <path d="M 129.263738 108.49115 
L 129.263738 86.73718 
" clip-path="url(#p328bf03e80)" style="fill: none; stroke: #1f77b4; stroke-width: 1.5"/>
    <path d="M 131.049338 112.287432 
L 131.049338 90.497039 
" clip-path="url(#p328bf03e80)" style="fill: none; stroke: #1f77b4; stroke-width: 1.5"/>
    <path d="M 132.834938 90.716308 
L 132.834938 69.250029 
" clip-path="url(#p328bf03e80)" style="fill: none; stroke: #1f77b4; stroke-width: 1.5"/>
    <path d="M 134.620538 103.838815 
L 134.620538 66.601381 
" clip-path="url(#p328bf03e80)" style="fill: none; stroke: #1f77b4; stroke-width: 1.5"/>
    <path d="M 136.406138 111.450698 
L 136.406138 74.002029 
" clip-path="url(#p328bf03e80)" style="fill: none; stroke: #1f77b4; stroke-width: 1.5"/>
    <path d="M 138.191738 119.032042 
L 138.191738 81.433217 
" clip-path="url(#p328bf03e80)" style="fill: none; stroke: #1f77b4; stroke-width: 1.5"/>
    <path d="M 139.977338 100.021264 
L 139.977338 62.912666 
" clip-path="url(#p328bf03e80)" style="fill: none; stroke: #1f77b4; stroke-width: 1.5"/>
    <path d="M 141.762938 111.450698 
L 141.762938 74.002029 
" clip-path="url(#p328bf03e80)" style="fill: none; stroke: #1f77b4; stroke-width: 1.5"/>
    <path d="M 143.548538 103.838815 
L 143.548538 66.601381 
" clip-path="url(#p328bf03e80)" style="fill: none; stroke: #1f77b4; stroke-width: 1.5"/>
    <path d="M 145.334138 126.583211 
L 145.334138 88.89458 
" clip-path="url(#p328bf03e80)" style="fill: none; stroke: #1f77b4; stroke-width: 1.5"/>
    <path d="M 147.119738 115.245161 
L 147.119738 77.713832 
" clip-path="url(#p328bf03e80)" style="fill: none; stroke: #1f77b4; stroke-width: 1.5"/>
    <path d="M 148.905338 73.072716 
L 148.905338 37.317353 
" clip-path="url(#p328bf03e80)" style="fill: none; stroke: #1f77b4; stroke-width: 1.5"/>
    <path d="M 150.690938 65.296523 
L 150.690938 30.081015 
" clip-path="url(#p328bf03e80)" style="fill: none; stroke: #1f77b4; stroke-width: 1.5"/>
    <path d="M 152.476538 126.583211 
L 152.476538 88.89458 
" clip-path="url(#p328bf03e80)" style="fill: none; stroke: #1f77b4; stroke-width: 1.5"/>
    <path d="M 154.262138 103.838815 
L 154.262138 66.601381 
" clip-path="url(#p328bf03e80)" style="fill: none; stroke: #1f77b4; stroke-width: 1.5"/>
    <path d="M 156.047738 84.671632 
L 156.047738 48.237235 
" clip-path="url(#p328bf03e80)" style="fill: none; stroke: #1f77b4; stroke-width: 1.5"/>
    <path d="M 157.833338 96.195868 
L 157.833338 59.231796 
" clip-path="url(#p328bf03e80)" style="fill: none; stroke: #1f77b4; stroke-width: 1.5"/>
    <path d="M 159.618938 84.671632 
L 159.618938 48.237235 
" clip-path="url(#p328bf03e80)" style="fill: none; stroke: #1f77b4; stroke-width: 1.5"/>
    <path d="M 161.404538 119.032042 
L 161.404538 81.433217 
" clip-path="url(#p328bf03e80)" style="fill: none; stroke: #1f77b4; stroke-width: 1.5"/>
    <path d="M 163.190138 96.195868 
L 163.190138 59.231796 
" clip-path="url(#p328bf03e80)" style="fill: none; stroke: #1f77b4; stroke-width: 1.5"/>
    <path d="M 164.975738 84.671632 
L 164.975738 48.237235 
" clip-path="url(#p328bf03e80)" style="fill: none; stroke: #1f77b4; stroke-width: 1.5"/>
    <path d="M 166.761338 107.648603 
L 166.761338 70.297859 
" clip-path="url(#p328bf03e80)" style="fill: none; stroke: #1f77b4; stroke-width: 1.5"/>
    <path d="M 168.546938 96.195868 
L 168.546938 59.231796 
" clip-path="url(#p328bf03e80)" style="fill: none; stroke: #1f77b4; stroke-width: 1.5"/>
    <path d="M 170.332538 84.671632 
L 170.332538 48.237235 
" clip-path="url(#p328bf03e80)" style="fill: none; stroke: #1f77b4; stroke-width: 1.5"/>
    <path d="M 172.118138 84.671632 
L 172.118138 48.237235 
" clip-path="url(#p328bf03e80)" style="fill: none; stroke: #1f77b4; stroke-width: 1.5"/>
    <path d="M 173.903738 88.521163 
L 173.903738 51.89397 
" clip-path="url(#p328bf03e80)" style="fill: none; stroke: #1f77b4; stroke-width: 1.5"/>
    <path d="M 175.689338 76.947561 
L 175.689338 40.948775 
" clip-path="url(#p328bf03e80)" style="fill: none; stroke: #1f77b4; stroke-width: 1.5"/>
    <path d="M 177.474938 100.021264 
L 177.474938 62.912666 
" clip-path="url(#p328bf03e80)" style="fill: none; stroke: #1f77b4; stroke-width: 1.5"/>
    <path d="M 179.260538 73.072716 
L 179.260538 37.317353 
" clip-path="url(#p328bf03e80)" style="fill: none; stroke: #1f77b4; stroke-width: 1.5"/>
    <path d="M 181.046138 92.362536 
L 181.046138 55.558863 
" clip-path="url(#p328bf03e80)" style="fill: none; stroke: #1f77b4; stroke-width: 1.5"/>
    <path d="M 182.831738 119.032042 
L 182.831738 81.433217 
" clip-path="url(#p328bf03e80)" style="fill: none; stroke: #1f77b4; stroke-width: 1.5"/>
    <path d="M 184.617338 96.195868 
L 184.617338 59.231796 
" clip-path="url(#p328bf03e80)" style="fill: none; stroke: #1f77b4; stroke-width: 1.5"/>
    <path d="M 186.402938 92.362536 
L 186.402938 55.558863 
" clip-path="url(#p328bf03e80)" style="fill: none; stroke: #1f77b4; stroke-width: 1.5"/>
    <path d="M 188.188538 53.562741 
L 188.188538 19.296 
" clip-path="url(#p328bf03e80)" style="fill: none; stroke: #1f77b4; stroke-width: 1.5"/>
    <path d="M 189.974138 111.450698 
L 189.974138 74.002029 
" clip-path="url(#p328bf03e80)" style="fill: none; stroke: #1f77b4; stroke-width: 1.5"/>
    <path d="M 191.759738 92.362536 
L 191.759738 55.558863 
" clip-path="url(#p328bf03e80)" style="fill: none; stroke: #1f77b4; stroke-width: 1.5"/>
    <path d="M 193.545338 84.671632 
L 193.545338 48.237235 
" clip-path="url(#p328bf03e80)" style="fill: none; stroke: #1f77b4; stroke-width: 1.5"/>
    <path d="M 195.330938 76.947561 
L 195.330938 40.948775 
" clip-path="url(#p328bf03e80)" style="fill: none; stroke: #1f77b4; stroke-width: 1.5"/>
    <path d="M 197.116538 96.195868 
L 197.116538 59.231796 
" clip-path="url(#p328bf03e80)" style="fill: none; stroke: #1f77b4; stroke-width: 1.5"/>
    <path d="M 198.902138 80.813813 
L 198.902138 44.588789 
" clip-path="url(#p328bf03e80)" style="fill: none; stroke: #1f77b4; stroke-width: 1.5"/>
    <path d="M 200.687738 73.072716 
L 200.687738 37.317353 
" clip-path="url(#p328bf03e80)" style="fill: none; stroke: #1f77b4; stroke-width: 1.5"/>
    <path d="M 202.473338 100.021264 
L 202.473338 62.912666 
" clip-path="url(#p328bf03e80)" style="fill: none; stroke: #1f77b4; stroke-width: 1.5"/>
    <path d="M 204.258938 96.195868 
L 204.258938 59.231796 
" clip-path="url(#p328bf03e80)" style="fill: none; stroke: #1f77b4; stroke-width: 1.5"/>
    <path d="M 206.044538 92.362536 
L 206.044538 55.558863 
" clip-path="url(#p328bf03e80)" style="fill: none; stroke: #1f77b4; stroke-width: 1.5"/>
    <path d="M 207.830138 130.347553 
L 207.830138 92.636504 
" clip-path="url(#p328bf03e80)" style="fill: none; stroke: #1f77b4; stroke-width: 1.5"/>
    <path d="M 209.615738 57.483591 
L 209.615738 22.881415 
" clip-path="url(#p328bf03e80)" style="fill: none; stroke: #1f77b4; stroke-width: 1.5"/>
    <path d="M 211.401338 96.195868 
L 211.401338 59.231796 
" clip-path="url(#p328bf03e80)" style="fill: none; stroke: #1f77b4; stroke-width: 1.5"/>
    <path d="M 213.186938 111.450698 
L 213.186938 74.002029 
" clip-path="url(#p328bf03e80)" style="fill: none; stroke: #1f77b4; stroke-width: 1.5"/>
    <path d="M 214.972538 80.813813 
L 214.972538 44.588789 
" clip-path="url(#p328bf03e80)" style="fill: none; stroke: #1f77b4; stroke-width: 1.5"/>
    <path d="M 216.758138 115.245161 
L 216.758138 77.713832 
" clip-path="url(#p328bf03e80)" style="fill: none; stroke: #1f77b4; stroke-width: 1.5"/>
    <path d="M 218.543738 65.296523 
L 218.543738 30.081015 
" clip-path="url(#p328bf03e80)" style="fill: none; stroke: #1f77b4; stroke-width: 1.5"/>
    <path d="M 220.329338 65.296523 
L 220.329338 30.081015 
" clip-path="url(#p328bf03e80)" style="fill: none; stroke: #1f77b4; stroke-width: 1.5"/>
    <path d="M 222.114938 69.189102 
L 222.114938 33.694702 
" clip-path="url(#p328bf03e80)" style="fill: none; stroke: #1f77b4; stroke-width: 1.5"/>
    <path d="M 223.900538 73.072716 
L 223.900538 37.317353 
" clip-path="url(#p328bf03e80)" style="fill: none; stroke: #1f77b4; stroke-width: 1.5"/>
    <path d="M 225.686138 61.394765 
L 225.686138 26.476507 
" clip-path="url(#p328bf03e80)" style="fill: none; stroke: #1f77b4; stroke-width: 1.5"/>
    <path d="M 227.471738 88.521163 
L 227.471738 51.89397 
" clip-path="url(#p328bf03e80)" style="fill: none; stroke: #1f77b4; stroke-width: 1.5"/>
    <path d="M 229.257338 80.813813 
L 229.257338 44.588789 
" clip-path="url(#p328bf03e80)" style="fill: none; stroke: #1f77b4; stroke-width: 1.5"/>
    <path d="M 231.042938 53.562741 
L 231.042938 19.296 
" clip-path="url(#p328bf03e80)" style="fill: none; stroke: #1f77b4; stroke-width: 1.5"/>
    <path d="M 232.828538 107.648603 
L 232.828538 70.297859 
" clip-path="url(#p328bf03e80)" style="fill: none; stroke: #1f77b4; stroke-width: 1.5"/>
    <path d="M 234.614138 84.671632 
L 234.614138 48.237235 
" clip-path="url(#p328bf03e80)" style="fill: none; stroke: #1f77b4; stroke-width: 1.5"/>
    <path d="M 236.399738 61.394765 
L 236.399738 26.476507 
" clip-path="url(#p328bf03e80)" style="fill: none; stroke: #1f77b4; stroke-width: 1.5"/>
    <path d="M 238.185338 73.072716 
L 238.185338 37.317353 
" clip-path="url(#p328bf03e80)" style="fill: none; stroke: #1f77b4; stroke-width: 1.5"/>
    <path d="M 239.970938 67.714674 
L 239.970938 46.914815 
" clip-path="url(#p328bf03e80)" style="fill: none; stroke: #1f77b4; stroke-width: 1.5"/>
    <path d="M 329.250938 67.565558 
L 329.250938 42.226998 
" clip-path="url(#p328bf03e80)" style="fill: none; stroke: #1f77b4; stroke-width: 1.5"/>
    <path d="M 418.530938 57.891557 
L 418.530938 33.041973 
" clip-path="url(#p328bf03e80)" style="fill: none; stroke: #1f77b4; stroke-width: 1.5"/>
    <path clip-path="url(#p328bf03e80)" style="fill: none; stroke: #1f77b4; stroke-width: 1.5"/>
    <path clip-path="url(#p328bf03e80)" style="fill: none; stroke: #1f77b4; stroke-width: 1.5"/>
    <path clip-path="url(#p328bf03e80)" style="fill: none; stroke: #1f77b4; stroke-width: 1.5"/>
    <path clip-path="url(#p328bf03e80)" style="fill: none; stroke: #1f77b4; stroke-width: 1.5"/>
   </g>
   <g id="line2d_27">
    <path d="M 61.410938 227.872081 
L 64.411046 215.597205 
L 67.486156 203.951174 
L 70.561267 193.181684 
L 73.636378 183.222763 
L 76.711488 174.013402 
L 79.786599 165.497187 
L 82.86171 157.621946 
L 85.93682 150.339437 
L 89.086934 143.447288 
L 92.237047 137.08603 
L 95.387161 131.21477 
L 98.612277 125.67196 
L 101.837393 120.565858 
L 105.137512 115.757193 
L 108.437631 111.335841 
L 111.812752 107.182123 
L 115.262876 103.289201 
L 118.788003 99.649377 
L 122.388133 96.254222 
L 126.063265 93.094697 
L 129.8134 90.161278 
L 133.713541 87.393383 
L 137.763686 84.795468 
L 141.963838 82.369713 
L 146.313994 80.116213 
L 150.889159 78.000453 
L 155.689332 76.030126 
L 160.714513 74.209716 
L 166.039704 72.518502 
L 171.73991 70.944947 
L 177.815128 69.501036 
L 184.340363 68.179687 
L 191.46562 66.966598 
L 199.265901 65.867973 
L 207.891211 64.881888 
L 217.566559 64.005067 
L 228.516954 63.241204 
L 241.19241 62.585841 
L 256.19295 62.039511 
L 274.643614 61.599082 
L 298.41947 61.265426 
L 331.795672 61.035715 
L 386.847654 60.906331 
L 418.573796 60.882899 
L 418.573796 60.882899 
" clip-path="url(#p328bf03e80)" style="fill: none; stroke: #1f77b4; stroke-width: 1.5; stroke-linecap: square"/>
   </g>
   <g id="line2d_28">
    <defs>
     <path id="mcceb8b8273" d="M 0 3 
C 0.795609 3 1.55874 2.683901 2.12132 2.12132 
C 2.683901 1.55874 3 0.795609 3 0 
C 3 -0.795609 2.683901 -1.55874 2.12132 -2.12132 
C 1.55874 -2.683901 0.795609 -3 0 -3 
C -0.795609 -3 -1.55874 -2.683901 -2.12132 -2.12132 
C -2.683901 -1.55874 -3 -0.795609 -3 0 
C -3 0.795609 -2.683901 1.55874 -2.12132 2.12132 
C -1.55874 2.683901 -0.795609 3 0 3 
z
" style="stroke: #1f77b4"/>
    </defs>
    <g clip-path="url(#p328bf03e80)">
     <use xlink:href="#mcceb8b8273" x="61.410938" y="253.774419" style="fill: #1f77b4; stroke: #1f77b4"/>
     <use xlink:href="#mcceb8b8273" x="63.196538" y="243.699564" style="fill: #1f77b4; stroke: #1f77b4"/>
     <use xlink:href="#mcceb8b8273" x="64.982138" y="189.547218" style="fill: #1f77b4; stroke: #1f77b4"/>
     <use xlink:href="#mcceb8b8273" x="66.767738" y="193.325288" style="fill: #1f77b4; stroke: #1f77b4"/>
     <use xlink:href="#mcceb8b8273" x="68.553337" y="194.584645" style="fill: #1f77b4; stroke: #1f77b4"/>
     <use xlink:href="#mcceb8b8273" x="70.338938" y="194.584645" style="fill: #1f77b4; stroke: #1f77b4"/>
     <use xlink:href="#mcceb8b8273" x="72.124538" y="160.582009" style="fill: #1f77b4; stroke: #1f77b4"/>
     <use xlink:href="#mcceb8b8273" x="73.910138" y="150.507154" style="fill: #1f77b4; stroke: #1f77b4"/>
     <use xlink:href="#mcceb8b8273" x="75.695738" y="171.916221" style="fill: #1f77b4; stroke: #1f77b4"/>
     <use xlink:href="#mcceb8b8273" x="77.481338" y="170.656864" style="fill: #1f77b4; stroke: #1f77b4"/>
     <use xlink:href="#mcceb8b8273" x="79.266938" y="161.841366" style="fill: #1f77b4; stroke: #1f77b4"/>
     <use xlink:href="#mcceb8b8273" x="81.052538" y="156.803939" style="fill: #1f77b4; stroke: #1f77b4"/>
     <use xlink:href="#mcceb8b8273" x="82.838138" y="156.803939" style="fill: #1f77b4; stroke: #1f77b4"/>
     <use xlink:href="#mcceb8b8273" x="84.623738" y="161.841366" style="fill: #1f77b4; stroke: #1f77b4"/>
     <use xlink:href="#mcceb8b8273" x="86.409338" y="142.951013" style="fill: #1f77b4; stroke: #1f77b4"/>
     <use xlink:href="#mcceb8b8273" x="88.194938" y="136.654228" style="fill: #1f77b4; stroke: #1f77b4"/>
     <use xlink:href="#mcceb8b8273" x="89.980538" y="126.579373" style="fill: #1f77b4; stroke: #1f77b4"/>
     <use xlink:href="#mcceb8b8273" x="91.766138" y="127.83873" style="fill: #1f77b4; stroke: #1f77b4"/>
     <use xlink:href="#mcceb8b8273" x="93.551738" y="112.726448" style="fill: #1f77b4; stroke: #1f77b4"/>
     <use xlink:href="#mcceb8b8273" x="95.337338" y="127.83873" style="fill: #1f77b4; stroke: #1f77b4"/>
     <use xlink:href="#mcceb8b8273" x="97.122938" y="163.100723" style="fill: #1f77b4; stroke: #1f77b4"/>
     <use xlink:href="#mcceb8b8273" x="98.908538" y="126.579373" style="fill: #1f77b4; stroke: #1f77b4"/>
     <use xlink:href="#mcceb8b8273" x="100.694138" y="121.541946" style="fill: #1f77b4; stroke: #1f77b4"/>
     <use xlink:href="#mcceb8b8273" x="102.479738" y="113.985804" style="fill: #1f77b4; stroke: #1f77b4"/>
     <use xlink:href="#mcceb8b8273" x="104.265338" y="127.83873" style="fill: #1f77b4; stroke: #1f77b4"/>
     <use xlink:href="#mcceb8b8273" x="106.050938" y="110.207734" style="fill: #1f77b4; stroke: #1f77b4"/>
     <use xlink:href="#mcceb8b8273" x="107.836538" y="100.132879" style="fill: #1f77b4; stroke: #1f77b4"/>
     <use xlink:href="#mcceb8b8273" x="109.622138" y="95.095451" style="fill: #1f77b4; stroke: #1f77b4"/>
     <use xlink:href="#mcceb8b8273" x="111.407738" y="115.245161" style="fill: #1f77b4; stroke: #1f77b4"/>
     <use xlink:href="#mcceb8b8273" x="113.193338" y="129.098087" style="fill: #1f77b4; stroke: #1f77b4"/>
     <use xlink:href="#mcceb8b8273" x="114.978938" y="107.68902" style="fill: #1f77b4; stroke: #1f77b4"/>
     <use xlink:href="#mcceb8b8273" x="116.764538" y="121.541946" style="fill: #1f77b4; stroke: #1f77b4"/>
     <use xlink:href="#mcceb8b8273" x="118.550138" y="95.095451" style="fill: #1f77b4; stroke: #1f77b4"/>
     <use xlink:href="#mcceb8b8273" x="120.335738" y="115.245161" style="fill: #1f77b4; stroke: #1f77b4"/>
     <use xlink:href="#mcceb8b8273" x="122.121338" y="106.429663" style="fill: #1f77b4; stroke: #1f77b4"/>
     <use xlink:href="#mcceb8b8273" x="123.906938" y="77.464455" style="fill: #1f77b4; stroke: #1f77b4"/>
     <use xlink:href="#mcceb8b8273" x="125.692538" y="97.614165" style="fill: #1f77b4; stroke: #1f77b4"/>
     <use xlink:href="#mcceb8b8273" x="127.478138" y="105.170306" style="fill: #1f77b4; stroke: #1f77b4"/>
     <use xlink:href="#mcceb8b8273" x="129.263738" y="97.614165" style="fill: #1f77b4; stroke: #1f77b4"/>
     <use xlink:href="#mcceb8b8273" x="131.049338" y="101.392236" style="fill: #1f77b4; stroke: #1f77b4"/>
     <use xlink:href="#mcceb8b8273" x="132.834938" y="79.983168" style="fill: #1f77b4; stroke: #1f77b4"/>
     <use xlink:href="#mcceb8b8273" x="134.620538" y="85.220098" style="fill: #1f77b4; stroke: #1f77b4"/>
     <use xlink:href="#mcceb8b8273" x="136.406138" y="92.726364" style="fill: #1f77b4; stroke: #1f77b4"/>
     <use xlink:href="#mcceb8b8273" x="138.191738" y="100.23263" style="fill: #1f77b4; stroke: #1f77b4"/>
     <use xlink:href="#mcceb8b8273" x="139.977338" y="81.466965" style="fill: #1f77b4; stroke: #1f77b4"/>
     <use xlink:href="#mcceb8b8273" x="141.762938" y="92.726364" style="fill: #1f77b4; stroke: #1f77b4"/>
     <use xlink:href="#mcceb8b8273" x="143.548538" y="85.220098" style="fill: #1f77b4; stroke: #1f77b4"/>
     <use xlink:href="#mcceb8b8273" x="145.334138" y="107.738895" style="fill: #1f77b4; stroke: #1f77b4"/>
     <use xlink:href="#mcceb8b8273" x="147.119738" y="96.479497" style="fill: #1f77b4; stroke: #1f77b4"/>
     <use xlink:href="#mcceb8b8273" x="148.905338" y="55.195035" style="fill: #1f77b4; stroke: #1f77b4"/>
     <use xlink:href="#mcceb8b8273" x="150.690938" y="47.688769" style="fill: #1f77b4; stroke: #1f77b4"/>
     <use xlink:href="#mcceb8b8273" x="152.476538" y="107.738895" style="fill: #1f77b4; stroke: #1f77b4"/>
     <use xlink:href="#mcceb8b8273" x="154.262138" y="85.220098" style="fill: #1f77b4; stroke: #1f77b4"/>
     <use xlink:href="#mcceb8b8273" x="156.047738" y="66.454434" style="fill: #1f77b4; stroke: #1f77b4"/>
     <use xlink:href="#mcceb8b8273" x="157.833338" y="77.713832" style="fill: #1f77b4; stroke: #1f77b4"/>
     <use xlink:href="#mcceb8b8273" x="159.618938" y="66.454434" style="fill: #1f77b4; stroke: #1f77b4"/>
     <use xlink:href="#mcceb8b8273" x="161.404538" y="100.23263" style="fill: #1f77b4; stroke: #1f77b4"/>
     <use xlink:href="#mcceb8b8273" x="163.190138" y="77.713832" style="fill: #1f77b4; stroke: #1f77b4"/>
     <use xlink:href="#mcceb8b8273" x="164.975738" y="66.454434" style="fill: #1f77b4; stroke: #1f77b4"/>
     <use xlink:href="#mcceb8b8273" x="166.761338" y="88.973231" style="fill: #1f77b4; stroke: #1f77b4"/>
     <use xlink:href="#mcceb8b8273" x="168.546938" y="77.713832" style="fill: #1f77b4; stroke: #1f77b4"/>
     <use xlink:href="#mcceb8b8273" x="170.332538" y="66.454434" style="fill: #1f77b4; stroke: #1f77b4"/>
     <use xlink:href="#mcceb8b8273" x="172.118138" y="66.454434" style="fill: #1f77b4; stroke: #1f77b4"/>
     <use xlink:href="#mcceb8b8273" x="173.903738" y="70.207566" style="fill: #1f77b4; stroke: #1f77b4"/>
     <use xlink:href="#mcceb8b8273" x="175.689338" y="58.948168" style="fill: #1f77b4; stroke: #1f77b4"/>
     <use xlink:href="#mcceb8b8273" x="177.474938" y="81.466965" style="fill: #1f77b4; stroke: #1f77b4"/>
     <use xlink:href="#mcceb8b8273" x="179.260538" y="55.195035" style="fill: #1f77b4; stroke: #1f77b4"/>
     <use xlink:href="#mcceb8b8273" x="181.046138" y="73.960699" style="fill: #1f77b4; stroke: #1f77b4"/>
     <use xlink:href="#mcceb8b8273" x="182.831738" y="100.23263" style="fill: #1f77b4; stroke: #1f77b4"/>
     <use xlink:href="#mcceb8b8273" x="184.617338" y="77.713832" style="fill: #1f77b4; stroke: #1f77b4"/>
     <use xlink:href="#mcceb8b8273" x="186.402938" y="73.960699" style="fill: #1f77b4; stroke: #1f77b4"/>
     <use xlink:href="#mcceb8b8273" x="188.188538" y="36.42937" style="fill: #1f77b4; stroke: #1f77b4"/>
     <use xlink:href="#mcceb8b8273" x="189.974138" y="92.726364" style="fill: #1f77b4; stroke: #1f77b4"/>
     <use xlink:href="#mcceb8b8273" x="191.759738" y="73.960699" style="fill: #1f77b4; stroke: #1f77b4"/>
     <use xlink:href="#mcceb8b8273" x="193.545338" y="66.454434" style="fill: #1f77b4; stroke: #1f77b4"/>
     <use xlink:href="#mcceb8b8273" x="195.330938" y="58.948168" style="fill: #1f77b4; stroke: #1f77b4"/>
     <use xlink:href="#mcceb8b8273" x="197.116538" y="77.713832" style="fill: #1f77b4; stroke: #1f77b4"/>
     <use xlink:href="#mcceb8b8273" x="198.902138" y="62.701301" style="fill: #1f77b4; stroke: #1f77b4"/>
     <use xlink:href="#mcceb8b8273" x="200.687738" y="55.195035" style="fill: #1f77b4; stroke: #1f77b4"/>
     <use xlink:href="#mcceb8b8273" x="202.473338" y="81.466965" style="fill: #1f77b4; stroke: #1f77b4"/>
     <use xlink:href="#mcceb8b8273" x="204.258938" y="77.713832" style="fill: #1f77b4; stroke: #1f77b4"/>
     <use xlink:href="#mcceb8b8273" x="206.044538" y="73.960699" style="fill: #1f77b4; stroke: #1f77b4"/>
     <use xlink:href="#mcceb8b8273" x="207.830138" y="111.492028" style="fill: #1f77b4; stroke: #1f77b4"/>
     <use xlink:href="#mcceb8b8273" x="209.615738" y="40.182503" style="fill: #1f77b4; stroke: #1f77b4"/>
     <use xlink:href="#mcceb8b8273" x="211.401338" y="77.713832" style="fill: #1f77b4; stroke: #1f77b4"/>
     <use xlink:href="#mcceb8b8273" x="213.186938" y="92.726364" style="fill: #1f77b4; stroke: #1f77b4"/>
     <use xlink:href="#mcceb8b8273" x="214.972538" y="62.701301" style="fill: #1f77b4; stroke: #1f77b4"/>
     <use xlink:href="#mcceb8b8273" x="216.758138" y="96.479497" style="fill: #1f77b4; stroke: #1f77b4"/>
     <use xlink:href="#mcceb8b8273" x="218.543738" y="47.688769" style="fill: #1f77b4; stroke: #1f77b4"/>
     <use xlink:href="#mcceb8b8273" x="220.329338" y="47.688769" style="fill: #1f77b4; stroke: #1f77b4"/>
     <use xlink:href="#mcceb8b8273" x="222.114938" y="51.441902" style="fill: #1f77b4; stroke: #1f77b4"/>
     <use xlink:href="#mcceb8b8273" x="223.900538" y="55.195035" style="fill: #1f77b4; stroke: #1f77b4"/>
     <use xlink:href="#mcceb8b8273" x="225.686138" y="43.935636" style="fill: #1f77b4; stroke: #1f77b4"/>
     <use xlink:href="#mcceb8b8273" x="227.471738" y="70.207566" style="fill: #1f77b4; stroke: #1f77b4"/>
     <use xlink:href="#mcceb8b8273" x="229.257338" y="62.701301" style="fill: #1f77b4; stroke: #1f77b4"/>
     <use xlink:href="#mcceb8b8273" x="231.042938" y="36.42937" style="fill: #1f77b4; stroke: #1f77b4"/>
     <use xlink:href="#mcceb8b8273" x="232.828538" y="88.973231" style="fill: #1f77b4; stroke: #1f77b4"/>
     <use xlink:href="#mcceb8b8273" x="234.614138" y="66.454434" style="fill: #1f77b4; stroke: #1f77b4"/>
     <use xlink:href="#mcceb8b8273" x="236.399738" y="43.935636" style="fill: #1f77b4; stroke: #1f77b4"/>
     <use xlink:href="#mcceb8b8273" x="238.185338" y="55.195035" style="fill: #1f77b4; stroke: #1f77b4"/>
     <use xlink:href="#mcceb8b8273" x="239.970938" y="57.314744" style="fill: #1f77b4; stroke: #1f77b4"/>
     <use xlink:href="#mcceb8b8273" x="329.250938" y="54.896278" style="fill: #1f77b4; stroke: #1f77b4"/>
     <use xlink:href="#mcceb8b8273" x="418.530938" y="45.466765" style="fill: #1f77b4; stroke: #1f77b4"/>
     <use xlink:href="#mcceb8b8273" x="507.810938" y="45.466765" style="fill: #1f77b4; stroke: #1f77b4"/>
     <use xlink:href="#mcceb8b8273" x="597.090938" y="60.553986" style="fill: #1f77b4; stroke: #1f77b4"/>
     <use xlink:href="#mcceb8b8273" x="686.370938" y="58.668083" style="fill: #1f77b4; stroke: #1f77b4"/>
     <use xlink:href="#mcceb8b8273" x="775.650938" y="41.69496" style="fill: #1f77b4; stroke: #1f77b4"/>
    </g>
   </g>
   <g id="patch_3">
    <path d="M 61.410938 273.312 
L 61.410938 7.2 
" style="fill: none; stroke: #000000; stroke-width: 0.8; stroke-linejoin: miter; stroke-linecap: square"/>
   </g>
   <g id="patch_4">
    <path d="M 418.530938 273.312 
L 418.530938 7.2 
" style="fill: none; stroke: #000000; stroke-width: 0.8; stroke-linejoin: miter; stroke-linecap: square"/>
   </g>
   <g id="patch_5">
    <path d="M 61.410938 273.312 
L 418.530938 273.312 
" style="fill: none; stroke: #000000; stroke-width: 0.8; stroke-linejoin: miter; stroke-linecap: square"/>
   </g>
   <g id="patch_6">
    <path d="M 61.410938 7.2 
L 418.530938 7.2 
" style="fill: none; stroke: #000000; stroke-width: 0.8; stroke-linejoin: miter; stroke-linecap: square"/>
   </g>
   <g id="text_16">
    <!-- $\tau=1.100(67) ms$ -->
    <g style="fill: #1f77b4" transform="translate(168.546938 228.965088)scale(0.2 -0.2)">
     <defs>
      <path id="DejaVuSans-Oblique-3c4" d="M 2103 638 
Q 2188 488 2525 488 
L 2800 488 
L 2706 0 
L 2363 0 
Q 1800 0 1600 300 
Q 1403 606 1534 1269 
L 1856 2925 
L 541 2925 
L 653 3500 
L 3881 3500 
L 3769 2925 
L 2444 2925 
L 2113 1234 
Q 2025 781 2103 638 
z
" transform="scale(0.015625)"/>
      <path id="DejaVuSans-3d" d="M 678 2906 
L 4684 2906 
L 4684 2381 
L 678 2381 
L 678 2906 
z
M 678 1631 
L 4684 1631 
L 4684 1100 
L 678 1100 
L 678 1631 
z
" transform="scale(0.015625)"/>
     </defs>
     <use xlink:href="#DejaVuSans-Oblique-3c4" transform="translate(0 0.125)"/>
     <use xlink:href="#DejaVuSans-3d" transform="translate(79.6875 0.125)"/>
     <use xlink:href="#DejaVuSans-31" transform="translate(182.958984 0.125)"/>
     <use xlink:href="#DejaVuSans-2e" transform="translate(246.582031 0.125)"/>
     <use xlink:href="#DejaVuSans-31" transform="translate(278.369141 0.125)"/>
     <use xlink:href="#DejaVuSans-30" transform="translate(341.992188 0.125)"/>
     <use xlink:href="#DejaVuSans-30" transform="translate(405.615234 0.125)"/>
     <use xlink:href="#DejaVuSans-28" transform="translate(469.238281 0.125)"/>
     <use xlink:href="#DejaVuSans-36" transform="translate(508.251953 0.125)"/>
     <use xlink:href="#DejaVuSans-37" transform="translate(571.875 0.125)"/>
     <use xlink:href="#DejaVuSans-29" transform="translate(635.498047 0.125)"/>
     <use xlink:href="#DejaVuSans-Oblique-6d" transform="translate(674.511719 0.125)"/>
     <use xlink:href="#DejaVuSans-Oblique-73" transform="translate(771.923828 0.125)"/>
    </g>
   </g>
  </g>
 </g>
 <defs>
  <clipPath id="p328bf03e80">
   <rect x="61.410938" y="7.2" width="357.12" height="266.112"/>
  </clipPath>
 </defs>
</svg>
