<?xml version="1.0" encoding="utf-8" standalone="no"?>
<!DOCTYPE svg PUBLIC "-//W3C//DTD SVG 1.1//EN"
  "http://www.w3.org/Graphics/SVG/1.1/DTD/svg11.dtd">
<svg xmlns:xlink="http://www.w3.org/1999/xlink" width="447.790188pt" height="302.029187pt" viewBox="0 0 447.790188 302.029187" xmlns="http://www.w3.org/2000/svg" version="1.1">
 <defs>
  <style type="text/css">*{stroke-linejoin: round; stroke-linecap: butt}</style>
 </defs>
 <g id="figure_1">
  <g id="patch_1">
   <path d="M 0 302.029187 
L 447.790188 302.029187 
L 447.790188 0 
L 0 0 
L 0 302.029187 
z
" style="fill: none"/>
  </g>
  <g id="axes_1">
   <g id="patch_2">
    <path d="M 57.142187 273.312 
L 414.262188 273.312 
L 414.262188 7.2 
L 57.142187 7.2 
L 57.142187 273.312 
z
" style="fill: none"/>
   </g>
   <g id="matplotlib.axis_1">
    <g id="xtick_1">
     <g id="line2d_1">
      <path d="M 57.142187 273.312 
L 57.142187 7.2 
" clip-path="url(#p3f29d3b4c9)" style="fill: none; stroke: #b0b0b0; stroke-width: 0.8; stroke-linecap: square"/>
     </g>
     <g id="line2d_2">
      <defs>
       <path id="md39032bed2" d="M 0 0 
L 0 3.5 
" style="stroke: #000000; stroke-width: 0.8"/>
      </defs>
      <g>
       <use xlink:href="#md39032bed2" x="57.142187" y="273.312" style="stroke: #000000; stroke-width: 0.8"/>
      </g>
     </g>
     <g id="text_1">
      <!-- 0 -->
      <g transform="translate(52.370312 291.709656) scale(0.15 -0.15)">
       <defs>
        <path id="DejaVuSans-30" d="M 2034 4250 
Q 1547 4250 1301 3770 
Q 1056 3291 1056 2328 
Q 1056 1369 1301 889 
Q 1547 409 2034 409 
Q 2525 409 2770 889 
Q 3016 1369 3016 2328 
Q 3016 3291 2770 3770 
Q 2525 4250 2034 4250 
z
M 2034 4750 
Q 2819 4750 3233 4129 
Q 3647 3509 3647 2328 
Q 3647 1150 3233 529 
Q 2819 -91 2034 -91 
Q 1250 -91 836 529 
Q 422 1150 422 2328 
Q 422 3509 836 4129 
Q 1250 4750 2034 4750 
z
" transform="scale(0.015625)"/>
       </defs>
       <use xlink:href="#DejaVuSans-30"/>
      </g>
     </g>
    </g>
    <g id="xtick_2">
     <g id="line2d_3">
      <path d="M 128.566188 273.312 
L 128.566188 7.2 
" clip-path="url(#p3f29d3b4c9)" style="fill: none; stroke: #b0b0b0; stroke-width: 0.8; stroke-linecap: square"/>
     </g>
     <g id="line2d_4">
      <g>
       <use xlink:href="#md39032bed2" x="128.566188" y="273.312" style="stroke: #000000; stroke-width: 0.8"/>
      </g>
     </g>
     <g id="text_2">
      <!-- 5 -->
      <g transform="translate(123.794313 291.709656) scale(0.15 -0.15)">
       <defs>
        <path id="DejaVuSans-35" d="M 691 4666 
L 3169 4666 
L 3169 4134 
L 1269 4134 
L 1269 2991 
Q 1406 3038 1543 3061 
Q 1681 3084 1819 3084 
Q 2600 3084 3056 2656 
Q 3513 2228 3513 1497 
Q 3513 744 3044 326 
Q 2575 -91 1722 -91 
Q 1428 -91 1123 -41 
Q 819 9 494 109 
L 494 744 
Q 775 591 1075 516 
Q 1375 441 1709 441 
Q 2250 441 2565 725 
Q 2881 1009 2881 1497 
Q 2881 1984 2565 2268 
Q 2250 2553 1709 2553 
Q 1456 2553 1204 2497 
Q 953 2441 691 2322 
L 691 4666 
z
" transform="scale(0.015625)"/>
       </defs>
       <use xlink:href="#DejaVuSans-35"/>
      </g>
     </g>
    </g>
    <g id="xtick_3">
     <g id="line2d_5">
      <path d="M 199.990188 273.312 
L 199.990188 7.2 
" clip-path="url(#p3f29d3b4c9)" style="fill: none; stroke: #b0b0b0; stroke-width: 0.8; stroke-linecap: square"/>
     </g>
     <g id="line2d_6">
      <g>
       <use xlink:href="#md39032bed2" x="199.990188" y="273.312" style="stroke: #000000; stroke-width: 0.8"/>
      </g>
     </g>
     <g id="text_3">
      <!-- 10 -->
      <g transform="translate(190.446438 291.709656) scale(0.15 -0.15)">
       <defs>
        <path id="DejaVuSans-31" d="M 794 531 
L 1825 531 
L 1825 4091 
L 703 3866 
L 703 4441 
L 1819 4666 
L 2450 4666 
L 2450 531 
L 3481 531 
L 3481 0 
L 794 0 
L 794 531 
z
" transform="scale(0.015625)"/>
       </defs>
       <use xlink:href="#DejaVuSans-31"/>
       <use xlink:href="#DejaVuSans-30" x="63.623047"/>
      </g>
     </g>
    </g>
    <g id="xtick_4">
     <g id="line2d_7">
      <path d="M 271.414188 273.312 
L 271.414188 7.2 
" clip-path="url(#p3f29d3b4c9)" style="fill: none; stroke: #b0b0b0; stroke-width: 0.8; stroke-linecap: square"/>
     </g>
     <g id="line2d_8">
      <g>
       <use xlink:href="#md39032bed2" x="271.414188" y="273.312" style="stroke: #000000; stroke-width: 0.8"/>
      </g>
     </g>
     <g id="text_4">
      <!-- 15 -->
      <g transform="translate(261.870438 291.709656) scale(0.15 -0.15)">
       <use xlink:href="#DejaVuSans-31"/>
       <use xlink:href="#DejaVuSans-35" x="63.623047"/>
      </g>
     </g>
    </g>
    <g id="xtick_5">
     <g id="line2d_9">
      <path d="M 342.838188 273.312 
L 342.838188 7.2 
" clip-path="url(#p3f29d3b4c9)" style="fill: none; stroke: #b0b0b0; stroke-width: 0.8; stroke-linecap: square"/>
     </g>
     <g id="line2d_10">
      <g>
       <use xlink:href="#md39032bed2" x="342.838188" y="273.312" style="stroke: #000000; stroke-width: 0.8"/>
      </g>
     </g>
     <g id="text_5">
      <!-- 20 -->
      <g transform="translate(333.294438 291.709656) scale(0.15 -0.15)">
       <defs>
        <path id="DejaVuSans-32" d="M 1228 531 
L 3431 531 
L 3431 0 
L 469 0 
L 469 531 
Q 828 903 1448 1529 
Q 2069 2156 2228 2338 
Q 2531 2678 2651 2914 
Q 2772 3150 2772 3378 
Q 2772 3750 2511 3984 
Q 2250 4219 1831 4219 
Q 1534 4219 1204 4116 
Q 875 4013 500 3803 
L 500 4441 
Q 881 4594 1212 4672 
Q 1544 4750 1819 4750 
Q 2544 4750 2975 4387 
Q 3406 4025 3406 3419 
Q 3406 3131 3298 2873 
Q 3191 2616 2906 2266 
Q 2828 2175 2409 1742 
Q 1991 1309 1228 531 
z
" transform="scale(0.015625)"/>
       </defs>
       <use xlink:href="#DejaVuSans-32"/>
       <use xlink:href="#DejaVuSans-30" x="63.623047"/>
      </g>
     </g>
    </g>
    <g id="xtick_6">
     <g id="line2d_11">
      <path d="M 414.262188 273.312 
L 414.262188 7.2 
" clip-path="url(#p3f29d3b4c9)" style="fill: none; stroke: #b0b0b0; stroke-width: 0.8; stroke-linecap: square"/>
     </g>
     <g id="line2d_12">
      <g>
       <use xlink:href="#md39032bed2" x="414.262188" y="273.312" style="stroke: #000000; stroke-width: 0.8"/>
      </g>
     </g>
     <g id="text_6">
      <!-- 25 -->
      <g transform="translate(404.718438 291.709656) scale(0.15 -0.15)">
       <use xlink:href="#DejaVuSans-32"/>
       <use xlink:href="#DejaVuSans-35" x="63.623047"/>
      </g>
     </g>
    </g>
   </g>
   <g id="matplotlib.axis_2">
    <g id="ytick_1">
     <g id="line2d_13">
      <path d="M 57.142187 273.312 
L 414.262188 273.312 
" clip-path="url(#p3f29d3b4c9)" style="fill: none; stroke: #b0b0b0; stroke-width: 0.8; stroke-linecap: square"/>
     </g>
     <g id="line2d_14">
      <defs>
       <path id="m6f3f5b6aff" d="M 0 0 
L -3.5 0 
" style="stroke: #000000; stroke-width: 0.8"/>
      </defs>
      <g>
       <use xlink:href="#m6f3f5b6aff" x="57.142187" y="273.312" style="stroke: #000000; stroke-width: 0.8"/>
      </g>
     </g>
     <g id="text_7">
      <!-- 0.000 -->
      <g transform="translate(7.2 279.010828) scale(0.15 -0.15)">
       <defs>
        <path id="DejaVuSans-2e" d="M 684 794 
L 1344 794 
L 1344 0 
L 684 0 
L 684 794 
z
" transform="scale(0.015625)"/>
       </defs>
       <use xlink:href="#DejaVuSans-30"/>
       <use xlink:href="#DejaVuSans-2e" x="63.623047"/>
       <use xlink:href="#DejaVuSans-30" x="95.410156"/>
       <use xlink:href="#DejaVuSans-30" x="159.033203"/>
       <use xlink:href="#DejaVuSans-30" x="222.65625"/>
      </g>
     </g>
    </g>
    <g id="ytick_2">
     <g id="line2d_15">
      <path d="M 57.142187 239.195077 
L 414.262188 239.195077 
" clip-path="url(#p3f29d3b4c9)" style="fill: none; stroke: #b0b0b0; stroke-width: 0.8; stroke-linecap: square"/>
     </g>
     <g id="line2d_16">
      <g>
       <use xlink:href="#m6f3f5b6aff" x="57.142187" y="239.195077" style="stroke: #000000; stroke-width: 0.8"/>
      </g>
     </g>
     <g id="text_8">
      <!-- 0.005 -->
      <g transform="translate(7.2 244.893905) scale(0.15 -0.15)">
       <use xlink:href="#DejaVuSans-30"/>
       <use xlink:href="#DejaVuSans-2e" x="63.623047"/>
       <use xlink:href="#DejaVuSans-30" x="95.410156"/>
       <use xlink:href="#DejaVuSans-30" x="159.033203"/>
       <use xlink:href="#DejaVuSans-35" x="222.65625"/>
      </g>
     </g>
    </g>
    <g id="ytick_3">
     <g id="line2d_17">
      <path d="M 57.142187 205.078154 
L 414.262188 205.078154 
" clip-path="url(#p3f29d3b4c9)" style="fill: none; stroke: #b0b0b0; stroke-width: 0.8; stroke-linecap: square"/>
     </g>
     <g id="line2d_18">
      <g>
       <use xlink:href="#m6f3f5b6aff" x="57.142187" y="205.078154" style="stroke: #000000; stroke-width: 0.8"/>
      </g>
     </g>
     <g id="text_9">
      <!-- 0.010 -->
      <g transform="translate(7.2 210.776982) scale(0.15 -0.15)">
       <use xlink:href="#DejaVuSans-30"/>
       <use xlink:href="#DejaVuSans-2e" x="63.623047"/>
       <use xlink:href="#DejaVuSans-30" x="95.410156"/>
       <use xlink:href="#DejaVuSans-31" x="159.033203"/>
       <use xlink:href="#DejaVuSans-30" x="222.65625"/>
      </g>
     </g>
    </g>
    <g id="ytick_4">
     <g id="line2d_19">
      <path d="M 57.142187 170.961231 
L 414.262188 170.961231 
" clip-path="url(#p3f29d3b4c9)" style="fill: none; stroke: #b0b0b0; stroke-width: 0.8; stroke-linecap: square"/>
     </g>
     <g id="line2d_20">
      <g>
       <use xlink:href="#m6f3f5b6aff" x="57.142187" y="170.961231" style="stroke: #000000; stroke-width: 0.8"/>
      </g>
     </g>
     <g id="text_10">
      <!-- 0.015 -->
      <g transform="translate(7.2 176.660059) scale(0.15 -0.15)">
       <use xlink:href="#DejaVuSans-30"/>
       <use xlink:href="#DejaVuSans-2e" x="63.623047"/>
       <use xlink:href="#DejaVuSans-30" x="95.410156"/>
       <use xlink:href="#DejaVuSans-31" x="159.033203"/>
       <use xlink:href="#DejaVuSans-35" x="222.65625"/>
      </g>
     </g>
    </g>
    <g id="ytick_5">
     <g id="line2d_21">
      <path d="M 57.142187 136.844308 
L 414.262188 136.844308 
" clip-path="url(#p3f29d3b4c9)" style="fill: none; stroke: #b0b0b0; stroke-width: 0.8; stroke-linecap: square"/>
     </g>
     <g id="line2d_22">
      <g>
       <use xlink:href="#m6f3f5b6aff" x="57.142187" y="136.844308" style="stroke: #000000; stroke-width: 0.8"/>
      </g>
     </g>
     <g id="text_11">
      <!-- 0.020 -->
      <g transform="translate(7.2 142.543136) scale(0.15 -0.15)">
       <use xlink:href="#DejaVuSans-30"/>
       <use xlink:href="#DejaVuSans-2e" x="63.623047"/>
       <use xlink:href="#DejaVuSans-30" x="95.410156"/>
       <use xlink:href="#DejaVuSans-32" x="159.033203"/>
       <use xlink:href="#DejaVuSans-30" x="222.65625"/>
      </g>
     </g>
    </g>
    <g id="ytick_6">
     <g id="line2d_23">
      <path d="M 57.142187 102.727385 
L 414.262188 102.727385 
" clip-path="url(#p3f29d3b4c9)" style="fill: none; stroke: #b0b0b0; stroke-width: 0.8; stroke-linecap: square"/>
     </g>
     <g id="line2d_24">
      <g>
       <use xlink:href="#m6f3f5b6aff" x="57.142187" y="102.727385" style="stroke: #000000; stroke-width: 0.8"/>
      </g>
     </g>
     <g id="text_12">
      <!-- 0.025 -->
      <g transform="translate(7.2 108.426213) scale(0.15 -0.15)">
       <use xlink:href="#DejaVuSans-30"/>
       <use xlink:href="#DejaVuSans-2e" x="63.623047"/>
       <use xlink:href="#DejaVuSans-30" x="95.410156"/>
       <use xlink:href="#DejaVuSans-32" x="159.033203"/>
       <use xlink:href="#DejaVuSans-35" x="222.65625"/>
      </g>
     </g>
    </g>
    <g id="ytick_7">
     <g id="line2d_25">
      <path d="M 57.142187 68.610462 
L 414.262188 68.610462 
" clip-path="url(#p3f29d3b4c9)" style="fill: none; stroke: #b0b0b0; stroke-width: 0.8; stroke-linecap: square"/>
     </g>
     <g id="line2d_26">
      <g>
       <use xlink:href="#m6f3f5b6aff" x="57.142187" y="68.610462" style="stroke: #000000; stroke-width: 0.8"/>
      </g>
     </g>
     <g id="text_13">
      <!-- 0.030 -->
      <g transform="translate(7.2 74.30929) scale(0.15 -0.15)">
       <defs>
        <path id="DejaVuSans-33" d="M 2597 2516 
Q 3050 2419 3304 2112 
Q 3559 1806 3559 1356 
Q 3559 666 3084 287 
Q 2609 -91 1734 -91 
Q 1441 -91 1130 -33 
Q 819 25 488 141 
L 488 750 
Q 750 597 1062 519 
Q 1375 441 1716 441 
Q 2309 441 2620 675 
Q 2931 909 2931 1356 
Q 2931 1769 2642 2001 
Q 2353 2234 1838 2234 
L 1294 2234 
L 1294 2753 
L 1863 2753 
Q 2328 2753 2575 2939 
Q 2822 3125 2822 3475 
Q 2822 3834 2567 4026 
Q 2313 4219 1838 4219 
Q 1578 4219 1281 4162 
Q 984 4106 628 3988 
L 628 4550 
Q 988 4650 1302 4700 
Q 1616 4750 1894 4750 
Q 2613 4750 3031 4423 
Q 3450 4097 3450 3541 
Q 3450 3153 3228 2886 
Q 3006 2619 2597 2516 
z
" transform="scale(0.015625)"/>
       </defs>
       <use xlink:href="#DejaVuSans-30"/>
       <use xlink:href="#DejaVuSans-2e" x="63.623047"/>
       <use xlink:href="#DejaVuSans-30" x="95.410156"/>
       <use xlink:href="#DejaVuSans-33" x="159.033203"/>
       <use xlink:href="#DejaVuSans-30" x="222.65625"/>
      </g>
     </g>
    </g>
    <g id="ytick_8">
     <g id="line2d_27">
      <path d="M 57.142187 34.493538 
L 414.262188 34.493538 
" clip-path="url(#p3f29d3b4c9)" style="fill: none; stroke: #b0b0b0; stroke-width: 0.8; stroke-linecap: square"/>
     </g>
     <g id="line2d_28">
      <g>
       <use xlink:href="#m6f3f5b6aff" x="57.142187" y="34.493538" style="stroke: #000000; stroke-width: 0.8"/>
      </g>
     </g>
     <g id="text_14">
      <!-- 0.035 -->
      <g transform="translate(7.2 40.192367) scale(0.15 -0.15)">
       <use xlink:href="#DejaVuSans-30"/>
       <use xlink:href="#DejaVuSans-2e" x="63.623047"/>
       <use xlink:href="#DejaVuSans-30" x="95.410156"/>
       <use xlink:href="#DejaVuSans-33" x="159.033203"/>
       <use xlink:href="#DejaVuSans-35" x="222.65625"/>
      </g>
     </g>
    </g>
   </g>
   <g id="line2d_29">
    <path d="M 57.142187 244.91213 
L 414.275045 152.116436 
L 414.275045 152.116436 
" clip-path="url(#p3f29d3b4c9)" style="fill: none; stroke: #1f77b4; stroke-width: 1.5; stroke-linecap: square"/>
   </g>
   <g id="LineCollection_1">
    <path d="M 57.142187 256.663682 
L 57.142187 228.611206 
" clip-path="url(#p3f29d3b4c9)" style="fill: none; stroke: #1f77b4; stroke-width: 1.5"/>
    <path d="M 171.420588 240.479781 
L 171.420588 203.895698 
" clip-path="url(#p3f29d3b4c9)" style="fill: none; stroke: #1f77b4; stroke-width: 1.5"/>
    <path d="M 285.698988 205.942266 
L 285.698988 156.634396 
" clip-path="url(#p3f29d3b4c9)" style="fill: none; stroke: #1f77b4; stroke-width: 1.5"/>
    <path d="M 399.977388 182.095232 
L 399.977388 125.948886 
" clip-path="url(#p3f29d3b4c9)" style="fill: none; stroke: #1f77b4; stroke-width: 1.5"/>
   </g>
   <g id="line2d_30">
    <path d="M 57.142187 252.813785 
L 414.275045 151.954759 
L 414.275045 151.954759 
" clip-path="url(#p3f29d3b4c9)" style="fill: none; stroke: #ff7f0e; stroke-width: 1.5; stroke-linecap: square"/>
   </g>
   <g id="LineCollection_2">
    <path d="M 57.142187 266.486339 
L 57.142187 246.054821 
" clip-path="url(#p3f29d3b4c9)" style="fill: none; stroke: #ff7f0e; stroke-width: 1.5"/>
    <path d="M 171.420588 217.661645 
L 171.420588 172.18129 
" clip-path="url(#p3f29d3b4c9)" style="fill: none; stroke: #ff7f0e; stroke-width: 1.5"/>
    <path d="M 285.698988 211.822246 
L 285.698988 164.387552 
" clip-path="url(#p3f29d3b4c9)" style="fill: none; stroke: #ff7f0e; stroke-width: 1.5"/>
    <path d="M 399.977388 194.077641 
L 399.977388 141.23275 
" clip-path="url(#p3f29d3b4c9)" style="fill: none; stroke: #ff7f0e; stroke-width: 1.5"/>
   </g>
   <g id="line2d_31">
    <path d="M 57.142187 212.122777 
L 414.275045 190.541643 
L 414.275045 190.541643 
" clip-path="url(#p3f29d3b4c9)" style="fill: none; stroke: #2ca02c; stroke-width: 1.5; stroke-linecap: square"/>
   </g>
   <g id="LineCollection_3">
    <path d="M 57.142187 240.479781 
L 57.142187 203.895698 
" clip-path="url(#p3f29d3b4c9)" style="fill: none; stroke: #2ca02c; stroke-width: 1.5"/>
    <path d="M 171.420588 217.661645 
L 171.420588 172.18129 
" clip-path="url(#p3f29d3b4c9)" style="fill: none; stroke: #2ca02c; stroke-width: 1.5"/>
    <path d="M 285.698988 188.099787 
L 285.698988 133.577468 
" clip-path="url(#p3f29d3b4c9)" style="fill: none; stroke: #2ca02c; stroke-width: 1.5"/>
    <path d="M 399.977388 229.195415 
L 399.977388 187.913792 
" clip-path="url(#p3f29d3b4c9)" style="fill: none; stroke: #2ca02c; stroke-width: 1.5"/>
   </g>
   <g id="line2d_32">
    <path d="M 57.142187 228.368193 
L 414.275045 185.075782 
L 414.275045 185.075782 
" clip-path="url(#p3f29d3b4c9)" style="fill: none; stroke: #d62728; stroke-width: 1.5; stroke-linecap: square"/>
   </g>
   <g id="LineCollection_4">
    <path d="M 57.142187 217.661645 
L 57.142187 172.18129 
" clip-path="url(#p3f29d3b4c9)" style="fill: none; stroke: #d62728; stroke-width: 1.5"/>
    <path d="M 171.420588 251.402363 
L 171.420588 220.239388 
" clip-path="url(#p3f29d3b4c9)" style="fill: none; stroke: #d62728; stroke-width: 1.5"/>
    <path d="M 285.698988 229.195415 
L 285.698988 187.913792 
" clip-path="url(#p3f29d3b4c9)" style="fill: none; stroke: #d62728; stroke-width: 1.5"/>
    <path d="M 399.977388 182.095232 
L 399.977388 125.948886 
" clip-path="url(#p3f29d3b4c9)" style="fill: none; stroke: #d62728; stroke-width: 1.5"/>
   </g>
   <g id="line2d_33">
    <defs>
     <path id="mcceb8b8273" d="M 0 3 
C 0.795609 3 1.55874 2.683901 2.12132 2.12132 
C 2.683901 1.55874 3 0.795609 3 0 
C 3 -0.795609 2.683901 -1.55874 2.12132 -2.12132 
C 1.55874 -2.683901 0.795609 -3 0 -3 
C -0.795609 -3 -1.55874 -2.683901 -2.12132 -2.12132 
C -2.683901 -1.55874 -3 -0.795609 -3 0 
C -3 0.795609 -2.683901 1.55874 -2.12132 2.12132 
C -1.55874 2.683901 -0.795609 3 0 3 
z
" style="stroke: #1f77b4"/>
    </defs>
    <g clip-path="url(#p3f29d3b4c9)">
     <use xlink:href="#mcceb8b8273" x="57.142187" y="242.637444" style="fill: #1f77b4; stroke: #1f77b4"/>
     <use xlink:href="#mcceb8b8273" x="171.420588" y="222.18774" style="fill: #1f77b4; stroke: #1f77b4"/>
     <use xlink:href="#mcceb8b8273" x="285.698988" y="181.288331" style="fill: #1f77b4; stroke: #1f77b4"/>
     <use xlink:href="#mcceb8b8273" x="399.977388" y="154.022059" style="fill: #1f77b4; stroke: #1f77b4"/>
    </g>
   </g>
   <g id="line2d_34">
    <defs>
     <path id="mff6e4f8517" d="M 0 3 
C 0.795609 3 1.55874 2.683901 2.12132 2.12132 
C 2.683901 1.55874 3 0.795609 3 0 
C 3 -0.795609 2.683901 -1.55874 2.12132 -2.12132 
C 1.55874 -2.683901 0.795609 -3 0 -3 
C -0.795609 -3 -1.55874 -2.683901 -2.12132 -2.12132 
C -2.683901 -1.55874 -3 -0.795609 -3 0 
C -3 0.795609 -2.683901 1.55874 -2.12132 2.12132 
C -1.55874 2.683901 -0.795609 3 0 3 
z
" style="stroke: #ff7f0e"/>
    </defs>
    <g clip-path="url(#p3f29d3b4c9)">
     <use xlink:href="#mff6e4f8517" x="57.142187" y="256.27058" style="fill: #ff7f0e; stroke: #ff7f0e"/>
     <use xlink:href="#mff6e4f8517" x="171.420588" y="194.921467" style="fill: #ff7f0e; stroke: #ff7f0e"/>
     <use xlink:href="#mff6e4f8517" x="285.698988" y="188.104899" style="fill: #ff7f0e; stroke: #ff7f0e"/>
     <use xlink:href="#mff6e4f8517" x="399.977388" y="167.655195" style="fill: #ff7f0e; stroke: #ff7f0e"/>
    </g>
   </g>
   <g id="line2d_35">
    <defs>
     <path id="m5b2af9e1fb" d="M 0 3 
C 0.795609 3 1.55874 2.683901 2.12132 2.12132 
C 2.683901 1.55874 3 0.795609 3 0 
C 3 -0.795609 2.683901 -1.55874 2.12132 -2.12132 
C 1.55874 -2.683901 0.795609 -3 0 -3 
C -0.795609 -3 -1.55874 -2.683901 -2.12132 -2.12132 
C -2.683901 -1.55874 -3 -0.795609 -3 0 
C -3 0.795609 -2.683901 1.55874 -2.12132 2.12132 
C -1.55874 2.683901 -0.795609 3 0 3 
z
" style="stroke: #2ca02c"/>
    </defs>
    <g clip-path="url(#p3f29d3b4c9)">
     <use xlink:href="#m5b2af9e1fb" x="57.142187" y="222.18774" style="fill: #2ca02c; stroke: #2ca02c"/>
     <use xlink:href="#m5b2af9e1fb" x="171.420588" y="194.921467" style="fill: #2ca02c; stroke: #2ca02c"/>
     <use xlink:href="#m5b2af9e1fb" x="285.698988" y="160.838627" style="fill: #2ca02c; stroke: #2ca02c"/>
     <use xlink:href="#m5b2af9e1fb" x="399.977388" y="208.554604" style="fill: #2ca02c; stroke: #2ca02c"/>
    </g>
   </g>
   <g id="line2d_36">
    <defs>
     <path id="m2c75f8ed43" d="M 0 3 
C 0.795609 3 1.55874 2.683901 2.12132 2.12132 
C 2.683901 1.55874 3 0.795609 3 0 
C 3 -0.795609 2.683901 -1.55874 2.12132 -2.12132 
C 1.55874 -2.683901 0.795609 -3 0 -3 
C -0.795609 -3 -1.55874 -2.683901 -2.12132 -2.12132 
C -2.683901 -1.55874 -3 -0.795609 -3 0 
C -3 0.795609 -2.683901 1.55874 -2.12132 2.12132 
C -1.55874 2.683901 -0.795609 3 0 3 
z
" style="stroke: #d62728"/>
    </defs>
    <g clip-path="url(#p3f29d3b4c9)">
     <use xlink:href="#m2c75f8ed43" x="57.142187" y="194.921467" style="fill: #d62728; stroke: #d62728"/>
     <use xlink:href="#m2c75f8ed43" x="171.420588" y="235.820876" style="fill: #d62728; stroke: #d62728"/>
     <use xlink:href="#m2c75f8ed43" x="285.698988" y="208.554604" style="fill: #d62728; stroke: #d62728"/>
     <use xlink:href="#m2c75f8ed43" x="399.977388" y="154.022059" style="fill: #d62728; stroke: #d62728"/>
    </g>
   </g>
   <g id="patch_3">
    <path d="M 57.142187 273.312 
L 57.142187 7.2 
" style="fill: none; stroke: #000000; stroke-width: 0.8; stroke-linejoin: miter; stroke-linecap: square"/>
   </g>
   <g id="patch_4">
    <path d="M 414.262188 273.312 
L 414.262188 7.2 
" style="fill: none; stroke: #000000; stroke-width: 0.8; stroke-linejoin: miter; stroke-linecap: square"/>
   </g>
   <g id="patch_5">
    <path d="M 57.142187 273.312 
L 414.262188 273.312 
" style="fill: none; stroke: #000000; stroke-width: 0.8; stroke-linejoin: miter; stroke-linecap: square"/>
   </g>
   <g id="patch_6">
    <path d="M 57.142187 7.2 
L 414.262188 7.2 
" style="fill: none; stroke: #000000; stroke-width: 0.8; stroke-linejoin: miter; stroke-linecap: square"/>
   </g>
   <g id="text_15">
    <!-- $E_{1\rightarrow0,|0\rangle}=5.4(16)\times10^{-2} \%$/cycle -->
    <g style="fill: #1f77b4" transform="translate(199.990188 27.670154) scale(0.15 -0.15)">
     <defs>
      <path id="DejaVuSans-Oblique-45" d="M 1081 4666 
L 4031 4666 
L 3928 4134 
L 1606 4134 
L 1338 2753 
L 3566 2753 
L 3463 2222 
L 1234 2222 
L 909 531 
L 3284 531 
L 3181 0 
L 172 0 
L 1081 4666 
z
" transform="scale(0.015625)"/>
      <path id="DejaVuSans-2192" d="M 5050 2147 
L 5050 1866 
L 3822 638 
L 3447 1013 
L 4175 1741 
L 366 1741 
L 366 2272 
L 4175 2272 
L 3447 3000 
L 3822 3375 
L 5050 2147 
z
" transform="scale(0.015625)"/>
      <path id="DejaVuSans-2c" d="M 750 794 
L 1409 794 
L 1409 256 
L 897 -744 
L 494 -744 
L 750 256 
L 750 794 
z
" transform="scale(0.015625)"/>
      <path id="DejaVuSans-7c" d="M 1344 4891 
L 1344 -1509 
L 813 -1509 
L 813 4891 
L 1344 4891 
z
" transform="scale(0.015625)"/>
      <path id="DejaVuSans-27e9" d="M 1925 2006 
L 1044 -844 
L 513 -844 
L 1394 2006 
L 513 4856 
L 1044 4856 
L 1925 2006 
z
" transform="scale(0.015625)"/>
      <path id="DejaVuSans-3d" d="M 678 2906 
L 4684 2906 
L 4684 2381 
L 678 2381 
L 678 2906 
z
M 678 1631 
L 4684 1631 
L 4684 1100 
L 678 1100 
L 678 1631 
z
" transform="scale(0.015625)"/>
      <path id="DejaVuSans-34" d="M 2419 4116 
L 825 1625 
L 2419 1625 
L 2419 4116 
z
M 2253 4666 
L 3047 4666 
L 3047 1625 
L 3713 1625 
L 3713 1100 
L 3047 1100 
L 3047 0 
L 2419 0 
L 2419 1100 
L 313 1100 
L 313 1709 
L 2253 4666 
z
" transform="scale(0.015625)"/>
      <path id="DejaVuSans-28" d="M 1984 4856 
Q 1566 4138 1362 3434 
Q 1159 2731 1159 2009 
Q 1159 1288 1364 580 
Q 1569 -128 1984 -844 
L 1484 -844 
Q 1016 -109 783 600 
Q 550 1309 550 2009 
Q 550 2706 781 3412 
Q 1013 4119 1484 4856 
L 1984 4856 
z
" transform="scale(0.015625)"/>
      <path id="DejaVuSans-36" d="M 2113 2584 
Q 1688 2584 1439 2293 
Q 1191 2003 1191 1497 
Q 1191 994 1439 701 
Q 1688 409 2113 409 
Q 2538 409 2786 701 
Q 3034 994 3034 1497 
Q 3034 2003 2786 2293 
Q 2538 2584 2113 2584 
z
M 3366 4563 
L 3366 3988 
Q 3128 4100 2886 4159 
Q 2644 4219 2406 4219 
Q 1781 4219 1451 3797 
Q 1122 3375 1075 2522 
Q 1259 2794 1537 2939 
Q 1816 3084 2150 3084 
Q 2853 3084 3261 2657 
Q 3669 2231 3669 1497 
Q 3669 778 3244 343 
Q 2819 -91 2113 -91 
Q 1303 -91 875 529 
Q 447 1150 447 2328 
Q 447 3434 972 4092 
Q 1497 4750 2381 4750 
Q 2619 4750 2861 4703 
Q 3103 4656 3366 4563 
z
" transform="scale(0.015625)"/>
      <path id="DejaVuSans-29" d="M 513 4856 
L 1013 4856 
Q 1481 4119 1714 3412 
Q 1947 2706 1947 2009 
Q 1947 1309 1714 600 
Q 1481 -109 1013 -844 
L 513 -844 
Q 928 -128 1133 580 
Q 1338 1288 1338 2009 
Q 1338 2731 1133 3434 
Q 928 4138 513 4856 
z
" transform="scale(0.015625)"/>
      <path id="DejaVuSans-d7" d="M 4488 3438 
L 3059 2003 
L 4488 575 
L 4116 197 
L 2681 1631 
L 1247 197 
L 878 575 
L 2303 2003 
L 878 3438 
L 1247 3816 
L 2681 2381 
L 4116 3816 
L 4488 3438 
z
" transform="scale(0.015625)"/>
      <path id="DejaVuSans-2212" d="M 678 2272 
L 4684 2272 
L 4684 1741 
L 678 1741 
L 678 2272 
z
" transform="scale(0.015625)"/>
      <path id="DejaVuSans-25" d="M 4653 2053 
Q 4381 2053 4226 1822 
Q 4072 1591 4072 1178 
Q 4072 772 4226 539 
Q 4381 306 4653 306 
Q 4919 306 5073 539 
Q 5228 772 5228 1178 
Q 5228 1588 5073 1820 
Q 4919 2053 4653 2053 
z
M 4653 2450 
Q 5147 2450 5437 2106 
Q 5728 1763 5728 1178 
Q 5728 594 5436 251 
Q 5144 -91 4653 -91 
Q 4153 -91 3862 251 
Q 3572 594 3572 1178 
Q 3572 1766 3864 2108 
Q 4156 2450 4653 2450 
z
M 1428 4353 
Q 1159 4353 1004 4120 
Q 850 3888 850 3481 
Q 850 3069 1003 2837 
Q 1156 2606 1428 2606 
Q 1700 2606 1854 2837 
Q 2009 3069 2009 3481 
Q 2009 3884 1853 4118 
Q 1697 4353 1428 4353 
z
M 4250 4750 
L 4750 4750 
L 1831 -91 
L 1331 -91 
L 4250 4750 
z
M 1428 4750 
Q 1922 4750 2215 4408 
Q 2509 4066 2509 3481 
Q 2509 2891 2217 2550 
Q 1925 2209 1428 2209 
Q 931 2209 642 2551 
Q 353 2894 353 3481 
Q 353 4063 643 4406 
Q 934 4750 1428 4750 
z
" transform="scale(0.015625)"/>
      <path id="DejaVuSans-2f" d="M 1625 4666 
L 2156 4666 
L 531 -594 
L 0 -594 
L 1625 4666 
z
" transform="scale(0.015625)"/>
      <path id="DejaVuSans-63" d="M 3122 3366 
L 3122 2828 
Q 2878 2963 2633 3030 
Q 2388 3097 2138 3097 
Q 1578 3097 1268 2742 
Q 959 2388 959 1747 
Q 959 1106 1268 751 
Q 1578 397 2138 397 
Q 2388 397 2633 464 
Q 2878 531 3122 666 
L 3122 134 
Q 2881 22 2623 -34 
Q 2366 -91 2075 -91 
Q 1284 -91 818 406 
Q 353 903 353 1747 
Q 353 2603 823 3093 
Q 1294 3584 2113 3584 
Q 2378 3584 2631 3529 
Q 2884 3475 3122 3366 
z
" transform="scale(0.015625)"/>
      <path id="DejaVuSans-79" d="M 2059 -325 
Q 1816 -950 1584 -1140 
Q 1353 -1331 966 -1331 
L 506 -1331 
L 506 -850 
L 844 -850 
Q 1081 -850 1212 -737 
Q 1344 -625 1503 -206 
L 1606 56 
L 191 3500 
L 800 3500 
L 1894 763 
L 2988 3500 
L 3597 3500 
L 2059 -325 
z
" transform="scale(0.015625)"/>
      <path id="DejaVuSans-6c" d="M 603 4863 
L 1178 4863 
L 1178 0 
L 603 0 
L 603 4863 
z
" transform="scale(0.015625)"/>
      <path id="DejaVuSans-65" d="M 3597 1894 
L 3597 1613 
L 953 1613 
Q 991 1019 1311 708 
Q 1631 397 2203 397 
Q 2534 397 2845 478 
Q 3156 559 3463 722 
L 3463 178 
Q 3153 47 2828 -22 
Q 2503 -91 2169 -91 
Q 1331 -91 842 396 
Q 353 884 353 1716 
Q 353 2575 817 3079 
Q 1281 3584 2069 3584 
Q 2775 3584 3186 3129 
Q 3597 2675 3597 1894 
z
M 3022 2063 
Q 3016 2534 2758 2815 
Q 2500 3097 2075 3097 
Q 1594 3097 1305 2825 
Q 1016 2553 972 2059 
L 3022 2063 
z
" transform="scale(0.015625)"/>
     </defs>
     <use xlink:href="#DejaVuSans-Oblique-45" transform="translate(0 0.765625)"/>
     <use xlink:href="#DejaVuSans-31" transform="translate(63.183594 -15.640625) scale(0.7)"/>
     <use xlink:href="#DejaVuSans-2192" transform="translate(121.357422 -15.640625) scale(0.7)"/>
     <use xlink:href="#DejaVuSans-30" transform="translate(193.647461 -15.640625) scale(0.7)"/>
     <use xlink:href="#DejaVuSans-2c" transform="translate(238.183594 -15.640625) scale(0.7)"/>
     <use xlink:href="#DejaVuSans-7c" transform="translate(274.072266 -15.640625) scale(0.7)"/>
     <use xlink:href="#DejaVuSans-30" transform="translate(297.65625 -15.640625) scale(0.7)"/>
     <use xlink:href="#DejaVuSans-27e9" transform="translate(342.192383 -15.640625) scale(0.7)"/>
     <use xlink:href="#DejaVuSans-3d" transform="translate(391.71875 0.765625)"/>
     <use xlink:href="#DejaVuSans-35" transform="translate(494.990234 0.765625)"/>
     <use xlink:href="#DejaVuSans-2e" transform="translate(558.613281 0.765625)"/>
     <use xlink:href="#DejaVuSans-34" transform="translate(590.400391 0.765625)"/>
     <use xlink:href="#DejaVuSans-28" transform="translate(654.023438 0.765625)"/>
     <use xlink:href="#DejaVuSans-31" transform="translate(693.037109 0.765625)"/>
     <use xlink:href="#DejaVuSans-36" transform="translate(756.660156 0.765625)"/>
     <use xlink:href="#DejaVuSans-29" transform="translate(820.283203 0.765625)"/>
     <use xlink:href="#DejaVuSans-d7" transform="translate(878.779297 0.765625)"/>
     <use xlink:href="#DejaVuSans-31" transform="translate(982.050781 0.765625)"/>
     <use xlink:href="#DejaVuSans-30" transform="translate(1045.673828 0.765625)"/>
     <use xlink:href="#DejaVuSans-2212" transform="translate(1110.253906 39.046875) scale(0.7)"/>
     <use xlink:href="#DejaVuSans-32" transform="translate(1168.90625 39.046875) scale(0.7)"/>
     <use xlink:href="#DejaVuSans-25" transform="translate(1216.176758 0.765625)"/>
     <use xlink:href="#DejaVuSans-2f" transform="translate(1311.196289 0.765625)"/>
     <use xlink:href="#DejaVuSans-63" transform="translate(1344.887695 0.765625)"/>
     <use xlink:href="#DejaVuSans-79" transform="translate(1399.868164 0.765625)"/>
     <use xlink:href="#DejaVuSans-63" transform="translate(1459.047852 0.765625)"/>
     <use xlink:href="#DejaVuSans-6c" transform="translate(1514.02832 0.765625)"/>
     <use xlink:href="#DejaVuSans-65" transform="translate(1541.811523 0.765625)"/>
    </g>
   </g>
   <g id="text_16">
    <!-- $E_{1\rightarrow0,|1\rangle}=5.9(14)\times10^{-2} \%$/cycle -->
    <g style="fill: #ff7f0e" transform="translate(199.990188 56.328369) scale(0.15 -0.15)">
     <defs>
      <path id="DejaVuSans-39" d="M 703 97 
L 703 672 
Q 941 559 1184 500 
Q 1428 441 1663 441 
Q 2288 441 2617 861 
Q 2947 1281 2994 2138 
Q 2813 1869 2534 1725 
Q 2256 1581 1919 1581 
Q 1219 1581 811 2004 
Q 403 2428 403 3163 
Q 403 3881 828 4315 
Q 1253 4750 1959 4750 
Q 2769 4750 3195 4129 
Q 3622 3509 3622 2328 
Q 3622 1225 3098 567 
Q 2575 -91 1691 -91 
Q 1453 -91 1209 -44 
Q 966 3 703 97 
z
M 1959 2075 
Q 2384 2075 2632 2365 
Q 2881 2656 2881 3163 
Q 2881 3666 2632 3958 
Q 2384 4250 1959 4250 
Q 1534 4250 1286 3958 
Q 1038 3666 1038 3163 
Q 1038 2656 1286 2365 
Q 1534 2075 1959 2075 
z
" transform="scale(0.015625)"/>
     </defs>
     <use xlink:href="#DejaVuSans-Oblique-45" transform="translate(0 0.765625)"/>
     <use xlink:href="#DejaVuSans-31" transform="translate(63.183594 -15.640625) scale(0.7)"/>
     <use xlink:href="#DejaVuSans-2192" transform="translate(121.357422 -15.640625) scale(0.7)"/>
     <use xlink:href="#DejaVuSans-30" transform="translate(193.647461 -15.640625) scale(0.7)"/>
     <use xlink:href="#DejaVuSans-2c" transform="translate(238.183594 -15.640625) scale(0.7)"/>
     <use xlink:href="#DejaVuSans-7c" transform="translate(274.072266 -15.640625) scale(0.7)"/>
     <use xlink:href="#DejaVuSans-31" transform="translate(297.65625 -15.640625) scale(0.7)"/>
     <use xlink:href="#DejaVuSans-27e9" transform="translate(342.192383 -15.640625) scale(0.7)"/>
     <use xlink:href="#DejaVuSans-3d" transform="translate(391.71875 0.765625)"/>
     <use xlink:href="#DejaVuSans-35" transform="translate(494.990234 0.765625)"/>
     <use xlink:href="#DejaVuSans-2e" transform="translate(558.613281 0.765625)"/>
     <use xlink:href="#DejaVuSans-39" transform="translate(590.400391 0.765625)"/>
     <use xlink:href="#DejaVuSans-28" transform="translate(654.023438 0.765625)"/>
     <use xlink:href="#DejaVuSans-31" transform="translate(693.037109 0.765625)"/>
     <use xlink:href="#DejaVuSans-34" transform="translate(756.660156 0.765625)"/>
     <use xlink:href="#DejaVuSans-29" transform="translate(820.283203 0.765625)"/>
     <use xlink:href="#DejaVuSans-d7" transform="translate(878.779297 0.765625)"/>
     <use xlink:href="#DejaVuSans-31" transform="translate(982.050781 0.765625)"/>
     <use xlink:href="#DejaVuSans-30" transform="translate(1045.673828 0.765625)"/>
     <use xlink:href="#DejaVuSans-2212" transform="translate(1110.253906 39.046875) scale(0.7)"/>
     <use xlink:href="#DejaVuSans-32" transform="translate(1168.90625 39.046875) scale(0.7)"/>
     <use xlink:href="#DejaVuSans-25" transform="translate(1216.176758 0.765625)"/>
     <use xlink:href="#DejaVuSans-2f" transform="translate(1311.196289 0.765625)"/>
     <use xlink:href="#DejaVuSans-63" transform="translate(1344.887695 0.765625)"/>
     <use xlink:href="#DejaVuSans-79" transform="translate(1399.868164 0.765625)"/>
     <use xlink:href="#DejaVuSans-63" transform="translate(1459.047852 0.765625)"/>
     <use xlink:href="#DejaVuSans-6c" transform="translate(1514.02832 0.765625)"/>
     <use xlink:href="#DejaVuSans-65" transform="translate(1541.811523 0.765625)"/>
    </g>
   </g>
   <g id="text_17">
    <!-- $E_{0\rightarrow1,|0\rangle}=1.3(16)\times10^{-2} \%$/cycle -->
    <g style="fill: #2ca02c" transform="translate(199.990188 84.986585) scale(0.15 -0.15)">
     <use xlink:href="#DejaVuSans-Oblique-45" transform="translate(0 0.765625)"/>
     <use xlink:href="#DejaVuSans-30" transform="translate(63.183594 -15.640625) scale(0.7)"/>
     <use xlink:href="#DejaVuSans-2192" transform="translate(121.357422 -15.640625) scale(0.7)"/>
     <use xlink:href="#DejaVuSans-31" transform="translate(193.647461 -15.640625) scale(0.7)"/>
     <use xlink:href="#DejaVuSans-2c" transform="translate(238.183594 -15.640625) scale(0.7)"/>
     <use xlink:href="#DejaVuSans-7c" transform="translate(274.072266 -15.640625) scale(0.7)"/>
     <use xlink:href="#DejaVuSans-30" transform="translate(297.65625 -15.640625) scale(0.7)"/>
     <use xlink:href="#DejaVuSans-27e9" transform="translate(342.192383 -15.640625) scale(0.7)"/>
     <use xlink:href="#DejaVuSans-3d" transform="translate(391.71875 0.765625)"/>
     <use xlink:href="#DejaVuSans-31" transform="translate(494.990234 0.765625)"/>
     <use xlink:href="#DejaVuSans-2e" transform="translate(558.613281 0.765625)"/>
     <use xlink:href="#DejaVuSans-33" transform="translate(590.400391 0.765625)"/>
     <use xlink:href="#DejaVuSans-28" transform="translate(654.023438 0.765625)"/>
     <use xlink:href="#DejaVuSans-31" transform="translate(693.037109 0.765625)"/>
     <use xlink:href="#DejaVuSans-36" transform="translate(756.660156 0.765625)"/>
     <use xlink:href="#DejaVuSans-29" transform="translate(820.283203 0.765625)"/>
     <use xlink:href="#DejaVuSans-d7" transform="translate(878.779297 0.765625)"/>
     <use xlink:href="#DejaVuSans-31" transform="translate(982.050781 0.765625)"/>
     <use xlink:href="#DejaVuSans-30" transform="translate(1045.673828 0.765625)"/>
     <use xlink:href="#DejaVuSans-2212" transform="translate(1110.253906 39.046875) scale(0.7)"/>
     <use xlink:href="#DejaVuSans-32" transform="translate(1168.90625 39.046875) scale(0.7)"/>
     <use xlink:href="#DejaVuSans-25" transform="translate(1216.176758 0.765625)"/>
     <use xlink:href="#DejaVuSans-2f" transform="translate(1311.196289 0.765625)"/>
     <use xlink:href="#DejaVuSans-63" transform="translate(1344.887695 0.765625)"/>
     <use xlink:href="#DejaVuSans-79" transform="translate(1399.868164 0.765625)"/>
     <use xlink:href="#DejaVuSans-63" transform="translate(1459.047852 0.765625)"/>
     <use xlink:href="#DejaVuSans-6c" transform="translate(1514.02832 0.765625)"/>
     <use xlink:href="#DejaVuSans-65" transform="translate(1541.811523 0.765625)"/>
    </g>
   </g>
   <g id="text_18">
    <!-- $E_{0\rightarrow1,|1\rangle}=2.5(19)\times10^{-2} \%$/cycle -->
    <g style="fill: #d62728" transform="translate(199.990188 113.6448) scale(0.15 -0.15)">
     <use xlink:href="#DejaVuSans-Oblique-45" transform="translate(0 0.765625)"/>
     <use xlink:href="#DejaVuSans-30" transform="translate(63.183594 -15.640625) scale(0.7)"/>
     <use xlink:href="#DejaVuSans-2192" transform="translate(121.357422 -15.640625) scale(0.7)"/>
     <use xlink:href="#DejaVuSans-31" transform="translate(193.647461 -15.640625) scale(0.7)"/>
     <use xlink:href="#DejaVuSans-2c" transform="translate(238.183594 -15.640625) scale(0.7)"/>
     <use xlink:href="#DejaVuSans-7c" transform="translate(274.072266 -15.640625) scale(0.7)"/>
     <use xlink:href="#DejaVuSans-31" transform="translate(297.65625 -15.640625) scale(0.7)"/>
     <use xlink:href="#DejaVuSans-27e9" transform="translate(342.192383 -15.640625) scale(0.7)"/>
     <use xlink:href="#DejaVuSans-3d" transform="translate(391.71875 0.765625)"/>
     <use xlink:href="#DejaVuSans-32" transform="translate(494.990234 0.765625)"/>
     <use xlink:href="#DejaVuSans-2e" transform="translate(558.613281 0.765625)"/>
     <use xlink:href="#DejaVuSans-35" transform="translate(590.400391 0.765625)"/>
     <use xlink:href="#DejaVuSans-28" transform="translate(654.023438 0.765625)"/>
     <use xlink:href="#DejaVuSans-31" transform="translate(693.037109 0.765625)"/>
     <use xlink:href="#DejaVuSans-39" transform="translate(756.660156 0.765625)"/>
     <use xlink:href="#DejaVuSans-29" transform="translate(820.283203 0.765625)"/>
     <use xlink:href="#DejaVuSans-d7" transform="translate(878.779297 0.765625)"/>
     <use xlink:href="#DejaVuSans-31" transform="translate(982.050781 0.765625)"/>
     <use xlink:href="#DejaVuSans-30" transform="translate(1045.673828 0.765625)"/>
     <use xlink:href="#DejaVuSans-2212" transform="translate(1110.253906 39.046875) scale(0.7)"/>
     <use xlink:href="#DejaVuSans-32" transform="translate(1168.90625 39.046875) scale(0.7)"/>
     <use xlink:href="#DejaVuSans-25" transform="translate(1216.176758 0.765625)"/>
     <use xlink:href="#DejaVuSans-2f" transform="translate(1311.196289 0.765625)"/>
     <use xlink:href="#DejaVuSans-63" transform="translate(1344.887695 0.765625)"/>
     <use xlink:href="#DejaVuSans-79" transform="translate(1399.868164 0.765625)"/>
     <use xlink:href="#DejaVuSans-63" transform="translate(1459.047852 0.765625)"/>
     <use xlink:href="#DejaVuSans-6c" transform="translate(1514.02832 0.765625)"/>
     <use xlink:href="#DejaVuSans-65" transform="translate(1541.811523 0.765625)"/>
    </g>
   </g>
   <g id="legend_1">
    <g id="patch_7">
     <path d="M 67.642188 109.8 
L 181.342187 109.8 
Q 184.342187 109.8 184.342187 106.8 
L 184.342187 17.7 
Q 184.342187 14.7 181.342187 14.7 
L 67.642188 14.7 
Q 64.642188 14.7 64.642188 17.7 
L 64.642188 106.8 
Q 64.642188 109.8 67.642188 109.8 
z
" style="fill: #ffffff; opacity: 0.8; stroke: #cccccc; stroke-linejoin: miter"/>
    </g>
    <g id="LineCollection_5">
     <path d="M 85.642188 34.5 
L 85.642188 19.5 
" style="fill: none; stroke: #1f77b4; stroke-width: 1.5"/>
    </g>
    <g id="line2d_37"/>
    <g id="line2d_38">
     <g>
      <use xlink:href="#mcceb8b8273" x="85.642188" y="27" style="fill: #1f77b4; stroke: #1f77b4"/>
     </g>
    </g>
    <g id="text_19">
     <!-- $1\rightarrow0,|0\rangle$ -->
     <g transform="translate(112.642188 32.25) scale(0.15 -0.15)">
      <use xlink:href="#DejaVuSans-31" transform="translate(0 0.578125)"/>
      <use xlink:href="#DejaVuSans-2192" transform="translate(83.105469 0.578125)"/>
      <use xlink:href="#DejaVuSans-30" transform="translate(186.376953 0.578125)"/>
      <use xlink:href="#DejaVuSans-2c" transform="translate(250 0.578125)"/>
      <use xlink:href="#DejaVuSans-7c" transform="translate(301.269531 0.578125)"/>
      <use xlink:href="#DejaVuSans-30" transform="translate(334.960938 0.578125)"/>
      <use xlink:href="#DejaVuSans-27e9" transform="translate(398.583984 0.578125)"/>
     </g>
    </g>
    <g id="LineCollection_6">
     <path d="M 85.642188 57.15 
L 85.642188 42.15 
" style="fill: none; stroke: #ff7f0e; stroke-width: 1.5"/>
    </g>
    <g id="line2d_39"/>
    <g id="line2d_40">
     <g>
      <use xlink:href="#mff6e4f8517" x="85.642188" y="49.65" style="fill: #ff7f0e; stroke: #ff7f0e"/>
     </g>
    </g>
    <g id="text_20">
     <!-- $1\rightarrow0,|1\rangle$ -->
     <g transform="translate(112.642188 54.9) scale(0.15 -0.15)">
      <use xlink:href="#DejaVuSans-31" transform="translate(0 0.578125)"/>
      <use xlink:href="#DejaVuSans-2192" transform="translate(83.105469 0.578125)"/>
      <use xlink:href="#DejaVuSans-30" transform="translate(186.376953 0.578125)"/>
      <use xlink:href="#DejaVuSans-2c" transform="translate(250 0.578125)"/>
      <use xlink:href="#DejaVuSans-7c" transform="translate(301.269531 0.578125)"/>
      <use xlink:href="#DejaVuSans-31" transform="translate(334.960938 0.578125)"/>
      <use xlink:href="#DejaVuSans-27e9" transform="translate(398.583984 0.578125)"/>
     </g>
    </g>
    <g id="LineCollection_7">
     <path d="M 85.642188 79.8 
L 85.642188 64.8 
" style="fill: none; stroke: #2ca02c; stroke-width: 1.5"/>
    </g>
    <g id="line2d_41"/>
    <g id="line2d_42">
     <g>
      <use xlink:href="#m5b2af9e1fb" x="85.642188" y="72.3" style="fill: #2ca02c; stroke: #2ca02c"/>
     </g>
    </g>
    <g id="text_21">
     <!-- $0\rightarrow1,|0\rangle$ -->
     <g transform="translate(112.642188 77.55) scale(0.15 -0.15)">
      <use xlink:href="#DejaVuSans-30" transform="translate(0 0.578125)"/>
      <use xlink:href="#DejaVuSans-2192" transform="translate(83.105469 0.578125)"/>
      <use xlink:href="#DejaVuSans-31" transform="translate(186.376953 0.578125)"/>
      <use xlink:href="#DejaVuSans-2c" transform="translate(250 0.578125)"/>
      <use xlink:href="#DejaVuSans-7c" transform="translate(301.269531 0.578125)"/>
      <use xlink:href="#DejaVuSans-30" transform="translate(334.960938 0.578125)"/>
      <use xlink:href="#DejaVuSans-27e9" transform="translate(398.583984 0.578125)"/>
     </g>
    </g>
    <g id="LineCollection_8">
     <path d="M 85.642188 102.45 
L 85.642188 87.45 
" style="fill: none; stroke: #d62728; stroke-width: 1.5"/>
    </g>
    <g id="line2d_43"/>
    <g id="line2d_44">
     <g>
      <use xlink:href="#m2c75f8ed43" x="85.642188" y="94.95" style="fill: #d62728; stroke: #d62728"/>
     </g>
    </g>
    <g id="text_22">
     <!-- $0\rightarrow1,|1\rangle$ -->
     <g transform="translate(112.642188 100.2) scale(0.15 -0.15)">
      <use xlink:href="#DejaVuSans-30" transform="translate(0 0.578125)"/>
      <use xlink:href="#DejaVuSans-2192" transform="translate(83.105469 0.578125)"/>
      <use xlink:href="#DejaVuSans-31" transform="translate(186.376953 0.578125)"/>
      <use xlink:href="#DejaVuSans-2c" transform="translate(250 0.578125)"/>
      <use xlink:href="#DejaVuSans-7c" transform="translate(301.269531 0.578125)"/>
      <use xlink:href="#DejaVuSans-31" transform="translate(334.960938 0.578125)"/>
      <use xlink:href="#DejaVuSans-27e9" transform="translate(398.583984 0.578125)"/>
     </g>
    </g>
   </g>
  </g>
 </g>
 <defs>
  <clipPath id="p3f29d3b4c9">
   <rect x="57.142187" y="7.2" width="357.12" height="266.112"/>
  </clipPath>
 </defs>
</svg>
