<?xml version="1.0" encoding="utf-8" standalone="no"?>
<!DOCTYPE svg PUBLIC "-//W3C//DTD SVG 1.1//EN"
  "http://www.w3.org/Graphics/SVG/1.1/DTD/svg11.dtd">
<svg xmlns:xlink="http://www.w3.org/1999/xlink" width="402.374687pt" height="331.128016pt" viewBox="0 0 402.374687 331.128016" xmlns="http://www.w3.org/2000/svg" version="1.1">
 <defs>
  <style type="text/css">*{stroke-linejoin: round; stroke-linecap: butt}</style>
 </defs>
 <g id="figure_1">
  <g id="patch_1">
   <path d="M 0 331.128016 
L 402.374687 331.128016 
L 402.374687 0 
L 0 0 
L 0 331.128016 
z
" style="fill: none"/>
  </g>
  <g id="axes_1">
   <g id="patch_2">
    <path d="M 38.054688 279.010828 
L 395.174688 279.010828 
L 395.174688 12.898828 
L 38.054688 12.898828 
L 38.054688 279.010828 
z
" style="fill: none"/>
   </g>
   <g id="matplotlib.axis_1">
    <g id="xtick_1">
     <g id="line2d_1">
      <path d="M 38.054688 279.010828 
L 38.054688 12.898828 
" clip-path="url(#p57e1be11ef)" style="fill: none; stroke: #b0b0b0; stroke-width: 0.8; stroke-linecap: square"/>
     </g>
     <g id="line2d_2">
      <defs>
       <path id="md39032bed2" d="M 0 0 
L 0 3.5 
" style="stroke: #000000; stroke-width: 0.8"/>
      </defs>
      <g>
       <use xlink:href="#md39032bed2" x="38.054688" y="279.010828" style="stroke: #000000; stroke-width: 0.8"/>
      </g>
     </g>
     <g id="text_1">
      <!-- 0 -->
      <g transform="translate(33.282812 297.408484) scale(0.15 -0.15)">
       <defs>
        <path id="DejaVuSans-30" d="M 2034 4250 
Q 1547 4250 1301 3770 
Q 1056 3291 1056 2328 
Q 1056 1369 1301 889 
Q 1547 409 2034 409 
Q 2525 409 2770 889 
Q 3016 1369 3016 2328 
Q 3016 3291 2770 3770 
Q 2525 4250 2034 4250 
z
M 2034 4750 
Q 2819 4750 3233 4129 
Q 3647 3509 3647 2328 
Q 3647 1150 3233 529 
Q 2819 -91 2034 -91 
Q 1250 -91 836 529 
Q 422 1150 422 2328 
Q 422 3509 836 4129 
Q 1250 4750 2034 4750 
z
" transform="scale(0.015625)"/>
       </defs>
       <use xlink:href="#DejaVuSans-30"/>
      </g>
     </g>
    </g>
    <g id="xtick_2">
     <g id="line2d_3">
      <path d="M 94.892101 279.010828 
L 94.892101 12.898828 
" clip-path="url(#p57e1be11ef)" style="fill: none; stroke: #b0b0b0; stroke-width: 0.8; stroke-linecap: square"/>
     </g>
     <g id="line2d_4">
      <g>
       <use xlink:href="#md39032bed2" x="94.892101" y="279.010828" style="stroke: #000000; stroke-width: 0.8"/>
      </g>
     </g>
     <g id="text_2">
      <!-- 1 -->
      <g transform="translate(90.120226 297.408484) scale(0.15 -0.15)">
       <defs>
        <path id="DejaVuSans-31" d="M 794 531 
L 1825 531 
L 1825 4091 
L 703 3866 
L 703 4441 
L 1819 4666 
L 2450 4666 
L 2450 531 
L 3481 531 
L 3481 0 
L 794 0 
L 794 531 
z
" transform="scale(0.015625)"/>
       </defs>
       <use xlink:href="#DejaVuSans-31"/>
      </g>
     </g>
    </g>
    <g id="xtick_3">
     <g id="line2d_5">
      <path d="M 151.729514 279.010828 
L 151.729514 12.898828 
" clip-path="url(#p57e1be11ef)" style="fill: none; stroke: #b0b0b0; stroke-width: 0.8; stroke-linecap: square"/>
     </g>
     <g id="line2d_6">
      <g>
       <use xlink:href="#md39032bed2" x="151.729514" y="279.010828" style="stroke: #000000; stroke-width: 0.8"/>
      </g>
     </g>
     <g id="text_3">
      <!-- 2 -->
      <g transform="translate(146.957639 297.408484) scale(0.15 -0.15)">
       <defs>
        <path id="DejaVuSans-32" d="M 1228 531 
L 3431 531 
L 3431 0 
L 469 0 
L 469 531 
Q 828 903 1448 1529 
Q 2069 2156 2228 2338 
Q 2531 2678 2651 2914 
Q 2772 3150 2772 3378 
Q 2772 3750 2511 3984 
Q 2250 4219 1831 4219 
Q 1534 4219 1204 4116 
Q 875 4013 500 3803 
L 500 4441 
Q 881 4594 1212 4672 
Q 1544 4750 1819 4750 
Q 2544 4750 2975 4387 
Q 3406 4025 3406 3419 
Q 3406 3131 3298 2873 
Q 3191 2616 2906 2266 
Q 2828 2175 2409 1742 
Q 1991 1309 1228 531 
z
" transform="scale(0.015625)"/>
       </defs>
       <use xlink:href="#DejaVuSans-32"/>
      </g>
     </g>
    </g>
    <g id="xtick_4">
     <g id="line2d_7">
      <path d="M 208.566927 279.010828 
L 208.566927 12.898828 
" clip-path="url(#p57e1be11ef)" style="fill: none; stroke: #b0b0b0; stroke-width: 0.8; stroke-linecap: square"/>
     </g>
     <g id="line2d_8">
      <g>
       <use xlink:href="#md39032bed2" x="208.566927" y="279.010828" style="stroke: #000000; stroke-width: 0.8"/>
      </g>
     </g>
     <g id="text_4">
      <!-- 3 -->
      <g transform="translate(203.795052 297.408484) scale(0.15 -0.15)">
       <defs>
        <path id="DejaVuSans-33" d="M 2597 2516 
Q 3050 2419 3304 2112 
Q 3559 1806 3559 1356 
Q 3559 666 3084 287 
Q 2609 -91 1734 -91 
Q 1441 -91 1130 -33 
Q 819 25 488 141 
L 488 750 
Q 750 597 1062 519 
Q 1375 441 1716 441 
Q 2309 441 2620 675 
Q 2931 909 2931 1356 
Q 2931 1769 2642 2001 
Q 2353 2234 1838 2234 
L 1294 2234 
L 1294 2753 
L 1863 2753 
Q 2328 2753 2575 2939 
Q 2822 3125 2822 3475 
Q 2822 3834 2567 4026 
Q 2313 4219 1838 4219 
Q 1578 4219 1281 4162 
Q 984 4106 628 3988 
L 628 4550 
Q 988 4650 1302 4700 
Q 1616 4750 1894 4750 
Q 2613 4750 3031 4423 
Q 3450 4097 3450 3541 
Q 3450 3153 3228 2886 
Q 3006 2619 2597 2516 
z
" transform="scale(0.015625)"/>
       </defs>
       <use xlink:href="#DejaVuSans-33"/>
      </g>
     </g>
    </g>
    <g id="xtick_5">
     <g id="line2d_9">
      <path d="M 265.404341 279.010828 
L 265.404341 12.898828 
" clip-path="url(#p57e1be11ef)" style="fill: none; stroke: #b0b0b0; stroke-width: 0.8; stroke-linecap: square"/>
     </g>
     <g id="line2d_10">
      <g>
       <use xlink:href="#md39032bed2" x="265.404341" y="279.010828" style="stroke: #000000; stroke-width: 0.8"/>
      </g>
     </g>
     <g id="text_5">
      <!-- 4 -->
      <g transform="translate(260.632466 297.408484) scale(0.15 -0.15)">
       <defs>
        <path id="DejaVuSans-34" d="M 2419 4116 
L 825 1625 
L 2419 1625 
L 2419 4116 
z
M 2253 4666 
L 3047 4666 
L 3047 1625 
L 3713 1625 
L 3713 1100 
L 3047 1100 
L 3047 0 
L 2419 0 
L 2419 1100 
L 313 1100 
L 313 1709 
L 2253 4666 
z
" transform="scale(0.015625)"/>
       </defs>
       <use xlink:href="#DejaVuSans-34"/>
      </g>
     </g>
    </g>
    <g id="xtick_6">
     <g id="line2d_11">
      <path d="M 322.241754 279.010828 
L 322.241754 12.898828 
" clip-path="url(#p57e1be11ef)" style="fill: none; stroke: #b0b0b0; stroke-width: 0.8; stroke-linecap: square"/>
     </g>
     <g id="line2d_12">
      <g>
       <use xlink:href="#md39032bed2" x="322.241754" y="279.010828" style="stroke: #000000; stroke-width: 0.8"/>
      </g>
     </g>
     <g id="text_6">
      <!-- 5 -->
      <g transform="translate(317.469879 297.408484) scale(0.15 -0.15)">
       <defs>
        <path id="DejaVuSans-35" d="M 691 4666 
L 3169 4666 
L 3169 4134 
L 1269 4134 
L 1269 2991 
Q 1406 3038 1543 3061 
Q 1681 3084 1819 3084 
Q 2600 3084 3056 2656 
Q 3513 2228 3513 1497 
Q 3513 744 3044 326 
Q 2575 -91 1722 -91 
Q 1428 -91 1123 -41 
Q 819 9 494 109 
L 494 744 
Q 775 591 1075 516 
Q 1375 441 1709 441 
Q 2250 441 2565 725 
Q 2881 1009 2881 1497 
Q 2881 1984 2565 2268 
Q 2250 2553 1709 2553 
Q 1456 2553 1204 2497 
Q 953 2441 691 2322 
L 691 4666 
z
" transform="scale(0.015625)"/>
       </defs>
       <use xlink:href="#DejaVuSans-35"/>
      </g>
     </g>
    </g>
    <g id="xtick_7">
     <g id="line2d_13">
      <path d="M 379.079167 279.010828 
L 379.079167 12.898828 
" clip-path="url(#p57e1be11ef)" style="fill: none; stroke: #b0b0b0; stroke-width: 0.8; stroke-linecap: square"/>
     </g>
     <g id="line2d_14">
      <g>
       <use xlink:href="#md39032bed2" x="379.079167" y="279.010828" style="stroke: #000000; stroke-width: 0.8"/>
      </g>
     </g>
     <g id="text_7">
      <!-- 6 -->
      <g transform="translate(374.307292 297.408484) scale(0.15 -0.15)">
       <defs>
        <path id="DejaVuSans-36" d="M 2113 2584 
Q 1688 2584 1439 2293 
Q 1191 2003 1191 1497 
Q 1191 994 1439 701 
Q 1688 409 2113 409 
Q 2538 409 2786 701 
Q 3034 994 3034 1497 
Q 3034 2003 2786 2293 
Q 2538 2584 2113 2584 
z
M 3366 4563 
L 3366 3988 
Q 3128 4100 2886 4159 
Q 2644 4219 2406 4219 
Q 1781 4219 1451 3797 
Q 1122 3375 1075 2522 
Q 1259 2794 1537 2939 
Q 1816 3084 2150 3084 
Q 2853 3084 3261 2657 
Q 3669 2231 3669 1497 
Q 3669 778 3244 343 
Q 2819 -91 2113 -91 
Q 1303 -91 875 529 
Q 447 1150 447 2328 
Q 447 3434 972 4092 
Q 1497 4750 2381 4750 
Q 2619 4750 2861 4703 
Q 3103 4656 3366 4563 
z
" transform="scale(0.015625)"/>
       </defs>
       <use xlink:href="#DejaVuSans-36"/>
      </g>
     </g>
    </g>
    <g id="text_8">
     <!-- $\phi$ (rad) -->
     <g transform="translate(182.414688 319.728016) scale(0.2 -0.2)">
      <defs>
       <path id="DejaVuSans-Oblique-3d5" d="M 2991 4863 
L 2738 3572 
Q 3363 3572 3684 3094 
Q 4016 2606 3850 1747 
Q 3681 888 3159 400 
Q 2653 -78 2028 -78 
L 1784 -1331 
L 1213 -1331 
L 1456 -78 
Q 834 -78 509 400 
Q 178 888 347 1747 
Q 513 2606 1034 3094 
Q 1544 3572 2166 3572 
L 2419 4863 
L 2991 4863 
z
M 2128 434 
Q 2481 434 2784 756 
Q 3116 1116 3244 1747 
Q 3369 2372 3169 2738 
Q 2991 3059 2638 3059 
L 2128 434 
z
M 1556 434 
L 2066 3059 
Q 1716 3059 1413 2738 
Q 1072 2372 953 1747 
Q 834 1116 1028 756 
Q 1203 434 1556 434 
z
" transform="scale(0.015625)"/>
       <path id="DejaVuSans-20" transform="scale(0.015625)"/>
       <path id="DejaVuSans-28" d="M 1984 4856 
Q 1566 4138 1362 3434 
Q 1159 2731 1159 2009 
Q 1159 1288 1364 580 
Q 1569 -128 1984 -844 
L 1484 -844 
Q 1016 -109 783 600 
Q 550 1309 550 2009 
Q 550 2706 781 3412 
Q 1013 4119 1484 4856 
L 1984 4856 
z
" transform="scale(0.015625)"/>
       <path id="DejaVuSans-72" d="M 2631 2963 
Q 2534 3019 2420 3045 
Q 2306 3072 2169 3072 
Q 1681 3072 1420 2755 
Q 1159 2438 1159 1844 
L 1159 0 
L 581 0 
L 581 3500 
L 1159 3500 
L 1159 2956 
Q 1341 3275 1631 3429 
Q 1922 3584 2338 3584 
Q 2397 3584 2469 3576 
Q 2541 3569 2628 3553 
L 2631 2963 
z
" transform="scale(0.015625)"/>
       <path id="DejaVuSans-61" d="M 2194 1759 
Q 1497 1759 1228 1600 
Q 959 1441 959 1056 
Q 959 750 1161 570 
Q 1363 391 1709 391 
Q 2188 391 2477 730 
Q 2766 1069 2766 1631 
L 2766 1759 
L 2194 1759 
z
M 3341 1997 
L 3341 0 
L 2766 0 
L 2766 531 
Q 2569 213 2275 61 
Q 1981 -91 1556 -91 
Q 1019 -91 701 211 
Q 384 513 384 1019 
Q 384 1609 779 1909 
Q 1175 2209 1959 2209 
L 2766 2209 
L 2766 2266 
Q 2766 2663 2505 2880 
Q 2244 3097 1772 3097 
Q 1472 3097 1187 3025 
Q 903 2953 641 2809 
L 641 3341 
Q 956 3463 1253 3523 
Q 1550 3584 1831 3584 
Q 2591 3584 2966 3190 
Q 3341 2797 3341 1997 
z
" transform="scale(0.015625)"/>
       <path id="DejaVuSans-64" d="M 2906 2969 
L 2906 4863 
L 3481 4863 
L 3481 0 
L 2906 0 
L 2906 525 
Q 2725 213 2448 61 
Q 2172 -91 1784 -91 
Q 1150 -91 751 415 
Q 353 922 353 1747 
Q 353 2572 751 3078 
Q 1150 3584 1784 3584 
Q 2172 3584 2448 3432 
Q 2725 3281 2906 2969 
z
M 947 1747 
Q 947 1113 1208 752 
Q 1469 391 1925 391 
Q 2381 391 2643 752 
Q 2906 1113 2906 1747 
Q 2906 2381 2643 2742 
Q 2381 3103 1925 3103 
Q 1469 3103 1208 2742 
Q 947 2381 947 1747 
z
" transform="scale(0.015625)"/>
       <path id="DejaVuSans-29" d="M 513 4856 
L 1013 4856 
Q 1481 4119 1714 3412 
Q 1947 2706 1947 2009 
Q 1947 1309 1714 600 
Q 1481 -109 1013 -844 
L 513 -844 
Q 928 -128 1133 580 
Q 1338 1288 1338 2009 
Q 1338 2731 1133 3434 
Q 928 4138 513 4856 
z
" transform="scale(0.015625)"/>
      </defs>
      <use xlink:href="#DejaVuSans-Oblique-3d5" transform="translate(0 0.015625)"/>
      <use xlink:href="#DejaVuSans-20" transform="translate(65.966797 0.015625)"/>
      <use xlink:href="#DejaVuSans-28" transform="translate(97.753906 0.015625)"/>
      <use xlink:href="#DejaVuSans-72" transform="translate(136.767578 0.015625)"/>
      <use xlink:href="#DejaVuSans-61" transform="translate(177.880859 0.015625)"/>
      <use xlink:href="#DejaVuSans-64" transform="translate(239.160156 0.015625)"/>
      <use xlink:href="#DejaVuSans-29" transform="translate(302.636719 0.015625)"/>
     </g>
    </g>
   </g>
   <g id="matplotlib.axis_2">
    <g id="ytick_1">
     <g id="line2d_15">
      <path d="M 38.054688 279.010828 
L 395.174688 279.010828 
" clip-path="url(#p57e1be11ef)" style="fill: none; stroke: #b0b0b0; stroke-width: 0.8; stroke-linecap: square"/>
     </g>
     <g id="line2d_16">
      <defs>
       <path id="m6f3f5b6aff" d="M 0 0 
L -3.5 0 
" style="stroke: #000000; stroke-width: 0.8"/>
      </defs>
      <g>
       <use xlink:href="#m6f3f5b6aff" x="38.054688" y="279.010828" style="stroke: #000000; stroke-width: 0.8"/>
      </g>
     </g>
     <g id="text_9">
      <!-- 0.0 -->
      <g transform="translate(7.2 284.709656) scale(0.15 -0.15)">
       <defs>
        <path id="DejaVuSans-2e" d="M 684 794 
L 1344 794 
L 1344 0 
L 684 0 
L 684 794 
z
" transform="scale(0.015625)"/>
       </defs>
       <use xlink:href="#DejaVuSans-30"/>
       <use xlink:href="#DejaVuSans-2e" x="63.623047"/>
       <use xlink:href="#DejaVuSans-30" x="95.410156"/>
      </g>
     </g>
    </g>
    <g id="ytick_2">
     <g id="line2d_17">
      <path d="M 38.054688 225.788428 
L 395.174688 225.788428 
" clip-path="url(#p57e1be11ef)" style="fill: none; stroke: #b0b0b0; stroke-width: 0.8; stroke-linecap: square"/>
     </g>
     <g id="line2d_18">
      <g>
       <use xlink:href="#m6f3f5b6aff" x="38.054688" y="225.788428" style="stroke: #000000; stroke-width: 0.8"/>
      </g>
     </g>
     <g id="text_10">
      <!-- 0.2 -->
      <g transform="translate(7.2 231.487256) scale(0.15 -0.15)">
       <use xlink:href="#DejaVuSans-30"/>
       <use xlink:href="#DejaVuSans-2e" x="63.623047"/>
       <use xlink:href="#DejaVuSans-32" x="95.410156"/>
      </g>
     </g>
    </g>
    <g id="ytick_3">
     <g id="line2d_19">
      <path d="M 38.054688 172.566028 
L 395.174688 172.566028 
" clip-path="url(#p57e1be11ef)" style="fill: none; stroke: #b0b0b0; stroke-width: 0.8; stroke-linecap: square"/>
     </g>
     <g id="line2d_20">
      <g>
       <use xlink:href="#m6f3f5b6aff" x="38.054688" y="172.566028" style="stroke: #000000; stroke-width: 0.8"/>
      </g>
     </g>
     <g id="text_11">
      <!-- 0.4 -->
      <g transform="translate(7.2 178.264856) scale(0.15 -0.15)">
       <use xlink:href="#DejaVuSans-30"/>
       <use xlink:href="#DejaVuSans-2e" x="63.623047"/>
       <use xlink:href="#DejaVuSans-34" x="95.410156"/>
      </g>
     </g>
    </g>
    <g id="ytick_4">
     <g id="line2d_21">
      <path d="M 38.054688 119.343628 
L 395.174688 119.343628 
" clip-path="url(#p57e1be11ef)" style="fill: none; stroke: #b0b0b0; stroke-width: 0.8; stroke-linecap: square"/>
     </g>
     <g id="line2d_22">
      <g>
       <use xlink:href="#m6f3f5b6aff" x="38.054688" y="119.343628" style="stroke: #000000; stroke-width: 0.8"/>
      </g>
     </g>
     <g id="text_12">
      <!-- 0.6 -->
      <g transform="translate(7.2 125.042456) scale(0.15 -0.15)">
       <use xlink:href="#DejaVuSans-30"/>
       <use xlink:href="#DejaVuSans-2e" x="63.623047"/>
       <use xlink:href="#DejaVuSans-36" x="95.410156"/>
      </g>
     </g>
    </g>
    <g id="ytick_5">
     <g id="line2d_23">
      <path d="M 38.054688 66.121228 
L 395.174688 66.121228 
" clip-path="url(#p57e1be11ef)" style="fill: none; stroke: #b0b0b0; stroke-width: 0.8; stroke-linecap: square"/>
     </g>
     <g id="line2d_24">
      <g>
       <use xlink:href="#m6f3f5b6aff" x="38.054688" y="66.121228" style="stroke: #000000; stroke-width: 0.8"/>
      </g>
     </g>
     <g id="text_13">
      <!-- 0.8 -->
      <g transform="translate(7.2 71.820056) scale(0.15 -0.15)">
       <defs>
        <path id="DejaVuSans-38" d="M 2034 2216 
Q 1584 2216 1326 1975 
Q 1069 1734 1069 1313 
Q 1069 891 1326 650 
Q 1584 409 2034 409 
Q 2484 409 2743 651 
Q 3003 894 3003 1313 
Q 3003 1734 2745 1975 
Q 2488 2216 2034 2216 
z
M 1403 2484 
Q 997 2584 770 2862 
Q 544 3141 544 3541 
Q 544 4100 942 4425 
Q 1341 4750 2034 4750 
Q 2731 4750 3128 4425 
Q 3525 4100 3525 3541 
Q 3525 3141 3298 2862 
Q 3072 2584 2669 2484 
Q 3125 2378 3379 2068 
Q 3634 1759 3634 1313 
Q 3634 634 3220 271 
Q 2806 -91 2034 -91 
Q 1263 -91 848 271 
Q 434 634 434 1313 
Q 434 1759 690 2068 
Q 947 2378 1403 2484 
z
M 1172 3481 
Q 1172 3119 1398 2916 
Q 1625 2713 2034 2713 
Q 2441 2713 2670 2916 
Q 2900 3119 2900 3481 
Q 2900 3844 2670 4047 
Q 2441 4250 2034 4250 
Q 1625 4250 1398 4047 
Q 1172 3844 1172 3481 
z
" transform="scale(0.015625)"/>
       </defs>
       <use xlink:href="#DejaVuSans-30"/>
       <use xlink:href="#DejaVuSans-2e" x="63.623047"/>
       <use xlink:href="#DejaVuSans-38" x="95.410156"/>
      </g>
     </g>
    </g>
    <g id="ytick_6">
     <g id="line2d_25">
      <path d="M 38.054688 12.898828 
L 395.174688 12.898828 
" clip-path="url(#p57e1be11ef)" style="fill: none; stroke: #b0b0b0; stroke-width: 0.8; stroke-linecap: square"/>
     </g>
     <g id="line2d_26">
      <g>
       <use xlink:href="#m6f3f5b6aff" x="38.054688" y="12.898828" style="stroke: #000000; stroke-width: 0.8"/>
      </g>
     </g>
     <g id="text_14">
      <!-- 1.0 -->
      <g transform="translate(7.2 18.597656) scale(0.15 -0.15)">
       <use xlink:href="#DejaVuSans-31"/>
       <use xlink:href="#DejaVuSans-2e" x="63.623047"/>
       <use xlink:href="#DejaVuSans-30" x="95.410156"/>
      </g>
     </g>
    </g>
   </g>
   <g id="line2d_27">
    <path d="M 38.054688 217.345657 
L 42.85486 207.845855 
L 48.142551 196.877547 
L 54.180268 183.825984 
L 61.568034 167.298428 
L 74.168488 138.452854 
L 84.743868 114.487677 
L 91.606615 99.475918 
L 97.381823 87.364593 
L 102.482007 77.171922 
L 107.132174 68.362549 
L 111.44483 60.658356 
L 115.494976 53.871957 
L 119.282612 47.950052 
L 122.882742 42.726332 
L 126.295364 38.1585 
L 129.557982 34.15622 
L 132.670594 30.682624 
L 135.670702 27.663031 
L 138.558306 25.06913 
L 141.333406 22.87142 
L 143.996002 21.039658 
L 146.583595 19.523149 
L 149.096185 18.302308 
L 151.571274 17.344524 
L 154.008862 16.640528 
L 156.408949 16.180631 
L 158.771534 15.954787 
L 161.134119 15.954417 
L 163.496704 16.179522 
L 165.859289 16.629712 
L 168.259375 17.31672 
L 170.696963 18.250138 
L 173.172052 19.43917 
L 175.722144 20.916112 
L 178.309737 22.673051 
L 181.009834 24.779826 
L 183.784934 27.23119 
L 186.672538 30.083549 
L 189.672646 33.365045 
L 192.785258 37.102459 
L 196.047876 41.371775 
L 199.460498 46.207581 
L 203.060628 51.70038 
L 206.848264 57.889123 
L 210.89841 64.941094 
L 215.211066 72.904146 
L 219.898734 82.038209 
L 225.036419 92.549874 
L 230.811627 104.88711 
L 237.674374 120.094592 
L 247.312221 142.04835 
L 262.83778 177.4085 
L 269.813031 192.700634 
L 275.625741 204.922311 
L 280.763426 215.220114 
L 285.451094 224.128201 
L 289.801251 231.923843 
L 293.851397 238.732975 
L 297.676534 244.734379 
L 301.276664 249.9768 
L 304.689287 254.56322 
L 307.951904 258.58399 
L 311.064516 262.075826 
L 314.064624 265.113501 
L 316.952228 267.725223 
L 319.727328 269.940403 
L 322.427426 271.813288 
L 325.015019 273.342792 
L 327.527609 274.576387 
L 330.002698 275.546844 
L 332.440286 276.263401 
L 334.840372 276.735722 
L 337.202958 276.97383 
L 339.565543 276.986474 
L 341.928128 276.773634 
L 344.290713 276.335676 
L 346.690799 275.661042 
L 349.128387 274.740112 
L 351.603476 273.563659 
L 354.116066 272.122911 
L 356.70366 270.382567 
L 359.366255 268.32376 
L 362.141355 265.893482 
L 365.028959 263.062584 
L 368.029067 259.802807 
L 371.141679 256.087242 
L 374.404297 251.840006 
L 377.81692 247.026319 
L 381.417049 241.555685 
L 385.204686 235.388872 
L 389.21733 228.42572 
L 393.529985 220.487709 
L 395.180045 217.335324 
L 395.180045 217.335324 
" clip-path="url(#p57e1be11ef)" style="fill: none; stroke: #1f77b4; stroke-width: 1.5; stroke-linecap: square"/>
   </g>
   <g id="LineCollection_1">
    <path d="M 38.054688 219.761647 
L 38.054688 206.530148 
" clip-path="url(#p57e1be11ef)" style="fill: none; stroke: #1f77b4; stroke-width: 1.5"/>
    <path d="M 55.910687 181.739069 
L 55.910687 166.752541 
" clip-path="url(#p57e1be11ef)" style="fill: none; stroke: #1f77b4; stroke-width: 1.5"/>
    <path d="M 73.766687 147.42707 
L 73.766687 132.105284 
" clip-path="url(#p57e1be11ef)" style="fill: none; stroke: #1f77b4; stroke-width: 1.5"/>
    <path d="M 91.622687 96.31155 
L 91.622687 82.434199 
" clip-path="url(#p57e1be11ef)" style="fill: none; stroke: #1f77b4; stroke-width: 1.5"/>
    <path d="M 109.478687 70.68167 
L 109.478687 58.55487 
" clip-path="url(#p57e1be11ef)" style="fill: none; stroke: #1f77b4; stroke-width: 1.5"/>
    <path d="M 127.334688 38.736856 
L 127.334688 30.381358 
" clip-path="url(#p57e1be11ef)" style="fill: none; stroke: #1f77b4; stroke-width: 1.5"/>
    <path d="M 145.190687 22.919935 
L 145.190687 17.907302 
" clip-path="url(#p57e1be11ef)" style="fill: none; stroke: #1f77b4; stroke-width: 1.5"/>
    <path d="M 163.046688 18.688379 
L 163.046688 15.066114 
" clip-path="url(#p57e1be11ef)" style="fill: none; stroke: #1f77b4; stroke-width: 1.5"/>
    <path d="M 180.902687 29.968796 
L 180.902687 23.235744 
" clip-path="url(#p57e1be11ef)" style="fill: none; stroke: #1f77b4; stroke-width: 1.5"/>
    <path d="M 198.758688 58.610714 
L 198.758688 47.639408 
" clip-path="url(#p57e1be11ef)" style="fill: none; stroke: #1f77b4; stroke-width: 1.5"/>
    <path d="M 216.614688 71.604953 
L 216.614688 59.399773 
" clip-path="url(#p57e1be11ef)" style="fill: none; stroke: #1f77b4; stroke-width: 1.5"/>
    <path d="M 234.470688 120.67643 
L 234.470688 105.810342 
" clip-path="url(#p57e1be11ef)" style="fill: none; stroke: #1f77b4; stroke-width: 1.5"/>
    <path d="M 252.326687 144.766113 
L 252.326687 129.461682 
" clip-path="url(#p57e1be11ef)" style="fill: none; stroke: #1f77b4; stroke-width: 1.5"/>
    <path d="M 270.182687 205.16951 
L 270.182687 191.063123 
" clip-path="url(#p57e1be11ef)" style="fill: none; stroke: #1f77b4; stroke-width: 1.5"/>
    <path d="M 288.038688 236.727382 
L 288.038688 224.928135 
" clip-path="url(#p57e1be11ef)" style="fill: none; stroke: #1f77b4; stroke-width: 1.5"/>
    <path d="M 305.894687 255.025365 
L 305.894687 245.530245 
" clip-path="url(#p57e1be11ef)" style="fill: none; stroke: #1f77b4; stroke-width: 1.5"/>
    <path d="M 323.750687 271.755455 
L 323.750687 265.932062 
" clip-path="url(#p57e1be11ef)" style="fill: none; stroke: #1f77b4; stroke-width: 1.5"/>
    <path d="M 341.606688 278.671816 
L 341.606688 276.697561 
" clip-path="url(#p57e1be11ef)" style="fill: none; stroke: #1f77b4; stroke-width: 1.5"/>
    <path d="M 359.462688 271.755455 
L 359.462688 265.932062 
" clip-path="url(#p57e1be11ef)" style="fill: none; stroke: #1f77b4; stroke-width: 1.5"/>
    <path d="M 377.318688 254.205323 
L 377.318688 244.582101 
" clip-path="url(#p57e1be11ef)" style="fill: none; stroke: #1f77b4; stroke-width: 1.5"/>
    <path d="M 395.174688 219.761647 
L 395.174688 206.530148 
" clip-path="url(#p57e1be11ef)" style="fill: none; stroke: #1f77b4; stroke-width: 1.5"/>
   </g>
   <g id="line2d_28">
    <path d="M 38.054688 214.54853 
L 42.967364 204.744263 
L 48.442561 193.309444 
L 54.78029 179.539836 
L 62.84308 161.454338 
L 86.506432 108.029077 
L 92.806659 94.55409 
L 98.281856 83.357046 
L 103.194533 73.806776 
L 107.694695 65.533843 
L 111.894846 58.269829 
L 115.832488 51.897087 
L 119.545121 46.304241 
L 123.070248 41.389516 
L 126.407868 37.108866 
L 129.595483 33.372867 
L 132.670594 30.106081 
L 135.633201 27.281206 
L 138.483303 24.869456 
L 141.220902 22.841035 
L 143.883498 21.143563 
L 146.471091 19.757668 
L 148.983681 18.663499 
L 151.421269 17.840909 
L 153.821355 17.26236 
L 156.18394 16.9181 
L 158.546525 16.797917 
L 160.909111 16.902016 
L 163.271696 17.230219 
L 165.634281 17.781959 
L 168.034367 18.57036 
L 170.471955 19.604748 
L 172.984545 20.915417 
L 175.572138 22.521904 
L 178.234734 24.443377 
L 180.972333 26.698438 
L 183.784934 29.304919 
L 186.710039 32.320247 
L 189.78515 35.816398 
L 192.972765 39.782598 
L 196.310385 44.295259 
L 199.835512 49.444137 
L 203.548146 55.270519 
L 207.448286 61.810336 
L 211.610936 69.229925 
L 216.111098 77.716593 
L 220.986273 87.395942 
L 226.386468 98.622928 
L 232.611692 112.095783 
L 240.374471 129.456824 
L 266.400408 188.11194 
L 272.513129 201.076684 
L 277.83832 211.863327 
L 282.675994 221.168777 
L 287.101154 229.209691 
L 291.226302 236.255774 
L 295.126443 242.484078 
L 298.801575 247.940639 
L 302.289201 252.727533 
L 305.626821 256.934776 
L 308.814435 260.598088 
L 311.852045 263.755668 
L 314.77715 266.480266 
L 317.589751 268.800841 
L 320.289849 270.747237 
L 322.914943 272.371091 
L 325.465035 273.691766 
L 327.940124 274.729041 
L 330.377712 275.513206 
L 332.777798 276.05372 
L 335.140383 276.36041 
L 337.502968 276.442963 
L 339.865553 276.301235 
L 342.228138 275.935473 
L 344.628225 275.335159 
L 347.028311 274.505364 
L 349.5034 273.410858 
L 352.015991 272.053894 
L 354.603584 270.400288 
L 357.26618 268.431025 
L 360.003778 266.127671 
L 362.853881 263.435233 
L 365.816488 260.325332 
L 368.891598 256.770782 
L 372.116715 252.696713 
L 375.491836 248.067749 
L 379.016963 242.851514 
L 382.767098 236.896595 
L 386.742241 230.156052 
L 390.979894 222.521429 
L 395.180045 214.538102 
L 395.180045 214.538102 
" clip-path="url(#p57e1be11ef)" style="fill: none; stroke: #ff7f0e; stroke-width: 1.5; stroke-linecap: square"/>
   </g>
   <g id="LineCollection_2">
    <path d="M 38.054688 207.754422 
L 38.054688 193.782769 
" clip-path="url(#p57e1be11ef)" style="fill: none; stroke: #ff7f0e; stroke-width: 1.5"/>
    <path d="M 55.910687 185.228004 
L 55.910687 170.33635 
" clip-path="url(#p57e1be11ef)" style="fill: none; stroke: #ff7f0e; stroke-width: 1.5"/>
    <path d="M 73.766687 137.65514 
L 73.766687 122.427167 
" clip-path="url(#p57e1be11ef)" style="fill: none; stroke: #ff7f0e; stroke-width: 1.5"/>
    <path d="M 91.622687 99.03388 
L 91.622687 85.016428 
" clip-path="url(#p57e1be11ef)" style="fill: none; stroke: #ff7f0e; stroke-width: 1.5"/>
    <path d="M 109.478687 75.291467 
L 109.478687 62.786003 
" clip-path="url(#p57e1be11ef)" style="fill: none; stroke: #ff7f0e; stroke-width: 1.5"/>
    <path d="M 127.334688 39.698496 
L 127.334688 31.187905 
" clip-path="url(#p57e1be11ef)" style="fill: none; stroke: #ff7f0e; stroke-width: 1.5"/>
    <path d="M 145.190687 23.947042 
L 145.190687 18.648381 
" clip-path="url(#p57e1be11ef)" style="fill: none; stroke: #ff7f0e; stroke-width: 1.5"/>
    <path d="M 163.046688 19.77091 
L 163.046688 15.75177 
" clip-path="url(#p57e1be11ef)" style="fill: none; stroke: #ff7f0e; stroke-width: 1.5"/>
    <path d="M 180.902687 28.978151 
L 180.902687 22.458203 
" clip-path="url(#p57e1be11ef)" style="fill: none; stroke: #ff7f0e; stroke-width: 1.5"/>
    <path d="M 198.758688 51.106876 
L 198.758688 40.997757 
" clip-path="url(#p57e1be11ef)" style="fill: none; stroke: #ff7f0e; stroke-width: 1.5"/>
    <path d="M 216.614688 92.67533 
L 216.614688 78.997675 
" clip-path="url(#p57e1be11ef)" style="fill: none; stroke: #ff7f0e; stroke-width: 1.5"/>
    <path d="M 234.470688 125.157116 
L 234.470688 110.170587 
" clip-path="url(#p57e1be11ef)" style="fill: none; stroke: #ff7f0e; stroke-width: 1.5"/>
    <path d="M 252.326687 146.540425 
L 252.326687 131.223742 
" clip-path="url(#p57e1be11ef)" style="fill: none; stroke: #ff7f0e; stroke-width: 1.5"/>
    <path d="M 270.182687 199.987995 
L 270.182687 185.635522 
" clip-path="url(#p57e1be11ef)" style="fill: none; stroke: #ff7f0e; stroke-width: 1.5"/>
    <path d="M 288.038688 237.568704 
L 288.038688 225.854999 
" clip-path="url(#p57e1be11ef)" style="fill: none; stroke: #ff7f0e; stroke-width: 1.5"/>
    <path d="M 305.894687 254.205323 
L 305.894687 244.582101 
" clip-path="url(#p57e1be11ef)" style="fill: none; stroke: #ff7f0e; stroke-width: 1.5"/>
    <path d="M 323.750687 276.843542 
L 323.750687 273.221277 
" clip-path="url(#p57e1be11ef)" style="fill: none; stroke: #ff7f0e; stroke-width: 1.5"/>
    <path d="M 341.606688 277.502951 
L 341.606688 274.330054 
" clip-path="url(#p57e1be11ef)" style="fill: none; stroke: #ff7f0e; stroke-width: 1.5"/>
    <path d="M 359.462688 271.755455 
L 359.462688 265.932062 
" clip-path="url(#p57e1be11ef)" style="fill: none; stroke: #ff7f0e; stroke-width: 1.5"/>
    <path d="M 377.318688 245.104004 
L 377.318688 234.233374 
" clip-path="url(#p57e1be11ef)" style="fill: none; stroke: #ff7f0e; stroke-width: 1.5"/>
    <path d="M 395.174688 223.173986 
L 395.174688 210.190554 
" clip-path="url(#p57e1be11ef)" style="fill: none; stroke: #ff7f0e; stroke-width: 1.5"/>
   </g>
   <g id="line2d_29">
    <defs>
     <path id="mcceb8b8273" d="M 0 3 
C 0.795609 3 1.55874 2.683901 2.12132 2.12132 
C 2.683901 1.55874 3 0.795609 3 0 
C 3 -0.795609 2.683901 -1.55874 2.12132 -2.12132 
C 1.55874 -2.683901 0.795609 -3 0 -3 
C -0.795609 -3 -1.55874 -2.683901 -2.12132 -2.12132 
C -2.683901 -1.55874 -3 -0.795609 -3 0 
C -3 0.795609 -2.683901 1.55874 -2.12132 2.12132 
C -1.55874 2.683901 -0.795609 3 0 3 
z
" style="stroke: #1f77b4"/>
    </defs>
    <g clip-path="url(#p57e1be11ef)">
     <use xlink:href="#mcceb8b8273" x="38.054688" y="213.145898" style="fill: #1f77b4; stroke: #1f77b4"/>
     <use xlink:href="#mcceb8b8273" x="55.910687" y="174.245805" style="fill: #1f77b4; stroke: #1f77b4"/>
     <use xlink:href="#mcceb8b8273" x="73.766687" y="139.766177" style="fill: #1f77b4; stroke: #1f77b4"/>
     <use xlink:href="#mcceb8b8273" x="91.622687" y="89.372875" style="fill: #1f77b4; stroke: #1f77b4"/>
     <use xlink:href="#mcceb8b8273" x="109.478687" y="64.61827" style="fill: #1f77b4; stroke: #1f77b4"/>
     <use xlink:href="#mcceb8b8273" x="127.334688" y="34.559107" style="fill: #1f77b4; stroke: #1f77b4"/>
     <use xlink:href="#mcceb8b8273" x="145.190687" y="20.413619" style="fill: #1f77b4; stroke: #1f77b4"/>
     <use xlink:href="#mcceb8b8273" x="163.046688" y="16.877247" style="fill: #1f77b4; stroke: #1f77b4"/>
     <use xlink:href="#mcceb8b8273" x="180.902687" y="26.60227" style="fill: #1f77b4; stroke: #1f77b4"/>
     <use xlink:href="#mcceb8b8273" x="198.758688" y="53.125061" style="fill: #1f77b4; stroke: #1f77b4"/>
     <use xlink:href="#mcceb8b8273" x="216.614688" y="65.502363" style="fill: #1f77b4; stroke: #1f77b4"/>
     <use xlink:href="#mcceb8b8273" x="234.470688" y="113.243386" style="fill: #1f77b4; stroke: #1f77b4"/>
     <use xlink:href="#mcceb8b8273" x="252.326687" y="137.113898" style="fill: #1f77b4; stroke: #1f77b4"/>
     <use xlink:href="#mcceb8b8273" x="270.182687" y="198.116316" style="fill: #1f77b4; stroke: #1f77b4"/>
     <use xlink:href="#mcceb8b8273" x="288.038688" y="230.827758" style="fill: #1f77b4; stroke: #1f77b4"/>
     <use xlink:href="#mcceb8b8273" x="305.894687" y="250.277805" style="fill: #1f77b4; stroke: #1f77b4"/>
     <use xlink:href="#mcceb8b8273" x="323.750687" y="268.843758" style="fill: #1f77b4; stroke: #1f77b4"/>
     <use xlink:href="#mcceb8b8273" x="341.606688" y="277.684689" style="fill: #1f77b4; stroke: #1f77b4"/>
     <use xlink:href="#mcceb8b8273" x="359.462688" y="268.843758" style="fill: #1f77b4; stroke: #1f77b4"/>
     <use xlink:href="#mcceb8b8273" x="377.318688" y="249.393712" style="fill: #1f77b4; stroke: #1f77b4"/>
     <use xlink:href="#mcceb8b8273" x="395.174688" y="213.145898" style="fill: #1f77b4; stroke: #1f77b4"/>
    </g>
   </g>
   <g id="line2d_30">
    <defs>
     <path id="mff6e4f8517" d="M 0 3 
C 0.795609 3 1.55874 2.683901 2.12132 2.12132 
C 2.683901 1.55874 3 0.795609 3 0 
C 3 -0.795609 2.683901 -1.55874 2.12132 -2.12132 
C 1.55874 -2.683901 0.795609 -3 0 -3 
C -0.795609 -3 -1.55874 -2.683901 -2.12132 -2.12132 
C -2.683901 -1.55874 -3 -0.795609 -3 0 
C -3 0.795609 -2.683901 1.55874 -2.12132 2.12132 
C -1.55874 2.683901 -0.795609 3 0 3 
z
" style="stroke: #ff7f0e"/>
    </defs>
    <g clip-path="url(#p57e1be11ef)">
     <use xlink:href="#mff6e4f8517" x="38.054688" y="200.768596" style="fill: #ff7f0e; stroke: #ff7f0e"/>
     <use xlink:href="#mff6e4f8517" x="55.910687" y="177.782177" style="fill: #ff7f0e; stroke: #ff7f0e"/>
     <use xlink:href="#mff6e4f8517" x="73.766687" y="130.041154" style="fill: #ff7f0e; stroke: #ff7f0e"/>
     <use xlink:href="#mff6e4f8517" x="91.622687" y="92.025154" style="fill: #ff7f0e; stroke: #ff7f0e"/>
     <use xlink:href="#mff6e4f8517" x="109.478687" y="69.038735" style="fill: #ff7f0e; stroke: #ff7f0e"/>
     <use xlink:href="#mff6e4f8517" x="127.334688" y="35.4432" style="fill: #ff7f0e; stroke: #ff7f0e"/>
     <use xlink:href="#mff6e4f8517" x="145.190687" y="21.297712" style="fill: #ff7f0e; stroke: #ff7f0e"/>
     <use xlink:href="#mff6e4f8517" x="163.046688" y="17.76134" style="fill: #ff7f0e; stroke: #ff7f0e"/>
     <use xlink:href="#mff6e4f8517" x="180.902687" y="25.718177" style="fill: #ff7f0e; stroke: #ff7f0e"/>
     <use xlink:href="#mff6e4f8517" x="198.758688" y="46.052316" style="fill: #ff7f0e; stroke: #ff7f0e"/>
     <use xlink:href="#mff6e4f8517" x="216.614688" y="85.836503" style="fill: #ff7f0e; stroke: #ff7f0e"/>
     <use xlink:href="#mff6e4f8517" x="234.470688" y="117.663851" style="fill: #ff7f0e; stroke: #ff7f0e"/>
     <use xlink:href="#mff6e4f8517" x="252.326687" y="138.882084" style="fill: #ff7f0e; stroke: #ff7f0e"/>
     <use xlink:href="#mff6e4f8517" x="270.182687" y="192.811758" style="fill: #ff7f0e; stroke: #ff7f0e"/>
     <use xlink:href="#mff6e4f8517" x="288.038688" y="231.711851" style="fill: #ff7f0e; stroke: #ff7f0e"/>
     <use xlink:href="#mff6e4f8517" x="305.894687" y="249.393712" style="fill: #ff7f0e; stroke: #ff7f0e"/>
     <use xlink:href="#mff6e4f8517" x="323.750687" y="275.03241" style="fill: #ff7f0e; stroke: #ff7f0e"/>
     <use xlink:href="#mff6e4f8517" x="341.606688" y="275.916503" style="fill: #ff7f0e; stroke: #ff7f0e"/>
     <use xlink:href="#mff6e4f8517" x="359.462688" y="268.843758" style="fill: #ff7f0e; stroke: #ff7f0e"/>
     <use xlink:href="#mff6e4f8517" x="377.318688" y="239.668689" style="fill: #ff7f0e; stroke: #ff7f0e"/>
     <use xlink:href="#mff6e4f8517" x="395.174688" y="216.68227" style="fill: #ff7f0e; stroke: #ff7f0e"/>
    </g>
   </g>
   <g id="patch_3">
    <path d="M 38.054688 279.010828 
L 38.054688 12.898828 
" style="fill: none; stroke: #000000; stroke-width: 0.8; stroke-linejoin: miter; stroke-linecap: square"/>
   </g>
   <g id="patch_4">
    <path d="M 395.174688 279.010828 
L 395.174688 12.898828 
" style="fill: none; stroke: #000000; stroke-width: 0.8; stroke-linejoin: miter; stroke-linecap: square"/>
   </g>
   <g id="patch_5">
    <path d="M 38.054688 279.010828 
L 395.174688 279.010828 
" style="fill: none; stroke: #000000; stroke-width: 0.8; stroke-linejoin: miter; stroke-linecap: square"/>
   </g>
   <g id="patch_6">
    <path d="M 38.054688 12.898828 
L 395.174688 12.898828 
" style="fill: none; stroke: #000000; stroke-width: 0.8; stroke-linejoin: miter; stroke-linecap: square"/>
   </g>
   <g id="text_15">
    <!-- $E_{|0\rangle}=1.89(57) \%$ -->
    <g style="fill: #1f77b4" transform="translate(94.892101 220.466188) scale(0.15 -0.15)">
     <defs>
      <path id="DejaVuSans-Oblique-45" d="M 1081 4666 
L 4031 4666 
L 3928 4134 
L 1606 4134 
L 1338 2753 
L 3566 2753 
L 3463 2222 
L 1234 2222 
L 909 531 
L 3284 531 
L 3181 0 
L 172 0 
L 1081 4666 
z
" transform="scale(0.015625)"/>
      <path id="DejaVuSans-7c" d="M 1344 4891 
L 1344 -1509 
L 813 -1509 
L 813 4891 
L 1344 4891 
z
" transform="scale(0.015625)"/>
      <path id="DejaVuSans-27e9" d="M 1925 2006 
L 1044 -844 
L 513 -844 
L 1394 2006 
L 513 4856 
L 1044 4856 
L 1925 2006 
z
" transform="scale(0.015625)"/>
      <path id="DejaVuSans-3d" d="M 678 2906 
L 4684 2906 
L 4684 2381 
L 678 2381 
L 678 2906 
z
M 678 1631 
L 4684 1631 
L 4684 1100 
L 678 1100 
L 678 1631 
z
" transform="scale(0.015625)"/>
      <path id="DejaVuSans-39" d="M 703 97 
L 703 672 
Q 941 559 1184 500 
Q 1428 441 1663 441 
Q 2288 441 2617 861 
Q 2947 1281 2994 2138 
Q 2813 1869 2534 1725 
Q 2256 1581 1919 1581 
Q 1219 1581 811 2004 
Q 403 2428 403 3163 
Q 403 3881 828 4315 
Q 1253 4750 1959 4750 
Q 2769 4750 3195 4129 
Q 3622 3509 3622 2328 
Q 3622 1225 3098 567 
Q 2575 -91 1691 -91 
Q 1453 -91 1209 -44 
Q 966 3 703 97 
z
M 1959 2075 
Q 2384 2075 2632 2365 
Q 2881 2656 2881 3163 
Q 2881 3666 2632 3958 
Q 2384 4250 1959 4250 
Q 1534 4250 1286 3958 
Q 1038 3666 1038 3163 
Q 1038 2656 1286 2365 
Q 1534 2075 1959 2075 
z
" transform="scale(0.015625)"/>
      <path id="DejaVuSans-37" d="M 525 4666 
L 3525 4666 
L 3525 4397 
L 1831 0 
L 1172 0 
L 2766 4134 
L 525 4134 
L 525 4666 
z
" transform="scale(0.015625)"/>
      <path id="DejaVuSans-25" d="M 4653 2053 
Q 4381 2053 4226 1822 
Q 4072 1591 4072 1178 
Q 4072 772 4226 539 
Q 4381 306 4653 306 
Q 4919 306 5073 539 
Q 5228 772 5228 1178 
Q 5228 1588 5073 1820 
Q 4919 2053 4653 2053 
z
M 4653 2450 
Q 5147 2450 5437 2106 
Q 5728 1763 5728 1178 
Q 5728 594 5436 251 
Q 5144 -91 4653 -91 
Q 4153 -91 3862 251 
Q 3572 594 3572 1178 
Q 3572 1766 3864 2108 
Q 4156 2450 4653 2450 
z
M 1428 4353 
Q 1159 4353 1004 4120 
Q 850 3888 850 3481 
Q 850 3069 1003 2837 
Q 1156 2606 1428 2606 
Q 1700 2606 1854 2837 
Q 2009 3069 2009 3481 
Q 2009 3884 1853 4118 
Q 1697 4353 1428 4353 
z
M 4250 4750 
L 4750 4750 
L 1831 -91 
L 1331 -91 
L 4250 4750 
z
M 1428 4750 
Q 1922 4750 2215 4408 
Q 2509 4066 2509 3481 
Q 2509 2891 2217 2550 
Q 1925 2209 1428 2209 
Q 931 2209 642 2551 
Q 353 2894 353 3481 
Q 353 4063 643 4406 
Q 934 4750 1428 4750 
z
" transform="scale(0.015625)"/>
     </defs>
     <use xlink:href="#DejaVuSans-Oblique-45" transform="translate(0 0.125)"/>
     <use xlink:href="#DejaVuSans-7c" transform="translate(63.183594 -16.28125) scale(0.7)"/>
     <use xlink:href="#DejaVuSans-30" transform="translate(86.767578 -16.28125) scale(0.7)"/>
     <use xlink:href="#DejaVuSans-27e9" transform="translate(131.303711 -16.28125) scale(0.7)"/>
     <use xlink:href="#DejaVuSans-3d" transform="translate(180.830078 0.125)"/>
     <use xlink:href="#DejaVuSans-31" transform="translate(284.101562 0.125)"/>
     <use xlink:href="#DejaVuSans-2e" transform="translate(347.724609 0.125)"/>
     <use xlink:href="#DejaVuSans-38" transform="translate(376.886719 0.125)"/>
     <use xlink:href="#DejaVuSans-39" transform="translate(440.509766 0.125)"/>
     <use xlink:href="#DejaVuSans-28" transform="translate(504.132812 0.125)"/>
     <use xlink:href="#DejaVuSans-35" transform="translate(543.146484 0.125)"/>
     <use xlink:href="#DejaVuSans-37" transform="translate(599.519531 0.125)"/>
     <use xlink:href="#DejaVuSans-29" transform="translate(663.142578 0.125)"/>
     <use xlink:href="#DejaVuSans-25" transform="translate(702.15625 0.125)"/>
    </g>
   </g>
   <g id="text_16">
    <!-- $E_{|1\rangle}=2.43(64) \%$ -->
    <g style="fill: #ff7f0e" transform="translate(94.892101 247.077388) scale(0.15 -0.15)">
     <use xlink:href="#DejaVuSans-Oblique-45" transform="translate(0 0.125)"/>
     <use xlink:href="#DejaVuSans-7c" transform="translate(63.183594 -16.28125) scale(0.7)"/>
     <use xlink:href="#DejaVuSans-31" transform="translate(86.767578 -16.28125) scale(0.7)"/>
     <use xlink:href="#DejaVuSans-27e9" transform="translate(131.303711 -16.28125) scale(0.7)"/>
     <use xlink:href="#DejaVuSans-3d" transform="translate(180.830078 0.125)"/>
     <use xlink:href="#DejaVuSans-32" transform="translate(284.101562 0.125)"/>
     <use xlink:href="#DejaVuSans-2e" transform="translate(347.724609 0.125)"/>
     <use xlink:href="#DejaVuSans-34" transform="translate(379.511719 0.125)"/>
     <use xlink:href="#DejaVuSans-33" transform="translate(443.134766 0.125)"/>
     <use xlink:href="#DejaVuSans-28" transform="translate(506.757812 0.125)"/>
     <use xlink:href="#DejaVuSans-36" transform="translate(545.771484 0.125)"/>
     <use xlink:href="#DejaVuSans-34" transform="translate(609.394531 0.125)"/>
     <use xlink:href="#DejaVuSans-29" transform="translate(673.017578 0.125)"/>
     <use xlink:href="#DejaVuSans-25" transform="translate(712.03125 0.125)"/>
    </g>
   </g>
   <g id="legend_1">
    <g id="patch_7">
     <path d="M 316.124687 70.198828 
L 384.674688 70.198828 
Q 387.674688 70.198828 387.674688 67.198828 
L 387.674688 23.398828 
Q 387.674688 20.398828 384.674688 20.398828 
L 316.124687 20.398828 
Q 313.124687 20.398828 313.124687 23.398828 
L 313.124687 67.198828 
Q 313.124687 70.198828 316.124687 70.198828 
z
" style="fill: #ffffff; opacity: 0.8; stroke: #cccccc; stroke-linejoin: miter"/>
    </g>
    <g id="LineCollection_3">
     <path d="M 334.124687 40.198828 
L 334.124687 25.198828 
" style="fill: none; stroke: #1f77b4; stroke-width: 1.5"/>
    </g>
    <g id="line2d_31"/>
    <g id="line2d_32">
     <g>
      <use xlink:href="#mcceb8b8273" x="334.124687" y="32.698828" style="fill: #1f77b4; stroke: #1f77b4"/>
     </g>
    </g>
    <g id="text_17">
     <!-- $|0\rangle$ -->
     <g transform="translate(361.124687 37.948828) scale(0.15 -0.15)">
      <use xlink:href="#DejaVuSans-7c" transform="translate(0 0.578125)"/>
      <use xlink:href="#DejaVuSans-30" transform="translate(33.691406 0.578125)"/>
      <use xlink:href="#DejaVuSans-27e9" transform="translate(97.314453 0.578125)"/>
     </g>
    </g>
    <g id="LineCollection_4">
     <path d="M 334.124687 62.848828 
L 334.124687 47.848828 
" style="fill: none; stroke: #ff7f0e; stroke-width: 1.5"/>
    </g>
    <g id="line2d_33"/>
    <g id="line2d_34">
     <g>
      <use xlink:href="#mff6e4f8517" x="334.124687" y="55.348828" style="fill: #ff7f0e; stroke: #ff7f0e"/>
     </g>
    </g>
    <g id="text_18">
     <!-- $|1\rangle$ -->
     <g transform="translate(361.124687 60.598828) scale(0.15 -0.15)">
      <use xlink:href="#DejaVuSans-7c" transform="translate(0 0.578125)"/>
      <use xlink:href="#DejaVuSans-31" transform="translate(33.691406 0.578125)"/>
      <use xlink:href="#DejaVuSans-27e9" transform="translate(97.314453 0.578125)"/>
     </g>
    </g>
   </g>
  </g>
 </g>
 <defs>
  <clipPath id="p57e1be11ef">
   <rect x="38.054688" y="12.898828" width="357.12" height="266.112"/>
  </clipPath>
 </defs>
</svg>
