<?xml version="1.0" encoding="utf-8" standalone="no"?>
<!DOCTYPE svg PUBLIC "-//W3C//DTD SVG 1.1//EN"
  "http://www.w3.org/Graphics/SVG/1.1/DTD/svg11.dtd">
<svg xmlns:xlink="http://www.w3.org/1999/xlink" width="402.374687pt" height="331.084266pt" viewBox="0 0 402.374687 331.084266" xmlns="http://www.w3.org/2000/svg" version="1.1">
 <defs>
  <style type="text/css">*{stroke-linejoin: round; stroke-linecap: butt}</style>
 </defs>
 <g id="figure_1">
  <g id="patch_1">
   <path d="M 0 331.084266 
L 402.374687 331.084266 
L 402.374687 0 
L 0 0 
L 0 331.084266 
z
" style="fill: none"/>
  </g>
  <g id="axes_1">
   <g id="patch_2">
    <path d="M 38.054688 279.010828 
L 395.174688 279.010828 
L 395.174688 12.898828 
L 38.054688 12.898828 
L 38.054688 279.010828 
z
" style="fill: none"/>
   </g>
   <g id="matplotlib.axis_1">
    <g id="xtick_1">
     <g id="line2d_1">
      <path d="M 38.054688 279.010828 
L 38.054688 12.898828 
" clip-path="url(#p939ede1df4)" style="fill: none; stroke: #b0b0b0; stroke-width: 0.8; stroke-linecap: square"/>
     </g>
     <g id="line2d_2">
      <defs>
       <path id="md39032bed2" d="M 0 0 
L 0 3.5 
" style="stroke: #000000; stroke-width: 0.8"/>
      </defs>
      <g>
       <use xlink:href="#md39032bed2" x="38.054688" y="279.010828" style="stroke: #000000; stroke-width: 0.8"/>
      </g>
     </g>
     <g id="text_1">
      <!-- 0 -->
      <g transform="translate(33.282812 297.408484) scale(0.15 -0.15)">
       <defs>
        <path id="DejaVuSans-30" d="M 2034 4250 
Q 1547 4250 1301 3770 
Q 1056 3291 1056 2328 
Q 1056 1369 1301 889 
Q 1547 409 2034 409 
Q 2525 409 2770 889 
Q 3016 1369 3016 2328 
Q 3016 3291 2770 3770 
Q 2525 4250 2034 4250 
z
M 2034 4750 
Q 2819 4750 3233 4129 
Q 3647 3509 3647 2328 
Q 3647 1150 3233 529 
Q 2819 -91 2034 -91 
Q 1250 -91 836 529 
Q 422 1150 422 2328 
Q 422 3509 836 4129 
Q 1250 4750 2034 4750 
z
" transform="scale(0.015625)"/>
       </defs>
       <use xlink:href="#DejaVuSans-30"/>
      </g>
     </g>
    </g>
    <g id="xtick_2">
     <g id="line2d_3">
      <path d="M 94.892101 279.010828 
L 94.892101 12.898828 
" clip-path="url(#p939ede1df4)" style="fill: none; stroke: #b0b0b0; stroke-width: 0.8; stroke-linecap: square"/>
     </g>
     <g id="line2d_4">
      <g>
       <use xlink:href="#md39032bed2" x="94.892101" y="279.010828" style="stroke: #000000; stroke-width: 0.8"/>
      </g>
     </g>
     <g id="text_2">
      <!-- 1 -->
      <g transform="translate(90.120226 297.408484) scale(0.15 -0.15)">
       <defs>
        <path id="DejaVuSans-31" d="M 794 531 
L 1825 531 
L 1825 4091 
L 703 3866 
L 703 4441 
L 1819 4666 
L 2450 4666 
L 2450 531 
L 3481 531 
L 3481 0 
L 794 0 
L 794 531 
z
" transform="scale(0.015625)"/>
       </defs>
       <use xlink:href="#DejaVuSans-31"/>
      </g>
     </g>
    </g>
    <g id="xtick_3">
     <g id="line2d_5">
      <path d="M 151.729514 279.010828 
L 151.729514 12.898828 
" clip-path="url(#p939ede1df4)" style="fill: none; stroke: #b0b0b0; stroke-width: 0.8; stroke-linecap: square"/>
     </g>
     <g id="line2d_6">
      <g>
       <use xlink:href="#md39032bed2" x="151.729514" y="279.010828" style="stroke: #000000; stroke-width: 0.8"/>
      </g>
     </g>
     <g id="text_3">
      <!-- 2 -->
      <g transform="translate(146.957639 297.408484) scale(0.15 -0.15)">
       <defs>
        <path id="DejaVuSans-32" d="M 1228 531 
L 3431 531 
L 3431 0 
L 469 0 
L 469 531 
Q 828 903 1448 1529 
Q 2069 2156 2228 2338 
Q 2531 2678 2651 2914 
Q 2772 3150 2772 3378 
Q 2772 3750 2511 3984 
Q 2250 4219 1831 4219 
Q 1534 4219 1204 4116 
Q 875 4013 500 3803 
L 500 4441 
Q 881 4594 1212 4672 
Q 1544 4750 1819 4750 
Q 2544 4750 2975 4387 
Q 3406 4025 3406 3419 
Q 3406 3131 3298 2873 
Q 3191 2616 2906 2266 
Q 2828 2175 2409 1742 
Q 1991 1309 1228 531 
z
" transform="scale(0.015625)"/>
       </defs>
       <use xlink:href="#DejaVuSans-32"/>
      </g>
     </g>
    </g>
    <g id="xtick_4">
     <g id="line2d_7">
      <path d="M 208.566927 279.010828 
L 208.566927 12.898828 
" clip-path="url(#p939ede1df4)" style="fill: none; stroke: #b0b0b0; stroke-width: 0.8; stroke-linecap: square"/>
     </g>
     <g id="line2d_8">
      <g>
       <use xlink:href="#md39032bed2" x="208.566927" y="279.010828" style="stroke: #000000; stroke-width: 0.8"/>
      </g>
     </g>
     <g id="text_4">
      <!-- 3 -->
      <g transform="translate(203.795052 297.408484) scale(0.15 -0.15)">
       <defs>
        <path id="DejaVuSans-33" d="M 2597 2516 
Q 3050 2419 3304 2112 
Q 3559 1806 3559 1356 
Q 3559 666 3084 287 
Q 2609 -91 1734 -91 
Q 1441 -91 1130 -33 
Q 819 25 488 141 
L 488 750 
Q 750 597 1062 519 
Q 1375 441 1716 441 
Q 2309 441 2620 675 
Q 2931 909 2931 1356 
Q 2931 1769 2642 2001 
Q 2353 2234 1838 2234 
L 1294 2234 
L 1294 2753 
L 1863 2753 
Q 2328 2753 2575 2939 
Q 2822 3125 2822 3475 
Q 2822 3834 2567 4026 
Q 2313 4219 1838 4219 
Q 1578 4219 1281 4162 
Q 984 4106 628 3988 
L 628 4550 
Q 988 4650 1302 4700 
Q 1616 4750 1894 4750 
Q 2613 4750 3031 4423 
Q 3450 4097 3450 3541 
Q 3450 3153 3228 2886 
Q 3006 2619 2597 2516 
z
" transform="scale(0.015625)"/>
       </defs>
       <use xlink:href="#DejaVuSans-33"/>
      </g>
     </g>
    </g>
    <g id="xtick_5">
     <g id="line2d_9">
      <path d="M 265.404341 279.010828 
L 265.404341 12.898828 
" clip-path="url(#p939ede1df4)" style="fill: none; stroke: #b0b0b0; stroke-width: 0.8; stroke-linecap: square"/>
     </g>
     <g id="line2d_10">
      <g>
       <use xlink:href="#md39032bed2" x="265.404341" y="279.010828" style="stroke: #000000; stroke-width: 0.8"/>
      </g>
     </g>
     <g id="text_5">
      <!-- 4 -->
      <g transform="translate(260.632466 297.408484) scale(0.15 -0.15)">
       <defs>
        <path id="DejaVuSans-34" d="M 2419 4116 
L 825 1625 
L 2419 1625 
L 2419 4116 
z
M 2253 4666 
L 3047 4666 
L 3047 1625 
L 3713 1625 
L 3713 1100 
L 3047 1100 
L 3047 0 
L 2419 0 
L 2419 1100 
L 313 1100 
L 313 1709 
L 2253 4666 
z
" transform="scale(0.015625)"/>
       </defs>
       <use xlink:href="#DejaVuSans-34"/>
      </g>
     </g>
    </g>
    <g id="xtick_6">
     <g id="line2d_11">
      <path d="M 322.241754 279.010828 
L 322.241754 12.898828 
" clip-path="url(#p939ede1df4)" style="fill: none; stroke: #b0b0b0; stroke-width: 0.8; stroke-linecap: square"/>
     </g>
     <g id="line2d_12">
      <g>
       <use xlink:href="#md39032bed2" x="322.241754" y="279.010828" style="stroke: #000000; stroke-width: 0.8"/>
      </g>
     </g>
     <g id="text_6">
      <!-- 5 -->
      <g transform="translate(317.469879 297.408484) scale(0.15 -0.15)">
       <defs>
        <path id="DejaVuSans-35" d="M 691 4666 
L 3169 4666 
L 3169 4134 
L 1269 4134 
L 1269 2991 
Q 1406 3038 1543 3061 
Q 1681 3084 1819 3084 
Q 2600 3084 3056 2656 
Q 3513 2228 3513 1497 
Q 3513 744 3044 326 
Q 2575 -91 1722 -91 
Q 1428 -91 1123 -41 
Q 819 9 494 109 
L 494 744 
Q 775 591 1075 516 
Q 1375 441 1709 441 
Q 2250 441 2565 725 
Q 2881 1009 2881 1497 
Q 2881 1984 2565 2268 
Q 2250 2553 1709 2553 
Q 1456 2553 1204 2497 
Q 953 2441 691 2322 
L 691 4666 
z
" transform="scale(0.015625)"/>
       </defs>
       <use xlink:href="#DejaVuSans-35"/>
      </g>
     </g>
    </g>
    <g id="xtick_7">
     <g id="line2d_13">
      <path d="M 379.079167 279.010828 
L 379.079167 12.898828 
" clip-path="url(#p939ede1df4)" style="fill: none; stroke: #b0b0b0; stroke-width: 0.8; stroke-linecap: square"/>
     </g>
     <g id="line2d_14">
      <g>
       <use xlink:href="#md39032bed2" x="379.079167" y="279.010828" style="stroke: #000000; stroke-width: 0.8"/>
      </g>
     </g>
     <g id="text_7">
      <!-- 6 -->
      <g transform="translate(374.307292 297.408484) scale(0.15 -0.15)">
       <defs>
        <path id="DejaVuSans-36" d="M 2113 2584 
Q 1688 2584 1439 2293 
Q 1191 2003 1191 1497 
Q 1191 994 1439 701 
Q 1688 409 2113 409 
Q 2538 409 2786 701 
Q 3034 994 3034 1497 
Q 3034 2003 2786 2293 
Q 2538 2584 2113 2584 
z
M 3366 4563 
L 3366 3988 
Q 3128 4100 2886 4159 
Q 2644 4219 2406 4219 
Q 1781 4219 1451 3797 
Q 1122 3375 1075 2522 
Q 1259 2794 1537 2939 
Q 1816 3084 2150 3084 
Q 2853 3084 3261 2657 
Q 3669 2231 3669 1497 
Q 3669 778 3244 343 
Q 2819 -91 2113 -91 
Q 1303 -91 875 529 
Q 447 1150 447 2328 
Q 447 3434 972 4092 
Q 1497 4750 2381 4750 
Q 2619 4750 2861 4703 
Q 3103 4656 3366 4563 
z
" transform="scale(0.015625)"/>
       </defs>
       <use xlink:href="#DejaVuSans-36"/>
      </g>
     </g>
    </g>
    <g id="text_8">
     <!-- $\theta$ (rad) -->
     <g transform="translate(182.914688 319.724891) scale(0.2 -0.2)">
      <defs>
       <path id="DejaVuSans-Oblique-3b8" d="M 2913 2219 
L 925 2219 
Q 791 1284 928 888 
Q 1100 400 1566 400 
Q 2034 400 2391 891 
Q 2703 1322 2913 2219 
z
M 3009 2750 
Q 3094 3638 2984 3950 
Q 2813 4444 2353 4444 
Q 1875 4444 1525 3956 
Q 1250 3563 1034 2750 
L 3009 2750 
z
M 2444 4913 
Q 3194 4913 3494 4250 
Q 3794 3591 3566 2422 
Q 3341 1256 2781 594 
Q 2225 -72 1475 -72 
Q 722 -72 425 594 
Q 128 1256 353 2422 
Q 581 3591 1134 4250 
Q 1691 4913 2444 4913 
z
" transform="scale(0.015625)"/>
       <path id="DejaVuSans-20" transform="scale(0.015625)"/>
       <path id="DejaVuSans-28" d="M 1984 4856 
Q 1566 4138 1362 3434 
Q 1159 2731 1159 2009 
Q 1159 1288 1364 580 
Q 1569 -128 1984 -844 
L 1484 -844 
Q 1016 -109 783 600 
Q 550 1309 550 2009 
Q 550 2706 781 3412 
Q 1013 4119 1484 4856 
L 1984 4856 
z
" transform="scale(0.015625)"/>
       <path id="DejaVuSans-72" d="M 2631 2963 
Q 2534 3019 2420 3045 
Q 2306 3072 2169 3072 
Q 1681 3072 1420 2755 
Q 1159 2438 1159 1844 
L 1159 0 
L 581 0 
L 581 3500 
L 1159 3500 
L 1159 2956 
Q 1341 3275 1631 3429 
Q 1922 3584 2338 3584 
Q 2397 3584 2469 3576 
Q 2541 3569 2628 3553 
L 2631 2963 
z
" transform="scale(0.015625)"/>
       <path id="DejaVuSans-61" d="M 2194 1759 
Q 1497 1759 1228 1600 
Q 959 1441 959 1056 
Q 959 750 1161 570 
Q 1363 391 1709 391 
Q 2188 391 2477 730 
Q 2766 1069 2766 1631 
L 2766 1759 
L 2194 1759 
z
M 3341 1997 
L 3341 0 
L 2766 0 
L 2766 531 
Q 2569 213 2275 61 
Q 1981 -91 1556 -91 
Q 1019 -91 701 211 
Q 384 513 384 1019 
Q 384 1609 779 1909 
Q 1175 2209 1959 2209 
L 2766 2209 
L 2766 2266 
Q 2766 2663 2505 2880 
Q 2244 3097 1772 3097 
Q 1472 3097 1187 3025 
Q 903 2953 641 2809 
L 641 3341 
Q 956 3463 1253 3523 
Q 1550 3584 1831 3584 
Q 2591 3584 2966 3190 
Q 3341 2797 3341 1997 
z
" transform="scale(0.015625)"/>
       <path id="DejaVuSans-64" d="M 2906 2969 
L 2906 4863 
L 3481 4863 
L 3481 0 
L 2906 0 
L 2906 525 
Q 2725 213 2448 61 
Q 2172 -91 1784 -91 
Q 1150 -91 751 415 
Q 353 922 353 1747 
Q 353 2572 751 3078 
Q 1150 3584 1784 3584 
Q 2172 3584 2448 3432 
Q 2725 3281 2906 2969 
z
M 947 1747 
Q 947 1113 1208 752 
Q 1469 391 1925 391 
Q 2381 391 2643 752 
Q 2906 1113 2906 1747 
Q 2906 2381 2643 2742 
Q 2381 3103 1925 3103 
Q 1469 3103 1208 2742 
Q 947 2381 947 1747 
z
" transform="scale(0.015625)"/>
       <path id="DejaVuSans-29" d="M 513 4856 
L 1013 4856 
Q 1481 4119 1714 3412 
Q 1947 2706 1947 2009 
Q 1947 1309 1714 600 
Q 1481 -109 1013 -844 
L 513 -844 
Q 928 -128 1133 580 
Q 1338 1288 1338 2009 
Q 1338 2731 1133 3434 
Q 928 4138 513 4856 
z
" transform="scale(0.015625)"/>
      </defs>
      <use xlink:href="#DejaVuSans-Oblique-3b8" transform="translate(0 0.234375)"/>
      <use xlink:href="#DejaVuSans-20" transform="translate(61.181641 0.234375)"/>
      <use xlink:href="#DejaVuSans-28" transform="translate(92.96875 0.234375)"/>
      <use xlink:href="#DejaVuSans-72" transform="translate(131.982422 0.234375)"/>
      <use xlink:href="#DejaVuSans-61" transform="translate(173.095703 0.234375)"/>
      <use xlink:href="#DejaVuSans-64" transform="translate(234.375 0.234375)"/>
      <use xlink:href="#DejaVuSans-29" transform="translate(297.851562 0.234375)"/>
     </g>
    </g>
   </g>
   <g id="matplotlib.axis_2">
    <g id="ytick_1">
     <g id="line2d_15">
      <path d="M 38.054688 279.010828 
L 395.174688 279.010828 
" clip-path="url(#p939ede1df4)" style="fill: none; stroke: #b0b0b0; stroke-width: 0.8; stroke-linecap: square"/>
     </g>
     <g id="line2d_16">
      <defs>
       <path id="m6f3f5b6aff" d="M 0 0 
L -3.5 0 
" style="stroke: #000000; stroke-width: 0.8"/>
      </defs>
      <g>
       <use xlink:href="#m6f3f5b6aff" x="38.054688" y="279.010828" style="stroke: #000000; stroke-width: 0.8"/>
      </g>
     </g>
     <g id="text_9">
      <!-- 0.0 -->
      <g transform="translate(7.2 284.709656) scale(0.15 -0.15)">
       <defs>
        <path id="DejaVuSans-2e" d="M 684 794 
L 1344 794 
L 1344 0 
L 684 0 
L 684 794 
z
" transform="scale(0.015625)"/>
       </defs>
       <use xlink:href="#DejaVuSans-30"/>
       <use xlink:href="#DejaVuSans-2e" x="63.623047"/>
       <use xlink:href="#DejaVuSans-30" x="95.410156"/>
      </g>
     </g>
    </g>
    <g id="ytick_2">
     <g id="line2d_17">
      <path d="M 38.054688 225.788428 
L 395.174688 225.788428 
" clip-path="url(#p939ede1df4)" style="fill: none; stroke: #b0b0b0; stroke-width: 0.8; stroke-linecap: square"/>
     </g>
     <g id="line2d_18">
      <g>
       <use xlink:href="#m6f3f5b6aff" x="38.054688" y="225.788428" style="stroke: #000000; stroke-width: 0.8"/>
      </g>
     </g>
     <g id="text_10">
      <!-- 0.2 -->
      <g transform="translate(7.2 231.487256) scale(0.15 -0.15)">
       <use xlink:href="#DejaVuSans-30"/>
       <use xlink:href="#DejaVuSans-2e" x="63.623047"/>
       <use xlink:href="#DejaVuSans-32" x="95.410156"/>
      </g>
     </g>
    </g>
    <g id="ytick_3">
     <g id="line2d_19">
      <path d="M 38.054688 172.566028 
L 395.174688 172.566028 
" clip-path="url(#p939ede1df4)" style="fill: none; stroke: #b0b0b0; stroke-width: 0.8; stroke-linecap: square"/>
     </g>
     <g id="line2d_20">
      <g>
       <use xlink:href="#m6f3f5b6aff" x="38.054688" y="172.566028" style="stroke: #000000; stroke-width: 0.8"/>
      </g>
     </g>
     <g id="text_11">
      <!-- 0.4 -->
      <g transform="translate(7.2 178.264856) scale(0.15 -0.15)">
       <use xlink:href="#DejaVuSans-30"/>
       <use xlink:href="#DejaVuSans-2e" x="63.623047"/>
       <use xlink:href="#DejaVuSans-34" x="95.410156"/>
      </g>
     </g>
    </g>
    <g id="ytick_4">
     <g id="line2d_21">
      <path d="M 38.054688 119.343628 
L 395.174688 119.343628 
" clip-path="url(#p939ede1df4)" style="fill: none; stroke: #b0b0b0; stroke-width: 0.8; stroke-linecap: square"/>
     </g>
     <g id="line2d_22">
      <g>
       <use xlink:href="#m6f3f5b6aff" x="38.054688" y="119.343628" style="stroke: #000000; stroke-width: 0.8"/>
      </g>
     </g>
     <g id="text_12">
      <!-- 0.6 -->
      <g transform="translate(7.2 125.042456) scale(0.15 -0.15)">
       <use xlink:href="#DejaVuSans-30"/>
       <use xlink:href="#DejaVuSans-2e" x="63.623047"/>
       <use xlink:href="#DejaVuSans-36" x="95.410156"/>
      </g>
     </g>
    </g>
    <g id="ytick_5">
     <g id="line2d_23">
      <path d="M 38.054688 66.121228 
L 395.174688 66.121228 
" clip-path="url(#p939ede1df4)" style="fill: none; stroke: #b0b0b0; stroke-width: 0.8; stroke-linecap: square"/>
     </g>
     <g id="line2d_24">
      <g>
       <use xlink:href="#m6f3f5b6aff" x="38.054688" y="66.121228" style="stroke: #000000; stroke-width: 0.8"/>
      </g>
     </g>
     <g id="text_13">
      <!-- 0.8 -->
      <g transform="translate(7.2 71.820056) scale(0.15 -0.15)">
       <defs>
        <path id="DejaVuSans-38" d="M 2034 2216 
Q 1584 2216 1326 1975 
Q 1069 1734 1069 1313 
Q 1069 891 1326 650 
Q 1584 409 2034 409 
Q 2484 409 2743 651 
Q 3003 894 3003 1313 
Q 3003 1734 2745 1975 
Q 2488 2216 2034 2216 
z
M 1403 2484 
Q 997 2584 770 2862 
Q 544 3141 544 3541 
Q 544 4100 942 4425 
Q 1341 4750 2034 4750 
Q 2731 4750 3128 4425 
Q 3525 4100 3525 3541 
Q 3525 3141 3298 2862 
Q 3072 2584 2669 2484 
Q 3125 2378 3379 2068 
Q 3634 1759 3634 1313 
Q 3634 634 3220 271 
Q 2806 -91 2034 -91 
Q 1263 -91 848 271 
Q 434 634 434 1313 
Q 434 1759 690 2068 
Q 947 2378 1403 2484 
z
M 1172 3481 
Q 1172 3119 1398 2916 
Q 1625 2713 2034 2713 
Q 2441 2713 2670 2916 
Q 2900 3119 2900 3481 
Q 2900 3844 2670 4047 
Q 2441 4250 2034 4250 
Q 1625 4250 1398 4047 
Q 1172 3844 1172 3481 
z
" transform="scale(0.015625)"/>
       </defs>
       <use xlink:href="#DejaVuSans-30"/>
       <use xlink:href="#DejaVuSans-2e" x="63.623047"/>
       <use xlink:href="#DejaVuSans-38" x="95.410156"/>
      </g>
     </g>
    </g>
    <g id="ytick_6">
     <g id="line2d_25">
      <path d="M 38.054688 12.898828 
L 395.174688 12.898828 
" clip-path="url(#p939ede1df4)" style="fill: none; stroke: #b0b0b0; stroke-width: 0.8; stroke-linecap: square"/>
     </g>
     <g id="line2d_26">
      <g>
       <use xlink:href="#m6f3f5b6aff" x="38.054688" y="12.898828" style="stroke: #000000; stroke-width: 0.8"/>
      </g>
     </g>
     <g id="text_14">
      <!-- 1.0 -->
      <g transform="translate(7.2 18.597656) scale(0.15 -0.15)">
       <use xlink:href="#DejaVuSans-31"/>
       <use xlink:href="#DejaVuSans-2e" x="63.623047"/>
       <use xlink:href="#DejaVuSans-30" x="95.410156"/>
      </g>
     </g>
    </g>
   </g>
   <g id="line2d_27">
    <path d="M 38.054688 278.329503 
L 40.379771 278.219024 
L 42.704855 277.887773 
L 45.06744 277.325608 
L 47.467526 276.522701 
L 49.905114 275.469566 
L 52.380203 274.157136 
L 54.930295 272.55136 
L 57.55539 270.632913 
L 60.255487 268.382991 
L 63.068088 265.746421 
L 65.993193 262.694198 
L 69.030803 259.198402 
L 72.218417 255.183417 
L 75.556038 250.612696 
L 79.043663 245.452512 
L 82.718796 239.611334 
L 86.618936 232.986437 
L 90.781586 225.466171 
L 95.244246 216.933437 
L 100.081921 207.193593 
L 105.444614 195.884329 
L 111.594835 182.377221 
L 119.207609 165.090949 
L 146.658597 102.235183 
L 152.621312 89.440385 
L 157.871501 78.687399 
L 162.634173 69.429029 
L 167.021831 61.375444 
L 171.109478 54.326589 
L 174.972117 48.101992 
L 178.609748 42.653901 
L 182.059872 37.87835 
L 185.359991 33.683822 
L 188.510104 30.033745 
L 191.510212 26.8892 
L 194.397816 24.176551 
L 197.172916 21.866413 
L 199.873013 19.903269 
L 202.498108 18.267986 
L 205.0482 16.940813 
L 207.523289 15.901584 
L 209.960877 15.119689 
L 212.323462 14.592016 
L 214.686047 14.291836 
L 217.01113 14.219029 
L 219.336214 14.367174 
L 221.661298 14.736024 
L 224.023883 15.336258 
L 226.423969 16.177633 
L 228.861557 17.269553 
L 231.374147 18.643345 
L 233.924239 20.292613 
L 236.549334 22.255202 
L 239.286932 24.583578 
L 242.099534 27.269648 
L 245.024639 30.372126 
L 248.09975 33.964459 
L 251.287364 38.034999 
L 254.624985 42.661618 
L 258.150111 47.935658 
L 261.862745 53.898674 
L 265.800387 60.653031 
L 270.000538 68.309611 
L 274.5007 76.98417 
L 279.413377 86.947576 
L 284.888574 98.570274 
L 291.188801 112.484747 
L 299.176588 130.700054 
L 323.327458 186.144137 
L 329.590183 199.746117 
L 335.027879 211.035869 
L 339.903055 220.657052 
L 344.403217 229.054252 
L 348.565867 236.361 
L 352.466007 242.769404 
L 356.178641 248.44818 
L 359.666266 253.386226 
L 363.003886 257.734575 
L 366.191501 261.528962 
L 369.229111 264.807711 
L 372.154216 267.645213 
L 374.966817 270.070574 
L 377.704416 272.14023 
L 380.32951 273.850692 
L 382.879602 275.251768 
L 385.354691 276.363409 
L 387.792279 277.217137 
L 390.192365 277.822457 
L 392.55495 278.189254 
L 394.880034 278.327729 
L 395.180045 278.329503 
L 395.180045 278.329503 
" clip-path="url(#p939ede1df4)" style="fill: none; stroke: #1f77b4; stroke-width: 1.5; stroke-linecap: square"/>
   </g>
   <g id="LineCollection_1">
    <path d="M 38.054688 279.010828 
L 38.054688 278.126735 
" clip-path="url(#p939ede1df4)" style="fill: none; stroke: #1f77b4; stroke-width: 1.5"/>
    <path d="M 55.910687 275.453135 
L 55.910687 271.075312 
" clip-path="url(#p939ede1df4)" style="fill: none; stroke: #1f77b4; stroke-width: 1.5"/>
    <path d="M 73.766687 255.843975 
L 73.766687 246.47982 
" clip-path="url(#p939ede1df4)" style="fill: none; stroke: #1f77b4; stroke-width: 1.5"/>
    <path d="M 91.622687 229.123653 
L 91.622687 216.618189 
" clip-path="url(#p939ede1df4)" style="fill: none; stroke: #1f77b4; stroke-width: 1.5"/>
    <path d="M 109.478687 188.710998 
L 109.478687 173.9261 
" clip-path="url(#p939ede1df4)" style="fill: none; stroke: #1f77b4; stroke-width: 1.5"/>
    <path d="M 127.334688 158.040266 
L 127.334688 142.710321 
" clip-path="url(#p939ede1df4)" style="fill: none; stroke: #1f77b4; stroke-width: 1.5"/>
    <path d="M 145.190687 101.752203 
L 145.190687 87.602663 
" clip-path="url(#p939ede1df4)" style="fill: none; stroke: #1f77b4; stroke-width: 1.5"/>
    <path d="M 163.046688 76.2115 
L 163.046688 63.634157 
" clip-path="url(#p939ede1df4)" style="fill: none; stroke: #1f77b4; stroke-width: 1.5"/>
    <path d="M 180.902687 51.106876 
L 180.902687 40.997757 
" clip-path="url(#p939ede1df4)" style="fill: none; stroke: #1f77b4; stroke-width: 1.5"/>
    <path d="M 198.758688 23.947042 
L 198.758688 18.648381 
" clip-path="url(#p939ede1df4)" style="fill: none; stroke: #1f77b4; stroke-width: 1.5"/>
    <path d="M 216.614688 15.212095 
L 216.614688 13.23784 
" clip-path="url(#p939ede1df4)" style="fill: none; stroke: #1f77b4; stroke-width: 1.5"/>
    <path d="M 234.470688 22.919935 
L 234.470688 17.907302 
" clip-path="url(#p939ede1df4)" style="fill: none; stroke: #1f77b4; stroke-width: 1.5"/>
    <path d="M 252.326687 46.379412 
L 252.326687 36.884291 
" clip-path="url(#p939ede1df4)" style="fill: none; stroke: #1f77b4; stroke-width: 1.5"/>
    <path d="M 270.182687 70.68167 
L 270.182687 58.55487 
" clip-path="url(#p939ede1df4)" style="fill: none; stroke: #1f77b4; stroke-width: 1.5"/>
    <path d="M 288.038688 102.657439 
L 288.038688 88.465612 
" clip-path="url(#p939ede1df4)" style="fill: none; stroke: #1f77b4; stroke-width: 1.5"/>
    <path d="M 305.894687 146.540425 
L 305.894687 131.223742 
" clip-path="url(#p939ede1df4)" style="fill: none; stroke: #1f77b4; stroke-width: 1.5"/>
    <path d="M 323.750687 199.987995 
L 323.750687 185.635522 
" clip-path="url(#p939ede1df4)" style="fill: none; stroke: #1f77b4; stroke-width: 1.5"/>
    <path d="M 341.606688 234.199002 
L 341.606688 222.151957 
" clip-path="url(#p939ede1df4)" style="fill: none; stroke: #1f77b4; stroke-width: 1.5"/>
    <path d="M 359.462688 249.257885 
L 359.462688 238.920422 
" clip-path="url(#p939ede1df4)" style="fill: none; stroke: #1f77b4; stroke-width: 1.5"/>
    <path d="M 377.318688 273.261275 
L 377.318688 267.962614 
" clip-path="url(#p939ede1df4)" style="fill: none; stroke: #1f77b4; stroke-width: 1.5"/>
    <path d="M 395.174688 278.1228 
L 395.174688 275.478391 
" clip-path="url(#p939ede1df4)" style="fill: none; stroke: #1f77b4; stroke-width: 1.5"/>
   </g>
   <g id="line2d_28">
    <defs>
     <path id="mcceb8b8273" d="M 0 3 
C 0.795609 3 1.55874 2.683901 2.12132 2.12132 
C 2.683901 1.55874 3 0.795609 3 0 
C 3 -0.795609 2.683901 -1.55874 2.12132 -2.12132 
C 1.55874 -2.683901 0.795609 -3 0 -3 
C -0.795609 -3 -1.55874 -2.683901 -2.12132 -2.12132 
C -2.683901 -1.55874 -3 -0.795609 -3 0 
C -3 0.795609 -2.683901 1.55874 -2.12132 2.12132 
C -1.55874 2.683901 -0.795609 3 0 3 
z
" style="stroke: #1f77b4"/>
    </defs>
    <g clip-path="url(#p939ede1df4)">
     <use xlink:href="#mcceb8b8273" x="38.054688" y="278.568782" style="fill: #1f77b4; stroke: #1f77b4"/>
     <use xlink:href="#mcceb8b8273" x="55.910687" y="273.264223" style="fill: #1f77b4; stroke: #1f77b4"/>
     <use xlink:href="#mcceb8b8273" x="73.766687" y="251.161898" style="fill: #1f77b4; stroke: #1f77b4"/>
     <use xlink:href="#mcceb8b8273" x="91.622687" y="222.870921" style="fill: #1f77b4; stroke: #1f77b4"/>
     <use xlink:href="#mcceb8b8273" x="109.478687" y="181.318549" style="fill: #1f77b4; stroke: #1f77b4"/>
     <use xlink:href="#mcceb8b8273" x="127.334688" y="150.375293" style="fill: #1f77b4; stroke: #1f77b4"/>
     <use xlink:href="#mcceb8b8273" x="145.190687" y="94.677433" style="fill: #1f77b4; stroke: #1f77b4"/>
     <use xlink:href="#mcceb8b8273" x="163.046688" y="69.922828" style="fill: #1f77b4; stroke: #1f77b4"/>
     <use xlink:href="#mcceb8b8273" x="180.902687" y="46.052316" style="fill: #1f77b4; stroke: #1f77b4"/>
     <use xlink:href="#mcceb8b8273" x="198.758688" y="21.297712" style="fill: #1f77b4; stroke: #1f77b4"/>
     <use xlink:href="#mcceb8b8273" x="216.614688" y="14.224968" style="fill: #1f77b4; stroke: #1f77b4"/>
     <use xlink:href="#mcceb8b8273" x="234.470688" y="20.413619" style="fill: #1f77b4; stroke: #1f77b4"/>
     <use xlink:href="#mcceb8b8273" x="252.326687" y="41.631851" style="fill: #1f77b4; stroke: #1f77b4"/>
     <use xlink:href="#mcceb8b8273" x="270.182687" y="64.61827" style="fill: #1f77b4; stroke: #1f77b4"/>
     <use xlink:href="#mcceb8b8273" x="288.038688" y="95.561526" style="fill: #1f77b4; stroke: #1f77b4"/>
     <use xlink:href="#mcceb8b8273" x="305.894687" y="138.882084" style="fill: #1f77b4; stroke: #1f77b4"/>
     <use xlink:href="#mcceb8b8273" x="323.750687" y="192.811758" style="fill: #1f77b4; stroke: #1f77b4"/>
     <use xlink:href="#mcceb8b8273" x="341.606688" y="228.175479" style="fill: #1f77b4; stroke: #1f77b4"/>
     <use xlink:href="#mcceb8b8273" x="359.462688" y="244.089154" style="fill: #1f77b4; stroke: #1f77b4"/>
     <use xlink:href="#mcceb8b8273" x="377.318688" y="270.611944" style="fill: #1f77b4; stroke: #1f77b4"/>
     <use xlink:href="#mcceb8b8273" x="395.174688" y="276.800596" style="fill: #1f77b4; stroke: #1f77b4"/>
    </g>
   </g>
   <g id="patch_3">
    <path d="M 38.054688 279.010828 
L 38.054688 12.898828 
" style="fill: none; stroke: #000000; stroke-width: 0.8; stroke-linejoin: miter; stroke-linecap: square"/>
   </g>
   <g id="patch_4">
    <path d="M 395.174688 279.010828 
L 395.174688 12.898828 
" style="fill: none; stroke: #000000; stroke-width: 0.8; stroke-linejoin: miter; stroke-linecap: square"/>
   </g>
   <g id="patch_5">
    <path d="M 38.054688 279.010828 
L 395.174688 279.010828 
" style="fill: none; stroke: #000000; stroke-width: 0.8; stroke-linejoin: miter; stroke-linecap: square"/>
   </g>
   <g id="patch_6">
    <path d="M 38.054688 12.898828 
L 395.174688 12.898828 
" style="fill: none; stroke: #000000; stroke-width: 0.8; stroke-linejoin: miter; stroke-linecap: square"/>
   </g>
   <g id="text_15">
    <!-- $E_{|0\rangle}=0.26(15) \%$ -->
    <g style="fill: #1f77b4" transform="translate(154.571385 220.466188) scale(0.15 -0.15)">
     <defs>
      <path id="DejaVuSans-Oblique-45" d="M 1081 4666 
L 4031 4666 
L 3928 4134 
L 1606 4134 
L 1338 2753 
L 3566 2753 
L 3463 2222 
L 1234 2222 
L 909 531 
L 3284 531 
L 3181 0 
L 172 0 
L 1081 4666 
z
" transform="scale(0.015625)"/>
      <path id="DejaVuSans-7c" d="M 1344 4891 
L 1344 -1509 
L 813 -1509 
L 813 4891 
L 1344 4891 
z
" transform="scale(0.015625)"/>
      <path id="DejaVuSans-27e9" d="M 1925 2006 
L 1044 -844 
L 513 -844 
L 1394 2006 
L 513 4856 
L 1044 4856 
L 1925 2006 
z
" transform="scale(0.015625)"/>
      <path id="DejaVuSans-3d" d="M 678 2906 
L 4684 2906 
L 4684 2381 
L 678 2381 
L 678 2906 
z
M 678 1631 
L 4684 1631 
L 4684 1100 
L 678 1100 
L 678 1631 
z
" transform="scale(0.015625)"/>
      <path id="DejaVuSans-25" d="M 4653 2053 
Q 4381 2053 4226 1822 
Q 4072 1591 4072 1178 
Q 4072 772 4226 539 
Q 4381 306 4653 306 
Q 4919 306 5073 539 
Q 5228 772 5228 1178 
Q 5228 1588 5073 1820 
Q 4919 2053 4653 2053 
z
M 4653 2450 
Q 5147 2450 5437 2106 
Q 5728 1763 5728 1178 
Q 5728 594 5436 251 
Q 5144 -91 4653 -91 
Q 4153 -91 3862 251 
Q 3572 594 3572 1178 
Q 3572 1766 3864 2108 
Q 4156 2450 4653 2450 
z
M 1428 4353 
Q 1159 4353 1004 4120 
Q 850 3888 850 3481 
Q 850 3069 1003 2837 
Q 1156 2606 1428 2606 
Q 1700 2606 1854 2837 
Q 2009 3069 2009 3481 
Q 2009 3884 1853 4118 
Q 1697 4353 1428 4353 
z
M 4250 4750 
L 4750 4750 
L 1831 -91 
L 1331 -91 
L 4250 4750 
z
M 1428 4750 
Q 1922 4750 2215 4408 
Q 2509 4066 2509 3481 
Q 2509 2891 2217 2550 
Q 1925 2209 1428 2209 
Q 931 2209 642 2551 
Q 353 2894 353 3481 
Q 353 4063 643 4406 
Q 934 4750 1428 4750 
z
" transform="scale(0.015625)"/>
     </defs>
     <use xlink:href="#DejaVuSans-Oblique-45" transform="translate(0 0.125)"/>
     <use xlink:href="#DejaVuSans-7c" transform="translate(63.183594 -16.28125) scale(0.7)"/>
     <use xlink:href="#DejaVuSans-30" transform="translate(86.767578 -16.28125) scale(0.7)"/>
     <use xlink:href="#DejaVuSans-27e9" transform="translate(131.303711 -16.28125) scale(0.7)"/>
     <use xlink:href="#DejaVuSans-3d" transform="translate(180.830078 0.125)"/>
     <use xlink:href="#DejaVuSans-30" transform="translate(284.101562 0.125)"/>
     <use xlink:href="#DejaVuSans-2e" transform="translate(347.724609 0.125)"/>
     <use xlink:href="#DejaVuSans-32" transform="translate(374.011719 0.125)"/>
     <use xlink:href="#DejaVuSans-36" transform="translate(437.634766 0.125)"/>
     <use xlink:href="#DejaVuSans-28" transform="translate(501.257812 0.125)"/>
     <use xlink:href="#DejaVuSans-31" transform="translate(540.271484 0.125)"/>
     <use xlink:href="#DejaVuSans-35" transform="translate(603.894531 0.125)"/>
     <use xlink:href="#DejaVuSans-29" transform="translate(667.517578 0.125)"/>
     <use xlink:href="#DejaVuSans-25" transform="translate(706.53125 0.125)"/>
    </g>
   </g>
   <g id="text_16">
    <!-- $E_{|1\rangle}=0.49(31) \%$ -->
    <g style="fill: #1f77b4" transform="translate(154.571385 247.077388) scale(0.15 -0.15)">
     <defs>
      <path id="DejaVuSans-39" d="M 703 97 
L 703 672 
Q 941 559 1184 500 
Q 1428 441 1663 441 
Q 2288 441 2617 861 
Q 2947 1281 2994 2138 
Q 2813 1869 2534 1725 
Q 2256 1581 1919 1581 
Q 1219 1581 811 2004 
Q 403 2428 403 3163 
Q 403 3881 828 4315 
Q 1253 4750 1959 4750 
Q 2769 4750 3195 4129 
Q 3622 3509 3622 2328 
Q 3622 1225 3098 567 
Q 2575 -91 1691 -91 
Q 1453 -91 1209 -44 
Q 966 3 703 97 
z
M 1959 2075 
Q 2384 2075 2632 2365 
Q 2881 2656 2881 3163 
Q 2881 3666 2632 3958 
Q 2384 4250 1959 4250 
Q 1534 4250 1286 3958 
Q 1038 3666 1038 3163 
Q 1038 2656 1286 2365 
Q 1534 2075 1959 2075 
z
" transform="scale(0.015625)"/>
     </defs>
     <use xlink:href="#DejaVuSans-Oblique-45" transform="translate(0 0.125)"/>
     <use xlink:href="#DejaVuSans-7c" transform="translate(63.183594 -16.28125) scale(0.7)"/>
     <use xlink:href="#DejaVuSans-31" transform="translate(86.767578 -16.28125) scale(0.7)"/>
     <use xlink:href="#DejaVuSans-27e9" transform="translate(131.303711 -16.28125) scale(0.7)"/>
     <use xlink:href="#DejaVuSans-3d" transform="translate(180.830078 0.125)"/>
     <use xlink:href="#DejaVuSans-30" transform="translate(284.101562 0.125)"/>
     <use xlink:href="#DejaVuSans-2e" transform="translate(347.724609 0.125)"/>
     <use xlink:href="#DejaVuSans-34" transform="translate(379.511719 0.125)"/>
     <use xlink:href="#DejaVuSans-39" transform="translate(443.134766 0.125)"/>
     <use xlink:href="#DejaVuSans-28" transform="translate(506.757812 0.125)"/>
     <use xlink:href="#DejaVuSans-33" transform="translate(545.771484 0.125)"/>
     <use xlink:href="#DejaVuSans-31" transform="translate(609.394531 0.125)"/>
     <use xlink:href="#DejaVuSans-29" transform="translate(673.017578 0.125)"/>
     <use xlink:href="#DejaVuSans-25" transform="translate(712.03125 0.125)"/>
    </g>
   </g>
  </g>
 </g>
 <defs>
  <clipPath id="p939ede1df4">
   <rect x="38.054688" y="12.898828" width="357.12" height="266.112"/>
  </clipPath>
 </defs>
</svg>
