<?xml version="1.0" encoding="utf-8" standalone="no"?>
<!DOCTYPE svg PUBLIC "-//W3C//DTD SVG 1.1//EN"
  "http://www.w3.org/Graphics/SVG/1.1/DTD/svg11.dtd">
<svg xmlns:xlink="http://www.w3.org/1999/xlink" width="402.374687pt" height="331.128016pt" viewBox="0 0 402.374687 331.128016" xmlns="http://www.w3.org/2000/svg" version="1.1">
 <defs>
  <style type="text/css">*{stroke-linejoin: round; stroke-linecap: butt}</style>
 </defs>
 <g id="figure_1">
  <g id="patch_1">
   <path d="M 0 331.128016 
L 402.374687 331.128016 
L 402.374687 0 
L 0 0 
L 0 331.128016 
z
" style="fill: none"/>
  </g>
  <g id="axes_1">
   <g id="patch_2">
    <path d="M 38.054688 279.010828 
L 395.174688 279.010828 
L 395.174688 12.898828 
L 38.054688 12.898828 
L 38.054688 279.010828 
z
" style="fill: none"/>
   </g>
   <g id="matplotlib.axis_1">
    <g id="xtick_1">
     <g id="line2d_1">
      <path d="M 38.054688 279.010828 
L 38.054688 12.898828 
" clip-path="url(#p57e1be11ef)" style="fill: none; stroke: #b0b0b0; stroke-width: 0.8; stroke-linecap: square"/>
     </g>
     <g id="line2d_2">
      <defs>
       <path id="md39032bed2" d="M 0 0 
L 0 3.5 
" style="stroke: #000000; stroke-width: 0.8"/>
      </defs>
      <g>
       <use xlink:href="#md39032bed2" x="38.054688" y="279.010828" style="stroke: #000000; stroke-width: 0.8"/>
      </g>
     </g>
     <g id="text_1">
      <!-- 0 -->
      <g transform="translate(33.282812 297.408484) scale(0.15 -0.15)">
       <defs>
        <path id="DejaVuSans-30" d="M 2034 4250 
Q 1547 4250 1301 3770 
Q 1056 3291 1056 2328 
Q 1056 1369 1301 889 
Q 1547 409 2034 409 
Q 2525 409 2770 889 
Q 3016 1369 3016 2328 
Q 3016 3291 2770 3770 
Q 2525 4250 2034 4250 
z
M 2034 4750 
Q 2819 4750 3233 4129 
Q 3647 3509 3647 2328 
Q 3647 1150 3233 529 
Q 2819 -91 2034 -91 
Q 1250 -91 836 529 
Q 422 1150 422 2328 
Q 422 3509 836 4129 
Q 1250 4750 2034 4750 
z
" transform="scale(0.015625)"/>
       </defs>
       <use xlink:href="#DejaVuSans-30"/>
      </g>
     </g>
    </g>
    <g id="xtick_2">
     <g id="line2d_3">
      <path d="M 94.892101 279.010828 
L 94.892101 12.898828 
" clip-path="url(#p57e1be11ef)" style="fill: none; stroke: #b0b0b0; stroke-width: 0.8; stroke-linecap: square"/>
     </g>
     <g id="line2d_4">
      <g>
       <use xlink:href="#md39032bed2" x="94.892101" y="279.010828" style="stroke: #000000; stroke-width: 0.8"/>
      </g>
     </g>
     <g id="text_2">
      <!-- 1 -->
      <g transform="translate(90.120226 297.408484) scale(0.15 -0.15)">
       <defs>
        <path id="DejaVuSans-31" d="M 794 531 
L 1825 531 
L 1825 4091 
L 703 3866 
L 703 4441 
L 1819 4666 
L 2450 4666 
L 2450 531 
L 3481 531 
L 3481 0 
L 794 0 
L 794 531 
z
" transform="scale(0.015625)"/>
       </defs>
       <use xlink:href="#DejaVuSans-31"/>
      </g>
     </g>
    </g>
    <g id="xtick_3">
     <g id="line2d_5">
      <path d="M 151.729514 279.010828 
L 151.729514 12.898828 
" clip-path="url(#p57e1be11ef)" style="fill: none; stroke: #b0b0b0; stroke-width: 0.8; stroke-linecap: square"/>
     </g>
     <g id="line2d_6">
      <g>
       <use xlink:href="#md39032bed2" x="151.729514" y="279.010828" style="stroke: #000000; stroke-width: 0.8"/>
      </g>
     </g>
     <g id="text_3">
      <!-- 2 -->
      <g transform="translate(146.957639 297.408484) scale(0.15 -0.15)">
       <defs>
        <path id="DejaVuSans-32" d="M 1228 531 
L 3431 531 
L 3431 0 
L 469 0 
L 469 531 
Q 828 903 1448 1529 
Q 2069 2156 2228 2338 
Q 2531 2678 2651 2914 
Q 2772 3150 2772 3378 
Q 2772 3750 2511 3984 
Q 2250 4219 1831 4219 
Q 1534 4219 1204 4116 
Q 875 4013 500 3803 
L 500 4441 
Q 881 4594 1212 4672 
Q 1544 4750 1819 4750 
Q 2544 4750 2975 4387 
Q 3406 4025 3406 3419 
Q 3406 3131 3298 2873 
Q 3191 2616 2906 2266 
Q 2828 2175 2409 1742 
Q 1991 1309 1228 531 
z
" transform="scale(0.015625)"/>
       </defs>
       <use xlink:href="#DejaVuSans-32"/>
      </g>
     </g>
    </g>
    <g id="xtick_4">
     <g id="line2d_7">
      <path d="M 208.566927 279.010828 
L 208.566927 12.898828 
" clip-path="url(#p57e1be11ef)" style="fill: none; stroke: #b0b0b0; stroke-width: 0.8; stroke-linecap: square"/>
     </g>
     <g id="line2d_8">
      <g>
       <use xlink:href="#md39032bed2" x="208.566927" y="279.010828" style="stroke: #000000; stroke-width: 0.8"/>
      </g>
     </g>
     <g id="text_4">
      <!-- 3 -->
      <g transform="translate(203.795052 297.408484) scale(0.15 -0.15)">
       <defs>
        <path id="DejaVuSans-33" d="M 2597 2516 
Q 3050 2419 3304 2112 
Q 3559 1806 3559 1356 
Q 3559 666 3084 287 
Q 2609 -91 1734 -91 
Q 1441 -91 1130 -33 
Q 819 25 488 141 
L 488 750 
Q 750 597 1062 519 
Q 1375 441 1716 441 
Q 2309 441 2620 675 
Q 2931 909 2931 1356 
Q 2931 1769 2642 2001 
Q 2353 2234 1838 2234 
L 1294 2234 
L 1294 2753 
L 1863 2753 
Q 2328 2753 2575 2939 
Q 2822 3125 2822 3475 
Q 2822 3834 2567 4026 
Q 2313 4219 1838 4219 
Q 1578 4219 1281 4162 
Q 984 4106 628 3988 
L 628 4550 
Q 988 4650 1302 4700 
Q 1616 4750 1894 4750 
Q 2613 4750 3031 4423 
Q 3450 4097 3450 3541 
Q 3450 3153 3228 2886 
Q 3006 2619 2597 2516 
z
" transform="scale(0.015625)"/>
       </defs>
       <use xlink:href="#DejaVuSans-33"/>
      </g>
     </g>
    </g>
    <g id="xtick_5">
     <g id="line2d_9">
      <path d="M 265.404341 279.010828 
L 265.404341 12.898828 
" clip-path="url(#p57e1be11ef)" style="fill: none; stroke: #b0b0b0; stroke-width: 0.8; stroke-linecap: square"/>
     </g>
     <g id="line2d_10">
      <g>
       <use xlink:href="#md39032bed2" x="265.404341" y="279.010828" style="stroke: #000000; stroke-width: 0.8"/>
      </g>
     </g>
     <g id="text_5">
      <!-- 4 -->
      <g transform="translate(260.632466 297.408484) scale(0.15 -0.15)">
       <defs>
        <path id="DejaVuSans-34" d="M 2419 4116 
L 825 1625 
L 2419 1625 
L 2419 4116 
z
M 2253 4666 
L 3047 4666 
L 3047 1625 
L 3713 1625 
L 3713 1100 
L 3047 1100 
L 3047 0 
L 2419 0 
L 2419 1100 
L 313 1100 
L 313 1709 
L 2253 4666 
z
" transform="scale(0.015625)"/>
       </defs>
       <use xlink:href="#DejaVuSans-34"/>
      </g>
     </g>
    </g>
    <g id="xtick_6">
     <g id="line2d_11">
      <path d="M 322.241754 279.010828 
L 322.241754 12.898828 
" clip-path="url(#p57e1be11ef)" style="fill: none; stroke: #b0b0b0; stroke-width: 0.8; stroke-linecap: square"/>
     </g>
     <g id="line2d_12">
      <g>
       <use xlink:href="#md39032bed2" x="322.241754" y="279.010828" style="stroke: #000000; stroke-width: 0.8"/>
      </g>
     </g>
     <g id="text_6">
      <!-- 5 -->
      <g transform="translate(317.469879 297.408484) scale(0.15 -0.15)">
       <defs>
        <path id="DejaVuSans-35" d="M 691 4666 
L 3169 4666 
L 3169 4134 
L 1269 4134 
L 1269 2991 
Q 1406 3038 1543 3061 
Q 1681 3084 1819 3084 
Q 2600 3084 3056 2656 
Q 3513 2228 3513 1497 
Q 3513 744 3044 326 
Q 2575 -91 1722 -91 
Q 1428 -91 1123 -41 
Q 819 9 494 109 
L 494 744 
Q 775 591 1075 516 
Q 1375 441 1709 441 
Q 2250 441 2565 725 
Q 2881 1009 2881 1497 
Q 2881 1984 2565 2268 
Q 2250 2553 1709 2553 
Q 1456 2553 1204 2497 
Q 953 2441 691 2322 
L 691 4666 
z
" transform="scale(0.015625)"/>
       </defs>
       <use xlink:href="#DejaVuSans-35"/>
      </g>
     </g>
    </g>
    <g id="xtick_7">
     <g id="line2d_13">
      <path d="M 379.079167 279.010828 
L 379.079167 12.898828 
" clip-path="url(#p57e1be11ef)" style="fill: none; stroke: #b0b0b0; stroke-width: 0.8; stroke-linecap: square"/>
     </g>
     <g id="line2d_14">
      <g>
       <use xlink:href="#md39032bed2" x="379.079167" y="279.010828" style="stroke: #000000; stroke-width: 0.8"/>
      </g>
     </g>
     <g id="text_7">
      <!-- 6 -->
      <g transform="translate(374.307292 297.408484) scale(0.15 -0.15)">
       <defs>
        <path id="DejaVuSans-36" d="M 2113 2584 
Q 1688 2584 1439 2293 
Q 1191 2003 1191 1497 
Q 1191 994 1439 701 
Q 1688 409 2113 409 
Q 2538 409 2786 701 
Q 3034 994 3034 1497 
Q 3034 2003 2786 2293 
Q 2538 2584 2113 2584 
z
M 3366 4563 
L 3366 3988 
Q 3128 4100 2886 4159 
Q 2644 4219 2406 4219 
Q 1781 4219 1451 3797 
Q 1122 3375 1075 2522 
Q 1259 2794 1537 2939 
Q 1816 3084 2150 3084 
Q 2853 3084 3261 2657 
Q 3669 2231 3669 1497 
Q 3669 778 3244 343 
Q 2819 -91 2113 -91 
Q 1303 -91 875 529 
Q 447 1150 447 2328 
Q 447 3434 972 4092 
Q 1497 4750 2381 4750 
Q 2619 4750 2861 4703 
Q 3103 4656 3366 4563 
z
" transform="scale(0.015625)"/>
       </defs>
       <use xlink:href="#DejaVuSans-36"/>
      </g>
     </g>
    </g>
    <g id="text_8">
     <!-- $\phi$ (rad) -->
     <g transform="translate(182.414688 319.728016) scale(0.2 -0.2)">
      <defs>
       <path id="DejaVuSans-Oblique-3d5" d="M 2991 4863 
L 2738 3572 
Q 3363 3572 3684 3094 
Q 4016 2606 3850 1747 
Q 3681 888 3159 400 
Q 2653 -78 2028 -78 
L 1784 -1331 
L 1213 -1331 
L 1456 -78 
Q 834 -78 509 400 
Q 178 888 347 1747 
Q 513 2606 1034 3094 
Q 1544 3572 2166 3572 
L 2419 4863 
L 2991 4863 
z
M 2128 434 
Q 2481 434 2784 756 
Q 3116 1116 3244 1747 
Q 3369 2372 3169 2738 
Q 2991 3059 2638 3059 
L 2128 434 
z
M 1556 434 
L 2066 3059 
Q 1716 3059 1413 2738 
Q 1072 2372 953 1747 
Q 834 1116 1028 756 
Q 1203 434 1556 434 
z
" transform="scale(0.015625)"/>
       <path id="DejaVuSans-20" transform="scale(0.015625)"/>
       <path id="DejaVuSans-28" d="M 1984 4856 
Q 1566 4138 1362 3434 
Q 1159 2731 1159 2009 
Q 1159 1288 1364 580 
Q 1569 -128 1984 -844 
L 1484 -844 
Q 1016 -109 783 600 
Q 550 1309 550 2009 
Q 550 2706 781 3412 
Q 1013 4119 1484 4856 
L 1984 4856 
z
" transform="scale(0.015625)"/>
       <path id="DejaVuSans-72" d="M 2631 2963 
Q 2534 3019 2420 3045 
Q 2306 3072 2169 3072 
Q 1681 3072 1420 2755 
Q 1159 2438 1159 1844 
L 1159 0 
L 581 0 
L 581 3500 
L 1159 3500 
L 1159 2956 
Q 1341 3275 1631 3429 
Q 1922 3584 2338 3584 
Q 2397 3584 2469 3576 
Q 2541 3569 2628 3553 
L 2631 2963 
z
" transform="scale(0.015625)"/>
       <path id="DejaVuSans-61" d="M 2194 1759 
Q 1497 1759 1228 1600 
Q 959 1441 959 1056 
Q 959 750 1161 570 
Q 1363 391 1709 391 
Q 2188 391 2477 730 
Q 2766 1069 2766 1631 
L 2766 1759 
L 2194 1759 
z
M 3341 1997 
L 3341 0 
L 2766 0 
L 2766 531 
Q 2569 213 2275 61 
Q 1981 -91 1556 -91 
Q 1019 -91 701 211 
Q 384 513 384 1019 
Q 384 1609 779 1909 
Q 1175 2209 1959 2209 
L 2766 2209 
L 2766 2266 
Q 2766 2663 2505 2880 
Q 2244 3097 1772 3097 
Q 1472 3097 1187 3025 
Q 903 2953 641 2809 
L 641 3341 
Q 956 3463 1253 3523 
Q 1550 3584 1831 3584 
Q 2591 3584 2966 3190 
Q 3341 2797 3341 1997 
z
" transform="scale(0.015625)"/>
       <path id="DejaVuSans-64" d="M 2906 2969 
L 2906 4863 
L 3481 4863 
L 3481 0 
L 2906 0 
L 2906 525 
Q 2725 213 2448 61 
Q 2172 -91 1784 -91 
Q 1150 -91 751 415 
Q 353 922 353 1747 
Q 353 2572 751 3078 
Q 1150 3584 1784 3584 
Q 2172 3584 2448 3432 
Q 2725 3281 2906 2969 
z
M 947 1747 
Q 947 1113 1208 752 
Q 1469 391 1925 391 
Q 2381 391 2643 752 
Q 2906 1113 2906 1747 
Q 2906 2381 2643 2742 
Q 2381 3103 1925 3103 
Q 1469 3103 1208 2742 
Q 947 2381 947 1747 
z
" transform="scale(0.015625)"/>
       <path id="DejaVuSans-29" d="M 513 4856 
L 1013 4856 
Q 1481 4119 1714 3412 
Q 1947 2706 1947 2009 
Q 1947 1309 1714 600 
Q 1481 -109 1013 -844 
L 513 -844 
Q 928 -128 1133 580 
Q 1338 1288 1338 2009 
Q 1338 2731 1133 3434 
Q 928 4138 513 4856 
z
" transform="scale(0.015625)"/>
      </defs>
      <use xlink:href="#DejaVuSans-Oblique-3d5" transform="translate(0 0.015625)"/>
      <use xlink:href="#DejaVuSans-20" transform="translate(65.966797 0.015625)"/>
      <use xlink:href="#DejaVuSans-28" transform="translate(97.753906 0.015625)"/>
      <use xlink:href="#DejaVuSans-72" transform="translate(136.767578 0.015625)"/>
      <use xlink:href="#DejaVuSans-61" transform="translate(177.880859 0.015625)"/>
      <use xlink:href="#DejaVuSans-64" transform="translate(239.160156 0.015625)"/>
      <use xlink:href="#DejaVuSans-29" transform="translate(302.636719 0.015625)"/>
     </g>
    </g>
   </g>
   <g id="matplotlib.axis_2">
    <g id="ytick_1">
     <g id="line2d_15">
      <path d="M 38.054688 279.010828 
L 395.174688 279.010828 
" clip-path="url(#p57e1be11ef)" style="fill: none; stroke: #b0b0b0; stroke-width: 0.8; stroke-linecap: square"/>
     </g>
     <g id="line2d_16">
      <defs>
       <path id="m6f3f5b6aff" d="M 0 0 
L -3.5 0 
" style="stroke: #000000; stroke-width: 0.8"/>
      </defs>
      <g>
       <use xlink:href="#m6f3f5b6aff" x="38.054688" y="279.010828" style="stroke: #000000; stroke-width: 0.8"/>
      </g>
     </g>
     <g id="text_9">
      <!-- 0.0 -->
      <g transform="translate(7.2 284.709656) scale(0.15 -0.15)">
       <defs>
        <path id="DejaVuSans-2e" d="M 684 794 
L 1344 794 
L 1344 0 
L 684 0 
L 684 794 
z
" transform="scale(0.015625)"/>
       </defs>
       <use xlink:href="#DejaVuSans-30"/>
       <use xlink:href="#DejaVuSans-2e" x="63.623047"/>
       <use xlink:href="#DejaVuSans-30" x="95.410156"/>
      </g>
     </g>
    </g>
    <g id="ytick_2">
     <g id="line2d_17">
      <path d="M 38.054688 225.788428 
L 395.174688 225.788428 
" clip-path="url(#p57e1be11ef)" style="fill: none; stroke: #b0b0b0; stroke-width: 0.8; stroke-linecap: square"/>
     </g>
     <g id="line2d_18">
      <g>
       <use xlink:href="#m6f3f5b6aff" x="38.054688" y="225.788428" style="stroke: #000000; stroke-width: 0.8"/>
      </g>
     </g>
     <g id="text_10">
      <!-- 0.2 -->
      <g transform="translate(7.2 231.487256) scale(0.15 -0.15)">
       <use xlink:href="#DejaVuSans-30"/>
       <use xlink:href="#DejaVuSans-2e" x="63.623047"/>
       <use xlink:href="#DejaVuSans-32" x="95.410156"/>
      </g>
     </g>
    </g>
    <g id="ytick_3">
     <g id="line2d_19">
      <path d="M 38.054688 172.566028 
L 395.174688 172.566028 
" clip-path="url(#p57e1be11ef)" style="fill: none; stroke: #b0b0b0; stroke-width: 0.8; stroke-linecap: square"/>
     </g>
     <g id="line2d_20">
      <g>
       <use xlink:href="#m6f3f5b6aff" x="38.054688" y="172.566028" style="stroke: #000000; stroke-width: 0.8"/>
      </g>
     </g>
     <g id="text_11">
      <!-- 0.4 -->
      <g transform="translate(7.2 178.264856) scale(0.15 -0.15)">
       <use xlink:href="#DejaVuSans-30"/>
       <use xlink:href="#DejaVuSans-2e" x="63.623047"/>
       <use xlink:href="#DejaVuSans-34" x="95.410156"/>
      </g>
     </g>
    </g>
    <g id="ytick_4">
     <g id="line2d_21">
      <path d="M 38.054688 119.343628 
L 395.174688 119.343628 
" clip-path="url(#p57e1be11ef)" style="fill: none; stroke: #b0b0b0; stroke-width: 0.8; stroke-linecap: square"/>
     </g>
     <g id="line2d_22">
      <g>
       <use xlink:href="#m6f3f5b6aff" x="38.054688" y="119.343628" style="stroke: #000000; stroke-width: 0.8"/>
      </g>
     </g>
     <g id="text_12">
      <!-- 0.6 -->
      <g transform="translate(7.2 125.042456) scale(0.15 -0.15)">
       <use xlink:href="#DejaVuSans-30"/>
       <use xlink:href="#DejaVuSans-2e" x="63.623047"/>
       <use xlink:href="#DejaVuSans-36" x="95.410156"/>
      </g>
     </g>
    </g>
    <g id="ytick_5">
     <g id="line2d_23">
      <path d="M 38.054688 66.121228 
L 395.174688 66.121228 
" clip-path="url(#p57e1be11ef)" style="fill: none; stroke: #b0b0b0; stroke-width: 0.8; stroke-linecap: square"/>
     </g>
     <g id="line2d_24">
      <g>
       <use xlink:href="#m6f3f5b6aff" x="38.054688" y="66.121228" style="stroke: #000000; stroke-width: 0.8"/>
      </g>
     </g>
     <g id="text_13">
      <!-- 0.8 -->
      <g transform="translate(7.2 71.820056) scale(0.15 -0.15)">
       <defs>
        <path id="DejaVuSans-38" d="M 2034 2216 
Q 1584 2216 1326 1975 
Q 1069 1734 1069 1313 
Q 1069 891 1326 650 
Q 1584 409 2034 409 
Q 2484 409 2743 651 
Q 3003 894 3003 1313 
Q 3003 1734 2745 1975 
Q 2488 2216 2034 2216 
z
M 1403 2484 
Q 997 2584 770 2862 
Q 544 3141 544 3541 
Q 544 4100 942 4425 
Q 1341 4750 2034 4750 
Q 2731 4750 3128 4425 
Q 3525 4100 3525 3541 
Q 3525 3141 3298 2862 
Q 3072 2584 2669 2484 
Q 3125 2378 3379 2068 
Q 3634 1759 3634 1313 
Q 3634 634 3220 271 
Q 2806 -91 2034 -91 
Q 1263 -91 848 271 
Q 434 634 434 1313 
Q 434 1759 690 2068 
Q 947 2378 1403 2484 
z
M 1172 3481 
Q 1172 3119 1398 2916 
Q 1625 2713 2034 2713 
Q 2441 2713 2670 2916 
Q 2900 3119 2900 3481 
Q 2900 3844 2670 4047 
Q 2441 4250 2034 4250 
Q 1625 4250 1398 4047 
Q 1172 3844 1172 3481 
z
" transform="scale(0.015625)"/>
       </defs>
       <use xlink:href="#DejaVuSans-30"/>
       <use xlink:href="#DejaVuSans-2e" x="63.623047"/>
       <use xlink:href="#DejaVuSans-38" x="95.410156"/>
      </g>
     </g>
    </g>
    <g id="ytick_6">
     <g id="line2d_25">
      <path d="M 38.054688 12.898828 
L 395.174688 12.898828 
" clip-path="url(#p57e1be11ef)" style="fill: none; stroke: #b0b0b0; stroke-width: 0.8; stroke-linecap: square"/>
     </g>
     <g id="line2d_26">
      <g>
       <use xlink:href="#m6f3f5b6aff" x="38.054688" y="12.898828" style="stroke: #000000; stroke-width: 0.8"/>
      </g>
     </g>
     <g id="text_14">
      <!-- 1.0 -->
      <g transform="translate(7.2 18.597656) scale(0.15 -0.15)">
       <use xlink:href="#DejaVuSans-31"/>
       <use xlink:href="#DejaVuSans-2e" x="63.623047"/>
       <use xlink:href="#DejaVuSans-30" x="95.410156"/>
      </g>
     </g>
    </g>
   </g>
   <g id="line2d_27">
    <path d="M 38.054688 212.314683 
L 43.004866 202.459861 
L 48.517564 190.978523 
L 54.930295 177.089868 
L 63.143091 158.736715 
L 85.568898 108.333734 
L 91.981629 94.637801 
L 97.494327 83.372584 
L 102.444506 73.749832 
L 106.982169 65.403634 
L 111.219822 58.067754 
L 115.194965 51.626076 
L 118.9451 45.968294 
L 122.470227 41.043636 
L 125.845348 36.703924 
L 129.070464 32.914518 
L 132.145575 29.638059 
L 135.108182 26.80146 
L 137.958284 24.376232 
L 140.695883 22.332868 
L 143.358479 20.619016 
L 145.946072 19.215495 
L 148.458662 18.102633 
L 150.933751 17.249337 
L 153.333838 16.653721 
L 155.733924 16.287436 
L 158.096509 16.151496 
L 160.459094 16.238646 
L 162.821679 16.548735 
L 165.221766 17.091468 
L 167.621852 17.862753 
L 170.05944 18.878609 
L 172.57203 20.168999 
L 175.159624 21.753397 
L 177.822219 23.65091 
L 180.559818 25.88009 
L 183.372419 28.458729 
L 186.297525 31.443827 
L 189.372635 34.906884 
L 192.56025 38.837459 
L 195.89787 43.311499 
L 199.385496 48.361943 
L 203.060628 54.078294 
L 206.960769 60.560985 
L 211.123418 67.919153 
L 215.586079 76.267244 
L 220.461255 85.87116 
L 225.861449 97.016223 
L 232.049172 110.315673 
L 239.736949 127.397798 
L 266.625417 187.63211 
L 272.663134 200.328076 
L 277.950824 210.9419 
L 282.750997 220.087763 
L 287.176156 228.048182 
L 291.301305 235.018258 
L 295.163944 241.117125 
L 298.839076 246.509593 
L 302.326702 251.236023 
L 305.626821 255.341398 
L 308.776934 258.914328 
L 311.814543 262.029288 
L 314.739649 264.713893 
L 317.55225 266.997083 
L 320.252347 268.908665 
L 322.877442 270.499754 
L 325.427534 271.789691 
L 327.902623 272.798219 
L 330.34021 273.555172 
L 332.740297 274.070008 
L 335.102882 274.352547 
L 337.465467 274.412108 
L 339.828052 274.248587 
L 342.190637 273.862266 
L 344.590724 273.24237 
L 347.028311 272.379288 
L 349.5034 271.263786 
L 352.015991 269.887078 
L 354.603584 268.214834 
L 357.26618 266.228229 
L 360.04128 263.875331 
L 362.891382 261.164684 
L 365.853989 258.038342 
L 368.966601 254.42394 
L 372.191717 250.333857 
L 375.566839 245.69167 
L 379.129467 240.407934 
L 382.879602 234.442897 
L 386.854745 227.696935 
L 391.092398 220.062575 
L 395.180045 212.304279 
L 395.180045 212.304279 
" clip-path="url(#p57e1be11ef)" style="fill: none; stroke: #1f77b4; stroke-width: 1.5; stroke-linecap: square"/>
   </g>
   <g id="LineCollection_1">
    <path d="M 38.054688 214.753741 
L 38.054688 207.42053 
" clip-path="url(#p57e1be11ef)" style="fill: none; stroke: #1f77b4; stroke-width: 1.5"/>
    <path d="M 55.910687 181.939075 
L 55.910687 173.773659 
" clip-path="url(#p57e1be11ef)" style="fill: none; stroke: #1f77b4; stroke-width: 1.5"/>
    <path d="M 73.766687 138.713376 
L 73.766687 130.333511 
" clip-path="url(#p57e1be11ef)" style="fill: none; stroke: #1f77b4; stroke-width: 1.5"/>
    <path d="M 91.622687 102.564476 
L 91.622687 94.703949 
" clip-path="url(#p57e1be11ef)" style="fill: none; stroke: #1f77b4; stroke-width: 1.5"/>
    <path d="M 109.478687 66.025582 
L 109.478687 59.464382 
" clip-path="url(#p57e1be11ef)" style="fill: none; stroke: #1f77b4; stroke-width: 1.5"/>
    <path d="M 127.334688 39.089528 
L 127.334688 34.294589 
" clip-path="url(#p57e1be11ef)" style="fill: none; stroke: #1f77b4; stroke-width: 1.5"/>
    <path d="M 145.190687 20.41341 
L 145.190687 17.879016 
" clip-path="url(#p57e1be11ef)" style="fill: none; stroke: #1f77b4; stroke-width: 1.5"/>
    <path d="M 163.046688 17.146882 
L 163.046688 15.296929 
" clip-path="url(#p57e1be11ef)" style="fill: none; stroke: #1f77b4; stroke-width: 1.5"/>
    <path d="M 180.902687 29.292171 
L 180.902687 25.482716 
" clip-path="url(#p57e1be11ef)" style="fill: none; stroke: #1f77b4; stroke-width: 1.5"/>
    <path d="M 198.758688 49.321321 
L 198.758688 43.735413 
" clip-path="url(#p57e1be11ef)" style="fill: none; stroke: #1f77b4; stroke-width: 1.5"/>
    <path d="M 216.614688 78.259131 
L 216.614688 71.156987 
" clip-path="url(#p57e1be11ef)" style="fill: none; stroke: #1f77b4; stroke-width: 1.5"/>
    <path d="M 234.470688 124.025915 
L 234.470688 115.777895 
" clip-path="url(#p57e1be11ef)" style="fill: none; stroke: #1f77b4; stroke-width: 1.5"/>
    <path d="M 252.326687 158.924089 
L 252.326687 150.531414 
" clip-path="url(#p57e1be11ef)" style="fill: none; stroke: #1f77b4; stroke-width: 1.5"/>
    <path d="M 270.182687 200.355954 
L 270.182687 192.575241 
" clip-path="url(#p57e1be11ef)" style="fill: none; stroke: #1f77b4; stroke-width: 1.5"/>
    <path d="M 288.038688 233.999248 
L 288.038688 227.520255 
" clip-path="url(#p57e1be11ef)" style="fill: none; stroke: #1f77b4; stroke-width: 1.5"/>
    <path d="M 305.894687 255.836807 
L 305.894687 250.876542 
" clip-path="url(#p57e1be11ef)" style="fill: none; stroke: #1f77b4; stroke-width: 1.5"/>
    <path d="M 323.750687 273.791097 
L 323.750687 271.204098 
" clip-path="url(#p57e1be11ef)" style="fill: none; stroke: #1f77b4; stroke-width: 1.5"/>
    <path d="M 341.606688 274.982235 
L 341.606688 272.671421 
" clip-path="url(#p57e1be11ef)" style="fill: none; stroke: #1f77b4; stroke-width: 1.5"/>
    <path d="M 359.462688 262.920913 
L 359.462688 258.679821 
" clip-path="url(#p57e1be11ef)" style="fill: none; stroke: #1f77b4; stroke-width: 1.5"/>
    <path d="M 377.318688 247.917833 
L 377.318688 242.313054 
" clip-path="url(#p57e1be11ef)" style="fill: none; stroke: #1f77b4; stroke-width: 1.5"/>
    <path d="M 395.174688 212.663948 
L 395.174688 205.256785 
" clip-path="url(#p57e1be11ef)" style="fill: none; stroke: #1f77b4; stroke-width: 1.5"/>
   </g>
   <g id="line2d_28">
    <path d="M 38.054688 211.992816 
L 42.967364 202.368786 
L 48.40506 191.212997 
L 54.667786 177.838506 
L 62.505568 160.545357 
L 87.931483 104.030521 
L 94.081705 91.14304 
L 99.444398 80.407292 
L 104.282072 71.20694 
L 108.744733 63.186993 
L 112.907382 56.155257 
L 116.807523 49.994646 
L 120.482655 44.594773 
L 123.970281 39.855084 
L 127.307901 35.686838 
L 130.495516 32.055005 
L 133.570626 28.885449 
L 136.495732 26.183573 
L 139.308333 23.880266 
L 142.045931 21.921252 
L 144.708527 20.287964 
L 147.29612 18.961171 
L 149.808711 17.921186 
L 152.2838 17.13797 
L 154.683886 16.608564 
L 157.083973 16.306653 
L 159.446558 16.232172 
L 161.809143 16.378783 
L 164.171728 16.746232 
L 166.571814 17.344982 
L 169.009402 18.18459 
L 171.484491 19.27424 
L 174.034583 20.644637 
L 176.622176 22.289376 
L 179.284772 24.24549 
L 182.059872 26.564316 
L 184.909975 29.237622 
L 187.872581 32.322724 
L 190.985193 35.891257 
L 194.210309 39.931213 
L 197.585431 44.518279 
L 201.148059 49.741092 
L 204.898194 55.639215 
L 208.873337 62.311453 
L 213.11099 69.864449 
L 217.686155 78.481436 
L 222.673834 88.358325 
L 228.261535 99.930136 
L 234.78677 113.976606 
L 243.262075 132.786899 
L 263.962821 178.94161 
L 270.563058 192.979262 
L 276.188261 204.431753 
L 281.213442 214.167433 
L 285.788606 222.557867 
L 290.06376 229.940555 
L 294.038904 236.371019 
L 297.789039 242.024922 
L 301.351667 247.002205 
L 304.726788 251.345401 
L 307.951904 255.14289 
L 311.064516 258.469414 
L 314.027123 261.317541 
L 316.877226 263.757379 
L 319.652326 265.844274 
L 322.314922 267.574101 
L 324.902515 268.995879 
L 327.452606 270.144062 
L 329.927696 271.016101 
L 332.365283 271.639938 
L 334.76537 272.025212 
L 337.127955 272.1819 
L 339.49054 272.1175 
L 341.853125 271.832123 
L 344.253211 271.316459 
L 346.690799 270.560788 
L 349.165888 269.555744 
L 351.678479 268.292394 
L 354.266072 266.737947 
L 356.928668 264.873417 
L 359.666266 262.680362 
L 362.516369 260.1053 
L 365.441474 257.159571 
L 368.516585 253.740437 
L 371.7042 249.858001 
L 375.04182 245.437047 
L 378.529445 240.44481 
L 382.204578 234.792583 
L 386.104718 228.380776 
L 390.267368 221.101112 
L 394.730029 212.839982 
L 395.180045 211.982584 
L 395.180045 211.982584 
" clip-path="url(#p57e1be11ef)" style="fill: none; stroke: #ff7f0e; stroke-width: 1.5; stroke-linecap: square"/>
   </g>
   <g id="LineCollection_2">
    <path d="M 38.054688 212.925259 
L 38.054688 205.527166 
" clip-path="url(#p57e1be11ef)" style="fill: none; stroke: #ff7f0e; stroke-width: 1.5"/>
    <path d="M 55.910687 183.785005 
L 55.910687 175.649574 
" clip-path="url(#p57e1be11ef)" style="fill: none; stroke: #ff7f0e; stroke-width: 1.5"/>
    <path d="M 73.766687 134.979706 
L 73.766687 126.623489 
" clip-path="url(#p57e1be11ef)" style="fill: none; stroke: #ff7f0e; stroke-width: 1.5"/>
    <path d="M 91.622687 104.178389 
L 91.622687 96.28019 
" clip-path="url(#p57e1be11ef)" style="fill: none; stroke: #ff7f0e; stroke-width: 1.5"/>
    <path d="M 109.478687 69.838455 
L 109.478687 63.095201 
" clip-path="url(#p57e1be11ef)" style="fill: none; stroke: #ff7f0e; stroke-width: 1.5"/>
    <path d="M 127.334688 42.141905 
L 127.334688 37.090828 
" clip-path="url(#p57e1be11ef)" style="fill: none; stroke: #ff7f0e; stroke-width: 1.5"/>
    <path d="M 145.190687 21.288155 
L 145.190687 18.599347 
" clip-path="url(#p57e1be11ef)" style="fill: none; stroke: #ff7f0e; stroke-width: 1.5"/>
    <path d="M 163.046688 17.146882 
L 163.046688 15.296929 
" clip-path="url(#p57e1be11ef)" style="fill: none; stroke: #ff7f0e; stroke-width: 1.5"/>
    <path d="M 180.902687 25.31834 
L 180.902687 22.012855 
" clip-path="url(#p57e1be11ef)" style="fill: none; stroke: #ff7f0e; stroke-width: 1.5"/>
    <path d="M 198.758688 46.289302 
L 198.758688 40.918815 
" clip-path="url(#p57e1be11ef)" style="fill: none; stroke: #ff7f0e; stroke-width: 1.5"/>
    <path d="M 216.614688 83.406648 
L 216.614688 76.111624 
" clip-path="url(#p57e1be11ef)" style="fill: none; stroke: #ff7f0e; stroke-width: 1.5"/>
    <path d="M 234.470688 120.2788 
L 234.470688 112.081318 
" clip-path="url(#p57e1be11ef)" style="fill: none; stroke: #ff7f0e; stroke-width: 1.5"/>
    <path d="M 252.326687 155.208369 
L 252.326687 146.803442 
" clip-path="url(#p57e1be11ef)" style="fill: none; stroke: #ff7f0e; stroke-width: 1.5"/>
    <path d="M 270.182687 200.093549 
L 270.182687 192.305953 
" clip-path="url(#p57e1be11ef)" style="fill: none; stroke: #ff7f0e; stroke-width: 1.5"/>
    <path d="M 288.038688 236.586236 
L 288.038688 230.25019 
" clip-path="url(#p57e1be11ef)" style="fill: none; stroke: #ff7f0e; stroke-width: 1.5"/>
    <path d="M 305.894687 255.836807 
L 305.894687 250.876542 
" clip-path="url(#p57e1be11ef)" style="fill: none; stroke: #ff7f0e; stroke-width: 1.5"/>
    <path d="M 323.750687 268.662653 
L 323.750687 265.167003 
" clip-path="url(#p57e1be11ef)" style="fill: none; stroke: #ff7f0e; stroke-width: 1.5"/>
    <path d="M 341.606688 273.310309 
L 341.606688 270.621501 
" clip-path="url(#p57e1be11ef)" style="fill: none; stroke: #ff7f0e; stroke-width: 1.5"/>
    <path d="M 359.462688 263.172295 
L 359.462688 258.960131 
" clip-path="url(#p57e1be11ef)" style="fill: none; stroke: #ff7f0e; stroke-width: 1.5"/>
    <path d="M 377.318688 244.836627 
L 377.318688 239.013953 
" clip-path="url(#p57e1be11ef)" style="fill: none; stroke: #ff7f0e; stroke-width: 1.5"/>
    <path d="M 395.174688 214.231443 
L 395.174688 206.879444 
" clip-path="url(#p57e1be11ef)" style="fill: none; stroke: #ff7f0e; stroke-width: 1.5"/>
   </g>
   <g id="line2d_29">
    <defs>
     <path id="mcceb8b8273" d="M 0 3 
C 0.795609 3 1.55874 2.683901 2.12132 2.12132 
C 2.683901 1.55874 3 0.795609 3 0 
C 3 -0.795609 2.683901 -1.55874 2.12132 -2.12132 
C 1.55874 -2.683901 0.795609 -3 0 -3 
C -0.795609 -3 -1.55874 -2.683901 -2.12132 -2.12132 
C -2.683901 -1.55874 -3 -0.795609 -3 0 
C -3 0.795609 -2.683901 1.55874 -2.12132 2.12132 
C -1.55874 2.683901 -0.795609 3 0 3 
z
" style="stroke: #1f77b4"/>
    </defs>
    <g clip-path="url(#p57e1be11ef)">
     <use xlink:href="#mcceb8b8273" x="38.054688" y="211.087136" style="fill: #1f77b4; stroke: #1f77b4"/>
     <use xlink:href="#mcceb8b8273" x="55.910687" y="177.856367" style="fill: #1f77b4; stroke: #1f77b4"/>
     <use xlink:href="#mcceb8b8273" x="73.766687" y="134.523444" style="fill: #1f77b4; stroke: #1f77b4"/>
     <use xlink:href="#mcceb8b8273" x="91.622687" y="98.634213" style="fill: #1f77b4; stroke: #1f77b4"/>
     <use xlink:href="#mcceb8b8273" x="109.478687" y="62.744982" style="fill: #1f77b4; stroke: #1f77b4"/>
     <use xlink:href="#mcceb8b8273" x="127.334688" y="36.692059" style="fill: #1f77b4; stroke: #1f77b4"/>
     <use xlink:href="#mcceb8b8273" x="145.190687" y="19.146213" style="fill: #1f77b4; stroke: #1f77b4"/>
     <use xlink:href="#mcceb8b8273" x="163.046688" y="16.221905" style="fill: #1f77b4; stroke: #1f77b4"/>
     <use xlink:href="#mcceb8b8273" x="180.902687" y="27.387444" style="fill: #1f77b4; stroke: #1f77b4"/>
     <use xlink:href="#mcceb8b8273" x="198.758688" y="46.528367" style="fill: #1f77b4; stroke: #1f77b4"/>
     <use xlink:href="#mcceb8b8273" x="216.614688" y="74.708059" style="fill: #1f77b4; stroke: #1f77b4"/>
     <use xlink:href="#mcceb8b8273" x="234.470688" y="119.901905" style="fill: #1f77b4; stroke: #1f77b4"/>
     <use xlink:href="#mcceb8b8273" x="252.326687" y="154.727751" style="fill: #1f77b4; stroke: #1f77b4"/>
     <use xlink:href="#mcceb8b8273" x="270.182687" y="196.465597" style="fill: #1f77b4; stroke: #1f77b4"/>
     <use xlink:href="#mcceb8b8273" x="288.038688" y="230.759751" style="fill: #1f77b4; stroke: #1f77b4"/>
     <use xlink:href="#mcceb8b8273" x="305.894687" y="253.356674" style="fill: #1f77b4; stroke: #1f77b4"/>
     <use xlink:href="#mcceb8b8273" x="323.750687" y="272.497597" style="fill: #1f77b4; stroke: #1f77b4"/>
     <use xlink:href="#mcceb8b8273" x="341.606688" y="273.826828" style="fill: #1f77b4; stroke: #1f77b4"/>
     <use xlink:href="#mcceb8b8273" x="359.462688" y="260.800367" style="fill: #1f77b4; stroke: #1f77b4"/>
     <use xlink:href="#mcceb8b8273" x="377.318688" y="245.115444" style="fill: #1f77b4; stroke: #1f77b4"/>
     <use xlink:href="#mcceb8b8273" x="395.174688" y="208.960367" style="fill: #1f77b4; stroke: #1f77b4"/>
    </g>
   </g>
   <g id="line2d_30">
    <defs>
     <path id="mff6e4f8517" d="M 0 3 
C 0.795609 3 1.55874 2.683901 2.12132 2.12132 
C 2.683901 1.55874 3 0.795609 3 0 
C 3 -0.795609 2.683901 -1.55874 2.12132 -2.12132 
C 1.55874 -2.683901 0.795609 -3 0 -3 
C -0.795609 -3 -1.55874 -2.683901 -2.12132 -2.12132 
C -2.683901 -1.55874 -3 -0.795609 -3 0 
C -3 0.795609 -2.683901 1.55874 -2.12132 2.12132 
C -1.55874 2.683901 -0.795609 3 0 3 
z
" style="stroke: #ff7f0e"/>
    </defs>
    <g clip-path="url(#p57e1be11ef)">
     <use xlink:href="#mff6e4f8517" x="38.054688" y="209.226213" style="fill: #ff7f0e; stroke: #ff7f0e"/>
     <use xlink:href="#mff6e4f8517" x="55.910687" y="179.71729" style="fill: #ff7f0e; stroke: #ff7f0e"/>
     <use xlink:href="#mff6e4f8517" x="73.766687" y="130.801597" style="fill: #ff7f0e; stroke: #ff7f0e"/>
     <use xlink:href="#mff6e4f8517" x="91.622687" y="100.22929" style="fill: #ff7f0e; stroke: #ff7f0e"/>
     <use xlink:href="#mff6e4f8517" x="109.478687" y="66.466828" style="fill: #ff7f0e; stroke: #ff7f0e"/>
     <use xlink:href="#mff6e4f8517" x="127.334688" y="39.616367" style="fill: #ff7f0e; stroke: #ff7f0e"/>
     <use xlink:href="#mff6e4f8517" x="145.190687" y="19.943751" style="fill: #ff7f0e; stroke: #ff7f0e"/>
     <use xlink:href="#mff6e4f8517" x="163.046688" y="16.221905" style="fill: #ff7f0e; stroke: #ff7f0e"/>
     <use xlink:href="#mff6e4f8517" x="180.902687" y="23.665597" style="fill: #ff7f0e; stroke: #ff7f0e"/>
     <use xlink:href="#mff6e4f8517" x="198.758688" y="43.604059" style="fill: #ff7f0e; stroke: #ff7f0e"/>
     <use xlink:href="#mff6e4f8517" x="216.614688" y="79.759136" style="fill: #ff7f0e; stroke: #ff7f0e"/>
     <use xlink:href="#mff6e4f8517" x="234.470688" y="116.180059" style="fill: #ff7f0e; stroke: #ff7f0e"/>
     <use xlink:href="#mff6e4f8517" x="252.326687" y="151.005905" style="fill: #ff7f0e; stroke: #ff7f0e"/>
     <use xlink:href="#mff6e4f8517" x="270.182687" y="196.199751" style="fill: #ff7f0e; stroke: #ff7f0e"/>
     <use xlink:href="#mff6e4f8517" x="288.038688" y="233.418213" style="fill: #ff7f0e; stroke: #ff7f0e"/>
     <use xlink:href="#mff6e4f8517" x="305.894687" y="253.356674" style="fill: #ff7f0e; stroke: #ff7f0e"/>
     <use xlink:href="#mff6e4f8517" x="323.750687" y="266.914828" style="fill: #ff7f0e; stroke: #ff7f0e"/>
     <use xlink:href="#mff6e4f8517" x="341.606688" y="271.965905" style="fill: #ff7f0e; stroke: #ff7f0e"/>
     <use xlink:href="#mff6e4f8517" x="359.462688" y="261.066213" style="fill: #ff7f0e; stroke: #ff7f0e"/>
     <use xlink:href="#mff6e4f8517" x="377.318688" y="241.92529" style="fill: #ff7f0e; stroke: #ff7f0e"/>
     <use xlink:href="#mff6e4f8517" x="395.174688" y="210.555444" style="fill: #ff7f0e; stroke: #ff7f0e"/>
    </g>
   </g>
   <g id="patch_3">
    <path d="M 38.054688 279.010828 
L 38.054688 12.898828 
" style="fill: none; stroke: #000000; stroke-width: 0.8; stroke-linejoin: miter; stroke-linecap: square"/>
   </g>
   <g id="patch_4">
    <path d="M 395.174688 279.010828 
L 395.174688 12.898828 
" style="fill: none; stroke: #000000; stroke-width: 0.8; stroke-linejoin: miter; stroke-linecap: square"/>
   </g>
   <g id="patch_5">
    <path d="M 38.054688 279.010828 
L 395.174688 279.010828 
" style="fill: none; stroke: #000000; stroke-width: 0.8; stroke-linejoin: miter; stroke-linecap: square"/>
   </g>
   <g id="patch_6">
    <path d="M 38.054688 12.898828 
L 395.174688 12.898828 
" style="fill: none; stroke: #000000; stroke-width: 0.8; stroke-linejoin: miter; stroke-linecap: square"/>
   </g>
   <g id="text_15">
    <!-- $E_{|0\rangle}=2.95(37) \%$ -->
    <g style="fill: #1f77b4" transform="translate(94.892101 220.466188) scale(0.15 -0.15)">
     <defs>
      <path id="DejaVuSans-Oblique-45" d="M 1081 4666 
L 4031 4666 
L 3928 4134 
L 1606 4134 
L 1338 2753 
L 3566 2753 
L 3463 2222 
L 1234 2222 
L 909 531 
L 3284 531 
L 3181 0 
L 172 0 
L 1081 4666 
z
" transform="scale(0.015625)"/>
      <path id="DejaVuSans-7c" d="M 1344 4891 
L 1344 -1509 
L 813 -1509 
L 813 4891 
L 1344 4891 
z
" transform="scale(0.015625)"/>
      <path id="DejaVuSans-27e9" d="M 1925 2006 
L 1044 -844 
L 513 -844 
L 1394 2006 
L 513 4856 
L 1044 4856 
L 1925 2006 
z
" transform="scale(0.015625)"/>
      <path id="DejaVuSans-3d" d="M 678 2906 
L 4684 2906 
L 4684 2381 
L 678 2381 
L 678 2906 
z
M 678 1631 
L 4684 1631 
L 4684 1100 
L 678 1100 
L 678 1631 
z
" transform="scale(0.015625)"/>
      <path id="DejaVuSans-39" d="M 703 97 
L 703 672 
Q 941 559 1184 500 
Q 1428 441 1663 441 
Q 2288 441 2617 861 
Q 2947 1281 2994 2138 
Q 2813 1869 2534 1725 
Q 2256 1581 1919 1581 
Q 1219 1581 811 2004 
Q 403 2428 403 3163 
Q 403 3881 828 4315 
Q 1253 4750 1959 4750 
Q 2769 4750 3195 4129 
Q 3622 3509 3622 2328 
Q 3622 1225 3098 567 
Q 2575 -91 1691 -91 
Q 1453 -91 1209 -44 
Q 966 3 703 97 
z
M 1959 2075 
Q 2384 2075 2632 2365 
Q 2881 2656 2881 3163 
Q 2881 3666 2632 3958 
Q 2384 4250 1959 4250 
Q 1534 4250 1286 3958 
Q 1038 3666 1038 3163 
Q 1038 2656 1286 2365 
Q 1534 2075 1959 2075 
z
" transform="scale(0.015625)"/>
      <path id="DejaVuSans-37" d="M 525 4666 
L 3525 4666 
L 3525 4397 
L 1831 0 
L 1172 0 
L 2766 4134 
L 525 4134 
L 525 4666 
z
" transform="scale(0.015625)"/>
      <path id="DejaVuSans-25" d="M 4653 2053 
Q 4381 2053 4226 1822 
Q 4072 1591 4072 1178 
Q 4072 772 4226 539 
Q 4381 306 4653 306 
Q 4919 306 5073 539 
Q 5228 772 5228 1178 
Q 5228 1588 5073 1820 
Q 4919 2053 4653 2053 
z
M 4653 2450 
Q 5147 2450 5437 2106 
Q 5728 1763 5728 1178 
Q 5728 594 5436 251 
Q 5144 -91 4653 -91 
Q 4153 -91 3862 251 
Q 3572 594 3572 1178 
Q 3572 1766 3864 2108 
Q 4156 2450 4653 2450 
z
M 1428 4353 
Q 1159 4353 1004 4120 
Q 850 3888 850 3481 
Q 850 3069 1003 2837 
Q 1156 2606 1428 2606 
Q 1700 2606 1854 2837 
Q 2009 3069 2009 3481 
Q 2009 3884 1853 4118 
Q 1697 4353 1428 4353 
z
M 4250 4750 
L 4750 4750 
L 1831 -91 
L 1331 -91 
L 4250 4750 
z
M 1428 4750 
Q 1922 4750 2215 4408 
Q 2509 4066 2509 3481 
Q 2509 2891 2217 2550 
Q 1925 2209 1428 2209 
Q 931 2209 642 2551 
Q 353 2894 353 3481 
Q 353 4063 643 4406 
Q 934 4750 1428 4750 
z
" transform="scale(0.015625)"/>
     </defs>
     <use xlink:href="#DejaVuSans-Oblique-45" transform="translate(0 0.125)"/>
     <use xlink:href="#DejaVuSans-7c" transform="translate(63.183594 -16.28125) scale(0.7)"/>
     <use xlink:href="#DejaVuSans-30" transform="translate(86.767578 -16.28125) scale(0.7)"/>
     <use xlink:href="#DejaVuSans-27e9" transform="translate(131.303711 -16.28125) scale(0.7)"/>
     <use xlink:href="#DejaVuSans-3d" transform="translate(180.830078 0.125)"/>
     <use xlink:href="#DejaVuSans-32" transform="translate(284.101562 0.125)"/>
     <use xlink:href="#DejaVuSans-2e" transform="translate(347.724609 0.125)"/>
     <use xlink:href="#DejaVuSans-39" transform="translate(379.511719 0.125)"/>
     <use xlink:href="#DejaVuSans-35" transform="translate(443.134766 0.125)"/>
     <use xlink:href="#DejaVuSans-28" transform="translate(506.757812 0.125)"/>
     <use xlink:href="#DejaVuSans-33" transform="translate(545.771484 0.125)"/>
     <use xlink:href="#DejaVuSans-37" transform="translate(609.394531 0.125)"/>
     <use xlink:href="#DejaVuSans-29" transform="translate(673.017578 0.125)"/>
     <use xlink:href="#DejaVuSans-25" transform="translate(712.03125 0.125)"/>
    </g>
   </g>
   <g id="text_16">
    <!-- $E_{|1\rangle}=3.82(40) \%$ -->
    <g style="fill: #ff7f0e" transform="translate(94.892101 247.077388) scale(0.15 -0.15)">
     <use xlink:href="#DejaVuSans-Oblique-45" transform="translate(0 0.125)"/>
     <use xlink:href="#DejaVuSans-7c" transform="translate(63.183594 -16.28125) scale(0.7)"/>
     <use xlink:href="#DejaVuSans-31" transform="translate(86.767578 -16.28125) scale(0.7)"/>
     <use xlink:href="#DejaVuSans-27e9" transform="translate(131.303711 -16.28125) scale(0.7)"/>
     <use xlink:href="#DejaVuSans-3d" transform="translate(180.830078 0.125)"/>
     <use xlink:href="#DejaVuSans-33" transform="translate(284.101562 0.125)"/>
     <use xlink:href="#DejaVuSans-2e" transform="translate(347.724609 0.125)"/>
     <use xlink:href="#DejaVuSans-38" transform="translate(376.886719 0.125)"/>
     <use xlink:href="#DejaVuSans-32" transform="translate(440.509766 0.125)"/>
     <use xlink:href="#DejaVuSans-28" transform="translate(504.132812 0.125)"/>
     <use xlink:href="#DejaVuSans-34" transform="translate(543.146484 0.125)"/>
     <use xlink:href="#DejaVuSans-30" transform="translate(606.769531 0.125)"/>
     <use xlink:href="#DejaVuSans-29" transform="translate(670.392578 0.125)"/>
     <use xlink:href="#DejaVuSans-25" transform="translate(709.40625 0.125)"/>
    </g>
   </g>
   <g id="legend_1">
    <g id="patch_7">
     <path d="M 316.124687 70.198828 
L 384.674688 70.198828 
Q 387.674688 70.198828 387.674688 67.198828 
L 387.674688 23.398828 
Q 387.674688 20.398828 384.674688 20.398828 
L 316.124687 20.398828 
Q 313.124687 20.398828 313.124687 23.398828 
L 313.124687 67.198828 
Q 313.124687 70.198828 316.124687 70.198828 
z
" style="fill: #ffffff; opacity: 0.8; stroke: #cccccc; stroke-linejoin: miter"/>
    </g>
    <g id="LineCollection_3">
     <path d="M 334.124687 40.198828 
L 334.124687 25.198828 
" style="fill: none; stroke: #1f77b4; stroke-width: 1.5"/>
    </g>
    <g id="line2d_31"/>
    <g id="line2d_32">
     <g>
      <use xlink:href="#mcceb8b8273" x="334.124687" y="32.698828" style="fill: #1f77b4; stroke: #1f77b4"/>
     </g>
    </g>
    <g id="text_17">
     <!-- $|0\rangle$ -->
     <g transform="translate(361.124687 37.948828) scale(0.15 -0.15)">
      <use xlink:href="#DejaVuSans-7c" transform="translate(0 0.578125)"/>
      <use xlink:href="#DejaVuSans-30" transform="translate(33.691406 0.578125)"/>
      <use xlink:href="#DejaVuSans-27e9" transform="translate(97.314453 0.578125)"/>
     </g>
    </g>
    <g id="LineCollection_4">
     <path d="M 334.124687 62.848828 
L 334.124687 47.848828 
" style="fill: none; stroke: #ff7f0e; stroke-width: 1.5"/>
    </g>
    <g id="line2d_33"/>
    <g id="line2d_34">
     <g>
      <use xlink:href="#mff6e4f8517" x="334.124687" y="55.348828" style="fill: #ff7f0e; stroke: #ff7f0e"/>
     </g>
    </g>
    <g id="text_18">
     <!-- $|1\rangle$ -->
     <g transform="translate(361.124687 60.598828) scale(0.15 -0.15)">
      <use xlink:href="#DejaVuSans-7c" transform="translate(0 0.578125)"/>
      <use xlink:href="#DejaVuSans-31" transform="translate(33.691406 0.578125)"/>
      <use xlink:href="#DejaVuSans-27e9" transform="translate(97.314453 0.578125)"/>
     </g>
    </g>
   </g>
  </g>
 </g>
 <defs>
  <clipPath id="p57e1be11ef">
   <rect x="38.054688" y="12.898828" width="357.12" height="266.112"/>
  </clipPath>
 </defs>
</svg>
