<?xml version="1.0" encoding="utf-8" standalone="no"?>
<!DOCTYPE svg PUBLIC "-//W3C//DTD SVG 1.1//EN"
  "http://www.w3.org/Graphics/SVG/1.1/DTD/svg11.dtd">
<svg xmlns:xlink="http://www.w3.org/1999/xlink" width="425.730937pt" height="325.385437pt" viewBox="0 0 425.730937 325.385437" xmlns="http://www.w3.org/2000/svg" version="1.1">
 <defs>
  <style type="text/css">*{stroke-linejoin: round; stroke-linecap: butt}</style>
 </defs>
 <g id="figure_1">
  <g id="patch_1">
   <path d="M 0 325.385437 
L 425.730937 325.385437 
L 425.730937 0 
L 0 0 
L 0 325.385437 
z
" style="fill: none"/>
  </g>
  <g id="axes_1">
   <g id="patch_2">
    <path d="M 61.410938 273.312 
L 418.530938 273.312 
L 418.530938 7.2 
L 61.410938 7.2 
L 61.410938 273.312 
z
" style="fill: none"/>
   </g>
   <g id="matplotlib.axis_1">
    <g id="xtick_1">
     <g id="line2d_1">
      <path d="M 61.410938 273.312 
L 61.410938 7.2 
" clip-path="url(#pc426f9fa9e)" style="fill: none; stroke: #b0b0b0; stroke-width: 0.8; stroke-linecap: square"/>
     </g>
     <g id="line2d_2">
      <defs>
       <path id="md39032bed2" d="M 0 0 
L 0 3.5 
" style="stroke: #000000; stroke-width: 0.8"/>
      </defs>
      <g>
       <use xlink:href="#md39032bed2" x="61.410938" y="273.312" style="stroke: #000000; stroke-width: 0.8"/>
      </g>
     </g>
     <g id="text_1">
      <!-- 0 -->
      <g transform="translate(56.639063 291.709656) scale(0.15 -0.15)">
       <defs>
        <path id="DejaVuSans-30" d="M 2034 4250 
Q 1547 4250 1301 3770 
Q 1056 3291 1056 2328 
Q 1056 1369 1301 889 
Q 1547 409 2034 409 
Q 2525 409 2770 889 
Q 3016 1369 3016 2328 
Q 3016 3291 2770 3770 
Q 2525 4250 2034 4250 
z
M 2034 4750 
Q 2819 4750 3233 4129 
Q 3647 3509 3647 2328 
Q 3647 1150 3233 529 
Q 2819 -91 2034 -91 
Q 1250 -91 836 529 
Q 422 1150 422 2328 
Q 422 3509 836 4129 
Q 1250 4750 2034 4750 
z
" transform="scale(0.015625)"/>
       </defs>
       <use xlink:href="#DejaVuSans-30"/>
      </g>
     </g>
    </g>
    <g id="xtick_2">
     <g id="line2d_3">
      <path d="M 146.439509 273.312 
L 146.439509 7.2 
" clip-path="url(#pc426f9fa9e)" style="fill: none; stroke: #b0b0b0; stroke-width: 0.8; stroke-linecap: square"/>
     </g>
     <g id="line2d_4">
      <g>
       <use xlink:href="#md39032bed2" x="146.439509" y="273.312" style="stroke: #000000; stroke-width: 0.8"/>
      </g>
     </g>
     <g id="text_2">
      <!-- 5 -->
      <g transform="translate(141.667634 291.709656) scale(0.15 -0.15)">
       <defs>
        <path id="DejaVuSans-35" d="M 691 4666 
L 3169 4666 
L 3169 4134 
L 1269 4134 
L 1269 2991 
Q 1406 3038 1543 3061 
Q 1681 3084 1819 3084 
Q 2600 3084 3056 2656 
Q 3513 2228 3513 1497 
Q 3513 744 3044 326 
Q 2575 -91 1722 -91 
Q 1428 -91 1123 -41 
Q 819 9 494 109 
L 494 744 
Q 775 591 1075 516 
Q 1375 441 1709 441 
Q 2250 441 2565 725 
Q 2881 1009 2881 1497 
Q 2881 1984 2565 2268 
Q 2250 2553 1709 2553 
Q 1456 2553 1204 2497 
Q 953 2441 691 2322 
L 691 4666 
z
" transform="scale(0.015625)"/>
       </defs>
       <use xlink:href="#DejaVuSans-35"/>
      </g>
     </g>
    </g>
    <g id="xtick_3">
     <g id="line2d_5">
      <path d="M 231.46808 273.312 
L 231.46808 7.2 
" clip-path="url(#pc426f9fa9e)" style="fill: none; stroke: #b0b0b0; stroke-width: 0.8; stroke-linecap: square"/>
     </g>
     <g id="line2d_6">
      <g>
       <use xlink:href="#md39032bed2" x="231.46808" y="273.312" style="stroke: #000000; stroke-width: 0.8"/>
      </g>
     </g>
     <g id="text_3">
      <!-- 10 -->
      <g transform="translate(221.92433 291.709656) scale(0.15 -0.15)">
       <defs>
        <path id="DejaVuSans-31" d="M 794 531 
L 1825 531 
L 1825 4091 
L 703 3866 
L 703 4441 
L 1819 4666 
L 2450 4666 
L 2450 531 
L 3481 531 
L 3481 0 
L 794 0 
L 794 531 
z
" transform="scale(0.015625)"/>
       </defs>
       <use xlink:href="#DejaVuSans-31"/>
       <use xlink:href="#DejaVuSans-30" x="63.623047"/>
      </g>
     </g>
    </g>
    <g id="xtick_4">
     <g id="line2d_7">
      <path d="M 316.496652 273.312 
L 316.496652 7.2 
" clip-path="url(#pc426f9fa9e)" style="fill: none; stroke: #b0b0b0; stroke-width: 0.8; stroke-linecap: square"/>
     </g>
     <g id="line2d_8">
      <g>
       <use xlink:href="#md39032bed2" x="316.496652" y="273.312" style="stroke: #000000; stroke-width: 0.8"/>
      </g>
     </g>
     <g id="text_4">
      <!-- 15 -->
      <g transform="translate(306.952902 291.709656) scale(0.15 -0.15)">
       <use xlink:href="#DejaVuSans-31"/>
       <use xlink:href="#DejaVuSans-35" x="63.623047"/>
      </g>
     </g>
    </g>
    <g id="xtick_5">
     <g id="line2d_9">
      <path d="M 401.525223 273.312 
L 401.525223 7.2 
" clip-path="url(#pc426f9fa9e)" style="fill: none; stroke: #b0b0b0; stroke-width: 0.8; stroke-linecap: square"/>
     </g>
     <g id="line2d_10">
      <g>
       <use xlink:href="#md39032bed2" x="401.525223" y="273.312" style="stroke: #000000; stroke-width: 0.8"/>
      </g>
     </g>
     <g id="text_5">
      <!-- 20 -->
      <g transform="translate(391.981473 291.709656) scale(0.15 -0.15)">
       <defs>
        <path id="DejaVuSans-32" d="M 1228 531 
L 3431 531 
L 3431 0 
L 469 0 
L 469 531 
Q 828 903 1448 1529 
Q 2069 2156 2228 2338 
Q 2531 2678 2651 2914 
Q 2772 3150 2772 3378 
Q 2772 3750 2511 3984 
Q 2250 4219 1831 4219 
Q 1534 4219 1204 4116 
Q 875 4013 500 3803 
L 500 4441 
Q 881 4594 1212 4672 
Q 1544 4750 1819 4750 
Q 2544 4750 2975 4387 
Q 3406 4025 3406 3419 
Q 3406 3131 3298 2873 
Q 3191 2616 2906 2266 
Q 2828 2175 2409 1742 
Q 1991 1309 1228 531 
z
" transform="scale(0.015625)"/>
       </defs>
       <use xlink:href="#DejaVuSans-32"/>
       <use xlink:href="#DejaVuSans-30" x="63.623047"/>
      </g>
     </g>
    </g>
    <g id="text_6">
     <!-- Detection time (ms) -->
     <g transform="translate(139.689688 314.026062) scale(0.2 -0.2)">
      <defs>
       <path id="DejaVuSans-44" d="M 1259 4147 
L 1259 519 
L 2022 519 
Q 2988 519 3436 956 
Q 3884 1394 3884 2338 
Q 3884 3275 3436 3711 
Q 2988 4147 2022 4147 
L 1259 4147 
z
M 628 4666 
L 1925 4666 
Q 3281 4666 3915 4102 
Q 4550 3538 4550 2338 
Q 4550 1131 3912 565 
Q 3275 0 1925 0 
L 628 0 
L 628 4666 
z
" transform="scale(0.015625)"/>
       <path id="DejaVuSans-65" d="M 3597 1894 
L 3597 1613 
L 953 1613 
Q 991 1019 1311 708 
Q 1631 397 2203 397 
Q 2534 397 2845 478 
Q 3156 559 3463 722 
L 3463 178 
Q 3153 47 2828 -22 
Q 2503 -91 2169 -91 
Q 1331 -91 842 396 
Q 353 884 353 1716 
Q 353 2575 817 3079 
Q 1281 3584 2069 3584 
Q 2775 3584 3186 3129 
Q 3597 2675 3597 1894 
z
M 3022 2063 
Q 3016 2534 2758 2815 
Q 2500 3097 2075 3097 
Q 1594 3097 1305 2825 
Q 1016 2553 972 2059 
L 3022 2063 
z
" transform="scale(0.015625)"/>
       <path id="DejaVuSans-74" d="M 1172 4494 
L 1172 3500 
L 2356 3500 
L 2356 3053 
L 1172 3053 
L 1172 1153 
Q 1172 725 1289 603 
Q 1406 481 1766 481 
L 2356 481 
L 2356 0 
L 1766 0 
Q 1100 0 847 248 
Q 594 497 594 1153 
L 594 3053 
L 172 3053 
L 172 3500 
L 594 3500 
L 594 4494 
L 1172 4494 
z
" transform="scale(0.015625)"/>
       <path id="DejaVuSans-63" d="M 3122 3366 
L 3122 2828 
Q 2878 2963 2633 3030 
Q 2388 3097 2138 3097 
Q 1578 3097 1268 2742 
Q 959 2388 959 1747 
Q 959 1106 1268 751 
Q 1578 397 2138 397 
Q 2388 397 2633 464 
Q 2878 531 3122 666 
L 3122 134 
Q 2881 22 2623 -34 
Q 2366 -91 2075 -91 
Q 1284 -91 818 406 
Q 353 903 353 1747 
Q 353 2603 823 3093 
Q 1294 3584 2113 3584 
Q 2378 3584 2631 3529 
Q 2884 3475 3122 3366 
z
" transform="scale(0.015625)"/>
       <path id="DejaVuSans-69" d="M 603 3500 
L 1178 3500 
L 1178 0 
L 603 0 
L 603 3500 
z
M 603 4863 
L 1178 4863 
L 1178 4134 
L 603 4134 
L 603 4863 
z
" transform="scale(0.015625)"/>
       <path id="DejaVuSans-6f" d="M 1959 3097 
Q 1497 3097 1228 2736 
Q 959 2375 959 1747 
Q 959 1119 1226 758 
Q 1494 397 1959 397 
Q 2419 397 2687 759 
Q 2956 1122 2956 1747 
Q 2956 2369 2687 2733 
Q 2419 3097 1959 3097 
z
M 1959 3584 
Q 2709 3584 3137 3096 
Q 3566 2609 3566 1747 
Q 3566 888 3137 398 
Q 2709 -91 1959 -91 
Q 1206 -91 779 398 
Q 353 888 353 1747 
Q 353 2609 779 3096 
Q 1206 3584 1959 3584 
z
" transform="scale(0.015625)"/>
       <path id="DejaVuSans-6e" d="M 3513 2113 
L 3513 0 
L 2938 0 
L 2938 2094 
Q 2938 2591 2744 2837 
Q 2550 3084 2163 3084 
Q 1697 3084 1428 2787 
Q 1159 2491 1159 1978 
L 1159 0 
L 581 0 
L 581 3500 
L 1159 3500 
L 1159 2956 
Q 1366 3272 1645 3428 
Q 1925 3584 2291 3584 
Q 2894 3584 3203 3211 
Q 3513 2838 3513 2113 
z
" transform="scale(0.015625)"/>
       <path id="DejaVuSans-20" transform="scale(0.015625)"/>
       <path id="DejaVuSans-6d" d="M 3328 2828 
Q 3544 3216 3844 3400 
Q 4144 3584 4550 3584 
Q 5097 3584 5394 3201 
Q 5691 2819 5691 2113 
L 5691 0 
L 5113 0 
L 5113 2094 
Q 5113 2597 4934 2840 
Q 4756 3084 4391 3084 
Q 3944 3084 3684 2787 
Q 3425 2491 3425 1978 
L 3425 0 
L 2847 0 
L 2847 2094 
Q 2847 2600 2669 2842 
Q 2491 3084 2119 3084 
Q 1678 3084 1418 2786 
Q 1159 2488 1159 1978 
L 1159 0 
L 581 0 
L 581 3500 
L 1159 3500 
L 1159 2956 
Q 1356 3278 1631 3431 
Q 1906 3584 2284 3584 
Q 2666 3584 2933 3390 
Q 3200 3197 3328 2828 
z
" transform="scale(0.015625)"/>
       <path id="DejaVuSans-28" d="M 1984 4856 
Q 1566 4138 1362 3434 
Q 1159 2731 1159 2009 
Q 1159 1288 1364 580 
Q 1569 -128 1984 -844 
L 1484 -844 
Q 1016 -109 783 600 
Q 550 1309 550 2009 
Q 550 2706 781 3412 
Q 1013 4119 1484 4856 
L 1984 4856 
z
" transform="scale(0.015625)"/>
       <path id="DejaVuSans-73" d="M 2834 3397 
L 2834 2853 
Q 2591 2978 2328 3040 
Q 2066 3103 1784 3103 
Q 1356 3103 1142 2972 
Q 928 2841 928 2578 
Q 928 2378 1081 2264 
Q 1234 2150 1697 2047 
L 1894 2003 
Q 2506 1872 2764 1633 
Q 3022 1394 3022 966 
Q 3022 478 2636 193 
Q 2250 -91 1575 -91 
Q 1294 -91 989 -36 
Q 684 19 347 128 
L 347 722 
Q 666 556 975 473 
Q 1284 391 1588 391 
Q 1994 391 2212 530 
Q 2431 669 2431 922 
Q 2431 1156 2273 1281 
Q 2116 1406 1581 1522 
L 1381 1569 
Q 847 1681 609 1914 
Q 372 2147 372 2553 
Q 372 3047 722 3315 
Q 1072 3584 1716 3584 
Q 2034 3584 2315 3537 
Q 2597 3491 2834 3397 
z
" transform="scale(0.015625)"/>
       <path id="DejaVuSans-29" d="M 513 4856 
L 1013 4856 
Q 1481 4119 1714 3412 
Q 1947 2706 1947 2009 
Q 1947 1309 1714 600 
Q 1481 -109 1013 -844 
L 513 -844 
Q 928 -128 1133 580 
Q 1338 1288 1338 2009 
Q 1338 2731 1133 3434 
Q 928 4138 513 4856 
z
" transform="scale(0.015625)"/>
      </defs>
      <use xlink:href="#DejaVuSans-44"/>
      <use xlink:href="#DejaVuSans-65" x="77.001953"/>
      <use xlink:href="#DejaVuSans-74" x="138.525391"/>
      <use xlink:href="#DejaVuSans-65" x="177.734375"/>
      <use xlink:href="#DejaVuSans-63" x="239.257812"/>
      <use xlink:href="#DejaVuSans-74" x="294.238281"/>
      <use xlink:href="#DejaVuSans-69" x="333.447266"/>
      <use xlink:href="#DejaVuSans-6f" x="361.230469"/>
      <use xlink:href="#DejaVuSans-6e" x="422.412109"/>
      <use xlink:href="#DejaVuSans-20" x="485.791016"/>
      <use xlink:href="#DejaVuSans-74" x="517.578125"/>
      <use xlink:href="#DejaVuSans-69" x="556.787109"/>
      <use xlink:href="#DejaVuSans-6d" x="584.570312"/>
      <use xlink:href="#DejaVuSans-65" x="681.982422"/>
      <use xlink:href="#DejaVuSans-20" x="743.505859"/>
      <use xlink:href="#DejaVuSans-28" x="775.292969"/>
      <use xlink:href="#DejaVuSans-6d" x="814.306641"/>
      <use xlink:href="#DejaVuSans-73" x="911.71875"/>
      <use xlink:href="#DejaVuSans-29" x="963.818359"/>
     </g>
    </g>
   </g>
   <g id="matplotlib.axis_2">
    <g id="ytick_1">
     <g id="line2d_11">
      <path d="M 61.410938 273.312 
L 418.530938 273.312 
" clip-path="url(#pc426f9fa9e)" style="fill: none; stroke: #b0b0b0; stroke-width: 0.8; stroke-linecap: square"/>
     </g>
     <g id="line2d_12">
      <defs>
       <path id="m6f3f5b6aff" d="M 0 0 
L -3.5 0 
" style="stroke: #000000; stroke-width: 0.8"/>
      </defs>
      <g>
       <use xlink:href="#m6f3f5b6aff" x="61.410938" y="273.312" style="stroke: #000000; stroke-width: 0.8"/>
      </g>
     </g>
     <g id="text_7">
      <!-- 0.0 -->
      <g transform="translate(30.55625 279.010828) scale(0.15 -0.15)">
       <defs>
        <path id="DejaVuSans-2e" d="M 684 794 
L 1344 794 
L 1344 0 
L 684 0 
L 684 794 
z
" transform="scale(0.015625)"/>
       </defs>
       <use xlink:href="#DejaVuSans-30"/>
       <use xlink:href="#DejaVuSans-2e" x="63.623047"/>
       <use xlink:href="#DejaVuSans-30" x="95.410156"/>
      </g>
     </g>
    </g>
    <g id="ytick_2">
     <g id="line2d_13">
      <path d="M 61.410938 214.176 
L 418.530938 214.176 
" clip-path="url(#pc426f9fa9e)" style="fill: none; stroke: #b0b0b0; stroke-width: 0.8; stroke-linecap: square"/>
     </g>
     <g id="line2d_14">
      <g>
       <use xlink:href="#m6f3f5b6aff" x="61.410938" y="214.176" style="stroke: #000000; stroke-width: 0.8"/>
      </g>
     </g>
     <g id="text_8">
      <!-- 0.2 -->
      <g transform="translate(30.55625 219.874828) scale(0.15 -0.15)">
       <use xlink:href="#DejaVuSans-30"/>
       <use xlink:href="#DejaVuSans-2e" x="63.623047"/>
       <use xlink:href="#DejaVuSans-32" x="95.410156"/>
      </g>
     </g>
    </g>
    <g id="ytick_3">
     <g id="line2d_15">
      <path d="M 61.410938 155.04 
L 418.530938 155.04 
" clip-path="url(#pc426f9fa9e)" style="fill: none; stroke: #b0b0b0; stroke-width: 0.8; stroke-linecap: square"/>
     </g>
     <g id="line2d_16">
      <g>
       <use xlink:href="#m6f3f5b6aff" x="61.410938" y="155.04" style="stroke: #000000; stroke-width: 0.8"/>
      </g>
     </g>
     <g id="text_9">
      <!-- 0.4 -->
      <g transform="translate(30.55625 160.738828) scale(0.15 -0.15)">
       <defs>
        <path id="DejaVuSans-34" d="M 2419 4116 
L 825 1625 
L 2419 1625 
L 2419 4116 
z
M 2253 4666 
L 3047 4666 
L 3047 1625 
L 3713 1625 
L 3713 1100 
L 3047 1100 
L 3047 0 
L 2419 0 
L 2419 1100 
L 313 1100 
L 313 1709 
L 2253 4666 
z
" transform="scale(0.015625)"/>
       </defs>
       <use xlink:href="#DejaVuSans-30"/>
       <use xlink:href="#DejaVuSans-2e" x="63.623047"/>
       <use xlink:href="#DejaVuSans-34" x="95.410156"/>
      </g>
     </g>
    </g>
    <g id="ytick_4">
     <g id="line2d_17">
      <path d="M 61.410938 95.904 
L 418.530938 95.904 
" clip-path="url(#pc426f9fa9e)" style="fill: none; stroke: #b0b0b0; stroke-width: 0.8; stroke-linecap: square"/>
     </g>
     <g id="line2d_18">
      <g>
       <use xlink:href="#m6f3f5b6aff" x="61.410938" y="95.904" style="stroke: #000000; stroke-width: 0.8"/>
      </g>
     </g>
     <g id="text_10">
      <!-- 0.6 -->
      <g transform="translate(30.55625 101.602828) scale(0.15 -0.15)">
       <defs>
        <path id="DejaVuSans-36" d="M 2113 2584 
Q 1688 2584 1439 2293 
Q 1191 2003 1191 1497 
Q 1191 994 1439 701 
Q 1688 409 2113 409 
Q 2538 409 2786 701 
Q 3034 994 3034 1497 
Q 3034 2003 2786 2293 
Q 2538 2584 2113 2584 
z
M 3366 4563 
L 3366 3988 
Q 3128 4100 2886 4159 
Q 2644 4219 2406 4219 
Q 1781 4219 1451 3797 
Q 1122 3375 1075 2522 
Q 1259 2794 1537 2939 
Q 1816 3084 2150 3084 
Q 2853 3084 3261 2657 
Q 3669 2231 3669 1497 
Q 3669 778 3244 343 
Q 2819 -91 2113 -91 
Q 1303 -91 875 529 
Q 447 1150 447 2328 
Q 447 3434 972 4092 
Q 1497 4750 2381 4750 
Q 2619 4750 2861 4703 
Q 3103 4656 3366 4563 
z
" transform="scale(0.015625)"/>
       </defs>
       <use xlink:href="#DejaVuSans-30"/>
       <use xlink:href="#DejaVuSans-2e" x="63.623047"/>
       <use xlink:href="#DejaVuSans-36" x="95.410156"/>
      </g>
     </g>
    </g>
    <g id="ytick_5">
     <g id="line2d_19">
      <path d="M 61.410938 36.768 
L 418.530938 36.768 
" clip-path="url(#pc426f9fa9e)" style="fill: none; stroke: #b0b0b0; stroke-width: 0.8; stroke-linecap: square"/>
     </g>
     <g id="line2d_20">
      <g>
       <use xlink:href="#m6f3f5b6aff" x="61.410938" y="36.768" style="stroke: #000000; stroke-width: 0.8"/>
      </g>
     </g>
     <g id="text_11">
      <!-- 0.8 -->
      <g transform="translate(30.55625 42.466828) scale(0.15 -0.15)">
       <defs>
        <path id="DejaVuSans-38" d="M 2034 2216 
Q 1584 2216 1326 1975 
Q 1069 1734 1069 1313 
Q 1069 891 1326 650 
Q 1584 409 2034 409 
Q 2484 409 2743 651 
Q 3003 894 3003 1313 
Q 3003 1734 2745 1975 
Q 2488 2216 2034 2216 
z
M 1403 2484 
Q 997 2584 770 2862 
Q 544 3141 544 3541 
Q 544 4100 942 4425 
Q 1341 4750 2034 4750 
Q 2731 4750 3128 4425 
Q 3525 4100 3525 3541 
Q 3525 3141 3298 2862 
Q 3072 2584 2669 2484 
Q 3125 2378 3379 2068 
Q 3634 1759 3634 1313 
Q 3634 634 3220 271 
Q 2806 -91 2034 -91 
Q 1263 -91 848 271 
Q 434 634 434 1313 
Q 434 1759 690 2068 
Q 947 2378 1403 2484 
z
M 1172 3481 
Q 1172 3119 1398 2916 
Q 1625 2713 2034 2713 
Q 2441 2713 2670 2916 
Q 2900 3119 2900 3481 
Q 2900 3844 2670 4047 
Q 2441 4250 2034 4250 
Q 1625 4250 1398 4047 
Q 1172 3844 1172 3481 
z
" transform="scale(0.015625)"/>
       </defs>
       <use xlink:href="#DejaVuSans-30"/>
       <use xlink:href="#DejaVuSans-2e" x="63.623047"/>
       <use xlink:href="#DejaVuSans-38" x="95.410156"/>
      </g>
     </g>
    </g>
    <g id="text_12">
     <!-- Ramsey contrast -->
     <g transform="translate(22.396875 224.551312) rotate(-90) scale(0.2 -0.2)">
      <defs>
       <path id="DejaVuSans-52" d="M 2841 2188 
Q 3044 2119 3236 1894 
Q 3428 1669 3622 1275 
L 4263 0 
L 3584 0 
L 2988 1197 
Q 2756 1666 2539 1819 
Q 2322 1972 1947 1972 
L 1259 1972 
L 1259 0 
L 628 0 
L 628 4666 
L 2053 4666 
Q 2853 4666 3247 4331 
Q 3641 3997 3641 3322 
Q 3641 2881 3436 2590 
Q 3231 2300 2841 2188 
z
M 1259 4147 
L 1259 2491 
L 2053 2491 
Q 2509 2491 2742 2702 
Q 2975 2913 2975 3322 
Q 2975 3731 2742 3939 
Q 2509 4147 2053 4147 
L 1259 4147 
z
" transform="scale(0.015625)"/>
       <path id="DejaVuSans-61" d="M 2194 1759 
Q 1497 1759 1228 1600 
Q 959 1441 959 1056 
Q 959 750 1161 570 
Q 1363 391 1709 391 
Q 2188 391 2477 730 
Q 2766 1069 2766 1631 
L 2766 1759 
L 2194 1759 
z
M 3341 1997 
L 3341 0 
L 2766 0 
L 2766 531 
Q 2569 213 2275 61 
Q 1981 -91 1556 -91 
Q 1019 -91 701 211 
Q 384 513 384 1019 
Q 384 1609 779 1909 
Q 1175 2209 1959 2209 
L 2766 2209 
L 2766 2266 
Q 2766 2663 2505 2880 
Q 2244 3097 1772 3097 
Q 1472 3097 1187 3025 
Q 903 2953 641 2809 
L 641 3341 
Q 956 3463 1253 3523 
Q 1550 3584 1831 3584 
Q 2591 3584 2966 3190 
Q 3341 2797 3341 1997 
z
" transform="scale(0.015625)"/>
       <path id="DejaVuSans-79" d="M 2059 -325 
Q 1816 -950 1584 -1140 
Q 1353 -1331 966 -1331 
L 506 -1331 
L 506 -850 
L 844 -850 
Q 1081 -850 1212 -737 
Q 1344 -625 1503 -206 
L 1606 56 
L 191 3500 
L 800 3500 
L 1894 763 
L 2988 3500 
L 3597 3500 
L 2059 -325 
z
" transform="scale(0.015625)"/>
       <path id="DejaVuSans-72" d="M 2631 2963 
Q 2534 3019 2420 3045 
Q 2306 3072 2169 3072 
Q 1681 3072 1420 2755 
Q 1159 2438 1159 1844 
L 1159 0 
L 581 0 
L 581 3500 
L 1159 3500 
L 1159 2956 
Q 1341 3275 1631 3429 
Q 1922 3584 2338 3584 
Q 2397 3584 2469 3576 
Q 2541 3569 2628 3553 
L 2631 2963 
z
" transform="scale(0.015625)"/>
      </defs>
      <use xlink:href="#DejaVuSans-52"/>
      <use xlink:href="#DejaVuSans-61" x="67.232422"/>
      <use xlink:href="#DejaVuSans-6d" x="128.511719"/>
      <use xlink:href="#DejaVuSans-73" x="225.923828"/>
      <use xlink:href="#DejaVuSans-65" x="278.023438"/>
      <use xlink:href="#DejaVuSans-79" x="339.546875"/>
      <use xlink:href="#DejaVuSans-20" x="398.726562"/>
      <use xlink:href="#DejaVuSans-63" x="430.513672"/>
      <use xlink:href="#DejaVuSans-6f" x="485.494141"/>
      <use xlink:href="#DejaVuSans-6e" x="546.675781"/>
      <use xlink:href="#DejaVuSans-74" x="610.054688"/>
      <use xlink:href="#DejaVuSans-72" x="649.263672"/>
      <use xlink:href="#DejaVuSans-61" x="690.376953"/>
      <use xlink:href="#DejaVuSans-73" x="751.65625"/>
      <use xlink:href="#DejaVuSans-74" x="803.755859"/>
     </g>
    </g>
   </g>
   <g id="LineCollection_1">
    <path d="M 63.62168 19.917632 
L 63.62168 13.006935 
" clip-path="url(#pc426f9fa9e)" style="fill: none; stroke: #1f77b4; stroke-width: 1.5"/>
    <path d="M 66.512652 32.564184 
L 66.512652 25.238624 
" clip-path="url(#pc426f9fa9e)" style="fill: none; stroke: #1f77b4; stroke-width: 1.5"/>
    <path d="M 71.614366 30.091673 
L 71.614366 22.746818 
" clip-path="url(#pc426f9fa9e)" style="fill: none; stroke: #1f77b4; stroke-width: 1.5"/>
    <path d="M 81.817795 40.899728 
L 81.817795 32.856465 
" clip-path="url(#pc426f9fa9e)" style="fill: none; stroke: #1f77b4; stroke-width: 1.5"/>
    <path d="M 102.224652 69.219903 
L 102.224652 60.187397 
" clip-path="url(#pc426f9fa9e)" style="fill: none; stroke: #1f77b4; stroke-width: 1.5"/>
    <path d="M 143.038366 95.973186 
L 143.038366 86.335571 
" clip-path="url(#pc426f9fa9e)" style="fill: none; stroke: #1f77b4; stroke-width: 1.5"/>
    <path d="M 224.665795 199.825992 
L 224.665795 188.733387 
" clip-path="url(#pc426f9fa9e)" style="fill: none; stroke: #1f77b4; stroke-width: 1.5"/>
    <path d="M 306.293223 216.928807 
L 306.293223 205.41928 
" clip-path="url(#pc426f9fa9e)" style="fill: none; stroke: #1f77b4; stroke-width: 1.5"/>
    <path d="M 387.920652 248.270438 
L 387.920652 235.537109 
" clip-path="url(#pc426f9fa9e)" style="fill: none; stroke: #1f77b4; stroke-width: 1.5"/>
   </g>
   <g id="line2d_21">
    <path d="M 61.410938 10.504615 
L 68.033625 20.8429 
L 74.693729 30.829484 
L 81.391249 40.473842 
L 88.126185 49.785299 
L 94.935954 58.821667 
L 101.783139 67.539391 
L 108.705157 75.992291 
L 115.664591 84.140854 
L 122.698858 92.035134 
L 129.807958 99.678735 
L 136.954474 107.037746 
L 144.213238 114.193136 
L 151.546836 121.109638 
L 158.955266 127.791502 
L 166.475945 134.274631 
L 174.071456 140.529156 
L 181.779217 146.588552 
L 189.599226 152.453672 
L 197.531484 158.125715 
L 205.613408 163.631082 
L 213.807581 168.944334 
L 222.151418 174.090227 
L 230.644921 179.067914 
L 239.325506 183.897309 
L 248.193172 188.575348 
L 257.24792 193.099627 
L 266.489749 197.468376 
L 275.956077 201.696676 
L 285.646902 205.78118 
L 295.599641 209.733718 
L 305.814294 213.549844 
L 316.290862 217.226005 
L 327.06676 220.771423 
L 338.179405 224.193057 
L 349.666213 227.495862 
L 361.527185 230.673371 
L 373.799735 233.729356 
L 386.483865 236.657846 
L 399.654408 239.469575 
L 413.348778 242.164646 
L 418.549646 243.130993 
L 418.549646 243.130993 
" clip-path="url(#pc426f9fa9e)" style="fill: none; stroke: #1f77b4; stroke-width: 1.5; stroke-linecap: square"/>
   </g>
   <g id="LineCollection_2">
    <path d="M 63.62168 28.409778 
L 63.62168 20.883701 
" clip-path="url(#pc426f9fa9e)" style="fill: none; stroke: #ff7f0e; stroke-width: 1.5"/>
    <path d="M 66.512652 60.680382 
L 66.512652 51.845494 
" clip-path="url(#pc426f9fa9e)" style="fill: none; stroke: #ff7f0e; stroke-width: 1.5"/>
    <path d="M 71.614366 86.455024 
L 71.614366 76.895275 
" clip-path="url(#pc426f9fa9e)" style="fill: none; stroke: #ff7f0e; stroke-width: 1.5"/>
    <path d="M 81.817795 132.256978 
L 81.817795 121.705775 
" clip-path="url(#pc426f9fa9e)" style="fill: none; stroke: #ff7f0e; stroke-width: 1.5"/>
    <path d="M 102.224652 165.180193 
L 102.224652 154.410213 
" clip-path="url(#pc426f9fa9e)" style="fill: none; stroke: #ff7f0e; stroke-width: 1.5"/>
   </g>
   <g id="line2d_22">
    <path d="M 61.691532 26.991175 
L 64.94431 43.95539 
L 68.197087 59.751273 
L 71.449865 74.459287 
L 74.702643 88.154354 
L 77.955421 100.906237 
L 81.245587 112.911505 
L 84.535753 124.080801 
L 87.825919 134.472336 
L 91.116085 144.14027 
L 94.44364 153.233516 
L 97.771194 161.686629 
L 101.136136 169.629746 
L 104.501079 177.007642 
L 107.90341 183.933873 
L 111.305741 190.361968 
L 114.74546 196.390869 
L 118.222567 202.040064 
L 121.737063 207.328515 
L 125.288946 212.274641 
L 128.878219 216.896295 
L 132.542267 221.253471 
L 136.243704 225.313512 
L 140.019917 229.129447 
L 143.870907 232.70867 
L 147.834062 236.089642 
L 151.909381 239.272945 
L 156.096865 242.260507 
L 160.396514 245.055468 
L 164.845716 247.683073 
L 169.481859 250.161469 
L 174.304943 252.48578 
L 179.352357 254.668703 
L 184.6241 256.704749 
L 190.157562 258.603128 
L 196.027517 260.380315 
L 202.271355 262.035643 
L 208.926464 263.567395 
L 216.067619 264.980388 
L 223.769599 266.275597 
L 232.181956 267.461345 
L 241.416854 268.534268 
L 251.661234 269.495885 
L 263.139427 270.345349 
L 276.225315 271.085644 
L 291.442333 271.717521 
L 309.613023 272.241706 
L 332.083362 272.658232 
L 361.507915 272.969161 
L 403.868803 273.176634 
L 418.562386 273.213934 
L 418.562386 273.213934 
" clip-path="url(#pc426f9fa9e)" style="fill: none; stroke: #ff7f0e; stroke-width: 1.5; stroke-linecap: square"/>
   </g>
   <g id="line2d_23">
    <defs>
     <path id="mcceb8b8273" d="M 0 3 
C 0.795609 3 1.55874 2.683901 2.12132 2.12132 
C 2.683901 1.55874 3 0.795609 3 0 
C 3 -0.795609 2.683901 -1.55874 2.12132 -2.12132 
C 1.55874 -2.683901 0.795609 -3 0 -3 
C -0.795609 -3 -1.55874 -2.683901 -2.12132 -2.12132 
C -2.683901 -1.55874 -3 -0.795609 -3 0 
C -3 0.795609 -2.683901 1.55874 -2.12132 2.12132 
C -1.55874 2.683901 -0.795609 3 0 3 
z
" style="stroke: #1f77b4"/>
    </defs>
    <g clip-path="url(#pc426f9fa9e)">
     <use xlink:href="#mcceb8b8273" x="63.62168" y="16.462284" style="fill: #1f77b4; stroke: #1f77b4"/>
     <use xlink:href="#mcceb8b8273" x="66.512652" y="28.901404" style="fill: #1f77b4; stroke: #1f77b4"/>
     <use xlink:href="#mcceb8b8273" x="71.614366" y="26.419246" style="fill: #1f77b4; stroke: #1f77b4"/>
     <use xlink:href="#mcceb8b8273" x="81.817795" y="36.878097" style="fill: #1f77b4; stroke: #1f77b4"/>
     <use xlink:href="#mcceb8b8273" x="102.224652" y="64.70365" style="fill: #1f77b4; stroke: #1f77b4"/>
     <use xlink:href="#mcceb8b8273" x="143.038366" y="91.154378" style="fill: #1f77b4; stroke: #1f77b4"/>
     <use xlink:href="#mcceb8b8273" x="224.665795" y="194.279689" style="fill: #1f77b4; stroke: #1f77b4"/>
     <use xlink:href="#mcceb8b8273" x="306.293223" y="211.174043" style="fill: #1f77b4; stroke: #1f77b4"/>
     <use xlink:href="#mcceb8b8273" x="387.920652" y="241.903774" style="fill: #1f77b4; stroke: #1f77b4"/>
    </g>
   </g>
   <g id="line2d_24">
    <defs>
     <path id="mff6e4f8517" d="M 0 3 
C 0.795609 3 1.55874 2.683901 2.12132 2.12132 
C 2.683901 1.55874 3 0.795609 3 0 
C 3 -0.795609 2.683901 -1.55874 2.12132 -2.12132 
C 1.55874 -2.683901 0.795609 -3 0 -3 
C -0.795609 -3 -1.55874 -2.683901 -2.12132 -2.12132 
C -2.683901 -1.55874 -3 -0.795609 -3 0 
C -3 0.795609 -2.683901 1.55874 -2.12132 2.12132 
C -1.55874 2.683901 -0.795609 3 0 3 
z
" style="stroke: #ff7f0e"/>
    </defs>
    <g clip-path="url(#pc426f9fa9e)">
     <use xlink:href="#mff6e4f8517" x="63.62168" y="24.646739" style="fill: #ff7f0e; stroke: #ff7f0e"/>
     <use xlink:href="#mff6e4f8517" x="66.512652" y="56.262938" style="fill: #ff7f0e; stroke: #ff7f0e"/>
     <use xlink:href="#mff6e4f8517" x="71.614366" y="81.67515" style="fill: #ff7f0e; stroke: #ff7f0e"/>
     <use xlink:href="#mff6e4f8517" x="81.817795" y="126.981376" style="fill: #ff7f0e; stroke: #ff7f0e"/>
     <use xlink:href="#mff6e4f8517" x="102.224652" y="159.795203" style="fill: #ff7f0e; stroke: #ff7f0e"/>
    </g>
   </g>
   <g id="patch_3">
    <path d="M 61.410938 273.312 
L 61.410938 7.2 
" style="fill: none; stroke: #000000; stroke-width: 0.8; stroke-linejoin: miter; stroke-linecap: square"/>
   </g>
   <g id="patch_4">
    <path d="M 418.530938 273.312 
L 418.530938 7.2 
" style="fill: none; stroke: #000000; stroke-width: 0.8; stroke-linejoin: miter; stroke-linecap: square"/>
   </g>
   <g id="patch_5">
    <path d="M 61.410938 273.312 
L 418.530937 273.312 
" style="fill: none; stroke: #000000; stroke-width: 0.8; stroke-linejoin: miter; stroke-linecap: square"/>
   </g>
   <g id="patch_6">
    <path d="M 61.410938 7.2 
L 418.530937 7.2 
" style="fill: none; stroke: #000000; stroke-width: 0.8; stroke-linejoin: miter; stroke-linecap: square"/>
   </g>
   <g id="text_13">
    <!-- $\tau_{|0\rangle}=9.70(75)$ ms -->
    <g style="fill: #1f77b4" transform="translate(214.462366 160.9536) scale(0.21 -0.21)">
     <defs>
      <path id="DejaVuSans-Oblique-3c4" d="M 2103 638 
Q 2188 488 2525 488 
L 2800 488 
L 2706 0 
L 2363 0 
Q 1800 0 1600 300 
Q 1403 606 1534 1269 
L 1856 2925 
L 541 2925 
L 653 3500 
L 3881 3500 
L 3769 2925 
L 2444 2925 
L 2113 1234 
Q 2025 781 2103 638 
z
" transform="scale(0.015625)"/>
      <path id="DejaVuSans-7c" d="M 1344 4891 
L 1344 -1509 
L 813 -1509 
L 813 4891 
L 1344 4891 
z
" transform="scale(0.015625)"/>
      <path id="DejaVuSans-27e9" d="M 1925 2006 
L 1044 -844 
L 513 -844 
L 1394 2006 
L 513 4856 
L 1044 4856 
L 1925 2006 
z
" transform="scale(0.015625)"/>
      <path id="DejaVuSans-3d" d="M 678 2906 
L 4684 2906 
L 4684 2381 
L 678 2381 
L 678 2906 
z
M 678 1631 
L 4684 1631 
L 4684 1100 
L 678 1100 
L 678 1631 
z
" transform="scale(0.015625)"/>
      <path id="DejaVuSans-39" d="M 703 97 
L 703 672 
Q 941 559 1184 500 
Q 1428 441 1663 441 
Q 2288 441 2617 861 
Q 2947 1281 2994 2138 
Q 2813 1869 2534 1725 
Q 2256 1581 1919 1581 
Q 1219 1581 811 2004 
Q 403 2428 403 3163 
Q 403 3881 828 4315 
Q 1253 4750 1959 4750 
Q 2769 4750 3195 4129 
Q 3622 3509 3622 2328 
Q 3622 1225 3098 567 
Q 2575 -91 1691 -91 
Q 1453 -91 1209 -44 
Q 966 3 703 97 
z
M 1959 2075 
Q 2384 2075 2632 2365 
Q 2881 2656 2881 3163 
Q 2881 3666 2632 3958 
Q 2384 4250 1959 4250 
Q 1534 4250 1286 3958 
Q 1038 3666 1038 3163 
Q 1038 2656 1286 2365 
Q 1534 2075 1959 2075 
z
" transform="scale(0.015625)"/>
      <path id="DejaVuSans-37" d="M 525 4666 
L 3525 4666 
L 3525 4397 
L 1831 0 
L 1172 0 
L 2766 4134 
L 525 4134 
L 525 4666 
z
" transform="scale(0.015625)"/>
     </defs>
     <use xlink:href="#DejaVuSans-Oblique-3c4" transform="translate(0 0.125)"/>
     <use xlink:href="#DejaVuSans-7c" transform="translate(60.205078 -16.28125) scale(0.7)"/>
     <use xlink:href="#DejaVuSans-30" transform="translate(83.789062 -16.28125) scale(0.7)"/>
     <use xlink:href="#DejaVuSans-27e9" transform="translate(128.325195 -16.28125) scale(0.7)"/>
     <use xlink:href="#DejaVuSans-3d" transform="translate(177.851562 0.125)"/>
     <use xlink:href="#DejaVuSans-39" transform="translate(281.123047 0.125)"/>
     <use xlink:href="#DejaVuSans-2e" transform="translate(344.746094 0.125)"/>
     <use xlink:href="#DejaVuSans-37" transform="translate(368.783203 0.125)"/>
     <use xlink:href="#DejaVuSans-30" transform="translate(432.40625 0.125)"/>
     <use xlink:href="#DejaVuSans-28" transform="translate(496.029297 0.125)"/>
     <use xlink:href="#DejaVuSans-37" transform="translate(535.042969 0.125)"/>
     <use xlink:href="#DejaVuSans-35" transform="translate(598.666016 0.125)"/>
     <use xlink:href="#DejaVuSans-29" transform="translate(662.289062 0.125)"/>
     <use xlink:href="#DejaVuSans-20" transform="translate(701.302734 0.125)"/>
     <use xlink:href="#DejaVuSans-6d" transform="translate(733.089844 0.125)"/>
     <use xlink:href="#DejaVuSans-73" transform="translate(830.501953 0.125)"/>
    </g>
   </g>
   <g id="text_14">
    <!-- $\tau_{|1\rangle}=2.68(38)$ ms -->
    <g style="fill: #ff7f0e" transform="translate(171.94808 246.7008) scale(0.21 -0.21)">
     <defs>
      <path id="DejaVuSans-33" d="M 2597 2516 
Q 3050 2419 3304 2112 
Q 3559 1806 3559 1356 
Q 3559 666 3084 287 
Q 2609 -91 1734 -91 
Q 1441 -91 1130 -33 
Q 819 25 488 141 
L 488 750 
Q 750 597 1062 519 
Q 1375 441 1716 441 
Q 2309 441 2620 675 
Q 2931 909 2931 1356 
Q 2931 1769 2642 2001 
Q 2353 2234 1838 2234 
L 1294 2234 
L 1294 2753 
L 1863 2753 
Q 2328 2753 2575 2939 
Q 2822 3125 2822 3475 
Q 2822 3834 2567 4026 
Q 2313 4219 1838 4219 
Q 1578 4219 1281 4162 
Q 984 4106 628 3988 
L 628 4550 
Q 988 4650 1302 4700 
Q 1616 4750 1894 4750 
Q 2613 4750 3031 4423 
Q 3450 4097 3450 3541 
Q 3450 3153 3228 2886 
Q 3006 2619 2597 2516 
z
" transform="scale(0.015625)"/>
     </defs>
     <use xlink:href="#DejaVuSans-Oblique-3c4" transform="translate(0 0.125)"/>
     <use xlink:href="#DejaVuSans-7c" transform="translate(60.205078 -16.28125) scale(0.7)"/>
     <use xlink:href="#DejaVuSans-31" transform="translate(83.789062 -16.28125) scale(0.7)"/>
     <use xlink:href="#DejaVuSans-27e9" transform="translate(128.325195 -16.28125) scale(0.7)"/>
     <use xlink:href="#DejaVuSans-3d" transform="translate(177.851562 0.125)"/>
     <use xlink:href="#DejaVuSans-32" transform="translate(281.123047 0.125)"/>
     <use xlink:href="#DejaVuSans-2e" transform="translate(344.746094 0.125)"/>
     <use xlink:href="#DejaVuSans-36" transform="translate(376.533203 0.125)"/>
     <use xlink:href="#DejaVuSans-38" transform="translate(440.15625 0.125)"/>
     <use xlink:href="#DejaVuSans-28" transform="translate(503.779297 0.125)"/>
     <use xlink:href="#DejaVuSans-33" transform="translate(542.792969 0.125)"/>
     <use xlink:href="#DejaVuSans-38" transform="translate(606.416016 0.125)"/>
     <use xlink:href="#DejaVuSans-29" transform="translate(670.039062 0.125)"/>
     <use xlink:href="#DejaVuSans-20" transform="translate(709.052734 0.125)"/>
     <use xlink:href="#DejaVuSans-6d" transform="translate(740.839844 0.125)"/>
     <use xlink:href="#DejaVuSans-73" transform="translate(838.251953 0.125)"/>
    </g>
   </g>
   <g id="legend_1">
    <g id="patch_7">
     <path d="M 319.680938 64.5 
L 408.030938 64.5 
Q 411.030938 64.5 411.030938 61.5 
L 411.030938 17.7 
Q 411.030938 14.7 408.030938 14.7 
L 319.680938 14.7 
Q 316.680938 14.7 316.680938 17.7 
L 316.680938 61.5 
Q 316.680938 64.5 319.680938 64.5 
z
" style="fill: #ffffff; opacity: 0.8; stroke: #cccccc; stroke-linejoin: miter"/>
    </g>
    <g id="LineCollection_3">
     <path d="M 337.680938 34.5 
L 337.680938 19.5 
" style="fill: none; stroke: #1f77b4; stroke-width: 1.5"/>
    </g>
    <g id="line2d_25"/>
    <g id="line2d_26">
     <g>
      <use xlink:href="#mcceb8b8273" x="337.680938" y="27" style="fill: #1f77b4; stroke: #1f77b4"/>
     </g>
    </g>
    <g id="text_15">
     <!-- $|0\rangle_{\mathrm{aux}}$ -->
     <g transform="translate(364.680938 32.25) scale(0.15 -0.15)">
      <defs>
       <path id="DejaVuSans-75" d="M 544 1381 
L 544 3500 
L 1119 3500 
L 1119 1403 
Q 1119 906 1312 657 
Q 1506 409 1894 409 
Q 2359 409 2629 706 
Q 2900 1003 2900 1516 
L 2900 3500 
L 3475 3500 
L 3475 0 
L 2900 0 
L 2900 538 
Q 2691 219 2414 64 
Q 2138 -91 1772 -91 
Q 1169 -91 856 284 
Q 544 659 544 1381 
z
M 1991 3584 
L 1991 3584 
z
" transform="scale(0.015625)"/>
       <path id="DejaVuSans-78" d="M 3513 3500 
L 2247 1797 
L 3578 0 
L 2900 0 
L 1881 1375 
L 863 0 
L 184 0 
L 1544 1831 
L 300 3500 
L 978 3500 
L 1906 2253 
L 2834 3500 
L 3513 3500 
z
" transform="scale(0.015625)"/>
      </defs>
      <use xlink:href="#DejaVuSans-7c" transform="translate(0 0.578125)"/>
      <use xlink:href="#DejaVuSans-30" transform="translate(33.691406 0.578125)"/>
      <use xlink:href="#DejaVuSans-27e9" transform="translate(97.314453 0.578125)"/>
      <use xlink:href="#DejaVuSans-61" transform="translate(137.285156 -15.828125) scale(0.7)"/>
      <use xlink:href="#DejaVuSans-75" transform="translate(180.180664 -15.828125) scale(0.7)"/>
      <use xlink:href="#DejaVuSans-78" transform="translate(224.545898 -15.828125) scale(0.7)"/>
     </g>
    </g>
    <g id="LineCollection_4">
     <path d="M 337.680938 57.15 
L 337.680938 42.15 
" style="fill: none; stroke: #ff7f0e; stroke-width: 1.5"/>
    </g>
    <g id="line2d_27"/>
    <g id="line2d_28">
     <g>
      <use xlink:href="#mff6e4f8517" x="337.680938" y="49.65" style="fill: #ff7f0e; stroke: #ff7f0e"/>
     </g>
    </g>
    <g id="text_16">
     <!-- $|1\rangle_{\mathrm{aux}}$ -->
     <g transform="translate(364.680938 54.9) scale(0.15 -0.15)">
      <use xlink:href="#DejaVuSans-7c" transform="translate(0 0.578125)"/>
      <use xlink:href="#DejaVuSans-31" transform="translate(33.691406 0.578125)"/>
      <use xlink:href="#DejaVuSans-27e9" transform="translate(97.314453 0.578125)"/>
      <use xlink:href="#DejaVuSans-61" transform="translate(137.285156 -15.828125) scale(0.7)"/>
      <use xlink:href="#DejaVuSans-75" transform="translate(180.180664 -15.828125) scale(0.7)"/>
      <use xlink:href="#DejaVuSans-78" transform="translate(224.545898 -15.828125) scale(0.7)"/>
     </g>
    </g>
   </g>
  </g>
 </g>
 <defs>
  <clipPath id="pc426f9fa9e">
   <rect x="61.410938" y="7.2" width="357.12" height="266.112"/>
  </clipPath>
 </defs>
</svg>
