<?xml version="1.0" encoding="utf-8" standalone="no"?>
<!DOCTYPE svg PUBLIC "-//W3C//DTD SVG 1.1//EN"
  "http://www.w3.org/Graphics/SVG/1.1/DTD/svg11.dtd">
<svg xmlns:xlink="http://www.w3.org/1999/xlink" width="427.574687pt" height="325.385437pt" viewBox="0 0 427.574687 325.385437" xmlns="http://www.w3.org/2000/svg" version="1.1">
 <defs>
  <style type="text/css">*{stroke-linejoin: round; stroke-linecap: butt}</style>
 </defs>
 <g id="figure_1">
  <g id="patch_1">
   <path d="M 0 325.385437 
L 427.574687 325.385437 
L 427.574687 0 
L 0 0 
L 0 325.385437 
z
" style="fill: none"/>
  </g>
  <g id="axes_1">
   <g id="patch_2">
    <path d="M 63.254688 273.312 
L 420.374688 273.312 
L 420.374688 7.2 
L 63.254688 7.2 
L 63.254688 273.312 
z
" style="fill: none"/>
   </g>
   <g id="matplotlib.axis_1">
    <g id="xtick_1">
     <g id="line2d_1">
      <path d="M 88.763259 273.312 
L 88.763259 7.2 
" clip-path="url(#p8b0061045f)" style="fill: none; stroke: #b0b0b0; stroke-width: 0.8; stroke-linecap: square"/>
     </g>
     <g id="line2d_2">
      <defs>
       <path id="md39032bed2" d="M 0 0 
L 0 3.5 
" style="stroke: #000000; stroke-width: 0.8"/>
      </defs>
      <g>
       <use xlink:href="#md39032bed2" x="88.763259" y="273.312" style="stroke: #000000; stroke-width: 0.8"/>
      </g>
     </g>
     <g id="text_1">
      <!-- −300 -->
      <g transform="translate(68.162868 291.709656) scale(0.15 -0.15)">
       <defs>
        <path id="DejaVuSans-2212" d="M 678 2272 
L 4684 2272 
L 4684 1741 
L 678 1741 
L 678 2272 
z
" transform="scale(0.015625)"/>
        <path id="DejaVuSans-33" d="M 2597 2516 
Q 3050 2419 3304 2112 
Q 3559 1806 3559 1356 
Q 3559 666 3084 287 
Q 2609 -91 1734 -91 
Q 1441 -91 1130 -33 
Q 819 25 488 141 
L 488 750 
Q 750 597 1062 519 
Q 1375 441 1716 441 
Q 2309 441 2620 675 
Q 2931 909 2931 1356 
Q 2931 1769 2642 2001 
Q 2353 2234 1838 2234 
L 1294 2234 
L 1294 2753 
L 1863 2753 
Q 2328 2753 2575 2939 
Q 2822 3125 2822 3475 
Q 2822 3834 2567 4026 
Q 2313 4219 1838 4219 
Q 1578 4219 1281 4162 
Q 984 4106 628 3988 
L 628 4550 
Q 988 4650 1302 4700 
Q 1616 4750 1894 4750 
Q 2613 4750 3031 4423 
Q 3450 4097 3450 3541 
Q 3450 3153 3228 2886 
Q 3006 2619 2597 2516 
z
" transform="scale(0.015625)"/>
        <path id="DejaVuSans-30" d="M 2034 4250 
Q 1547 4250 1301 3770 
Q 1056 3291 1056 2328 
Q 1056 1369 1301 889 
Q 1547 409 2034 409 
Q 2525 409 2770 889 
Q 3016 1369 3016 2328 
Q 3016 3291 2770 3770 
Q 2525 4250 2034 4250 
z
M 2034 4750 
Q 2819 4750 3233 4129 
Q 3647 3509 3647 2328 
Q 3647 1150 3233 529 
Q 2819 -91 2034 -91 
Q 1250 -91 836 529 
Q 422 1150 422 2328 
Q 422 3509 836 4129 
Q 1250 4750 2034 4750 
z
" transform="scale(0.015625)"/>
       </defs>
       <use xlink:href="#DejaVuSans-2212"/>
       <use xlink:href="#DejaVuSans-33" x="83.789062"/>
       <use xlink:href="#DejaVuSans-30" x="147.412109"/>
       <use xlink:href="#DejaVuSans-30" x="211.035156"/>
      </g>
     </g>
    </g>
    <g id="xtick_2">
     <g id="line2d_3">
      <path d="M 139.780402 273.312 
L 139.780402 7.2 
" clip-path="url(#p8b0061045f)" style="fill: none; stroke: #b0b0b0; stroke-width: 0.8; stroke-linecap: square"/>
     </g>
     <g id="line2d_4">
      <g>
       <use xlink:href="#md39032bed2" x="139.780402" y="273.312" style="stroke: #000000; stroke-width: 0.8"/>
      </g>
     </g>
     <g id="text_2">
      <!-- −200 -->
      <g transform="translate(119.180011 291.709656) scale(0.15 -0.15)">
       <defs>
        <path id="DejaVuSans-32" d="M 1228 531 
L 3431 531 
L 3431 0 
L 469 0 
L 469 531 
Q 828 903 1448 1529 
Q 2069 2156 2228 2338 
Q 2531 2678 2651 2914 
Q 2772 3150 2772 3378 
Q 2772 3750 2511 3984 
Q 2250 4219 1831 4219 
Q 1534 4219 1204 4116 
Q 875 4013 500 3803 
L 500 4441 
Q 881 4594 1212 4672 
Q 1544 4750 1819 4750 
Q 2544 4750 2975 4387 
Q 3406 4025 3406 3419 
Q 3406 3131 3298 2873 
Q 3191 2616 2906 2266 
Q 2828 2175 2409 1742 
Q 1991 1309 1228 531 
z
" transform="scale(0.015625)"/>
       </defs>
       <use xlink:href="#DejaVuSans-2212"/>
       <use xlink:href="#DejaVuSans-32" x="83.789062"/>
       <use xlink:href="#DejaVuSans-30" x="147.412109"/>
       <use xlink:href="#DejaVuSans-30" x="211.035156"/>
      </g>
     </g>
    </g>
    <g id="xtick_3">
     <g id="line2d_5">
      <path d="M 190.797545 273.312 
L 190.797545 7.2 
" clip-path="url(#p8b0061045f)" style="fill: none; stroke: #b0b0b0; stroke-width: 0.8; stroke-linecap: square"/>
     </g>
     <g id="line2d_6">
      <g>
       <use xlink:href="#md39032bed2" x="190.797545" y="273.312" style="stroke: #000000; stroke-width: 0.8"/>
      </g>
     </g>
     <g id="text_3">
      <!-- −100 -->
      <g transform="translate(170.197154 291.709656) scale(0.15 -0.15)">
       <defs>
        <path id="DejaVuSans-31" d="M 794 531 
L 1825 531 
L 1825 4091 
L 703 3866 
L 703 4441 
L 1819 4666 
L 2450 4666 
L 2450 531 
L 3481 531 
L 3481 0 
L 794 0 
L 794 531 
z
" transform="scale(0.015625)"/>
       </defs>
       <use xlink:href="#DejaVuSans-2212"/>
       <use xlink:href="#DejaVuSans-31" x="83.789062"/>
       <use xlink:href="#DejaVuSans-30" x="147.412109"/>
       <use xlink:href="#DejaVuSans-30" x="211.035156"/>
      </g>
     </g>
    </g>
    <g id="xtick_4">
     <g id="line2d_7">
      <path d="M 241.814688 273.312 
L 241.814688 7.2 
" clip-path="url(#p8b0061045f)" style="fill: none; stroke: #b0b0b0; stroke-width: 0.8; stroke-linecap: square"/>
     </g>
     <g id="line2d_8">
      <g>
       <use xlink:href="#md39032bed2" x="241.814688" y="273.312" style="stroke: #000000; stroke-width: 0.8"/>
      </g>
     </g>
     <g id="text_4">
      <!-- 0 -->
      <g transform="translate(237.042813 291.709656) scale(0.15 -0.15)">
       <use xlink:href="#DejaVuSans-30"/>
      </g>
     </g>
    </g>
    <g id="xtick_5">
     <g id="line2d_9">
      <path d="M 292.83183 273.312 
L 292.83183 7.2 
" clip-path="url(#p8b0061045f)" style="fill: none; stroke: #b0b0b0; stroke-width: 0.8; stroke-linecap: square"/>
     </g>
     <g id="line2d_10">
      <g>
       <use xlink:href="#md39032bed2" x="292.83183" y="273.312" style="stroke: #000000; stroke-width: 0.8"/>
      </g>
     </g>
     <g id="text_5">
      <!-- 100 -->
      <g transform="translate(278.516205 291.709656) scale(0.15 -0.15)">
       <use xlink:href="#DejaVuSans-31"/>
       <use xlink:href="#DejaVuSans-30" x="63.623047"/>
       <use xlink:href="#DejaVuSans-30" x="127.246094"/>
      </g>
     </g>
    </g>
    <g id="xtick_6">
     <g id="line2d_11">
      <path d="M 343.848973 273.312 
L 343.848973 7.2 
" clip-path="url(#p8b0061045f)" style="fill: none; stroke: #b0b0b0; stroke-width: 0.8; stroke-linecap: square"/>
     </g>
     <g id="line2d_12">
      <g>
       <use xlink:href="#md39032bed2" x="343.848973" y="273.312" style="stroke: #000000; stroke-width: 0.8"/>
      </g>
     </g>
     <g id="text_6">
      <!-- 200 -->
      <g transform="translate(329.533348 291.709656) scale(0.15 -0.15)">
       <use xlink:href="#DejaVuSans-32"/>
       <use xlink:href="#DejaVuSans-30" x="63.623047"/>
       <use xlink:href="#DejaVuSans-30" x="127.246094"/>
      </g>
     </g>
    </g>
    <g id="xtick_7">
     <g id="line2d_13">
      <path d="M 394.866116 273.312 
L 394.866116 7.2 
" clip-path="url(#p8b0061045f)" style="fill: none; stroke: #b0b0b0; stroke-width: 0.8; stroke-linecap: square"/>
     </g>
     <g id="line2d_14">
      <g>
       <use xlink:href="#md39032bed2" x="394.866116" y="273.312" style="stroke: #000000; stroke-width: 0.8"/>
      </g>
     </g>
     <g id="text_7">
      <!-- 300 -->
      <g transform="translate(380.550491 291.709656) scale(0.15 -0.15)">
       <use xlink:href="#DejaVuSans-33"/>
       <use xlink:href="#DejaVuSans-30" x="63.623047"/>
       <use xlink:href="#DejaVuSans-30" x="127.246094"/>
      </g>
     </g>
    </g>
    <g id="text_8">
     <!-- Detuning from resonance (kHz) -->
     <g transform="translate(84.917813 314.026062) scale(0.2 -0.2)">
      <defs>
       <path id="DejaVuSans-44" d="M 1259 4147 
L 1259 519 
L 2022 519 
Q 2988 519 3436 956 
Q 3884 1394 3884 2338 
Q 3884 3275 3436 3711 
Q 2988 4147 2022 4147 
L 1259 4147 
z
M 628 4666 
L 1925 4666 
Q 3281 4666 3915 4102 
Q 4550 3538 4550 2338 
Q 4550 1131 3912 565 
Q 3275 0 1925 0 
L 628 0 
L 628 4666 
z
" transform="scale(0.015625)"/>
       <path id="DejaVuSans-65" d="M 3597 1894 
L 3597 1613 
L 953 1613 
Q 991 1019 1311 708 
Q 1631 397 2203 397 
Q 2534 397 2845 478 
Q 3156 559 3463 722 
L 3463 178 
Q 3153 47 2828 -22 
Q 2503 -91 2169 -91 
Q 1331 -91 842 396 
Q 353 884 353 1716 
Q 353 2575 817 3079 
Q 1281 3584 2069 3584 
Q 2775 3584 3186 3129 
Q 3597 2675 3597 1894 
z
M 3022 2063 
Q 3016 2534 2758 2815 
Q 2500 3097 2075 3097 
Q 1594 3097 1305 2825 
Q 1016 2553 972 2059 
L 3022 2063 
z
" transform="scale(0.015625)"/>
       <path id="DejaVuSans-74" d="M 1172 4494 
L 1172 3500 
L 2356 3500 
L 2356 3053 
L 1172 3053 
L 1172 1153 
Q 1172 725 1289 603 
Q 1406 481 1766 481 
L 2356 481 
L 2356 0 
L 1766 0 
Q 1100 0 847 248 
Q 594 497 594 1153 
L 594 3053 
L 172 3053 
L 172 3500 
L 594 3500 
L 594 4494 
L 1172 4494 
z
" transform="scale(0.015625)"/>
       <path id="DejaVuSans-75" d="M 544 1381 
L 544 3500 
L 1119 3500 
L 1119 1403 
Q 1119 906 1312 657 
Q 1506 409 1894 409 
Q 2359 409 2629 706 
Q 2900 1003 2900 1516 
L 2900 3500 
L 3475 3500 
L 3475 0 
L 2900 0 
L 2900 538 
Q 2691 219 2414 64 
Q 2138 -91 1772 -91 
Q 1169 -91 856 284 
Q 544 659 544 1381 
z
M 1991 3584 
L 1991 3584 
z
" transform="scale(0.015625)"/>
       <path id="DejaVuSans-6e" d="M 3513 2113 
L 3513 0 
L 2938 0 
L 2938 2094 
Q 2938 2591 2744 2837 
Q 2550 3084 2163 3084 
Q 1697 3084 1428 2787 
Q 1159 2491 1159 1978 
L 1159 0 
L 581 0 
L 581 3500 
L 1159 3500 
L 1159 2956 
Q 1366 3272 1645 3428 
Q 1925 3584 2291 3584 
Q 2894 3584 3203 3211 
Q 3513 2838 3513 2113 
z
" transform="scale(0.015625)"/>
       <path id="DejaVuSans-69" d="M 603 3500 
L 1178 3500 
L 1178 0 
L 603 0 
L 603 3500 
z
M 603 4863 
L 1178 4863 
L 1178 4134 
L 603 4134 
L 603 4863 
z
" transform="scale(0.015625)"/>
       <path id="DejaVuSans-67" d="M 2906 1791 
Q 2906 2416 2648 2759 
Q 2391 3103 1925 3103 
Q 1463 3103 1205 2759 
Q 947 2416 947 1791 
Q 947 1169 1205 825 
Q 1463 481 1925 481 
Q 2391 481 2648 825 
Q 2906 1169 2906 1791 
z
M 3481 434 
Q 3481 -459 3084 -895 
Q 2688 -1331 1869 -1331 
Q 1566 -1331 1297 -1286 
Q 1028 -1241 775 -1147 
L 775 -588 
Q 1028 -725 1275 -790 
Q 1522 -856 1778 -856 
Q 2344 -856 2625 -561 
Q 2906 -266 2906 331 
L 2906 616 
Q 2728 306 2450 153 
Q 2172 0 1784 0 
Q 1141 0 747 490 
Q 353 981 353 1791 
Q 353 2603 747 3093 
Q 1141 3584 1784 3584 
Q 2172 3584 2450 3431 
Q 2728 3278 2906 2969 
L 2906 3500 
L 3481 3500 
L 3481 434 
z
" transform="scale(0.015625)"/>
       <path id="DejaVuSans-20" transform="scale(0.015625)"/>
       <path id="DejaVuSans-66" d="M 2375 4863 
L 2375 4384 
L 1825 4384 
Q 1516 4384 1395 4259 
Q 1275 4134 1275 3809 
L 1275 3500 
L 2222 3500 
L 2222 3053 
L 1275 3053 
L 1275 0 
L 697 0 
L 697 3053 
L 147 3053 
L 147 3500 
L 697 3500 
L 697 3744 
Q 697 4328 969 4595 
Q 1241 4863 1831 4863 
L 2375 4863 
z
" transform="scale(0.015625)"/>
       <path id="DejaVuSans-72" d="M 2631 2963 
Q 2534 3019 2420 3045 
Q 2306 3072 2169 3072 
Q 1681 3072 1420 2755 
Q 1159 2438 1159 1844 
L 1159 0 
L 581 0 
L 581 3500 
L 1159 3500 
L 1159 2956 
Q 1341 3275 1631 3429 
Q 1922 3584 2338 3584 
Q 2397 3584 2469 3576 
Q 2541 3569 2628 3553 
L 2631 2963 
z
" transform="scale(0.015625)"/>
       <path id="DejaVuSans-6f" d="M 1959 3097 
Q 1497 3097 1228 2736 
Q 959 2375 959 1747 
Q 959 1119 1226 758 
Q 1494 397 1959 397 
Q 2419 397 2687 759 
Q 2956 1122 2956 1747 
Q 2956 2369 2687 2733 
Q 2419 3097 1959 3097 
z
M 1959 3584 
Q 2709 3584 3137 3096 
Q 3566 2609 3566 1747 
Q 3566 888 3137 398 
Q 2709 -91 1959 -91 
Q 1206 -91 779 398 
Q 353 888 353 1747 
Q 353 2609 779 3096 
Q 1206 3584 1959 3584 
z
" transform="scale(0.015625)"/>
       <path id="DejaVuSans-6d" d="M 3328 2828 
Q 3544 3216 3844 3400 
Q 4144 3584 4550 3584 
Q 5097 3584 5394 3201 
Q 5691 2819 5691 2113 
L 5691 0 
L 5113 0 
L 5113 2094 
Q 5113 2597 4934 2840 
Q 4756 3084 4391 3084 
Q 3944 3084 3684 2787 
Q 3425 2491 3425 1978 
L 3425 0 
L 2847 0 
L 2847 2094 
Q 2847 2600 2669 2842 
Q 2491 3084 2119 3084 
Q 1678 3084 1418 2786 
Q 1159 2488 1159 1978 
L 1159 0 
L 581 0 
L 581 3500 
L 1159 3500 
L 1159 2956 
Q 1356 3278 1631 3431 
Q 1906 3584 2284 3584 
Q 2666 3584 2933 3390 
Q 3200 3197 3328 2828 
z
" transform="scale(0.015625)"/>
       <path id="DejaVuSans-73" d="M 2834 3397 
L 2834 2853 
Q 2591 2978 2328 3040 
Q 2066 3103 1784 3103 
Q 1356 3103 1142 2972 
Q 928 2841 928 2578 
Q 928 2378 1081 2264 
Q 1234 2150 1697 2047 
L 1894 2003 
Q 2506 1872 2764 1633 
Q 3022 1394 3022 966 
Q 3022 478 2636 193 
Q 2250 -91 1575 -91 
Q 1294 -91 989 -36 
Q 684 19 347 128 
L 347 722 
Q 666 556 975 473 
Q 1284 391 1588 391 
Q 1994 391 2212 530 
Q 2431 669 2431 922 
Q 2431 1156 2273 1281 
Q 2116 1406 1581 1522 
L 1381 1569 
Q 847 1681 609 1914 
Q 372 2147 372 2553 
Q 372 3047 722 3315 
Q 1072 3584 1716 3584 
Q 2034 3584 2315 3537 
Q 2597 3491 2834 3397 
z
" transform="scale(0.015625)"/>
       <path id="DejaVuSans-61" d="M 2194 1759 
Q 1497 1759 1228 1600 
Q 959 1441 959 1056 
Q 959 750 1161 570 
Q 1363 391 1709 391 
Q 2188 391 2477 730 
Q 2766 1069 2766 1631 
L 2766 1759 
L 2194 1759 
z
M 3341 1997 
L 3341 0 
L 2766 0 
L 2766 531 
Q 2569 213 2275 61 
Q 1981 -91 1556 -91 
Q 1019 -91 701 211 
Q 384 513 384 1019 
Q 384 1609 779 1909 
Q 1175 2209 1959 2209 
L 2766 2209 
L 2766 2266 
Q 2766 2663 2505 2880 
Q 2244 3097 1772 3097 
Q 1472 3097 1187 3025 
Q 903 2953 641 2809 
L 641 3341 
Q 956 3463 1253 3523 
Q 1550 3584 1831 3584 
Q 2591 3584 2966 3190 
Q 3341 2797 3341 1997 
z
" transform="scale(0.015625)"/>
       <path id="DejaVuSans-63" d="M 3122 3366 
L 3122 2828 
Q 2878 2963 2633 3030 
Q 2388 3097 2138 3097 
Q 1578 3097 1268 2742 
Q 959 2388 959 1747 
Q 959 1106 1268 751 
Q 1578 397 2138 397 
Q 2388 397 2633 464 
Q 2878 531 3122 666 
L 3122 134 
Q 2881 22 2623 -34 
Q 2366 -91 2075 -91 
Q 1284 -91 818 406 
Q 353 903 353 1747 
Q 353 2603 823 3093 
Q 1294 3584 2113 3584 
Q 2378 3584 2631 3529 
Q 2884 3475 3122 3366 
z
" transform="scale(0.015625)"/>
       <path id="DejaVuSans-28" d="M 1984 4856 
Q 1566 4138 1362 3434 
Q 1159 2731 1159 2009 
Q 1159 1288 1364 580 
Q 1569 -128 1984 -844 
L 1484 -844 
Q 1016 -109 783 600 
Q 550 1309 550 2009 
Q 550 2706 781 3412 
Q 1013 4119 1484 4856 
L 1984 4856 
z
" transform="scale(0.015625)"/>
       <path id="DejaVuSans-6b" d="M 581 4863 
L 1159 4863 
L 1159 1991 
L 2875 3500 
L 3609 3500 
L 1753 1863 
L 3688 0 
L 2938 0 
L 1159 1709 
L 1159 0 
L 581 0 
L 581 4863 
z
" transform="scale(0.015625)"/>
       <path id="DejaVuSans-48" d="M 628 4666 
L 1259 4666 
L 1259 2753 
L 3553 2753 
L 3553 4666 
L 4184 4666 
L 4184 0 
L 3553 0 
L 3553 2222 
L 1259 2222 
L 1259 0 
L 628 0 
L 628 4666 
z
" transform="scale(0.015625)"/>
       <path id="DejaVuSans-7a" d="M 353 3500 
L 3084 3500 
L 3084 2975 
L 922 459 
L 3084 459 
L 3084 0 
L 275 0 
L 275 525 
L 2438 3041 
L 353 3041 
L 353 3500 
z
" transform="scale(0.015625)"/>
       <path id="DejaVuSans-29" d="M 513 4856 
L 1013 4856 
Q 1481 4119 1714 3412 
Q 1947 2706 1947 2009 
Q 1947 1309 1714 600 
Q 1481 -109 1013 -844 
L 513 -844 
Q 928 -128 1133 580 
Q 1338 1288 1338 2009 
Q 1338 2731 1133 3434 
Q 928 4138 513 4856 
z
" transform="scale(0.015625)"/>
      </defs>
      <use xlink:href="#DejaVuSans-44"/>
      <use xlink:href="#DejaVuSans-65" x="77.001953"/>
      <use xlink:href="#DejaVuSans-74" x="138.525391"/>
      <use xlink:href="#DejaVuSans-75" x="177.734375"/>
      <use xlink:href="#DejaVuSans-6e" x="241.113281"/>
      <use xlink:href="#DejaVuSans-69" x="304.492188"/>
      <use xlink:href="#DejaVuSans-6e" x="332.275391"/>
      <use xlink:href="#DejaVuSans-67" x="395.654297"/>
      <use xlink:href="#DejaVuSans-20" x="459.130859"/>
      <use xlink:href="#DejaVuSans-66" x="490.917969"/>
      <use xlink:href="#DejaVuSans-72" x="526.123047"/>
      <use xlink:href="#DejaVuSans-6f" x="564.986328"/>
      <use xlink:href="#DejaVuSans-6d" x="626.167969"/>
      <use xlink:href="#DejaVuSans-20" x="723.580078"/>
      <use xlink:href="#DejaVuSans-72" x="755.367188"/>
      <use xlink:href="#DejaVuSans-65" x="794.230469"/>
      <use xlink:href="#DejaVuSans-73" x="855.753906"/>
      <use xlink:href="#DejaVuSans-6f" x="907.853516"/>
      <use xlink:href="#DejaVuSans-6e" x="969.035156"/>
      <use xlink:href="#DejaVuSans-61" x="1032.414062"/>
      <use xlink:href="#DejaVuSans-6e" x="1093.693359"/>
      <use xlink:href="#DejaVuSans-63" x="1157.072266"/>
      <use xlink:href="#DejaVuSans-65" x="1212.052734"/>
      <use xlink:href="#DejaVuSans-20" x="1273.576172"/>
      <use xlink:href="#DejaVuSans-28" x="1305.363281"/>
      <use xlink:href="#DejaVuSans-6b" x="1344.376953"/>
      <use xlink:href="#DejaVuSans-48" x="1402.287109"/>
      <use xlink:href="#DejaVuSans-7a" x="1477.482422"/>
      <use xlink:href="#DejaVuSans-29" x="1529.972656"/>
     </g>
    </g>
   </g>
   <g id="matplotlib.axis_2">
    <g id="ytick_1">
     <g id="line2d_15">
      <path d="M 63.254688 273.312 
L 420.374688 273.312 
" clip-path="url(#p8b0061045f)" style="fill: none; stroke: #b0b0b0; stroke-width: 0.8; stroke-linecap: square"/>
     </g>
     <g id="line2d_16">
      <defs>
       <path id="m6f3f5b6aff" d="M 0 0 
L -3.5 0 
" style="stroke: #000000; stroke-width: 0.8"/>
      </defs>
      <g>
       <use xlink:href="#m6f3f5b6aff" x="63.254688" y="273.312" style="stroke: #000000; stroke-width: 0.8"/>
      </g>
     </g>
     <g id="text_9">
      <!-- 0.0 -->
      <g transform="translate(32.4 279.010828) scale(0.15 -0.15)">
       <defs>
        <path id="DejaVuSans-2e" d="M 684 794 
L 1344 794 
L 1344 0 
L 684 0 
L 684 794 
z
" transform="scale(0.015625)"/>
       </defs>
       <use xlink:href="#DejaVuSans-30"/>
       <use xlink:href="#DejaVuSans-2e" x="63.623047"/>
       <use xlink:href="#DejaVuSans-30" x="95.410156"/>
      </g>
     </g>
    </g>
    <g id="ytick_2">
     <g id="line2d_17">
      <path d="M 63.254688 223.102189 
L 420.374688 223.102189 
" clip-path="url(#p8b0061045f)" style="fill: none; stroke: #b0b0b0; stroke-width: 0.8; stroke-linecap: square"/>
     </g>
     <g id="line2d_18">
      <g>
       <use xlink:href="#m6f3f5b6aff" x="63.254688" y="223.102189" style="stroke: #000000; stroke-width: 0.8"/>
      </g>
     </g>
     <g id="text_10">
      <!-- 0.2 -->
      <g transform="translate(32.4 228.801017) scale(0.15 -0.15)">
       <use xlink:href="#DejaVuSans-30"/>
       <use xlink:href="#DejaVuSans-2e" x="63.623047"/>
       <use xlink:href="#DejaVuSans-32" x="95.410156"/>
      </g>
     </g>
    </g>
    <g id="ytick_3">
     <g id="line2d_19">
      <path d="M 63.254688 172.892377 
L 420.374688 172.892377 
" clip-path="url(#p8b0061045f)" style="fill: none; stroke: #b0b0b0; stroke-width: 0.8; stroke-linecap: square"/>
     </g>
     <g id="line2d_20">
      <g>
       <use xlink:href="#m6f3f5b6aff" x="63.254688" y="172.892377" style="stroke: #000000; stroke-width: 0.8"/>
      </g>
     </g>
     <g id="text_11">
      <!-- 0.4 -->
      <g transform="translate(32.4 178.591205) scale(0.15 -0.15)">
       <defs>
        <path id="DejaVuSans-34" d="M 2419 4116 
L 825 1625 
L 2419 1625 
L 2419 4116 
z
M 2253 4666 
L 3047 4666 
L 3047 1625 
L 3713 1625 
L 3713 1100 
L 3047 1100 
L 3047 0 
L 2419 0 
L 2419 1100 
L 313 1100 
L 313 1709 
L 2253 4666 
z
" transform="scale(0.015625)"/>
       </defs>
       <use xlink:href="#DejaVuSans-30"/>
       <use xlink:href="#DejaVuSans-2e" x="63.623047"/>
       <use xlink:href="#DejaVuSans-34" x="95.410156"/>
      </g>
     </g>
    </g>
    <g id="ytick_4">
     <g id="line2d_21">
      <path d="M 63.254688 122.682566 
L 420.374688 122.682566 
" clip-path="url(#p8b0061045f)" style="fill: none; stroke: #b0b0b0; stroke-width: 0.8; stroke-linecap: square"/>
     </g>
     <g id="line2d_22">
      <g>
       <use xlink:href="#m6f3f5b6aff" x="63.254688" y="122.682566" style="stroke: #000000; stroke-width: 0.8"/>
      </g>
     </g>
     <g id="text_12">
      <!-- 0.6 -->
      <g transform="translate(32.4 128.381394) scale(0.15 -0.15)">
       <defs>
        <path id="DejaVuSans-36" d="M 2113 2584 
Q 1688 2584 1439 2293 
Q 1191 2003 1191 1497 
Q 1191 994 1439 701 
Q 1688 409 2113 409 
Q 2538 409 2786 701 
Q 3034 994 3034 1497 
Q 3034 2003 2786 2293 
Q 2538 2584 2113 2584 
z
M 3366 4563 
L 3366 3988 
Q 3128 4100 2886 4159 
Q 2644 4219 2406 4219 
Q 1781 4219 1451 3797 
Q 1122 3375 1075 2522 
Q 1259 2794 1537 2939 
Q 1816 3084 2150 3084 
Q 2853 3084 3261 2657 
Q 3669 2231 3669 1497 
Q 3669 778 3244 343 
Q 2819 -91 2113 -91 
Q 1303 -91 875 529 
Q 447 1150 447 2328 
Q 447 3434 972 4092 
Q 1497 4750 2381 4750 
Q 2619 4750 2861 4703 
Q 3103 4656 3366 4563 
z
" transform="scale(0.015625)"/>
       </defs>
       <use xlink:href="#DejaVuSans-30"/>
       <use xlink:href="#DejaVuSans-2e" x="63.623047"/>
       <use xlink:href="#DejaVuSans-36" x="95.410156"/>
      </g>
     </g>
    </g>
    <g id="ytick_5">
     <g id="line2d_23">
      <path d="M 63.254688 72.472755 
L 420.374688 72.472755 
" clip-path="url(#p8b0061045f)" style="fill: none; stroke: #b0b0b0; stroke-width: 0.8; stroke-linecap: square"/>
     </g>
     <g id="line2d_24">
      <g>
       <use xlink:href="#m6f3f5b6aff" x="63.254688" y="72.472755" style="stroke: #000000; stroke-width: 0.8"/>
      </g>
     </g>
     <g id="text_13">
      <!-- 0.8 -->
      <g transform="translate(32.4 78.171583) scale(0.15 -0.15)">
       <defs>
        <path id="DejaVuSans-38" d="M 2034 2216 
Q 1584 2216 1326 1975 
Q 1069 1734 1069 1313 
Q 1069 891 1326 650 
Q 1584 409 2034 409 
Q 2484 409 2743 651 
Q 3003 894 3003 1313 
Q 3003 1734 2745 1975 
Q 2488 2216 2034 2216 
z
M 1403 2484 
Q 997 2584 770 2862 
Q 544 3141 544 3541 
Q 544 4100 942 4425 
Q 1341 4750 2034 4750 
Q 2731 4750 3128 4425 
Q 3525 4100 3525 3541 
Q 3525 3141 3298 2862 
Q 3072 2584 2669 2484 
Q 3125 2378 3379 2068 
Q 3634 1759 3634 1313 
Q 3634 634 3220 271 
Q 2806 -91 2034 -91 
Q 1263 -91 848 271 
Q 434 634 434 1313 
Q 434 1759 690 2068 
Q 947 2378 1403 2484 
z
M 1172 3481 
Q 1172 3119 1398 2916 
Q 1625 2713 2034 2713 
Q 2441 2713 2670 2916 
Q 2900 3119 2900 3481 
Q 2900 3844 2670 4047 
Q 2441 4250 2034 4250 
Q 1625 4250 1398 4047 
Q 1172 3844 1172 3481 
z
" transform="scale(0.015625)"/>
       </defs>
       <use xlink:href="#DejaVuSans-30"/>
       <use xlink:href="#DejaVuSans-2e" x="63.623047"/>
       <use xlink:href="#DejaVuSans-38" x="95.410156"/>
      </g>
     </g>
    </g>
    <g id="ytick_6">
     <g id="line2d_25">
      <path d="M 63.254688 22.262943 
L 420.374688 22.262943 
" clip-path="url(#p8b0061045f)" style="fill: none; stroke: #b0b0b0; stroke-width: 0.8; stroke-linecap: square"/>
     </g>
     <g id="line2d_26">
      <g>
       <use xlink:href="#m6f3f5b6aff" x="63.254688" y="22.262943" style="stroke: #000000; stroke-width: 0.8"/>
      </g>
     </g>
     <g id="text_14">
      <!-- 1.0 -->
      <g transform="translate(32.4 27.961772) scale(0.15 -0.15)">
       <use xlink:href="#DejaVuSans-31"/>
       <use xlink:href="#DejaVuSans-2e" x="63.623047"/>
       <use xlink:href="#DejaVuSans-30" x="95.410156"/>
      </g>
     </g>
    </g>
    <g id="text_15">
     <!-- $P_{D_{3/2}}$ -->
     <g transform="translate(21.8 159.856) rotate(-90) scale(0.2 -0.2)">
      <defs>
       <path id="DejaVuSans-Oblique-50" d="M 1081 4666 
L 2541 4666 
Q 3178 4666 3512 4369 
Q 3847 4072 3847 3500 
Q 3847 2731 3353 2303 
Q 2859 1875 1966 1875 
L 1172 1875 
L 806 0 
L 172 0 
L 1081 4666 
z
M 1613 4147 
L 1275 2394 
L 2069 2394 
Q 2606 2394 2893 2669 
Q 3181 2944 3181 3456 
Q 3181 3784 2986 3965 
Q 2791 4147 2438 4147 
L 1613 4147 
z
" transform="scale(0.015625)"/>
       <path id="DejaVuSans-Oblique-44" d="M 1081 4666 
L 2438 4666 
Q 3519 4666 4070 4208 
Q 4622 3750 4622 2847 
Q 4622 2250 4412 1698 
Q 4203 1147 3834 769 
Q 3463 381 2891 190 
Q 2319 0 1538 0 
L 172 0 
L 1081 4666 
z
M 1613 4147 
L 909 519 
L 1734 519 
Q 2794 519 3375 1128 
Q 3956 1738 3956 2847 
Q 3956 3519 3581 3833 
Q 3206 4147 2406 4147 
L 1613 4147 
z
" transform="scale(0.015625)"/>
       <path id="DejaVuSans-2f" d="M 1625 4666 
L 2156 4666 
L 531 -594 
L 0 -594 
L 1625 4666 
z
" transform="scale(0.015625)"/>
      </defs>
      <use xlink:href="#DejaVuSans-Oblique-50" transform="translate(0 0.09375)"/>
      <use xlink:href="#DejaVuSans-Oblique-44" transform="translate(60.302734 -16.3125) scale(0.7)"/>
      <use xlink:href="#DejaVuSans-33" transform="translate(114.204102 -27.796875) scale(0.49)"/>
      <use xlink:href="#DejaVuSans-2f" transform="translate(145.379395 -27.796875) scale(0.49)"/>
      <use xlink:href="#DejaVuSans-32" transform="translate(160.111934 -27.796875) scale(0.49)"/>
     </g>
    </g>
   </g>
   <g id="LineCollection_1">
    <path clip-path="url(#p8b0061045f)" style="fill: none; stroke: #1f77b4; stroke-width: 1.5"/>
    <path clip-path="url(#p8b0061045f)" style="fill: none; stroke: #1f77b4; stroke-width: 1.5"/>
    <path clip-path="url(#p8b0061045f)" style="fill: none; stroke: #1f77b4; stroke-width: 1.5"/>
    <path clip-path="url(#p8b0061045f)" style="fill: none; stroke: #1f77b4; stroke-width: 1.5"/>
    <path clip-path="url(#p8b0061045f)" style="fill: none; stroke: #1f77b4; stroke-width: 1.5"/>
    <path clip-path="url(#p8b0061045f)" style="fill: none; stroke: #1f77b4; stroke-width: 1.5"/>
    <path d="M 1.836272 270.793075 
L 1.836272 263.402754 
" clip-path="url(#p8b0061045f)" style="fill: none; stroke: #1f77b4; stroke-width: 1.5"/>
    <path d="M 12.039701 267.15353 
L 12.039701 257.099762 
" clip-path="url(#p8b0061045f)" style="fill: none; stroke: #1f77b4; stroke-width: 1.5"/>
    <path d="M 22.24313 270.793075 
L 22.24313 263.402754 
" clip-path="url(#p8b0061045f)" style="fill: none; stroke: #1f77b4; stroke-width: 1.5"/>
    <path d="M 32.446558 269.03084 
L 32.446558 260.19372 
" clip-path="url(#p8b0061045f)" style="fill: none; stroke: #1f77b4; stroke-width: 1.5"/>
    <path d="M 42.649987 272.351434 
L 42.649987 266.815664 
" clip-path="url(#p8b0061045f)" style="fill: none; stroke: #1f77b4; stroke-width: 1.5"/>
    <path d="M 52.853415 270.793075 
L 52.853415 263.402754 
" clip-path="url(#p8b0061045f)" style="fill: none; stroke: #1f77b4; stroke-width: 1.5"/>
    <path d="M 63.056844 256.919659 
L 63.056844 242.47729 
" clip-path="url(#p8b0061045f)" style="fill: none; stroke: #1f77b4; stroke-width: 1.5"/>
    <path d="M 73.260272 254.772602 
L 73.260272 239.653079 
" clip-path="url(#p8b0061045f)" style="fill: none; stroke: #1f77b4; stroke-width: 1.5"/>
    <path d="M 83.463701 259.041036 
L 83.463701 245.327182 
" clip-path="url(#p8b0061045f)" style="fill: none; stroke: #1f77b4; stroke-width: 1.5"/>
    <path d="M 93.66713 265.199059 
L 93.66713 254.082965 
" clip-path="url(#p8b0061045f)" style="fill: none; stroke: #1f77b4; stroke-width: 1.5"/>
    <path d="M 103.870558 267.15353 
L 103.870558 257.099762 
" clip-path="url(#p8b0061045f)" style="fill: none; stroke: #1f77b4; stroke-width: 1.5"/>
    <path d="M 114.073987 250.413981 
L 114.073987 234.069164 
" clip-path="url(#p8b0061045f)" style="fill: none; stroke: #1f77b4; stroke-width: 1.5"/>
    <path d="M 124.277415 172.643814 
L 124.277415 147.787472 
" clip-path="url(#p8b0061045f)" style="fill: none; stroke: #1f77b4; stroke-width: 1.5"/>
    <path d="M 134.480844 101.722857 
L 134.480844 79.512912 
" clip-path="url(#p8b0061045f)" style="fill: none; stroke: #1f77b4; stroke-width: 1.5"/>
    <path d="M 144.684272 41.491979 
L 144.684272 30.375885 
" clip-path="url(#p8b0061045f)" style="fill: none; stroke: #1f77b4; stroke-width: 1.5"/>
    <path d="M 154.887701 72.472755 
L 154.887701 54.079061 
" clip-path="url(#p8b0061045f)" style="fill: none; stroke: #1f77b4; stroke-width: 1.5"/>
    <path d="M 165.09113 137.704951 
L 165.09113 113.128576 
" clip-path="url(#p8b0061045f)" style="fill: none; stroke: #1f77b4; stroke-width: 1.5"/>
    <path d="M 175.294558 211.332922 
L 175.294558 188.638659 
" clip-path="url(#p8b0061045f)" style="fill: none; stroke: #1f77b4; stroke-width: 1.5"/>
    <path d="M 185.497987 265.199059 
L 185.497987 254.082965 
" clip-path="url(#p8b0061045f)" style="fill: none; stroke: #1f77b4; stroke-width: 1.5"/>
    <path d="M 195.701415 265.199059 
L 195.701415 254.082965 
" clip-path="url(#p8b0061045f)" style="fill: none; stroke: #1f77b4; stroke-width: 1.5"/>
    <path d="M 205.904844 263.187843 
L 205.904844 251.122912 
" clip-path="url(#p8b0061045f)" style="fill: none; stroke: #1f77b4; stroke-width: 1.5"/>
    <path d="M 216.108272 261.132392 
L 216.108272 248.207094 
" clip-path="url(#p8b0061045f)" style="fill: none; stroke: #1f77b4; stroke-width: 1.5"/>
    <path d="M 226.311701 254.772602 
L 226.311701 239.653079 
" clip-path="url(#p8b0061045f)" style="fill: none; stroke: #1f77b4; stroke-width: 1.5"/>
    <path d="M 236.51513 259.041036 
L 236.51513 245.327182 
" clip-path="url(#p8b0061045f)" style="fill: none; stroke: #1f77b4; stroke-width: 1.5"/>
    <path d="M 246.718558 265.199059 
L 246.718558 254.082965 
" clip-path="url(#p8b0061045f)" style="fill: none; stroke: #1f77b4; stroke-width: 1.5"/>
    <path d="M 256.921987 273.312 
L 256.921987 270.826366 
" clip-path="url(#p8b0061045f)" style="fill: none; stroke: #1f77b4; stroke-width: 1.5"/>
    <path d="M 267.125415 269.03084 
L 267.125415 260.19372 
" clip-path="url(#p8b0061045f)" style="fill: none; stroke: #1f77b4; stroke-width: 1.5"/>
    <path d="M 277.328844 263.187843 
L 277.328844 251.122912 
" clip-path="url(#p8b0061045f)" style="fill: none; stroke: #1f77b4; stroke-width: 1.5"/>
    <path d="M 287.532272 270.793075 
L 287.532272 263.402754 
" clip-path="url(#p8b0061045f)" style="fill: none; stroke: #1f77b4; stroke-width: 1.5"/>
    <path d="M 297.735701 270.793075 
L 297.735701 263.402754 
" clip-path="url(#p8b0061045f)" style="fill: none; stroke: #1f77b4; stroke-width: 1.5"/>
    <path d="M 307.93913 269.03084 
L 307.93913 260.19372 
" clip-path="url(#p8b0061045f)" style="fill: none; stroke: #1f77b4; stroke-width: 1.5"/>
    <path d="M 318.142558 265.199059 
L 318.142558 254.082965 
" clip-path="url(#p8b0061045f)" style="fill: none; stroke: #1f77b4; stroke-width: 1.5"/>
    <path d="M 328.345987 267.15353 
L 328.345987 257.099762 
" clip-path="url(#p8b0061045f)" style="fill: none; stroke: #1f77b4; stroke-width: 1.5"/>
    <path d="M 338.549415 270.793075 
L 338.549415 263.402754 
" clip-path="url(#p8b0061045f)" style="fill: none; stroke: #1f77b4; stroke-width: 1.5"/>
    <path d="M 348.752844 263.187843 
L 348.752844 251.122912 
" clip-path="url(#p8b0061045f)" style="fill: none; stroke: #1f77b4; stroke-width: 1.5"/>
    <path d="M 358.956272 273.312 
L 358.956272 270.826366 
" clip-path="url(#p8b0061045f)" style="fill: none; stroke: #1f77b4; stroke-width: 1.5"/>
    <path d="M 369.159701 267.15353 
L 369.159701 257.099762 
" clip-path="url(#p8b0061045f)" style="fill: none; stroke: #1f77b4; stroke-width: 1.5"/>
    <path d="M 379.36313 267.15353 
L 379.36313 257.099762 
" clip-path="url(#p8b0061045f)" style="fill: none; stroke: #1f77b4; stroke-width: 1.5"/>
    <path d="M 389.566558 273.312 
L 389.566558 270.826366 
" clip-path="url(#p8b0061045f)" style="fill: none; stroke: #1f77b4; stroke-width: 1.5"/>
    <path d="M 399.769987 270.793075 
L 399.769987 263.402754 
" clip-path="url(#p8b0061045f)" style="fill: none; stroke: #1f77b4; stroke-width: 1.5"/>
    <path d="M 409.973415 263.187843 
L 409.973415 251.122912 
" clip-path="url(#p8b0061045f)" style="fill: none; stroke: #1f77b4; stroke-width: 1.5"/>
    <path d="M 420.176844 263.187843 
L 420.176844 251.122912 
" clip-path="url(#p8b0061045f)" style="fill: none; stroke: #1f77b4; stroke-width: 1.5"/>
    <path clip-path="url(#p8b0061045f)" style="fill: none; stroke: #1f77b4; stroke-width: 1.5"/>
    <path clip-path="url(#p8b0061045f)" style="fill: none; stroke: #1f77b4; stroke-width: 1.5"/>
    <path clip-path="url(#p8b0061045f)" style="fill: none; stroke: #1f77b4; stroke-width: 1.5"/>
    <path clip-path="url(#p8b0061045f)" style="fill: none; stroke: #1f77b4; stroke-width: 1.5"/>
    <path clip-path="url(#p8b0061045f)" style="fill: none; stroke: #1f77b4; stroke-width: 1.5"/>
    <path clip-path="url(#p8b0061045f)" style="fill: none; stroke: #1f77b4; stroke-width: 1.5"/>
    <path clip-path="url(#p8b0061045f)" style="fill: none; stroke: #1f77b4; stroke-width: 1.5"/>
    <path clip-path="url(#p8b0061045f)" style="fill: none; stroke: #1f77b4; stroke-width: 1.5"/>
    <path clip-path="url(#p8b0061045f)" style="fill: none; stroke: #1f77b4; stroke-width: 1.5"/>
    <path clip-path="url(#p8b0061045f)" style="fill: none; stroke: #1f77b4; stroke-width: 1.5"/>
    <path clip-path="url(#p8b0061045f)" style="fill: none; stroke: #1f77b4; stroke-width: 1.5"/>
    <path clip-path="url(#p8b0061045f)" style="fill: none; stroke: #1f77b4; stroke-width: 1.5"/>
    <path clip-path="url(#p8b0061045f)" style="fill: none; stroke: #1f77b4; stroke-width: 1.5"/>
   </g>
   <g id="line2d_27">
    <path d="M 63.225217 260.531622 
L 68.074371 256.168139 
L 70.2969 254.479309 
L 72.115333 253.365025 
L 73.731718 252.628659 
L 75.213404 252.195225 
L 76.627741 252.017221 
L 77.974728 252.073706 
L 79.321715 252.356581 
L 80.668702 252.865938 
L 82.083039 253.637949 
L 83.632074 254.745224 
L 85.383158 256.289427 
L 87.470988 258.453562 
L 90.703758 262.182419 
L 93.801828 265.642674 
L 95.552912 267.284738 
L 96.967248 268.327519 
L 98.179537 268.959172 
L 99.257127 269.277813 
L 100.267367 269.339236 
L 101.210258 269.166162 
L 102.153149 268.750018 
L 103.09604 268.071631 
L 104.038932 267.112977 
L 105.049172 265.755917 
L 106.126762 263.911819 
L 107.271701 261.482492 
L 108.48399 258.361346 
L 109.763627 254.435392 
L 111.177964 249.326551 
L 112.65965 243.101854 
L 114.276035 235.303367 
L 116.027118 225.706454 
L 117.98025 213.681825 
L 120.135429 198.971436 
L 122.694705 179.898045 
L 126.196872 151.962858 
L 132.325664 102.930584 
L 134.817591 84.89639 
L 136.838072 71.801321 
L 138.589155 61.838106 
L 140.13819 54.261146 
L 141.485178 48.711323 
L 142.697466 44.599597 
L 143.775056 41.680258 
L 144.717947 39.712027 
L 145.593489 38.384871 
L 146.334332 37.643483 
L 147.007825 37.275483 
L 147.61397 37.194416 
L 148.220114 37.350535 
L 148.826258 37.743466 
L 149.499752 38.45663 
L 150.240595 39.574879 
L 151.116137 41.341819 
L 152.059028 43.774503 
L 153.136618 47.209686 
L 154.348906 51.878107 
L 155.695893 58.011123 
L 157.177579 65.82453 
L 158.861313 75.925252 
L 160.814445 89.040882 
L 163.171673 106.447731 
L 166.471792 132.658302 
L 173.206728 186.512685 
L 175.833353 205.508613 
L 178.055882 220.005012 
L 180.009014 231.330103 
L 181.760097 240.250982 
L 183.376482 247.40092 
L 184.858168 253.022982 
L 186.272504 257.559415 
L 187.619492 261.139495 
L 188.83178 263.762768 
L 189.976719 265.740393 
L 191.054309 267.17936 
L 192.06455 268.176877 
L 193.007441 268.819582 
L 193.950332 269.202514 
L 194.893223 269.344981 
L 195.836114 269.267215 
L 196.846354 268.963322 
L 197.991294 268.37575 
L 199.270932 267.45956 
L 200.819967 266.059708 
L 202.840448 263.904505 
L 210.04683 255.917683 
L 211.865263 254.388395 
L 213.414298 253.360194 
L 214.895984 252.639298 
L 216.31032 252.203367 
L 217.657308 252.021007 
L 219.004295 252.06317 
L 220.418632 252.34019 
L 221.900318 252.869748 
L 223.516702 253.699345 
L 225.335135 254.901003 
L 227.490315 256.61065 
L 230.521036 259.331215 
L 235.841636 264.120196 
L 238.198864 265.923616 
L 240.219345 267.204505 
L 242.105127 268.142113 
L 243.85621 268.77352 
L 245.607294 269.170511 
L 247.358377 269.338907 
L 249.17681 269.287558 
L 251.129941 269.004195 
L 253.35247 268.444956 
L 256.113794 267.501876 
L 265.273308 264.170386 
L 267.697885 263.631598 
L 269.987763 263.349876 
L 272.210292 263.301393 
L 274.500171 263.479073 
L 276.924748 263.895559 
L 279.686072 264.60208 
L 283.457636 265.818403 
L 290.125223 267.988634 
L 293.155944 268.717511 
L 295.849919 269.14232 
L 298.476544 269.332585 
L 301.170519 269.301447 
L 304.066541 269.042396 
L 307.636057 268.484987 
L 319.0181 266.52302 
L 322.250869 266.304216 
L 325.34894 266.317206 
L 328.649059 266.560342 
L 332.487973 267.078953 
L 346.294592 269.171046 
L 349.864108 269.340188 
L 353.433625 269.285414 
L 357.474586 268.995139 
L 364.074824 268.254341 
L 369.934219 267.687412 
L 374.109879 267.50749 
L 378.150841 267.559583 
L 382.595899 267.84924 
L 389.532883 268.565021 
L 396.065772 269.153624 
L 400.645528 269.337639 
L 405.157936 269.290343 
L 410.411186 269.00095 
L 420.378892 268.283828 
L 420.378892 268.283828 
" clip-path="url(#p8b0061045f)" style="fill: none; stroke: #1f77b4; stroke-width: 1.5; stroke-linecap: square"/>
   </g>
   <g id="LineCollection_2">
    <path clip-path="url(#p8b0061045f)" style="fill: none; stroke: #ff7f0e; stroke-width: 1.5"/>
    <path clip-path="url(#p8b0061045f)" style="fill: none; stroke: #ff7f0e; stroke-width: 1.5"/>
    <path clip-path="url(#p8b0061045f)" style="fill: none; stroke: #ff7f0e; stroke-width: 1.5"/>
    <path clip-path="url(#p8b0061045f)" style="fill: none; stroke: #ff7f0e; stroke-width: 1.5"/>
    <path clip-path="url(#p8b0061045f)" style="fill: none; stroke: #ff7f0e; stroke-width: 1.5"/>
    <path clip-path="url(#p8b0061045f)" style="fill: none; stroke: #ff7f0e; stroke-width: 1.5"/>
    <path d="M 1.836272 265.199059 
L 1.836272 254.082965 
" clip-path="url(#p8b0061045f)" style="fill: none; stroke: #ff7f0e; stroke-width: 1.5"/>
    <path d="M 12.039701 269.03084 
L 12.039701 260.19372 
" clip-path="url(#p8b0061045f)" style="fill: none; stroke: #ff7f0e; stroke-width: 1.5"/>
    <path d="M 22.24313 267.15353 
L 22.24313 257.099762 
" clip-path="url(#p8b0061045f)" style="fill: none; stroke: #ff7f0e; stroke-width: 1.5"/>
    <path d="M 32.446558 273.312 
L 32.446558 270.826366 
" clip-path="url(#p8b0061045f)" style="fill: none; stroke: #ff7f0e; stroke-width: 1.5"/>
    <path d="M 42.649987 269.03084 
L 42.649987 260.19372 
" clip-path="url(#p8b0061045f)" style="fill: none; stroke: #ff7f0e; stroke-width: 1.5"/>
    <path d="M 52.853415 270.793075 
L 52.853415 263.402754 
" clip-path="url(#p8b0061045f)" style="fill: none; stroke: #ff7f0e; stroke-width: 1.5"/>
    <path d="M 63.056844 270.793075 
L 63.056844 263.402754 
" clip-path="url(#p8b0061045f)" style="fill: none; stroke: #ff7f0e; stroke-width: 1.5"/>
    <path d="M 73.260272 261.132392 
L 73.260272 248.207094 
" clip-path="url(#p8b0061045f)" style="fill: none; stroke: #ff7f0e; stroke-width: 1.5"/>
    <path d="M 83.463701 270.793075 
L 83.463701 263.402754 
" clip-path="url(#p8b0061045f)" style="fill: none; stroke: #ff7f0e; stroke-width: 1.5"/>
    <path d="M 93.66713 267.15353 
L 93.66713 257.099762 
" clip-path="url(#p8b0061045f)" style="fill: none; stroke: #ff7f0e; stroke-width: 1.5"/>
    <path d="M 103.870558 270.793075 
L 103.870558 263.402754 
" clip-path="url(#p8b0061045f)" style="fill: none; stroke: #ff7f0e; stroke-width: 1.5"/>
    <path d="M 114.073987 259.041036 
L 114.073987 245.327182 
" clip-path="url(#p8b0061045f)" style="fill: none; stroke: #ff7f0e; stroke-width: 1.5"/>
    <path d="M 124.277415 259.041036 
L 124.277415 245.327182 
" clip-path="url(#p8b0061045f)" style="fill: none; stroke: #ff7f0e; stroke-width: 1.5"/>
    <path d="M 134.480844 267.15353 
L 134.480844 257.099762 
" clip-path="url(#p8b0061045f)" style="fill: none; stroke: #ff7f0e; stroke-width: 1.5"/>
    <path d="M 144.684272 267.15353 
L 144.684272 257.099762 
" clip-path="url(#p8b0061045f)" style="fill: none; stroke: #ff7f0e; stroke-width: 1.5"/>
    <path d="M 154.887701 272.351434 
L 154.887701 266.815664 
" clip-path="url(#p8b0061045f)" style="fill: none; stroke: #ff7f0e; stroke-width: 1.5"/>
    <path d="M 165.09113 234.67218 
L 165.09113 215.012086 
" clip-path="url(#p8b0061045f)" style="fill: none; stroke: #ff7f0e; stroke-width: 1.5"/>
    <path d="M 175.294558 250.413981 
L 175.294558 234.069164 
" clip-path="url(#p8b0061045f)" style="fill: none; stroke: #ff7f0e; stroke-width: 1.5"/>
    <path d="M 185.497987 250.413981 
L 185.497987 234.069164 
" clip-path="url(#p8b0061045f)" style="fill: none; stroke: #ff7f0e; stroke-width: 1.5"/>
    <path d="M 195.701415 265.199059 
L 195.701415 254.082965 
" clip-path="url(#p8b0061045f)" style="fill: none; stroke: #ff7f0e; stroke-width: 1.5"/>
    <path d="M 205.904844 267.15353 
L 205.904844 257.099762 
" clip-path="url(#p8b0061045f)" style="fill: none; stroke: #ff7f0e; stroke-width: 1.5"/>
    <path d="M 216.108272 223.102189 
L 216.108272 201.725734 
" clip-path="url(#p8b0061045f)" style="fill: none; stroke: #ff7f0e; stroke-width: 1.5"/>
    <path d="M 226.311701 147.787472 
L 226.311701 122.931129 
" clip-path="url(#p8b0061045f)" style="fill: none; stroke: #ff7f0e; stroke-width: 1.5"/>
    <path d="M 236.51513 77.877205 
L 236.51513 58.617148 
" clip-path="url(#p8b0061045f)" style="fill: none; stroke: #ff7f0e; stroke-width: 1.5"/>
    <path d="M 246.718558 77.877205 
L 246.718558 58.617148 
" clip-path="url(#p8b0061045f)" style="fill: none; stroke: #ff7f0e; stroke-width: 1.5"/>
    <path d="M 256.921987 157.789521 
L 256.921987 132.814154 
" clip-path="url(#p8b0061045f)" style="fill: none; stroke: #ff7f0e; stroke-width: 1.5"/>
    <path d="M 267.125415 227.756611 
L 267.125415 207.013849 
" clip-path="url(#p8b0061045f)" style="fill: none; stroke: #ff7f0e; stroke-width: 1.5"/>
    <path d="M 277.328844 267.15353 
L 277.328844 257.099762 
" clip-path="url(#p8b0061045f)" style="fill: none; stroke: #ff7f0e; stroke-width: 1.5"/>
    <path d="M 287.532272 267.15353 
L 287.532272 257.099762 
" clip-path="url(#p8b0061045f)" style="fill: none; stroke: #ff7f0e; stroke-width: 1.5"/>
    <path d="M 297.735701 236.957795 
L 297.735701 217.697739 
" clip-path="url(#p8b0061045f)" style="fill: none; stroke: #ff7f0e; stroke-width: 1.5"/>
    <path d="M 307.93913 225.433525 
L 307.93913 204.365667 
" clip-path="url(#p8b0061045f)" style="fill: none; stroke: #ff7f0e; stroke-width: 1.5"/>
    <path d="M 318.142558 248.207094 
L 318.142558 231.304782 
" clip-path="url(#p8b0061045f)" style="fill: none; stroke: #ff7f0e; stroke-width: 1.5"/>
    <path d="M 328.345987 267.15353 
L 328.345987 257.099762 
" clip-path="url(#p8b0061045f)" style="fill: none; stroke: #ff7f0e; stroke-width: 1.5"/>
    <path d="M 338.549415 269.03084 
L 338.549415 260.19372 
" clip-path="url(#p8b0061045f)" style="fill: none; stroke: #ff7f0e; stroke-width: 1.5"/>
    <path d="M 348.752844 270.793075 
L 348.752844 263.402754 
" clip-path="url(#p8b0061045f)" style="fill: none; stroke: #ff7f0e; stroke-width: 1.5"/>
    <path d="M 358.956272 265.199059 
L 358.956272 254.082965 
" clip-path="url(#p8b0061045f)" style="fill: none; stroke: #ff7f0e; stroke-width: 1.5"/>
    <path d="M 369.159701 248.207094 
L 369.159701 231.304782 
" clip-path="url(#p8b0061045f)" style="fill: none; stroke: #ff7f0e; stroke-width: 1.5"/>
    <path d="M 379.36313 267.15353 
L 379.36313 257.099762 
" clip-path="url(#p8b0061045f)" style="fill: none; stroke: #ff7f0e; stroke-width: 1.5"/>
    <path d="M 389.566558 272.351434 
L 389.566558 266.815664 
" clip-path="url(#p8b0061045f)" style="fill: none; stroke: #ff7f0e; stroke-width: 1.5"/>
    <path d="M 399.769987 270.793075 
L 399.769987 263.402754 
" clip-path="url(#p8b0061045f)" style="fill: none; stroke: #ff7f0e; stroke-width: 1.5"/>
    <path d="M 409.973415 269.03084 
L 409.973415 260.19372 
" clip-path="url(#p8b0061045f)" style="fill: none; stroke: #ff7f0e; stroke-width: 1.5"/>
    <path d="M 420.176844 270.793075 
L 420.176844 263.402754 
" clip-path="url(#p8b0061045f)" style="fill: none; stroke: #ff7f0e; stroke-width: 1.5"/>
    <path clip-path="url(#p8b0061045f)" style="fill: none; stroke: #ff7f0e; stroke-width: 1.5"/>
    <path clip-path="url(#p8b0061045f)" style="fill: none; stroke: #ff7f0e; stroke-width: 1.5"/>
    <path clip-path="url(#p8b0061045f)" style="fill: none; stroke: #ff7f0e; stroke-width: 1.5"/>
    <path clip-path="url(#p8b0061045f)" style="fill: none; stroke: #ff7f0e; stroke-width: 1.5"/>
    <path clip-path="url(#p8b0061045f)" style="fill: none; stroke: #ff7f0e; stroke-width: 1.5"/>
    <path clip-path="url(#p8b0061045f)" style="fill: none; stroke: #ff7f0e; stroke-width: 1.5"/>
    <path clip-path="url(#p8b0061045f)" style="fill: none; stroke: #ff7f0e; stroke-width: 1.5"/>
    <path clip-path="url(#p8b0061045f)" style="fill: none; stroke: #ff7f0e; stroke-width: 1.5"/>
    <path clip-path="url(#p8b0061045f)" style="fill: none; stroke: #ff7f0e; stroke-width: 1.5"/>
    <path clip-path="url(#p8b0061045f)" style="fill: none; stroke: #ff7f0e; stroke-width: 1.5"/>
    <path clip-path="url(#p8b0061045f)" style="fill: none; stroke: #ff7f0e; stroke-width: 1.5"/>
    <path clip-path="url(#p8b0061045f)" style="fill: none; stroke: #ff7f0e; stroke-width: 1.5"/>
    <path clip-path="url(#p8b0061045f)" style="fill: none; stroke: #ff7f0e; stroke-width: 1.5"/>
   </g>
   <g id="line2d_28">
    <path d="M 63.225217 261.752884 
L 65.447746 261.409883 
L 67.535577 261.305962 
L 69.623407 261.42529 
L 71.711237 261.765139 
L 74.001115 262.370576 
L 76.627741 263.310511 
L 80.331956 264.903263 
L 85.046411 266.892001 
L 87.470988 267.672996 
L 89.558818 268.117868 
L 91.444601 268.296259 
L 93.263033 268.24253 
L 95.014117 267.968784 
L 96.7652 267.474646 
L 98.650982 266.704374 
L 100.671463 265.629234 
L 102.961342 264.151204 
L 106.059412 261.860673 
L 111.64941 257.69046 
L 113.871939 256.330391 
L 115.757721 255.425499 
L 117.441455 254.854895 
L 118.99049 254.55287 
L 120.539526 254.479858 
L 122.021212 254.631266 
L 123.570247 255.020592 
L 125.186632 255.669558 
L 126.870366 256.588589 
L 128.823497 257.921988 
L 131.180725 259.817791 
L 138.723854 266.11394 
L 140.474937 267.169799 
L 141.956623 267.821202 
L 143.30361 268.184922 
L 144.583248 268.304333 
L 145.795537 268.197162 
L 147.007825 267.863306 
L 148.220114 267.294532 
L 149.499752 266.434842 
L 150.846739 265.242835 
L 152.261076 263.682333 
L 153.810111 261.629938 
L 155.561195 258.919371 
L 157.581676 255.361663 
L 160.27565 250.12204 
L 166.269743 238.308945 
L 168.222875 235.026737 
L 169.83926 232.722817 
L 171.253596 231.082537 
L 172.465885 229.99388 
L 173.610824 229.258909 
L 174.621064 228.861063 
L 175.563956 228.710131 
L 176.506847 228.77716 
L 177.449738 229.064854 
L 178.459978 229.61825 
L 179.537568 230.48485 
L 180.682507 231.709635 
L 181.962145 233.431316 
L 183.376482 235.733707 
L 184.992866 238.814658 
L 186.945998 243.044904 
L 189.90937 250.076338 
L 193.411537 258.275168 
L 195.22997 261.990726 
L 196.711656 264.532556 
L 197.923944 266.195725 
L 199.001534 267.303631 
L 199.944425 267.952123 
L 200.752618 268.248298 
L 201.493461 268.295077 
L 202.234304 268.115424 
L 202.975147 267.699139 
L 203.783339 266.964353 
L 204.591531 265.92655 
L 205.534422 264.321079 
L 206.544663 262.117397 
L 207.622253 259.205273 
L 208.834541 255.22978 
L 210.114179 250.231995 
L 211.528516 243.767575 
L 213.077551 235.597733 
L 214.828635 225.083084 
L 216.781766 211.931053 
L 219.138994 194.427372 
L 222.304414 169.082784 
L 228.298507 120.858379 
L 230.588386 104.388079 
L 232.474168 92.359828 
L 234.090552 83.417656 
L 235.504889 76.777806 
L 236.784527 71.812737 
L 237.862117 68.447982 
L 238.872357 66.000316 
L 239.747899 64.447786 
L 240.488742 63.554024 
L 241.162236 63.079045 
L 241.76838 62.927888 
L 242.307175 63.013692 
L 242.913319 63.357657 
L 243.519463 63.962645 
L 244.260306 65.053976 
L 245.068499 66.68073 
L 246.01139 69.143022 
L 247.02163 72.437115 
L 248.166569 76.958332 
L 249.446207 82.94767 
L 250.927893 91.020992 
L 252.611627 101.513187 
L 254.564759 115.154673 
L 257.056685 134.262239 
L 261.367045 169.427579 
L 265.07126 198.879816 
L 267.495837 216.448392 
L 269.516318 229.535906 
L 271.267401 239.50946 
L 272.883786 247.466412 
L 274.298122 253.387078 
L 275.64511 258.09577 
L 276.857398 261.551597 
L 277.934988 264.005749 
L 278.945229 265.787855 
L 279.88812 267.010008 
L 280.763661 267.775895 
L 281.571854 268.179423 
L 282.312697 268.304081 
L 283.05354 268.204882 
L 283.861732 267.854703 
L 284.737274 267.208355 
L 285.680165 266.225885 
L 286.757755 264.775174 
L 288.037393 262.657614 
L 289.586428 259.627022 
L 291.606909 255.127758 
L 299.082688 237.921037 
L 300.766422 234.852012 
L 302.248108 232.605149 
L 303.527746 231.049851 
L 304.672685 229.982619 
L 305.750275 229.269151 
L 306.760516 228.86145 
L 307.703407 228.709889 
L 308.646298 228.777607 
L 309.589189 229.060464 
L 310.599429 229.594981 
L 311.677019 230.41736 
L 312.889308 231.634114 
L 314.236295 233.315994 
L 315.78533 235.624813 
L 317.603763 238.750362 
L 320.02834 243.398951 
L 327.167373 257.38366 
L 329.187854 260.697493 
L 330.938937 263.148264 
L 332.487973 264.943401 
L 333.902309 266.254225 
L 335.249296 267.20167 
L 336.528934 267.828219 
L 337.741223 268.179783 
L 338.953511 268.303892 
L 340.1658 268.212336 
L 341.445438 267.898673 
L 342.859775 267.318567 
L 344.476159 266.397971 
L 346.361941 265.04963 
L 348.921217 262.91431 
L 354.713263 257.991315 
L 356.801093 256.562832 
L 358.619526 255.587005 
L 360.23591 254.964412 
L 361.784946 254.601777 
L 363.266632 254.476309 
L 364.748318 254.566823 
L 366.297353 254.884548 
L 367.913738 255.44278 
L 369.732171 256.316609 
L 371.820001 257.58384 
L 374.446626 259.457814 
L 382.191803 265.162038 
L 384.414332 266.428787 
L 386.367463 267.295098 
L 388.185896 267.867907 
L 389.93698 268.195828 
L 391.688063 268.304344 
L 393.506496 268.194925 
L 395.459627 267.84828 
L 397.614807 267.232849 
L 400.241432 266.238644 
L 405.629381 263.877199 
L 408.862151 262.620895 
L 411.286728 261.909122 
L 413.509257 261.486557 
L 415.597087 261.313977 
L 417.684917 261.365301 
L 419.840097 261.644471 
L 420.378892 261.747731 
L 420.378892 261.747731 
" clip-path="url(#p8b0061045f)" style="fill: none; stroke: #ff7f0e; stroke-width: 1.5; stroke-linecap: square"/>
   </g>
   <g id="LineCollection_3">
    <path clip-path="url(#p8b0061045f)" style="fill: none; stroke: #2ca02c; stroke-width: 1.5"/>
    <path clip-path="url(#p8b0061045f)" style="fill: none; stroke: #2ca02c; stroke-width: 1.5"/>
    <path clip-path="url(#p8b0061045f)" style="fill: none; stroke: #2ca02c; stroke-width: 1.5"/>
    <path clip-path="url(#p8b0061045f)" style="fill: none; stroke: #2ca02c; stroke-width: 1.5"/>
    <path clip-path="url(#p8b0061045f)" style="fill: none; stroke: #2ca02c; stroke-width: 1.5"/>
    <path clip-path="url(#p8b0061045f)" style="fill: none; stroke: #2ca02c; stroke-width: 1.5"/>
    <path d="M 1.836272 269.03084 
L 1.836272 260.19372 
" clip-path="url(#p8b0061045f)" style="fill: none; stroke: #2ca02c; stroke-width: 1.5"/>
    <path d="M 12.039701 265.199059 
L 12.039701 254.082965 
" clip-path="url(#p8b0061045f)" style="fill: none; stroke: #2ca02c; stroke-width: 1.5"/>
    <path d="M 22.24313 265.199059 
L 22.24313 254.082965 
" clip-path="url(#p8b0061045f)" style="fill: none; stroke: #2ca02c; stroke-width: 1.5"/>
    <path d="M 32.446558 267.15353 
L 32.446558 257.099762 
" clip-path="url(#p8b0061045f)" style="fill: none; stroke: #2ca02c; stroke-width: 1.5"/>
    <path d="M 42.649987 265.199059 
L 42.649987 254.082965 
" clip-path="url(#p8b0061045f)" style="fill: none; stroke: #2ca02c; stroke-width: 1.5"/>
    <path d="M 52.853415 265.199059 
L 52.853415 254.082965 
" clip-path="url(#p8b0061045f)" style="fill: none; stroke: #2ca02c; stroke-width: 1.5"/>
    <path d="M 63.056844 259.041036 
L 63.056844 245.327182 
" clip-path="url(#p8b0061045f)" style="fill: none; stroke: #2ca02c; stroke-width: 1.5"/>
    <path d="M 73.260272 265.199059 
L 73.260272 254.082965 
" clip-path="url(#p8b0061045f)" style="fill: none; stroke: #2ca02c; stroke-width: 1.5"/>
    <path d="M 83.463701 272.351434 
L 83.463701 266.815664 
" clip-path="url(#p8b0061045f)" style="fill: none; stroke: #2ca02c; stroke-width: 1.5"/>
    <path d="M 93.66713 270.793075 
L 93.66713 263.402754 
" clip-path="url(#p8b0061045f)" style="fill: none; stroke: #2ca02c; stroke-width: 1.5"/>
    <path d="M 103.870558 269.03084 
L 103.870558 260.19372 
" clip-path="url(#p8b0061045f)" style="fill: none; stroke: #2ca02c; stroke-width: 1.5"/>
    <path d="M 114.073987 269.03084 
L 114.073987 260.19372 
" clip-path="url(#p8b0061045f)" style="fill: none; stroke: #2ca02c; stroke-width: 1.5"/>
    <path d="M 124.277415 267.15353 
L 124.277415 257.099762 
" clip-path="url(#p8b0061045f)" style="fill: none; stroke: #2ca02c; stroke-width: 1.5"/>
    <path d="M 134.480844 270.793075 
L 134.480844 263.402754 
" clip-path="url(#p8b0061045f)" style="fill: none; stroke: #2ca02c; stroke-width: 1.5"/>
    <path d="M 144.684272 272.351434 
L 144.684272 266.815664 
" clip-path="url(#p8b0061045f)" style="fill: none; stroke: #2ca02c; stroke-width: 1.5"/>
    <path d="M 154.887701 267.15353 
L 154.887701 257.099762 
" clip-path="url(#p8b0061045f)" style="fill: none; stroke: #2ca02c; stroke-width: 1.5"/>
    <path d="M 165.09113 272.351434 
L 165.09113 266.815664 
" clip-path="url(#p8b0061045f)" style="fill: none; stroke: #2ca02c; stroke-width: 1.5"/>
    <path d="M 175.294558 272.351434 
L 175.294558 266.815664 
" clip-path="url(#p8b0061045f)" style="fill: none; stroke: #2ca02c; stroke-width: 1.5"/>
    <path d="M 185.497987 265.199059 
L 185.497987 254.082965 
" clip-path="url(#p8b0061045f)" style="fill: none; stroke: #2ca02c; stroke-width: 1.5"/>
    <path d="M 195.701415 269.03084 
L 195.701415 260.19372 
" clip-path="url(#p8b0061045f)" style="fill: none; stroke: #2ca02c; stroke-width: 1.5"/>
    <path d="M 205.904844 267.15353 
L 205.904844 257.099762 
" clip-path="url(#p8b0061045f)" style="fill: none; stroke: #2ca02c; stroke-width: 1.5"/>
    <path d="M 216.108272 261.132392 
L 216.108272 248.207094 
" clip-path="url(#p8b0061045f)" style="fill: none; stroke: #2ca02c; stroke-width: 1.5"/>
    <path d="M 226.311701 267.15353 
L 226.311701 257.099762 
" clip-path="url(#p8b0061045f)" style="fill: none; stroke: #2ca02c; stroke-width: 1.5"/>
    <path d="M 236.51513 270.793075 
L 236.51513 263.402754 
" clip-path="url(#p8b0061045f)" style="fill: none; stroke: #2ca02c; stroke-width: 1.5"/>
    <path d="M 246.718558 269.03084 
L 246.718558 260.19372 
" clip-path="url(#p8b0061045f)" style="fill: none; stroke: #2ca02c; stroke-width: 1.5"/>
    <path d="M 256.921987 254.772602 
L 256.921987 239.653079 
" clip-path="url(#p8b0061045f)" style="fill: none; stroke: #2ca02c; stroke-width: 1.5"/>
    <path d="M 267.125415 254.772602 
L 267.125415 239.653079 
" clip-path="url(#p8b0061045f)" style="fill: none; stroke: #2ca02c; stroke-width: 1.5"/>
    <path d="M 277.328844 245.984216 
L 277.328844 228.556392 
" clip-path="url(#p8b0061045f)" style="fill: none; stroke: #2ca02c; stroke-width: 1.5"/>
    <path d="M 287.532272 267.15353 
L 287.532272 257.099762 
" clip-path="url(#p8b0061045f)" style="fill: none; stroke: #2ca02c; stroke-width: 1.5"/>
    <path d="M 297.735701 269.03084 
L 297.735701 260.19372 
" clip-path="url(#p8b0061045f)" style="fill: none; stroke: #2ca02c; stroke-width: 1.5"/>
    <path d="M 307.93913 265.199059 
L 307.93913 254.082965 
" clip-path="url(#p8b0061045f)" style="fill: none; stroke: #2ca02c; stroke-width: 1.5"/>
    <path d="M 318.142558 206.577397 
L 318.142558 183.451646 
" clip-path="url(#p8b0061045f)" style="fill: none; stroke: #2ca02c; stroke-width: 1.5"/>
    <path d="M 328.345987 155.296464 
L 328.345987 130.335943 
" clip-path="url(#p8b0061045f)" style="fill: none; stroke: #2ca02c; stroke-width: 1.5"/>
    <path d="M 338.549415 50.247762 
L 338.549415 36.533907 
" clip-path="url(#p8b0061045f)" style="fill: none; stroke: #2ca02c; stroke-width: 1.5"/>
    <path d="M 348.752844 61.50578 
L 348.752844 45.160963 
" clip-path="url(#p8b0061045f)" style="fill: none; stroke: #2ca02c; stroke-width: 1.5"/>
    <path d="M 358.956272 109.532995 
L 358.956272 86.61658 
" clip-path="url(#p8b0061045f)" style="fill: none; stroke: #2ca02c; stroke-width: 1.5"/>
    <path d="M 369.159701 204.190195 
L 369.159701 180.86758 
" clip-path="url(#p8b0061045f)" style="fill: none; stroke: #2ca02c; stroke-width: 1.5"/>
    <path d="M 379.36313 245.984216 
L 379.36313 228.556392 
" clip-path="url(#p8b0061045f)" style="fill: none; stroke: #2ca02c; stroke-width: 1.5"/>
    <path d="M 389.566558 272.351434 
L 389.566558 266.815664 
" clip-path="url(#p8b0061045f)" style="fill: none; stroke: #2ca02c; stroke-width: 1.5"/>
    <path d="M 399.769987 270.793075 
L 399.769987 263.402754 
" clip-path="url(#p8b0061045f)" style="fill: none; stroke: #2ca02c; stroke-width: 1.5"/>
    <path d="M 409.973415 250.413981 
L 409.973415 234.069164 
" clip-path="url(#p8b0061045f)" style="fill: none; stroke: #2ca02c; stroke-width: 1.5"/>
    <path d="M 420.176844 252.603177 
L 420.176844 236.851236 
" clip-path="url(#p8b0061045f)" style="fill: none; stroke: #2ca02c; stroke-width: 1.5"/>
    <path clip-path="url(#p8b0061045f)" style="fill: none; stroke: #2ca02c; stroke-width: 1.5"/>
    <path clip-path="url(#p8b0061045f)" style="fill: none; stroke: #2ca02c; stroke-width: 1.5"/>
    <path clip-path="url(#p8b0061045f)" style="fill: none; stroke: #2ca02c; stroke-width: 1.5"/>
    <path clip-path="url(#p8b0061045f)" style="fill: none; stroke: #2ca02c; stroke-width: 1.5"/>
    <path clip-path="url(#p8b0061045f)" style="fill: none; stroke: #2ca02c; stroke-width: 1.5"/>
    <path clip-path="url(#p8b0061045f)" style="fill: none; stroke: #2ca02c; stroke-width: 1.5"/>
    <path clip-path="url(#p8b0061045f)" style="fill: none; stroke: #2ca02c; stroke-width: 1.5"/>
    <path clip-path="url(#p8b0061045f)" style="fill: none; stroke: #2ca02c; stroke-width: 1.5"/>
    <path clip-path="url(#p8b0061045f)" style="fill: none; stroke: #2ca02c; stroke-width: 1.5"/>
    <path clip-path="url(#p8b0061045f)" style="fill: none; stroke: #2ca02c; stroke-width: 1.5"/>
    <path clip-path="url(#p8b0061045f)" style="fill: none; stroke: #2ca02c; stroke-width: 1.5"/>
    <path clip-path="url(#p8b0061045f)" style="fill: none; stroke: #2ca02c; stroke-width: 1.5"/>
    <path clip-path="url(#p8b0061045f)" style="fill: none; stroke: #2ca02c; stroke-width: 1.5"/>
   </g>
   <g id="line2d_29">
    <path d="M 63.225217 265.566414 
L 67.872323 265.543498 
L 72.654128 265.748706 
L 79.254366 266.284384 
L 86.595446 266.829088 
L 91.040504 266.928908 
L 95.216165 266.796965 
L 99.728572 266.423635 
L 107.4064 265.511146 
L 112.794349 264.992412 
L 116.767961 264.832108 
L 120.539526 264.904086 
L 124.513138 265.206677 
L 129.833738 265.856149 
L 137.04012 266.710998 
L 140.744335 266.916255 
L 144.111803 266.881304 
L 147.411922 266.625488 
L 151.048787 266.114755 
L 156.03264 265.16551 
L 162.43083 263.978175 
L 165.865647 263.576586 
L 168.896369 263.445273 
L 171.792391 263.540246 
L 174.823113 263.864688 
L 178.325279 264.475296 
L 190.246117 266.773082 
L 192.940091 266.927303 
L 195.432018 266.849757 
L 197.923944 266.545822 
L 200.48322 266.004211 
L 203.311893 265.170229 
L 206.948759 263.847091 
L 213.818394 261.308389 
L 216.512369 260.58519 
L 218.802247 260.192869 
L 220.957427 260.045846 
L 223.045257 260.125562 
L 225.133087 260.425808 
L 227.355616 260.973291 
L 229.847543 261.825042 
L 233.080312 263.184623 
L 239.007056 265.710512 
L 241.296934 266.420647 
L 243.250066 266.803018 
L 245.001149 266.929366 
L 246.684883 266.831185 
L 248.301268 266.517965 
L 249.917653 265.981733 
L 251.601387 265.185186 
L 253.35247 264.108075 
L 255.305602 262.632471 
L 257.528131 260.657138 
L 260.424154 257.757295 
L 266.418247 251.676675 
L 268.506077 249.919254 
L 270.257161 248.725039 
L 271.806196 247.931061 
L 273.220533 247.451404 
L 274.56752 247.23157 
L 275.847158 247.24852 
L 277.126796 247.491673 
L 278.406434 247.962136 
L 279.753421 248.698304 
L 281.167758 249.724795 
L 282.784142 251.18838 
L 284.602575 253.149829 
L 286.959803 256.049266 
L 292.684499 263.248191 
L 294.300883 264.860532 
L 295.647871 265.909313 
L 296.79281 266.53657 
L 297.80305 266.854036 
L 298.745941 266.925628 
L 299.621483 266.778696 
L 300.497025 266.409456 
L 301.372567 265.802381 
L 302.315458 264.86598 
L 303.325698 263.518994 
L 304.403288 261.670191 
L 305.548227 259.21902 
L 306.760516 256.057 
L 308.040154 252.07 
L 309.387141 247.141615 
L 310.868827 240.852296 
L 312.485212 232.97036 
L 314.236295 223.276564 
L 316.189427 211.149178 
L 318.411956 195.867751 
L 321.10593 175.676322 
L 325.214241 142.915643 
L 329.793998 106.868878 
L 332.285924 88.986484 
L 334.306405 76.008577 
L 336.057489 66.148337 
L 337.606524 58.666647 
L 338.953511 53.204395 
L 340.1658 49.175962 
L 341.24339 46.33449 
L 342.186281 44.437373 
L 342.994473 43.258116 
L 343.735316 42.54424 
L 344.40881 42.20231 
L 345.014954 42.145527 
L 345.621098 42.326653 
L 346.227243 42.74524 
L 346.900736 43.487564 
L 347.641579 44.63851 
L 348.517121 46.444621 
L 349.460012 48.919641 
L 350.537602 52.402588 
L 351.749891 57.122647 
L 353.096878 63.308393 
L 354.645913 71.553178 
L 356.396997 82.173877 
L 358.417478 95.877725 
L 360.909404 114.4105 
L 364.680968 144.385559 
L 369.79952 184.801516 
L 372.426145 203.783668 
L 374.648674 218.296282 
L 376.601806 229.639151 
L 378.352889 238.567728 
L 379.969274 245.710639 
L 381.45096 251.309737 
L 382.865296 255.806501 
L 384.144934 259.171874 
L 385.357223 261.760819 
L 386.502162 263.690547 
L 387.579752 265.07049 
L 388.589992 266.000474 
L 389.532883 266.569747 
L 390.408425 266.856696 
L 391.283967 266.92717 
L 392.226858 266.780074 
L 393.237098 266.389868 
L 394.382038 265.690665 
L 395.661676 264.634361 
L 397.210711 263.04699 
L 399.231192 260.626193 
L 406.370224 251.758808 
L 408.121308 250.080189 
L 409.670343 248.887696 
L 411.08468 248.066644 
L 412.431667 247.536471 
L 413.711305 247.265814 
L 414.990943 247.221762 
L 416.270581 247.398857 
L 417.617568 247.813096 
L 419.031905 248.48152 
L 420.378892 249.318482 
L 420.378892 249.318482 
" clip-path="url(#p8b0061045f)" style="fill: none; stroke: #2ca02c; stroke-width: 1.5; stroke-linecap: square"/>
   </g>
   <g id="line2d_30">
    <defs>
     <path id="mcceb8b8273" d="M 0 3 
C 0.795609 3 1.55874 2.683901 2.12132 2.12132 
C 2.683901 1.55874 3 0.795609 3 0 
C 3 -0.795609 2.683901 -1.55874 2.12132 -2.12132 
C 1.55874 -2.683901 0.795609 -3 0 -3 
C -0.795609 -3 -1.55874 -2.683901 -2.12132 -2.12132 
C -2.683901 -1.55874 -3 -0.795609 -3 0 
C -3 0.795609 -2.683901 1.55874 -2.12132 2.12132 
C -1.55874 2.683901 -0.795609 3 0 3 
z
" style="stroke: #1f77b4"/>
    </defs>
    <g clip-path="url(#p8b0061045f)">
     <use xlink:href="#mcceb8b8273" x="-1" y="266.406977" style="fill: #1f77b4; stroke: #1f77b4"/>
     <use xlink:href="#mcceb8b8273" x="1.836272" y="267.097914" style="fill: #1f77b4; stroke: #1f77b4"/>
     <use xlink:href="#mcceb8b8273" x="12.039701" y="262.126646" style="fill: #1f77b4; stroke: #1f77b4"/>
     <use xlink:href="#mcceb8b8273" x="22.24313" y="267.097914" style="fill: #1f77b4; stroke: #1f77b4"/>
     <use xlink:href="#mcceb8b8273" x="32.446558" y="264.61228" style="fill: #1f77b4; stroke: #1f77b4"/>
     <use xlink:href="#mcceb8b8273" x="42.649987" y="269.583549" style="fill: #1f77b4; stroke: #1f77b4"/>
     <use xlink:href="#mcceb8b8273" x="52.853415" y="267.097914" style="fill: #1f77b4; stroke: #1f77b4"/>
     <use xlink:href="#mcceb8b8273" x="63.056844" y="249.698475" style="fill: #1f77b4; stroke: #1f77b4"/>
     <use xlink:href="#mcceb8b8273" x="73.260272" y="247.212841" style="fill: #1f77b4; stroke: #1f77b4"/>
     <use xlink:href="#mcceb8b8273" x="83.463701" y="252.184109" style="fill: #1f77b4; stroke: #1f77b4"/>
     <use xlink:href="#mcceb8b8273" x="93.66713" y="259.641012" style="fill: #1f77b4; stroke: #1f77b4"/>
     <use xlink:href="#mcceb8b8273" x="103.870558" y="262.126646" style="fill: #1f77b4; stroke: #1f77b4"/>
     <use xlink:href="#mcceb8b8273" x="114.073987" y="242.241572" style="fill: #1f77b4; stroke: #1f77b4"/>
     <use xlink:href="#mcceb8b8273" x="124.277415" y="160.215643" style="fill: #1f77b4; stroke: #1f77b4"/>
     <use xlink:href="#mcceb8b8273" x="134.480844" y="90.617885" style="fill: #1f77b4; stroke: #1f77b4"/>
     <use xlink:href="#mcceb8b8273" x="144.684272" y="35.933932" style="fill: #1f77b4; stroke: #1f77b4"/>
     <use xlink:href="#mcceb8b8273" x="154.887701" y="63.275908" style="fill: #1f77b4; stroke: #1f77b4"/>
     <use xlink:href="#mcceb8b8273" x="165.09113" y="125.416764" style="fill: #1f77b4; stroke: #1f77b4"/>
     <use xlink:href="#mcceb8b8273" x="175.294558" y="199.98579" style="fill: #1f77b4; stroke: #1f77b4"/>
     <use xlink:href="#mcceb8b8273" x="185.497987" y="259.641012" style="fill: #1f77b4; stroke: #1f77b4"/>
     <use xlink:href="#mcceb8b8273" x="195.701415" y="259.641012" style="fill: #1f77b4; stroke: #1f77b4"/>
     <use xlink:href="#mcceb8b8273" x="205.904844" y="257.155378" style="fill: #1f77b4; stroke: #1f77b4"/>
     <use xlink:href="#mcceb8b8273" x="216.108272" y="254.669743" style="fill: #1f77b4; stroke: #1f77b4"/>
     <use xlink:href="#mcceb8b8273" x="226.311701" y="247.212841" style="fill: #1f77b4; stroke: #1f77b4"/>
     <use xlink:href="#mcceb8b8273" x="236.51513" y="252.184109" style="fill: #1f77b4; stroke: #1f77b4"/>
     <use xlink:href="#mcceb8b8273" x="246.718558" y="259.641012" style="fill: #1f77b4; stroke: #1f77b4"/>
     <use xlink:href="#mcceb8b8273" x="256.921987" y="272.069183" style="fill: #1f77b4; stroke: #1f77b4"/>
     <use xlink:href="#mcceb8b8273" x="267.125415" y="264.61228" style="fill: #1f77b4; stroke: #1f77b4"/>
     <use xlink:href="#mcceb8b8273" x="277.328844" y="257.155378" style="fill: #1f77b4; stroke: #1f77b4"/>
     <use xlink:href="#mcceb8b8273" x="287.532272" y="267.097914" style="fill: #1f77b4; stroke: #1f77b4"/>
     <use xlink:href="#mcceb8b8273" x="297.735701" y="267.097914" style="fill: #1f77b4; stroke: #1f77b4"/>
     <use xlink:href="#mcceb8b8273" x="307.93913" y="264.61228" style="fill: #1f77b4; stroke: #1f77b4"/>
     <use xlink:href="#mcceb8b8273" x="318.142558" y="259.641012" style="fill: #1f77b4; stroke: #1f77b4"/>
     <use xlink:href="#mcceb8b8273" x="328.345987" y="262.126646" style="fill: #1f77b4; stroke: #1f77b4"/>
     <use xlink:href="#mcceb8b8273" x="338.549415" y="267.097914" style="fill: #1f77b4; stroke: #1f77b4"/>
     <use xlink:href="#mcceb8b8273" x="348.752844" y="257.155378" style="fill: #1f77b4; stroke: #1f77b4"/>
     <use xlink:href="#mcceb8b8273" x="358.956272" y="272.069183" style="fill: #1f77b4; stroke: #1f77b4"/>
     <use xlink:href="#mcceb8b8273" x="369.159701" y="262.126646" style="fill: #1f77b4; stroke: #1f77b4"/>
     <use xlink:href="#mcceb8b8273" x="379.36313" y="262.126646" style="fill: #1f77b4; stroke: #1f77b4"/>
     <use xlink:href="#mcceb8b8273" x="389.566558" y="272.069183" style="fill: #1f77b4; stroke: #1f77b4"/>
     <use xlink:href="#mcceb8b8273" x="399.769987" y="267.097914" style="fill: #1f77b4; stroke: #1f77b4"/>
     <use xlink:href="#mcceb8b8273" x="409.973415" y="257.155378" style="fill: #1f77b4; stroke: #1f77b4"/>
     <use xlink:href="#mcceb8b8273" x="420.176844" y="257.155378" style="fill: #1f77b4; stroke: #1f77b4"/>
     <use xlink:href="#mcceb8b8273" x="430.380272" y="252.184109" style="fill: #1f77b4; stroke: #1f77b4"/>
     <use xlink:href="#mcceb8b8273" x="440.583701" y="254.669743" style="fill: #1f77b4; stroke: #1f77b4"/>
     <use xlink:href="#mcceb8b8273" x="450.78713" y="257.155378" style="fill: #1f77b4; stroke: #1f77b4"/>
     <use xlink:href="#mcceb8b8273" x="460.990558" y="259.641012" style="fill: #1f77b4; stroke: #1f77b4"/>
     <use xlink:href="#mcceb8b8273" x="471.193987" y="262.126646" style="fill: #1f77b4; stroke: #1f77b4"/>
     <use xlink:href="#mcceb8b8273" x="481.397415" y="267.097914" style="fill: #1f77b4; stroke: #1f77b4"/>
     <use xlink:href="#mcceb8b8273" x="491.600844" y="267.097914" style="fill: #1f77b4; stroke: #1f77b4"/>
     <use xlink:href="#mcceb8b8273" x="501.804272" y="264.61228" style="fill: #1f77b4; stroke: #1f77b4"/>
     <use xlink:href="#mcceb8b8273" x="512.007701" y="264.61228" style="fill: #1f77b4; stroke: #1f77b4"/>
     <use xlink:href="#mcceb8b8273" x="522.21113" y="257.155378" style="fill: #1f77b4; stroke: #1f77b4"/>
     <use xlink:href="#mcceb8b8273" x="532.414558" y="267.097914" style="fill: #1f77b4; stroke: #1f77b4"/>
     <use xlink:href="#mcceb8b8273" x="542.617987" y="267.097914" style="fill: #1f77b4; stroke: #1f77b4"/>
     <use xlink:href="#mcceb8b8273" x="552.821415" y="267.097914" style="fill: #1f77b4; stroke: #1f77b4"/>
    </g>
   </g>
   <g id="line2d_31">
    <defs>
     <path id="mff6e4f8517" d="M 0 3 
C 0.795609 3 1.55874 2.683901 2.12132 2.12132 
C 2.683901 1.55874 3 0.795609 3 0 
C 3 -0.795609 2.683901 -1.55874 2.12132 -2.12132 
C 1.55874 -2.683901 0.795609 -3 0 -3 
C -0.795609 -3 -1.55874 -2.683901 -2.12132 -2.12132 
C -2.683901 -1.55874 -3 -0.795609 -3 0 
C -3 0.795609 -2.683901 1.55874 -2.12132 2.12132 
C -1.55874 2.683901 -0.795609 3 0 3 
z
" style="stroke: #ff7f0e"/>
    </defs>
    <g clip-path="url(#p8b0061045f)">
     <use xlink:href="#mff6e4f8517" x="-1" y="261.713826" style="fill: #ff7f0e; stroke: #ff7f0e"/>
     <use xlink:href="#mff6e4f8517" x="1.836272" y="259.641012" style="fill: #ff7f0e; stroke: #ff7f0e"/>
     <use xlink:href="#mff6e4f8517" x="12.039701" y="264.61228" style="fill: #ff7f0e; stroke: #ff7f0e"/>
     <use xlink:href="#mff6e4f8517" x="22.24313" y="262.126646" style="fill: #ff7f0e; stroke: #ff7f0e"/>
     <use xlink:href="#mff6e4f8517" x="32.446558" y="272.069183" style="fill: #ff7f0e; stroke: #ff7f0e"/>
     <use xlink:href="#mff6e4f8517" x="42.649987" y="264.61228" style="fill: #ff7f0e; stroke: #ff7f0e"/>
     <use xlink:href="#mff6e4f8517" x="52.853415" y="267.097914" style="fill: #ff7f0e; stroke: #ff7f0e"/>
     <use xlink:href="#mff6e4f8517" x="63.056844" y="267.097914" style="fill: #ff7f0e; stroke: #ff7f0e"/>
     <use xlink:href="#mff6e4f8517" x="73.260272" y="254.669743" style="fill: #ff7f0e; stroke: #ff7f0e"/>
     <use xlink:href="#mff6e4f8517" x="83.463701" y="267.097914" style="fill: #ff7f0e; stroke: #ff7f0e"/>
     <use xlink:href="#mff6e4f8517" x="93.66713" y="262.126646" style="fill: #ff7f0e; stroke: #ff7f0e"/>
     <use xlink:href="#mff6e4f8517" x="103.870558" y="267.097914" style="fill: #ff7f0e; stroke: #ff7f0e"/>
     <use xlink:href="#mff6e4f8517" x="114.073987" y="252.184109" style="fill: #ff7f0e; stroke: #ff7f0e"/>
     <use xlink:href="#mff6e4f8517" x="124.277415" y="252.184109" style="fill: #ff7f0e; stroke: #ff7f0e"/>
     <use xlink:href="#mff6e4f8517" x="134.480844" y="262.126646" style="fill: #ff7f0e; stroke: #ff7f0e"/>
     <use xlink:href="#mff6e4f8517" x="144.684272" y="262.126646" style="fill: #ff7f0e; stroke: #ff7f0e"/>
     <use xlink:href="#mff6e4f8517" x="154.887701" y="269.583549" style="fill: #ff7f0e; stroke: #ff7f0e"/>
     <use xlink:href="#mff6e4f8517" x="165.09113" y="224.842133" style="fill: #ff7f0e; stroke: #ff7f0e"/>
     <use xlink:href="#mff6e4f8517" x="175.294558" y="242.241572" style="fill: #ff7f0e; stroke: #ff7f0e"/>
     <use xlink:href="#mff6e4f8517" x="185.497987" y="242.241572" style="fill: #ff7f0e; stroke: #ff7f0e"/>
     <use xlink:href="#mff6e4f8517" x="195.701415" y="259.641012" style="fill: #ff7f0e; stroke: #ff7f0e"/>
     <use xlink:href="#mff6e4f8517" x="205.904844" y="262.126646" style="fill: #ff7f0e; stroke: #ff7f0e"/>
     <use xlink:href="#mff6e4f8517" x="216.108272" y="212.413962" style="fill: #ff7f0e; stroke: #ff7f0e"/>
     <use xlink:href="#mff6e4f8517" x="226.311701" y="135.359301" style="fill: #ff7f0e; stroke: #ff7f0e"/>
     <use xlink:href="#mff6e4f8517" x="236.51513" y="68.247177" style="fill: #ff7f0e; stroke: #ff7f0e"/>
     <use xlink:href="#mff6e4f8517" x="246.718558" y="68.247177" style="fill: #ff7f0e; stroke: #ff7f0e"/>
     <use xlink:href="#mff6e4f8517" x="256.921987" y="145.301837" style="fill: #ff7f0e; stroke: #ff7f0e"/>
     <use xlink:href="#mff6e4f8517" x="267.125415" y="217.38523" style="fill: #ff7f0e; stroke: #ff7f0e"/>
     <use xlink:href="#mff6e4f8517" x="277.328844" y="262.126646" style="fill: #ff7f0e; stroke: #ff7f0e"/>
     <use xlink:href="#mff6e4f8517" x="287.532272" y="262.126646" style="fill: #ff7f0e; stroke: #ff7f0e"/>
     <use xlink:href="#mff6e4f8517" x="297.735701" y="227.327767" style="fill: #ff7f0e; stroke: #ff7f0e"/>
     <use xlink:href="#mff6e4f8517" x="307.93913" y="214.899596" style="fill: #ff7f0e; stroke: #ff7f0e"/>
     <use xlink:href="#mff6e4f8517" x="318.142558" y="239.755938" style="fill: #ff7f0e; stroke: #ff7f0e"/>
     <use xlink:href="#mff6e4f8517" x="328.345987" y="262.126646" style="fill: #ff7f0e; stroke: #ff7f0e"/>
     <use xlink:href="#mff6e4f8517" x="338.549415" y="264.61228" style="fill: #ff7f0e; stroke: #ff7f0e"/>
     <use xlink:href="#mff6e4f8517" x="348.752844" y="267.097914" style="fill: #ff7f0e; stroke: #ff7f0e"/>
     <use xlink:href="#mff6e4f8517" x="358.956272" y="259.641012" style="fill: #ff7f0e; stroke: #ff7f0e"/>
     <use xlink:href="#mff6e4f8517" x="369.159701" y="239.755938" style="fill: #ff7f0e; stroke: #ff7f0e"/>
     <use xlink:href="#mff6e4f8517" x="379.36313" y="262.126646" style="fill: #ff7f0e; stroke: #ff7f0e"/>
     <use xlink:href="#mff6e4f8517" x="389.566558" y="269.583549" style="fill: #ff7f0e; stroke: #ff7f0e"/>
     <use xlink:href="#mff6e4f8517" x="399.769987" y="267.097914" style="fill: #ff7f0e; stroke: #ff7f0e"/>
     <use xlink:href="#mff6e4f8517" x="409.973415" y="264.61228" style="fill: #ff7f0e; stroke: #ff7f0e"/>
     <use xlink:href="#mff6e4f8517" x="420.176844" y="267.097914" style="fill: #ff7f0e; stroke: #ff7f0e"/>
     <use xlink:href="#mff6e4f8517" x="430.380272" y="259.641012" style="fill: #ff7f0e; stroke: #ff7f0e"/>
     <use xlink:href="#mff6e4f8517" x="440.583701" y="267.097914" style="fill: #ff7f0e; stroke: #ff7f0e"/>
     <use xlink:href="#mff6e4f8517" x="450.78713" y="262.126646" style="fill: #ff7f0e; stroke: #ff7f0e"/>
     <use xlink:href="#mff6e4f8517" x="460.990558" y="267.097914" style="fill: #ff7f0e; stroke: #ff7f0e"/>
     <use xlink:href="#mff6e4f8517" x="471.193987" y="254.669743" style="fill: #ff7f0e; stroke: #ff7f0e"/>
     <use xlink:href="#mff6e4f8517" x="481.397415" y="262.126646" style="fill: #ff7f0e; stroke: #ff7f0e"/>
     <use xlink:href="#mff6e4f8517" x="491.600844" y="267.097914" style="fill: #ff7f0e; stroke: #ff7f0e"/>
     <use xlink:href="#mff6e4f8517" x="501.804272" y="257.155378" style="fill: #ff7f0e; stroke: #ff7f0e"/>
     <use xlink:href="#mff6e4f8517" x="512.007701" y="257.155378" style="fill: #ff7f0e; stroke: #ff7f0e"/>
     <use xlink:href="#mff6e4f8517" x="522.21113" y="237.270304" style="fill: #ff7f0e; stroke: #ff7f0e"/>
     <use xlink:href="#mff6e4f8517" x="532.414558" y="234.78467" style="fill: #ff7f0e; stroke: #ff7f0e"/>
     <use xlink:href="#mff6e4f8517" x="542.617987" y="264.61228" style="fill: #ff7f0e; stroke: #ff7f0e"/>
     <use xlink:href="#mff6e4f8517" x="552.821415" y="249.698475" style="fill: #ff7f0e; stroke: #ff7f0e"/>
    </g>
   </g>
   <g id="line2d_32">
    <defs>
     <path id="m5b2af9e1fb" d="M 0 3 
C 0.795609 3 1.55874 2.683901 2.12132 2.12132 
C 2.683901 1.55874 3 0.795609 3 0 
C 3 -0.795609 2.683901 -1.55874 2.12132 -2.12132 
C 1.55874 -2.683901 0.795609 -3 0 -3 
C -0.795609 -3 -1.55874 -2.683901 -2.12132 -2.12132 
C -2.683901 -1.55874 -3 -0.795609 -3 0 
C -3 0.795609 -2.683901 1.55874 -2.12132 2.12132 
C -1.55874 2.683901 -0.795609 3 0 3 
z
" style="stroke: #2ca02c"/>
    </defs>
    <g clip-path="url(#p8b0061045f)">
     <use xlink:href="#m5b2af9e1fb" x="-1" y="265.303218" style="fill: #2ca02c; stroke: #2ca02c"/>
     <use xlink:href="#m5b2af9e1fb" x="1.836272" y="264.61228" style="fill: #2ca02c; stroke: #2ca02c"/>
     <use xlink:href="#m5b2af9e1fb" x="12.039701" y="259.641012" style="fill: #2ca02c; stroke: #2ca02c"/>
     <use xlink:href="#m5b2af9e1fb" x="22.24313" y="259.641012" style="fill: #2ca02c; stroke: #2ca02c"/>
     <use xlink:href="#m5b2af9e1fb" x="32.446558" y="262.126646" style="fill: #2ca02c; stroke: #2ca02c"/>
     <use xlink:href="#m5b2af9e1fb" x="42.649987" y="259.641012" style="fill: #2ca02c; stroke: #2ca02c"/>
     <use xlink:href="#m5b2af9e1fb" x="52.853415" y="259.641012" style="fill: #2ca02c; stroke: #2ca02c"/>
     <use xlink:href="#m5b2af9e1fb" x="63.056844" y="252.184109" style="fill: #2ca02c; stroke: #2ca02c"/>
     <use xlink:href="#m5b2af9e1fb" x="73.260272" y="259.641012" style="fill: #2ca02c; stroke: #2ca02c"/>
     <use xlink:href="#m5b2af9e1fb" x="83.463701" y="269.583549" style="fill: #2ca02c; stroke: #2ca02c"/>
     <use xlink:href="#m5b2af9e1fb" x="93.66713" y="267.097914" style="fill: #2ca02c; stroke: #2ca02c"/>
     <use xlink:href="#m5b2af9e1fb" x="103.870558" y="264.61228" style="fill: #2ca02c; stroke: #2ca02c"/>
     <use xlink:href="#m5b2af9e1fb" x="114.073987" y="264.61228" style="fill: #2ca02c; stroke: #2ca02c"/>
     <use xlink:href="#m5b2af9e1fb" x="124.277415" y="262.126646" style="fill: #2ca02c; stroke: #2ca02c"/>
     <use xlink:href="#m5b2af9e1fb" x="134.480844" y="267.097914" style="fill: #2ca02c; stroke: #2ca02c"/>
     <use xlink:href="#m5b2af9e1fb" x="144.684272" y="269.583549" style="fill: #2ca02c; stroke: #2ca02c"/>
     <use xlink:href="#m5b2af9e1fb" x="154.887701" y="262.126646" style="fill: #2ca02c; stroke: #2ca02c"/>
     <use xlink:href="#m5b2af9e1fb" x="165.09113" y="269.583549" style="fill: #2ca02c; stroke: #2ca02c"/>
     <use xlink:href="#m5b2af9e1fb" x="175.294558" y="269.583549" style="fill: #2ca02c; stroke: #2ca02c"/>
     <use xlink:href="#m5b2af9e1fb" x="185.497987" y="259.641012" style="fill: #2ca02c; stroke: #2ca02c"/>
     <use xlink:href="#m5b2af9e1fb" x="195.701415" y="264.61228" style="fill: #2ca02c; stroke: #2ca02c"/>
     <use xlink:href="#m5b2af9e1fb" x="205.904844" y="262.126646" style="fill: #2ca02c; stroke: #2ca02c"/>
     <use xlink:href="#m5b2af9e1fb" x="216.108272" y="254.669743" style="fill: #2ca02c; stroke: #2ca02c"/>
     <use xlink:href="#m5b2af9e1fb" x="226.311701" y="262.126646" style="fill: #2ca02c; stroke: #2ca02c"/>
     <use xlink:href="#m5b2af9e1fb" x="236.51513" y="267.097914" style="fill: #2ca02c; stroke: #2ca02c"/>
     <use xlink:href="#m5b2af9e1fb" x="246.718558" y="264.61228" style="fill: #2ca02c; stroke: #2ca02c"/>
     <use xlink:href="#m5b2af9e1fb" x="256.921987" y="247.212841" style="fill: #2ca02c; stroke: #2ca02c"/>
     <use xlink:href="#m5b2af9e1fb" x="267.125415" y="247.212841" style="fill: #2ca02c; stroke: #2ca02c"/>
     <use xlink:href="#m5b2af9e1fb" x="277.328844" y="237.270304" style="fill: #2ca02c; stroke: #2ca02c"/>
     <use xlink:href="#m5b2af9e1fb" x="287.532272" y="262.126646" style="fill: #2ca02c; stroke: #2ca02c"/>
     <use xlink:href="#m5b2af9e1fb" x="297.735701" y="264.61228" style="fill: #2ca02c; stroke: #2ca02c"/>
     <use xlink:href="#m5b2af9e1fb" x="307.93913" y="259.641012" style="fill: #2ca02c; stroke: #2ca02c"/>
     <use xlink:href="#m5b2af9e1fb" x="318.142558" y="195.014522" style="fill: #2ca02c; stroke: #2ca02c"/>
     <use xlink:href="#m5b2af9e1fb" x="328.345987" y="142.816203" style="fill: #2ca02c; stroke: #2ca02c"/>
     <use xlink:href="#m5b2af9e1fb" x="338.549415" y="43.390834" style="fill: #2ca02c; stroke: #2ca02c"/>
     <use xlink:href="#m5b2af9e1fb" x="348.752844" y="53.333371" style="fill: #2ca02c; stroke: #2ca02c"/>
     <use xlink:href="#m5b2af9e1fb" x="358.956272" y="98.074787" style="fill: #2ca02c; stroke: #2ca02c"/>
     <use xlink:href="#m5b2af9e1fb" x="369.159701" y="192.528888" style="fill: #2ca02c; stroke: #2ca02c"/>
     <use xlink:href="#m5b2af9e1fb" x="379.36313" y="237.270304" style="fill: #2ca02c; stroke: #2ca02c"/>
     <use xlink:href="#m5b2af9e1fb" x="389.566558" y="269.583549" style="fill: #2ca02c; stroke: #2ca02c"/>
     <use xlink:href="#m5b2af9e1fb" x="399.769987" y="267.097914" style="fill: #2ca02c; stroke: #2ca02c"/>
     <use xlink:href="#m5b2af9e1fb" x="409.973415" y="242.241572" style="fill: #2ca02c; stroke: #2ca02c"/>
     <use xlink:href="#m5b2af9e1fb" x="420.176844" y="244.727206" style="fill: #2ca02c; stroke: #2ca02c"/>
     <use xlink:href="#m5b2af9e1fb" x="430.380272" y="262.126646" style="fill: #2ca02c; stroke: #2ca02c"/>
     <use xlink:href="#m5b2af9e1fb" x="440.583701" y="267.097914" style="fill: #2ca02c; stroke: #2ca02c"/>
     <use xlink:href="#m5b2af9e1fb" x="450.78713" y="267.097914" style="fill: #2ca02c; stroke: #2ca02c"/>
     <use xlink:href="#m5b2af9e1fb" x="460.990558" y="249.698475" style="fill: #2ca02c; stroke: #2ca02c"/>
     <use xlink:href="#m5b2af9e1fb" x="471.193987" y="259.641012" style="fill: #2ca02c; stroke: #2ca02c"/>
     <use xlink:href="#m5b2af9e1fb" x="481.397415" y="264.61228" style="fill: #2ca02c; stroke: #2ca02c"/>
     <use xlink:href="#m5b2af9e1fb" x="491.600844" y="267.097914" style="fill: #2ca02c; stroke: #2ca02c"/>
     <use xlink:href="#m5b2af9e1fb" x="501.804272" y="262.126646" style="fill: #2ca02c; stroke: #2ca02c"/>
     <use xlink:href="#m5b2af9e1fb" x="512.007701" y="267.097914" style="fill: #2ca02c; stroke: #2ca02c"/>
     <use xlink:href="#m5b2af9e1fb" x="522.21113" y="264.61228" style="fill: #2ca02c; stroke: #2ca02c"/>
     <use xlink:href="#m5b2af9e1fb" x="532.414558" y="259.641012" style="fill: #2ca02c; stroke: #2ca02c"/>
     <use xlink:href="#m5b2af9e1fb" x="542.617987" y="267.097914" style="fill: #2ca02c; stroke: #2ca02c"/>
     <use xlink:href="#m5b2af9e1fb" x="552.821415" y="264.61228" style="fill: #2ca02c; stroke: #2ca02c"/>
    </g>
   </g>
   <g id="patch_3">
    <path d="M 63.254688 273.312 
L 63.254688 7.2 
" style="fill: none; stroke: #000000; stroke-width: 0.8; stroke-linejoin: miter; stroke-linecap: square"/>
   </g>
   <g id="patch_4">
    <path d="M 420.374688 273.312 
L 420.374688 7.2 
" style="fill: none; stroke: #000000; stroke-width: 0.8; stroke-linejoin: miter; stroke-linecap: square"/>
   </g>
   <g id="patch_5">
    <path d="M 63.254688 273.312 
L 420.374688 273.312 
" style="fill: none; stroke: #000000; stroke-width: 0.8; stroke-linejoin: miter; stroke-linecap: square"/>
   </g>
   <g id="patch_6">
    <path d="M 63.254688 7.2 
L 420.374688 7.2 
" style="fill: none; stroke: #000000; stroke-width: 0.8; stroke-linejoin: miter; stroke-linecap: square"/>
   </g>
   <g id="legend_1">
    <g id="patch_7">
     <path d="M 88.448047 32.168281 
L 395.181328 32.168281 
Q 397.381328 32.168281 397.381328 29.968281 
L 397.381328 14.9 
Q 397.381328 12.7 395.181328 12.7 
L 88.448047 12.7 
Q 86.248047 12.7 86.248047 14.9 
L 86.248047 29.968281 
Q 86.248047 32.168281 88.448047 32.168281 
z
" style="fill: #ffffff; opacity: 0.8; stroke: #cccccc; stroke-linejoin: miter"/>
    </g>
    <g id="LineCollection_4">
     <path d="M 101.648047 27.108281 
L 101.648047 16.108281 
" style="fill: none; stroke: #1f77b4; stroke-width: 1.5"/>
    </g>
    <g id="line2d_33"/>
    <g id="line2d_34">
     <g>
      <use xlink:href="#mcceb8b8273" x="101.648047" y="21.608281" style="fill: #1f77b4; stroke: #1f77b4"/>
     </g>
    </g>
    <g id="text_16">
     <!-- Dress $+y$ -->
     <g transform="translate(121.448047 25.458281) scale(0.11 -0.11)">
      <defs>
       <path id="DejaVuSans-2b" d="M 2944 4013 
L 2944 2272 
L 4684 2272 
L 4684 1741 
L 2944 1741 
L 2944 0 
L 2419 0 
L 2419 1741 
L 678 1741 
L 678 2272 
L 2419 2272 
L 2419 4013 
L 2944 4013 
z
" transform="scale(0.015625)"/>
       <path id="DejaVuSans-Oblique-79" d="M 1588 -325 
Q 1188 -997 936 -1164 
Q 684 -1331 294 -1331 
L -159 -1331 
L -63 -850 
L 269 -850 
Q 509 -850 678 -719 
Q 847 -588 1056 -206 
L 1234 128 
L 459 3500 
L 1069 3500 
L 1650 819 
L 3256 3500 
L 3859 3500 
L 1588 -325 
z
" transform="scale(0.015625)"/>
      </defs>
      <use xlink:href="#DejaVuSans-44" transform="translate(0 0.09375)"/>
      <use xlink:href="#DejaVuSans-72" transform="translate(77.001953 0.09375)"/>
      <use xlink:href="#DejaVuSans-65" transform="translate(118.115234 0.09375)"/>
      <use xlink:href="#DejaVuSans-73" transform="translate(179.638672 0.09375)"/>
      <use xlink:href="#DejaVuSans-73" transform="translate(231.738281 0.09375)"/>
      <use xlink:href="#DejaVuSans-20" transform="translate(283.837891 0.09375)"/>
      <use xlink:href="#DejaVuSans-2b" transform="translate(315.625 0.09375)"/>
      <use xlink:href="#DejaVuSans-Oblique-79" transform="translate(399.414062 0.09375)"/>
     </g>
    </g>
    <g id="LineCollection_5">
     <path d="M 204.938047 27.108281 
L 204.938047 16.108281 
" style="fill: none; stroke: #ff7f0e; stroke-width: 1.5"/>
    </g>
    <g id="line2d_35"/>
    <g id="line2d_36">
     <g>
      <use xlink:href="#mff6e4f8517" x="204.938047" y="21.608281" style="fill: #ff7f0e; stroke: #ff7f0e"/>
     </g>
    </g>
    <g id="text_17">
     <!-- No dressing -->
     <g transform="translate(224.738047 25.458281) scale(0.11 -0.11)">
      <defs>
       <path id="DejaVuSans-4e" d="M 628 4666 
L 1478 4666 
L 3547 763 
L 3547 4666 
L 4159 4666 
L 4159 0 
L 3309 0 
L 1241 3903 
L 1241 0 
L 628 0 
L 628 4666 
z
" transform="scale(0.015625)"/>
       <path id="DejaVuSans-64" d="M 2906 2969 
L 2906 4863 
L 3481 4863 
L 3481 0 
L 2906 0 
L 2906 525 
Q 2725 213 2448 61 
Q 2172 -91 1784 -91 
Q 1150 -91 751 415 
Q 353 922 353 1747 
Q 353 2572 751 3078 
Q 1150 3584 1784 3584 
Q 2172 3584 2448 3432 
Q 2725 3281 2906 2969 
z
M 947 1747 
Q 947 1113 1208 752 
Q 1469 391 1925 391 
Q 2381 391 2643 752 
Q 2906 1113 2906 1747 
Q 2906 2381 2643 2742 
Q 2381 3103 1925 3103 
Q 1469 3103 1208 2742 
Q 947 2381 947 1747 
z
" transform="scale(0.015625)"/>
      </defs>
      <use xlink:href="#DejaVuSans-4e"/>
      <use xlink:href="#DejaVuSans-6f" x="74.804688"/>
      <use xlink:href="#DejaVuSans-20" x="135.986328"/>
      <use xlink:href="#DejaVuSans-64" x="167.773438"/>
      <use xlink:href="#DejaVuSans-72" x="231.25"/>
      <use xlink:href="#DejaVuSans-65" x="270.113281"/>
      <use xlink:href="#DejaVuSans-73" x="331.636719"/>
      <use xlink:href="#DejaVuSans-73" x="383.736328"/>
      <use xlink:href="#DejaVuSans-69" x="435.835938"/>
      <use xlink:href="#DejaVuSans-6e" x="463.619141"/>
      <use xlink:href="#DejaVuSans-67" x="526.998047"/>
     </g>
    </g>
    <g id="LineCollection_6">
     <path d="M 322.691328 27.108281 
L 322.691328 16.108281 
" style="fill: none; stroke: #2ca02c; stroke-width: 1.5"/>
    </g>
    <g id="line2d_37"/>
    <g id="line2d_38">
     <g>
      <use xlink:href="#m5b2af9e1fb" x="322.691328" y="21.608281" style="fill: #2ca02c; stroke: #2ca02c"/>
     </g>
    </g>
    <g id="text_18">
     <!-- Dress $-y$ -->
     <g transform="translate(342.491328 25.458281) scale(0.11 -0.11)">
      <use xlink:href="#DejaVuSans-44" transform="translate(0 0.09375)"/>
      <use xlink:href="#DejaVuSans-72" transform="translate(77.001953 0.09375)"/>
      <use xlink:href="#DejaVuSans-65" transform="translate(118.115234 0.09375)"/>
      <use xlink:href="#DejaVuSans-73" transform="translate(179.638672 0.09375)"/>
      <use xlink:href="#DejaVuSans-73" transform="translate(231.738281 0.09375)"/>
      <use xlink:href="#DejaVuSans-20" transform="translate(283.837891 0.09375)"/>
      <use xlink:href="#DejaVuSans-2212" transform="translate(315.625 0.09375)"/>
      <use xlink:href="#DejaVuSans-Oblique-79" transform="translate(399.414062 0.09375)"/>
     </g>
    </g>
   </g>
  </g>
 </g>
 <defs>
  <clipPath id="p8b0061045f">
   <rect x="63.254688" y="7.2" width="357.12" height="266.112"/>
  </clipPath>
 </defs>
</svg>
