<?xml version="1.0" encoding="UTF-8"?><svg id="Layer_1" xmlns="http://www.w3.org/2000/svg" width="5.2476in" height="1.1201in" xmlns:xlink="http://www.w3.org/1999/xlink" viewBox="0 0 377.8265 80.6465"><defs><style>.cls-1{fill:url(#linear-gradient);fill-rule:evenodd;}.cls-1,.cls-2,.cls-3,.cls-4{stroke-width:0px;}.cls-5{fill:none;stroke:#6451a2;stroke-miterlimit:10;stroke-width:.75px;}.cls-2{fill:url(#linear-gradient-2);}.cls-3{fill:#58595b;}.cls-4{fill:#231f20;}</style><linearGradient id="linear-gradient" x1="2.781" y1="38.0934" x2="81.1302" y2="38.0934" gradientUnits="userSpaceOnUse"><stop offset="0" stop-color="#fff166"/><stop offset=".0582" stop-color="#f0e55f"/><stop offset=".1308" stop-color="#e4dc5a"/><stop offset=".2083" stop-color="#e1da59"/><stop offset=".4871" stop-color="#24b34b"/><stop offset=".7874" stop-color="#21777e"/><stop offset="1" stop-color="#2e3192"/></linearGradient><linearGradient id="linear-gradient-2" x1="54.7302" y1="72.3572" x2="87.7936" y2="72.3572" gradientTransform="translate(53.7806 -11.4705) rotate(29.0314) scale(.9161 .8106) skewX(-14.3756)" gradientUnits="userSpaceOnUse"><stop offset="0" stop-color="#fff166"/><stop offset="0" stop-color="#f0e55f"/><stop offset="0" stop-color="#e4dc5a"/><stop offset="0" stop-color="#e1da59"/><stop offset="0" stop-color="#24b34b"/><stop offset=".3951" stop-color="#21777e"/><stop offset=".9717" stop-color="#2e3192"/></linearGradient></defs><path class="cls-4" d="M104.0447,26.3642h-2.2891l-.9453-.9688c-1.0054.6465-2.125.9688-3.3594.9688-1.5991,0-3.0186-.541-4.2578-1.625-1.3491-1.1924-2.0234-2.7158-2.0234-4.5703,0-1.8174.6377-3.333,1.9141-4.5469,1.2393-1.1768,2.7031-1.7656,4.3906-1.7656,1.5312,0,2.9033.5156,4.1172,1.5469,1.458,1.2402,2.1875,2.8574,2.1875,4.8516,0,1.5625-.5757,2.9512-1.7266,4.1641l1.9922,1.9453ZM99.0369,21.372l1.75,1.7422c.7705-.8018,1.1562-1.7939,1.1562-2.9766,0-1.2969-.4297-2.3828-1.2891-3.2578s-1.9272-1.3125-3.2031-1.3125c-1.292,0-2.3545.4375-3.1875,1.3125-.8389.8701-1.2578,1.9717-1.2578,3.3047,0,1.3027.4321,2.3672,1.2969,3.1953.9009.8545,1.9297,1.2812,3.0859,1.2812.7861,0,1.4971-.1797,2.1328-.5391l-2.8359-2.75h2.3516Z"/><path class="cls-4" d="M108.1605,14.083v7.2656c0,1.0371.1689,1.7949.5078,2.2734.5049.6934,1.2158,1.0391,2.1328,1.0391.9219,0,1.6353-.3457,2.1406-1.0391.3384-.4629.5078-1.2207.5078-2.2734v-7.2656h1.8203v7.7656c0,1.2715-.396,2.3184-1.1875,3.1406-.8906.917-1.9844,1.375-3.2812,1.375s-2.3882-.458-3.2734-1.375c-.792-.8223-1.1875-1.8691-1.1875-3.1406v-7.7656h1.8203Z"/><path class="cls-4" d="M125.0027,23.2158h-5.1641l-1.3438,2.9297h-1.9609l5.9688-12.8203,5.7578,12.8203h-1.9922l-1.2656-2.9297ZM124.2606,21.5048l-1.7891-4.1016-1.875,4.1016h3.6641Z"/><path class="cls-4" d="M130.0403,26.1455v-12.8828l8.7969,9.2031v-8.3828h1.8203v12.7969l-8.7969-9.1797v8.4453h-1.8203Z"/><path class="cls-4" d="M147.1482,15.7939v10.3516h-1.8203v-10.3516h-2.7734v-1.7109h7.3594v1.7109h-2.7656Z"/><path class="cls-4" d="M153.6312,14.083v7.2656c0,1.0371.1689,1.7949.5078,2.2734.5049.6934,1.2158,1.0391,2.1328,1.0391.9219,0,1.6353-.3457,2.1406-1.0391.3384-.4629.5078-1.2207.5078-2.2734v-7.2656h1.8203v7.7656c0,1.2715-.396,2.3184-1.1875,3.1406-.8906.917-1.9844,1.375-3.2812,1.375s-2.3882-.458-3.2734-1.375c-.792-.8223-1.1875-1.8691-1.1875-3.1406v-7.7656h1.8203Z"/><path class="cls-4" d="M163.4813,26.1455l2.5391-12.9688,4.1406,9.375,4.2891-9.375,2.2812,12.9688h-1.8672l-1.1641-7.2812-3.5703,7.8359-3.4688-7.8438-1.2969,7.2891h-1.8828Z"/><path class="cls-4" d="M191.5877,15.8798l-1.4766.875c-.2764-.4785-.5391-.791-.7891-.9375-.2607-.166-.5967-.25-1.0078-.25-.5049,0-.9248.1436-1.2578.4297-.333.2812-.5.6357-.5,1.0625,0,.5889.4375,1.0625,1.3125,1.4219l1.2031.4922c.9795.3965,1.6953.8789,2.1484,1.4492s.6797,1.2695.6797,2.0977c0,1.1094-.3701,2.0264-1.1094,2.75-.7451.7295-1.6689,1.0938-2.7734,1.0938-1.0469,0-1.9111-.3096-2.5938-.9297-.6719-.6191-1.0908-1.4922-1.2578-2.6172l1.8438-.4062c.083.709.2295,1.1982.4375,1.4688.375.5215.9219.7812,1.6406.7812.5674,0,1.0391-.1895,1.4141-.5703.375-.3799.5625-.8613.5625-1.4453,0-.2344-.0322-.4492-.0977-.6445s-.167-.375-.3047-.5391-.3164-.3174-.5352-.4609c-.2188-.1426-.4795-.2793-.7812-.4102l-1.1641-.4844c-1.6514-.6973-2.4766-1.7188-2.4766-3.0625,0-.9062.3467-1.6641,1.0391-2.2734.6924-.6143,1.5547-.9219,2.5859-.9219,1.3906,0,2.4766.6777,3.2578,2.0312Z"/><path class="cls-4" d="M196.6961,20.9345l-3.9375-6.8516h2.0938l2.7578,4.8203,2.7656-4.8203h2.0938l-3.9531,6.8516v5.2109h-1.8203v-5.2109Z"/><path class="cls-4" d="M210.5857,15.8798l-1.4766.875c-.2764-.4785-.5391-.791-.7891-.9375-.2607-.166-.5967-.25-1.0078-.25-.5059,0-.9248.1436-1.2578.4297-.334.2812-.5.6357-.5,1.0625,0,.5889.4375,1.0625,1.3125,1.4219l1.2031.4922c.9785.3965,1.6953.8789,2.1484,1.4492s.6797,1.2695.6797,2.0977c0,1.1094-.3701,2.0264-1.1094,2.75-.7451.7295-1.6699,1.0938-2.7734,1.0938-1.0469,0-1.9121-.3096-2.5938-.9297-.6719-.6191-1.0918-1.4922-1.2578-2.6172l1.8438-.4062c.083.709.2285,1.1982.4375,1.4688.375.5215.9219.7812,1.6406.7812.5674,0,1.0391-.1895,1.4141-.5703.375-.3799.5625-.8613.5625-1.4453,0-.2344-.0332-.4492-.0977-.6445-.0654-.1953-.167-.375-.3047-.5391-.1387-.1641-.3164-.3174-.5352-.4609-.2188-.1426-.4795-.2793-.7812-.4102l-1.1641-.4844c-1.6514-.6973-2.4766-1.7188-2.4766-3.0625,0-.9062.3457-1.6641,1.0391-2.2734.6924-.6143,1.5547-.9219,2.5859-.9219,1.3906,0,2.4766.6777,3.2578,2.0312Z"/><path class="cls-4" d="M216.9197,15.7939v10.3516h-1.8203v-10.3516h-2.7734v-1.7109h7.3594v1.7109h-2.7656Z"/><path class="cls-4" d="M228.2391,15.7939h-4.8359v2.8984h4.6953v1.7109h-4.6953v4.0312h4.8359v1.7109h-6.6563v-12.0625h6.6563v1.7109Z"/><path class="cls-4" d="M230.4793,26.1455l2.5391-12.9688,4.1406,9.375,4.2891-9.375,2.2812,12.9688h-1.8672l-1.1641-7.2812-3.5703,7.8359-3.4688-7.8438-1.2969,7.2891h-1.8828Z"/><path class="cls-4" d="M253.3768,15.8798l-1.4766.875c-.2764-.4785-.5391-.791-.7891-.9375-.2607-.166-.5967-.25-1.0078-.25-.5059,0-.9248.1436-1.2578.4297-.334.2812-.5.6357-.5,1.0625,0,.5889.4375,1.0625,1.3125,1.4219l1.2031.4922c.9785.3965,1.6953.8789,2.1484,1.4492s.6797,1.2695.6797,2.0977c0,1.1094-.3701,2.0264-1.1094,2.75-.7451.7295-1.6699,1.0938-2.7734,1.0938-1.0469,0-1.9121-.3096-2.5938-.9297-.6719-.6191-1.0918-1.4922-1.2578-2.6172l1.8438-.4062c.083.709.2285,1.1982.4375,1.4688.375.5215.9219.7812,1.6406.7812.5674,0,1.0391-.1895,1.4141-.5703.375-.3799.5625-.8613.5625-1.4453,0-.2344-.0332-.4492-.0977-.6445-.0654-.1953-.167-.375-.3047-.5391-.1387-.1641-.3164-.3174-.5352-.4609-.2188-.1426-.4795-.2793-.7812-.4102l-1.1641-.4844c-1.6514-.6973-2.4766-1.7188-2.4766-3.0625,0-.9062.3457-1.6641,1.0391-2.2734.6924-.6143,1.5547-.9219,2.5859-.9219,1.3906,0,2.4766.6777,3.2578,2.0312Z"/><path class="cls-4" d="M268.452,23.2158h-5.1641l-1.3438,2.9297h-1.9609l5.9688-12.8203,5.7578,12.8203h-1.9922l-1.2656-2.9297ZM267.7098,21.5048l-1.7891-4.1016-1.875,4.1016h3.6641Z"/><path class="cls-4" d="M281.8406,14.7314v2.1562c-1.0518-.8799-2.1406-1.3203-3.2656-1.3203-1.2393,0-2.2842.4453-3.1328,1.3359-.8545.8857-1.2812,1.9688-1.2812,3.25,0,1.2656.4268,2.334,1.2812,3.2031.8545.8701,1.9014,1.3047,3.1406,1.3047.6406,0,1.1846-.1035,1.6328-.3125.25-.1035.5088-.2441.7773-.4219.2686-.1768.5508-.3906.8477-.6406v2.1953c-1.042.5889-2.1357.8828-3.2812.8828-1.7236,0-3.1953-.6016-4.4141-1.8047-1.2139-1.2129-1.8203-2.6768-1.8203-4.3906,0-1.5361.5078-2.9062,1.5234-4.1094,1.25-1.4736,2.8672-2.2109,4.8516-2.2109,1.083,0,2.1299.2949,3.1406.8828Z"/><path class="cls-4" d="M293.324,14.7314v2.1562c-1.0527-.8799-2.1406-1.3203-3.2656-1.3203-1.2402,0-2.2842.4453-3.1328,1.3359-.8545.8857-1.2812,1.9688-1.2812,3.25,0,1.2656.4268,2.334,1.2812,3.2031.8535.8701,1.9004,1.3047,3.1406,1.3047.6406,0,1.1846-.1035,1.6328-.3125.25-.1035.5088-.2441.7773-.4219.2676-.1768.5508-.3906.8477-.6406v2.1953c-1.042.5889-2.1357.8828-3.2812.8828-1.7246,0-3.1953-.6016-4.4141-1.8047-1.2139-1.2129-1.8203-2.6768-1.8203-4.3906,0-1.5361.5078-2.9062,1.5234-4.1094,1.25-1.4736,2.8672-2.2109,4.8516-2.2109,1.083,0,2.1299.2949,3.1406.8828Z"/><path class="cls-4" d="M302.5486,15.7939h-4.8359v2.8984h4.6953v1.7109h-4.6953v4.0312h4.8359v1.7109h-6.6562v-12.0625h6.6562v1.7109Z"/><path class="cls-4" d="M307.032,14.083v10.3516h3.5469v1.7109h-5.3672v-12.0625h1.8203Z"/><path class="cls-4" d="M319.2332,15.7939h-4.8359v2.8984h4.6953v1.7109h-4.6953v4.0312h4.8359v1.7109h-6.6562v-12.0625h6.6562v1.7109Z"/><path class="cls-4" d="M325.9822,21.0048l3.7344,5.1406h-2.2266l-3.4453-4.9375h-.3281v4.9375h-1.8203v-12.0625h2.1328c1.5938,0,2.7441.2998,3.4531.8984.7812.667,1.1719,1.5469,1.1719,2.6406,0,.8545-.2451,1.5889-.7344,2.2031-.4902.6152-1.1357,1.0078-1.9375,1.1797ZM323.7166,19.622h.5781c1.7236,0,2.5859-.6582,2.5859-1.9766,0-1.2344-.8389-1.8516-2.5156-1.8516h-.6484v3.8281Z"/><path class="cls-4" d="M338.8865,23.2158h-5.1641l-1.3438,2.9297h-1.9609l5.9688-12.8203,5.7578,12.8203h-1.9922l-1.2656-2.9297ZM338.1443,21.5048l-1.7891-4.1016-1.875,4.1016h3.6641Z"/><path class="cls-4" d="M346.5809,15.7939v10.3516h-1.8203v-10.3516h-2.7734v-1.7109h7.3594v1.7109h-2.7656Z"/><path class="cls-4" d="M350.2586,20.0595c0-1.6973.6221-3.1562,1.8672-4.375,1.2393-1.2188,2.7295-1.8281,4.4688-1.8281,1.7188,0,3.1924.6152,4.4219,1.8438,1.2344,1.2295,1.8516,2.7061,1.8516,4.4297,0,1.7344-.6201,3.2061-1.8594,4.4141-1.2451,1.2139-2.7471,1.8203-4.5078,1.8203-1.5576,0-2.9561-.5391-4.1953-1.6172-1.3643-1.1924-2.0469-2.7549-2.0469-4.6875ZM352.0945,20.083c0,1.334.4482,2.4297,1.3438,3.2891.8906.8594,1.9189,1.2891,3.0859,1.2891,1.2656,0,2.333-.4375,3.2031-1.3125.8701-.8848,1.3047-1.9629,1.3047-3.2344,0-1.2861-.4297-2.3643-1.2891-3.2344-.8545-.875-1.9111-1.3125-3.1719-1.3125-1.2549,0-2.3154.4375-3.1797,1.3125-.8643.8652-1.2969,1.9326-1.2969,3.2031Z"/><path class="cls-4" d="M369.5154,21.0048l3.7344,5.1406h-2.2266l-3.4453-4.9375h-.3281v4.9375h-1.8203v-12.0625h2.1328c1.5938,0,2.7441.2998,3.4531.8984.7812.667,1.1719,1.5469,1.1719,2.6406,0,.8545-.2451,1.5889-.7344,2.2031-.4902.6152-1.1357,1.0078-1.9375,1.1797ZM367.2498,19.622h.5781c1.7236,0,2.5859-.6582,2.5859-1.9766,0-1.2344-.8389-1.8516-2.5156-1.8516h-.6484v3.8281Z"/><line class="cls-5" x1="91.1504" y1="34.0425" x2="373.6194" y2="34.0425"/><path class="cls-3" d="M90.9427,47.166v-.0225c0-2.1777,1.6284-3.9824,3.8945-3.9824,1.3975,0,2.2334.4951,3.0034,1.2217l-.5938.6377c-.6494-.6162-1.3755-1.0557-2.4204-1.0557-1.7056,0-2.9814,1.3857-2.9814,3.1572v.0215c0,1.7822,1.2871,3.1797,2.9814,3.1797,1.0562,0,1.749-.4072,2.4863-1.1113l.5718.5615c-.8027.8135-1.6831,1.3525-3.0801,1.3525-2.2227,0-3.8618-1.749-3.8618-3.96Z"/><path class="cls-3" d="M98.8738,49.3437v-.0215c0-1.1992.9902-1.8369,2.4312-1.8369.7261,0,1.2432.0986,1.7495.2412v-.1973c0-1.0234-.627-1.5518-1.6943-1.5518-.6709,0-1.1992.1758-1.7271.418l-.2534-.6934c.6274-.2852,1.2432-.4727,2.0684-.4727.8032,0,1.4194.209,1.8374.627.3853.3848.583.9355.583,1.6611v3.4766h-.814v-.8574c-.396.5166-1.0562.9785-2.0571.9785-1.0566,0-2.1235-.6045-2.1235-1.7715ZM103.0652,48.9043v-.5508c-.418-.1201-.979-.2412-1.6719-.2412-1.0674,0-1.6616.4619-1.6616,1.1768v.0225c0,.7148.6602,1.1328,1.4302,1.1328,1.0454,0,1.9033-.6377,1.9033-1.54Z"/><path class="cls-3" d="M105.9144,49.4873v-3.4326h-.792v-.748h.792v-1.7168h.8472v1.7168h1.8042v.748h-1.8042v3.3223c0,.6934.3853.9463.957.9463.2861,0,.5283-.0547.8252-.1982v.7266c-.2969.1543-.6162.2422-1.0229.2422-.9131,0-1.6064-.4512-1.6064-1.6064Z"/><path class="cls-3" d="M109.6321,49.3437v-.0215c0-1.1992.9902-1.8369,2.4312-1.8369.7261,0,1.2432.0986,1.7495.2412v-.1973c0-1.0234-.627-1.5518-1.6943-1.5518-.6709,0-1.1992.1758-1.7271.418l-.2534-.6934c.6274-.2852,1.2432-.4727,2.0684-.4727.8032,0,1.4194.209,1.8374.627.3853.3848.583.9355.583,1.6611v3.4766h-.814v-.8574c-.396.5166-1.0562.9785-2.0576.9785-1.0557,0-2.123-.6045-2.123-1.7715ZM113.8235,48.9043v-.5508c-.418-.1201-.979-.2412-1.6719-.2412-1.0674,0-1.6616.4619-1.6616,1.1768v.0225c0,.7148.6602,1.1328,1.4302,1.1328,1.0454,0,1.9033-.6377,1.9033-1.54Z"/><path class="cls-3" d="M116.5071,42.9628h.8472v8.0312h-.8472v-8.0312Z"/><path class="cls-3" d="M123.5809,45.3066h.9023l-2.3872,5.875c-.4844,1.1768-1.0342,1.6064-1.8926,1.6064-.4731,0-.8252-.0996-1.21-.2861l.2861-.6719c.2749.1436.5278.209.8911.209.5059,0,.8247-.2637,1.166-1.0664l-2.5854-5.666h.9351l2.0684,4.7412,1.8262-4.7412Z"/><path class="cls-3" d="M125.4393,50.455l3.7734-4.4336h-3.6416v-.7148h4.7969v.5391l-3.7847,4.4336h3.7847v.7148h-4.9287v-.5391Z"/><path class="cls-3" d="M131.9075,43.1279h.9678v.9355h-.9678v-.9355ZM131.9622,45.3066h.8472v5.6875h-.8472v-5.6875Z"/><path class="cls-3" d="M134.7786,45.3066h.8472v.9902c.374-.6162.9678-1.1113,1.9473-1.1113,1.375,0,2.1782.9238,2.1782,2.2773v3.5312h-.8472v-3.3223c0-1.0557-.5723-1.7158-1.5732-1.7158-.979,0-1.7051.7148-1.7051,1.7822v3.2559h-.8472v-5.6875Z"/><path class="cls-3" d="M141.4886,51.9843l.3848-.6602c.6489.4736,1.375.7266,2.1895.7266,1.2539,0,2.0684-.6934,2.0684-2.0244v-.6709c-.4951.6602-1.1885,1.1992-2.2334,1.1992-1.3643,0-2.6733-1.0234-2.6733-2.6631v-.0215c0-1.6611,1.3198-2.6846,2.6733-2.6846,1.0669,0,1.7603.5283,2.2222,1.1445v-1.0234h.8472v4.6973c0,.8809-.2642,1.5518-.7261,2.0137-.5059.5059-1.2651.7588-2.1675.7588-.9458,0-1.8262-.2637-2.585-.792ZM146.1531,47.8808v-.0215c0-1.167-1.0122-1.9258-2.0903-1.9258s-1.9692.748-1.9692,1.9141v.0225c0,1.1436.9131,1.9365,1.9692,1.9365,1.0781,0,2.0903-.7812,2.0903-1.9258Z"/><path class="cls-3" d="M152.4549,49.4873v-3.4326h-.792v-.748h.792v-1.7168h.8472v1.7168h1.8042v.748h-1.8042v3.3223c0,.6934.3853.9463.957.9463.2861,0,.5283-.0547.8252-.1982v.7266c-.2969.1543-.6162.2422-1.0229.2422-.9136,0-1.6064-.4512-1.6064-1.6064Z"/><path class="cls-3" d="M156.6019,42.9628h.8472v3.334c.374-.6162.9678-1.1113,1.9473-1.1113,1.375,0,2.1782.9238,2.1782,2.2773v3.5312h-.8472v-3.3223c0-1.0557-.5723-1.7158-1.5732-1.7158-.979,0-1.7051.7148-1.7051,1.7822v3.2559h-.8472v-8.0312Z"/><path class="cls-3" d="M163.0257,48.167v-.0225c0-1.6387,1.1548-2.959,2.728-2.959,1.6836,0,2.6514,1.3418,2.6514,3.0039,0,.1094,0,.1758-.0107.2744h-4.5107c.1211,1.2324.9902,1.9258,2.0024,1.9258.7812,0,1.3311-.3193,1.793-.8037l.5283.4736c-.5723.6377-1.2651,1.0664-2.3433,1.0664-1.5625,0-2.8384-1.1992-2.8384-2.959ZM167.5472,47.8369c-.0879-1.0342-.6821-1.9365-1.8154-1.9365-.9897,0-1.7383.8252-1.8481,1.9365h3.6636Z"/><path class="cls-3" d="M180.3514,51.2255l-1.0234-.9131c-.6494.5059-1.4746.8135-2.4209.8135-2.3428,0-3.916-1.8369-3.916-3.96v-.0225c0-2.123,1.5952-3.9824,3.9385-3.9824s3.916,1.8369,3.916,3.9609v.0215c0,.957-.3408,1.8701-.9131,2.5742l1.0127.8584-.5938.6494ZM178.7117,49.7509l-1.4414-1.2324.583-.6484,1.4414,1.3086c.418-.5498.6494-1.2432.6494-2.0127v-.0225c0-1.749-1.2764-3.1787-3.0371-3.1787-1.7598,0-3.0137,1.4082-3.0137,3.1572v.0215c0,1.75,1.2754,3.1797,3.0361,3.1797.6816,0,1.2979-.209,1.7822-.5723Z"/><path class="cls-3" d="M182.451,48.8378v-3.5312h.8467v3.3223c0,1.0566.5723,1.7168,1.5732,1.7168.9688,0,1.7061-.7158,1.7061-1.7822v-3.2568h.8359v5.6875h-.8359v-.9902c-.3857.6162-.9688,1.1113-1.9473,1.1113-1.376,0-2.1787-.9238-2.1787-2.2773Z"/><path class="cls-3" d="M188.8856,49.3437v-.0215c0-1.1992.9902-1.8369,2.4316-1.8369.7256,0,1.2432.0986,1.749.2412v-.1973c0-1.0234-.627-1.5518-1.6943-1.5518-.6709,0-1.1992.1758-1.7266.418l-.2539-.6934c.6279-.2852,1.2432-.4727,2.0684-.4727.8037,0,1.4199.209,1.8379.627.3848.3848.583.9355.583,1.6611v3.4766h-.8145v-.8574c-.3955.5166-1.0557.9785-2.0576.9785-1.0557,0-2.123-.6045-2.123-1.7715ZM193.077,48.9043v-.5508c-.418-.1201-.9785-.2412-1.6719-.2412-1.0674,0-1.6611.4619-1.6611,1.1768v.0225c0,.7148.6602,1.1328,1.4297,1.1328,1.0459,0,1.9033-.6377,1.9033-1.54Z"/><path class="cls-3" d="M195.6844,45.3066h.8467v.9902c.374-.6162.9678-1.1113,1.9473-1.1113,1.375,0,2.1787.9238,2.1787,2.2773v3.5312h-.8477v-3.3223c0-1.0557-.5723-1.7158-1.5732-1.7158-.9785,0-1.7051.7148-1.7051,1.7822v3.2559h-.8467v-5.6875Z"/><path class="cls-3" d="M202.7566,49.4873v-3.4326h-.792v-.748h.792v-1.7168h.8477v1.7168h1.8037v.748h-1.8037v3.3223c0,.6934.3848.9463.957.9463.2861,0,.5283-.0547.8252-.1982v.7266c-.2969.1543-.6162.2422-1.0234.2422-.9131,0-1.6064-.4512-1.6064-1.6064Z"/><path class="cls-3" d="M206.8152,48.8378v-3.5312h.8477v3.3223c0,1.0566.5723,1.7168,1.5732,1.7168.9678,0,1.7051-.7158,1.7051-1.7822v-3.2568h.8359v5.6875h-.8359v-.9902c-.3848.6162-.9678,1.1113-1.9473,1.1113-1.375,0-2.1787-.9238-2.1787-2.2773Z"/><path class="cls-3" d="M213.6795,45.3066h.8477v.957c.374-.5615.8799-1.0781,1.8369-1.0781.9238,0,1.5186.4951,1.8262,1.1328.4072-.627,1.0117-1.1328,2.002-1.1328,1.3096,0,2.1123.8799,2.1123,2.2881v3.5205h-.8467v-3.3223c0-1.1006-.5498-1.7158-1.4746-1.7158-.8574,0-1.5732.6377-1.5732,1.7598v3.2783h-.8359v-3.3447c0-1.0664-.5605-1.6934-1.4629-1.6934s-1.584.748-1.584,1.793v3.2451h-.8477v-5.6875Z"/><path class="cls-3" d="M227.5506,43.2929h5.5664v.792h-4.6973v2.6299h4.2021v.792h-4.2021v2.6953h4.7529v.792h-5.6221v-7.7012Z"/><path class="cls-3" d="M234.3162,48.1777v-.0215c0-1.6064,1.2539-2.9707,2.915-2.9707,1.0781,0,1.749.4512,2.2773,1.0117l-.5615.5947c-.4502-.4736-.957-.8584-1.7266-.8584-1.1553,0-2.0352.9795-2.0352,2.2002v.0225c0,1.2314.9014,2.2109,2.0898,2.2109.7266,0,1.2871-.3633,1.7383-.8467l.5391.5059c-.5723.6377-1.2539,1.0996-2.3213,1.0996-1.6611,0-2.915-1.3525-2.915-2.9482Z"/><path class="cls-3" d="M240.4315,48.1777v-.0215c0-1.6064,1.2539-2.9707,2.9707-2.9707,1.7051,0,2.959,1.3418,2.959,2.9482v.0225c0,1.6055-1.2646,2.9697-2.9814,2.9697-1.7051,0-2.9482-1.3418-2.9482-2.9482ZM245.492,48.1777v-.0215c0-1.2217-.9131-2.2227-2.1123-2.2227-1.2314,0-2.0791,1.001-2.0791,2.2002v.0225c0,1.2207.9023,2.2109,2.1016,2.2109,1.2324,0,2.0898-.9902,2.0898-2.1895Z"/><path class="cls-3" d="M247.4168,50.2685l.4287-.6055c.6162.4619,1.2979.7266,1.9697.7266.6816,0,1.1768-.3525,1.1768-.9023v-.0225c0-.5713-.6709-.792-1.4189-1.001-.8916-.2529-1.8818-.5605-1.8818-1.6064v-.0215c0-.9795.8145-1.6279,1.9365-1.6279.6934,0,1.4629.2412,2.0459.627l-.3848.6377c-.5283-.3408-1.1328-.5498-1.6826-.5498-.6719,0-1.1006.3516-1.1006.8252v.0215c0,.5391.7041.748,1.4629.9795.8809.2637,1.8262.6045,1.8262,1.6279v.0225c0,1.0781-.8906,1.7051-2.0234,1.7051-.8145,0-1.7168-.3193-2.3545-.8359Z"/><path class="cls-3" d="M257.4598,45.3066h.9023l-2.3867,5.875c-.4844,1.1768-1.0342,1.6064-1.8926,1.6064-.4736,0-.8252-.0996-1.2099-.2861l.2861-.6719c.2744.1436.5273.209.8906.209.5059,0,.8252-.2637,1.166-1.0664l-2.585-5.666h.9346l2.0684,4.7412,1.8262-4.7412Z"/><path class="cls-3" d="M259.0106,50.2685l.4297-.6055c.6152.4619,1.2979.7266,1.9688.7266.6826,0,1.1768-.3525,1.1768-.9023v-.0225c0-.5713-.6709-.792-1.4189-1.001-.8906-.2529-1.8809-.5605-1.8809-1.6064v-.0215c0-.9795.8135-1.6279,1.9365-1.6279.6924,0,1.4629.2412,2.0459.627l-.3848.6377c-.5283-.3408-1.1338-.5498-1.6836-.5498-.6709,0-1.1006.3516-1.1006.8252v.0215c0,.5391.7041.748,1.4639.9795.8799.2637,1.8262.6045,1.8262,1.6279v.0225c0,1.0781-.8916,1.7051-2.0244,1.7051-.8145,0-1.7158-.3193-2.3545-.8359Z"/><path class="cls-3" d="M265.1492,49.4873v-3.4326h-.792v-.748h.792v-1.7168h.8467v1.7168h1.8047v.748h-1.8047v3.3223c0,.6934.3857.9463.957.9463.2861,0,.5283-.0547.8252-.1982v.7266c-.2969.1543-.6162.2422-1.0225.2422-.9141,0-1.6064-.4512-1.6064-1.6064Z"/><path class="cls-3" d="M268.7791,48.167v-.0225c0-1.6387,1.1543-2.959,2.7275-2.959,1.6836,0,2.6514,1.3418,2.6514,3.0039,0,.1094,0,.1758-.0107.2744h-4.5107c.1211,1.2324.9902,1.9258,2.0029,1.9258.7812,0,1.3311-.3193,1.793-.8037l.5283.4736c-.5723.6377-1.2656,1.0664-2.3438,1.0664-1.5625,0-2.8379-1.1992-2.8379-2.959ZM273.3006,47.8369c-.0879-1.0342-.6826-1.9365-1.8154-1.9365-.9902,0-1.7383.8252-1.8486,1.9365h3.6641Z"/><path class="cls-3" d="M275.6424,45.3066h.8477v.957c.374-.5615.8799-1.0781,1.8369-1.0781.9238,0,1.5186.4951,1.8262,1.1328.4072-.627,1.0117-1.1328,2.002-1.1328,1.3096,0,2.1123.8799,2.1123,2.2881v3.5205h-.8467v-3.3223c0-1.1006-.5498-1.7158-1.4746-1.7158-.8574,0-1.5732.6377-1.5732,1.7598v3.2783h-.8359v-3.3447c0-1.0664-.5605-1.6934-1.4629-1.6934s-1.584.748-1.584,1.793v3.2451h-.8477v-5.6875Z"/><path class="cls-1" d="M30.6162,25.5601c0,.3817.3121.6941.6938.6941h3.3632c.3819,0,.6939-.3124.6939-.694v-3.3633c0-.3817-.3121-.694-.6939-.694h-3.3632c-.3817,0-.6938.3124-.6938.694v3.3631h0ZM73.6196,26.3171c4.6703,5.2138,7.5106,12.101,7.5106,19.6517,0,11.7065-6.8271,21.8182-16.7169,26.5715-3.9288,1.9244-8.3456,3.0059-13.0154,3.0059-8.5952,0-16.3348-3.6607-21.7469-9.507-.549-.593-2.038-2.736-5.2878-2.736h-5.4081c-.9195,0-1.6719-.7524-1.6719-1.6721v-8.1025c0-.9197.7524-1.6718,1.6718-1.6718h6.8583c5.7293,0,5.3901-9.0373.2527-9.0371h-8.4471c-.7133,0-1.2983-.584-1.2983-1.298v-5.3773c0-.9862-.0158-1.6925-.6976-2.3741l-.3262-.326c-.5179-.5176-.9334-.6984-1.6218-.6984h-3.3391c-.4512,0-.8208-.3692-.8208-.821v-3.9772c0-.2194.0885-.4203.2316-.5685.1482-.1431.349-.2313.5685-.2313h3.9772c.4517,0,.8207.3695.8207.8207l.0003,3.3391c0,.6884.1804,1.1039.6983,1.6215l.326.3262c.6818.6817,1.3877.6982,2.3741.6977l8.7349-.0045c.7728-.0002,1.1894.2908,1.1894,1.0373v.8027c0,.371.3036.6748.6746.6748h3.2698c.3709,0,.6745-.3035.6745-.6748v-3.2695c0-.3711-.3036-.6749-.6746-.6749h-1.2636c-.3768,0-.8123-.4094-.8123-.7864v-3.021c0-.5563-.4554-1.0111-1.0112-1.0111h-2.7626c-.7171,0-1.5688-.7553-1.5688-1.4726v-3.5212c0-1.3096-.0212-2.2473-.9266-3.153l-5.6497-5.6498c-.6877-.6877-1.2397-.9272-2.1538-.9272l-4.4349-.0003c-.5991,0-1.09-.4904-1.09-1.09v-5.2824c0-.2915.1175-.5582.3075-.7548.1966-.19.4636-.3075.755-.3075h5.2822c.5999,0,1.09.4907,1.09,1.09l.0003,4.4347c0,.9145.2396,1.4661.9275,2.1538l5.6498,5.6497c.9053.9054,1.8431.9268,3.153.9268h13.6348c2.3604,0,4.7413-.8453,4.7413-3.865v-1.0788c0-.793-.0129-1.3612-.5611-1.9093l-1.116-1.1161c-.4164-.4164-.751-.5616-1.3044-.5616l-2.6857-.0003c-.3625,0-.6599-.2968-.6599-.6602v-3.1988c0-.1766.0711-.3381.1861-.4573.1191-.1148.2806-.186.4572-.186h3.1988c.3632,0,.6601.2973.6601.6602v2.6855c0,.5535.1452.8881.5617,1.3043l1.1162,1.1162c.5482.5483,1.1161.5612,1.9094.5612h4.3248c.5743,0,1.0442.4702,1.0442,1.0441v.8339c-.0002,1.367,1.7167,2.2068,2.5578,2.3362,7.005,1.0768,13.1998,4.6082,17.6819,9.687h0ZM51.6654,29.5552c-9.0649,0-16.4136,7.3486-16.4136,16.4136s7.3486,16.4136,16.4136,16.4136,16.4137-7.3486,16.4137-16.4136-7.3486-16.4136-16.4137-16.4136h0ZM36.1043,29.5869c0,.2345.1919.4265.4264.4265h2.0674c.2344,0,.4263-.192.4263-.4264v-2.0675c0-.2344-.1919-.4263-.4264-.4263h-2.0674c-.2344,0-.4265.1919-.4265.4264v2.0674h0ZM26.8009,58.1104c0,.4731.387.8602.86.8602h4.1692c.4734,0,.8601-.387.8601-.8602v-4.169c0-.4732-.3868-.8604-.8601-.8604h-4.1691c-.4731,0-.8602.3872-.8602.8604v4.169h0ZM46.526,22.6214c0,.3323.2718.6043.6044.6043h2.9288c.3325,0,.6042-.272.6042-.6042v-2.9291c0-.3325-.2717-.6042-.6042-.6042h-2.9287c-.3326,0-.6045.2717-.6045.6042v2.9289h.0001ZM16.2771,24.8511c0,.4099.3354.7453.7453.7453h3.612c.4099,0,.7453-.3354.7453-.7453v-3.612c0-.4099-.3354-.7453-.7453-.7453h-3.612c-.4099,0-.7454.3355-.7454.7453v3.612h0ZM4.7046,24.4745v-2.5164c0-.2859.2335-.5194.5191-.5194h2.5167c.2855,0,.519.2335.519.5193v2.5164c0,.2858-.2335.5194-.5191.5194h-2.5167c-.2855,0-.5191-.2335-.5191-.5194h0ZM16.062,50.7717c.1394-.1423.2255-.3371.2255-.5507v-3.8235c0-.4337-.3549-.7888-.7888-.7888h-3.2678c-.5993,0-1.0285-.0095-1.4428-.424l-.7168-.7169c-.3148-.3145-.4245-.567-.4245-.9854v-2.0295c0-.2741-.2243-.4986-.4989-.4986h-2.4169c-.1333,0-.2554.0538-.3455.1406-.0871.09-.1408.2122-.1408.3455v2.4171c0,.2744.2245.4987.4989.4987l2.0293.0003c.4183,0,.6708.1094.9856.4245l.7166.7166c.4145.4144.424.8433.424,1.4429v3.2678c0,.434.3552.7889.7891.7889h3.8233c.2138,0,.4084-.0861.5506-.2255h0ZM26.4231,14.8452c0,.6645.5434,1.208,1.2079,1.208h5.8544c.6643,0,1.2079-.5434,1.2079-1.208v-5.8544c0-.6643-.5436-1.2079-1.208-1.2079h-5.8543c-.6646,0-1.2081.5436-1.2081,1.208v5.8543h0ZM35.3115,4.5607c0,.2837.2317.5158.5156.5158h2.4997c.2836,0,.5159-.2321.5159-.5157v-2.4997c0-.2839-.2323-.5159-.5159-.5159h-2.4996c-.2839,0-.5157.232-.5157.5159v2.4996h0ZM20.6252,3.0289v-1.9799c0-.2245.1839-.4083.4084-.4083h1.9797c.2247,0,.4083.1839.4083.4084v1.9798c0,.2245-.1836.4084-.4084.4084h-1.9795c-.2246,0-.4085-.1839-.4085-.4084h0ZM3.0451,14.4418v-1.9796c0-.2247.1839-.4084.4084-.4084h1.9798c.2245,0,.4082.1837.4082.4085v1.9795c0,.2245-.1836.4085-.4082.4085h-1.9798c-.2244,0-.4084-.1839-.4084-.4084h0ZM6.0167,56.144c0,.285.2335.5183.5186.5183h2.5129c.2851,0,.5183-.2333.5183-.5183v-2.5128c0-.2851-.2333-.5186-.5184-.5186h-2.5127c-.2853,0-.5187.2333-.5187.5186v2.5128h0ZM2.781,39.533v-1.6906c0-.1917.1567-.3486.3486-.3486h1.6906c.192,0,.3488.1569.3488.3486v1.6906c0,.192-.1569.3488-.3488.3488h-1.6906c-.1919,0-.3486-.1568-.3486-.3488h0ZM54.325,11.2973c0,.2116.1729.3846.3843.3846h1.8635c.2117,0,.3846-.173.3846-.3846v-1.8635c0-.2114-.173-.3844-.3846-.3844h-1.8635c-.2114,0-.3844.173-.3844.3844v1.8635h0ZM46.0971,5.0017c0,.2117.1729.3846.3842.3846h1.8637c.2117,0,.3845-.1729.3845-.3846v-1.8636c.0001-.2114-.1729-.3843-.3846-.3843h-1.8635c-.2113,0-.3843.173-.3843.3843v1.8635Z"/><rect class="cls-2" x="62.1637" y="46.1265" width="10.7573" height="34.2459" rx="3.3488" ry="3.3488" transform="translate(-24.5514 72.2615) rotate(-48.7091)"/></svg>