<?xml version="1.0" encoding="utf-8" standalone="no"?>
<!DOCTYPE svg PUBLIC "-//W3C//DTD SVG 1.1//EN"
  "http://www.w3.org/Graphics/SVG/1.1/DTD/svg11.dtd">
<svg xmlns:xlink="http://www.w3.org/1999/xlink" width="437.658281pt" height="349.621687pt" viewBox="0 0 437.658281 349.621687" xmlns="http://www.w3.org/2000/svg" version="1.1">
 <defs>
  <style type="text/css">*{stroke-linejoin: round; stroke-linecap: butt}</style>
 </defs>
 <g id="figure_1">
  <g id="patch_1">
   <path d="M 0 349.621687 
L 437.658281 349.621687 
L 437.658281 0 
L 0 0 
L 0 349.621687 
z
" style="fill: none"/>
  </g>
  <g id="axes_1">
   <g id="patch_2">
    <path d="M 61.410938 297.54825 
L 418.530938 297.54825 
L 418.530938 31.43625 
L 61.410938 31.43625 
L 61.410938 297.54825 
z
" style="fill: none"/>
   </g>
   <g id="matplotlib.axis_1">
    <g id="xtick_1">
     <g id="line2d_1">
      <path d="M 61.410938 297.54825 
L 61.410938 31.43625 
" clip-path="url(#p37e3121db0)" style="fill: none; stroke: #b0b0b0; stroke-width: 0.8; stroke-linecap: square"/>
     </g>
     <g id="line2d_2">
      <defs>
       <path id="md39032bed2" d="M 0 0 
L 0 3.5 
" style="stroke: #000000; stroke-width: 0.8"/>
      </defs>
      <g>
       <use xlink:href="#md39032bed2" x="61.410938" y="297.54825" style="stroke: #000000; stroke-width: 0.8"/>
      </g>
     </g>
     <g id="text_1">
      <!-- 0.0 -->
      <g transform="translate(49.483594 315.945906) scale(0.15 -0.15)">
       <defs>
        <path id="DejaVuSans-30" d="M 2034 4250 
Q 1547 4250 1301 3770 
Q 1056 3291 1056 2328 
Q 1056 1369 1301 889 
Q 1547 409 2034 409 
Q 2525 409 2770 889 
Q 3016 1369 3016 2328 
Q 3016 3291 2770 3770 
Q 2525 4250 2034 4250 
z
M 2034 4750 
Q 2819 4750 3233 4129 
Q 3647 3509 3647 2328 
Q 3647 1150 3233 529 
Q 2819 -91 2034 -91 
Q 1250 -91 836 529 
Q 422 1150 422 2328 
Q 422 3509 836 4129 
Q 1250 4750 2034 4750 
z
" transform="scale(0.015625)"/>
        <path id="DejaVuSans-2e" d="M 684 794 
L 1344 794 
L 1344 0 
L 684 0 
L 684 794 
z
" transform="scale(0.015625)"/>
       </defs>
       <use xlink:href="#DejaVuSans-30"/>
       <use xlink:href="#DejaVuSans-2e" x="63.623047"/>
       <use xlink:href="#DejaVuSans-30" x="95.410156"/>
      </g>
     </g>
    </g>
    <g id="xtick_2">
     <g id="line2d_3">
      <path d="M 132.834938 297.54825 
L 132.834938 31.43625 
" clip-path="url(#p37e3121db0)" style="fill: none; stroke: #b0b0b0; stroke-width: 0.8; stroke-linecap: square"/>
     </g>
     <g id="line2d_4">
      <g>
       <use xlink:href="#md39032bed2" x="132.834938" y="297.54825" style="stroke: #000000; stroke-width: 0.8"/>
      </g>
     </g>
     <g id="text_2">
      <!-- 0.2 -->
      <g transform="translate(120.907594 315.945906) scale(0.15 -0.15)">
       <defs>
        <path id="DejaVuSans-32" d="M 1228 531 
L 3431 531 
L 3431 0 
L 469 0 
L 469 531 
Q 828 903 1448 1529 
Q 2069 2156 2228 2338 
Q 2531 2678 2651 2914 
Q 2772 3150 2772 3378 
Q 2772 3750 2511 3984 
Q 2250 4219 1831 4219 
Q 1534 4219 1204 4116 
Q 875 4013 500 3803 
L 500 4441 
Q 881 4594 1212 4672 
Q 1544 4750 1819 4750 
Q 2544 4750 2975 4387 
Q 3406 4025 3406 3419 
Q 3406 3131 3298 2873 
Q 3191 2616 2906 2266 
Q 2828 2175 2409 1742 
Q 1991 1309 1228 531 
z
" transform="scale(0.015625)"/>
       </defs>
       <use xlink:href="#DejaVuSans-30"/>
       <use xlink:href="#DejaVuSans-2e" x="63.623047"/>
       <use xlink:href="#DejaVuSans-32" x="95.410156"/>
      </g>
     </g>
    </g>
    <g id="xtick_3">
     <g id="line2d_5">
      <path d="M 204.258938 297.54825 
L 204.258938 31.43625 
" clip-path="url(#p37e3121db0)" style="fill: none; stroke: #b0b0b0; stroke-width: 0.8; stroke-linecap: square"/>
     </g>
     <g id="line2d_6">
      <g>
       <use xlink:href="#md39032bed2" x="204.258938" y="297.54825" style="stroke: #000000; stroke-width: 0.8"/>
      </g>
     </g>
     <g id="text_3">
      <!-- 0.4 -->
      <g transform="translate(192.331594 315.945906) scale(0.15 -0.15)">
       <defs>
        <path id="DejaVuSans-34" d="M 2419 4116 
L 825 1625 
L 2419 1625 
L 2419 4116 
z
M 2253 4666 
L 3047 4666 
L 3047 1625 
L 3713 1625 
L 3713 1100 
L 3047 1100 
L 3047 0 
L 2419 0 
L 2419 1100 
L 313 1100 
L 313 1709 
L 2253 4666 
z
" transform="scale(0.015625)"/>
       </defs>
       <use xlink:href="#DejaVuSans-30"/>
       <use xlink:href="#DejaVuSans-2e" x="63.623047"/>
       <use xlink:href="#DejaVuSans-34" x="95.410156"/>
      </g>
     </g>
    </g>
    <g id="xtick_4">
     <g id="line2d_7">
      <path d="M 275.682938 297.54825 
L 275.682938 31.43625 
" clip-path="url(#p37e3121db0)" style="fill: none; stroke: #b0b0b0; stroke-width: 0.8; stroke-linecap: square"/>
     </g>
     <g id="line2d_8">
      <g>
       <use xlink:href="#md39032bed2" x="275.682938" y="297.54825" style="stroke: #000000; stroke-width: 0.8"/>
      </g>
     </g>
     <g id="text_4">
      <!-- 0.6 -->
      <g transform="translate(263.755594 315.945906) scale(0.15 -0.15)">
       <defs>
        <path id="DejaVuSans-36" d="M 2113 2584 
Q 1688 2584 1439 2293 
Q 1191 2003 1191 1497 
Q 1191 994 1439 701 
Q 1688 409 2113 409 
Q 2538 409 2786 701 
Q 3034 994 3034 1497 
Q 3034 2003 2786 2293 
Q 2538 2584 2113 2584 
z
M 3366 4563 
L 3366 3988 
Q 3128 4100 2886 4159 
Q 2644 4219 2406 4219 
Q 1781 4219 1451 3797 
Q 1122 3375 1075 2522 
Q 1259 2794 1537 2939 
Q 1816 3084 2150 3084 
Q 2853 3084 3261 2657 
Q 3669 2231 3669 1497 
Q 3669 778 3244 343 
Q 2819 -91 2113 -91 
Q 1303 -91 875 529 
Q 447 1150 447 2328 
Q 447 3434 972 4092 
Q 1497 4750 2381 4750 
Q 2619 4750 2861 4703 
Q 3103 4656 3366 4563 
z
" transform="scale(0.015625)"/>
       </defs>
       <use xlink:href="#DejaVuSans-30"/>
       <use xlink:href="#DejaVuSans-2e" x="63.623047"/>
       <use xlink:href="#DejaVuSans-36" x="95.410156"/>
      </g>
     </g>
    </g>
    <g id="xtick_5">
     <g id="line2d_9">
      <path d="M 347.106938 297.54825 
L 347.106938 31.43625 
" clip-path="url(#p37e3121db0)" style="fill: none; stroke: #b0b0b0; stroke-width: 0.8; stroke-linecap: square"/>
     </g>
     <g id="line2d_10">
      <g>
       <use xlink:href="#md39032bed2" x="347.106938" y="297.54825" style="stroke: #000000; stroke-width: 0.8"/>
      </g>
     </g>
     <g id="text_5">
      <!-- 0.8 -->
      <g transform="translate(335.179594 315.945906) scale(0.15 -0.15)">
       <defs>
        <path id="DejaVuSans-38" d="M 2034 2216 
Q 1584 2216 1326 1975 
Q 1069 1734 1069 1313 
Q 1069 891 1326 650 
Q 1584 409 2034 409 
Q 2484 409 2743 651 
Q 3003 894 3003 1313 
Q 3003 1734 2745 1975 
Q 2488 2216 2034 2216 
z
M 1403 2484 
Q 997 2584 770 2862 
Q 544 3141 544 3541 
Q 544 4100 942 4425 
Q 1341 4750 2034 4750 
Q 2731 4750 3128 4425 
Q 3525 4100 3525 3541 
Q 3525 3141 3298 2862 
Q 3072 2584 2669 2484 
Q 3125 2378 3379 2068 
Q 3634 1759 3634 1313 
Q 3634 634 3220 271 
Q 2806 -91 2034 -91 
Q 1263 -91 848 271 
Q 434 634 434 1313 
Q 434 1759 690 2068 
Q 947 2378 1403 2484 
z
M 1172 3481 
Q 1172 3119 1398 2916 
Q 1625 2713 2034 2713 
Q 2441 2713 2670 2916 
Q 2900 3119 2900 3481 
Q 2900 3844 2670 4047 
Q 2441 4250 2034 4250 
Q 1625 4250 1398 4047 
Q 1172 3844 1172 3481 
z
" transform="scale(0.015625)"/>
       </defs>
       <use xlink:href="#DejaVuSans-30"/>
       <use xlink:href="#DejaVuSans-2e" x="63.623047"/>
       <use xlink:href="#DejaVuSans-38" x="95.410156"/>
      </g>
     </g>
    </g>
    <g id="xtick_6">
     <g id="line2d_11">
      <path d="M 418.530938 297.54825 
L 418.530938 31.43625 
" clip-path="url(#p37e3121db0)" style="fill: none; stroke: #b0b0b0; stroke-width: 0.8; stroke-linecap: square"/>
     </g>
     <g id="line2d_12">
      <g>
       <use xlink:href="#md39032bed2" x="418.530938" y="297.54825" style="stroke: #000000; stroke-width: 0.8"/>
      </g>
     </g>
     <g id="text_6">
      <!-- 1.0 -->
      <g transform="translate(406.603594 315.945906) scale(0.15 -0.15)">
       <defs>
        <path id="DejaVuSans-31" d="M 794 531 
L 1825 531 
L 1825 4091 
L 703 3866 
L 703 4441 
L 1819 4666 
L 2450 4666 
L 2450 531 
L 3481 531 
L 3481 0 
L 794 0 
L 794 531 
z
" transform="scale(0.015625)"/>
       </defs>
       <use xlink:href="#DejaVuSans-31"/>
       <use xlink:href="#DejaVuSans-2e" x="63.623047"/>
       <use xlink:href="#DejaVuSans-30" x="95.410156"/>
      </g>
     </g>
    </g>
    <g id="text_7">
     <!-- Physical Error -->
     <g transform="translate(171.744375 338.262312) scale(0.2 -0.2)">
      <defs>
       <path id="DejaVuSans-50" d="M 1259 4147 
L 1259 2394 
L 2053 2394 
Q 2494 2394 2734 2622 
Q 2975 2850 2975 3272 
Q 2975 3691 2734 3919 
Q 2494 4147 2053 4147 
L 1259 4147 
z
M 628 4666 
L 2053 4666 
Q 2838 4666 3239 4311 
Q 3641 3956 3641 3272 
Q 3641 2581 3239 2228 
Q 2838 1875 2053 1875 
L 1259 1875 
L 1259 0 
L 628 0 
L 628 4666 
z
" transform="scale(0.015625)"/>
       <path id="DejaVuSans-68" d="M 3513 2113 
L 3513 0 
L 2938 0 
L 2938 2094 
Q 2938 2591 2744 2837 
Q 2550 3084 2163 3084 
Q 1697 3084 1428 2787 
Q 1159 2491 1159 1978 
L 1159 0 
L 581 0 
L 581 4863 
L 1159 4863 
L 1159 2956 
Q 1366 3272 1645 3428 
Q 1925 3584 2291 3584 
Q 2894 3584 3203 3211 
Q 3513 2838 3513 2113 
z
" transform="scale(0.015625)"/>
       <path id="DejaVuSans-79" d="M 2059 -325 
Q 1816 -950 1584 -1140 
Q 1353 -1331 966 -1331 
L 506 -1331 
L 506 -850 
L 844 -850 
Q 1081 -850 1212 -737 
Q 1344 -625 1503 -206 
L 1606 56 
L 191 3500 
L 800 3500 
L 1894 763 
L 2988 3500 
L 3597 3500 
L 2059 -325 
z
" transform="scale(0.015625)"/>
       <path id="DejaVuSans-73" d="M 2834 3397 
L 2834 2853 
Q 2591 2978 2328 3040 
Q 2066 3103 1784 3103 
Q 1356 3103 1142 2972 
Q 928 2841 928 2578 
Q 928 2378 1081 2264 
Q 1234 2150 1697 2047 
L 1894 2003 
Q 2506 1872 2764 1633 
Q 3022 1394 3022 966 
Q 3022 478 2636 193 
Q 2250 -91 1575 -91 
Q 1294 -91 989 -36 
Q 684 19 347 128 
L 347 722 
Q 666 556 975 473 
Q 1284 391 1588 391 
Q 1994 391 2212 530 
Q 2431 669 2431 922 
Q 2431 1156 2273 1281 
Q 2116 1406 1581 1522 
L 1381 1569 
Q 847 1681 609 1914 
Q 372 2147 372 2553 
Q 372 3047 722 3315 
Q 1072 3584 1716 3584 
Q 2034 3584 2315 3537 
Q 2597 3491 2834 3397 
z
" transform="scale(0.015625)"/>
       <path id="DejaVuSans-69" d="M 603 3500 
L 1178 3500 
L 1178 0 
L 603 0 
L 603 3500 
z
M 603 4863 
L 1178 4863 
L 1178 4134 
L 603 4134 
L 603 4863 
z
" transform="scale(0.015625)"/>
       <path id="DejaVuSans-63" d="M 3122 3366 
L 3122 2828 
Q 2878 2963 2633 3030 
Q 2388 3097 2138 3097 
Q 1578 3097 1268 2742 
Q 959 2388 959 1747 
Q 959 1106 1268 751 
Q 1578 397 2138 397 
Q 2388 397 2633 464 
Q 2878 531 3122 666 
L 3122 134 
Q 2881 22 2623 -34 
Q 2366 -91 2075 -91 
Q 1284 -91 818 406 
Q 353 903 353 1747 
Q 353 2603 823 3093 
Q 1294 3584 2113 3584 
Q 2378 3584 2631 3529 
Q 2884 3475 3122 3366 
z
" transform="scale(0.015625)"/>
       <path id="DejaVuSans-61" d="M 2194 1759 
Q 1497 1759 1228 1600 
Q 959 1441 959 1056 
Q 959 750 1161 570 
Q 1363 391 1709 391 
Q 2188 391 2477 730 
Q 2766 1069 2766 1631 
L 2766 1759 
L 2194 1759 
z
M 3341 1997 
L 3341 0 
L 2766 0 
L 2766 531 
Q 2569 213 2275 61 
Q 1981 -91 1556 -91 
Q 1019 -91 701 211 
Q 384 513 384 1019 
Q 384 1609 779 1909 
Q 1175 2209 1959 2209 
L 2766 2209 
L 2766 2266 
Q 2766 2663 2505 2880 
Q 2244 3097 1772 3097 
Q 1472 3097 1187 3025 
Q 903 2953 641 2809 
L 641 3341 
Q 956 3463 1253 3523 
Q 1550 3584 1831 3584 
Q 2591 3584 2966 3190 
Q 3341 2797 3341 1997 
z
" transform="scale(0.015625)"/>
       <path id="DejaVuSans-6c" d="M 603 4863 
L 1178 4863 
L 1178 0 
L 603 0 
L 603 4863 
z
" transform="scale(0.015625)"/>
       <path id="DejaVuSans-20" transform="scale(0.015625)"/>
       <path id="DejaVuSans-45" d="M 628 4666 
L 3578 4666 
L 3578 4134 
L 1259 4134 
L 1259 2753 
L 3481 2753 
L 3481 2222 
L 1259 2222 
L 1259 531 
L 3634 531 
L 3634 0 
L 628 0 
L 628 4666 
z
" transform="scale(0.015625)"/>
       <path id="DejaVuSans-72" d="M 2631 2963 
Q 2534 3019 2420 3045 
Q 2306 3072 2169 3072 
Q 1681 3072 1420 2755 
Q 1159 2438 1159 1844 
L 1159 0 
L 581 0 
L 581 3500 
L 1159 3500 
L 1159 2956 
Q 1341 3275 1631 3429 
Q 1922 3584 2338 3584 
Q 2397 3584 2469 3576 
Q 2541 3569 2628 3553 
L 2631 2963 
z
" transform="scale(0.015625)"/>
       <path id="DejaVuSans-6f" d="M 1959 3097 
Q 1497 3097 1228 2736 
Q 959 2375 959 1747 
Q 959 1119 1226 758 
Q 1494 397 1959 397 
Q 2419 397 2687 759 
Q 2956 1122 2956 1747 
Q 2956 2369 2687 2733 
Q 2419 3097 1959 3097 
z
M 1959 3584 
Q 2709 3584 3137 3096 
Q 3566 2609 3566 1747 
Q 3566 888 3137 398 
Q 2709 -91 1959 -91 
Q 1206 -91 779 398 
Q 353 888 353 1747 
Q 353 2609 779 3096 
Q 1206 3584 1959 3584 
z
" transform="scale(0.015625)"/>
      </defs>
      <use xlink:href="#DejaVuSans-50"/>
      <use xlink:href="#DejaVuSans-68" x="60.302734"/>
      <use xlink:href="#DejaVuSans-79" x="123.681641"/>
      <use xlink:href="#DejaVuSans-73" x="182.861328"/>
      <use xlink:href="#DejaVuSans-69" x="234.960938"/>
      <use xlink:href="#DejaVuSans-63" x="262.744141"/>
      <use xlink:href="#DejaVuSans-61" x="317.724609"/>
      <use xlink:href="#DejaVuSans-6c" x="379.003906"/>
      <use xlink:href="#DejaVuSans-20" x="406.787109"/>
      <use xlink:href="#DejaVuSans-45" x="438.574219"/>
      <use xlink:href="#DejaVuSans-72" x="501.757812"/>
      <use xlink:href="#DejaVuSans-72" x="541.121094"/>
      <use xlink:href="#DejaVuSans-6f" x="579.984375"/>
      <use xlink:href="#DejaVuSans-72" x="641.166016"/>
     </g>
    </g>
   </g>
   <g id="matplotlib.axis_2">
    <g id="ytick_1">
     <g id="line2d_13">
      <path d="M 61.410938 297.54825 
L 418.530938 297.54825 
" clip-path="url(#p37e3121db0)" style="fill: none; stroke: #b0b0b0; stroke-width: 0.8; stroke-linecap: square"/>
     </g>
     <g id="line2d_14">
      <defs>
       <path id="m6f3f5b6aff" d="M 0 0 
L -3.5 0 
" style="stroke: #000000; stroke-width: 0.8"/>
      </defs>
      <g>
       <use xlink:href="#m6f3f5b6aff" x="61.410938" y="297.54825" style="stroke: #000000; stroke-width: 0.8"/>
      </g>
     </g>
     <g id="text_8">
      <!-- 0.0 -->
      <g transform="translate(30.55625 303.247078) scale(0.15 -0.15)">
       <use xlink:href="#DejaVuSans-30"/>
       <use xlink:href="#DejaVuSans-2e" x="63.623047"/>
       <use xlink:href="#DejaVuSans-30" x="95.410156"/>
      </g>
     </g>
    </g>
    <g id="ytick_2">
     <g id="line2d_15">
      <path d="M 61.410938 244.32585 
L 418.530938 244.32585 
" clip-path="url(#p37e3121db0)" style="fill: none; stroke: #b0b0b0; stroke-width: 0.8; stroke-linecap: square"/>
     </g>
     <g id="line2d_16">
      <g>
       <use xlink:href="#m6f3f5b6aff" x="61.410938" y="244.32585" style="stroke: #000000; stroke-width: 0.8"/>
      </g>
     </g>
     <g id="text_9">
      <!-- 0.2 -->
      <g transform="translate(30.55625 250.024678) scale(0.15 -0.15)">
       <use xlink:href="#DejaVuSans-30"/>
       <use xlink:href="#DejaVuSans-2e" x="63.623047"/>
       <use xlink:href="#DejaVuSans-32" x="95.410156"/>
      </g>
     </g>
    </g>
    <g id="ytick_3">
     <g id="line2d_17">
      <path d="M 61.410938 191.10345 
L 418.530938 191.10345 
" clip-path="url(#p37e3121db0)" style="fill: none; stroke: #b0b0b0; stroke-width: 0.8; stroke-linecap: square"/>
     </g>
     <g id="line2d_18">
      <g>
       <use xlink:href="#m6f3f5b6aff" x="61.410938" y="191.10345" style="stroke: #000000; stroke-width: 0.8"/>
      </g>
     </g>
     <g id="text_10">
      <!-- 0.4 -->
      <g transform="translate(30.55625 196.802278) scale(0.15 -0.15)">
       <use xlink:href="#DejaVuSans-30"/>
       <use xlink:href="#DejaVuSans-2e" x="63.623047"/>
       <use xlink:href="#DejaVuSans-34" x="95.410156"/>
      </g>
     </g>
    </g>
    <g id="ytick_4">
     <g id="line2d_19">
      <path d="M 61.410938 137.88105 
L 418.530938 137.88105 
" clip-path="url(#p37e3121db0)" style="fill: none; stroke: #b0b0b0; stroke-width: 0.8; stroke-linecap: square"/>
     </g>
     <g id="line2d_20">
      <g>
       <use xlink:href="#m6f3f5b6aff" x="61.410938" y="137.88105" style="stroke: #000000; stroke-width: 0.8"/>
      </g>
     </g>
     <g id="text_11">
      <!-- 0.6 -->
      <g transform="translate(30.55625 143.579878) scale(0.15 -0.15)">
       <use xlink:href="#DejaVuSans-30"/>
       <use xlink:href="#DejaVuSans-2e" x="63.623047"/>
       <use xlink:href="#DejaVuSans-36" x="95.410156"/>
      </g>
     </g>
    </g>
    <g id="ytick_5">
     <g id="line2d_21">
      <path d="M 61.410938 84.65865 
L 418.530938 84.65865 
" clip-path="url(#p37e3121db0)" style="fill: none; stroke: #b0b0b0; stroke-width: 0.8; stroke-linecap: square"/>
     </g>
     <g id="line2d_22">
      <g>
       <use xlink:href="#m6f3f5b6aff" x="61.410938" y="84.65865" style="stroke: #000000; stroke-width: 0.8"/>
      </g>
     </g>
     <g id="text_12">
      <!-- 0.8 -->
      <g transform="translate(30.55625 90.357478) scale(0.15 -0.15)">
       <use xlink:href="#DejaVuSans-30"/>
       <use xlink:href="#DejaVuSans-2e" x="63.623047"/>
       <use xlink:href="#DejaVuSans-38" x="95.410156"/>
      </g>
     </g>
    </g>
    <g id="ytick_6">
     <g id="line2d_23">
      <path d="M 61.410938 31.43625 
L 418.530938 31.43625 
" clip-path="url(#p37e3121db0)" style="fill: none; stroke: #b0b0b0; stroke-width: 0.8; stroke-linecap: square"/>
     </g>
     <g id="line2d_24">
      <g>
       <use xlink:href="#m6f3f5b6aff" x="61.410938" y="31.43625" style="stroke: #000000; stroke-width: 0.8"/>
      </g>
     </g>
     <g id="text_13">
      <!-- 1.0 -->
      <g transform="translate(30.55625 37.135078) scale(0.15 -0.15)">
       <use xlink:href="#DejaVuSans-31"/>
       <use xlink:href="#DejaVuSans-2e" x="63.623047"/>
       <use xlink:href="#DejaVuSans-30" x="95.410156"/>
      </g>
     </g>
    </g>
    <g id="text_14">
     <!-- Logical Error -->
     <g transform="translate(22.396875 227.087562) rotate(-90) scale(0.2 -0.2)">
      <defs>
       <path id="DejaVuSans-4c" d="M 628 4666 
L 1259 4666 
L 1259 531 
L 3531 531 
L 3531 0 
L 628 0 
L 628 4666 
z
" transform="scale(0.015625)"/>
       <path id="DejaVuSans-67" d="M 2906 1791 
Q 2906 2416 2648 2759 
Q 2391 3103 1925 3103 
Q 1463 3103 1205 2759 
Q 947 2416 947 1791 
Q 947 1169 1205 825 
Q 1463 481 1925 481 
Q 2391 481 2648 825 
Q 2906 1169 2906 1791 
z
M 3481 434 
Q 3481 -459 3084 -895 
Q 2688 -1331 1869 -1331 
Q 1566 -1331 1297 -1286 
Q 1028 -1241 775 -1147 
L 775 -588 
Q 1028 -725 1275 -790 
Q 1522 -856 1778 -856 
Q 2344 -856 2625 -561 
Q 2906 -266 2906 331 
L 2906 616 
Q 2728 306 2450 153 
Q 2172 0 1784 0 
Q 1141 0 747 490 
Q 353 981 353 1791 
Q 353 2603 747 3093 
Q 1141 3584 1784 3584 
Q 2172 3584 2450 3431 
Q 2728 3278 2906 2969 
L 2906 3500 
L 3481 3500 
L 3481 434 
z
" transform="scale(0.015625)"/>
      </defs>
      <use xlink:href="#DejaVuSans-4c"/>
      <use xlink:href="#DejaVuSans-6f" x="53.962891"/>
      <use xlink:href="#DejaVuSans-67" x="115.144531"/>
      <use xlink:href="#DejaVuSans-69" x="178.621094"/>
      <use xlink:href="#DejaVuSans-63" x="206.404297"/>
      <use xlink:href="#DejaVuSans-61" x="261.384766"/>
      <use xlink:href="#DejaVuSans-6c" x="322.664062"/>
      <use xlink:href="#DejaVuSans-20" x="350.447266"/>
      <use xlink:href="#DejaVuSans-45" x="382.234375"/>
      <use xlink:href="#DejaVuSans-72" x="445.417969"/>
      <use xlink:href="#DejaVuSans-72" x="484.78125"/>
      <use xlink:href="#DejaVuSans-6f" x="523.644531"/>
      <use xlink:href="#DejaVuSans-72" x="584.826172"/>
     </g>
    </g>
   </g>
   <g id="line2d_25">
    <path d="M 61.410938 297.54825 
L 65.696378 297.21561 
L 66.410618 297.04929 
L 67.124858 296.67507 
L 67.839098 296.84139 
L 68.553338 296.88297 
L 69.981818 295.80189 
L 71.410298 295.80189 
L 72.124538 295.96821 
L 74.267258 294.63765 
L 74.981498 294.42975 
L 75.695738 293.51499 
L 76.409978 293.97237 
L 77.124218 293.22393 
L 77.838458 293.05761 
L 79.266938 291.14493 
L 79.981178 291.47757 
L 80.695418 290.93703 
L 81.409658 289.93911 
L 82.123898 289.68963 
L 82.838138 290.60439 
L 83.552378 288.56697 
L 84.980858 288.23433 
L 85.695098 286.86219 
L 86.409338 286.03059 
L 87.123578 285.69795 
L 87.837818 285.11583 
L 88.552058 284.99109 
L 89.266298 284.40897 
L 89.980538 283.57737 
L 91.409018 282.53787 
L 92.123258 281.74785 
L 92.837498 281.49837 
L 93.551738 280.20939 
L 94.265978 280.45887 
L 94.980218 279.25305 
L 95.694458 278.54619 
L 96.408698 276.75825 
L 97.122938 276.55035 
L 97.837178 277.00773 
L 98.551418 276.55035 
L 99.265658 275.46927 
L 99.979898 272.10129 
L 100.694138 273.34869 
L 101.408378 271.26969 
L 102.122618 268.56699 
L 102.836858 269.44017 
L 104.265338 266.98695 
L 104.979578 266.65431 
L 105.693818 265.90587 
L 106.408058 266.61273 
L 107.122298 264.11793 
L 107.836538 264.20109 
L 109.265018 261.29049 
L 109.979258 261.41523 
L 110.693498 258.71253 
L 111.407738 259.21149 
L 112.121978 257.09091 
L 112.836218 256.75827 
L 113.550458 257.25723 
L 114.264698 256.92459 
L 114.978938 253.93083 
L 115.693178 253.97241 
L 116.407418 252.14289 
L 117.121658 252.26763 
L 117.835898 249.93915 
L 118.550138 250.68759 
L 119.264378 249.60651 
L 119.978618 246.86223 
L 120.692858 247.27803 
L 121.407098 245.07429 
L 122.121338 245.94747 
L 123.549818 241.99737 
L 124.264058 239.54415 
L 124.978298 241.41525 
L 125.692538 240.79155 
L 126.406778 238.62939 
L 127.121018 239.21151 
L 127.835258 237.34041 
L 128.549498 235.84353 
L 129.263738 235.42773 
L 129.977978 232.93293 
L 130.692218 232.93293 
L 131.406458 231.14499 
L 132.120698 230.14707 
L 132.834938 230.06391 
L 133.549178 229.44021 
L 134.263418 228.27597 
L 134.977658 231.76869 
L 135.691898 227.11173 
L 136.406138 228.35913 
L 137.120378 223.86849 
L 137.834618 222.99531 
L 138.548858 223.07847 
L 139.263098 221.99739 
L 139.977338 223.32795 
L 140.691578 220.58367 
L 141.405818 217.17411 
L 142.120058 221.58159 
L 142.834298 216.09303 
L 143.548538 215.84355 
L 144.262778 213.39033 
L 144.977018 218.04729 
L 145.691258 213.18243 
L 147.119738 211.51923 
L 147.833978 210.97869 
L 148.548218 210.27183 
L 149.262458 211.31133 
L 149.976698 206.86227 
L 150.690938 207.61071 
L 151.405178 209.77287 
L 152.119418 205.61487 
L 153.547898 205.15749 
L 154.262138 205.11591 
L 154.976378 201.87267 
L 155.690618 200.33421 
L 156.404858 202.12215 
L 157.119098 200.83317 
L 157.833338 200.79159 
L 158.547578 196.63359 
L 159.261818 201.91425 
L 159.976058 195.88515 
L 160.690298 195.13671 
L 161.404538 197.58993 
L 162.118778 194.84565 
L 162.833018 196.88307 
L 163.547258 192.14295 
L 164.261498 191.43609 
L 164.975738 193.59825 
L 165.689978 189.68973 
L 166.404218 189.85605 
L 167.118458 192.80823 
L 167.832698 191.47767 
L 168.546938 188.48391 
L 169.261178 187.23651 
L 169.975418 185.49015 
L 170.689658 185.94753 
L 171.403898 186.65439 
L 172.118138 185.53173 
L 172.832378 182.99535 
L 173.546618 181.41531 
L 174.260858 185.15751 
L 174.975098 181.33215 
L 175.689338 182.57955 
L 176.403578 184.49223 
L 177.117818 185.28225 
L 177.832058 181.49847 
L 178.546298 182.20533 
L 179.260538 180.54213 
L 179.974778 179.91843 
L 180.689018 178.54629 
L 181.403258 178.96209 
L 182.117498 181.29057 
L 182.831738 178.13049 
L 183.545978 176.00991 
L 184.260218 175.17831 
L 184.974458 176.96625 
L 185.688698 174.13881 
L 186.402938 176.84151 
L 187.117178 175.92675 
L 187.831418 174.34671 
L 188.545658 173.22405 
L 189.259898 173.93091 
L 189.974138 176.38413 
L 190.688378 171.72717 
L 191.402618 170.81241 
L 192.116858 173.14089 
L 192.831098 170.43819 
L 193.545338 172.30929 
L 194.259578 170.23029 
L 194.973818 171.10347 
L 195.688058 166.94547 
L 196.402298 169.98081 
L 197.116538 171.97665 
L 197.830778 171.22821 
L 198.545018 167.11179 
L 199.259258 169.23237 
L 199.973498 166.82073 
L 200.687738 167.27811 
L 201.401978 169.14921 
L 202.116218 169.19079 
L 202.830458 168.89973 
L 203.544698 167.65233 
L 204.258938 167.56917 
L 204.973178 168.23445 
L 205.687418 168.44235 
L 206.401658 168.77499 
L 207.115898 167.11179 
L 207.830138 168.56709 
L 208.544378 167.86023 
L 209.258618 163.45275 
L 209.972858 166.07229 
L 210.687098 168.23445 
L 211.401338 169.06605 
L 212.115578 164.32593 
L 212.829818 169.23237 
L 213.544058 162.74589 
L 214.258298 164.86647 
L 214.972538 167.98497 
L 215.686778 165.32385 
L 216.401018 167.31969 
L 217.829498 164.49225 
L 218.543738 164.11803 
L 219.257978 165.53175 
L 219.972218 165.49017 
L 220.686458 165.32385 
L 221.400698 165.03279 
L 222.114938 167.02863 
L 222.829178 161.20743 
L 223.543418 163.66065 
L 224.257658 168.69183 
L 224.971898 167.40285 
L 225.686138 165.28227 
L 226.400378 164.53383 
L 227.114618 165.40701 
L 227.828858 160.91637 
L 228.543098 163.99329 
L 229.257338 166.40493 
L 229.971578 164.11803 
L 230.685818 164.03487 
L 231.400058 164.99121 
L 232.114298 164.53383 
L 232.828538 165.44859 
L 233.542778 165.69807 
L 234.257018 164.20119 
L 234.971258 164.20119 
L 235.685498 162.41325 
L 236.399738 167.31969 
L 237.113978 163.78539 
L 237.828218 164.99121 
L 238.542458 162.57957 
L 239.256698 165.98913 
L 239.970938 163.03695 
L 240.685178 165.53175 
L 241.399418 162.57957 
L 242.113658 163.53591 
L 242.827898 162.70431 
L 243.542138 165.07437 
L 244.256378 164.65857 
L 244.970618 163.82697 
L 245.684858 164.65857 
L 246.399098 164.32593 
L 247.113338 164.86647 
L 247.827578 164.70015 
L 248.541818 163.99329 
L 249.256058 162.08061 
L 249.970298 166.65441 
L 250.684538 167.81865 
L 251.398778 164.53383 
L 252.113018 164.78331 
L 252.827258 165.86439 
L 253.541498 160.91637 
L 254.255738 165.15753 
L 254.969978 161.70639 
L 255.684218 161.37375 
L 257.112698 166.07229 
L 257.826938 166.73757 
L 258.541178 163.24485 
L 259.255418 161.87271 
L 259.969658 164.49225 
L 260.683898 161.95587 
L 261.398138 164.65857 
L 262.112378 163.03695 
L 262.826617 162.66273 
L 263.540858 163.49433 
L 264.255098 161.24901 
L 264.969337 163.74381 
L 265.683578 163.32801 
L 266.397818 159.46107 
L 267.112058 163.95171 
L 267.826298 163.91013 
L 268.540538 162.99537 
L 269.254778 161.20743 
L 270.683258 164.15961 
L 271.397498 160.87479 
L 272.111738 163.20327 
L 272.825978 159.66897 
L 273.540218 164.53383 
L 274.254458 158.04735 
L 274.968698 163.49433 
L 275.682938 160.54215 
L 276.397178 158.33841 
L 277.111418 160.45899 
L 277.825658 163.45275 
L 278.539898 160.66689 
L 279.254138 160.29267 
L 279.968378 158.13051 
L 280.682618 159.91845 
L 281.396858 158.75421 
L 282.111098 161.33217 
L 282.825338 162.08061 
L 283.539578 156.63363 
L 284.253818 156.75837 
L 284.968058 156.34257 
L 285.682298 155.46939 
L 286.396538 157.00785 
L 287.110778 154.55463 
L 287.825018 155.34465 
L 288.539258 156.38415 
L 289.253498 155.84361 
L 289.967738 153.63987 
L 290.681978 154.42989 
L 291.396218 156.30099 
L 292.110458 151.68561 
L 292.824698 152.10141 
L 293.538938 151.31139 
L 294.253178 156.34257 
L 294.967418 154.30515 
L 295.681658 154.84569 
L 296.395898 150.85401 
L 297.110138 150.52137 
L 297.824378 151.35297 
L 298.538618 153.01617 
L 299.252858 153.68145 
L 299.967098 150.56295 
L 300.681338 151.02033 
L 301.395578 152.47563 
L 302.109818 148.65027 
L 302.824058 143.03697 
L 303.538298 147.81867 
L 304.252538 144.36753 
L 304.966778 148.52553 
L 305.681018 145.98915 
L 306.395258 146.07231 
L 307.109498 144.20121 
L 307.823738 143.61909 
L 308.537978 144.49227 
L 309.252218 141.58167 
L 309.966458 141.33219 
L 310.680698 140.79165 
L 311.394938 140.54217 
L 312.109178 139.17003 
L 312.823418 137.21577 
L 313.537658 139.29477 
L 314.251898 142.03905 
L 314.966138 140.16795 
L 315.680378 132.18459 
L 316.394618 132.55881 
L 317.108858 135.63573 
L 317.823098 131.72721 
L 318.537338 134.55465 
L 319.251577 130.39665 
L 319.965818 133.39041 
L 320.680058 130.06401 
L 321.394298 130.97877 
L 322.108538 128.31765 
L 322.822778 127.15341 
L 323.537018 128.06817 
L 324.251258 126.57129 
L 324.965498 125.49021 
L 325.679738 125.11599 
L 326.393978 122.49645 
L 327.108218 124.61703 
L 327.822458 125.32389 
L 328.536698 121.24905 
L 329.250938 121.20747 
L 329.965178 120.41745 
L 330.679418 118.08897 
L 331.393658 120.12639 
L 332.107898 115.30311 
L 332.822138 114.92889 
L 333.536378 116.17629 
L 334.250618 112.89147 
L 334.964858 114.51309 
L 335.679098 110.77089 
L 336.393338 111.72723 
L 337.107578 109.77297 
L 337.821818 111.81039 
L 338.536058 109.31559 
L 339.250298 109.56507 
L 339.964538 105.53181 
L 340.678778 107.56923 
L 341.393018 103.12017 
L 342.107258 104.65863 
L 342.821498 102.74595 
L 343.535738 103.12017 
L 344.249978 103.74387 
L 344.964218 100.45905 
L 345.678458 99.83535 
L 346.392698 102.16383 
L 347.106938 100.99959 
L 347.821178 98.67111 
L 348.535418 99.00375 
L 349.249658 96.55053 
L 349.963898 95.71893 
L 350.678138 91.64409 
L 351.392378 91.47777 
L 352.106618 92.10147 
L 352.820858 91.22829 
L 353.535098 88.73349 
L 354.249338 87.86031 
L 354.963578 86.40501 
L 355.677818 87.61083 
L 356.392058 84.20127 
L 357.106298 85.98921 
L 357.820538 81.37383 
L 358.534778 83.99337 
L 359.249018 81.33225 
L 359.963258 83.53599 
L 360.677498 78.46323 
L 361.391738 79.79379 
L 362.105978 75.51105 
L 363.534458 75.21999 
L 364.248698 72.89151 
L 364.962938 75.92685 
L 365.677178 75.59421 
L 366.391418 71.89359 
L 367.105658 70.35513 
L 367.819898 71.76885 
L 368.534138 68.02665 
L 369.248378 67.81875 
L 369.962618 69.10773 
L 371.391098 65.86449 
L 372.105338 64.82499 
L 372.819578 64.20129 
L 373.533818 64.36761 
L 374.248058 61.95597 
L 374.962298 62.37177 
L 375.676538 59.37801 
L 376.390778 58.08903 
L 377.105018 59.17011 
L 377.819258 56.75847 
L 378.533498 56.63373 
L 379.247738 58.04745 
L 379.961978 54.51315 
L 380.676218 54.88737 
L 381.390458 54.38841 
L 382.104698 52.60047 
L 382.818938 53.09943 
L 383.533178 51.02043 
L 384.247418 51.22833 
L 384.961658 50.60463 
L 385.675898 50.35515 
L 386.390138 48.48405 
L 387.104378 49.06617 
L 388.532858 45.32397 
L 389.247098 46.48821 
L 389.961338 46.40505 
L 390.675578 44.11815 
L 392.104058 43.49445 
L 392.818298 43.36971 
L 394.246778 41.33229 
L 394.961018 41.33229 
L 396.389498 40.45911 
L 397.817978 38.00589 
L 398.532218 37.88115 
L 399.246458 38.42169 
L 399.960698 38.17221 
L 400.674938 37.63167 
L 401.389178 36.38427 
L 402.103418 36.34269 
L 402.817658 36.17637 
L 403.531898 34.92897 
L 404.246138 35.26161 
L 404.960378 34.09737 
L 405.674618 34.38843 
L 406.388858 34.30527 
L 407.103098 33.59841 
L 408.531578 32.68365 
L 409.245818 33.43209 
L 409.960058 33.14103 
L 410.674298 32.35101 
L 411.388538 32.60049 
L 412.817018 31.97679 
L 414.959738 31.76889 
L 416.388218 31.51941 
L 418.530938 31.43625 
L 418.530938 31.43625 
" clip-path="url(#p37e3121db0)" style="fill: none; stroke: #1f77b4; stroke-opacity: 0.3; stroke-width: 1.5; stroke-linecap: square"/>
   </g>
   <g id="line2d_26">
    <path d="M 61.410938 297.54825 
L 63.553658 297.462004 
L 66.410618 297.087297 
L 69.267578 296.387908 
L 70.696058 295.971134 
L 74.267258 294.519894 
L 76.409978 293.485429 
L 81.409658 290.508399 
L 82.123898 289.864721 
L 83.552378 288.888565 
L 86.409338 286.694733 
L 88.552058 284.789687 
L 91.409018 282.27832 
L 92.837498 280.866711 
L 94.980218 278.72193 
L 95.694458 278.085399 
L 97.122938 276.386466 
L 99.979898 273.347391 
L 100.694138 272.339888 
L 104.979578 267.488346 
L 115.693178 253.71757 
L 124.978298 241.300743 
L 126.406778 239.148653 
L 127.121018 238.434159 
L 127.835258 237.241008 
L 129.977978 234.444428 
L 134.977658 227.70863 
L 135.691898 226.87167 
L 136.406138 225.781495 
L 139.977338 221.202335 
L 142.834298 217.390131 
L 143.548538 216.631296 
L 144.977018 214.728361 
L 146.405498 212.91151 
L 147.119738 212.219593 
L 147.833978 211.138513 
L 153.547898 204.440073 
L 154.262138 203.635272 
L 154.976378 202.585377 
L 155.690618 202.005206 
L 156.404858 201.169708 
L 157.119098 200.63063 
L 159.261818 197.758686 
L 159.976058 197.544614 
L 160.690298 196.502353 
L 161.404538 195.931765 
L 162.118778 195.03812 
L 163.547258 193.566578 
L 164.261498 192.700707 
L 164.975738 192.023732 
L 166.404218 191.032634 
L 167.118458 190.091237 
L 167.832698 189.572461 
L 168.546938 188.774645 
L 169.261178 188.372813 
L 169.975418 187.530981 
L 170.689658 187.146366 
L 172.118138 185.7765 
L 172.832378 185.041054 
L 177.117818 181.843941 
L 177.832058 181.170378 
L 179.260538 180.213226 
L 179.974778 179.683406 
L 180.689018 179.30951 
L 182.117498 178.156315 
L 182.831738 177.769589 
L 183.545978 177.183083 
L 184.260218 176.978594 
L 184.974458 176.474274 
L 185.688698 176.202705 
L 186.402938 175.600282 
L 187.831418 174.843721 
L 189.259898 173.899725 
L 190.688378 173.435848 
L 191.402618 172.80354 
L 192.831098 172.317249 
L 193.545338 171.805457 
L 198.545018 169.811566 
L 199.973498 169.052082 
L 200.687738 169.095773 
L 201.401978 168.922307 
L 202.116218 168.537367 
L 203.544698 168.298931 
L 204.258938 167.847074 
L 204.973178 167.559262 
L 205.687418 167.490395 
L 206.401658 167.1943 
L 207.830138 167.10172 
L 209.258618 166.54445 
L 209.972858 166.465838 
L 210.687098 166.559068 
L 211.401338 166.192645 
L 213.544058 165.996764 
L 214.972538 165.584212 
L 217.115258 165.47945 
L 218.543738 165.153957 
L 219.257978 165.16695 
L 220.686458 164.866957 
L 221.400698 164.833823 
L 222.114938 164.9852 
L 224.257658 164.773565 
L 224.971898 164.953203 
L 225.686138 164.703398 
L 227.114618 164.60627 
L 227.828858 164.718179 
L 228.543098 164.488027 
L 229.257338 164.449533 
L 229.971578 164.790619 
L 230.685818 164.730848 
L 231.400058 164.485266 
L 234.971258 164.416399 
L 235.685498 164.636968 
L 236.399738 164.479906 
L 237.113978 164.645251 
L 237.828218 164.624137 
L 238.542458 164.341035 
L 239.256698 164.581257 
L 240.685178 164.450832 
L 243.542138 164.25219 
L 244.256378 164.489976 
L 244.970618 164.610331 
L 246.399098 164.387163 
L 247.113338 164.577684 
L 248.541818 164.425332 
L 249.256058 164.495336 
L 249.970298 164.296207 
L 251.398778 164.437839 
L 252.113018 164.321382 
L 252.827258 164.349968 
L 254.255738 164.152301 
L 254.969978 164.271844 
L 256.398458 164.096915 
L 257.112698 163.995889 
L 257.826938 164.213696 
L 258.541178 163.939366 
L 259.255418 163.874397 
L 260.683898 163.994102 
L 261.398138 163.731466 
L 262.112378 163.67202 
L 262.826617 163.750307 
L 263.540858 163.375924 
L 264.255098 163.394116 
L 264.969337 163.144798 
L 265.683578 163.172735 
L 269.969018 162.389212 
L 271.397498 161.854844 
L 272.111738 161.912341 
L 272.825978 161.648243 
L 273.540218 161.639959 
L 274.968698 161.182742 
L 275.682938 161.214089 
L 277.111418 160.696776 
L 278.539898 160.249141 
L 279.254138 159.788675 
L 279.968378 159.732964 
L 281.396858 158.987123 
L 282.111098 158.990534 
L 283.539578 158.336786 
L 284.253818 158.307063 
L 284.968058 157.716172 
L 286.396538 157.033513 
L 287.825018 156.48209 
L 289.967738 155.415466 
L 290.681978 155.132527 
L 292.110458 154.168066 
L 293.538938 153.498888 
L 294.253178 152.949902 
L 295.681658 152.085005 
L 298.538618 150.298527 
L 299.967098 149.311814 
L 302.109818 147.644229 
L 303.538298 146.873212 
L 304.252538 146.029755 
L 306.395258 144.424215 
L 307.823738 143.117369 
L 312.109178 139.392223 
L 312.823418 139.090118 
L 316.394618 135.35539 
L 317.108858 134.659737 
L 317.823098 133.724512 
L 319.251577 132.446901 
L 320.680058 130.883428 
L 324.965498 126.181153 
L 325.679738 125.191029 
L 326.393978 124.646753 
L 327.108218 123.696585 
L 327.822458 123.091564 
L 328.536698 122.081625 
L 329.965178 120.348096 
L 331.393658 118.512891 
L 333.536378 116.03141 
L 334.964858 114.250941 
L 337.107578 111.696695 
L 338.536058 109.622405 
L 339.250298 108.886471 
L 339.964538 107.770146 
L 341.393018 106.04019 
L 342.107258 104.912495 
L 342.821498 104.246891 
L 348.535418 96.427901 
L 349.963898 94.537961 
L 352.106618 91.654972 
L 353.535098 89.769742 
L 355.677818 86.751618 
L 356.392058 85.860247 
L 357.820538 83.824776 
L 358.534778 83.025173 
L 360.677498 79.913982 
L 361.391738 79.202574 
L 362.820218 77.155571 
L 364.248698 75.225837 
L 364.962938 74.534732 
L 366.391418 72.3409 
L 374.248058 62.458503 
L 374.962298 61.464969 
L 376.390778 59.860565 
L 377.819258 58.071651 
L 378.533498 57.448276 
L 382.104698 53.290276 
L 382.818938 52.638152 
L 384.247418 50.986321 
L 384.961658 50.369443 
L 386.390138 48.881009 
L 388.532858 46.76855 
L 393.532538 42.30471 
L 397.817978 39.033046 
L 402.103418 36.258555 
L 403.531898 35.447745 
L 405.674618 34.437481 
L 408.531578 33.28055 
L 410.674298 32.584248 
L 413.531258 31.901589 
L 415.673978 31.580643 
L 418.530938 31.43625 
L 418.530938 31.43625 
" clip-path="url(#p37e3121db0)" style="fill: none; stroke: #2ca02c; stroke-width: 1.5; stroke-linecap: square"/>
   </g>
   <g id="line2d_27">
    <path d="M 61.410938 297.54825 
L 63.553658 297.462393 
L 65.696378 297.206421 
L 68.553338 296.605257 
L 71.410298 295.714107 
L 74.267258 294.541747 
L 77.124218 293.098082 
L 79.981178 291.394052 
L 82.838138 289.441551 
L 85.695098 287.253331 
L 89.266298 284.207239 
L 92.837498 280.84188 
L 96.408698 277.186493 
L 100.694138 272.459967 
L 104.979578 267.413457 
L 109.979258 261.194797 
L 116.407418 252.810729 
L 125.692538 240.277536 
L 137.834618 223.926906 
L 144.262778 215.618751 
L 149.976698 208.581234 
L 154.976378 202.758345 
L 159.976058 197.296113 
L 164.261498 192.929845 
L 168.546938 188.874819 
L 172.832378 185.145058 
L 177.117818 181.749938 
L 180.689018 179.179865 
L 184.260218 176.845891 
L 187.831418 174.746188 
L 191.402618 172.876829 
L 194.973818 171.231853 
L 198.545018 169.80335 
L 202.116218 168.581552 
L 206.401658 167.371908 
L 210.687098 166.420247 
L 214.972538 165.700487 
L 219.972218 165.115272 
L 224.971898 164.756538 
L 231.400058 164.541799 
L 241.399418 164.49202 
L 251.398778 164.375012 
L 257.112698 164.098597 
L 262.112378 163.649151 
L 266.397818 163.068133 
L 270.683258 162.274147 
L 274.968698 161.239244 
L 279.254138 159.938334 
L 282.825338 158.635141 
L 286.396538 157.121119 
L 289.967738 155.387231 
L 293.538938 153.426338 
L 297.110138 151.233282 
L 300.681338 148.804969 
L 304.252538 146.140426 
L 308.537978 142.633003 
L 312.823418 138.793549 
L 317.108858 134.632989 
L 321.394298 130.166889 
L 326.393978 124.597431 
L 331.393658 118.679521 
L 337.107578 111.551258 
L 343.535738 103.167544 
L 352.820858 90.650095 
L 365.677178 73.340457 
L 372.105338 65.08603 
L 377.105018 59.011209 
L 381.390458 54.117869 
L 385.675898 49.571649 
L 389.247098 46.086702 
L 392.818298 42.909476 
L 396.389498 40.068421 
L 399.246458 38.055763 
L 402.103418 36.288466 
L 404.960378 34.778645 
L 407.817338 33.537488 
L 410.674298 32.575167 
L 413.531258 31.900749 
L 416.388218 31.522107 
L 418.530938 31.43625 
L 418.530938 31.43625 
" clip-path="url(#p37e3121db0)" style="fill: none; stroke-dasharray: 5.55,2.4; stroke-dashoffset: 0; stroke: #9467bd; stroke-width: 1.5"/>
   </g>
   <g id="line2d_28">
    <path d="M 61.410938 297.54825 
L 62.125178 297.46509 
L 62.839418 297.50667 
L 64.267898 297.29877 
L 64.982138 296.96613 
L 65.696378 296.88297 
L 66.410618 296.34243 
L 67.124858 296.05137 
L 67.839098 295.09503 
L 68.553338 294.42975 
L 69.267578 293.59815 
L 69.981818 293.72289 
L 71.410298 292.01811 
L 72.124538 291.89337 
L 72.838778 292.26759 
L 73.553018 290.02227 
L 74.267258 289.35699 
L 74.981498 288.44223 
L 75.695738 289.44015 
L 76.409978 287.98485 
L 77.838458 285.94743 
L 78.552698 284.45055 
L 79.266938 284.53371 
L 79.981178 282.70419 
L 80.695418 281.53995 
L 81.409658 281.91417 
L 82.123898 280.00149 
L 82.838138 278.50461 
L 83.552378 278.62935 
L 84.266618 277.34037 
L 84.980858 277.83933 
L 86.409338 274.09713 
L 87.123578 274.34661 
L 87.837818 271.60233 
L 88.552058 272.26761 
L 89.266298 270.77073 
L 89.980538 269.68965 
L 92.123258 264.07635 
L 92.837498 264.32583 
L 93.551738 263.45265 
L 94.265978 261.87261 
L 94.980218 262.03893 
L 95.694458 259.95993 
L 96.408698 260.29257 
L 97.122938 255.80193 
L 97.837178 258.17199 
L 99.265658 255.63561 
L 99.979898 252.35079 
L 100.694138 251.89341 
L 101.408378 250.43811 
L 102.122618 248.23437 
L 102.836858 250.52127 
L 104.265338 244.70007 
L 104.979578 244.94955 
L 105.693818 243.36951 
L 106.408058 243.41109 
L 107.122298 239.66889 
L 107.836538 243.03687 
L 108.550778 240.29259 
L 109.265018 239.04519 
L 109.979258 236.84145 
L 110.693498 238.67097 
L 111.407738 232.68345 
L 112.121978 236.88303 
L 112.836218 233.84769 
L 113.550458 232.68345 
L 114.264698 232.26765 
L 114.978938 231.18657 
L 115.693178 229.10757 
L 116.407418 226.52961 
L 117.121658 227.02857 
L 117.835898 223.66059 
L 118.550138 224.65851 
L 119.264378 223.28637 
L 119.978618 221.62317 
L 120.692858 222.95373 
L 121.407098 223.49427 
L 122.121338 220.20945 
L 122.835578 219.54417 
L 123.549818 216.71673 
L 124.264058 214.76247 
L 124.978298 216.88305 
L 125.692538 214.13877 
L 126.406778 214.26351 
L 127.835258 213.22401 
L 128.549498 210.23025 
L 129.263738 211.31133 
L 129.977978 207.52755 
L 130.692218 211.31133 
L 131.406458 211.31133 
L 132.120698 207.77703 
L 132.834938 207.56913 
L 133.549178 206.77911 
L 134.263418 208.73337 
L 134.977658 204.45063 
L 135.691898 204.70011 
L 136.406138 203.28639 
L 137.120378 203.99325 
L 137.834618 200.99949 
L 138.548858 202.62111 
L 139.263098 200.62527 
L 139.977338 197.50677 
L 140.691578 200.20947 
L 141.405818 200.00157 
L 142.120058 197.09097 
L 142.834298 196.79991 
L 143.548538 193.47351 
L 144.262778 195.63567 
L 144.977018 194.05563 
L 145.691258 193.47351 
L 146.405498 193.26561 
L 147.119738 190.89555 
L 147.833978 192.43401 
L 148.548218 193.14087 
L 149.262458 188.98287 
L 149.976698 191.93505 
L 150.690938 187.73547 
L 151.405178 190.31343 
L 152.119418 188.10969 
L 152.833658 188.60865 
L 153.547898 187.94337 
L 154.262138 189.23235 
L 154.976378 183.74379 
L 155.690618 184.57539 
L 156.404858 188.06811 
L 157.119098 184.99119 
L 157.833338 185.49015 
L 158.547578 184.11801 
L 159.261818 184.15959 
L 159.976058 181.20741 
L 160.690298 179.46105 
L 161.404538 179.21157 
L 162.118778 182.03901 
L 162.833018 175.80201 
L 163.547258 179.25315 
L 164.261498 176.71677 
L 165.689978 179.62737 
L 166.404218 178.50471 
L 167.118458 178.21365 
L 167.832698 178.17207 
L 168.546938 176.59203 
L 169.975418 177.63153 
L 170.689658 176.88309 
L 171.403898 176.38413 
L 172.118138 177.58995 
L 172.832378 177.38205 
L 173.546618 175.17831 
L 174.260858 175.92675 
L 174.975098 174.55461 
L 175.689338 171.35295 
L 176.403578 172.01823 
L 177.117818 173.01615 
L 177.832058 172.01823 
L 178.546298 173.05773 
L 179.260538 172.60035 
L 179.974778 171.64401 
L 180.689018 171.39453 
L 181.403258 168.89973 
L 182.117498 170.60451 
L 182.831738 169.14921 
L 183.545978 171.85191 
L 184.260218 169.81449 
L 184.974458 170.56293 
L 185.688698 168.98289 
L 186.402938 167.98497 
L 187.117178 167.52759 
L 187.831418 171.26979 
L 188.545658 171.60243 
L 189.259898 170.02239 
L 189.974138 169.60659 
L 190.688378 168.98289 
L 191.402618 168.52551 
L 192.116858 168.40077 
L 192.831098 169.02447 
L 193.545338 167.36127 
L 194.259578 168.52551 
L 194.973818 169.98081 
L 195.688058 166.48809 
L 196.402298 168.48393 
L 197.116538 165.73965 
L 197.830778 165.90597 
L 198.545018 164.86647 
L 199.259258 168.48393 
L 199.973498 166.77915 
L 200.687738 164.11803 
L 201.401978 165.65649 
L 202.116218 168.06813 
L 202.830458 164.24277 
L 203.544698 162.49641 
L 204.258938 163.91013 
L 204.973178 166.94547 
L 205.687418 167.07021 
L 206.401658 166.94547 
L 207.115898 165.24069 
L 207.830138 163.20327 
L 208.544378 164.40909 
L 209.258618 164.78331 
L 209.972858 167.02863 
L 210.687098 166.28019 
L 211.401338 167.98497 
L 212.115578 165.03279 
L 212.829818 163.82697 
L 213.544058 163.91013 
L 214.258298 164.61699 
L 214.972538 163.20327 
L 215.686778 161.29059 
L 216.401018 165.98913 
L 217.115258 164.74173 
L 217.829498 162.87063 
L 218.543738 164.28435 
L 219.257978 164.70015 
L 219.972218 163.32801 
L 220.686458 164.03487 
L 221.400698 164.40909 
L 222.114938 166.40493 
L 222.829178 165.82281 
L 223.543418 166.11387 
L 224.257658 164.20119 
L 224.971898 167.44443 
L 225.686138 163.20327 
L 226.400378 166.23861 
L 227.114618 165.94755 
L 227.828858 163.16169 
L 228.543098 162.74589 
L 229.257338 166.57125 
L 229.971578 160.50057 
L 232.114298 165.69807 
L 232.828538 166.15545 
L 233.542778 165.65649 
L 234.257018 164.49225 
L 234.971258 162.66273 
L 235.685498 165.53175 
L 236.399738 164.86647 
L 237.113978 163.66065 
L 237.828218 162.16377 
L 238.542458 163.36959 
L 239.256698 162.53799 
L 239.970938 164.28435 
L 240.685178 164.45067 
L 241.399418 164.99121 
L 242.113658 163.16169 
L 242.827898 165.65649 
L 243.542138 165.07437 
L 244.256378 163.61907 
L 244.970618 165.61491 
L 245.684858 166.86231 
L 246.399098 164.65857 
L 247.113338 165.03279 
L 247.827578 165.61491 
L 248.541818 165.94755 
L 249.256058 164.24277 
L 249.970298 165.44859 
L 250.684538 165.40701 
L 251.398778 164.24277 
L 252.113018 162.24693 
L 252.827258 164.24277 
L 253.541498 164.74173 
L 254.255738 163.12011 
L 254.969978 164.24277 
L 255.684218 163.66065 
L 256.398458 165.57333 
L 257.826938 163.36959 
L 258.541178 165.82281 
L 259.255418 160.91637 
L 259.969658 164.28435 
L 260.683898 163.91013 
L 261.398138 163.78539 
L 262.112378 162.16377 
L 262.826617 165.07437 
L 263.540858 164.36751 
L 264.255098 162.91221 
L 264.969337 165.24069 
L 265.683578 164.45067 
L 266.397818 163.82697 
L 267.112058 163.78539 
L 267.826298 162.82905 
L 268.540538 165.15753 
L 269.254778 164.99121 
L 269.969018 162.95379 
L 270.683258 161.87271 
L 271.397498 166.03071 
L 272.111738 161.08269 
L 272.825978 162.45483 
L 273.540218 157.38207 
L 274.254458 161.37375 
L 274.968698 161.49849 
L 275.682938 162.78747 
L 276.397178 164.49225 
L 277.111418 160.66689 
L 277.825658 160.25109 
L 278.539898 159.29475 
L 279.254138 160.20951 
L 279.968378 162.08061 
L 280.682618 160.83321 
L 281.396858 163.57749 
L 282.111098 160.95795 
L 282.825338 162.16377 
L 283.539578 162.66273 
L 284.253818 164.15961 
L 285.682298 161.91429 
L 286.396538 159.91845 
L 287.110778 162.49641 
L 287.825018 161.78955 
L 289.253498 159.37791 
L 289.967738 162.08061 
L 290.681978 159.17001 
L 291.396218 161.08269 
L 292.110458 161.08269 
L 292.824698 160.45899 
L 293.538938 157.13259 
L 294.253178 160.25109 
L 294.967418 160.16793 
L 295.681658 157.46523 
L 296.395898 160.50057 
L 297.824378 156.42573 
L 298.538618 155.30307 
L 299.252858 156.88311 
L 299.967098 155.84361 
L 300.681338 154.22199 
L 301.395578 154.47147 
L 302.109818 155.51097 
L 302.824058 155.17833 
L 303.538298 156.55047 
L 304.252538 157.09101 
L 304.966778 155.76045 
L 305.681018 154.13883 
L 306.395258 155.55255 
L 307.109498 155.59413 
L 307.823738 155.92677 
L 308.537978 154.72095 
L 309.252218 154.97043 
L 309.966458 158.08893 
L 310.680698 152.05983 
L 311.394938 151.68561 
L 312.109178 150.27189 
L 312.823418 149.10765 
L 313.537658 153.76461 
L 314.251898 148.73343 
L 314.966138 147.56919 
L 315.680378 150.02241 
L 316.394618 148.73343 
L 317.108858 145.24071 
L 317.823098 148.48395 
L 319.251577 146.48811 
L 319.965818 148.44237 
L 320.680058 148.40079 
L 322.108538 141.87273 
L 322.822778 144.99123 
L 323.537018 143.16171 
L 324.251258 143.32803 
L 324.965498 143.24487 
L 325.679738 145.44861 
L 326.393978 140.16795 
L 327.108218 142.20537 
L 327.822458 139.00371 
L 328.536698 141.41535 
L 329.250938 141.12429 
L 329.965178 137.67315 
L 330.679418 139.71057 
L 331.393658 136.63365 
L 332.107898 138.67107 
L 332.822138 136.25943 
L 333.536378 135.46941 
L 334.250618 135.59415 
L 334.964858 133.30725 
L 335.679098 134.30517 
L 336.393338 129.73137 
L 337.107578 133.43199 
L 337.821818 131.47773 
L 338.536058 130.60455 
L 339.250298 132.30933 
L 339.964538 129.44031 
L 342.107258 129.14925 
L 342.821498 128.94135 
L 344.249978 125.24073 
L 344.964218 124.53387 
L 345.678458 122.49645 
L 346.392698 121.87275 
L 347.106938 123.20331 
L 347.821178 123.95175 
L 348.535418 119.50269 
L 349.249658 120.95799 
L 349.963898 120.12639 
L 350.678138 117.88107 
L 351.392378 117.21579 
L 352.106618 115.51101 
L 352.820858 117.34053 
L 353.535098 112.39251 
L 354.249338 113.97255 
L 354.963578 114.59625 
L 356.392058 110.85405 
L 357.106298 107.15343 
L 357.820538 109.98087 
L 358.534778 106.48815 
L 359.249018 107.48607 
L 359.963258 104.86653 
L 360.677498 106.90395 
L 361.391738 104.74179 
L 362.105978 102.99543 
L 362.820218 100.20957 
L 363.534458 100.37589 
L 364.248698 102.66279 
L 364.962938 98.83743 
L 365.677178 96.21789 
L 366.391418 99.04533 
L 367.819898 94.67943 
L 368.534138 93.47361 
L 369.248378 90.18879 
L 369.962618 91.60251 
L 370.676858 89.31561 
L 371.391098 86.57133 
L 372.105338 89.39877 
L 373.533818 84.32601 
L 374.248058 82.66281 
L 374.962298 83.74389 
L 375.676538 82.62123 
L 376.390778 79.91853 
L 377.105018 79.25325 
L 377.819258 81.20751 
L 378.533498 81.20751 
L 379.247738 74.38839 
L 379.961978 74.92893 
L 380.676218 74.01417 
L 381.390458 75.05367 
L 382.104698 71.89359 
L 382.818938 71.56095 
L 383.533178 70.81251 
L 384.247418 68.27613 
L 384.961658 66.73767 
L 385.675898 67.52769 
L 386.390138 62.53809 
L 387.104378 62.28861 
L 387.818618 65.15763 
L 388.532858 63.03705 
L 389.247098 61.54017 
L 389.961338 60.99963 
L 390.675578 59.66907 
L 391.389818 59.04537 
L 392.104058 56.30109 
L 392.818298 56.09319 
L 393.532538 54.51315 
L 394.246778 54.13893 
L 394.961018 51.02043 
L 395.675258 50.39673 
L 396.389498 50.60463 
L 397.103738 51.18675 
L 397.817978 48.60879 
L 398.532218 47.77719 
L 399.960698 45.07449 
L 400.674938 44.36763 
L 401.389178 44.11815 
L 402.103418 43.03707 
L 402.817658 42.37179 
L 403.531898 40.50069 
L 404.246138 39.08697 
L 404.960378 39.17013 
L 406.388858 37.96431 
L 407.103098 37.46535 
L 408.531578 36.92481 
L 409.245818 35.30319 
L 410.674298 34.67949 
L 411.388538 33.88947 
L 412.102778 33.72315 
L 412.817018 32.55891 
L 414.245498 32.47575 
L 414.959738 32.05995 
L 417.102458 31.47783 
L 418.530938 31.43625 
L 418.530938 31.43625 
" clip-path="url(#p37e3121db0)" style="fill: none; stroke: #ff7f0e; stroke-opacity: 0.3; stroke-width: 1.5; stroke-linecap: square"/>
   </g>
   <g id="line2d_29">
    <path d="M 61.410938 297.54825 
L 62.839418 297.435367 
L 64.267898 297.106138 
L 65.696378 296.59662 
L 67.839098 295.443425 
L 69.267578 294.517295 
L 71.410298 292.782142 
L 73.553018 290.778181 
L 74.981498 289.287149 
L 77.838458 285.97959 
L 80.695418 282.333218 
L 83.552378 278.397899 
L 84.266618 277.550219 
L 86.409338 274.280504 
L 89.980538 268.821667 
L 90.694778 267.923637 
L 92.123258 265.675393 
L 93.551738 263.42244 
L 99.265658 254.285072 
L 99.979898 253.294461 
L 100.694138 251.986478 
L 104.979578 245.541253 
L 105.693818 244.205658 
L 113.550458 232.104903 
L 114.264698 231.402104 
L 114.978938 230.134076 
L 116.407418 228.17673 
L 119.264378 224.110661 
L 119.978618 223.345492 
L 120.692858 222.122292 
L 121.407098 221.34283 
L 124.264058 217.363169 
L 124.978298 216.675475 
L 125.692538 215.563697 
L 126.406778 214.837996 
L 127.835258 212.849465 
L 129.977978 210.387474 
L 130.692218 209.324261 
L 131.406458 208.783396 
L 132.120698 207.785314 
L 133.549178 206.184484 
L 134.977658 204.467035 
L 137.120378 202.078946 
L 137.834618 201.468889 
L 138.548858 200.580117 
L 139.263098 200.059555 
L 139.977338 198.981073 
L 141.405818 197.778177 
L 142.120058 196.977762 
L 142.834298 196.496181 
L 144.262778 194.867739 
L 147.119738 192.431249 
L 147.833978 191.884537 
L 149.262458 190.547155 
L 150.690938 189.288386 
L 151.405178 188.80713 
L 152.119418 188.177095 
L 152.833658 187.697138 
L 153.547898 186.812589 
L 154.262138 186.634087 
L 154.976378 185.936648 
L 157.119098 184.556062 
L 157.833338 183.715691 
L 158.547578 183.430641 
L 159.261818 182.866712 
L 160.690298 182.031051 
L 164.261498 179.535602 
L 164.975738 179.384062 
L 167.118458 178.032874 
L 169.261178 176.782713 
L 169.975418 176.514392 
L 170.689658 176.04012 
L 171.403898 175.771475 
L 173.546618 174.704201 
L 174.260858 174.539505 
L 174.975098 174.019592 
L 175.689338 173.933509 
L 176.403578 173.359997 
L 177.117818 173.376077 
L 177.832058 172.959465 
L 179.260538 172.410154 
L 179.974778 171.88748 
L 180.689018 171.85792 
L 181.403258 171.375689 
L 182.117498 171.415482 
L 186.402938 169.914217 
L 187.831418 169.533987 
L 188.545658 169.244552 
L 189.259898 169.18007 
L 192.116858 168.206026 
L 194.259578 167.798835 
L 194.973818 167.818488 
L 198.545018 166.882125 
L 199.259258 167.159542 
L 199.973498 166.525447 
L 200.687738 166.577584 
L 201.401978 166.315273 
L 202.116218 166.237148 
L 203.544698 166.214084 
L 204.973178 165.922212 
L 205.687418 165.706678 
L 206.401658 165.812253 
L 207.115898 165.699857 
L 207.830138 165.823947 
L 209.258618 165.446641 
L 210.687098 165.482211 
L 211.401338 165.283245 
L 212.829818 165.205282 
L 213.544058 165.187578 
L 214.258298 164.818556 
L 214.972538 165.152982 
L 215.686778 164.921856 
L 216.401018 164.974481 
L 217.115258 164.858836 
L 219.972218 164.899442 
L 221.400698 164.625111 
L 222.114938 164.880276 
L 226.400378 164.526196 
L 227.114618 164.535617 
L 227.828858 164.698526 
L 228.543098 164.482017 
L 229.257338 164.562254 
L 229.971578 164.421596 
L 232.114298 164.429555 
L 232.828538 164.373357 
L 234.257018 164.436864 
L 234.971258 164.35208 
L 235.685498 164.4393 
L 236.399738 164.235299 
L 237.113978 164.292471 
L 237.828218 164.465613 
L 240.685178 164.575248 
L 241.399418 164.410714 
L 242.827898 164.463176 
L 243.542138 164.518725 
L 244.970618 164.150352 
L 245.684858 164.432804 
L 248.541818 164.380504 
L 249.256058 164.591165 
L 249.970298 164.540002 
L 250.684538 164.375306 
L 251.398778 164.486403 
L 252.113018 164.37352 
L 253.541498 164.46204 
L 254.255738 164.160097 
L 254.969978 164.501508 
L 255.684218 164.30043 
L 256.398458 164.323006 
L 257.112698 164.463339 
L 257.826938 164.027074 
L 258.541178 164.244719 
L 259.255418 164.272656 
L 259.969658 163.960806 
L 260.683898 164.240659 
L 262.112378 164.01408 
L 262.826617 164.025937 
L 263.540858 163.823559 
L 264.255098 164.070603 
L 264.969337 163.87391 
L 266.397818 164.011319 
L 267.112058 163.655615 
L 268.540538 163.79546 
L 269.254778 163.60835 
L 269.969018 163.75453 
L 270.683258 163.517556 
L 271.397498 163.510572 
L 273.540218 163.159579 
L 276.397178 162.966134 
L 277.111418 162.498521 
L 277.825658 162.698625 
L 279.254138 162.331227 
L 279.968378 162.322943 
L 280.682618 162.177576 
L 281.396858 162.208598 
L 282.825338 161.675855 
L 283.539578 161.592532 
L 284.253818 161.321937 
L 285.682298 161.392104 
L 287.825018 160.525908 
L 288.539258 160.621574 
L 289.253498 160.138694 
L 290.681978 160.05927 
L 291.396218 159.641846 
L 294.967418 158.794328 
L 295.681658 158.43099 
L 296.395898 158.207173 
L 297.110138 157.774156 
L 297.824378 157.644219 
L 300.681338 156.65507 
L 301.395578 156.286372 
L 302.109818 156.253888 
L 302.824058 155.829967 
L 304.252538 155.351959 
L 305.681018 154.519872 
L 306.395258 154.417546 
L 307.109498 154.007918 
L 307.823738 153.408581 
L 308.537978 153.415728 
L 309.252218 153.035173 
L 309.966458 152.264157 
L 312.109178 151.464067 
L 312.823418 150.94659 
L 314.966138 149.76822 
L 319.251577 146.941592 
L 320.680058 146.225961 
L 328.536698 140.196211 
L 329.965178 139.022226 
L 330.679418 138.284181 
L 331.393658 137.910936 
L 332.822138 136.692609 
L 333.536378 135.876764 
L 334.250618 135.313647 
L 337.107578 132.484746 
L 337.821818 132.021194 
L 340.678778 129.058943 
L 342.107258 127.694762 
L 342.821498 126.765871 
L 343.535738 126.143146 
L 349.249658 119.536311 
L 349.963898 118.792744 
L 350.678138 117.78313 
L 352.106618 116.097678 
L 355.677818 111.704978 
L 356.392058 110.444584 
L 357.106298 109.77768 
L 357.820538 108.635367 
L 360.677498 104.781096 
L 364.962938 98.634078 
L 365.677178 97.842109 
L 368.534138 93.439339 
L 372.105338 88.102968 
L 378.533498 78.018844 
L 389.247098 61.063624 
L 389.961338 60.169167 
L 392.104058 56.785107 
L 393.532538 54.696849 
L 397.103738 49.499024 
L 400.674938 44.790089 
L 404.246138 40.433447 
L 409.245818 35.562903 
L 412.817018 33.073462 
L 415.673978 31.881286 
L 417.102458 31.546372 
L 418.530938 31.43625 
L 418.530938 31.43625 
" clip-path="url(#p37e3121db0)" style="fill: none; stroke: #d62728; stroke-width: 1.5; stroke-linecap: square"/>
   </g>
   <g id="line2d_30">
    <path d="M 61.410938 297.54825 
L 62.839418 297.436015 
L 64.267898 297.10994 
L 65.696378 296.585385 
L 67.124858 295.876949 
L 69.267578 294.499659 
L 71.410298 292.783555 
L 73.553018 290.769184 
L 75.695738 288.493965 
L 78.552698 285.113775 
L 81.409658 281.405052 
L 84.980858 276.407363 
L 89.266298 270.027186 
L 95.694458 260.009852 
L 109.265018 238.759471 
L 114.978938 230.264917 
L 119.978618 223.199691 
L 124.978298 216.531552 
L 129.263738 211.15811 
L 133.549178 206.114648 
L 137.834618 201.408163 
L 142.120058 197.040605 
L 146.405498 193.009815 
L 150.690938 189.310312 
L 154.976378 185.933962 
L 159.261818 182.870526 
L 163.547258 180.108122 
L 167.832698 177.633598 
L 172.118138 175.432832 
L 176.403578 173.490974 
L 180.689018 171.79264 
L 184.974458 170.322058 
L 189.259898 169.063182 
L 194.259578 167.8404 
L 199.259258 166.857679 
L 204.258938 166.088888 
L 209.972858 165.438597 
L 216.401018 164.951286 
L 223.543418 164.647664 
L 232.828538 164.505023 
L 257.826938 164.292666 
L 264.969337 163.944593 
L 271.397498 163.404174 
L 277.111418 162.69626 
L 282.111098 161.869018 
L 287.110778 160.82037 
L 292.110458 159.524216 
L 296.395898 158.196568 
L 300.681338 156.65184 
L 304.966778 154.874067 
L 309.252218 152.847593 
L 313.537658 150.557192 
L 317.823098 147.988235 
L 322.108538 145.126893 
L 326.393978 141.9604 
L 330.679418 138.477376 
L 334.964858 134.668229 
L 339.250298 130.525643 
L 343.535738 126.045164 
L 347.821178 121.225908 
L 352.106618 116.071396 
L 356.392058 110.590543 
L 361.391738 103.804816 
L 366.391418 96.634649 
L 372.105338 88.042824 
L 379.961978 75.759387 
L 391.389818 57.871647 
L 395.675258 51.550461 
L 399.246458 46.62522 
L 402.103418 42.99212 
L 404.960378 39.705333 
L 407.103098 37.51309 
L 409.245818 35.593833 
L 411.388538 33.986002 
L 413.531258 32.731231 
L 414.959738 32.112957 
L 416.388218 31.685771 
L 417.816698 31.464647 
L 418.530938 31.43625 
L 418.530938 31.43625 
" clip-path="url(#p37e3121db0)" style="fill: none; stroke-dasharray: 5.55,2.4; stroke-dashoffset: 0; stroke: #8c564b; stroke-width: 1.5"/>
   </g>
   <g id="line2d_31">
    <path d="M 61.410938 297.54825 
L 418.530938 31.43625 
L 418.530938 31.43625 
" clip-path="url(#p37e3121db0)" style="fill: none; stroke-dasharray: 5.55,2.4; stroke-dashoffset: 0; stroke: #1f77b4; stroke-width: 1.5"/>
   </g>
   <g id="patch_3">
    <path d="M 61.410938 297.54825 
L 61.410938 31.43625 
" style="fill: none; stroke: #000000; stroke-width: 0.8; stroke-linejoin: miter; stroke-linecap: square"/>
   </g>
   <g id="patch_4">
    <path d="M 418.530938 297.54825 
L 418.530938 31.43625 
" style="fill: none; stroke: #000000; stroke-width: 0.8; stroke-linejoin: miter; stroke-linecap: square"/>
   </g>
   <g id="patch_5">
    <path d="M 61.410938 297.54825 
L 418.530938 297.54825 
" style="fill: none; stroke: #000000; stroke-width: 0.8; stroke-linejoin: miter; stroke-linecap: square"/>
   </g>
   <g id="patch_6">
    <path d="M 61.410938 31.43625 
L 418.530938 31.43625 
" style="fill: none; stroke: #000000; stroke-width: 0.8; stroke-linejoin: miter; stroke-linecap: square"/>
   </g>
   <g id="text_15">
    <!-- Shor code [[9, 1, 3]] -->
    <g transform="translate(119.014688 25.43625) scale(0.24 -0.24)">
     <defs>
      <path id="DejaVuSans-53" d="M 3425 4513 
L 3425 3897 
Q 3066 4069 2747 4153 
Q 2428 4238 2131 4238 
Q 1616 4238 1336 4038 
Q 1056 3838 1056 3469 
Q 1056 3159 1242 3001 
Q 1428 2844 1947 2747 
L 2328 2669 
Q 3034 2534 3370 2195 
Q 3706 1856 3706 1288 
Q 3706 609 3251 259 
Q 2797 -91 1919 -91 
Q 1588 -91 1214 -16 
Q 841 59 441 206 
L 441 856 
Q 825 641 1194 531 
Q 1563 422 1919 422 
Q 2459 422 2753 634 
Q 3047 847 3047 1241 
Q 3047 1584 2836 1778 
Q 2625 1972 2144 2069 
L 1759 2144 
Q 1053 2284 737 2584 
Q 422 2884 422 3419 
Q 422 4038 858 4394 
Q 1294 4750 2059 4750 
Q 2388 4750 2728 4690 
Q 3069 4631 3425 4513 
z
" transform="scale(0.015625)"/>
      <path id="DejaVuSans-64" d="M 2906 2969 
L 2906 4863 
L 3481 4863 
L 3481 0 
L 2906 0 
L 2906 525 
Q 2725 213 2448 61 
Q 2172 -91 1784 -91 
Q 1150 -91 751 415 
Q 353 922 353 1747 
Q 353 2572 751 3078 
Q 1150 3584 1784 3584 
Q 2172 3584 2448 3432 
Q 2725 3281 2906 2969 
z
M 947 1747 
Q 947 1113 1208 752 
Q 1469 391 1925 391 
Q 2381 391 2643 752 
Q 2906 1113 2906 1747 
Q 2906 2381 2643 2742 
Q 2381 3103 1925 3103 
Q 1469 3103 1208 2742 
Q 947 2381 947 1747 
z
" transform="scale(0.015625)"/>
      <path id="DejaVuSans-65" d="M 3597 1894 
L 3597 1613 
L 953 1613 
Q 991 1019 1311 708 
Q 1631 397 2203 397 
Q 2534 397 2845 478 
Q 3156 559 3463 722 
L 3463 178 
Q 3153 47 2828 -22 
Q 2503 -91 2169 -91 
Q 1331 -91 842 396 
Q 353 884 353 1716 
Q 353 2575 817 3079 
Q 1281 3584 2069 3584 
Q 2775 3584 3186 3129 
Q 3597 2675 3597 1894 
z
M 3022 2063 
Q 3016 2534 2758 2815 
Q 2500 3097 2075 3097 
Q 1594 3097 1305 2825 
Q 1016 2553 972 2059 
L 3022 2063 
z
" transform="scale(0.015625)"/>
      <path id="DejaVuSans-5b" d="M 550 4863 
L 1875 4863 
L 1875 4416 
L 1125 4416 
L 1125 -397 
L 1875 -397 
L 1875 -844 
L 550 -844 
L 550 4863 
z
" transform="scale(0.015625)"/>
      <path id="DejaVuSans-39" d="M 703 97 
L 703 672 
Q 941 559 1184 500 
Q 1428 441 1663 441 
Q 2288 441 2617 861 
Q 2947 1281 2994 2138 
Q 2813 1869 2534 1725 
Q 2256 1581 1919 1581 
Q 1219 1581 811 2004 
Q 403 2428 403 3163 
Q 403 3881 828 4315 
Q 1253 4750 1959 4750 
Q 2769 4750 3195 4129 
Q 3622 3509 3622 2328 
Q 3622 1225 3098 567 
Q 2575 -91 1691 -91 
Q 1453 -91 1209 -44 
Q 966 3 703 97 
z
M 1959 2075 
Q 2384 2075 2632 2365 
Q 2881 2656 2881 3163 
Q 2881 3666 2632 3958 
Q 2384 4250 1959 4250 
Q 1534 4250 1286 3958 
Q 1038 3666 1038 3163 
Q 1038 2656 1286 2365 
Q 1534 2075 1959 2075 
z
" transform="scale(0.015625)"/>
      <path id="DejaVuSans-2c" d="M 750 794 
L 1409 794 
L 1409 256 
L 897 -744 
L 494 -744 
L 750 256 
L 750 794 
z
" transform="scale(0.015625)"/>
      <path id="DejaVuSans-33" d="M 2597 2516 
Q 3050 2419 3304 2112 
Q 3559 1806 3559 1356 
Q 3559 666 3084 287 
Q 2609 -91 1734 -91 
Q 1441 -91 1130 -33 
Q 819 25 488 141 
L 488 750 
Q 750 597 1062 519 
Q 1375 441 1716 441 
Q 2309 441 2620 675 
Q 2931 909 2931 1356 
Q 2931 1769 2642 2001 
Q 2353 2234 1838 2234 
L 1294 2234 
L 1294 2753 
L 1863 2753 
Q 2328 2753 2575 2939 
Q 2822 3125 2822 3475 
Q 2822 3834 2567 4026 
Q 2313 4219 1838 4219 
Q 1578 4219 1281 4162 
Q 984 4106 628 3988 
L 628 4550 
Q 988 4650 1302 4700 
Q 1616 4750 1894 4750 
Q 2613 4750 3031 4423 
Q 3450 4097 3450 3541 
Q 3450 3153 3228 2886 
Q 3006 2619 2597 2516 
z
" transform="scale(0.015625)"/>
      <path id="DejaVuSans-5d" d="M 1947 4863 
L 1947 -844 
L 622 -844 
L 622 -397 
L 1369 -397 
L 1369 4416 
L 622 4416 
L 622 4863 
L 1947 4863 
z
" transform="scale(0.015625)"/>
     </defs>
     <use xlink:href="#DejaVuSans-53"/>
     <use xlink:href="#DejaVuSans-68" x="63.476562"/>
     <use xlink:href="#DejaVuSans-6f" x="126.855469"/>
     <use xlink:href="#DejaVuSans-72" x="188.037109"/>
     <use xlink:href="#DejaVuSans-20" x="229.150391"/>
     <use xlink:href="#DejaVuSans-63" x="260.9375"/>
     <use xlink:href="#DejaVuSans-6f" x="315.917969"/>
     <use xlink:href="#DejaVuSans-64" x="377.099609"/>
     <use xlink:href="#DejaVuSans-65" x="440.576172"/>
     <use xlink:href="#DejaVuSans-20" x="502.099609"/>
     <use xlink:href="#DejaVuSans-5b" x="533.886719"/>
     <use xlink:href="#DejaVuSans-5b" x="572.900391"/>
     <use xlink:href="#DejaVuSans-39" x="611.914062"/>
     <use xlink:href="#DejaVuSans-2c" x="675.537109"/>
     <use xlink:href="#DejaVuSans-20" x="707.324219"/>
     <use xlink:href="#DejaVuSans-31" x="739.111328"/>
     <use xlink:href="#DejaVuSans-2c" x="802.734375"/>
     <use xlink:href="#DejaVuSans-20" x="834.521484"/>
     <use xlink:href="#DejaVuSans-33" x="866.308594"/>
     <use xlink:href="#DejaVuSans-5d" x="929.931641"/>
     <use xlink:href="#DejaVuSans-5d" x="968.945312"/>
    </g>
   </g>
   <g id="legend_1">
    <g id="patch_7">
     <path d="M 70.510938 99.080937 
L 320.247031 99.080937 
Q 322.847031 99.080937 322.847031 96.480937 
L 322.847031 40.53625 
Q 322.847031 37.93625 320.247031 37.93625 
L 70.510938 37.93625 
Q 67.910938 37.93625 67.910938 40.53625 
L 67.910938 96.480937 
Q 67.910938 99.080937 70.510938 99.080937 
z
" style="fill: #ffffff; opacity: 0.8; stroke: #cccccc; stroke-linejoin: miter"/>
    </g>
    <g id="line2d_32">
     <path d="M 73.110938 48.464219 
L 86.110938 48.464219 
L 99.110938 48.464219 
" style="fill: none; stroke: #1f77b4; stroke-opacity: 0.3; stroke-width: 1.5; stroke-linecap: square"/>
    </g>
    <g id="text_16">
     <!-- x (state) -->
     <g transform="translate(109.510938 53.014219) scale(0.13 -0.13)">
      <defs>
       <path id="DejaVuSans-78" d="M 3513 3500 
L 2247 1797 
L 3578 0 
L 2900 0 
L 1881 1375 
L 863 0 
L 184 0 
L 1544 1831 
L 300 3500 
L 978 3500 
L 1906 2253 
L 2834 3500 
L 3513 3500 
z
" transform="scale(0.015625)"/>
       <path id="DejaVuSans-28" d="M 1984 4856 
Q 1566 4138 1362 3434 
Q 1159 2731 1159 2009 
Q 1159 1288 1364 580 
Q 1569 -128 1984 -844 
L 1484 -844 
Q 1016 -109 783 600 
Q 550 1309 550 2009 
Q 550 2706 781 3412 
Q 1013 4119 1484 4856 
L 1984 4856 
z
" transform="scale(0.015625)"/>
       <path id="DejaVuSans-74" d="M 1172 4494 
L 1172 3500 
L 2356 3500 
L 2356 3053 
L 1172 3053 
L 1172 1153 
Q 1172 725 1289 603 
Q 1406 481 1766 481 
L 2356 481 
L 2356 0 
L 1766 0 
Q 1100 0 847 248 
Q 594 497 594 1153 
L 594 3053 
L 172 3053 
L 172 3500 
L 594 3500 
L 594 4494 
L 1172 4494 
z
" transform="scale(0.015625)"/>
       <path id="DejaVuSans-29" d="M 513 4856 
L 1013 4856 
Q 1481 4119 1714 3412 
Q 1947 2706 1947 2009 
Q 1947 1309 1714 600 
Q 1481 -109 1013 -844 
L 513 -844 
Q 928 -128 1133 580 
Q 1338 1288 1338 2009 
Q 1338 2731 1133 3434 
Q 928 4138 513 4856 
z
" transform="scale(0.015625)"/>
      </defs>
      <use xlink:href="#DejaVuSans-78"/>
      <use xlink:href="#DejaVuSans-20" x="59.179688"/>
      <use xlink:href="#DejaVuSans-28" x="90.966797"/>
      <use xlink:href="#DejaVuSans-73" x="129.980469"/>
      <use xlink:href="#DejaVuSans-74" x="182.080078"/>
      <use xlink:href="#DejaVuSans-61" x="221.289062"/>
      <use xlink:href="#DejaVuSans-74" x="282.568359"/>
      <use xlink:href="#DejaVuSans-65" x="321.777344"/>
      <use xlink:href="#DejaVuSans-29" x="383.300781"/>
     </g>
    </g>
    <g id="line2d_33">
     <path d="M 73.110938 67.545781 
L 86.110938 67.545781 
L 99.110938 67.545781 
" style="fill: none; stroke: #2ca02c; stroke-width: 1.5; stroke-linecap: square"/>
    </g>
    <g id="text_17">
     <!-- x (error) -->
     <g transform="translate(109.510938 72.095781) scale(0.13 -0.13)">
      <use xlink:href="#DejaVuSans-78"/>
      <use xlink:href="#DejaVuSans-20" x="59.179688"/>
      <use xlink:href="#DejaVuSans-28" x="90.966797"/>
      <use xlink:href="#DejaVuSans-65" x="129.980469"/>
      <use xlink:href="#DejaVuSans-72" x="191.503906"/>
      <use xlink:href="#DejaVuSans-72" x="230.867188"/>
      <use xlink:href="#DejaVuSans-6f" x="269.730469"/>
      <use xlink:href="#DejaVuSans-72" x="330.912109"/>
      <use xlink:href="#DejaVuSans-29" x="372.025391"/>
     </g>
    </g>
    <g id="line2d_34">
     <path d="M 73.110938 86.627344 
L 86.110938 86.627344 
L 99.110938 86.627344 
" style="fill: none; stroke-dasharray: 5.55,2.4; stroke-dashoffset: 0; stroke: #9467bd; stroke-width: 1.5"/>
    </g>
    <g id="text_18">
     <!-- x (analytic) -->
     <g transform="translate(109.510938 91.177344) scale(0.13 -0.13)">
      <defs>
       <path id="DejaVuSans-6e" d="M 3513 2113 
L 3513 0 
L 2938 0 
L 2938 2094 
Q 2938 2591 2744 2837 
Q 2550 3084 2163 3084 
Q 1697 3084 1428 2787 
Q 1159 2491 1159 1978 
L 1159 0 
L 581 0 
L 581 3500 
L 1159 3500 
L 1159 2956 
Q 1366 3272 1645 3428 
Q 1925 3584 2291 3584 
Q 2894 3584 3203 3211 
Q 3513 2838 3513 2113 
z
" transform="scale(0.015625)"/>
      </defs>
      <use xlink:href="#DejaVuSans-78"/>
      <use xlink:href="#DejaVuSans-20" x="59.179688"/>
      <use xlink:href="#DejaVuSans-28" x="90.966797"/>
      <use xlink:href="#DejaVuSans-61" x="129.980469"/>
      <use xlink:href="#DejaVuSans-6e" x="191.259766"/>
      <use xlink:href="#DejaVuSans-61" x="254.638672"/>
      <use xlink:href="#DejaVuSans-6c" x="315.917969"/>
      <use xlink:href="#DejaVuSans-79" x="343.701172"/>
      <use xlink:href="#DejaVuSans-74" x="402.880859"/>
      <use xlink:href="#DejaVuSans-69" x="442.089844"/>
      <use xlink:href="#DejaVuSans-63" x="469.873047"/>
      <use xlink:href="#DejaVuSans-29" x="524.853516"/>
     </g>
    </g>
    <g id="line2d_35">
     <path d="M 208.814688 48.464219 
L 221.814688 48.464219 
L 234.814688 48.464219 
" style="fill: none; stroke: #ff7f0e; stroke-opacity: 0.3; stroke-width: 1.5; stroke-linecap: square"/>
    </g>
    <g id="text_19">
     <!-- z (state) -->
     <g transform="translate(245.214688 53.014219) scale(0.13 -0.13)">
      <defs>
       <path id="DejaVuSans-7a" d="M 353 3500 
L 3084 3500 
L 3084 2975 
L 922 459 
L 3084 459 
L 3084 0 
L 275 0 
L 275 525 
L 2438 3041 
L 353 3041 
L 353 3500 
z
" transform="scale(0.015625)"/>
      </defs>
      <use xlink:href="#DejaVuSans-7a"/>
      <use xlink:href="#DejaVuSans-20" x="52.490234"/>
      <use xlink:href="#DejaVuSans-28" x="84.277344"/>
      <use xlink:href="#DejaVuSans-73" x="123.291016"/>
      <use xlink:href="#DejaVuSans-74" x="175.390625"/>
      <use xlink:href="#DejaVuSans-61" x="214.599609"/>
      <use xlink:href="#DejaVuSans-74" x="275.878906"/>
      <use xlink:href="#DejaVuSans-65" x="315.087891"/>
      <use xlink:href="#DejaVuSans-29" x="376.611328"/>
     </g>
    </g>
    <g id="line2d_36">
     <path d="M 208.814688 67.545781 
L 221.814688 67.545781 
L 234.814688 67.545781 
" style="fill: none; stroke: #d62728; stroke-width: 1.5; stroke-linecap: square"/>
    </g>
    <g id="text_20">
     <!-- z (error) -->
     <g transform="translate(245.214688 72.095781) scale(0.13 -0.13)">
      <use xlink:href="#DejaVuSans-7a"/>
      <use xlink:href="#DejaVuSans-20" x="52.490234"/>
      <use xlink:href="#DejaVuSans-28" x="84.277344"/>
      <use xlink:href="#DejaVuSans-65" x="123.291016"/>
      <use xlink:href="#DejaVuSans-72" x="184.814453"/>
      <use xlink:href="#DejaVuSans-72" x="224.177734"/>
      <use xlink:href="#DejaVuSans-6f" x="263.041016"/>
      <use xlink:href="#DejaVuSans-72" x="324.222656"/>
      <use xlink:href="#DejaVuSans-29" x="365.335938"/>
     </g>
    </g>
    <g id="line2d_37">
     <path d="M 208.814688 86.627344 
L 221.814688 86.627344 
L 234.814688 86.627344 
" style="fill: none; stroke-dasharray: 5.55,2.4; stroke-dashoffset: 0; stroke: #8c564b; stroke-width: 1.5"/>
    </g>
    <g id="text_21">
     <!-- z (analytic) -->
     <g transform="translate(245.214688 91.177344) scale(0.13 -0.13)">
      <use xlink:href="#DejaVuSans-7a"/>
      <use xlink:href="#DejaVuSans-20" x="52.490234"/>
      <use xlink:href="#DejaVuSans-28" x="84.277344"/>
      <use xlink:href="#DejaVuSans-61" x="123.291016"/>
      <use xlink:href="#DejaVuSans-6e" x="184.570312"/>
      <use xlink:href="#DejaVuSans-61" x="247.949219"/>
      <use xlink:href="#DejaVuSans-6c" x="309.228516"/>
      <use xlink:href="#DejaVuSans-79" x="337.011719"/>
      <use xlink:href="#DejaVuSans-74" x="396.191406"/>
      <use xlink:href="#DejaVuSans-69" x="435.400391"/>
      <use xlink:href="#DejaVuSans-63" x="463.183594"/>
      <use xlink:href="#DejaVuSans-29" x="518.164062"/>
     </g>
    </g>
   </g>
  </g>
 </g>
 <defs>
  <clipPath id="p37e3121db0">
   <rect x="61.410938" y="31.43625" width="357.12" height="266.112"/>
  </clipPath>
 </defs>
</svg>
