<?xml version="1.0" encoding="utf-8" standalone="no"?>
<!DOCTYPE svg PUBLIC "-//W3C//DTD SVG 1.1//EN"
  "http://www.w3.org/Graphics/SVG/1.1/DTD/svg11.dtd">
<svg xmlns:xlink="http://www.w3.org/1999/xlink" width="437.658281pt" height="349.621687pt" viewBox="0 0 437.658281 349.621687" xmlns="http://www.w3.org/2000/svg" version="1.1">
 <defs>
  <style type="text/css">*{stroke-linejoin: round; stroke-linecap: butt}</style>
 </defs>
 <g id="figure_1">
  <g id="patch_1">
   <path d="M 0 349.621687 
L 437.658281 349.621687 
L 437.658281 0 
L 0 0 
L 0 349.621687 
z
" style="fill: none"/>
  </g>
  <g id="axes_1">
   <g id="patch_2">
    <path d="M 61.410938 297.54825 
L 418.530938 297.54825 
L 418.530938 31.43625 
L 61.410938 31.43625 
L 61.410938 297.54825 
z
" style="fill: none"/>
   </g>
   <g id="matplotlib.axis_1">
    <g id="xtick_1">
     <g id="line2d_1">
      <path d="M 61.410938 297.54825 
L 61.410938 31.43625 
" clip-path="url(#p37e3121db0)" style="fill: none; stroke: #b0b0b0; stroke-width: 0.8; stroke-linecap: square"/>
     </g>
     <g id="line2d_2">
      <defs>
       <path id="md39032bed2" d="M 0 0 
L 0 3.5 
" style="stroke: #000000; stroke-width: 0.8"/>
      </defs>
      <g>
       <use xlink:href="#md39032bed2" x="61.410938" y="297.54825" style="stroke: #000000; stroke-width: 0.8"/>
      </g>
     </g>
     <g id="text_1">
      <!-- 0.0 -->
      <g transform="translate(49.483594 315.945906) scale(0.15 -0.15)">
       <defs>
        <path id="DejaVuSans-30" d="M 2034 4250 
Q 1547 4250 1301 3770 
Q 1056 3291 1056 2328 
Q 1056 1369 1301 889 
Q 1547 409 2034 409 
Q 2525 409 2770 889 
Q 3016 1369 3016 2328 
Q 3016 3291 2770 3770 
Q 2525 4250 2034 4250 
z
M 2034 4750 
Q 2819 4750 3233 4129 
Q 3647 3509 3647 2328 
Q 3647 1150 3233 529 
Q 2819 -91 2034 -91 
Q 1250 -91 836 529 
Q 422 1150 422 2328 
Q 422 3509 836 4129 
Q 1250 4750 2034 4750 
z
" transform="scale(0.015625)"/>
        <path id="DejaVuSans-2e" d="M 684 794 
L 1344 794 
L 1344 0 
L 684 0 
L 684 794 
z
" transform="scale(0.015625)"/>
       </defs>
       <use xlink:href="#DejaVuSans-30"/>
       <use xlink:href="#DejaVuSans-2e" x="63.623047"/>
       <use xlink:href="#DejaVuSans-30" x="95.410156"/>
      </g>
     </g>
    </g>
    <g id="xtick_2">
     <g id="line2d_3">
      <path d="M 132.834938 297.54825 
L 132.834938 31.43625 
" clip-path="url(#p37e3121db0)" style="fill: none; stroke: #b0b0b0; stroke-width: 0.8; stroke-linecap: square"/>
     </g>
     <g id="line2d_4">
      <g>
       <use xlink:href="#md39032bed2" x="132.834938" y="297.54825" style="stroke: #000000; stroke-width: 0.8"/>
      </g>
     </g>
     <g id="text_2">
      <!-- 0.2 -->
      <g transform="translate(120.907594 315.945906) scale(0.15 -0.15)">
       <defs>
        <path id="DejaVuSans-32" d="M 1228 531 
L 3431 531 
L 3431 0 
L 469 0 
L 469 531 
Q 828 903 1448 1529 
Q 2069 2156 2228 2338 
Q 2531 2678 2651 2914 
Q 2772 3150 2772 3378 
Q 2772 3750 2511 3984 
Q 2250 4219 1831 4219 
Q 1534 4219 1204 4116 
Q 875 4013 500 3803 
L 500 4441 
Q 881 4594 1212 4672 
Q 1544 4750 1819 4750 
Q 2544 4750 2975 4387 
Q 3406 4025 3406 3419 
Q 3406 3131 3298 2873 
Q 3191 2616 2906 2266 
Q 2828 2175 2409 1742 
Q 1991 1309 1228 531 
z
" transform="scale(0.015625)"/>
       </defs>
       <use xlink:href="#DejaVuSans-30"/>
       <use xlink:href="#DejaVuSans-2e" x="63.623047"/>
       <use xlink:href="#DejaVuSans-32" x="95.410156"/>
      </g>
     </g>
    </g>
    <g id="xtick_3">
     <g id="line2d_5">
      <path d="M 204.258938 297.54825 
L 204.258938 31.43625 
" clip-path="url(#p37e3121db0)" style="fill: none; stroke: #b0b0b0; stroke-width: 0.8; stroke-linecap: square"/>
     </g>
     <g id="line2d_6">
      <g>
       <use xlink:href="#md39032bed2" x="204.258938" y="297.54825" style="stroke: #000000; stroke-width: 0.8"/>
      </g>
     </g>
     <g id="text_3">
      <!-- 0.4 -->
      <g transform="translate(192.331594 315.945906) scale(0.15 -0.15)">
       <defs>
        <path id="DejaVuSans-34" d="M 2419 4116 
L 825 1625 
L 2419 1625 
L 2419 4116 
z
M 2253 4666 
L 3047 4666 
L 3047 1625 
L 3713 1625 
L 3713 1100 
L 3047 1100 
L 3047 0 
L 2419 0 
L 2419 1100 
L 313 1100 
L 313 1709 
L 2253 4666 
z
" transform="scale(0.015625)"/>
       </defs>
       <use xlink:href="#DejaVuSans-30"/>
       <use xlink:href="#DejaVuSans-2e" x="63.623047"/>
       <use xlink:href="#DejaVuSans-34" x="95.410156"/>
      </g>
     </g>
    </g>
    <g id="xtick_4">
     <g id="line2d_7">
      <path d="M 275.682938 297.54825 
L 275.682938 31.43625 
" clip-path="url(#p37e3121db0)" style="fill: none; stroke: #b0b0b0; stroke-width: 0.8; stroke-linecap: square"/>
     </g>
     <g id="line2d_8">
      <g>
       <use xlink:href="#md39032bed2" x="275.682938" y="297.54825" style="stroke: #000000; stroke-width: 0.8"/>
      </g>
     </g>
     <g id="text_4">
      <!-- 0.6 -->
      <g transform="translate(263.755594 315.945906) scale(0.15 -0.15)">
       <defs>
        <path id="DejaVuSans-36" d="M 2113 2584 
Q 1688 2584 1439 2293 
Q 1191 2003 1191 1497 
Q 1191 994 1439 701 
Q 1688 409 2113 409 
Q 2538 409 2786 701 
Q 3034 994 3034 1497 
Q 3034 2003 2786 2293 
Q 2538 2584 2113 2584 
z
M 3366 4563 
L 3366 3988 
Q 3128 4100 2886 4159 
Q 2644 4219 2406 4219 
Q 1781 4219 1451 3797 
Q 1122 3375 1075 2522 
Q 1259 2794 1537 2939 
Q 1816 3084 2150 3084 
Q 2853 3084 3261 2657 
Q 3669 2231 3669 1497 
Q 3669 778 3244 343 
Q 2819 -91 2113 -91 
Q 1303 -91 875 529 
Q 447 1150 447 2328 
Q 447 3434 972 4092 
Q 1497 4750 2381 4750 
Q 2619 4750 2861 4703 
Q 3103 4656 3366 4563 
z
" transform="scale(0.015625)"/>
       </defs>
       <use xlink:href="#DejaVuSans-30"/>
       <use xlink:href="#DejaVuSans-2e" x="63.623047"/>
       <use xlink:href="#DejaVuSans-36" x="95.410156"/>
      </g>
     </g>
    </g>
    <g id="xtick_5">
     <g id="line2d_9">
      <path d="M 347.106938 297.54825 
L 347.106938 31.43625 
" clip-path="url(#p37e3121db0)" style="fill: none; stroke: #b0b0b0; stroke-width: 0.8; stroke-linecap: square"/>
     </g>
     <g id="line2d_10">
      <g>
       <use xlink:href="#md39032bed2" x="347.106938" y="297.54825" style="stroke: #000000; stroke-width: 0.8"/>
      </g>
     </g>
     <g id="text_5">
      <!-- 0.8 -->
      <g transform="translate(335.179594 315.945906) scale(0.15 -0.15)">
       <defs>
        <path id="DejaVuSans-38" d="M 2034 2216 
Q 1584 2216 1326 1975 
Q 1069 1734 1069 1313 
Q 1069 891 1326 650 
Q 1584 409 2034 409 
Q 2484 409 2743 651 
Q 3003 894 3003 1313 
Q 3003 1734 2745 1975 
Q 2488 2216 2034 2216 
z
M 1403 2484 
Q 997 2584 770 2862 
Q 544 3141 544 3541 
Q 544 4100 942 4425 
Q 1341 4750 2034 4750 
Q 2731 4750 3128 4425 
Q 3525 4100 3525 3541 
Q 3525 3141 3298 2862 
Q 3072 2584 2669 2484 
Q 3125 2378 3379 2068 
Q 3634 1759 3634 1313 
Q 3634 634 3220 271 
Q 2806 -91 2034 -91 
Q 1263 -91 848 271 
Q 434 634 434 1313 
Q 434 1759 690 2068 
Q 947 2378 1403 2484 
z
M 1172 3481 
Q 1172 3119 1398 2916 
Q 1625 2713 2034 2713 
Q 2441 2713 2670 2916 
Q 2900 3119 2900 3481 
Q 2900 3844 2670 4047 
Q 2441 4250 2034 4250 
Q 1625 4250 1398 4047 
Q 1172 3844 1172 3481 
z
" transform="scale(0.015625)"/>
       </defs>
       <use xlink:href="#DejaVuSans-30"/>
       <use xlink:href="#DejaVuSans-2e" x="63.623047"/>
       <use xlink:href="#DejaVuSans-38" x="95.410156"/>
      </g>
     </g>
    </g>
    <g id="xtick_6">
     <g id="line2d_11">
      <path d="M 418.530938 297.54825 
L 418.530938 31.43625 
" clip-path="url(#p37e3121db0)" style="fill: none; stroke: #b0b0b0; stroke-width: 0.8; stroke-linecap: square"/>
     </g>
     <g id="line2d_12">
      <g>
       <use xlink:href="#md39032bed2" x="418.530938" y="297.54825" style="stroke: #000000; stroke-width: 0.8"/>
      </g>
     </g>
     <g id="text_6">
      <!-- 1.0 -->
      <g transform="translate(406.603594 315.945906) scale(0.15 -0.15)">
       <defs>
        <path id="DejaVuSans-31" d="M 794 531 
L 1825 531 
L 1825 4091 
L 703 3866 
L 703 4441 
L 1819 4666 
L 2450 4666 
L 2450 531 
L 3481 531 
L 3481 0 
L 794 0 
L 794 531 
z
" transform="scale(0.015625)"/>
       </defs>
       <use xlink:href="#DejaVuSans-31"/>
       <use xlink:href="#DejaVuSans-2e" x="63.623047"/>
       <use xlink:href="#DejaVuSans-30" x="95.410156"/>
      </g>
     </g>
    </g>
    <g id="text_7">
     <!-- Physical Error -->
     <g transform="translate(171.744375 338.262312) scale(0.2 -0.2)">
      <defs>
       <path id="DejaVuSans-50" d="M 1259 4147 
L 1259 2394 
L 2053 2394 
Q 2494 2394 2734 2622 
Q 2975 2850 2975 3272 
Q 2975 3691 2734 3919 
Q 2494 4147 2053 4147 
L 1259 4147 
z
M 628 4666 
L 2053 4666 
Q 2838 4666 3239 4311 
Q 3641 3956 3641 3272 
Q 3641 2581 3239 2228 
Q 2838 1875 2053 1875 
L 1259 1875 
L 1259 0 
L 628 0 
L 628 4666 
z
" transform="scale(0.015625)"/>
       <path id="DejaVuSans-68" d="M 3513 2113 
L 3513 0 
L 2938 0 
L 2938 2094 
Q 2938 2591 2744 2837 
Q 2550 3084 2163 3084 
Q 1697 3084 1428 2787 
Q 1159 2491 1159 1978 
L 1159 0 
L 581 0 
L 581 4863 
L 1159 4863 
L 1159 2956 
Q 1366 3272 1645 3428 
Q 1925 3584 2291 3584 
Q 2894 3584 3203 3211 
Q 3513 2838 3513 2113 
z
" transform="scale(0.015625)"/>
       <path id="DejaVuSans-79" d="M 2059 -325 
Q 1816 -950 1584 -1140 
Q 1353 -1331 966 -1331 
L 506 -1331 
L 506 -850 
L 844 -850 
Q 1081 -850 1212 -737 
Q 1344 -625 1503 -206 
L 1606 56 
L 191 3500 
L 800 3500 
L 1894 763 
L 2988 3500 
L 3597 3500 
L 2059 -325 
z
" transform="scale(0.015625)"/>
       <path id="DejaVuSans-73" d="M 2834 3397 
L 2834 2853 
Q 2591 2978 2328 3040 
Q 2066 3103 1784 3103 
Q 1356 3103 1142 2972 
Q 928 2841 928 2578 
Q 928 2378 1081 2264 
Q 1234 2150 1697 2047 
L 1894 2003 
Q 2506 1872 2764 1633 
Q 3022 1394 3022 966 
Q 3022 478 2636 193 
Q 2250 -91 1575 -91 
Q 1294 -91 989 -36 
Q 684 19 347 128 
L 347 722 
Q 666 556 975 473 
Q 1284 391 1588 391 
Q 1994 391 2212 530 
Q 2431 669 2431 922 
Q 2431 1156 2273 1281 
Q 2116 1406 1581 1522 
L 1381 1569 
Q 847 1681 609 1914 
Q 372 2147 372 2553 
Q 372 3047 722 3315 
Q 1072 3584 1716 3584 
Q 2034 3584 2315 3537 
Q 2597 3491 2834 3397 
z
" transform="scale(0.015625)"/>
       <path id="DejaVuSans-69" d="M 603 3500 
L 1178 3500 
L 1178 0 
L 603 0 
L 603 3500 
z
M 603 4863 
L 1178 4863 
L 1178 4134 
L 603 4134 
L 603 4863 
z
" transform="scale(0.015625)"/>
       <path id="DejaVuSans-63" d="M 3122 3366 
L 3122 2828 
Q 2878 2963 2633 3030 
Q 2388 3097 2138 3097 
Q 1578 3097 1268 2742 
Q 959 2388 959 1747 
Q 959 1106 1268 751 
Q 1578 397 2138 397 
Q 2388 397 2633 464 
Q 2878 531 3122 666 
L 3122 134 
Q 2881 22 2623 -34 
Q 2366 -91 2075 -91 
Q 1284 -91 818 406 
Q 353 903 353 1747 
Q 353 2603 823 3093 
Q 1294 3584 2113 3584 
Q 2378 3584 2631 3529 
Q 2884 3475 3122 3366 
z
" transform="scale(0.015625)"/>
       <path id="DejaVuSans-61" d="M 2194 1759 
Q 1497 1759 1228 1600 
Q 959 1441 959 1056 
Q 959 750 1161 570 
Q 1363 391 1709 391 
Q 2188 391 2477 730 
Q 2766 1069 2766 1631 
L 2766 1759 
L 2194 1759 
z
M 3341 1997 
L 3341 0 
L 2766 0 
L 2766 531 
Q 2569 213 2275 61 
Q 1981 -91 1556 -91 
Q 1019 -91 701 211 
Q 384 513 384 1019 
Q 384 1609 779 1909 
Q 1175 2209 1959 2209 
L 2766 2209 
L 2766 2266 
Q 2766 2663 2505 2880 
Q 2244 3097 1772 3097 
Q 1472 3097 1187 3025 
Q 903 2953 641 2809 
L 641 3341 
Q 956 3463 1253 3523 
Q 1550 3584 1831 3584 
Q 2591 3584 2966 3190 
Q 3341 2797 3341 1997 
z
" transform="scale(0.015625)"/>
       <path id="DejaVuSans-6c" d="M 603 4863 
L 1178 4863 
L 1178 0 
L 603 0 
L 603 4863 
z
" transform="scale(0.015625)"/>
       <path id="DejaVuSans-20" transform="scale(0.015625)"/>
       <path id="DejaVuSans-45" d="M 628 4666 
L 3578 4666 
L 3578 4134 
L 1259 4134 
L 1259 2753 
L 3481 2753 
L 3481 2222 
L 1259 2222 
L 1259 531 
L 3634 531 
L 3634 0 
L 628 0 
L 628 4666 
z
" transform="scale(0.015625)"/>
       <path id="DejaVuSans-72" d="M 2631 2963 
Q 2534 3019 2420 3045 
Q 2306 3072 2169 3072 
Q 1681 3072 1420 2755 
Q 1159 2438 1159 1844 
L 1159 0 
L 581 0 
L 581 3500 
L 1159 3500 
L 1159 2956 
Q 1341 3275 1631 3429 
Q 1922 3584 2338 3584 
Q 2397 3584 2469 3576 
Q 2541 3569 2628 3553 
L 2631 2963 
z
" transform="scale(0.015625)"/>
       <path id="DejaVuSans-6f" d="M 1959 3097 
Q 1497 3097 1228 2736 
Q 959 2375 959 1747 
Q 959 1119 1226 758 
Q 1494 397 1959 397 
Q 2419 397 2687 759 
Q 2956 1122 2956 1747 
Q 2956 2369 2687 2733 
Q 2419 3097 1959 3097 
z
M 1959 3584 
Q 2709 3584 3137 3096 
Q 3566 2609 3566 1747 
Q 3566 888 3137 398 
Q 2709 -91 1959 -91 
Q 1206 -91 779 398 
Q 353 888 353 1747 
Q 353 2609 779 3096 
Q 1206 3584 1959 3584 
z
" transform="scale(0.015625)"/>
      </defs>
      <use xlink:href="#DejaVuSans-50"/>
      <use xlink:href="#DejaVuSans-68" x="60.302734"/>
      <use xlink:href="#DejaVuSans-79" x="123.681641"/>
      <use xlink:href="#DejaVuSans-73" x="182.861328"/>
      <use xlink:href="#DejaVuSans-69" x="234.960938"/>
      <use xlink:href="#DejaVuSans-63" x="262.744141"/>
      <use xlink:href="#DejaVuSans-61" x="317.724609"/>
      <use xlink:href="#DejaVuSans-6c" x="379.003906"/>
      <use xlink:href="#DejaVuSans-20" x="406.787109"/>
      <use xlink:href="#DejaVuSans-45" x="438.574219"/>
      <use xlink:href="#DejaVuSans-72" x="501.757812"/>
      <use xlink:href="#DejaVuSans-72" x="541.121094"/>
      <use xlink:href="#DejaVuSans-6f" x="579.984375"/>
      <use xlink:href="#DejaVuSans-72" x="641.166016"/>
     </g>
    </g>
   </g>
   <g id="matplotlib.axis_2">
    <g id="ytick_1">
     <g id="line2d_13">
      <path d="M 61.410938 297.54825 
L 418.530938 297.54825 
" clip-path="url(#p37e3121db0)" style="fill: none; stroke: #b0b0b0; stroke-width: 0.8; stroke-linecap: square"/>
     </g>
     <g id="line2d_14">
      <defs>
       <path id="m6f3f5b6aff" d="M 0 0 
L -3.5 0 
" style="stroke: #000000; stroke-width: 0.8"/>
      </defs>
      <g>
       <use xlink:href="#m6f3f5b6aff" x="61.410938" y="297.54825" style="stroke: #000000; stroke-width: 0.8"/>
      </g>
     </g>
     <g id="text_8">
      <!-- 0.0 -->
      <g transform="translate(30.55625 303.247078) scale(0.15 -0.15)">
       <use xlink:href="#DejaVuSans-30"/>
       <use xlink:href="#DejaVuSans-2e" x="63.623047"/>
       <use xlink:href="#DejaVuSans-30" x="95.410156"/>
      </g>
     </g>
    </g>
    <g id="ytick_2">
     <g id="line2d_15">
      <path d="M 61.410938 244.32585 
L 418.530938 244.32585 
" clip-path="url(#p37e3121db0)" style="fill: none; stroke: #b0b0b0; stroke-width: 0.8; stroke-linecap: square"/>
     </g>
     <g id="line2d_16">
      <g>
       <use xlink:href="#m6f3f5b6aff" x="61.410938" y="244.32585" style="stroke: #000000; stroke-width: 0.8"/>
      </g>
     </g>
     <g id="text_9">
      <!-- 0.2 -->
      <g transform="translate(30.55625 250.024678) scale(0.15 -0.15)">
       <use xlink:href="#DejaVuSans-30"/>
       <use xlink:href="#DejaVuSans-2e" x="63.623047"/>
       <use xlink:href="#DejaVuSans-32" x="95.410156"/>
      </g>
     </g>
    </g>
    <g id="ytick_3">
     <g id="line2d_17">
      <path d="M 61.410938 191.10345 
L 418.530938 191.10345 
" clip-path="url(#p37e3121db0)" style="fill: none; stroke: #b0b0b0; stroke-width: 0.8; stroke-linecap: square"/>
     </g>
     <g id="line2d_18">
      <g>
       <use xlink:href="#m6f3f5b6aff" x="61.410938" y="191.10345" style="stroke: #000000; stroke-width: 0.8"/>
      </g>
     </g>
     <g id="text_10">
      <!-- 0.4 -->
      <g transform="translate(30.55625 196.802278) scale(0.15 -0.15)">
       <use xlink:href="#DejaVuSans-30"/>
       <use xlink:href="#DejaVuSans-2e" x="63.623047"/>
       <use xlink:href="#DejaVuSans-34" x="95.410156"/>
      </g>
     </g>
    </g>
    <g id="ytick_4">
     <g id="line2d_19">
      <path d="M 61.410938 137.88105 
L 418.530938 137.88105 
" clip-path="url(#p37e3121db0)" style="fill: none; stroke: #b0b0b0; stroke-width: 0.8; stroke-linecap: square"/>
     </g>
     <g id="line2d_20">
      <g>
       <use xlink:href="#m6f3f5b6aff" x="61.410938" y="137.88105" style="stroke: #000000; stroke-width: 0.8"/>
      </g>
     </g>
     <g id="text_11">
      <!-- 0.6 -->
      <g transform="translate(30.55625 143.579878) scale(0.15 -0.15)">
       <use xlink:href="#DejaVuSans-30"/>
       <use xlink:href="#DejaVuSans-2e" x="63.623047"/>
       <use xlink:href="#DejaVuSans-36" x="95.410156"/>
      </g>
     </g>
    </g>
    <g id="ytick_5">
     <g id="line2d_21">
      <path d="M 61.410938 84.65865 
L 418.530938 84.65865 
" clip-path="url(#p37e3121db0)" style="fill: none; stroke: #b0b0b0; stroke-width: 0.8; stroke-linecap: square"/>
     </g>
     <g id="line2d_22">
      <g>
       <use xlink:href="#m6f3f5b6aff" x="61.410938" y="84.65865" style="stroke: #000000; stroke-width: 0.8"/>
      </g>
     </g>
     <g id="text_12">
      <!-- 0.8 -->
      <g transform="translate(30.55625 90.357478) scale(0.15 -0.15)">
       <use xlink:href="#DejaVuSans-30"/>
       <use xlink:href="#DejaVuSans-2e" x="63.623047"/>
       <use xlink:href="#DejaVuSans-38" x="95.410156"/>
      </g>
     </g>
    </g>
    <g id="ytick_6">
     <g id="line2d_23">
      <path d="M 61.410938 31.43625 
L 418.530938 31.43625 
" clip-path="url(#p37e3121db0)" style="fill: none; stroke: #b0b0b0; stroke-width: 0.8; stroke-linecap: square"/>
     </g>
     <g id="line2d_24">
      <g>
       <use xlink:href="#m6f3f5b6aff" x="61.410938" y="31.43625" style="stroke: #000000; stroke-width: 0.8"/>
      </g>
     </g>
     <g id="text_13">
      <!-- 1.0 -->
      <g transform="translate(30.55625 37.135078) scale(0.15 -0.15)">
       <use xlink:href="#DejaVuSans-31"/>
       <use xlink:href="#DejaVuSans-2e" x="63.623047"/>
       <use xlink:href="#DejaVuSans-30" x="95.410156"/>
      </g>
     </g>
    </g>
    <g id="text_14">
     <!-- Logical Error -->
     <g transform="translate(22.396875 227.087562) rotate(-90) scale(0.2 -0.2)">
      <defs>
       <path id="DejaVuSans-4c" d="M 628 4666 
L 1259 4666 
L 1259 531 
L 3531 531 
L 3531 0 
L 628 0 
L 628 4666 
z
" transform="scale(0.015625)"/>
       <path id="DejaVuSans-67" d="M 2906 1791 
Q 2906 2416 2648 2759 
Q 2391 3103 1925 3103 
Q 1463 3103 1205 2759 
Q 947 2416 947 1791 
Q 947 1169 1205 825 
Q 1463 481 1925 481 
Q 2391 481 2648 825 
Q 2906 1169 2906 1791 
z
M 3481 434 
Q 3481 -459 3084 -895 
Q 2688 -1331 1869 -1331 
Q 1566 -1331 1297 -1286 
Q 1028 -1241 775 -1147 
L 775 -588 
Q 1028 -725 1275 -790 
Q 1522 -856 1778 -856 
Q 2344 -856 2625 -561 
Q 2906 -266 2906 331 
L 2906 616 
Q 2728 306 2450 153 
Q 2172 0 1784 0 
Q 1141 0 747 490 
Q 353 981 353 1791 
Q 353 2603 747 3093 
Q 1141 3584 1784 3584 
Q 2172 3584 2450 3431 
Q 2728 3278 2906 2969 
L 2906 3500 
L 3481 3500 
L 3481 434 
z
" transform="scale(0.015625)"/>
      </defs>
      <use xlink:href="#DejaVuSans-4c"/>
      <use xlink:href="#DejaVuSans-6f" x="53.962891"/>
      <use xlink:href="#DejaVuSans-67" x="115.144531"/>
      <use xlink:href="#DejaVuSans-69" x="178.621094"/>
      <use xlink:href="#DejaVuSans-63" x="206.404297"/>
      <use xlink:href="#DejaVuSans-61" x="261.384766"/>
      <use xlink:href="#DejaVuSans-6c" x="322.664062"/>
      <use xlink:href="#DejaVuSans-20" x="350.447266"/>
      <use xlink:href="#DejaVuSans-45" x="382.234375"/>
      <use xlink:href="#DejaVuSans-72" x="445.417969"/>
      <use xlink:href="#DejaVuSans-72" x="484.78125"/>
      <use xlink:href="#DejaVuSans-6f" x="523.644531"/>
      <use xlink:href="#DejaVuSans-72" x="584.826172"/>
     </g>
    </g>
   </g>
   <g id="line2d_25">
    <path d="M 61.410938 297.54825 
L 62.839418 297.54825 
L 63.553658 297.36114 
L 64.982138 297.42351 
L 67.124858 297.09087 
L 67.839098 296.65428 
L 68.553338 296.75823 
L 69.267578 296.42559 
L 69.981818 296.55033 
L 70.696058 295.86426 
L 71.410298 295.55241 
L 72.124538 295.40688 
L 72.838778 295.09503 
L 73.553018 295.07424 
L 74.267258 294.84555 
L 74.981498 293.99316 
L 75.695738 293.53578 
L 76.409978 293.55657 
L 77.124218 292.80813 
L 77.838458 292.70418 
L 78.552698 291.95574 
L 79.266938 291.831 
L 79.981178 290.97861 
L 80.695418 291.10335 
L 81.409658 290.08464 
L 82.123898 290.50044 
L 82.838138 290.00148 
L 83.552378 289.08672 
L 84.266618 288.48381 
L 84.980858 287.44431 
L 85.695098 286.11375 
L 86.409338 286.61271 
L 87.123578 286.03059 
L 87.837818 285.21978 
L 89.266298 284.47134 
L 89.980538 283.61895 
L 90.694778 283.66053 
L 91.409018 283.49421 
L 92.837498 280.52124 
L 93.551738 279.58569 
L 94.265978 280.02228 
L 94.980218 277.54827 
L 95.694458 278.42145 
L 96.408698 276.30087 
L 97.837178 275.03268 
L 99.265658 274.26345 
L 99.979898 273.01605 
L 100.694138 273.57738 
L 101.408378 271.97655 
L 102.122618 271.41522 
L 102.836858 269.89755 
L 103.551098 270.43809 
L 104.265338 267.46512 
L 104.979578 267.75618 
L 105.693818 267.15327 
L 106.408058 264.47136 
L 107.122298 264.1803 
L 107.836538 264.3882 
L 108.550778 262.76658 
L 109.265018 262.45473 
L 109.979258 261.74787 
L 110.693498 260.29257 
L 112.121978 258.42147 
L 112.836218 256.82064 
L 113.550458 256.2801 
L 114.264698 256.9038 
L 114.978938 255.46929 
L 115.693178 254.34663 
L 116.407418 252.84975 
L 117.121658 253.30713 
L 117.835898 251.66472 
L 118.550138 247.92252 
L 119.264378 249.31545 
L 119.978618 248.75412 
L 120.692858 247.27803 
L 121.407098 245.42772 
L 122.121338 245.32377 
L 122.835578 243.95163 
L 123.549818 242.28843 
L 124.264058 244.03479 
L 124.978298 241.18656 
L 125.692538 239.89758 
L 126.406778 239.0244 
L 127.121018 238.85808 
L 127.835258 237.04935 
L 128.549498 237.42357 
L 129.263738 234.2427 
L 129.977978 235.11588 
L 130.692218 232.97451 
L 131.406458 232.26765 
L 132.120698 231.10341 
L 132.834938 228.71256 
L 133.549178 228.40071 
L 134.977658 230.0847 
L 135.691898 227.09094 
L 136.406138 224.92878 
L 137.120378 224.30508 
L 137.834618 223.8477 
L 138.548858 223.78533 
L 139.263098 221.85186 
L 139.977338 220.83315 
L 140.691578 220.58367 
L 142.834298 216.13461 
L 143.548538 215.30301 
L 144.262778 215.15748 
L 144.977018 212.55873 
L 145.691258 212.66268 
L 146.405498 211.22817 
L 147.119738 211.43607 
L 147.833978 210.87474 
L 148.548218 210.5421 
L 149.262458 210.91632 
L 149.976698 207.34044 
L 150.690938 204.42984 
L 151.405178 203.78535 
L 152.119418 204.36747 
L 152.833658 206.23857 
L 153.547898 205.53171 
L 154.262138 205.53171 
L 154.976378 203.32797 
L 155.690618 201.70635 
L 156.404858 201.35292 
L 157.119098 200.70843 
L 157.833338 198.98286 
L 158.547578 200.62527 
L 159.261818 195.7812 
L 159.976058 196.73754 
L 160.690298 197.40282 
L 161.404538 196.48806 
L 162.118778 192.84981 
L 162.833018 194.7417 
L 163.547258 193.74378 
L 164.261498 194.36748 
L 164.975738 192.14295 
L 165.689978 190.60449 
L 166.404218 190.00158 
L 167.118458 189.96 
L 167.832698 187.81863 
L 168.546938 189.37788 
L 169.261178 189.23235 
L 169.975418 188.56707 
L 170.689658 187.11177 
L 171.403898 186.11385 
L 172.832378 186.38412 
L 173.546618 183.74379 
L 174.260858 183.43194 
L 174.975098 186.11385 
L 175.689338 182.72508 
L 176.403578 182.45481 
L 177.117818 181.91427 
L 177.832058 180.56292 
L 178.546298 181.12425 
L 179.260538 178.98288 
L 179.974778 179.37789 
L 180.689018 179.23236 
L 181.403258 175.30305 
L 182.117498 177.88101 
L 182.831738 176.15544 
L 183.545978 178.04733 
L 184.260218 175.6149 
L 184.974458 177.25731 
L 185.688698 175.55253 
L 186.402938 175.92675 
L 187.117178 175.63569 
L 187.831418 173.61906 
L 188.545658 174.49224 
L 189.259898 174.90804 
L 189.974138 174.90804 
L 190.688378 173.01615 
L 191.402618 173.05773 
L 192.116858 173.24484 
L 192.831098 170.56293 
L 193.545338 171.81033 
L 194.259578 173.28642 
L 194.973818 172.62114 
L 195.688058 170.47977 
L 196.402298 171.10347 
L 197.116538 168.69183 
L 197.830778 169.04526 
L 198.545018 170.45898 
L 199.259258 167.67312 
L 199.973498 166.77915 
L 200.687738 168.3384 
L 201.401978 167.98497 
L 202.116218 166.4673 
L 202.830458 166.69599 
L 203.544698 168.5463 
L 204.258938 167.52759 
L 204.973178 168.48393 
L 205.687418 166.57125 
L 206.401658 168.23445 
L 207.115898 168.69183 
L 207.830138 166.17624 
L 208.544378 166.28019 
L 209.258618 166.13466 
L 209.972858 169.00368 
L 210.687098 165.88518 
L 211.401338 165.94755 
L 212.115578 165.32385 
L 212.829818 165.19911 
L 213.544058 165.86439 
L 214.258298 165.24069 
L 214.972538 166.32177 
L 215.686778 164.47146 
L 216.401018 166.42572 
L 217.115258 166.4673 
L 217.829498 164.47146 
L 218.543738 166.07229 
L 219.257978 164.40909 
L 219.972218 164.40909 
L 220.686458 164.03487 
L 221.400698 165.13674 
L 222.114938 165.61491 
L 222.829178 166.57125 
L 223.543418 163.68144 
L 224.257658 166.34256 
L 224.971898 164.70015 
L 225.686138 163.49433 
L 227.114618 165.15753 
L 227.828858 164.53383 
L 228.543098 163.51512 
L 229.257338 164.97042 
L 229.971578 163.28643 
L 230.685818 164.51304 
L 231.400058 164.90805 
L 232.114298 166.21782 
L 232.828538 166.23861 
L 233.542778 165.17832 
L 234.257018 164.84568 
L 234.971258 163.7646 
L 235.685498 164.57541 
L 236.399738 163.45275 
L 237.113978 164.8041 
L 237.828218 164.55462 
L 238.542458 164.90805 
L 239.256698 166.0515 
L 239.970938 163.05774 
L 240.685178 165.88518 
L 241.399418 164.92884 
L 242.113658 163.07853 
L 242.827898 166.36335 
L 243.542138 163.20327 
L 244.256378 164.55462 
L 244.970618 165.4278 
L 245.684858 164.76252 
L 246.399098 161.70639 
L 247.113338 166.38414 
L 247.827578 164.86647 
L 248.541818 164.65857 
L 249.256058 164.76252 
L 249.970298 165.24069 
L 250.684538 162.53799 
L 251.398778 164.05566 
L 252.113018 165.012 
L 252.827258 165.2199 
L 253.541498 166.6752 
L 254.255738 165.38622 
L 254.969978 164.55462 
L 255.684218 162.99537 
L 256.398458 162.3093 
L 257.112698 164.97042 
L 257.826938 164.07645 
L 258.541178 164.47146 
L 259.255418 163.80618 
L 259.969658 164.40909 
L 260.683898 163.82697 
L 261.398138 163.07853 
L 262.112378 162.76668 
L 262.826617 161.22822 
L 263.540858 166.00992 
L 264.255098 163.78539 
L 264.969337 160.89558 
L 265.683578 163.88934 
L 266.397818 160.854 
L 267.112058 163.36959 
L 268.540538 163.01616 
L 269.254778 163.26564 
L 269.969018 162.08061 
L 270.683258 160.45899 
L 271.397498 160.27188 
L 272.111738 160.95795 
L 272.825978 161.91429 
L 273.540218 161.14506 
L 274.254458 161.18664 
L 274.968698 159.64818 
L 275.682938 161.33217 
L 276.397178 160.39662 
L 277.111418 161.85192 
L 277.825658 161.64402 
L 278.539898 158.69184 
L 279.254138 159.04527 
L 279.968378 159.56502 
L 280.682618 158.775 
L 281.396858 159.17001 
L 282.111098 158.48394 
L 282.825338 160.14714 
L 283.539578 158.92053 
L 284.253818 157.19496 
L 284.968058 159.96003 
L 285.682298 159.14922 
L 286.396538 157.90182 
L 287.110778 157.63155 
L 287.825018 157.15338 
L 288.539258 156.50889 
L 289.253498 153.93093 
L 289.967738 156.0723 
L 290.681978 153.7854 
L 291.396218 156.79995 
L 292.110458 153.63987 
L 292.824698 153.84777 
L 293.538938 154.22199 
L 294.253178 154.38831 
L 294.967418 151.68561 
L 295.681658 150.37584 
L 296.395898 149.79372 
L 297.110138 151.87272 
L 297.824378 150.75006 
L 298.538618 149.8353 
L 299.252858 149.64819 
L 299.967098 147.02865 
L 300.681338 148.71264 
L 301.395578 150.77085 
L 302.109818 147.98499 
L 302.824058 147.58998 
L 303.538298 146.57127 
L 304.252538 146.7168 
L 304.966778 145.30308 
L 305.681018 147.04944 
L 306.395258 144.38832 
L 307.109498 143.36961 
L 307.823738 145.24071 
L 308.537978 143.99331 
L 309.252218 142.39248 
L 309.966458 141.60246 
L 310.680698 142.47564 
L 311.394938 140.85402 
L 312.109178 140.18874 
L 312.823418 139.35714 
L 313.537658 138.98292 
L 314.966138 136.44654 
L 315.680378 136.55049 
L 316.394618 135.30309 
L 317.108858 133.22409 
L 317.823098 135.09519 
L 318.537338 133.70226 
L 319.251577 131.76879 
L 319.965818 130.9164 
L 320.680058 129.85611 
L 321.394298 130.00164 
L 322.108538 129.21162 
L 322.822778 127.13262 
L 323.537018 128.19291 
L 324.965498 124.92888 
L 325.679738 126.61287 
L 326.393978 125.38626 
L 327.108218 123.80622 
L 327.822458 121.41537 
L 328.536698 120.91641 
L 329.250938 119.23242 
L 329.965178 121.93512 
L 330.679418 118.69188 
L 332.107898 116.92473 
L 332.822138 115.71891 
L 333.536378 117.07026 
L 334.250618 114.59625 
L 334.964858 115.65654 
L 335.679098 115.44864 
L 337.107578 111.72723 
L 337.821818 110.58378 
L 338.536058 108.21372 
L 339.250298 108.71268 
L 339.964538 108.94137 
L 340.678778 106.55052 
L 341.393018 107.69397 
L 342.107258 104.61705 
L 342.821498 105.44865 
L 343.535738 102.49647 
L 344.249978 102.08067 
L 344.964218 99.44034 
L 345.678458 99.83535 
L 346.392698 97.71477 
L 347.106938 97.67319 
L 348.535418 96.50895 
L 349.249658 95.01207 
L 349.963898 96.32184 
L 350.678138 93.09939 
L 351.392378 94.49232 
L 352.106618 89.66904 
L 352.820858 90.39669 
L 354.963578 87.0495 
L 355.677818 86.6337 
L 356.392058 88.44243 
L 357.106298 84.82497 
L 357.820538 84.53391 
L 358.534778 81.78963 
L 359.249018 82.97466 
L 359.963258 81.14514 
L 360.677498 80.35512 
L 361.391738 78.3177 
L 362.105978 77.694 
L 362.820218 76.0308 
L 363.534458 74.67945 
L 364.248698 75.67737 
L 364.962938 72.05991 
L 365.677178 72.12228 
L 366.391418 72.99546 
L 367.105658 71.56095 
L 367.819898 69.08694 
L 368.534138 69.33642 
L 369.248378 68.9622 
L 369.962618 67.19505 
L 370.676858 68.46324 
L 371.391098 67.04952 
L 372.105338 65.15763 
L 372.819578 62.16387 
L 373.533818 63.82707 
L 374.248058 62.7252 
L 374.962298 60.56304 
L 375.676538 62.84994 
L 376.390778 61.62333 
L 377.105018 60.0225 
L 377.819258 56.67531 
L 378.533498 57.21585 
L 379.247738 56.55057 
L 379.961978 56.30109 
L 380.676218 55.30317 
L 381.390458 54.03498 
L 382.104698 52.99548 
L 382.818938 52.24704 
L 383.533178 51.81045 
L 384.247418 51.20754 
L 384.961658 50.91648 
L 385.675898 49.52355 
L 386.390138 48.87906 
L 387.104378 47.98509 
L 387.818618 48.25536 
L 388.532858 46.80006 
L 389.247098 45.82293 
L 389.961338 45.11607 
L 391.389818 44.20131 
L 392.104058 43.22418 
L 392.818298 43.16181 
L 393.532538 42.70443 
L 394.246778 40.95807 
L 394.961018 41.3115 
L 397.103738 39.46119 
L 397.817978 39.33645 
L 398.532218 38.94144 
L 399.246458 37.90194 
L 399.960698 38.08905 
L 400.674938 36.57138 
L 401.389178 36.5298 
L 402.103418 35.51109 
L 403.531898 35.94768 
L 404.246138 34.63791 
L 404.960378 35.09529 
L 405.674618 34.18053 
L 406.388858 34.11816 
L 407.103098 33.36972 
L 407.817338 33.4113 
L 409.960058 32.70444 
L 410.674298 32.53812 
L 411.388538 31.97679 
L 412.102778 32.10153 
L 412.817018 32.10153 
L 413.531258 31.72731 
L 414.959738 31.66494 
L 416.388218 31.64415 
L 417.102458 31.43625 
L 418.530938 31.43625 
L 418.530938 31.43625 
" clip-path="url(#p37e3121db0)" style="fill: none; stroke: #1f77b4; stroke-width: 1.5; stroke-linecap: square"/>
   </g>
   <g id="line2d_26">
    <path d="M 61.410938 297.54825 
L 62.839418 297.42351 
L 64.982138 296.94534 
L 65.696378 296.52954 
L 66.410618 296.44638 
L 67.124858 295.71873 
L 67.839098 295.82268 
L 68.553338 294.76239 
L 69.981818 294.40896 
L 71.410298 293.45262 
L 72.838778 291.04098 
L 73.553018 290.29254 
L 74.267258 290.27175 
L 74.981498 289.3362 
L 75.695738 287.98485 
L 76.409978 287.98485 
L 77.124218 286.34244 
L 77.838458 285.26136 
L 78.552698 285.42768 
L 79.266938 283.53579 
L 80.695418 282.39234 
L 81.409658 280.66677 
L 82.123898 280.79151 
L 82.838138 280.35492 
L 83.552378 278.44224 
L 84.266618 278.65014 
L 84.980858 277.46511 
L 85.695098 275.59401 
L 86.409338 275.30295 
L 87.123578 273.59817 
L 87.837818 271.58154 
L 88.552058 270.35493 
L 89.266298 269.95992 
L 89.980538 268.46304 
L 91.409018 266.21772 
L 92.123258 265.59402 
L 92.837498 263.66055 
L 93.551738 264.1803 
L 94.265978 262.24683 
L 94.980218 260.79153 
L 95.694458 262.01814 
L 96.408698 258.89964 
L 97.837178 256.17615 
L 98.551418 256.00983 
L 99.265658 253.45266 
L 99.979898 252.87054 
L 100.694138 251.64393 
L 101.408378 251.26971 
L 102.122618 248.172 
L 102.836858 247.92252 
L 103.551098 246.19695 
L 104.265338 245.71878 
L 104.979578 244.38822 
L 105.693818 244.45059 
L 106.408058 244.09716 
L 107.836538 240.79155 
L 108.550778 240.56286 
L 109.265018 237.5691 
L 109.979258 237.63147 
L 110.693498 236.1138 
L 111.407738 233.86848 
L 112.121978 234.61692 
L 112.836218 233.59821 
L 113.550458 231.85185 
L 114.264698 231.31131 
L 114.978938 229.56495 
L 115.693178 228.27597 
L 116.407418 227.65227 
L 117.121658 225.88512 
L 117.835898 228.40071 
L 118.550138 224.11797 
L 119.264378 222.89136 
L 119.978618 222.62109 
L 120.692858 222.10134 
L 121.407098 221.04105 
L 122.121338 221.89344 
L 122.835578 218.0265 
L 123.549818 217.58991 
L 124.264058 215.69802 
L 124.978298 215.17827 
L 125.692538 216.42567 
L 126.406778 213.76455 
L 127.121018 214.40904 
L 127.835258 211.87266 
L 128.549498 213.0369 
L 129.263738 212.70426 
L 129.977978 210.20946 
L 130.692218 209.68971 
L 131.406458 208.31757 
L 132.120698 204.32589 
L 132.834938 206.69595 
L 133.549178 206.84148 
L 134.263418 204.67932 
L 134.977658 206.15541 
L 135.691898 204.55458 
L 136.406138 201.78951 
L 137.120378 201.97662 
L 137.834618 201.85188 
L 138.548858 201.49845 
L 139.263098 199.14918 
L 139.977338 200.93712 
L 140.691578 197.6523 
L 141.405818 199.64814 
L 142.120058 197.63151 
L 142.834298 196.42569 
L 143.548538 197.00781 
L 144.262778 193.39035 
L 144.977018 197.0286 
L 145.691258 195.76041 
L 146.405498 192.4548 
L 147.119738 193.18245 
L 148.548218 188.69181 
L 149.976698 191.78952 
L 150.690938 189.25314 
L 151.405178 188.25522 
L 152.119418 188.94129 
L 152.833658 185.67726 
L 153.547898 187.69389 
L 154.262138 185.802 
L 154.976378 187.40283 
L 155.690618 185.44857 
L 156.404858 184.61697 
L 157.119098 182.66271 
L 157.833338 184.30512 
L 158.547578 183.86853 
L 159.261818 181.72716 
L 159.976058 181.93506 
L 160.690298 180.37581 
L 161.404538 182.53797 
L 162.118778 181.0203 
L 162.833018 182.28849 
L 163.547258 180.45897 
L 164.261498 179.48184 
L 164.975738 179.91843 
L 165.689978 177.75627 
L 166.404218 178.19286 
L 167.118458 176.63361 
L 167.832698 178.04733 
L 168.546938 178.44234 
L 169.261178 177.6939 
L 169.975418 177.31968 
L 170.689658 174.72093 
L 171.403898 175.21989 
L 172.118138 174.42987 
L 172.832378 176.84151 
L 173.546618 175.21989 
L 174.260858 174.45066 
L 174.975098 172.76667 
L 175.689338 174.13881 
L 176.403578 174.09723 
L 177.117818 173.57748 
L 177.832058 173.66064 
L 178.546298 172.9122 
L 179.260538 170.25108 
L 179.974778 170.47977 
L 180.689018 172.95378 
L 181.403258 172.55877 
L 182.117498 171.89349 
L 182.831738 170.75004 
L 183.545978 169.25316 
L 184.260218 171.6648 
L 184.974458 168.89973 
L 185.688698 167.77707 
L 186.402938 168.65025 
L 187.117178 169.21158 
L 187.831418 168.27603 
L 188.545658 170.58372 
L 189.259898 169.39869 
L 189.974138 171.35295 
L 190.688378 170.50056 
L 191.402618 166.84152 
L 192.116858 169.35711 
L 192.831098 168.40077 
L 193.545338 166.48809 
L 194.259578 167.15337 
L 194.973818 166.96626 
L 195.688058 167.75628 
L 196.402298 168.15129 
L 197.116538 169.19079 
L 197.830778 166.8831 
L 198.545018 167.58996 
L 199.259258 165.80202 
L 199.973498 165.73965 
L 200.687738 166.28019 
L 201.401978 168.46314 
L 202.116218 164.70015 
L 202.830458 167.94339 
L 203.544698 163.51512 
L 204.258938 164.3883 
L 204.973178 164.88726 
L 205.687418 166.96626 
L 206.401658 164.72094 
L 207.115898 164.20119 
L 207.830138 166.21782 
L 208.544378 165.90597 
L 209.258618 165.34464 
L 209.972858 165.13674 
L 210.687098 166.11387 
L 211.401338 165.03279 
L 212.115578 164.61699 
L 212.829818 163.1409 
L 213.544058 165.46938 
L 214.258298 165.65649 
L 214.972538 163.51512 
L 215.686778 163.49433 
L 216.401018 165.32385 
L 217.115258 164.55462 
L 217.829498 164.1804 
L 218.543738 165.07437 
L 219.257978 164.51304 
L 219.972218 165.86439 
L 220.686458 162.933 
L 221.400698 166.52967 
L 222.114938 165.38622 
L 222.829178 165.17832 
L 223.543418 163.78539 
L 224.257658 165.07437 
L 224.971898 164.74173 
L 225.686138 162.91221 
L 226.400378 163.82697 
L 227.114618 165.15753 
L 227.828858 163.39038 
L 229.257338 165.67728 
L 229.971578 164.11803 
L 230.685818 164.65857 
L 231.400058 165.34464 
L 232.114298 164.15961 
L 232.828538 165.03279 
L 233.542778 162.87063 
L 234.257018 165.76044 
L 234.971258 163.80618 
L 235.685498 165.92676 
L 236.399738 163.47354 
L 237.113978 161.62323 
L 237.828218 162.33009 
L 238.542458 165.73965 
L 239.256698 164.5962 
L 239.970938 166.0515 
L 240.685178 166.32177 
L 241.399418 166.15545 
L 242.113658 165.78123 
L 242.827898 162.66273 
L 243.542138 163.99329 
L 244.256378 165.03279 
L 244.970618 164.07645 
L 245.684858 164.74173 
L 246.399098 165.6357 
L 247.113338 166.32177 
L 247.827578 164.88726 
L 248.541818 166.19703 
L 249.256058 164.11803 
L 249.970298 164.84568 
L 250.684538 163.99329 
L 251.398778 163.63986 
L 252.113018 164.74173 
L 252.827258 162.7251 
L 253.541498 163.22406 
L 254.255738 163.1409 
L 254.969978 164.55462 
L 255.684218 164.07645 
L 256.398458 165.2199 
L 257.112698 163.74381 
L 257.826938 164.1804 
L 258.541178 166.59204 
L 259.255418 162.57957 
L 260.683898 164.36751 
L 261.398138 165.2199 
L 262.826617 162.91221 
L 263.540858 165.4278 
L 264.255098 164.8041 
L 264.969337 165.46938 
L 265.683578 163.43196 
L 266.397818 163.93092 
L 267.112058 164.61699 
L 267.826298 164.13882 
L 268.540538 163.03695 
L 269.254778 163.57749 
L 269.969018 161.10348 
L 270.683258 165.4278 
L 271.397498 161.74797 
L 272.111738 165.40701 
L 272.825978 162.80826 
L 273.540218 161.97666 
L 274.254458 165.61491 
L 274.968698 162.14298 
L 275.682938 165.07437 
L 276.397178 162.62115 
L 277.111418 161.02032 
L 277.825658 162.62115 
L 278.539898 162.87063 
L 279.254138 161.16585 
L 279.968378 160.66689 
L 280.682618 162.57957 
L 281.396858 162.70431 
L 282.111098 160.14714 
L 282.825338 161.22822 
L 283.539578 161.70639 
L 284.253818 160.66689 
L 284.968058 162.45483 
L 285.682298 161.62323 
L 286.396538 163.36959 
L 287.110778 158.52552 
L 287.825018 159.52344 
L 288.539258 159.75213 
L 289.253498 161.04111 
L 289.967738 158.96211 
L 290.681978 158.50473 
L 291.396218 157.44444 
L 292.110458 159.96003 
L 292.824698 158.85816 
L 293.538938 159.37791 
L 294.253178 157.61076 
L 295.681658 155.19912 
L 296.395898 159.68976 
L 297.110138 157.50681 
L 297.824378 159.71055 
L 298.538618 157.9434 
L 299.252858 158.23446 
L 299.967098 153.70224 
L 301.395578 156.82074 
L 302.109818 157.65234 
L 303.538298 154.22199 
L 304.252538 156.46731 
L 304.966778 155.05359 
L 305.681018 154.59621 
L 306.395258 154.55463 
L 307.109498 153.63987 
L 307.823738 154.78332 
L 308.537978 152.82906 
L 309.252218 155.01201 
L 309.966458 153.76461 
L 310.680698 152.78748 
L 311.394938 151.20744 
L 312.109178 151.7064 
L 312.823418 150.95796 
L 313.537658 150.52137 
L 314.251898 149.60661 
L 314.966138 149.91846 
L 315.680378 149.0037 
L 316.394618 150.56295 
L 317.108858 147.23655 
L 318.537338 149.14923 
L 319.251577 147.71472 
L 319.965818 145.94757 
L 320.680058 145.19913 
L 321.394298 142.9746 
L 322.108538 145.40703 
L 322.822778 144.47148 
L 323.537018 143.72304 
L 324.251258 145.36545 
L 324.965498 142.37169 
L 325.679738 143.3904 
L 326.393978 140.45901 
L 327.108218 141.99747 
L 327.822458 139.54425 
L 328.536698 140.93718 
L 329.250938 140.10558 
L 329.965178 138.67107 
L 330.679418 139.00371 
L 331.393658 137.23656 
L 332.107898 139.29477 
L 332.822138 135.2823 
L 333.536378 135.80205 
L 334.964858 135.906 
L 335.679098 133.66068 
L 336.393338 131.83116 
L 337.107578 131.35299 
L 337.821818 130.66692 
L 338.536058 130.5006 
L 339.250298 130.95798 
L 339.964538 129.27399 
L 340.678778 127.15341 
L 341.393018 128.44239 
L 342.107258 127.48605 
L 342.821498 127.21578 
L 343.535738 124.0557 
L 344.249978 125.26152 
L 344.964218 124.36755 
L 345.678458 123.03699 
L 346.392698 125.53179 
L 347.821178 118.98294 
L 348.535418 120.9372 
L 349.249658 119.17005 
L 349.963898 118.89978 
L 350.678138 118.17213 
L 351.392378 116.5713 
L 352.106618 116.52972 
L 352.820858 114.9081 
L 353.535098 115.03284 
L 354.249338 112.01829 
L 354.963578 111.66486 
L 355.677818 112.22619 
L 356.392058 111.45696 
L 357.106298 109.87692 
L 357.820538 107.69397 
L 358.534778 109.27401 
L 359.249018 108.10977 
L 359.963258 104.22204 
L 360.677498 104.80416 
L 361.391738 101.51934 
L 362.105978 103.86861 
L 362.820218 103.03701 
L 363.534458 100.83327 
L 364.248698 97.09107 
L 364.962938 97.92267 
L 365.677178 97.46529 
L 366.391418 94.82496 
L 367.819898 95.59419 
L 368.534138 93.51519 
L 369.248378 92.53806 
L 369.962618 90.68775 
L 370.676858 89.66904 
L 371.391098 87.96426 
L 372.105338 87.36135 
L 372.819578 84.92892 
L 373.533818 85.8021 
L 374.248058 84.18048 
L 374.962298 84.03495 
L 375.676538 81.39462 
L 376.390778 81.93516 
L 377.105018 80.33433 
L 377.819258 78.19296 
L 378.533498 77.19504 
L 379.247738 77.86032 
L 379.961978 76.0308 
L 380.676218 76.55055 
L 381.390458 73.07862 
L 382.104698 70.43829 
L 382.818938 71.31147 
L 383.533178 69.31563 
L 384.247418 68.7543 
L 384.961658 67.69401 
L 385.675898 65.80212 
L 386.390138 66.6753 
L 387.104378 63.63996 
L 388.532858 62.35098 
L 389.247098 62.84994 
L 390.675578 57.88113 
L 391.389818 58.46325 
L 392.104058 57.42375 
L 392.818298 55.32396 
L 394.246778 52.62126 
L 394.961018 52.68363 
L 395.675258 51.78966 
L 396.389498 51.0828 
L 397.103738 48.81669 
L 397.817978 49.93935 
L 398.532218 46.57137 
L 399.246458 46.55058 
L 399.960698 45.78135 
L 400.674938 43.82709 
L 401.389178 43.57761 
L 402.103418 42.93312 
L 402.817658 41.64414 
L 403.531898 41.56098 
L 404.960378 39.93936 
L 405.674618 38.83749 
L 406.388858 38.77512 
L 407.103098 37.23666 
L 407.817338 37.1535 
L 408.531578 36.01005 
L 409.960058 35.46951 
L 410.674298 34.51317 
L 411.388538 33.91026 
L 412.817018 33.01629 
L 413.531258 32.84997 
L 414.245498 32.35101 
L 414.959738 32.30943 
L 416.388218 31.68573 
L 417.102458 31.49862 
L 418.530938 31.43625 
L 418.530938 31.43625 
" clip-path="url(#p37e3121db0)" style="fill: none; stroke: #ff7f0e; stroke-width: 1.5; stroke-linecap: square"/>
   </g>
   <g id="line2d_27">
    <path d="M 61.410938 297.54825 
L 63.553658 297.457943 
L 65.696378 297.196119 
L 67.124858 296.938193 
L 68.553338 296.639012 
L 69.981818 296.17611 
L 72.124538 295.488416 
L 78.552698 292.334833 
L 79.981178 291.357703 
L 82.123898 289.958601 
L 85.695098 287.316646 
L 86.409338 286.625704 
L 87.123578 286.12512 
L 87.837818 285.351342 
L 88.552058 284.943013 
L 89.980538 283.541312 
L 94.265978 279.495059 
L 97.122938 276.427884 
L 97.837178 275.774298 
L 98.551418 274.873182 
L 99.265658 274.178666 
L 100.694138 272.433605 
L 104.979578 267.414444 
L 106.408058 265.454662 
L 107.122298 264.865071 
L 107.836538 264.069203 
L 110.693498 260.155161 
L 111.407738 259.321937 
L 112.121978 258.191156 
L 112.836218 257.522952 
L 114.978938 254.481115 
L 115.693178 253.81551 
L 117.121658 251.945385 
L 126.406778 239.249192 
L 127.121018 238.467293 
L 128.549498 236.266477 
L 129.263738 235.819816 
L 129.977978 234.390504 
L 130.692218 233.332163 
L 134.263418 228.987053 
L 134.977658 227.666563 
L 135.691898 226.796956 
L 136.406138 225.629468 
L 137.120378 224.7826 
L 137.834618 223.697622 
L 139.263098 222.233227 
L 139.977338 221.067037 
L 141.405818 219.277148 
L 142.834298 217.469393 
L 143.548538 216.621226 
L 144.262778 215.321201 
L 144.977018 214.684183 
L 145.691258 213.747333 
L 146.405498 213.190876 
L 147.119738 212.048076 
L 148.548218 210.391372 
L 149.262458 209.551651 
L 149.976698 208.317245 
L 150.690938 207.806916 
L 151.405178 206.780085 
L 156.404858 201.266187 
L 157.119098 200.284834 
L 157.833338 199.651713 
L 158.547578 198.769438 
L 159.261818 198.329274 
L 159.976058 197.171856 
L 160.690298 196.625794 
L 163.547258 193.4943 
L 164.975738 192.276136 
L 165.689978 191.458179 
L 167.118458 190.238066 
L 167.832698 189.449021 
L 168.546938 189.004959 
L 169.261178 188.10027 
L 169.975418 187.618201 
L 170.689658 186.787251 
L 171.403898 186.523478 
L 172.118138 185.58338 
L 172.832378 185.329027 
L 173.546618 184.364891 
L 174.975098 183.448182 
L 176.403578 182.067921 
L 177.117818 181.784982 
L 177.832058 180.90693 
L 178.546298 181.056033 
L 179.260538 180.062336 
L 179.974778 180.014259 
L 180.689018 179.062467 
L 181.403258 178.891274 
L 183.545978 177.195915 
L 184.260218 177.063053 
L 184.974458 176.193122 
L 185.688698 175.962158 
L 187.831418 174.947671 
L 188.545658 174.14823 
L 189.259898 173.704169 
L 189.974138 173.439097 
L 190.688378 173.349765 
L 191.402618 172.798505 
L 192.116858 172.494776 
L 192.831098 172.064033 
L 193.545338 171.817152 
L 194.259578 171.727495 
L 194.973818 171.118088 
L 195.688058 170.799741 
L 196.402298 170.766932 
L 197.116538 170.221519 
L 197.830778 169.998352 
L 198.545018 169.982759 
L 199.259258 169.319428 
L 199.973498 169.352237 
L 201.401978 168.707422 
L 202.116218 168.573587 
L 202.830458 168.581708 
L 203.544698 168.172405 
L 204.258938 168.302992 
L 204.973178 167.797535 
L 205.687418 167.531488 
L 206.401658 167.751082 
L 207.115898 167.027331 
L 207.830138 166.864584 
L 209.258618 166.743417 
L 209.972858 166.416624 
L 210.687098 166.21717 
L 211.401338 166.411752 
L 212.115578 166.001149 
L 212.829818 165.959569 
L 213.544058 165.782205 
L 214.258298 165.986531 
L 214.972538 165.522654 
L 215.686778 165.375825 
L 216.401018 165.507387 
L 217.829498 165.317353 
L 219.972218 164.951579 
L 220.686458 165.079892 
L 221.400698 164.747252 
L 222.114938 164.980165 
L 223.543418 164.801176 
L 224.257658 164.942808 
L 224.971898 164.620563 
L 226.400378 164.810597 
L 229.257338 164.384077 
L 229.971578 164.781036 
L 230.685818 164.681309 
L 231.400058 164.778437 
L 232.114298 164.091393 
L 232.828538 164.466912 
L 234.257018 164.695602 
L 234.971258 164.51239 
L 237.113978 164.578334 
L 237.828218 164.266808 
L 238.542458 164.63713 
L 239.256698 164.37693 
L 239.970938 164.629334 
L 240.685178 164.098539 
L 241.399418 164.728736 
L 242.827898 164.425982 
L 243.542138 164.718341 
L 244.256378 164.37823 
L 244.970618 164.589053 
L 245.684858 164.34737 
L 247.113338 164.601397 
L 247.827578 164.290197 
L 248.541818 164.485428 
L 251.398778 164.228802 
L 252.113018 164.502645 
L 254.255738 164.185597 
L 254.969978 164.250566 
L 255.684218 163.885442 
L 256.398458 163.891289 
L 257.112698 164.128425 
L 257.826938 163.94099 
L 258.541178 164.156686 
L 259.969658 163.937092 
L 260.683898 163.619395 
L 261.398138 163.914678 
L 263.540858 163.273436 
L 264.255098 163.320539 
L 264.969337 163.229582 
L 265.683578 163.331908 
L 266.397818 163.246149 
L 267.112058 162.873554 
L 267.826298 162.781948 
L 268.540538 162.921955 
L 269.969018 162.524671 
L 270.683258 162.479193 
L 272.111738 161.760314 
L 272.825978 161.881156 
L 273.540218 161.785652 
L 274.254458 161.335743 
L 278.539898 160.267332 
L 279.968378 159.902208 
L 280.682618 159.392853 
L 281.396858 159.316515 
L 282.111098 158.846466 
L 282.825338 158.68177 
L 283.539578 158.321843 
L 284.253818 158.239982 
L 284.968058 157.576651 
L 285.682298 157.40221 
L 286.396538 156.82139 
L 287.825018 156.558266 
L 288.539258 155.826068 
L 289.253498 156.051185 
L 290.681978 155.010061 
L 291.396218 154.769027 
L 292.824698 153.813337 
L 293.538938 153.445938 
L 294.253178 152.844977 
L 295.681658 152.172551 
L 296.395898 151.681712 
L 297.110138 151.448149 
L 297.824378 150.703282 
L 298.538618 150.26117 
L 299.252858 150.024359 
L 301.395578 148.226349 
L 302.109818 147.945359 
L 302.824058 146.965305 
L 303.538298 146.731743 
L 304.252538 145.797492 
L 304.966778 145.84362 
L 305.681018 145.082836 
L 306.395258 144.50234 
L 307.109498 143.613243 
L 307.823738 143.329654 
L 308.537978 142.850185 
L 310.680698 140.715312 
L 311.394938 140.221549 
L 312.823418 138.613897 
L 313.537658 138.222136 
L 314.251898 137.433415 
L 314.966138 136.884754 
L 315.680378 135.912822 
L 317.108858 134.534185 
L 317.823098 134.02548 
L 319.251577 132.438293 
L 319.965818 131.981887 
L 321.394298 130.078303 
L 322.108538 129.547184 
L 323.537018 127.718963 
L 324.251258 127.282698 
L 324.965498 126.439079 
L 325.679738 125.223188 
L 328.536698 122.092669 
L 329.250938 121.482613 
L 329.965178 120.365475 
L 330.679418 119.604691 
L 333.536378 115.886854 
L 334.964858 114.516014 
L 335.679098 113.154269 
L 336.393338 112.607881 
L 337.821818 110.436626 
L 338.536058 109.933118 
L 343.535738 102.947353 
L 344.249978 102.276876 
L 345.678458 100.1982 
L 346.392698 99.495563 
L 355.677818 86.868562 
L 358.534778 82.998049 
L 359.249018 81.827637 
L 359.963258 81.209459 
L 362.105978 78.024366 
L 362.820218 77.189193 
L 363.534458 76.128578 
L 364.248698 75.399953 
L 364.962938 74.104152 
L 365.677178 73.280023 
L 366.391418 72.241498 
L 367.105658 71.446605 
L 368.534138 69.466357 
L 369.248378 68.758848 
L 372.819578 64.099939 
L 376.390778 59.796409 
L 380.676218 54.99067 
L 382.818938 52.432201 
L 383.533178 51.836762 
L 384.961658 50.207346 
L 393.532538 42.352949 
L 395.675258 40.644596 
L 398.532218 38.54708 
L 399.246458 37.973081 
L 399.960698 37.65311 
L 402.817658 35.830411 
L 404.246138 35.120628 
L 407.817338 33.481141 
L 408.531578 33.326191 
L 409.245818 32.978933 
L 414.245498 31.76954 
L 417.102458 31.471983 
L 418.530938 31.43625 
L 418.530938 31.43625 
" clip-path="url(#p37e3121db0)" style="fill: none; stroke: #2ca02c; stroke-width: 1.5; stroke-linecap: square"/>
   </g>
   <g id="line2d_28">
    <path d="M 61.410938 297.54825 
L 62.839418 297.432606 
L 64.267898 297.099966 
L 65.696378 296.600031 
L 67.839098 295.442938 
L 70.696058 293.395123 
L 72.124538 292.177608 
L 74.267258 290.001805 
L 77.838458 285.934436 
L 79.981178 283.396107 
L 80.695418 282.307231 
L 82.123898 280.505647 
L 90.694778 267.753581 
L 92.837498 264.494424 
L 108.550778 239.655571 
L 109.265018 238.950985 
L 109.979258 237.509329 
L 110.693498 236.3727 
L 112.121978 234.464893 
L 115.693178 229.05592 
L 117.121658 227.323528 
L 117.835898 226.112186 
L 119.264378 224.354456 
L 120.692858 222.046117 
L 121.407098 221.323014 
L 122.121338 220.171443 
L 124.264058 217.471342 
L 124.978298 216.377918 
L 126.406778 214.697176 
L 127.121018 213.510847 
L 127.835258 212.888446 
L 129.977978 210.196466 
L 130.692218 209.562696 
L 131.406458 208.606031 
L 132.120698 207.840375 
L 132.834938 206.895404 
L 133.549178 206.175225 
L 134.263418 205.113311 
L 134.977658 204.336935 
L 135.691898 203.810038 
L 136.406138 203.100579 
L 137.120378 202.156908 
L 138.548858 200.699659 
L 139.977338 199.208951 
L 141.405818 197.799779 
L 142.120058 196.895414 
L 144.977018 194.245988 
L 145.691258 193.44265 
L 146.405498 192.950187 
L 147.119738 192.164065 
L 147.833978 191.889247 
L 148.548218 190.931283 
L 149.976698 189.882362 
L 150.690938 189.614691 
L 151.405178 188.67102 
L 152.119418 188.340329 
L 152.833658 187.699412 
L 153.547898 186.761264 
L 154.262138 186.473452 
L 154.976378 186.020295 
L 155.690618 185.172128 
L 156.404858 184.968451 
L 157.119098 184.180705 
L 158.547578 183.444609 
L 161.404538 181.30129 
L 162.118778 180.644781 
L 162.833018 180.468066 
L 164.261498 179.700785 
L 164.975738 179.040052 
L 165.689978 178.735999 
L 166.404218 178.281542 
L 167.118458 178.051553 
L 168.546938 177.237819 
L 169.975418 176.565393 
L 170.689658 176.454296 
L 171.403898 175.67792 
L 172.118138 175.508676 
L 174.260858 174.437666 
L 175.689338 173.985159 
L 177.832058 172.768294 
L 179.260538 172.421036 
L 179.974778 171.767451 
L 180.689018 171.912656 
L 181.403258 171.821375 
L 182.117498 171.158369 
L 182.831738 171.032329 
L 183.545978 170.630173 
L 184.260218 170.640243 
L 185.688698 169.786878 
L 187.831418 169.316829 
L 188.545658 169.295065 
L 191.402618 168.439426 
L 192.116858 168.672664 
L 192.831098 168.282202 
L 193.545338 167.739713 
L 194.259578 167.934944 
L 194.973818 167.624718 
L 197.830778 167.008165 
L 198.545018 167.098147 
L 199.259258 166.814883 
L 199.973498 166.922081 
L 200.687738 166.500109 
L 201.401978 166.229514 
L 202.116218 166.554683 
L 202.830458 166.114195 
L 203.544698 165.931633 
L 204.258938 166.12524 
L 204.973178 166.181762 
L 205.687418 166.084309 
L 206.401658 165.612311 
L 207.830138 165.90532 
L 209.258618 165.298512 
L 209.972858 165.308582 
L 211.401338 165.712038 
L 212.115578 165.208206 
L 213.544058 165.36608 
L 214.258298 164.976917 
L 214.972538 165.221524 
L 215.686778 164.655971 
L 216.401018 164.973019 
L 217.115258 165.09451 
L 218.543738 165.070472 
L 219.257978 164.84503 
L 220.686458 164.921369 
L 221.400698 164.91942 
L 222.114938 164.689105 
L 222.829178 164.86647 
L 223.543418 164.777138 
L 224.257658 164.411364 
L 224.971898 164.665392 
L 225.686138 164.519537 
L 226.400378 164.526683 
L 227.114618 164.735883 
L 227.828858 164.507193 
L 228.543098 164.489976 
L 229.257338 164.73166 
L 230.685818 164.297993 
L 232.114298 164.402918 
L 233.542778 164.561767 
L 234.257018 164.463989 
L 235.685498 164.536754 
L 236.399738 164.992509 
L 237.113978 164.257713 
L 237.828218 164.54325 
L 239.256698 164.567939 
L 241.399418 164.500371 
L 242.113658 164.367185 
L 244.256378 164.618614 
L 245.684858 164.652723 
L 247.827578 164.409415 
L 252.113018 164.41916 
L 252.827258 164.628684 
L 253.541498 164.176827 
L 254.969978 164.464963 
L 255.684218 164.328854 
L 256.398458 164.651423 
L 257.112698 164.561117 
L 257.826938 164.3373 
L 260.683898 164.035845 
L 261.398138 164.052087 
L 262.112378 164.196317 
L 262.826617 164.184948 
L 263.540858 163.91955 
L 264.969337 163.924748 
L 267.826298 163.830868 
L 268.540538 163.89941 
L 269.254778 163.491406 
L 269.969018 163.569044 
L 271.397498 163.226009 
L 272.111738 163.335481 
L 272.825978 163.051568 
L 273.540218 163.253946 
L 274.254458 163.081454 
L 274.968698 163.190276 
L 275.682938 162.908962 
L 277.825658 162.701711 
L 278.539898 162.351855 
L 279.254138 162.437288 
L 279.968378 162.3616 
L 281.396858 161.94515 
L 282.111098 161.982507 
L 282.825338 161.636224 
L 284.968058 161.395515 
L 285.682298 161.142786 
L 286.396538 161.114525 
L 287.110778 160.669814 
L 287.825018 160.816968 
L 289.253498 160.514213 
L 289.967738 159.993489 
L 290.681978 159.946387 
L 291.396218 159.694633 
L 292.110458 159.66832 
L 294.253178 158.828599 
L 294.967418 158.691515 
L 295.681658 158.427742 
L 296.395898 157.874208 
L 297.110138 157.977833 
L 298.538618 157.898896 
L 299.252858 157.263177 
L 300.681338 157.034162 
L 301.395578 156.307487 
L 302.109818 156.401367 
L 302.824058 155.603226 
L 303.538298 155.504473 
L 304.252538 155.120183 
L 304.966778 155.195222 
L 306.395258 154.16969 
L 307.109498 154.083931 
L 307.823738 153.405333 
L 309.252218 152.935609 
L 309.966458 152.147538 
L 311.394938 151.577762 
L 312.823418 151.283778 
L 313.537658 150.371617 
L 316.394618 149.008573 
L 317.108858 148.42223 
L 317.823098 148.079844 
L 319.251577 146.975376 
L 319.965818 146.70543 
L 322.108538 145.161123 
L 322.822778 144.338294 
L 323.537018 144.159955 
L 324.251258 143.50442 
L 327.108218 141.504682 
L 327.822458 140.679254 
L 328.536698 140.109153 
L 329.250938 139.818418 
L 329.965178 139.102787 
L 330.679418 138.561922 
L 331.393658 137.836222 
L 332.107898 137.380466 
L 333.536378 135.691928 
L 334.250618 135.510665 
L 334.964858 134.63781 
L 336.393338 133.297505 
L 337.107578 132.940501 
L 338.536058 131.092465 
L 339.250298 130.614945 
L 339.964538 129.906461 
L 341.393018 128.273146 
L 342.107258 127.814142 
L 343.535738 125.892691 
L 344.964218 124.49294 
L 345.678458 123.822787 
L 346.392698 122.446749 
L 347.106938 122.284002 
L 347.821178 121.275037 
L 348.535418 120.689344 
L 349.249658 119.580652 
L 349.963898 118.887761 
L 350.678138 117.822273 
L 354.963578 112.749513 
L 355.677818 111.44689 
L 357.106298 109.714173 
L 357.820538 108.57787 
L 358.534778 107.76641 
L 364.248698 99.758362 
L 364.962938 98.468407 
L 367.105658 95.6257 
L 369.962618 91.30073 
L 370.676858 90.270001 
L 371.391098 89.03462 
L 372.105338 88.128631 
L 377.105018 79.997467 
L 377.819258 79.336735 
L 378.533498 77.96492 
L 382.818938 71.246176 
L 383.533178 69.974088 
L 384.961658 67.805756 
L 386.390138 65.493518 
L 387.818618 63.419391 
L 389.247098 61.206231 
L 390.675578 58.975853 
L 393.532538 54.593711 
L 395.675258 51.523938 
L 397.103738 49.41895 
L 397.817978 48.374253 
L 398.532218 47.618991 
L 399.246458 46.517121 
L 401.389178 43.940136 
L 402.103418 42.868801 
L 402.817658 42.249974 
L 404.246138 40.549741 
L 404.960378 39.652848 
L 409.960058 34.982894 
L 412.102778 33.527269 
L 414.959738 32.113224 
L 416.388218 31.673386 
L 417.816698 31.45769 
L 418.530938 31.43625 
L 418.530938 31.43625 
" clip-path="url(#p37e3121db0)" style="fill: none; stroke: #d62728; stroke-width: 1.5; stroke-linecap: square"/>
   </g>
   <g id="line2d_29">
    <path d="M 61.410938 297.54825 
L 418.530938 31.43625 
L 418.530938 31.43625 
" clip-path="url(#p37e3121db0)" style="fill: none; stroke-dasharray: 5.55,2.4; stroke-dashoffset: 0; stroke: #1f77b4; stroke-width: 1.5"/>
   </g>
   <g id="patch_3">
    <path d="M 61.410938 297.54825 
L 61.410938 31.43625 
" style="fill: none; stroke: #000000; stroke-width: 0.8; stroke-linejoin: miter; stroke-linecap: square"/>
   </g>
   <g id="patch_4">
    <path d="M 418.530938 297.54825 
L 418.530938 31.43625 
" style="fill: none; stroke: #000000; stroke-width: 0.8; stroke-linejoin: miter; stroke-linecap: square"/>
   </g>
   <g id="patch_5">
    <path d="M 61.410938 297.54825 
L 418.530938 297.54825 
" style="fill: none; stroke: #000000; stroke-width: 0.8; stroke-linejoin: miter; stroke-linecap: square"/>
   </g>
   <g id="patch_6">
    <path d="M 61.410938 31.43625 
L 418.530938 31.43625 
" style="fill: none; stroke: #000000; stroke-width: 0.8; stroke-linejoin: miter; stroke-linecap: square"/>
   </g>
   <g id="text_15">
    <!-- Shor code [[9, 1, 3]] -->
    <g transform="translate(119.014688 25.43625) scale(0.24 -0.24)">
     <defs>
      <path id="DejaVuSans-53" d="M 3425 4513 
L 3425 3897 
Q 3066 4069 2747 4153 
Q 2428 4238 2131 4238 
Q 1616 4238 1336 4038 
Q 1056 3838 1056 3469 
Q 1056 3159 1242 3001 
Q 1428 2844 1947 2747 
L 2328 2669 
Q 3034 2534 3370 2195 
Q 3706 1856 3706 1288 
Q 3706 609 3251 259 
Q 2797 -91 1919 -91 
Q 1588 -91 1214 -16 
Q 841 59 441 206 
L 441 856 
Q 825 641 1194 531 
Q 1563 422 1919 422 
Q 2459 422 2753 634 
Q 3047 847 3047 1241 
Q 3047 1584 2836 1778 
Q 2625 1972 2144 2069 
L 1759 2144 
Q 1053 2284 737 2584 
Q 422 2884 422 3419 
Q 422 4038 858 4394 
Q 1294 4750 2059 4750 
Q 2388 4750 2728 4690 
Q 3069 4631 3425 4513 
z
" transform="scale(0.015625)"/>
      <path id="DejaVuSans-64" d="M 2906 2969 
L 2906 4863 
L 3481 4863 
L 3481 0 
L 2906 0 
L 2906 525 
Q 2725 213 2448 61 
Q 2172 -91 1784 -91 
Q 1150 -91 751 415 
Q 353 922 353 1747 
Q 353 2572 751 3078 
Q 1150 3584 1784 3584 
Q 2172 3584 2448 3432 
Q 2725 3281 2906 2969 
z
M 947 1747 
Q 947 1113 1208 752 
Q 1469 391 1925 391 
Q 2381 391 2643 752 
Q 2906 1113 2906 1747 
Q 2906 2381 2643 2742 
Q 2381 3103 1925 3103 
Q 1469 3103 1208 2742 
Q 947 2381 947 1747 
z
" transform="scale(0.015625)"/>
      <path id="DejaVuSans-65" d="M 3597 1894 
L 3597 1613 
L 953 1613 
Q 991 1019 1311 708 
Q 1631 397 2203 397 
Q 2534 397 2845 478 
Q 3156 559 3463 722 
L 3463 178 
Q 3153 47 2828 -22 
Q 2503 -91 2169 -91 
Q 1331 -91 842 396 
Q 353 884 353 1716 
Q 353 2575 817 3079 
Q 1281 3584 2069 3584 
Q 2775 3584 3186 3129 
Q 3597 2675 3597 1894 
z
M 3022 2063 
Q 3016 2534 2758 2815 
Q 2500 3097 2075 3097 
Q 1594 3097 1305 2825 
Q 1016 2553 972 2059 
L 3022 2063 
z
" transform="scale(0.015625)"/>
      <path id="DejaVuSans-5b" d="M 550 4863 
L 1875 4863 
L 1875 4416 
L 1125 4416 
L 1125 -397 
L 1875 -397 
L 1875 -844 
L 550 -844 
L 550 4863 
z
" transform="scale(0.015625)"/>
      <path id="DejaVuSans-39" d="M 703 97 
L 703 672 
Q 941 559 1184 500 
Q 1428 441 1663 441 
Q 2288 441 2617 861 
Q 2947 1281 2994 2138 
Q 2813 1869 2534 1725 
Q 2256 1581 1919 1581 
Q 1219 1581 811 2004 
Q 403 2428 403 3163 
Q 403 3881 828 4315 
Q 1253 4750 1959 4750 
Q 2769 4750 3195 4129 
Q 3622 3509 3622 2328 
Q 3622 1225 3098 567 
Q 2575 -91 1691 -91 
Q 1453 -91 1209 -44 
Q 966 3 703 97 
z
M 1959 2075 
Q 2384 2075 2632 2365 
Q 2881 2656 2881 3163 
Q 2881 3666 2632 3958 
Q 2384 4250 1959 4250 
Q 1534 4250 1286 3958 
Q 1038 3666 1038 3163 
Q 1038 2656 1286 2365 
Q 1534 2075 1959 2075 
z
" transform="scale(0.015625)"/>
      <path id="DejaVuSans-2c" d="M 750 794 
L 1409 794 
L 1409 256 
L 897 -744 
L 494 -744 
L 750 256 
L 750 794 
z
" transform="scale(0.015625)"/>
      <path id="DejaVuSans-33" d="M 2597 2516 
Q 3050 2419 3304 2112 
Q 3559 1806 3559 1356 
Q 3559 666 3084 287 
Q 2609 -91 1734 -91 
Q 1441 -91 1130 -33 
Q 819 25 488 141 
L 488 750 
Q 750 597 1062 519 
Q 1375 441 1716 441 
Q 2309 441 2620 675 
Q 2931 909 2931 1356 
Q 2931 1769 2642 2001 
Q 2353 2234 1838 2234 
L 1294 2234 
L 1294 2753 
L 1863 2753 
Q 2328 2753 2575 2939 
Q 2822 3125 2822 3475 
Q 2822 3834 2567 4026 
Q 2313 4219 1838 4219 
Q 1578 4219 1281 4162 
Q 984 4106 628 3988 
L 628 4550 
Q 988 4650 1302 4700 
Q 1616 4750 1894 4750 
Q 2613 4750 3031 4423 
Q 3450 4097 3450 3541 
Q 3450 3153 3228 2886 
Q 3006 2619 2597 2516 
z
" transform="scale(0.015625)"/>
      <path id="DejaVuSans-5d" d="M 1947 4863 
L 1947 -844 
L 622 -844 
L 622 -397 
L 1369 -397 
L 1369 4416 
L 622 4416 
L 622 4863 
L 1947 4863 
z
" transform="scale(0.015625)"/>
     </defs>
     <use xlink:href="#DejaVuSans-53"/>
     <use xlink:href="#DejaVuSans-68" x="63.476562"/>
     <use xlink:href="#DejaVuSans-6f" x="126.855469"/>
     <use xlink:href="#DejaVuSans-72" x="188.037109"/>
     <use xlink:href="#DejaVuSans-20" x="229.150391"/>
     <use xlink:href="#DejaVuSans-63" x="260.9375"/>
     <use xlink:href="#DejaVuSans-6f" x="315.917969"/>
     <use xlink:href="#DejaVuSans-64" x="377.099609"/>
     <use xlink:href="#DejaVuSans-65" x="440.576172"/>
     <use xlink:href="#DejaVuSans-20" x="502.099609"/>
     <use xlink:href="#DejaVuSans-5b" x="533.886719"/>
     <use xlink:href="#DejaVuSans-5b" x="572.900391"/>
     <use xlink:href="#DejaVuSans-39" x="611.914062"/>
     <use xlink:href="#DejaVuSans-2c" x="675.537109"/>
     <use xlink:href="#DejaVuSans-20" x="707.324219"/>
     <use xlink:href="#DejaVuSans-31" x="739.111328"/>
     <use xlink:href="#DejaVuSans-2c" x="802.734375"/>
     <use xlink:href="#DejaVuSans-20" x="834.521484"/>
     <use xlink:href="#DejaVuSans-33" x="866.308594"/>
     <use xlink:href="#DejaVuSans-5d" x="929.931641"/>
     <use xlink:href="#DejaVuSans-5d" x="968.945312"/>
    </g>
   </g>
   <g id="legend_1">
    <g id="patch_7">
     <path d="M 70.510938 79.999375 
L 282.847656 79.999375 
Q 285.447656 79.999375 285.447656 77.399375 
L 285.447656 40.53625 
Q 285.447656 37.93625 282.847656 37.93625 
L 70.510938 37.93625 
Q 67.910938 37.93625 67.910938 40.53625 
L 67.910938 77.399375 
Q 67.910938 79.999375 70.510938 79.999375 
z
" style="fill: #ffffff; opacity: 0.8; stroke: #cccccc; stroke-linejoin: miter"/>
    </g>
    <g id="line2d_30">
     <path d="M 73.110938 48.464219 
L 86.110938 48.464219 
L 99.110938 48.464219 
" style="fill: none; stroke: #1f77b4; stroke-width: 1.5; stroke-linecap: square"/>
    </g>
    <g id="text_16">
     <!-- x (state) -->
     <g transform="translate(109.510938 53.014219) scale(0.13 -0.13)">
      <defs>
       <path id="DejaVuSans-78" d="M 3513 3500 
L 2247 1797 
L 3578 0 
L 2900 0 
L 1881 1375 
L 863 0 
L 184 0 
L 1544 1831 
L 300 3500 
L 978 3500 
L 1906 2253 
L 2834 3500 
L 3513 3500 
z
" transform="scale(0.015625)"/>
       <path id="DejaVuSans-28" d="M 1984 4856 
Q 1566 4138 1362 3434 
Q 1159 2731 1159 2009 
Q 1159 1288 1364 580 
Q 1569 -128 1984 -844 
L 1484 -844 
Q 1016 -109 783 600 
Q 550 1309 550 2009 
Q 550 2706 781 3412 
Q 1013 4119 1484 4856 
L 1984 4856 
z
" transform="scale(0.015625)"/>
       <path id="DejaVuSans-74" d="M 1172 4494 
L 1172 3500 
L 2356 3500 
L 2356 3053 
L 1172 3053 
L 1172 1153 
Q 1172 725 1289 603 
Q 1406 481 1766 481 
L 2356 481 
L 2356 0 
L 1766 0 
Q 1100 0 847 248 
Q 594 497 594 1153 
L 594 3053 
L 172 3053 
L 172 3500 
L 594 3500 
L 594 4494 
L 1172 4494 
z
" transform="scale(0.015625)"/>
       <path id="DejaVuSans-29" d="M 513 4856 
L 1013 4856 
Q 1481 4119 1714 3412 
Q 1947 2706 1947 2009 
Q 1947 1309 1714 600 
Q 1481 -109 1013 -844 
L 513 -844 
Q 928 -128 1133 580 
Q 1338 1288 1338 2009 
Q 1338 2731 1133 3434 
Q 928 4138 513 4856 
z
" transform="scale(0.015625)"/>
      </defs>
      <use xlink:href="#DejaVuSans-78"/>
      <use xlink:href="#DejaVuSans-20" x="59.179688"/>
      <use xlink:href="#DejaVuSans-28" x="90.966797"/>
      <use xlink:href="#DejaVuSans-73" x="129.980469"/>
      <use xlink:href="#DejaVuSans-74" x="182.080078"/>
      <use xlink:href="#DejaVuSans-61" x="221.289062"/>
      <use xlink:href="#DejaVuSans-74" x="282.568359"/>
      <use xlink:href="#DejaVuSans-65" x="321.777344"/>
      <use xlink:href="#DejaVuSans-29" x="383.300781"/>
     </g>
    </g>
    <g id="line2d_31">
     <path d="M 73.110938 67.545781 
L 86.110938 67.545781 
L 99.110938 67.545781 
" style="fill: none; stroke: #ff7f0e; stroke-width: 1.5; stroke-linecap: square"/>
    </g>
    <g id="text_17">
     <!-- z (state) -->
     <g transform="translate(109.510938 72.095781) scale(0.13 -0.13)">
      <defs>
       <path id="DejaVuSans-7a" d="M 353 3500 
L 3084 3500 
L 3084 2975 
L 922 459 
L 3084 459 
L 3084 0 
L 275 0 
L 275 525 
L 2438 3041 
L 353 3041 
L 353 3500 
z
" transform="scale(0.015625)"/>
      </defs>
      <use xlink:href="#DejaVuSans-7a"/>
      <use xlink:href="#DejaVuSans-20" x="52.490234"/>
      <use xlink:href="#DejaVuSans-28" x="84.277344"/>
      <use xlink:href="#DejaVuSans-73" x="123.291016"/>
      <use xlink:href="#DejaVuSans-74" x="175.390625"/>
      <use xlink:href="#DejaVuSans-61" x="214.599609"/>
      <use xlink:href="#DejaVuSans-74" x="275.878906"/>
      <use xlink:href="#DejaVuSans-65" x="315.087891"/>
      <use xlink:href="#DejaVuSans-29" x="376.611328"/>
     </g>
    </g>
    <g id="line2d_32">
     <path d="M 190.411563 48.464219 
L 203.411563 48.464219 
L 216.411563 48.464219 
" style="fill: none; stroke: #2ca02c; stroke-width: 1.5; stroke-linecap: square"/>
    </g>
    <g id="text_18">
     <!-- x (error) -->
     <g transform="translate(226.811563 53.014219) scale(0.13 -0.13)">
      <use xlink:href="#DejaVuSans-78"/>
      <use xlink:href="#DejaVuSans-20" x="59.179688"/>
      <use xlink:href="#DejaVuSans-28" x="90.966797"/>
      <use xlink:href="#DejaVuSans-65" x="129.980469"/>
      <use xlink:href="#DejaVuSans-72" x="191.503906"/>
      <use xlink:href="#DejaVuSans-72" x="230.867188"/>
      <use xlink:href="#DejaVuSans-6f" x="269.730469"/>
      <use xlink:href="#DejaVuSans-72" x="330.912109"/>
      <use xlink:href="#DejaVuSans-29" x="372.025391"/>
     </g>
    </g>
    <g id="line2d_33">
     <path d="M 190.411563 67.545781 
L 203.411563 67.545781 
L 216.411563 67.545781 
" style="fill: none; stroke: #d62728; stroke-width: 1.5; stroke-linecap: square"/>
    </g>
    <g id="text_19">
     <!-- z (error) -->
     <g transform="translate(226.811563 72.095781) scale(0.13 -0.13)">
      <use xlink:href="#DejaVuSans-7a"/>
      <use xlink:href="#DejaVuSans-20" x="52.490234"/>
      <use xlink:href="#DejaVuSans-28" x="84.277344"/>
      <use xlink:href="#DejaVuSans-65" x="123.291016"/>
      <use xlink:href="#DejaVuSans-72" x="184.814453"/>
      <use xlink:href="#DejaVuSans-72" x="224.177734"/>
      <use xlink:href="#DejaVuSans-6f" x="263.041016"/>
      <use xlink:href="#DejaVuSans-72" x="324.222656"/>
      <use xlink:href="#DejaVuSans-29" x="365.335938"/>
     </g>
    </g>
   </g>
  </g>
 </g>
 <defs>
  <clipPath id="p37e3121db0">
   <rect x="61.410938" y="31.43625" width="357.12" height="266.112"/>
  </clipPath>
 </defs>
</svg>
