<?xml version="1.0" encoding="utf-8" standalone="no"?>
<!DOCTYPE svg PUBLIC "-//W3C//DTD SVG 1.1//EN"
  "http://www.w3.org/Graphics/SVG/1.1/DTD/svg11.dtd">
<svg xmlns:xlink="http://www.w3.org/1999/xlink" width="437.658281pt" height="349.621687pt" viewBox="0 0 437.658281 349.621687" xmlns="http://www.w3.org/2000/svg" version="1.1">
 <defs>
  <style type="text/css">*{stroke-linejoin: round; stroke-linecap: butt}</style>
 </defs>
 <g id="figure_1">
  <g id="patch_1">
   <path d="M 0 349.621687 
L 437.658281 349.621687 
L 437.658281 0 
L 0 0 
L 0 349.621687 
z
" style="fill: none"/>
  </g>
  <g id="axes_1">
   <g id="patch_2">
    <path d="M 61.410938 297.54825 
L 418.530938 297.54825 
L 418.530938 31.43625 
L 61.410938 31.43625 
L 61.410938 297.54825 
z
" style="fill: none"/>
   </g>
   <g id="matplotlib.axis_1">
    <g id="xtick_1">
     <g id="line2d_1">
      <path d="M 61.410938 297.54825 
L 61.410938 31.43625 
" clip-path="url(#p37e3121db0)" style="fill: none; stroke: #b0b0b0; stroke-width: 0.8; stroke-linecap: square"/>
     </g>
     <g id="line2d_2">
      <defs>
       <path id="md39032bed2" d="M 0 0 
L 0 3.5 
" style="stroke: #000000; stroke-width: 0.8"/>
      </defs>
      <g>
       <use xlink:href="#md39032bed2" x="61.410938" y="297.54825" style="stroke: #000000; stroke-width: 0.8"/>
      </g>
     </g>
     <g id="text_1">
      <!-- 0.0 -->
      <g transform="translate(49.483594 315.945906) scale(0.15 -0.15)">
       <defs>
        <path id="DejaVuSans-30" d="M 2034 4250 
Q 1547 4250 1301 3770 
Q 1056 3291 1056 2328 
Q 1056 1369 1301 889 
Q 1547 409 2034 409 
Q 2525 409 2770 889 
Q 3016 1369 3016 2328 
Q 3016 3291 2770 3770 
Q 2525 4250 2034 4250 
z
M 2034 4750 
Q 2819 4750 3233 4129 
Q 3647 3509 3647 2328 
Q 3647 1150 3233 529 
Q 2819 -91 2034 -91 
Q 1250 -91 836 529 
Q 422 1150 422 2328 
Q 422 3509 836 4129 
Q 1250 4750 2034 4750 
z
" transform="scale(0.015625)"/>
        <path id="DejaVuSans-2e" d="M 684 794 
L 1344 794 
L 1344 0 
L 684 0 
L 684 794 
z
" transform="scale(0.015625)"/>
       </defs>
       <use xlink:href="#DejaVuSans-30"/>
       <use xlink:href="#DejaVuSans-2e" x="63.623047"/>
       <use xlink:href="#DejaVuSans-30" x="95.410156"/>
      </g>
     </g>
    </g>
    <g id="xtick_2">
     <g id="line2d_3">
      <path d="M 132.834938 297.54825 
L 132.834938 31.43625 
" clip-path="url(#p37e3121db0)" style="fill: none; stroke: #b0b0b0; stroke-width: 0.8; stroke-linecap: square"/>
     </g>
     <g id="line2d_4">
      <g>
       <use xlink:href="#md39032bed2" x="132.834938" y="297.54825" style="stroke: #000000; stroke-width: 0.8"/>
      </g>
     </g>
     <g id="text_2">
      <!-- 0.2 -->
      <g transform="translate(120.907594 315.945906) scale(0.15 -0.15)">
       <defs>
        <path id="DejaVuSans-32" d="M 1228 531 
L 3431 531 
L 3431 0 
L 469 0 
L 469 531 
Q 828 903 1448 1529 
Q 2069 2156 2228 2338 
Q 2531 2678 2651 2914 
Q 2772 3150 2772 3378 
Q 2772 3750 2511 3984 
Q 2250 4219 1831 4219 
Q 1534 4219 1204 4116 
Q 875 4013 500 3803 
L 500 4441 
Q 881 4594 1212 4672 
Q 1544 4750 1819 4750 
Q 2544 4750 2975 4387 
Q 3406 4025 3406 3419 
Q 3406 3131 3298 2873 
Q 3191 2616 2906 2266 
Q 2828 2175 2409 1742 
Q 1991 1309 1228 531 
z
" transform="scale(0.015625)"/>
       </defs>
       <use xlink:href="#DejaVuSans-30"/>
       <use xlink:href="#DejaVuSans-2e" x="63.623047"/>
       <use xlink:href="#DejaVuSans-32" x="95.410156"/>
      </g>
     </g>
    </g>
    <g id="xtick_3">
     <g id="line2d_5">
      <path d="M 204.258938 297.54825 
L 204.258938 31.43625 
" clip-path="url(#p37e3121db0)" style="fill: none; stroke: #b0b0b0; stroke-width: 0.8; stroke-linecap: square"/>
     </g>
     <g id="line2d_6">
      <g>
       <use xlink:href="#md39032bed2" x="204.258938" y="297.54825" style="stroke: #000000; stroke-width: 0.8"/>
      </g>
     </g>
     <g id="text_3">
      <!-- 0.4 -->
      <g transform="translate(192.331594 315.945906) scale(0.15 -0.15)">
       <defs>
        <path id="DejaVuSans-34" d="M 2419 4116 
L 825 1625 
L 2419 1625 
L 2419 4116 
z
M 2253 4666 
L 3047 4666 
L 3047 1625 
L 3713 1625 
L 3713 1100 
L 3047 1100 
L 3047 0 
L 2419 0 
L 2419 1100 
L 313 1100 
L 313 1709 
L 2253 4666 
z
" transform="scale(0.015625)"/>
       </defs>
       <use xlink:href="#DejaVuSans-30"/>
       <use xlink:href="#DejaVuSans-2e" x="63.623047"/>
       <use xlink:href="#DejaVuSans-34" x="95.410156"/>
      </g>
     </g>
    </g>
    <g id="xtick_4">
     <g id="line2d_7">
      <path d="M 275.682938 297.54825 
L 275.682938 31.43625 
" clip-path="url(#p37e3121db0)" style="fill: none; stroke: #b0b0b0; stroke-width: 0.8; stroke-linecap: square"/>
     </g>
     <g id="line2d_8">
      <g>
       <use xlink:href="#md39032bed2" x="275.682938" y="297.54825" style="stroke: #000000; stroke-width: 0.8"/>
      </g>
     </g>
     <g id="text_4">
      <!-- 0.6 -->
      <g transform="translate(263.755594 315.945906) scale(0.15 -0.15)">
       <defs>
        <path id="DejaVuSans-36" d="M 2113 2584 
Q 1688 2584 1439 2293 
Q 1191 2003 1191 1497 
Q 1191 994 1439 701 
Q 1688 409 2113 409 
Q 2538 409 2786 701 
Q 3034 994 3034 1497 
Q 3034 2003 2786 2293 
Q 2538 2584 2113 2584 
z
M 3366 4563 
L 3366 3988 
Q 3128 4100 2886 4159 
Q 2644 4219 2406 4219 
Q 1781 4219 1451 3797 
Q 1122 3375 1075 2522 
Q 1259 2794 1537 2939 
Q 1816 3084 2150 3084 
Q 2853 3084 3261 2657 
Q 3669 2231 3669 1497 
Q 3669 778 3244 343 
Q 2819 -91 2113 -91 
Q 1303 -91 875 529 
Q 447 1150 447 2328 
Q 447 3434 972 4092 
Q 1497 4750 2381 4750 
Q 2619 4750 2861 4703 
Q 3103 4656 3366 4563 
z
" transform="scale(0.015625)"/>
       </defs>
       <use xlink:href="#DejaVuSans-30"/>
       <use xlink:href="#DejaVuSans-2e" x="63.623047"/>
       <use xlink:href="#DejaVuSans-36" x="95.410156"/>
      </g>
     </g>
    </g>
    <g id="xtick_5">
     <g id="line2d_9">
      <path d="M 347.106938 297.54825 
L 347.106938 31.43625 
" clip-path="url(#p37e3121db0)" style="fill: none; stroke: #b0b0b0; stroke-width: 0.8; stroke-linecap: square"/>
     </g>
     <g id="line2d_10">
      <g>
       <use xlink:href="#md39032bed2" x="347.106938" y="297.54825" style="stroke: #000000; stroke-width: 0.8"/>
      </g>
     </g>
     <g id="text_5">
      <!-- 0.8 -->
      <g transform="translate(335.179594 315.945906) scale(0.15 -0.15)">
       <defs>
        <path id="DejaVuSans-38" d="M 2034 2216 
Q 1584 2216 1326 1975 
Q 1069 1734 1069 1313 
Q 1069 891 1326 650 
Q 1584 409 2034 409 
Q 2484 409 2743 651 
Q 3003 894 3003 1313 
Q 3003 1734 2745 1975 
Q 2488 2216 2034 2216 
z
M 1403 2484 
Q 997 2584 770 2862 
Q 544 3141 544 3541 
Q 544 4100 942 4425 
Q 1341 4750 2034 4750 
Q 2731 4750 3128 4425 
Q 3525 4100 3525 3541 
Q 3525 3141 3298 2862 
Q 3072 2584 2669 2484 
Q 3125 2378 3379 2068 
Q 3634 1759 3634 1313 
Q 3634 634 3220 271 
Q 2806 -91 2034 -91 
Q 1263 -91 848 271 
Q 434 634 434 1313 
Q 434 1759 690 2068 
Q 947 2378 1403 2484 
z
M 1172 3481 
Q 1172 3119 1398 2916 
Q 1625 2713 2034 2713 
Q 2441 2713 2670 2916 
Q 2900 3119 2900 3481 
Q 2900 3844 2670 4047 
Q 2441 4250 2034 4250 
Q 1625 4250 1398 4047 
Q 1172 3844 1172 3481 
z
" transform="scale(0.015625)"/>
       </defs>
       <use xlink:href="#DejaVuSans-30"/>
       <use xlink:href="#DejaVuSans-2e" x="63.623047"/>
       <use xlink:href="#DejaVuSans-38" x="95.410156"/>
      </g>
     </g>
    </g>
    <g id="xtick_6">
     <g id="line2d_11">
      <path d="M 418.530938 297.54825 
L 418.530938 31.43625 
" clip-path="url(#p37e3121db0)" style="fill: none; stroke: #b0b0b0; stroke-width: 0.8; stroke-linecap: square"/>
     </g>
     <g id="line2d_12">
      <g>
       <use xlink:href="#md39032bed2" x="418.530938" y="297.54825" style="stroke: #000000; stroke-width: 0.8"/>
      </g>
     </g>
     <g id="text_6">
      <!-- 1.0 -->
      <g transform="translate(406.603594 315.945906) scale(0.15 -0.15)">
       <defs>
        <path id="DejaVuSans-31" d="M 794 531 
L 1825 531 
L 1825 4091 
L 703 3866 
L 703 4441 
L 1819 4666 
L 2450 4666 
L 2450 531 
L 3481 531 
L 3481 0 
L 794 0 
L 794 531 
z
" transform="scale(0.015625)"/>
       </defs>
       <use xlink:href="#DejaVuSans-31"/>
       <use xlink:href="#DejaVuSans-2e" x="63.623047"/>
       <use xlink:href="#DejaVuSans-30" x="95.410156"/>
      </g>
     </g>
    </g>
    <g id="text_7">
     <!-- Physical Error -->
     <g transform="translate(171.744375 338.262312) scale(0.2 -0.2)">
      <defs>
       <path id="DejaVuSans-50" d="M 1259 4147 
L 1259 2394 
L 2053 2394 
Q 2494 2394 2734 2622 
Q 2975 2850 2975 3272 
Q 2975 3691 2734 3919 
Q 2494 4147 2053 4147 
L 1259 4147 
z
M 628 4666 
L 2053 4666 
Q 2838 4666 3239 4311 
Q 3641 3956 3641 3272 
Q 3641 2581 3239 2228 
Q 2838 1875 2053 1875 
L 1259 1875 
L 1259 0 
L 628 0 
L 628 4666 
z
" transform="scale(0.015625)"/>
       <path id="DejaVuSans-68" d="M 3513 2113 
L 3513 0 
L 2938 0 
L 2938 2094 
Q 2938 2591 2744 2837 
Q 2550 3084 2163 3084 
Q 1697 3084 1428 2787 
Q 1159 2491 1159 1978 
L 1159 0 
L 581 0 
L 581 4863 
L 1159 4863 
L 1159 2956 
Q 1366 3272 1645 3428 
Q 1925 3584 2291 3584 
Q 2894 3584 3203 3211 
Q 3513 2838 3513 2113 
z
" transform="scale(0.015625)"/>
       <path id="DejaVuSans-79" d="M 2059 -325 
Q 1816 -950 1584 -1140 
Q 1353 -1331 966 -1331 
L 506 -1331 
L 506 -850 
L 844 -850 
Q 1081 -850 1212 -737 
Q 1344 -625 1503 -206 
L 1606 56 
L 191 3500 
L 800 3500 
L 1894 763 
L 2988 3500 
L 3597 3500 
L 2059 -325 
z
" transform="scale(0.015625)"/>
       <path id="DejaVuSans-73" d="M 2834 3397 
L 2834 2853 
Q 2591 2978 2328 3040 
Q 2066 3103 1784 3103 
Q 1356 3103 1142 2972 
Q 928 2841 928 2578 
Q 928 2378 1081 2264 
Q 1234 2150 1697 2047 
L 1894 2003 
Q 2506 1872 2764 1633 
Q 3022 1394 3022 966 
Q 3022 478 2636 193 
Q 2250 -91 1575 -91 
Q 1294 -91 989 -36 
Q 684 19 347 128 
L 347 722 
Q 666 556 975 473 
Q 1284 391 1588 391 
Q 1994 391 2212 530 
Q 2431 669 2431 922 
Q 2431 1156 2273 1281 
Q 2116 1406 1581 1522 
L 1381 1569 
Q 847 1681 609 1914 
Q 372 2147 372 2553 
Q 372 3047 722 3315 
Q 1072 3584 1716 3584 
Q 2034 3584 2315 3537 
Q 2597 3491 2834 3397 
z
" transform="scale(0.015625)"/>
       <path id="DejaVuSans-69" d="M 603 3500 
L 1178 3500 
L 1178 0 
L 603 0 
L 603 3500 
z
M 603 4863 
L 1178 4863 
L 1178 4134 
L 603 4134 
L 603 4863 
z
" transform="scale(0.015625)"/>
       <path id="DejaVuSans-63" d="M 3122 3366 
L 3122 2828 
Q 2878 2963 2633 3030 
Q 2388 3097 2138 3097 
Q 1578 3097 1268 2742 
Q 959 2388 959 1747 
Q 959 1106 1268 751 
Q 1578 397 2138 397 
Q 2388 397 2633 464 
Q 2878 531 3122 666 
L 3122 134 
Q 2881 22 2623 -34 
Q 2366 -91 2075 -91 
Q 1284 -91 818 406 
Q 353 903 353 1747 
Q 353 2603 823 3093 
Q 1294 3584 2113 3584 
Q 2378 3584 2631 3529 
Q 2884 3475 3122 3366 
z
" transform="scale(0.015625)"/>
       <path id="DejaVuSans-61" d="M 2194 1759 
Q 1497 1759 1228 1600 
Q 959 1441 959 1056 
Q 959 750 1161 570 
Q 1363 391 1709 391 
Q 2188 391 2477 730 
Q 2766 1069 2766 1631 
L 2766 1759 
L 2194 1759 
z
M 3341 1997 
L 3341 0 
L 2766 0 
L 2766 531 
Q 2569 213 2275 61 
Q 1981 -91 1556 -91 
Q 1019 -91 701 211 
Q 384 513 384 1019 
Q 384 1609 779 1909 
Q 1175 2209 1959 2209 
L 2766 2209 
L 2766 2266 
Q 2766 2663 2505 2880 
Q 2244 3097 1772 3097 
Q 1472 3097 1187 3025 
Q 903 2953 641 2809 
L 641 3341 
Q 956 3463 1253 3523 
Q 1550 3584 1831 3584 
Q 2591 3584 2966 3190 
Q 3341 2797 3341 1997 
z
" transform="scale(0.015625)"/>
       <path id="DejaVuSans-6c" d="M 603 4863 
L 1178 4863 
L 1178 0 
L 603 0 
L 603 4863 
z
" transform="scale(0.015625)"/>
       <path id="DejaVuSans-20" transform="scale(0.015625)"/>
       <path id="DejaVuSans-45" d="M 628 4666 
L 3578 4666 
L 3578 4134 
L 1259 4134 
L 1259 2753 
L 3481 2753 
L 3481 2222 
L 1259 2222 
L 1259 531 
L 3634 531 
L 3634 0 
L 628 0 
L 628 4666 
z
" transform="scale(0.015625)"/>
       <path id="DejaVuSans-72" d="M 2631 2963 
Q 2534 3019 2420 3045 
Q 2306 3072 2169 3072 
Q 1681 3072 1420 2755 
Q 1159 2438 1159 1844 
L 1159 0 
L 581 0 
L 581 3500 
L 1159 3500 
L 1159 2956 
Q 1341 3275 1631 3429 
Q 1922 3584 2338 3584 
Q 2397 3584 2469 3576 
Q 2541 3569 2628 3553 
L 2631 2963 
z
" transform="scale(0.015625)"/>
       <path id="DejaVuSans-6f" d="M 1959 3097 
Q 1497 3097 1228 2736 
Q 959 2375 959 1747 
Q 959 1119 1226 758 
Q 1494 397 1959 397 
Q 2419 397 2687 759 
Q 2956 1122 2956 1747 
Q 2956 2369 2687 2733 
Q 2419 3097 1959 3097 
z
M 1959 3584 
Q 2709 3584 3137 3096 
Q 3566 2609 3566 1747 
Q 3566 888 3137 398 
Q 2709 -91 1959 -91 
Q 1206 -91 779 398 
Q 353 888 353 1747 
Q 353 2609 779 3096 
Q 1206 3584 1959 3584 
z
" transform="scale(0.015625)"/>
      </defs>
      <use xlink:href="#DejaVuSans-50"/>
      <use xlink:href="#DejaVuSans-68" x="60.302734"/>
      <use xlink:href="#DejaVuSans-79" x="123.681641"/>
      <use xlink:href="#DejaVuSans-73" x="182.861328"/>
      <use xlink:href="#DejaVuSans-69" x="234.960938"/>
      <use xlink:href="#DejaVuSans-63" x="262.744141"/>
      <use xlink:href="#DejaVuSans-61" x="317.724609"/>
      <use xlink:href="#DejaVuSans-6c" x="379.003906"/>
      <use xlink:href="#DejaVuSans-20" x="406.787109"/>
      <use xlink:href="#DejaVuSans-45" x="438.574219"/>
      <use xlink:href="#DejaVuSans-72" x="501.757812"/>
      <use xlink:href="#DejaVuSans-72" x="541.121094"/>
      <use xlink:href="#DejaVuSans-6f" x="579.984375"/>
      <use xlink:href="#DejaVuSans-72" x="641.166016"/>
     </g>
    </g>
   </g>
   <g id="matplotlib.axis_2">
    <g id="ytick_1">
     <g id="line2d_13">
      <path d="M 61.410938 297.54825 
L 418.530938 297.54825 
" clip-path="url(#p37e3121db0)" style="fill: none; stroke: #b0b0b0; stroke-width: 0.8; stroke-linecap: square"/>
     </g>
     <g id="line2d_14">
      <defs>
       <path id="m6f3f5b6aff" d="M 0 0 
L -3.5 0 
" style="stroke: #000000; stroke-width: 0.8"/>
      </defs>
      <g>
       <use xlink:href="#m6f3f5b6aff" x="61.410938" y="297.54825" style="stroke: #000000; stroke-width: 0.8"/>
      </g>
     </g>
     <g id="text_8">
      <!-- 0.0 -->
      <g transform="translate(30.55625 303.247078) scale(0.15 -0.15)">
       <use xlink:href="#DejaVuSans-30"/>
       <use xlink:href="#DejaVuSans-2e" x="63.623047"/>
       <use xlink:href="#DejaVuSans-30" x="95.410156"/>
      </g>
     </g>
    </g>
    <g id="ytick_2">
     <g id="line2d_15">
      <path d="M 61.410938 244.32585 
L 418.530938 244.32585 
" clip-path="url(#p37e3121db0)" style="fill: none; stroke: #b0b0b0; stroke-width: 0.8; stroke-linecap: square"/>
     </g>
     <g id="line2d_16">
      <g>
       <use xlink:href="#m6f3f5b6aff" x="61.410938" y="244.32585" style="stroke: #000000; stroke-width: 0.8"/>
      </g>
     </g>
     <g id="text_9">
      <!-- 0.2 -->
      <g transform="translate(30.55625 250.024678) scale(0.15 -0.15)">
       <use xlink:href="#DejaVuSans-30"/>
       <use xlink:href="#DejaVuSans-2e" x="63.623047"/>
       <use xlink:href="#DejaVuSans-32" x="95.410156"/>
      </g>
     </g>
    </g>
    <g id="ytick_3">
     <g id="line2d_17">
      <path d="M 61.410938 191.10345 
L 418.530938 191.10345 
" clip-path="url(#p37e3121db0)" style="fill: none; stroke: #b0b0b0; stroke-width: 0.8; stroke-linecap: square"/>
     </g>
     <g id="line2d_18">
      <g>
       <use xlink:href="#m6f3f5b6aff" x="61.410938" y="191.10345" style="stroke: #000000; stroke-width: 0.8"/>
      </g>
     </g>
     <g id="text_10">
      <!-- 0.4 -->
      <g transform="translate(30.55625 196.802278) scale(0.15 -0.15)">
       <use xlink:href="#DejaVuSans-30"/>
       <use xlink:href="#DejaVuSans-2e" x="63.623047"/>
       <use xlink:href="#DejaVuSans-34" x="95.410156"/>
      </g>
     </g>
    </g>
    <g id="ytick_4">
     <g id="line2d_19">
      <path d="M 61.410938 137.88105 
L 418.530938 137.88105 
" clip-path="url(#p37e3121db0)" style="fill: none; stroke: #b0b0b0; stroke-width: 0.8; stroke-linecap: square"/>
     </g>
     <g id="line2d_20">
      <g>
       <use xlink:href="#m6f3f5b6aff" x="61.410938" y="137.88105" style="stroke: #000000; stroke-width: 0.8"/>
      </g>
     </g>
     <g id="text_11">
      <!-- 0.6 -->
      <g transform="translate(30.55625 143.579878) scale(0.15 -0.15)">
       <use xlink:href="#DejaVuSans-30"/>
       <use xlink:href="#DejaVuSans-2e" x="63.623047"/>
       <use xlink:href="#DejaVuSans-36" x="95.410156"/>
      </g>
     </g>
    </g>
    <g id="ytick_5">
     <g id="line2d_21">
      <path d="M 61.410938 84.65865 
L 418.530938 84.65865 
" clip-path="url(#p37e3121db0)" style="fill: none; stroke: #b0b0b0; stroke-width: 0.8; stroke-linecap: square"/>
     </g>
     <g id="line2d_22">
      <g>
       <use xlink:href="#m6f3f5b6aff" x="61.410938" y="84.65865" style="stroke: #000000; stroke-width: 0.8"/>
      </g>
     </g>
     <g id="text_12">
      <!-- 0.8 -->
      <g transform="translate(30.55625 90.357478) scale(0.15 -0.15)">
       <use xlink:href="#DejaVuSans-30"/>
       <use xlink:href="#DejaVuSans-2e" x="63.623047"/>
       <use xlink:href="#DejaVuSans-38" x="95.410156"/>
      </g>
     </g>
    </g>
    <g id="ytick_6">
     <g id="line2d_23">
      <path d="M 61.410938 31.43625 
L 418.530938 31.43625 
" clip-path="url(#p37e3121db0)" style="fill: none; stroke: #b0b0b0; stroke-width: 0.8; stroke-linecap: square"/>
     </g>
     <g id="line2d_24">
      <g>
       <use xlink:href="#m6f3f5b6aff" x="61.410938" y="31.43625" style="stroke: #000000; stroke-width: 0.8"/>
      </g>
     </g>
     <g id="text_13">
      <!-- 1.0 -->
      <g transform="translate(30.55625 37.135078) scale(0.15 -0.15)">
       <use xlink:href="#DejaVuSans-31"/>
       <use xlink:href="#DejaVuSans-2e" x="63.623047"/>
       <use xlink:href="#DejaVuSans-30" x="95.410156"/>
      </g>
     </g>
    </g>
    <g id="text_14">
     <!-- Logical Error -->
     <g transform="translate(22.396875 227.087562) rotate(-90) scale(0.2 -0.2)">
      <defs>
       <path id="DejaVuSans-4c" d="M 628 4666 
L 1259 4666 
L 1259 531 
L 3531 531 
L 3531 0 
L 628 0 
L 628 4666 
z
" transform="scale(0.015625)"/>
       <path id="DejaVuSans-67" d="M 2906 1791 
Q 2906 2416 2648 2759 
Q 2391 3103 1925 3103 
Q 1463 3103 1205 2759 
Q 947 2416 947 1791 
Q 947 1169 1205 825 
Q 1463 481 1925 481 
Q 2391 481 2648 825 
Q 2906 1169 2906 1791 
z
M 3481 434 
Q 3481 -459 3084 -895 
Q 2688 -1331 1869 -1331 
Q 1566 -1331 1297 -1286 
Q 1028 -1241 775 -1147 
L 775 -588 
Q 1028 -725 1275 -790 
Q 1522 -856 1778 -856 
Q 2344 -856 2625 -561 
Q 2906 -266 2906 331 
L 2906 616 
Q 2728 306 2450 153 
Q 2172 0 1784 0 
Q 1141 0 747 490 
Q 353 981 353 1791 
Q 353 2603 747 3093 
Q 1141 3584 1784 3584 
Q 2172 3584 2450 3431 
Q 2728 3278 2906 2969 
L 2906 3500 
L 3481 3500 
L 3481 434 
z
" transform="scale(0.015625)"/>
      </defs>
      <use xlink:href="#DejaVuSans-4c"/>
      <use xlink:href="#DejaVuSans-6f" x="53.962891"/>
      <use xlink:href="#DejaVuSans-67" x="115.144531"/>
      <use xlink:href="#DejaVuSans-69" x="178.621094"/>
      <use xlink:href="#DejaVuSans-63" x="206.404297"/>
      <use xlink:href="#DejaVuSans-61" x="261.384766"/>
      <use xlink:href="#DejaVuSans-6c" x="322.664062"/>
      <use xlink:href="#DejaVuSans-20" x="350.447266"/>
      <use xlink:href="#DejaVuSans-45" x="382.234375"/>
      <use xlink:href="#DejaVuSans-72" x="445.417969"/>
      <use xlink:href="#DejaVuSans-72" x="484.78125"/>
      <use xlink:href="#DejaVuSans-6f" x="523.644531"/>
      <use xlink:href="#DejaVuSans-72" x="584.826172"/>
     </g>
    </g>
   </g>
   <g id="line2d_25">
    <path d="M 61.410938 297.54825 
L 63.553658 297.50667 
L 64.267898 297.34035 
L 66.410618 297.21561 
L 67.839098 296.63349 
L 68.553338 295.88505 
L 69.267578 296.30085 
L 69.981818 295.92663 
L 70.696058 296.17611 
L 71.410298 295.34451 
L 72.124538 296.17611 
L 73.553018 295.01187 
L 74.267258 294.92871 
L 74.981498 293.84763 
L 75.695738 293.76447 
L 77.124218 293.76447 
L 77.838458 293.30709 
L 78.552698 292.30917 
L 79.266938 291.68547 
L 79.981178 291.26967 
L 80.695418 290.02227 
L 81.409658 291.35283 
L 82.123898 289.44015 
L 82.838138 289.23225 
L 83.552378 289.23225 
L 84.266618 288.35907 
L 84.980858 288.40065 
L 85.695098 286.90377 
L 86.409338 287.19483 
L 87.123578 285.19899 
L 87.837818 285.82269 
L 88.552058 284.28423 
L 89.266298 284.86635 
L 89.980538 283.28631 
L 90.694778 283.66053 
L 91.409018 281.66469 
L 92.123258 282.32997 
L 92.837498 280.91625 
L 93.551738 280.74993 
L 94.265978 279.50253 
L 94.980218 279.25305 
L 96.408698 276.88299 
L 97.122938 276.59193 
L 97.837178 275.67717 
L 98.551418 276.96615 
L 99.265658 273.88923 
L 99.979898 272.43393 
L 100.694138 271.89339 
L 101.408378 272.51709 
L 102.122618 270.89547 
L 102.836858 270.31335 
L 103.551098 270.02229 
L 104.265338 268.06803 
L 104.979578 268.73331 
L 106.408058 266.15535 
L 107.122298 264.32583 
L 107.836538 264.40899 
L 108.550778 264.03477 
L 109.265018 259.37781 
L 109.979258 260.58363 
L 110.693498 261.45681 
L 111.407738 261.37365 
L 112.121978 258.46305 
L 112.836218 259.25307 
L 113.550458 258.04725 
L 114.264698 255.55245 
L 114.978938 257.63145 
L 115.693178 253.68135 
L 116.407418 252.55869 
L 117.121658 249.52335 
L 117.835898 249.93915 
L 118.550138 250.72917 
L 119.264378 247.98489 
L 119.978618 248.10963 
L 120.692858 247.27803 
L 121.407098 244.86639 
L 122.121338 247.48593 
L 122.835578 242.16369 
L 123.549818 240.91629 
L 124.264058 243.45267 
L 124.978298 240.08469 
L 125.692538 240.54207 
L 126.406778 239.71047 
L 127.121018 237.83937 
L 127.835258 238.29675 
L 128.549498 233.80611 
L 129.263738 236.79987 
L 129.977978 233.01609 
L 130.692218 233.05767 
L 132.120698 233.51505 
L 132.834938 231.89343 
L 133.549178 232.60029 
L 134.263418 229.81443 
L 134.977658 228.06807 
L 135.691898 225.86433 
L 136.406138 226.19697 
L 137.120378 226.28013 
L 137.834618 223.61901 
L 138.548858 224.07639 
L 139.263098 221.33211 
L 140.691578 219.54417 
L 141.405818 219.50259 
L 142.120058 219.71049 
L 142.834298 217.46517 
L 143.548538 217.58991 
L 144.262778 213.01611 
L 144.977018 212.97453 
L 145.691258 214.38825 
L 146.405498 212.47557 
L 147.119738 215.46933 
L 147.833978 211.51923 
L 149.262458 206.94543 
L 149.976698 208.65021 
L 150.690938 205.90593 
L 151.405178 205.32381 
L 152.119418 205.44855 
L 152.833658 207.69387 
L 153.547898 203.24481 
L 154.262138 202.82901 
L 154.976378 204.28431 
L 155.690618 202.91217 
L 156.404858 200.70843 
L 157.119098 202.37163 
L 157.833338 200.00157 
L 158.547578 200.79159 
L 159.261818 198.79575 
L 159.976058 198.75417 
L 160.690298 195.84357 
L 161.404538 194.55459 
L 162.118778 196.67517 
L 162.833018 192.14295 
L 163.547258 194.42985 
L 164.261498 192.60033 
L 164.975738 191.39451 
L 165.689978 192.10137 
L 166.404218 189.14919 
L 167.118458 189.19077 
L 167.832698 189.06603 
L 168.546938 190.18869 
L 169.975418 186.90387 
L 170.689658 188.27601 
L 171.403898 183.20325 
L 172.118138 183.45273 
L 172.832378 184.94961 
L 173.546618 183.95169 
L 174.260858 181.95585 
L 174.975098 186.19701 
L 175.689338 183.91011 
L 176.403578 179.50263 
L 177.117818 181.24899 
L 177.832058 181.04109 
L 178.546298 181.08267 
L 179.260538 179.58579 
L 179.974778 177.63153 
L 180.689018 180.16791 
L 181.403258 180.25107 
L 182.117498 177.04941 
L 182.831738 176.67519 
L 183.545978 177.71469 
L 184.260218 174.59619 
L 184.974458 175.84359 
L 185.688698 175.55253 
L 186.402938 176.63361 
L 187.117178 170.52135 
L 187.831418 172.64193 
L 188.545658 176.75835 
L 189.259898 175.09515 
L 189.974138 174.76251 
L 190.688378 173.09931 
L 191.402618 175.17831 
L 192.116858 172.47561 
L 193.545338 172.60035 
L 194.259578 169.89765 
L 194.973818 169.81449 
L 195.688058 170.39661 
L 196.402298 170.23029 
L 197.116538 169.19079 
L 197.830778 168.73341 
L 198.545018 169.35711 
L 199.259258 166.86231 
L 199.973498 169.27395 
L 200.687738 169.56501 
L 201.401978 167.61075 
L 202.116218 167.11179 
L 202.830458 167.94339 
L 203.544698 168.98289 
L 204.258938 168.48393 
L 204.973178 168.23445 
L 205.687418 169.44027 
L 206.401658 169.23237 
L 207.115898 167.44443 
L 207.830138 168.73341 
L 209.258618 164.24277 
L 209.972858 168.06813 
L 211.401338 162.57957 
L 212.115578 166.36335 
L 212.829818 164.07645 
L 213.544058 165.65649 
L 214.258298 163.49433 
L 214.972538 163.41117 
L 215.686778 165.44859 
L 216.401018 165.49017 
L 217.115258 163.45275 
L 217.829498 167.19495 
L 218.543738 168.60867 
L 219.257978 165.28227 
L 219.972218 166.90389 
L 220.686458 162.78747 
L 222.829178 165.49017 
L 223.543418 165.90597 
L 224.257658 167.90181 
L 224.971898 163.45275 
L 225.686138 162.53799 
L 226.400378 167.48601 
L 227.114618 163.57749 
L 227.828858 163.99329 
L 228.543098 165.11595 
L 229.257338 168.10971 
L 229.971578 164.15961 
L 230.685818 165.19911 
L 231.400058 165.90597 
L 232.114298 164.49225 
L 232.828538 161.87271 
L 233.542778 164.61699 
L 234.257018 164.94963 
L 234.971258 162.24693 
L 235.685498 160.45899 
L 236.399738 163.24485 
L 237.113978 161.58165 
L 237.828218 164.94963 
L 238.542458 164.32593 
L 239.256698 165.65649 
L 239.970938 160.70847 
L 240.685178 163.78539 
L 241.399418 165.07437 
L 242.113658 163.28643 
L 242.827898 162.24693 
L 243.542138 162.62115 
L 244.256378 164.74173 
L 244.970618 165.36543 
L 245.684858 164.74173 
L 246.399098 166.44651 
L 247.113338 163.32801 
L 247.827578 166.11387 
L 248.541818 166.19703 
L 249.256058 162.95379 
L 249.970298 162.45483 
L 250.684538 165.53175 
L 251.398778 164.70015 
L 252.113018 166.61283 
L 252.827258 165.19911 
L 253.541498 163.36959 
L 254.255738 167.02863 
L 254.969978 161.49849 
L 256.398458 166.15545 
L 257.112698 162.16377 
L 257.826938 161.08269 
L 258.541178 162.03903 
L 259.255418 163.74381 
L 259.969658 164.86647 
L 260.683898 165.11595 
L 261.398138 163.91013 
L 262.112378 161.87271 
L 262.826617 161.66481 
L 263.540858 164.28435 
L 264.255098 166.32177 
L 264.969337 162.74589 
L 265.683578 164.94963 
L 266.397818 161.95587 
L 267.112058 162.70431 
L 267.826298 157.38207 
L 268.540538 162.33009 
L 269.254778 163.95171 
L 269.969018 163.03695 
L 270.683258 163.74381 
L 271.397498 162.66273 
L 272.111738 161.08269 
L 272.825978 163.20327 
L 273.540218 161.78955 
L 274.254458 159.79371 
L 274.968698 160.95795 
L 275.682938 165.03279 
L 276.397178 160.75005 
L 277.111418 162.12219 
L 277.825658 164.49225 
L 278.539898 160.95795 
L 279.254138 161.45691 
L 279.968378 161.49849 
L 280.682618 160.79163 
L 281.396858 155.71887 
L 282.111098 158.29683 
L 282.825338 157.46523 
L 283.539578 160.08477 
L 284.253818 156.88311 
L 284.968058 158.62947 
L 285.682298 158.54631 
L 286.396538 158.79579 
L 287.110778 158.25525 
L 288.539258 155.63571 
L 289.253498 156.42573 
L 289.967738 155.34465 
L 290.681978 154.55463 
L 291.396218 153.30723 
L 292.110458 154.59621 
L 292.824698 151.89351 
L 293.538938 152.55879 
L 294.253178 153.47355 
L 294.967418 151.64403 
L 295.681658 152.89143 
L 296.395898 154.38831 
L 297.824378 149.60661 
L 298.538618 150.93717 
L 299.252858 146.65443 
L 299.967098 151.26981 
L 300.681338 148.85817 
L 301.395578 149.52345 
L 302.824058 144.90807 
L 303.538298 145.82283 
L 304.252538 145.53177 
L 304.966778 145.49019 
L 305.681018 144.45069 
L 306.395258 143.61909 
L 307.109498 141.54009 
L 307.823738 142.45485 
L 308.537978 142.03905 
L 309.252218 140.20953 
L 309.966458 142.49643 
L 310.680698 140.58375 
L 311.394938 142.95381 
L 312.109178 138.29685 
L 312.823418 140.29269 
L 313.537658 137.54841 
L 314.251898 137.46525 
L 314.966138 138.46317 
L 315.680378 138.87897 
L 316.394618 133.68147 
L 317.108858 131.89353 
L 317.823098 133.63989 
L 318.537338 132.18459 
L 319.251577 132.22617 
L 319.965818 133.09935 
L 320.680058 127.48605 
L 321.394298 130.31349 
L 322.822778 127.44447 
L 323.537018 129.85611 
L 324.251258 126.19707 
L 324.965498 127.86027 
L 325.679738 128.19291 
L 326.393978 121.83117 
L 327.108218 122.78751 
L 327.822458 124.61703 
L 328.536698 122.53803 
L 329.250938 120.99957 
L 329.965178 118.67109 
L 330.679418 121.45695 
L 331.393658 119.08689 
L 332.107898 122.99541 
L 332.822138 115.76049 
L 333.536378 114.34677 
L 334.250618 115.96839 
L 334.964858 113.30727 
L 335.679098 111.76881 
L 336.393338 115.13679 
L 337.107578 109.56507 
L 337.821818 108.73347 
L 338.536058 111.89355 
L 339.250298 111.51933 
L 339.964538 105.49023 
L 340.678778 103.28649 
L 341.393018 106.61289 
L 342.107258 105.65655 
L 342.821498 105.24075 
L 343.535738 103.07859 
L 344.249978 102.20541 
L 344.964218 104.57547 
L 345.678458 102.08067 
L 347.106938 95.84367 
L 347.821178 98.67111 
L 348.535418 93.84783 
L 349.249658 96.25947 
L 349.963898 96.09315 
L 350.678138 92.76675 
L 351.392378 94.47153 
L 352.106618 90.64617 
L 352.820858 89.19087 
L 353.535098 88.65033 
L 354.249338 90.31353 
L 354.963578 89.23245 
L 355.677818 84.99129 
L 356.392058 85.49025 
L 357.106298 86.15553 
L 357.820538 80.29275 
L 358.534778 84.20127 
L 360.677498 77.67321 
L 361.391738 77.92269 
L 362.105978 76.84161 
L 362.820218 77.42373 
L 363.534458 77.67321 
L 364.962938 74.30523 
L 365.677178 74.67945 
L 366.391418 72.39255 
L 367.105658 72.64203 
L 367.819898 71.72727 
L 368.534138 70.60461 
L 369.248378 68.06823 
L 369.962618 67.73559 
L 370.676858 67.81875 
L 371.391098 66.94557 
L 372.105338 66.57135 
L 372.819578 64.28445 
L 373.533818 61.49859 
L 374.248058 61.78965 
L 374.962298 61.24911 
L 375.676538 61.12437 
L 377.105018 57.34059 
L 377.819258 58.17219 
L 378.533498 59.83539 
L 379.247738 57.17427 
L 379.961978 55.38633 
L 380.676218 54.30525 
L 381.390458 54.51315 
L 382.104698 54.05577 
L 382.818938 51.68571 
L 383.533178 52.60047 
L 384.247418 50.72937 
L 384.961658 50.23041 
L 385.675898 50.18883 
L 386.390138 47.81877 
L 387.104378 49.14933 
L 387.818618 47.19507 
L 388.532858 46.11399 
L 389.247098 45.65661 
L 389.961338 45.82293 
L 390.675578 44.15973 
L 391.389818 43.41129 
L 392.818298 43.32813 
L 393.532538 42.82917 
L 394.246778 43.36971 
L 394.961018 41.58177 
L 395.675258 40.83333 
L 396.389498 41.04123 
L 397.103738 39.37803 
L 397.817978 39.79383 
L 398.532218 38.79591 
L 399.246458 37.50693 
L 399.960698 38.08905 
L 400.674938 36.38427 
L 401.389178 36.92481 
L 402.103418 35.76057 
L 402.817658 36.17637 
L 403.531898 36.17637 
L 404.246138 34.67949 
L 404.960378 34.47159 
L 406.388858 33.63999 
L 407.103098 34.34685 
L 407.817338 33.55683 
L 408.531578 33.59841 
L 409.245818 33.14103 
L 409.960058 32.30943 
L 410.674298 32.47575 
L 411.388538 32.22627 
L 412.102778 32.35101 
L 412.817018 31.76889 
L 413.531258 31.97679 
L 414.245498 31.68573 
L 414.959738 31.60257 
L 415.673978 31.68573 
L 416.388218 31.51941 
L 417.102458 31.56099 
L 417.816698 31.43625 
L 418.530938 31.43625 
L 418.530938 31.43625 
" clip-path="url(#p37e3121db0)" style="fill: none; stroke: #1f77b4; stroke-opacity: 0.3; stroke-width: 1.5; stroke-linecap: square"/>
   </g>
   <g id="line2d_26">
    <path d="M 61.410938 297.54825 
L 63.553658 297.459405 
L 65.696378 297.20018 
L 68.553338 296.625856 
L 72.124538 295.444887 
L 75.695738 293.83756 
L 78.552698 292.284969 
L 79.981178 291.361601 
L 80.695418 290.949699 
L 82.838138 289.34757 
L 84.266618 288.406984 
L 85.695098 287.22569 
L 88.552058 284.833703 
L 89.980538 283.599135 
L 91.409018 282.183141 
L 94.980218 278.715271 
L 96.408698 277.151798 
L 97.837178 275.654918 
L 98.551418 274.783687 
L 99.265658 274.107525 
L 103.551098 269.12361 
L 104.265338 268.37988 
L 104.979578 267.254621 
L 106.408058 265.737601 
L 108.550778 263.04221 
L 115.693178 253.703277 
L 116.407418 252.741252 
L 117.121658 252.072236 
L 118.550138 250.002982 
L 136.406138 225.887719 
L 137.120378 225.060179 
L 138.548858 222.885513 
L 142.120058 218.532282 
L 142.834298 217.226572 
L 143.548538 216.653873 
L 144.262778 215.502302 
L 144.977018 214.563828 
L 145.691258 213.912679 
L 148.548218 210.180874 
L 149.262458 209.492855 
L 149.976698 208.428179 
L 150.690938 207.743734 
L 152.833658 205.250233 
L 153.547898 204.523882 
L 154.976378 202.658954 
L 155.690618 202.051984 
L 156.404858 201.021255 
L 157.119098 200.244228 
L 157.833338 199.644567 
L 158.547578 198.695211 
L 159.261818 198.130957 
L 159.976058 197.355393 
L 160.690298 196.330998 
L 161.404538 195.905615 
L 162.118778 195.28695 
L 162.833018 194.13408 
L 163.547258 193.676537 
L 164.261498 192.786465 
L 165.689978 191.508855 
L 167.832698 189.612904 
L 168.546938 188.850009 
L 172.118138 185.785758 
L 172.832378 185.080197 
L 173.546618 184.649617 
L 174.975098 183.379965 
L 175.689338 182.65134 
L 177.117818 181.776211 
L 178.546298 180.616032 
L 182.831738 177.728171 
L 183.545978 177.39748 
L 184.260218 176.685747 
L 184.974458 176.465828 
L 186.402938 175.519883 
L 187.117178 175.214855 
L 187.831418 175.061691 
L 189.259898 173.8739 
L 189.974138 173.397192 
L 191.402618 172.886212 
L 192.831098 172.188123 
L 193.545338 172.057861 
L 194.259578 171.619647 
L 194.973818 170.942835 
L 195.688058 170.945758 
L 197.116538 170.319947 
L 197.830778 170.009721 
L 198.545018 169.847299 
L 199.973498 169.165777 
L 200.687738 169.139952 
L 202.830458 168.54695 
L 203.544698 168.095904 
L 204.973178 167.867539 
L 205.687418 167.379624 
L 207.830138 167.175459 
L 208.544378 166.7007 
L 209.258618 166.732535 
L 209.972858 166.432542 
L 210.687098 166.470711 
L 211.401338 166.265247 
L 212.115578 166.269308 
L 212.829818 165.967528 
L 213.544058 165.94219 
L 214.258298 165.664611 
L 214.972538 165.736077 
L 215.686778 165.599317 
L 216.401018 165.650968 
L 217.115258 165.428125 
L 221.400698 164.857212 
L 223.543418 164.918607 
L 224.257658 164.846655 
L 224.971898 164.608219 
L 225.686138 165.006965 
L 226.400378 164.625436 
L 227.114618 164.581257 
L 228.543098 164.809947 
L 229.257338 164.308713 
L 231.400058 164.758947 
L 232.828538 164.297831 
L 234.971258 164.597987 
L 235.685498 164.43589 
L 236.399738 164.583694 
L 237.828218 164.48283 
L 240.685178 164.442711 
L 242.113658 164.48624 
L 243.542138 164.370758 
L 244.970618 164.603184 
L 245.684858 164.449208 
L 247.113338 164.402593 
L 247.827578 164.4916 
L 248.541818 164.35744 
L 249.970298 164.397233 
L 250.684538 164.275417 
L 251.398778 164.391873 
L 252.827258 164.309038 
L 254.969978 164.273143 
L 255.684218 164.194856 
L 256.398458 164.236273 
L 257.112698 163.965191 
L 257.826938 164.058584 
L 258.541178 163.908993 
L 259.255418 164.018141 
L 260.683898 163.766549 
L 261.398138 163.997188 
L 262.826617 163.547442 
L 263.540858 163.609812 
L 264.255098 163.21935 
L 264.969337 163.391517 
L 265.683578 163.158442 
L 266.397818 163.132129 
L 267.826298 162.762457 
L 268.540538 162.797215 
L 270.683258 162.22549 
L 271.397498 162.185372 
L 272.111738 161.892525 
L 272.825978 161.830643 
L 273.540218 161.500764 
L 274.254458 161.469904 
L 274.968698 161.038349 
L 275.682938 161.1397 
L 276.397178 160.966396 
L 277.825658 160.252877 
L 278.539898 160.315896 
L 279.254138 159.777955 
L 279.968378 159.676766 
L 280.682618 159.328046 
L 281.396858 159.281919 
L 282.111098 158.864657 
L 283.539578 158.357251 
L 284.968058 157.671506 
L 285.682298 157.558785 
L 286.396538 157.219811 
L 287.110778 156.482578 
L 287.825018 156.561352 
L 290.681978 154.942006 
L 291.396218 154.703571 
L 292.110458 153.953019 
L 293.538938 153.445451 
L 294.253178 152.810381 
L 295.681658 152.108232 
L 297.110138 151.404133 
L 297.824378 150.892179 
L 299.252858 149.691881 
L 300.681338 148.924925 
L 301.395578 148.16268 
L 302.109818 147.842221 
L 302.824058 147.371523 
L 306.395258 144.36753 
L 307.823738 143.320071 
L 309.252218 142.092 
L 309.966458 141.6239 
L 311.394938 139.92383 
L 312.109178 139.41951 
L 313.537658 138.055978 
L 314.966138 136.751568 
L 315.680378 136.301335 
L 316.394618 135.351004 
L 319.251577 132.489943 
L 319.965818 131.862507 
L 322.108538 129.39337 
L 324.965498 126.355919 
L 328.536698 122.064083 
L 329.965178 120.595952 
L 331.393658 118.546837 
L 332.107898 117.933695 
L 332.822138 116.845793 
L 333.536378 116.037257 
L 334.250618 114.950167 
L 336.393338 112.501333 
L 337.107578 111.449651 
L 337.821818 110.694714 
L 340.678778 106.939845 
L 341.393018 106.088755 
L 342.107258 104.983149 
L 342.821498 104.238769 
L 343.535738 103.072256 
L 344.964218 101.308679 
L 347.106938 98.304361 
L 347.821178 97.541141 
L 353.535098 89.58052 
L 356.392058 85.91206 
L 359.249018 81.91502 
L 360.677498 80.033525 
L 362.105978 78.057663 
L 362.820218 77.215668 
L 363.534458 76.121269 
L 364.248698 75.249388 
L 365.677178 73.299839 
L 367.819898 70.555396 
L 369.248378 68.675688 
L 369.962618 67.929359 
L 370.676858 66.837884 
L 371.391098 66.076288 
L 374.248058 62.401168 
L 376.390778 59.929757 
L 377.819258 58.217831 
L 380.676218 54.946816 
L 385.675898 49.560907 
L 389.961338 45.400146 
L 394.961018 41.128126 
L 400.674938 37.102337 
L 404.960378 34.789612 
L 409.245818 33.007519 
L 412.817018 32.041434 
L 415.673978 31.589414 
L 418.530938 31.43625 
L 418.530938 31.43625 
" clip-path="url(#p37e3121db0)" style="fill: none; stroke: #2ca02c; stroke-width: 1.5; stroke-linecap: square"/>
   </g>
   <g id="line2d_27">
    <path d="M 61.410938 297.54825 
L 62.839418 297.436015 
L 64.267898 297.10994 
L 65.696378 296.585385 
L 67.124858 295.876949 
L 69.267578 294.499659 
L 71.410298 292.783555 
L 73.553018 290.769184 
L 75.695738 288.493965 
L 78.552698 285.113775 
L 81.409658 281.405052 
L 84.980858 276.407363 
L 89.266298 270.027186 
L 95.694458 260.009852 
L 109.265018 238.759471 
L 114.978938 230.264917 
L 119.978618 223.199691 
L 124.978298 216.531552 
L 129.263738 211.15811 
L 133.549178 206.114648 
L 137.834618 201.408163 
L 142.120058 197.040605 
L 146.405498 193.009815 
L 150.690938 189.310312 
L 154.976378 185.933962 
L 159.261818 182.870526 
L 163.547258 180.108122 
L 167.832698 177.633598 
L 172.118138 175.432832 
L 176.403578 173.490974 
L 180.689018 171.79264 
L 184.974458 170.322058 
L 189.259898 169.063182 
L 194.259578 167.8404 
L 199.259258 166.857679 
L 204.258938 166.088888 
L 209.972858 165.438597 
L 216.401018 164.951286 
L 223.543418 164.647664 
L 232.828538 164.505023 
L 257.826938 164.292666 
L 264.969337 163.944593 
L 271.397498 163.404174 
L 277.111418 162.69626 
L 282.111098 161.869018 
L 287.110778 160.82037 
L 292.110458 159.524216 
L 296.395898 158.196568 
L 300.681338 156.65184 
L 304.966778 154.874067 
L 309.252218 152.847593 
L 313.537658 150.557192 
L 317.823098 147.988235 
L 322.108538 145.126893 
L 326.393978 141.9604 
L 330.679418 138.477376 
L 334.964858 134.668229 
L 339.250298 130.525643 
L 343.535738 126.045164 
L 347.821178 121.225908 
L 352.106618 116.071396 
L 356.392058 110.590543 
L 361.391738 103.804816 
L 366.391418 96.634649 
L 372.105338 88.042824 
L 379.961978 75.759387 
L 391.389818 57.871647 
L 395.675258 51.550461 
L 399.246458 46.62522 
L 402.103418 42.99212 
L 404.960378 39.705333 
L 407.103098 37.51309 
L 409.245818 35.593833 
L 411.388538 33.986002 
L 413.531258 32.731231 
L 414.959738 32.112957 
L 416.388218 31.685771 
L 417.816698 31.464647 
L 418.530938 31.43625 
L 418.530938 31.43625 
" clip-path="url(#p37e3121db0)" style="fill: none; stroke-dasharray: 5.55,2.4; stroke-dashoffset: 0; stroke: #9467bd; stroke-width: 1.5"/>
   </g>
   <g id="line2d_28">
    <path d="M 61.410938 297.54825 
L 63.553658 297.38193 
L 64.267898 297.25719 
L 64.982138 296.88297 
L 65.696378 296.92455 
L 66.410618 295.76031 
L 67.124858 295.96821 
L 68.553338 295.21977 
L 69.267578 294.59607 
L 69.981818 293.55657 
L 70.696058 293.18235 
L 71.410298 293.26551 
L 72.124538 291.60231 
L 72.838778 291.72705 
L 73.553018 289.89753 
L 74.267258 289.98069 
L 74.981498 289.44015 
L 75.695738 288.44223 
L 76.409978 288.65013 
L 77.838458 285.61479 
L 78.552698 284.86635 
L 79.266938 283.86843 
L 79.981178 283.66053 
L 80.695418 282.74577 
L 81.409658 280.99941 
L 82.123898 280.50045 
L 82.838138 280.95783 
L 84.266618 277.42353 
L 84.980858 275.80191 
L 85.695098 273.59817 
L 86.409338 274.38819 
L 87.837818 272.22603 
L 88.552058 271.35285 
L 89.266298 267.56907 
L 89.980538 269.10753 
L 91.409018 265.15743 
L 92.123258 266.23851 
L 92.837498 265.86429 
L 93.551738 263.36949 
L 94.265978 262.24683 
L 94.980218 260.79153 
L 96.408698 257.54829 
L 97.122938 257.34039 
L 97.837178 256.79985 
L 98.551418 254.26347 
L 99.265658 253.26555 
L 99.979898 253.30713 
L 100.694138 252.01815 
L 101.408378 250.47969 
L 102.122618 251.43603 
L 102.836858 248.94123 
L 103.551098 244.57533 
L 104.265338 246.69591 
L 104.979578 244.57533 
L 105.693818 243.74373 
L 106.408058 243.61899 
L 107.122298 240.16785 
L 107.836538 241.12419 
L 108.550778 241.37367 
L 109.265018 241.33209 
L 109.979258 237.96411 
L 110.693498 237.46515 
L 111.407738 235.55247 
L 112.121978 235.63563 
L 112.836218 233.51505 
L 113.550458 234.47139 
L 114.264698 230.72919 
L 114.978938 229.23231 
L 115.693178 230.10549 
L 117.121658 225.11589 
L 117.835898 225.40695 
L 118.550138 226.77909 
L 119.264378 221.33211 
L 119.978618 221.87265 
L 120.692858 220.25103 
L 121.407098 217.13253 
L 122.121338 218.29677 
L 122.835578 217.88097 
L 123.549818 219.25311 
L 124.264058 218.62941 
L 124.978298 219.16995 
L 125.692538 217.63149 
L 126.406778 217.04937 
L 127.121018 212.97453 
L 127.835258 212.93295 
L 128.549498 212.43399 
L 129.977978 210.06393 
L 130.692218 209.64813 
L 131.406458 209.39865 
L 132.120698 206.90385 
L 132.834938 203.99325 
L 133.549178 205.28223 
L 134.263418 204.82485 
L 134.977658 205.78119 
L 135.691898 202.91217 
L 136.406138 202.99533 
L 137.120378 202.16373 
L 137.834618 199.75209 
L 138.548858 201.66477 
L 139.263098 199.79367 
L 139.977338 199.83525 
L 140.691578 199.62735 
L 141.405818 198.17205 
L 142.120058 198.29679 
L 142.834298 197.54835 
L 143.548538 195.51093 
L 144.262778 194.38827 
L 144.977018 191.43609 
L 145.691258 193.80615 
L 146.405498 193.84773 
L 147.119738 192.35085 
L 147.833978 192.18453 
L 148.548218 191.76873 
L 149.262458 192.14295 
L 149.976698 190.14711 
L 150.690938 191.26977 
L 151.405178 188.48391 
L 152.119418 184.90803 
L 152.833658 188.27601 
L 153.547898 186.48807 
L 154.262138 184.11801 
L 154.976378 187.23651 
L 155.690618 183.49431 
L 156.404858 185.82279 
L 157.119098 183.03693 
L 157.833338 184.94961 
L 159.261818 184.20117 
L 159.976058 179.62737 
L 160.690298 178.83735 
L 161.404538 181.20741 
L 162.118778 180.50055 
L 162.833018 181.49847 
L 163.547258 178.67103 
L 164.261498 178.75419 
L 164.975738 176.50887 
L 165.689978 180.41739 
L 166.404218 174.72093 
L 167.118458 174.22197 
L 167.832698 178.21365 
L 168.546938 177.00783 
L 169.261178 176.79993 
L 169.975418 174.80409 
L 170.689658 177.75627 
L 171.403898 176.42571 
L 172.118138 176.55045 
L 172.832378 174.38829 
L 173.546618 175.80201 
L 174.260858 175.92675 
L 174.975098 172.55877 
L 175.689338 175.05357 
L 176.403578 173.80617 
L 177.117818 173.09931 
L 177.832058 171.60243 
L 178.546298 172.93299 
L 179.260538 169.85607 
L 179.974778 173.34879 
L 180.689018 171.68559 
L 181.403258 173.39037 
L 182.117498 171.26979 
L 182.831738 171.39453 
L 183.545978 169.52343 
L 184.260218 169.93923 
L 184.974458 168.89973 
L 185.688698 168.06813 
L 186.402938 168.69183 
L 187.117178 171.47769 
L 187.831418 169.98081 
L 188.545658 170.68767 
L 189.259898 169.68975 
L 189.974138 169.64817 
L 190.688378 168.65025 
L 191.402618 169.56501 
L 192.116858 169.02447 
L 192.831098 170.02239 
L 193.545338 171.31137 
L 194.259578 165.49017 
L 194.973818 168.06813 
L 195.688058 167.48601 
L 196.402298 166.48809 
L 197.116538 169.81449 
L 197.830778 168.73341 
L 198.545018 167.36127 
L 199.259258 164.90805 
L 199.973498 167.27811 
L 200.687738 167.27811 
L 201.401978 166.36335 
L 202.116218 169.77291 
L 202.830458 169.56501 
L 203.544698 166.57125 
L 204.258938 167.61075 
L 205.687418 165.82281 
L 206.401658 166.32177 
L 207.115898 168.02655 
L 207.830138 168.27603 
L 208.544378 161.49849 
L 209.972858 167.36127 
L 210.687098 167.86023 
L 211.401338 164.99121 
L 212.115578 165.03279 
L 212.829818 168.56709 
L 213.544058 165.94755 
L 214.258298 160.54215 
L 214.972538 164.57541 
L 215.686778 164.94963 
L 216.401018 163.99329 
L 217.115258 166.11387 
L 217.829498 165.86439 
L 218.543738 164.45067 
L 219.257978 167.94339 
L 219.972218 165.69807 
L 220.686458 164.90805 
L 221.400698 164.86647 
L 222.114938 160.54215 
L 222.829178 162.08061 
L 223.543418 164.86647 
L 224.257658 162.70431 
L 224.971898 168.15129 
L 225.686138 163.20327 
L 226.400378 166.40493 
L 227.114618 164.36751 
L 227.828858 164.49225 
L 228.543098 165.44859 
L 229.257338 163.16169 
L 229.971578 163.91013 
L 231.400058 164.94963 
L 232.114298 165.36543 
L 232.828538 165.36543 
L 233.542778 165.61491 
L 234.257018 166.11387 
L 234.971258 166.94547 
L 235.685498 166.82073 
L 236.399738 164.74173 
L 237.113978 167.40285 
L 237.828218 165.73965 
L 238.542458 160.83321 
L 239.256698 163.82697 
L 239.970938 164.36751 
L 240.685178 168.48393 
L 242.113658 161.62323 
L 242.827898 162.33009 
L 243.542138 163.24485 
L 244.256378 166.98705 
L 244.970618 167.27811 
L 245.684858 164.65857 
L 246.399098 164.57541 
L 247.113338 168.52551 
L 247.827578 165.61491 
L 248.541818 165.90597 
L 249.256058 165.61491 
L 249.970298 166.65441 
L 250.684538 165.49017 
L 251.398778 163.41117 
L 252.113018 166.94547 
L 252.827258 164.49225 
L 253.541498 164.49225 
L 254.255738 161.16585 
L 254.969978 165.11595 
L 255.684218 162.91221 
L 256.398458 164.11803 
L 257.112698 162.20535 
L 257.826938 165.98913 
L 258.541178 163.49433 
L 259.255418 164.36751 
L 259.969658 164.99121 
L 260.683898 165.82281 
L 261.398138 164.99121 
L 262.112378 162.62115 
L 262.826617 162.57957 
L 263.540858 164.45067 
L 264.255098 165.90597 
L 264.969337 164.78331 
L 265.683578 164.61699 
L 266.397818 165.73965 
L 267.112058 164.94963 
L 267.826298 163.41117 
L 268.540538 164.11803 
L 269.254778 165.32385 
L 269.969018 165.28227 
L 270.683258 164.03487 
L 271.397498 164.74173 
L 272.111738 162.12219 
L 272.825978 162.37167 
L 273.540218 163.41117 
L 274.254458 165.86439 
L 274.968698 161.83113 
L 275.682938 159.58581 
L 276.397178 166.03071 
L 277.111418 164.32593 
L 277.825658 164.07645 
L 278.539898 166.57125 
L 279.254138 162.08061 
L 279.968378 163.28643 
L 280.682618 163.61907 
L 281.396858 161.37375 
L 282.111098 162.74589 
L 282.825338 161.91429 
L 283.539578 159.66897 
L 284.253818 160.37583 
L 284.968058 162.08061 
L 285.682298 160.58373 
L 286.396538 162.66273 
L 287.110778 161.74797 
L 287.825018 162.16377 
L 288.539258 158.83737 
L 289.253498 161.74797 
L 289.967738 159.46107 
L 290.681978 160.25109 
L 291.396218 160.41741 
L 292.110458 160.37583 
L 292.824698 159.25317 
L 293.538938 160.33425 
L 294.253178 159.54423 
L 295.681658 158.96211 
L 296.395898 160.20951 
L 297.110138 156.30099 
L 297.824378 157.42365 
L 299.252858 154.38831 
L 299.967098 156.96627 
L 300.681338 157.38207 
L 301.395578 155.21991 
L 302.109818 152.55879 
L 302.824058 155.34465 
L 303.538298 155.88519 
L 304.252538 156.96627 
L 304.966778 151.68561 
L 305.681018 156.42573 
L 306.395258 154.80411 
L 307.109498 152.51721 
L 307.823738 154.30515 
L 309.252218 154.67937 
L 309.966458 151.72719 
L 310.680698 150.43821 
L 311.394938 153.84777 
L 312.109178 152.43405 
L 312.823418 150.27189 
L 313.537658 151.81035 
L 314.251898 149.14923 
L 314.966138 151.97667 
L 315.680378 151.18665 
L 316.394618 149.39871 
L 317.108858 148.31763 
L 317.823098 149.27397 
L 318.537338 145.73967 
L 319.251577 147.81867 
L 319.965818 145.11597 
L 320.680058 144.53385 
L 321.394298 144.32595 
L 322.108538 146.65443 
L 322.822778 142.78749 
L 323.537018 145.53177 
L 324.251258 141.41535 
L 324.965498 145.65651 
L 325.679738 143.99331 
L 326.393978 140.41743 
L 327.108218 140.50059 
L 327.822458 140.12637 
L 328.536698 141.74799 
L 329.250938 141.54009 
L 329.965178 139.62741 
L 330.679418 136.79997 
L 331.393658 140.62533 
L 332.107898 134.88729 
L 332.822138 137.21577 
L 333.536378 135.67731 
L 334.250618 137.00787 
L 334.964858 132.51723 
L 335.679098 131.97669 
L 336.393338 135.88521 
L 337.107578 132.64197 
L 337.821818 134.97045 
L 338.536058 130.31349 
L 339.250298 134.59623 
L 339.964538 129.02451 
L 340.678778 127.65237 
L 341.393018 128.69187 
L 342.107258 127.77711 
L 342.821498 125.78127 
L 343.535738 126.90393 
L 344.249978 123.03699 
L 344.964218 125.32389 
L 345.678458 123.41121 
L 346.392698 122.53803 
L 347.106938 121.20747 
L 347.821178 125.49021 
L 348.535418 118.00581 
L 349.249658 122.12223 
L 349.963898 117.92265 
L 350.678138 116.42577 
L 351.392378 117.42369 
L 352.106618 118.13055 
L 352.820858 116.25945 
L 353.535098 116.38419 
L 354.963578 112.01829 
L 355.677818 111.89355 
L 356.392058 107.65239 
L 357.106298 108.35925 
L 357.820538 110.64615 
L 358.534778 107.48607 
L 359.249018 106.73763 
L 359.963258 106.61289 
L 360.677498 102.87069 
L 361.391738 106.69605 
L 362.105978 104.70021 
L 362.820218 105.03285 
L 363.534458 99.71061 
L 364.248698 100.08483 
L 364.962938 97.04949 
L 365.677178 97.29897 
L 366.391418 95.71893 
L 367.105658 97.04949 
L 367.819898 92.89149 
L 368.534138 91.81041 
L 369.248378 92.89149 
L 370.676858 91.43619 
L 371.391098 88.77507 
L 372.105338 87.86031 
L 372.819578 84.11811 
L 373.533818 83.86863 
L 374.248058 83.45283 
L 374.962298 82.33017 
L 375.676538 85.44867 
L 376.390778 80.08485 
L 377.105018 77.21583 
L 377.819258 79.50273 
L 378.533498 79.46115 
L 379.961978 77.50689 
L 380.676218 74.59629 
L 381.390458 74.26365 
L 382.104698 72.18465 
L 382.818938 72.14307 
L 383.533178 69.39879 
L 384.247418 70.72935 
L 384.961658 66.98715 
L 385.675898 65.90607 
L 386.390138 66.19713 
L 387.104378 65.36553 
L 387.818618 63.28653 
L 388.532858 59.87697 
L 389.247098 61.45701 
L 389.961338 60.41751 
L 390.675578 58.38009 
L 392.104058 57.29901 
L 392.818298 56.01003 
L 394.246778 54.18051 
L 394.961018 52.89153 
L 395.675258 51.14517 
L 396.389498 51.31149 
L 397.103738 48.27615 
L 397.817978 49.06617 
L 398.532218 48.06825 
L 399.246458 47.90193 
L 399.960698 44.61711 
L 400.674938 46.65453 
L 401.389178 43.78551 
L 402.103418 43.41129 
L 402.817658 44.11815 
L 403.531898 41.20755 
L 404.246138 40.54227 
L 404.960378 39.50277 
L 405.674618 38.67117 
L 406.388858 38.17221 
L 407.103098 37.46535 
L 407.817338 36.92481 
L 408.531578 35.71899 
L 409.245818 35.55267 
L 409.960058 34.55475 
L 411.388538 33.59841 
L 412.102778 33.68157 
L 412.817018 33.39051 
L 414.245498 32.10153 
L 416.388218 31.60257 
L 418.530938 31.43625 
L 418.530938 31.43625 
" clip-path="url(#p37e3121db0)" style="fill: none; stroke: #ff7f0e; stroke-opacity: 0.3; stroke-width: 1.5; stroke-linecap: square"/>
   </g>
   <g id="line2d_29">
    <path d="M 61.410938 297.54825 
L 62.839418 297.435042 
L 64.267898 297.109386 
L 65.696378 296.593047 
L 67.124858 295.910713 
L 69.267578 294.46532 
L 71.410298 292.795299 
L 74.267258 290.080255 
L 80.695418 282.42255 
L 89.266298 270.058672 
L 89.980538 268.828327 
L 90.694778 267.848111 
L 92.837498 264.509854 
L 93.551738 263.460771 
L 94.980218 261.044746 
L 96.408698 258.959574 
L 98.551418 255.478873 
L 99.265658 254.54446 
L 100.694138 252.011978 
L 101.408378 251.0048 
L 102.836858 248.620284 
L 104.265338 246.488497 
L 108.550778 239.764719 
L 109.979258 237.659569 
L 113.550458 232.615882 
L 114.264698 231.345743 
L 115.693178 229.255699 
L 117.835898 226.10309 
L 119.264378 224.300695 
L 120.692858 222.346759 
L 123.549818 218.257951 
L 124.264058 217.675831 
L 124.978298 216.47196 
L 126.406778 214.727549 
L 127.121018 213.637536 
L 127.835258 212.958613 
L 128.549498 211.824908 
L 129.263738 211.243438 
L 131.406458 208.515725 
L 132.834938 206.980513 
L 135.691898 203.476911 
L 136.406138 202.977626 
L 138.548858 200.677245 
L 139.263098 199.806989 
L 141.405818 197.784674 
L 142.120058 197.057349 
L 142.834298 196.554491 
L 143.548538 195.712983 
L 144.262778 195.059397 
L 144.977018 194.181507 
L 145.691258 193.789745 
L 146.405498 192.880345 
L 148.548218 191.269608 
L 149.262458 190.511422 
L 149.976698 190.003367 
L 150.690938 189.327692 
L 151.405178 188.487646 
L 152.119418 188.365992 
L 154.976378 185.94282 
L 155.690618 185.327241 
L 156.404858 184.545504 
L 157.833338 183.902963 
L 158.547578 183.289171 
L 159.261818 182.915926 
L 160.690298 181.88276 
L 162.833018 180.427623 
L 164.975738 179.145464 
L 165.689978 178.894035 
L 167.832698 177.68854 
L 168.546938 177.398292 
L 169.975418 176.24331 
L 170.689658 176.188087 
L 171.403898 175.636502 
L 172.118138 175.340894 
L 172.832378 174.91811 
L 174.260858 174.628674 
L 174.975098 173.891929 
L 175.689338 173.84775 
L 176.403578 173.575044 
L 177.117818 173.101746 
L 179.974778 171.846875 
L 180.689018 171.962844 
L 181.403258 171.471193 
L 182.117498 171.412721 
L 182.831738 171.152684 
L 183.545978 170.715769 
L 184.974458 170.311826 
L 185.688698 170.17393 
L 187.831418 169.423541 
L 188.545658 169.272651 
L 189.974138 168.602011 
L 190.688378 168.744617 
L 191.402618 168.383066 
L 194.259578 167.904896 
L 194.973818 167.954435 
L 197.116538 167.12251 
L 197.830778 167.074271 
L 198.545018 166.780125 
L 199.259258 166.85159 
L 200.687738 166.610719 
L 201.401978 166.434004 
L 202.116218 166.488415 
L 204.258938 165.83353 
L 205.687418 165.906295 
L 206.401658 165.856269 
L 207.115898 165.661363 
L 207.830138 165.781717 
L 209.258618 165.469867 
L 210.687098 165.363806 
L 211.401338 165.518431 
L 212.115578 165.209505 
L 213.544058 165.090125 
L 214.258298 164.904314 
L 214.972538 164.95499 
L 215.686778 165.158017 
L 218.543738 164.710383 
L 219.257978 164.977729 
L 219.972218 164.667341 
L 220.686458 164.63177 
L 221.400698 164.823591 
L 223.543418 164.505081 
L 224.257658 164.666204 
L 226.400378 164.68537 
L 227.114618 164.488027 
L 227.828858 164.578983 
L 229.971578 164.519862 
L 230.685818 164.638917 
L 232.828538 164.435727 
L 233.542778 164.579795 
L 234.971258 164.53854 
L 235.685498 164.435077 
L 236.399738 164.477957 
L 237.113978 164.401131 
L 239.256698 164.607245 
L 239.970938 164.454893 
L 240.685178 164.532693 
L 241.399418 164.455543 
L 242.113658 164.6472 
L 242.827898 164.663605 
L 243.542138 164.564365 
L 244.256378 164.650286 
L 244.970618 164.360688 
L 245.684858 164.48088 
L 247.113338 164.208986 
L 247.827578 164.421759 
L 249.256058 164.459116 
L 249.970298 164.540002 
L 251.398778 164.357277 
L 252.113018 164.467724 
L 252.827258 164.364099 
L 253.541498 164.601235 
L 254.255738 164.323981 
L 254.969978 164.59555 
L 256.398458 164.335513 
L 257.112698 164.301567 
L 257.826938 164.151651 
L 258.541178 164.50232 
L 259.969658 164.06573 
L 260.683898 164.325118 
L 261.398138 164.18982 
L 262.112378 163.939853 
L 262.826617 164.186572 
L 263.540858 163.980134 
L 264.255098 163.895187 
L 265.683578 164.025612 
L 266.397818 163.637099 
L 267.112058 163.885442 
L 267.826298 163.657889 
L 268.540538 163.744135 
L 269.254778 163.693946 
L 269.969018 163.431798 
L 270.683258 163.564659 
L 271.397498 163.407434 
L 272.825978 163.247611 
L 273.540218 163.086326 
L 274.254458 163.17111 
L 274.968698 163.121247 
L 275.682938 162.834247 
L 276.397178 162.683682 
L 277.111418 162.737282 
L 277.825658 162.665816 
L 279.254138 162.237672 
L 279.968378 162.322131 
L 281.396858 162.055272 
L 282.111098 161.806929 
L 283.539578 161.679103 
L 284.253818 161.356858 
L 284.968058 161.495566 
L 286.396538 160.93781 
L 287.110778 160.88486 
L 287.825018 160.552383 
L 289.253498 160.36641 
L 289.967738 160.072101 
L 290.681978 159.96474 
L 291.396218 159.612447 
L 292.110458 159.662798 
L 292.824698 159.488519 
L 293.538938 159.141911 
L 295.681658 158.682907 
L 297.110138 157.795759 
L 297.824378 157.633012 
L 298.538618 157.347637 
L 299.252858 157.236865 
L 299.967098 156.902276 
L 300.681338 156.814893 
L 301.395578 156.348417 
L 303.538298 155.417415 
L 304.252538 155.367389 
L 304.966778 154.849426 
L 305.681018 154.653382 
L 306.395258 154.136881 
L 309.252218 152.626357 
L 309.966458 152.481802 
L 310.680698 152.038228 
L 312.823418 151.091633 
L 313.537658 150.59446 
L 314.251898 150.234695 
L 315.680378 149.281441 
L 316.394618 149.047554 
L 317.108858 148.469982 
L 317.823098 148.12987 
L 318.537338 147.410504 
L 319.965818 146.724271 
L 320.680058 146.022446 
L 322.822778 144.418206 
L 323.537018 144.25286 
L 324.251258 143.524236 
L 324.965498 143.011145 
L 325.679738 142.636438 
L 327.108218 141.520112 
L 327.822458 140.736914 
L 328.536698 140.133517 
L 329.250938 139.745816 
L 331.393658 137.918245 
L 334.250618 135.283599 
L 336.393338 133.269243 
L 337.107578 132.861889 
L 339.250298 130.646942 
L 340.678778 128.949796 
L 342.107258 127.806346 
L 342.821498 126.713409 
L 343.535738 126.183914 
L 345.678458 123.68684 
L 346.392698 122.754214 
L 348.535418 120.551123 
L 349.963898 118.696753 
L 353.535098 114.093879 
L 354.249338 113.59898 
L 354.963578 112.456017 
L 357.820538 108.687667 
L 358.534778 107.615195 
L 359.963258 105.900995 
L 361.391738 103.744195 
L 362.105978 102.927213 
L 362.820218 101.787823 
L 364.248698 99.870758 
L 364.962938 98.662989 
L 367.105658 95.710809 
L 368.534138 93.440314 
L 373.533818 85.837183 
L 377.105018 80.200657 
L 378.533498 77.976776 
L 379.961978 75.811206 
L 381.390458 73.466808 
L 382.818938 71.164641 
L 383.533178 70.190272 
L 387.104378 64.333826 
L 388.532858 62.250116 
L 391.389818 57.960067 
L 394.961018 52.536151 
L 396.389498 50.557365 
L 399.246458 46.583552 
L 401.389178 43.906189 
L 402.817658 42.121011 
L 404.960378 39.711969 
L 406.388858 38.167175 
L 407.103098 37.58538 
L 408.531578 36.178806 
L 409.960058 35.017165 
L 412.102778 33.528406 
L 413.531258 32.703303 
L 414.959738 32.098769 
L 416.388218 31.687679 
L 417.816698 31.463537 
L 418.530938 31.43625 
L 418.530938 31.43625 
" clip-path="url(#p37e3121db0)" style="fill: none; stroke: #d62728; stroke-width: 1.5; stroke-linecap: square"/>
   </g>
   <g id="line2d_30">
    <path d="M 61.410938 297.54825 
L 63.553658 297.462393 
L 65.696378 297.206421 
L 68.553338 296.605257 
L 71.410298 295.714107 
L 74.267258 294.541747 
L 77.124218 293.098082 
L 79.981178 291.394052 
L 82.838138 289.441551 
L 85.695098 287.253331 
L 89.266298 284.207239 
L 92.837498 280.84188 
L 96.408698 277.186493 
L 100.694138 272.459967 
L 104.979578 267.413457 
L 109.979258 261.194797 
L 116.407418 252.810729 
L 125.692538 240.277536 
L 137.834618 223.926906 
L 144.262778 215.618751 
L 149.976698 208.581234 
L 154.976378 202.758345 
L 159.976058 197.296113 
L 164.261498 192.929845 
L 168.546938 188.874819 
L 172.832378 185.145058 
L 177.117818 181.749938 
L 180.689018 179.179865 
L 184.260218 176.845891 
L 187.831418 174.746188 
L 191.402618 172.876829 
L 194.973818 171.231853 
L 198.545018 169.80335 
L 202.116218 168.581552 
L 206.401658 167.371908 
L 210.687098 166.420247 
L 214.972538 165.700487 
L 219.972218 165.115272 
L 224.971898 164.756538 
L 231.400058 164.541799 
L 241.399418 164.49202 
L 251.398778 164.375012 
L 257.112698 164.098597 
L 262.112378 163.649151 
L 266.397818 163.068133 
L 270.683258 162.274147 
L 274.968698 161.239244 
L 279.254138 159.938334 
L 282.825338 158.635141 
L 286.396538 157.121119 
L 289.967738 155.387231 
L 293.538938 153.426338 
L 297.110138 151.233282 
L 300.681338 148.804969 
L 304.252538 146.140426 
L 308.537978 142.633003 
L 312.823418 138.793549 
L 317.108858 134.632989 
L 321.394298 130.166889 
L 326.393978 124.597431 
L 331.393658 118.679521 
L 337.107578 111.551258 
L 343.535738 103.167544 
L 352.820858 90.650095 
L 365.677178 73.340457 
L 372.105338 65.08603 
L 377.105018 59.011209 
L 381.390458 54.117869 
L 385.675898 49.571649 
L 389.247098 46.086702 
L 392.818298 42.909476 
L 396.389498 40.068421 
L 399.246458 38.055763 
L 402.103418 36.288466 
L 404.960378 34.778645 
L 407.817338 33.537488 
L 410.674298 32.575167 
L 413.531258 31.900749 
L 416.388218 31.522107 
L 418.530938 31.43625 
L 418.530938 31.43625 
" clip-path="url(#p37e3121db0)" style="fill: none; stroke-dasharray: 5.55,2.4; stroke-dashoffset: 0; stroke: #8c564b; stroke-width: 1.5"/>
   </g>
   <g id="line2d_31">
    <path d="M 61.410938 297.54825 
L 418.530938 31.43625 
L 418.530938 31.43625 
" clip-path="url(#p37e3121db0)" style="fill: none; stroke-dasharray: 5.55,2.4; stroke-dashoffset: 0; stroke: #1f77b4; stroke-width: 1.5"/>
   </g>
   <g id="patch_3">
    <path d="M 61.410938 297.54825 
L 61.410938 31.43625 
" style="fill: none; stroke: #000000; stroke-width: 0.8; stroke-linejoin: miter; stroke-linecap: square"/>
   </g>
   <g id="patch_4">
    <path d="M 418.530938 297.54825 
L 418.530938 31.43625 
" style="fill: none; stroke: #000000; stroke-width: 0.8; stroke-linejoin: miter; stroke-linecap: square"/>
   </g>
   <g id="patch_5">
    <path d="M 61.410938 297.54825 
L 418.530938 297.54825 
" style="fill: none; stroke: #000000; stroke-width: 0.8; stroke-linejoin: miter; stroke-linecap: square"/>
   </g>
   <g id="patch_6">
    <path d="M 61.410938 31.43625 
L 418.530938 31.43625 
" style="fill: none; stroke: #000000; stroke-width: 0.8; stroke-linejoin: miter; stroke-linecap: square"/>
   </g>
   <g id="text_15">
    <!-- Shor code [[9, 1, 3]] -->
    <g transform="translate(119.014688 25.43625) scale(0.24 -0.24)">
     <defs>
      <path id="DejaVuSans-53" d="M 3425 4513 
L 3425 3897 
Q 3066 4069 2747 4153 
Q 2428 4238 2131 4238 
Q 1616 4238 1336 4038 
Q 1056 3838 1056 3469 
Q 1056 3159 1242 3001 
Q 1428 2844 1947 2747 
L 2328 2669 
Q 3034 2534 3370 2195 
Q 3706 1856 3706 1288 
Q 3706 609 3251 259 
Q 2797 -91 1919 -91 
Q 1588 -91 1214 -16 
Q 841 59 441 206 
L 441 856 
Q 825 641 1194 531 
Q 1563 422 1919 422 
Q 2459 422 2753 634 
Q 3047 847 3047 1241 
Q 3047 1584 2836 1778 
Q 2625 1972 2144 2069 
L 1759 2144 
Q 1053 2284 737 2584 
Q 422 2884 422 3419 
Q 422 4038 858 4394 
Q 1294 4750 2059 4750 
Q 2388 4750 2728 4690 
Q 3069 4631 3425 4513 
z
" transform="scale(0.015625)"/>
      <path id="DejaVuSans-64" d="M 2906 2969 
L 2906 4863 
L 3481 4863 
L 3481 0 
L 2906 0 
L 2906 525 
Q 2725 213 2448 61 
Q 2172 -91 1784 -91 
Q 1150 -91 751 415 
Q 353 922 353 1747 
Q 353 2572 751 3078 
Q 1150 3584 1784 3584 
Q 2172 3584 2448 3432 
Q 2725 3281 2906 2969 
z
M 947 1747 
Q 947 1113 1208 752 
Q 1469 391 1925 391 
Q 2381 391 2643 752 
Q 2906 1113 2906 1747 
Q 2906 2381 2643 2742 
Q 2381 3103 1925 3103 
Q 1469 3103 1208 2742 
Q 947 2381 947 1747 
z
" transform="scale(0.015625)"/>
      <path id="DejaVuSans-65" d="M 3597 1894 
L 3597 1613 
L 953 1613 
Q 991 1019 1311 708 
Q 1631 397 2203 397 
Q 2534 397 2845 478 
Q 3156 559 3463 722 
L 3463 178 
Q 3153 47 2828 -22 
Q 2503 -91 2169 -91 
Q 1331 -91 842 396 
Q 353 884 353 1716 
Q 353 2575 817 3079 
Q 1281 3584 2069 3584 
Q 2775 3584 3186 3129 
Q 3597 2675 3597 1894 
z
M 3022 2063 
Q 3016 2534 2758 2815 
Q 2500 3097 2075 3097 
Q 1594 3097 1305 2825 
Q 1016 2553 972 2059 
L 3022 2063 
z
" transform="scale(0.015625)"/>
      <path id="DejaVuSans-5b" d="M 550 4863 
L 1875 4863 
L 1875 4416 
L 1125 4416 
L 1125 -397 
L 1875 -397 
L 1875 -844 
L 550 -844 
L 550 4863 
z
" transform="scale(0.015625)"/>
      <path id="DejaVuSans-39" d="M 703 97 
L 703 672 
Q 941 559 1184 500 
Q 1428 441 1663 441 
Q 2288 441 2617 861 
Q 2947 1281 2994 2138 
Q 2813 1869 2534 1725 
Q 2256 1581 1919 1581 
Q 1219 1581 811 2004 
Q 403 2428 403 3163 
Q 403 3881 828 4315 
Q 1253 4750 1959 4750 
Q 2769 4750 3195 4129 
Q 3622 3509 3622 2328 
Q 3622 1225 3098 567 
Q 2575 -91 1691 -91 
Q 1453 -91 1209 -44 
Q 966 3 703 97 
z
M 1959 2075 
Q 2384 2075 2632 2365 
Q 2881 2656 2881 3163 
Q 2881 3666 2632 3958 
Q 2384 4250 1959 4250 
Q 1534 4250 1286 3958 
Q 1038 3666 1038 3163 
Q 1038 2656 1286 2365 
Q 1534 2075 1959 2075 
z
" transform="scale(0.015625)"/>
      <path id="DejaVuSans-2c" d="M 750 794 
L 1409 794 
L 1409 256 
L 897 -744 
L 494 -744 
L 750 256 
L 750 794 
z
" transform="scale(0.015625)"/>
      <path id="DejaVuSans-33" d="M 2597 2516 
Q 3050 2419 3304 2112 
Q 3559 1806 3559 1356 
Q 3559 666 3084 287 
Q 2609 -91 1734 -91 
Q 1441 -91 1130 -33 
Q 819 25 488 141 
L 488 750 
Q 750 597 1062 519 
Q 1375 441 1716 441 
Q 2309 441 2620 675 
Q 2931 909 2931 1356 
Q 2931 1769 2642 2001 
Q 2353 2234 1838 2234 
L 1294 2234 
L 1294 2753 
L 1863 2753 
Q 2328 2753 2575 2939 
Q 2822 3125 2822 3475 
Q 2822 3834 2567 4026 
Q 2313 4219 1838 4219 
Q 1578 4219 1281 4162 
Q 984 4106 628 3988 
L 628 4550 
Q 988 4650 1302 4700 
Q 1616 4750 1894 4750 
Q 2613 4750 3031 4423 
Q 3450 4097 3450 3541 
Q 3450 3153 3228 2886 
Q 3006 2619 2597 2516 
z
" transform="scale(0.015625)"/>
      <path id="DejaVuSans-5d" d="M 1947 4863 
L 1947 -844 
L 622 -844 
L 622 -397 
L 1369 -397 
L 1369 4416 
L 622 4416 
L 622 4863 
L 1947 4863 
z
" transform="scale(0.015625)"/>
     </defs>
     <use xlink:href="#DejaVuSans-53"/>
     <use xlink:href="#DejaVuSans-68" x="63.476562"/>
     <use xlink:href="#DejaVuSans-6f" x="126.855469"/>
     <use xlink:href="#DejaVuSans-72" x="188.037109"/>
     <use xlink:href="#DejaVuSans-20" x="229.150391"/>
     <use xlink:href="#DejaVuSans-63" x="260.9375"/>
     <use xlink:href="#DejaVuSans-6f" x="315.917969"/>
     <use xlink:href="#DejaVuSans-64" x="377.099609"/>
     <use xlink:href="#DejaVuSans-65" x="440.576172"/>
     <use xlink:href="#DejaVuSans-20" x="502.099609"/>
     <use xlink:href="#DejaVuSans-5b" x="533.886719"/>
     <use xlink:href="#DejaVuSans-5b" x="572.900391"/>
     <use xlink:href="#DejaVuSans-39" x="611.914062"/>
     <use xlink:href="#DejaVuSans-2c" x="675.537109"/>
     <use xlink:href="#DejaVuSans-20" x="707.324219"/>
     <use xlink:href="#DejaVuSans-31" x="739.111328"/>
     <use xlink:href="#DejaVuSans-2c" x="802.734375"/>
     <use xlink:href="#DejaVuSans-20" x="834.521484"/>
     <use xlink:href="#DejaVuSans-33" x="866.308594"/>
     <use xlink:href="#DejaVuSans-5d" x="929.931641"/>
     <use xlink:href="#DejaVuSans-5d" x="968.945312"/>
    </g>
   </g>
   <g id="legend_1">
    <g id="patch_7">
     <path d="M 70.510938 99.080937 
L 320.247031 99.080937 
Q 322.847031 99.080937 322.847031 96.480937 
L 322.847031 40.53625 
Q 322.847031 37.93625 320.247031 37.93625 
L 70.510938 37.93625 
Q 67.910938 37.93625 67.910938 40.53625 
L 67.910938 96.480937 
Q 67.910938 99.080937 70.510938 99.080937 
z
" style="fill: #ffffff; opacity: 0.8; stroke: #cccccc; stroke-linejoin: miter"/>
    </g>
    <g id="line2d_32">
     <path d="M 73.110938 48.464219 
L 86.110938 48.464219 
L 99.110938 48.464219 
" style="fill: none; stroke: #1f77b4; stroke-opacity: 0.3; stroke-width: 1.5; stroke-linecap: square"/>
    </g>
    <g id="text_16">
     <!-- x (state) -->
     <g transform="translate(109.510938 53.014219) scale(0.13 -0.13)">
      <defs>
       <path id="DejaVuSans-78" d="M 3513 3500 
L 2247 1797 
L 3578 0 
L 2900 0 
L 1881 1375 
L 863 0 
L 184 0 
L 1544 1831 
L 300 3500 
L 978 3500 
L 1906 2253 
L 2834 3500 
L 3513 3500 
z
" transform="scale(0.015625)"/>
       <path id="DejaVuSans-28" d="M 1984 4856 
Q 1566 4138 1362 3434 
Q 1159 2731 1159 2009 
Q 1159 1288 1364 580 
Q 1569 -128 1984 -844 
L 1484 -844 
Q 1016 -109 783 600 
Q 550 1309 550 2009 
Q 550 2706 781 3412 
Q 1013 4119 1484 4856 
L 1984 4856 
z
" transform="scale(0.015625)"/>
       <path id="DejaVuSans-74" d="M 1172 4494 
L 1172 3500 
L 2356 3500 
L 2356 3053 
L 1172 3053 
L 1172 1153 
Q 1172 725 1289 603 
Q 1406 481 1766 481 
L 2356 481 
L 2356 0 
L 1766 0 
Q 1100 0 847 248 
Q 594 497 594 1153 
L 594 3053 
L 172 3053 
L 172 3500 
L 594 3500 
L 594 4494 
L 1172 4494 
z
" transform="scale(0.015625)"/>
       <path id="DejaVuSans-29" d="M 513 4856 
L 1013 4856 
Q 1481 4119 1714 3412 
Q 1947 2706 1947 2009 
Q 1947 1309 1714 600 
Q 1481 -109 1013 -844 
L 513 -844 
Q 928 -128 1133 580 
Q 1338 1288 1338 2009 
Q 1338 2731 1133 3434 
Q 928 4138 513 4856 
z
" transform="scale(0.015625)"/>
      </defs>
      <use xlink:href="#DejaVuSans-78"/>
      <use xlink:href="#DejaVuSans-20" x="59.179688"/>
      <use xlink:href="#DejaVuSans-28" x="90.966797"/>
      <use xlink:href="#DejaVuSans-73" x="129.980469"/>
      <use xlink:href="#DejaVuSans-74" x="182.080078"/>
      <use xlink:href="#DejaVuSans-61" x="221.289062"/>
      <use xlink:href="#DejaVuSans-74" x="282.568359"/>
      <use xlink:href="#DejaVuSans-65" x="321.777344"/>
      <use xlink:href="#DejaVuSans-29" x="383.300781"/>
     </g>
    </g>
    <g id="line2d_33">
     <path d="M 73.110938 67.545781 
L 86.110938 67.545781 
L 99.110938 67.545781 
" style="fill: none; stroke: #2ca02c; stroke-width: 1.5; stroke-linecap: square"/>
    </g>
    <g id="text_17">
     <!-- x (error) -->
     <g transform="translate(109.510938 72.095781) scale(0.13 -0.13)">
      <use xlink:href="#DejaVuSans-78"/>
      <use xlink:href="#DejaVuSans-20" x="59.179688"/>
      <use xlink:href="#DejaVuSans-28" x="90.966797"/>
      <use xlink:href="#DejaVuSans-65" x="129.980469"/>
      <use xlink:href="#DejaVuSans-72" x="191.503906"/>
      <use xlink:href="#DejaVuSans-72" x="230.867188"/>
      <use xlink:href="#DejaVuSans-6f" x="269.730469"/>
      <use xlink:href="#DejaVuSans-72" x="330.912109"/>
      <use xlink:href="#DejaVuSans-29" x="372.025391"/>
     </g>
    </g>
    <g id="line2d_34">
     <path d="M 73.110938 86.627344 
L 86.110938 86.627344 
L 99.110938 86.627344 
" style="fill: none; stroke-dasharray: 5.55,2.4; stroke-dashoffset: 0; stroke: #9467bd; stroke-width: 1.5"/>
    </g>
    <g id="text_18">
     <!-- x (analytic) -->
     <g transform="translate(109.510938 91.177344) scale(0.13 -0.13)">
      <defs>
       <path id="DejaVuSans-6e" d="M 3513 2113 
L 3513 0 
L 2938 0 
L 2938 2094 
Q 2938 2591 2744 2837 
Q 2550 3084 2163 3084 
Q 1697 3084 1428 2787 
Q 1159 2491 1159 1978 
L 1159 0 
L 581 0 
L 581 3500 
L 1159 3500 
L 1159 2956 
Q 1366 3272 1645 3428 
Q 1925 3584 2291 3584 
Q 2894 3584 3203 3211 
Q 3513 2838 3513 2113 
z
" transform="scale(0.015625)"/>
      </defs>
      <use xlink:href="#DejaVuSans-78"/>
      <use xlink:href="#DejaVuSans-20" x="59.179688"/>
      <use xlink:href="#DejaVuSans-28" x="90.966797"/>
      <use xlink:href="#DejaVuSans-61" x="129.980469"/>
      <use xlink:href="#DejaVuSans-6e" x="191.259766"/>
      <use xlink:href="#DejaVuSans-61" x="254.638672"/>
      <use xlink:href="#DejaVuSans-6c" x="315.917969"/>
      <use xlink:href="#DejaVuSans-79" x="343.701172"/>
      <use xlink:href="#DejaVuSans-74" x="402.880859"/>
      <use xlink:href="#DejaVuSans-69" x="442.089844"/>
      <use xlink:href="#DejaVuSans-63" x="469.873047"/>
      <use xlink:href="#DejaVuSans-29" x="524.853516"/>
     </g>
    </g>
    <g id="line2d_35">
     <path d="M 208.814688 48.464219 
L 221.814688 48.464219 
L 234.814688 48.464219 
" style="fill: none; stroke: #ff7f0e; stroke-opacity: 0.3; stroke-width: 1.5; stroke-linecap: square"/>
    </g>
    <g id="text_19">
     <!-- z (state) -->
     <g transform="translate(245.214688 53.014219) scale(0.13 -0.13)">
      <defs>
       <path id="DejaVuSans-7a" d="M 353 3500 
L 3084 3500 
L 3084 2975 
L 922 459 
L 3084 459 
L 3084 0 
L 275 0 
L 275 525 
L 2438 3041 
L 353 3041 
L 353 3500 
z
" transform="scale(0.015625)"/>
      </defs>
      <use xlink:href="#DejaVuSans-7a"/>
      <use xlink:href="#DejaVuSans-20" x="52.490234"/>
      <use xlink:href="#DejaVuSans-28" x="84.277344"/>
      <use xlink:href="#DejaVuSans-73" x="123.291016"/>
      <use xlink:href="#DejaVuSans-74" x="175.390625"/>
      <use xlink:href="#DejaVuSans-61" x="214.599609"/>
      <use xlink:href="#DejaVuSans-74" x="275.878906"/>
      <use xlink:href="#DejaVuSans-65" x="315.087891"/>
      <use xlink:href="#DejaVuSans-29" x="376.611328"/>
     </g>
    </g>
    <g id="line2d_36">
     <path d="M 208.814688 67.545781 
L 221.814688 67.545781 
L 234.814688 67.545781 
" style="fill: none; stroke: #d62728; stroke-width: 1.5; stroke-linecap: square"/>
    </g>
    <g id="text_20">
     <!-- z (error) -->
     <g transform="translate(245.214688 72.095781) scale(0.13 -0.13)">
      <use xlink:href="#DejaVuSans-7a"/>
      <use xlink:href="#DejaVuSans-20" x="52.490234"/>
      <use xlink:href="#DejaVuSans-28" x="84.277344"/>
      <use xlink:href="#DejaVuSans-65" x="123.291016"/>
      <use xlink:href="#DejaVuSans-72" x="184.814453"/>
      <use xlink:href="#DejaVuSans-72" x="224.177734"/>
      <use xlink:href="#DejaVuSans-6f" x="263.041016"/>
      <use xlink:href="#DejaVuSans-72" x="324.222656"/>
      <use xlink:href="#DejaVuSans-29" x="365.335938"/>
     </g>
    </g>
    <g id="line2d_37">
     <path d="M 208.814688 86.627344 
L 221.814688 86.627344 
L 234.814688 86.627344 
" style="fill: none; stroke-dasharray: 5.55,2.4; stroke-dashoffset: 0; stroke: #8c564b; stroke-width: 1.5"/>
    </g>
    <g id="text_21">
     <!-- z (analytic) -->
     <g transform="translate(245.214688 91.177344) scale(0.13 -0.13)">
      <use xlink:href="#DejaVuSans-7a"/>
      <use xlink:href="#DejaVuSans-20" x="52.490234"/>
      <use xlink:href="#DejaVuSans-28" x="84.277344"/>
      <use xlink:href="#DejaVuSans-61" x="123.291016"/>
      <use xlink:href="#DejaVuSans-6e" x="184.570312"/>
      <use xlink:href="#DejaVuSans-61" x="247.949219"/>
      <use xlink:href="#DejaVuSans-6c" x="309.228516"/>
      <use xlink:href="#DejaVuSans-79" x="337.011719"/>
      <use xlink:href="#DejaVuSans-74" x="396.191406"/>
      <use xlink:href="#DejaVuSans-69" x="435.400391"/>
      <use xlink:href="#DejaVuSans-63" x="463.183594"/>
      <use xlink:href="#DejaVuSans-29" x="518.164062"/>
     </g>
    </g>
   </g>
  </g>
 </g>
 <defs>
  <clipPath id="p37e3121db0">
   <rect x="61.410938" y="31.43625" width="357.12" height="266.112"/>
  </clipPath>
 </defs>
</svg>
