<?xml version="1.0" encoding="utf-8" standalone="no"?>
<!DOCTYPE svg PUBLIC "-//W3C//DTD SVG 1.1//EN"
  "http://www.w3.org/Graphics/SVG/1.1/DTD/svg11.dtd">
<svg xmlns:xlink="http://www.w3.org/1999/xlink" width="451.973906pt" height="349.621687pt" viewBox="0 0 451.973906 349.621687" xmlns="http://www.w3.org/2000/svg" version="1.1">
 <defs>
  <style type="text/css">*{stroke-linejoin: round; stroke-linecap: butt}</style>
 </defs>
 <g id="figure_1">
  <g id="patch_1">
   <path d="M 0 349.621687 
L 451.973906 349.621687 
L 451.973906 0 
L 0 0 
L 0 349.621687 
z
" style="fill: none"/>
  </g>
  <g id="axes_1">
   <g id="patch_2">
    <path d="M 70.954688 297.54825 
L 428.074687 297.54825 
L 428.074687 31.43625 
L 70.954688 31.43625 
L 70.954688 297.54825 
z
" style="fill: none"/>
   </g>
   <g id="matplotlib.axis_1">
    <g id="xtick_1">
     <g id="line2d_1">
      <path d="M 70.954687 297.54825 
L 70.954687 31.43625 
" clip-path="url(#p6037f1dca1)" style="fill: none; stroke: #b0b0b0; stroke-width: 0.8; stroke-linecap: square"/>
     </g>
     <g id="line2d_2">
      <defs>
       <path id="md39032bed2" d="M 0 0 
L 0 3.5 
" style="stroke: #000000; stroke-width: 0.8"/>
      </defs>
      <g>
       <use xlink:href="#md39032bed2" x="70.954687" y="297.54825" style="stroke: #000000; stroke-width: 0.8"/>
      </g>
     </g>
     <g id="text_1">
      <!-- 0.02 -->
      <g transform="translate(54.255469 315.945906) scale(0.15 -0.15)">
       <defs>
        <path id="DejaVuSans-30" d="M 2034 4250 
Q 1547 4250 1301 3770 
Q 1056 3291 1056 2328 
Q 1056 1369 1301 889 
Q 1547 409 2034 409 
Q 2525 409 2770 889 
Q 3016 1369 3016 2328 
Q 3016 3291 2770 3770 
Q 2525 4250 2034 4250 
z
M 2034 4750 
Q 2819 4750 3233 4129 
Q 3647 3509 3647 2328 
Q 3647 1150 3233 529 
Q 2819 -91 2034 -91 
Q 1250 -91 836 529 
Q 422 1150 422 2328 
Q 422 3509 836 4129 
Q 1250 4750 2034 4750 
z
" transform="scale(0.015625)"/>
        <path id="DejaVuSans-2e" d="M 684 794 
L 1344 794 
L 1344 0 
L 684 0 
L 684 794 
z
" transform="scale(0.015625)"/>
        <path id="DejaVuSans-32" d="M 1228 531 
L 3431 531 
L 3431 0 
L 469 0 
L 469 531 
Q 828 903 1448 1529 
Q 2069 2156 2228 2338 
Q 2531 2678 2651 2914 
Q 2772 3150 2772 3378 
Q 2772 3750 2511 3984 
Q 2250 4219 1831 4219 
Q 1534 4219 1204 4116 
Q 875 4013 500 3803 
L 500 4441 
Q 881 4594 1212 4672 
Q 1544 4750 1819 4750 
Q 2544 4750 2975 4387 
Q 3406 4025 3406 3419 
Q 3406 3131 3298 2873 
Q 3191 2616 2906 2266 
Q 2828 2175 2409 1742 
Q 1991 1309 1228 531 
z
" transform="scale(0.015625)"/>
       </defs>
       <use xlink:href="#DejaVuSans-30"/>
       <use xlink:href="#DejaVuSans-2e" x="63.623047"/>
       <use xlink:href="#DejaVuSans-30" x="95.410156"/>
       <use xlink:href="#DejaVuSans-32" x="159.033203"/>
      </g>
     </g>
    </g>
    <g id="xtick_2">
     <g id="line2d_3">
      <path d="M 142.378687 297.54825 
L 142.378687 31.43625 
" clip-path="url(#p6037f1dca1)" style="fill: none; stroke: #b0b0b0; stroke-width: 0.8; stroke-linecap: square"/>
     </g>
     <g id="line2d_4">
      <g>
       <use xlink:href="#md39032bed2" x="142.378687" y="297.54825" style="stroke: #000000; stroke-width: 0.8"/>
      </g>
     </g>
     <g id="text_2">
      <!-- 0.04 -->
      <g transform="translate(125.679469 315.945906) scale(0.15 -0.15)">
       <defs>
        <path id="DejaVuSans-34" d="M 2419 4116 
L 825 1625 
L 2419 1625 
L 2419 4116 
z
M 2253 4666 
L 3047 4666 
L 3047 1625 
L 3713 1625 
L 3713 1100 
L 3047 1100 
L 3047 0 
L 2419 0 
L 2419 1100 
L 313 1100 
L 313 1709 
L 2253 4666 
z
" transform="scale(0.015625)"/>
       </defs>
       <use xlink:href="#DejaVuSans-30"/>
       <use xlink:href="#DejaVuSans-2e" x="63.623047"/>
       <use xlink:href="#DejaVuSans-30" x="95.410156"/>
       <use xlink:href="#DejaVuSans-34" x="159.033203"/>
      </g>
     </g>
    </g>
    <g id="xtick_3">
     <g id="line2d_5">
      <path d="M 213.802687 297.54825 
L 213.802687 31.43625 
" clip-path="url(#p6037f1dca1)" style="fill: none; stroke: #b0b0b0; stroke-width: 0.8; stroke-linecap: square"/>
     </g>
     <g id="line2d_6">
      <g>
       <use xlink:href="#md39032bed2" x="213.802687" y="297.54825" style="stroke: #000000; stroke-width: 0.8"/>
      </g>
     </g>
     <g id="text_3">
      <!-- 0.06 -->
      <g transform="translate(197.103469 315.945906) scale(0.15 -0.15)">
       <defs>
        <path id="DejaVuSans-36" d="M 2113 2584 
Q 1688 2584 1439 2293 
Q 1191 2003 1191 1497 
Q 1191 994 1439 701 
Q 1688 409 2113 409 
Q 2538 409 2786 701 
Q 3034 994 3034 1497 
Q 3034 2003 2786 2293 
Q 2538 2584 2113 2584 
z
M 3366 4563 
L 3366 3988 
Q 3128 4100 2886 4159 
Q 2644 4219 2406 4219 
Q 1781 4219 1451 3797 
Q 1122 3375 1075 2522 
Q 1259 2794 1537 2939 
Q 1816 3084 2150 3084 
Q 2853 3084 3261 2657 
Q 3669 2231 3669 1497 
Q 3669 778 3244 343 
Q 2819 -91 2113 -91 
Q 1303 -91 875 529 
Q 447 1150 447 2328 
Q 447 3434 972 4092 
Q 1497 4750 2381 4750 
Q 2619 4750 2861 4703 
Q 3103 4656 3366 4563 
z
" transform="scale(0.015625)"/>
       </defs>
       <use xlink:href="#DejaVuSans-30"/>
       <use xlink:href="#DejaVuSans-2e" x="63.623047"/>
       <use xlink:href="#DejaVuSans-30" x="95.410156"/>
       <use xlink:href="#DejaVuSans-36" x="159.033203"/>
      </g>
     </g>
    </g>
    <g id="xtick_4">
     <g id="line2d_7">
      <path d="M 285.226687 297.54825 
L 285.226687 31.43625 
" clip-path="url(#p6037f1dca1)" style="fill: none; stroke: #b0b0b0; stroke-width: 0.8; stroke-linecap: square"/>
     </g>
     <g id="line2d_8">
      <g>
       <use xlink:href="#md39032bed2" x="285.226687" y="297.54825" style="stroke: #000000; stroke-width: 0.8"/>
      </g>
     </g>
     <g id="text_4">
      <!-- 0.08 -->
      <g transform="translate(268.527469 315.945906) scale(0.15 -0.15)">
       <defs>
        <path id="DejaVuSans-38" d="M 2034 2216 
Q 1584 2216 1326 1975 
Q 1069 1734 1069 1313 
Q 1069 891 1326 650 
Q 1584 409 2034 409 
Q 2484 409 2743 651 
Q 3003 894 3003 1313 
Q 3003 1734 2745 1975 
Q 2488 2216 2034 2216 
z
M 1403 2484 
Q 997 2584 770 2862 
Q 544 3141 544 3541 
Q 544 4100 942 4425 
Q 1341 4750 2034 4750 
Q 2731 4750 3128 4425 
Q 3525 4100 3525 3541 
Q 3525 3141 3298 2862 
Q 3072 2584 2669 2484 
Q 3125 2378 3379 2068 
Q 3634 1759 3634 1313 
Q 3634 634 3220 271 
Q 2806 -91 2034 -91 
Q 1263 -91 848 271 
Q 434 634 434 1313 
Q 434 1759 690 2068 
Q 947 2378 1403 2484 
z
M 1172 3481 
Q 1172 3119 1398 2916 
Q 1625 2713 2034 2713 
Q 2441 2713 2670 2916 
Q 2900 3119 2900 3481 
Q 2900 3844 2670 4047 
Q 2441 4250 2034 4250 
Q 1625 4250 1398 4047 
Q 1172 3844 1172 3481 
z
" transform="scale(0.015625)"/>
       </defs>
       <use xlink:href="#DejaVuSans-30"/>
       <use xlink:href="#DejaVuSans-2e" x="63.623047"/>
       <use xlink:href="#DejaVuSans-30" x="95.410156"/>
       <use xlink:href="#DejaVuSans-38" x="159.033203"/>
      </g>
     </g>
    </g>
    <g id="xtick_5">
     <g id="line2d_9">
      <path d="M 356.650688 297.54825 
L 356.650688 31.43625 
" clip-path="url(#p6037f1dca1)" style="fill: none; stroke: #b0b0b0; stroke-width: 0.8; stroke-linecap: square"/>
     </g>
     <g id="line2d_10">
      <g>
       <use xlink:href="#md39032bed2" x="356.650688" y="297.54825" style="stroke: #000000; stroke-width: 0.8"/>
      </g>
     </g>
     <g id="text_5">
      <!-- 0.10 -->
      <g transform="translate(339.951469 315.945906) scale(0.15 -0.15)">
       <defs>
        <path id="DejaVuSans-31" d="M 794 531 
L 1825 531 
L 1825 4091 
L 703 3866 
L 703 4441 
L 1819 4666 
L 2450 4666 
L 2450 531 
L 3481 531 
L 3481 0 
L 794 0 
L 794 531 
z
" transform="scale(0.015625)"/>
       </defs>
       <use xlink:href="#DejaVuSans-30"/>
       <use xlink:href="#DejaVuSans-2e" x="63.623047"/>
       <use xlink:href="#DejaVuSans-31" x="95.410156"/>
       <use xlink:href="#DejaVuSans-30" x="159.033203"/>
      </g>
     </g>
    </g>
    <g id="xtick_6">
     <g id="line2d_11">
      <path d="M 428.074688 297.54825 
L 428.074688 31.43625 
" clip-path="url(#p6037f1dca1)" style="fill: none; stroke: #b0b0b0; stroke-width: 0.8; stroke-linecap: square"/>
     </g>
     <g id="line2d_12">
      <g>
       <use xlink:href="#md39032bed2" x="428.074688" y="297.54825" style="stroke: #000000; stroke-width: 0.8"/>
      </g>
     </g>
     <g id="text_6">
      <!-- 0.12 -->
      <g transform="translate(411.375469 315.945906) scale(0.15 -0.15)">
       <use xlink:href="#DejaVuSans-30"/>
       <use xlink:href="#DejaVuSans-2e" x="63.623047"/>
       <use xlink:href="#DejaVuSans-31" x="95.410156"/>
       <use xlink:href="#DejaVuSans-32" x="159.033203"/>
      </g>
     </g>
    </g>
    <g id="text_7">
     <!-- Physical Error -->
     <g transform="translate(181.288125 338.262312) scale(0.2 -0.2)">
      <defs>
       <path id="DejaVuSans-50" d="M 1259 4147 
L 1259 2394 
L 2053 2394 
Q 2494 2394 2734 2622 
Q 2975 2850 2975 3272 
Q 2975 3691 2734 3919 
Q 2494 4147 2053 4147 
L 1259 4147 
z
M 628 4666 
L 2053 4666 
Q 2838 4666 3239 4311 
Q 3641 3956 3641 3272 
Q 3641 2581 3239 2228 
Q 2838 1875 2053 1875 
L 1259 1875 
L 1259 0 
L 628 0 
L 628 4666 
z
" transform="scale(0.015625)"/>
       <path id="DejaVuSans-68" d="M 3513 2113 
L 3513 0 
L 2938 0 
L 2938 2094 
Q 2938 2591 2744 2837 
Q 2550 3084 2163 3084 
Q 1697 3084 1428 2787 
Q 1159 2491 1159 1978 
L 1159 0 
L 581 0 
L 581 4863 
L 1159 4863 
L 1159 2956 
Q 1366 3272 1645 3428 
Q 1925 3584 2291 3584 
Q 2894 3584 3203 3211 
Q 3513 2838 3513 2113 
z
" transform="scale(0.015625)"/>
       <path id="DejaVuSans-79" d="M 2059 -325 
Q 1816 -950 1584 -1140 
Q 1353 -1331 966 -1331 
L 506 -1331 
L 506 -850 
L 844 -850 
Q 1081 -850 1212 -737 
Q 1344 -625 1503 -206 
L 1606 56 
L 191 3500 
L 800 3500 
L 1894 763 
L 2988 3500 
L 3597 3500 
L 2059 -325 
z
" transform="scale(0.015625)"/>
       <path id="DejaVuSans-73" d="M 2834 3397 
L 2834 2853 
Q 2591 2978 2328 3040 
Q 2066 3103 1784 3103 
Q 1356 3103 1142 2972 
Q 928 2841 928 2578 
Q 928 2378 1081 2264 
Q 1234 2150 1697 2047 
L 1894 2003 
Q 2506 1872 2764 1633 
Q 3022 1394 3022 966 
Q 3022 478 2636 193 
Q 2250 -91 1575 -91 
Q 1294 -91 989 -36 
Q 684 19 347 128 
L 347 722 
Q 666 556 975 473 
Q 1284 391 1588 391 
Q 1994 391 2212 530 
Q 2431 669 2431 922 
Q 2431 1156 2273 1281 
Q 2116 1406 1581 1522 
L 1381 1569 
Q 847 1681 609 1914 
Q 372 2147 372 2553 
Q 372 3047 722 3315 
Q 1072 3584 1716 3584 
Q 2034 3584 2315 3537 
Q 2597 3491 2834 3397 
z
" transform="scale(0.015625)"/>
       <path id="DejaVuSans-69" d="M 603 3500 
L 1178 3500 
L 1178 0 
L 603 0 
L 603 3500 
z
M 603 4863 
L 1178 4863 
L 1178 4134 
L 603 4134 
L 603 4863 
z
" transform="scale(0.015625)"/>
       <path id="DejaVuSans-63" d="M 3122 3366 
L 3122 2828 
Q 2878 2963 2633 3030 
Q 2388 3097 2138 3097 
Q 1578 3097 1268 2742 
Q 959 2388 959 1747 
Q 959 1106 1268 751 
Q 1578 397 2138 397 
Q 2388 397 2633 464 
Q 2878 531 3122 666 
L 3122 134 
Q 2881 22 2623 -34 
Q 2366 -91 2075 -91 
Q 1284 -91 818 406 
Q 353 903 353 1747 
Q 353 2603 823 3093 
Q 1294 3584 2113 3584 
Q 2378 3584 2631 3529 
Q 2884 3475 3122 3366 
z
" transform="scale(0.015625)"/>
       <path id="DejaVuSans-61" d="M 2194 1759 
Q 1497 1759 1228 1600 
Q 959 1441 959 1056 
Q 959 750 1161 570 
Q 1363 391 1709 391 
Q 2188 391 2477 730 
Q 2766 1069 2766 1631 
L 2766 1759 
L 2194 1759 
z
M 3341 1997 
L 3341 0 
L 2766 0 
L 2766 531 
Q 2569 213 2275 61 
Q 1981 -91 1556 -91 
Q 1019 -91 701 211 
Q 384 513 384 1019 
Q 384 1609 779 1909 
Q 1175 2209 1959 2209 
L 2766 2209 
L 2766 2266 
Q 2766 2663 2505 2880 
Q 2244 3097 1772 3097 
Q 1472 3097 1187 3025 
Q 903 2953 641 2809 
L 641 3341 
Q 956 3463 1253 3523 
Q 1550 3584 1831 3584 
Q 2591 3584 2966 3190 
Q 3341 2797 3341 1997 
z
" transform="scale(0.015625)"/>
       <path id="DejaVuSans-6c" d="M 603 4863 
L 1178 4863 
L 1178 0 
L 603 0 
L 603 4863 
z
" transform="scale(0.015625)"/>
       <path id="DejaVuSans-20" transform="scale(0.015625)"/>
       <path id="DejaVuSans-45" d="M 628 4666 
L 3578 4666 
L 3578 4134 
L 1259 4134 
L 1259 2753 
L 3481 2753 
L 3481 2222 
L 1259 2222 
L 1259 531 
L 3634 531 
L 3634 0 
L 628 0 
L 628 4666 
z
" transform="scale(0.015625)"/>
       <path id="DejaVuSans-72" d="M 2631 2963 
Q 2534 3019 2420 3045 
Q 2306 3072 2169 3072 
Q 1681 3072 1420 2755 
Q 1159 2438 1159 1844 
L 1159 0 
L 581 0 
L 581 3500 
L 1159 3500 
L 1159 2956 
Q 1341 3275 1631 3429 
Q 1922 3584 2338 3584 
Q 2397 3584 2469 3576 
Q 2541 3569 2628 3553 
L 2631 2963 
z
" transform="scale(0.015625)"/>
       <path id="DejaVuSans-6f" d="M 1959 3097 
Q 1497 3097 1228 2736 
Q 959 2375 959 1747 
Q 959 1119 1226 758 
Q 1494 397 1959 397 
Q 2419 397 2687 759 
Q 2956 1122 2956 1747 
Q 2956 2369 2687 2733 
Q 2419 3097 1959 3097 
z
M 1959 3584 
Q 2709 3584 3137 3096 
Q 3566 2609 3566 1747 
Q 3566 888 3137 398 
Q 2709 -91 1959 -91 
Q 1206 -91 779 398 
Q 353 888 353 1747 
Q 353 2609 779 3096 
Q 1206 3584 1959 3584 
z
" transform="scale(0.015625)"/>
      </defs>
      <use xlink:href="#DejaVuSans-50"/>
      <use xlink:href="#DejaVuSans-68" x="60.302734"/>
      <use xlink:href="#DejaVuSans-79" x="123.681641"/>
      <use xlink:href="#DejaVuSans-73" x="182.861328"/>
      <use xlink:href="#DejaVuSans-69" x="234.960938"/>
      <use xlink:href="#DejaVuSans-63" x="262.744141"/>
      <use xlink:href="#DejaVuSans-61" x="317.724609"/>
      <use xlink:href="#DejaVuSans-6c" x="379.003906"/>
      <use xlink:href="#DejaVuSans-20" x="406.787109"/>
      <use xlink:href="#DejaVuSans-45" x="438.574219"/>
      <use xlink:href="#DejaVuSans-72" x="501.757812"/>
      <use xlink:href="#DejaVuSans-72" x="541.121094"/>
      <use xlink:href="#DejaVuSans-6f" x="579.984375"/>
      <use xlink:href="#DejaVuSans-72" x="641.166016"/>
     </g>
    </g>
   </g>
   <g id="matplotlib.axis_2">
    <g id="ytick_1">
     <g id="line2d_13">
      <path d="M 70.954688 269.422591 
L 428.074687 269.422591 
" clip-path="url(#p6037f1dca1)" style="fill: none; stroke: #b0b0b0; stroke-width: 0.8; stroke-linecap: square"/>
     </g>
     <g id="line2d_14">
      <defs>
       <path id="m6f3f5b6aff" d="M 0 0 
L -3.5 0 
" style="stroke: #000000; stroke-width: 0.8"/>
      </defs>
      <g>
       <use xlink:href="#m6f3f5b6aff" x="70.954688" y="269.422591" style="stroke: #000000; stroke-width: 0.8"/>
      </g>
     </g>
     <g id="text_8">
      <!-- 0.02 -->
      <g transform="translate(30.55625 275.12142) scale(0.15 -0.15)">
       <use xlink:href="#DejaVuSans-30"/>
       <use xlink:href="#DejaVuSans-2e" x="63.623047"/>
       <use xlink:href="#DejaVuSans-30" x="95.410156"/>
       <use xlink:href="#DejaVuSans-32" x="159.033203"/>
      </g>
     </g>
    </g>
    <g id="ytick_2">
     <g id="line2d_15">
      <path d="M 70.954688 226.152348 
L 428.074687 226.152348 
" clip-path="url(#p6037f1dca1)" style="fill: none; stroke: #b0b0b0; stroke-width: 0.8; stroke-linecap: square"/>
     </g>
     <g id="line2d_16">
      <g>
       <use xlink:href="#m6f3f5b6aff" x="70.954688" y="226.152348" style="stroke: #000000; stroke-width: 0.8"/>
      </g>
     </g>
     <g id="text_9">
      <!-- 0.04 -->
      <g transform="translate(30.55625 231.851176) scale(0.15 -0.15)">
       <use xlink:href="#DejaVuSans-30"/>
       <use xlink:href="#DejaVuSans-2e" x="63.623047"/>
       <use xlink:href="#DejaVuSans-30" x="95.410156"/>
       <use xlink:href="#DejaVuSans-34" x="159.033203"/>
      </g>
     </g>
    </g>
    <g id="ytick_3">
     <g id="line2d_17">
      <path d="M 70.954688 182.882104 
L 428.074687 182.882104 
" clip-path="url(#p6037f1dca1)" style="fill: none; stroke: #b0b0b0; stroke-width: 0.8; stroke-linecap: square"/>
     </g>
     <g id="line2d_18">
      <g>
       <use xlink:href="#m6f3f5b6aff" x="70.954688" y="182.882104" style="stroke: #000000; stroke-width: 0.8"/>
      </g>
     </g>
     <g id="text_10">
      <!-- 0.06 -->
      <g transform="translate(30.55625 188.580932) scale(0.15 -0.15)">
       <use xlink:href="#DejaVuSans-30"/>
       <use xlink:href="#DejaVuSans-2e" x="63.623047"/>
       <use xlink:href="#DejaVuSans-30" x="95.410156"/>
       <use xlink:href="#DejaVuSans-36" x="159.033203"/>
      </g>
     </g>
    </g>
    <g id="ytick_4">
     <g id="line2d_19">
      <path d="M 70.954688 139.61186 
L 428.074687 139.61186 
" clip-path="url(#p6037f1dca1)" style="fill: none; stroke: #b0b0b0; stroke-width: 0.8; stroke-linecap: square"/>
     </g>
     <g id="line2d_20">
      <g>
       <use xlink:href="#m6f3f5b6aff" x="70.954688" y="139.61186" style="stroke: #000000; stroke-width: 0.8"/>
      </g>
     </g>
     <g id="text_11">
      <!-- 0.08 -->
      <g transform="translate(30.55625 145.310688) scale(0.15 -0.15)">
       <use xlink:href="#DejaVuSans-30"/>
       <use xlink:href="#DejaVuSans-2e" x="63.623047"/>
       <use xlink:href="#DejaVuSans-30" x="95.410156"/>
       <use xlink:href="#DejaVuSans-38" x="159.033203"/>
      </g>
     </g>
    </g>
    <g id="ytick_5">
     <g id="line2d_21">
      <path d="M 70.954688 96.341616 
L 428.074687 96.341616 
" clip-path="url(#p6037f1dca1)" style="fill: none; stroke: #b0b0b0; stroke-width: 0.8; stroke-linecap: square"/>
     </g>
     <g id="line2d_22">
      <g>
       <use xlink:href="#m6f3f5b6aff" x="70.954688" y="96.341616" style="stroke: #000000; stroke-width: 0.8"/>
      </g>
     </g>
     <g id="text_12">
      <!-- 0.10 -->
      <g transform="translate(30.55625 102.040444) scale(0.15 -0.15)">
       <use xlink:href="#DejaVuSans-30"/>
       <use xlink:href="#DejaVuSans-2e" x="63.623047"/>
       <use xlink:href="#DejaVuSans-31" x="95.410156"/>
       <use xlink:href="#DejaVuSans-30" x="159.033203"/>
      </g>
     </g>
    </g>
    <g id="ytick_6">
     <g id="line2d_23">
      <path d="M 70.954688 53.071372 
L 428.074687 53.071372 
" clip-path="url(#p6037f1dca1)" style="fill: none; stroke: #b0b0b0; stroke-width: 0.8; stroke-linecap: square"/>
     </g>
     <g id="line2d_24">
      <g>
       <use xlink:href="#m6f3f5b6aff" x="70.954688" y="53.071372" style="stroke: #000000; stroke-width: 0.8"/>
      </g>
     </g>
     <g id="text_13">
      <!-- 0.12 -->
      <g transform="translate(30.55625 58.7702) scale(0.15 -0.15)">
       <use xlink:href="#DejaVuSans-30"/>
       <use xlink:href="#DejaVuSans-2e" x="63.623047"/>
       <use xlink:href="#DejaVuSans-31" x="95.410156"/>
       <use xlink:href="#DejaVuSans-32" x="159.033203"/>
      </g>
     </g>
    </g>
    <g id="text_14">
     <!-- Logical Error -->
     <g transform="translate(22.396875 227.087562) rotate(-90) scale(0.2 -0.2)">
      <defs>
       <path id="DejaVuSans-4c" d="M 628 4666 
L 1259 4666 
L 1259 531 
L 3531 531 
L 3531 0 
L 628 0 
L 628 4666 
z
" transform="scale(0.015625)"/>
       <path id="DejaVuSans-67" d="M 2906 1791 
Q 2906 2416 2648 2759 
Q 2391 3103 1925 3103 
Q 1463 3103 1205 2759 
Q 947 2416 947 1791 
Q 947 1169 1205 825 
Q 1463 481 1925 481 
Q 2391 481 2648 825 
Q 2906 1169 2906 1791 
z
M 3481 434 
Q 3481 -459 3084 -895 
Q 2688 -1331 1869 -1331 
Q 1566 -1331 1297 -1286 
Q 1028 -1241 775 -1147 
L 775 -588 
Q 1028 -725 1275 -790 
Q 1522 -856 1778 -856 
Q 2344 -856 2625 -561 
Q 2906 -266 2906 331 
L 2906 616 
Q 2728 306 2450 153 
Q 2172 0 1784 0 
Q 1141 0 747 490 
Q 353 981 353 1791 
Q 353 2603 747 3093 
Q 1141 3584 1784 3584 
Q 2172 3584 2450 3431 
Q 2728 3278 2906 2969 
L 2906 3500 
L 3481 3500 
L 3481 434 
z
" transform="scale(0.015625)"/>
      </defs>
      <use xlink:href="#DejaVuSans-4c"/>
      <use xlink:href="#DejaVuSans-6f" x="53.962891"/>
      <use xlink:href="#DejaVuSans-67" x="115.144531"/>
      <use xlink:href="#DejaVuSans-69" x="178.621094"/>
      <use xlink:href="#DejaVuSans-63" x="206.404297"/>
      <use xlink:href="#DejaVuSans-61" x="261.384766"/>
      <use xlink:href="#DejaVuSans-6c" x="322.664062"/>
      <use xlink:href="#DejaVuSans-20" x="350.447266"/>
      <use xlink:href="#DejaVuSans-45" x="382.234375"/>
      <use xlink:href="#DejaVuSans-72" x="445.417969"/>
      <use xlink:href="#DejaVuSans-72" x="484.78125"/>
      <use xlink:href="#DejaVuSans-6f" x="523.644531"/>
      <use xlink:href="#DejaVuSans-72" x="584.826172"/>
     </g>
    </g>
   </g>
   <g id="line2d_25">
    <path d="M 70.240448 143.368691 
L 70.954687 140.904632 
L 71.668927 140.306444 
L 72.383167 138.853891 
L 73.097408 135.824657 
L 73.811647 135.147239 
L 75.240127 132.222325 
L 75.954367 129.222142 
L 76.668607 128.898619 
L 78.097087 124.658483 
L 78.811328 123.254788 
L 79.525567 122.13104 
L 80.239807 120.244042 
L 80.954048 119.103127 
L 81.668287 116.368365 
L 82.382527 114.634545 
L 83.096767 113.353657 
L 83.811007 111.045417 
L 84.525248 109.775093 
L 85.239487 108.746421 
L 85.953727 106.636258 
L 86.667968 104.170878 
L 87.382207 104.219737 
L 88.096447 100.621366 
L 88.810688 100.205408 
L 89.524927 97.761157 
L 90.239167 97.515543 
L 91.667648 93.452355 
L 93.096127 90.878695 
L 94.524607 86.081307 
L 95.238847 84.987931 
L 97.381568 80.020198 
L 98.095807 79.072077 
L 99.524287 75.023415 
L 100.238527 73.813834 
L 102.381247 68.52654 
L 103.095488 66.036071 
L 103.809727 65.555408 
L 104.523967 63.923266 
L 105.238208 61.914781 
L 105.952447 60.789712 
L 106.666687 59.108712 
L 107.380927 58.272833 
L 108.095167 55.5077 
L 108.809407 54.238697 
L 109.523647 52.343775 
L 110.237887 50.079112 
L 110.952127 49.274926 
L 111.666367 46.961404 
L 113.094848 42.830871 
L 113.809087 43.270598 
L 114.523327 40.718066 
L 115.237567 39.10177 
L 115.951807 38.1827 
L 117.380287 34.040282 
L 118.094527 32.40682 
L 118.808767 31.465301 
L 119.523007 29.225728 
L 120.237247 27.462856 
L 120.951487 26.236109 
L 121.665728 23.496065 
L 122.379967 22.007858 
L 123.808447 20.244987 
L 124.522688 18.161233 
L 125.236928 16.743013 
L 125.951167 13.305743 
L 126.665407 12.881862 
L 127.379647 11.012029 
L 128.093887 10.136536 
L 128.808128 8.102961 
L 129.522368 5.601928 
L 130.236607 4.925831 
L 130.950847 3.879992 
L 132.379327 -0.138298 
L 132.997472 -1 
L 132.997472 -1 
" clip-path="url(#p6037f1dca1)" style="fill: none; stroke: #2ca02c; stroke-width: 1.5; stroke-linecap: square"/>
   </g>
   <g id="line2d_26">
    <path d="M 70.240448 290.481974 
L 73.097408 288.21467 
L 73.811647 288.176376 
L 75.240127 286.641951 
L 75.954367 286.659118 
L 77.382847 285.499716 
L 78.097087 285.332012 
L 79.525567 284.008868 
L 80.239807 283.775139 
L 81.668287 282.327868 
L 82.382527 282.327868 
L 83.096767 281.593668 
L 83.811007 281.237132 
L 84.525248 280.253357 
L 85.239487 280.250716 
L 85.953727 279.376543 
L 86.667968 279.18375 
L 87.382207 278.681959 
L 88.096447 277.867208 
L 88.810688 277.716671 
L 90.239167 276.213939 
L 90.953407 275.885133 
L 92.381887 274.880231 
L 93.096127 274.32826 
L 93.810367 273.517471 
L 95.238847 272.46371 
L 95.953087 271.575011 
L 96.667327 271.030964 
L 97.381568 270.768184 
L 98.095807 270.189804 
L 99.524287 268.639533 
L 100.952767 267.934385 
L 101.667007 266.691791 
L 102.381247 266.051347 
L 103.809727 265.623504 
L 104.523967 264.992304 
L 105.238208 264.139259 
L 105.952447 263.712736 
L 106.666687 262.727641 
L 107.380927 262.388272 
L 108.095167 261.157563 
L 108.809407 260.326966 
L 109.523647 260.206801 
L 110.237887 259.303577 
L 110.952127 259.335269 
L 113.094848 256.827633 
L 114.523327 255.834615 
L 115.237567 255.402811 
L 115.951807 254.634278 
L 116.666048 254.0625 
L 117.380287 252.35509 
L 118.094527 252.055335 
L 118.808767 250.903857 
L 119.523007 251.062317 
L 120.237247 250.02044 
L 120.951487 249.733891 
L 121.665728 249.225497 
L 122.379967 247.706919 
L 123.094207 246.857835 
L 123.808447 246.58185 
L 124.522688 246.439236 
L 125.951167 244.385854 
L 126.665407 243.865575 
L 127.379647 242.595252 
L 128.093887 242.018192 
L 128.808128 241.953487 
L 129.522368 240.861431 
L 131.665087 238.550551 
L 132.379327 238.460756 
L 133.093568 237.303996 
L 133.807807 236.604129 
L 134.522047 236.197414 
L 135.236287 234.883514 
L 135.950527 234.390966 
L 136.664767 233.601305 
L 137.379008 232.552826 
L 138.093247 232.412853 
L 138.807487 230.862582 
L 139.521727 230.820326 
L 140.235967 229.684693 
L 140.950208 228.238742 
L 141.664447 228.350985 
L 142.378687 226.493037 
L 143.092928 226.963136 
L 143.807167 225.220072 
L 145.235647 223.610379 
L 145.949887 222.668861 
L 146.664128 222.66754 
L 147.378367 221.658676 
L 148.092607 220.260263 
L 148.806847 219.466641 
L 149.521087 219.479846 
L 150.235327 218.740364 
L 151.663807 216.52588 
L 152.378047 216.240652 
L 153.806527 213.796401 
L 154.520768 213.628697 
L 155.235007 212.704345 
L 155.949247 211.123702 
L 156.663487 210.82923 
L 158.091968 209.315934 
L 158.806207 208.029764 
L 159.520447 208.365171 
L 160.948927 205.383476 
L 161.663168 205.015055 
L 163.805887 202.152205 
L 165.948608 199.116368 
L 167.377087 197.978095 
L 168.805567 195.576099 
L 169.519808 195.166744 
L 171.662527 191.740038 
L 172.376767 191.968485 
L 173.091007 190.753622 
L 173.805248 189.901898 
L 175.233727 187.469531 
L 175.947967 186.209771 
L 176.662207 185.449162 
L 177.376447 185.149407 
L 178.090688 184.666103 
L 178.804927 183.269011 
L 179.519167 182.151865 
L 180.947647 180.892106 
L 181.661887 179.349758 
L 183.090367 177.112826 
L 183.804608 176.249217 
L 184.518847 175.750067 
L 185.947328 172.837037 
L 186.661567 172.588782 
L 188.090047 170.248851 
L 189.518527 169.09209 
L 190.232767 167.960419 
L 190.947007 166.400905 
L 191.661248 166.696698 
L 192.375487 164.62879 
L 193.089727 163.784989 
L 193.803967 163.52617 
L 194.518207 162.154167 
L 195.946687 160.438834 
L 198.089407 157.041179 
L 198.803648 156.454876 
L 199.517888 155.188514 
L 200.232127 154.618056 
L 200.946367 153.360937 
L 201.660607 152.690122 
L 202.374847 150.457151 
L 203.089088 150.145513 
L 203.803327 148.324539 
L 204.517567 147.785774 
L 205.231807 146.619769 
L 205.946047 145.820865 
L 206.660288 144.699758 
L 207.374527 143.928584 
L 208.088767 143.797854 
L 208.803007 141.66128 
L 209.517247 141.200425 
L 211.659967 137.561119 
L 212.374207 136.676381 
L 213.802687 133.866351 
L 214.516927 133.581122 
L 215.231167 132.172146 
L 216.659647 131.258357 
L 217.373887 128.522275 
L 218.088127 128.563211 
L 218.802368 128.223841 
L 219.516607 126.081986 
L 220.230847 126.257612 
L 220.945087 124.374575 
L 221.659327 123.050111 
L 222.373567 122.059733 
L 223.087807 120.615103 
L 223.802047 119.895429 
L 224.516287 118.141801 
L 225.230528 117.721881 
L 226.659008 114.897325 
L 227.373247 114.031075 
L 228.801727 112.839981 
L 229.515967 111.815271 
L 230.230208 109.891298 
L 231.658687 108.186528 
L 233.087167 105.839994 
L 233.801408 105.195589 
L 234.515647 103.234642 
L 235.229887 101.83755 
L 236.658367 100.505162 
L 238.086847 97.363685 
L 238.801087 96.691549 
L 239.515327 95.429148 
L 240.229568 94.498194 
L 240.943807 92.578182 
L 241.658047 92.671938 
L 242.372287 91.857187 
L 243.086527 89.430103 
L 243.800768 89.011503 
L 244.515007 87.119223 
L 245.229247 86.550086 
L 245.943488 84.623472 
L 246.657727 85.023584 
L 247.371968 83.505006 
L 248.800447 81.361829 
L 249.514688 79.301845 
L 250.228927 78.665362 
L 250.943168 78.380133 
L 251.657407 76.519545 
L 252.371647 75.82496 
L 253.085887 74.163767 
L 253.800127 73.026814 
L 254.514367 72.470882 
L 255.942847 68.749705 
L 256.657087 68.394489 
L 258.085568 66.42694 
L 259.514048 62.971183 
L 260.228287 62.04287 
L 260.942527 61.418272 
L 261.656768 60.081923 
L 262.371007 58.293962 
L 263.085247 58.301885 
L 263.799487 57.236239 
L 265.227967 53.942904 
L 265.942207 54.150223 
L 266.656448 52.281711 
L 267.370687 51.004785 
L 268.084927 49.05044 
L 269.513407 48.985736 
L 270.227647 45.434903 
L 270.941887 44.716549 
L 271.656128 43.279842 
L 272.370367 43.30229 
L 273.084608 42.469053 
L 274.513087 39.478114 
L 275.227328 38.672607 
L 275.941567 35.907473 
L 276.655807 36.079139 
L 277.370047 33.139699 
L 278.084287 33.191199 
L 278.798527 31.210444 
L 279.512767 30.835421 
L 280.227008 29.584905 
L 280.941247 27.658291 
L 281.655487 27.925032 
L 282.369728 26.529261 
L 283.083967 24.849581 
L 283.798207 24.00842 
L 284.512447 22.779032 
L 285.226687 20.54342 
L 285.940927 20.654343 
L 286.655168 19.148969 
L 287.369408 17.186702 
L 288.083647 16.811679 
L 288.797888 15.367048 
L 290.940607 11.859792 
L 292.369087 8.372344 
L 293.083327 8.207281 
L 293.797568 7.131071 
L 294.511808 5.831696 
L 295.226047 2.773411 
L 296.654527 1.838495 
L 297.368767 1.100333 
L 298.083007 0.17334 
L 298.369528 -1 
L 298.369528 -1 
" clip-path="url(#p6037f1dca1)" style="fill: none; stroke: #d62728; stroke-width: 1.5; stroke-linecap: square"/>
   </g>
   <g id="line2d_27">
    <path d="M 70.240448 299.040154 
L 70.954687 299.112782 
L 71.668927 298.333685 
L 72.383167 298.432723 
L 73.097408 298.169943 
L 73.811647 297.645703 
L 74.525887 297.566473 
L 75.240127 297.013182 
L 75.954367 297.068643 
L 77.382847 296.177304 
L 78.097087 296.232765 
L 78.811328 295.767948 
L 82.382527 294.179383 
L 83.096767 293.939051 
L 83.811007 293.377837 
L 84.525248 293.299928 
L 85.239487 292.613266 
L 86.667968 292.321435 
L 87.382207 292.078462 
L 88.096447 291.423493 
L 89.524927 290.945471 
L 90.239167 290.434436 
L 90.953407 290.212591 
L 91.667648 289.675147 
L 92.381887 289.486315 
L 93.096127 288.764 
L 93.810367 288.789089 
L 95.238847 287.936044 
L 96.667327 287.529329 
L 97.381568 286.948308 
L 98.095807 286.153365 
L 98.810047 286.259005 
L 99.524287 285.623843 
L 100.238527 285.462742 
L 100.952767 285.106206 
L 101.667007 285.079796 
L 102.381247 284.426147 
L 103.095488 284.081496 
L 103.809727 283.380309 
L 104.523967 283.170349 
L 105.952447 282.286932 
L 106.666687 282.099421 
L 107.380927 281.552732 
L 108.095167 281.542168 
L 109.523647 280.566317 
L 110.237887 280.134512 
L 110.952127 279.554811 
L 111.666367 279.23525 
L 112.380608 278.541986 
L 113.094848 278.020387 
L 113.809087 278.099617 
L 114.523327 277.270341 
L 115.237567 276.886075 
L 115.951807 276.860985 
L 116.666048 276.310335 
L 117.380287 275.940595 
L 118.094527 274.95814 
L 118.808767 274.803641 
L 119.523007 274.124903 
L 120.237247 274.03775 
L 120.951487 273.701021 
L 121.665728 273.056616 
L 122.379967 272.734413 
L 123.094207 272.22734 
L 123.808447 271.386179 
L 124.522688 271.115476 
L 125.236928 270.41693 
L 127.379647 269.400143 
L 128.093887 268.881185 
L 128.808128 268.537854 
L 129.522368 267.736309 
L 130.236607 267.361286 
L 130.950847 266.481831 
L 132.379327 265.957591 
L 133.093568 265.002868 
L 133.807807 264.375629 
L 134.522047 264.390154 
L 135.236287 263.640109 
L 135.950527 263.600494 
L 136.664767 262.717077 
L 138.093247 261.864032 
L 138.807487 261.246037 
L 140.235967 260.456376 
L 140.950208 259.633702 
L 141.664447 259.398653 
L 143.092928 258.272264 
L 143.807167 257.831216 
L 144.521407 256.731237 
L 145.235647 256.682378 
L 145.949887 255.806885 
L 146.664128 255.566553 
L 147.378367 254.753123 
L 148.092607 254.50751 
L 148.806847 254.073064 
L 149.521087 252.951957 
L 150.235327 253.019303 
L 151.663807 251.181162 
L 152.378047 250.696538 
L 153.092287 250.560526 
L 153.806527 249.930646 
L 154.520768 249.134383 
L 155.235007 248.931025 
L 156.663487 248.23512 
L 158.091968 246.917258 
L 158.806207 245.382833 
L 159.520447 245.802753 
L 160.234687 245.221732 
L 160.948927 244.216829 
L 161.663168 243.721641 
L 162.377408 243.06403 
L 163.091647 242.232113 
L 165.234367 240.541869 
L 166.662847 239.02065 
L 167.377087 239.051021 
L 168.091327 238.051401 
L 168.805567 238.106862 
L 169.519808 237.138933 
L 170.948287 236.172325 
L 171.662527 234.917847 
L 172.376767 234.043674 
L 173.091007 234.031789 
L 173.805248 233.531319 
L 174.519487 232.332302 
L 175.233727 231.804101 
L 175.947967 231.8556 
L 176.662207 230.417572 
L 178.090688 229.539438 
L 179.519167 227.879566 
L 180.233407 227.589055 
L 180.947647 227.170455 
L 181.661887 226.288359 
L 182.376127 224.870139 
L 183.090367 225.390417 
L 183.804608 224.198003 
L 184.518847 224.440976 
L 185.233087 223.451919 
L 185.947328 222.248941 
L 186.661567 221.347037 
L 187.375807 221.010309 
L 188.090047 219.7281 
L 188.804287 220.064829 
L 189.518527 219.038798 
L 190.232767 218.342893 
L 190.947007 218.09992 
L 191.661248 216.623598 
L 192.375487 216.581341 
L 193.803967 214.73924 
L 194.518207 214.512113 
L 195.232448 213.449108 
L 195.946687 213.369878 
L 197.375167 211.187087 
L 198.089407 211.378559 
L 199.517888 210.001275 
L 200.232127 208.849796 
L 200.946367 208.378377 
L 202.374847 206.851875 
L 203.089088 205.502321 
L 203.803327 205.091644 
L 204.517567 204.986004 
L 205.231807 203.512323 
L 206.660288 201.972616 
L 207.374527 201.705875 
L 208.803007 200.027515 
L 209.517247 199.27747 
L 210.231487 198.330669 
L 210.945728 198.107504 
L 211.659967 197.44197 
L 213.088447 195.058462 
L 213.802687 194.863028 
L 214.516927 194.091854 
L 215.231167 193.549127 
L 215.945407 192.468956 
L 216.659647 192.13883 
L 218.088127 189.658925 
L 218.802368 189.866244 
L 219.516607 189.339364 
L 220.230847 187.775888 
L 220.945087 187.552723 
L 221.659327 186.920202 
L 222.373567 184.891909 
L 223.087807 184.874743 
L 223.802047 184.405964 
L 224.516287 183.24128 
L 225.230528 182.808155 
L 225.944767 181.764958 
L 226.659008 181.541793 
L 227.373247 180.453699 
L 228.087487 179.844947 
L 228.801727 177.77968 
L 229.515967 177.475964 
L 230.230208 176.724598 
L 230.944447 175.60085 
L 231.658687 175.472761 
L 232.372927 174.13113 
L 233.087167 174.334487 
L 233.801408 172.481822 
L 234.515647 173.428622 
L 235.229887 171.450509 
L 235.944127 170.790257 
L 236.658367 169.772149 
L 237.372608 169.397127 
L 238.086847 168.125482 
L 238.801087 167.487679 
L 239.515327 166.49202 
L 240.229568 165.780269 
L 240.943807 164.701418 
L 241.658047 164.055692 
L 242.372287 164.323754 
L 243.086527 162.210949 
L 243.800768 161.909874 
L 244.515007 161.298481 
L 245.229247 160.453359 
L 245.943488 159.305842 
L 246.657727 158.823859 
L 248.086207 157.022692 
L 249.514688 154.416019 
L 250.228927 154.488647 
L 250.943168 153.143054 
L 251.657407 152.205497 
L 252.371647 150.962904 
L 253.085887 150.914045 
L 253.800127 149.903861 
L 254.514367 148.440743 
L 255.228607 148.263796 
L 255.942847 147.676172 
L 256.657087 147.239085 
L 257.371328 145.666366 
L 258.085568 144.75654 
L 258.799807 144.261351 
L 259.514048 142.548659 
L 261.656768 140.431892 
L 262.371007 138.894827 
L 263.085247 137.718258 
L 263.799487 137.304941 
L 264.513728 136.381909 
L 265.227967 136.006886 
L 265.942207 134.826357 
L 266.656448 135.027073 
L 267.370687 133.882197 
L 268.084927 132.13253 
L 268.799167 131.540945 
L 269.513407 129.981431 
L 270.227647 129.566793 
L 270.941887 128.254213 
L 271.656128 128.395507 
L 272.370367 126.25233 
L 273.084608 125.325337 
L 273.798847 125.470593 
L 274.513087 123.583594 
L 275.227328 122.83883 
L 275.941567 122.65396 
L 276.655807 121.254226 
L 277.370047 120.586052 
L 278.084287 119.420048 
L 278.798527 118.754514 
L 279.512767 117.195 
L 280.227008 116.900528 
L 280.941247 116.911092 
L 281.655487 115.06767 
L 282.369728 114.654352 
L 283.083967 112.301216 
L 283.798207 112.162563 
L 284.512447 111.720194 
L 285.226687 110.514575 
L 285.940927 108.815088 
L 286.655168 109.021086 
L 287.369408 109.00524 
L 288.083647 106.693039 
L 288.797888 105.530997 
L 289.512127 104.990911 
L 290.226367 103.673049 
L 290.940607 102.856978 
L 291.654847 102.800196 
L 292.369087 101.115234 
L 293.083327 100.268792 
L 293.797568 98.674945 
L 294.511808 98.424049 
L 295.226047 97.76908 
L 295.940288 96.311244 
L 296.654527 96.098643 
L 297.368767 93.997723 
L 298.083007 93.983197 
L 298.797247 93.233152 
L 299.511487 91.016027 
L 300.225727 90.343891 
L 300.939967 88.262778 
L 301.654207 88.509712 
L 302.368448 87.889076 
L 303.082688 85.303531 
L 303.796927 85.893796 
L 304.511167 84.627433 
L 305.225407 83.886631 
L 305.939647 83.409929 
L 306.653887 81.62593 
L 307.368127 81.203369 
L 308.082367 79.760059 
L 308.796607 78.81854 
L 310.225087 76.176214 
L 310.939327 76.650274 
L 311.653568 74.979838 
L 312.367807 74.45956 
L 313.082047 72.250358 
L 313.796287 72.249038 
L 314.510527 70.956265 
L 315.224767 68.677077 
L 315.939008 69.400713 
L 316.653248 66.989474 
L 317.367487 67.273382 
L 318.081727 65.342807 
L 318.795967 65.177744 
L 319.510207 63.747639 
L 320.224447 63.35677 
L 320.938687 61.735192 
L 321.652927 61.374695 
L 322.367167 58.977982 
L 323.081407 59.176058 
L 323.795648 56.34754 
L 324.509887 57.443558 
L 325.938367 54.714078 
L 326.652607 53.673521 
L 327.366848 52.420364 
L 328.081087 51.416782 
L 328.795327 51.28209 
L 329.509567 48.856326 
L 330.223807 48.667494 
L 331.652287 46.393588 
L 332.366528 45.556389 
L 333.795007 43.398687 
L 334.509247 43.160997 
L 335.223487 41.880109 
L 335.937727 39.570549 
L 336.651967 38.220995 
L 337.366207 38.561684 
L 338.794688 35.620924 
L 339.508928 35.482271 
L 340.223167 34.345318 
L 340.937408 32.184975 
L 341.651647 32.331551 
L 342.365887 31.949926 
L 343.080127 29.751288 
L 344.508607 27.964647 
L 345.222847 26.022187 
L 345.937088 26.679798 
L 346.651327 24.635659 
L 347.365567 24.172163 
L 348.079808 21.830911 
L 348.794047 22.93089 
L 349.508287 20.638497 
L 351.651007 16.622847 
L 353.079487 14.984103 
L 353.793727 13.156526 
L 354.507968 12.716799 
L 355.222207 10.720198 
L 355.936447 10.523443 
L 356.650688 8.62588 
L 356.650688 8.904506 
L 363.443119 -1 
L 363.443119 -1 
" clip-path="url(#p6037f1dca1)" style="fill: none; stroke: #9467bd; stroke-width: 1.5; stroke-linecap: square"/>
   </g>
   <g id="line2d_28">
    <path d="M 70.240448 299.465356 
L 71.668927 299.157679 
L 73.097408 298.514594 
L 73.811647 298.773413 
L 74.525887 298.160699 
L 75.240127 298.052418 
L 76.668607 297.235027 
L 77.382847 297.121463 
L 78.097087 296.654005 
L 78.811328 296.661928 
L 80.239807 295.778512 
L 80.954048 295.750781 
L 81.668287 295.292567 
L 84.525248 294.232203 
L 85.239487 293.80568 
L 85.953727 293.653822 
L 86.667968 293.113737 
L 88.096447 292.523472 
L 88.810688 292.411229 
L 89.524927 291.982066 
L 90.239167 292.028283 
L 91.667648 290.621947 
L 92.381887 290.879446 
L 93.096127 290.179579 
L 93.810367 290.180899 
L 94.524607 289.661942 
L 95.238847 289.502161 
L 96.667327 288.37181 
L 97.381568 288.341439 
L 98.095807 288.058851 
L 98.810047 287.653457 
L 99.524287 287.413125 
L 101.667007 286.005469 
L 102.381247 286.384453 
L 103.095488 285.622523 
L 103.809727 285.126014 
L 105.238208 284.651953 
L 105.952447 283.854369 
L 106.666687 283.940202 
L 107.380927 283.312963 
L 108.095167 283.126772 
L 108.809407 282.808531 
L 110.237887 281.602912 
L 110.952127 281.628001 
L 111.666367 281.029813 
L 112.380608 281.035095 
L 113.809087 279.968129 
L 114.523327 279.750246 
L 115.951807 278.688561 
L 116.666048 278.320141 
L 117.380287 278.136591 
L 118.094527 277.596505 
L 118.808767 277.47766 
L 120.237247 276.254874 
L 120.951487 276.155837 
L 121.665728 275.143011 
L 122.379967 275.27374 
L 123.094207 275.267138 
L 123.808447 274.408811 
L 124.522688 273.999455 
L 125.236928 273.182064 
L 125.951167 273.154333 
L 126.665407 272.462389 
L 127.379647 272.080764 
L 128.093887 271.920983 
L 129.522368 270.922683 
L 130.236607 270.872504 
L 130.950847 269.612744 
L 131.665087 269.843832 
L 132.379327 268.845532 
L 133.093568 268.821763 
L 133.807807 268.34242 
L 134.522047 267.600297 
L 135.236287 267.771963 
L 135.950527 266.722163 
L 137.379008 265.748952 
L 138.093247 265.752913 
L 138.807487 264.755934 
L 139.521727 264.705755 
L 140.235967 264.318847 
L 140.950208 264.126054 
L 141.664447 263.283573 
L 142.378687 262.760654 
L 143.092928 262.577104 
L 143.807167 261.776879 
L 144.521407 261.886481 
L 145.949887 260.558054 
L 146.664128 260.250377 
L 147.378367 259.293013 
L 148.806847 258.293392 
L 149.521087 257.934215 
L 150.949568 256.943838 
L 151.663807 256.68634 
L 152.378047 255.775192 
L 153.092287 255.503169 
L 153.806527 254.280383 
L 154.520768 254.780854 
L 155.949247 253.231904 
L 156.663487 253.151353 
L 157.377727 252.241526 
L 158.091968 252.105514 
L 158.806207 251.688236 
L 160.234687 249.978184 
L 160.948927 250.064017 
L 161.663168 249.164754 
L 162.377408 249.279638 
L 163.091647 248.386978 
L 163.805887 247.725406 
L 164.520127 247.955173 
L 165.234367 247.177397 
L 165.948608 246.212109 
L 166.662847 245.703716 
L 167.377087 244.756915 
L 168.091327 244.651275 
L 168.805567 243.963293 
L 169.519808 243.592231 
L 170.234048 243.06271 
L 170.948287 242.152883 
L 171.662527 242.521303 
L 172.376767 240.607894 
L 173.805248 240.680522 
L 174.519487 239.419442 
L 175.233727 239.280789 
L 175.947967 238.458115 
L 176.662207 238.278527 
L 177.376447 237.227407 
L 178.804927 235.967647 
L 179.519167 235.81843 
L 180.233407 235.107999 
L 180.947647 234.858424 
L 181.661887 234.802963 
L 182.376127 233.702984 
L 183.090367 232.919926 
L 183.804608 232.449827 
L 184.518847 231.679973 
L 185.233087 230.742416 
L 185.947328 231.162336 
L 186.661567 229.62395 
L 187.375807 229.474733 
L 188.090047 228.925404 
L 188.804287 228.234781 
L 189.518527 227.701298 
L 190.232767 226.948611 
L 190.947007 226.457384 
L 191.661248 225.593775 
L 192.375487 225.603018 
L 193.089727 224.669423 
L 193.803967 224.007851 
L 195.232448 222.35194 
L 195.946687 222.453619 
L 196.660927 221.266486 
L 197.375167 221.473805 
L 198.089407 220.406839 
L 198.803648 219.827138 
L 199.517888 218.741684 
L 200.232127 218.085394 
L 200.946367 218.209522 
L 201.660607 217.592847 
L 203.089088 215.60681 
L 203.803327 215.472119 
L 205.231807 214.048617 
L 205.946047 214.284987 
L 206.660288 212.8496 
L 207.374527 212.308194 
L 208.088767 211.493443 
L 208.803007 210.504386 
L 209.517247 210.072582 
L 210.231487 210.025044 
L 210.945728 208.796976 
L 211.659967 208.278018 
L 212.374207 208.326877 
L 213.088447 208.237083 
L 213.802687 206.725107 
L 214.516927 205.498359 
L 215.231167 204.847351 
L 215.945407 203.957332 
L 217.373887 203.166351 
L 218.088127 202.541753 
L 218.802368 202.263127 
L 219.516607 201.511761 
L 220.230847 200.189937 
L 220.945087 199.161265 
L 221.659327 198.446873 
L 222.373567 198.559116 
L 223.087807 198.225029 
L 223.802047 196.800206 
L 224.516287 196.369722 
L 225.230528 195.486305 
L 225.944767 195.484985 
L 226.659008 194.757388 
L 227.373247 193.417077 
L 228.087487 192.882273 
L 228.801727 192.92717 
L 229.515967 191.725513 
L 231.658687 189.126763 
L 232.372927 188.820406 
L 233.087167 187.869644 
L 233.801408 187.390301 
L 234.515647 187.173739 
L 235.229887 186.129221 
L 236.658367 184.773064 
L 237.372608 183.52783 
L 238.086847 183.276934 
L 238.801087 182.463504 
L 239.515327 182.58367 
L 240.229568 180.77326 
L 240.943807 180.074714 
L 241.658047 180.37843 
L 242.372287 179.125272 
L 243.086527 177.499733 
L 243.800768 178.01737 
L 244.515007 176.764213 
L 245.229247 176.225448 
L 247.371968 174.102079 
L 248.086207 172.866088 
L 250.228927 171.326381 
L 250.943168 170.112839 
L 251.657407 169.988712 
L 252.371647 168.104354 
L 253.085887 168.664247 
L 253.800127 167.211694 
L 255.228607 166.132843 
L 257.371328 162.991366 
L 258.085568 162.675766 
L 258.799807 162.133039 
L 259.514048 161.927041 
L 262.371007 157.797828 
L 263.085247 157.577304 
L 263.799487 156.309621 
L 264.513728 155.821035 
L 265.227967 155.828958 
L 265.942207 154.599569 
L 266.656448 153.720114 
L 267.370687 153.149657 
L 268.084927 152.379804 
L 268.799167 149.775772 
L 269.513407 150.660509 
L 270.227647 150.37396 
L 271.656128 147.983849 
L 272.370367 147.468853 
L 275.227328 143.73315 
L 275.941567 143.848034 
L 276.655807 142.839169 
L 277.370047 141.343039 
L 278.798527 140.381713 
L 279.512767 139.635629 
L 280.227008 138.106486 
L 280.941247 137.337954 
L 281.655487 137.363043 
L 282.369728 137.139878 
L 283.798207 135.363801 
L 284.512447 133.587725 
L 285.226687 132.790141 
L 285.940927 132.824474 
L 286.655168 131.283447 
L 288.083647 130.091033 
L 288.797888 128.699223 
L 289.512127 128.19347 
L 290.226367 127.906921 
L 291.654847 126.27742 
L 292.369087 125.644899 
L 293.083327 124.179141 
L 293.797568 123.793554 
L 294.511808 122.407026 
L 295.226047 122.179899 
L 295.940288 120.436835 
L 296.654527 120.545116 
L 297.368767 119.935044 
L 298.083007 118.094263 
L 298.797247 117.881662 
L 299.511487 117.007489 
L 300.225727 115.168028 
L 300.939967 115.061067 
L 301.654207 113.49363 
L 302.368448 113.699628 
L 303.082688 112.913929 
L 303.796927 111.029571 
L 304.511167 111.802066 
L 305.225407 109.908464 
L 305.939647 108.561551 
L 306.653887 107.814146 
L 307.368127 107.729634 
L 308.082367 106.788115 
L 308.796607 106.366875 
L 309.510848 105.037128 
L 310.225087 104.35839 
L 310.939327 101.959036 
L 311.653568 102.007894 
L 312.367807 101.614385 
L 313.082047 100.596277 
L 313.796287 99.884526 
L 314.510527 98.232576 
L 315.224767 97.903771 
L 315.939008 96.935842 
L 317.367487 95.900568 
L 318.081727 95.17033 
L 318.795967 94.119209 
L 319.510207 92.097519 
L 320.938687 90.380865 
L 321.652927 90.170905 
L 323.081407 88.224484 
L 323.795648 87.762308 
L 324.509887 87.055838 
L 325.224128 85.38012 
L 325.938367 85.395966 
L 326.652607 84.874367 
L 327.366848 82.653281 
L 328.081087 81.540097 
L 328.795327 82.196387 
L 329.509567 81.000011 
L 330.223807 80.10339 
L 332.366528 76.576326 
L 333.080767 76.016433 
L 334.509247 73.639527 
L 335.223487 73.54049 
L 336.651967 71.25734 
L 337.366207 70.099259 
L 338.080447 70.336949 
L 338.794688 69.718954 
L 339.508928 67.175665 
L 340.223167 66.808565 
L 341.651647 65.341486 
L 342.365887 63.781972 
L 343.080127 62.955337 
L 343.794367 63.521833 
L 344.508607 61.799897 
L 345.222847 62.037588 
L 345.937088 59.39262 
L 346.651327 59.07834 
L 347.365567 58.522409 
L 348.079808 56.03326 
L 348.794047 56.700114 
L 349.508287 54.027416 
L 350.222527 53.829341 
L 351.651007 51.102502 
L 352.365247 52.67258 
L 353.079487 51.292654 
L 354.507968 48.140614 
L 355.222207 46.891418 
L 355.936447 46.561292 
L 356.650688 46.093834 
L 356.650688 45.622414 
L 363.078847 36.793531 
L 375.935167 20.303089 
L 382.363327 9.919973 
L 388.791487 2.435362 
L 391.157869 -1 
L 391.157869 -1 
" clip-path="url(#p6037f1dca1)" style="fill: none; stroke: #8c564b; stroke-width: 1.5; stroke-linecap: square"/>
   </g>
   <g id="line2d_29">
    <path d="M 70.240448 299.721534 
L 70.954687 299.677957 
L 72.383167 298.81963 
L 73.097408 298.770772 
L 73.811647 298.18843 
L 74.525887 298.394428 
L 75.240127 297.851702 
L 75.954367 297.808125 
L 76.668607 297.29709 
L 77.382847 297.072605 
L 78.097087 296.651364 
L 80.239807 296.090151 
L 81.668287 295.287285 
L 83.096767 295.044312 
L 83.811007 294.436881 
L 84.525248 294.216357 
L 85.239487 294.11996 
L 85.953727 293.408209 
L 86.667968 293.173159 
L 87.382207 292.707022 
L 88.096447 292.726829 
L 89.524927 292.141846 
L 90.239167 291.657222 
L 91.667648 291.1792 
L 92.381887 290.842471 
L 93.096127 290.747395 
L 93.810367 290.105631 
L 95.953087 289.483674 
L 96.667327 288.808897 
L 97.381568 288.55536 
L 98.095807 287.973018 
L 99.524287 287.55706 
L 100.238527 286.931141 
L 101.667007 286.48217 
L 102.381247 286.11375 
L 103.095488 286.177134 
L 103.809727 285.609318 
L 104.523967 284.679684 
L 105.238208 284.603095 
L 106.666687 284.193739 
L 107.380927 283.604794 
L 108.095167 283.216566 
L 108.809407 283.162426 
L 109.523647 282.4652 
L 110.237887 282.305419 
L 111.666367 281.36258 
L 112.380608 281.132812 
L 113.094848 280.492369 
L 113.809087 280.166204 
L 114.523327 280.114705 
L 115.237567 279.39503 
L 115.951807 279.10584 
L 116.666048 278.52878 
L 117.380287 278.460114 
L 118.094527 278.229026 
L 118.808767 277.473699 
L 119.523007 277.202995 
L 120.237247 276.734217 
L 120.951487 276.53218 
L 121.665728 276.142631 
L 122.379967 275.446726 
L 123.094207 275.286946 
L 123.808447 274.551425 
L 124.522688 274.427298 
L 125.236928 273.533317 
L 125.951167 273.579535 
L 126.665407 272.62217 
L 127.379647 272.917963 
L 128.808128 271.543319 
L 129.522368 271.897214 
L 130.236607 271.287142 
L 130.950847 270.518609 
L 131.665087 270.088125 
L 132.379327 269.920421 
L 133.093568 269.475412 
L 133.807807 268.816481 
L 134.522047 268.330535 
L 135.236287 267.668963 
L 137.379008 266.929482 
L 138.807487 265.982681 
L 139.521727 265.054367 
L 140.950208 264.428449 
L 142.378687 263.193779 
L 143.092928 263.185856 
L 143.807167 262.738205 
L 144.521407 262.001364 
L 145.949887 261.14964 
L 146.664128 260.433927 
L 147.378367 260.459017 
L 148.092607 259.648228 
L 148.806847 259.044758 
L 149.521087 258.943079 
L 150.235327 258.278866 
L 150.949568 258.006843 
L 151.663807 257.139272 
L 152.378047 256.559571 
L 153.092287 256.452611 
L 153.806527 256.098716 
L 154.520768 254.914224 
L 155.235007 254.934032 
L 155.949247 254.599945 
L 156.663487 253.571273 
L 157.377727 252.921585 
L 158.091968 253.061559 
L 158.806207 252.529396 
L 160.234687 250.93951 
L 160.948927 250.565808 
L 161.663168 250.341322 
L 162.377408 249.747096 
L 163.091647 249.391881 
L 163.805887 249.669186 
L 164.520127 248.145326 
L 165.234367 247.952532 
L 166.662847 247.114013 
L 167.377087 246.892168 
L 168.091327 245.435654 
L 168.805567 244.965554 
L 169.519808 244.676364 
L 170.234048 243.749371 
L 170.948287 243.402079 
L 171.662527 243.420566 
L 173.091007 241.439811 
L 173.805248 241.785783 
L 175.233727 240.073091 
L 175.947967 240.199859 
L 177.376447 238.615255 
L 178.090688 238.649588 
L 178.804927 237.8388 
L 179.519167 237.234009 
L 180.233407 236.799564 
L 180.947647 235.84484 
L 181.661887 235.159499 
L 182.376127 234.841258 
L 183.090367 234.859745 
L 184.518847 232.926528 
L 185.233087 233.317397 
L 185.947328 231.703742 
L 186.661567 231.570372 
L 187.375807 231.14517 
L 188.090047 229.831269 
L 188.804287 229.767885 
L 189.518527 229.577732 
L 190.232767 229.692616 
L 190.947007 228.401164 
L 191.661248 227.587734 
L 192.375487 227.166494 
L 193.089727 226.207809 
L 193.803967 226.111412 
L 194.518207 225.601698 
L 195.232448 224.446258 
L 195.946687 224.809396 
L 196.660927 223.183857 
L 197.375167 223.400419 
L 198.089407 222.262146 
L 199.517888 221.508138 
L 200.232127 220.847887 
L 200.946367 219.914291 
L 201.660607 219.536627 
L 202.374847 219.452115 
L 203.089088 217.763192 
L 203.803327 217.888639 
L 204.517567 217.367041 
L 205.231807 216.561534 
L 205.946047 216.576059 
L 206.660288 215.433824 
L 207.374527 214.813188 
L 208.088767 214.493626 
L 208.803007 213.538902 
L 210.231487 212.651524 
L 210.945728 211.848659 
L 211.659967 211.66907 
L 212.374207 210.727551 
L 213.088447 210.009198 
L 213.802687 208.873565 
L 214.516927 209.330459 
L 215.231167 208.296505 
L 215.945407 207.714163 
L 216.659647 206.416109 
L 217.373887 207.370833 
L 218.088127 205.993548 
L 219.516607 204.305945 
L 220.230847 204.065614 
L 220.945087 203.488554 
L 221.659327 201.925078 
L 222.373567 201.925078 
L 223.087807 201.311044 
L 223.802047 200.291616 
L 224.516287 199.501955 
L 225.230528 199.344815 
L 225.944767 198.916972 
L 226.659008 197.805109 
L 227.373247 197.665135 
L 228.087487 196.18089 
L 228.801727 195.461216 
L 229.515967 195.688342 
L 230.230208 195.720034 
L 231.658687 193.66005 
L 232.372927 193.512153 
L 233.087167 191.730795 
L 233.801408 191.638359 
L 234.515647 190.597803 
L 235.229887 190.308613 
L 235.944127 188.417652 
L 236.658367 188.626292 
L 237.372608 188.425575 
L 238.086847 187.328237 
L 238.801087 187.024522 
L 240.229568 185.435957 
L 240.943807 184.994909 
L 241.658047 183.647995 
L 242.372287 183.741751 
L 243.086527 182.6629 
L 244.515007 181.487652 
L 245.229247 181.330513 
L 245.943488 179.654794 
L 246.657727 179.419745 
L 247.371968 179.502936 
L 248.086207 178.35806 
L 248.800447 177.736103 
L 249.514688 176.880417 
L 250.228927 176.358819 
L 250.943168 175.302416 
L 251.657407 175.029072 
L 252.371647 174.133771 
L 253.085887 172.34713 
L 253.800127 172.731397 
L 254.514367 171.648584 
L 255.228607 170.124724 
L 255.942847 170.400709 
L 256.657087 170.416555 
L 257.371328 168.61935 
L 258.799807 168.664247 
L 260.942527 165.471271 
L 261.656768 164.903455 
L 262.371007 164.744994 
L 263.085247 163.115494 
L 263.799487 162.769522 
L 264.513728 163.034943 
L 265.227967 160.997407 
L 265.942207 161.410724 
L 266.656448 159.69407 
L 267.370687 158.850269 
L 268.084927 158.875358 
L 268.799167 158.104184 
L 269.513407 156.876117 
L 270.227647 156.623901 
L 270.941887 154.835939 
L 271.656128 156.292454 
L 272.370367 154.141355 
L 273.084608 153.135131 
L 273.798847 152.708609 
L 274.513087 152.991197 
L 275.227328 151.911025 
L 275.941567 151.269261 
L 276.655807 149.852361 
L 277.370047 150.302652 
L 278.798527 147.241726 
L 279.512767 147.726351 
L 280.227008 145.960838 
L 280.941247 145.795776 
L 281.655487 144.851616 
L 282.369728 144.175518 
L 283.083967 144.051391 
L 283.798207 143.042527 
L 284.512447 141.840869 
L 285.226687 141.8171 
L 286.655168 139.780884 
L 288.083647 138.476227 
L 288.797888 138.124973 
L 289.512127 136.560177 
L 290.226367 135.849747 
L 290.940607 135.444352 
L 291.654847 135.556595 
L 293.083327 132.658091 
L 293.797568 132.757128 
L 294.511808 132.095556 
L 295.226047 130.277224 
L 295.940288 129.331744 
L 296.654527 129.513973 
L 297.368767 129.170642 
L 298.083007 127.505488 
L 298.797247 127.465873 
L 299.511487 126.350048 
L 300.939967 124.641317 
L 301.654207 124.884289 
L 303.082688 122.094066 
L 303.796927 121.983144 
L 304.511167 120.893729 
L 305.225407 120.339118 
L 305.939647 119.233857 
L 306.653887 118.894487 
L 307.368127 117.909392 
L 308.082367 116.686606 
L 308.796607 116.665478 
L 309.510848 115.484949 
L 310.225087 114.565878 
L 310.939327 114.709813 
L 311.653568 113.082954 
L 312.367807 113.023531 
L 313.082047 111.868091 
L 313.796287 111.503632 
L 314.510527 110.773394 
L 315.939008 108.764909 
L 316.653248 109.120124 
L 317.367487 107.375739 
L 319.510207 104.246147 
L 320.224447 103.96488 
L 320.938687 104.222378 
L 321.652927 102.007894 
L 322.367167 102.755299 
L 323.081407 101.385937 
L 323.795648 100.317651 
L 325.224128 99.275774 
L 325.938367 98.017334 
L 326.652607 97.909053 
L 327.366848 96.129015 
L 328.081087 95.349918 
L 328.795327 94.972254 
L 329.509567 92.743245 
L 330.223807 92.893782 
L 330.938047 92.538567 
L 331.652287 90.916989 
L 332.366528 90.57762 
L 333.080767 89.991317 
L 333.795007 88.89662 
L 334.509247 88.569135 
L 335.223487 87.947178 
L 335.937727 86.326921 
L 336.651967 86.379741 
L 338.080447 83.456147 
L 338.794688 83.812683 
L 339.508928 82.249207 
L 340.223167 81.629891 
L 340.937408 81.801557 
L 341.651647 80.727988 
L 342.365887 79.255627 
L 343.080127 78.718182 
L 343.794367 76.938144 
L 344.508607 76.339956 
L 345.222847 76.844388 
L 345.937088 75.018133 
L 346.651327 74.441073 
L 347.365567 73.434849 
L 348.079808 72.836662 
L 348.794047 72.506536 
L 349.508287 70.939099 
L 350.222527 70.366 
L 350.936767 69.564455 
L 352.365247 67.254895 
L 353.079487 67.662931 
L 353.793727 67.209998 
L 354.507968 64.403929 
L 355.222207 64.571633 
L 355.936447 63.818946 
L 356.650688 62.637096 
L 356.650688 62.901197 
L 363.078847 55.523546 
L 369.507007 47.331145 
L 375.935167 39.9152 
L 382.363327 32.315705 
L 388.791487 25.289308 
L 401.647807 10.364983 
L 408.075967 1.499125 
L 410.029034 -1 
L 410.029034 -1 
" clip-path="url(#p6037f1dca1)" style="fill: none; stroke: #e377c2; stroke-width: 1.5; stroke-linecap: square"/>
   </g>
   <g id="line2d_30">
    <path d="M 70.240448 299.757187 
L 71.668927 299.194653 
L 72.383167 299.181448 
L 73.811647 298.331044 
L 74.525887 298.201635 
L 75.240127 297.818689 
L 75.954367 297.640421 
L 76.668607 297.719651 
L 78.811328 296.319918 
L 79.525567 296.150894 
L 80.239807 296.264457 
L 80.954048 295.738897 
L 81.668287 295.476117 
L 82.382527 295.087889 
L 83.096767 294.949236 
L 83.811007 294.615149 
L 84.525248 294.117319 
L 85.239487 294.151652 
L 86.667968 293.071481 
L 87.382207 293.052994 
L 88.096447 292.758521 
L 88.810688 292.306909 
L 89.524927 292.269935 
L 92.381887 290.856997 
L 93.096127 290.390859 
L 95.953087 289.337098 
L 96.667327 289.090164 
L 97.381568 288.63327 
L 98.095807 287.917557 
L 99.524287 287.555739 
L 100.238527 287.224293 
L 100.952767 287.097525 
L 101.667007 286.537631 
L 102.381247 285.72024 
L 103.095488 285.762496 
L 103.809727 285.992264 
L 104.523967 284.916054 
L 105.238208 284.574043 
L 105.952447 284.373327 
L 106.666687 283.612717 
L 107.380927 283.90851 
L 108.095167 283.113567 
L 108.809407 283.150541 
L 110.237887 281.956806 
L 110.952127 281.99378 
L 111.666367 281.212043 
L 112.380608 281.266183 
L 114.523327 279.669695 
L 115.237567 279.528401 
L 115.951807 279.068866 
L 116.666048 279.029251 
L 117.380287 278.429743 
L 118.094527 278.128668 
L 118.808767 277.076227 
L 119.523007 277.45125 
L 123.094207 275.148293 
L 123.808447 275.228843 
L 125.236928 273.735354 
L 125.951167 273.858161 
L 126.665407 273.09491 
L 127.379647 272.821566 
L 128.093887 272.204891 
L 128.808128 272.153392 
L 129.522368 271.633114 
L 130.236607 270.856658 
L 130.950847 270.712723 
L 132.379327 269.376374 
L 133.093568 268.700276 
L 133.807807 268.953813 
L 134.522047 268.669905 
L 135.236287 267.485413 
L 135.950527 267.402222 
L 136.664767 266.891187 
L 137.379008 266.629728 
L 138.093247 266.043424 
L 138.807487 265.29734 
L 140.235967 265.214148 
L 140.950208 264.411282 
L 142.378687 263.068331 
L 143.092928 262.96005 
L 143.807167 263.003626 
L 144.521407 261.882519 
L 145.235647 261.341113 
L 145.949887 261.143037 
L 146.664128 260.575221 
L 147.378367 260.452414 
L 148.092607 260.068148 
L 149.521087 258.198316 
L 150.235327 258.475621 
L 150.949568 257.886677 
L 151.663807 257.802165 
L 152.378047 256.805185 
L 153.092287 256.195112 
L 153.806527 256.335086 
L 154.520768 255.031749 
L 155.235007 254.458651 
L 156.663487 254.409792 
L 157.377727 253.469594 
L 158.091968 252.895175 
L 158.806207 252.88065 
L 159.520447 251.953657 
L 160.234687 251.418853 
L 160.948927 250.404707 
L 163.091647 249.335099 
L 164.520127 248.228518 
L 165.948608 247.481113 
L 166.662847 246.613542 
L 167.377087 246.639952 
L 169.519808 244.721261 
L 170.234048 244.478289 
L 170.948287 244.03592 
L 171.662527 243.147222 
L 173.091007 241.878218 
L 174.519487 241.154583 
L 175.233727 240.058565 
L 175.947967 239.816913 
L 176.662207 239.299276 
L 177.376447 238.582243 
L 178.090688 238.293053 
L 178.804927 237.601109 
L 179.519167 237.686942 
L 180.233407 236.499809 
L 180.947647 236.135351 
L 181.661887 234.805604 
L 182.376127 235.047256 
L 184.518847 233.236846 
L 185.233087 232.925208 
L 186.661567 231.290425 
L 187.375807 230.927287 
L 188.090047 229.993691 
L 188.804287 229.981806 
L 189.518527 229.67677 
L 190.232767 228.723367 
L 190.947007 228.349665 
L 191.661248 228.222896 
L 192.375487 227.509825 
L 193.089727 226.145745 
L 193.803967 226.203847 
L 194.518207 225.604339 
L 195.232448 224.637731 
L 195.946687 223.906172 
L 196.660927 223.741109 
L 197.375167 222.709796 
L 198.089407 222.485311 
L 198.803648 221.764316 
L 199.517888 221.373447 
L 200.232127 220.677542 
L 200.946367 220.472864 
L 201.660607 219.474564 
L 202.374847 219.161604 
L 203.089088 217.963908 
L 203.803327 217.588885 
L 204.517567 217.345913 
L 205.231807 216.84016 
L 205.946047 216.095396 
L 206.660288 214.935995 
L 208.088767 213.950899 
L 208.803007 213.529659 
L 209.517247 214.010322 
L 210.231487 212.186707 
L 210.945728 211.587199 
L 211.659967 211.710006 
L 213.088447 210.079184 
L 213.802687 209.628893 
L 214.516927 209.606444 
L 215.231167 207.566267 
L 216.659647 206.825465 
L 217.373887 205.930164 
L 218.088127 205.907715 
L 218.802368 204.872441 
L 219.516607 204.780006 
L 220.230847 203.355183 
L 220.945087 203.311606 
L 221.659327 202.127115 
L 222.373567 201.333493 
L 223.087807 201.069392 
L 223.802047 200.090899 
L 224.516287 200.026195 
L 225.230528 198.993561 
L 225.944767 198.235593 
L 226.659008 197.938479 
L 228.087487 196.381606 
L 228.801727 195.993378 
L 229.515967 194.969989 
L 230.230208 194.523659 
L 230.944447 193.788138 
L 231.658687 192.805684 
L 232.372927 191.621193 
L 233.801408 192.208817 
L 234.515647 191.3769 
L 235.229887 189.695899 
L 235.944127 189.859642 
L 236.658367 189.22448 
L 238.086847 187.332199 
L 238.801087 187.223918 
L 240.229568 185.128279 
L 240.943807 185.47029 
L 241.658047 183.490856 
L 242.372287 183.080179 
L 243.086527 183.233357 
L 243.800768 182.101686 
L 244.515007 181.877201 
L 245.229247 180.256944 
L 245.943488 179.789486 
L 246.657727 179.641589 
L 247.371968 179.777601 
L 248.086207 178.787224 
L 248.800447 176.827597 
L 249.514688 176.823636 
L 250.228927 176.464459 
L 250.943168 175.327506 
L 253.085887 173.386366 
L 253.800127 172.113401 
L 254.514367 172.355053 
L 255.228607 170.984371 
L 255.942847 170.169621 
L 256.657087 169.745739 
L 257.371328 169.579356 
L 258.799807 167.702921 
L 259.514048 167.614447 
L 260.228287 166.595019 
L 260.942527 165.846294 
L 262.371007 164.935147 
L 263.085247 163.460145 
L 263.799487 162.682369 
L 264.513728 162.465806 
L 265.942207 160.004388 
L 266.656448 160.227553 
L 268.084927 158.900448 
L 268.799167 157.261704 
L 269.513407 157.091359 
L 270.227647 156.564478 
L 270.941887 156.41262 
L 271.656128 154.298495 
L 272.370367 155.069668 
L 273.084608 153.508834 
L 273.798847 152.929133 
L 274.513087 152.995158 
L 275.227328 150.825572 
L 275.941567 150.554869 
L 276.655807 150.455831 
L 278.084287 149.540722 
L 278.798527 147.575814 
L 279.512767 147.509788 
L 280.227008 146.768986 
L 280.941247 145.139486 
L 281.655487 144.776347 
L 282.369728 143.822944 
L 283.083967 143.601099 
L 284.512447 141.360206 
L 285.940927 140.247022 
L 286.655168 139.498296 
L 287.369408 139.425669 
L 288.083647 138.544893 
L 288.797888 136.735804 
L 289.512127 136.634125 
L 290.940607 135.650351 
L 292.369087 133.950863 
L 293.083327 133.190253 
L 293.797568 131.983314 
L 295.226047 131.719213 
L 295.940288 129.531139 
L 296.654527 128.942195 
L 297.368767 129.404371 
L 298.083007 128.585659 
L 298.797247 127.369476 
L 299.511487 126.652443 
L 300.225727 125.339863 
L 300.939967 124.515869 
L 301.654207 123.917681 
L 302.368448 122.925983 
L 303.082688 122.698857 
L 303.796927 121.334777 
L 304.511167 120.757717 
L 305.225407 119.836006 
L 305.939647 119.612841 
L 306.653887 118.74263 
L 307.368127 119.000128 
L 308.082367 117.349499 
L 309.510848 115.957689 
L 310.225087 114.502494 
L 310.939327 114.342713 
L 311.653568 113.052582 
L 312.367807 112.721136 
L 313.082047 112.570598 
L 313.796287 110.663792 
L 314.510527 109.563813 
L 315.224767 110.082771 
L 315.939008 108.169362 
L 316.653248 107.762647 
L 317.367487 106.986191 
L 318.081727 106.706244 
L 318.795967 104.981667 
L 319.510207 105.865084 
L 320.938687 102.950734 
L 321.652927 102.70512 
L 322.367167 101.054491 
L 323.081407 100.692673 
L 323.795648 99.866038 
L 324.509887 99.304825 
L 325.224128 98.392357 
L 325.938367 96.626845 
L 326.652607 97.232955 
L 327.366848 95.743428 
L 328.081087 95.126753 
L 328.795327 94.169388 
L 329.509567 93.866993 
L 330.223807 93.091858 
L 330.938047 92.818514 
L 331.652287 89.976791 
L 332.366528 90.589505 
L 333.795007 89.242591 
L 334.509247 88.03037 
L 335.223487 87.198453 
L 335.937727 87.047915 
L 336.651967 85.530657 
L 337.366207 85.471235 
L 338.080447 84.152052 
L 338.794688 83.182803 
L 339.508928 82.647999 
L 340.223167 81.854377 
L 341.651647 79.922481 
L 342.365887 79.844571 
L 343.080127 78.300903 
L 343.794367 77.611601 
L 344.508607 77.412205 
L 345.222847 75.236016 
L 345.937088 75.922677 
L 346.651327 73.017571 
L 347.365567 72.767995 
L 348.079808 72.637266 
L 348.794047 70.799125 
L 349.508287 71.96645 
L 350.222527 70.973432 
L 350.936767 68.704808 
L 351.651007 68.774794 
L 352.365247 67.620675 
L 353.793727 66.063801 
L 354.507968 65.492024 
L 355.222207 65.16718 
L 355.936447 63.232643 
L 356.650688 63.191707 
L 356.650688 62.643699 
L 369.507007 47.859346 
L 375.935167 40.542439 
L 382.363327 34.00991 
L 388.791487 25.701305 
L 395.219647 16.768102 
L 401.647807 10.281791 
L 408.075967 2.018083 
L 411.004394 -1 
L 411.004394 -1 
" clip-path="url(#p6037f1dca1)" style="fill: none; stroke: #ff7f0e; stroke-opacity: 0.4; stroke-width: 1.5; stroke-linecap: square"/>
   </g>
   <g id="line2d_31">
    <path d="M 70.240448 269.855294 
L 433.788607 49.609752 
L 433.788607 49.609752 
" clip-path="url(#p6037f1dca1)" style="fill: none; stroke-dasharray: 5.55,2.4; stroke-dashoffset: 0; stroke: #1f77b4; stroke-width: 1.5"/>
   </g>
   <g id="patch_3">
    <path d="M 70.954688 297.54825 
L 70.954688 31.43625 
" style="fill: none; stroke: #000000; stroke-width: 0.8; stroke-linejoin: miter; stroke-linecap: square"/>
   </g>
   <g id="patch_4">
    <path d="M 428.074687 297.54825 
L 428.074687 31.43625 
" style="fill: none; stroke: #000000; stroke-width: 0.8; stroke-linejoin: miter; stroke-linecap: square"/>
   </g>
   <g id="patch_5">
    <path d="M 70.954687 297.54825 
L 428.074687 297.54825 
" style="fill: none; stroke: #000000; stroke-width: 0.8; stroke-linejoin: miter; stroke-linecap: square"/>
   </g>
   <g id="patch_6">
    <path d="M 70.954687 31.43625 
L 428.074687 31.43625 
" style="fill: none; stroke: #000000; stroke-width: 0.8; stroke-linejoin: miter; stroke-linecap: square"/>
   </g>
   <g id="text_15">
    <!-- [[7, 1, 3]] Phenomenological -->
    <g transform="translate(78.707813 25.43625) scale(0.24 -0.24)">
     <defs>
      <path id="DejaVuSans-5b" d="M 550 4863 
L 1875 4863 
L 1875 4416 
L 1125 4416 
L 1125 -397 
L 1875 -397 
L 1875 -844 
L 550 -844 
L 550 4863 
z
" transform="scale(0.015625)"/>
      <path id="DejaVuSans-37" d="M 525 4666 
L 3525 4666 
L 3525 4397 
L 1831 0 
L 1172 0 
L 2766 4134 
L 525 4134 
L 525 4666 
z
" transform="scale(0.015625)"/>
      <path id="DejaVuSans-2c" d="M 750 794 
L 1409 794 
L 1409 256 
L 897 -744 
L 494 -744 
L 750 256 
L 750 794 
z
" transform="scale(0.015625)"/>
      <path id="DejaVuSans-33" d="M 2597 2516 
Q 3050 2419 3304 2112 
Q 3559 1806 3559 1356 
Q 3559 666 3084 287 
Q 2609 -91 1734 -91 
Q 1441 -91 1130 -33 
Q 819 25 488 141 
L 488 750 
Q 750 597 1062 519 
Q 1375 441 1716 441 
Q 2309 441 2620 675 
Q 2931 909 2931 1356 
Q 2931 1769 2642 2001 
Q 2353 2234 1838 2234 
L 1294 2234 
L 1294 2753 
L 1863 2753 
Q 2328 2753 2575 2939 
Q 2822 3125 2822 3475 
Q 2822 3834 2567 4026 
Q 2313 4219 1838 4219 
Q 1578 4219 1281 4162 
Q 984 4106 628 3988 
L 628 4550 
Q 988 4650 1302 4700 
Q 1616 4750 1894 4750 
Q 2613 4750 3031 4423 
Q 3450 4097 3450 3541 
Q 3450 3153 3228 2886 
Q 3006 2619 2597 2516 
z
" transform="scale(0.015625)"/>
      <path id="DejaVuSans-5d" d="M 1947 4863 
L 1947 -844 
L 622 -844 
L 622 -397 
L 1369 -397 
L 1369 4416 
L 622 4416 
L 622 4863 
L 1947 4863 
z
" transform="scale(0.015625)"/>
      <path id="DejaVuSans-65" d="M 3597 1894 
L 3597 1613 
L 953 1613 
Q 991 1019 1311 708 
Q 1631 397 2203 397 
Q 2534 397 2845 478 
Q 3156 559 3463 722 
L 3463 178 
Q 3153 47 2828 -22 
Q 2503 -91 2169 -91 
Q 1331 -91 842 396 
Q 353 884 353 1716 
Q 353 2575 817 3079 
Q 1281 3584 2069 3584 
Q 2775 3584 3186 3129 
Q 3597 2675 3597 1894 
z
M 3022 2063 
Q 3016 2534 2758 2815 
Q 2500 3097 2075 3097 
Q 1594 3097 1305 2825 
Q 1016 2553 972 2059 
L 3022 2063 
z
" transform="scale(0.015625)"/>
      <path id="DejaVuSans-6e" d="M 3513 2113 
L 3513 0 
L 2938 0 
L 2938 2094 
Q 2938 2591 2744 2837 
Q 2550 3084 2163 3084 
Q 1697 3084 1428 2787 
Q 1159 2491 1159 1978 
L 1159 0 
L 581 0 
L 581 3500 
L 1159 3500 
L 1159 2956 
Q 1366 3272 1645 3428 
Q 1925 3584 2291 3584 
Q 2894 3584 3203 3211 
Q 3513 2838 3513 2113 
z
" transform="scale(0.015625)"/>
      <path id="DejaVuSans-6d" d="M 3328 2828 
Q 3544 3216 3844 3400 
Q 4144 3584 4550 3584 
Q 5097 3584 5394 3201 
Q 5691 2819 5691 2113 
L 5691 0 
L 5113 0 
L 5113 2094 
Q 5113 2597 4934 2840 
Q 4756 3084 4391 3084 
Q 3944 3084 3684 2787 
Q 3425 2491 3425 1978 
L 3425 0 
L 2847 0 
L 2847 2094 
Q 2847 2600 2669 2842 
Q 2491 3084 2119 3084 
Q 1678 3084 1418 2786 
Q 1159 2488 1159 1978 
L 1159 0 
L 581 0 
L 581 3500 
L 1159 3500 
L 1159 2956 
Q 1356 3278 1631 3431 
Q 1906 3584 2284 3584 
Q 2666 3584 2933 3390 
Q 3200 3197 3328 2828 
z
" transform="scale(0.015625)"/>
     </defs>
     <use xlink:href="#DejaVuSans-5b"/>
     <use xlink:href="#DejaVuSans-5b" x="39.013672"/>
     <use xlink:href="#DejaVuSans-37" x="78.027344"/>
     <use xlink:href="#DejaVuSans-2c" x="141.650391"/>
     <use xlink:href="#DejaVuSans-20" x="173.4375"/>
     <use xlink:href="#DejaVuSans-31" x="205.224609"/>
     <use xlink:href="#DejaVuSans-2c" x="268.847656"/>
     <use xlink:href="#DejaVuSans-20" x="300.634766"/>
     <use xlink:href="#DejaVuSans-33" x="332.421875"/>
     <use xlink:href="#DejaVuSans-5d" x="396.044922"/>
     <use xlink:href="#DejaVuSans-5d" x="435.058594"/>
     <use xlink:href="#DejaVuSans-20" x="474.072266"/>
     <use xlink:href="#DejaVuSans-50" x="505.859375"/>
     <use xlink:href="#DejaVuSans-68" x="566.162109"/>
     <use xlink:href="#DejaVuSans-65" x="629.541016"/>
     <use xlink:href="#DejaVuSans-6e" x="691.064453"/>
     <use xlink:href="#DejaVuSans-6f" x="754.443359"/>
     <use xlink:href="#DejaVuSans-6d" x="815.625"/>
     <use xlink:href="#DejaVuSans-65" x="913.037109"/>
     <use xlink:href="#DejaVuSans-6e" x="974.560547"/>
     <use xlink:href="#DejaVuSans-6f" x="1037.939453"/>
     <use xlink:href="#DejaVuSans-6c" x="1099.121094"/>
     <use xlink:href="#DejaVuSans-6f" x="1126.904297"/>
     <use xlink:href="#DejaVuSans-67" x="1188.085938"/>
     <use xlink:href="#DejaVuSans-69" x="1251.5625"/>
     <use xlink:href="#DejaVuSans-63" x="1279.345703"/>
     <use xlink:href="#DejaVuSans-61" x="1334.326172"/>
     <use xlink:href="#DejaVuSans-6c" x="1395.605469"/>
    </g>
   </g>
   <g id="legend_1">
    <g id="patch_7">
     <path d="M 257.327812 291.54825 
L 419.674688 291.54825 
Q 422.074687 291.54825 422.074687 289.14825 
L 422.074687 184.66575 
Q 422.074687 182.26575 419.674688 182.26575 
L 257.327812 182.26575 
Q 254.927812 182.26575 254.927812 184.66575 
L 254.927812 289.14825 
Q 254.927812 291.54825 257.327812 291.54825 
z
" style="fill: #ffffff; opacity: 0.8; stroke: #cccccc; stroke-linejoin: miter"/>
    </g>
    <g id="line2d_32">
     <path d="M 259.727812 191.983875 
L 271.727812 191.983875 
L 283.727812 191.983875 
" style="fill: none; stroke: #2ca02c; stroke-width: 1.5; stroke-linecap: square"/>
    </g>
    <g id="text_16">
     <!-- measure 1 round -->
     <g transform="translate(293.327812 196.183875) scale(0.12 -0.12)">
      <defs>
       <path id="DejaVuSans-75" d="M 544 1381 
L 544 3500 
L 1119 3500 
L 1119 1403 
Q 1119 906 1312 657 
Q 1506 409 1894 409 
Q 2359 409 2629 706 
Q 2900 1003 2900 1516 
L 2900 3500 
L 3475 3500 
L 3475 0 
L 2900 0 
L 2900 538 
Q 2691 219 2414 64 
Q 2138 -91 1772 -91 
Q 1169 -91 856 284 
Q 544 659 544 1381 
z
M 1991 3584 
L 1991 3584 
z
" transform="scale(0.015625)"/>
       <path id="DejaVuSans-64" d="M 2906 2969 
L 2906 4863 
L 3481 4863 
L 3481 0 
L 2906 0 
L 2906 525 
Q 2725 213 2448 61 
Q 2172 -91 1784 -91 
Q 1150 -91 751 415 
Q 353 922 353 1747 
Q 353 2572 751 3078 
Q 1150 3584 1784 3584 
Q 2172 3584 2448 3432 
Q 2725 3281 2906 2969 
z
M 947 1747 
Q 947 1113 1208 752 
Q 1469 391 1925 391 
Q 2381 391 2643 752 
Q 2906 1113 2906 1747 
Q 2906 2381 2643 2742 
Q 2381 3103 1925 3103 
Q 1469 3103 1208 2742 
Q 947 2381 947 1747 
z
" transform="scale(0.015625)"/>
      </defs>
      <use xlink:href="#DejaVuSans-6d"/>
      <use xlink:href="#DejaVuSans-65" x="97.412109"/>
      <use xlink:href="#DejaVuSans-61" x="158.935547"/>
      <use xlink:href="#DejaVuSans-73" x="220.214844"/>
      <use xlink:href="#DejaVuSans-75" x="272.314453"/>
      <use xlink:href="#DejaVuSans-72" x="335.693359"/>
      <use xlink:href="#DejaVuSans-65" x="374.556641"/>
      <use xlink:href="#DejaVuSans-20" x="436.080078"/>
      <use xlink:href="#DejaVuSans-31" x="467.867188"/>
      <use xlink:href="#DejaVuSans-20" x="531.490234"/>
      <use xlink:href="#DejaVuSans-72" x="563.277344"/>
      <use xlink:href="#DejaVuSans-6f" x="602.140625"/>
      <use xlink:href="#DejaVuSans-75" x="663.322266"/>
      <use xlink:href="#DejaVuSans-6e" x="726.701172"/>
      <use xlink:href="#DejaVuSans-64" x="790.080078"/>
     </g>
    </g>
    <g id="line2d_33">
     <path d="M 259.727812 209.597625 
L 271.727812 209.597625 
L 283.727812 209.597625 
" style="fill: none; stroke: #d62728; stroke-width: 1.5; stroke-linecap: square"/>
    </g>
    <g id="text_17">
     <!-- measure 3 rounds -->
     <g transform="translate(293.327812 213.797625) scale(0.12 -0.12)">
      <use xlink:href="#DejaVuSans-6d"/>
      <use xlink:href="#DejaVuSans-65" x="97.412109"/>
      <use xlink:href="#DejaVuSans-61" x="158.935547"/>
      <use xlink:href="#DejaVuSans-73" x="220.214844"/>
      <use xlink:href="#DejaVuSans-75" x="272.314453"/>
      <use xlink:href="#DejaVuSans-72" x="335.693359"/>
      <use xlink:href="#DejaVuSans-65" x="374.556641"/>
      <use xlink:href="#DejaVuSans-20" x="436.080078"/>
      <use xlink:href="#DejaVuSans-33" x="467.867188"/>
      <use xlink:href="#DejaVuSans-20" x="531.490234"/>
      <use xlink:href="#DejaVuSans-72" x="563.277344"/>
      <use xlink:href="#DejaVuSans-6f" x="602.140625"/>
      <use xlink:href="#DejaVuSans-75" x="663.322266"/>
      <use xlink:href="#DejaVuSans-6e" x="726.701172"/>
      <use xlink:href="#DejaVuSans-64" x="790.080078"/>
      <use xlink:href="#DejaVuSans-73" x="853.556641"/>
     </g>
    </g>
    <g id="line2d_34">
     <path d="M 259.727812 227.211375 
L 271.727812 227.211375 
L 283.727812 227.211375 
" style="fill: none; stroke: #9467bd; stroke-width: 1.5; stroke-linecap: square"/>
    </g>
    <g id="text_18">
     <!-- measure 5 rounds -->
     <g transform="translate(293.327812 231.411375) scale(0.12 -0.12)">
      <defs>
       <path id="DejaVuSans-35" d="M 691 4666 
L 3169 4666 
L 3169 4134 
L 1269 4134 
L 1269 2991 
Q 1406 3038 1543 3061 
Q 1681 3084 1819 3084 
Q 2600 3084 3056 2656 
Q 3513 2228 3513 1497 
Q 3513 744 3044 326 
Q 2575 -91 1722 -91 
Q 1428 -91 1123 -41 
Q 819 9 494 109 
L 494 744 
Q 775 591 1075 516 
Q 1375 441 1709 441 
Q 2250 441 2565 725 
Q 2881 1009 2881 1497 
Q 2881 1984 2565 2268 
Q 2250 2553 1709 2553 
Q 1456 2553 1204 2497 
Q 953 2441 691 2322 
L 691 4666 
z
" transform="scale(0.015625)"/>
      </defs>
      <use xlink:href="#DejaVuSans-6d"/>
      <use xlink:href="#DejaVuSans-65" x="97.412109"/>
      <use xlink:href="#DejaVuSans-61" x="158.935547"/>
      <use xlink:href="#DejaVuSans-73" x="220.214844"/>
      <use xlink:href="#DejaVuSans-75" x="272.314453"/>
      <use xlink:href="#DejaVuSans-72" x="335.693359"/>
      <use xlink:href="#DejaVuSans-65" x="374.556641"/>
      <use xlink:href="#DejaVuSans-20" x="436.080078"/>
      <use xlink:href="#DejaVuSans-35" x="467.867188"/>
      <use xlink:href="#DejaVuSans-20" x="531.490234"/>
      <use xlink:href="#DejaVuSans-72" x="563.277344"/>
      <use xlink:href="#DejaVuSans-6f" x="602.140625"/>
      <use xlink:href="#DejaVuSans-75" x="663.322266"/>
      <use xlink:href="#DejaVuSans-6e" x="726.701172"/>
      <use xlink:href="#DejaVuSans-64" x="790.080078"/>
      <use xlink:href="#DejaVuSans-73" x="853.556641"/>
     </g>
    </g>
    <g id="line2d_35">
     <path d="M 259.727812 244.825125 
L 271.727812 244.825125 
L 283.727812 244.825125 
" style="fill: none; stroke: #8c564b; stroke-width: 1.5; stroke-linecap: square"/>
    </g>
    <g id="text_19">
     <!-- measure 7 rounds -->
     <g transform="translate(293.327812 249.025125) scale(0.12 -0.12)">
      <use xlink:href="#DejaVuSans-6d"/>
      <use xlink:href="#DejaVuSans-65" x="97.412109"/>
      <use xlink:href="#DejaVuSans-61" x="158.935547"/>
      <use xlink:href="#DejaVuSans-73" x="220.214844"/>
      <use xlink:href="#DejaVuSans-75" x="272.314453"/>
      <use xlink:href="#DejaVuSans-72" x="335.693359"/>
      <use xlink:href="#DejaVuSans-65" x="374.556641"/>
      <use xlink:href="#DejaVuSans-20" x="436.080078"/>
      <use xlink:href="#DejaVuSans-37" x="467.867188"/>
      <use xlink:href="#DejaVuSans-20" x="531.490234"/>
      <use xlink:href="#DejaVuSans-72" x="563.277344"/>
      <use xlink:href="#DejaVuSans-6f" x="602.140625"/>
      <use xlink:href="#DejaVuSans-75" x="663.322266"/>
      <use xlink:href="#DejaVuSans-6e" x="726.701172"/>
      <use xlink:href="#DejaVuSans-64" x="790.080078"/>
      <use xlink:href="#DejaVuSans-73" x="853.556641"/>
     </g>
    </g>
    <g id="line2d_36">
     <path d="M 259.727812 262.438875 
L 271.727812 262.438875 
L 283.727812 262.438875 
" style="fill: none; stroke: #e377c2; stroke-width: 1.5; stroke-linecap: square"/>
    </g>
    <g id="text_20">
     <!-- measure 101 rounds -->
     <g transform="translate(293.327812 266.638875) scale(0.12 -0.12)">
      <use xlink:href="#DejaVuSans-6d"/>
      <use xlink:href="#DejaVuSans-65" x="97.412109"/>
      <use xlink:href="#DejaVuSans-61" x="158.935547"/>
      <use xlink:href="#DejaVuSans-73" x="220.214844"/>
      <use xlink:href="#DejaVuSans-75" x="272.314453"/>
      <use xlink:href="#DejaVuSans-72" x="335.693359"/>
      <use xlink:href="#DejaVuSans-65" x="374.556641"/>
      <use xlink:href="#DejaVuSans-20" x="436.080078"/>
      <use xlink:href="#DejaVuSans-31" x="467.867188"/>
      <use xlink:href="#DejaVuSans-30" x="531.490234"/>
      <use xlink:href="#DejaVuSans-31" x="595.113281"/>
      <use xlink:href="#DejaVuSans-20" x="658.736328"/>
      <use xlink:href="#DejaVuSans-72" x="690.523438"/>
      <use xlink:href="#DejaVuSans-6f" x="729.386719"/>
      <use xlink:href="#DejaVuSans-75" x="790.568359"/>
      <use xlink:href="#DejaVuSans-6e" x="853.947266"/>
      <use xlink:href="#DejaVuSans-64" x="917.326172"/>
      <use xlink:href="#DejaVuSans-73" x="980.802734"/>
     </g>
    </g>
    <g id="line2d_37">
     <path d="M 259.727812 280.052625 
L 271.727812 280.052625 
L 283.727812 280.052625 
" style="fill: none; stroke: #ff7f0e; stroke-opacity: 0.4; stroke-width: 1.5; stroke-linecap: square"/>
    </g>
    <g id="text_21">
     <!-- no measure error -->
     <g transform="translate(293.327812 284.252625) scale(0.12 -0.12)">
      <use xlink:href="#DejaVuSans-6e"/>
      <use xlink:href="#DejaVuSans-6f" x="63.378906"/>
      <use xlink:href="#DejaVuSans-20" x="124.560547"/>
      <use xlink:href="#DejaVuSans-6d" x="156.347656"/>
      <use xlink:href="#DejaVuSans-65" x="253.759766"/>
      <use xlink:href="#DejaVuSans-61" x="315.283203"/>
      <use xlink:href="#DejaVuSans-73" x="376.5625"/>
      <use xlink:href="#DejaVuSans-75" x="428.662109"/>
      <use xlink:href="#DejaVuSans-72" x="492.041016"/>
      <use xlink:href="#DejaVuSans-65" x="530.904297"/>
      <use xlink:href="#DejaVuSans-20" x="592.427734"/>
      <use xlink:href="#DejaVuSans-65" x="624.214844"/>
      <use xlink:href="#DejaVuSans-72" x="685.738281"/>
      <use xlink:href="#DejaVuSans-72" x="725.101562"/>
      <use xlink:href="#DejaVuSans-6f" x="763.964844"/>
      <use xlink:href="#DejaVuSans-72" x="825.146484"/>
     </g>
    </g>
   </g>
  </g>
 </g>
 <defs>
  <clipPath id="p6037f1dca1">
   <rect x="70.954688" y="31.43625" width="357.12" height="266.112"/>
  </clipPath>
 </defs>
</svg>
