<?xml version="1.0" encoding="utf-8" standalone="no"?>
<!DOCTYPE svg PUBLIC "-//W3C//DTD SVG 1.1//EN"
  "http://www.w3.org/Graphics/SVG/1.1/DTD/svg11.dtd">
<svg xmlns:xlink="http://www.w3.org/1999/xlink" width="425.730937pt" height="349.621687pt" viewBox="0 0 425.730937 349.621687" xmlns="http://www.w3.org/2000/svg" version="1.1">
 <defs>
  <style type="text/css">*{stroke-linejoin: round; stroke-linecap: butt}</style>
 </defs>
 <g id="figure_1">
  <g id="patch_1">
   <path d="M 0 349.621687 
L 425.730937 349.621687 
L 425.730937 0 
L 0 0 
L 0 349.621687 
z
" style="fill: none"/>
  </g>
  <g id="axes_1">
   <g id="patch_2">
    <path d="M 61.410938 297.54825 
L 418.530938 297.54825 
L 418.530938 31.43625 
L 61.410938 31.43625 
L 61.410938 297.54825 
z
" style="fill: none"/>
   </g>
   <g id="matplotlib.axis_1">
    <g id="xtick_1">
     <g id="line2d_1">
      <path d="M 77.643665 297.54825 
L 77.643665 31.43625 
" clip-path="url(#p37e3121db0)" style="fill: none; stroke: #b0b0b0; stroke-width: 0.8; stroke-linecap: square"/>
     </g>
     <g id="line2d_2">
      <defs>
       <path id="md39032bed2" d="M 0 0 
L 0 3.5 
" style="stroke: #000000; stroke-width: 0.8"/>
      </defs>
      <g>
       <use xlink:href="#md39032bed2" x="77.643665" y="297.54825" style="stroke: #000000; stroke-width: 0.8"/>
      </g>
     </g>
     <g id="text_1">
      <!-- 0.0 -->
      <g transform="translate(65.716321 315.945906) scale(0.15 -0.15)">
       <defs>
        <path id="DejaVuSans-30" d="M 2034 4250 
Q 1547 4250 1301 3770 
Q 1056 3291 1056 2328 
Q 1056 1369 1301 889 
Q 1547 409 2034 409 
Q 2525 409 2770 889 
Q 3016 1369 3016 2328 
Q 3016 3291 2770 3770 
Q 2525 4250 2034 4250 
z
M 2034 4750 
Q 2819 4750 3233 4129 
Q 3647 3509 3647 2328 
Q 3647 1150 3233 529 
Q 2819 -91 2034 -91 
Q 1250 -91 836 529 
Q 422 1150 422 2328 
Q 422 3509 836 4129 
Q 1250 4750 2034 4750 
z
" transform="scale(0.015625)"/>
        <path id="DejaVuSans-2e" d="M 684 794 
L 1344 794 
L 1344 0 
L 684 0 
L 684 794 
z
" transform="scale(0.015625)"/>
       </defs>
       <use xlink:href="#DejaVuSans-30"/>
       <use xlink:href="#DejaVuSans-2e" x="63.623047"/>
       <use xlink:href="#DejaVuSans-30" x="95.410156"/>
      </g>
     </g>
    </g>
    <g id="xtick_2">
     <g id="line2d_3">
      <path d="M 142.574574 297.54825 
L 142.574574 31.43625 
" clip-path="url(#p37e3121db0)" style="fill: none; stroke: #b0b0b0; stroke-width: 0.8; stroke-linecap: square"/>
     </g>
     <g id="line2d_4">
      <g>
       <use xlink:href="#md39032bed2" x="142.574574" y="297.54825" style="stroke: #000000; stroke-width: 0.8"/>
      </g>
     </g>
     <g id="text_2">
      <!-- 0.2 -->
      <g transform="translate(130.64723 315.945906) scale(0.15 -0.15)">
       <defs>
        <path id="DejaVuSans-32" d="M 1228 531 
L 3431 531 
L 3431 0 
L 469 0 
L 469 531 
Q 828 903 1448 1529 
Q 2069 2156 2228 2338 
Q 2531 2678 2651 2914 
Q 2772 3150 2772 3378 
Q 2772 3750 2511 3984 
Q 2250 4219 1831 4219 
Q 1534 4219 1204 4116 
Q 875 4013 500 3803 
L 500 4441 
Q 881 4594 1212 4672 
Q 1544 4750 1819 4750 
Q 2544 4750 2975 4387 
Q 3406 4025 3406 3419 
Q 3406 3131 3298 2873 
Q 3191 2616 2906 2266 
Q 2828 2175 2409 1742 
Q 1991 1309 1228 531 
z
" transform="scale(0.015625)"/>
       </defs>
       <use xlink:href="#DejaVuSans-30"/>
       <use xlink:href="#DejaVuSans-2e" x="63.623047"/>
       <use xlink:href="#DejaVuSans-32" x="95.410156"/>
      </g>
     </g>
    </g>
    <g id="xtick_3">
     <g id="line2d_5">
      <path d="M 207.505483 297.54825 
L 207.505483 31.43625 
" clip-path="url(#p37e3121db0)" style="fill: none; stroke: #b0b0b0; stroke-width: 0.8; stroke-linecap: square"/>
     </g>
     <g id="line2d_6">
      <g>
       <use xlink:href="#md39032bed2" x="207.505483" y="297.54825" style="stroke: #000000; stroke-width: 0.8"/>
      </g>
     </g>
     <g id="text_3">
      <!-- 0.4 -->
      <g transform="translate(195.578139 315.945906) scale(0.15 -0.15)">
       <defs>
        <path id="DejaVuSans-34" d="M 2419 4116 
L 825 1625 
L 2419 1625 
L 2419 4116 
z
M 2253 4666 
L 3047 4666 
L 3047 1625 
L 3713 1625 
L 3713 1100 
L 3047 1100 
L 3047 0 
L 2419 0 
L 2419 1100 
L 313 1100 
L 313 1709 
L 2253 4666 
z
" transform="scale(0.015625)"/>
       </defs>
       <use xlink:href="#DejaVuSans-30"/>
       <use xlink:href="#DejaVuSans-2e" x="63.623047"/>
       <use xlink:href="#DejaVuSans-34" x="95.410156"/>
      </g>
     </g>
    </g>
    <g id="xtick_4">
     <g id="line2d_7">
      <path d="M 272.436392 297.54825 
L 272.436392 31.43625 
" clip-path="url(#p37e3121db0)" style="fill: none; stroke: #b0b0b0; stroke-width: 0.8; stroke-linecap: square"/>
     </g>
     <g id="line2d_8">
      <g>
       <use xlink:href="#md39032bed2" x="272.436392" y="297.54825" style="stroke: #000000; stroke-width: 0.8"/>
      </g>
     </g>
     <g id="text_4">
      <!-- 0.6 -->
      <g transform="translate(260.509048 315.945906) scale(0.15 -0.15)">
       <defs>
        <path id="DejaVuSans-36" d="M 2113 2584 
Q 1688 2584 1439 2293 
Q 1191 2003 1191 1497 
Q 1191 994 1439 701 
Q 1688 409 2113 409 
Q 2538 409 2786 701 
Q 3034 994 3034 1497 
Q 3034 2003 2786 2293 
Q 2538 2584 2113 2584 
z
M 3366 4563 
L 3366 3988 
Q 3128 4100 2886 4159 
Q 2644 4219 2406 4219 
Q 1781 4219 1451 3797 
Q 1122 3375 1075 2522 
Q 1259 2794 1537 2939 
Q 1816 3084 2150 3084 
Q 2853 3084 3261 2657 
Q 3669 2231 3669 1497 
Q 3669 778 3244 343 
Q 2819 -91 2113 -91 
Q 1303 -91 875 529 
Q 447 1150 447 2328 
Q 447 3434 972 4092 
Q 1497 4750 2381 4750 
Q 2619 4750 2861 4703 
Q 3103 4656 3366 4563 
z
" transform="scale(0.015625)"/>
       </defs>
       <use xlink:href="#DejaVuSans-30"/>
       <use xlink:href="#DejaVuSans-2e" x="63.623047"/>
       <use xlink:href="#DejaVuSans-36" x="95.410156"/>
      </g>
     </g>
    </g>
    <g id="xtick_5">
     <g id="line2d_9">
      <path d="M 337.367301 297.54825 
L 337.367301 31.43625 
" clip-path="url(#p37e3121db0)" style="fill: none; stroke: #b0b0b0; stroke-width: 0.8; stroke-linecap: square"/>
     </g>
     <g id="line2d_10">
      <g>
       <use xlink:href="#md39032bed2" x="337.367301" y="297.54825" style="stroke: #000000; stroke-width: 0.8"/>
      </g>
     </g>
     <g id="text_5">
      <!-- 0.8 -->
      <g transform="translate(325.439957 315.945906) scale(0.15 -0.15)">
       <defs>
        <path id="DejaVuSans-38" d="M 2034 2216 
Q 1584 2216 1326 1975 
Q 1069 1734 1069 1313 
Q 1069 891 1326 650 
Q 1584 409 2034 409 
Q 2484 409 2743 651 
Q 3003 894 3003 1313 
Q 3003 1734 2745 1975 
Q 2488 2216 2034 2216 
z
M 1403 2484 
Q 997 2584 770 2862 
Q 544 3141 544 3541 
Q 544 4100 942 4425 
Q 1341 4750 2034 4750 
Q 2731 4750 3128 4425 
Q 3525 4100 3525 3541 
Q 3525 3141 3298 2862 
Q 3072 2584 2669 2484 
Q 3125 2378 3379 2068 
Q 3634 1759 3634 1313 
Q 3634 634 3220 271 
Q 2806 -91 2034 -91 
Q 1263 -91 848 271 
Q 434 634 434 1313 
Q 434 1759 690 2068 
Q 947 2378 1403 2484 
z
M 1172 3481 
Q 1172 3119 1398 2916 
Q 1625 2713 2034 2713 
Q 2441 2713 2670 2916 
Q 2900 3119 2900 3481 
Q 2900 3844 2670 4047 
Q 2441 4250 2034 4250 
Q 1625 4250 1398 4047 
Q 1172 3844 1172 3481 
z
" transform="scale(0.015625)"/>
       </defs>
       <use xlink:href="#DejaVuSans-30"/>
       <use xlink:href="#DejaVuSans-2e" x="63.623047"/>
       <use xlink:href="#DejaVuSans-38" x="95.410156"/>
      </g>
     </g>
    </g>
    <g id="xtick_6">
     <g id="line2d_11">
      <path d="M 402.29821 297.54825 
L 402.29821 31.43625 
" clip-path="url(#p37e3121db0)" style="fill: none; stroke: #b0b0b0; stroke-width: 0.8; stroke-linecap: square"/>
     </g>
     <g id="line2d_12">
      <g>
       <use xlink:href="#md39032bed2" x="402.29821" y="297.54825" style="stroke: #000000; stroke-width: 0.8"/>
      </g>
     </g>
     <g id="text_6">
      <!-- 1.0 -->
      <g transform="translate(390.370866 315.945906) scale(0.15 -0.15)">
       <defs>
        <path id="DejaVuSans-31" d="M 794 531 
L 1825 531 
L 1825 4091 
L 703 3866 
L 703 4441 
L 1819 4666 
L 2450 4666 
L 2450 531 
L 3481 531 
L 3481 0 
L 794 0 
L 794 531 
z
" transform="scale(0.015625)"/>
       </defs>
       <use xlink:href="#DejaVuSans-31"/>
       <use xlink:href="#DejaVuSans-2e" x="63.623047"/>
       <use xlink:href="#DejaVuSans-30" x="95.410156"/>
      </g>
     </g>
    </g>
    <g id="text_7">
     <!-- Physical Error -->
     <g transform="translate(171.744375 338.262312) scale(0.2 -0.2)">
      <defs>
       <path id="DejaVuSans-50" d="M 1259 4147 
L 1259 2394 
L 2053 2394 
Q 2494 2394 2734 2622 
Q 2975 2850 2975 3272 
Q 2975 3691 2734 3919 
Q 2494 4147 2053 4147 
L 1259 4147 
z
M 628 4666 
L 2053 4666 
Q 2838 4666 3239 4311 
Q 3641 3956 3641 3272 
Q 3641 2581 3239 2228 
Q 2838 1875 2053 1875 
L 1259 1875 
L 1259 0 
L 628 0 
L 628 4666 
z
" transform="scale(0.015625)"/>
       <path id="DejaVuSans-68" d="M 3513 2113 
L 3513 0 
L 2938 0 
L 2938 2094 
Q 2938 2591 2744 2837 
Q 2550 3084 2163 3084 
Q 1697 3084 1428 2787 
Q 1159 2491 1159 1978 
L 1159 0 
L 581 0 
L 581 4863 
L 1159 4863 
L 1159 2956 
Q 1366 3272 1645 3428 
Q 1925 3584 2291 3584 
Q 2894 3584 3203 3211 
Q 3513 2838 3513 2113 
z
" transform="scale(0.015625)"/>
       <path id="DejaVuSans-79" d="M 2059 -325 
Q 1816 -950 1584 -1140 
Q 1353 -1331 966 -1331 
L 506 -1331 
L 506 -850 
L 844 -850 
Q 1081 -850 1212 -737 
Q 1344 -625 1503 -206 
L 1606 56 
L 191 3500 
L 800 3500 
L 1894 763 
L 2988 3500 
L 3597 3500 
L 2059 -325 
z
" transform="scale(0.015625)"/>
       <path id="DejaVuSans-73" d="M 2834 3397 
L 2834 2853 
Q 2591 2978 2328 3040 
Q 2066 3103 1784 3103 
Q 1356 3103 1142 2972 
Q 928 2841 928 2578 
Q 928 2378 1081 2264 
Q 1234 2150 1697 2047 
L 1894 2003 
Q 2506 1872 2764 1633 
Q 3022 1394 3022 966 
Q 3022 478 2636 193 
Q 2250 -91 1575 -91 
Q 1294 -91 989 -36 
Q 684 19 347 128 
L 347 722 
Q 666 556 975 473 
Q 1284 391 1588 391 
Q 1994 391 2212 530 
Q 2431 669 2431 922 
Q 2431 1156 2273 1281 
Q 2116 1406 1581 1522 
L 1381 1569 
Q 847 1681 609 1914 
Q 372 2147 372 2553 
Q 372 3047 722 3315 
Q 1072 3584 1716 3584 
Q 2034 3584 2315 3537 
Q 2597 3491 2834 3397 
z
" transform="scale(0.015625)"/>
       <path id="DejaVuSans-69" d="M 603 3500 
L 1178 3500 
L 1178 0 
L 603 0 
L 603 3500 
z
M 603 4863 
L 1178 4863 
L 1178 4134 
L 603 4134 
L 603 4863 
z
" transform="scale(0.015625)"/>
       <path id="DejaVuSans-63" d="M 3122 3366 
L 3122 2828 
Q 2878 2963 2633 3030 
Q 2388 3097 2138 3097 
Q 1578 3097 1268 2742 
Q 959 2388 959 1747 
Q 959 1106 1268 751 
Q 1578 397 2138 397 
Q 2388 397 2633 464 
Q 2878 531 3122 666 
L 3122 134 
Q 2881 22 2623 -34 
Q 2366 -91 2075 -91 
Q 1284 -91 818 406 
Q 353 903 353 1747 
Q 353 2603 823 3093 
Q 1294 3584 2113 3584 
Q 2378 3584 2631 3529 
Q 2884 3475 3122 3366 
z
" transform="scale(0.015625)"/>
       <path id="DejaVuSans-61" d="M 2194 1759 
Q 1497 1759 1228 1600 
Q 959 1441 959 1056 
Q 959 750 1161 570 
Q 1363 391 1709 391 
Q 2188 391 2477 730 
Q 2766 1069 2766 1631 
L 2766 1759 
L 2194 1759 
z
M 3341 1997 
L 3341 0 
L 2766 0 
L 2766 531 
Q 2569 213 2275 61 
Q 1981 -91 1556 -91 
Q 1019 -91 701 211 
Q 384 513 384 1019 
Q 384 1609 779 1909 
Q 1175 2209 1959 2209 
L 2766 2209 
L 2766 2266 
Q 2766 2663 2505 2880 
Q 2244 3097 1772 3097 
Q 1472 3097 1187 3025 
Q 903 2953 641 2809 
L 641 3341 
Q 956 3463 1253 3523 
Q 1550 3584 1831 3584 
Q 2591 3584 2966 3190 
Q 3341 2797 3341 1997 
z
" transform="scale(0.015625)"/>
       <path id="DejaVuSans-6c" d="M 603 4863 
L 1178 4863 
L 1178 0 
L 603 0 
L 603 4863 
z
" transform="scale(0.015625)"/>
       <path id="DejaVuSans-20" transform="scale(0.015625)"/>
       <path id="DejaVuSans-45" d="M 628 4666 
L 3578 4666 
L 3578 4134 
L 1259 4134 
L 1259 2753 
L 3481 2753 
L 3481 2222 
L 1259 2222 
L 1259 531 
L 3634 531 
L 3634 0 
L 628 0 
L 628 4666 
z
" transform="scale(0.015625)"/>
       <path id="DejaVuSans-72" d="M 2631 2963 
Q 2534 3019 2420 3045 
Q 2306 3072 2169 3072 
Q 1681 3072 1420 2755 
Q 1159 2438 1159 1844 
L 1159 0 
L 581 0 
L 581 3500 
L 1159 3500 
L 1159 2956 
Q 1341 3275 1631 3429 
Q 1922 3584 2338 3584 
Q 2397 3584 2469 3576 
Q 2541 3569 2628 3553 
L 2631 2963 
z
" transform="scale(0.015625)"/>
       <path id="DejaVuSans-6f" d="M 1959 3097 
Q 1497 3097 1228 2736 
Q 959 2375 959 1747 
Q 959 1119 1226 758 
Q 1494 397 1959 397 
Q 2419 397 2687 759 
Q 2956 1122 2956 1747 
Q 2956 2369 2687 2733 
Q 2419 3097 1959 3097 
z
M 1959 3584 
Q 2709 3584 3137 3096 
Q 3566 2609 3566 1747 
Q 3566 888 3137 398 
Q 2709 -91 1959 -91 
Q 1206 -91 779 398 
Q 353 888 353 1747 
Q 353 2609 779 3096 
Q 1206 3584 1959 3584 
z
" transform="scale(0.015625)"/>
      </defs>
      <use xlink:href="#DejaVuSans-50"/>
      <use xlink:href="#DejaVuSans-68" x="60.302734"/>
      <use xlink:href="#DejaVuSans-79" x="123.681641"/>
      <use xlink:href="#DejaVuSans-73" x="182.861328"/>
      <use xlink:href="#DejaVuSans-69" x="234.960938"/>
      <use xlink:href="#DejaVuSans-63" x="262.744141"/>
      <use xlink:href="#DejaVuSans-61" x="317.724609"/>
      <use xlink:href="#DejaVuSans-6c" x="379.003906"/>
      <use xlink:href="#DejaVuSans-20" x="406.787109"/>
      <use xlink:href="#DejaVuSans-45" x="438.574219"/>
      <use xlink:href="#DejaVuSans-72" x="501.757812"/>
      <use xlink:href="#DejaVuSans-72" x="541.121094"/>
      <use xlink:href="#DejaVuSans-6f" x="579.984375"/>
      <use xlink:href="#DejaVuSans-72" x="641.166016"/>
     </g>
    </g>
   </g>
   <g id="matplotlib.axis_2">
    <g id="ytick_1">
     <g id="line2d_13">
      <path d="M 61.410938 285.45225 
L 418.530938 285.45225 
" clip-path="url(#p37e3121db0)" style="fill: none; stroke: #b0b0b0; stroke-width: 0.8; stroke-linecap: square"/>
     </g>
     <g id="line2d_14">
      <defs>
       <path id="m6f3f5b6aff" d="M 0 0 
L -3.5 0 
" style="stroke: #000000; stroke-width: 0.8"/>
      </defs>
      <g>
       <use xlink:href="#m6f3f5b6aff" x="61.410938" y="285.45225" style="stroke: #000000; stroke-width: 0.8"/>
      </g>
     </g>
     <g id="text_8">
      <!-- 0.0 -->
      <g transform="translate(30.55625 291.151078) scale(0.15 -0.15)">
       <use xlink:href="#DejaVuSans-30"/>
       <use xlink:href="#DejaVuSans-2e" x="63.623047"/>
       <use xlink:href="#DejaVuSans-30" x="95.410156"/>
      </g>
     </g>
    </g>
    <g id="ytick_2">
     <g id="line2d_15">
      <path d="M 61.410938 237.06825 
L 418.530938 237.06825 
" clip-path="url(#p37e3121db0)" style="fill: none; stroke: #b0b0b0; stroke-width: 0.8; stroke-linecap: square"/>
     </g>
     <g id="line2d_16">
      <g>
       <use xlink:href="#m6f3f5b6aff" x="61.410938" y="237.06825" style="stroke: #000000; stroke-width: 0.8"/>
      </g>
     </g>
     <g id="text_9">
      <!-- 0.2 -->
      <g transform="translate(30.55625 242.767078) scale(0.15 -0.15)">
       <use xlink:href="#DejaVuSans-30"/>
       <use xlink:href="#DejaVuSans-2e" x="63.623047"/>
       <use xlink:href="#DejaVuSans-32" x="95.410156"/>
      </g>
     </g>
    </g>
    <g id="ytick_3">
     <g id="line2d_17">
      <path d="M 61.410938 188.68425 
L 418.530938 188.68425 
" clip-path="url(#p37e3121db0)" style="fill: none; stroke: #b0b0b0; stroke-width: 0.8; stroke-linecap: square"/>
     </g>
     <g id="line2d_18">
      <g>
       <use xlink:href="#m6f3f5b6aff" x="61.410938" y="188.68425" style="stroke: #000000; stroke-width: 0.8"/>
      </g>
     </g>
     <g id="text_10">
      <!-- 0.4 -->
      <g transform="translate(30.55625 194.383078) scale(0.15 -0.15)">
       <use xlink:href="#DejaVuSans-30"/>
       <use xlink:href="#DejaVuSans-2e" x="63.623047"/>
       <use xlink:href="#DejaVuSans-34" x="95.410156"/>
      </g>
     </g>
    </g>
    <g id="ytick_4">
     <g id="line2d_19">
      <path d="M 61.410938 140.30025 
L 418.530938 140.30025 
" clip-path="url(#p37e3121db0)" style="fill: none; stroke: #b0b0b0; stroke-width: 0.8; stroke-linecap: square"/>
     </g>
     <g id="line2d_20">
      <g>
       <use xlink:href="#m6f3f5b6aff" x="61.410938" y="140.30025" style="stroke: #000000; stroke-width: 0.8"/>
      </g>
     </g>
     <g id="text_11">
      <!-- 0.6 -->
      <g transform="translate(30.55625 145.999078) scale(0.15 -0.15)">
       <use xlink:href="#DejaVuSans-30"/>
       <use xlink:href="#DejaVuSans-2e" x="63.623047"/>
       <use xlink:href="#DejaVuSans-36" x="95.410156"/>
      </g>
     </g>
    </g>
    <g id="ytick_5">
     <g id="line2d_21">
      <path d="M 61.410938 91.91625 
L 418.530938 91.91625 
" clip-path="url(#p37e3121db0)" style="fill: none; stroke: #b0b0b0; stroke-width: 0.8; stroke-linecap: square"/>
     </g>
     <g id="line2d_22">
      <g>
       <use xlink:href="#m6f3f5b6aff" x="61.410938" y="91.91625" style="stroke: #000000; stroke-width: 0.8"/>
      </g>
     </g>
     <g id="text_12">
      <!-- 0.8 -->
      <g transform="translate(30.55625 97.615078) scale(0.15 -0.15)">
       <use xlink:href="#DejaVuSans-30"/>
       <use xlink:href="#DejaVuSans-2e" x="63.623047"/>
       <use xlink:href="#DejaVuSans-38" x="95.410156"/>
      </g>
     </g>
    </g>
    <g id="ytick_6">
     <g id="line2d_23">
      <path d="M 61.410938 43.53225 
L 418.530938 43.53225 
" clip-path="url(#p37e3121db0)" style="fill: none; stroke: #b0b0b0; stroke-width: 0.8; stroke-linecap: square"/>
     </g>
     <g id="line2d_24">
      <g>
       <use xlink:href="#m6f3f5b6aff" x="61.410938" y="43.53225" style="stroke: #000000; stroke-width: 0.8"/>
      </g>
     </g>
     <g id="text_13">
      <!-- 1.0 -->
      <g transform="translate(30.55625 49.231078) scale(0.15 -0.15)">
       <use xlink:href="#DejaVuSans-31"/>
       <use xlink:href="#DejaVuSans-2e" x="63.623047"/>
       <use xlink:href="#DejaVuSans-30" x="95.410156"/>
      </g>
     </g>
    </g>
    <g id="text_14">
     <!-- Logical Error -->
     <g transform="translate(22.396875 227.087562) rotate(-90) scale(0.2 -0.2)">
      <defs>
       <path id="DejaVuSans-4c" d="M 628 4666 
L 1259 4666 
L 1259 531 
L 3531 531 
L 3531 0 
L 628 0 
L 628 4666 
z
" transform="scale(0.015625)"/>
       <path id="DejaVuSans-67" d="M 2906 1791 
Q 2906 2416 2648 2759 
Q 2391 3103 1925 3103 
Q 1463 3103 1205 2759 
Q 947 2416 947 1791 
Q 947 1169 1205 825 
Q 1463 481 1925 481 
Q 2391 481 2648 825 
Q 2906 1169 2906 1791 
z
M 3481 434 
Q 3481 -459 3084 -895 
Q 2688 -1331 1869 -1331 
Q 1566 -1331 1297 -1286 
Q 1028 -1241 775 -1147 
L 775 -588 
Q 1028 -725 1275 -790 
Q 1522 -856 1778 -856 
Q 2344 -856 2625 -561 
Q 2906 -266 2906 331 
L 2906 616 
Q 2728 306 2450 153 
Q 2172 0 1784 0 
Q 1141 0 747 490 
Q 353 981 353 1791 
Q 353 2603 747 3093 
Q 1141 3584 1784 3584 
Q 2172 3584 2450 3431 
Q 2728 3278 2906 2969 
L 2906 3500 
L 3481 3500 
L 3481 434 
z
" transform="scale(0.015625)"/>
      </defs>
      <use xlink:href="#DejaVuSans-4c"/>
      <use xlink:href="#DejaVuSans-6f" x="53.962891"/>
      <use xlink:href="#DejaVuSans-67" x="115.144531"/>
      <use xlink:href="#DejaVuSans-69" x="178.621094"/>
      <use xlink:href="#DejaVuSans-63" x="206.404297"/>
      <use xlink:href="#DejaVuSans-61" x="261.384766"/>
      <use xlink:href="#DejaVuSans-6c" x="322.664062"/>
      <use xlink:href="#DejaVuSans-20" x="350.447266"/>
      <use xlink:href="#DejaVuSans-45" x="382.234375"/>
      <use xlink:href="#DejaVuSans-72" x="445.417969"/>
      <use xlink:href="#DejaVuSans-72" x="484.78125"/>
      <use xlink:href="#DejaVuSans-6f" x="523.644531"/>
      <use xlink:href="#DejaVuSans-72" x="584.826172"/>
     </g>
    </g>
   </g>
   <g id="line2d_25">
    <path d="M 77.643665 285.45225 
L 80.240901 285.22545 
L 80.89021 284.84745 
L 81.539519 285.07425 
L 82.188828 284.58285 
L 82.838138 284.50725 
L 83.487447 284.12925 
L 84.136756 283.41105 
L 84.786065 283.33545 
L 85.435374 282.61725 
L 86.084683 282.42825 
L 86.733992 281.97465 
L 87.383301 281.71005 
L 88.03261 280.91625 
L 89.980538 279.21525 
L 90.629847 278.23245 
L 91.279156 278.57265 
L 91.928465 278.42145 
L 92.577774 276.83385 
L 93.227083 275.58645 
L 93.876392 274.64145 
L 94.525701 273.92325 
L 95.17501 275.58645 
L 95.824319 273.12945 
L 96.473628 271.54185 
L 97.122938 271.88205 
L 97.772247 269.87865 
L 98.421556 270.14325 
L 99.070865 270.21885 
L 99.720174 268.29105 
L 100.369483 267.08145 
L 101.018792 267.76185 
L 101.668101 264.85125 
L 102.31741 264.39765 
L 102.966719 263.26365 
L 103.616028 262.84785 
L 104.265338 261.48705 
L 104.914647 261.60045 
L 105.563956 260.46645 
L 106.213265 257.29125 
L 107.511883 258.46305 
L 108.161192 257.29125 
L 108.810501 256.49745 
L 109.45981 255.36345 
L 110.109119 252.94425 
L 110.758428 251.16765 
L 111.407737 252.03705 
L 112.057047 251.31885 
L 112.706356 250.86525 
L 113.355665 248.55945 
L 114.004974 249.05085 
L 114.654283 247.23645 
L 115.303592 245.08185 
L 115.952901 246.25365 
L 116.60221 242.96505 
L 117.251519 242.51145 
L 117.900828 239.97885 
L 118.550138 240.77265 
L 119.199447 239.56305 
L 119.848756 237.78645 
L 120.498065 238.24005 
L 121.796683 234.80025 
L 122.445992 234.83805 
L 123.095301 234.64905 
L 123.74461 233.74185 
L 124.393919 231.85185 
L 125.043228 232.41885 
L 125.692538 232.04085 
L 126.341847 228.07185 
L 126.991156 228.71445 
L 127.640465 225.38805 
L 128.289774 228.56325 
L 128.939083 224.32965 
L 129.588392 225.19905 
L 130.88701 221.94825 
L 131.536319 222.59085 
L 132.185628 223.61145 
L 132.834938 220.88985 
L 133.484247 219.18885 
L 134.133556 218.92425 
L 134.782865 219.45345 
L 135.432174 216.61845 
L 136.081483 217.79025 
L 136.730792 213.78345 
L 137.380101 212.72505 
L 138.02941 214.27485 
L 138.678719 213.97245 
L 139.328028 213.32985 
L 139.977338 209.77665 
L 140.626647 211.81785 
L 141.275956 207.28185 
L 141.925265 209.58765 
L 142.574574 206.94165 
L 143.223883 205.01385 
L 143.873192 207.43305 
L 144.522501 206.71485 
L 145.17181 204.71145 
L 145.821119 203.16165 
L 146.470428 205.84545 
L 147.119738 201.76305 
L 148.418356 200.21325 
L 149.067665 201.98985 
L 149.716974 197.34045 
L 150.366283 198.28545 
L 151.015592 198.47445 
L 151.664901 196.28205 
L 152.31421 196.62225 
L 152.963519 197.49165 
L 153.612828 195.29925 
L 154.262137 197.86965 
L 154.911447 194.80785 
L 155.560756 194.01405 
L 156.210065 193.86285 
L 156.859374 194.58105 
L 157.508683 193.63605 
L 158.157992 192.35085 
L 158.807301 191.44365 
L 159.45661 186.52965 
L 160.105919 188.04165 
L 160.755228 188.60865 
L 161.404538 184.82865 
L 162.053847 186.15165 
L 162.703156 188.64645 
L 163.352465 187.81485 
L 164.001774 184.18605 
L 164.651083 185.88705 
L 165.300392 183.99705 
L 165.949701 183.99705 
L 166.59901 183.69465 
L 167.897628 186.41625 
L 169.196247 179.91465 
L 169.845556 183.80805 
L 170.494865 181.31325 
L 171.144174 182.63625 
L 171.793483 178.62945 
L 172.442792 178.59165 
L 173.092101 177.11745 
L 173.74141 178.85625 
L 174.390719 177.83565 
L 175.040028 177.64665 
L 176.338647 175.83225 
L 176.987956 175.56765 
L 177.637265 173.22405 
L 178.286574 180.06585 
L 178.935883 173.48865 
L 179.585192 176.09685 
L 180.234501 173.98005 
L 180.88381 170.04885 
L 181.533119 175.52985 
L 182.182428 173.86665 
L 182.831738 174.69825 
L 183.481047 172.20345 
L 184.130356 175.68105 
L 184.779665 172.43025 
L 185.428974 171.52305 
L 186.078283 171.71205 
L 186.727592 172.09005 
L 187.376901 173.82885 
L 188.02621 172.24125 
L 188.675519 169.74645 
L 189.324828 172.20345 
L 189.974138 169.82205 
L 190.623447 170.27565 
L 191.922065 169.55745 
L 192.571374 171.63645 
L 193.220683 172.50585 
L 193.869992 169.14165 
L 194.519301 169.55745 
L 195.16861 167.06265 
L 196.467228 169.21725 
L 197.116537 168.87705 
L 197.765847 169.14165 
L 198.415156 168.31005 
L 199.064465 166.79805 
L 200.363083 167.78085 
L 201.012392 168.23445 
L 201.661701 167.66745 
L 202.31101 169.67085 
L 202.960319 166.49565 
L 203.609628 164.41665 
L 204.258938 168.00765 
L 204.908247 166.64685 
L 205.557556 168.08325 
L 206.206865 164.71905 
L 206.856174 164.18985 
L 207.505483 169.36845 
L 208.154792 165.58845 
L 208.804101 169.17945 
L 209.45341 165.28605 
L 210.102719 163.50945 
L 211.401338 166.45785 
L 212.050647 166.49565 
L 212.699956 166.91145 
L 213.349265 165.39945 
L 213.998574 166.34445 
L 214.647883 164.64345 
L 215.297192 164.30325 
L 215.946501 165.43725 
L 216.59581 164.30325 
L 217.245119 166.68465 
L 217.894428 166.76025 
L 218.543738 163.66065 
L 219.193047 165.05925 
L 219.842356 165.43725 
L 220.491665 166.72245 
L 221.140974 161.61945 
L 221.790283 166.76025 
L 222.439592 165.39945 
L 223.73821 164.60565 
L 224.387519 165.81525 
L 225.036828 165.36165 
L 225.686138 166.53345 
L 226.335447 162.94245 
L 226.984756 165.39945 
L 227.634065 167.21385 
L 228.283374 166.49565 
L 228.932683 164.22765 
L 229.581992 163.43385 
L 230.231301 163.20705 
L 230.88061 163.62285 
L 231.529919 165.32385 
L 232.179228 164.56785 
L 232.828538 164.83245 
L 233.477847 166.15545 
L 234.127156 165.24825 
L 234.776465 163.69845 
L 235.425774 162.94245 
L 236.075083 164.56785 
L 236.724392 165.32385 
L 237.373701 167.25165 
L 238.02301 165.55065 
L 238.672319 164.98365 
L 239.321628 167.13825 
L 239.970938 161.20365 
L 240.620247 164.22765 
L 241.269556 164.26545 
L 241.918865 164.90805 
L 242.568174 164.71905 
L 243.217483 162.18645 
L 243.866792 163.01805 
L 244.516101 165.21045 
L 245.16541 165.05925 
L 245.814719 165.92865 
L 246.464028 165.58845 
L 247.113338 163.62285 
L 247.762647 165.24825 
L 248.411956 161.27925 
L 249.061265 167.44065 
L 249.710574 166.49565 
L 250.359883 163.09365 
L 251.009192 166.98705 
L 251.658501 165.51285 
L 252.30781 164.34105 
L 252.957119 164.11425 
L 253.606428 163.50945 
L 254.255738 164.87025 
L 254.905047 166.91145 
L 255.554356 164.11425 
L 256.203665 165.73965 
L 256.852974 164.15205 
L 257.502283 165.51285 
L 258.151592 165.47505 
L 258.800901 165.66405 
L 259.45021 163.50945 
L 260.099519 163.62285 
L 260.748828 164.68125 
L 261.398138 165.51285 
L 262.047447 163.47165 
L 262.696756 162.07305 
L 263.346065 163.62285 
L 263.995374 161.54385 
L 264.644683 162.71565 
L 265.293992 165.58845 
L 265.943301 164.37885 
L 266.59261 164.11425 
L 267.241919 165.47505 
L 267.891228 164.22765 
L 268.540538 162.64005 
L 269.189847 160.37205 
L 269.839156 164.98365 
L 270.488465 160.44765 
L 271.137774 162.90465 
L 271.787083 163.62285 
L 272.436392 164.87025 
L 273.085701 160.29645 
L 273.73501 164.26545 
L 274.384319 162.75345 
L 275.033628 163.58505 
L 275.682937 163.84965 
L 276.332247 163.73625 
L 276.981556 162.67785 
L 277.630865 158.40645 
L 278.280174 162.11085 
L 278.929483 160.97685 
L 279.578792 161.84625 
L 280.228101 160.29645 
L 280.87741 159.42705 
L 281.526719 161.20365 
L 282.176028 162.48885 
L 282.825338 162.33765 
L 283.474647 160.75005 
L 284.123956 160.97685 
L 284.773265 159.95625 
L 285.422574 159.76725 
L 286.071883 161.99745 
L 286.721192 160.29645 
L 287.370501 157.08345 
L 288.01981 159.01125 
L 288.669119 158.74665 
L 289.318428 160.14525 
L 289.967737 158.74665 
L 290.617047 159.88065 
L 291.266356 163.43385 
L 291.915665 158.17965 
L 292.564974 155.42025 
L 293.214283 157.72605 
L 293.863592 156.85665 
L 294.512901 158.63325 
L 295.16221 156.36525 
L 295.811519 157.00785 
L 296.460828 154.89105 
L 297.110138 156.93225 
L 297.759447 153.64365 
L 298.408756 154.77765 
L 299.058065 154.58865 
L 299.707374 156.70545 
L 300.356683 153.56805 
L 301.005992 155.26905 
L 301.655301 152.96325 
L 302.30461 156.06285 
L 302.953919 152.28285 
L 303.603228 153.75705 
L 304.252538 150.12825 
L 304.901847 151.60245 
L 305.551156 148.76745 
L 306.200465 150.09045 
L 306.849774 150.73305 
L 307.499083 149.82585 
L 308.148392 151.37565 
L 308.797701 145.63005 
L 309.44701 153.60585 
L 310.096319 147.63345 
L 310.745628 147.21765 
L 311.394938 145.97025 
L 312.044247 147.21765 
L 312.693556 145.74345 
L 313.342865 146.61285 
L 313.992174 144.19365 
L 314.641483 146.57505 
L 315.290792 142.30365 
L 315.940101 144.83625 
L 316.58941 144.83625 
L 317.238719 143.85345 
L 317.888028 141.54765 
L 318.537338 143.21085 
L 319.186647 139.88445 
L 319.835956 140.56485 
L 320.485265 141.01845 
L 321.134574 138.97725 
L 321.783883 137.91885 
L 322.433192 138.14565 
L 323.73181 135.61305 
L 324.381119 137.69205 
L 325.030428 134.40345 
L 325.679738 132.40005 
L 326.329047 133.72305 
L 326.978356 132.40005 
L 327.627665 131.90865 
L 328.276974 132.70245 
L 328.926283 134.02545 
L 329.575592 132.28665 
L 330.224901 128.43105 
L 330.87421 128.09085 
L 331.523519 125.70945 
L 332.172828 126.20085 
L 332.822138 128.16645 
L 333.471447 123.89505 
L 334.120756 124.53765 
L 334.770065 124.95345 
L 335.419374 123.06345 
L 336.068683 120.79545 
L 336.717992 120.56865 
L 337.367301 121.36245 
L 338.01661 121.13565 
L 338.665919 119.35905 
L 339.315228 120.03945 
L 339.964538 118.03605 
L 340.613847 118.48965 
L 341.263156 115.46565 
L 342.561774 113.42445 
L 343.211083 113.27325 
L 343.860392 112.32825 
L 345.15901 109.56885 
L 345.808319 111.08085 
L 347.106938 108.01905 
L 347.756247 105.94005 
L 348.405556 105.22185 
L 349.054865 108.66165 
L 349.704174 104.69265 
L 350.353483 102.23565 
L 351.002792 104.46585 
L 351.652101 99.89205 
L 352.30141 102.87825 
L 352.950719 99.66525 
L 353.600028 100.15665 
L 354.249338 99.09825 
L 354.898647 97.54845 
L 355.547956 97.24605 
L 356.197265 94.33545 
L 356.846574 93.08805 
L 357.495883 92.71005 
L 358.145192 92.67225 
L 358.794501 91.80285 
L 359.44381 90.63105 
L 360.093119 87.90945 
L 360.742428 87.83385 
L 361.391738 89.34585 
L 362.041047 85.79265 
L 362.690356 86.28405 
L 363.339665 85.56585 
L 363.988974 83.90265 
L 364.638283 83.03325 
L 365.287592 80.00925 
L 365.936901 79.66905 
L 366.58621 80.00925 
L 367.235519 79.36665 
L 367.884828 78.49725 
L 368.534138 76.04025 
L 369.183447 75.32205 
L 369.832756 76.07805 
L 370.482065 73.69665 
L 371.131374 74.56605 
L 373.079301 69.46305 
L 373.72861 69.65205 
L 374.377919 68.82045 
L 376.325847 65.72085 
L 376.975156 65.64525 
L 378.923083 61.97865 
L 379.572392 60.12645 
L 380.221701 60.88245 
L 380.87101 60.46665 
L 381.520319 59.10585 
L 382.169628 57.48045 
L 382.818938 56.34645 
L 383.468247 56.19525 
L 384.117556 55.66605 
L 384.766865 54.41865 
L 385.416174 54.22965 
L 386.065483 52.90665 
L 386.714792 53.70045 
L 387.364101 52.11285 
L 388.01341 51.84825 
L 388.662719 50.67645 
L 389.312028 50.41185 
L 389.961338 49.84485 
L 390.610647 49.61805 
L 391.909265 47.87925 
L 392.558574 47.42565 
L 393.207883 47.23665 
L 393.857192 46.74525 
L 394.506501 45.80025 
L 395.15581 45.64905 
L 395.805119 45.11985 
L 397.103738 44.96865 
L 398.402356 44.21265 
L 399.051665 44.21265 
L 399.700974 43.68345 
L 400.350283 43.75905 
L 401.648901 43.53225 
L 402.29821 43.53225 
L 402.29821 43.53225 
" clip-path="url(#p37e3121db0)" style="fill: none; stroke-dasharray: 5.55,2.4; stroke-dashoffset: 0; stroke: #1f77b4; stroke-width: 1.5"/>
   </g>
   <g id="line2d_26">
    <path d="M 77.643665 285.45225 
L 79.591592 285.283331 
L 81.539519 284.762843 
L 83.487447 283.927109 
L 85.435374 282.861326 
L 88.03261 281.001891 
L 89.331228 279.913369 
L 90.629847 278.727984 
L 92.577774 276.796788 
L 97.122938 271.722729 
L 105.563956 260.483283 
L 106.862574 258.513991 
L 108.810501 255.775854 
L 112.057047 250.864069 
L 113.355665 249.055427 
L 121.796683 236.264262 
L 127.640465 227.80533 
L 128.289774 226.729212 
L 129.588392 224.962505 
L 130.237701 224.084245 
L 131.536319 222.083651 
L 132.185628 221.390552 
L 132.834938 220.322702 
L 133.484247 219.622073 
L 134.133556 218.512289 
L 134.782865 217.859058 
L 136.081483 215.831147 
L 136.730792 214.960861 
L 137.380101 214.288287 
L 139.977338 210.882743 
L 141.275956 209.279639 
L 141.925265 208.391487 
L 143.223883 206.965866 
L 144.522501 205.156781 
L 145.17181 204.681476 
L 145.821119 203.619237 
L 147.769047 201.58542 
L 150.366283 198.65651 
L 157.508683 191.212125 
L 158.157992 190.934827 
L 158.807301 190.236855 
L 159.45661 189.733643 
L 160.755228 188.281444 
L 161.404538 188.022159 
L 166.59901 183.662313 
L 167.248319 183.324919 
L 167.897628 182.635807 
L 169.845556 181.408784 
L 171.144174 180.393647 
L 172.442792 179.530891 
L 173.092101 179.004497 
L 176.987956 176.791277 
L 177.637265 176.338563 
L 178.286574 176.163591 
L 178.935883 175.740555 
L 179.585192 175.158199 
L 180.234501 175.115674 
L 180.88381 174.687176 
L 181.533119 174.102605 
L 182.831738 173.551109 
L 183.481047 173.520839 
L 184.130356 172.982041 
L 184.779665 172.748006 
L 185.428974 172.375174 
L 186.078283 172.282741 
L 186.727592 171.912715 
L 187.376901 171.7026 
L 188.02621 171.326372 
L 188.675519 171.287686 
L 189.324828 170.782849 
L 189.974138 170.617179 
L 190.623447 170.744163 
L 191.272756 170.137296 
L 191.922065 169.786908 
L 192.571374 169.588015 
L 193.220683 169.597908 
L 193.869992 169.071218 
L 194.519301 169.137368 
L 195.817919 168.788456 
L 196.467228 168.74032 
L 197.116537 168.467599 
L 197.765847 168.050027 
L 199.064465 167.930278 
L 199.713774 167.705693 
L 201.012392 167.573836 
L 202.31101 167.100745 
L 203.609628 166.805728 
L 205.557556 166.544524 
L 206.206865 166.205653 
L 207.505483 166.320677 
L 208.154792 166.032009 
L 209.45341 165.846553 
L 210.752028 165.62374 
L 211.401338 165.734482 
L 212.050647 165.327394 
L 212.699956 165.570141 
L 215.297192 165.136031 
L 215.946501 165.336548 
L 216.59581 165.34024 
L 217.245119 165.106352 
L 217.894428 165.082284 
L 219.193047 164.808382 
L 220.491665 164.758474 
L 221.140974 164.940534 
L 221.790283 164.974348 
L 223.088901 164.645074 
L 223.73821 164.58675 
L 224.387519 164.732634 
L 227.634065 164.432154 
L 228.283374 164.79022 
L 229.581992 164.575971 
L 230.231301 164.618791 
L 230.88061 164.495351 
L 231.529919 164.595019 
L 232.179228 164.356554 
L 232.828538 164.508049 
L 234.127156 164.516909 
L 236.075083 164.585569 
L 236.724392 164.474827 
L 237.373701 164.54644 
L 238.02301 164.368514 
L 238.672319 164.512036 
L 239.970938 164.345627 
L 241.918865 164.496827 
L 243.217483 164.467001 
L 244.516101 164.554118 
L 245.16541 164.330566 
L 245.814719 164.599153 
L 246.464028 164.267665 
L 247.762647 164.569622 
L 248.411956 164.255114 
L 249.061265 164.340755 
L 249.710574 164.567702 
L 251.009192 164.34799 
L 253.606428 164.53507 
L 254.255738 164.387266 
L 256.203665 164.350352 
L 256.852974 164.13064 
L 258.151592 164.25098 
L 261.398138 163.898524 
L 262.047447 164.076598 
L 263.995374 163.661536 
L 264.644683 163.78601 
L 265.293992 163.543263 
L 265.943301 163.609413 
L 268.540538 163.340531 
L 269.189847 163.134846 
L 269.839156 163.182539 
L 270.488465 162.920006 
L 271.787083 162.868179 
L 272.436392 162.581578 
L 273.085701 162.778109 
L 273.73501 162.445587 
L 275.033628 162.408673 
L 278.280174 161.719413 
L 278.929483 161.484935 
L 279.578792 161.470022 
L 280.87741 161.089512 
L 281.526719 160.959427 
L 282.176028 160.95603 
L 282.825338 160.596487 
L 283.474647 160.381795 
L 284.123956 160.32037 
L 285.422574 159.892315 
L 286.071883 159.792352 
L 286.721192 159.3987 
L 289.318428 158.421954 
L 289.967737 158.389765 
L 290.617047 158.028745 
L 291.266356 157.80357 
L 291.915665 157.740816 
L 292.564974 157.544433 
L 293.214283 156.945834 
L 293.863592 156.563257 
L 294.512901 156.488395 
L 295.16221 156.118221 
L 295.811519 156.009841 
L 296.460828 155.458345 
L 297.110138 155.471782 
L 299.058065 154.239443 
L 299.707374 154.100646 
L 301.005992 153.210131 
L 302.30461 152.648595 
L 302.953919 152.052359 
L 303.603228 151.951066 
L 304.252538 151.412121 
L 304.901847 151.172327 
L 307.499083 149.334007 
L 308.797701 148.666305 
L 309.44701 148.027987 
L 310.096319 147.706835 
L 310.745628 147.207019 
L 311.394938 146.879517 
L 314.641483 144.33097 
L 315.940101 143.48741 
L 316.58941 142.698926 
L 318.537338 141.096117 
L 320.485265 139.415346 
L 321.134574 138.661266 
L 321.783883 138.164107 
L 322.433192 137.424054 
L 323.082501 137.181898 
L 323.73181 136.502236 
L 324.381119 135.593559 
L 325.679738 134.566167 
L 326.978356 132.904296 
L 327.627665 132.43283 
L 328.926283 130.980926 
L 330.224901 129.567265 
L 331.523519 128.18978 
L 332.172828 127.36069 
L 332.822138 126.73507 
L 334.120756 125.101697 
L 334.770065 124.549758 
L 335.419374 123.55042 
L 336.068683 122.942077 
L 339.964538 118.136899 
L 341.263156 116.378313 
L 342.561774 114.739477 
L 343.860392 113.017362 
L 344.509701 112.256932 
L 345.808319 110.313185 
L 346.457628 109.566487 
L 349.054865 105.828717 
L 349.704174 105.014245 
L 351.002792 103.070794 
L 352.30141 101.335095 
L 354.249338 98.340478 
L 355.547956 96.633277 
L 356.197265 95.411569 
L 358.145192 92.607724 
L 365.936901 81.025273 
L 367.235519 78.957347 
L 378.273774 63.144839 
L 380.221701 60.52586 
L 382.169628 58.095438 
L 387.364101 52.184611 
L 389.312028 50.238649 
L 392.558574 47.462712 
L 396.454428 45.055177 
L 398.402356 44.210435 
L 399.700974 43.854436 
L 400.999592 43.609031 
L 402.29821 43.53225 
L 402.29821 43.53225 
" clip-path="url(#p37e3121db0)" style="fill: none; stroke: #2ca02c; stroke-width: 1.5; stroke-linecap: square"/>
   </g>
   <g id="line2d_27">
    <path d="M 77.643665 285.45225 
L 79.591592 285.26325 
L 82.188828 284.58285 
L 82.838138 284.28045 
L 83.487447 283.78905 
L 84.136756 283.56225 
L 85.435374 282.50385 
L 86.084683 282.65505 
L 87.383301 281.29425 
L 88.03261 281.36985 
L 88.681919 280.61385 
L 89.331228 280.50045 
L 89.980538 279.47985 
L 90.629847 278.19465 
L 91.279156 278.53485 
L 91.928465 276.75825 
L 92.577774 277.43865 
L 93.227083 276.64485 
L 93.876392 274.90605 
L 94.525701 275.58645 
L 95.17501 273.92325 
L 95.824319 273.39405 
L 96.473628 273.84765 
L 97.122938 270.93705 
L 97.772247 270.97485 
L 99.070865 269.19825 
L 99.720174 269.38725 
L 100.369483 267.23265 
L 101.018792 265.56945 
L 101.668101 265.75845 
L 102.31741 263.94405 
L 102.966719 264.54885 
L 103.616028 264.85125 
L 104.265338 263.90625 
L 104.914647 261.86505 
L 106.213265 258.68985 
L 106.862574 257.85825 
L 107.511883 255.43905 
L 108.161192 257.51805 
L 108.810501 255.59025 
L 109.45981 254.41845 
L 110.758428 252.86865 
L 111.407737 253.62465 
L 112.057047 248.18145 
L 112.706356 249.31545 
L 114.004974 246.44265 
L 115.303592 245.64885 
L 115.952901 245.83785 
L 116.60221 244.85505 
L 117.900828 240.24345 
L 118.550138 243.60765 
L 119.199447 239.37405 
L 119.848756 241.11285 
L 120.498065 237.86205 
L 121.147374 237.52185 
L 121.796683 236.95485 
L 122.445992 236.57685 
L 123.095301 235.93425 
L 123.74461 231.58725 
L 124.393919 234.46005 
L 125.043228 231.88965 
L 125.692538 230.60445 
L 126.341847 229.58385 
L 126.991156 229.09245 
L 127.640465 229.58385 
L 128.289774 225.99285 
L 128.939083 224.82105 
L 129.588392 225.16125 
L 130.237701 224.82105 
L 130.88701 221.38125 
L 131.536319 224.70765 
L 132.185628 220.88985 
L 132.834938 220.43625 
L 133.484247 219.52905 
L 134.133556 218.92425 
L 134.782865 217.10985 
L 135.432174 216.54285 
L 136.081483 215.21985 
L 136.730792 214.50165 
L 137.380101 214.57725 
L 138.02941 213.10305 
L 139.328028 212.53605 
L 139.977338 210.23025 
L 140.626647 211.59105 
L 141.275956 209.77665 
L 141.925265 205.12725 
L 142.574574 209.36085 
L 143.223883 208.11345 
L 143.873192 204.97605 
L 144.522501 208.07565 
L 145.17181 206.97945 
L 145.821119 203.69085 
L 146.470428 202.82145 
L 147.119738 200.59125 
L 147.769047 200.40225 
L 148.418356 203.35065 
L 149.067665 194.77005 
L 149.716974 201.72525 
L 150.366283 197.86965 
L 151.015592 197.26485 
L 151.664901 195.63945 
L 152.31421 196.35765 
L 152.963519 195.79065 
L 153.612828 194.95905 
L 154.262137 193.14465 
L 154.911447 195.26145 
L 155.560756 189.02445 
L 156.210065 193.37145 
L 156.859374 190.27185 
L 157.508683 193.18245 
L 158.157992 188.64645 
L 158.807301 188.53305 
L 159.45661 191.67045 
L 160.105919 188.57085 
L 160.755228 186.71865 
L 161.404538 186.22725 
L 162.053847 186.83205 
L 162.703156 186.56745 
L 163.352465 189.13785 
L 164.001774 185.05545 
L 164.651083 184.86645 
L 165.300392 183.69465 
L 165.949701 183.61905 
L 166.59901 185.32005 
L 167.248319 183.77025 
L 167.897628 179.91465 
L 168.546938 181.84245 
L 169.196247 180.67065 
L 169.845556 180.59505 
L 170.494865 182.44725 
L 171.144174 180.25485 
L 171.793483 178.89405 
L 172.442792 180.36825 
L 173.092101 178.85625 
L 173.74141 177.72225 
L 174.390719 176.92845 
L 175.040028 178.44045 
L 175.689338 178.47825 
L 176.338647 179.34765 
L 176.987956 176.13465 
L 177.637265 175.00065 
L 178.286574 174.35805 
L 178.935883 176.66385 
L 179.585192 174.69825 
L 180.234501 173.33745 
L 180.88381 175.52985 
L 181.533119 173.79105 
L 182.182428 173.67765 
L 182.831738 173.71545 
L 183.481047 172.12785 
L 184.130356 172.95945 
L 184.779665 175.15185 
L 185.428974 174.05565 
L 186.078283 171.63645 
L 187.376901 172.12785 
L 188.02621 172.88385 
L 188.675519 172.24125 
L 189.324828 173.37525 
L 189.974138 168.72585 
L 190.623447 170.91825 
L 191.272756 170.31345 
L 191.922065 167.51625 
L 192.571374 168.65025 
L 193.220683 168.57465 
L 193.869992 170.46465 
L 194.519301 169.70865 
L 195.16861 169.36845 
L 195.817919 167.28945 
L 196.467228 167.32725 
L 197.116537 166.19325 
L 197.765847 167.36505 
L 198.415156 168.83925 
L 199.064465 169.82205 
L 199.713774 168.23445 
L 200.363083 169.25505 
L 201.012392 167.25165 
L 201.661701 166.64685 
L 202.31101 168.68805 
L 202.960319 168.19665 
L 203.609628 171.25845 
L 204.258938 167.78085 
L 204.908247 165.89085 
L 205.557556 168.00765 
L 206.206865 167.59185 
L 206.856174 165.51285 
L 207.505483 162.67785 
L 208.154792 165.21045 
L 208.804101 164.79465 
L 209.45341 165.92865 
L 210.102719 163.81185 
L 210.752028 165.66405 
L 211.401338 165.51285 
L 212.050647 164.07645 
L 212.699956 167.59185 
L 213.349265 163.28265 
L 213.998574 164.64345 
L 214.647883 167.55405 
L 215.297192 161.99745 
L 215.946501 165.89085 
L 216.59581 162.94245 
L 217.245119 166.57125 
L 217.894428 162.64005 
L 218.543738 165.77745 
L 219.193047 166.26885 
L 219.842356 167.40285 
L 220.491665 163.54725 
L 221.140974 161.01465 
L 221.790283 166.34445 
L 222.439592 164.87025 
L 223.088901 163.81185 
L 223.73821 164.68125 
L 224.387519 166.23105 
L 225.036828 164.15205 
L 225.686138 164.53005 
L 226.984756 164.37885 
L 227.634065 166.19325 
L 228.283374 164.60565 
L 228.932683 164.79465 
L 229.581992 163.24485 
L 230.231301 164.64345 
L 230.88061 163.69845 
L 231.529919 162.52665 
L 232.179228 165.96645 
L 234.127156 162.26205 
L 234.776465 165.36165 
L 235.425774 164.11425 
L 236.075083 164.64345 
L 236.724392 163.43385 
L 237.373701 164.98365 
L 238.02301 163.54725 
L 238.672319 161.73285 
L 239.321628 165.05925 
L 239.970938 169.21725 
L 240.620247 165.89085 
L 241.269556 163.66065 
L 241.918865 164.34105 
L 242.568174 163.81185 
L 243.217483 165.77745 
L 243.866792 162.41325 
L 244.516101 162.48885 
L 245.16541 167.17605 
L 245.814719 165.58845 
L 246.464028 165.39945 
L 247.113338 164.22765 
L 247.762647 166.19325 
L 249.061265 162.45105 
L 249.710574 165.73965 
L 250.359883 164.56785 
L 251.009192 164.68125 
L 251.658501 164.07645 
L 252.30781 167.02485 
L 252.957119 166.72245 
L 254.255738 162.14865 
L 254.905047 165.02145 
L 255.554356 164.18985 
L 256.203665 163.05585 
L 257.502283 166.04205 
L 258.151592 161.77065 
L 258.800901 167.28945 
L 259.45021 166.00425 
L 260.099519 163.73625 
L 260.748828 165.85305 
L 261.398138 165.09705 
L 262.047447 163.43385 
L 262.696756 162.71565 
L 263.346065 161.35485 
L 263.995374 162.07305 
L 264.644683 162.41325 
L 265.293992 164.00085 
L 265.943301 164.45445 
L 266.59261 162.82905 
L 267.241919 164.98365 
L 267.891228 163.77405 
L 268.540538 164.79465 
L 269.189847 163.73625 
L 269.839156 166.87365 
L 270.488465 161.20365 
L 271.137774 164.30325 
L 271.787083 165.13485 
L 272.436392 159.46485 
L 273.085701 166.49565 
L 273.73501 164.41665 
L 274.384319 162.82905 
L 275.033628 162.48885 
L 275.682937 159.38925 
L 276.332247 163.09365 
L 276.981556 160.71225 
L 277.630865 163.09365 
L 278.280174 158.55765 
L 278.929483 161.24145 
L 279.578792 163.13145 
L 280.228101 160.40985 
L 280.87741 159.65385 
L 282.176028 163.16925 
L 282.825338 161.16585 
L 283.474647 163.28265 
L 284.123956 158.89785 
L 285.422574 160.67445 
L 286.071883 161.20365 
L 287.370501 158.59545 
L 288.01981 156.17625 
L 288.669119 158.67105 
L 289.318428 156.85665 
L 289.967737 158.40645 
L 290.617047 156.59205 
L 291.266356 157.12125 
L 291.915665 155.60925 
L 292.564974 154.70205 
L 293.214283 155.04225 
L 293.863592 157.57485 
L 294.512901 154.55085 
L 295.811519 160.03185 
L 296.460828 155.98725 
L 297.110138 157.49925 
L 297.759447 155.30685 
L 298.408756 155.68485 
L 299.058065 153.83265 
L 299.707374 154.36185 
L 300.356683 154.47525 
L 301.005992 152.09385 
L 301.655301 154.66425 
L 302.953919 151.03545 
L 303.603228 152.47185 
L 304.252538 149.48565 
L 304.901847 151.56465 
L 305.551156 152.84985 
L 306.200465 150.12825 
L 307.499083 149.06985 
L 308.148392 147.86025 
L 308.797701 149.78805 
L 309.44701 146.46165 
L 310.096319 148.54065 
L 310.745628 146.23485 
L 311.394938 146.04585 
L 312.044247 143.92905 
L 312.693556 145.93245 
L 313.342865 146.65065 
L 313.992174 145.70565 
L 314.641483 145.13865 
L 315.290792 142.64385 
L 315.940101 143.28645 
L 316.58941 143.13525 
L 317.238719 141.50985 
L 317.888028 144.42045 
L 318.537338 140.82945 
L 319.186647 143.96685 
L 319.835956 144.49605 
L 320.485265 138.29685 
L 321.134574 136.36905 
L 321.783883 135.46185 
L 322.433192 135.68865 
L 323.082501 134.51685 
L 323.73181 136.59585 
L 324.381119 134.32785 
L 325.030428 137.65425 
L 325.679738 135.12165 
L 326.329047 132.09765 
L 326.978356 134.40345 
L 327.627665 132.89145 
L 328.276974 131.98425 
L 328.926283 129.30045 
L 329.575592 129.86745 
L 330.224901 126.84345 
L 330.87421 127.82625 
L 331.523519 126.31425 
L 332.172828 125.40705 
L 332.822138 129.37605 
L 334.120756 123.17685 
L 334.770065 122.95005 
L 335.419374 121.58925 
L 336.068683 120.83325 
L 336.717992 121.17345 
L 337.367301 120.87105 
L 338.01661 120.19065 
L 338.665919 118.52745 
L 339.315228 118.82985 
L 339.964538 119.58585 
L 341.263156 115.04985 
L 341.912465 115.54125 
L 342.561774 111.34545 
L 343.211083 115.39005 
L 343.860392 112.25265 
L 344.509701 114.52065 
L 345.15901 110.36265 
L 345.808319 109.94685 
L 346.457628 111.26985 
L 347.106938 110.96745 
L 347.756247 106.12905 
L 349.704174 106.05345 
L 350.353483 102.76485 
L 351.002792 105.56205 
L 351.652101 103.74765 
L 352.30141 100.15665 
L 352.950719 97.47285 
L 353.600028 101.02605 
L 354.249338 98.15325 
L 354.898647 96.86805 
L 355.547956 97.85085 
L 356.197265 93.57945 
L 356.846574 94.37325 
L 357.495883 93.61725 
L 358.145192 94.37325 
L 358.794501 92.10525 
L 359.44381 91.76505 
L 360.093119 90.82005 
L 360.742428 88.58985 
L 361.391738 89.42145 
L 362.041047 86.51085 
L 362.690356 86.13285 
L 363.339665 86.51085 
L 363.988974 84.24285 
L 364.638283 84.20505 
L 365.287592 83.10885 
L 365.936901 82.73085 
L 366.58621 80.31165 
L 367.235519 79.93365 
L 367.884828 78.30825 
L 368.534138 77.13645 
L 369.183447 75.17085 
L 369.832756 74.30145 
L 370.482065 74.26365 
L 371.131374 71.88225 
L 371.780683 71.20185 
L 372.429992 71.20185 
L 373.079301 70.03005 
L 373.72861 68.40465 
L 374.377919 69.04725 
L 375.027228 66.43905 
L 375.676538 66.59025 
L 376.325847 65.79645 
L 376.975156 64.47345 
L 377.624465 63.67965 
L 378.273774 63.98205 
L 378.923083 62.92365 
L 379.572392 61.63845 
L 380.221701 61.22265 
L 380.87101 61.03365 
L 381.520319 59.82405 
L 382.169628 57.44265 
L 382.818938 57.70725 
L 383.468247 55.96845 
L 384.117556 56.30865 
L 384.766865 54.83445 
L 385.416174 54.45645 
L 386.065483 53.51145 
L 386.714792 53.28465 
L 387.364101 51.31905 
L 388.01341 50.71425 
L 388.662719 51.28125 
L 389.312028 51.01665 
L 389.961338 49.99605 
L 390.610647 49.24005 
L 391.259956 48.10605 
L 391.909265 47.76585 
L 392.558574 47.99265 
L 393.207883 46.82085 
L 393.857192 46.89645 
L 394.506501 46.29165 
L 395.15581 45.95145 
L 395.805119 45.76245 
L 396.454428 44.89305 
L 397.753047 44.40165 
L 398.402356 44.17485 
L 399.051665 44.09925 
L 399.700974 43.79685 
L 400.350283 43.91025 
L 401.648901 43.53225 
L 402.29821 43.53225 
L 402.29821 43.53225 
" clip-path="url(#p37e3121db0)" style="fill: none; stroke-dasharray: 5.55,2.4; stroke-dashoffset: 0; stroke: #ff7f0e; stroke-width: 1.5"/>
   </g>
   <g id="line2d_28">
    <path d="M 77.643665 285.45225 
L 78.942283 285.372073 
L 80.89021 284.959226 
L 82.838138 284.243241 
L 84.786065 283.233862 
L 88.03261 280.995689 
L 89.331228 279.90702 
L 90.629847 278.758845 
L 91.928465 277.486491 
L 94.525701 274.695197 
L 99.720174 268.446827 
L 102.966719 264.033087 
L 103.616028 263.243569 
L 105.563956 260.397937 
L 106.862574 258.630492 
L 107.511883 257.544333 
L 108.810501 255.759612 
L 112.057047 250.887841 
L 112.706356 250.049302 
L 114.004974 247.998209 
L 115.303592 246.063469 
L 116.60221 243.938548 
L 118.550138 241.259473 
L 119.848756 239.309229 
L 125.043228 231.489945 
L 126.991156 228.720652 
L 127.640465 227.598759 
L 128.289774 226.949367 
L 128.939083 225.769741 
L 130.88701 223.324997 
L 131.536319 222.235737 
L 132.185628 221.387156 
L 132.834938 220.285345 
L 134.133556 218.714135 
L 134.782865 217.680246 
L 138.02941 213.475144 
L 139.328028 211.788614 
L 141.925265 208.448334 
L 145.17181 204.519792 
L 146.470428 203.205061 
L 147.119738 202.212516 
L 148.418356 200.942377 
L 149.067665 200.032519 
L 149.716974 199.456069 
L 151.015592 197.730115 
L 151.664901 197.300287 
L 156.210065 192.716299 
L 157.508683 191.588648 
L 158.807301 190.282924 
L 159.45661 189.786652 
L 160.105919 188.959777 
L 160.755228 188.608355 
L 161.404538 187.885577 
L 164.651083 185.102257 
L 165.300392 184.890518 
L 165.949701 184.433227 
L 166.59901 183.774384 
L 167.248319 183.346034 
L 169.196247 181.68933 
L 169.845556 181.370984 
L 170.494865 180.747136 
L 171.144174 180.295012 
L 171.793483 179.986854 
L 173.74141 178.617195 
L 175.040028 177.965587 
L 176.987956 176.67773 
L 177.637265 176.522248 
L 178.286574 175.94373 
L 178.935883 175.67352 
L 179.585192 175.208698 
L 181.533119 174.393635 
L 182.182428 173.876986 
L 182.831738 173.88998 
L 183.481047 173.276911 
L 184.130356 173.074327 
L 185.428974 172.420652 
L 188.675519 171.110794 
L 190.623447 170.38462 
L 191.272756 170.293073 
L 192.571374 169.611049 
L 193.220683 169.585062 
L 195.817919 168.810309 
L 196.467228 168.374576 
L 197.765847 168.353609 
L 199.064465 167.937956 
L 199.713774 167.535741 
L 201.661701 167.201152 
L 202.960319 167.083617 
L 204.908247 166.714772 
L 206.206865 166.380478 
L 206.856174 166.193545 
L 207.505483 166.191626 
L 208.804101 165.868849 
L 209.45341 166.016801 
L 210.102719 165.725918 
L 213.998574 165.370805 
L 214.647883 165.419384 
L 215.297192 165.136917 
L 215.946501 165.084204 
L 216.59581 165.188745 
L 217.894428 164.820933 
L 218.543738 165.083909 
L 219.193047 164.935957 
L 220.491665 164.840571 
L 221.140974 164.715654 
L 223.73821 164.743118 
L 226.335447 164.526211 
L 226.984756 164.659102 
L 227.634065 164.571541 
L 228.932683 164.730715 
L 230.231301 164.420932 
L 230.88061 164.507163 
L 231.529919 164.270175 
L 232.179228 164.561944 
L 232.828538 164.476451 
L 233.477847 164.5584 
L 234.776465 164.505244 
L 236.075083 164.60314 
L 238.02301 164.501405 
L 238.672319 164.519271 
L 239.321628 164.363641 
L 239.970938 164.690995 
L 240.620247 164.628537 
L 241.269556 164.392434 
L 241.918865 164.466558 
L 242.568174 164.287155 
L 243.217483 164.490478 
L 243.866792 164.373977 
L 244.516101 164.474679 
L 245.814719 164.329385 
L 246.464028 164.298968 
L 247.113338 164.51809 
L 249.061265 164.274162 
L 249.710574 164.523701 
L 252.30781 164.41665 
L 252.957119 164.466853 
L 253.606428 164.366595 
L 254.255738 164.43304 
L 254.905047 164.328942 
L 255.554356 164.360393 
L 257.502283 164.160319 
L 258.151592 164.266927 
L 260.099519 164.140385 
L 260.748828 164.122666 
L 261.398138 163.969842 
L 262.696756 164.004837 
L 263.346065 163.774345 
L 263.995374 163.988004 
L 265.943301 163.613843 
L 266.59261 163.683684 
L 267.241919 163.598782 
L 268.540538 163.235695 
L 269.189847 163.331229 
L 270.488465 163.011701 
L 271.787083 162.837614 
L 272.436392 162.73455 
L 273.085701 162.799814 
L 273.73501 162.475413 
L 274.384319 162.485454 
L 275.033628 162.219377 
L 276.332247 162.180248 
L 277.630865 161.694016 
L 278.280174 161.789107 
L 278.929483 161.504426 
L 280.228101 161.259759 
L 280.87741 161.326352 
L 282.176028 160.77146 
L 283.474647 160.285966 
L 284.773265 160.20889 
L 285.422574 160.102134 
L 286.721192 159.348792 
L 287.370501 159.236869 
L 288.01981 158.99235 
L 288.669119 158.589101 
L 289.967737 158.290835 
L 291.266356 157.84137 
L 291.915665 157.781864 
L 292.564974 157.261228 
L 293.863592 156.744431 
L 294.512901 156.80187 
L 295.16221 156.096516 
L 295.811519 156.066984 
L 297.110138 155.277171 
L 297.759447 154.98304 
L 298.408756 154.903601 
L 299.707374 153.820099 
L 300.356683 153.712458 
L 301.655301 153.047414 
L 302.30461 152.692891 
L 302.953919 152.007914 
L 304.252538 151.669781 
L 304.901847 151.288976 
L 306.200465 150.258926 
L 306.849774 150.002004 
L 307.499083 149.350692 
L 308.148392 148.918059 
L 309.44701 148.299527 
L 310.096319 147.855673 
L 311.394938 146.693175 
L 313.342865 145.520637 
L 313.992174 144.984792 
L 314.641483 144.23647 
L 315.940101 143.344627 
L 317.238719 142.096045 
L 317.888028 141.664151 
L 319.835956 139.989729 
L 320.485265 139.537901 
L 321.134574 138.794009 
L 322.433192 137.655727 
L 323.082501 136.769494 
L 323.73181 136.30984 
L 327.627665 132.421755 
L 328.276974 131.673138 
L 328.926283 131.240062 
L 329.575592 130.339064 
L 330.87421 128.970438 
L 332.172828 127.381805 
L 334.120756 125.226909 
L 334.770065 124.258727 
L 335.419374 123.680358 
L 338.01661 120.566878 
L 339.315228 118.736384 
L 341.263156 116.501163 
L 341.912465 115.426669 
L 343.860392 113.073914 
L 344.509701 112.051837 
L 345.808319 110.366784 
L 346.457628 109.569441 
L 349.054865 105.607823 
L 349.704174 105.030783 
L 351.002792 103.146098 
L 351.652101 102.310807 
L 352.950719 100.231659 
L 354.249338 98.546902 
L 358.794501 91.664496 
L 359.44381 90.818278 
L 360.093119 89.527615 
L 360.742428 88.755225 
L 375.027228 67.527572 
L 376.975156 64.893975 
L 378.923083 62.218444 
L 384.117556 55.766309 
L 388.01341 51.568441 
L 391.259956 48.561274 
L 392.558574 47.483974 
L 394.506501 46.145175 
L 397.103738 44.723541 
L 399.051665 44.023355 
L 400.350283 43.702498 
L 402.29821 43.53225 
L 402.29821 43.53225 
" clip-path="url(#p37e3121db0)" style="fill: none; stroke: #d62728; stroke-width: 1.5; stroke-linecap: square"/>
   </g>
   <g id="line2d_29">
    <path d="M 77.643665 285.45225 
L 402.29821 43.53225 
L 402.29821 43.53225 
" clip-path="url(#p37e3121db0)" style="fill: none; stroke-dasharray: 5.55,2.4; stroke-dashoffset: 0; stroke: #1f77b4; stroke-width: 1.5"/>
   </g>
   <g id="patch_3">
    <path d="M 61.410938 297.54825 
L 61.410938 31.43625 
" style="fill: none; stroke: #000000; stroke-width: 0.8; stroke-linejoin: miter; stroke-linecap: square"/>
   </g>
   <g id="patch_4">
    <path d="M 418.530938 297.54825 
L 418.530938 31.43625 
" style="fill: none; stroke: #000000; stroke-width: 0.8; stroke-linejoin: miter; stroke-linecap: square"/>
   </g>
   <g id="patch_5">
    <path d="M 61.410938 297.54825 
L 418.530938 297.54825 
" style="fill: none; stroke: #000000; stroke-width: 0.8; stroke-linejoin: miter; stroke-linecap: square"/>
   </g>
   <g id="patch_6">
    <path d="M 61.410938 31.43625 
L 418.530938 31.43625 
" style="fill: none; stroke: #000000; stroke-width: 0.8; stroke-linejoin: miter; stroke-linecap: square"/>
   </g>
   <g id="text_15">
    <!-- Steane code [[7, 1, 3]] -->
    <g transform="translate(104.464688 25.43625) scale(0.24 -0.24)">
     <defs>
      <path id="DejaVuSans-53" d="M 3425 4513 
L 3425 3897 
Q 3066 4069 2747 4153 
Q 2428 4238 2131 4238 
Q 1616 4238 1336 4038 
Q 1056 3838 1056 3469 
Q 1056 3159 1242 3001 
Q 1428 2844 1947 2747 
L 2328 2669 
Q 3034 2534 3370 2195 
Q 3706 1856 3706 1288 
Q 3706 609 3251 259 
Q 2797 -91 1919 -91 
Q 1588 -91 1214 -16 
Q 841 59 441 206 
L 441 856 
Q 825 641 1194 531 
Q 1563 422 1919 422 
Q 2459 422 2753 634 
Q 3047 847 3047 1241 
Q 3047 1584 2836 1778 
Q 2625 1972 2144 2069 
L 1759 2144 
Q 1053 2284 737 2584 
Q 422 2884 422 3419 
Q 422 4038 858 4394 
Q 1294 4750 2059 4750 
Q 2388 4750 2728 4690 
Q 3069 4631 3425 4513 
z
" transform="scale(0.015625)"/>
      <path id="DejaVuSans-74" d="M 1172 4494 
L 1172 3500 
L 2356 3500 
L 2356 3053 
L 1172 3053 
L 1172 1153 
Q 1172 725 1289 603 
Q 1406 481 1766 481 
L 2356 481 
L 2356 0 
L 1766 0 
Q 1100 0 847 248 
Q 594 497 594 1153 
L 594 3053 
L 172 3053 
L 172 3500 
L 594 3500 
L 594 4494 
L 1172 4494 
z
" transform="scale(0.015625)"/>
      <path id="DejaVuSans-65" d="M 3597 1894 
L 3597 1613 
L 953 1613 
Q 991 1019 1311 708 
Q 1631 397 2203 397 
Q 2534 397 2845 478 
Q 3156 559 3463 722 
L 3463 178 
Q 3153 47 2828 -22 
Q 2503 -91 2169 -91 
Q 1331 -91 842 396 
Q 353 884 353 1716 
Q 353 2575 817 3079 
Q 1281 3584 2069 3584 
Q 2775 3584 3186 3129 
Q 3597 2675 3597 1894 
z
M 3022 2063 
Q 3016 2534 2758 2815 
Q 2500 3097 2075 3097 
Q 1594 3097 1305 2825 
Q 1016 2553 972 2059 
L 3022 2063 
z
" transform="scale(0.015625)"/>
      <path id="DejaVuSans-6e" d="M 3513 2113 
L 3513 0 
L 2938 0 
L 2938 2094 
Q 2938 2591 2744 2837 
Q 2550 3084 2163 3084 
Q 1697 3084 1428 2787 
Q 1159 2491 1159 1978 
L 1159 0 
L 581 0 
L 581 3500 
L 1159 3500 
L 1159 2956 
Q 1366 3272 1645 3428 
Q 1925 3584 2291 3584 
Q 2894 3584 3203 3211 
Q 3513 2838 3513 2113 
z
" transform="scale(0.015625)"/>
      <path id="DejaVuSans-64" d="M 2906 2969 
L 2906 4863 
L 3481 4863 
L 3481 0 
L 2906 0 
L 2906 525 
Q 2725 213 2448 61 
Q 2172 -91 1784 -91 
Q 1150 -91 751 415 
Q 353 922 353 1747 
Q 353 2572 751 3078 
Q 1150 3584 1784 3584 
Q 2172 3584 2448 3432 
Q 2725 3281 2906 2969 
z
M 947 1747 
Q 947 1113 1208 752 
Q 1469 391 1925 391 
Q 2381 391 2643 752 
Q 2906 1113 2906 1747 
Q 2906 2381 2643 2742 
Q 2381 3103 1925 3103 
Q 1469 3103 1208 2742 
Q 947 2381 947 1747 
z
" transform="scale(0.015625)"/>
      <path id="DejaVuSans-5b" d="M 550 4863 
L 1875 4863 
L 1875 4416 
L 1125 4416 
L 1125 -397 
L 1875 -397 
L 1875 -844 
L 550 -844 
L 550 4863 
z
" transform="scale(0.015625)"/>
      <path id="DejaVuSans-37" d="M 525 4666 
L 3525 4666 
L 3525 4397 
L 1831 0 
L 1172 0 
L 2766 4134 
L 525 4134 
L 525 4666 
z
" transform="scale(0.015625)"/>
      <path id="DejaVuSans-2c" d="M 750 794 
L 1409 794 
L 1409 256 
L 897 -744 
L 494 -744 
L 750 256 
L 750 794 
z
" transform="scale(0.015625)"/>
      <path id="DejaVuSans-33" d="M 2597 2516 
Q 3050 2419 3304 2112 
Q 3559 1806 3559 1356 
Q 3559 666 3084 287 
Q 2609 -91 1734 -91 
Q 1441 -91 1130 -33 
Q 819 25 488 141 
L 488 750 
Q 750 597 1062 519 
Q 1375 441 1716 441 
Q 2309 441 2620 675 
Q 2931 909 2931 1356 
Q 2931 1769 2642 2001 
Q 2353 2234 1838 2234 
L 1294 2234 
L 1294 2753 
L 1863 2753 
Q 2328 2753 2575 2939 
Q 2822 3125 2822 3475 
Q 2822 3834 2567 4026 
Q 2313 4219 1838 4219 
Q 1578 4219 1281 4162 
Q 984 4106 628 3988 
L 628 4550 
Q 988 4650 1302 4700 
Q 1616 4750 1894 4750 
Q 2613 4750 3031 4423 
Q 3450 4097 3450 3541 
Q 3450 3153 3228 2886 
Q 3006 2619 2597 2516 
z
" transform="scale(0.015625)"/>
      <path id="DejaVuSans-5d" d="M 1947 4863 
L 1947 -844 
L 622 -844 
L 622 -397 
L 1369 -397 
L 1369 4416 
L 622 4416 
L 622 4863 
L 1947 4863 
z
" transform="scale(0.015625)"/>
     </defs>
     <use xlink:href="#DejaVuSans-53"/>
     <use xlink:href="#DejaVuSans-74" x="63.476562"/>
     <use xlink:href="#DejaVuSans-65" x="102.685547"/>
     <use xlink:href="#DejaVuSans-61" x="164.208984"/>
     <use xlink:href="#DejaVuSans-6e" x="225.488281"/>
     <use xlink:href="#DejaVuSans-65" x="288.867188"/>
     <use xlink:href="#DejaVuSans-20" x="350.390625"/>
     <use xlink:href="#DejaVuSans-63" x="382.177734"/>
     <use xlink:href="#DejaVuSans-6f" x="437.158203"/>
     <use xlink:href="#DejaVuSans-64" x="498.339844"/>
     <use xlink:href="#DejaVuSans-65" x="561.816406"/>
     <use xlink:href="#DejaVuSans-20" x="623.339844"/>
     <use xlink:href="#DejaVuSans-5b" x="655.126953"/>
     <use xlink:href="#DejaVuSans-5b" x="694.140625"/>
     <use xlink:href="#DejaVuSans-37" x="733.154297"/>
     <use xlink:href="#DejaVuSans-2c" x="796.777344"/>
     <use xlink:href="#DejaVuSans-20" x="828.564453"/>
     <use xlink:href="#DejaVuSans-31" x="860.351562"/>
     <use xlink:href="#DejaVuSans-2c" x="923.974609"/>
     <use xlink:href="#DejaVuSans-20" x="955.761719"/>
     <use xlink:href="#DejaVuSans-33" x="987.548828"/>
     <use xlink:href="#DejaVuSans-5d" x="1051.171875"/>
     <use xlink:href="#DejaVuSans-5d" x="1090.185547"/>
    </g>
   </g>
   <g id="legend_1">
    <g id="patch_7">
     <path d="M 70.510938 79.999375 
L 283.440781 79.999375 
Q 286.040781 79.999375 286.040781 77.399375 
L 286.040781 40.53625 
Q 286.040781 37.93625 283.440781 37.93625 
L 70.510938 37.93625 
Q 67.910938 37.93625 67.910938 40.53625 
L 67.910938 77.399375 
Q 67.910938 79.999375 70.510938 79.999375 
z
" style="fill: #ffffff; opacity: 0.8; stroke: #cccccc; stroke-linejoin: miter"/>
    </g>
    <g id="line2d_30">
     <path d="M 73.110938 48.464219 
L 86.110938 48.464219 
L 99.110938 48.464219 
" style="fill: none; stroke-dasharray: 5.55,2.4; stroke-dashoffset: 0; stroke: #1f77b4; stroke-width: 1.5"/>
    </g>
    <g id="text_16">
     <!-- x (state) -->
     <g transform="translate(109.510938 53.014219) scale(0.13 -0.13)">
      <defs>
       <path id="DejaVuSans-78" d="M 3513 3500 
L 2247 1797 
L 3578 0 
L 2900 0 
L 1881 1375 
L 863 0 
L 184 0 
L 1544 1831 
L 300 3500 
L 978 3500 
L 1906 2253 
L 2834 3500 
L 3513 3500 
z
" transform="scale(0.015625)"/>
       <path id="DejaVuSans-28" d="M 1984 4856 
Q 1566 4138 1362 3434 
Q 1159 2731 1159 2009 
Q 1159 1288 1364 580 
Q 1569 -128 1984 -844 
L 1484 -844 
Q 1016 -109 783 600 
Q 550 1309 550 2009 
Q 550 2706 781 3412 
Q 1013 4119 1484 4856 
L 1984 4856 
z
" transform="scale(0.015625)"/>
       <path id="DejaVuSans-29" d="M 513 4856 
L 1013 4856 
Q 1481 4119 1714 3412 
Q 1947 2706 1947 2009 
Q 1947 1309 1714 600 
Q 1481 -109 1013 -844 
L 513 -844 
Q 928 -128 1133 580 
Q 1338 1288 1338 2009 
Q 1338 2731 1133 3434 
Q 928 4138 513 4856 
z
" transform="scale(0.015625)"/>
      </defs>
      <use xlink:href="#DejaVuSans-78"/>
      <use xlink:href="#DejaVuSans-20" x="59.179688"/>
      <use xlink:href="#DejaVuSans-28" x="90.966797"/>
      <use xlink:href="#DejaVuSans-73" x="129.980469"/>
      <use xlink:href="#DejaVuSans-74" x="182.080078"/>
      <use xlink:href="#DejaVuSans-61" x="221.289062"/>
      <use xlink:href="#DejaVuSans-74" x="282.568359"/>
      <use xlink:href="#DejaVuSans-65" x="321.777344"/>
      <use xlink:href="#DejaVuSans-29" x="383.300781"/>
     </g>
    </g>
    <g id="line2d_31">
     <path d="M 73.110938 67.545781 
L 86.110938 67.545781 
L 99.110938 67.545781 
" style="fill: none; stroke: #2ca02c; stroke-width: 1.5; stroke-linecap: square"/>
    </g>
    <g id="text_17">
     <!-- x (error) -->
     <g transform="translate(109.510938 72.095781) scale(0.13 -0.13)">
      <use xlink:href="#DejaVuSans-78"/>
      <use xlink:href="#DejaVuSans-20" x="59.179688"/>
      <use xlink:href="#DejaVuSans-28" x="90.966797"/>
      <use xlink:href="#DejaVuSans-65" x="129.980469"/>
      <use xlink:href="#DejaVuSans-72" x="191.503906"/>
      <use xlink:href="#DejaVuSans-72" x="230.867188"/>
      <use xlink:href="#DejaVuSans-6f" x="269.730469"/>
      <use xlink:href="#DejaVuSans-72" x="330.912109"/>
      <use xlink:href="#DejaVuSans-29" x="372.025391"/>
     </g>
    </g>
    <g id="line2d_32">
     <path d="M 190.411563 48.464219 
L 203.411563 48.464219 
L 216.411563 48.464219 
" style="fill: none; stroke-dasharray: 5.55,2.4; stroke-dashoffset: 0; stroke: #ff7f0e; stroke-width: 1.5"/>
    </g>
    <g id="text_18">
     <!-- z (state) -->
     <g transform="translate(226.811563 53.014219) scale(0.13 -0.13)">
      <defs>
       <path id="DejaVuSans-7a" d="M 353 3500 
L 3084 3500 
L 3084 2975 
L 922 459 
L 3084 459 
L 3084 0 
L 275 0 
L 275 525 
L 2438 3041 
L 353 3041 
L 353 3500 
z
" transform="scale(0.015625)"/>
      </defs>
      <use xlink:href="#DejaVuSans-7a"/>
      <use xlink:href="#DejaVuSans-20" x="52.490234"/>
      <use xlink:href="#DejaVuSans-28" x="84.277344"/>
      <use xlink:href="#DejaVuSans-73" x="123.291016"/>
      <use xlink:href="#DejaVuSans-74" x="175.390625"/>
      <use xlink:href="#DejaVuSans-61" x="214.599609"/>
      <use xlink:href="#DejaVuSans-74" x="275.878906"/>
      <use xlink:href="#DejaVuSans-65" x="315.087891"/>
      <use xlink:href="#DejaVuSans-29" x="376.611328"/>
     </g>
    </g>
    <g id="line2d_33">
     <path d="M 190.411563 67.545781 
L 203.411563 67.545781 
L 216.411563 67.545781 
" style="fill: none; stroke: #d62728; stroke-width: 1.5; stroke-linecap: square"/>
    </g>
    <g id="text_19">
     <!-- z (error) -->
     <g transform="translate(226.811563 72.095781) scale(0.13 -0.13)">
      <use xlink:href="#DejaVuSans-7a"/>
      <use xlink:href="#DejaVuSans-20" x="52.490234"/>
      <use xlink:href="#DejaVuSans-28" x="84.277344"/>
      <use xlink:href="#DejaVuSans-65" x="123.291016"/>
      <use xlink:href="#DejaVuSans-72" x="184.814453"/>
      <use xlink:href="#DejaVuSans-72" x="224.177734"/>
      <use xlink:href="#DejaVuSans-6f" x="263.041016"/>
      <use xlink:href="#DejaVuSans-72" x="324.222656"/>
      <use xlink:href="#DejaVuSans-29" x="365.335938"/>
     </g>
    </g>
   </g>
  </g>
 </g>
 <defs>
  <clipPath id="p37e3121db0">
   <rect x="61.410938" y="31.43625" width="357.12" height="266.112"/>
  </clipPath>
 </defs>
</svg>
