<?xml version="1.0" encoding="utf-8" standalone="no"?>
<!DOCTYPE svg PUBLIC "-//W3C//DTD SVG 1.1//EN"
  "http://www.w3.org/Graphics/SVG/1.1/DTD/svg11.dtd">
<svg xmlns:xlink="http://www.w3.org/1999/xlink" width="451.973906pt" height="349.621687pt" viewBox="0 0 451.973906 349.621687" xmlns="http://www.w3.org/2000/svg" version="1.1">
 <defs>
  <style type="text/css">*{stroke-linejoin: round; stroke-linecap: butt}</style>
 </defs>
 <g id="figure_1">
  <g id="patch_1">
   <path d="M 0 349.621687 
L 451.973906 349.621687 
L 451.973906 0 
L 0 0 
L 0 349.621687 
z
" style="fill: none"/>
  </g>
  <g id="axes_1">
   <g id="patch_2">
    <path d="M 70.954688 297.54825 
L 428.074687 297.54825 
L 428.074687 31.43625 
L 70.954688 31.43625 
L 70.954688 297.54825 
z
" style="fill: none"/>
   </g>
   <g id="matplotlib.axis_1">
    <g id="xtick_1">
     <g id="line2d_1">
      <path d="M 70.954687 297.54825 
L 70.954687 31.43625 
" clip-path="url(#p6037f1dca1)" style="fill: none; stroke: #b0b0b0; stroke-width: 0.8; stroke-linecap: square"/>
     </g>
     <g id="line2d_2">
      <defs>
       <path id="md39032bed2" d="M 0 0 
L 0 3.5 
" style="stroke: #000000; stroke-width: 0.8"/>
      </defs>
      <g>
       <use xlink:href="#md39032bed2" x="70.954687" y="297.54825" style="stroke: #000000; stroke-width: 0.8"/>
      </g>
     </g>
     <g id="text_1">
      <!-- 0.02 -->
      <g transform="translate(54.255469 315.945906) scale(0.15 -0.15)">
       <defs>
        <path id="DejaVuSans-30" d="M 2034 4250 
Q 1547 4250 1301 3770 
Q 1056 3291 1056 2328 
Q 1056 1369 1301 889 
Q 1547 409 2034 409 
Q 2525 409 2770 889 
Q 3016 1369 3016 2328 
Q 3016 3291 2770 3770 
Q 2525 4250 2034 4250 
z
M 2034 4750 
Q 2819 4750 3233 4129 
Q 3647 3509 3647 2328 
Q 3647 1150 3233 529 
Q 2819 -91 2034 -91 
Q 1250 -91 836 529 
Q 422 1150 422 2328 
Q 422 3509 836 4129 
Q 1250 4750 2034 4750 
z
" transform="scale(0.015625)"/>
        <path id="DejaVuSans-2e" d="M 684 794 
L 1344 794 
L 1344 0 
L 684 0 
L 684 794 
z
" transform="scale(0.015625)"/>
        <path id="DejaVuSans-32" d="M 1228 531 
L 3431 531 
L 3431 0 
L 469 0 
L 469 531 
Q 828 903 1448 1529 
Q 2069 2156 2228 2338 
Q 2531 2678 2651 2914 
Q 2772 3150 2772 3378 
Q 2772 3750 2511 3984 
Q 2250 4219 1831 4219 
Q 1534 4219 1204 4116 
Q 875 4013 500 3803 
L 500 4441 
Q 881 4594 1212 4672 
Q 1544 4750 1819 4750 
Q 2544 4750 2975 4387 
Q 3406 4025 3406 3419 
Q 3406 3131 3298 2873 
Q 3191 2616 2906 2266 
Q 2828 2175 2409 1742 
Q 1991 1309 1228 531 
z
" transform="scale(0.015625)"/>
       </defs>
       <use xlink:href="#DejaVuSans-30"/>
       <use xlink:href="#DejaVuSans-2e" x="63.623047"/>
       <use xlink:href="#DejaVuSans-30" x="95.410156"/>
       <use xlink:href="#DejaVuSans-32" x="159.033203"/>
      </g>
     </g>
    </g>
    <g id="xtick_2">
     <g id="line2d_3">
      <path d="M 142.378687 297.54825 
L 142.378687 31.43625 
" clip-path="url(#p6037f1dca1)" style="fill: none; stroke: #b0b0b0; stroke-width: 0.8; stroke-linecap: square"/>
     </g>
     <g id="line2d_4">
      <g>
       <use xlink:href="#md39032bed2" x="142.378687" y="297.54825" style="stroke: #000000; stroke-width: 0.8"/>
      </g>
     </g>
     <g id="text_2">
      <!-- 0.04 -->
      <g transform="translate(125.679469 315.945906) scale(0.15 -0.15)">
       <defs>
        <path id="DejaVuSans-34" d="M 2419 4116 
L 825 1625 
L 2419 1625 
L 2419 4116 
z
M 2253 4666 
L 3047 4666 
L 3047 1625 
L 3713 1625 
L 3713 1100 
L 3047 1100 
L 3047 0 
L 2419 0 
L 2419 1100 
L 313 1100 
L 313 1709 
L 2253 4666 
z
" transform="scale(0.015625)"/>
       </defs>
       <use xlink:href="#DejaVuSans-30"/>
       <use xlink:href="#DejaVuSans-2e" x="63.623047"/>
       <use xlink:href="#DejaVuSans-30" x="95.410156"/>
       <use xlink:href="#DejaVuSans-34" x="159.033203"/>
      </g>
     </g>
    </g>
    <g id="xtick_3">
     <g id="line2d_5">
      <path d="M 213.802687 297.54825 
L 213.802687 31.43625 
" clip-path="url(#p6037f1dca1)" style="fill: none; stroke: #b0b0b0; stroke-width: 0.8; stroke-linecap: square"/>
     </g>
     <g id="line2d_6">
      <g>
       <use xlink:href="#md39032bed2" x="213.802687" y="297.54825" style="stroke: #000000; stroke-width: 0.8"/>
      </g>
     </g>
     <g id="text_3">
      <!-- 0.06 -->
      <g transform="translate(197.103469 315.945906) scale(0.15 -0.15)">
       <defs>
        <path id="DejaVuSans-36" d="M 2113 2584 
Q 1688 2584 1439 2293 
Q 1191 2003 1191 1497 
Q 1191 994 1439 701 
Q 1688 409 2113 409 
Q 2538 409 2786 701 
Q 3034 994 3034 1497 
Q 3034 2003 2786 2293 
Q 2538 2584 2113 2584 
z
M 3366 4563 
L 3366 3988 
Q 3128 4100 2886 4159 
Q 2644 4219 2406 4219 
Q 1781 4219 1451 3797 
Q 1122 3375 1075 2522 
Q 1259 2794 1537 2939 
Q 1816 3084 2150 3084 
Q 2853 3084 3261 2657 
Q 3669 2231 3669 1497 
Q 3669 778 3244 343 
Q 2819 -91 2113 -91 
Q 1303 -91 875 529 
Q 447 1150 447 2328 
Q 447 3434 972 4092 
Q 1497 4750 2381 4750 
Q 2619 4750 2861 4703 
Q 3103 4656 3366 4563 
z
" transform="scale(0.015625)"/>
       </defs>
       <use xlink:href="#DejaVuSans-30"/>
       <use xlink:href="#DejaVuSans-2e" x="63.623047"/>
       <use xlink:href="#DejaVuSans-30" x="95.410156"/>
       <use xlink:href="#DejaVuSans-36" x="159.033203"/>
      </g>
     </g>
    </g>
    <g id="xtick_4">
     <g id="line2d_7">
      <path d="M 285.226687 297.54825 
L 285.226687 31.43625 
" clip-path="url(#p6037f1dca1)" style="fill: none; stroke: #b0b0b0; stroke-width: 0.8; stroke-linecap: square"/>
     </g>
     <g id="line2d_8">
      <g>
       <use xlink:href="#md39032bed2" x="285.226687" y="297.54825" style="stroke: #000000; stroke-width: 0.8"/>
      </g>
     </g>
     <g id="text_4">
      <!-- 0.08 -->
      <g transform="translate(268.527469 315.945906) scale(0.15 -0.15)">
       <defs>
        <path id="DejaVuSans-38" d="M 2034 2216 
Q 1584 2216 1326 1975 
Q 1069 1734 1069 1313 
Q 1069 891 1326 650 
Q 1584 409 2034 409 
Q 2484 409 2743 651 
Q 3003 894 3003 1313 
Q 3003 1734 2745 1975 
Q 2488 2216 2034 2216 
z
M 1403 2484 
Q 997 2584 770 2862 
Q 544 3141 544 3541 
Q 544 4100 942 4425 
Q 1341 4750 2034 4750 
Q 2731 4750 3128 4425 
Q 3525 4100 3525 3541 
Q 3525 3141 3298 2862 
Q 3072 2584 2669 2484 
Q 3125 2378 3379 2068 
Q 3634 1759 3634 1313 
Q 3634 634 3220 271 
Q 2806 -91 2034 -91 
Q 1263 -91 848 271 
Q 434 634 434 1313 
Q 434 1759 690 2068 
Q 947 2378 1403 2484 
z
M 1172 3481 
Q 1172 3119 1398 2916 
Q 1625 2713 2034 2713 
Q 2441 2713 2670 2916 
Q 2900 3119 2900 3481 
Q 2900 3844 2670 4047 
Q 2441 4250 2034 4250 
Q 1625 4250 1398 4047 
Q 1172 3844 1172 3481 
z
" transform="scale(0.015625)"/>
       </defs>
       <use xlink:href="#DejaVuSans-30"/>
       <use xlink:href="#DejaVuSans-2e" x="63.623047"/>
       <use xlink:href="#DejaVuSans-30" x="95.410156"/>
       <use xlink:href="#DejaVuSans-38" x="159.033203"/>
      </g>
     </g>
    </g>
    <g id="xtick_5">
     <g id="line2d_9">
      <path d="M 356.650688 297.54825 
L 356.650688 31.43625 
" clip-path="url(#p6037f1dca1)" style="fill: none; stroke: #b0b0b0; stroke-width: 0.8; stroke-linecap: square"/>
     </g>
     <g id="line2d_10">
      <g>
       <use xlink:href="#md39032bed2" x="356.650688" y="297.54825" style="stroke: #000000; stroke-width: 0.8"/>
      </g>
     </g>
     <g id="text_5">
      <!-- 0.10 -->
      <g transform="translate(339.951469 315.945906) scale(0.15 -0.15)">
       <defs>
        <path id="DejaVuSans-31" d="M 794 531 
L 1825 531 
L 1825 4091 
L 703 3866 
L 703 4441 
L 1819 4666 
L 2450 4666 
L 2450 531 
L 3481 531 
L 3481 0 
L 794 0 
L 794 531 
z
" transform="scale(0.015625)"/>
       </defs>
       <use xlink:href="#DejaVuSans-30"/>
       <use xlink:href="#DejaVuSans-2e" x="63.623047"/>
       <use xlink:href="#DejaVuSans-31" x="95.410156"/>
       <use xlink:href="#DejaVuSans-30" x="159.033203"/>
      </g>
     </g>
    </g>
    <g id="xtick_6">
     <g id="line2d_11">
      <path d="M 428.074688 297.54825 
L 428.074688 31.43625 
" clip-path="url(#p6037f1dca1)" style="fill: none; stroke: #b0b0b0; stroke-width: 0.8; stroke-linecap: square"/>
     </g>
     <g id="line2d_12">
      <g>
       <use xlink:href="#md39032bed2" x="428.074688" y="297.54825" style="stroke: #000000; stroke-width: 0.8"/>
      </g>
     </g>
     <g id="text_6">
      <!-- 0.12 -->
      <g transform="translate(411.375469 315.945906) scale(0.15 -0.15)">
       <use xlink:href="#DejaVuSans-30"/>
       <use xlink:href="#DejaVuSans-2e" x="63.623047"/>
       <use xlink:href="#DejaVuSans-31" x="95.410156"/>
       <use xlink:href="#DejaVuSans-32" x="159.033203"/>
      </g>
     </g>
    </g>
    <g id="text_7">
     <!-- Physical Error -->
     <g transform="translate(181.288125 338.262312) scale(0.2 -0.2)">
      <defs>
       <path id="DejaVuSans-50" d="M 1259 4147 
L 1259 2394 
L 2053 2394 
Q 2494 2394 2734 2622 
Q 2975 2850 2975 3272 
Q 2975 3691 2734 3919 
Q 2494 4147 2053 4147 
L 1259 4147 
z
M 628 4666 
L 2053 4666 
Q 2838 4666 3239 4311 
Q 3641 3956 3641 3272 
Q 3641 2581 3239 2228 
Q 2838 1875 2053 1875 
L 1259 1875 
L 1259 0 
L 628 0 
L 628 4666 
z
" transform="scale(0.015625)"/>
       <path id="DejaVuSans-68" d="M 3513 2113 
L 3513 0 
L 2938 0 
L 2938 2094 
Q 2938 2591 2744 2837 
Q 2550 3084 2163 3084 
Q 1697 3084 1428 2787 
Q 1159 2491 1159 1978 
L 1159 0 
L 581 0 
L 581 4863 
L 1159 4863 
L 1159 2956 
Q 1366 3272 1645 3428 
Q 1925 3584 2291 3584 
Q 2894 3584 3203 3211 
Q 3513 2838 3513 2113 
z
" transform="scale(0.015625)"/>
       <path id="DejaVuSans-79" d="M 2059 -325 
Q 1816 -950 1584 -1140 
Q 1353 -1331 966 -1331 
L 506 -1331 
L 506 -850 
L 844 -850 
Q 1081 -850 1212 -737 
Q 1344 -625 1503 -206 
L 1606 56 
L 191 3500 
L 800 3500 
L 1894 763 
L 2988 3500 
L 3597 3500 
L 2059 -325 
z
" transform="scale(0.015625)"/>
       <path id="DejaVuSans-73" d="M 2834 3397 
L 2834 2853 
Q 2591 2978 2328 3040 
Q 2066 3103 1784 3103 
Q 1356 3103 1142 2972 
Q 928 2841 928 2578 
Q 928 2378 1081 2264 
Q 1234 2150 1697 2047 
L 1894 2003 
Q 2506 1872 2764 1633 
Q 3022 1394 3022 966 
Q 3022 478 2636 193 
Q 2250 -91 1575 -91 
Q 1294 -91 989 -36 
Q 684 19 347 128 
L 347 722 
Q 666 556 975 473 
Q 1284 391 1588 391 
Q 1994 391 2212 530 
Q 2431 669 2431 922 
Q 2431 1156 2273 1281 
Q 2116 1406 1581 1522 
L 1381 1569 
Q 847 1681 609 1914 
Q 372 2147 372 2553 
Q 372 3047 722 3315 
Q 1072 3584 1716 3584 
Q 2034 3584 2315 3537 
Q 2597 3491 2834 3397 
z
" transform="scale(0.015625)"/>
       <path id="DejaVuSans-69" d="M 603 3500 
L 1178 3500 
L 1178 0 
L 603 0 
L 603 3500 
z
M 603 4863 
L 1178 4863 
L 1178 4134 
L 603 4134 
L 603 4863 
z
" transform="scale(0.015625)"/>
       <path id="DejaVuSans-63" d="M 3122 3366 
L 3122 2828 
Q 2878 2963 2633 3030 
Q 2388 3097 2138 3097 
Q 1578 3097 1268 2742 
Q 959 2388 959 1747 
Q 959 1106 1268 751 
Q 1578 397 2138 397 
Q 2388 397 2633 464 
Q 2878 531 3122 666 
L 3122 134 
Q 2881 22 2623 -34 
Q 2366 -91 2075 -91 
Q 1284 -91 818 406 
Q 353 903 353 1747 
Q 353 2603 823 3093 
Q 1294 3584 2113 3584 
Q 2378 3584 2631 3529 
Q 2884 3475 3122 3366 
z
" transform="scale(0.015625)"/>
       <path id="DejaVuSans-61" d="M 2194 1759 
Q 1497 1759 1228 1600 
Q 959 1441 959 1056 
Q 959 750 1161 570 
Q 1363 391 1709 391 
Q 2188 391 2477 730 
Q 2766 1069 2766 1631 
L 2766 1759 
L 2194 1759 
z
M 3341 1997 
L 3341 0 
L 2766 0 
L 2766 531 
Q 2569 213 2275 61 
Q 1981 -91 1556 -91 
Q 1019 -91 701 211 
Q 384 513 384 1019 
Q 384 1609 779 1909 
Q 1175 2209 1959 2209 
L 2766 2209 
L 2766 2266 
Q 2766 2663 2505 2880 
Q 2244 3097 1772 3097 
Q 1472 3097 1187 3025 
Q 903 2953 641 2809 
L 641 3341 
Q 956 3463 1253 3523 
Q 1550 3584 1831 3584 
Q 2591 3584 2966 3190 
Q 3341 2797 3341 1997 
z
" transform="scale(0.015625)"/>
       <path id="DejaVuSans-6c" d="M 603 4863 
L 1178 4863 
L 1178 0 
L 603 0 
L 603 4863 
z
" transform="scale(0.015625)"/>
       <path id="DejaVuSans-20" transform="scale(0.015625)"/>
       <path id="DejaVuSans-45" d="M 628 4666 
L 3578 4666 
L 3578 4134 
L 1259 4134 
L 1259 2753 
L 3481 2753 
L 3481 2222 
L 1259 2222 
L 1259 531 
L 3634 531 
L 3634 0 
L 628 0 
L 628 4666 
z
" transform="scale(0.015625)"/>
       <path id="DejaVuSans-72" d="M 2631 2963 
Q 2534 3019 2420 3045 
Q 2306 3072 2169 3072 
Q 1681 3072 1420 2755 
Q 1159 2438 1159 1844 
L 1159 0 
L 581 0 
L 581 3500 
L 1159 3500 
L 1159 2956 
Q 1341 3275 1631 3429 
Q 1922 3584 2338 3584 
Q 2397 3584 2469 3576 
Q 2541 3569 2628 3553 
L 2631 2963 
z
" transform="scale(0.015625)"/>
       <path id="DejaVuSans-6f" d="M 1959 3097 
Q 1497 3097 1228 2736 
Q 959 2375 959 1747 
Q 959 1119 1226 758 
Q 1494 397 1959 397 
Q 2419 397 2687 759 
Q 2956 1122 2956 1747 
Q 2956 2369 2687 2733 
Q 2419 3097 1959 3097 
z
M 1959 3584 
Q 2709 3584 3137 3096 
Q 3566 2609 3566 1747 
Q 3566 888 3137 398 
Q 2709 -91 1959 -91 
Q 1206 -91 779 398 
Q 353 888 353 1747 
Q 353 2609 779 3096 
Q 1206 3584 1959 3584 
z
" transform="scale(0.015625)"/>
      </defs>
      <use xlink:href="#DejaVuSans-50"/>
      <use xlink:href="#DejaVuSans-68" x="60.302734"/>
      <use xlink:href="#DejaVuSans-79" x="123.681641"/>
      <use xlink:href="#DejaVuSans-73" x="182.861328"/>
      <use xlink:href="#DejaVuSans-69" x="234.960938"/>
      <use xlink:href="#DejaVuSans-63" x="262.744141"/>
      <use xlink:href="#DejaVuSans-61" x="317.724609"/>
      <use xlink:href="#DejaVuSans-6c" x="379.003906"/>
      <use xlink:href="#DejaVuSans-20" x="406.787109"/>
      <use xlink:href="#DejaVuSans-45" x="438.574219"/>
      <use xlink:href="#DejaVuSans-72" x="501.757812"/>
      <use xlink:href="#DejaVuSans-72" x="541.121094"/>
      <use xlink:href="#DejaVuSans-6f" x="579.984375"/>
      <use xlink:href="#DejaVuSans-72" x="641.166016"/>
     </g>
    </g>
   </g>
   <g id="matplotlib.axis_2">
    <g id="ytick_1">
     <g id="line2d_13">
      <path d="M 70.954688 269.422591 
L 428.074687 269.422591 
" clip-path="url(#p6037f1dca1)" style="fill: none; stroke: #b0b0b0; stroke-width: 0.8; stroke-linecap: square"/>
     </g>
     <g id="line2d_14">
      <defs>
       <path id="m6f3f5b6aff" d="M 0 0 
L -3.5 0 
" style="stroke: #000000; stroke-width: 0.8"/>
      </defs>
      <g>
       <use xlink:href="#m6f3f5b6aff" x="70.954688" y="269.422591" style="stroke: #000000; stroke-width: 0.8"/>
      </g>
     </g>
     <g id="text_8">
      <!-- 0.02 -->
      <g transform="translate(30.55625 275.12142) scale(0.15 -0.15)">
       <use xlink:href="#DejaVuSans-30"/>
       <use xlink:href="#DejaVuSans-2e" x="63.623047"/>
       <use xlink:href="#DejaVuSans-30" x="95.410156"/>
       <use xlink:href="#DejaVuSans-32" x="159.033203"/>
      </g>
     </g>
    </g>
    <g id="ytick_2">
     <g id="line2d_15">
      <path d="M 70.954688 226.152348 
L 428.074687 226.152348 
" clip-path="url(#p6037f1dca1)" style="fill: none; stroke: #b0b0b0; stroke-width: 0.8; stroke-linecap: square"/>
     </g>
     <g id="line2d_16">
      <g>
       <use xlink:href="#m6f3f5b6aff" x="70.954688" y="226.152348" style="stroke: #000000; stroke-width: 0.8"/>
      </g>
     </g>
     <g id="text_9">
      <!-- 0.04 -->
      <g transform="translate(30.55625 231.851176) scale(0.15 -0.15)">
       <use xlink:href="#DejaVuSans-30"/>
       <use xlink:href="#DejaVuSans-2e" x="63.623047"/>
       <use xlink:href="#DejaVuSans-30" x="95.410156"/>
       <use xlink:href="#DejaVuSans-34" x="159.033203"/>
      </g>
     </g>
    </g>
    <g id="ytick_3">
     <g id="line2d_17">
      <path d="M 70.954688 182.882104 
L 428.074687 182.882104 
" clip-path="url(#p6037f1dca1)" style="fill: none; stroke: #b0b0b0; stroke-width: 0.8; stroke-linecap: square"/>
     </g>
     <g id="line2d_18">
      <g>
       <use xlink:href="#m6f3f5b6aff" x="70.954688" y="182.882104" style="stroke: #000000; stroke-width: 0.8"/>
      </g>
     </g>
     <g id="text_10">
      <!-- 0.06 -->
      <g transform="translate(30.55625 188.580932) scale(0.15 -0.15)">
       <use xlink:href="#DejaVuSans-30"/>
       <use xlink:href="#DejaVuSans-2e" x="63.623047"/>
       <use xlink:href="#DejaVuSans-30" x="95.410156"/>
       <use xlink:href="#DejaVuSans-36" x="159.033203"/>
      </g>
     </g>
    </g>
    <g id="ytick_4">
     <g id="line2d_19">
      <path d="M 70.954688 139.61186 
L 428.074687 139.61186 
" clip-path="url(#p6037f1dca1)" style="fill: none; stroke: #b0b0b0; stroke-width: 0.8; stroke-linecap: square"/>
     </g>
     <g id="line2d_20">
      <g>
       <use xlink:href="#m6f3f5b6aff" x="70.954688" y="139.61186" style="stroke: #000000; stroke-width: 0.8"/>
      </g>
     </g>
     <g id="text_11">
      <!-- 0.08 -->
      <g transform="translate(30.55625 145.310688) scale(0.15 -0.15)">
       <use xlink:href="#DejaVuSans-30"/>
       <use xlink:href="#DejaVuSans-2e" x="63.623047"/>
       <use xlink:href="#DejaVuSans-30" x="95.410156"/>
       <use xlink:href="#DejaVuSans-38" x="159.033203"/>
      </g>
     </g>
    </g>
    <g id="ytick_5">
     <g id="line2d_21">
      <path d="M 70.954688 96.341616 
L 428.074687 96.341616 
" clip-path="url(#p6037f1dca1)" style="fill: none; stroke: #b0b0b0; stroke-width: 0.8; stroke-linecap: square"/>
     </g>
     <g id="line2d_22">
      <g>
       <use xlink:href="#m6f3f5b6aff" x="70.954688" y="96.341616" style="stroke: #000000; stroke-width: 0.8"/>
      </g>
     </g>
     <g id="text_12">
      <!-- 0.10 -->
      <g transform="translate(30.55625 102.040444) scale(0.15 -0.15)">
       <use xlink:href="#DejaVuSans-30"/>
       <use xlink:href="#DejaVuSans-2e" x="63.623047"/>
       <use xlink:href="#DejaVuSans-31" x="95.410156"/>
       <use xlink:href="#DejaVuSans-30" x="159.033203"/>
      </g>
     </g>
    </g>
    <g id="ytick_6">
     <g id="line2d_23">
      <path d="M 70.954688 53.071372 
L 428.074687 53.071372 
" clip-path="url(#p6037f1dca1)" style="fill: none; stroke: #b0b0b0; stroke-width: 0.8; stroke-linecap: square"/>
     </g>
     <g id="line2d_24">
      <g>
       <use xlink:href="#m6f3f5b6aff" x="70.954688" y="53.071372" style="stroke: #000000; stroke-width: 0.8"/>
      </g>
     </g>
     <g id="text_13">
      <!-- 0.12 -->
      <g transform="translate(30.55625 58.7702) scale(0.15 -0.15)">
       <use xlink:href="#DejaVuSans-30"/>
       <use xlink:href="#DejaVuSans-2e" x="63.623047"/>
       <use xlink:href="#DejaVuSans-31" x="95.410156"/>
       <use xlink:href="#DejaVuSans-32" x="159.033203"/>
      </g>
     </g>
    </g>
    <g id="text_14">
     <!-- Logical Error -->
     <g transform="translate(22.396875 227.087562) rotate(-90) scale(0.2 -0.2)">
      <defs>
       <path id="DejaVuSans-4c" d="M 628 4666 
L 1259 4666 
L 1259 531 
L 3531 531 
L 3531 0 
L 628 0 
L 628 4666 
z
" transform="scale(0.015625)"/>
       <path id="DejaVuSans-67" d="M 2906 1791 
Q 2906 2416 2648 2759 
Q 2391 3103 1925 3103 
Q 1463 3103 1205 2759 
Q 947 2416 947 1791 
Q 947 1169 1205 825 
Q 1463 481 1925 481 
Q 2391 481 2648 825 
Q 2906 1169 2906 1791 
z
M 3481 434 
Q 3481 -459 3084 -895 
Q 2688 -1331 1869 -1331 
Q 1566 -1331 1297 -1286 
Q 1028 -1241 775 -1147 
L 775 -588 
Q 1028 -725 1275 -790 
Q 1522 -856 1778 -856 
Q 2344 -856 2625 -561 
Q 2906 -266 2906 331 
L 2906 616 
Q 2728 306 2450 153 
Q 2172 0 1784 0 
Q 1141 0 747 490 
Q 353 981 353 1791 
Q 353 2603 747 3093 
Q 1141 3584 1784 3584 
Q 2172 3584 2450 3431 
Q 2728 3278 2906 2969 
L 2906 3500 
L 3481 3500 
L 3481 434 
z
" transform="scale(0.015625)"/>
      </defs>
      <use xlink:href="#DejaVuSans-4c"/>
      <use xlink:href="#DejaVuSans-6f" x="53.962891"/>
      <use xlink:href="#DejaVuSans-67" x="115.144531"/>
      <use xlink:href="#DejaVuSans-69" x="178.621094"/>
      <use xlink:href="#DejaVuSans-63" x="206.404297"/>
      <use xlink:href="#DejaVuSans-61" x="261.384766"/>
      <use xlink:href="#DejaVuSans-6c" x="322.664062"/>
      <use xlink:href="#DejaVuSans-20" x="350.447266"/>
      <use xlink:href="#DejaVuSans-45" x="382.234375"/>
      <use xlink:href="#DejaVuSans-72" x="445.417969"/>
      <use xlink:href="#DejaVuSans-72" x="484.78125"/>
      <use xlink:href="#DejaVuSans-6f" x="523.644531"/>
      <use xlink:href="#DejaVuSans-72" x="584.826172"/>
     </g>
    </g>
   </g>
   <g id="line2d_25">
    <path d="M 70.240448 143.469049 
L 70.954687 142.221174 
L 71.668927 139.845589 
L 73.811647 134.96501 
L 74.525887 133.637904 
L 75.240127 131.558112 
L 75.954367 130.286467 
L 76.668607 127.545103 
L 77.382847 127.098773 
L 78.811328 122.554922 
L 79.525567 121.786389 
L 81.668287 116.915053 
L 83.096767 112.350074 
L 83.811007 111.675297 
L 85.239487 107.909223 
L 85.953727 107.082588 
L 87.382207 102.244264 
L 88.096447 101.99733 
L 88.810688 99.480452 
L 90.239167 97.942066 
L 90.953407 96.066951 
L 91.667648 93.511778 
L 92.381887 92.395953 
L 93.096127 89.302014 
L 93.810367 87.871909 
L 94.524607 87.182607 
L 95.238847 84.544242 
L 95.953087 82.653281 
L 96.667327 82.015478 
L 98.095807 77.974739 
L 98.810047 77.484832 
L 99.524287 73.450696 
L 100.238527 73.528605 
L 100.952767 72.719137 
L 101.667007 70.734421 
L 102.381247 68.118504 
L 103.095488 66.790078 
L 103.809727 65.208115 
L 104.523967 64.991553 
L 105.952447 59.528632 
L 106.666687 58.350743 
L 107.380927 56.302643 
L 108.095167 54.840846 
L 108.809407 54.03798 
L 109.523647 51.593729 
L 110.237887 50.580903 
L 110.952127 49.200978 
L 111.666367 46.973289 
L 115.951807 37.976702 
L 116.666048 35.098005 
L 117.380287 34.4021 
L 118.094527 32.610177 
L 118.808767 30.14876 
L 119.523007 28.819013 
L 120.237247 27.215922 
L 120.951487 25.29327 
L 121.665728 24.713569 
L 122.379967 22.068601 
L 123.094207 20.757342 
L 123.808447 19.80658 
L 124.522688 17.271214 
L 126.665407 13.969956 
L 127.379647 10.940722 
L 128.093887 10.144459 
L 128.808128 8.244255 
L 129.522368 6.885457 
L 130.236607 5.793401 
L 130.950847 4.195593 
L 131.665087 1.555907 
L 132.379327 0.445364 
L 132.766921 -1 
L 132.766921 -1 
" clip-path="url(#p6037f1dca1)" style="fill: none; stroke: #2ca02c; stroke-width: 1.5; stroke-linecap: square"/>
   </g>
   <g id="line2d_26">
    <path d="M 70.240448 290.052811 
L 70.954687 289.918119 
L 72.383167 288.810217 
L 73.811647 288.064133 
L 75.240127 286.929821 
L 75.954367 286.359364 
L 77.382847 285.821919 
L 78.097087 284.976797 
L 78.811328 284.791926 
L 80.954048 282.751749 
L 81.668287 282.51802 
L 82.382527 282.113946 
L 83.811007 280.946622 
L 84.525248 280.782879 
L 85.239487 280.201858 
L 85.953727 279.888899 
L 86.667968 278.878714 
L 87.382207 278.10622 
L 88.096447 278.08113 
L 88.810688 277.597826 
L 89.524927 276.694602 
L 90.239167 276.394848 
L 90.953407 275.721391 
L 91.667648 275.379381 
L 93.096127 274.219979 
L 93.810367 272.920604 
L 94.524607 273.384101 
L 95.238847 272.413531 
L 95.953087 272.062277 
L 98.095807 270.307329 
L 98.810047 269.236401 
L 100.238527 268.231498 
L 101.667007 267.34412 
L 102.381247 266.838367 
L 103.095488 266.05795 
L 103.809727 265.472967 
L 104.523967 264.464103 
L 105.238208 264.019093 
L 106.666687 262.896665 
L 107.380927 261.904968 
L 108.095167 261.661995 
L 108.809407 260.824796 
L 109.523647 260.622759 
L 110.237887 259.131911 
L 110.952127 259.530703 
L 111.666367 257.86819 
L 112.380608 257.209259 
L 113.094848 257.180208 
L 113.809087 256.222843 
L 114.523327 255.030429 
L 115.237567 254.757085 
L 115.951807 253.964783 
L 118.808767 251.730492 
L 119.523007 251.038548 
L 120.237247 250.188144 
L 120.951487 249.164754 
L 121.665728 248.921782 
L 122.379967 248.216633 
L 123.094207 248.272094 
L 123.808447 246.488095 
L 124.522688 246.283417 
L 125.236928 245.293039 
L 125.951167 244.82162 
L 126.665407 243.755974 
L 128.093887 242.148921 
L 128.808128 241.928397 
L 129.522368 240.868034 
L 130.950847 239.324365 
L 131.665087 238.981035 
L 132.379327 237.877094 
L 133.093568 237.34229 
L 133.807807 236.177607 
L 135.236287 235.230806 
L 135.950527 234.147994 
L 136.664767 233.817868 
L 138.093247 231.748639 
L 138.807487 231.501705 
L 139.521727 230.676391 
L 140.235967 229.317593 
L 140.950208 229.168377 
L 141.664447 228.216294 
L 142.378687 227.583773 
L 143.092928 226.165553 
L 143.807167 225.346841 
L 144.521407 225.025958 
L 145.235647 223.556239 
L 145.949887 223.210267 
L 147.378367 221.575484 
L 148.092607 221.04068 
L 148.806847 220.092559 
L 149.521087 218.621519 
L 150.235327 218.434007 
L 151.663807 217.10294 
L 152.378047 216.565495 
L 153.092287 214.875252 
L 154.520768 212.945997 
L 155.235007 212.335924 
L 155.949247 211.881671 
L 156.663487 210.804141 
L 157.377727 210.075223 
L 158.091968 208.555324 
L 158.806207 208.258211 
L 160.234687 207.356307 
L 160.948927 205.411206 
L 162.377408 204.1356 
L 163.091647 203.019775 
L 163.805887 201.550055 
L 164.520127 200.451397 
L 165.234367 200.266526 
L 165.948608 199.145419 
L 166.662847 199.215406 
L 167.377087 197.716635 
L 168.091327 197.575341 
L 168.805567 195.721355 
L 170.234048 193.881894 
L 171.662527 191.964524 
L 172.376767 192.290688 
L 173.091007 190.284844 
L 173.805248 189.69854 
L 174.519487 188.087527 
L 175.233727 187.132803 
L 175.947967 186.870023 
L 176.662207 185.564045 
L 177.376447 185.012075 
L 178.090688 183.954352 
L 178.804927 183.770802 
L 180.947647 180.245059 
L 181.661887 180.412763 
L 182.376127 178.556136 
L 183.090367 177.553874 
L 184.518847 175.842502 
L 185.233087 174.242052 
L 186.661567 172.969087 
L 188.090047 170.909103 
L 188.804287 169.611048 
L 189.518527 168.717067 
L 190.947007 167.161515 
L 191.661248 165.644257 
L 192.375487 164.994569 
L 193.089727 163.285838 
L 193.803967 162.898931 
L 194.518207 162.283577 
L 195.232448 161.299802 
L 195.946687 160.025516 
L 196.660927 159.155305 
L 197.375167 158.048723 
L 198.089407 156.662195 
L 198.803648 156.757271 
L 200.232127 153.351694 
L 200.946367 152.795762 
L 201.660607 152.419419 
L 202.374847 151.344529 
L 203.089088 150.776713 
L 204.517567 147.777851 
L 205.231807 146.828409 
L 205.946047 146.850857 
L 207.374527 143.887649 
L 208.088767 142.818041 
L 208.803007 142.164392 
L 209.517247 141.232117 
L 210.231487 139.626385 
L 210.945728 139.151004 
L 211.659967 137.220429 
L 212.374207 136.582626 
L 213.088447 136.395114 
L 213.802687 134.94124 
L 215.231167 133.079331 
L 215.945407 131.702046 
L 216.659647 129.672433 
L 217.373887 129.746381 
L 218.088127 127.954459 
L 218.802368 127.430219 
L 219.516607 126.001435 
L 220.945087 124.992571 
L 221.659327 123.256109 
L 222.373567 122.583973 
L 223.087807 120.68641 
L 223.802047 120.286298 
L 224.516287 118.865436 
L 226.659008 115.400436 
L 227.373247 113.980896 
L 228.087487 113.986178 
L 229.515967 110.828855 
L 230.230208 110.575318 
L 230.944447 109.027689 
L 231.658687 108.11258 
L 232.372927 105.808302 
L 233.087167 105.553445 
L 233.801408 104.578914 
L 234.515647 104.506286 
L 235.229887 102.001292 
L 235.944127 102.150509 
L 236.658367 101.267092 
L 237.372608 99.304825 
L 238.086847 98.359345 
L 239.515327 95.650993 
L 240.229568 94.891704 
L 240.943807 93.271446 
L 241.658047 92.984897 
L 243.086527 90.276545 
L 243.800768 89.508013 
L 244.515007 87.292208 
L 245.229247 86.870968 
L 245.943488 85.582157 
L 246.657727 84.010758 
L 247.371968 83.375596 
L 248.086207 82.438039 
L 248.800447 83.374276 
L 249.514688 79.219973 
L 250.228927 79.124897 
L 251.657407 76.015112 
L 252.371647 75.56218 
L 253.085887 75.624244 
L 253.800127 72.927776 
L 254.514367 72.206782 
L 255.228607 71.133213 
L 257.371328 66.318659 
L 258.085568 66.803283 
L 258.799807 66.08625 
L 259.514048 63.999855 
L 260.228287 63.288104 
L 260.942527 61.801218 
L 261.656768 60.647098 
L 262.371007 58.778586 
L 264.513728 55.538072 
L 265.227967 54.864615 
L 265.942207 52.927437 
L 266.656448 52.467902 
L 267.370687 50.91367 
L 270.227647 45.790118 
L 270.941887 45.988194 
L 271.656128 44.209476 
L 272.370367 42.940473 
L 273.084608 42.14553 
L 273.798847 39.826726 
L 274.513087 40.17666 
L 275.227328 37.81428 
L 275.941567 37.02726 
L 276.655807 35.376631 
L 277.370047 33.435492 
L 278.084287 33.574144 
L 278.798527 31.88258 
L 279.512767 30.981997 
L 280.227008 29.899184 
L 280.941247 27.626599 
L 281.655487 27.511715 
L 282.369728 26.059162 
L 283.083967 25.322321 
L 283.798207 23.0088 
L 284.512447 22.608687 
L 285.226687 21.300069 
L 285.940927 19.405147 
L 286.655168 18.254989 
L 288.083647 16.73509 
L 288.797888 14.028058 
L 289.512127 14.099365 
L 290.226367 12.72076 
L 290.940607 12.79999 
L 291.654847 9.835461 
L 292.369087 9.370644 
L 293.083327 7.668516 
L 293.797568 6.414038 
L 294.511808 6.226526 
L 295.226047 4.495347 
L 295.940288 3.255394 
L 296.654527 0.661926 
L 297.368767 0.533838 
L 297.915295 -1 
L 297.915295 -1 
" clip-path="url(#p6037f1dca1)" style="fill: none; stroke: #d62728; stroke-width: 1.5; stroke-linecap: square"/>
   </g>
   <g id="line2d_27">
    <path d="M 70.240448 299.159 
L 70.954687 298.914707 
L 71.668927 298.469697 
L 74.525887 297.566473 
L 76.668607 296.562891 
L 78.811328 295.848498 
L 80.239807 294.843596 
L 81.668287 294.563649 
L 83.811007 293.474234 
L 84.525248 293.475554 
L 85.239487 292.740034 
L 86.667968 292.129962 
L 87.382207 292.157692 
L 88.096447 291.31125 
L 88.810688 291.139585 
L 90.239167 290.344642 
L 90.953407 290.405385 
L 91.667648 289.985465 
L 92.381887 289.13374 
L 93.096127 289.092805 
L 93.810367 288.658359 
L 94.524607 288.50122 
L 95.238847 288.179017 
L 95.953087 287.580829 
L 96.667327 287.355023 
L 97.381568 286.523106 
L 98.095807 286.589131 
L 98.810047 286.241839 
L 99.524287 286.243159 
L 100.238527 285.741368 
L 100.952767 285.099604 
L 101.667007 284.873798 
L 103.095488 283.905869 
L 103.809727 283.752691 
L 104.523967 282.940581 
L 105.238208 282.714775 
L 105.952447 282.062447 
L 106.666687 282.216946 
L 107.380927 281.153941 
L 108.095167 281.111684 
L 108.809407 280.52274 
L 109.523647 280.500292 
L 110.952127 279.614234 
L 111.666367 279.117725 
L 112.380608 278.193373 
L 113.094848 278.089053 
L 113.809087 277.523878 
L 115.237567 277.010202 
L 115.951807 276.149234 
L 116.666048 276.227144 
L 117.380287 275.551046 
L 118.094527 275.558969 
L 118.808767 274.53822 
L 119.523007 273.994173 
L 120.237247 273.765726 
L 120.951487 273.043411 
L 121.665728 272.828169 
L 122.379967 271.91306 
L 123.094207 272.04379 
L 123.808447 271.696498 
L 124.522688 271.221117 
L 125.951167 269.903255 
L 126.665407 269.752717 
L 128.093887 268.764981 
L 128.808128 268.331856 
L 129.522368 268.125857 
L 130.236607 267.019276 
L 130.950847 266.421088 
L 131.665087 266.335255 
L 132.379327 266.389396 
L 133.093568 265.511261 
L 133.807807 265.387134 
L 135.236287 263.806492 
L 136.664767 262.841204 
L 137.379008 262.01589 
L 138.093247 261.541829 
L 138.807487 261.454676 
L 139.521727 261.058525 
L 140.235967 260.223967 
L 140.950208 260.039097 
L 141.664447 259.092296 
L 143.807167 257.692563 
L 144.521407 257.457513 
L 145.235647 256.992696 
L 146.664128 255.641822 
L 147.378367 254.63956 
L 148.806847 253.51185 
L 149.521087 253.609567 
L 150.235327 253.156635 
L 150.949568 252.841035 
L 151.663807 251.722569 
L 153.092287 250.849716 
L 153.806527 249.817083 
L 154.520768 249.642776 
L 155.235007 248.804257 
L 155.949247 248.141364 
L 156.663487 247.960455 
L 157.377727 246.746913 
L 158.091968 246.806336 
L 158.806207 246.060252 
L 159.520447 245.955932 
L 160.234687 244.923298 
L 161.663168 243.622603 
L 162.377408 243.102325 
L 163.805887 241.460939 
L 164.520127 241.324928 
L 165.234367 240.845585 
L 165.948608 239.70467 
L 166.662847 239.165905 
L 167.377087 239.016688 
L 168.091327 238.017067 
L 168.805567 237.245894 
L 170.948287 235.875212 
L 172.376767 234.619413 
L 173.091007 234.256275 
L 173.805248 233.094232 
L 175.233727 231.990292 
L 175.947967 231.728832 
L 178.090688 229.822026 
L 178.804927 228.865981 
L 179.519167 228.682431 
L 180.233407 227.348723 
L 181.661887 225.691492 
L 182.376127 225.525109 
L 183.090367 225.060292 
L 183.804608 223.966915 
L 184.518847 224.051427 
L 185.947328 222.289876 
L 186.661567 221.773559 
L 187.375807 220.711875 
L 188.090047 220.433249 
L 188.804287 219.688485 
L 189.518527 219.314783 
L 190.232767 217.65491 
L 190.947007 218.188394 
L 191.661248 216.86525 
L 192.375487 216.529842 
L 193.089727 215.634541 
L 193.803967 215.295171 
L 194.518207 214.370819 
L 195.232448 212.833754 
L 195.946687 213.13747 
L 196.660927 211.855261 
L 197.375167 211.111818 
L 198.089407 211.163317 
L 198.803648 210.089748 
L 200.232127 209.296126 
L 200.946367 207.982226 
L 201.660607 206.994489 
L 202.374847 206.383096 
L 203.089088 206.070137 
L 203.803327 204.968838 
L 204.517567 204.404983 
L 205.231807 204.224074 
L 205.946047 203.0858 
L 206.660288 202.940545 
L 207.374527 200.652113 
L 208.088767 201.061469 
L 208.803007 199.561378 
L 209.517247 198.586846 
L 210.231487 198.961869 
L 210.945728 197.894903 
L 211.659967 195.97093 
L 212.374207 196.306338 
L 213.088447 195.087513 
L 213.802687 195.088834 
L 214.516927 194.02979 
L 215.945407 192.801723 
L 216.659647 192.055638 
L 217.373887 190.584598 
L 218.088127 190.471035 
L 218.802368 190.055076 
L 219.516607 188.896995 
L 220.230847 187.989809 
L 220.945087 187.33484 
L 221.659327 185.434636 
L 222.373567 185.251086 
L 223.087807 184.754577 
L 223.802047 184.4469 
L 224.516287 183.517266 
L 225.230528 183.225434 
L 225.944767 181.969636 
L 226.659008 181.227513 
L 227.373247 180.243739 
L 228.087487 180.362584 
L 228.801727 178.137536 
L 229.515967 177.864192 
L 230.944447 175.435787 
L 231.658687 175.39089 
L 232.372927 174.651408 
L 233.087167 173.71121 
L 233.801408 173.734979 
L 235.229887 170.730835 
L 235.944127 170.98173 
L 236.658367 169.633497 
L 237.372608 169.398447 
L 238.086847 168.347327 
L 238.801087 167.598601 
L 239.515327 166.062856 
L 240.229568 166.498622 
L 240.943807 164.722546 
L 242.372287 163.275274 
L 243.086527 161.739529 
L 243.800768 161.376391 
L 245.943488 159.091921 
L 246.657727 158.653514 
L 247.371968 157.25378 
L 248.086207 156.928937 
L 250.228927 154.887439 
L 250.943168 153.030812 
L 251.657407 151.521477 
L 252.371647 151.533361 
L 253.085887 151.090993 
L 254.514367 148.913483 
L 255.228607 148.154194 
L 255.942847 146.759743 
L 256.657087 147.126843 
L 258.085568 144.459426 
L 258.799807 144.344543 
L 259.514048 143.212872 
L 260.228287 141.311347 
L 260.942527 141.220232 
L 261.656768 140.763338 
L 263.085247 137.823899 
L 263.799487 137.341915 
L 264.513728 136.994623 
L 265.227967 136.809752 
L 265.942207 134.708832 
L 266.656448 133.842582 
L 267.370687 133.673558 
L 268.084927 131.964827 
L 268.799167 131.229306 
L 269.513407 130.080469 
L 270.227647 129.634139 
L 270.941887 129.031989 
L 272.370367 127.17008 
L 273.084608 125.614527 
L 273.798847 125.696399 
L 274.513087 124.831469 
L 275.227328 124.476254 
L 275.941567 121.960696 
L 276.655807 121.177637 
L 278.084287 118.911654 
L 278.798527 119.047666 
L 279.512767 117.529087 
L 280.227008 116.924297 
L 280.941247 115.859971 
L 281.655487 115.576063 
L 282.369728 114.514379 
L 283.083967 113.001082 
L 283.798207 112.031833 
L 284.512447 111.778296 
L 285.226687 111.391389 
L 285.940927 109.113521 
L 286.655168 108.457231 
L 287.369408 106.969024 
L 288.083647 105.990532 
L 288.797888 106.130505 
L 289.512127 104.49044 
L 290.226367 104.666067 
L 290.940607 102.83717 
L 291.654847 101.352925 
L 292.369087 100.699276 
L 293.797568 98.779264 
L 294.511808 98.071475 
L 295.226047 97.651555 
L 295.940288 96.385192 
L 296.654527 94.754371 
L 297.368767 94.470463 
L 299.511487 91.657792 
L 300.939967 88.809466 
L 301.654207 89.004901 
L 302.368448 88.237689 
L 303.082688 86.626675 
L 303.796927 85.755143 
L 304.511167 84.661766 
L 305.225407 84.511229 
L 305.939647 81.806839 
L 306.653887 81.099049 
L 307.368127 80.578771 
L 308.082367 78.796092 
L 308.796607 78.855514 
L 309.510848 78.061892 
L 310.939327 74.821378 
L 311.653568 74.715737 
L 312.367807 74.364484 
L 313.082047 72.651791 
L 313.796287 71.52012 
L 315.224767 69.78762 
L 315.939008 68.251875 
L 316.653248 67.776494 
L 317.367487 66.108699 
L 318.081727 65.676894 
L 319.510207 63.948356 
L 320.224447 63.186425 
L 321.652927 59.648798 
L 322.367167 59.067776 
L 323.081407 58.282077 
L 323.795648 57.679928 
L 324.509887 56.711999 
L 325.224128 54.847449 
L 325.938367 54.163428 
L 326.652607 54.060429 
L 328.081087 51.247757 
L 328.795327 51.060246 
L 329.509567 49.424143 
L 330.938047 47.043276 
L 331.652287 45.989514 
L 332.366528 45.529979 
L 333.080767 43.885953 
L 333.795007 44.257014 
L 334.509247 42.270978 
L 335.223487 41.369074 
L 335.937727 39.488678 
L 336.651967 39.536216 
L 337.366207 37.05367 
L 338.080447 36.596776 
L 338.794688 35.569425 
L 339.508928 34.968596 
L 340.223167 32.599613 
L 340.937408 33.58999 
L 342.365887 31.003125 
L 343.080127 29.028973 
L 343.794367 28.713373 
L 344.508607 27.138013 
L 345.222847 25.997098 
L 345.937088 25.736959 
L 348.079808 21.326479 
L 348.794047 21.360812 
L 349.508287 20.88279 
L 350.936767 18.593037 
L 351.651007 16.267631 
L 353.793727 13.794329 
L 354.507968 13.581728 
L 355.222207 12.056547 
L 355.936447 9.546271 
L 356.650688 9.564758 
L 356.650688 8.915071 
L 363.815601 -1 
L 363.815601 -1 
" clip-path="url(#p6037f1dca1)" style="fill: none; stroke: #9467bd; stroke-width: 1.5; stroke-linecap: square"/>
   </g>
   <g id="line2d_28">
    <path d="M 70.240448 299.611932 
L 71.668927 298.95036 
L 72.383167 298.956963 
L 73.097408 298.600427 
L 73.811647 298.411595 
L 74.525887 298.0062 
L 75.240127 297.919047 
L 75.954367 297.441025 
L 76.668607 297.484602 
L 78.811328 296.40443 
L 79.525567 296.421597 
L 80.239807 296.165419 
L 82.382527 294.798699 
L 83.096767 294.744558 
L 83.811007 294.345766 
L 84.525248 294.343125 
L 85.953727 293.631374 
L 86.667968 293.163916 
L 87.382207 293.009417 
L 88.096447 292.409909 
L 88.810688 292.530074 
L 89.524927 291.662504 
L 90.239167 291.44198 
L 90.953407 291.41557 
L 93.096127 290.20995 
L 93.810367 290.05149 
L 94.524607 289.466507 
L 95.238847 289.3952 
L 95.953087 288.921139 
L 96.667327 288.711179 
L 97.381568 288.315029 
L 98.095807 288.157889 
L 99.524287 287.369548 
L 100.238527 287.26787 
L 100.952767 286.880962 
L 101.667007 286.286736 
L 102.381247 285.876059 
L 103.095488 285.663458 
L 104.523967 284.593851 
L 105.238208 284.501416 
L 105.952447 284.172611 
L 106.666687 283.485949 
L 107.380927 283.555936 
L 108.095167 282.741185 
L 108.809407 282.539148 
L 109.523647 282.211663 
L 110.237887 282.142997 
L 111.666367 281.217325 
L 112.380608 281.098479 
L 113.809087 279.722515 
L 114.523327 279.343531 
L 115.237567 279.204878 
L 116.666048 278.543306 
L 117.380287 277.79326 
L 118.094527 277.60839 
L 119.523007 276.971907 
L 120.237247 276.493885 
L 120.951487 276.184888 
L 122.379967 275.127165 
L 123.808447 274.666309 
L 124.522688 273.611227 
L 125.236928 273.138487 
L 128.093887 272.079444 
L 128.808128 271.503704 
L 129.522368 271.304308 
L 130.236607 270.188483 
L 130.950847 270.059074 
L 132.379327 269.515027 
L 133.093568 268.873262 
L 133.807807 268.874583 
L 134.522047 267.094545 
L 135.236287 267.613502 
L 135.950527 266.992866 
L 136.664767 266.193962 
L 137.379008 266.291679 
L 138.093247 265.556159 
L 138.807487 265.288096 
L 139.521727 264.372988 
L 140.235967 264.423167 
L 141.664447 262.880819 
L 142.378687 262.623321 
L 143.092928 262.794987 
L 143.807167 262.322247 
L 145.949887 260.410158 
L 146.664128 259.978354 
L 147.378367 259.327346 
L 148.092607 259.18077 
L 148.806847 258.457134 
L 149.521087 258.399032 
L 150.235327 257.314899 
L 150.949568 256.797262 
L 151.663807 256.613712 
L 152.378047 256.300753 
L 153.092287 255.386965 
L 153.806527 254.809905 
L 154.520768 254.56165 
L 155.949247 253.692759 
L 156.663487 253.140789 
L 157.377727 252.154373 
L 158.091968 252.178142 
L 158.806207 251.499404 
L 159.520447 250.237003 
L 160.234687 250.178901 
L 160.948927 249.917441 
L 161.663168 249.533175 
L 162.377408 248.777847 
L 163.091647 248.903295 
L 163.805887 247.911597 
L 164.520127 247.457344 
L 165.234367 247.168154 
L 165.948608 246.110431 
L 166.662847 245.588832 
L 167.377087 245.547896 
L 168.091327 244.484891 
L 168.805567 244.08874 
L 169.519808 243.528847 
L 170.234048 242.593931 
L 171.662527 241.936321 
L 173.091007 240.504895 
L 174.519487 239.96745 
L 175.233727 238.699768 
L 175.947967 238.91633 
L 176.662207 238.372283 
L 177.376447 237.413598 
L 178.090688 236.899922 
L 178.804927 236.544707 
L 179.519167 235.08423 
L 180.233407 235.546406 
L 180.947647 234.990474 
L 181.661887 234.067443 
L 182.376127 233.370217 
L 183.090367 233.112719 
L 183.804608 232.324379 
L 184.518847 232.122342 
L 185.947328 230.261753 
L 186.661567 230.074242 
L 187.375807 229.218556 
L 188.090047 229.602822 
L 188.804287 228.682431 
L 189.518527 227.241763 
L 190.232767 226.269872 
L 190.947007 226.639613 
L 191.661248 225.533032 
L 192.375487 225.095945 
L 193.089727 224.159708 
L 194.518207 223.310625 
L 195.232448 222.423247 
L 195.946687 222.390234 
L 196.660927 221.753752 
L 197.375167 220.38439 
L 198.089407 219.837702 
L 199.517888 219.317424 
L 200.232127 218.719236 
L 200.946367 217.830537 
L 201.660607 216.21028 
L 202.374847 216.961646 
L 203.089088 215.919769 
L 203.803327 215.551349 
L 204.517567 214.58342 
L 205.231807 214.24009 
L 205.946047 212.984291 
L 206.660288 212.972407 
L 207.374527 211.95826 
L 208.088767 211.423457 
L 208.803007 211.134266 
L 209.517247 209.96166 
L 210.231487 210.221799 
L 210.945728 208.926385 
L 211.659967 208.163135 
L 212.374207 206.81358 
L 213.088447 207.106732 
L 213.802687 206.735671 
L 214.516927 205.495718 
L 215.231167 205.326694 
L 215.945407 204.362727 
L 216.659647 202.463843 
L 217.373887 203.42649 
L 218.088127 202.844148 
L 218.802368 201.250301 
L 219.516607 201.441774 
L 220.230847 200.089579 
L 220.945087 200.010349 
L 221.659327 198.784922 
L 222.373567 198.876037 
L 223.802047 197.840762 
L 225.230528 195.31596 
L 227.373247 193.872651 
L 228.087487 194.053559 
L 228.801727 192.702685 
L 230.230208 190.764186 
L 230.944447 190.620252 
L 232.372927 189.114878 
L 233.087167 187.72835 
L 233.801408 186.982266 
L 234.515647 187.148649 
L 235.229887 185.375213 
L 235.944127 185.059613 
L 236.658367 185.086023 
L 237.372608 184.048108 
L 238.086847 183.50274 
L 238.801087 183.183178 
L 239.515327 182.089802 
L 240.229568 180.382391 
L 240.943807 180.597633 
L 241.658047 180.017933 
L 242.372287 178.96153 
L 243.086527 178.873056 
L 244.515007 175.911168 
L 245.229247 176.068308 
L 245.943488 175.097738 
L 247.371968 174.326564 
L 248.086207 173.299213 
L 248.800447 172.778935 
L 249.514688 172.064543 
L 250.228927 170.637079 
L 250.943168 169.95834 
L 251.657407 169.617651 
L 252.371647 168.130764 
L 253.085887 167.735934 
L 253.800127 167.469192 
L 254.514367 165.788192 
L 255.228607 166.410149 
L 255.942847 166.015318 
L 256.657087 164.033243 
L 258.085568 162.828944 
L 258.799807 161.853093 
L 260.228287 160.16549 
L 260.942527 160.169451 
L 262.371007 158.455438 
L 263.085247 157.175871 
L 264.513728 156.230391 
L 265.227967 154.718415 
L 265.942207 154.326225 
L 266.656448 153.607872 
L 267.370687 153.136452 
L 268.084927 151.907064 
L 268.799167 151.814628 
L 269.513407 150.591843 
L 270.227647 149.112879 
L 270.941887 149.045534 
L 271.656128 148.17004 
L 272.370367 147.507147 
L 273.084608 147.154573 
L 273.798847 145.579213 
L 274.513087 146.127222 
L 275.227328 144.748617 
L 275.941567 143.877085 
L 276.655807 142.701837 
L 278.084287 141.463205 
L 278.798527 140.549417 
L 279.512767 139.421707 
L 280.227008 139.390015 
L 280.941247 138.74561 
L 281.655487 137.027635 
L 282.369728 136.022732 
L 283.083967 135.399455 
L 283.798207 134.542449 
L 285.226687 133.736942 
L 285.940927 132.555091 
L 286.655168 130.771092 
L 287.369408 131.011423 
L 288.083647 130.153096 
L 288.797888 128.855042 
L 292.369087 124.742995 
L 293.797568 123.695837 
L 294.511808 122.066336 
L 295.226047 120.887127 
L 295.940288 121.277995 
L 296.654527 119.766019 
L 297.368767 119.171793 
L 298.083007 117.498716 
L 298.797247 117.946366 
L 299.511487 116.142559 
L 300.225727 116.419865 
L 300.939967 114.955427 
L 301.654207 115.694909 
L 302.368448 114.237073 
L 303.082688 112.478163 
L 303.796927 112.112384 
L 305.939647 109.45157 
L 306.653887 108.943176 
L 307.368127 106.737936 
L 308.082367 106.866025 
L 308.796607 105.354049 
L 309.510848 105.179743 
L 310.225087 104.502325 
L 310.939327 103.295385 
L 312.367807 102.052792 
L 313.082047 100.676827 
L 314.510527 99.970358 
L 315.224767 97.845669 
L 315.939008 96.861894 
L 316.653248 96.64137 
L 317.367487 94.841524 
L 318.081727 94.280311 
L 318.795967 94.006966 
L 319.510207 92.531965 
L 320.224447 91.603651 
L 320.938687 91.467639 
L 321.652927 89.848702 
L 322.367167 88.612712 
L 323.081407 88.24165 
L 323.795648 87.220901 
L 324.509887 87.252593 
L 325.224128 87.107338 
L 325.938367 84.651202 
L 327.366848 84.053014 
L 328.081087 82.33372 
L 328.795327 81.412008 
L 329.509567 80.816462 
L 330.223807 79.222614 
L 330.938047 79.189602 
L 331.652287 78.022277 
L 332.366528 77.169232 
L 333.080767 75.669141 
L 333.795007 75.27431 
L 334.509247 75.080196 
L 335.937727 72.193577 
L 336.651967 72.241115 
L 337.366207 70.315821 
L 338.080447 69.687262 
L 338.794688 68.278285 
L 339.508928 67.254895 
L 340.223167 66.893077 
L 342.365887 64.887233 
L 343.080127 63.001555 
L 343.794367 62.398085 
L 344.508607 61.060415 
L 345.222847 61.232081 
L 345.937088 59.145686 
L 346.651327 59.199827 
L 347.365567 57.326033 
L 348.079808 56.619564 
L 348.794047 55.388855 
L 349.508287 55.027037 
L 350.222527 53.636547 
L 350.936767 53.833302 
L 351.651007 51.748228 
L 353.079487 50.122689 
L 353.793727 49.830857 
L 354.507968 48.297753 
L 355.222207 48.064024 
L 356.650688 44.978009 
L 356.650688 45.4798 
L 363.078847 37.855215 
L 369.507007 28.867872 
L 375.935167 19.258571 
L 382.363327 11.060888 
L 388.791487 3.21842 
L 391.289373 -1 
L 391.289373 -1 
" clip-path="url(#p6037f1dca1)" style="fill: none; stroke: #8c564b; stroke-width: 1.5; stroke-linecap: square"/>
   </g>
   <g id="line2d_29">
    <path d="M 70.240448 299.988276 
L 70.954687 299.23823 
L 71.668927 299.277845 
L 72.383167 299.193333 
L 73.097408 298.94904 
L 73.811647 298.34557 
L 74.525887 298.262378 
L 75.954367 297.48064 
L 76.668607 297.410654 
L 78.097087 297.056759 
L 79.525567 296.315957 
L 80.239807 296.042612 
L 80.954048 295.967344 
L 82.382527 295.163157 
L 83.096767 295.110337 
L 83.811007 294.512149 
L 84.525248 294.189947 
L 85.239487 293.730412 
L 86.667968 293.416132 
L 89.524927 291.839451 
L 90.239167 291.815682 
L 91.667648 291.225417 
L 92.381887 290.78701 
L 93.096127 290.190143 
L 93.810367 290.265412 
L 94.524607 289.626288 
L 95.238847 289.890389 
L 96.667327 288.800974 
L 97.381568 288.641193 
L 98.095807 288.126197 
L 98.810047 287.988864 
L 99.524287 287.134499 
L 100.238527 286.76872 
L 100.952767 286.857193 
L 101.667007 286.431991 
L 102.381247 285.759855 
L 103.095488 285.794188 
L 103.809727 285.324089 
L 105.238208 284.778721 
L 105.952447 284.253161 
L 106.666687 284.6163 
L 107.380927 283.466141 
L 108.095167 283.328809 
L 108.809407 282.714775 
L 109.523647 282.54311 
L 110.237887 281.91323 
L 110.952127 281.831359 
L 111.666367 281.49331 
L 112.380608 281.456336 
L 113.809087 280.423702 
L 114.523327 280.345793 
L 115.237567 279.435966 
L 115.951807 279.309198 
L 116.666048 278.567075 
L 117.380287 278.666113 
L 118.808767 277.475019 
L 120.237247 276.903241 
L 120.951487 276.009261 
L 122.379967 275.617071 
L 123.094207 274.753462 
L 123.808447 274.637258 
L 124.522688 274.184325 
L 125.236928 274.070762 
L 125.951167 273.369575 
L 126.665407 272.838733 
L 127.379647 272.746298 
L 128.093887 271.91174 
L 128.808128 271.614627 
L 129.522368 271.490499 
L 130.236607 271.498422 
L 130.950847 270.848735 
L 131.665087 269.695936 
L 132.379327 269.895332 
L 133.093568 269.080581 
L 133.807807 268.864019 
L 134.522047 268.008333 
L 135.950527 267.31903 
L 136.664767 266.756496 
L 137.379008 266.388075 
L 138.093247 266.296961 
L 139.521727 265.11379 
L 140.235967 264.716319 
L 140.950208 264.48259 
L 141.664447 264.013811 
L 142.378687 263.22283 
L 143.092928 263.463161 
L 143.807167 262.371105 
L 144.521407 262.211324 
L 145.235647 261.790084 
L 145.949887 261.079653 
L 146.664128 260.558054 
L 147.378367 259.794804 
L 148.092607 260.062866 
L 148.806847 258.957605 
L 149.521087 258.916669 
L 150.235327 258.640684 
L 150.949568 257.534103 
L 151.663807 257.384886 
L 153.806527 255.791038 
L 154.520768 255.592963 
L 155.235007 254.7452 
L 155.949247 254.568253 
L 158.091968 252.735394 
L 158.806207 252.843676 
L 159.520447 251.834811 
L 160.234687 251.626172 
L 160.948927 251.04251 
L 161.663168 250.658243 
L 162.377408 249.70484 
L 163.091647 249.321894 
L 163.805887 248.390939 
L 164.520127 248.043647 
L 165.234367 247.529971 
L 165.948608 247.574869 
L 167.377087 245.851612 
L 168.091327 246.390377 
L 168.805567 244.7173 
L 169.519808 244.961593 
L 170.234048 244.69221 
L 170.948287 243.042902 
L 171.662527 243.939524 
L 172.376767 242.710135 
L 173.091007 241.954808 
L 173.805248 241.839924 
L 175.233727 240.808611 
L 175.947967 239.963489 
L 177.376447 238.78428 
L 178.090688 237.825595 
L 179.519167 237.675057 
L 180.233407 236.758628 
L 180.947647 236.299093 
L 181.661887 235.24137 
L 182.376127 234.657708 
L 183.090367 234.808245 
L 183.804608 233.390025 
L 184.518847 233.428319 
L 185.947328 232.110457 
L 187.375807 231.133285 
L 188.090047 230.951056 
L 188.804287 230.058396 
L 189.518527 229.902576 
L 190.232767 228.817123 
L 190.947007 228.344383 
L 191.661248 228.3906 
L 192.375487 226.292321 
L 193.089727 226.004451 
L 193.803967 225.971439 
L 194.518207 224.987664 
L 195.232448 225.007471 
L 195.946687 223.988043 
L 196.660927 223.956351 
L 197.375167 223.467765 
L 198.803648 221.789405 
L 200.232127 220.562658 
L 200.946367 220.833361 
L 201.660607 219.692447 
L 202.374847 218.806389 
L 203.803327 217.901845 
L 204.517567 217.512296 
L 205.231807 216.012205 
L 205.946047 215.655669 
L 206.660288 215.108981 
L 207.374527 214.902982 
L 208.088767 213.787157 
L 210.231487 212.243489 
L 210.945728 212.110118 
L 211.659967 211.217458 
L 212.374207 210.085787 
L 213.088447 209.193127 
L 213.802687 209.290844 
L 214.516927 208.940911 
L 216.659647 206.899413 
L 217.373887 206.397622 
L 218.088127 204.511944 
L 218.802368 204.704737 
L 219.516607 204.415547 
L 220.230847 203.785667 
L 220.945087 202.014872 
L 221.659327 201.991103 
L 222.373567 202.239358 
L 223.087807 200.957149 
L 223.802047 200.339154 
L 224.516287 200.510819 
L 225.230528 198.870755 
L 225.944767 198.976395 
L 226.659008 197.72984 
L 227.373247 197.83548 
L 228.087487 195.937917 
L 229.515967 195.832277 
L 230.230208 195.05186 
L 230.944447 193.744562 
L 232.372927 192.669672 
L 233.087167 191.520835 
L 233.801408 191.750602 
L 234.515647 191.285785 
L 235.944127 189.046212 
L 236.658367 188.62101 
L 237.372608 187.515749 
L 238.086847 186.75646 
L 238.801087 186.720806 
L 239.515327 185.395021 
L 240.229568 185.593096 
L 240.943807 184.711 
L 242.372287 185.074139 
L 243.086527 183.374651 
L 243.800768 182.265429 
L 244.515007 180.897388 
L 245.229247 181.466524 
L 247.371968 178.599712 
L 248.086207 178.196959 
L 248.800447 177.577643 
L 249.514688 175.833258 
L 250.228927 176.263742 
L 250.943168 175.268083 
L 251.657407 175.157161 
L 253.085887 172.817229 
L 253.800127 172.665372 
L 254.514367 172.804024 
L 255.228607 170.773091 
L 255.942847 170.054737 
L 256.657087 169.570112 
L 257.371328 168.77649 
L 258.085568 168.82931 
L 258.799807 167.584076 
L 259.514048 168.030406 
L 260.228287 166.878927 
L 260.942527 165.505604 
L 261.656768 164.426753 
L 262.371007 164.377894 
L 263.085247 163.353184 
L 263.799487 163.52617 
L 264.513728 162.177936 
L 265.227967 161.863657 
L 265.942207 160.379411 
L 266.656448 160.437513 
L 267.370687 159.01005 
L 268.084927 158.682565 
L 268.799167 157.678982 
L 269.513407 157.342254 
L 270.227647 156.157763 
L 270.941887 156.588247 
L 271.656128 154.371122 
L 272.370367 153.733319 
L 273.084608 153.767652 
L 273.798847 153.252656 
L 274.513087 152.44979 
L 275.227328 152.095896 
L 275.941567 151.036852 
L 276.655807 151.013083 
L 277.370047 149.251532 
L 278.084287 148.815766 
L 278.798527 147.95876 
L 279.512767 147.280021 
L 280.227008 145.522431 
L 280.941247 146.681833 
L 281.655487 143.784649 
L 282.369728 144.046109 
L 283.083967 143.071578 
L 283.798207 142.76258 
L 284.512447 141.543756 
L 285.226687 140.785787 
L 285.940927 140.783146 
L 286.655168 139.007069 
L 287.369408 139.057248 
L 289.512127 136.424165 
L 290.226367 136.170629 
L 292.369087 133.899364 
L 293.083327 131.97407 
L 293.797568 132.47322 
L 294.511808 132.479823 
L 295.940288 129.961623 
L 296.654527 129.182527 
L 297.368767 127.979548 
L 298.083007 127.999356 
L 298.797247 126.474175 
L 299.511487 126.738276 
L 300.225727 125.833731 
L 300.939967 125.283081 
L 301.654207 124.225358 
L 302.368448 122.907496 
L 303.082688 122.483615 
L 303.796927 121.256867 
L 304.511167 121.544737 
L 305.225407 120.230837 
L 305.939647 119.842609 
L 306.653887 118.646233 
L 307.368127 118.391376 
L 308.082367 117.395716 
L 309.510848 115.894304 
L 310.939327 113.277067 
L 311.653568 113.281029 
L 312.367807 112.335549 
L 313.082047 112.929775 
L 313.796287 111.108801 
L 314.510527 110.085412 
L 315.224767 109.81999 
L 315.939008 108.379322 
L 316.653248 107.649083 
L 317.367487 106.594002 
L 318.081727 106.920166 
L 318.795967 105.240486 
L 319.510207 105.385741 
L 320.224447 103.931867 
L 320.938687 103.636075 
L 321.652927 101.57609 
L 322.367167 100.484034 
L 323.081407 100.873582 
L 324.509887 98.830764 
L 325.224128 98.525728 
L 325.938367 97.577607 
L 326.652607 96.827561 
L 327.366848 96.679665 
L 328.081087 94.874537 
L 328.795327 94.543091 
L 329.509567 93.295215 
L 330.223807 93.116947 
L 330.938047 91.911328 
L 331.652287 90.960566 
L 332.366528 90.487826 
L 333.080767 88.967927 
L 333.795007 88.08451 
L 334.509247 88.418598 
L 335.223487 87.198453 
L 336.651967 86.068102 
L 338.794688 82.30995 
L 340.223167 82.852677 
L 340.937408 80.852115 
L 341.651647 81.57311 
L 342.365887 79.415408 
L 343.080127 79.190922 
L 344.508607 77.487473 
L 345.222847 76.856273 
L 345.937088 75.651974 
L 346.651327 74.949466 
L 347.365567 72.83138 
L 348.079808 73.490311 
L 349.508287 70.859869 
L 350.222527 70.788561 
L 351.651007 68.225465 
L 352.365247 68.286208 
L 353.079487 67.846481 
L 353.793727 66.6369 
L 354.507968 66.337146 
L 355.222207 63.668409 
L 355.936447 64.164918 
L 356.650688 61.934588 
L 356.650688 63.22604 
L 369.507007 47.933295 
L 375.935167 40.321915 
L 382.363327 31.721479 
L 388.791487 25.285347 
L 401.647807 9.902807 
L 408.075967 2.56081 
L 410.933516 -1 
L 410.933516 -1 
" clip-path="url(#p6037f1dca1)" style="fill: none; stroke: #e377c2; stroke-width: 1.5; stroke-linecap: square"/>
   </g>
   <g id="line2d_30">
    <path d="M 70.240448 299.787559 
L 71.668927 299.364998 
L 72.383167 298.886976 
L 73.097408 298.73908 
L 73.811647 298.387826 
L 74.525887 298.276904 
L 75.240127 298.008841 
L 75.954367 297.534781 
L 76.668607 297.200694 
L 77.382847 297.198053 
L 78.097087 296.609108 
L 78.811328 296.292187 
L 79.525567 296.223521 
L 83.096767 294.93471 
L 83.811007 294.483098 
L 84.525248 294.401227 
L 85.239487 293.958859 
L 85.953727 293.77795 
L 88.096447 292.819264 
L 88.810688 292.089026 
L 89.524927 292.240884 
L 90.239167 291.996591 
L 90.953407 291.25975 
L 91.667648 291.358788 
L 92.381887 291.132982 
L 93.096127 290.217873 
L 93.810367 290.332757 
L 95.238847 289.424251 
L 95.953087 289.276355 
L 97.381568 288.354644 
L 98.095807 288.192222 
L 98.810047 288.175055 
L 101.667007 286.451799 
L 102.381247 286.328992 
L 103.095488 285.967174 
L 103.809727 285.108847 
L 104.523967 285.358422 
L 105.952447 284.193739 
L 108.095167 283.614038 
L 109.523647 282.502174 
L 110.237887 281.947563 
L 110.952127 281.956806 
L 113.809087 280.237511 
L 114.523327 280.290332 
L 115.237567 279.941719 
L 115.951807 279.330326 
L 116.666048 278.518216 
L 117.380287 278.526139 
L 118.808767 277.34693 
L 119.523007 277.283546 
L 120.237247 276.606128 
L 120.951487 276.365796 
L 121.665728 275.873249 
L 122.379967 275.762327 
L 123.094207 275.470495 
L 123.808447 274.493323 
L 124.522688 274.350709 
L 125.236928 273.875328 
L 125.951167 273.875328 
L 126.665407 273.069821 
L 127.379647 272.49012 
L 128.093887 272.371275 
L 128.808128 271.487858 
L 129.522368 271.556524 
L 130.236607 270.776107 
L 130.950847 270.44202 
L 131.665087 269.631231 
L 132.379327 269.710461 
L 133.093568 268.912877 
L 133.807807 269.180939 
L 134.522047 268.201126 
L 135.236287 267.963436 
L 135.950527 267.337517 
L 136.664767 267.480131 
L 137.379008 266.756496 
L 138.093247 266.430332 
L 138.807487 265.923258 
L 139.521727 265.667081 
L 140.950208 264.058708 
L 141.664447 264.198681 
L 142.378687 263.096061 
L 143.092928 263.094741 
L 143.807167 262.307721 
L 144.521407 261.912891 
L 145.235647 262.109646 
L 145.949887 261.154922 
L 146.664128 261.020231 
L 147.378367 260.457696 
L 148.092607 259.636343 
L 148.806847 259.451473 
L 149.521087 258.759529 
L 150.235327 258.354135 
L 150.949568 257.577679 
L 151.663807 257.769152 
L 153.092287 255.95346 
L 153.806527 255.882153 
L 154.520768 255.351311 
L 155.235007 254.972327 
L 155.949247 254.367536 
L 156.663487 253.560709 
L 157.377727 253.333582 
L 158.091968 252.957239 
L 158.806207 251.660505 
L 159.520447 252.553165 
L 160.234687 251.849337 
L 161.663168 249.900274 
L 162.377408 249.582033 
L 163.091647 249.641456 
L 163.805887 248.946871 
L 164.520127 248.566566 
L 166.662847 246.915937 
L 167.377087 245.889907 
L 168.091327 245.949329 
L 168.805567 245.418487 
L 170.234048 243.993664 
L 171.662527 243.501117 
L 173.091007 241.989141 
L 175.947967 239.709952 
L 176.662207 239.754849 
L 178.090688 238.403975 
L 178.804927 238.257399 
L 179.519167 237.178548 
L 180.233407 236.76259 
L 180.947647 236.571117 
L 181.661887 235.160819 
L 182.376127 235.244011 
L 183.090367 234.435863 
L 183.804608 234.162519 
L 184.518847 233.11404 
L 185.233087 232.402288 
L 185.947328 232.282123 
L 186.661567 231.492462 
L 187.375807 231.273258 
L 188.090047 230.807121 
L 188.804287 229.736193 
L 189.518527 229.704501 
L 191.661248 227.663003 
L 193.803967 226.767702 
L 194.518207 225.023317 
L 195.232448 224.985023 
L 195.946687 224.192721 
L 196.660927 223.177254 
L 197.375167 222.565861 
L 198.089407 222.789026 
L 198.803648 222.09048 
L 199.517888 221.069731 
L 200.232127 221.085577 
L 200.946367 220.834682 
L 201.660607 219.190655 
L 202.374847 218.721877 
L 203.089088 218.612275 
L 203.803327 217.289131 
L 204.517567 217.159722 
L 205.231807 216.219524 
L 205.946047 216.133691 
L 206.660288 215.334787 
L 207.374527 214.217641 
L 208.088767 214.652087 
L 208.803007 213.158598 
L 209.517247 213.29725 
L 210.231487 212.162938 
L 210.945728 211.811684 
L 211.659967 210.785654 
L 212.374207 210.662847 
L 213.088447 209.536458 
L 213.802687 209.947134 
L 214.516927 208.738874 
L 215.231167 208.88677 
L 215.945407 206.381776 
L 216.659647 206.876965 
L 217.373887 206.52307 
L 218.088127 204.73775 
L 218.802368 205.494398 
L 219.516607 204.632109 
L 220.230847 203.986383 
L 221.659327 202.047885 
L 222.373567 201.882822 
L 223.087807 200.924137 
L 223.802047 200.671921 
L 224.516287 199.406879 
L 225.230528 199.41084 
L 225.944767 198.423104 
L 226.659008 198.479886 
L 228.087487 196.509695 
L 228.801727 196.298415 
L 229.515967 194.73758 
L 230.230208 195.191833 
L 230.944447 193.773613 
L 231.658687 194.189571 
L 232.372927 192.875671 
L 233.087167 192.120343 
L 233.801408 191.942075 
L 234.515647 190.30201 
L 235.229887 190.197691 
L 235.944127 188.994712 
L 236.658367 188.020181 
L 237.372608 188.393883 
L 238.086847 188.025463 
L 238.801087 186.767024 
L 239.515327 186.407847 
L 240.229568 184.783628 
L 240.943807 184.258068 
L 241.658047 184.169594 
L 242.372287 182.834566 
L 243.086527 182.651016 
L 244.515007 181.268449 
L 245.229247 179.946625 
L 245.943488 179.777601 
L 246.657727 179.790806 
L 248.086207 177.919653 
L 248.800447 177.585566 
L 249.514688 176.457856 
L 250.228927 176.191115 
L 250.943168 175.330147 
L 251.657407 175.157161 
L 252.371647 173.874952 
L 253.085887 173.466917 
L 253.800127 173.406174 
L 254.514367 171.779314 
L 255.228607 171.528418 
L 255.942847 170.409952 
L 256.657087 170.569733 
L 257.371328 169.176603 
L 258.085568 168.567851 
L 258.799807 168.541441 
L 259.514048 166.967401 
L 260.228287 166.070779 
L 260.942527 164.978723 
L 261.656768 165.02362 
L 263.085247 163.597477 
L 263.799487 163.366389 
L 264.513728 162.209628 
L 265.227967 161.738209 
L 265.942207 160.537872 
L 266.656448 161.120213 
L 267.370687 159.095882 
L 268.084927 158.384131 
L 268.799167 158.307542 
L 269.513407 157.873096 
L 270.227647 156.17625 
L 270.941887 156.099661 
L 271.656128 155.051181 
L 272.370367 154.276046 
L 273.084608 153.873293 
L 273.798847 152.63202 
L 274.513087 152.109101 
L 275.227328 151.979691 
L 276.655807 149.396787 
L 277.370047 149.134007 
L 278.798527 147.758043 
L 279.512767 146.869345 
L 280.227008 147.04101 
L 280.941247 145.593739 
L 283.083967 143.133641 
L 283.798207 143.123077 
L 284.512447 142.248904 
L 285.226687 140.681467 
L 285.940927 141.048567 
L 286.655168 139.779564 
L 287.369408 139.066492 
L 288.083647 138.015372 
L 288.797888 137.686566 
L 289.512127 136.841444 
L 290.226367 136.747689 
L 291.654847 134.957087 
L 292.369087 133.315701 
L 293.083327 133.093857 
L 293.797568 131.99916 
L 295.226047 131.360036 
L 295.940288 129.473037 
L 296.654527 128.938234 
L 297.368767 129.204975 
L 298.083007 126.874287 
L 298.797247 128.128765 
L 299.511487 125.581515 
L 300.225727 125.88391 
L 300.939967 125.051993 
L 301.654207 123.513607 
L 302.368448 123.91504 
L 303.082688 123.512287 
L 303.796927 122.171976 
L 304.511167 121.284598 
L 305.225407 120.663962 
L 305.939647 118.240838 
L 306.653887 118.309505 
L 307.368127 118.967115 
L 308.082367 117.580587 
L 308.796607 116.735465 
L 309.510848 115.228771 
L 310.225087 115.20104 
L 311.653568 113.517399 
L 312.367807 112.124268 
L 313.082047 112.507214 
L 315.224767 109.190111 
L 315.939008 109.03165 
L 316.653248 107.5342 
L 317.367487 107.309714 
L 318.081727 105.377818 
L 318.795967 106.401208 
L 319.510207 104.024303 
L 320.224447 105.243127 
L 320.938687 103.064297 
L 321.652927 101.502142 
L 322.367167 102.141265 
L 323.081407 101.844152 
L 324.509887 99.027519 
L 325.224128 98.681547 
L 326.652607 97.230314 
L 327.366848 96.027336 
L 328.081087 95.820017 
L 328.795327 94.924716 
L 329.509567 94.412361 
L 330.223807 93.604213 
L 330.938047 92.255979 
L 331.652287 91.381806 
L 332.366528 89.805126 
L 333.080767 90.449531 
L 333.795007 88.496507 
L 334.509247 89.139592 
L 335.937727 85.863424 
L 336.651967 84.746279 
L 337.366207 85.135827 
L 338.080447 84.054335 
L 338.794688 83.302969 
L 339.508928 83.300328 
L 340.223167 82.364091 
L 340.937408 80.458605 
L 341.651647 79.355985 
L 342.365887 78.479171 
L 343.080127 78.131879 
L 343.794367 77.090002 
L 344.508607 77.103207 
L 345.222847 76.642351 
L 345.937088 74.158485 
L 346.651327 74.521623 
L 347.365567 74.239036 
L 348.079808 73.247338 
L 348.794047 71.885899 
L 349.508287 71.019649 
L 350.936767 68.813089 
L 352.365247 67.97721 
L 353.079487 67.290549 
L 353.793727 64.734055 
L 354.507968 64.920246 
L 355.222207 64.608607 
L 356.650688 63.668409 
L 356.650688 63.943074 
L 369.507007 47.743142 
L 375.935167 40.533196 
L 382.363327 33.152904 
L 388.791487 24.996157 
L 395.219647 16.436656 
L 401.647807 9.955627 
L 408.075967 2.214838 
L 410.478441 -1 
L 410.478441 -1 
" clip-path="url(#p6037f1dca1)" style="fill: none; stroke: #ff7f0e; stroke-opacity: 0.4; stroke-width: 1.5; stroke-linecap: square"/>
   </g>
   <g id="line2d_31">
    <path d="M 70.240448 269.855294 
L 433.788607 49.609752 
L 433.788607 49.609752 
" clip-path="url(#p6037f1dca1)" style="fill: none; stroke-dasharray: 5.55,2.4; stroke-dashoffset: 0; stroke: #1f77b4; stroke-width: 1.5"/>
   </g>
   <g id="patch_3">
    <path d="M 70.954688 297.54825 
L 70.954688 31.43625 
" style="fill: none; stroke: #000000; stroke-width: 0.8; stroke-linejoin: miter; stroke-linecap: square"/>
   </g>
   <g id="patch_4">
    <path d="M 428.074687 297.54825 
L 428.074687 31.43625 
" style="fill: none; stroke: #000000; stroke-width: 0.8; stroke-linejoin: miter; stroke-linecap: square"/>
   </g>
   <g id="patch_5">
    <path d="M 70.954687 297.54825 
L 428.074687 297.54825 
" style="fill: none; stroke: #000000; stroke-width: 0.8; stroke-linejoin: miter; stroke-linecap: square"/>
   </g>
   <g id="patch_6">
    <path d="M 70.954687 31.43625 
L 428.074687 31.43625 
" style="fill: none; stroke: #000000; stroke-width: 0.8; stroke-linejoin: miter; stroke-linecap: square"/>
   </g>
   <g id="text_15">
    <!-- [[7, 1, 3]] Phenomenological -->
    <g transform="translate(78.707813 25.43625) scale(0.24 -0.24)">
     <defs>
      <path id="DejaVuSans-5b" d="M 550 4863 
L 1875 4863 
L 1875 4416 
L 1125 4416 
L 1125 -397 
L 1875 -397 
L 1875 -844 
L 550 -844 
L 550 4863 
z
" transform="scale(0.015625)"/>
      <path id="DejaVuSans-37" d="M 525 4666 
L 3525 4666 
L 3525 4397 
L 1831 0 
L 1172 0 
L 2766 4134 
L 525 4134 
L 525 4666 
z
" transform="scale(0.015625)"/>
      <path id="DejaVuSans-2c" d="M 750 794 
L 1409 794 
L 1409 256 
L 897 -744 
L 494 -744 
L 750 256 
L 750 794 
z
" transform="scale(0.015625)"/>
      <path id="DejaVuSans-33" d="M 2597 2516 
Q 3050 2419 3304 2112 
Q 3559 1806 3559 1356 
Q 3559 666 3084 287 
Q 2609 -91 1734 -91 
Q 1441 -91 1130 -33 
Q 819 25 488 141 
L 488 750 
Q 750 597 1062 519 
Q 1375 441 1716 441 
Q 2309 441 2620 675 
Q 2931 909 2931 1356 
Q 2931 1769 2642 2001 
Q 2353 2234 1838 2234 
L 1294 2234 
L 1294 2753 
L 1863 2753 
Q 2328 2753 2575 2939 
Q 2822 3125 2822 3475 
Q 2822 3834 2567 4026 
Q 2313 4219 1838 4219 
Q 1578 4219 1281 4162 
Q 984 4106 628 3988 
L 628 4550 
Q 988 4650 1302 4700 
Q 1616 4750 1894 4750 
Q 2613 4750 3031 4423 
Q 3450 4097 3450 3541 
Q 3450 3153 3228 2886 
Q 3006 2619 2597 2516 
z
" transform="scale(0.015625)"/>
      <path id="DejaVuSans-5d" d="M 1947 4863 
L 1947 -844 
L 622 -844 
L 622 -397 
L 1369 -397 
L 1369 4416 
L 622 4416 
L 622 4863 
L 1947 4863 
z
" transform="scale(0.015625)"/>
      <path id="DejaVuSans-65" d="M 3597 1894 
L 3597 1613 
L 953 1613 
Q 991 1019 1311 708 
Q 1631 397 2203 397 
Q 2534 397 2845 478 
Q 3156 559 3463 722 
L 3463 178 
Q 3153 47 2828 -22 
Q 2503 -91 2169 -91 
Q 1331 -91 842 396 
Q 353 884 353 1716 
Q 353 2575 817 3079 
Q 1281 3584 2069 3584 
Q 2775 3584 3186 3129 
Q 3597 2675 3597 1894 
z
M 3022 2063 
Q 3016 2534 2758 2815 
Q 2500 3097 2075 3097 
Q 1594 3097 1305 2825 
Q 1016 2553 972 2059 
L 3022 2063 
z
" transform="scale(0.015625)"/>
      <path id="DejaVuSans-6e" d="M 3513 2113 
L 3513 0 
L 2938 0 
L 2938 2094 
Q 2938 2591 2744 2837 
Q 2550 3084 2163 3084 
Q 1697 3084 1428 2787 
Q 1159 2491 1159 1978 
L 1159 0 
L 581 0 
L 581 3500 
L 1159 3500 
L 1159 2956 
Q 1366 3272 1645 3428 
Q 1925 3584 2291 3584 
Q 2894 3584 3203 3211 
Q 3513 2838 3513 2113 
z
" transform="scale(0.015625)"/>
      <path id="DejaVuSans-6d" d="M 3328 2828 
Q 3544 3216 3844 3400 
Q 4144 3584 4550 3584 
Q 5097 3584 5394 3201 
Q 5691 2819 5691 2113 
L 5691 0 
L 5113 0 
L 5113 2094 
Q 5113 2597 4934 2840 
Q 4756 3084 4391 3084 
Q 3944 3084 3684 2787 
Q 3425 2491 3425 1978 
L 3425 0 
L 2847 0 
L 2847 2094 
Q 2847 2600 2669 2842 
Q 2491 3084 2119 3084 
Q 1678 3084 1418 2786 
Q 1159 2488 1159 1978 
L 1159 0 
L 581 0 
L 581 3500 
L 1159 3500 
L 1159 2956 
Q 1356 3278 1631 3431 
Q 1906 3584 2284 3584 
Q 2666 3584 2933 3390 
Q 3200 3197 3328 2828 
z
" transform="scale(0.015625)"/>
     </defs>
     <use xlink:href="#DejaVuSans-5b"/>
     <use xlink:href="#DejaVuSans-5b" x="39.013672"/>
     <use xlink:href="#DejaVuSans-37" x="78.027344"/>
     <use xlink:href="#DejaVuSans-2c" x="141.650391"/>
     <use xlink:href="#DejaVuSans-20" x="173.4375"/>
     <use xlink:href="#DejaVuSans-31" x="205.224609"/>
     <use xlink:href="#DejaVuSans-2c" x="268.847656"/>
     <use xlink:href="#DejaVuSans-20" x="300.634766"/>
     <use xlink:href="#DejaVuSans-33" x="332.421875"/>
     <use xlink:href="#DejaVuSans-5d" x="396.044922"/>
     <use xlink:href="#DejaVuSans-5d" x="435.058594"/>
     <use xlink:href="#DejaVuSans-20" x="474.072266"/>
     <use xlink:href="#DejaVuSans-50" x="505.859375"/>
     <use xlink:href="#DejaVuSans-68" x="566.162109"/>
     <use xlink:href="#DejaVuSans-65" x="629.541016"/>
     <use xlink:href="#DejaVuSans-6e" x="691.064453"/>
     <use xlink:href="#DejaVuSans-6f" x="754.443359"/>
     <use xlink:href="#DejaVuSans-6d" x="815.625"/>
     <use xlink:href="#DejaVuSans-65" x="913.037109"/>
     <use xlink:href="#DejaVuSans-6e" x="974.560547"/>
     <use xlink:href="#DejaVuSans-6f" x="1037.939453"/>
     <use xlink:href="#DejaVuSans-6c" x="1099.121094"/>
     <use xlink:href="#DejaVuSans-6f" x="1126.904297"/>
     <use xlink:href="#DejaVuSans-67" x="1188.085938"/>
     <use xlink:href="#DejaVuSans-69" x="1251.5625"/>
     <use xlink:href="#DejaVuSans-63" x="1279.345703"/>
     <use xlink:href="#DejaVuSans-61" x="1334.326172"/>
     <use xlink:href="#DejaVuSans-6c" x="1395.605469"/>
    </g>
   </g>
   <g id="legend_1">
    <g id="patch_7">
     <path d="M 257.327812 291.54825 
L 419.674688 291.54825 
Q 422.074687 291.54825 422.074687 289.14825 
L 422.074687 184.66575 
Q 422.074687 182.26575 419.674688 182.26575 
L 257.327812 182.26575 
Q 254.927812 182.26575 254.927812 184.66575 
L 254.927812 289.14825 
Q 254.927812 291.54825 257.327812 291.54825 
z
" style="fill: #ffffff; opacity: 0.8; stroke: #cccccc; stroke-linejoin: miter"/>
    </g>
    <g id="line2d_32">
     <path d="M 259.727812 191.983875 
L 271.727812 191.983875 
L 283.727812 191.983875 
" style="fill: none; stroke: #2ca02c; stroke-width: 1.5; stroke-linecap: square"/>
    </g>
    <g id="text_16">
     <!-- measure 1 round -->
     <g transform="translate(293.327812 196.183875) scale(0.12 -0.12)">
      <defs>
       <path id="DejaVuSans-75" d="M 544 1381 
L 544 3500 
L 1119 3500 
L 1119 1403 
Q 1119 906 1312 657 
Q 1506 409 1894 409 
Q 2359 409 2629 706 
Q 2900 1003 2900 1516 
L 2900 3500 
L 3475 3500 
L 3475 0 
L 2900 0 
L 2900 538 
Q 2691 219 2414 64 
Q 2138 -91 1772 -91 
Q 1169 -91 856 284 
Q 544 659 544 1381 
z
M 1991 3584 
L 1991 3584 
z
" transform="scale(0.015625)"/>
       <path id="DejaVuSans-64" d="M 2906 2969 
L 2906 4863 
L 3481 4863 
L 3481 0 
L 2906 0 
L 2906 525 
Q 2725 213 2448 61 
Q 2172 -91 1784 -91 
Q 1150 -91 751 415 
Q 353 922 353 1747 
Q 353 2572 751 3078 
Q 1150 3584 1784 3584 
Q 2172 3584 2448 3432 
Q 2725 3281 2906 2969 
z
M 947 1747 
Q 947 1113 1208 752 
Q 1469 391 1925 391 
Q 2381 391 2643 752 
Q 2906 1113 2906 1747 
Q 2906 2381 2643 2742 
Q 2381 3103 1925 3103 
Q 1469 3103 1208 2742 
Q 947 2381 947 1747 
z
" transform="scale(0.015625)"/>
      </defs>
      <use xlink:href="#DejaVuSans-6d"/>
      <use xlink:href="#DejaVuSans-65" x="97.412109"/>
      <use xlink:href="#DejaVuSans-61" x="158.935547"/>
      <use xlink:href="#DejaVuSans-73" x="220.214844"/>
      <use xlink:href="#DejaVuSans-75" x="272.314453"/>
      <use xlink:href="#DejaVuSans-72" x="335.693359"/>
      <use xlink:href="#DejaVuSans-65" x="374.556641"/>
      <use xlink:href="#DejaVuSans-20" x="436.080078"/>
      <use xlink:href="#DejaVuSans-31" x="467.867188"/>
      <use xlink:href="#DejaVuSans-20" x="531.490234"/>
      <use xlink:href="#DejaVuSans-72" x="563.277344"/>
      <use xlink:href="#DejaVuSans-6f" x="602.140625"/>
      <use xlink:href="#DejaVuSans-75" x="663.322266"/>
      <use xlink:href="#DejaVuSans-6e" x="726.701172"/>
      <use xlink:href="#DejaVuSans-64" x="790.080078"/>
     </g>
    </g>
    <g id="line2d_33">
     <path d="M 259.727812 209.597625 
L 271.727812 209.597625 
L 283.727812 209.597625 
" style="fill: none; stroke: #d62728; stroke-width: 1.5; stroke-linecap: square"/>
    </g>
    <g id="text_17">
     <!-- measure 3 rounds -->
     <g transform="translate(293.327812 213.797625) scale(0.12 -0.12)">
      <use xlink:href="#DejaVuSans-6d"/>
      <use xlink:href="#DejaVuSans-65" x="97.412109"/>
      <use xlink:href="#DejaVuSans-61" x="158.935547"/>
      <use xlink:href="#DejaVuSans-73" x="220.214844"/>
      <use xlink:href="#DejaVuSans-75" x="272.314453"/>
      <use xlink:href="#DejaVuSans-72" x="335.693359"/>
      <use xlink:href="#DejaVuSans-65" x="374.556641"/>
      <use xlink:href="#DejaVuSans-20" x="436.080078"/>
      <use xlink:href="#DejaVuSans-33" x="467.867188"/>
      <use xlink:href="#DejaVuSans-20" x="531.490234"/>
      <use xlink:href="#DejaVuSans-72" x="563.277344"/>
      <use xlink:href="#DejaVuSans-6f" x="602.140625"/>
      <use xlink:href="#DejaVuSans-75" x="663.322266"/>
      <use xlink:href="#DejaVuSans-6e" x="726.701172"/>
      <use xlink:href="#DejaVuSans-64" x="790.080078"/>
      <use xlink:href="#DejaVuSans-73" x="853.556641"/>
     </g>
    </g>
    <g id="line2d_34">
     <path d="M 259.727812 227.211375 
L 271.727812 227.211375 
L 283.727812 227.211375 
" style="fill: none; stroke: #9467bd; stroke-width: 1.5; stroke-linecap: square"/>
    </g>
    <g id="text_18">
     <!-- measure 5 rounds -->
     <g transform="translate(293.327812 231.411375) scale(0.12 -0.12)">
      <defs>
       <path id="DejaVuSans-35" d="M 691 4666 
L 3169 4666 
L 3169 4134 
L 1269 4134 
L 1269 2991 
Q 1406 3038 1543 3061 
Q 1681 3084 1819 3084 
Q 2600 3084 3056 2656 
Q 3513 2228 3513 1497 
Q 3513 744 3044 326 
Q 2575 -91 1722 -91 
Q 1428 -91 1123 -41 
Q 819 9 494 109 
L 494 744 
Q 775 591 1075 516 
Q 1375 441 1709 441 
Q 2250 441 2565 725 
Q 2881 1009 2881 1497 
Q 2881 1984 2565 2268 
Q 2250 2553 1709 2553 
Q 1456 2553 1204 2497 
Q 953 2441 691 2322 
L 691 4666 
z
" transform="scale(0.015625)"/>
      </defs>
      <use xlink:href="#DejaVuSans-6d"/>
      <use xlink:href="#DejaVuSans-65" x="97.412109"/>
      <use xlink:href="#DejaVuSans-61" x="158.935547"/>
      <use xlink:href="#DejaVuSans-73" x="220.214844"/>
      <use xlink:href="#DejaVuSans-75" x="272.314453"/>
      <use xlink:href="#DejaVuSans-72" x="335.693359"/>
      <use xlink:href="#DejaVuSans-65" x="374.556641"/>
      <use xlink:href="#DejaVuSans-20" x="436.080078"/>
      <use xlink:href="#DejaVuSans-35" x="467.867188"/>
      <use xlink:href="#DejaVuSans-20" x="531.490234"/>
      <use xlink:href="#DejaVuSans-72" x="563.277344"/>
      <use xlink:href="#DejaVuSans-6f" x="602.140625"/>
      <use xlink:href="#DejaVuSans-75" x="663.322266"/>
      <use xlink:href="#DejaVuSans-6e" x="726.701172"/>
      <use xlink:href="#DejaVuSans-64" x="790.080078"/>
      <use xlink:href="#DejaVuSans-73" x="853.556641"/>
     </g>
    </g>
    <g id="line2d_35">
     <path d="M 259.727812 244.825125 
L 271.727812 244.825125 
L 283.727812 244.825125 
" style="fill: none; stroke: #8c564b; stroke-width: 1.5; stroke-linecap: square"/>
    </g>
    <g id="text_19">
     <!-- measure 7 rounds -->
     <g transform="translate(293.327812 249.025125) scale(0.12 -0.12)">
      <use xlink:href="#DejaVuSans-6d"/>
      <use xlink:href="#DejaVuSans-65" x="97.412109"/>
      <use xlink:href="#DejaVuSans-61" x="158.935547"/>
      <use xlink:href="#DejaVuSans-73" x="220.214844"/>
      <use xlink:href="#DejaVuSans-75" x="272.314453"/>
      <use xlink:href="#DejaVuSans-72" x="335.693359"/>
      <use xlink:href="#DejaVuSans-65" x="374.556641"/>
      <use xlink:href="#DejaVuSans-20" x="436.080078"/>
      <use xlink:href="#DejaVuSans-37" x="467.867188"/>
      <use xlink:href="#DejaVuSans-20" x="531.490234"/>
      <use xlink:href="#DejaVuSans-72" x="563.277344"/>
      <use xlink:href="#DejaVuSans-6f" x="602.140625"/>
      <use xlink:href="#DejaVuSans-75" x="663.322266"/>
      <use xlink:href="#DejaVuSans-6e" x="726.701172"/>
      <use xlink:href="#DejaVuSans-64" x="790.080078"/>
      <use xlink:href="#DejaVuSans-73" x="853.556641"/>
     </g>
    </g>
    <g id="line2d_36">
     <path d="M 259.727812 262.438875 
L 271.727812 262.438875 
L 283.727812 262.438875 
" style="fill: none; stroke: #e377c2; stroke-width: 1.5; stroke-linecap: square"/>
    </g>
    <g id="text_20">
     <!-- measure 101 rounds -->
     <g transform="translate(293.327812 266.638875) scale(0.12 -0.12)">
      <use xlink:href="#DejaVuSans-6d"/>
      <use xlink:href="#DejaVuSans-65" x="97.412109"/>
      <use xlink:href="#DejaVuSans-61" x="158.935547"/>
      <use xlink:href="#DejaVuSans-73" x="220.214844"/>
      <use xlink:href="#DejaVuSans-75" x="272.314453"/>
      <use xlink:href="#DejaVuSans-72" x="335.693359"/>
      <use xlink:href="#DejaVuSans-65" x="374.556641"/>
      <use xlink:href="#DejaVuSans-20" x="436.080078"/>
      <use xlink:href="#DejaVuSans-31" x="467.867188"/>
      <use xlink:href="#DejaVuSans-30" x="531.490234"/>
      <use xlink:href="#DejaVuSans-31" x="595.113281"/>
      <use xlink:href="#DejaVuSans-20" x="658.736328"/>
      <use xlink:href="#DejaVuSans-72" x="690.523438"/>
      <use xlink:href="#DejaVuSans-6f" x="729.386719"/>
      <use xlink:href="#DejaVuSans-75" x="790.568359"/>
      <use xlink:href="#DejaVuSans-6e" x="853.947266"/>
      <use xlink:href="#DejaVuSans-64" x="917.326172"/>
      <use xlink:href="#DejaVuSans-73" x="980.802734"/>
     </g>
    </g>
    <g id="line2d_37">
     <path d="M 259.727812 280.052625 
L 271.727812 280.052625 
L 283.727812 280.052625 
" style="fill: none; stroke: #ff7f0e; stroke-opacity: 0.4; stroke-width: 1.5; stroke-linecap: square"/>
    </g>
    <g id="text_21">
     <!-- no measure error -->
     <g transform="translate(293.327812 284.252625) scale(0.12 -0.12)">
      <use xlink:href="#DejaVuSans-6e"/>
      <use xlink:href="#DejaVuSans-6f" x="63.378906"/>
      <use xlink:href="#DejaVuSans-20" x="124.560547"/>
      <use xlink:href="#DejaVuSans-6d" x="156.347656"/>
      <use xlink:href="#DejaVuSans-65" x="253.759766"/>
      <use xlink:href="#DejaVuSans-61" x="315.283203"/>
      <use xlink:href="#DejaVuSans-73" x="376.5625"/>
      <use xlink:href="#DejaVuSans-75" x="428.662109"/>
      <use xlink:href="#DejaVuSans-72" x="492.041016"/>
      <use xlink:href="#DejaVuSans-65" x="530.904297"/>
      <use xlink:href="#DejaVuSans-20" x="592.427734"/>
      <use xlink:href="#DejaVuSans-65" x="624.214844"/>
      <use xlink:href="#DejaVuSans-72" x="685.738281"/>
      <use xlink:href="#DejaVuSans-72" x="725.101562"/>
      <use xlink:href="#DejaVuSans-6f" x="763.964844"/>
      <use xlink:href="#DejaVuSans-72" x="825.146484"/>
     </g>
    </g>
   </g>
  </g>
 </g>
 <defs>
  <clipPath id="p6037f1dca1">
   <rect x="70.954688" y="31.43625" width="357.12" height="266.112"/>
  </clipPath>
 </defs>
</svg>
