<?xml version="1.0" encoding="utf-8" standalone="no"?>
<!DOCTYPE svg PUBLIC "-//W3C//DTD SVG 1.1//EN"
  "http://www.w3.org/Graphics/SVG/1.1/DTD/svg11.dtd">
<svg xmlns:xlink="http://www.w3.org/1999/xlink" width="437.658281pt" height="349.621687pt" viewBox="0 0 437.658281 349.621687" xmlns="http://www.w3.org/2000/svg" version="1.1">
 <defs>
  <style type="text/css">*{stroke-linejoin: round; stroke-linecap: butt}</style>
 </defs>
 <g id="figure_1">
  <g id="patch_1">
   <path d="M 0 349.621687 
L 437.658281 349.621687 
L 437.658281 0 
L 0 0 
L 0 349.621687 
z
" style="fill: none"/>
  </g>
  <g id="axes_1">
   <g id="patch_2">
    <path d="M 61.410938 297.54825 
L 418.530938 297.54825 
L 418.530938 31.43625 
L 61.410938 31.43625 
L 61.410938 297.54825 
z
" style="fill: none"/>
   </g>
   <g id="matplotlib.axis_1">
    <g id="xtick_1">
     <g id="line2d_1">
      <path d="M 61.410938 297.54825 
L 61.410938 31.43625 
" clip-path="url(#p37e3121db0)" style="fill: none; stroke: #b0b0b0; stroke-width: 0.8; stroke-linecap: square"/>
     </g>
     <g id="line2d_2">
      <defs>
       <path id="md39032bed2" d="M 0 0 
L 0 3.5 
" style="stroke: #000000; stroke-width: 0.8"/>
      </defs>
      <g>
       <use xlink:href="#md39032bed2" x="61.410938" y="297.54825" style="stroke: #000000; stroke-width: 0.8"/>
      </g>
     </g>
     <g id="text_1">
      <!-- 0.0 -->
      <g transform="translate(49.483594 315.945906) scale(0.15 -0.15)">
       <defs>
        <path id="DejaVuSans-30" d="M 2034 4250 
Q 1547 4250 1301 3770 
Q 1056 3291 1056 2328 
Q 1056 1369 1301 889 
Q 1547 409 2034 409 
Q 2525 409 2770 889 
Q 3016 1369 3016 2328 
Q 3016 3291 2770 3770 
Q 2525 4250 2034 4250 
z
M 2034 4750 
Q 2819 4750 3233 4129 
Q 3647 3509 3647 2328 
Q 3647 1150 3233 529 
Q 2819 -91 2034 -91 
Q 1250 -91 836 529 
Q 422 1150 422 2328 
Q 422 3509 836 4129 
Q 1250 4750 2034 4750 
z
" transform="scale(0.015625)"/>
        <path id="DejaVuSans-2e" d="M 684 794 
L 1344 794 
L 1344 0 
L 684 0 
L 684 794 
z
" transform="scale(0.015625)"/>
       </defs>
       <use xlink:href="#DejaVuSans-30"/>
       <use xlink:href="#DejaVuSans-2e" x="63.623047"/>
       <use xlink:href="#DejaVuSans-30" x="95.410156"/>
      </g>
     </g>
    </g>
    <g id="xtick_2">
     <g id="line2d_3">
      <path d="M 132.834938 297.54825 
L 132.834938 31.43625 
" clip-path="url(#p37e3121db0)" style="fill: none; stroke: #b0b0b0; stroke-width: 0.8; stroke-linecap: square"/>
     </g>
     <g id="line2d_4">
      <g>
       <use xlink:href="#md39032bed2" x="132.834938" y="297.54825" style="stroke: #000000; stroke-width: 0.8"/>
      </g>
     </g>
     <g id="text_2">
      <!-- 0.2 -->
      <g transform="translate(120.907594 315.945906) scale(0.15 -0.15)">
       <defs>
        <path id="DejaVuSans-32" d="M 1228 531 
L 3431 531 
L 3431 0 
L 469 0 
L 469 531 
Q 828 903 1448 1529 
Q 2069 2156 2228 2338 
Q 2531 2678 2651 2914 
Q 2772 3150 2772 3378 
Q 2772 3750 2511 3984 
Q 2250 4219 1831 4219 
Q 1534 4219 1204 4116 
Q 875 4013 500 3803 
L 500 4441 
Q 881 4594 1212 4672 
Q 1544 4750 1819 4750 
Q 2544 4750 2975 4387 
Q 3406 4025 3406 3419 
Q 3406 3131 3298 2873 
Q 3191 2616 2906 2266 
Q 2828 2175 2409 1742 
Q 1991 1309 1228 531 
z
" transform="scale(0.015625)"/>
       </defs>
       <use xlink:href="#DejaVuSans-30"/>
       <use xlink:href="#DejaVuSans-2e" x="63.623047"/>
       <use xlink:href="#DejaVuSans-32" x="95.410156"/>
      </g>
     </g>
    </g>
    <g id="xtick_3">
     <g id="line2d_5">
      <path d="M 204.258938 297.54825 
L 204.258938 31.43625 
" clip-path="url(#p37e3121db0)" style="fill: none; stroke: #b0b0b0; stroke-width: 0.8; stroke-linecap: square"/>
     </g>
     <g id="line2d_6">
      <g>
       <use xlink:href="#md39032bed2" x="204.258938" y="297.54825" style="stroke: #000000; stroke-width: 0.8"/>
      </g>
     </g>
     <g id="text_3">
      <!-- 0.4 -->
      <g transform="translate(192.331594 315.945906) scale(0.15 -0.15)">
       <defs>
        <path id="DejaVuSans-34" d="M 2419 4116 
L 825 1625 
L 2419 1625 
L 2419 4116 
z
M 2253 4666 
L 3047 4666 
L 3047 1625 
L 3713 1625 
L 3713 1100 
L 3047 1100 
L 3047 0 
L 2419 0 
L 2419 1100 
L 313 1100 
L 313 1709 
L 2253 4666 
z
" transform="scale(0.015625)"/>
       </defs>
       <use xlink:href="#DejaVuSans-30"/>
       <use xlink:href="#DejaVuSans-2e" x="63.623047"/>
       <use xlink:href="#DejaVuSans-34" x="95.410156"/>
      </g>
     </g>
    </g>
    <g id="xtick_4">
     <g id="line2d_7">
      <path d="M 275.682938 297.54825 
L 275.682938 31.43625 
" clip-path="url(#p37e3121db0)" style="fill: none; stroke: #b0b0b0; stroke-width: 0.8; stroke-linecap: square"/>
     </g>
     <g id="line2d_8">
      <g>
       <use xlink:href="#md39032bed2" x="275.682938" y="297.54825" style="stroke: #000000; stroke-width: 0.8"/>
      </g>
     </g>
     <g id="text_4">
      <!-- 0.6 -->
      <g transform="translate(263.755594 315.945906) scale(0.15 -0.15)">
       <defs>
        <path id="DejaVuSans-36" d="M 2113 2584 
Q 1688 2584 1439 2293 
Q 1191 2003 1191 1497 
Q 1191 994 1439 701 
Q 1688 409 2113 409 
Q 2538 409 2786 701 
Q 3034 994 3034 1497 
Q 3034 2003 2786 2293 
Q 2538 2584 2113 2584 
z
M 3366 4563 
L 3366 3988 
Q 3128 4100 2886 4159 
Q 2644 4219 2406 4219 
Q 1781 4219 1451 3797 
Q 1122 3375 1075 2522 
Q 1259 2794 1537 2939 
Q 1816 3084 2150 3084 
Q 2853 3084 3261 2657 
Q 3669 2231 3669 1497 
Q 3669 778 3244 343 
Q 2819 -91 2113 -91 
Q 1303 -91 875 529 
Q 447 1150 447 2328 
Q 447 3434 972 4092 
Q 1497 4750 2381 4750 
Q 2619 4750 2861 4703 
Q 3103 4656 3366 4563 
z
" transform="scale(0.015625)"/>
       </defs>
       <use xlink:href="#DejaVuSans-30"/>
       <use xlink:href="#DejaVuSans-2e" x="63.623047"/>
       <use xlink:href="#DejaVuSans-36" x="95.410156"/>
      </g>
     </g>
    </g>
    <g id="xtick_5">
     <g id="line2d_9">
      <path d="M 347.106938 297.54825 
L 347.106938 31.43625 
" clip-path="url(#p37e3121db0)" style="fill: none; stroke: #b0b0b0; stroke-width: 0.8; stroke-linecap: square"/>
     </g>
     <g id="line2d_10">
      <g>
       <use xlink:href="#md39032bed2" x="347.106938" y="297.54825" style="stroke: #000000; stroke-width: 0.8"/>
      </g>
     </g>
     <g id="text_5">
      <!-- 0.8 -->
      <g transform="translate(335.179594 315.945906) scale(0.15 -0.15)">
       <defs>
        <path id="DejaVuSans-38" d="M 2034 2216 
Q 1584 2216 1326 1975 
Q 1069 1734 1069 1313 
Q 1069 891 1326 650 
Q 1584 409 2034 409 
Q 2484 409 2743 651 
Q 3003 894 3003 1313 
Q 3003 1734 2745 1975 
Q 2488 2216 2034 2216 
z
M 1403 2484 
Q 997 2584 770 2862 
Q 544 3141 544 3541 
Q 544 4100 942 4425 
Q 1341 4750 2034 4750 
Q 2731 4750 3128 4425 
Q 3525 4100 3525 3541 
Q 3525 3141 3298 2862 
Q 3072 2584 2669 2484 
Q 3125 2378 3379 2068 
Q 3634 1759 3634 1313 
Q 3634 634 3220 271 
Q 2806 -91 2034 -91 
Q 1263 -91 848 271 
Q 434 634 434 1313 
Q 434 1759 690 2068 
Q 947 2378 1403 2484 
z
M 1172 3481 
Q 1172 3119 1398 2916 
Q 1625 2713 2034 2713 
Q 2441 2713 2670 2916 
Q 2900 3119 2900 3481 
Q 2900 3844 2670 4047 
Q 2441 4250 2034 4250 
Q 1625 4250 1398 4047 
Q 1172 3844 1172 3481 
z
" transform="scale(0.015625)"/>
       </defs>
       <use xlink:href="#DejaVuSans-30"/>
       <use xlink:href="#DejaVuSans-2e" x="63.623047"/>
       <use xlink:href="#DejaVuSans-38" x="95.410156"/>
      </g>
     </g>
    </g>
    <g id="xtick_6">
     <g id="line2d_11">
      <path d="M 418.530938 297.54825 
L 418.530938 31.43625 
" clip-path="url(#p37e3121db0)" style="fill: none; stroke: #b0b0b0; stroke-width: 0.8; stroke-linecap: square"/>
     </g>
     <g id="line2d_12">
      <g>
       <use xlink:href="#md39032bed2" x="418.530938" y="297.54825" style="stroke: #000000; stroke-width: 0.8"/>
      </g>
     </g>
     <g id="text_6">
      <!-- 1.0 -->
      <g transform="translate(406.603594 315.945906) scale(0.15 -0.15)">
       <defs>
        <path id="DejaVuSans-31" d="M 794 531 
L 1825 531 
L 1825 4091 
L 703 3866 
L 703 4441 
L 1819 4666 
L 2450 4666 
L 2450 531 
L 3481 531 
L 3481 0 
L 794 0 
L 794 531 
z
" transform="scale(0.015625)"/>
       </defs>
       <use xlink:href="#DejaVuSans-31"/>
       <use xlink:href="#DejaVuSans-2e" x="63.623047"/>
       <use xlink:href="#DejaVuSans-30" x="95.410156"/>
      </g>
     </g>
    </g>
    <g id="text_7">
     <!-- Physical Error -->
     <g transform="translate(171.744375 338.262312) scale(0.2 -0.2)">
      <defs>
       <path id="DejaVuSans-50" d="M 1259 4147 
L 1259 2394 
L 2053 2394 
Q 2494 2394 2734 2622 
Q 2975 2850 2975 3272 
Q 2975 3691 2734 3919 
Q 2494 4147 2053 4147 
L 1259 4147 
z
M 628 4666 
L 2053 4666 
Q 2838 4666 3239 4311 
Q 3641 3956 3641 3272 
Q 3641 2581 3239 2228 
Q 2838 1875 2053 1875 
L 1259 1875 
L 1259 0 
L 628 0 
L 628 4666 
z
" transform="scale(0.015625)"/>
       <path id="DejaVuSans-68" d="M 3513 2113 
L 3513 0 
L 2938 0 
L 2938 2094 
Q 2938 2591 2744 2837 
Q 2550 3084 2163 3084 
Q 1697 3084 1428 2787 
Q 1159 2491 1159 1978 
L 1159 0 
L 581 0 
L 581 4863 
L 1159 4863 
L 1159 2956 
Q 1366 3272 1645 3428 
Q 1925 3584 2291 3584 
Q 2894 3584 3203 3211 
Q 3513 2838 3513 2113 
z
" transform="scale(0.015625)"/>
       <path id="DejaVuSans-79" d="M 2059 -325 
Q 1816 -950 1584 -1140 
Q 1353 -1331 966 -1331 
L 506 -1331 
L 506 -850 
L 844 -850 
Q 1081 -850 1212 -737 
Q 1344 -625 1503 -206 
L 1606 56 
L 191 3500 
L 800 3500 
L 1894 763 
L 2988 3500 
L 3597 3500 
L 2059 -325 
z
" transform="scale(0.015625)"/>
       <path id="DejaVuSans-73" d="M 2834 3397 
L 2834 2853 
Q 2591 2978 2328 3040 
Q 2066 3103 1784 3103 
Q 1356 3103 1142 2972 
Q 928 2841 928 2578 
Q 928 2378 1081 2264 
Q 1234 2150 1697 2047 
L 1894 2003 
Q 2506 1872 2764 1633 
Q 3022 1394 3022 966 
Q 3022 478 2636 193 
Q 2250 -91 1575 -91 
Q 1294 -91 989 -36 
Q 684 19 347 128 
L 347 722 
Q 666 556 975 473 
Q 1284 391 1588 391 
Q 1994 391 2212 530 
Q 2431 669 2431 922 
Q 2431 1156 2273 1281 
Q 2116 1406 1581 1522 
L 1381 1569 
Q 847 1681 609 1914 
Q 372 2147 372 2553 
Q 372 3047 722 3315 
Q 1072 3584 1716 3584 
Q 2034 3584 2315 3537 
Q 2597 3491 2834 3397 
z
" transform="scale(0.015625)"/>
       <path id="DejaVuSans-69" d="M 603 3500 
L 1178 3500 
L 1178 0 
L 603 0 
L 603 3500 
z
M 603 4863 
L 1178 4863 
L 1178 4134 
L 603 4134 
L 603 4863 
z
" transform="scale(0.015625)"/>
       <path id="DejaVuSans-63" d="M 3122 3366 
L 3122 2828 
Q 2878 2963 2633 3030 
Q 2388 3097 2138 3097 
Q 1578 3097 1268 2742 
Q 959 2388 959 1747 
Q 959 1106 1268 751 
Q 1578 397 2138 397 
Q 2388 397 2633 464 
Q 2878 531 3122 666 
L 3122 134 
Q 2881 22 2623 -34 
Q 2366 -91 2075 -91 
Q 1284 -91 818 406 
Q 353 903 353 1747 
Q 353 2603 823 3093 
Q 1294 3584 2113 3584 
Q 2378 3584 2631 3529 
Q 2884 3475 3122 3366 
z
" transform="scale(0.015625)"/>
       <path id="DejaVuSans-61" d="M 2194 1759 
Q 1497 1759 1228 1600 
Q 959 1441 959 1056 
Q 959 750 1161 570 
Q 1363 391 1709 391 
Q 2188 391 2477 730 
Q 2766 1069 2766 1631 
L 2766 1759 
L 2194 1759 
z
M 3341 1997 
L 3341 0 
L 2766 0 
L 2766 531 
Q 2569 213 2275 61 
Q 1981 -91 1556 -91 
Q 1019 -91 701 211 
Q 384 513 384 1019 
Q 384 1609 779 1909 
Q 1175 2209 1959 2209 
L 2766 2209 
L 2766 2266 
Q 2766 2663 2505 2880 
Q 2244 3097 1772 3097 
Q 1472 3097 1187 3025 
Q 903 2953 641 2809 
L 641 3341 
Q 956 3463 1253 3523 
Q 1550 3584 1831 3584 
Q 2591 3584 2966 3190 
Q 3341 2797 3341 1997 
z
" transform="scale(0.015625)"/>
       <path id="DejaVuSans-6c" d="M 603 4863 
L 1178 4863 
L 1178 0 
L 603 0 
L 603 4863 
z
" transform="scale(0.015625)"/>
       <path id="DejaVuSans-20" transform="scale(0.015625)"/>
       <path id="DejaVuSans-45" d="M 628 4666 
L 3578 4666 
L 3578 4134 
L 1259 4134 
L 1259 2753 
L 3481 2753 
L 3481 2222 
L 1259 2222 
L 1259 531 
L 3634 531 
L 3634 0 
L 628 0 
L 628 4666 
z
" transform="scale(0.015625)"/>
       <path id="DejaVuSans-72" d="M 2631 2963 
Q 2534 3019 2420 3045 
Q 2306 3072 2169 3072 
Q 1681 3072 1420 2755 
Q 1159 2438 1159 1844 
L 1159 0 
L 581 0 
L 581 3500 
L 1159 3500 
L 1159 2956 
Q 1341 3275 1631 3429 
Q 1922 3584 2338 3584 
Q 2397 3584 2469 3576 
Q 2541 3569 2628 3553 
L 2631 2963 
z
" transform="scale(0.015625)"/>
       <path id="DejaVuSans-6f" d="M 1959 3097 
Q 1497 3097 1228 2736 
Q 959 2375 959 1747 
Q 959 1119 1226 758 
Q 1494 397 1959 397 
Q 2419 397 2687 759 
Q 2956 1122 2956 1747 
Q 2956 2369 2687 2733 
Q 2419 3097 1959 3097 
z
M 1959 3584 
Q 2709 3584 3137 3096 
Q 3566 2609 3566 1747 
Q 3566 888 3137 398 
Q 2709 -91 1959 -91 
Q 1206 -91 779 398 
Q 353 888 353 1747 
Q 353 2609 779 3096 
Q 1206 3584 1959 3584 
z
" transform="scale(0.015625)"/>
      </defs>
      <use xlink:href="#DejaVuSans-50"/>
      <use xlink:href="#DejaVuSans-68" x="60.302734"/>
      <use xlink:href="#DejaVuSans-79" x="123.681641"/>
      <use xlink:href="#DejaVuSans-73" x="182.861328"/>
      <use xlink:href="#DejaVuSans-69" x="234.960938"/>
      <use xlink:href="#DejaVuSans-63" x="262.744141"/>
      <use xlink:href="#DejaVuSans-61" x="317.724609"/>
      <use xlink:href="#DejaVuSans-6c" x="379.003906"/>
      <use xlink:href="#DejaVuSans-20" x="406.787109"/>
      <use xlink:href="#DejaVuSans-45" x="438.574219"/>
      <use xlink:href="#DejaVuSans-72" x="501.757812"/>
      <use xlink:href="#DejaVuSans-72" x="541.121094"/>
      <use xlink:href="#DejaVuSans-6f" x="579.984375"/>
      <use xlink:href="#DejaVuSans-72" x="641.166016"/>
     </g>
    </g>
   </g>
   <g id="matplotlib.axis_2">
    <g id="ytick_1">
     <g id="line2d_13">
      <path d="M 61.410938 297.54825 
L 418.530938 297.54825 
" clip-path="url(#p37e3121db0)" style="fill: none; stroke: #b0b0b0; stroke-width: 0.8; stroke-linecap: square"/>
     </g>
     <g id="line2d_14">
      <defs>
       <path id="m6f3f5b6aff" d="M 0 0 
L -3.5 0 
" style="stroke: #000000; stroke-width: 0.8"/>
      </defs>
      <g>
       <use xlink:href="#m6f3f5b6aff" x="61.410938" y="297.54825" style="stroke: #000000; stroke-width: 0.8"/>
      </g>
     </g>
     <g id="text_8">
      <!-- 0.0 -->
      <g transform="translate(30.55625 303.247078) scale(0.15 -0.15)">
       <use xlink:href="#DejaVuSans-30"/>
       <use xlink:href="#DejaVuSans-2e" x="63.623047"/>
       <use xlink:href="#DejaVuSans-30" x="95.410156"/>
      </g>
     </g>
    </g>
    <g id="ytick_2">
     <g id="line2d_15">
      <path d="M 61.410938 244.32585 
L 418.530938 244.32585 
" clip-path="url(#p37e3121db0)" style="fill: none; stroke: #b0b0b0; stroke-width: 0.8; stroke-linecap: square"/>
     </g>
     <g id="line2d_16">
      <g>
       <use xlink:href="#m6f3f5b6aff" x="61.410938" y="244.32585" style="stroke: #000000; stroke-width: 0.8"/>
      </g>
     </g>
     <g id="text_9">
      <!-- 0.2 -->
      <g transform="translate(30.55625 250.024678) scale(0.15 -0.15)">
       <use xlink:href="#DejaVuSans-30"/>
       <use xlink:href="#DejaVuSans-2e" x="63.623047"/>
       <use xlink:href="#DejaVuSans-32" x="95.410156"/>
      </g>
     </g>
    </g>
    <g id="ytick_3">
     <g id="line2d_17">
      <path d="M 61.410938 191.10345 
L 418.530938 191.10345 
" clip-path="url(#p37e3121db0)" style="fill: none; stroke: #b0b0b0; stroke-width: 0.8; stroke-linecap: square"/>
     </g>
     <g id="line2d_18">
      <g>
       <use xlink:href="#m6f3f5b6aff" x="61.410938" y="191.10345" style="stroke: #000000; stroke-width: 0.8"/>
      </g>
     </g>
     <g id="text_10">
      <!-- 0.4 -->
      <g transform="translate(30.55625 196.802278) scale(0.15 -0.15)">
       <use xlink:href="#DejaVuSans-30"/>
       <use xlink:href="#DejaVuSans-2e" x="63.623047"/>
       <use xlink:href="#DejaVuSans-34" x="95.410156"/>
      </g>
     </g>
    </g>
    <g id="ytick_4">
     <g id="line2d_19">
      <path d="M 61.410938 137.88105 
L 418.530938 137.88105 
" clip-path="url(#p37e3121db0)" style="fill: none; stroke: #b0b0b0; stroke-width: 0.8; stroke-linecap: square"/>
     </g>
     <g id="line2d_20">
      <g>
       <use xlink:href="#m6f3f5b6aff" x="61.410938" y="137.88105" style="stroke: #000000; stroke-width: 0.8"/>
      </g>
     </g>
     <g id="text_11">
      <!-- 0.6 -->
      <g transform="translate(30.55625 143.579878) scale(0.15 -0.15)">
       <use xlink:href="#DejaVuSans-30"/>
       <use xlink:href="#DejaVuSans-2e" x="63.623047"/>
       <use xlink:href="#DejaVuSans-36" x="95.410156"/>
      </g>
     </g>
    </g>
    <g id="ytick_5">
     <g id="line2d_21">
      <path d="M 61.410938 84.65865 
L 418.530938 84.65865 
" clip-path="url(#p37e3121db0)" style="fill: none; stroke: #b0b0b0; stroke-width: 0.8; stroke-linecap: square"/>
     </g>
     <g id="line2d_22">
      <g>
       <use xlink:href="#m6f3f5b6aff" x="61.410938" y="84.65865" style="stroke: #000000; stroke-width: 0.8"/>
      </g>
     </g>
     <g id="text_12">
      <!-- 0.8 -->
      <g transform="translate(30.55625 90.357478) scale(0.15 -0.15)">
       <use xlink:href="#DejaVuSans-30"/>
       <use xlink:href="#DejaVuSans-2e" x="63.623047"/>
       <use xlink:href="#DejaVuSans-38" x="95.410156"/>
      </g>
     </g>
    </g>
    <g id="ytick_6">
     <g id="line2d_23">
      <path d="M 61.410938 31.43625 
L 418.530938 31.43625 
" clip-path="url(#p37e3121db0)" style="fill: none; stroke: #b0b0b0; stroke-width: 0.8; stroke-linecap: square"/>
     </g>
     <g id="line2d_24">
      <g>
       <use xlink:href="#m6f3f5b6aff" x="61.410938" y="31.43625" style="stroke: #000000; stroke-width: 0.8"/>
      </g>
     </g>
     <g id="text_13">
      <!-- 1.0 -->
      <g transform="translate(30.55625 37.135078) scale(0.15 -0.15)">
       <use xlink:href="#DejaVuSans-31"/>
       <use xlink:href="#DejaVuSans-2e" x="63.623047"/>
       <use xlink:href="#DejaVuSans-30" x="95.410156"/>
      </g>
     </g>
    </g>
    <g id="text_14">
     <!-- Logical Error -->
     <g transform="translate(22.396875 227.087562) rotate(-90) scale(0.2 -0.2)">
      <defs>
       <path id="DejaVuSans-4c" d="M 628 4666 
L 1259 4666 
L 1259 531 
L 3531 531 
L 3531 0 
L 628 0 
L 628 4666 
z
" transform="scale(0.015625)"/>
       <path id="DejaVuSans-67" d="M 2906 1791 
Q 2906 2416 2648 2759 
Q 2391 3103 1925 3103 
Q 1463 3103 1205 2759 
Q 947 2416 947 1791 
Q 947 1169 1205 825 
Q 1463 481 1925 481 
Q 2391 481 2648 825 
Q 2906 1169 2906 1791 
z
M 3481 434 
Q 3481 -459 3084 -895 
Q 2688 -1331 1869 -1331 
Q 1566 -1331 1297 -1286 
Q 1028 -1241 775 -1147 
L 775 -588 
Q 1028 -725 1275 -790 
Q 1522 -856 1778 -856 
Q 2344 -856 2625 -561 
Q 2906 -266 2906 331 
L 2906 616 
Q 2728 306 2450 153 
Q 2172 0 1784 0 
Q 1141 0 747 490 
Q 353 981 353 1791 
Q 353 2603 747 3093 
Q 1141 3584 1784 3584 
Q 2172 3584 2450 3431 
Q 2728 3278 2906 2969 
L 2906 3500 
L 3481 3500 
L 3481 434 
z
" transform="scale(0.015625)"/>
      </defs>
      <use xlink:href="#DejaVuSans-4c"/>
      <use xlink:href="#DejaVuSans-6f" x="53.962891"/>
      <use xlink:href="#DejaVuSans-67" x="115.144531"/>
      <use xlink:href="#DejaVuSans-69" x="178.621094"/>
      <use xlink:href="#DejaVuSans-63" x="206.404297"/>
      <use xlink:href="#DejaVuSans-61" x="261.384766"/>
      <use xlink:href="#DejaVuSans-6c" x="322.664062"/>
      <use xlink:href="#DejaVuSans-20" x="350.447266"/>
      <use xlink:href="#DejaVuSans-45" x="382.234375"/>
      <use xlink:href="#DejaVuSans-72" x="445.417969"/>
      <use xlink:href="#DejaVuSans-72" x="484.78125"/>
      <use xlink:href="#DejaVuSans-6f" x="523.644531"/>
      <use xlink:href="#DejaVuSans-72" x="584.826172"/>
     </g>
    </g>
   </g>
   <g id="line2d_25">
    <path d="M 61.410938 297.54825 
L 62.839418 297.50667 
L 63.553658 297.25719 
L 64.982138 297.04929 
L 65.696378 296.42559 
L 66.410618 296.42559 
L 67.839098 296.09295 
L 68.553338 295.30293 
L 69.267578 295.42767 
L 70.696058 294.30501 
L 71.410298 293.84763 
L 72.124538 292.84971 
L 73.553018 292.01811 
L 74.267258 290.64597 
L 74.981498 290.72913 
L 75.695738 289.44015 
L 76.409978 288.65013 
L 77.124218 287.23641 
L 77.838458 287.11167 
L 78.552698 287.61063 
L 79.266938 286.36323 
L 79.981178 286.07217 
L 80.695418 284.45055 
L 81.409658 284.03475 
L 82.123898 283.91001 
L 82.838138 283.20315 
L 83.552378 281.20731 
L 84.266618 281.74785 
L 84.980858 279.71043 
L 85.695098 278.87883 
L 86.409338 279.16989 
L 87.123578 275.96823 
L 87.837818 276.17613 
L 88.552058 276.09297 
L 89.266298 276.13455 
L 89.980538 272.72499 
L 90.694778 270.56283 
L 91.409018 271.93497 
L 92.123258 269.81439 
L 92.837498 270.31335 
L 93.551738 267.11169 
L 94.265978 268.94121 
L 94.980218 263.95161 
L 95.694458 266.57115 
L 96.408698 265.07427 
L 97.122938 261.95577 
L 97.837178 262.20525 
L 98.551418 258.92043 
L 99.265658 258.17199 
L 99.979898 256.84143 
L 100.694138 258.46305 
L 101.408378 257.50671 
L 102.122618 255.09507 
L 102.836858 253.09923 
L 103.551098 253.26555 
L 104.265338 252.51711 
L 104.979578 250.60443 
L 105.693818 249.77283 
L 107.122298 246.94539 
L 107.836538 247.94331 
L 108.550778 247.11171 
L 109.265018 244.28427 
L 109.979258 243.57741 
L 110.693498 239.83521 
L 111.407738 239.95995 
L 112.121978 241.49841 
L 112.836218 239.37783 
L 113.550458 238.37991 
L 114.264698 235.92669 
L 114.978938 234.55455 
L 115.693178 232.47555 
L 116.407418 236.46723 
L 117.121658 234.76245 
L 117.835898 231.43605 
L 118.550138 232.05975 
L 119.978618 228.02649 
L 120.692858 230.27181 
L 121.407098 227.19489 
L 122.121338 226.44645 
L 122.835578 226.61277 
L 123.549818 223.61901 
L 124.264058 221.74791 
L 124.978298 222.53793 
L 125.692538 220.04313 
L 126.406778 221.29053 
L 127.121018 220.87473 
L 127.835258 217.21569 
L 128.549498 217.46517 
L 129.263738 215.67723 
L 129.977978 214.63773 
L 130.692218 215.67723 
L 131.406458 213.68139 
L 132.120698 216.05145 
L 133.549178 208.81653 
L 134.263418 208.48389 
L 134.977658 212.22609 
L 135.691898 207.94335 
L 136.406138 209.81445 
L 137.120378 204.57537 
L 137.834618 206.40489 
L 138.548858 203.78535 
L 139.263098 206.86227 
L 139.977338 202.49637 
L 141.405818 198.37995 
L 142.120058 200.45895 
L 142.834298 199.04523 
L 143.548538 201.54003 
L 144.262778 197.63151 
L 144.977018 196.30095 
L 145.691258 198.75417 
L 146.405498 197.04939 
L 147.119738 195.92673 
L 148.548218 196.88307 
L 149.262458 194.38827 
L 149.976698 194.67933 
L 150.690938 192.43401 
L 151.405178 193.43193 
L 152.119418 192.05979 
L 152.833658 191.97663 
L 153.547898 192.64191 
L 154.262138 191.06187 
L 154.976378 188.52549 
L 155.690618 185.32383 
L 156.404858 183.78537 
L 157.119098 185.69805 
L 157.833338 189.19077 
L 158.547578 185.53173 
L 159.261818 183.78537 
L 159.976058 184.03485 
L 160.690298 183.82695 
L 161.404538 181.91427 
L 162.118778 184.45065 
L 163.547258 183.49431 
L 164.261498 184.28433 
L 164.975738 179.83527 
L 165.689978 182.91219 
L 166.404218 180.33423 
L 167.118458 180.04317 
L 167.832698 180.66687 
L 168.546938 176.38413 
L 169.261178 178.87893 
L 169.975418 177.25731 
L 170.689658 176.92467 
L 171.403898 177.79785 
L 172.118138 176.63361 
L 172.832378 176.05149 
L 173.546618 177.38205 
L 174.260858 175.51095 
L 174.975098 174.22197 
L 175.689338 175.05357 
L 176.403578 173.72301 
L 177.117818 172.05981 
L 177.832058 176.05149 
L 178.546298 173.26563 
L 179.260538 174.13881 
L 179.974778 171.76875 
L 180.689018 171.18663 
L 181.403258 172.43403 
L 182.117498 173.14089 
L 182.831738 171.31137 
L 183.545978 171.43611 
L 184.260218 173.97249 
L 184.974458 170.64609 
L 185.688698 172.26771 
L 187.117178 168.02655 
L 187.831418 170.52135 
L 188.545658 165.94755 
L 189.259898 172.60035 
L 189.974138 165.78123 
L 190.688378 169.73133 
L 191.402618 168.89973 
L 192.116858 169.27395 
L 192.831098 166.98705 
L 193.545338 167.73549 
L 194.259578 170.43819 
L 194.973818 169.06605 
L 195.688058 168.81657 
L 196.402298 166.48809 
L 197.116538 168.65025 
L 197.830778 168.52551 
L 198.545018 169.35711 
L 199.259258 166.15545 
L 199.973498 167.15337 
L 200.687738 164.70015 
L 201.401978 167.65233 
L 202.116218 165.69807 
L 202.830458 166.28019 
L 203.544698 166.15545 
L 204.258938 165.61491 
L 204.973178 167.40285 
L 206.401658 165.24069 
L 207.115898 165.49017 
L 207.830138 164.82489 
L 208.544378 164.82489 
L 209.258618 166.03071 
L 209.972858 163.24485 
L 210.687098 165.57333 
L 211.401338 168.52551 
L 212.115578 164.78331 
L 212.829818 162.53799 
L 213.544058 165.86439 
L 214.258298 165.36543 
L 214.972538 166.15545 
L 215.686778 165.82281 
L 216.401018 162.24693 
L 217.115258 164.86647 
L 217.829498 163.07853 
L 218.543738 163.99329 
L 219.257978 163.12011 
L 219.972218 165.36543 
L 220.686458 167.23653 
L 221.400698 166.90389 
L 222.829178 166.57125 
L 223.543418 163.61907 
L 224.257658 165.82281 
L 224.971898 164.90805 
L 225.686138 163.12011 
L 226.400378 164.49225 
L 227.114618 163.57749 
L 228.543098 169.27395 
L 229.257338 165.65649 
L 229.971578 165.11595 
L 230.685818 162.87063 
L 231.400058 164.78331 
L 232.114298 164.99121 
L 232.828538 162.53799 
L 233.542778 162.45483 
L 234.257018 163.49433 
L 234.971258 165.24069 
L 235.685498 162.70431 
L 236.399738 164.82489 
L 237.828218 163.66065 
L 238.542458 164.15961 
L 239.256698 163.45275 
L 239.970938 164.24277 
L 240.685178 165.57333 
L 241.399418 165.94755 
L 242.113658 164.65857 
L 242.827898 163.61907 
L 243.542138 166.32177 
L 244.256378 167.69391 
L 244.970618 164.65857 
L 245.684858 165.19911 
L 246.399098 163.49433 
L 247.113338 165.82281 
L 247.827578 165.78123 
L 248.541818 163.45275 
L 249.256058 165.94755 
L 249.970298 165.94755 
L 250.684538 163.36959 
L 251.398778 166.57125 
L 252.113018 164.15961 
L 252.827258 164.36751 
L 253.541498 164.90805 
L 254.255738 161.49849 
L 254.969978 165.11595 
L 255.684218 162.45483 
L 256.398458 163.82697 
L 257.112698 166.52967 
L 257.826938 164.65857 
L 258.541178 164.49225 
L 259.255418 162.74589 
L 259.969658 165.11595 
L 260.683898 162.08061 
L 261.398138 166.69599 
L 262.112378 164.49225 
L 262.826617 163.82697 
L 263.540858 164.40909 
L 264.255098 162.57957 
L 264.969337 165.24069 
L 265.683578 162.33009 
L 266.397818 167.44443 
L 267.112058 163.28643 
L 267.826298 165.94755 
L 268.540538 165.98913 
L 269.254778 165.03279 
L 269.969018 162.70431 
L 270.683258 165.82281 
L 271.397498 162.87063 
L 272.111738 163.78539 
L 272.825978 164.03487 
L 273.540218 164.40909 
L 274.254458 163.95171 
L 274.968698 159.21159 
L 275.682938 161.70639 
L 276.397178 164.70015 
L 277.111418 161.45691 
L 277.825658 164.03487 
L 278.539898 163.36959 
L 279.254138 159.17001 
L 279.968378 162.08061 
L 280.682618 160.45899 
L 281.396858 159.83529 
L 282.111098 162.87063 
L 282.825338 160.12635 
L 283.539578 161.83113 
L 284.253818 162.91221 
L 284.968058 160.25109 
L 285.682298 159.79371 
L 286.396538 158.33841 
L 287.110778 159.66897 
L 287.825018 160.08477 
L 288.539258 157.67313 
L 289.253498 158.13051 
L 289.967738 160.41741 
L 290.681978 158.83737 
L 291.396218 159.75213 
L 292.110458 157.13259 
L 292.824698 157.29891 
L 293.538938 158.87895 
L 294.253178 156.59205 
L 294.967418 157.38207 
L 295.681658 155.63571 
L 297.110138 153.93093 
L 297.824378 158.25525 
L 298.538618 154.76253 
L 299.252858 156.59205 
L 299.967098 156.25941 
L 300.681338 156.63363 
L 301.395578 153.18249 
L 302.109818 155.84361 
L 302.824058 154.22199 
L 303.538298 154.22199 
L 304.252538 153.39039 
L 304.966778 153.55671 
L 305.681018 150.56295 
L 306.395258 153.68145 
L 307.109498 150.97875 
L 307.823738 151.76877 
L 308.537978 151.10349 
L 309.252218 151.06191 
L 309.966458 148.69185 
L 310.680698 149.68977 
L 311.394938 150.06399 
L 312.823418 147.81867 
L 313.537658 147.77709 
L 314.251898 150.52137 
L 314.966138 145.65651 
L 315.680378 146.19705 
L 316.394618 148.15131 
L 317.108858 144.15963 
L 317.823098 142.99539 
L 318.537338 146.32179 
L 319.965818 144.40911 
L 320.680058 144.53385 
L 321.394298 142.28853 
L 322.108538 144.57543 
L 322.822778 143.99331 
L 323.537018 140.41743 
L 324.251258 139.75215 
L 324.965498 140.12637 
L 325.679738 138.13053 
L 326.393978 137.92263 
L 327.108218 139.00371 
L 327.822458 136.59207 
L 328.536698 134.84571 
L 329.250938 136.63365 
L 329.965178 136.88313 
L 330.679418 133.72305 
L 331.393658 135.09519 
L 332.107898 132.68355 
L 332.822138 133.97253 
L 333.536378 133.84779 
L 334.250618 130.60455 
L 334.964858 129.35715 
L 335.679098 129.23241 
L 336.393338 129.89769 
L 337.107578 126.90393 
L 337.821818 127.86027 
L 338.536058 128.52555 
L 339.250298 127.69395 
L 339.964538 122.57961 
L 340.678778 124.70019 
L 341.393018 123.99333 
L 342.107258 127.15341 
L 342.821498 122.62119 
L 343.535738 117.00789 
L 344.249978 120.66693 
L 344.964218 119.37795 
L 345.678458 118.75425 
L 346.392698 117.92265 
L 347.106938 117.42369 
L 347.821178 113.68149 
L 348.535418 115.92681 
L 349.249658 111.76881 
L 349.963898 113.30727 
L 350.678138 110.89563 
L 351.392378 109.06611 
L 352.106618 114.42993 
L 352.820858 111.39459 
L 353.535098 108.89979 
L 354.249338 109.23243 
L 354.963578 105.82287 
L 355.677818 106.48815 
L 357.106298 104.70021 
L 357.820538 104.53389 
L 358.534778 100.41747 
L 359.249018 101.83119 
L 359.963258 101.74803 
L 360.677498 101.04117 
L 361.391738 98.54637 
L 362.105978 98.42163 
L 362.820218 98.08899 
L 363.534458 94.63785 
L 364.248698 95.80209 
L 364.962938 94.88733 
L 365.677178 92.05989 
L 366.391418 91.56093 
L 367.105658 88.77507 
L 367.819898 88.44243 
L 368.534138 86.28027 
L 369.248378 86.69607 
L 369.962618 83.12019 
L 370.676858 84.32601 
L 371.391098 82.28859 
L 372.105338 82.62123 
L 372.819578 79.58589 
L 373.533818 80.83329 
L 374.248058 80.16801 
L 374.962298 78.71271 
L 375.676538 76.50897 
L 376.390778 76.88319 
L 377.105018 74.22207 
L 377.819258 73.63995 
L 378.533498 72.10149 
L 379.247738 71.06199 
L 379.961978 71.43621 
L 380.676218 69.81459 
L 381.390458 68.60877 
L 382.104698 68.15139 
L 382.818938 66.07239 
L 383.533178 64.78341 
L 384.247418 64.94973 
L 384.961658 62.70441 
L 385.675898 62.33019 
L 386.390138 61.20753 
L 387.104378 59.29485 
L 387.818618 59.17011 
L 388.532858 55.88529 
L 389.247098 58.46325 
L 389.961338 55.34475 
L 390.675578 54.72105 
L 391.389818 54.38841 
L 392.104058 52.35099 
L 392.818298 51.18675 
L 393.532538 51.31149 
L 394.246778 51.14517 
L 394.961018 48.44247 
L 395.675258 48.35931 
L 396.389498 47.11191 
L 397.103738 46.36347 
L 397.817978 45.40713 
L 398.532218 45.19923 
L 399.246458 45.78135 
L 399.960698 42.91233 
L 400.674938 41.99757 
L 401.389178 40.83333 
L 402.103418 41.49861 
L 402.817658 39.12855 
L 403.531898 39.08697 
L 404.246138 38.62959 
L 404.960378 39.08697 
L 405.674618 37.59009 
L 406.388858 36.42585 
L 407.103098 35.80215 
L 407.817338 36.25953 
L 408.531578 35.22003 
L 409.245818 34.67949 
L 409.960058 34.67949 
L 410.674298 33.97263 
L 411.388538 33.72315 
L 412.102778 32.47575 
L 412.817018 32.76681 
L 413.531258 32.05995 
L 414.245498 32.39259 
L 414.959738 31.68573 
L 416.388218 31.64415 
L 417.816698 31.47783 
L 418.530938 31.43625 
L 418.530938 31.43625 
" clip-path="url(#p37e3121db0)" style="fill: none; stroke: #1f77b4; stroke-opacity: 0.3; stroke-width: 1.5; stroke-linecap: square"/>
   </g>
   <g id="line2d_26">
    <path d="M 61.410938 297.54825 
L 62.839418 297.455994 
L 64.267898 297.216422 
L 66.410618 296.528565 
L 67.839098 295.877903 
L 69.981818 294.679717 
L 72.838778 292.626055 
L 74.267258 291.412439 
L 77.124218 288.762201 
L 79.266938 286.481148 
L 80.695418 284.949348 
L 82.123898 283.2803 
L 84.266618 280.651502 
L 85.695098 278.816785 
L 89.980538 273.059741 
L 90.694778 272.14287 
L 92.837498 268.973532 
L 94.265978 266.962424 
L 96.408698 263.760115 
L 98.551418 260.697 
L 99.979898 258.550271 
L 100.694138 257.398537 
L 102.122618 255.504536 
L 102.836858 254.111768 
L 106.408058 248.997266 
L 107.122298 247.713483 
L 108.550778 245.829714 
L 111.407738 241.365386 
L 112.121978 240.500977 
L 112.836218 239.160022 
L 115.693178 235.144466 
L 116.407418 234.033825 
L 117.121658 233.232436 
L 119.264378 229.98676 
L 119.978618 229.044388 
L 121.407098 226.974484 
L 127.121018 219.163778 
L 127.835258 218.56704 
L 128.549498 217.37259 
L 129.263738 216.446785 
L 129.977978 215.78183 
L 130.692218 214.565615 
L 131.406458 213.769585 
L 132.120698 212.740642 
L 132.834938 212.040604 
L 133.549178 210.948155 
L 134.263418 210.262734 
L 134.977658 209.302334 
L 137.834618 206.156385 
L 138.548858 205.285966 
L 139.263098 204.748999 
L 142.120058 201.125854 
L 142.834298 200.666363 
L 144.262778 198.954274 
L 144.977018 198.506964 
L 145.691258 197.622414 
L 146.405498 197.073104 
L 147.119738 196.04546 
L 147.833978 195.622189 
L 149.262458 194.047184 
L 149.976698 193.64925 
L 150.690938 192.728156 
L 151.405178 192.005054 
L 152.833658 191.007784 
L 154.262138 189.619726 
L 155.690618 188.487971 
L 156.404858 187.700062 
L 157.119098 187.444248 
L 157.833338 186.676317 
L 159.261818 185.587441 
L 160.690298 184.584323 
L 161.404538 183.787806 
L 162.118778 183.451106 
L 163.547258 182.480797 
L 164.261498 182.232779 
L 165.689978 180.955331 
L 166.404218 180.573477 
L 167.118458 179.865643 
L 167.832698 179.6428 
L 169.261178 178.734212 
L 170.689658 178.098006 
L 171.403898 177.365321 
L 172.118138 177.044212 
L 172.832378 176.555647 
L 173.546618 176.329394 
L 174.260858 175.795838 
L 174.975098 175.50494 
L 175.689338 175.452316 
L 176.403578 174.844533 
L 177.117818 174.489316 
L 177.832058 174.35142 
L 179.260538 173.538174 
L 181.403258 172.778852 
L 182.117498 172.257315 
L 183.545978 171.819101 
L 184.974458 171.304061 
L 186.402938 170.873805 
L 188.545658 169.979835 
L 189.259898 169.862404 
L 189.974138 169.472267 
L 190.688378 169.378225 
L 192.116858 168.937412 
L 193.545338 168.781162 
L 194.259578 168.367961 
L 195.688058 168.038244 
L 196.402298 167.989843 
L 197.116538 167.739226 
L 197.830778 167.662887 
L 198.545018 167.129007 
L 199.259258 167.175947 
L 199.973498 167.093761 
L 200.687738 166.787758 
L 202.116218 166.800102 
L 203.544698 166.672439 
L 204.258938 166.200766 
L 204.973178 166.456905 
L 206.401658 166.025512 
L 207.115898 165.830444 
L 207.830138 165.959407 
L 208.544378 165.847985 
L 209.258618 165.605814 
L 209.972858 165.554002 
L 210.687098 165.65714 
L 211.401338 165.373064 
L 212.115578 165.291366 
L 212.829818 165.328723 
L 214.972538 164.960837 
L 215.686778 165.149734 
L 216.401018 165.161915 
L 217.115258 164.947031 
L 217.829498 164.978054 
L 218.543738 164.878652 
L 219.257978 164.623487 
L 220.686458 164.987962 
L 221.400698 164.6472 
L 222.114938 164.756835 
L 223.543418 164.603347 
L 224.257658 164.720453 
L 224.971898 164.590353 
L 226.400378 164.685045 
L 227.114618 164.390249 
L 227.828858 164.686182 
L 228.543098 164.525222 
L 229.257338 164.515476 
L 229.971578 164.346882 
L 231.400058 164.643302 
L 232.114298 164.430692 
L 234.257018 164.578983 
L 234.971258 164.293608 
L 235.685498 164.669452 
L 236.399738 164.457004 
L 239.970938 164.61634 
L 241.399418 164.54455 
L 242.113658 164.199566 
L 242.827898 164.418348 
L 244.256378 164.387488 
L 244.970618 164.393335 
L 245.684858 164.531719 
L 247.113338 164.431991 
L 247.827578 164.27428 
L 249.256058 164.599124 
L 250.684538 164.302866 
L 251.398778 164.416561 
L 252.827258 164.448071 
L 253.541498 164.258687 
L 255.684218 164.433941 
L 256.398458 164.489164 
L 257.112698 164.096753 
L 257.826938 164.070603 
L 258.541178 164.4151 
L 259.255418 164.117055 
L 262.826617 164.033571 
L 264.255098 163.769797 
L 264.969337 163.886254 
L 265.683578 163.848247 
L 266.397818 163.489132 
L 267.112058 163.758428 
L 267.826298 163.831031 
L 269.254778 163.361794 
L 270.683258 163.469479 
L 272.111738 163.119623 
L 274.968698 162.639341 
L 276.397178 162.530681 
L 277.111418 162.267395 
L 279.968378 161.927771 
L 281.396858 161.584086 
L 282.111098 161.5032 
L 282.825338 161.121834 
L 283.539578 161.139862 
L 284.253818 160.999043 
L 285.682298 160.499758 
L 287.110778 160.269119 
L 287.825018 159.908542 
L 290.681978 159.250409 
L 291.396218 159.03049 
L 292.824698 158.263046 
L 293.538938 158.142204 
L 294.253178 158.243231 
L 294.967418 157.744433 
L 295.681658 157.458571 
L 296.395898 157.296311 
L 297.110138 156.861345 
L 297.824378 156.626321 
L 298.538618 156.211983 
L 299.252858 156.095689 
L 299.967098 155.611672 
L 302.824058 154.472445 
L 303.538298 153.988427 
L 304.252538 153.767858 
L 305.681018 152.856997 
L 307.109498 152.166054 
L 307.823738 151.630874 
L 308.537978 151.567692 
L 312.109178 149.099366 
L 312.823418 148.906247 
L 313.537658 148.556553 
L 315.680378 146.859406 
L 317.108858 146.055093 
L 317.823098 145.406218 
L 318.537338 145.243634 
L 319.251577 144.303373 
L 319.965818 143.993635 
L 320.680058 143.520662 
L 322.108538 142.151608 
L 322.822778 141.67961 
L 324.251258 140.519106 
L 327.108218 138.174871 
L 328.536698 136.670032 
L 329.250938 136.247086 
L 330.679418 134.77392 
L 332.107898 133.621536 
L 332.822138 132.71912 
L 337.821818 127.782957 
L 338.536058 126.69603 
L 339.250298 126.122843 
L 343.535738 121.215266 
L 344.249978 120.233101 
L 344.964218 119.842964 
L 346.392698 117.792388 
L 347.106938 117.072534 
L 348.535418 115.221412 
L 349.963898 113.548304 
L 350.678138 112.471772 
L 352.106618 110.693252 
L 359.963258 100.05267 
L 364.962938 92.725332 
L 365.677178 91.957727 
L 367.105658 89.557781 
L 368.534138 87.73557 
L 371.391098 83.273679 
L 373.533818 80.198383 
L 374.248058 79.011891 
L 374.962298 78.151867 
L 376.390778 75.828422 
L 377.819258 73.660253 
L 378.533498 72.473761 
L 379.961978 70.598925 
L 380.676218 69.283633 
L 392.104058 52.978913 
L 392.818298 52.152348 
L 394.961018 49.203254 
L 395.675258 48.444094 
L 397.817978 45.714432 
L 399.960698 43.276805 
L 404.246138 38.836191 
L 408.531578 35.274766 
L 410.674298 33.870467 
L 412.102778 33.080447 
L 414.959738 31.975978 
L 417.102458 31.526069 
L 418.530938 31.43625 
L 418.530938 31.43625 
" clip-path="url(#p37e3121db0)" style="fill: none; stroke: #2ca02c; stroke-width: 1.5; stroke-linecap: square"/>
   </g>
   <g id="line2d_27">
    <path d="M 61.410938 297.54825 
L 63.553658 297.38193 
L 64.267898 297.21561 
L 64.982138 296.92455 
L 65.696378 296.92455 
L 66.410618 296.30085 
L 67.124858 296.09295 
L 67.839098 296.00979 
L 68.553338 295.59399 
L 69.267578 295.51083 
L 70.696058 293.80605 
L 71.410298 293.80605 
L 72.124538 293.68131 
L 72.838778 292.39233 
L 73.553018 291.97653 
L 74.267258 291.39441 
L 74.981498 289.77279 
L 76.409978 288.73329 
L 77.124218 289.52331 
L 77.838458 288.27591 
L 79.266938 286.32165 
L 80.695418 285.15741 
L 81.409658 283.57737 
L 82.123898 282.37155 
L 82.838138 283.41105 
L 83.552378 281.74785 
L 84.266618 280.66677 
L 84.980858 280.33413 
L 85.695098 279.66885 
L 86.409338 278.17197 
L 87.123578 275.92665 
L 87.837818 275.26137 
L 88.552058 276.09297 
L 89.980538 271.93497 
L 90.694778 270.93705 
L 91.409018 270.72915 
L 92.123258 268.65015 
L 92.837498 269.93913 
L 93.551738 268.44225 
L 94.265978 264.94953 
L 94.980218 267.07011 
L 95.694458 265.36533 
L 96.408698 262.82895 
L 97.122938 263.57739 
L 97.837178 261.58155 
L 98.551418 263.49423 
L 99.265658 260.45889 
L 99.979898 258.58779 
L 100.694138 257.29881 
L 102.122618 256.21773 
L 102.836858 251.97657 
L 103.551098 254.72085 
L 104.265338 253.18239 
L 104.979578 251.22813 
L 105.693818 250.31337 
L 106.408058 248.19279 
L 107.122298 247.61067 
L 107.836538 244.20111 
L 108.550778 243.99321 
L 109.265018 244.57533 
L 109.979258 242.49633 
L 110.693498 244.65849 
L 111.407738 239.83521 
L 112.121978 241.24893 
L 112.836218 240.87471 
L 113.550458 238.58781 
L 114.264698 238.62939 
L 114.978938 235.80195 
L 115.693178 238.00569 
L 116.407418 234.05559 
L 117.121658 234.09717 
L 117.835898 231.35289 
L 119.264378 228.44229 
L 119.978618 228.56703 
L 120.692858 227.90175 
L 121.407098 228.81651 
L 122.121338 224.94957 
L 122.835578 225.65643 
L 123.549818 223.16163 
L 124.264058 225.73959 
L 124.978298 221.24895 
L 125.692538 219.71049 
L 126.406778 222.87057 
L 127.121018 218.71257 
L 127.835258 218.58783 
L 128.549498 217.04937 
L 129.263738 214.80405 
L 129.977978 214.72089 
L 130.692218 215.05353 
L 131.406458 214.13877 
L 132.120698 215.92671 
L 132.834938 213.18243 
L 133.549178 212.55873 
L 134.263418 209.56497 
L 134.977658 208.10967 
L 135.691898 207.19491 
L 136.406138 206.90385 
L 137.120378 206.07225 
L 137.834618 205.90593 
L 138.548858 206.40489 
L 139.263098 202.82901 
L 139.977338 201.70635 
L 140.691578 203.57745 
L 141.405818 204.74169 
L 142.120058 203.53587 
L 142.834298 202.08057 
L 143.548538 196.79991 
L 144.262778 199.62735 
L 144.977018 197.13255 
L 145.691258 196.38411 
L 146.405498 197.21571 
L 147.119738 197.67309 
L 147.833978 195.71883 
L 148.548218 195.96831 
L 149.262458 191.60241 
L 149.976698 194.72091 
L 150.690938 191.72715 
L 151.405178 193.18245 
L 152.119418 192.30927 
L 152.833658 190.47975 
L 153.547898 191.14503 
L 154.262138 190.35501 
L 154.976378 189.14919 
L 155.690618 186.65439 
L 156.404858 188.52549 
L 157.119098 185.78121 
L 157.833338 185.40699 
L 158.547578 187.36125 
L 159.261818 185.57331 
L 159.976058 187.23651 
L 160.690298 186.28017 
L 161.404538 182.53797 
L 162.118778 186.11385 
L 162.833018 182.41323 
L 163.547258 179.58579 
L 164.261498 183.16167 
L 164.975738 180.75003 
L 165.689978 177.00783 
L 166.404218 182.41323 
L 167.118458 180.87477 
L 167.832698 180.54213 
L 169.261178 178.29681 
L 169.975418 178.17207 
L 170.689658 178.50471 
L 171.403898 179.96001 
L 172.118138 180.50055 
L 173.546618 174.18039 
L 174.260858 177.63153 
L 174.975098 174.18039 
L 175.689338 175.63569 
L 176.403578 175.59411 
L 177.117818 172.51719 
L 177.832058 170.18871 
L 178.546298 175.51095 
L 179.260538 174.63777 
L 179.974778 170.72925 
L 181.403258 170.72925 
L 182.117498 172.84983 
L 182.831738 173.59827 
L 183.545978 173.59827 
L 184.260218 171.06189 
L 184.974458 170.85399 
L 185.688698 171.26979 
L 186.402938 173.09931 
L 187.117178 172.84983 
L 187.831418 169.52343 
L 188.545658 170.14713 
L 189.259898 169.39869 
L 189.974138 169.68975 
L 190.688378 168.52551 
L 191.402618 168.98289 
L 192.831098 169.52343 
L 193.545338 168.27603 
L 194.259578 167.48601 
L 194.973818 167.69391 
L 196.402298 167.11179 
L 197.116538 168.23445 
L 197.830778 166.90389 
L 198.545018 168.98289 
L 199.259258 167.90181 
L 199.973498 168.44235 
L 200.687738 166.57125 
L 201.401978 164.32593 
L 202.116218 165.98913 
L 202.830458 168.23445 
L 203.544698 167.77707 
L 204.258938 168.02655 
L 204.973178 166.52967 
L 205.687418 163.95171 
L 206.401658 168.60867 
L 207.115898 166.15545 
L 207.830138 164.53383 
L 208.544378 167.15337 
L 209.258618 166.48809 
L 209.972858 164.03487 
L 210.687098 163.78539 
L 211.401338 166.23861 
L 212.115578 169.35711 
L 212.829818 163.03695 
L 213.544058 165.03279 
L 214.972538 168.02655 
L 215.686778 165.40701 
L 216.401018 165.11595 
L 217.115258 165.86439 
L 217.829498 165.61491 
L 219.257978 168.60867 
L 219.972218 165.73965 
L 220.686458 164.94963 
L 221.400698 166.65441 
L 222.114938 163.07853 
L 222.829178 168.35919 
L 223.543418 164.03487 
L 224.257658 166.57125 
L 224.971898 165.94755 
L 225.686138 165.82281 
L 226.400378 162.24693 
L 227.114618 165.44859 
L 227.828858 165.11595 
L 228.543098 164.03487 
L 229.257338 166.98705 
L 229.971578 164.65857 
L 230.685818 164.99121 
L 231.400058 164.99121 
L 232.114298 163.53591 
L 232.828538 164.20119 
L 233.542778 162.78747 
L 234.257018 162.82905 
L 234.971258 163.61907 
L 235.685498 165.11595 
L 236.399738 165.24069 
L 237.113978 166.44651 
L 237.828218 161.45691 
L 238.542458 164.74173 
L 239.256698 167.27811 
L 239.970938 161.37375 
L 240.685178 163.24485 
L 241.399418 161.74797 
L 242.113658 165.94755 
L 242.827898 165.19911 
L 244.256378 165.28227 
L 244.970618 165.98913 
L 245.684858 166.07229 
L 246.399098 162.62115 
L 247.113338 163.45275 
L 247.827578 166.90389 
L 248.541818 161.70639 
L 249.256058 165.61491 
L 250.684538 163.32801 
L 251.398778 161.70639 
L 252.113018 164.07645 
L 252.827258 163.20327 
L 253.541498 165.69807 
L 254.255738 164.15961 
L 254.969978 165.19911 
L 255.684218 163.12011 
L 256.398458 163.91013 
L 257.112698 164.28435 
L 257.826938 163.53591 
L 258.541178 162.28851 
L 259.255418 166.44651 
L 259.969658 161.04111 
L 260.683898 167.36127 
L 261.398138 161.95587 
L 262.112378 163.57749 
L 262.826617 164.03487 
L 263.540858 164.24277 
L 264.255098 164.86647 
L 265.683578 163.32801 
L 266.397818 167.94339 
L 267.112058 165.19911 
L 268.540538 163.03695 
L 269.254778 165.90597 
L 269.969018 162.62115 
L 270.683258 164.15961 
L 271.397498 164.28435 
L 272.111738 163.32801 
L 272.825978 163.78539 
L 273.540218 163.28643 
L 274.254458 163.57749 
L 274.968698 162.95379 
L 275.682938 162.99537 
L 276.397178 160.99953 
L 277.111418 164.82489 
L 277.825658 163.70223 
L 278.539898 163.70223 
L 279.254138 161.49849 
L 279.968378 161.54007 
L 280.682618 160.41741 
L 281.396858 160.83321 
L 282.111098 163.36959 
L 282.825338 162.87063 
L 283.539578 162.12219 
L 284.253818 159.04527 
L 284.968058 159.37791 
L 285.682298 163.03695 
L 286.396538 157.29891 
L 287.110778 160.45899 
L 287.825018 160.79163 
L 288.539258 160.79163 
L 289.253498 157.88103 
L 289.967738 160.25109 
L 290.681978 160.08477 
L 291.396218 157.75629 
L 292.110458 155.96835 
L 292.824698 156.17625 
L 293.538938 154.63779 
L 294.253178 157.25733 
L 294.967418 157.21575 
L 295.681658 159.21159 
L 296.395898 159.04527 
L 297.110138 154.42989 
L 297.824378 158.17209 
L 298.538618 159.25317 
L 299.252858 155.84361 
L 299.967098 156.30099 
L 300.681338 153.47355 
L 302.109818 156.00993 
L 302.824058 152.51721 
L 303.538298 154.55463 
L 304.966778 152.39247 
L 305.681018 153.76461 
L 306.395258 155.38623 
L 307.109498 151.22823 
L 307.823738 152.22615 
L 308.537978 148.73343 
L 309.252218 147.23655 
L 309.966458 150.97875 
L 310.680698 148.98291 
L 311.394938 150.18873 
L 312.109178 149.27397 
L 312.823418 150.43821 
L 313.537658 146.03073 
L 314.251898 145.32387 
L 314.966138 146.52969 
L 315.680378 149.85609 
L 316.394618 147.65235 
L 317.108858 146.98707 
L 317.823098 145.49019 
L 318.537338 144.65859 
L 319.251577 142.37169 
L 319.965818 143.49435 
L 320.680058 139.00371 
L 321.394298 141.20745 
L 322.108538 145.44861 
L 322.822778 140.04321 
L 324.251258 141.95589 
L 324.965498 142.53801 
L 325.679738 139.66899 
L 326.393978 137.83947 
L 327.108218 139.00371 
L 327.822458 136.96629 
L 328.536698 135.55257 
L 329.250938 134.84571 
L 329.965178 135.34467 
L 330.679418 133.55673 
L 331.393658 138.08895 
L 332.107898 133.88937 
L 332.822138 133.01619 
L 333.536378 133.09935 
L 334.250618 133.63989 
L 334.964858 126.32181 
L 335.679098 131.35299 
L 336.393338 130.02243 
L 337.107578 126.77919 
L 337.821818 126.73761 
L 338.536058 125.57337 
L 339.250298 126.11391 
L 339.964538 124.11807 
L 340.678778 124.82493 
L 341.393018 125.98917 
L 342.821498 119.54427 
L 343.535738 122.66277 
L 344.249978 120.83325 
L 344.964218 121.49853 
L 345.678458 118.67109 
L 346.392698 114.97047 
L 347.106938 118.25529 
L 347.821178 116.13471 
L 348.535418 116.17629 
L 349.249658 113.43201 
L 349.963898 113.14095 
L 350.678138 110.77089 
L 351.392378 110.60457 
L 352.106618 109.85613 
L 352.820858 112.01829 
L 354.249338 103.61913 
L 354.963578 105.82287 
L 355.677818 105.82287 
L 356.392058 106.73763 
L 357.106298 102.41331 
L 357.820538 103.95177 
L 358.534778 102.82911 
L 359.249018 99.21165 
L 359.963258 100.29273 
L 360.677498 98.96217 
L 361.391738 97.34055 
L 362.105978 96.42579 
L 362.820218 97.54845 
L 363.534458 92.80833 
L 364.248698 92.64201 
L 364.962938 93.34887 
L 365.677178 91.76883 
L 366.391418 91.39461 
L 367.105658 89.19087 
L 367.819898 88.31769 
L 368.534138 83.03703 
L 369.248378 86.90397 
L 369.962618 86.86239 
L 370.676858 83.66073 
L 371.391098 81.87279 
L 372.105338 82.99545 
L 372.819578 80.54223 
L 373.533818 79.66905 
L 374.248058 80.87487 
L 374.962298 78.54639 
L 375.676538 74.97051 
L 376.390778 76.30107 
L 377.105018 75.09525 
L 377.819258 75.05367 
L 378.533498 72.51729 
L 379.247738 72.97467 
L 379.961978 69.23247 
L 380.676218 69.98091 
L 381.390458 67.77717 
L 382.104698 67.98507 
L 382.818938 65.73975 
L 383.533178 64.94973 
L 384.247418 66.19713 
L 384.961658 62.37177 
L 385.675898 63.07863 
L 386.390138 61.62333 
L 387.818618 60.62541 
L 388.532858 56.92479 
L 389.247098 56.67531 
L 389.961338 57.42375 
L 390.675578 54.55473 
L 391.389818 54.30525 
L 392.104058 53.55681 
L 392.818298 51.97677 
L 393.532538 50.10567 
L 394.246778 50.10567 
L 394.961018 48.48405 
L 395.675258 49.14933 
L 396.389498 48.31773 
L 397.103738 45.82293 
L 397.817978 45.57345 
L 398.532218 44.61711 
L 399.246458 44.53395 
L 399.960698 43.20339 
L 400.674938 43.03707 
L 401.389178 40.20963 
L 402.103418 40.41753 
L 402.817658 39.66909 
L 403.531898 39.21171 
L 404.246138 38.38011 
L 404.960378 38.29695 
L 406.388858 36.50901 
L 407.103098 37.04955 
L 407.817338 35.55267 
L 408.531578 34.84581 
L 409.245818 35.26161 
L 409.960058 34.13895 
L 410.674298 34.18053 
L 412.817018 33.18261 
L 413.531258 32.30943 
L 414.245498 32.14311 
L 414.959738 31.76889 
L 415.673978 31.81047 
L 417.102458 31.51941 
L 418.530938 31.43625 
L 418.530938 31.43625 
" clip-path="url(#p37e3121db0)" style="fill: none; stroke: #ff7f0e; stroke-opacity: 0.3; stroke-width: 1.5; stroke-linecap: square"/>
   </g>
   <g id="line2d_28">
    <path d="M 61.410938 297.54825 
L 62.839418 297.459568 
L 64.267898 297.204728 
L 65.696378 296.777071 
L 67.124858 296.218665 
L 69.267578 295.131737 
L 72.124538 293.163347 
L 74.981498 290.774283 
L 76.409978 289.473446 
L 77.124218 288.685376 
L 77.838458 288.090099 
L 79.981178 285.660268 
L 80.695418 284.982644 
L 81.409658 284.016884 
L 82.123898 283.284686 
L 87.123578 276.910277 
L 88.552058 274.968523 
L 89.980538 272.997047 
L 93.551738 268.072091 
L 94.980218 265.916752 
L 96.408698 263.750532 
L 97.122938 262.636642 
L 97.837178 261.747383 
L 100.694138 257.412993 
L 102.122618 255.46328 
L 104.265338 251.988427 
L 104.979578 251.089584 
L 109.265018 244.618859 
L 109.979258 243.700363 
L 110.693498 242.404886 
L 111.407738 241.53528 
L 112.836218 239.280702 
L 113.550458 238.293177 
L 114.264698 237.040742 
L 116.407418 234.076705 
L 117.835898 231.99137 
L 122.121338 225.895515 
L 122.835578 225.133594 
L 123.549818 223.96237 
L 126.406778 220.185249 
L 128.549498 217.417256 
L 130.692218 214.68402 
L 132.120698 212.943507 
L 135.691898 208.425418 
L 136.406138 207.780441 
L 137.834618 206.00046 
L 138.548858 205.357756 
L 139.263098 204.252638 
L 139.977338 203.705438 
L 143.548538 199.822906 
L 150.690938 192.72442 
L 151.405178 192.362057 
L 152.119418 191.547349 
L 152.833658 191.158024 
L 154.262138 189.536404 
L 154.976378 189.129537 
L 157.119098 187.093254 
L 158.547578 186.201883 
L 159.261818 185.409914 
L 160.690298 184.465918 
L 162.833018 182.87126 
L 163.547258 182.557461 
L 167.118458 179.965045 
L 167.832698 179.867754 
L 168.546938 179.21157 
L 169.261178 178.963552 
L 171.403898 177.513449 
L 172.832378 176.617693 
L 173.546618 176.45787 
L 174.260858 176.083325 
L 175.689338 175.048048 
L 176.403578 175.006955 
L 177.832058 174.051752 
L 178.546298 174.027064 
L 179.260538 173.748348 
L 179.974778 172.948095 
L 180.689018 173.174349 
L 182.117498 172.355418 
L 183.545978 171.593172 
L 184.260218 171.520894 
L 184.974458 171.145862 
L 186.402938 170.888261 
L 187.831418 170.016705 
L 188.545658 170.093206 
L 190.688378 169.305947 
L 191.402618 169.26453 
L 192.116858 168.859612 
L 192.831098 168.825828 
L 196.402298 167.938355 
L 197.116538 167.816863 
L 197.830778 167.39343 
L 198.545018 167.434685 
L 199.973498 167.04406 
L 202.116218 166.631671 
L 203.544698 166.469087 
L 204.258938 166.285387 
L 204.973178 166.476883 
L 205.687418 166.009108 
L 206.401658 166.120529 
L 207.115898 165.83223 
L 209.972858 165.516157 
L 210.687098 165.620595 
L 211.401338 165.262942 
L 212.115578 165.376637 
L 212.829818 165.269764 
L 213.544058 165.392067 
L 214.258298 165.060402 
L 215.686778 165.069172 
L 216.401018 165.104256 
L 218.543738 164.819205 
L 219.257978 164.942971 
L 219.972218 164.951904 
L 220.686458 164.60627 
L 221.400698 164.81953 
L 222.829178 164.553483 
L 223.543418 164.571999 
L 224.257658 164.816119 
L 224.971898 164.488839 
L 225.686138 164.656134 
L 226.400378 164.498097 
L 227.114618 164.523273 
L 228.543098 164.333726 
L 229.971578 164.382453 
L 230.685818 164.593764 
L 232.114298 164.384727 
L 232.828538 164.417374 
L 233.542778 164.575085 
L 235.685498 164.509629 
L 236.399738 164.309038 
L 238.542458 164.613904 
L 239.256698 164.444336 
L 239.970938 164.442711 
L 240.685178 164.650449 
L 241.399418 164.537403 
L 242.827898 164.625923 
L 243.542138 164.469836 
L 244.970618 164.477957 
L 245.684858 164.319596 
L 247.827578 164.506218 
L 248.541818 164.569725 
L 250.684538 164.350456 
L 251.398778 164.529932 
L 252.113018 164.405679 
L 252.827258 164.416399 
L 253.541498 164.163346 
L 254.255738 164.540489 
L 254.969978 164.310013 
L 256.398458 164.380016 
L 257.112698 164.396421 
L 257.826938 164.208824 
L 258.541178 164.552021 
L 260.683898 164.074176 
L 262.112378 164.132323 
L 262.826617 163.975261 
L 263.540858 164.050462 
L 264.255098 163.893563 
L 264.969337 163.887229 
L 265.683578 163.672182 
L 268.540538 163.653179 
L 269.969018 163.363743 
L 270.683258 163.416855 
L 271.397498 163.131155 
L 276.397178 162.514276 
L 277.111418 162.268532 
L 278.539898 162.166206 
L 279.968378 161.967727 
L 280.682618 161.570768 
L 281.396858 161.657014 
L 282.111098 161.331358 
L 282.825338 161.314466 
L 284.253818 160.889895 
L 285.682298 160.632944 
L 291.396218 158.880899 
L 293.538938 158.108258 
L 294.253178 158.196778 
L 294.967418 157.674592 
L 295.681658 157.55846 
L 296.395898 157.161826 
L 297.110138 157.020194 
L 298.538618 156.386911 
L 299.967098 155.706201 
L 300.681338 155.58812 
L 301.395578 154.994306 
L 302.109818 154.564863 
L 302.824058 154.492747 
L 304.252538 153.6821 
L 304.966778 153.443015 
L 305.681018 152.917255 
L 308.537978 151.530497 
L 309.252218 150.854497 
L 309.966458 150.579192 
L 310.680698 150.131233 
L 311.394938 149.837736 
L 313.537658 148.33371 
L 314.251898 148.06815 
L 315.680378 146.933471 
L 316.394618 146.691949 
L 317.108858 145.920608 
L 317.823098 145.491814 
L 318.537338 145.277905 
L 319.251577 144.384097 
L 320.680058 143.435228 
L 321.394298 142.993603 
L 322.108538 142.036126 
L 322.822778 141.66548 
L 324.965498 139.883387 
L 325.679738 139.697901 
L 326.393978 138.558512 
L 330.679418 134.75784 
L 332.107898 133.433777 
L 333.536378 131.954925 
L 335.679098 130.001315 
L 337.107578 128.517916 
L 338.536058 126.95493 
L 339.250298 126.094095 
L 339.964538 125.429139 
L 342.107258 122.920209 
L 345.678458 118.767731 
L 346.392698 117.697858 
L 348.535418 115.302785 
L 349.963898 113.393678 
L 351.392378 111.642283 
L 353.535098 108.794053 
L 354.249338 107.737986 
L 355.677818 105.980419 
L 357.106298 103.852043 
L 357.820538 103.018981 
L 359.249018 100.960121 
L 360.677498 99.231303 
L 361.391738 98.002094 
L 362.105978 97.050952 
L 362.820218 95.80745 
L 364.248698 93.877878 
L 366.391418 90.81184 
L 371.391098 83.321431 
L 374.248058 79.054446 
L 375.676538 76.90463 
L 377.105018 74.824168 
L 377.819258 73.593497 
L 379.247738 71.470156 
L 382.104698 67.301436 
L 383.533178 65.200672 
L 389.961338 55.926545 
L 393.532538 50.992981 
L 394.246778 50.209458 
L 395.675258 48.334135 
L 402.103418 40.934032 
L 406.388858 36.904832 
L 408.531578 35.28711 
L 410.674298 33.862021 
L 413.531258 32.439043 
L 415.673978 31.777336 
L 417.102458 31.533541 
L 418.530938 31.43625 
L 418.530938 31.43625 
" clip-path="url(#p37e3121db0)" style="fill: none; stroke: #d62728; stroke-width: 1.5; stroke-linecap: square"/>
   </g>
   <g id="line2d_29">
    <path d="M 61.410938 297.54825 
L 418.530938 31.43625 
L 418.530938 31.43625 
" clip-path="url(#p37e3121db0)" style="fill: none; stroke-dasharray: 5.55,2.4; stroke-dashoffset: 0; stroke: #1f77b4; stroke-width: 1.5"/>
   </g>
   <g id="patch_3">
    <path d="M 61.410938 297.54825 
L 61.410938 31.43625 
" style="fill: none; stroke: #000000; stroke-width: 0.8; stroke-linejoin: miter; stroke-linecap: square"/>
   </g>
   <g id="patch_4">
    <path d="M 418.530938 297.54825 
L 418.530938 31.43625 
" style="fill: none; stroke: #000000; stroke-width: 0.8; stroke-linejoin: miter; stroke-linecap: square"/>
   </g>
   <g id="patch_5">
    <path d="M 61.410938 297.54825 
L 418.530938 297.54825 
" style="fill: none; stroke: #000000; stroke-width: 0.8; stroke-linejoin: miter; stroke-linecap: square"/>
   </g>
   <g id="patch_6">
    <path d="M 61.410938 31.43625 
L 418.530938 31.43625 
" style="fill: none; stroke: #000000; stroke-width: 0.8; stroke-linejoin: miter; stroke-linecap: square"/>
   </g>
   <g id="text_15">
    <!-- Steane code [[7, 1, 3]] -->
    <g transform="translate(104.464688 25.43625) scale(0.24 -0.24)">
     <defs>
      <path id="DejaVuSans-53" d="M 3425 4513 
L 3425 3897 
Q 3066 4069 2747 4153 
Q 2428 4238 2131 4238 
Q 1616 4238 1336 4038 
Q 1056 3838 1056 3469 
Q 1056 3159 1242 3001 
Q 1428 2844 1947 2747 
L 2328 2669 
Q 3034 2534 3370 2195 
Q 3706 1856 3706 1288 
Q 3706 609 3251 259 
Q 2797 -91 1919 -91 
Q 1588 -91 1214 -16 
Q 841 59 441 206 
L 441 856 
Q 825 641 1194 531 
Q 1563 422 1919 422 
Q 2459 422 2753 634 
Q 3047 847 3047 1241 
Q 3047 1584 2836 1778 
Q 2625 1972 2144 2069 
L 1759 2144 
Q 1053 2284 737 2584 
Q 422 2884 422 3419 
Q 422 4038 858 4394 
Q 1294 4750 2059 4750 
Q 2388 4750 2728 4690 
Q 3069 4631 3425 4513 
z
" transform="scale(0.015625)"/>
      <path id="DejaVuSans-74" d="M 1172 4494 
L 1172 3500 
L 2356 3500 
L 2356 3053 
L 1172 3053 
L 1172 1153 
Q 1172 725 1289 603 
Q 1406 481 1766 481 
L 2356 481 
L 2356 0 
L 1766 0 
Q 1100 0 847 248 
Q 594 497 594 1153 
L 594 3053 
L 172 3053 
L 172 3500 
L 594 3500 
L 594 4494 
L 1172 4494 
z
" transform="scale(0.015625)"/>
      <path id="DejaVuSans-65" d="M 3597 1894 
L 3597 1613 
L 953 1613 
Q 991 1019 1311 708 
Q 1631 397 2203 397 
Q 2534 397 2845 478 
Q 3156 559 3463 722 
L 3463 178 
Q 3153 47 2828 -22 
Q 2503 -91 2169 -91 
Q 1331 -91 842 396 
Q 353 884 353 1716 
Q 353 2575 817 3079 
Q 1281 3584 2069 3584 
Q 2775 3584 3186 3129 
Q 3597 2675 3597 1894 
z
M 3022 2063 
Q 3016 2534 2758 2815 
Q 2500 3097 2075 3097 
Q 1594 3097 1305 2825 
Q 1016 2553 972 2059 
L 3022 2063 
z
" transform="scale(0.015625)"/>
      <path id="DejaVuSans-6e" d="M 3513 2113 
L 3513 0 
L 2938 0 
L 2938 2094 
Q 2938 2591 2744 2837 
Q 2550 3084 2163 3084 
Q 1697 3084 1428 2787 
Q 1159 2491 1159 1978 
L 1159 0 
L 581 0 
L 581 3500 
L 1159 3500 
L 1159 2956 
Q 1366 3272 1645 3428 
Q 1925 3584 2291 3584 
Q 2894 3584 3203 3211 
Q 3513 2838 3513 2113 
z
" transform="scale(0.015625)"/>
      <path id="DejaVuSans-64" d="M 2906 2969 
L 2906 4863 
L 3481 4863 
L 3481 0 
L 2906 0 
L 2906 525 
Q 2725 213 2448 61 
Q 2172 -91 1784 -91 
Q 1150 -91 751 415 
Q 353 922 353 1747 
Q 353 2572 751 3078 
Q 1150 3584 1784 3584 
Q 2172 3584 2448 3432 
Q 2725 3281 2906 2969 
z
M 947 1747 
Q 947 1113 1208 752 
Q 1469 391 1925 391 
Q 2381 391 2643 752 
Q 2906 1113 2906 1747 
Q 2906 2381 2643 2742 
Q 2381 3103 1925 3103 
Q 1469 3103 1208 2742 
Q 947 2381 947 1747 
z
" transform="scale(0.015625)"/>
      <path id="DejaVuSans-5b" d="M 550 4863 
L 1875 4863 
L 1875 4416 
L 1125 4416 
L 1125 -397 
L 1875 -397 
L 1875 -844 
L 550 -844 
L 550 4863 
z
" transform="scale(0.015625)"/>
      <path id="DejaVuSans-37" d="M 525 4666 
L 3525 4666 
L 3525 4397 
L 1831 0 
L 1172 0 
L 2766 4134 
L 525 4134 
L 525 4666 
z
" transform="scale(0.015625)"/>
      <path id="DejaVuSans-2c" d="M 750 794 
L 1409 794 
L 1409 256 
L 897 -744 
L 494 -744 
L 750 256 
L 750 794 
z
" transform="scale(0.015625)"/>
      <path id="DejaVuSans-33" d="M 2597 2516 
Q 3050 2419 3304 2112 
Q 3559 1806 3559 1356 
Q 3559 666 3084 287 
Q 2609 -91 1734 -91 
Q 1441 -91 1130 -33 
Q 819 25 488 141 
L 488 750 
Q 750 597 1062 519 
Q 1375 441 1716 441 
Q 2309 441 2620 675 
Q 2931 909 2931 1356 
Q 2931 1769 2642 2001 
Q 2353 2234 1838 2234 
L 1294 2234 
L 1294 2753 
L 1863 2753 
Q 2328 2753 2575 2939 
Q 2822 3125 2822 3475 
Q 2822 3834 2567 4026 
Q 2313 4219 1838 4219 
Q 1578 4219 1281 4162 
Q 984 4106 628 3988 
L 628 4550 
Q 988 4650 1302 4700 
Q 1616 4750 1894 4750 
Q 2613 4750 3031 4423 
Q 3450 4097 3450 3541 
Q 3450 3153 3228 2886 
Q 3006 2619 2597 2516 
z
" transform="scale(0.015625)"/>
      <path id="DejaVuSans-5d" d="M 1947 4863 
L 1947 -844 
L 622 -844 
L 622 -397 
L 1369 -397 
L 1369 4416 
L 622 4416 
L 622 4863 
L 1947 4863 
z
" transform="scale(0.015625)"/>
     </defs>
     <use xlink:href="#DejaVuSans-53"/>
     <use xlink:href="#DejaVuSans-74" x="63.476562"/>
     <use xlink:href="#DejaVuSans-65" x="102.685547"/>
     <use xlink:href="#DejaVuSans-61" x="164.208984"/>
     <use xlink:href="#DejaVuSans-6e" x="225.488281"/>
     <use xlink:href="#DejaVuSans-65" x="288.867188"/>
     <use xlink:href="#DejaVuSans-20" x="350.390625"/>
     <use xlink:href="#DejaVuSans-63" x="382.177734"/>
     <use xlink:href="#DejaVuSans-6f" x="437.158203"/>
     <use xlink:href="#DejaVuSans-64" x="498.339844"/>
     <use xlink:href="#DejaVuSans-65" x="561.816406"/>
     <use xlink:href="#DejaVuSans-20" x="623.339844"/>
     <use xlink:href="#DejaVuSans-5b" x="655.126953"/>
     <use xlink:href="#DejaVuSans-5b" x="694.140625"/>
     <use xlink:href="#DejaVuSans-37" x="733.154297"/>
     <use xlink:href="#DejaVuSans-2c" x="796.777344"/>
     <use xlink:href="#DejaVuSans-20" x="828.564453"/>
     <use xlink:href="#DejaVuSans-31" x="860.351562"/>
     <use xlink:href="#DejaVuSans-2c" x="923.974609"/>
     <use xlink:href="#DejaVuSans-20" x="955.761719"/>
     <use xlink:href="#DejaVuSans-33" x="987.548828"/>
     <use xlink:href="#DejaVuSans-5d" x="1051.171875"/>
     <use xlink:href="#DejaVuSans-5d" x="1090.185547"/>
    </g>
   </g>
   <g id="legend_1">
    <g id="patch_7">
     <path d="M 70.510938 79.999375 
L 283.440781 79.999375 
Q 286.040781 79.999375 286.040781 77.399375 
L 286.040781 40.53625 
Q 286.040781 37.93625 283.440781 37.93625 
L 70.510938 37.93625 
Q 67.910938 37.93625 67.910938 40.53625 
L 67.910938 77.399375 
Q 67.910938 79.999375 70.510938 79.999375 
z
" style="fill: #ffffff; opacity: 0.8; stroke: #cccccc; stroke-linejoin: miter"/>
    </g>
    <g id="line2d_30">
     <path d="M 73.110938 48.464219 
L 86.110938 48.464219 
L 99.110938 48.464219 
" style="fill: none; stroke: #1f77b4; stroke-opacity: 0.3; stroke-width: 1.5; stroke-linecap: square"/>
    </g>
    <g id="text_16">
     <!-- x (state) -->
     <g transform="translate(109.510938 53.014219) scale(0.13 -0.13)">
      <defs>
       <path id="DejaVuSans-78" d="M 3513 3500 
L 2247 1797 
L 3578 0 
L 2900 0 
L 1881 1375 
L 863 0 
L 184 0 
L 1544 1831 
L 300 3500 
L 978 3500 
L 1906 2253 
L 2834 3500 
L 3513 3500 
z
" transform="scale(0.015625)"/>
       <path id="DejaVuSans-28" d="M 1984 4856 
Q 1566 4138 1362 3434 
Q 1159 2731 1159 2009 
Q 1159 1288 1364 580 
Q 1569 -128 1984 -844 
L 1484 -844 
Q 1016 -109 783 600 
Q 550 1309 550 2009 
Q 550 2706 781 3412 
Q 1013 4119 1484 4856 
L 1984 4856 
z
" transform="scale(0.015625)"/>
       <path id="DejaVuSans-29" d="M 513 4856 
L 1013 4856 
Q 1481 4119 1714 3412 
Q 1947 2706 1947 2009 
Q 1947 1309 1714 600 
Q 1481 -109 1013 -844 
L 513 -844 
Q 928 -128 1133 580 
Q 1338 1288 1338 2009 
Q 1338 2731 1133 3434 
Q 928 4138 513 4856 
z
" transform="scale(0.015625)"/>
      </defs>
      <use xlink:href="#DejaVuSans-78"/>
      <use xlink:href="#DejaVuSans-20" x="59.179688"/>
      <use xlink:href="#DejaVuSans-28" x="90.966797"/>
      <use xlink:href="#DejaVuSans-73" x="129.980469"/>
      <use xlink:href="#DejaVuSans-74" x="182.080078"/>
      <use xlink:href="#DejaVuSans-61" x="221.289062"/>
      <use xlink:href="#DejaVuSans-74" x="282.568359"/>
      <use xlink:href="#DejaVuSans-65" x="321.777344"/>
      <use xlink:href="#DejaVuSans-29" x="383.300781"/>
     </g>
    </g>
    <g id="line2d_31">
     <path d="M 73.110938 67.545781 
L 86.110938 67.545781 
L 99.110938 67.545781 
" style="fill: none; stroke: #2ca02c; stroke-width: 1.5; stroke-linecap: square"/>
    </g>
    <g id="text_17">
     <!-- x (error) -->
     <g transform="translate(109.510938 72.095781) scale(0.13 -0.13)">
      <use xlink:href="#DejaVuSans-78"/>
      <use xlink:href="#DejaVuSans-20" x="59.179688"/>
      <use xlink:href="#DejaVuSans-28" x="90.966797"/>
      <use xlink:href="#DejaVuSans-65" x="129.980469"/>
      <use xlink:href="#DejaVuSans-72" x="191.503906"/>
      <use xlink:href="#DejaVuSans-72" x="230.867188"/>
      <use xlink:href="#DejaVuSans-6f" x="269.730469"/>
      <use xlink:href="#DejaVuSans-72" x="330.912109"/>
      <use xlink:href="#DejaVuSans-29" x="372.025391"/>
     </g>
    </g>
    <g id="line2d_32">
     <path d="M 190.411563 48.464219 
L 203.411563 48.464219 
L 216.411563 48.464219 
" style="fill: none; stroke: #ff7f0e; stroke-opacity: 0.3; stroke-width: 1.5; stroke-linecap: square"/>
    </g>
    <g id="text_18">
     <!-- z (state) -->
     <g transform="translate(226.811563 53.014219) scale(0.13 -0.13)">
      <defs>
       <path id="DejaVuSans-7a" d="M 353 3500 
L 3084 3500 
L 3084 2975 
L 922 459 
L 3084 459 
L 3084 0 
L 275 0 
L 275 525 
L 2438 3041 
L 353 3041 
L 353 3500 
z
" transform="scale(0.015625)"/>
      </defs>
      <use xlink:href="#DejaVuSans-7a"/>
      <use xlink:href="#DejaVuSans-20" x="52.490234"/>
      <use xlink:href="#DejaVuSans-28" x="84.277344"/>
      <use xlink:href="#DejaVuSans-73" x="123.291016"/>
      <use xlink:href="#DejaVuSans-74" x="175.390625"/>
      <use xlink:href="#DejaVuSans-61" x="214.599609"/>
      <use xlink:href="#DejaVuSans-74" x="275.878906"/>
      <use xlink:href="#DejaVuSans-65" x="315.087891"/>
      <use xlink:href="#DejaVuSans-29" x="376.611328"/>
     </g>
    </g>
    <g id="line2d_33">
     <path d="M 190.411563 67.545781 
L 203.411563 67.545781 
L 216.411563 67.545781 
" style="fill: none; stroke: #d62728; stroke-width: 1.5; stroke-linecap: square"/>
    </g>
    <g id="text_19">
     <!-- z (error) -->
     <g transform="translate(226.811563 72.095781) scale(0.13 -0.13)">
      <use xlink:href="#DejaVuSans-7a"/>
      <use xlink:href="#DejaVuSans-20" x="52.490234"/>
      <use xlink:href="#DejaVuSans-28" x="84.277344"/>
      <use xlink:href="#DejaVuSans-65" x="123.291016"/>
      <use xlink:href="#DejaVuSans-72" x="184.814453"/>
      <use xlink:href="#DejaVuSans-72" x="224.177734"/>
      <use xlink:href="#DejaVuSans-6f" x="263.041016"/>
      <use xlink:href="#DejaVuSans-72" x="324.222656"/>
      <use xlink:href="#DejaVuSans-29" x="365.335938"/>
     </g>
    </g>
   </g>
  </g>
 </g>
 <defs>
  <clipPath id="p37e3121db0">
   <rect x="61.410938" y="31.43625" width="357.12" height="266.112"/>
  </clipPath>
 </defs>
</svg>
