<?xml version="1.0" encoding="utf-8" standalone="no"?>
<!DOCTYPE svg PUBLIC "-//W3C//DTD SVG 1.1//EN"
  "http://www.w3.org/Graphics/SVG/1.1/DTD/svg11.dtd">
<svg xmlns:xlink="http://www.w3.org/1999/xlink" width="437.658281pt" height="349.621687pt" viewBox="0 0 437.658281 349.621687" xmlns="http://www.w3.org/2000/svg" version="1.1">
 <defs>
  <style type="text/css">*{stroke-linejoin: round; stroke-linecap: butt}</style>
 </defs>
 <g id="figure_1">
  <g id="patch_1">
   <path d="M 0 349.621687 
L 437.658281 349.621687 
L 437.658281 0 
L 0 0 
L 0 349.621687 
z
" style="fill: none"/>
  </g>
  <g id="axes_1">
   <g id="patch_2">
    <path d="M 61.410938 297.54825 
L 418.530938 297.54825 
L 418.530938 31.43625 
L 61.410938 31.43625 
L 61.410938 297.54825 
z
" style="fill: none"/>
   </g>
   <g id="matplotlib.axis_1">
    <g id="xtick_1">
     <g id="line2d_1">
      <path d="M 61.410938 297.54825 
L 61.410938 31.43625 
" clip-path="url(#p37e3121db0)" style="fill: none; stroke: #b0b0b0; stroke-width: 0.8; stroke-linecap: square"/>
     </g>
     <g id="line2d_2">
      <defs>
       <path id="md39032bed2" d="M 0 0 
L 0 3.5 
" style="stroke: #000000; stroke-width: 0.8"/>
      </defs>
      <g>
       <use xlink:href="#md39032bed2" x="61.410938" y="297.54825" style="stroke: #000000; stroke-width: 0.8"/>
      </g>
     </g>
     <g id="text_1">
      <!-- 0.0 -->
      <g transform="translate(49.483594 315.945906) scale(0.15 -0.15)">
       <defs>
        <path id="DejaVuSans-30" d="M 2034 4250 
Q 1547 4250 1301 3770 
Q 1056 3291 1056 2328 
Q 1056 1369 1301 889 
Q 1547 409 2034 409 
Q 2525 409 2770 889 
Q 3016 1369 3016 2328 
Q 3016 3291 2770 3770 
Q 2525 4250 2034 4250 
z
M 2034 4750 
Q 2819 4750 3233 4129 
Q 3647 3509 3647 2328 
Q 3647 1150 3233 529 
Q 2819 -91 2034 -91 
Q 1250 -91 836 529 
Q 422 1150 422 2328 
Q 422 3509 836 4129 
Q 1250 4750 2034 4750 
z
" transform="scale(0.015625)"/>
        <path id="DejaVuSans-2e" d="M 684 794 
L 1344 794 
L 1344 0 
L 684 0 
L 684 794 
z
" transform="scale(0.015625)"/>
       </defs>
       <use xlink:href="#DejaVuSans-30"/>
       <use xlink:href="#DejaVuSans-2e" x="63.623047"/>
       <use xlink:href="#DejaVuSans-30" x="95.410156"/>
      </g>
     </g>
    </g>
    <g id="xtick_2">
     <g id="line2d_3">
      <path d="M 132.834938 297.54825 
L 132.834938 31.43625 
" clip-path="url(#p37e3121db0)" style="fill: none; stroke: #b0b0b0; stroke-width: 0.8; stroke-linecap: square"/>
     </g>
     <g id="line2d_4">
      <g>
       <use xlink:href="#md39032bed2" x="132.834938" y="297.54825" style="stroke: #000000; stroke-width: 0.8"/>
      </g>
     </g>
     <g id="text_2">
      <!-- 0.2 -->
      <g transform="translate(120.907594 315.945906) scale(0.15 -0.15)">
       <defs>
        <path id="DejaVuSans-32" d="M 1228 531 
L 3431 531 
L 3431 0 
L 469 0 
L 469 531 
Q 828 903 1448 1529 
Q 2069 2156 2228 2338 
Q 2531 2678 2651 2914 
Q 2772 3150 2772 3378 
Q 2772 3750 2511 3984 
Q 2250 4219 1831 4219 
Q 1534 4219 1204 4116 
Q 875 4013 500 3803 
L 500 4441 
Q 881 4594 1212 4672 
Q 1544 4750 1819 4750 
Q 2544 4750 2975 4387 
Q 3406 4025 3406 3419 
Q 3406 3131 3298 2873 
Q 3191 2616 2906 2266 
Q 2828 2175 2409 1742 
Q 1991 1309 1228 531 
z
" transform="scale(0.015625)"/>
       </defs>
       <use xlink:href="#DejaVuSans-30"/>
       <use xlink:href="#DejaVuSans-2e" x="63.623047"/>
       <use xlink:href="#DejaVuSans-32" x="95.410156"/>
      </g>
     </g>
    </g>
    <g id="xtick_3">
     <g id="line2d_5">
      <path d="M 204.258938 297.54825 
L 204.258938 31.43625 
" clip-path="url(#p37e3121db0)" style="fill: none; stroke: #b0b0b0; stroke-width: 0.8; stroke-linecap: square"/>
     </g>
     <g id="line2d_6">
      <g>
       <use xlink:href="#md39032bed2" x="204.258938" y="297.54825" style="stroke: #000000; stroke-width: 0.8"/>
      </g>
     </g>
     <g id="text_3">
      <!-- 0.4 -->
      <g transform="translate(192.331594 315.945906) scale(0.15 -0.15)">
       <defs>
        <path id="DejaVuSans-34" d="M 2419 4116 
L 825 1625 
L 2419 1625 
L 2419 4116 
z
M 2253 4666 
L 3047 4666 
L 3047 1625 
L 3713 1625 
L 3713 1100 
L 3047 1100 
L 3047 0 
L 2419 0 
L 2419 1100 
L 313 1100 
L 313 1709 
L 2253 4666 
z
" transform="scale(0.015625)"/>
       </defs>
       <use xlink:href="#DejaVuSans-30"/>
       <use xlink:href="#DejaVuSans-2e" x="63.623047"/>
       <use xlink:href="#DejaVuSans-34" x="95.410156"/>
      </g>
     </g>
    </g>
    <g id="xtick_4">
     <g id="line2d_7">
      <path d="M 275.682938 297.54825 
L 275.682938 31.43625 
" clip-path="url(#p37e3121db0)" style="fill: none; stroke: #b0b0b0; stroke-width: 0.8; stroke-linecap: square"/>
     </g>
     <g id="line2d_8">
      <g>
       <use xlink:href="#md39032bed2" x="275.682938" y="297.54825" style="stroke: #000000; stroke-width: 0.8"/>
      </g>
     </g>
     <g id="text_4">
      <!-- 0.6 -->
      <g transform="translate(263.755594 315.945906) scale(0.15 -0.15)">
       <defs>
        <path id="DejaVuSans-36" d="M 2113 2584 
Q 1688 2584 1439 2293 
Q 1191 2003 1191 1497 
Q 1191 994 1439 701 
Q 1688 409 2113 409 
Q 2538 409 2786 701 
Q 3034 994 3034 1497 
Q 3034 2003 2786 2293 
Q 2538 2584 2113 2584 
z
M 3366 4563 
L 3366 3988 
Q 3128 4100 2886 4159 
Q 2644 4219 2406 4219 
Q 1781 4219 1451 3797 
Q 1122 3375 1075 2522 
Q 1259 2794 1537 2939 
Q 1816 3084 2150 3084 
Q 2853 3084 3261 2657 
Q 3669 2231 3669 1497 
Q 3669 778 3244 343 
Q 2819 -91 2113 -91 
Q 1303 -91 875 529 
Q 447 1150 447 2328 
Q 447 3434 972 4092 
Q 1497 4750 2381 4750 
Q 2619 4750 2861 4703 
Q 3103 4656 3366 4563 
z
" transform="scale(0.015625)"/>
       </defs>
       <use xlink:href="#DejaVuSans-30"/>
       <use xlink:href="#DejaVuSans-2e" x="63.623047"/>
       <use xlink:href="#DejaVuSans-36" x="95.410156"/>
      </g>
     </g>
    </g>
    <g id="xtick_5">
     <g id="line2d_9">
      <path d="M 347.106938 297.54825 
L 347.106938 31.43625 
" clip-path="url(#p37e3121db0)" style="fill: none; stroke: #b0b0b0; stroke-width: 0.8; stroke-linecap: square"/>
     </g>
     <g id="line2d_10">
      <g>
       <use xlink:href="#md39032bed2" x="347.106938" y="297.54825" style="stroke: #000000; stroke-width: 0.8"/>
      </g>
     </g>
     <g id="text_5">
      <!-- 0.8 -->
      <g transform="translate(335.179594 315.945906) scale(0.15 -0.15)">
       <defs>
        <path id="DejaVuSans-38" d="M 2034 2216 
Q 1584 2216 1326 1975 
Q 1069 1734 1069 1313 
Q 1069 891 1326 650 
Q 1584 409 2034 409 
Q 2484 409 2743 651 
Q 3003 894 3003 1313 
Q 3003 1734 2745 1975 
Q 2488 2216 2034 2216 
z
M 1403 2484 
Q 997 2584 770 2862 
Q 544 3141 544 3541 
Q 544 4100 942 4425 
Q 1341 4750 2034 4750 
Q 2731 4750 3128 4425 
Q 3525 4100 3525 3541 
Q 3525 3141 3298 2862 
Q 3072 2584 2669 2484 
Q 3125 2378 3379 2068 
Q 3634 1759 3634 1313 
Q 3634 634 3220 271 
Q 2806 -91 2034 -91 
Q 1263 -91 848 271 
Q 434 634 434 1313 
Q 434 1759 690 2068 
Q 947 2378 1403 2484 
z
M 1172 3481 
Q 1172 3119 1398 2916 
Q 1625 2713 2034 2713 
Q 2441 2713 2670 2916 
Q 2900 3119 2900 3481 
Q 2900 3844 2670 4047 
Q 2441 4250 2034 4250 
Q 1625 4250 1398 4047 
Q 1172 3844 1172 3481 
z
" transform="scale(0.015625)"/>
       </defs>
       <use xlink:href="#DejaVuSans-30"/>
       <use xlink:href="#DejaVuSans-2e" x="63.623047"/>
       <use xlink:href="#DejaVuSans-38" x="95.410156"/>
      </g>
     </g>
    </g>
    <g id="xtick_6">
     <g id="line2d_11">
      <path d="M 418.530938 297.54825 
L 418.530938 31.43625 
" clip-path="url(#p37e3121db0)" style="fill: none; stroke: #b0b0b0; stroke-width: 0.8; stroke-linecap: square"/>
     </g>
     <g id="line2d_12">
      <g>
       <use xlink:href="#md39032bed2" x="418.530938" y="297.54825" style="stroke: #000000; stroke-width: 0.8"/>
      </g>
     </g>
     <g id="text_6">
      <!-- 1.0 -->
      <g transform="translate(406.603594 315.945906) scale(0.15 -0.15)">
       <defs>
        <path id="DejaVuSans-31" d="M 794 531 
L 1825 531 
L 1825 4091 
L 703 3866 
L 703 4441 
L 1819 4666 
L 2450 4666 
L 2450 531 
L 3481 531 
L 3481 0 
L 794 0 
L 794 531 
z
" transform="scale(0.015625)"/>
       </defs>
       <use xlink:href="#DejaVuSans-31"/>
       <use xlink:href="#DejaVuSans-2e" x="63.623047"/>
       <use xlink:href="#DejaVuSans-30" x="95.410156"/>
      </g>
     </g>
    </g>
    <g id="text_7">
     <!-- Physical Error -->
     <g transform="translate(171.744375 338.262312) scale(0.2 -0.2)">
      <defs>
       <path id="DejaVuSans-50" d="M 1259 4147 
L 1259 2394 
L 2053 2394 
Q 2494 2394 2734 2622 
Q 2975 2850 2975 3272 
Q 2975 3691 2734 3919 
Q 2494 4147 2053 4147 
L 1259 4147 
z
M 628 4666 
L 2053 4666 
Q 2838 4666 3239 4311 
Q 3641 3956 3641 3272 
Q 3641 2581 3239 2228 
Q 2838 1875 2053 1875 
L 1259 1875 
L 1259 0 
L 628 0 
L 628 4666 
z
" transform="scale(0.015625)"/>
       <path id="DejaVuSans-68" d="M 3513 2113 
L 3513 0 
L 2938 0 
L 2938 2094 
Q 2938 2591 2744 2837 
Q 2550 3084 2163 3084 
Q 1697 3084 1428 2787 
Q 1159 2491 1159 1978 
L 1159 0 
L 581 0 
L 581 4863 
L 1159 4863 
L 1159 2956 
Q 1366 3272 1645 3428 
Q 1925 3584 2291 3584 
Q 2894 3584 3203 3211 
Q 3513 2838 3513 2113 
z
" transform="scale(0.015625)"/>
       <path id="DejaVuSans-79" d="M 2059 -325 
Q 1816 -950 1584 -1140 
Q 1353 -1331 966 -1331 
L 506 -1331 
L 506 -850 
L 844 -850 
Q 1081 -850 1212 -737 
Q 1344 -625 1503 -206 
L 1606 56 
L 191 3500 
L 800 3500 
L 1894 763 
L 2988 3500 
L 3597 3500 
L 2059 -325 
z
" transform="scale(0.015625)"/>
       <path id="DejaVuSans-73" d="M 2834 3397 
L 2834 2853 
Q 2591 2978 2328 3040 
Q 2066 3103 1784 3103 
Q 1356 3103 1142 2972 
Q 928 2841 928 2578 
Q 928 2378 1081 2264 
Q 1234 2150 1697 2047 
L 1894 2003 
Q 2506 1872 2764 1633 
Q 3022 1394 3022 966 
Q 3022 478 2636 193 
Q 2250 -91 1575 -91 
Q 1294 -91 989 -36 
Q 684 19 347 128 
L 347 722 
Q 666 556 975 473 
Q 1284 391 1588 391 
Q 1994 391 2212 530 
Q 2431 669 2431 922 
Q 2431 1156 2273 1281 
Q 2116 1406 1581 1522 
L 1381 1569 
Q 847 1681 609 1914 
Q 372 2147 372 2553 
Q 372 3047 722 3315 
Q 1072 3584 1716 3584 
Q 2034 3584 2315 3537 
Q 2597 3491 2834 3397 
z
" transform="scale(0.015625)"/>
       <path id="DejaVuSans-69" d="M 603 3500 
L 1178 3500 
L 1178 0 
L 603 0 
L 603 3500 
z
M 603 4863 
L 1178 4863 
L 1178 4134 
L 603 4134 
L 603 4863 
z
" transform="scale(0.015625)"/>
       <path id="DejaVuSans-63" d="M 3122 3366 
L 3122 2828 
Q 2878 2963 2633 3030 
Q 2388 3097 2138 3097 
Q 1578 3097 1268 2742 
Q 959 2388 959 1747 
Q 959 1106 1268 751 
Q 1578 397 2138 397 
Q 2388 397 2633 464 
Q 2878 531 3122 666 
L 3122 134 
Q 2881 22 2623 -34 
Q 2366 -91 2075 -91 
Q 1284 -91 818 406 
Q 353 903 353 1747 
Q 353 2603 823 3093 
Q 1294 3584 2113 3584 
Q 2378 3584 2631 3529 
Q 2884 3475 3122 3366 
z
" transform="scale(0.015625)"/>
       <path id="DejaVuSans-61" d="M 2194 1759 
Q 1497 1759 1228 1600 
Q 959 1441 959 1056 
Q 959 750 1161 570 
Q 1363 391 1709 391 
Q 2188 391 2477 730 
Q 2766 1069 2766 1631 
L 2766 1759 
L 2194 1759 
z
M 3341 1997 
L 3341 0 
L 2766 0 
L 2766 531 
Q 2569 213 2275 61 
Q 1981 -91 1556 -91 
Q 1019 -91 701 211 
Q 384 513 384 1019 
Q 384 1609 779 1909 
Q 1175 2209 1959 2209 
L 2766 2209 
L 2766 2266 
Q 2766 2663 2505 2880 
Q 2244 3097 1772 3097 
Q 1472 3097 1187 3025 
Q 903 2953 641 2809 
L 641 3341 
Q 956 3463 1253 3523 
Q 1550 3584 1831 3584 
Q 2591 3584 2966 3190 
Q 3341 2797 3341 1997 
z
" transform="scale(0.015625)"/>
       <path id="DejaVuSans-6c" d="M 603 4863 
L 1178 4863 
L 1178 0 
L 603 0 
L 603 4863 
z
" transform="scale(0.015625)"/>
       <path id="DejaVuSans-20" transform="scale(0.015625)"/>
       <path id="DejaVuSans-45" d="M 628 4666 
L 3578 4666 
L 3578 4134 
L 1259 4134 
L 1259 2753 
L 3481 2753 
L 3481 2222 
L 1259 2222 
L 1259 531 
L 3634 531 
L 3634 0 
L 628 0 
L 628 4666 
z
" transform="scale(0.015625)"/>
       <path id="DejaVuSans-72" d="M 2631 2963 
Q 2534 3019 2420 3045 
Q 2306 3072 2169 3072 
Q 1681 3072 1420 2755 
Q 1159 2438 1159 1844 
L 1159 0 
L 581 0 
L 581 3500 
L 1159 3500 
L 1159 2956 
Q 1341 3275 1631 3429 
Q 1922 3584 2338 3584 
Q 2397 3584 2469 3576 
Q 2541 3569 2628 3553 
L 2631 2963 
z
" transform="scale(0.015625)"/>
       <path id="DejaVuSans-6f" d="M 1959 3097 
Q 1497 3097 1228 2736 
Q 959 2375 959 1747 
Q 959 1119 1226 758 
Q 1494 397 1959 397 
Q 2419 397 2687 759 
Q 2956 1122 2956 1747 
Q 2956 2369 2687 2733 
Q 2419 3097 1959 3097 
z
M 1959 3584 
Q 2709 3584 3137 3096 
Q 3566 2609 3566 1747 
Q 3566 888 3137 398 
Q 2709 -91 1959 -91 
Q 1206 -91 779 398 
Q 353 888 353 1747 
Q 353 2609 779 3096 
Q 1206 3584 1959 3584 
z
" transform="scale(0.015625)"/>
      </defs>
      <use xlink:href="#DejaVuSans-50"/>
      <use xlink:href="#DejaVuSans-68" x="60.302734"/>
      <use xlink:href="#DejaVuSans-79" x="123.681641"/>
      <use xlink:href="#DejaVuSans-73" x="182.861328"/>
      <use xlink:href="#DejaVuSans-69" x="234.960938"/>
      <use xlink:href="#DejaVuSans-63" x="262.744141"/>
      <use xlink:href="#DejaVuSans-61" x="317.724609"/>
      <use xlink:href="#DejaVuSans-6c" x="379.003906"/>
      <use xlink:href="#DejaVuSans-20" x="406.787109"/>
      <use xlink:href="#DejaVuSans-45" x="438.574219"/>
      <use xlink:href="#DejaVuSans-72" x="501.757812"/>
      <use xlink:href="#DejaVuSans-72" x="541.121094"/>
      <use xlink:href="#DejaVuSans-6f" x="579.984375"/>
      <use xlink:href="#DejaVuSans-72" x="641.166016"/>
     </g>
    </g>
   </g>
   <g id="matplotlib.axis_2">
    <g id="ytick_1">
     <g id="line2d_13">
      <path d="M 61.410938 297.54825 
L 418.530938 297.54825 
" clip-path="url(#p37e3121db0)" style="fill: none; stroke: #b0b0b0; stroke-width: 0.8; stroke-linecap: square"/>
     </g>
     <g id="line2d_14">
      <defs>
       <path id="m6f3f5b6aff" d="M 0 0 
L -3.5 0 
" style="stroke: #000000; stroke-width: 0.8"/>
      </defs>
      <g>
       <use xlink:href="#m6f3f5b6aff" x="61.410938" y="297.54825" style="stroke: #000000; stroke-width: 0.8"/>
      </g>
     </g>
     <g id="text_8">
      <!-- 0.0 -->
      <g transform="translate(30.55625 303.247078) scale(0.15 -0.15)">
       <use xlink:href="#DejaVuSans-30"/>
       <use xlink:href="#DejaVuSans-2e" x="63.623047"/>
       <use xlink:href="#DejaVuSans-30" x="95.410156"/>
      </g>
     </g>
    </g>
    <g id="ytick_2">
     <g id="line2d_15">
      <path d="M 61.410938 244.32585 
L 418.530938 244.32585 
" clip-path="url(#p37e3121db0)" style="fill: none; stroke: #b0b0b0; stroke-width: 0.8; stroke-linecap: square"/>
     </g>
     <g id="line2d_16">
      <g>
       <use xlink:href="#m6f3f5b6aff" x="61.410938" y="244.32585" style="stroke: #000000; stroke-width: 0.8"/>
      </g>
     </g>
     <g id="text_9">
      <!-- 0.2 -->
      <g transform="translate(30.55625 250.024678) scale(0.15 -0.15)">
       <use xlink:href="#DejaVuSans-30"/>
       <use xlink:href="#DejaVuSans-2e" x="63.623047"/>
       <use xlink:href="#DejaVuSans-32" x="95.410156"/>
      </g>
     </g>
    </g>
    <g id="ytick_3">
     <g id="line2d_17">
      <path d="M 61.410938 191.10345 
L 418.530938 191.10345 
" clip-path="url(#p37e3121db0)" style="fill: none; stroke: #b0b0b0; stroke-width: 0.8; stroke-linecap: square"/>
     </g>
     <g id="line2d_18">
      <g>
       <use xlink:href="#m6f3f5b6aff" x="61.410938" y="191.10345" style="stroke: #000000; stroke-width: 0.8"/>
      </g>
     </g>
     <g id="text_10">
      <!-- 0.4 -->
      <g transform="translate(30.55625 196.802278) scale(0.15 -0.15)">
       <use xlink:href="#DejaVuSans-30"/>
       <use xlink:href="#DejaVuSans-2e" x="63.623047"/>
       <use xlink:href="#DejaVuSans-34" x="95.410156"/>
      </g>
     </g>
    </g>
    <g id="ytick_4">
     <g id="line2d_19">
      <path d="M 61.410938 137.88105 
L 418.530938 137.88105 
" clip-path="url(#p37e3121db0)" style="fill: none; stroke: #b0b0b0; stroke-width: 0.8; stroke-linecap: square"/>
     </g>
     <g id="line2d_20">
      <g>
       <use xlink:href="#m6f3f5b6aff" x="61.410938" y="137.88105" style="stroke: #000000; stroke-width: 0.8"/>
      </g>
     </g>
     <g id="text_11">
      <!-- 0.6 -->
      <g transform="translate(30.55625 143.579878) scale(0.15 -0.15)">
       <use xlink:href="#DejaVuSans-30"/>
       <use xlink:href="#DejaVuSans-2e" x="63.623047"/>
       <use xlink:href="#DejaVuSans-36" x="95.410156"/>
      </g>
     </g>
    </g>
    <g id="ytick_5">
     <g id="line2d_21">
      <path d="M 61.410938 84.65865 
L 418.530938 84.65865 
" clip-path="url(#p37e3121db0)" style="fill: none; stroke: #b0b0b0; stroke-width: 0.8; stroke-linecap: square"/>
     </g>
     <g id="line2d_22">
      <g>
       <use xlink:href="#m6f3f5b6aff" x="61.410938" y="84.65865" style="stroke: #000000; stroke-width: 0.8"/>
      </g>
     </g>
     <g id="text_12">
      <!-- 0.8 -->
      <g transform="translate(30.55625 90.357478) scale(0.15 -0.15)">
       <use xlink:href="#DejaVuSans-30"/>
       <use xlink:href="#DejaVuSans-2e" x="63.623047"/>
       <use xlink:href="#DejaVuSans-38" x="95.410156"/>
      </g>
     </g>
    </g>
    <g id="ytick_6">
     <g id="line2d_23">
      <path d="M 61.410938 31.43625 
L 418.530938 31.43625 
" clip-path="url(#p37e3121db0)" style="fill: none; stroke: #b0b0b0; stroke-width: 0.8; stroke-linecap: square"/>
     </g>
     <g id="line2d_24">
      <g>
       <use xlink:href="#m6f3f5b6aff" x="61.410938" y="31.43625" style="stroke: #000000; stroke-width: 0.8"/>
      </g>
     </g>
     <g id="text_13">
      <!-- 1.0 -->
      <g transform="translate(30.55625 37.135078) scale(0.15 -0.15)">
       <use xlink:href="#DejaVuSans-31"/>
       <use xlink:href="#DejaVuSans-2e" x="63.623047"/>
       <use xlink:href="#DejaVuSans-30" x="95.410156"/>
      </g>
     </g>
    </g>
    <g id="text_14">
     <!-- Logical Error -->
     <g transform="translate(22.396875 227.087562) rotate(-90) scale(0.2 -0.2)">
      <defs>
       <path id="DejaVuSans-4c" d="M 628 4666 
L 1259 4666 
L 1259 531 
L 3531 531 
L 3531 0 
L 628 0 
L 628 4666 
z
" transform="scale(0.015625)"/>
       <path id="DejaVuSans-67" d="M 2906 1791 
Q 2906 2416 2648 2759 
Q 2391 3103 1925 3103 
Q 1463 3103 1205 2759 
Q 947 2416 947 1791 
Q 947 1169 1205 825 
Q 1463 481 1925 481 
Q 2391 481 2648 825 
Q 2906 1169 2906 1791 
z
M 3481 434 
Q 3481 -459 3084 -895 
Q 2688 -1331 1869 -1331 
Q 1566 -1331 1297 -1286 
Q 1028 -1241 775 -1147 
L 775 -588 
Q 1028 -725 1275 -790 
Q 1522 -856 1778 -856 
Q 2344 -856 2625 -561 
Q 2906 -266 2906 331 
L 2906 616 
Q 2728 306 2450 153 
Q 2172 0 1784 0 
Q 1141 0 747 490 
Q 353 981 353 1791 
Q 353 2603 747 3093 
Q 1141 3584 1784 3584 
Q 2172 3584 2450 3431 
Q 2728 3278 2906 2969 
L 2906 3500 
L 3481 3500 
L 3481 434 
z
" transform="scale(0.015625)"/>
      </defs>
      <use xlink:href="#DejaVuSans-4c"/>
      <use xlink:href="#DejaVuSans-6f" x="53.962891"/>
      <use xlink:href="#DejaVuSans-67" x="115.144531"/>
      <use xlink:href="#DejaVuSans-69" x="178.621094"/>
      <use xlink:href="#DejaVuSans-63" x="206.404297"/>
      <use xlink:href="#DejaVuSans-61" x="261.384766"/>
      <use xlink:href="#DejaVuSans-6c" x="322.664062"/>
      <use xlink:href="#DejaVuSans-20" x="350.447266"/>
      <use xlink:href="#DejaVuSans-45" x="382.234375"/>
      <use xlink:href="#DejaVuSans-72" x="445.417969"/>
      <use xlink:href="#DejaVuSans-72" x="484.78125"/>
      <use xlink:href="#DejaVuSans-6f" x="523.644531"/>
      <use xlink:href="#DejaVuSans-72" x="584.826172"/>
     </g>
    </g>
   </g>
   <g id="line2d_25">
    <path d="M 61.410938 297.54825 
L 72.981626 263.929521 
L 73.41017 262.63177 
L 79.552634 245.871457 
L 79.624058 245.831338 
L 80.052602 244.556327 
L 80.19545 244.200623 
L 80.55257 243.240222 
L 81.552506 240.747534 
L 81.766778 240.14771 
L 81.838202 240.020209 
L 82.123898 239.109184 
L 84.552314 233.061243 
L 84.766586 232.403435 
L 84.909434 232.25628 
L 85.052282 231.682769 
L 86.695034 227.530778 
L 86.909306 227.00713 
L 87.123578 226.547639 
L 87.195002 226.239687 
L 87.266426 226.312452 
L 87.552122 225.570834 
L 87.766394 224.999596 
L 88.194938 223.903573 
L 88.266362 224.035135 
L 88.552058 222.984103 
L 88.694906 222.845719 
L 88.76633 222.292023 
L 88.837754 222.460292 
L 89.052026 221.952886 
L 90.266234 218.990636 
L 90.337658 219.035302 
L 90.480506 218.29076 
L 90.55193 218.368723 
L 90.694778 218.168294 
L 90.90905 217.415794 
L 90.980474 217.439182 
L 91.766138 215.320876 
L 91.837562 215.444642 
L 92.051834 214.89322 
L 92.480378 213.773321 
L 92.551802 213.860054 
L 92.766074 213.027967 
L 92.837498 213.195099 
L 92.980346 212.488726 
L 93.05177 212.589753 
L 93.337466 211.911316 
L 93.694586 211.082478 
L 93.76601 210.648649 
L 93.837434 210.731484 
L 93.908858 210.513839 
L 93.980282 210.585629 
L 94.051706 210.506854 
L 94.265978 209.737624 
L 94.337402 209.695232 
L 94.694522 208.717777 
L 94.765946 208.757246 
L 95.051642 207.907292 
L 95.123066 208.077835 
L 95.408762 207.325822 
L 95.480186 207.234866 
L 95.694458 206.408301 
L 95.837306 206.347555 
L 97.765754 201.92968 
L 99.694202 198.275188 
L 102.265466 192.779319 
L 104.193914 188.971013 
L 106.765178 184.190937 
L 107.407994 183.112456 
L 108.693626 180.494378 
L 109.336442 179.472257 
L 109.979258 178.040508 
L 111.907706 175.005006 
L 114.47897 170.625138 
L 115.121786 169.757967 
L 116.407418 167.542208 
L 117.050234 166.603734 
L 117.69305 165.381997 
L 118.335866 164.456842 
L 118.978682 163.848735 
L 119.621498 162.390186 
L 120.264314 161.716135 
L 122.192762 158.621999 
L 122.835578 157.952496 
L 124.12121 156.024873 
L 127.978106 150.847351 
L 128.620922 150.272865 
L 129.906554 148.438147 
L 132.477818 145.321434 
L 133.120634 144.789827 
L 133.76345 143.823904 
L 135.049082 142.508612 
L 135.691898 141.551784 
L 136.97753 140.478663 
L 138.263162 138.747571 
L 138.905978 138.415418 
L 140.19161 137.046851 
L 142.120058 135.048575 
L 143.40569 134.009237 
L 145.334138 131.973117 
L 145.976954 131.452555 
L 146.61977 131.114717 
L 147.262586 130.282792 
L 147.905402 129.93391 
L 149.191034 128.975783 
L 149.83385 128.13655 
L 150.476666 127.763629 
L 153.04793 125.746512 
L 153.690746 125.266393 
L 154.333562 125.035754 
L 154.976378 124.226568 
L 157.547642 122.266623 
L 158.190458 122.087634 
L 158.833274 121.477253 
L 163.332986 118.748078 
L 163.975802 118.08897 
L 164.618618 117.912255 
L 165.90425 117.181194 
L 167.832698 116.05155 
L 168.475514 116.025562 
L 169.11833 115.256982 
L 169.761146 115.216214 
L 171.689594 114.083322 
L 172.33241 113.929183 
L 172.975226 113.891989 
L 173.618042 113.210142 
L 174.260858 112.985025 
L 174.903674 112.601872 
L 175.54649 112.424182 
L 176.832122 111.79967 
L 177.474938 111.740061 
L 178.76057 111.00429 
L 179.403386 110.841219 
L 180.689018 110.257799 
L 181.331834 110.117142 
L 182.617466 109.597554 
L 183.260282 109.478174 
L 185.831546 108.375005 
L 187.117178 107.965702 
L 187.759994 107.619256 
L 188.40281 107.519529 
L 189.045626 107.245198 
L 189.688442 107.279632 
L 190.974074 106.802761 
L 194.188154 105.958492 
L 196.116602 105.381407 
L 199.973498 104.427666 
L 200.616314 104.519597 
L 201.25913 104.188581 
L 201.901946 104.182247 
L 202.544762 104.001796 
L 203.187578 104.017388 
L 204.47321 103.552212 
L 205.116026 103.317837 
L 206.401658 103.433644 
L 207.044474 103.0055 
L 207.68729 102.985847 
L 208.330106 102.750498 
L 210.258554 102.618286 
L 210.90137 102.374654 
L 211.544186 102.421269 
L 212.187002 102.013427 
L 213.472634 101.92913 
L 214.11545 102.136543 
L 214.758266 101.738285 
L 215.401082 101.782139 
L 216.043898 101.60315 
L 216.686714 101.638395 
L 217.32953 101.43082 
L 218.615162 101.312902 
L 219.257978 101.268561 
L 220.54361 101.006899 
L 223.75769 100.724772 
L 224.400506 100.40675 
L 225.043322 100.462948 
L 225.686138 100.362896 
L 226.328954 100.452878 
L 228.900218 100.20015 
L 230.18585 100.052508 
L 230.828666 99.943523 
L 233.39993 99.907628 
L 234.042746 99.849968 
L 234.685562 99.553061 
L 235.328378 99.650514 
L 235.971194 99.440178 
L 236.61401 99.608771 
L 237.256826 99.486955 
L 237.899642 99.556309 
L 241.113722 99.150092 
L 242.399354 99.286364 
L 243.04217 99.077002 
L 243.684986 99.259077 
L 244.327802 99.216847 
L 244.970618 99.015282 
L 245.613434 99.020642 
L 246.25625 98.875762 
L 246.899066 99.03396 
L 247.541882 98.845551 
L 248.827514 98.886319 
L 249.47033 98.903698 
L 250.113146 98.744362 
L 251.398778 98.753783 
L 252.041594 98.680855 
L 253.970042 98.900612 
L 254.612858 98.736891 
L 255.255674 98.720486 
L 255.89849 98.534513 
L 257.184122 98.715289 
L 257.826938 98.74355 
L 259.755386 98.443232 
L 260.398202 98.579179 
L 262.32665 98.345941 
L 262.969466 98.377939 
L 263.612282 98.52558 
L 264.897914 98.395155 
L 265.54073 98.283734 
L 266.183546 98.486274 
L 269.397626 98.220227 
L 270.683258 98.365919 
L 271.326074 98.16273 
L 271.96889 98.320604 
L 272.611706 98.099872 
L 273.897338 98.351464 
L 274.540154 98.11043 
L 275.825786 98.240205 
L 276.468602 98.169714 
L 277.111418 98.265218 
L 277.754234 98.19765 
L 278.39705 98.294941 
L 280.325498 98.134631 
L 280.968314 98.011677 
L 281.61113 98.205609 
L 282.253946 97.986502 
L 282.896762 97.9381 
L 284.182394 98.162405 
L 285.468026 98.113191 
L 286.110842 98.161917 
L 286.753658 97.95483 
L 288.682106 97.970584 
L 289.324922 98.148924 
L 290.610554 98.065276 
L 291.25337 98.057318 
L 291.896186 97.873294 
L 292.539002 97.981467 
L 293.181818 97.879628 
L 294.46745 98.155421 
L 295.753082 97.995435 
L 296.395898 97.97497 
L 297.038714 98.071448 
L 301.538426 97.952231 
L 302.181242 98.093213 
L 302.824058 98.105719 
L 303.466874 97.978218 
L 304.10969 98.111891 
L 304.752506 97.887262 
L 305.395322 98.191316 
L 306.038138 97.966361 
L 306.680954 97.873456 
L 307.32377 98.129433 
L 308.609402 97.825704 
L 309.252218 97.972858 
L 310.53785 97.973833 
L 311.180666 97.717206 
L 311.823482 98.165653 
L 312.466298 97.945409 
L 313.75193 97.954017 
L 315.037562 98.007454 
L 315.680378 97.874431 
L 318.251642 97.899606 
L 318.894458 98.019636 
L 319.537274 97.81872 
L 320.822906 97.8858 
L 321.465722 97.895383 
L 322.108538 98.09971 
L 324.036986 97.8093 
L 326.60825 98.139503 
L 327.893882 97.978056 
L 328.536698 98.128296 
L 329.82233 97.84487 
L 331.107962 97.936313 
L 331.750778 97.91325 
L 332.393594 98.087366 
L 333.03641 98.033442 
L 334.322042 98.111891 
L 334.964858 98.045136 
L 335.607674 97.802965 
L 336.25049 98.06755 
L 336.893306 98.070474 
L 337.536122 97.887262 
L 339.46457 97.953043 
L 340.107386 98.049521 
L 342.035834 97.904316 
L 342.67865 98.059592 
L 343.321466 97.847956 
L 343.964282 97.840647 
L 344.607098 97.986015 
L 347.821178 97.976756 
L 348.463994 98.012164 
L 349.749626 97.790621 
L 350.392442 98.073722 
L 351.035258 97.923157 
L 360.034682 97.903829 
L 360.677498 97.729875 
L 361.320314 98.116927 
L 362.605946 97.788022 
L 365.820026 97.878979 
L 368.39129 97.768532 
L 369.034106 97.986015 
L 369.676922 97.80329 
L 370.319738 97.851692 
L 370.962554 97.718018 
L 372.248186 97.917472 
L 372.891002 97.76236 
L 375.462266 97.686184 
L 376.105082 97.819045 
L 376.747898 97.821806 
L 377.390714 97.642005 
L 378.676346 97.815634 
L 379.319162 97.63096 
L 380.604794 97.919584 
L 381.24761 97.6779 
L 383.176058 97.497774 
L 383.818874 97.626088 
L 384.46169 97.583208 
L 385.104506 97.653862 
L 385.747322 97.528472 
L 386.390138 97.580934 
L 387.032954 97.488516 
L 387.67577 97.593766 
L 388.318586 97.425984 
L 389.604218 97.521163 
L 390.247034 97.378394 
L 390.88985 97.465452 
L 391.532666 97.321871 
L 392.175482 97.427446 
L 392.818298 97.373034 
L 393.461114 97.13801 
L 394.10393 97.288575 
L 394.746746 97.130051 
L 395.389562 97.102277 
L 396.032378 97.323821 
L 396.675194 97.131838 
L 397.31801 97.254954 
L 397.960826 96.941967 
L 398.603642 97.158475 
L 399.889274 97.093994 
L 400.53209 97.106338 
L 401.817722 96.883008 
L 402.460538 96.92946 
L 403.103354 96.708566 
L 403.74617 96.882683 
L 404.388986 96.591135 
L 405.674618 96.754207 
L 407.603066 96.575218 
L 408.245882 96.819663 
L 409.531514 96.357573 
L 410.817146 96.486698 
L 411.459962 96.216753 
L 412.102778 96.360984 
L 413.38841 96.296665 
L 414.674042 95.928779 
L 415.316858 96.015837 
L 415.959674 95.85439 
L 417.245306 95.978643 
L 417.888122 95.853253 
L 418.530938 95.548874 
L 418.530938 95.548874 
" clip-path="url(#p37e3121db0)" style="fill: none; stroke: #2ca02c; stroke-width: 1.5; stroke-linecap: square"/>
   </g>
   <g id="line2d_26">
    <path d="M 61.410938 297.54825 
L 62.69657 297.45437 
L 63.625082 297.264012 
L 64.339322 297.05936 
L 65.410682 296.640961 
L 65.839226 296.432087 
L 68.196218 295.043867 
L 68.481914 294.763527 
L 68.696186 294.610688 
L 69.410426 294.032953 
L 72.410234 291.143631 
L 72.624506 290.804819 
L 75.124346 287.846629 
L 75.481466 287.293095 
L 75.624314 287.157635 
L 75.91001 286.765224 
L 76.195706 286.340816 
L 76.338554 286.158416 
L 76.552826 285.869792 
L 76.838522 285.39552 
L 77.409914 284.646106 
L 77.481338 284.591857 
L 77.69561 284.19571 
L 78.195578 283.406177 
L 78.267002 283.388798 
L 78.552698 282.826981 
L 79.266938 281.713417 
L 79.338362 281.69084 
L 80.338298 279.94919 
L 81.409658 278.161575 
L 81.62393 277.83462 
L 87.123578 267.424839 
L 87.195002 267.244226 
L 87.266426 267.303835 
L 87.480698 266.871468 
L 88.05209 265.597106 
L 88.194938 265.349413 
L 89.694842 262.292308 
L 89.766266 262.201677 
L 90.051962 261.473864 
L 92.266106 257.018632 
L 92.33753 256.477118 
L 92.408954 256.707107 
L 92.623226 255.927482 
L 92.69465 255.908154 
L 94.765946 251.475011 
L 94.908794 251.091533 
L 95.123066 250.595172 
L 95.19449 250.620997 
L 95.623034 249.50321 
L 96.337274 247.933727 
L 96.551546 247.502172 
L 96.98009 246.404363 
L 97.122938 246.139615 
L 97.122938 246.168689 
L 97.765754 244.941916 
L 102.265466 234.413405 
L 106.122362 225.720099 
L 107.407994 222.967698 
L 108.05081 221.178946 
L 111.26489 214.121553 
L 120.264314 194.496281 
L 120.90713 193.314824 
L 122.192762 190.398377 
L 124.764026 185.439962 
L 125.406842 183.908486 
L 126.049658 182.852256 
L 126.692474 181.338809 
L 127.978106 179.015527 
L 129.263738 176.616718 
L 130.54937 174.397386 
L 131.835002 171.735616 
L 133.120634 169.627705 
L 133.76345 168.228603 
L 134.406266 167.43371 
L 135.691898 165.218113 
L 136.334714 163.917601 
L 136.97753 162.936898 
L 137.620346 161.722632 
L 138.263162 160.950316 
L 138.905978 159.587109 
L 143.40569 152.557491 
L 144.048506 151.934278 
L 144.691322 150.717088 
L 146.61977 148.137829 
L 148.548218 145.315099 
L 149.191034 144.450852 
L 149.83385 143.848267 
L 151.119482 141.9874 
L 152.405114 140.601941 
L 153.04793 139.561954 
L 153.690746 138.902684 
L 154.333562 137.987599 
L 156.904826 135.323555 
L 158.833274 132.974935 
L 160.118906 131.65006 
L 161.404538 130.071969 
L 162.69017 128.848282 
L 163.332986 128.22312 
L 163.975802 127.790266 
L 165.90425 125.905685 
L 167.832698 124.234851 
L 169.761146 122.710684 
L 170.403962 121.997652 
L 172.33241 120.758374 
L 172.975226 120.061421 
L 174.260858 119.258245 
L 176.832122 117.405174 
L 177.474938 116.810547 
L 178.117754 116.582507 
L 178.76057 116.034171 
L 179.403386 115.795898 
L 181.331834 114.479306 
L 181.97465 114.124414 
L 182.617466 113.93698 
L 184.545914 112.687631 
L 185.18873 112.077574 
L 186.474362 111.838002 
L 187.117178 111.321987 
L 188.40281 110.723138 
L 190.331258 109.87757 
L 190.974074 109.845248 
L 192.902522 108.714629 
L 193.545338 108.593787 
L 195.473786 107.609348 
L 196.759418 107.350448 
L 197.402234 107.062149 
L 199.330682 106.559291 
L 199.973498 106.218855 
L 200.616314 106.122538 
L 201.25913 105.735325 
L 201.901946 105.477886 
L 202.544762 105.402197 
L 203.830394 104.958623 
L 207.044474 104.16909 
L 207.68729 103.830603 
L 208.972922 103.623515 
L 211.544186 102.880923 
L 212.187002 102.937121 
L 212.829818 102.818877 
L 213.472634 102.540161 
L 215.401082 102.139792 
L 216.043898 102.234808 
L 216.686714 102.129721 
L 217.32953 101.81641 
L 217.972346 101.869197 
L 218.615162 101.577649 
L 219.257978 101.517066 
L 219.900794 101.8627 
L 220.54361 101.43082 
L 221.829242 101.117021 
L 222.472058 101.173381 
L 225.043322 100.78032 
L 225.686138 100.817515 
L 226.97177 100.359485 
L 228.257402 100.595647 
L 229.543034 100.010928 
L 230.18585 100.335447 
L 230.828666 100.007355 
L 232.114298 100.107894 
L 233.39993 99.733836 
L 234.042746 99.801891 
L 235.328378 99.703139 
L 235.971194 99.810012 
L 237.899642 99.449436 
L 238.542458 99.574013 
L 239.185274 99.209376 
L 239.82809 99.417926 
L 241.113722 99.247708 
L 241.756538 99.365951 
L 242.399354 99.335415 
L 243.04217 99.053289 
L 243.684986 99.144082 
L 244.970618 98.98361 
L 245.613434 99.16536 
L 246.25625 99.109162 
L 246.899066 98.906947 
L 248.827514 98.757843 
L 249.47033 98.877873 
L 251.398778 98.597046 
L 252.041594 98.843115 
L 255.255674 98.63424 
L 255.89849 98.678094 
L 257.184122 98.592985 
L 257.826938 98.57853 
L 258.469754 98.352276 
L 259.11257 98.553517 
L 259.755386 98.628068 
L 260.398202 98.368193 
L 261.683834 98.233058 
L 262.969466 98.340744 
L 263.612282 98.289094 
L 264.897914 98.468732 
L 265.54073 98.298352 
L 266.183546 98.43641 
L 267.469178 98.214867 
L 268.75481 98.373066 
L 269.397626 98.10442 
L 270.683258 98.30761 
L 271.326074 98.172312 
L 271.96889 98.435923 
L 272.611706 98.254985 
L 273.254522 98.335709 
L 274.540154 98.222176 
L 275.18297 98.306473 
L 275.825786 98.018174 
L 276.468602 98.210319 
L 282.896762 98.054394 
L 283.539578 98.148436 
L 285.468026 98.119363 
L 286.110842 98.245727 
L 286.753658 98.047572 
L 287.396474 97.974483 
L 288.03929 98.210319 
L 288.682106 98.075022 
L 289.324922 98.149573 
L 289.967738 97.986177 
L 290.610554 97.986339 
L 291.25337 98.174424 
L 291.896186 97.953043 
L 295.110266 98.058617 
L 295.753082 97.888724 
L 296.395898 98.130245 
L 297.038714 97.848768 
L 297.68153 98.137392 
L 298.324346 97.925594 
L 298.967162 98.056668 
L 302.824058 98.006805 
L 303.466874 98.139341 
L 304.10969 97.943135 
L 306.680954 98.073722 
L 307.32377 98.012977 
L 307.966586 97.753589 
L 308.609402 98.050983 
L 309.252218 97.923807 
L 309.895034 98.026133 
L 310.53785 97.821644 
L 311.180666 98.097761 
L 311.823482 97.881577 
L 312.466298 97.879466 
L 313.109114 98.008429 
L 313.75193 97.919259 
L 315.037562 98.061703 
L 315.680378 97.696416 
L 316.96601 98.05683 
L 318.894458 97.960027 
L 319.537274 98.039451 
L 320.822906 97.782662 
L 321.465722 98.023859 
L 322.108538 97.8871 
L 322.751354 97.900743 
L 323.39417 98.096299 
L 324.036986 97.900418 
L 324.679801 98.116764 
L 325.965434 97.884501 
L 326.60825 98.145026 
L 327.251066 97.837561 
L 327.893882 98.00047 
L 328.536698 97.85088 
L 329.179514 98.132681 
L 329.82233 97.925918 
L 332.393594 98.018012 
L 333.679226 98.039289 
L 334.322042 97.79793 
L 336.25049 98.021098 
L 336.893306 98.040101 
L 337.536122 97.940861 
L 338.178938 98.069662 
L 338.821754 98.062515 
L 339.46457 97.819532 
L 340.750202 98.027107 
L 341.393018 97.876217 
L 342.67865 97.773892 
L 343.321466 98.044811 
L 343.964282 97.924457 
L 345.249914 98.012164 
L 346.535546 97.944922 
L 347.178362 98.013301 
L 347.821178 97.885638 
L 353.606522 97.940536 
L 354.249338 98.114653 
L 354.892154 97.837236 
L 355.53497 97.814659 
L 356.177786 98.006642 
L 356.820602 97.861924 
L 357.463418 97.879953 
L 358.106234 97.766745 
L 359.391866 97.983416 
L 360.034682 97.798255 
L 360.677498 97.989425 
L 361.320314 97.85088 
L 362.605946 97.818233 
L 363.248762 97.956129 
L 364.534394 97.936151 
L 365.17721 97.749041 
L 367.748474 97.818395 
L 368.39129 97.68391 
L 369.676922 97.80264 
L 370.319738 97.660846 
L 371.60537 97.809624 
L 372.248186 97.825054 
L 372.891002 97.642167 
L 373.533818 97.760086 
L 374.176634 97.698203 
L 374.81945 97.785261 
L 375.462266 97.488841 
L 376.747898 97.660684 
L 377.390714 97.52165 
L 385.747322 97.67384 
L 386.390138 97.406168 
L 390.88985 97.182838 
L 391.532666 96.995891 
L 392.175482 97.220683 
L 392.818298 97.250568 
L 393.461114 97.022203 
L 394.10393 97.170657 
L 394.746746 96.986145 
L 396.032378 97.074503 
L 396.675194 96.904285 
L 397.960826 97.017818 
L 400.53209 96.783281 
L 401.174906 96.929785 
L 401.817722 96.761029 
L 402.460538 96.798873 
L 403.103354 96.59812 
L 405.031802 96.464446 
L 405.674618 96.290493 
L 406.317434 96.562062 
L 406.96025 96.405812 
L 408.245882 96.531364 
L 408.888698 96.174036 
L 409.531514 96.338894 
L 410.17433 96.218215 
L 412.102778 96.234295 
L 412.745594 95.872094 
L 414.031226 96.063102 
L 414.674042 95.99862 
L 415.316858 96.202785 
L 415.959674 95.935763 
L 416.60249 95.887524 
L 417.245306 95.484068 
L 418.530938 95.726889 
L 418.530938 95.726889 
" clip-path="url(#p37e3121db0)" style="fill: none; stroke: #d62728; stroke-width: 1.5; stroke-linecap: square"/>
   </g>
   <g id="line2d_27">
    <path d="M 61.410938 297.54825 
L 63.267962 297.429195 
L 64.83929 297.150641 
L 68.553338 295.85354 
L 69.053306 295.607633 
L 73.267322 292.980784 
L 73.553018 292.671371 
L 73.910138 292.447229 
L 74.552954 291.856825 
L 74.83865 291.729649 
L 75.338618 291.245956 
L 75.981434 290.697133 
L 80.90969 285.454642 
L 81.123962 285.145228 
L 82.052474 284.066585 
L 82.123898 284.048718 
L 82.33817 283.633081 
L 82.766714 283.082795 
L 82.838138 283.082958 
L 83.266682 282.514969 
L 83.40953 282.321362 
L 84.195194 281.257011 
L 84.266618 281.271629 
L 84.48089 280.822533 
L 84.766586 280.45351 
L 84.83801 280.456434 
L 85.123706 279.951951 
L 85.266554 279.793752 
L 86.480762 278.138186 
L 86.695034 277.725635 
L 86.837882 277.524069 
L 87.837818 275.980087 
L 87.980666 275.914631 
L 88.194938 275.528879 
L 88.480634 275.03203 
L 88.694906 274.728951 
L 88.909178 274.441302 
L 88.980602 274.39761 
L 89.194874 273.853335 
L 89.551994 273.337808 
L 89.694842 273.1723 
L 89.909114 272.835762 
L 89.980538 272.788172 
L 90.19481 272.244221 
L 91.62329 270.034634 
L 91.98041 269.481912 
L 92.194682 268.99822 
L 92.408954 268.688644 
L 92.766074 268.023202 
L 93.76601 266.255727 
L 93.908858 266.062607 
L 94.12313 265.736464 
L 94.623098 264.743741 
L 94.694522 264.687219 
L 95.051642 263.944139 
L 95.123066 263.949986 
L 95.337338 263.46207 
L 95.408762 263.388169 
L 95.480186 263.096784 
L 95.55161 263.2186 
L 96.26585 261.710188 
L 96.408698 261.655614 
L 99.694202 255.452561 
L 100.337018 253.957142 
L 102.265466 250.297453 
L 108.05081 238.538921 
L 109.336442 235.721226 
L 113.836154 226.25934 
L 117.050234 219.205845 
L 120.264314 212.334913 
L 120.90713 210.878801 
L 121.549946 209.756141 
L 123.478394 205.340377 
L 124.12121 204.294705 
L 127.33529 197.404119 
L 127.978106 196.220389 
L 128.620922 194.625568 
L 129.263738 193.549523 
L 131.192186 189.512853 
L 136.97753 178.068607 
L 137.620346 176.974696 
L 138.905978 174.438478 
L 140.834426 170.891185 
L 142.120058 168.445761 
L 145.334138 162.950217 
L 151.119482 153.280593 
L 153.690746 149.422586 
L 154.333562 148.292292 
L 155.619194 146.615124 
L 156.26201 145.480607 
L 156.904826 144.743861 
L 157.547642 143.826503 
L 158.190458 143.106162 
L 158.833274 141.949556 
L 160.761722 139.614416 
L 162.047354 137.606882 
L 162.69017 137.167531 
L 165.261434 133.920393 
L 165.90425 133.342496 
L 168.475514 130.304232 
L 169.11833 129.781721 
L 169.761146 128.720944 
L 170.403962 128.1359 
L 171.689594 126.77854 
L 172.975226 125.636715 
L 174.903674 123.929985 
L 175.54649 123.082631 
L 176.189306 122.645391 
L 177.474938 121.541247 
L 181.331834 118.493888 
L 181.97465 117.892927 
L 184.545914 116.002336 
L 185.831546 115.065487 
L 186.474362 114.82559 
L 187.117178 114.35213 
L 187.759994 114.074064 
L 188.40281 113.438182 
L 189.045626 113.238241 
L 190.974074 112.057759 
L 192.259706 111.230706 
L 193.545338 110.615777 
L 196.116602 109.298861 
L 196.759418 109.106391 
L 197.402234 108.567475 
L 198.04505 108.50413 
L 198.687866 108.236459 
L 199.973498 107.557536 
L 202.544762 106.615489 
L 203.187578 106.489125 
L 203.830394 105.992276 
L 205.116026 105.734025 
L 205.758842 105.337066 
L 210.258554 104.035255 
L 210.90137 103.932767 
L 211.544186 103.649178 
L 212.187002 103.492928 
L 212.829818 103.177342 
L 213.472634 103.475224 
L 214.11545 102.98406 
L 215.401082 102.738803 
L 216.686714 102.642325 
L 217.32953 102.319593 
L 217.972346 102.269242 
L 219.257978 101.829079 
L 219.900794 101.792534 
L 220.54361 101.589506 
L 221.186426 101.671854 
L 222.472058 101.252156 
L 223.114874 101.297634 
L 223.75769 101.07739 
L 225.043322 101.07333 
L 226.328954 100.525318 
L 226.97177 100.843015 
L 227.614586 100.451416 
L 228.257402 100.635115 
L 228.900218 100.336421 
L 229.543034 100.360297 
L 230.18585 100.170101 
L 230.828666 100.364845 
L 231.471482 100.132582 
L 234.042746 99.820082 
L 234.685562 99.907465 
L 235.328378 99.622902 
L 235.971194 99.480296 
L 237.256826 99.755276 
L 237.899642 99.485981 
L 238.542458 99.604711 
L 239.185274 99.471363 
L 239.82809 99.108512 
L 240.470906 99.291562 
L 241.113722 99.203204 
L 241.756538 99.320148 
L 242.399354 99.30618 
L 243.04217 99.03526 
L 243.684986 99.091783 
L 244.327802 99.355069 
L 244.970618 99.117283 
L 248.827514 98.741601 
L 250.113146 98.866341 
L 250.755962 98.791952 
L 251.398778 98.596396 
L 252.68441 98.603218 
L 262.32665 98.407499 
L 262.969466 98.164679 
L 263.612282 98.501379 
L 264.255098 98.237606 
L 264.897914 98.41627 
L 268.75481 98.111729 
L 269.397626 98.294616 
L 270.040442 98.161105 
L 270.683258 98.284871 
L 271.326074 98.233708 
L 271.96889 98.06755 
L 272.611706 98.290068 
L 274.540154 98.066413 
L 275.18297 98.249625 
L 275.825786 98.081843 
L 277.111418 98.068525 
L 279.039866 98.263269 
L 279.682682 98.149573 
L 280.968314 98.180596 
L 281.61113 97.97562 
L 282.253946 98.144863 
L 282.896762 98.05683 
L 283.539578 98.230947 
L 284.182394 98.058455 
L 284.82521 98.188879 
L 285.468026 97.963113 
L 286.753658 98.133981 
L 289.324922 98.046111 
L 289.967738 98.09435 
L 290.610554 97.970747 
L 291.25337 98.050496 
L 291.896186 97.898956 
L 292.539002 98.117901 
L 297.038714 98.021422 
L 297.68153 98.122124 
L 298.324346 98.105882 
L 298.967162 97.978056 
L 299.609978 98.1192 
L 300.89561 97.904479 
L 301.538426 98.091426 
L 302.181242 98.009566 
L 302.824058 98.093538 
L 304.10969 98.013789 
L 305.395322 98.044486 
L 306.038138 97.936151 
L 306.680954 98.082818 
L 307.32377 97.992836 
L 309.252218 98.11985 
L 310.53785 98.194727 
L 311.180666 97.939399 
L 311.823482 97.905128 
L 313.109114 98.07421 
L 313.75193 97.920396 
L 314.394746 98.002906 
L 316.323194 97.89246 
L 318.251642 97.997709 
L 318.894458 97.997546 
L 319.537274 97.859975 
L 321.465722 98.028407 
L 322.108538 97.839835 
L 322.751354 97.974158 
L 324.036986 97.870045 
L 324.679801 98.034254 
L 325.322618 97.940049 
L 325.965434 98.070799 
L 326.60825 97.955642 
L 327.251066 97.969935 
L 327.893882 97.859163 
L 329.179514 97.942648 
L 330.465146 97.977406 
L 331.107962 97.90188 
L 331.750778 98.071936 
L 334.322042 98.123261 
L 334.964858 97.945734 
L 335.607674 98.04741 
L 336.25049 98.023534 
L 336.893306 97.768694 
L 337.536122 98.015738 
L 338.178938 97.844383 
L 340.107386 97.99641 
L 340.750202 97.924619 
L 341.393018 98.042375 
L 342.035834 97.789971 
L 342.67865 97.920559 
L 343.964282 97.987151 
L 344.607098 98.138366 
L 345.249914 97.929979 
L 348.463994 97.808 
L 349.10681 98.049197 
L 349.749626 97.859163 
L 351.035258 98.079245 
L 351.678074 97.8858 
L 352.32089 98.05748 
L 352.963706 97.881577 
L 353.606522 97.891647 
L 354.249338 97.755051 
L 355.53497 97.942648 
L 356.177786 97.862736 
L 356.820602 97.973183 
L 357.463418 97.883526 
L 358.106234 97.962301 
L 358.74905 97.866797 
L 359.391866 98.072423 
L 360.034682 97.868584 
L 360.677498 97.942648 
L 362.605946 97.791271 
L 363.891578 98.041725 
L 364.534394 97.654674 
L 365.17721 97.952231 
L 365.820026 97.902367 
L 366.462842 97.724353 
L 367.105658 97.696741 
L 367.748474 97.920396 
L 369.034106 97.842921 
L 370.962554 97.841621 
L 371.60537 97.595552 
L 372.248186 97.631448 
L 372.891002 97.786073 
L 374.176634 97.674652 
L 374.81945 97.608059 
L 375.462266 97.707948 
L 378.676346 97.467564 
L 379.961978 97.702426 
L 381.24761 97.483644 
L 381.890426 97.603186 
L 382.533242 97.474548 
L 383.176058 97.549749 
L 385.104506 97.293285 
L 385.747322 97.462042 
L 386.390138 97.264049 
L 387.67577 97.55982 
L 388.318586 97.31505 
L 388.961402 97.444662 
L 389.604218 97.311639 
L 392.175482 97.171306 
L 392.818298 97.073691 
L 394.746746 97.12664 
L 395.389562 97.116733 
L 396.032378 96.973477 
L 397.31801 97.107962 
L 397.960826 96.838179 
L 398.603642 96.932221 
L 399.246458 96.886418 
L 399.889274 97.011808 
L 400.53209 96.710678 
L 401.174906 96.904447 
L 401.817722 96.696872 
L 402.460538 96.758917 
L 403.74617 96.614199 
L 404.388986 96.772561 
L 405.031802 96.468507 
L 405.674618 96.492383 
L 406.317434 96.706617 
L 406.96025 96.401589 
L 409.531514 96.196775 
L 410.17433 96.442519 
L 410.817146 96.316155 
L 412.102778 96.207982 
L 412.745594 96.170788 
L 414.031226 95.914648 
L 418.530938 95.664519 
L 418.530938 95.664519 
" clip-path="url(#p37e3121db0)" style="fill: none; stroke: #9467bd; stroke-width: 1.5; stroke-linecap: square"/>
   </g>
   <g id="line2d_28">
    <path d="M 61.410938 297.54825 
L 63.339386 297.429682 
L 64.696442 297.186049 
L 67.33913 296.429326 
L 67.839098 296.198524 
L 68.196218 296.092625 
L 68.481914 295.939299 
L 71.553146 294.37339 
L 71.98169 294.080705 
L 73.124474 293.347858 
L 73.41017 293.154576 
L 74.767226 292.158442 
L 74.83865 292.158605 
L 74.910074 291.93966 
L 74.981498 292.003492 
L 75.695738 291.3897 
L 75.838586 291.352668 
L 76.338554 290.877259 
L 76.409978 290.870112 
L 76.62425 290.650518 
L 76.98137 290.351337 
L 78.40985 289.041079 
L 78.76697 288.669133 
L 79.12409 288.406822 
L 79.409786 288.002392 
L 79.552634 287.99086 
L 79.83833 287.66293 
L 79.981178 287.511715 
L 80.19545 287.280914 
L 80.266874 287.328178 
L 80.838266 286.602477 
L 81.123962 286.362743 
L 81.338234 286.088087 
L 81.481082 285.989497 
L 81.909626 285.480792 
L 82.123898 285.282637 
L 82.409594 284.912315 
L 82.481018 284.944312 
L 82.69529 284.525102 
L 82.766714 284.561159 
L 82.980986 284.342215 
L 83.338106 283.840818 
L 83.40953 283.864369 
L 83.623802 283.537577 
L 83.76665 283.476831 
L 83.909498 283.257561 
L 84.12377 282.983393 
L 84.409466 282.664234 
L 84.83801 282.08585 
L 84.909434 282.106315 
L 85.052282 281.849364 
L 85.123706 281.852612 
L 85.55225 281.30054 
L 85.837946 280.92096 
L 86.052218 280.624053 
L 86.337914 280.33884 
L 87.909242 278.303369 
L 88.123514 277.980799 
L 88.40921 277.609828 
L 88.623482 277.311946 
L 89.337722 276.37461 
L 89.83769 275.635752 
L 90.051962 275.391307 
L 90.123386 275.171876 
L 90.19481 275.201436 
L 91.551866 273.226549 
L 91.62329 273.317505 
L 91.98041 272.676913 
L 92.623226 271.716025 
L 92.908922 271.383385 
L 93.194618 270.752539 
L 93.551738 270.337551 
L 93.837434 269.815202 
L 93.980282 269.801234 
L 94.12313 269.457224 
L 94.194554 269.425552 
L 94.48025 268.831413 
L 94.551674 268.827352 
L 95.051642 267.966841 
L 95.123066 267.972688 
L 95.408762 267.359383 
L 95.694458 267.068161 
L 95.90873 266.597462 
L 95.980154 266.618577 
L 96.194426 266.138133 
L 96.694394 265.361432 
L 98.40857 262.637779 
L 99.694202 260.44752 
L 100.337018 259.482897 
L 100.979834 258.147627 
L 102.265466 256.03533 
L 109.979258 241.958389 
L 111.26489 239.405604 
L 111.907706 238.222523 
L 112.550522 236.788663 
L 113.836154 234.392615 
L 115.764602 230.624265 
L 118.335866 225.521945 
L 119.621498 222.890548 
L 121.549946 219.099621 
L 122.192762 217.533874 
L 124.12121 213.815875 
L 125.406842 211.065748 
L 134.406266 192.870113 
L 135.049082 191.977605 
L 136.334714 189.135384 
L 138.263162 185.485602 
L 138.905978 184.006101 
L 140.19161 181.564576 
L 144.048506 174.324296 
L 144.691322 173.398166 
L 147.905402 167.239778 
L 148.548218 166.325343 
L 149.191034 164.968471 
L 150.476666 162.866407 
L 155.619194 154.112355 
L 156.26201 153.22943 
L 157.547642 151.021954 
L 158.190458 150.159656 
L 159.47609 148.20231 
L 162.047354 144.487397 
L 162.69017 143.801652 
L 163.332986 142.589173 
L 165.261434 139.826702 
L 165.90425 139.197317 
L 166.547066 138.149533 
L 167.189882 137.67916 
L 168.475514 135.835346 
L 169.11833 135.278727 
L 169.761146 134.088499 
L 170.403962 133.439786 
L 171.046778 132.483934 
L 172.33241 131.298741 
L 174.903674 128.102928 
L 175.54649 127.668937 
L 176.189306 126.88379 
L 177.474938 125.678132 
L 178.117754 124.927581 
L 178.76057 124.403445 
L 180.689018 122.360016 
L 181.331834 122.036309 
L 181.97465 121.227285 
L 182.617466 120.803364 
L 184.545914 119.054568 
L 185.18873 118.634383 
L 187.117178 116.896469 
L 187.759994 116.637406 
L 191.61689 113.724694 
L 192.259706 113.532224 
L 192.902522 112.840794 
L 196.116602 110.987074 
L 203.187578 107.24731 
L 203.830394 107.157978 
L 204.47321 106.730483 
L 205.758842 106.379652 
L 207.044474 105.911715 
L 208.330106 105.415841 
L 209.615738 104.941406 
L 211.544186 104.2797 
L 212.187002 103.952095 
L 212.829818 103.77538 
L 213.472634 103.799418 
L 214.11545 103.360879 
L 214.758266 103.522327 
L 215.401082 103.097269 
L 216.686714 102.952388 
L 217.32953 102.631605 
L 218.615162 102.384561 
L 219.257978 102.207034 
L 220.54361 101.99816 
L 221.186426 101.773368 
L 221.829242 101.785387 
L 222.472058 101.458432 
L 223.114874 101.562869 
L 223.75769 101.406132 
L 224.400506 101.104352 
L 225.043322 101.089084 
L 226.328954 100.855035 
L 227.614586 100.85471 
L 228.257402 100.814429 
L 228.900218 100.55228 
L 230.18585 100.322453 
L 230.828666 100.196739 
L 231.471482 100.231984 
L 232.114298 100.068425 
L 234.685562 99.848831 
L 235.328378 99.73611 
L 235.971194 99.776878 
L 236.61401 99.601138 
L 240.470906 99.355393 
L 242.399354 99.060435 
L 243.04217 99.243322 
L 243.684986 98.958109 
L 244.327802 99.09227 
L 245.613434 98.871051 
L 246.25625 99.028113 
L 246.899066 98.798611 
L 247.541882 99.031037 
L 249.47033 98.700671 
L 250.113146 98.637976 
L 251.398778 98.705219 
L 252.041594 98.737703 
L 253.327226 98.543609 
L 253.970042 98.790977 
L 254.612858 98.597695 
L 255.89849 98.593147 
L 257.184122 98.430563 
L 257.826938 98.520545 
L 258.469754 98.407499 
L 259.11257 98.589899 
L 260.398202 98.43641 
L 261.041018 98.396292 
L 261.683834 98.49878 
L 262.969466 98.484325 
L 263.612282 98.278049 
L 264.255098 98.336521 
L 264.897914 98.169226 
L 266.183546 98.376802 
L 267.469178 98.303062 
L 268.111994 98.207071 
L 268.75481 98.421143 
L 270.683258 98.118713 
L 271.326074 98.264568 
L 271.96889 98.112379 
L 273.897338 98.018174 
L 274.540154 98.267979 
L 276.468602 98.273176 
L 277.111418 97.946708 
L 278.39705 98.384435 
L 279.682682 98.080706 
L 280.325498 98.155421 
L 280.968314 98.093375 
L 281.61113 98.260183 
L 282.253946 98.187255 
L 283.539578 98.263594 
L 284.182394 98.034904 
L 288.682106 98.058455 
L 289.324922 97.939562 
L 290.610554 98.222988 
L 291.25337 97.903829 
L 291.896186 98.076971 
L 293.824634 98.179459 
L 294.46745 98.015088 
L 295.110266 98.031817 
L 295.753082 97.896195 
L 296.395898 98.083143 
L 297.68153 98.08428 
L 298.324346 97.931116 
L 298.967162 98.182707 
L 299.609978 97.820994 
L 300.252794 98.001932 
L 300.89561 98.041725 
L 302.181242 97.887424 
L 302.824058 98.057318 
L 303.466874 97.940374 
L 306.038138 98.049359 
L 306.680954 97.957103 
L 307.32377 98.109618 
L 307.966586 97.974483 
L 313.75193 97.944922 
L 314.394746 98.096299 
L 315.037562 97.760411 
L 315.680378 97.648827 
L 316.323194 98.108156 
L 316.96601 97.884988 
L 319.537274 98.025321 
L 320.18009 97.899281 
L 322.108538 98.043025 
L 322.751354 97.862736 
L 323.39417 98.03604 
L 324.036986 97.95824 
L 325.965434 97.983091 
L 326.60825 97.869233 
L 327.251066 98.09435 
L 327.893882 97.973346 
L 328.536698 98.066576 
L 329.179514 97.908864 
L 329.82233 97.941673 
L 330.465146 97.854778 
L 331.107962 98.027595 
L 331.750778 97.940699 
L 332.393594 97.65776 
L 333.679226 98.187255 
L 334.964858 98.033279 
L 337.536122 98.009403 
L 338.178938 97.813685 
L 339.46457 97.748879 
L 340.107386 98.107831 
L 340.750202 97.865497 
L 342.67865 98.074534 
L 343.321466 97.867934 
L 343.964282 98.023859 
L 344.607098 97.915523 
L 345.249914 97.991699 
L 345.89273 97.876055 
L 347.178362 98.10442 
L 347.821178 97.979842 
L 348.463994 98.023209 
L 349.749626 97.751802 
L 350.392442 98.074859 
L 351.035258 97.87037 
L 351.678074 97.868908 
L 352.32089 98.054719 
L 353.606522 97.964737 
L 354.892154 97.930141 
L 355.53497 97.926893 
L 356.177786 97.809787 
L 356.820602 98.015088 
L 357.463418 97.807026 
L 358.106234 98.046273 
L 358.74905 97.87638 
L 359.391866 97.980979 
L 361.320314 97.765608 
L 361.96313 97.966849 
L 363.248762 97.823593 
L 363.891578 97.737509 
L 364.534394 97.840322 
L 366.462842 97.868096 
L 367.105658 97.932578 
L 368.39129 97.617642 
L 369.034106 97.927867 
L 369.676922 97.563718 
L 371.60537 97.859325 
L 372.248186 97.643304 
L 372.891002 97.58532 
L 374.176634 97.699502 
L 376.105082 97.659871 
L 376.747898 97.702101 
L 377.390714 97.446287 
L 378.676346 97.564855 
L 379.319162 97.44986 
L 379.961978 97.556084 
L 380.604794 97.435729 
L 381.24761 97.632909 
L 381.890426 97.430694 
L 382.533242 97.692031 
L 383.176058 97.432156 
L 383.818874 97.576711 
L 384.46169 97.440115 
L 385.104506 97.512717 
L 386.390138 97.40292 
L 394.746746 97.120144 
L 395.389562 96.835905 
L 396.032378 96.89795 
L 396.675194 96.81609 
L 397.31801 96.974126 
L 398.603642 96.89324 
L 399.889274 96.897138 
L 400.53209 96.729844 
L 403.74617 96.705805 
L 404.388986 96.631903 
L 405.031802 96.723997 
L 405.674618 96.44723 
L 406.317434 96.378688 
L 407.603066 96.483775 
L 408.245882 96.339382 
L 408.888698 96.459249 
L 409.531514 96.288219 
L 410.17433 96.373003 
L 411.459962 96.302674 
L 412.102778 96.103707 
L 412.745594 96.205546 
L 414.031226 95.903441 
L 414.674042 95.939336 
L 415.316858 95.857313 
L 415.959674 95.980754 
L 416.60249 95.736147 
L 417.245306 95.846269 
L 417.888122 95.696678 
L 418.530938 95.697978 
L 418.530938 95.697978 
" clip-path="url(#p37e3121db0)" style="fill: none; stroke: #8c564b; stroke-width: 1.5; stroke-linecap: square"/>
   </g>
   <g id="line2d_29">
    <path d="M 61.410938 297.54825 
L 63.267962 297.43293 
L 64.410746 297.238836 
L 65.767802 296.925362 
L 68.267642 296.052507 
L 68.624762 295.898206 
L 68.910458 295.773304 
L 69.48185 295.500273 
L 69.767546 295.385603 
L 70.124666 295.177215 
L 72.053114 294.05017 
L 72.124538 294.094836 
L 72.33881 293.860949 
L 72.767354 293.638268 
L 73.910138 292.811703 
L 74.052986 292.711489 
L 74.410106 292.480363 
L 74.552954 292.401426 
L 74.767226 292.183943 
L 75.052922 291.967272 
L 75.695738 291.463439 
L 75.767162 291.493 
L 75.981434 291.287212 
L 76.409978 290.933782 
L 76.695674 290.684302 
L 77.767034 289.753624 
L 77.981306 289.533218 
L 78.124154 289.439825 
L 78.338426 289.187259 
L 78.481274 289.184173 
L 78.552698 288.981308 
L 78.624122 289.091593 
L 78.838394 288.833342 
L 79.624058 288.02172 
L 80.55257 287.17339 
L 80.623994 287.179075 
L 80.766842 286.885579 
L 80.838266 286.881518 
L 81.052538 286.637561 
L 81.195386 286.573566 
L 81.481082 286.216238 
L 81.552506 286.249535 
L 81.838202 285.888958 
L 81.909626 285.841044 
L 82.123898 285.545436 
L 82.266746 285.382852 
L 82.69529 284.927583 
L 82.909562 284.786763 
L 83.838074 283.728747 
L 83.909498 283.749862 
L 84.12377 283.407802 
L 84.195194 283.420795 
L 84.338042 283.180736 
L 84.48089 283.07841 
L 84.766586 282.644094 
L 84.909434 282.615183 
L 85.266554 282.058076 
L 85.337978 282.05369 
L 85.55225 281.806484 
L 85.695098 281.85115 
L 85.90937 281.33741 
L 85.980794 281.407414 
L 86.552186 280.645005 
L 86.62361 280.631362 
L 86.837882 280.324872 
L 86.909306 280.341926 
L 87.123578 279.944155 
L 87.33785 279.699873 
L 87.409274 279.754771 
L 87.766394 279.179473 
L 87.837818 279.20075 
L 88.05209 278.813699 
L 88.123514 278.820845 
L 88.337786 278.481546 
L 88.552058 278.347386 
L 88.694906 277.99623 
L 88.837754 277.937108 
L 90.766202 275.319842 
L 90.90905 275.382049 
L 91.337594 274.643355 
L 91.409018 274.675839 
L 92.266106 273.526704 
L 92.980346 272.59489 
L 93.194618 272.198093 
L 93.266042 272.238212 
L 93.480314 271.870651 
L 93.551738 271.834268 
L 93.694586 271.446567 
L 93.76601 271.494482 
L 94.12313 270.996821 
L 94.194554 270.97863 
L 94.408826 270.562343 
L 94.48025 270.540416 
L 94.83737 269.921426 
L 94.908794 269.962519 
L 95.337338 269.211155 
L 95.480186 269.277911 
L 95.694458 268.855126 
L 95.837306 268.712033 
L 96.123002 268.305816 
L 96.194426 268.045291 
L 96.26585 268.126339 
L 96.62297 267.478763 
L 96.765818 267.432148 
L 97.122938 266.704986 
L 97.122938 266.863834 
L 106.765178 252.576394 
L 107.407994 251.366838 
L 109.979258 247.515978 
L 110.622074 246.366518 
L 111.907706 244.54983 
L 117.050234 236.295063 
L 117.69305 235.357401 
L 118.978682 233.179324 
L 120.264314 231.213532 
L 120.90713 230.054165 
L 121.549946 229.24173 
L 122.835578 226.890187 
L 124.12121 225.014051 
L 126.049658 221.877685 
L 127.33529 219.884119 
L 129.263738 216.855763 
L 131.192186 213.877596 
L 131.835002 212.734633 
L 132.477818 211.937466 
L 134.406266 208.679121 
L 135.049082 207.955044 
L 136.334714 205.936628 
L 138.905978 201.889562 
L 140.834426 199.078689 
L 141.477242 198.231334 
L 142.120058 197.135961 
L 142.762874 196.320928 
L 143.40569 195.10991 
L 145.334138 192.463084 
L 147.905402 188.593057 
L 150.476666 184.985992 
L 151.119482 184.372038 
L 152.405114 182.306194 
L 153.04793 181.553206 
L 153.690746 180.532385 
L 154.333562 179.777935 
L 156.904826 176.021442 
L 157.547642 175.432825 
L 158.190458 174.63176 
L 158.833274 173.57748 
L 165.90425 164.646064 
L 166.547066 164.009532 
L 167.832698 162.388887 
L 171.046778 158.459577 
L 171.689594 157.866574 
L 172.975226 156.221566 
L 173.618042 155.77182 
L 174.260858 154.816129 
L 175.54649 153.392989 
L 176.189306 152.506328 
L 176.832122 152.070875 
L 178.117754 150.677133 
L 178.76057 150.076984 
L 179.403386 149.276244 
L 181.331834 147.340825 
L 184.545914 143.974794 
L 185.831546 142.710015 
L 186.474362 142.099471 
L 187.117178 141.670027 
L 189.045626 139.537753 
L 189.688442 139.072577 
L 192.259706 136.558124 
L 193.545338 135.359126 
L 194.188154 134.655676 
L 194.83097 134.18108 
L 196.759418 132.043608 
L 197.402234 131.724774 
L 198.687866 130.432545 
L 199.330682 129.916693 
L 199.973498 129.151361 
L 201.25913 128.046405 
L 203.187578 125.925825 
L 203.830394 125.496707 
L 204.47321 124.779939 
L 205.758842 123.693986 
L 206.401658 122.93775 
L 207.68729 121.846438 
L 209.615738 119.650494 
L 210.90137 118.486904 
L 211.544186 117.543882 
L 212.187002 117.199223 
L 214.11545 115.218975 
L 216.043898 113.481386 
L 217.972346 111.449489 
L 218.615162 110.961736 
L 219.900794 109.646768 
L 220.54361 109.248997 
L 223.75769 106.527943 
L 225.043322 105.591094 
L 225.686138 105.06842 
L 226.328954 104.775899 
L 228.900218 102.962134 
L 229.543034 102.78753 
L 230.18585 102.493059 
L 230.828666 102.019924 
L 231.471482 102.005469 
L 232.114298 101.545327 
L 234.042746 100.787142 
L 237.256826 99.705412 
L 237.899642 99.868646 
L 239.185274 99.381706 
L 239.82809 99.34776 
L 240.470906 99.589606 
L 241.113722 99.137098 
L 243.684986 99.118907 
L 244.327802 98.852535 
L 244.970618 98.723735 
L 245.613434 98.822812 
L 246.25625 98.77977 
L 246.899066 98.611176 
L 248.184698 98.700996 
L 248.827514 98.574307 
L 250.113146 98.829471 
L 250.755962 98.61475 
L 253.327226 98.646584 
L 253.970042 98.797312 
L 254.612858 98.505115 
L 255.255674 98.733805 
L 256.541306 98.532402 
L 257.184122 98.802184 
L 258.469754 98.630017 
L 259.11257 98.697585 
L 260.398202 98.496831 
L 261.683834 98.573332 
L 262.32665 98.646747 
L 262.969466 98.576418 
L 264.255098 98.584214 
L 264.897914 98.532402 
L 266.183546 98.66104 
L 266.826362 98.521357 
L 268.111994 98.550593 
L 268.75481 98.590224 
L 269.397626 98.394018 
L 270.040442 98.522494 
L 271.326074 98.473443 
L 272.611706 98.490659 
L 273.254522 98.240854 
L 273.897338 98.438684 
L 275.18297 98.372091 
L 275.825786 98.529641 
L 276.468602 98.269116 
L 277.754234 98.28747 
L 278.39705 98.532727 
L 279.039866 98.296565 
L 280.968314 98.393369 
L 282.253946 98.217141 
L 282.896762 98.429751 
L 283.539578 98.266192 
L 284.182394 98.37469 
L 284.82521 98.227861 
L 286.753658 98.114165 
L 288.03929 98.118713 
L 288.682106 98.241017 
L 289.324922 98.090452 
L 290.610554 98.239717 
L 295.753082 98.026945 
L 296.395898 98.241991 
L 297.038714 98.061378 
L 297.68153 98.199924 
L 298.324346 98.048872 
L 298.967162 98.017037 
L 299.609978 98.162405 
L 300.89561 97.965874 
L 302.181242 98.098735 
L 305.395322 97.909839 
L 306.038138 98.166465 
L 307.32377 97.920396 
L 307.966586 98.138529 
L 308.609402 97.962788 
L 309.252218 97.947845 
L 309.895034 98.218765 
L 310.53785 97.82408 
L 311.823482 98.053095 
L 313.75193 98.132032 
L 314.394746 97.942161 
L 315.680378 97.84422 
L 316.96601 97.97432 
L 317.608826 97.921858 
L 318.251642 97.744168 
L 318.894458 97.95889 
L 319.537274 97.848606 
L 322.108538 97.924457 
L 322.751354 98.144701 
L 324.036986 97.79192 
L 324.679801 98.038477 
L 325.322618 97.930304 
L 325.965434 98.044162 
L 327.251066 97.852829 
L 327.893882 98.056506 
L 328.536698 97.929979 
L 329.82233 98.092563 
L 330.465146 97.916011 
L 332.393594 98.057967 
L 333.679226 98.022722 
L 334.322042 97.797443 
L 334.964858 98.014601 
L 335.607674 97.802965 
L 336.893306 97.976919 
L 338.821754 97.857052 
L 339.46457 98.064139 
L 341.393018 97.956454 
L 342.035834 97.982929 
L 342.67865 98.16143 
L 343.964282 97.80264 
L 345.249914 98.038152 
L 350.392442 97.943947 
L 351.035258 98.00583 
L 351.678074 97.903991 
L 352.32089 97.991862 
L 354.249338 97.81271 
L 354.892154 97.949632 
L 355.53497 97.896195 
L 356.177786 97.964737 
L 357.463418 97.757325 
L 358.74905 97.952068 
L 359.391866 97.877517 
L 360.034682 97.980817 
L 360.677498 97.788672 
L 361.96313 97.872644 
L 362.605946 97.666531 
L 364.534394 97.794194 
L 365.17721 97.817421 
L 365.820026 97.721917 
L 368.39129 97.736535 
L 369.034106 97.933552 
L 369.676922 97.688133 
L 370.319738 97.791271 
L 370.962554 97.687808 
L 372.248186 97.831551 
L 372.891002 97.678225 
L 375.462266 97.532208 
L 376.105082 97.737834 
L 379.961978 97.450347 
L 380.604794 97.558845 
L 384.46169 97.248294 
L 385.104506 97.460255 
L 387.67577 97.424685 
L 388.318586 97.265674 
L 388.961402 97.438328 
L 389.604218 97.180727 
L 390.247034 97.143207 
L 390.88985 97.248782 
L 394.746746 97.029187 
L 395.389562 97.192259 
L 396.032378 96.988582 
L 398.603642 96.893403 
L 399.246458 96.838179 
L 399.889274 96.927186 
L 400.53209 96.740888 
L 401.817722 96.854746 
L 402.460538 96.681442 
L 403.103354 96.703856 
L 403.74617 96.569858 
L 404.388986 96.70743 
L 405.031802 96.410035 
L 405.674618 96.280585 
L 406.317434 96.517396 
L 407.603066 96.411984 
L 408.245882 96.525355 
L 408.888698 96.308521 
L 409.531514 96.422542 
L 412.745594 95.898406 
L 413.38841 96.215291 
L 414.031226 95.914486 
L 414.674042 95.997646 
L 415.316858 95.81687 
L 416.60249 96.002519 
L 417.245306 95.653474 
L 417.888122 95.87453 
L 418.530938 95.586556 
L 418.530938 95.586556 
" clip-path="url(#p37e3121db0)" style="fill: none; stroke: #e377c2; stroke-width: 1.5; stroke-linecap: square"/>
   </g>
   <g id="line2d_30">
    <path d="M 61.410938 297.54825 
L 63.267962 297.441539 
L 67.196282 296.489097 
L 67.624826 296.296465 
L 67.910522 296.198037 
L 68.196218 296.084829 
L 68.696186 295.850129 
L 69.196154 295.642392 
L 69.48185 295.491664 
L 71.26745 294.534675 
L 71.410298 294.480588 
L 71.838842 294.155419 
L 71.98169 294.107992 
L 72.481658 293.766581 
L 72.69593 293.667829 
L 73.76729 292.969902 
L 73.981562 292.773697 
L 74.12441 292.674619 
L 74.624378 292.251673 
L 74.83865 292.196287 
L 75.052922 291.969546 
L 75.19577 291.89808 
L 75.481466 291.669065 
L 75.767162 291.447684 
L 76.052858 291.209087 
L 76.195706 291.123328 
L 76.552826 290.769086 
L 76.62425 290.792637 
L 76.909946 290.495242 
L 77.267066 290.200772 
L 77.33849 290.041273 
L 77.409914 290.151071 
L 78.195578 289.33149 
L 78.338426 289.273505 
L 79.052666 288.571355 
L 79.195514 288.499565 
L 79.766906 287.922642 
L 79.909754 287.760058 
L 80.338298 287.344583 
L 80.481146 287.253789 
L 82.69529 284.998561 
L 82.909562 284.761913 
L 82.980986 284.780104 
L 83.05241 284.47199 
L 83.123834 284.532898 
L 83.195258 284.489369 
L 83.266682 284.269774 
L 83.338106 284.362842 
L 83.909498 283.614077 
L 83.980922 283.614565 
L 84.266618 283.257724 
L 84.338042 283.231736 
L 84.552314 282.921186 
L 84.623738 282.972349 
L 84.909434 282.494179 
L 84.980858 282.481347 
L 85.123706 282.213514 
L 85.19513 282.259479 
L 85.409402 282.015196 
L 85.623674 281.739891 
L 85.837946 281.464911 
L 88.980602 277.780533 
L 89.266298 277.353201 
L 94.623098 270.326993 
L 94.83737 269.972102 
L 94.908794 270.051201 
L 95.123066 269.510824 
L 95.19449 269.558738 
L 95.837306 268.569101 
L 95.980154 268.51404 
L 96.051578 268.208525 
L 96.123002 268.253191 
L 96.26585 268.096454 
L 96.62297 267.50605 
L 96.765818 267.363769 
L 96.837242 267.04932 
L 96.908666 267.072221 
L 97.122938 266.918246 
L 97.122938 266.952029 
L 100.979834 261.10874 
L 102.265466 259.359456 
L 104.193914 256.375604 
L 108.05081 250.519646 
L 112.550522 243.548174 
L 113.193338 242.367692 
L 114.47897 240.429349 
L 117.69305 235.300066 
L 121.549946 229.099936 
L 122.192762 227.99969 
L 123.478394 226.066058 
L 129.263738 216.920407 
L 129.906554 215.729205 
L 133.76345 209.873896 
L 134.406266 208.803699 
L 135.049082 208.065816 
L 136.334714 205.77047 
L 139.548794 200.866466 
L 140.19161 200.200699 
L 141.477242 198.007517 
L 142.762874 196.054718 
L 143.40569 195.377744 
L 144.048506 194.094449 
L 144.691322 193.470911 
L 145.976954 191.416924 
L 147.262586 189.490438 
L 149.191034 186.866675 
L 151.762298 183.189119 
L 152.405114 182.138087 
L 153.690746 180.647542 
L 154.333562 179.583841 
L 154.976378 178.906217 
L 156.26201 176.908753 
L 158.190458 174.527161 
L 158.833274 173.552629 
L 159.47609 172.869321 
L 160.761722 171.010565 
L 162.047354 169.337944 
L 162.69017 168.417987 
L 163.332986 168.022165 
L 163.975802 167.007028 
L 166.547066 164.085221 
L 167.189882 162.981402 
L 167.832698 162.570637 
L 169.11833 160.763856 
L 169.761146 160.180924 
L 171.046778 158.479879 
L 171.689594 157.783902 
L 172.33241 157.254731 
L 173.618042 155.499763 
L 174.903674 154.271041 
L 175.54649 153.3173 
L 176.189306 152.828085 
L 177.474938 151.304081 
L 178.117754 150.893154 
L 178.76057 150.006493 
L 179.403386 149.444675 
L 180.046202 148.558339 
L 180.689018 148.066526 
L 181.97465 146.692924 
L 182.617466 146.21248 
L 183.260282 145.120193 
L 183.903098 144.510461 
L 184.545914 144.223787 
L 185.831546 142.93773 
L 186.474362 142.138452 
L 187.117178 141.698614 
L 187.759994 140.829657 
L 188.40281 140.652617 
L 189.045626 139.818743 
L 189.688442 139.374844 
L 193.545338 135.829174 
L 194.188154 135.452681 
L 194.83097 134.735426 
L 195.473786 134.218437 
L 196.116602 133.522459 
L 196.759418 133.165781 
L 199.973498 130.621929 
L 204.47321 127.076747 
L 205.116026 126.881029 
L 205.758842 126.203567 
L 206.401658 125.938007 
L 207.68729 124.881453 
L 208.330106 124.497163 
L 208.972922 123.977575 
L 209.615738 123.660365 
L 211.544186 122.175667 
L 212.829818 121.421217 
L 213.472634 121.221113 
L 214.758266 120.240085 
L 215.401082 120.092931 
L 216.043898 119.463546 
L 217.32953 118.839521 
L 217.972346 118.284688 
L 218.615162 117.937918 
L 219.257978 117.843388 
L 220.54361 116.89257 
L 221.186426 116.650237 
L 221.829242 116.261237 
L 222.472058 116.058697 
L 223.114874 115.540408 
L 223.75769 115.349887 
L 224.400506 114.933925 
L 225.043322 114.694353 
L 225.686138 114.133672 
L 226.328954 114.155112 
L 227.614586 113.420316 
L 228.257402 113.292165 
L 228.900218 112.734083 
L 229.543034 112.662293 
L 230.18585 112.197929 
L 230.828666 111.974923 
L 232.757114 110.999742 
L 234.042746 110.635755 
L 235.328378 110.051361 
L 235.971194 109.805454 
L 236.61401 109.367565 
L 237.256826 109.283918 
L 237.899642 108.924641 
L 239.185274 108.623023 
L 244.327802 106.666976 
L 244.970618 106.655932 
L 245.613434 106.376079 
L 246.899066 106.091678 
L 247.541882 105.694069 
L 248.184698 105.662072 
L 251.398778 104.670812 
L 252.68441 104.481428 
L 253.327226 104.118252 
L 255.89849 103.574464 
L 257.826938 103.159963 
L 258.469754 102.878974 
L 259.755386 102.681306 
L 261.683834 102.439785 
L 262.32665 102.067189 
L 262.969466 102.079695 
L 263.612282 101.93449 
L 264.255098 102.097075 
L 264.897914 101.740396 
L 265.54073 101.761024 
L 266.183546 101.559458 
L 266.826362 101.524537 
L 268.75481 101.065371 
L 269.397626 101.073654 
L 270.683258 100.79169 
L 271.326074 100.590774 
L 273.254522 100.482439 
L 273.897338 100.449142 
L 275.18297 100.125111 
L 276.468602 99.986077 
L 277.111418 99.825117 
L 277.754234 99.835025 
L 278.39705 99.707524 
L 279.039866 99.793445 
L 280.325498 99.490041 
L 282.253946 99.426209 
L 284.82521 99.207427 
L 285.468026 99.313813 
L 286.110842 99.042082 
L 286.753658 99.12914 
L 287.396474 98.895902 
L 289.324922 98.917991 
L 291.896186 98.609552 
L 292.539002 98.704894 
L 293.181818 98.634727 
L 293.824634 98.801535 
L 294.46745 98.419194 
L 295.110266 98.350814 
L 295.753082 98.592823 
L 297.68153 98.253361 
L 298.324346 98.518596 
L 300.252794 98.26473 
L 302.181242 98.345941 
L 303.466874 98.192778 
L 305.395322 98.074372 
L 306.680954 98.204634 
L 307.966586 98.110267 
L 309.252218 98.095487 
L 310.53785 97.880928 
L 312.466298 97.959052 
L 313.109114 97.843246 
L 313.75193 98.035716 
L 315.680378 97.884338 
L 316.323194 98.064464 
L 316.96601 97.873943 
L 317.608826 97.977244 
L 318.251642 97.867934 
L 318.894458 98.060404 
L 319.537274 98.066089 
L 320.18009 97.858513 
L 320.822906 98.014926 
L 321.465722 97.904479 
L 322.108538 98.073397 
L 322.751354 97.833663 
L 323.39417 98.143889 
L 324.036986 97.963113 
L 324.679801 98.039614 
L 325.965434 97.946384 
L 326.60825 98.047572 
L 327.251066 97.930466 
L 328.536698 97.984553 
L 330.465146 97.872482 
L 331.107962 97.961164 
L 332.393594 97.852341 
L 333.03641 98.03669 
L 334.964858 97.844058 
L 335.607674 98.024184 
L 337.536122 97.783637 
L 338.178938 97.924619 
L 338.821754 97.744331 
L 339.46457 98.043187 
L 340.750202 97.799717 
L 342.035834 97.983091 
L 342.67865 97.972371 
L 343.321466 98.126185 
L 343.964282 98.018336 
L 344.607098 97.729875 
L 345.249914 98.018174 
L 345.89273 97.842758 
L 346.535546 97.856727 
L 347.178362 98.040101 
L 347.821178 97.923807 
L 348.463994 97.950282 
L 349.10681 97.661333 
L 349.749626 97.899281 
L 350.392442 97.886937 
L 351.035258 97.634696 
L 351.678074 97.922995 
L 352.32089 97.682935 
L 352.963706 97.817745 
L 353.606522 97.686184 
L 354.249338 97.827653 
L 355.53497 97.828953 
L 356.177786 97.839023 
L 356.820602 97.63096 
L 357.463418 97.694792 
L 358.106234 97.536106 
L 358.74905 97.850067 
L 360.034682 97.532045 
L 360.677498 97.452459 
L 362.605946 97.559982 
L 363.248762 97.533994 
L 363.891578 97.350133 
L 364.534394 97.431019 
L 365.17721 97.35598 
L 365.820026 97.165946 
L 369.034106 97.07028 
L 369.676922 96.937744 
L 371.60537 97.098541 
L 372.248186 97.010346 
L 372.891002 96.656754 
L 374.176634 96.763303 
L 374.81945 96.640187 
L 376.105082 96.655292 
L 376.747898 96.424815 
L 378.03353 96.37885 
L 378.676346 96.137978 
L 379.319162 96.306897 
L 379.961978 96.096723 
L 380.604794 96.156495 
L 381.24761 95.907502 
L 381.890426 96.081618 
L 382.533242 95.720879 
L 383.176058 95.82288 
L 383.818874 95.641942 
L 385.104506 95.567553 
L 386.390138 95.360302 
L 389.604218 94.951487 
L 390.247034 94.737415 
L 390.88985 94.668385 
L 391.532666 94.436934 
L 392.175482 94.453501 
L 392.818298 94.214416 
L 394.746746 94.096985 
L 395.389562 93.914098 
L 396.032378 93.571875 
L 397.31801 93.657309 
L 397.960826 93.248981 
L 398.603642 93.36901 
L 400.53209 92.882882 
L 401.817722 92.393992 
L 402.460538 92.562748 
L 403.74617 91.944895 
L 405.031802 91.734884 
L 405.674618 91.42482 
L 406.317434 91.538029 
L 406.96025 91.040693 
L 407.603066 91.131324 
L 408.245882 90.964354 
L 408.888698 90.604915 
L 414.031226 89.208736 
L 414.674042 88.852383 
L 415.316858 88.804306 
L 415.959674 88.478975 
L 417.245306 88.12993 
L 418.530938 87.547323 
L 418.530938 87.547323 
" clip-path="url(#p37e3121db0)" style="fill: none; stroke: #ff7f0e; stroke-opacity: 0.4; stroke-width: 1.5; stroke-linecap: square"/>
   </g>
   <g id="line2d_31">
    <path d="M 61.410938 297.54825 
L 418.530938 31.43625 
L 418.530938 31.43625 
" clip-path="url(#p37e3121db0)" style="fill: none; stroke-dasharray: 5.55,2.4; stroke-dashoffset: 0; stroke: #1f77b4; stroke-width: 1.5"/>
   </g>
   <g id="patch_3">
    <path d="M 61.410938 297.54825 
L 61.410938 31.43625 
" style="fill: none; stroke: #000000; stroke-width: 0.8; stroke-linejoin: miter; stroke-linecap: square"/>
   </g>
   <g id="patch_4">
    <path d="M 418.530938 297.54825 
L 418.530938 31.43625 
" style="fill: none; stroke: #000000; stroke-width: 0.8; stroke-linejoin: miter; stroke-linecap: square"/>
   </g>
   <g id="patch_5">
    <path d="M 61.410938 297.54825 
L 418.530938 297.54825 
" style="fill: none; stroke: #000000; stroke-width: 0.8; stroke-linejoin: miter; stroke-linecap: square"/>
   </g>
   <g id="patch_6">
    <path d="M 61.410938 31.43625 
L 418.530938 31.43625 
" style="fill: none; stroke: #000000; stroke-width: 0.8; stroke-linejoin: miter; stroke-linecap: square"/>
   </g>
   <g id="text_15">
    <!-- [[7, 1, 3]] Phenomenological -->
    <g transform="translate(69.164063 25.43625) scale(0.24 -0.24)">
     <defs>
      <path id="DejaVuSans-5b" d="M 550 4863 
L 1875 4863 
L 1875 4416 
L 1125 4416 
L 1125 -397 
L 1875 -397 
L 1875 -844 
L 550 -844 
L 550 4863 
z
" transform="scale(0.015625)"/>
      <path id="DejaVuSans-37" d="M 525 4666 
L 3525 4666 
L 3525 4397 
L 1831 0 
L 1172 0 
L 2766 4134 
L 525 4134 
L 525 4666 
z
" transform="scale(0.015625)"/>
      <path id="DejaVuSans-2c" d="M 750 794 
L 1409 794 
L 1409 256 
L 897 -744 
L 494 -744 
L 750 256 
L 750 794 
z
" transform="scale(0.015625)"/>
      <path id="DejaVuSans-33" d="M 2597 2516 
Q 3050 2419 3304 2112 
Q 3559 1806 3559 1356 
Q 3559 666 3084 287 
Q 2609 -91 1734 -91 
Q 1441 -91 1130 -33 
Q 819 25 488 141 
L 488 750 
Q 750 597 1062 519 
Q 1375 441 1716 441 
Q 2309 441 2620 675 
Q 2931 909 2931 1356 
Q 2931 1769 2642 2001 
Q 2353 2234 1838 2234 
L 1294 2234 
L 1294 2753 
L 1863 2753 
Q 2328 2753 2575 2939 
Q 2822 3125 2822 3475 
Q 2822 3834 2567 4026 
Q 2313 4219 1838 4219 
Q 1578 4219 1281 4162 
Q 984 4106 628 3988 
L 628 4550 
Q 988 4650 1302 4700 
Q 1616 4750 1894 4750 
Q 2613 4750 3031 4423 
Q 3450 4097 3450 3541 
Q 3450 3153 3228 2886 
Q 3006 2619 2597 2516 
z
" transform="scale(0.015625)"/>
      <path id="DejaVuSans-5d" d="M 1947 4863 
L 1947 -844 
L 622 -844 
L 622 -397 
L 1369 -397 
L 1369 4416 
L 622 4416 
L 622 4863 
L 1947 4863 
z
" transform="scale(0.015625)"/>
      <path id="DejaVuSans-65" d="M 3597 1894 
L 3597 1613 
L 953 1613 
Q 991 1019 1311 708 
Q 1631 397 2203 397 
Q 2534 397 2845 478 
Q 3156 559 3463 722 
L 3463 178 
Q 3153 47 2828 -22 
Q 2503 -91 2169 -91 
Q 1331 -91 842 396 
Q 353 884 353 1716 
Q 353 2575 817 3079 
Q 1281 3584 2069 3584 
Q 2775 3584 3186 3129 
Q 3597 2675 3597 1894 
z
M 3022 2063 
Q 3016 2534 2758 2815 
Q 2500 3097 2075 3097 
Q 1594 3097 1305 2825 
Q 1016 2553 972 2059 
L 3022 2063 
z
" transform="scale(0.015625)"/>
      <path id="DejaVuSans-6e" d="M 3513 2113 
L 3513 0 
L 2938 0 
L 2938 2094 
Q 2938 2591 2744 2837 
Q 2550 3084 2163 3084 
Q 1697 3084 1428 2787 
Q 1159 2491 1159 1978 
L 1159 0 
L 581 0 
L 581 3500 
L 1159 3500 
L 1159 2956 
Q 1366 3272 1645 3428 
Q 1925 3584 2291 3584 
Q 2894 3584 3203 3211 
Q 3513 2838 3513 2113 
z
" transform="scale(0.015625)"/>
      <path id="DejaVuSans-6d" d="M 3328 2828 
Q 3544 3216 3844 3400 
Q 4144 3584 4550 3584 
Q 5097 3584 5394 3201 
Q 5691 2819 5691 2113 
L 5691 0 
L 5113 0 
L 5113 2094 
Q 5113 2597 4934 2840 
Q 4756 3084 4391 3084 
Q 3944 3084 3684 2787 
Q 3425 2491 3425 1978 
L 3425 0 
L 2847 0 
L 2847 2094 
Q 2847 2600 2669 2842 
Q 2491 3084 2119 3084 
Q 1678 3084 1418 2786 
Q 1159 2488 1159 1978 
L 1159 0 
L 581 0 
L 581 3500 
L 1159 3500 
L 1159 2956 
Q 1356 3278 1631 3431 
Q 1906 3584 2284 3584 
Q 2666 3584 2933 3390 
Q 3200 3197 3328 2828 
z
" transform="scale(0.015625)"/>
     </defs>
     <use xlink:href="#DejaVuSans-5b"/>
     <use xlink:href="#DejaVuSans-5b" x="39.013672"/>
     <use xlink:href="#DejaVuSans-37" x="78.027344"/>
     <use xlink:href="#DejaVuSans-2c" x="141.650391"/>
     <use xlink:href="#DejaVuSans-20" x="173.4375"/>
     <use xlink:href="#DejaVuSans-31" x="205.224609"/>
     <use xlink:href="#DejaVuSans-2c" x="268.847656"/>
     <use xlink:href="#DejaVuSans-20" x="300.634766"/>
     <use xlink:href="#DejaVuSans-33" x="332.421875"/>
     <use xlink:href="#DejaVuSans-5d" x="396.044922"/>
     <use xlink:href="#DejaVuSans-5d" x="435.058594"/>
     <use xlink:href="#DejaVuSans-20" x="474.072266"/>
     <use xlink:href="#DejaVuSans-50" x="505.859375"/>
     <use xlink:href="#DejaVuSans-68" x="566.162109"/>
     <use xlink:href="#DejaVuSans-65" x="629.541016"/>
     <use xlink:href="#DejaVuSans-6e" x="691.064453"/>
     <use xlink:href="#DejaVuSans-6f" x="754.443359"/>
     <use xlink:href="#DejaVuSans-6d" x="815.625"/>
     <use xlink:href="#DejaVuSans-65" x="913.037109"/>
     <use xlink:href="#DejaVuSans-6e" x="974.560547"/>
     <use xlink:href="#DejaVuSans-6f" x="1037.939453"/>
     <use xlink:href="#DejaVuSans-6c" x="1099.121094"/>
     <use xlink:href="#DejaVuSans-6f" x="1126.904297"/>
     <use xlink:href="#DejaVuSans-67" x="1188.085938"/>
     <use xlink:href="#DejaVuSans-69" x="1251.5625"/>
     <use xlink:href="#DejaVuSans-63" x="1279.345703"/>
     <use xlink:href="#DejaVuSans-61" x="1334.326172"/>
     <use xlink:href="#DejaVuSans-6c" x="1395.605469"/>
    </g>
   </g>
   <g id="legend_1">
    <g id="patch_7">
     <path d="M 247.784063 291.54825 
L 410.130938 291.54825 
Q 412.530938 291.54825 412.530938 289.14825 
L 412.530938 184.66575 
Q 412.530938 182.26575 410.130938 182.26575 
L 247.784063 182.26575 
Q 245.384062 182.26575 245.384062 184.66575 
L 245.384062 289.14825 
Q 245.384062 291.54825 247.784063 291.54825 
z
" style="fill: #ffffff; opacity: 0.8; stroke: #cccccc; stroke-linejoin: miter"/>
    </g>
    <g id="line2d_32">
     <path d="M 250.184063 191.983875 
L 262.184062 191.983875 
L 274.184062 191.983875 
" style="fill: none; stroke: #2ca02c; stroke-width: 1.5; stroke-linecap: square"/>
    </g>
    <g id="text_16">
     <!-- measure 1 round -->
     <g transform="translate(283.784063 196.183875) scale(0.12 -0.12)">
      <defs>
       <path id="DejaVuSans-75" d="M 544 1381 
L 544 3500 
L 1119 3500 
L 1119 1403 
Q 1119 906 1312 657 
Q 1506 409 1894 409 
Q 2359 409 2629 706 
Q 2900 1003 2900 1516 
L 2900 3500 
L 3475 3500 
L 3475 0 
L 2900 0 
L 2900 538 
Q 2691 219 2414 64 
Q 2138 -91 1772 -91 
Q 1169 -91 856 284 
Q 544 659 544 1381 
z
M 1991 3584 
L 1991 3584 
z
" transform="scale(0.015625)"/>
       <path id="DejaVuSans-64" d="M 2906 2969 
L 2906 4863 
L 3481 4863 
L 3481 0 
L 2906 0 
L 2906 525 
Q 2725 213 2448 61 
Q 2172 -91 1784 -91 
Q 1150 -91 751 415 
Q 353 922 353 1747 
Q 353 2572 751 3078 
Q 1150 3584 1784 3584 
Q 2172 3584 2448 3432 
Q 2725 3281 2906 2969 
z
M 947 1747 
Q 947 1113 1208 752 
Q 1469 391 1925 391 
Q 2381 391 2643 752 
Q 2906 1113 2906 1747 
Q 2906 2381 2643 2742 
Q 2381 3103 1925 3103 
Q 1469 3103 1208 2742 
Q 947 2381 947 1747 
z
" transform="scale(0.015625)"/>
      </defs>
      <use xlink:href="#DejaVuSans-6d"/>
      <use xlink:href="#DejaVuSans-65" x="97.412109"/>
      <use xlink:href="#DejaVuSans-61" x="158.935547"/>
      <use xlink:href="#DejaVuSans-73" x="220.214844"/>
      <use xlink:href="#DejaVuSans-75" x="272.314453"/>
      <use xlink:href="#DejaVuSans-72" x="335.693359"/>
      <use xlink:href="#DejaVuSans-65" x="374.556641"/>
      <use xlink:href="#DejaVuSans-20" x="436.080078"/>
      <use xlink:href="#DejaVuSans-31" x="467.867188"/>
      <use xlink:href="#DejaVuSans-20" x="531.490234"/>
      <use xlink:href="#DejaVuSans-72" x="563.277344"/>
      <use xlink:href="#DejaVuSans-6f" x="602.140625"/>
      <use xlink:href="#DejaVuSans-75" x="663.322266"/>
      <use xlink:href="#DejaVuSans-6e" x="726.701172"/>
      <use xlink:href="#DejaVuSans-64" x="790.080078"/>
     </g>
    </g>
    <g id="line2d_33">
     <path d="M 250.184063 209.597625 
L 262.184062 209.597625 
L 274.184062 209.597625 
" style="fill: none; stroke: #d62728; stroke-width: 1.5; stroke-linecap: square"/>
    </g>
    <g id="text_17">
     <!-- measure 3 rounds -->
     <g transform="translate(283.784063 213.797625) scale(0.12 -0.12)">
      <use xlink:href="#DejaVuSans-6d"/>
      <use xlink:href="#DejaVuSans-65" x="97.412109"/>
      <use xlink:href="#DejaVuSans-61" x="158.935547"/>
      <use xlink:href="#DejaVuSans-73" x="220.214844"/>
      <use xlink:href="#DejaVuSans-75" x="272.314453"/>
      <use xlink:href="#DejaVuSans-72" x="335.693359"/>
      <use xlink:href="#DejaVuSans-65" x="374.556641"/>
      <use xlink:href="#DejaVuSans-20" x="436.080078"/>
      <use xlink:href="#DejaVuSans-33" x="467.867188"/>
      <use xlink:href="#DejaVuSans-20" x="531.490234"/>
      <use xlink:href="#DejaVuSans-72" x="563.277344"/>
      <use xlink:href="#DejaVuSans-6f" x="602.140625"/>
      <use xlink:href="#DejaVuSans-75" x="663.322266"/>
      <use xlink:href="#DejaVuSans-6e" x="726.701172"/>
      <use xlink:href="#DejaVuSans-64" x="790.080078"/>
      <use xlink:href="#DejaVuSans-73" x="853.556641"/>
     </g>
    </g>
    <g id="line2d_34">
     <path d="M 250.184063 227.211375 
L 262.184062 227.211375 
L 274.184062 227.211375 
" style="fill: none; stroke: #9467bd; stroke-width: 1.5; stroke-linecap: square"/>
    </g>
    <g id="text_18">
     <!-- measure 5 rounds -->
     <g transform="translate(283.784063 231.411375) scale(0.12 -0.12)">
      <defs>
       <path id="DejaVuSans-35" d="M 691 4666 
L 3169 4666 
L 3169 4134 
L 1269 4134 
L 1269 2991 
Q 1406 3038 1543 3061 
Q 1681 3084 1819 3084 
Q 2600 3084 3056 2656 
Q 3513 2228 3513 1497 
Q 3513 744 3044 326 
Q 2575 -91 1722 -91 
Q 1428 -91 1123 -41 
Q 819 9 494 109 
L 494 744 
Q 775 591 1075 516 
Q 1375 441 1709 441 
Q 2250 441 2565 725 
Q 2881 1009 2881 1497 
Q 2881 1984 2565 2268 
Q 2250 2553 1709 2553 
Q 1456 2553 1204 2497 
Q 953 2441 691 2322 
L 691 4666 
z
" transform="scale(0.015625)"/>
      </defs>
      <use xlink:href="#DejaVuSans-6d"/>
      <use xlink:href="#DejaVuSans-65" x="97.412109"/>
      <use xlink:href="#DejaVuSans-61" x="158.935547"/>
      <use xlink:href="#DejaVuSans-73" x="220.214844"/>
      <use xlink:href="#DejaVuSans-75" x="272.314453"/>
      <use xlink:href="#DejaVuSans-72" x="335.693359"/>
      <use xlink:href="#DejaVuSans-65" x="374.556641"/>
      <use xlink:href="#DejaVuSans-20" x="436.080078"/>
      <use xlink:href="#DejaVuSans-35" x="467.867188"/>
      <use xlink:href="#DejaVuSans-20" x="531.490234"/>
      <use xlink:href="#DejaVuSans-72" x="563.277344"/>
      <use xlink:href="#DejaVuSans-6f" x="602.140625"/>
      <use xlink:href="#DejaVuSans-75" x="663.322266"/>
      <use xlink:href="#DejaVuSans-6e" x="726.701172"/>
      <use xlink:href="#DejaVuSans-64" x="790.080078"/>
      <use xlink:href="#DejaVuSans-73" x="853.556641"/>
     </g>
    </g>
    <g id="line2d_35">
     <path d="M 250.184063 244.825125 
L 262.184062 244.825125 
L 274.184062 244.825125 
" style="fill: none; stroke: #8c564b; stroke-width: 1.5; stroke-linecap: square"/>
    </g>
    <g id="text_19">
     <!-- measure 7 rounds -->
     <g transform="translate(283.784063 249.025125) scale(0.12 -0.12)">
      <use xlink:href="#DejaVuSans-6d"/>
      <use xlink:href="#DejaVuSans-65" x="97.412109"/>
      <use xlink:href="#DejaVuSans-61" x="158.935547"/>
      <use xlink:href="#DejaVuSans-73" x="220.214844"/>
      <use xlink:href="#DejaVuSans-75" x="272.314453"/>
      <use xlink:href="#DejaVuSans-72" x="335.693359"/>
      <use xlink:href="#DejaVuSans-65" x="374.556641"/>
      <use xlink:href="#DejaVuSans-20" x="436.080078"/>
      <use xlink:href="#DejaVuSans-37" x="467.867188"/>
      <use xlink:href="#DejaVuSans-20" x="531.490234"/>
      <use xlink:href="#DejaVuSans-72" x="563.277344"/>
      <use xlink:href="#DejaVuSans-6f" x="602.140625"/>
      <use xlink:href="#DejaVuSans-75" x="663.322266"/>
      <use xlink:href="#DejaVuSans-6e" x="726.701172"/>
      <use xlink:href="#DejaVuSans-64" x="790.080078"/>
      <use xlink:href="#DejaVuSans-73" x="853.556641"/>
     </g>
    </g>
    <g id="line2d_36">
     <path d="M 250.184063 262.438875 
L 262.184062 262.438875 
L 274.184062 262.438875 
" style="fill: none; stroke: #e377c2; stroke-width: 1.5; stroke-linecap: square"/>
    </g>
    <g id="text_20">
     <!-- measure 101 rounds -->
     <g transform="translate(283.784063 266.638875) scale(0.12 -0.12)">
      <use xlink:href="#DejaVuSans-6d"/>
      <use xlink:href="#DejaVuSans-65" x="97.412109"/>
      <use xlink:href="#DejaVuSans-61" x="158.935547"/>
      <use xlink:href="#DejaVuSans-73" x="220.214844"/>
      <use xlink:href="#DejaVuSans-75" x="272.314453"/>
      <use xlink:href="#DejaVuSans-72" x="335.693359"/>
      <use xlink:href="#DejaVuSans-65" x="374.556641"/>
      <use xlink:href="#DejaVuSans-20" x="436.080078"/>
      <use xlink:href="#DejaVuSans-31" x="467.867188"/>
      <use xlink:href="#DejaVuSans-30" x="531.490234"/>
      <use xlink:href="#DejaVuSans-31" x="595.113281"/>
      <use xlink:href="#DejaVuSans-20" x="658.736328"/>
      <use xlink:href="#DejaVuSans-72" x="690.523438"/>
      <use xlink:href="#DejaVuSans-6f" x="729.386719"/>
      <use xlink:href="#DejaVuSans-75" x="790.568359"/>
      <use xlink:href="#DejaVuSans-6e" x="853.947266"/>
      <use xlink:href="#DejaVuSans-64" x="917.326172"/>
      <use xlink:href="#DejaVuSans-73" x="980.802734"/>
     </g>
    </g>
    <g id="line2d_37">
     <path d="M 250.184063 280.052625 
L 262.184062 280.052625 
L 274.184062 280.052625 
" style="fill: none; stroke: #ff7f0e; stroke-opacity: 0.4; stroke-width: 1.5; stroke-linecap: square"/>
    </g>
    <g id="text_21">
     <!-- no measure error -->
     <g transform="translate(283.784063 284.252625) scale(0.12 -0.12)">
      <use xlink:href="#DejaVuSans-6e"/>
      <use xlink:href="#DejaVuSans-6f" x="63.378906"/>
      <use xlink:href="#DejaVuSans-20" x="124.560547"/>
      <use xlink:href="#DejaVuSans-6d" x="156.347656"/>
      <use xlink:href="#DejaVuSans-65" x="253.759766"/>
      <use xlink:href="#DejaVuSans-61" x="315.283203"/>
      <use xlink:href="#DejaVuSans-73" x="376.5625"/>
      <use xlink:href="#DejaVuSans-75" x="428.662109"/>
      <use xlink:href="#DejaVuSans-72" x="492.041016"/>
      <use xlink:href="#DejaVuSans-65" x="530.904297"/>
      <use xlink:href="#DejaVuSans-20" x="592.427734"/>
      <use xlink:href="#DejaVuSans-65" x="624.214844"/>
      <use xlink:href="#DejaVuSans-72" x="685.738281"/>
      <use xlink:href="#DejaVuSans-72" x="725.101562"/>
      <use xlink:href="#DejaVuSans-6f" x="763.964844"/>
      <use xlink:href="#DejaVuSans-72" x="825.146484"/>
     </g>
    </g>
   </g>
  </g>
 </g>
 <defs>
  <clipPath id="p37e3121db0">
   <rect x="61.410938" y="31.43625" width="357.12" height="266.112"/>
  </clipPath>
 </defs>
</svg>
