<?xml version="1.0" encoding="utf-8" standalone="no"?>
<!DOCTYPE svg PUBLIC "-//W3C//DTD SVG 1.1//EN"
  "http://www.w3.org/Graphics/SVG/1.1/DTD/svg11.dtd">
<svg xmlns:xlink="http://www.w3.org/1999/xlink" width="437.12625pt" height="349.621687pt" viewBox="0 0 437.12625 349.621687" xmlns="http://www.w3.org/2000/svg" version="1.1">
 <defs>
  <style type="text/css">*{stroke-linejoin: round; stroke-linecap: butt}</style>
 </defs>
 <g id="figure_1">
  <g id="patch_1">
   <path d="M -0 349.621687 
L 437.12625 349.621687 
L 437.12625 0 
L -0 0 
L -0 349.621687 
z
" style="fill: none"/>
  </g>
  <g id="axes_1">
   <g id="patch_2">
    <path d="M 72.80625 297.54825 
L 429.92625 297.54825 
L 429.92625 31.43625 
L 72.80625 31.43625 
L 72.80625 297.54825 
z
" style="fill: none"/>
   </g>
   <g id="matplotlib.axis_1">
    <g id="xtick_1">
     <g id="line2d_1">
      <path d="M 285.048426 297.54825 
L 285.048426 31.43625 
" clip-path="url(#p15f64459f5)" style="fill: none; stroke: #b0b0b0; stroke-width: 0.8; stroke-linecap: square"/>
     </g>
     <g id="line2d_2">
      <defs>
       <path id="md39032bed2" d="M 0 0 
L 0 3.5 
" style="stroke: #000000; stroke-width: 0.8"/>
      </defs>
      <g>
       <use xlink:href="#md39032bed2" x="285.048426" y="297.54825" style="stroke: #000000; stroke-width: 0.8"/>
      </g>
     </g>
     <g id="text_1">
      <!-- $\mathdefault{10^{-1}}$ -->
      <g transform="translate(267.423426 315.945906) scale(0.15 -0.15)">
       <defs>
        <path id="DejaVuSans-31" d="M 794 531 
L 1825 531 
L 1825 4091 
L 703 3866 
L 703 4441 
L 1819 4666 
L 2450 4666 
L 2450 531 
L 3481 531 
L 3481 0 
L 794 0 
L 794 531 
z
" transform="scale(0.015625)"/>
        <path id="DejaVuSans-30" d="M 2034 4250 
Q 1547 4250 1301 3770 
Q 1056 3291 1056 2328 
Q 1056 1369 1301 889 
Q 1547 409 2034 409 
Q 2525 409 2770 889 
Q 3016 1369 3016 2328 
Q 3016 3291 2770 3770 
Q 2525 4250 2034 4250 
z
M 2034 4750 
Q 2819 4750 3233 4129 
Q 3647 3509 3647 2328 
Q 3647 1150 3233 529 
Q 2819 -91 2034 -91 
Q 1250 -91 836 529 
Q 422 1150 422 2328 
Q 422 3509 836 4129 
Q 1250 4750 2034 4750 
z
" transform="scale(0.015625)"/>
        <path id="DejaVuSans-2212" d="M 678 2272 
L 4684 2272 
L 4684 1741 
L 678 1741 
L 678 2272 
z
" transform="scale(0.015625)"/>
       </defs>
       <use xlink:href="#DejaVuSans-31" transform="translate(0 0.684375)"/>
       <use xlink:href="#DejaVuSans-30" transform="translate(63.623047 0.684375)"/>
       <use xlink:href="#DejaVuSans-2212" transform="translate(128.203125 38.965625) scale(0.7)"/>
       <use xlink:href="#DejaVuSans-31" transform="translate(186.855469 38.965625) scale(0.7)"/>
      </g>
     </g>
    </g>
    <g id="xtick_2">
     <g id="line2d_3">
      <defs>
       <path id="m00e623f56d" d="M 0 0 
L 0 2 
" style="stroke: #000000; stroke-width: 0.6"/>
      </defs>
      <g>
       <use xlink:href="#m00e623f56d" x="72.80625" y="297.54825" style="stroke: #000000; stroke-width: 0.6"/>
      </g>
     </g>
    </g>
    <g id="xtick_3">
     <g id="line2d_4">
      <g>
       <use xlink:href="#m00e623f56d" x="126.276344" y="297.54825" style="stroke: #000000; stroke-width: 0.6"/>
      </g>
     </g>
    </g>
    <g id="xtick_4">
     <g id="line2d_5">
      <g>
       <use xlink:href="#m00e623f56d" x="164.21398" y="297.54825" style="stroke: #000000; stroke-width: 0.6"/>
      </g>
     </g>
    </g>
    <g id="xtick_5">
     <g id="line2d_6">
      <g>
       <use xlink:href="#m00e623f56d" x="193.640696" y="297.54825" style="stroke: #000000; stroke-width: 0.6"/>
      </g>
     </g>
    </g>
    <g id="xtick_6">
     <g id="line2d_7">
      <g>
       <use xlink:href="#m00e623f56d" x="217.684074" y="297.54825" style="stroke: #000000; stroke-width: 0.6"/>
      </g>
     </g>
    </g>
    <g id="xtick_7">
     <g id="line2d_8">
      <g>
       <use xlink:href="#m00e623f56d" x="238.01246" y="297.54825" style="stroke: #000000; stroke-width: 0.6"/>
      </g>
     </g>
    </g>
    <g id="xtick_8">
     <g id="line2d_9">
      <g>
       <use xlink:href="#m00e623f56d" x="255.62171" y="297.54825" style="stroke: #000000; stroke-width: 0.6"/>
      </g>
     </g>
    </g>
    <g id="xtick_9">
     <g id="line2d_10">
      <g>
       <use xlink:href="#m00e623f56d" x="271.154168" y="297.54825" style="stroke: #000000; stroke-width: 0.6"/>
      </g>
     </g>
    </g>
    <g id="xtick_10">
     <g id="line2d_11">
      <g>
       <use xlink:href="#m00e623f56d" x="376.456156" y="297.54825" style="stroke: #000000; stroke-width: 0.6"/>
      </g>
     </g>
    </g>
    <g id="xtick_11">
     <g id="line2d_12">
      <g>
       <use xlink:href="#m00e623f56d" x="429.92625" y="297.54825" style="stroke: #000000; stroke-width: 0.6"/>
      </g>
     </g>
    </g>
    <g id="text_2">
     <!-- Physical Error -->
     <g transform="translate(183.139688 338.262312) scale(0.2 -0.2)">
      <defs>
       <path id="DejaVuSans-50" d="M 1259 4147 
L 1259 2394 
L 2053 2394 
Q 2494 2394 2734 2622 
Q 2975 2850 2975 3272 
Q 2975 3691 2734 3919 
Q 2494 4147 2053 4147 
L 1259 4147 
z
M 628 4666 
L 2053 4666 
Q 2838 4666 3239 4311 
Q 3641 3956 3641 3272 
Q 3641 2581 3239 2228 
Q 2838 1875 2053 1875 
L 1259 1875 
L 1259 0 
L 628 0 
L 628 4666 
z
" transform="scale(0.015625)"/>
       <path id="DejaVuSans-68" d="M 3513 2113 
L 3513 0 
L 2938 0 
L 2938 2094 
Q 2938 2591 2744 2837 
Q 2550 3084 2163 3084 
Q 1697 3084 1428 2787 
Q 1159 2491 1159 1978 
L 1159 0 
L 581 0 
L 581 4863 
L 1159 4863 
L 1159 2956 
Q 1366 3272 1645 3428 
Q 1925 3584 2291 3584 
Q 2894 3584 3203 3211 
Q 3513 2838 3513 2113 
z
" transform="scale(0.015625)"/>
       <path id="DejaVuSans-79" d="M 2059 -325 
Q 1816 -950 1584 -1140 
Q 1353 -1331 966 -1331 
L 506 -1331 
L 506 -850 
L 844 -850 
Q 1081 -850 1212 -737 
Q 1344 -625 1503 -206 
L 1606 56 
L 191 3500 
L 800 3500 
L 1894 763 
L 2988 3500 
L 3597 3500 
L 2059 -325 
z
" transform="scale(0.015625)"/>
       <path id="DejaVuSans-73" d="M 2834 3397 
L 2834 2853 
Q 2591 2978 2328 3040 
Q 2066 3103 1784 3103 
Q 1356 3103 1142 2972 
Q 928 2841 928 2578 
Q 928 2378 1081 2264 
Q 1234 2150 1697 2047 
L 1894 2003 
Q 2506 1872 2764 1633 
Q 3022 1394 3022 966 
Q 3022 478 2636 193 
Q 2250 -91 1575 -91 
Q 1294 -91 989 -36 
Q 684 19 347 128 
L 347 722 
Q 666 556 975 473 
Q 1284 391 1588 391 
Q 1994 391 2212 530 
Q 2431 669 2431 922 
Q 2431 1156 2273 1281 
Q 2116 1406 1581 1522 
L 1381 1569 
Q 847 1681 609 1914 
Q 372 2147 372 2553 
Q 372 3047 722 3315 
Q 1072 3584 1716 3584 
Q 2034 3584 2315 3537 
Q 2597 3491 2834 3397 
z
" transform="scale(0.015625)"/>
       <path id="DejaVuSans-69" d="M 603 3500 
L 1178 3500 
L 1178 0 
L 603 0 
L 603 3500 
z
M 603 4863 
L 1178 4863 
L 1178 4134 
L 603 4134 
L 603 4863 
z
" transform="scale(0.015625)"/>
       <path id="DejaVuSans-63" d="M 3122 3366 
L 3122 2828 
Q 2878 2963 2633 3030 
Q 2388 3097 2138 3097 
Q 1578 3097 1268 2742 
Q 959 2388 959 1747 
Q 959 1106 1268 751 
Q 1578 397 2138 397 
Q 2388 397 2633 464 
Q 2878 531 3122 666 
L 3122 134 
Q 2881 22 2623 -34 
Q 2366 -91 2075 -91 
Q 1284 -91 818 406 
Q 353 903 353 1747 
Q 353 2603 823 3093 
Q 1294 3584 2113 3584 
Q 2378 3584 2631 3529 
Q 2884 3475 3122 3366 
z
" transform="scale(0.015625)"/>
       <path id="DejaVuSans-61" d="M 2194 1759 
Q 1497 1759 1228 1600 
Q 959 1441 959 1056 
Q 959 750 1161 570 
Q 1363 391 1709 391 
Q 2188 391 2477 730 
Q 2766 1069 2766 1631 
L 2766 1759 
L 2194 1759 
z
M 3341 1997 
L 3341 0 
L 2766 0 
L 2766 531 
Q 2569 213 2275 61 
Q 1981 -91 1556 -91 
Q 1019 -91 701 211 
Q 384 513 384 1019 
Q 384 1609 779 1909 
Q 1175 2209 1959 2209 
L 2766 2209 
L 2766 2266 
Q 2766 2663 2505 2880 
Q 2244 3097 1772 3097 
Q 1472 3097 1187 3025 
Q 903 2953 641 2809 
L 641 3341 
Q 956 3463 1253 3523 
Q 1550 3584 1831 3584 
Q 2591 3584 2966 3190 
Q 3341 2797 3341 1997 
z
" transform="scale(0.015625)"/>
       <path id="DejaVuSans-6c" d="M 603 4863 
L 1178 4863 
L 1178 0 
L 603 0 
L 603 4863 
z
" transform="scale(0.015625)"/>
       <path id="DejaVuSans-20" transform="scale(0.015625)"/>
       <path id="DejaVuSans-45" d="M 628 4666 
L 3578 4666 
L 3578 4134 
L 1259 4134 
L 1259 2753 
L 3481 2753 
L 3481 2222 
L 1259 2222 
L 1259 531 
L 3634 531 
L 3634 0 
L 628 0 
L 628 4666 
z
" transform="scale(0.015625)"/>
       <path id="DejaVuSans-72" d="M 2631 2963 
Q 2534 3019 2420 3045 
Q 2306 3072 2169 3072 
Q 1681 3072 1420 2755 
Q 1159 2438 1159 1844 
L 1159 0 
L 581 0 
L 581 3500 
L 1159 3500 
L 1159 2956 
Q 1341 3275 1631 3429 
Q 1922 3584 2338 3584 
Q 2397 3584 2469 3576 
Q 2541 3569 2628 3553 
L 2631 2963 
z
" transform="scale(0.015625)"/>
       <path id="DejaVuSans-6f" d="M 1959 3097 
Q 1497 3097 1228 2736 
Q 959 2375 959 1747 
Q 959 1119 1226 758 
Q 1494 397 1959 397 
Q 2419 397 2687 759 
Q 2956 1122 2956 1747 
Q 2956 2369 2687 2733 
Q 2419 3097 1959 3097 
z
M 1959 3584 
Q 2709 3584 3137 3096 
Q 3566 2609 3566 1747 
Q 3566 888 3137 398 
Q 2709 -91 1959 -91 
Q 1206 -91 779 398 
Q 353 888 353 1747 
Q 353 2609 779 3096 
Q 1206 3584 1959 3584 
z
" transform="scale(0.015625)"/>
      </defs>
      <use xlink:href="#DejaVuSans-50"/>
      <use xlink:href="#DejaVuSans-68" x="60.302734"/>
      <use xlink:href="#DejaVuSans-79" x="123.681641"/>
      <use xlink:href="#DejaVuSans-73" x="182.861328"/>
      <use xlink:href="#DejaVuSans-69" x="234.960938"/>
      <use xlink:href="#DejaVuSans-63" x="262.744141"/>
      <use xlink:href="#DejaVuSans-61" x="317.724609"/>
      <use xlink:href="#DejaVuSans-6c" x="379.003906"/>
      <use xlink:href="#DejaVuSans-20" x="406.787109"/>
      <use xlink:href="#DejaVuSans-45" x="438.574219"/>
      <use xlink:href="#DejaVuSans-72" x="501.757812"/>
      <use xlink:href="#DejaVuSans-72" x="541.121094"/>
      <use xlink:href="#DejaVuSans-6f" x="579.984375"/>
      <use xlink:href="#DejaVuSans-72" x="641.166016"/>
     </g>
    </g>
   </g>
   <g id="matplotlib.axis_2">
    <g id="ytick_1">
     <g id="line2d_13">
      <path d="M 72.80625 277.5184 
L 429.92625 277.5184 
" clip-path="url(#p15f64459f5)" style="fill: none; stroke: #b0b0b0; stroke-width: 0.8; stroke-linecap: square"/>
     </g>
     <g id="line2d_14">
      <defs>
       <path id="m6f3f5b6aff" d="M 0 0 
L -3.5 0 
" style="stroke: #000000; stroke-width: 0.8"/>
      </defs>
      <g>
       <use xlink:href="#m6f3f5b6aff" x="72.80625" y="277.5184" style="stroke: #000000; stroke-width: 0.8"/>
      </g>
     </g>
     <g id="text_3">
      <!-- $\mathdefault{10^{-2}}$ -->
      <g transform="translate(30.55625 283.217228) scale(0.15 -0.15)">
       <defs>
        <path id="DejaVuSans-32" d="M 1228 531 
L 3431 531 
L 3431 0 
L 469 0 
L 469 531 
Q 828 903 1448 1529 
Q 2069 2156 2228 2338 
Q 2531 2678 2651 2914 
Q 2772 3150 2772 3378 
Q 2772 3750 2511 3984 
Q 2250 4219 1831 4219 
Q 1534 4219 1204 4116 
Q 875 4013 500 3803 
L 500 4441 
Q 881 4594 1212 4672 
Q 1544 4750 1819 4750 
Q 2544 4750 2975 4387 
Q 3406 4025 3406 3419 
Q 3406 3131 3298 2873 
Q 3191 2616 2906 2266 
Q 2828 2175 2409 1742 
Q 1991 1309 1228 531 
z
" transform="scale(0.015625)"/>
       </defs>
       <use xlink:href="#DejaVuSans-31" transform="translate(0 0.765625)"/>
       <use xlink:href="#DejaVuSans-30" transform="translate(63.623047 0.765625)"/>
       <use xlink:href="#DejaVuSans-2212" transform="translate(128.203125 39.046875) scale(0.7)"/>
       <use xlink:href="#DejaVuSans-32" transform="translate(186.855469 39.046875) scale(0.7)"/>
      </g>
     </g>
    </g>
    <g id="ytick_2">
     <g id="line2d_15">
      <path d="M 72.80625 148.211771 
L 429.92625 148.211771 
" clip-path="url(#p15f64459f5)" style="fill: none; stroke: #b0b0b0; stroke-width: 0.8; stroke-linecap: square"/>
     </g>
     <g id="line2d_16">
      <g>
       <use xlink:href="#m6f3f5b6aff" x="72.80625" y="148.211771" style="stroke: #000000; stroke-width: 0.8"/>
      </g>
     </g>
     <g id="text_4">
      <!-- $\mathdefault{10^{-1}}$ -->
      <g transform="translate(30.55625 153.9106) scale(0.15 -0.15)">
       <use xlink:href="#DejaVuSans-31" transform="translate(0 0.684375)"/>
       <use xlink:href="#DejaVuSans-30" transform="translate(63.623047 0.684375)"/>
       <use xlink:href="#DejaVuSans-2212" transform="translate(128.203125 38.965625) scale(0.7)"/>
       <use xlink:href="#DejaVuSans-31" transform="translate(186.855469 38.965625) scale(0.7)"/>
      </g>
     </g>
    </g>
    <g id="ytick_3">
     <g id="line2d_17">
      <defs>
       <path id="m25c94c0720" d="M 0 0 
L -2 0 
" style="stroke: #000000; stroke-width: 0.6"/>
      </defs>
      <g>
       <use xlink:href="#m25c94c0720" x="72.80625" y="297.54825" style="stroke: #000000; stroke-width: 0.6"/>
      </g>
     </g>
    </g>
    <g id="ytick_4">
     <g id="line2d_18">
      <g>
       <use xlink:href="#m25c94c0720" x="72.80625" y="290.049507" style="stroke: #000000; stroke-width: 0.6"/>
      </g>
     </g>
    </g>
    <g id="ytick_5">
     <g id="line2d_19">
      <g>
       <use xlink:href="#m25c94c0720" x="72.80625" y="283.435147" style="stroke: #000000; stroke-width: 0.6"/>
      </g>
     </g>
    </g>
    <g id="ytick_6">
     <g id="line2d_20">
      <g>
       <use xlink:href="#m25c94c0720" x="72.80625" y="238.593226" style="stroke: #000000; stroke-width: 0.6"/>
      </g>
     </g>
    </g>
    <g id="ytick_7">
     <g id="line2d_21">
      <g>
       <use xlink:href="#m25c94c0720" x="72.80625" y="215.823459" style="stroke: #000000; stroke-width: 0.6"/>
      </g>
     </g>
    </g>
    <g id="ytick_8">
     <g id="line2d_22">
      <g>
       <use xlink:href="#m25c94c0720" x="72.80625" y="199.668052" style="stroke: #000000; stroke-width: 0.6"/>
      </g>
     </g>
    </g>
    <g id="ytick_9">
     <g id="line2d_23">
      <g>
       <use xlink:href="#m25c94c0720" x="72.80625" y="187.136945" style="stroke: #000000; stroke-width: 0.6"/>
      </g>
     </g>
    </g>
    <g id="ytick_10">
     <g id="line2d_24">
      <g>
       <use xlink:href="#m25c94c0720" x="72.80625" y="176.898285" style="stroke: #000000; stroke-width: 0.6"/>
      </g>
     </g>
    </g>
    <g id="ytick_11">
     <g id="line2d_25">
      <g>
       <use xlink:href="#m25c94c0720" x="72.80625" y="168.241622" style="stroke: #000000; stroke-width: 0.6"/>
      </g>
     </g>
    </g>
    <g id="ytick_12">
     <g id="line2d_26">
      <g>
       <use xlink:href="#m25c94c0720" x="72.80625" y="160.742878" style="stroke: #000000; stroke-width: 0.6"/>
      </g>
     </g>
    </g>
    <g id="ytick_13">
     <g id="line2d_27">
      <g>
       <use xlink:href="#m25c94c0720" x="72.80625" y="154.128518" style="stroke: #000000; stroke-width: 0.6"/>
      </g>
     </g>
    </g>
    <g id="ytick_14">
     <g id="line2d_28">
      <g>
       <use xlink:href="#m25c94c0720" x="72.80625" y="109.286598" style="stroke: #000000; stroke-width: 0.6"/>
      </g>
     </g>
    </g>
    <g id="ytick_15">
     <g id="line2d_29">
      <g>
       <use xlink:href="#m25c94c0720" x="72.80625" y="86.516831" style="stroke: #000000; stroke-width: 0.6"/>
      </g>
     </g>
    </g>
    <g id="ytick_16">
     <g id="line2d_30">
      <g>
       <use xlink:href="#m25c94c0720" x="72.80625" y="70.361424" style="stroke: #000000; stroke-width: 0.6"/>
      </g>
     </g>
    </g>
    <g id="ytick_17">
     <g id="line2d_31">
      <g>
       <use xlink:href="#m25c94c0720" x="72.80625" y="57.830317" style="stroke: #000000; stroke-width: 0.6"/>
      </g>
     </g>
    </g>
    <g id="ytick_18">
     <g id="line2d_32">
      <g>
       <use xlink:href="#m25c94c0720" x="72.80625" y="47.591657" style="stroke: #000000; stroke-width: 0.6"/>
      </g>
     </g>
    </g>
    <g id="ytick_19">
     <g id="line2d_33">
      <g>
       <use xlink:href="#m25c94c0720" x="72.80625" y="38.934993" style="stroke: #000000; stroke-width: 0.6"/>
      </g>
     </g>
    </g>
    <g id="ytick_20">
     <g id="line2d_34">
      <g>
       <use xlink:href="#m25c94c0720" x="72.80625" y="31.43625" style="stroke: #000000; stroke-width: 0.6"/>
      </g>
     </g>
    </g>
    <g id="text_5">
     <!-- Logical Error -->
     <g transform="translate(22.396875 227.087562) rotate(-90) scale(0.2 -0.2)">
      <defs>
       <path id="DejaVuSans-4c" d="M 628 4666 
L 1259 4666 
L 1259 531 
L 3531 531 
L 3531 0 
L 628 0 
L 628 4666 
z
" transform="scale(0.015625)"/>
       <path id="DejaVuSans-67" d="M 2906 1791 
Q 2906 2416 2648 2759 
Q 2391 3103 1925 3103 
Q 1463 3103 1205 2759 
Q 947 2416 947 1791 
Q 947 1169 1205 825 
Q 1463 481 1925 481 
Q 2391 481 2648 825 
Q 2906 1169 2906 1791 
z
M 3481 434 
Q 3481 -459 3084 -895 
Q 2688 -1331 1869 -1331 
Q 1566 -1331 1297 -1286 
Q 1028 -1241 775 -1147 
L 775 -588 
Q 1028 -725 1275 -790 
Q 1522 -856 1778 -856 
Q 2344 -856 2625 -561 
Q 2906 -266 2906 331 
L 2906 616 
Q 2728 306 2450 153 
Q 2172 0 1784 0 
Q 1141 0 747 490 
Q 353 981 353 1791 
Q 353 2603 747 3093 
Q 1141 3584 1784 3584 
Q 2172 3584 2450 3431 
Q 2728 3278 2906 2969 
L 2906 3500 
L 3481 3500 
L 3481 434 
z
" transform="scale(0.015625)"/>
      </defs>
      <use xlink:href="#DejaVuSans-4c"/>
      <use xlink:href="#DejaVuSans-6f" x="53.962891"/>
      <use xlink:href="#DejaVuSans-67" x="115.144531"/>
      <use xlink:href="#DejaVuSans-69" x="178.621094"/>
      <use xlink:href="#DejaVuSans-63" x="206.404297"/>
      <use xlink:href="#DejaVuSans-61" x="261.384766"/>
      <use xlink:href="#DejaVuSans-6c" x="322.664062"/>
      <use xlink:href="#DejaVuSans-20" x="350.447266"/>
      <use xlink:href="#DejaVuSans-45" x="382.234375"/>
      <use xlink:href="#DejaVuSans-72" x="445.417969"/>
      <use xlink:href="#DejaVuSans-72" x="484.78125"/>
      <use xlink:href="#DejaVuSans-6f" x="523.644531"/>
      <use xlink:href="#DejaVuSans-72" x="584.826172"/>
     </g>
    </g>
   </g>
   <g id="line2d_35">
    <path d="M 71.480877 161.975228 
L 72.80625 161.1639 
L 74.118435 160.968694 
L 75.417691 160.497488 
L 76.704272 159.527348 
L 77.978422 159.312673 
L 80.490374 158.395069 
L 81.728631 157.469175 
L 82.95537 157.370237 
L 85.375135 156.089409 
L 90.085403 154.454318 
L 91.237144 153.66656 
L 92.378912 153.172791 
L 93.51088 152.810779 
L 94.633215 152.164246 
L 96.849628 151.527617 
L 99.029404 150.281654 
L 100.105929 150.294814 
L 101.173736 149.333778 
L 102.232966 149.223739 
L 103.283757 148.581448 
L 104.32624 148.517311 
L 106.386805 147.466785 
L 108.415668 146.811396 
L 110.413789 145.609779 
L 111.40161 145.339478 
L 114.321437 144.127497 
L 115.280521 143.899126 
L 117.178014 142.934256 
L 119.048591 142.250758 
L 119.974023 141.898624 
L 121.805629 140.849869 
L 122.711979 140.740541 
L 126.276344 139.294436 
L 127.152583 139.109632 
L 128.023038 138.502587 
L 128.887786 138.226178 
L 130.600452 137.329575 
L 131.448516 137.157871 
L 133.960468 135.80062 
L 134.787264 135.8922 
L 135.608908 135.362666 
L 136.425464 135.029922 
L 137.236996 134.841591 
L 138.845229 134.000497 
L 139.64205 133.672265 
L 140.434085 133.483941 
L 142.004026 132.690344 
L 142.782043 132.449335 
L 143.555497 131.914728 
L 145.088927 131.439039 
L 145.849007 131.286945 
L 146.604731 130.888232 
L 147.356148 130.618475 
L 148.103309 129.970004 
L 148.84626 129.890551 
L 149.585049 129.541403 
L 150.319722 129.378668 
L 151.776902 128.543249 
L 153.218157 128.229241 
L 154.64383 127.503235 
L 156.054255 127.038183 
L 157.449755 126.306892 
L 158.142005 126.262819 
L 158.830641 125.850682 
L 159.5157 125.773167 
L 160.197218 125.461659 
L 160.875232 124.881095 
L 161.549779 124.761997 
L 162.220892 124.506574 
L 162.888607 123.95355 
L 163.552958 124.007651 
L 164.21398 123.712183 
L 164.871704 123.206182 
L 165.526165 123.158771 
L 166.177393 122.964937 
L 166.825421 122.564718 
L 168.112002 122.089783 
L 170.648108 120.999368 
L 171.274587 120.719693 
L 171.898103 120.64139 
L 172.518686 120.216723 
L 173.751157 119.82046 
L 174.972216 119.144379 
L 175.578532 119.050292 
L 176.182073 118.755382 
L 177.380931 118.560575 
L 177.976298 118.010796 
L 179.159028 117.513154 
L 179.746438 117.473882 
L 180.331244 117.100974 
L 180.913468 116.9727 
L 181.493133 116.647038 
L 182.07026 116.500694 
L 183.216993 116.045186 
L 183.786642 115.909077 
L 185.480971 115.006984 
L 186.040945 114.970184 
L 186.59855 114.606702 
L 188.257358 114.052513 
L 188.805689 113.710663 
L 190.437134 113.075478 
L 190.976495 112.750625 
L 192.048643 112.614079 
L 192.581466 112.19794 
L 193.640696 111.915272 
L 194.167138 111.583829 
L 195.213758 111.20306 
L 195.73397 111.046698 
L 196.768277 110.500294 
L 197.282404 110.508175 
L 197.794535 110.378016 
L 198.304684 109.889994 
L 198.812868 109.631611 
L 199.319101 109.651272 
L 199.823398 109.385055 
L 200.325773 109.270319 
L 200.826243 108.878491 
L 201.32482 108.814216 
L 202.316354 108.191444 
L 202.80934 108.187074 
L 203.789816 107.563036 
L 204.277334 107.732148 
L 205.729167 107.045889 
L 207.64041 106.360433 
L 208.585744 105.808427 
L 209.055882 105.743064 
L 209.991159 105.358869 
L 210.456321 105.255892 
L 210.919849 104.97919 
L 211.842045 104.650168 
L 213.667312 103.913064 
L 214.570559 103.443454 
L 215.913934 102.985857 
L 216.358701 102.94145 
L 217.684074 102.326889 
L 218.122921 102.242017 
L 218.996259 101.815217 
L 219.430768 101.76453 
L 220.725772 101.142779 
L 221.154629 100.939462 
L 221.582096 100.886017 
L 222.008182 100.512003 
L 222.432896 100.324246 
L 222.856246 100.420607 
L 223.698891 99.837517 
L 224.118203 99.865333 
L 225.782243 99.130402 
L 226.194993 99.095515 
L 227.425548 98.45822 
L 228.239584 98.193581 
L 228.644726 98.02897 
L 229.048627 98.093802 
L 229.451294 97.676516 
L 230.252959 97.439253 
L 230.651971 97.352027 
L 231.04978 97.093779 
L 231.841815 96.829987 
L 232.236056 96.623342 
L 232.629122 96.634286 
L 233.411756 96.318196 
L 234.577067 95.897915 
L 234.963227 95.586603 
L 235.348259 95.425164 
L 235.732171 95.487057 
L 236.114968 95.307863 
L 236.496657 94.98983 
L 237.63514 94.657209 
L 238.763878 94.298717 
L 239.511039 93.838143 
L 240.25399 93.65245 
L 240.623902 93.629103 
L 240.992779 93.382478 
L 241.727452 93.178983 
L 242.093259 92.942009 
L 242.458055 92.930609 
L 242.821844 92.702586 
L 243.546425 92.483108 
L 243.907228 92.228679 
L 244.267047 92.228679 
L 244.625887 91.868973 
L 244.983753 91.945437 
L 246.05156 91.423462 
L 246.405583 91.570532 
L 246.758658 91.099968 
L 247.812247 90.907035 
L 248.509992 90.589565 
L 249.894503 89.98183 
L 250.238371 89.992404 
L 252.282962 89.069948 
L 252.620667 89.087646 
L 252.957508 88.829418 
L 253.293492 88.845017 
L 253.962902 88.461555 
L 254.628931 88.304347 
L 254.960688 88.047457 
L 255.291613 87.987375 
L 255.62171 87.745823 
L 255.950982 87.90967 
L 256.60707 87.492515 
L 257.259911 87.323619 
L 257.585123 87.102214 
L 257.909535 87.180196 
L 258.87801 86.66693 
L 259.199261 86.628222 
L 259.519732 86.453228 
L 259.839425 86.439307 
L 260.158345 86.20999 
L 260.793882 86.029496 
L 261.741479 85.642672 
L 262.682317 85.377716 
L 262.994444 85.145102 
L 263.926415 84.95788 
L 264.235615 84.732197 
L 264.544091 84.796094 
L 265.158887 84.245666 
L 265.77083 84.226468 
L 266.07574 83.999984 
L 266.379946 83.979123 
L 266.683453 83.718621 
L 266.986262 83.885286 
L 267.288378 83.765816 
L 267.890541 83.343022 
L 268.190595 83.320352 
L 268.489967 83.167407 
L 268.788661 83.188939 
L 269.680706 82.811934 
L 272.900862 81.593 
L 273.189742 81.412853 
L 273.47799 81.415879 
L 273.76561 81.298629 
L 274.052603 81.354149 
L 274.909855 80.865937 
L 275.194372 80.832576 
L 275.761571 80.515042 
L 276.888701 80.212159 
L 280.486732 78.906346 
L 280.75948 78.698607 
L 281.303288 78.661045 
L 282.11482 78.343964 
L 282.921388 78.109954 
L 284.254802 77.550583 
L 284.519874 77.633134 
L 285.048426 77.366619 
L 285.048426 77.424796 
L 294.21707 74.088828 
L 298.57292 72.751302 
L 300.698053 72.050835 
L 302.789483 71.225093 
L 304.848261 70.71506 
L 310.838498 68.602556 
L 316.568416 66.860303 
L 318.424367 66.137726 
L 320.254561 65.70969 
L 323.840465 64.448902 
L 332.400509 62.006903 
L 334.047805 61.380374 
L 335.674777 60.969148 
L 338.869715 60.011407 
L 352.360018 56.252634 
L 355.179273 55.464036 
L 364.597472 53.055952 
L 367.1693 52.337427 
L 386.115949 47.967084 
L 389.384206 47.284418 
L 392.57342 46.571792 
L 393.619579 46.491517 
L 395.687324 45.987053 
L 406.51435 43.940371 
L 408.390843 43.655353 
L 414.755946 42.531618 
L 417.392527 42.162293 
L 419.977425 41.705235 
L 423.346981 41.267432 
L 424.176087 41.086984 
L 425.000012 41.033588 
L 426.63258 40.768932 
L 429.838305 40.279432 
L 430.627706 40.239726 
L 430.627706 40.239726 
" clip-path="url(#p15f64459f5)" style="fill: none; stroke: #2ca02c; stroke-width: 1.5; stroke-linecap: square"/>
   </g>
   <g id="line2d_36">
    <path d="M 71.480877 276.043522 
L 72.80625 274.664999 
L 74.118435 273.657668 
L 75.417691 272.273343 
L 76.704272 270.585042 
L 77.978422 270.497256 
L 80.490374 267.088124 
L 81.728631 267.125141 
L 82.95537 265.754803 
L 84.170803 264.678293 
L 85.375135 264.333027 
L 87.751298 261.680941 
L 88.923514 261.225203 
L 90.085403 259.944902 
L 91.237144 258.482722 
L 92.378912 258.482722 
L 93.51088 257.141044 
L 94.633215 256.500894 
L 95.746078 254.771488 
L 96.849628 254.766916 
L 97.94402 253.273755 
L 99.029404 252.949723 
L 100.105929 252.115017 
L 101.173736 250.7856 
L 102.232966 250.543378 
L 104.32624 248.181008 
L 105.360547 247.677099 
L 107.405138 246.164484 
L 108.415668 245.350655 
L 109.418513 244.176208 
L 111.40161 242.68562 
L 112.382087 241.45856 
L 113.355327 240.720394 
L 114.321437 240.367298 
L 115.280521 239.597865 
L 117.178014 237.58604 
L 119.048591 236.694267 
L 119.974023 235.15647 
L 120.893006 234.380021 
L 122.711979 233.867239 
L 123.612143 233.119175 
L 124.506204 232.123772 
L 125.394244 231.632609 
L 126.276344 230.514376 
L 127.152583 230.134239 
L 128.023038 228.776883 
L 128.887786 227.879012 
L 129.746899 227.750294 
L 130.600452 226.792115 
L 131.448516 226.82546 
L 133.960468 224.246393 
L 135.608908 223.256953 
L 136.425464 222.832084 
L 137.236996 222.083757 
L 138.043564 221.53341 
L 138.845229 219.921383 
L 139.64205 219.643088 
L 140.434085 218.586688 
L 141.221392 218.73089 
L 142.004026 217.789477 
L 142.782043 217.533302 
L 143.555497 217.081654 
L 144.324441 215.753808 
L 145.088927 215.024831 
L 146.604731 214.668896 
L 148.103309 212.954857 
L 148.84626 212.528742 
L 149.585049 211.501715 
L 150.319722 211.041309 
L 151.050325 210.989919 
L 151.776902 210.129603 
L 153.93292 208.351429 
L 154.64383 208.283457 
L 155.350928 207.415107 
L 156.054255 206.896181 
L 156.753851 206.596806 
L 157.449755 205.640429 
L 158.142005 205.286064 
L 158.830641 204.722566 
L 159.5157 203.983008 
L 160.197218 203.885009 
L 160.875232 202.810907 
L 161.549779 202.781916 
L 162.220892 202.008327 
L 162.888607 201.038526 
L 163.552958 201.113211 
L 164.21398 199.889566 
L 164.871704 200.196663 
L 165.526165 199.066323 
L 166.825421 198.0423 
L 167.470281 197.451886 
L 168.112002 197.451062 
L 168.750616 196.82524 
L 169.386152 195.969146 
L 170.01864 195.489041 
L 170.648108 195.496996 
L 171.274587 195.053245 
L 172.518686 193.744965 
L 173.136361 193.578651 
L 174.3631 192.173272 
L 174.972216 192.078124 
L 175.578532 191.55656 
L 176.182073 190.675758 
L 176.782865 190.513181 
L 177.976298 189.685041 
L 178.568989 188.990669 
L 179.159028 189.170922 
L 180.331244 187.588451 
L 180.913468 187.39598 
L 183.216993 185.40092 
L 183.786642 184.807876 
L 184.91861 184.115045 
L 185.480971 183.840935 
L 186.59855 182.67721 
L 187.153808 182.481267 
L 188.805689 180.867311 
L 189.35175 180.973477 
L 189.895559 180.411186 
L 190.976495 179.501523 
L 192.048643 178.356634 
L 192.581466 178.019942 
L 193.640696 177.67541 
L 194.691486 176.583264 
L 195.73397 176.043928 
L 196.768277 174.904968 
L 197.794535 174.09975 
L 198.304684 173.894685 
L 199.319101 172.712645 
L 199.823398 172.613051 
L 200.826243 171.682894 
L 201.821519 171.228694 
L 202.316354 170.787873 
L 202.80934 170.186008 
L 203.300489 170.299669 
L 203.789816 169.509832 
L 204.277334 169.190707 
L 204.763057 169.093184 
L 205.246997 168.579024 
L 206.209581 167.942752 
L 207.64041 166.703344 
L 208.113924 166.49221 
L 208.585744 166.038872 
L 209.055882 165.835846 
L 209.524349 165.391013 
L 209.991159 165.155077 
L 210.456321 164.376776 
L 210.919849 164.269007 
L 211.381753 163.643392 
L 211.842045 163.459621 
L 213.213358 162.418427 
L 213.667312 162.161227 
L 214.119709 162.117743 
L 214.570559 161.411793 
L 215.019873 161.260678 
L 216.358701 160.081414 
L 216.801974 159.798432 
L 217.684074 158.908987 
L 218.122921 158.819487 
L 218.560313 158.379457 
L 219.430768 158.095909 
L 219.863851 157.255366 
L 220.295515 157.267849 
L 220.725772 157.164441 
L 221.154629 156.516161 
L 221.582096 156.569037 
L 222.432896 155.611105 
L 223.698891 154.684623 
L 224.118203 154.176143 
L 224.536186 154.055064 
L 225.368198 153.247349 
L 226.194993 152.830871 
L 226.606455 152.666254 
L 227.016638 152.379054 
L 227.425548 151.843749 
L 229.451294 150.5583 
L 230.252959 149.656754 
L 231.04978 149.303015 
L 231.841815 148.477693 
L 232.236056 148.302675 
L 233.411756 147.243316 
L 233.801338 147.26724 
L 234.189773 147.059671 
L 234.577067 146.445845 
L 234.963227 146.340654 
L 235.348259 145.867578 
L 235.732171 145.726069 
L 236.114968 145.249666 
L 236.496657 145.348272 
L 237.256736 144.715723 
L 237.63514 144.452246 
L 238.01246 143.954384 
L 238.763878 143.733044 
L 239.137988 143.288883 
L 239.511039 143.123967 
L 240.25399 142.464464 
L 240.623902 142.334352 
L 241.360627 141.471114 
L 241.727452 141.389401 
L 242.821844 140.553018 
L 243.184632 140.156376 
L 244.267047 139.510371 
L 244.625887 139.114295 
L 244.983753 139.116044 
L 245.34065 138.881293 
L 246.05156 138.161944 
L 246.405583 138.206957 
L 247.461985 137.110034 
L 248.161581 137.096254 
L 248.509992 136.34514 
L 248.857484 136.194399 
L 249.204064 135.894127 
L 249.549735 135.898806 
L 249.894503 135.725378 
L 251.264629 134.378061 
L 251.604948 134.412901 
L 251.944391 133.819294 
L 252.282962 133.829641 
L 252.620667 133.433073 
L 252.957508 133.358304 
L 253.628622 132.728835 
L 253.962902 132.781413 
L 255.62171 131.344281 
L 255.950982 131.365607 
L 257.259911 130.357988 
L 258.555975 129.355389 
L 258.87801 129.052169 
L 259.199261 129.021718 
L 259.839425 128.585282 
L 260.158345 128.028371 
L 261.110505 127.726026 
L 261.426369 127.559206 
L 261.741479 127.036067 
L 262.055838 127.107578 
L 262.682317 126.452576 
L 262.994444 126.331262 
L 263.926415 125.637945 
L 264.235615 125.628086 
L 264.851847 125.123461 
L 265.158887 124.444358 
L 265.465213 124.669514 
L 265.77083 124.330662 
L 266.07574 124.202218 
L 266.379946 123.897279 
L 266.986262 123.509809 
L 267.589803 122.938706 
L 267.890541 123.070204 
L 268.190595 122.514592 
L 268.489967 122.454111 
L 268.788661 122.272839 
L 269.086681 121.857564 
L 269.384028 121.90303 
L 269.976719 121.340097 
L 270.566758 121.098684 
L 271.446895 120.472142 
L 271.738974 120.300691 
L 272.321198 119.708932 
L 272.611349 119.66294 
L 273.189742 119.193833 
L 273.47799 119.180545 
L 274.909855 117.864254 
L 275.194372 117.996185 
L 276.32634 117.056675 
L 276.60782 116.955999 
L 276.888701 116.667947 
L 277.168985 116.595677 
L 277.727772 116.13669 
L 278.561537 115.569188 
L 278.838292 115.492574 
L 279.939538 114.643265 
L 280.213419 114.620646 
L 280.75948 114.09469 
L 281.303288 113.715669 
L 281.574354 113.403144 
L 282.384225 113.139133 
L 282.65308 112.790924 
L 283.189152 112.540483 
L 283.456373 112.158425 
L 283.723053 112.116594 
L 285.048426 111.248474 
L 285.048426 111.255929 
L 287.401038 109.780101 
L 289.712414 107.991798 
L 291.983975 106.722086 
L 294.21707 105.183841 
L 308.871831 96.026065 
L 312.776266 93.535941 
L 316.568416 91.380089 
L 318.424367 90.181971 
L 322.059701 88.160871 
L 334.047805 81.099396 
L 338.869715 78.523235 
L 345.036351 75.256772 
L 346.533984 74.38317 
L 349.479172 72.949435 
L 353.777179 70.822778 
L 357.939517 68.718027 
L 359.298271 68.083511 
L 360.643168 67.257977 
L 365.889656 64.954105 
L 372.167209 62.021822 
L 374.596882 61.046841 
L 376.982598 59.951647 
L 379.325919 59.01334 
L 380.482148 58.605125 
L 381.628328 58.028023 
L 385.008279 56.76021 
L 390.45587 54.586045 
L 391.518895 54.244612 
L 392.57342 53.706217 
L 393.619579 53.479467 
L 400.71914 50.884842 
L 401.702867 50.64529 
L 403.648577 49.926691 
L 404.610771 49.754672 
L 405.565995 49.36508 
L 406.51435 49.148119 
L 408.390843 48.480276 
L 411.156446 47.661108 
L 412.065574 47.314424 
L 412.968477 47.139105 
L 413.86524 46.837369 
L 414.755946 46.661283 
L 415.640676 46.310759 
L 416.51951 46.13815 
L 417.392527 45.811838 
L 419.12141 45.434116 
L 421.672965 44.778232 
L 429.838305 42.846977 
L 430.627706 42.673426 
L 430.627706 42.673426 
" clip-path="url(#p15f64459f5)" style="fill: none; stroke: #d62728; stroke-width: 1.5; stroke-linecap: square"/>
   </g>
   <g id="line2d_37">
    <path d="M 71.480877 303.372149 
L 72.80625 303.671683 
L 74.118435 300.538938 
L 75.417691 300.927606 
L 76.704272 299.902182 
L 77.978422 297.910781 
L 79.240379 297.615863 
L 80.490374 295.598427 
L 81.728631 295.797415 
L 82.95537 294.437611 
L 84.170803 292.681773 
L 85.375135 292.870673 
L 86.568568 291.306825 
L 87.751298 290.234901 
L 88.923514 288.922093 
L 90.085403 287.799578 
L 91.237144 287.234397 
L 92.378912 286.268828 
L 93.51088 285.544518 
L 94.633215 283.888649 
L 95.746078 283.662587 
L 96.849628 281.708575 
L 99.029404 280.898276 
L 100.105929 280.232445 
L 101.173736 278.475952 
L 103.283757 277.22781 
L 104.32624 275.923456 
L 105.360547 275.366521 
L 106.386805 274.039746 
L 107.405138 273.580925 
L 108.415668 271.859655 
L 109.418513 271.918567 
L 111.40161 269.949436 
L 113.355327 269.034359 
L 114.321437 267.752442 
L 115.280521 266.044647 
L 116.232681 266.268627 
L 117.178014 264.935218 
L 118.116619 264.601989 
L 119.048591 263.87147 
L 119.974023 263.817734 
L 120.893006 262.503885 
L 121.805629 261.823311 
L 122.711979 260.463643 
L 123.612143 260.062834 
L 125.394244 258.407066 
L 126.276344 258.061812 
L 127.152583 257.067174 
L 128.023038 257.048126 
L 128.887786 256.082825 
L 130.600452 254.566126 
L 131.448516 253.575046 
L 132.291161 253.036097 
L 133.128456 251.884373 
L 133.960468 251.033148 
L 134.787264 251.16162 
L 135.608908 249.831292 
L 136.425464 249.225374 
L 137.236996 249.186039 
L 138.043564 248.329602 
L 138.845229 247.76178 
L 139.64205 246.280311 
L 140.434085 246.050853 
L 141.221392 245.053771 
L 142.004026 244.927014 
L 142.782043 244.439942 
L 143.555497 243.519436 
L 144.324441 243.06478 
L 145.088927 242.356628 
L 145.849007 241.201251 
L 146.604731 240.834426 
L 147.356148 239.898761 
L 148.103309 239.43932 
L 148.84626 238.830227 
L 149.585049 238.564099 
L 150.319722 237.894936 
L 151.050325 237.456574 
L 151.776902 236.446296 
L 152.499499 235.979782 
L 153.218157 234.900738 
L 153.93292 234.51692 
L 154.64383 234.267251 
L 155.350928 233.131613 
L 156.054255 232.397825 
L 156.753851 232.41471 
L 157.449755 231.549401 
L 158.142005 231.504067 
L 158.830641 230.502504 
L 160.197218 229.552036 
L 160.875232 228.873374 
L 162.220892 228.017962 
L 162.888607 227.140434 
L 163.552958 226.892209 
L 164.871704 225.717679 
L 165.526165 225.264392 
L 166.177393 224.149576 
L 166.825421 224.100568 
L 167.470281 223.229571 
L 168.112002 222.992818 
L 168.750616 222.198828 
L 169.386152 221.961274 
L 170.01864 221.543529 
L 170.648108 220.479661 
L 171.274587 220.543003 
L 172.518686 218.839286 
L 173.136361 218.398581 
L 173.751157 218.275514 
L 174.972216 217.001091 
L 176.182073 216.532856 
L 176.782865 216.212115 
L 177.976298 215.075541 
L 178.568989 213.780544 
L 179.159028 214.131983 
L 179.746438 213.646296 
L 180.331244 212.816069 
L 181.493133 211.878528 
L 182.07026 211.211546 
L 183.786642 209.880326 
L 184.91861 208.708627 
L 185.480971 208.731782 
L 186.040945 207.974627 
L 186.59855 208.016369 
L 187.153808 207.292286 
L 188.257358 206.57839 
L 188.805689 205.665214 
L 189.35175 205.037541 
L 189.895559 205.029056 
L 190.437134 204.672895 
L 190.976495 203.82869 
L 191.513658 203.460783 
L 192.048643 203.496548 
L 192.581466 202.50634 
L 194.167138 201.373184 
L 194.691486 200.800201 
L 195.73397 200.332631 
L 196.252137 199.756381 
L 196.768277 198.842116 
L 197.282404 199.17579 
L 197.794535 198.413963 
L 198.304684 198.56836 
L 199.823398 196.633324 
L 200.325773 196.426693 
L 200.826243 195.646759 
L 201.32482 195.850535 
L 201.821519 195.231908 
L 202.316354 194.81617 
L 202.80934 194.671738 
L 203.300489 193.802056 
L 203.789816 193.777361 
L 204.763057 192.711221 
L 205.246997 192.581159 
L 205.729167 191.976412 
L 206.209581 191.931597 
L 207.16519 190.710814 
L 207.64041 190.816845 
L 208.585744 190.058576 
L 209.055882 189.432391 
L 209.991159 188.798988 
L 210.456321 188.3622 
L 210.919849 187.65068 
L 211.381753 187.435938 
L 211.842045 187.380831 
L 212.300736 186.617679 
L 213.213358 185.831261 
L 213.667312 185.696132 
L 215.467661 184.013799 
L 215.913934 183.904322 
L 216.358701 183.579094 
L 217.243762 182.429552 
L 217.684074 182.336331 
L 218.996259 181.206764 
L 219.430768 181.052772 
L 220.295515 179.90929 
L 220.725772 180.003998 
L 221.154629 179.763619 
L 221.582096 179.056314 
L 222.008182 178.956078 
L 222.432896 178.672947 
L 222.856246 177.774544 
L 223.278241 177.767001 
L 223.698891 177.561419 
L 224.118203 177.053883 
L 224.536186 176.866304 
L 224.952848 176.417067 
L 225.368198 176.321429 
L 225.782243 175.857443 
L 226.194993 175.599522 
L 226.606455 174.733214 
L 227.016638 174.606935 
L 227.425548 174.295748 
L 227.833194 173.833528 
L 228.239584 173.781084 
L 228.644726 173.234689 
L 229.048627 173.317168 
L 229.451294 172.570194 
L 229.852736 172.950692 
L 230.252959 172.158646 
L 230.651971 171.896745 
L 231.04978 171.495273 
L 231.446392 171.34811 
L 231.841815 170.851955 
L 232.236056 170.604745 
L 233.411756 169.537385 
L 233.801338 169.292889 
L 234.189773 169.394258 
L 234.577067 168.60021 
L 235.348259 168.260721 
L 237.256736 166.696674 
L 238.01246 165.764117 
L 238.388705 165.789892 
L 239.137988 164.985243 
L 239.511039 164.552114 
L 239.883038 164.535151 
L 240.25399 164.185583 
L 240.623902 163.683107 
L 240.992779 163.622642 
L 241.727452 163.273761 
L 242.093259 162.742481 
L 244.625887 160.510713 
L 244.983753 160.131825 
L 245.34065 159.999329 
L 245.696584 159.70456 
L 246.05156 159.585238 
L 246.405583 159.211271 
L 246.758658 159.274678 
L 247.11079 158.913963 
L 247.461985 158.367135 
L 247.812247 158.183443 
L 248.161581 157.702062 
L 248.509992 157.574766 
L 248.857484 157.173688 
L 249.204064 157.216725 
L 249.549735 156.567446 
L 249.894503 156.288922 
L 250.238371 156.332474 
L 250.581345 155.769303 
L 250.92343 155.548576 
L 251.264629 155.493919 
L 251.604948 155.081809 
L 251.944391 154.886146 
L 252.957508 153.903512 
L 253.628622 153.822018 
L 253.962902 153.295733 
L 254.296337 153.178407 
L 254.628931 152.515069 
L 255.291613 152.352481 
L 255.950982 151.546527 
L 256.60707 151.598928 
L 256.933894 150.96504 
L 257.259911 150.649148 
L 257.585123 150.502933 
L 258.233151 149.928917 
L 258.555975 149.913723 
L 258.87801 149.464709 
L 259.199261 149.240493 
L 259.519732 148.820711 
L 260.158345 148.583518 
L 260.476496 148.203889 
L 260.793882 148.14874 
L 261.110505 147.606651 
L 261.426369 147.602922 
L 261.741479 147.410665 
L 262.055838 146.846175 
L 262.36945 146.676162 
L 262.682317 146.152994 
L 262.994444 146.214816 
L 263.305833 146.059563 
L 263.616489 145.417366 
L 263.926415 145.563331 
L 264.544091 145.068528 
L 264.851847 144.95165 
L 265.158887 144.516395 
L 265.465213 144.413792 
L 266.379946 143.53023 
L 266.683453 143.207305 
L 266.986262 143.319976 
L 267.288378 142.92396 
L 267.589803 142.801185 
L 267.890541 142.282824 
L 268.190595 142.282515 
L 268.489967 141.981389 
L 268.788661 141.454398 
L 269.086681 141.621181 
L 269.384028 141.067354 
L 269.680706 141.13228 
L 269.976719 140.692253 
L 270.272068 140.65479 
L 270.566758 140.331256 
L 270.86079 140.243153 
L 271.154168 139.879113 
L 271.446895 139.798502 
L 271.738974 139.265492 
L 272.030407 139.309352 
L 272.321198 138.686269 
L 272.611349 138.926886 
L 273.47799 138.10351 
L 274.052603 137.616353 
L 274.338973 137.58741 
L 274.624723 137.068702 
L 274.909855 137.028524 
L 276.044258 136.142675 
L 276.32634 135.918905 
L 276.60782 135.86936 
L 276.888701 135.603118 
L 277.448674 134.849425 
L 277.727772 134.919174 
L 278.284201 134.319953 
L 278.561537 134.291857 
L 278.838292 134.062005 
L 279.114467 133.627834 
L 279.665088 133.580798 
L 279.939538 133.142716 
L 280.486732 132.789225 
L 280.75948 132.407414 
L 281.031664 132.536384 
L 281.303288 132.136455 
L 281.574354 132.046169 
L 281.844864 131.59231 
L 282.11482 131.805088 
L 282.65308 131.110233 
L 283.456373 130.424869 
L 283.723053 130.285706 
L 283.989196 129.942021 
L 284.254802 129.859642 
L 284.519874 129.487106 
L 284.784415 129.450527 
L 285.048426 129.098974 
L 285.048426 129.150457 
L 287.401038 127.468636 
L 289.712414 125.38993 
L 291.983975 123.92285 
L 294.21707 122.203557 
L 296.412979 120.797265 
L 298.57292 119.105787 
L 302.789483 116.012722 
L 304.848261 114.322362 
L 306.875391 113.080979 
L 316.568416 106.063197 
L 318.424367 104.887205 
L 320.254561 103.400073 
L 325.597503 99.575972 
L 329.04287 97.357709 
L 330.732375 96.070607 
L 338.869715 90.73274 
L 340.438618 89.555688 
L 343.521515 87.672066 
L 345.036351 86.595834 
L 346.533984 85.69444 
L 348.0148 84.594019 
L 349.479172 83.797809 
L 350.927462 82.847348 
L 352.360018 82.048548 
L 355.179273 80.213588 
L 367.1693 73.053979 
L 370.935378 70.963088 
L 373.387641 69.444452 
L 375.795134 68.237509 
L 378.159463 66.906293 
L 380.482148 65.668767 
L 381.628328 65.151031 
L 385.008279 63.218742 
L 386.115949 62.807513 
L 393.619579 58.979325 
L 394.657504 58.589072 
L 395.687324 57.987725 
L 396.709164 57.670272 
L 397.723147 57.13399 
L 399.728019 56.264832 
L 405.565995 53.693224 
L 418.259801 48.813818 
L 419.12141 48.532185 
L 419.977425 48.104988 
L 425.818823 46.251546 
L 429.04415 45.119127 
L 429.838305 45.048161 
L 430.627706 44.692774 
L 430.627706 44.692774 
" clip-path="url(#p15f64459f5)" style="fill: none; stroke: #9467bd; stroke-width: 1.5; stroke-linecap: square"/>
   </g>
   <g id="line2d_38">
    <path d="M 71.480877 305.148933 
L 74.118435 303.857652 
L 76.704272 301.250949 
L 77.978422 302.285549 
L 79.240379 299.86645 
L 80.490374 299.449566 
L 81.728631 298.063764 
L 82.95537 296.398644 
L 84.170803 295.987585 
L 85.375135 294.326537 
L 86.568568 294.354285 
L 87.751298 292.704228 
L 88.923514 291.341888 
L 90.085403 291.249895 
L 91.237144 289.751246 
L 92.378912 288.955697 
L 93.51088 288.395459 
L 94.633215 287.165165 
L 95.746078 286.429277 
L 96.849628 285.14656 
L 97.94402 284.696847 
L 99.029404 283.125995 
L 100.105929 282.14606 
L 101.173736 281.458005 
L 102.232966 281.146356 
L 103.283757 279.970455 
L 104.32624 280.095914 
L 105.360547 278.069505 
L 106.386805 276.398545 
L 107.405138 277.057575 
L 108.415668 275.284114 
L 109.418513 275.287408 
L 110.413789 274.007538 
L 111.40161 273.619283 
L 113.355327 270.94671 
L 114.321437 270.876626 
L 115.280521 270.228698 
L 116.232681 269.312058 
L 117.178014 268.775624 
L 119.974023 265.732569 
L 120.893006 266.535768 
L 121.805629 264.932479 
L 122.711979 263.911806 
L 123.612143 263.309787 
L 124.506204 262.954293 
L 125.394244 261.379276 
L 126.276344 261.546668 
L 127.152583 260.33477 
L 128.023038 259.980005 
L 128.887786 259.378774 
L 130.600452 257.157738 
L 131.448516 257.203075 
L 132.291161 256.131986 
L 133.128456 256.141355 
L 133.960468 255.076348 
L 134.787264 254.279876 
L 135.608908 253.907218 
L 136.425464 252.916538 
L 137.236996 252.125919 
L 138.043564 251.520755 
L 138.845229 251.221674 
L 139.64205 250.350772 
L 140.434085 250.160931 
L 142.004026 248.244062 
L 142.782043 248.091635 
L 143.555497 246.556113 
L 144.324441 246.751965 
L 145.088927 246.742057 
L 145.849007 245.468687 
L 146.604731 244.871408 
L 147.356148 243.697454 
L 148.103309 243.658054 
L 148.84626 242.683776 
L 149.585049 242.153581 
L 150.319722 241.933074 
L 151.776902 240.574628 
L 152.499499 240.507206 
L 153.218157 238.840554 
L 153.93292 239.1426 
L 154.64383 237.849254 
L 155.350928 237.81882 
L 156.054255 237.208566 
L 156.753851 236.276654 
L 157.449755 236.49085 
L 158.142005 235.193559 
L 159.5157 234.017107 
L 160.197218 234.021846 
L 160.875232 232.841587 
L 161.549779 232.782834 
L 162.220892 232.331869 
L 162.888607 232.108501 
L 163.552958 231.142704 
L 164.21398 230.551492 
L 164.871704 230.345437 
L 165.526165 229.455829 
L 166.177393 229.576844 
L 167.470281 228.127379 
L 168.112002 227.796938 
L 168.750616 226.781004 
L 170.01864 225.739486 
L 170.648108 225.369922 
L 171.898103 224.363326 
L 172.518686 224.10454 
L 173.136361 223.198294 
L 173.751157 222.930544 
L 174.3631 221.742491 
L 174.972216 222.225712 
L 176.182073 220.743433 
L 176.782865 220.667409 
L 177.380931 219.815787 
L 177.976298 219.689579 
L 178.568989 219.304137 
L 179.746438 217.751626 
L 180.331244 217.828537 
L 180.913468 217.027933 
L 181.493133 217.129579 
L 182.07026 216.344574 
L 182.644873 215.769786 
L 183.216993 215.968747 
L 185.480971 213.260749 
L 186.040945 213.173492 
L 186.59855 212.608527 
L 187.153808 212.306158 
L 187.706737 211.877463 
L 188.257358 211.148435 
L 188.805689 211.442504 
L 189.35175 209.931739 
L 190.437134 209.988347 
L 190.976495 209.013434 
L 191.513658 208.90727 
L 192.048643 208.28146 
L 192.581466 208.145768 
L 193.112144 207.358085 
L 194.167138 206.42838 
L 194.691486 206.319271 
L 195.213758 205.802681 
L 195.73397 205.622324 
L 196.252137 205.582324 
L 196.768277 204.794807 
L 197.282404 204.24084 
L 197.794535 203.910879 
L 198.812868 202.728502 
L 199.319101 203.016995 
L 199.823398 201.967248 
L 200.325773 201.866463 
L 201.821519 200.682288 
L 202.316354 200.187149 
L 202.80934 199.866344 
L 203.300489 199.306752 
L 203.789816 199.312713 
L 204.277334 198.713916 
L 205.246997 197.778207 
L 205.729167 197.254537 
L 206.209581 197.317778 
L 206.688251 196.583826 
L 207.16519 196.711312 
L 207.64041 196.058268 
L 208.113924 195.706616 
L 208.585744 195.054034 
L 209.055882 194.663116 
L 209.524349 194.736843 
L 209.991159 194.371507 
L 210.919849 193.210818 
L 211.381753 193.132963 
L 212.300736 192.316673 
L 212.757837 192.451398 
L 213.213358 191.6382 
L 213.667312 191.334507 
L 215.019873 190.097585 
L 215.467661 190.071576 
L 215.913934 189.403834 
L 216.358701 189.124029 
L 217.243762 189.102017 
L 218.122921 187.648605 
L 219.430768 186.661164 
L 220.725772 185.978801 
L 221.154629 185.598 
L 222.008182 184.423149 
L 222.432896 184.07089 
L 222.856246 184.12609 
L 223.278241 183.961949 
L 223.698891 183.267255 
L 224.118203 183.059045 
L 224.536186 182.634171 
L 224.952848 182.633538 
L 225.368198 182.286006 
L 225.782243 181.651391 
L 226.194993 181.400159 
L 226.606455 181.421207 
L 227.425548 180.472641 
L 227.833194 180.15998 
L 228.239584 179.666915 
L 228.644726 179.527857 
L 229.048627 179.098478 
L 229.852736 178.786264 
L 230.252959 178.320882 
L 231.04978 177.722346 
L 231.446392 177.178329 
L 231.841815 177.069352 
L 232.236056 176.717487 
L 232.629122 176.769329 
L 233.02102 175.993314 
L 233.411756 175.696733 
L 233.801338 175.825489 
L 234.577067 174.616807 
L 234.963227 174.832239 
L 235.348259 174.312112 
L 236.114968 173.791352 
L 236.877244 173.222917 
L 237.256736 172.724312 
L 238.388705 172.109315 
L 238.763878 171.629299 
L 239.137988 171.580431 
L 239.511039 170.843748 
L 239.883038 171.061629 
L 240.25399 170.498111 
L 240.992779 170.083201 
L 242.093259 168.892205 
L 243.184632 168.49436 
L 244.625887 166.976999 
L 244.983753 166.897104 
L 245.34065 166.440025 
L 245.696584 166.264847 
L 246.05156 166.267684 
L 246.758658 165.517749 
L 247.461985 165.046269 
L 247.812247 164.141414 
L 248.161581 164.447212 
L 248.509992 164.347987 
L 249.204064 163.527114 
L 249.549735 163.351801 
L 250.92343 162.096233 
L 251.264629 162.13443 
L 251.604948 161.799884 
L 251.944391 161.307398 
L 252.957508 160.750591 
L 253.293492 160.256563 
L 253.628622 160.0099 
L 254.296337 159.946503 
L 254.960688 159.381213 
L 255.291613 158.821557 
L 255.62171 158.572036 
L 255.950982 158.582754 
L 256.279434 158.103675 
L 256.933894 157.735759 
L 257.259911 157.309346 
L 258.555975 156.575004 
L 258.87801 156.384781 
L 259.199261 155.946434 
L 259.519732 155.831687 
L 259.839425 155.420997 
L 260.158345 155.354007 
L 260.476496 154.842543 
L 260.793882 154.874181 
L 261.110505 154.696163 
L 261.426369 154.162423 
L 261.741479 154.101104 
L 262.055838 153.849675 
L 262.36945 153.324258 
L 262.682317 153.293857 
L 262.994444 152.850226 
L 263.305833 152.90833 
L 263.616489 152.687037 
L 263.926415 152.159833 
L 264.235615 152.375363 
L 264.851847 151.476735 
L 265.158887 151.271497 
L 265.465213 151.248337 
L 266.683453 150.332176 
L 266.986262 149.689119 
L 267.288378 149.702141 
L 267.589803 149.59735 
L 269.086681 148.366224 
L 269.976719 147.908567 
L 270.272068 147.637856 
L 270.566758 147.120819 
L 271.154168 146.685501 
L 271.446895 146.632489 
L 272.030407 146.143412 
L 272.611349 145.851801 
L 272.900862 145.436284 
L 273.189742 145.440199 
L 273.47799 145.311478 
L 273.76561 144.766633 
L 274.052603 144.495538 
L 274.338973 144.655207 
L 275.761571 143.302386 
L 276.044258 143.16938 
L 276.60782 142.608216 
L 276.888701 142.584955 
L 277.727772 141.782652 
L 278.00628 141.837701 
L 278.284201 141.694686 
L 278.561537 141.109925 
L 279.114467 140.869113 
L 279.390065 140.691953 
L 279.939538 140.152812 
L 280.213419 140.280342 
L 280.486732 139.893594 
L 280.75948 139.946821 
L 281.031664 139.357343 
L 281.574354 139.164746 
L 281.844864 138.617462 
L 282.11482 138.76356 
L 282.384225 138.180289 
L 282.65308 138.137303 
L 283.189152 137.548844 
L 283.456373 137.886917 
L 284.519874 136.652024 
L 285.048426 136.483767 
L 285.048426 136.384554 
L 289.712414 132.889064 
L 291.983975 131.298103 
L 294.21707 129.338486 
L 296.412979 127.96715 
L 300.698053 124.74236 
L 308.871831 118.865436 
L 312.776266 115.929135 
L 318.424367 111.923713 
L 320.254561 110.424167 
L 322.059701 109.486437 
L 323.840465 108.021951 
L 335.674777 99.629193 
L 337.281921 98.711192 
L 338.869715 97.658679 
L 340.438618 96.479088 
L 341.989075 95.470706 
L 345.036351 93.239606 
L 368.436647 77.988504 
L 369.691931 77.245021 
L 370.935378 76.335993 
L 372.167209 75.708194 
L 381.628328 69.938517 
L 382.764631 69.371242 
L 386.115949 67.40192 
L 389.384206 65.606062 
L 391.518895 64.418214 
L 400.71914 59.540254 
L 402.67931 58.54823 
L 413.86524 53.200767 
L 416.51951 52.081525 
L 419.977425 50.625992 
L 424.176087 48.982447 
L 427.441346 47.715586 
L 428.245183 47.475754 
L 429.838305 46.884791 
L 430.627706 46.597715 
L 430.627706 46.597715 
" clip-path="url(#p15f64459f5)" style="fill: none; stroke: #8c564b; stroke-width: 1.5; stroke-linecap: square"/>
   </g>
   <g id="line2d_39">
    <path d="M 71.480877 306.247203 
L 72.80625 306.058861 
L 75.417691 302.472322 
L 76.704272 302.274895 
L 77.978422 299.973713 
L 79.240379 300.777002 
L 80.490374 298.684895 
L 81.728631 298.520248 
L 82.95537 296.624571 
L 84.170803 295.811655 
L 85.375135 294.317291 
L 87.751298 293.241319 
L 88.923514 292.386208 
L 91.237144 289.734201 
L 92.378912 289.415572 
L 93.51088 288.955697 
L 94.633215 287.055384 
L 95.746078 286.381095 
L 96.849628 286.088869 
L 97.94402 283.977022 
L 99.029404 283.296692 
L 100.105929 281.971399 
L 101.173736 282.027082 
L 103.283757 280.40538 
L 104.32624 279.096479 
L 105.360547 278.605101 
L 107.405138 276.962468 
L 108.415668 276.718645 
L 109.418513 275.09996 
L 110.413789 274.622664 
L 111.40161 273.975349 
L 112.382087 273.574534 
L 113.355327 271.96512 
L 114.321437 271.372133 
L 115.280521 270.033369 
L 116.232681 269.47221 
L 117.178014 269.096279 
L 118.116619 267.715009 
L 119.048591 267.322029 
L 119.974023 266.744741 
L 120.893006 265.960885 
L 121.805629 266.094965 
L 122.711979 264.905092 
L 123.612143 263.009857 
L 124.506204 262.85653 
L 125.394244 262.354549 
L 126.276344 262.044049 
L 127.152583 260.89537 
L 128.023038 260.150817 
L 128.887786 260.047765 
L 129.746899 258.737281 
L 130.600452 258.441221 
L 132.291161 256.725301 
L 133.128456 256.314962 
L 133.960468 255.18678 
L 134.787264 254.620816 
L 135.608908 254.531972 
L 136.425464 253.304925 
L 137.236996 252.819308 
L 138.043564 251.862663 
L 138.845229 251.749907 
L 139.64205 251.372092 
L 140.434085 250.154614 
L 141.221392 249.724626 
L 142.004026 248.987713 
L 142.782043 248.673072 
L 143.555497 248.071342 
L 144.324441 247.012178 
L 145.088927 246.771787 
L 145.849007 245.678272 
L 146.604731 245.495811 
L 147.356148 244.198928 
L 148.103309 244.265246 
L 148.84626 242.907256 
L 149.585049 243.323333 
L 151.050325 241.415293 
L 151.776902 241.900346 
L 152.499499 241.066769 
L 153.218157 240.033989 
L 153.93292 239.463683 
L 154.64383 239.243067 
L 155.350928 238.661819 
L 156.054255 237.812059 
L 156.753851 237.193519 
L 157.449755 236.362234 
L 159.5157 235.44739 
L 160.875232 234.297406 
L 161.549779 233.192289 
L 162.888607 232.45925 
L 164.21398 231.040739 
L 164.871704 231.031751 
L 165.526165 230.52625 
L 166.177393 229.703971 
L 167.470281 228.76825 
L 168.112002 227.993834 
L 168.750616 228.020801 
L 169.386152 227.155809 
L 170.01864 226.520536 
L 170.648108 226.414203 
L 171.274587 225.724493 
L 171.898103 225.444454 
L 172.518686 224.560537 
L 173.136361 223.977575 
L 173.751157 223.87067 
L 174.3631 223.518405 
L 174.972216 222.35519 
L 175.578532 222.374445 
L 176.182073 222.050558 
L 176.782865 221.064864 
L 177.380931 220.451119 
L 177.976298 220.582783 
L 178.568989 220.083847 
L 179.746438 218.619101 
L 180.331244 218.280289 
L 180.913468 218.07774 
L 181.493133 217.545082 
L 182.07026 217.229066 
L 182.644873 217.475617 
L 183.216993 216.133939 
L 183.786642 215.966456 
L 184.91861 215.243776 
L 185.480971 215.054124 
L 186.040945 213.824629 
L 186.59855 213.43348 
L 187.153808 213.194204 
L 187.706737 212.434009 
L 188.257358 212.151836 
L 188.805689 212.166821 
L 189.895559 210.583606 
L 190.437134 210.856943 
L 191.513658 209.516643 
L 192.048643 209.614759 
L 193.112144 208.400459 
L 193.640696 208.426492 
L 194.691486 207.362998 
L 195.213758 207.040607 
L 195.73397 206.338567 
L 196.252137 205.83997 
L 196.768277 205.60994 
L 197.282404 205.623277 
L 198.304684 204.245488 
L 198.812868 204.521344 
L 199.319101 203.391153 
L 199.823398 203.29875 
L 200.325773 203.005172 
L 200.826243 202.107577 
L 202.316354 202.013687 
L 202.80934 201.146631 
L 203.300489 200.607303 
L 203.789816 200.33003 
L 204.277334 199.704053 
L 204.763057 199.641495 
L 205.246997 199.311861 
L 205.729167 198.571722 
L 206.209581 198.803287 
L 206.688251 197.774064 
L 207.16519 197.910098 
L 207.64041 197.198748 
L 208.585744 196.732453 
L 209.055882 196.327294 
L 209.524349 195.759344 
L 209.991159 195.531215 
L 210.456321 195.480291 
L 210.919849 194.472187 
L 211.381753 194.546447 
L 211.842045 194.238325 
L 212.300736 193.765789 
L 212.757837 193.774275 
L 213.213358 193.110847 
L 213.667312 192.753631 
L 214.119709 192.570586 
L 214.570559 192.027245 
L 215.467661 191.526902 
L 215.913934 191.078021 
L 216.358701 190.978102 
L 217.684074 189.445247 
L 218.122921 189.692932 
L 218.560313 189.133972 
L 218.996259 188.821588 
L 219.430768 188.131466 
L 219.863851 188.638227 
L 220.295515 187.908626 
L 221.154629 187.02737 
L 221.582096 186.902988 
L 222.008182 186.605454 
L 222.432896 185.807154 
L 222.856246 185.807154 
L 223.278241 185.496711 
L 224.118203 184.591921 
L 224.536186 184.514014 
L 224.952848 184.302442 
L 225.368198 183.756316 
L 225.782243 183.687939 
L 226.194993 182.967957 
L 226.606455 182.622151 
L 227.425548 182.746269 
L 228.239584 181.765904 
L 228.644726 181.696173 
L 229.048627 180.863019 
L 229.451294 180.820122 
L 229.852736 180.339471 
L 230.252959 180.206617 
L 230.651971 179.345567 
L 231.04978 179.439925 
L 231.446392 179.349147 
L 231.841815 178.85543 
L 232.236056 178.719545 
L 233.801338 177.230597 
L 234.189773 177.271412 
L 234.577067 176.803536 
L 235.348259 176.298252 
L 235.732171 176.231034 
L 236.114968 175.519199 
L 236.496657 175.420068 
L 236.877244 175.455134 
L 237.256736 174.97448 
L 238.388705 174.144877 
L 238.763878 173.711413 
L 239.137988 173.599797 
L 239.511039 173.23576 
L 239.883038 172.516274 
L 240.25399 172.670243 
L 240.623902 172.237455 
L 240.992779 171.63398 
L 241.727452 171.749049 
L 242.093259 171.044126 
L 242.821844 171.061629 
L 243.907228 169.830278 
L 244.267047 169.614103 
L 244.625887 169.553923 
L 244.983753 168.938788 
L 245.34065 168.809047 
L 245.696584 168.908554 
L 246.05156 168.149154 
L 246.405583 168.302371 
L 246.758658 167.668724 
L 247.11079 167.359863 
L 247.461985 167.369022 
L 247.812247 167.088178 
L 248.161581 166.643823 
L 248.509992 166.552996 
L 248.857484 165.913304 
L 249.204064 166.433861 
L 249.549735 165.66675 
L 249.894503 165.311483 
L 250.238371 165.161566 
L 250.581345 165.260847 
L 251.604948 164.16782 
L 251.944391 164.323323 
L 252.620667 163.274657 
L 252.957508 163.439389 
L 253.293492 162.841575 
L 253.628622 162.786007 
L 254.296337 162.243456 
L 254.628931 162.202106 
L 255.291613 161.470791 
L 255.62171 161.462979 
L 256.279434 160.797746 
L 257.259911 160.26251 
L 257.585123 159.761369 
L 258.233151 159.406728 
L 258.555975 159.442301 
L 259.199261 158.530831 
L 259.519732 158.561732 
L 259.839425 158.355637 
L 260.158345 157.793049 
L 260.476496 157.502732 
L 260.793882 157.55857 
L 261.110505 157.453414 
L 261.426369 156.94618 
L 261.741479 156.934168 
L 262.682317 156.084283 
L 262.994444 156.156887 
L 263.616489 155.328712 
L 263.926415 155.29604 
L 264.851847 154.492253 
L 265.158887 154.393828 
L 265.77083 153.757665 
L 266.07574 153.751612 
L 266.683453 153.153325 
L 266.986262 153.194137 
L 267.288378 152.734569 
L 267.589803 152.717854 
L 267.890541 152.393822 
L 268.489967 152.088541 
L 269.086681 151.532707 
L 269.384028 151.630611 
L 269.976719 150.863977 
L 270.86079 150.226204 
L 271.154168 150.295526 
L 271.446895 149.702141 
L 271.738974 149.901712 
L 272.321198 149.253411 
L 272.900862 148.978587 
L 273.189742 148.648422 
L 273.47799 148.620104 
L 273.76561 148.156615 
L 274.338973 147.857453 
L 274.624723 147.285443 
L 274.909855 147.323891 
L 275.194372 147.23321 
L 275.478276 146.821092 
L 276.044258 146.587185 
L 276.32634 146.311819 
L 276.888701 146.074079 
L 277.168985 145.670678 
L 277.448674 145.683783 
L 278.00628 144.962971 
L 278.284201 145.050381 
L 278.561537 144.668077 
L 278.838292 144.517358 
L 279.114467 144.559094 
L 280.486732 143.246196 
L 280.75948 143.366177 
L 281.031664 142.933008 
L 282.11482 142.342688 
L 282.384225 141.977401 
L 282.921388 141.658989 
L 283.456373 141.12805 
L 283.723053 141.221488 
L 283.989196 141.117779 
L 284.254802 140.479498 
L 284.519874 140.517441 
L 285.048426 140.081297 
L 285.048426 140.140639 
L 287.401038 138.506047 
L 289.712414 136.745005 
L 298.57292 130.837648 
L 300.698053 129.421086 
L 304.848261 126.332887 
L 310.838498 122.405382 
L 316.568416 118.600615 
L 318.424367 117.303227 
L 320.254561 116.283057 
L 325.597503 112.786729 
L 330.732375 109.432458 
L 332.400509 108.209262 
L 334.047805 107.46241 
L 335.674777 106.437106 
L 337.281921 105.240263 
L 340.438618 103.311715 
L 341.989075 102.342183 
L 343.521515 101.239072 
L 345.036351 100.49295 
L 346.533984 99.552622 
L 348.0148 98.829001 
L 349.479172 97.722666 
L 356.566617 93.537883 
L 357.939517 92.769721 
L 359.298271 91.762501 
L 360.643168 91.151314 
L 372.167209 84.484492 
L 373.387641 83.895208 
L 374.596882 83.068898 
L 375.795134 82.56977 
L 376.982598 81.794205 
L 378.159463 81.26168 
L 380.482148 79.890996 
L 381.628328 79.438649 
L 383.891226 78.082418 
L 386.115949 76.956047 
L 396.709164 71.5094 
L 397.723147 71.126068 
L 400.71914 69.552039 
L 401.702867 69.135748 
L 402.67931 68.558227 
L 405.565995 67.281496 
L 407.455934 66.313654 
L 409.31917 65.481332 
L 411.156446 64.581947 
L 414.755946 63.018991 
L 416.51951 62.239846 
L 417.392527 61.758525 
L 419.12141 61.058311 
L 423.346981 59.262078 
L 425.000012 58.577816 
L 425.818823 58.187298 
L 427.441346 57.624766 
L 429.04415 56.923749 
L 430.627706 56.4151 
L 430.627706 56.4151 
" clip-path="url(#p15f64459f5)" style="fill: none; stroke: #e377c2; stroke-width: 1.5; stroke-linecap: square"/>
   </g>
   <g id="line2d_40">
    <path d="M 71.480877 306.401772 
L 74.118435 304.011267 
L 75.417691 303.956356 
L 76.704272 301.950916 
L 77.978422 300.52861 
L 79.240379 300.024863 
L 80.490374 298.560118 
L 81.728631 297.891071 
L 82.95537 298.187442 
L 85.375135 294.437611 
L 86.568568 293.168805 
L 87.751298 292.592044 
L 88.923514 292.978901 
L 90.085403 291.210516 
L 91.237144 290.346776 
L 92.378912 289.094528 
L 93.51088 288.653979 
L 94.633215 287.606449 
L 95.746078 286.080885 
L 96.849628 286.184776 
L 97.94402 284.712429 
L 99.029404 283.004926 
L 100.105929 282.95204 
L 101.173736 282.116292 
L 102.232966 280.858248 
L 103.283757 280.756488 
L 104.32624 279.838131 
L 105.360547 278.643554 
L 106.386805 277.969215 
L 107.405138 276.999812 
L 108.415668 275.813622 
L 109.418513 275.080265 
L 110.413789 274.63243 
L 111.40161 273.533013 
L 112.382087 273.220993 
L 113.355327 272.630375 
L 114.321437 271.553688 
L 115.280521 269.907516 
L 116.232681 269.620908 
L 117.178014 269.093329 
L 118.116619 268.357705 
L 119.048591 268.078879 
L 119.974023 266.863694 
L 120.893006 265.135559 
L 121.805629 265.223605 
L 122.711979 265.70479 
L 123.612143 263.485711 
L 124.506204 262.798481 
L 125.394244 262.399046 
L 126.276344 260.910668 
L 127.152583 261.484803 
L 128.023038 259.954929 
L 128.887786 260.025169 
L 130.600452 257.800638 
L 131.448516 257.868233 
L 132.291161 256.45612 
L 133.128456 256.552782 
L 134.787264 254.447815 
L 135.608908 253.770071 
L 136.425464 253.530308 
L 137.236996 252.757521 
L 138.043564 252.691397 
L 138.845229 251.700106 
L 139.64205 251.2088 
L 140.434085 249.524393 
L 141.221392 250.118831 
L 144.324441 247.077918 
L 145.088927 246.564013 
L 145.849007 246.684626 
L 147.356148 244.489411 
L 148.103309 244.666717 
L 148.84626 243.573718 
L 149.585049 243.187398 
L 150.319722 242.325483 
L 151.050325 242.254098 
L 151.776902 241.53797 
L 152.499499 240.485932 
L 153.218157 240.293058 
L 154.64383 238.533276 
L 155.350928 237.663527 
L 156.054255 237.988106 
L 156.753851 237.62477 
L 157.449755 236.133763 
L 158.142005 236.030516 
L 158.830641 235.400417 
L 159.5157 235.080755 
L 160.197218 234.370482 
L 160.875232 233.479443 
L 162.220892 233.380959 
L 162.888607 232.43928 
L 164.21398 230.898597 
L 164.871704 230.776195 
L 165.526165 230.825422 
L 166.177393 229.572465 
L 166.825421 228.977252 
L 167.470281 228.761057 
L 168.112002 228.145873 
L 168.750616 228.013703 
L 169.386152 227.602138 
L 170.648108 225.641423 
L 171.274587 225.927919 
L 171.898103 225.321191 
L 172.518686 225.234662 
L 173.136361 224.223832 
L 173.751157 223.614139 
L 174.3631 223.753441 
L 174.972216 222.469533 
L 175.578532 221.914138 
L 176.782865 221.867042 
L 177.380931 220.968367 
L 177.976298 220.426311 
L 178.568989 220.412672 
L 179.159028 219.549001 
L 179.746438 219.056706 
L 180.331244 218.134856 
L 182.07026 217.178715 
L 183.216993 216.206363 
L 184.353841 215.559018 
L 184.91861 214.816835 
L 185.480971 214.839284 
L 187.153808 213.231285 
L 187.706737 213.030902 
L 188.257358 212.667901 
L 188.805689 211.945664 
L 189.895559 210.930198 
L 190.976495 210.359255 
L 191.513658 209.505411 
L 192.048643 209.318888 
L 192.581466 208.921414 
L 193.112144 208.375438 
L 193.640696 208.156731 
L 194.167138 207.636864 
L 194.691486 207.701091 
L 195.213758 206.819241 
L 195.73397 206.551262 
L 196.252137 205.584228 
L 196.768277 205.758731 
L 198.304684 204.464384 
L 198.812868 204.244558 
L 199.823398 203.105291 
L 200.325773 202.855329 
L 200.826243 202.217762 
L 201.32482 202.209692 
L 201.821519 202.002967 
L 202.316354 201.361702 
L 202.80934 201.112332 
L 203.300489 201.02799 
L 203.789816 200.555917 
L 204.277334 199.663768 
L 204.763057 199.701481 
L 205.246997 199.313564 
L 206.209581 198.229077 
L 206.688251 198.124772 
L 207.16519 197.477427 
L 207.64041 197.337504 
L 208.113924 196.890445 
L 208.585744 196.649563 
L 209.055882 196.223236 
L 209.524349 196.098459 
L 209.991159 195.493813 
L 210.456321 195.305594 
L 210.919849 194.59105 
L 212.300736 193.92879 
L 212.757837 193.494143 
L 213.213358 192.824134 
L 214.570559 192.02201 
L 215.019873 192.294877 
L 215.467661 191.266586 
L 215.913934 190.93261 
L 216.358701 191.000862 
L 217.243762 190.101198 
L 217.684074 189.855307 
L 218.122921 189.843076 
L 218.560313 188.742528 
L 219.430768 188.34819 
L 219.863851 187.875276 
L 220.295515 187.863469 
L 220.725772 187.321651 
L 221.154629 187.273528 
L 221.582096 186.536912 
L 222.008182 186.514535 
L 222.432896 185.909677 
L 222.856246 185.50803 
L 223.278241 185.375005 
L 223.698891 184.884876 
L 224.118203 184.852615 
L 224.952848 183.967132 
L 225.368198 183.821545 
L 226.194993 183.064783 
L 226.606455 182.877652 
L 227.016638 182.387331 
L 227.425548 182.174822 
L 228.239584 181.364272 
L 228.644726 180.812159 
L 229.451294 181.085383 
L 229.852736 180.698962 
L 230.252959 179.926169 
L 230.651971 180.000979 
L 231.446392 179.29487 
L 231.841815 178.857204 
L 232.236056 178.808719 
L 233.02102 177.878504 
L 233.411756 178.029268 
L 233.801338 177.162256 
L 234.189773 176.98404 
L 234.577067 177.050446 
L 234.963227 176.561681 
L 235.348259 176.46523 
L 235.732171 175.773951 
L 236.114968 175.576082 
L 236.496657 175.513625 
L 236.877244 175.571061 
L 237.256736 175.154174 
L 237.63514 174.338304 
L 238.01246 174.336667 
L 238.388705 174.188408 
L 238.763878 173.721669 
L 239.883038 172.933655 
L 240.25399 172.422829 
L 240.623902 172.519444 
L 240.992779 171.973617 
L 241.360627 171.651667 
L 242.458055 171.034862 
L 242.821844 170.688051 
L 243.184632 170.653794 
L 243.907228 169.973511 
L 244.625887 169.626146 
L 244.983753 169.068333 
L 245.34065 168.776411 
L 245.696584 168.695398 
L 246.405583 167.782739 
L 246.758658 167.864877 
L 247.461985 167.378183 
L 247.812247 166.782962 
L 248.161581 166.721451 
L 248.509992 166.531619 
L 248.857484 166.477024 
L 249.204064 165.722435 
L 249.549735 165.996514 
L 249.894503 165.443164 
L 250.238371 165.239027 
L 250.581345 165.26224 
L 250.92343 164.504448 
L 252.282962 164.060451 
L 252.620667 163.388167 
L 252.957508 163.365716 
L 253.293492 163.114429 
L 253.628622 162.565613 
L 253.962902 162.444035 
L 254.296337 162.126086 
L 254.628931 162.05236 
L 255.291613 161.313024 
L 256.933894 160.397757 
L 257.259911 159.817393 
L 257.585123 159.784952 
L 258.233151 159.472032 
L 259.519732 158.320745 
L 260.158345 158.238733 
L 260.476496 157.563833 
L 260.793882 157.383553 
L 261.110505 157.52498 
L 262.055838 156.688092 
L 262.682317 156.046833 
L 263.616489 155.507188 
L 263.926415 155.105443 
L 265.158887 154.349841 
L 265.465213 154.424448 
L 265.77083 153.94791 
L 266.379946 153.549212 
L 266.683453 153.135362 
L 266.986262 153.090106 
L 267.288378 152.726025 
L 267.890541 152.590611 
L 268.190595 152.058067 
L 268.489967 151.75314 
L 268.788661 151.896795 
L 269.086681 151.368946 
L 269.976719 150.96864 
L 270.272068 150.500434 
L 270.566758 150.739785 
L 271.154168 149.954014 
L 271.446895 149.888291 
L 271.738974 149.448588 
L 272.030407 149.352664 
L 272.900862 148.74661 
L 273.189742 148.285856 
L 273.47799 148.44361 
L 273.76561 148.056717 
L 275.194372 147.304664 
L 275.478276 146.583522 
L 275.761571 146.738229 
L 277.168985 145.849829 
L 277.448674 145.473487 
L 277.727772 145.458799 
L 278.284201 144.896049 
L 278.838292 144.571943 
L 279.390065 144.103917 
L 279.665088 144.085124 
L 279.939538 143.714059 
L 280.486732 143.501541 
L 280.75948 142.984512 
L 281.031664 143.147139 
L 281.303288 142.462298 
L 281.844864 142.373262 
L 282.11482 141.944896 
L 282.384225 142.216554 
L 282.65308 141.985377 
L 282.921388 141.46078 
L 283.189152 141.47689 
L 283.723053 141.022101 
L 284.519874 140.652393 
L 284.784415 140.215203 
L 285.048426 140.205989 
L 285.048426 140.082779 
L 291.983975 135.326415 
L 294.21707 133.994377 
L 298.57292 130.623236 
L 300.698053 129.405635 
L 302.789483 127.891673 
L 304.848261 126.706743 
L 308.871831 123.786903 
L 310.838498 122.704917 
L 312.776266 121.080921 
L 314.685971 119.899903 
L 320.254561 116.120429 
L 322.059701 115.076478 
L 323.840465 113.753327 
L 325.597503 112.881474 
L 327.331438 111.61526 
L 335.674777 106.468717 
L 337.281921 105.171416 
L 349.479172 97.759083 
L 352.360018 96.08185 
L 356.566617 93.507337 
L 357.939517 92.827858 
L 360.643168 91.102076 
L 361.974487 90.288663 
L 364.597472 88.999329 
L 365.889656 88.11489 
L 367.1693 87.483099 
L 368.436647 86.605217 
L 369.691931 85.888884 
L 370.935378 85.321653 
L 372.167209 84.528366 
L 373.387641 83.898697 
L 374.596882 83.047091 
L 375.795134 82.563274 
L 381.628328 79.346363 
L 382.764631 78.842528 
L 383.891226 78.101299 
L 385.008279 77.684364 
L 386.115949 76.868711 
L 387.214392 76.451243 
L 391.518895 74.171576 
L 392.57342 73.697544 
L 393.619579 73.048945 
L 401.702867 69.176089 
L 402.67931 68.620663 
L 403.648577 68.212349 
L 405.565995 67.229444 
L 415.640676 62.637065 
L 418.259801 61.503117 
L 419.977425 60.637392 
L 420.82792 60.415367 
L 421.672965 59.983122 
L 422.512629 59.731957 
L 423.346981 59.249984 
L 425.000012 58.578928 
L 425.818823 58.156745 
L 426.63258 57.982363 
L 427.441346 57.464488 
L 429.838305 56.609957 
L 430.627706 56.319993 
L 430.627706 56.319993 
" clip-path="url(#p15f64459f5)" style="fill: none; stroke: #ff7f0e; stroke-opacity: 0.4; stroke-width: 1.5; stroke-linecap: square"/>
   </g>
   <g id="line2d_41">
    <path d="M 71.480877 239.157624 
L 430.627706 86.218122 
L 430.627706 86.218122 
" clip-path="url(#p15f64459f5)" style="fill: none; stroke-dasharray: 5.55,2.4; stroke-dashoffset: 0; stroke: #1f77b4; stroke-width: 1.5"/>
   </g>
   <g id="patch_3">
    <path d="M 72.80625 297.54825 
L 72.80625 31.43625 
" style="fill: none; stroke: #000000; stroke-width: 0.8; stroke-linejoin: miter; stroke-linecap: square"/>
   </g>
   <g id="patch_4">
    <path d="M 429.92625 297.54825 
L 429.92625 31.43625 
" style="fill: none; stroke: #000000; stroke-width: 0.8; stroke-linejoin: miter; stroke-linecap: square"/>
   </g>
   <g id="patch_5">
    <path d="M 72.80625 297.54825 
L 429.92625 297.54825 
" style="fill: none; stroke: #000000; stroke-width: 0.8; stroke-linejoin: miter; stroke-linecap: square"/>
   </g>
   <g id="patch_6">
    <path d="M 72.80625 31.43625 
L 429.92625 31.43625 
" style="fill: none; stroke: #000000; stroke-width: 0.8; stroke-linejoin: miter; stroke-linecap: square"/>
   </g>
   <g id="text_6">
    <!-- [[7, 1, 3]] Phenomenological -->
    <g transform="translate(80.559375 25.43625) scale(0.24 -0.24)">
     <defs>
      <path id="DejaVuSans-5b" d="M 550 4863 
L 1875 4863 
L 1875 4416 
L 1125 4416 
L 1125 -397 
L 1875 -397 
L 1875 -844 
L 550 -844 
L 550 4863 
z
" transform="scale(0.015625)"/>
      <path id="DejaVuSans-37" d="M 525 4666 
L 3525 4666 
L 3525 4397 
L 1831 0 
L 1172 0 
L 2766 4134 
L 525 4134 
L 525 4666 
z
" transform="scale(0.015625)"/>
      <path id="DejaVuSans-2c" d="M 750 794 
L 1409 794 
L 1409 256 
L 897 -744 
L 494 -744 
L 750 256 
L 750 794 
z
" transform="scale(0.015625)"/>
      <path id="DejaVuSans-33" d="M 2597 2516 
Q 3050 2419 3304 2112 
Q 3559 1806 3559 1356 
Q 3559 666 3084 287 
Q 2609 -91 1734 -91 
Q 1441 -91 1130 -33 
Q 819 25 488 141 
L 488 750 
Q 750 597 1062 519 
Q 1375 441 1716 441 
Q 2309 441 2620 675 
Q 2931 909 2931 1356 
Q 2931 1769 2642 2001 
Q 2353 2234 1838 2234 
L 1294 2234 
L 1294 2753 
L 1863 2753 
Q 2328 2753 2575 2939 
Q 2822 3125 2822 3475 
Q 2822 3834 2567 4026 
Q 2313 4219 1838 4219 
Q 1578 4219 1281 4162 
Q 984 4106 628 3988 
L 628 4550 
Q 988 4650 1302 4700 
Q 1616 4750 1894 4750 
Q 2613 4750 3031 4423 
Q 3450 4097 3450 3541 
Q 3450 3153 3228 2886 
Q 3006 2619 2597 2516 
z
" transform="scale(0.015625)"/>
      <path id="DejaVuSans-5d" d="M 1947 4863 
L 1947 -844 
L 622 -844 
L 622 -397 
L 1369 -397 
L 1369 4416 
L 622 4416 
L 622 4863 
L 1947 4863 
z
" transform="scale(0.015625)"/>
      <path id="DejaVuSans-65" d="M 3597 1894 
L 3597 1613 
L 953 1613 
Q 991 1019 1311 708 
Q 1631 397 2203 397 
Q 2534 397 2845 478 
Q 3156 559 3463 722 
L 3463 178 
Q 3153 47 2828 -22 
Q 2503 -91 2169 -91 
Q 1331 -91 842 396 
Q 353 884 353 1716 
Q 353 2575 817 3079 
Q 1281 3584 2069 3584 
Q 2775 3584 3186 3129 
Q 3597 2675 3597 1894 
z
M 3022 2063 
Q 3016 2534 2758 2815 
Q 2500 3097 2075 3097 
Q 1594 3097 1305 2825 
Q 1016 2553 972 2059 
L 3022 2063 
z
" transform="scale(0.015625)"/>
      <path id="DejaVuSans-6e" d="M 3513 2113 
L 3513 0 
L 2938 0 
L 2938 2094 
Q 2938 2591 2744 2837 
Q 2550 3084 2163 3084 
Q 1697 3084 1428 2787 
Q 1159 2491 1159 1978 
L 1159 0 
L 581 0 
L 581 3500 
L 1159 3500 
L 1159 2956 
Q 1366 3272 1645 3428 
Q 1925 3584 2291 3584 
Q 2894 3584 3203 3211 
Q 3513 2838 3513 2113 
z
" transform="scale(0.015625)"/>
      <path id="DejaVuSans-6d" d="M 3328 2828 
Q 3544 3216 3844 3400 
Q 4144 3584 4550 3584 
Q 5097 3584 5394 3201 
Q 5691 2819 5691 2113 
L 5691 0 
L 5113 0 
L 5113 2094 
Q 5113 2597 4934 2840 
Q 4756 3084 4391 3084 
Q 3944 3084 3684 2787 
Q 3425 2491 3425 1978 
L 3425 0 
L 2847 0 
L 2847 2094 
Q 2847 2600 2669 2842 
Q 2491 3084 2119 3084 
Q 1678 3084 1418 2786 
Q 1159 2488 1159 1978 
L 1159 0 
L 581 0 
L 581 3500 
L 1159 3500 
L 1159 2956 
Q 1356 3278 1631 3431 
Q 1906 3584 2284 3584 
Q 2666 3584 2933 3390 
Q 3200 3197 3328 2828 
z
" transform="scale(0.015625)"/>
     </defs>
     <use xlink:href="#DejaVuSans-5b"/>
     <use xlink:href="#DejaVuSans-5b" x="39.013672"/>
     <use xlink:href="#DejaVuSans-37" x="78.027344"/>
     <use xlink:href="#DejaVuSans-2c" x="141.650391"/>
     <use xlink:href="#DejaVuSans-20" x="173.4375"/>
     <use xlink:href="#DejaVuSans-31" x="205.224609"/>
     <use xlink:href="#DejaVuSans-2c" x="268.847656"/>
     <use xlink:href="#DejaVuSans-20" x="300.634766"/>
     <use xlink:href="#DejaVuSans-33" x="332.421875"/>
     <use xlink:href="#DejaVuSans-5d" x="396.044922"/>
     <use xlink:href="#DejaVuSans-5d" x="435.058594"/>
     <use xlink:href="#DejaVuSans-20" x="474.072266"/>
     <use xlink:href="#DejaVuSans-50" x="505.859375"/>
     <use xlink:href="#DejaVuSans-68" x="566.162109"/>
     <use xlink:href="#DejaVuSans-65" x="629.541016"/>
     <use xlink:href="#DejaVuSans-6e" x="691.064453"/>
     <use xlink:href="#DejaVuSans-6f" x="754.443359"/>
     <use xlink:href="#DejaVuSans-6d" x="815.625"/>
     <use xlink:href="#DejaVuSans-65" x="913.037109"/>
     <use xlink:href="#DejaVuSans-6e" x="974.560547"/>
     <use xlink:href="#DejaVuSans-6f" x="1037.939453"/>
     <use xlink:href="#DejaVuSans-6c" x="1099.121094"/>
     <use xlink:href="#DejaVuSans-6f" x="1126.904297"/>
     <use xlink:href="#DejaVuSans-67" x="1188.085938"/>
     <use xlink:href="#DejaVuSans-69" x="1251.5625"/>
     <use xlink:href="#DejaVuSans-63" x="1279.345703"/>
     <use xlink:href="#DejaVuSans-61" x="1334.326172"/>
     <use xlink:href="#DejaVuSans-6c" x="1395.605469"/>
    </g>
   </g>
   <g id="legend_1">
    <g id="patch_7">
     <path d="M 259.179375 291.54825 
L 421.52625 291.54825 
Q 423.92625 291.54825 423.92625 289.14825 
L 423.92625 184.66575 
Q 423.92625 182.26575 421.52625 182.26575 
L 259.179375 182.26575 
Q 256.779375 182.26575 256.779375 184.66575 
L 256.779375 289.14825 
Q 256.779375 291.54825 259.179375 291.54825 
z
" style="fill: #ffffff; opacity: 0.8; stroke: #cccccc; stroke-linejoin: miter"/>
    </g>
    <g id="line2d_42">
     <path d="M 261.579375 191.983875 
L 273.579375 191.983875 
L 285.579375 191.983875 
" style="fill: none; stroke: #2ca02c; stroke-width: 1.5; stroke-linecap: square"/>
    </g>
    <g id="text_7">
     <!-- measure 1 round -->
     <g transform="translate(295.179375 196.183875) scale(0.12 -0.12)">
      <defs>
       <path id="DejaVuSans-75" d="M 544 1381 
L 544 3500 
L 1119 3500 
L 1119 1403 
Q 1119 906 1312 657 
Q 1506 409 1894 409 
Q 2359 409 2629 706 
Q 2900 1003 2900 1516 
L 2900 3500 
L 3475 3500 
L 3475 0 
L 2900 0 
L 2900 538 
Q 2691 219 2414 64 
Q 2138 -91 1772 -91 
Q 1169 -91 856 284 
Q 544 659 544 1381 
z
M 1991 3584 
L 1991 3584 
z
" transform="scale(0.015625)"/>
       <path id="DejaVuSans-64" d="M 2906 2969 
L 2906 4863 
L 3481 4863 
L 3481 0 
L 2906 0 
L 2906 525 
Q 2725 213 2448 61 
Q 2172 -91 1784 -91 
Q 1150 -91 751 415 
Q 353 922 353 1747 
Q 353 2572 751 3078 
Q 1150 3584 1784 3584 
Q 2172 3584 2448 3432 
Q 2725 3281 2906 2969 
z
M 947 1747 
Q 947 1113 1208 752 
Q 1469 391 1925 391 
Q 2381 391 2643 752 
Q 2906 1113 2906 1747 
Q 2906 2381 2643 2742 
Q 2381 3103 1925 3103 
Q 1469 3103 1208 2742 
Q 947 2381 947 1747 
z
" transform="scale(0.015625)"/>
      </defs>
      <use xlink:href="#DejaVuSans-6d"/>
      <use xlink:href="#DejaVuSans-65" x="97.412109"/>
      <use xlink:href="#DejaVuSans-61" x="158.935547"/>
      <use xlink:href="#DejaVuSans-73" x="220.214844"/>
      <use xlink:href="#DejaVuSans-75" x="272.314453"/>
      <use xlink:href="#DejaVuSans-72" x="335.693359"/>
      <use xlink:href="#DejaVuSans-65" x="374.556641"/>
      <use xlink:href="#DejaVuSans-20" x="436.080078"/>
      <use xlink:href="#DejaVuSans-31" x="467.867188"/>
      <use xlink:href="#DejaVuSans-20" x="531.490234"/>
      <use xlink:href="#DejaVuSans-72" x="563.277344"/>
      <use xlink:href="#DejaVuSans-6f" x="602.140625"/>
      <use xlink:href="#DejaVuSans-75" x="663.322266"/>
      <use xlink:href="#DejaVuSans-6e" x="726.701172"/>
      <use xlink:href="#DejaVuSans-64" x="790.080078"/>
     </g>
    </g>
    <g id="line2d_43">
     <path d="M 261.579375 209.597625 
L 273.579375 209.597625 
L 285.579375 209.597625 
" style="fill: none; stroke: #d62728; stroke-width: 1.5; stroke-linecap: square"/>
    </g>
    <g id="text_8">
     <!-- measure 3 rounds -->
     <g transform="translate(295.179375 213.797625) scale(0.12 -0.12)">
      <use xlink:href="#DejaVuSans-6d"/>
      <use xlink:href="#DejaVuSans-65" x="97.412109"/>
      <use xlink:href="#DejaVuSans-61" x="158.935547"/>
      <use xlink:href="#DejaVuSans-73" x="220.214844"/>
      <use xlink:href="#DejaVuSans-75" x="272.314453"/>
      <use xlink:href="#DejaVuSans-72" x="335.693359"/>
      <use xlink:href="#DejaVuSans-65" x="374.556641"/>
      <use xlink:href="#DejaVuSans-20" x="436.080078"/>
      <use xlink:href="#DejaVuSans-33" x="467.867188"/>
      <use xlink:href="#DejaVuSans-20" x="531.490234"/>
      <use xlink:href="#DejaVuSans-72" x="563.277344"/>
      <use xlink:href="#DejaVuSans-6f" x="602.140625"/>
      <use xlink:href="#DejaVuSans-75" x="663.322266"/>
      <use xlink:href="#DejaVuSans-6e" x="726.701172"/>
      <use xlink:href="#DejaVuSans-64" x="790.080078"/>
      <use xlink:href="#DejaVuSans-73" x="853.556641"/>
     </g>
    </g>
    <g id="line2d_44">
     <path d="M 261.579375 227.211375 
L 273.579375 227.211375 
L 285.579375 227.211375 
" style="fill: none; stroke: #9467bd; stroke-width: 1.5; stroke-linecap: square"/>
    </g>
    <g id="text_9">
     <!-- measure 5 rounds -->
     <g transform="translate(295.179375 231.411375) scale(0.12 -0.12)">
      <defs>
       <path id="DejaVuSans-35" d="M 691 4666 
L 3169 4666 
L 3169 4134 
L 1269 4134 
L 1269 2991 
Q 1406 3038 1543 3061 
Q 1681 3084 1819 3084 
Q 2600 3084 3056 2656 
Q 3513 2228 3513 1497 
Q 3513 744 3044 326 
Q 2575 -91 1722 -91 
Q 1428 -91 1123 -41 
Q 819 9 494 109 
L 494 744 
Q 775 591 1075 516 
Q 1375 441 1709 441 
Q 2250 441 2565 725 
Q 2881 1009 2881 1497 
Q 2881 1984 2565 2268 
Q 2250 2553 1709 2553 
Q 1456 2553 1204 2497 
Q 953 2441 691 2322 
L 691 4666 
z
" transform="scale(0.015625)"/>
      </defs>
      <use xlink:href="#DejaVuSans-6d"/>
      <use xlink:href="#DejaVuSans-65" x="97.412109"/>
      <use xlink:href="#DejaVuSans-61" x="158.935547"/>
      <use xlink:href="#DejaVuSans-73" x="220.214844"/>
      <use xlink:href="#DejaVuSans-75" x="272.314453"/>
      <use xlink:href="#DejaVuSans-72" x="335.693359"/>
      <use xlink:href="#DejaVuSans-65" x="374.556641"/>
      <use xlink:href="#DejaVuSans-20" x="436.080078"/>
      <use xlink:href="#DejaVuSans-35" x="467.867188"/>
      <use xlink:href="#DejaVuSans-20" x="531.490234"/>
      <use xlink:href="#DejaVuSans-72" x="563.277344"/>
      <use xlink:href="#DejaVuSans-6f" x="602.140625"/>
      <use xlink:href="#DejaVuSans-75" x="663.322266"/>
      <use xlink:href="#DejaVuSans-6e" x="726.701172"/>
      <use xlink:href="#DejaVuSans-64" x="790.080078"/>
      <use xlink:href="#DejaVuSans-73" x="853.556641"/>
     </g>
    </g>
    <g id="line2d_45">
     <path d="M 261.579375 244.825125 
L 273.579375 244.825125 
L 285.579375 244.825125 
" style="fill: none; stroke: #8c564b; stroke-width: 1.5; stroke-linecap: square"/>
    </g>
    <g id="text_10">
     <!-- measure 7 rounds -->
     <g transform="translate(295.179375 249.025125) scale(0.12 -0.12)">
      <use xlink:href="#DejaVuSans-6d"/>
      <use xlink:href="#DejaVuSans-65" x="97.412109"/>
      <use xlink:href="#DejaVuSans-61" x="158.935547"/>
      <use xlink:href="#DejaVuSans-73" x="220.214844"/>
      <use xlink:href="#DejaVuSans-75" x="272.314453"/>
      <use xlink:href="#DejaVuSans-72" x="335.693359"/>
      <use xlink:href="#DejaVuSans-65" x="374.556641"/>
      <use xlink:href="#DejaVuSans-20" x="436.080078"/>
      <use xlink:href="#DejaVuSans-37" x="467.867188"/>
      <use xlink:href="#DejaVuSans-20" x="531.490234"/>
      <use xlink:href="#DejaVuSans-72" x="563.277344"/>
      <use xlink:href="#DejaVuSans-6f" x="602.140625"/>
      <use xlink:href="#DejaVuSans-75" x="663.322266"/>
      <use xlink:href="#DejaVuSans-6e" x="726.701172"/>
      <use xlink:href="#DejaVuSans-64" x="790.080078"/>
      <use xlink:href="#DejaVuSans-73" x="853.556641"/>
     </g>
    </g>
    <g id="line2d_46">
     <path d="M 261.579375 262.438875 
L 273.579375 262.438875 
L 285.579375 262.438875 
" style="fill: none; stroke: #e377c2; stroke-width: 1.5; stroke-linecap: square"/>
    </g>
    <g id="text_11">
     <!-- measure 101 rounds -->
     <g transform="translate(295.179375 266.638875) scale(0.12 -0.12)">
      <use xlink:href="#DejaVuSans-6d"/>
      <use xlink:href="#DejaVuSans-65" x="97.412109"/>
      <use xlink:href="#DejaVuSans-61" x="158.935547"/>
      <use xlink:href="#DejaVuSans-73" x="220.214844"/>
      <use xlink:href="#DejaVuSans-75" x="272.314453"/>
      <use xlink:href="#DejaVuSans-72" x="335.693359"/>
      <use xlink:href="#DejaVuSans-65" x="374.556641"/>
      <use xlink:href="#DejaVuSans-20" x="436.080078"/>
      <use xlink:href="#DejaVuSans-31" x="467.867188"/>
      <use xlink:href="#DejaVuSans-30" x="531.490234"/>
      <use xlink:href="#DejaVuSans-31" x="595.113281"/>
      <use xlink:href="#DejaVuSans-20" x="658.736328"/>
      <use xlink:href="#DejaVuSans-72" x="690.523438"/>
      <use xlink:href="#DejaVuSans-6f" x="729.386719"/>
      <use xlink:href="#DejaVuSans-75" x="790.568359"/>
      <use xlink:href="#DejaVuSans-6e" x="853.947266"/>
      <use xlink:href="#DejaVuSans-64" x="917.326172"/>
      <use xlink:href="#DejaVuSans-73" x="980.802734"/>
     </g>
    </g>
    <g id="line2d_47">
     <path d="M 261.579375 280.052625 
L 273.579375 280.052625 
L 285.579375 280.052625 
" style="fill: none; stroke: #ff7f0e; stroke-opacity: 0.4; stroke-width: 1.5; stroke-linecap: square"/>
    </g>
    <g id="text_12">
     <!-- no measure error -->
     <g transform="translate(295.179375 284.252625) scale(0.12 -0.12)">
      <use xlink:href="#DejaVuSans-6e"/>
      <use xlink:href="#DejaVuSans-6f" x="63.378906"/>
      <use xlink:href="#DejaVuSans-20" x="124.560547"/>
      <use xlink:href="#DejaVuSans-6d" x="156.347656"/>
      <use xlink:href="#DejaVuSans-65" x="253.759766"/>
      <use xlink:href="#DejaVuSans-61" x="315.283203"/>
      <use xlink:href="#DejaVuSans-73" x="376.5625"/>
      <use xlink:href="#DejaVuSans-75" x="428.662109"/>
      <use xlink:href="#DejaVuSans-72" x="492.041016"/>
      <use xlink:href="#DejaVuSans-65" x="530.904297"/>
      <use xlink:href="#DejaVuSans-20" x="592.427734"/>
      <use xlink:href="#DejaVuSans-65" x="624.214844"/>
      <use xlink:href="#DejaVuSans-72" x="685.738281"/>
      <use xlink:href="#DejaVuSans-72" x="725.101562"/>
      <use xlink:href="#DejaVuSans-6f" x="763.964844"/>
      <use xlink:href="#DejaVuSans-72" x="825.146484"/>
     </g>
    </g>
   </g>
  </g>
 </g>
 <defs>
  <clipPath id="p15f64459f5">
   <rect x="72.80625" y="31.43625" width="357.12" height="266.112"/>
  </clipPath>
 </defs>
</svg>
