<?xml version="1.0" encoding="utf-8" standalone="no"?>
<!DOCTYPE svg PUBLIC "-//W3C//DTD SVG 1.1//EN"
  "http://www.w3.org/Graphics/SVG/1.1/DTD/svg11.dtd">
<svg xmlns:xlink="http://www.w3.org/1999/xlink" width="437.12625pt" height="349.621687pt" viewBox="0 0 437.12625 349.621687" xmlns="http://www.w3.org/2000/svg" version="1.1">
 <defs>
  <style type="text/css">*{stroke-linejoin: round; stroke-linecap: butt}</style>
 </defs>
 <g id="figure_1">
  <g id="patch_1">
   <path d="M -0 349.621687 
L 437.12625 349.621687 
L 437.12625 0 
L -0 0 
L -0 349.621687 
z
" style="fill: none"/>
  </g>
  <g id="axes_1">
   <g id="patch_2">
    <path d="M 72.80625 297.54825 
L 429.92625 297.54825 
L 429.92625 31.43625 
L 72.80625 31.43625 
L 72.80625 297.54825 
z
" style="fill: none"/>
   </g>
   <g id="matplotlib.axis_1">
    <g id="xtick_1">
     <g id="line2d_1">
      <path d="M 285.048426 297.54825 
L 285.048426 31.43625 
" clip-path="url(#p15f64459f5)" style="fill: none; stroke: #b0b0b0; stroke-width: 0.8; stroke-linecap: square"/>
     </g>
     <g id="line2d_2">
      <defs>
       <path id="md39032bed2" d="M 0 0 
L 0 3.5 
" style="stroke: #000000; stroke-width: 0.8"/>
      </defs>
      <g>
       <use xlink:href="#md39032bed2" x="285.048426" y="297.54825" style="stroke: #000000; stroke-width: 0.8"/>
      </g>
     </g>
     <g id="text_1">
      <!-- $\mathdefault{10^{-1}}$ -->
      <g transform="translate(267.423426 315.945906) scale(0.15 -0.15)">
       <defs>
        <path id="DejaVuSans-31" d="M 794 531 
L 1825 531 
L 1825 4091 
L 703 3866 
L 703 4441 
L 1819 4666 
L 2450 4666 
L 2450 531 
L 3481 531 
L 3481 0 
L 794 0 
L 794 531 
z
" transform="scale(0.015625)"/>
        <path id="DejaVuSans-30" d="M 2034 4250 
Q 1547 4250 1301 3770 
Q 1056 3291 1056 2328 
Q 1056 1369 1301 889 
Q 1547 409 2034 409 
Q 2525 409 2770 889 
Q 3016 1369 3016 2328 
Q 3016 3291 2770 3770 
Q 2525 4250 2034 4250 
z
M 2034 4750 
Q 2819 4750 3233 4129 
Q 3647 3509 3647 2328 
Q 3647 1150 3233 529 
Q 2819 -91 2034 -91 
Q 1250 -91 836 529 
Q 422 1150 422 2328 
Q 422 3509 836 4129 
Q 1250 4750 2034 4750 
z
" transform="scale(0.015625)"/>
        <path id="DejaVuSans-2212" d="M 678 2272 
L 4684 2272 
L 4684 1741 
L 678 1741 
L 678 2272 
z
" transform="scale(0.015625)"/>
       </defs>
       <use xlink:href="#DejaVuSans-31" transform="translate(0 0.684375)"/>
       <use xlink:href="#DejaVuSans-30" transform="translate(63.623047 0.684375)"/>
       <use xlink:href="#DejaVuSans-2212" transform="translate(128.203125 38.965625) scale(0.7)"/>
       <use xlink:href="#DejaVuSans-31" transform="translate(186.855469 38.965625) scale(0.7)"/>
      </g>
     </g>
    </g>
    <g id="xtick_2">
     <g id="line2d_3">
      <defs>
       <path id="m00e623f56d" d="M 0 0 
L 0 2 
" style="stroke: #000000; stroke-width: 0.6"/>
      </defs>
      <g>
       <use xlink:href="#m00e623f56d" x="72.80625" y="297.54825" style="stroke: #000000; stroke-width: 0.6"/>
      </g>
     </g>
    </g>
    <g id="xtick_3">
     <g id="line2d_4">
      <g>
       <use xlink:href="#m00e623f56d" x="126.276344" y="297.54825" style="stroke: #000000; stroke-width: 0.6"/>
      </g>
     </g>
    </g>
    <g id="xtick_4">
     <g id="line2d_5">
      <g>
       <use xlink:href="#m00e623f56d" x="164.21398" y="297.54825" style="stroke: #000000; stroke-width: 0.6"/>
      </g>
     </g>
    </g>
    <g id="xtick_5">
     <g id="line2d_6">
      <g>
       <use xlink:href="#m00e623f56d" x="193.640696" y="297.54825" style="stroke: #000000; stroke-width: 0.6"/>
      </g>
     </g>
    </g>
    <g id="xtick_6">
     <g id="line2d_7">
      <g>
       <use xlink:href="#m00e623f56d" x="217.684074" y="297.54825" style="stroke: #000000; stroke-width: 0.6"/>
      </g>
     </g>
    </g>
    <g id="xtick_7">
     <g id="line2d_8">
      <g>
       <use xlink:href="#m00e623f56d" x="238.01246" y="297.54825" style="stroke: #000000; stroke-width: 0.6"/>
      </g>
     </g>
    </g>
    <g id="xtick_8">
     <g id="line2d_9">
      <g>
       <use xlink:href="#m00e623f56d" x="255.62171" y="297.54825" style="stroke: #000000; stroke-width: 0.6"/>
      </g>
     </g>
    </g>
    <g id="xtick_9">
     <g id="line2d_10">
      <g>
       <use xlink:href="#m00e623f56d" x="271.154168" y="297.54825" style="stroke: #000000; stroke-width: 0.6"/>
      </g>
     </g>
    </g>
    <g id="xtick_10">
     <g id="line2d_11">
      <g>
       <use xlink:href="#m00e623f56d" x="376.456156" y="297.54825" style="stroke: #000000; stroke-width: 0.6"/>
      </g>
     </g>
    </g>
    <g id="xtick_11">
     <g id="line2d_12">
      <g>
       <use xlink:href="#m00e623f56d" x="429.92625" y="297.54825" style="stroke: #000000; stroke-width: 0.6"/>
      </g>
     </g>
    </g>
    <g id="text_2">
     <!-- Physical Error -->
     <g transform="translate(183.139688 338.262312) scale(0.2 -0.2)">
      <defs>
       <path id="DejaVuSans-50" d="M 1259 4147 
L 1259 2394 
L 2053 2394 
Q 2494 2394 2734 2622 
Q 2975 2850 2975 3272 
Q 2975 3691 2734 3919 
Q 2494 4147 2053 4147 
L 1259 4147 
z
M 628 4666 
L 2053 4666 
Q 2838 4666 3239 4311 
Q 3641 3956 3641 3272 
Q 3641 2581 3239 2228 
Q 2838 1875 2053 1875 
L 1259 1875 
L 1259 0 
L 628 0 
L 628 4666 
z
" transform="scale(0.015625)"/>
       <path id="DejaVuSans-68" d="M 3513 2113 
L 3513 0 
L 2938 0 
L 2938 2094 
Q 2938 2591 2744 2837 
Q 2550 3084 2163 3084 
Q 1697 3084 1428 2787 
Q 1159 2491 1159 1978 
L 1159 0 
L 581 0 
L 581 4863 
L 1159 4863 
L 1159 2956 
Q 1366 3272 1645 3428 
Q 1925 3584 2291 3584 
Q 2894 3584 3203 3211 
Q 3513 2838 3513 2113 
z
" transform="scale(0.015625)"/>
       <path id="DejaVuSans-79" d="M 2059 -325 
Q 1816 -950 1584 -1140 
Q 1353 -1331 966 -1331 
L 506 -1331 
L 506 -850 
L 844 -850 
Q 1081 -850 1212 -737 
Q 1344 -625 1503 -206 
L 1606 56 
L 191 3500 
L 800 3500 
L 1894 763 
L 2988 3500 
L 3597 3500 
L 2059 -325 
z
" transform="scale(0.015625)"/>
       <path id="DejaVuSans-73" d="M 2834 3397 
L 2834 2853 
Q 2591 2978 2328 3040 
Q 2066 3103 1784 3103 
Q 1356 3103 1142 2972 
Q 928 2841 928 2578 
Q 928 2378 1081 2264 
Q 1234 2150 1697 2047 
L 1894 2003 
Q 2506 1872 2764 1633 
Q 3022 1394 3022 966 
Q 3022 478 2636 193 
Q 2250 -91 1575 -91 
Q 1294 -91 989 -36 
Q 684 19 347 128 
L 347 722 
Q 666 556 975 473 
Q 1284 391 1588 391 
Q 1994 391 2212 530 
Q 2431 669 2431 922 
Q 2431 1156 2273 1281 
Q 2116 1406 1581 1522 
L 1381 1569 
Q 847 1681 609 1914 
Q 372 2147 372 2553 
Q 372 3047 722 3315 
Q 1072 3584 1716 3584 
Q 2034 3584 2315 3537 
Q 2597 3491 2834 3397 
z
" transform="scale(0.015625)"/>
       <path id="DejaVuSans-69" d="M 603 3500 
L 1178 3500 
L 1178 0 
L 603 0 
L 603 3500 
z
M 603 4863 
L 1178 4863 
L 1178 4134 
L 603 4134 
L 603 4863 
z
" transform="scale(0.015625)"/>
       <path id="DejaVuSans-63" d="M 3122 3366 
L 3122 2828 
Q 2878 2963 2633 3030 
Q 2388 3097 2138 3097 
Q 1578 3097 1268 2742 
Q 959 2388 959 1747 
Q 959 1106 1268 751 
Q 1578 397 2138 397 
Q 2388 397 2633 464 
Q 2878 531 3122 666 
L 3122 134 
Q 2881 22 2623 -34 
Q 2366 -91 2075 -91 
Q 1284 -91 818 406 
Q 353 903 353 1747 
Q 353 2603 823 3093 
Q 1294 3584 2113 3584 
Q 2378 3584 2631 3529 
Q 2884 3475 3122 3366 
z
" transform="scale(0.015625)"/>
       <path id="DejaVuSans-61" d="M 2194 1759 
Q 1497 1759 1228 1600 
Q 959 1441 959 1056 
Q 959 750 1161 570 
Q 1363 391 1709 391 
Q 2188 391 2477 730 
Q 2766 1069 2766 1631 
L 2766 1759 
L 2194 1759 
z
M 3341 1997 
L 3341 0 
L 2766 0 
L 2766 531 
Q 2569 213 2275 61 
Q 1981 -91 1556 -91 
Q 1019 -91 701 211 
Q 384 513 384 1019 
Q 384 1609 779 1909 
Q 1175 2209 1959 2209 
L 2766 2209 
L 2766 2266 
Q 2766 2663 2505 2880 
Q 2244 3097 1772 3097 
Q 1472 3097 1187 3025 
Q 903 2953 641 2809 
L 641 3341 
Q 956 3463 1253 3523 
Q 1550 3584 1831 3584 
Q 2591 3584 2966 3190 
Q 3341 2797 3341 1997 
z
" transform="scale(0.015625)"/>
       <path id="DejaVuSans-6c" d="M 603 4863 
L 1178 4863 
L 1178 0 
L 603 0 
L 603 4863 
z
" transform="scale(0.015625)"/>
       <path id="DejaVuSans-20" transform="scale(0.015625)"/>
       <path id="DejaVuSans-45" d="M 628 4666 
L 3578 4666 
L 3578 4134 
L 1259 4134 
L 1259 2753 
L 3481 2753 
L 3481 2222 
L 1259 2222 
L 1259 531 
L 3634 531 
L 3634 0 
L 628 0 
L 628 4666 
z
" transform="scale(0.015625)"/>
       <path id="DejaVuSans-72" d="M 2631 2963 
Q 2534 3019 2420 3045 
Q 2306 3072 2169 3072 
Q 1681 3072 1420 2755 
Q 1159 2438 1159 1844 
L 1159 0 
L 581 0 
L 581 3500 
L 1159 3500 
L 1159 2956 
Q 1341 3275 1631 3429 
Q 1922 3584 2338 3584 
Q 2397 3584 2469 3576 
Q 2541 3569 2628 3553 
L 2631 2963 
z
" transform="scale(0.015625)"/>
       <path id="DejaVuSans-6f" d="M 1959 3097 
Q 1497 3097 1228 2736 
Q 959 2375 959 1747 
Q 959 1119 1226 758 
Q 1494 397 1959 397 
Q 2419 397 2687 759 
Q 2956 1122 2956 1747 
Q 2956 2369 2687 2733 
Q 2419 3097 1959 3097 
z
M 1959 3584 
Q 2709 3584 3137 3096 
Q 3566 2609 3566 1747 
Q 3566 888 3137 398 
Q 2709 -91 1959 -91 
Q 1206 -91 779 398 
Q 353 888 353 1747 
Q 353 2609 779 3096 
Q 1206 3584 1959 3584 
z
" transform="scale(0.015625)"/>
      </defs>
      <use xlink:href="#DejaVuSans-50"/>
      <use xlink:href="#DejaVuSans-68" x="60.302734"/>
      <use xlink:href="#DejaVuSans-79" x="123.681641"/>
      <use xlink:href="#DejaVuSans-73" x="182.861328"/>
      <use xlink:href="#DejaVuSans-69" x="234.960938"/>
      <use xlink:href="#DejaVuSans-63" x="262.744141"/>
      <use xlink:href="#DejaVuSans-61" x="317.724609"/>
      <use xlink:href="#DejaVuSans-6c" x="379.003906"/>
      <use xlink:href="#DejaVuSans-20" x="406.787109"/>
      <use xlink:href="#DejaVuSans-45" x="438.574219"/>
      <use xlink:href="#DejaVuSans-72" x="501.757812"/>
      <use xlink:href="#DejaVuSans-72" x="541.121094"/>
      <use xlink:href="#DejaVuSans-6f" x="579.984375"/>
      <use xlink:href="#DejaVuSans-72" x="641.166016"/>
     </g>
    </g>
   </g>
   <g id="matplotlib.axis_2">
    <g id="ytick_1">
     <g id="line2d_13">
      <path d="M 72.80625 277.5184 
L 429.92625 277.5184 
" clip-path="url(#p15f64459f5)" style="fill: none; stroke: #b0b0b0; stroke-width: 0.8; stroke-linecap: square"/>
     </g>
     <g id="line2d_14">
      <defs>
       <path id="m6f3f5b6aff" d="M 0 0 
L -3.5 0 
" style="stroke: #000000; stroke-width: 0.8"/>
      </defs>
      <g>
       <use xlink:href="#m6f3f5b6aff" x="72.80625" y="277.5184" style="stroke: #000000; stroke-width: 0.8"/>
      </g>
     </g>
     <g id="text_3">
      <!-- $\mathdefault{10^{-2}}$ -->
      <g transform="translate(30.55625 283.217228) scale(0.15 -0.15)">
       <defs>
        <path id="DejaVuSans-32" d="M 1228 531 
L 3431 531 
L 3431 0 
L 469 0 
L 469 531 
Q 828 903 1448 1529 
Q 2069 2156 2228 2338 
Q 2531 2678 2651 2914 
Q 2772 3150 2772 3378 
Q 2772 3750 2511 3984 
Q 2250 4219 1831 4219 
Q 1534 4219 1204 4116 
Q 875 4013 500 3803 
L 500 4441 
Q 881 4594 1212 4672 
Q 1544 4750 1819 4750 
Q 2544 4750 2975 4387 
Q 3406 4025 3406 3419 
Q 3406 3131 3298 2873 
Q 3191 2616 2906 2266 
Q 2828 2175 2409 1742 
Q 1991 1309 1228 531 
z
" transform="scale(0.015625)"/>
       </defs>
       <use xlink:href="#DejaVuSans-31" transform="translate(0 0.765625)"/>
       <use xlink:href="#DejaVuSans-30" transform="translate(63.623047 0.765625)"/>
       <use xlink:href="#DejaVuSans-2212" transform="translate(128.203125 39.046875) scale(0.7)"/>
       <use xlink:href="#DejaVuSans-32" transform="translate(186.855469 39.046875) scale(0.7)"/>
      </g>
     </g>
    </g>
    <g id="ytick_2">
     <g id="line2d_15">
      <path d="M 72.80625 148.211771 
L 429.92625 148.211771 
" clip-path="url(#p15f64459f5)" style="fill: none; stroke: #b0b0b0; stroke-width: 0.8; stroke-linecap: square"/>
     </g>
     <g id="line2d_16">
      <g>
       <use xlink:href="#m6f3f5b6aff" x="72.80625" y="148.211771" style="stroke: #000000; stroke-width: 0.8"/>
      </g>
     </g>
     <g id="text_4">
      <!-- $\mathdefault{10^{-1}}$ -->
      <g transform="translate(30.55625 153.9106) scale(0.15 -0.15)">
       <use xlink:href="#DejaVuSans-31" transform="translate(0 0.684375)"/>
       <use xlink:href="#DejaVuSans-30" transform="translate(63.623047 0.684375)"/>
       <use xlink:href="#DejaVuSans-2212" transform="translate(128.203125 38.965625) scale(0.7)"/>
       <use xlink:href="#DejaVuSans-31" transform="translate(186.855469 38.965625) scale(0.7)"/>
      </g>
     </g>
    </g>
    <g id="ytick_3">
     <g id="line2d_17">
      <defs>
       <path id="m25c94c0720" d="M 0 0 
L -2 0 
" style="stroke: #000000; stroke-width: 0.6"/>
      </defs>
      <g>
       <use xlink:href="#m25c94c0720" x="72.80625" y="297.54825" style="stroke: #000000; stroke-width: 0.6"/>
      </g>
     </g>
    </g>
    <g id="ytick_4">
     <g id="line2d_18">
      <g>
       <use xlink:href="#m25c94c0720" x="72.80625" y="290.049507" style="stroke: #000000; stroke-width: 0.6"/>
      </g>
     </g>
    </g>
    <g id="ytick_5">
     <g id="line2d_19">
      <g>
       <use xlink:href="#m25c94c0720" x="72.80625" y="283.435147" style="stroke: #000000; stroke-width: 0.6"/>
      </g>
     </g>
    </g>
    <g id="ytick_6">
     <g id="line2d_20">
      <g>
       <use xlink:href="#m25c94c0720" x="72.80625" y="238.593226" style="stroke: #000000; stroke-width: 0.6"/>
      </g>
     </g>
    </g>
    <g id="ytick_7">
     <g id="line2d_21">
      <g>
       <use xlink:href="#m25c94c0720" x="72.80625" y="215.823459" style="stroke: #000000; stroke-width: 0.6"/>
      </g>
     </g>
    </g>
    <g id="ytick_8">
     <g id="line2d_22">
      <g>
       <use xlink:href="#m25c94c0720" x="72.80625" y="199.668052" style="stroke: #000000; stroke-width: 0.6"/>
      </g>
     </g>
    </g>
    <g id="ytick_9">
     <g id="line2d_23">
      <g>
       <use xlink:href="#m25c94c0720" x="72.80625" y="187.136945" style="stroke: #000000; stroke-width: 0.6"/>
      </g>
     </g>
    </g>
    <g id="ytick_10">
     <g id="line2d_24">
      <g>
       <use xlink:href="#m25c94c0720" x="72.80625" y="176.898285" style="stroke: #000000; stroke-width: 0.6"/>
      </g>
     </g>
    </g>
    <g id="ytick_11">
     <g id="line2d_25">
      <g>
       <use xlink:href="#m25c94c0720" x="72.80625" y="168.241622" style="stroke: #000000; stroke-width: 0.6"/>
      </g>
     </g>
    </g>
    <g id="ytick_12">
     <g id="line2d_26">
      <g>
       <use xlink:href="#m25c94c0720" x="72.80625" y="160.742878" style="stroke: #000000; stroke-width: 0.6"/>
      </g>
     </g>
    </g>
    <g id="ytick_13">
     <g id="line2d_27">
      <g>
       <use xlink:href="#m25c94c0720" x="72.80625" y="154.128518" style="stroke: #000000; stroke-width: 0.6"/>
      </g>
     </g>
    </g>
    <g id="ytick_14">
     <g id="line2d_28">
      <g>
       <use xlink:href="#m25c94c0720" x="72.80625" y="109.286598" style="stroke: #000000; stroke-width: 0.6"/>
      </g>
     </g>
    </g>
    <g id="ytick_15">
     <g id="line2d_29">
      <g>
       <use xlink:href="#m25c94c0720" x="72.80625" y="86.516831" style="stroke: #000000; stroke-width: 0.6"/>
      </g>
     </g>
    </g>
    <g id="ytick_16">
     <g id="line2d_30">
      <g>
       <use xlink:href="#m25c94c0720" x="72.80625" y="70.361424" style="stroke: #000000; stroke-width: 0.6"/>
      </g>
     </g>
    </g>
    <g id="ytick_17">
     <g id="line2d_31">
      <g>
       <use xlink:href="#m25c94c0720" x="72.80625" y="57.830317" style="stroke: #000000; stroke-width: 0.6"/>
      </g>
     </g>
    </g>
    <g id="ytick_18">
     <g id="line2d_32">
      <g>
       <use xlink:href="#m25c94c0720" x="72.80625" y="47.591657" style="stroke: #000000; stroke-width: 0.6"/>
      </g>
     </g>
    </g>
    <g id="ytick_19">
     <g id="line2d_33">
      <g>
       <use xlink:href="#m25c94c0720" x="72.80625" y="38.934993" style="stroke: #000000; stroke-width: 0.6"/>
      </g>
     </g>
    </g>
    <g id="ytick_20">
     <g id="line2d_34">
      <g>
       <use xlink:href="#m25c94c0720" x="72.80625" y="31.43625" style="stroke: #000000; stroke-width: 0.6"/>
      </g>
     </g>
    </g>
    <g id="text_5">
     <!-- Logical Error -->
     <g transform="translate(22.396875 227.087562) rotate(-90) scale(0.2 -0.2)">
      <defs>
       <path id="DejaVuSans-4c" d="M 628 4666 
L 1259 4666 
L 1259 531 
L 3531 531 
L 3531 0 
L 628 0 
L 628 4666 
z
" transform="scale(0.015625)"/>
       <path id="DejaVuSans-67" d="M 2906 1791 
Q 2906 2416 2648 2759 
Q 2391 3103 1925 3103 
Q 1463 3103 1205 2759 
Q 947 2416 947 1791 
Q 947 1169 1205 825 
Q 1463 481 1925 481 
Q 2391 481 2648 825 
Q 2906 1169 2906 1791 
z
M 3481 434 
Q 3481 -459 3084 -895 
Q 2688 -1331 1869 -1331 
Q 1566 -1331 1297 -1286 
Q 1028 -1241 775 -1147 
L 775 -588 
Q 1028 -725 1275 -790 
Q 1522 -856 1778 -856 
Q 2344 -856 2625 -561 
Q 2906 -266 2906 331 
L 2906 616 
Q 2728 306 2450 153 
Q 2172 0 1784 0 
Q 1141 0 747 490 
Q 353 981 353 1791 
Q 353 2603 747 3093 
Q 1141 3584 1784 3584 
Q 2172 3584 2450 3431 
Q 2728 3278 2906 2969 
L 2906 3500 
L 3481 3500 
L 3481 434 
z
" transform="scale(0.015625)"/>
      </defs>
      <use xlink:href="#DejaVuSans-4c"/>
      <use xlink:href="#DejaVuSans-6f" x="53.962891"/>
      <use xlink:href="#DejaVuSans-67" x="115.144531"/>
      <use xlink:href="#DejaVuSans-69" x="178.621094"/>
      <use xlink:href="#DejaVuSans-63" x="206.404297"/>
      <use xlink:href="#DejaVuSans-61" x="261.384766"/>
      <use xlink:href="#DejaVuSans-6c" x="322.664062"/>
      <use xlink:href="#DejaVuSans-20" x="350.447266"/>
      <use xlink:href="#DejaVuSans-45" x="382.234375"/>
      <use xlink:href="#DejaVuSans-72" x="445.417969"/>
      <use xlink:href="#DejaVuSans-72" x="484.78125"/>
      <use xlink:href="#DejaVuSans-6f" x="523.644531"/>
      <use xlink:href="#DejaVuSans-72" x="584.826172"/>
     </g>
    </g>
   </g>
   <g id="line2d_35">
    <path d="M 71.480877 162.008522 
L 72.80625 161.595932 
L 74.118435 160.818764 
L 77.978422 159.255064 
L 79.240379 158.837293 
L 80.490374 158.188765 
L 81.728631 157.795895 
L 82.95537 156.958195 
L 84.170803 156.822981 
L 86.568568 155.464661 
L 87.751298 155.238132 
L 92.378912 153.194886 
L 93.51088 152.528763 
L 94.633215 152.339937 
L 96.849628 151.297564 
L 97.94402 151.071335 
L 100.105929 149.765179 
L 101.173736 149.699325 
L 102.232966 149.03247 
L 104.32624 148.628736 
L 105.360547 148.140523 
L 106.386805 147.482007 
L 107.405138 147.196843 
L 108.415668 146.413636 
L 109.418513 146.055275 
L 110.413789 145.88336 
L 111.40161 145.230161 
L 112.382087 144.766633 
L 113.355327 144.611148 
L 115.280521 143.635968 
L 116.232681 143.518879 
L 117.178014 142.563874 
L 118.116619 142.582164 
L 119.048591 142.392417 
L 119.974023 141.929877 
L 120.893006 141.325996 
L 122.711979 140.661681 
L 123.612143 140.612562 
L 125.394244 139.387506 
L 126.276344 139.126831 
L 127.152583 138.676434 
L 128.023038 138.357166 
L 128.887786 138.182583 
L 129.746899 137.654398 
L 131.448516 137.142109 
L 132.291161 136.669324 
L 137.236996 134.799465 
L 138.043564 134.214067 
L 138.845229 134.073462 
L 139.64205 133.713024 
L 140.434085 133.22166 
L 142.004026 132.641748 
L 142.782043 132.264804 
L 143.555497 132.151646 
L 144.324441 131.63822 
L 145.849007 131.202823 
L 146.604731 130.718792 
L 148.84626 130.094731 
L 149.585049 129.528131 
L 150.319722 129.380139 
L 151.776902 128.778458 
L 153.218157 128.286662 
L 153.93292 127.808192 
L 154.64383 127.608107 
L 155.350928 127.131121 
L 158.142005 126.246591 
L 159.5157 125.278861 
L 160.197218 125.307349 
L 161.549779 124.504327 
L 162.888607 124.353742 
L 165.526165 123.071299 
L 166.177393 122.968873 
L 168.750616 121.66624 
L 170.01864 121.248412 
L 170.648108 120.913506 
L 171.898103 120.56152 
L 173.136361 119.972825 
L 173.751157 119.846515 
L 174.3631 119.536707 
L 175.578532 119.136618 
L 176.182073 118.786021 
L 176.782865 118.624694 
L 177.380931 118.253138 
L 179.159028 117.705948 
L 179.746438 117.198162 
L 180.331244 117.179815 
L 181.493133 116.609733 
L 182.07026 116.517261 
L 189.35175 113.300704 
L 189.895559 113.35577 
L 190.437134 113.238337 
L 190.976495 112.880743 
L 191.513658 112.745886 
L 192.048643 112.382892 
L 192.581466 112.182419 
L 193.112144 112.102898 
L 194.167138 111.528868 
L 194.691486 111.441539 
L 195.213758 111.067568 
L 196.768277 110.60915 
L 197.282404 110.224454 
L 197.794535 110.213128 
L 198.304684 110.029443 
L 198.812868 109.705461 
L 200.325773 109.15462 
L 200.826243 108.868964 
L 201.821519 108.665373 
L 202.316354 108.288503 
L 204.277334 107.738649 
L 204.763057 107.347724 
L 207.16519 106.527914 
L 208.113924 106.153564 
L 209.524349 105.632475 
L 209.991159 105.237711 
L 210.456321 105.276632 
L 212.300736 104.358057 
L 212.757837 104.36889 
L 213.213358 104.035609 
L 217.243762 102.46787 
L 217.684074 102.560534 
L 218.122921 102.030772 
L 220.295515 101.249467 
L 220.725772 101.317533 
L 221.582096 100.68289 
L 222.432896 100.580207 
L 223.698891 99.922891 
L 226.194993 99.134407 
L 227.016638 98.670889 
L 227.425548 98.678266 
L 227.833194 98.5053 
L 228.239584 98.141421 
L 228.644726 98.097312 
L 229.451294 97.85016 
L 229.852736 97.808654 
L 230.252959 97.361866 
L 231.04978 97.173008 
L 231.446392 96.930156 
L 232.236056 96.783878 
L 232.629122 96.409961 
L 233.411756 96.364196 
L 233.801338 96.086727 
L 234.577067 95.822757 
L 234.963227 95.54459 
L 235.348259 95.513335 
L 235.732171 95.315078 
L 236.114968 95.275271 
L 236.877244 94.996473 
L 237.256736 94.918796 
L 237.63514 94.545849 
L 239.511039 93.88463 
L 239.883038 93.666981 
L 240.25399 93.71073 
L 240.623902 93.466204 
L 241.727452 93.101593 
L 242.093259 92.858549 
L 242.458055 92.915882 
L 242.821844 92.80204 
L 243.184632 92.493909 
L 243.546425 92.565248 
L 244.267047 92.069408 
L 244.983753 91.890343 
L 246.405583 91.245944 
L 247.11079 91.048298 
L 247.461985 91.148709 
L 247.812247 90.868626 
L 248.509992 90.683498 
L 248.857484 90.351504 
L 249.549735 90.247379 
L 249.894503 89.832676 
L 250.238371 89.958381 
L 250.581345 89.707252 
L 251.264629 89.580176 
L 255.62171 87.798048 
L 255.950982 87.834997 
L 256.279434 87.611919 
L 257.259911 87.453583 
L 257.909535 86.923552 
L 258.233151 86.978819 
L 258.87801 86.836847 
L 259.199261 86.522315 
L 259.839425 86.306999 
L 260.158345 86.323393 
L 262.994444 85.118684 
L 263.305833 85.128938 
L 263.616489 84.857735 
L 263.926415 84.942325 
L 264.235615 84.861063 
L 264.851847 84.566424 
L 266.07574 84.057148 
L 266.379946 84.049166 
L 266.683453 83.810655 
L 266.986262 83.868826 
L 267.288378 83.544105 
L 267.589803 83.599831 
L 267.890541 83.313229 
L 268.190595 83.424385 
L 268.788661 82.956084 
L 269.086681 83.022822 
L 269.384028 82.857838 
L 269.976719 82.761686 
L 270.86079 82.312106 
L 271.154168 82.236466 
L 271.446895 82.332463 
L 272.030407 81.7542 
L 272.321198 81.807756 
L 272.611349 81.667149 
L 273.189742 81.662643 
L 273.47799 81.416401 
L 273.76561 81.397102 
L 274.052603 81.168533 
L 274.338973 81.141429 
L 274.624723 80.981355 
L 274.909855 81.013043 
L 275.194372 80.78283 
L 275.478276 80.735808 
L 275.761571 80.520073 
L 276.044258 80.54503 
L 276.888701 80.085164 
L 277.168985 80.010021 
L 277.448674 80.116962 
L 278.00628 79.79989 
L 278.838292 79.59034 
L 279.114467 79.351089 
L 279.390065 79.383279 
L 279.665088 79.078717 
L 280.213419 79.0413 
L 281.031664 78.770123 
L 281.303288 78.769626 
L 281.574354 78.471928 
L 281.844864 78.52056 
L 282.11482 78.252669 
L 282.384225 78.292821 
L 282.921388 78.093333 
L 284.784415 77.382735 
L 285.048426 77.367007 
L 285.048426 77.401479 
L 287.401038 76.384812 
L 294.21707 74.278514 
L 298.57292 72.645713 
L 300.698053 72.033618 
L 302.789483 71.252597 
L 306.875391 69.990164 
L 310.838498 68.607124 
L 316.568416 66.828108 
L 318.424367 66.296355 
L 322.059701 65.02606 
L 323.840465 64.537821 
L 325.597503 63.860974 
L 330.732375 62.452394 
L 337.281921 60.480294 
L 338.869715 60.09792 
L 341.989075 59.132554 
L 343.521515 58.728629 
L 345.036351 58.207101 
L 346.533984 57.815375 
L 348.0148 57.559372 
L 349.479172 56.950062 
L 350.927462 56.670695 
L 355.179273 55.405836 
L 356.566617 55.135858 
L 359.298271 54.365711 
L 375.795134 50.271478 
L 376.982598 50.075707 
L 379.325919 49.484303 
L 385.008279 48.210241 
L 386.115949 47.897254 
L 387.214392 47.779917 
L 391.518895 46.8372 
L 397.723147 45.551275 
L 419.977425 41.69325 
L 421.672965 41.453327 
L 430.627706 40.15004 
L 430.627706 40.15004 
" clip-path="url(#p15f64459f5)" style="fill: none; stroke: #2ca02c; stroke-width: 1.5; stroke-linecap: square"/>
   </g>
   <g id="line2d_36">
    <path d="M 71.480877 274.96879 
L 72.80625 274.635686 
L 74.118435 273.201946 
L 75.417691 271.968225 
L 77.978422 270.240741 
L 79.240379 269.07858 
L 81.728631 266.482238 
L 82.95537 265.785389 
L 84.170803 265.347655 
L 85.375135 263.608652 
L 86.568568 263.235318 
L 87.751298 261.885549 
L 88.923514 260.834218 
L 90.085403 259.272174 
L 91.237144 258.835497 
L 92.378912 258.088481 
L 94.633215 255.984632 
L 95.746078 255.695726 
L 96.849628 254.682406 
L 97.94402 254.144078 
L 99.029404 252.440832 
L 100.105929 251.172339 
L 101.173736 251.131617 
L 102.232966 250.352885 
L 103.283757 248.92588 
L 104.32624 248.4602 
L 105.360547 247.427833 
L 106.386805 246.910731 
L 108.415668 245.192378 
L 109.418513 243.327062 
L 110.413789 243.985348 
L 111.40161 242.615616 
L 112.382087 242.128024 
L 114.321437 240.298358 
L 115.280521 239.75336 
L 116.232681 238.352101 
L 118.116619 237.068289 
L 119.974023 235.95852 
L 120.893006 235.335692 
L 121.805629 234.387971 
L 122.711979 233.687923 
L 123.612143 232.500749 
L 124.506204 231.98496 
L 126.276344 230.704669 
L 127.152583 229.597282 
L 128.023038 229.329263 
L 128.887786 228.415438 
L 129.746899 228.197119 
L 130.600452 226.61184 
L 131.448516 227.031526 
L 132.291161 225.302252 
L 133.128456 224.631329 
L 133.960468 224.601933 
L 134.787264 223.641709 
L 135.608908 222.468247 
L 136.425464 222.202667 
L 137.236996 221.439893 
L 140.434085 219.343049 
L 142.004026 217.939948 
L 142.782043 217.027933 
L 143.555497 216.813561 
L 144.324441 216.196011 
L 145.088927 216.244337 
L 145.849007 214.710324 
L 146.604731 214.536977 
L 147.356148 213.705678 
L 148.103309 213.314261 
L 148.84626 212.439387 
L 150.319722 211.145281 
L 151.050325 210.970005 
L 151.776902 210.134765 
L 153.218157 208.940615 
L 153.93292 208.678438 
L 154.64383 207.843639 
L 155.350928 207.44364 
L 156.054255 206.582266 
L 157.449755 205.891641 
L 158.142005 205.112077 
L 158.830641 204.876542 
L 160.197218 203.422292 
L 160.875232 203.251236 
L 161.549779 202.683276 
L 162.220892 201.760522 
L 162.888607 201.660107 
L 163.552958 201.023601 
L 164.21398 200.604689 
L 164.871704 199.676622 
L 165.526165 199.147767 
L 166.177393 198.941841 
L 166.825421 198.008181 
L 167.470281 197.790636 
L 168.750616 196.773944 
L 169.386152 196.445299 
L 170.01864 195.86735 
L 170.648108 194.982254 
L 171.274587 194.870428 
L 173.136361 193.768103 
L 173.751157 192.789251 
L 174.972216 191.692445 
L 176.182073 191.096407 
L 176.782865 190.499351 
L 177.380931 190.09903 
L 177.976298 189.27337 
L 179.159028 188.866108 
L 179.746438 188.630482 
L 180.331244 187.602965 
L 181.493133 186.939181 
L 182.07026 186.364906 
L 182.644873 185.617346 
L 183.216993 185.064952 
L 183.786642 184.972533 
L 184.353841 184.415312 
L 184.91861 184.449936 
L 185.480971 183.713087 
L 186.040945 183.644118 
L 186.59855 182.746903 
L 188.805689 180.971634 
L 189.35175 181.123556 
L 189.895559 180.195711 
L 190.437134 179.927375 
L 190.976495 179.196588 
L 191.513658 178.767953 
L 192.048643 178.650546 
L 192.581466 178.070668 
L 193.112144 177.827371 
L 193.640696 177.364075 
L 194.167138 177.284065 
L 195.73397 175.768912 
L 196.252137 175.840062 
L 196.768277 175.057344 
L 199.319101 173.030621 
L 200.325773 172.384334 
L 201.821519 171.082228 
L 202.80934 170.478745 
L 203.300489 169.896301 
L 203.789816 169.648735 
L 204.277334 169.002779 
L 205.246997 168.62732 
L 207.16519 167.068034 
L 207.64041 166.566777 
L 208.113924 166.601006 
L 209.055882 165.387755 
L 210.456321 164.684781 
L 210.919849 164.4875 
L 211.842045 163.456923 
L 212.300736 163.134545 
L 212.757837 163.142146 
L 213.667312 162.147607 
L 214.570559 161.57723 
L 215.019873 161.271057 
L 215.467661 160.747592 
L 215.913934 160.59355 
L 216.358701 159.972276 
L 216.801974 159.768527 
L 217.243762 159.708766 
L 217.684074 159.247554 
L 218.560313 158.66238 
L 218.996259 158.233407 
L 219.430768 157.607171 
L 219.863851 157.629865 
L 220.295515 157.082494 
L 220.725772 156.92336 
L 221.154629 156.491926 
L 222.008182 156.189274 
L 222.432896 155.672139 
L 222.856246 155.473242 
L 223.278241 154.915491 
L 223.698891 154.798589 
L 224.952848 153.711149 
L 225.782243 152.987761 
L 226.194993 152.989254 
L 227.016638 152.103967 
L 227.425548 152.03348 
L 227.833194 151.605118 
L 228.239584 151.353358 
L 228.644726 150.72437 
L 229.048627 150.655234 
L 229.451294 150.39165 
L 229.852736 150.372056 
L 230.252959 149.700381 
L 230.651971 149.740167 
L 231.04978 149.505029 
L 231.446392 148.986232 
L 231.841815 148.73796 
L 232.629122 148.032795 
L 233.02102 147.836681 
L 233.411756 147.420465 
L 233.801338 147.347175 
L 234.577067 146.659155 
L 234.963227 146.465445 
L 235.348259 145.91066 
L 235.732171 145.805809 
L 236.877244 144.943242 
L 237.256736 144.714113 
L 237.63514 144.942918 
L 238.01246 143.934688 
L 238.388705 143.911824 
L 239.137988 143.169067 
L 239.511039 143.061701 
L 239.883038 143.076401 
L 240.25399 142.441263 
L 240.992779 142.02251 
L 242.093259 140.914243 
L 242.458055 141.024815 
L 242.821844 140.861294 
L 243.184632 140.38818 
L 243.546425 140.22769 
L 244.983753 138.985312 
L 245.696584 138.509219 
L 246.05156 138.362343 
L 246.405583 137.941986 
L 246.758658 137.84273 
L 247.461985 137.237032 
L 248.509992 136.419828 
L 248.857484 136.461519 
L 249.549735 135.823432 
L 249.894503 135.658184 
L 250.238371 135.178924 
L 250.581345 135.250988 
L 250.92343 134.766273 
L 251.264629 134.605716 
L 251.944391 133.878745 
L 252.282962 133.906634 
L 252.620667 133.567328 
L 253.293492 133.172078 
L 253.628622 132.722591 
L 253.962902 132.699964 
L 254.960688 131.820189 
L 255.291613 131.742678 
L 257.909535 129.860383 
L 258.233151 129.875218 
L 258.555975 129.322814 
L 258.87801 129.236691 
L 259.519732 128.691955 
L 259.839425 128.657585 
L 260.793882 127.647069 
L 261.110505 127.624021 
L 261.426369 127.264562 
L 262.682317 126.540122 
L 262.994444 126.145385 
L 263.616489 125.948821 
L 263.926415 125.566219 
L 264.235615 125.472632 
L 264.544091 125.187344 
L 264.851847 125.15528 
L 265.465213 124.622429 
L 265.77083 124.58641 
L 266.07574 123.841064 
L 266.379946 124.156416 
L 266.986262 123.35812 
L 267.288378 123.094524 
L 267.589803 123.068451 
L 267.890541 122.851357 
L 268.190595 122.90659 
L 269.086681 122.002024 
L 270.272068 121.310156 
L 270.566758 121.28023 
L 270.86079 120.763616 
L 271.154168 120.598821 
L 271.446895 120.611819 
L 271.738974 120.234215 
L 272.030407 120.145771 
L 272.900862 119.454078 
L 274.624723 118.278274 
L 275.478276 117.813165 
L 275.761571 117.429881 
L 276.32634 117.238032 
L 276.888701 116.604461 
L 277.168985 116.574014 
L 277.448674 116.324807 
L 277.727772 116.355703 
L 278.284201 115.837006 
L 278.561537 115.696021 
L 278.838292 115.32859 
L 279.114467 115.284522 
L 279.665088 114.865794 
L 279.939538 114.741953 
L 280.213419 114.470272 
L 280.75948 114.249864 
L 281.303288 113.631912 
L 281.844864 113.495611 
L 282.384225 112.892437 
L 282.65308 112.904317 
L 283.189152 112.466075 
L 283.456373 112.285187 
L 283.723053 112.261511 
L 283.989196 111.831286 
L 284.254802 111.784144 
L 284.519874 111.523695 
L 284.784415 111.454363 
L 285.048426 111.233746 
L 285.048426 111.265514 
L 287.401038 109.940426 
L 291.983975 106.71652 
L 294.21707 105.345608 
L 296.412979 103.709726 
L 304.848261 98.458502 
L 316.568416 91.351192 
L 318.424367 90.33915 
L 320.254561 89.008166 
L 327.331438 85.12303 
L 332.400509 82.030614 
L 338.869715 78.575779 
L 340.438618 77.623772 
L 345.036351 75.330681 
L 348.0148 73.688815 
L 349.479172 72.860045 
L 353.777179 70.738174 
L 356.566617 69.366191 
L 360.643168 67.450309 
L 361.974487 66.688356 
L 363.292501 66.168812 
L 364.597472 65.432648 
L 368.436647 63.727644 
L 373.387641 61.561329 
L 375.795134 60.513793 
L 376.982598 60.040705 
L 378.159463 59.429834 
L 379.325919 59.085707 
L 381.628328 58.137511 
L 382.764631 57.588305 
L 386.115949 56.354971 
L 387.214392 55.797317 
L 401.702867 50.593983 
L 406.51435 49.054813 
L 408.390843 48.556879 
L 409.31917 48.185988 
L 412.968477 47.166312 
L 415.640676 46.415272 
L 419.977425 45.170372 
L 422.512629 44.50132 
L 429.04415 42.986216 
L 430.627706 42.689809 
L 430.627706 42.689809 
" clip-path="url(#p15f64459f5)" style="fill: none; stroke: #d62728; stroke-width: 1.5; stroke-linecap: square"/>
   </g>
   <g id="line2d_37">
    <path d="M 71.480877 303.863131 
L 72.80625 302.858504 
L 74.118435 301.073401 
L 75.417691 300.276172 
L 76.704272 299.086055 
L 77.978422 298.445567 
L 79.240379 297.615863 
L 80.490374 296.30278 
L 81.728631 295.249536 
L 82.95537 294.008417 
L 84.170803 293.150691 
L 85.375135 292.681773 
L 86.568568 291.574732 
L 87.751298 289.751246 
L 88.923514 288.320627 
L 91.237144 287.446696 
L 92.378912 286.332953 
L 93.51088 284.927119 
L 94.633215 284.169618 
L 95.746078 284.173477 
L 96.849628 282.064236 
L 97.94402 281.303797 
L 99.029404 280.372914 
L 100.105929 280.448697 
L 101.173736 278.180378 
L 102.232966 277.731312 
L 104.32624 275.697365 
L 105.360547 275.850209 
L 106.386805 274.801991 
L 107.405138 272.734151 
L 108.415668 272.636659 
L 109.418513 271.612279 
L 110.413789 271.246313 
L 111.40161 270.503306 
L 112.382087 269.149408 
L 113.355327 268.646702 
L 114.321437 266.832515 
L 115.280521 266.974376 
L 116.232681 266.232169 
L 117.178014 266.234973 
L 118.116619 265.179565 
L 119.048591 263.858031 
L 119.974023 263.400346 
L 121.805629 261.479651 
L 122.711979 261.181625 
L 123.612143 259.627466 
L 124.506204 259.202868 
L 125.394244 257.993983 
L 126.276344 258.277955 
L 127.152583 256.35257 
L 128.023038 256.27738 
L 128.887786 255.239773 
L 129.746899 255.2006 
L 131.448516 253.675836 
L 132.291161 252.839182 
L 133.128456 251.314026 
L 133.960468 251.144474 
L 134.787264 250.234682 
L 135.608908 249.906707 
L 136.425464 249.420386 
L 137.236996 248.081488 
L 138.043564 248.20134 
L 138.845229 247.169685 
L 139.64205 247.181666 
L 140.434085 245.658833 
L 141.221392 244.863743 
L 142.004026 244.533209 
L 142.782043 243.50073 
L 143.555497 243.196698 
L 144.324441 241.922163 
L 145.088927 242.102478 
L 145.849007 241.624727 
L 146.604731 240.977292 
L 148.103309 239.220533 
L 148.84626 239.023314 
L 149.585049 238.304341 
L 151.050325 237.195191 
L 151.776902 236.935018 
L 152.499499 235.557686 
L 153.218157 234.826969 
L 153.93292 234.722896 
L 154.64383 234.78852 
L 155.350928 233.733484 
L 156.054255 233.585938 
L 157.449755 231.740206 
L 158.830641 230.642158 
L 159.5157 229.720065 
L 160.197218 229.197181 
L 160.875232 229.101579 
L 161.549779 228.669067 
L 162.220892 227.768664 
L 162.888607 227.571146 
L 163.552958 226.57032 
L 165.526165 225.122644 
L 166.177393 224.883161 
L 166.825421 224.412564 
L 168.112002 223.066859 
L 168.750616 222.088866 
L 170.01864 221.008449 
L 170.648108 221.101251 
L 171.898103 220.37549 
L 172.518686 219.335751 
L 173.751157 218.537504 
L 174.3631 217.607555 
L 174.972216 217.45209 
L 176.182073 216.130492 
L 176.782865 215.973329 
L 177.380931 214.930294 
L 177.976298 214.980919 
L 178.568989 214.348581 
L 179.159028 214.26073 
L 179.746438 213.398453 
L 182.644873 210.60026 
L 183.216993 210.493134 
L 183.786642 210.117216 
L 184.353841 209.232462 
L 184.91861 208.819458 
L 185.480971 208.705607 
L 186.59855 207.371844 
L 188.805689 205.880154 
L 189.35175 205.450143 
L 189.895559 205.189548 
L 190.437134 204.363679 
L 191.513658 203.590196 
L 192.048643 203.408552 
L 193.640696 202.101313 
L 194.167138 201.457161 
L 194.691486 201.334332 
L 195.213758 200.449811 
L 196.252137 199.369791 
L 196.768277 199.262497 
L 197.282404 198.963838 
L 197.794535 198.26751 
L 198.304684 198.321025 
L 199.319101 197.215971 
L 199.823398 196.896154 
L 200.325773 196.244194 
L 200.826243 196.074341 
L 201.32482 195.622833 
L 201.821519 195.39764 
L 202.316354 194.408168 
L 202.80934 194.724287 
L 203.300489 193.943492 
L 203.789816 193.747278 
L 204.277334 193.22686 
L 204.763057 193.030846 
L 205.246997 192.5004 
L 205.729167 191.629288 
L 206.209581 191.800347 
L 206.688251 191.081698 
L 207.16519 190.669188 
L 207.64041 190.697665 
L 208.113924 190.106979 
L 209.055882 189.674282 
L 209.991159 188.43792 
L 210.456321 188.114025 
L 210.919849 187.94895 
L 211.381753 187.371881 
L 211.842045 187.078707 
L 212.300736 186.984967 
L 212.757837 186.398724 
L 213.213358 186.324351 
L 213.667312 185.165466 
L 214.119709 185.371019 
L 214.570559 184.62141 
L 215.019873 184.139736 
L 215.467661 184.324607 
L 215.913934 183.800225 
L 216.358701 182.86685 
L 216.801974 183.028454 
L 217.243762 182.443422 
L 217.684074 182.444052 
L 218.122921 181.940611 
L 218.996259 181.362416 
L 219.430768 181.014032 
L 219.863851 180.333398 
L 220.295515 180.281195 
L 220.725772 180.090399 
L 221.582096 179.152566 
L 222.008182 178.858387 
L 222.432896 178.013532 
L 222.856246 177.932593 
L 224.536186 177.04701 
L 224.952848 176.504925 
L 225.782243 175.768352 
L 226.194993 175.818764 
L 226.606455 174.882368 
L 227.016638 174.768402 
L 227.833194 173.765954 
L 228.239584 173.747588 
L 229.048627 173.064759 
L 229.451294 173.074364 
L 230.252959 171.873234 
L 230.651971 171.972571 
L 231.04978 171.440819 
L 231.446392 171.348628 
L 232.629122 170.05639 
L 233.02102 170.223531 
L 233.411756 169.545403 
L 234.189773 168.998808 
L 234.577067 168.424559 
L 234.963227 168.289628 
L 236.114968 167.448143 
L 236.496657 167.288087 
L 236.877244 166.7801 
L 237.256736 166.662862 
L 238.388705 165.931628 
L 239.137988 164.746401 
L 239.511039 164.750543 
L 239.883038 164.596607 
L 240.623902 163.844968 
L 240.992779 163.585223 
L 241.360627 163.111301 
L 241.727452 163.235677 
L 242.458055 162.338146 
L 242.821844 162.29981 
L 243.184632 161.923574 
L 243.546425 161.297012 
L 243.907228 161.267164 
L 244.267047 161.117731 
L 244.983753 160.16574 
L 245.696584 159.900057 
L 246.05156 159.840999 
L 246.405583 159.174177 
L 246.758658 158.901523 
L 247.11079 158.848476 
L 247.461985 158.315 
L 249.549735 156.844561 
L 249.894503 156.375664 
L 250.238371 156.400245 
L 250.581345 156.141096 
L 250.92343 156.035012 
L 251.264629 155.28943 
L 251.944391 154.730028 
L 252.282962 154.398802 
L 252.620667 154.438232 
L 252.957508 153.999562 
L 253.293492 153.825806 
L 253.628622 153.521326 
L 253.962902 153.440384 
L 255.291613 152.368719 
L 255.62171 152.260679 
L 255.950982 151.62879 
L 256.279434 151.448044 
L 256.933894 150.773857 
L 257.259911 150.811898 
L 257.585123 150.367782 
L 257.909535 150.415173 
L 258.555975 149.527832 
L 259.199261 149.085361 
L 259.839425 148.662587 
L 260.158345 148.552819 
L 260.793882 147.801283 
L 261.110505 147.728174 
L 262.36945 146.667824 
L 262.682317 146.289953 
L 262.994444 146.338996 
L 263.305833 146.146716 
L 263.616489 145.745091 
L 264.544091 145.222036 
L 264.851847 144.560379 
L 265.465213 144.262474 
L 265.77083 143.832825 
L 266.07574 143.847094 
L 266.379946 143.656824 
L 266.986262 142.886538 
L 267.589803 142.778777 
L 268.190595 142.11253 
L 269.384028 141.247521 
L 269.680706 140.866407 
L 270.272068 140.564383 
L 270.86079 140.2048 
L 271.446895 139.414167 
L 272.321198 138.978914 
L 272.611349 138.766167 
L 272.900862 138.358604 
L 273.189742 138.209826 
L 273.47799 138.187457 
L 274.052603 137.580035 
L 274.338973 137.539773 
L 274.909855 136.920775 
L 275.478276 136.461797 
L 275.761571 136.365121 
L 276.044258 136.020608 
L 276.32634 136.098181 
L 276.60782 135.684229 
L 276.888701 135.497247 
L 277.168985 135.109395 
L 277.448674 135.119167 
L 277.727772 134.611096 
L 278.284201 134.309516 
L 278.561537 134.187894 
L 278.838292 133.710906 
L 279.114467 133.909823 
L 280.75948 132.402499 
L 281.031664 132.351567 
L 281.844864 131.495003 
L 282.384225 131.409553 
L 282.921388 130.970623 
L 283.189152 130.528343 
L 283.989196 130.061724 
L 284.254802 130.021795 
L 284.519874 129.736175 
L 284.784415 129.269216 
L 285.048426 129.272641 
L 285.048426 129.15241 
L 287.401038 127.558019 
L 291.983975 123.946875 
L 294.21707 122.457361 
L 296.412979 120.497036 
L 298.57292 119.030108 
L 304.848261 114.444717 
L 308.871831 111.662082 
L 310.838498 110.278851 
L 312.776266 108.720486 
L 314.685971 107.440018 
L 316.568416 105.967159 
L 318.424367 104.843961 
L 325.597503 99.674233 
L 334.047805 93.859494 
L 335.674777 92.874028 
L 340.438618 89.544955 
L 341.989075 88.628337 
L 345.036351 86.62994 
L 350.927462 82.854626 
L 352.360018 81.903128 
L 353.777179 81.180376 
L 357.939517 78.424526 
L 359.298271 77.791266 
L 365.889656 73.787914 
L 367.1693 73.128013 
L 368.436647 72.251028 
L 369.691931 71.666959 
L 373.387641 69.528479 
L 383.891226 63.874179 
L 386.115949 62.742609 
L 395.687324 58.078058 
L 411.156446 51.378276 
L 412.968477 50.750765 
L 413.86524 50.330228 
L 416.51951 49.460143 
L 417.392527 49.041153 
L 420.82792 47.847478 
L 421.672965 47.495311 
L 422.512629 47.341261 
L 427.441346 45.754973 
L 430.627706 44.812908 
L 430.627706 44.812908 
" clip-path="url(#p15f64459f5)" style="fill: none; stroke: #9467bd; stroke-width: 1.5; stroke-linecap: square"/>
   </g>
   <g id="line2d_38">
    <path d="M 71.480877 305.774693 
L 72.80625 304.602197 
L 74.118435 303.00401 
L 75.417691 303.030997 
L 76.704272 301.591948 
L 77.978422 300.844464 
L 79.240379 299.272565 
L 80.490374 298.940303 
L 81.728631 297.152054 
L 82.95537 297.312733 
L 84.170803 295.949499 
L 85.375135 294.363537 
L 86.568568 293.459423 
L 87.751298 293.518638 
L 88.923514 292.641377 
L 91.237144 289.411336 
L 92.378912 288.17955 
L 93.51088 288.009897 
L 94.633215 286.775803 
L 95.746078 286.76772 
L 97.94402 284.630672 
L 99.029404 283.270105 
L 100.105929 282.827578 
L 101.173736 281.1427 
L 102.232966 281.476391 
L 103.283757 279.110582 
L 104.32624 278.524784 
L 105.360547 278.455037 
L 108.415668 275.359924 
L 109.418513 274.965515 
L 110.413789 273.533013 
L 111.40161 273.360869 
L 112.382087 272.229653 
L 113.355327 271.735831 
L 114.321437 270.815754 
L 115.280521 270.454926 
L 117.178014 268.678904 
L 118.116619 268.453872 
L 119.048591 267.605731 
L 119.974023 266.32757 
L 120.893006 265.460917 
L 121.805629 265.017463 
L 122.711979 263.793569 
L 123.612143 262.838053 
L 124.506204 262.65362 
L 125.394244 262.002432 
L 126.276344 260.666395 
L 127.152583 260.801123 
L 128.023038 259.252364 
L 128.887786 258.874831 
L 129.746899 258.268223 
L 130.600452 258.141858 
L 132.291161 256.465543 
L 133.128456 256.253904 
L 134.787264 253.859966 
L 135.608908 253.218137 
L 136.425464 252.985142 
L 137.236996 252.52423 
L 138.043564 251.886545 
L 138.845229 250.666483 
L 139.64205 250.369792 
L 141.221392 249.360151 
L 142.004026 248.613632 
L 142.782043 248.136304 
L 144.324441 246.53242 
L 145.849007 245.847676 
L 146.604731 244.310766 
L 147.356148 243.635552 
L 148.103309 243.299102 
L 148.84626 243.087054 
L 149.585049 242.700368 
L 150.319722 242.151755 
L 151.050325 241.361256 
L 151.776902 241.090056 
L 152.499499 239.596121 
L 153.218157 239.425404 
L 154.64383 238.713319 
L 155.350928 237.884781 
L 156.054255 237.886473 
L 156.753851 235.650308 
L 157.449755 236.293102 
L 158.142005 235.525224 
L 158.830641 234.551994 
L 159.5157 234.670132 
L 160.197218 233.786948 
L 160.875232 233.468492 
L 161.549779 232.394756 
L 162.220892 232.453104 
L 163.552958 230.686801 
L 164.21398 230.39725 
L 164.871704 230.590118 
L 165.526165 230.060581 
L 167.470281 227.968298 
L 168.112002 227.506398 
L 168.750616 226.817122 
L 169.386152 226.66309 
L 170.01864 225.908774 
L 170.648108 225.848645 
L 171.274587 224.738354 
L 171.898103 224.215871 
L 172.518686 224.031764 
L 173.136361 223.719241 
L 173.751157 222.816554 
L 174.3631 222.253889 
L 174.972216 222.013552 
L 176.182073 221.180378 
L 176.782865 220.657447 
L 177.380931 219.734883 
L 177.976298 219.756936 
L 178.568989 219.130579 
L 179.159028 217.983862 
L 179.746438 217.931644 
L 180.913468 217.354555 
L 181.493133 216.686954 
L 182.07026 216.797284 
L 182.644873 215.930959 
L 183.216993 215.538553 
L 183.786642 215.290157 
L 184.353841 214.390887 
L 184.91861 213.952673 
L 185.480971 213.918426 
L 186.040945 213.036338 
L 186.59855 212.711121 
L 187.153808 212.25467 
L 187.706737 211.500657 
L 188.805689 210.976293 
L 189.895559 209.851556 
L 190.976495 209.43501 
L 191.513658 208.464563 
L 192.048643 208.629164 
L 192.581466 208.216566 
L 193.112144 207.496809 
L 194.167138 206.852342 
L 194.691486 205.785479 
L 195.213758 206.120907 
L 195.73397 205.717679 
L 196.768277 204.558726 
L 197.282404 204.376723 
L 197.794535 203.823154 
L 198.304684 203.682159 
L 199.319101 202.400086 
L 199.823398 202.272487 
L 200.325773 201.693855 
L 200.826243 201.952966 
L 201.32482 201.334332 
L 201.821519 200.379474 
L 202.316354 199.744367 
L 202.80934 199.985138 
L 203.300489 199.267602 
L 203.789816 198.98669 
L 204.277334 198.389667 
L 205.246997 197.853654 
L 205.729167 197.29888 
L 206.209581 197.278347 
L 206.688251 196.883921 
L 207.16519 196.044609 
L 207.64041 195.713005 
L 209.055882 195.040618 
L 209.524349 194.512041 
L 209.991159 193.56097 
L 210.456321 194.000011 
L 210.919849 193.392134 
L 211.381753 193.178747 
L 211.842045 192.62196 
L 212.300736 192.425783 
L 212.757837 191.714009 
L 213.213358 191.707316 
L 213.667312 191.139088 
L 214.119709 190.841736 
L 214.570559 190.681599 
L 215.019873 190.036917 
L 215.467661 190.1793 
L 215.913934 189.473825 
L 216.358701 189.062275 
L 216.801974 188.341886 
L 217.243762 188.497586 
L 217.684074 188.300579 
L 218.122921 187.647221 
L 218.560313 187.558744 
L 218.996259 187.056797 
L 219.430768 186.080965 
L 219.863851 186.573548 
L 220.295515 186.275049 
L 220.725772 185.466093 
L 221.154629 185.562661 
L 221.582096 184.884217 
L 222.008182 184.844717 
L 222.432896 184.237303 
L 222.856246 184.282241 
L 223.698891 183.773746 
L 224.536186 182.552613 
L 225.782243 181.866294 
L 226.194993 181.951861 
L 227.016638 180.841567 
L 227.425548 180.416051 
L 227.833194 180.349797 
L 228.644726 179.661514 
L 229.048627 179.034947 
L 229.451294 178.700665 
L 229.852736 178.775041 
L 230.252959 177.987316 
L 230.651971 177.848284 
L 231.04978 177.859905 
L 231.446392 177.404987 
L 232.236056 177.028684 
L 232.629122 176.556571 
L 233.02102 175.82717 
L 233.411756 175.918601 
L 233.801338 175.672694 
L 234.189773 175.227322 
L 234.577067 175.190182 
L 235.348259 173.960788 
L 235.732171 174.025341 
L 236.114968 173.627815 
L 236.877244 173.313952 
L 237.256736 172.898533 
L 238.01246 172.403314 
L 238.388705 171.836158 
L 239.137988 171.434599 
L 239.511039 170.854007 
L 240.25399 170.597596 
L 240.623902 169.951296 
L 240.992779 170.189556 
L 241.360627 170.038187 
L 241.727452 169.284408 
L 242.458055 168.831309 
L 243.546425 167.842022 
L 243.907228 167.843481 
L 244.625887 167.215923 
L 244.983753 166.75196 
L 245.696584 166.411581 
L 246.05156 165.871511 
L 246.758658 165.478113 
L 247.11079 165.311948 
L 247.461985 164.880913 
L 247.812247 164.848638 
L 248.509992 163.91338 
L 248.857484 163.890265 
L 249.549735 163.364818 
L 249.894503 163.245084 
L 250.238371 162.713186 
L 250.581345 162.897642 
L 251.264629 162.144093 
L 251.604948 161.754497 
L 252.620667 161.047901 
L 252.957508 160.681216 
L 253.293492 160.670946 
L 253.628622 160.462519 
L 253.962902 159.910609 
L 254.628931 159.392505 
L 255.291613 158.97662 
L 255.62171 158.868363 
L 255.950982 158.498712 
L 256.279434 157.945294 
L 256.60707 158.019531 
L 259.839425 155.320542 
L 260.158345 154.974226 
L 260.476496 155.088782 
L 260.793882 154.646942 
L 261.110505 154.474241 
L 261.426369 153.990823 
L 261.741479 154.11976 
L 262.055838 153.602007 
L 262.36945 153.681293 
L 262.682317 153.263847 
L 262.994444 153.474253 
L 263.616489 152.564678 
L 263.926415 152.462176 
L 265.158887 151.58182 
L 265.465213 150.977281 
L 265.77083 151.012217 
L 266.07574 150.601202 
L 266.379946 150.554012 
L 266.683453 150.370987 
L 267.288378 149.880169 
L 267.589803 149.714109 
L 267.890541 149.348466 
L 268.489967 149.161653 
L 268.788661 148.603534 
L 269.086681 148.34698 
L 269.384028 148.289631 
L 269.680706 147.823744 
L 270.272068 147.609025 
L 270.86079 146.995235 
L 271.154168 146.960699 
L 271.738974 146.240623 
L 272.030407 146.147707 
L 272.321198 145.892897 
L 272.900862 145.86462 
L 273.189742 145.256495 
L 273.76561 145.109379 
L 274.338973 144.464429 
L 274.624723 144.32001 
L 274.909855 143.935324 
L 275.194372 143.927384 
L 276.044258 143.087037 
L 276.60782 142.947674 
L 277.168985 142.269564 
L 277.448674 142.280665 
L 277.727772 141.832806 
L 278.00628 141.687361 
L 278.561537 141.12805 
L 279.114467 140.890169 
L 279.665088 140.588916 
L 279.939538 140.163206 
L 280.213419 140.027645 
L 280.486732 139.72832 
L 280.75948 139.766643 
L 281.031664 139.302624 
L 281.303288 139.314617 
L 281.574354 138.901036 
L 282.384225 138.397731 
L 282.65308 138.095494 
L 282.921388 138.138162 
L 283.189152 137.687637 
L 284.519874 136.900315 
L 285.048426 136.249217 
L 285.048426 136.354574 
L 287.401038 134.774636 
L 294.21707 129.550499 
L 296.412979 128.109064 
L 298.57292 126.172926 
L 300.698053 124.806262 
L 306.875391 120.25817 
L 308.871831 118.924207 
L 312.776266 116.009438 
L 316.568416 113.196429 
L 318.424367 111.964321 
L 320.254561 110.472106 
L 340.438618 96.422226 
L 345.036351 93.404819 
L 348.0148 91.221961 
L 353.777179 87.499607 
L 355.179273 86.389812 
L 356.566617 85.574209 
L 357.939517 84.632233 
L 359.298271 83.839188 
L 360.643168 82.845315 
L 370.935378 76.36917 
L 372.167209 75.539554 
L 375.795134 73.521046 
L 376.982598 72.691873 
L 378.159463 72.105169 
L 379.325919 71.301284 
L 380.482148 70.824506 
L 382.764631 69.332612 
L 386.115949 67.473175 
L 387.214392 66.736615 
L 389.384206 65.541854 
L 395.687324 62.141312 
L 396.709164 61.720823 
L 401.702867 59.002069 
L 402.67931 58.609365 
L 403.648577 58.031669 
L 406.51435 56.685672 
L 411.156446 54.480097 
L 417.392527 51.680978 
L 425.000012 48.665313 
L 425.818823 48.280173 
L 426.63258 48.056525 
L 427.441346 47.686166 
L 428.245183 47.520694 
L 429.838305 46.876725 
L 430.627706 46.683763 
L 430.627706 46.683763 
" clip-path="url(#p15f64459f5)" style="fill: none; stroke: #8c564b; stroke-width: 1.5; stroke-linecap: square"/>
   </g>
   <g id="line2d_39">
    <path d="M 71.480877 307.414057 
L 72.80625 304.192854 
L 74.118435 304.358445 
L 75.417691 304.005774 
L 76.704272 302.998614 
L 77.978422 300.585436 
L 79.240379 300.260753 
L 81.728631 297.298106 
L 82.95537 297.040337 
L 85.375135 295.754715 
L 86.568568 294.266463 
L 87.751298 293.155219 
L 88.923514 292.225645 
L 90.085403 291.972354 
L 91.237144 290.558226 
L 92.378912 289.335139 
L 93.51088 289.166182 
L 94.633215 287.287397 
L 95.746078 286.300882 
L 96.849628 284.923208 
L 99.029404 284.000099 
L 102.232966 280.774646 
L 103.283757 279.585082 
L 104.32624 279.52111 
L 106.386805 277.955396 
L 107.405138 276.820109 
L 108.415668 275.310471 
L 109.418513 275.498625 
L 110.413789 273.92067 
L 111.40161 274.567351 
L 112.382087 273.06563 
L 113.355327 271.946494 
L 114.321437 271.572184 
L 115.280521 270.382434 
L 116.232681 270.069378 
L 117.178014 268.160061 
L 118.116619 267.362062 
L 119.048591 267.554042 
L 119.974023 266.637333 
L 120.893006 265.218099 
L 121.805629 265.289731 
L 122.711979 264.316768 
L 123.612143 263.836536 
L 124.506204 263.208747 
L 125.394244 262.161263 
L 126.276344 262.882936 
L 127.152583 260.628323 
L 128.023038 260.365067 
L 128.887786 259.202868 
L 129.746899 258.882209 
L 130.600452 257.721076 
L 131.448516 257.571901 
L 132.291161 256.960115 
L 133.128456 256.893603 
L 134.787264 255.067155 
L 135.608908 254.931734 
L 136.425464 253.374005 
L 137.236996 253.160353 
L 138.043564 251.925646 
L 138.845229 252.088858 
L 140.434085 250.156719 
L 142.004026 249.252304 
L 142.782043 247.866799 
L 144.324441 247.269602 
L 145.088927 245.97653 
L 145.849007 245.80479 
L 146.604731 245.140361 
L 147.356148 244.974994 
L 148.103309 243.964601 
L 148.84626 243.211582 
L 149.585049 243.081485 
L 150.319722 241.920344 
L 151.050325 241.512691 
L 151.776902 241.343255 
L 152.499499 241.354055 
L 153.218157 240.475298 
L 153.93292 238.949104 
L 154.64383 239.210136 
L 155.350928 238.151102 
L 156.054255 237.872936 
L 156.753851 236.787125 
L 158.142005 235.927459 
L 158.830641 235.235515 
L 159.5157 234.786918 
L 160.197218 234.676525 
L 160.875232 233.876692 
L 162.220892 232.795198 
L 162.888607 232.522279 
L 163.552958 231.978866 
L 164.21398 231.073707 
L 164.871704 231.347191 
L 165.526165 230.115079 
L 166.177393 229.937052 
L 166.825421 229.470396 
L 167.470281 228.69205 
L 168.112002 228.127379 
L 168.750616 227.311201 
L 169.386152 227.596502 
L 170.01864 226.429381 
L 170.648108 226.386616 
L 171.274587 226.099149 
L 171.898103 224.961083 
L 172.518686 224.80937 
L 174.3631 223.21393 
L 174.972216 223.018786 
L 175.578532 222.191149 
L 176.182073 222.01993 
L 177.976298 220.276458 
L 178.568989 220.377968 
L 179.159028 219.439229 
L 179.746438 219.247034 
L 180.331244 218.712845 
L 180.913468 218.363904 
L 181.493133 217.507395 
L 182.07026 217.167012 
L 182.644873 216.348033 
L 183.216993 216.045547 
L 183.786642 215.601108 
L 184.353841 215.639814 
L 185.480971 214.173017 
L 186.040945 214.627498 
L 186.59855 213.228012 
L 187.153808 213.430195 
L 187.706737 213.207288 
L 188.257358 211.861491 
L 188.805689 212.58911 
L 189.35175 211.593827 
L 189.895559 210.990967 
L 190.437134 210.899838 
L 191.513658 210.088323 
L 192.581466 208.952745 
L 193.112144 208.52874 
L 193.640696 207.804996 
L 194.691486 207.692193 
L 195.213758 207.010325 
L 195.73397 206.6715 
L 196.252137 205.8993 
L 196.768277 205.477695 
L 197.282404 205.586132 
L 197.794535 204.572751 
L 198.304684 204.599875 
L 199.319101 203.673876 
L 200.826243 202.871656 
L 201.32482 202.261717 
L 201.821519 202.155924 
L 202.316354 201.424439 
L 202.80934 201.108815 
L 203.300489 201.139594 
L 203.789816 199.758956 
L 204.277334 199.572162 
L 204.763057 199.550781 
L 205.246997 198.917316 
L 205.729167 198.93 
L 206.209581 198.280884 
L 206.688251 198.260824 
L 207.16519 197.952469 
L 208.113924 196.905942 
L 209.055882 196.153166 
L 209.524349 196.318414 
L 210.456321 195.092723 
L 211.381753 194.554269 
L 211.842045 194.323962 
L 212.300736 193.4458 
L 213.667312 192.805173 
L 214.119709 192.168024 
L 215.467661 191.298322 
L 215.913934 191.223809 
L 217.243762 189.618369 
L 217.684074 189.671413 
L 218.122921 189.481687 
L 219.430768 188.387429 
L 219.863851 188.121698 
L 220.295515 187.134203 
L 220.725772 187.234372 
L 221.154629 187.084186 
L 221.582096 186.75845 
L 222.008182 185.852697 
L 222.432896 185.840638 
L 222.856246 185.966715 
L 223.278241 185.318565 
L 223.698891 185.008822 
L 224.118203 185.094691 
L 224.536186 184.279635 
L 224.952848 184.331779 
L 225.368198 183.719537 
L 225.782243 183.771164 
L 226.194993 182.850969 
L 227.016638 182.800181 
L 227.425548 182.4264 
L 227.833194 181.805789 
L 228.644726 181.300598 
L 229.048627 180.765629 
L 229.451294 180.872216 
L 229.852736 180.656801 
L 230.651971 179.630319 
L 231.04978 179.437535 
L 231.841815 178.599884 
L 232.236056 178.583987 
L 232.629122 177.996053 
L 233.02102 178.083502 
L 233.411756 177.695107 
L 234.189773 177.854675 
L 234.577067 177.111771 
L 235.348259 176.046179 
L 235.732171 176.289209 
L 236.877244 175.075591 
L 237.63514 174.649179 
L 238.01246 173.928811 
L 238.388705 174.105728 
L 238.763878 173.697382 
L 239.137988 173.652073 
L 239.883038 172.704692 
L 240.25399 172.643758 
L 240.623902 172.699391 
L 240.992779 171.889952 
L 242.093259 171.10541 
L 242.458055 171.126024 
L 242.821844 170.642039 
L 243.184632 170.815035 
L 244.267047 169.433257 
L 244.625887 169.414754 
L 244.983753 169.028097 
L 245.34065 169.093184 
L 245.696584 168.587891 
L 246.05156 168.470756 
L 246.405583 167.920838 
L 246.758658 167.942264 
L 247.11079 167.418218 
L 247.461985 167.298679 
L 247.812247 166.933928 
L 248.161581 166.812073 
L 248.509992 166.385519 
L 248.857484 166.540169 
L 249.204064 165.74819 
L 249.549735 165.522414 
L 249.894503 165.534544 
L 250.92343 164.946904 
L 251.264629 164.577796 
L 251.604948 164.56954 
L 251.944391 163.960999 
L 252.282962 163.811473 
L 252.957508 163.287657 
L 253.293492 162.694108 
L 253.628622 163.08494 
L 253.962902 162.113352 
L 254.296337 162.200348 
L 254.628931 161.876775 
L 254.960688 161.774567 
L 255.62171 161.125064 
L 255.950982 161.124201 
L 256.279434 160.546993 
L 256.60707 160.563219 
L 257.585123 159.718021 
L 257.909535 159.637305 
L 258.87801 158.919355 
L 259.199261 158.317873 
L 259.519732 158.473195 
L 259.839425 158.475252 
L 260.793882 157.457051 
L 261.110505 157.090121 
L 261.426369 157.096143 
L 261.741479 156.634307 
L 262.055838 156.714007 
L 263.926415 155.082584 
L 264.235615 155.167093 
L 264.544091 154.782404 
L 264.851847 154.66924 
L 265.158887 154.321937 
L 265.465213 154.24823 
L 266.986262 152.789207 
L 267.288378 152.790323 
L 267.589803 152.524691 
L 267.890541 152.691492 
L 268.190595 152.181901 
L 268.489967 151.897527 
L 268.788661 151.824007 
L 269.086681 151.426626 
L 269.680706 150.938048 
L 269.976719 151.026991 
L 270.272068 150.570452 
L 270.566758 150.609787 
L 270.86079 150.217323 
L 271.154168 150.137811 
L 271.446895 149.587163 
L 271.738974 149.297424 
L 272.030407 149.400606 
L 272.611349 148.861612 
L 272.900862 148.781571 
L 273.47799 148.338047 
L 273.76561 148.299586 
L 274.052603 147.832255 
L 274.338973 147.746867 
L 274.624723 147.426549 
L 274.909855 147.380937 
L 275.478276 146.832127 
L 275.761571 146.712526 
L 276.32634 146.108405 
L 276.60782 146.191996 
L 276.888701 145.887306 
L 277.448674 145.606507 
L 278.284201 144.682882 
L 278.838292 144.815331 
L 279.114467 144.328646 
L 279.390065 144.503559 
L 279.665088 143.981716 
L 279.939538 143.927701 
L 281.303288 142.916786 
L 281.574354 142.41869 
L 281.844864 142.573173 
L 282.384225 141.959 
L 282.65308 141.942444 
L 283.189152 141.350561 
L 283.456373 141.364516 
L 283.723053 141.263571 
L 283.989196 140.986828 
L 284.254802 140.918457 
L 284.519874 140.313386 
L 284.784415 140.425465 
L 285.048426 139.92375 
L 285.048426 140.213717 
L 294.21707 133.53512 
L 296.412979 132.263256 
L 300.698053 129.335303 
L 304.848261 126.557834 
L 306.875391 125.049893 
L 310.838498 122.60207 
L 316.568416 118.745849 
L 318.424367 117.255409 
L 325.597503 112.757734 
L 327.331438 111.482157 
L 329.04287 110.589151 
L 335.674777 106.388257 
L 337.281921 105.234841 
L 345.036351 100.541328 
L 348.0148 98.608222 
L 349.479172 97.824302 
L 352.360018 95.94587 
L 353.777179 95.273935 
L 356.566617 93.373183 
L 357.939517 92.703989 
L 367.1693 87.305425 
L 368.436647 86.686522 
L 370.935378 85.251681 
L 373.387641 83.880598 
L 374.596882 83.118669 
L 375.795134 82.593311 
L 379.325919 80.49564 
L 380.482148 80.039944 
L 381.628328 79.343547 
L 383.891226 78.199342 
L 385.008279 77.521665 
L 386.115949 77.022675 
L 388.303762 75.779869 
L 393.619579 73.183761 
L 394.657504 72.51592 
L 397.723147 71.083347 
L 401.702867 69.05239 
L 419.12141 61.077192 
L 423.346981 59.259335 
L 425.818823 58.221113 
L 430.627706 56.295107 
L 430.627706 56.295107 
" clip-path="url(#p15f64459f5)" style="fill: none; stroke: #e377c2; stroke-width: 1.5; stroke-linecap: square"/>
   </g>
   <g id="line2d_40">
    <path d="M 71.480877 306.533778 
L 74.118435 304.724471 
L 75.417691 302.745593 
L 76.704272 302.147205 
L 77.978422 300.751076 
L 79.240379 300.317309 
L 80.490374 299.282665 
L 81.728631 297.498328 
L 82.95537 296.274053 
L 84.170803 296.26448 
L 85.375135 294.169557 
L 86.568568 293.073773 
L 87.751298 292.839145 
L 88.923514 291.990091 
L 90.085403 290.852992 
L 91.237144 290.114668 
L 92.378912 289.602282 
L 93.51088 288.608026 
L 94.633215 287.197735 
L 95.746078 286.945817 
L 96.849628 285.603862 
L 97.94402 285.064169 
L 100.105929 283.125995 
L 101.173736 282.287673 
L 102.232966 280.26123 
L 103.283757 280.676662 
L 104.32624 280.009855 
L 105.360547 278.045281 
L 106.386805 278.305372 
L 107.405138 277.714111 
L 108.415668 275.379718 
L 109.418513 275.667509 
L 111.40161 273.430938 
L 112.382087 273.07513 
L 113.355327 271.865853 
L 114.321437 270.907086 
L 115.280521 270.533564 
L 116.232681 270.494231 
L 117.178014 269.534615 
L 118.116619 268.314047 
L 119.048591 267.836037 
L 119.974023 266.679706 
L 120.893006 266.417507 
L 121.805629 265.652045 
L 122.711979 263.876847 
L 123.612143 264.387259 
L 124.506204 263.097281 
L 125.394244 262.044049 
L 126.276344 261.719733 
L 127.152583 261.575045 
L 128.023038 260.913218 
L 128.887786 259.942395 
L 130.600452 257.783752 
L 131.448516 257.800638 
L 133.128456 256.336113 
L 133.960468 255.72362 
L 134.787264 254.744063 
L 135.608908 254.835532 
L 136.425464 254.234574 
L 137.236996 253.195905 
L 138.043564 251.845302 
L 138.845229 251.858323 
L 139.64205 250.800507 
L 140.434085 249.952844 
L 141.221392 249.85223 
L 142.004026 248.78803 
L 142.782043 248.415273 
L 143.555497 247.65897 
L 144.324441 247.490046 
L 145.088927 247.048027 
L 145.849007 245.592791 
L 146.604731 245.383524 
L 147.356148 244.691546 
L 148.103309 244.691546 
L 148.84626 243.538148 
L 149.585049 242.722498 
L 150.319722 242.556734 
L 151.050325 241.339656 
L 151.776902 241.433317 
L 152.499499 240.377912 
L 153.218157 239.932099 
L 153.93292 238.864658 
L 154.64383 238.968078 
L 155.350928 237.935573 
L 156.054255 238.280477 
L 156.753851 237.029942 
L 157.449755 236.730729 
L 158.142005 235.950344 
L 158.830641 236.127202 
L 159.5157 235.235515 
L 160.197218 234.838189 
L 160.875232 234.226011 
L 161.549779 233.919253 
L 162.888607 232.030684 
L 163.552958 232.192542 
L 164.21398 230.929987 
L 164.871704 230.928492 
L 165.526165 230.044389 
L 166.177393 229.606043 
L 166.825421 229.824055 
L 167.470281 228.774005 
L 168.112002 228.627433 
L 168.750616 228.019382 
L 169.386152 227.143229 
L 170.01864 226.947895 
L 170.648108 226.222758 
L 171.274587 225.802227 
L 171.898103 225.005466 
L 172.518686 225.200898 
L 173.751157 223.374456 
L 174.3631 223.303925 
L 174.972216 222.781626 
L 175.578532 222.41169 
L 176.182073 221.826342 
L 176.782865 221.054831 
L 177.380931 220.839544 
L 177.976298 220.484627 
L 178.568989 219.278616 
L 179.159028 220.106038 
L 179.746438 219.452634 
L 180.913468 217.681906 
L 181.493133 217.398013 
L 182.07026 217.450913 
L 182.644873 216.835659 
L 183.216993 216.501624 
L 184.91861 215.074413 
L 185.480971 214.205199 
L 186.040945 214.255175 
L 186.59855 213.810297 
L 187.706737 212.633349 
L 188.805689 212.232159 
L 189.895559 211.01823 
L 192.048643 209.236526 
L 192.581466 209.271083 
L 193.640696 208.240518 
L 194.167138 208.129826 
L 194.691486 207.321739 
L 195.213758 207.013255 
L 195.73397 206.871822 
L 196.252137 205.840926 
L 196.768277 205.901215 
L 197.282404 205.318273 
L 197.794535 205.122463 
L 198.304684 204.377655 
L 198.812868 203.87762 
L 199.319101 203.793636 
L 199.823398 203.244843 
L 200.325773 203.093449 
L 200.826243 202.772859 
L 201.32482 202.043179 
L 201.821519 202.021729 
L 203.300489 200.656991 
L 204.763057 200.068789 
L 205.246997 198.940149 
L 205.729167 198.915625 
L 207.16519 197.387671 
L 207.64041 197.526896 
L 208.113924 197.092245 
L 208.585744 196.463102 
L 209.055882 196.472815 
L 209.524349 196.319221 
L 209.991159 195.32304 
L 210.456321 195.042196 
L 210.919849 194.976736 
L 211.381753 194.192447 
L 211.842045 194.116325 
L 212.300736 193.566351 
L 212.757837 193.51641 
L 213.213358 193.053692 
L 213.667312 192.41298 
L 214.119709 192.661278 
L 214.570559 191.812266 
L 215.019873 191.890549 
L 215.467661 191.253307 
L 215.913934 191.057435 
L 216.358701 190.489163 
L 216.801974 190.421529 
L 217.243762 189.804964 
L 217.684074 190.028977 
L 218.122921 189.372438 
L 218.560313 189.45239 
L 218.996259 188.113327 
L 219.430768 188.375514 
L 219.863851 188.188013 
L 220.295515 187.251543 
L 220.725772 187.646529 
L 222.432896 185.86945 
L 222.856246 185.785735 
L 223.278241 185.301975 
L 223.698891 185.175394 
L 224.118203 184.544771 
L 224.536186 184.546735 
L 224.952848 184.059208 
L 225.368198 184.08712 
L 226.194993 183.126661 
L 226.606455 183.024631 
L 227.016638 182.276575 
L 227.425548 182.493257 
L 227.833194 181.819506 
L 228.239584 182.016278 
L 228.644726 181.397065 
L 229.048627 181.044161 
L 229.451294 180.961193 
L 229.852736 180.203587 
L 230.252959 180.155742 
L 231.04978 179.166245 
L 231.446392 179.334827 
L 231.841815 179.168624 
L 232.236056 178.604595 
L 232.629122 178.444646 
L 233.02102 177.726984 
L 233.411756 177.496716 
L 233.801338 177.458044 
L 234.189773 176.877724 
L 234.577067 176.798404 
L 235.348259 176.204509 
L 235.732171 175.64252 
L 236.496657 175.57664 
L 237.256736 174.791507 
L 237.63514 174.652472 
L 238.01246 174.185687 
L 238.388705 174.075841 
L 238.763878 173.722749 
L 239.137988 173.652073 
L 239.511039 173.13096 
L 239.883038 172.966136 
L 240.25399 172.941641 
L 240.623902 172.289529 
L 240.992779 172.189631 
L 241.360627 171.746443 
L 241.727452 171.809542 
L 242.093259 171.261754 
L 242.458055 171.024056 
L 242.821844 171.013767 
L 243.184632 170.403891 
L 243.907228 169.642711 
L 244.267047 169.659782 
L 244.983753 169.120036 
L 245.34065 169.033063 
L 245.696584 168.599717 
L 246.05156 168.424068 
L 246.405583 167.979292 
L 246.758658 168.194635 
L 247.11079 167.449591 
L 247.461985 167.189966 
L 247.812247 167.1621 
L 248.161581 167.004294 
L 248.509992 166.392152 
L 248.857484 166.364679 
L 249.549735 165.714476 
L 249.894503 165.571885 
L 250.238371 165.134689 
L 250.581345 164.951522 
L 250.92343 164.906285 
L 251.604948 164.01093 
L 251.944391 163.920633 
L 252.957508 163.148406 
L 253.293492 163.206572 
L 253.628622 162.718067 
L 254.628931 161.897327 
L 254.960688 161.893828 
L 255.291613 161.605068 
L 255.62171 161.090996 
L 255.950982 161.210972 
L 256.279434 160.797317 
L 257.585123 159.851119 
L 257.909535 159.821186 
L 259.519732 158.32567 
L 260.158345 158.127389 
L 260.476496 157.546022 
L 260.793882 157.382343 
L 261.110505 157.463921 
L 261.426369 156.755097 
L 261.741479 157.135505 
L 262.055838 156.365755 
L 262.36945 156.456585 
L 262.682317 156.207055 
L 262.994444 155.748524 
L 263.305833 155.867815 
L 263.616489 155.748132 
L 264.235615 155.090719 
L 264.544091 154.908925 
L 264.851847 154.204738 
L 265.158887 154.224572 
L 265.465213 154.414877 
L 266.379946 153.34153 
L 266.683453 153.333645 
L 267.589803 152.465504 
L 267.890541 152.572827 
L 268.788661 151.649921 
L 269.086681 151.60621 
L 269.384028 151.194817 
L 269.680706 151.133403 
L 269.976719 150.60764 
L 270.272068 150.885541 
L 270.566758 150.242194 
L 270.86079 150.571167 
L 271.446895 149.567496 
L 271.738974 149.737701 
L 272.030407 149.658513 
L 272.611349 148.913301 
L 273.189742 148.643932 
L 275.478276 146.938914 
L 275.761571 146.540254 
L 276.044258 146.702849 
L 276.32634 146.211508 
L 276.60782 146.372821 
L 277.168985 145.555811 
L 277.448674 145.279913 
L 277.727772 145.375965 
L 278.284201 144.925459 
L 278.561537 144.924812 
L 278.838292 144.69608 
L 279.390065 143.967413 
L 280.213419 143.42469 
L 280.486732 143.427837 
L 280.75948 143.318091 
L 281.031664 142.730259 
L 281.303288 142.815816 
L 281.574354 142.749226 
L 283.189152 141.401544 
L 283.723053 141.136209 
L 283.989196 140.554214 
L 284.254802 140.596398 
L 285.048426 140.313386 
L 285.048426 140.37536 
L 289.712414 136.832261 
L 294.21707 133.821947 
L 298.57292 130.560373 
L 300.698053 129.3451 
L 302.789483 127.927249 
L 304.848261 126.392584 
L 308.871831 123.702435 
L 312.776266 121.135073 
L 314.685971 119.948162 
L 318.424367 117.390271 
L 323.840465 113.878166 
L 325.597503 113.04267 
L 327.331438 111.610258 
L 330.732375 109.608165 
L 335.674777 106.330996 
L 340.438618 103.280138 
L 341.989075 102.092102 
L 345.036351 100.489579 
L 353.777179 95.157482 
L 355.179273 94.261984 
L 356.566617 93.556659 
L 361.974487 90.304672 
L 363.292501 89.631841 
L 364.597472 88.823942 
L 365.889656 88.16393 
L 368.436647 86.683543 
L 376.982598 81.862625 
L 380.482148 80.109419 
L 382.764631 78.687077 
L 388.303762 75.763828 
L 389.384206 75.378446 
L 391.518895 74.1273 
L 393.619579 73.036272 
L 394.657504 72.66294 
L 395.687324 71.961981 
L 396.709164 71.624526 
L 405.565995 67.213967 
L 412.968477 63.763747 
L 414.755946 62.978706 
L 418.259801 61.482117 
L 419.977425 60.651086 
L 421.672965 59.913644 
L 422.512629 59.512134 
L 423.346981 59.340259 
L 425.000012 58.584625 
L 426.63258 57.899322 
L 427.441346 57.65879 
L 428.245183 57.196247 
L 429.04415 57.025088 
L 430.627706 56.278367 
L 430.627706 56.278367 
" clip-path="url(#p15f64459f5)" style="fill: none; stroke: #ff7f0e; stroke-opacity: 0.4; stroke-width: 1.5; stroke-linecap: square"/>
   </g>
   <g id="line2d_41">
    <path d="M 71.480877 239.157624 
L 430.627706 86.218122 
L 430.627706 86.218122 
" clip-path="url(#p15f64459f5)" style="fill: none; stroke-dasharray: 5.55,2.4; stroke-dashoffset: 0; stroke: #1f77b4; stroke-width: 1.5"/>
   </g>
   <g id="patch_3">
    <path d="M 72.80625 297.54825 
L 72.80625 31.43625 
" style="fill: none; stroke: #000000; stroke-width: 0.8; stroke-linejoin: miter; stroke-linecap: square"/>
   </g>
   <g id="patch_4">
    <path d="M 429.92625 297.54825 
L 429.92625 31.43625 
" style="fill: none; stroke: #000000; stroke-width: 0.8; stroke-linejoin: miter; stroke-linecap: square"/>
   </g>
   <g id="patch_5">
    <path d="M 72.80625 297.54825 
L 429.92625 297.54825 
" style="fill: none; stroke: #000000; stroke-width: 0.8; stroke-linejoin: miter; stroke-linecap: square"/>
   </g>
   <g id="patch_6">
    <path d="M 72.80625 31.43625 
L 429.92625 31.43625 
" style="fill: none; stroke: #000000; stroke-width: 0.8; stroke-linejoin: miter; stroke-linecap: square"/>
   </g>
   <g id="text_6">
    <!-- [[7, 1, 3]] Phenomenological -->
    <g transform="translate(80.559375 25.43625) scale(0.24 -0.24)">
     <defs>
      <path id="DejaVuSans-5b" d="M 550 4863 
L 1875 4863 
L 1875 4416 
L 1125 4416 
L 1125 -397 
L 1875 -397 
L 1875 -844 
L 550 -844 
L 550 4863 
z
" transform="scale(0.015625)"/>
      <path id="DejaVuSans-37" d="M 525 4666 
L 3525 4666 
L 3525 4397 
L 1831 0 
L 1172 0 
L 2766 4134 
L 525 4134 
L 525 4666 
z
" transform="scale(0.015625)"/>
      <path id="DejaVuSans-2c" d="M 750 794 
L 1409 794 
L 1409 256 
L 897 -744 
L 494 -744 
L 750 256 
L 750 794 
z
" transform="scale(0.015625)"/>
      <path id="DejaVuSans-33" d="M 2597 2516 
Q 3050 2419 3304 2112 
Q 3559 1806 3559 1356 
Q 3559 666 3084 287 
Q 2609 -91 1734 -91 
Q 1441 -91 1130 -33 
Q 819 25 488 141 
L 488 750 
Q 750 597 1062 519 
Q 1375 441 1716 441 
Q 2309 441 2620 675 
Q 2931 909 2931 1356 
Q 2931 1769 2642 2001 
Q 2353 2234 1838 2234 
L 1294 2234 
L 1294 2753 
L 1863 2753 
Q 2328 2753 2575 2939 
Q 2822 3125 2822 3475 
Q 2822 3834 2567 4026 
Q 2313 4219 1838 4219 
Q 1578 4219 1281 4162 
Q 984 4106 628 3988 
L 628 4550 
Q 988 4650 1302 4700 
Q 1616 4750 1894 4750 
Q 2613 4750 3031 4423 
Q 3450 4097 3450 3541 
Q 3450 3153 3228 2886 
Q 3006 2619 2597 2516 
z
" transform="scale(0.015625)"/>
      <path id="DejaVuSans-5d" d="M 1947 4863 
L 1947 -844 
L 622 -844 
L 622 -397 
L 1369 -397 
L 1369 4416 
L 622 4416 
L 622 4863 
L 1947 4863 
z
" transform="scale(0.015625)"/>
      <path id="DejaVuSans-65" d="M 3597 1894 
L 3597 1613 
L 953 1613 
Q 991 1019 1311 708 
Q 1631 397 2203 397 
Q 2534 397 2845 478 
Q 3156 559 3463 722 
L 3463 178 
Q 3153 47 2828 -22 
Q 2503 -91 2169 -91 
Q 1331 -91 842 396 
Q 353 884 353 1716 
Q 353 2575 817 3079 
Q 1281 3584 2069 3584 
Q 2775 3584 3186 3129 
Q 3597 2675 3597 1894 
z
M 3022 2063 
Q 3016 2534 2758 2815 
Q 2500 3097 2075 3097 
Q 1594 3097 1305 2825 
Q 1016 2553 972 2059 
L 3022 2063 
z
" transform="scale(0.015625)"/>
      <path id="DejaVuSans-6e" d="M 3513 2113 
L 3513 0 
L 2938 0 
L 2938 2094 
Q 2938 2591 2744 2837 
Q 2550 3084 2163 3084 
Q 1697 3084 1428 2787 
Q 1159 2491 1159 1978 
L 1159 0 
L 581 0 
L 581 3500 
L 1159 3500 
L 1159 2956 
Q 1366 3272 1645 3428 
Q 1925 3584 2291 3584 
Q 2894 3584 3203 3211 
Q 3513 2838 3513 2113 
z
" transform="scale(0.015625)"/>
      <path id="DejaVuSans-6d" d="M 3328 2828 
Q 3544 3216 3844 3400 
Q 4144 3584 4550 3584 
Q 5097 3584 5394 3201 
Q 5691 2819 5691 2113 
L 5691 0 
L 5113 0 
L 5113 2094 
Q 5113 2597 4934 2840 
Q 4756 3084 4391 3084 
Q 3944 3084 3684 2787 
Q 3425 2491 3425 1978 
L 3425 0 
L 2847 0 
L 2847 2094 
Q 2847 2600 2669 2842 
Q 2491 3084 2119 3084 
Q 1678 3084 1418 2786 
Q 1159 2488 1159 1978 
L 1159 0 
L 581 0 
L 581 3500 
L 1159 3500 
L 1159 2956 
Q 1356 3278 1631 3431 
Q 1906 3584 2284 3584 
Q 2666 3584 2933 3390 
Q 3200 3197 3328 2828 
z
" transform="scale(0.015625)"/>
     </defs>
     <use xlink:href="#DejaVuSans-5b"/>
     <use xlink:href="#DejaVuSans-5b" x="39.013672"/>
     <use xlink:href="#DejaVuSans-37" x="78.027344"/>
     <use xlink:href="#DejaVuSans-2c" x="141.650391"/>
     <use xlink:href="#DejaVuSans-20" x="173.4375"/>
     <use xlink:href="#DejaVuSans-31" x="205.224609"/>
     <use xlink:href="#DejaVuSans-2c" x="268.847656"/>
     <use xlink:href="#DejaVuSans-20" x="300.634766"/>
     <use xlink:href="#DejaVuSans-33" x="332.421875"/>
     <use xlink:href="#DejaVuSans-5d" x="396.044922"/>
     <use xlink:href="#DejaVuSans-5d" x="435.058594"/>
     <use xlink:href="#DejaVuSans-20" x="474.072266"/>
     <use xlink:href="#DejaVuSans-50" x="505.859375"/>
     <use xlink:href="#DejaVuSans-68" x="566.162109"/>
     <use xlink:href="#DejaVuSans-65" x="629.541016"/>
     <use xlink:href="#DejaVuSans-6e" x="691.064453"/>
     <use xlink:href="#DejaVuSans-6f" x="754.443359"/>
     <use xlink:href="#DejaVuSans-6d" x="815.625"/>
     <use xlink:href="#DejaVuSans-65" x="913.037109"/>
     <use xlink:href="#DejaVuSans-6e" x="974.560547"/>
     <use xlink:href="#DejaVuSans-6f" x="1037.939453"/>
     <use xlink:href="#DejaVuSans-6c" x="1099.121094"/>
     <use xlink:href="#DejaVuSans-6f" x="1126.904297"/>
     <use xlink:href="#DejaVuSans-67" x="1188.085938"/>
     <use xlink:href="#DejaVuSans-69" x="1251.5625"/>
     <use xlink:href="#DejaVuSans-63" x="1279.345703"/>
     <use xlink:href="#DejaVuSans-61" x="1334.326172"/>
     <use xlink:href="#DejaVuSans-6c" x="1395.605469"/>
    </g>
   </g>
   <g id="legend_1">
    <g id="patch_7">
     <path d="M 259.179375 291.54825 
L 421.52625 291.54825 
Q 423.92625 291.54825 423.92625 289.14825 
L 423.92625 184.66575 
Q 423.92625 182.26575 421.52625 182.26575 
L 259.179375 182.26575 
Q 256.779375 182.26575 256.779375 184.66575 
L 256.779375 289.14825 
Q 256.779375 291.54825 259.179375 291.54825 
z
" style="fill: #ffffff; opacity: 0.8; stroke: #cccccc; stroke-linejoin: miter"/>
    </g>
    <g id="line2d_42">
     <path d="M 261.579375 191.983875 
L 273.579375 191.983875 
L 285.579375 191.983875 
" style="fill: none; stroke: #2ca02c; stroke-width: 1.5; stroke-linecap: square"/>
    </g>
    <g id="text_7">
     <!-- measure 1 round -->
     <g transform="translate(295.179375 196.183875) scale(0.12 -0.12)">
      <defs>
       <path id="DejaVuSans-75" d="M 544 1381 
L 544 3500 
L 1119 3500 
L 1119 1403 
Q 1119 906 1312 657 
Q 1506 409 1894 409 
Q 2359 409 2629 706 
Q 2900 1003 2900 1516 
L 2900 3500 
L 3475 3500 
L 3475 0 
L 2900 0 
L 2900 538 
Q 2691 219 2414 64 
Q 2138 -91 1772 -91 
Q 1169 -91 856 284 
Q 544 659 544 1381 
z
M 1991 3584 
L 1991 3584 
z
" transform="scale(0.015625)"/>
       <path id="DejaVuSans-64" d="M 2906 2969 
L 2906 4863 
L 3481 4863 
L 3481 0 
L 2906 0 
L 2906 525 
Q 2725 213 2448 61 
Q 2172 -91 1784 -91 
Q 1150 -91 751 415 
Q 353 922 353 1747 
Q 353 2572 751 3078 
Q 1150 3584 1784 3584 
Q 2172 3584 2448 3432 
Q 2725 3281 2906 2969 
z
M 947 1747 
Q 947 1113 1208 752 
Q 1469 391 1925 391 
Q 2381 391 2643 752 
Q 2906 1113 2906 1747 
Q 2906 2381 2643 2742 
Q 2381 3103 1925 3103 
Q 1469 3103 1208 2742 
Q 947 2381 947 1747 
z
" transform="scale(0.015625)"/>
      </defs>
      <use xlink:href="#DejaVuSans-6d"/>
      <use xlink:href="#DejaVuSans-65" x="97.412109"/>
      <use xlink:href="#DejaVuSans-61" x="158.935547"/>
      <use xlink:href="#DejaVuSans-73" x="220.214844"/>
      <use xlink:href="#DejaVuSans-75" x="272.314453"/>
      <use xlink:href="#DejaVuSans-72" x="335.693359"/>
      <use xlink:href="#DejaVuSans-65" x="374.556641"/>
      <use xlink:href="#DejaVuSans-20" x="436.080078"/>
      <use xlink:href="#DejaVuSans-31" x="467.867188"/>
      <use xlink:href="#DejaVuSans-20" x="531.490234"/>
      <use xlink:href="#DejaVuSans-72" x="563.277344"/>
      <use xlink:href="#DejaVuSans-6f" x="602.140625"/>
      <use xlink:href="#DejaVuSans-75" x="663.322266"/>
      <use xlink:href="#DejaVuSans-6e" x="726.701172"/>
      <use xlink:href="#DejaVuSans-64" x="790.080078"/>
     </g>
    </g>
    <g id="line2d_43">
     <path d="M 261.579375 209.597625 
L 273.579375 209.597625 
L 285.579375 209.597625 
" style="fill: none; stroke: #d62728; stroke-width: 1.5; stroke-linecap: square"/>
    </g>
    <g id="text_8">
     <!-- measure 3 rounds -->
     <g transform="translate(295.179375 213.797625) scale(0.12 -0.12)">
      <use xlink:href="#DejaVuSans-6d"/>
      <use xlink:href="#DejaVuSans-65" x="97.412109"/>
      <use xlink:href="#DejaVuSans-61" x="158.935547"/>
      <use xlink:href="#DejaVuSans-73" x="220.214844"/>
      <use xlink:href="#DejaVuSans-75" x="272.314453"/>
      <use xlink:href="#DejaVuSans-72" x="335.693359"/>
      <use xlink:href="#DejaVuSans-65" x="374.556641"/>
      <use xlink:href="#DejaVuSans-20" x="436.080078"/>
      <use xlink:href="#DejaVuSans-33" x="467.867188"/>
      <use xlink:href="#DejaVuSans-20" x="531.490234"/>
      <use xlink:href="#DejaVuSans-72" x="563.277344"/>
      <use xlink:href="#DejaVuSans-6f" x="602.140625"/>
      <use xlink:href="#DejaVuSans-75" x="663.322266"/>
      <use xlink:href="#DejaVuSans-6e" x="726.701172"/>
      <use xlink:href="#DejaVuSans-64" x="790.080078"/>
      <use xlink:href="#DejaVuSans-73" x="853.556641"/>
     </g>
    </g>
    <g id="line2d_44">
     <path d="M 261.579375 227.211375 
L 273.579375 227.211375 
L 285.579375 227.211375 
" style="fill: none; stroke: #9467bd; stroke-width: 1.5; stroke-linecap: square"/>
    </g>
    <g id="text_9">
     <!-- measure 5 rounds -->
     <g transform="translate(295.179375 231.411375) scale(0.12 -0.12)">
      <defs>
       <path id="DejaVuSans-35" d="M 691 4666 
L 3169 4666 
L 3169 4134 
L 1269 4134 
L 1269 2991 
Q 1406 3038 1543 3061 
Q 1681 3084 1819 3084 
Q 2600 3084 3056 2656 
Q 3513 2228 3513 1497 
Q 3513 744 3044 326 
Q 2575 -91 1722 -91 
Q 1428 -91 1123 -41 
Q 819 9 494 109 
L 494 744 
Q 775 591 1075 516 
Q 1375 441 1709 441 
Q 2250 441 2565 725 
Q 2881 1009 2881 1497 
Q 2881 1984 2565 2268 
Q 2250 2553 1709 2553 
Q 1456 2553 1204 2497 
Q 953 2441 691 2322 
L 691 4666 
z
" transform="scale(0.015625)"/>
      </defs>
      <use xlink:href="#DejaVuSans-6d"/>
      <use xlink:href="#DejaVuSans-65" x="97.412109"/>
      <use xlink:href="#DejaVuSans-61" x="158.935547"/>
      <use xlink:href="#DejaVuSans-73" x="220.214844"/>
      <use xlink:href="#DejaVuSans-75" x="272.314453"/>
      <use xlink:href="#DejaVuSans-72" x="335.693359"/>
      <use xlink:href="#DejaVuSans-65" x="374.556641"/>
      <use xlink:href="#DejaVuSans-20" x="436.080078"/>
      <use xlink:href="#DejaVuSans-35" x="467.867188"/>
      <use xlink:href="#DejaVuSans-20" x="531.490234"/>
      <use xlink:href="#DejaVuSans-72" x="563.277344"/>
      <use xlink:href="#DejaVuSans-6f" x="602.140625"/>
      <use xlink:href="#DejaVuSans-75" x="663.322266"/>
      <use xlink:href="#DejaVuSans-6e" x="726.701172"/>
      <use xlink:href="#DejaVuSans-64" x="790.080078"/>
      <use xlink:href="#DejaVuSans-73" x="853.556641"/>
     </g>
    </g>
    <g id="line2d_45">
     <path d="M 261.579375 244.825125 
L 273.579375 244.825125 
L 285.579375 244.825125 
" style="fill: none; stroke: #8c564b; stroke-width: 1.5; stroke-linecap: square"/>
    </g>
    <g id="text_10">
     <!-- measure 7 rounds -->
     <g transform="translate(295.179375 249.025125) scale(0.12 -0.12)">
      <use xlink:href="#DejaVuSans-6d"/>
      <use xlink:href="#DejaVuSans-65" x="97.412109"/>
      <use xlink:href="#DejaVuSans-61" x="158.935547"/>
      <use xlink:href="#DejaVuSans-73" x="220.214844"/>
      <use xlink:href="#DejaVuSans-75" x="272.314453"/>
      <use xlink:href="#DejaVuSans-72" x="335.693359"/>
      <use xlink:href="#DejaVuSans-65" x="374.556641"/>
      <use xlink:href="#DejaVuSans-20" x="436.080078"/>
      <use xlink:href="#DejaVuSans-37" x="467.867188"/>
      <use xlink:href="#DejaVuSans-20" x="531.490234"/>
      <use xlink:href="#DejaVuSans-72" x="563.277344"/>
      <use xlink:href="#DejaVuSans-6f" x="602.140625"/>
      <use xlink:href="#DejaVuSans-75" x="663.322266"/>
      <use xlink:href="#DejaVuSans-6e" x="726.701172"/>
      <use xlink:href="#DejaVuSans-64" x="790.080078"/>
      <use xlink:href="#DejaVuSans-73" x="853.556641"/>
     </g>
    </g>
    <g id="line2d_46">
     <path d="M 261.579375 262.438875 
L 273.579375 262.438875 
L 285.579375 262.438875 
" style="fill: none; stroke: #e377c2; stroke-width: 1.5; stroke-linecap: square"/>
    </g>
    <g id="text_11">
     <!-- measure 101 rounds -->
     <g transform="translate(295.179375 266.638875) scale(0.12 -0.12)">
      <use xlink:href="#DejaVuSans-6d"/>
      <use xlink:href="#DejaVuSans-65" x="97.412109"/>
      <use xlink:href="#DejaVuSans-61" x="158.935547"/>
      <use xlink:href="#DejaVuSans-73" x="220.214844"/>
      <use xlink:href="#DejaVuSans-75" x="272.314453"/>
      <use xlink:href="#DejaVuSans-72" x="335.693359"/>
      <use xlink:href="#DejaVuSans-65" x="374.556641"/>
      <use xlink:href="#DejaVuSans-20" x="436.080078"/>
      <use xlink:href="#DejaVuSans-31" x="467.867188"/>
      <use xlink:href="#DejaVuSans-30" x="531.490234"/>
      <use xlink:href="#DejaVuSans-31" x="595.113281"/>
      <use xlink:href="#DejaVuSans-20" x="658.736328"/>
      <use xlink:href="#DejaVuSans-72" x="690.523438"/>
      <use xlink:href="#DejaVuSans-6f" x="729.386719"/>
      <use xlink:href="#DejaVuSans-75" x="790.568359"/>
      <use xlink:href="#DejaVuSans-6e" x="853.947266"/>
      <use xlink:href="#DejaVuSans-64" x="917.326172"/>
      <use xlink:href="#DejaVuSans-73" x="980.802734"/>
     </g>
    </g>
    <g id="line2d_47">
     <path d="M 261.579375 280.052625 
L 273.579375 280.052625 
L 285.579375 280.052625 
" style="fill: none; stroke: #ff7f0e; stroke-opacity: 0.4; stroke-width: 1.5; stroke-linecap: square"/>
    </g>
    <g id="text_12">
     <!-- no measure error -->
     <g transform="translate(295.179375 284.252625) scale(0.12 -0.12)">
      <use xlink:href="#DejaVuSans-6e"/>
      <use xlink:href="#DejaVuSans-6f" x="63.378906"/>
      <use xlink:href="#DejaVuSans-20" x="124.560547"/>
      <use xlink:href="#DejaVuSans-6d" x="156.347656"/>
      <use xlink:href="#DejaVuSans-65" x="253.759766"/>
      <use xlink:href="#DejaVuSans-61" x="315.283203"/>
      <use xlink:href="#DejaVuSans-73" x="376.5625"/>
      <use xlink:href="#DejaVuSans-75" x="428.662109"/>
      <use xlink:href="#DejaVuSans-72" x="492.041016"/>
      <use xlink:href="#DejaVuSans-65" x="530.904297"/>
      <use xlink:href="#DejaVuSans-20" x="592.427734"/>
      <use xlink:href="#DejaVuSans-65" x="624.214844"/>
      <use xlink:href="#DejaVuSans-72" x="685.738281"/>
      <use xlink:href="#DejaVuSans-72" x="725.101562"/>
      <use xlink:href="#DejaVuSans-6f" x="763.964844"/>
      <use xlink:href="#DejaVuSans-72" x="825.146484"/>
     </g>
    </g>
   </g>
  </g>
 </g>
 <defs>
  <clipPath id="p15f64459f5">
   <rect x="72.80625" y="31.43625" width="357.12" height="266.112"/>
  </clipPath>
 </defs>
</svg>
