<?xml version="1.0" encoding="utf-8" standalone="no"?>
<!DOCTYPE svg PUBLIC "-//W3C//DTD SVG 1.1//EN"
  "http://www.w3.org/Graphics/SVG/1.1/DTD/svg11.dtd">
<svg xmlns:xlink="http://www.w3.org/1999/xlink" width="437.658281pt" height="349.621687pt" viewBox="0 0 437.658281 349.621687" xmlns="http://www.w3.org/2000/svg" version="1.1">
 <defs>
  <style type="text/css">*{stroke-linejoin: round; stroke-linecap: butt}</style>
 </defs>
 <g id="figure_1">
  <g id="patch_1">
   <path d="M 0 349.621687 
L 437.658281 349.621687 
L 437.658281 0 
L 0 0 
L 0 349.621687 
z
" style="fill: none"/>
  </g>
  <g id="axes_1">
   <g id="patch_2">
    <path d="M 61.410938 297.54825 
L 418.530938 297.54825 
L 418.530938 31.43625 
L 61.410938 31.43625 
L 61.410938 297.54825 
z
" style="fill: none"/>
   </g>
   <g id="matplotlib.axis_1">
    <g id="xtick_1">
     <g id="line2d_1">
      <path d="M 61.410938 297.54825 
L 61.410938 31.43625 
" clip-path="url(#p37e3121db0)" style="fill: none; stroke: #b0b0b0; stroke-width: 0.8; stroke-linecap: square"/>
     </g>
     <g id="line2d_2">
      <defs>
       <path id="md39032bed2" d="M 0 0 
L 0 3.5 
" style="stroke: #000000; stroke-width: 0.8"/>
      </defs>
      <g>
       <use xlink:href="#md39032bed2" x="61.410938" y="297.54825" style="stroke: #000000; stroke-width: 0.8"/>
      </g>
     </g>
     <g id="text_1">
      <!-- 0.0 -->
      <g transform="translate(49.483594 315.945906) scale(0.15 -0.15)">
       <defs>
        <path id="DejaVuSans-30" d="M 2034 4250 
Q 1547 4250 1301 3770 
Q 1056 3291 1056 2328 
Q 1056 1369 1301 889 
Q 1547 409 2034 409 
Q 2525 409 2770 889 
Q 3016 1369 3016 2328 
Q 3016 3291 2770 3770 
Q 2525 4250 2034 4250 
z
M 2034 4750 
Q 2819 4750 3233 4129 
Q 3647 3509 3647 2328 
Q 3647 1150 3233 529 
Q 2819 -91 2034 -91 
Q 1250 -91 836 529 
Q 422 1150 422 2328 
Q 422 3509 836 4129 
Q 1250 4750 2034 4750 
z
" transform="scale(0.015625)"/>
        <path id="DejaVuSans-2e" d="M 684 794 
L 1344 794 
L 1344 0 
L 684 0 
L 684 794 
z
" transform="scale(0.015625)"/>
       </defs>
       <use xlink:href="#DejaVuSans-30"/>
       <use xlink:href="#DejaVuSans-2e" x="63.623047"/>
       <use xlink:href="#DejaVuSans-30" x="95.410156"/>
      </g>
     </g>
    </g>
    <g id="xtick_2">
     <g id="line2d_3">
      <path d="M 132.834938 297.54825 
L 132.834938 31.43625 
" clip-path="url(#p37e3121db0)" style="fill: none; stroke: #b0b0b0; stroke-width: 0.8; stroke-linecap: square"/>
     </g>
     <g id="line2d_4">
      <g>
       <use xlink:href="#md39032bed2" x="132.834938" y="297.54825" style="stroke: #000000; stroke-width: 0.8"/>
      </g>
     </g>
     <g id="text_2">
      <!-- 0.2 -->
      <g transform="translate(120.907594 315.945906) scale(0.15 -0.15)">
       <defs>
        <path id="DejaVuSans-32" d="M 1228 531 
L 3431 531 
L 3431 0 
L 469 0 
L 469 531 
Q 828 903 1448 1529 
Q 2069 2156 2228 2338 
Q 2531 2678 2651 2914 
Q 2772 3150 2772 3378 
Q 2772 3750 2511 3984 
Q 2250 4219 1831 4219 
Q 1534 4219 1204 4116 
Q 875 4013 500 3803 
L 500 4441 
Q 881 4594 1212 4672 
Q 1544 4750 1819 4750 
Q 2544 4750 2975 4387 
Q 3406 4025 3406 3419 
Q 3406 3131 3298 2873 
Q 3191 2616 2906 2266 
Q 2828 2175 2409 1742 
Q 1991 1309 1228 531 
z
" transform="scale(0.015625)"/>
       </defs>
       <use xlink:href="#DejaVuSans-30"/>
       <use xlink:href="#DejaVuSans-2e" x="63.623047"/>
       <use xlink:href="#DejaVuSans-32" x="95.410156"/>
      </g>
     </g>
    </g>
    <g id="xtick_3">
     <g id="line2d_5">
      <path d="M 204.258938 297.54825 
L 204.258938 31.43625 
" clip-path="url(#p37e3121db0)" style="fill: none; stroke: #b0b0b0; stroke-width: 0.8; stroke-linecap: square"/>
     </g>
     <g id="line2d_6">
      <g>
       <use xlink:href="#md39032bed2" x="204.258938" y="297.54825" style="stroke: #000000; stroke-width: 0.8"/>
      </g>
     </g>
     <g id="text_3">
      <!-- 0.4 -->
      <g transform="translate(192.331594 315.945906) scale(0.15 -0.15)">
       <defs>
        <path id="DejaVuSans-34" d="M 2419 4116 
L 825 1625 
L 2419 1625 
L 2419 4116 
z
M 2253 4666 
L 3047 4666 
L 3047 1625 
L 3713 1625 
L 3713 1100 
L 3047 1100 
L 3047 0 
L 2419 0 
L 2419 1100 
L 313 1100 
L 313 1709 
L 2253 4666 
z
" transform="scale(0.015625)"/>
       </defs>
       <use xlink:href="#DejaVuSans-30"/>
       <use xlink:href="#DejaVuSans-2e" x="63.623047"/>
       <use xlink:href="#DejaVuSans-34" x="95.410156"/>
      </g>
     </g>
    </g>
    <g id="xtick_4">
     <g id="line2d_7">
      <path d="M 275.682938 297.54825 
L 275.682938 31.43625 
" clip-path="url(#p37e3121db0)" style="fill: none; stroke: #b0b0b0; stroke-width: 0.8; stroke-linecap: square"/>
     </g>
     <g id="line2d_8">
      <g>
       <use xlink:href="#md39032bed2" x="275.682938" y="297.54825" style="stroke: #000000; stroke-width: 0.8"/>
      </g>
     </g>
     <g id="text_4">
      <!-- 0.6 -->
      <g transform="translate(263.755594 315.945906) scale(0.15 -0.15)">
       <defs>
        <path id="DejaVuSans-36" d="M 2113 2584 
Q 1688 2584 1439 2293 
Q 1191 2003 1191 1497 
Q 1191 994 1439 701 
Q 1688 409 2113 409 
Q 2538 409 2786 701 
Q 3034 994 3034 1497 
Q 3034 2003 2786 2293 
Q 2538 2584 2113 2584 
z
M 3366 4563 
L 3366 3988 
Q 3128 4100 2886 4159 
Q 2644 4219 2406 4219 
Q 1781 4219 1451 3797 
Q 1122 3375 1075 2522 
Q 1259 2794 1537 2939 
Q 1816 3084 2150 3084 
Q 2853 3084 3261 2657 
Q 3669 2231 3669 1497 
Q 3669 778 3244 343 
Q 2819 -91 2113 -91 
Q 1303 -91 875 529 
Q 447 1150 447 2328 
Q 447 3434 972 4092 
Q 1497 4750 2381 4750 
Q 2619 4750 2861 4703 
Q 3103 4656 3366 4563 
z
" transform="scale(0.015625)"/>
       </defs>
       <use xlink:href="#DejaVuSans-30"/>
       <use xlink:href="#DejaVuSans-2e" x="63.623047"/>
       <use xlink:href="#DejaVuSans-36" x="95.410156"/>
      </g>
     </g>
    </g>
    <g id="xtick_5">
     <g id="line2d_9">
      <path d="M 347.106938 297.54825 
L 347.106938 31.43625 
" clip-path="url(#p37e3121db0)" style="fill: none; stroke: #b0b0b0; stroke-width: 0.8; stroke-linecap: square"/>
     </g>
     <g id="line2d_10">
      <g>
       <use xlink:href="#md39032bed2" x="347.106938" y="297.54825" style="stroke: #000000; stroke-width: 0.8"/>
      </g>
     </g>
     <g id="text_5">
      <!-- 0.8 -->
      <g transform="translate(335.179594 315.945906) scale(0.15 -0.15)">
       <defs>
        <path id="DejaVuSans-38" d="M 2034 2216 
Q 1584 2216 1326 1975 
Q 1069 1734 1069 1313 
Q 1069 891 1326 650 
Q 1584 409 2034 409 
Q 2484 409 2743 651 
Q 3003 894 3003 1313 
Q 3003 1734 2745 1975 
Q 2488 2216 2034 2216 
z
M 1403 2484 
Q 997 2584 770 2862 
Q 544 3141 544 3541 
Q 544 4100 942 4425 
Q 1341 4750 2034 4750 
Q 2731 4750 3128 4425 
Q 3525 4100 3525 3541 
Q 3525 3141 3298 2862 
Q 3072 2584 2669 2484 
Q 3125 2378 3379 2068 
Q 3634 1759 3634 1313 
Q 3634 634 3220 271 
Q 2806 -91 2034 -91 
Q 1263 -91 848 271 
Q 434 634 434 1313 
Q 434 1759 690 2068 
Q 947 2378 1403 2484 
z
M 1172 3481 
Q 1172 3119 1398 2916 
Q 1625 2713 2034 2713 
Q 2441 2713 2670 2916 
Q 2900 3119 2900 3481 
Q 2900 3844 2670 4047 
Q 2441 4250 2034 4250 
Q 1625 4250 1398 4047 
Q 1172 3844 1172 3481 
z
" transform="scale(0.015625)"/>
       </defs>
       <use xlink:href="#DejaVuSans-30"/>
       <use xlink:href="#DejaVuSans-2e" x="63.623047"/>
       <use xlink:href="#DejaVuSans-38" x="95.410156"/>
      </g>
     </g>
    </g>
    <g id="xtick_6">
     <g id="line2d_11">
      <path d="M 418.530938 297.54825 
L 418.530938 31.43625 
" clip-path="url(#p37e3121db0)" style="fill: none; stroke: #b0b0b0; stroke-width: 0.8; stroke-linecap: square"/>
     </g>
     <g id="line2d_12">
      <g>
       <use xlink:href="#md39032bed2" x="418.530938" y="297.54825" style="stroke: #000000; stroke-width: 0.8"/>
      </g>
     </g>
     <g id="text_6">
      <!-- 1.0 -->
      <g transform="translate(406.603594 315.945906) scale(0.15 -0.15)">
       <defs>
        <path id="DejaVuSans-31" d="M 794 531 
L 1825 531 
L 1825 4091 
L 703 3866 
L 703 4441 
L 1819 4666 
L 2450 4666 
L 2450 531 
L 3481 531 
L 3481 0 
L 794 0 
L 794 531 
z
" transform="scale(0.015625)"/>
       </defs>
       <use xlink:href="#DejaVuSans-31"/>
       <use xlink:href="#DejaVuSans-2e" x="63.623047"/>
       <use xlink:href="#DejaVuSans-30" x="95.410156"/>
      </g>
     </g>
    </g>
    <g id="text_7">
     <!-- Physical Error -->
     <g transform="translate(171.744375 338.262312) scale(0.2 -0.2)">
      <defs>
       <path id="DejaVuSans-50" d="M 1259 4147 
L 1259 2394 
L 2053 2394 
Q 2494 2394 2734 2622 
Q 2975 2850 2975 3272 
Q 2975 3691 2734 3919 
Q 2494 4147 2053 4147 
L 1259 4147 
z
M 628 4666 
L 2053 4666 
Q 2838 4666 3239 4311 
Q 3641 3956 3641 3272 
Q 3641 2581 3239 2228 
Q 2838 1875 2053 1875 
L 1259 1875 
L 1259 0 
L 628 0 
L 628 4666 
z
" transform="scale(0.015625)"/>
       <path id="DejaVuSans-68" d="M 3513 2113 
L 3513 0 
L 2938 0 
L 2938 2094 
Q 2938 2591 2744 2837 
Q 2550 3084 2163 3084 
Q 1697 3084 1428 2787 
Q 1159 2491 1159 1978 
L 1159 0 
L 581 0 
L 581 4863 
L 1159 4863 
L 1159 2956 
Q 1366 3272 1645 3428 
Q 1925 3584 2291 3584 
Q 2894 3584 3203 3211 
Q 3513 2838 3513 2113 
z
" transform="scale(0.015625)"/>
       <path id="DejaVuSans-79" d="M 2059 -325 
Q 1816 -950 1584 -1140 
Q 1353 -1331 966 -1331 
L 506 -1331 
L 506 -850 
L 844 -850 
Q 1081 -850 1212 -737 
Q 1344 -625 1503 -206 
L 1606 56 
L 191 3500 
L 800 3500 
L 1894 763 
L 2988 3500 
L 3597 3500 
L 2059 -325 
z
" transform="scale(0.015625)"/>
       <path id="DejaVuSans-73" d="M 2834 3397 
L 2834 2853 
Q 2591 2978 2328 3040 
Q 2066 3103 1784 3103 
Q 1356 3103 1142 2972 
Q 928 2841 928 2578 
Q 928 2378 1081 2264 
Q 1234 2150 1697 2047 
L 1894 2003 
Q 2506 1872 2764 1633 
Q 3022 1394 3022 966 
Q 3022 478 2636 193 
Q 2250 -91 1575 -91 
Q 1294 -91 989 -36 
Q 684 19 347 128 
L 347 722 
Q 666 556 975 473 
Q 1284 391 1588 391 
Q 1994 391 2212 530 
Q 2431 669 2431 922 
Q 2431 1156 2273 1281 
Q 2116 1406 1581 1522 
L 1381 1569 
Q 847 1681 609 1914 
Q 372 2147 372 2553 
Q 372 3047 722 3315 
Q 1072 3584 1716 3584 
Q 2034 3584 2315 3537 
Q 2597 3491 2834 3397 
z
" transform="scale(0.015625)"/>
       <path id="DejaVuSans-69" d="M 603 3500 
L 1178 3500 
L 1178 0 
L 603 0 
L 603 3500 
z
M 603 4863 
L 1178 4863 
L 1178 4134 
L 603 4134 
L 603 4863 
z
" transform="scale(0.015625)"/>
       <path id="DejaVuSans-63" d="M 3122 3366 
L 3122 2828 
Q 2878 2963 2633 3030 
Q 2388 3097 2138 3097 
Q 1578 3097 1268 2742 
Q 959 2388 959 1747 
Q 959 1106 1268 751 
Q 1578 397 2138 397 
Q 2388 397 2633 464 
Q 2878 531 3122 666 
L 3122 134 
Q 2881 22 2623 -34 
Q 2366 -91 2075 -91 
Q 1284 -91 818 406 
Q 353 903 353 1747 
Q 353 2603 823 3093 
Q 1294 3584 2113 3584 
Q 2378 3584 2631 3529 
Q 2884 3475 3122 3366 
z
" transform="scale(0.015625)"/>
       <path id="DejaVuSans-61" d="M 2194 1759 
Q 1497 1759 1228 1600 
Q 959 1441 959 1056 
Q 959 750 1161 570 
Q 1363 391 1709 391 
Q 2188 391 2477 730 
Q 2766 1069 2766 1631 
L 2766 1759 
L 2194 1759 
z
M 3341 1997 
L 3341 0 
L 2766 0 
L 2766 531 
Q 2569 213 2275 61 
Q 1981 -91 1556 -91 
Q 1019 -91 701 211 
Q 384 513 384 1019 
Q 384 1609 779 1909 
Q 1175 2209 1959 2209 
L 2766 2209 
L 2766 2266 
Q 2766 2663 2505 2880 
Q 2244 3097 1772 3097 
Q 1472 3097 1187 3025 
Q 903 2953 641 2809 
L 641 3341 
Q 956 3463 1253 3523 
Q 1550 3584 1831 3584 
Q 2591 3584 2966 3190 
Q 3341 2797 3341 1997 
z
" transform="scale(0.015625)"/>
       <path id="DejaVuSans-6c" d="M 603 4863 
L 1178 4863 
L 1178 0 
L 603 0 
L 603 4863 
z
" transform="scale(0.015625)"/>
       <path id="DejaVuSans-20" transform="scale(0.015625)"/>
       <path id="DejaVuSans-45" d="M 628 4666 
L 3578 4666 
L 3578 4134 
L 1259 4134 
L 1259 2753 
L 3481 2753 
L 3481 2222 
L 1259 2222 
L 1259 531 
L 3634 531 
L 3634 0 
L 628 0 
L 628 4666 
z
" transform="scale(0.015625)"/>
       <path id="DejaVuSans-72" d="M 2631 2963 
Q 2534 3019 2420 3045 
Q 2306 3072 2169 3072 
Q 1681 3072 1420 2755 
Q 1159 2438 1159 1844 
L 1159 0 
L 581 0 
L 581 3500 
L 1159 3500 
L 1159 2956 
Q 1341 3275 1631 3429 
Q 1922 3584 2338 3584 
Q 2397 3584 2469 3576 
Q 2541 3569 2628 3553 
L 2631 2963 
z
" transform="scale(0.015625)"/>
       <path id="DejaVuSans-6f" d="M 1959 3097 
Q 1497 3097 1228 2736 
Q 959 2375 959 1747 
Q 959 1119 1226 758 
Q 1494 397 1959 397 
Q 2419 397 2687 759 
Q 2956 1122 2956 1747 
Q 2956 2369 2687 2733 
Q 2419 3097 1959 3097 
z
M 1959 3584 
Q 2709 3584 3137 3096 
Q 3566 2609 3566 1747 
Q 3566 888 3137 398 
Q 2709 -91 1959 -91 
Q 1206 -91 779 398 
Q 353 888 353 1747 
Q 353 2609 779 3096 
Q 1206 3584 1959 3584 
z
" transform="scale(0.015625)"/>
      </defs>
      <use xlink:href="#DejaVuSans-50"/>
      <use xlink:href="#DejaVuSans-68" x="60.302734"/>
      <use xlink:href="#DejaVuSans-79" x="123.681641"/>
      <use xlink:href="#DejaVuSans-73" x="182.861328"/>
      <use xlink:href="#DejaVuSans-69" x="234.960938"/>
      <use xlink:href="#DejaVuSans-63" x="262.744141"/>
      <use xlink:href="#DejaVuSans-61" x="317.724609"/>
      <use xlink:href="#DejaVuSans-6c" x="379.003906"/>
      <use xlink:href="#DejaVuSans-20" x="406.787109"/>
      <use xlink:href="#DejaVuSans-45" x="438.574219"/>
      <use xlink:href="#DejaVuSans-72" x="501.757812"/>
      <use xlink:href="#DejaVuSans-72" x="541.121094"/>
      <use xlink:href="#DejaVuSans-6f" x="579.984375"/>
      <use xlink:href="#DejaVuSans-72" x="641.166016"/>
     </g>
    </g>
   </g>
   <g id="matplotlib.axis_2">
    <g id="ytick_1">
     <g id="line2d_13">
      <path d="M 61.410938 297.54825 
L 418.530938 297.54825 
" clip-path="url(#p37e3121db0)" style="fill: none; stroke: #b0b0b0; stroke-width: 0.8; stroke-linecap: square"/>
     </g>
     <g id="line2d_14">
      <defs>
       <path id="m6f3f5b6aff" d="M 0 0 
L -3.5 0 
" style="stroke: #000000; stroke-width: 0.8"/>
      </defs>
      <g>
       <use xlink:href="#m6f3f5b6aff" x="61.410938" y="297.54825" style="stroke: #000000; stroke-width: 0.8"/>
      </g>
     </g>
     <g id="text_8">
      <!-- 0.0 -->
      <g transform="translate(30.55625 303.247078) scale(0.15 -0.15)">
       <use xlink:href="#DejaVuSans-30"/>
       <use xlink:href="#DejaVuSans-2e" x="63.623047"/>
       <use xlink:href="#DejaVuSans-30" x="95.410156"/>
      </g>
     </g>
    </g>
    <g id="ytick_2">
     <g id="line2d_15">
      <path d="M 61.410938 244.32585 
L 418.530938 244.32585 
" clip-path="url(#p37e3121db0)" style="fill: none; stroke: #b0b0b0; stroke-width: 0.8; stroke-linecap: square"/>
     </g>
     <g id="line2d_16">
      <g>
       <use xlink:href="#m6f3f5b6aff" x="61.410938" y="244.32585" style="stroke: #000000; stroke-width: 0.8"/>
      </g>
     </g>
     <g id="text_9">
      <!-- 0.2 -->
      <g transform="translate(30.55625 250.024678) scale(0.15 -0.15)">
       <use xlink:href="#DejaVuSans-30"/>
       <use xlink:href="#DejaVuSans-2e" x="63.623047"/>
       <use xlink:href="#DejaVuSans-32" x="95.410156"/>
      </g>
     </g>
    </g>
    <g id="ytick_3">
     <g id="line2d_17">
      <path d="M 61.410938 191.10345 
L 418.530938 191.10345 
" clip-path="url(#p37e3121db0)" style="fill: none; stroke: #b0b0b0; stroke-width: 0.8; stroke-linecap: square"/>
     </g>
     <g id="line2d_18">
      <g>
       <use xlink:href="#m6f3f5b6aff" x="61.410938" y="191.10345" style="stroke: #000000; stroke-width: 0.8"/>
      </g>
     </g>
     <g id="text_10">
      <!-- 0.4 -->
      <g transform="translate(30.55625 196.802278) scale(0.15 -0.15)">
       <use xlink:href="#DejaVuSans-30"/>
       <use xlink:href="#DejaVuSans-2e" x="63.623047"/>
       <use xlink:href="#DejaVuSans-34" x="95.410156"/>
      </g>
     </g>
    </g>
    <g id="ytick_4">
     <g id="line2d_19">
      <path d="M 61.410938 137.88105 
L 418.530938 137.88105 
" clip-path="url(#p37e3121db0)" style="fill: none; stroke: #b0b0b0; stroke-width: 0.8; stroke-linecap: square"/>
     </g>
     <g id="line2d_20">
      <g>
       <use xlink:href="#m6f3f5b6aff" x="61.410938" y="137.88105" style="stroke: #000000; stroke-width: 0.8"/>
      </g>
     </g>
     <g id="text_11">
      <!-- 0.6 -->
      <g transform="translate(30.55625 143.579878) scale(0.15 -0.15)">
       <use xlink:href="#DejaVuSans-30"/>
       <use xlink:href="#DejaVuSans-2e" x="63.623047"/>
       <use xlink:href="#DejaVuSans-36" x="95.410156"/>
      </g>
     </g>
    </g>
    <g id="ytick_5">
     <g id="line2d_21">
      <path d="M 61.410938 84.65865 
L 418.530938 84.65865 
" clip-path="url(#p37e3121db0)" style="fill: none; stroke: #b0b0b0; stroke-width: 0.8; stroke-linecap: square"/>
     </g>
     <g id="line2d_22">
      <g>
       <use xlink:href="#m6f3f5b6aff" x="61.410938" y="84.65865" style="stroke: #000000; stroke-width: 0.8"/>
      </g>
     </g>
     <g id="text_12">
      <!-- 0.8 -->
      <g transform="translate(30.55625 90.357478) scale(0.15 -0.15)">
       <use xlink:href="#DejaVuSans-30"/>
       <use xlink:href="#DejaVuSans-2e" x="63.623047"/>
       <use xlink:href="#DejaVuSans-38" x="95.410156"/>
      </g>
     </g>
    </g>
    <g id="ytick_6">
     <g id="line2d_23">
      <path d="M 61.410938 31.43625 
L 418.530938 31.43625 
" clip-path="url(#p37e3121db0)" style="fill: none; stroke: #b0b0b0; stroke-width: 0.8; stroke-linecap: square"/>
     </g>
     <g id="line2d_24">
      <g>
       <use xlink:href="#m6f3f5b6aff" x="61.410938" y="31.43625" style="stroke: #000000; stroke-width: 0.8"/>
      </g>
     </g>
     <g id="text_13">
      <!-- 1.0 -->
      <g transform="translate(30.55625 37.135078) scale(0.15 -0.15)">
       <use xlink:href="#DejaVuSans-31"/>
       <use xlink:href="#DejaVuSans-2e" x="63.623047"/>
       <use xlink:href="#DejaVuSans-30" x="95.410156"/>
      </g>
     </g>
    </g>
    <g id="text_14">
     <!-- Logical Error -->
     <g transform="translate(22.396875 227.087562) rotate(-90) scale(0.2 -0.2)">
      <defs>
       <path id="DejaVuSans-4c" d="M 628 4666 
L 1259 4666 
L 1259 531 
L 3531 531 
L 3531 0 
L 628 0 
L 628 4666 
z
" transform="scale(0.015625)"/>
       <path id="DejaVuSans-67" d="M 2906 1791 
Q 2906 2416 2648 2759 
Q 2391 3103 1925 3103 
Q 1463 3103 1205 2759 
Q 947 2416 947 1791 
Q 947 1169 1205 825 
Q 1463 481 1925 481 
Q 2391 481 2648 825 
Q 2906 1169 2906 1791 
z
M 3481 434 
Q 3481 -459 3084 -895 
Q 2688 -1331 1869 -1331 
Q 1566 -1331 1297 -1286 
Q 1028 -1241 775 -1147 
L 775 -588 
Q 1028 -725 1275 -790 
Q 1522 -856 1778 -856 
Q 2344 -856 2625 -561 
Q 2906 -266 2906 331 
L 2906 616 
Q 2728 306 2450 153 
Q 2172 0 1784 0 
Q 1141 0 747 490 
Q 353 981 353 1791 
Q 353 2603 747 3093 
Q 1141 3584 1784 3584 
Q 2172 3584 2450 3431 
Q 2728 3278 2906 2969 
L 2906 3500 
L 3481 3500 
L 3481 434 
z
" transform="scale(0.015625)"/>
      </defs>
      <use xlink:href="#DejaVuSans-4c"/>
      <use xlink:href="#DejaVuSans-6f" x="53.962891"/>
      <use xlink:href="#DejaVuSans-67" x="115.144531"/>
      <use xlink:href="#DejaVuSans-69" x="178.621094"/>
      <use xlink:href="#DejaVuSans-63" x="206.404297"/>
      <use xlink:href="#DejaVuSans-61" x="261.384766"/>
      <use xlink:href="#DejaVuSans-6c" x="322.664062"/>
      <use xlink:href="#DejaVuSans-20" x="350.447266"/>
      <use xlink:href="#DejaVuSans-45" x="382.234375"/>
      <use xlink:href="#DejaVuSans-72" x="445.417969"/>
      <use xlink:href="#DejaVuSans-72" x="484.78125"/>
      <use xlink:href="#DejaVuSans-6f" x="523.644531"/>
      <use xlink:href="#DejaVuSans-72" x="584.826172"/>
     </g>
    </g>
   </g>
   <g id="line2d_25">
    <path d="M 61.410938 297.54825 
L 70.124666 271.900049 
L 70.19609 271.906059 
L 70.410362 271.111654 
L 70.481786 271.081443 
L 71.053178 269.342392 
L 71.838842 267.150346 
L 77.124218 252.46416 
L 77.195642 252.427778 
L 77.409914 251.578312 
L 77.481338 251.546152 
L 77.767034 250.742001 
L 78.481274 248.727158 
L 78.552698 248.656342 
L 78.909818 247.509644 
L 79.052666 247.387827 
L 79.338362 246.459099 
L 79.552634 245.968098 
L 79.981178 244.651831 
L 80.052602 244.670347 
L 80.695418 242.667035 
L 80.766842 242.832056 
L 81.195386 241.564678 
L 81.26681 241.479082 
L 81.552506 240.624418 
L 82.195322 238.981521 
L 82.481018 238.273036 
L 82.838138 237.303703 
L 82.909562 237.212584 
L 83.266682 236.118348 
L 83.480954 235.737956 
L 83.623802 235.11653 
L 83.695226 235.223566 
L 83.980922 234.398625 
L 84.12377 234.047794 
L 84.48089 233.007157 
L 84.695162 232.511932 
L 84.766586 232.586971 
L 84.980858 231.825375 
L 85.052282 231.723212 
L 85.337978 230.863513 
L 85.409402 230.876507 
L 85.90937 229.42543 
L 85.980794 229.500469 
L 86.837882 227.240693 
L 86.909306 227.211457 
L 87.195002 226.345586 
L 87.266426 226.33113 
L 87.552122 225.435374 
L 87.623546 225.435374 
L 87.69497 224.971984 
L 87.766394 225.070737 
L 87.980666 224.393925 
L 88.05209 224.585258 
L 88.194938 223.911045 
L 89.266298 221.262918 
L 89.337722 221.286957 
L 89.623418 220.431968 
L 89.909114 219.778057 
L 89.980538 219.442819 
L 90.051962 219.670372 
L 90.409082 218.542514 
L 90.480506 218.652149 
L 90.837626 217.624181 
L 90.90905 217.604366 
L 91.194746 216.784135 
L 91.694714 215.674956 
L 91.837562 215.467381 
L 92.123258 214.41976 
L 92.266106 214.391336 
L 92.480378 213.635912 
L 92.551802 213.88458 
L 94.194554 209.940814 
L 94.265978 210.027385 
L 94.694522 208.709819 
L 94.980218 208.229375 
L 99.694202 197.939299 
L 100.979834 195.538379 
L 101.62265 194.258008 
L 102.265466 192.727994 
L 102.908282 191.771654 
L 104.83673 187.716791 
L 106.765178 184.255906 
L 107.407994 182.788749 
L 108.05081 181.910697 
L 109.336442 179.285147 
L 117.69305 165.430886 
L 118.978682 163.595032 
L 121.549946 159.655489 
L 124.764026 155.351797 
L 125.406842 154.565512 
L 126.692474 152.685317 
L 127.978106 150.819901 
L 133.76345 143.74984 
L 134.406266 143.18721 
L 138.263162 138.944913 
L 138.905978 138.381959 
L 140.834426 136.210379 
L 141.477242 135.709794 
L 142.120058 134.954857 
L 142.762874 134.722269 
L 144.048506 133.253001 
L 145.976954 131.551145 
L 146.61977 130.757227 
L 147.262586 130.383494 
L 148.548218 129.42488 
L 149.191034 128.604812 
L 150.476666 127.81333 
L 151.119482 127.154709 
L 151.762298 126.797706 
L 153.690746 125.268991 
L 154.333562 124.553523 
L 158.190458 122.004961 
L 158.833274 121.673296 
L 160.118906 120.59514 
L 162.047354 119.487422 
L 162.69017 119.024682 
L 163.332986 118.848292 
L 163.975802 118.273156 
L 164.618618 118.102613 
L 165.261434 117.542745 
L 165.90425 117.254934 
L 167.189882 116.44185 
L 167.832698 116.190908 
L 168.475514 115.676518 
L 169.11833 115.54788 
L 169.761146 114.964298 
L 170.403962 114.878214 
L 171.689594 114.211148 
L 172.33241 114.012506 
L 173.618042 113.292652 
L 174.903674 112.733271 
L 175.54649 112.345732 
L 180.689018 110.297593 
L 181.331834 110.254551 
L 181.97465 109.628577 
L 182.617466 109.557111 
L 184.545914 108.725511 
L 185.18873 108.680683 
L 186.474362 108.060881 
L 187.117178 108.011505 
L 188.40281 107.636473 
L 189.045626 107.249909 
L 190.331258 107.185265 
L 190.974074 106.766541 
L 191.61689 106.711967 
L 192.259706 106.376241 
L 192.902522 106.320693 
L 193.545338 106.064229 
L 194.83097 105.798182 
L 195.473786 105.466516 
L 196.759418 105.382869 
L 197.402234 105.125593 
L 198.04505 104.73578 
L 198.687866 104.803023 
L 199.330682 104.67341 
L 199.973498 104.262645 
L 200.616314 104.31056 
L 202.544762 103.691895 
L 204.47321 103.683124 
L 205.116026 103.59298 
L 205.758842 103.215512 
L 206.401658 103.093858 
L 207.044474 103.090772 
L 207.68729 102.86062 
L 208.330106 102.831221 
L 208.972922 102.378552 
L 209.615738 102.495658 
L 210.90137 102.419482 
L 213.472634 101.75875 
L 214.11545 101.914512 
L 214.758266 101.75875 
L 216.686714 101.635959 
L 217.32953 101.447387 
L 217.972346 101.474349 
L 219.900794 101.050428 
L 220.54361 101.167697 
L 221.186426 100.9265 
L 223.114874 100.76018 
L 223.75769 100.796563 
L 225.043322 100.549032 
L 225.686138 100.57843 
L 226.97177 100.272915 
L 227.614586 100.337721 
L 229.543034 100.104158 
L 230.18585 100.16864 
L 230.828666 99.841035 
L 231.471482 99.900481 
L 232.114298 100.093601 
L 232.757114 99.865073 
L 233.39993 100.003944 
L 234.042746 99.837786 
L 234.685562 99.893172 
L 235.971194 99.65425 
L 236.61401 99.684947 
L 237.256826 99.468114 
L 238.542458 99.52951 
L 239.82809 99.241048 
L 241.756538 99.256478 
L 242.399354 99.157401 
L 243.04217 99.257453 
L 243.684986 99.07148 
L 246.899066 99.035747 
L 247.541882 98.755082 
L 250.755962 98.877548 
L 253.970042 98.69791 
L 254.612858 98.812742 
L 255.255674 98.746311 
L 255.89849 98.537274 
L 256.541306 98.676957 
L 257.826938 98.640412 
L 258.469754 98.746799 
L 260.398202 98.445668 
L 261.041018 98.60338 
L 261.683834 98.480427 
L 262.32665 98.606304 
L 262.969466 98.373391 
L 263.612282 98.332298 
L 264.897914 98.558876 
L 265.54073 98.329699 
L 268.111994 98.443719 
L 268.75481 98.494882 
L 270.040442 98.137879 
L 270.683258 98.084605 
L 271.326074 98.207558 
L 272.611706 98.216978 
L 273.254522 98.292667 
L 275.18297 98.173774 
L 275.825786 98.215679 
L 276.468602 98.034254 
L 277.111418 98.181733 
L 279.039866 98.180758 
L 279.682682 98.263756 
L 280.325498 98.10442 
L 283.539578 98.143239 
L 284.82521 98.020935 
L 285.468026 98.284708 
L 286.110842 97.998683 
L 286.753658 98.186443 
L 287.396474 98.067225 
L 288.03929 98.190179 
L 289.324922 98.104745 
L 292.539002 97.8871 
L 293.181818 98.195701 
L 293.824634 97.947683 
L 298.324346 98.031655 
L 299.609978 97.840972 
L 300.89561 98.1983 
L 302.181242 97.863548 
L 304.752506 98.076808 
L 305.395322 97.8348 
L 306.680954 98.054232 
L 307.966586 97.76772 
L 309.252218 97.941673 
L 312.466298 97.85559 
L 313.109114 98.021098 
L 313.75193 97.866472 
L 314.394746 98.174099 
L 315.037562 97.954017 
L 315.680378 98.09971 
L 316.323194 97.882714 
L 317.608826 97.97562 
L 318.251642 97.944272 
L 318.894458 98.036528 
L 320.18009 97.950769 
L 320.822906 98.050009 
L 322.108538 97.802965 
L 322.751354 97.93745 
L 325.322618 97.945247 
L 326.60825 97.958078 
L 327.251066 98.047897 
L 327.893882 97.895546 
L 328.536698 97.988126 
L 331.107962 97.878979 
L 331.750778 98.060566 
L 332.393594 97.970097 
L 333.03641 98.022884 
L 333.679226 97.936638 
L 334.322042 97.971884 
L 334.964858 97.862249 
L 335.607674 97.97497 
L 336.25049 97.793545 
L 336.893306 97.920234 
L 337.536122 97.891972 
L 338.178938 98.080544 
L 339.46457 97.844707 
L 340.750202 97.993324 
L 341.393018 97.780551 
L 342.035834 98.106044 
L 343.321466 97.817096 
L 343.964282 98.0682 
L 344.607098 98.001932 
L 345.249914 97.752127 
L 345.89273 97.980979 
L 346.535546 97.839835 
L 348.463994 98.02727 
L 349.10681 97.90659 
L 351.035258 98.05277 
L 352.963706 97.872157 
L 360.034682 97.816771 
L 360.677498 97.69333 
L 361.320314 97.879628 
L 361.96313 97.947521 
L 362.605946 97.745955 
L 363.248762 98.036528 
L 363.891578 97.876867 
L 367.105658 98.107993 
L 367.748474 97.900743 
L 368.39129 97.862087 
L 369.034106 97.982441 
L 369.676922 97.687321 
L 370.962554 97.902692 
L 373.533818 97.755863 
L 375.462266 97.741732 
L 376.105082 97.892297 
L 376.747898 97.6779 
L 378.03353 97.893759 
L 379.319162 97.654674 
L 379.961978 97.761547 
L 381.890426 97.531233 
L 382.533242 97.740108 
L 383.176058 97.492739 
L 383.818874 97.695442 
L 386.390138 97.442064 
L 387.032954 97.674002 
L 387.67577 97.473574 
L 388.318586 97.554622 
L 391.532666 97.342824 
L 392.818298 97.383267 
L 393.461114 97.427283 
L 394.10393 97.214511 
L 396.675194 97.168708 
L 397.31801 96.900062 
L 398.603642 97.101627 
L 399.246458 97.274119 
L 405.031802 96.739914 
L 405.674618 96.759405 
L 407.603066 96.483937 
L 408.888698 96.622483 
L 409.531514 96.342792 
L 410.17433 96.371704 
L 410.817146 96.267104 
L 411.459962 96.322652 
L 412.745594 96.002031 
L 413.38841 96.308684 
L 414.031226 96.016 
L 414.674042 96.130832 
L 415.959674 95.879728 
L 417.888122 95.838148 
L 418.530938 95.628786 
L 418.530938 95.628786 
" clip-path="url(#p37e3121db0)" style="fill: none; stroke: #2ca02c; stroke-width: 1.5; stroke-linecap: square"/>
   </g>
   <g id="line2d_26">
    <path d="M 61.410938 297.54825 
L 62.767994 297.441864 
L 65.482106 296.616598 
L 66.62489 296.022296 
L 67.410554 295.53227 
L 68.41049 294.809492 
L 68.553338 294.748422 
L 69.553274 293.90935 
L 69.910394 293.558194 
L 70.053242 293.450346 
L 70.338938 293.246182 
L 70.838906 292.72968 
L 71.62457 291.890122 
L 74.910074 288.139313 
L 75.19577 287.691029 
L 75.267194 287.673812 
L 75.55289 287.160397 
L 75.624314 287.174202 
L 75.838586 286.7891 
L 76.98137 285.249666 
L 77.195642 284.925634 
L 77.909882 283.824901 
L 78.338426 283.142891 
L 78.481274 282.94425 
L 79.48121 281.407901 
L 79.624058 281.147051 
L 80.338298 279.950327 
L 80.481146 279.746163 
L 80.766842 279.232585 
L 80.838266 279.20075 
L 81.26681 278.403096 
L 81.481082 278.105052 
L 82.195322 276.790247 
L 82.266746 276.774167 
L 82.481018 276.29616 
L 87.623546 266.477108 
L 87.980666 265.722008 
L 88.05209 265.747509 
L 88.337786 265.110165 
L 88.40921 265.112277 
L 88.623482 264.410452 
L 88.76633 264.310725 
L 89.551994 262.489001 
L 89.623418 262.52181 
L 90.694778 260.11683 
L 90.837626 259.964153 
L 94.051706 252.933722 
L 94.12313 252.923165 
L 94.623098 251.759412 
L 94.694522 251.668618 
L 94.980218 250.881197 
L 95.051642 250.821101 
L 95.408762 249.959128 
L 95.55161 249.697141 
L 95.837306 249.14848 
L 96.194426 248.087703 
L 96.480122 247.545539 
L 97.765754 244.791514 
L 98.40857 243.08446 
L 99.051386 241.839009 
L 100.337018 238.890727 
L 101.62265 235.943907 
L 111.907706 212.733496 
L 113.193338 209.629451 
L 116.407418 202.832908 
L 117.050234 201.22818 
L 117.69305 199.989551 
L 118.335866 198.460024 
L 119.621498 195.897656 
L 122.192762 190.594095 
L 124.12121 186.696945 
L 124.764026 185.055347 
L 127.33529 180.3443 
L 130.54937 174.061822 
L 131.835002 171.899175 
L 133.120634 169.424677 
L 133.76345 168.478895 
L 134.406266 167.265928 
L 135.049082 166.315436 
L 135.691898 164.959863 
L 137.620346 161.932481 
L 139.548794 158.604295 
L 140.19161 157.716659 
L 140.834426 156.579056 
L 141.477242 155.719357 
L 142.120058 154.353064 
L 142.762874 153.773706 
L 144.691322 150.788716 
L 145.334138 150.025334 
L 145.976954 148.837218 
L 146.61977 148.007242 
L 147.262586 146.975051 
L 147.905402 146.331373 
L 149.191034 144.383935 
L 149.83385 143.914048 
L 150.476666 142.8445 
L 151.119482 142.245651 
L 151.762298 141.203714 
L 154.976378 137.090868 
L 155.619194 136.589146 
L 156.26201 135.721976 
L 156.904826 135.213758 
L 157.547642 134.197322 
L 158.190458 133.694464 
L 158.833274 132.739586 
L 159.47609 132.254269 
L 162.69017 129.049198 
L 163.975802 127.641 
L 164.618618 127.239331 
L 165.90425 125.991119 
L 166.547066 125.531628 
L 167.189882 124.780426 
L 167.832698 124.201068 
L 168.475514 123.804596 
L 173.618042 119.453801 
L 174.260858 119.144062 
L 174.903674 118.620739 
L 176.832122 117.395916 
L 178.117754 116.421222 
L 179.403386 115.69812 
L 180.689018 115.023582 
L 181.97465 113.987006 
L 182.617466 113.85723 
L 184.545914 112.61584 
L 185.18873 112.650436 
L 185.831546 112.051911 
L 188.40281 110.693252 
L 189.688442 110.283949 
L 190.974074 109.428473 
L 191.61689 109.243962 
L 192.259706 108.926265 
L 192.902522 108.809321 
L 194.188154 108.271867 
L 195.473786 107.672043 
L 196.116602 107.618444 
L 199.973498 106.012741 
L 201.25913 105.692445 
L 201.901946 105.47415 
L 202.544762 105.470252 
L 203.187578 105.080602 
L 207.044474 104.10672 
L 208.330106 103.652264 
L 210.258554 103.433319 
L 210.90137 103.162887 
L 212.187002 102.909509 
L 212.829818 102.869878 
L 214.11545 102.354838 
L 215.401082 102.311147 
L 216.043898 102.119002 
L 216.686714 102.119326 
L 217.32953 101.806015 
L 217.972346 101.875531 
L 218.615162 101.745269 
L 219.257978 101.795944 
L 219.900794 101.448362 
L 220.54361 101.400772 
L 221.186426 101.22227 
L 222.472058 101.231041 
L 223.114874 100.942905 
L 225.043322 100.672797 
L 225.686138 100.750597 
L 226.328954 100.44898 
L 226.97177 100.427053 
L 227.614586 100.265281 
L 228.257402 100.447843 
L 229.543034 100.127872 
L 230.828666 100.10026 
L 232.757114 99.825605 
L 233.39993 99.932153 
L 234.042746 99.914287 
L 235.328378 99.579536 
L 236.61401 99.624202 
L 240.470906 99.364976 
L 242.399354 99.108187 
L 243.684986 99.203691 
L 244.327802 99.025677 
L 245.613434 99.113872 
L 248.184698 98.785455 
L 248.827514 98.947877 
L 249.47033 98.750534 
L 250.755962 98.952425 
L 251.398778 98.671435 
L 252.68441 98.67712 
L 253.327226 98.905322 
L 253.970042 98.52493 
L 254.612858 98.712528 
L 255.255674 98.630829 
L 255.89849 98.754108 
L 257.184122 98.540848 
L 257.826938 98.324989 
L 258.469754 98.553517 
L 259.11257 98.360559 
L 261.683834 98.493583 
L 262.32665 98.33311 
L 263.612282 98.476853 
L 264.897914 98.29689 
L 265.54073 98.3539 
L 266.826362 98.091914 
L 267.469178 98.339769 
L 268.111994 98.260507 
L 269.397626 98.344317 
L 270.040442 98.191316 
L 270.683258 98.352438 
L 271.96889 98.079245 
L 272.611706 98.298189 
L 273.254522 98.309884 
L 274.540154 98.165653 
L 275.18297 98.097111 
L 277.111418 98.199599 
L 278.39705 97.89246 
L 279.682682 98.243616 
L 280.325498 97.944435 
L 280.968314 98.251412 
L 281.61113 98.027595 
L 282.253946 98.246702 
L 282.896762 98.191153 
L 283.539578 97.95288 
L 286.753658 98.298352 
L 287.396474 98.042537 
L 289.324922 98.118064 
L 291.25337 98.00112 
L 292.539002 97.860625 
L 293.181818 98.16273 
L 293.824634 97.915199 
L 295.110266 98.165653 
L 295.753082 98.217628 
L 296.395898 97.949957 
L 297.038714 98.053907 
L 298.324346 97.914711 
L 302.181242 98.030518 
L 302.824058 98.218603 
L 304.10969 98.051308 
L 304.752506 97.944759 
L 305.395322 98.083468 
L 306.038138 97.957591 
L 306.680954 98.161105 
L 307.32377 97.982116 
L 308.609402 98.190991 
L 309.252218 98.078433 
L 309.895034 98.142427 
L 311.180666 97.749041 
L 311.823482 98.002094 
L 314.394746 98.034091 
L 315.037562 98.129595 
L 315.680378 97.840809 
L 316.323194 98.106856 
L 316.96601 97.871345 
L 318.251642 98.09906 
L 318.894458 97.877842 
L 319.537274 97.878654 
L 320.18009 98.093213 
L 320.822906 97.891647 
L 322.751354 98.021098 
L 324.679801 97.914549 
L 325.322618 98.075671 
L 325.965434 98.025808 
L 326.60825 97.808325 
L 328.536698 97.923807 
L 329.179514 97.833338 
L 331.107962 97.960839 
L 332.393594 98.0172 
L 333.03641 97.899281 
L 333.679226 98.030193 
L 334.964858 97.83009 
L 336.25049 98.079245 
L 338.178938 98.003394 
L 339.46457 98.067875 
L 340.107386 97.810274 
L 340.750202 97.987964 
L 342.035834 97.862574 
L 342.67865 97.851204 
L 343.321466 98.029381 
L 343.964282 97.906753 
L 344.607098 97.955317 
L 345.249914 97.824242 
L 345.89273 97.827166 
L 346.535546 97.997059 
L 347.821178 97.881577 
L 349.10681 98.221851 
L 349.749626 97.988776 
L 350.392442 97.892297 
L 351.035258 98.071936 
L 351.678074 97.78786 
L 352.32089 98.028244 
L 352.963706 97.890348 
L 353.606522 98.007129 
L 354.249338 97.757974 
L 355.53497 98.035066 
L 356.177786 97.755213 
L 357.463418 97.966199 
L 358.106234 98.055856 
L 358.74905 97.746117 
L 360.034682 97.930466 
L 362.605946 97.78315 
L 363.248762 97.968473 
L 364.534394 97.83009 
L 366.462842 97.93274 
L 367.105658 97.731824 
L 369.034106 97.793057 
L 369.676922 97.685534 
L 371.60537 97.890835 
L 372.248186 97.712496 
L 374.81945 97.852829 
L 375.462266 97.643792 
L 376.747898 97.763172 
L 377.390714 97.46529 
L 378.676346 97.615205 
L 380.604794 97.518402 
L 381.24761 97.642817 
L 381.890426 97.399347 
L 382.533242 97.5746 
L 384.46169 97.601237 
L 386.390138 97.287276 
L 387.67577 97.436704 
L 389.604218 97.253005 
L 391.532666 97.380668 
L 392.818298 97.175529 
L 393.461114 97.195832 
L 394.10393 97.022853 
L 395.389562 97.085223 
L 396.032378 97.257552 
L 396.675194 97.234164 
L 398.603642 96.836068 
L 401.817722 96.882683 
L 405.674618 96.5096 
L 406.317434 96.712465 
L 407.603066 96.564986 
L 408.245882 96.457137 
L 409.531514 96.47809 
L 410.17433 96.207333 
L 414.674042 95.893534 
L 415.316858 96.068462 
L 415.959674 95.736959 
L 416.60249 95.723478 
L 417.245306 95.824342 
L 418.530938 95.647952 
L 418.530938 95.647952 
" clip-path="url(#p37e3121db0)" style="fill: none; stroke: #d62728; stroke-width: 1.5; stroke-linecap: square"/>
   </g>
   <g id="line2d_27">
    <path d="M 61.410938 297.54825 
L 63.196538 297.446411 
L 64.696442 297.179227 
L 65.410682 297.026551 
L 65.767802 296.916591 
L 66.98201 296.520444 
L 67.624826 296.243515 
L 68.339066 295.951643 
L 68.839034 295.697453 
L 69.12473 295.579372 
L 69.553274 295.332328 
L 69.910394 295.162922 
L 70.124666 295.042568 
L 70.696058 294.693848 
L 70.981754 294.503165 
L 71.338874 294.296889 
L 71.553146 294.155095 
L 71.695994 294.071447 
L 72.624506 293.432967 
L 72.981626 293.144018 
L 73.195898 293.027724 
L 73.41017 292.804394 
L 73.624442 292.672995 
L 73.981562 292.348314 
L 74.48153 291.972469 
L 74.83865 291.605234 
L 75.052922 291.509892 
L 75.410042 291.167182 
L 75.838586 290.800271 
L 76.052858 290.551278 
L 76.338554 290.338018 
L 76.62425 289.982314 
L 77.69561 288.983907 
L 78.124154 288.486571 
L 78.195578 288.490307 
L 78.481274 288.200546 
L 78.838394 287.811383 
L 79.12409 287.428393 
L 79.624058 286.920499 
L 79.83833 286.663386 
L 79.909754 286.693271 
L 80.409722 286.028803 
L 83.195258 282.555087 
L 83.480954 282.183465 
L 83.623802 282.078216 
L 83.76665 281.826625 
L 83.980922 281.572434 
L 84.552314 280.685936 
L 84.623738 280.670181 
L 84.83801 280.302295 
L 84.909434 280.418752 
L 85.123706 279.969006 
L 85.266554 279.766466 
L 85.695098 279.298853 
L 85.90937 278.926744 
L 87.69497 276.171095 
L 88.05209 275.670673 
L 88.123514 275.695361 
L 88.980602 274.196207 
L 89.052026 274.173468 
L 89.409146 273.502016 
L 89.551994 273.467096 
L 89.83769 272.883026 
L 89.980538 272.680324 
L 90.051962 272.471287 
L 90.123386 272.496625 
L 90.19481 272.494676 
L 90.409082 272.000913 
L 90.837626 271.224049 
L 90.980474 271.112628 
L 91.26617 270.646965 
L 91.480442 270.19933 
L 91.551866 269.943353 
L 91.62329 269.973726 
L 91.694714 269.897388 
L 91.766138 269.579366 
L 91.837562 269.651968 
L 92.480378 268.456706 
L 92.551802 268.515015 
L 92.980346 267.534312 
L 93.05177 267.623319 
L 93.266042 267.124196 
L 93.337466 267.103894 
L 93.694586 266.341323 
L 93.76601 266.365686 
L 93.837434 266.017779 
L 93.908858 266.152589 
L 94.265978 265.411295 
L 94.337402 265.394728 
L 94.551674 264.925167 
L 96.26585 261.772233 
L 96.337274 261.907531 
L 96.62297 261.131641 
L 97.051514 260.381415 
L 97.122938 260.148015 
L 97.122938 260.182286 
L 97.765754 259.046307 
L 98.40857 257.594418 
L 99.051386 256.536889 
L 108.05081 238.444067 
L 127.978106 196.086716 
L 129.906554 192.237804 
L 131.192186 189.35108 
L 132.477818 187.000511 
L 133.76345 184.348649 
L 135.049082 181.8264 
L 135.691898 180.754578 
L 137.620346 176.665932 
L 138.263162 175.777484 
L 142.762874 167.186991 
L 143.40569 166.277916 
L 144.048506 164.864683 
L 144.691322 164.112508 
L 145.334138 162.832136 
L 146.61977 160.730884 
L 149.83385 155.260678 
L 153.04793 150.445681 
L 155.619194 146.481451 
L 156.26201 145.589267 
L 156.904826 144.992854 
L 157.547642 143.78606 
L 158.190458 143.108436 
L 158.833274 142.079493 
L 160.118906 140.532912 
L 160.761722 139.333914 
L 164.618618 134.844573 
L 166.547066 132.522265 
L 167.189882 131.789418 
L 167.832698 130.694044 
L 168.475514 130.483058 
L 169.11833 129.422444 
L 170.403962 128.321386 
L 171.046778 127.652857 
L 171.689594 126.815085 
L 173.618042 124.988164 
L 174.260858 124.516004 
L 174.903674 123.782994 
L 175.54649 123.373853 
L 176.189306 122.714258 
L 176.832122 122.285789 
L 177.474938 121.540272 
L 178.117754 121.148024 
L 180.689018 118.822792 
L 181.331834 118.53027 
L 181.97465 118.046253 
L 182.617466 117.399327 
L 183.260282 117.089751 
L 184.545914 116.112296 
L 185.18873 115.399264 
L 187.759994 114.074551 
L 189.045626 113.298499 
L 189.688442 112.677236 
L 190.974074 112.107135 
L 191.61689 111.681427 
L 192.902522 111.060488 
L 193.545338 110.589627 
L 196.116602 109.403785 
L 198.04505 108.439162 
L 198.687866 108.215182 
L 199.330682 107.789474 
L 201.25913 107.126793 
L 201.901946 106.755172 
L 204.47321 105.87387 
L 205.116026 105.532785 
L 206.401658 105.168797 
L 208.330106 104.633779 
L 209.615738 104.359286 
L 210.258554 104.06043 
L 210.90137 104.037366 
L 211.544186 103.662334 
L 214.758266 102.808482 
L 215.401082 102.85461 
L 216.043898 102.460087 
L 216.686714 102.468371 
L 217.32953 102.16448 
L 217.972346 102.03373 
L 218.615162 102.147425 
L 219.900794 101.891773 
L 220.54361 101.656424 
L 221.186426 101.758912 
L 221.829242 101.436018 
L 223.75769 101.217235 
L 225.043322 100.927962 
L 225.686138 100.672797 
L 226.328954 100.884595 
L 233.39993 99.877742 
L 234.042746 99.927118 
L 234.685562 99.864099 
L 235.328378 99.630211 
L 235.971194 99.773142 
L 236.61401 99.583271 
L 237.899642 99.614294 
L 239.185274 99.442776 
L 242.399354 99.255179 
L 243.04217 99.205153 
L 243.684986 98.993842 
L 244.970618 99.298871 
L 246.25625 98.810143 
L 246.899066 98.801697 
L 247.541882 99.03997 
L 248.184698 98.656979 
L 250.113146 98.892978 
L 251.398778 98.61475 
L 252.041594 98.448267 
L 252.68441 98.770187 
L 257.184122 98.523631 
L 257.826938 98.454926 
L 258.469754 98.507551 
L 259.11257 98.410748 
L 260.398202 98.405388 
L 261.683834 98.493583 
L 262.32665 98.210482 
L 262.969466 98.470032 
L 263.612282 98.269603 
L 264.897914 98.334085 
L 265.54073 98.36527 
L 266.183546 98.223963 
L 266.826362 98.314594 
L 268.111994 98.233545 
L 268.75481 98.440796 
L 269.397626 98.106044 
L 270.683258 98.322553 
L 271.326074 98.055531 
L 271.96889 98.449567 
L 272.611706 98.252062 
L 273.254522 98.260183 
L 273.897338 98.061053 
L 274.540154 98.134793 
L 275.18297 98.095974 
L 275.825786 98.241991 
L 276.468602 98.02191 
L 277.111418 98.157694 
L 278.39705 98.045299 
L 279.039866 98.258234 
L 279.682682 98.178647 
L 280.325498 97.926893 
L 285.468026 98.1983 
L 286.110842 98.085417 
L 287.396474 98.014926 
L 288.682106 97.965225 
L 291.25337 98.241991 
L 293.181818 98.037827 
L 295.110266 98.090127 
L 301.538426 98.036203 
L 302.181242 98.120662 
L 302.824058 98.055044 
L 303.466874 98.110755 
L 304.10969 97.965225 
L 304.752506 98.198462 
L 305.395322 97.957428 
L 307.32377 98.011515 
L 309.252218 98.106694 
L 309.895034 97.814172 
L 311.180666 98.095 
L 311.823482 97.947683 
L 316.96601 97.943622 
L 317.608826 97.823268 
L 318.251642 98.051308 
L 320.822906 97.977569 
L 321.465722 98.021585 
L 322.751354 97.921208 
L 323.39417 98.138691 
L 326.60825 97.927705 
L 327.251066 98.074047 
L 327.893882 97.927543 
L 328.536698 97.997871 
L 329.179514 97.914386 
L 329.82233 98.004368 
L 331.107962 97.863873 
L 332.393594 98.067875 
L 333.03641 97.916173 
L 334.322042 97.952556 
L 335.607674 98.010378 
L 336.25049 97.878654 
L 336.893306 98.028244 
L 337.536122 97.804752 
L 338.178938 98.033604 
L 338.821754 97.889698 
L 341.393018 98.085742 
L 342.035834 97.841459 
L 344.607098 98.047572 
L 345.249914 97.726464 
L 346.535546 98.066576 
L 347.821178 97.911463 
L 348.463994 98.024021 
L 349.10681 97.861762 
L 349.749626 97.980817 
L 350.392442 97.946221 
L 351.035258 97.763497 
L 352.32089 97.976756 
L 352.963706 97.870857 
L 353.606522 97.944272 
L 354.249338 97.788347 
L 354.892154 97.862574 
L 355.53497 98.091101 
L 356.177786 97.832363 
L 356.820602 98.099385 
L 358.106234 97.90659 
L 360.677498 97.886775 
L 361.96313 97.792895 
L 362.605946 98.010703 
L 363.248762 97.820019 
L 366.462842 97.89652 
L 367.105658 97.763984 
L 367.748474 97.906915 
L 369.034106 97.604973 
L 369.676922 97.831876 
L 371.60537 97.637295 
L 372.248186 97.84016 
L 372.891002 97.85965 
L 374.176634 97.643629 
L 376.105082 97.821156 
L 376.747898 97.583858 
L 377.390714 97.688782 
L 378.03353 97.680499 
L 378.676346 97.788185 
L 379.961978 97.476172 
L 383.176058 97.544552 
L 383.818874 97.648339 
L 384.46169 97.439627 
L 385.104506 97.456357 
L 387.032954 97.249269 
L 388.318586 97.284677 
L 388.961402 97.256903 
L 389.604218 97.37141 
L 390.247034 97.163348 
L 390.88985 97.147593 
L 391.532666 97.020416 
L 392.818298 97.219546 
L 394.10393 97.192746 
L 394.746746 96.978024 
L 395.389562 96.891616 
L 396.032378 97.18024 
L 396.675194 96.891129 
L 397.31801 97.145481 
L 397.960826 96.888855 
L 399.889274 96.908183 
L 400.53209 96.885444 
L 401.174906 96.749334 
L 403.103354 96.725296 
L 403.74617 96.521294 
L 404.388986 96.632228 
L 407.603066 96.348315 
L 408.245882 96.456325 
L 408.888698 96.420755 
L 409.531514 96.254597 
L 411.459962 96.171112 
L 412.102778 96.282047 
L 412.745594 96.016974 
L 413.38841 96.01535 
L 414.031226 96.144963 
L 415.959674 95.870957 
L 417.888122 95.643079 
L 418.530938 95.69749 
L 418.530938 95.69749 
" clip-path="url(#p37e3121db0)" style="fill: none; stroke: #9467bd; stroke-width: 1.5; stroke-linecap: square"/>
   </g>
   <g id="line2d_28">
    <path d="M 61.410938 297.54825 
L 63.267962 297.436016 
L 64.339322 297.261738 
L 65.55353 297.000401 
L 65.982074 296.868839 
L 66.696314 296.667274 
L 67.196282 296.468632 
L 68.76761 295.804326 
L 68.910458 295.760797 
L 69.196154 295.632971 
L 69.624698 295.408017 
L 70.55321 294.913117 
L 70.767482 294.779119 
L 70.981754 294.695797 
L 71.410298 294.438846 
L 72.053114 294.001119 
L 72.195962 293.934526 
L 72.410234 293.795005 
L 72.838778 293.523111 
L 73.195898 293.297832 
L 73.695866 292.945701 
L 73.838714 292.839315 
L 75.767162 291.384015 
L 76.052858 291.135672 
L 76.26713 290.918189 
L 78.624122 288.917152 
L 78.76697 288.684888 
L 78.838394 288.690735 
L 79.052666 288.417379 
L 79.195514 288.266002 
L 79.552634 287.974617 
L 79.624058 287.967796 
L 79.981178 287.468348 
L 80.052602 287.519999 
L 80.266874 287.244856 
L 81.123962 286.302809 
L 81.195386 286.328309 
L 81.481082 285.911535 
L 81.62393 285.850951 
L 81.98105 285.415011 
L 82.052474 285.444085 
L 82.33817 284.979071 
L 82.838138 284.514219 
L 83.123834 284.129442 
L 83.40953 283.872978 
L 83.623802 283.495997 
L 83.76665 283.46871 
L 83.980922 283.131847 
L 84.12377 283.04219 
L 84.338042 282.817073 
L 84.695162 282.311941 
L 85.19513 281.660954 
L 85.409402 281.544823 
L 85.55225 281.236221 
L 85.623674 281.273578 
L 85.980794 280.762761 
L 88.266362 277.829747 
L 88.337786 277.509451 
L 88.40921 277.618274 
L 88.552058 277.426616 
L 88.980602 276.766209 
L 89.052026 276.780339 
L 89.623418 275.982686 
L 89.766266 275.847551 
L 91.123322 273.914081 
L 91.409018 273.478952 
L 91.62329 273.046748 
L 91.694714 273.072086 
L 92.480378 271.923113 
L 92.623226 271.634002 
L 92.837498 271.372828 
L 93.05177 271.01014 
L 93.337466 270.663694 
L 93.551738 270.203878 
L 93.694586 270.054774 
L 95.19449 267.70924 
L 95.337338 267.662463 
L 95.55161 267.219863 
L 96.194426 266.285287 
L 96.408698 265.732403 
L 96.480122 265.70804 
L 96.62297 265.372639 
L 96.694394 265.565759 
L 97.122938 264.698588 
L 104.193914 252.67206 
L 106.765178 247.908227 
L 107.407994 246.767376 
L 108.05081 245.393124 
L 108.693626 244.514909 
L 109.979258 241.898455 
L 113.193338 235.690366 
L 113.836154 234.339016 
L 115.121786 232.081677 
L 117.69305 226.721917 
L 121.549946 219.146074 
L 123.478394 215.047845 
L 135.691898 190.298812 
L 136.334714 189.209936 
L 138.263162 185.343321 
L 140.19161 181.697112 
L 141.477242 179.220503 
L 147.262586 168.482631 
L 147.905402 167.445729 
L 149.191034 165.082004 
L 151.119482 161.587984 
L 152.405114 159.584186 
L 153.04793 158.462338 
L 153.690746 157.577626 
L 154.976378 155.148607 
L 158.833274 149.105376 
L 159.47609 148.356124 
L 161.404538 145.4439 
L 167.832698 136.531324 
L 169.761146 134.3997 
L 170.403962 133.347531 
L 172.33241 131.324566 
L 172.975226 130.350035 
L 173.618042 129.77766 
L 175.54649 127.473544 
L 176.189306 127.087954 
L 177.474938 125.504503 
L 178.76057 124.389639 
L 180.046202 122.947171 
L 181.331834 121.884932 
L 181.97465 121.439571 
L 182.617466 120.631522 
L 184.545914 119.207082 
L 185.18873 118.464977 
L 185.831546 118.03261 
L 186.474362 117.435222 
L 187.759994 116.471898 
L 190.331258 114.598361 
L 190.974074 114.410764 
L 191.61689 113.706178 
L 192.259706 113.252209 
L 192.902522 113.014748 
L 193.545338 112.531868 
L 194.188154 112.286611 
L 196.759418 110.702835 
L 199.973498 108.943969 
L 200.616314 108.420321 
L 201.25913 108.362986 
L 203.187578 107.500363 
L 203.830394 107.071894 
L 205.116026 106.473532 
L 205.758842 106.443809 
L 206.401658 105.917562 
L 207.044474 106.058707 
L 208.330106 105.341776 
L 209.615738 105.003776 
L 210.258554 104.574333 
L 211.544186 104.245754 
L 212.187002 104.338009 
L 212.829818 103.859352 
L 214.11545 103.515667 
L 216.043898 102.912108 
L 216.686714 102.759756 
L 217.972346 102.633554 
L 219.257978 102.058905 
L 219.900794 102.105521 
L 220.54361 101.877643 
L 221.829242 101.755826 
L 223.114874 101.202617 
L 223.75769 101.255404 
L 225.686138 100.896127 
L 226.328954 100.928449 
L 226.97177 100.822063 
L 227.614586 100.866729 
L 228.900218 100.421531 
L 229.543034 100.43891 
L 230.18585 100.258297 
L 232.757114 100.104808 
L 233.39993 99.89707 
L 234.685562 99.923383 
L 235.328378 99.732212 
L 235.971194 99.810499 
L 236.61401 99.732537 
L 237.256826 99.498325 
L 237.899642 99.582946 
L 238.542458 99.46048 
L 239.185274 99.55907 
L 240.470906 99.344836 
L 241.756538 99.289288 
L 242.399354 99.15464 
L 243.684986 99.103802 
L 244.327802 98.96282 
L 244.970618 99.010897 
L 245.613434 98.719837 
L 246.25625 99.055075 
L 246.899066 98.892653 
L 247.541882 98.982148 
L 248.827514 98.672572 
L 249.47033 98.838405 
L 250.113146 98.719187 
L 251.398778 98.730719 
L 252.041594 98.544421 
L 252.68441 98.554004 
L 253.327226 98.747286 
L 253.970042 98.542634 
L 254.612858 98.621896 
L 255.89849 98.404901 
L 256.541306 98.649345 
L 260.398202 98.207396 
L 262.32665 98.445344 
L 263.612282 98.39012 
L 264.255098 98.155583 
L 264.897914 98.362021 
L 268.111994 98.291205 
L 268.75481 98.166628 
L 269.397626 98.272527 
L 270.683258 98.113353 
L 271.326074 98.259533 
L 271.96889 98.136092 
L 272.611706 98.270578 
L 273.897338 98.192778 
L 274.540154 98.238093 
L 275.18297 98.067225 
L 277.754234 98.048872 
L 278.39705 98.046598 
L 279.039866 98.194077 
L 279.682682 98.003394 
L 280.325498 98.214867 
L 280.968314 97.959865 
L 281.61113 98.246377 
L 282.253946 97.952393 
L 283.539578 98.087691 
L 284.182394 98.130245 
L 284.82521 98.020773 
L 285.468026 98.212268 
L 287.396474 97.901068 
L 288.03929 98.212755 
L 288.682106 98.068525 
L 289.324922 98.158994 
L 290.610554 97.949307 
L 291.896186 98.174911 
L 292.539002 98.081356 
L 293.181818 97.871182 
L 293.824634 98.064139 
L 294.46745 98.120825 
L 295.110266 97.992024 
L 295.753082 98.154284 
L 296.395898 98.127322 
L 297.68153 97.86631 
L 298.324346 97.947845 
L 298.967162 97.870208 
L 299.609978 98.140803 
L 300.89561 97.88044 
L 301.538426 97.99641 
L 302.181242 97.856564 
L 302.824058 98.127971 
L 303.466874 97.888561 
L 304.10969 98.074372 
L 304.752506 98.139016 
L 305.395322 97.86095 
L 306.038138 98.109293 
L 307.32377 97.887424 
L 307.966586 97.914711 
L 308.609402 98.061703 
L 310.53785 97.871832 
L 311.180666 98.093538 
L 314.394746 98.121312 
L 315.037562 97.977893 
L 315.680378 98.057967 
L 316.96601 97.966849 
L 318.251642 98.019636 
L 318.894458 97.878329 
L 320.18009 97.986664 
L 325.322618 97.956779 
L 326.60825 98.106694 
L 327.893882 97.814172 
L 328.536698 98.081031 
L 329.179514 97.889374 
L 331.750778 98.026945 
L 332.393594 97.955966 
L 333.03641 98.062353 
L 334.964858 97.872969 
L 335.607674 97.99641 
L 336.25049 97.857864 
L 337.536122 98.199599 
L 338.178938 97.962139 
L 338.821754 98.145513 
L 340.750202 97.823105 
L 341.393018 98.007454 
L 345.249914 97.954342 
L 345.89273 98.051633 
L 346.535546 97.845357 
L 347.178362 98.095649 
L 348.463994 97.937775 
L 350.392442 98.045461 
L 351.035258 97.765121 
L 352.963706 97.972209 
L 353.606522 97.790783 
L 354.249338 97.764796 
L 354.892154 98.148274 
L 355.53497 97.833663 
L 358.106234 97.973183 
L 358.74905 97.824405 
L 359.391866 97.852666 
L 360.034682 97.693818 
L 361.320314 98.108318 
L 361.96313 97.753914 
L 362.605946 97.770156 
L 363.248762 98.003231 
L 363.891578 97.800529 
L 365.820026 97.758461 
L 366.462842 97.830414 
L 367.748474 97.777302 
L 369.676922 97.70876 
L 370.319738 97.818233 
L 370.962554 97.710872 
L 371.60537 97.748879 
L 372.248186 97.64103 
L 372.891002 97.805239 
L 373.533818 97.690082 
L 374.81945 97.675301 
L 376.105082 97.513042 
L 378.676346 97.760086 
L 379.961978 97.703076 
L 380.604794 97.406818 
L 382.533242 97.430532 
L 383.176058 97.286951 
L 383.818874 97.459443 
L 384.46169 97.373034 
L 385.104506 97.484618 
L 386.390138 97.395611 
L 387.032954 97.560469 
L 387.67577 97.286788 
L 388.318586 97.256578 
L 388.961402 97.397885 
L 389.604218 97.287113 
L 390.247034 97.367837 
L 391.532666 97.026264 
L 392.818298 97.16416 
L 394.10393 97.170494 
L 394.746746 96.902498 
L 395.389562 96.921664 
L 396.032378 97.086522 
L 396.675194 96.814628 
L 397.960826 96.915005 
L 398.603642 96.818201 
L 399.246458 96.912893 
L 400.53209 96.698984 
L 401.174906 96.63304 
L 401.817722 96.872613 
L 402.460538 96.731793 
L 403.103354 96.75843 
L 404.388986 96.548906 
L 405.031802 96.625406 
L 405.674618 96.468345 
L 406.317434 96.592435 
L 406.96025 96.283021 
L 408.245882 96.343442 
L 408.888698 96.482638 
L 410.817146 96.137816 
L 411.459962 96.281884 
L 412.745594 96.150972 
L 414.674042 96.02006 
L 417.245306 95.877291 
L 417.888122 95.670366 
L 418.530938 95.61498 
L 418.530938 95.61498 
" clip-path="url(#p37e3121db0)" style="fill: none; stroke: #8c564b; stroke-width: 1.5; stroke-linecap: square"/>
   </g>
   <g id="line2d_29">
    <path d="M 61.410938 297.54825 
L 63.196538 297.439915 
L 64.053626 297.312901 
L 64.767866 297.1854 
L 68.76761 295.835836 
L 68.981882 295.722791 
L 69.196154 295.626962 
L 69.696122 295.395186 
L 69.981818 295.263786 
L 70.19609 295.089995 
L 70.410362 295.020478 
L 70.91033 294.74631 
L 71.838842 294.216977 
L 72.053114 294.062189 
L 72.33881 293.91601 
L 72.624506 293.694629 
L 73.05305 293.41705 
L 73.481594 293.12534 
L 73.76729 292.947326 
L 74.12441 292.619558 
L 74.267258 292.574567 
L 74.624378 292.307871 
L 74.83865 292.151458 
L 77.767034 289.762233 
L 77.838458 289.796341 
L 78.05273 289.526558 
L 78.40985 289.182224 
L 78.76697 288.784128 
L 78.838394 288.826683 
L 79.195514 288.436708 
L 79.338362 288.341204 
L 80.409722 287.325092 
L 80.481146 287.339223 
L 80.766842 286.910592 
L 80.90969 286.83604 
L 81.123962 286.538646 
L 81.195386 286.565283 
L 81.409658 286.332532 
L 82.552442 285.144416 
L 82.69529 285.00652 
L 83.123834 284.476213 
L 83.195258 284.593644 
L 83.480954 284.187102 
L 84.195194 283.399843 
L 84.409466 283.156697 
L 84.48089 283.160595 
L 85.123706 282.288065 
L 85.266554 282.128404 
L 85.480826 281.895654 
L 85.766522 281.554568 
L 86.695034 280.505485 
L 86.909306 280.199807 
L 86.98073 280.012372 
L 87.052154 280.046318 
L 87.123578 280.048267 
L 87.266426 279.833221 
L 87.33785 279.832734 
L 87.837818 279.107682 
L 87.909242 279.140329 
L 88.123514 278.729402 
L 88.552058 278.131852 
L 88.623482 278.311003 
L 88.837754 277.87019 
L 88.909178 277.904948 
L 89.337722 277.197764 
L 89.409146 277.257372 
L 89.623418 276.90378 
L 90.90905 275.334785 
L 91.123322 275.01725 
L 91.194746 274.97502 
L 91.409018 274.628087 
L 93.05177 272.465115 
L 93.123194 272.508806 
L 93.40889 271.909307 
L 93.551738 271.906384 
L 93.623162 271.634002 
L 93.694586 271.725933 
L 94.051706 271.143163 
L 94.12313 271.129845 
L 94.408826 270.49445 
L 94.551674 270.469275 
L 94.765946 270.155963 
L 95.265914 269.352137 
L 95.337338 269.395991 
L 95.480186 269.127508 
L 95.55161 269.148623 
L 96.26585 268.045941 
L 96.337274 268.005335 
L 96.694394 267.359383 
L 96.837242 267.353861 
L 96.908666 267.008715 
L 96.98009 267.029342 
L 97.765754 265.916427 
L 99.694202 263.061863 
L 101.62265 260.361924 
L 103.551098 257.287278 
L 106.122362 253.604687 
L 107.407994 251.406144 
L 108.693626 249.531309 
L 109.979258 247.541803 
L 111.907706 244.463909 
L 112.550522 243.294958 
L 113.193338 242.568608 
L 116.407418 237.320107 
L 117.050234 236.125332 
L 117.69305 235.303802 
L 118.335866 234.25277 
L 118.978682 233.43189 
L 119.621498 232.156229 
L 127.33529 219.971989 
L 128.620922 217.987194 
L 131.835002 212.659432 
L 132.477818 211.901571 
L 133.120634 210.710531 
L 133.76345 209.883154 
L 135.049082 207.717096 
L 135.691898 206.990583 
L 136.97753 204.776936 
L 138.263162 202.89739 
L 147.262586 189.558168 
L 147.905402 188.754667 
L 148.548218 187.630058 
L 149.83385 186.054728 
L 154.333562 179.565 
L 156.26201 176.841835 
L 156.904826 176.235189 
L 158.190458 174.540317 
L 158.833274 173.481489 
L 159.47609 172.789409 
L 160.761722 171.077645 
L 161.404538 170.498449 
L 162.69017 168.73942 
L 163.332986 167.841714 
L 163.975802 167.169937 
L 165.261434 165.335382 
L 166.547066 164.004335 
L 167.189882 163.038737 
L 168.475514 161.688036 
L 169.11833 161.096496 
L 170.403962 159.267301 
L 171.046778 158.462175 
L 172.33241 157.279744 
L 172.975226 156.313496 
L 173.618042 155.741122 
L 174.903674 154.194053 
L 175.54649 153.580748 
L 176.189306 152.718126 
L 176.832122 152.089391 
L 177.474938 151.230179 
L 178.117754 150.831596 
L 178.76057 150.25646 
L 180.046202 148.611776 
L 181.331834 147.289662 
L 182.617466 145.854827 
L 184.545914 144.054543 
L 185.18873 143.230252 
L 185.831546 142.905733 
L 187.117178 141.395047 
L 187.759994 140.814227 
L 188.40281 140.408984 
L 189.688442 138.964404 
L 190.331258 138.372051 
L 190.974074 137.600385 
L 191.61689 137.062769 
L 192.259706 136.709176 
L 194.188154 134.568943 
L 194.83097 134.233055 
L 195.473786 133.696413 
L 197.402234 131.427704 
L 198.04505 131.171727 
L 198.687866 130.445214 
L 199.330682 129.947229 
L 199.973498 129.074861 
L 202.544762 126.699766 
L 204.47321 124.923358 
L 206.401658 122.829252 
L 207.044474 122.15374 
L 207.68729 121.889317 
L 211.544186 117.687138 
L 212.829818 116.707247 
L 213.472634 115.757566 
L 214.11545 115.42249 
L 214.758266 114.457704 
L 215.401082 114.087057 
L 219.257978 110.191206 
L 219.900794 109.795384 
L 220.54361 109.162264 
L 222.472058 107.666846 
L 223.75769 106.526644 
L 224.400506 106.104672 
L 225.043322 105.46473 
L 227.614586 103.944948 
L 228.900218 103.029701 
L 229.543034 102.527493 
L 230.18585 102.446119 
L 230.828666 101.933353 
L 232.114298 101.628975 
L 234.042746 100.862344 
L 234.685562 100.29208 
L 235.328378 100.457588 
L 235.971194 99.917535 
L 237.256826 99.928418 
L 239.82809 99.278405 
L 240.470906 99.35718 
L 241.113722 99.312514 
L 241.756538 99.040132 
L 242.399354 99.175592 
L 243.04217 99.111598 
L 244.327802 98.782369 
L 246.25625 98.777334 
L 246.899066 98.6651 
L 247.541882 98.775872 
L 253.970042 98.726171 
L 254.612858 98.80121 
L 255.255674 98.637001 
L 257.184122 98.724709 
L 257.826938 98.446643 
L 258.469754 98.653244 
L 259.755386 98.607441 
L 261.041018 98.621571 
L 261.683834 98.872188 
L 262.32665 98.630342 
L 263.612282 98.588925 
L 264.255098 98.775222 
L 264.897914 98.629692 
L 265.54073 98.630505 
L 266.183546 98.464509 
L 266.826362 98.773436 
L 267.469178 98.364133 
L 268.111994 98.519246 
L 268.75481 98.322715 
L 269.397626 98.550918 
L 270.683258 98.539873 
L 271.326074 98.66575 
L 271.96889 98.545558 
L 272.611706 98.625957 
L 273.254522 98.449729 
L 273.897338 98.455414 
L 274.540154 98.273501 
L 275.18297 98.486436 
L 275.825786 98.305986 
L 277.111418 98.474255 
L 277.754234 98.259371 
L 278.39705 98.448105 
L 279.682682 98.483188 
L 280.325498 98.206259 
L 280.968314 98.241179 
L 281.61113 98.442582 
L 282.253946 98.217141 
L 282.896762 98.279348 
L 283.539578 97.94817 
L 284.182394 98.112541 
L 284.82521 98.115302 
L 285.468026 98.317355 
L 286.110842 98.182545 
L 288.03929 98.259533 
L 289.324922 98.160456 
L 289.967738 98.108968 
L 290.610554 98.217303 
L 291.25337 98.011515 
L 291.896186 98.208532 
L 292.539002 97.989425 
L 294.46745 98.372579 
L 295.110266 97.981792 
L 300.89561 98.121312 
L 301.538426 97.963438 
L 302.824058 98.179297 
L 303.466874 97.905616 
L 306.680954 98.016387 
L 307.32377 98.153959 
L 307.966586 97.932415 
L 308.609402 97.846007 
L 309.252218 97.972046 
L 309.895034 97.812873 
L 311.180666 98.045299 
L 313.109114 98.04205 
L 313.75193 97.852991 
L 315.037562 97.975944 
L 315.680378 97.872157 
L 316.323194 98.104745 
L 317.608826 97.747254 
L 318.251642 98.048547 
L 319.537274 97.915848 
L 320.18009 97.979518 
L 320.822906 97.844058 
L 321.465722 97.99446 
L 322.751354 98.039939 
L 324.036986 97.877192 
L 324.679801 98.162242 
L 325.322618 98.010053 
L 325.965434 98.023372 
L 326.60825 97.818882 
L 327.251066 98.008591 
L 330.465146 98.003231 
L 332.393594 97.896195 
L 333.03641 98.195214 
L 333.679226 97.976269 
L 337.536122 98.071936 
L 338.178938 97.845357 
L 338.821754 97.892947 
L 339.46457 97.802965 
L 342.035834 97.969285 
L 342.67865 97.780226 
L 343.321466 98.0172 
L 349.749626 97.865985 
L 350.392442 97.830252 
L 351.678074 98.008916 
L 352.32089 97.831551 
L 352.963706 98.025808 
L 353.606522 98.035878 
L 354.249338 97.836099 
L 355.53497 98.066089 
L 356.820602 97.960352 
L 357.463418 98.035228 
L 360.677498 97.791108 
L 361.320314 97.885475 
L 361.96313 97.827653 
L 362.605946 97.961651 
L 367.105658 97.707623 
L 369.034106 97.747742 
L 369.676922 97.662633 
L 370.319738 97.878816 
L 371.60537 97.473086 
L 372.248186 97.857864 
L 372.891002 97.659547 
L 373.533818 97.660196 
L 374.176634 97.782013 
L 375.462266 97.629661 
L 376.105082 97.628686 
L 376.747898 97.434105 
L 378.03353 97.711197 
L 381.24761 97.513204 
L 381.890426 97.687483 
L 383.176058 97.354518 
L 383.818874 97.531233 
L 384.46169 97.371085 
L 387.032954 97.445475 
L 388.318586 97.283215 
L 394.10393 97.04007 
L 394.746746 97.281916 
L 395.389562 96.873425 
L 396.675194 97.050952 
L 397.31801 96.931409 
L 397.960826 97.08636 
L 398.603642 96.906071 
L 404.388986 96.689401 
L 405.031802 96.438459 
L 405.674618 96.595196 
L 406.317434 96.487185 
L 406.96025 96.625894 
L 408.888698 96.26954 
L 410.817146 96.240629 
L 412.102778 96.107281 
L 412.745594 96.1716 
L 413.38841 95.96305 
L 414.674042 96.011452 
L 415.959674 95.838472 
L 416.60249 95.728675 
L 417.245306 95.814434 
L 417.888122 95.60491 
L 418.530938 95.666793 
L 418.530938 95.666793 
" clip-path="url(#p37e3121db0)" style="fill: none; stroke: #e377c2; stroke-width: 1.5; stroke-linecap: square"/>
   </g>
   <g id="line2d_30">
    <path d="M 61.410938 297.54825 
L 63.267962 297.436341 
L 65.124986 297.091682 
L 65.55353 296.988869 
L 67.410554 296.382223 
L 69.83897 295.324695 
L 70.338938 295.040781 
L 70.55321 294.939917 
L 71.196026 294.588923 
L 71.410298 294.456387 
L 73.267322 293.296857 
L 73.338746 293.167407 
L 73.41017 293.213535 
L 74.83865 292.16835 
L 75.19577 291.882488 
L 75.767162 291.431117 
L 75.838586 291.436477 
L 76.052858 291.207625 
L 76.767098 290.59903 
L 76.838522 290.616247 
L 77.052794 290.380248 
L 77.124218 290.379436 
L 77.552762 289.88681 
L 78.267002 289.344484 
L 78.838394 288.791924 
L 79.12409 288.520842 
L 79.624058 287.968121 
L 79.766906 287.923779 
L 80.981114 286.717472 
L 81.481082 286.230369 
L 81.695354 286.043909 
L 81.909626 285.820579 
L 82.481018 285.185996 
L 84.552314 282.922972 
L 84.695162 282.656438 
L 84.766586 282.699642 
L 84.83801 282.728716 
L 85.480826 281.85781 
L 85.55225 281.899877 
L 85.695098 281.605893 
L 85.766522 281.624734 
L 86.052218 281.201138 
L 86.26649 281.07786 
L 86.409338 280.836338 
L 86.552186 280.652314 
L 87.980666 278.907579 
L 88.194938 278.718032 
L 90.266234 276.128053 
L 90.409082 275.893029 
L 90.766202 275.469432 
L 90.90905 275.302625 
L 90.980474 275.288494 
L 91.123322 274.946921 
L 91.194746 275.003769 
L 93.337466 271.999776 
L 93.40889 272.108437 
L 93.837434 271.370554 
L 93.980282 271.189291 
L 94.194554 270.863473 
L 94.551674 270.503708 
L 94.623098 270.154177 
L 94.694522 270.22954 
L 95.90873 268.608732 
L 96.123002 268.068192 
L 96.26585 268.021415 
L 96.337274 267.795324 
L 96.408698 267.938905 
L 97.122938 266.792206 
L 102.908282 258.520385 
L 104.193914 256.437487 
L 104.83673 255.637721 
L 105.479546 254.408025 
L 107.407994 251.473062 
L 109.336442 248.395168 
L 109.979258 247.6261 
L 111.26489 245.504221 
L 126.049658 222.060247 
L 126.692474 221.166927 
L 127.33529 219.954448 
L 127.978106 219.076557 
L 129.263738 216.816944 
L 129.906554 215.997364 
L 131.835002 212.62646 
L 132.477818 211.891663 
L 135.691898 206.841642 
L 136.334714 206.024173 
L 136.97753 204.808121 
L 137.620346 204.117015 
L 138.263162 202.750073 
L 138.905978 202.042726 
L 141.477242 198.085966 
L 142.120058 197.242834 
L 142.762874 196.07762 
L 144.691322 193.301505 
L 145.976954 191.479944 
L 149.191034 186.950972 
L 150.476666 184.998174 
L 157.547642 175.407325 
L 159.47609 172.915936 
L 160.118906 171.821375 
L 160.761722 170.979705 
L 161.404538 170.478308 
L 162.047354 169.496468 
L 162.69017 168.922469 
L 163.332986 167.813777 
L 164.618618 166.254202 
L 165.261434 165.263429 
L 165.90425 164.852014 
L 166.547066 163.622643 
L 167.832698 162.429979 
L 169.11833 160.865207 
L 171.046778 158.560116 
L 171.689594 157.936253 
L 172.33241 156.837794 
L 172.975226 156.408513 
L 173.618042 155.508696 
L 174.260858 155.012335 
L 176.189306 152.62587 
L 176.832122 152.169627 
L 177.474938 151.331855 
L 180.689018 148.094787 
L 181.331834 147.169795 
L 181.97465 146.677331 
L 183.260282 145.287163 
L 183.903098 144.898 
L 184.545914 144.017024 
L 185.18873 143.380492 
L 185.831546 143.038432 
L 186.474362 142.132605 
L 189.688442 139.267483 
L 190.331258 138.496142 
L 190.974074 137.945856 
L 191.61689 137.579595 
L 192.902522 136.422177 
L 194.188154 135.394858 
L 195.473786 134.206093 
L 196.116602 133.58889 
L 198.04505 132.33012 
L 198.687866 131.523046 
L 199.973498 130.654089 
L 201.25913 129.47653 
L 202.544762 128.683424 
L 203.187578 128.114298 
L 204.47321 127.365695 
L 206.401658 125.600657 
L 207.044474 125.419719 
L 207.68729 124.922383 
L 208.330106 124.612807 
L 208.972922 123.891654 
L 209.615738 123.497294 
L 210.258554 123.234333 
L 211.544186 122.181839 
L 212.187002 121.983847 
L 212.829818 121.437459 
L 213.472634 121.34228 
L 214.11545 120.5469 
L 214.758266 120.360115 
L 216.043898 119.374864 
L 217.32953 118.9628 
L 218.615162 117.924924 
L 219.257978 117.66716 
L 219.900794 117.119961 
L 221.186426 116.733884 
L 223.114874 115.590434 
L 224.400506 115.185679 
L 225.686138 114.209036 
L 226.97177 113.768548 
L 230.828666 111.922948 
L 231.471482 111.857655 
L 232.114298 111.38387 
L 234.042746 110.536028 
L 234.685562 110.075562 
L 235.971194 109.850283 
L 236.61401 109.339466 
L 237.256826 109.405734 
L 237.899642 108.976128 
L 242.399354 107.366203 
L 243.684986 106.955438 
L 245.613434 106.374617 
L 246.25625 106.374455 
L 246.899066 106.130335 
L 247.541882 105.67799 
L 248.827514 105.452386 
L 249.47033 105.166848 
L 250.113146 105.109188 
L 252.041594 104.500594 
L 252.68441 104.396481 
L 253.327226 104.080408 
L 253.970042 104.121014 
L 254.612858 103.893623 
L 255.89849 103.700991 
L 256.541306 103.39109 
L 257.184122 103.238413 
L 257.826938 103.304356 
L 258.469754 102.910321 
L 259.11257 102.739453 
L 260.398202 102.617474 
L 261.683834 102.580605 
L 262.32665 102.104059 
L 262.969466 102.104221 
L 263.612282 101.977857 
L 264.255098 101.719606 
L 264.897914 101.843209 
L 266.826362 101.211063 
L 267.469178 101.413928 
L 270.040442 100.744263 
L 270.683258 100.706743 
L 271.326074 100.535063 
L 271.96889 100.747349 
L 272.611706 100.496407 
L 273.897338 100.333498 
L 275.18297 100.119751 
L 275.825786 100.040976 
L 276.468602 99.795069 
L 277.111418 99.929555 
L 277.754234 99.935402 
L 278.39705 99.802054 
L 279.682682 99.825117 
L 280.325498 99.500923 
L 281.61113 99.535032 
L 282.253946 99.263625 
L 282.896762 99.395674 
L 283.539578 99.095194 
L 284.182394 99.399735 
L 285.468026 98.966393 
L 286.110842 99.106401 
L 286.753658 98.936182 
L 287.396474 98.90987 
L 288.03929 99.099579 
L 288.682106 98.871376 
L 289.967738 98.794226 
L 290.610554 98.652269 
L 291.25337 98.813067 
L 291.896186 98.618648 
L 292.539002 98.667862 
L 293.824634 98.578854 
L 294.46745 98.634727 
L 295.110266 98.404576 
L 295.753082 98.539873 
L 296.395898 98.397916 
L 298.967162 98.384435 
L 299.609978 98.418869 
L 300.252794 98.311183 
L 302.181242 98.392232 
L 303.466874 98.121637 
L 304.10969 98.236794 
L 306.038138 98.011027 
L 307.32377 98.074859 
L 308.609402 98.030843 
L 309.252218 98.278374 
L 309.895034 97.983091 
L 311.180666 97.957103 
L 311.823482 97.891323 
L 312.466298 98.216491 
L 313.109114 98.179459 
L 313.75193 97.811898 
L 315.037562 98.072748 
L 315.680378 97.929654 
L 316.323194 98.061053 
L 318.251642 97.946708 
L 319.537274 97.967986 
L 320.18009 98.168089 
L 321.465722 98.023859 
L 322.108538 97.876542 
L 322.751354 97.965874 
L 323.39417 98.18157 
L 325.965434 98.019311 
L 326.60825 98.114977 
L 327.893882 97.92202 
L 328.536698 97.868584 
L 329.179514 98.034741 
L 329.82233 97.851692 
L 330.465146 97.96961 
L 331.107962 97.973508 
L 331.750778 97.786398 
L 332.393594 97.978543 
L 333.03641 97.889049 
L 333.679226 98.047897 
L 334.322042 97.908377 
L 334.964858 97.956129 
L 335.607674 97.84016 
L 336.25049 98.001445 
L 336.893306 97.918934 
L 337.536122 98.228998 
L 338.178938 97.878004 
L 338.821754 97.993161 
L 340.750202 97.926406 
L 341.393018 98.01184 
L 342.67865 97.775191 
L 343.964282 98.120662 
L 344.607098 97.821481 
L 347.178362 97.920883 
L 347.821178 97.885475 
L 348.463994 97.7034 
L 349.10681 98.02061 
L 349.749626 97.81872 
L 351.035258 97.904804 
L 352.963706 97.604973 
L 353.606522 97.773242 
L 354.249338 97.788672 
L 355.53497 97.662633 
L 356.177786 97.842596 
L 356.820602 97.68927 
L 357.463418 97.828465 
L 358.106234 97.641355 
L 358.74905 97.764146 
L 359.391866 97.479908 
L 360.034682 97.401621 
L 361.320314 97.586457 
L 362.605946 97.337302 
L 363.248762 97.49079 
L 363.891578 97.394961 
L 364.534394 97.529934 
L 365.17721 97.3399 
L 365.820026 97.419812 
L 366.462842 97.241797 
L 370.319738 97.06963 
L 370.962554 96.802934 
L 371.60537 96.913218 
L 372.891002 96.780682 
L 374.176634 96.718474 
L 375.462266 96.552641 
L 376.105082 96.597957 
L 376.747898 96.488322 
L 377.390714 96.507651 
L 378.03353 96.261906 
L 379.319162 96.298614 
L 380.604794 96.121574 
L 383.176058 95.793644 
L 383.818874 95.76522 
L 384.46169 95.470587 
L 385.104506 95.623588 
L 387.67577 95.11131 
L 388.318586 95.150616 
L 388.961402 94.957171 
L 389.604218 95.027987 
L 390.247034 94.878234 
L 390.88985 94.611538 
L 392.175482 94.458049 
L 392.818298 94.290267 
L 393.461114 94.271589 
L 394.10393 94.004405 
L 394.746746 93.876254 
L 395.389562 93.969322 
L 396.032378 93.850591 
L 396.675194 93.611669 
L 397.960826 93.639768 
L 398.603642 93.265548 
L 399.246458 93.08867 
L 400.53209 92.894251 
L 401.174906 92.806219 
L 401.817722 92.352899 
L 403.103354 92.306609 
L 405.031802 91.815607 
L 406.317434 91.247131 
L 406.96025 91.395097 
L 408.245882 90.903609 
L 408.888698 90.914653 
L 409.531514 90.502102 
L 412.745594 89.605695 
L 413.38841 89.259737 
L 414.031226 89.26802 
L 415.959674 88.690448 
L 416.60249 88.186616 
L 417.888122 87.921381 
L 418.530938 87.612617 
L 418.530938 87.612617 
" clip-path="url(#p37e3121db0)" style="fill: none; stroke: #ff7f0e; stroke-opacity: 0.4; stroke-width: 1.5; stroke-linecap: square"/>
   </g>
   <g id="line2d_31">
    <path d="M 61.410938 297.54825 
L 418.530938 31.43625 
L 418.530938 31.43625 
" clip-path="url(#p37e3121db0)" style="fill: none; stroke-dasharray: 5.55,2.4; stroke-dashoffset: 0; stroke: #1f77b4; stroke-width: 1.5"/>
   </g>
   <g id="patch_3">
    <path d="M 61.410938 297.54825 
L 61.410938 31.43625 
" style="fill: none; stroke: #000000; stroke-width: 0.8; stroke-linejoin: miter; stroke-linecap: square"/>
   </g>
   <g id="patch_4">
    <path d="M 418.530938 297.54825 
L 418.530938 31.43625 
" style="fill: none; stroke: #000000; stroke-width: 0.8; stroke-linejoin: miter; stroke-linecap: square"/>
   </g>
   <g id="patch_5">
    <path d="M 61.410938 297.54825 
L 418.530938 297.54825 
" style="fill: none; stroke: #000000; stroke-width: 0.8; stroke-linejoin: miter; stroke-linecap: square"/>
   </g>
   <g id="patch_6">
    <path d="M 61.410938 31.43625 
L 418.530938 31.43625 
" style="fill: none; stroke: #000000; stroke-width: 0.8; stroke-linejoin: miter; stroke-linecap: square"/>
   </g>
   <g id="text_15">
    <!-- [[7, 1, 3]] Phenomenological -->
    <g transform="translate(69.164063 25.43625) scale(0.24 -0.24)">
     <defs>
      <path id="DejaVuSans-5b" d="M 550 4863 
L 1875 4863 
L 1875 4416 
L 1125 4416 
L 1125 -397 
L 1875 -397 
L 1875 -844 
L 550 -844 
L 550 4863 
z
" transform="scale(0.015625)"/>
      <path id="DejaVuSans-37" d="M 525 4666 
L 3525 4666 
L 3525 4397 
L 1831 0 
L 1172 0 
L 2766 4134 
L 525 4134 
L 525 4666 
z
" transform="scale(0.015625)"/>
      <path id="DejaVuSans-2c" d="M 750 794 
L 1409 794 
L 1409 256 
L 897 -744 
L 494 -744 
L 750 256 
L 750 794 
z
" transform="scale(0.015625)"/>
      <path id="DejaVuSans-33" d="M 2597 2516 
Q 3050 2419 3304 2112 
Q 3559 1806 3559 1356 
Q 3559 666 3084 287 
Q 2609 -91 1734 -91 
Q 1441 -91 1130 -33 
Q 819 25 488 141 
L 488 750 
Q 750 597 1062 519 
Q 1375 441 1716 441 
Q 2309 441 2620 675 
Q 2931 909 2931 1356 
Q 2931 1769 2642 2001 
Q 2353 2234 1838 2234 
L 1294 2234 
L 1294 2753 
L 1863 2753 
Q 2328 2753 2575 2939 
Q 2822 3125 2822 3475 
Q 2822 3834 2567 4026 
Q 2313 4219 1838 4219 
Q 1578 4219 1281 4162 
Q 984 4106 628 3988 
L 628 4550 
Q 988 4650 1302 4700 
Q 1616 4750 1894 4750 
Q 2613 4750 3031 4423 
Q 3450 4097 3450 3541 
Q 3450 3153 3228 2886 
Q 3006 2619 2597 2516 
z
" transform="scale(0.015625)"/>
      <path id="DejaVuSans-5d" d="M 1947 4863 
L 1947 -844 
L 622 -844 
L 622 -397 
L 1369 -397 
L 1369 4416 
L 622 4416 
L 622 4863 
L 1947 4863 
z
" transform="scale(0.015625)"/>
      <path id="DejaVuSans-65" d="M 3597 1894 
L 3597 1613 
L 953 1613 
Q 991 1019 1311 708 
Q 1631 397 2203 397 
Q 2534 397 2845 478 
Q 3156 559 3463 722 
L 3463 178 
Q 3153 47 2828 -22 
Q 2503 -91 2169 -91 
Q 1331 -91 842 396 
Q 353 884 353 1716 
Q 353 2575 817 3079 
Q 1281 3584 2069 3584 
Q 2775 3584 3186 3129 
Q 3597 2675 3597 1894 
z
M 3022 2063 
Q 3016 2534 2758 2815 
Q 2500 3097 2075 3097 
Q 1594 3097 1305 2825 
Q 1016 2553 972 2059 
L 3022 2063 
z
" transform="scale(0.015625)"/>
      <path id="DejaVuSans-6e" d="M 3513 2113 
L 3513 0 
L 2938 0 
L 2938 2094 
Q 2938 2591 2744 2837 
Q 2550 3084 2163 3084 
Q 1697 3084 1428 2787 
Q 1159 2491 1159 1978 
L 1159 0 
L 581 0 
L 581 3500 
L 1159 3500 
L 1159 2956 
Q 1366 3272 1645 3428 
Q 1925 3584 2291 3584 
Q 2894 3584 3203 3211 
Q 3513 2838 3513 2113 
z
" transform="scale(0.015625)"/>
      <path id="DejaVuSans-6d" d="M 3328 2828 
Q 3544 3216 3844 3400 
Q 4144 3584 4550 3584 
Q 5097 3584 5394 3201 
Q 5691 2819 5691 2113 
L 5691 0 
L 5113 0 
L 5113 2094 
Q 5113 2597 4934 2840 
Q 4756 3084 4391 3084 
Q 3944 3084 3684 2787 
Q 3425 2491 3425 1978 
L 3425 0 
L 2847 0 
L 2847 2094 
Q 2847 2600 2669 2842 
Q 2491 3084 2119 3084 
Q 1678 3084 1418 2786 
Q 1159 2488 1159 1978 
L 1159 0 
L 581 0 
L 581 3500 
L 1159 3500 
L 1159 2956 
Q 1356 3278 1631 3431 
Q 1906 3584 2284 3584 
Q 2666 3584 2933 3390 
Q 3200 3197 3328 2828 
z
" transform="scale(0.015625)"/>
     </defs>
     <use xlink:href="#DejaVuSans-5b"/>
     <use xlink:href="#DejaVuSans-5b" x="39.013672"/>
     <use xlink:href="#DejaVuSans-37" x="78.027344"/>
     <use xlink:href="#DejaVuSans-2c" x="141.650391"/>
     <use xlink:href="#DejaVuSans-20" x="173.4375"/>
     <use xlink:href="#DejaVuSans-31" x="205.224609"/>
     <use xlink:href="#DejaVuSans-2c" x="268.847656"/>
     <use xlink:href="#DejaVuSans-20" x="300.634766"/>
     <use xlink:href="#DejaVuSans-33" x="332.421875"/>
     <use xlink:href="#DejaVuSans-5d" x="396.044922"/>
     <use xlink:href="#DejaVuSans-5d" x="435.058594"/>
     <use xlink:href="#DejaVuSans-20" x="474.072266"/>
     <use xlink:href="#DejaVuSans-50" x="505.859375"/>
     <use xlink:href="#DejaVuSans-68" x="566.162109"/>
     <use xlink:href="#DejaVuSans-65" x="629.541016"/>
     <use xlink:href="#DejaVuSans-6e" x="691.064453"/>
     <use xlink:href="#DejaVuSans-6f" x="754.443359"/>
     <use xlink:href="#DejaVuSans-6d" x="815.625"/>
     <use xlink:href="#DejaVuSans-65" x="913.037109"/>
     <use xlink:href="#DejaVuSans-6e" x="974.560547"/>
     <use xlink:href="#DejaVuSans-6f" x="1037.939453"/>
     <use xlink:href="#DejaVuSans-6c" x="1099.121094"/>
     <use xlink:href="#DejaVuSans-6f" x="1126.904297"/>
     <use xlink:href="#DejaVuSans-67" x="1188.085938"/>
     <use xlink:href="#DejaVuSans-69" x="1251.5625"/>
     <use xlink:href="#DejaVuSans-63" x="1279.345703"/>
     <use xlink:href="#DejaVuSans-61" x="1334.326172"/>
     <use xlink:href="#DejaVuSans-6c" x="1395.605469"/>
    </g>
   </g>
   <g id="legend_1">
    <g id="patch_7">
     <path d="M 247.784063 291.54825 
L 410.130938 291.54825 
Q 412.530938 291.54825 412.530938 289.14825 
L 412.530938 184.66575 
Q 412.530938 182.26575 410.130938 182.26575 
L 247.784063 182.26575 
Q 245.384062 182.26575 245.384062 184.66575 
L 245.384062 289.14825 
Q 245.384062 291.54825 247.784063 291.54825 
z
" style="fill: #ffffff; opacity: 0.8; stroke: #cccccc; stroke-linejoin: miter"/>
    </g>
    <g id="line2d_32">
     <path d="M 250.184063 191.983875 
L 262.184062 191.983875 
L 274.184062 191.983875 
" style="fill: none; stroke: #2ca02c; stroke-width: 1.5; stroke-linecap: square"/>
    </g>
    <g id="text_16">
     <!-- measure 1 round -->
     <g transform="translate(283.784063 196.183875) scale(0.12 -0.12)">
      <defs>
       <path id="DejaVuSans-75" d="M 544 1381 
L 544 3500 
L 1119 3500 
L 1119 1403 
Q 1119 906 1312 657 
Q 1506 409 1894 409 
Q 2359 409 2629 706 
Q 2900 1003 2900 1516 
L 2900 3500 
L 3475 3500 
L 3475 0 
L 2900 0 
L 2900 538 
Q 2691 219 2414 64 
Q 2138 -91 1772 -91 
Q 1169 -91 856 284 
Q 544 659 544 1381 
z
M 1991 3584 
L 1991 3584 
z
" transform="scale(0.015625)"/>
       <path id="DejaVuSans-64" d="M 2906 2969 
L 2906 4863 
L 3481 4863 
L 3481 0 
L 2906 0 
L 2906 525 
Q 2725 213 2448 61 
Q 2172 -91 1784 -91 
Q 1150 -91 751 415 
Q 353 922 353 1747 
Q 353 2572 751 3078 
Q 1150 3584 1784 3584 
Q 2172 3584 2448 3432 
Q 2725 3281 2906 2969 
z
M 947 1747 
Q 947 1113 1208 752 
Q 1469 391 1925 391 
Q 2381 391 2643 752 
Q 2906 1113 2906 1747 
Q 2906 2381 2643 2742 
Q 2381 3103 1925 3103 
Q 1469 3103 1208 2742 
Q 947 2381 947 1747 
z
" transform="scale(0.015625)"/>
      </defs>
      <use xlink:href="#DejaVuSans-6d"/>
      <use xlink:href="#DejaVuSans-65" x="97.412109"/>
      <use xlink:href="#DejaVuSans-61" x="158.935547"/>
      <use xlink:href="#DejaVuSans-73" x="220.214844"/>
      <use xlink:href="#DejaVuSans-75" x="272.314453"/>
      <use xlink:href="#DejaVuSans-72" x="335.693359"/>
      <use xlink:href="#DejaVuSans-65" x="374.556641"/>
      <use xlink:href="#DejaVuSans-20" x="436.080078"/>
      <use xlink:href="#DejaVuSans-31" x="467.867188"/>
      <use xlink:href="#DejaVuSans-20" x="531.490234"/>
      <use xlink:href="#DejaVuSans-72" x="563.277344"/>
      <use xlink:href="#DejaVuSans-6f" x="602.140625"/>
      <use xlink:href="#DejaVuSans-75" x="663.322266"/>
      <use xlink:href="#DejaVuSans-6e" x="726.701172"/>
      <use xlink:href="#DejaVuSans-64" x="790.080078"/>
     </g>
    </g>
    <g id="line2d_33">
     <path d="M 250.184063 209.597625 
L 262.184062 209.597625 
L 274.184062 209.597625 
" style="fill: none; stroke: #d62728; stroke-width: 1.5; stroke-linecap: square"/>
    </g>
    <g id="text_17">
     <!-- measure 3 rounds -->
     <g transform="translate(283.784063 213.797625) scale(0.12 -0.12)">
      <use xlink:href="#DejaVuSans-6d"/>
      <use xlink:href="#DejaVuSans-65" x="97.412109"/>
      <use xlink:href="#DejaVuSans-61" x="158.935547"/>
      <use xlink:href="#DejaVuSans-73" x="220.214844"/>
      <use xlink:href="#DejaVuSans-75" x="272.314453"/>
      <use xlink:href="#DejaVuSans-72" x="335.693359"/>
      <use xlink:href="#DejaVuSans-65" x="374.556641"/>
      <use xlink:href="#DejaVuSans-20" x="436.080078"/>
      <use xlink:href="#DejaVuSans-33" x="467.867188"/>
      <use xlink:href="#DejaVuSans-20" x="531.490234"/>
      <use xlink:href="#DejaVuSans-72" x="563.277344"/>
      <use xlink:href="#DejaVuSans-6f" x="602.140625"/>
      <use xlink:href="#DejaVuSans-75" x="663.322266"/>
      <use xlink:href="#DejaVuSans-6e" x="726.701172"/>
      <use xlink:href="#DejaVuSans-64" x="790.080078"/>
      <use xlink:href="#DejaVuSans-73" x="853.556641"/>
     </g>
    </g>
    <g id="line2d_34">
     <path d="M 250.184063 227.211375 
L 262.184062 227.211375 
L 274.184062 227.211375 
" style="fill: none; stroke: #9467bd; stroke-width: 1.5; stroke-linecap: square"/>
    </g>
    <g id="text_18">
     <!-- measure 5 rounds -->
     <g transform="translate(283.784063 231.411375) scale(0.12 -0.12)">
      <defs>
       <path id="DejaVuSans-35" d="M 691 4666 
L 3169 4666 
L 3169 4134 
L 1269 4134 
L 1269 2991 
Q 1406 3038 1543 3061 
Q 1681 3084 1819 3084 
Q 2600 3084 3056 2656 
Q 3513 2228 3513 1497 
Q 3513 744 3044 326 
Q 2575 -91 1722 -91 
Q 1428 -91 1123 -41 
Q 819 9 494 109 
L 494 744 
Q 775 591 1075 516 
Q 1375 441 1709 441 
Q 2250 441 2565 725 
Q 2881 1009 2881 1497 
Q 2881 1984 2565 2268 
Q 2250 2553 1709 2553 
Q 1456 2553 1204 2497 
Q 953 2441 691 2322 
L 691 4666 
z
" transform="scale(0.015625)"/>
      </defs>
      <use xlink:href="#DejaVuSans-6d"/>
      <use xlink:href="#DejaVuSans-65" x="97.412109"/>
      <use xlink:href="#DejaVuSans-61" x="158.935547"/>
      <use xlink:href="#DejaVuSans-73" x="220.214844"/>
      <use xlink:href="#DejaVuSans-75" x="272.314453"/>
      <use xlink:href="#DejaVuSans-72" x="335.693359"/>
      <use xlink:href="#DejaVuSans-65" x="374.556641"/>
      <use xlink:href="#DejaVuSans-20" x="436.080078"/>
      <use xlink:href="#DejaVuSans-35" x="467.867188"/>
      <use xlink:href="#DejaVuSans-20" x="531.490234"/>
      <use xlink:href="#DejaVuSans-72" x="563.277344"/>
      <use xlink:href="#DejaVuSans-6f" x="602.140625"/>
      <use xlink:href="#DejaVuSans-75" x="663.322266"/>
      <use xlink:href="#DejaVuSans-6e" x="726.701172"/>
      <use xlink:href="#DejaVuSans-64" x="790.080078"/>
      <use xlink:href="#DejaVuSans-73" x="853.556641"/>
     </g>
    </g>
    <g id="line2d_35">
     <path d="M 250.184063 244.825125 
L 262.184062 244.825125 
L 274.184062 244.825125 
" style="fill: none; stroke: #8c564b; stroke-width: 1.5; stroke-linecap: square"/>
    </g>
    <g id="text_19">
     <!-- measure 7 rounds -->
     <g transform="translate(283.784063 249.025125) scale(0.12 -0.12)">
      <use xlink:href="#DejaVuSans-6d"/>
      <use xlink:href="#DejaVuSans-65" x="97.412109"/>
      <use xlink:href="#DejaVuSans-61" x="158.935547"/>
      <use xlink:href="#DejaVuSans-73" x="220.214844"/>
      <use xlink:href="#DejaVuSans-75" x="272.314453"/>
      <use xlink:href="#DejaVuSans-72" x="335.693359"/>
      <use xlink:href="#DejaVuSans-65" x="374.556641"/>
      <use xlink:href="#DejaVuSans-20" x="436.080078"/>
      <use xlink:href="#DejaVuSans-37" x="467.867188"/>
      <use xlink:href="#DejaVuSans-20" x="531.490234"/>
      <use xlink:href="#DejaVuSans-72" x="563.277344"/>
      <use xlink:href="#DejaVuSans-6f" x="602.140625"/>
      <use xlink:href="#DejaVuSans-75" x="663.322266"/>
      <use xlink:href="#DejaVuSans-6e" x="726.701172"/>
      <use xlink:href="#DejaVuSans-64" x="790.080078"/>
      <use xlink:href="#DejaVuSans-73" x="853.556641"/>
     </g>
    </g>
    <g id="line2d_36">
     <path d="M 250.184063 262.438875 
L 262.184062 262.438875 
L 274.184062 262.438875 
" style="fill: none; stroke: #e377c2; stroke-width: 1.5; stroke-linecap: square"/>
    </g>
    <g id="text_20">
     <!-- measure 101 rounds -->
     <g transform="translate(283.784063 266.638875) scale(0.12 -0.12)">
      <use xlink:href="#DejaVuSans-6d"/>
      <use xlink:href="#DejaVuSans-65" x="97.412109"/>
      <use xlink:href="#DejaVuSans-61" x="158.935547"/>
      <use xlink:href="#DejaVuSans-73" x="220.214844"/>
      <use xlink:href="#DejaVuSans-75" x="272.314453"/>
      <use xlink:href="#DejaVuSans-72" x="335.693359"/>
      <use xlink:href="#DejaVuSans-65" x="374.556641"/>
      <use xlink:href="#DejaVuSans-20" x="436.080078"/>
      <use xlink:href="#DejaVuSans-31" x="467.867188"/>
      <use xlink:href="#DejaVuSans-30" x="531.490234"/>
      <use xlink:href="#DejaVuSans-31" x="595.113281"/>
      <use xlink:href="#DejaVuSans-20" x="658.736328"/>
      <use xlink:href="#DejaVuSans-72" x="690.523438"/>
      <use xlink:href="#DejaVuSans-6f" x="729.386719"/>
      <use xlink:href="#DejaVuSans-75" x="790.568359"/>
      <use xlink:href="#DejaVuSans-6e" x="853.947266"/>
      <use xlink:href="#DejaVuSans-64" x="917.326172"/>
      <use xlink:href="#DejaVuSans-73" x="980.802734"/>
     </g>
    </g>
    <g id="line2d_37">
     <path d="M 250.184063 280.052625 
L 262.184062 280.052625 
L 274.184062 280.052625 
" style="fill: none; stroke: #ff7f0e; stroke-opacity: 0.4; stroke-width: 1.5; stroke-linecap: square"/>
    </g>
    <g id="text_21">
     <!-- no measure error -->
     <g transform="translate(283.784063 284.252625) scale(0.12 -0.12)">
      <use xlink:href="#DejaVuSans-6e"/>
      <use xlink:href="#DejaVuSans-6f" x="63.378906"/>
      <use xlink:href="#DejaVuSans-20" x="124.560547"/>
      <use xlink:href="#DejaVuSans-6d" x="156.347656"/>
      <use xlink:href="#DejaVuSans-65" x="253.759766"/>
      <use xlink:href="#DejaVuSans-61" x="315.283203"/>
      <use xlink:href="#DejaVuSans-73" x="376.5625"/>
      <use xlink:href="#DejaVuSans-75" x="428.662109"/>
      <use xlink:href="#DejaVuSans-72" x="492.041016"/>
      <use xlink:href="#DejaVuSans-65" x="530.904297"/>
      <use xlink:href="#DejaVuSans-20" x="592.427734"/>
      <use xlink:href="#DejaVuSans-65" x="624.214844"/>
      <use xlink:href="#DejaVuSans-72" x="685.738281"/>
      <use xlink:href="#DejaVuSans-72" x="725.101562"/>
      <use xlink:href="#DejaVuSans-6f" x="763.964844"/>
      <use xlink:href="#DejaVuSans-72" x="825.146484"/>
     </g>
    </g>
   </g>
  </g>
 </g>
 <defs>
  <clipPath id="p37e3121db0">
   <rect x="61.410938" y="31.43625" width="357.12" height="266.112"/>
  </clipPath>
 </defs>
</svg>
