%TF.GenerationSoftware,KiCad,Pcbnew,(6.0.7)*%
%TF.CreationDate,2022-08-11T20:25:56-04:00*%
%TF.ProjectId,hexapod_interlock,68657861-706f-4645-9f69-6e7465726c6f,rev?*%
%TF.SameCoordinates,Original*%
%TF.FileFunction,Soldermask,Bot*%
%TF.FilePolarity,Negative*%
%FSLAX46Y46*%
G04 Gerber Fmt 4.6, Leading zero omitted, Abs format (unit mm)*
G04 Created by KiCad (PCBNEW (6.0.7)) date 2022-08-11 20:25:56*
%MOMM*%
%LPD*%
G01*
G04 APERTURE LIST*
G04 Aperture macros list*
%AMRoundRect*
0 Rectangle with rounded corners*
0 $1 Rounding radius*
0 $2 $3 $4 $5 $6 $7 $8 $9 X,Y pos of 4 corners*
0 Add a 4 corners polygon primitive as box body*
4,1,4,$2,$3,$4,$5,$6,$7,$8,$9,$2,$3,0*
0 Add four circle primitives for the rounded corners*
1,1,$1+$1,$2,$3*
1,1,$1+$1,$4,$5*
1,1,$1+$1,$6,$7*
1,1,$1+$1,$8,$9*
0 Add four rect primitives between the rounded corners*
20,1,$1+$1,$2,$3,$4,$5,0*
20,1,$1+$1,$4,$5,$6,$7,0*
20,1,$1+$1,$6,$7,$8,$9,0*
20,1,$1+$1,$8,$9,$2,$3,0*%
G04 Aperture macros list end*
%TA.AperFunction,Profile*%
%ADD10C,0.100000*%
%TD*%
%ADD11C,1.600000*%
%ADD12O,1.600000X1.600000*%
%ADD13RoundRect,0.237500X0.300000X0.237500X-0.300000X0.237500X-0.300000X-0.237500X0.300000X-0.237500X0*%
%ADD14C,3.048000*%
%ADD15R,1.000000X2.350000*%
%ADD16O,1.600000X2.500000*%
%ADD17O,3.500000X7.000000*%
%ADD18C,1.800000*%
%ADD19C,2.500000*%
G04 APERTURE END LIST*
D10*
X140208000Y-151384000D02*
X140208000Y-107696000D01*
X77724000Y-107696000D02*
X140208000Y-107696000D01*
X77724000Y-151384000D02*
X140208000Y-151384000D01*
X77724000Y-107696000D02*
X77724000Y-151384000D01*
D11*
%TO.C,R2*%
X106172000Y-134112000D03*
D12*
X96012000Y-134112000D03*
%TD*%
D13*
%TO.C,C7*%
X97382500Y-136652000D03*
X95657500Y-136652000D03*
%TD*%
D11*
%TO.C,R11*%
X106172000Y-113792000D03*
D12*
X96012000Y-113792000D03*
%TD*%
D11*
%TO.C,R9*%
X106172000Y-118872000D03*
D12*
X96012000Y-118872000D03*
%TD*%
D11*
%TO.C,R4*%
X106172000Y-129032000D03*
D12*
X96012000Y-129032000D03*
%TD*%
D14*
%TO.C,K1*%
X85598000Y-117426000D03*
X80518000Y-130126000D03*
X90678000Y-130126000D03*
X90678000Y-119712000D03*
X80518000Y-119712000D03*
%TD*%
D13*
%TO.C,C11*%
X97382500Y-139700000D03*
X95657500Y-139700000D03*
%TD*%
D15*
%TO.C,SW1*%
X95536000Y-142979000D03*
X97536000Y-142979000D03*
X99536000Y-142979000D03*
X95536000Y-149629000D03*
X97536000Y-149629000D03*
X99536000Y-149629000D03*
%TD*%
D16*
%TO.C,J1*%
X85090000Y-140970000D03*
D17*
X80010000Y-146050000D03*
D16*
X82550000Y-140970000D03*
D17*
X90170000Y-146050000D03*
%TD*%
D11*
%TO.C,R10*%
X118872000Y-113792000D03*
D12*
X108712000Y-113792000D03*
%TD*%
D11*
%TO.C,R5*%
X118872000Y-123952000D03*
D12*
X108712000Y-123952000D03*
%TD*%
D11*
%TO.C,R6*%
X106172000Y-123952000D03*
D12*
X96012000Y-123952000D03*
%TD*%
D16*
%TO.C,J2*%
X110490000Y-140970000D03*
X107950000Y-140970000D03*
D17*
X115570000Y-146050000D03*
X105410000Y-146050000D03*
%TD*%
D11*
%TO.C,R12*%
X137160000Y-119578000D03*
D12*
X137160000Y-109418000D03*
%TD*%
D11*
%TO.C,R8*%
X118872000Y-118872000D03*
D12*
X108712000Y-118872000D03*
%TD*%
D11*
%TO.C,R7*%
X113030000Y-109220000D03*
D12*
X102870000Y-109220000D03*
%TD*%
D11*
%TO.C,R13*%
X123952000Y-109926000D03*
D12*
X134112000Y-109926000D03*
%TD*%
D13*
%TO.C,C9*%
X97382500Y-138176000D03*
X95657500Y-138176000D03*
%TD*%
D16*
%TO.C,J3*%
X132588000Y-140970000D03*
D17*
X137668000Y-146050000D03*
X127508000Y-146050000D03*
D16*
X130048000Y-140970000D03*
%TD*%
D18*
%TO.C,SW2*%
X137796000Y-123516000D03*
X128396000Y-123516000D03*
X137796000Y-132516000D03*
X128396000Y-132516000D03*
D19*
X135746000Y-131016000D03*
X135746000Y-128016000D03*
X135746000Y-125016000D03*
X130446000Y-131016000D03*
X130446000Y-128016000D03*
X130446000Y-125016000D03*
%TD*%
D11*
%TO.C,R3*%
X118872000Y-129032000D03*
D12*
X108712000Y-129032000D03*
%TD*%
D11*
%TO.C,R1*%
X118872000Y-134112000D03*
D12*
X108712000Y-134112000D03*
%TD*%
M02*
