M48
; DRILL file {KiCad (6.0.7)} date 2022年08月25日 星期四 07时12分31秒
; FORMAT={-:-/ absolute / inch / decimal}
; #@! TF.CreationDate,2022-08-25T07:12:31-04:00
; #@! TF.GenerationSoftware,Kicad,Pcbnew,(6.0.7)
; #@! TF.FileFunction,MixedPlating,1,2
FMAT,2
INCH
; #@! TA.AperFunction,Plated,PTH,ViaDrill
T1C0.0157
; #@! TA.AperFunction,Plated,PTH,ComponentDrill
T2C0.0276
; #@! TA.AperFunction,Plated,PTH,ComponentDrill
T3C0.0315
; #@! TA.AperFunction,Plated,PTH,ComponentDrill
T4C0.0350
; #@! TA.AperFunction,Plated,PTH,ComponentDrill
T5C0.0472
; #@! TA.AperFunction,Plated,PTH,ComponentDrill
T6C0.0512
; #@! TA.AperFunction,Plated,PTH,ComponentDrill
T7C0.0791
; #@! TA.AperFunction,Plated,PTH,ComponentDrill
T8C0.1260
; #@! TA.AperFunction,Plated,PTH,ComponentDrill
T9C0.1575
%
G90
G05
T1
X5.492Y-5.048
X5.502Y-4.816
X5.588Y-4.884
X5.64Y-5.086
X5.648Y-4.678
X5.722Y-5.114
X5.74Y-4.77
X5.814Y-4.848
X5.84Y-5.0078
X5.975Y-5.1278
X5.978Y-5.282
X5.982Y-5.3864
X6.014Y-5.41
X6.026Y-5.48
X6.12Y-5.0778
X6.124Y-5.2892
X6.13Y-5.0278
X6.1387Y-5.1491
X6.33Y-5.0778
X6.5095Y-4.9778
X6.658Y-5.0
X7.03Y-4.8528
X7.165Y-4.2928
X7.17Y-4.424
X7.2Y-4.0078
X7.2782Y-4.2738
X7.328Y-4.406
X7.5439Y-4.1606
T2
X5.52Y-4.3382
X5.52Y-4.4642
X5.52Y-4.5508
X5.52Y-4.6374
X5.72Y-4.3382
X5.72Y-4.4642
X5.72Y-4.5508
X5.72Y-4.6374
T3
X5.86Y-4.3378
X5.86Y-4.7378
X6.0Y-4.0678
X6.0Y-4.2678
X6.0Y-4.4678
X6.0Y-4.6678
X6.0Y-4.8678
X6.27Y-3.8878
X6.4Y-4.0678
X6.4Y-4.2678
X6.4Y-4.4678
X6.4Y-4.6678
X6.4Y-4.8678
X6.5Y-4.0678
X6.5Y-4.2678
X6.5Y-4.4678
X6.5Y-4.6678
X6.5Y-4.8678
X6.67Y-3.8878
X6.9Y-4.0678
X6.9Y-4.2678
X6.9Y-4.4678
X6.9Y-4.6678
X6.9Y-4.8678
X7.1Y-3.9156
X7.5Y-3.9156
X7.62Y-3.8956
X7.62Y-4.2956
T4
X5.47Y-5.1378
X5.57Y-5.1378
X7.34Y-5.1378
X7.44Y-5.1378
T5
X6.5198Y-5.3527
X6.6576Y-5.3527
X7.275Y-4.4506
X7.275Y-4.805
X7.645Y-4.4506
X7.645Y-4.805
T6
X7.3557Y-4.5097
X7.3557Y-4.6278
X7.3557Y-4.7459
X7.5643Y-4.5097
X7.5643Y-4.6278
X7.5643Y-4.7459
T7
X5.37Y-5.3378
X5.77Y-5.3378
X7.24Y-5.3378
X7.64Y-5.3378
T8
X7.005Y-5.41
T9
X5.54Y-4.05
T0
M30
