M48
; DRILL file {KiCad (6.0.7)} date 2022年08月11日 星期四 20时26分58秒
; FORMAT={-:-/ absolute / inch / decimal}
; #@! TF.CreationDate,2022-08-11T20:26:58-04:00
; #@! TF.GenerationSoftware,Kicad,Pcbnew,(6.0.7)
; #@! TF.FileFunction,MixedPlating,1,2
FMAT,2
INCH
; #@! TA.AperFunction,Plated,PTH,ViaDrill
T1C0.0157
; #@! TA.AperFunction,Plated,PTH,ComponentDrill
T2C0.0315
; #@! TA.AperFunction,Plated,PTH,ComponentDrill
T3C0.0350
; #@! TA.AperFunction,Plated,PTH,ComponentDrill
T4C0.0472
; #@! TA.AperFunction,Plated,PTH,ComponentDrill
T5C0.0512
; #@! TA.AperFunction,Plated,PTH,ComponentDrill
T6C0.0600
; #@! TA.AperFunction,Plated,PTH,ComponentDrill
T7C0.0791
%
G90
G05
T1
X3.26Y-4.89
X3.46Y-4.89
X3.62Y-5.42
X3.755Y-5.54
X3.9Y-5.49
X3.91Y-5.44
X4.11Y-5.49
X4.81Y-5.265
X4.945Y-4.705
X4.98Y-4.42
X5.3239Y-4.5728
T2
X3.78Y-4.48
X3.78Y-4.68
X3.78Y-4.88
X3.78Y-5.08
X3.78Y-5.28
X4.05Y-4.3
X4.18Y-4.48
X4.18Y-4.68
X4.18Y-4.88
X4.18Y-5.08
X4.18Y-5.28
X4.28Y-4.48
X4.28Y-4.68
X4.28Y-4.88
X4.28Y-5.08
X4.28Y-5.28
X4.45Y-4.3
X4.68Y-4.48
X4.68Y-4.68
X4.68Y-4.88
X4.68Y-5.08
X4.68Y-5.28
X4.88Y-4.3278
X5.28Y-4.3278
X5.4Y-4.3078
X5.4Y-4.7078
T3
X3.25Y-5.55
X3.35Y-5.55
X4.25Y-5.55
X4.35Y-5.55
X5.12Y-5.55
X5.22Y-5.55
T4
X5.055Y-4.8628
X5.055Y-5.2172
X5.425Y-4.8628
X5.425Y-5.2172
T5
X5.1357Y-4.9219
X5.1357Y-5.04
X5.1357Y-5.1581
X5.3443Y-4.9219
X5.3443Y-5.04
X5.3443Y-5.1581
T6
X3.17Y-4.7131
X3.17Y-5.1231
X3.37Y-4.6231
X3.57Y-4.7131
X3.57Y-5.1231
T7
X3.15Y-5.75
X3.55Y-5.75
X4.15Y-5.75
X4.55Y-5.75
X5.02Y-5.75
X5.42Y-5.75
T0
M30
