%TF.GenerationSoftware,KiCad,Pcbnew,(6.0.7)*%
%TF.CreationDate,2022-08-24T23:24:25-04:00*%
%TF.ProjectId,hexapod_interlock,68657861-706f-4645-9f69-6e7465726c6f,rev?*%
%TF.SameCoordinates,Original*%
%TF.FileFunction,Soldermask,Bot*%
%TF.FilePolarity,Negative*%
%FSLAX46Y46*%
G04 Gerber Fmt 4.6, Leading zero omitted, Abs format (unit mm)*
G04 Created by KiCad (PCBNEW (6.0.7)) date 2022-08-24 23:24:25*
%MOMM*%
%LPD*%
G01*
G04 APERTURE LIST*
G04 Aperture macros list*
%AMRoundRect*
0 Rectangle with rounded corners*
0 $1 Rounding radius*
0 $2 $3 $4 $5 $6 $7 $8 $9 X,Y pos of 4 corners*
0 Add a 4 corners polygon primitive as box body*
4,1,4,$2,$3,$4,$5,$6,$7,$8,$9,$2,$3,0*
0 Add four circle primitives for the rounded corners*
1,1,$1+$1,$2,$3*
1,1,$1+$1,$4,$5*
1,1,$1+$1,$6,$7*
1,1,$1+$1,$8,$9*
0 Add four rect primitives between the rounded corners*
20,1,$1+$1,$2,$3,$4,$5,0*
20,1,$1+$1,$4,$5,$6,$7,0*
20,1,$1+$1,$6,$7,$8,$9,0*
20,1,$1+$1,$8,$9,$2,$3,0*%
G04 Aperture macros list end*
%TA.AperFunction,Profile*%
%ADD10C,0.100000*%
%TD*%
%ADD11RoundRect,0.250000X-0.650000X-1.550000X0.650000X-1.550000X0.650000X1.550000X-0.650000X1.550000X0*%
%ADD12O,1.800000X3.600000*%
%ADD13C,8.000000*%
%ADD14C,5.500000*%
%ADD15C,1.600000*%
%ADD16O,1.600000X1.600000*%
%ADD17RoundRect,0.237500X0.300000X0.237500X-0.300000X0.237500X-0.300000X-0.237500X0.300000X-0.237500X0*%
%ADD18C,1.400000*%
%ADD19R,1.000000X2.350000*%
%ADD20O,1.600000X2.500000*%
%ADD21O,3.500000X7.000000*%
%ADD22C,1.800000*%
%ADD23C,2.500000*%
G04 APERTURE END LIST*
D10*
X196596000Y-140914000D02*
X196596000Y-97226000D01*
X134112000Y-97226000D02*
X196596000Y-97226000D01*
X134112000Y-140914000D02*
X196596000Y-140914000D01*
X134112000Y-97226000D02*
X134112000Y-140914000D01*
D11*
%TO.C,J2*%
X165602700Y-135958700D03*
D12*
X169102700Y-135958700D03*
%TD*%
D13*
%TO.C,J5*%
X140716000Y-102870000D03*
%TD*%
D14*
%TO.C,J4*%
X177927000Y-137414000D03*
%TD*%
D15*
%TO.C,R2*%
X162560000Y-123642000D03*
D16*
X152400000Y-123642000D03*
%TD*%
D17*
%TO.C,C7*%
X153770500Y-126182000D03*
X152045500Y-126182000D03*
%TD*%
D15*
%TO.C,R11*%
X162560000Y-103322000D03*
D16*
X152400000Y-103322000D03*
%TD*%
D18*
%TO.C,K1*%
X145288000Y-110190000D03*
X145288000Y-113390000D03*
X145288000Y-115590000D03*
X145288000Y-117790000D03*
X140208000Y-117790000D03*
X140208000Y-115590000D03*
X140208000Y-113390000D03*
X140208000Y-110190000D03*
%TD*%
D15*
%TO.C,R9*%
X162560000Y-108402000D03*
D16*
X152400000Y-108402000D03*
%TD*%
D15*
%TO.C,R4*%
X162560000Y-118562000D03*
D16*
X152400000Y-118562000D03*
%TD*%
D17*
%TO.C,C11*%
X153770500Y-129230000D03*
X152045500Y-129230000D03*
%TD*%
D19*
%TO.C,SW1*%
X151924000Y-132509000D03*
X153924000Y-132509000D03*
X155924000Y-132509000D03*
X151924000Y-139159000D03*
X153924000Y-139159000D03*
X155924000Y-139159000D03*
%TD*%
D20*
%TO.C,J1*%
X141478000Y-130500000D03*
D21*
X136398000Y-135580000D03*
D20*
X138938000Y-130500000D03*
D21*
X146558000Y-135580000D03*
%TD*%
D15*
%TO.C,R10*%
X175260000Y-103322000D03*
D16*
X165100000Y-103322000D03*
%TD*%
D15*
%TO.C,R5*%
X175260000Y-113482000D03*
D16*
X165100000Y-113482000D03*
%TD*%
D15*
%TO.C,R6*%
X162560000Y-113482000D03*
D16*
X152400000Y-113482000D03*
%TD*%
D15*
%TO.C,R12*%
X193548000Y-109108000D03*
D16*
X193548000Y-98948000D03*
%TD*%
D15*
%TO.C,R8*%
X175260000Y-108402000D03*
D16*
X165100000Y-108402000D03*
%TD*%
D15*
%TO.C,R7*%
X169418000Y-98750000D03*
D16*
X159258000Y-98750000D03*
%TD*%
D15*
%TO.C,R14*%
X148844000Y-120340000D03*
D16*
X148844000Y-110180000D03*
%TD*%
D15*
%TO.C,R13*%
X180340000Y-99456000D03*
D16*
X190500000Y-99456000D03*
%TD*%
D17*
%TO.C,C9*%
X153770500Y-127706000D03*
X152045500Y-127706000D03*
%TD*%
D20*
%TO.C,J3*%
X188976000Y-130500000D03*
D21*
X194056000Y-135580000D03*
X183896000Y-135580000D03*
D20*
X186436000Y-130500000D03*
%TD*%
D22*
%TO.C,SW2*%
X194184000Y-113046000D03*
X184784000Y-113046000D03*
X194184000Y-122046000D03*
X184784000Y-122046000D03*
D23*
X192134000Y-120546000D03*
X192134000Y-117546000D03*
X192134000Y-114546000D03*
X186834000Y-120546000D03*
X186834000Y-117546000D03*
X186834000Y-114546000D03*
%TD*%
D15*
%TO.C,R3*%
X175260000Y-118562000D03*
D16*
X165100000Y-118562000D03*
%TD*%
D15*
%TO.C,R1*%
X175260000Y-123642000D03*
D16*
X165100000Y-123642000D03*
%TD*%
M02*
