%TF.GenerationSoftware,KiCad,Pcbnew,(6.0.7)*%
%TF.CreationDate,2022-08-24T23:24:25-04:00*%
%TF.ProjectId,hexapod_interlock,68657861-706f-4645-9f69-6e7465726c6f,rev?*%
%TF.SameCoordinates,Original*%
%TF.FileFunction,Legend,Bot*%
%TF.FilePolarity,Positive*%
%FSLAX46Y46*%
G04 Gerber Fmt 4.6, Leading zero omitted, Abs format (unit mm)*
G04 Created by KiCad (PCBNEW (6.0.7)) date 2022-08-24 23:24:25*
%MOMM*%
%LPD*%
G01*
G04 APERTURE LIST*
%TA.AperFunction,Profile*%
%ADD10C,0.100000*%
%TD*%
%ADD11C,0.150000*%
%ADD12C,0.120000*%
G04 APERTURE END LIST*
D10*
X196596000Y-140914000D02*
X196596000Y-97226000D01*
X134112000Y-97226000D02*
X196596000Y-97226000D01*
X134112000Y-140914000D02*
X196596000Y-140914000D01*
X134112000Y-97226000D02*
X134112000Y-140914000D01*
D11*
%TO.C,J2*%
X173612133Y-139507980D02*
X173612133Y-140222266D01*
X173659752Y-140365123D01*
X173754990Y-140460361D01*
X173897847Y-140507980D01*
X173993085Y-140507980D01*
X173183561Y-139603219D02*
X173135942Y-139555600D01*
X173040704Y-139507980D01*
X172802609Y-139507980D01*
X172707371Y-139555600D01*
X172659752Y-139603219D01*
X172612133Y-139698457D01*
X172612133Y-139793695D01*
X172659752Y-139936552D01*
X173231180Y-140507980D01*
X172612133Y-140507980D01*
%TO.C,R2*%
X159678666Y-122062380D02*
X160012000Y-121586190D01*
X160250095Y-122062380D02*
X160250095Y-121062380D01*
X159869142Y-121062380D01*
X159773904Y-121110000D01*
X159726285Y-121157619D01*
X159678666Y-121252857D01*
X159678666Y-121395714D01*
X159726285Y-121490952D01*
X159773904Y-121538571D01*
X159869142Y-121586190D01*
X160250095Y-121586190D01*
X159297714Y-121157619D02*
X159250095Y-121110000D01*
X159154857Y-121062380D01*
X158916761Y-121062380D01*
X158821523Y-121110000D01*
X158773904Y-121157619D01*
X158726285Y-121252857D01*
X158726285Y-121348095D01*
X158773904Y-121490952D01*
X159345333Y-122062380D01*
X158726285Y-122062380D01*
%TO.C,C7*%
X155868666Y-126539142D02*
X155916285Y-126586761D01*
X156059142Y-126634380D01*
X156154380Y-126634380D01*
X156297238Y-126586761D01*
X156392476Y-126491523D01*
X156440095Y-126396285D01*
X156487714Y-126205809D01*
X156487714Y-126062952D01*
X156440095Y-125872476D01*
X156392476Y-125777238D01*
X156297238Y-125682000D01*
X156154380Y-125634380D01*
X156059142Y-125634380D01*
X155916285Y-125682000D01*
X155868666Y-125729619D01*
X155535333Y-125634380D02*
X154868666Y-125634380D01*
X155297238Y-126634380D01*
%TO.C,R11*%
X160154857Y-101742380D02*
X160488190Y-101266190D01*
X160726285Y-101742380D02*
X160726285Y-100742380D01*
X160345333Y-100742380D01*
X160250095Y-100790000D01*
X160202476Y-100837619D01*
X160154857Y-100932857D01*
X160154857Y-101075714D01*
X160202476Y-101170952D01*
X160250095Y-101218571D01*
X160345333Y-101266190D01*
X160726285Y-101266190D01*
X159202476Y-101742380D02*
X159773904Y-101742380D01*
X159488190Y-101742380D02*
X159488190Y-100742380D01*
X159583428Y-100885238D01*
X159678666Y-100980476D01*
X159773904Y-101028095D01*
X158250095Y-101742380D02*
X158821523Y-101742380D01*
X158535809Y-101742380D02*
X158535809Y-100742380D01*
X158631047Y-100885238D01*
X158726285Y-100980476D01*
X158821523Y-101028095D01*
%TO.C,K1*%
X143426095Y-108342380D02*
X143426095Y-107342380D01*
X142854666Y-108342380D02*
X143283238Y-107770952D01*
X142854666Y-107342380D02*
X143426095Y-107913809D01*
X141902285Y-108342380D02*
X142473714Y-108342380D01*
X142188000Y-108342380D02*
X142188000Y-107342380D01*
X142283238Y-107485238D01*
X142378476Y-107580476D01*
X142473714Y-107628095D01*
%TO.C,R9*%
X159678666Y-106822380D02*
X160012000Y-106346190D01*
X160250095Y-106822380D02*
X160250095Y-105822380D01*
X159869142Y-105822380D01*
X159773904Y-105870000D01*
X159726285Y-105917619D01*
X159678666Y-106012857D01*
X159678666Y-106155714D01*
X159726285Y-106250952D01*
X159773904Y-106298571D01*
X159869142Y-106346190D01*
X160250095Y-106346190D01*
X159202476Y-106822380D02*
X159012000Y-106822380D01*
X158916761Y-106774761D01*
X158869142Y-106727142D01*
X158773904Y-106584285D01*
X158726285Y-106393809D01*
X158726285Y-106012857D01*
X158773904Y-105917619D01*
X158821523Y-105870000D01*
X158916761Y-105822380D01*
X159107238Y-105822380D01*
X159202476Y-105870000D01*
X159250095Y-105917619D01*
X159297714Y-106012857D01*
X159297714Y-106250952D01*
X159250095Y-106346190D01*
X159202476Y-106393809D01*
X159107238Y-106441428D01*
X158916761Y-106441428D01*
X158821523Y-106393809D01*
X158773904Y-106346190D01*
X158726285Y-106250952D01*
%TO.C,R4*%
X159678666Y-116982380D02*
X160012000Y-116506190D01*
X160250095Y-116982380D02*
X160250095Y-115982380D01*
X159869142Y-115982380D01*
X159773904Y-116030000D01*
X159726285Y-116077619D01*
X159678666Y-116172857D01*
X159678666Y-116315714D01*
X159726285Y-116410952D01*
X159773904Y-116458571D01*
X159869142Y-116506190D01*
X160250095Y-116506190D01*
X158821523Y-116315714D02*
X158821523Y-116982380D01*
X159059619Y-115934761D02*
X159297714Y-116649047D01*
X158678666Y-116649047D01*
%TO.C,C11*%
X156598857Y-129587142D02*
X156646476Y-129634761D01*
X156789333Y-129682380D01*
X156884571Y-129682380D01*
X157027428Y-129634761D01*
X157122666Y-129539523D01*
X157170285Y-129444285D01*
X157217904Y-129253809D01*
X157217904Y-129110952D01*
X157170285Y-128920476D01*
X157122666Y-128825238D01*
X157027428Y-128730000D01*
X156884571Y-128682380D01*
X156789333Y-128682380D01*
X156646476Y-128730000D01*
X156598857Y-128777619D01*
X155646476Y-129682380D02*
X156217904Y-129682380D01*
X155932190Y-129682380D02*
X155932190Y-128682380D01*
X156027428Y-128825238D01*
X156122666Y-128920476D01*
X156217904Y-128968095D01*
X154694095Y-129682380D02*
X155265523Y-129682380D01*
X154979809Y-129682380D02*
X154979809Y-128682380D01*
X155075047Y-128825238D01*
X155170285Y-128920476D01*
X155265523Y-128968095D01*
%TO.C,SW1*%
X150728761Y-134500666D02*
X150776380Y-134643523D01*
X150776380Y-134881619D01*
X150728761Y-134976857D01*
X150681142Y-135024476D01*
X150585904Y-135072095D01*
X150490666Y-135072095D01*
X150395428Y-135024476D01*
X150347809Y-134976857D01*
X150300190Y-134881619D01*
X150252571Y-134691142D01*
X150204952Y-134595904D01*
X150157333Y-134548285D01*
X150062095Y-134500666D01*
X149966857Y-134500666D01*
X149871619Y-134548285D01*
X149824000Y-134595904D01*
X149776380Y-134691142D01*
X149776380Y-134929238D01*
X149824000Y-135072095D01*
X149776380Y-135405428D02*
X150776380Y-135643523D01*
X150062095Y-135834000D01*
X150776380Y-136024476D01*
X149776380Y-136262571D01*
X150776380Y-137167333D02*
X150776380Y-136595904D01*
X150776380Y-136881619D02*
X149776380Y-136881619D01*
X149919238Y-136786380D01*
X150014476Y-136691142D01*
X150062095Y-136595904D01*
%TO.C,J1*%
X140541333Y-125952380D02*
X140541333Y-126666666D01*
X140588952Y-126809523D01*
X140684190Y-126904761D01*
X140827047Y-126952380D01*
X140922285Y-126952380D01*
X139541333Y-126952380D02*
X140112761Y-126952380D01*
X139827047Y-126952380D02*
X139827047Y-125952380D01*
X139922285Y-126095238D01*
X140017523Y-126190476D01*
X140112761Y-126238095D01*
%TO.C,R10*%
X172854857Y-101742380D02*
X173188190Y-101266190D01*
X173426285Y-101742380D02*
X173426285Y-100742380D01*
X173045333Y-100742380D01*
X172950095Y-100790000D01*
X172902476Y-100837619D01*
X172854857Y-100932857D01*
X172854857Y-101075714D01*
X172902476Y-101170952D01*
X172950095Y-101218571D01*
X173045333Y-101266190D01*
X173426285Y-101266190D01*
X171902476Y-101742380D02*
X172473904Y-101742380D01*
X172188190Y-101742380D02*
X172188190Y-100742380D01*
X172283428Y-100885238D01*
X172378666Y-100980476D01*
X172473904Y-101028095D01*
X171283428Y-100742380D02*
X171188190Y-100742380D01*
X171092952Y-100790000D01*
X171045333Y-100837619D01*
X170997714Y-100932857D01*
X170950095Y-101123333D01*
X170950095Y-101361428D01*
X170997714Y-101551904D01*
X171045333Y-101647142D01*
X171092952Y-101694761D01*
X171188190Y-101742380D01*
X171283428Y-101742380D01*
X171378666Y-101694761D01*
X171426285Y-101647142D01*
X171473904Y-101551904D01*
X171521523Y-101361428D01*
X171521523Y-101123333D01*
X171473904Y-100932857D01*
X171426285Y-100837619D01*
X171378666Y-100790000D01*
X171283428Y-100742380D01*
%TO.C,R5*%
X172378666Y-111902380D02*
X172712000Y-111426190D01*
X172950095Y-111902380D02*
X172950095Y-110902380D01*
X172569142Y-110902380D01*
X172473904Y-110950000D01*
X172426285Y-110997619D01*
X172378666Y-111092857D01*
X172378666Y-111235714D01*
X172426285Y-111330952D01*
X172473904Y-111378571D01*
X172569142Y-111426190D01*
X172950095Y-111426190D01*
X171473904Y-110902380D02*
X171950095Y-110902380D01*
X171997714Y-111378571D01*
X171950095Y-111330952D01*
X171854857Y-111283333D01*
X171616761Y-111283333D01*
X171521523Y-111330952D01*
X171473904Y-111378571D01*
X171426285Y-111473809D01*
X171426285Y-111711904D01*
X171473904Y-111807142D01*
X171521523Y-111854761D01*
X171616761Y-111902380D01*
X171854857Y-111902380D01*
X171950095Y-111854761D01*
X171997714Y-111807142D01*
%TO.C,R6*%
X159678666Y-111902380D02*
X160012000Y-111426190D01*
X160250095Y-111902380D02*
X160250095Y-110902380D01*
X159869142Y-110902380D01*
X159773904Y-110950000D01*
X159726285Y-110997619D01*
X159678666Y-111092857D01*
X159678666Y-111235714D01*
X159726285Y-111330952D01*
X159773904Y-111378571D01*
X159869142Y-111426190D01*
X160250095Y-111426190D01*
X158821523Y-110902380D02*
X159012000Y-110902380D01*
X159107238Y-110950000D01*
X159154857Y-110997619D01*
X159250095Y-111140476D01*
X159297714Y-111330952D01*
X159297714Y-111711904D01*
X159250095Y-111807142D01*
X159202476Y-111854761D01*
X159107238Y-111902380D01*
X158916761Y-111902380D01*
X158821523Y-111854761D01*
X158773904Y-111807142D01*
X158726285Y-111711904D01*
X158726285Y-111473809D01*
X158773904Y-111378571D01*
X158821523Y-111330952D01*
X158916761Y-111283333D01*
X159107238Y-111283333D01*
X159202476Y-111330952D01*
X159250095Y-111378571D01*
X159297714Y-111473809D01*
%TO.C,R12*%
X196370380Y-103385142D02*
X195894190Y-103051809D01*
X196370380Y-102813714D02*
X195370380Y-102813714D01*
X195370380Y-103194666D01*
X195418000Y-103289904D01*
X195465619Y-103337523D01*
X195560857Y-103385142D01*
X195703714Y-103385142D01*
X195798952Y-103337523D01*
X195846571Y-103289904D01*
X195894190Y-103194666D01*
X195894190Y-102813714D01*
X196370380Y-104337523D02*
X196370380Y-103766095D01*
X196370380Y-104051809D02*
X195370380Y-104051809D01*
X195513238Y-103956571D01*
X195608476Y-103861333D01*
X195656095Y-103766095D01*
X195465619Y-104718476D02*
X195418000Y-104766095D01*
X195370380Y-104861333D01*
X195370380Y-105099428D01*
X195418000Y-105194666D01*
X195465619Y-105242285D01*
X195560857Y-105289904D01*
X195656095Y-105289904D01*
X195798952Y-105242285D01*
X196370380Y-104670857D01*
X196370380Y-105289904D01*
%TO.C,R8*%
X172378666Y-106822380D02*
X172712000Y-106346190D01*
X172950095Y-106822380D02*
X172950095Y-105822380D01*
X172569142Y-105822380D01*
X172473904Y-105870000D01*
X172426285Y-105917619D01*
X172378666Y-106012857D01*
X172378666Y-106155714D01*
X172426285Y-106250952D01*
X172473904Y-106298571D01*
X172569142Y-106346190D01*
X172950095Y-106346190D01*
X171807238Y-106250952D02*
X171902476Y-106203333D01*
X171950095Y-106155714D01*
X171997714Y-106060476D01*
X171997714Y-106012857D01*
X171950095Y-105917619D01*
X171902476Y-105870000D01*
X171807238Y-105822380D01*
X171616761Y-105822380D01*
X171521523Y-105870000D01*
X171473904Y-105917619D01*
X171426285Y-106012857D01*
X171426285Y-106060476D01*
X171473904Y-106155714D01*
X171521523Y-106203333D01*
X171616761Y-106250952D01*
X171807238Y-106250952D01*
X171902476Y-106298571D01*
X171950095Y-106346190D01*
X171997714Y-106441428D01*
X171997714Y-106631904D01*
X171950095Y-106727142D01*
X171902476Y-106774761D01*
X171807238Y-106822380D01*
X171616761Y-106822380D01*
X171521523Y-106774761D01*
X171473904Y-106727142D01*
X171426285Y-106631904D01*
X171426285Y-106441428D01*
X171473904Y-106346190D01*
X171521523Y-106298571D01*
X171616761Y-106250952D01*
%TO.C,R7*%
X166282666Y-101234380D02*
X166616000Y-100758190D01*
X166854095Y-101234380D02*
X166854095Y-100234380D01*
X166473142Y-100234380D01*
X166377904Y-100282000D01*
X166330285Y-100329619D01*
X166282666Y-100424857D01*
X166282666Y-100567714D01*
X166330285Y-100662952D01*
X166377904Y-100710571D01*
X166473142Y-100758190D01*
X166854095Y-100758190D01*
X165949333Y-100234380D02*
X165282666Y-100234380D01*
X165711238Y-101234380D01*
%TO.C,R14*%
X151582380Y-115379142D02*
X151106190Y-115045809D01*
X151582380Y-114807714D02*
X150582380Y-114807714D01*
X150582380Y-115188666D01*
X150630000Y-115283904D01*
X150677619Y-115331523D01*
X150772857Y-115379142D01*
X150915714Y-115379142D01*
X151010952Y-115331523D01*
X151058571Y-115283904D01*
X151106190Y-115188666D01*
X151106190Y-114807714D01*
X151582380Y-116331523D02*
X151582380Y-115760095D01*
X151582380Y-116045809D02*
X150582380Y-116045809D01*
X150725238Y-115950571D01*
X150820476Y-115855333D01*
X150868095Y-115760095D01*
X150915714Y-117188666D02*
X151582380Y-117188666D01*
X150534761Y-116950571D02*
X151249047Y-116712476D01*
X151249047Y-117331523D01*
%TO.C,R13*%
X187586857Y-101996380D02*
X187920190Y-101520190D01*
X188158285Y-101996380D02*
X188158285Y-100996380D01*
X187777333Y-100996380D01*
X187682095Y-101044000D01*
X187634476Y-101091619D01*
X187586857Y-101186857D01*
X187586857Y-101329714D01*
X187634476Y-101424952D01*
X187682095Y-101472571D01*
X187777333Y-101520190D01*
X188158285Y-101520190D01*
X186634476Y-101996380D02*
X187205904Y-101996380D01*
X186920190Y-101996380D02*
X186920190Y-100996380D01*
X187015428Y-101139238D01*
X187110666Y-101234476D01*
X187205904Y-101282095D01*
X186301142Y-100996380D02*
X185682095Y-100996380D01*
X186015428Y-101377333D01*
X185872571Y-101377333D01*
X185777333Y-101424952D01*
X185729714Y-101472571D01*
X185682095Y-101567809D01*
X185682095Y-101805904D01*
X185729714Y-101901142D01*
X185777333Y-101948761D01*
X185872571Y-101996380D01*
X186158285Y-101996380D01*
X186253523Y-101948761D01*
X186301142Y-101901142D01*
%TO.C,C9*%
X155868666Y-128063142D02*
X155916285Y-128110761D01*
X156059142Y-128158380D01*
X156154380Y-128158380D01*
X156297238Y-128110761D01*
X156392476Y-128015523D01*
X156440095Y-127920285D01*
X156487714Y-127729809D01*
X156487714Y-127586952D01*
X156440095Y-127396476D01*
X156392476Y-127301238D01*
X156297238Y-127206000D01*
X156154380Y-127158380D01*
X156059142Y-127158380D01*
X155916285Y-127206000D01*
X155868666Y-127253619D01*
X155392476Y-128158380D02*
X155202000Y-128158380D01*
X155106761Y-128110761D01*
X155059142Y-128063142D01*
X154963904Y-127920285D01*
X154916285Y-127729809D01*
X154916285Y-127348857D01*
X154963904Y-127253619D01*
X155011523Y-127206000D01*
X155106761Y-127158380D01*
X155297238Y-127158380D01*
X155392476Y-127206000D01*
X155440095Y-127253619D01*
X155487714Y-127348857D01*
X155487714Y-127586952D01*
X155440095Y-127682190D01*
X155392476Y-127729809D01*
X155297238Y-127777428D01*
X155106761Y-127777428D01*
X155011523Y-127729809D01*
X154963904Y-127682190D01*
X154916285Y-127586952D01*
%TO.C,J3*%
X189309333Y-125952380D02*
X189309333Y-126666666D01*
X189356952Y-126809523D01*
X189452190Y-126904761D01*
X189595047Y-126952380D01*
X189690285Y-126952380D01*
X188928380Y-125952380D02*
X188309333Y-125952380D01*
X188642666Y-126333333D01*
X188499809Y-126333333D01*
X188404571Y-126380952D01*
X188356952Y-126428571D01*
X188309333Y-126523809D01*
X188309333Y-126761904D01*
X188356952Y-126857142D01*
X188404571Y-126904761D01*
X188499809Y-126952380D01*
X188785523Y-126952380D01*
X188880761Y-126904761D01*
X188928380Y-126857142D01*
%TO.C,SW2*%
X194679238Y-118879333D02*
X194631619Y-118736476D01*
X194631619Y-118498380D01*
X194679238Y-118403142D01*
X194726857Y-118355523D01*
X194822095Y-118307904D01*
X194917333Y-118307904D01*
X195012571Y-118355523D01*
X195060190Y-118403142D01*
X195107809Y-118498380D01*
X195155428Y-118688857D01*
X195203047Y-118784095D01*
X195250666Y-118831714D01*
X195345904Y-118879333D01*
X195441142Y-118879333D01*
X195536380Y-118831714D01*
X195584000Y-118784095D01*
X195631619Y-118688857D01*
X195631619Y-118450761D01*
X195584000Y-118307904D01*
X195631619Y-117974571D02*
X194631619Y-117736476D01*
X195345904Y-117546000D01*
X194631619Y-117355523D01*
X195631619Y-117117428D01*
X195536380Y-116784095D02*
X195584000Y-116736476D01*
X195631619Y-116641238D01*
X195631619Y-116403142D01*
X195584000Y-116307904D01*
X195536380Y-116260285D01*
X195441142Y-116212666D01*
X195345904Y-116212666D01*
X195203047Y-116260285D01*
X194631619Y-116831714D01*
X194631619Y-116212666D01*
%TO.C,R3*%
X172378666Y-116982380D02*
X172712000Y-116506190D01*
X172950095Y-116982380D02*
X172950095Y-115982380D01*
X172569142Y-115982380D01*
X172473904Y-116030000D01*
X172426285Y-116077619D01*
X172378666Y-116172857D01*
X172378666Y-116315714D01*
X172426285Y-116410952D01*
X172473904Y-116458571D01*
X172569142Y-116506190D01*
X172950095Y-116506190D01*
X172045333Y-115982380D02*
X171426285Y-115982380D01*
X171759619Y-116363333D01*
X171616761Y-116363333D01*
X171521523Y-116410952D01*
X171473904Y-116458571D01*
X171426285Y-116553809D01*
X171426285Y-116791904D01*
X171473904Y-116887142D01*
X171521523Y-116934761D01*
X171616761Y-116982380D01*
X171902476Y-116982380D01*
X171997714Y-116934761D01*
X172045333Y-116887142D01*
%TO.C,R1*%
X172378666Y-122062380D02*
X172712000Y-121586190D01*
X172950095Y-122062380D02*
X172950095Y-121062380D01*
X172569142Y-121062380D01*
X172473904Y-121110000D01*
X172426285Y-121157619D01*
X172378666Y-121252857D01*
X172378666Y-121395714D01*
X172426285Y-121490952D01*
X172473904Y-121538571D01*
X172569142Y-121586190D01*
X172950095Y-121586190D01*
X171426285Y-122062380D02*
X171997714Y-122062380D01*
X171712000Y-122062380D02*
X171712000Y-121062380D01*
X171807238Y-121205238D01*
X171902476Y-121300476D01*
X171997714Y-121348095D01*
D12*
%TO.C,J2*%
X162652700Y-139458700D02*
X162652700Y-140708700D01*
X164852700Y-133708700D02*
X164102700Y-133708700D01*
X168352700Y-138008700D02*
X168352700Y-138358700D01*
X163042700Y-132848700D02*
X171662700Y-132848700D01*
X164352700Y-138358700D02*
X164102700Y-139358700D01*
X171662700Y-140318700D02*
X163042700Y-140318700D01*
X166352700Y-138358700D02*
X166352700Y-138008700D01*
X164102700Y-138008700D02*
X164852700Y-138008700D01*
X167602700Y-139358700D02*
X170602700Y-139358700D01*
X164852700Y-138358700D02*
X164352700Y-138358700D01*
X162652700Y-140708700D02*
X164652700Y-140708700D01*
X167602700Y-138008700D02*
X168352700Y-138008700D01*
X171662700Y-132848700D02*
X171662700Y-140318700D01*
X168352700Y-133708700D02*
X167602700Y-133708700D01*
X170602700Y-138008700D02*
X170602700Y-133708700D01*
X167102700Y-133708700D02*
X166352700Y-133708700D01*
X167602700Y-133708700D02*
X167602700Y-138008700D01*
X167852700Y-138358700D02*
X167602700Y-139358700D01*
X166852700Y-138358700D02*
X166352700Y-138358700D01*
X170352700Y-138358700D02*
X169852700Y-138358700D01*
X164102700Y-139358700D02*
X167102700Y-139358700D01*
X167102700Y-138008700D02*
X167102700Y-133708700D01*
X169852700Y-138008700D02*
X170602700Y-138008700D01*
X169852700Y-138358700D02*
X169852700Y-138008700D01*
X170602700Y-139358700D02*
X170352700Y-138358700D01*
X170602700Y-133708700D02*
X169852700Y-133708700D01*
X164102700Y-133708700D02*
X164102700Y-138008700D01*
X167102700Y-139358700D02*
X166852700Y-138358700D01*
X166352700Y-138008700D02*
X167102700Y-138008700D01*
X164852700Y-138008700D02*
X164852700Y-138358700D01*
X168352700Y-138358700D02*
X167852700Y-138358700D01*
X163042700Y-140318700D02*
X163042700Y-132848700D01*
X164852700Y-133708701D02*
G75*
G03*
X166352347Y-133708856I750000J1700001D01*
G01*
X168352700Y-133708701D02*
G75*
G03*
X169852347Y-133708856I750000J1700001D01*
G01*
%TO.C,R2*%
X154210000Y-122272000D02*
X160750000Y-122272000D01*
X160750000Y-122272000D02*
X160750000Y-125012000D01*
X160750000Y-125012000D02*
X154210000Y-125012000D01*
X154210000Y-125012000D02*
X154210000Y-122272000D01*
X161520000Y-123642000D02*
X160750000Y-123642000D01*
X153440000Y-123642000D02*
X154210000Y-123642000D01*
%TO.C,C7*%
X153054267Y-125672000D02*
X152761733Y-125672000D01*
X153054267Y-126692000D02*
X152761733Y-126692000D01*
%TO.C,R11*%
X160750000Y-104692000D02*
X154210000Y-104692000D01*
X154210000Y-104692000D02*
X154210000Y-101952000D01*
X154210000Y-101952000D02*
X160750000Y-101952000D01*
X153440000Y-103322000D02*
X154210000Y-103322000D01*
X160750000Y-101952000D02*
X160750000Y-104692000D01*
X161520000Y-103322000D02*
X160750000Y-103322000D01*
%TO.C,K1*%
X139588000Y-110790000D02*
X139588000Y-112790000D01*
X143088000Y-110390000D02*
X142388000Y-109990000D01*
X145888000Y-114990000D02*
X145888000Y-113990000D01*
X139588000Y-113990000D02*
X139588000Y-114990000D01*
X142388000Y-110790000D02*
X142388000Y-109590000D01*
X143088000Y-110190000D02*
X144188000Y-110190000D01*
X139588000Y-118390000D02*
X139588000Y-119090000D01*
X145988000Y-109590000D02*
X145988000Y-108790000D01*
X145888000Y-112790000D02*
X145888000Y-110790000D01*
X139588000Y-119090000D02*
X145888000Y-119090000D01*
X143088000Y-109590000D02*
X143088000Y-110790000D01*
X145888000Y-108890000D02*
X139588000Y-108890000D01*
X139588000Y-108890000D02*
X139588000Y-109590000D01*
X139588000Y-116190000D02*
X139588000Y-117190000D01*
X143088000Y-110790000D02*
X142388000Y-110790000D01*
X145888000Y-109590000D02*
X145888000Y-108890000D01*
X142388000Y-109590000D02*
X143088000Y-109590000D01*
X145888000Y-118390000D02*
X145888000Y-119090000D01*
X142388000Y-110190000D02*
X141288000Y-110190000D01*
X145888000Y-117190000D02*
X145888000Y-116190000D01*
X145988000Y-108790000D02*
X145288000Y-108790000D01*
%TO.C,R9*%
X160750000Y-109772000D02*
X154210000Y-109772000D01*
X161520000Y-108402000D02*
X160750000Y-108402000D01*
X154210000Y-107032000D02*
X160750000Y-107032000D01*
X153440000Y-108402000D02*
X154210000Y-108402000D01*
X154210000Y-109772000D02*
X154210000Y-107032000D01*
X160750000Y-107032000D02*
X160750000Y-109772000D01*
%TO.C,R4*%
X160750000Y-117192000D02*
X160750000Y-119932000D01*
X161520000Y-118562000D02*
X160750000Y-118562000D01*
X154210000Y-119932000D02*
X154210000Y-117192000D01*
X153440000Y-118562000D02*
X154210000Y-118562000D01*
X154210000Y-117192000D02*
X160750000Y-117192000D01*
X160750000Y-119932000D02*
X154210000Y-119932000D01*
%TO.C,C11*%
X153054267Y-129740000D02*
X152761733Y-129740000D01*
X153054267Y-128720000D02*
X152761733Y-128720000D01*
%TO.C,SW1*%
X156824000Y-132934000D02*
X156824000Y-138734000D01*
X151024000Y-138734000D02*
X151024000Y-132934000D01*
X151024000Y-132934000D02*
X156824000Y-132934000D01*
X151024000Y-138734000D02*
X156824000Y-138734000D01*
%TO.C,J1*%
X141478000Y-143000000D02*
X140478000Y-142000000D01*
X133978000Y-143200000D02*
X148978000Y-143200000D01*
X148978000Y-143200000D02*
X148978000Y-128200000D01*
X141478000Y-143000000D02*
X142478000Y-142000000D01*
X133978000Y-128200000D02*
X133978000Y-143200000D01*
X148978000Y-128200000D02*
X133978000Y-128200000D01*
%TO.C,R10*%
X174220000Y-103322000D02*
X173450000Y-103322000D01*
X166910000Y-101952000D02*
X173450000Y-101952000D01*
X173450000Y-101952000D02*
X173450000Y-104692000D01*
X166910000Y-104692000D02*
X166910000Y-101952000D01*
X166140000Y-103322000D02*
X166910000Y-103322000D01*
X173450000Y-104692000D02*
X166910000Y-104692000D01*
%TO.C,R5*%
X166910000Y-114852000D02*
X166910000Y-112112000D01*
X174220000Y-113482000D02*
X173450000Y-113482000D01*
X166910000Y-112112000D02*
X173450000Y-112112000D01*
X166140000Y-113482000D02*
X166910000Y-113482000D01*
X173450000Y-114852000D02*
X166910000Y-114852000D01*
X173450000Y-112112000D02*
X173450000Y-114852000D01*
%TO.C,R6*%
X161520000Y-113482000D02*
X160750000Y-113482000D01*
X154210000Y-112112000D02*
X160750000Y-112112000D01*
X160750000Y-114852000D02*
X154210000Y-114852000D01*
X160750000Y-112112000D02*
X160750000Y-114852000D01*
X153440000Y-113482000D02*
X154210000Y-113482000D01*
X154210000Y-114852000D02*
X154210000Y-112112000D01*
%TO.C,R12*%
X192178000Y-100758000D02*
X194918000Y-100758000D01*
X192178000Y-107298000D02*
X192178000Y-100758000D01*
X193548000Y-108068000D02*
X193548000Y-107298000D01*
X193548000Y-99988000D02*
X193548000Y-100758000D01*
X194918000Y-107298000D02*
X192178000Y-107298000D01*
X194918000Y-100758000D02*
X194918000Y-107298000D01*
%TO.C,R8*%
X166140000Y-108402000D02*
X166910000Y-108402000D01*
X166910000Y-109772000D02*
X166910000Y-107032000D01*
X166910000Y-107032000D02*
X173450000Y-107032000D01*
X173450000Y-109772000D02*
X166910000Y-109772000D01*
X174220000Y-108402000D02*
X173450000Y-108402000D01*
X173450000Y-107032000D02*
X173450000Y-109772000D01*
%TO.C,R7*%
X161068000Y-100120000D02*
X161068000Y-97380000D01*
X160298000Y-98750000D02*
X161068000Y-98750000D01*
X168378000Y-98750000D02*
X167608000Y-98750000D01*
X161068000Y-97380000D02*
X167608000Y-97380000D01*
X167608000Y-97380000D02*
X167608000Y-100120000D01*
X167608000Y-100120000D02*
X161068000Y-100120000D01*
%TO.C,R14*%
X148844000Y-111220000D02*
X148844000Y-111990000D01*
X150214000Y-111990000D02*
X150214000Y-118530000D01*
X147474000Y-118530000D02*
X147474000Y-111990000D01*
X147474000Y-111990000D02*
X150214000Y-111990000D01*
X150214000Y-118530000D02*
X147474000Y-118530000D01*
X148844000Y-119300000D02*
X148844000Y-118530000D01*
%TO.C,R13*%
X189460000Y-99456000D02*
X188690000Y-99456000D01*
X188690000Y-98086000D02*
X188690000Y-100826000D01*
X188690000Y-100826000D02*
X182150000Y-100826000D01*
X182150000Y-100826000D02*
X182150000Y-98086000D01*
X182150000Y-98086000D02*
X188690000Y-98086000D01*
X181380000Y-99456000D02*
X182150000Y-99456000D01*
%TO.C,C9*%
X153054267Y-128216000D02*
X152761733Y-128216000D01*
X153054267Y-127196000D02*
X152761733Y-127196000D01*
%TO.C,J3*%
X188976000Y-143000000D02*
X187976000Y-142000000D01*
X181476000Y-143200000D02*
X196476000Y-143200000D01*
X196476000Y-143200000D02*
X196476000Y-128200000D01*
X188976000Y-143000000D02*
X189976000Y-142000000D01*
X181476000Y-128200000D02*
X181476000Y-143200000D01*
X196476000Y-128200000D02*
X181476000Y-128200000D01*
%TO.C,SW2*%
X185134000Y-123346000D02*
X185134000Y-122746000D01*
X184534000Y-122746000D02*
X184534000Y-112346000D01*
X184534000Y-112346000D02*
X185134000Y-112346000D01*
X193834000Y-122746000D02*
X193834000Y-123346000D01*
X194434000Y-122746000D02*
X193834000Y-122746000D01*
X194434000Y-112346000D02*
X194434000Y-122746000D01*
X185134000Y-112346000D02*
X185134000Y-111746000D01*
X185134000Y-122746000D02*
X184534000Y-122746000D01*
X193834000Y-111746000D02*
X193834000Y-112346000D01*
X193834000Y-112346000D02*
X194434000Y-112346000D01*
X193834000Y-123346000D02*
X185134000Y-123346000D01*
X193834000Y-111746000D02*
X185134000Y-111746000D01*
%TO.C,R3*%
X173450000Y-119932000D02*
X166910000Y-119932000D01*
X166140000Y-118562000D02*
X166910000Y-118562000D01*
X173450000Y-117192000D02*
X173450000Y-119932000D01*
X174220000Y-118562000D02*
X173450000Y-118562000D01*
X166910000Y-117192000D02*
X173450000Y-117192000D01*
X166910000Y-119932000D02*
X166910000Y-117192000D01*
%TO.C,R1*%
X174220000Y-123642000D02*
X173450000Y-123642000D01*
X166910000Y-125012000D02*
X166910000Y-122272000D01*
X166910000Y-122272000D02*
X173450000Y-122272000D01*
X173450000Y-125012000D02*
X166910000Y-125012000D01*
X173450000Y-122272000D02*
X173450000Y-125012000D01*
X166140000Y-123642000D02*
X166910000Y-123642000D01*
%TD*%
M02*
