%TF.GenerationSoftware,KiCad,Pcbnew,(6.0.7)*%
%TF.CreationDate,2022-08-11T20:25:56-04:00*%
%TF.ProjectId,hexapod_interlock,68657861-706f-4645-9f69-6e7465726c6f,rev?*%
%TF.SameCoordinates,Original*%
%TF.FileFunction,Copper,L1,Top*%
%TF.FilePolarity,Positive*%
%FSLAX46Y46*%
G04 Gerber Fmt 4.6, Leading zero omitted, Abs format (unit mm)*
G04 Created by KiCad (PCBNEW (6.0.7)) date 2022-08-11 20:25:56*
%MOMM*%
%LPD*%
G01*
G04 APERTURE LIST*
G04 Aperture macros list*
%AMRoundRect*
0 Rectangle with rounded corners*
0 $1 Rounding radius*
0 $2 $3 $4 $5 $6 $7 $8 $9 X,Y pos of 4 corners*
0 Add a 4 corners polygon primitive as box body*
4,1,4,$2,$3,$4,$5,$6,$7,$8,$9,$2,$3,0*
0 Add four circle primitives for the rounded corners*
1,1,$1+$1,$2,$3*
1,1,$1+$1,$4,$5*
1,1,$1+$1,$6,$7*
1,1,$1+$1,$8,$9*
0 Add four rect primitives between the rounded corners*
20,1,$1+$1,$2,$3,$4,$5,0*
20,1,$1+$1,$4,$5,$6,$7,0*
20,1,$1+$1,$6,$7,$8,$9,0*
20,1,$1+$1,$8,$9,$2,$3,0*%
G04 Aperture macros list end*
%TA.AperFunction,Profile*%
%ADD10C,0.100000*%
%TD*%
%TA.AperFunction,SMDPad,CuDef*%
%ADD11RoundRect,0.237500X-0.300000X-0.237500X0.300000X-0.237500X0.300000X0.237500X-0.300000X0.237500X0*%
%TD*%
%TA.AperFunction,SMDPad,CuDef*%
%ADD12R,1.600000X1.300000*%
%TD*%
%TA.AperFunction,SMDPad,CuDef*%
%ADD13R,1.600000X2.000000*%
%TD*%
%TA.AperFunction,SMDPad,CuDef*%
%ADD14RoundRect,0.237500X0.237500X-0.300000X0.237500X0.300000X-0.237500X0.300000X-0.237500X-0.300000X0*%
%TD*%
%TA.AperFunction,SMDPad,CuDef*%
%ADD15RoundRect,0.237500X-0.237500X0.300000X-0.237500X-0.300000X0.237500X-0.300000X0.237500X0.300000X0*%
%TD*%
%TA.AperFunction,SMDPad,CuDef*%
%ADD16R,1.560000X0.650000*%
%TD*%
%TA.AperFunction,ComponentPad*%
%ADD17C,1.600000*%
%TD*%
%TA.AperFunction,ComponentPad*%
%ADD18O,1.600000X1.600000*%
%TD*%
%TA.AperFunction,ComponentPad*%
%ADD19C,3.048000*%
%TD*%
%TA.AperFunction,ComponentPad*%
%ADD20O,1.600000X2.500000*%
%TD*%
%TA.AperFunction,ComponentPad*%
%ADD21O,3.500000X7.000000*%
%TD*%
%TA.AperFunction,ComponentPad*%
%ADD22C,1.800000*%
%TD*%
%TA.AperFunction,ComponentPad*%
%ADD23C,2.500000*%
%TD*%
%TA.AperFunction,ViaPad*%
%ADD24C,0.800000*%
%TD*%
%TA.AperFunction,Conductor*%
%ADD25C,1.270000*%
%TD*%
%TA.AperFunction,Conductor*%
%ADD26C,0.250000*%
%TD*%
G04 APERTURE END LIST*
D10*
X140208000Y-151384000D02*
X140208000Y-107696000D01*
X77724000Y-107696000D02*
X140208000Y-107696000D01*
X77724000Y-151384000D02*
X140208000Y-151384000D01*
X77724000Y-107696000D02*
X77724000Y-151384000D01*
D11*
%TO.P,C14,1*%
%TO.N,Net-(C13-Pad1)*%
X137313500Y-112466000D03*
%TO.P,C14,2*%
%TO.N,GND*%
X139038500Y-112466000D03*
%TD*%
D12*
%TO.P,RV1,1,1*%
%TO.N,GND*%
X125042000Y-113756000D03*
D13*
%TO.P,RV1,2,2*%
%TO.N,Net-(RV1-Pad2)*%
X127942000Y-115006000D03*
D12*
%TO.P,RV1,3,3*%
%TO.N,4.3V*%
X125042000Y-116256000D03*
%TD*%
D14*
%TO.P,C6,1*%
%TO.N,+5V*%
X134620000Y-120750500D03*
%TO.P,C6,2*%
%TO.N,GND*%
X134620000Y-119025500D03*
%TD*%
D11*
%TO.P,C13,1*%
%TO.N,Net-(C13-Pad1)*%
X137313500Y-114498000D03*
%TO.P,C13,2*%
%TO.N,GND*%
X139038500Y-114498000D03*
%TD*%
D14*
%TO.P,C2,1*%
%TO.N,+5V*%
X131572000Y-120750500D03*
%TO.P,C2,2*%
%TO.N,GND*%
X131572000Y-119025500D03*
%TD*%
D15*
%TO.P,C3,1*%
%TO.N,Contact*%
X88392000Y-136551500D03*
%TO.P,C3,2*%
%TO.N,GND*%
X88392000Y-138276500D03*
%TD*%
D11*
%TO.P,C15,1*%
%TO.N,Net-(C13-Pad1)*%
X137313500Y-116530000D03*
%TO.P,C15,2*%
%TO.N,GND*%
X139038500Y-116530000D03*
%TD*%
D15*
%TO.P,C5,1*%
%TO.N,Contact*%
X86868000Y-136551500D03*
%TO.P,C5,2*%
%TO.N,GND*%
X86868000Y-138276500D03*
%TD*%
D11*
%TO.P,C12,1*%
%TO.N,4.3V*%
X122073500Y-123642000D03*
%TO.P,C12,2*%
%TO.N,GND*%
X123798500Y-123642000D03*
%TD*%
%TO.P,C10,1*%
%TO.N,4.3V*%
X122073500Y-121610000D03*
%TO.P,C10,2*%
%TO.N,GND*%
X123798500Y-121610000D03*
%TD*%
D16*
%TO.P,U1,1,VIN*%
%TO.N,+5V*%
X133430000Y-116972000D03*
%TO.P,U1,2,GND*%
%TO.N,GND*%
X133430000Y-116022000D03*
%TO.P,U1,3,EN*%
%TO.N,Net-(C13-Pad1)*%
X133430000Y-115072000D03*
%TO.P,U1,4,ADJ*%
%TO.N,Net-(RV1-Pad2)*%
X130730000Y-115072000D03*
%TO.P,U1,5,VOUT*%
%TO.N,4.3V*%
X130730000Y-116972000D03*
%TD*%
D15*
%TO.P,C1,1*%
%TO.N,Contact*%
X89916000Y-136551500D03*
%TO.P,C1,2*%
%TO.N,GND*%
X89916000Y-138276500D03*
%TD*%
D14*
%TO.P,C4,1*%
%TO.N,+5V*%
X133096000Y-120750500D03*
%TO.P,C4,2*%
%TO.N,GND*%
X133096000Y-119025500D03*
%TD*%
D11*
%TO.P,C8,1*%
%TO.N,4.3V*%
X122073500Y-119578000D03*
%TO.P,C8,2*%
%TO.N,GND*%
X123798500Y-119578000D03*
%TD*%
D17*
%TO.P,R2,1*%
%TO.N,Net-(R1-Pad2)*%
X106172000Y-134112000D03*
D18*
%TO.P,R2,2*%
%TO.N,Coil*%
X96012000Y-134112000D03*
%TD*%
D17*
%TO.P,R11,1*%
%TO.N,Net-(R1-Pad2)*%
X106172000Y-113792000D03*
D18*
%TO.P,R11,2*%
%TO.N,Coil*%
X96012000Y-113792000D03*
%TD*%
D17*
%TO.P,R9,1*%
%TO.N,Net-(R1-Pad2)*%
X106172000Y-118872000D03*
D18*
%TO.P,R9,2*%
%TO.N,Coil*%
X96012000Y-118872000D03*
%TD*%
D17*
%TO.P,R4,1*%
%TO.N,Net-(R1-Pad2)*%
X106172000Y-129032000D03*
D18*
%TO.P,R4,2*%
%TO.N,Coil*%
X96012000Y-129032000D03*
%TD*%
D19*
%TO.P,K1,11*%
%TO.N,Net-(J2-Pad2)*%
X85598000Y-117426000D03*
%TO.P,K1,12*%
%TO.N,unconnected-(K1-Pad12)*%
X80518000Y-130126000D03*
%TO.P,K1,14*%
%TO.N,Net-(J2-Pad1)*%
X90678000Y-130126000D03*
%TO.P,K1,A1*%
%TO.N,GND*%
X90678000Y-119712000D03*
%TO.P,K1,A2*%
%TO.N,Coil*%
X80518000Y-119712000D03*
%TD*%
D20*
%TO.P,J1,1,In*%
%TO.N,Contact*%
X85090000Y-140970000D03*
D21*
%TO.P,J1,2,Ext*%
%TO.N,GND*%
X80010000Y-146050000D03*
D20*
X82550000Y-140970000D03*
D21*
X90170000Y-146050000D03*
%TD*%
D17*
%TO.P,R10,1*%
%TO.N,4.3V*%
X118872000Y-113792000D03*
D18*
%TO.P,R10,2*%
%TO.N,Net-(R1-Pad2)*%
X108712000Y-113792000D03*
%TD*%
D17*
%TO.P,R5,1*%
%TO.N,4.3V*%
X118872000Y-123952000D03*
D18*
%TO.P,R5,2*%
%TO.N,Net-(R1-Pad2)*%
X108712000Y-123952000D03*
%TD*%
D17*
%TO.P,R6,1*%
%TO.N,Net-(R1-Pad2)*%
X106172000Y-123952000D03*
D18*
%TO.P,R6,2*%
%TO.N,Coil*%
X96012000Y-123952000D03*
%TD*%
D20*
%TO.P,J2,1,In*%
%TO.N,Net-(J2-Pad1)*%
X110490000Y-140970000D03*
%TO.P,J2,2,Ext*%
%TO.N,Net-(J2-Pad2)*%
X107950000Y-140970000D03*
D21*
X115570000Y-146050000D03*
X105410000Y-146050000D03*
%TD*%
D17*
%TO.P,R12,1*%
%TO.N,+5V*%
X137160000Y-119578000D03*
D18*
%TO.P,R12,2*%
%TO.N,Net-(C13-Pad1)*%
X137160000Y-109418000D03*
%TD*%
D17*
%TO.P,R8,1*%
%TO.N,4.3V*%
X118872000Y-118872000D03*
D18*
%TO.P,R8,2*%
%TO.N,Net-(R1-Pad2)*%
X108712000Y-118872000D03*
%TD*%
D17*
%TO.P,R7,1*%
%TO.N,+5V*%
X113030000Y-109220000D03*
D18*
%TO.P,R7,2*%
%TO.N,Net-(R7-Pad2)*%
X102870000Y-109220000D03*
%TD*%
D17*
%TO.P,R13,1*%
%TO.N,Coil*%
X123952000Y-109926000D03*
D18*
%TO.P,R13,2*%
%TO.N,Net-(C13-Pad1)*%
X134112000Y-109926000D03*
%TD*%
D20*
%TO.P,J3,1,In*%
%TO.N,Net-(J3-Pad1)*%
X132588000Y-140970000D03*
D21*
%TO.P,J3,2,Ext*%
%TO.N,Net-(J3-Pad2)*%
X137668000Y-146050000D03*
X127508000Y-146050000D03*
D20*
X130048000Y-140970000D03*
%TD*%
D22*
%TO.P,SW2,*%
%TO.N,*%
X137796000Y-123516000D03*
X128396000Y-123516000D03*
X137796000Y-132516000D03*
X128396000Y-132516000D03*
D23*
%TO.P,SW2,1,A*%
%TO.N,Net-(J3-Pad1)*%
X135746000Y-131016000D03*
%TO.P,SW2,2,B*%
%TO.N,+5V*%
X135746000Y-128016000D03*
%TO.P,SW2,3,C*%
%TO.N,GND*%
X135746000Y-125016000D03*
%TO.P,SW2,4,A*%
%TO.N,Net-(J3-Pad2)*%
X130446000Y-131016000D03*
%TO.P,SW2,5,B*%
%TO.N,GND*%
X130446000Y-128016000D03*
%TO.P,SW2,6,C*%
X130446000Y-125016000D03*
%TD*%
D17*
%TO.P,R3,1*%
%TO.N,4.3V*%
X118872000Y-129032000D03*
D18*
%TO.P,R3,2*%
%TO.N,Net-(R1-Pad2)*%
X108712000Y-129032000D03*
%TD*%
D17*
%TO.P,R1,1*%
%TO.N,4.3V*%
X118872000Y-134112000D03*
D18*
%TO.P,R1,2*%
%TO.N,Net-(R1-Pad2)*%
X108712000Y-134112000D03*
%TD*%
D24*
%TO.N,Contact*%
X91948000Y-137668000D03*
%TO.N,GND*%
X99314000Y-138176000D03*
X104394000Y-139446000D03*
X95377000Y-140716000D03*
X82804000Y-124206000D03*
X135227199Y-116149807D03*
X99060000Y-139446000D03*
X87884000Y-124206000D03*
X126492000Y-112268000D03*
X125603000Y-119507000D03*
X122174000Y-133731000D03*
%TD*%
D25*
%TO.N,Contact*%
X85090000Y-137414000D02*
X85090000Y-140970000D01*
X90831500Y-136551500D02*
X91948000Y-137668000D01*
X85952500Y-136551500D02*
X85090000Y-137414000D01*
X89916000Y-136551500D02*
X90831500Y-136551500D01*
X88392000Y-136551500D02*
X89916000Y-136551500D01*
X86868000Y-136551500D02*
X85952500Y-136551500D01*
X86868000Y-136551500D02*
X88392000Y-136551500D01*
%TO.N,GND*%
X135746000Y-123080000D02*
X135746000Y-125016000D01*
X99060000Y-139446000D02*
X104394000Y-139446000D01*
X123798500Y-119578000D02*
X123798500Y-121610000D01*
X123798500Y-121610000D02*
X123798500Y-123642000D01*
X123869500Y-119507000D02*
X123798500Y-119578000D01*
X92917106Y-140716000D02*
X95377000Y-140716000D01*
X89916000Y-138276500D02*
X90477606Y-138276500D01*
X130446000Y-128016000D02*
X130446000Y-125016000D01*
X100584000Y-139446000D02*
X99314000Y-138176000D01*
X90477606Y-138276500D02*
X90908553Y-138707447D01*
X133096000Y-119025500D02*
X134431854Y-119025500D01*
X139038500Y-112466000D02*
X139038500Y-114498000D01*
X82804000Y-127697010D02*
X85090000Y-129983010D01*
X90678000Y-121412000D02*
X87884000Y-124206000D01*
X80010000Y-146050000D02*
X82550000Y-143510000D01*
X125042000Y-113718000D02*
X126492000Y-112268000D01*
X82550000Y-143510000D02*
X85090000Y-146050000D01*
X82804000Y-124206000D02*
X82804000Y-127697010D01*
X131572000Y-119025500D02*
X126084500Y-119025500D01*
X125042000Y-113756000D02*
X125042000Y-113718000D01*
D26*
X136269645Y-117330000D02*
X138238500Y-117330000D01*
D25*
X86868000Y-142240000D02*
X86868000Y-138276500D01*
X133096000Y-119025500D02*
X131572000Y-119025500D01*
D26*
X138238500Y-117330000D02*
X139038500Y-116530000D01*
D25*
X139038500Y-114498000D02*
X139038500Y-120295500D01*
X90170000Y-146050000D02*
X80010000Y-146050000D01*
X85090000Y-129983010D02*
X85090000Y-134874000D01*
X137553000Y-121781000D02*
X137045000Y-121781000D01*
X139038500Y-114498000D02*
X139038500Y-116530000D01*
X80010000Y-146050000D02*
X83439000Y-146050000D01*
X134431854Y-119025500D02*
X134525927Y-119119573D01*
D26*
X134961646Y-116022000D02*
X136269645Y-117330000D01*
D25*
X82550000Y-137414000D02*
X82550000Y-140970000D01*
X137045000Y-121781000D02*
X135746000Y-123080000D01*
X85090000Y-146050000D02*
X90170000Y-146050000D01*
D26*
X135099392Y-116022000D02*
X135227199Y-116149807D01*
D25*
X90678000Y-119712000D02*
X90678000Y-121412000D01*
X139038500Y-120295500D02*
X137553000Y-121781000D01*
X82931000Y-140589000D02*
X82550000Y-140970000D01*
X90908553Y-138707447D02*
X92917106Y-140716000D01*
X104394000Y-139446000D02*
X100584000Y-139446000D01*
X85090000Y-134874000D02*
X82550000Y-137414000D01*
X90170000Y-146050000D02*
X90170000Y-145542000D01*
X126084500Y-119025500D02*
X125603000Y-119507000D01*
X90170000Y-145542000D02*
X86868000Y-142240000D01*
X125603000Y-119507000D02*
X123869500Y-119507000D01*
X82550000Y-140970000D02*
X82550000Y-143510000D01*
X86868000Y-138276500D02*
X88392000Y-138276500D01*
X88392000Y-138276500D02*
X89916000Y-138276500D01*
D26*
X133430000Y-116022000D02*
X135099392Y-116022000D01*
X133430000Y-116022000D02*
X134961646Y-116022000D01*
D25*
X123798500Y-123642000D02*
X123798500Y-132106500D01*
X123798500Y-132106500D02*
X122174000Y-133731000D01*
D26*
%TO.N,+5V*%
X134554000Y-116972000D02*
X137160000Y-119578000D01*
D25*
X131572000Y-120750500D02*
X133096000Y-120750500D01*
X132842000Y-126238000D02*
X134620000Y-128016000D01*
X132842000Y-124206000D02*
X132842000Y-126238000D01*
D26*
X133430000Y-116972000D02*
X134554000Y-116972000D01*
D25*
X135987500Y-120750500D02*
X137160000Y-119578000D01*
X131572000Y-122936000D02*
X132842000Y-124206000D01*
X134620000Y-128016000D02*
X135746000Y-128016000D01*
X134620000Y-120750500D02*
X135987500Y-120750500D01*
X133096000Y-120750500D02*
X134620000Y-120750500D01*
X131572000Y-120750500D02*
X131572000Y-122936000D01*
D26*
%TO.N,Coil*%
X123952000Y-109926000D02*
X122738000Y-109926000D01*
D25*
X96012000Y-129032000D02*
X96012000Y-134112000D01*
X96012000Y-118872000D02*
X96012000Y-123952000D01*
X80518000Y-117556739D02*
X84282739Y-113792000D01*
D26*
X122738000Y-109926000D02*
X120904000Y-111760000D01*
D25*
X84282739Y-113792000D02*
X96012000Y-113792000D01*
X80518000Y-119712000D02*
X80518000Y-117556739D01*
D26*
X120904000Y-111760000D02*
X98044000Y-111760000D01*
X98044000Y-111760000D02*
X96012000Y-113792000D01*
D25*
X96012000Y-123952000D02*
X96012000Y-129032000D01*
X96012000Y-113792000D02*
X96012000Y-118872000D01*
%TO.N,4.3V*%
X118872000Y-113792000D02*
X118872000Y-118872000D01*
X118872000Y-123952000D02*
X118872000Y-129032000D01*
X118872000Y-118872000D02*
X118872000Y-123952000D01*
X122073500Y-119578000D02*
X122073500Y-119224500D01*
X122073500Y-119224500D02*
X124459000Y-116839000D01*
X122073500Y-121610000D02*
X122073500Y-123642000D01*
X124459000Y-116839000D02*
X125042000Y-116256000D01*
X118872000Y-129032000D02*
X118872000Y-134112000D01*
X124592000Y-116972000D02*
X129408000Y-116972000D01*
D26*
X129408000Y-116972000D02*
X125758000Y-116972000D01*
X125758000Y-116972000D02*
X125042000Y-116256000D01*
D25*
X122073500Y-119578000D02*
X122073500Y-121610000D01*
D26*
X130730000Y-116972000D02*
X129408000Y-116972000D01*
D25*
X122073500Y-125830500D02*
X118872000Y-129032000D01*
X124459000Y-116839000D02*
X124592000Y-116972000D01*
X122073500Y-123642000D02*
X122073500Y-125830500D01*
D26*
%TO.N,Net-(C13-Pad1)*%
X137160000Y-112312500D02*
X137313500Y-112466000D01*
X136632697Y-116530000D02*
X135174697Y-115072000D01*
X137160000Y-109418000D02*
X137160000Y-112312500D01*
X135174697Y-115072000D02*
X133430000Y-115072000D01*
X134112000Y-109926000D02*
X136652000Y-109926000D01*
X136652000Y-109926000D02*
X137160000Y-109418000D01*
X137313500Y-116530000D02*
X136632697Y-116530000D01*
X137313500Y-114498000D02*
X137313500Y-116530000D01*
X137313500Y-112466000D02*
X137313500Y-114498000D01*
%TO.N,Net-(J2-Pad1)*%
X94996000Y-136398000D02*
X90678000Y-132080000D01*
X90678000Y-132080000D02*
X90678000Y-130126000D01*
X110490000Y-140462000D02*
X106426000Y-136398000D01*
X106426000Y-136398000D02*
X94996000Y-136398000D01*
X110490000Y-140970000D02*
X110490000Y-140462000D01*
D25*
%TO.N,Net-(J2-Pad2)*%
X107950000Y-143510000D02*
X105410000Y-146050000D01*
X107950000Y-143510000D02*
X110490000Y-146050000D01*
X107950000Y-140970000D02*
X107950000Y-143510000D01*
D26*
X85598000Y-128676881D02*
X85598000Y-117426000D01*
X115570000Y-146050000D02*
X115570000Y-143510000D01*
D25*
X110490000Y-146050000D02*
X115570000Y-146050000D01*
X110490000Y-146050000D02*
X105410000Y-146050000D01*
D26*
X85598000Y-128676881D02*
X102971119Y-146050000D01*
X102971119Y-146050000D02*
X105410000Y-146050000D01*
D25*
%TO.N,Net-(J3-Pad1)*%
X132588000Y-134174000D02*
X135746000Y-131016000D01*
X132588000Y-140970000D02*
X132588000Y-134174000D01*
%TO.N,Net-(J3-Pad2)*%
X137668000Y-146050000D02*
X132588000Y-146050000D01*
X130446000Y-140572000D02*
X130446000Y-131016000D01*
X130048000Y-140970000D02*
X130048000Y-143510000D01*
X127508000Y-146050000D02*
X137668000Y-146050000D01*
X130048000Y-143510000D02*
X127508000Y-146050000D01*
X132588000Y-146050000D02*
X130048000Y-143510000D01*
X130048000Y-140970000D02*
X130446000Y-140572000D01*
X137668000Y-146050000D02*
X137668000Y-143510000D01*
%TO.N,Net-(R1-Pad2)*%
X106172000Y-118872000D02*
X106172000Y-123952000D01*
X106172000Y-118872000D02*
X108712000Y-118872000D01*
X106172000Y-123952000D02*
X106172000Y-129032000D01*
X106172000Y-134112000D02*
X108712000Y-134112000D01*
X106172000Y-123952000D02*
X108712000Y-123952000D01*
X106172000Y-129032000D02*
X108712000Y-129032000D01*
X106172000Y-113792000D02*
X106172000Y-118872000D01*
X106172000Y-129032000D02*
X106172000Y-134112000D01*
X106172000Y-113792000D02*
X108712000Y-113792000D01*
D26*
%TO.N,Net-(RV1-Pad2)*%
X128008000Y-115072000D02*
X127942000Y-115006000D01*
X130730000Y-115072000D02*
X128008000Y-115072000D01*
%TD*%
%TA.AperFunction,Conductor*%
%TO.N,4.3V*%
G36*
X118275873Y-112413502D02*
G01*
X118322366Y-112467158D01*
X118332470Y-112537432D01*
X118302976Y-112602012D01*
X118261002Y-112633695D01*
X118220489Y-112652586D01*
X118210994Y-112658069D01*
X118158952Y-112694509D01*
X118150576Y-112704988D01*
X118157644Y-112718434D01*
X119946287Y-114507077D01*
X119960231Y-114514691D01*
X119976800Y-114513506D01*
X120005019Y-114502468D01*
X120074624Y-114516458D01*
X120125616Y-114565857D01*
X120142000Y-114627989D01*
X120142000Y-118034822D01*
X120121998Y-118102943D01*
X120068342Y-118149436D01*
X119998068Y-118159540D01*
X119979053Y-118151308D01*
X119961146Y-118149455D01*
X119945566Y-118157644D01*
X119244022Y-118859188D01*
X119236408Y-118873132D01*
X119236539Y-118874965D01*
X119240790Y-118881580D01*
X119946287Y-119587077D01*
X119960231Y-119594691D01*
X119976800Y-119593506D01*
X120005019Y-119582468D01*
X120074624Y-119596458D01*
X120125616Y-119645857D01*
X120142000Y-119707989D01*
X120142000Y-123114822D01*
X120121998Y-123182943D01*
X120068342Y-123229436D01*
X119998068Y-123239540D01*
X119979053Y-123231308D01*
X119961146Y-123229455D01*
X119945566Y-123237644D01*
X119244022Y-123939188D01*
X119236408Y-123953132D01*
X119236539Y-123954965D01*
X119240790Y-123961580D01*
X119946287Y-124667077D01*
X119960231Y-124674691D01*
X119976800Y-124673506D01*
X120005019Y-124662468D01*
X120074624Y-124676458D01*
X120125616Y-124725857D01*
X120142000Y-124787989D01*
X120142000Y-128194822D01*
X120121998Y-128262943D01*
X120068342Y-128309436D01*
X119998068Y-128319540D01*
X119979053Y-128311308D01*
X119961146Y-128309455D01*
X119945566Y-128317644D01*
X119244022Y-129019188D01*
X119236408Y-129033132D01*
X119236539Y-129034965D01*
X119240790Y-129041580D01*
X119946287Y-129747077D01*
X119960231Y-129754691D01*
X119976800Y-129753506D01*
X120005019Y-129742468D01*
X120074624Y-129756458D01*
X120125616Y-129805857D01*
X120142000Y-129867989D01*
X120142000Y-133274822D01*
X120121998Y-133342943D01*
X120068342Y-133389436D01*
X119998068Y-133399540D01*
X119979053Y-133391308D01*
X119961146Y-133389455D01*
X119945566Y-133397644D01*
X118156923Y-135186287D01*
X118150493Y-135198062D01*
X118159789Y-135210077D01*
X118210994Y-135245931D01*
X118220489Y-135251414D01*
X118417947Y-135343490D01*
X118428239Y-135347236D01*
X118581467Y-135388293D01*
X118642090Y-135425245D01*
X118673111Y-135489105D01*
X118664683Y-135559600D01*
X118619480Y-135614347D01*
X118548856Y-135636000D01*
X113918000Y-135636000D01*
X113849879Y-135615998D01*
X113803386Y-135562342D01*
X113792000Y-135510000D01*
X113792000Y-134117475D01*
X117559483Y-134117475D01*
X117578472Y-134334519D01*
X117580375Y-134345312D01*
X117636764Y-134555761D01*
X117640510Y-134566053D01*
X117732586Y-134763511D01*
X117738069Y-134773006D01*
X117774509Y-134825048D01*
X117784988Y-134833424D01*
X117798434Y-134826356D01*
X118499978Y-134124812D01*
X118507592Y-134110868D01*
X118507461Y-134109035D01*
X118503210Y-134102420D01*
X117797713Y-133396923D01*
X117785938Y-133390493D01*
X117773923Y-133399789D01*
X117738069Y-133450994D01*
X117732586Y-133460489D01*
X117640510Y-133657947D01*
X117636764Y-133668239D01*
X117580375Y-133878688D01*
X117578472Y-133889481D01*
X117559483Y-134106525D01*
X117559483Y-134117475D01*
X113792000Y-134117475D01*
X113792000Y-133024988D01*
X118150576Y-133024988D01*
X118157644Y-133038434D01*
X118859188Y-133739978D01*
X118873132Y-133747592D01*
X118874965Y-133747461D01*
X118881580Y-133743210D01*
X119587077Y-133037713D01*
X119593507Y-133025938D01*
X119584211Y-133013923D01*
X119533006Y-132978069D01*
X119523511Y-132972586D01*
X119326053Y-132880510D01*
X119315761Y-132876764D01*
X119105312Y-132820375D01*
X119094519Y-132818472D01*
X118877475Y-132799483D01*
X118866525Y-132799483D01*
X118649481Y-132818472D01*
X118638688Y-132820375D01*
X118428239Y-132876764D01*
X118417947Y-132880510D01*
X118220489Y-132972586D01*
X118210994Y-132978069D01*
X118158952Y-133014509D01*
X118150576Y-133024988D01*
X113792000Y-133024988D01*
X113792000Y-130118062D01*
X118150493Y-130118062D01*
X118159789Y-130130077D01*
X118210994Y-130165931D01*
X118220489Y-130171414D01*
X118417947Y-130263490D01*
X118428239Y-130267236D01*
X118638688Y-130323625D01*
X118649481Y-130325528D01*
X118866525Y-130344517D01*
X118877475Y-130344517D01*
X119094519Y-130325528D01*
X119105312Y-130323625D01*
X119315761Y-130267236D01*
X119326053Y-130263490D01*
X119523511Y-130171414D01*
X119533006Y-130165931D01*
X119585048Y-130129491D01*
X119593424Y-130119012D01*
X119586356Y-130105566D01*
X118884812Y-129404022D01*
X118870868Y-129396408D01*
X118869035Y-129396539D01*
X118862420Y-129400790D01*
X118156923Y-130106287D01*
X118150493Y-130118062D01*
X113792000Y-130118062D01*
X113792000Y-129037475D01*
X117559483Y-129037475D01*
X117578472Y-129254519D01*
X117580375Y-129265312D01*
X117636764Y-129475761D01*
X117640510Y-129486053D01*
X117732586Y-129683511D01*
X117738069Y-129693006D01*
X117774509Y-129745048D01*
X117784988Y-129753424D01*
X117798434Y-129746356D01*
X118499978Y-129044812D01*
X118507592Y-129030868D01*
X118507461Y-129029035D01*
X118503210Y-129022420D01*
X117797713Y-128316923D01*
X117785938Y-128310493D01*
X117773923Y-128319789D01*
X117738069Y-128370994D01*
X117732586Y-128380489D01*
X117640510Y-128577947D01*
X117636764Y-128588239D01*
X117580375Y-128798688D01*
X117578472Y-128809481D01*
X117559483Y-129026525D01*
X117559483Y-129037475D01*
X113792000Y-129037475D01*
X113792000Y-127944988D01*
X118150576Y-127944988D01*
X118157644Y-127958434D01*
X118859188Y-128659978D01*
X118873132Y-128667592D01*
X118874965Y-128667461D01*
X118881580Y-128663210D01*
X119587077Y-127957713D01*
X119593507Y-127945938D01*
X119584211Y-127933923D01*
X119533006Y-127898069D01*
X119523511Y-127892586D01*
X119326053Y-127800510D01*
X119315761Y-127796764D01*
X119105312Y-127740375D01*
X119094519Y-127738472D01*
X118877475Y-127719483D01*
X118866525Y-127719483D01*
X118649481Y-127738472D01*
X118638688Y-127740375D01*
X118428239Y-127796764D01*
X118417947Y-127800510D01*
X118220489Y-127892586D01*
X118210994Y-127898069D01*
X118158952Y-127934509D01*
X118150576Y-127944988D01*
X113792000Y-127944988D01*
X113792000Y-125038062D01*
X118150493Y-125038062D01*
X118159789Y-125050077D01*
X118210994Y-125085931D01*
X118220489Y-125091414D01*
X118417947Y-125183490D01*
X118428239Y-125187236D01*
X118638688Y-125243625D01*
X118649481Y-125245528D01*
X118866525Y-125264517D01*
X118877475Y-125264517D01*
X119094519Y-125245528D01*
X119105312Y-125243625D01*
X119315761Y-125187236D01*
X119326053Y-125183490D01*
X119523511Y-125091414D01*
X119533006Y-125085931D01*
X119585048Y-125049491D01*
X119593424Y-125039012D01*
X119586356Y-125025566D01*
X118884812Y-124324022D01*
X118870868Y-124316408D01*
X118869035Y-124316539D01*
X118862420Y-124320790D01*
X118156923Y-125026287D01*
X118150493Y-125038062D01*
X113792000Y-125038062D01*
X113792000Y-123957475D01*
X117559483Y-123957475D01*
X117578472Y-124174519D01*
X117580375Y-124185312D01*
X117636764Y-124395761D01*
X117640510Y-124406053D01*
X117732586Y-124603511D01*
X117738069Y-124613006D01*
X117774509Y-124665048D01*
X117784988Y-124673424D01*
X117798434Y-124666356D01*
X118499978Y-123964812D01*
X118507592Y-123950868D01*
X118507461Y-123949035D01*
X118503210Y-123942420D01*
X117797713Y-123236923D01*
X117785938Y-123230493D01*
X117773923Y-123239789D01*
X117738069Y-123290994D01*
X117732586Y-123300489D01*
X117640510Y-123497947D01*
X117636764Y-123508239D01*
X117580375Y-123718688D01*
X117578472Y-123729481D01*
X117559483Y-123946525D01*
X117559483Y-123957475D01*
X113792000Y-123957475D01*
X113792000Y-122864988D01*
X118150576Y-122864988D01*
X118157644Y-122878434D01*
X118859188Y-123579978D01*
X118873132Y-123587592D01*
X118874965Y-123587461D01*
X118881580Y-123583210D01*
X119587077Y-122877713D01*
X119593507Y-122865938D01*
X119584211Y-122853923D01*
X119533006Y-122818069D01*
X119523511Y-122812586D01*
X119326053Y-122720510D01*
X119315761Y-122716764D01*
X119105312Y-122660375D01*
X119094519Y-122658472D01*
X118877475Y-122639483D01*
X118866525Y-122639483D01*
X118649481Y-122658472D01*
X118638688Y-122660375D01*
X118428239Y-122716764D01*
X118417947Y-122720510D01*
X118220489Y-122812586D01*
X118210994Y-122818069D01*
X118158952Y-122854509D01*
X118150576Y-122864988D01*
X113792000Y-122864988D01*
X113792000Y-119958062D01*
X118150493Y-119958062D01*
X118159789Y-119970077D01*
X118210994Y-120005931D01*
X118220489Y-120011414D01*
X118417947Y-120103490D01*
X118428239Y-120107236D01*
X118638688Y-120163625D01*
X118649481Y-120165528D01*
X118866525Y-120184517D01*
X118877475Y-120184517D01*
X119094519Y-120165528D01*
X119105312Y-120163625D01*
X119315761Y-120107236D01*
X119326053Y-120103490D01*
X119523511Y-120011414D01*
X119533006Y-120005931D01*
X119585048Y-119969491D01*
X119593424Y-119959012D01*
X119586356Y-119945566D01*
X118884812Y-119244022D01*
X118870868Y-119236408D01*
X118869035Y-119236539D01*
X118862420Y-119240790D01*
X118156923Y-119946287D01*
X118150493Y-119958062D01*
X113792000Y-119958062D01*
X113792000Y-118877475D01*
X117559483Y-118877475D01*
X117578472Y-119094519D01*
X117580375Y-119105312D01*
X117636764Y-119315761D01*
X117640510Y-119326053D01*
X117732586Y-119523511D01*
X117738069Y-119533006D01*
X117774509Y-119585048D01*
X117784988Y-119593424D01*
X117798434Y-119586356D01*
X118499978Y-118884812D01*
X118507592Y-118870868D01*
X118507461Y-118869035D01*
X118503210Y-118862420D01*
X117797713Y-118156923D01*
X117785938Y-118150493D01*
X117773923Y-118159789D01*
X117738069Y-118210994D01*
X117732586Y-118220489D01*
X117640510Y-118417947D01*
X117636764Y-118428239D01*
X117580375Y-118638688D01*
X117578472Y-118649481D01*
X117559483Y-118866525D01*
X117559483Y-118877475D01*
X113792000Y-118877475D01*
X113792000Y-117784988D01*
X118150576Y-117784988D01*
X118157644Y-117798434D01*
X118859188Y-118499978D01*
X118873132Y-118507592D01*
X118874965Y-118507461D01*
X118881580Y-118503210D01*
X119587077Y-117797713D01*
X119593507Y-117785938D01*
X119584211Y-117773923D01*
X119533006Y-117738069D01*
X119523511Y-117732586D01*
X119326053Y-117640510D01*
X119315761Y-117636764D01*
X119105312Y-117580375D01*
X119094519Y-117578472D01*
X118877475Y-117559483D01*
X118866525Y-117559483D01*
X118649481Y-117578472D01*
X118638688Y-117580375D01*
X118428239Y-117636764D01*
X118417947Y-117640510D01*
X118220489Y-117732586D01*
X118210994Y-117738069D01*
X118158952Y-117774509D01*
X118150576Y-117784988D01*
X113792000Y-117784988D01*
X113792000Y-114878062D01*
X118150493Y-114878062D01*
X118159789Y-114890077D01*
X118210994Y-114925931D01*
X118220489Y-114931414D01*
X118417947Y-115023490D01*
X118428239Y-115027236D01*
X118638688Y-115083625D01*
X118649481Y-115085528D01*
X118866525Y-115104517D01*
X118877475Y-115104517D01*
X119094519Y-115085528D01*
X119105312Y-115083625D01*
X119315761Y-115027236D01*
X119326053Y-115023490D01*
X119523511Y-114931414D01*
X119533006Y-114925931D01*
X119585048Y-114889491D01*
X119593424Y-114879012D01*
X119586356Y-114865566D01*
X118884812Y-114164022D01*
X118870868Y-114156408D01*
X118869035Y-114156539D01*
X118862420Y-114160790D01*
X118156923Y-114866287D01*
X118150493Y-114878062D01*
X113792000Y-114878062D01*
X113792000Y-113797475D01*
X117559483Y-113797475D01*
X117578472Y-114014519D01*
X117580375Y-114025312D01*
X117636764Y-114235761D01*
X117640510Y-114246053D01*
X117732586Y-114443511D01*
X117738069Y-114453006D01*
X117774509Y-114505048D01*
X117784988Y-114513424D01*
X117798434Y-114506356D01*
X118499978Y-113804812D01*
X118507592Y-113790868D01*
X118507461Y-113789035D01*
X118503210Y-113782420D01*
X117797713Y-113076923D01*
X117785938Y-113070493D01*
X117773923Y-113079789D01*
X117738069Y-113130994D01*
X117732586Y-113140489D01*
X117640510Y-113337947D01*
X117636764Y-113348239D01*
X117580375Y-113558688D01*
X117578472Y-113569481D01*
X117559483Y-113786525D01*
X117559483Y-113797475D01*
X113792000Y-113797475D01*
X113792000Y-112519500D01*
X113812002Y-112451379D01*
X113865658Y-112404886D01*
X113918000Y-112393500D01*
X118207752Y-112393500D01*
X118275873Y-112413502D01*
G37*
%TD.AperFunction*%
%TD*%
%TA.AperFunction,Conductor*%
%TO.N,Net-(R1-Pad2)*%
G36*
X105575873Y-112413502D02*
G01*
X105622366Y-112467158D01*
X105632470Y-112537432D01*
X105602976Y-112602012D01*
X105561002Y-112633695D01*
X105520489Y-112652586D01*
X105510994Y-112658069D01*
X105458952Y-112694509D01*
X105450576Y-112704988D01*
X105457644Y-112718434D01*
X106159188Y-113419978D01*
X106173132Y-113427592D01*
X106174965Y-113427461D01*
X106181580Y-113423210D01*
X106887077Y-112717713D01*
X106893507Y-112705938D01*
X106884211Y-112693923D01*
X106833006Y-112658069D01*
X106823511Y-112652586D01*
X106782998Y-112633695D01*
X106729713Y-112586778D01*
X106710252Y-112518500D01*
X106730794Y-112450540D01*
X106784817Y-112404475D01*
X106836248Y-112393500D01*
X108047752Y-112393500D01*
X108115873Y-112413502D01*
X108162366Y-112467158D01*
X108172470Y-112537432D01*
X108142976Y-112602012D01*
X108101002Y-112633695D01*
X108060489Y-112652586D01*
X108050993Y-112658069D01*
X107872533Y-112783028D01*
X107864125Y-112790084D01*
X107710084Y-112944125D01*
X107703028Y-112952533D01*
X107578069Y-113130993D01*
X107572586Y-113140489D01*
X107556195Y-113175641D01*
X107509278Y-113228926D01*
X107441001Y-113248387D01*
X107373041Y-113227845D01*
X107327805Y-113175641D01*
X107311414Y-113140489D01*
X107305931Y-113130994D01*
X107269491Y-113078952D01*
X107259012Y-113070576D01*
X107245566Y-113077644D01*
X106544022Y-113779188D01*
X106536408Y-113793132D01*
X106536539Y-113794965D01*
X106540790Y-113801580D01*
X107246287Y-114507077D01*
X107258062Y-114513507D01*
X107270077Y-114504211D01*
X107305931Y-114453006D01*
X107311414Y-114443511D01*
X107327805Y-114408359D01*
X107374722Y-114355074D01*
X107442999Y-114335613D01*
X107510959Y-114356155D01*
X107556195Y-114408359D01*
X107572586Y-114443511D01*
X107578069Y-114453007D01*
X107703028Y-114631467D01*
X107710084Y-114639875D01*
X107864125Y-114793916D01*
X107872533Y-114800972D01*
X108050993Y-114925931D01*
X108060489Y-114931414D01*
X108257947Y-115023490D01*
X108268239Y-115027236D01*
X108440503Y-115073394D01*
X108454599Y-115073058D01*
X108458000Y-115065116D01*
X108458000Y-115059967D01*
X108966000Y-115059967D01*
X108969973Y-115073498D01*
X108978522Y-115074727D01*
X109155761Y-115027236D01*
X109166053Y-115023490D01*
X109363511Y-114931414D01*
X109373007Y-114925931D01*
X109551467Y-114800972D01*
X109559875Y-114793916D01*
X109713916Y-114639875D01*
X109720972Y-114631467D01*
X109845931Y-114453007D01*
X109851414Y-114443511D01*
X109943490Y-114246053D01*
X109947236Y-114235761D01*
X109993394Y-114063497D01*
X109993058Y-114049401D01*
X109985116Y-114046000D01*
X108984115Y-114046000D01*
X108968876Y-114050475D01*
X108967671Y-114051865D01*
X108966000Y-114059548D01*
X108966000Y-115059967D01*
X108458000Y-115059967D01*
X108458000Y-113664000D01*
X108478002Y-113595879D01*
X108531658Y-113549386D01*
X108584000Y-113538000D01*
X109979967Y-113538000D01*
X109993498Y-113534027D01*
X109994727Y-113525478D01*
X109947236Y-113348239D01*
X109943490Y-113337947D01*
X109851414Y-113140489D01*
X109845931Y-113130993D01*
X109720972Y-112952533D01*
X109713916Y-112944125D01*
X109559875Y-112790084D01*
X109551467Y-112783028D01*
X109373007Y-112658069D01*
X109363511Y-112652586D01*
X109322998Y-112633695D01*
X109269713Y-112586778D01*
X109250252Y-112518500D01*
X109270794Y-112450540D01*
X109324817Y-112404475D01*
X109376248Y-112393500D01*
X112904000Y-112393500D01*
X112972121Y-112413502D01*
X113018614Y-112467158D01*
X113030000Y-112519500D01*
X113030000Y-135510000D01*
X113009998Y-135578121D01*
X112956342Y-135624614D01*
X112904000Y-135636000D01*
X109035144Y-135636000D01*
X108967023Y-135615998D01*
X108920530Y-135562342D01*
X108910426Y-135492068D01*
X108939920Y-135427488D01*
X109002533Y-135388293D01*
X109155761Y-135347236D01*
X109166053Y-135343490D01*
X109363511Y-135251414D01*
X109373007Y-135245931D01*
X109551467Y-135120972D01*
X109559875Y-135113916D01*
X109713916Y-134959875D01*
X109720972Y-134951467D01*
X109845931Y-134773007D01*
X109851414Y-134763511D01*
X109943490Y-134566053D01*
X109947236Y-134555761D01*
X109993394Y-134383497D01*
X109993058Y-134369401D01*
X109985116Y-134366000D01*
X108584000Y-134366000D01*
X108515879Y-134345998D01*
X108469386Y-134292342D01*
X108458000Y-134240000D01*
X108458000Y-133839885D01*
X108966000Y-133839885D01*
X108970475Y-133855124D01*
X108971865Y-133856329D01*
X108979548Y-133858000D01*
X109979967Y-133858000D01*
X109993498Y-133854027D01*
X109994727Y-133845478D01*
X109947236Y-133668239D01*
X109943490Y-133657947D01*
X109851414Y-133460489D01*
X109845931Y-133450993D01*
X109720972Y-133272533D01*
X109713916Y-133264125D01*
X109559875Y-133110084D01*
X109551467Y-133103028D01*
X109373007Y-132978069D01*
X109363511Y-132972586D01*
X109166053Y-132880510D01*
X109155761Y-132876764D01*
X108983497Y-132830606D01*
X108969401Y-132830942D01*
X108966000Y-132838884D01*
X108966000Y-133839885D01*
X108458000Y-133839885D01*
X108458000Y-132844033D01*
X108454027Y-132830502D01*
X108445478Y-132829273D01*
X108268239Y-132876764D01*
X108257947Y-132880510D01*
X108060489Y-132972586D01*
X108050993Y-132978069D01*
X107872533Y-133103028D01*
X107864125Y-133110084D01*
X107710084Y-133264125D01*
X107703028Y-133272533D01*
X107578069Y-133450993D01*
X107572586Y-133460489D01*
X107556195Y-133495641D01*
X107509278Y-133548926D01*
X107441001Y-133568387D01*
X107373041Y-133547845D01*
X107327805Y-133495641D01*
X107311414Y-133460489D01*
X107305931Y-133450994D01*
X107269491Y-133398952D01*
X107259012Y-133390576D01*
X107245566Y-133397644D01*
X106544022Y-134099188D01*
X106536408Y-134113132D01*
X106536539Y-134114965D01*
X106540790Y-134121580D01*
X107246287Y-134827077D01*
X107258062Y-134833507D01*
X107270077Y-134824211D01*
X107305931Y-134773006D01*
X107311414Y-134763511D01*
X107327805Y-134728359D01*
X107374722Y-134675074D01*
X107442999Y-134655613D01*
X107510959Y-134676155D01*
X107556195Y-134728359D01*
X107572586Y-134763511D01*
X107578069Y-134773007D01*
X107703028Y-134951467D01*
X107710084Y-134959875D01*
X107864125Y-135113916D01*
X107872533Y-135120972D01*
X108050993Y-135245931D01*
X108060489Y-135251414D01*
X108257947Y-135343490D01*
X108268239Y-135347236D01*
X108421467Y-135388293D01*
X108482090Y-135425245D01*
X108513111Y-135489105D01*
X108504683Y-135559600D01*
X108459480Y-135614347D01*
X108388856Y-135636000D01*
X106495144Y-135636000D01*
X106427023Y-135615998D01*
X106380530Y-135562342D01*
X106370426Y-135492068D01*
X106399920Y-135427488D01*
X106462533Y-135388293D01*
X106615761Y-135347236D01*
X106626053Y-135343490D01*
X106823511Y-135251414D01*
X106833006Y-135245931D01*
X106885048Y-135209491D01*
X106893424Y-135199012D01*
X106886356Y-135185566D01*
X106184812Y-134484022D01*
X106170868Y-134476408D01*
X106169035Y-134476539D01*
X106162420Y-134480790D01*
X105456923Y-135186287D01*
X105450493Y-135198062D01*
X105459789Y-135210077D01*
X105510994Y-135245931D01*
X105520489Y-135251414D01*
X105717947Y-135343490D01*
X105728239Y-135347236D01*
X105881467Y-135388293D01*
X105942090Y-135425245D01*
X105973111Y-135489105D01*
X105964683Y-135559600D01*
X105919480Y-135614347D01*
X105848856Y-135636000D01*
X101980000Y-135636000D01*
X101911879Y-135615998D01*
X101865386Y-135562342D01*
X101854000Y-135510000D01*
X101854000Y-134117475D01*
X104859483Y-134117475D01*
X104878472Y-134334519D01*
X104880375Y-134345312D01*
X104936764Y-134555761D01*
X104940510Y-134566053D01*
X105032586Y-134763511D01*
X105038069Y-134773006D01*
X105074509Y-134825048D01*
X105084988Y-134833424D01*
X105098434Y-134826356D01*
X105799978Y-134124812D01*
X105807592Y-134110868D01*
X105807461Y-134109035D01*
X105803210Y-134102420D01*
X105097713Y-133396923D01*
X105085938Y-133390493D01*
X105073923Y-133399789D01*
X105038069Y-133450994D01*
X105032586Y-133460489D01*
X104940510Y-133657947D01*
X104936764Y-133668239D01*
X104880375Y-133878688D01*
X104878472Y-133889481D01*
X104859483Y-134106525D01*
X104859483Y-134117475D01*
X101854000Y-134117475D01*
X101854000Y-133024988D01*
X105450576Y-133024988D01*
X105457644Y-133038434D01*
X106159188Y-133739978D01*
X106173132Y-133747592D01*
X106174965Y-133747461D01*
X106181580Y-133743210D01*
X106887077Y-133037713D01*
X106893507Y-133025938D01*
X106884211Y-133013923D01*
X106833006Y-132978069D01*
X106823511Y-132972586D01*
X106626053Y-132880510D01*
X106615761Y-132876764D01*
X106405312Y-132820375D01*
X106394519Y-132818472D01*
X106177475Y-132799483D01*
X106166525Y-132799483D01*
X105949481Y-132818472D01*
X105938688Y-132820375D01*
X105728239Y-132876764D01*
X105717947Y-132880510D01*
X105520489Y-132972586D01*
X105510994Y-132978069D01*
X105458952Y-133014509D01*
X105450576Y-133024988D01*
X101854000Y-133024988D01*
X101854000Y-130118062D01*
X105450493Y-130118062D01*
X105459789Y-130130077D01*
X105510994Y-130165931D01*
X105520489Y-130171414D01*
X105717947Y-130263490D01*
X105728239Y-130267236D01*
X105938688Y-130323625D01*
X105949481Y-130325528D01*
X106166525Y-130344517D01*
X106177475Y-130344517D01*
X106394519Y-130325528D01*
X106405312Y-130323625D01*
X106615761Y-130267236D01*
X106626053Y-130263490D01*
X106823511Y-130171414D01*
X106833006Y-130165931D01*
X106885048Y-130129491D01*
X106893424Y-130119012D01*
X106886356Y-130105566D01*
X106184812Y-129404022D01*
X106170868Y-129396408D01*
X106169035Y-129396539D01*
X106162420Y-129400790D01*
X105456923Y-130106287D01*
X105450493Y-130118062D01*
X101854000Y-130118062D01*
X101854000Y-129037475D01*
X104859483Y-129037475D01*
X104878472Y-129254519D01*
X104880375Y-129265312D01*
X104936764Y-129475761D01*
X104940510Y-129486053D01*
X105032586Y-129683511D01*
X105038069Y-129693006D01*
X105074509Y-129745048D01*
X105084988Y-129753424D01*
X105098434Y-129746356D01*
X105799978Y-129044812D01*
X105806356Y-129033132D01*
X106536408Y-129033132D01*
X106536539Y-129034965D01*
X106540790Y-129041580D01*
X107246287Y-129747077D01*
X107258062Y-129753507D01*
X107270077Y-129744211D01*
X107305931Y-129693006D01*
X107311414Y-129683511D01*
X107327805Y-129648359D01*
X107374722Y-129595074D01*
X107442999Y-129575613D01*
X107510959Y-129596155D01*
X107556195Y-129648359D01*
X107572586Y-129683511D01*
X107578069Y-129693007D01*
X107703028Y-129871467D01*
X107710084Y-129879875D01*
X107864125Y-130033916D01*
X107872533Y-130040972D01*
X108050993Y-130165931D01*
X108060489Y-130171414D01*
X108257947Y-130263490D01*
X108268239Y-130267236D01*
X108440503Y-130313394D01*
X108454599Y-130313058D01*
X108458000Y-130305116D01*
X108458000Y-130299967D01*
X108966000Y-130299967D01*
X108969973Y-130313498D01*
X108978522Y-130314727D01*
X109155761Y-130267236D01*
X109166053Y-130263490D01*
X109363511Y-130171414D01*
X109373007Y-130165931D01*
X109551467Y-130040972D01*
X109559875Y-130033916D01*
X109713916Y-129879875D01*
X109720972Y-129871467D01*
X109845931Y-129693007D01*
X109851414Y-129683511D01*
X109943490Y-129486053D01*
X109947236Y-129475761D01*
X109993394Y-129303497D01*
X109993058Y-129289401D01*
X109985116Y-129286000D01*
X108984115Y-129286000D01*
X108968876Y-129290475D01*
X108967671Y-129291865D01*
X108966000Y-129299548D01*
X108966000Y-130299967D01*
X108458000Y-130299967D01*
X108458000Y-128759885D01*
X108966000Y-128759885D01*
X108970475Y-128775124D01*
X108971865Y-128776329D01*
X108979548Y-128778000D01*
X109979967Y-128778000D01*
X109993498Y-128774027D01*
X109994727Y-128765478D01*
X109947236Y-128588239D01*
X109943490Y-128577947D01*
X109851414Y-128380489D01*
X109845931Y-128370993D01*
X109720972Y-128192533D01*
X109713916Y-128184125D01*
X109559875Y-128030084D01*
X109551467Y-128023028D01*
X109373007Y-127898069D01*
X109363511Y-127892586D01*
X109166053Y-127800510D01*
X109155761Y-127796764D01*
X108983497Y-127750606D01*
X108969401Y-127750942D01*
X108966000Y-127758884D01*
X108966000Y-128759885D01*
X108458000Y-128759885D01*
X108458000Y-127764033D01*
X108454027Y-127750502D01*
X108445478Y-127749273D01*
X108268239Y-127796764D01*
X108257947Y-127800510D01*
X108060489Y-127892586D01*
X108050993Y-127898069D01*
X107872533Y-128023028D01*
X107864125Y-128030084D01*
X107710084Y-128184125D01*
X107703028Y-128192533D01*
X107578069Y-128370993D01*
X107572586Y-128380489D01*
X107556195Y-128415641D01*
X107509278Y-128468926D01*
X107441001Y-128488387D01*
X107373041Y-128467845D01*
X107327805Y-128415641D01*
X107311414Y-128380489D01*
X107305931Y-128370994D01*
X107269491Y-128318952D01*
X107259012Y-128310576D01*
X107245566Y-128317644D01*
X106544022Y-129019188D01*
X106536408Y-129033132D01*
X105806356Y-129033132D01*
X105807592Y-129030868D01*
X105807461Y-129029035D01*
X105803210Y-129022420D01*
X105097713Y-128316923D01*
X105085938Y-128310493D01*
X105073923Y-128319789D01*
X105038069Y-128370994D01*
X105032586Y-128380489D01*
X104940510Y-128577947D01*
X104936764Y-128588239D01*
X104880375Y-128798688D01*
X104878472Y-128809481D01*
X104859483Y-129026525D01*
X104859483Y-129037475D01*
X101854000Y-129037475D01*
X101854000Y-127944988D01*
X105450576Y-127944988D01*
X105457644Y-127958434D01*
X106159188Y-128659978D01*
X106173132Y-128667592D01*
X106174965Y-128667461D01*
X106181580Y-128663210D01*
X106887077Y-127957713D01*
X106893507Y-127945938D01*
X106884211Y-127933923D01*
X106833006Y-127898069D01*
X106823511Y-127892586D01*
X106626053Y-127800510D01*
X106615761Y-127796764D01*
X106405312Y-127740375D01*
X106394519Y-127738472D01*
X106177475Y-127719483D01*
X106166525Y-127719483D01*
X105949481Y-127738472D01*
X105938688Y-127740375D01*
X105728239Y-127796764D01*
X105717947Y-127800510D01*
X105520489Y-127892586D01*
X105510994Y-127898069D01*
X105458952Y-127934509D01*
X105450576Y-127944988D01*
X101854000Y-127944988D01*
X101854000Y-125038062D01*
X105450493Y-125038062D01*
X105459789Y-125050077D01*
X105510994Y-125085931D01*
X105520489Y-125091414D01*
X105717947Y-125183490D01*
X105728239Y-125187236D01*
X105938688Y-125243625D01*
X105949481Y-125245528D01*
X106166525Y-125264517D01*
X106177475Y-125264517D01*
X106394519Y-125245528D01*
X106405312Y-125243625D01*
X106615761Y-125187236D01*
X106626053Y-125183490D01*
X106823511Y-125091414D01*
X106833006Y-125085931D01*
X106885048Y-125049491D01*
X106893424Y-125039012D01*
X106886356Y-125025566D01*
X106184812Y-124324022D01*
X106170868Y-124316408D01*
X106169035Y-124316539D01*
X106162420Y-124320790D01*
X105456923Y-125026287D01*
X105450493Y-125038062D01*
X101854000Y-125038062D01*
X101854000Y-123957475D01*
X104859483Y-123957475D01*
X104878472Y-124174519D01*
X104880375Y-124185312D01*
X104936764Y-124395761D01*
X104940510Y-124406053D01*
X105032586Y-124603511D01*
X105038069Y-124613006D01*
X105074509Y-124665048D01*
X105084988Y-124673424D01*
X105098434Y-124666356D01*
X105799978Y-123964812D01*
X105806356Y-123953132D01*
X106536408Y-123953132D01*
X106536539Y-123954965D01*
X106540790Y-123961580D01*
X107246287Y-124667077D01*
X107258062Y-124673507D01*
X107270077Y-124664211D01*
X107305931Y-124613006D01*
X107311414Y-124603511D01*
X107327805Y-124568359D01*
X107374722Y-124515074D01*
X107442999Y-124495613D01*
X107510959Y-124516155D01*
X107556195Y-124568359D01*
X107572586Y-124603511D01*
X107578069Y-124613007D01*
X107703028Y-124791467D01*
X107710084Y-124799875D01*
X107864125Y-124953916D01*
X107872533Y-124960972D01*
X108050993Y-125085931D01*
X108060489Y-125091414D01*
X108257947Y-125183490D01*
X108268239Y-125187236D01*
X108440503Y-125233394D01*
X108454599Y-125233058D01*
X108458000Y-125225116D01*
X108458000Y-125219967D01*
X108966000Y-125219967D01*
X108969973Y-125233498D01*
X108978522Y-125234727D01*
X109155761Y-125187236D01*
X109166053Y-125183490D01*
X109363511Y-125091414D01*
X109373007Y-125085931D01*
X109551467Y-124960972D01*
X109559875Y-124953916D01*
X109713916Y-124799875D01*
X109720972Y-124791467D01*
X109845931Y-124613007D01*
X109851414Y-124603511D01*
X109943490Y-124406053D01*
X109947236Y-124395761D01*
X109993394Y-124223497D01*
X109993058Y-124209401D01*
X109985116Y-124206000D01*
X108984115Y-124206000D01*
X108968876Y-124210475D01*
X108967671Y-124211865D01*
X108966000Y-124219548D01*
X108966000Y-125219967D01*
X108458000Y-125219967D01*
X108458000Y-123679885D01*
X108966000Y-123679885D01*
X108970475Y-123695124D01*
X108971865Y-123696329D01*
X108979548Y-123698000D01*
X109979967Y-123698000D01*
X109993498Y-123694027D01*
X109994727Y-123685478D01*
X109947236Y-123508239D01*
X109943490Y-123497947D01*
X109851414Y-123300489D01*
X109845931Y-123290993D01*
X109720972Y-123112533D01*
X109713916Y-123104125D01*
X109559875Y-122950084D01*
X109551467Y-122943028D01*
X109373007Y-122818069D01*
X109363511Y-122812586D01*
X109166053Y-122720510D01*
X109155761Y-122716764D01*
X108983497Y-122670606D01*
X108969401Y-122670942D01*
X108966000Y-122678884D01*
X108966000Y-123679885D01*
X108458000Y-123679885D01*
X108458000Y-122684033D01*
X108454027Y-122670502D01*
X108445478Y-122669273D01*
X108268239Y-122716764D01*
X108257947Y-122720510D01*
X108060489Y-122812586D01*
X108050993Y-122818069D01*
X107872533Y-122943028D01*
X107864125Y-122950084D01*
X107710084Y-123104125D01*
X107703028Y-123112533D01*
X107578069Y-123290993D01*
X107572586Y-123300489D01*
X107556195Y-123335641D01*
X107509278Y-123388926D01*
X107441001Y-123408387D01*
X107373041Y-123387845D01*
X107327805Y-123335641D01*
X107311414Y-123300489D01*
X107305931Y-123290994D01*
X107269491Y-123238952D01*
X107259012Y-123230576D01*
X107245566Y-123237644D01*
X106544022Y-123939188D01*
X106536408Y-123953132D01*
X105806356Y-123953132D01*
X105807592Y-123950868D01*
X105807461Y-123949035D01*
X105803210Y-123942420D01*
X105097713Y-123236923D01*
X105085938Y-123230493D01*
X105073923Y-123239789D01*
X105038069Y-123290994D01*
X105032586Y-123300489D01*
X104940510Y-123497947D01*
X104936764Y-123508239D01*
X104880375Y-123718688D01*
X104878472Y-123729481D01*
X104859483Y-123946525D01*
X104859483Y-123957475D01*
X101854000Y-123957475D01*
X101854000Y-122864988D01*
X105450576Y-122864988D01*
X105457644Y-122878434D01*
X106159188Y-123579978D01*
X106173132Y-123587592D01*
X106174965Y-123587461D01*
X106181580Y-123583210D01*
X106887077Y-122877713D01*
X106893507Y-122865938D01*
X106884211Y-122853923D01*
X106833006Y-122818069D01*
X106823511Y-122812586D01*
X106626053Y-122720510D01*
X106615761Y-122716764D01*
X106405312Y-122660375D01*
X106394519Y-122658472D01*
X106177475Y-122639483D01*
X106166525Y-122639483D01*
X105949481Y-122658472D01*
X105938688Y-122660375D01*
X105728239Y-122716764D01*
X105717947Y-122720510D01*
X105520489Y-122812586D01*
X105510994Y-122818069D01*
X105458952Y-122854509D01*
X105450576Y-122864988D01*
X101854000Y-122864988D01*
X101854000Y-119958062D01*
X105450493Y-119958062D01*
X105459789Y-119970077D01*
X105510994Y-120005931D01*
X105520489Y-120011414D01*
X105717947Y-120103490D01*
X105728239Y-120107236D01*
X105938688Y-120163625D01*
X105949481Y-120165528D01*
X106166525Y-120184517D01*
X106177475Y-120184517D01*
X106394519Y-120165528D01*
X106405312Y-120163625D01*
X106615761Y-120107236D01*
X106626053Y-120103490D01*
X106823511Y-120011414D01*
X106833006Y-120005931D01*
X106885048Y-119969491D01*
X106893424Y-119959012D01*
X106886356Y-119945566D01*
X106184812Y-119244022D01*
X106170868Y-119236408D01*
X106169035Y-119236539D01*
X106162420Y-119240790D01*
X105456923Y-119946287D01*
X105450493Y-119958062D01*
X101854000Y-119958062D01*
X101854000Y-118877475D01*
X104859483Y-118877475D01*
X104878472Y-119094519D01*
X104880375Y-119105312D01*
X104936764Y-119315761D01*
X104940510Y-119326053D01*
X105032586Y-119523511D01*
X105038069Y-119533006D01*
X105074509Y-119585048D01*
X105084988Y-119593424D01*
X105098434Y-119586356D01*
X105799978Y-118884812D01*
X105806356Y-118873132D01*
X106536408Y-118873132D01*
X106536539Y-118874965D01*
X106540790Y-118881580D01*
X107246287Y-119587077D01*
X107258062Y-119593507D01*
X107270077Y-119584211D01*
X107305931Y-119533006D01*
X107311414Y-119523511D01*
X107327805Y-119488359D01*
X107374722Y-119435074D01*
X107442999Y-119415613D01*
X107510959Y-119436155D01*
X107556195Y-119488359D01*
X107572586Y-119523511D01*
X107578069Y-119533007D01*
X107703028Y-119711467D01*
X107710084Y-119719875D01*
X107864125Y-119873916D01*
X107872533Y-119880972D01*
X108050993Y-120005931D01*
X108060489Y-120011414D01*
X108257947Y-120103490D01*
X108268239Y-120107236D01*
X108440503Y-120153394D01*
X108454599Y-120153058D01*
X108458000Y-120145116D01*
X108458000Y-120139967D01*
X108966000Y-120139967D01*
X108969973Y-120153498D01*
X108978522Y-120154727D01*
X109155761Y-120107236D01*
X109166053Y-120103490D01*
X109363511Y-120011414D01*
X109373007Y-120005931D01*
X109551467Y-119880972D01*
X109559875Y-119873916D01*
X109713916Y-119719875D01*
X109720972Y-119711467D01*
X109845931Y-119533007D01*
X109851414Y-119523511D01*
X109943490Y-119326053D01*
X109947236Y-119315761D01*
X109993394Y-119143497D01*
X109993058Y-119129401D01*
X109985116Y-119126000D01*
X108984115Y-119126000D01*
X108968876Y-119130475D01*
X108967671Y-119131865D01*
X108966000Y-119139548D01*
X108966000Y-120139967D01*
X108458000Y-120139967D01*
X108458000Y-118599885D01*
X108966000Y-118599885D01*
X108970475Y-118615124D01*
X108971865Y-118616329D01*
X108979548Y-118618000D01*
X109979967Y-118618000D01*
X109993498Y-118614027D01*
X109994727Y-118605478D01*
X109947236Y-118428239D01*
X109943490Y-118417947D01*
X109851414Y-118220489D01*
X109845931Y-118210993D01*
X109720972Y-118032533D01*
X109713916Y-118024125D01*
X109559875Y-117870084D01*
X109551467Y-117863028D01*
X109373007Y-117738069D01*
X109363511Y-117732586D01*
X109166053Y-117640510D01*
X109155761Y-117636764D01*
X108983497Y-117590606D01*
X108969401Y-117590942D01*
X108966000Y-117598884D01*
X108966000Y-118599885D01*
X108458000Y-118599885D01*
X108458000Y-117604033D01*
X108454027Y-117590502D01*
X108445478Y-117589273D01*
X108268239Y-117636764D01*
X108257947Y-117640510D01*
X108060489Y-117732586D01*
X108050993Y-117738069D01*
X107872533Y-117863028D01*
X107864125Y-117870084D01*
X107710084Y-118024125D01*
X107703028Y-118032533D01*
X107578069Y-118210993D01*
X107572586Y-118220489D01*
X107556195Y-118255641D01*
X107509278Y-118308926D01*
X107441001Y-118328387D01*
X107373041Y-118307845D01*
X107327805Y-118255641D01*
X107311414Y-118220489D01*
X107305931Y-118210994D01*
X107269491Y-118158952D01*
X107259012Y-118150576D01*
X107245566Y-118157644D01*
X106544022Y-118859188D01*
X106536408Y-118873132D01*
X105806356Y-118873132D01*
X105807592Y-118870868D01*
X105807461Y-118869035D01*
X105803210Y-118862420D01*
X105097713Y-118156923D01*
X105085938Y-118150493D01*
X105073923Y-118159789D01*
X105038069Y-118210994D01*
X105032586Y-118220489D01*
X104940510Y-118417947D01*
X104936764Y-118428239D01*
X104880375Y-118638688D01*
X104878472Y-118649481D01*
X104859483Y-118866525D01*
X104859483Y-118877475D01*
X101854000Y-118877475D01*
X101854000Y-117784988D01*
X105450576Y-117784988D01*
X105457644Y-117798434D01*
X106159188Y-118499978D01*
X106173132Y-118507592D01*
X106174965Y-118507461D01*
X106181580Y-118503210D01*
X106887077Y-117797713D01*
X106893507Y-117785938D01*
X106884211Y-117773923D01*
X106833006Y-117738069D01*
X106823511Y-117732586D01*
X106626053Y-117640510D01*
X106615761Y-117636764D01*
X106405312Y-117580375D01*
X106394519Y-117578472D01*
X106177475Y-117559483D01*
X106166525Y-117559483D01*
X105949481Y-117578472D01*
X105938688Y-117580375D01*
X105728239Y-117636764D01*
X105717947Y-117640510D01*
X105520489Y-117732586D01*
X105510994Y-117738069D01*
X105458952Y-117774509D01*
X105450576Y-117784988D01*
X101854000Y-117784988D01*
X101854000Y-114878062D01*
X105450493Y-114878062D01*
X105459789Y-114890077D01*
X105510994Y-114925931D01*
X105520489Y-114931414D01*
X105717947Y-115023490D01*
X105728239Y-115027236D01*
X105938688Y-115083625D01*
X105949481Y-115085528D01*
X106166525Y-115104517D01*
X106177475Y-115104517D01*
X106394519Y-115085528D01*
X106405312Y-115083625D01*
X106615761Y-115027236D01*
X106626053Y-115023490D01*
X106823511Y-114931414D01*
X106833006Y-114925931D01*
X106885048Y-114889491D01*
X106893424Y-114879012D01*
X106886356Y-114865566D01*
X106184812Y-114164022D01*
X106170868Y-114156408D01*
X106169035Y-114156539D01*
X106162420Y-114160790D01*
X105456923Y-114866287D01*
X105450493Y-114878062D01*
X101854000Y-114878062D01*
X101854000Y-113797475D01*
X104859483Y-113797475D01*
X104878472Y-114014519D01*
X104880375Y-114025312D01*
X104936764Y-114235761D01*
X104940510Y-114246053D01*
X105032586Y-114443511D01*
X105038069Y-114453006D01*
X105074509Y-114505048D01*
X105084988Y-114513424D01*
X105098434Y-114506356D01*
X105799978Y-113804812D01*
X105807592Y-113790868D01*
X105807461Y-113789035D01*
X105803210Y-113782420D01*
X105097713Y-113076923D01*
X105085938Y-113070493D01*
X105073923Y-113079789D01*
X105038069Y-113130994D01*
X105032586Y-113140489D01*
X104940510Y-113337947D01*
X104936764Y-113348239D01*
X104880375Y-113558688D01*
X104878472Y-113569481D01*
X104859483Y-113786525D01*
X104859483Y-113797475D01*
X101854000Y-113797475D01*
X101854000Y-112519500D01*
X101874002Y-112451379D01*
X101927658Y-112404886D01*
X101980000Y-112393500D01*
X105507752Y-112393500D01*
X105575873Y-112413502D01*
G37*
%TD.AperFunction*%
%TD*%
%TA.AperFunction,Conductor*%
%TO.N,GND*%
G36*
X131033206Y-117825502D02*
G01*
X131079699Y-117879158D01*
X131089803Y-117949432D01*
X131060309Y-118014012D01*
X131018536Y-118045601D01*
X131009883Y-118049655D01*
X130874508Y-118133426D01*
X130863110Y-118142460D01*
X130750637Y-118255129D01*
X130741625Y-118266540D01*
X130658088Y-118402063D01*
X130651944Y-118415241D01*
X130601685Y-118566766D01*
X130598819Y-118580132D01*
X130589328Y-118672770D01*
X130589000Y-118679185D01*
X130589000Y-118753385D01*
X130593475Y-118768624D01*
X130594865Y-118769829D01*
X130602548Y-118771500D01*
X134748000Y-118771500D01*
X134816121Y-118791502D01*
X134862614Y-118845158D01*
X134874000Y-118897500D01*
X134874000Y-119153500D01*
X134853998Y-119221621D01*
X134800342Y-119268114D01*
X134748000Y-119279500D01*
X130607115Y-119279500D01*
X130591876Y-119283975D01*
X130590671Y-119285365D01*
X130589000Y-119293048D01*
X130589000Y-119371766D01*
X130589337Y-119378282D01*
X130599075Y-119472132D01*
X130601968Y-119485528D01*
X130652488Y-119636953D01*
X130658653Y-119650115D01*
X130742428Y-119785494D01*
X130748637Y-119793328D01*
X130775277Y-119859137D01*
X130762108Y-119928902D01*
X130741960Y-119957381D01*
X130738981Y-119959994D01*
X130709365Y-119997561D01*
X130704804Y-120003347D01*
X130698379Y-120010869D01*
X130660914Y-120051399D01*
X130657835Y-120056279D01*
X130640348Y-120083994D01*
X130632738Y-120094761D01*
X130612451Y-120120496D01*
X130612447Y-120120502D01*
X130608872Y-120125037D01*
X130606183Y-120130148D01*
X130583174Y-120173881D01*
X130578227Y-120182450D01*
X130548769Y-120229138D01*
X130546629Y-120234502D01*
X130546628Y-120234504D01*
X130534485Y-120264941D01*
X130528968Y-120276909D01*
X130511018Y-120311027D01*
X130494654Y-120363728D01*
X130491352Y-120373054D01*
X130470892Y-120424337D01*
X130469765Y-120430005D01*
X130469764Y-120430007D01*
X130463372Y-120462143D01*
X130460125Y-120474927D01*
X130448696Y-120511734D01*
X130448017Y-120517471D01*
X130442207Y-120566559D01*
X130440660Y-120576323D01*
X130429892Y-120630460D01*
X130429816Y-120636238D01*
X130429816Y-120636241D01*
X130429387Y-120669001D01*
X130429002Y-120674971D01*
X130429155Y-120674980D01*
X130428937Y-120678685D01*
X130428500Y-120682374D01*
X130428500Y-120735982D01*
X130428489Y-120737631D01*
X130427141Y-120840602D01*
X130428115Y-120846270D01*
X130428500Y-120856082D01*
X130428500Y-122893195D01*
X130428230Y-122901436D01*
X130423994Y-122966061D01*
X130434399Y-123053973D01*
X130434735Y-123057178D01*
X130438032Y-123093047D01*
X130440585Y-123120832D01*
X130426901Y-123190498D01*
X130377724Y-123241705D01*
X130332105Y-123257211D01*
X130084097Y-123290964D01*
X130074982Y-123292901D01*
X129937170Y-123333070D01*
X129866173Y-123332930D01*
X129806523Y-123294428D01*
X129779707Y-123242799D01*
X129735184Y-123065544D01*
X129735183Y-123065540D01*
X129733925Y-123060533D01*
X129721938Y-123032965D01*
X129643630Y-122852868D01*
X129643628Y-122852865D01*
X129641570Y-122848131D01*
X129515764Y-122653665D01*
X129359887Y-122482358D01*
X129355836Y-122479159D01*
X129355832Y-122479155D01*
X129182177Y-122342011D01*
X129182172Y-122342008D01*
X129178123Y-122338810D01*
X129173607Y-122336317D01*
X129173604Y-122336315D01*
X128979879Y-122229373D01*
X128979875Y-122229371D01*
X128975355Y-122226876D01*
X128970486Y-122225152D01*
X128970482Y-122225150D01*
X128761903Y-122151288D01*
X128761899Y-122151287D01*
X128757028Y-122149562D01*
X128751935Y-122148655D01*
X128751932Y-122148654D01*
X128534095Y-122109851D01*
X128534089Y-122109850D01*
X128529006Y-122108945D01*
X128456096Y-122108054D01*
X128302581Y-122106179D01*
X128302579Y-122106179D01*
X128297411Y-122106116D01*
X128068464Y-122141150D01*
X127848314Y-122213106D01*
X127843726Y-122215494D01*
X127843722Y-122215496D01*
X127817065Y-122229373D01*
X127642872Y-122320052D01*
X127638739Y-122323155D01*
X127638736Y-122323157D01*
X127461790Y-122456012D01*
X127457655Y-122459117D01*
X127454083Y-122462855D01*
X127313001Y-122610489D01*
X127297639Y-122626564D01*
X127294725Y-122630836D01*
X127294724Y-122630837D01*
X127276189Y-122658009D01*
X127167119Y-122817899D01*
X127069602Y-123027981D01*
X127007707Y-123251169D01*
X126983095Y-123481469D01*
X126983392Y-123486622D01*
X126983392Y-123486625D01*
X126989587Y-123594062D01*
X126996427Y-123712697D01*
X126997564Y-123717743D01*
X126997565Y-123717749D01*
X127008558Y-123766527D01*
X127047346Y-123938642D01*
X127049288Y-123943424D01*
X127049289Y-123943428D01*
X127087786Y-124038234D01*
X127134484Y-124153237D01*
X127255501Y-124350719D01*
X127407147Y-124525784D01*
X127585349Y-124673730D01*
X127785322Y-124790584D01*
X128001694Y-124873209D01*
X128006760Y-124874240D01*
X128006761Y-124874240D01*
X128059846Y-124885040D01*
X128228656Y-124919385D01*
X128359324Y-124924176D01*
X128454949Y-124927683D01*
X128454953Y-124927683D01*
X128460113Y-124927872D01*
X128465233Y-124927216D01*
X128465235Y-124927216D01*
X128544983Y-124917000D01*
X128615093Y-124928185D01*
X128668027Y-124975498D01*
X128686848Y-125035933D01*
X128695987Y-125226175D01*
X128697124Y-125235435D01*
X128746274Y-125482535D01*
X128748768Y-125491528D01*
X128833900Y-125728639D01*
X128837700Y-125737174D01*
X128956946Y-125959101D01*
X128961957Y-125966968D01*
X129025446Y-126051990D01*
X129036704Y-126060439D01*
X129049123Y-126053667D01*
X130356905Y-124745885D01*
X130419217Y-124711859D01*
X130490032Y-124716924D01*
X130535095Y-124745885D01*
X130716115Y-124926905D01*
X130750141Y-124989217D01*
X130745076Y-125060032D01*
X130716115Y-125105095D01*
X129408270Y-126412940D01*
X129401612Y-126425133D01*
X129411428Y-126438112D01*
X129436569Y-126504508D01*
X129421822Y-126573956D01*
X129406909Y-126595761D01*
X129399217Y-126604804D01*
X129403789Y-126614579D01*
X131845913Y-129056703D01*
X131858293Y-129063463D01*
X131866634Y-129057219D01*
X131992765Y-128861127D01*
X131997212Y-128852936D01*
X132100691Y-128623222D01*
X132103882Y-128614455D01*
X132172269Y-128371976D01*
X132174129Y-128362834D01*
X132206116Y-128111396D01*
X132206597Y-128105108D01*
X132208847Y-128019160D01*
X132208696Y-128012851D01*
X132189912Y-127760074D01*
X132188536Y-127750868D01*
X132132929Y-127505126D01*
X132130206Y-127496220D01*
X132122844Y-127477288D01*
X132116796Y-127406549D01*
X132149953Y-127343770D01*
X132211787Y-127308883D01*
X132282666Y-127312964D01*
X132329372Y-127342525D01*
X133781151Y-128794304D01*
X133786788Y-128800322D01*
X133829494Y-128849019D01*
X133834029Y-128852594D01*
X133834030Y-128852595D01*
X133898982Y-128903798D01*
X133901547Y-128905876D01*
X133965100Y-128958734D01*
X133965105Y-128958738D01*
X133969540Y-128962426D01*
X133974574Y-128965245D01*
X133977584Y-128967314D01*
X133986854Y-128973508D01*
X133989999Y-128975551D01*
X133994537Y-128979128D01*
X133999645Y-128981816D01*
X133999649Y-128981818D01*
X134072816Y-129020312D01*
X134075716Y-129021887D01*
X134138805Y-129057219D01*
X134152904Y-129065115D01*
X134158376Y-129066972D01*
X134161776Y-129068486D01*
X134171987Y-129072873D01*
X134175421Y-129074295D01*
X134180527Y-129076982D01*
X134186041Y-129078694D01*
X134186043Y-129078695D01*
X134264999Y-129103212D01*
X134268135Y-129104231D01*
X134319797Y-129121767D01*
X134351912Y-129132669D01*
X134351697Y-129133301D01*
X134413585Y-129170857D01*
X134415122Y-129172915D01*
X134600743Y-129356923D01*
X134604505Y-129359681D01*
X134604508Y-129359684D01*
X134610726Y-129364243D01*
X134675571Y-129411789D01*
X134718678Y-129468199D01*
X134724445Y-129538961D01*
X134691040Y-129601607D01*
X134677772Y-129613360D01*
X134676397Y-129614415D01*
X134672491Y-129616976D01*
X134477494Y-129791018D01*
X134310363Y-129991970D01*
X134174771Y-130215419D01*
X134073697Y-130456455D01*
X134009359Y-130709783D01*
X133983173Y-130969839D01*
X133983397Y-130974505D01*
X133983397Y-130974511D01*
X133989289Y-131097177D01*
X133972578Y-131166179D01*
X133952529Y-131192317D01*
X131809696Y-133335151D01*
X131803682Y-133340784D01*
X131798573Y-133345265D01*
X131734167Y-133375139D01*
X131663835Y-133365449D01*
X131609906Y-133319274D01*
X131589500Y-133250529D01*
X131589500Y-132410500D01*
X131609502Y-132342379D01*
X131634088Y-132314333D01*
X131678439Y-132276787D01*
X131678440Y-132276786D01*
X131682005Y-132273768D01*
X131706184Y-132246197D01*
X131851257Y-132080774D01*
X131851261Y-132080769D01*
X131854339Y-132077259D01*
X131995733Y-131857437D01*
X132103083Y-131619129D01*
X132118863Y-131563178D01*
X132172760Y-131372076D01*
X132172761Y-131372073D01*
X132174030Y-131367572D01*
X132180379Y-131317663D01*
X132206616Y-131111421D01*
X132206616Y-131111417D01*
X132207014Y-131108291D01*
X132209431Y-131016000D01*
X132190061Y-130755348D01*
X132178725Y-130705248D01*
X132133408Y-130504980D01*
X132132377Y-130500423D01*
X132037647Y-130256823D01*
X131907951Y-130029902D01*
X131746138Y-129824643D01*
X131555763Y-129645557D01*
X131515302Y-129617488D01*
X131470732Y-129562225D01*
X131463115Y-129491638D01*
X131481915Y-129444625D01*
X131493518Y-129427019D01*
X131487456Y-129416666D01*
X130458812Y-128388022D01*
X130444868Y-128380408D01*
X130443035Y-128380539D01*
X130436420Y-128384790D01*
X129408270Y-129412940D01*
X129401612Y-129425133D01*
X129407660Y-129433129D01*
X129432801Y-129499526D01*
X129418054Y-129568974D01*
X129379583Y-129610878D01*
X129380111Y-129611566D01*
X129376405Y-129614410D01*
X129372491Y-129616976D01*
X129177494Y-129791018D01*
X129010363Y-129991970D01*
X128874771Y-130215419D01*
X128773697Y-130456455D01*
X128709359Y-130709783D01*
X128683173Y-130969839D01*
X128683397Y-130974507D01*
X128683397Y-130974515D01*
X128683663Y-130980052D01*
X128666950Y-131049054D01*
X128615585Y-131098065D01*
X128545876Y-131111527D01*
X128535729Y-131110143D01*
X128529006Y-131108945D01*
X128456096Y-131108054D01*
X128302581Y-131106179D01*
X128302579Y-131106179D01*
X128297411Y-131106116D01*
X128068464Y-131141150D01*
X127848314Y-131213106D01*
X127843726Y-131215494D01*
X127843722Y-131215496D01*
X127817065Y-131229373D01*
X127642872Y-131320052D01*
X127638739Y-131323155D01*
X127638736Y-131323157D01*
X127461790Y-131456012D01*
X127457655Y-131459117D01*
X127297639Y-131626564D01*
X127167119Y-131817899D01*
X127069602Y-132027981D01*
X127007707Y-132251169D01*
X126983095Y-132481469D01*
X126983392Y-132486622D01*
X126983392Y-132486625D01*
X126994735Y-132683357D01*
X126996427Y-132712697D01*
X126997564Y-132717743D01*
X126997565Y-132717749D01*
X127009950Y-132772705D01*
X127047346Y-132938642D01*
X127049288Y-132943424D01*
X127049289Y-132943428D01*
X127132540Y-133148450D01*
X127134484Y-133153237D01*
X127255501Y-133350719D01*
X127407147Y-133525784D01*
X127585349Y-133673730D01*
X127785322Y-133790584D01*
X128001694Y-133873209D01*
X128006760Y-133874240D01*
X128006761Y-133874240D01*
X128059846Y-133885040D01*
X128228656Y-133919385D01*
X128359324Y-133924176D01*
X128454949Y-133927683D01*
X128454953Y-133927683D01*
X128460113Y-133927872D01*
X128465233Y-133927216D01*
X128465235Y-133927216D01*
X128538270Y-133917860D01*
X128689847Y-133898442D01*
X128694795Y-133896957D01*
X128694802Y-133896956D01*
X128906747Y-133833369D01*
X128911690Y-133831886D01*
X129119684Y-133729991D01*
X129120604Y-133731869D01*
X129180739Y-133716389D01*
X129248149Y-133738672D01*
X129292810Y-133793862D01*
X129302500Y-133842318D01*
X129302500Y-134240000D01*
X129282498Y-134308121D01*
X129228842Y-134354614D01*
X129176500Y-134366000D01*
X125020190Y-134366000D01*
X124952069Y-134345998D01*
X124931095Y-134329095D01*
X120940905Y-130338905D01*
X120906879Y-130276593D01*
X120904000Y-130249810D01*
X120904000Y-128669343D01*
X120924002Y-128601222D01*
X120940905Y-128580248D01*
X121546630Y-127974523D01*
X128683898Y-127974523D01*
X128695987Y-128226175D01*
X128697124Y-128235435D01*
X128746274Y-128482535D01*
X128748768Y-128491528D01*
X128833900Y-128728639D01*
X128837700Y-128737174D01*
X128956946Y-128959101D01*
X128961957Y-128966968D01*
X129025446Y-129051990D01*
X129036704Y-129060439D01*
X129049123Y-129053667D01*
X130073978Y-128028812D01*
X130081592Y-128014868D01*
X130081461Y-128013035D01*
X130077210Y-128006420D01*
X129047321Y-126976531D01*
X129034013Y-126969264D01*
X129023974Y-126976386D01*
X129013761Y-126988666D01*
X129008346Y-126996258D01*
X128877646Y-127211646D01*
X128873408Y-127219963D01*
X128775981Y-127452299D01*
X128773020Y-127461149D01*
X128711006Y-127705331D01*
X128709384Y-127714528D01*
X128684143Y-127965198D01*
X128683898Y-127974523D01*
X121546630Y-127974523D01*
X122851804Y-126669349D01*
X122857822Y-126663712D01*
X122881567Y-126642888D01*
X122906519Y-126621006D01*
X122919292Y-126604804D01*
X122961298Y-126551518D01*
X122963376Y-126548953D01*
X123016234Y-126485400D01*
X123016238Y-126485395D01*
X123019926Y-126480960D01*
X123022745Y-126475926D01*
X123024814Y-126472916D01*
X123031008Y-126463646D01*
X123033051Y-126460501D01*
X123036628Y-126455963D01*
X123042594Y-126444625D01*
X123077812Y-126377684D01*
X123079387Y-126374784D01*
X123119791Y-126302639D01*
X123119792Y-126302637D01*
X123122615Y-126297596D01*
X123124472Y-126292124D01*
X123125986Y-126288724D01*
X123130373Y-126278513D01*
X123131795Y-126275079D01*
X123134482Y-126269973D01*
X123160712Y-126185501D01*
X123161731Y-126182365D01*
X123188313Y-126104055D01*
X123190169Y-126098588D01*
X123190998Y-126092875D01*
X123191841Y-126089362D01*
X123194333Y-126078349D01*
X123195091Y-126074782D01*
X123196804Y-126069266D01*
X123198651Y-126053667D01*
X123207201Y-125981420D01*
X123207632Y-125978149D01*
X123209254Y-125966968D01*
X123220326Y-125890602D01*
X123217097Y-125808430D01*
X123217000Y-125803483D01*
X123217000Y-124740802D01*
X123237002Y-124672681D01*
X123290658Y-124626188D01*
X123355843Y-124615458D01*
X123445770Y-124624672D01*
X123452185Y-124625000D01*
X123526385Y-124625000D01*
X123541624Y-124620525D01*
X123542829Y-124619135D01*
X123544500Y-124611452D01*
X123544500Y-124606885D01*
X124052500Y-124606885D01*
X124056975Y-124622124D01*
X124058365Y-124623329D01*
X124066048Y-124625000D01*
X124144766Y-124625000D01*
X124151282Y-124624663D01*
X124245132Y-124614925D01*
X124258528Y-124612032D01*
X124409953Y-124561512D01*
X124423115Y-124555347D01*
X124558492Y-124471574D01*
X124569890Y-124462540D01*
X124682363Y-124349871D01*
X124691375Y-124338460D01*
X124774912Y-124202937D01*
X124781056Y-124189759D01*
X124831315Y-124038234D01*
X124834181Y-124024868D01*
X124843672Y-123932230D01*
X124844000Y-123925815D01*
X124844000Y-123914115D01*
X124839525Y-123898876D01*
X124838135Y-123897671D01*
X124830452Y-123896000D01*
X124070615Y-123896000D01*
X124055376Y-123900475D01*
X124054171Y-123901865D01*
X124052500Y-123909548D01*
X124052500Y-124606885D01*
X123544500Y-124606885D01*
X123544500Y-123369885D01*
X124052500Y-123369885D01*
X124056975Y-123385124D01*
X124058365Y-123386329D01*
X124066048Y-123388000D01*
X124825885Y-123388000D01*
X124841124Y-123383525D01*
X124842329Y-123382135D01*
X124844000Y-123374452D01*
X124844000Y-123358234D01*
X124843663Y-123351718D01*
X124833925Y-123257868D01*
X124831032Y-123244472D01*
X124780512Y-123093047D01*
X124774347Y-123079885D01*
X124690574Y-122944508D01*
X124681540Y-122933110D01*
X124568871Y-122820637D01*
X124557460Y-122811625D01*
X124430444Y-122733332D01*
X124382951Y-122680560D01*
X124371527Y-122610489D01*
X124399801Y-122545365D01*
X124430257Y-122518927D01*
X124558496Y-122439571D01*
X124569890Y-122430540D01*
X124682363Y-122317871D01*
X124691375Y-122306460D01*
X124774912Y-122170937D01*
X124781056Y-122157759D01*
X124831315Y-122006234D01*
X124834181Y-121992868D01*
X124843672Y-121900230D01*
X124844000Y-121893815D01*
X124844000Y-121882115D01*
X124839525Y-121866876D01*
X124838135Y-121865671D01*
X124830452Y-121864000D01*
X124070615Y-121864000D01*
X124055376Y-121868475D01*
X124054171Y-121869865D01*
X124052500Y-121877548D01*
X124052500Y-122574885D01*
X124055643Y-122585589D01*
X124057868Y-122647869D01*
X124052500Y-122672547D01*
X124052500Y-123369885D01*
X123544500Y-123369885D01*
X123544500Y-122677115D01*
X123541357Y-122666411D01*
X123539132Y-122604131D01*
X123544500Y-122579453D01*
X123544500Y-121337885D01*
X124052500Y-121337885D01*
X124056975Y-121353124D01*
X124058365Y-121354329D01*
X124066048Y-121356000D01*
X124825885Y-121356000D01*
X124841124Y-121351525D01*
X124842329Y-121350135D01*
X124844000Y-121342452D01*
X124844000Y-121326234D01*
X124843663Y-121319718D01*
X124833925Y-121225868D01*
X124831032Y-121212472D01*
X124780512Y-121061047D01*
X124774347Y-121047885D01*
X124690574Y-120912508D01*
X124681540Y-120901110D01*
X124568871Y-120788637D01*
X124557460Y-120779625D01*
X124430444Y-120701332D01*
X124382951Y-120648560D01*
X124371527Y-120578489D01*
X124399801Y-120513365D01*
X124430257Y-120486927D01*
X124558496Y-120407571D01*
X124569890Y-120398540D01*
X124682363Y-120285871D01*
X124691375Y-120274460D01*
X124774912Y-120138937D01*
X124781056Y-120125759D01*
X124831315Y-119974234D01*
X124834181Y-119960868D01*
X124843672Y-119868230D01*
X124844000Y-119861815D01*
X124844000Y-119850115D01*
X124839525Y-119834876D01*
X124838135Y-119833671D01*
X124830452Y-119832000D01*
X124070615Y-119832000D01*
X124055376Y-119836475D01*
X124054171Y-119837865D01*
X124052500Y-119845548D01*
X124052500Y-120542885D01*
X124055643Y-120553589D01*
X124057868Y-120615869D01*
X124052500Y-120640547D01*
X124052500Y-121337885D01*
X123544500Y-121337885D01*
X123544500Y-120645115D01*
X123541357Y-120634411D01*
X123539132Y-120572131D01*
X123544500Y-120547453D01*
X123544500Y-119450000D01*
X123564502Y-119381879D01*
X123618158Y-119335386D01*
X123670500Y-119324000D01*
X124825885Y-119324000D01*
X124841124Y-119319525D01*
X124842329Y-119318135D01*
X124844000Y-119310452D01*
X124844000Y-119294234D01*
X124843663Y-119287718D01*
X124833925Y-119193868D01*
X124831032Y-119180472D01*
X124780512Y-119029047D01*
X124774347Y-119015885D01*
X124690574Y-118880508D01*
X124681540Y-118869110D01*
X124568871Y-118756637D01*
X124557457Y-118747623D01*
X124451919Y-118682569D01*
X124404425Y-118629797D01*
X124393001Y-118559726D01*
X124421275Y-118494602D01*
X124428939Y-118486214D01*
X124762748Y-118152405D01*
X124825060Y-118118379D01*
X124851843Y-118115500D01*
X129461316Y-118115500D01*
X129617279Y-118101169D01*
X129622841Y-118099600D01*
X129622843Y-118099600D01*
X129718414Y-118072646D01*
X129819549Y-118044123D01*
X130008037Y-117951171D01*
X130169579Y-117830542D01*
X130236129Y-117805810D01*
X130244968Y-117805500D01*
X130965085Y-117805500D01*
X131033206Y-117825502D01*
G37*
%TD.AperFunction*%
%TA.AperFunction,Conductor*%
G36*
X138599757Y-109656520D02*
G01*
X138639252Y-109683252D01*
X139155095Y-110199095D01*
X139189121Y-110261407D01*
X139192000Y-110288190D01*
X139192000Y-122653925D01*
X139171998Y-122722046D01*
X139118342Y-122768539D01*
X139048068Y-122778643D01*
X138983488Y-122749149D01*
X138960208Y-122722365D01*
X138933163Y-122680560D01*
X138915764Y-122653665D01*
X138759887Y-122482358D01*
X138755836Y-122479159D01*
X138755832Y-122479155D01*
X138582177Y-122342011D01*
X138582172Y-122342008D01*
X138578123Y-122338810D01*
X138573607Y-122336317D01*
X138573604Y-122336315D01*
X138379879Y-122229373D01*
X138379875Y-122229371D01*
X138375355Y-122226876D01*
X138370486Y-122225152D01*
X138370482Y-122225150D01*
X138161903Y-122151288D01*
X138161899Y-122151287D01*
X138157028Y-122149562D01*
X138151935Y-122148655D01*
X138151932Y-122148654D01*
X137934095Y-122109851D01*
X137934089Y-122109850D01*
X137929006Y-122108945D01*
X137856096Y-122108054D01*
X137702581Y-122106179D01*
X137702579Y-122106179D01*
X137697411Y-122106116D01*
X137468464Y-122141150D01*
X137248314Y-122213106D01*
X137243726Y-122215494D01*
X137243722Y-122215496D01*
X137217065Y-122229373D01*
X137042872Y-122320052D01*
X137038739Y-122323155D01*
X137038736Y-122323157D01*
X136861790Y-122456012D01*
X136857655Y-122459117D01*
X136854083Y-122462855D01*
X136713001Y-122610489D01*
X136697639Y-122626564D01*
X136694725Y-122630836D01*
X136694724Y-122630837D01*
X136676189Y-122658009D01*
X136567119Y-122817899D01*
X136469602Y-123027981D01*
X136468223Y-123032954D01*
X136468219Y-123032965D01*
X136409439Y-123244919D01*
X136371960Y-123305217D01*
X136307832Y-123335680D01*
X136249609Y-123331249D01*
X136161999Y-123303205D01*
X136152938Y-123301029D01*
X135904260Y-123260529D01*
X135894973Y-123259717D01*
X135643053Y-123256419D01*
X135633742Y-123256989D01*
X135384097Y-123290964D01*
X135374978Y-123292902D01*
X135133098Y-123363404D01*
X135124367Y-123366667D01*
X134895558Y-123472151D01*
X134887406Y-123476670D01*
X134708353Y-123594062D01*
X134699216Y-123604803D01*
X134703789Y-123614579D01*
X137145913Y-126056703D01*
X137158293Y-126063463D01*
X137166634Y-126057219D01*
X137292765Y-125861127D01*
X137297212Y-125852936D01*
X137400691Y-125623222D01*
X137403882Y-125614455D01*
X137472269Y-125371976D01*
X137474129Y-125362834D01*
X137506116Y-125111396D01*
X137506597Y-125105108D01*
X137508239Y-125042375D01*
X137530017Y-124974801D01*
X137584871Y-124929728D01*
X137638811Y-124919757D01*
X137758142Y-124924133D01*
X137854949Y-124927683D01*
X137854953Y-124927683D01*
X137860113Y-124927872D01*
X137865233Y-124927216D01*
X137865235Y-124927216D01*
X137944981Y-124917000D01*
X138089847Y-124898442D01*
X138094795Y-124896957D01*
X138094802Y-124896956D01*
X138306747Y-124833369D01*
X138311690Y-124831886D01*
X138392236Y-124792427D01*
X138515049Y-124732262D01*
X138515052Y-124732260D01*
X138519684Y-124729991D01*
X138708243Y-124595494D01*
X138872303Y-124432005D01*
X138875317Y-124427811D01*
X138875326Y-124427800D01*
X138963678Y-124304845D01*
X139019672Y-124261197D01*
X139090376Y-124254751D01*
X139153340Y-124287554D01*
X139188574Y-124349190D01*
X139192000Y-124378371D01*
X139192000Y-131265810D01*
X139171998Y-131333931D01*
X139155095Y-131354905D01*
X138980848Y-131529152D01*
X138918536Y-131563178D01*
X138847721Y-131558113D01*
X138798560Y-131524858D01*
X138763363Y-131486178D01*
X138763362Y-131486178D01*
X138759887Y-131482358D01*
X138685948Y-131423965D01*
X138582177Y-131342011D01*
X138582172Y-131342008D01*
X138578123Y-131338810D01*
X138573607Y-131336317D01*
X138573604Y-131336315D01*
X138379879Y-131229373D01*
X138379875Y-131229371D01*
X138375355Y-131226876D01*
X138370486Y-131225152D01*
X138370482Y-131225150D01*
X138161903Y-131151288D01*
X138161899Y-131151287D01*
X138157028Y-131149562D01*
X138151935Y-131148655D01*
X138151932Y-131148654D01*
X137934095Y-131109851D01*
X137934089Y-131109850D01*
X137929006Y-131108945D01*
X137856096Y-131108054D01*
X137702581Y-131106179D01*
X137702579Y-131106179D01*
X137697411Y-131106116D01*
X137692296Y-131106899D01*
X137692292Y-131106899D01*
X137652784Y-131112944D01*
X137582422Y-131103476D01*
X137528349Y-131057469D01*
X137508073Y-130997732D01*
X137506760Y-130980052D01*
X137490061Y-130755348D01*
X137478725Y-130705248D01*
X137433408Y-130504980D01*
X137432377Y-130500423D01*
X137337647Y-130256823D01*
X137207951Y-130029902D01*
X137046138Y-129824643D01*
X136855763Y-129645557D01*
X136818691Y-129619839D01*
X136774121Y-129564576D01*
X136766504Y-129493989D01*
X136798259Y-129430490D01*
X136809099Y-129420145D01*
X136978439Y-129276787D01*
X136978440Y-129276786D01*
X136982005Y-129273768D01*
X137070451Y-129172915D01*
X137151257Y-129080774D01*
X137151261Y-129080769D01*
X137154339Y-129077259D01*
X137189956Y-129021887D01*
X137293205Y-128861367D01*
X137295733Y-128857437D01*
X137403083Y-128619129D01*
X137441607Y-128482535D01*
X137472760Y-128372076D01*
X137472761Y-128372073D01*
X137474030Y-128367572D01*
X137507014Y-128108291D01*
X137507098Y-128105108D01*
X137509348Y-128019160D01*
X137509431Y-128016000D01*
X137490061Y-127755348D01*
X137480825Y-127714528D01*
X137433408Y-127504980D01*
X137432377Y-127500423D01*
X137430684Y-127496069D01*
X137339340Y-127261176D01*
X137339339Y-127261173D01*
X137337647Y-127256823D01*
X137207951Y-127029902D01*
X137046138Y-126824643D01*
X136855763Y-126645557D01*
X136815302Y-126617488D01*
X136770732Y-126562225D01*
X136763115Y-126491638D01*
X136781915Y-126444625D01*
X136793518Y-126427019D01*
X136787456Y-126416666D01*
X134347321Y-123976531D01*
X134334013Y-123969264D01*
X134323974Y-123976386D01*
X134313761Y-123988666D01*
X134308346Y-123996258D01*
X134214002Y-124151732D01*
X134161563Y-124199593D01*
X134091573Y-124211505D01*
X134026253Y-124183687D01*
X133986342Y-124124970D01*
X133981156Y-124101171D01*
X133979608Y-124088087D01*
X133979264Y-124084813D01*
X133971698Y-124002477D01*
X133971698Y-124002476D01*
X133971169Y-123996721D01*
X133969601Y-123991162D01*
X133968939Y-123987588D01*
X133966750Y-123976585D01*
X133965982Y-123972972D01*
X133965303Y-123967235D01*
X133939062Y-123882724D01*
X133938139Y-123879605D01*
X133919826Y-123814671D01*
X133914123Y-123794451D01*
X133911565Y-123789263D01*
X133910240Y-123785812D01*
X133906099Y-123775434D01*
X133904696Y-123772047D01*
X133902982Y-123766527D01*
X133861801Y-123688254D01*
X133860305Y-123685318D01*
X133825420Y-123614579D01*
X133821171Y-123605963D01*
X133817713Y-123601332D01*
X133815750Y-123598129D01*
X133809827Y-123588742D01*
X133807818Y-123585649D01*
X133805129Y-123580537D01*
X133750344Y-123511044D01*
X133748373Y-123508474D01*
X133698884Y-123442199D01*
X133698877Y-123442192D01*
X133695427Y-123437571D01*
X133635026Y-123381737D01*
X133631461Y-123378308D01*
X132752405Y-122499252D01*
X132718379Y-122436940D01*
X132715500Y-122410157D01*
X132715500Y-122020000D01*
X132735502Y-121951879D01*
X132789158Y-121905386D01*
X132841500Y-121894000D01*
X135944695Y-121894000D01*
X135952936Y-121894270D01*
X136017561Y-121898506D01*
X136105473Y-121888101D01*
X136108686Y-121887764D01*
X136196779Y-121879669D01*
X136202339Y-121878101D01*
X136205912Y-121877439D01*
X136216915Y-121875250D01*
X136220528Y-121874482D01*
X136226265Y-121873803D01*
X136310776Y-121847562D01*
X136313873Y-121846646D01*
X136399049Y-121822623D01*
X136404237Y-121820065D01*
X136407688Y-121818740D01*
X136418066Y-121814599D01*
X136421453Y-121813196D01*
X136426973Y-121811482D01*
X136505246Y-121770301D01*
X136508182Y-121768805D01*
X136587537Y-121729671D01*
X136592168Y-121726213D01*
X136595371Y-121724250D01*
X136604758Y-121718327D01*
X136607851Y-121716318D01*
X136612963Y-121713629D01*
X136682456Y-121658844D01*
X136685026Y-121656873D01*
X136751301Y-121607384D01*
X136751308Y-121607377D01*
X136755929Y-121603927D01*
X136811763Y-121543526D01*
X136815192Y-121539961D01*
X137494700Y-120860453D01*
X137551184Y-120827841D01*
X137603929Y-120813708D01*
X137603930Y-120813708D01*
X137609243Y-120812284D01*
X137706409Y-120766975D01*
X137811762Y-120717849D01*
X137811767Y-120717846D01*
X137816749Y-120715523D01*
X137938231Y-120630460D01*
X137999789Y-120587357D01*
X137999792Y-120587355D01*
X138004300Y-120584198D01*
X138166198Y-120422300D01*
X138176512Y-120407571D01*
X138244112Y-120311027D01*
X138297523Y-120234749D01*
X138299846Y-120229767D01*
X138299849Y-120229762D01*
X138391961Y-120032225D01*
X138391961Y-120032224D01*
X138394284Y-120027243D01*
X138398672Y-120010869D01*
X138452119Y-119811402D01*
X138452119Y-119811400D01*
X138453543Y-119806087D01*
X138473498Y-119578000D01*
X138453543Y-119349913D01*
X138452119Y-119344598D01*
X138395707Y-119134067D01*
X138395706Y-119134065D01*
X138394284Y-119128757D01*
X138347789Y-119029047D01*
X138299849Y-118926238D01*
X138299846Y-118926233D01*
X138297523Y-118921251D01*
X138166198Y-118733700D01*
X138004300Y-118571802D01*
X137999792Y-118568645D01*
X137999789Y-118568643D01*
X137894047Y-118494602D01*
X137816749Y-118440477D01*
X137811767Y-118438154D01*
X137811762Y-118438151D01*
X137614225Y-118346039D01*
X137614224Y-118346039D01*
X137609243Y-118343716D01*
X137603935Y-118342294D01*
X137603933Y-118342293D01*
X137393402Y-118285881D01*
X137393400Y-118285881D01*
X137388087Y-118284457D01*
X137160000Y-118264502D01*
X136931913Y-118284457D01*
X136926602Y-118285880D01*
X136926591Y-118285882D01*
X136868459Y-118301459D01*
X136797483Y-118299770D01*
X136746752Y-118268848D01*
X135922274Y-117444369D01*
X135057652Y-116579747D01*
X135050112Y-116571461D01*
X135046000Y-116564982D01*
X134996348Y-116518356D01*
X134993507Y-116515602D01*
X134973770Y-116495865D01*
X134970573Y-116493385D01*
X134961551Y-116485680D01*
X134935100Y-116460841D01*
X134929321Y-116455414D01*
X134922375Y-116451595D01*
X134922372Y-116451593D01*
X134911566Y-116445652D01*
X134895047Y-116434801D01*
X134894583Y-116434441D01*
X134879041Y-116422386D01*
X134871772Y-116419241D01*
X134871768Y-116419238D01*
X134838463Y-116404826D01*
X134827813Y-116399609D01*
X134789060Y-116378305D01*
X134789059Y-116378305D01*
X134789403Y-116377679D01*
X134738192Y-116337723D01*
X134719652Y-116299741D01*
X134713526Y-116278876D01*
X134712135Y-116277671D01*
X134704452Y-116276000D01*
X134604910Y-116276000D01*
X134536789Y-116255998D01*
X134529345Y-116250826D01*
X134518807Y-116242928D01*
X134456705Y-116196385D01*
X134320316Y-116145255D01*
X134313010Y-116144461D01*
X134251576Y-116109365D01*
X134218756Y-116046410D01*
X134225182Y-115975705D01*
X134268814Y-115919698D01*
X134312940Y-115899546D01*
X134320316Y-115898745D01*
X134456705Y-115847615D01*
X134529346Y-115793174D01*
X134595851Y-115768326D01*
X134604910Y-115768000D01*
X134699884Y-115768000D01*
X134715123Y-115763525D01*
X134727721Y-115748987D01*
X134787447Y-115710604D01*
X134822945Y-115705500D01*
X134860103Y-115705500D01*
X134928224Y-115725502D01*
X134949198Y-115742405D01*
X136129040Y-116922247D01*
X136136584Y-116930537D01*
X136140697Y-116937018D01*
X136146474Y-116942443D01*
X136190364Y-116983658D01*
X136193206Y-116986413D01*
X136212927Y-117006134D01*
X136216122Y-117008612D01*
X136225144Y-117016318D01*
X136257376Y-117046586D01*
X136264325Y-117050406D01*
X136275129Y-117056346D01*
X136291653Y-117067199D01*
X136307656Y-117079613D01*
X136314285Y-117082482D01*
X136357026Y-117124374D01*
X136424884Y-117234031D01*
X136430066Y-117239204D01*
X136542816Y-117351758D01*
X136542821Y-117351762D01*
X136547997Y-117356929D01*
X136554227Y-117360769D01*
X136554228Y-117360770D01*
X136629740Y-117407316D01*
X136696080Y-117448209D01*
X136861191Y-117502974D01*
X136868027Y-117503674D01*
X136868030Y-117503675D01*
X136915370Y-117508525D01*
X136963928Y-117513500D01*
X137663072Y-117513500D01*
X137666318Y-117513163D01*
X137666322Y-117513163D01*
X137760235Y-117503419D01*
X137760239Y-117503418D01*
X137767093Y-117502707D01*
X137773629Y-117500526D01*
X137773631Y-117500526D01*
X137906395Y-117456232D01*
X137932107Y-117447654D01*
X138080031Y-117356116D01*
X138087274Y-117348861D01*
X138089038Y-117347895D01*
X138090941Y-117346387D01*
X138091199Y-117346713D01*
X138149554Y-117314781D01*
X138220375Y-117319782D01*
X138265470Y-117348708D01*
X138268131Y-117351364D01*
X138279540Y-117360375D01*
X138415063Y-117443912D01*
X138428241Y-117450056D01*
X138579766Y-117500315D01*
X138593132Y-117503181D01*
X138685770Y-117512672D01*
X138692185Y-117513000D01*
X138766385Y-117513000D01*
X138781624Y-117508525D01*
X138782829Y-117507135D01*
X138784500Y-117499452D01*
X138784500Y-115565115D01*
X138781357Y-115554411D01*
X138779132Y-115492131D01*
X138784500Y-115467453D01*
X138784500Y-113533115D01*
X138781357Y-113522411D01*
X138779132Y-113460131D01*
X138784500Y-113435453D01*
X138784500Y-111501115D01*
X138780025Y-111485876D01*
X138778635Y-111484671D01*
X138770952Y-111483000D01*
X138692234Y-111483000D01*
X138685718Y-111483337D01*
X138591868Y-111493075D01*
X138578472Y-111495968D01*
X138427047Y-111546488D01*
X138413885Y-111552653D01*
X138278508Y-111636426D01*
X138267106Y-111645464D01*
X138265433Y-111647139D01*
X138264007Y-111647919D01*
X138261373Y-111650007D01*
X138261016Y-111649556D01*
X138203151Y-111681219D01*
X138132331Y-111676216D01*
X138087246Y-111647299D01*
X138084185Y-111644244D01*
X138079003Y-111639071D01*
X137930920Y-111547791D01*
X137879832Y-111530846D01*
X137821473Y-111490415D01*
X137794236Y-111424851D01*
X137793500Y-111411253D01*
X137793500Y-110637394D01*
X137813502Y-110569273D01*
X137847229Y-110534181D01*
X137999789Y-110427357D01*
X137999792Y-110427355D01*
X138004300Y-110424198D01*
X138166198Y-110262300D01*
X138297523Y-110074749D01*
X138299846Y-110069767D01*
X138299849Y-110069762D01*
X138391961Y-109872225D01*
X138391961Y-109872224D01*
X138394284Y-109867243D01*
X138428450Y-109739735D01*
X138465402Y-109679113D01*
X138529263Y-109648091D01*
X138599757Y-109656520D01*
G37*
%TD.AperFunction*%
%TA.AperFunction,Conductor*%
G36*
X136286933Y-108224502D02*
G01*
X136333426Y-108278158D01*
X136343530Y-108348432D01*
X136314036Y-108413012D01*
X136307907Y-108419595D01*
X136153802Y-108573700D01*
X136150645Y-108578208D01*
X136150643Y-108578211D01*
X136112995Y-108631978D01*
X136022477Y-108761251D01*
X136020154Y-108766233D01*
X136020151Y-108766238D01*
X136010866Y-108786151D01*
X135925716Y-108968757D01*
X135866457Y-109189913D01*
X135866455Y-109189912D01*
X135835685Y-109251994D01*
X135774771Y-109288462D01*
X135743128Y-109292500D01*
X135331394Y-109292500D01*
X135263273Y-109272498D01*
X135228181Y-109238771D01*
X135121357Y-109086211D01*
X135121355Y-109086208D01*
X135118198Y-109081700D01*
X134956300Y-108919802D01*
X134951792Y-108916645D01*
X134951789Y-108916643D01*
X134873611Y-108861902D01*
X134768749Y-108788477D01*
X134763767Y-108786154D01*
X134763762Y-108786151D01*
X134566225Y-108694039D01*
X134566224Y-108694039D01*
X134561243Y-108691716D01*
X134555935Y-108690294D01*
X134555933Y-108690293D01*
X134345402Y-108633881D01*
X134345400Y-108633881D01*
X134340087Y-108632457D01*
X134112000Y-108612502D01*
X133883913Y-108632457D01*
X133878600Y-108633881D01*
X133878598Y-108633881D01*
X133668067Y-108690293D01*
X133668065Y-108690294D01*
X133662757Y-108691716D01*
X133657776Y-108694039D01*
X133657775Y-108694039D01*
X133460238Y-108786151D01*
X133460233Y-108786154D01*
X133455251Y-108788477D01*
X133350389Y-108861902D01*
X133272211Y-108916643D01*
X133272208Y-108916645D01*
X133267700Y-108919802D01*
X133105802Y-109081700D01*
X132974477Y-109269251D01*
X132972154Y-109274233D01*
X132972151Y-109274238D01*
X132885284Y-109460528D01*
X132877716Y-109476757D01*
X132876294Y-109482065D01*
X132876293Y-109482067D01*
X132832344Y-109646087D01*
X132818457Y-109697913D01*
X132798502Y-109926000D01*
X132818457Y-110154087D01*
X132819881Y-110159400D01*
X132819881Y-110159402D01*
X132847214Y-110261407D01*
X132877716Y-110375243D01*
X132880039Y-110380224D01*
X132880039Y-110380225D01*
X132972151Y-110577762D01*
X132972154Y-110577767D01*
X132974477Y-110582749D01*
X133009774Y-110633158D01*
X133093223Y-110752335D01*
X133105802Y-110770300D01*
X133267700Y-110932198D01*
X133272208Y-110935355D01*
X133272211Y-110935357D01*
X133350389Y-110990098D01*
X133455251Y-111063523D01*
X133460233Y-111065846D01*
X133460238Y-111065849D01*
X133622530Y-111141526D01*
X133662757Y-111160284D01*
X133668065Y-111161706D01*
X133668067Y-111161707D01*
X133878598Y-111218119D01*
X133878600Y-111218119D01*
X133883913Y-111219543D01*
X134112000Y-111239498D01*
X134340087Y-111219543D01*
X134345400Y-111218119D01*
X134345402Y-111218119D01*
X134555933Y-111161707D01*
X134555935Y-111161706D01*
X134561243Y-111160284D01*
X134601470Y-111141526D01*
X134763762Y-111065849D01*
X134763767Y-111065846D01*
X134768749Y-111063523D01*
X134873611Y-110990098D01*
X134951789Y-110935357D01*
X134951792Y-110935355D01*
X134956300Y-110932198D01*
X135118198Y-110770300D01*
X135121357Y-110765789D01*
X135228181Y-110613229D01*
X135283638Y-110568901D01*
X135331394Y-110559500D01*
X136400500Y-110559500D01*
X136468621Y-110579502D01*
X136515114Y-110633158D01*
X136526500Y-110685500D01*
X136526500Y-111608262D01*
X136506498Y-111676383D01*
X136489673Y-111697279D01*
X136429246Y-111757812D01*
X136429242Y-111757817D01*
X136424071Y-111762997D01*
X136332791Y-111911080D01*
X136278026Y-112076191D01*
X136267500Y-112178928D01*
X136267500Y-112753072D01*
X136278293Y-112857093D01*
X136333346Y-113022107D01*
X136424884Y-113170031D01*
X136430066Y-113175204D01*
X136542816Y-113287758D01*
X136542821Y-113287762D01*
X136547997Y-113292929D01*
X136554227Y-113296769D01*
X136554228Y-113296770D01*
X136620116Y-113337384D01*
X136667609Y-113390156D01*
X136680000Y-113444644D01*
X136680000Y-113519360D01*
X136659998Y-113587481D01*
X136620304Y-113626503D01*
X136546969Y-113671884D01*
X136541796Y-113677066D01*
X136429242Y-113789816D01*
X136429238Y-113789821D01*
X136424071Y-113794997D01*
X136332791Y-113943080D01*
X136278026Y-114108191D01*
X136267500Y-114210928D01*
X136267500Y-114785072D01*
X136278293Y-114889093D01*
X136280474Y-114895629D01*
X136280474Y-114895631D01*
X136304832Y-114968640D01*
X136307416Y-115039589D01*
X136271233Y-115100673D01*
X136207768Y-115132498D01*
X136137173Y-115124959D01*
X136096213Y-115097611D01*
X135678349Y-114679747D01*
X135670809Y-114671461D01*
X135666697Y-114664982D01*
X135617045Y-114618356D01*
X135614204Y-114615602D01*
X135594467Y-114595865D01*
X135591270Y-114593385D01*
X135582248Y-114585680D01*
X135550018Y-114555414D01*
X135543072Y-114551595D01*
X135543069Y-114551593D01*
X135532263Y-114545652D01*
X135515744Y-114534801D01*
X135515280Y-114534441D01*
X135499738Y-114522386D01*
X135492469Y-114519241D01*
X135492465Y-114519238D01*
X135459160Y-114504826D01*
X135448510Y-114499609D01*
X135409757Y-114478305D01*
X135390134Y-114473267D01*
X135371431Y-114466863D01*
X135360117Y-114461967D01*
X135360116Y-114461967D01*
X135352842Y-114458819D01*
X135345019Y-114457580D01*
X135345009Y-114457577D01*
X135309173Y-114451901D01*
X135297553Y-114449495D01*
X135262408Y-114440472D01*
X135262407Y-114440472D01*
X135254727Y-114438500D01*
X135234473Y-114438500D01*
X135214762Y-114436949D01*
X135202583Y-114435020D01*
X135194754Y-114433780D01*
X135186862Y-114434526D01*
X135150736Y-114437941D01*
X135138878Y-114438500D01*
X134677329Y-114438500D01*
X134609208Y-114418498D01*
X134585668Y-114396593D01*
X134584992Y-114397269D01*
X134578642Y-114390919D01*
X134573261Y-114383739D01*
X134456705Y-114296385D01*
X134320316Y-114245255D01*
X134258134Y-114238500D01*
X132601866Y-114238500D01*
X132539684Y-114245255D01*
X132403295Y-114296385D01*
X132286739Y-114383739D01*
X132199385Y-114500295D01*
X132196233Y-114508703D01*
X132191923Y-114516575D01*
X132189543Y-114515272D01*
X132155336Y-114560804D01*
X132088773Y-114585501D01*
X132019425Y-114570291D01*
X131969309Y-114520003D01*
X131966067Y-114512903D01*
X131963766Y-114508701D01*
X131960615Y-114500295D01*
X131873261Y-114383739D01*
X131756705Y-114296385D01*
X131620316Y-114245255D01*
X131558134Y-114238500D01*
X129901866Y-114238500D01*
X129839684Y-114245255D01*
X129703295Y-114296385D01*
X129586739Y-114383739D01*
X129581358Y-114390919D01*
X129575008Y-114397269D01*
X129573373Y-114395634D01*
X129526641Y-114430579D01*
X129482671Y-114438500D01*
X129376500Y-114438500D01*
X129308379Y-114418498D01*
X129261886Y-114364842D01*
X129250500Y-114312500D01*
X129250500Y-113957866D01*
X129243745Y-113895684D01*
X129192615Y-113759295D01*
X129105261Y-113642739D01*
X128988705Y-113555385D01*
X128852316Y-113504255D01*
X128790134Y-113497500D01*
X127093866Y-113497500D01*
X127031684Y-113504255D01*
X126895295Y-113555385D01*
X126778739Y-113642739D01*
X126691385Y-113759295D01*
X126640255Y-113895684D01*
X126633500Y-113957866D01*
X126633500Y-115702500D01*
X126613498Y-115770621D01*
X126559842Y-115817114D01*
X126507500Y-115828500D01*
X126476500Y-115828500D01*
X126408379Y-115808498D01*
X126361886Y-115754842D01*
X126350500Y-115702500D01*
X126350500Y-115557866D01*
X126343745Y-115495684D01*
X126292615Y-115359295D01*
X126205261Y-115242739D01*
X126088705Y-115155385D01*
X126007544Y-115124959D01*
X126004226Y-115123715D01*
X125947462Y-115081073D01*
X125922762Y-115014512D01*
X125937970Y-114945163D01*
X125988256Y-114895045D01*
X126004226Y-114887751D01*
X126080054Y-114859324D01*
X126095649Y-114850786D01*
X126197724Y-114774285D01*
X126210285Y-114761724D01*
X126286786Y-114659649D01*
X126295324Y-114644054D01*
X126340478Y-114523606D01*
X126344105Y-114508351D01*
X126349631Y-114457486D01*
X126350000Y-114450672D01*
X126350000Y-114028115D01*
X126345525Y-114012876D01*
X126344135Y-114011671D01*
X126336452Y-114010000D01*
X123752116Y-114010000D01*
X123736877Y-114014475D01*
X123735672Y-114015865D01*
X123734001Y-114023548D01*
X123734001Y-114450669D01*
X123734371Y-114457490D01*
X123739895Y-114508352D01*
X123743521Y-114523604D01*
X123788676Y-114644054D01*
X123797214Y-114659649D01*
X123873715Y-114761724D01*
X123886276Y-114774285D01*
X123988351Y-114850786D01*
X124003946Y-114859324D01*
X124079774Y-114887751D01*
X124136538Y-114930393D01*
X124161238Y-114996954D01*
X124146030Y-115066303D01*
X124095744Y-115116421D01*
X124079774Y-115123715D01*
X124076456Y-115124959D01*
X123995295Y-115155385D01*
X123878739Y-115242739D01*
X123791385Y-115359295D01*
X123740255Y-115495684D01*
X123733500Y-115557866D01*
X123733500Y-115895156D01*
X123713498Y-115963277D01*
X123696595Y-115984251D01*
X123660667Y-116020179D01*
X123659493Y-116021338D01*
X123585751Y-116093174D01*
X123582434Y-116097867D01*
X123575771Y-116105075D01*
X121295196Y-118385651D01*
X121289178Y-118391288D01*
X121240481Y-118433994D01*
X121236906Y-118438529D01*
X121236905Y-118438530D01*
X121185702Y-118503482D01*
X121183624Y-118506047D01*
X121127074Y-118574040D01*
X121125019Y-118572330D01*
X121078687Y-118609976D01*
X121008128Y-118617849D01*
X120944514Y-118586326D01*
X120908040Y-118525414D01*
X120904000Y-118493762D01*
X120904000Y-113483885D01*
X123734000Y-113483885D01*
X123738475Y-113499124D01*
X123739865Y-113500329D01*
X123747548Y-113502000D01*
X124769885Y-113502000D01*
X124785124Y-113497525D01*
X124786329Y-113496135D01*
X124788000Y-113488452D01*
X124788000Y-113483885D01*
X125296000Y-113483885D01*
X125300475Y-113499124D01*
X125301865Y-113500329D01*
X125309548Y-113502000D01*
X126331884Y-113502000D01*
X126347123Y-113497525D01*
X126348328Y-113496135D01*
X126349999Y-113488452D01*
X126349999Y-113061331D01*
X126349629Y-113054510D01*
X126344105Y-113003648D01*
X126340479Y-112988396D01*
X126295324Y-112867946D01*
X126286786Y-112852351D01*
X126210285Y-112750276D01*
X126197724Y-112737715D01*
X126095649Y-112661214D01*
X126080054Y-112652676D01*
X125959606Y-112607522D01*
X125944351Y-112603895D01*
X125893486Y-112598369D01*
X125886672Y-112598000D01*
X125314115Y-112598000D01*
X125298876Y-112602475D01*
X125297671Y-112603865D01*
X125296000Y-112611548D01*
X125296000Y-113483885D01*
X124788000Y-113483885D01*
X124788000Y-112616116D01*
X124783525Y-112600877D01*
X124782135Y-112599672D01*
X124774452Y-112598001D01*
X124197331Y-112598001D01*
X124190510Y-112598371D01*
X124139648Y-112603895D01*
X124124396Y-112607521D01*
X124003946Y-112652676D01*
X123988351Y-112661214D01*
X123886276Y-112737715D01*
X123873715Y-112750276D01*
X123797214Y-112852351D01*
X123788676Y-112867946D01*
X123743522Y-112988394D01*
X123739895Y-113003649D01*
X123734369Y-113054514D01*
X123734000Y-113061328D01*
X123734000Y-113483885D01*
X120904000Y-113483885D01*
X120904000Y-112513102D01*
X120924002Y-112444981D01*
X120977658Y-112398488D01*
X121003552Y-112390684D01*
X121003889Y-112390673D01*
X121023343Y-112385021D01*
X121042700Y-112381013D01*
X121054930Y-112379468D01*
X121054931Y-112379468D01*
X121062797Y-112378474D01*
X121070168Y-112375555D01*
X121070170Y-112375555D01*
X121103912Y-112362196D01*
X121115142Y-112358351D01*
X121149983Y-112348229D01*
X121149984Y-112348229D01*
X121157593Y-112346018D01*
X121164412Y-112341985D01*
X121164417Y-112341983D01*
X121175028Y-112335707D01*
X121192776Y-112327012D01*
X121211617Y-112319552D01*
X121247387Y-112293564D01*
X121257307Y-112287048D01*
X121288535Y-112268580D01*
X121288538Y-112268578D01*
X121295362Y-112264542D01*
X121309683Y-112250221D01*
X121324717Y-112237380D01*
X121334694Y-112230131D01*
X121341107Y-112225472D01*
X121369298Y-112191395D01*
X121377288Y-112182616D01*
X122778608Y-110781296D01*
X122840920Y-110747270D01*
X122911735Y-110752335D01*
X122956798Y-110781296D01*
X123107700Y-110932198D01*
X123112208Y-110935355D01*
X123112211Y-110935357D01*
X123190389Y-110990098D01*
X123295251Y-111063523D01*
X123300233Y-111065846D01*
X123300238Y-111065849D01*
X123462530Y-111141526D01*
X123502757Y-111160284D01*
X123508065Y-111161706D01*
X123508067Y-111161707D01*
X123718598Y-111218119D01*
X123718600Y-111218119D01*
X123723913Y-111219543D01*
X123952000Y-111239498D01*
X124180087Y-111219543D01*
X124185400Y-111218119D01*
X124185402Y-111218119D01*
X124395933Y-111161707D01*
X124395935Y-111161706D01*
X124401243Y-111160284D01*
X124441470Y-111141526D01*
X124603762Y-111065849D01*
X124603767Y-111065846D01*
X124608749Y-111063523D01*
X124713611Y-110990098D01*
X124791789Y-110935357D01*
X124791792Y-110935355D01*
X124796300Y-110932198D01*
X124958198Y-110770300D01*
X124970778Y-110752335D01*
X125054226Y-110633158D01*
X125089523Y-110582749D01*
X125091846Y-110577767D01*
X125091849Y-110577762D01*
X125183961Y-110380225D01*
X125183961Y-110380224D01*
X125186284Y-110375243D01*
X125216787Y-110261407D01*
X125244119Y-110159402D01*
X125244119Y-110159400D01*
X125245543Y-110154087D01*
X125265498Y-109926000D01*
X125245543Y-109697913D01*
X125231656Y-109646087D01*
X125187707Y-109482067D01*
X125187706Y-109482065D01*
X125186284Y-109476757D01*
X125178716Y-109460528D01*
X125091849Y-109274238D01*
X125091846Y-109274233D01*
X125089523Y-109269251D01*
X124958198Y-109081700D01*
X124796300Y-108919802D01*
X124791792Y-108916645D01*
X124791789Y-108916643D01*
X124713611Y-108861902D01*
X124608749Y-108788477D01*
X124603767Y-108786154D01*
X124603762Y-108786151D01*
X124406225Y-108694039D01*
X124406224Y-108694039D01*
X124401243Y-108691716D01*
X124273735Y-108657550D01*
X124213113Y-108620598D01*
X124182091Y-108556737D01*
X124190520Y-108486243D01*
X124217252Y-108446748D01*
X124422595Y-108241405D01*
X124484907Y-108207379D01*
X124511690Y-108204500D01*
X136218812Y-108204500D01*
X136286933Y-108224502D01*
G37*
%TD.AperFunction*%
%TD*%
%TA.AperFunction,Conductor*%
%TO.N,Coil*%
G36*
X100272121Y-112288002D02*
G01*
X100318614Y-112341658D01*
X100330000Y-112394000D01*
X100330000Y-135510000D01*
X100309998Y-135578121D01*
X100256342Y-135624614D01*
X100204000Y-135636000D01*
X96335144Y-135636000D01*
X96267023Y-135615998D01*
X96220530Y-135562342D01*
X96210426Y-135492068D01*
X96239920Y-135427488D01*
X96302533Y-135388293D01*
X96455761Y-135347236D01*
X96466053Y-135343490D01*
X96663511Y-135251414D01*
X96673007Y-135245931D01*
X96851467Y-135120972D01*
X96859875Y-135113916D01*
X97013916Y-134959875D01*
X97020972Y-134951467D01*
X97145931Y-134773007D01*
X97151414Y-134763511D01*
X97243490Y-134566053D01*
X97247236Y-134555761D01*
X97293394Y-134383497D01*
X97293058Y-134369401D01*
X97285116Y-134366000D01*
X95884000Y-134366000D01*
X95815879Y-134345998D01*
X95769386Y-134292342D01*
X95758000Y-134240000D01*
X95758000Y-133839885D01*
X96266000Y-133839885D01*
X96270475Y-133855124D01*
X96271865Y-133856329D01*
X96279548Y-133858000D01*
X97279967Y-133858000D01*
X97293498Y-133854027D01*
X97294727Y-133845478D01*
X97247236Y-133668239D01*
X97243490Y-133657947D01*
X97151414Y-133460489D01*
X97145931Y-133450993D01*
X97020972Y-133272533D01*
X97013916Y-133264125D01*
X96859875Y-133110084D01*
X96851467Y-133103028D01*
X96673007Y-132978069D01*
X96663511Y-132972586D01*
X96466053Y-132880510D01*
X96455761Y-132876764D01*
X96283497Y-132830606D01*
X96269401Y-132830942D01*
X96266000Y-132838884D01*
X96266000Y-133839885D01*
X95758000Y-133839885D01*
X95758000Y-132844033D01*
X95754027Y-132830502D01*
X95745478Y-132829273D01*
X95568239Y-132876764D01*
X95557947Y-132880510D01*
X95360489Y-132972586D01*
X95350993Y-132978069D01*
X95172533Y-133103028D01*
X95164125Y-133110084D01*
X95010084Y-133264125D01*
X95003028Y-133272533D01*
X94971213Y-133317970D01*
X94915756Y-133362298D01*
X94845137Y-133369607D01*
X94781776Y-133337576D01*
X94745791Y-133276375D01*
X94742000Y-133245699D01*
X94742000Y-129898301D01*
X94762002Y-129830180D01*
X94815658Y-129783687D01*
X94885932Y-129773583D01*
X94950512Y-129803077D01*
X94971213Y-129826030D01*
X95003028Y-129871467D01*
X95010084Y-129879875D01*
X95164125Y-130033916D01*
X95172533Y-130040972D01*
X95350993Y-130165931D01*
X95360489Y-130171414D01*
X95557947Y-130263490D01*
X95568239Y-130267236D01*
X95740503Y-130313394D01*
X95754599Y-130313058D01*
X95758000Y-130305116D01*
X95758000Y-130299967D01*
X96266000Y-130299967D01*
X96269973Y-130313498D01*
X96278522Y-130314727D01*
X96455761Y-130267236D01*
X96466053Y-130263490D01*
X96663511Y-130171414D01*
X96673007Y-130165931D01*
X96851467Y-130040972D01*
X96859875Y-130033916D01*
X97013916Y-129879875D01*
X97020972Y-129871467D01*
X97145931Y-129693007D01*
X97151414Y-129683511D01*
X97243490Y-129486053D01*
X97247236Y-129475761D01*
X97293394Y-129303497D01*
X97293058Y-129289401D01*
X97285116Y-129286000D01*
X96284115Y-129286000D01*
X96268876Y-129290475D01*
X96267671Y-129291865D01*
X96266000Y-129299548D01*
X96266000Y-130299967D01*
X95758000Y-130299967D01*
X95758000Y-128759885D01*
X96266000Y-128759885D01*
X96270475Y-128775124D01*
X96271865Y-128776329D01*
X96279548Y-128778000D01*
X97279967Y-128778000D01*
X97293498Y-128774027D01*
X97294727Y-128765478D01*
X97247236Y-128588239D01*
X97243490Y-128577947D01*
X97151414Y-128380489D01*
X97145931Y-128370993D01*
X97020972Y-128192533D01*
X97013916Y-128184125D01*
X96859875Y-128030084D01*
X96851467Y-128023028D01*
X96673007Y-127898069D01*
X96663511Y-127892586D01*
X96466053Y-127800510D01*
X96455761Y-127796764D01*
X96283497Y-127750606D01*
X96269401Y-127750942D01*
X96266000Y-127758884D01*
X96266000Y-128759885D01*
X95758000Y-128759885D01*
X95758000Y-127764033D01*
X95754027Y-127750502D01*
X95745478Y-127749273D01*
X95568239Y-127796764D01*
X95557947Y-127800510D01*
X95360489Y-127892586D01*
X95350993Y-127898069D01*
X95172533Y-128023028D01*
X95164125Y-128030084D01*
X95010084Y-128184125D01*
X95003028Y-128192533D01*
X94971213Y-128237970D01*
X94915756Y-128282298D01*
X94845137Y-128289607D01*
X94781776Y-128257576D01*
X94745791Y-128196375D01*
X94742000Y-128165699D01*
X94742000Y-124818301D01*
X94762002Y-124750180D01*
X94815658Y-124703687D01*
X94885932Y-124693583D01*
X94950512Y-124723077D01*
X94971213Y-124746030D01*
X95003028Y-124791467D01*
X95010084Y-124799875D01*
X95164125Y-124953916D01*
X95172533Y-124960972D01*
X95350993Y-125085931D01*
X95360489Y-125091414D01*
X95557947Y-125183490D01*
X95568239Y-125187236D01*
X95740503Y-125233394D01*
X95754599Y-125233058D01*
X95758000Y-125225116D01*
X95758000Y-125219967D01*
X96266000Y-125219967D01*
X96269973Y-125233498D01*
X96278522Y-125234727D01*
X96455761Y-125187236D01*
X96466053Y-125183490D01*
X96663511Y-125091414D01*
X96673007Y-125085931D01*
X96851467Y-124960972D01*
X96859875Y-124953916D01*
X97013916Y-124799875D01*
X97020972Y-124791467D01*
X97145931Y-124613007D01*
X97151414Y-124603511D01*
X97243490Y-124406053D01*
X97247236Y-124395761D01*
X97293394Y-124223497D01*
X97293058Y-124209401D01*
X97285116Y-124206000D01*
X96284115Y-124206000D01*
X96268876Y-124210475D01*
X96267671Y-124211865D01*
X96266000Y-124219548D01*
X96266000Y-125219967D01*
X95758000Y-125219967D01*
X95758000Y-123679885D01*
X96266000Y-123679885D01*
X96270475Y-123695124D01*
X96271865Y-123696329D01*
X96279548Y-123698000D01*
X97279967Y-123698000D01*
X97293498Y-123694027D01*
X97294727Y-123685478D01*
X97247236Y-123508239D01*
X97243490Y-123497947D01*
X97151414Y-123300489D01*
X97145931Y-123290993D01*
X97020972Y-123112533D01*
X97013916Y-123104125D01*
X96859875Y-122950084D01*
X96851467Y-122943028D01*
X96673007Y-122818069D01*
X96663511Y-122812586D01*
X96466053Y-122720510D01*
X96455761Y-122716764D01*
X96283497Y-122670606D01*
X96269401Y-122670942D01*
X96266000Y-122678884D01*
X96266000Y-123679885D01*
X95758000Y-123679885D01*
X95758000Y-122684033D01*
X95754027Y-122670502D01*
X95745478Y-122669273D01*
X95568239Y-122716764D01*
X95557947Y-122720510D01*
X95360489Y-122812586D01*
X95350993Y-122818069D01*
X95172533Y-122943028D01*
X95164125Y-122950084D01*
X95010084Y-123104125D01*
X95003028Y-123112533D01*
X94971213Y-123157970D01*
X94915756Y-123202298D01*
X94845137Y-123209607D01*
X94781776Y-123177576D01*
X94745791Y-123116375D01*
X94742000Y-123085699D01*
X94742000Y-119738301D01*
X94762002Y-119670180D01*
X94815658Y-119623687D01*
X94885932Y-119613583D01*
X94950512Y-119643077D01*
X94971213Y-119666030D01*
X95003028Y-119711467D01*
X95010084Y-119719875D01*
X95164125Y-119873916D01*
X95172533Y-119880972D01*
X95350993Y-120005931D01*
X95360489Y-120011414D01*
X95557947Y-120103490D01*
X95568239Y-120107236D01*
X95740503Y-120153394D01*
X95754599Y-120153058D01*
X95758000Y-120145116D01*
X95758000Y-120139967D01*
X96266000Y-120139967D01*
X96269973Y-120153498D01*
X96278522Y-120154727D01*
X96455761Y-120107236D01*
X96466053Y-120103490D01*
X96663511Y-120011414D01*
X96673007Y-120005931D01*
X96851467Y-119880972D01*
X96859875Y-119873916D01*
X97013916Y-119719875D01*
X97020972Y-119711467D01*
X97145931Y-119533007D01*
X97151414Y-119523511D01*
X97243490Y-119326053D01*
X97247236Y-119315761D01*
X97293394Y-119143497D01*
X97293058Y-119129401D01*
X97285116Y-119126000D01*
X96284115Y-119126000D01*
X96268876Y-119130475D01*
X96267671Y-119131865D01*
X96266000Y-119139548D01*
X96266000Y-120139967D01*
X95758000Y-120139967D01*
X95758000Y-118599885D01*
X96266000Y-118599885D01*
X96270475Y-118615124D01*
X96271865Y-118616329D01*
X96279548Y-118618000D01*
X97279967Y-118618000D01*
X97293498Y-118614027D01*
X97294727Y-118605478D01*
X97247236Y-118428239D01*
X97243490Y-118417947D01*
X97151414Y-118220489D01*
X97145931Y-118210993D01*
X97020972Y-118032533D01*
X97013916Y-118024125D01*
X96859875Y-117870084D01*
X96851467Y-117863028D01*
X96673007Y-117738069D01*
X96663511Y-117732586D01*
X96466053Y-117640510D01*
X96455761Y-117636764D01*
X96283497Y-117590606D01*
X96269401Y-117590942D01*
X96266000Y-117598884D01*
X96266000Y-118599885D01*
X95758000Y-118599885D01*
X95758000Y-117604033D01*
X95754027Y-117590502D01*
X95745478Y-117589273D01*
X95568239Y-117636764D01*
X95557947Y-117640510D01*
X95360489Y-117732586D01*
X95350993Y-117738069D01*
X95172533Y-117863028D01*
X95164125Y-117870084D01*
X95010084Y-118024125D01*
X95003028Y-118032533D01*
X94971213Y-118077970D01*
X94915756Y-118122298D01*
X94845137Y-118129607D01*
X94781776Y-118097576D01*
X94745791Y-118036375D01*
X94742000Y-118005699D01*
X94742000Y-114658301D01*
X94762002Y-114590180D01*
X94815658Y-114543687D01*
X94885932Y-114533583D01*
X94950512Y-114563077D01*
X94971213Y-114586030D01*
X95003028Y-114631467D01*
X95010084Y-114639875D01*
X95164125Y-114793916D01*
X95172533Y-114800972D01*
X95350993Y-114925931D01*
X95360489Y-114931414D01*
X95557947Y-115023490D01*
X95568239Y-115027236D01*
X95740503Y-115073394D01*
X95754599Y-115073058D01*
X95758000Y-115065116D01*
X95758000Y-115059967D01*
X96266000Y-115059967D01*
X96269973Y-115073498D01*
X96278522Y-115074727D01*
X96455761Y-115027236D01*
X96466053Y-115023490D01*
X96663511Y-114931414D01*
X96673007Y-114925931D01*
X96851467Y-114800972D01*
X96859875Y-114793916D01*
X97013916Y-114639875D01*
X97020972Y-114631467D01*
X97145931Y-114453007D01*
X97151414Y-114443511D01*
X97243490Y-114246053D01*
X97247236Y-114235761D01*
X97293394Y-114063497D01*
X97293058Y-114049401D01*
X97285116Y-114046000D01*
X96284115Y-114046000D01*
X96268876Y-114050475D01*
X96267671Y-114051865D01*
X96266000Y-114059548D01*
X96266000Y-115059967D01*
X95758000Y-115059967D01*
X95758000Y-113664000D01*
X95778002Y-113595879D01*
X95831658Y-113549386D01*
X95884000Y-113538000D01*
X97279967Y-113538000D01*
X97293498Y-113534027D01*
X97294727Y-113525478D01*
X97247236Y-113348239D01*
X97243490Y-113337947D01*
X97151414Y-113140489D01*
X97145931Y-113130993D01*
X97020972Y-112952533D01*
X97013916Y-112944125D01*
X96859875Y-112790084D01*
X96851467Y-112783028D01*
X96673007Y-112658069D01*
X96663511Y-112652586D01*
X96466053Y-112560510D01*
X96455761Y-112556764D01*
X96302533Y-112515707D01*
X96241910Y-112478755D01*
X96210889Y-112414895D01*
X96219317Y-112344400D01*
X96264520Y-112289653D01*
X96335144Y-112268000D01*
X100204000Y-112268000D01*
X100272121Y-112288002D01*
G37*
%TD.AperFunction*%
%TD*%
%TA.AperFunction,Conductor*%
%TO.N,GND*%
G36*
X81413517Y-114828002D02*
G01*
X81460010Y-114881658D01*
X81470114Y-114951932D01*
X81440620Y-115016512D01*
X81434491Y-115023095D01*
X79739696Y-116717890D01*
X79733678Y-116723527D01*
X79684981Y-116766233D01*
X79681406Y-116770768D01*
X79681405Y-116770769D01*
X79630202Y-116835721D01*
X79628124Y-116838286D01*
X79575266Y-116901839D01*
X79575262Y-116901844D01*
X79571574Y-116906279D01*
X79568755Y-116911313D01*
X79566686Y-116914323D01*
X79560492Y-116923593D01*
X79558449Y-116926738D01*
X79554872Y-116931276D01*
X79552184Y-116936384D01*
X79552182Y-116936388D01*
X79513688Y-117009555D01*
X79512118Y-117012445D01*
X79468885Y-117089643D01*
X79467028Y-117095115D01*
X79465514Y-117098515D01*
X79461127Y-117108726D01*
X79459705Y-117112160D01*
X79457018Y-117117266D01*
X79455306Y-117122780D01*
X79455305Y-117122782D01*
X79430788Y-117201738D01*
X79429769Y-117204874D01*
X79401331Y-117288651D01*
X79400502Y-117294364D01*
X79399659Y-117297877D01*
X79397167Y-117308890D01*
X79396409Y-117312457D01*
X79394696Y-117317973D01*
X79384436Y-117404666D01*
X79384297Y-117405837D01*
X79383870Y-117409079D01*
X79371175Y-117496636D01*
X79371402Y-117502404D01*
X79374403Y-117578793D01*
X79374500Y-117583740D01*
X79374500Y-117963240D01*
X79354498Y-118031361D01*
X79327280Y-118061574D01*
X79142391Y-118209697D01*
X79142380Y-118209707D01*
X79139035Y-118212387D01*
X79136078Y-118215503D01*
X79136077Y-118215504D01*
X79127832Y-118224193D01*
X78948273Y-118413409D01*
X78786557Y-118638460D01*
X78656880Y-118883376D01*
X78561643Y-119143626D01*
X78502606Y-119414392D01*
X78502270Y-119418662D01*
X78484112Y-119649383D01*
X78465012Y-119699495D01*
X78479396Y-119721876D01*
X78484291Y-119750121D01*
X78484695Y-119757130D01*
X78496815Y-119967335D01*
X78497640Y-119971542D01*
X78497641Y-119971547D01*
X78518240Y-120076539D01*
X78550169Y-120239279D01*
X78639935Y-120501466D01*
X78764454Y-120749044D01*
X78921421Y-120977433D01*
X79107932Y-121182405D01*
X79111221Y-121185155D01*
X79317243Y-121357417D01*
X79317248Y-121357421D01*
X79320535Y-121360169D01*
X79374976Y-121394320D01*
X79551656Y-121505152D01*
X79551660Y-121505154D01*
X79555296Y-121507435D01*
X79807872Y-121621477D01*
X79811992Y-121622697D01*
X79811991Y-121622697D01*
X80069475Y-121698967D01*
X80069479Y-121698968D01*
X80073588Y-121700185D01*
X80077825Y-121700833D01*
X80077828Y-121700834D01*
X80306846Y-121735879D01*
X80347527Y-121742104D01*
X80488602Y-121744320D01*
X80620330Y-121746390D01*
X80620336Y-121746390D01*
X80624621Y-121746457D01*
X80899742Y-121713164D01*
X81167800Y-121642840D01*
X81423833Y-121536788D01*
X81663104Y-121396969D01*
X81881186Y-121225971D01*
X81920740Y-121185155D01*
X82071060Y-121030036D01*
X82074043Y-121026958D01*
X82076576Y-121023510D01*
X82076580Y-121023505D01*
X82235568Y-120807068D01*
X82238106Y-120803613D01*
X82240152Y-120799845D01*
X82368290Y-120563844D01*
X82368291Y-120563842D01*
X82370340Y-120560068D01*
X82468298Y-120300830D01*
X82530167Y-120030696D01*
X82554802Y-119754665D01*
X82555249Y-119712000D01*
X82554596Y-119702420D01*
X82536692Y-119439791D01*
X82536691Y-119439785D01*
X82536400Y-119435514D01*
X82532926Y-119418736D01*
X82492432Y-119223201D01*
X82480202Y-119164143D01*
X82387695Y-118902911D01*
X82260590Y-118656650D01*
X82251639Y-118643913D01*
X82103707Y-118433428D01*
X82103706Y-118433427D01*
X82101240Y-118429918D01*
X81912593Y-118226909D01*
X81903291Y-118219295D01*
X81774169Y-118113611D01*
X81734123Y-118054986D01*
X81732130Y-117984018D01*
X81764880Y-117927012D01*
X84719487Y-114972405D01*
X84781799Y-114938379D01*
X84808582Y-114935500D01*
X93346000Y-114935500D01*
X93414121Y-114955502D01*
X93460614Y-115009158D01*
X93472000Y-115061500D01*
X93472000Y-133673905D01*
X93451998Y-133742026D01*
X93398342Y-133788519D01*
X93328068Y-133798623D01*
X93263488Y-133769129D01*
X93256905Y-133763000D01*
X91611496Y-132117591D01*
X91577470Y-132055279D01*
X91582535Y-131984464D01*
X91625082Y-131927628D01*
X91637020Y-131919708D01*
X91819401Y-131813133D01*
X91819402Y-131813132D01*
X91823104Y-131810969D01*
X92041186Y-131639971D01*
X92080740Y-131599155D01*
X92231060Y-131444036D01*
X92234043Y-131440958D01*
X92236576Y-131437510D01*
X92236580Y-131437505D01*
X92395568Y-131221068D01*
X92398106Y-131217613D01*
X92530340Y-130974068D01*
X92628298Y-130714830D01*
X92690167Y-130444696D01*
X92714802Y-130168665D01*
X92715249Y-130126000D01*
X92715080Y-130123520D01*
X92696692Y-129853791D01*
X92696691Y-129853785D01*
X92696400Y-129849514D01*
X92640202Y-129578143D01*
X92547695Y-129316911D01*
X92457509Y-129142179D01*
X92422555Y-129074457D01*
X92422555Y-129074456D01*
X92420590Y-129070650D01*
X92414101Y-129061416D01*
X92263707Y-128847428D01*
X92263706Y-128847427D01*
X92261240Y-128843918D01*
X92072593Y-128640909D01*
X92051572Y-128623703D01*
X91861458Y-128468098D01*
X91858140Y-128465382D01*
X91621849Y-128320583D01*
X91617932Y-128318864D01*
X91617929Y-128318862D01*
X91506346Y-128269881D01*
X91368093Y-128209192D01*
X91363965Y-128208016D01*
X91363962Y-128208015D01*
X91281917Y-128184644D01*
X91101568Y-128133270D01*
X91097326Y-128132666D01*
X91097320Y-128132665D01*
X90831455Y-128094827D01*
X90827204Y-128094222D01*
X90681115Y-128093457D01*
X90554366Y-128092793D01*
X90554360Y-128092793D01*
X90550080Y-128092771D01*
X90545835Y-128093330D01*
X90545833Y-128093330D01*
X90534463Y-128094827D01*
X90275323Y-128128944D01*
X90008017Y-128202070D01*
X90004069Y-128203754D01*
X89757060Y-128309112D01*
X89757056Y-128309114D01*
X89753108Y-128310798D01*
X89733021Y-128322820D01*
X89518996Y-128450911D01*
X89518992Y-128450914D01*
X89515314Y-128453115D01*
X89353494Y-128582757D01*
X89334326Y-128598114D01*
X89299035Y-128626387D01*
X89108273Y-128827409D01*
X88946557Y-129052460D01*
X88816880Y-129297376D01*
X88721643Y-129557626D01*
X88662606Y-129828392D01*
X88640863Y-130104666D01*
X88656815Y-130381335D01*
X88657640Y-130385542D01*
X88657641Y-130385547D01*
X88689123Y-130546009D01*
X88682610Y-130616706D01*
X88638909Y-130672659D01*
X88571895Y-130696104D01*
X88502844Y-130679596D01*
X88476385Y-130659362D01*
X87505773Y-129688749D01*
X86268405Y-128451381D01*
X86234379Y-128389069D01*
X86231500Y-128362286D01*
X86231500Y-121318692D01*
X89436580Y-121318692D01*
X89443635Y-121328665D01*
X89477534Y-121357008D01*
X89484471Y-121362048D01*
X89711893Y-121504710D01*
X89719444Y-121508759D01*
X89964135Y-121619240D01*
X89972166Y-121622227D01*
X90229585Y-121698479D01*
X90237936Y-121700346D01*
X90503327Y-121740956D01*
X90511861Y-121741672D01*
X90780304Y-121745890D01*
X90788855Y-121745441D01*
X91055391Y-121713187D01*
X91063791Y-121711585D01*
X91323497Y-121643452D01*
X91331599Y-121640725D01*
X91579650Y-121537979D01*
X91587312Y-121534176D01*
X91819124Y-121398716D01*
X91826189Y-121393915D01*
X91909751Y-121328393D01*
X91918220Y-121316536D01*
X91911703Y-121304913D01*
X90690812Y-120084022D01*
X90676868Y-120076408D01*
X90675035Y-120076539D01*
X90668420Y-120080790D01*
X89443872Y-121305338D01*
X89436580Y-121318692D01*
X86231500Y-121318692D01*
X86231500Y-119694952D01*
X88641611Y-119694952D01*
X88657065Y-119962985D01*
X88658138Y-119971484D01*
X88709829Y-120234948D01*
X88712040Y-120243200D01*
X88799008Y-120497216D01*
X88802323Y-120505101D01*
X88922958Y-120744957D01*
X88927313Y-120752321D01*
X89060089Y-120945510D01*
X89070343Y-120953853D01*
X89084082Y-120946708D01*
X90305978Y-119724812D01*
X90312356Y-119713132D01*
X91042408Y-119713132D01*
X91042539Y-119714965D01*
X91046790Y-119721580D01*
X92270898Y-120945688D01*
X92283107Y-120952355D01*
X92294607Y-120943665D01*
X92395142Y-120806803D01*
X92399729Y-120799575D01*
X92527835Y-120563635D01*
X92531403Y-120555841D01*
X92626301Y-120304703D01*
X92628778Y-120296497D01*
X92688714Y-120034802D01*
X92690054Y-120026342D01*
X92714081Y-119757119D01*
X92714327Y-119752180D01*
X92714722Y-119714484D01*
X92714579Y-119709520D01*
X92696196Y-119439859D01*
X92695035Y-119431385D01*
X92640590Y-119168484D01*
X92638286Y-119160230D01*
X92548666Y-118907151D01*
X92545270Y-118899303D01*
X92422126Y-118660717D01*
X92417698Y-118653405D01*
X92295258Y-118479190D01*
X92284736Y-118470810D01*
X92271348Y-118477862D01*
X91050022Y-119699188D01*
X91042408Y-119713132D01*
X90312356Y-119713132D01*
X90313592Y-119710868D01*
X90313461Y-119709035D01*
X90309210Y-119702420D01*
X89084617Y-118477827D01*
X89072607Y-118471268D01*
X89060868Y-118480236D01*
X88949491Y-118635234D01*
X88944969Y-118642528D01*
X88819349Y-118879783D01*
X88815863Y-118887611D01*
X88723599Y-119139734D01*
X88721210Y-119147957D01*
X88664015Y-119410280D01*
X88662766Y-119418736D01*
X88641700Y-119686402D01*
X88641611Y-119694952D01*
X86231500Y-119694952D01*
X86231500Y-119447782D01*
X86251502Y-119379661D01*
X86309281Y-119331374D01*
X86503833Y-119250788D01*
X86743104Y-119110969D01*
X86961186Y-118939971D01*
X87000740Y-118899155D01*
X87151060Y-118744036D01*
X87154043Y-118740958D01*
X87156576Y-118737510D01*
X87156580Y-118737505D01*
X87315568Y-118521068D01*
X87318106Y-118517613D01*
X87363815Y-118433428D01*
X87448290Y-118277844D01*
X87448291Y-118277842D01*
X87450340Y-118274068D01*
X87513308Y-118107427D01*
X89437510Y-118107427D01*
X89443906Y-118118696D01*
X90665188Y-119339978D01*
X90679132Y-119347592D01*
X90680965Y-119347461D01*
X90687580Y-119343210D01*
X91911659Y-118119131D01*
X91918850Y-118105962D01*
X91911527Y-118095725D01*
X91861168Y-118054505D01*
X91854196Y-118049551D01*
X91625279Y-117909271D01*
X91617681Y-117905299D01*
X91371852Y-117797387D01*
X91363798Y-117794488D01*
X91105594Y-117720937D01*
X91097216Y-117719155D01*
X90831419Y-117681327D01*
X90822872Y-117680700D01*
X90554398Y-117679293D01*
X90545864Y-117679830D01*
X90279678Y-117714875D01*
X90271280Y-117716568D01*
X90012327Y-117787409D01*
X90004232Y-117790228D01*
X89757278Y-117895562D01*
X89749655Y-117899447D01*
X89519285Y-118037321D01*
X89512247Y-118042212D01*
X89445980Y-118095302D01*
X89437510Y-118107427D01*
X87513308Y-118107427D01*
X87548298Y-118014830D01*
X87599739Y-117790228D01*
X87609210Y-117748876D01*
X87609211Y-117748871D01*
X87610167Y-117744696D01*
X87634802Y-117468665D01*
X87635249Y-117426000D01*
X87635080Y-117423520D01*
X87616692Y-117153791D01*
X87616691Y-117153785D01*
X87616400Y-117149514D01*
X87560202Y-116878143D01*
X87467695Y-116616911D01*
X87340590Y-116370650D01*
X87181240Y-116143918D01*
X86992593Y-115940909D01*
X86971572Y-115923703D01*
X86781458Y-115768098D01*
X86778140Y-115765382D01*
X86541849Y-115620583D01*
X86537932Y-115618864D01*
X86537929Y-115618862D01*
X86426346Y-115569881D01*
X86288093Y-115509192D01*
X86283965Y-115508016D01*
X86283962Y-115508015D01*
X86201917Y-115484644D01*
X86021568Y-115433270D01*
X86017326Y-115432666D01*
X86017320Y-115432665D01*
X85751455Y-115394827D01*
X85747204Y-115394222D01*
X85601115Y-115393457D01*
X85474366Y-115392793D01*
X85474360Y-115392793D01*
X85470080Y-115392771D01*
X85465835Y-115393330D01*
X85465833Y-115393330D01*
X85454463Y-115394827D01*
X85195323Y-115428944D01*
X84928017Y-115502070D01*
X84924069Y-115503754D01*
X84677060Y-115609112D01*
X84677056Y-115609114D01*
X84673108Y-115610798D01*
X84653021Y-115622820D01*
X84438996Y-115750911D01*
X84438992Y-115750914D01*
X84435314Y-115753115D01*
X84219035Y-115926387D01*
X84028273Y-116127409D01*
X83866557Y-116352460D01*
X83736880Y-116597376D01*
X83641643Y-116857626D01*
X83582606Y-117128392D01*
X83560863Y-117404666D01*
X83576815Y-117681335D01*
X83577640Y-117685542D01*
X83577641Y-117685547D01*
X83589246Y-117744696D01*
X83630169Y-117953279D01*
X83631556Y-117957330D01*
X83685063Y-118113611D01*
X83719935Y-118215466D01*
X83721861Y-118219295D01*
X83826214Y-118426777D01*
X83844454Y-118463044D01*
X83881958Y-118517613D01*
X83980311Y-118660717D01*
X84001421Y-118691433D01*
X84187932Y-118896405D01*
X84191221Y-118899155D01*
X84397243Y-119071417D01*
X84397248Y-119071421D01*
X84400535Y-119074169D01*
X84505054Y-119139734D01*
X84631656Y-119219152D01*
X84631660Y-119219154D01*
X84635296Y-119221435D01*
X84639206Y-119223200D01*
X84639207Y-119223201D01*
X84887872Y-119335477D01*
X84887287Y-119336774D01*
X84939298Y-119375633D01*
X84964171Y-119442131D01*
X84964500Y-119451236D01*
X84964500Y-128598114D01*
X84963973Y-128609297D01*
X84962298Y-128616790D01*
X84962547Y-128624716D01*
X84962547Y-128624717D01*
X84964438Y-128684867D01*
X84964500Y-128688826D01*
X84964500Y-128716737D01*
X84964997Y-128720671D01*
X84964997Y-128720672D01*
X84965005Y-128720737D01*
X84965938Y-128732574D01*
X84967327Y-128776770D01*
X84972978Y-128796220D01*
X84976987Y-128815581D01*
X84979526Y-128835678D01*
X84982445Y-128843049D01*
X84982445Y-128843051D01*
X84995804Y-128876793D01*
X84999649Y-128888023D01*
X85011982Y-128930474D01*
X85016015Y-128937293D01*
X85016017Y-128937298D01*
X85022293Y-128947909D01*
X85030988Y-128965657D01*
X85038448Y-128984498D01*
X85043110Y-128990914D01*
X85043110Y-128990915D01*
X85064436Y-129020268D01*
X85070952Y-129030188D01*
X85086369Y-129056256D01*
X85093458Y-129068243D01*
X85107779Y-129082564D01*
X85120619Y-129097597D01*
X85132528Y-129113988D01*
X85138634Y-129119039D01*
X85166605Y-129142179D01*
X85175384Y-129150169D01*
X91263177Y-135237962D01*
X91297203Y-135300274D01*
X91292138Y-135371089D01*
X91249591Y-135427925D01*
X91183071Y-135452736D01*
X91133581Y-135446370D01*
X91130832Y-135445437D01*
X91099588Y-135434831D01*
X91093874Y-135434002D01*
X91090362Y-135433159D01*
X91079349Y-135430667D01*
X91075782Y-135429909D01*
X91070266Y-135428196D01*
X91064538Y-135427518D01*
X91064533Y-135427517D01*
X91012133Y-135421316D01*
X90982382Y-135417794D01*
X90979160Y-135417370D01*
X90891603Y-135404675D01*
X90809446Y-135407903D01*
X90804499Y-135408000D01*
X85995295Y-135408000D01*
X85987054Y-135407730D01*
X85971133Y-135406687D01*
X85922439Y-135403495D01*
X85870986Y-135409585D01*
X85834592Y-135413892D01*
X85831313Y-135414236D01*
X85748977Y-135421802D01*
X85748976Y-135421802D01*
X85743221Y-135422331D01*
X85737662Y-135423899D01*
X85734088Y-135424561D01*
X85723085Y-135426750D01*
X85719472Y-135427518D01*
X85713735Y-135428197D01*
X85629224Y-135454438D01*
X85626127Y-135455354D01*
X85540951Y-135479377D01*
X85535763Y-135481935D01*
X85532312Y-135483260D01*
X85521934Y-135487401D01*
X85518547Y-135488804D01*
X85513027Y-135490518D01*
X85507913Y-135493209D01*
X85507912Y-135493209D01*
X85434755Y-135531698D01*
X85431819Y-135533195D01*
X85352463Y-135572329D01*
X85347832Y-135575787D01*
X85344629Y-135577750D01*
X85335242Y-135583673D01*
X85332149Y-135585682D01*
X85327037Y-135588371D01*
X85257544Y-135643156D01*
X85254974Y-135645127D01*
X85188699Y-135694616D01*
X85188692Y-135694623D01*
X85184071Y-135698073D01*
X85180157Y-135702307D01*
X85180155Y-135702309D01*
X85128238Y-135758473D01*
X85124808Y-135762039D01*
X84311696Y-136575151D01*
X84305678Y-136580788D01*
X84256981Y-136623494D01*
X84253406Y-136628029D01*
X84253405Y-136628030D01*
X84202202Y-136692982D01*
X84200124Y-136695547D01*
X84147266Y-136759100D01*
X84147262Y-136759105D01*
X84143574Y-136763540D01*
X84140755Y-136768574D01*
X84138686Y-136771584D01*
X84132492Y-136780854D01*
X84130449Y-136783999D01*
X84126872Y-136788537D01*
X84124184Y-136793645D01*
X84124182Y-136793649D01*
X84085688Y-136866816D01*
X84084118Y-136869706D01*
X84040885Y-136946904D01*
X84039028Y-136952376D01*
X84037514Y-136955776D01*
X84033127Y-136965987D01*
X84031705Y-136969421D01*
X84029018Y-136974527D01*
X84027306Y-136980041D01*
X84027305Y-136980043D01*
X84002788Y-137058999D01*
X84001769Y-137062135D01*
X83973331Y-137145912D01*
X83972502Y-137151625D01*
X83971659Y-137155138D01*
X83969167Y-137166151D01*
X83968409Y-137169718D01*
X83966696Y-137175234D01*
X83966018Y-137180962D01*
X83966017Y-137180967D01*
X83956297Y-137263098D01*
X83955870Y-137266340D01*
X83943175Y-137353897D01*
X83943402Y-137359665D01*
X83946403Y-137436054D01*
X83946500Y-137441001D01*
X83946500Y-139848135D01*
X83934693Y-139901389D01*
X83933917Y-139903053D01*
X83886998Y-139956336D01*
X83818720Y-139975795D01*
X83750761Y-139955251D01*
X83705529Y-139903049D01*
X83689414Y-139868489D01*
X83683931Y-139858993D01*
X83558972Y-139680533D01*
X83551916Y-139672125D01*
X83397875Y-139518084D01*
X83389467Y-139511028D01*
X83211007Y-139386069D01*
X83201511Y-139380586D01*
X83004053Y-139288510D01*
X82993761Y-139284764D01*
X82821497Y-139238606D01*
X82807401Y-139238942D01*
X82804000Y-139246884D01*
X82804000Y-142687967D01*
X82807973Y-142701498D01*
X82816522Y-142702727D01*
X82993761Y-142655236D01*
X83004053Y-142651490D01*
X83201511Y-142559414D01*
X83211007Y-142553931D01*
X83389467Y-142428972D01*
X83397875Y-142421916D01*
X83551916Y-142267875D01*
X83558972Y-142259467D01*
X83683931Y-142081007D01*
X83689414Y-142071511D01*
X83705529Y-142036951D01*
X83752446Y-141983666D01*
X83820723Y-141964205D01*
X83888683Y-141984747D01*
X83933919Y-142036951D01*
X83950151Y-142071762D01*
X83950154Y-142071767D01*
X83952477Y-142076749D01*
X83988742Y-142128540D01*
X84035558Y-142195400D01*
X84083802Y-142264300D01*
X84245700Y-142426198D01*
X84250208Y-142429355D01*
X84250211Y-142429357D01*
X84328389Y-142484098D01*
X84433251Y-142557523D01*
X84438233Y-142559846D01*
X84438238Y-142559849D01*
X84634765Y-142651490D01*
X84640757Y-142654284D01*
X84646065Y-142655706D01*
X84646067Y-142655707D01*
X84856598Y-142712119D01*
X84856600Y-142712119D01*
X84861913Y-142713543D01*
X85090000Y-142733498D01*
X85318087Y-142713543D01*
X85323400Y-142712119D01*
X85323402Y-142712119D01*
X85533933Y-142655707D01*
X85533935Y-142655706D01*
X85539243Y-142654284D01*
X85545235Y-142651490D01*
X85741762Y-142559849D01*
X85741767Y-142559846D01*
X85746749Y-142557523D01*
X85851611Y-142484098D01*
X85929789Y-142429357D01*
X85929792Y-142429355D01*
X85934300Y-142426198D01*
X86096198Y-142264300D01*
X86144443Y-142195400D01*
X86191258Y-142128540D01*
X86227523Y-142076749D01*
X86229846Y-142071767D01*
X86229849Y-142071762D01*
X86321961Y-141874225D01*
X86321961Y-141874224D01*
X86324284Y-141869243D01*
X86383543Y-141648087D01*
X86398500Y-141477127D01*
X86398500Y-140462873D01*
X86383543Y-140291913D01*
X86382119Y-140286598D01*
X86325707Y-140076067D01*
X86325706Y-140076065D01*
X86324284Y-140070757D01*
X86245305Y-139901385D01*
X86233500Y-139848135D01*
X86233500Y-139404828D01*
X86253502Y-139336707D01*
X86307158Y-139290214D01*
X86377432Y-139280110D01*
X86399167Y-139285235D01*
X86471766Y-139309315D01*
X86485132Y-139312181D01*
X86577770Y-139321672D01*
X86584185Y-139322000D01*
X86595885Y-139322000D01*
X86611124Y-139317525D01*
X86612329Y-139316135D01*
X86614000Y-139308452D01*
X86614000Y-139303885D01*
X87122000Y-139303885D01*
X87126475Y-139319124D01*
X87127865Y-139320329D01*
X87135548Y-139322000D01*
X87151766Y-139322000D01*
X87158282Y-139321663D01*
X87252132Y-139311925D01*
X87265528Y-139309032D01*
X87416953Y-139258512D01*
X87430115Y-139252347D01*
X87563568Y-139169765D01*
X87632020Y-139150928D01*
X87695985Y-139169650D01*
X87831059Y-139252910D01*
X87844241Y-139259056D01*
X87995766Y-139309315D01*
X88009132Y-139312181D01*
X88101770Y-139321672D01*
X88108185Y-139322000D01*
X88119885Y-139322000D01*
X88135124Y-139317525D01*
X88136329Y-139316135D01*
X88138000Y-139308452D01*
X88138000Y-139303885D01*
X88646000Y-139303885D01*
X88650475Y-139319124D01*
X88651865Y-139320329D01*
X88659548Y-139322000D01*
X88675766Y-139322000D01*
X88682282Y-139321663D01*
X88776132Y-139311925D01*
X88789528Y-139309032D01*
X88940953Y-139258512D01*
X88954115Y-139252347D01*
X89087568Y-139169765D01*
X89156020Y-139150928D01*
X89219985Y-139169650D01*
X89355059Y-139252910D01*
X89368241Y-139259056D01*
X89519766Y-139309315D01*
X89533132Y-139312181D01*
X89625770Y-139321672D01*
X89632185Y-139322000D01*
X89643885Y-139322000D01*
X89659124Y-139317525D01*
X89660329Y-139316135D01*
X89662000Y-139308452D01*
X89662000Y-138548615D01*
X89657525Y-138533376D01*
X89656135Y-138532171D01*
X89648452Y-138530500D01*
X88664115Y-138530500D01*
X88648876Y-138534975D01*
X88647671Y-138536365D01*
X88646000Y-138544048D01*
X88646000Y-139303885D01*
X88138000Y-139303885D01*
X88138000Y-138548615D01*
X88133525Y-138533376D01*
X88132135Y-138532171D01*
X88124452Y-138530500D01*
X87140115Y-138530500D01*
X87124876Y-138534975D01*
X87123671Y-138536365D01*
X87122000Y-138544048D01*
X87122000Y-139303885D01*
X86614000Y-139303885D01*
X86614000Y-138148500D01*
X86634002Y-138080379D01*
X86687658Y-138033886D01*
X86740000Y-138022500D01*
X90044000Y-138022500D01*
X90112121Y-138042502D01*
X90158614Y-138096158D01*
X90170000Y-138148500D01*
X90170000Y-139303885D01*
X90174475Y-139319124D01*
X90175865Y-139320329D01*
X90183548Y-139322000D01*
X90199766Y-139322000D01*
X90206282Y-139321663D01*
X90300132Y-139311925D01*
X90313528Y-139309032D01*
X90464953Y-139258512D01*
X90478115Y-139252347D01*
X90613492Y-139168574D01*
X90624890Y-139159540D01*
X90737363Y-139046871D01*
X90746375Y-139035460D01*
X90829912Y-138899937D01*
X90836056Y-138886759D01*
X90886315Y-138735234D01*
X90889181Y-138721868D01*
X90898672Y-138629230D01*
X90899000Y-138622815D01*
X90899000Y-138540343D01*
X90919002Y-138472222D01*
X90972658Y-138425729D01*
X91042932Y-138415625D01*
X91107512Y-138445119D01*
X91114095Y-138451248D01*
X91177123Y-138514276D01*
X91297539Y-138614425D01*
X91480903Y-138717114D01*
X91486370Y-138718970D01*
X91486375Y-138718972D01*
X91674442Y-138782812D01*
X91674447Y-138782813D01*
X91679911Y-138784668D01*
X91685620Y-138785496D01*
X91685625Y-138785497D01*
X91783904Y-138799746D01*
X91887897Y-138814825D01*
X92028567Y-138809298D01*
X92092123Y-138806801D01*
X92092125Y-138806801D01*
X92097896Y-138806574D01*
X92103527Y-138805300D01*
X92103533Y-138805299D01*
X92297245Y-138761466D01*
X92297246Y-138761466D01*
X92302875Y-138760192D01*
X92308175Y-138757915D01*
X92308178Y-138757914D01*
X92490660Y-138679514D01*
X92490661Y-138679514D01*
X92495969Y-138677233D01*
X92670711Y-138560473D01*
X92821249Y-138413826D01*
X92942543Y-138242199D01*
X93030529Y-138051343D01*
X93082260Y-137847649D01*
X93096005Y-137637938D01*
X93071303Y-137429234D01*
X93069591Y-137423719D01*
X93069588Y-137423707D01*
X93050021Y-137360692D01*
X93048922Y-137289704D01*
X93086377Y-137229392D01*
X93150494Y-137198903D01*
X93220916Y-137207918D01*
X93259448Y-137234233D01*
X102071095Y-146045880D01*
X102105121Y-146108192D01*
X102108000Y-146134975D01*
X102108000Y-150749500D01*
X102087998Y-150817621D01*
X102034342Y-150864114D01*
X101982000Y-150875500D01*
X78358500Y-150875500D01*
X78290379Y-150855498D01*
X78243886Y-150801842D01*
X78232500Y-150749500D01*
X78232500Y-149524449D01*
X78252502Y-149456328D01*
X78306158Y-149409835D01*
X78376432Y-149399731D01*
X78440498Y-149428781D01*
X78651203Y-149609378D01*
X78657884Y-149614376D01*
X78902437Y-149773191D01*
X78909727Y-149777265D01*
X79173132Y-149902338D01*
X79180900Y-149905414D01*
X79458531Y-149994552D01*
X79466637Y-149996573D01*
X79738170Y-150045429D01*
X79751429Y-150043997D01*
X79756000Y-150029387D01*
X79756000Y-150026367D01*
X80264000Y-150026367D01*
X80268295Y-150040996D01*
X80280272Y-150043058D01*
X80352053Y-150036778D01*
X80360292Y-150035503D01*
X80644880Y-149971890D01*
X80652877Y-149969536D01*
X80926534Y-149868850D01*
X80934172Y-149865450D01*
X81192115Y-149729451D01*
X81199213Y-149725084D01*
X81436905Y-149556165D01*
X81443372Y-149550892D01*
X81656639Y-149352017D01*
X81662351Y-149345933D01*
X81847437Y-149120607D01*
X81852292Y-149113826D01*
X82005958Y-148865987D01*
X82009871Y-148858627D01*
X82129404Y-148592654D01*
X82132314Y-148584831D01*
X82215624Y-148305375D01*
X82217469Y-148297254D01*
X82263191Y-148008571D01*
X82263899Y-148001597D01*
X82267936Y-147912714D01*
X82268000Y-147909881D01*
X82268000Y-147873993D01*
X87912000Y-147873993D01*
X87912139Y-147878182D01*
X87926549Y-148095132D01*
X87927653Y-148103403D01*
X87985290Y-148389251D01*
X87987478Y-148397303D01*
X88082409Y-148673005D01*
X88085650Y-148680716D01*
X88216213Y-148941444D01*
X88220434Y-148948638D01*
X88384341Y-149189820D01*
X88389474Y-149196390D01*
X88583839Y-149413775D01*
X88589795Y-149419608D01*
X88811203Y-149609378D01*
X88817884Y-149614376D01*
X89062437Y-149773191D01*
X89069727Y-149777265D01*
X89333132Y-149902338D01*
X89340900Y-149905414D01*
X89618531Y-149994552D01*
X89626637Y-149996573D01*
X89898170Y-150045429D01*
X89911429Y-150043997D01*
X89916000Y-150029387D01*
X89916000Y-150026367D01*
X90424000Y-150026367D01*
X90428295Y-150040996D01*
X90440272Y-150043058D01*
X90512053Y-150036778D01*
X90520292Y-150035503D01*
X90804880Y-149971890D01*
X90812877Y-149969536D01*
X91086534Y-149868850D01*
X91094172Y-149865450D01*
X91352115Y-149729451D01*
X91359213Y-149725084D01*
X91596905Y-149556165D01*
X91603372Y-149550892D01*
X91816639Y-149352017D01*
X91822351Y-149345933D01*
X92007437Y-149120607D01*
X92012292Y-149113826D01*
X92165958Y-148865987D01*
X92169871Y-148858627D01*
X92289404Y-148592654D01*
X92292314Y-148584831D01*
X92375624Y-148305375D01*
X92377469Y-148297254D01*
X92423191Y-148008571D01*
X92423899Y-148001597D01*
X92427936Y-147912714D01*
X92428000Y-147909881D01*
X92428000Y-146322115D01*
X92423525Y-146306876D01*
X92422135Y-146305671D01*
X92414452Y-146304000D01*
X90442115Y-146304000D01*
X90426876Y-146308475D01*
X90425671Y-146309865D01*
X90424000Y-146317548D01*
X90424000Y-150026367D01*
X89916000Y-150026367D01*
X89916000Y-146322115D01*
X89911525Y-146306876D01*
X89910135Y-146305671D01*
X89902452Y-146304000D01*
X87930115Y-146304000D01*
X87914876Y-146308475D01*
X87913671Y-146309865D01*
X87912000Y-146317548D01*
X87912000Y-147873993D01*
X82268000Y-147873993D01*
X82268000Y-146322115D01*
X82263525Y-146306876D01*
X82262135Y-146305671D01*
X82254452Y-146304000D01*
X80282115Y-146304000D01*
X80266876Y-146308475D01*
X80265671Y-146309865D01*
X80264000Y-146317548D01*
X80264000Y-150026367D01*
X79756000Y-150026367D01*
X79756000Y-145777885D01*
X80264000Y-145777885D01*
X80268475Y-145793124D01*
X80269865Y-145794329D01*
X80277548Y-145796000D01*
X82249885Y-145796000D01*
X82265124Y-145791525D01*
X82266329Y-145790135D01*
X82268000Y-145782452D01*
X82268000Y-145777885D01*
X87912000Y-145777885D01*
X87916475Y-145793124D01*
X87917865Y-145794329D01*
X87925548Y-145796000D01*
X89897885Y-145796000D01*
X89913124Y-145791525D01*
X89914329Y-145790135D01*
X89916000Y-145782452D01*
X89916000Y-145777885D01*
X90424000Y-145777885D01*
X90428475Y-145793124D01*
X90429865Y-145794329D01*
X90437548Y-145796000D01*
X92409885Y-145796000D01*
X92425124Y-145791525D01*
X92426329Y-145790135D01*
X92428000Y-145782452D01*
X92428000Y-144226007D01*
X92427861Y-144221818D01*
X92413451Y-144004868D01*
X92412347Y-143996597D01*
X92354710Y-143710749D01*
X92352522Y-143702697D01*
X92257591Y-143426995D01*
X92254350Y-143419284D01*
X92123787Y-143158556D01*
X92119566Y-143151362D01*
X91955659Y-142910180D01*
X91950526Y-142903610D01*
X91756161Y-142686225D01*
X91750205Y-142680392D01*
X91528797Y-142490622D01*
X91522116Y-142485624D01*
X91277563Y-142326809D01*
X91270273Y-142322735D01*
X91006868Y-142197662D01*
X90999100Y-142194586D01*
X90721469Y-142105448D01*
X90713363Y-142103427D01*
X90441830Y-142054571D01*
X90428571Y-142056003D01*
X90424000Y-142070613D01*
X90424000Y-145777885D01*
X89916000Y-145777885D01*
X89916000Y-142073633D01*
X89911705Y-142059004D01*
X89899728Y-142056942D01*
X89827947Y-142063222D01*
X89819708Y-142064497D01*
X89535120Y-142128110D01*
X89527123Y-142130464D01*
X89253466Y-142231150D01*
X89245828Y-142234550D01*
X88987885Y-142370549D01*
X88980787Y-142374916D01*
X88743095Y-142543835D01*
X88736628Y-142549108D01*
X88523361Y-142747983D01*
X88517649Y-142754067D01*
X88332563Y-142979393D01*
X88327708Y-142986174D01*
X88174042Y-143234013D01*
X88170129Y-143241373D01*
X88050596Y-143507346D01*
X88047686Y-143515169D01*
X87964376Y-143794625D01*
X87962531Y-143802746D01*
X87916809Y-144091429D01*
X87916101Y-144098403D01*
X87912064Y-144187286D01*
X87912000Y-144190119D01*
X87912000Y-145777885D01*
X82268000Y-145777885D01*
X82268000Y-144226007D01*
X82267861Y-144221818D01*
X82253451Y-144004868D01*
X82252347Y-143996597D01*
X82194710Y-143710749D01*
X82192522Y-143702697D01*
X82097591Y-143426995D01*
X82094350Y-143419284D01*
X81963787Y-143158556D01*
X81959566Y-143151362D01*
X81795659Y-142910180D01*
X81790526Y-142903610D01*
X81596161Y-142686225D01*
X81590205Y-142680392D01*
X81368797Y-142490622D01*
X81362116Y-142485624D01*
X81117563Y-142326809D01*
X81110273Y-142322735D01*
X80846868Y-142197662D01*
X80839100Y-142194586D01*
X80561469Y-142105448D01*
X80553363Y-142103427D01*
X80281830Y-142054571D01*
X80268571Y-142056003D01*
X80264000Y-142070613D01*
X80264000Y-145777885D01*
X79756000Y-145777885D01*
X79756000Y-142073633D01*
X79751705Y-142059004D01*
X79739728Y-142056942D01*
X79667947Y-142063222D01*
X79659708Y-142064497D01*
X79375120Y-142128110D01*
X79367123Y-142130464D01*
X79093466Y-142231150D01*
X79085828Y-142234550D01*
X78827885Y-142370549D01*
X78820787Y-142374916D01*
X78583095Y-142543835D01*
X78576628Y-142549108D01*
X78444432Y-142672383D01*
X78380970Y-142704212D01*
X78310374Y-142696679D01*
X78255058Y-142652175D01*
X78232500Y-142580232D01*
X78232500Y-141474365D01*
X81242000Y-141474365D01*
X81242238Y-141479830D01*
X81256472Y-141642519D01*
X81258375Y-141653312D01*
X81314764Y-141863761D01*
X81318510Y-141874053D01*
X81410586Y-142071511D01*
X81416069Y-142081007D01*
X81541028Y-142259467D01*
X81548084Y-142267875D01*
X81702125Y-142421916D01*
X81710533Y-142428972D01*
X81888993Y-142553931D01*
X81898489Y-142559414D01*
X82095947Y-142651490D01*
X82106239Y-142655236D01*
X82278503Y-142701394D01*
X82292599Y-142701058D01*
X82296000Y-142693116D01*
X82296000Y-141242115D01*
X82291525Y-141226876D01*
X82290135Y-141225671D01*
X82282452Y-141224000D01*
X81260115Y-141224000D01*
X81244876Y-141228475D01*
X81243671Y-141229865D01*
X81242000Y-141237548D01*
X81242000Y-141474365D01*
X78232500Y-141474365D01*
X78232500Y-140697885D01*
X81242000Y-140697885D01*
X81246475Y-140713124D01*
X81247865Y-140714329D01*
X81255548Y-140716000D01*
X82277885Y-140716000D01*
X82293124Y-140711525D01*
X82294329Y-140710135D01*
X82296000Y-140702452D01*
X82296000Y-139252033D01*
X82292027Y-139238502D01*
X82283478Y-139237273D01*
X82106239Y-139284764D01*
X82095947Y-139288510D01*
X81898489Y-139380586D01*
X81888993Y-139386069D01*
X81710533Y-139511028D01*
X81702125Y-139518084D01*
X81548084Y-139672125D01*
X81541028Y-139680533D01*
X81416069Y-139858993D01*
X81410586Y-139868489D01*
X81318510Y-140065947D01*
X81314764Y-140076239D01*
X81258375Y-140286688D01*
X81256472Y-140297481D01*
X81242238Y-140460170D01*
X81242000Y-140465635D01*
X81242000Y-140697885D01*
X78232500Y-140697885D01*
X78232500Y-130171374D01*
X78249495Y-130113495D01*
X78465012Y-130113495D01*
X78479396Y-130135876D01*
X78484291Y-130164121D01*
X78496815Y-130381335D01*
X78497640Y-130385542D01*
X78497641Y-130385547D01*
X78509246Y-130444696D01*
X78550169Y-130653279D01*
X78639935Y-130915466D01*
X78764454Y-131163044D01*
X78921421Y-131391433D01*
X79107932Y-131596405D01*
X79111221Y-131599155D01*
X79317243Y-131771417D01*
X79317248Y-131771421D01*
X79320535Y-131774169D01*
X79374976Y-131808320D01*
X79551656Y-131919152D01*
X79551660Y-131919154D01*
X79555296Y-131921435D01*
X79807872Y-132035477D01*
X79811992Y-132036697D01*
X79811991Y-132036697D01*
X80069475Y-132112967D01*
X80069479Y-132112968D01*
X80073588Y-132114185D01*
X80077825Y-132114833D01*
X80077828Y-132114834D01*
X80306846Y-132149879D01*
X80347527Y-132156104D01*
X80488602Y-132158320D01*
X80620330Y-132160390D01*
X80620336Y-132160390D01*
X80624621Y-132160457D01*
X80899742Y-132127164D01*
X81167800Y-132056840D01*
X81423833Y-131950788D01*
X81663104Y-131810969D01*
X81881186Y-131639971D01*
X81920740Y-131599155D01*
X82071060Y-131444036D01*
X82074043Y-131440958D01*
X82076576Y-131437510D01*
X82076580Y-131437505D01*
X82235568Y-131221068D01*
X82238106Y-131217613D01*
X82370340Y-130974068D01*
X82468298Y-130714830D01*
X82530167Y-130444696D01*
X82554802Y-130168665D01*
X82555249Y-130126000D01*
X82555080Y-130123520D01*
X82536692Y-129853791D01*
X82536691Y-129853785D01*
X82536400Y-129849514D01*
X82480202Y-129578143D01*
X82387695Y-129316911D01*
X82297509Y-129142179D01*
X82262555Y-129074457D01*
X82262555Y-129074456D01*
X82260590Y-129070650D01*
X82254101Y-129061416D01*
X82103707Y-128847428D01*
X82103706Y-128847427D01*
X82101240Y-128843918D01*
X81912593Y-128640909D01*
X81891572Y-128623703D01*
X81701458Y-128468098D01*
X81698140Y-128465382D01*
X81461849Y-128320583D01*
X81457932Y-128318864D01*
X81457929Y-128318862D01*
X81346346Y-128269881D01*
X81208093Y-128209192D01*
X81203965Y-128208016D01*
X81203962Y-128208015D01*
X81121917Y-128184644D01*
X80941568Y-128133270D01*
X80937326Y-128132666D01*
X80937320Y-128132665D01*
X80671455Y-128094827D01*
X80667204Y-128094222D01*
X80521115Y-128093457D01*
X80394366Y-128092793D01*
X80394360Y-128092793D01*
X80390080Y-128092771D01*
X80385835Y-128093330D01*
X80385833Y-128093330D01*
X80374463Y-128094827D01*
X80115323Y-128128944D01*
X79848017Y-128202070D01*
X79844069Y-128203754D01*
X79597060Y-128309112D01*
X79597056Y-128309114D01*
X79593108Y-128310798D01*
X79573021Y-128322820D01*
X79358996Y-128450911D01*
X79358992Y-128450914D01*
X79355314Y-128453115D01*
X79193494Y-128582757D01*
X79174326Y-128598114D01*
X79139035Y-128626387D01*
X78948273Y-128827409D01*
X78786557Y-129052460D01*
X78656880Y-129297376D01*
X78561643Y-129557626D01*
X78502606Y-129828392D01*
X78502270Y-129832662D01*
X78484112Y-130063383D01*
X78465012Y-130113495D01*
X78249495Y-130113495D01*
X78250909Y-130108680D01*
X78235191Y-130079401D01*
X78232500Y-130053497D01*
X78232500Y-119757374D01*
X78250909Y-119694680D01*
X78235191Y-119665401D01*
X78232500Y-119639497D01*
X78232500Y-116637690D01*
X78252502Y-116569569D01*
X78269405Y-116548595D01*
X79973095Y-114844905D01*
X80035407Y-114810879D01*
X80062190Y-114808000D01*
X81345396Y-114808000D01*
X81413517Y-114828002D01*
G37*
%TD.AperFunction*%
%TA.AperFunction,Conductor*%
G36*
X106179527Y-137051502D02*
G01*
X106200501Y-137068405D01*
X107158953Y-138026857D01*
X107192979Y-138089169D01*
X107187914Y-138159984D01*
X107158953Y-138205047D01*
X102108000Y-143256000D01*
X102108000Y-143986787D01*
X102087998Y-144054908D01*
X102034342Y-144101401D01*
X101964068Y-144111505D01*
X101899488Y-144082011D01*
X101892905Y-144075882D01*
X95063618Y-137246595D01*
X95029592Y-137184283D01*
X95034657Y-137113468D01*
X95077204Y-137056632D01*
X95143724Y-137031821D01*
X95152713Y-137031500D01*
X106111406Y-137031500D01*
X106179527Y-137051502D01*
G37*
%TD.AperFunction*%
%TD*%
M02*
