%TF.GenerationSoftware,KiCad,Pcbnew,(6.0.7)*%
%TF.CreationDate,2022-08-11T20:25:56-04:00*%
%TF.ProjectId,hexapod_interlock,68657861-706f-4645-9f69-6e7465726c6f,rev?*%
%TF.SameCoordinates,Original*%
%TF.FileFunction,Soldermask,Top*%
%TF.FilePolarity,Negative*%
%FSLAX46Y46*%
G04 Gerber Fmt 4.6, Leading zero omitted, Abs format (unit mm)*
G04 Created by KiCad (PCBNEW (6.0.7)) date 2022-08-11 20:25:56*
%MOMM*%
%LPD*%
G01*
G04 APERTURE LIST*
G04 Aperture macros list*
%AMRoundRect*
0 Rectangle with rounded corners*
0 $1 Rounding radius*
0 $2 $3 $4 $5 $6 $7 $8 $9 X,Y pos of 4 corners*
0 Add a 4 corners polygon primitive as box body*
4,1,4,$2,$3,$4,$5,$6,$7,$8,$9,$2,$3,0*
0 Add four circle primitives for the rounded corners*
1,1,$1+$1,$2,$3*
1,1,$1+$1,$4,$5*
1,1,$1+$1,$6,$7*
1,1,$1+$1,$8,$9*
0 Add four rect primitives between the rounded corners*
20,1,$1+$1,$2,$3,$4,$5,0*
20,1,$1+$1,$4,$5,$6,$7,0*
20,1,$1+$1,$6,$7,$8,$9,0*
20,1,$1+$1,$8,$9,$2,$3,0*%
G04 Aperture macros list end*
%TA.AperFunction,Profile*%
%ADD10C,0.100000*%
%TD*%
%ADD11RoundRect,0.237500X-0.300000X-0.237500X0.300000X-0.237500X0.300000X0.237500X-0.300000X0.237500X0*%
%ADD12R,1.600000X1.300000*%
%ADD13R,1.600000X2.000000*%
%ADD14RoundRect,0.237500X0.237500X-0.300000X0.237500X0.300000X-0.237500X0.300000X-0.237500X-0.300000X0*%
%ADD15RoundRect,0.237500X-0.237500X0.300000X-0.237500X-0.300000X0.237500X-0.300000X0.237500X0.300000X0*%
%ADD16R,1.560000X0.650000*%
%ADD17C,1.600000*%
%ADD18O,1.600000X1.600000*%
%ADD19C,3.048000*%
%ADD20O,1.600000X2.500000*%
%ADD21O,3.500000X7.000000*%
%ADD22C,1.800000*%
%ADD23C,2.500000*%
G04 APERTURE END LIST*
D10*
X140208000Y-151384000D02*
X140208000Y-107696000D01*
X77724000Y-107696000D02*
X140208000Y-107696000D01*
X77724000Y-151384000D02*
X140208000Y-151384000D01*
X77724000Y-107696000D02*
X77724000Y-151384000D01*
D11*
%TO.C,C14*%
X137313500Y-112466000D03*
X139038500Y-112466000D03*
%TD*%
D12*
%TO.C,RV1*%
X125042000Y-113756000D03*
D13*
X127942000Y-115006000D03*
D12*
X125042000Y-116256000D03*
%TD*%
D14*
%TO.C,C6*%
X134620000Y-120750500D03*
X134620000Y-119025500D03*
%TD*%
D11*
%TO.C,C13*%
X137313500Y-114498000D03*
X139038500Y-114498000D03*
%TD*%
D14*
%TO.C,C2*%
X131572000Y-120750500D03*
X131572000Y-119025500D03*
%TD*%
D15*
%TO.C,C3*%
X88392000Y-136551500D03*
X88392000Y-138276500D03*
%TD*%
D11*
%TO.C,C15*%
X137313500Y-116530000D03*
X139038500Y-116530000D03*
%TD*%
D15*
%TO.C,C5*%
X86868000Y-136551500D03*
X86868000Y-138276500D03*
%TD*%
D11*
%TO.C,C12*%
X122073500Y-123642000D03*
X123798500Y-123642000D03*
%TD*%
%TO.C,C10*%
X122073500Y-121610000D03*
X123798500Y-121610000D03*
%TD*%
D16*
%TO.C,U1*%
X133430000Y-116972000D03*
X133430000Y-116022000D03*
X133430000Y-115072000D03*
X130730000Y-115072000D03*
X130730000Y-116972000D03*
%TD*%
D15*
%TO.C,C1*%
X89916000Y-136551500D03*
X89916000Y-138276500D03*
%TD*%
D14*
%TO.C,C4*%
X133096000Y-120750500D03*
X133096000Y-119025500D03*
%TD*%
D11*
%TO.C,C8*%
X122073500Y-119578000D03*
X123798500Y-119578000D03*
%TD*%
D17*
%TO.C,R2*%
X106172000Y-134112000D03*
D18*
X96012000Y-134112000D03*
%TD*%
D17*
%TO.C,R11*%
X106172000Y-113792000D03*
D18*
X96012000Y-113792000D03*
%TD*%
D17*
%TO.C,R9*%
X106172000Y-118872000D03*
D18*
X96012000Y-118872000D03*
%TD*%
D17*
%TO.C,R4*%
X106172000Y-129032000D03*
D18*
X96012000Y-129032000D03*
%TD*%
D19*
%TO.C,K1*%
X85598000Y-117426000D03*
X80518000Y-130126000D03*
X90678000Y-130126000D03*
X90678000Y-119712000D03*
X80518000Y-119712000D03*
%TD*%
D20*
%TO.C,J1*%
X85090000Y-140970000D03*
D21*
X80010000Y-146050000D03*
D20*
X82550000Y-140970000D03*
D21*
X90170000Y-146050000D03*
%TD*%
D17*
%TO.C,R10*%
X118872000Y-113792000D03*
D18*
X108712000Y-113792000D03*
%TD*%
D17*
%TO.C,R5*%
X118872000Y-123952000D03*
D18*
X108712000Y-123952000D03*
%TD*%
D17*
%TO.C,R6*%
X106172000Y-123952000D03*
D18*
X96012000Y-123952000D03*
%TD*%
D20*
%TO.C,J2*%
X110490000Y-140970000D03*
X107950000Y-140970000D03*
D21*
X115570000Y-146050000D03*
X105410000Y-146050000D03*
%TD*%
D17*
%TO.C,R12*%
X137160000Y-119578000D03*
D18*
X137160000Y-109418000D03*
%TD*%
D17*
%TO.C,R8*%
X118872000Y-118872000D03*
D18*
X108712000Y-118872000D03*
%TD*%
D17*
%TO.C,R7*%
X113030000Y-109220000D03*
D18*
X102870000Y-109220000D03*
%TD*%
D17*
%TO.C,R13*%
X123952000Y-109926000D03*
D18*
X134112000Y-109926000D03*
%TD*%
D20*
%TO.C,J3*%
X132588000Y-140970000D03*
D21*
X137668000Y-146050000D03*
X127508000Y-146050000D03*
D20*
X130048000Y-140970000D03*
%TD*%
D22*
%TO.C,SW2*%
X137796000Y-123516000D03*
X128396000Y-123516000D03*
X137796000Y-132516000D03*
X128396000Y-132516000D03*
D23*
X135746000Y-131016000D03*
X135746000Y-128016000D03*
X135746000Y-125016000D03*
X130446000Y-131016000D03*
X130446000Y-128016000D03*
X130446000Y-125016000D03*
%TD*%
D17*
%TO.C,R3*%
X118872000Y-129032000D03*
D18*
X108712000Y-129032000D03*
%TD*%
D17*
%TO.C,R1*%
X118872000Y-134112000D03*
D18*
X108712000Y-134112000D03*
%TD*%
M02*
