%TF.GenerationSoftware,KiCad,Pcbnew,(6.0.7)*%
%TF.CreationDate,2022-08-11T20:25:56-04:00*%
%TF.ProjectId,hexapod_interlock,68657861-706f-4645-9f69-6e7465726c6f,rev?*%
%TF.SameCoordinates,Original*%
%TF.FileFunction,Legend,Bot*%
%TF.FilePolarity,Positive*%
%FSLAX46Y46*%
G04 Gerber Fmt 4.6, Leading zero omitted, Abs format (unit mm)*
G04 Created by KiCad (PCBNEW (6.0.7)) date 2022-08-11 20:25:56*
%MOMM*%
%LPD*%
G01*
G04 APERTURE LIST*
%TA.AperFunction,Profile*%
%ADD10C,0.100000*%
%TD*%
%ADD11C,0.150000*%
%ADD12C,0.120000*%
G04 APERTURE END LIST*
D10*
X140208000Y-151384000D02*
X140208000Y-107696000D01*
X77724000Y-107696000D02*
X140208000Y-107696000D01*
X77724000Y-151384000D02*
X140208000Y-151384000D01*
X77724000Y-107696000D02*
X77724000Y-151384000D01*
D11*
%TO.C,R2*%
X103290666Y-132532380D02*
X103624000Y-132056190D01*
X103862095Y-132532380D02*
X103862095Y-131532380D01*
X103481142Y-131532380D01*
X103385904Y-131580000D01*
X103338285Y-131627619D01*
X103290666Y-131722857D01*
X103290666Y-131865714D01*
X103338285Y-131960952D01*
X103385904Y-132008571D01*
X103481142Y-132056190D01*
X103862095Y-132056190D01*
X102909714Y-131627619D02*
X102862095Y-131580000D01*
X102766857Y-131532380D01*
X102528761Y-131532380D01*
X102433523Y-131580000D01*
X102385904Y-131627619D01*
X102338285Y-131722857D01*
X102338285Y-131818095D01*
X102385904Y-131960952D01*
X102957333Y-132532380D01*
X102338285Y-132532380D01*
%TO.C,C7*%
X99480666Y-137009142D02*
X99528285Y-137056761D01*
X99671142Y-137104380D01*
X99766380Y-137104380D01*
X99909238Y-137056761D01*
X100004476Y-136961523D01*
X100052095Y-136866285D01*
X100099714Y-136675809D01*
X100099714Y-136532952D01*
X100052095Y-136342476D01*
X100004476Y-136247238D01*
X99909238Y-136152000D01*
X99766380Y-136104380D01*
X99671142Y-136104380D01*
X99528285Y-136152000D01*
X99480666Y-136199619D01*
X99147333Y-136104380D02*
X98480666Y-136104380D01*
X98909238Y-137104380D01*
%TO.C,R11*%
X103766857Y-112212380D02*
X104100190Y-111736190D01*
X104338285Y-112212380D02*
X104338285Y-111212380D01*
X103957333Y-111212380D01*
X103862095Y-111260000D01*
X103814476Y-111307619D01*
X103766857Y-111402857D01*
X103766857Y-111545714D01*
X103814476Y-111640952D01*
X103862095Y-111688571D01*
X103957333Y-111736190D01*
X104338285Y-111736190D01*
X102814476Y-112212380D02*
X103385904Y-112212380D01*
X103100190Y-112212380D02*
X103100190Y-111212380D01*
X103195428Y-111355238D01*
X103290666Y-111450476D01*
X103385904Y-111498095D01*
X101862095Y-112212380D02*
X102433523Y-112212380D01*
X102147809Y-112212380D02*
X102147809Y-111212380D01*
X102243047Y-111355238D01*
X102338285Y-111450476D01*
X102433523Y-111498095D01*
%TO.C,R9*%
X103290666Y-117292380D02*
X103624000Y-116816190D01*
X103862095Y-117292380D02*
X103862095Y-116292380D01*
X103481142Y-116292380D01*
X103385904Y-116340000D01*
X103338285Y-116387619D01*
X103290666Y-116482857D01*
X103290666Y-116625714D01*
X103338285Y-116720952D01*
X103385904Y-116768571D01*
X103481142Y-116816190D01*
X103862095Y-116816190D01*
X102814476Y-117292380D02*
X102624000Y-117292380D01*
X102528761Y-117244761D01*
X102481142Y-117197142D01*
X102385904Y-117054285D01*
X102338285Y-116863809D01*
X102338285Y-116482857D01*
X102385904Y-116387619D01*
X102433523Y-116340000D01*
X102528761Y-116292380D01*
X102719238Y-116292380D01*
X102814476Y-116340000D01*
X102862095Y-116387619D01*
X102909714Y-116482857D01*
X102909714Y-116720952D01*
X102862095Y-116816190D01*
X102814476Y-116863809D01*
X102719238Y-116911428D01*
X102528761Y-116911428D01*
X102433523Y-116863809D01*
X102385904Y-116816190D01*
X102338285Y-116720952D01*
%TO.C,R4*%
X103290666Y-127452380D02*
X103624000Y-126976190D01*
X103862095Y-127452380D02*
X103862095Y-126452380D01*
X103481142Y-126452380D01*
X103385904Y-126500000D01*
X103338285Y-126547619D01*
X103290666Y-126642857D01*
X103290666Y-126785714D01*
X103338285Y-126880952D01*
X103385904Y-126928571D01*
X103481142Y-126976190D01*
X103862095Y-126976190D01*
X102433523Y-126785714D02*
X102433523Y-127452380D01*
X102671619Y-126404761D02*
X102909714Y-127119047D01*
X102290666Y-127119047D01*
%TO.C,K1*%
X95250380Y-124787904D02*
X94250380Y-124787904D01*
X95250380Y-125359333D02*
X94678952Y-124930761D01*
X94250380Y-125359333D02*
X94821809Y-124787904D01*
X95250380Y-126311714D02*
X95250380Y-125740285D01*
X95250380Y-126026000D02*
X94250380Y-126026000D01*
X94393238Y-125930761D01*
X94488476Y-125835523D01*
X94536095Y-125740285D01*
%TO.C,C11*%
X100210857Y-140057142D02*
X100258476Y-140104761D01*
X100401333Y-140152380D01*
X100496571Y-140152380D01*
X100639428Y-140104761D01*
X100734666Y-140009523D01*
X100782285Y-139914285D01*
X100829904Y-139723809D01*
X100829904Y-139580952D01*
X100782285Y-139390476D01*
X100734666Y-139295238D01*
X100639428Y-139200000D01*
X100496571Y-139152380D01*
X100401333Y-139152380D01*
X100258476Y-139200000D01*
X100210857Y-139247619D01*
X99258476Y-140152380D02*
X99829904Y-140152380D01*
X99544190Y-140152380D02*
X99544190Y-139152380D01*
X99639428Y-139295238D01*
X99734666Y-139390476D01*
X99829904Y-139438095D01*
X98306095Y-140152380D02*
X98877523Y-140152380D01*
X98591809Y-140152380D02*
X98591809Y-139152380D01*
X98687047Y-139295238D01*
X98782285Y-139390476D01*
X98877523Y-139438095D01*
%TO.C,SW1*%
X94340761Y-144970666D02*
X94388380Y-145113523D01*
X94388380Y-145351619D01*
X94340761Y-145446857D01*
X94293142Y-145494476D01*
X94197904Y-145542095D01*
X94102666Y-145542095D01*
X94007428Y-145494476D01*
X93959809Y-145446857D01*
X93912190Y-145351619D01*
X93864571Y-145161142D01*
X93816952Y-145065904D01*
X93769333Y-145018285D01*
X93674095Y-144970666D01*
X93578857Y-144970666D01*
X93483619Y-145018285D01*
X93436000Y-145065904D01*
X93388380Y-145161142D01*
X93388380Y-145399238D01*
X93436000Y-145542095D01*
X93388380Y-145875428D02*
X94388380Y-146113523D01*
X93674095Y-146304000D01*
X94388380Y-146494476D01*
X93388380Y-146732571D01*
X94388380Y-147637333D02*
X94388380Y-147065904D01*
X94388380Y-147351619D02*
X93388380Y-147351619D01*
X93531238Y-147256380D01*
X93626476Y-147161142D01*
X93674095Y-147065904D01*
%TO.C,J1*%
X84153333Y-136422380D02*
X84153333Y-137136666D01*
X84200952Y-137279523D01*
X84296190Y-137374761D01*
X84439047Y-137422380D01*
X84534285Y-137422380D01*
X83153333Y-137422380D02*
X83724761Y-137422380D01*
X83439047Y-137422380D02*
X83439047Y-136422380D01*
X83534285Y-136565238D01*
X83629523Y-136660476D01*
X83724761Y-136708095D01*
%TO.C,R10*%
X116466857Y-112212380D02*
X116800190Y-111736190D01*
X117038285Y-112212380D02*
X117038285Y-111212380D01*
X116657333Y-111212380D01*
X116562095Y-111260000D01*
X116514476Y-111307619D01*
X116466857Y-111402857D01*
X116466857Y-111545714D01*
X116514476Y-111640952D01*
X116562095Y-111688571D01*
X116657333Y-111736190D01*
X117038285Y-111736190D01*
X115514476Y-112212380D02*
X116085904Y-112212380D01*
X115800190Y-112212380D02*
X115800190Y-111212380D01*
X115895428Y-111355238D01*
X115990666Y-111450476D01*
X116085904Y-111498095D01*
X114895428Y-111212380D02*
X114800190Y-111212380D01*
X114704952Y-111260000D01*
X114657333Y-111307619D01*
X114609714Y-111402857D01*
X114562095Y-111593333D01*
X114562095Y-111831428D01*
X114609714Y-112021904D01*
X114657333Y-112117142D01*
X114704952Y-112164761D01*
X114800190Y-112212380D01*
X114895428Y-112212380D01*
X114990666Y-112164761D01*
X115038285Y-112117142D01*
X115085904Y-112021904D01*
X115133523Y-111831428D01*
X115133523Y-111593333D01*
X115085904Y-111402857D01*
X115038285Y-111307619D01*
X114990666Y-111260000D01*
X114895428Y-111212380D01*
%TO.C,R5*%
X115990666Y-122372380D02*
X116324000Y-121896190D01*
X116562095Y-122372380D02*
X116562095Y-121372380D01*
X116181142Y-121372380D01*
X116085904Y-121420000D01*
X116038285Y-121467619D01*
X115990666Y-121562857D01*
X115990666Y-121705714D01*
X116038285Y-121800952D01*
X116085904Y-121848571D01*
X116181142Y-121896190D01*
X116562095Y-121896190D01*
X115085904Y-121372380D02*
X115562095Y-121372380D01*
X115609714Y-121848571D01*
X115562095Y-121800952D01*
X115466857Y-121753333D01*
X115228761Y-121753333D01*
X115133523Y-121800952D01*
X115085904Y-121848571D01*
X115038285Y-121943809D01*
X115038285Y-122181904D01*
X115085904Y-122277142D01*
X115133523Y-122324761D01*
X115228761Y-122372380D01*
X115466857Y-122372380D01*
X115562095Y-122324761D01*
X115609714Y-122277142D01*
%TO.C,R6*%
X103290666Y-122372380D02*
X103624000Y-121896190D01*
X103862095Y-122372380D02*
X103862095Y-121372380D01*
X103481142Y-121372380D01*
X103385904Y-121420000D01*
X103338285Y-121467619D01*
X103290666Y-121562857D01*
X103290666Y-121705714D01*
X103338285Y-121800952D01*
X103385904Y-121848571D01*
X103481142Y-121896190D01*
X103862095Y-121896190D01*
X102433523Y-121372380D02*
X102624000Y-121372380D01*
X102719238Y-121420000D01*
X102766857Y-121467619D01*
X102862095Y-121610476D01*
X102909714Y-121800952D01*
X102909714Y-122181904D01*
X102862095Y-122277142D01*
X102814476Y-122324761D01*
X102719238Y-122372380D01*
X102528761Y-122372380D01*
X102433523Y-122324761D01*
X102385904Y-122277142D01*
X102338285Y-122181904D01*
X102338285Y-121943809D01*
X102385904Y-121848571D01*
X102433523Y-121800952D01*
X102528761Y-121753333D01*
X102719238Y-121753333D01*
X102814476Y-121800952D01*
X102862095Y-121848571D01*
X102909714Y-121943809D01*
%TO.C,J2*%
X110823333Y-136422380D02*
X110823333Y-137136666D01*
X110870952Y-137279523D01*
X110966190Y-137374761D01*
X111109047Y-137422380D01*
X111204285Y-137422380D01*
X110394761Y-136517619D02*
X110347142Y-136470000D01*
X110251904Y-136422380D01*
X110013809Y-136422380D01*
X109918571Y-136470000D01*
X109870952Y-136517619D01*
X109823333Y-136612857D01*
X109823333Y-136708095D01*
X109870952Y-136850952D01*
X110442380Y-137422380D01*
X109823333Y-137422380D01*
%TO.C,R12*%
X139982380Y-113855142D02*
X139506190Y-113521809D01*
X139982380Y-113283714D02*
X138982380Y-113283714D01*
X138982380Y-113664666D01*
X139030000Y-113759904D01*
X139077619Y-113807523D01*
X139172857Y-113855142D01*
X139315714Y-113855142D01*
X139410952Y-113807523D01*
X139458571Y-113759904D01*
X139506190Y-113664666D01*
X139506190Y-113283714D01*
X139982380Y-114807523D02*
X139982380Y-114236095D01*
X139982380Y-114521809D02*
X138982380Y-114521809D01*
X139125238Y-114426571D01*
X139220476Y-114331333D01*
X139268095Y-114236095D01*
X139077619Y-115188476D02*
X139030000Y-115236095D01*
X138982380Y-115331333D01*
X138982380Y-115569428D01*
X139030000Y-115664666D01*
X139077619Y-115712285D01*
X139172857Y-115759904D01*
X139268095Y-115759904D01*
X139410952Y-115712285D01*
X139982380Y-115140857D01*
X139982380Y-115759904D01*
%TO.C,R8*%
X115990666Y-117292380D02*
X116324000Y-116816190D01*
X116562095Y-117292380D02*
X116562095Y-116292380D01*
X116181142Y-116292380D01*
X116085904Y-116340000D01*
X116038285Y-116387619D01*
X115990666Y-116482857D01*
X115990666Y-116625714D01*
X116038285Y-116720952D01*
X116085904Y-116768571D01*
X116181142Y-116816190D01*
X116562095Y-116816190D01*
X115419238Y-116720952D02*
X115514476Y-116673333D01*
X115562095Y-116625714D01*
X115609714Y-116530476D01*
X115609714Y-116482857D01*
X115562095Y-116387619D01*
X115514476Y-116340000D01*
X115419238Y-116292380D01*
X115228761Y-116292380D01*
X115133523Y-116340000D01*
X115085904Y-116387619D01*
X115038285Y-116482857D01*
X115038285Y-116530476D01*
X115085904Y-116625714D01*
X115133523Y-116673333D01*
X115228761Y-116720952D01*
X115419238Y-116720952D01*
X115514476Y-116768571D01*
X115562095Y-116816190D01*
X115609714Y-116911428D01*
X115609714Y-117101904D01*
X115562095Y-117197142D01*
X115514476Y-117244761D01*
X115419238Y-117292380D01*
X115228761Y-117292380D01*
X115133523Y-117244761D01*
X115085904Y-117197142D01*
X115038285Y-117101904D01*
X115038285Y-116911428D01*
X115085904Y-116816190D01*
X115133523Y-116768571D01*
X115228761Y-116720952D01*
%TO.C,R7*%
X109894666Y-111704380D02*
X110228000Y-111228190D01*
X110466095Y-111704380D02*
X110466095Y-110704380D01*
X110085142Y-110704380D01*
X109989904Y-110752000D01*
X109942285Y-110799619D01*
X109894666Y-110894857D01*
X109894666Y-111037714D01*
X109942285Y-111132952D01*
X109989904Y-111180571D01*
X110085142Y-111228190D01*
X110466095Y-111228190D01*
X109561333Y-110704380D02*
X108894666Y-110704380D01*
X109323238Y-111704380D01*
%TO.C,R13*%
X131198857Y-112466380D02*
X131532190Y-111990190D01*
X131770285Y-112466380D02*
X131770285Y-111466380D01*
X131389333Y-111466380D01*
X131294095Y-111514000D01*
X131246476Y-111561619D01*
X131198857Y-111656857D01*
X131198857Y-111799714D01*
X131246476Y-111894952D01*
X131294095Y-111942571D01*
X131389333Y-111990190D01*
X131770285Y-111990190D01*
X130246476Y-112466380D02*
X130817904Y-112466380D01*
X130532190Y-112466380D02*
X130532190Y-111466380D01*
X130627428Y-111609238D01*
X130722666Y-111704476D01*
X130817904Y-111752095D01*
X129913142Y-111466380D02*
X129294095Y-111466380D01*
X129627428Y-111847333D01*
X129484571Y-111847333D01*
X129389333Y-111894952D01*
X129341714Y-111942571D01*
X129294095Y-112037809D01*
X129294095Y-112275904D01*
X129341714Y-112371142D01*
X129389333Y-112418761D01*
X129484571Y-112466380D01*
X129770285Y-112466380D01*
X129865523Y-112418761D01*
X129913142Y-112371142D01*
%TO.C,C9*%
X99480666Y-138533142D02*
X99528285Y-138580761D01*
X99671142Y-138628380D01*
X99766380Y-138628380D01*
X99909238Y-138580761D01*
X100004476Y-138485523D01*
X100052095Y-138390285D01*
X100099714Y-138199809D01*
X100099714Y-138056952D01*
X100052095Y-137866476D01*
X100004476Y-137771238D01*
X99909238Y-137676000D01*
X99766380Y-137628380D01*
X99671142Y-137628380D01*
X99528285Y-137676000D01*
X99480666Y-137723619D01*
X99004476Y-138628380D02*
X98814000Y-138628380D01*
X98718761Y-138580761D01*
X98671142Y-138533142D01*
X98575904Y-138390285D01*
X98528285Y-138199809D01*
X98528285Y-137818857D01*
X98575904Y-137723619D01*
X98623523Y-137676000D01*
X98718761Y-137628380D01*
X98909238Y-137628380D01*
X99004476Y-137676000D01*
X99052095Y-137723619D01*
X99099714Y-137818857D01*
X99099714Y-138056952D01*
X99052095Y-138152190D01*
X99004476Y-138199809D01*
X98909238Y-138247428D01*
X98718761Y-138247428D01*
X98623523Y-138199809D01*
X98575904Y-138152190D01*
X98528285Y-138056952D01*
%TO.C,J3*%
X132921333Y-136422380D02*
X132921333Y-137136666D01*
X132968952Y-137279523D01*
X133064190Y-137374761D01*
X133207047Y-137422380D01*
X133302285Y-137422380D01*
X132540380Y-136422380D02*
X131921333Y-136422380D01*
X132254666Y-136803333D01*
X132111809Y-136803333D01*
X132016571Y-136850952D01*
X131968952Y-136898571D01*
X131921333Y-136993809D01*
X131921333Y-137231904D01*
X131968952Y-137327142D01*
X132016571Y-137374761D01*
X132111809Y-137422380D01*
X132397523Y-137422380D01*
X132492761Y-137374761D01*
X132540380Y-137327142D01*
%TO.C,SW2*%
X138291238Y-129349333D02*
X138243619Y-129206476D01*
X138243619Y-128968380D01*
X138291238Y-128873142D01*
X138338857Y-128825523D01*
X138434095Y-128777904D01*
X138529333Y-128777904D01*
X138624571Y-128825523D01*
X138672190Y-128873142D01*
X138719809Y-128968380D01*
X138767428Y-129158857D01*
X138815047Y-129254095D01*
X138862666Y-129301714D01*
X138957904Y-129349333D01*
X139053142Y-129349333D01*
X139148380Y-129301714D01*
X139196000Y-129254095D01*
X139243619Y-129158857D01*
X139243619Y-128920761D01*
X139196000Y-128777904D01*
X139243619Y-128444571D02*
X138243619Y-128206476D01*
X138957904Y-128016000D01*
X138243619Y-127825523D01*
X139243619Y-127587428D01*
X139148380Y-127254095D02*
X139196000Y-127206476D01*
X139243619Y-127111238D01*
X139243619Y-126873142D01*
X139196000Y-126777904D01*
X139148380Y-126730285D01*
X139053142Y-126682666D01*
X138957904Y-126682666D01*
X138815047Y-126730285D01*
X138243619Y-127301714D01*
X138243619Y-126682666D01*
%TO.C,R3*%
X115990666Y-127452380D02*
X116324000Y-126976190D01*
X116562095Y-127452380D02*
X116562095Y-126452380D01*
X116181142Y-126452380D01*
X116085904Y-126500000D01*
X116038285Y-126547619D01*
X115990666Y-126642857D01*
X115990666Y-126785714D01*
X116038285Y-126880952D01*
X116085904Y-126928571D01*
X116181142Y-126976190D01*
X116562095Y-126976190D01*
X115657333Y-126452380D02*
X115038285Y-126452380D01*
X115371619Y-126833333D01*
X115228761Y-126833333D01*
X115133523Y-126880952D01*
X115085904Y-126928571D01*
X115038285Y-127023809D01*
X115038285Y-127261904D01*
X115085904Y-127357142D01*
X115133523Y-127404761D01*
X115228761Y-127452380D01*
X115514476Y-127452380D01*
X115609714Y-127404761D01*
X115657333Y-127357142D01*
%TO.C,R1*%
X115990666Y-132532380D02*
X116324000Y-132056190D01*
X116562095Y-132532380D02*
X116562095Y-131532380D01*
X116181142Y-131532380D01*
X116085904Y-131580000D01*
X116038285Y-131627619D01*
X115990666Y-131722857D01*
X115990666Y-131865714D01*
X116038285Y-131960952D01*
X116085904Y-132008571D01*
X116181142Y-132056190D01*
X116562095Y-132056190D01*
X115038285Y-132532380D02*
X115609714Y-132532380D01*
X115324000Y-132532380D02*
X115324000Y-131532380D01*
X115419238Y-131675238D01*
X115514476Y-131770476D01*
X115609714Y-131818095D01*
D12*
%TO.C,R2*%
X97822000Y-132742000D02*
X104362000Y-132742000D01*
X104362000Y-132742000D02*
X104362000Y-135482000D01*
X104362000Y-135482000D02*
X97822000Y-135482000D01*
X97822000Y-135482000D02*
X97822000Y-132742000D01*
X105132000Y-134112000D02*
X104362000Y-134112000D01*
X97052000Y-134112000D02*
X97822000Y-134112000D01*
%TO.C,C7*%
X96666267Y-136142000D02*
X96373733Y-136142000D01*
X96666267Y-137162000D02*
X96373733Y-137162000D01*
%TO.C,R11*%
X104362000Y-115162000D02*
X97822000Y-115162000D01*
X97822000Y-115162000D02*
X97822000Y-112422000D01*
X97822000Y-112422000D02*
X104362000Y-112422000D01*
X97052000Y-113792000D02*
X97822000Y-113792000D01*
X104362000Y-112422000D02*
X104362000Y-115162000D01*
X105132000Y-113792000D02*
X104362000Y-113792000D01*
%TO.C,R9*%
X104362000Y-120242000D02*
X97822000Y-120242000D01*
X105132000Y-118872000D02*
X104362000Y-118872000D01*
X97822000Y-117502000D02*
X104362000Y-117502000D01*
X97052000Y-118872000D02*
X97822000Y-118872000D01*
X97822000Y-120242000D02*
X97822000Y-117502000D01*
X104362000Y-117502000D02*
X104362000Y-120242000D01*
%TO.C,R4*%
X104362000Y-127662000D02*
X104362000Y-130402000D01*
X105132000Y-129032000D02*
X104362000Y-129032000D01*
X97822000Y-130402000D02*
X97822000Y-127662000D01*
X97052000Y-129032000D02*
X97822000Y-129032000D01*
X97822000Y-127662000D02*
X104362000Y-127662000D01*
X104362000Y-130402000D02*
X97822000Y-130402000D01*
%TO.C,K1*%
X87098000Y-125926000D02*
X84098000Y-120926000D01*
X84098000Y-125926000D02*
X87098000Y-125926000D01*
X77898000Y-115926000D02*
X77898000Y-135126000D01*
X77898000Y-135126000D02*
X93298000Y-135126000D01*
X93298000Y-135126000D02*
X93298000Y-115926000D01*
X87098000Y-123426000D02*
X91598000Y-123426000D01*
X86798000Y-115926000D02*
X93298000Y-115926000D01*
X85598000Y-120026000D02*
X85598000Y-119126000D01*
X89298000Y-126926000D02*
X89298000Y-120026000D01*
X87098000Y-125926000D02*
X87098000Y-120926000D01*
X77898000Y-115926000D02*
X84398000Y-115926000D01*
X91598000Y-121126000D02*
X91598000Y-123426000D01*
X79598000Y-123426000D02*
X84098000Y-123426000D01*
X85598000Y-120026000D02*
X89298000Y-120026000D01*
X89898000Y-130126000D02*
X87598000Y-130126000D01*
X79598000Y-123426000D02*
X79598000Y-121126000D01*
X87098000Y-120926000D02*
X84098000Y-120926000D01*
X80758000Y-130126000D02*
X83058000Y-130126000D01*
X85598000Y-126926000D02*
X85598000Y-128426000D01*
X85598000Y-128426000D02*
X82898000Y-132926000D01*
X84098000Y-120926000D02*
X84098000Y-125926000D01*
X85598000Y-126926000D02*
X89298000Y-126926000D01*
%TO.C,C11*%
X96666267Y-140210000D02*
X96373733Y-140210000D01*
X96666267Y-139190000D02*
X96373733Y-139190000D01*
%TO.C,SW1*%
X100436000Y-143404000D02*
X100436000Y-149204000D01*
X94636000Y-149204000D02*
X94636000Y-143404000D01*
X94636000Y-143404000D02*
X100436000Y-143404000D01*
X94636000Y-149204000D02*
X100436000Y-149204000D01*
%TO.C,J1*%
X85090000Y-153470000D02*
X84090000Y-152470000D01*
X77590000Y-153670000D02*
X92590000Y-153670000D01*
X92590000Y-153670000D02*
X92590000Y-138670000D01*
X85090000Y-153470000D02*
X86090000Y-152470000D01*
X77590000Y-138670000D02*
X77590000Y-153670000D01*
X92590000Y-138670000D02*
X77590000Y-138670000D01*
%TO.C,R10*%
X117832000Y-113792000D02*
X117062000Y-113792000D01*
X110522000Y-112422000D02*
X117062000Y-112422000D01*
X117062000Y-112422000D02*
X117062000Y-115162000D01*
X110522000Y-115162000D02*
X110522000Y-112422000D01*
X109752000Y-113792000D02*
X110522000Y-113792000D01*
X117062000Y-115162000D02*
X110522000Y-115162000D01*
%TO.C,R5*%
X110522000Y-125322000D02*
X110522000Y-122582000D01*
X117832000Y-123952000D02*
X117062000Y-123952000D01*
X110522000Y-122582000D02*
X117062000Y-122582000D01*
X109752000Y-123952000D02*
X110522000Y-123952000D01*
X117062000Y-125322000D02*
X110522000Y-125322000D01*
X117062000Y-122582000D02*
X117062000Y-125322000D01*
%TO.C,R6*%
X105132000Y-123952000D02*
X104362000Y-123952000D01*
X97822000Y-122582000D02*
X104362000Y-122582000D01*
X104362000Y-125322000D02*
X97822000Y-125322000D01*
X104362000Y-122582000D02*
X104362000Y-125322000D01*
X97052000Y-123952000D02*
X97822000Y-123952000D01*
X97822000Y-125322000D02*
X97822000Y-122582000D01*
%TO.C,J2*%
X117990000Y-138670000D02*
X102990000Y-138670000D01*
X110490000Y-153470000D02*
X109490000Y-152470000D01*
X110490000Y-153470000D02*
X111490000Y-152470000D01*
X102990000Y-153670000D02*
X117990000Y-153670000D01*
X117990000Y-153670000D02*
X117990000Y-138670000D01*
X102990000Y-138670000D02*
X102990000Y-153670000D01*
%TO.C,R12*%
X135790000Y-111228000D02*
X138530000Y-111228000D01*
X135790000Y-117768000D02*
X135790000Y-111228000D01*
X137160000Y-118538000D02*
X137160000Y-117768000D01*
X137160000Y-110458000D02*
X137160000Y-111228000D01*
X138530000Y-117768000D02*
X135790000Y-117768000D01*
X138530000Y-111228000D02*
X138530000Y-117768000D01*
%TO.C,R8*%
X109752000Y-118872000D02*
X110522000Y-118872000D01*
X110522000Y-120242000D02*
X110522000Y-117502000D01*
X110522000Y-117502000D02*
X117062000Y-117502000D01*
X117062000Y-120242000D02*
X110522000Y-120242000D01*
X117832000Y-118872000D02*
X117062000Y-118872000D01*
X117062000Y-117502000D02*
X117062000Y-120242000D01*
%TO.C,R7*%
X104680000Y-110590000D02*
X104680000Y-107850000D01*
X103910000Y-109220000D02*
X104680000Y-109220000D01*
X111990000Y-109220000D02*
X111220000Y-109220000D01*
X104680000Y-107850000D02*
X111220000Y-107850000D01*
X111220000Y-107850000D02*
X111220000Y-110590000D01*
X111220000Y-110590000D02*
X104680000Y-110590000D01*
%TO.C,R13*%
X133072000Y-109926000D02*
X132302000Y-109926000D01*
X132302000Y-108556000D02*
X132302000Y-111296000D01*
X132302000Y-111296000D02*
X125762000Y-111296000D01*
X125762000Y-111296000D02*
X125762000Y-108556000D01*
X125762000Y-108556000D02*
X132302000Y-108556000D01*
X124992000Y-109926000D02*
X125762000Y-109926000D01*
%TO.C,C9*%
X96666267Y-138686000D02*
X96373733Y-138686000D01*
X96666267Y-137666000D02*
X96373733Y-137666000D01*
%TO.C,J3*%
X132588000Y-153470000D02*
X131588000Y-152470000D01*
X125088000Y-153670000D02*
X140088000Y-153670000D01*
X140088000Y-153670000D02*
X140088000Y-138670000D01*
X132588000Y-153470000D02*
X133588000Y-152470000D01*
X125088000Y-138670000D02*
X125088000Y-153670000D01*
X140088000Y-138670000D02*
X125088000Y-138670000D01*
%TO.C,SW2*%
X128746000Y-133816000D02*
X128746000Y-133216000D01*
X128146000Y-133216000D02*
X128146000Y-122816000D01*
X128146000Y-122816000D02*
X128746000Y-122816000D01*
X137446000Y-133216000D02*
X137446000Y-133816000D01*
X138046000Y-133216000D02*
X137446000Y-133216000D01*
X138046000Y-122816000D02*
X138046000Y-133216000D01*
X128746000Y-122816000D02*
X128746000Y-122216000D01*
X128746000Y-133216000D02*
X128146000Y-133216000D01*
X137446000Y-122216000D02*
X137446000Y-122816000D01*
X137446000Y-122816000D02*
X138046000Y-122816000D01*
X137446000Y-133816000D02*
X128746000Y-133816000D01*
X137446000Y-122216000D02*
X128746000Y-122216000D01*
%TO.C,R3*%
X117062000Y-130402000D02*
X110522000Y-130402000D01*
X109752000Y-129032000D02*
X110522000Y-129032000D01*
X117062000Y-127662000D02*
X117062000Y-130402000D01*
X117832000Y-129032000D02*
X117062000Y-129032000D01*
X110522000Y-127662000D02*
X117062000Y-127662000D01*
X110522000Y-130402000D02*
X110522000Y-127662000D01*
%TO.C,R1*%
X117832000Y-134112000D02*
X117062000Y-134112000D01*
X110522000Y-135482000D02*
X110522000Y-132742000D01*
X110522000Y-132742000D02*
X117062000Y-132742000D01*
X117062000Y-135482000D02*
X110522000Y-135482000D01*
X117062000Y-132742000D02*
X117062000Y-135482000D01*
X109752000Y-134112000D02*
X110522000Y-134112000D01*
%TD*%
M02*
