%TF.GenerationSoftware,KiCad,Pcbnew,(6.0.7)*%
%TF.CreationDate,2022-08-25T07:12:29-04:00*%
%TF.ProjectId,hexapod_interlock,68657861-706f-4645-9f69-6e7465726c6f,rev?*%
%TF.SameCoordinates,Original*%
%TF.FileFunction,Legend,Top*%
%TF.FilePolarity,Positive*%
%FSLAX46Y46*%
G04 Gerber Fmt 4.6, Leading zero omitted, Abs format (unit mm)*
G04 Created by KiCad (PCBNEW (6.0.7)) date 2022-08-25 07:12:29*
%MOMM*%
%LPD*%
G01*
G04 APERTURE LIST*
%TA.AperFunction,Profile*%
%ADD10C,0.100000*%
%TD*%
%ADD11C,0.150000*%
%ADD12C,0.120000*%
G04 APERTURE END LIST*
D10*
X196596000Y-140914000D02*
X196596000Y-97226000D01*
X134112000Y-97226000D02*
X196596000Y-97226000D01*
X134112000Y-140914000D02*
X196596000Y-140914000D01*
X134112000Y-97226000D02*
X134112000Y-140914000D01*
D11*
%TO.C,C14*%
X190111142Y-101393142D02*
X190063523Y-101440761D01*
X189920666Y-101488380D01*
X189825428Y-101488380D01*
X189682571Y-101440761D01*
X189587333Y-101345523D01*
X189539714Y-101250285D01*
X189492095Y-101059809D01*
X189492095Y-100916952D01*
X189539714Y-100726476D01*
X189587333Y-100631238D01*
X189682571Y-100536000D01*
X189825428Y-100488380D01*
X189920666Y-100488380D01*
X190063523Y-100536000D01*
X190111142Y-100583619D01*
X191063523Y-101488380D02*
X190492095Y-101488380D01*
X190777809Y-101488380D02*
X190777809Y-100488380D01*
X190682571Y-100631238D01*
X190587333Y-100726476D01*
X190492095Y-100774095D01*
X191920666Y-100821714D02*
X191920666Y-101488380D01*
X191682571Y-100440761D02*
X191444476Y-101155047D01*
X192063523Y-101155047D01*
%TO.C,RV1*%
X179832380Y-105131238D02*
X179356190Y-105464571D01*
X179832380Y-105702666D02*
X178832380Y-105702666D01*
X178832380Y-105321714D01*
X178880000Y-105226476D01*
X178927619Y-105178857D01*
X179022857Y-105131238D01*
X179165714Y-105131238D01*
X179260952Y-105178857D01*
X179308571Y-105226476D01*
X179356190Y-105321714D01*
X179356190Y-105702666D01*
X178832380Y-104845523D02*
X179832380Y-104512190D01*
X178832380Y-104178857D01*
X179832380Y-103321714D02*
X179832380Y-103893142D01*
X179832380Y-103607428D02*
X178832380Y-103607428D01*
X178975238Y-103702666D01*
X179070476Y-103797904D01*
X179118095Y-103893142D01*
%TO.C,C6*%
X191365142Y-112124666D02*
X191412761Y-112172285D01*
X191460380Y-112315142D01*
X191460380Y-112410380D01*
X191412761Y-112553238D01*
X191317523Y-112648476D01*
X191222285Y-112696095D01*
X191031809Y-112743714D01*
X190888952Y-112743714D01*
X190698476Y-112696095D01*
X190603238Y-112648476D01*
X190508000Y-112553238D01*
X190460380Y-112410380D01*
X190460380Y-112315142D01*
X190508000Y-112172285D01*
X190555619Y-112124666D01*
X190460380Y-111267523D02*
X190460380Y-111458000D01*
X190508000Y-111553238D01*
X190555619Y-111600857D01*
X190698476Y-111696095D01*
X190888952Y-111743714D01*
X191269904Y-111743714D01*
X191365142Y-111696095D01*
X191412761Y-111648476D01*
X191460380Y-111553238D01*
X191460380Y-111362761D01*
X191412761Y-111267523D01*
X191365142Y-111219904D01*
X191269904Y-111172285D01*
X191031809Y-111172285D01*
X190936571Y-111219904D01*
X190888952Y-111267523D01*
X190841333Y-111362761D01*
X190841333Y-111553238D01*
X190888952Y-111648476D01*
X190936571Y-111696095D01*
X191031809Y-111743714D01*
%TO.C,C13*%
X190111142Y-102663142D02*
X190063523Y-102710761D01*
X189920666Y-102758380D01*
X189825428Y-102758380D01*
X189682571Y-102710761D01*
X189587333Y-102615523D01*
X189539714Y-102520285D01*
X189492095Y-102329809D01*
X189492095Y-102186952D01*
X189539714Y-101996476D01*
X189587333Y-101901238D01*
X189682571Y-101806000D01*
X189825428Y-101758380D01*
X189920666Y-101758380D01*
X190063523Y-101806000D01*
X190111142Y-101853619D01*
X191063523Y-102758380D02*
X190492095Y-102758380D01*
X190777809Y-102758380D02*
X190777809Y-101758380D01*
X190682571Y-101901238D01*
X190587333Y-101996476D01*
X190492095Y-102044095D01*
X191396857Y-101758380D02*
X192015904Y-101758380D01*
X191682571Y-102139333D01*
X191825428Y-102139333D01*
X191920666Y-102186952D01*
X191968285Y-102234571D01*
X192015904Y-102329809D01*
X192015904Y-102567904D01*
X191968285Y-102663142D01*
X191920666Y-102710761D01*
X191825428Y-102758380D01*
X191539714Y-102758380D01*
X191444476Y-102710761D01*
X191396857Y-102663142D01*
%TO.C,C2*%
X188317142Y-112124666D02*
X188364761Y-112172285D01*
X188412380Y-112315142D01*
X188412380Y-112410380D01*
X188364761Y-112553238D01*
X188269523Y-112648476D01*
X188174285Y-112696095D01*
X187983809Y-112743714D01*
X187840952Y-112743714D01*
X187650476Y-112696095D01*
X187555238Y-112648476D01*
X187460000Y-112553238D01*
X187412380Y-112410380D01*
X187412380Y-112315142D01*
X187460000Y-112172285D01*
X187507619Y-112124666D01*
X187507619Y-111743714D02*
X187460000Y-111696095D01*
X187412380Y-111600857D01*
X187412380Y-111362761D01*
X187460000Y-111267523D01*
X187507619Y-111219904D01*
X187602857Y-111172285D01*
X187698095Y-111172285D01*
X187840952Y-111219904D01*
X188412380Y-111791333D01*
X188412380Y-111172285D01*
%TO.C,C3*%
X145137142Y-129650666D02*
X145184761Y-129698285D01*
X145232380Y-129841142D01*
X145232380Y-129936380D01*
X145184761Y-130079238D01*
X145089523Y-130174476D01*
X144994285Y-130222095D01*
X144803809Y-130269714D01*
X144660952Y-130269714D01*
X144470476Y-130222095D01*
X144375238Y-130174476D01*
X144280000Y-130079238D01*
X144232380Y-129936380D01*
X144232380Y-129841142D01*
X144280000Y-129698285D01*
X144327619Y-129650666D01*
X144232380Y-129317333D02*
X144232380Y-128698285D01*
X144613333Y-129031619D01*
X144613333Y-128888761D01*
X144660952Y-128793523D01*
X144708571Y-128745904D01*
X144803809Y-128698285D01*
X145041904Y-128698285D01*
X145137142Y-128745904D01*
X145184761Y-128793523D01*
X145232380Y-128888761D01*
X145232380Y-129174476D01*
X145184761Y-129269714D01*
X145137142Y-129317333D01*
%TO.C,C15*%
X190111142Y-103933142D02*
X190063523Y-103980761D01*
X189920666Y-104028380D01*
X189825428Y-104028380D01*
X189682571Y-103980761D01*
X189587333Y-103885523D01*
X189539714Y-103790285D01*
X189492095Y-103599809D01*
X189492095Y-103456952D01*
X189539714Y-103266476D01*
X189587333Y-103171238D01*
X189682571Y-103076000D01*
X189825428Y-103028380D01*
X189920666Y-103028380D01*
X190063523Y-103076000D01*
X190111142Y-103123619D01*
X191063523Y-104028380D02*
X190492095Y-104028380D01*
X190777809Y-104028380D02*
X190777809Y-103028380D01*
X190682571Y-103171238D01*
X190587333Y-103266476D01*
X190492095Y-103314095D01*
X191968285Y-103028380D02*
X191492095Y-103028380D01*
X191444476Y-103504571D01*
X191492095Y-103456952D01*
X191587333Y-103409333D01*
X191825428Y-103409333D01*
X191920666Y-103456952D01*
X191968285Y-103504571D01*
X192015904Y-103599809D01*
X192015904Y-103837904D01*
X191968285Y-103933142D01*
X191920666Y-103980761D01*
X191825428Y-104028380D01*
X191587333Y-104028380D01*
X191492095Y-103980761D01*
X191444476Y-103933142D01*
%TO.C,C5*%
X143613142Y-129650666D02*
X143660761Y-129698285D01*
X143708380Y-129841142D01*
X143708380Y-129936380D01*
X143660761Y-130079238D01*
X143565523Y-130174476D01*
X143470285Y-130222095D01*
X143279809Y-130269714D01*
X143136952Y-130269714D01*
X142946476Y-130222095D01*
X142851238Y-130174476D01*
X142756000Y-130079238D01*
X142708380Y-129936380D01*
X142708380Y-129841142D01*
X142756000Y-129698285D01*
X142803619Y-129650666D01*
X142708380Y-128745904D02*
X142708380Y-129222095D01*
X143184571Y-129269714D01*
X143136952Y-129222095D01*
X143089333Y-129126857D01*
X143089333Y-128888761D01*
X143136952Y-128793523D01*
X143184571Y-128745904D01*
X143279809Y-128698285D01*
X143517904Y-128698285D01*
X143613142Y-128745904D01*
X143660761Y-128793523D01*
X143708380Y-128888761D01*
X143708380Y-129126857D01*
X143660761Y-129222095D01*
X143613142Y-129269714D01*
%TO.C,C12*%
X177157142Y-115109142D02*
X177109523Y-115156761D01*
X176966666Y-115204380D01*
X176871428Y-115204380D01*
X176728571Y-115156761D01*
X176633333Y-115061523D01*
X176585714Y-114966285D01*
X176538095Y-114775809D01*
X176538095Y-114632952D01*
X176585714Y-114442476D01*
X176633333Y-114347238D01*
X176728571Y-114252000D01*
X176871428Y-114204380D01*
X176966666Y-114204380D01*
X177109523Y-114252000D01*
X177157142Y-114299619D01*
X178109523Y-115204380D02*
X177538095Y-115204380D01*
X177823809Y-115204380D02*
X177823809Y-114204380D01*
X177728571Y-114347238D01*
X177633333Y-114442476D01*
X177538095Y-114490095D01*
X178490476Y-114299619D02*
X178538095Y-114252000D01*
X178633333Y-114204380D01*
X178871428Y-114204380D01*
X178966666Y-114252000D01*
X179014285Y-114299619D01*
X179061904Y-114394857D01*
X179061904Y-114490095D01*
X179014285Y-114632952D01*
X178442857Y-115204380D01*
X179061904Y-115204380D01*
%TO.C,C10*%
X175633142Y-111553142D02*
X175585523Y-111600761D01*
X175442666Y-111648380D01*
X175347428Y-111648380D01*
X175204571Y-111600761D01*
X175109333Y-111505523D01*
X175061714Y-111410285D01*
X175014095Y-111219809D01*
X175014095Y-111076952D01*
X175061714Y-110886476D01*
X175109333Y-110791238D01*
X175204571Y-110696000D01*
X175347428Y-110648380D01*
X175442666Y-110648380D01*
X175585523Y-110696000D01*
X175633142Y-110743619D01*
X176585523Y-111648380D02*
X176014095Y-111648380D01*
X176299809Y-111648380D02*
X176299809Y-110648380D01*
X176204571Y-110791238D01*
X176109333Y-110886476D01*
X176014095Y-110934095D01*
X177204571Y-110648380D02*
X177299809Y-110648380D01*
X177395047Y-110696000D01*
X177442666Y-110743619D01*
X177490285Y-110838857D01*
X177537904Y-111029333D01*
X177537904Y-111267428D01*
X177490285Y-111457904D01*
X177442666Y-111553142D01*
X177395047Y-111600761D01*
X177299809Y-111648380D01*
X177204571Y-111648380D01*
X177109333Y-111600761D01*
X177061714Y-111553142D01*
X177014095Y-111457904D01*
X176966476Y-111267428D01*
X176966476Y-111029333D01*
X177014095Y-110838857D01*
X177061714Y-110743619D01*
X177109333Y-110696000D01*
X177204571Y-110648380D01*
%TO.C,U1*%
X186944095Y-102520380D02*
X186944095Y-103329904D01*
X186991714Y-103425142D01*
X187039333Y-103472761D01*
X187134571Y-103520380D01*
X187325047Y-103520380D01*
X187420285Y-103472761D01*
X187467904Y-103425142D01*
X187515523Y-103329904D01*
X187515523Y-102520380D01*
X188515523Y-103520380D02*
X187944095Y-103520380D01*
X188229809Y-103520380D02*
X188229809Y-102520380D01*
X188134571Y-102663238D01*
X188039333Y-102758476D01*
X187944095Y-102806095D01*
%TO.C,J5*%
X140382666Y-97322380D02*
X140382666Y-98036666D01*
X140335047Y-98179523D01*
X140239809Y-98274761D01*
X140096952Y-98322380D01*
X140001714Y-98322380D01*
X141335047Y-97322380D02*
X140858857Y-97322380D01*
X140811238Y-97798571D01*
X140858857Y-97750952D01*
X140954095Y-97703333D01*
X141192190Y-97703333D01*
X141287428Y-97750952D01*
X141335047Y-97798571D01*
X141382666Y-97893809D01*
X141382666Y-98131904D01*
X141335047Y-98227142D01*
X141287428Y-98274761D01*
X141192190Y-98322380D01*
X140954095Y-98322380D01*
X140858857Y-98274761D01*
X140811238Y-98227142D01*
%TO.C,C1*%
X146661142Y-129650666D02*
X146708761Y-129698285D01*
X146756380Y-129841142D01*
X146756380Y-129936380D01*
X146708761Y-130079238D01*
X146613523Y-130174476D01*
X146518285Y-130222095D01*
X146327809Y-130269714D01*
X146184952Y-130269714D01*
X145994476Y-130222095D01*
X145899238Y-130174476D01*
X145804000Y-130079238D01*
X145756380Y-129936380D01*
X145756380Y-129841142D01*
X145804000Y-129698285D01*
X145851619Y-129650666D01*
X146756380Y-128698285D02*
X146756380Y-129269714D01*
X146756380Y-128984000D02*
X145756380Y-128984000D01*
X145899238Y-129079238D01*
X145994476Y-129174476D01*
X146042095Y-129269714D01*
%TO.C,C4*%
X189841142Y-112124666D02*
X189888761Y-112172285D01*
X189936380Y-112315142D01*
X189936380Y-112410380D01*
X189888761Y-112553238D01*
X189793523Y-112648476D01*
X189698285Y-112696095D01*
X189507809Y-112743714D01*
X189364952Y-112743714D01*
X189174476Y-112696095D01*
X189079238Y-112648476D01*
X188984000Y-112553238D01*
X188936380Y-112410380D01*
X188936380Y-112315142D01*
X188984000Y-112172285D01*
X189031619Y-112124666D01*
X189269714Y-111267523D02*
X189936380Y-111267523D01*
X188888761Y-111505619D02*
X189603047Y-111743714D01*
X189603047Y-111124666D01*
%TO.C,C8*%
X177125333Y-108035142D02*
X177077714Y-108082761D01*
X176934857Y-108130380D01*
X176839619Y-108130380D01*
X176696761Y-108082761D01*
X176601523Y-107987523D01*
X176553904Y-107892285D01*
X176506285Y-107701809D01*
X176506285Y-107558952D01*
X176553904Y-107368476D01*
X176601523Y-107273238D01*
X176696761Y-107178000D01*
X176839619Y-107130380D01*
X176934857Y-107130380D01*
X177077714Y-107178000D01*
X177125333Y-107225619D01*
X177696761Y-107558952D02*
X177601523Y-107511333D01*
X177553904Y-107463714D01*
X177506285Y-107368476D01*
X177506285Y-107320857D01*
X177553904Y-107225619D01*
X177601523Y-107178000D01*
X177696761Y-107130380D01*
X177887238Y-107130380D01*
X177982476Y-107178000D01*
X178030095Y-107225619D01*
X178077714Y-107320857D01*
X178077714Y-107368476D01*
X178030095Y-107463714D01*
X177982476Y-107511333D01*
X177887238Y-107558952D01*
X177696761Y-107558952D01*
X177601523Y-107606571D01*
X177553904Y-107654190D01*
X177506285Y-107749428D01*
X177506285Y-107939904D01*
X177553904Y-108035142D01*
X177601523Y-108082761D01*
X177696761Y-108130380D01*
X177887238Y-108130380D01*
X177982476Y-108082761D01*
X178030095Y-108035142D01*
X178077714Y-107939904D01*
X178077714Y-107749428D01*
X178030095Y-107654190D01*
X177982476Y-107606571D01*
X177887238Y-107558952D01*
%TO.C,J4*%
X177593666Y-133116380D02*
X177593666Y-133830666D01*
X177546047Y-133973523D01*
X177450809Y-134068761D01*
X177307952Y-134116380D01*
X177212714Y-134116380D01*
X178498428Y-133449714D02*
X178498428Y-134116380D01*
X178260333Y-133068761D02*
X178022238Y-133783047D01*
X178641285Y-133783047D01*
D12*
%TO.C,C14*%
X194417733Y-102506000D02*
X194710267Y-102506000D01*
X194417733Y-101486000D02*
X194710267Y-101486000D01*
%TO.C,RV1*%
X184750000Y-107056000D02*
X184750000Y-105776000D01*
X181010000Y-102016000D02*
X184750000Y-102016000D01*
X184750000Y-103296000D02*
X184750000Y-102016000D01*
X181010000Y-107056000D02*
X181010000Y-106676000D01*
X181010000Y-107056000D02*
X184750000Y-107056000D01*
X181010000Y-102396000D02*
X181010000Y-102016000D01*
X181010000Y-104896000D02*
X181010000Y-104176000D01*
%TO.C,C6*%
X190498000Y-109564267D02*
X190498000Y-109271733D01*
X191518000Y-109564267D02*
X191518000Y-109271733D01*
%TO.C,C13*%
X194417733Y-104538000D02*
X194710267Y-104538000D01*
X194417733Y-103518000D02*
X194710267Y-103518000D01*
%TO.C,C2*%
X187450000Y-109564267D02*
X187450000Y-109271733D01*
X188470000Y-109564267D02*
X188470000Y-109271733D01*
%TO.C,C3*%
X144270000Y-126797733D02*
X144270000Y-127090267D01*
X145290000Y-126797733D02*
X145290000Y-127090267D01*
%TO.C,C15*%
X194417733Y-106570000D02*
X194710267Y-106570000D01*
X194417733Y-105550000D02*
X194710267Y-105550000D01*
%TO.C,C5*%
X143766000Y-126797733D02*
X143766000Y-127090267D01*
X142746000Y-126797733D02*
X142746000Y-127090267D01*
%TO.C,C12*%
X179177733Y-112662000D02*
X179470267Y-112662000D01*
X179177733Y-113682000D02*
X179470267Y-113682000D01*
%TO.C,C10*%
X179177733Y-110630000D02*
X179470267Y-110630000D01*
X179177733Y-111650000D02*
X179470267Y-111650000D01*
%TO.C,U1*%
X187568000Y-107162000D02*
X190018000Y-107162000D01*
X189368000Y-103942000D02*
X187568000Y-103942000D01*
%TO.C,C1*%
X146814000Y-126797733D02*
X146814000Y-127090267D01*
X145794000Y-126797733D02*
X145794000Y-127090267D01*
%TO.C,C4*%
X189994000Y-109564267D02*
X189994000Y-109271733D01*
X188974000Y-109564267D02*
X188974000Y-109271733D01*
%TO.C,C8*%
X179177733Y-108598000D02*
X179470267Y-108598000D01*
X179177733Y-109618000D02*
X179470267Y-109618000D01*
%TD*%
M02*
