%TF.GenerationSoftware,KiCad,Pcbnew,7.0.9*%
%TF.CreationDate,2024-02-01T15:18:40-05:00*%
%TF.ProjectId,power_filter,706f7765-725f-4666-996c-7465722e6b69,rev?*%
%TF.SameCoordinates,Original*%
%TF.FileFunction,Copper,L1,Top*%
%TF.FilePolarity,Positive*%
%FSLAX46Y46*%
G04 Gerber Fmt 4.6, Leading zero omitted, Abs format (unit mm)*
G04 Created by KiCad (PCBNEW 7.0.9) date 2024-02-01 15:18:40*
%MOMM*%
%LPD*%
G01*
G04 APERTURE LIST*
G04 Aperture macros list*
%AMRoundRect*
0 Rectangle with rounded corners*
0 $1 Rounding radius*
0 $2 $3 $4 $5 $6 $7 $8 $9 X,Y pos of 4 corners*
0 Add a 4 corners polygon primitive as box body*
4,1,4,$2,$3,$4,$5,$6,$7,$8,$9,$2,$3,0*
0 Add four circle primitives for the rounded corners*
1,1,$1+$1,$2,$3*
1,1,$1+$1,$4,$5*
1,1,$1+$1,$6,$7*
1,1,$1+$1,$8,$9*
0 Add four rect primitives between the rounded corners*
20,1,$1+$1,$2,$3,$4,$5,0*
20,1,$1+$1,$4,$5,$6,$7,0*
20,1,$1+$1,$6,$7,$8,$9,0*
20,1,$1+$1,$8,$9,$2,$3,0*%
G04 Aperture macros list end*
%TA.AperFunction,SMDPad,CuDef*%
%ADD10R,6.360000X5.280000*%
%TD*%
%TA.AperFunction,SMDPad,CuDef*%
%ADD11R,5.330000X5.590000*%
%TD*%
%TA.AperFunction,SMDPad,CuDef*%
%ADD12RoundRect,0.250000X-0.475000X0.337500X-0.475000X-0.337500X0.475000X-0.337500X0.475000X0.337500X0*%
%TD*%
%TA.AperFunction,SMDPad,CuDef*%
%ADD13R,1.500000X4.200000*%
%TD*%
%TA.AperFunction,SMDPad,CuDef*%
%ADD14RoundRect,0.237500X-0.237500X0.300000X-0.237500X-0.300000X0.237500X-0.300000X0.237500X0.300000X0*%
%TD*%
%TA.AperFunction,SMDPad,CuDef*%
%ADD15RoundRect,0.250000X-0.650000X0.412500X-0.650000X-0.412500X0.650000X-0.412500X0.650000X0.412500X0*%
%TD*%
%TA.AperFunction,ComponentPad*%
%ADD16RoundRect,0.250000X1.550000X-0.650000X1.550000X0.650000X-1.550000X0.650000X-1.550000X-0.650000X0*%
%TD*%
%TA.AperFunction,ComponentPad*%
%ADD17O,3.600000X1.800000*%
%TD*%
%TA.AperFunction,SMDPad,CuDef*%
%ADD18RoundRect,0.250000X0.650000X-0.412500X0.650000X0.412500X-0.650000X0.412500X-0.650000X-0.412500X0*%
%TD*%
%TA.AperFunction,SMDPad,CuDef*%
%ADD19RoundRect,0.237500X0.237500X-0.300000X0.237500X0.300000X-0.237500X0.300000X-0.237500X-0.300000X0*%
%TD*%
%TA.AperFunction,SMDPad,CuDef*%
%ADD20RoundRect,0.250000X0.475000X-0.337500X0.475000X0.337500X-0.475000X0.337500X-0.475000X-0.337500X0*%
%TD*%
%TA.AperFunction,ViaPad*%
%ADD21C,0.800000*%
%TD*%
%TA.AperFunction,Conductor*%
%ADD22C,1.000000*%
%TD*%
%TA.AperFunction,Conductor*%
%ADD23C,0.200000*%
%TD*%
G04 APERTURE END LIST*
D10*
%TO.P,L4,*%
%TO.N,*%
X131572000Y-127608000D03*
D11*
%TO.P,L4,1,1*%
%TO.N,Net-(C5-Pad2)*%
X136647000Y-105533000D03*
%TO.P,L4,2,2*%
%TO.N,Net-(C2-Pad2)*%
X126497000Y-105533000D03*
%TD*%
D10*
%TO.P,L6,*%
%TO.N,*%
X161036000Y-127608000D03*
D11*
%TO.P,L6,1,1*%
%TO.N,Vout-*%
X166111000Y-105533000D03*
%TO.P,L6,2,2*%
%TO.N,Net-(C5-Pad2)*%
X155961000Y-105533000D03*
%TD*%
D12*
%TO.P,C16,1*%
%TO.N,Vout-*%
X181356000Y-104118500D03*
%TO.P,C16,2*%
%TO.N,GND*%
X181356000Y-106193500D03*
%TD*%
D13*
%TO.P,L1,1,1*%
%TO.N,Vin+*%
X112268000Y-98552000D03*
%TO.P,L1,2,2*%
%TO.N,Net-(C2-Pad1)*%
X115868000Y-98552000D03*
%TD*%
D12*
%TO.P,C4,1*%
%TO.N,Net-(C2-Pad1)*%
X122428000Y-101070500D03*
%TO.P,C4,2*%
%TO.N,Net-(C2-Pad2)*%
X122428000Y-103145500D03*
%TD*%
D10*
%TO.P,L5,*%
%TO.N,*%
X161036000Y-76708000D03*
D11*
%TO.P,L5,1,1*%
%TO.N,Net-(C5-Pad1)*%
X155961000Y-98783000D03*
%TO.P,L5,2,2*%
%TO.N,Vout+*%
X166111000Y-98783000D03*
%TD*%
D14*
%TO.P,C14,1*%
%TO.N,Vout-*%
X176784000Y-104293500D03*
%TO.P,C14,2*%
%TO.N,GND*%
X176784000Y-106018500D03*
%TD*%
D12*
%TO.P,C7,1*%
%TO.N,Net-(C5-Pad1)*%
X146812000Y-101070500D03*
%TO.P,C7,2*%
%TO.N,Net-(C5-Pad2)*%
X146812000Y-103145500D03*
%TD*%
D14*
%TO.P,C8,1*%
%TO.N,Vout+*%
X170180000Y-101245500D03*
%TO.P,C8,2*%
%TO.N,Vout-*%
X170180000Y-102970500D03*
%TD*%
D15*
%TO.P,C3,1*%
%TO.N,Net-(C2-Pad1)*%
X119888000Y-100545500D03*
%TO.P,C3,2*%
%TO.N,Net-(C2-Pad2)*%
X119888000Y-103670500D03*
%TD*%
D16*
%TO.P,J2,1,Pin_1*%
%TO.N,GND*%
X187960000Y-107132000D03*
D17*
%TO.P,J2,2,Pin_2*%
%TO.N,Vout-*%
X187960000Y-103632000D03*
%TO.P,J2,3,Pin_3*%
%TO.N,Vout+*%
X187960000Y-100132000D03*
%TD*%
D15*
%TO.P,C6,1*%
%TO.N,Net-(C5-Pad1)*%
X143256000Y-100545500D03*
%TO.P,C6,2*%
%TO.N,Net-(C5-Pad2)*%
X143256000Y-103670500D03*
%TD*%
%TO.P,C1,1*%
%TO.N,Vin+*%
X109728000Y-100507000D03*
%TO.P,C1,2*%
%TO.N,Vin-*%
X109728000Y-103632000D03*
%TD*%
D18*
%TO.P,C12,1*%
%TO.N,Vout+*%
X178816000Y-100622500D03*
%TO.P,C12,2*%
%TO.N,GND*%
X178816000Y-97497500D03*
%TD*%
D15*
%TO.P,C15,1*%
%TO.N,Vout-*%
X178816000Y-103593500D03*
%TO.P,C15,2*%
%TO.N,GND*%
X178816000Y-106718500D03*
%TD*%
D13*
%TO.P,L2,1,1*%
%TO.N,Net-(C2-Pad2)*%
X115868000Y-105664000D03*
%TO.P,L2,2,2*%
%TO.N,Vin-*%
X112268000Y-105664000D03*
%TD*%
D16*
%TO.P,J1,1,Pin_1*%
%TO.N,GND*%
X104648000Y-107584000D03*
D17*
%TO.P,J1,2,Pin_2*%
%TO.N,Vin-*%
X104648000Y-104084000D03*
%TO.P,J1,3,Pin_3*%
%TO.N,Vin+*%
X104648000Y-100584000D03*
%TD*%
D12*
%TO.P,C10,1*%
%TO.N,Vout+*%
X174752000Y-101070500D03*
%TO.P,C10,2*%
%TO.N,Vout-*%
X174752000Y-103145500D03*
%TD*%
D15*
%TO.P,C9,1*%
%TO.N,Vout+*%
X172212000Y-100545500D03*
%TO.P,C9,2*%
%TO.N,Vout-*%
X172212000Y-103670500D03*
%TD*%
D14*
%TO.P,C5,1*%
%TO.N,Net-(C5-Pad1)*%
X140716000Y-101245500D03*
%TO.P,C5,2*%
%TO.N,Net-(C5-Pad2)*%
X140716000Y-102970500D03*
%TD*%
D19*
%TO.P,C11,1*%
%TO.N,Vout+*%
X176784000Y-99922500D03*
%TO.P,C11,2*%
%TO.N,GND*%
X176784000Y-98197500D03*
%TD*%
D14*
%TO.P,C2,1*%
%TO.N,Net-(C2-Pad1)*%
X117856000Y-101399000D03*
%TO.P,C2,2*%
%TO.N,Net-(C2-Pad2)*%
X117856000Y-103124000D03*
%TD*%
D20*
%TO.P,C13,1*%
%TO.N,Vout+*%
X181356000Y-100097500D03*
%TO.P,C13,2*%
%TO.N,GND*%
X181356000Y-98022500D03*
%TD*%
D10*
%TO.P,L3,*%
%TO.N,*%
X131572000Y-76608000D03*
D11*
%TO.P,L3,1,1*%
%TO.N,Net-(C2-Pad1)*%
X126497000Y-98683000D03*
%TO.P,L3,2,2*%
%TO.N,Net-(C5-Pad1)*%
X136647000Y-98683000D03*
%TD*%
D21*
%TO.N,GND*%
X139192000Y-109220000D03*
X179324000Y-102108000D03*
X149860000Y-104648000D03*
X136144000Y-94996000D03*
X133096000Y-106172000D03*
X117348000Y-107696000D03*
X155448000Y-94996000D03*
X152400000Y-96520000D03*
X133096000Y-96012000D03*
X114300000Y-98552000D03*
X108204000Y-99060000D03*
X133096000Y-104140000D03*
X138176000Y-109220000D03*
X107188000Y-102616000D03*
X112268000Y-108712000D03*
X122936000Y-98552000D03*
X130048000Y-95504000D03*
X169672000Y-99060000D03*
X153416000Y-109220000D03*
X152400000Y-94488000D03*
X155448000Y-109220000D03*
X113284000Y-102108000D03*
X112268000Y-95504000D03*
X122936000Y-106680000D03*
X133096000Y-101092000D03*
X114300000Y-97536000D03*
X169672000Y-108204000D03*
X162560000Y-102108000D03*
X125984000Y-94996000D03*
X122936000Y-97536000D03*
X124968000Y-94996000D03*
X166624000Y-94996000D03*
X103124000Y-106172000D03*
X114300000Y-99568000D03*
X130048000Y-100584000D03*
X154432000Y-94996000D03*
X162560000Y-100076000D03*
X130048000Y-97536000D03*
X136144000Y-109220000D03*
X106172000Y-102108000D03*
X176276000Y-102108000D03*
X140208000Y-100076000D03*
X106172000Y-106172000D03*
X141224000Y-104140000D03*
X135128000Y-94996000D03*
X137160000Y-102108000D03*
X106172000Y-98552000D03*
X112268000Y-102108000D03*
X131064000Y-103124000D03*
X165608000Y-94996000D03*
X146812000Y-104648000D03*
X110236000Y-98552000D03*
X169672000Y-96012000D03*
X169672000Y-106172000D03*
X153416000Y-94996000D03*
X124968000Y-109220000D03*
X162560000Y-94996000D03*
X140208000Y-94996000D03*
X175768000Y-98552000D03*
X116332000Y-102108000D03*
X116332000Y-95504000D03*
X145796000Y-104648000D03*
X134112000Y-94996000D03*
X175768000Y-106172000D03*
X133096000Y-98044000D03*
X133096000Y-102108000D03*
X125984000Y-102108000D03*
X158496000Y-94996000D03*
X115316000Y-108712000D03*
X156464000Y-109220000D03*
X169672000Y-98044000D03*
X159512000Y-107696000D03*
X133096000Y-97028000D03*
X108204000Y-102616000D03*
X140208000Y-109220000D03*
X169672000Y-97028000D03*
X142748000Y-99060000D03*
X135128000Y-102108000D03*
X148844000Y-99568000D03*
X137160000Y-94996000D03*
X163576000Y-109220000D03*
X169672000Y-109220000D03*
X171704000Y-99060000D03*
X159512000Y-100584000D03*
X133096000Y-103124000D03*
X117856000Y-96520000D03*
X168656000Y-94996000D03*
X161036000Y-102108000D03*
X163576000Y-94996000D03*
X150876000Y-99568000D03*
X143256000Y-102108000D03*
X128016000Y-109220000D03*
X120396000Y-99060000D03*
X162560000Y-97028000D03*
X102108000Y-104140000D03*
X151892000Y-99568000D03*
X162560000Y-96012000D03*
X141224000Y-94996000D03*
X110744000Y-107696000D03*
X119888000Y-102108000D03*
X135128000Y-109220000D03*
X127000000Y-109220000D03*
X162560000Y-103124000D03*
X140208000Y-96012000D03*
X166624000Y-109220000D03*
X142748000Y-105156000D03*
X133096000Y-100076000D03*
X178308000Y-102108000D03*
X138176000Y-102108000D03*
X130048000Y-107696000D03*
X119380000Y-105156000D03*
X181356000Y-102108000D03*
X162560000Y-109220000D03*
X116332000Y-108712000D03*
X134112000Y-109220000D03*
X162560000Y-99060000D03*
X152400000Y-105664000D03*
X122936000Y-105664000D03*
X125984000Y-109220000D03*
X184404000Y-102108000D03*
X164592000Y-109220000D03*
X162560000Y-107188000D03*
X156464000Y-94996000D03*
X159512000Y-106680000D03*
X141732000Y-99060000D03*
X122936000Y-96520000D03*
X173228000Y-105156000D03*
X127000000Y-102108000D03*
X152400000Y-106680000D03*
X113284000Y-95504000D03*
X110236000Y-97536000D03*
X118364000Y-104648000D03*
X162560000Y-105156000D03*
X159512000Y-104648000D03*
X140208000Y-108204000D03*
X150876000Y-104648000D03*
X172212000Y-105156000D03*
X162560000Y-106172000D03*
X117348000Y-95504000D03*
X129032000Y-109220000D03*
X119380000Y-99060000D03*
X138176000Y-94996000D03*
X159512000Y-99568000D03*
X157480000Y-94996000D03*
X167640000Y-109220000D03*
X122936000Y-108712000D03*
X152400000Y-107696000D03*
X169672000Y-94996000D03*
X139192000Y-94996000D03*
X114300000Y-108712000D03*
X102108000Y-101092000D03*
X108204000Y-105664000D03*
X151892000Y-104648000D03*
X183388000Y-102108000D03*
X141732000Y-105156000D03*
X105156000Y-98552000D03*
X133096000Y-107188000D03*
X109220000Y-105664000D03*
X162560000Y-104140000D03*
X169672000Y-100076000D03*
X172212000Y-102108000D03*
X152400000Y-97536000D03*
X182372000Y-102108000D03*
X159512000Y-108712000D03*
X111252000Y-102108000D03*
X152400000Y-95504000D03*
X157480000Y-109220000D03*
X145796000Y-99568000D03*
X159512000Y-103632000D03*
X123952000Y-109220000D03*
X159512000Y-96520000D03*
X137160000Y-109220000D03*
X103124000Y-102108000D03*
X175260000Y-104648000D03*
X131064000Y-101092000D03*
X122428000Y-104648000D03*
X111252000Y-95504000D03*
X102108000Y-99060000D03*
X117348000Y-108712000D03*
X143764000Y-105156000D03*
X158496000Y-109220000D03*
X122936000Y-95504000D03*
X130048000Y-98552000D03*
X143764000Y-99060000D03*
X102108000Y-105156000D03*
X159512000Y-105664000D03*
X172720000Y-99060000D03*
X115316000Y-95504000D03*
X164592000Y-94996000D03*
X168656000Y-109220000D03*
X122936000Y-107696000D03*
X114300000Y-100584000D03*
X162560000Y-98044000D03*
X130048000Y-103632000D03*
X117348000Y-106680000D03*
X110744000Y-106680000D03*
X120396000Y-105156000D03*
X102108000Y-102108000D03*
X159512000Y-97536000D03*
X123952000Y-94996000D03*
X115316000Y-102108000D03*
X140208000Y-107188000D03*
X129032000Y-102108000D03*
X141224000Y-100076000D03*
X140208000Y-97028000D03*
X134112000Y-102108000D03*
X159512000Y-95504000D03*
X128016000Y-102108000D03*
X102108000Y-103124000D03*
X121412000Y-99060000D03*
X105156000Y-106172000D03*
X171196000Y-105156000D03*
X152400000Y-98552000D03*
X110236000Y-96012000D03*
X147828000Y-104648000D03*
X136144000Y-102108000D03*
X114300000Y-102108000D03*
X133096000Y-99060000D03*
X159512000Y-102108000D03*
X117856000Y-97536000D03*
X169672000Y-105156000D03*
X128016000Y-94996000D03*
X130048000Y-108712000D03*
X102108000Y-100076000D03*
X169672000Y-104140000D03*
X105156000Y-102108000D03*
X180340000Y-102108000D03*
X170688000Y-99568000D03*
X103124000Y-98552000D03*
X149860000Y-99568000D03*
X146812000Y-99568000D03*
X140208000Y-104140000D03*
X130048000Y-102108000D03*
X152400000Y-108712000D03*
X162560000Y-101092000D03*
X122428000Y-99568000D03*
X107188000Y-99060000D03*
X140208000Y-99060000D03*
X177292000Y-102108000D03*
X159512000Y-98552000D03*
X130048000Y-105664000D03*
X140208000Y-98044000D03*
X104140000Y-98552000D03*
X173736000Y-99060000D03*
X133096000Y-105156000D03*
X169672000Y-107188000D03*
X144780000Y-105156000D03*
X114300000Y-96520000D03*
X130048000Y-104648000D03*
X109220000Y-102108000D03*
X140208000Y-105156000D03*
X113284000Y-108712000D03*
X127000000Y-94996000D03*
X117856000Y-98552000D03*
X162560000Y-108204000D03*
X118364000Y-99568000D03*
X129032000Y-94996000D03*
X154432000Y-109220000D03*
X167640000Y-94996000D03*
X130048000Y-99568000D03*
X111252000Y-108712000D03*
X141224000Y-109220000D03*
X144780000Y-99060000D03*
X124968000Y-102108000D03*
X110236000Y-105664000D03*
X107188000Y-105664000D03*
X147828000Y-99568000D03*
X130048000Y-96520000D03*
X165608000Y-109220000D03*
X109220000Y-98552000D03*
X117348000Y-105664000D03*
X133096000Y-94996000D03*
X131064000Y-102108000D03*
X133096000Y-108204000D03*
X132080000Y-102108000D03*
X174752000Y-99568000D03*
X170688000Y-104140000D03*
X152400000Y-109728000D03*
X110236000Y-102108000D03*
X104140000Y-102108000D03*
X148844000Y-104648000D03*
X140208000Y-106172000D03*
X114300000Y-95504000D03*
X130048000Y-106680000D03*
X121412000Y-105156000D03*
X133096000Y-109220000D03*
X104140000Y-106172000D03*
X174244000Y-105156000D03*
%TD*%
D22*
%TO.N,Vin+*%
X109728000Y-100507000D02*
X110313000Y-100507000D01*
X110313000Y-100507000D02*
X112268000Y-98552000D01*
X104648000Y-100584000D02*
X109651000Y-100584000D01*
X109651000Y-100584000D02*
X109728000Y-100507000D01*
%TO.N,Vin-*%
X109728000Y-103632000D02*
X110236000Y-103632000D01*
X109276000Y-104084000D02*
X109728000Y-103632000D01*
X104648000Y-104084000D02*
X109276000Y-104084000D01*
X110236000Y-103632000D02*
X112268000Y-105664000D01*
%TO.N,Net-(C2-Pad1)*%
X115868000Y-99411000D02*
X117856000Y-101399000D01*
X124109500Y-101070500D02*
X126497000Y-98683000D01*
X122428000Y-101070500D02*
X124109500Y-101070500D01*
X117856000Y-101399000D02*
X119034500Y-101399000D01*
X122428000Y-101070500D02*
X120413000Y-101070500D01*
X115868000Y-98552000D02*
X115868000Y-99411000D01*
X119034500Y-101399000D02*
X119888000Y-100545500D01*
X120413000Y-101070500D02*
X119888000Y-100545500D01*
%TO.N,Net-(C2-Pad2)*%
X117856000Y-103124000D02*
X119341500Y-103124000D01*
X120413000Y-103145500D02*
X119888000Y-103670500D01*
X119341500Y-103124000D02*
X119888000Y-103670500D01*
X124109500Y-103145500D02*
X126497000Y-105533000D01*
X115868000Y-105112000D02*
X117856000Y-103124000D01*
X115868000Y-105664000D02*
X115868000Y-105112000D01*
X122428000Y-103145500D02*
X120413000Y-103145500D01*
X122428000Y-103145500D02*
X124109500Y-103145500D01*
%TO.N,Net-(C5-Pad1)*%
X140716000Y-101245500D02*
X142556000Y-101245500D01*
X153673500Y-101070500D02*
X155961000Y-98783000D01*
X139209500Y-101245500D02*
X136647000Y-98683000D01*
X146812000Y-101070500D02*
X143781000Y-101070500D01*
X140716000Y-101245500D02*
X139209500Y-101245500D01*
X143781000Y-101070500D02*
X143256000Y-100545500D01*
X142556000Y-101245500D02*
X143256000Y-100545500D01*
X146812000Y-101070500D02*
X153673500Y-101070500D01*
%TO.N,Net-(C5-Pad2)*%
X142556000Y-102970500D02*
X143256000Y-103670500D01*
X143781000Y-103145500D02*
X143256000Y-103670500D01*
X146812000Y-103145500D02*
X153573500Y-103145500D01*
X146812000Y-103145500D02*
X143781000Y-103145500D01*
X140716000Y-102970500D02*
X139209500Y-102970500D01*
X153573500Y-103145500D02*
X155961000Y-105533000D01*
X139209500Y-102970500D02*
X136647000Y-105533000D01*
X140716000Y-102970500D02*
X142556000Y-102970500D01*
%TO.N,Vout+*%
X181356000Y-100097500D02*
X187925500Y-100097500D01*
X187925500Y-100097500D02*
X187960000Y-100132000D01*
X174752000Y-101070500D02*
X175636000Y-101070500D01*
X180831000Y-100622500D02*
X181356000Y-100097500D01*
X178816000Y-100622500D02*
X177484000Y-100622500D01*
X175636000Y-101070500D02*
X176784000Y-99922500D01*
X177484000Y-100622500D02*
X176784000Y-99922500D01*
X168573500Y-101245500D02*
X166111000Y-98783000D01*
X171512000Y-101245500D02*
X172212000Y-100545500D01*
X172737000Y-101070500D02*
X172212000Y-100545500D01*
X174752000Y-101070500D02*
X172737000Y-101070500D01*
X170180000Y-101245500D02*
X168573500Y-101245500D01*
X178816000Y-100622500D02*
X180831000Y-100622500D01*
X170180000Y-101245500D02*
X171512000Y-101245500D01*
%TO.N,Vout-*%
X171512000Y-102970500D02*
X172212000Y-103670500D01*
X174752000Y-103145500D02*
X172737000Y-103145500D01*
X181842500Y-103632000D02*
X181356000Y-104118500D01*
X172737000Y-103145500D02*
X172212000Y-103670500D01*
X170180000Y-102970500D02*
X168673500Y-102970500D01*
X177484000Y-103593500D02*
X176784000Y-104293500D01*
X174752000Y-103145500D02*
X175636000Y-103145500D01*
X178816000Y-103593500D02*
X180831000Y-103593500D01*
X170180000Y-102970500D02*
X171512000Y-102970500D01*
X187960000Y-103632000D02*
X181842500Y-103632000D01*
X178816000Y-103593500D02*
X177484000Y-103593500D01*
X180831000Y-103593500D02*
X181356000Y-104118500D01*
X168673500Y-102970500D02*
X166111000Y-105533000D01*
X175636000Y-103145500D02*
X176784000Y-104293500D01*
%TO.N,GND*%
X159512000Y-95474000D02*
X159512000Y-95504000D01*
X112268000Y-95504000D02*
X112020000Y-95752000D01*
X152400000Y-94488000D02*
X153100000Y-95188000D01*
X128016000Y-94996000D02*
X128208000Y-95188000D01*
X112516000Y-95752000D02*
X112268000Y-95504000D01*
X127824000Y-95188000D02*
X128016000Y-94996000D01*
X114300000Y-108712000D02*
X114300000Y-102108000D01*
X102108000Y-101092000D02*
X102148000Y-101132000D01*
X157480000Y-94996000D02*
X157672000Y-95188000D01*
X181356000Y-98022500D02*
X189013242Y-98022500D01*
X152716000Y-109028000D02*
X153224000Y-109028000D01*
X122936000Y-95504000D02*
X123252000Y-95188000D01*
X190460000Y-102969258D02*
X189522742Y-102032000D01*
X113532000Y-95752000D02*
X113284000Y-95504000D01*
X103236000Y-106172000D02*
X103236000Y-106172000D01*
X117664000Y-95188000D02*
X122620000Y-95188000D01*
X152400000Y-108712000D02*
X152400000Y-105156000D01*
X114300000Y-102108000D02*
X114300000Y-100584000D01*
X155256000Y-109028000D02*
X155448000Y-109220000D01*
X158688000Y-95188000D02*
X159226000Y-95188000D01*
X156272000Y-95188000D02*
X156464000Y-94996000D01*
X144780000Y-105156000D02*
X141732000Y-105156000D01*
X153224000Y-109028000D02*
X153416000Y-109220000D01*
X116016000Y-109028000D02*
X116332000Y-108712000D01*
D23*
X105156000Y-102108000D02*
X103124000Y-102108000D01*
D22*
X140016000Y-95188000D02*
X140208000Y-94996000D01*
X132080000Y-102108000D02*
X132080000Y-109028000D01*
X135952000Y-95188000D02*
X136144000Y-94996000D01*
X111500000Y-95752000D02*
X111252000Y-95504000D01*
X112968000Y-109028000D02*
X113284000Y-108712000D01*
X181356000Y-106193500D02*
X187021500Y-106193500D01*
X121412000Y-105156000D02*
X118872000Y-105156000D01*
X165608000Y-109220000D02*
X166624000Y-109220000D01*
D23*
X171196000Y-99060000D02*
X170688000Y-99568000D01*
D22*
X156656000Y-95188000D02*
X157288000Y-95188000D01*
X115632000Y-95188000D02*
X116016000Y-95188000D01*
X126808000Y-95188000D02*
X127000000Y-94996000D01*
X128016000Y-109220000D02*
X128208000Y-109028000D01*
X106092000Y-109028000D02*
X106680000Y-109028000D01*
X161544000Y-109220000D02*
X162560000Y-109220000D01*
X114300000Y-100584000D02*
X114300000Y-99568000D01*
X153416000Y-109220000D02*
X153608000Y-109028000D01*
X139192000Y-109220000D02*
X139384000Y-109028000D01*
X140016000Y-109028000D02*
X140208000Y-109220000D01*
D23*
X121920000Y-99568000D02*
X121412000Y-99060000D01*
D22*
X102108000Y-105044000D02*
X102148000Y-105084000D01*
X169164000Y-109028000D02*
X169480000Y-109028000D01*
X102148000Y-103421258D02*
X102108000Y-103461258D01*
D23*
X119888000Y-102108000D02*
X119759500Y-102236500D01*
D22*
X122936000Y-105156000D02*
X122428000Y-104648000D01*
X125792000Y-95188000D02*
X125984000Y-94996000D01*
X169988000Y-108204000D02*
X169672000Y-108204000D01*
X102108000Y-102108000D02*
X102148000Y-102148000D01*
X131064000Y-96520000D02*
X132396000Y-95188000D01*
D23*
X170688000Y-104648000D02*
X171196000Y-105156000D01*
D22*
X123760000Y-109028000D02*
X123952000Y-109220000D01*
X140208000Y-96012000D02*
X141032000Y-95188000D01*
D23*
X170180000Y-100076000D02*
X170688000Y-99568000D01*
X140208000Y-100076000D02*
X140208000Y-94996000D01*
D22*
X135952000Y-109028000D02*
X136144000Y-109220000D01*
X113966000Y-95504000D02*
X114300000Y-95504000D01*
X128840000Y-109028000D02*
X129032000Y-109220000D01*
X169864000Y-109028000D02*
X186064000Y-109028000D01*
X186064000Y-109028000D02*
X187960000Y-107132000D01*
X169480000Y-109028000D02*
X169672000Y-109220000D01*
D23*
X117856000Y-99060000D02*
X118364000Y-99568000D01*
X107188000Y-99060000D02*
X102616000Y-99060000D01*
D22*
X125984000Y-109220000D02*
X126176000Y-109028000D01*
X104140000Y-97536000D02*
X104140000Y-98552000D01*
X141032000Y-109028000D02*
X141224000Y-109220000D01*
D23*
X169672000Y-100076000D02*
X170180000Y-100076000D01*
X141732000Y-99568000D02*
X141224000Y-100076000D01*
D22*
X134304000Y-109028000D02*
X134936000Y-109028000D01*
X140400000Y-109028000D02*
X141032000Y-109028000D01*
X145288000Y-104648000D02*
X144780000Y-105156000D01*
X109220000Y-102108000D02*
X116332000Y-102108000D01*
X161036000Y-102108000D02*
X159512000Y-102108000D01*
D23*
X141732000Y-99060000D02*
X141732000Y-99568000D01*
D22*
X131064000Y-109028000D02*
X132080000Y-109028000D01*
X151700000Y-95188000D02*
X151384000Y-95504000D01*
X124968000Y-94996000D02*
X125160000Y-95188000D01*
X110236000Y-96012000D02*
X109976000Y-95752000D01*
X110936000Y-109028000D02*
X111252000Y-108712000D01*
X106248000Y-102184000D02*
X106756000Y-102184000D01*
X133096000Y-96012000D02*
X133096000Y-94996000D01*
X114300000Y-109028000D02*
X115000000Y-109028000D01*
X152400000Y-105156000D02*
X151892000Y-104648000D01*
X158496000Y-109220000D02*
X158688000Y-109028000D01*
X102148000Y-105084000D02*
X102148000Y-104180000D01*
D23*
X106680000Y-105664000D02*
X106172000Y-106172000D01*
D22*
X129732000Y-109028000D02*
X130048000Y-108712000D01*
X136144000Y-94996000D02*
X136336000Y-95188000D01*
X151892000Y-104648000D02*
X145288000Y-104648000D01*
X102530629Y-103038629D02*
X103124000Y-102445258D01*
X156656000Y-109028000D02*
X157288000Y-109028000D01*
X164592000Y-109220000D02*
X165608000Y-109220000D01*
X139000000Y-95188000D02*
X139192000Y-94996000D01*
X129224000Y-109028000D02*
X129732000Y-109028000D01*
X134936000Y-95188000D02*
X135128000Y-94996000D01*
X103124000Y-106060000D02*
X102220000Y-105156000D01*
D23*
X109220000Y-98552000D02*
X108712000Y-98552000D01*
X172212000Y-102108000D02*
X162560000Y-102108000D01*
D22*
X127000000Y-109220000D02*
X127192000Y-109028000D01*
X125160000Y-95188000D02*
X125792000Y-95188000D01*
X154240000Y-109028000D02*
X154432000Y-109220000D01*
X107188000Y-102616000D02*
X108204000Y-102616000D01*
X173874500Y-95288000D02*
X169672000Y-94996000D01*
X111952000Y-109028000D02*
X112268000Y-108712000D01*
X172212000Y-105156000D02*
X171196000Y-105156000D01*
X137352000Y-95188000D02*
X137984000Y-95188000D01*
X152400000Y-94488000D02*
X152400000Y-94488000D01*
X159196000Y-109028000D02*
X159512000Y-108712000D01*
X102148000Y-102656000D02*
X102530629Y-103038629D01*
X108712000Y-102108000D02*
X109220000Y-102108000D01*
X125160000Y-109028000D02*
X125792000Y-109028000D01*
X112268000Y-108712000D02*
X112584000Y-109028000D01*
X130048000Y-95504000D02*
X130048000Y-96520000D01*
X123444000Y-94996000D02*
X122936000Y-95504000D01*
D23*
X106172000Y-102108000D02*
X105156000Y-102108000D01*
D22*
X179341000Y-98022500D02*
X178816000Y-97497500D01*
X167640000Y-94996000D02*
X166624000Y-94996000D01*
X169672000Y-94996000D02*
X168656000Y-94996000D01*
X111568000Y-109028000D02*
X111952000Y-109028000D01*
D23*
X110744000Y-106680000D02*
X110744000Y-106172000D01*
D22*
X110496000Y-95752000D02*
X110236000Y-96012000D01*
D23*
X138176000Y-102108000D02*
X143256000Y-102108000D01*
D22*
X130048000Y-95504000D02*
X130048000Y-95504000D01*
X136336000Y-95188000D02*
X136968000Y-95188000D01*
X137984000Y-109028000D02*
X138176000Y-109220000D01*
D23*
X170688000Y-104140000D02*
X169672000Y-104140000D01*
D22*
X131064000Y-102108000D02*
X131064000Y-103124000D01*
X133920000Y-109028000D02*
X134112000Y-109220000D01*
X161036000Y-96998000D02*
X161036000Y-97028000D01*
X133096000Y-94996000D02*
X133096000Y-102108000D01*
X122936000Y-108712000D02*
X123252000Y-109028000D01*
X125792000Y-109028000D02*
X125984000Y-109220000D01*
X102108000Y-105156000D02*
X102108000Y-105044000D01*
X162560000Y-109220000D02*
X162560000Y-103124000D01*
X115316000Y-95504000D02*
X115632000Y-95188000D01*
X164592000Y-94996000D02*
X163576000Y-94996000D01*
X157480000Y-109220000D02*
X157672000Y-109028000D01*
X134112000Y-94996000D02*
X134304000Y-95188000D01*
X102616000Y-99060000D02*
X102108000Y-99060000D01*
X114300000Y-98552000D02*
X114300000Y-97536000D01*
D23*
X118872000Y-99060000D02*
X118364000Y-99568000D01*
D22*
X158304000Y-95188000D02*
X158496000Y-94996000D01*
X181356000Y-106193500D02*
X179341000Y-106193500D01*
X137160000Y-94996000D02*
X137352000Y-95188000D01*
X131064000Y-96520000D02*
X131064000Y-96520000D01*
D23*
X109220000Y-98552000D02*
X110236000Y-98552000D01*
D22*
X115316000Y-108712000D02*
X115632000Y-109028000D01*
X154624000Y-95188000D02*
X155256000Y-95188000D01*
X157672000Y-95188000D02*
X158304000Y-95188000D01*
X162560000Y-96012000D02*
X162052000Y-96012000D01*
X110236000Y-96012000D02*
X110236000Y-98552000D01*
X129032000Y-109220000D02*
X129224000Y-109028000D01*
X176784000Y-106018500D02*
X178116000Y-106018500D01*
X113718000Y-95752000D02*
X113532000Y-95752000D01*
X154624000Y-109028000D02*
X155256000Y-109028000D01*
X169672000Y-108520000D02*
X169164000Y-109028000D01*
X130048000Y-102108000D02*
X130048000Y-95504000D01*
X104140000Y-107076000D02*
X104140000Y-106172000D01*
X122936000Y-108712000D02*
X122936000Y-105156000D01*
X127824000Y-109028000D02*
X128016000Y-109220000D01*
X141224000Y-109220000D02*
X141416000Y-109028000D01*
X156272000Y-109028000D02*
X156464000Y-109220000D01*
X163576000Y-94996000D02*
X162560000Y-94996000D01*
X124144000Y-109028000D02*
X124776000Y-109028000D01*
X102148000Y-100116000D02*
X102148000Y-101052000D01*
X151892000Y-99568000D02*
X145288000Y-99568000D01*
X152400000Y-109728000D02*
X152400000Y-108712000D01*
X131064000Y-103124000D02*
X131064000Y-109028000D01*
X135128000Y-109220000D02*
X135320000Y-109028000D01*
X131064000Y-96520000D02*
X131064000Y-101092000D01*
X157672000Y-109028000D02*
X158304000Y-109028000D01*
X104648000Y-107584000D02*
X104140000Y-107076000D01*
X127192000Y-95188000D02*
X127824000Y-95188000D01*
X114300000Y-96520000D02*
X114300000Y-96334000D01*
X154432000Y-109220000D02*
X154624000Y-109028000D01*
X117032000Y-95188000D02*
X117348000Y-95504000D01*
X140208000Y-108204000D02*
X140400000Y-109028000D01*
X168656000Y-94996000D02*
X167640000Y-94996000D01*
X108204000Y-102616000D02*
X108712000Y-102108000D01*
X102148000Y-104180000D02*
X102108000Y-104140000D01*
X159512000Y-95504000D02*
X159542000Y-95504000D01*
X124968000Y-109220000D02*
X125160000Y-109028000D01*
X163576000Y-109220000D02*
X162560000Y-109220000D01*
X137984000Y-95188000D02*
X138176000Y-94996000D01*
X118872000Y-105156000D02*
X118364000Y-104648000D01*
X133288000Y-95188000D02*
X133920000Y-95188000D01*
D23*
X174244000Y-99568000D02*
X173736000Y-99060000D01*
X171704000Y-99060000D02*
X171196000Y-99060000D01*
D22*
X103124000Y-102445258D02*
X103124000Y-102108000D01*
X151384000Y-95504000D02*
X152400000Y-95504000D01*
X131064000Y-101092000D02*
X131064000Y-102108000D01*
D23*
X140208000Y-104140000D02*
X140208000Y-109220000D01*
D22*
X117348000Y-95504000D02*
X117664000Y-95188000D01*
D23*
X106172000Y-106172000D02*
X104140000Y-106172000D01*
D22*
X113284000Y-108712000D02*
X113600000Y-109028000D01*
D23*
X110236000Y-105664000D02*
X106680000Y-105664000D01*
D22*
X140400000Y-95188000D02*
X140208000Y-96012000D01*
X134112000Y-109220000D02*
X134304000Y-109028000D01*
X123952000Y-109220000D02*
X124144000Y-109028000D01*
X161036000Y-102108000D02*
X162560000Y-102108000D01*
X159828000Y-109028000D02*
X161036000Y-109028000D01*
X187960000Y-107132000D02*
X190460000Y-104632000D01*
X166624000Y-94996000D02*
X165608000Y-94996000D01*
X109976000Y-95752000D02*
X105924000Y-95752000D01*
X121920000Y-104648000D02*
X121412000Y-105156000D01*
X152400000Y-94488000D02*
X152400000Y-99060000D01*
X139192000Y-94996000D02*
X139384000Y-95188000D01*
X139384000Y-109028000D02*
X140016000Y-109028000D01*
X126176000Y-109028000D02*
X126808000Y-109028000D01*
X127192000Y-109028000D02*
X127824000Y-109028000D01*
X178116000Y-98197500D02*
X178816000Y-97497500D01*
X114300000Y-96334000D02*
X113718000Y-95752000D01*
X113718000Y-95752000D02*
X113966000Y-95504000D01*
X117348000Y-105664000D02*
X117348000Y-108712000D01*
X123252000Y-95188000D02*
X123760000Y-95188000D01*
X102148000Y-102068000D02*
X102108000Y-102108000D01*
X102220000Y-105156000D02*
X102108000Y-105156000D01*
X126176000Y-95188000D02*
X126808000Y-95188000D01*
X135320000Y-109028000D02*
X135952000Y-109028000D01*
X133288000Y-109028000D02*
X133920000Y-109028000D01*
X118364000Y-104648000D02*
X117348000Y-105664000D01*
D23*
X169672000Y-104140000D02*
X169672000Y-109220000D01*
D22*
X153224000Y-95188000D02*
X153416000Y-94996000D01*
X153100000Y-95188000D02*
X153224000Y-95188000D01*
X129224000Y-95188000D02*
X129732000Y-95188000D01*
X136144000Y-109220000D02*
X136336000Y-109028000D01*
X166624000Y-109220000D02*
X167640000Y-109220000D01*
X154432000Y-94996000D02*
X154624000Y-95188000D01*
X169672000Y-109220000D02*
X169864000Y-109028000D01*
X139384000Y-95188000D02*
X140016000Y-95188000D01*
X138176000Y-94996000D02*
X138368000Y-95188000D01*
D23*
X159512000Y-102108000D02*
X159512000Y-95504000D01*
D22*
X123252000Y-109028000D02*
X123760000Y-109028000D01*
D23*
X141224000Y-104648000D02*
X141732000Y-105156000D01*
D22*
X167640000Y-109220000D02*
X168656000Y-109220000D01*
X122620000Y-95188000D02*
X122936000Y-95504000D01*
X104140000Y-98552000D02*
X103124000Y-98552000D01*
X102445258Y-103124000D02*
X102530629Y-103038629D01*
X155640000Y-109028000D02*
X156272000Y-109028000D01*
X112020000Y-95752000D02*
X111500000Y-95752000D01*
X112584000Y-109028000D02*
X112968000Y-109028000D01*
X181356000Y-98022500D02*
X179341000Y-98022500D01*
X105232000Y-102184000D02*
X106096000Y-102184000D01*
X159512000Y-108712000D02*
X159828000Y-109028000D01*
X152400000Y-108712000D02*
X152716000Y-109028000D01*
X114282000Y-95188000D02*
X115000000Y-95188000D01*
X102108000Y-103461258D02*
X102108000Y-103124000D01*
D23*
X141224000Y-104140000D02*
X141224000Y-104648000D01*
X141224000Y-104140000D02*
X140208000Y-104140000D01*
D22*
X141416000Y-95188000D02*
X151700000Y-95188000D01*
X130048000Y-102108000D02*
X130048000Y-108712000D01*
X133096000Y-94996000D02*
X133288000Y-95188000D01*
X138176000Y-109220000D02*
X138368000Y-109028000D01*
D23*
X169672000Y-100076000D02*
X169672000Y-94996000D01*
D22*
X103385258Y-102184000D02*
X104064000Y-102184000D01*
X102148000Y-104100000D02*
X102148000Y-103421258D01*
D23*
X110744000Y-106172000D02*
X110236000Y-105664000D01*
D22*
X187021500Y-106193500D02*
X187960000Y-107132000D01*
X117032000Y-109028000D02*
X117348000Y-108712000D01*
X162776000Y-95288000D02*
X162560000Y-95504000D01*
D23*
X122936000Y-99060000D02*
X122428000Y-99568000D01*
X173736000Y-99060000D02*
X171704000Y-99060000D01*
X117856000Y-96520000D02*
X117856000Y-96012000D01*
D22*
X129032000Y-94996000D02*
X123444000Y-94996000D01*
X127000000Y-94996000D02*
X127192000Y-95188000D01*
D23*
X119888000Y-102108000D02*
X124968000Y-102108000D01*
D22*
X126808000Y-109028000D02*
X127000000Y-109220000D01*
X159512000Y-96520000D02*
X160558000Y-96520000D01*
X102108000Y-104140000D02*
X102148000Y-104100000D01*
D23*
X110744000Y-106680000D02*
X110744000Y-108204000D01*
D22*
X132396000Y-95188000D02*
X132904000Y-95188000D01*
X105924000Y-95752000D02*
X104140000Y-97536000D01*
X114300000Y-109028000D02*
X114300000Y-108712000D01*
D23*
X172212000Y-102108000D02*
X184404000Y-102108000D01*
D22*
X161036000Y-109028000D02*
X161736000Y-109028000D01*
D23*
X119380000Y-99060000D02*
X118872000Y-99060000D01*
D22*
X135128000Y-94996000D02*
X135320000Y-95188000D01*
X153416000Y-94996000D02*
X153608000Y-95188000D01*
X152400000Y-95504000D02*
X152400000Y-94488000D01*
D23*
X121412000Y-99060000D02*
X119380000Y-99060000D01*
D22*
X115000000Y-109028000D02*
X115316000Y-108712000D01*
X159226000Y-95188000D02*
X159512000Y-95474000D01*
X124144000Y-95188000D02*
X124776000Y-95188000D01*
X172212000Y-105156000D02*
X172173500Y-106018500D01*
X111004000Y-95752000D02*
X110496000Y-95752000D01*
X133096000Y-108204000D02*
X133096000Y-102108000D01*
X130048000Y-108712000D02*
X130364000Y-109028000D01*
X155256000Y-95188000D02*
X155448000Y-94996000D01*
X162560000Y-108204000D02*
X162560000Y-108204000D01*
D23*
X106172000Y-98552000D02*
X104140000Y-98552000D01*
D22*
X135320000Y-95188000D02*
X135952000Y-95188000D01*
X156464000Y-109220000D02*
X156656000Y-109028000D01*
X116016000Y-95188000D02*
X116332000Y-95504000D01*
X140208000Y-109220000D02*
X140208000Y-108204000D01*
X155640000Y-95188000D02*
X156272000Y-95188000D01*
X137160000Y-109220000D02*
X137352000Y-109028000D01*
D23*
X122428000Y-99568000D02*
X121920000Y-99568000D01*
D22*
X189522742Y-102032000D02*
X184480000Y-102032000D01*
D23*
X107188000Y-99060000D02*
X106680000Y-99060000D01*
D22*
X136336000Y-109028000D02*
X136968000Y-109028000D01*
X102108000Y-103124000D02*
X102445258Y-103124000D01*
X142172000Y-99060000D02*
X141224000Y-100008000D01*
X132080000Y-109028000D02*
X132904000Y-109028000D01*
X116648000Y-95188000D02*
X117032000Y-95188000D01*
X116332000Y-95504000D02*
X116648000Y-95188000D01*
D23*
X122936000Y-98552000D02*
X122936000Y-99060000D01*
X103124000Y-102108000D02*
X102108000Y-102108000D01*
D22*
X136968000Y-109028000D02*
X137160000Y-109220000D01*
X117664000Y-109028000D02*
X122620000Y-109028000D01*
D23*
X175768000Y-98552000D02*
X176429500Y-98552000D01*
D22*
X162560000Y-95504000D02*
X162560000Y-96012000D01*
X129732000Y-95188000D02*
X130048000Y-95504000D01*
X165608000Y-94996000D02*
X164592000Y-94996000D01*
X176784000Y-98197500D02*
X173874500Y-95288000D01*
X103124000Y-98552000D02*
X102616000Y-99060000D01*
X114300000Y-95504000D02*
X114300000Y-95170000D01*
X138368000Y-109028000D02*
X139000000Y-109028000D01*
X169672000Y-108204000D02*
X169672000Y-108520000D01*
D23*
X122936000Y-98552000D02*
X122936000Y-95504000D01*
X117856000Y-96012000D02*
X117348000Y-95504000D01*
D22*
X155448000Y-109220000D02*
X155640000Y-109028000D01*
X162560000Y-94996000D02*
X162776000Y-95288000D01*
D23*
X124968000Y-102108000D02*
X125984000Y-102108000D01*
D22*
X134304000Y-95188000D02*
X134936000Y-95188000D01*
X174244000Y-105156000D02*
X173228000Y-105156000D01*
D23*
X106680000Y-99060000D02*
X106172000Y-98552000D01*
D22*
X106756000Y-102184000D02*
X107188000Y-102616000D01*
X124776000Y-95188000D02*
X124968000Y-94996000D01*
X155448000Y-94996000D02*
X155640000Y-95188000D01*
X176784000Y-98197500D02*
X178116000Y-98197500D01*
X106680000Y-109028000D02*
X110936000Y-109028000D01*
X163576000Y-109220000D02*
X164592000Y-109220000D01*
X190460000Y-104632000D02*
X190460000Y-102969258D01*
X141224000Y-94996000D02*
X141416000Y-95188000D01*
D23*
X102616000Y-99060000D02*
X102148000Y-99528000D01*
D22*
X144780000Y-99060000D02*
X142172000Y-99060000D01*
X130048000Y-102108000D02*
X133096000Y-102108000D01*
D23*
X110744000Y-108204000D02*
X111252000Y-108712000D01*
D22*
X137352000Y-109028000D02*
X137984000Y-109028000D01*
X128208000Y-95188000D02*
X128840000Y-95188000D01*
X102148000Y-100036000D02*
X102108000Y-100076000D01*
X133920000Y-95188000D02*
X134112000Y-94996000D01*
D23*
X116460500Y-102236500D02*
X116332000Y-102108000D01*
D22*
X139000000Y-109028000D02*
X139192000Y-109220000D01*
D23*
X119759500Y-102236500D02*
X116460500Y-102236500D01*
D22*
X173228000Y-105156000D02*
X172212000Y-105156000D01*
D23*
X125984000Y-102108000D02*
X138176000Y-102108000D01*
D22*
X179341000Y-106193500D02*
X178816000Y-106718500D01*
X124776000Y-109028000D02*
X124968000Y-109220000D01*
X158688000Y-109028000D02*
X159196000Y-109028000D01*
X102108000Y-99568000D02*
X102148000Y-99528000D01*
X102108000Y-100076000D02*
X102148000Y-100116000D01*
X114300000Y-97536000D02*
X114300000Y-96520000D01*
D23*
X175768000Y-98552000D02*
X174752000Y-99568000D01*
D22*
X160558000Y-96520000D02*
X161036000Y-96998000D01*
X162560000Y-109220000D02*
X162560000Y-108204000D01*
X152084000Y-109028000D02*
X152400000Y-109728000D01*
X156464000Y-94996000D02*
X156656000Y-95188000D01*
X132904000Y-109028000D02*
X133096000Y-108204000D01*
X123952000Y-94996000D02*
X124144000Y-95188000D01*
X162560000Y-94996000D02*
X162560000Y-102108000D01*
X102148000Y-101132000D02*
X102148000Y-102068000D01*
X102108000Y-99060000D02*
X102108000Y-99568000D01*
X168656000Y-109220000D02*
X169164000Y-109028000D01*
X133096000Y-109220000D02*
X133288000Y-109028000D01*
D23*
X117856000Y-96520000D02*
X117856000Y-99060000D01*
X108712000Y-98552000D02*
X108204000Y-99060000D01*
X108204000Y-99060000D02*
X107188000Y-99060000D01*
D22*
X175768000Y-106172000D02*
X175260000Y-104648000D01*
X176784000Y-106018500D02*
X175768000Y-106172000D01*
X136968000Y-95188000D02*
X137160000Y-94996000D01*
X141416000Y-109028000D02*
X152084000Y-109028000D01*
X128208000Y-109028000D02*
X128840000Y-109028000D01*
X190460000Y-99469258D02*
X190460000Y-102969258D01*
X189013242Y-98022500D02*
X190460000Y-99469258D01*
X153608000Y-95188000D02*
X154240000Y-95188000D01*
X132904000Y-95188000D02*
X133096000Y-96012000D01*
X111252000Y-95504000D02*
X111004000Y-95752000D01*
X130364000Y-109028000D02*
X131064000Y-109028000D01*
D23*
X170688000Y-104140000D02*
X170688000Y-104648000D01*
D22*
X129032000Y-94996000D02*
X129224000Y-95188000D01*
X102148000Y-102148000D02*
X102148000Y-102656000D01*
X125984000Y-94996000D02*
X126176000Y-95188000D01*
X116332000Y-108712000D02*
X116648000Y-109028000D01*
X113036000Y-95752000D02*
X112516000Y-95752000D01*
D23*
X159512000Y-102108000D02*
X159512000Y-108712000D01*
D22*
X114300000Y-95170000D02*
X114282000Y-95188000D01*
D23*
X174752000Y-99568000D02*
X174244000Y-99568000D01*
D22*
X158304000Y-109028000D02*
X158496000Y-109220000D01*
X175260000Y-104648000D02*
X174244000Y-105156000D01*
X178116000Y-106018500D02*
X178816000Y-106718500D01*
X111252000Y-108712000D02*
X111568000Y-109028000D01*
X130048000Y-96520000D02*
X131064000Y-96520000D01*
X161036000Y-97028000D02*
X161036000Y-102108000D01*
D23*
X176429500Y-98552000D02*
X176784000Y-98197500D01*
D22*
X114300000Y-99568000D02*
X114300000Y-98552000D01*
X115000000Y-95188000D02*
X115316000Y-95504000D01*
D23*
X141224000Y-100076000D02*
X140208000Y-100076000D01*
D22*
X157288000Y-109028000D02*
X157480000Y-109220000D01*
X158496000Y-94996000D02*
X158688000Y-95188000D01*
X138368000Y-95188000D02*
X139000000Y-95188000D01*
X161036000Y-102108000D02*
X161036000Y-109028000D01*
D23*
X143256000Y-102108000D02*
X159512000Y-102108000D01*
D22*
X122620000Y-109028000D02*
X122936000Y-108712000D01*
X115632000Y-109028000D02*
X116016000Y-109028000D01*
X103124000Y-106172000D02*
X103124000Y-106060000D01*
X140208000Y-94996000D02*
X140400000Y-95188000D01*
X113284000Y-95504000D02*
X113036000Y-95752000D01*
X104140000Y-106172000D02*
X103236000Y-106172000D01*
X161736000Y-109028000D02*
X161544000Y-109220000D01*
X152400000Y-99060000D02*
X151892000Y-99568000D01*
X172173500Y-106018500D02*
X169988000Y-108204000D01*
X145288000Y-99568000D02*
X144780000Y-99060000D01*
X162052000Y-96012000D02*
X161036000Y-97028000D01*
X104648000Y-107584000D02*
X106092000Y-109028000D01*
X122428000Y-104648000D02*
X121920000Y-104648000D01*
X141032000Y-95188000D02*
X141224000Y-94996000D01*
X103236000Y-106172000D02*
X103124000Y-106172000D01*
X133096000Y-108204000D02*
X133096000Y-109220000D01*
X184480000Y-102032000D02*
X184404000Y-102108000D01*
X157288000Y-95188000D02*
X157480000Y-94996000D01*
X102148000Y-99528000D02*
X102148000Y-100036000D01*
X123760000Y-95188000D02*
X123952000Y-94996000D01*
X113600000Y-109028000D02*
X114300000Y-109028000D01*
X104216000Y-102184000D02*
X105080000Y-102184000D01*
X134936000Y-109028000D02*
X135128000Y-109220000D01*
X159542000Y-95504000D02*
X159512000Y-95474000D01*
X159512000Y-95474000D02*
X159512000Y-96520000D01*
X153608000Y-109028000D02*
X154240000Y-109028000D01*
X116648000Y-109028000D02*
X117032000Y-109028000D01*
X117348000Y-108712000D02*
X117664000Y-109028000D01*
X102148000Y-101052000D02*
X102108000Y-101092000D01*
X128840000Y-95188000D02*
X129032000Y-94996000D01*
X154240000Y-95188000D02*
X154432000Y-94996000D01*
%TD*%
%TA.AperFunction,Conductor*%
%TO.N,GND*%
G36*
X127861143Y-73679685D02*
G01*
X127906898Y-73732489D01*
X127916842Y-73801647D01*
X127910287Y-73827329D01*
X127904479Y-73842900D01*
X127897908Y-73860518D01*
X127891501Y-73920116D01*
X127891501Y-73920123D01*
X127891500Y-73920135D01*
X127891500Y-79295870D01*
X127891501Y-79295876D01*
X127897908Y-79355483D01*
X127948202Y-79490328D01*
X127948206Y-79490335D01*
X128034452Y-79605544D01*
X128034455Y-79605547D01*
X128149664Y-79691793D01*
X128149671Y-79691797D01*
X128284517Y-79742091D01*
X128284516Y-79742091D01*
X128291444Y-79742835D01*
X128344127Y-79748500D01*
X134799872Y-79748499D01*
X134859483Y-79742091D01*
X134994331Y-79691796D01*
X135109546Y-79605546D01*
X135195796Y-79490331D01*
X135246091Y-79355483D01*
X135252500Y-79295873D01*
X135252499Y-73920128D01*
X135246091Y-73860517D01*
X135233713Y-73827332D01*
X135228730Y-73757642D01*
X135262214Y-73696319D01*
X135323537Y-73662834D01*
X135349896Y-73660000D01*
X157295401Y-73660000D01*
X157362440Y-73679685D01*
X157408195Y-73732489D01*
X157418139Y-73801647D01*
X157411583Y-73827333D01*
X157361908Y-73960517D01*
X157355501Y-74020116D01*
X157355501Y-74020123D01*
X157355500Y-74020135D01*
X157355500Y-79395870D01*
X157355501Y-79395876D01*
X157361908Y-79455483D01*
X157412202Y-79590328D01*
X157412206Y-79590335D01*
X157498452Y-79705544D01*
X157498455Y-79705547D01*
X157613664Y-79791793D01*
X157613671Y-79791797D01*
X157748517Y-79842091D01*
X157748516Y-79842091D01*
X157755444Y-79842835D01*
X157808127Y-79848500D01*
X164263872Y-79848499D01*
X164323483Y-79842091D01*
X164458331Y-79791796D01*
X164573546Y-79705546D01*
X164659796Y-79590331D01*
X164710091Y-79455483D01*
X164716500Y-79395873D01*
X164716499Y-74020128D01*
X164710091Y-73960517D01*
X164695027Y-73920129D01*
X164660417Y-73827333D01*
X164655433Y-73757641D01*
X164688918Y-73696318D01*
X164750242Y-73662834D01*
X164776599Y-73660000D01*
X191392000Y-73660000D01*
X191459039Y-73679685D01*
X191504794Y-73732489D01*
X191516000Y-73784000D01*
X191516000Y-130432000D01*
X191496315Y-130499039D01*
X191443511Y-130544794D01*
X191392000Y-130556000D01*
X164813896Y-130556000D01*
X164746857Y-130536315D01*
X164701102Y-130483511D01*
X164691158Y-130414353D01*
X164697712Y-130388670D01*
X164710091Y-130355483D01*
X164716500Y-130295873D01*
X164716499Y-124920128D01*
X164710091Y-124860517D01*
X164659796Y-124725669D01*
X164659795Y-124725668D01*
X164659793Y-124725664D01*
X164573547Y-124610455D01*
X164573544Y-124610452D01*
X164458335Y-124524206D01*
X164458328Y-124524202D01*
X164323482Y-124473908D01*
X164323483Y-124473908D01*
X164263883Y-124467501D01*
X164263881Y-124467500D01*
X164263873Y-124467500D01*
X164263864Y-124467500D01*
X157808129Y-124467500D01*
X157808123Y-124467501D01*
X157748516Y-124473908D01*
X157613671Y-124524202D01*
X157613664Y-124524206D01*
X157498455Y-124610452D01*
X157498452Y-124610455D01*
X157412206Y-124725664D01*
X157412202Y-124725671D01*
X157361908Y-124860517D01*
X157355501Y-124920116D01*
X157355501Y-124920123D01*
X157355500Y-124920135D01*
X157355500Y-130295870D01*
X157355501Y-130295876D01*
X157361908Y-130355481D01*
X157361909Y-130355483D01*
X157374286Y-130388667D01*
X157379270Y-130458358D01*
X157345786Y-130519681D01*
X157284463Y-130553166D01*
X157258104Y-130556000D01*
X135349896Y-130556000D01*
X135282857Y-130536315D01*
X135237102Y-130483511D01*
X135227158Y-130414353D01*
X135233712Y-130388670D01*
X135246091Y-130355483D01*
X135252500Y-130295873D01*
X135252499Y-124920128D01*
X135246091Y-124860517D01*
X135195796Y-124725669D01*
X135195795Y-124725668D01*
X135195793Y-124725664D01*
X135109547Y-124610455D01*
X135109544Y-124610452D01*
X134994335Y-124524206D01*
X134994328Y-124524202D01*
X134859482Y-124473908D01*
X134859483Y-124473908D01*
X134799883Y-124467501D01*
X134799881Y-124467500D01*
X134799873Y-124467500D01*
X134799864Y-124467500D01*
X128344129Y-124467500D01*
X128344123Y-124467501D01*
X128284516Y-124473908D01*
X128149671Y-124524202D01*
X128149664Y-124524206D01*
X128034455Y-124610452D01*
X128034452Y-124610455D01*
X127948206Y-124725664D01*
X127948202Y-124725671D01*
X127897908Y-124860517D01*
X127891501Y-124920116D01*
X127891501Y-124920123D01*
X127891500Y-124920135D01*
X127891500Y-130295870D01*
X127891501Y-130295876D01*
X127897908Y-130355481D01*
X127897909Y-130355483D01*
X127910286Y-130388667D01*
X127915270Y-130458358D01*
X127881786Y-130519681D01*
X127820463Y-130553166D01*
X127794104Y-130556000D01*
X99692000Y-130556000D01*
X99624961Y-130536315D01*
X99579206Y-130483511D01*
X99568000Y-130432000D01*
X99568000Y-107334000D01*
X102348000Y-107334000D01*
X104102118Y-107334000D01*
X104063444Y-107427369D01*
X104042823Y-107584000D01*
X104063444Y-107740631D01*
X104102118Y-107834000D01*
X102348001Y-107834000D01*
X102348001Y-108283986D01*
X102358494Y-108386697D01*
X102413641Y-108553119D01*
X102413643Y-108553124D01*
X102505684Y-108702345D01*
X102629654Y-108826315D01*
X102778875Y-108918356D01*
X102778880Y-108918358D01*
X102945302Y-108973505D01*
X102945309Y-108973506D01*
X103048019Y-108983999D01*
X104397999Y-108983999D01*
X104398000Y-108983998D01*
X104398000Y-108129881D01*
X104491369Y-108168556D01*
X104608677Y-108184000D01*
X104687323Y-108184000D01*
X104804631Y-108168556D01*
X104898000Y-108129881D01*
X104898000Y-108983999D01*
X106247972Y-108983999D01*
X106247986Y-108983998D01*
X106350697Y-108973505D01*
X106517119Y-108918358D01*
X106517124Y-108918356D01*
X106666345Y-108826315D01*
X106790315Y-108702345D01*
X106882356Y-108553124D01*
X106882358Y-108553119D01*
X106937505Y-108386697D01*
X106937506Y-108386690D01*
X106947999Y-108283986D01*
X106948000Y-108283973D01*
X106948000Y-107834000D01*
X105193882Y-107834000D01*
X105232556Y-107740631D01*
X105253177Y-107584000D01*
X105232556Y-107427369D01*
X105193882Y-107334000D01*
X106947999Y-107334000D01*
X106947999Y-106884028D01*
X106947998Y-106884013D01*
X106937505Y-106781302D01*
X106882358Y-106614880D01*
X106882356Y-106614875D01*
X106790315Y-106465654D01*
X106666345Y-106341684D01*
X106517124Y-106249643D01*
X106517119Y-106249641D01*
X106350697Y-106194494D01*
X106350690Y-106194493D01*
X106247986Y-106184000D01*
X104898000Y-106184000D01*
X104898000Y-107038118D01*
X104804631Y-106999444D01*
X104687323Y-106984000D01*
X104608677Y-106984000D01*
X104491369Y-106999444D01*
X104398000Y-107038118D01*
X104398000Y-106184000D01*
X103048028Y-106184000D01*
X103048012Y-106184001D01*
X102945302Y-106194494D01*
X102778880Y-106249641D01*
X102778875Y-106249643D01*
X102629654Y-106341684D01*
X102505684Y-106465654D01*
X102413643Y-106614875D01*
X102413641Y-106614880D01*
X102358494Y-106781302D01*
X102358493Y-106781309D01*
X102348000Y-106884013D01*
X102348000Y-107334000D01*
X99568000Y-107334000D01*
X99568000Y-104024346D01*
X102343702Y-104024346D01*
X102353819Y-104262528D01*
X102353819Y-104262532D01*
X102404045Y-104495580D01*
X102476429Y-104675712D01*
X102492936Y-104716790D01*
X102617931Y-104919795D01*
X102650918Y-104957275D01*
X102748959Y-105068672D01*
X102775436Y-105098755D01*
X102960920Y-105248523D01*
X103169046Y-105364790D01*
X103294951Y-105409275D01*
X103393829Y-105444211D01*
X103628790Y-105484499D01*
X103628798Y-105484499D01*
X103628800Y-105484500D01*
X103628801Y-105484500D01*
X105607502Y-105484500D01*
X105785536Y-105469347D01*
X105785539Y-105469346D01*
X105785541Y-105469346D01*
X106016249Y-105409275D01*
X106196531Y-105327782D01*
X106233480Y-105311080D01*
X106233481Y-105311078D01*
X106233486Y-105311077D01*
X106431003Y-105177579D01*
X106492147Y-105118976D01*
X106554167Y-105086801D01*
X106577947Y-105084500D01*
X109263284Y-105084500D01*
X109352358Y-105086757D01*
X109352358Y-105086756D01*
X109352363Y-105086757D01*
X109412753Y-105075932D01*
X109417412Y-105075280D01*
X109459607Y-105070988D01*
X109478438Y-105069074D01*
X109511227Y-105058786D01*
X109518840Y-105056918D01*
X109552653Y-105050858D01*
X109609621Y-105028101D01*
X109614053Y-105026524D01*
X109672588Y-105008159D01*
X109702627Y-104991484D01*
X109709708Y-104988122D01*
X109741617Y-104975377D01*
X109792854Y-104941608D01*
X109796851Y-104939187D01*
X109850502Y-104909409D01*
X109876568Y-104887030D01*
X109882836Y-104882304D01*
X109911519Y-104863402D01*
X109911523Y-104863397D01*
X109912063Y-104863042D01*
X109978872Y-104842588D01*
X110046133Y-104861500D01*
X110067974Y-104878895D01*
X110510254Y-105321174D01*
X110981181Y-105792101D01*
X111014666Y-105853424D01*
X111017500Y-105879782D01*
X111017500Y-107811870D01*
X111017501Y-107811876D01*
X111023908Y-107871483D01*
X111074202Y-108006328D01*
X111074206Y-108006335D01*
X111160452Y-108121544D01*
X111160455Y-108121547D01*
X111275664Y-108207793D01*
X111275671Y-108207797D01*
X111410517Y-108258091D01*
X111410516Y-108258091D01*
X111417444Y-108258835D01*
X111470127Y-108264500D01*
X113065872Y-108264499D01*
X113125483Y-108258091D01*
X113260331Y-108207796D01*
X113375546Y-108121546D01*
X113461796Y-108006331D01*
X113512091Y-107871483D01*
X113518500Y-107811873D01*
X113518500Y-107811870D01*
X114617500Y-107811870D01*
X114617501Y-107811876D01*
X114623908Y-107871483D01*
X114674202Y-108006328D01*
X114674206Y-108006335D01*
X114760452Y-108121544D01*
X114760455Y-108121547D01*
X114875664Y-108207793D01*
X114875671Y-108207797D01*
X115010517Y-108258091D01*
X115010516Y-108258091D01*
X115017444Y-108258835D01*
X115070127Y-108264500D01*
X116665872Y-108264499D01*
X116725483Y-108258091D01*
X116860331Y-108207796D01*
X116975546Y-108121546D01*
X117061796Y-108006331D01*
X117112091Y-107871483D01*
X117118500Y-107811873D01*
X117118499Y-105327781D01*
X117138184Y-105260743D01*
X117154813Y-105240106D01*
X118222215Y-104172704D01*
X118270890Y-104142681D01*
X118300083Y-104133008D01*
X118306765Y-104130794D01*
X118345768Y-104124500D01*
X118374653Y-104124500D01*
X118441692Y-104144185D01*
X118487447Y-104196989D01*
X118496209Y-104229261D01*
X118496585Y-104229181D01*
X118498001Y-104235799D01*
X118542123Y-104368949D01*
X118553186Y-104402334D01*
X118645288Y-104551656D01*
X118769344Y-104675712D01*
X118918666Y-104767814D01*
X119085203Y-104822999D01*
X119187991Y-104833500D01*
X120588008Y-104833499D01*
X120690797Y-104822999D01*
X120857334Y-104767814D01*
X121006656Y-104675712D01*
X121130712Y-104551656D01*
X121222814Y-104402334D01*
X121277999Y-104235797D01*
X121277999Y-104235796D01*
X121279590Y-104230996D01*
X121319363Y-104173551D01*
X121383879Y-104146728D01*
X121397296Y-104146000D01*
X121563134Y-104146000D01*
X121628231Y-104164461D01*
X121633666Y-104167814D01*
X121800203Y-104222999D01*
X121902991Y-104233500D01*
X122953008Y-104233499D01*
X122953016Y-104233498D01*
X122953019Y-104233498D01*
X123009302Y-104227748D01*
X123055797Y-104222999D01*
X123168500Y-104185652D01*
X123238323Y-104183251D01*
X123298365Y-104218982D01*
X123329558Y-104281502D01*
X123331500Y-104303359D01*
X123331500Y-108375870D01*
X123331501Y-108375876D01*
X123337908Y-108435483D01*
X123388202Y-108570328D01*
X123388206Y-108570335D01*
X123474452Y-108685544D01*
X123474455Y-108685547D01*
X123589664Y-108771793D01*
X123589671Y-108771797D01*
X123724517Y-108822091D01*
X123724516Y-108822091D01*
X123731444Y-108822835D01*
X123784127Y-108828500D01*
X129209872Y-108828499D01*
X129269483Y-108822091D01*
X129404331Y-108771796D01*
X129519546Y-108685546D01*
X129605796Y-108570331D01*
X129656091Y-108435483D01*
X129662500Y-108375873D01*
X129662500Y-108375870D01*
X133481500Y-108375870D01*
X133481501Y-108375876D01*
X133487908Y-108435483D01*
X133538202Y-108570328D01*
X133538206Y-108570335D01*
X133624452Y-108685544D01*
X133624455Y-108685547D01*
X133739664Y-108771793D01*
X133739671Y-108771797D01*
X133874517Y-108822091D01*
X133874516Y-108822091D01*
X133881444Y-108822835D01*
X133934127Y-108828500D01*
X139359872Y-108828499D01*
X139419483Y-108822091D01*
X139554331Y-108771796D01*
X139669546Y-108685546D01*
X139755796Y-108570331D01*
X139806091Y-108435483D01*
X139812500Y-108375873D01*
X139812499Y-104094999D01*
X139832184Y-104027961D01*
X139884988Y-103982206D01*
X139936499Y-103971000D01*
X140226232Y-103971000D01*
X140265235Y-103977293D01*
X140328247Y-103998174D01*
X140429323Y-104008500D01*
X141002676Y-104008499D01*
X141002684Y-104008498D01*
X141002687Y-104008498D01*
X141058030Y-104002844D01*
X141103753Y-103998174D01*
X141166765Y-103977293D01*
X141205768Y-103971000D01*
X141731501Y-103971000D01*
X141798540Y-103990685D01*
X141844295Y-104043489D01*
X141855501Y-104095000D01*
X141855501Y-104133018D01*
X141866000Y-104235796D01*
X141866001Y-104235799D01*
X141910123Y-104368949D01*
X141921186Y-104402334D01*
X142013288Y-104551656D01*
X142137344Y-104675712D01*
X142286666Y-104767814D01*
X142453203Y-104822999D01*
X142555991Y-104833500D01*
X143956008Y-104833499D01*
X144058797Y-104822999D01*
X144225334Y-104767814D01*
X144374656Y-104675712D01*
X144498712Y-104551656D01*
X144590814Y-104402334D01*
X144645999Y-104235797D01*
X144645999Y-104235796D01*
X144647590Y-104230996D01*
X144687363Y-104173551D01*
X144751879Y-104146728D01*
X144765296Y-104146000D01*
X145947134Y-104146000D01*
X146012231Y-104164461D01*
X146017666Y-104167814D01*
X146184203Y-104222999D01*
X146286991Y-104233500D01*
X147337008Y-104233499D01*
X147337016Y-104233498D01*
X147337019Y-104233498D01*
X147393302Y-104227748D01*
X147439797Y-104222999D01*
X147606334Y-104167814D01*
X147611768Y-104164461D01*
X147676866Y-104146000D01*
X152671500Y-104146000D01*
X152738539Y-104165685D01*
X152784294Y-104218489D01*
X152795500Y-104270000D01*
X152795500Y-108375870D01*
X152795501Y-108375876D01*
X152801908Y-108435483D01*
X152852202Y-108570328D01*
X152852206Y-108570335D01*
X152938452Y-108685544D01*
X152938455Y-108685547D01*
X153053664Y-108771793D01*
X153053671Y-108771797D01*
X153188517Y-108822091D01*
X153188516Y-108822091D01*
X153195444Y-108822835D01*
X153248127Y-108828500D01*
X158673872Y-108828499D01*
X158733483Y-108822091D01*
X158868331Y-108771796D01*
X158983546Y-108685546D01*
X159069796Y-108570331D01*
X159120091Y-108435483D01*
X159126500Y-108375873D01*
X159126500Y-108375870D01*
X162945500Y-108375870D01*
X162945501Y-108375876D01*
X162951908Y-108435483D01*
X163002202Y-108570328D01*
X163002206Y-108570335D01*
X163088452Y-108685544D01*
X163088455Y-108685547D01*
X163203664Y-108771793D01*
X163203671Y-108771797D01*
X163338517Y-108822091D01*
X163338516Y-108822091D01*
X163345444Y-108822835D01*
X163398127Y-108828500D01*
X168823872Y-108828499D01*
X168883483Y-108822091D01*
X169018331Y-108771796D01*
X169133546Y-108685546D01*
X169219796Y-108570331D01*
X169270091Y-108435483D01*
X169276500Y-108375873D01*
X169276500Y-106268500D01*
X175809001Y-106268500D01*
X175809001Y-106367654D01*
X175819319Y-106468652D01*
X175873546Y-106632300D01*
X175873551Y-106632311D01*
X175964052Y-106779034D01*
X175964055Y-106779038D01*
X176085961Y-106900944D01*
X176085965Y-106900947D01*
X176232688Y-106991448D01*
X176232699Y-106991453D01*
X176396347Y-107045680D01*
X176497352Y-107055999D01*
X176534000Y-107055999D01*
X176534000Y-106268500D01*
X175809001Y-106268500D01*
X169276500Y-106268500D01*
X169276499Y-104094999D01*
X169296184Y-104027961D01*
X169348988Y-103982206D01*
X169400499Y-103971000D01*
X169690232Y-103971000D01*
X169729235Y-103977293D01*
X169792247Y-103998174D01*
X169893323Y-104008500D01*
X170466676Y-104008499D01*
X170466684Y-104008498D01*
X170466687Y-104008498D01*
X170522030Y-104002844D01*
X170567753Y-103998174D01*
X170630765Y-103977293D01*
X170669768Y-103971000D01*
X170687501Y-103971000D01*
X170754540Y-103990685D01*
X170800295Y-104043489D01*
X170811501Y-104095000D01*
X170811501Y-104133018D01*
X170822000Y-104235796D01*
X170822001Y-104235799D01*
X170866123Y-104368949D01*
X170877186Y-104402334D01*
X170969288Y-104551656D01*
X171093344Y-104675712D01*
X171242666Y-104767814D01*
X171409203Y-104822999D01*
X171511991Y-104833500D01*
X172912008Y-104833499D01*
X173014797Y-104822999D01*
X173181334Y-104767814D01*
X173330656Y-104675712D01*
X173454712Y-104551656D01*
X173546814Y-104402334D01*
X173601999Y-104235797D01*
X173601999Y-104235796D01*
X173603590Y-104230996D01*
X173643363Y-104173551D01*
X173707879Y-104146728D01*
X173721296Y-104146000D01*
X173887134Y-104146000D01*
X173952231Y-104164461D01*
X173957666Y-104167814D01*
X174124203Y-104222999D01*
X174226991Y-104233500D01*
X175257716Y-104233499D01*
X175324755Y-104253183D01*
X175345397Y-104269818D01*
X175797793Y-104722213D01*
X175827818Y-104770889D01*
X175848565Y-104833500D01*
X175873092Y-104907515D01*
X175873093Y-104907518D01*
X175903784Y-104957275D01*
X175963659Y-105054349D01*
X175963661Y-105054351D01*
X175977982Y-105068672D01*
X176011467Y-105129995D01*
X176006483Y-105199687D01*
X175977985Y-105244032D01*
X175964052Y-105257965D01*
X175873551Y-105404688D01*
X175873546Y-105404699D01*
X175819319Y-105568347D01*
X175809000Y-105669345D01*
X175809000Y-105768500D01*
X176910000Y-105768500D01*
X176977039Y-105788185D01*
X177022794Y-105840989D01*
X177034000Y-105892500D01*
X177034000Y-107055999D01*
X177070640Y-107055999D01*
X177070654Y-107055998D01*
X177171652Y-107045680D01*
X177252996Y-107018726D01*
X177322824Y-107016324D01*
X177382866Y-107052056D01*
X177414059Y-107114576D01*
X177416000Y-107136429D01*
X177416000Y-107180969D01*
X177416001Y-107180987D01*
X177426494Y-107283697D01*
X177481641Y-107450119D01*
X177481643Y-107450124D01*
X177573684Y-107599345D01*
X177697654Y-107723315D01*
X177846875Y-107815356D01*
X177846880Y-107815358D01*
X178013302Y-107870505D01*
X178013309Y-107870506D01*
X178116019Y-107880999D01*
X178565999Y-107880999D01*
X178566000Y-107880998D01*
X178566000Y-105556000D01*
X178116028Y-105556000D01*
X178116012Y-105556001D01*
X178013302Y-105566494D01*
X177892015Y-105606685D01*
X177822187Y-105609087D01*
X177762145Y-105573355D01*
X177735305Y-105527983D01*
X177694453Y-105404699D01*
X177694448Y-105404688D01*
X177603947Y-105257965D01*
X177603944Y-105257961D01*
X177590017Y-105244034D01*
X177556532Y-105182711D01*
X177561516Y-105113019D01*
X177590017Y-105068672D01*
X177604340Y-105054350D01*
X177694908Y-104907516D01*
X177735623Y-104784644D01*
X177775394Y-104727202D01*
X177839910Y-104700379D01*
X177892326Y-104705944D01*
X178013203Y-104745999D01*
X178115991Y-104756500D01*
X179516008Y-104756499D01*
X179618797Y-104745999D01*
X179785334Y-104690814D01*
X179912366Y-104612460D01*
X179977461Y-104594000D01*
X180046557Y-104594000D01*
X180113596Y-104613685D01*
X180159351Y-104666489D01*
X180164261Y-104678990D01*
X180196186Y-104775334D01*
X180288288Y-104924656D01*
X180412344Y-105048712D01*
X180415628Y-105050737D01*
X180415653Y-105050753D01*
X180417445Y-105052746D01*
X180418011Y-105053193D01*
X180417934Y-105053289D01*
X180462379Y-105102699D01*
X180473603Y-105171661D01*
X180445761Y-105235744D01*
X180415665Y-105261826D01*
X180412660Y-105263679D01*
X180412655Y-105263683D01*
X180288684Y-105387654D01*
X180196643Y-105536875D01*
X180196641Y-105536880D01*
X180150587Y-105675862D01*
X180110814Y-105733307D01*
X180046298Y-105760130D01*
X179977522Y-105747815D01*
X179945200Y-105724539D01*
X179934345Y-105713684D01*
X179785124Y-105621643D01*
X179785119Y-105621641D01*
X179618697Y-105566494D01*
X179618690Y-105566493D01*
X179515986Y-105556000D01*
X179066000Y-105556000D01*
X179066000Y-107880999D01*
X179515972Y-107880999D01*
X179515986Y-107880998D01*
X179618697Y-107870505D01*
X179785119Y-107815358D01*
X179785124Y-107815356D01*
X179934345Y-107723315D01*
X180058315Y-107599345D01*
X180150356Y-107450124D01*
X180150358Y-107450119D01*
X180205505Y-107283697D01*
X180205506Y-107283689D01*
X180213177Y-107208606D01*
X180239573Y-107143914D01*
X180296753Y-107103763D01*
X180366564Y-107100899D01*
X180406032Y-107120297D01*
X180406509Y-107119525D01*
X180561875Y-107215356D01*
X180561880Y-107215358D01*
X180728302Y-107270505D01*
X180728309Y-107270506D01*
X180831019Y-107280999D01*
X181105999Y-107280999D01*
X181106000Y-107280998D01*
X181106000Y-106443500D01*
X181606000Y-106443500D01*
X181606000Y-107280999D01*
X181880972Y-107280999D01*
X181880986Y-107280998D01*
X181983697Y-107270505D01*
X182150119Y-107215358D01*
X182150124Y-107215356D01*
X182299345Y-107123315D01*
X182423315Y-106999345D01*
X182495695Y-106882000D01*
X185660000Y-106882000D01*
X187414118Y-106882000D01*
X187375444Y-106975369D01*
X187354823Y-107132000D01*
X187375444Y-107288631D01*
X187414118Y-107382000D01*
X185660001Y-107382000D01*
X185660001Y-107831986D01*
X185670494Y-107934697D01*
X185725641Y-108101119D01*
X185725643Y-108101124D01*
X185817684Y-108250345D01*
X185941654Y-108374315D01*
X186090875Y-108466356D01*
X186090880Y-108466358D01*
X186257302Y-108521505D01*
X186257309Y-108521506D01*
X186360019Y-108531999D01*
X187709999Y-108531999D01*
X187710000Y-108531998D01*
X187710000Y-107677881D01*
X187803369Y-107716556D01*
X187920677Y-107732000D01*
X187999323Y-107732000D01*
X188116631Y-107716556D01*
X188210000Y-107677881D01*
X188210000Y-108531999D01*
X189559972Y-108531999D01*
X189559986Y-108531998D01*
X189662697Y-108521505D01*
X189829119Y-108466358D01*
X189829124Y-108466356D01*
X189978345Y-108374315D01*
X190102315Y-108250345D01*
X190194356Y-108101124D01*
X190194358Y-108101119D01*
X190249505Y-107934697D01*
X190249506Y-107934690D01*
X190259999Y-107831986D01*
X190260000Y-107831973D01*
X190260000Y-107382000D01*
X188505882Y-107382000D01*
X188544556Y-107288631D01*
X188565177Y-107132000D01*
X188544556Y-106975369D01*
X188505882Y-106882000D01*
X190259999Y-106882000D01*
X190259999Y-106432028D01*
X190259998Y-106432013D01*
X190249505Y-106329302D01*
X190194358Y-106162880D01*
X190194356Y-106162875D01*
X190102315Y-106013654D01*
X189978345Y-105889684D01*
X189829124Y-105797643D01*
X189829119Y-105797641D01*
X189662697Y-105742494D01*
X189662690Y-105742493D01*
X189559986Y-105732000D01*
X188210000Y-105732000D01*
X188210000Y-106586118D01*
X188116631Y-106547444D01*
X187999323Y-106532000D01*
X187920677Y-106532000D01*
X187803369Y-106547444D01*
X187710000Y-106586118D01*
X187710000Y-105732000D01*
X186360028Y-105732000D01*
X186360012Y-105732001D01*
X186257302Y-105742494D01*
X186090880Y-105797641D01*
X186090875Y-105797643D01*
X185941654Y-105889684D01*
X185817684Y-106013654D01*
X185725643Y-106162875D01*
X185725641Y-106162880D01*
X185670494Y-106329302D01*
X185670493Y-106329309D01*
X185660000Y-106432013D01*
X185660000Y-106882000D01*
X182495695Y-106882000D01*
X182515356Y-106850124D01*
X182515358Y-106850119D01*
X182570505Y-106683697D01*
X182570506Y-106683690D01*
X182580999Y-106580986D01*
X182581000Y-106580973D01*
X182581000Y-106443500D01*
X181606000Y-106443500D01*
X181106000Y-106443500D01*
X181106000Y-106067500D01*
X181125685Y-106000461D01*
X181178489Y-105954706D01*
X181230000Y-105943500D01*
X182580999Y-105943500D01*
X182580999Y-105806028D01*
X182580998Y-105806013D01*
X182570505Y-105703302D01*
X182515358Y-105536880D01*
X182515356Y-105536875D01*
X182423315Y-105387654D01*
X182299344Y-105263683D01*
X182299341Y-105263681D01*
X182296339Y-105261829D01*
X182294713Y-105260021D01*
X182293677Y-105259202D01*
X182293817Y-105259024D01*
X182249617Y-105209880D01*
X182238397Y-105140917D01*
X182266243Y-105076836D01*
X182296344Y-105050754D01*
X182299656Y-105048712D01*
X182423712Y-104924656D01*
X182515814Y-104775334D01*
X182534980Y-104717494D01*
X182574753Y-104660051D01*
X182639269Y-104633228D01*
X182652686Y-104632500D01*
X186025970Y-104632500D01*
X186093009Y-104652185D01*
X186103869Y-104660024D01*
X186142002Y-104690814D01*
X186272920Y-104796523D01*
X186481046Y-104912790D01*
X186658184Y-104975377D01*
X186705829Y-104992211D01*
X186940790Y-105032499D01*
X186940798Y-105032499D01*
X186940800Y-105032500D01*
X186940801Y-105032500D01*
X188919502Y-105032500D01*
X189097536Y-105017347D01*
X189097539Y-105017346D01*
X189097541Y-105017346D01*
X189328249Y-104957275D01*
X189501635Y-104878899D01*
X189545480Y-104859080D01*
X189545481Y-104859078D01*
X189545486Y-104859077D01*
X189743003Y-104725579D01*
X189915118Y-104560621D01*
X190056879Y-104368947D01*
X190164207Y-104156074D01*
X190234016Y-103928123D01*
X190264298Y-103691654D01*
X190254180Y-103453468D01*
X190203954Y-103220419D01*
X190115064Y-102999210D01*
X189990069Y-102796205D01*
X189832564Y-102617245D01*
X189647080Y-102467477D01*
X189494874Y-102382449D01*
X189438955Y-102351210D01*
X189214170Y-102271788D01*
X188979209Y-102231500D01*
X188979200Y-102231500D01*
X187000503Y-102231500D01*
X187000498Y-102231500D01*
X186822463Y-102246652D01*
X186591751Y-102306724D01*
X186374519Y-102404919D01*
X186374511Y-102404924D01*
X186177006Y-102538413D01*
X186176997Y-102538421D01*
X186120051Y-102593000D01*
X186115853Y-102597023D01*
X186053833Y-102629199D01*
X186030053Y-102631500D01*
X181855217Y-102631500D01*
X181766137Y-102629243D01*
X181766128Y-102629243D01*
X181713136Y-102638741D01*
X181705754Y-102640064D01*
X181701095Y-102640718D01*
X181640064Y-102646925D01*
X181640062Y-102646926D01*
X181607280Y-102657210D01*
X181599656Y-102659081D01*
X181596797Y-102659594D01*
X181565849Y-102665141D01*
X181508881Y-102687895D01*
X181504445Y-102689474D01*
X181445914Y-102707840D01*
X181445908Y-102707842D01*
X181436919Y-102712832D01*
X181368750Y-102728152D01*
X181325372Y-102715412D01*
X181324827Y-102716684D01*
X181262680Y-102690014D01*
X181258424Y-102687993D01*
X181204057Y-102659594D01*
X181204050Y-102659591D01*
X181204049Y-102659591D01*
X181195728Y-102657210D01*
X181171030Y-102650142D01*
X181163630Y-102647508D01*
X181132057Y-102633959D01*
X181132058Y-102633959D01*
X181071966Y-102621609D01*
X181067391Y-102620486D01*
X181008420Y-102603613D01*
X181008425Y-102603613D01*
X180974158Y-102601003D01*
X180966380Y-102599912D01*
X180932742Y-102593000D01*
X180932741Y-102593000D01*
X180871402Y-102593000D01*
X180866695Y-102592821D01*
X180861121Y-102592396D01*
X180805524Y-102588162D01*
X180785589Y-102590701D01*
X180771440Y-102592503D01*
X180763611Y-102593000D01*
X179977461Y-102593000D01*
X179912366Y-102574539D01*
X179785334Y-102496186D01*
X179618797Y-102441001D01*
X179618795Y-102441000D01*
X179516010Y-102430500D01*
X178115998Y-102430500D01*
X178115981Y-102430501D01*
X178013203Y-102441000D01*
X178013200Y-102441001D01*
X177846668Y-102496185D01*
X177846663Y-102496187D01*
X177778484Y-102538240D01*
X177719633Y-102574539D01*
X177654539Y-102593000D01*
X177496676Y-102593000D01*
X177452155Y-102591872D01*
X177407636Y-102590744D01*
X177407635Y-102590744D01*
X177407626Y-102590744D01*
X177347263Y-102601564D01*
X177342597Y-102602218D01*
X177281564Y-102608425D01*
X177248780Y-102618710D01*
X177241153Y-102620582D01*
X177207349Y-102626641D01*
X177150381Y-102649395D01*
X177145945Y-102650974D01*
X177087414Y-102669340D01*
X177087410Y-102669342D01*
X177057378Y-102686010D01*
X177050284Y-102689379D01*
X177018382Y-102702123D01*
X177018377Y-102702125D01*
X176967156Y-102735881D01*
X176963128Y-102738322D01*
X176909500Y-102768089D01*
X176883433Y-102790465D01*
X176877163Y-102795193D01*
X176855173Y-102809687D01*
X176788365Y-102830144D01*
X176721103Y-102811234D01*
X176699253Y-102793833D01*
X176352451Y-102447031D01*
X176291061Y-102382449D01*
X176291060Y-102382448D01*
X176291059Y-102382447D01*
X176263204Y-102363059D01*
X176240709Y-102347402D01*
X176236946Y-102344564D01*
X176189413Y-102305805D01*
X176189406Y-102305800D01*
X176158959Y-102289897D01*
X176152251Y-102285834D01*
X176124049Y-102266205D01*
X176124046Y-102266203D01*
X176124045Y-102266203D01*
X176124041Y-102266201D01*
X176067680Y-102242014D01*
X176063424Y-102239993D01*
X176023108Y-102218934D01*
X175972800Y-102170448D01*
X175956692Y-102102461D01*
X175979898Y-102036558D01*
X176027471Y-101998405D01*
X176027087Y-101997712D01*
X176031144Y-101995459D01*
X176031633Y-101995068D01*
X176032574Y-101994663D01*
X176032588Y-101994659D01*
X176062627Y-101977984D01*
X176069708Y-101974622D01*
X176101617Y-101961877D01*
X176152854Y-101928108D01*
X176156851Y-101925687D01*
X176210502Y-101895909D01*
X176236568Y-101873530D01*
X176242843Y-101868800D01*
X176248928Y-101864790D01*
X176271519Y-101849902D01*
X176314892Y-101806527D01*
X176318350Y-101803323D01*
X176321613Y-101800520D01*
X176364895Y-101763366D01*
X176385928Y-101736191D01*
X176391098Y-101730321D01*
X176700701Y-101420718D01*
X176762022Y-101387235D01*
X176831714Y-101392219D01*
X176859214Y-101406624D01*
X176870787Y-101414678D01*
X176878139Y-101419796D01*
X176879292Y-101420598D01*
X176883030Y-101423416D01*
X176930592Y-101462197D01*
X176930596Y-101462199D01*
X176930597Y-101462200D01*
X176961039Y-101478101D01*
X176967753Y-101482168D01*
X176982182Y-101492211D01*
X176995947Y-101501792D01*
X176995953Y-101501796D01*
X177052331Y-101525990D01*
X177056569Y-101528002D01*
X177110951Y-101556409D01*
X177143973Y-101565856D01*
X177151365Y-101568489D01*
X177177732Y-101579804D01*
X177182942Y-101582040D01*
X177243049Y-101594391D01*
X177247595Y-101595506D01*
X177306582Y-101612386D01*
X177340829Y-101614993D01*
X177348600Y-101616082D01*
X177382259Y-101623000D01*
X177443611Y-101623000D01*
X177448317Y-101623178D01*
X177509476Y-101627836D01*
X177537716Y-101624239D01*
X177543549Y-101623497D01*
X177551389Y-101623000D01*
X177654539Y-101623000D01*
X177719633Y-101641460D01*
X177846666Y-101719814D01*
X178013203Y-101774999D01*
X178115991Y-101785500D01*
X179516008Y-101785499D01*
X179618797Y-101774999D01*
X179785334Y-101719814D01*
X179912366Y-101641460D01*
X179977461Y-101623000D01*
X180818284Y-101623000D01*
X180907358Y-101625257D01*
X180907358Y-101625256D01*
X180907363Y-101625257D01*
X180967753Y-101614432D01*
X180972412Y-101613780D01*
X181014607Y-101609488D01*
X181033438Y-101607574D01*
X181066227Y-101597286D01*
X181073840Y-101595418D01*
X181107653Y-101589358D01*
X181164621Y-101566601D01*
X181169053Y-101565024D01*
X181227588Y-101546659D01*
X181257627Y-101529984D01*
X181264708Y-101526622D01*
X181296617Y-101513877D01*
X181347854Y-101480108D01*
X181351851Y-101477687D01*
X181405502Y-101447909D01*
X181431568Y-101425530D01*
X181437843Y-101420800D01*
X181466519Y-101401902D01*
X181509885Y-101358534D01*
X181513343Y-101355330D01*
X181541971Y-101330752D01*
X181559895Y-101315366D01*
X181580928Y-101288191D01*
X181586106Y-101282313D01*
X181646603Y-101221817D01*
X181707926Y-101188333D01*
X181734283Y-101185499D01*
X181881002Y-101185499D01*
X181881008Y-101185499D01*
X181983797Y-101174999D01*
X182150334Y-101119814D01*
X182155768Y-101116461D01*
X182220866Y-101098000D01*
X185988475Y-101098000D01*
X186055514Y-101117685D01*
X186081557Y-101140075D01*
X186087436Y-101146755D01*
X186272920Y-101296523D01*
X186481046Y-101412790D01*
X186620887Y-101462199D01*
X186705829Y-101492211D01*
X186940790Y-101532499D01*
X186940798Y-101532499D01*
X186940800Y-101532500D01*
X186940801Y-101532500D01*
X188919502Y-101532500D01*
X189097536Y-101517347D01*
X189097539Y-101517346D01*
X189097541Y-101517346D01*
X189328249Y-101457275D01*
X189481154Y-101388157D01*
X189545480Y-101359080D01*
X189545481Y-101359078D01*
X189545486Y-101359077D01*
X189743003Y-101225579D01*
X189915118Y-101060621D01*
X190056879Y-100868947D01*
X190164207Y-100656074D01*
X190234016Y-100428123D01*
X190264298Y-100191654D01*
X190264144Y-100188039D01*
X190257237Y-100025434D01*
X190254180Y-99953468D01*
X190203954Y-99720419D01*
X190115064Y-99499210D01*
X189990069Y-99296205D01*
X189832564Y-99117245D01*
X189647080Y-98967477D01*
X189511608Y-98891797D01*
X189438955Y-98851210D01*
X189214170Y-98771788D01*
X188979209Y-98731500D01*
X188979200Y-98731500D01*
X187000503Y-98731500D01*
X187000498Y-98731500D01*
X186822463Y-98746652D01*
X186591751Y-98806724D01*
X186374519Y-98904919D01*
X186374511Y-98904924D01*
X186176998Y-99038419D01*
X186151849Y-99062523D01*
X186089829Y-99094698D01*
X186066049Y-99097000D01*
X182454023Y-99097000D01*
X182386984Y-99077315D01*
X182341229Y-99024511D01*
X182331285Y-98955353D01*
X182360310Y-98891797D01*
X182366342Y-98885319D01*
X182423315Y-98828345D01*
X182515356Y-98679124D01*
X182515358Y-98679119D01*
X182570505Y-98512697D01*
X182570506Y-98512690D01*
X182580999Y-98409986D01*
X182581000Y-98409973D01*
X182581000Y-98272500D01*
X181230000Y-98272500D01*
X181162961Y-98252815D01*
X181117206Y-98200011D01*
X181106000Y-98148500D01*
X181106000Y-96935000D01*
X181606000Y-96935000D01*
X181606000Y-97772500D01*
X182580999Y-97772500D01*
X182580999Y-97635028D01*
X182580998Y-97635013D01*
X182570505Y-97532302D01*
X182515358Y-97365880D01*
X182515356Y-97365875D01*
X182423315Y-97216654D01*
X182299345Y-97092684D01*
X182150124Y-97000643D01*
X182150119Y-97000641D01*
X181983697Y-96945494D01*
X181983690Y-96945493D01*
X181880986Y-96935000D01*
X181606000Y-96935000D01*
X181106000Y-96935000D01*
X180831029Y-96935000D01*
X180831012Y-96935001D01*
X180728302Y-96945494D01*
X180561880Y-97000641D01*
X180561875Y-97000643D01*
X180406509Y-97096475D01*
X180405711Y-97095181D01*
X180348631Y-97118200D01*
X180279991Y-97105150D01*
X180229303Y-97057062D01*
X180213176Y-97007392D01*
X180205506Y-96932303D01*
X180150358Y-96765880D01*
X180150356Y-96765875D01*
X180058315Y-96616654D01*
X179934345Y-96492684D01*
X179785124Y-96400643D01*
X179785119Y-96400641D01*
X179618697Y-96345494D01*
X179618690Y-96345493D01*
X179515986Y-96335000D01*
X179066000Y-96335000D01*
X179066000Y-98659999D01*
X179515972Y-98659999D01*
X179515986Y-98659998D01*
X179618697Y-98649505D01*
X179785119Y-98594358D01*
X179785124Y-98594356D01*
X179934344Y-98502316D01*
X179945197Y-98491463D01*
X180006519Y-98457976D01*
X180076211Y-98462958D01*
X180132146Y-98504827D01*
X180150587Y-98540137D01*
X180196641Y-98679119D01*
X180196643Y-98679124D01*
X180288684Y-98828345D01*
X180412655Y-98952316D01*
X180412659Y-98952319D01*
X180415656Y-98954168D01*
X180417279Y-98955972D01*
X180418323Y-98956798D01*
X180418181Y-98956976D01*
X180462381Y-99006116D01*
X180473602Y-99075079D01*
X180445759Y-99139161D01*
X180415661Y-99165241D01*
X180412349Y-99167283D01*
X180412343Y-99167288D01*
X180288289Y-99291342D01*
X180196187Y-99440663D01*
X180196185Y-99440668D01*
X180185534Y-99472811D01*
X180168179Y-99525187D01*
X180164263Y-99537004D01*
X180124490Y-99594449D01*
X180059974Y-99621272D01*
X180046557Y-99622000D01*
X179977461Y-99622000D01*
X179912366Y-99603539D01*
X179785334Y-99525186D01*
X179618797Y-99470001D01*
X179618795Y-99470000D01*
X179516010Y-99459500D01*
X178115998Y-99459500D01*
X178115981Y-99459501D01*
X178013203Y-99470000D01*
X178013199Y-99470001D01*
X177892332Y-99510053D01*
X177822503Y-99512455D01*
X177762461Y-99476723D01*
X177735622Y-99431351D01*
X177731688Y-99419478D01*
X177694908Y-99308484D01*
X177604340Y-99161650D01*
X177590017Y-99147327D01*
X177556532Y-99086004D01*
X177561516Y-99016312D01*
X177590021Y-98971960D01*
X177603947Y-98958035D01*
X177694448Y-98811311D01*
X177694454Y-98811298D01*
X177735305Y-98688017D01*
X177775077Y-98630572D01*
X177839593Y-98603748D01*
X177892015Y-98609314D01*
X178013302Y-98649505D01*
X178013309Y-98649506D01*
X178116019Y-98659999D01*
X178565999Y-98659999D01*
X178566000Y-98659998D01*
X178566000Y-96335000D01*
X178116028Y-96335000D01*
X178116012Y-96335001D01*
X178013302Y-96345494D01*
X177846880Y-96400641D01*
X177846875Y-96400643D01*
X177697654Y-96492684D01*
X177573684Y-96616654D01*
X177481643Y-96765875D01*
X177481641Y-96765880D01*
X177426494Y-96932302D01*
X177426493Y-96932309D01*
X177416000Y-97035013D01*
X177416000Y-97079567D01*
X177396315Y-97146606D01*
X177343511Y-97192361D01*
X177274353Y-97202305D01*
X177252997Y-97197273D01*
X177171653Y-97170319D01*
X177070654Y-97160000D01*
X177034000Y-97160000D01*
X177034000Y-98323500D01*
X177014315Y-98390539D01*
X176961511Y-98436294D01*
X176910000Y-98447500D01*
X175809001Y-98447500D01*
X175809001Y-98546654D01*
X175819319Y-98647652D01*
X175873546Y-98811300D01*
X175873551Y-98811311D01*
X175964052Y-98958034D01*
X175964055Y-98958038D01*
X175977982Y-98971965D01*
X176011467Y-99033288D01*
X176006483Y-99102980D01*
X175977984Y-99147325D01*
X175963661Y-99161648D01*
X175873093Y-99308481D01*
X175873092Y-99308484D01*
X175827819Y-99445107D01*
X175797794Y-99493783D01*
X175345396Y-99946181D01*
X175284073Y-99979666D01*
X175257715Y-99982500D01*
X174226998Y-99982500D01*
X174226980Y-99982501D01*
X174124203Y-99993000D01*
X174124200Y-99993001D01*
X173957668Y-100048185D01*
X173957661Y-100048188D01*
X173952232Y-100051538D01*
X173887134Y-100070000D01*
X173721296Y-100070000D01*
X173654257Y-100050315D01*
X173608502Y-99997511D01*
X173603590Y-99985004D01*
X173579611Y-99912640D01*
X173546814Y-99813666D01*
X173454712Y-99664344D01*
X173330656Y-99540288D01*
X173181334Y-99448186D01*
X173014797Y-99393001D01*
X173014795Y-99393000D01*
X172912010Y-99382500D01*
X171511998Y-99382500D01*
X171511981Y-99382501D01*
X171409203Y-99393000D01*
X171409200Y-99393001D01*
X171242668Y-99448185D01*
X171242663Y-99448187D01*
X171093342Y-99540289D01*
X170969289Y-99664342D01*
X170877187Y-99813663D01*
X170877185Y-99813668D01*
X170866122Y-99847054D01*
X170822001Y-99980203D01*
X170822001Y-99980204D01*
X170822000Y-99980204D01*
X170811500Y-100082983D01*
X170811500Y-100121000D01*
X170791815Y-100188039D01*
X170739011Y-100233794D01*
X170687500Y-100245000D01*
X170669768Y-100245000D01*
X170630764Y-100238706D01*
X170567753Y-100217826D01*
X170567751Y-100217825D01*
X170466678Y-100207500D01*
X169893330Y-100207500D01*
X169893312Y-100207501D01*
X169792247Y-100217825D01*
X169746384Y-100233023D01*
X169729234Y-100238706D01*
X169690232Y-100245000D01*
X169400500Y-100245000D01*
X169333461Y-100225315D01*
X169287706Y-100172511D01*
X169276500Y-100121000D01*
X169276499Y-97947500D01*
X175809000Y-97947500D01*
X176534000Y-97947500D01*
X176534000Y-97160000D01*
X176497361Y-97160000D01*
X176497343Y-97160001D01*
X176396347Y-97170319D01*
X176232699Y-97224546D01*
X176232688Y-97224551D01*
X176085965Y-97315052D01*
X176085961Y-97315055D01*
X175964055Y-97436961D01*
X175964052Y-97436965D01*
X175873551Y-97583688D01*
X175873546Y-97583699D01*
X175819319Y-97747347D01*
X175809000Y-97848345D01*
X175809000Y-97947500D01*
X169276499Y-97947500D01*
X169276499Y-95940129D01*
X169276498Y-95940123D01*
X169276497Y-95940116D01*
X169270091Y-95880517D01*
X169255027Y-95840129D01*
X169219797Y-95745671D01*
X169219793Y-95745664D01*
X169133547Y-95630455D01*
X169133544Y-95630452D01*
X169018335Y-95544206D01*
X169018328Y-95544202D01*
X168883482Y-95493908D01*
X168883483Y-95493908D01*
X168823883Y-95487501D01*
X168823881Y-95487500D01*
X168823873Y-95487500D01*
X168823864Y-95487500D01*
X163398129Y-95487500D01*
X163398123Y-95487501D01*
X163338516Y-95493908D01*
X163203671Y-95544202D01*
X163203664Y-95544206D01*
X163088455Y-95630452D01*
X163088452Y-95630455D01*
X163002206Y-95745664D01*
X163002202Y-95745671D01*
X162951908Y-95880517D01*
X162945501Y-95940116D01*
X162945501Y-95940123D01*
X162945500Y-95940135D01*
X162945500Y-101625870D01*
X162945501Y-101625876D01*
X162951908Y-101685483D01*
X163002202Y-101820328D01*
X163002206Y-101820335D01*
X163088452Y-101935544D01*
X163088455Y-101935547D01*
X163203664Y-102021793D01*
X163203671Y-102021797D01*
X163257349Y-102041818D01*
X163313283Y-102083689D01*
X163337700Y-102149154D01*
X163322848Y-102217427D01*
X163273443Y-102266832D01*
X163257349Y-102274182D01*
X163203671Y-102294202D01*
X163203664Y-102294206D01*
X163088455Y-102380452D01*
X163088452Y-102380455D01*
X163002206Y-102495664D01*
X163002202Y-102495671D01*
X162951908Y-102630517D01*
X162945740Y-102687895D01*
X162945501Y-102690123D01*
X162945500Y-102690135D01*
X162945500Y-108375870D01*
X159126500Y-108375870D01*
X159126499Y-102690128D01*
X159120091Y-102630517D01*
X159119599Y-102629199D01*
X159069797Y-102495671D01*
X159069793Y-102495664D01*
X158983547Y-102380455D01*
X158983544Y-102380452D01*
X158868335Y-102294206D01*
X158868328Y-102294202D01*
X158814650Y-102274182D01*
X158758716Y-102232311D01*
X158734299Y-102166847D01*
X158749150Y-102098574D01*
X158798555Y-102049168D01*
X158814650Y-102041818D01*
X158868328Y-102021797D01*
X158868327Y-102021797D01*
X158868331Y-102021796D01*
X158983546Y-101935546D01*
X159069796Y-101820331D01*
X159120091Y-101685483D01*
X159126500Y-101625873D01*
X159126499Y-95940128D01*
X159120091Y-95880517D01*
X159105027Y-95840129D01*
X159069797Y-95745671D01*
X159069793Y-95745664D01*
X158983547Y-95630455D01*
X158983544Y-95630452D01*
X158868335Y-95544206D01*
X158868328Y-95544202D01*
X158733482Y-95493908D01*
X158733483Y-95493908D01*
X158673883Y-95487501D01*
X158673881Y-95487500D01*
X158673873Y-95487500D01*
X158673864Y-95487500D01*
X153248129Y-95487500D01*
X153248123Y-95487501D01*
X153188516Y-95493908D01*
X153053671Y-95544202D01*
X153053664Y-95544206D01*
X152938455Y-95630452D01*
X152938452Y-95630455D01*
X152852206Y-95745664D01*
X152852202Y-95745671D01*
X152801908Y-95880517D01*
X152795501Y-95940116D01*
X152795500Y-95940127D01*
X152795500Y-97947500D01*
X152795501Y-99946000D01*
X152775816Y-100013039D01*
X152723012Y-100058794D01*
X152671501Y-100070000D01*
X147676866Y-100070000D01*
X147611768Y-100051538D01*
X147606338Y-100048188D01*
X147606335Y-100048186D01*
X147606334Y-100048186D01*
X147439797Y-99993001D01*
X147439795Y-99993000D01*
X147337010Y-99982500D01*
X146286998Y-99982500D01*
X146286980Y-99982501D01*
X146184203Y-99993000D01*
X146184200Y-99993001D01*
X146017668Y-100048185D01*
X146017661Y-100048188D01*
X146012232Y-100051538D01*
X145947134Y-100070000D01*
X144765296Y-100070000D01*
X144698257Y-100050315D01*
X144652502Y-99997511D01*
X144647590Y-99985004D01*
X144623611Y-99912640D01*
X144590814Y-99813666D01*
X144498712Y-99664344D01*
X144374656Y-99540288D01*
X144225334Y-99448186D01*
X144058797Y-99393001D01*
X144058795Y-99393000D01*
X143956010Y-99382500D01*
X142555998Y-99382500D01*
X142555981Y-99382501D01*
X142453203Y-99393000D01*
X142453200Y-99393001D01*
X142286668Y-99448185D01*
X142286663Y-99448187D01*
X142137342Y-99540289D01*
X142013289Y-99664342D01*
X141921187Y-99813663D01*
X141921185Y-99813668D01*
X141910122Y-99847054D01*
X141866001Y-99980203D01*
X141866001Y-99980204D01*
X141866000Y-99980204D01*
X141855500Y-100082983D01*
X141855500Y-100121000D01*
X141835815Y-100188039D01*
X141783011Y-100233794D01*
X141731500Y-100245000D01*
X141205768Y-100245000D01*
X141166764Y-100238706D01*
X141103753Y-100217826D01*
X141103751Y-100217825D01*
X141002678Y-100207500D01*
X140429330Y-100207500D01*
X140429312Y-100207501D01*
X140328247Y-100217825D01*
X140282384Y-100233023D01*
X140265234Y-100238706D01*
X140226232Y-100245000D01*
X139936500Y-100245000D01*
X139869461Y-100225315D01*
X139823706Y-100172511D01*
X139812500Y-100121000D01*
X139812499Y-95840129D01*
X139812498Y-95840123D01*
X139812497Y-95840116D01*
X139806091Y-95780517D01*
X139793094Y-95745671D01*
X139755797Y-95645671D01*
X139755793Y-95645664D01*
X139669547Y-95530455D01*
X139669544Y-95530452D01*
X139554335Y-95444206D01*
X139554328Y-95444202D01*
X139419482Y-95393908D01*
X139419483Y-95393908D01*
X139359883Y-95387501D01*
X139359881Y-95387500D01*
X139359873Y-95387500D01*
X139359864Y-95387500D01*
X133934129Y-95387500D01*
X133934123Y-95387501D01*
X133874516Y-95393908D01*
X133739671Y-95444202D01*
X133739664Y-95444206D01*
X133624455Y-95530452D01*
X133624452Y-95530455D01*
X133538206Y-95645664D01*
X133538202Y-95645671D01*
X133487908Y-95780517D01*
X133481501Y-95840116D01*
X133481501Y-95840123D01*
X133481500Y-95840135D01*
X133481500Y-101525870D01*
X133481501Y-101525876D01*
X133487908Y-101585483D01*
X133538202Y-101720328D01*
X133538206Y-101720335D01*
X133624452Y-101835544D01*
X133624455Y-101835547D01*
X133739664Y-101921793D01*
X133739671Y-101921797D01*
X133874517Y-101972091D01*
X133874516Y-101972091D01*
X133881444Y-101972835D01*
X133934127Y-101978500D01*
X138473507Y-101978499D01*
X138540546Y-101998184D01*
X138554273Y-102008409D01*
X138559209Y-102012646D01*
X138557881Y-102014192D01*
X138595735Y-102061281D01*
X138603122Y-102130760D01*
X138571772Y-102193202D01*
X138568799Y-102196279D01*
X138563897Y-102201181D01*
X138502574Y-102234666D01*
X138476216Y-102237500D01*
X133934129Y-102237500D01*
X133934123Y-102237501D01*
X133874516Y-102243908D01*
X133739671Y-102294202D01*
X133739664Y-102294206D01*
X133624455Y-102380452D01*
X133624452Y-102380455D01*
X133538206Y-102495664D01*
X133538202Y-102495671D01*
X133487908Y-102630517D01*
X133481740Y-102687895D01*
X133481501Y-102690123D01*
X133481500Y-102690135D01*
X133481500Y-108375870D01*
X129662500Y-108375870D01*
X129662499Y-102690128D01*
X129656091Y-102630517D01*
X129655599Y-102629199D01*
X129605797Y-102495671D01*
X129605793Y-102495664D01*
X129519547Y-102380455D01*
X129519544Y-102380452D01*
X129404335Y-102294206D01*
X129404328Y-102294202D01*
X129269482Y-102243908D01*
X129269483Y-102243908D01*
X129209883Y-102237501D01*
X129209881Y-102237500D01*
X129209873Y-102237500D01*
X129209865Y-102237500D01*
X124562584Y-102237500D01*
X124505168Y-102223406D01*
X124496602Y-102218931D01*
X124446296Y-102170442D01*
X124430192Y-102102454D01*
X124453402Y-102036552D01*
X124500968Y-101998407D01*
X124500584Y-101997714D01*
X124504643Y-101995460D01*
X124505133Y-101995068D01*
X124506074Y-101994663D01*
X124506088Y-101994659D01*
X124507124Y-101994083D01*
X124507889Y-101993885D01*
X124511884Y-101992172D01*
X124512146Y-101992783D01*
X124567308Y-101978499D01*
X129209871Y-101978499D01*
X129209872Y-101978499D01*
X129269483Y-101972091D01*
X129404331Y-101921796D01*
X129519546Y-101835546D01*
X129605796Y-101720331D01*
X129656091Y-101585483D01*
X129662500Y-101525873D01*
X129662499Y-95840128D01*
X129656091Y-95780517D01*
X129643094Y-95745671D01*
X129605797Y-95645671D01*
X129605793Y-95645664D01*
X129519547Y-95530455D01*
X129519544Y-95530452D01*
X129404335Y-95444206D01*
X129404328Y-95444202D01*
X129269482Y-95393908D01*
X129269483Y-95393908D01*
X129209883Y-95387501D01*
X129209881Y-95387500D01*
X129209873Y-95387500D01*
X129209864Y-95387500D01*
X123784129Y-95387500D01*
X123784123Y-95387501D01*
X123724516Y-95393908D01*
X123589671Y-95444202D01*
X123589664Y-95444206D01*
X123474455Y-95530452D01*
X123474452Y-95530455D01*
X123388206Y-95645664D01*
X123388202Y-95645671D01*
X123337908Y-95780517D01*
X123331501Y-95840116D01*
X123331501Y-95840123D01*
X123331500Y-95840135D01*
X123331500Y-99912640D01*
X123311815Y-99979679D01*
X123259011Y-100025434D01*
X123189853Y-100035378D01*
X123168497Y-100030346D01*
X123055797Y-99993001D01*
X123055795Y-99993000D01*
X122953010Y-99982500D01*
X121902998Y-99982500D01*
X121902980Y-99982501D01*
X121800203Y-99993000D01*
X121800200Y-99993001D01*
X121633668Y-100048185D01*
X121633661Y-100048188D01*
X121628232Y-100051538D01*
X121563134Y-100070000D01*
X121397296Y-100070000D01*
X121330257Y-100050315D01*
X121284502Y-99997511D01*
X121279590Y-99985004D01*
X121255611Y-99912640D01*
X121222814Y-99813666D01*
X121130712Y-99664344D01*
X121006656Y-99540288D01*
X120857334Y-99448186D01*
X120690797Y-99393001D01*
X120690795Y-99393000D01*
X120588010Y-99382500D01*
X119187998Y-99382500D01*
X119187981Y-99382501D01*
X119085203Y-99393000D01*
X119085200Y-99393001D01*
X118918668Y-99448185D01*
X118918663Y-99448187D01*
X118769342Y-99540289D01*
X118645289Y-99664342D01*
X118553187Y-99813663D01*
X118553185Y-99813668D01*
X118542122Y-99847054D01*
X118498001Y-99980203D01*
X118498001Y-99980204D01*
X118498000Y-99980204D01*
X118487500Y-100082983D01*
X118487500Y-100274500D01*
X118467815Y-100341539D01*
X118415011Y-100387294D01*
X118363500Y-100398500D01*
X118345768Y-100398500D01*
X118306763Y-100392205D01*
X118270889Y-100380317D01*
X118222213Y-100350293D01*
X117154818Y-99282898D01*
X117121333Y-99221575D01*
X117118499Y-99195217D01*
X117118499Y-96404129D01*
X117118498Y-96404123D01*
X117118497Y-96404116D01*
X117112091Y-96344517D01*
X117108541Y-96335000D01*
X117061797Y-96209671D01*
X117061793Y-96209664D01*
X116975547Y-96094455D01*
X116975544Y-96094452D01*
X116860335Y-96008206D01*
X116860328Y-96008202D01*
X116725482Y-95957908D01*
X116725483Y-95957908D01*
X116665883Y-95951501D01*
X116665881Y-95951500D01*
X116665873Y-95951500D01*
X116665864Y-95951500D01*
X115070129Y-95951500D01*
X115070123Y-95951501D01*
X115010516Y-95957908D01*
X114875671Y-96008202D01*
X114875664Y-96008206D01*
X114760455Y-96094452D01*
X114760452Y-96094455D01*
X114674206Y-96209664D01*
X114674202Y-96209671D01*
X114623908Y-96344517D01*
X114617501Y-96404116D01*
X114617501Y-96404123D01*
X114617500Y-96404135D01*
X114617500Y-100699870D01*
X114617501Y-100699876D01*
X114623908Y-100759483D01*
X114674202Y-100894328D01*
X114674206Y-100894335D01*
X114760452Y-101009544D01*
X114760455Y-101009547D01*
X114875664Y-101095793D01*
X114875671Y-101095797D01*
X115010517Y-101146091D01*
X115010516Y-101146091D01*
X115016693Y-101146755D01*
X115070127Y-101152500D01*
X116143216Y-101152499D01*
X116210255Y-101172183D01*
X116230897Y-101188818D01*
X116869794Y-101827715D01*
X116899819Y-101876392D01*
X116945091Y-102013013D01*
X116945093Y-102013018D01*
X116967391Y-102049168D01*
X117026500Y-102145000D01*
X117035661Y-102159851D01*
X117049629Y-102173819D01*
X117083114Y-102235142D01*
X117078130Y-102304834D01*
X117049629Y-102349181D01*
X117035661Y-102363148D01*
X116945093Y-102509981D01*
X116945092Y-102509984D01*
X116899819Y-102646608D01*
X116869794Y-102695284D01*
X116537897Y-103027181D01*
X116476574Y-103060666D01*
X116450216Y-103063500D01*
X115070129Y-103063500D01*
X115070123Y-103063501D01*
X115010516Y-103069908D01*
X114875671Y-103120202D01*
X114875664Y-103120206D01*
X114760455Y-103206452D01*
X114760452Y-103206455D01*
X114674206Y-103321664D01*
X114674202Y-103321671D01*
X114623908Y-103456517D01*
X114617501Y-103516116D01*
X114617501Y-103516123D01*
X114617500Y-103516135D01*
X114617500Y-107811870D01*
X113518500Y-107811870D01*
X113518499Y-103516128D01*
X113512091Y-103456517D01*
X113510953Y-103453467D01*
X113461797Y-103321671D01*
X113461793Y-103321664D01*
X113375547Y-103206455D01*
X113375544Y-103206452D01*
X113260335Y-103120206D01*
X113260328Y-103120202D01*
X113125482Y-103069908D01*
X113125483Y-103069908D01*
X113065883Y-103063501D01*
X113065881Y-103063500D01*
X113065873Y-103063500D01*
X113065864Y-103063500D01*
X111470129Y-103063500D01*
X111470123Y-103063501D01*
X111410515Y-103069909D01*
X111271683Y-103121689D01*
X111201992Y-103126673D01*
X111140669Y-103093187D01*
X111110645Y-103044511D01*
X111062814Y-102900166D01*
X110970712Y-102750844D01*
X110846656Y-102626788D01*
X110753888Y-102569569D01*
X110697336Y-102534687D01*
X110697331Y-102534685D01*
X110622788Y-102509984D01*
X110530797Y-102479501D01*
X110530795Y-102479500D01*
X110428010Y-102469000D01*
X109027998Y-102469000D01*
X109027981Y-102469001D01*
X108925203Y-102479500D01*
X108925200Y-102479501D01*
X108758668Y-102534685D01*
X108758663Y-102534687D01*
X108609342Y-102626789D01*
X108485289Y-102750842D01*
X108393187Y-102900163D01*
X108393185Y-102900168D01*
X108360600Y-102998504D01*
X108320827Y-103055949D01*
X108256311Y-103082772D01*
X108242894Y-103083500D01*
X106582030Y-103083500D01*
X106514991Y-103063815D01*
X106504131Y-103055976D01*
X106335081Y-102919478D01*
X106335080Y-102919477D01*
X106243222Y-102868161D01*
X106126955Y-102803210D01*
X105902170Y-102723788D01*
X105667209Y-102683500D01*
X105667200Y-102683500D01*
X103688503Y-102683500D01*
X103688498Y-102683500D01*
X103510463Y-102698652D01*
X103279751Y-102758724D01*
X103062519Y-102856919D01*
X103062511Y-102856924D01*
X102865006Y-102990413D01*
X102864997Y-102990421D01*
X102692881Y-103155379D01*
X102551123Y-103347050D01*
X102551120Y-103347054D01*
X102443796Y-103559920D01*
X102443793Y-103559926D01*
X102373983Y-103787878D01*
X102343702Y-104024346D01*
X99568000Y-104024346D01*
X99568000Y-100524346D01*
X102343702Y-100524346D01*
X102353819Y-100762528D01*
X102353819Y-100762532D01*
X102404045Y-100995580D01*
X102480362Y-101185499D01*
X102492936Y-101216790D01*
X102617931Y-101419795D01*
X102642676Y-101447911D01*
X102772010Y-101594863D01*
X102775436Y-101598755D01*
X102960920Y-101748523D01*
X103169046Y-101864790D01*
X103341373Y-101925677D01*
X103393829Y-101944211D01*
X103628790Y-101984499D01*
X103628798Y-101984499D01*
X103628800Y-101984500D01*
X103628801Y-101984500D01*
X105607502Y-101984500D01*
X105785536Y-101969347D01*
X105785539Y-101969346D01*
X105785541Y-101969346D01*
X106016249Y-101909275D01*
X106196679Y-101827715D01*
X106233480Y-101811080D01*
X106233481Y-101811078D01*
X106233486Y-101811077D01*
X106431003Y-101677579D01*
X106492147Y-101618976D01*
X106554167Y-101586801D01*
X106577947Y-101584500D01*
X108691376Y-101584500D01*
X108751926Y-101601671D01*
X108752118Y-101601260D01*
X108754666Y-101602448D01*
X108756470Y-101602959D01*
X108758666Y-101604314D01*
X108925203Y-101659499D01*
X109027991Y-101670000D01*
X110428008Y-101669999D01*
X110530797Y-101659499D01*
X110697334Y-101604314D01*
X110846656Y-101512212D01*
X110970712Y-101388156D01*
X111062814Y-101238834D01*
X111086639Y-101166932D01*
X111116661Y-101118258D01*
X111121714Y-101113205D01*
X111183035Y-101079722D01*
X111252727Y-101084706D01*
X111268824Y-101092058D01*
X111275671Y-101095797D01*
X111410517Y-101146091D01*
X111410516Y-101146091D01*
X111416693Y-101146755D01*
X111470127Y-101152500D01*
X113065872Y-101152499D01*
X113125483Y-101146091D01*
X113260331Y-101095796D01*
X113375546Y-101009546D01*
X113461796Y-100894331D01*
X113512091Y-100759483D01*
X113518500Y-100699873D01*
X113518499Y-96404128D01*
X113512091Y-96344517D01*
X113508541Y-96335000D01*
X113461797Y-96209671D01*
X113461793Y-96209664D01*
X113375547Y-96094455D01*
X113375544Y-96094452D01*
X113260335Y-96008206D01*
X113260328Y-96008202D01*
X113125482Y-95957908D01*
X113125483Y-95957908D01*
X113065883Y-95951501D01*
X113065881Y-95951500D01*
X113065873Y-95951500D01*
X113065864Y-95951500D01*
X111470129Y-95951500D01*
X111470123Y-95951501D01*
X111410516Y-95957908D01*
X111275671Y-96008202D01*
X111275664Y-96008206D01*
X111160455Y-96094452D01*
X111160452Y-96094455D01*
X111074206Y-96209664D01*
X111074202Y-96209671D01*
X111023908Y-96344517D01*
X111017501Y-96404116D01*
X111017501Y-96404123D01*
X111017500Y-96404135D01*
X111017500Y-98336217D01*
X110997815Y-98403256D01*
X110981181Y-98423898D01*
X110097397Y-99307681D01*
X110036074Y-99341166D01*
X110009716Y-99344000D01*
X109027998Y-99344000D01*
X109027980Y-99344001D01*
X108925203Y-99354500D01*
X108925200Y-99354501D01*
X108758668Y-99409685D01*
X108758663Y-99409687D01*
X108609342Y-99501789D01*
X108563951Y-99547181D01*
X108502628Y-99580666D01*
X108476270Y-99583500D01*
X106582030Y-99583500D01*
X106514991Y-99563815D01*
X106504131Y-99555976D01*
X106384649Y-99459501D01*
X106335080Y-99419477D01*
X106223097Y-99356919D01*
X106126955Y-99303210D01*
X105902170Y-99223788D01*
X105667209Y-99183500D01*
X105667200Y-99183500D01*
X103688503Y-99183500D01*
X103688498Y-99183500D01*
X103510463Y-99198652D01*
X103279751Y-99258724D01*
X103062519Y-99356919D01*
X103062511Y-99356924D01*
X102865006Y-99490413D01*
X102864997Y-99490421D01*
X102692881Y-99655379D01*
X102551123Y-99847050D01*
X102551120Y-99847054D01*
X102443796Y-100059920D01*
X102443793Y-100059926D01*
X102373983Y-100287878D01*
X102343702Y-100524346D01*
X99568000Y-100524346D01*
X99568000Y-73784000D01*
X99587685Y-73716961D01*
X99640489Y-73671206D01*
X99692000Y-73660000D01*
X127794104Y-73660000D01*
X127861143Y-73679685D01*
G37*
%TD.AperFunction*%
%TD*%
M02*
