M48
; DRILL file {KiCad 7.0.9} date 2024年02月01日 星期四 15时21分59秒
; FORMAT={-:-/ absolute / inch / decimal}
; #@! TF.CreationDate,2024-02-01T15:21:59-05:00
; #@! TF.GenerationSoftware,Kicad,Pcbnew,7.0.9
; #@! TF.FileFunction,MixedPlating,1,2
FMAT,2
INCH
; #@! TA.AperFunction,Plated,PTH,ViaDrill
T1C0.0157
; #@! TA.AperFunction,Plated,PTH,ComponentDrill
T2C0.0472
%
G90
G05
T1
X4.02Y-3.9
X4.02Y-3.94
X4.02Y-3.98
X4.02Y-4.02
X4.02Y-4.06
X4.02Y-4.1
X4.02Y-4.14
X4.06Y-3.88
X4.06Y-4.02
X4.06Y-4.18
X4.1Y-3.88
X4.1Y-4.02
X4.1Y-4.18
X4.14Y-3.88
X4.14Y-4.02
X4.14Y-4.18
X4.18Y-3.88
X4.18Y-4.02
X4.18Y-4.18
X4.22Y-3.9
X4.22Y-4.04
X4.22Y-4.16
X4.26Y-3.9
X4.26Y-4.04
X4.26Y-4.16
X4.3Y-3.88
X4.3Y-4.02
X4.3Y-4.16
X4.34Y-3.78
X4.34Y-3.84
X4.34Y-3.88
X4.34Y-4.02
X4.34Y-4.16
X4.36Y-4.2
X4.36Y-4.24
X4.38Y-3.76
X4.38Y-4.02
X4.38Y-4.28
X4.42Y-3.76
X4.42Y-4.02
X4.42Y-4.28
X4.46Y-3.76
X4.46Y-4.02
X4.46Y-4.28
X4.5Y-3.76
X4.5Y-3.8
X4.5Y-3.84
X4.5Y-3.88
X4.5Y-3.92
X4.5Y-3.96
X4.5Y-4.02
X4.5Y-4.28
X4.54Y-3.76
X4.54Y-4.02
X4.54Y-4.28
X4.58Y-3.76
X4.58Y-4.02
X4.58Y-4.28
X4.62Y-3.76
X4.62Y-4.16
X4.62Y-4.2
X4.62Y-4.24
X4.62Y-4.28
X4.64Y-3.8
X4.64Y-3.84
X4.64Y-3.88
X4.66Y-3.92
X4.66Y-4.12
X4.7Y-3.9
X4.7Y-4.14
X4.72Y-4.02
X4.74Y-3.9
X4.74Y-4.14
X4.78Y-3.9
X4.78Y-4.14
X4.82Y-3.92
X4.82Y-4.12
X4.84Y-3.76
X4.84Y-3.8
X4.84Y-3.84
X4.84Y-3.88
X4.84Y-4.16
X4.84Y-4.2
X4.84Y-4.24
X4.84Y-4.28
X4.88Y-3.74
X4.88Y-4.3
X4.92Y-3.74
X4.92Y-4.02
X4.92Y-4.3
X4.96Y-3.74
X4.96Y-4.02
X4.96Y-4.3
X5.0Y-3.74
X5.0Y-4.02
X5.0Y-4.3
X5.04Y-3.74
X5.04Y-4.02
X5.04Y-4.3
X5.08Y-3.74
X5.08Y-4.02
X5.08Y-4.3
X5.12Y-3.76
X5.12Y-3.8
X5.12Y-3.84
X5.12Y-3.88
X5.12Y-3.92
X5.12Y-3.96
X5.12Y-4.02
X5.12Y-4.08
X5.12Y-4.12
X5.12Y-4.16
X5.12Y-4.2
X5.12Y-4.24
X5.12Y-4.28
X5.16Y-3.98
X5.16Y-4.02
X5.16Y-4.06
X5.2Y-4.02
X5.24Y-3.74
X5.24Y-3.78
X5.24Y-3.82
X5.24Y-3.86
X5.24Y-3.9
X5.24Y-3.94
X5.24Y-3.98
X5.24Y-4.02
X5.24Y-4.06
X5.24Y-4.1
X5.24Y-4.14
X5.24Y-4.18
X5.24Y-4.22
X5.24Y-4.26
X5.24Y-4.3
X5.28Y-3.74
X5.28Y-4.02
X5.28Y-4.3
X5.32Y-3.74
X5.32Y-4.02
X5.32Y-4.3
X5.36Y-3.74
X5.36Y-4.02
X5.36Y-4.3
X5.4Y-3.74
X5.4Y-4.02
X5.4Y-4.3
X5.44Y-3.74
X5.44Y-4.02
X5.44Y-4.3
X5.48Y-3.74
X5.48Y-4.3
X5.52Y-3.74
X5.52Y-3.78
X5.52Y-3.82
X5.52Y-3.86
X5.52Y-3.9
X5.52Y-3.94
X5.52Y-4.1
X5.52Y-4.14
X5.52Y-4.18
X5.52Y-4.22
X5.52Y-4.26
X5.52Y-4.3
X5.56Y-3.74
X5.56Y-3.94
X5.56Y-4.1
X5.56Y-4.3
X5.58Y-3.9
X5.58Y-4.14
X5.62Y-3.9
X5.62Y-4.14
X5.64Y-4.02
X5.66Y-3.9
X5.66Y-4.14
X5.7Y-3.9
X5.7Y-4.14
X5.74Y-3.92
X5.74Y-4.12
X5.78Y-3.92
X5.78Y-4.12
X5.82Y-3.92
X5.82Y-4.12
X5.86Y-3.92
X5.86Y-4.12
X5.9Y-3.92
X5.9Y-4.12
X5.94Y-3.92
X5.94Y-4.12
X5.98Y-3.92
X5.98Y-4.12
X6.0Y-3.72
X6.0Y-3.76
X6.0Y-3.8
X6.0Y-3.84
X6.0Y-3.88
X6.0Y-4.16
X6.0Y-4.2
X6.0Y-4.24
X6.0Y-4.28
X6.0Y-4.32
X6.04Y-3.74
X6.04Y-4.3
X6.08Y-3.74
X6.08Y-4.3
X6.12Y-3.74
X6.12Y-4.3
X6.16Y-3.74
X6.16Y-4.3
X6.2Y-3.74
X6.2Y-4.3
X6.24Y-3.74
X6.24Y-4.3
X6.28Y-3.76
X6.28Y-3.8
X6.28Y-3.84
X6.28Y-3.88
X6.28Y-3.92
X6.28Y-3.96
X6.28Y-4.02
X6.28Y-4.08
X6.28Y-4.12
X6.28Y-4.16
X6.28Y-4.2
X6.28Y-4.24
X6.28Y-4.28
X6.34Y-4.02
X6.4Y-3.74
X6.4Y-3.78
X6.4Y-3.82
X6.4Y-3.86
X6.4Y-3.9
X6.4Y-3.94
X6.4Y-3.98
X6.4Y-4.02
X6.4Y-4.06
X6.4Y-4.1
X6.4Y-4.14
X6.4Y-4.18
X6.4Y-4.22
X6.4Y-4.26
X6.4Y-4.3
X6.44Y-3.74
X6.44Y-4.3
X6.48Y-3.74
X6.48Y-4.3
X6.52Y-3.74
X6.52Y-4.3
X6.56Y-3.74
X6.56Y-4.3
X6.6Y-3.74
X6.6Y-4.3
X6.64Y-3.74
X6.64Y-4.3
X6.68Y-3.74
X6.68Y-3.78
X6.68Y-3.82
X6.68Y-3.86
X6.68Y-3.9
X6.68Y-3.94
X6.68Y-4.1
X6.68Y-4.14
X6.68Y-4.18
X6.68Y-4.22
X6.68Y-4.26
X6.68Y-4.3
X6.72Y-3.92
X6.72Y-4.1
X6.74Y-4.14
X6.76Y-3.9
X6.78Y-4.02
X6.78Y-4.14
X6.8Y-3.9
X6.82Y-4.14
X6.84Y-3.9
X6.86Y-4.14
X6.88Y-3.92
X6.9Y-4.12
X6.92Y-3.88
X6.92Y-4.18
X6.94Y-4.02
X6.98Y-4.02
X7.02Y-4.02
X7.06Y-4.02
X7.1Y-4.02
X7.14Y-4.02
X7.18Y-4.02
X7.22Y-4.02
X7.26Y-4.02
T2
X4.12Y-3.96
X4.12Y-4.0978
X4.12Y-4.2356
X7.4Y-3.9422
X7.4Y-4.08
X7.4Y-4.2178
T0
M30
