%TF.GenerationSoftware,KiCad,Pcbnew,(6.0.4)*%
%TF.CreationDate,2022-04-05T19:22:05-04:00*%
%TF.ProjectId,paladin_adaptor_2022,70616c61-6469-46e5-9f61-646170746f72,rev?*%
%TF.SameCoordinates,Original*%
%TF.FileFunction,Copper,L1,Top*%
%TF.FilePolarity,Positive*%
%FSLAX46Y46*%
G04 Gerber Fmt 4.6, Leading zero omitted, Abs format (unit mm)*
G04 Created by KiCad (PCBNEW (6.0.4)) date 2022-04-05 19:22:05*
%MOMM*%
%LPD*%
G01*
G04 APERTURE LIST*
G04 Aperture macros list*
%AMRoundRect*
0 Rectangle with rounded corners*
0 $1 Rounding radius*
0 $2 $3 $4 $5 $6 $7 $8 $9 X,Y pos of 4 corners*
0 Add a 4 corners polygon primitive as box body*
4,1,4,$2,$3,$4,$5,$6,$7,$8,$9,$2,$3,0*
0 Add four circle primitives for the rounded corners*
1,1,$1+$1,$2,$3*
1,1,$1+$1,$4,$5*
1,1,$1+$1,$6,$7*
1,1,$1+$1,$8,$9*
0 Add four rect primitives between the rounded corners*
20,1,$1+$1,$2,$3,$4,$5,0*
20,1,$1+$1,$4,$5,$6,$7,0*
20,1,$1+$1,$6,$7,$8,$9,0*
20,1,$1+$1,$8,$9,$2,$3,0*%
G04 Aperture macros list end*
%TA.AperFunction,NonConductor*%
%ADD10C,0.200000*%
%TD*%
%TA.AperFunction,Profile*%
%ADD11C,0.100000*%
%TD*%
%TA.AperFunction,ComponentPad*%
%ADD12RoundRect,0.250000X-0.600000X-0.600000X0.600000X-0.600000X0.600000X0.600000X-0.600000X0.600000X0*%
%TD*%
%TA.AperFunction,ComponentPad*%
%ADD13C,1.700000*%
%TD*%
%TA.AperFunction,ComponentPad*%
%ADD14RoundRect,0.250000X0.600000X0.600000X-0.600000X0.600000X-0.600000X-0.600000X0.600000X-0.600000X0*%
%TD*%
G04 APERTURE END LIST*
D10*
X104267000Y-99822000D02*
X104267000Y-101346000D01*
X105029000Y-100584000D02*
X104267000Y-99822000D01*
X98933000Y-100584000D02*
X105029000Y-100584000D01*
X104267000Y-101346000D02*
X105029000Y-100584000D01*
X121285000Y-99822000D02*
X121285000Y-101346000D01*
X122047000Y-100584000D02*
X121285000Y-99822000D01*
X115951000Y-100584000D02*
X122047000Y-100584000D01*
X121285000Y-101346000D02*
X122047000Y-100584000D01*
X104267000Y-51054000D02*
X104267000Y-52578000D01*
X105029000Y-51816000D02*
X104267000Y-51054000D01*
X98933000Y-51816000D02*
X105029000Y-51816000D01*
X104267000Y-52578000D02*
X105029000Y-51816000D01*
X121285000Y-52578000D02*
X122047000Y-51816000D01*
X121285000Y-51054000D02*
X121285000Y-52578000D01*
X122047000Y-51816000D02*
X121285000Y-51054000D01*
X115951000Y-51816000D02*
X122047000Y-51816000D01*
D11*
X96520000Y-101600000D02*
X96520000Y-50800000D01*
X124460000Y-101600000D02*
X96520000Y-101600000D01*
X124460000Y-50800000D02*
X124460000Y-101600000D01*
X96520000Y-50800000D02*
X124460000Y-50800000D01*
D12*
%TO.P,J1,1*%
%TO.N,P1*%
X107950000Y-52070000D03*
D13*
%TO.P,J1,2*%
%TO.N,P2*%
X107950000Y-54610000D03*
%TO.P,J1,3*%
%TO.N,P3*%
X107950000Y-57150000D03*
%TO.P,J1,4*%
%TO.N,P4*%
X107950000Y-59690000D03*
%TO.P,J1,5*%
%TO.N,P5*%
X107950000Y-62230000D03*
%TO.P,J1,6*%
%TO.N,P6*%
X107950000Y-64770000D03*
%TO.P,J1,7*%
%TO.N,P7*%
X107950000Y-67310000D03*
%TO.P,J1,8*%
%TO.N,P8*%
X107950000Y-69850000D03*
%TO.P,J1,9*%
%TO.N,P9*%
X107950000Y-72390000D03*
%TO.P,J1,10*%
%TO.N,P10*%
X107950000Y-74930000D03*
%TO.P,J1,11*%
%TO.N,P11*%
X107950000Y-77470000D03*
%TO.P,J1,12*%
%TO.N,P12*%
X107950000Y-80010000D03*
%TO.P,J1,13*%
%TO.N,P13*%
X107950000Y-82550000D03*
%TO.P,J1,14*%
%TO.N,P14*%
X107950000Y-85090000D03*
%TO.P,J1,15*%
%TO.N,P15*%
X107950000Y-87630000D03*
%TO.P,J1,16*%
%TO.N,P16*%
X107950000Y-90170000D03*
%TO.P,J1,17*%
%TO.N,P17*%
X107950000Y-92710000D03*
%TO.P,J1,18*%
%TO.N,P18*%
X107950000Y-95250000D03*
%TO.P,J1,19*%
%TO.N,P19*%
X107950000Y-97790000D03*
%TO.P,J1,20*%
%TO.N,P20*%
X107950000Y-100330000D03*
%TO.P,J1,21*%
%TO.N,P21*%
X110490000Y-52070000D03*
%TO.P,J1,22*%
%TO.N,P22*%
X110490000Y-54610000D03*
%TO.P,J1,23*%
%TO.N,P23*%
X110490000Y-57150000D03*
%TO.P,J1,24*%
%TO.N,P24*%
X110490000Y-59690000D03*
%TO.P,J1,25*%
%TO.N,P25*%
X110490000Y-62230000D03*
%TO.P,J1,26*%
%TO.N,P26*%
X110490000Y-64770000D03*
%TO.P,J1,27*%
%TO.N,P27*%
X110490000Y-67310000D03*
%TO.P,J1,28*%
%TO.N,P28*%
X110490000Y-69850000D03*
%TO.P,J1,29*%
%TO.N,P29*%
X110490000Y-72390000D03*
%TO.P,J1,30*%
%TO.N,P30*%
X110490000Y-74930000D03*
%TO.P,J1,31*%
%TO.N,P31*%
X110490000Y-77470000D03*
%TO.P,J1,32*%
%TO.N,P32*%
X110490000Y-80010000D03*
%TO.P,J1,33*%
%TO.N,P33*%
X110490000Y-82550000D03*
%TO.P,J1,34*%
%TO.N,P34*%
X110490000Y-85090000D03*
%TO.P,J1,35*%
%TO.N,P35*%
X110490000Y-87630000D03*
%TO.P,J1,36*%
%TO.N,P36*%
X110490000Y-90170000D03*
%TO.P,J1,37*%
%TO.N,P37*%
X110490000Y-92710000D03*
%TO.P,J1,38*%
%TO.N,P38*%
X110490000Y-95250000D03*
%TO.P,J1,39*%
%TO.N,P39*%
X110490000Y-97790000D03*
%TO.P,J1,40*%
%TO.N,P40*%
X110490000Y-100330000D03*
%TO.P,J1,41*%
%TO.N,P41*%
X113030000Y-52070000D03*
%TO.P,J1,42*%
%TO.N,P42*%
X113030000Y-54610000D03*
%TO.P,J1,43*%
%TO.N,P43*%
X113030000Y-57150000D03*
%TO.P,J1,44*%
%TO.N,P44*%
X113030000Y-59690000D03*
%TO.P,J1,45*%
%TO.N,P45*%
X113030000Y-62230000D03*
%TO.P,J1,46*%
%TO.N,P46*%
X113030000Y-64770000D03*
%TO.P,J1,47*%
%TO.N,P47*%
X113030000Y-67310000D03*
%TO.P,J1,48*%
%TO.N,P48*%
X113030000Y-69850000D03*
%TO.P,J1,49*%
%TO.N,P49*%
X113030000Y-72390000D03*
%TO.P,J1,50*%
%TO.N,P50*%
X113030000Y-74930000D03*
%TO.P,J1,51*%
%TO.N,P51*%
X113030000Y-77470000D03*
%TO.P,J1,52*%
%TO.N,P52*%
X113030000Y-80010000D03*
%TO.P,J1,53*%
%TO.N,P53*%
X113030000Y-82550000D03*
%TO.P,J1,54*%
%TO.N,P54*%
X113030000Y-85090000D03*
%TO.P,J1,55*%
%TO.N,P55*%
X113030000Y-87630000D03*
%TO.P,J1,56*%
%TO.N,P56*%
X113030000Y-90170000D03*
%TO.P,J1,57*%
%TO.N,P57*%
X113030000Y-92710000D03*
%TO.P,J1,58*%
%TO.N,P58*%
X113030000Y-95250000D03*
%TO.P,J1,59*%
%TO.N,P59*%
X113030000Y-97790000D03*
%TO.P,J1,60*%
%TO.N,P60*%
X113030000Y-100330000D03*
%TD*%
D14*
%TO.P,J3,1,Pin_1*%
%TO.N,P41*%
X120650000Y-58420000D03*
D13*
%TO.P,J3,2,Pin_2*%
%TO.N,P22*%
X118110000Y-58420000D03*
%TO.P,J3,3,Pin_3*%
%TO.N,P42*%
X120650000Y-60960000D03*
%TO.P,J3,4,Pin_4*%
%TO.N,P24*%
X118110000Y-60960000D03*
%TO.P,J3,5,Pin_5*%
%TO.N,P43*%
X120650000Y-63500000D03*
%TO.P,J3,6,Pin_6*%
%TO.N,P44*%
X118110000Y-63500000D03*
%TO.P,J3,7,Pin_7*%
%TO.N,P45*%
X120650000Y-66040000D03*
%TO.P,J3,8,Pin_8*%
%TO.N,P26*%
X118110000Y-66040000D03*
%TO.P,J3,9,Pin_9*%
%TO.N,P46*%
X120650000Y-68580000D03*
%TO.P,J3,10,Pin_10*%
%TO.N,P28*%
X118110000Y-68580000D03*
%TO.P,J3,11,Pin_11*%
%TO.N,P47*%
X120650000Y-71120000D03*
%TO.P,J3,12,Pin_12*%
%TO.N,P48*%
X118110000Y-71120000D03*
%TO.P,J3,13,Pin_13*%
%TO.N,P49*%
X120650000Y-73660000D03*
%TO.P,J3,14,Pin_14*%
%TO.N,P30*%
X118110000Y-73660000D03*
%TO.P,J3,15,Pin_15*%
%TO.N,P50*%
X120650000Y-76200000D03*
%TO.P,J3,16,Pin_16*%
%TO.N,P51*%
X118110000Y-76200000D03*
%TO.P,J3,17,Pin_17*%
%TO.N,P31*%
X120650000Y-78740000D03*
%TO.P,J3,18,Pin_18*%
%TO.N,P52*%
X118110000Y-78740000D03*
%TO.P,J3,19,Pin_19*%
%TO.N,P53*%
X120650000Y-81280000D03*
%TO.P,J3,20,Pin_20*%
%TO.N,P54*%
X118110000Y-81280000D03*
%TO.P,J3,21,Pin_21*%
%TO.N,P33*%
X120650000Y-83820000D03*
%TO.P,J3,22,Pin_22*%
%TO.N,P55*%
X118110000Y-83820000D03*
%TO.P,J3,23,Pin_23*%
%TO.N,P35*%
X120650000Y-86360000D03*
%TO.P,J3,24,Pin_24*%
%TO.N,P56*%
X118110000Y-86360000D03*
%TO.P,J3,25,Pin_25*%
%TO.N,P57*%
X120650000Y-88900000D03*
%TO.P,J3,26,Pin_26*%
%TO.N,P58*%
X118110000Y-88900000D03*
%TO.P,J3,27,Pin_27*%
%TO.N,P37*%
X120650000Y-91440000D03*
%TO.P,J3,28,Pin_28*%
%TO.N,P59*%
X118110000Y-91440000D03*
%TO.P,J3,29,Pin_29*%
%TO.N,P39*%
X120650000Y-93980000D03*
%TO.P,J3,30,Pin_30*%
%TO.N,P60*%
X118110000Y-93980000D03*
%TD*%
D14*
%TO.P,J2,1,Pin_1*%
%TO.N,P1*%
X102870000Y-58420000D03*
D13*
%TO.P,J2,2,Pin_2*%
%TO.N,P21*%
X100330000Y-58420000D03*
%TO.P,J2,3,Pin_3*%
%TO.N,P2*%
X102870000Y-60960000D03*
%TO.P,J2,4,Pin_4*%
%TO.N,P23*%
X100330000Y-60960000D03*
%TO.P,J2,5,Pin_5*%
%TO.N,P3*%
X102870000Y-63500000D03*
%TO.P,J2,6,Pin_6*%
%TO.N,P4*%
X100330000Y-63500000D03*
%TO.P,J2,7,Pin_7*%
%TO.N,P5*%
X102870000Y-66040000D03*
%TO.P,J2,8,Pin_8*%
%TO.N,P25*%
X100330000Y-66040000D03*
%TO.P,J2,9,Pin_9*%
%TO.N,P6*%
X102870000Y-68580000D03*
%TO.P,J2,10,Pin_10*%
%TO.N,P27*%
X100330000Y-68580000D03*
%TO.P,J2,11,Pin_11*%
%TO.N,P7*%
X102870000Y-71120000D03*
%TO.P,J2,12,Pin_12*%
%TO.N,P8*%
X100330000Y-71120000D03*
%TO.P,J2,13,Pin_13*%
%TO.N,P9*%
X102870000Y-73660000D03*
%TO.P,J2,14,Pin_14*%
%TO.N,P29*%
X100330000Y-73660000D03*
%TO.P,J2,15,Pin_15*%
%TO.N,P10*%
X102870000Y-76200000D03*
%TO.P,J2,16,Pin_16*%
%TO.N,P11*%
X100330000Y-76200000D03*
%TO.P,J2,17,Pin_17*%
%TO.N,P32*%
X102870000Y-78740000D03*
%TO.P,J2,18,Pin_18*%
%TO.N,P12*%
X100330000Y-78740000D03*
%TO.P,J2,19,Pin_19*%
%TO.N,P13*%
X102870000Y-81280000D03*
%TO.P,J2,20,Pin_20*%
%TO.N,P14*%
X100330000Y-81280000D03*
%TO.P,J2,21,Pin_21*%
%TO.N,P34*%
X102870000Y-83820000D03*
%TO.P,J2,22,Pin_22*%
%TO.N,P15*%
X100330000Y-83820000D03*
%TO.P,J2,23,Pin_23*%
%TO.N,P36*%
X102870000Y-86360000D03*
%TO.P,J2,24,Pin_24*%
%TO.N,P16*%
X100330000Y-86360000D03*
%TO.P,J2,25,Pin_25*%
%TO.N,P17*%
X102870000Y-88900000D03*
%TO.P,J2,26,Pin_26*%
%TO.N,P18*%
X100330000Y-88900000D03*
%TO.P,J2,27,Pin_27*%
%TO.N,P38*%
X102870000Y-91440000D03*
%TO.P,J2,28,Pin_28*%
%TO.N,P19*%
X100330000Y-91440000D03*
%TO.P,J2,29,Pin_29*%
%TO.N,P40*%
X102870000Y-93980000D03*
%TO.P,J2,30,Pin_30*%
%TO.N,P20*%
X100330000Y-93980000D03*
%TD*%
%TA.AperFunction,NonConductor*%
G36*
X109429918Y-52928564D02*
G01*
X109456194Y-52951520D01*
X109529784Y-53036474D01*
X109536250Y-53043938D01*
X109708126Y-53186632D01*
X109778595Y-53227811D01*
X109781445Y-53229476D01*
X109830169Y-53281114D01*
X109843240Y-53350897D01*
X109816509Y-53416669D01*
X109776055Y-53450027D01*
X109763607Y-53456507D01*
X109759474Y-53459610D01*
X109759471Y-53459612D01*
X109589100Y-53587530D01*
X109584965Y-53590635D01*
X109430629Y-53752138D01*
X109323201Y-53909621D01*
X109268293Y-53954621D01*
X109197768Y-53962792D01*
X109134021Y-53931538D01*
X109113324Y-53907054D01*
X109032822Y-53782617D01*
X109032820Y-53782614D01*
X109030014Y-53778277D01*
X108879670Y-53613051D01*
X108837006Y-53579357D01*
X108795944Y-53521441D01*
X108792712Y-53450518D01*
X108828337Y-53389107D01*
X108861647Y-53366376D01*
X108867007Y-53363865D01*
X108873946Y-53361550D01*
X109024348Y-53268478D01*
X109149305Y-53143303D01*
X109242115Y-52992738D01*
X109244418Y-52985795D01*
X109246763Y-52980766D01*
X109293680Y-52927481D01*
X109361958Y-52908021D01*
X109429918Y-52928564D01*
G37*
%TD.AperFunction*%
%TA.AperFunction,NonConductor*%
G36*
X111842026Y-52745144D02*
G01*
X111869875Y-52776994D01*
X111929987Y-52875088D01*
X112076250Y-53043938D01*
X112248126Y-53186632D01*
X112318595Y-53227811D01*
X112321445Y-53229476D01*
X112370169Y-53281114D01*
X112383240Y-53350897D01*
X112356509Y-53416669D01*
X112316055Y-53450027D01*
X112303607Y-53456507D01*
X112299474Y-53459610D01*
X112299471Y-53459612D01*
X112129100Y-53587530D01*
X112124965Y-53590635D01*
X111970629Y-53752138D01*
X111863201Y-53909621D01*
X111808293Y-53954621D01*
X111737768Y-53962792D01*
X111674021Y-53931538D01*
X111653324Y-53907054D01*
X111572822Y-53782617D01*
X111572820Y-53782614D01*
X111570014Y-53778277D01*
X111419670Y-53613051D01*
X111415616Y-53609849D01*
X111415615Y-53609848D01*
X111248414Y-53477800D01*
X111248410Y-53477798D01*
X111244359Y-53474598D01*
X111203053Y-53451796D01*
X111153084Y-53401364D01*
X111138312Y-53331921D01*
X111163428Y-53265516D01*
X111190780Y-53238909D01*
X111258404Y-53190673D01*
X111369860Y-53111173D01*
X111376559Y-53104498D01*
X111475966Y-53005437D01*
X111528096Y-52953489D01*
X111582881Y-52877248D01*
X111658453Y-52772077D01*
X111659776Y-52773028D01*
X111706645Y-52729857D01*
X111776580Y-52717625D01*
X111842026Y-52745144D01*
G37*
%TD.AperFunction*%
%TA.AperFunction,NonConductor*%
G36*
X111842026Y-55285144D02*
G01*
X111869875Y-55316994D01*
X111929987Y-55415088D01*
X112076250Y-55583938D01*
X112248126Y-55726632D01*
X112318595Y-55767811D01*
X112321445Y-55769476D01*
X112370169Y-55821114D01*
X112383240Y-55890897D01*
X112356509Y-55956669D01*
X112316055Y-55990027D01*
X112303607Y-55996507D01*
X112299474Y-55999610D01*
X112299471Y-55999612D01*
X112275247Y-56017800D01*
X112124965Y-56130635D01*
X111970629Y-56292138D01*
X111863201Y-56449621D01*
X111808293Y-56494621D01*
X111737768Y-56502792D01*
X111674021Y-56471538D01*
X111653324Y-56447054D01*
X111572822Y-56322617D01*
X111572820Y-56322614D01*
X111570014Y-56318277D01*
X111419670Y-56153051D01*
X111415619Y-56149852D01*
X111415615Y-56149848D01*
X111248414Y-56017800D01*
X111248410Y-56017798D01*
X111244359Y-56014598D01*
X111203053Y-55991796D01*
X111153084Y-55941364D01*
X111138312Y-55871921D01*
X111163428Y-55805516D01*
X111190780Y-55778909D01*
X111234603Y-55747650D01*
X111369860Y-55651173D01*
X111528096Y-55493489D01*
X111587594Y-55410689D01*
X111658453Y-55312077D01*
X111659776Y-55313028D01*
X111706645Y-55269857D01*
X111776580Y-55257625D01*
X111842026Y-55285144D01*
G37*
%TD.AperFunction*%
%TA.AperFunction,NonConductor*%
G36*
X109302026Y-55285144D02*
G01*
X109329875Y-55316994D01*
X109389987Y-55415088D01*
X109536250Y-55583938D01*
X109708126Y-55726632D01*
X109778595Y-55767811D01*
X109781445Y-55769476D01*
X109830169Y-55821114D01*
X109843240Y-55890897D01*
X109816509Y-55956669D01*
X109776055Y-55990027D01*
X109763607Y-55996507D01*
X109759474Y-55999610D01*
X109759471Y-55999612D01*
X109735247Y-56017800D01*
X109584965Y-56130635D01*
X109430629Y-56292138D01*
X109323201Y-56449621D01*
X109268293Y-56494621D01*
X109197768Y-56502792D01*
X109134021Y-56471538D01*
X109113324Y-56447054D01*
X109032822Y-56322617D01*
X109032820Y-56322614D01*
X109030014Y-56318277D01*
X108879670Y-56153051D01*
X108875619Y-56149852D01*
X108875615Y-56149848D01*
X108708414Y-56017800D01*
X108708410Y-56017798D01*
X108704359Y-56014598D01*
X108663053Y-55991796D01*
X108613084Y-55941364D01*
X108598312Y-55871921D01*
X108623428Y-55805516D01*
X108650780Y-55778909D01*
X108694603Y-55747650D01*
X108829860Y-55651173D01*
X108988096Y-55493489D01*
X109047594Y-55410689D01*
X109118453Y-55312077D01*
X109119776Y-55313028D01*
X109166645Y-55269857D01*
X109236580Y-55257625D01*
X109302026Y-55285144D01*
G37*
%TD.AperFunction*%
%TA.AperFunction,NonConductor*%
G36*
X111842026Y-57825144D02*
G01*
X111869875Y-57856994D01*
X111929987Y-57955088D01*
X112076250Y-58123938D01*
X112248126Y-58266632D01*
X112318595Y-58307811D01*
X112321445Y-58309476D01*
X112370169Y-58361114D01*
X112383240Y-58430897D01*
X112356509Y-58496669D01*
X112316055Y-58530027D01*
X112303607Y-58536507D01*
X112299474Y-58539610D01*
X112299471Y-58539612D01*
X112199374Y-58614767D01*
X112124965Y-58670635D01*
X112121393Y-58674373D01*
X111979748Y-58822596D01*
X111970629Y-58832138D01*
X111863201Y-58989621D01*
X111808293Y-59034621D01*
X111737768Y-59042792D01*
X111674021Y-59011538D01*
X111653324Y-58987054D01*
X111572822Y-58862617D01*
X111572820Y-58862614D01*
X111570014Y-58858277D01*
X111419670Y-58693051D01*
X111415619Y-58689852D01*
X111415615Y-58689848D01*
X111248414Y-58557800D01*
X111248410Y-58557798D01*
X111244359Y-58554598D01*
X111203053Y-58531796D01*
X111153084Y-58481364D01*
X111138312Y-58411921D01*
X111163428Y-58345516D01*
X111190780Y-58318909D01*
X111234603Y-58287650D01*
X111369860Y-58191173D01*
X111528096Y-58033489D01*
X111587594Y-57950689D01*
X111658453Y-57852077D01*
X111659776Y-57853028D01*
X111706645Y-57809857D01*
X111776580Y-57797625D01*
X111842026Y-57825144D01*
G37*
%TD.AperFunction*%
%TA.AperFunction,NonConductor*%
G36*
X109302026Y-57825144D02*
G01*
X109329875Y-57856994D01*
X109389987Y-57955088D01*
X109536250Y-58123938D01*
X109708126Y-58266632D01*
X109778595Y-58307811D01*
X109781445Y-58309476D01*
X109830169Y-58361114D01*
X109843240Y-58430897D01*
X109816509Y-58496669D01*
X109776055Y-58530027D01*
X109763607Y-58536507D01*
X109759474Y-58539610D01*
X109759471Y-58539612D01*
X109659374Y-58614767D01*
X109584965Y-58670635D01*
X109581393Y-58674373D01*
X109439748Y-58822596D01*
X109430629Y-58832138D01*
X109323201Y-58989621D01*
X109268293Y-59034621D01*
X109197768Y-59042792D01*
X109134021Y-59011538D01*
X109113324Y-58987054D01*
X109032822Y-58862617D01*
X109032820Y-58862614D01*
X109030014Y-58858277D01*
X108879670Y-58693051D01*
X108875619Y-58689852D01*
X108875615Y-58689848D01*
X108708414Y-58557800D01*
X108708410Y-58557798D01*
X108704359Y-58554598D01*
X108663053Y-58531796D01*
X108613084Y-58481364D01*
X108598312Y-58411921D01*
X108623428Y-58345516D01*
X108650780Y-58318909D01*
X108694603Y-58287650D01*
X108829860Y-58191173D01*
X108988096Y-58033489D01*
X109047594Y-57950689D01*
X109118453Y-57852077D01*
X109119776Y-57853028D01*
X109166645Y-57809857D01*
X109236580Y-57797625D01*
X109302026Y-57825144D01*
G37*
%TD.AperFunction*%
%TA.AperFunction,NonConductor*%
G36*
X109302026Y-60365144D02*
G01*
X109329875Y-60396994D01*
X109389987Y-60495088D01*
X109536250Y-60663938D01*
X109708126Y-60806632D01*
X109778595Y-60847811D01*
X109781445Y-60849476D01*
X109830169Y-60901114D01*
X109843240Y-60970897D01*
X109816509Y-61036669D01*
X109776055Y-61070027D01*
X109763607Y-61076507D01*
X109759474Y-61079610D01*
X109759471Y-61079612D01*
X109659374Y-61154767D01*
X109584965Y-61210635D01*
X109581393Y-61214373D01*
X109439748Y-61362596D01*
X109430629Y-61372138D01*
X109323201Y-61529621D01*
X109268293Y-61574621D01*
X109197768Y-61582792D01*
X109134021Y-61551538D01*
X109113324Y-61527054D01*
X109032822Y-61402617D01*
X109032820Y-61402614D01*
X109030014Y-61398277D01*
X108879670Y-61233051D01*
X108875619Y-61229852D01*
X108875615Y-61229848D01*
X108708414Y-61097800D01*
X108708410Y-61097798D01*
X108704359Y-61094598D01*
X108663053Y-61071796D01*
X108613084Y-61021364D01*
X108598312Y-60951921D01*
X108623428Y-60885516D01*
X108650780Y-60858909D01*
X108694603Y-60827650D01*
X108829860Y-60731173D01*
X108988096Y-60573489D01*
X109047594Y-60490689D01*
X109118453Y-60392077D01*
X109119776Y-60393028D01*
X109166645Y-60349857D01*
X109236580Y-60337625D01*
X109302026Y-60365144D01*
G37*
%TD.AperFunction*%
%TA.AperFunction,NonConductor*%
G36*
X111842026Y-60365144D02*
G01*
X111869875Y-60396994D01*
X111929987Y-60495088D01*
X112076250Y-60663938D01*
X112248126Y-60806632D01*
X112318595Y-60847811D01*
X112321445Y-60849476D01*
X112370169Y-60901114D01*
X112383240Y-60970897D01*
X112356509Y-61036669D01*
X112316055Y-61070027D01*
X112303607Y-61076507D01*
X112299474Y-61079610D01*
X112299471Y-61079612D01*
X112199374Y-61154767D01*
X112124965Y-61210635D01*
X112121393Y-61214373D01*
X111979748Y-61362596D01*
X111970629Y-61372138D01*
X111863201Y-61529621D01*
X111808293Y-61574621D01*
X111737768Y-61582792D01*
X111674021Y-61551538D01*
X111653324Y-61527054D01*
X111572822Y-61402617D01*
X111572820Y-61402614D01*
X111570014Y-61398277D01*
X111419670Y-61233051D01*
X111415619Y-61229852D01*
X111415615Y-61229848D01*
X111248414Y-61097800D01*
X111248410Y-61097798D01*
X111244359Y-61094598D01*
X111203053Y-61071796D01*
X111153084Y-61021364D01*
X111138312Y-60951921D01*
X111163428Y-60885516D01*
X111190780Y-60858909D01*
X111234603Y-60827650D01*
X111369860Y-60731173D01*
X111528096Y-60573489D01*
X111587594Y-60490689D01*
X111658453Y-60392077D01*
X111659776Y-60393028D01*
X111706645Y-60349857D01*
X111776580Y-60337625D01*
X111842026Y-60365144D01*
G37*
%TD.AperFunction*%
%TA.AperFunction,NonConductor*%
G36*
X109302026Y-62905144D02*
G01*
X109329875Y-62936994D01*
X109389987Y-63035088D01*
X109536250Y-63203938D01*
X109708126Y-63346632D01*
X109778595Y-63387811D01*
X109781445Y-63389476D01*
X109830169Y-63441114D01*
X109843240Y-63510897D01*
X109816509Y-63576669D01*
X109776055Y-63610027D01*
X109763607Y-63616507D01*
X109759474Y-63619610D01*
X109759471Y-63619612D01*
X109659374Y-63694767D01*
X109584965Y-63750635D01*
X109581393Y-63754373D01*
X109439748Y-63902596D01*
X109430629Y-63912138D01*
X109323201Y-64069621D01*
X109268293Y-64114621D01*
X109197768Y-64122792D01*
X109134021Y-64091538D01*
X109113324Y-64067054D01*
X109032822Y-63942617D01*
X109032820Y-63942614D01*
X109030014Y-63938277D01*
X108879670Y-63773051D01*
X108875619Y-63769852D01*
X108875615Y-63769848D01*
X108708414Y-63637800D01*
X108708410Y-63637798D01*
X108704359Y-63634598D01*
X108663053Y-63611796D01*
X108613084Y-63561364D01*
X108598312Y-63491921D01*
X108623428Y-63425516D01*
X108650780Y-63398909D01*
X108694603Y-63367650D01*
X108829860Y-63271173D01*
X108988096Y-63113489D01*
X109047594Y-63030689D01*
X109118453Y-62932077D01*
X109119776Y-62933028D01*
X109166645Y-62889857D01*
X109236580Y-62877625D01*
X109302026Y-62905144D01*
G37*
%TD.AperFunction*%
%TA.AperFunction,NonConductor*%
G36*
X111842026Y-62905144D02*
G01*
X111869875Y-62936994D01*
X111929987Y-63035088D01*
X112076250Y-63203938D01*
X112248126Y-63346632D01*
X112318595Y-63387811D01*
X112321445Y-63389476D01*
X112370169Y-63441114D01*
X112383240Y-63510897D01*
X112356509Y-63576669D01*
X112316055Y-63610027D01*
X112303607Y-63616507D01*
X112299474Y-63619610D01*
X112299471Y-63619612D01*
X112199374Y-63694767D01*
X112124965Y-63750635D01*
X112121393Y-63754373D01*
X111979748Y-63902596D01*
X111970629Y-63912138D01*
X111863201Y-64069621D01*
X111808293Y-64114621D01*
X111737768Y-64122792D01*
X111674021Y-64091538D01*
X111653324Y-64067054D01*
X111572822Y-63942617D01*
X111572820Y-63942614D01*
X111570014Y-63938277D01*
X111419670Y-63773051D01*
X111415619Y-63769852D01*
X111415615Y-63769848D01*
X111248414Y-63637800D01*
X111248410Y-63637798D01*
X111244359Y-63634598D01*
X111203053Y-63611796D01*
X111153084Y-63561364D01*
X111138312Y-63491921D01*
X111163428Y-63425516D01*
X111190780Y-63398909D01*
X111234603Y-63367650D01*
X111369860Y-63271173D01*
X111528096Y-63113489D01*
X111587594Y-63030689D01*
X111658453Y-62932077D01*
X111659776Y-62933028D01*
X111706645Y-62889857D01*
X111776580Y-62877625D01*
X111842026Y-62905144D01*
G37*
%TD.AperFunction*%
%TA.AperFunction,NonConductor*%
G36*
X109302026Y-65445144D02*
G01*
X109329875Y-65476994D01*
X109389987Y-65575088D01*
X109536250Y-65743938D01*
X109708126Y-65886632D01*
X109778595Y-65927811D01*
X109781445Y-65929476D01*
X109830169Y-65981114D01*
X109843240Y-66050897D01*
X109816509Y-66116669D01*
X109776055Y-66150027D01*
X109763607Y-66156507D01*
X109759474Y-66159610D01*
X109759471Y-66159612D01*
X109659374Y-66234767D01*
X109584965Y-66290635D01*
X109581393Y-66294373D01*
X109439748Y-66442596D01*
X109430629Y-66452138D01*
X109323201Y-66609621D01*
X109268293Y-66654621D01*
X109197768Y-66662792D01*
X109134021Y-66631538D01*
X109113324Y-66607054D01*
X109032822Y-66482617D01*
X109032820Y-66482614D01*
X109030014Y-66478277D01*
X108879670Y-66313051D01*
X108875619Y-66309852D01*
X108875615Y-66309848D01*
X108708414Y-66177800D01*
X108708410Y-66177798D01*
X108704359Y-66174598D01*
X108663053Y-66151796D01*
X108613084Y-66101364D01*
X108598312Y-66031921D01*
X108623428Y-65965516D01*
X108650780Y-65938909D01*
X108694603Y-65907650D01*
X108829860Y-65811173D01*
X108988096Y-65653489D01*
X109047594Y-65570689D01*
X109118453Y-65472077D01*
X109119776Y-65473028D01*
X109166645Y-65429857D01*
X109236580Y-65417625D01*
X109302026Y-65445144D01*
G37*
%TD.AperFunction*%
%TA.AperFunction,NonConductor*%
G36*
X111842026Y-65445144D02*
G01*
X111869875Y-65476994D01*
X111929987Y-65575088D01*
X112076250Y-65743938D01*
X112248126Y-65886632D01*
X112318595Y-65927811D01*
X112321445Y-65929476D01*
X112370169Y-65981114D01*
X112383240Y-66050897D01*
X112356509Y-66116669D01*
X112316055Y-66150027D01*
X112303607Y-66156507D01*
X112299474Y-66159610D01*
X112299471Y-66159612D01*
X112199374Y-66234767D01*
X112124965Y-66290635D01*
X112121393Y-66294373D01*
X111979748Y-66442596D01*
X111970629Y-66452138D01*
X111863201Y-66609621D01*
X111808293Y-66654621D01*
X111737768Y-66662792D01*
X111674021Y-66631538D01*
X111653324Y-66607054D01*
X111572822Y-66482617D01*
X111572820Y-66482614D01*
X111570014Y-66478277D01*
X111419670Y-66313051D01*
X111415619Y-66309852D01*
X111415615Y-66309848D01*
X111248414Y-66177800D01*
X111248410Y-66177798D01*
X111244359Y-66174598D01*
X111203053Y-66151796D01*
X111153084Y-66101364D01*
X111138312Y-66031921D01*
X111163428Y-65965516D01*
X111190780Y-65938909D01*
X111234603Y-65907650D01*
X111369860Y-65811173D01*
X111528096Y-65653489D01*
X111587594Y-65570689D01*
X111658453Y-65472077D01*
X111659776Y-65473028D01*
X111706645Y-65429857D01*
X111776580Y-65417625D01*
X111842026Y-65445144D01*
G37*
%TD.AperFunction*%
%TA.AperFunction,NonConductor*%
G36*
X109302026Y-67985144D02*
G01*
X109329875Y-68016994D01*
X109389987Y-68115088D01*
X109536250Y-68283938D01*
X109708126Y-68426632D01*
X109778595Y-68467811D01*
X109781445Y-68469476D01*
X109830169Y-68521114D01*
X109843240Y-68590897D01*
X109816509Y-68656669D01*
X109776055Y-68690027D01*
X109763607Y-68696507D01*
X109759474Y-68699610D01*
X109759471Y-68699612D01*
X109659374Y-68774767D01*
X109584965Y-68830635D01*
X109581393Y-68834373D01*
X109439748Y-68982596D01*
X109430629Y-68992138D01*
X109323201Y-69149621D01*
X109268293Y-69194621D01*
X109197768Y-69202792D01*
X109134021Y-69171538D01*
X109113324Y-69147054D01*
X109032822Y-69022617D01*
X109032820Y-69022614D01*
X109030014Y-69018277D01*
X108879670Y-68853051D01*
X108875619Y-68849852D01*
X108875615Y-68849848D01*
X108708414Y-68717800D01*
X108708410Y-68717798D01*
X108704359Y-68714598D01*
X108663053Y-68691796D01*
X108613084Y-68641364D01*
X108598312Y-68571921D01*
X108623428Y-68505516D01*
X108650780Y-68478909D01*
X108694603Y-68447650D01*
X108829860Y-68351173D01*
X108988096Y-68193489D01*
X109047594Y-68110689D01*
X109118453Y-68012077D01*
X109119776Y-68013028D01*
X109166645Y-67969857D01*
X109236580Y-67957625D01*
X109302026Y-67985144D01*
G37*
%TD.AperFunction*%
%TA.AperFunction,NonConductor*%
G36*
X111842026Y-67985144D02*
G01*
X111869875Y-68016994D01*
X111929987Y-68115088D01*
X112076250Y-68283938D01*
X112248126Y-68426632D01*
X112318595Y-68467811D01*
X112321445Y-68469476D01*
X112370169Y-68521114D01*
X112383240Y-68590897D01*
X112356509Y-68656669D01*
X112316055Y-68690027D01*
X112303607Y-68696507D01*
X112299474Y-68699610D01*
X112299471Y-68699612D01*
X112199374Y-68774767D01*
X112124965Y-68830635D01*
X112121393Y-68834373D01*
X111979748Y-68982596D01*
X111970629Y-68992138D01*
X111863201Y-69149621D01*
X111808293Y-69194621D01*
X111737768Y-69202792D01*
X111674021Y-69171538D01*
X111653324Y-69147054D01*
X111572822Y-69022617D01*
X111572820Y-69022614D01*
X111570014Y-69018277D01*
X111419670Y-68853051D01*
X111415619Y-68849852D01*
X111415615Y-68849848D01*
X111248414Y-68717800D01*
X111248410Y-68717798D01*
X111244359Y-68714598D01*
X111203053Y-68691796D01*
X111153084Y-68641364D01*
X111138312Y-68571921D01*
X111163428Y-68505516D01*
X111190780Y-68478909D01*
X111234603Y-68447650D01*
X111369860Y-68351173D01*
X111528096Y-68193489D01*
X111587594Y-68110689D01*
X111658453Y-68012077D01*
X111659776Y-68013028D01*
X111706645Y-67969857D01*
X111776580Y-67957625D01*
X111842026Y-67985144D01*
G37*
%TD.AperFunction*%
%TA.AperFunction,NonConductor*%
G36*
X111842026Y-70525144D02*
G01*
X111869875Y-70556994D01*
X111929987Y-70655088D01*
X112076250Y-70823938D01*
X112248126Y-70966632D01*
X112318595Y-71007811D01*
X112321445Y-71009476D01*
X112370169Y-71061114D01*
X112383240Y-71130897D01*
X112356509Y-71196669D01*
X112316055Y-71230027D01*
X112303607Y-71236507D01*
X112299474Y-71239610D01*
X112299471Y-71239612D01*
X112199374Y-71314767D01*
X112124965Y-71370635D01*
X112121393Y-71374373D01*
X111979748Y-71522596D01*
X111970629Y-71532138D01*
X111863201Y-71689621D01*
X111808293Y-71734621D01*
X111737768Y-71742792D01*
X111674021Y-71711538D01*
X111653324Y-71687054D01*
X111572822Y-71562617D01*
X111572820Y-71562614D01*
X111570014Y-71558277D01*
X111419670Y-71393051D01*
X111415619Y-71389852D01*
X111415615Y-71389848D01*
X111248414Y-71257800D01*
X111248410Y-71257798D01*
X111244359Y-71254598D01*
X111203053Y-71231796D01*
X111153084Y-71181364D01*
X111138312Y-71111921D01*
X111163428Y-71045516D01*
X111190780Y-71018909D01*
X111234603Y-70987650D01*
X111369860Y-70891173D01*
X111528096Y-70733489D01*
X111587594Y-70650689D01*
X111658453Y-70552077D01*
X111659776Y-70553028D01*
X111706645Y-70509857D01*
X111776580Y-70497625D01*
X111842026Y-70525144D01*
G37*
%TD.AperFunction*%
%TA.AperFunction,NonConductor*%
G36*
X109302026Y-70525144D02*
G01*
X109329875Y-70556994D01*
X109389987Y-70655088D01*
X109536250Y-70823938D01*
X109708126Y-70966632D01*
X109778595Y-71007811D01*
X109781445Y-71009476D01*
X109830169Y-71061114D01*
X109843240Y-71130897D01*
X109816509Y-71196669D01*
X109776055Y-71230027D01*
X109763607Y-71236507D01*
X109759474Y-71239610D01*
X109759471Y-71239612D01*
X109659374Y-71314767D01*
X109584965Y-71370635D01*
X109581393Y-71374373D01*
X109439748Y-71522596D01*
X109430629Y-71532138D01*
X109323201Y-71689621D01*
X109268293Y-71734621D01*
X109197768Y-71742792D01*
X109134021Y-71711538D01*
X109113324Y-71687054D01*
X109032822Y-71562617D01*
X109032820Y-71562614D01*
X109030014Y-71558277D01*
X108879670Y-71393051D01*
X108875619Y-71389852D01*
X108875615Y-71389848D01*
X108708414Y-71257800D01*
X108708410Y-71257798D01*
X108704359Y-71254598D01*
X108663053Y-71231796D01*
X108613084Y-71181364D01*
X108598312Y-71111921D01*
X108623428Y-71045516D01*
X108650780Y-71018909D01*
X108694603Y-70987650D01*
X108829860Y-70891173D01*
X108988096Y-70733489D01*
X109047594Y-70650689D01*
X109118453Y-70552077D01*
X109119776Y-70553028D01*
X109166645Y-70509857D01*
X109236580Y-70497625D01*
X109302026Y-70525144D01*
G37*
%TD.AperFunction*%
%TA.AperFunction,NonConductor*%
G36*
X109302026Y-73065144D02*
G01*
X109329875Y-73096994D01*
X109389987Y-73195088D01*
X109536250Y-73363938D01*
X109708126Y-73506632D01*
X109778595Y-73547811D01*
X109781445Y-73549476D01*
X109830169Y-73601114D01*
X109843240Y-73670897D01*
X109816509Y-73736669D01*
X109776055Y-73770027D01*
X109763607Y-73776507D01*
X109759474Y-73779610D01*
X109759471Y-73779612D01*
X109659374Y-73854767D01*
X109584965Y-73910635D01*
X109581393Y-73914373D01*
X109439748Y-74062596D01*
X109430629Y-74072138D01*
X109323201Y-74229621D01*
X109268293Y-74274621D01*
X109197768Y-74282792D01*
X109134021Y-74251538D01*
X109113324Y-74227054D01*
X109032822Y-74102617D01*
X109032820Y-74102614D01*
X109030014Y-74098277D01*
X108879670Y-73933051D01*
X108875619Y-73929852D01*
X108875615Y-73929848D01*
X108708414Y-73797800D01*
X108708410Y-73797798D01*
X108704359Y-73794598D01*
X108663053Y-73771796D01*
X108613084Y-73721364D01*
X108598312Y-73651921D01*
X108623428Y-73585516D01*
X108650780Y-73558909D01*
X108694603Y-73527650D01*
X108829860Y-73431173D01*
X108988096Y-73273489D01*
X109047594Y-73190689D01*
X109118453Y-73092077D01*
X109119776Y-73093028D01*
X109166645Y-73049857D01*
X109236580Y-73037625D01*
X109302026Y-73065144D01*
G37*
%TD.AperFunction*%
%TA.AperFunction,NonConductor*%
G36*
X111842026Y-73065144D02*
G01*
X111869875Y-73096994D01*
X111929987Y-73195088D01*
X112076250Y-73363938D01*
X112248126Y-73506632D01*
X112318595Y-73547811D01*
X112321445Y-73549476D01*
X112370169Y-73601114D01*
X112383240Y-73670897D01*
X112356509Y-73736669D01*
X112316055Y-73770027D01*
X112303607Y-73776507D01*
X112299474Y-73779610D01*
X112299471Y-73779612D01*
X112199374Y-73854767D01*
X112124965Y-73910635D01*
X112121393Y-73914373D01*
X111979748Y-74062596D01*
X111970629Y-74072138D01*
X111863201Y-74229621D01*
X111808293Y-74274621D01*
X111737768Y-74282792D01*
X111674021Y-74251538D01*
X111653324Y-74227054D01*
X111572822Y-74102617D01*
X111572820Y-74102614D01*
X111570014Y-74098277D01*
X111419670Y-73933051D01*
X111415619Y-73929852D01*
X111415615Y-73929848D01*
X111248414Y-73797800D01*
X111248410Y-73797798D01*
X111244359Y-73794598D01*
X111203053Y-73771796D01*
X111153084Y-73721364D01*
X111138312Y-73651921D01*
X111163428Y-73585516D01*
X111190780Y-73558909D01*
X111234603Y-73527650D01*
X111369860Y-73431173D01*
X111528096Y-73273489D01*
X111587594Y-73190689D01*
X111658453Y-73092077D01*
X111659776Y-73093028D01*
X111706645Y-73049857D01*
X111776580Y-73037625D01*
X111842026Y-73065144D01*
G37*
%TD.AperFunction*%
%TA.AperFunction,NonConductor*%
G36*
X109302026Y-75605144D02*
G01*
X109329875Y-75636994D01*
X109389987Y-75735088D01*
X109536250Y-75903938D01*
X109708126Y-76046632D01*
X109778595Y-76087811D01*
X109781445Y-76089476D01*
X109830169Y-76141114D01*
X109843240Y-76210897D01*
X109816509Y-76276669D01*
X109776055Y-76310027D01*
X109763607Y-76316507D01*
X109759474Y-76319610D01*
X109759471Y-76319612D01*
X109659374Y-76394767D01*
X109584965Y-76450635D01*
X109581393Y-76454373D01*
X109439748Y-76602596D01*
X109430629Y-76612138D01*
X109323201Y-76769621D01*
X109268293Y-76814621D01*
X109197768Y-76822792D01*
X109134021Y-76791538D01*
X109113324Y-76767054D01*
X109032822Y-76642617D01*
X109032820Y-76642614D01*
X109030014Y-76638277D01*
X108879670Y-76473051D01*
X108875619Y-76469852D01*
X108875615Y-76469848D01*
X108708414Y-76337800D01*
X108708410Y-76337798D01*
X108704359Y-76334598D01*
X108663053Y-76311796D01*
X108613084Y-76261364D01*
X108598312Y-76191921D01*
X108623428Y-76125516D01*
X108650780Y-76098909D01*
X108694603Y-76067650D01*
X108829860Y-75971173D01*
X108988096Y-75813489D01*
X109047594Y-75730689D01*
X109118453Y-75632077D01*
X109119776Y-75633028D01*
X109166645Y-75589857D01*
X109236580Y-75577625D01*
X109302026Y-75605144D01*
G37*
%TD.AperFunction*%
%TA.AperFunction,NonConductor*%
G36*
X111842026Y-75605144D02*
G01*
X111869875Y-75636994D01*
X111929987Y-75735088D01*
X112076250Y-75903938D01*
X112248126Y-76046632D01*
X112318595Y-76087811D01*
X112321445Y-76089476D01*
X112370169Y-76141114D01*
X112383240Y-76210897D01*
X112356509Y-76276669D01*
X112316055Y-76310027D01*
X112303607Y-76316507D01*
X112299474Y-76319610D01*
X112299471Y-76319612D01*
X112199374Y-76394767D01*
X112124965Y-76450635D01*
X112121393Y-76454373D01*
X111979748Y-76602596D01*
X111970629Y-76612138D01*
X111863201Y-76769621D01*
X111808293Y-76814621D01*
X111737768Y-76822792D01*
X111674021Y-76791538D01*
X111653324Y-76767054D01*
X111572822Y-76642617D01*
X111572820Y-76642614D01*
X111570014Y-76638277D01*
X111419670Y-76473051D01*
X111415619Y-76469852D01*
X111415615Y-76469848D01*
X111248414Y-76337800D01*
X111248410Y-76337798D01*
X111244359Y-76334598D01*
X111203053Y-76311796D01*
X111153084Y-76261364D01*
X111138312Y-76191921D01*
X111163428Y-76125516D01*
X111190780Y-76098909D01*
X111234603Y-76067650D01*
X111369860Y-75971173D01*
X111528096Y-75813489D01*
X111587594Y-75730689D01*
X111658453Y-75632077D01*
X111659776Y-75633028D01*
X111706645Y-75589857D01*
X111776580Y-75577625D01*
X111842026Y-75605144D01*
G37*
%TD.AperFunction*%
%TA.AperFunction,NonConductor*%
G36*
X111842026Y-78145144D02*
G01*
X111869875Y-78176994D01*
X111929987Y-78275088D01*
X112076250Y-78443938D01*
X112248126Y-78586632D01*
X112318595Y-78627811D01*
X112321445Y-78629476D01*
X112370169Y-78681114D01*
X112383240Y-78750897D01*
X112356509Y-78816669D01*
X112316055Y-78850027D01*
X112303607Y-78856507D01*
X112299474Y-78859610D01*
X112299471Y-78859612D01*
X112199374Y-78934767D01*
X112124965Y-78990635D01*
X112121393Y-78994373D01*
X111979748Y-79142596D01*
X111970629Y-79152138D01*
X111863201Y-79309621D01*
X111808293Y-79354621D01*
X111737768Y-79362792D01*
X111674021Y-79331538D01*
X111653324Y-79307054D01*
X111572822Y-79182617D01*
X111572820Y-79182614D01*
X111570014Y-79178277D01*
X111419670Y-79013051D01*
X111415619Y-79009852D01*
X111415615Y-79009848D01*
X111248414Y-78877800D01*
X111248410Y-78877798D01*
X111244359Y-78874598D01*
X111203053Y-78851796D01*
X111153084Y-78801364D01*
X111138312Y-78731921D01*
X111163428Y-78665516D01*
X111190780Y-78638909D01*
X111234603Y-78607650D01*
X111369860Y-78511173D01*
X111528096Y-78353489D01*
X111587594Y-78270689D01*
X111658453Y-78172077D01*
X111659776Y-78173028D01*
X111706645Y-78129857D01*
X111776580Y-78117625D01*
X111842026Y-78145144D01*
G37*
%TD.AperFunction*%
%TA.AperFunction,NonConductor*%
G36*
X109302026Y-78145144D02*
G01*
X109329875Y-78176994D01*
X109389987Y-78275088D01*
X109536250Y-78443938D01*
X109708126Y-78586632D01*
X109778595Y-78627811D01*
X109781445Y-78629476D01*
X109830169Y-78681114D01*
X109843240Y-78750897D01*
X109816509Y-78816669D01*
X109776055Y-78850027D01*
X109763607Y-78856507D01*
X109759474Y-78859610D01*
X109759471Y-78859612D01*
X109659374Y-78934767D01*
X109584965Y-78990635D01*
X109581393Y-78994373D01*
X109439748Y-79142596D01*
X109430629Y-79152138D01*
X109323201Y-79309621D01*
X109268293Y-79354621D01*
X109197768Y-79362792D01*
X109134021Y-79331538D01*
X109113324Y-79307054D01*
X109032822Y-79182617D01*
X109032820Y-79182614D01*
X109030014Y-79178277D01*
X108879670Y-79013051D01*
X108875619Y-79009852D01*
X108875615Y-79009848D01*
X108708414Y-78877800D01*
X108708410Y-78877798D01*
X108704359Y-78874598D01*
X108663053Y-78851796D01*
X108613084Y-78801364D01*
X108598312Y-78731921D01*
X108623428Y-78665516D01*
X108650780Y-78638909D01*
X108694603Y-78607650D01*
X108829860Y-78511173D01*
X108988096Y-78353489D01*
X109047594Y-78270689D01*
X109118453Y-78172077D01*
X109119776Y-78173028D01*
X109166645Y-78129857D01*
X109236580Y-78117625D01*
X109302026Y-78145144D01*
G37*
%TD.AperFunction*%
%TA.AperFunction,NonConductor*%
G36*
X111842026Y-80685144D02*
G01*
X111869875Y-80716994D01*
X111929987Y-80815088D01*
X112076250Y-80983938D01*
X112248126Y-81126632D01*
X112318595Y-81167811D01*
X112321445Y-81169476D01*
X112370169Y-81221114D01*
X112383240Y-81290897D01*
X112356509Y-81356669D01*
X112316055Y-81390027D01*
X112303607Y-81396507D01*
X112299474Y-81399610D01*
X112299471Y-81399612D01*
X112199374Y-81474767D01*
X112124965Y-81530635D01*
X112121393Y-81534373D01*
X111979748Y-81682596D01*
X111970629Y-81692138D01*
X111863201Y-81849621D01*
X111808293Y-81894621D01*
X111737768Y-81902792D01*
X111674021Y-81871538D01*
X111653324Y-81847054D01*
X111572822Y-81722617D01*
X111572820Y-81722614D01*
X111570014Y-81718277D01*
X111419670Y-81553051D01*
X111415619Y-81549852D01*
X111415615Y-81549848D01*
X111248414Y-81417800D01*
X111248410Y-81417798D01*
X111244359Y-81414598D01*
X111203053Y-81391796D01*
X111153084Y-81341364D01*
X111138312Y-81271921D01*
X111163428Y-81205516D01*
X111190780Y-81178909D01*
X111234603Y-81147650D01*
X111369860Y-81051173D01*
X111528096Y-80893489D01*
X111587594Y-80810689D01*
X111658453Y-80712077D01*
X111659776Y-80713028D01*
X111706645Y-80669857D01*
X111776580Y-80657625D01*
X111842026Y-80685144D01*
G37*
%TD.AperFunction*%
%TA.AperFunction,NonConductor*%
G36*
X109302026Y-80685144D02*
G01*
X109329875Y-80716994D01*
X109389987Y-80815088D01*
X109536250Y-80983938D01*
X109708126Y-81126632D01*
X109778595Y-81167811D01*
X109781445Y-81169476D01*
X109830169Y-81221114D01*
X109843240Y-81290897D01*
X109816509Y-81356669D01*
X109776055Y-81390027D01*
X109763607Y-81396507D01*
X109759474Y-81399610D01*
X109759471Y-81399612D01*
X109659374Y-81474767D01*
X109584965Y-81530635D01*
X109581393Y-81534373D01*
X109439748Y-81682596D01*
X109430629Y-81692138D01*
X109323201Y-81849621D01*
X109268293Y-81894621D01*
X109197768Y-81902792D01*
X109134021Y-81871538D01*
X109113324Y-81847054D01*
X109032822Y-81722617D01*
X109032820Y-81722614D01*
X109030014Y-81718277D01*
X108879670Y-81553051D01*
X108875619Y-81549852D01*
X108875615Y-81549848D01*
X108708414Y-81417800D01*
X108708410Y-81417798D01*
X108704359Y-81414598D01*
X108663053Y-81391796D01*
X108613084Y-81341364D01*
X108598312Y-81271921D01*
X108623428Y-81205516D01*
X108650780Y-81178909D01*
X108694603Y-81147650D01*
X108829860Y-81051173D01*
X108988096Y-80893489D01*
X109047594Y-80810689D01*
X109118453Y-80712077D01*
X109119776Y-80713028D01*
X109166645Y-80669857D01*
X109236580Y-80657625D01*
X109302026Y-80685144D01*
G37*
%TD.AperFunction*%
%TA.AperFunction,NonConductor*%
G36*
X109302026Y-83225144D02*
G01*
X109329875Y-83256994D01*
X109389987Y-83355088D01*
X109536250Y-83523938D01*
X109708126Y-83666632D01*
X109778595Y-83707811D01*
X109781445Y-83709476D01*
X109830169Y-83761114D01*
X109843240Y-83830897D01*
X109816509Y-83896669D01*
X109776055Y-83930027D01*
X109763607Y-83936507D01*
X109759474Y-83939610D01*
X109759471Y-83939612D01*
X109659374Y-84014767D01*
X109584965Y-84070635D01*
X109581393Y-84074373D01*
X109439748Y-84222596D01*
X109430629Y-84232138D01*
X109323201Y-84389621D01*
X109268293Y-84434621D01*
X109197768Y-84442792D01*
X109134021Y-84411538D01*
X109113324Y-84387054D01*
X109032822Y-84262617D01*
X109032820Y-84262614D01*
X109030014Y-84258277D01*
X108879670Y-84093051D01*
X108875619Y-84089852D01*
X108875615Y-84089848D01*
X108708414Y-83957800D01*
X108708410Y-83957798D01*
X108704359Y-83954598D01*
X108663053Y-83931796D01*
X108613084Y-83881364D01*
X108598312Y-83811921D01*
X108623428Y-83745516D01*
X108650780Y-83718909D01*
X108694603Y-83687650D01*
X108829860Y-83591173D01*
X108988096Y-83433489D01*
X109047594Y-83350689D01*
X109118453Y-83252077D01*
X109119776Y-83253028D01*
X109166645Y-83209857D01*
X109236580Y-83197625D01*
X109302026Y-83225144D01*
G37*
%TD.AperFunction*%
%TA.AperFunction,NonConductor*%
G36*
X111842026Y-83225144D02*
G01*
X111869875Y-83256994D01*
X111929987Y-83355088D01*
X112076250Y-83523938D01*
X112248126Y-83666632D01*
X112318595Y-83707811D01*
X112321445Y-83709476D01*
X112370169Y-83761114D01*
X112383240Y-83830897D01*
X112356509Y-83896669D01*
X112316055Y-83930027D01*
X112303607Y-83936507D01*
X112299474Y-83939610D01*
X112299471Y-83939612D01*
X112199374Y-84014767D01*
X112124965Y-84070635D01*
X112121393Y-84074373D01*
X111979748Y-84222596D01*
X111970629Y-84232138D01*
X111863201Y-84389621D01*
X111808293Y-84434621D01*
X111737768Y-84442792D01*
X111674021Y-84411538D01*
X111653324Y-84387054D01*
X111572822Y-84262617D01*
X111572820Y-84262614D01*
X111570014Y-84258277D01*
X111419670Y-84093051D01*
X111415619Y-84089852D01*
X111415615Y-84089848D01*
X111248414Y-83957800D01*
X111248410Y-83957798D01*
X111244359Y-83954598D01*
X111203053Y-83931796D01*
X111153084Y-83881364D01*
X111138312Y-83811921D01*
X111163428Y-83745516D01*
X111190780Y-83718909D01*
X111234603Y-83687650D01*
X111369860Y-83591173D01*
X111528096Y-83433489D01*
X111587594Y-83350689D01*
X111658453Y-83252077D01*
X111659776Y-83253028D01*
X111706645Y-83209857D01*
X111776580Y-83197625D01*
X111842026Y-83225144D01*
G37*
%TD.AperFunction*%
%TA.AperFunction,NonConductor*%
G36*
X109302026Y-85765144D02*
G01*
X109329875Y-85796994D01*
X109389987Y-85895088D01*
X109536250Y-86063938D01*
X109708126Y-86206632D01*
X109778595Y-86247811D01*
X109781445Y-86249476D01*
X109830169Y-86301114D01*
X109843240Y-86370897D01*
X109816509Y-86436669D01*
X109776055Y-86470027D01*
X109763607Y-86476507D01*
X109759474Y-86479610D01*
X109759471Y-86479612D01*
X109659374Y-86554767D01*
X109584965Y-86610635D01*
X109581393Y-86614373D01*
X109439748Y-86762596D01*
X109430629Y-86772138D01*
X109323201Y-86929621D01*
X109268293Y-86974621D01*
X109197768Y-86982792D01*
X109134021Y-86951538D01*
X109113324Y-86927054D01*
X109032822Y-86802617D01*
X109032820Y-86802614D01*
X109030014Y-86798277D01*
X108879670Y-86633051D01*
X108875619Y-86629852D01*
X108875615Y-86629848D01*
X108708414Y-86497800D01*
X108708410Y-86497798D01*
X108704359Y-86494598D01*
X108663053Y-86471796D01*
X108613084Y-86421364D01*
X108598312Y-86351921D01*
X108623428Y-86285516D01*
X108650780Y-86258909D01*
X108694603Y-86227650D01*
X108829860Y-86131173D01*
X108988096Y-85973489D01*
X109047594Y-85890689D01*
X109118453Y-85792077D01*
X109119776Y-85793028D01*
X109166645Y-85749857D01*
X109236580Y-85737625D01*
X109302026Y-85765144D01*
G37*
%TD.AperFunction*%
%TA.AperFunction,NonConductor*%
G36*
X111842026Y-85765144D02*
G01*
X111869875Y-85796994D01*
X111929987Y-85895088D01*
X112076250Y-86063938D01*
X112248126Y-86206632D01*
X112318595Y-86247811D01*
X112321445Y-86249476D01*
X112370169Y-86301114D01*
X112383240Y-86370897D01*
X112356509Y-86436669D01*
X112316055Y-86470027D01*
X112303607Y-86476507D01*
X112299474Y-86479610D01*
X112299471Y-86479612D01*
X112199374Y-86554767D01*
X112124965Y-86610635D01*
X112121393Y-86614373D01*
X111979748Y-86762596D01*
X111970629Y-86772138D01*
X111863201Y-86929621D01*
X111808293Y-86974621D01*
X111737768Y-86982792D01*
X111674021Y-86951538D01*
X111653324Y-86927054D01*
X111572822Y-86802617D01*
X111572820Y-86802614D01*
X111570014Y-86798277D01*
X111419670Y-86633051D01*
X111415619Y-86629852D01*
X111415615Y-86629848D01*
X111248414Y-86497800D01*
X111248410Y-86497798D01*
X111244359Y-86494598D01*
X111203053Y-86471796D01*
X111153084Y-86421364D01*
X111138312Y-86351921D01*
X111163428Y-86285516D01*
X111190780Y-86258909D01*
X111234603Y-86227650D01*
X111369860Y-86131173D01*
X111528096Y-85973489D01*
X111587594Y-85890689D01*
X111658453Y-85792077D01*
X111659776Y-85793028D01*
X111706645Y-85749857D01*
X111776580Y-85737625D01*
X111842026Y-85765144D01*
G37*
%TD.AperFunction*%
%TA.AperFunction,NonConductor*%
G36*
X109302026Y-88305144D02*
G01*
X109329875Y-88336994D01*
X109389987Y-88435088D01*
X109536250Y-88603938D01*
X109708126Y-88746632D01*
X109778595Y-88787811D01*
X109781445Y-88789476D01*
X109830169Y-88841114D01*
X109843240Y-88910897D01*
X109816509Y-88976669D01*
X109776055Y-89010027D01*
X109763607Y-89016507D01*
X109759474Y-89019610D01*
X109759471Y-89019612D01*
X109659374Y-89094767D01*
X109584965Y-89150635D01*
X109581393Y-89154373D01*
X109439748Y-89302596D01*
X109430629Y-89312138D01*
X109323201Y-89469621D01*
X109268293Y-89514621D01*
X109197768Y-89522792D01*
X109134021Y-89491538D01*
X109113324Y-89467054D01*
X109032822Y-89342617D01*
X109032820Y-89342614D01*
X109030014Y-89338277D01*
X108879670Y-89173051D01*
X108875619Y-89169852D01*
X108875615Y-89169848D01*
X108708414Y-89037800D01*
X108708410Y-89037798D01*
X108704359Y-89034598D01*
X108663053Y-89011796D01*
X108613084Y-88961364D01*
X108598312Y-88891921D01*
X108623428Y-88825516D01*
X108650780Y-88798909D01*
X108694603Y-88767650D01*
X108829860Y-88671173D01*
X108988096Y-88513489D01*
X109047594Y-88430689D01*
X109118453Y-88332077D01*
X109119776Y-88333028D01*
X109166645Y-88289857D01*
X109236580Y-88277625D01*
X109302026Y-88305144D01*
G37*
%TD.AperFunction*%
%TA.AperFunction,NonConductor*%
G36*
X111842026Y-88305144D02*
G01*
X111869875Y-88336994D01*
X111929987Y-88435088D01*
X112076250Y-88603938D01*
X112248126Y-88746632D01*
X112318595Y-88787811D01*
X112321445Y-88789476D01*
X112370169Y-88841114D01*
X112383240Y-88910897D01*
X112356509Y-88976669D01*
X112316055Y-89010027D01*
X112303607Y-89016507D01*
X112299474Y-89019610D01*
X112299471Y-89019612D01*
X112199374Y-89094767D01*
X112124965Y-89150635D01*
X112121393Y-89154373D01*
X111979748Y-89302596D01*
X111970629Y-89312138D01*
X111863201Y-89469621D01*
X111808293Y-89514621D01*
X111737768Y-89522792D01*
X111674021Y-89491538D01*
X111653324Y-89467054D01*
X111572822Y-89342617D01*
X111572820Y-89342614D01*
X111570014Y-89338277D01*
X111419670Y-89173051D01*
X111415619Y-89169852D01*
X111415615Y-89169848D01*
X111248414Y-89037800D01*
X111248410Y-89037798D01*
X111244359Y-89034598D01*
X111203053Y-89011796D01*
X111153084Y-88961364D01*
X111138312Y-88891921D01*
X111163428Y-88825516D01*
X111190780Y-88798909D01*
X111234603Y-88767650D01*
X111369860Y-88671173D01*
X111528096Y-88513489D01*
X111587594Y-88430689D01*
X111658453Y-88332077D01*
X111659776Y-88333028D01*
X111706645Y-88289857D01*
X111776580Y-88277625D01*
X111842026Y-88305144D01*
G37*
%TD.AperFunction*%
%TA.AperFunction,NonConductor*%
G36*
X109302026Y-90845144D02*
G01*
X109329875Y-90876994D01*
X109389987Y-90975088D01*
X109536250Y-91143938D01*
X109708126Y-91286632D01*
X109778595Y-91327811D01*
X109781445Y-91329476D01*
X109830169Y-91381114D01*
X109843240Y-91450897D01*
X109816509Y-91516669D01*
X109776055Y-91550027D01*
X109763607Y-91556507D01*
X109759474Y-91559610D01*
X109759471Y-91559612D01*
X109659374Y-91634767D01*
X109584965Y-91690635D01*
X109581393Y-91694373D01*
X109439748Y-91842596D01*
X109430629Y-91852138D01*
X109323201Y-92009621D01*
X109268293Y-92054621D01*
X109197768Y-92062792D01*
X109134021Y-92031538D01*
X109113324Y-92007054D01*
X109032822Y-91882617D01*
X109032820Y-91882614D01*
X109030014Y-91878277D01*
X108879670Y-91713051D01*
X108875619Y-91709852D01*
X108875615Y-91709848D01*
X108708414Y-91577800D01*
X108708410Y-91577798D01*
X108704359Y-91574598D01*
X108663053Y-91551796D01*
X108613084Y-91501364D01*
X108598312Y-91431921D01*
X108623428Y-91365516D01*
X108650780Y-91338909D01*
X108694603Y-91307650D01*
X108829860Y-91211173D01*
X108988096Y-91053489D01*
X109047594Y-90970689D01*
X109118453Y-90872077D01*
X109119776Y-90873028D01*
X109166645Y-90829857D01*
X109236580Y-90817625D01*
X109302026Y-90845144D01*
G37*
%TD.AperFunction*%
%TA.AperFunction,NonConductor*%
G36*
X111842026Y-90845144D02*
G01*
X111869875Y-90876994D01*
X111929987Y-90975088D01*
X112076250Y-91143938D01*
X112248126Y-91286632D01*
X112318595Y-91327811D01*
X112321445Y-91329476D01*
X112370169Y-91381114D01*
X112383240Y-91450897D01*
X112356509Y-91516669D01*
X112316055Y-91550027D01*
X112303607Y-91556507D01*
X112299474Y-91559610D01*
X112299471Y-91559612D01*
X112199374Y-91634767D01*
X112124965Y-91690635D01*
X112121393Y-91694373D01*
X111979748Y-91842596D01*
X111970629Y-91852138D01*
X111863201Y-92009621D01*
X111808293Y-92054621D01*
X111737768Y-92062792D01*
X111674021Y-92031538D01*
X111653324Y-92007054D01*
X111572822Y-91882617D01*
X111572820Y-91882614D01*
X111570014Y-91878277D01*
X111419670Y-91713051D01*
X111415619Y-91709852D01*
X111415615Y-91709848D01*
X111248414Y-91577800D01*
X111248410Y-91577798D01*
X111244359Y-91574598D01*
X111203053Y-91551796D01*
X111153084Y-91501364D01*
X111138312Y-91431921D01*
X111163428Y-91365516D01*
X111190780Y-91338909D01*
X111234603Y-91307650D01*
X111369860Y-91211173D01*
X111528096Y-91053489D01*
X111587594Y-90970689D01*
X111658453Y-90872077D01*
X111659776Y-90873028D01*
X111706645Y-90829857D01*
X111776580Y-90817625D01*
X111842026Y-90845144D01*
G37*
%TD.AperFunction*%
%TA.AperFunction,NonConductor*%
G36*
X109302026Y-93385144D02*
G01*
X109329875Y-93416994D01*
X109389987Y-93515088D01*
X109536250Y-93683938D01*
X109708126Y-93826632D01*
X109778595Y-93867811D01*
X109781445Y-93869476D01*
X109830169Y-93921114D01*
X109843240Y-93990897D01*
X109816509Y-94056669D01*
X109776055Y-94090027D01*
X109763607Y-94096507D01*
X109759474Y-94099610D01*
X109759471Y-94099612D01*
X109659374Y-94174767D01*
X109584965Y-94230635D01*
X109581393Y-94234373D01*
X109439748Y-94382596D01*
X109430629Y-94392138D01*
X109323201Y-94549621D01*
X109268293Y-94594621D01*
X109197768Y-94602792D01*
X109134021Y-94571538D01*
X109113324Y-94547054D01*
X109032822Y-94422617D01*
X109032820Y-94422614D01*
X109030014Y-94418277D01*
X108879670Y-94253051D01*
X108875619Y-94249852D01*
X108875615Y-94249848D01*
X108708414Y-94117800D01*
X108708410Y-94117798D01*
X108704359Y-94114598D01*
X108663053Y-94091796D01*
X108613084Y-94041364D01*
X108598312Y-93971921D01*
X108623428Y-93905516D01*
X108650780Y-93878909D01*
X108694603Y-93847650D01*
X108829860Y-93751173D01*
X108988096Y-93593489D01*
X109047594Y-93510689D01*
X109118453Y-93412077D01*
X109119776Y-93413028D01*
X109166645Y-93369857D01*
X109236580Y-93357625D01*
X109302026Y-93385144D01*
G37*
%TD.AperFunction*%
%TA.AperFunction,NonConductor*%
G36*
X111842026Y-93385144D02*
G01*
X111869875Y-93416994D01*
X111929987Y-93515088D01*
X112076250Y-93683938D01*
X112248126Y-93826632D01*
X112318595Y-93867811D01*
X112321445Y-93869476D01*
X112370169Y-93921114D01*
X112383240Y-93990897D01*
X112356509Y-94056669D01*
X112316055Y-94090027D01*
X112303607Y-94096507D01*
X112299474Y-94099610D01*
X112299471Y-94099612D01*
X112199374Y-94174767D01*
X112124965Y-94230635D01*
X112121393Y-94234373D01*
X111979748Y-94382596D01*
X111970629Y-94392138D01*
X111863201Y-94549621D01*
X111808293Y-94594621D01*
X111737768Y-94602792D01*
X111674021Y-94571538D01*
X111653324Y-94547054D01*
X111572822Y-94422617D01*
X111572820Y-94422614D01*
X111570014Y-94418277D01*
X111419670Y-94253051D01*
X111415619Y-94249852D01*
X111415615Y-94249848D01*
X111248414Y-94117800D01*
X111248410Y-94117798D01*
X111244359Y-94114598D01*
X111203053Y-94091796D01*
X111153084Y-94041364D01*
X111138312Y-93971921D01*
X111163428Y-93905516D01*
X111190780Y-93878909D01*
X111234603Y-93847650D01*
X111369860Y-93751173D01*
X111528096Y-93593489D01*
X111587594Y-93510689D01*
X111658453Y-93412077D01*
X111659776Y-93413028D01*
X111706645Y-93369857D01*
X111776580Y-93357625D01*
X111842026Y-93385144D01*
G37*
%TD.AperFunction*%
%TA.AperFunction,NonConductor*%
G36*
X109302026Y-95925144D02*
G01*
X109329875Y-95956994D01*
X109389987Y-96055088D01*
X109536250Y-96223938D01*
X109708126Y-96366632D01*
X109778595Y-96407811D01*
X109781445Y-96409476D01*
X109830169Y-96461114D01*
X109843240Y-96530897D01*
X109816509Y-96596669D01*
X109776055Y-96630027D01*
X109763607Y-96636507D01*
X109759474Y-96639610D01*
X109759471Y-96639612D01*
X109735247Y-96657800D01*
X109584965Y-96770635D01*
X109430629Y-96932138D01*
X109323201Y-97089621D01*
X109268293Y-97134621D01*
X109197768Y-97142792D01*
X109134021Y-97111538D01*
X109113324Y-97087054D01*
X109032822Y-96962617D01*
X109032820Y-96962614D01*
X109030014Y-96958277D01*
X108879670Y-96793051D01*
X108875619Y-96789852D01*
X108875615Y-96789848D01*
X108708414Y-96657800D01*
X108708410Y-96657798D01*
X108704359Y-96654598D01*
X108663053Y-96631796D01*
X108613084Y-96581364D01*
X108598312Y-96511921D01*
X108623428Y-96445516D01*
X108650780Y-96418909D01*
X108694603Y-96387650D01*
X108829860Y-96291173D01*
X108988096Y-96133489D01*
X109047594Y-96050689D01*
X109118453Y-95952077D01*
X109119776Y-95953028D01*
X109166645Y-95909857D01*
X109236580Y-95897625D01*
X109302026Y-95925144D01*
G37*
%TD.AperFunction*%
%TA.AperFunction,NonConductor*%
G36*
X111842026Y-95925144D02*
G01*
X111869875Y-95956994D01*
X111929987Y-96055088D01*
X112076250Y-96223938D01*
X112248126Y-96366632D01*
X112318595Y-96407811D01*
X112321445Y-96409476D01*
X112370169Y-96461114D01*
X112383240Y-96530897D01*
X112356509Y-96596669D01*
X112316055Y-96630027D01*
X112303607Y-96636507D01*
X112299474Y-96639610D01*
X112299471Y-96639612D01*
X112275247Y-96657800D01*
X112124965Y-96770635D01*
X111970629Y-96932138D01*
X111863201Y-97089621D01*
X111808293Y-97134621D01*
X111737768Y-97142792D01*
X111674021Y-97111538D01*
X111653324Y-97087054D01*
X111572822Y-96962617D01*
X111572820Y-96962614D01*
X111570014Y-96958277D01*
X111419670Y-96793051D01*
X111415619Y-96789852D01*
X111415615Y-96789848D01*
X111248414Y-96657800D01*
X111248410Y-96657798D01*
X111244359Y-96654598D01*
X111203053Y-96631796D01*
X111153084Y-96581364D01*
X111138312Y-96511921D01*
X111163428Y-96445516D01*
X111190780Y-96418909D01*
X111234603Y-96387650D01*
X111369860Y-96291173D01*
X111528096Y-96133489D01*
X111587594Y-96050689D01*
X111658453Y-95952077D01*
X111659776Y-95953028D01*
X111706645Y-95909857D01*
X111776580Y-95897625D01*
X111842026Y-95925144D01*
G37*
%TD.AperFunction*%
%TA.AperFunction,NonConductor*%
G36*
X109302026Y-98465144D02*
G01*
X109329875Y-98496994D01*
X109389987Y-98595088D01*
X109536250Y-98763938D01*
X109708126Y-98906632D01*
X109778595Y-98947811D01*
X109781445Y-98949476D01*
X109830169Y-99001114D01*
X109843240Y-99070897D01*
X109816509Y-99136669D01*
X109776055Y-99170027D01*
X109763607Y-99176507D01*
X109759474Y-99179610D01*
X109759471Y-99179612D01*
X109589100Y-99307530D01*
X109584965Y-99310635D01*
X109430629Y-99472138D01*
X109323201Y-99629621D01*
X109268293Y-99674621D01*
X109197768Y-99682792D01*
X109134021Y-99651538D01*
X109113324Y-99627054D01*
X109032822Y-99502617D01*
X109032820Y-99502614D01*
X109030014Y-99498277D01*
X108879670Y-99333051D01*
X108875619Y-99329852D01*
X108875615Y-99329848D01*
X108708414Y-99197800D01*
X108708410Y-99197798D01*
X108704359Y-99194598D01*
X108663053Y-99171796D01*
X108613084Y-99121364D01*
X108598312Y-99051921D01*
X108623428Y-98985516D01*
X108650780Y-98958909D01*
X108694603Y-98927650D01*
X108829860Y-98831173D01*
X108988096Y-98673489D01*
X109047594Y-98590689D01*
X109118453Y-98492077D01*
X109119776Y-98493028D01*
X109166645Y-98449857D01*
X109236580Y-98437625D01*
X109302026Y-98465144D01*
G37*
%TD.AperFunction*%
%TA.AperFunction,NonConductor*%
G36*
X111842026Y-98465144D02*
G01*
X111869875Y-98496994D01*
X111929987Y-98595088D01*
X112076250Y-98763938D01*
X112248126Y-98906632D01*
X112318595Y-98947811D01*
X112321445Y-98949476D01*
X112370169Y-99001114D01*
X112383240Y-99070897D01*
X112356509Y-99136669D01*
X112316055Y-99170027D01*
X112303607Y-99176507D01*
X112299474Y-99179610D01*
X112299471Y-99179612D01*
X112129100Y-99307530D01*
X112124965Y-99310635D01*
X111970629Y-99472138D01*
X111863201Y-99629621D01*
X111808293Y-99674621D01*
X111737768Y-99682792D01*
X111674021Y-99651538D01*
X111653324Y-99627054D01*
X111572822Y-99502617D01*
X111572820Y-99502614D01*
X111570014Y-99498277D01*
X111419670Y-99333051D01*
X111415619Y-99329852D01*
X111415615Y-99329848D01*
X111248414Y-99197800D01*
X111248410Y-99197798D01*
X111244359Y-99194598D01*
X111203053Y-99171796D01*
X111153084Y-99121364D01*
X111138312Y-99051921D01*
X111163428Y-98985516D01*
X111190780Y-98958909D01*
X111234603Y-98927650D01*
X111369860Y-98831173D01*
X111528096Y-98673489D01*
X111587594Y-98590689D01*
X111658453Y-98492077D01*
X111659776Y-98493028D01*
X111706645Y-98449857D01*
X111776580Y-98437625D01*
X111842026Y-98465144D01*
G37*
%TD.AperFunction*%
%TA.AperFunction,NonConductor*%
G36*
X119335446Y-59304796D02*
G01*
X119355051Y-59334691D01*
X119356133Y-59337000D01*
X119358450Y-59343946D01*
X119451522Y-59494348D01*
X119576697Y-59619305D01*
X119582927Y-59623145D01*
X119582928Y-59623146D01*
X119685944Y-59686646D01*
X119727262Y-59712115D01*
X119734209Y-59714419D01*
X119736276Y-59715383D01*
X119789561Y-59762299D01*
X119809023Y-59830576D01*
X119788482Y-59898536D01*
X119758681Y-59930337D01*
X119744965Y-59940635D01*
X119741393Y-59944373D01*
X119599748Y-60092596D01*
X119590629Y-60102138D01*
X119483201Y-60259621D01*
X119428293Y-60304621D01*
X119357768Y-60312792D01*
X119294021Y-60281538D01*
X119273324Y-60257054D01*
X119192822Y-60132617D01*
X119192820Y-60132614D01*
X119190014Y-60128277D01*
X119039670Y-59963051D01*
X119035616Y-59959849D01*
X119035615Y-59959848D01*
X118868414Y-59827800D01*
X118868410Y-59827798D01*
X118864359Y-59824598D01*
X118823053Y-59801796D01*
X118773084Y-59751364D01*
X118758312Y-59681921D01*
X118783428Y-59615516D01*
X118810780Y-59588909D01*
X118854603Y-59557650D01*
X118989860Y-59461173D01*
X119148096Y-59303489D01*
X119148671Y-59304066D01*
X119204391Y-59267562D01*
X119275385Y-59266939D01*
X119335446Y-59304796D01*
G37*
%TD.AperFunction*%
%TA.AperFunction,NonConductor*%
G36*
X119462026Y-61635144D02*
G01*
X119489875Y-61666994D01*
X119549987Y-61765088D01*
X119696250Y-61933938D01*
X119868126Y-62076632D01*
X119938595Y-62117811D01*
X119941445Y-62119476D01*
X119990169Y-62171114D01*
X120003240Y-62240897D01*
X119976509Y-62306669D01*
X119936055Y-62340027D01*
X119923607Y-62346507D01*
X119919474Y-62349610D01*
X119919471Y-62349612D01*
X119819374Y-62424767D01*
X119744965Y-62480635D01*
X119741393Y-62484373D01*
X119599748Y-62632596D01*
X119590629Y-62642138D01*
X119483201Y-62799621D01*
X119428293Y-62844621D01*
X119357768Y-62852792D01*
X119294021Y-62821538D01*
X119273324Y-62797054D01*
X119192822Y-62672617D01*
X119192820Y-62672614D01*
X119190014Y-62668277D01*
X119039670Y-62503051D01*
X119035619Y-62499852D01*
X119035615Y-62499848D01*
X118868414Y-62367800D01*
X118868410Y-62367798D01*
X118864359Y-62364598D01*
X118823053Y-62341796D01*
X118773084Y-62291364D01*
X118758312Y-62221921D01*
X118783428Y-62155516D01*
X118810780Y-62128909D01*
X118854603Y-62097650D01*
X118989860Y-62001173D01*
X119148096Y-61843489D01*
X119207594Y-61760689D01*
X119278453Y-61662077D01*
X119279776Y-61663028D01*
X119326645Y-61619857D01*
X119396580Y-61607625D01*
X119462026Y-61635144D01*
G37*
%TD.AperFunction*%
%TA.AperFunction,NonConductor*%
G36*
X119462026Y-64175144D02*
G01*
X119489875Y-64206994D01*
X119549987Y-64305088D01*
X119696250Y-64473938D01*
X119868126Y-64616632D01*
X119938595Y-64657811D01*
X119941445Y-64659476D01*
X119990169Y-64711114D01*
X120003240Y-64780897D01*
X119976509Y-64846669D01*
X119936055Y-64880027D01*
X119923607Y-64886507D01*
X119919474Y-64889610D01*
X119919471Y-64889612D01*
X119819374Y-64964767D01*
X119744965Y-65020635D01*
X119741393Y-65024373D01*
X119599748Y-65172596D01*
X119590629Y-65182138D01*
X119483201Y-65339621D01*
X119428293Y-65384621D01*
X119357768Y-65392792D01*
X119294021Y-65361538D01*
X119273324Y-65337054D01*
X119192822Y-65212617D01*
X119192820Y-65212614D01*
X119190014Y-65208277D01*
X119039670Y-65043051D01*
X119035619Y-65039852D01*
X119035615Y-65039848D01*
X118868414Y-64907800D01*
X118868410Y-64907798D01*
X118864359Y-64904598D01*
X118823053Y-64881796D01*
X118773084Y-64831364D01*
X118758312Y-64761921D01*
X118783428Y-64695516D01*
X118810780Y-64668909D01*
X118854603Y-64637650D01*
X118989860Y-64541173D01*
X119148096Y-64383489D01*
X119207594Y-64300689D01*
X119278453Y-64202077D01*
X119279776Y-64203028D01*
X119326645Y-64159857D01*
X119396580Y-64147625D01*
X119462026Y-64175144D01*
G37*
%TD.AperFunction*%
%TA.AperFunction,NonConductor*%
G36*
X119462026Y-66715144D02*
G01*
X119489875Y-66746994D01*
X119549987Y-66845088D01*
X119696250Y-67013938D01*
X119868126Y-67156632D01*
X119938595Y-67197811D01*
X119941445Y-67199476D01*
X119990169Y-67251114D01*
X120003240Y-67320897D01*
X119976509Y-67386669D01*
X119936055Y-67420027D01*
X119923607Y-67426507D01*
X119919474Y-67429610D01*
X119919471Y-67429612D01*
X119819374Y-67504767D01*
X119744965Y-67560635D01*
X119741393Y-67564373D01*
X119599748Y-67712596D01*
X119590629Y-67722138D01*
X119483201Y-67879621D01*
X119428293Y-67924621D01*
X119357768Y-67932792D01*
X119294021Y-67901538D01*
X119273324Y-67877054D01*
X119192822Y-67752617D01*
X119192820Y-67752614D01*
X119190014Y-67748277D01*
X119039670Y-67583051D01*
X119035619Y-67579852D01*
X119035615Y-67579848D01*
X118868414Y-67447800D01*
X118868410Y-67447798D01*
X118864359Y-67444598D01*
X118823053Y-67421796D01*
X118773084Y-67371364D01*
X118758312Y-67301921D01*
X118783428Y-67235516D01*
X118810780Y-67208909D01*
X118854603Y-67177650D01*
X118989860Y-67081173D01*
X119148096Y-66923489D01*
X119207594Y-66840689D01*
X119278453Y-66742077D01*
X119279776Y-66743028D01*
X119326645Y-66699857D01*
X119396580Y-66687625D01*
X119462026Y-66715144D01*
G37*
%TD.AperFunction*%
%TA.AperFunction,NonConductor*%
G36*
X119462026Y-69255144D02*
G01*
X119489875Y-69286994D01*
X119549987Y-69385088D01*
X119696250Y-69553938D01*
X119868126Y-69696632D01*
X119938595Y-69737811D01*
X119941445Y-69739476D01*
X119990169Y-69791114D01*
X120003240Y-69860897D01*
X119976509Y-69926669D01*
X119936055Y-69960027D01*
X119923607Y-69966507D01*
X119919474Y-69969610D01*
X119919471Y-69969612D01*
X119819374Y-70044767D01*
X119744965Y-70100635D01*
X119741393Y-70104373D01*
X119599748Y-70252596D01*
X119590629Y-70262138D01*
X119483201Y-70419621D01*
X119428293Y-70464621D01*
X119357768Y-70472792D01*
X119294021Y-70441538D01*
X119273324Y-70417054D01*
X119192822Y-70292617D01*
X119192820Y-70292614D01*
X119190014Y-70288277D01*
X119039670Y-70123051D01*
X119035619Y-70119852D01*
X119035615Y-70119848D01*
X118868414Y-69987800D01*
X118868410Y-69987798D01*
X118864359Y-69984598D01*
X118823053Y-69961796D01*
X118773084Y-69911364D01*
X118758312Y-69841921D01*
X118783428Y-69775516D01*
X118810780Y-69748909D01*
X118854603Y-69717650D01*
X118989860Y-69621173D01*
X119148096Y-69463489D01*
X119207594Y-69380689D01*
X119278453Y-69282077D01*
X119279776Y-69283028D01*
X119326645Y-69239857D01*
X119396580Y-69227625D01*
X119462026Y-69255144D01*
G37*
%TD.AperFunction*%
%TA.AperFunction,NonConductor*%
G36*
X119462026Y-71795144D02*
G01*
X119489875Y-71826994D01*
X119549987Y-71925088D01*
X119696250Y-72093938D01*
X119868126Y-72236632D01*
X119938595Y-72277811D01*
X119941445Y-72279476D01*
X119990169Y-72331114D01*
X120003240Y-72400897D01*
X119976509Y-72466669D01*
X119936055Y-72500027D01*
X119923607Y-72506507D01*
X119919474Y-72509610D01*
X119919471Y-72509612D01*
X119819374Y-72584767D01*
X119744965Y-72640635D01*
X119741393Y-72644373D01*
X119599748Y-72792596D01*
X119590629Y-72802138D01*
X119483201Y-72959621D01*
X119428293Y-73004621D01*
X119357768Y-73012792D01*
X119294021Y-72981538D01*
X119273324Y-72957054D01*
X119192822Y-72832617D01*
X119192820Y-72832614D01*
X119190014Y-72828277D01*
X119039670Y-72663051D01*
X119035619Y-72659852D01*
X119035615Y-72659848D01*
X118868414Y-72527800D01*
X118868410Y-72527798D01*
X118864359Y-72524598D01*
X118823053Y-72501796D01*
X118773084Y-72451364D01*
X118758312Y-72381921D01*
X118783428Y-72315516D01*
X118810780Y-72288909D01*
X118854603Y-72257650D01*
X118989860Y-72161173D01*
X119148096Y-72003489D01*
X119207594Y-71920689D01*
X119278453Y-71822077D01*
X119279776Y-71823028D01*
X119326645Y-71779857D01*
X119396580Y-71767625D01*
X119462026Y-71795144D01*
G37*
%TD.AperFunction*%
%TA.AperFunction,NonConductor*%
G36*
X119462026Y-74335144D02*
G01*
X119489875Y-74366994D01*
X119549987Y-74465088D01*
X119696250Y-74633938D01*
X119868126Y-74776632D01*
X119938595Y-74817811D01*
X119941445Y-74819476D01*
X119990169Y-74871114D01*
X120003240Y-74940897D01*
X119976509Y-75006669D01*
X119936055Y-75040027D01*
X119923607Y-75046507D01*
X119919474Y-75049610D01*
X119919471Y-75049612D01*
X119819374Y-75124767D01*
X119744965Y-75180635D01*
X119741393Y-75184373D01*
X119599748Y-75332596D01*
X119590629Y-75342138D01*
X119483201Y-75499621D01*
X119428293Y-75544621D01*
X119357768Y-75552792D01*
X119294021Y-75521538D01*
X119273324Y-75497054D01*
X119192822Y-75372617D01*
X119192820Y-75372614D01*
X119190014Y-75368277D01*
X119039670Y-75203051D01*
X119035619Y-75199852D01*
X119035615Y-75199848D01*
X118868414Y-75067800D01*
X118868410Y-75067798D01*
X118864359Y-75064598D01*
X118823053Y-75041796D01*
X118773084Y-74991364D01*
X118758312Y-74921921D01*
X118783428Y-74855516D01*
X118810780Y-74828909D01*
X118854603Y-74797650D01*
X118989860Y-74701173D01*
X119148096Y-74543489D01*
X119207594Y-74460689D01*
X119278453Y-74362077D01*
X119279776Y-74363028D01*
X119326645Y-74319857D01*
X119396580Y-74307625D01*
X119462026Y-74335144D01*
G37*
%TD.AperFunction*%
%TA.AperFunction,NonConductor*%
G36*
X119462026Y-76875144D02*
G01*
X119489875Y-76906994D01*
X119549987Y-77005088D01*
X119696250Y-77173938D01*
X119868126Y-77316632D01*
X119938595Y-77357811D01*
X119941445Y-77359476D01*
X119990169Y-77411114D01*
X120003240Y-77480897D01*
X119976509Y-77546669D01*
X119936055Y-77580027D01*
X119923607Y-77586507D01*
X119919474Y-77589610D01*
X119919471Y-77589612D01*
X119819374Y-77664767D01*
X119744965Y-77720635D01*
X119741393Y-77724373D01*
X119599748Y-77872596D01*
X119590629Y-77882138D01*
X119483201Y-78039621D01*
X119428293Y-78084621D01*
X119357768Y-78092792D01*
X119294021Y-78061538D01*
X119273324Y-78037054D01*
X119192822Y-77912617D01*
X119192820Y-77912614D01*
X119190014Y-77908277D01*
X119039670Y-77743051D01*
X119035619Y-77739852D01*
X119035615Y-77739848D01*
X118868414Y-77607800D01*
X118868410Y-77607798D01*
X118864359Y-77604598D01*
X118823053Y-77581796D01*
X118773084Y-77531364D01*
X118758312Y-77461921D01*
X118783428Y-77395516D01*
X118810780Y-77368909D01*
X118854603Y-77337650D01*
X118989860Y-77241173D01*
X119148096Y-77083489D01*
X119207594Y-77000689D01*
X119278453Y-76902077D01*
X119279776Y-76903028D01*
X119326645Y-76859857D01*
X119396580Y-76847625D01*
X119462026Y-76875144D01*
G37*
%TD.AperFunction*%
%TA.AperFunction,NonConductor*%
G36*
X119462026Y-79415144D02*
G01*
X119489875Y-79446994D01*
X119549987Y-79545088D01*
X119696250Y-79713938D01*
X119868126Y-79856632D01*
X119938595Y-79897811D01*
X119941445Y-79899476D01*
X119990169Y-79951114D01*
X120003240Y-80020897D01*
X119976509Y-80086669D01*
X119936055Y-80120027D01*
X119923607Y-80126507D01*
X119919474Y-80129610D01*
X119919471Y-80129612D01*
X119819374Y-80204767D01*
X119744965Y-80260635D01*
X119741393Y-80264373D01*
X119599748Y-80412596D01*
X119590629Y-80422138D01*
X119483201Y-80579621D01*
X119428293Y-80624621D01*
X119357768Y-80632792D01*
X119294021Y-80601538D01*
X119273324Y-80577054D01*
X119192822Y-80452617D01*
X119192820Y-80452614D01*
X119190014Y-80448277D01*
X119039670Y-80283051D01*
X119035619Y-80279852D01*
X119035615Y-80279848D01*
X118868414Y-80147800D01*
X118868410Y-80147798D01*
X118864359Y-80144598D01*
X118823053Y-80121796D01*
X118773084Y-80071364D01*
X118758312Y-80001921D01*
X118783428Y-79935516D01*
X118810780Y-79908909D01*
X118854603Y-79877650D01*
X118989860Y-79781173D01*
X119148096Y-79623489D01*
X119207594Y-79540689D01*
X119278453Y-79442077D01*
X119279776Y-79443028D01*
X119326645Y-79399857D01*
X119396580Y-79387625D01*
X119462026Y-79415144D01*
G37*
%TD.AperFunction*%
%TA.AperFunction,NonConductor*%
G36*
X119462026Y-81955144D02*
G01*
X119489875Y-81986994D01*
X119549987Y-82085088D01*
X119696250Y-82253938D01*
X119868126Y-82396632D01*
X119938595Y-82437811D01*
X119941445Y-82439476D01*
X119990169Y-82491114D01*
X120003240Y-82560897D01*
X119976509Y-82626669D01*
X119936055Y-82660027D01*
X119923607Y-82666507D01*
X119919474Y-82669610D01*
X119919471Y-82669612D01*
X119819374Y-82744767D01*
X119744965Y-82800635D01*
X119741393Y-82804373D01*
X119599748Y-82952596D01*
X119590629Y-82962138D01*
X119483201Y-83119621D01*
X119428293Y-83164621D01*
X119357768Y-83172792D01*
X119294021Y-83141538D01*
X119273324Y-83117054D01*
X119192822Y-82992617D01*
X119192820Y-82992614D01*
X119190014Y-82988277D01*
X119039670Y-82823051D01*
X119035619Y-82819852D01*
X119035615Y-82819848D01*
X118868414Y-82687800D01*
X118868410Y-82687798D01*
X118864359Y-82684598D01*
X118823053Y-82661796D01*
X118773084Y-82611364D01*
X118758312Y-82541921D01*
X118783428Y-82475516D01*
X118810780Y-82448909D01*
X118854603Y-82417650D01*
X118989860Y-82321173D01*
X119148096Y-82163489D01*
X119207594Y-82080689D01*
X119278453Y-81982077D01*
X119279776Y-81983028D01*
X119326645Y-81939857D01*
X119396580Y-81927625D01*
X119462026Y-81955144D01*
G37*
%TD.AperFunction*%
%TA.AperFunction,NonConductor*%
G36*
X119462026Y-84495144D02*
G01*
X119489875Y-84526994D01*
X119549987Y-84625088D01*
X119696250Y-84793938D01*
X119868126Y-84936632D01*
X119938595Y-84977811D01*
X119941445Y-84979476D01*
X119990169Y-85031114D01*
X120003240Y-85100897D01*
X119976509Y-85166669D01*
X119936055Y-85200027D01*
X119923607Y-85206507D01*
X119919474Y-85209610D01*
X119919471Y-85209612D01*
X119819374Y-85284767D01*
X119744965Y-85340635D01*
X119741393Y-85344373D01*
X119599748Y-85492596D01*
X119590629Y-85502138D01*
X119483201Y-85659621D01*
X119428293Y-85704621D01*
X119357768Y-85712792D01*
X119294021Y-85681538D01*
X119273324Y-85657054D01*
X119192822Y-85532617D01*
X119192820Y-85532614D01*
X119190014Y-85528277D01*
X119039670Y-85363051D01*
X119035619Y-85359852D01*
X119035615Y-85359848D01*
X118868414Y-85227800D01*
X118868410Y-85227798D01*
X118864359Y-85224598D01*
X118823053Y-85201796D01*
X118773084Y-85151364D01*
X118758312Y-85081921D01*
X118783428Y-85015516D01*
X118810780Y-84988909D01*
X118854603Y-84957650D01*
X118989860Y-84861173D01*
X119148096Y-84703489D01*
X119207594Y-84620689D01*
X119278453Y-84522077D01*
X119279776Y-84523028D01*
X119326645Y-84479857D01*
X119396580Y-84467625D01*
X119462026Y-84495144D01*
G37*
%TD.AperFunction*%
%TA.AperFunction,NonConductor*%
G36*
X119462026Y-87035144D02*
G01*
X119489875Y-87066994D01*
X119549987Y-87165088D01*
X119696250Y-87333938D01*
X119868126Y-87476632D01*
X119938595Y-87517811D01*
X119941445Y-87519476D01*
X119990169Y-87571114D01*
X120003240Y-87640897D01*
X119976509Y-87706669D01*
X119936055Y-87740027D01*
X119923607Y-87746507D01*
X119919474Y-87749610D01*
X119919471Y-87749612D01*
X119819374Y-87824767D01*
X119744965Y-87880635D01*
X119741393Y-87884373D01*
X119599748Y-88032596D01*
X119590629Y-88042138D01*
X119483201Y-88199621D01*
X119428293Y-88244621D01*
X119357768Y-88252792D01*
X119294021Y-88221538D01*
X119273324Y-88197054D01*
X119192822Y-88072617D01*
X119192820Y-88072614D01*
X119190014Y-88068277D01*
X119039670Y-87903051D01*
X119035619Y-87899852D01*
X119035615Y-87899848D01*
X118868414Y-87767800D01*
X118868410Y-87767798D01*
X118864359Y-87764598D01*
X118823053Y-87741796D01*
X118773084Y-87691364D01*
X118758312Y-87621921D01*
X118783428Y-87555516D01*
X118810780Y-87528909D01*
X118854603Y-87497650D01*
X118989860Y-87401173D01*
X119148096Y-87243489D01*
X119207594Y-87160689D01*
X119278453Y-87062077D01*
X119279776Y-87063028D01*
X119326645Y-87019857D01*
X119396580Y-87007625D01*
X119462026Y-87035144D01*
G37*
%TD.AperFunction*%
%TA.AperFunction,NonConductor*%
G36*
X119462026Y-89575144D02*
G01*
X119489875Y-89606994D01*
X119549987Y-89705088D01*
X119696250Y-89873938D01*
X119868126Y-90016632D01*
X119938595Y-90057811D01*
X119941445Y-90059476D01*
X119990169Y-90111114D01*
X120003240Y-90180897D01*
X119976509Y-90246669D01*
X119936055Y-90280027D01*
X119923607Y-90286507D01*
X119919474Y-90289610D01*
X119919471Y-90289612D01*
X119819374Y-90364767D01*
X119744965Y-90420635D01*
X119741393Y-90424373D01*
X119599748Y-90572596D01*
X119590629Y-90582138D01*
X119483201Y-90739621D01*
X119428293Y-90784621D01*
X119357768Y-90792792D01*
X119294021Y-90761538D01*
X119273324Y-90737054D01*
X119192822Y-90612617D01*
X119192820Y-90612614D01*
X119190014Y-90608277D01*
X119039670Y-90443051D01*
X119035619Y-90439852D01*
X119035615Y-90439848D01*
X118868414Y-90307800D01*
X118868410Y-90307798D01*
X118864359Y-90304598D01*
X118823053Y-90281796D01*
X118773084Y-90231364D01*
X118758312Y-90161921D01*
X118783428Y-90095516D01*
X118810780Y-90068909D01*
X118854603Y-90037650D01*
X118989860Y-89941173D01*
X119148096Y-89783489D01*
X119207594Y-89700689D01*
X119278453Y-89602077D01*
X119279776Y-89603028D01*
X119326645Y-89559857D01*
X119396580Y-89547625D01*
X119462026Y-89575144D01*
G37*
%TD.AperFunction*%
%TA.AperFunction,NonConductor*%
G36*
X119462026Y-92115144D02*
G01*
X119489875Y-92146994D01*
X119549987Y-92245088D01*
X119696250Y-92413938D01*
X119868126Y-92556632D01*
X119938595Y-92597811D01*
X119941445Y-92599476D01*
X119990169Y-92651114D01*
X120003240Y-92720897D01*
X119976509Y-92786669D01*
X119936055Y-92820027D01*
X119923607Y-92826507D01*
X119919474Y-92829610D01*
X119919471Y-92829612D01*
X119819374Y-92904767D01*
X119744965Y-92960635D01*
X119741393Y-92964373D01*
X119599748Y-93112596D01*
X119590629Y-93122138D01*
X119483201Y-93279621D01*
X119428293Y-93324621D01*
X119357768Y-93332792D01*
X119294021Y-93301538D01*
X119273324Y-93277054D01*
X119192822Y-93152617D01*
X119192820Y-93152614D01*
X119190014Y-93148277D01*
X119039670Y-92983051D01*
X119035619Y-92979852D01*
X119035615Y-92979848D01*
X118868414Y-92847800D01*
X118868410Y-92847798D01*
X118864359Y-92844598D01*
X118823053Y-92821796D01*
X118773084Y-92771364D01*
X118758312Y-92701921D01*
X118783428Y-92635516D01*
X118810780Y-92608909D01*
X118854603Y-92577650D01*
X118989860Y-92481173D01*
X119148096Y-92323489D01*
X119207594Y-92240689D01*
X119278453Y-92142077D01*
X119279776Y-92143028D01*
X119326645Y-92099857D01*
X119396580Y-92087625D01*
X119462026Y-92115144D01*
G37*
%TD.AperFunction*%
%TA.AperFunction,NonConductor*%
G36*
X115329728Y-51455002D02*
G01*
X115376221Y-51508658D01*
X115386325Y-51578932D01*
X115378016Y-51609218D01*
X115367039Y-51635720D01*
X115358162Y-51657150D01*
X115337249Y-51816000D01*
X115358162Y-51974850D01*
X115419476Y-52122875D01*
X115517013Y-52249987D01*
X115644125Y-52347524D01*
X115792150Y-52408838D01*
X115911115Y-52424500D01*
X120547783Y-52424500D01*
X120615904Y-52444502D01*
X120662397Y-52498158D01*
X120671899Y-52561555D01*
X120672328Y-52561555D01*
X120672328Y-52564420D01*
X120672706Y-52566941D01*
X120671250Y-52578000D01*
X120676500Y-52617880D01*
X120676500Y-52617885D01*
X120689996Y-52720400D01*
X120692162Y-52736850D01*
X120695321Y-52744476D01*
X120695321Y-52744477D01*
X120749422Y-52875088D01*
X120753476Y-52884876D01*
X120758502Y-52891426D01*
X120841950Y-53000176D01*
X120851013Y-53011987D01*
X120978124Y-53109524D01*
X120985750Y-53112683D01*
X120985752Y-53112684D01*
X121072179Y-53148483D01*
X121126149Y-53170838D01*
X121144629Y-53173271D01*
X121285000Y-53191751D01*
X121293188Y-53190673D01*
X121425371Y-53173271D01*
X121443851Y-53170838D01*
X121591876Y-53109524D01*
X121673046Y-53047240D01*
X121687072Y-53036477D01*
X121687075Y-53036474D01*
X121712437Y-53017013D01*
X121718987Y-53011987D01*
X121738448Y-52986625D01*
X121749315Y-52974234D01*
X122443223Y-52280326D01*
X122455614Y-52269458D01*
X122474443Y-52255010D01*
X122480988Y-52249988D01*
X122578524Y-52122876D01*
X122639838Y-51974851D01*
X122650621Y-51892942D01*
X122660751Y-51816000D01*
X122649442Y-51730098D01*
X122639839Y-51657150D01*
X122630963Y-51635720D01*
X122619985Y-51609219D01*
X122612396Y-51538629D01*
X122644175Y-51475142D01*
X122705233Y-51438914D01*
X122736394Y-51435000D01*
X123699000Y-51435000D01*
X123767121Y-51455002D01*
X123813614Y-51508658D01*
X123825000Y-51561000D01*
X123825000Y-100839000D01*
X123804998Y-100907121D01*
X123751342Y-100953614D01*
X123699000Y-100965000D01*
X122736393Y-100965000D01*
X122668272Y-100944998D01*
X122621779Y-100891342D01*
X122611675Y-100821068D01*
X122619984Y-100790782D01*
X122639838Y-100742851D01*
X122642271Y-100724371D01*
X122660751Y-100584000D01*
X122639839Y-100425150D01*
X122599037Y-100326646D01*
X122581684Y-100284752D01*
X122581683Y-100284750D01*
X122578524Y-100277124D01*
X122480988Y-100150012D01*
X122455613Y-100130541D01*
X122443223Y-100119674D01*
X121749315Y-99425766D01*
X121738448Y-99413375D01*
X121724015Y-99394566D01*
X121718987Y-99388013D01*
X121687074Y-99363525D01*
X121687072Y-99363523D01*
X121598429Y-99295504D01*
X121598426Y-99295502D01*
X121591876Y-99290476D01*
X121443851Y-99229162D01*
X121425371Y-99226729D01*
X121285000Y-99208249D01*
X121126150Y-99229162D01*
X121118523Y-99232321D01*
X121118520Y-99232322D01*
X120985752Y-99287316D01*
X120985750Y-99287317D01*
X120978124Y-99290476D01*
X120851013Y-99388013D01*
X120753476Y-99515124D01*
X120703620Y-99635487D01*
X120692162Y-99663150D01*
X120676500Y-99782115D01*
X120676500Y-99782120D01*
X120671250Y-99822000D01*
X120672328Y-99830186D01*
X120672706Y-99833058D01*
X120672328Y-99835481D01*
X120672328Y-99838445D01*
X120671866Y-99838445D01*
X120661764Y-99903207D01*
X120614634Y-99956304D01*
X120547783Y-99975500D01*
X115911115Y-99975500D01*
X115792150Y-99991162D01*
X115644125Y-100052476D01*
X115615332Y-100074570D01*
X115523566Y-100144984D01*
X115523563Y-100144987D01*
X115517013Y-100150013D01*
X115419476Y-100277124D01*
X115416317Y-100284750D01*
X115416316Y-100284752D01*
X115368618Y-100399908D01*
X115358162Y-100425150D01*
X115337249Y-100584000D01*
X115358162Y-100742850D01*
X115361321Y-100750477D01*
X115361322Y-100750480D01*
X115378016Y-100790782D01*
X115385605Y-100861372D01*
X115353826Y-100924859D01*
X115292767Y-100961086D01*
X115261607Y-100965000D01*
X114426933Y-100965000D01*
X114358812Y-100944998D01*
X114312319Y-100891342D01*
X114302215Y-100821068D01*
X114306374Y-100802372D01*
X114309648Y-100791597D01*
X114362370Y-100618069D01*
X114391529Y-100396590D01*
X114393156Y-100330000D01*
X114374852Y-100107361D01*
X114320431Y-99890702D01*
X114231354Y-99685840D01*
X114120913Y-99515124D01*
X114112822Y-99502617D01*
X114112820Y-99502614D01*
X114110014Y-99498277D01*
X113959670Y-99333051D01*
X113955619Y-99329852D01*
X113955615Y-99329848D01*
X113788414Y-99197800D01*
X113788410Y-99197798D01*
X113784359Y-99194598D01*
X113743053Y-99171796D01*
X113693084Y-99121364D01*
X113678312Y-99051921D01*
X113703428Y-98985516D01*
X113730780Y-98958909D01*
X113774603Y-98927650D01*
X113909860Y-98831173D01*
X114068096Y-98673489D01*
X114127594Y-98590689D01*
X114195435Y-98496277D01*
X114198453Y-98492077D01*
X114219320Y-98449857D01*
X114295136Y-98296453D01*
X114295137Y-98296451D01*
X114297430Y-98291811D01*
X114362370Y-98078069D01*
X114391529Y-97856590D01*
X114393156Y-97790000D01*
X114374852Y-97567361D01*
X114320431Y-97350702D01*
X114231354Y-97145840D01*
X114110014Y-96958277D01*
X113959670Y-96793051D01*
X113955619Y-96789852D01*
X113955615Y-96789848D01*
X113788414Y-96657800D01*
X113788410Y-96657798D01*
X113784359Y-96654598D01*
X113743053Y-96631796D01*
X113693084Y-96581364D01*
X113678312Y-96511921D01*
X113703428Y-96445516D01*
X113730780Y-96418909D01*
X113774603Y-96387650D01*
X113909860Y-96291173D01*
X114068096Y-96133489D01*
X114127594Y-96050689D01*
X114195435Y-95956277D01*
X114198453Y-95952077D01*
X114219320Y-95909857D01*
X114295136Y-95756453D01*
X114295137Y-95756451D01*
X114297430Y-95751811D01*
X114362370Y-95538069D01*
X114391529Y-95316590D01*
X114392177Y-95290062D01*
X114393074Y-95253365D01*
X114393074Y-95253361D01*
X114393156Y-95250000D01*
X114374852Y-95027361D01*
X114320431Y-94810702D01*
X114231354Y-94605840D01*
X114110014Y-94418277D01*
X113959670Y-94253051D01*
X113955619Y-94249852D01*
X113955615Y-94249848D01*
X113788414Y-94117800D01*
X113788410Y-94117798D01*
X113784359Y-94114598D01*
X113743053Y-94091796D01*
X113693084Y-94041364D01*
X113678312Y-93971921D01*
X113687853Y-93946695D01*
X116747251Y-93946695D01*
X116747548Y-93951848D01*
X116747548Y-93951851D01*
X116753011Y-94046590D01*
X116760110Y-94169715D01*
X116761247Y-94174761D01*
X116761248Y-94174767D01*
X116781119Y-94262939D01*
X116809222Y-94387639D01*
X116893266Y-94594616D01*
X116944019Y-94677438D01*
X117007291Y-94780688D01*
X117009987Y-94785088D01*
X117156250Y-94953938D01*
X117328126Y-95096632D01*
X117521000Y-95209338D01*
X117729692Y-95289030D01*
X117734760Y-95290061D01*
X117734763Y-95290062D01*
X117842017Y-95311883D01*
X117948597Y-95333567D01*
X117953772Y-95333757D01*
X117953774Y-95333757D01*
X118166673Y-95341564D01*
X118166677Y-95341564D01*
X118171837Y-95341753D01*
X118176957Y-95341097D01*
X118176959Y-95341097D01*
X118388288Y-95314025D01*
X118388289Y-95314025D01*
X118393416Y-95313368D01*
X118398366Y-95311883D01*
X118602429Y-95250661D01*
X118602434Y-95250659D01*
X118607384Y-95249174D01*
X118807994Y-95150896D01*
X118989860Y-95021173D01*
X119148096Y-94863489D01*
X119207594Y-94780689D01*
X119278453Y-94682077D01*
X119279776Y-94683028D01*
X119326645Y-94639857D01*
X119396580Y-94627625D01*
X119462026Y-94655144D01*
X119489875Y-94686994D01*
X119549987Y-94785088D01*
X119696250Y-94953938D01*
X119868126Y-95096632D01*
X120061000Y-95209338D01*
X120269692Y-95289030D01*
X120274760Y-95290061D01*
X120274763Y-95290062D01*
X120382017Y-95311883D01*
X120488597Y-95333567D01*
X120493772Y-95333757D01*
X120493774Y-95333757D01*
X120706673Y-95341564D01*
X120706677Y-95341564D01*
X120711837Y-95341753D01*
X120716957Y-95341097D01*
X120716959Y-95341097D01*
X120928288Y-95314025D01*
X120928289Y-95314025D01*
X120933416Y-95313368D01*
X120938366Y-95311883D01*
X121142429Y-95250661D01*
X121142434Y-95250659D01*
X121147384Y-95249174D01*
X121347994Y-95150896D01*
X121529860Y-95021173D01*
X121688096Y-94863489D01*
X121747594Y-94780689D01*
X121815435Y-94686277D01*
X121818453Y-94682077D01*
X121839320Y-94639857D01*
X121915136Y-94486453D01*
X121915137Y-94486451D01*
X121917430Y-94481811D01*
X121982370Y-94268069D01*
X122011529Y-94046590D01*
X122013156Y-93980000D01*
X121994852Y-93757361D01*
X121940431Y-93540702D01*
X121851354Y-93335840D01*
X121730014Y-93148277D01*
X121579670Y-92983051D01*
X121575619Y-92979852D01*
X121575615Y-92979848D01*
X121408414Y-92847800D01*
X121408410Y-92847798D01*
X121404359Y-92844598D01*
X121363053Y-92821796D01*
X121313084Y-92771364D01*
X121298312Y-92701921D01*
X121323428Y-92635516D01*
X121350780Y-92608909D01*
X121394603Y-92577650D01*
X121529860Y-92481173D01*
X121688096Y-92323489D01*
X121747594Y-92240689D01*
X121815435Y-92146277D01*
X121818453Y-92142077D01*
X121839320Y-92099857D01*
X121915136Y-91946453D01*
X121915137Y-91946451D01*
X121917430Y-91941811D01*
X121982370Y-91728069D01*
X122011529Y-91506590D01*
X122013156Y-91440000D01*
X121994852Y-91217361D01*
X121940431Y-91000702D01*
X121851354Y-90795840D01*
X121730014Y-90608277D01*
X121579670Y-90443051D01*
X121575619Y-90439852D01*
X121575615Y-90439848D01*
X121408414Y-90307800D01*
X121408410Y-90307798D01*
X121404359Y-90304598D01*
X121363053Y-90281796D01*
X121313084Y-90231364D01*
X121298312Y-90161921D01*
X121323428Y-90095516D01*
X121350780Y-90068909D01*
X121394603Y-90037650D01*
X121529860Y-89941173D01*
X121688096Y-89783489D01*
X121747594Y-89700689D01*
X121815435Y-89606277D01*
X121818453Y-89602077D01*
X121839320Y-89559857D01*
X121915136Y-89406453D01*
X121915137Y-89406451D01*
X121917430Y-89401811D01*
X121982370Y-89188069D01*
X122011529Y-88966590D01*
X122013156Y-88900000D01*
X121994852Y-88677361D01*
X121940431Y-88460702D01*
X121851354Y-88255840D01*
X121730014Y-88068277D01*
X121579670Y-87903051D01*
X121575619Y-87899852D01*
X121575615Y-87899848D01*
X121408414Y-87767800D01*
X121408410Y-87767798D01*
X121404359Y-87764598D01*
X121363053Y-87741796D01*
X121313084Y-87691364D01*
X121298312Y-87621921D01*
X121323428Y-87555516D01*
X121350780Y-87528909D01*
X121394603Y-87497650D01*
X121529860Y-87401173D01*
X121688096Y-87243489D01*
X121747594Y-87160689D01*
X121815435Y-87066277D01*
X121818453Y-87062077D01*
X121839320Y-87019857D01*
X121915136Y-86866453D01*
X121915137Y-86866451D01*
X121917430Y-86861811D01*
X121982370Y-86648069D01*
X122011529Y-86426590D01*
X122013156Y-86360000D01*
X121994852Y-86137361D01*
X121940431Y-85920702D01*
X121851354Y-85715840D01*
X121730014Y-85528277D01*
X121579670Y-85363051D01*
X121575619Y-85359852D01*
X121575615Y-85359848D01*
X121408414Y-85227800D01*
X121408410Y-85227798D01*
X121404359Y-85224598D01*
X121363053Y-85201796D01*
X121313084Y-85151364D01*
X121298312Y-85081921D01*
X121323428Y-85015516D01*
X121350780Y-84988909D01*
X121394603Y-84957650D01*
X121529860Y-84861173D01*
X121688096Y-84703489D01*
X121747594Y-84620689D01*
X121815435Y-84526277D01*
X121818453Y-84522077D01*
X121839320Y-84479857D01*
X121915136Y-84326453D01*
X121915137Y-84326451D01*
X121917430Y-84321811D01*
X121982370Y-84108069D01*
X122011529Y-83886590D01*
X122013156Y-83820000D01*
X121994852Y-83597361D01*
X121940431Y-83380702D01*
X121851354Y-83175840D01*
X121730014Y-82988277D01*
X121579670Y-82823051D01*
X121575619Y-82819852D01*
X121575615Y-82819848D01*
X121408414Y-82687800D01*
X121408410Y-82687798D01*
X121404359Y-82684598D01*
X121363053Y-82661796D01*
X121313084Y-82611364D01*
X121298312Y-82541921D01*
X121323428Y-82475516D01*
X121350780Y-82448909D01*
X121394603Y-82417650D01*
X121529860Y-82321173D01*
X121688096Y-82163489D01*
X121747594Y-82080689D01*
X121815435Y-81986277D01*
X121818453Y-81982077D01*
X121839320Y-81939857D01*
X121915136Y-81786453D01*
X121915137Y-81786451D01*
X121917430Y-81781811D01*
X121982370Y-81568069D01*
X122011529Y-81346590D01*
X122013156Y-81280000D01*
X121994852Y-81057361D01*
X121940431Y-80840702D01*
X121851354Y-80635840D01*
X121730014Y-80448277D01*
X121579670Y-80283051D01*
X121575619Y-80279852D01*
X121575615Y-80279848D01*
X121408414Y-80147800D01*
X121408410Y-80147798D01*
X121404359Y-80144598D01*
X121363053Y-80121796D01*
X121313084Y-80071364D01*
X121298312Y-80001921D01*
X121323428Y-79935516D01*
X121350780Y-79908909D01*
X121394603Y-79877650D01*
X121529860Y-79781173D01*
X121688096Y-79623489D01*
X121747594Y-79540689D01*
X121815435Y-79446277D01*
X121818453Y-79442077D01*
X121839320Y-79399857D01*
X121915136Y-79246453D01*
X121915137Y-79246451D01*
X121917430Y-79241811D01*
X121982370Y-79028069D01*
X122011529Y-78806590D01*
X122013156Y-78740000D01*
X121994852Y-78517361D01*
X121940431Y-78300702D01*
X121851354Y-78095840D01*
X121730014Y-77908277D01*
X121579670Y-77743051D01*
X121575619Y-77739852D01*
X121575615Y-77739848D01*
X121408414Y-77607800D01*
X121408410Y-77607798D01*
X121404359Y-77604598D01*
X121363053Y-77581796D01*
X121313084Y-77531364D01*
X121298312Y-77461921D01*
X121323428Y-77395516D01*
X121350780Y-77368909D01*
X121394603Y-77337650D01*
X121529860Y-77241173D01*
X121688096Y-77083489D01*
X121747594Y-77000689D01*
X121815435Y-76906277D01*
X121818453Y-76902077D01*
X121839320Y-76859857D01*
X121915136Y-76706453D01*
X121915137Y-76706451D01*
X121917430Y-76701811D01*
X121982370Y-76488069D01*
X122011529Y-76266590D01*
X122013156Y-76200000D01*
X121994852Y-75977361D01*
X121940431Y-75760702D01*
X121851354Y-75555840D01*
X121730014Y-75368277D01*
X121579670Y-75203051D01*
X121575619Y-75199852D01*
X121575615Y-75199848D01*
X121408414Y-75067800D01*
X121408410Y-75067798D01*
X121404359Y-75064598D01*
X121363053Y-75041796D01*
X121313084Y-74991364D01*
X121298312Y-74921921D01*
X121323428Y-74855516D01*
X121350780Y-74828909D01*
X121394603Y-74797650D01*
X121529860Y-74701173D01*
X121688096Y-74543489D01*
X121747594Y-74460689D01*
X121815435Y-74366277D01*
X121818453Y-74362077D01*
X121839320Y-74319857D01*
X121915136Y-74166453D01*
X121915137Y-74166451D01*
X121917430Y-74161811D01*
X121982370Y-73948069D01*
X122011529Y-73726590D01*
X122013156Y-73660000D01*
X121994852Y-73437361D01*
X121940431Y-73220702D01*
X121851354Y-73015840D01*
X121730014Y-72828277D01*
X121579670Y-72663051D01*
X121575619Y-72659852D01*
X121575615Y-72659848D01*
X121408414Y-72527800D01*
X121408410Y-72527798D01*
X121404359Y-72524598D01*
X121363053Y-72501796D01*
X121313084Y-72451364D01*
X121298312Y-72381921D01*
X121323428Y-72315516D01*
X121350780Y-72288909D01*
X121394603Y-72257650D01*
X121529860Y-72161173D01*
X121688096Y-72003489D01*
X121747594Y-71920689D01*
X121815435Y-71826277D01*
X121818453Y-71822077D01*
X121839320Y-71779857D01*
X121915136Y-71626453D01*
X121915137Y-71626451D01*
X121917430Y-71621811D01*
X121982370Y-71408069D01*
X122011529Y-71186590D01*
X122013156Y-71120000D01*
X121994852Y-70897361D01*
X121940431Y-70680702D01*
X121851354Y-70475840D01*
X121730014Y-70288277D01*
X121579670Y-70123051D01*
X121575619Y-70119852D01*
X121575615Y-70119848D01*
X121408414Y-69987800D01*
X121408410Y-69987798D01*
X121404359Y-69984598D01*
X121363053Y-69961796D01*
X121313084Y-69911364D01*
X121298312Y-69841921D01*
X121323428Y-69775516D01*
X121350780Y-69748909D01*
X121394603Y-69717650D01*
X121529860Y-69621173D01*
X121688096Y-69463489D01*
X121747594Y-69380689D01*
X121815435Y-69286277D01*
X121818453Y-69282077D01*
X121839320Y-69239857D01*
X121915136Y-69086453D01*
X121915137Y-69086451D01*
X121917430Y-69081811D01*
X121982370Y-68868069D01*
X122011529Y-68646590D01*
X122013156Y-68580000D01*
X121994852Y-68357361D01*
X121940431Y-68140702D01*
X121851354Y-67935840D01*
X121730014Y-67748277D01*
X121579670Y-67583051D01*
X121575619Y-67579852D01*
X121575615Y-67579848D01*
X121408414Y-67447800D01*
X121408410Y-67447798D01*
X121404359Y-67444598D01*
X121363053Y-67421796D01*
X121313084Y-67371364D01*
X121298312Y-67301921D01*
X121323428Y-67235516D01*
X121350780Y-67208909D01*
X121394603Y-67177650D01*
X121529860Y-67081173D01*
X121688096Y-66923489D01*
X121747594Y-66840689D01*
X121815435Y-66746277D01*
X121818453Y-66742077D01*
X121839320Y-66699857D01*
X121915136Y-66546453D01*
X121915137Y-66546451D01*
X121917430Y-66541811D01*
X121982370Y-66328069D01*
X122011529Y-66106590D01*
X122013156Y-66040000D01*
X121994852Y-65817361D01*
X121940431Y-65600702D01*
X121851354Y-65395840D01*
X121730014Y-65208277D01*
X121579670Y-65043051D01*
X121575619Y-65039852D01*
X121575615Y-65039848D01*
X121408414Y-64907800D01*
X121408410Y-64907798D01*
X121404359Y-64904598D01*
X121363053Y-64881796D01*
X121313084Y-64831364D01*
X121298312Y-64761921D01*
X121323428Y-64695516D01*
X121350780Y-64668909D01*
X121394603Y-64637650D01*
X121529860Y-64541173D01*
X121688096Y-64383489D01*
X121747594Y-64300689D01*
X121815435Y-64206277D01*
X121818453Y-64202077D01*
X121839320Y-64159857D01*
X121915136Y-64006453D01*
X121915137Y-64006451D01*
X121917430Y-64001811D01*
X121982370Y-63788069D01*
X122011529Y-63566590D01*
X122013156Y-63500000D01*
X121994852Y-63277361D01*
X121940431Y-63060702D01*
X121851354Y-62855840D01*
X121730014Y-62668277D01*
X121579670Y-62503051D01*
X121575619Y-62499852D01*
X121575615Y-62499848D01*
X121408414Y-62367800D01*
X121408410Y-62367798D01*
X121404359Y-62364598D01*
X121363053Y-62341796D01*
X121313084Y-62291364D01*
X121298312Y-62221921D01*
X121323428Y-62155516D01*
X121350780Y-62128909D01*
X121394603Y-62097650D01*
X121529860Y-62001173D01*
X121688096Y-61843489D01*
X121747594Y-61760689D01*
X121815435Y-61666277D01*
X121818453Y-61662077D01*
X121839320Y-61619857D01*
X121915136Y-61466453D01*
X121915137Y-61466451D01*
X121917430Y-61461811D01*
X121982370Y-61248069D01*
X122011529Y-61026590D01*
X122013156Y-60960000D01*
X121994852Y-60737361D01*
X121940431Y-60520702D01*
X121851354Y-60315840D01*
X121730014Y-60128277D01*
X121579670Y-59963051D01*
X121537006Y-59929357D01*
X121495944Y-59871441D01*
X121492712Y-59800518D01*
X121528337Y-59739107D01*
X121561647Y-59716376D01*
X121567007Y-59713865D01*
X121573946Y-59711550D01*
X121724348Y-59618478D01*
X121849305Y-59493303D01*
X121888580Y-59429588D01*
X121938275Y-59348968D01*
X121938276Y-59348966D01*
X121942115Y-59342738D01*
X121984613Y-59214610D01*
X121995632Y-59181389D01*
X121995632Y-59181387D01*
X121997797Y-59174861D01*
X122008500Y-59070400D01*
X122008500Y-57769600D01*
X121997526Y-57663834D01*
X121995064Y-57656453D01*
X121943868Y-57503002D01*
X121941550Y-57496054D01*
X121848478Y-57345652D01*
X121723303Y-57220695D01*
X121717072Y-57216854D01*
X121578968Y-57131725D01*
X121578966Y-57131724D01*
X121572738Y-57127885D01*
X121412254Y-57074655D01*
X121411389Y-57074368D01*
X121411387Y-57074368D01*
X121404861Y-57072203D01*
X121398025Y-57071503D01*
X121398022Y-57071502D01*
X121354969Y-57067091D01*
X121300400Y-57061500D01*
X119999600Y-57061500D01*
X119996354Y-57061837D01*
X119996350Y-57061837D01*
X119900692Y-57071762D01*
X119900688Y-57071763D01*
X119893834Y-57072474D01*
X119887298Y-57074655D01*
X119887296Y-57074655D01*
X119824631Y-57095562D01*
X119726054Y-57128450D01*
X119575652Y-57221522D01*
X119570479Y-57226704D01*
X119512686Y-57284598D01*
X119450695Y-57346697D01*
X119446855Y-57352927D01*
X119446854Y-57352928D01*
X119362470Y-57489824D01*
X119357885Y-57497262D01*
X119355579Y-57504213D01*
X119353561Y-57508542D01*
X119306644Y-57561828D01*
X119238367Y-57581290D01*
X119170407Y-57560749D01*
X119146172Y-57540094D01*
X119043152Y-57426876D01*
X119043142Y-57426867D01*
X119039670Y-57423051D01*
X119035619Y-57419852D01*
X119035615Y-57419848D01*
X118868414Y-57287800D01*
X118868410Y-57287798D01*
X118864359Y-57284598D01*
X118668789Y-57176638D01*
X118663920Y-57174914D01*
X118663916Y-57174912D01*
X118463087Y-57103795D01*
X118463083Y-57103794D01*
X118458212Y-57102069D01*
X118453119Y-57101162D01*
X118453116Y-57101161D01*
X118243373Y-57063800D01*
X118243367Y-57063799D01*
X118238284Y-57062894D01*
X118164452Y-57061992D01*
X118020081Y-57060228D01*
X118020079Y-57060228D01*
X118014911Y-57060165D01*
X117794091Y-57093955D01*
X117581756Y-57163357D01*
X117551443Y-57179137D01*
X117461678Y-57225866D01*
X117383607Y-57266507D01*
X117379474Y-57269610D01*
X117379471Y-57269612D01*
X117209100Y-57397530D01*
X117204965Y-57400635D01*
X117174095Y-57432939D01*
X117059748Y-57552596D01*
X117050629Y-57562138D01*
X116924743Y-57746680D01*
X116830688Y-57949305D01*
X116770989Y-58164570D01*
X116747251Y-58386695D01*
X116747548Y-58391848D01*
X116747548Y-58391851D01*
X116749941Y-58433357D01*
X116760110Y-58609715D01*
X116761247Y-58614761D01*
X116761248Y-58614767D01*
X116785304Y-58721508D01*
X116809222Y-58827639D01*
X116893266Y-59034616D01*
X116917154Y-59073598D01*
X116995475Y-59201406D01*
X117009987Y-59225088D01*
X117156250Y-59393938D01*
X117328126Y-59536632D01*
X117398595Y-59577811D01*
X117401445Y-59579476D01*
X117450169Y-59631114D01*
X117463240Y-59700897D01*
X117436509Y-59766669D01*
X117396055Y-59800027D01*
X117383607Y-59806507D01*
X117379474Y-59809610D01*
X117379471Y-59809612D01*
X117209100Y-59937530D01*
X117204965Y-59940635D01*
X117201393Y-59944373D01*
X117059748Y-60092596D01*
X117050629Y-60102138D01*
X116924743Y-60286680D01*
X116830688Y-60489305D01*
X116770989Y-60704570D01*
X116747251Y-60926695D01*
X116747548Y-60931848D01*
X116747548Y-60931851D01*
X116753011Y-61026590D01*
X116760110Y-61149715D01*
X116761247Y-61154761D01*
X116761248Y-61154767D01*
X116781119Y-61242939D01*
X116809222Y-61367639D01*
X116893266Y-61574616D01*
X116944019Y-61657438D01*
X117007291Y-61760688D01*
X117009987Y-61765088D01*
X117156250Y-61933938D01*
X117328126Y-62076632D01*
X117398595Y-62117811D01*
X117401445Y-62119476D01*
X117450169Y-62171114D01*
X117463240Y-62240897D01*
X117436509Y-62306669D01*
X117396055Y-62340027D01*
X117383607Y-62346507D01*
X117379474Y-62349610D01*
X117379471Y-62349612D01*
X117279374Y-62424767D01*
X117204965Y-62480635D01*
X117201393Y-62484373D01*
X117059748Y-62632596D01*
X117050629Y-62642138D01*
X116924743Y-62826680D01*
X116830688Y-63029305D01*
X116770989Y-63244570D01*
X116747251Y-63466695D01*
X116747548Y-63471848D01*
X116747548Y-63471851D01*
X116753011Y-63566590D01*
X116760110Y-63689715D01*
X116761247Y-63694761D01*
X116761248Y-63694767D01*
X116781119Y-63782939D01*
X116809222Y-63907639D01*
X116893266Y-64114616D01*
X116944019Y-64197438D01*
X117007291Y-64300688D01*
X117009987Y-64305088D01*
X117156250Y-64473938D01*
X117328126Y-64616632D01*
X117398595Y-64657811D01*
X117401445Y-64659476D01*
X117450169Y-64711114D01*
X117463240Y-64780897D01*
X117436509Y-64846669D01*
X117396055Y-64880027D01*
X117383607Y-64886507D01*
X117379474Y-64889610D01*
X117379471Y-64889612D01*
X117279374Y-64964767D01*
X117204965Y-65020635D01*
X117201393Y-65024373D01*
X117059748Y-65172596D01*
X117050629Y-65182138D01*
X116924743Y-65366680D01*
X116830688Y-65569305D01*
X116770989Y-65784570D01*
X116747251Y-66006695D01*
X116747548Y-66011848D01*
X116747548Y-66011851D01*
X116753011Y-66106590D01*
X116760110Y-66229715D01*
X116761247Y-66234761D01*
X116761248Y-66234767D01*
X116781119Y-66322939D01*
X116809222Y-66447639D01*
X116893266Y-66654616D01*
X116944019Y-66737438D01*
X117007291Y-66840688D01*
X117009987Y-66845088D01*
X117156250Y-67013938D01*
X117328126Y-67156632D01*
X117398595Y-67197811D01*
X117401445Y-67199476D01*
X117450169Y-67251114D01*
X117463240Y-67320897D01*
X117436509Y-67386669D01*
X117396055Y-67420027D01*
X117383607Y-67426507D01*
X117379474Y-67429610D01*
X117379471Y-67429612D01*
X117279374Y-67504767D01*
X117204965Y-67560635D01*
X117201393Y-67564373D01*
X117059748Y-67712596D01*
X117050629Y-67722138D01*
X116924743Y-67906680D01*
X116830688Y-68109305D01*
X116770989Y-68324570D01*
X116747251Y-68546695D01*
X116747548Y-68551848D01*
X116747548Y-68551851D01*
X116753011Y-68646590D01*
X116760110Y-68769715D01*
X116761247Y-68774761D01*
X116761248Y-68774767D01*
X116781119Y-68862939D01*
X116809222Y-68987639D01*
X116893266Y-69194616D01*
X116944019Y-69277438D01*
X117007291Y-69380688D01*
X117009987Y-69385088D01*
X117156250Y-69553938D01*
X117328126Y-69696632D01*
X117398595Y-69737811D01*
X117401445Y-69739476D01*
X117450169Y-69791114D01*
X117463240Y-69860897D01*
X117436509Y-69926669D01*
X117396055Y-69960027D01*
X117383607Y-69966507D01*
X117379474Y-69969610D01*
X117379471Y-69969612D01*
X117279374Y-70044767D01*
X117204965Y-70100635D01*
X117201393Y-70104373D01*
X117059748Y-70252596D01*
X117050629Y-70262138D01*
X116924743Y-70446680D01*
X116830688Y-70649305D01*
X116770989Y-70864570D01*
X116747251Y-71086695D01*
X116747548Y-71091848D01*
X116747548Y-71091851D01*
X116753011Y-71186590D01*
X116760110Y-71309715D01*
X116761247Y-71314761D01*
X116761248Y-71314767D01*
X116781119Y-71402939D01*
X116809222Y-71527639D01*
X116893266Y-71734616D01*
X116944019Y-71817438D01*
X117007291Y-71920688D01*
X117009987Y-71925088D01*
X117156250Y-72093938D01*
X117328126Y-72236632D01*
X117398595Y-72277811D01*
X117401445Y-72279476D01*
X117450169Y-72331114D01*
X117463240Y-72400897D01*
X117436509Y-72466669D01*
X117396055Y-72500027D01*
X117383607Y-72506507D01*
X117379474Y-72509610D01*
X117379471Y-72509612D01*
X117279374Y-72584767D01*
X117204965Y-72640635D01*
X117201393Y-72644373D01*
X117059748Y-72792596D01*
X117050629Y-72802138D01*
X116924743Y-72986680D01*
X116830688Y-73189305D01*
X116770989Y-73404570D01*
X116747251Y-73626695D01*
X116747548Y-73631848D01*
X116747548Y-73631851D01*
X116753011Y-73726590D01*
X116760110Y-73849715D01*
X116761247Y-73854761D01*
X116761248Y-73854767D01*
X116781119Y-73942939D01*
X116809222Y-74067639D01*
X116893266Y-74274616D01*
X116944019Y-74357438D01*
X117007291Y-74460688D01*
X117009987Y-74465088D01*
X117156250Y-74633938D01*
X117328126Y-74776632D01*
X117398595Y-74817811D01*
X117401445Y-74819476D01*
X117450169Y-74871114D01*
X117463240Y-74940897D01*
X117436509Y-75006669D01*
X117396055Y-75040027D01*
X117383607Y-75046507D01*
X117379474Y-75049610D01*
X117379471Y-75049612D01*
X117279374Y-75124767D01*
X117204965Y-75180635D01*
X117201393Y-75184373D01*
X117059748Y-75332596D01*
X117050629Y-75342138D01*
X116924743Y-75526680D01*
X116830688Y-75729305D01*
X116770989Y-75944570D01*
X116747251Y-76166695D01*
X116747548Y-76171848D01*
X116747548Y-76171851D01*
X116753011Y-76266590D01*
X116760110Y-76389715D01*
X116761247Y-76394761D01*
X116761248Y-76394767D01*
X116781119Y-76482939D01*
X116809222Y-76607639D01*
X116893266Y-76814616D01*
X116944019Y-76897438D01*
X117007291Y-77000688D01*
X117009987Y-77005088D01*
X117156250Y-77173938D01*
X117328126Y-77316632D01*
X117398595Y-77357811D01*
X117401445Y-77359476D01*
X117450169Y-77411114D01*
X117463240Y-77480897D01*
X117436509Y-77546669D01*
X117396055Y-77580027D01*
X117383607Y-77586507D01*
X117379474Y-77589610D01*
X117379471Y-77589612D01*
X117279374Y-77664767D01*
X117204965Y-77720635D01*
X117201393Y-77724373D01*
X117059748Y-77872596D01*
X117050629Y-77882138D01*
X116924743Y-78066680D01*
X116830688Y-78269305D01*
X116770989Y-78484570D01*
X116747251Y-78706695D01*
X116747548Y-78711848D01*
X116747548Y-78711851D01*
X116753011Y-78806590D01*
X116760110Y-78929715D01*
X116761247Y-78934761D01*
X116761248Y-78934767D01*
X116781119Y-79022939D01*
X116809222Y-79147639D01*
X116893266Y-79354616D01*
X116944019Y-79437438D01*
X117007291Y-79540688D01*
X117009987Y-79545088D01*
X117156250Y-79713938D01*
X117328126Y-79856632D01*
X117398595Y-79897811D01*
X117401445Y-79899476D01*
X117450169Y-79951114D01*
X117463240Y-80020897D01*
X117436509Y-80086669D01*
X117396055Y-80120027D01*
X117383607Y-80126507D01*
X117379474Y-80129610D01*
X117379471Y-80129612D01*
X117279374Y-80204767D01*
X117204965Y-80260635D01*
X117201393Y-80264373D01*
X117059748Y-80412596D01*
X117050629Y-80422138D01*
X116924743Y-80606680D01*
X116830688Y-80809305D01*
X116770989Y-81024570D01*
X116747251Y-81246695D01*
X116747548Y-81251848D01*
X116747548Y-81251851D01*
X116753011Y-81346590D01*
X116760110Y-81469715D01*
X116761247Y-81474761D01*
X116761248Y-81474767D01*
X116781119Y-81562939D01*
X116809222Y-81687639D01*
X116893266Y-81894616D01*
X116944019Y-81977438D01*
X117007291Y-82080688D01*
X117009987Y-82085088D01*
X117156250Y-82253938D01*
X117328126Y-82396632D01*
X117398595Y-82437811D01*
X117401445Y-82439476D01*
X117450169Y-82491114D01*
X117463240Y-82560897D01*
X117436509Y-82626669D01*
X117396055Y-82660027D01*
X117383607Y-82666507D01*
X117379474Y-82669610D01*
X117379471Y-82669612D01*
X117279374Y-82744767D01*
X117204965Y-82800635D01*
X117201393Y-82804373D01*
X117059748Y-82952596D01*
X117050629Y-82962138D01*
X116924743Y-83146680D01*
X116830688Y-83349305D01*
X116770989Y-83564570D01*
X116747251Y-83786695D01*
X116747548Y-83791848D01*
X116747548Y-83791851D01*
X116753011Y-83886590D01*
X116760110Y-84009715D01*
X116761247Y-84014761D01*
X116761248Y-84014767D01*
X116781119Y-84102939D01*
X116809222Y-84227639D01*
X116893266Y-84434616D01*
X116944019Y-84517438D01*
X117007291Y-84620688D01*
X117009987Y-84625088D01*
X117156250Y-84793938D01*
X117328126Y-84936632D01*
X117398595Y-84977811D01*
X117401445Y-84979476D01*
X117450169Y-85031114D01*
X117463240Y-85100897D01*
X117436509Y-85166669D01*
X117396055Y-85200027D01*
X117383607Y-85206507D01*
X117379474Y-85209610D01*
X117379471Y-85209612D01*
X117279374Y-85284767D01*
X117204965Y-85340635D01*
X117201393Y-85344373D01*
X117059748Y-85492596D01*
X117050629Y-85502138D01*
X116924743Y-85686680D01*
X116830688Y-85889305D01*
X116770989Y-86104570D01*
X116747251Y-86326695D01*
X116747548Y-86331848D01*
X116747548Y-86331851D01*
X116753011Y-86426590D01*
X116760110Y-86549715D01*
X116761247Y-86554761D01*
X116761248Y-86554767D01*
X116781119Y-86642939D01*
X116809222Y-86767639D01*
X116893266Y-86974616D01*
X116944019Y-87057438D01*
X117007291Y-87160688D01*
X117009987Y-87165088D01*
X117156250Y-87333938D01*
X117328126Y-87476632D01*
X117398595Y-87517811D01*
X117401445Y-87519476D01*
X117450169Y-87571114D01*
X117463240Y-87640897D01*
X117436509Y-87706669D01*
X117396055Y-87740027D01*
X117383607Y-87746507D01*
X117379474Y-87749610D01*
X117379471Y-87749612D01*
X117279374Y-87824767D01*
X117204965Y-87880635D01*
X117201393Y-87884373D01*
X117059748Y-88032596D01*
X117050629Y-88042138D01*
X116924743Y-88226680D01*
X116830688Y-88429305D01*
X116770989Y-88644570D01*
X116747251Y-88866695D01*
X116747548Y-88871848D01*
X116747548Y-88871851D01*
X116753011Y-88966590D01*
X116760110Y-89089715D01*
X116761247Y-89094761D01*
X116761248Y-89094767D01*
X116781119Y-89182939D01*
X116809222Y-89307639D01*
X116893266Y-89514616D01*
X116944019Y-89597438D01*
X117007291Y-89700688D01*
X117009987Y-89705088D01*
X117156250Y-89873938D01*
X117328126Y-90016632D01*
X117398595Y-90057811D01*
X117401445Y-90059476D01*
X117450169Y-90111114D01*
X117463240Y-90180897D01*
X117436509Y-90246669D01*
X117396055Y-90280027D01*
X117383607Y-90286507D01*
X117379474Y-90289610D01*
X117379471Y-90289612D01*
X117279374Y-90364767D01*
X117204965Y-90420635D01*
X117201393Y-90424373D01*
X117059748Y-90572596D01*
X117050629Y-90582138D01*
X116924743Y-90766680D01*
X116830688Y-90969305D01*
X116770989Y-91184570D01*
X116747251Y-91406695D01*
X116747548Y-91411848D01*
X116747548Y-91411851D01*
X116753011Y-91506590D01*
X116760110Y-91629715D01*
X116761247Y-91634761D01*
X116761248Y-91634767D01*
X116781119Y-91722939D01*
X116809222Y-91847639D01*
X116893266Y-92054616D01*
X116944019Y-92137438D01*
X117007291Y-92240688D01*
X117009987Y-92245088D01*
X117156250Y-92413938D01*
X117328126Y-92556632D01*
X117398595Y-92597811D01*
X117401445Y-92599476D01*
X117450169Y-92651114D01*
X117463240Y-92720897D01*
X117436509Y-92786669D01*
X117396055Y-92820027D01*
X117383607Y-92826507D01*
X117379474Y-92829610D01*
X117379471Y-92829612D01*
X117279374Y-92904767D01*
X117204965Y-92960635D01*
X117201393Y-92964373D01*
X117059748Y-93112596D01*
X117050629Y-93122138D01*
X116924743Y-93306680D01*
X116830688Y-93509305D01*
X116770989Y-93724570D01*
X116747251Y-93946695D01*
X113687853Y-93946695D01*
X113703428Y-93905516D01*
X113730780Y-93878909D01*
X113774603Y-93847650D01*
X113909860Y-93751173D01*
X114068096Y-93593489D01*
X114127594Y-93510689D01*
X114195435Y-93416277D01*
X114198453Y-93412077D01*
X114219320Y-93369857D01*
X114295136Y-93216453D01*
X114295137Y-93216451D01*
X114297430Y-93211811D01*
X114362370Y-92998069D01*
X114391529Y-92776590D01*
X114393156Y-92710000D01*
X114374852Y-92487361D01*
X114320431Y-92270702D01*
X114231354Y-92065840D01*
X114110014Y-91878277D01*
X113959670Y-91713051D01*
X113955619Y-91709852D01*
X113955615Y-91709848D01*
X113788414Y-91577800D01*
X113788410Y-91577798D01*
X113784359Y-91574598D01*
X113743053Y-91551796D01*
X113693084Y-91501364D01*
X113678312Y-91431921D01*
X113703428Y-91365516D01*
X113730780Y-91338909D01*
X113774603Y-91307650D01*
X113909860Y-91211173D01*
X114068096Y-91053489D01*
X114127594Y-90970689D01*
X114195435Y-90876277D01*
X114198453Y-90872077D01*
X114219320Y-90829857D01*
X114295136Y-90676453D01*
X114295137Y-90676451D01*
X114297430Y-90671811D01*
X114362370Y-90458069D01*
X114391529Y-90236590D01*
X114393156Y-90170000D01*
X114374852Y-89947361D01*
X114320431Y-89730702D01*
X114231354Y-89525840D01*
X114110014Y-89338277D01*
X113959670Y-89173051D01*
X113955619Y-89169852D01*
X113955615Y-89169848D01*
X113788414Y-89037800D01*
X113788410Y-89037798D01*
X113784359Y-89034598D01*
X113743053Y-89011796D01*
X113693084Y-88961364D01*
X113678312Y-88891921D01*
X113703428Y-88825516D01*
X113730780Y-88798909D01*
X113774603Y-88767650D01*
X113909860Y-88671173D01*
X114068096Y-88513489D01*
X114127594Y-88430689D01*
X114195435Y-88336277D01*
X114198453Y-88332077D01*
X114219320Y-88289857D01*
X114295136Y-88136453D01*
X114295137Y-88136451D01*
X114297430Y-88131811D01*
X114362370Y-87918069D01*
X114391529Y-87696590D01*
X114393156Y-87630000D01*
X114374852Y-87407361D01*
X114320431Y-87190702D01*
X114231354Y-86985840D01*
X114110014Y-86798277D01*
X113959670Y-86633051D01*
X113955619Y-86629852D01*
X113955615Y-86629848D01*
X113788414Y-86497800D01*
X113788410Y-86497798D01*
X113784359Y-86494598D01*
X113743053Y-86471796D01*
X113693084Y-86421364D01*
X113678312Y-86351921D01*
X113703428Y-86285516D01*
X113730780Y-86258909D01*
X113774603Y-86227650D01*
X113909860Y-86131173D01*
X114068096Y-85973489D01*
X114127594Y-85890689D01*
X114195435Y-85796277D01*
X114198453Y-85792077D01*
X114219320Y-85749857D01*
X114295136Y-85596453D01*
X114295137Y-85596451D01*
X114297430Y-85591811D01*
X114362370Y-85378069D01*
X114391529Y-85156590D01*
X114393156Y-85090000D01*
X114374852Y-84867361D01*
X114320431Y-84650702D01*
X114231354Y-84445840D01*
X114110014Y-84258277D01*
X113959670Y-84093051D01*
X113955619Y-84089852D01*
X113955615Y-84089848D01*
X113788414Y-83957800D01*
X113788410Y-83957798D01*
X113784359Y-83954598D01*
X113743053Y-83931796D01*
X113693084Y-83881364D01*
X113678312Y-83811921D01*
X113703428Y-83745516D01*
X113730780Y-83718909D01*
X113774603Y-83687650D01*
X113909860Y-83591173D01*
X114068096Y-83433489D01*
X114127594Y-83350689D01*
X114195435Y-83256277D01*
X114198453Y-83252077D01*
X114219320Y-83209857D01*
X114295136Y-83056453D01*
X114295137Y-83056451D01*
X114297430Y-83051811D01*
X114362370Y-82838069D01*
X114391529Y-82616590D01*
X114393156Y-82550000D01*
X114374852Y-82327361D01*
X114320431Y-82110702D01*
X114231354Y-81905840D01*
X114110014Y-81718277D01*
X113959670Y-81553051D01*
X113955619Y-81549852D01*
X113955615Y-81549848D01*
X113788414Y-81417800D01*
X113788410Y-81417798D01*
X113784359Y-81414598D01*
X113743053Y-81391796D01*
X113693084Y-81341364D01*
X113678312Y-81271921D01*
X113703428Y-81205516D01*
X113730780Y-81178909D01*
X113774603Y-81147650D01*
X113909860Y-81051173D01*
X114068096Y-80893489D01*
X114127594Y-80810689D01*
X114195435Y-80716277D01*
X114198453Y-80712077D01*
X114219320Y-80669857D01*
X114295136Y-80516453D01*
X114295137Y-80516451D01*
X114297430Y-80511811D01*
X114362370Y-80298069D01*
X114391529Y-80076590D01*
X114393156Y-80010000D01*
X114374852Y-79787361D01*
X114320431Y-79570702D01*
X114231354Y-79365840D01*
X114110014Y-79178277D01*
X113959670Y-79013051D01*
X113955619Y-79009852D01*
X113955615Y-79009848D01*
X113788414Y-78877800D01*
X113788410Y-78877798D01*
X113784359Y-78874598D01*
X113743053Y-78851796D01*
X113693084Y-78801364D01*
X113678312Y-78731921D01*
X113703428Y-78665516D01*
X113730780Y-78638909D01*
X113774603Y-78607650D01*
X113909860Y-78511173D01*
X114068096Y-78353489D01*
X114127594Y-78270689D01*
X114195435Y-78176277D01*
X114198453Y-78172077D01*
X114219320Y-78129857D01*
X114295136Y-77976453D01*
X114295137Y-77976451D01*
X114297430Y-77971811D01*
X114362370Y-77758069D01*
X114391529Y-77536590D01*
X114393156Y-77470000D01*
X114374852Y-77247361D01*
X114320431Y-77030702D01*
X114231354Y-76825840D01*
X114110014Y-76638277D01*
X113959670Y-76473051D01*
X113955619Y-76469852D01*
X113955615Y-76469848D01*
X113788414Y-76337800D01*
X113788410Y-76337798D01*
X113784359Y-76334598D01*
X113743053Y-76311796D01*
X113693084Y-76261364D01*
X113678312Y-76191921D01*
X113703428Y-76125516D01*
X113730780Y-76098909D01*
X113774603Y-76067650D01*
X113909860Y-75971173D01*
X114068096Y-75813489D01*
X114127594Y-75730689D01*
X114195435Y-75636277D01*
X114198453Y-75632077D01*
X114219320Y-75589857D01*
X114295136Y-75436453D01*
X114295137Y-75436451D01*
X114297430Y-75431811D01*
X114362370Y-75218069D01*
X114391529Y-74996590D01*
X114393156Y-74930000D01*
X114374852Y-74707361D01*
X114320431Y-74490702D01*
X114231354Y-74285840D01*
X114110014Y-74098277D01*
X113959670Y-73933051D01*
X113955619Y-73929852D01*
X113955615Y-73929848D01*
X113788414Y-73797800D01*
X113788410Y-73797798D01*
X113784359Y-73794598D01*
X113743053Y-73771796D01*
X113693084Y-73721364D01*
X113678312Y-73651921D01*
X113703428Y-73585516D01*
X113730780Y-73558909D01*
X113774603Y-73527650D01*
X113909860Y-73431173D01*
X114068096Y-73273489D01*
X114127594Y-73190689D01*
X114195435Y-73096277D01*
X114198453Y-73092077D01*
X114219320Y-73049857D01*
X114295136Y-72896453D01*
X114295137Y-72896451D01*
X114297430Y-72891811D01*
X114362370Y-72678069D01*
X114391529Y-72456590D01*
X114393156Y-72390000D01*
X114374852Y-72167361D01*
X114320431Y-71950702D01*
X114231354Y-71745840D01*
X114110014Y-71558277D01*
X113959670Y-71393051D01*
X113955619Y-71389852D01*
X113955615Y-71389848D01*
X113788414Y-71257800D01*
X113788410Y-71257798D01*
X113784359Y-71254598D01*
X113743053Y-71231796D01*
X113693084Y-71181364D01*
X113678312Y-71111921D01*
X113703428Y-71045516D01*
X113730780Y-71018909D01*
X113774603Y-70987650D01*
X113909860Y-70891173D01*
X114068096Y-70733489D01*
X114127594Y-70650689D01*
X114195435Y-70556277D01*
X114198453Y-70552077D01*
X114219320Y-70509857D01*
X114295136Y-70356453D01*
X114295137Y-70356451D01*
X114297430Y-70351811D01*
X114362370Y-70138069D01*
X114391529Y-69916590D01*
X114393156Y-69850000D01*
X114374852Y-69627361D01*
X114320431Y-69410702D01*
X114231354Y-69205840D01*
X114110014Y-69018277D01*
X113959670Y-68853051D01*
X113955619Y-68849852D01*
X113955615Y-68849848D01*
X113788414Y-68717800D01*
X113788410Y-68717798D01*
X113784359Y-68714598D01*
X113743053Y-68691796D01*
X113693084Y-68641364D01*
X113678312Y-68571921D01*
X113703428Y-68505516D01*
X113730780Y-68478909D01*
X113774603Y-68447650D01*
X113909860Y-68351173D01*
X114068096Y-68193489D01*
X114127594Y-68110689D01*
X114195435Y-68016277D01*
X114198453Y-68012077D01*
X114219320Y-67969857D01*
X114295136Y-67816453D01*
X114295137Y-67816451D01*
X114297430Y-67811811D01*
X114362370Y-67598069D01*
X114391529Y-67376590D01*
X114393156Y-67310000D01*
X114374852Y-67087361D01*
X114320431Y-66870702D01*
X114231354Y-66665840D01*
X114110014Y-66478277D01*
X113959670Y-66313051D01*
X113955619Y-66309852D01*
X113955615Y-66309848D01*
X113788414Y-66177800D01*
X113788410Y-66177798D01*
X113784359Y-66174598D01*
X113743053Y-66151796D01*
X113693084Y-66101364D01*
X113678312Y-66031921D01*
X113703428Y-65965516D01*
X113730780Y-65938909D01*
X113774603Y-65907650D01*
X113909860Y-65811173D01*
X114068096Y-65653489D01*
X114127594Y-65570689D01*
X114195435Y-65476277D01*
X114198453Y-65472077D01*
X114219320Y-65429857D01*
X114295136Y-65276453D01*
X114295137Y-65276451D01*
X114297430Y-65271811D01*
X114362370Y-65058069D01*
X114391529Y-64836590D01*
X114393156Y-64770000D01*
X114374852Y-64547361D01*
X114320431Y-64330702D01*
X114231354Y-64125840D01*
X114110014Y-63938277D01*
X113959670Y-63773051D01*
X113955619Y-63769852D01*
X113955615Y-63769848D01*
X113788414Y-63637800D01*
X113788410Y-63637798D01*
X113784359Y-63634598D01*
X113743053Y-63611796D01*
X113693084Y-63561364D01*
X113678312Y-63491921D01*
X113703428Y-63425516D01*
X113730780Y-63398909D01*
X113774603Y-63367650D01*
X113909860Y-63271173D01*
X114068096Y-63113489D01*
X114127594Y-63030689D01*
X114195435Y-62936277D01*
X114198453Y-62932077D01*
X114219320Y-62889857D01*
X114295136Y-62736453D01*
X114295137Y-62736451D01*
X114297430Y-62731811D01*
X114362370Y-62518069D01*
X114391529Y-62296590D01*
X114393156Y-62230000D01*
X114374852Y-62007361D01*
X114320431Y-61790702D01*
X114231354Y-61585840D01*
X114110014Y-61398277D01*
X113959670Y-61233051D01*
X113955619Y-61229852D01*
X113955615Y-61229848D01*
X113788414Y-61097800D01*
X113788410Y-61097798D01*
X113784359Y-61094598D01*
X113743053Y-61071796D01*
X113693084Y-61021364D01*
X113678312Y-60951921D01*
X113703428Y-60885516D01*
X113730780Y-60858909D01*
X113774603Y-60827650D01*
X113909860Y-60731173D01*
X114068096Y-60573489D01*
X114127594Y-60490689D01*
X114195435Y-60396277D01*
X114198453Y-60392077D01*
X114219320Y-60349857D01*
X114295136Y-60196453D01*
X114295137Y-60196451D01*
X114297430Y-60191811D01*
X114362370Y-59978069D01*
X114391529Y-59756590D01*
X114392616Y-59712115D01*
X114393074Y-59693365D01*
X114393074Y-59693361D01*
X114393156Y-59690000D01*
X114374852Y-59467361D01*
X114320431Y-59250702D01*
X114231354Y-59045840D01*
X114110014Y-58858277D01*
X113959670Y-58693051D01*
X113955619Y-58689852D01*
X113955615Y-58689848D01*
X113788414Y-58557800D01*
X113788410Y-58557798D01*
X113784359Y-58554598D01*
X113743053Y-58531796D01*
X113693084Y-58481364D01*
X113678312Y-58411921D01*
X113703428Y-58345516D01*
X113730780Y-58318909D01*
X113774603Y-58287650D01*
X113909860Y-58191173D01*
X114068096Y-58033489D01*
X114127594Y-57950689D01*
X114195435Y-57856277D01*
X114198453Y-57852077D01*
X114219320Y-57809857D01*
X114295136Y-57656453D01*
X114295137Y-57656451D01*
X114297430Y-57651811D01*
X114344753Y-57496054D01*
X114360865Y-57443023D01*
X114360865Y-57443021D01*
X114362370Y-57438069D01*
X114391529Y-57216590D01*
X114392505Y-57176638D01*
X114393074Y-57153365D01*
X114393074Y-57153361D01*
X114393156Y-57150000D01*
X114374852Y-56927361D01*
X114320431Y-56710702D01*
X114231354Y-56505840D01*
X114110014Y-56318277D01*
X113959670Y-56153051D01*
X113955619Y-56149852D01*
X113955615Y-56149848D01*
X113788414Y-56017800D01*
X113788410Y-56017798D01*
X113784359Y-56014598D01*
X113743053Y-55991796D01*
X113693084Y-55941364D01*
X113678312Y-55871921D01*
X113703428Y-55805516D01*
X113730780Y-55778909D01*
X113774603Y-55747650D01*
X113909860Y-55651173D01*
X114068096Y-55493489D01*
X114127594Y-55410689D01*
X114195435Y-55316277D01*
X114198453Y-55312077D01*
X114219320Y-55269857D01*
X114295136Y-55116453D01*
X114295137Y-55116451D01*
X114297430Y-55111811D01*
X114362370Y-54898069D01*
X114391529Y-54676590D01*
X114393156Y-54610000D01*
X114374852Y-54387361D01*
X114320431Y-54170702D01*
X114231354Y-53965840D01*
X114110014Y-53778277D01*
X113959670Y-53613051D01*
X113955616Y-53609849D01*
X113955615Y-53609848D01*
X113788414Y-53477800D01*
X113788410Y-53477798D01*
X113784359Y-53474598D01*
X113743053Y-53451796D01*
X113693084Y-53401364D01*
X113678312Y-53331921D01*
X113703428Y-53265516D01*
X113730780Y-53238909D01*
X113798404Y-53190673D01*
X113909860Y-53111173D01*
X113916559Y-53104498D01*
X114015966Y-53005437D01*
X114068096Y-52953489D01*
X114198453Y-52772077D01*
X114219320Y-52729857D01*
X114295136Y-52576453D01*
X114295137Y-52576451D01*
X114297430Y-52571811D01*
X114362370Y-52358069D01*
X114391529Y-52136590D01*
X114393156Y-52070000D01*
X114374852Y-51847361D01*
X114320431Y-51630702D01*
X114311969Y-51611240D01*
X114303149Y-51540796D01*
X114333816Y-51476764D01*
X114394233Y-51439476D01*
X114427519Y-51435000D01*
X115261607Y-51435000D01*
X115329728Y-51455002D01*
G37*
%TD.AperFunction*%
%TA.AperFunction,NonConductor*%
G36*
X101555446Y-59304796D02*
G01*
X101575051Y-59334691D01*
X101576133Y-59337000D01*
X101578450Y-59343946D01*
X101671522Y-59494348D01*
X101796697Y-59619305D01*
X101802927Y-59623145D01*
X101802928Y-59623146D01*
X101905944Y-59686646D01*
X101947262Y-59712115D01*
X101954209Y-59714419D01*
X101956276Y-59715383D01*
X102009561Y-59762299D01*
X102029023Y-59830576D01*
X102008482Y-59898536D01*
X101978681Y-59930337D01*
X101964965Y-59940635D01*
X101961393Y-59944373D01*
X101819748Y-60092596D01*
X101810629Y-60102138D01*
X101703201Y-60259621D01*
X101648293Y-60304621D01*
X101577768Y-60312792D01*
X101514021Y-60281538D01*
X101493324Y-60257054D01*
X101412822Y-60132617D01*
X101412820Y-60132614D01*
X101410014Y-60128277D01*
X101259670Y-59963051D01*
X101255616Y-59959849D01*
X101255615Y-59959848D01*
X101088414Y-59827800D01*
X101088410Y-59827798D01*
X101084359Y-59824598D01*
X101043053Y-59801796D01*
X100993084Y-59751364D01*
X100978312Y-59681921D01*
X101003428Y-59615516D01*
X101030780Y-59588909D01*
X101074603Y-59557650D01*
X101209860Y-59461173D01*
X101368096Y-59303489D01*
X101368671Y-59304066D01*
X101424391Y-59267562D01*
X101495385Y-59266939D01*
X101555446Y-59304796D01*
G37*
%TD.AperFunction*%
%TA.AperFunction,NonConductor*%
G36*
X101682026Y-61635144D02*
G01*
X101709875Y-61666994D01*
X101769987Y-61765088D01*
X101916250Y-61933938D01*
X102088126Y-62076632D01*
X102158595Y-62117811D01*
X102161445Y-62119476D01*
X102210169Y-62171114D01*
X102223240Y-62240897D01*
X102196509Y-62306669D01*
X102156055Y-62340027D01*
X102143607Y-62346507D01*
X102139474Y-62349610D01*
X102139471Y-62349612D01*
X102039374Y-62424767D01*
X101964965Y-62480635D01*
X101961393Y-62484373D01*
X101819748Y-62632596D01*
X101810629Y-62642138D01*
X101703201Y-62799621D01*
X101648293Y-62844621D01*
X101577768Y-62852792D01*
X101514021Y-62821538D01*
X101493324Y-62797054D01*
X101412822Y-62672617D01*
X101412820Y-62672614D01*
X101410014Y-62668277D01*
X101259670Y-62503051D01*
X101255619Y-62499852D01*
X101255615Y-62499848D01*
X101088414Y-62367800D01*
X101088410Y-62367798D01*
X101084359Y-62364598D01*
X101043053Y-62341796D01*
X100993084Y-62291364D01*
X100978312Y-62221921D01*
X101003428Y-62155516D01*
X101030780Y-62128909D01*
X101074603Y-62097650D01*
X101209860Y-62001173D01*
X101368096Y-61843489D01*
X101427594Y-61760689D01*
X101498453Y-61662077D01*
X101499776Y-61663028D01*
X101546645Y-61619857D01*
X101616580Y-61607625D01*
X101682026Y-61635144D01*
G37*
%TD.AperFunction*%
%TA.AperFunction,NonConductor*%
G36*
X101682026Y-64175144D02*
G01*
X101709875Y-64206994D01*
X101769987Y-64305088D01*
X101916250Y-64473938D01*
X102088126Y-64616632D01*
X102158595Y-64657811D01*
X102161445Y-64659476D01*
X102210169Y-64711114D01*
X102223240Y-64780897D01*
X102196509Y-64846669D01*
X102156055Y-64880027D01*
X102143607Y-64886507D01*
X102139474Y-64889610D01*
X102139471Y-64889612D01*
X102039374Y-64964767D01*
X101964965Y-65020635D01*
X101961393Y-65024373D01*
X101819748Y-65172596D01*
X101810629Y-65182138D01*
X101703201Y-65339621D01*
X101648293Y-65384621D01*
X101577768Y-65392792D01*
X101514021Y-65361538D01*
X101493324Y-65337054D01*
X101412822Y-65212617D01*
X101412820Y-65212614D01*
X101410014Y-65208277D01*
X101259670Y-65043051D01*
X101255619Y-65039852D01*
X101255615Y-65039848D01*
X101088414Y-64907800D01*
X101088410Y-64907798D01*
X101084359Y-64904598D01*
X101043053Y-64881796D01*
X100993084Y-64831364D01*
X100978312Y-64761921D01*
X101003428Y-64695516D01*
X101030780Y-64668909D01*
X101074603Y-64637650D01*
X101209860Y-64541173D01*
X101368096Y-64383489D01*
X101427594Y-64300689D01*
X101498453Y-64202077D01*
X101499776Y-64203028D01*
X101546645Y-64159857D01*
X101616580Y-64147625D01*
X101682026Y-64175144D01*
G37*
%TD.AperFunction*%
%TA.AperFunction,NonConductor*%
G36*
X101682026Y-66715144D02*
G01*
X101709875Y-66746994D01*
X101769987Y-66845088D01*
X101916250Y-67013938D01*
X102088126Y-67156632D01*
X102158595Y-67197811D01*
X102161445Y-67199476D01*
X102210169Y-67251114D01*
X102223240Y-67320897D01*
X102196509Y-67386669D01*
X102156055Y-67420027D01*
X102143607Y-67426507D01*
X102139474Y-67429610D01*
X102139471Y-67429612D01*
X102039374Y-67504767D01*
X101964965Y-67560635D01*
X101961393Y-67564373D01*
X101819748Y-67712596D01*
X101810629Y-67722138D01*
X101703201Y-67879621D01*
X101648293Y-67924621D01*
X101577768Y-67932792D01*
X101514021Y-67901538D01*
X101493324Y-67877054D01*
X101412822Y-67752617D01*
X101412820Y-67752614D01*
X101410014Y-67748277D01*
X101259670Y-67583051D01*
X101255619Y-67579852D01*
X101255615Y-67579848D01*
X101088414Y-67447800D01*
X101088410Y-67447798D01*
X101084359Y-67444598D01*
X101043053Y-67421796D01*
X100993084Y-67371364D01*
X100978312Y-67301921D01*
X101003428Y-67235516D01*
X101030780Y-67208909D01*
X101074603Y-67177650D01*
X101209860Y-67081173D01*
X101368096Y-66923489D01*
X101427594Y-66840689D01*
X101498453Y-66742077D01*
X101499776Y-66743028D01*
X101546645Y-66699857D01*
X101616580Y-66687625D01*
X101682026Y-66715144D01*
G37*
%TD.AperFunction*%
%TA.AperFunction,NonConductor*%
G36*
X101682026Y-69255144D02*
G01*
X101709875Y-69286994D01*
X101769987Y-69385088D01*
X101916250Y-69553938D01*
X102088126Y-69696632D01*
X102158595Y-69737811D01*
X102161445Y-69739476D01*
X102210169Y-69791114D01*
X102223240Y-69860897D01*
X102196509Y-69926669D01*
X102156055Y-69960027D01*
X102143607Y-69966507D01*
X102139474Y-69969610D01*
X102139471Y-69969612D01*
X102039374Y-70044767D01*
X101964965Y-70100635D01*
X101961393Y-70104373D01*
X101819748Y-70252596D01*
X101810629Y-70262138D01*
X101703201Y-70419621D01*
X101648293Y-70464621D01*
X101577768Y-70472792D01*
X101514021Y-70441538D01*
X101493324Y-70417054D01*
X101412822Y-70292617D01*
X101412820Y-70292614D01*
X101410014Y-70288277D01*
X101259670Y-70123051D01*
X101255619Y-70119852D01*
X101255615Y-70119848D01*
X101088414Y-69987800D01*
X101088410Y-69987798D01*
X101084359Y-69984598D01*
X101043053Y-69961796D01*
X100993084Y-69911364D01*
X100978312Y-69841921D01*
X101003428Y-69775516D01*
X101030780Y-69748909D01*
X101074603Y-69717650D01*
X101209860Y-69621173D01*
X101368096Y-69463489D01*
X101427594Y-69380689D01*
X101498453Y-69282077D01*
X101499776Y-69283028D01*
X101546645Y-69239857D01*
X101616580Y-69227625D01*
X101682026Y-69255144D01*
G37*
%TD.AperFunction*%
%TA.AperFunction,NonConductor*%
G36*
X101682026Y-71795144D02*
G01*
X101709875Y-71826994D01*
X101769987Y-71925088D01*
X101916250Y-72093938D01*
X102088126Y-72236632D01*
X102158595Y-72277811D01*
X102161445Y-72279476D01*
X102210169Y-72331114D01*
X102223240Y-72400897D01*
X102196509Y-72466669D01*
X102156055Y-72500027D01*
X102143607Y-72506507D01*
X102139474Y-72509610D01*
X102139471Y-72509612D01*
X102039374Y-72584767D01*
X101964965Y-72640635D01*
X101961393Y-72644373D01*
X101819748Y-72792596D01*
X101810629Y-72802138D01*
X101703201Y-72959621D01*
X101648293Y-73004621D01*
X101577768Y-73012792D01*
X101514021Y-72981538D01*
X101493324Y-72957054D01*
X101412822Y-72832617D01*
X101412820Y-72832614D01*
X101410014Y-72828277D01*
X101259670Y-72663051D01*
X101255619Y-72659852D01*
X101255615Y-72659848D01*
X101088414Y-72527800D01*
X101088410Y-72527798D01*
X101084359Y-72524598D01*
X101043053Y-72501796D01*
X100993084Y-72451364D01*
X100978312Y-72381921D01*
X101003428Y-72315516D01*
X101030780Y-72288909D01*
X101074603Y-72257650D01*
X101209860Y-72161173D01*
X101368096Y-72003489D01*
X101427594Y-71920689D01*
X101498453Y-71822077D01*
X101499776Y-71823028D01*
X101546645Y-71779857D01*
X101616580Y-71767625D01*
X101682026Y-71795144D01*
G37*
%TD.AperFunction*%
%TA.AperFunction,NonConductor*%
G36*
X101682026Y-74335144D02*
G01*
X101709875Y-74366994D01*
X101769987Y-74465088D01*
X101916250Y-74633938D01*
X102088126Y-74776632D01*
X102158595Y-74817811D01*
X102161445Y-74819476D01*
X102210169Y-74871114D01*
X102223240Y-74940897D01*
X102196509Y-75006669D01*
X102156055Y-75040027D01*
X102143607Y-75046507D01*
X102139474Y-75049610D01*
X102139471Y-75049612D01*
X102039374Y-75124767D01*
X101964965Y-75180635D01*
X101961393Y-75184373D01*
X101819748Y-75332596D01*
X101810629Y-75342138D01*
X101703201Y-75499621D01*
X101648293Y-75544621D01*
X101577768Y-75552792D01*
X101514021Y-75521538D01*
X101493324Y-75497054D01*
X101412822Y-75372617D01*
X101412820Y-75372614D01*
X101410014Y-75368277D01*
X101259670Y-75203051D01*
X101255619Y-75199852D01*
X101255615Y-75199848D01*
X101088414Y-75067800D01*
X101088410Y-75067798D01*
X101084359Y-75064598D01*
X101043053Y-75041796D01*
X100993084Y-74991364D01*
X100978312Y-74921921D01*
X101003428Y-74855516D01*
X101030780Y-74828909D01*
X101074603Y-74797650D01*
X101209860Y-74701173D01*
X101368096Y-74543489D01*
X101427594Y-74460689D01*
X101498453Y-74362077D01*
X101499776Y-74363028D01*
X101546645Y-74319857D01*
X101616580Y-74307625D01*
X101682026Y-74335144D01*
G37*
%TD.AperFunction*%
%TA.AperFunction,NonConductor*%
G36*
X101682026Y-76875144D02*
G01*
X101709875Y-76906994D01*
X101769987Y-77005088D01*
X101916250Y-77173938D01*
X102088126Y-77316632D01*
X102158595Y-77357811D01*
X102161445Y-77359476D01*
X102210169Y-77411114D01*
X102223240Y-77480897D01*
X102196509Y-77546669D01*
X102156055Y-77580027D01*
X102143607Y-77586507D01*
X102139474Y-77589610D01*
X102139471Y-77589612D01*
X102039374Y-77664767D01*
X101964965Y-77720635D01*
X101961393Y-77724373D01*
X101819748Y-77872596D01*
X101810629Y-77882138D01*
X101703201Y-78039621D01*
X101648293Y-78084621D01*
X101577768Y-78092792D01*
X101514021Y-78061538D01*
X101493324Y-78037054D01*
X101412822Y-77912617D01*
X101412820Y-77912614D01*
X101410014Y-77908277D01*
X101259670Y-77743051D01*
X101255619Y-77739852D01*
X101255615Y-77739848D01*
X101088414Y-77607800D01*
X101088410Y-77607798D01*
X101084359Y-77604598D01*
X101043053Y-77581796D01*
X100993084Y-77531364D01*
X100978312Y-77461921D01*
X101003428Y-77395516D01*
X101030780Y-77368909D01*
X101074603Y-77337650D01*
X101209860Y-77241173D01*
X101368096Y-77083489D01*
X101427594Y-77000689D01*
X101498453Y-76902077D01*
X101499776Y-76903028D01*
X101546645Y-76859857D01*
X101616580Y-76847625D01*
X101682026Y-76875144D01*
G37*
%TD.AperFunction*%
%TA.AperFunction,NonConductor*%
G36*
X101682026Y-79415144D02*
G01*
X101709875Y-79446994D01*
X101769987Y-79545088D01*
X101916250Y-79713938D01*
X102088126Y-79856632D01*
X102158595Y-79897811D01*
X102161445Y-79899476D01*
X102210169Y-79951114D01*
X102223240Y-80020897D01*
X102196509Y-80086669D01*
X102156055Y-80120027D01*
X102143607Y-80126507D01*
X102139474Y-80129610D01*
X102139471Y-80129612D01*
X102039374Y-80204767D01*
X101964965Y-80260635D01*
X101961393Y-80264373D01*
X101819748Y-80412596D01*
X101810629Y-80422138D01*
X101703201Y-80579621D01*
X101648293Y-80624621D01*
X101577768Y-80632792D01*
X101514021Y-80601538D01*
X101493324Y-80577054D01*
X101412822Y-80452617D01*
X101412820Y-80452614D01*
X101410014Y-80448277D01*
X101259670Y-80283051D01*
X101255619Y-80279852D01*
X101255615Y-80279848D01*
X101088414Y-80147800D01*
X101088410Y-80147798D01*
X101084359Y-80144598D01*
X101043053Y-80121796D01*
X100993084Y-80071364D01*
X100978312Y-80001921D01*
X101003428Y-79935516D01*
X101030780Y-79908909D01*
X101074603Y-79877650D01*
X101209860Y-79781173D01*
X101368096Y-79623489D01*
X101427594Y-79540689D01*
X101498453Y-79442077D01*
X101499776Y-79443028D01*
X101546645Y-79399857D01*
X101616580Y-79387625D01*
X101682026Y-79415144D01*
G37*
%TD.AperFunction*%
%TA.AperFunction,NonConductor*%
G36*
X101682026Y-81955144D02*
G01*
X101709875Y-81986994D01*
X101769987Y-82085088D01*
X101916250Y-82253938D01*
X102088126Y-82396632D01*
X102158595Y-82437811D01*
X102161445Y-82439476D01*
X102210169Y-82491114D01*
X102223240Y-82560897D01*
X102196509Y-82626669D01*
X102156055Y-82660027D01*
X102143607Y-82666507D01*
X102139474Y-82669610D01*
X102139471Y-82669612D01*
X102039374Y-82744767D01*
X101964965Y-82800635D01*
X101961393Y-82804373D01*
X101819748Y-82952596D01*
X101810629Y-82962138D01*
X101703201Y-83119621D01*
X101648293Y-83164621D01*
X101577768Y-83172792D01*
X101514021Y-83141538D01*
X101493324Y-83117054D01*
X101412822Y-82992617D01*
X101412820Y-82992614D01*
X101410014Y-82988277D01*
X101259670Y-82823051D01*
X101255619Y-82819852D01*
X101255615Y-82819848D01*
X101088414Y-82687800D01*
X101088410Y-82687798D01*
X101084359Y-82684598D01*
X101043053Y-82661796D01*
X100993084Y-82611364D01*
X100978312Y-82541921D01*
X101003428Y-82475516D01*
X101030780Y-82448909D01*
X101074603Y-82417650D01*
X101209860Y-82321173D01*
X101368096Y-82163489D01*
X101427594Y-82080689D01*
X101498453Y-81982077D01*
X101499776Y-81983028D01*
X101546645Y-81939857D01*
X101616580Y-81927625D01*
X101682026Y-81955144D01*
G37*
%TD.AperFunction*%
%TA.AperFunction,NonConductor*%
G36*
X101682026Y-84495144D02*
G01*
X101709875Y-84526994D01*
X101769987Y-84625088D01*
X101916250Y-84793938D01*
X102088126Y-84936632D01*
X102158595Y-84977811D01*
X102161445Y-84979476D01*
X102210169Y-85031114D01*
X102223240Y-85100897D01*
X102196509Y-85166669D01*
X102156055Y-85200027D01*
X102143607Y-85206507D01*
X102139474Y-85209610D01*
X102139471Y-85209612D01*
X102039374Y-85284767D01*
X101964965Y-85340635D01*
X101961393Y-85344373D01*
X101819748Y-85492596D01*
X101810629Y-85502138D01*
X101703201Y-85659621D01*
X101648293Y-85704621D01*
X101577768Y-85712792D01*
X101514021Y-85681538D01*
X101493324Y-85657054D01*
X101412822Y-85532617D01*
X101412820Y-85532614D01*
X101410014Y-85528277D01*
X101259670Y-85363051D01*
X101255619Y-85359852D01*
X101255615Y-85359848D01*
X101088414Y-85227800D01*
X101088410Y-85227798D01*
X101084359Y-85224598D01*
X101043053Y-85201796D01*
X100993084Y-85151364D01*
X100978312Y-85081921D01*
X101003428Y-85015516D01*
X101030780Y-84988909D01*
X101074603Y-84957650D01*
X101209860Y-84861173D01*
X101368096Y-84703489D01*
X101427594Y-84620689D01*
X101498453Y-84522077D01*
X101499776Y-84523028D01*
X101546645Y-84479857D01*
X101616580Y-84467625D01*
X101682026Y-84495144D01*
G37*
%TD.AperFunction*%
%TA.AperFunction,NonConductor*%
G36*
X101682026Y-87035144D02*
G01*
X101709875Y-87066994D01*
X101769987Y-87165088D01*
X101916250Y-87333938D01*
X102088126Y-87476632D01*
X102158595Y-87517811D01*
X102161445Y-87519476D01*
X102210169Y-87571114D01*
X102223240Y-87640897D01*
X102196509Y-87706669D01*
X102156055Y-87740027D01*
X102143607Y-87746507D01*
X102139474Y-87749610D01*
X102139471Y-87749612D01*
X102039374Y-87824767D01*
X101964965Y-87880635D01*
X101961393Y-87884373D01*
X101819748Y-88032596D01*
X101810629Y-88042138D01*
X101703201Y-88199621D01*
X101648293Y-88244621D01*
X101577768Y-88252792D01*
X101514021Y-88221538D01*
X101493324Y-88197054D01*
X101412822Y-88072617D01*
X101412820Y-88072614D01*
X101410014Y-88068277D01*
X101259670Y-87903051D01*
X101255619Y-87899852D01*
X101255615Y-87899848D01*
X101088414Y-87767800D01*
X101088410Y-87767798D01*
X101084359Y-87764598D01*
X101043053Y-87741796D01*
X100993084Y-87691364D01*
X100978312Y-87621921D01*
X101003428Y-87555516D01*
X101030780Y-87528909D01*
X101074603Y-87497650D01*
X101209860Y-87401173D01*
X101368096Y-87243489D01*
X101427594Y-87160689D01*
X101498453Y-87062077D01*
X101499776Y-87063028D01*
X101546645Y-87019857D01*
X101616580Y-87007625D01*
X101682026Y-87035144D01*
G37*
%TD.AperFunction*%
%TA.AperFunction,NonConductor*%
G36*
X101682026Y-89575144D02*
G01*
X101709875Y-89606994D01*
X101769987Y-89705088D01*
X101916250Y-89873938D01*
X102088126Y-90016632D01*
X102158595Y-90057811D01*
X102161445Y-90059476D01*
X102210169Y-90111114D01*
X102223240Y-90180897D01*
X102196509Y-90246669D01*
X102156055Y-90280027D01*
X102143607Y-90286507D01*
X102139474Y-90289610D01*
X102139471Y-90289612D01*
X102039374Y-90364767D01*
X101964965Y-90420635D01*
X101961393Y-90424373D01*
X101819748Y-90572596D01*
X101810629Y-90582138D01*
X101703201Y-90739621D01*
X101648293Y-90784621D01*
X101577768Y-90792792D01*
X101514021Y-90761538D01*
X101493324Y-90737054D01*
X101412822Y-90612617D01*
X101412820Y-90612614D01*
X101410014Y-90608277D01*
X101259670Y-90443051D01*
X101255619Y-90439852D01*
X101255615Y-90439848D01*
X101088414Y-90307800D01*
X101088410Y-90307798D01*
X101084359Y-90304598D01*
X101043053Y-90281796D01*
X100993084Y-90231364D01*
X100978312Y-90161921D01*
X101003428Y-90095516D01*
X101030780Y-90068909D01*
X101074603Y-90037650D01*
X101209860Y-89941173D01*
X101368096Y-89783489D01*
X101427594Y-89700689D01*
X101498453Y-89602077D01*
X101499776Y-89603028D01*
X101546645Y-89559857D01*
X101616580Y-89547625D01*
X101682026Y-89575144D01*
G37*
%TD.AperFunction*%
%TA.AperFunction,NonConductor*%
G36*
X101682026Y-92115144D02*
G01*
X101709875Y-92146994D01*
X101769987Y-92245088D01*
X101916250Y-92413938D01*
X102088126Y-92556632D01*
X102158595Y-92597811D01*
X102161445Y-92599476D01*
X102210169Y-92651114D01*
X102223240Y-92720897D01*
X102196509Y-92786669D01*
X102156055Y-92820027D01*
X102143607Y-92826507D01*
X102139474Y-92829610D01*
X102139471Y-92829612D01*
X102039374Y-92904767D01*
X101964965Y-92960635D01*
X101961393Y-92964373D01*
X101819748Y-93112596D01*
X101810629Y-93122138D01*
X101703201Y-93279621D01*
X101648293Y-93324621D01*
X101577768Y-93332792D01*
X101514021Y-93301538D01*
X101493324Y-93277054D01*
X101412822Y-93152617D01*
X101412820Y-93152614D01*
X101410014Y-93148277D01*
X101259670Y-92983051D01*
X101255619Y-92979852D01*
X101255615Y-92979848D01*
X101088414Y-92847800D01*
X101088410Y-92847798D01*
X101084359Y-92844598D01*
X101043053Y-92821796D01*
X100993084Y-92771364D01*
X100978312Y-92701921D01*
X101003428Y-92635516D01*
X101030780Y-92608909D01*
X101074603Y-92577650D01*
X101209860Y-92481173D01*
X101368096Y-92323489D01*
X101427594Y-92240689D01*
X101498453Y-92142077D01*
X101499776Y-92143028D01*
X101546645Y-92099857D01*
X101616580Y-92087625D01*
X101682026Y-92115144D01*
G37*
%TD.AperFunction*%
%TA.AperFunction,NonConductor*%
G36*
X98311728Y-51455002D02*
G01*
X98358221Y-51508658D01*
X98368325Y-51578932D01*
X98360016Y-51609218D01*
X98349039Y-51635720D01*
X98340162Y-51657150D01*
X98319249Y-51816000D01*
X98340162Y-51974850D01*
X98401476Y-52122875D01*
X98499013Y-52249987D01*
X98626125Y-52347524D01*
X98774150Y-52408838D01*
X98893115Y-52424500D01*
X103529783Y-52424500D01*
X103597904Y-52444502D01*
X103644397Y-52498158D01*
X103653899Y-52561555D01*
X103654328Y-52561555D01*
X103654328Y-52564420D01*
X103654706Y-52566941D01*
X103653250Y-52578000D01*
X103658500Y-52617880D01*
X103658500Y-52617885D01*
X103671996Y-52720400D01*
X103674162Y-52736850D01*
X103677321Y-52744476D01*
X103677321Y-52744477D01*
X103731422Y-52875088D01*
X103735476Y-52884876D01*
X103740502Y-52891426D01*
X103823950Y-53000176D01*
X103833013Y-53011987D01*
X103960124Y-53109524D01*
X103967750Y-53112683D01*
X103967752Y-53112684D01*
X104054179Y-53148483D01*
X104108149Y-53170838D01*
X104126629Y-53173271D01*
X104267000Y-53191751D01*
X104275188Y-53190673D01*
X104407371Y-53173271D01*
X104425851Y-53170838D01*
X104573876Y-53109524D01*
X104655046Y-53047240D01*
X104669072Y-53036477D01*
X104669075Y-53036474D01*
X104694437Y-53017013D01*
X104700987Y-53011987D01*
X104720448Y-52986625D01*
X104731315Y-52974234D01*
X105425223Y-52280326D01*
X105437614Y-52269458D01*
X105456443Y-52255010D01*
X105462988Y-52249988D01*
X105560524Y-52122876D01*
X105621838Y-51974851D01*
X105632621Y-51892942D01*
X105642751Y-51816000D01*
X105631442Y-51730098D01*
X105621839Y-51657150D01*
X105612963Y-51635720D01*
X105601985Y-51609219D01*
X105594396Y-51538629D01*
X105626175Y-51475142D01*
X105687233Y-51438914D01*
X105718394Y-51435000D01*
X106465500Y-51435000D01*
X106533621Y-51455002D01*
X106580114Y-51508658D01*
X106591500Y-51561000D01*
X106591500Y-52720400D01*
X106591837Y-52723646D01*
X106591837Y-52723650D01*
X106597298Y-52776277D01*
X106602474Y-52826166D01*
X106604655Y-52832702D01*
X106604655Y-52832704D01*
X106648728Y-52964806D01*
X106658450Y-52993946D01*
X106751522Y-53144348D01*
X106876697Y-53269305D01*
X106882927Y-53273145D01*
X106882928Y-53273146D01*
X106895855Y-53281114D01*
X107027262Y-53362115D01*
X107034209Y-53364419D01*
X107036276Y-53365383D01*
X107089561Y-53412299D01*
X107109023Y-53480576D01*
X107088482Y-53548536D01*
X107058681Y-53580337D01*
X107044965Y-53590635D01*
X106890629Y-53752138D01*
X106764743Y-53936680D01*
X106670688Y-54139305D01*
X106610989Y-54354570D01*
X106587251Y-54576695D01*
X106587548Y-54581848D01*
X106587548Y-54581851D01*
X106593011Y-54676590D01*
X106600110Y-54799715D01*
X106601247Y-54804761D01*
X106601248Y-54804767D01*
X106621119Y-54892939D01*
X106649222Y-55017639D01*
X106733266Y-55224616D01*
X106784019Y-55307438D01*
X106847291Y-55410688D01*
X106849987Y-55415088D01*
X106996250Y-55583938D01*
X107168126Y-55726632D01*
X107238595Y-55767811D01*
X107241445Y-55769476D01*
X107290169Y-55821114D01*
X107303240Y-55890897D01*
X107276509Y-55956669D01*
X107236055Y-55990027D01*
X107223607Y-55996507D01*
X107219474Y-55999610D01*
X107219471Y-55999612D01*
X107195247Y-56017800D01*
X107044965Y-56130635D01*
X106890629Y-56292138D01*
X106764743Y-56476680D01*
X106670688Y-56679305D01*
X106610989Y-56894570D01*
X106587251Y-57116695D01*
X106587548Y-57121848D01*
X106587548Y-57121851D01*
X106593594Y-57226704D01*
X106600110Y-57339715D01*
X106601247Y-57344761D01*
X106601248Y-57344767D01*
X106618169Y-57419848D01*
X106649222Y-57557639D01*
X106733266Y-57764616D01*
X106784019Y-57847438D01*
X106847291Y-57950688D01*
X106849987Y-57955088D01*
X106996250Y-58123938D01*
X107168126Y-58266632D01*
X107238595Y-58307811D01*
X107241445Y-58309476D01*
X107290169Y-58361114D01*
X107303240Y-58430897D01*
X107276509Y-58496669D01*
X107236055Y-58530027D01*
X107223607Y-58536507D01*
X107219474Y-58539610D01*
X107219471Y-58539612D01*
X107119374Y-58614767D01*
X107044965Y-58670635D01*
X107041393Y-58674373D01*
X106899748Y-58822596D01*
X106890629Y-58832138D01*
X106764743Y-59016680D01*
X106670688Y-59219305D01*
X106610989Y-59434570D01*
X106587251Y-59656695D01*
X106587548Y-59661848D01*
X106587548Y-59661851D01*
X106594171Y-59776714D01*
X106600110Y-59879715D01*
X106601247Y-59884761D01*
X106601248Y-59884767D01*
X106621119Y-59972939D01*
X106649222Y-60097639D01*
X106733266Y-60304616D01*
X106784019Y-60387438D01*
X106847291Y-60490688D01*
X106849987Y-60495088D01*
X106996250Y-60663938D01*
X107168126Y-60806632D01*
X107238595Y-60847811D01*
X107241445Y-60849476D01*
X107290169Y-60901114D01*
X107303240Y-60970897D01*
X107276509Y-61036669D01*
X107236055Y-61070027D01*
X107223607Y-61076507D01*
X107219474Y-61079610D01*
X107219471Y-61079612D01*
X107119374Y-61154767D01*
X107044965Y-61210635D01*
X107041393Y-61214373D01*
X106899748Y-61362596D01*
X106890629Y-61372138D01*
X106764743Y-61556680D01*
X106670688Y-61759305D01*
X106610989Y-61974570D01*
X106587251Y-62196695D01*
X106587548Y-62201848D01*
X106587548Y-62201851D01*
X106593011Y-62296590D01*
X106600110Y-62419715D01*
X106601247Y-62424761D01*
X106601248Y-62424767D01*
X106621119Y-62512939D01*
X106649222Y-62637639D01*
X106733266Y-62844616D01*
X106784019Y-62927438D01*
X106847291Y-63030688D01*
X106849987Y-63035088D01*
X106996250Y-63203938D01*
X107168126Y-63346632D01*
X107238595Y-63387811D01*
X107241445Y-63389476D01*
X107290169Y-63441114D01*
X107303240Y-63510897D01*
X107276509Y-63576669D01*
X107236055Y-63610027D01*
X107223607Y-63616507D01*
X107219474Y-63619610D01*
X107219471Y-63619612D01*
X107119374Y-63694767D01*
X107044965Y-63750635D01*
X107041393Y-63754373D01*
X106899748Y-63902596D01*
X106890629Y-63912138D01*
X106764743Y-64096680D01*
X106670688Y-64299305D01*
X106610989Y-64514570D01*
X106587251Y-64736695D01*
X106587548Y-64741848D01*
X106587548Y-64741851D01*
X106593011Y-64836590D01*
X106600110Y-64959715D01*
X106601247Y-64964761D01*
X106601248Y-64964767D01*
X106621119Y-65052939D01*
X106649222Y-65177639D01*
X106733266Y-65384616D01*
X106784019Y-65467438D01*
X106847291Y-65570688D01*
X106849987Y-65575088D01*
X106996250Y-65743938D01*
X107168126Y-65886632D01*
X107238595Y-65927811D01*
X107241445Y-65929476D01*
X107290169Y-65981114D01*
X107303240Y-66050897D01*
X107276509Y-66116669D01*
X107236055Y-66150027D01*
X107223607Y-66156507D01*
X107219474Y-66159610D01*
X107219471Y-66159612D01*
X107119374Y-66234767D01*
X107044965Y-66290635D01*
X107041393Y-66294373D01*
X106899748Y-66442596D01*
X106890629Y-66452138D01*
X106764743Y-66636680D01*
X106670688Y-66839305D01*
X106610989Y-67054570D01*
X106587251Y-67276695D01*
X106587548Y-67281848D01*
X106587548Y-67281851D01*
X106593011Y-67376590D01*
X106600110Y-67499715D01*
X106601247Y-67504761D01*
X106601248Y-67504767D01*
X106621119Y-67592939D01*
X106649222Y-67717639D01*
X106733266Y-67924616D01*
X106784019Y-68007438D01*
X106847291Y-68110688D01*
X106849987Y-68115088D01*
X106996250Y-68283938D01*
X107168126Y-68426632D01*
X107238595Y-68467811D01*
X107241445Y-68469476D01*
X107290169Y-68521114D01*
X107303240Y-68590897D01*
X107276509Y-68656669D01*
X107236055Y-68690027D01*
X107223607Y-68696507D01*
X107219474Y-68699610D01*
X107219471Y-68699612D01*
X107119374Y-68774767D01*
X107044965Y-68830635D01*
X107041393Y-68834373D01*
X106899748Y-68982596D01*
X106890629Y-68992138D01*
X106764743Y-69176680D01*
X106670688Y-69379305D01*
X106610989Y-69594570D01*
X106587251Y-69816695D01*
X106587548Y-69821848D01*
X106587548Y-69821851D01*
X106593011Y-69916590D01*
X106600110Y-70039715D01*
X106601247Y-70044761D01*
X106601248Y-70044767D01*
X106621119Y-70132939D01*
X106649222Y-70257639D01*
X106733266Y-70464616D01*
X106784019Y-70547438D01*
X106847291Y-70650688D01*
X106849987Y-70655088D01*
X106996250Y-70823938D01*
X107168126Y-70966632D01*
X107238595Y-71007811D01*
X107241445Y-71009476D01*
X107290169Y-71061114D01*
X107303240Y-71130897D01*
X107276509Y-71196669D01*
X107236055Y-71230027D01*
X107223607Y-71236507D01*
X107219474Y-71239610D01*
X107219471Y-71239612D01*
X107119374Y-71314767D01*
X107044965Y-71370635D01*
X107041393Y-71374373D01*
X106899748Y-71522596D01*
X106890629Y-71532138D01*
X106764743Y-71716680D01*
X106670688Y-71919305D01*
X106610989Y-72134570D01*
X106587251Y-72356695D01*
X106587548Y-72361848D01*
X106587548Y-72361851D01*
X106593011Y-72456590D01*
X106600110Y-72579715D01*
X106601247Y-72584761D01*
X106601248Y-72584767D01*
X106621119Y-72672939D01*
X106649222Y-72797639D01*
X106733266Y-73004616D01*
X106784019Y-73087438D01*
X106847291Y-73190688D01*
X106849987Y-73195088D01*
X106996250Y-73363938D01*
X107168126Y-73506632D01*
X107238595Y-73547811D01*
X107241445Y-73549476D01*
X107290169Y-73601114D01*
X107303240Y-73670897D01*
X107276509Y-73736669D01*
X107236055Y-73770027D01*
X107223607Y-73776507D01*
X107219474Y-73779610D01*
X107219471Y-73779612D01*
X107119374Y-73854767D01*
X107044965Y-73910635D01*
X107041393Y-73914373D01*
X106899748Y-74062596D01*
X106890629Y-74072138D01*
X106764743Y-74256680D01*
X106670688Y-74459305D01*
X106610989Y-74674570D01*
X106587251Y-74896695D01*
X106587548Y-74901848D01*
X106587548Y-74901851D01*
X106593011Y-74996590D01*
X106600110Y-75119715D01*
X106601247Y-75124761D01*
X106601248Y-75124767D01*
X106621119Y-75212939D01*
X106649222Y-75337639D01*
X106733266Y-75544616D01*
X106784019Y-75627438D01*
X106847291Y-75730688D01*
X106849987Y-75735088D01*
X106996250Y-75903938D01*
X107168126Y-76046632D01*
X107238595Y-76087811D01*
X107241445Y-76089476D01*
X107290169Y-76141114D01*
X107303240Y-76210897D01*
X107276509Y-76276669D01*
X107236055Y-76310027D01*
X107223607Y-76316507D01*
X107219474Y-76319610D01*
X107219471Y-76319612D01*
X107119374Y-76394767D01*
X107044965Y-76450635D01*
X107041393Y-76454373D01*
X106899748Y-76602596D01*
X106890629Y-76612138D01*
X106764743Y-76796680D01*
X106670688Y-76999305D01*
X106610989Y-77214570D01*
X106587251Y-77436695D01*
X106587548Y-77441848D01*
X106587548Y-77441851D01*
X106593011Y-77536590D01*
X106600110Y-77659715D01*
X106601247Y-77664761D01*
X106601248Y-77664767D01*
X106621119Y-77752939D01*
X106649222Y-77877639D01*
X106733266Y-78084616D01*
X106784019Y-78167438D01*
X106847291Y-78270688D01*
X106849987Y-78275088D01*
X106996250Y-78443938D01*
X107168126Y-78586632D01*
X107238595Y-78627811D01*
X107241445Y-78629476D01*
X107290169Y-78681114D01*
X107303240Y-78750897D01*
X107276509Y-78816669D01*
X107236055Y-78850027D01*
X107223607Y-78856507D01*
X107219474Y-78859610D01*
X107219471Y-78859612D01*
X107119374Y-78934767D01*
X107044965Y-78990635D01*
X107041393Y-78994373D01*
X106899748Y-79142596D01*
X106890629Y-79152138D01*
X106764743Y-79336680D01*
X106670688Y-79539305D01*
X106610989Y-79754570D01*
X106587251Y-79976695D01*
X106587548Y-79981848D01*
X106587548Y-79981851D01*
X106593011Y-80076590D01*
X106600110Y-80199715D01*
X106601247Y-80204761D01*
X106601248Y-80204767D01*
X106621119Y-80292939D01*
X106649222Y-80417639D01*
X106733266Y-80624616D01*
X106784019Y-80707438D01*
X106847291Y-80810688D01*
X106849987Y-80815088D01*
X106996250Y-80983938D01*
X107168126Y-81126632D01*
X107238595Y-81167811D01*
X107241445Y-81169476D01*
X107290169Y-81221114D01*
X107303240Y-81290897D01*
X107276509Y-81356669D01*
X107236055Y-81390027D01*
X107223607Y-81396507D01*
X107219474Y-81399610D01*
X107219471Y-81399612D01*
X107119374Y-81474767D01*
X107044965Y-81530635D01*
X107041393Y-81534373D01*
X106899748Y-81682596D01*
X106890629Y-81692138D01*
X106764743Y-81876680D01*
X106670688Y-82079305D01*
X106610989Y-82294570D01*
X106587251Y-82516695D01*
X106587548Y-82521848D01*
X106587548Y-82521851D01*
X106593011Y-82616590D01*
X106600110Y-82739715D01*
X106601247Y-82744761D01*
X106601248Y-82744767D01*
X106621119Y-82832939D01*
X106649222Y-82957639D01*
X106733266Y-83164616D01*
X106784019Y-83247438D01*
X106847291Y-83350688D01*
X106849987Y-83355088D01*
X106996250Y-83523938D01*
X107168126Y-83666632D01*
X107238595Y-83707811D01*
X107241445Y-83709476D01*
X107290169Y-83761114D01*
X107303240Y-83830897D01*
X107276509Y-83896669D01*
X107236055Y-83930027D01*
X107223607Y-83936507D01*
X107219474Y-83939610D01*
X107219471Y-83939612D01*
X107119374Y-84014767D01*
X107044965Y-84070635D01*
X107041393Y-84074373D01*
X106899748Y-84222596D01*
X106890629Y-84232138D01*
X106764743Y-84416680D01*
X106670688Y-84619305D01*
X106610989Y-84834570D01*
X106587251Y-85056695D01*
X106587548Y-85061848D01*
X106587548Y-85061851D01*
X106593011Y-85156590D01*
X106600110Y-85279715D01*
X106601247Y-85284761D01*
X106601248Y-85284767D01*
X106621119Y-85372939D01*
X106649222Y-85497639D01*
X106733266Y-85704616D01*
X106784019Y-85787438D01*
X106847291Y-85890688D01*
X106849987Y-85895088D01*
X106996250Y-86063938D01*
X107168126Y-86206632D01*
X107238595Y-86247811D01*
X107241445Y-86249476D01*
X107290169Y-86301114D01*
X107303240Y-86370897D01*
X107276509Y-86436669D01*
X107236055Y-86470027D01*
X107223607Y-86476507D01*
X107219474Y-86479610D01*
X107219471Y-86479612D01*
X107119374Y-86554767D01*
X107044965Y-86610635D01*
X107041393Y-86614373D01*
X106899748Y-86762596D01*
X106890629Y-86772138D01*
X106764743Y-86956680D01*
X106670688Y-87159305D01*
X106610989Y-87374570D01*
X106587251Y-87596695D01*
X106587548Y-87601848D01*
X106587548Y-87601851D01*
X106593011Y-87696590D01*
X106600110Y-87819715D01*
X106601247Y-87824761D01*
X106601248Y-87824767D01*
X106621119Y-87912939D01*
X106649222Y-88037639D01*
X106733266Y-88244616D01*
X106784019Y-88327438D01*
X106847291Y-88430688D01*
X106849987Y-88435088D01*
X106996250Y-88603938D01*
X107168126Y-88746632D01*
X107238595Y-88787811D01*
X107241445Y-88789476D01*
X107290169Y-88841114D01*
X107303240Y-88910897D01*
X107276509Y-88976669D01*
X107236055Y-89010027D01*
X107223607Y-89016507D01*
X107219474Y-89019610D01*
X107219471Y-89019612D01*
X107119374Y-89094767D01*
X107044965Y-89150635D01*
X107041393Y-89154373D01*
X106899748Y-89302596D01*
X106890629Y-89312138D01*
X106764743Y-89496680D01*
X106670688Y-89699305D01*
X106610989Y-89914570D01*
X106587251Y-90136695D01*
X106587548Y-90141848D01*
X106587548Y-90141851D01*
X106593011Y-90236590D01*
X106600110Y-90359715D01*
X106601247Y-90364761D01*
X106601248Y-90364767D01*
X106621119Y-90452939D01*
X106649222Y-90577639D01*
X106733266Y-90784616D01*
X106784019Y-90867438D01*
X106847291Y-90970688D01*
X106849987Y-90975088D01*
X106996250Y-91143938D01*
X107168126Y-91286632D01*
X107238595Y-91327811D01*
X107241445Y-91329476D01*
X107290169Y-91381114D01*
X107303240Y-91450897D01*
X107276509Y-91516669D01*
X107236055Y-91550027D01*
X107223607Y-91556507D01*
X107219474Y-91559610D01*
X107219471Y-91559612D01*
X107119374Y-91634767D01*
X107044965Y-91690635D01*
X107041393Y-91694373D01*
X106899748Y-91842596D01*
X106890629Y-91852138D01*
X106764743Y-92036680D01*
X106670688Y-92239305D01*
X106610989Y-92454570D01*
X106587251Y-92676695D01*
X106587548Y-92681848D01*
X106587548Y-92681851D01*
X106593011Y-92776590D01*
X106600110Y-92899715D01*
X106601247Y-92904761D01*
X106601248Y-92904767D01*
X106621119Y-92992939D01*
X106649222Y-93117639D01*
X106733266Y-93324616D01*
X106784019Y-93407438D01*
X106847291Y-93510688D01*
X106849987Y-93515088D01*
X106996250Y-93683938D01*
X107168126Y-93826632D01*
X107238595Y-93867811D01*
X107241445Y-93869476D01*
X107290169Y-93921114D01*
X107303240Y-93990897D01*
X107276509Y-94056669D01*
X107236055Y-94090027D01*
X107223607Y-94096507D01*
X107219474Y-94099610D01*
X107219471Y-94099612D01*
X107119374Y-94174767D01*
X107044965Y-94230635D01*
X107041393Y-94234373D01*
X106899748Y-94382596D01*
X106890629Y-94392138D01*
X106764743Y-94576680D01*
X106670688Y-94779305D01*
X106610989Y-94994570D01*
X106587251Y-95216695D01*
X106587548Y-95221848D01*
X106587548Y-95221851D01*
X106594424Y-95341097D01*
X106600110Y-95439715D01*
X106601247Y-95444761D01*
X106601248Y-95444767D01*
X106621119Y-95532939D01*
X106649222Y-95657639D01*
X106733266Y-95864616D01*
X106784019Y-95947438D01*
X106847291Y-96050688D01*
X106849987Y-96055088D01*
X106996250Y-96223938D01*
X107168126Y-96366632D01*
X107238595Y-96407811D01*
X107241445Y-96409476D01*
X107290169Y-96461114D01*
X107303240Y-96530897D01*
X107276509Y-96596669D01*
X107236055Y-96630027D01*
X107223607Y-96636507D01*
X107219474Y-96639610D01*
X107219471Y-96639612D01*
X107195247Y-96657800D01*
X107044965Y-96770635D01*
X106890629Y-96932138D01*
X106764743Y-97116680D01*
X106670688Y-97319305D01*
X106610989Y-97534570D01*
X106587251Y-97756695D01*
X106587548Y-97761848D01*
X106587548Y-97761851D01*
X106593011Y-97856590D01*
X106600110Y-97979715D01*
X106601247Y-97984761D01*
X106601248Y-97984767D01*
X106621119Y-98072939D01*
X106649222Y-98197639D01*
X106733266Y-98404616D01*
X106784019Y-98487438D01*
X106847291Y-98590688D01*
X106849987Y-98595088D01*
X106996250Y-98763938D01*
X107168126Y-98906632D01*
X107238595Y-98947811D01*
X107241445Y-98949476D01*
X107290169Y-99001114D01*
X107303240Y-99070897D01*
X107276509Y-99136669D01*
X107236055Y-99170027D01*
X107223607Y-99176507D01*
X107219474Y-99179610D01*
X107219471Y-99179612D01*
X107049100Y-99307530D01*
X107044965Y-99310635D01*
X106890629Y-99472138D01*
X106764743Y-99656680D01*
X106749003Y-99690590D01*
X106681747Y-99835481D01*
X106670688Y-99859305D01*
X106610989Y-100074570D01*
X106587251Y-100296695D01*
X106587548Y-100301848D01*
X106587548Y-100301851D01*
X106595130Y-100433338D01*
X106600110Y-100519715D01*
X106601247Y-100524761D01*
X106601248Y-100524767D01*
X106612752Y-100575811D01*
X106649222Y-100737639D01*
X106651166Y-100742426D01*
X106651167Y-100742430D01*
X106671131Y-100791597D01*
X106678227Y-100862238D01*
X106646004Y-100925501D01*
X106584694Y-100961301D01*
X106554388Y-100965000D01*
X105718393Y-100965000D01*
X105650272Y-100944998D01*
X105603779Y-100891342D01*
X105593675Y-100821068D01*
X105601984Y-100790782D01*
X105621838Y-100742851D01*
X105624271Y-100724371D01*
X105642751Y-100584000D01*
X105621839Y-100425150D01*
X105581037Y-100326646D01*
X105563684Y-100284752D01*
X105563683Y-100284750D01*
X105560524Y-100277124D01*
X105462988Y-100150012D01*
X105437613Y-100130541D01*
X105425223Y-100119674D01*
X104731315Y-99425766D01*
X104720448Y-99413375D01*
X104706015Y-99394566D01*
X104700987Y-99388013D01*
X104669074Y-99363525D01*
X104669072Y-99363523D01*
X104580429Y-99295504D01*
X104580426Y-99295502D01*
X104573876Y-99290476D01*
X104425851Y-99229162D01*
X104407371Y-99226729D01*
X104267000Y-99208249D01*
X104108150Y-99229162D01*
X104100523Y-99232321D01*
X104100520Y-99232322D01*
X103967752Y-99287316D01*
X103967750Y-99287317D01*
X103960124Y-99290476D01*
X103833013Y-99388013D01*
X103735476Y-99515124D01*
X103685620Y-99635487D01*
X103674162Y-99663150D01*
X103658500Y-99782115D01*
X103658500Y-99782120D01*
X103653250Y-99822000D01*
X103654328Y-99830186D01*
X103654706Y-99833058D01*
X103654328Y-99835481D01*
X103654328Y-99838445D01*
X103653866Y-99838445D01*
X103643764Y-99903207D01*
X103596634Y-99956304D01*
X103529783Y-99975500D01*
X98893115Y-99975500D01*
X98774150Y-99991162D01*
X98626125Y-100052476D01*
X98597332Y-100074570D01*
X98505566Y-100144984D01*
X98505563Y-100144987D01*
X98499013Y-100150013D01*
X98401476Y-100277124D01*
X98398317Y-100284750D01*
X98398316Y-100284752D01*
X98350618Y-100399908D01*
X98340162Y-100425150D01*
X98319249Y-100584000D01*
X98340162Y-100742850D01*
X98343321Y-100750477D01*
X98343322Y-100750480D01*
X98360016Y-100790782D01*
X98367605Y-100861372D01*
X98335826Y-100924859D01*
X98274767Y-100961086D01*
X98243607Y-100965000D01*
X97281000Y-100965000D01*
X97212879Y-100944998D01*
X97166386Y-100891342D01*
X97155000Y-100839000D01*
X97155000Y-93946695D01*
X98967251Y-93946695D01*
X98967548Y-93951848D01*
X98967548Y-93951851D01*
X98973011Y-94046590D01*
X98980110Y-94169715D01*
X98981247Y-94174761D01*
X98981248Y-94174767D01*
X99001119Y-94262939D01*
X99029222Y-94387639D01*
X99113266Y-94594616D01*
X99164019Y-94677438D01*
X99227291Y-94780688D01*
X99229987Y-94785088D01*
X99376250Y-94953938D01*
X99548126Y-95096632D01*
X99741000Y-95209338D01*
X99949692Y-95289030D01*
X99954760Y-95290061D01*
X99954763Y-95290062D01*
X100062017Y-95311883D01*
X100168597Y-95333567D01*
X100173772Y-95333757D01*
X100173774Y-95333757D01*
X100386673Y-95341564D01*
X100386677Y-95341564D01*
X100391837Y-95341753D01*
X100396957Y-95341097D01*
X100396959Y-95341097D01*
X100608288Y-95314025D01*
X100608289Y-95314025D01*
X100613416Y-95313368D01*
X100618366Y-95311883D01*
X100822429Y-95250661D01*
X100822434Y-95250659D01*
X100827384Y-95249174D01*
X101027994Y-95150896D01*
X101209860Y-95021173D01*
X101368096Y-94863489D01*
X101427594Y-94780689D01*
X101498453Y-94682077D01*
X101499776Y-94683028D01*
X101546645Y-94639857D01*
X101616580Y-94627625D01*
X101682026Y-94655144D01*
X101709875Y-94686994D01*
X101769987Y-94785088D01*
X101916250Y-94953938D01*
X102088126Y-95096632D01*
X102281000Y-95209338D01*
X102489692Y-95289030D01*
X102494760Y-95290061D01*
X102494763Y-95290062D01*
X102602017Y-95311883D01*
X102708597Y-95333567D01*
X102713772Y-95333757D01*
X102713774Y-95333757D01*
X102926673Y-95341564D01*
X102926677Y-95341564D01*
X102931837Y-95341753D01*
X102936957Y-95341097D01*
X102936959Y-95341097D01*
X103148288Y-95314025D01*
X103148289Y-95314025D01*
X103153416Y-95313368D01*
X103158366Y-95311883D01*
X103362429Y-95250661D01*
X103362434Y-95250659D01*
X103367384Y-95249174D01*
X103567994Y-95150896D01*
X103749860Y-95021173D01*
X103908096Y-94863489D01*
X103967594Y-94780689D01*
X104035435Y-94686277D01*
X104038453Y-94682077D01*
X104059320Y-94639857D01*
X104135136Y-94486453D01*
X104135137Y-94486451D01*
X104137430Y-94481811D01*
X104202370Y-94268069D01*
X104231529Y-94046590D01*
X104233156Y-93980000D01*
X104214852Y-93757361D01*
X104160431Y-93540702D01*
X104071354Y-93335840D01*
X103950014Y-93148277D01*
X103799670Y-92983051D01*
X103795619Y-92979852D01*
X103795615Y-92979848D01*
X103628414Y-92847800D01*
X103628410Y-92847798D01*
X103624359Y-92844598D01*
X103583053Y-92821796D01*
X103533084Y-92771364D01*
X103518312Y-92701921D01*
X103543428Y-92635516D01*
X103570780Y-92608909D01*
X103614603Y-92577650D01*
X103749860Y-92481173D01*
X103908096Y-92323489D01*
X103967594Y-92240689D01*
X104035435Y-92146277D01*
X104038453Y-92142077D01*
X104059320Y-92099857D01*
X104135136Y-91946453D01*
X104135137Y-91946451D01*
X104137430Y-91941811D01*
X104202370Y-91728069D01*
X104231529Y-91506590D01*
X104233156Y-91440000D01*
X104214852Y-91217361D01*
X104160431Y-91000702D01*
X104071354Y-90795840D01*
X103950014Y-90608277D01*
X103799670Y-90443051D01*
X103795619Y-90439852D01*
X103795615Y-90439848D01*
X103628414Y-90307800D01*
X103628410Y-90307798D01*
X103624359Y-90304598D01*
X103583053Y-90281796D01*
X103533084Y-90231364D01*
X103518312Y-90161921D01*
X103543428Y-90095516D01*
X103570780Y-90068909D01*
X103614603Y-90037650D01*
X103749860Y-89941173D01*
X103908096Y-89783489D01*
X103967594Y-89700689D01*
X104035435Y-89606277D01*
X104038453Y-89602077D01*
X104059320Y-89559857D01*
X104135136Y-89406453D01*
X104135137Y-89406451D01*
X104137430Y-89401811D01*
X104202370Y-89188069D01*
X104231529Y-88966590D01*
X104233156Y-88900000D01*
X104214852Y-88677361D01*
X104160431Y-88460702D01*
X104071354Y-88255840D01*
X103950014Y-88068277D01*
X103799670Y-87903051D01*
X103795619Y-87899852D01*
X103795615Y-87899848D01*
X103628414Y-87767800D01*
X103628410Y-87767798D01*
X103624359Y-87764598D01*
X103583053Y-87741796D01*
X103533084Y-87691364D01*
X103518312Y-87621921D01*
X103543428Y-87555516D01*
X103570780Y-87528909D01*
X103614603Y-87497650D01*
X103749860Y-87401173D01*
X103908096Y-87243489D01*
X103967594Y-87160689D01*
X104035435Y-87066277D01*
X104038453Y-87062077D01*
X104059320Y-87019857D01*
X104135136Y-86866453D01*
X104135137Y-86866451D01*
X104137430Y-86861811D01*
X104202370Y-86648069D01*
X104231529Y-86426590D01*
X104233156Y-86360000D01*
X104214852Y-86137361D01*
X104160431Y-85920702D01*
X104071354Y-85715840D01*
X103950014Y-85528277D01*
X103799670Y-85363051D01*
X103795619Y-85359852D01*
X103795615Y-85359848D01*
X103628414Y-85227800D01*
X103628410Y-85227798D01*
X103624359Y-85224598D01*
X103583053Y-85201796D01*
X103533084Y-85151364D01*
X103518312Y-85081921D01*
X103543428Y-85015516D01*
X103570780Y-84988909D01*
X103614603Y-84957650D01*
X103749860Y-84861173D01*
X103908096Y-84703489D01*
X103967594Y-84620689D01*
X104035435Y-84526277D01*
X104038453Y-84522077D01*
X104059320Y-84479857D01*
X104135136Y-84326453D01*
X104135137Y-84326451D01*
X104137430Y-84321811D01*
X104202370Y-84108069D01*
X104231529Y-83886590D01*
X104233156Y-83820000D01*
X104214852Y-83597361D01*
X104160431Y-83380702D01*
X104071354Y-83175840D01*
X103950014Y-82988277D01*
X103799670Y-82823051D01*
X103795619Y-82819852D01*
X103795615Y-82819848D01*
X103628414Y-82687800D01*
X103628410Y-82687798D01*
X103624359Y-82684598D01*
X103583053Y-82661796D01*
X103533084Y-82611364D01*
X103518312Y-82541921D01*
X103543428Y-82475516D01*
X103570780Y-82448909D01*
X103614603Y-82417650D01*
X103749860Y-82321173D01*
X103908096Y-82163489D01*
X103967594Y-82080689D01*
X104035435Y-81986277D01*
X104038453Y-81982077D01*
X104059320Y-81939857D01*
X104135136Y-81786453D01*
X104135137Y-81786451D01*
X104137430Y-81781811D01*
X104202370Y-81568069D01*
X104231529Y-81346590D01*
X104233156Y-81280000D01*
X104214852Y-81057361D01*
X104160431Y-80840702D01*
X104071354Y-80635840D01*
X103950014Y-80448277D01*
X103799670Y-80283051D01*
X103795619Y-80279852D01*
X103795615Y-80279848D01*
X103628414Y-80147800D01*
X103628410Y-80147798D01*
X103624359Y-80144598D01*
X103583053Y-80121796D01*
X103533084Y-80071364D01*
X103518312Y-80001921D01*
X103543428Y-79935516D01*
X103570780Y-79908909D01*
X103614603Y-79877650D01*
X103749860Y-79781173D01*
X103908096Y-79623489D01*
X103967594Y-79540689D01*
X104035435Y-79446277D01*
X104038453Y-79442077D01*
X104059320Y-79399857D01*
X104135136Y-79246453D01*
X104135137Y-79246451D01*
X104137430Y-79241811D01*
X104202370Y-79028069D01*
X104231529Y-78806590D01*
X104233156Y-78740000D01*
X104214852Y-78517361D01*
X104160431Y-78300702D01*
X104071354Y-78095840D01*
X103950014Y-77908277D01*
X103799670Y-77743051D01*
X103795619Y-77739852D01*
X103795615Y-77739848D01*
X103628414Y-77607800D01*
X103628410Y-77607798D01*
X103624359Y-77604598D01*
X103583053Y-77581796D01*
X103533084Y-77531364D01*
X103518312Y-77461921D01*
X103543428Y-77395516D01*
X103570780Y-77368909D01*
X103614603Y-77337650D01*
X103749860Y-77241173D01*
X103908096Y-77083489D01*
X103967594Y-77000689D01*
X104035435Y-76906277D01*
X104038453Y-76902077D01*
X104059320Y-76859857D01*
X104135136Y-76706453D01*
X104135137Y-76706451D01*
X104137430Y-76701811D01*
X104202370Y-76488069D01*
X104231529Y-76266590D01*
X104233156Y-76200000D01*
X104214852Y-75977361D01*
X104160431Y-75760702D01*
X104071354Y-75555840D01*
X103950014Y-75368277D01*
X103799670Y-75203051D01*
X103795619Y-75199852D01*
X103795615Y-75199848D01*
X103628414Y-75067800D01*
X103628410Y-75067798D01*
X103624359Y-75064598D01*
X103583053Y-75041796D01*
X103533084Y-74991364D01*
X103518312Y-74921921D01*
X103543428Y-74855516D01*
X103570780Y-74828909D01*
X103614603Y-74797650D01*
X103749860Y-74701173D01*
X103908096Y-74543489D01*
X103967594Y-74460689D01*
X104035435Y-74366277D01*
X104038453Y-74362077D01*
X104059320Y-74319857D01*
X104135136Y-74166453D01*
X104135137Y-74166451D01*
X104137430Y-74161811D01*
X104202370Y-73948069D01*
X104231529Y-73726590D01*
X104233156Y-73660000D01*
X104214852Y-73437361D01*
X104160431Y-73220702D01*
X104071354Y-73015840D01*
X103950014Y-72828277D01*
X103799670Y-72663051D01*
X103795619Y-72659852D01*
X103795615Y-72659848D01*
X103628414Y-72527800D01*
X103628410Y-72527798D01*
X103624359Y-72524598D01*
X103583053Y-72501796D01*
X103533084Y-72451364D01*
X103518312Y-72381921D01*
X103543428Y-72315516D01*
X103570780Y-72288909D01*
X103614603Y-72257650D01*
X103749860Y-72161173D01*
X103908096Y-72003489D01*
X103967594Y-71920689D01*
X104035435Y-71826277D01*
X104038453Y-71822077D01*
X104059320Y-71779857D01*
X104135136Y-71626453D01*
X104135137Y-71626451D01*
X104137430Y-71621811D01*
X104202370Y-71408069D01*
X104231529Y-71186590D01*
X104233156Y-71120000D01*
X104214852Y-70897361D01*
X104160431Y-70680702D01*
X104071354Y-70475840D01*
X103950014Y-70288277D01*
X103799670Y-70123051D01*
X103795619Y-70119852D01*
X103795615Y-70119848D01*
X103628414Y-69987800D01*
X103628410Y-69987798D01*
X103624359Y-69984598D01*
X103583053Y-69961796D01*
X103533084Y-69911364D01*
X103518312Y-69841921D01*
X103543428Y-69775516D01*
X103570780Y-69748909D01*
X103614603Y-69717650D01*
X103749860Y-69621173D01*
X103908096Y-69463489D01*
X103967594Y-69380689D01*
X104035435Y-69286277D01*
X104038453Y-69282077D01*
X104059320Y-69239857D01*
X104135136Y-69086453D01*
X104135137Y-69086451D01*
X104137430Y-69081811D01*
X104202370Y-68868069D01*
X104231529Y-68646590D01*
X104233156Y-68580000D01*
X104214852Y-68357361D01*
X104160431Y-68140702D01*
X104071354Y-67935840D01*
X103950014Y-67748277D01*
X103799670Y-67583051D01*
X103795619Y-67579852D01*
X103795615Y-67579848D01*
X103628414Y-67447800D01*
X103628410Y-67447798D01*
X103624359Y-67444598D01*
X103583053Y-67421796D01*
X103533084Y-67371364D01*
X103518312Y-67301921D01*
X103543428Y-67235516D01*
X103570780Y-67208909D01*
X103614603Y-67177650D01*
X103749860Y-67081173D01*
X103908096Y-66923489D01*
X103967594Y-66840689D01*
X104035435Y-66746277D01*
X104038453Y-66742077D01*
X104059320Y-66699857D01*
X104135136Y-66546453D01*
X104135137Y-66546451D01*
X104137430Y-66541811D01*
X104202370Y-66328069D01*
X104231529Y-66106590D01*
X104233156Y-66040000D01*
X104214852Y-65817361D01*
X104160431Y-65600702D01*
X104071354Y-65395840D01*
X103950014Y-65208277D01*
X103799670Y-65043051D01*
X103795619Y-65039852D01*
X103795615Y-65039848D01*
X103628414Y-64907800D01*
X103628410Y-64907798D01*
X103624359Y-64904598D01*
X103583053Y-64881796D01*
X103533084Y-64831364D01*
X103518312Y-64761921D01*
X103543428Y-64695516D01*
X103570780Y-64668909D01*
X103614603Y-64637650D01*
X103749860Y-64541173D01*
X103908096Y-64383489D01*
X103967594Y-64300689D01*
X104035435Y-64206277D01*
X104038453Y-64202077D01*
X104059320Y-64159857D01*
X104135136Y-64006453D01*
X104135137Y-64006451D01*
X104137430Y-64001811D01*
X104202370Y-63788069D01*
X104231529Y-63566590D01*
X104233156Y-63500000D01*
X104214852Y-63277361D01*
X104160431Y-63060702D01*
X104071354Y-62855840D01*
X103950014Y-62668277D01*
X103799670Y-62503051D01*
X103795619Y-62499852D01*
X103795615Y-62499848D01*
X103628414Y-62367800D01*
X103628410Y-62367798D01*
X103624359Y-62364598D01*
X103583053Y-62341796D01*
X103533084Y-62291364D01*
X103518312Y-62221921D01*
X103543428Y-62155516D01*
X103570780Y-62128909D01*
X103614603Y-62097650D01*
X103749860Y-62001173D01*
X103908096Y-61843489D01*
X103967594Y-61760689D01*
X104035435Y-61666277D01*
X104038453Y-61662077D01*
X104059320Y-61619857D01*
X104135136Y-61466453D01*
X104135137Y-61466451D01*
X104137430Y-61461811D01*
X104202370Y-61248069D01*
X104231529Y-61026590D01*
X104233156Y-60960000D01*
X104214852Y-60737361D01*
X104160431Y-60520702D01*
X104071354Y-60315840D01*
X103950014Y-60128277D01*
X103799670Y-59963051D01*
X103757006Y-59929357D01*
X103715944Y-59871441D01*
X103712712Y-59800518D01*
X103748337Y-59739107D01*
X103781647Y-59716376D01*
X103787007Y-59713865D01*
X103793946Y-59711550D01*
X103944348Y-59618478D01*
X104069305Y-59493303D01*
X104108580Y-59429588D01*
X104158275Y-59348968D01*
X104158276Y-59348966D01*
X104162115Y-59342738D01*
X104204613Y-59214610D01*
X104215632Y-59181389D01*
X104215632Y-59181387D01*
X104217797Y-59174861D01*
X104228500Y-59070400D01*
X104228500Y-57769600D01*
X104217526Y-57663834D01*
X104215064Y-57656453D01*
X104163868Y-57503002D01*
X104161550Y-57496054D01*
X104068478Y-57345652D01*
X103943303Y-57220695D01*
X103937072Y-57216854D01*
X103798968Y-57131725D01*
X103798966Y-57131724D01*
X103792738Y-57127885D01*
X103632254Y-57074655D01*
X103631389Y-57074368D01*
X103631387Y-57074368D01*
X103624861Y-57072203D01*
X103618025Y-57071503D01*
X103618022Y-57071502D01*
X103574969Y-57067091D01*
X103520400Y-57061500D01*
X102219600Y-57061500D01*
X102216354Y-57061837D01*
X102216350Y-57061837D01*
X102120692Y-57071762D01*
X102120688Y-57071763D01*
X102113834Y-57072474D01*
X102107298Y-57074655D01*
X102107296Y-57074655D01*
X102044631Y-57095562D01*
X101946054Y-57128450D01*
X101795652Y-57221522D01*
X101790479Y-57226704D01*
X101732686Y-57284598D01*
X101670695Y-57346697D01*
X101666855Y-57352927D01*
X101666854Y-57352928D01*
X101582470Y-57489824D01*
X101577885Y-57497262D01*
X101575579Y-57504213D01*
X101573561Y-57508542D01*
X101526644Y-57561828D01*
X101458367Y-57581290D01*
X101390407Y-57560749D01*
X101366172Y-57540094D01*
X101263152Y-57426876D01*
X101263142Y-57426867D01*
X101259670Y-57423051D01*
X101255619Y-57419852D01*
X101255615Y-57419848D01*
X101088414Y-57287800D01*
X101088410Y-57287798D01*
X101084359Y-57284598D01*
X100888789Y-57176638D01*
X100883920Y-57174914D01*
X100883916Y-57174912D01*
X100683087Y-57103795D01*
X100683083Y-57103794D01*
X100678212Y-57102069D01*
X100673119Y-57101162D01*
X100673116Y-57101161D01*
X100463373Y-57063800D01*
X100463367Y-57063799D01*
X100458284Y-57062894D01*
X100384452Y-57061992D01*
X100240081Y-57060228D01*
X100240079Y-57060228D01*
X100234911Y-57060165D01*
X100014091Y-57093955D01*
X99801756Y-57163357D01*
X99771443Y-57179137D01*
X99681678Y-57225866D01*
X99603607Y-57266507D01*
X99599474Y-57269610D01*
X99599471Y-57269612D01*
X99429100Y-57397530D01*
X99424965Y-57400635D01*
X99394095Y-57432939D01*
X99279748Y-57552596D01*
X99270629Y-57562138D01*
X99144743Y-57746680D01*
X99050688Y-57949305D01*
X98990989Y-58164570D01*
X98967251Y-58386695D01*
X98967548Y-58391848D01*
X98967548Y-58391851D01*
X98969941Y-58433357D01*
X98980110Y-58609715D01*
X98981247Y-58614761D01*
X98981248Y-58614767D01*
X99005304Y-58721508D01*
X99029222Y-58827639D01*
X99113266Y-59034616D01*
X99137154Y-59073598D01*
X99215475Y-59201406D01*
X99229987Y-59225088D01*
X99376250Y-59393938D01*
X99548126Y-59536632D01*
X99618595Y-59577811D01*
X99621445Y-59579476D01*
X99670169Y-59631114D01*
X99683240Y-59700897D01*
X99656509Y-59766669D01*
X99616055Y-59800027D01*
X99603607Y-59806507D01*
X99599474Y-59809610D01*
X99599471Y-59809612D01*
X99429100Y-59937530D01*
X99424965Y-59940635D01*
X99421393Y-59944373D01*
X99279748Y-60092596D01*
X99270629Y-60102138D01*
X99144743Y-60286680D01*
X99050688Y-60489305D01*
X98990989Y-60704570D01*
X98967251Y-60926695D01*
X98967548Y-60931848D01*
X98967548Y-60931851D01*
X98973011Y-61026590D01*
X98980110Y-61149715D01*
X98981247Y-61154761D01*
X98981248Y-61154767D01*
X99001119Y-61242939D01*
X99029222Y-61367639D01*
X99113266Y-61574616D01*
X99164019Y-61657438D01*
X99227291Y-61760688D01*
X99229987Y-61765088D01*
X99376250Y-61933938D01*
X99548126Y-62076632D01*
X99618595Y-62117811D01*
X99621445Y-62119476D01*
X99670169Y-62171114D01*
X99683240Y-62240897D01*
X99656509Y-62306669D01*
X99616055Y-62340027D01*
X99603607Y-62346507D01*
X99599474Y-62349610D01*
X99599471Y-62349612D01*
X99499374Y-62424767D01*
X99424965Y-62480635D01*
X99421393Y-62484373D01*
X99279748Y-62632596D01*
X99270629Y-62642138D01*
X99144743Y-62826680D01*
X99050688Y-63029305D01*
X98990989Y-63244570D01*
X98967251Y-63466695D01*
X98967548Y-63471848D01*
X98967548Y-63471851D01*
X98973011Y-63566590D01*
X98980110Y-63689715D01*
X98981247Y-63694761D01*
X98981248Y-63694767D01*
X99001119Y-63782939D01*
X99029222Y-63907639D01*
X99113266Y-64114616D01*
X99164019Y-64197438D01*
X99227291Y-64300688D01*
X99229987Y-64305088D01*
X99376250Y-64473938D01*
X99548126Y-64616632D01*
X99618595Y-64657811D01*
X99621445Y-64659476D01*
X99670169Y-64711114D01*
X99683240Y-64780897D01*
X99656509Y-64846669D01*
X99616055Y-64880027D01*
X99603607Y-64886507D01*
X99599474Y-64889610D01*
X99599471Y-64889612D01*
X99499374Y-64964767D01*
X99424965Y-65020635D01*
X99421393Y-65024373D01*
X99279748Y-65172596D01*
X99270629Y-65182138D01*
X99144743Y-65366680D01*
X99050688Y-65569305D01*
X98990989Y-65784570D01*
X98967251Y-66006695D01*
X98967548Y-66011848D01*
X98967548Y-66011851D01*
X98973011Y-66106590D01*
X98980110Y-66229715D01*
X98981247Y-66234761D01*
X98981248Y-66234767D01*
X99001119Y-66322939D01*
X99029222Y-66447639D01*
X99113266Y-66654616D01*
X99164019Y-66737438D01*
X99227291Y-66840688D01*
X99229987Y-66845088D01*
X99376250Y-67013938D01*
X99548126Y-67156632D01*
X99618595Y-67197811D01*
X99621445Y-67199476D01*
X99670169Y-67251114D01*
X99683240Y-67320897D01*
X99656509Y-67386669D01*
X99616055Y-67420027D01*
X99603607Y-67426507D01*
X99599474Y-67429610D01*
X99599471Y-67429612D01*
X99499374Y-67504767D01*
X99424965Y-67560635D01*
X99421393Y-67564373D01*
X99279748Y-67712596D01*
X99270629Y-67722138D01*
X99144743Y-67906680D01*
X99050688Y-68109305D01*
X98990989Y-68324570D01*
X98967251Y-68546695D01*
X98967548Y-68551848D01*
X98967548Y-68551851D01*
X98973011Y-68646590D01*
X98980110Y-68769715D01*
X98981247Y-68774761D01*
X98981248Y-68774767D01*
X99001119Y-68862939D01*
X99029222Y-68987639D01*
X99113266Y-69194616D01*
X99164019Y-69277438D01*
X99227291Y-69380688D01*
X99229987Y-69385088D01*
X99376250Y-69553938D01*
X99548126Y-69696632D01*
X99618595Y-69737811D01*
X99621445Y-69739476D01*
X99670169Y-69791114D01*
X99683240Y-69860897D01*
X99656509Y-69926669D01*
X99616055Y-69960027D01*
X99603607Y-69966507D01*
X99599474Y-69969610D01*
X99599471Y-69969612D01*
X99499374Y-70044767D01*
X99424965Y-70100635D01*
X99421393Y-70104373D01*
X99279748Y-70252596D01*
X99270629Y-70262138D01*
X99144743Y-70446680D01*
X99050688Y-70649305D01*
X98990989Y-70864570D01*
X98967251Y-71086695D01*
X98967548Y-71091848D01*
X98967548Y-71091851D01*
X98973011Y-71186590D01*
X98980110Y-71309715D01*
X98981247Y-71314761D01*
X98981248Y-71314767D01*
X99001119Y-71402939D01*
X99029222Y-71527639D01*
X99113266Y-71734616D01*
X99164019Y-71817438D01*
X99227291Y-71920688D01*
X99229987Y-71925088D01*
X99376250Y-72093938D01*
X99548126Y-72236632D01*
X99618595Y-72277811D01*
X99621445Y-72279476D01*
X99670169Y-72331114D01*
X99683240Y-72400897D01*
X99656509Y-72466669D01*
X99616055Y-72500027D01*
X99603607Y-72506507D01*
X99599474Y-72509610D01*
X99599471Y-72509612D01*
X99499374Y-72584767D01*
X99424965Y-72640635D01*
X99421393Y-72644373D01*
X99279748Y-72792596D01*
X99270629Y-72802138D01*
X99144743Y-72986680D01*
X99050688Y-73189305D01*
X98990989Y-73404570D01*
X98967251Y-73626695D01*
X98967548Y-73631848D01*
X98967548Y-73631851D01*
X98973011Y-73726590D01*
X98980110Y-73849715D01*
X98981247Y-73854761D01*
X98981248Y-73854767D01*
X99001119Y-73942939D01*
X99029222Y-74067639D01*
X99113266Y-74274616D01*
X99164019Y-74357438D01*
X99227291Y-74460688D01*
X99229987Y-74465088D01*
X99376250Y-74633938D01*
X99548126Y-74776632D01*
X99618595Y-74817811D01*
X99621445Y-74819476D01*
X99670169Y-74871114D01*
X99683240Y-74940897D01*
X99656509Y-75006669D01*
X99616055Y-75040027D01*
X99603607Y-75046507D01*
X99599474Y-75049610D01*
X99599471Y-75049612D01*
X99499374Y-75124767D01*
X99424965Y-75180635D01*
X99421393Y-75184373D01*
X99279748Y-75332596D01*
X99270629Y-75342138D01*
X99144743Y-75526680D01*
X99050688Y-75729305D01*
X98990989Y-75944570D01*
X98967251Y-76166695D01*
X98967548Y-76171848D01*
X98967548Y-76171851D01*
X98973011Y-76266590D01*
X98980110Y-76389715D01*
X98981247Y-76394761D01*
X98981248Y-76394767D01*
X99001119Y-76482939D01*
X99029222Y-76607639D01*
X99113266Y-76814616D01*
X99164019Y-76897438D01*
X99227291Y-77000688D01*
X99229987Y-77005088D01*
X99376250Y-77173938D01*
X99548126Y-77316632D01*
X99618595Y-77357811D01*
X99621445Y-77359476D01*
X99670169Y-77411114D01*
X99683240Y-77480897D01*
X99656509Y-77546669D01*
X99616055Y-77580027D01*
X99603607Y-77586507D01*
X99599474Y-77589610D01*
X99599471Y-77589612D01*
X99499374Y-77664767D01*
X99424965Y-77720635D01*
X99421393Y-77724373D01*
X99279748Y-77872596D01*
X99270629Y-77882138D01*
X99144743Y-78066680D01*
X99050688Y-78269305D01*
X98990989Y-78484570D01*
X98967251Y-78706695D01*
X98967548Y-78711848D01*
X98967548Y-78711851D01*
X98973011Y-78806590D01*
X98980110Y-78929715D01*
X98981247Y-78934761D01*
X98981248Y-78934767D01*
X99001119Y-79022939D01*
X99029222Y-79147639D01*
X99113266Y-79354616D01*
X99164019Y-79437438D01*
X99227291Y-79540688D01*
X99229987Y-79545088D01*
X99376250Y-79713938D01*
X99548126Y-79856632D01*
X99618595Y-79897811D01*
X99621445Y-79899476D01*
X99670169Y-79951114D01*
X99683240Y-80020897D01*
X99656509Y-80086669D01*
X99616055Y-80120027D01*
X99603607Y-80126507D01*
X99599474Y-80129610D01*
X99599471Y-80129612D01*
X99499374Y-80204767D01*
X99424965Y-80260635D01*
X99421393Y-80264373D01*
X99279748Y-80412596D01*
X99270629Y-80422138D01*
X99144743Y-80606680D01*
X99050688Y-80809305D01*
X98990989Y-81024570D01*
X98967251Y-81246695D01*
X98967548Y-81251848D01*
X98967548Y-81251851D01*
X98973011Y-81346590D01*
X98980110Y-81469715D01*
X98981247Y-81474761D01*
X98981248Y-81474767D01*
X99001119Y-81562939D01*
X99029222Y-81687639D01*
X99113266Y-81894616D01*
X99164019Y-81977438D01*
X99227291Y-82080688D01*
X99229987Y-82085088D01*
X99376250Y-82253938D01*
X99548126Y-82396632D01*
X99618595Y-82437811D01*
X99621445Y-82439476D01*
X99670169Y-82491114D01*
X99683240Y-82560897D01*
X99656509Y-82626669D01*
X99616055Y-82660027D01*
X99603607Y-82666507D01*
X99599474Y-82669610D01*
X99599471Y-82669612D01*
X99499374Y-82744767D01*
X99424965Y-82800635D01*
X99421393Y-82804373D01*
X99279748Y-82952596D01*
X99270629Y-82962138D01*
X99144743Y-83146680D01*
X99050688Y-83349305D01*
X98990989Y-83564570D01*
X98967251Y-83786695D01*
X98967548Y-83791848D01*
X98967548Y-83791851D01*
X98973011Y-83886590D01*
X98980110Y-84009715D01*
X98981247Y-84014761D01*
X98981248Y-84014767D01*
X99001119Y-84102939D01*
X99029222Y-84227639D01*
X99113266Y-84434616D01*
X99164019Y-84517438D01*
X99227291Y-84620688D01*
X99229987Y-84625088D01*
X99376250Y-84793938D01*
X99548126Y-84936632D01*
X99618595Y-84977811D01*
X99621445Y-84979476D01*
X99670169Y-85031114D01*
X99683240Y-85100897D01*
X99656509Y-85166669D01*
X99616055Y-85200027D01*
X99603607Y-85206507D01*
X99599474Y-85209610D01*
X99599471Y-85209612D01*
X99499374Y-85284767D01*
X99424965Y-85340635D01*
X99421393Y-85344373D01*
X99279748Y-85492596D01*
X99270629Y-85502138D01*
X99144743Y-85686680D01*
X99050688Y-85889305D01*
X98990989Y-86104570D01*
X98967251Y-86326695D01*
X98967548Y-86331848D01*
X98967548Y-86331851D01*
X98973011Y-86426590D01*
X98980110Y-86549715D01*
X98981247Y-86554761D01*
X98981248Y-86554767D01*
X99001119Y-86642939D01*
X99029222Y-86767639D01*
X99113266Y-86974616D01*
X99164019Y-87057438D01*
X99227291Y-87160688D01*
X99229987Y-87165088D01*
X99376250Y-87333938D01*
X99548126Y-87476632D01*
X99618595Y-87517811D01*
X99621445Y-87519476D01*
X99670169Y-87571114D01*
X99683240Y-87640897D01*
X99656509Y-87706669D01*
X99616055Y-87740027D01*
X99603607Y-87746507D01*
X99599474Y-87749610D01*
X99599471Y-87749612D01*
X99499374Y-87824767D01*
X99424965Y-87880635D01*
X99421393Y-87884373D01*
X99279748Y-88032596D01*
X99270629Y-88042138D01*
X99144743Y-88226680D01*
X99050688Y-88429305D01*
X98990989Y-88644570D01*
X98967251Y-88866695D01*
X98967548Y-88871848D01*
X98967548Y-88871851D01*
X98973011Y-88966590D01*
X98980110Y-89089715D01*
X98981247Y-89094761D01*
X98981248Y-89094767D01*
X99001119Y-89182939D01*
X99029222Y-89307639D01*
X99113266Y-89514616D01*
X99164019Y-89597438D01*
X99227291Y-89700688D01*
X99229987Y-89705088D01*
X99376250Y-89873938D01*
X99548126Y-90016632D01*
X99618595Y-90057811D01*
X99621445Y-90059476D01*
X99670169Y-90111114D01*
X99683240Y-90180897D01*
X99656509Y-90246669D01*
X99616055Y-90280027D01*
X99603607Y-90286507D01*
X99599474Y-90289610D01*
X99599471Y-90289612D01*
X99499374Y-90364767D01*
X99424965Y-90420635D01*
X99421393Y-90424373D01*
X99279748Y-90572596D01*
X99270629Y-90582138D01*
X99144743Y-90766680D01*
X99050688Y-90969305D01*
X98990989Y-91184570D01*
X98967251Y-91406695D01*
X98967548Y-91411848D01*
X98967548Y-91411851D01*
X98973011Y-91506590D01*
X98980110Y-91629715D01*
X98981247Y-91634761D01*
X98981248Y-91634767D01*
X99001119Y-91722939D01*
X99029222Y-91847639D01*
X99113266Y-92054616D01*
X99164019Y-92137438D01*
X99227291Y-92240688D01*
X99229987Y-92245088D01*
X99376250Y-92413938D01*
X99548126Y-92556632D01*
X99618595Y-92597811D01*
X99621445Y-92599476D01*
X99670169Y-92651114D01*
X99683240Y-92720897D01*
X99656509Y-92786669D01*
X99616055Y-92820027D01*
X99603607Y-92826507D01*
X99599474Y-92829610D01*
X99599471Y-92829612D01*
X99499374Y-92904767D01*
X99424965Y-92960635D01*
X99421393Y-92964373D01*
X99279748Y-93112596D01*
X99270629Y-93122138D01*
X99144743Y-93306680D01*
X99050688Y-93509305D01*
X98990989Y-93724570D01*
X98967251Y-93946695D01*
X97155000Y-93946695D01*
X97155000Y-51561000D01*
X97175002Y-51492879D01*
X97228658Y-51446386D01*
X97281000Y-51435000D01*
X98243607Y-51435000D01*
X98311728Y-51455002D01*
G37*
%TD.AperFunction*%
M02*
