%TF.GenerationSoftware,KiCad,Pcbnew,(6.0.4)*%
%TF.CreationDate,2022-04-05T19:22:05-04:00*%
%TF.ProjectId,paladin_adaptor_2022,70616c61-6469-46e5-9f61-646170746f72,rev?*%
%TF.SameCoordinates,Original*%
%TF.FileFunction,Copper,L2,Bot*%
%TF.FilePolarity,Positive*%
%FSLAX46Y46*%
G04 Gerber Fmt 4.6, Leading zero omitted, Abs format (unit mm)*
G04 Created by KiCad (PCBNEW (6.0.4)) date 2022-04-05 19:22:05*
%MOMM*%
%LPD*%
G01*
G04 APERTURE LIST*
G04 Aperture macros list*
%AMRoundRect*
0 Rectangle with rounded corners*
0 $1 Rounding radius*
0 $2 $3 $4 $5 $6 $7 $8 $9 X,Y pos of 4 corners*
0 Add a 4 corners polygon primitive as box body*
4,1,4,$2,$3,$4,$5,$6,$7,$8,$9,$2,$3,0*
0 Add four circle primitives for the rounded corners*
1,1,$1+$1,$2,$3*
1,1,$1+$1,$4,$5*
1,1,$1+$1,$6,$7*
1,1,$1+$1,$8,$9*
0 Add four rect primitives between the rounded corners*
20,1,$1+$1,$2,$3,$4,$5,0*
20,1,$1+$1,$4,$5,$6,$7,0*
20,1,$1+$1,$6,$7,$8,$9,0*
20,1,$1+$1,$8,$9,$2,$3,0*%
G04 Aperture macros list end*
%TA.AperFunction,NonConductor*%
%ADD10C,0.200000*%
%TD*%
%TA.AperFunction,Profile*%
%ADD11C,0.100000*%
%TD*%
%TA.AperFunction,ComponentPad*%
%ADD12RoundRect,0.250000X-0.600000X-0.600000X0.600000X-0.600000X0.600000X0.600000X-0.600000X0.600000X0*%
%TD*%
%TA.AperFunction,ComponentPad*%
%ADD13C,1.700000*%
%TD*%
%TA.AperFunction,ComponentPad*%
%ADD14RoundRect,0.250000X0.600000X0.600000X-0.600000X0.600000X-0.600000X-0.600000X0.600000X-0.600000X0*%
%TD*%
%TA.AperFunction,Conductor*%
%ADD15C,0.250000*%
%TD*%
G04 APERTURE END LIST*
D10*
X105029000Y-100584000D02*
X98933000Y-100584000D01*
X104267000Y-99822000D02*
X104267000Y-101346000D01*
X105029000Y-100584000D02*
X104267000Y-99822000D01*
X104267000Y-101346000D02*
X105029000Y-100584000D01*
X122047000Y-100584000D02*
X115951000Y-100584000D01*
X121285000Y-99822000D02*
X121285000Y-101346000D01*
X122047000Y-100584000D02*
X121285000Y-99822000D01*
X121285000Y-101346000D02*
X122047000Y-100584000D01*
X105029000Y-51816000D02*
X98933000Y-51816000D01*
X104267000Y-51054000D02*
X104267000Y-52578000D01*
X105029000Y-51816000D02*
X104267000Y-51054000D01*
X104267000Y-52578000D02*
X105029000Y-51816000D01*
X122047000Y-51816000D02*
X115951000Y-51816000D01*
X121285000Y-51054000D02*
X121285000Y-52578000D01*
X122047000Y-51816000D02*
X121285000Y-51054000D01*
X121285000Y-52578000D02*
X122047000Y-51816000D01*
D11*
X96520000Y-101600000D02*
X96520000Y-50800000D01*
X124460000Y-101600000D02*
X96520000Y-101600000D01*
X124460000Y-50800000D02*
X124460000Y-101600000D01*
X96520000Y-50800000D02*
X124460000Y-50800000D01*
D12*
%TO.P,J1,1*%
%TO.N,P1*%
X107950000Y-52070000D03*
D13*
%TO.P,J1,2*%
%TO.N,P2*%
X107950000Y-54610000D03*
%TO.P,J1,3*%
%TO.N,P3*%
X107950000Y-57150000D03*
%TO.P,J1,4*%
%TO.N,P4*%
X107950000Y-59690000D03*
%TO.P,J1,5*%
%TO.N,P5*%
X107950000Y-62230000D03*
%TO.P,J1,6*%
%TO.N,P6*%
X107950000Y-64770000D03*
%TO.P,J1,7*%
%TO.N,P7*%
X107950000Y-67310000D03*
%TO.P,J1,8*%
%TO.N,P8*%
X107950000Y-69850000D03*
%TO.P,J1,9*%
%TO.N,P9*%
X107950000Y-72390000D03*
%TO.P,J1,10*%
%TO.N,P10*%
X107950000Y-74930000D03*
%TO.P,J1,11*%
%TO.N,P11*%
X107950000Y-77470000D03*
%TO.P,J1,12*%
%TO.N,P12*%
X107950000Y-80010000D03*
%TO.P,J1,13*%
%TO.N,P13*%
X107950000Y-82550000D03*
%TO.P,J1,14*%
%TO.N,P14*%
X107950000Y-85090000D03*
%TO.P,J1,15*%
%TO.N,P15*%
X107950000Y-87630000D03*
%TO.P,J1,16*%
%TO.N,P16*%
X107950000Y-90170000D03*
%TO.P,J1,17*%
%TO.N,P17*%
X107950000Y-92710000D03*
%TO.P,J1,18*%
%TO.N,P18*%
X107950000Y-95250000D03*
%TO.P,J1,19*%
%TO.N,P19*%
X107950000Y-97790000D03*
%TO.P,J1,20*%
%TO.N,P20*%
X107950000Y-100330000D03*
%TO.P,J1,21*%
%TO.N,P21*%
X110490000Y-52070000D03*
%TO.P,J1,22*%
%TO.N,P22*%
X110490000Y-54610000D03*
%TO.P,J1,23*%
%TO.N,P23*%
X110490000Y-57150000D03*
%TO.P,J1,24*%
%TO.N,P24*%
X110490000Y-59690000D03*
%TO.P,J1,25*%
%TO.N,P25*%
X110490000Y-62230000D03*
%TO.P,J1,26*%
%TO.N,P26*%
X110490000Y-64770000D03*
%TO.P,J1,27*%
%TO.N,P27*%
X110490000Y-67310000D03*
%TO.P,J1,28*%
%TO.N,P28*%
X110490000Y-69850000D03*
%TO.P,J1,29*%
%TO.N,P29*%
X110490000Y-72390000D03*
%TO.P,J1,30*%
%TO.N,P30*%
X110490000Y-74930000D03*
%TO.P,J1,31*%
%TO.N,P31*%
X110490000Y-77470000D03*
%TO.P,J1,32*%
%TO.N,P32*%
X110490000Y-80010000D03*
%TO.P,J1,33*%
%TO.N,P33*%
X110490000Y-82550000D03*
%TO.P,J1,34*%
%TO.N,P34*%
X110490000Y-85090000D03*
%TO.P,J1,35*%
%TO.N,P35*%
X110490000Y-87630000D03*
%TO.P,J1,36*%
%TO.N,P36*%
X110490000Y-90170000D03*
%TO.P,J1,37*%
%TO.N,P37*%
X110490000Y-92710000D03*
%TO.P,J1,38*%
%TO.N,P38*%
X110490000Y-95250000D03*
%TO.P,J1,39*%
%TO.N,P39*%
X110490000Y-97790000D03*
%TO.P,J1,40*%
%TO.N,P40*%
X110490000Y-100330000D03*
%TO.P,J1,41*%
%TO.N,P41*%
X113030000Y-52070000D03*
%TO.P,J1,42*%
%TO.N,P42*%
X113030000Y-54610000D03*
%TO.P,J1,43*%
%TO.N,P43*%
X113030000Y-57150000D03*
%TO.P,J1,44*%
%TO.N,P44*%
X113030000Y-59690000D03*
%TO.P,J1,45*%
%TO.N,P45*%
X113030000Y-62230000D03*
%TO.P,J1,46*%
%TO.N,P46*%
X113030000Y-64770000D03*
%TO.P,J1,47*%
%TO.N,P47*%
X113030000Y-67310000D03*
%TO.P,J1,48*%
%TO.N,P48*%
X113030000Y-69850000D03*
%TO.P,J1,49*%
%TO.N,P49*%
X113030000Y-72390000D03*
%TO.P,J1,50*%
%TO.N,P50*%
X113030000Y-74930000D03*
%TO.P,J1,51*%
%TO.N,P51*%
X113030000Y-77470000D03*
%TO.P,J1,52*%
%TO.N,P52*%
X113030000Y-80010000D03*
%TO.P,J1,53*%
%TO.N,P53*%
X113030000Y-82550000D03*
%TO.P,J1,54*%
%TO.N,P54*%
X113030000Y-85090000D03*
%TO.P,J1,55*%
%TO.N,P55*%
X113030000Y-87630000D03*
%TO.P,J1,56*%
%TO.N,P56*%
X113030000Y-90170000D03*
%TO.P,J1,57*%
%TO.N,P57*%
X113030000Y-92710000D03*
%TO.P,J1,58*%
%TO.N,P58*%
X113030000Y-95250000D03*
%TO.P,J1,59*%
%TO.N,P59*%
X113030000Y-97790000D03*
%TO.P,J1,60*%
%TO.N,P60*%
X113030000Y-100330000D03*
%TD*%
D14*
%TO.P,J3,1,Pin_1*%
%TO.N,P41*%
X120650000Y-58420000D03*
D13*
%TO.P,J3,2,Pin_2*%
%TO.N,P22*%
X118110000Y-58420000D03*
%TO.P,J3,3,Pin_3*%
%TO.N,P42*%
X120650000Y-60960000D03*
%TO.P,J3,4,Pin_4*%
%TO.N,P24*%
X118110000Y-60960000D03*
%TO.P,J3,5,Pin_5*%
%TO.N,P43*%
X120650000Y-63500000D03*
%TO.P,J3,6,Pin_6*%
%TO.N,P44*%
X118110000Y-63500000D03*
%TO.P,J3,7,Pin_7*%
%TO.N,P45*%
X120650000Y-66040000D03*
%TO.P,J3,8,Pin_8*%
%TO.N,P26*%
X118110000Y-66040000D03*
%TO.P,J3,9,Pin_9*%
%TO.N,P46*%
X120650000Y-68580000D03*
%TO.P,J3,10,Pin_10*%
%TO.N,P28*%
X118110000Y-68580000D03*
%TO.P,J3,11,Pin_11*%
%TO.N,P47*%
X120650000Y-71120000D03*
%TO.P,J3,12,Pin_12*%
%TO.N,P48*%
X118110000Y-71120000D03*
%TO.P,J3,13,Pin_13*%
%TO.N,P49*%
X120650000Y-73660000D03*
%TO.P,J3,14,Pin_14*%
%TO.N,P30*%
X118110000Y-73660000D03*
%TO.P,J3,15,Pin_15*%
%TO.N,P50*%
X120650000Y-76200000D03*
%TO.P,J3,16,Pin_16*%
%TO.N,P51*%
X118110000Y-76200000D03*
%TO.P,J3,17,Pin_17*%
%TO.N,P31*%
X120650000Y-78740000D03*
%TO.P,J3,18,Pin_18*%
%TO.N,P52*%
X118110000Y-78740000D03*
%TO.P,J3,19,Pin_19*%
%TO.N,P53*%
X120650000Y-81280000D03*
%TO.P,J3,20,Pin_20*%
%TO.N,P54*%
X118110000Y-81280000D03*
%TO.P,J3,21,Pin_21*%
%TO.N,P33*%
X120650000Y-83820000D03*
%TO.P,J3,22,Pin_22*%
%TO.N,P55*%
X118110000Y-83820000D03*
%TO.P,J3,23,Pin_23*%
%TO.N,P35*%
X120650000Y-86360000D03*
%TO.P,J3,24,Pin_24*%
%TO.N,P56*%
X118110000Y-86360000D03*
%TO.P,J3,25,Pin_25*%
%TO.N,P57*%
X120650000Y-88900000D03*
%TO.P,J3,26,Pin_26*%
%TO.N,P58*%
X118110000Y-88900000D03*
%TO.P,J3,27,Pin_27*%
%TO.N,P37*%
X120650000Y-91440000D03*
%TO.P,J3,28,Pin_28*%
%TO.N,P59*%
X118110000Y-91440000D03*
%TO.P,J3,29,Pin_29*%
%TO.N,P39*%
X120650000Y-93980000D03*
%TO.P,J3,30,Pin_30*%
%TO.N,P60*%
X118110000Y-93980000D03*
%TD*%
D14*
%TO.P,J2,1,Pin_1*%
%TO.N,P1*%
X102870000Y-58420000D03*
D13*
%TO.P,J2,2,Pin_2*%
%TO.N,P21*%
X100330000Y-58420000D03*
%TO.P,J2,3,Pin_3*%
%TO.N,P2*%
X102870000Y-60960000D03*
%TO.P,J2,4,Pin_4*%
%TO.N,P23*%
X100330000Y-60960000D03*
%TO.P,J2,5,Pin_5*%
%TO.N,P3*%
X102870000Y-63500000D03*
%TO.P,J2,6,Pin_6*%
%TO.N,P4*%
X100330000Y-63500000D03*
%TO.P,J2,7,Pin_7*%
%TO.N,P5*%
X102870000Y-66040000D03*
%TO.P,J2,8,Pin_8*%
%TO.N,P25*%
X100330000Y-66040000D03*
%TO.P,J2,9,Pin_9*%
%TO.N,P6*%
X102870000Y-68580000D03*
%TO.P,J2,10,Pin_10*%
%TO.N,P27*%
X100330000Y-68580000D03*
%TO.P,J2,11,Pin_11*%
%TO.N,P7*%
X102870000Y-71120000D03*
%TO.P,J2,12,Pin_12*%
%TO.N,P8*%
X100330000Y-71120000D03*
%TO.P,J2,13,Pin_13*%
%TO.N,P9*%
X102870000Y-73660000D03*
%TO.P,J2,14,Pin_14*%
%TO.N,P29*%
X100330000Y-73660000D03*
%TO.P,J2,15,Pin_15*%
%TO.N,P10*%
X102870000Y-76200000D03*
%TO.P,J2,16,Pin_16*%
%TO.N,P11*%
X100330000Y-76200000D03*
%TO.P,J2,17,Pin_17*%
%TO.N,P32*%
X102870000Y-78740000D03*
%TO.P,J2,18,Pin_18*%
%TO.N,P12*%
X100330000Y-78740000D03*
%TO.P,J2,19,Pin_19*%
%TO.N,P13*%
X102870000Y-81280000D03*
%TO.P,J2,20,Pin_20*%
%TO.N,P14*%
X100330000Y-81280000D03*
%TO.P,J2,21,Pin_21*%
%TO.N,P34*%
X102870000Y-83820000D03*
%TO.P,J2,22,Pin_22*%
%TO.N,P15*%
X100330000Y-83820000D03*
%TO.P,J2,23,Pin_23*%
%TO.N,P36*%
X102870000Y-86360000D03*
%TO.P,J2,24,Pin_24*%
%TO.N,P16*%
X100330000Y-86360000D03*
%TO.P,J2,25,Pin_25*%
%TO.N,P17*%
X102870000Y-88900000D03*
%TO.P,J2,26,Pin_26*%
%TO.N,P18*%
X100330000Y-88900000D03*
%TO.P,J2,27,Pin_27*%
%TO.N,P38*%
X102870000Y-91440000D03*
%TO.P,J2,28,Pin_28*%
%TO.N,P19*%
X100330000Y-91440000D03*
%TO.P,J2,29,Pin_29*%
%TO.N,P40*%
X102870000Y-93980000D03*
%TO.P,J2,30,Pin_30*%
%TO.N,P20*%
X100330000Y-93980000D03*
%TD*%
D15*
%TO.N,P3*%
X106680000Y-58420000D02*
X107950000Y-57150000D01*
%TO.N,P30*%
X111760000Y-73660000D02*
X110490000Y-74930000D01*
%TO.N,P19*%
X100330000Y-91440000D02*
X101600000Y-92710000D01*
X101600000Y-92710000D02*
X103505000Y-92710000D01*
X103505000Y-92710000D02*
X106045000Y-95250000D01*
X107949282Y-97790000D02*
X107950000Y-97790000D01*
X106045000Y-95250000D02*
X106045000Y-95885718D01*
X106045000Y-95885718D02*
X107949282Y-97790000D01*
%TO.N,P20*%
X107950000Y-100330000D02*
X107949283Y-100330000D01*
X107949283Y-100330000D02*
X103504283Y-95885000D01*
X103504283Y-95885000D02*
X102235000Y-95885000D01*
X102235000Y-95885000D02*
X100330000Y-93980000D01*
%TO.N,P60*%
X113665000Y-99695000D02*
X113665718Y-99695000D01*
X113030000Y-100330000D02*
X113665000Y-99695000D01*
X113665718Y-99695000D02*
X118110000Y-95250718D01*
X118110000Y-95250718D02*
X118110000Y-93980000D01*
%TO.N,P21*%
X100330000Y-58420000D02*
X101600000Y-59690000D01*
X103612493Y-59690000D02*
X104960480Y-58342013D01*
X101600000Y-59690000D02*
X103612493Y-59690000D01*
X104960480Y-55938510D02*
X107654470Y-53244520D01*
X104960480Y-58342013D02*
X104960480Y-55938510D01*
X107654470Y-53244520D02*
X109315480Y-53244520D01*
X109315480Y-53244520D02*
X110490000Y-52070000D01*
%TO.N,P2*%
X105410000Y-59690000D02*
X105410000Y-57149282D01*
X102870000Y-60960000D02*
X104140000Y-60960000D01*
X104140000Y-60960000D02*
X105410000Y-59690000D01*
X105410000Y-57149282D02*
X107949282Y-54610000D01*
X107949282Y-54610000D02*
X107950000Y-54610000D01*
%TO.N,P23*%
X100330000Y-60960000D02*
X101504511Y-62134511D01*
X106045000Y-57150000D02*
X107219511Y-55975489D01*
X101504511Y-62134511D02*
X104234771Y-62134511D01*
X109315489Y-55975489D02*
X110490000Y-57150000D01*
X104234771Y-62134511D02*
X106045000Y-60324282D01*
X107219511Y-55975489D02*
X109315489Y-55975489D01*
X106045000Y-60324282D02*
X106045000Y-57150000D01*
%TO.N,P3*%
X102870000Y-63500000D02*
X103505000Y-63500000D01*
X103505000Y-63500000D02*
X106680000Y-60325000D01*
X106680000Y-60325000D02*
X106680000Y-58420000D01*
%TO.N,P39*%
X110490000Y-97790000D02*
X111664511Y-98964511D01*
X113760489Y-98964511D02*
X115571077Y-97153923D01*
X111664511Y-98964511D02*
X113760489Y-98964511D01*
X115571077Y-94616077D02*
X117381665Y-92805489D01*
X115571077Y-97153923D02*
X115571077Y-94616077D01*
X117381665Y-92805489D02*
X119475489Y-92805489D01*
X119475489Y-92805489D02*
X120650000Y-93980000D01*
%TO.N,P59*%
X113030000Y-97790000D02*
X114749879Y-96070121D01*
X114749879Y-96070121D02*
X114749879Y-94801557D01*
X114749879Y-94801557D02*
X116840718Y-92710718D01*
X117475000Y-91440000D02*
X118110000Y-91440000D01*
X116840718Y-92710718D02*
X116840000Y-92710000D01*
X116840000Y-92710000D02*
X116840000Y-92075000D01*
X116840000Y-92075000D02*
X117475000Y-91440000D01*
%TO.N,P37*%
X113421010Y-96520000D02*
X114300359Y-95640651D01*
X119475489Y-90265489D02*
X120650000Y-91440000D01*
X111855489Y-95736499D02*
X112638990Y-96520000D01*
X112638990Y-96520000D02*
X113421010Y-96520000D01*
X116205359Y-92710359D02*
X116205359Y-91440359D01*
X110490000Y-92710000D02*
X111855489Y-94075489D01*
X111855489Y-94075489D02*
X111855489Y-95736499D01*
X114300359Y-95640651D02*
X114300359Y-94615359D01*
X117380229Y-90265489D02*
X119475489Y-90265489D01*
X114300359Y-94615359D02*
X116205359Y-92710359D01*
X116205359Y-91440359D02*
X117380229Y-90265489D01*
%TO.N,P58*%
X115570000Y-92710000D02*
X115570000Y-91440000D01*
X115570000Y-91440000D02*
X118110000Y-88900000D01*
X113030000Y-95250000D02*
X115570000Y-92710000D01*
%TO.N,P57*%
X113030000Y-92710000D02*
X113030000Y-92318990D01*
X113030000Y-92318990D02*
X117718990Y-87630000D01*
X119380000Y-87630000D02*
X120650000Y-88900000D01*
X117718990Y-87630000D02*
X119380000Y-87630000D01*
%TO.N,P56*%
X118110000Y-86360000D02*
X114300000Y-90170000D01*
X114300000Y-90170000D02*
X113030000Y-90170000D01*
%TO.N,P35*%
X110490000Y-87630000D02*
X111664511Y-88804511D01*
X111664511Y-88804511D02*
X114004479Y-88804511D01*
X114004479Y-88804511D02*
X117718990Y-85090000D01*
X117718990Y-85090000D02*
X119380000Y-85090000D01*
X119380000Y-85090000D02*
X120650000Y-86360000D01*
%TO.N,P33*%
X110490000Y-82550000D02*
X111760000Y-83820000D01*
X111760000Y-83820000D02*
X111760000Y-85481010D01*
X111760000Y-85481010D02*
X112638631Y-86359641D01*
X112638631Y-86359641D02*
X113664641Y-86359641D01*
X113664641Y-86359641D02*
X117378793Y-82645489D01*
X117378793Y-82645489D02*
X119475489Y-82645489D01*
X119475489Y-82645489D02*
X120650000Y-83820000D01*
%TO.N,P55*%
X113030000Y-87630000D02*
X116840000Y-83820000D01*
X116840000Y-83820000D02*
X118110000Y-83820000D01*
%TO.N,P54*%
X118110000Y-81280000D02*
X116840000Y-81280000D01*
X116840000Y-81280000D02*
X113030000Y-85090000D01*
%TO.N,P53*%
X120650000Y-81280000D02*
X119475489Y-80105489D01*
X119475489Y-80105489D02*
X115474511Y-80105489D01*
X115474511Y-80105489D02*
X113030000Y-82550000D01*
%TO.N,P52*%
X118110000Y-78740000D02*
X114300000Y-78740000D01*
X114300000Y-78740000D02*
X113030000Y-80010000D01*
%TO.N,P31*%
X120650000Y-78740000D02*
X119475489Y-77565489D01*
X119475489Y-77565489D02*
X114595521Y-77565489D01*
X114595521Y-77565489D02*
X113516499Y-78644511D01*
X113516499Y-78644511D02*
X111664511Y-78644511D01*
X111664511Y-78644511D02*
X110490000Y-77470000D01*
%TO.N,P51*%
X118110000Y-76200000D02*
X114300000Y-76200000D01*
X114300000Y-76200000D02*
X113030000Y-77470000D01*
%TO.N,P50*%
X113030000Y-74930000D02*
X119380000Y-74930000D01*
X119380000Y-74930000D02*
X120650000Y-76200000D01*
%TO.N,P30*%
X111760000Y-73660000D02*
X118110000Y-73660000D01*
%TO.N,P49*%
X113030000Y-72390000D02*
X119380000Y-72390000D01*
X119380000Y-72390000D02*
X120650000Y-73660000D01*
%TO.N,P48*%
X114300000Y-69850000D02*
X115570000Y-71120000D01*
X113030000Y-69850000D02*
X114300000Y-69850000D01*
X115570000Y-71120000D02*
X118110000Y-71120000D01*
%TO.N,P47*%
X113030000Y-67310000D02*
X115665489Y-69945489D01*
X115665489Y-69945489D02*
X119475489Y-69945489D01*
X119475489Y-69945489D02*
X120650000Y-71120000D01*
%TO.N,P28*%
X111855489Y-66579511D02*
X112395000Y-66040000D01*
X111855489Y-68484511D02*
X111855489Y-66579511D01*
X110490000Y-69850000D02*
X111855489Y-68484511D01*
X112395000Y-66040000D02*
X113421010Y-66040000D01*
X113421010Y-66040000D02*
X115961010Y-68580000D01*
X115961010Y-68580000D02*
X118110000Y-68580000D01*
%TO.N,P46*%
X113030000Y-64770000D02*
X115665489Y-67405489D01*
X115665489Y-67405489D02*
X119475489Y-67405489D01*
X119475489Y-67405489D02*
X120650000Y-68580000D01*
%TO.N,P26*%
X110490000Y-64770000D02*
X111664511Y-63595489D01*
X111664511Y-63595489D02*
X113759771Y-63595489D01*
X113759771Y-63595489D02*
X116204282Y-66040000D01*
X116204282Y-66040000D02*
X118110000Y-66040000D01*
%TO.N,P45*%
X113030000Y-62230000D02*
X115665489Y-64865489D01*
X115665489Y-64865489D02*
X119475489Y-64865489D01*
X119475489Y-64865489D02*
X120650000Y-66040000D01*
%TO.N,P44*%
X113030000Y-59690000D02*
X116840000Y-63500000D01*
X116840000Y-63500000D02*
X118110000Y-63500000D01*
%TO.N,P24*%
X110490000Y-59690000D02*
X111664511Y-58515489D01*
X111664511Y-58515489D02*
X113759771Y-58515489D01*
X113759771Y-58515489D02*
X116204282Y-60960000D01*
X116204282Y-60960000D02*
X118110000Y-60960000D01*
%TO.N,P43*%
X113030000Y-57150000D02*
X115474511Y-59594511D01*
X115474511Y-59594511D02*
X118648794Y-59594511D01*
X118648794Y-59594511D02*
X119380000Y-60325717D01*
X119380000Y-62230000D02*
X120650000Y-63500000D01*
X119380000Y-60325717D02*
X119380000Y-62230000D01*
%TO.N,P22*%
X110490000Y-54610000D02*
X111855489Y-55975489D01*
X111855489Y-55975489D02*
X115665489Y-55975489D01*
X115665489Y-55975489D02*
X118110000Y-58420000D01*
%TO.N,P42*%
X113030000Y-54610000D02*
X115961010Y-54610000D01*
X119380000Y-58028990D02*
X119380000Y-59690000D01*
X115961010Y-54610000D02*
X119380000Y-58028990D01*
X119380000Y-59690000D02*
X120650000Y-60960000D01*
%TO.N,P41*%
X113030000Y-52070000D02*
X114300000Y-52070000D01*
X114300000Y-52070000D02*
X120650000Y-58420000D01*
%TO.N,P38*%
X102870000Y-91440000D02*
X104139282Y-91440000D01*
X106680000Y-95885000D02*
X107315000Y-96520000D01*
X104139282Y-91440000D02*
X106680000Y-93980718D01*
X106680000Y-93980718D02*
X106680000Y-95885000D01*
X107315000Y-96520000D02*
X109220000Y-96520000D01*
X109220000Y-96520000D02*
X110490000Y-95250000D01*
%TO.N,P18*%
X101600000Y-90170000D02*
X103505000Y-90170000D01*
X100330000Y-88900000D02*
X101600000Y-90170000D01*
X107950000Y-94615000D02*
X107950000Y-95250000D01*
X103505000Y-90170000D02*
X107950000Y-94615000D01*
%TO.N,P40*%
X110490000Y-100330000D02*
X109315489Y-99155489D01*
X109315489Y-99155489D02*
X107410489Y-99155489D01*
X107410489Y-99155489D02*
X102870000Y-94615000D01*
X102870000Y-94615000D02*
X102870000Y-93980000D01*
%TO.N,P17*%
X107950000Y-92710000D02*
X104140000Y-88900000D01*
X104140000Y-88900000D02*
X102870000Y-88900000D01*
%TO.N,P16*%
X100330000Y-86360000D02*
X101600000Y-87630000D01*
X101600000Y-87630000D02*
X104140000Y-87630000D01*
X104140000Y-87630000D02*
X106680000Y-90170000D01*
X106680000Y-90170000D02*
X107950000Y-90170000D01*
%TO.N,P36*%
X110490000Y-90170000D02*
X109220000Y-88900000D01*
X109220000Y-88900000D02*
X107315000Y-88900000D01*
X107315000Y-88900000D02*
X104775000Y-86360000D01*
X104775000Y-86360000D02*
X102870000Y-86360000D01*
%TO.N,P15*%
X100330000Y-83820000D02*
X101695489Y-85185489D01*
X101695489Y-85185489D02*
X105504771Y-85185489D01*
X105504771Y-85185489D02*
X107949282Y-87630000D01*
X107949282Y-87630000D02*
X107950000Y-87630000D01*
%TO.N,P34*%
X107315000Y-86360000D02*
X104775000Y-83820000D01*
X110490000Y-85090000D02*
X109220000Y-86360000D01*
X109220000Y-86360000D02*
X107315000Y-86360000D01*
X104775000Y-83820000D02*
X102870000Y-83820000D01*
%TO.N,P14*%
X107950000Y-85090000D02*
X105410000Y-82550000D01*
X105410000Y-82550000D02*
X101600000Y-82550000D01*
X101600000Y-82550000D02*
X100330000Y-81280000D01*
%TO.N,P13*%
X107950000Y-82550000D02*
X106680000Y-81280000D01*
X106680000Y-81280000D02*
X102870000Y-81280000D01*
%TO.N,P12*%
X107950000Y-80010000D02*
X101600000Y-80010000D01*
X101600000Y-80010000D02*
X100330000Y-78740000D01*
%TO.N,P32*%
X110490000Y-80010000D02*
X109220000Y-78740000D01*
X109220000Y-78740000D02*
X102870000Y-78740000D01*
%TO.N,P11*%
X107950000Y-77470000D02*
X101600000Y-77470000D01*
X101600000Y-77470000D02*
X100330000Y-76200000D01*
%TO.N,P10*%
X105410000Y-74930000D02*
X104140000Y-76200000D01*
X104140000Y-76200000D02*
X102870000Y-76200000D01*
X107950000Y-74930000D02*
X105410000Y-74930000D01*
%TO.N,P9*%
X107950000Y-72390000D02*
X107315000Y-73025000D01*
X107315000Y-73025000D02*
X103505000Y-73025000D01*
X103505000Y-73025000D02*
X102870000Y-73660000D01*
%TO.N,P29*%
X110490000Y-72390000D02*
X109124511Y-73755489D01*
X109124511Y-73755489D02*
X105314511Y-73755489D01*
X104140000Y-74930000D02*
X101600000Y-74930000D01*
X105314511Y-73755489D02*
X104140000Y-74930000D01*
X101600000Y-74930000D02*
X100330000Y-73660000D01*
%TO.N,P8*%
X107950000Y-69850000D02*
X106045718Y-69850000D01*
X106045718Y-69850000D02*
X103601207Y-72294511D01*
X103601207Y-72294511D02*
X101504511Y-72294511D01*
X101504511Y-72294511D02*
X100330000Y-71120000D01*
%TO.N,P27*%
X110490000Y-67310000D02*
X109315489Y-66135489D01*
X109315489Y-66135489D02*
X107219511Y-66135489D01*
X107219511Y-66135489D02*
X103600489Y-69754511D01*
X103600489Y-69754511D02*
X101504511Y-69754511D01*
X101504511Y-69754511D02*
X100330000Y-68580000D01*
%TO.N,P7*%
X107950000Y-67310000D02*
X104140000Y-71120000D01*
X104140000Y-71120000D02*
X102870000Y-71120000D01*
%TO.N,P6*%
X107950000Y-64770000D02*
X106680000Y-64770000D01*
X106680000Y-64770000D02*
X102870000Y-68580000D01*
%TO.N,P25*%
X110490000Y-62230000D02*
X109315489Y-63404511D01*
X103356499Y-67214511D02*
X101504511Y-67214511D01*
X109315489Y-63404511D02*
X107166499Y-63404511D01*
X107166499Y-63404511D02*
X103356499Y-67214511D01*
X101504511Y-67214511D02*
X100330000Y-66040000D01*
%TO.N,P5*%
X107950000Y-62230000D02*
X106680000Y-62230000D01*
X106680000Y-62230000D02*
X102870000Y-66040000D01*
%TO.N,P4*%
X107950000Y-59690000D02*
X107950000Y-60081010D01*
X107950000Y-60081010D02*
X103356499Y-64674511D01*
X103356499Y-64674511D02*
X101504511Y-64674511D01*
X101504511Y-64674511D02*
X100330000Y-63500000D01*
%TO.N,P1*%
X107950000Y-52070000D02*
X102870000Y-57150000D01*
X102870000Y-57150000D02*
X102870000Y-58420000D01*
%TD*%
M02*
