%TF.GenerationSoftware,KiCad,Pcbnew,(6.0.2)*%
%TF.CreationDate,2022-02-24T19:23:39-05:00*%
%TF.ProjectId,paladin_adaptor_2022,70616c61-6469-46e5-9f61-646170746f72,rev?*%
%TF.SameCoordinates,Original*%
%TF.FileFunction,Legend,Bot*%
%TF.FilePolarity,Positive*%
%FSLAX46Y46*%
G04 Gerber Fmt 4.6, Leading zero omitted, Abs format (unit mm)*
G04 Created by KiCad (PCBNEW (6.0.2)) date 2022-02-24 19:23:39*
%MOMM*%
%LPD*%
G01*
G04 APERTURE LIST*
%TA.AperFunction,Profile*%
%ADD10C,0.100000*%
%TD*%
%ADD11C,0.150000*%
%ADD12C,0.120000*%
G04 APERTURE END LIST*
D10*
X93345000Y-50165000D02*
X127000000Y-50165000D01*
X93345000Y-102235000D02*
X93345000Y-50165000D01*
X127000000Y-102235000D02*
X93345000Y-102235000D01*
X127000000Y-50165000D02*
X127000000Y-102235000D01*
D11*
%TO.C,J2*%
X115903333Y-52792380D02*
X115903333Y-53506666D01*
X115950952Y-53649523D01*
X116046190Y-53744761D01*
X116189047Y-53792380D01*
X116284285Y-53792380D01*
X115474761Y-52887619D02*
X115427142Y-52840000D01*
X115331904Y-52792380D01*
X115093809Y-52792380D01*
X114998571Y-52840000D01*
X114950952Y-52887619D01*
X114903333Y-52982857D01*
X114903333Y-53078095D01*
X114950952Y-53220952D01*
X115522380Y-53792380D01*
X114903333Y-53792380D01*
%TO.C,J1*%
X105108333Y-52792380D02*
X105108333Y-53506666D01*
X105155952Y-53649523D01*
X105251190Y-53744761D01*
X105394047Y-53792380D01*
X105489285Y-53792380D01*
X104108333Y-53792380D02*
X104679761Y-53792380D01*
X104394047Y-53792380D02*
X104394047Y-52792380D01*
X104489285Y-52935238D01*
X104584523Y-53030476D01*
X104679761Y-53078095D01*
D12*
%TO.C,J2*%
X118152500Y-54510000D02*
X118152500Y-97890000D01*
X124652500Y-78250000D02*
X125962500Y-78250000D01*
X125962500Y-53210000D02*
X116842500Y-53210000D01*
X116842500Y-99190000D02*
X125962500Y-99190000D01*
X125962500Y-74150000D02*
X124652500Y-74150000D01*
X118152500Y-97890000D02*
X124652500Y-97890000D01*
X127352500Y-57920000D02*
X127352500Y-58920000D01*
X126352500Y-58420000D02*
X127352500Y-57920000D01*
X125962500Y-99190000D02*
X125962500Y-53210000D01*
X124652500Y-97890000D02*
X124652500Y-78250000D01*
X116842500Y-53210000D02*
X116842500Y-99190000D01*
X127352500Y-58920000D02*
X126352500Y-58420000D01*
X124652500Y-74150000D02*
X124652500Y-54510000D01*
X124652500Y-78250000D02*
X124652500Y-78250000D01*
X124652500Y-54510000D02*
X118152500Y-54510000D01*
%TO.C,J1*%
X105010000Y-57920000D02*
X105010000Y-58920000D01*
X94500000Y-99190000D02*
X103620000Y-99190000D01*
X103620000Y-99190000D02*
X103620000Y-53210000D01*
X102310000Y-78250000D02*
X103620000Y-78250000D01*
X95810000Y-54510000D02*
X95810000Y-97890000D01*
X105010000Y-58920000D02*
X104010000Y-58420000D01*
X102310000Y-74150000D02*
X102310000Y-54510000D01*
X102310000Y-54510000D02*
X95810000Y-54510000D01*
X104010000Y-58420000D02*
X105010000Y-57920000D01*
X94500000Y-53210000D02*
X94500000Y-99190000D01*
X103620000Y-74150000D02*
X102310000Y-74150000D01*
X95810000Y-97890000D02*
X102310000Y-97890000D01*
X103620000Y-53210000D02*
X94500000Y-53210000D01*
X102310000Y-78250000D02*
X102310000Y-78250000D01*
X102310000Y-97890000D02*
X102310000Y-78250000D01*
%TD*%
M02*
