%TF.GenerationSoftware,KiCad,Pcbnew,(6.0.2)*%
%TF.CreationDate,2022-02-24T19:23:39-05:00*%
%TF.ProjectId,paladin_adaptor_2022,70616c61-6469-46e5-9f61-646170746f72,rev?*%
%TF.SameCoordinates,Original*%
%TF.FileFunction,Copper,L2,Bot*%
%TF.FilePolarity,Positive*%
%FSLAX46Y46*%
G04 Gerber Fmt 4.6, Leading zero omitted, Abs format (unit mm)*
G04 Created by KiCad (PCBNEW (6.0.2)) date 2022-02-24 19:23:39*
%MOMM*%
%LPD*%
G01*
G04 APERTURE LIST*
G04 Aperture macros list*
%AMRoundRect*
0 Rectangle with rounded corners*
0 $1 Rounding radius*
0 $2 $3 $4 $5 $6 $7 $8 $9 X,Y pos of 4 corners*
0 Add a 4 corners polygon primitive as box body*
4,1,4,$2,$3,$4,$5,$6,$7,$8,$9,$2,$3,0*
0 Add four circle primitives for the rounded corners*
1,1,$1+$1,$2,$3*
1,1,$1+$1,$4,$5*
1,1,$1+$1,$6,$7*
1,1,$1+$1,$8,$9*
0 Add four rect primitives between the rounded corners*
20,1,$1+$1,$2,$3,$4,$5,0*
20,1,$1+$1,$4,$5,$6,$7,0*
20,1,$1+$1,$6,$7,$8,$9,0*
20,1,$1+$1,$8,$9,$2,$3,0*%
G04 Aperture macros list end*
%TA.AperFunction,Profile*%
%ADD10C,0.100000*%
%TD*%
%TA.AperFunction,NonConductor*%
%ADD11C,0.200000*%
%TD*%
%TA.AperFunction,ComponentPad*%
%ADD12RoundRect,0.250000X-0.600000X-0.600000X0.600000X-0.600000X0.600000X0.600000X-0.600000X0.600000X0*%
%TD*%
%TA.AperFunction,ComponentPad*%
%ADD13C,1.700000*%
%TD*%
%TA.AperFunction,ComponentPad*%
%ADD14RoundRect,0.250000X0.600000X0.600000X-0.600000X0.600000X-0.600000X-0.600000X0.600000X-0.600000X0*%
%TD*%
%TA.AperFunction,Conductor*%
%ADD15C,0.250000*%
%TD*%
G04 APERTURE END LIST*
D10*
X93345000Y-50165000D02*
X127000000Y-50165000D01*
X93345000Y-102235000D02*
X93345000Y-50165000D01*
X127000000Y-102235000D02*
X93345000Y-102235000D01*
X127000000Y-50165000D02*
X127000000Y-102235000D01*
D11*
X100965000Y-101600000D02*
X100965000Y-99060000D01*
X103505000Y-100330000D02*
X100965000Y-101600000D01*
X95250000Y-100330000D02*
X103505000Y-100330000D01*
X100965000Y-99060000D02*
X103505000Y-100330000D01*
X122555000Y-101600000D02*
X122555000Y-99060000D01*
X125095000Y-100330000D02*
X122555000Y-101600000D01*
X116840000Y-100330000D02*
X125095000Y-100330000D01*
X122555000Y-99060000D02*
X125095000Y-100330000D01*
X100965000Y-53340000D02*
X100965000Y-50800000D01*
X103505000Y-52070000D02*
X100965000Y-53340000D01*
X95250000Y-52070000D02*
X103505000Y-52070000D01*
X100965000Y-50800000D02*
X103505000Y-52070000D01*
X123190000Y-50800000D02*
X125730000Y-52070000D01*
X123190000Y-53340000D02*
X123190000Y-50800000D01*
X125730000Y-52070000D02*
X123190000Y-53340000D01*
X117475000Y-52070000D02*
X125730000Y-52070000D01*
D12*
%TO.P,U1,1*%
%TO.N,P1*%
X107950000Y-52070000D03*
D13*
%TO.P,U1,2*%
%TO.N,P2*%
X107950000Y-54610000D03*
%TO.P,U1,3*%
%TO.N,P3*%
X107950000Y-57150000D03*
%TO.P,U1,4*%
%TO.N,P4*%
X107950000Y-59690000D03*
%TO.P,U1,5*%
%TO.N,P5*%
X107950000Y-62230000D03*
%TO.P,U1,6*%
%TO.N,P6*%
X107950000Y-64770000D03*
%TO.P,U1,7*%
%TO.N,P7*%
X107950000Y-67310000D03*
%TO.P,U1,8*%
%TO.N,P8*%
X107950000Y-69850000D03*
%TO.P,U1,9*%
%TO.N,P9*%
X107950000Y-72390000D03*
%TO.P,U1,10*%
%TO.N,P10*%
X107950000Y-74930000D03*
%TO.P,U1,11*%
%TO.N,P11*%
X107950000Y-77470000D03*
%TO.P,U1,12*%
%TO.N,P12*%
X107950000Y-80010000D03*
%TO.P,U1,13*%
%TO.N,P13*%
X107950000Y-82550000D03*
%TO.P,U1,14*%
%TO.N,P14*%
X107950000Y-85090000D03*
%TO.P,U1,15*%
%TO.N,P15*%
X107950000Y-87630000D03*
%TO.P,U1,16*%
%TO.N,P16*%
X107950000Y-90170000D03*
%TO.P,U1,17*%
%TO.N,P17*%
X107950000Y-92710000D03*
%TO.P,U1,18*%
%TO.N,P18*%
X107950000Y-95250000D03*
%TO.P,U1,19*%
%TO.N,P19*%
X107950000Y-97790000D03*
%TO.P,U1,20*%
%TO.N,P20*%
X107950000Y-100330000D03*
%TO.P,U1,21*%
%TO.N,P21*%
X110490000Y-52070000D03*
%TO.P,U1,22*%
%TO.N,P22*%
X110490000Y-54610000D03*
%TO.P,U1,23*%
%TO.N,P23*%
X110490000Y-57150000D03*
%TO.P,U1,24*%
%TO.N,P24*%
X110490000Y-59690000D03*
%TO.P,U1,25*%
%TO.N,P25*%
X110490000Y-62230000D03*
%TO.P,U1,26*%
%TO.N,P26*%
X110490000Y-64770000D03*
%TO.P,U1,27*%
%TO.N,P27*%
X110490000Y-67310000D03*
%TO.P,U1,28*%
%TO.N,P28*%
X110490000Y-69850000D03*
%TO.P,U1,29*%
%TO.N,P29*%
X110490000Y-72390000D03*
%TO.P,U1,30*%
%TO.N,P30*%
X110490000Y-74930000D03*
%TO.P,U1,31*%
%TO.N,P31*%
X110490000Y-77470000D03*
%TO.P,U1,32*%
%TO.N,P32*%
X110490000Y-80010000D03*
%TO.P,U1,33*%
%TO.N,P33*%
X110490000Y-82550000D03*
%TO.P,U1,34*%
%TO.N,P34*%
X110490000Y-85090000D03*
%TO.P,U1,35*%
%TO.N,P35*%
X110490000Y-87630000D03*
%TO.P,U1,36*%
%TO.N,P36*%
X110490000Y-90170000D03*
%TO.P,U1,37*%
%TO.N,P37*%
X110490000Y-92710000D03*
%TO.P,U1,38*%
%TO.N,P38*%
X110490000Y-95250000D03*
%TO.P,U1,39*%
%TO.N,P39*%
X110490000Y-97790000D03*
%TO.P,U1,40*%
%TO.N,P40*%
X110490000Y-100330000D03*
%TO.P,U1,41*%
%TO.N,P41*%
X113030000Y-52070000D03*
%TO.P,U1,42*%
%TO.N,P42*%
X113030000Y-54610000D03*
%TO.P,U1,43*%
%TO.N,P43*%
X113030000Y-57150000D03*
%TO.P,U1,44*%
%TO.N,P44*%
X113030000Y-59690000D03*
%TO.P,U1,45*%
%TO.N,P45*%
X113030000Y-62230000D03*
%TO.P,U1,46*%
%TO.N,P46*%
X113030000Y-64770000D03*
%TO.P,U1,47*%
%TO.N,P47*%
X113030000Y-67310000D03*
%TO.P,U1,48*%
%TO.N,P48*%
X113030000Y-69850000D03*
%TO.P,U1,49*%
%TO.N,P49*%
X113030000Y-72390000D03*
%TO.P,U1,50*%
%TO.N,P50*%
X113030000Y-74930000D03*
%TO.P,U1,51*%
%TO.N,P51*%
X113030000Y-77470000D03*
%TO.P,U1,52*%
%TO.N,P52*%
X113030000Y-80010000D03*
%TO.P,U1,53*%
%TO.N,P53*%
X113030000Y-82550000D03*
%TO.P,U1,54*%
%TO.N,P54*%
X113030000Y-85090000D03*
%TO.P,U1,55*%
%TO.N,P55*%
X113030000Y-87630000D03*
%TO.P,U1,56*%
%TO.N,P56*%
X113030000Y-90170000D03*
%TO.P,U1,57*%
%TO.N,P57*%
X113030000Y-92710000D03*
%TO.P,U1,58*%
%TO.N,P58*%
X113030000Y-95250000D03*
%TO.P,U1,59*%
%TO.N,P59*%
X113030000Y-97790000D03*
%TO.P,U1,60*%
%TO.N,P60*%
X113030000Y-100330000D03*
%TD*%
D14*
%TO.P,J2,1,Pin_1*%
%TO.N,P41*%
X122672500Y-58420000D03*
D13*
%TO.P,J2,2,Pin_2*%
%TO.N,P22*%
X120132500Y-58420000D03*
%TO.P,J2,3,Pin_3*%
%TO.N,P42*%
X122672500Y-60960000D03*
%TO.P,J2,4,Pin_4*%
%TO.N,P24*%
X120132500Y-60960000D03*
%TO.P,J2,5,Pin_5*%
%TO.N,P43*%
X122672500Y-63500000D03*
%TO.P,J2,6,Pin_6*%
%TO.N,P44*%
X120132500Y-63500000D03*
%TO.P,J2,7,Pin_7*%
%TO.N,P45*%
X122672500Y-66040000D03*
%TO.P,J2,8,Pin_8*%
%TO.N,P26*%
X120132500Y-66040000D03*
%TO.P,J2,9,Pin_9*%
%TO.N,P46*%
X122672500Y-68580000D03*
%TO.P,J2,10,Pin_10*%
%TO.N,P28*%
X120132500Y-68580000D03*
%TO.P,J2,11,Pin_11*%
%TO.N,P47*%
X122672500Y-71120000D03*
%TO.P,J2,12,Pin_12*%
%TO.N,P48*%
X120132500Y-71120000D03*
%TO.P,J2,13,Pin_13*%
%TO.N,P49*%
X122672500Y-73660000D03*
%TO.P,J2,14,Pin_14*%
%TO.N,P30*%
X120132500Y-73660000D03*
%TO.P,J2,15,Pin_15*%
%TO.N,P50*%
X122672500Y-76200000D03*
%TO.P,J2,16,Pin_16*%
%TO.N,P51*%
X120132500Y-76200000D03*
%TO.P,J2,17,Pin_17*%
%TO.N,P31*%
X122672500Y-78740000D03*
%TO.P,J2,18,Pin_18*%
%TO.N,P52*%
X120132500Y-78740000D03*
%TO.P,J2,19,Pin_19*%
%TO.N,P53*%
X122672500Y-81280000D03*
%TO.P,J2,20,Pin_20*%
%TO.N,P54*%
X120132500Y-81280000D03*
%TO.P,J2,21,Pin_21*%
%TO.N,P33*%
X122672500Y-83820000D03*
%TO.P,J2,22,Pin_22*%
%TO.N,P55*%
X120132500Y-83820000D03*
%TO.P,J2,23,Pin_23*%
%TO.N,P35*%
X122672500Y-86360000D03*
%TO.P,J2,24,Pin_24*%
%TO.N,P56*%
X120132500Y-86360000D03*
%TO.P,J2,25,Pin_25*%
%TO.N,P57*%
X122672500Y-88900000D03*
%TO.P,J2,26,Pin_26*%
%TO.N,P58*%
X120132500Y-88900000D03*
%TO.P,J2,27,Pin_27*%
%TO.N,P37*%
X122672500Y-91440000D03*
%TO.P,J2,28,Pin_28*%
%TO.N,P59*%
X120132500Y-91440000D03*
%TO.P,J2,29,Pin_29*%
%TO.N,P39*%
X122672500Y-93980000D03*
%TO.P,J2,30,Pin_30*%
%TO.N,P60*%
X120132500Y-93980000D03*
%TD*%
D14*
%TO.P,J1,1,Pin_1*%
%TO.N,P1*%
X100330000Y-58420000D03*
D13*
%TO.P,J1,2,Pin_2*%
%TO.N,P21*%
X97790000Y-58420000D03*
%TO.P,J1,3,Pin_3*%
%TO.N,P2*%
X100330000Y-60960000D03*
%TO.P,J1,4,Pin_4*%
%TO.N,P23*%
X97790000Y-60960000D03*
%TO.P,J1,5,Pin_5*%
%TO.N,P3*%
X100330000Y-63500000D03*
%TO.P,J1,6,Pin_6*%
%TO.N,P4*%
X97790000Y-63500000D03*
%TO.P,J1,7,Pin_7*%
%TO.N,P5*%
X100330000Y-66040000D03*
%TO.P,J1,8,Pin_8*%
%TO.N,P25*%
X97790000Y-66040000D03*
%TO.P,J1,9,Pin_9*%
%TO.N,P6*%
X100330000Y-68580000D03*
%TO.P,J1,10,Pin_10*%
%TO.N,P27*%
X97790000Y-68580000D03*
%TO.P,J1,11,Pin_11*%
%TO.N,P7*%
X100330000Y-71120000D03*
%TO.P,J1,12,Pin_12*%
%TO.N,P8*%
X97790000Y-71120000D03*
%TO.P,J1,13,Pin_13*%
%TO.N,P9*%
X100330000Y-73660000D03*
%TO.P,J1,14,Pin_14*%
%TO.N,P29*%
X97790000Y-73660000D03*
%TO.P,J1,15,Pin_15*%
%TO.N,P10*%
X100330000Y-76200000D03*
%TO.P,J1,16,Pin_16*%
%TO.N,P11*%
X97790000Y-76200000D03*
%TO.P,J1,17,Pin_17*%
%TO.N,P32*%
X100330000Y-78740000D03*
%TO.P,J1,18,Pin_18*%
%TO.N,P12*%
X97790000Y-78740000D03*
%TO.P,J1,19,Pin_19*%
%TO.N,P13*%
X100330000Y-81280000D03*
%TO.P,J1,20,Pin_20*%
%TO.N,P14*%
X97790000Y-81280000D03*
%TO.P,J1,21,Pin_21*%
%TO.N,P34*%
X100330000Y-83820000D03*
%TO.P,J1,22,Pin_22*%
%TO.N,P15*%
X97790000Y-83820000D03*
%TO.P,J1,23,Pin_23*%
%TO.N,P36*%
X100330000Y-86360000D03*
%TO.P,J1,24,Pin_24*%
%TO.N,P16*%
X97790000Y-86360000D03*
%TO.P,J1,25,Pin_25*%
%TO.N,P17*%
X100330000Y-88900000D03*
%TO.P,J1,26,Pin_26*%
%TO.N,P18*%
X97790000Y-88900000D03*
%TO.P,J1,27,Pin_27*%
%TO.N,P38*%
X100330000Y-91440000D03*
%TO.P,J1,28,Pin_28*%
%TO.N,P19*%
X97790000Y-91440000D03*
%TO.P,J1,29,Pin_29*%
%TO.N,P40*%
X100330000Y-93980000D03*
%TO.P,J1,30,Pin_30*%
%TO.N,P20*%
X97790000Y-93980000D03*
%TD*%
D15*
%TO.N,P41*%
X122672500Y-58420000D02*
X116322500Y-52070000D01*
X116322500Y-52070000D02*
X113030000Y-52070000D01*
%TO.N,P42*%
X121307011Y-59067004D02*
X121307011Y-57933501D01*
X117983510Y-54610000D02*
X113030000Y-54610000D01*
X122672500Y-60960000D02*
X122672500Y-60432493D01*
X122672500Y-60432493D02*
X121307011Y-59067004D01*
X121307011Y-57933501D02*
X117983510Y-54610000D01*
%TO.N,P22*%
X116078000Y-58420000D02*
X113538000Y-55880000D01*
X111760000Y-55880000D02*
X110490000Y-54610000D01*
X120132500Y-58420000D02*
X116078000Y-58420000D01*
X113538000Y-55880000D02*
X111760000Y-55880000D01*
%TO.N,P43*%
X122672500Y-63500000D02*
X121307011Y-62134511D01*
X121307011Y-62134511D02*
X121307011Y-60473501D01*
X121307011Y-60473501D02*
X120523510Y-59690000D01*
X120523510Y-59690000D02*
X116078000Y-59690000D01*
X113538000Y-57150000D02*
X113030000Y-57150000D01*
X116078000Y-59690000D02*
X113538000Y-57150000D01*
%TO.N,P24*%
X110490000Y-59690000D02*
X111760000Y-58420000D01*
X111760000Y-58420000D02*
X113665000Y-58420000D01*
X113665000Y-58420000D02*
X116205000Y-60960000D01*
X116205000Y-60960000D02*
X120132500Y-60960000D01*
%TO.N,P44*%
X113030000Y-59690000D02*
X116840000Y-63500000D01*
X116840000Y-63500000D02*
X120132500Y-63500000D01*
%TO.N,P45*%
X122672500Y-66040000D02*
X121497989Y-64865489D01*
X121497989Y-64865489D02*
X116617511Y-64865489D01*
X116617511Y-64865489D02*
X113982022Y-62230000D01*
X113982022Y-62230000D02*
X113030000Y-62230000D01*
%TO.N,P26*%
X113887489Y-63595489D02*
X116332000Y-66040000D01*
X110490000Y-64770000D02*
X111664511Y-63595489D01*
X111664511Y-63595489D02*
X113887489Y-63595489D01*
X116332000Y-66040000D02*
X120132500Y-66040000D01*
%TO.N,P46*%
X122672500Y-68580000D02*
X121402500Y-67310000D01*
X121402500Y-67310000D02*
X115570000Y-67310000D01*
X115570000Y-67310000D02*
X113030000Y-64770000D01*
%TO.N,P28*%
X110490000Y-69850000D02*
X111855489Y-68484511D01*
X111855489Y-68484511D02*
X111855489Y-66823501D01*
X111855489Y-66823501D02*
X112543501Y-66135489D01*
X112543501Y-66135489D02*
X113633489Y-66135489D01*
X113633489Y-66135489D02*
X116078000Y-68580000D01*
X116078000Y-68580000D02*
X120132500Y-68580000D01*
%TO.N,P47*%
X122672500Y-71120000D02*
X121307011Y-69754511D01*
X121307011Y-69754511D02*
X115474511Y-69754511D01*
X115474511Y-69754511D02*
X113030000Y-67310000D01*
%TO.N,P48*%
X120132500Y-71120000D02*
X114300000Y-71120000D01*
X114300000Y-71120000D02*
X113030000Y-69850000D01*
%TO.N,P49*%
X113030000Y-72390000D02*
X121402500Y-72390000D01*
X121402500Y-72390000D02*
X122672500Y-73660000D01*
%TO.N,P30*%
X110490000Y-74930000D02*
X111760000Y-73660000D01*
X111760000Y-73660000D02*
X120132500Y-73660000D01*
%TO.N,P50*%
X122672500Y-76200000D02*
X121402500Y-74930000D01*
X121402500Y-74930000D02*
X113030000Y-74930000D01*
%TO.N,P51*%
X113030000Y-77470000D02*
X117729000Y-77470000D01*
X117729000Y-77470000D02*
X118999000Y-76200000D01*
X118999000Y-76200000D02*
X120132500Y-76200000D01*
%TO.N,P31*%
X110490000Y-77470000D02*
X111664511Y-78644511D01*
X111664511Y-78644511D02*
X117570489Y-78644511D01*
X117570489Y-78644511D02*
X118745000Y-77470000D01*
X118745000Y-77470000D02*
X121402500Y-77470000D01*
X121402500Y-77470000D02*
X122672500Y-78740000D01*
%TO.N,P52*%
X120132500Y-78740000D02*
X118618000Y-78740000D01*
X118618000Y-78740000D02*
X117348000Y-80010000D01*
X117348000Y-80010000D02*
X113030000Y-80010000D01*
%TO.N,P53*%
X113030000Y-82550000D02*
X116840000Y-82550000D01*
X116840000Y-82550000D02*
X119380000Y-80010000D01*
X119380000Y-80010000D02*
X121402500Y-80010000D01*
X121402500Y-80010000D02*
X122672500Y-81280000D01*
%TO.N,P54*%
X113030000Y-85090000D02*
X116322500Y-85090000D01*
X116322500Y-85090000D02*
X120132500Y-81280000D01*
%TO.N,P33*%
X110490000Y-82550000D02*
X111760000Y-83820000D01*
X111760000Y-83820000D02*
X111760000Y-85725000D01*
X111760000Y-85725000D02*
X112299511Y-86264511D01*
X112299511Y-86264511D02*
X115919489Y-86264511D01*
X115919489Y-86264511D02*
X119634000Y-82550000D01*
X119634000Y-82550000D02*
X121402500Y-82550000D01*
X121402500Y-82550000D02*
X122672500Y-83820000D01*
%TO.N,P55*%
X113030000Y-87630000D02*
X116322500Y-87630000D01*
X116322500Y-87630000D02*
X120132500Y-83820000D01*
%TO.N,P35*%
X110490000Y-87630000D02*
X111664511Y-88804511D01*
X111664511Y-88804511D02*
X115792489Y-88804511D01*
X115792489Y-88804511D02*
X119602489Y-84994511D01*
X119602489Y-84994511D02*
X121307011Y-84994511D01*
X121307011Y-84994511D02*
X122672500Y-86360000D01*
%TO.N,P56*%
X113030000Y-90170000D02*
X116322500Y-90170000D01*
X116322500Y-90170000D02*
X120132500Y-86360000D01*
%TO.N,P57*%
X113030000Y-92710000D02*
X114427000Y-92710000D01*
X114427000Y-92710000D02*
X119507000Y-87630000D01*
X119507000Y-87630000D02*
X121402500Y-87630000D01*
X121402500Y-87630000D02*
X122672500Y-88900000D01*
%TO.N,P58*%
X113030000Y-95250000D02*
X119380000Y-88900000D01*
X119380000Y-88900000D02*
X120132500Y-88900000D01*
%TO.N,P37*%
X110490000Y-92710000D02*
X111760000Y-93980000D01*
X119570022Y-90265489D02*
X121497989Y-90265489D01*
X111760000Y-93980000D02*
X111760000Y-95885000D01*
X112299511Y-96424511D02*
X113516499Y-96424511D01*
X111760000Y-95885000D02*
X112299511Y-96424511D01*
X113516499Y-96424511D02*
X114204511Y-95736499D01*
X114204511Y-95736499D02*
X114204511Y-95631000D01*
X114204511Y-95631000D02*
X119570022Y-90265489D01*
X121497989Y-90265489D02*
X122672500Y-91440000D01*
%TO.N,P59*%
X113030000Y-97790000D02*
X119380000Y-91440000D01*
X119380000Y-91440000D02*
X120132500Y-91440000D01*
%TO.N,P60*%
X113030000Y-100330000D02*
X119380000Y-93980000D01*
X119380000Y-93980000D02*
X120132500Y-93980000D01*
%TO.N,P39*%
X110490000Y-97790000D02*
X111664511Y-98964511D01*
X111664511Y-98964511D02*
X113516499Y-98964511D01*
X113516499Y-98964511D02*
X118957989Y-93523021D01*
X118957989Y-93523021D02*
X118957989Y-93493501D01*
X118957989Y-93493501D02*
X119741490Y-92710000D01*
X119741490Y-92710000D02*
X121402500Y-92710000D01*
X121402500Y-92710000D02*
X122672500Y-93980000D01*
%TO.N,P40*%
X100330000Y-93980000D02*
X105505489Y-99155489D01*
X105505489Y-99155489D02*
X109315489Y-99155489D01*
X109315489Y-99155489D02*
X110490000Y-100330000D01*
%TO.N,P20*%
X107950000Y-100330000D02*
X104140000Y-100330000D01*
X104140000Y-100330000D02*
X97790000Y-93980000D01*
%TO.N,P19*%
X97790000Y-91440000D02*
X98668990Y-91440000D01*
X99938990Y-92710000D02*
X100964282Y-92710000D01*
X98668990Y-91440000D02*
X99938990Y-92710000D01*
X100964282Y-92710000D02*
X106044282Y-97790000D01*
X106044282Y-97790000D02*
X107950000Y-97790000D01*
%TO.N,P38*%
X100330000Y-91440000D02*
X105314511Y-96424511D01*
X105314511Y-96424511D02*
X109315489Y-96424511D01*
X109315489Y-96424511D02*
X110490000Y-95250000D01*
%TO.N,P18*%
X97790000Y-88900000D02*
X98964511Y-90074511D01*
X98964511Y-90074511D02*
X102774511Y-90074511D01*
X102774511Y-90074511D02*
X107950000Y-95250000D01*
%TO.N,P17*%
X100330000Y-88900000D02*
X103251000Y-88900000D01*
X103251000Y-88900000D02*
X107061000Y-92710000D01*
X107061000Y-92710000D02*
X107950000Y-92710000D01*
%TO.N,P16*%
X107950000Y-90170000D02*
X105664000Y-90170000D01*
X105664000Y-90170000D02*
X103219489Y-87725489D01*
X103219489Y-87725489D02*
X99155489Y-87725489D01*
X99155489Y-87725489D02*
X97790000Y-86360000D01*
%TO.N,P36*%
X100330000Y-86360000D02*
X103124000Y-86360000D01*
X103124000Y-86360000D02*
X105664000Y-88900000D01*
X105664000Y-88900000D02*
X109220000Y-88900000D01*
X109220000Y-88900000D02*
X110490000Y-90170000D01*
%TO.N,P15*%
X107034031Y-86714031D02*
X105182969Y-86714031D01*
X105182969Y-86714031D02*
X103463449Y-84994511D01*
X107950000Y-87630000D02*
X107034031Y-86714031D01*
X98964511Y-84994511D02*
X97790000Y-83820000D01*
X103463449Y-84994511D02*
X98964511Y-84994511D01*
%TO.N,P34*%
X100330000Y-83820000D02*
X104013000Y-83820000D01*
X104013000Y-83820000D02*
X106457511Y-86264511D01*
X106457511Y-86264511D02*
X109315489Y-86264511D01*
X109315489Y-86264511D02*
X110490000Y-85090000D01*
%TO.N,P14*%
X107950000Y-85090000D02*
X105314511Y-82454511D01*
X105314511Y-82454511D02*
X98964511Y-82454511D01*
X98964511Y-82454511D02*
X97790000Y-81280000D01*
%TO.N,P13*%
X100330000Y-81280000D02*
X106680000Y-81280000D01*
X106680000Y-81280000D02*
X107950000Y-82550000D01*
%TO.N,P32*%
X110490000Y-80010000D02*
X109220000Y-78740000D01*
X109220000Y-78740000D02*
X100330000Y-78740000D01*
%TO.N,P12*%
X107950000Y-80010000D02*
X99060000Y-80010000D01*
X99060000Y-80010000D02*
X97790000Y-78740000D01*
%TO.N,P11*%
X107950000Y-77470000D02*
X99060000Y-77470000D01*
X99060000Y-77470000D02*
X97790000Y-76200000D01*
%TO.N,P10*%
X107950000Y-74930000D02*
X101600000Y-74930000D01*
X101600000Y-74930000D02*
X100330000Y-76200000D01*
%TO.N,P9*%
X107950000Y-72390000D02*
X107100000Y-73240000D01*
X107100000Y-73240000D02*
X100750000Y-73240000D01*
X100750000Y-73240000D02*
X100330000Y-73660000D01*
%TO.N,P29*%
X110490000Y-72390000D02*
X109124511Y-73755489D01*
X109124511Y-73755489D02*
X101895521Y-73755489D01*
X101895521Y-73755489D02*
X100816499Y-74834511D01*
X100816499Y-74834511D02*
X98964511Y-74834511D01*
X98964511Y-74834511D02*
X97790000Y-73660000D01*
%TO.N,P8*%
X107950000Y-69850000D02*
X103632000Y-69850000D01*
X103632000Y-69850000D02*
X101187489Y-72294511D01*
X101187489Y-72294511D02*
X98964511Y-72294511D01*
X98964511Y-72294511D02*
X97790000Y-71120000D01*
%TO.N,P7*%
X107950000Y-67310000D02*
X105410000Y-67310000D01*
X105410000Y-67310000D02*
X101600000Y-71120000D01*
X101600000Y-71120000D02*
X100330000Y-71120000D01*
%TO.N,P27*%
X97790000Y-68580000D02*
X98964511Y-69754511D01*
X98964511Y-69754511D02*
X101822489Y-69754511D01*
X101822489Y-69754511D02*
X105632489Y-65944511D01*
X105632489Y-65944511D02*
X109124511Y-65944511D01*
X109124511Y-65944511D02*
X110490000Y-67310000D01*
%TO.N,P6*%
X107950000Y-64770000D02*
X105537000Y-64770000D01*
X105537000Y-64770000D02*
X101727000Y-68580000D01*
X101727000Y-68580000D02*
X100330000Y-68580000D01*
%TO.N,P25*%
X110490000Y-62230000D02*
X109315489Y-63404511D01*
X109315489Y-63404511D02*
X105506924Y-63404511D01*
X105506924Y-63404511D02*
X101696924Y-67214511D01*
X101696924Y-67214511D02*
X98964511Y-67214511D01*
X98964511Y-67214511D02*
X97790000Y-66040000D01*
%TO.N,P5*%
X107950000Y-62230000D02*
X106045718Y-62230000D01*
X106045718Y-62230000D02*
X102235717Y-66040000D01*
X102235717Y-66040000D02*
X100330000Y-66040000D01*
%TO.N,P4*%
X107950000Y-59690000D02*
X102965489Y-64674511D01*
X102965489Y-64674511D02*
X98964511Y-64674511D01*
X98964511Y-64674511D02*
X97790000Y-63500000D01*
%TO.N,P3*%
X107950000Y-57150000D02*
X101600000Y-63500000D01*
X101600000Y-63500000D02*
X100330000Y-63500000D01*
%TO.N,P23*%
X110490000Y-57150000D02*
X109315489Y-55975489D01*
X107220229Y-55975489D02*
X101061207Y-62134511D01*
X109315489Y-55975489D02*
X107220229Y-55975489D01*
X101061207Y-62134511D02*
X98964511Y-62134511D01*
X98964511Y-62134511D02*
X97790000Y-60960000D01*
%TO.N,P2*%
X107950000Y-54610000D02*
X101600000Y-60960000D01*
X101600000Y-60960000D02*
X100330000Y-60960000D01*
%TO.N,P21*%
X97790000Y-58420000D02*
X105314520Y-50895480D01*
X105314520Y-50895480D02*
X109315480Y-50895480D01*
X109315480Y-50895480D02*
X110490000Y-52070000D01*
%TO.N,P1*%
X107950000Y-52070000D02*
X101600000Y-58420000D01*
X101600000Y-58420000D02*
X100330000Y-58420000D01*
%TD*%
M02*
