%TF.GenerationSoftware,KiCad,Pcbnew,(6.0.4)*%
%TF.CreationDate,2022-04-05T19:22:05-04:00*%
%TF.ProjectId,paladin_adaptor_2022,70616c61-6469-46e5-9f61-646170746f72,rev?*%
%TF.SameCoordinates,Original*%
%TF.FileFunction,Legend,Top*%
%TF.FilePolarity,Positive*%
%FSLAX46Y46*%
G04 Gerber Fmt 4.6, Leading zero omitted, Abs format (unit mm)*
G04 Created by KiCad (PCBNEW (6.0.4)) date 2022-04-05 19:22:05*
%MOMM*%
%LPD*%
G01*
G04 APERTURE LIST*
%ADD10C,0.150000*%
%TA.AperFunction,Profile*%
%ADD11C,0.100000*%
%TD*%
%ADD12C,0.120000*%
G04 APERTURE END LIST*
D10*
X122047000Y-100584000D02*
X121285000Y-99822000D01*
X115951000Y-100584000D02*
X122047000Y-100584000D01*
X121285000Y-101346000D02*
X122047000Y-100584000D01*
X121285000Y-99822000D02*
X121285000Y-101346000D01*
X105029000Y-100584000D02*
X104267000Y-99822000D01*
X98933000Y-100584000D02*
X105029000Y-100584000D01*
X104267000Y-101346000D02*
X105029000Y-100584000D01*
X104267000Y-99822000D02*
X104267000Y-101346000D01*
X105029000Y-51816000D02*
X104267000Y-51054000D01*
X98933000Y-51816000D02*
X105029000Y-51816000D01*
X104267000Y-52578000D02*
X105029000Y-51816000D01*
X104267000Y-51054000D02*
X104267000Y-52578000D01*
X121285000Y-52578000D02*
X122047000Y-51816000D01*
X121285000Y-51054000D02*
X121285000Y-52578000D01*
X122047000Y-51816000D02*
X121285000Y-51054000D01*
X115951000Y-51816000D02*
X122047000Y-51816000D01*
D11*
X96520000Y-101600000D02*
X96520000Y-50800000D01*
X124460000Y-101600000D02*
X96520000Y-101600000D01*
X124460000Y-50800000D02*
X124460000Y-101600000D01*
X96520000Y-50800000D02*
X124460000Y-50800000D01*
D10*
%TO.C,J1*%
X114855666Y-51014380D02*
X114855666Y-51728666D01*
X114808047Y-51871523D01*
X114712809Y-51966761D01*
X114569952Y-52014380D01*
X114474714Y-52014380D01*
X115855666Y-52014380D02*
X115284238Y-52014380D01*
X115569952Y-52014380D02*
X115569952Y-51014380D01*
X115474714Y-51157238D01*
X115379476Y-51252476D01*
X115284238Y-51300095D01*
D12*
X114300000Y-50800000D02*
X114300000Y-101600000D01*
X114300000Y-101600000D02*
X106680000Y-101600000D01*
X106680000Y-50800000D02*
X114300000Y-50800000D01*
X106680000Y-101600000D02*
X106680000Y-50800000D01*
%TD*%
M02*
