M48
; DRILL file {KiCad (6.0.2)} date 2022年02月24日 星期四 19时23分46秒
; FORMAT={-:-/ absolute / inch / decimal}
; #@! TF.CreationDate,2022-02-24T19:23:46-05:00
; #@! TF.GenerationSoftware,Kicad,Pcbnew,(6.0.2)
; #@! TF.FileFunction,MixedPlating,1,2
FMAT,2
INCH
; #@! TA.AperFunction,Plated,PTH,ComponentDrill
T1C0.0394
%
G90
G05
T1
X3.85Y-2.3
X3.85Y-2.4
X3.85Y-2.5
X3.85Y-2.6
X3.85Y-2.7
X3.85Y-2.8
X3.85Y-2.9
X3.85Y-3.0
X3.85Y-3.1
X3.85Y-3.2
X3.85Y-3.3
X3.85Y-3.4
X3.85Y-3.5
X3.85Y-3.6
X3.85Y-3.7
X3.95Y-2.3
X3.95Y-2.4
X3.95Y-2.5
X3.95Y-2.6
X3.95Y-2.7
X3.95Y-2.8
X3.95Y-2.9
X3.95Y-3.0
X3.95Y-3.1
X3.95Y-3.2
X3.95Y-3.3
X3.95Y-3.4
X3.95Y-3.5
X3.95Y-3.6
X3.95Y-3.7
X4.25Y-2.05
X4.25Y-2.15
X4.25Y-2.25
X4.25Y-2.35
X4.25Y-2.45
X4.25Y-2.55
X4.25Y-2.65
X4.25Y-2.75
X4.25Y-2.85
X4.25Y-2.95
X4.25Y-3.05
X4.25Y-3.15
X4.25Y-3.25
X4.25Y-3.35
X4.25Y-3.45
X4.25Y-3.55
X4.25Y-3.65
X4.25Y-3.75
X4.25Y-3.85
X4.25Y-3.95
X4.35Y-2.05
X4.35Y-2.15
X4.35Y-2.25
X4.35Y-2.35
X4.35Y-2.45
X4.35Y-2.55
X4.35Y-2.65
X4.35Y-2.75
X4.35Y-2.85
X4.35Y-2.95
X4.35Y-3.05
X4.35Y-3.15
X4.35Y-3.25
X4.35Y-3.35
X4.35Y-3.45
X4.35Y-3.55
X4.35Y-3.65
X4.35Y-3.75
X4.35Y-3.85
X4.35Y-3.95
X4.45Y-2.05
X4.45Y-2.15
X4.45Y-2.25
X4.45Y-2.35
X4.45Y-2.45
X4.45Y-2.55
X4.45Y-2.65
X4.45Y-2.75
X4.45Y-2.85
X4.45Y-2.95
X4.45Y-3.05
X4.45Y-3.15
X4.45Y-3.25
X4.45Y-3.35
X4.45Y-3.45
X4.45Y-3.55
X4.45Y-3.65
X4.45Y-3.75
X4.45Y-3.85
X4.45Y-3.95
X4.7296Y-2.3
X4.7296Y-2.4
X4.7296Y-2.5
X4.7296Y-2.6
X4.7296Y-2.7
X4.7296Y-2.8
X4.7296Y-2.9
X4.7296Y-3.0
X4.7296Y-3.1
X4.7296Y-3.2
X4.7296Y-3.3
X4.7296Y-3.4
X4.7296Y-3.5
X4.7296Y-3.6
X4.7296Y-3.7
X4.8296Y-2.3
X4.8296Y-2.4
X4.8296Y-2.5
X4.8296Y-2.6
X4.8296Y-2.7
X4.8296Y-2.8
X4.8296Y-2.9
X4.8296Y-3.0
X4.8296Y-3.1
X4.8296Y-3.2
X4.8296Y-3.3
X4.8296Y-3.4
X4.8296Y-3.5
X4.8296Y-3.6
X4.8296Y-3.7
T0
M30
