<?xml version="1.0" encoding="utf-8" standalone="no"?>
<!DOCTYPE svg PUBLIC "-//W3C//DTD SVG 1.1//EN"
  "http://www.w3.org/Graphics/SVG/1.1/DTD/svg11.dtd">
<svg xmlns:xlink="http://www.w3.org/1999/xlink" width="437.658281pt" height="349.621687pt" viewBox="0 0 437.658281 349.621687" xmlns="http://www.w3.org/2000/svg" version="1.1">
 <defs>
  <style type="text/css">*{stroke-linejoin: round; stroke-linecap: butt}</style>
 </defs>
 <g id="figure_1">
  <g id="patch_1">
   <path d="M 0 349.621687 
L 437.658281 349.621687 
L 437.658281 0 
L 0 0 
L 0 349.621687 
z
" style="fill: none"/>
  </g>
  <g id="axes_1">
   <g id="patch_2">
    <path d="M 61.410938 297.54825 
L 418.530938 297.54825 
L 418.530938 31.43625 
L 61.410938 31.43625 
L 61.410938 297.54825 
z
" style="fill: none"/>
   </g>
   <g id="matplotlib.axis_1">
    <g id="xtick_1">
     <g id="line2d_1">
      <path d="M 61.410938 297.54825 
L 61.410938 31.43625 
" clip-path="url(#p37e3121db0)" style="fill: none; stroke: #b0b0b0; stroke-width: 0.8; stroke-linecap: square"/>
     </g>
     <g id="line2d_2">
      <defs>
       <path id="md39032bed2" d="M 0 0 
L 0 3.5 
" style="stroke: #000000; stroke-width: 0.8"/>
      </defs>
      <g>
       <use xlink:href="#md39032bed2" x="61.410938" y="297.54825" style="stroke: #000000; stroke-width: 0.8"/>
      </g>
     </g>
     <g id="text_1">
      <!-- 0.0 -->
      <g transform="translate(49.483594 315.945906) scale(0.15 -0.15)">
       <defs>
        <path id="DejaVuSans-30" d="M 2034 4250 
Q 1547 4250 1301 3770 
Q 1056 3291 1056 2328 
Q 1056 1369 1301 889 
Q 1547 409 2034 409 
Q 2525 409 2770 889 
Q 3016 1369 3016 2328 
Q 3016 3291 2770 3770 
Q 2525 4250 2034 4250 
z
M 2034 4750 
Q 2819 4750 3233 4129 
Q 3647 3509 3647 2328 
Q 3647 1150 3233 529 
Q 2819 -91 2034 -91 
Q 1250 -91 836 529 
Q 422 1150 422 2328 
Q 422 3509 836 4129 
Q 1250 4750 2034 4750 
z
" transform="scale(0.015625)"/>
        <path id="DejaVuSans-2e" d="M 684 794 
L 1344 794 
L 1344 0 
L 684 0 
L 684 794 
z
" transform="scale(0.015625)"/>
       </defs>
       <use xlink:href="#DejaVuSans-30"/>
       <use xlink:href="#DejaVuSans-2e" x="63.623047"/>
       <use xlink:href="#DejaVuSans-30" x="95.410156"/>
      </g>
     </g>
    </g>
    <g id="xtick_2">
     <g id="line2d_3">
      <path d="M 132.834938 297.54825 
L 132.834938 31.43625 
" clip-path="url(#p37e3121db0)" style="fill: none; stroke: #b0b0b0; stroke-width: 0.8; stroke-linecap: square"/>
     </g>
     <g id="line2d_4">
      <g>
       <use xlink:href="#md39032bed2" x="132.834938" y="297.54825" style="stroke: #000000; stroke-width: 0.8"/>
      </g>
     </g>
     <g id="text_2">
      <!-- 0.2 -->
      <g transform="translate(120.907594 315.945906) scale(0.15 -0.15)">
       <defs>
        <path id="DejaVuSans-32" d="M 1228 531 
L 3431 531 
L 3431 0 
L 469 0 
L 469 531 
Q 828 903 1448 1529 
Q 2069 2156 2228 2338 
Q 2531 2678 2651 2914 
Q 2772 3150 2772 3378 
Q 2772 3750 2511 3984 
Q 2250 4219 1831 4219 
Q 1534 4219 1204 4116 
Q 875 4013 500 3803 
L 500 4441 
Q 881 4594 1212 4672 
Q 1544 4750 1819 4750 
Q 2544 4750 2975 4387 
Q 3406 4025 3406 3419 
Q 3406 3131 3298 2873 
Q 3191 2616 2906 2266 
Q 2828 2175 2409 1742 
Q 1991 1309 1228 531 
z
" transform="scale(0.015625)"/>
       </defs>
       <use xlink:href="#DejaVuSans-30"/>
       <use xlink:href="#DejaVuSans-2e" x="63.623047"/>
       <use xlink:href="#DejaVuSans-32" x="95.410156"/>
      </g>
     </g>
    </g>
    <g id="xtick_3">
     <g id="line2d_5">
      <path d="M 204.258938 297.54825 
L 204.258938 31.43625 
" clip-path="url(#p37e3121db0)" style="fill: none; stroke: #b0b0b0; stroke-width: 0.8; stroke-linecap: square"/>
     </g>
     <g id="line2d_6">
      <g>
       <use xlink:href="#md39032bed2" x="204.258938" y="297.54825" style="stroke: #000000; stroke-width: 0.8"/>
      </g>
     </g>
     <g id="text_3">
      <!-- 0.4 -->
      <g transform="translate(192.331594 315.945906) scale(0.15 -0.15)">
       <defs>
        <path id="DejaVuSans-34" d="M 2419 4116 
L 825 1625 
L 2419 1625 
L 2419 4116 
z
M 2253 4666 
L 3047 4666 
L 3047 1625 
L 3713 1625 
L 3713 1100 
L 3047 1100 
L 3047 0 
L 2419 0 
L 2419 1100 
L 313 1100 
L 313 1709 
L 2253 4666 
z
" transform="scale(0.015625)"/>
       </defs>
       <use xlink:href="#DejaVuSans-30"/>
       <use xlink:href="#DejaVuSans-2e" x="63.623047"/>
       <use xlink:href="#DejaVuSans-34" x="95.410156"/>
      </g>
     </g>
    </g>
    <g id="xtick_4">
     <g id="line2d_7">
      <path d="M 275.682938 297.54825 
L 275.682938 31.43625 
" clip-path="url(#p37e3121db0)" style="fill: none; stroke: #b0b0b0; stroke-width: 0.8; stroke-linecap: square"/>
     </g>
     <g id="line2d_8">
      <g>
       <use xlink:href="#md39032bed2" x="275.682938" y="297.54825" style="stroke: #000000; stroke-width: 0.8"/>
      </g>
     </g>
     <g id="text_4">
      <!-- 0.6 -->
      <g transform="translate(263.755594 315.945906) scale(0.15 -0.15)">
       <defs>
        <path id="DejaVuSans-36" d="M 2113 2584 
Q 1688 2584 1439 2293 
Q 1191 2003 1191 1497 
Q 1191 994 1439 701 
Q 1688 409 2113 409 
Q 2538 409 2786 701 
Q 3034 994 3034 1497 
Q 3034 2003 2786 2293 
Q 2538 2584 2113 2584 
z
M 3366 4563 
L 3366 3988 
Q 3128 4100 2886 4159 
Q 2644 4219 2406 4219 
Q 1781 4219 1451 3797 
Q 1122 3375 1075 2522 
Q 1259 2794 1537 2939 
Q 1816 3084 2150 3084 
Q 2853 3084 3261 2657 
Q 3669 2231 3669 1497 
Q 3669 778 3244 343 
Q 2819 -91 2113 -91 
Q 1303 -91 875 529 
Q 447 1150 447 2328 
Q 447 3434 972 4092 
Q 1497 4750 2381 4750 
Q 2619 4750 2861 4703 
Q 3103 4656 3366 4563 
z
" transform="scale(0.015625)"/>
       </defs>
       <use xlink:href="#DejaVuSans-30"/>
       <use xlink:href="#DejaVuSans-2e" x="63.623047"/>
       <use xlink:href="#DejaVuSans-36" x="95.410156"/>
      </g>
     </g>
    </g>
    <g id="xtick_5">
     <g id="line2d_9">
      <path d="M 347.106938 297.54825 
L 347.106938 31.43625 
" clip-path="url(#p37e3121db0)" style="fill: none; stroke: #b0b0b0; stroke-width: 0.8; stroke-linecap: square"/>
     </g>
     <g id="line2d_10">
      <g>
       <use xlink:href="#md39032bed2" x="347.106938" y="297.54825" style="stroke: #000000; stroke-width: 0.8"/>
      </g>
     </g>
     <g id="text_5">
      <!-- 0.8 -->
      <g transform="translate(335.179594 315.945906) scale(0.15 -0.15)">
       <defs>
        <path id="DejaVuSans-38" d="M 2034 2216 
Q 1584 2216 1326 1975 
Q 1069 1734 1069 1313 
Q 1069 891 1326 650 
Q 1584 409 2034 409 
Q 2484 409 2743 651 
Q 3003 894 3003 1313 
Q 3003 1734 2745 1975 
Q 2488 2216 2034 2216 
z
M 1403 2484 
Q 997 2584 770 2862 
Q 544 3141 544 3541 
Q 544 4100 942 4425 
Q 1341 4750 2034 4750 
Q 2731 4750 3128 4425 
Q 3525 4100 3525 3541 
Q 3525 3141 3298 2862 
Q 3072 2584 2669 2484 
Q 3125 2378 3379 2068 
Q 3634 1759 3634 1313 
Q 3634 634 3220 271 
Q 2806 -91 2034 -91 
Q 1263 -91 848 271 
Q 434 634 434 1313 
Q 434 1759 690 2068 
Q 947 2378 1403 2484 
z
M 1172 3481 
Q 1172 3119 1398 2916 
Q 1625 2713 2034 2713 
Q 2441 2713 2670 2916 
Q 2900 3119 2900 3481 
Q 2900 3844 2670 4047 
Q 2441 4250 2034 4250 
Q 1625 4250 1398 4047 
Q 1172 3844 1172 3481 
z
" transform="scale(0.015625)"/>
       </defs>
       <use xlink:href="#DejaVuSans-30"/>
       <use xlink:href="#DejaVuSans-2e" x="63.623047"/>
       <use xlink:href="#DejaVuSans-38" x="95.410156"/>
      </g>
     </g>
    </g>
    <g id="xtick_6">
     <g id="line2d_11">
      <path d="M 418.530938 297.54825 
L 418.530938 31.43625 
" clip-path="url(#p37e3121db0)" style="fill: none; stroke: #b0b0b0; stroke-width: 0.8; stroke-linecap: square"/>
     </g>
     <g id="line2d_12">
      <g>
       <use xlink:href="#md39032bed2" x="418.530938" y="297.54825" style="stroke: #000000; stroke-width: 0.8"/>
      </g>
     </g>
     <g id="text_6">
      <!-- 1.0 -->
      <g transform="translate(406.603594 315.945906) scale(0.15 -0.15)">
       <defs>
        <path id="DejaVuSans-31" d="M 794 531 
L 1825 531 
L 1825 4091 
L 703 3866 
L 703 4441 
L 1819 4666 
L 2450 4666 
L 2450 531 
L 3481 531 
L 3481 0 
L 794 0 
L 794 531 
z
" transform="scale(0.015625)"/>
       </defs>
       <use xlink:href="#DejaVuSans-31"/>
       <use xlink:href="#DejaVuSans-2e" x="63.623047"/>
       <use xlink:href="#DejaVuSans-30" x="95.410156"/>
      </g>
     </g>
    </g>
    <g id="text_7">
     <!-- Physical Error -->
     <g transform="translate(171.744375 338.262312) scale(0.2 -0.2)">
      <defs>
       <path id="DejaVuSans-50" d="M 1259 4147 
L 1259 2394 
L 2053 2394 
Q 2494 2394 2734 2622 
Q 2975 2850 2975 3272 
Q 2975 3691 2734 3919 
Q 2494 4147 2053 4147 
L 1259 4147 
z
M 628 4666 
L 2053 4666 
Q 2838 4666 3239 4311 
Q 3641 3956 3641 3272 
Q 3641 2581 3239 2228 
Q 2838 1875 2053 1875 
L 1259 1875 
L 1259 0 
L 628 0 
L 628 4666 
z
" transform="scale(0.015625)"/>
       <path id="DejaVuSans-68" d="M 3513 2113 
L 3513 0 
L 2938 0 
L 2938 2094 
Q 2938 2591 2744 2837 
Q 2550 3084 2163 3084 
Q 1697 3084 1428 2787 
Q 1159 2491 1159 1978 
L 1159 0 
L 581 0 
L 581 4863 
L 1159 4863 
L 1159 2956 
Q 1366 3272 1645 3428 
Q 1925 3584 2291 3584 
Q 2894 3584 3203 3211 
Q 3513 2838 3513 2113 
z
" transform="scale(0.015625)"/>
       <path id="DejaVuSans-79" d="M 2059 -325 
Q 1816 -950 1584 -1140 
Q 1353 -1331 966 -1331 
L 506 -1331 
L 506 -850 
L 844 -850 
Q 1081 -850 1212 -737 
Q 1344 -625 1503 -206 
L 1606 56 
L 191 3500 
L 800 3500 
L 1894 763 
L 2988 3500 
L 3597 3500 
L 2059 -325 
z
" transform="scale(0.015625)"/>
       <path id="DejaVuSans-73" d="M 2834 3397 
L 2834 2853 
Q 2591 2978 2328 3040 
Q 2066 3103 1784 3103 
Q 1356 3103 1142 2972 
Q 928 2841 928 2578 
Q 928 2378 1081 2264 
Q 1234 2150 1697 2047 
L 1894 2003 
Q 2506 1872 2764 1633 
Q 3022 1394 3022 966 
Q 3022 478 2636 193 
Q 2250 -91 1575 -91 
Q 1294 -91 989 -36 
Q 684 19 347 128 
L 347 722 
Q 666 556 975 473 
Q 1284 391 1588 391 
Q 1994 391 2212 530 
Q 2431 669 2431 922 
Q 2431 1156 2273 1281 
Q 2116 1406 1581 1522 
L 1381 1569 
Q 847 1681 609 1914 
Q 372 2147 372 2553 
Q 372 3047 722 3315 
Q 1072 3584 1716 3584 
Q 2034 3584 2315 3537 
Q 2597 3491 2834 3397 
z
" transform="scale(0.015625)"/>
       <path id="DejaVuSans-69" d="M 603 3500 
L 1178 3500 
L 1178 0 
L 603 0 
L 603 3500 
z
M 603 4863 
L 1178 4863 
L 1178 4134 
L 603 4134 
L 603 4863 
z
" transform="scale(0.015625)"/>
       <path id="DejaVuSans-63" d="M 3122 3366 
L 3122 2828 
Q 2878 2963 2633 3030 
Q 2388 3097 2138 3097 
Q 1578 3097 1268 2742 
Q 959 2388 959 1747 
Q 959 1106 1268 751 
Q 1578 397 2138 397 
Q 2388 397 2633 464 
Q 2878 531 3122 666 
L 3122 134 
Q 2881 22 2623 -34 
Q 2366 -91 2075 -91 
Q 1284 -91 818 406 
Q 353 903 353 1747 
Q 353 2603 823 3093 
Q 1294 3584 2113 3584 
Q 2378 3584 2631 3529 
Q 2884 3475 3122 3366 
z
" transform="scale(0.015625)"/>
       <path id="DejaVuSans-61" d="M 2194 1759 
Q 1497 1759 1228 1600 
Q 959 1441 959 1056 
Q 959 750 1161 570 
Q 1363 391 1709 391 
Q 2188 391 2477 730 
Q 2766 1069 2766 1631 
L 2766 1759 
L 2194 1759 
z
M 3341 1997 
L 3341 0 
L 2766 0 
L 2766 531 
Q 2569 213 2275 61 
Q 1981 -91 1556 -91 
Q 1019 -91 701 211 
Q 384 513 384 1019 
Q 384 1609 779 1909 
Q 1175 2209 1959 2209 
L 2766 2209 
L 2766 2266 
Q 2766 2663 2505 2880 
Q 2244 3097 1772 3097 
Q 1472 3097 1187 3025 
Q 903 2953 641 2809 
L 641 3341 
Q 956 3463 1253 3523 
Q 1550 3584 1831 3584 
Q 2591 3584 2966 3190 
Q 3341 2797 3341 1997 
z
" transform="scale(0.015625)"/>
       <path id="DejaVuSans-6c" d="M 603 4863 
L 1178 4863 
L 1178 0 
L 603 0 
L 603 4863 
z
" transform="scale(0.015625)"/>
       <path id="DejaVuSans-20" transform="scale(0.015625)"/>
       <path id="DejaVuSans-45" d="M 628 4666 
L 3578 4666 
L 3578 4134 
L 1259 4134 
L 1259 2753 
L 3481 2753 
L 3481 2222 
L 1259 2222 
L 1259 531 
L 3634 531 
L 3634 0 
L 628 0 
L 628 4666 
z
" transform="scale(0.015625)"/>
       <path id="DejaVuSans-72" d="M 2631 2963 
Q 2534 3019 2420 3045 
Q 2306 3072 2169 3072 
Q 1681 3072 1420 2755 
Q 1159 2438 1159 1844 
L 1159 0 
L 581 0 
L 581 3500 
L 1159 3500 
L 1159 2956 
Q 1341 3275 1631 3429 
Q 1922 3584 2338 3584 
Q 2397 3584 2469 3576 
Q 2541 3569 2628 3553 
L 2631 2963 
z
" transform="scale(0.015625)"/>
       <path id="DejaVuSans-6f" d="M 1959 3097 
Q 1497 3097 1228 2736 
Q 959 2375 959 1747 
Q 959 1119 1226 758 
Q 1494 397 1959 397 
Q 2419 397 2687 759 
Q 2956 1122 2956 1747 
Q 2956 2369 2687 2733 
Q 2419 3097 1959 3097 
z
M 1959 3584 
Q 2709 3584 3137 3096 
Q 3566 2609 3566 1747 
Q 3566 888 3137 398 
Q 2709 -91 1959 -91 
Q 1206 -91 779 398 
Q 353 888 353 1747 
Q 353 2609 779 3096 
Q 1206 3584 1959 3584 
z
" transform="scale(0.015625)"/>
      </defs>
      <use xlink:href="#DejaVuSans-50"/>
      <use xlink:href="#DejaVuSans-68" x="60.302734"/>
      <use xlink:href="#DejaVuSans-79" x="123.681641"/>
      <use xlink:href="#DejaVuSans-73" x="182.861328"/>
      <use xlink:href="#DejaVuSans-69" x="234.960938"/>
      <use xlink:href="#DejaVuSans-63" x="262.744141"/>
      <use xlink:href="#DejaVuSans-61" x="317.724609"/>
      <use xlink:href="#DejaVuSans-6c" x="379.003906"/>
      <use xlink:href="#DejaVuSans-20" x="406.787109"/>
      <use xlink:href="#DejaVuSans-45" x="438.574219"/>
      <use xlink:href="#DejaVuSans-72" x="501.757812"/>
      <use xlink:href="#DejaVuSans-72" x="541.121094"/>
      <use xlink:href="#DejaVuSans-6f" x="579.984375"/>
      <use xlink:href="#DejaVuSans-72" x="641.166016"/>
     </g>
    </g>
   </g>
   <g id="matplotlib.axis_2">
    <g id="ytick_1">
     <g id="line2d_13">
      <path d="M 61.410938 297.54825 
L 418.530938 297.54825 
" clip-path="url(#p37e3121db0)" style="fill: none; stroke: #b0b0b0; stroke-width: 0.8; stroke-linecap: square"/>
     </g>
     <g id="line2d_14">
      <defs>
       <path id="m6f3f5b6aff" d="M 0 0 
L -3.5 0 
" style="stroke: #000000; stroke-width: 0.8"/>
      </defs>
      <g>
       <use xlink:href="#m6f3f5b6aff" x="61.410938" y="297.54825" style="stroke: #000000; stroke-width: 0.8"/>
      </g>
     </g>
     <g id="text_8">
      <!-- 0.0 -->
      <g transform="translate(30.55625 303.247078) scale(0.15 -0.15)">
       <use xlink:href="#DejaVuSans-30"/>
       <use xlink:href="#DejaVuSans-2e" x="63.623047"/>
       <use xlink:href="#DejaVuSans-30" x="95.410156"/>
      </g>
     </g>
    </g>
    <g id="ytick_2">
     <g id="line2d_15">
      <path d="M 61.410938 244.32585 
L 418.530938 244.32585 
" clip-path="url(#p37e3121db0)" style="fill: none; stroke: #b0b0b0; stroke-width: 0.8; stroke-linecap: square"/>
     </g>
     <g id="line2d_16">
      <g>
       <use xlink:href="#m6f3f5b6aff" x="61.410938" y="244.32585" style="stroke: #000000; stroke-width: 0.8"/>
      </g>
     </g>
     <g id="text_9">
      <!-- 0.2 -->
      <g transform="translate(30.55625 250.024678) scale(0.15 -0.15)">
       <use xlink:href="#DejaVuSans-30"/>
       <use xlink:href="#DejaVuSans-2e" x="63.623047"/>
       <use xlink:href="#DejaVuSans-32" x="95.410156"/>
      </g>
     </g>
    </g>
    <g id="ytick_3">
     <g id="line2d_17">
      <path d="M 61.410938 191.10345 
L 418.530938 191.10345 
" clip-path="url(#p37e3121db0)" style="fill: none; stroke: #b0b0b0; stroke-width: 0.8; stroke-linecap: square"/>
     </g>
     <g id="line2d_18">
      <g>
       <use xlink:href="#m6f3f5b6aff" x="61.410938" y="191.10345" style="stroke: #000000; stroke-width: 0.8"/>
      </g>
     </g>
     <g id="text_10">
      <!-- 0.4 -->
      <g transform="translate(30.55625 196.802278) scale(0.15 -0.15)">
       <use xlink:href="#DejaVuSans-30"/>
       <use xlink:href="#DejaVuSans-2e" x="63.623047"/>
       <use xlink:href="#DejaVuSans-34" x="95.410156"/>
      </g>
     </g>
    </g>
    <g id="ytick_4">
     <g id="line2d_19">
      <path d="M 61.410938 137.88105 
L 418.530938 137.88105 
" clip-path="url(#p37e3121db0)" style="fill: none; stroke: #b0b0b0; stroke-width: 0.8; stroke-linecap: square"/>
     </g>
     <g id="line2d_20">
      <g>
       <use xlink:href="#m6f3f5b6aff" x="61.410938" y="137.88105" style="stroke: #000000; stroke-width: 0.8"/>
      </g>
     </g>
     <g id="text_11">
      <!-- 0.6 -->
      <g transform="translate(30.55625 143.579878) scale(0.15 -0.15)">
       <use xlink:href="#DejaVuSans-30"/>
       <use xlink:href="#DejaVuSans-2e" x="63.623047"/>
       <use xlink:href="#DejaVuSans-36" x="95.410156"/>
      </g>
     </g>
    </g>
    <g id="ytick_5">
     <g id="line2d_21">
      <path d="M 61.410938 84.65865 
L 418.530938 84.65865 
" clip-path="url(#p37e3121db0)" style="fill: none; stroke: #b0b0b0; stroke-width: 0.8; stroke-linecap: square"/>
     </g>
     <g id="line2d_22">
      <g>
       <use xlink:href="#m6f3f5b6aff" x="61.410938" y="84.65865" style="stroke: #000000; stroke-width: 0.8"/>
      </g>
     </g>
     <g id="text_12">
      <!-- 0.8 -->
      <g transform="translate(30.55625 90.357478) scale(0.15 -0.15)">
       <use xlink:href="#DejaVuSans-30"/>
       <use xlink:href="#DejaVuSans-2e" x="63.623047"/>
       <use xlink:href="#DejaVuSans-38" x="95.410156"/>
      </g>
     </g>
    </g>
    <g id="ytick_6">
     <g id="line2d_23">
      <path d="M 61.410938 31.43625 
L 418.530938 31.43625 
" clip-path="url(#p37e3121db0)" style="fill: none; stroke: #b0b0b0; stroke-width: 0.8; stroke-linecap: square"/>
     </g>
     <g id="line2d_24">
      <g>
       <use xlink:href="#m6f3f5b6aff" x="61.410938" y="31.43625" style="stroke: #000000; stroke-width: 0.8"/>
      </g>
     </g>
     <g id="text_13">
      <!-- 1.0 -->
      <g transform="translate(30.55625 37.135078) scale(0.15 -0.15)">
       <use xlink:href="#DejaVuSans-31"/>
       <use xlink:href="#DejaVuSans-2e" x="63.623047"/>
       <use xlink:href="#DejaVuSans-30" x="95.410156"/>
      </g>
     </g>
    </g>
    <g id="text_14">
     <!-- Logical Error -->
     <g transform="translate(22.396875 227.087562) rotate(-90) scale(0.2 -0.2)">
      <defs>
       <path id="DejaVuSans-4c" d="M 628 4666 
L 1259 4666 
L 1259 531 
L 3531 531 
L 3531 0 
L 628 0 
L 628 4666 
z
" transform="scale(0.015625)"/>
       <path id="DejaVuSans-67" d="M 2906 1791 
Q 2906 2416 2648 2759 
Q 2391 3103 1925 3103 
Q 1463 3103 1205 2759 
Q 947 2416 947 1791 
Q 947 1169 1205 825 
Q 1463 481 1925 481 
Q 2391 481 2648 825 
Q 2906 1169 2906 1791 
z
M 3481 434 
Q 3481 -459 3084 -895 
Q 2688 -1331 1869 -1331 
Q 1566 -1331 1297 -1286 
Q 1028 -1241 775 -1147 
L 775 -588 
Q 1028 -725 1275 -790 
Q 1522 -856 1778 -856 
Q 2344 -856 2625 -561 
Q 2906 -266 2906 331 
L 2906 616 
Q 2728 306 2450 153 
Q 2172 0 1784 0 
Q 1141 0 747 490 
Q 353 981 353 1791 
Q 353 2603 747 3093 
Q 1141 3584 1784 3584 
Q 2172 3584 2450 3431 
Q 2728 3278 2906 2969 
L 2906 3500 
L 3481 3500 
L 3481 434 
z
" transform="scale(0.015625)"/>
      </defs>
      <use xlink:href="#DejaVuSans-4c"/>
      <use xlink:href="#DejaVuSans-6f" x="53.962891"/>
      <use xlink:href="#DejaVuSans-67" x="115.144531"/>
      <use xlink:href="#DejaVuSans-69" x="178.621094"/>
      <use xlink:href="#DejaVuSans-63" x="206.404297"/>
      <use xlink:href="#DejaVuSans-61" x="261.384766"/>
      <use xlink:href="#DejaVuSans-6c" x="322.664062"/>
      <use xlink:href="#DejaVuSans-20" x="350.447266"/>
      <use xlink:href="#DejaVuSans-45" x="382.234375"/>
      <use xlink:href="#DejaVuSans-72" x="445.417969"/>
      <use xlink:href="#DejaVuSans-72" x="484.78125"/>
      <use xlink:href="#DejaVuSans-6f" x="523.644531"/>
      <use xlink:href="#DejaVuSans-72" x="584.826172"/>
     </g>
    </g>
   </g>
   <g id="line2d_25">
    <path d="M 61.44665 297.548169 
L 63.241043 297.436106 
L 65.035436 297.116448 
L 66.82983 296.600831 
L 68.624223 295.900331 
L 72.21301 293.961269 
L 74.007403 292.741582 
L 77.59619 289.955907 
L 81.184977 286.565665 
L 86.568157 280.662356 
L 88.362551 278.541429 
L 97.334518 266.686742 
L 100.923304 261.401417 
L 102.717698 258.772194 
L 104.512091 255.925931 
L 106.306485 253.365829 
L 108.100878 250.270011 
L 109.895271 247.664219 
L 117.072845 236.486241 
L 118.867239 233.693669 
L 120.661632 230.517453 
L 129.633599 216.123707 
L 131.427992 213.679909 
L 133.222386 210.623545 
L 136.811173 205.307736 
L 138.605566 202.158505 
L 140.399959 199.739778 
L 143.988746 194.187899 
L 149.371926 186.420683 
L 152.960713 181.668975 
L 154.755107 178.936069 
L 156.5495 177.020321 
L 158.343893 174.285212 
L 160.138287 172.153252 
L 161.93268 169.396381 
L 165.521467 165.12884 
L 167.315861 162.75776 
L 169.110254 160.854669 
L 170.904647 158.480505 
L 172.699041 156.514439 
L 174.493434 154.277735 
L 176.287828 152.550666 
L 179.876614 148.795215 
L 181.671008 147.073321 
L 185.259795 143.143292 
L 187.054188 141.892518 
L 188.848581 140.314052 
L 190.642975 138.233151 
L 194.231762 135.540268 
L 196.026155 133.841209 
L 199.614942 130.87973 
L 201.409335 129.062307 
L 203.203729 128.157593 
L 204.998122 127.020824 
L 206.792515 125.012491 
L 208.586909 124.800449 
L 212.175696 121.768035 
L 213.970089 120.629968 
L 215.764483 119.751038 
L 217.558876 118.59854 
L 219.353269 117.23253 
L 221.147663 116.656784 
L 222.942056 115.888867 
L 230.11963 111.988151 
L 231.914023 111.616631 
L 233.708417 110.275246 
L 235.50281 110.247755 
L 237.297203 109.290469 
L 239.091597 108.509877 
L 240.88599 107.935622 
L 242.680384 107.208685 
L 244.474777 106.763373 
L 246.26917 106.019718 
L 248.063564 105.750815 
L 249.857957 104.800474 
L 253.446744 104.060745 
L 255.241137 103.423495 
L 257.035531 103.295482 
L 258.829924 102.792915 
L 260.624318 102.597727 
L 262.418711 102.135042 
L 264.213104 101.809605 
L 266.007498 101.298762 
L 267.801891 101.532747 
L 269.596285 100.63911 
L 271.390678 100.588684 
L 276.773858 99.958123 
L 278.568252 100.166103 
L 280.362645 99.265691 
L 282.157039 99.590045 
L 283.951432 99.20088 
L 285.745825 99.52704 
L 287.540219 98.87777 
L 289.334612 98.730334 
L 291.129006 98.342013 
L 292.923399 98.58795 
L 294.717792 98.419687 
L 296.512186 98.472143 
L 298.306579 98.711473 
L 300.100973 98.171353 
L 301.895366 98.458679 
L 303.689759 98.116046 
L 309.07294 98.084595 
L 310.867333 98.11624 
L 316.250513 97.916922 
L 318.044907 97.551892 
L 323.428087 98.266814 
L 327.016874 97.78709 
L 328.811267 98.077369 
L 330.605661 97.790824 
L 332.400054 97.743546 
L 335.988841 97.936483 
L 337.783234 98.335628 
L 339.577628 97.739222 
L 341.372021 97.711923 
L 343.166414 98.219528 
L 344.960808 97.961355 
L 346.755201 97.430708 
L 348.549595 97.348924 
L 350.343988 98.143159 
L 352.138381 97.653645 
L 353.932775 97.654862 
L 355.727168 97.834497 
L 357.521562 97.465941 
L 359.315955 97.640125 
L 361.110348 97.445058 
L 364.699135 97.675375 
L 368.287922 97.018839 
L 370.082316 97.041005 
L 371.876709 96.753645 
L 373.671102 96.914879 
L 375.465496 96.466304 
L 377.259889 96.292957 
L 379.054283 96.452668 
L 380.848676 95.811521 
L 382.643069 96.07236 
L 384.437463 95.676732 
L 386.231856 95.401311 
L 388.02625 95.364918 
L 389.820643 94.702478 
L 391.615036 94.695466 
L 393.40943 94.336959 
L 395.203823 93.715176 
L 396.998217 93.696829 
L 398.79261 93.140086 
L 402.381397 92.46839 
L 404.17579 91.982552 
L 405.970184 91.698541 
L 409.55897 90.08201 
L 411.353364 89.817817 
L 414.942151 89.004269 
L 416.736544 88.33865 
L 418.530938 87.45393 
L 418.530938 87.45393 
" clip-path="url(#p37e3121db0)" style="fill: none; stroke: #ff7f0e; stroke-width: 1.5; stroke-linecap: square"/>
   </g>
   <g id="line2d_26">
    <path d="M 61.44665 297.547389 
L 63.241043 295.582731 
L 65.035436 290.537229 
L 66.82983 283.26374 
L 68.624223 274.465614 
L 72.21301 254.166921 
L 79.390584 212.587847 
L 82.97937 193.866482 
L 86.568157 177.339548 
L 88.362551 169.95735 
L 90.156944 163.073074 
L 91.951337 156.72693 
L 95.540124 145.57089 
L 99.128911 136.252896 
L 100.923304 132.318935 
L 104.512091 125.651711 
L 108.100878 119.964774 
L 111.689665 115.456431 
L 113.484058 113.865422 
L 115.278452 111.563534 
L 117.072845 110.219931 
L 120.661632 107.91831 
L 122.456025 106.416903 
L 124.250419 105.926653 
L 126.044812 104.962306 
L 127.839206 104.137157 
L 129.633599 103.085447 
L 133.222386 102.375707 
L 135.016779 101.468576 
L 140.399959 100.614937 
L 151.16632 99.143178 
L 152.960713 99.168812 
L 154.755107 98.932347 
L 158.343893 98.790519 
L 160.138287 98.74649 
L 161.93268 98.261065 
L 165.521467 98.433801 
L 169.110254 98.184547 
L 170.904647 98.332481 
L 172.699041 98.160091 
L 174.493434 98.289579 
L 176.287828 98.07018 
L 178.082221 98.356006 
L 179.876614 97.802888 
L 183.465401 98.087214 
L 188.848581 98.242194 
L 190.642975 97.969623 
L 192.437368 97.928838 
L 194.231762 98.37381 
L 196.026155 98.021086 
L 201.409335 98.041532 
L 203.203729 97.985229 
L 204.998122 98.041994 
L 206.792515 97.761686 
L 210.381302 98.110053 
L 212.175696 97.855051 
L 213.970089 98.072526 
L 217.558876 97.849347 
L 219.353269 97.95453 
L 221.147663 97.902879 
L 224.73645 97.979626 
L 226.530843 98.314891 
L 228.325236 98.050852 
L 230.11963 98.082572 
L 233.708417 97.765713 
L 235.50281 98.154178 
L 240.88599 98.065552 
L 242.680384 97.797074 
L 244.474777 97.863091 
L 248.063564 98.233663 
L 249.857957 97.959532 
L 251.652351 98.031219 
L 253.446744 97.987469 
L 255.241137 98.333983 
L 257.035531 98.140355 
L 258.829924 97.766854 
L 260.624318 98.163781 
L 262.418711 97.861305 
L 264.213104 98.07805 
L 267.801891 97.75314 
L 269.596285 97.871244 
L 271.390678 97.758778 
L 274.979465 97.998785 
L 276.773858 97.883537 
L 280.362645 97.915931 
L 282.157039 97.841055 
L 283.951432 98.259785 
L 287.540219 97.924841 
L 289.334612 97.962304 
L 291.129006 97.697862 
L 296.512186 97.968202 
L 298.306579 97.737438 
L 300.100973 97.870655 
L 301.895366 98.158157 
L 305.484153 98.195847 
L 307.278546 97.873976 
L 309.07294 98.137331 
L 310.867333 97.773585 
L 312.661726 98.199184 
L 314.45612 97.622534 
L 316.250513 98.002661 
L 321.633694 97.854026 
L 323.428087 97.788276 
L 325.22248 97.973323 
L 327.016874 97.968451 
L 328.811267 98.154655 
L 330.605661 97.517995 
L 332.400054 98.075309 
L 334.194447 97.933739 
L 337.783234 97.843552 
L 341.372021 97.817599 
L 343.166414 97.818583 
L 344.960808 97.964974 
L 348.549595 97.905266 
L 350.343988 97.847411 
L 352.138381 97.671227 
L 353.932775 97.96425 
L 355.727168 97.797635 
L 357.521562 98.06406 
L 364.699135 97.933566 
L 366.493529 97.74284 
L 368.287922 98.009413 
L 371.876709 98.114913 
L 375.465496 97.696188 
L 377.259889 97.938291 
L 379.054283 97.939746 
L 380.848676 97.696983 
L 382.643069 97.93037 
L 384.437463 98.012132 
L 386.231856 97.705633 
L 389.820643 98.286612 
L 391.615036 97.936145 
L 393.40943 98.114539 
L 396.998217 98.070522 
L 400.587003 97.894607 
L 402.381397 98.078516 
L 404.17579 97.612713 
L 405.970184 97.726604 
L 407.764577 98.381649 
L 409.55897 97.867235 
L 411.353364 97.930497 
L 413.147757 98.238227 
L 414.942151 97.91981 
L 416.736544 97.838716 
L 418.530938 98.106369 
L 418.530938 98.106369 
" clip-path="url(#p37e3121db0)" style="fill: none; stroke: #d62728; stroke-width: 1.5; stroke-linecap: square"/>
   </g>
   <g id="line2d_27">
    <path d="M 61.44665 297.547219 
L 63.241043 295.062415 
L 65.035436 288.806338 
L 66.82983 280.015947 
L 68.624223 269.464957 
L 72.21301 246.138478 
L 77.59619 211.557242 
L 81.184977 191.003895 
L 82.97937 181.844925 
L 84.773764 173.349135 
L 86.568157 165.394242 
L 88.362551 158.330655 
L 90.156944 151.808369 
L 91.951337 145.973834 
L 93.745731 140.936603 
L 95.540124 136.312035 
L 97.334518 131.999118 
L 100.923304 124.621746 
L 102.717698 121.62696 
L 106.306485 116.585422 
L 108.100878 114.564835 
L 109.895271 112.904444 
L 111.689665 111.049488 
L 115.278452 107.957453 
L 117.072845 106.818193 
L 118.867239 105.81872 
L 124.250419 103.605109 
L 126.044812 102.78554 
L 127.839206 102.257091 
L 129.633599 101.905407 
L 133.222386 100.82547 
L 135.016779 100.762181 
L 140.399959 99.889731 
L 142.194353 99.919275 
L 143.988746 99.496946 
L 145.78314 99.365907 
L 147.577533 99.072757 
L 156.5495 98.502024 
L 158.343893 98.644981 
L 160.138287 98.566302 
L 161.93268 98.230479 
L 165.521467 98.172062 
L 167.315861 98.42109 
L 169.110254 98.09625 
L 170.904647 98.095536 
L 174.493434 98.262164 
L 176.287828 98.012149 
L 178.082221 98.140633 
L 185.259795 98.098132 
L 190.642975 97.981836 
L 192.437368 98.156067 
L 194.231762 98.128668 
L 196.026155 97.944806 
L 197.820548 98.205119 
L 199.614942 98.23448 
L 201.409335 97.904763 
L 203.203729 97.879309 
L 204.998122 98.02037 
L 206.792515 97.644603 
L 208.586909 98.219173 
L 210.381302 97.902887 
L 212.175696 97.883538 
L 215.764483 98.057682 
L 217.558876 97.90304 
L 222.942056 98.026505 
L 224.73645 98.183352 
L 226.530843 97.990755 
L 230.11963 97.906205 
L 231.914023 98.073671 
L 233.708417 97.852573 
L 235.50281 97.964817 
L 240.88599 97.872733 
L 244.474777 97.785186 
L 249.857957 98.171265 
L 251.652351 98.037145 
L 253.446744 97.663593 
L 255.241137 97.975019 
L 257.035531 97.946219 
L 258.829924 98.136293 
L 260.624318 97.997 
L 266.007498 97.942126 
L 267.801891 97.632153 
L 271.390678 98.215175 
L 273.185072 97.695387 
L 274.979465 98.224831 
L 278.568252 97.537431 
L 282.157039 98.321708 
L 283.951432 97.736669 
L 285.745825 98.095555 
L 289.334612 97.905869 
L 294.717792 97.974094 
L 296.512186 98.125643 
L 298.306579 97.760582 
L 300.100973 98.017353 
L 301.895366 97.968914 
L 303.689759 98.18626 
L 305.484153 97.828648 
L 307.278546 97.611238 
L 310.867333 98.11149 
L 316.250513 97.53967 
L 318.044907 98.08541 
L 319.8393 97.632715 
L 321.633694 97.838082 
L 323.428087 97.876611 
L 325.22248 98.415084 
L 327.016874 97.87462 
L 328.811267 97.844808 
L 330.605661 98.061538 
L 332.400054 97.778208 
L 334.194447 97.890456 
L 335.988841 98.159334 
L 337.783234 97.789274 
L 339.577628 97.583709 
L 341.372021 98.222328 
L 343.166414 97.796949 
L 344.960808 97.794196 
L 348.549595 98.144843 
L 350.343988 97.820392 
L 352.138381 98.203064 
L 353.932775 98.133274 
L 355.727168 97.834497 
L 357.521562 98.098808 
L 359.315955 97.801817 
L 361.110348 98.341371 
L 362.904742 97.785219 
L 364.699135 98.143113 
L 366.493529 97.774363 
L 370.082316 98.019358 
L 375.465496 98.006135 
L 377.259889 97.922258 
L 379.054283 98.084472 
L 380.848676 97.921242 
L 384.437463 98.168906 
L 386.231856 98.173311 
L 388.02625 97.969686 
L 389.820643 97.920646 
L 391.615036 97.459138 
L 393.40943 97.881278 
L 395.203823 97.885738 
L 396.998217 97.676134 
L 398.79261 97.832438 
L 400.587003 97.571717 
L 402.381397 97.930129 
L 404.17579 98.070029 
L 407.764577 97.973845 
L 409.55897 97.932179 
L 411.353364 97.722356 
L 413.147757 98.019045 
L 416.736544 98.166724 
L 418.530938 97.920396 
L 418.530938 97.920396 
" clip-path="url(#p37e3121db0)" style="fill: none; stroke: #9467bd; stroke-width: 1.5; stroke-linecap: square"/>
   </g>
   <g id="line2d_28">
    <path d="M 61.44665 297.54397 
L 63.241043 288.200395 
L 65.035436 267.142916 
L 68.624223 215.095177 
L 70.418617 191.349396 
L 72.21301 170.759475 
L 74.007403 153.704359 
L 75.801797 140.205624 
L 77.59619 129.328522 
L 79.390584 121.212426 
L 81.184977 114.94154 
L 82.97937 110.195763 
L 84.773764 106.935585 
L 86.568157 104.449971 
L 88.362551 102.356943 
L 91.951337 100.179317 
L 97.334518 98.673819 
L 99.128911 98.466451 
L 100.923304 98.389936 
L 104.512091 98.067509 
L 106.306485 98.018377 
L 108.100878 98.102243 
L 109.895271 98.016016 
L 111.689665 98.107461 
L 113.484058 97.861308 
L 115.278452 97.961096 
L 117.072845 97.891798 
L 118.867239 98.039163 
L 120.661632 97.902393 
L 122.456025 98.1976 
L 124.250419 97.973788 
L 129.633599 97.723983 
L 133.222386 98.093163 
L 138.605566 97.848352 
L 140.399959 97.968451 
L 142.194353 97.861517 
L 143.988746 98.075151 
L 145.78314 97.848596 
L 147.577533 98.103462 
L 149.371926 97.874787 
L 151.16632 98.116094 
L 152.960713 97.818305 
L 154.755107 97.737586 
L 156.5495 97.859462 
L 158.343893 97.836481 
L 160.138287 98.102594 
L 165.521467 97.972142 
L 169.110254 97.960236 
L 170.904647 98.071257 
L 176.287828 97.957802 
L 179.876614 98.049374 
L 188.848581 97.817274 
L 190.642975 97.89 
L 192.437368 97.749317 
L 196.026155 98.203061 
L 197.820548 97.975792 
L 199.614942 97.951117 
L 201.409335 98.103053 
L 203.203729 97.839397 
L 204.998122 98.222194 
L 206.792515 97.944563 
L 210.381302 97.864076 
L 212.175696 98.248062 
L 213.970089 97.658 
L 215.764483 98.139369 
L 217.558876 97.888543 
L 221.147663 98.019103 
L 222.942056 98.2373 
L 224.73645 98.212456 
L 226.530843 97.939954 
L 228.325236 98.113583 
L 230.11963 97.917368 
L 231.914023 97.883447 
L 233.708417 97.413761 
L 235.50281 97.920595 
L 237.297203 97.993885 
L 239.091597 97.672732 
L 240.88599 98.132895 
L 249.857957 97.792622 
L 251.652351 98.143822 
L 253.446744 97.850536 
L 255.241137 97.839809 
L 257.035531 98.024955 
L 260.624318 97.967282 
L 262.418711 97.801609 
L 264.213104 98.085392 
L 266.007498 97.932294 
L 267.801891 97.979682 
L 269.596285 98.151503 
L 271.390678 97.761892 
L 274.979465 98.217297 
L 276.773858 97.962358 
L 278.568252 97.840764 
L 280.362645 98.031007 
L 282.157039 97.742754 
L 283.951432 98.089259 
L 285.745825 98.100061 
L 289.334612 97.776783 
L 291.129006 97.961645 
L 294.717792 97.751625 
L 296.512186 97.723149 
L 298.306579 98.093857 
L 300.100973 98.105638 
L 301.895366 97.735027 
L 303.689759 98.101334 
L 305.484153 97.676265 
L 307.278546 97.741933 
L 309.07294 97.641751 
L 310.867333 98.018532 
L 312.661726 97.677562 
L 314.45612 97.889072 
L 316.250513 97.925153 
L 318.044907 98.14186 
L 319.8393 97.948364 
L 323.428087 98.150657 
L 325.22248 97.863755 
L 328.811267 98.090016 
L 330.605661 97.893752 
L 332.400054 98.08309 
L 334.194447 97.764865 
L 335.988841 97.901595 
L 339.577628 97.668274 
L 341.372021 98.078552 
L 343.166414 98.003191 
L 344.960808 97.705913 
L 346.755201 98.036115 
L 348.549595 98.24679 
L 352.138381 97.842645 
L 353.932775 97.759216 
L 355.727168 97.542552 
L 357.521562 97.904364 
L 361.110348 98.128636 
L 364.699135 97.565363 
L 366.493529 98.016788 
L 368.287922 97.883709 
L 370.082316 98.179397 
L 371.876709 97.803745 
L 375.465496 97.733504 
L 377.259889 98.267358 
L 379.054283 97.96961 
L 380.848676 97.915865 
L 382.643069 98.04741 
L 384.437463 97.758049 
L 388.02625 98.11103 
L 389.820643 97.915195 
L 393.40943 98.090274 
L 395.203823 98.442389 
L 398.79261 98.161573 
L 400.587003 97.834461 
L 402.381397 97.823798 
L 404.17579 98.005607 
L 407.764577 97.737159 
L 409.55897 98.166297 
L 411.353364 97.817989 
L 413.147757 97.969085 
L 414.942151 97.639432 
L 418.530938 97.741732 
L 418.530938 97.741732 
" clip-path="url(#p37e3121db0)" style="fill: none; stroke: #8c564b; stroke-width: 1.5; stroke-linecap: square"/>
   </g>
   <g id="line2d_29">
    <path d="M 61.44665 297.542224 
L 63.241043 284.752758 
L 65.035436 257.503775 
L 68.624223 197.593859 
L 70.418617 172.77691 
L 72.21301 153.084444 
L 74.007403 137.76785 
L 75.801797 126.386379 
L 77.59619 118.032495 
L 79.390584 112.048427 
L 81.184977 107.631218 
L 82.97937 104.761065 
L 84.773764 102.5464 
L 88.362551 100.044812 
L 90.156944 99.307398 
L 93.745731 98.5165 
L 95.540124 98.556672 
L 97.334518 98.282333 
L 99.128911 98.257442 
L 100.923304 98.052304 
L 102.717698 98.050415 
L 104.512091 98.166254 
L 106.306485 98.083445 
L 108.100878 97.867068 
L 109.895271 97.831994 
L 111.689665 98.219288 
L 113.484058 98.095408 
L 115.278452 97.82832 
L 117.072845 97.997912 
L 127.839206 97.903309 
L 129.633599 98.114727 
L 133.222386 97.83388 
L 135.016779 98.092183 
L 138.605566 97.963495 
L 140.399959 98.173143 
L 142.194353 97.814784 
L 143.988746 97.945897 
L 147.577533 97.940317 
L 149.371926 98.187504 
L 151.16632 97.929647 
L 152.960713 97.968772 
L 154.755107 97.787402 
L 156.5495 98.206101 
L 160.138287 97.922405 
L 161.93268 98.052993 
L 163.727074 97.794731 
L 165.521467 97.99757 
L 167.315861 97.897471 
L 172.699041 97.89761 
L 174.493434 97.830372 
L 178.082221 98.288702 
L 179.876614 97.932913 
L 181.671008 97.738538 
L 183.465401 98.047334 
L 185.259795 97.950384 
L 187.054188 98.283614 
L 188.848581 97.956974 
L 190.642975 97.838709 
L 192.437368 98.038026 
L 194.231762 97.669089 
L 196.026155 97.949792 
L 201.409335 98.015094 
L 203.203729 97.781065 
L 204.998122 97.916368 
L 206.792515 97.767903 
L 208.586909 98.22595 
L 212.175696 98.063426 
L 213.970089 98.3188 
L 215.764483 97.970123 
L 219.353269 98.04471 
L 221.147663 97.481974 
L 222.942056 98.088761 
L 226.530843 97.777609 
L 228.325236 98.158549 
L 230.11963 97.571891 
L 231.914023 97.836312 
L 233.708417 97.656292 
L 235.50281 98.092947 
L 237.297203 97.891873 
L 239.091597 98.16585 
L 240.88599 97.834744 
L 242.680384 98.169605 
L 244.474777 97.879369 
L 249.857957 98.235552 
L 253.446744 98.094634 
L 255.241137 97.89844 
L 257.035531 98.122324 
L 258.829924 97.746933 
L 260.624318 97.781094 
L 262.418711 98.105571 
L 264.213104 98.197969 
L 267.801891 97.70561 
L 269.596285 97.700732 
L 273.185072 98.054288 
L 276.773858 97.969925 
L 278.568252 98.289747 
L 280.362645 97.86634 
L 282.157039 98.109148 
L 283.951432 97.948864 
L 285.745825 98.220424 
L 287.540219 97.802091 
L 289.334612 97.986954 
L 291.129006 97.757783 
L 292.923399 98.054471 
L 296.512186 97.835795 
L 298.306579 98.167257 
L 300.100973 97.987483 
L 301.895366 97.968914 
L 303.689759 97.753608 
L 307.278546 98.306483 
L 312.661726 97.719101 
L 314.45612 98.015507 
L 319.8393 97.888273 
L 321.633694 97.962864 
L 323.428087 97.851571 
L 337.783234 97.977105 
L 341.372021 97.769434 
L 343.166414 97.974346 
L 346.755201 97.971509 
L 348.549595 97.646756 
L 350.343988 98.136587 
L 352.138381 98.235297 
L 355.727168 97.662721 
L 357.521562 97.894753 
L 362.904742 98.064209 
L 364.699135 97.851245 
L 366.493529 98.134623 
L 368.287922 98.089201 
L 370.082316 97.803456 
L 375.465496 97.722081 
L 377.259889 98.734618 
L 379.054283 97.90299 
L 380.848676 98.080987 
L 382.643069 97.96348 
L 384.437463 98.287839 
L 386.231856 98.136145 
L 388.02625 98.338579 
L 391.615036 98.050127 
L 393.40943 98.467562 
L 395.203823 98.015283 
L 400.587003 98.0608 
L 402.381397 97.488937 
L 404.17579 97.954706 
L 405.970184 97.83187 
L 407.764577 98.314482 
L 409.55897 98.049238 
L 411.353364 98.091224 
L 413.147757 97.980366 
L 414.942151 98.309269 
L 416.736544 97.798222 
L 418.530938 98.048709 
L 418.530938 98.048709 
" clip-path="url(#p37e3121db0)" style="fill: none; stroke: #e377c2; stroke-width: 1.5; stroke-linecap: square"/>
   </g>
   <g id="line2d_30">
    <path d="M 61.44665 297.530181 
L 63.241043 261.725338 
L 65.035436 199.871165 
L 66.82983 151.177867 
L 68.624223 122.479322 
L 70.418617 108.266005 
L 72.21301 102.120131 
L 74.007403 99.660577 
L 75.801797 98.415491 
L 79.390584 97.941474 
L 81.184977 97.996543 
L 82.97937 97.672867 
L 84.773764 97.938909 
L 86.568157 98.074817 
L 88.362551 97.938817 
L 90.156944 97.915178 
L 93.745731 98.060283 
L 95.540124 98.056879 
L 97.334518 97.770825 
L 100.923304 97.952095 
L 102.717698 97.892998 
L 104.512091 98.222115 
L 106.306485 97.817704 
L 108.100878 98.095197 
L 109.895271 97.972329 
L 111.689665 97.984361 
L 113.484058 97.795263 
L 118.867239 97.804978 
L 120.661632 97.967227 
L 122.456025 98.012935 
L 124.250419 97.789155 
L 129.633599 97.915274 
L 131.427992 97.858898 
L 133.222386 98.035626 
L 135.016779 97.922958 
L 136.811173 98.016113 
L 138.605566 97.876288 
L 140.399959 98.141828 
L 142.194353 98.002485 
L 143.988746 98.036882 
L 145.78314 97.764915 
L 147.577533 97.728508 
L 149.371926 98.096026 
L 152.960713 97.976583 
L 154.755107 98.237409 
L 160.138287 98.058187 
L 161.93268 97.900493 
L 163.727074 98.195491 
L 167.315861 97.80681 
L 170.904647 98.006513 
L 172.699041 98.064437 
L 174.493434 97.929981 
L 178.082221 97.984673 
L 179.876614 98.178932 
L 181.671008 97.936448 
L 183.465401 98.054456 
L 187.054188 98.036023 
L 188.848581 97.848319 
L 190.642975 97.828939 
L 192.437368 98.102457 
L 196.026155 98.111326 
L 197.820548 97.96977 
L 201.409335 98.123899 
L 204.998122 97.65585 
L 206.792515 98.084959 
L 208.586909 97.856859 
L 210.381302 98.0382 
L 212.175696 97.830257 
L 215.764483 98.138301 
L 217.558876 97.796727 
L 219.353269 98.11491 
L 221.147663 97.713336 
L 222.942056 98.211087 
L 226.530843 97.826202 
L 228.325236 98.16299 
L 233.708417 97.79899 
L 237.297203 98.13636 
L 239.091597 97.767805 
L 240.88599 97.92914 
L 242.680384 97.953259 
L 244.474777 97.817162 
L 248.063564 98.261837 
L 249.857957 97.892296 
L 253.446744 97.868992 
L 255.241137 98.140741 
L 257.035531 97.911358 
L 258.829924 98.049366 
L 262.418711 97.915519 
L 266.007498 98.022632 
L 267.801891 98.185236 
L 273.185072 97.883591 
L 274.979465 97.99439 
L 276.773858 97.618696 
L 278.568252 98.296079 
L 280.362645 97.910844 
L 282.157039 98.042763 
L 283.951432 97.811675 
L 285.745825 98.103279 
L 287.540219 97.884785 
L 289.334612 98.050524 
L 292.923399 97.867492 
L 294.717792 97.731281 
L 296.512186 98.28967 
L 300.100973 97.844103 
L 301.895366 98.090856 
L 303.689759 97.754277 
L 305.484153 98.006542 
L 307.278546 97.725091 
L 309.07294 97.769534 
L 310.867333 98.066707 
L 312.661726 97.76064 
L 314.45612 97.722315 
L 316.250513 98.299661 
L 318.044907 97.8128 
L 319.8393 98.008455 
L 323.428087 98.073451 
L 325.22248 97.731156 
L 328.811267 98.006406 
L 330.605661 98.234259 
L 332.400054 97.945151 
L 334.194447 98.041592 
L 335.988841 98.249757 
L 337.783234 98.104231 
L 339.577628 97.561493 
L 341.372021 98.173444 
L 343.166414 98.301015 
L 344.960808 97.687822 
L 350.343988 97.997111 
L 352.138381 98.065343 
L 353.932775 98.363295 
L 355.727168 97.994477 
L 357.521562 98.204533 
L 359.315955 98.170444 
L 362.904742 97.668103 
L 364.699135 97.983708 
L 366.493529 97.928975 
L 368.287922 98.287165 
L 370.082316 98.050309 
L 371.876709 97.956679 
L 373.671102 97.661284 
L 375.465496 97.812704 
L 377.259889 97.755816 
L 382.643069 97.89495 
L 384.437463 97.840684 
L 386.231856 97.968896 
L 388.02625 97.799607 
L 389.820643 98.026542 
L 391.615036 97.80811 
L 395.203823 97.791523 
L 396.998217 98.237409 
L 398.79261 98.216824 
L 400.587003 97.7941 
L 402.381397 98.171356 
L 404.17579 97.852108 
L 405.970184 98.103807 
L 407.764577 98.23372 
L 409.55897 97.90091 
L 411.353364 97.896745 
L 413.147757 98.210023 
L 414.942151 97.743664 
L 416.736544 98.073586 
L 418.530938 97.976432 
L 418.530938 97.976432 
" clip-path="url(#p37e3121db0)" style="fill: none; stroke: #7f7f7f; stroke-width: 1.5; stroke-linecap: square"/>
   </g>
   <g id="line2d_31">
    <path d="M 61.44665 297.522238 
L 63.241043 249.069953 
L 65.035436 178.026857 
L 66.82983 132.523786 
L 68.624223 111.066578 
L 70.418617 102.572227 
L 72.21301 99.469689 
L 74.007403 98.503103 
L 75.801797 98.069235 
L 77.59619 97.831309 
L 79.390584 98.150103 
L 81.184977 97.842529 
L 84.773764 97.993953 
L 86.568157 97.970716 
L 88.362551 97.497094 
L 90.156944 97.968167 
L 91.951337 97.816785 
L 97.334518 98.021943 
L 99.128911 97.829925 
L 100.923304 98.085257 
L 102.717698 97.65356 
L 104.512091 98.012494 
L 106.306485 98.086036 
L 108.100878 97.736414 
L 109.895271 97.857128 
L 113.484058 97.764877 
L 115.278452 98.110272 
L 117.072845 97.881859 
L 120.661632 98.086641 
L 122.456025 97.876618 
L 124.250419 98.19419 
L 127.839206 97.733445 
L 129.633599 97.915984 
L 131.427992 97.940159 
L 133.222386 97.751944 
L 135.016779 98.198363 
L 136.811173 97.985891 
L 140.399959 97.927589 
L 142.194353 98.199842 
L 147.577533 97.888461 
L 149.371926 98.012205 
L 151.16632 97.943081 
L 152.960713 98.077717 
L 154.755107 98.079243 
L 156.5495 97.867006 
L 158.343893 98.015442 
L 160.138287 97.575265 
L 161.93268 97.889723 
L 163.727074 97.670417 
L 165.521467 98.062018 
L 167.315861 98.010686 
L 169.110254 97.713628 
L 170.904647 97.979537 
L 174.493434 97.945059 
L 176.287828 97.644156 
L 178.082221 98.093752 
L 179.876614 97.43573 
L 181.671008 98.031634 
L 183.465401 98.011727 
L 185.259795 97.712743 
L 188.848581 98.123837 
L 194.231762 97.852327 
L 197.820548 97.920091 
L 199.614942 97.858684 
L 201.409335 98.155931 
L 204.998122 98.12849 
L 206.792515 97.877733 
L 208.586909 98.013254 
L 210.381302 97.832084 
L 212.175696 98.223795 
L 213.970089 97.742391 
L 215.764483 98.179411 
L 217.558876 98.373392 
L 219.353269 97.91889 
L 221.147663 97.83119 
L 222.942056 97.612016 
L 224.73645 97.862661 
L 230.11963 98.050759 
L 231.914023 97.857073 
L 235.50281 98.184226 
L 237.297203 97.979067 
L 239.091597 98.128623 
L 240.88599 97.948134 
L 242.680384 98.188694 
L 244.474777 97.927042 
L 246.26917 98.022081 
L 248.063564 97.979511 
L 249.857957 98.066283 
L 251.652351 98.011662 
L 255.241137 98.177235 
L 257.035531 97.904747 
L 258.829924 98.319201 
L 260.624318 97.872672 
L 262.418711 97.998362 
L 264.213104 97.74705 
L 266.007498 97.995592 
L 267.801891 98.115484 
L 269.596285 97.975411 
L 271.390678 98.019665 
L 273.185072 97.916105 
L 274.979465 97.93411 
L 276.773858 97.815435 
L 278.568252 98.072538 
L 280.362645 98.00494 
L 282.157039 97.677007 
L 283.951432 97.935402 
L 285.745825 97.966825 
L 287.540219 98.362865 
L 289.334612 97.772243 
L 291.129006 97.863947 
L 292.923399 97.794923 
L 294.717792 98.139469 
L 296.512186 98.229066 
L 298.306579 97.646845 
L 300.100973 97.717983 
L 301.895366 98.200137 
L 303.689759 97.960238 
L 305.484153 98.463022 
L 307.278546 97.840965 
L 310.867333 97.600561 
L 314.45612 97.917093 
L 316.250513 98.268109 
L 318.044907 97.99454 
L 319.8393 98.328248 
L 321.633694 98.220745 
L 325.22248 97.687887 
L 327.016874 97.849411 
L 328.811267 97.796328 
L 330.605661 97.973415 
L 332.400054 98.414146 
L 334.194447 97.999728 
L 335.988841 98.205613 
L 337.783234 97.774276 
L 343.166414 97.991653 
L 344.960808 97.912148 
L 346.755201 97.702197 
L 348.549595 97.873225 
L 350.343988 98.211072 
L 352.138381 97.920297 
L 353.932775 97.926771 
L 355.727168 98.264304 
L 359.315955 98.034712 
L 361.110348 98.138306 
L 362.904742 97.648707 
L 364.699135 98.133384 
L 368.287922 97.400466 
L 370.082316 98.231485 
L 371.876709 97.874155 
L 373.671102 98.082703 
L 375.465496 97.809658 
L 379.054283 98.181722 
L 382.643069 97.8141 
L 384.437463 97.876981 
L 386.231856 98.363015 
L 388.02625 98.391389 
L 389.820643 97.771923 
L 391.615036 98.36709 
L 393.40943 97.969729 
L 395.203823 97.890449 
L 396.998217 97.98944 
L 398.79261 97.908999 
L 400.587003 98.378151 
L 402.381397 98.103908 
L 404.17579 97.691451 
L 405.970184 97.934744 
L 409.55897 98.014762 
L 411.353364 98.27606 
L 413.147757 97.725729 
L 414.942151 98.055555 
L 416.736544 98.03795 
L 418.530938 98.203822 
L 418.530938 98.203822 
" clip-path="url(#p37e3121db0)" style="fill: none; stroke: #bcbd22; stroke-width: 1.5; stroke-linecap: square"/>
   </g>
   <g id="line2d_32">
    <path d="M 61.44665 297.521639 
L 418.530938 31.43625 
L 418.530938 31.43625 
" clip-path="url(#p37e3121db0)" style="fill: none; stroke-dasharray: 5.55,2.4; stroke-dashoffset: 0; stroke: #1f77b4; stroke-width: 1.5"/>
   </g>
   <g id="patch_3">
    <path d="M 61.410938 297.54825 
L 61.410938 31.43625 
" style="fill: none; stroke: #000000; stroke-width: 0.8; stroke-linejoin: miter; stroke-linecap: square"/>
   </g>
   <g id="patch_4">
    <path d="M 418.530938 297.54825 
L 418.530938 31.43625 
" style="fill: none; stroke: #000000; stroke-width: 0.8; stroke-linejoin: miter; stroke-linecap: square"/>
   </g>
   <g id="patch_5">
    <path d="M 61.410938 297.54825 
L 418.530938 297.54825 
" style="fill: none; stroke: #000000; stroke-width: 0.8; stroke-linejoin: miter; stroke-linecap: square"/>
   </g>
   <g id="patch_6">
    <path d="M 61.410938 31.43625 
L 418.530938 31.43625 
" style="fill: none; stroke: #000000; stroke-width: 0.8; stroke-linejoin: miter; stroke-linecap: square"/>
   </g>
   <g id="text_15">
    <!-- [[7, 1, 3]] Circuit -->
    <g transform="translate(140.652188 25.43625) scale(0.24 -0.24)">
     <defs>
      <path id="DejaVuSans-5b" d="M 550 4863 
L 1875 4863 
L 1875 4416 
L 1125 4416 
L 1125 -397 
L 1875 -397 
L 1875 -844 
L 550 -844 
L 550 4863 
z
" transform="scale(0.015625)"/>
      <path id="DejaVuSans-37" d="M 525 4666 
L 3525 4666 
L 3525 4397 
L 1831 0 
L 1172 0 
L 2766 4134 
L 525 4134 
L 525 4666 
z
" transform="scale(0.015625)"/>
      <path id="DejaVuSans-2c" d="M 750 794 
L 1409 794 
L 1409 256 
L 897 -744 
L 494 -744 
L 750 256 
L 750 794 
z
" transform="scale(0.015625)"/>
      <path id="DejaVuSans-33" d="M 2597 2516 
Q 3050 2419 3304 2112 
Q 3559 1806 3559 1356 
Q 3559 666 3084 287 
Q 2609 -91 1734 -91 
Q 1441 -91 1130 -33 
Q 819 25 488 141 
L 488 750 
Q 750 597 1062 519 
Q 1375 441 1716 441 
Q 2309 441 2620 675 
Q 2931 909 2931 1356 
Q 2931 1769 2642 2001 
Q 2353 2234 1838 2234 
L 1294 2234 
L 1294 2753 
L 1863 2753 
Q 2328 2753 2575 2939 
Q 2822 3125 2822 3475 
Q 2822 3834 2567 4026 
Q 2313 4219 1838 4219 
Q 1578 4219 1281 4162 
Q 984 4106 628 3988 
L 628 4550 
Q 988 4650 1302 4700 
Q 1616 4750 1894 4750 
Q 2613 4750 3031 4423 
Q 3450 4097 3450 3541 
Q 3450 3153 3228 2886 
Q 3006 2619 2597 2516 
z
" transform="scale(0.015625)"/>
      <path id="DejaVuSans-5d" d="M 1947 4863 
L 1947 -844 
L 622 -844 
L 622 -397 
L 1369 -397 
L 1369 4416 
L 622 4416 
L 622 4863 
L 1947 4863 
z
" transform="scale(0.015625)"/>
      <path id="DejaVuSans-43" d="M 4122 4306 
L 4122 3641 
Q 3803 3938 3442 4084 
Q 3081 4231 2675 4231 
Q 1875 4231 1450 3742 
Q 1025 3253 1025 2328 
Q 1025 1406 1450 917 
Q 1875 428 2675 428 
Q 3081 428 3442 575 
Q 3803 722 4122 1019 
L 4122 359 
Q 3791 134 3420 21 
Q 3050 -91 2638 -91 
Q 1578 -91 968 557 
Q 359 1206 359 2328 
Q 359 3453 968 4101 
Q 1578 4750 2638 4750 
Q 3056 4750 3426 4639 
Q 3797 4528 4122 4306 
z
" transform="scale(0.015625)"/>
      <path id="DejaVuSans-75" d="M 544 1381 
L 544 3500 
L 1119 3500 
L 1119 1403 
Q 1119 906 1312 657 
Q 1506 409 1894 409 
Q 2359 409 2629 706 
Q 2900 1003 2900 1516 
L 2900 3500 
L 3475 3500 
L 3475 0 
L 2900 0 
L 2900 538 
Q 2691 219 2414 64 
Q 2138 -91 1772 -91 
Q 1169 -91 856 284 
Q 544 659 544 1381 
z
M 1991 3584 
L 1991 3584 
z
" transform="scale(0.015625)"/>
      <path id="DejaVuSans-74" d="M 1172 4494 
L 1172 3500 
L 2356 3500 
L 2356 3053 
L 1172 3053 
L 1172 1153 
Q 1172 725 1289 603 
Q 1406 481 1766 481 
L 2356 481 
L 2356 0 
L 1766 0 
Q 1100 0 847 248 
Q 594 497 594 1153 
L 594 3053 
L 172 3053 
L 172 3500 
L 594 3500 
L 594 4494 
L 1172 4494 
z
" transform="scale(0.015625)"/>
     </defs>
     <use xlink:href="#DejaVuSans-5b"/>
     <use xlink:href="#DejaVuSans-5b" x="39.013672"/>
     <use xlink:href="#DejaVuSans-37" x="78.027344"/>
     <use xlink:href="#DejaVuSans-2c" x="141.650391"/>
     <use xlink:href="#DejaVuSans-20" x="173.4375"/>
     <use xlink:href="#DejaVuSans-31" x="205.224609"/>
     <use xlink:href="#DejaVuSans-2c" x="268.847656"/>
     <use xlink:href="#DejaVuSans-20" x="300.634766"/>
     <use xlink:href="#DejaVuSans-33" x="332.421875"/>
     <use xlink:href="#DejaVuSans-5d" x="396.044922"/>
     <use xlink:href="#DejaVuSans-5d" x="435.058594"/>
     <use xlink:href="#DejaVuSans-20" x="474.072266"/>
     <use xlink:href="#DejaVuSans-43" x="505.859375"/>
     <use xlink:href="#DejaVuSans-69" x="575.683594"/>
     <use xlink:href="#DejaVuSans-72" x="603.466797"/>
     <use xlink:href="#DejaVuSans-63" x="642.330078"/>
     <use xlink:href="#DejaVuSans-75" x="697.310547"/>
     <use xlink:href="#DejaVuSans-69" x="760.689453"/>
     <use xlink:href="#DejaVuSans-74" x="788.472656"/>
    </g>
   </g>
   <g id="legend_1">
    <g id="patch_7">
     <path d="M 213.195938 291.54825 
L 410.130938 291.54825 
Q 412.530938 291.54825 412.530938 289.14825 
L 412.530938 167.052 
Q 412.530938 164.652 410.130938 164.652 
L 213.195938 164.652 
Q 210.795938 164.652 210.795938 167.052 
L 210.795938 289.14825 
Q 210.795938 291.54825 213.195938 291.54825 
z
" style="fill: #ffffff; opacity: 0.8; stroke: #cccccc; stroke-linejoin: miter"/>
    </g>
    <g id="line2d_33">
     <path d="M 215.595938 174.370125 
L 227.595938 174.370125 
L 239.595938 174.370125 
" style="fill: none; stroke: #ff7f0e; stroke-width: 1.5; stroke-linecap: square"/>
    </g>
    <g id="text_16">
     <!-- 0 round -->
     <g transform="translate(249.195938 178.570125) scale(0.12 -0.12)">
      <defs>
       <path id="DejaVuSans-6e" d="M 3513 2113 
L 3513 0 
L 2938 0 
L 2938 2094 
Q 2938 2591 2744 2837 
Q 2550 3084 2163 3084 
Q 1697 3084 1428 2787 
Q 1159 2491 1159 1978 
L 1159 0 
L 581 0 
L 581 3500 
L 1159 3500 
L 1159 2956 
Q 1366 3272 1645 3428 
Q 1925 3584 2291 3584 
Q 2894 3584 3203 3211 
Q 3513 2838 3513 2113 
z
" transform="scale(0.015625)"/>
       <path id="DejaVuSans-64" d="M 2906 2969 
L 2906 4863 
L 3481 4863 
L 3481 0 
L 2906 0 
L 2906 525 
Q 2725 213 2448 61 
Q 2172 -91 1784 -91 
Q 1150 -91 751 415 
Q 353 922 353 1747 
Q 353 2572 751 3078 
Q 1150 3584 1784 3584 
Q 2172 3584 2448 3432 
Q 2725 3281 2906 2969 
z
M 947 1747 
Q 947 1113 1208 752 
Q 1469 391 1925 391 
Q 2381 391 2643 752 
Q 2906 1113 2906 1747 
Q 2906 2381 2643 2742 
Q 2381 3103 1925 3103 
Q 1469 3103 1208 2742 
Q 947 2381 947 1747 
z
" transform="scale(0.015625)"/>
      </defs>
      <use xlink:href="#DejaVuSans-30"/>
      <use xlink:href="#DejaVuSans-20" x="63.623047"/>
      <use xlink:href="#DejaVuSans-72" x="95.410156"/>
      <use xlink:href="#DejaVuSans-6f" x="134.273438"/>
      <use xlink:href="#DejaVuSans-75" x="195.455078"/>
      <use xlink:href="#DejaVuSans-6e" x="258.833984"/>
      <use xlink:href="#DejaVuSans-64" x="322.212891"/>
     </g>
    </g>
    <g id="line2d_34">
     <path d="M 215.595938 191.983875 
L 227.595938 191.983875 
L 239.595938 191.983875 
" style="fill: none; stroke: #d62728; stroke-width: 1.5; stroke-linecap: square"/>
    </g>
    <g id="text_17">
     <!-- 1 round -->
     <g transform="translate(249.195938 196.183875) scale(0.12 -0.12)">
      <use xlink:href="#DejaVuSans-31"/>
      <use xlink:href="#DejaVuSans-20" x="63.623047"/>
      <use xlink:href="#DejaVuSans-72" x="95.410156"/>
      <use xlink:href="#DejaVuSans-6f" x="134.273438"/>
      <use xlink:href="#DejaVuSans-75" x="195.455078"/>
      <use xlink:href="#DejaVuSans-6e" x="258.833984"/>
      <use xlink:href="#DejaVuSans-64" x="322.212891"/>
     </g>
    </g>
    <g id="line2d_35">
     <path d="M 215.595938 209.597625 
L 227.595938 209.597625 
L 239.595938 209.597625 
" style="fill: none; stroke: #9467bd; stroke-width: 1.5; stroke-linecap: square"/>
    </g>
    <g id="text_18">
     <!-- 1 round (measure error) -->
     <g transform="translate(249.195938 213.797625) scale(0.12 -0.12)">
      <defs>
       <path id="DejaVuSans-28" d="M 1984 4856 
Q 1566 4138 1362 3434 
Q 1159 2731 1159 2009 
Q 1159 1288 1364 580 
Q 1569 -128 1984 -844 
L 1484 -844 
Q 1016 -109 783 600 
Q 550 1309 550 2009 
Q 550 2706 781 3412 
Q 1013 4119 1484 4856 
L 1984 4856 
z
" transform="scale(0.015625)"/>
       <path id="DejaVuSans-6d" d="M 3328 2828 
Q 3544 3216 3844 3400 
Q 4144 3584 4550 3584 
Q 5097 3584 5394 3201 
Q 5691 2819 5691 2113 
L 5691 0 
L 5113 0 
L 5113 2094 
Q 5113 2597 4934 2840 
Q 4756 3084 4391 3084 
Q 3944 3084 3684 2787 
Q 3425 2491 3425 1978 
L 3425 0 
L 2847 0 
L 2847 2094 
Q 2847 2600 2669 2842 
Q 2491 3084 2119 3084 
Q 1678 3084 1418 2786 
Q 1159 2488 1159 1978 
L 1159 0 
L 581 0 
L 581 3500 
L 1159 3500 
L 1159 2956 
Q 1356 3278 1631 3431 
Q 1906 3584 2284 3584 
Q 2666 3584 2933 3390 
Q 3200 3197 3328 2828 
z
" transform="scale(0.015625)"/>
       <path id="DejaVuSans-65" d="M 3597 1894 
L 3597 1613 
L 953 1613 
Q 991 1019 1311 708 
Q 1631 397 2203 397 
Q 2534 397 2845 478 
Q 3156 559 3463 722 
L 3463 178 
Q 3153 47 2828 -22 
Q 2503 -91 2169 -91 
Q 1331 -91 842 396 
Q 353 884 353 1716 
Q 353 2575 817 3079 
Q 1281 3584 2069 3584 
Q 2775 3584 3186 3129 
Q 3597 2675 3597 1894 
z
M 3022 2063 
Q 3016 2534 2758 2815 
Q 2500 3097 2075 3097 
Q 1594 3097 1305 2825 
Q 1016 2553 972 2059 
L 3022 2063 
z
" transform="scale(0.015625)"/>
       <path id="DejaVuSans-29" d="M 513 4856 
L 1013 4856 
Q 1481 4119 1714 3412 
Q 1947 2706 1947 2009 
Q 1947 1309 1714 600 
Q 1481 -109 1013 -844 
L 513 -844 
Q 928 -128 1133 580 
Q 1338 1288 1338 2009 
Q 1338 2731 1133 3434 
Q 928 4138 513 4856 
z
" transform="scale(0.015625)"/>
      </defs>
      <use xlink:href="#DejaVuSans-31"/>
      <use xlink:href="#DejaVuSans-20" x="63.623047"/>
      <use xlink:href="#DejaVuSans-72" x="95.410156"/>
      <use xlink:href="#DejaVuSans-6f" x="134.273438"/>
      <use xlink:href="#DejaVuSans-75" x="195.455078"/>
      <use xlink:href="#DejaVuSans-6e" x="258.833984"/>
      <use xlink:href="#DejaVuSans-64" x="322.212891"/>
      <use xlink:href="#DejaVuSans-20" x="385.689453"/>
      <use xlink:href="#DejaVuSans-28" x="417.476562"/>
      <use xlink:href="#DejaVuSans-6d" x="456.490234"/>
      <use xlink:href="#DejaVuSans-65" x="553.902344"/>
      <use xlink:href="#DejaVuSans-61" x="615.425781"/>
      <use xlink:href="#DejaVuSans-73" x="676.705078"/>
      <use xlink:href="#DejaVuSans-75" x="728.804688"/>
      <use xlink:href="#DejaVuSans-72" x="792.183594"/>
      <use xlink:href="#DejaVuSans-65" x="831.046875"/>
      <use xlink:href="#DejaVuSans-20" x="892.570312"/>
      <use xlink:href="#DejaVuSans-65" x="924.357422"/>
      <use xlink:href="#DejaVuSans-72" x="985.880859"/>
      <use xlink:href="#DejaVuSans-72" x="1025.244141"/>
      <use xlink:href="#DejaVuSans-6f" x="1064.107422"/>
      <use xlink:href="#DejaVuSans-72" x="1125.289062"/>
      <use xlink:href="#DejaVuSans-29" x="1166.402344"/>
     </g>
    </g>
    <g id="line2d_36">
     <path d="M 215.595938 227.211375 
L 227.595938 227.211375 
L 239.595938 227.211375 
" style="fill: none; stroke: #8c564b; stroke-width: 1.5; stroke-linecap: square"/>
    </g>
    <g id="text_19">
     <!-- 4 rounds -->
     <g transform="translate(249.195938 231.411375) scale(0.12 -0.12)">
      <use xlink:href="#DejaVuSans-34"/>
      <use xlink:href="#DejaVuSans-20" x="63.623047"/>
      <use xlink:href="#DejaVuSans-72" x="95.410156"/>
      <use xlink:href="#DejaVuSans-6f" x="134.273438"/>
      <use xlink:href="#DejaVuSans-75" x="195.455078"/>
      <use xlink:href="#DejaVuSans-6e" x="258.833984"/>
      <use xlink:href="#DejaVuSans-64" x="322.212891"/>
      <use xlink:href="#DejaVuSans-73" x="385.689453"/>
     </g>
    </g>
    <g id="line2d_37">
     <path d="M 215.595938 244.825125 
L 227.595938 244.825125 
L 239.595938 244.825125 
" style="fill: none; stroke: #e377c2; stroke-width: 1.5; stroke-linecap: square"/>
    </g>
    <g id="text_20">
     <!-- 4 rounds (measure error) -->
     <g transform="translate(249.195938 249.025125) scale(0.12 -0.12)">
      <use xlink:href="#DejaVuSans-34"/>
      <use xlink:href="#DejaVuSans-20" x="63.623047"/>
      <use xlink:href="#DejaVuSans-72" x="95.410156"/>
      <use xlink:href="#DejaVuSans-6f" x="134.273438"/>
      <use xlink:href="#DejaVuSans-75" x="195.455078"/>
      <use xlink:href="#DejaVuSans-6e" x="258.833984"/>
      <use xlink:href="#DejaVuSans-64" x="322.212891"/>
      <use xlink:href="#DejaVuSans-73" x="385.689453"/>
      <use xlink:href="#DejaVuSans-20" x="437.789062"/>
      <use xlink:href="#DejaVuSans-28" x="469.576172"/>
      <use xlink:href="#DejaVuSans-6d" x="508.589844"/>
      <use xlink:href="#DejaVuSans-65" x="606.001953"/>
      <use xlink:href="#DejaVuSans-61" x="667.525391"/>
      <use xlink:href="#DejaVuSans-73" x="728.804688"/>
      <use xlink:href="#DejaVuSans-75" x="780.904297"/>
      <use xlink:href="#DejaVuSans-72" x="844.283203"/>
      <use xlink:href="#DejaVuSans-65" x="883.146484"/>
      <use xlink:href="#DejaVuSans-20" x="944.669922"/>
      <use xlink:href="#DejaVuSans-65" x="976.457031"/>
      <use xlink:href="#DejaVuSans-72" x="1037.980469"/>
      <use xlink:href="#DejaVuSans-72" x="1077.34375"/>
      <use xlink:href="#DejaVuSans-6f" x="1116.207031"/>
      <use xlink:href="#DejaVuSans-72" x="1177.388672"/>
      <use xlink:href="#DejaVuSans-29" x="1218.501953"/>
     </g>
    </g>
    <g id="line2d_38">
     <path d="M 215.595938 262.438875 
L 227.595938 262.438875 
L 239.595938 262.438875 
" style="fill: none; stroke: #7f7f7f; stroke-width: 1.5; stroke-linecap: square"/>
    </g>
    <g id="text_21">
     <!-- 16 rounds -->
     <g transform="translate(249.195938 266.638875) scale(0.12 -0.12)">
      <use xlink:href="#DejaVuSans-31"/>
      <use xlink:href="#DejaVuSans-36" x="63.623047"/>
      <use xlink:href="#DejaVuSans-20" x="127.246094"/>
      <use xlink:href="#DejaVuSans-72" x="159.033203"/>
      <use xlink:href="#DejaVuSans-6f" x="197.896484"/>
      <use xlink:href="#DejaVuSans-75" x="259.078125"/>
      <use xlink:href="#DejaVuSans-6e" x="322.457031"/>
      <use xlink:href="#DejaVuSans-64" x="385.835938"/>
      <use xlink:href="#DejaVuSans-73" x="449.3125"/>
     </g>
    </g>
    <g id="line2d_39">
     <path d="M 215.595938 280.052625 
L 227.595938 280.052625 
L 239.595938 280.052625 
" style="fill: none; stroke: #bcbd22; stroke-width: 1.5; stroke-linecap: square"/>
    </g>
    <g id="text_22">
     <!-- 16 rounds (measure error) -->
     <g transform="translate(249.195938 284.252625) scale(0.12 -0.12)">
      <use xlink:href="#DejaVuSans-31"/>
      <use xlink:href="#DejaVuSans-36" x="63.623047"/>
      <use xlink:href="#DejaVuSans-20" x="127.246094"/>
      <use xlink:href="#DejaVuSans-72" x="159.033203"/>
      <use xlink:href="#DejaVuSans-6f" x="197.896484"/>
      <use xlink:href="#DejaVuSans-75" x="259.078125"/>
      <use xlink:href="#DejaVuSans-6e" x="322.457031"/>
      <use xlink:href="#DejaVuSans-64" x="385.835938"/>
      <use xlink:href="#DejaVuSans-73" x="449.3125"/>
      <use xlink:href="#DejaVuSans-20" x="501.412109"/>
      <use xlink:href="#DejaVuSans-28" x="533.199219"/>
      <use xlink:href="#DejaVuSans-6d" x="572.212891"/>
      <use xlink:href="#DejaVuSans-65" x="669.625"/>
      <use xlink:href="#DejaVuSans-61" x="731.148438"/>
      <use xlink:href="#DejaVuSans-73" x="792.427734"/>
      <use xlink:href="#DejaVuSans-75" x="844.527344"/>
      <use xlink:href="#DejaVuSans-72" x="907.90625"/>
      <use xlink:href="#DejaVuSans-65" x="946.769531"/>
      <use xlink:href="#DejaVuSans-20" x="1008.292969"/>
      <use xlink:href="#DejaVuSans-65" x="1040.080078"/>
      <use xlink:href="#DejaVuSans-72" x="1101.603516"/>
      <use xlink:href="#DejaVuSans-72" x="1140.966797"/>
      <use xlink:href="#DejaVuSans-6f" x="1179.830078"/>
      <use xlink:href="#DejaVuSans-72" x="1241.011719"/>
      <use xlink:href="#DejaVuSans-29" x="1282.125"/>
     </g>
    </g>
   </g>
  </g>
 </g>
 <defs>
  <clipPath id="p37e3121db0">
   <rect x="61.410938" y="31.43625" width="357.12" height="266.112"/>
  </clipPath>
 </defs>
</svg>
