<?xml version="1.0" encoding="utf-8" standalone="no"?>
<!DOCTYPE svg PUBLIC "-//W3C//DTD SVG 1.1//EN"
  "http://www.w3.org/Graphics/SVG/1.1/DTD/svg11.dtd">
<svg xmlns:xlink="http://www.w3.org/1999/xlink" width="435.274687pt" height="349.621687pt" viewBox="0 0 435.274687 349.621687" xmlns="http://www.w3.org/2000/svg" version="1.1">
 <defs>
  <style type="text/css">*{stroke-linejoin: round; stroke-linecap: butt}</style>
 </defs>
 <g id="figure_1">
  <g id="patch_1">
   <path d="M 0 349.621687 
L 435.274687 349.621687 
L 435.274687 0 
L 0 0 
L 0 349.621687 
z
" style="fill: none"/>
  </g>
  <g id="axes_1">
   <g id="patch_2">
    <path d="M 70.954688 297.54825 
L 428.074687 297.54825 
L 428.074687 31.43625 
L 70.954688 31.43625 
L 70.954688 297.54825 
z
" style="fill: none"/>
   </g>
   <g id="matplotlib.axis_1">
    <g id="xtick_1">
     <g id="line2d_1">
      <path d="M 70.954688 297.54825 
L 70.954688 31.43625 
" clip-path="url(#p6037f1dca1)" style="fill: none; stroke: #b0b0b0; stroke-width: 0.8; stroke-linecap: square"/>
     </g>
     <g id="line2d_2">
      <defs>
       <path id="md39032bed2" d="M 0 0 
L 0 3.5 
" style="stroke: #000000; stroke-width: 0.8"/>
      </defs>
      <g>
       <use xlink:href="#md39032bed2" x="70.954688" y="297.54825" style="stroke: #000000; stroke-width: 0.8"/>
      </g>
     </g>
     <g id="text_1">
      <!-- 0.00 -->
      <g transform="translate(54.255469 315.945906) scale(0.15 -0.15)">
       <defs>
        <path id="DejaVuSans-30" d="M 2034 4250 
Q 1547 4250 1301 3770 
Q 1056 3291 1056 2328 
Q 1056 1369 1301 889 
Q 1547 409 2034 409 
Q 2525 409 2770 889 
Q 3016 1369 3016 2328 
Q 3016 3291 2770 3770 
Q 2525 4250 2034 4250 
z
M 2034 4750 
Q 2819 4750 3233 4129 
Q 3647 3509 3647 2328 
Q 3647 1150 3233 529 
Q 2819 -91 2034 -91 
Q 1250 -91 836 529 
Q 422 1150 422 2328 
Q 422 3509 836 4129 
Q 1250 4750 2034 4750 
z
" transform="scale(0.015625)"/>
        <path id="DejaVuSans-2e" d="M 684 794 
L 1344 794 
L 1344 0 
L 684 0 
L 684 794 
z
" transform="scale(0.015625)"/>
       </defs>
       <use xlink:href="#DejaVuSans-30"/>
       <use xlink:href="#DejaVuSans-2e" x="63.623047"/>
       <use xlink:href="#DejaVuSans-30" x="95.410156"/>
       <use xlink:href="#DejaVuSans-30" x="159.033203"/>
      </g>
     </g>
    </g>
    <g id="xtick_2">
     <g id="line2d_3">
      <path d="M 150.314687 297.54825 
L 150.314687 31.43625 
" clip-path="url(#p6037f1dca1)" style="fill: none; stroke: #b0b0b0; stroke-width: 0.8; stroke-linecap: square"/>
     </g>
     <g id="line2d_4">
      <g>
       <use xlink:href="#md39032bed2" x="150.314687" y="297.54825" style="stroke: #000000; stroke-width: 0.8"/>
      </g>
     </g>
     <g id="text_2">
      <!-- 0.02 -->
      <g transform="translate(133.615469 315.945906) scale(0.15 -0.15)">
       <defs>
        <path id="DejaVuSans-32" d="M 1228 531 
L 3431 531 
L 3431 0 
L 469 0 
L 469 531 
Q 828 903 1448 1529 
Q 2069 2156 2228 2338 
Q 2531 2678 2651 2914 
Q 2772 3150 2772 3378 
Q 2772 3750 2511 3984 
Q 2250 4219 1831 4219 
Q 1534 4219 1204 4116 
Q 875 4013 500 3803 
L 500 4441 
Q 881 4594 1212 4672 
Q 1544 4750 1819 4750 
Q 2544 4750 2975 4387 
Q 3406 4025 3406 3419 
Q 3406 3131 3298 2873 
Q 3191 2616 2906 2266 
Q 2828 2175 2409 1742 
Q 1991 1309 1228 531 
z
" transform="scale(0.015625)"/>
       </defs>
       <use xlink:href="#DejaVuSans-30"/>
       <use xlink:href="#DejaVuSans-2e" x="63.623047"/>
       <use xlink:href="#DejaVuSans-30" x="95.410156"/>
       <use xlink:href="#DejaVuSans-32" x="159.033203"/>
      </g>
     </g>
    </g>
    <g id="xtick_3">
     <g id="line2d_5">
      <path d="M 229.674688 297.54825 
L 229.674688 31.43625 
" clip-path="url(#p6037f1dca1)" style="fill: none; stroke: #b0b0b0; stroke-width: 0.8; stroke-linecap: square"/>
     </g>
     <g id="line2d_6">
      <g>
       <use xlink:href="#md39032bed2" x="229.674688" y="297.54825" style="stroke: #000000; stroke-width: 0.8"/>
      </g>
     </g>
     <g id="text_3">
      <!-- 0.04 -->
      <g transform="translate(212.975469 315.945906) scale(0.15 -0.15)">
       <defs>
        <path id="DejaVuSans-34" d="M 2419 4116 
L 825 1625 
L 2419 1625 
L 2419 4116 
z
M 2253 4666 
L 3047 4666 
L 3047 1625 
L 3713 1625 
L 3713 1100 
L 3047 1100 
L 3047 0 
L 2419 0 
L 2419 1100 
L 313 1100 
L 313 1709 
L 2253 4666 
z
" transform="scale(0.015625)"/>
       </defs>
       <use xlink:href="#DejaVuSans-30"/>
       <use xlink:href="#DejaVuSans-2e" x="63.623047"/>
       <use xlink:href="#DejaVuSans-30" x="95.410156"/>
       <use xlink:href="#DejaVuSans-34" x="159.033203"/>
      </g>
     </g>
    </g>
    <g id="xtick_4">
     <g id="line2d_7">
      <path d="M 309.034688 297.54825 
L 309.034688 31.43625 
" clip-path="url(#p6037f1dca1)" style="fill: none; stroke: #b0b0b0; stroke-width: 0.8; stroke-linecap: square"/>
     </g>
     <g id="line2d_8">
      <g>
       <use xlink:href="#md39032bed2" x="309.034688" y="297.54825" style="stroke: #000000; stroke-width: 0.8"/>
      </g>
     </g>
     <g id="text_4">
      <!-- 0.06 -->
      <g transform="translate(292.335469 315.945906) scale(0.15 -0.15)">
       <defs>
        <path id="DejaVuSans-36" d="M 2113 2584 
Q 1688 2584 1439 2293 
Q 1191 2003 1191 1497 
Q 1191 994 1439 701 
Q 1688 409 2113 409 
Q 2538 409 2786 701 
Q 3034 994 3034 1497 
Q 3034 2003 2786 2293 
Q 2538 2584 2113 2584 
z
M 3366 4563 
L 3366 3988 
Q 3128 4100 2886 4159 
Q 2644 4219 2406 4219 
Q 1781 4219 1451 3797 
Q 1122 3375 1075 2522 
Q 1259 2794 1537 2939 
Q 1816 3084 2150 3084 
Q 2853 3084 3261 2657 
Q 3669 2231 3669 1497 
Q 3669 778 3244 343 
Q 2819 -91 2113 -91 
Q 1303 -91 875 529 
Q 447 1150 447 2328 
Q 447 3434 972 4092 
Q 1497 4750 2381 4750 
Q 2619 4750 2861 4703 
Q 3103 4656 3366 4563 
z
" transform="scale(0.015625)"/>
       </defs>
       <use xlink:href="#DejaVuSans-30"/>
       <use xlink:href="#DejaVuSans-2e" x="63.623047"/>
       <use xlink:href="#DejaVuSans-30" x="95.410156"/>
       <use xlink:href="#DejaVuSans-36" x="159.033203"/>
      </g>
     </g>
    </g>
    <g id="xtick_5">
     <g id="line2d_9">
      <path d="M 388.394688 297.54825 
L 388.394688 31.43625 
" clip-path="url(#p6037f1dca1)" style="fill: none; stroke: #b0b0b0; stroke-width: 0.8; stroke-linecap: square"/>
     </g>
     <g id="line2d_10">
      <g>
       <use xlink:href="#md39032bed2" x="388.394688" y="297.54825" style="stroke: #000000; stroke-width: 0.8"/>
      </g>
     </g>
     <g id="text_5">
      <!-- 0.08 -->
      <g transform="translate(371.695469 315.945906) scale(0.15 -0.15)">
       <defs>
        <path id="DejaVuSans-38" d="M 2034 2216 
Q 1584 2216 1326 1975 
Q 1069 1734 1069 1313 
Q 1069 891 1326 650 
Q 1584 409 2034 409 
Q 2484 409 2743 651 
Q 3003 894 3003 1313 
Q 3003 1734 2745 1975 
Q 2488 2216 2034 2216 
z
M 1403 2484 
Q 997 2584 770 2862 
Q 544 3141 544 3541 
Q 544 4100 942 4425 
Q 1341 4750 2034 4750 
Q 2731 4750 3128 4425 
Q 3525 4100 3525 3541 
Q 3525 3141 3298 2862 
Q 3072 2584 2669 2484 
Q 3125 2378 3379 2068 
Q 3634 1759 3634 1313 
Q 3634 634 3220 271 
Q 2806 -91 2034 -91 
Q 1263 -91 848 271 
Q 434 634 434 1313 
Q 434 1759 690 2068 
Q 947 2378 1403 2484 
z
M 1172 3481 
Q 1172 3119 1398 2916 
Q 1625 2713 2034 2713 
Q 2441 2713 2670 2916 
Q 2900 3119 2900 3481 
Q 2900 3844 2670 4047 
Q 2441 4250 2034 4250 
Q 1625 4250 1398 4047 
Q 1172 3844 1172 3481 
z
" transform="scale(0.015625)"/>
       </defs>
       <use xlink:href="#DejaVuSans-30"/>
       <use xlink:href="#DejaVuSans-2e" x="63.623047"/>
       <use xlink:href="#DejaVuSans-30" x="95.410156"/>
       <use xlink:href="#DejaVuSans-38" x="159.033203"/>
      </g>
     </g>
    </g>
    <g id="text_6">
     <!-- Physical Error -->
     <g transform="translate(181.288125 338.262312) scale(0.2 -0.2)">
      <defs>
       <path id="DejaVuSans-50" d="M 1259 4147 
L 1259 2394 
L 2053 2394 
Q 2494 2394 2734 2622 
Q 2975 2850 2975 3272 
Q 2975 3691 2734 3919 
Q 2494 4147 2053 4147 
L 1259 4147 
z
M 628 4666 
L 2053 4666 
Q 2838 4666 3239 4311 
Q 3641 3956 3641 3272 
Q 3641 2581 3239 2228 
Q 2838 1875 2053 1875 
L 1259 1875 
L 1259 0 
L 628 0 
L 628 4666 
z
" transform="scale(0.015625)"/>
       <path id="DejaVuSans-68" d="M 3513 2113 
L 3513 0 
L 2938 0 
L 2938 2094 
Q 2938 2591 2744 2837 
Q 2550 3084 2163 3084 
Q 1697 3084 1428 2787 
Q 1159 2491 1159 1978 
L 1159 0 
L 581 0 
L 581 4863 
L 1159 4863 
L 1159 2956 
Q 1366 3272 1645 3428 
Q 1925 3584 2291 3584 
Q 2894 3584 3203 3211 
Q 3513 2838 3513 2113 
z
" transform="scale(0.015625)"/>
       <path id="DejaVuSans-79" d="M 2059 -325 
Q 1816 -950 1584 -1140 
Q 1353 -1331 966 -1331 
L 506 -1331 
L 506 -850 
L 844 -850 
Q 1081 -850 1212 -737 
Q 1344 -625 1503 -206 
L 1606 56 
L 191 3500 
L 800 3500 
L 1894 763 
L 2988 3500 
L 3597 3500 
L 2059 -325 
z
" transform="scale(0.015625)"/>
       <path id="DejaVuSans-73" d="M 2834 3397 
L 2834 2853 
Q 2591 2978 2328 3040 
Q 2066 3103 1784 3103 
Q 1356 3103 1142 2972 
Q 928 2841 928 2578 
Q 928 2378 1081 2264 
Q 1234 2150 1697 2047 
L 1894 2003 
Q 2506 1872 2764 1633 
Q 3022 1394 3022 966 
Q 3022 478 2636 193 
Q 2250 -91 1575 -91 
Q 1294 -91 989 -36 
Q 684 19 347 128 
L 347 722 
Q 666 556 975 473 
Q 1284 391 1588 391 
Q 1994 391 2212 530 
Q 2431 669 2431 922 
Q 2431 1156 2273 1281 
Q 2116 1406 1581 1522 
L 1381 1569 
Q 847 1681 609 1914 
Q 372 2147 372 2553 
Q 372 3047 722 3315 
Q 1072 3584 1716 3584 
Q 2034 3584 2315 3537 
Q 2597 3491 2834 3397 
z
" transform="scale(0.015625)"/>
       <path id="DejaVuSans-69" d="M 603 3500 
L 1178 3500 
L 1178 0 
L 603 0 
L 603 3500 
z
M 603 4863 
L 1178 4863 
L 1178 4134 
L 603 4134 
L 603 4863 
z
" transform="scale(0.015625)"/>
       <path id="DejaVuSans-63" d="M 3122 3366 
L 3122 2828 
Q 2878 2963 2633 3030 
Q 2388 3097 2138 3097 
Q 1578 3097 1268 2742 
Q 959 2388 959 1747 
Q 959 1106 1268 751 
Q 1578 397 2138 397 
Q 2388 397 2633 464 
Q 2878 531 3122 666 
L 3122 134 
Q 2881 22 2623 -34 
Q 2366 -91 2075 -91 
Q 1284 -91 818 406 
Q 353 903 353 1747 
Q 353 2603 823 3093 
Q 1294 3584 2113 3584 
Q 2378 3584 2631 3529 
Q 2884 3475 3122 3366 
z
" transform="scale(0.015625)"/>
       <path id="DejaVuSans-61" d="M 2194 1759 
Q 1497 1759 1228 1600 
Q 959 1441 959 1056 
Q 959 750 1161 570 
Q 1363 391 1709 391 
Q 2188 391 2477 730 
Q 2766 1069 2766 1631 
L 2766 1759 
L 2194 1759 
z
M 3341 1997 
L 3341 0 
L 2766 0 
L 2766 531 
Q 2569 213 2275 61 
Q 1981 -91 1556 -91 
Q 1019 -91 701 211 
Q 384 513 384 1019 
Q 384 1609 779 1909 
Q 1175 2209 1959 2209 
L 2766 2209 
L 2766 2266 
Q 2766 2663 2505 2880 
Q 2244 3097 1772 3097 
Q 1472 3097 1187 3025 
Q 903 2953 641 2809 
L 641 3341 
Q 956 3463 1253 3523 
Q 1550 3584 1831 3584 
Q 2591 3584 2966 3190 
Q 3341 2797 3341 1997 
z
" transform="scale(0.015625)"/>
       <path id="DejaVuSans-6c" d="M 603 4863 
L 1178 4863 
L 1178 0 
L 603 0 
L 603 4863 
z
" transform="scale(0.015625)"/>
       <path id="DejaVuSans-20" transform="scale(0.015625)"/>
       <path id="DejaVuSans-45" d="M 628 4666 
L 3578 4666 
L 3578 4134 
L 1259 4134 
L 1259 2753 
L 3481 2753 
L 3481 2222 
L 1259 2222 
L 1259 531 
L 3634 531 
L 3634 0 
L 628 0 
L 628 4666 
z
" transform="scale(0.015625)"/>
       <path id="DejaVuSans-72" d="M 2631 2963 
Q 2534 3019 2420 3045 
Q 2306 3072 2169 3072 
Q 1681 3072 1420 2755 
Q 1159 2438 1159 1844 
L 1159 0 
L 581 0 
L 581 3500 
L 1159 3500 
L 1159 2956 
Q 1341 3275 1631 3429 
Q 1922 3584 2338 3584 
Q 2397 3584 2469 3576 
Q 2541 3569 2628 3553 
L 2631 2963 
z
" transform="scale(0.015625)"/>
       <path id="DejaVuSans-6f" d="M 1959 3097 
Q 1497 3097 1228 2736 
Q 959 2375 959 1747 
Q 959 1119 1226 758 
Q 1494 397 1959 397 
Q 2419 397 2687 759 
Q 2956 1122 2956 1747 
Q 2956 2369 2687 2733 
Q 2419 3097 1959 3097 
z
M 1959 3584 
Q 2709 3584 3137 3096 
Q 3566 2609 3566 1747 
Q 3566 888 3137 398 
Q 2709 -91 1959 -91 
Q 1206 -91 779 398 
Q 353 888 353 1747 
Q 353 2609 779 3096 
Q 1206 3584 1959 3584 
z
" transform="scale(0.015625)"/>
      </defs>
      <use xlink:href="#DejaVuSans-50"/>
      <use xlink:href="#DejaVuSans-68" x="60.302734"/>
      <use xlink:href="#DejaVuSans-79" x="123.681641"/>
      <use xlink:href="#DejaVuSans-73" x="182.861328"/>
      <use xlink:href="#DejaVuSans-69" x="234.960938"/>
      <use xlink:href="#DejaVuSans-63" x="262.744141"/>
      <use xlink:href="#DejaVuSans-61" x="317.724609"/>
      <use xlink:href="#DejaVuSans-6c" x="379.003906"/>
      <use xlink:href="#DejaVuSans-20" x="406.787109"/>
      <use xlink:href="#DejaVuSans-45" x="438.574219"/>
      <use xlink:href="#DejaVuSans-72" x="501.757812"/>
      <use xlink:href="#DejaVuSans-72" x="541.121094"/>
      <use xlink:href="#DejaVuSans-6f" x="579.984375"/>
      <use xlink:href="#DejaVuSans-72" x="641.166016"/>
     </g>
    </g>
   </g>
   <g id="matplotlib.axis_2">
    <g id="ytick_1">
     <g id="line2d_11">
      <path d="M 70.954688 297.54825 
L 428.074687 297.54825 
" clip-path="url(#p6037f1dca1)" style="fill: none; stroke: #b0b0b0; stroke-width: 0.8; stroke-linecap: square"/>
     </g>
     <g id="line2d_12">
      <defs>
       <path id="m6f3f5b6aff" d="M 0 0 
L -3.5 0 
" style="stroke: #000000; stroke-width: 0.8"/>
      </defs>
      <g>
       <use xlink:href="#m6f3f5b6aff" x="70.954688" y="297.54825" style="stroke: #000000; stroke-width: 0.8"/>
      </g>
     </g>
     <g id="text_7">
      <!-- 0.00 -->
      <g transform="translate(30.55625 303.247078) scale(0.15 -0.15)">
       <use xlink:href="#DejaVuSans-30"/>
       <use xlink:href="#DejaVuSans-2e" x="63.623047"/>
       <use xlink:href="#DejaVuSans-30" x="95.410156"/>
       <use xlink:href="#DejaVuSans-30" x="159.033203"/>
      </g>
     </g>
    </g>
    <g id="ytick_2">
     <g id="line2d_13">
      <path d="M 70.954688 238.41225 
L 428.074687 238.41225 
" clip-path="url(#p6037f1dca1)" style="fill: none; stroke: #b0b0b0; stroke-width: 0.8; stroke-linecap: square"/>
     </g>
     <g id="line2d_14">
      <g>
       <use xlink:href="#m6f3f5b6aff" x="70.954688" y="238.41225" style="stroke: #000000; stroke-width: 0.8"/>
      </g>
     </g>
     <g id="text_8">
      <!-- 0.02 -->
      <g transform="translate(30.55625 244.111078) scale(0.15 -0.15)">
       <use xlink:href="#DejaVuSans-30"/>
       <use xlink:href="#DejaVuSans-2e" x="63.623047"/>
       <use xlink:href="#DejaVuSans-30" x="95.410156"/>
       <use xlink:href="#DejaVuSans-32" x="159.033203"/>
      </g>
     </g>
    </g>
    <g id="ytick_3">
     <g id="line2d_15">
      <path d="M 70.954688 179.27625 
L 428.074687 179.27625 
" clip-path="url(#p6037f1dca1)" style="fill: none; stroke: #b0b0b0; stroke-width: 0.8; stroke-linecap: square"/>
     </g>
     <g id="line2d_16">
      <g>
       <use xlink:href="#m6f3f5b6aff" x="70.954688" y="179.27625" style="stroke: #000000; stroke-width: 0.8"/>
      </g>
     </g>
     <g id="text_9">
      <!-- 0.04 -->
      <g transform="translate(30.55625 184.975078) scale(0.15 -0.15)">
       <use xlink:href="#DejaVuSans-30"/>
       <use xlink:href="#DejaVuSans-2e" x="63.623047"/>
       <use xlink:href="#DejaVuSans-30" x="95.410156"/>
       <use xlink:href="#DejaVuSans-34" x="159.033203"/>
      </g>
     </g>
    </g>
    <g id="ytick_4">
     <g id="line2d_17">
      <path d="M 70.954688 120.14025 
L 428.074687 120.14025 
" clip-path="url(#p6037f1dca1)" style="fill: none; stroke: #b0b0b0; stroke-width: 0.8; stroke-linecap: square"/>
     </g>
     <g id="line2d_18">
      <g>
       <use xlink:href="#m6f3f5b6aff" x="70.954688" y="120.14025" style="stroke: #000000; stroke-width: 0.8"/>
      </g>
     </g>
     <g id="text_10">
      <!-- 0.06 -->
      <g transform="translate(30.55625 125.839078) scale(0.15 -0.15)">
       <use xlink:href="#DejaVuSans-30"/>
       <use xlink:href="#DejaVuSans-2e" x="63.623047"/>
       <use xlink:href="#DejaVuSans-30" x="95.410156"/>
       <use xlink:href="#DejaVuSans-36" x="159.033203"/>
      </g>
     </g>
    </g>
    <g id="ytick_5">
     <g id="line2d_19">
      <path d="M 70.954688 61.00425 
L 428.074687 61.00425 
" clip-path="url(#p6037f1dca1)" style="fill: none; stroke: #b0b0b0; stroke-width: 0.8; stroke-linecap: square"/>
     </g>
     <g id="line2d_20">
      <g>
       <use xlink:href="#m6f3f5b6aff" x="70.954688" y="61.00425" style="stroke: #000000; stroke-width: 0.8"/>
      </g>
     </g>
     <g id="text_11">
      <!-- 0.08 -->
      <g transform="translate(30.55625 66.703078) scale(0.15 -0.15)">
       <use xlink:href="#DejaVuSans-30"/>
       <use xlink:href="#DejaVuSans-2e" x="63.623047"/>
       <use xlink:href="#DejaVuSans-30" x="95.410156"/>
       <use xlink:href="#DejaVuSans-38" x="159.033203"/>
      </g>
     </g>
    </g>
    <g id="text_12">
     <!-- Logical Error -->
     <g transform="translate(22.396875 227.087562) rotate(-90) scale(0.2 -0.2)">
      <defs>
       <path id="DejaVuSans-4c" d="M 628 4666 
L 1259 4666 
L 1259 531 
L 3531 531 
L 3531 0 
L 628 0 
L 628 4666 
z
" transform="scale(0.015625)"/>
       <path id="DejaVuSans-67" d="M 2906 1791 
Q 2906 2416 2648 2759 
Q 2391 3103 1925 3103 
Q 1463 3103 1205 2759 
Q 947 2416 947 1791 
Q 947 1169 1205 825 
Q 1463 481 1925 481 
Q 2391 481 2648 825 
Q 2906 1169 2906 1791 
z
M 3481 434 
Q 3481 -459 3084 -895 
Q 2688 -1331 1869 -1331 
Q 1566 -1331 1297 -1286 
Q 1028 -1241 775 -1147 
L 775 -588 
Q 1028 -725 1275 -790 
Q 1522 -856 1778 -856 
Q 2344 -856 2625 -561 
Q 2906 -266 2906 331 
L 2906 616 
Q 2728 306 2450 153 
Q 2172 0 1784 0 
Q 1141 0 747 490 
Q 353 981 353 1791 
Q 353 2603 747 3093 
Q 1141 3584 1784 3584 
Q 2172 3584 2450 3431 
Q 2728 3278 2906 2969 
L 2906 3500 
L 3481 3500 
L 3481 434 
z
" transform="scale(0.015625)"/>
      </defs>
      <use xlink:href="#DejaVuSans-4c"/>
      <use xlink:href="#DejaVuSans-6f" x="53.962891"/>
      <use xlink:href="#DejaVuSans-67" x="115.144531"/>
      <use xlink:href="#DejaVuSans-69" x="178.621094"/>
      <use xlink:href="#DejaVuSans-63" x="206.404297"/>
      <use xlink:href="#DejaVuSans-61" x="261.384766"/>
      <use xlink:href="#DejaVuSans-6c" x="322.664062"/>
      <use xlink:href="#DejaVuSans-20" x="350.447266"/>
      <use xlink:href="#DejaVuSans-45" x="382.234375"/>
      <use xlink:href="#DejaVuSans-72" x="445.417969"/>
      <use xlink:href="#DejaVuSans-72" x="484.78125"/>
      <use xlink:href="#DejaVuSans-6f" x="523.644531"/>
      <use xlink:href="#DejaVuSans-72" x="584.826172"/>
     </g>
    </g>
   </g>
   <g id="line2d_21">
    <path d="M 70.994368 297.54825 
L 76.796824 297.447323 
L 78.799303 297.361688 
L 82.504413 297.155871 
L 84.09397 297.036278 
L 86.75158 296.81352 
L 89.600086 296.498587 
L 92.560553 296.132673 
L 94.21265 295.939305 
L 99.966286 295.064611 
L 101.614653 294.701152 
L 106.482761 293.794874 
L 109.910446 292.925925 
L 112.889206 292.2548 
L 121.371068 290.233225 
L 122.308378 289.805649 
L 126.235149 288.616896 
L 128.309738 287.96913 
L 129.376048 287.818505 
L 130.462182 287.180599 
L 133.843249 286.056753 
L 136.203357 285.202177 
L 137.416421 284.665221 
L 141.192611 283.293526 
L 143.828529 282.267069 
L 145.183355 281.628472 
L 146.563369 281.18793 
L 147.969039 280.478436 
L 149.400843 279.998213 
L 150.859266 279.228819 
L 152.344803 278.727727 
L 155.399245 277.11847 
L 156.969186 276.543298 
L 160.197174 274.96856 
L 161.856316 273.852791 
L 163.546303 273.422058 
L 165.26771 272.329597 
L 167.02112 271.609363 
L 168.807128 270.560699 
L 172.479375 268.810548 
L 174.36686 267.627355 
L 176.289436 266.582856 
L 178.247755 265.24668 
L 180.242482 264.33732 
L 184.34388 261.810671 
L 186.451943 260.172295 
L 188.599197 259.303052 
L 193.014209 256.348384 
L 195.283465 255.190397 
L 197.59491 253.316505 
L 199.949327 252.109654 
L 207.278481 246.940325 
L 209.81293 244.749094 
L 217.702509 239.556179 
L 220.430755 236.995252 
L 223.209723 235.228271 
L 226.040355 233.291201 
L 228.923613 231.099179 
L 231.860474 228.078357 
L 234.851936 226.01738 
L 237.899014 223.431509 
L 241.00274 221.365789 
L 244.16417 218.540142 
L 247.384374 215.498633 
L 250.664447 212.923461 
L 254.005501 209.768444 
L 257.40867 206.975126 
L 260.875108 203.64102 
L 264.405992 200.978316 
L 271.665913 194.128923 
L 275.397414 189.912102 
L 279.198288 186.727163 
L 283.069825 182.894224 
L 287.01334 179.5637 
L 291.03017 174.490626 
L 295.121679 170.94112 
L 299.289255 166.725452 
L 303.534311 161.750964 
L 307.858289 157.821636 
L 316.748906 147.480221 
L 321.318562 143.190523 
L 325.973174 138.175749 
L 330.714321 132.887451 
L 335.543614 126.71916 
L 340.462689 121.422214 
L 345.473217 115.838376 
L 350.576897 109.740986 
L 355.775462 103.827838 
L 361.070676 97.092071 
L 366.464335 91.174953 
L 371.958269 83.841564 
L 377.554344 76.825367 
L 389.060543 63.000791 
L 394.974572 55.482992 
L 400.998552 47.163143 
L 407.134525 38.229706 
L 413.384575 30.146764 
L 426.235426 14.772714 
L 436.274687 0.003103 
L 436.274687 0.003103 
" clip-path="url(#p6037f1dca1)" style="fill: none; stroke: #ff7f0e; stroke-width: 1.5; stroke-linecap: square"/>
   </g>
   <g id="line2d_22">
    <path d="M 70.994368 297.548193 
L 73.600577 297.143398 
L 76.482734 295.835798 
L 76.796824 295.582683 
L 77.128759 295.413352 
L 78.799303 294.080803 
L 79.399143 293.556269 
L 82.504413 290.274139 
L 82.937856 289.604115 
L 84.09397 288.067945 
L 85.098668 286.574955 
L 85.361625 286.349082 
L 86.463254 284.538317 
L 88.275636 281.550095 
L 88.597656 280.676321 
L 88.925663 280.288226 
L 91.02581 276.105584 
L 92.166201 273.792472 
L 93.371387 271.155177 
L 93.788144 270.363867 
L 94.21265 269.129198 
L 95.085484 267.163179 
L 97.41358 261.594981 
L 99.436765 256.364405 
L 99.966286 254.604602 
L 101.055046 251.790712 
L 102.765273 246.781492 
L 108.501378 228.772263 
L 112.889206 213.231047 
L 113.668827 210.158266 
L 114.462942 207.729142 
L 115.271821 204.59993 
L 116.095738 201.941467 
L 118.66054 191.698851 
L 119.547458 188.400039 
L 120.450865 184.340463 
L 121.371068 180.899429 
L 122.308378 176.628173 
L 125.226167 164.751742 
L 126.235149 160.231613 
L 127.26289 156.161051 
L 128.309738 150.979572 
L 129.376048 146.650987 
L 130.462182 141.113569 
L 135.012435 120.882004 
L 137.416421 108.567572 
L 138.652037 103.664179 
L 143.828529 77.511594 
L 145.183355 70.214877 
L 147.969039 56.856835 
L 149.400843 48.313745 
L 150.859266 40.755459 
L 152.344803 34.667665 
L 153.857958 24.905384 
L 156.969186 8.976934 
L 158.769366 -1 
L 158.769366 -1 
" clip-path="url(#p6037f1dca1)" style="fill: none; stroke: #d62728; stroke-width: 1.5; stroke-linecap: square"/>
   </g>
   <g id="line2d_23">
    <path d="M 70.994368 297.548136 
L 71.951404 297.473527 
L 73.367767 297.115113 
L 74.194886 296.787197 
L 76.090057 295.652006 
L 76.482734 295.310729 
L 76.690193 295.217495 
L 77.128759 294.777652 
L 77.479554 294.511232 
L 78.109062 293.866741 
L 78.242072 293.837718 
L 78.515556 293.455781 
L 80.739932 290.787384 
L 83.16064 287.169703 
L 83.61871 286.291875 
L 83.854151 286.00481 
L 84.338248 285.107632 
L 85.098668 283.794056 
L 89.259769 274.976544 
L 92.166201 267.661875 
L 94.21265 261.838861 
L 94.645048 261.001284 
L 99.966286 244.07865 
L 101.614653 237.960268 
L 102.765273 234.347629 
L 103.356676 231.778074 
L 103.959074 229.725432 
L 104.572671 227.091277 
L 105.197676 225.064225 
L 105.834301 222.313991 
L 106.482761 220.007642 
L 107.143278 217.066425 
L 107.816074 214.720561 
L 109.910446 205.665021 
L 112.123815 196.534808 
L 118.66054 166.51666 
L 119.547458 161.755179 
L 120.450865 158.061397 
L 122.308378 148.801003 
L 123.263115 143.324126 
L 125.226167 133.736642 
L 126.235149 127.594789 
L 128.309738 117.520453 
L 136.203357 73.80663 
L 137.416421 66.403444 
L 138.652037 60.170837 
L 139.910624 52.590117 
L 141.192611 45.649965 
L 142.498431 37.136354 
L 145.183355 21.754552 
L 146.563369 12.779033 
L 147.969039 4.736642 
L 148.856647 -1 
L 148.856647 -1 
" clip-path="url(#p6037f1dca1)" style="fill: none; stroke: #9467bd; stroke-width: 1.5; stroke-linecap: square"/>
   </g>
   <g id="line2d_24">
    <path d="M 70.994368 297.547946 
L 71.449649 297.474211 
L 71.631661 297.417346 
L 71.897818 297.284119 
L 73.115274 296.167562 
L 74.442649 294.030815 
L 74.850263 293.109045 
L 74.922688 293.045508 
L 75.226101 292.273382 
L 75.813965 290.786997 
L 77.97848 283.601997 
L 78.799303 280.211749 
L 79.093699 279.102142 
L 80.739932 271.160455 
L 81.883467 265.008094 
L 82.293607 262.849372 
L 85.361625 242.688922 
L 88.275636 220.224734 
L 90.659471 199.55511 
L 91.39896 192.745461 
L 92.166201 185.979323 
L 93.788144 169.835212 
L 94.21265 164.914146 
L 95.085484 156.796904 
L 95.534109 152.629743 
L 96.930651 136.308673 
L 97.905488 127.159723 
L 98.40654 119.827153 
L 98.916908 114.68335 
L 99.966286 102.660581 
L 101.055046 89.825338 
L 105.834301 31.169008 
L 107.816074 5.448802 
L 108.359173 -1 
L 108.359173 -1 
" clip-path="url(#p6037f1dca1)" style="fill: none; stroke: #8c564b; stroke-width: 1.5; stroke-linecap: square"/>
   </g>
   <g id="line2d_25">
    <path d="M 70.994368 297.547337 
L 71.205051 297.522447 
L 71.497402 297.418942 
L 71.595265 297.378263 
L 71.799133 297.233204 
L 71.951404 297.135423 
L 72.244634 296.846501 
L 72.369086 296.706441 
L 73.155442 295.512156 
L 74.442649 292.543726 
L 75.226101 290.00325 
L 75.386401 289.446443 
L 76.585508 284.505581 
L 76.796824 283.687973 
L 78.945145 272.475469 
L 79.878936 266.320514 
L 80.739932 260.437333 
L 83.387565 239.39115 
L 87.64912 197.499755 
L 91.779048 149.381064 
L 97.41358 73.005797 
L 101.614653 10.067835 
L 102.329637 -1 
L 102.329637 -1 
" clip-path="url(#p6037f1dca1)" style="fill: none; stroke: #e377c2; stroke-width: 1.5; stroke-linecap: square"/>
   </g>
   <g id="line2d_26">
    <path d="M 70.994368 297.546766 
L 71.487497 297.197344 
L 71.799133 296.653146 
L 71.988809 296.229082 
L 72.197975 295.595777 
L 72.751785 293.620927 
L 73.037124 292.101088 
L 73.115274 291.684818 
L 73.855847 287.262065 
L 74.255126 284.195384 
L 74.442649 282.758557 
L 76.18553 264.738073 
L 78.656123 229.070297 
L 81.883467 164.475581 
L 83.16064 135.253735 
L 83.854151 116.890816 
L 84.338248 104.939947 
L 87.64912 12.437548 
L 88.097266 -1 
L 88.097266 -1 
" clip-path="url(#p6037f1dca1)" style="fill: none; stroke: #7f7f7f; stroke-width: 1.5; stroke-linecap: square"/>
   </g>
   <g id="line2d_27">
    <path d="M 70.994368 297.544826 
L 71.127897 297.499841 
L 71.303484 297.312726 
L 71.487497 297.02921 
L 71.880604 295.990129 
L 72.088579 295.198591 
L 72.505544 293.168433 
L 72.9618 290.271713 
L 73.238033 288.148074 
L 74.442649 276.14434 
L 74.850263 270.753562 
L 75.904305 255.198038 
L 76.282779 248.549693 
L 77.01607 234.67534 
L 78.656123 199.301699 
L 79.556137 176.622346 
L 80.213849 158.953481 
L 84.09397 37.211125 
L 85.152285 -1 
L 85.152285 -1 
" clip-path="url(#p6037f1dca1)" style="fill: none; stroke: #bcbd22; stroke-width: 1.5; stroke-linecap: square"/>
   </g>
   <g id="line2d_28">
    <path d="M 70.994368 297.518682 
L 436.274687 25.325927 
L 436.274687 25.325927 
" clip-path="url(#p6037f1dca1)" style="fill: none; stroke-dasharray: 5.55,2.4; stroke-dashoffset: 0; stroke: #1f77b4; stroke-width: 1.5"/>
   </g>
   <g id="patch_3">
    <path d="M 70.954688 297.54825 
L 70.954688 31.43625 
" style="fill: none; stroke: #000000; stroke-width: 0.8; stroke-linejoin: miter; stroke-linecap: square"/>
   </g>
   <g id="patch_4">
    <path d="M 428.074687 297.54825 
L 428.074687 31.43625 
" style="fill: none; stroke: #000000; stroke-width: 0.8; stroke-linejoin: miter; stroke-linecap: square"/>
   </g>
   <g id="patch_5">
    <path d="M 70.954688 297.54825 
L 428.074687 297.54825 
" style="fill: none; stroke: #000000; stroke-width: 0.8; stroke-linejoin: miter; stroke-linecap: square"/>
   </g>
   <g id="patch_6">
    <path d="M 70.954688 31.43625 
L 428.074687 31.43625 
" style="fill: none; stroke: #000000; stroke-width: 0.8; stroke-linejoin: miter; stroke-linecap: square"/>
   </g>
   <g id="text_13">
    <!-- [[7, 1, 3]] Circuit -->
    <g transform="translate(150.195938 25.43625) scale(0.24 -0.24)">
     <defs>
      <path id="DejaVuSans-5b" d="M 550 4863 
L 1875 4863 
L 1875 4416 
L 1125 4416 
L 1125 -397 
L 1875 -397 
L 1875 -844 
L 550 -844 
L 550 4863 
z
" transform="scale(0.015625)"/>
      <path id="DejaVuSans-37" d="M 525 4666 
L 3525 4666 
L 3525 4397 
L 1831 0 
L 1172 0 
L 2766 4134 
L 525 4134 
L 525 4666 
z
" transform="scale(0.015625)"/>
      <path id="DejaVuSans-2c" d="M 750 794 
L 1409 794 
L 1409 256 
L 897 -744 
L 494 -744 
L 750 256 
L 750 794 
z
" transform="scale(0.015625)"/>
      <path id="DejaVuSans-31" d="M 794 531 
L 1825 531 
L 1825 4091 
L 703 3866 
L 703 4441 
L 1819 4666 
L 2450 4666 
L 2450 531 
L 3481 531 
L 3481 0 
L 794 0 
L 794 531 
z
" transform="scale(0.015625)"/>
      <path id="DejaVuSans-33" d="M 2597 2516 
Q 3050 2419 3304 2112 
Q 3559 1806 3559 1356 
Q 3559 666 3084 287 
Q 2609 -91 1734 -91 
Q 1441 -91 1130 -33 
Q 819 25 488 141 
L 488 750 
Q 750 597 1062 519 
Q 1375 441 1716 441 
Q 2309 441 2620 675 
Q 2931 909 2931 1356 
Q 2931 1769 2642 2001 
Q 2353 2234 1838 2234 
L 1294 2234 
L 1294 2753 
L 1863 2753 
Q 2328 2753 2575 2939 
Q 2822 3125 2822 3475 
Q 2822 3834 2567 4026 
Q 2313 4219 1838 4219 
Q 1578 4219 1281 4162 
Q 984 4106 628 3988 
L 628 4550 
Q 988 4650 1302 4700 
Q 1616 4750 1894 4750 
Q 2613 4750 3031 4423 
Q 3450 4097 3450 3541 
Q 3450 3153 3228 2886 
Q 3006 2619 2597 2516 
z
" transform="scale(0.015625)"/>
      <path id="DejaVuSans-5d" d="M 1947 4863 
L 1947 -844 
L 622 -844 
L 622 -397 
L 1369 -397 
L 1369 4416 
L 622 4416 
L 622 4863 
L 1947 4863 
z
" transform="scale(0.015625)"/>
      <path id="DejaVuSans-43" d="M 4122 4306 
L 4122 3641 
Q 3803 3938 3442 4084 
Q 3081 4231 2675 4231 
Q 1875 4231 1450 3742 
Q 1025 3253 1025 2328 
Q 1025 1406 1450 917 
Q 1875 428 2675 428 
Q 3081 428 3442 575 
Q 3803 722 4122 1019 
L 4122 359 
Q 3791 134 3420 21 
Q 3050 -91 2638 -91 
Q 1578 -91 968 557 
Q 359 1206 359 2328 
Q 359 3453 968 4101 
Q 1578 4750 2638 4750 
Q 3056 4750 3426 4639 
Q 3797 4528 4122 4306 
z
" transform="scale(0.015625)"/>
      <path id="DejaVuSans-75" d="M 544 1381 
L 544 3500 
L 1119 3500 
L 1119 1403 
Q 1119 906 1312 657 
Q 1506 409 1894 409 
Q 2359 409 2629 706 
Q 2900 1003 2900 1516 
L 2900 3500 
L 3475 3500 
L 3475 0 
L 2900 0 
L 2900 538 
Q 2691 219 2414 64 
Q 2138 -91 1772 -91 
Q 1169 -91 856 284 
Q 544 659 544 1381 
z
M 1991 3584 
L 1991 3584 
z
" transform="scale(0.015625)"/>
      <path id="DejaVuSans-74" d="M 1172 4494 
L 1172 3500 
L 2356 3500 
L 2356 3053 
L 1172 3053 
L 1172 1153 
Q 1172 725 1289 603 
Q 1406 481 1766 481 
L 2356 481 
L 2356 0 
L 1766 0 
Q 1100 0 847 248 
Q 594 497 594 1153 
L 594 3053 
L 172 3053 
L 172 3500 
L 594 3500 
L 594 4494 
L 1172 4494 
z
" transform="scale(0.015625)"/>
     </defs>
     <use xlink:href="#DejaVuSans-5b"/>
     <use xlink:href="#DejaVuSans-5b" x="39.013672"/>
     <use xlink:href="#DejaVuSans-37" x="78.027344"/>
     <use xlink:href="#DejaVuSans-2c" x="141.650391"/>
     <use xlink:href="#DejaVuSans-20" x="173.4375"/>
     <use xlink:href="#DejaVuSans-31" x="205.224609"/>
     <use xlink:href="#DejaVuSans-2c" x="268.847656"/>
     <use xlink:href="#DejaVuSans-20" x="300.634766"/>
     <use xlink:href="#DejaVuSans-33" x="332.421875"/>
     <use xlink:href="#DejaVuSans-5d" x="396.044922"/>
     <use xlink:href="#DejaVuSans-5d" x="435.058594"/>
     <use xlink:href="#DejaVuSans-20" x="474.072266"/>
     <use xlink:href="#DejaVuSans-43" x="505.859375"/>
     <use xlink:href="#DejaVuSans-69" x="575.683594"/>
     <use xlink:href="#DejaVuSans-72" x="603.466797"/>
     <use xlink:href="#DejaVuSans-63" x="642.330078"/>
     <use xlink:href="#DejaVuSans-75" x="697.310547"/>
     <use xlink:href="#DejaVuSans-69" x="760.689453"/>
     <use xlink:href="#DejaVuSans-74" x="788.472656"/>
    </g>
   </g>
   <g id="legend_1">
    <g id="patch_7">
     <path d="M 222.739688 291.54825 
L 419.674688 291.54825 
Q 422.074687 291.54825 422.074687 289.14825 
L 422.074687 167.052 
Q 422.074687 164.652 419.674688 164.652 
L 222.739688 164.652 
Q 220.339687 164.652 220.339687 167.052 
L 220.339687 289.14825 
Q 220.339687 291.54825 222.739688 291.54825 
z
" style="fill: #ffffff; opacity: 0.8; stroke: #cccccc; stroke-linejoin: miter"/>
    </g>
    <g id="line2d_29">
     <path d="M 225.139688 174.370125 
L 237.139688 174.370125 
L 249.139688 174.370125 
" style="fill: none; stroke: #ff7f0e; stroke-width: 1.5; stroke-linecap: square"/>
    </g>
    <g id="text_14">
     <!-- 0 round -->
     <g transform="translate(258.739688 178.570125) scale(0.12 -0.12)">
      <defs>
       <path id="DejaVuSans-6e" d="M 3513 2113 
L 3513 0 
L 2938 0 
L 2938 2094 
Q 2938 2591 2744 2837 
Q 2550 3084 2163 3084 
Q 1697 3084 1428 2787 
Q 1159 2491 1159 1978 
L 1159 0 
L 581 0 
L 581 3500 
L 1159 3500 
L 1159 2956 
Q 1366 3272 1645 3428 
Q 1925 3584 2291 3584 
Q 2894 3584 3203 3211 
Q 3513 2838 3513 2113 
z
" transform="scale(0.015625)"/>
       <path id="DejaVuSans-64" d="M 2906 2969 
L 2906 4863 
L 3481 4863 
L 3481 0 
L 2906 0 
L 2906 525 
Q 2725 213 2448 61 
Q 2172 -91 1784 -91 
Q 1150 -91 751 415 
Q 353 922 353 1747 
Q 353 2572 751 3078 
Q 1150 3584 1784 3584 
Q 2172 3584 2448 3432 
Q 2725 3281 2906 2969 
z
M 947 1747 
Q 947 1113 1208 752 
Q 1469 391 1925 391 
Q 2381 391 2643 752 
Q 2906 1113 2906 1747 
Q 2906 2381 2643 2742 
Q 2381 3103 1925 3103 
Q 1469 3103 1208 2742 
Q 947 2381 947 1747 
z
" transform="scale(0.015625)"/>
      </defs>
      <use xlink:href="#DejaVuSans-30"/>
      <use xlink:href="#DejaVuSans-20" x="63.623047"/>
      <use xlink:href="#DejaVuSans-72" x="95.410156"/>
      <use xlink:href="#DejaVuSans-6f" x="134.273438"/>
      <use xlink:href="#DejaVuSans-75" x="195.455078"/>
      <use xlink:href="#DejaVuSans-6e" x="258.833984"/>
      <use xlink:href="#DejaVuSans-64" x="322.212891"/>
     </g>
    </g>
    <g id="line2d_30">
     <path d="M 225.139688 191.983875 
L 237.139688 191.983875 
L 249.139688 191.983875 
" style="fill: none; stroke: #d62728; stroke-width: 1.5; stroke-linecap: square"/>
    </g>
    <g id="text_15">
     <!-- 1 round -->
     <g transform="translate(258.739688 196.183875) scale(0.12 -0.12)">
      <use xlink:href="#DejaVuSans-31"/>
      <use xlink:href="#DejaVuSans-20" x="63.623047"/>
      <use xlink:href="#DejaVuSans-72" x="95.410156"/>
      <use xlink:href="#DejaVuSans-6f" x="134.273438"/>
      <use xlink:href="#DejaVuSans-75" x="195.455078"/>
      <use xlink:href="#DejaVuSans-6e" x="258.833984"/>
      <use xlink:href="#DejaVuSans-64" x="322.212891"/>
     </g>
    </g>
    <g id="line2d_31">
     <path d="M 225.139688 209.597625 
L 237.139688 209.597625 
L 249.139688 209.597625 
" style="fill: none; stroke: #9467bd; stroke-width: 1.5; stroke-linecap: square"/>
    </g>
    <g id="text_16">
     <!-- 1 round (measure error) -->
     <g transform="translate(258.739688 213.797625) scale(0.12 -0.12)">
      <defs>
       <path id="DejaVuSans-28" d="M 1984 4856 
Q 1566 4138 1362 3434 
Q 1159 2731 1159 2009 
Q 1159 1288 1364 580 
Q 1569 -128 1984 -844 
L 1484 -844 
Q 1016 -109 783 600 
Q 550 1309 550 2009 
Q 550 2706 781 3412 
Q 1013 4119 1484 4856 
L 1984 4856 
z
" transform="scale(0.015625)"/>
       <path id="DejaVuSans-6d" d="M 3328 2828 
Q 3544 3216 3844 3400 
Q 4144 3584 4550 3584 
Q 5097 3584 5394 3201 
Q 5691 2819 5691 2113 
L 5691 0 
L 5113 0 
L 5113 2094 
Q 5113 2597 4934 2840 
Q 4756 3084 4391 3084 
Q 3944 3084 3684 2787 
Q 3425 2491 3425 1978 
L 3425 0 
L 2847 0 
L 2847 2094 
Q 2847 2600 2669 2842 
Q 2491 3084 2119 3084 
Q 1678 3084 1418 2786 
Q 1159 2488 1159 1978 
L 1159 0 
L 581 0 
L 581 3500 
L 1159 3500 
L 1159 2956 
Q 1356 3278 1631 3431 
Q 1906 3584 2284 3584 
Q 2666 3584 2933 3390 
Q 3200 3197 3328 2828 
z
" transform="scale(0.015625)"/>
       <path id="DejaVuSans-65" d="M 3597 1894 
L 3597 1613 
L 953 1613 
Q 991 1019 1311 708 
Q 1631 397 2203 397 
Q 2534 397 2845 478 
Q 3156 559 3463 722 
L 3463 178 
Q 3153 47 2828 -22 
Q 2503 -91 2169 -91 
Q 1331 -91 842 396 
Q 353 884 353 1716 
Q 353 2575 817 3079 
Q 1281 3584 2069 3584 
Q 2775 3584 3186 3129 
Q 3597 2675 3597 1894 
z
M 3022 2063 
Q 3016 2534 2758 2815 
Q 2500 3097 2075 3097 
Q 1594 3097 1305 2825 
Q 1016 2553 972 2059 
L 3022 2063 
z
" transform="scale(0.015625)"/>
       <path id="DejaVuSans-29" d="M 513 4856 
L 1013 4856 
Q 1481 4119 1714 3412 
Q 1947 2706 1947 2009 
Q 1947 1309 1714 600 
Q 1481 -109 1013 -844 
L 513 -844 
Q 928 -128 1133 580 
Q 1338 1288 1338 2009 
Q 1338 2731 1133 3434 
Q 928 4138 513 4856 
z
" transform="scale(0.015625)"/>
      </defs>
      <use xlink:href="#DejaVuSans-31"/>
      <use xlink:href="#DejaVuSans-20" x="63.623047"/>
      <use xlink:href="#DejaVuSans-72" x="95.410156"/>
      <use xlink:href="#DejaVuSans-6f" x="134.273438"/>
      <use xlink:href="#DejaVuSans-75" x="195.455078"/>
      <use xlink:href="#DejaVuSans-6e" x="258.833984"/>
      <use xlink:href="#DejaVuSans-64" x="322.212891"/>
      <use xlink:href="#DejaVuSans-20" x="385.689453"/>
      <use xlink:href="#DejaVuSans-28" x="417.476562"/>
      <use xlink:href="#DejaVuSans-6d" x="456.490234"/>
      <use xlink:href="#DejaVuSans-65" x="553.902344"/>
      <use xlink:href="#DejaVuSans-61" x="615.425781"/>
      <use xlink:href="#DejaVuSans-73" x="676.705078"/>
      <use xlink:href="#DejaVuSans-75" x="728.804688"/>
      <use xlink:href="#DejaVuSans-72" x="792.183594"/>
      <use xlink:href="#DejaVuSans-65" x="831.046875"/>
      <use xlink:href="#DejaVuSans-20" x="892.570312"/>
      <use xlink:href="#DejaVuSans-65" x="924.357422"/>
      <use xlink:href="#DejaVuSans-72" x="985.880859"/>
      <use xlink:href="#DejaVuSans-72" x="1025.244141"/>
      <use xlink:href="#DejaVuSans-6f" x="1064.107422"/>
      <use xlink:href="#DejaVuSans-72" x="1125.289062"/>
      <use xlink:href="#DejaVuSans-29" x="1166.402344"/>
     </g>
    </g>
    <g id="line2d_32">
     <path d="M 225.139688 227.211375 
L 237.139688 227.211375 
L 249.139688 227.211375 
" style="fill: none; stroke: #8c564b; stroke-width: 1.5; stroke-linecap: square"/>
    </g>
    <g id="text_17">
     <!-- 4 rounds -->
     <g transform="translate(258.739688 231.411375) scale(0.12 -0.12)">
      <use xlink:href="#DejaVuSans-34"/>
      <use xlink:href="#DejaVuSans-20" x="63.623047"/>
      <use xlink:href="#DejaVuSans-72" x="95.410156"/>
      <use xlink:href="#DejaVuSans-6f" x="134.273438"/>
      <use xlink:href="#DejaVuSans-75" x="195.455078"/>
      <use xlink:href="#DejaVuSans-6e" x="258.833984"/>
      <use xlink:href="#DejaVuSans-64" x="322.212891"/>
      <use xlink:href="#DejaVuSans-73" x="385.689453"/>
     </g>
    </g>
    <g id="line2d_33">
     <path d="M 225.139688 244.825125 
L 237.139688 244.825125 
L 249.139688 244.825125 
" style="fill: none; stroke: #e377c2; stroke-width: 1.5; stroke-linecap: square"/>
    </g>
    <g id="text_18">
     <!-- 4 rounds (measure error) -->
     <g transform="translate(258.739688 249.025125) scale(0.12 -0.12)">
      <use xlink:href="#DejaVuSans-34"/>
      <use xlink:href="#DejaVuSans-20" x="63.623047"/>
      <use xlink:href="#DejaVuSans-72" x="95.410156"/>
      <use xlink:href="#DejaVuSans-6f" x="134.273438"/>
      <use xlink:href="#DejaVuSans-75" x="195.455078"/>
      <use xlink:href="#DejaVuSans-6e" x="258.833984"/>
      <use xlink:href="#DejaVuSans-64" x="322.212891"/>
      <use xlink:href="#DejaVuSans-73" x="385.689453"/>
      <use xlink:href="#DejaVuSans-20" x="437.789062"/>
      <use xlink:href="#DejaVuSans-28" x="469.576172"/>
      <use xlink:href="#DejaVuSans-6d" x="508.589844"/>
      <use xlink:href="#DejaVuSans-65" x="606.001953"/>
      <use xlink:href="#DejaVuSans-61" x="667.525391"/>
      <use xlink:href="#DejaVuSans-73" x="728.804688"/>
      <use xlink:href="#DejaVuSans-75" x="780.904297"/>
      <use xlink:href="#DejaVuSans-72" x="844.283203"/>
      <use xlink:href="#DejaVuSans-65" x="883.146484"/>
      <use xlink:href="#DejaVuSans-20" x="944.669922"/>
      <use xlink:href="#DejaVuSans-65" x="976.457031"/>
      <use xlink:href="#DejaVuSans-72" x="1037.980469"/>
      <use xlink:href="#DejaVuSans-72" x="1077.34375"/>
      <use xlink:href="#DejaVuSans-6f" x="1116.207031"/>
      <use xlink:href="#DejaVuSans-72" x="1177.388672"/>
      <use xlink:href="#DejaVuSans-29" x="1218.501953"/>
     </g>
    </g>
    <g id="line2d_34">
     <path d="M 225.139688 262.438875 
L 237.139688 262.438875 
L 249.139688 262.438875 
" style="fill: none; stroke: #7f7f7f; stroke-width: 1.5; stroke-linecap: square"/>
    </g>
    <g id="text_19">
     <!-- 16 rounds -->
     <g transform="translate(258.739688 266.638875) scale(0.12 -0.12)">
      <use xlink:href="#DejaVuSans-31"/>
      <use xlink:href="#DejaVuSans-36" x="63.623047"/>
      <use xlink:href="#DejaVuSans-20" x="127.246094"/>
      <use xlink:href="#DejaVuSans-72" x="159.033203"/>
      <use xlink:href="#DejaVuSans-6f" x="197.896484"/>
      <use xlink:href="#DejaVuSans-75" x="259.078125"/>
      <use xlink:href="#DejaVuSans-6e" x="322.457031"/>
      <use xlink:href="#DejaVuSans-64" x="385.835938"/>
      <use xlink:href="#DejaVuSans-73" x="449.3125"/>
     </g>
    </g>
    <g id="line2d_35">
     <path d="M 225.139688 280.052625 
L 237.139688 280.052625 
L 249.139688 280.052625 
" style="fill: none; stroke: #bcbd22; stroke-width: 1.5; stroke-linecap: square"/>
    </g>
    <g id="text_20">
     <!-- 16 rounds (measure error) -->
     <g transform="translate(258.739688 284.252625) scale(0.12 -0.12)">
      <use xlink:href="#DejaVuSans-31"/>
      <use xlink:href="#DejaVuSans-36" x="63.623047"/>
      <use xlink:href="#DejaVuSans-20" x="127.246094"/>
      <use xlink:href="#DejaVuSans-72" x="159.033203"/>
      <use xlink:href="#DejaVuSans-6f" x="197.896484"/>
      <use xlink:href="#DejaVuSans-75" x="259.078125"/>
      <use xlink:href="#DejaVuSans-6e" x="322.457031"/>
      <use xlink:href="#DejaVuSans-64" x="385.835938"/>
      <use xlink:href="#DejaVuSans-73" x="449.3125"/>
      <use xlink:href="#DejaVuSans-20" x="501.412109"/>
      <use xlink:href="#DejaVuSans-28" x="533.199219"/>
      <use xlink:href="#DejaVuSans-6d" x="572.212891"/>
      <use xlink:href="#DejaVuSans-65" x="669.625"/>
      <use xlink:href="#DejaVuSans-61" x="731.148438"/>
      <use xlink:href="#DejaVuSans-73" x="792.427734"/>
      <use xlink:href="#DejaVuSans-75" x="844.527344"/>
      <use xlink:href="#DejaVuSans-72" x="907.90625"/>
      <use xlink:href="#DejaVuSans-65" x="946.769531"/>
      <use xlink:href="#DejaVuSans-20" x="1008.292969"/>
      <use xlink:href="#DejaVuSans-65" x="1040.080078"/>
      <use xlink:href="#DejaVuSans-72" x="1101.603516"/>
      <use xlink:href="#DejaVuSans-72" x="1140.966797"/>
      <use xlink:href="#DejaVuSans-6f" x="1179.830078"/>
      <use xlink:href="#DejaVuSans-72" x="1241.011719"/>
      <use xlink:href="#DejaVuSans-29" x="1282.125"/>
     </g>
    </g>
   </g>
  </g>
 </g>
 <defs>
  <clipPath id="p6037f1dca1">
   <rect x="70.954688" y="31.43625" width="357.12" height="266.112"/>
  </clipPath>
 </defs>
</svg>
