<?xml version="1.0" encoding="utf-8" standalone="no"?>
<!DOCTYPE svg PUBLIC "-//W3C//DTD SVG 1.1//EN"
  "http://www.w3.org/Graphics/SVG/1.1/DTD/svg11.dtd">
<svg xmlns:xlink="http://www.w3.org/1999/xlink" width="882.491406pt" height="315.629687pt" viewBox="0 0 882.491406 315.629687" xmlns="http://www.w3.org/2000/svg" version="1.1">
 <defs>
  <style type="text/css">*{stroke-linejoin: round; stroke-linecap: butt}</style>
 </defs>
 <g id="figure_1">
  <g id="patch_1">
   <path d="M 0 315.629687 
L 882.491406 315.629687 
L 882.491406 0 
L 0 0 
L 0 315.629687 
z
" style="fill: none"/>
  </g>
  <g id="axes_1">
   <g id="patch_2">
    <path d="M 70.954688 263.55625 
L 420.944688 263.55625 
L 420.944688 31.43625 
L 70.954688 31.43625 
L 70.954688 263.55625 
z
" style="fill: none"/>
   </g>
   <g id="matplotlib.axis_1">
    <g id="xtick_1">
     <g id="line2d_1">
      <path d="M 109.842465 263.55625 
L 109.842465 31.43625 
" clip-path="url(#pdd455ddcdd)" style="fill: none; stroke: #b0b0b0; stroke-width: 0.8; stroke-linecap: square"/>
     </g>
     <g id="line2d_2">
      <defs>
       <path id="md39032bed2" d="M 0 0 
L 0 3.5 
" style="stroke: #000000; stroke-width: 0.8"/>
      </defs>
      <g>
       <use xlink:href="#md39032bed2" x="109.842465" y="263.55625" style="stroke: #000000; stroke-width: 0.8"/>
      </g>
     </g>
     <g id="text_1">
      <!-- 256 -->
      <g transform="translate(95.52684 281.953906) scale(0.15 -0.15)">
       <defs>
        <path id="DejaVuSans-32" d="M 1228 531 
L 3431 531 
L 3431 0 
L 469 0 
L 469 531 
Q 828 903 1448 1529 
Q 2069 2156 2228 2338 
Q 2531 2678 2651 2914 
Q 2772 3150 2772 3378 
Q 2772 3750 2511 3984 
Q 2250 4219 1831 4219 
Q 1534 4219 1204 4116 
Q 875 4013 500 3803 
L 500 4441 
Q 881 4594 1212 4672 
Q 1544 4750 1819 4750 
Q 2544 4750 2975 4387 
Q 3406 4025 3406 3419 
Q 3406 3131 3298 2873 
Q 3191 2616 2906 2266 
Q 2828 2175 2409 1742 
Q 1991 1309 1228 531 
z
" transform="scale(0.015625)"/>
        <path id="DejaVuSans-35" d="M 691 4666 
L 3169 4666 
L 3169 4134 
L 1269 4134 
L 1269 2991 
Q 1406 3038 1543 3061 
Q 1681 3084 1819 3084 
Q 2600 3084 3056 2656 
Q 3513 2228 3513 1497 
Q 3513 744 3044 326 
Q 2575 -91 1722 -91 
Q 1428 -91 1123 -41 
Q 819 9 494 109 
L 494 744 
Q 775 591 1075 516 
Q 1375 441 1709 441 
Q 2250 441 2565 725 
Q 2881 1009 2881 1497 
Q 2881 1984 2565 2268 
Q 2250 2553 1709 2553 
Q 1456 2553 1204 2497 
Q 953 2441 691 2322 
L 691 4666 
z
" transform="scale(0.015625)"/>
        <path id="DejaVuSans-36" d="M 2113 2584 
Q 1688 2584 1439 2293 
Q 1191 2003 1191 1497 
Q 1191 994 1439 701 
Q 1688 409 2113 409 
Q 2538 409 2786 701 
Q 3034 994 3034 1497 
Q 3034 2003 2786 2293 
Q 2538 2584 2113 2584 
z
M 3366 4563 
L 3366 3988 
Q 3128 4100 2886 4159 
Q 2644 4219 2406 4219 
Q 1781 4219 1451 3797 
Q 1122 3375 1075 2522 
Q 1259 2794 1537 2939 
Q 1816 3084 2150 3084 
Q 2853 3084 3261 2657 
Q 3669 2231 3669 1497 
Q 3669 778 3244 343 
Q 2819 -91 2113 -91 
Q 1303 -91 875 529 
Q 447 1150 447 2328 
Q 447 3434 972 4092 
Q 1497 4750 2381 4750 
Q 2619 4750 2861 4703 
Q 3103 4656 3366 4563 
z
" transform="scale(0.015625)"/>
       </defs>
       <use xlink:href="#DejaVuSans-32"/>
       <use xlink:href="#DejaVuSans-35" transform="translate(63.623047 0)"/>
       <use xlink:href="#DejaVuSans-36" transform="translate(127.246094 0)"/>
      </g>
     </g>
    </g>
    <g id="xtick_2">
     <g id="line2d_3">
      <path d="M 187.618021 263.55625 
L 187.618021 31.43625 
" clip-path="url(#pdd455ddcdd)" style="fill: none; stroke: #b0b0b0; stroke-width: 0.8; stroke-linecap: square"/>
     </g>
     <g id="line2d_4">
      <g>
       <use xlink:href="#md39032bed2" x="187.618021" y="263.55625" style="stroke: #000000; stroke-width: 0.8"/>
      </g>
     </g>
     <g id="text_2">
      <!-- 1k -->
      <g transform="translate(178.503177 281.953906) scale(0.15 -0.15)">
       <defs>
        <path id="DejaVuSans-31" d="M 794 531 
L 1825 531 
L 1825 4091 
L 703 3866 
L 703 4441 
L 1819 4666 
L 2450 4666 
L 2450 531 
L 3481 531 
L 3481 0 
L 794 0 
L 794 531 
z
" transform="scale(0.015625)"/>
        <path id="DejaVuSans-6b" d="M 581 4863 
L 1159 4863 
L 1159 1991 
L 2875 3500 
L 3609 3500 
L 1753 1863 
L 3688 0 
L 2938 0 
L 1159 1709 
L 1159 0 
L 581 0 
L 581 4863 
z
" transform="scale(0.015625)"/>
       </defs>
       <use xlink:href="#DejaVuSans-31"/>
       <use xlink:href="#DejaVuSans-6b" transform="translate(63.623047 0)"/>
      </g>
     </g>
    </g>
    <g id="xtick_3">
     <g id="line2d_5">
      <path d="M 265.393576 263.55625 
L 265.393576 31.43625 
" clip-path="url(#pdd455ddcdd)" style="fill: none; stroke: #b0b0b0; stroke-width: 0.8; stroke-linecap: square"/>
     </g>
     <g id="line2d_6">
      <g>
       <use xlink:href="#md39032bed2" x="265.393576" y="263.55625" style="stroke: #000000; stroke-width: 0.8"/>
      </g>
     </g>
     <g id="text_3">
      <!-- 4k -->
      <g transform="translate(256.278733 281.953906) scale(0.15 -0.15)">
       <defs>
        <path id="DejaVuSans-34" d="M 2419 4116 
L 825 1625 
L 2419 1625 
L 2419 4116 
z
M 2253 4666 
L 3047 4666 
L 3047 1625 
L 3713 1625 
L 3713 1100 
L 3047 1100 
L 3047 0 
L 2419 0 
L 2419 1100 
L 313 1100 
L 313 1709 
L 2253 4666 
z
" transform="scale(0.015625)"/>
       </defs>
       <use xlink:href="#DejaVuSans-34"/>
       <use xlink:href="#DejaVuSans-6b" transform="translate(63.623047 0)"/>
      </g>
     </g>
    </g>
    <g id="xtick_4">
     <g id="line2d_7">
      <path d="M 343.169132 263.55625 
L 343.169132 31.43625 
" clip-path="url(#pdd455ddcdd)" style="fill: none; stroke: #b0b0b0; stroke-width: 0.8; stroke-linecap: square"/>
     </g>
     <g id="line2d_8">
      <g>
       <use xlink:href="#md39032bed2" x="343.169132" y="263.55625" style="stroke: #000000; stroke-width: 0.8"/>
      </g>
     </g>
     <g id="text_4">
      <!-- 16k -->
      <g transform="translate(329.282413 281.953906) scale(0.15 -0.15)">
       <use xlink:href="#DejaVuSans-31"/>
       <use xlink:href="#DejaVuSans-36" transform="translate(63.623047 0)"/>
       <use xlink:href="#DejaVuSans-6b" transform="translate(127.246094 0)"/>
      </g>
     </g>
    </g>
    <g id="xtick_5">
     <g id="line2d_9">
      <path d="M 420.944688 263.55625 
L 420.944688 31.43625 
" clip-path="url(#pdd455ddcdd)" style="fill: none; stroke: #b0b0b0; stroke-width: 0.8; stroke-linecap: square"/>
     </g>
     <g id="line2d_10">
      <g>
       <use xlink:href="#md39032bed2" x="420.944688" y="263.55625" style="stroke: #000000; stroke-width: 0.8"/>
      </g>
     </g>
     <g id="text_5">
      <!-- 64k -->
      <g transform="translate(407.057969 281.953906) scale(0.15 -0.15)">
       <use xlink:href="#DejaVuSans-36"/>
       <use xlink:href="#DejaVuSans-34" transform="translate(63.623047 0)"/>
       <use xlink:href="#DejaVuSans-6b" transform="translate(127.246094 0)"/>
      </g>
     </g>
    </g>
    <g id="xtick_6">
     <g id="line2d_11">
      <defs>
       <path id="m00e623f56d" d="M 0 0 
L 0 2 
" style="stroke: #000000; stroke-width: 0.6"/>
      </defs>
      <g>
       <use xlink:href="#m00e623f56d" x="148.730243" y="263.55625" style="stroke: #000000; stroke-width: 0.6"/>
      </g>
     </g>
    </g>
    <g id="xtick_7">
     <g id="line2d_12">
      <g>
       <use xlink:href="#m00e623f56d" x="226.505799" y="263.55625" style="stroke: #000000; stroke-width: 0.6"/>
      </g>
     </g>
    </g>
    <g id="xtick_8">
     <g id="line2d_13">
      <g>
       <use xlink:href="#m00e623f56d" x="304.281354" y="263.55625" style="stroke: #000000; stroke-width: 0.6"/>
      </g>
     </g>
    </g>
    <g id="xtick_9">
     <g id="line2d_14">
      <g>
       <use xlink:href="#m00e623f56d" x="382.05691" y="263.55625" style="stroke: #000000; stroke-width: 0.6"/>
      </g>
     </g>
    </g>
    <g id="text_6">
     <!-- Block size (B) -->
     <g transform="translate(178.493438 304.270312) scale(0.2 -0.2)">
      <defs>
       <path id="DejaVuSans-42" d="M 1259 2228 
L 1259 519 
L 2272 519 
Q 2781 519 3026 730 
Q 3272 941 3272 1375 
Q 3272 1813 3026 2020 
Q 2781 2228 2272 2228 
L 1259 2228 
z
M 1259 4147 
L 1259 2741 
L 2194 2741 
Q 2656 2741 2882 2914 
Q 3109 3088 3109 3444 
Q 3109 3797 2882 3972 
Q 2656 4147 2194 4147 
L 1259 4147 
z
M 628 4666 
L 2241 4666 
Q 2963 4666 3353 4366 
Q 3744 4066 3744 3513 
Q 3744 3084 3544 2831 
Q 3344 2578 2956 2516 
Q 3422 2416 3680 2098 
Q 3938 1781 3938 1306 
Q 3938 681 3513 340 
Q 3088 0 2303 0 
L 628 0 
L 628 4666 
z
" transform="scale(0.015625)"/>
       <path id="DejaVuSans-6c" d="M 603 4863 
L 1178 4863 
L 1178 0 
L 603 0 
L 603 4863 
z
" transform="scale(0.015625)"/>
       <path id="DejaVuSans-6f" d="M 1959 3097 
Q 1497 3097 1228 2736 
Q 959 2375 959 1747 
Q 959 1119 1226 758 
Q 1494 397 1959 397 
Q 2419 397 2687 759 
Q 2956 1122 2956 1747 
Q 2956 2369 2687 2733 
Q 2419 3097 1959 3097 
z
M 1959 3584 
Q 2709 3584 3137 3096 
Q 3566 2609 3566 1747 
Q 3566 888 3137 398 
Q 2709 -91 1959 -91 
Q 1206 -91 779 398 
Q 353 888 353 1747 
Q 353 2609 779 3096 
Q 1206 3584 1959 3584 
z
" transform="scale(0.015625)"/>
       <path id="DejaVuSans-63" d="M 3122 3366 
L 3122 2828 
Q 2878 2963 2633 3030 
Q 2388 3097 2138 3097 
Q 1578 3097 1268 2742 
Q 959 2388 959 1747 
Q 959 1106 1268 751 
Q 1578 397 2138 397 
Q 2388 397 2633 464 
Q 2878 531 3122 666 
L 3122 134 
Q 2881 22 2623 -34 
Q 2366 -91 2075 -91 
Q 1284 -91 818 406 
Q 353 903 353 1747 
Q 353 2603 823 3093 
Q 1294 3584 2113 3584 
Q 2378 3584 2631 3529 
Q 2884 3475 3122 3366 
z
" transform="scale(0.015625)"/>
       <path id="DejaVuSans-20" transform="scale(0.015625)"/>
       <path id="DejaVuSans-73" d="M 2834 3397 
L 2834 2853 
Q 2591 2978 2328 3040 
Q 2066 3103 1784 3103 
Q 1356 3103 1142 2972 
Q 928 2841 928 2578 
Q 928 2378 1081 2264 
Q 1234 2150 1697 2047 
L 1894 2003 
Q 2506 1872 2764 1633 
Q 3022 1394 3022 966 
Q 3022 478 2636 193 
Q 2250 -91 1575 -91 
Q 1294 -91 989 -36 
Q 684 19 347 128 
L 347 722 
Q 666 556 975 473 
Q 1284 391 1588 391 
Q 1994 391 2212 530 
Q 2431 669 2431 922 
Q 2431 1156 2273 1281 
Q 2116 1406 1581 1522 
L 1381 1569 
Q 847 1681 609 1914 
Q 372 2147 372 2553 
Q 372 3047 722 3315 
Q 1072 3584 1716 3584 
Q 2034 3584 2315 3537 
Q 2597 3491 2834 3397 
z
" transform="scale(0.015625)"/>
       <path id="DejaVuSans-69" d="M 603 3500 
L 1178 3500 
L 1178 0 
L 603 0 
L 603 3500 
z
M 603 4863 
L 1178 4863 
L 1178 4134 
L 603 4134 
L 603 4863 
z
" transform="scale(0.015625)"/>
       <path id="DejaVuSans-7a" d="M 353 3500 
L 3084 3500 
L 3084 2975 
L 922 459 
L 3084 459 
L 3084 0 
L 275 0 
L 275 525 
L 2438 3041 
L 353 3041 
L 353 3500 
z
" transform="scale(0.015625)"/>
       <path id="DejaVuSans-65" d="M 3597 1894 
L 3597 1613 
L 953 1613 
Q 991 1019 1311 708 
Q 1631 397 2203 397 
Q 2534 397 2845 478 
Q 3156 559 3463 722 
L 3463 178 
Q 3153 47 2828 -22 
Q 2503 -91 2169 -91 
Q 1331 -91 842 396 
Q 353 884 353 1716 
Q 353 2575 817 3079 
Q 1281 3584 2069 3584 
Q 2775 3584 3186 3129 
Q 3597 2675 3597 1894 
z
M 3022 2063 
Q 3016 2534 2758 2815 
Q 2500 3097 2075 3097 
Q 1594 3097 1305 2825 
Q 1016 2553 972 2059 
L 3022 2063 
z
" transform="scale(0.015625)"/>
       <path id="DejaVuSans-28" d="M 1984 4856 
Q 1566 4138 1362 3434 
Q 1159 2731 1159 2009 
Q 1159 1288 1364 580 
Q 1569 -128 1984 -844 
L 1484 -844 
Q 1016 -109 783 600 
Q 550 1309 550 2009 
Q 550 2706 781 3412 
Q 1013 4119 1484 4856 
L 1984 4856 
z
" transform="scale(0.015625)"/>
       <path id="DejaVuSans-29" d="M 513 4856 
L 1013 4856 
Q 1481 4119 1714 3412 
Q 1947 2706 1947 2009 
Q 1947 1309 1714 600 
Q 1481 -109 1013 -844 
L 513 -844 
Q 928 -128 1133 580 
Q 1338 1288 1338 2009 
Q 1338 2731 1133 3434 
Q 928 4138 513 4856 
z
" transform="scale(0.015625)"/>
      </defs>
      <use xlink:href="#DejaVuSans-42"/>
      <use xlink:href="#DejaVuSans-6c" transform="translate(68.603516 0)"/>
      <use xlink:href="#DejaVuSans-6f" transform="translate(96.386719 0)"/>
      <use xlink:href="#DejaVuSans-63" transform="translate(157.568359 0)"/>
      <use xlink:href="#DejaVuSans-6b" transform="translate(212.548828 0)"/>
      <use xlink:href="#DejaVuSans-20" transform="translate(270.458984 0)"/>
      <use xlink:href="#DejaVuSans-73" transform="translate(302.246094 0)"/>
      <use xlink:href="#DejaVuSans-69" transform="translate(354.345703 0)"/>
      <use xlink:href="#DejaVuSans-7a" transform="translate(382.128906 0)"/>
      <use xlink:href="#DejaVuSans-65" transform="translate(434.619141 0)"/>
      <use xlink:href="#DejaVuSans-20" transform="translate(496.142578 0)"/>
      <use xlink:href="#DejaVuSans-28" transform="translate(527.929688 0)"/>
      <use xlink:href="#DejaVuSans-42" transform="translate(566.943359 0)"/>
      <use xlink:href="#DejaVuSans-29" transform="translate(635.546875 0)"/>
     </g>
    </g>
   </g>
   <g id="matplotlib.axis_2">
    <g id="ytick_1">
     <g id="line2d_15">
      <path d="M 70.954688 263.55625 
L 420.944688 263.55625 
" clip-path="url(#pdd455ddcdd)" style="fill: none; stroke: #b0b0b0; stroke-width: 0.8; stroke-linecap: square"/>
     </g>
     <g id="line2d_16">
      <defs>
       <path id="m6f3f5b6aff" d="M 0 0 
L -3.5 0 
" style="stroke: #000000; stroke-width: 0.8"/>
      </defs>
      <g>
       <use xlink:href="#m6f3f5b6aff" x="70.954688" y="263.55625" style="stroke: #000000; stroke-width: 0.8"/>
      </g>
     </g>
     <g id="text_7">
      <!-- 8.0 -->
      <g transform="translate(40.1 269.255078) scale(0.15 -0.15)">
       <defs>
        <path id="DejaVuSans-38" d="M 2034 2216 
Q 1584 2216 1326 1975 
Q 1069 1734 1069 1313 
Q 1069 891 1326 650 
Q 1584 409 2034 409 
Q 2484 409 2743 651 
Q 3003 894 3003 1313 
Q 3003 1734 2745 1975 
Q 2488 2216 2034 2216 
z
M 1403 2484 
Q 997 2584 770 2862 
Q 544 3141 544 3541 
Q 544 4100 942 4425 
Q 1341 4750 2034 4750 
Q 2731 4750 3128 4425 
Q 3525 4100 3525 3541 
Q 3525 3141 3298 2862 
Q 3072 2584 2669 2484 
Q 3125 2378 3379 2068 
Q 3634 1759 3634 1313 
Q 3634 634 3220 271 
Q 2806 -91 2034 -91 
Q 1263 -91 848 271 
Q 434 634 434 1313 
Q 434 1759 690 2068 
Q 947 2378 1403 2484 
z
M 1172 3481 
Q 1172 3119 1398 2916 
Q 1625 2713 2034 2713 
Q 2441 2713 2670 2916 
Q 2900 3119 2900 3481 
Q 2900 3844 2670 4047 
Q 2441 4250 2034 4250 
Q 1625 4250 1398 4047 
Q 1172 3844 1172 3481 
z
" transform="scale(0.015625)"/>
        <path id="DejaVuSans-2e" d="M 684 794 
L 1344 794 
L 1344 0 
L 684 0 
L 684 794 
z
" transform="scale(0.015625)"/>
        <path id="DejaVuSans-30" d="M 2034 4250 
Q 1547 4250 1301 3770 
Q 1056 3291 1056 2328 
Q 1056 1369 1301 889 
Q 1547 409 2034 409 
Q 2525 409 2770 889 
Q 3016 1369 3016 2328 
Q 3016 3291 2770 3770 
Q 2525 4250 2034 4250 
z
M 2034 4750 
Q 2819 4750 3233 4129 
Q 3647 3509 3647 2328 
Q 3647 1150 3233 529 
Q 2819 -91 2034 -91 
Q 1250 -91 836 529 
Q 422 1150 422 2328 
Q 422 3509 836 4129 
Q 1250 4750 2034 4750 
z
" transform="scale(0.015625)"/>
       </defs>
       <use xlink:href="#DejaVuSans-38"/>
       <use xlink:href="#DejaVuSans-2e" transform="translate(63.623047 0)"/>
       <use xlink:href="#DejaVuSans-30" transform="translate(95.410156 0)"/>
      </g>
     </g>
    </g>
    <g id="ytick_2">
     <g id="line2d_17">
      <path d="M 70.954688 205.52625 
L 420.944688 205.52625 
" clip-path="url(#pdd455ddcdd)" style="fill: none; stroke: #b0b0b0; stroke-width: 0.8; stroke-linecap: square"/>
     </g>
     <g id="line2d_18">
      <g>
       <use xlink:href="#m6f3f5b6aff" x="70.954688" y="205.52625" style="stroke: #000000; stroke-width: 0.8"/>
      </g>
     </g>
     <g id="text_8">
      <!-- 8.5 -->
      <g transform="translate(40.1 211.225078) scale(0.15 -0.15)">
       <use xlink:href="#DejaVuSans-38"/>
       <use xlink:href="#DejaVuSans-2e" transform="translate(63.623047 0)"/>
       <use xlink:href="#DejaVuSans-35" transform="translate(95.410156 0)"/>
      </g>
     </g>
    </g>
    <g id="ytick_3">
     <g id="line2d_19">
      <path d="M 70.954688 147.49625 
L 420.944688 147.49625 
" clip-path="url(#pdd455ddcdd)" style="fill: none; stroke: #b0b0b0; stroke-width: 0.8; stroke-linecap: square"/>
     </g>
     <g id="line2d_20">
      <g>
       <use xlink:href="#m6f3f5b6aff" x="70.954688" y="147.49625" style="stroke: #000000; stroke-width: 0.8"/>
      </g>
     </g>
     <g id="text_9">
      <!-- 9.0 -->
      <g transform="translate(40.1 153.195078) scale(0.15 -0.15)">
       <defs>
        <path id="DejaVuSans-39" d="M 703 97 
L 703 672 
Q 941 559 1184 500 
Q 1428 441 1663 441 
Q 2288 441 2617 861 
Q 2947 1281 2994 2138 
Q 2813 1869 2534 1725 
Q 2256 1581 1919 1581 
Q 1219 1581 811 2004 
Q 403 2428 403 3163 
Q 403 3881 828 4315 
Q 1253 4750 1959 4750 
Q 2769 4750 3195 4129 
Q 3622 3509 3622 2328 
Q 3622 1225 3098 567 
Q 2575 -91 1691 -91 
Q 1453 -91 1209 -44 
Q 966 3 703 97 
z
M 1959 2075 
Q 2384 2075 2632 2365 
Q 2881 2656 2881 3163 
Q 2881 3666 2632 3958 
Q 2384 4250 1959 4250 
Q 1534 4250 1286 3958 
Q 1038 3666 1038 3163 
Q 1038 2656 1286 2365 
Q 1534 2075 1959 2075 
z
" transform="scale(0.015625)"/>
       </defs>
       <use xlink:href="#DejaVuSans-39"/>
       <use xlink:href="#DejaVuSans-2e" transform="translate(63.623047 0)"/>
       <use xlink:href="#DejaVuSans-30" transform="translate(95.410156 0)"/>
      </g>
     </g>
    </g>
    <g id="ytick_4">
     <g id="line2d_21">
      <path d="M 70.954688 89.46625 
L 420.944688 89.46625 
" clip-path="url(#pdd455ddcdd)" style="fill: none; stroke: #b0b0b0; stroke-width: 0.8; stroke-linecap: square"/>
     </g>
     <g id="line2d_22">
      <g>
       <use xlink:href="#m6f3f5b6aff" x="70.954688" y="89.46625" style="stroke: #000000; stroke-width: 0.8"/>
      </g>
     </g>
     <g id="text_10">
      <!-- 9.5 -->
      <g transform="translate(40.1 95.165078) scale(0.15 -0.15)">
       <use xlink:href="#DejaVuSans-39"/>
       <use xlink:href="#DejaVuSans-2e" transform="translate(63.623047 0)"/>
       <use xlink:href="#DejaVuSans-35" transform="translate(95.410156 0)"/>
      </g>
     </g>
    </g>
    <g id="ytick_5">
     <g id="line2d_23">
      <path d="M 70.954688 31.43625 
L 420.944688 31.43625 
" clip-path="url(#pdd455ddcdd)" style="fill: none; stroke: #b0b0b0; stroke-width: 0.8; stroke-linecap: square"/>
     </g>
     <g id="line2d_24">
      <g>
       <use xlink:href="#m6f3f5b6aff" x="70.954688" y="31.43625" style="stroke: #000000; stroke-width: 0.8"/>
      </g>
     </g>
     <g id="text_11">
      <!-- 10.0 -->
      <g transform="translate(30.55625 37.135078) scale(0.15 -0.15)">
       <use xlink:href="#DejaVuSans-31"/>
       <use xlink:href="#DejaVuSans-30" transform="translate(63.623047 0)"/>
       <use xlink:href="#DejaVuSans-2e" transform="translate(127.246094 0)"/>
       <use xlink:href="#DejaVuSans-30" transform="translate(159.033203 0)"/>
      </g>
     </g>
    </g>
    <g id="text_12">
     <!-- Latency (ns) -->
     <g transform="translate(22.396875 209.5525) rotate(-90) scale(0.2 -0.2)">
      <defs>
       <path id="DejaVuSans-4c" d="M 628 4666 
L 1259 4666 
L 1259 531 
L 3531 531 
L 3531 0 
L 628 0 
L 628 4666 
z
" transform="scale(0.015625)"/>
       <path id="DejaVuSans-61" d="M 2194 1759 
Q 1497 1759 1228 1600 
Q 959 1441 959 1056 
Q 959 750 1161 570 
Q 1363 391 1709 391 
Q 2188 391 2477 730 
Q 2766 1069 2766 1631 
L 2766 1759 
L 2194 1759 
z
M 3341 1997 
L 3341 0 
L 2766 0 
L 2766 531 
Q 2569 213 2275 61 
Q 1981 -91 1556 -91 
Q 1019 -91 701 211 
Q 384 513 384 1019 
Q 384 1609 779 1909 
Q 1175 2209 1959 2209 
L 2766 2209 
L 2766 2266 
Q 2766 2663 2505 2880 
Q 2244 3097 1772 3097 
Q 1472 3097 1187 3025 
Q 903 2953 641 2809 
L 641 3341 
Q 956 3463 1253 3523 
Q 1550 3584 1831 3584 
Q 2591 3584 2966 3190 
Q 3341 2797 3341 1997 
z
" transform="scale(0.015625)"/>
       <path id="DejaVuSans-74" d="M 1172 4494 
L 1172 3500 
L 2356 3500 
L 2356 3053 
L 1172 3053 
L 1172 1153 
Q 1172 725 1289 603 
Q 1406 481 1766 481 
L 2356 481 
L 2356 0 
L 1766 0 
Q 1100 0 847 248 
Q 594 497 594 1153 
L 594 3053 
L 172 3053 
L 172 3500 
L 594 3500 
L 594 4494 
L 1172 4494 
z
" transform="scale(0.015625)"/>
       <path id="DejaVuSans-6e" d="M 3513 2113 
L 3513 0 
L 2938 0 
L 2938 2094 
Q 2938 2591 2744 2837 
Q 2550 3084 2163 3084 
Q 1697 3084 1428 2787 
Q 1159 2491 1159 1978 
L 1159 0 
L 581 0 
L 581 3500 
L 1159 3500 
L 1159 2956 
Q 1366 3272 1645 3428 
Q 1925 3584 2291 3584 
Q 2894 3584 3203 3211 
Q 3513 2838 3513 2113 
z
" transform="scale(0.015625)"/>
       <path id="DejaVuSans-79" d="M 2059 -325 
Q 1816 -950 1584 -1140 
Q 1353 -1331 966 -1331 
L 506 -1331 
L 506 -850 
L 844 -850 
Q 1081 -850 1212 -737 
Q 1344 -625 1503 -206 
L 1606 56 
L 191 3500 
L 800 3500 
L 1894 763 
L 2988 3500 
L 3597 3500 
L 2059 -325 
z
" transform="scale(0.015625)"/>
      </defs>
      <use xlink:href="#DejaVuSans-4c"/>
      <use xlink:href="#DejaVuSans-61" transform="translate(55.712891 0)"/>
      <use xlink:href="#DejaVuSans-74" transform="translate(116.992188 0)"/>
      <use xlink:href="#DejaVuSans-65" transform="translate(156.201172 0)"/>
      <use xlink:href="#DejaVuSans-6e" transform="translate(217.724609 0)"/>
      <use xlink:href="#DejaVuSans-63" transform="translate(281.103516 0)"/>
      <use xlink:href="#DejaVuSans-79" transform="translate(336.083984 0)"/>
      <use xlink:href="#DejaVuSans-20" transform="translate(395.263672 0)"/>
      <use xlink:href="#DejaVuSans-28" transform="translate(427.050781 0)"/>
      <use xlink:href="#DejaVuSans-6e" transform="translate(466.064453 0)"/>
      <use xlink:href="#DejaVuSans-73" transform="translate(529.443359 0)"/>
      <use xlink:href="#DejaVuSans-29" transform="translate(581.542969 0)"/>
     </g>
    </g>
   </g>
   <g id="LineCollection_1">
    <path d="M 70.954687 128.193807 
L 70.954687 124.451731 
" clip-path="url(#pdd455ddcdd)" style="fill: none; stroke: #1f77b4; stroke-width: 1.5"/>
    <path d="M 109.842465 128.602182 
L 109.842465 124.985625 
" clip-path="url(#pdd455ddcdd)" style="fill: none; stroke: #1f77b4; stroke-width: 1.5"/>
    <path d="M 148.730243 128.730575 
L 148.730243 125.174387 
" clip-path="url(#pdd455ddcdd)" style="fill: none; stroke: #1f77b4; stroke-width: 1.5"/>
    <path d="M 187.618021 128.540659 
L 187.618021 125.081622 
" clip-path="url(#pdd455ddcdd)" style="fill: none; stroke: #1f77b4; stroke-width: 1.5"/>
    <path d="M 226.505799 128.168066 
L 226.505799 124.661329 
" clip-path="url(#pdd455ddcdd)" style="fill: none; stroke: #1f77b4; stroke-width: 1.5"/>
    <path d="M 265.393576 128.094345 
L 265.393576 124.4133 
" clip-path="url(#pdd455ddcdd)" style="fill: none; stroke: #1f77b4; stroke-width: 1.5"/>
    <path d="M 343.169132 127.914589 
L 343.169132 124.154097 
" clip-path="url(#pdd455ddcdd)" style="fill: none; stroke: #1f77b4; stroke-width: 1.5"/>
    <path d="M 382.05691 127.725043 
L 382.05691 123.904683 
" clip-path="url(#pdd455ddcdd)" style="fill: none; stroke: #1f77b4; stroke-width: 1.5"/>
    <path d="M 420.944688 126.976724 
L 420.944688 123.471718 
" clip-path="url(#pdd455ddcdd)" style="fill: none; stroke: #1f77b4; stroke-width: 1.5"/>
   </g>
   <g id="LineCollection_2">
    <path d="M 70.954687 128.578632 
L 70.954687 125.002281 
" clip-path="url(#pdd455ddcdd)" style="fill: none; stroke: #ff7f0e; stroke-width: 1.5"/>
    <path d="M 109.842465 126.999376 
L 109.842465 67.680513 
" clip-path="url(#pdd455ddcdd)" style="fill: none; stroke: #ff7f0e; stroke-width: 1.5"/>
    <path d="M 148.730243 128.564758 
L 148.730243 125.06212 
" clip-path="url(#pdd455ddcdd)" style="fill: none; stroke: #ff7f0e; stroke-width: 1.5"/>
    <path d="M 187.618021 128.732435 
L 187.618021 125.250666 
" clip-path="url(#pdd455ddcdd)" style="fill: none; stroke: #ff7f0e; stroke-width: 1.5"/>
    <path d="M 226.505799 126.726926 
L 226.505799 67.371513 
" clip-path="url(#pdd455ddcdd)" style="fill: none; stroke: #ff7f0e; stroke-width: 1.5"/>
    <path d="M 265.393576 128.600593 
L 265.393576 125.081442 
" clip-path="url(#pdd455ddcdd)" style="fill: none; stroke: #ff7f0e; stroke-width: 1.5"/>
    <path d="M 343.169132 128.164057 
L 343.169132 124.674532 
" clip-path="url(#pdd455ddcdd)" style="fill: none; stroke: #ff7f0e; stroke-width: 1.5"/>
    <path d="M 382.05691 128.091113 
L 382.05691 124.280937 
" clip-path="url(#pdd455ddcdd)" style="fill: none; stroke: #ff7f0e; stroke-width: 1.5"/>
    <path d="M 420.944688 126.197147 
L 420.944688 54.75089 
" clip-path="url(#pdd455ddcdd)" style="fill: none; stroke: #ff7f0e; stroke-width: 1.5"/>
   </g>
   <g id="LineCollection_3">
    <path d="M 70.954687 128.713586 
L 70.954687 125.051184 
" clip-path="url(#pdd455ddcdd)" style="fill: none; stroke: #2ca02c; stroke-width: 1.5"/>
    <path d="M 109.842465 127.103118 
L 109.842465 68.964894 
" clip-path="url(#pdd455ddcdd)" style="fill: none; stroke: #2ca02c; stroke-width: 1.5"/>
    <path d="M 148.730243 128.93451 
L 148.730243 125.384131 
" clip-path="url(#pdd455ddcdd)" style="fill: none; stroke: #2ca02c; stroke-width: 1.5"/>
    <path d="M 187.618021 128.864034 
L 187.618021 125.341994 
" clip-path="url(#pdd455ddcdd)" style="fill: none; stroke: #2ca02c; stroke-width: 1.5"/>
    <path d="M 226.505799 126.718705 
L 226.505799 64.529944 
" clip-path="url(#pdd455ddcdd)" style="fill: none; stroke: #2ca02c; stroke-width: 1.5"/>
    <path d="M 265.393576 128.293425 
L 265.393576 124.67846 
" clip-path="url(#pdd455ddcdd)" style="fill: none; stroke: #2ca02c; stroke-width: 1.5"/>
    <path d="M 343.169132 128.322136 
L 343.169132 124.776151 
" clip-path="url(#pdd455ddcdd)" style="fill: none; stroke: #2ca02c; stroke-width: 1.5"/>
    <path d="M 382.05691 128.220444 
L 382.05691 124.742248 
" clip-path="url(#pdd455ddcdd)" style="fill: none; stroke: #2ca02c; stroke-width: 1.5"/>
    <path d="M 420.944688 127.766349 
L 420.944688 124.088603 
" clip-path="url(#pdd455ddcdd)" style="fill: none; stroke: #2ca02c; stroke-width: 1.5"/>
   </g>
   <g id="LineCollection_4">
    <path d="M 70.954687 129.042227 
L 70.954687 125.556797 
" clip-path="url(#pdd455ddcdd)" style="fill: none; stroke: #d62728; stroke-width: 1.5"/>
    <path d="M 109.842465 128.867339 
L 109.842465 125.515652 
" clip-path="url(#pdd455ddcdd)" style="fill: none; stroke: #d62728; stroke-width: 1.5"/>
    <path d="M 148.730243 128.729473 
L 148.730243 125.308785 
" clip-path="url(#pdd455ddcdd)" style="fill: none; stroke: #d62728; stroke-width: 1.5"/>
    <path d="M 187.618021 129.164729 
L 187.618021 125.588276 
" clip-path="url(#pdd455ddcdd)" style="fill: none; stroke: #d62728; stroke-width: 1.5"/>
    <path d="M 226.505799 127.299765 
L 226.505799 67.68119 
" clip-path="url(#pdd455ddcdd)" style="fill: none; stroke: #d62728; stroke-width: 1.5"/>
    <path d="M 265.393576 128.778508 
L 265.393576 125.386152 
" clip-path="url(#pdd455ddcdd)" style="fill: none; stroke: #d62728; stroke-width: 1.5"/>
    <path d="M 343.169132 128.433756 
L 343.169132 125.050632 
" clip-path="url(#pdd455ddcdd)" style="fill: none; stroke: #d62728; stroke-width: 1.5"/>
    <path d="M 382.05691 128.725806 
L 382.05691 125.089525 
" clip-path="url(#pdd455ddcdd)" style="fill: none; stroke: #d62728; stroke-width: 1.5"/>
    <path d="M 420.944688 128.501248 
L 420.944688 124.911895 
" clip-path="url(#pdd455ddcdd)" style="fill: none; stroke: #d62728; stroke-width: 1.5"/>
   </g>
   <g id="LineCollection_5">
    <path d="M 70.954687 128.797316 
L 70.954687 125.348958 
" clip-path="url(#pdd455ddcdd)" style="fill: none; stroke: #9467bd; stroke-width: 1.5"/>
    <path d="M 109.842465 129.125844 
L 109.842465 125.668528 
" clip-path="url(#pdd455ddcdd)" style="fill: none; stroke: #9467bd; stroke-width: 1.5"/>
    <path d="M 148.730243 129.071348 
L 148.730243 125.472518 
" clip-path="url(#pdd455ddcdd)" style="fill: none; stroke: #9467bd; stroke-width: 1.5"/>
    <path d="M 187.618021 128.739074 
L 187.618021 125.177378 
" clip-path="url(#pdd455ddcdd)" style="fill: none; stroke: #9467bd; stroke-width: 1.5"/>
    <path d="M 226.505799 127.924604 
L 226.505799 124.463534 
" clip-path="url(#pdd455ddcdd)" style="fill: none; stroke: #9467bd; stroke-width: 1.5"/>
    <path d="M 265.393576 128.756172 
L 265.393576 125.339542 
" clip-path="url(#pdd455ddcdd)" style="fill: none; stroke: #9467bd; stroke-width: 1.5"/>
    <path d="M 343.169132 128.657384 
L 343.169132 125.275156 
" clip-path="url(#pdd455ddcdd)" style="fill: none; stroke: #9467bd; stroke-width: 1.5"/>
    <path d="M 382.05691 128.524898 
L 382.05691 125.074401 
" clip-path="url(#pdd455ddcdd)" style="fill: none; stroke: #9467bd; stroke-width: 1.5"/>
    <path d="M 420.944688 127.901144 
L 420.944688 124.119279 
" clip-path="url(#pdd455ddcdd)" style="fill: none; stroke: #9467bd; stroke-width: 1.5"/>
   </g>
   <g id="LineCollection_6">
    <path d="M 70.954687 128.908437 
L 70.954687 125.472256 
" clip-path="url(#pdd455ddcdd)" style="fill: none; stroke: #8c564b; stroke-width: 1.5"/>
    <path d="M 109.842465 127.256673 
L 109.842465 67.372655 
" clip-path="url(#pdd455ddcdd)" style="fill: none; stroke: #8c564b; stroke-width: 1.5"/>
    <path d="M 148.730243 128.934054 
L 148.730243 125.437446 
" clip-path="url(#pdd455ddcdd)" style="fill: none; stroke: #8c564b; stroke-width: 1.5"/>
    <path d="M 187.618021 128.716253 
L 187.618021 125.388653 
" clip-path="url(#pdd455ddcdd)" style="fill: none; stroke: #8c564b; stroke-width: 1.5"/>
    <path d="M 226.505799 128.15015 
L 226.505799 124.716017 
" clip-path="url(#pdd455ddcdd)" style="fill: none; stroke: #8c564b; stroke-width: 1.5"/>
    <path d="M 265.393576 128.930909 
L 265.393576 125.523327 
" clip-path="url(#pdd455ddcdd)" style="fill: none; stroke: #8c564b; stroke-width: 1.5"/>
    <path d="M 343.169132 128.282464 
L 343.169132 124.762964 
" clip-path="url(#pdd455ddcdd)" style="fill: none; stroke: #8c564b; stroke-width: 1.5"/>
    <path d="M 382.05691 126.746527 
L 382.05691 67.379491 
" clip-path="url(#pdd455ddcdd)" style="fill: none; stroke: #8c564b; stroke-width: 1.5"/>
    <path d="M 420.944688 128.352769 
L 420.944688 125.170689 
" clip-path="url(#pdd455ddcdd)" style="fill: none; stroke: #8c564b; stroke-width: 1.5"/>
   </g>
   <g id="LineCollection_7">
    <path d="M 70.954687 129.119985 
L 70.954687 125.660597 
" clip-path="url(#pdd455ddcdd)" style="fill: none; stroke: #e377c2; stroke-width: 1.5"/>
    <path d="M 109.842465 128.961641 
L 109.842465 125.504086 
" clip-path="url(#pdd455ddcdd)" style="fill: none; stroke: #e377c2; stroke-width: 1.5"/>
    <path d="M 148.730243 129.024395 
L 148.730243 125.455121 
" clip-path="url(#pdd455ddcdd)" style="fill: none; stroke: #e377c2; stroke-width: 1.5"/>
    <path d="M 187.618021 129.076087 
L 187.618021 125.683812 
" clip-path="url(#pdd455ddcdd)" style="fill: none; stroke: #e377c2; stroke-width: 1.5"/>
    <path d="M 226.505799 128.719956 
L 226.505799 125.097673 
" clip-path="url(#pdd455ddcdd)" style="fill: none; stroke: #e377c2; stroke-width: 1.5"/>
    <path d="M 265.393576 129.00142 
L 265.393576 125.427536 
" clip-path="url(#pdd455ddcdd)" style="fill: none; stroke: #e377c2; stroke-width: 1.5"/>
    <path d="M 343.169132 128.710722 
L 343.169132 125.309151 
" clip-path="url(#pdd455ddcdd)" style="fill: none; stroke: #e377c2; stroke-width: 1.5"/>
    <path d="M 382.05691 128.855291 
L 382.05691 125.284089 
" clip-path="url(#pdd455ddcdd)" style="fill: none; stroke: #e377c2; stroke-width: 1.5"/>
    <path d="M 420.944688 127.087139 
L 420.944688 47.876338 
" clip-path="url(#pdd455ddcdd)" style="fill: none; stroke: #e377c2; stroke-width: 1.5"/>
   </g>
   <g id="LineCollection_8">
    <path d="M 70.954687 129.1519 
L 70.954687 125.506877 
" clip-path="url(#pdd455ddcdd)" style="fill: none; stroke: #7f7f7f; stroke-width: 1.5"/>
    <path d="M 109.842465 127.504093 
L 109.842465 56.507469 
" clip-path="url(#pdd455ddcdd)" style="fill: none; stroke: #7f7f7f; stroke-width: 1.5"/>
    <path d="M 148.730243 129.198086 
L 148.730243 125.736477 
" clip-path="url(#pdd455ddcdd)" style="fill: none; stroke: #7f7f7f; stroke-width: 1.5"/>
    <path d="M 187.618021 129.352618 
L 187.618021 125.749715 
" clip-path="url(#pdd455ddcdd)" style="fill: none; stroke: #7f7f7f; stroke-width: 1.5"/>
    <path d="M 226.505799 128.777703 
L 226.505799 124.858367 
" clip-path="url(#pdd455ddcdd)" style="fill: none; stroke: #7f7f7f; stroke-width: 1.5"/>
    <path d="M 265.393576 129.121159 
L 265.393576 125.388234 
" clip-path="url(#pdd455ddcdd)" style="fill: none; stroke: #7f7f7f; stroke-width: 1.5"/>
    <path d="M 343.169132 128.973653 
L 343.169132 125.390952 
" clip-path="url(#pdd455ddcdd)" style="fill: none; stroke: #7f7f7f; stroke-width: 1.5"/>
    <path d="M 382.05691 128.972144 
L 382.05691 125.413146 
" clip-path="url(#pdd455ddcdd)" style="fill: none; stroke: #7f7f7f; stroke-width: 1.5"/>
    <path d="M 420.944688 128.678318 
L 420.944688 125.185276 
" clip-path="url(#pdd455ddcdd)" style="fill: none; stroke: #7f7f7f; stroke-width: 1.5"/>
   </g>
   <g id="LineCollection_9">
    <path d="M 70.954687 129.273218 
L 70.954687 125.826817 
" clip-path="url(#pdd455ddcdd)" style="fill: none; stroke: #bcbd22; stroke-width: 1.5"/>
    <path d="M 109.842465 127.341527 
L 109.842465 65.403262 
" clip-path="url(#pdd455ddcdd)" style="fill: none; stroke: #bcbd22; stroke-width: 1.5"/>
    <path d="M 148.730243 129.062672 
L 148.730243 125.651263 
" clip-path="url(#pdd455ddcdd)" style="fill: none; stroke: #bcbd22; stroke-width: 1.5"/>
    <path d="M 187.618021 129.082175 
L 187.618021 125.537533 
" clip-path="url(#pdd455ddcdd)" style="fill: none; stroke: #bcbd22; stroke-width: 1.5"/>
    <path d="M 226.505799 127.17524 
L 226.505799 41.661189 
" clip-path="url(#pdd455ddcdd)" style="fill: none; stroke: #bcbd22; stroke-width: 1.5"/>
    <path d="M 265.393576 129.256459 
L 265.393576 125.815998 
" clip-path="url(#pdd455ddcdd)" style="fill: none; stroke: #bcbd22; stroke-width: 1.5"/>
    <path d="M 343.169132 129.426238 
L 343.169132 125.908215 
" clip-path="url(#pdd455ddcdd)" style="fill: none; stroke: #bcbd22; stroke-width: 1.5"/>
    <path d="M 382.05691 128.985869 
L 382.05691 125.371842 
" clip-path="url(#pdd455ddcdd)" style="fill: none; stroke: #bcbd22; stroke-width: 1.5"/>
    <path d="M 420.944688 129.104722 
L 420.944688 125.675861 
" clip-path="url(#pdd455ddcdd)" style="fill: none; stroke: #bcbd22; stroke-width: 1.5"/>
   </g>
   <g id="LineCollection_10">
    <path d="M 70.954687 129.255065 
L 70.954687 125.57378 
" clip-path="url(#pdd455ddcdd)" style="fill: none; stroke: #17becf; stroke-width: 1.5"/>
    <path d="M 109.842465 129.160657 
L 109.842465 125.760117 
" clip-path="url(#pdd455ddcdd)" style="fill: none; stroke: #17becf; stroke-width: 1.5"/>
    <path d="M 148.730243 129.178506 
L 148.730243 125.691708 
" clip-path="url(#pdd455ddcdd)" style="fill: none; stroke: #17becf; stroke-width: 1.5"/>
    <path d="M 187.618021 129.45667 
L 187.618021 125.919151 
" clip-path="url(#pdd455ddcdd)" style="fill: none; stroke: #17becf; stroke-width: 1.5"/>
    <path d="M 226.505799 129.153963 
L 226.505799 125.518603 
" clip-path="url(#pdd455ddcdd)" style="fill: none; stroke: #17becf; stroke-width: 1.5"/>
    <path d="M 265.393576 129.200463 
L 265.393576 125.722609 
" clip-path="url(#pdd455ddcdd)" style="fill: none; stroke: #17becf; stroke-width: 1.5"/>
    <path d="M 343.169132 129.290758 
L 343.169132 125.756418 
" clip-path="url(#pdd455ddcdd)" style="fill: none; stroke: #17becf; stroke-width: 1.5"/>
    <path d="M 382.05691 129.13284 
L 382.05691 125.730479 
" clip-path="url(#pdd455ddcdd)" style="fill: none; stroke: #17becf; stroke-width: 1.5"/>
    <path d="M 420.944688 128.799061 
L 420.944688 125.315039 
" clip-path="url(#pdd455ddcdd)" style="fill: none; stroke: #17becf; stroke-width: 1.5"/>
   </g>
   <g id="line2d_25">
    <path d="M 70.954687 126.322769 
L 109.842465 126.793904 
L 148.730243 126.952481 
L 187.618021 126.81114 
L 226.505799 126.414698 
L 265.393576 126.253823 
L 343.169132 126.034343 
L 382.05691 125.814863 
L 420.944688 125.224221 
" clip-path="url(#pdd455ddcdd)" style="fill: none; stroke: #1f77b4; stroke-width: 1.5; stroke-linecap: square"/>
   </g>
   <g id="line2d_26">
    <path d="M 70.954687 126.790457 
L 109.842465 97.339944 
L 148.730243 126.813439 
L 187.618021 126.991551 
L 226.505799 97.04922 
L 265.393576 126.841017 
L 343.169132 126.419294 
L 382.05691 126.186025 
L 420.944688 90.474019 
" clip-path="url(#pdd455ddcdd)" style="fill: none; stroke: #ff7f0e; stroke-width: 1.5; stroke-linecap: square"/>
   </g>
   <g id="line2d_27">
    <path d="M 70.954687 126.882385 
L 109.842465 98.034006 
L 148.730243 127.15932 
L 187.618021 127.103014 
L 226.505799 95.624325 
L 265.393576 126.485943 
L 343.169132 126.549144 
L 382.05691 126.481346 
L 420.944688 125.927476 
" clip-path="url(#pdd455ddcdd)" style="fill: none; stroke: #2ca02c; stroke-width: 1.5; stroke-linecap: square"/>
   </g>
   <g id="line2d_28">
    <path d="M 70.954687 127.299512 
L 109.842465 127.191496 
L 148.730243 127.019129 
L 187.618021 127.376502 
L 226.505799 97.490478 
L 265.393576 127.08233 
L 343.169132 126.742194 
L 382.05691 126.907666 
L 420.944688 126.706572 
" clip-path="url(#pdd455ddcdd)" style="fill: none; stroke: #d62728; stroke-width: 1.5; stroke-linecap: square"/>
   </g>
   <g id="line2d_29">
    <path d="M 70.954687 127.073137 
L 109.842465 127.397186 
L 148.730243 127.271933 
L 187.618021 126.958226 
L 226.505799 126.194069 
L 265.393576 127.047857 
L 343.169132 126.96627 
L 382.05691 126.799649 
L 420.944688 126.010212 
" clip-path="url(#pdd455ddcdd)" style="fill: none; stroke-dasharray: 5.55,2.4; stroke-dashoffset: 0; stroke: #9467bd; stroke-width: 1.5"/>
   </g>
   <g id="line2d_30">
    <path d="M 70.954687 127.190346 
L 109.842465 97.314664 
L 148.730243 127.18575 
L 187.618021 127.052453 
L 226.505799 126.433084 
L 265.393576 127.227118 
L 343.169132 126.522714 
L 382.05691 97.063009 
L 420.944688 126.761729 
" clip-path="url(#pdd455ddcdd)" style="fill: none; stroke: #8c564b; stroke-width: 1.5; stroke-linecap: square"/>
   </g>
   <g id="line2d_31">
    <path d="M 70.954687 127.390291 
L 109.842465 127.232863 
L 148.730243 127.239758 
L 187.618021 127.379949 
L 226.505799 126.908815 
L 265.393576 127.214478 
L 343.169132 127.009936 
L 382.05691 127.06969 
L 420.944688 87.481739 
" clip-path="url(#pdd455ddcdd)" style="fill: none; stroke: #e377c2; stroke-width: 1.5; stroke-linecap: square"/>
   </g>
   <g id="line2d_32">
    <path d="M 70.954687 127.329389 
L 109.842465 92.005781 
L 148.730243 127.467282 
L 187.618021 127.551167 
L 226.505799 126.818035 
L 265.393576 127.254697 
L 343.169132 127.182303 
L 382.05691 127.192645 
L 420.944688 126.931797 
" clip-path="url(#pdd455ddcdd)" style="fill: none; stroke-dasharray: 5.55,2.4; stroke-dashoffset: 0; stroke: #7f7f7f; stroke-width: 1.5"/>
   </g>
   <g id="line2d_33">
    <path d="M 70.954687 127.550018 
L 109.842465 96.372395 
L 148.730243 127.356967 
L 187.618021 127.309854 
L 226.505799 84.418215 
L 265.393576 127.536228 
L 343.169132 127.667227 
L 382.05691 127.178855 
L 420.944688 127.390291 
" clip-path="url(#pdd455ddcdd)" style="fill: none; stroke: #bcbd22; stroke-width: 1.5; stroke-linecap: square"/>
   </g>
   <g id="line2d_34">
    <path d="M 70.954687 127.414423 
L 109.842465 127.460387 
L 148.730243 127.435107 
L 187.618021 127.687911 
L 226.505799 127.336283 
L 265.393576 127.461536 
L 343.169132 127.523588 
L 382.05691 127.431659 
L 420.944688 127.05705 
" clip-path="url(#pdd455ddcdd)" style="fill: none; stroke: #17becf; stroke-width: 1.5; stroke-linecap: square"/>
   </g>
   <g id="patch_3">
    <path d="M 70.954688 263.55625 
L 70.954688 31.43625 
" style="fill: none; stroke: #000000; stroke-width: 0.8; stroke-linejoin: miter; stroke-linecap: square"/>
   </g>
   <g id="patch_4">
    <path d="M 420.944688 263.55625 
L 420.944688 31.43625 
" style="fill: none; stroke: #000000; stroke-width: 0.8; stroke-linejoin: miter; stroke-linecap: square"/>
   </g>
   <g id="patch_5">
    <path d="M 70.954687 263.55625 
L 420.944688 263.55625 
" style="fill: none; stroke: #000000; stroke-width: 0.8; stroke-linejoin: miter; stroke-linecap: square"/>
   </g>
   <g id="patch_6">
    <path d="M 70.954687 31.43625 
L 420.944688 31.43625 
" style="fill: none; stroke: #000000; stroke-width: 0.8; stroke-linejoin: miter; stroke-linecap: square"/>
   </g>
   <g id="text_13">
    <!-- DMA prep (fast) -->
    <g transform="translate(151.339063 25.43625) scale(0.24 -0.24)">
     <defs>
      <path id="DejaVuSans-44" d="M 1259 4147 
L 1259 519 
L 2022 519 
Q 2988 519 3436 956 
Q 3884 1394 3884 2338 
Q 3884 3275 3436 3711 
Q 2988 4147 2022 4147 
L 1259 4147 
z
M 628 4666 
L 1925 4666 
Q 3281 4666 3915 4102 
Q 4550 3538 4550 2338 
Q 4550 1131 3912 565 
Q 3275 0 1925 0 
L 628 0 
L 628 4666 
z
" transform="scale(0.015625)"/>
      <path id="DejaVuSans-4d" d="M 628 4666 
L 1569 4666 
L 2759 1491 
L 3956 4666 
L 4897 4666 
L 4897 0 
L 4281 0 
L 4281 4097 
L 3078 897 
L 2444 897 
L 1241 4097 
L 1241 0 
L 628 0 
L 628 4666 
z
" transform="scale(0.015625)"/>
      <path id="DejaVuSans-41" d="M 2188 4044 
L 1331 1722 
L 3047 1722 
L 2188 4044 
z
M 1831 4666 
L 2547 4666 
L 4325 0 
L 3669 0 
L 3244 1197 
L 1141 1197 
L 716 0 
L 50 0 
L 1831 4666 
z
" transform="scale(0.015625)"/>
      <path id="DejaVuSans-70" d="M 1159 525 
L 1159 -1331 
L 581 -1331 
L 581 3500 
L 1159 3500 
L 1159 2969 
Q 1341 3281 1617 3432 
Q 1894 3584 2278 3584 
Q 2916 3584 3314 3078 
Q 3713 2572 3713 1747 
Q 3713 922 3314 415 
Q 2916 -91 2278 -91 
Q 1894 -91 1617 61 
Q 1341 213 1159 525 
z
M 3116 1747 
Q 3116 2381 2855 2742 
Q 2594 3103 2138 3103 
Q 1681 3103 1420 2742 
Q 1159 2381 1159 1747 
Q 1159 1113 1420 752 
Q 1681 391 2138 391 
Q 2594 391 2855 752 
Q 3116 1113 3116 1747 
z
" transform="scale(0.015625)"/>
      <path id="DejaVuSans-72" d="M 2631 2963 
Q 2534 3019 2420 3045 
Q 2306 3072 2169 3072 
Q 1681 3072 1420 2755 
Q 1159 2438 1159 1844 
L 1159 0 
L 581 0 
L 581 3500 
L 1159 3500 
L 1159 2956 
Q 1341 3275 1631 3429 
Q 1922 3584 2338 3584 
Q 2397 3584 2469 3576 
Q 2541 3569 2628 3553 
L 2631 2963 
z
" transform="scale(0.015625)"/>
      <path id="DejaVuSans-66" d="M 2375 4863 
L 2375 4384 
L 1825 4384 
Q 1516 4384 1395 4259 
Q 1275 4134 1275 3809 
L 1275 3500 
L 2222 3500 
L 2222 3053 
L 1275 3053 
L 1275 0 
L 697 0 
L 697 3053 
L 147 3053 
L 147 3500 
L 697 3500 
L 697 3744 
Q 697 4328 969 4595 
Q 1241 4863 1831 4863 
L 2375 4863 
z
" transform="scale(0.015625)"/>
     </defs>
     <use xlink:href="#DejaVuSans-44"/>
     <use xlink:href="#DejaVuSans-4d" transform="translate(77.001953 0)"/>
     <use xlink:href="#DejaVuSans-41" transform="translate(163.28125 0)"/>
     <use xlink:href="#DejaVuSans-20" transform="translate(231.689453 0)"/>
     <use xlink:href="#DejaVuSans-70" transform="translate(263.476562 0)"/>
     <use xlink:href="#DejaVuSans-72" transform="translate(326.953125 0)"/>
     <use xlink:href="#DejaVuSans-65" transform="translate(365.816406 0)"/>
     <use xlink:href="#DejaVuSans-70" transform="translate(427.339844 0)"/>
     <use xlink:href="#DejaVuSans-20" transform="translate(490.816406 0)"/>
     <use xlink:href="#DejaVuSans-28" transform="translate(522.603516 0)"/>
     <use xlink:href="#DejaVuSans-66" transform="translate(561.617188 0)"/>
     <use xlink:href="#DejaVuSans-61" transform="translate(596.822266 0)"/>
     <use xlink:href="#DejaVuSans-73" transform="translate(658.101562 0)"/>
     <use xlink:href="#DejaVuSans-74" transform="translate(710.201172 0)"/>
     <use xlink:href="#DejaVuSans-29" transform="translate(749.410156 0)"/>
    </g>
   </g>
   <g id="legend_1">
    <g id="patch_7">
     <path d="M 78.654688 258.05625 
L 352.723125 258.05625 
Q 354.923125 258.05625 354.923125 255.85625 
L 354.923125 174.696875 
Q 354.923125 172.496875 352.723125 172.496875 
L 78.654688 172.496875 
Q 76.454688 172.496875 76.454688 174.696875 
L 76.454688 255.85625 
Q 76.454688 258.05625 78.654688 258.05625 
z
" style="fill: #ffffff; opacity: 0.8; stroke: #cccccc; stroke-linejoin: miter"/>
    </g>
    <g id="LineCollection_11">
     <path d="M 91.854688 186.905156 
L 91.854688 175.905156 
" style="fill: none; stroke: #1f77b4; stroke-width: 1.5"/>
    </g>
    <g id="line2d_35">
     <path d="M 80.854688 181.405156 
L 102.854688 181.405156 
" style="fill: none; stroke: #1f77b4; stroke-width: 1.5; stroke-linecap: square"/>
    </g>
    <g id="line2d_36"/>
    <g id="text_14">
     <!-- HP DDR_WC -->
     <g transform="translate(111.654688 185.255156) scale(0.11 -0.11)">
      <defs>
       <path id="DejaVuSans-48" d="M 628 4666 
L 1259 4666 
L 1259 2753 
L 3553 2753 
L 3553 4666 
L 4184 4666 
L 4184 0 
L 3553 0 
L 3553 2222 
L 1259 2222 
L 1259 0 
L 628 0 
L 628 4666 
z
" transform="scale(0.015625)"/>
       <path id="DejaVuSans-50" d="M 1259 4147 
L 1259 2394 
L 2053 2394 
Q 2494 2394 2734 2622 
Q 2975 2850 2975 3272 
Q 2975 3691 2734 3919 
Q 2494 4147 2053 4147 
L 1259 4147 
z
M 628 4666 
L 2053 4666 
Q 2838 4666 3239 4311 
Q 3641 3956 3641 3272 
Q 3641 2581 3239 2228 
Q 2838 1875 2053 1875 
L 1259 1875 
L 1259 0 
L 628 0 
L 628 4666 
z
" transform="scale(0.015625)"/>
       <path id="DejaVuSans-52" d="M 2841 2188 
Q 3044 2119 3236 1894 
Q 3428 1669 3622 1275 
L 4263 0 
L 3584 0 
L 2988 1197 
Q 2756 1666 2539 1819 
Q 2322 1972 1947 1972 
L 1259 1972 
L 1259 0 
L 628 0 
L 628 4666 
L 2053 4666 
Q 2853 4666 3247 4331 
Q 3641 3997 3641 3322 
Q 3641 2881 3436 2590 
Q 3231 2300 2841 2188 
z
M 1259 4147 
L 1259 2491 
L 2053 2491 
Q 2509 2491 2742 2702 
Q 2975 2913 2975 3322 
Q 2975 3731 2742 3939 
Q 2509 4147 2053 4147 
L 1259 4147 
z
" transform="scale(0.015625)"/>
       <path id="DejaVuSans-5f" d="M 3263 -1063 
L 3263 -1509 
L -63 -1509 
L -63 -1063 
L 3263 -1063 
z
" transform="scale(0.015625)"/>
       <path id="DejaVuSans-57" d="M 213 4666 
L 850 4666 
L 1831 722 
L 2809 4666 
L 3519 4666 
L 4500 722 
L 5478 4666 
L 6119 4666 
L 4947 0 
L 4153 0 
L 3169 4050 
L 2175 0 
L 1381 0 
L 213 4666 
z
" transform="scale(0.015625)"/>
       <path id="DejaVuSans-43" d="M 4122 4306 
L 4122 3641 
Q 3803 3938 3442 4084 
Q 3081 4231 2675 4231 
Q 1875 4231 1450 3742 
Q 1025 3253 1025 2328 
Q 1025 1406 1450 917 
Q 1875 428 2675 428 
Q 3081 428 3442 575 
Q 3803 722 4122 1019 
L 4122 359 
Q 3791 134 3420 21 
Q 3050 -91 2638 -91 
Q 1578 -91 968 557 
Q 359 1206 359 2328 
Q 359 3453 968 4101 
Q 1578 4750 2638 4750 
Q 3056 4750 3426 4639 
Q 3797 4528 4122 4306 
z
" transform="scale(0.015625)"/>
      </defs>
      <use xlink:href="#DejaVuSans-48"/>
      <use xlink:href="#DejaVuSans-50" transform="translate(75.195312 0)"/>
      <use xlink:href="#DejaVuSans-20" transform="translate(135.498047 0)"/>
      <use xlink:href="#DejaVuSans-44" transform="translate(167.285156 0)"/>
      <use xlink:href="#DejaVuSans-44" transform="translate(244.287109 0)"/>
      <use xlink:href="#DejaVuSans-52" transform="translate(321.289062 0)"/>
      <use xlink:href="#DejaVuSans-5f" transform="translate(390.771484 0)"/>
      <use xlink:href="#DejaVuSans-57" transform="translate(440.771484 0)"/>
      <use xlink:href="#DejaVuSans-43" transform="translate(539.648438 0)"/>
     </g>
    </g>
    <g id="LineCollection_12">
     <path d="M 91.854688 203.357031 
L 91.854688 192.357031 
" style="fill: none; stroke: #ff7f0e; stroke-width: 1.5"/>
    </g>
    <g id="line2d_37">
     <path d="M 80.854688 197.857031 
L 102.854688 197.857031 
" style="fill: none; stroke: #ff7f0e; stroke-width: 1.5; stroke-linecap: square"/>
    </g>
    <g id="line2d_38"/>
    <g id="text_15">
     <!-- HP OCM_WC -->
     <g transform="translate(111.654688 201.707031) scale(0.11 -0.11)">
      <defs>
       <path id="DejaVuSans-4f" d="M 2522 4238 
Q 1834 4238 1429 3725 
Q 1025 3213 1025 2328 
Q 1025 1447 1429 934 
Q 1834 422 2522 422 
Q 3209 422 3611 934 
Q 4013 1447 4013 2328 
Q 4013 3213 3611 3725 
Q 3209 4238 2522 4238 
z
M 2522 4750 
Q 3503 4750 4090 4092 
Q 4678 3434 4678 2328 
Q 4678 1225 4090 567 
Q 3503 -91 2522 -91 
Q 1538 -91 948 565 
Q 359 1222 359 2328 
Q 359 3434 948 4092 
Q 1538 4750 2522 4750 
z
" transform="scale(0.015625)"/>
      </defs>
      <use xlink:href="#DejaVuSans-48"/>
      <use xlink:href="#DejaVuSans-50" transform="translate(75.195312 0)"/>
      <use xlink:href="#DejaVuSans-20" transform="translate(135.498047 0)"/>
      <use xlink:href="#DejaVuSans-4f" transform="translate(167.285156 0)"/>
      <use xlink:href="#DejaVuSans-43" transform="translate(245.996094 0)"/>
      <use xlink:href="#DejaVuSans-4d" transform="translate(315.820312 0)"/>
      <use xlink:href="#DejaVuSans-5f" transform="translate(402.099609 0)"/>
      <use xlink:href="#DejaVuSans-57" transform="translate(452.099609 0)"/>
      <use xlink:href="#DejaVuSans-43" transform="translate(550.976562 0)"/>
     </g>
    </g>
    <g id="LineCollection_13">
     <path d="M 91.854688 219.808906 
L 91.854688 208.808906 
" style="fill: none; stroke: #2ca02c; stroke-width: 1.5"/>
    </g>
    <g id="line2d_39">
     <path d="M 80.854688 214.308906 
L 102.854688 214.308906 
" style="fill: none; stroke: #2ca02c; stroke-width: 1.5; stroke-linecap: square"/>
    </g>
    <g id="line2d_40"/>
    <g id="text_16">
     <!-- ACP DDR_WC -->
     <g transform="translate(111.654688 218.158906) scale(0.11 -0.11)">
      <use xlink:href="#DejaVuSans-41"/>
      <use xlink:href="#DejaVuSans-43" transform="translate(66.658203 0)"/>
      <use xlink:href="#DejaVuSans-50" transform="translate(136.482422 0)"/>
      <use xlink:href="#DejaVuSans-20" transform="translate(196.785156 0)"/>
      <use xlink:href="#DejaVuSans-44" transform="translate(228.572266 0)"/>
      <use xlink:href="#DejaVuSans-44" transform="translate(305.574219 0)"/>
      <use xlink:href="#DejaVuSans-52" transform="translate(382.576172 0)"/>
      <use xlink:href="#DejaVuSans-5f" transform="translate(452.058594 0)"/>
      <use xlink:href="#DejaVuSans-57" transform="translate(502.058594 0)"/>
      <use xlink:href="#DejaVuSans-43" transform="translate(600.935547 0)"/>
     </g>
    </g>
    <g id="LineCollection_14">
     <path d="M 91.854688 236.260781 
L 91.854688 225.260781 
" style="fill: none; stroke: #d62728; stroke-width: 1.5"/>
    </g>
    <g id="line2d_41">
     <path d="M 80.854688 230.760781 
L 102.854688 230.760781 
" style="fill: none; stroke: #d62728; stroke-width: 1.5; stroke-linecap: square"/>
    </g>
    <g id="line2d_42"/>
    <g id="text_17">
     <!-- ACP OCM_WC -->
     <g transform="translate(111.654688 234.610781) scale(0.11 -0.11)">
      <use xlink:href="#DejaVuSans-41"/>
      <use xlink:href="#DejaVuSans-43" transform="translate(66.658203 0)"/>
      <use xlink:href="#DejaVuSans-50" transform="translate(136.482422 0)"/>
      <use xlink:href="#DejaVuSans-20" transform="translate(196.785156 0)"/>
      <use xlink:href="#DejaVuSans-4f" transform="translate(228.572266 0)"/>
      <use xlink:href="#DejaVuSans-43" transform="translate(307.283203 0)"/>
      <use xlink:href="#DejaVuSans-4d" transform="translate(377.107422 0)"/>
      <use xlink:href="#DejaVuSans-5f" transform="translate(463.386719 0)"/>
      <use xlink:href="#DejaVuSans-57" transform="translate(513.386719 0)"/>
      <use xlink:href="#DejaVuSans-43" transform="translate(612.263672 0)"/>
     </g>
    </g>
    <g id="LineCollection_15">
     <path d="M 91.854688 252.712656 
L 91.854688 241.712656 
" style="fill: none; stroke: #9467bd; stroke-width: 1.5"/>
    </g>
    <g id="line2d_43">
     <path d="M 80.854688 247.212656 
L 102.854688 247.212656 
" style="fill: none; stroke-dasharray: 5.55,2.4; stroke-dashoffset: 0; stroke: #9467bd; stroke-width: 1.5"/>
    </g>
    <g id="line2d_44"/>
    <g id="text_18">
     <!-- ACP_L2 DDR_WC -->
     <g transform="translate(111.654688 251.062656) scale(0.11 -0.11)">
      <use xlink:href="#DejaVuSans-41"/>
      <use xlink:href="#DejaVuSans-43" transform="translate(66.658203 0)"/>
      <use xlink:href="#DejaVuSans-50" transform="translate(136.482422 0)"/>
      <use xlink:href="#DejaVuSans-5f" transform="translate(196.785156 0)"/>
      <use xlink:href="#DejaVuSans-4c" transform="translate(246.785156 0)"/>
      <use xlink:href="#DejaVuSans-32" transform="translate(302.498047 0)"/>
      <use xlink:href="#DejaVuSans-20" transform="translate(366.121094 0)"/>
      <use xlink:href="#DejaVuSans-44" transform="translate(397.908203 0)"/>
      <use xlink:href="#DejaVuSans-44" transform="translate(474.910156 0)"/>
      <use xlink:href="#DejaVuSans-52" transform="translate(551.912109 0)"/>
      <use xlink:href="#DejaVuSans-5f" transform="translate(621.394531 0)"/>
      <use xlink:href="#DejaVuSans-57" transform="translate(671.394531 0)"/>
      <use xlink:href="#DejaVuSans-43" transform="translate(770.271484 0)"/>
     </g>
    </g>
    <g id="LineCollection_16">
     <path d="M 237.065 186.905156 
L 237.065 175.905156 
" style="fill: none; stroke: #8c564b; stroke-width: 1.5"/>
    </g>
    <g id="line2d_45">
     <path d="M 226.065 181.405156 
L 248.065 181.405156 
" style="fill: none; stroke: #8c564b; stroke-width: 1.5; stroke-linecap: square"/>
    </g>
    <g id="line2d_46"/>
    <g id="text_19">
     <!-- ACP_L2 OCM_WC -->
     <g transform="translate(256.865 185.255156) scale(0.11 -0.11)">
      <use xlink:href="#DejaVuSans-41"/>
      <use xlink:href="#DejaVuSans-43" transform="translate(66.658203 0)"/>
      <use xlink:href="#DejaVuSans-50" transform="translate(136.482422 0)"/>
      <use xlink:href="#DejaVuSans-5f" transform="translate(196.785156 0)"/>
      <use xlink:href="#DejaVuSans-4c" transform="translate(246.785156 0)"/>
      <use xlink:href="#DejaVuSans-32" transform="translate(302.498047 0)"/>
      <use xlink:href="#DejaVuSans-20" transform="translate(366.121094 0)"/>
      <use xlink:href="#DejaVuSans-4f" transform="translate(397.908203 0)"/>
      <use xlink:href="#DejaVuSans-43" transform="translate(476.619141 0)"/>
      <use xlink:href="#DejaVuSans-4d" transform="translate(546.443359 0)"/>
      <use xlink:href="#DejaVuSans-5f" transform="translate(632.722656 0)"/>
      <use xlink:href="#DejaVuSans-57" transform="translate(682.722656 0)"/>
      <use xlink:href="#DejaVuSans-43" transform="translate(781.599609 0)"/>
     </g>
    </g>
    <g id="LineCollection_17">
     <path d="M 237.065 203.357031 
L 237.065 192.357031 
" style="fill: none; stroke: #e377c2; stroke-width: 1.5"/>
    </g>
    <g id="line2d_47">
     <path d="M 226.065 197.857031 
L 248.065 197.857031 
" style="fill: none; stroke: #e377c2; stroke-width: 1.5; stroke-linecap: square"/>
    </g>
    <g id="line2d_48"/>
    <g id="text_20">
     <!-- ACP_L1 DDR -->
     <g transform="translate(256.865 201.707031) scale(0.11 -0.11)">
      <use xlink:href="#DejaVuSans-41"/>
      <use xlink:href="#DejaVuSans-43" transform="translate(66.658203 0)"/>
      <use xlink:href="#DejaVuSans-50" transform="translate(136.482422 0)"/>
      <use xlink:href="#DejaVuSans-5f" transform="translate(196.785156 0)"/>
      <use xlink:href="#DejaVuSans-4c" transform="translate(246.785156 0)"/>
      <use xlink:href="#DejaVuSans-31" transform="translate(302.498047 0)"/>
      <use xlink:href="#DejaVuSans-20" transform="translate(366.121094 0)"/>
      <use xlink:href="#DejaVuSans-44" transform="translate(397.908203 0)"/>
      <use xlink:href="#DejaVuSans-44" transform="translate(474.910156 0)"/>
      <use xlink:href="#DejaVuSans-52" transform="translate(551.912109 0)"/>
     </g>
    </g>
    <g id="LineCollection_18">
     <path d="M 237.065 219.808906 
L 237.065 208.808906 
" style="fill: none; stroke: #7f7f7f; stroke-width: 1.5"/>
    </g>
    <g id="line2d_49">
     <path d="M 226.065 214.308906 
L 248.065 214.308906 
" style="fill: none; stroke-dasharray: 5.55,2.4; stroke-dashoffset: 0; stroke: #7f7f7f; stroke-width: 1.5"/>
    </g>
    <g id="line2d_50"/>
    <g id="text_21">
     <!-- ACP_L1 DDR_WC -->
     <g transform="translate(256.865 218.158906) scale(0.11 -0.11)">
      <use xlink:href="#DejaVuSans-41"/>
      <use xlink:href="#DejaVuSans-43" transform="translate(66.658203 0)"/>
      <use xlink:href="#DejaVuSans-50" transform="translate(136.482422 0)"/>
      <use xlink:href="#DejaVuSans-5f" transform="translate(196.785156 0)"/>
      <use xlink:href="#DejaVuSans-4c" transform="translate(246.785156 0)"/>
      <use xlink:href="#DejaVuSans-31" transform="translate(302.498047 0)"/>
      <use xlink:href="#DejaVuSans-20" transform="translate(366.121094 0)"/>
      <use xlink:href="#DejaVuSans-44" transform="translate(397.908203 0)"/>
      <use xlink:href="#DejaVuSans-44" transform="translate(474.910156 0)"/>
      <use xlink:href="#DejaVuSans-52" transform="translate(551.912109 0)"/>
      <use xlink:href="#DejaVuSans-5f" transform="translate(621.394531 0)"/>
      <use xlink:href="#DejaVuSans-57" transform="translate(671.394531 0)"/>
      <use xlink:href="#DejaVuSans-43" transform="translate(770.271484 0)"/>
     </g>
    </g>
    <g id="LineCollection_19">
     <path d="M 237.065 236.260781 
L 237.065 225.260781 
" style="fill: none; stroke: #bcbd22; stroke-width: 1.5"/>
    </g>
    <g id="line2d_51">
     <path d="M 226.065 230.760781 
L 248.065 230.760781 
" style="fill: none; stroke: #bcbd22; stroke-width: 1.5; stroke-linecap: square"/>
    </g>
    <g id="line2d_52"/>
    <g id="text_22">
     <!-- ACP_L1 OCM -->
     <g transform="translate(256.865 234.610781) scale(0.11 -0.11)">
      <use xlink:href="#DejaVuSans-41"/>
      <use xlink:href="#DejaVuSans-43" transform="translate(66.658203 0)"/>
      <use xlink:href="#DejaVuSans-50" transform="translate(136.482422 0)"/>
      <use xlink:href="#DejaVuSans-5f" transform="translate(196.785156 0)"/>
      <use xlink:href="#DejaVuSans-4c" transform="translate(246.785156 0)"/>
      <use xlink:href="#DejaVuSans-31" transform="translate(302.498047 0)"/>
      <use xlink:href="#DejaVuSans-20" transform="translate(366.121094 0)"/>
      <use xlink:href="#DejaVuSans-4f" transform="translate(397.908203 0)"/>
      <use xlink:href="#DejaVuSans-43" transform="translate(476.619141 0)"/>
      <use xlink:href="#DejaVuSans-4d" transform="translate(546.443359 0)"/>
     </g>
    </g>
    <g id="LineCollection_20">
     <path d="M 237.065 252.712656 
L 237.065 241.712656 
" style="fill: none; stroke: #17becf; stroke-width: 1.5"/>
    </g>
    <g id="line2d_53">
     <path d="M 226.065 247.212656 
L 248.065 247.212656 
" style="fill: none; stroke: #17becf; stroke-width: 1.5; stroke-linecap: square"/>
    </g>
    <g id="line2d_54"/>
    <g id="text_23">
     <!-- ACP_L1 OCM_WC -->
     <g transform="translate(256.865 251.062656) scale(0.11 -0.11)">
      <use xlink:href="#DejaVuSans-41"/>
      <use xlink:href="#DejaVuSans-43" transform="translate(66.658203 0)"/>
      <use xlink:href="#DejaVuSans-50" transform="translate(136.482422 0)"/>
      <use xlink:href="#DejaVuSans-5f" transform="translate(196.785156 0)"/>
      <use xlink:href="#DejaVuSans-4c" transform="translate(246.785156 0)"/>
      <use xlink:href="#DejaVuSans-31" transform="translate(302.498047 0)"/>
      <use xlink:href="#DejaVuSans-20" transform="translate(366.121094 0)"/>
      <use xlink:href="#DejaVuSans-4f" transform="translate(397.908203 0)"/>
      <use xlink:href="#DejaVuSans-43" transform="translate(476.619141 0)"/>
      <use xlink:href="#DejaVuSans-4d" transform="translate(546.443359 0)"/>
      <use xlink:href="#DejaVuSans-5f" transform="translate(632.722656 0)"/>
      <use xlink:href="#DejaVuSans-57" transform="translate(682.722656 0)"/>
      <use xlink:href="#DejaVuSans-43" transform="translate(781.599609 0)"/>
     </g>
    </g>
   </g>
  </g>
  <g id="axes_2">
   <g id="patch_8">
    <path d="M 511.414688 263.55625 
L 861.404688 263.55625 
L 861.404688 31.43625 
L 511.414688 31.43625 
L 511.414688 263.55625 
z
" style="fill: none"/>
   </g>
   <g id="matplotlib.axis_3">
    <g id="xtick_10">
     <g id="line2d_55">
      <path d="M 550.302465 263.55625 
L 550.302465 31.43625 
" clip-path="url(#p47c47766d4)" style="fill: none; stroke: #b0b0b0; stroke-width: 0.8; stroke-linecap: square"/>
     </g>
     <g id="line2d_56">
      <g>
       <use xlink:href="#md39032bed2" x="550.302465" y="263.55625" style="stroke: #000000; stroke-width: 0.8"/>
      </g>
     </g>
     <g id="text_24">
      <!-- 256 -->
      <g transform="translate(535.98684 281.953906) scale(0.15 -0.15)">
       <use xlink:href="#DejaVuSans-32"/>
       <use xlink:href="#DejaVuSans-35" transform="translate(63.623047 0)"/>
       <use xlink:href="#DejaVuSans-36" transform="translate(127.246094 0)"/>
      </g>
     </g>
    </g>
    <g id="xtick_11">
     <g id="line2d_57">
      <path d="M 628.078021 263.55625 
L 628.078021 31.43625 
" clip-path="url(#p47c47766d4)" style="fill: none; stroke: #b0b0b0; stroke-width: 0.8; stroke-linecap: square"/>
     </g>
     <g id="line2d_58">
      <g>
       <use xlink:href="#md39032bed2" x="628.078021" y="263.55625" style="stroke: #000000; stroke-width: 0.8"/>
      </g>
     </g>
     <g id="text_25">
      <!-- 1k -->
      <g transform="translate(618.963177 281.953906) scale(0.15 -0.15)">
       <use xlink:href="#DejaVuSans-31"/>
       <use xlink:href="#DejaVuSans-6b" transform="translate(63.623047 0)"/>
      </g>
     </g>
    </g>
    <g id="xtick_12">
     <g id="line2d_59">
      <path d="M 705.853576 263.55625 
L 705.853576 31.43625 
" clip-path="url(#p47c47766d4)" style="fill: none; stroke: #b0b0b0; stroke-width: 0.8; stroke-linecap: square"/>
     </g>
     <g id="line2d_60">
      <g>
       <use xlink:href="#md39032bed2" x="705.853576" y="263.55625" style="stroke: #000000; stroke-width: 0.8"/>
      </g>
     </g>
     <g id="text_26">
      <!-- 4k -->
      <g transform="translate(696.738733 281.953906) scale(0.15 -0.15)">
       <use xlink:href="#DejaVuSans-34"/>
       <use xlink:href="#DejaVuSans-6b" transform="translate(63.623047 0)"/>
      </g>
     </g>
    </g>
    <g id="xtick_13">
     <g id="line2d_61">
      <path d="M 783.629132 263.55625 
L 783.629132 31.43625 
" clip-path="url(#p47c47766d4)" style="fill: none; stroke: #b0b0b0; stroke-width: 0.8; stroke-linecap: square"/>
     </g>
     <g id="line2d_62">
      <g>
       <use xlink:href="#md39032bed2" x="783.629132" y="263.55625" style="stroke: #000000; stroke-width: 0.8"/>
      </g>
     </g>
     <g id="text_27">
      <!-- 16k -->
      <g transform="translate(769.742413 281.953906) scale(0.15 -0.15)">
       <use xlink:href="#DejaVuSans-31"/>
       <use xlink:href="#DejaVuSans-36" transform="translate(63.623047 0)"/>
       <use xlink:href="#DejaVuSans-6b" transform="translate(127.246094 0)"/>
      </g>
     </g>
    </g>
    <g id="xtick_14">
     <g id="line2d_63">
      <path d="M 861.404687 263.55625 
L 861.404687 31.43625 
" clip-path="url(#p47c47766d4)" style="fill: none; stroke: #b0b0b0; stroke-width: 0.8; stroke-linecap: square"/>
     </g>
     <g id="line2d_64">
      <g>
       <use xlink:href="#md39032bed2" x="861.404687" y="263.55625" style="stroke: #000000; stroke-width: 0.8"/>
      </g>
     </g>
     <g id="text_28">
      <!-- 64k -->
      <g transform="translate(847.517969 281.953906) scale(0.15 -0.15)">
       <use xlink:href="#DejaVuSans-36"/>
       <use xlink:href="#DejaVuSans-34" transform="translate(63.623047 0)"/>
       <use xlink:href="#DejaVuSans-6b" transform="translate(127.246094 0)"/>
      </g>
     </g>
    </g>
    <g id="xtick_15">
     <g id="line2d_65">
      <g>
       <use xlink:href="#m00e623f56d" x="589.190243" y="263.55625" style="stroke: #000000; stroke-width: 0.6"/>
      </g>
     </g>
    </g>
    <g id="xtick_16">
     <g id="line2d_66">
      <g>
       <use xlink:href="#m00e623f56d" x="666.965799" y="263.55625" style="stroke: #000000; stroke-width: 0.6"/>
      </g>
     </g>
    </g>
    <g id="xtick_17">
     <g id="line2d_67">
      <g>
       <use xlink:href="#m00e623f56d" x="744.741354" y="263.55625" style="stroke: #000000; stroke-width: 0.6"/>
      </g>
     </g>
    </g>
    <g id="xtick_18">
     <g id="line2d_68">
      <g>
       <use xlink:href="#m00e623f56d" x="822.51691" y="263.55625" style="stroke: #000000; stroke-width: 0.6"/>
      </g>
     </g>
    </g>
    <g id="text_29">
     <!-- Block size (B) -->
     <g transform="translate(618.953438 304.270312) scale(0.2 -0.2)">
      <use xlink:href="#DejaVuSans-42"/>
      <use xlink:href="#DejaVuSans-6c" transform="translate(68.603516 0)"/>
      <use xlink:href="#DejaVuSans-6f" transform="translate(96.386719 0)"/>
      <use xlink:href="#DejaVuSans-63" transform="translate(157.568359 0)"/>
      <use xlink:href="#DejaVuSans-6b" transform="translate(212.548828 0)"/>
      <use xlink:href="#DejaVuSans-20" transform="translate(270.458984 0)"/>
      <use xlink:href="#DejaVuSans-73" transform="translate(302.246094 0)"/>
      <use xlink:href="#DejaVuSans-69" transform="translate(354.345703 0)"/>
      <use xlink:href="#DejaVuSans-7a" transform="translate(382.128906 0)"/>
      <use xlink:href="#DejaVuSans-65" transform="translate(434.619141 0)"/>
      <use xlink:href="#DejaVuSans-20" transform="translate(496.142578 0)"/>
      <use xlink:href="#DejaVuSans-28" transform="translate(527.929688 0)"/>
      <use xlink:href="#DejaVuSans-42" transform="translate(566.943359 0)"/>
      <use xlink:href="#DejaVuSans-29" transform="translate(635.546875 0)"/>
     </g>
    </g>
   </g>
   <g id="matplotlib.axis_4">
    <g id="ytick_6">
     <g id="line2d_69">
      <path d="M 511.414688 209.994515 
L 861.404688 209.994515 
" clip-path="url(#p47c47766d4)" style="fill: none; stroke: #b0b0b0; stroke-width: 0.8; stroke-linecap: square"/>
     </g>
     <g id="line2d_70">
      <g>
       <use xlink:href="#m6f3f5b6aff" x="511.414688" y="209.994515" style="stroke: #000000; stroke-width: 0.8"/>
      </g>
     </g>
     <g id="text_30">
      <!-- 0.2 -->
      <g transform="translate(480.56 215.693343) scale(0.15 -0.15)">
       <use xlink:href="#DejaVuSans-30"/>
       <use xlink:href="#DejaVuSans-2e" transform="translate(63.623047 0)"/>
       <use xlink:href="#DejaVuSans-32" transform="translate(95.410156 0)"/>
      </g>
     </g>
    </g>
    <g id="ytick_7">
     <g id="line2d_71">
      <path d="M 511.414688 151.160499 
L 861.404688 151.160499 
" clip-path="url(#p47c47766d4)" style="fill: none; stroke: #b0b0b0; stroke-width: 0.8; stroke-linecap: square"/>
     </g>
     <g id="line2d_72">
      <g>
       <use xlink:href="#m6f3f5b6aff" x="511.414688" y="151.160499" style="stroke: #000000; stroke-width: 0.8"/>
      </g>
     </g>
     <g id="text_31">
      <!-- 0.4 -->
      <g transform="translate(480.56 156.859327) scale(0.15 -0.15)">
       <use xlink:href="#DejaVuSans-30"/>
       <use xlink:href="#DejaVuSans-2e" transform="translate(63.623047 0)"/>
       <use xlink:href="#DejaVuSans-34" transform="translate(95.410156 0)"/>
      </g>
     </g>
    </g>
    <g id="ytick_8">
     <g id="line2d_73">
      <path d="M 511.414688 92.326483 
L 861.404688 92.326483 
" clip-path="url(#p47c47766d4)" style="fill: none; stroke: #b0b0b0; stroke-width: 0.8; stroke-linecap: square"/>
     </g>
     <g id="line2d_74">
      <g>
       <use xlink:href="#m6f3f5b6aff" x="511.414688" y="92.326483" style="stroke: #000000; stroke-width: 0.8"/>
      </g>
     </g>
     <g id="text_32">
      <!-- 0.6 -->
      <g transform="translate(480.56 98.025312) scale(0.15 -0.15)">
       <use xlink:href="#DejaVuSans-30"/>
       <use xlink:href="#DejaVuSans-2e" transform="translate(63.623047 0)"/>
       <use xlink:href="#DejaVuSans-36" transform="translate(95.410156 0)"/>
      </g>
     </g>
    </g>
    <g id="ytick_9">
     <g id="line2d_75">
      <path d="M 511.414688 33.492468 
L 861.404688 33.492468 
" clip-path="url(#p47c47766d4)" style="fill: none; stroke: #b0b0b0; stroke-width: 0.8; stroke-linecap: square"/>
     </g>
     <g id="line2d_76">
      <g>
       <use xlink:href="#m6f3f5b6aff" x="511.414688" y="33.492468" style="stroke: #000000; stroke-width: 0.8"/>
      </g>
     </g>
     <g id="text_33">
      <!-- 0.8 -->
      <g transform="translate(480.56 39.191296) scale(0.15 -0.15)">
       <use xlink:href="#DejaVuSans-30"/>
       <use xlink:href="#DejaVuSans-2e" transform="translate(63.623047 0)"/>
       <use xlink:href="#DejaVuSans-38" transform="translate(95.410156 0)"/>
      </g>
     </g>
    </g>
    <g id="text_34">
     <!-- Throughput (B/ns) -->
     <g transform="translate(472.400625 238.33375) rotate(-90) scale(0.2 -0.2)">
      <defs>
       <path id="DejaVuSans-54" d="M -19 4666 
L 3928 4666 
L 3928 4134 
L 2272 4134 
L 2272 0 
L 1638 0 
L 1638 4134 
L -19 4134 
L -19 4666 
z
" transform="scale(0.015625)"/>
       <path id="DejaVuSans-68" d="M 3513 2113 
L 3513 0 
L 2938 0 
L 2938 2094 
Q 2938 2591 2744 2837 
Q 2550 3084 2163 3084 
Q 1697 3084 1428 2787 
Q 1159 2491 1159 1978 
L 1159 0 
L 581 0 
L 581 4863 
L 1159 4863 
L 1159 2956 
Q 1366 3272 1645 3428 
Q 1925 3584 2291 3584 
Q 2894 3584 3203 3211 
Q 3513 2838 3513 2113 
z
" transform="scale(0.015625)"/>
       <path id="DejaVuSans-75" d="M 544 1381 
L 544 3500 
L 1119 3500 
L 1119 1403 
Q 1119 906 1312 657 
Q 1506 409 1894 409 
Q 2359 409 2629 706 
Q 2900 1003 2900 1516 
L 2900 3500 
L 3475 3500 
L 3475 0 
L 2900 0 
L 2900 538 
Q 2691 219 2414 64 
Q 2138 -91 1772 -91 
Q 1169 -91 856 284 
Q 544 659 544 1381 
z
M 1991 3584 
L 1991 3584 
z
" transform="scale(0.015625)"/>
       <path id="DejaVuSans-67" d="M 2906 1791 
Q 2906 2416 2648 2759 
Q 2391 3103 1925 3103 
Q 1463 3103 1205 2759 
Q 947 2416 947 1791 
Q 947 1169 1205 825 
Q 1463 481 1925 481 
Q 2391 481 2648 825 
Q 2906 1169 2906 1791 
z
M 3481 434 
Q 3481 -459 3084 -895 
Q 2688 -1331 1869 -1331 
Q 1566 -1331 1297 -1286 
Q 1028 -1241 775 -1147 
L 775 -588 
Q 1028 -725 1275 -790 
Q 1522 -856 1778 -856 
Q 2344 -856 2625 -561 
Q 2906 -266 2906 331 
L 2906 616 
Q 2728 306 2450 153 
Q 2172 0 1784 0 
Q 1141 0 747 490 
Q 353 981 353 1791 
Q 353 2603 747 3093 
Q 1141 3584 1784 3584 
Q 2172 3584 2450 3431 
Q 2728 3278 2906 2969 
L 2906 3500 
L 3481 3500 
L 3481 434 
z
" transform="scale(0.015625)"/>
       <path id="DejaVuSans-2f" d="M 1625 4666 
L 2156 4666 
L 531 -594 
L 0 -594 
L 1625 4666 
z
" transform="scale(0.015625)"/>
      </defs>
      <use xlink:href="#DejaVuSans-54"/>
      <use xlink:href="#DejaVuSans-68" transform="translate(61.083984 0)"/>
      <use xlink:href="#DejaVuSans-72" transform="translate(124.462891 0)"/>
      <use xlink:href="#DejaVuSans-6f" transform="translate(163.326172 0)"/>
      <use xlink:href="#DejaVuSans-75" transform="translate(224.507812 0)"/>
      <use xlink:href="#DejaVuSans-67" transform="translate(287.886719 0)"/>
      <use xlink:href="#DejaVuSans-68" transform="translate(351.363281 0)"/>
      <use xlink:href="#DejaVuSans-70" transform="translate(414.742188 0)"/>
      <use xlink:href="#DejaVuSans-75" transform="translate(478.21875 0)"/>
      <use xlink:href="#DejaVuSans-74" transform="translate(541.597656 0)"/>
      <use xlink:href="#DejaVuSans-20" transform="translate(580.806641 0)"/>
      <use xlink:href="#DejaVuSans-28" transform="translate(612.59375 0)"/>
      <use xlink:href="#DejaVuSans-42" transform="translate(651.607422 0)"/>
      <use xlink:href="#DejaVuSans-2f" transform="translate(720.210938 0)"/>
      <use xlink:href="#DejaVuSans-6e" transform="translate(753.902344 0)"/>
      <use xlink:href="#DejaVuSans-73" transform="translate(817.28125 0)"/>
      <use xlink:href="#DejaVuSans-29" transform="translate(869.380859 0)"/>
     </g>
    </g>
   </g>
   <g id="LineCollection_21">
    <path d="M 511.414688 252.725432 
L 511.414688 252.639087 
" clip-path="url(#p47c47766d4)" style="fill: none; stroke: #1f77b4; stroke-width: 1.5"/>
    <path d="M 550.302465 239.145084 
L 550.302465 238.799885 
" clip-path="url(#p47c47766d4)" style="fill: none; stroke: #1f77b4; stroke-width: 1.5"/>
    <path d="M 589.190243 217.026587 
L 589.190243 216.757202 
" clip-path="url(#p47c47766d4)" style="fill: none; stroke: #1f77b4; stroke-width: 1.5"/>
    <path d="M 628.078021 189.686099 
L 628.078021 189.4265 
" clip-path="url(#p47c47766d4)" style="fill: none; stroke: #1f77b4; stroke-width: 1.5"/>
    <path d="M 666.965799 160.119918 
L 666.965799 159.840849 
" clip-path="url(#p47c47766d4)" style="fill: none; stroke: #1f77b4; stroke-width: 1.5"/>
    <path d="M 705.853576 139.689404 
L 705.853576 139.493104 
" clip-path="url(#p47c47766d4)" style="fill: none; stroke: #1f77b4; stroke-width: 1.5"/>
    <path d="M 783.629132 115.763174 
L 783.629132 115.413343 
" clip-path="url(#p47c47766d4)" style="fill: none; stroke: #1f77b4; stroke-width: 1.5"/>
    <path d="M 822.51691 111.759747 
L 822.51691 111.576198 
" clip-path="url(#p47c47766d4)" style="fill: none; stroke: #1f77b4; stroke-width: 1.5"/>
    <path d="M 861.404687 110.126576 
L 861.404687 110.054537 
" clip-path="url(#p47c47766d4)" style="fill: none; stroke: #1f77b4; stroke-width: 1.5"/>
   </g>
   <g id="LineCollection_22">
    <path d="M 511.414688 248.987964 
L 511.414688 248.878695 
" clip-path="url(#p47c47766d4)" style="fill: none; stroke: #ff7f0e; stroke-width: 1.5"/>
    <path d="M 550.302465 232.441963 
L 550.302465 232.286456 
" clip-path="url(#p47c47766d4)" style="fill: none; stroke: #ff7f0e; stroke-width: 1.5"/>
    <path d="M 589.190243 206.052358 
L 589.190243 205.725332 
" clip-path="url(#p47c47766d4)" style="fill: none; stroke: #ff7f0e; stroke-width: 1.5"/>
    <path d="M 628.078021 169.804146 
L 628.078021 169.575255 
" clip-path="url(#p47c47766d4)" style="fill: none; stroke: #ff7f0e; stroke-width: 1.5"/>
    <path d="M 666.965799 128.009655 
L 666.965799 127.722084 
" clip-path="url(#p47c47766d4)" style="fill: none; stroke: #ff7f0e; stroke-width: 1.5"/>
    <path d="M 705.853576 94.28221 
L 705.853576 93.768852 
" clip-path="url(#p47c47766d4)" style="fill: none; stroke: #ff7f0e; stroke-width: 1.5"/>
    <path d="M 783.629132 53.545763 
L 783.629132 52.710481 
" clip-path="url(#p47c47766d4)" style="fill: none; stroke: #ff7f0e; stroke-width: 1.5"/>
    <path d="M 822.51691 46.885102 
L 822.51691 46.634939 
" clip-path="url(#p47c47766d4)" style="fill: none; stroke: #ff7f0e; stroke-width: 1.5"/>
    <path d="M 861.404687 42.168663 
L 861.404687 42.081323 
" clip-path="url(#p47c47766d4)" style="fill: none; stroke: #ff7f0e; stroke-width: 1.5"/>
   </g>
   <g id="LineCollection_23">
    <path d="M 511.414688 253.005341 
L 511.414688 252.903624 
" clip-path="url(#p47c47766d4)" style="fill: none; stroke: #2ca02c; stroke-width: 1.5"/>
    <path d="M 550.302465 239.436369 
L 550.302465 239.277491 
" clip-path="url(#p47c47766d4)" style="fill: none; stroke: #2ca02c; stroke-width: 1.5"/>
    <path d="M 589.190243 217.744717 
L 589.190243 217.480209 
" clip-path="url(#p47c47766d4)" style="fill: none; stroke: #2ca02c; stroke-width: 1.5"/>
    <path d="M 628.078021 190.83685 
L 628.078021 190.49867 
" clip-path="url(#p47c47766d4)" style="fill: none; stroke: #2ca02c; stroke-width: 1.5"/>
    <path d="M 666.965799 161.052427 
L 666.965799 160.751766 
" clip-path="url(#p47c47766d4)" style="fill: none; stroke: #2ca02c; stroke-width: 1.5"/>
    <path d="M 705.853576 140.261749 
L 705.853576 140.066694 
" clip-path="url(#p47c47766d4)" style="fill: none; stroke: #2ca02c; stroke-width: 1.5"/>
    <path d="M 783.629132 115.592862 
L 783.629132 115.436498 
" clip-path="url(#p47c47766d4)" style="fill: none; stroke: #2ca02c; stroke-width: 1.5"/>
    <path d="M 822.51691 111.816443 
L 822.51691 111.667216 
" clip-path="url(#p47c47766d4)" style="fill: none; stroke: #2ca02c; stroke-width: 1.5"/>
    <path d="M 861.404687 110.168306 
L 861.404687 110.123212 
" clip-path="url(#p47c47766d4)" style="fill: none; stroke: #2ca02c; stroke-width: 1.5"/>
   </g>
   <g id="LineCollection_24">
    <path d="M 511.414688 248.985396 
L 511.414688 248.867996 
" clip-path="url(#p47c47766d4)" style="fill: none; stroke: #d62728; stroke-width: 1.5"/>
    <path d="M 550.302465 232.405024 
L 550.302465 232.28032 
" clip-path="url(#p47c47766d4)" style="fill: none; stroke: #d62728; stroke-width: 1.5"/>
    <path d="M 589.190243 205.915612 
L 589.190243 205.654901 
" clip-path="url(#p47c47766d4)" style="fill: none; stroke: #d62728; stroke-width: 1.5"/>
    <path d="M 628.078021 170.093183 
L 628.078021 169.836465 
" clip-path="url(#p47c47766d4)" style="fill: none; stroke: #d62728; stroke-width: 1.5"/>
    <path d="M 666.965799 127.928012 
L 666.965799 127.65583 
" clip-path="url(#p47c47766d4)" style="fill: none; stroke: #d62728; stroke-width: 1.5"/>
    <path d="M 705.853576 94.290313 
L 705.853576 93.823963 
" clip-path="url(#p47c47766d4)" style="fill: none; stroke: #d62728; stroke-width: 1.5"/>
    <path d="M 783.629132 53.424598 
L 783.629132 52.646918 
" clip-path="url(#p47c47766d4)" style="fill: none; stroke: #d62728; stroke-width: 1.5"/>
    <path d="M 822.51691 46.766277 
L 822.51691 46.442585 
" clip-path="url(#p47c47766d4)" style="fill: none; stroke: #d62728; stroke-width: 1.5"/>
    <path d="M 861.404687 42.131754 
L 861.404687 41.987159 
" clip-path="url(#p47c47766d4)" style="fill: none; stroke: #d62728; stroke-width: 1.5"/>
   </g>
   <g id="LineCollection_25">
    <path d="M 511.414688 248.954509 
L 511.414688 248.839374 
" clip-path="url(#p47c47766d4)" style="fill: none; stroke: #9467bd; stroke-width: 1.5"/>
    <path d="M 550.302465 232.404473 
L 550.302465 232.300717 
" clip-path="url(#p47c47766d4)" style="fill: none; stroke: #9467bd; stroke-width: 1.5"/>
    <path d="M 589.190243 205.710612 
L 589.190243 205.339981 
" clip-path="url(#p47c47766d4)" style="fill: none; stroke: #9467bd; stroke-width: 1.5"/>
    <path d="M 628.078021 169.711464 
L 628.078021 169.483603 
" clip-path="url(#p47c47766d4)" style="fill: none; stroke: #9467bd; stroke-width: 1.5"/>
    <path d="M 666.965799 127.847931 
L 666.965799 127.576572 
" clip-path="url(#p47c47766d4)" style="fill: none; stroke: #9467bd; stroke-width: 1.5"/>
    <path d="M 705.853576 94.183838 
L 705.853576 93.775308 
" clip-path="url(#p47c47766d4)" style="fill: none; stroke: #9467bd; stroke-width: 1.5"/>
    <path d="M 783.629132 53.211952 
L 783.629132 52.319136 
" clip-path="url(#p47c47766d4)" style="fill: none; stroke: #9467bd; stroke-width: 1.5"/>
    <path d="M 822.51691 46.690586 
L 822.51691 46.470807 
" clip-path="url(#p47c47766d4)" style="fill: none; stroke: #9467bd; stroke-width: 1.5"/>
    <path d="M 861.404687 42.122501 
L 861.404687 42.031004 
" clip-path="url(#p47c47766d4)" style="fill: none; stroke: #9467bd; stroke-width: 1.5"/>
   </g>
   <g id="LineCollection_26">
    <path d="M 511.414688 248.966305 
L 511.414688 248.830379 
" clip-path="url(#p47c47766d4)" style="fill: none; stroke: #8c564b; stroke-width: 1.5"/>
    <path d="M 550.302465 232.393249 
L 550.302465 232.279136 
" clip-path="url(#p47c47766d4)" style="fill: none; stroke: #8c564b; stroke-width: 1.5"/>
    <path d="M 589.190243 205.941484 
L 589.190243 205.690879 
" clip-path="url(#p47c47766d4)" style="fill: none; stroke: #8c564b; stroke-width: 1.5"/>
    <path d="M 628.078021 169.718291 
L 628.078021 169.521685 
" clip-path="url(#p47c47766d4)" style="fill: none; stroke: #8c564b; stroke-width: 1.5"/>
    <path d="M 666.965799 128.540492 
L 666.965799 128.340956 
" clip-path="url(#p47c47766d4)" style="fill: none; stroke: #8c564b; stroke-width: 1.5"/>
    <path d="M 705.853576 94.287412 
L 705.853576 93.85291 
" clip-path="url(#p47c47766d4)" style="fill: none; stroke: #8c564b; stroke-width: 1.5"/>
    <path d="M 783.629132 53.535136 
L 783.629132 52.897007 
" clip-path="url(#p47c47766d4)" style="fill: none; stroke: #8c564b; stroke-width: 1.5"/>
    <path d="M 822.51691 46.882134 
L 822.51691 46.667724 
" clip-path="url(#p47c47766d4)" style="fill: none; stroke: #8c564b; stroke-width: 1.5"/>
    <path d="M 861.404687 42.126948 
L 861.404687 42.034833 
" clip-path="url(#p47c47766d4)" style="fill: none; stroke: #8c564b; stroke-width: 1.5"/>
   </g>
   <g id="line2d_77">
    <path d="M 511.414688 252.682259 
L 550.302465 238.972484 
L 589.190243 216.891894 
L 628.078021 189.556299 
L 666.965799 159.980383 
L 705.853576 139.591254 
L 783.629132 115.588259 
L 822.51691 111.667972 
L 861.404687 110.090556 
" clip-path="url(#p47c47766d4)" style="fill: none; stroke: #1f77b4; stroke-width: 1.5; stroke-linecap: square"/>
   </g>
   <g id="line2d_78">
    <path d="M 511.414688 248.93333 
L 550.302465 232.364209 
L 589.190243 205.888845 
L 628.078021 169.6897 
L 666.965799 127.86587 
L 705.853576 94.025531 
L 783.629132 53.128122 
L 822.51691 46.760021 
L 861.404687 42.124993 
" clip-path="url(#p47c47766d4)" style="fill: none; stroke: #ff7f0e; stroke-width: 1.5; stroke-linecap: square"/>
   </g>
   <g id="line2d_79">
    <path d="M 511.414688 252.954483 
L 550.302465 239.35693 
L 589.190243 217.612463 
L 628.078021 190.66776 
L 666.965799 160.902097 
L 705.853576 140.164222 
L 783.629132 115.51468 
L 822.51691 111.74183 
L 861.404687 110.145759 
" clip-path="url(#p47c47766d4)" style="fill: none; stroke: #2ca02c; stroke-width: 1.5; stroke-linecap: square"/>
   </g>
   <g id="line2d_80">
    <path d="M 511.414688 248.926696 
L 550.302465 232.342672 
L 589.190243 205.785256 
L 628.078021 169.964824 
L 666.965799 127.791921 
L 705.853576 94.057138 
L 783.629132 53.035758 
L 822.51691 46.604431 
L 861.404687 42.059456 
" clip-path="url(#p47c47766d4)" style="fill: none; stroke: #d62728; stroke-width: 1.5; stroke-linecap: square"/>
   </g>
   <g id="line2d_81">
    <path d="M 511.414688 248.896941 
L 550.302465 232.352595 
L 589.190243 205.525296 
L 628.078021 169.597534 
L 666.965799 127.712251 
L 705.853576 93.979573 
L 783.629132 52.765544 
L 822.51691 46.580697 
L 861.404687 42.076752 
" clip-path="url(#p47c47766d4)" style="fill: none; stroke: #9467bd; stroke-width: 1.5; stroke-linecap: square"/>
   </g>
   <g id="line2d_82">
    <path d="M 511.414688 248.898342 
L 550.302465 232.336193 
L 589.190243 205.816181 
L 628.078021 169.619988 
L 666.965799 128.440724 
L 705.853576 94.070161 
L 783.629132 53.216071 
L 822.51691 46.774929 
L 861.404687 42.080891 
" clip-path="url(#p47c47766d4)" style="fill: none; stroke: #8c564b; stroke-width: 1.5; stroke-linecap: square"/>
   </g>
   <g id="patch_9">
    <path d="M 511.414688 263.55625 
L 511.414688 31.43625 
" style="fill: none; stroke: #000000; stroke-width: 0.8; stroke-linejoin: miter; stroke-linecap: square"/>
   </g>
   <g id="patch_10">
    <path d="M 861.404688 263.55625 
L 861.404688 31.43625 
" style="fill: none; stroke: #000000; stroke-width: 0.8; stroke-linejoin: miter; stroke-linecap: square"/>
   </g>
   <g id="patch_11">
    <path d="M 511.414688 263.55625 
L 861.404687 263.55625 
" style="fill: none; stroke: #000000; stroke-width: 0.8; stroke-linejoin: miter; stroke-linecap: square"/>
   </g>
   <g id="patch_12">
    <path d="M 511.414688 31.43625 
L 861.404687 31.43625 
" style="fill: none; stroke: #000000; stroke-width: 0.8; stroke-linejoin: miter; stroke-linecap: square"/>
   </g>
   <g id="text_35">
    <!-- DMA prep (slow) -->
    <g transform="translate(587.591563 25.43625) scale(0.24 -0.24)">
     <defs>
      <path id="DejaVuSans-77" d="M 269 3500 
L 844 3500 
L 1563 769 
L 2278 3500 
L 2956 3500 
L 3675 769 
L 4391 3500 
L 4966 3500 
L 4050 0 
L 3372 0 
L 2619 2869 
L 1863 0 
L 1184 0 
L 269 3500 
z
" transform="scale(0.015625)"/>
     </defs>
     <use xlink:href="#DejaVuSans-44"/>
     <use xlink:href="#DejaVuSans-4d" transform="translate(77.001953 0)"/>
     <use xlink:href="#DejaVuSans-41" transform="translate(163.28125 0)"/>
     <use xlink:href="#DejaVuSans-20" transform="translate(231.689453 0)"/>
     <use xlink:href="#DejaVuSans-70" transform="translate(263.476562 0)"/>
     <use xlink:href="#DejaVuSans-72" transform="translate(326.953125 0)"/>
     <use xlink:href="#DejaVuSans-65" transform="translate(365.816406 0)"/>
     <use xlink:href="#DejaVuSans-70" transform="translate(427.339844 0)"/>
     <use xlink:href="#DejaVuSans-20" transform="translate(490.816406 0)"/>
     <use xlink:href="#DejaVuSans-28" transform="translate(522.603516 0)"/>
     <use xlink:href="#DejaVuSans-73" transform="translate(561.617188 0)"/>
     <use xlink:href="#DejaVuSans-6c" transform="translate(613.716797 0)"/>
     <use xlink:href="#DejaVuSans-6f" transform="translate(641.5 0)"/>
     <use xlink:href="#DejaVuSans-77" transform="translate(702.681641 0)"/>
     <use xlink:href="#DejaVuSans-29" transform="translate(784.46875 0)"/>
    </g>
   </g>
   <g id="legend_2">
    <g id="patch_13">
     <path d="M 646.37875 258.05625 
L 853.704687 258.05625 
Q 855.904688 258.05625 855.904688 255.85625 
L 855.904688 207.906563 
Q 855.904688 205.706562 853.704687 205.706562 
L 646.37875 205.706562 
Q 644.17875 205.706562 644.17875 207.906563 
L 644.17875 255.85625 
Q 644.17875 258.05625 646.37875 258.05625 
z
" style="fill: #ffffff; opacity: 0.8; stroke: #cccccc; stroke-linejoin: miter"/>
    </g>
    <g id="LineCollection_27">
     <path d="M 659.57875 220.114844 
L 659.57875 209.114844 
" style="fill: none; stroke: #1f77b4; stroke-width: 1.5"/>
    </g>
    <g id="line2d_83">
     <path d="M 648.57875 214.614844 
L 670.57875 214.614844 
" style="fill: none; stroke: #1f77b4; stroke-width: 1.5; stroke-linecap: square"/>
    </g>
    <g id="line2d_84"/>
    <g id="text_36">
     <!-- HP DDR -->
     <g transform="translate(679.37875 218.464844) scale(0.11 -0.11)">
      <use xlink:href="#DejaVuSans-48"/>
      <use xlink:href="#DejaVuSans-50" transform="translate(75.195312 0)"/>
      <use xlink:href="#DejaVuSans-20" transform="translate(135.498047 0)"/>
      <use xlink:href="#DejaVuSans-44" transform="translate(167.285156 0)"/>
      <use xlink:href="#DejaVuSans-44" transform="translate(244.287109 0)"/>
      <use xlink:href="#DejaVuSans-52" transform="translate(321.289062 0)"/>
     </g>
    </g>
    <g id="LineCollection_28">
     <path d="M 659.57875 236.260781 
L 659.57875 225.260781 
" style="fill: none; stroke: #ff7f0e; stroke-width: 1.5"/>
    </g>
    <g id="line2d_85">
     <path d="M 648.57875 230.760781 
L 670.57875 230.760781 
" style="fill: none; stroke: #ff7f0e; stroke-width: 1.5; stroke-linecap: square"/>
    </g>
    <g id="line2d_86"/>
    <g id="text_37">
     <!-- HP OCM -->
     <g transform="translate(679.37875 234.610781) scale(0.11 -0.11)">
      <use xlink:href="#DejaVuSans-48"/>
      <use xlink:href="#DejaVuSans-50" transform="translate(75.195312 0)"/>
      <use xlink:href="#DejaVuSans-20" transform="translate(135.498047 0)"/>
      <use xlink:href="#DejaVuSans-4f" transform="translate(167.285156 0)"/>
      <use xlink:href="#DejaVuSans-43" transform="translate(245.996094 0)"/>
      <use xlink:href="#DejaVuSans-4d" transform="translate(315.820312 0)"/>
     </g>
    </g>
    <g id="LineCollection_29">
     <path d="M 659.57875 252.406719 
L 659.57875 241.406719 
" style="fill: none; stroke: #2ca02c; stroke-width: 1.5"/>
    </g>
    <g id="line2d_87">
     <path d="M 648.57875 246.906719 
L 670.57875 246.906719 
" style="fill: none; stroke: #2ca02c; stroke-width: 1.5; stroke-linecap: square"/>
    </g>
    <g id="line2d_88"/>
    <g id="text_38">
     <!-- ACP DDR -->
     <g transform="translate(679.37875 250.756719) scale(0.11 -0.11)">
      <use xlink:href="#DejaVuSans-41"/>
      <use xlink:href="#DejaVuSans-43" transform="translate(66.658203 0)"/>
      <use xlink:href="#DejaVuSans-50" transform="translate(136.482422 0)"/>
      <use xlink:href="#DejaVuSans-20" transform="translate(196.785156 0)"/>
      <use xlink:href="#DejaVuSans-44" transform="translate(228.572266 0)"/>
      <use xlink:href="#DejaVuSans-44" transform="translate(305.574219 0)"/>
      <use xlink:href="#DejaVuSans-52" transform="translate(382.576172 0)"/>
     </g>
    </g>
    <g id="LineCollection_30">
     <path d="M 762.103906 220.114844 
L 762.103906 209.114844 
" style="fill: none; stroke: #d62728; stroke-width: 1.5"/>
    </g>
    <g id="line2d_89">
     <path d="M 751.103906 214.614844 
L 773.103906 214.614844 
" style="fill: none; stroke: #d62728; stroke-width: 1.5; stroke-linecap: square"/>
    </g>
    <g id="line2d_90"/>
    <g id="text_39">
     <!-- ACP OCM -->
     <g transform="translate(781.903906 218.464844) scale(0.11 -0.11)">
      <use xlink:href="#DejaVuSans-41"/>
      <use xlink:href="#DejaVuSans-43" transform="translate(66.658203 0)"/>
      <use xlink:href="#DejaVuSans-50" transform="translate(136.482422 0)"/>
      <use xlink:href="#DejaVuSans-20" transform="translate(196.785156 0)"/>
      <use xlink:href="#DejaVuSans-4f" transform="translate(228.572266 0)"/>
      <use xlink:href="#DejaVuSans-43" transform="translate(307.283203 0)"/>
      <use xlink:href="#DejaVuSans-4d" transform="translate(377.107422 0)"/>
     </g>
    </g>
    <g id="LineCollection_31">
     <path d="M 762.103906 236.260781 
L 762.103906 225.260781 
" style="fill: none; stroke: #9467bd; stroke-width: 1.5"/>
    </g>
    <g id="line2d_91">
     <path d="M 751.103906 230.760781 
L 773.103906 230.760781 
" style="fill: none; stroke: #9467bd; stroke-width: 1.5; stroke-linecap: square"/>
    </g>
    <g id="line2d_92"/>
    <g id="text_40">
     <!-- ACP_L2 DDR -->
     <g transform="translate(781.903906 234.610781) scale(0.11 -0.11)">
      <use xlink:href="#DejaVuSans-41"/>
      <use xlink:href="#DejaVuSans-43" transform="translate(66.658203 0)"/>
      <use xlink:href="#DejaVuSans-50" transform="translate(136.482422 0)"/>
      <use xlink:href="#DejaVuSans-5f" transform="translate(196.785156 0)"/>
      <use xlink:href="#DejaVuSans-4c" transform="translate(246.785156 0)"/>
      <use xlink:href="#DejaVuSans-32" transform="translate(302.498047 0)"/>
      <use xlink:href="#DejaVuSans-20" transform="translate(366.121094 0)"/>
      <use xlink:href="#DejaVuSans-44" transform="translate(397.908203 0)"/>
      <use xlink:href="#DejaVuSans-44" transform="translate(474.910156 0)"/>
      <use xlink:href="#DejaVuSans-52" transform="translate(551.912109 0)"/>
     </g>
    </g>
    <g id="LineCollection_32">
     <path d="M 762.103906 252.712656 
L 762.103906 241.712656 
" style="fill: none; stroke: #8c564b; stroke-width: 1.5"/>
    </g>
    <g id="line2d_93">
     <path d="M 751.103906 247.212656 
L 773.103906 247.212656 
" style="fill: none; stroke: #8c564b; stroke-width: 1.5; stroke-linecap: square"/>
    </g>
    <g id="line2d_94"/>
    <g id="text_41">
     <!-- ACP_L2 OCM -->
     <g transform="translate(781.903906 251.062656) scale(0.11 -0.11)">
      <use xlink:href="#DejaVuSans-41"/>
      <use xlink:href="#DejaVuSans-43" transform="translate(66.658203 0)"/>
      <use xlink:href="#DejaVuSans-50" transform="translate(136.482422 0)"/>
      <use xlink:href="#DejaVuSans-5f" transform="translate(196.785156 0)"/>
      <use xlink:href="#DejaVuSans-4c" transform="translate(246.785156 0)"/>
      <use xlink:href="#DejaVuSans-32" transform="translate(302.498047 0)"/>
      <use xlink:href="#DejaVuSans-20" transform="translate(366.121094 0)"/>
      <use xlink:href="#DejaVuSans-4f" transform="translate(397.908203 0)"/>
      <use xlink:href="#DejaVuSans-43" transform="translate(476.619141 0)"/>
      <use xlink:href="#DejaVuSans-4d" transform="translate(546.443359 0)"/>
     </g>
    </g>
   </g>
  </g>
 </g>
 <defs>
  <clipPath id="pdd455ddcdd">
   <rect x="70.954688" y="31.43625" width="349.99" height="232.12"/>
  </clipPath>
  <clipPath id="p47c47766d4">
   <rect x="511.414688" y="31.43625" width="349.99" height="232.12"/>
  </clipPath>
 </defs>
</svg>
