<?xml version="1.0" encoding="utf-8" standalone="no"?>
<!DOCTYPE svg PUBLIC "-//W3C//DTD SVG 1.1//EN"
  "http://www.w3.org/Graphics/SVG/1.1/DTD/svg11.dtd">
<svg xmlns:xlink="http://www.w3.org/1999/xlink" width="892.00375pt" height="315.629687pt" viewBox="0 0 892.00375 315.629687" xmlns="http://www.w3.org/2000/svg" version="1.1">
 <defs>
  <style type="text/css">*{stroke-linejoin: round; stroke-linecap: butt}</style>
 </defs>
 <g id="figure_1">
  <g id="patch_1">
   <path d="M -0 315.629687 
L 892.00375 315.629687 
L 892.00375 0 
L -0 0 
L -0 315.629687 
z
" style="fill: none"/>
  </g>
  <g id="axes_1">
   <g id="patch_2">
    <path d="M 56.64375 263.55625 
L 434.80375 263.55625 
L 434.80375 31.43625 
L 56.64375 31.43625 
L 56.64375 263.55625 
z
" style="fill: none"/>
   </g>
   <g id="matplotlib.axis_1">
    <g id="xtick_1">
     <g id="line2d_1">
      <path d="M 122.82175 263.55625 
L 122.82175 31.43625 
" clip-path="url(#p7c22f98d01)" style="fill: none; stroke: #b0b0b0; stroke-width: 0.8; stroke-linecap: square"/>
     </g>
     <g id="line2d_2">
      <defs>
       <path id="md39032bed2" d="M 0 0 
L 0 3.5 
" style="stroke: #000000; stroke-width: 0.8"/>
      </defs>
      <g>
       <use xlink:href="#md39032bed2" x="122.82175" y="263.55625" style="stroke: #000000; stroke-width: 0.8"/>
      </g>
     </g>
     <g id="text_1">
      <!-- 6.9 -->
      <g transform="translate(110.894406 281.953906) scale(0.15 -0.15)">
       <defs>
        <path id="DejaVuSans-36" d="M 2113 2584 
Q 1688 2584 1439 2293 
Q 1191 2003 1191 1497 
Q 1191 994 1439 701 
Q 1688 409 2113 409 
Q 2538 409 2786 701 
Q 3034 994 3034 1497 
Q 3034 2003 2786 2293 
Q 2538 2584 2113 2584 
z
M 3366 4563 
L 3366 3988 
Q 3128 4100 2886 4159 
Q 2644 4219 2406 4219 
Q 1781 4219 1451 3797 
Q 1122 3375 1075 2522 
Q 1259 2794 1537 2939 
Q 1816 3084 2150 3084 
Q 2853 3084 3261 2657 
Q 3669 2231 3669 1497 
Q 3669 778 3244 343 
Q 2819 -91 2113 -91 
Q 1303 -91 875 529 
Q 447 1150 447 2328 
Q 447 3434 972 4092 
Q 1497 4750 2381 4750 
Q 2619 4750 2861 4703 
Q 3103 4656 3366 4563 
z
" transform="scale(0.015625)"/>
        <path id="DejaVuSans-2e" d="M 684 794 
L 1344 794 
L 1344 0 
L 684 0 
L 684 794 
z
" transform="scale(0.015625)"/>
        <path id="DejaVuSans-39" d="M 703 97 
L 703 672 
Q 941 559 1184 500 
Q 1428 441 1663 441 
Q 2288 441 2617 861 
Q 2947 1281 2994 2138 
Q 2813 1869 2534 1725 
Q 2256 1581 1919 1581 
Q 1219 1581 811 2004 
Q 403 2428 403 3163 
Q 403 3881 828 4315 
Q 1253 4750 1959 4750 
Q 2769 4750 3195 4129 
Q 3622 3509 3622 2328 
Q 3622 1225 3098 567 
Q 2575 -91 1691 -91 
Q 1453 -91 1209 -44 
Q 966 3 703 97 
z
M 1959 2075 
Q 2384 2075 2632 2365 
Q 2881 2656 2881 3163 
Q 2881 3666 2632 3958 
Q 2384 4250 1959 4250 
Q 1534 4250 1286 3958 
Q 1038 3666 1038 3163 
Q 1038 2656 1286 2365 
Q 1534 2075 1959 2075 
z
" transform="scale(0.015625)"/>
       </defs>
       <use xlink:href="#DejaVuSans-36"/>
       <use xlink:href="#DejaVuSans-2e" x="63.623047"/>
       <use xlink:href="#DejaVuSans-39" x="95.410156"/>
      </g>
     </g>
    </g>
    <g id="xtick_2">
     <g id="line2d_3">
      <path d="M 217.36175 263.55625 
L 217.36175 31.43625 
" clip-path="url(#p7c22f98d01)" style="fill: none; stroke: #b0b0b0; stroke-width: 0.8; stroke-linecap: square"/>
     </g>
     <g id="line2d_4">
      <g>
       <use xlink:href="#md39032bed2" x="217.36175" y="263.55625" style="stroke: #000000; stroke-width: 0.8"/>
      </g>
     </g>
     <g id="text_2">
      <!-- 7.0 -->
      <g transform="translate(205.434406 281.953906) scale(0.15 -0.15)">
       <defs>
        <path id="DejaVuSans-37" d="M 525 4666 
L 3525 4666 
L 3525 4397 
L 1831 0 
L 1172 0 
L 2766 4134 
L 525 4134 
L 525 4666 
z
" transform="scale(0.015625)"/>
        <path id="DejaVuSans-30" d="M 2034 4250 
Q 1547 4250 1301 3770 
Q 1056 3291 1056 2328 
Q 1056 1369 1301 889 
Q 1547 409 2034 409 
Q 2525 409 2770 889 
Q 3016 1369 3016 2328 
Q 3016 3291 2770 3770 
Q 2525 4250 2034 4250 
z
M 2034 4750 
Q 2819 4750 3233 4129 
Q 3647 3509 3647 2328 
Q 3647 1150 3233 529 
Q 2819 -91 2034 -91 
Q 1250 -91 836 529 
Q 422 1150 422 2328 
Q 422 3509 836 4129 
Q 1250 4750 2034 4750 
z
" transform="scale(0.015625)"/>
       </defs>
       <use xlink:href="#DejaVuSans-37"/>
       <use xlink:href="#DejaVuSans-2e" x="63.623047"/>
       <use xlink:href="#DejaVuSans-30" x="95.410156"/>
      </g>
     </g>
    </g>
    <g id="xtick_3">
     <g id="line2d_5">
      <path d="M 311.90175 263.55625 
L 311.90175 31.43625 
" clip-path="url(#p7c22f98d01)" style="fill: none; stroke: #b0b0b0; stroke-width: 0.8; stroke-linecap: square"/>
     </g>
     <g id="line2d_6">
      <g>
       <use xlink:href="#md39032bed2" x="311.90175" y="263.55625" style="stroke: #000000; stroke-width: 0.8"/>
      </g>
     </g>
     <g id="text_3">
      <!-- 7.1 -->
      <g transform="translate(299.974406 281.953906) scale(0.15 -0.15)">
       <defs>
        <path id="DejaVuSans-31" d="M 794 531 
L 1825 531 
L 1825 4091 
L 703 3866 
L 703 4441 
L 1819 4666 
L 2450 4666 
L 2450 531 
L 3481 531 
L 3481 0 
L 794 0 
L 794 531 
z
" transform="scale(0.015625)"/>
       </defs>
       <use xlink:href="#DejaVuSans-37"/>
       <use xlink:href="#DejaVuSans-2e" x="63.623047"/>
       <use xlink:href="#DejaVuSans-31" x="95.410156"/>
      </g>
     </g>
    </g>
    <g id="xtick_4">
     <g id="line2d_7">
      <path d="M 406.44175 263.55625 
L 406.44175 31.43625 
" clip-path="url(#p7c22f98d01)" style="fill: none; stroke: #b0b0b0; stroke-width: 0.8; stroke-linecap: square"/>
     </g>
     <g id="line2d_8">
      <g>
       <use xlink:href="#md39032bed2" x="406.44175" y="263.55625" style="stroke: #000000; stroke-width: 0.8"/>
      </g>
     </g>
     <g id="text_4">
      <!-- 7.2 -->
      <g transform="translate(394.514406 281.953906) scale(0.15 -0.15)">
       <defs>
        <path id="DejaVuSans-32" d="M 1228 531 
L 3431 531 
L 3431 0 
L 469 0 
L 469 531 
Q 828 903 1448 1529 
Q 2069 2156 2228 2338 
Q 2531 2678 2651 2914 
Q 2772 3150 2772 3378 
Q 2772 3750 2511 3984 
Q 2250 4219 1831 4219 
Q 1534 4219 1204 4116 
Q 875 4013 500 3803 
L 500 4441 
Q 881 4594 1212 4672 
Q 1544 4750 1819 4750 
Q 2544 4750 2975 4387 
Q 3406 4025 3406 3419 
Q 3406 3131 3298 2873 
Q 3191 2616 2906 2266 
Q 2828 2175 2409 1742 
Q 1991 1309 1228 531 
z
" transform="scale(0.015625)"/>
       </defs>
       <use xlink:href="#DejaVuSans-37"/>
       <use xlink:href="#DejaVuSans-2e" x="63.623047"/>
       <use xlink:href="#DejaVuSans-32" x="95.410156"/>
      </g>
     </g>
    </g>
    <g id="text_5">
     <!-- Position (mm) -->
     <g transform="translate(176.333125 304.270312) scale(0.2 -0.2)">
      <defs>
       <path id="DejaVuSans-50" d="M 1259 4147 
L 1259 2394 
L 2053 2394 
Q 2494 2394 2734 2622 
Q 2975 2850 2975 3272 
Q 2975 3691 2734 3919 
Q 2494 4147 2053 4147 
L 1259 4147 
z
M 628 4666 
L 2053 4666 
Q 2838 4666 3239 4311 
Q 3641 3956 3641 3272 
Q 3641 2581 3239 2228 
Q 2838 1875 2053 1875 
L 1259 1875 
L 1259 0 
L 628 0 
L 628 4666 
z
" transform="scale(0.015625)"/>
       <path id="DejaVuSans-6f" d="M 1959 3097 
Q 1497 3097 1228 2736 
Q 959 2375 959 1747 
Q 959 1119 1226 758 
Q 1494 397 1959 397 
Q 2419 397 2687 759 
Q 2956 1122 2956 1747 
Q 2956 2369 2687 2733 
Q 2419 3097 1959 3097 
z
M 1959 3584 
Q 2709 3584 3137 3096 
Q 3566 2609 3566 1747 
Q 3566 888 3137 398 
Q 2709 -91 1959 -91 
Q 1206 -91 779 398 
Q 353 888 353 1747 
Q 353 2609 779 3096 
Q 1206 3584 1959 3584 
z
" transform="scale(0.015625)"/>
       <path id="DejaVuSans-73" d="M 2834 3397 
L 2834 2853 
Q 2591 2978 2328 3040 
Q 2066 3103 1784 3103 
Q 1356 3103 1142 2972 
Q 928 2841 928 2578 
Q 928 2378 1081 2264 
Q 1234 2150 1697 2047 
L 1894 2003 
Q 2506 1872 2764 1633 
Q 3022 1394 3022 966 
Q 3022 478 2636 193 
Q 2250 -91 1575 -91 
Q 1294 -91 989 -36 
Q 684 19 347 128 
L 347 722 
Q 666 556 975 473 
Q 1284 391 1588 391 
Q 1994 391 2212 530 
Q 2431 669 2431 922 
Q 2431 1156 2273 1281 
Q 2116 1406 1581 1522 
L 1381 1569 
Q 847 1681 609 1914 
Q 372 2147 372 2553 
Q 372 3047 722 3315 
Q 1072 3584 1716 3584 
Q 2034 3584 2315 3537 
Q 2597 3491 2834 3397 
z
" transform="scale(0.015625)"/>
       <path id="DejaVuSans-69" d="M 603 3500 
L 1178 3500 
L 1178 0 
L 603 0 
L 603 3500 
z
M 603 4863 
L 1178 4863 
L 1178 4134 
L 603 4134 
L 603 4863 
z
" transform="scale(0.015625)"/>
       <path id="DejaVuSans-74" d="M 1172 4494 
L 1172 3500 
L 2356 3500 
L 2356 3053 
L 1172 3053 
L 1172 1153 
Q 1172 725 1289 603 
Q 1406 481 1766 481 
L 2356 481 
L 2356 0 
L 1766 0 
Q 1100 0 847 248 
Q 594 497 594 1153 
L 594 3053 
L 172 3053 
L 172 3500 
L 594 3500 
L 594 4494 
L 1172 4494 
z
" transform="scale(0.015625)"/>
       <path id="DejaVuSans-6e" d="M 3513 2113 
L 3513 0 
L 2938 0 
L 2938 2094 
Q 2938 2591 2744 2837 
Q 2550 3084 2163 3084 
Q 1697 3084 1428 2787 
Q 1159 2491 1159 1978 
L 1159 0 
L 581 0 
L 581 3500 
L 1159 3500 
L 1159 2956 
Q 1366 3272 1645 3428 
Q 1925 3584 2291 3584 
Q 2894 3584 3203 3211 
Q 3513 2838 3513 2113 
z
" transform="scale(0.015625)"/>
       <path id="DejaVuSans-20" transform="scale(0.015625)"/>
       <path id="DejaVuSans-28" d="M 1984 4856 
Q 1566 4138 1362 3434 
Q 1159 2731 1159 2009 
Q 1159 1288 1364 580 
Q 1569 -128 1984 -844 
L 1484 -844 
Q 1016 -109 783 600 
Q 550 1309 550 2009 
Q 550 2706 781 3412 
Q 1013 4119 1484 4856 
L 1984 4856 
z
" transform="scale(0.015625)"/>
       <path id="DejaVuSans-6d" d="M 3328 2828 
Q 3544 3216 3844 3400 
Q 4144 3584 4550 3584 
Q 5097 3584 5394 3201 
Q 5691 2819 5691 2113 
L 5691 0 
L 5113 0 
L 5113 2094 
Q 5113 2597 4934 2840 
Q 4756 3084 4391 3084 
Q 3944 3084 3684 2787 
Q 3425 2491 3425 1978 
L 3425 0 
L 2847 0 
L 2847 2094 
Q 2847 2600 2669 2842 
Q 2491 3084 2119 3084 
Q 1678 3084 1418 2786 
Q 1159 2488 1159 1978 
L 1159 0 
L 581 0 
L 581 3500 
L 1159 3500 
L 1159 2956 
Q 1356 3278 1631 3431 
Q 1906 3584 2284 3584 
Q 2666 3584 2933 3390 
Q 3200 3197 3328 2828 
z
" transform="scale(0.015625)"/>
       <path id="DejaVuSans-29" d="M 513 4856 
L 1013 4856 
Q 1481 4119 1714 3412 
Q 1947 2706 1947 2009 
Q 1947 1309 1714 600 
Q 1481 -109 1013 -844 
L 513 -844 
Q 928 -128 1133 580 
Q 1338 1288 1338 2009 
Q 1338 2731 1133 3434 
Q 928 4138 513 4856 
z
" transform="scale(0.015625)"/>
      </defs>
      <use xlink:href="#DejaVuSans-50"/>
      <use xlink:href="#DejaVuSans-6f" x="56.677734"/>
      <use xlink:href="#DejaVuSans-73" x="117.859375"/>
      <use xlink:href="#DejaVuSans-69" x="169.958984"/>
      <use xlink:href="#DejaVuSans-74" x="197.742188"/>
      <use xlink:href="#DejaVuSans-69" x="236.951172"/>
      <use xlink:href="#DejaVuSans-6f" x="264.734375"/>
      <use xlink:href="#DejaVuSans-6e" x="325.916016"/>
      <use xlink:href="#DejaVuSans-20" x="389.294922"/>
      <use xlink:href="#DejaVuSans-28" x="421.082031"/>
      <use xlink:href="#DejaVuSans-6d" x="460.095703"/>
      <use xlink:href="#DejaVuSans-6d" x="557.507812"/>
      <use xlink:href="#DejaVuSans-29" x="654.919922"/>
     </g>
    </g>
   </g>
   <g id="matplotlib.axis_2">
    <g id="ytick_1">
     <g id="line2d_9">
      <path d="M 56.64375 225.052932 
L 434.80375 225.052932 
" clip-path="url(#p7c22f98d01)" style="fill: none; stroke: #b0b0b0; stroke-width: 0.8; stroke-linecap: square"/>
     </g>
     <g id="line2d_10">
      <defs>
       <path id="m6f3f5b6aff" d="M 0 0 
L -3.5 0 
" style="stroke: #000000; stroke-width: 0.8"/>
      </defs>
      <g>
       <use xlink:href="#m6f3f5b6aff" x="56.64375" y="225.052932" style="stroke: #000000; stroke-width: 0.8"/>
      </g>
     </g>
     <g id="text_6">
      <!-- 10 -->
      <g transform="translate(30.55625 230.751761) scale(0.15 -0.15)">
       <use xlink:href="#DejaVuSans-31"/>
       <use xlink:href="#DejaVuSans-30" x="63.623047"/>
      </g>
     </g>
    </g>
    <g id="ytick_2">
     <g id="line2d_11">
      <path d="M 56.64375 181.049141 
L 434.80375 181.049141 
" clip-path="url(#p7c22f98d01)" style="fill: none; stroke: #b0b0b0; stroke-width: 0.8; stroke-linecap: square"/>
     </g>
     <g id="line2d_12">
      <g>
       <use xlink:href="#m6f3f5b6aff" x="56.64375" y="181.049141" style="stroke: #000000; stroke-width: 0.8"/>
      </g>
     </g>
     <g id="text_7">
      <!-- 20 -->
      <g transform="translate(30.55625 186.747969) scale(0.15 -0.15)">
       <use xlink:href="#DejaVuSans-32"/>
       <use xlink:href="#DejaVuSans-30" x="63.623047"/>
      </g>
     </g>
    </g>
    <g id="ytick_3">
     <g id="line2d_13">
      <path d="M 56.64375 137.04535 
L 434.80375 137.04535 
" clip-path="url(#p7c22f98d01)" style="fill: none; stroke: #b0b0b0; stroke-width: 0.8; stroke-linecap: square"/>
     </g>
     <g id="line2d_14">
      <g>
       <use xlink:href="#m6f3f5b6aff" x="56.64375" y="137.04535" style="stroke: #000000; stroke-width: 0.8"/>
      </g>
     </g>
     <g id="text_8">
      <!-- 30 -->
      <g transform="translate(30.55625 142.744178) scale(0.15 -0.15)">
       <defs>
        <path id="DejaVuSans-33" d="M 2597 2516 
Q 3050 2419 3304 2112 
Q 3559 1806 3559 1356 
Q 3559 666 3084 287 
Q 2609 -91 1734 -91 
Q 1441 -91 1130 -33 
Q 819 25 488 141 
L 488 750 
Q 750 597 1062 519 
Q 1375 441 1716 441 
Q 2309 441 2620 675 
Q 2931 909 2931 1356 
Q 2931 1769 2642 2001 
Q 2353 2234 1838 2234 
L 1294 2234 
L 1294 2753 
L 1863 2753 
Q 2328 2753 2575 2939 
Q 2822 3125 2822 3475 
Q 2822 3834 2567 4026 
Q 2313 4219 1838 4219 
Q 1578 4219 1281 4162 
Q 984 4106 628 3988 
L 628 4550 
Q 988 4650 1302 4700 
Q 1616 4750 1894 4750 
Q 2613 4750 3031 4423 
Q 3450 4097 3450 3541 
Q 3450 3153 3228 2886 
Q 3006 2619 2597 2516 
z
" transform="scale(0.015625)"/>
       </defs>
       <use xlink:href="#DejaVuSans-33"/>
       <use xlink:href="#DejaVuSans-30" x="63.623047"/>
      </g>
     </g>
    </g>
    <g id="ytick_4">
     <g id="line2d_15">
      <path d="M 56.64375 93.041558 
L 434.80375 93.041558 
" clip-path="url(#p7c22f98d01)" style="fill: none; stroke: #b0b0b0; stroke-width: 0.8; stroke-linecap: square"/>
     </g>
     <g id="line2d_16">
      <g>
       <use xlink:href="#m6f3f5b6aff" x="56.64375" y="93.041558" style="stroke: #000000; stroke-width: 0.8"/>
      </g>
     </g>
     <g id="text_9">
      <!-- 40 -->
      <g transform="translate(30.55625 98.740386) scale(0.15 -0.15)">
       <defs>
        <path id="DejaVuSans-34" d="M 2419 4116 
L 825 1625 
L 2419 1625 
L 2419 4116 
z
M 2253 4666 
L 3047 4666 
L 3047 1625 
L 3713 1625 
L 3713 1100 
L 3047 1100 
L 3047 0 
L 2419 0 
L 2419 1100 
L 313 1100 
L 313 1709 
L 2253 4666 
z
" transform="scale(0.015625)"/>
       </defs>
       <use xlink:href="#DejaVuSans-34"/>
       <use xlink:href="#DejaVuSans-30" x="63.623047"/>
      </g>
     </g>
    </g>
    <g id="ytick_5">
     <g id="line2d_17">
      <path d="M 56.64375 49.037767 
L 434.80375 49.037767 
" clip-path="url(#p7c22f98d01)" style="fill: none; stroke: #b0b0b0; stroke-width: 0.8; stroke-linecap: square"/>
     </g>
     <g id="line2d_18">
      <g>
       <use xlink:href="#m6f3f5b6aff" x="56.64375" y="49.037767" style="stroke: #000000; stroke-width: 0.8"/>
      </g>
     </g>
     <g id="text_10">
      <!-- 50 -->
      <g transform="translate(30.55625 54.736595) scale(0.15 -0.15)">
       <defs>
        <path id="DejaVuSans-35" d="M 691 4666 
L 3169 4666 
L 3169 4134 
L 1269 4134 
L 1269 2991 
Q 1406 3038 1543 3061 
Q 1681 3084 1819 3084 
Q 2600 3084 3056 2656 
Q 3513 2228 3513 1497 
Q 3513 744 3044 326 
Q 2575 -91 1722 -91 
Q 1428 -91 1123 -41 
Q 819 9 494 109 
L 494 744 
Q 775 591 1075 516 
Q 1375 441 1709 441 
Q 2250 441 2565 725 
Q 2881 1009 2881 1497 
Q 2881 1984 2565 2268 
Q 2250 2553 1709 2553 
Q 1456 2553 1204 2497 
Q 953 2441 691 2322 
L 691 4666 
z
" transform="scale(0.015625)"/>
       </defs>
       <use xlink:href="#DejaVuSans-35"/>
       <use xlink:href="#DejaVuSans-30" x="63.623047"/>
      </g>
     </g>
    </g>
    <g id="text_11">
     <!-- Counts -->
     <g transform="translate(22.396875 182.4025) rotate(-90) scale(0.2 -0.2)">
      <defs>
       <path id="DejaVuSans-43" d="M 4122 4306 
L 4122 3641 
Q 3803 3938 3442 4084 
Q 3081 4231 2675 4231 
Q 1875 4231 1450 3742 
Q 1025 3253 1025 2328 
Q 1025 1406 1450 917 
Q 1875 428 2675 428 
Q 3081 428 3442 575 
Q 3803 722 4122 1019 
L 4122 359 
Q 3791 134 3420 21 
Q 3050 -91 2638 -91 
Q 1578 -91 968 557 
Q 359 1206 359 2328 
Q 359 3453 968 4101 
Q 1578 4750 2638 4750 
Q 3056 4750 3426 4639 
Q 3797 4528 4122 4306 
z
" transform="scale(0.015625)"/>
       <path id="DejaVuSans-75" d="M 544 1381 
L 544 3500 
L 1119 3500 
L 1119 1403 
Q 1119 906 1312 657 
Q 1506 409 1894 409 
Q 2359 409 2629 706 
Q 2900 1003 2900 1516 
L 2900 3500 
L 3475 3500 
L 3475 0 
L 2900 0 
L 2900 538 
Q 2691 219 2414 64 
Q 2138 -91 1772 -91 
Q 1169 -91 856 284 
Q 544 659 544 1381 
z
M 1991 3584 
L 1991 3584 
z
" transform="scale(0.015625)"/>
      </defs>
      <use xlink:href="#DejaVuSans-43"/>
      <use xlink:href="#DejaVuSans-6f" x="69.824219"/>
      <use xlink:href="#DejaVuSans-75" x="131.005859"/>
      <use xlink:href="#DejaVuSans-6e" x="194.384766"/>
      <use xlink:href="#DejaVuSans-74" x="257.763672"/>
      <use xlink:href="#DejaVuSans-73" x="296.972656"/>
     </g>
    </g>
   </g>
   <g id="line2d_19">
    <defs>
     <path id="mcceb8b8273" d="M 0 3 
C 0.795609 3 1.55874 2.683901 2.12132 2.12132 
C 2.683901 1.55874 3 0.795609 3 0 
C 3 -0.795609 2.683901 -1.55874 2.12132 -2.12132 
C 1.55874 -2.683901 0.795609 -3 0 -3 
C -0.795609 -3 -1.55874 -2.683901 -2.12132 -2.12132 
C -2.683901 -1.55874 -3 -0.795609 -3 0 
C -3 0.795609 -2.683901 1.55874 -2.12132 2.12132 
C -1.55874 2.683901 -0.795609 3 0 3 
z
" style="stroke: #1f77b4"/>
    </defs>
    <g clip-path="url(#p7c22f98d01)">
     <use xlink:href="#mcceb8b8273" x="132.27575" y="248.81498" style="fill: #1f77b4; stroke: #1f77b4"/>
     <use xlink:href="#mcceb8b8273" x="179.54575" y="224.172857" style="fill: #1f77b4; stroke: #1f77b4"/>
     <use xlink:href="#mcceb8b8273" x="203.18075" y="196.01043" style="fill: #1f77b4; stroke: #1f77b4"/>
     <use xlink:href="#mcceb8b8273" x="226.81575" y="159.487283" style="fill: #1f77b4; stroke: #1f77b4"/>
     <use xlink:href="#mcceb8b8273" x="250.45075" y="119.003795" style="fill: #1f77b4; stroke: #1f77b4"/>
     <use xlink:href="#mcceb8b8273" x="274.08575" y="108.002847" style="fill: #1f77b4; stroke: #1f77b4"/>
     <use xlink:href="#mcceb8b8273" x="297.72075" y="104.042506" style="fill: #1f77b4; stroke: #1f77b4"/>
     <use xlink:href="#mcceb8b8273" x="321.35575" y="111.52315" style="fill: #1f77b4; stroke: #1f77b4"/>
     <use xlink:href="#mcceb8b8273" x="344.99075" y="146.286146" style="fill: #1f77b4; stroke: #1f77b4"/>
     <use xlink:href="#mcceb8b8273" x="368.62575" y="190.729975" style="fill: #1f77b4; stroke: #1f77b4"/>
     <use xlink:href="#mcceb8b8273" x="392.26075" y="210.531681" style="fill: #1f77b4; stroke: #1f77b4"/>
     <use xlink:href="#mcceb8b8273" x="415.89575" y="230.773425" style="fill: #1f77b4; stroke: #1f77b4"/>
     <use xlink:href="#mcceb8b8273" x="463.16575" y="250.135094" style="fill: #1f77b4; stroke: #1f77b4"/>
    </g>
   </g>
   <g id="line2d_20">
    <path d="M 115.73125 251.063349 
L 121.846709 250.063281 
L 127.488947 248.917457 
L 132.730769 247.628134 
L 137.681379 246.182469 
L 142.377177 244.580742 
L 146.890968 242.80644 
L 151.259153 240.849515 
L 155.481732 238.715036 
L 159.631507 236.368241 
L 163.70848 233.807502 
L 167.749051 231.007418 
L 171.789622 227.935503 
L 175.830193 224.583162 
L 179.907165 220.91031 
L 184.056941 216.86932 
L 188.27952 212.44483 
L 192.647704 207.54159 
L 197.197897 202.093749 
L 202.0029 195.986175 
L 207.171919 189.046896 
L 212.923362 180.941528 
L 219.839655 170.789429 
L 243.901073 135.100274 
L 248.851682 128.374375 
L 253.183466 122.854403 
L 257.07843 118.24189 
L 260.682183 114.313452 
L 264.031125 110.987332 
L 267.161657 108.185135 
L 270.146583 105.808309 
L 272.985903 103.829189 
L 275.679617 102.216498 
L 278.300528 100.903501 
L 280.848636 99.875683 
L 283.323941 99.116881 
L 285.726443 98.609653 
L 288.092543 98.333042 
L 290.458643 98.278853 
L 292.824743 98.447319 
L 295.190843 98.837718 
L 297.593345 99.459486 
L 300.032248 100.320141 
L 302.543954 101.444039 
L 305.128463 102.846531 
L 307.822177 104.566301 
L 310.625096 106.625465 
L 313.537219 109.043462 
L 316.63135 111.907062 
L 319.907489 115.248154 
L 323.402037 119.134065 
L 327.187797 123.681254 
L 331.373974 129.065628 
L 336.106174 135.526533 
L 341.712011 143.57177 
L 349.392736 155.018201 
L 365.300209 178.802352 
L 371.597676 187.757531 
L 377.057907 195.144503 
L 382.044918 201.524694 
L 386.740716 207.176445 
L 391.218106 212.222136 
L 395.549889 216.772488 
L 399.772468 220.888817 
L 403.922243 224.626273 
L 408.035617 228.032856 
L 412.11259 231.12273 
L 416.189562 233.936249 
L 420.302936 236.506152 
L 424.452712 238.838735 
L 428.711692 240.976874 
L 433.043476 242.903545 
L 434.827151 243.628583 
L 434.827151 243.628583 
" clip-path="url(#p7c22f98d01)" style="fill: none; stroke: #1f77b4; stroke-width: 1.5; stroke-linecap: square"/>
   </g>
   <g id="line2d_21">
    <defs>
     <path id="mff6e4f8517" d="M 0 3 
C 0.795609 3 1.55874 2.683901 2.12132 2.12132 
C 2.683901 1.55874 3 0.795609 3 0 
C 3 -0.795609 2.683901 -1.55874 2.12132 -2.12132 
C 1.55874 -2.683901 0.795609 -3 0 -3 
C -0.795609 -3 -1.55874 -2.683901 -2.12132 -2.12132 
C -2.683901 -1.55874 -3 -0.795609 -3 0 
C -3 0.795609 -2.683901 1.55874 -2.12132 2.12132 
C -1.55874 2.683901 -0.795609 3 0 3 
z
" style="stroke: #ff7f0e"/>
    </defs>
    <g clip-path="url(#p7c22f98d01)">
     <use xlink:href="#mff6e4f8517" x="132.27575" y="250.575132" style="fill: #ff7f0e; stroke: #ff7f0e"/>
     <use xlink:href="#mff6e4f8517" x="179.54575" y="232.533577" style="fill: #ff7f0e; stroke: #ff7f0e"/>
     <use xlink:href="#mff6e4f8517" x="203.18075" y="199.970771" style="fill: #ff7f0e; stroke: #ff7f0e"/>
     <use xlink:href="#mff6e4f8517" x="226.81575" y="141.005691" style="fill: #ff7f0e; stroke: #ff7f0e"/>
     <use xlink:href="#mff6e4f8517" x="250.45075" y="95.681786" style="fill: #ff7f0e; stroke: #ff7f0e"/>
     <use xlink:href="#mff6e4f8517" x="274.08575" y="78.960345" style="fill: #ff7f0e; stroke: #ff7f0e"/>
     <use xlink:href="#mff6e4f8517" x="297.72075" y="55.198297" style="fill: #ff7f0e; stroke: #ff7f0e"/>
     <use xlink:href="#mff6e4f8517" x="321.35575" y="47.277615" style="fill: #ff7f0e; stroke: #ff7f0e"/>
     <use xlink:href="#mff6e4f8517" x="344.99075" y="119.003795" style="fill: #ff7f0e; stroke: #ff7f0e"/>
     <use xlink:href="#mff6e4f8517" x="368.62575" y="184.569444" style="fill: #ff7f0e; stroke: #ff7f0e"/>
     <use xlink:href="#mff6e4f8517" x="392.26075" y="205.251226" style="fill: #ff7f0e; stroke: #ff7f0e"/>
     <use xlink:href="#mff6e4f8517" x="415.89575" y="232.093539" style="fill: #ff7f0e; stroke: #ff7f0e"/>
     <use xlink:href="#mff6e4f8517" x="463.16575" y="250.575132" style="fill: #ff7f0e; stroke: #ff7f0e"/>
    </g>
   </g>
   <g id="line2d_22">
    <path d="M 115.73125 253.208973 
L 122.756747 252.526784 
L 128.908608 251.710752 
L 134.40524 250.761759 
L 139.428653 249.672282 
L 144.08805 248.436238 
L 148.456235 247.048356 
L 152.569609 245.510213 
L 156.500975 243.804651 
L 160.286735 241.921047 
L 163.963291 239.843339 
L 167.530642 237.573226 
L 171.061591 235.060956 
L 174.519737 232.327345 
L 177.977884 229.30737 
L 181.399628 226.02287 
L 184.857775 222.390948 
L 188.315921 218.433831 
L 191.810469 214.095908 
L 195.37782 209.309867 
L 199.017974 204.051004 
L 202.767333 198.240259 
L 206.662297 191.78867 
L 210.73927 184.599647 
L 215.071053 176.503271 
L 219.766852 167.245432 
L 225.045075 156.333558 
L 231.524549 142.398544 
L 251.254184 99.589787 
L 255.913581 90.231597 
L 259.917751 82.670935 
L 263.485101 76.393997 
L 266.76124 71.069855 
L 269.782568 66.576981 
L 272.585487 62.79891 
L 275.206397 59.62967 
L 277.681702 56.977081 
L 280.011401 54.796217 
L 282.231895 53.012647 
L 284.379586 51.569272 
L 286.418072 50.461212 
L 288.383755 49.638396 
L 290.313037 49.068266 
L 292.205917 48.739435 
L 294.062395 48.639805 
L 295.918874 48.761213 
L 297.775352 49.10327 
L 299.668232 49.67807 
L 301.597514 50.496801 
L 303.599599 51.591971 
L 305.674487 52.986554 
L 307.822177 54.702512 
L 310.079073 56.796462 
L 312.445173 59.30118 
L 314.956879 62.292641 
L 317.614192 65.811965 
L 320.453512 69.950586 
L 323.511241 74.811812 
L 326.823781 80.506988 
L 330.463935 87.218772 
L 334.577309 95.285702 
L 339.382313 105.218651 
L 345.606976 118.633547 
L 364.535777 159.772252 
L 369.886803 170.674138 
L 374.619004 179.825088 
L 378.987188 187.799895 
L 383.100562 194.856851 
L 387.031929 201.168544 
L 390.817689 206.834271 
L 394.494244 211.944627 
L 398.097997 216.579533 
L 401.665348 220.807426 
L 405.159896 224.609452 
L 408.654444 228.08594 
L 412.148991 231.24967 
L 415.643539 234.115273 
L 419.174489 236.724286 
L 422.74184 239.085693 
L 426.381994 241.230387 
L 430.131352 243.181064 
L 433.989916 244.938066 
L 434.827151 245.288065 
L 434.827151 245.288065 
" clip-path="url(#p7c22f98d01)" style="fill: none; stroke: #ff7f0e; stroke-width: 1.5; stroke-linecap: square"/>
   </g>
   <g id="line2d_23">
    <defs>
     <path id="m5b2af9e1fb" d="M 0 3 
C 0.795609 3 1.55874 2.683901 2.12132 2.12132 
C 2.683901 1.55874 3 0.795609 3 0 
C 3 -0.795609 2.683901 -1.55874 2.12132 -2.12132 
C 1.55874 -2.683901 0.795609 -3 0 -3 
C -0.795609 -3 -1.55874 -2.683901 -2.12132 -2.12132 
C -2.683901 -1.55874 -3 -0.795609 -3 0 
C -3 0.795609 -2.683901 1.55874 -2.12132 2.12132 
C -1.55874 2.683901 -0.795609 3 0 3 
z
" style="stroke: #2ca02c"/>
    </defs>
    <g clip-path="url(#p7c22f98d01)">
     <use xlink:href="#m5b2af9e1fb" x="132.27575" y="236.493918" style="fill: #2ca02c; stroke: #2ca02c"/>
     <use xlink:href="#m5b2af9e1fb" x="179.54575" y="226.813084" style="fill: #2ca02c; stroke: #2ca02c"/>
     <use xlink:href="#m5b2af9e1fb" x="203.18075" y="192.050089" style="fill: #2ca02c; stroke: #2ca02c"/>
     <use xlink:href="#m5b2af9e1fb" x="226.81575" y="145.40607" style="fill: #2ca02c; stroke: #2ca02c"/>
     <use xlink:href="#m5b2af9e1fb" x="250.45075" y="90.841368" style="fill: #2ca02c; stroke: #2ca02c"/>
     <use xlink:href="#m5b2af9e1fb" x="274.08575" y="67.959397" style="fill: #2ca02c; stroke: #2ca02c"/>
     <use xlink:href="#m5b2af9e1fb" x="297.72075" y="47.717653" style="fill: #2ca02c; stroke: #2ca02c"/>
     <use xlink:href="#m5b2af9e1fb" x="321.35575" y="48.157691" style="fill: #2ca02c; stroke: #2ca02c"/>
     <use xlink:href="#m5b2af9e1fb" x="344.99075" y="118.563757" style="fill: #2ca02c; stroke: #2ca02c"/>
     <use xlink:href="#m5b2af9e1fb" x="368.62575" y="177.528838" style="fill: #2ca02c; stroke: #2ca02c"/>
     <use xlink:href="#m5b2af9e1fb" x="392.26075" y="204.37115" style="fill: #2ca02c; stroke: #2ca02c"/>
     <use xlink:href="#m5b2af9e1fb" x="415.89575" y="225.933008" style="fill: #2ca02c; stroke: #2ca02c"/>
    </g>
   </g>
   <g id="line2d_24">
    <path d="M 118.09475 240.941747 
L 125.988684 240.386187 
L 132.634565 239.701459 
L 138.469212 238.880457 
L 143.679833 237.926203 
L 148.453634 236.82791 
L 152.853021 235.590417 
L 157.002796 234.193086 
L 160.934163 232.634425 
L 164.678321 230.911405 
L 168.297674 229.000563 
L 171.792222 226.904893 
L 175.224367 224.586449 
L 178.59411 222.040363 
L 181.932651 219.236669 
L 185.239991 216.167192 
L 188.547331 212.792644 
L 191.885872 209.064037 
L 195.255615 204.961505 
L 198.656559 200.467433 
L 202.151106 195.474734 
L 205.739258 189.952196 
L 209.452215 183.820202 
L 213.321179 176.992218 
L 217.408552 169.318022 
L 221.807938 160.572966 
L 226.675344 150.38835 
L 232.416387 137.83731 
L 241.121555 118.193911 
L 250.201139 97.867082 
L 255.318156 86.95295 
L 259.530334 78.477272 
L 263.21209 71.557656 
L 266.51943 65.805282 
L 269.545958 60.978578 
L 272.322875 56.955447 
L 274.943786 53.542736 
L 277.377489 50.729003 
L 279.686387 48.391525 
L 281.870479 46.489632 
L 283.960968 44.959658 
L 285.957852 43.769932 
L 287.892334 42.875334 
L 289.764413 42.254638 
L 291.57409 41.885917 
L 293.352565 41.746322 
L 295.13104 41.828027 
L 296.909516 42.130761 
L 298.719192 42.664648 
L 300.56007 43.439585 
L 302.463351 44.483732 
L 304.429034 45.817235 
L 306.488321 47.486505 
L 308.641212 49.521699 
L 310.918908 51.987041 
L 313.32141 54.921162 
L 315.879918 58.403615 
L 318.625634 62.526046 
L 321.58976 67.389601 
L 324.803496 73.100721 
L 328.360446 79.887614 
L 332.385417 88.061848 
L 337.159219 98.282232 
L 343.555489 112.545403 
L 358.906539 146.965875 
L 364.304367 158.401139 
L 368.984565 167.807839 
L 373.259146 175.912678 
L 377.284116 183.075966 
L 381.121879 189.457404 
L 384.803634 195.15401 
L 388.391786 200.299363 
L 391.886334 204.92529 
L 395.318479 209.103529 
L 398.719423 212.895307 
L 402.089166 216.321315 
L 405.458908 219.431315 
L 408.828651 222.24064 
L 412.229595 224.788192 
L 415.692941 227.104255 
L 419.218691 229.194237 
L 422.838044 231.081017 
L 426.582202 232.781455 
L 430.07675 234.159727 
L 430.07675 234.159727 
" clip-path="url(#p7c22f98d01)" style="fill: none; stroke: #2ca02c; stroke-width: 1.5; stroke-linecap: square"/>
   </g>
   <g id="line2d_25">
    <defs>
     <path id="m2c75f8ed43" d="M 0 3 
C 0.795609 3 1.55874 2.683901 2.12132 2.12132 
C 2.683901 1.55874 3 0.795609 3 0 
C 3 -0.795609 2.683901 -1.55874 2.12132 -2.12132 
C 1.55874 -2.683901 0.795609 -3 0 -3 
C -0.795609 -3 -1.55874 -2.683901 -2.12132 -2.12132 
C -2.683901 -1.55874 -3 -0.795609 -3 0 
C -3 0.795609 -2.683901 1.55874 -2.12132 2.12132 
C -1.55874 2.683901 -0.795609 3 0 3 
z
" style="stroke: #d62728"/>
    </defs>
    <g clip-path="url(#p7c22f98d01)">
     <use xlink:href="#m2c75f8ed43" x="155.91075" y="243.974563" style="fill: #d62728; stroke: #d62728"/>
     <use xlink:href="#m2c75f8ed43" x="203.18075" y="210.091643" style="fill: #d62728; stroke: #d62728"/>
     <use xlink:href="#m2c75f8ed43" x="226.81575" y="173.128459" style="fill: #d62728; stroke: #d62728"/>
     <use xlink:href="#m2c75f8ed43" x="250.45075" y="119.883871" style="fill: #d62728; stroke: #d62728"/>
     <use xlink:href="#m2c75f8ed43" x="274.08575" y="100.522203" style="fill: #d62728; stroke: #d62728"/>
     <use xlink:href="#m2c75f8ed43" x="297.72075" y="87.761103" style="fill: #d62728; stroke: #d62728"/>
     <use xlink:href="#m2c75f8ed43" x="321.35575" y="88.641179" style="fill: #d62728; stroke: #d62728"/>
     <use xlink:href="#m2c75f8ed43" x="344.99075" y="162.567549" style="fill: #d62728; stroke: #d62728"/>
     <use xlink:href="#m2c75f8ed43" x="368.62575" y="206.57134" style="fill: #d62728; stroke: #d62728"/>
     <use xlink:href="#m2c75f8ed43" x="415.89575" y="245.294677" style="fill: #d62728; stroke: #d62728"/>
    </g>
   </g>
   <g id="line2d_26">
    <path d="M 142.9115 249.728603 
L 148.202724 248.829447 
L 153.007727 247.791501 
L 157.440915 246.610119 
L 161.58809 245.278047 
L 165.535057 243.777208 
L 169.281816 242.115844 
L 172.885568 240.276597 
L 176.403517 238.231 
L 179.835662 235.977038 
L 183.210605 233.493557 
L 186.556947 230.752941 
L 189.874687 227.747446 
L 193.221029 224.412179 
L 196.56737 220.760981 
L 199.970914 216.715149 
L 203.431661 212.253014 
L 207.006812 207.274126 
L 210.696368 201.747998 
L 214.557531 195.556872 
L 218.647504 188.570297 
L 223.080692 180.546332 
L 228.057303 171.064244 
L 234.177961 158.89508 
L 252.33973 122.448842 
L 256.744316 114.308746 
L 260.519676 107.786325 
L 263.866018 102.435336 
L 266.926347 97.950719 
L 269.757867 94.189347 
L 272.389178 91.057531 
L 274.848882 88.468341 
L 277.16558 86.344698 
L 279.367873 84.621171 
L 281.455762 83.261663 
L 283.486448 82.202231 
L 285.43133 81.435219 
L 287.31901 80.925705 
L 289.178089 80.652168 
L 291.008566 80.605223 
L 292.839043 80.779122 
L 294.698122 81.181094 
L 296.585802 81.819979 
L 298.530684 82.718631 
L 300.532769 83.894504 
L 302.620657 85.38602 
L 304.794349 87.218712 
L 307.082446 89.44571 
L 309.484948 92.098795 
L 312.059057 95.280198 
L 314.804773 99.03462 
L 317.779299 103.487744 
L 321.039837 108.781998 
L 324.67219 115.119749 
L 328.819366 122.819176 
L 333.88178 132.710359 
L 341.604107 148.353302 
L 351.585929 168.476704 
L 357.105963 179.094527 
L 361.825162 187.701951 
L 366.115344 195.072689 
L 370.119513 201.517082 
L 373.923474 207.224474 
L 377.584429 212.32193 
L 381.130979 216.884858 
L 384.620327 221.014362 
L 388.052472 224.733106 
L 391.427415 228.066651 
L 394.802358 231.091083 
L 398.1773 233.82014 
L 401.580844 236.289054 
L 405.041591 238.525729 
L 408.55954 240.536313 
L 412.191893 242.356041 
L 415.938652 243.984564 
L 419.857018 245.444637 
L 423.975592 246.741419 
L 428.380178 247.892477 
L 428.895 248.01269 
L 428.895 248.01269 
" clip-path="url(#p7c22f98d01)" style="fill: none; stroke: #d62728; stroke-width: 1.5; stroke-linecap: square"/>
   </g>
   <g id="line2d_27">
    <defs>
     <path id="ma833c5b6ac" d="M 0 3 
C 0.795609 3 1.55874 2.683901 2.12132 2.12132 
C 2.683901 1.55874 3 0.795609 3 0 
C 3 -0.795609 2.683901 -1.55874 2.12132 -2.12132 
C 1.55874 -2.683901 0.795609 -3 0 -3 
C -0.795609 -3 -1.55874 -2.683901 -2.12132 -2.12132 
C -2.683901 -1.55874 -3 -0.795609 -3 0 
C -3 0.795609 -2.683901 1.55874 -2.12132 2.12132 
C -1.55874 2.683901 -0.795609 3 0 3 
z
" style="stroke: #9467bd"/>
    </defs>
    <g clip-path="url(#p7c22f98d01)">
     <use xlink:href="#ma833c5b6ac" x="75.55175" y="258.055776" style="fill: #9467bd; stroke: #9467bd"/>
     <use xlink:href="#ma833c5b6ac" x="170.09175" y="248.81498" style="fill: #9467bd; stroke: #9467bd"/>
     <use xlink:href="#ma833c5b6ac" x="217.36175" y="223.732819" style="fill: #9467bd; stroke: #9467bd"/>
     <use xlink:href="#ma833c5b6ac" x="240.99675" y="195.570392" style="fill: #9467bd; stroke: #9467bd"/>
     <use xlink:href="#ma833c5b6ac" x="264.63175" y="175.768686" style="fill: #9467bd; stroke: #9467bd"/>
     <use xlink:href="#ma833c5b6ac" x="288.26675" y="170.928269" style="fill: #9467bd; stroke: #9467bd"/>
     <use xlink:href="#ma833c5b6ac" x="311.90175" y="164.3277" style="fill: #9467bd; stroke: #9467bd"/>
     <use xlink:href="#ma833c5b6ac" x="335.53675" y="206.57134" style="fill: #9467bd; stroke: #9467bd"/>
     <use xlink:href="#ma833c5b6ac" x="359.17175" y="230.333387" style="fill: #9467bd; stroke: #9467bd"/>
     <use xlink:href="#ma833c5b6ac" x="406.44175" y="251.015169" style="fill: #9467bd; stroke: #9467bd"/>
    </g>
   </g>
   <g id="line2d_28">
    <path d="M 59.00725 256.113801 
L 112.335506 255.997266 
L 128.02457 255.745292 
L 138.617418 255.361605 
L 146.880568 254.846223 
L 153.796861 254.196924 
L 159.839516 253.409651 
L 165.263346 252.48116 
L 170.213955 251.411307 
L 174.836951 250.187356 
L 179.205136 248.80277 
L 183.391313 247.243245 
L 187.431884 245.500878 
L 191.36325 243.564243 
L 195.258215 241.395963 
L 199.116778 238.991462 
L 202.975341 236.323788 
L 206.870306 233.360409 
L 210.874476 230.032272 
L 215.024251 226.290653 
L 219.428837 222.013298 
L 224.197439 217.064515 
L 229.65767 211.06505 
L 236.937978 202.705361 
L 249.096093 188.728667 
L 254.083104 183.363996 
L 258.232879 179.217728 
L 261.873033 175.886877 
L 265.185573 173.150565 
L 268.243303 170.906646 
L 271.119024 169.067198 
L 273.84914 167.581726 
L 276.470051 166.408088 
L 278.981757 165.525164 
L 281.42066 164.901297 
L 283.823162 164.51643 
L 286.189262 164.36306 
L 288.555362 164.434773 
L 290.921462 164.731042 
L 293.323964 165.259388 
L 295.762867 166.026139 
L 298.274573 167.052151 
L 300.859083 168.349517 
L 303.589198 169.973918 
L 306.46492 171.950453 
L 309.522649 174.328335 
L 312.835189 177.194592 
L 316.475344 180.648536 
L 320.588718 184.869849 
L 325.502925 190.248369 
L 332.346415 198.101293 
L 345.050553 212.710634 
L 350.619988 218.737843 
L 355.424991 223.617931 
L 359.865979 227.815707 
L 364.052156 231.470794 
L 368.092727 234.706902 
L 372.024094 237.575006 
L 375.919059 240.144554 
L 379.814023 242.449185 
L 383.74539 244.516763 
L 387.713158 246.353769 
L 391.79013 247.997293 
L 396.012709 249.459728 
L 400.453697 250.759832 
L 405.149495 251.899202 
L 410.172908 252.885835 
L 415.633139 253.72838 
L 421.712196 254.436511 
L 422.98625 254.559072 
L 422.98625 254.559072 
" clip-path="url(#p7c22f98d01)" style="fill: none; stroke: #9467bd; stroke-width: 1.5; stroke-linecap: square"/>
   </g>
   <g id="line2d_29">
    <defs>
     <path id="mc8bf80d0e1" d="M 0 3 
C 0.795609 3 1.55874 2.683901 2.12132 2.12132 
C 2.683901 1.55874 3 0.795609 3 0 
C 3 -0.795609 2.683901 -1.55874 2.12132 -2.12132 
C 1.55874 -2.683901 0.795609 -3 0 -3 
C -0.795609 -3 -1.55874 -2.683901 -2.12132 -2.12132 
C -2.683901 -1.55874 -3 -0.795609 -3 0 
C -3 0.795609 -2.683901 1.55874 -2.12132 2.12132 
C -1.55874 2.683901 -0.795609 3 0 3 
z
" style="stroke: #8c564b"/>
    </defs>
    <g clip-path="url(#p7c22f98d01)">
     <use xlink:href="#mc8bf80d0e1" x="155.91075" y="251.455207" style="fill: #8c564b; stroke: #8c564b"/>
     <use xlink:href="#mc8bf80d0e1" x="203.18075" y="229.453312" style="fill: #8c564b; stroke: #8c564b"/>
     <use xlink:href="#mc8bf80d0e1" x="226.81575" y="205.251226" style="fill: #8c564b; stroke: #8c564b"/>
     <use xlink:href="#mc8bf80d0e1" x="250.45075" y="164.767738" style="fill: #8c564b; stroke: #8c564b"/>
     <use xlink:href="#mc8bf80d0e1" x="274.08575" y="141.005691" style="fill: #8c564b; stroke: #8c564b"/>
     <use xlink:href="#mc8bf80d0e1" x="297.72075" y="127.364515" style="fill: #8c564b; stroke: #8c564b"/>
     <use xlink:href="#mc8bf80d0e1" x="321.35575" y="142.325805" style="fill: #8c564b; stroke: #8c564b"/>
     <use xlink:href="#mc8bf80d0e1" x="344.99075" y="212.731871" style="fill: #8c564b; stroke: #8c564b"/>
     <use xlink:href="#mc8bf80d0e1" x="368.62575" y="233.853691" style="fill: #8c564b; stroke: #8c564b"/>
     <use xlink:href="#mc8bf80d0e1" x="415.89575" y="252.335283" style="fill: #8c564b; stroke: #8c564b"/>
    </g>
   </g>
   <g id="line2d_30">
    <path d="M 142.9115 252.686046 
L 151.777875 252.289741 
L 158.75657 251.761796 
L 164.591217 251.103051 
L 169.682233 250.309327 
L 174.258426 249.373983 
L 178.434203 248.296623 
L 182.323968 247.065666 
L 185.984922 245.675866 
L 189.47427 244.115077 
L 192.849213 242.361517 
L 196.109751 240.417607 
L 199.313086 238.249075 
L 202.487821 235.829384 
L 205.633954 233.150718 
L 208.808688 230.151757 
L 212.012024 226.814916 
L 215.272562 223.092123 
L 218.618903 218.928368 
L 222.07965 214.263089 
L 225.740605 208.946926 
L 229.65897 202.855532 
L 234.006354 195.672794 
L 239.154572 186.715944 
L 247.477524 171.707361 
L 254.570624 159.103637 
L 258.975211 151.71913 
L 262.607564 146.048131 
L 265.782299 141.49033 
L 268.64242 137.761008 
L 271.273731 134.686361 
L 273.704834 132.178306 
L 275.992931 130.130955 
L 278.138021 128.502778 
L 280.168707 127.232208 
L 282.11359 126.270185 
L 284.00127 125.580596 
L 285.831747 125.145406 
L 287.633623 124.943908 
L 289.406898 124.966435 
L 291.208774 125.213591 
L 293.010651 125.685504 
L 294.869729 126.405322 
L 296.78601 127.390637 
L 298.759494 128.657448 
L 300.847382 130.267426 
L 303.049675 132.254003 
L 305.394975 134.678287 
L 307.88328 137.575774 
L 310.600395 141.090499 
L 313.574921 145.31317 
L 316.892661 150.420203 
L 320.753825 156.788678 
L 325.587429 165.217537 
L 335.025828 182.252479 
L 341.518303 193.706489 
L 346.294705 201.690918 
L 350.441881 208.201641 
L 354.245842 213.770638 
L 357.849594 218.658764 
L 361.281739 222.946707 
L 364.628081 226.775673 
L 367.888619 230.172846 
L 371.120556 233.221021 
L 374.323891 235.9385 
L 377.527227 238.3668 
L 380.759163 240.539794 
L 384.048303 242.484407 
L 387.423245 244.221495 
L 390.912593 245.766864 
L 394.544947 247.132395 
L 398.377509 248.335392 
L 402.496083 249.392053 
L 406.957872 250.302862 
L 411.87728 251.075076 
L 417.397314 251.711987 
L 423.832586 252.223843 
L 428.895 252.498666 
L 428.895 252.498666 
" clip-path="url(#p7c22f98d01)" style="fill: none; stroke: #8c564b; stroke-width: 1.5; stroke-linecap: square"/>
   </g>
   <g id="patch_3">
    <path d="M 56.64375 263.55625 
L 56.64375 31.43625 
" style="fill: none; stroke: #000000; stroke-width: 0.8; stroke-linejoin: miter; stroke-linecap: square"/>
   </g>
   <g id="patch_4">
    <path d="M 434.80375 263.55625 
L 434.80375 31.43625 
" style="fill: none; stroke: #000000; stroke-width: 0.8; stroke-linejoin: miter; stroke-linecap: square"/>
   </g>
   <g id="patch_5">
    <path d="M 56.64375 263.55625 
L 434.80375 263.55625 
" style="fill: none; stroke: #000000; stroke-width: 0.8; stroke-linejoin: miter; stroke-linecap: square"/>
   </g>
   <g id="patch_6">
    <path d="M 56.64375 31.43625 
L 434.80375 31.43625 
" style="fill: none; stroke: #000000; stroke-width: 0.8; stroke-linejoin: miter; stroke-linecap: square"/>
   </g>
   <g id="text_12">
    <!-- $w_{10.0}=132.5(50)\ \mu m$ -->
    <g style="fill: #1f77b4" transform="translate(56.64375 49.037767) scale(0.16 -0.16)">
     <defs>
      <path id="DejaVuSans-Oblique-77" d="M 544 3500 
L 1113 3500 
L 1259 684 
L 2566 3500 
L 3231 3500 
L 3425 684 
L 4666 3500 
L 5241 3500 
L 3641 0 
L 2969 0 
L 2797 2900 
L 1459 0 
L 781 0 
L 544 3500 
z
" transform="scale(0.015625)"/>
      <path id="DejaVuSans-3d" d="M 678 2906 
L 4684 2906 
L 4684 2381 
L 678 2381 
L 678 2906 
z
M 678 1631 
L 4684 1631 
L 4684 1100 
L 678 1100 
L 678 1631 
z
" transform="scale(0.015625)"/>
      <path id="DejaVuSans-Oblique-3bc" d="M -84 -1331 
L 856 3500 
L 1434 3500 
L 1009 1322 
Q 997 1256 987 1175 
Q 978 1094 978 1013 
Q 978 722 1161 565 
Q 1344 409 1684 409 
Q 2147 409 2431 671 
Q 2716 934 2816 1459 
L 3213 3500 
L 3788 3500 
L 3266 809 
Q 3253 750 3248 706 
Q 3244 663 3244 628 
Q 3244 531 3283 486 
Q 3322 441 3406 441 
Q 3438 441 3492 456 
Q 3547 472 3647 513 
L 3559 50 
Q 3422 -19 3297 -55 
Q 3172 -91 3053 -91 
Q 2847 -91 2730 40 
Q 2613 172 2613 403 
Q 2438 153 2195 31 
Q 1953 -91 1625 -91 
Q 1334 -91 1117 43 
Q 900 178 831 397 
L 494 -1331 
L -84 -1331 
z
" transform="scale(0.015625)"/>
      <path id="DejaVuSans-Oblique-6d" d="M 5747 2113 
L 5338 0 
L 4763 0 
L 5166 2094 
Q 5191 2228 5203 2325 
Q 5216 2422 5216 2491 
Q 5216 2772 5059 2928 
Q 4903 3084 4622 3084 
Q 4203 3084 3875 2770 
Q 3547 2456 3450 1953 
L 3066 0 
L 2491 0 
L 2900 2094 
Q 2925 2209 2937 2307 
Q 2950 2406 2950 2484 
Q 2950 2769 2794 2926 
Q 2638 3084 2363 3084 
Q 1938 3084 1609 2770 
Q 1281 2456 1184 1953 
L 800 0 
L 225 0 
L 909 3500 
L 1484 3500 
L 1375 2956 
Q 1609 3263 1923 3423 
Q 2238 3584 2597 3584 
Q 2978 3584 3223 3384 
Q 3469 3184 3519 2828 
Q 3781 3197 4126 3390 
Q 4472 3584 4856 3584 
Q 5306 3584 5551 3325 
Q 5797 3066 5797 2591 
Q 5797 2488 5784 2364 
Q 5772 2241 5747 2113 
z
" transform="scale(0.015625)"/>
     </defs>
     <use xlink:href="#DejaVuSans-Oblique-77" transform="translate(0 0.125)"/>
     <use xlink:href="#DejaVuSans-31" transform="translate(81.787109 -16.28125) scale(0.7)"/>
     <use xlink:href="#DejaVuSans-30" transform="translate(126.323242 -16.28125) scale(0.7)"/>
     <use xlink:href="#DejaVuSans-2e" transform="translate(170.859375 -16.28125) scale(0.7)"/>
     <use xlink:href="#DejaVuSans-30" transform="translate(193.110352 -16.28125) scale(0.7)"/>
     <use xlink:href="#DejaVuSans-3d" transform="translate(259.863281 0.125)"/>
     <use xlink:href="#DejaVuSans-31" transform="translate(363.134766 0.125)"/>
     <use xlink:href="#DejaVuSans-33" transform="translate(426.757812 0.125)"/>
     <use xlink:href="#DejaVuSans-32" transform="translate(490.380859 0.125)"/>
     <use xlink:href="#DejaVuSans-2e" transform="translate(554.003906 0.125)"/>
     <use xlink:href="#DejaVuSans-35" transform="translate(585.791016 0.125)"/>
     <use xlink:href="#DejaVuSans-28" transform="translate(649.414062 0.125)"/>
     <use xlink:href="#DejaVuSans-35" transform="translate(688.427734 0.125)"/>
     <use xlink:href="#DejaVuSans-30" transform="translate(752.050781 0.125)"/>
     <use xlink:href="#DejaVuSans-29" transform="translate(815.673828 0.125)"/>
     <use xlink:href="#DejaVuSans-Oblique-3bc" transform="translate(887.157878 0.125)"/>
     <use xlink:href="#DejaVuSans-Oblique-6d" transform="translate(950.780925 0.125)"/>
    </g>
   </g>
   <g id="text_13">
    <!-- $w_{10.5}=119.9(83)\ \mu m$ -->
    <g style="fill: #ff7f0e" transform="translate(56.64375 66.639283) scale(0.16 -0.16)">
     <defs>
      <path id="DejaVuSans-38" d="M 2034 2216 
Q 1584 2216 1326 1975 
Q 1069 1734 1069 1313 
Q 1069 891 1326 650 
Q 1584 409 2034 409 
Q 2484 409 2743 651 
Q 3003 894 3003 1313 
Q 3003 1734 2745 1975 
Q 2488 2216 2034 2216 
z
M 1403 2484 
Q 997 2584 770 2862 
Q 544 3141 544 3541 
Q 544 4100 942 4425 
Q 1341 4750 2034 4750 
Q 2731 4750 3128 4425 
Q 3525 4100 3525 3541 
Q 3525 3141 3298 2862 
Q 3072 2584 2669 2484 
Q 3125 2378 3379 2068 
Q 3634 1759 3634 1313 
Q 3634 634 3220 271 
Q 2806 -91 2034 -91 
Q 1263 -91 848 271 
Q 434 634 434 1313 
Q 434 1759 690 2068 
Q 947 2378 1403 2484 
z
M 1172 3481 
Q 1172 3119 1398 2916 
Q 1625 2713 2034 2713 
Q 2441 2713 2670 2916 
Q 2900 3119 2900 3481 
Q 2900 3844 2670 4047 
Q 2441 4250 2034 4250 
Q 1625 4250 1398 4047 
Q 1172 3844 1172 3481 
z
" transform="scale(0.015625)"/>
     </defs>
     <use xlink:href="#DejaVuSans-Oblique-77" transform="translate(0 0.125)"/>
     <use xlink:href="#DejaVuSans-31" transform="translate(81.787109 -16.28125) scale(0.7)"/>
     <use xlink:href="#DejaVuSans-30" transform="translate(126.323242 -16.28125) scale(0.7)"/>
     <use xlink:href="#DejaVuSans-2e" transform="translate(170.859375 -16.28125) scale(0.7)"/>
     <use xlink:href="#DejaVuSans-35" transform="translate(193.110352 -16.28125) scale(0.7)"/>
     <use xlink:href="#DejaVuSans-3d" transform="translate(259.863281 0.125)"/>
     <use xlink:href="#DejaVuSans-31" transform="translate(363.134766 0.125)"/>
     <use xlink:href="#DejaVuSans-31" transform="translate(426.757812 0.125)"/>
     <use xlink:href="#DejaVuSans-39" transform="translate(490.380859 0.125)"/>
     <use xlink:href="#DejaVuSans-2e" transform="translate(554.003906 0.125)"/>
     <use xlink:href="#DejaVuSans-39" transform="translate(585.791016 0.125)"/>
     <use xlink:href="#DejaVuSans-28" transform="translate(649.414062 0.125)"/>
     <use xlink:href="#DejaVuSans-38" transform="translate(688.427734 0.125)"/>
     <use xlink:href="#DejaVuSans-33" transform="translate(752.050781 0.125)"/>
     <use xlink:href="#DejaVuSans-29" transform="translate(815.673828 0.125)"/>
     <use xlink:href="#DejaVuSans-Oblique-3bc" transform="translate(887.157878 0.125)"/>
     <use xlink:href="#DejaVuSans-Oblique-6d" transform="translate(950.780925 0.125)"/>
    </g>
   </g>
   <g id="text_14">
    <!-- $w_{11.0}=113.1(71)\ \mu m$ -->
    <g style="fill: #2ca02c" transform="translate(56.64375 84.2408) scale(0.16 -0.16)">
     <use xlink:href="#DejaVuSans-Oblique-77" transform="translate(0 0.125)"/>
     <use xlink:href="#DejaVuSans-31" transform="translate(81.787109 -16.28125) scale(0.7)"/>
     <use xlink:href="#DejaVuSans-31" transform="translate(126.323242 -16.28125) scale(0.7)"/>
     <use xlink:href="#DejaVuSans-2e" transform="translate(170.859375 -16.28125) scale(0.7)"/>
     <use xlink:href="#DejaVuSans-30" transform="translate(193.110352 -16.28125) scale(0.7)"/>
     <use xlink:href="#DejaVuSans-3d" transform="translate(259.863281 0.125)"/>
     <use xlink:href="#DejaVuSans-31" transform="translate(363.134766 0.125)"/>
     <use xlink:href="#DejaVuSans-31" transform="translate(426.757812 0.125)"/>
     <use xlink:href="#DejaVuSans-33" transform="translate(490.380859 0.125)"/>
     <use xlink:href="#DejaVuSans-2e" transform="translate(554.003906 0.125)"/>
     <use xlink:href="#DejaVuSans-31" transform="translate(585.791016 0.125)"/>
     <use xlink:href="#DejaVuSans-28" transform="translate(649.414062 0.125)"/>
     <use xlink:href="#DejaVuSans-37" transform="translate(688.427734 0.125)"/>
     <use xlink:href="#DejaVuSans-31" transform="translate(752.050781 0.125)"/>
     <use xlink:href="#DejaVuSans-29" transform="translate(815.673828 0.125)"/>
     <use xlink:href="#DejaVuSans-Oblique-3bc" transform="translate(887.157878 0.125)"/>
     <use xlink:href="#DejaVuSans-Oblique-6d" transform="translate(950.780925 0.125)"/>
    </g>
   </g>
   <g id="text_15">
    <!-- $w_{11.5}=108.0(96)\ \mu m$ -->
    <g style="fill: #d62728" transform="translate(56.64375 101.842316) scale(0.16 -0.16)">
     <use xlink:href="#DejaVuSans-Oblique-77" transform="translate(0 0.125)"/>
     <use xlink:href="#DejaVuSans-31" transform="translate(81.787109 -16.28125) scale(0.7)"/>
     <use xlink:href="#DejaVuSans-31" transform="translate(126.323242 -16.28125) scale(0.7)"/>
     <use xlink:href="#DejaVuSans-2e" transform="translate(170.859375 -16.28125) scale(0.7)"/>
     <use xlink:href="#DejaVuSans-35" transform="translate(193.110352 -16.28125) scale(0.7)"/>
     <use xlink:href="#DejaVuSans-3d" transform="translate(259.863281 0.125)"/>
     <use xlink:href="#DejaVuSans-31" transform="translate(363.134766 0.125)"/>
     <use xlink:href="#DejaVuSans-30" transform="translate(426.757812 0.125)"/>
     <use xlink:href="#DejaVuSans-38" transform="translate(490.380859 0.125)"/>
     <use xlink:href="#DejaVuSans-2e" transform="translate(554.003906 0.125)"/>
     <use xlink:href="#DejaVuSans-30" transform="translate(585.791016 0.125)"/>
     <use xlink:href="#DejaVuSans-28" transform="translate(649.414062 0.125)"/>
     <use xlink:href="#DejaVuSans-39" transform="translate(688.427734 0.125)"/>
     <use xlink:href="#DejaVuSans-36" transform="translate(752.050781 0.125)"/>
     <use xlink:href="#DejaVuSans-29" transform="translate(815.673828 0.125)"/>
     <use xlink:href="#DejaVuSans-Oblique-3bc" transform="translate(887.157878 0.125)"/>
     <use xlink:href="#DejaVuSans-Oblique-6d" transform="translate(950.780925 0.125)"/>
    </g>
   </g>
   <g id="text_16">
    <!-- $w_{12.075}=101.0(84)\ \mu m$ -->
    <g style="fill: #9467bd" transform="translate(56.64375 119.443833) scale(0.16 -0.16)">
     <use xlink:href="#DejaVuSans-Oblique-77" transform="translate(0 0.125)"/>
     <use xlink:href="#DejaVuSans-31" transform="translate(81.787109 -16.28125) scale(0.7)"/>
     <use xlink:href="#DejaVuSans-32" transform="translate(126.323242 -16.28125) scale(0.7)"/>
     <use xlink:href="#DejaVuSans-2e" transform="translate(170.859375 -16.28125) scale(0.7)"/>
     <use xlink:href="#DejaVuSans-30" transform="translate(193.110352 -16.28125) scale(0.7)"/>
     <use xlink:href="#DejaVuSans-37" transform="translate(237.646484 -16.28125) scale(0.7)"/>
     <use xlink:href="#DejaVuSans-35" transform="translate(282.182617 -16.28125) scale(0.7)"/>
     <use xlink:href="#DejaVuSans-3d" transform="translate(348.935547 0.125)"/>
     <use xlink:href="#DejaVuSans-31" transform="translate(452.207031 0.125)"/>
     <use xlink:href="#DejaVuSans-30" transform="translate(515.830078 0.125)"/>
     <use xlink:href="#DejaVuSans-31" transform="translate(579.453125 0.125)"/>
     <use xlink:href="#DejaVuSans-2e" transform="translate(643.076172 0.125)"/>
     <use xlink:href="#DejaVuSans-30" transform="translate(674.863281 0.125)"/>
     <use xlink:href="#DejaVuSans-28" transform="translate(738.486328 0.125)"/>
     <use xlink:href="#DejaVuSans-38" transform="translate(777.5 0.125)"/>
     <use xlink:href="#DejaVuSans-34" transform="translate(841.123047 0.125)"/>
     <use xlink:href="#DejaVuSans-29" transform="translate(904.746094 0.125)"/>
     <use xlink:href="#DejaVuSans-Oblique-3bc" transform="translate(976.230144 0.125)"/>
     <use xlink:href="#DejaVuSans-Oblique-6d" transform="translate(1039.853191 0.125)"/>
    </g>
   </g>
   <g id="text_17">
    <!-- $w_{12.5}=90.7(81)\ \mu m$ -->
    <g style="fill: #8c564b" transform="translate(56.64375 137.04535) scale(0.16 -0.16)">
     <use xlink:href="#DejaVuSans-Oblique-77" transform="translate(0 0.125)"/>
     <use xlink:href="#DejaVuSans-31" transform="translate(81.787109 -16.28125) scale(0.7)"/>
     <use xlink:href="#DejaVuSans-32" transform="translate(126.323242 -16.28125) scale(0.7)"/>
     <use xlink:href="#DejaVuSans-2e" transform="translate(170.859375 -16.28125) scale(0.7)"/>
     <use xlink:href="#DejaVuSans-35" transform="translate(193.110352 -16.28125) scale(0.7)"/>
     <use xlink:href="#DejaVuSans-3d" transform="translate(259.863281 0.125)"/>
     <use xlink:href="#DejaVuSans-39" transform="translate(363.134766 0.125)"/>
     <use xlink:href="#DejaVuSans-30" transform="translate(426.757812 0.125)"/>
     <use xlink:href="#DejaVuSans-2e" transform="translate(490.380859 0.125)"/>
     <use xlink:href="#DejaVuSans-37" transform="translate(514.417969 0.125)"/>
     <use xlink:href="#DejaVuSans-28" transform="translate(578.041016 0.125)"/>
     <use xlink:href="#DejaVuSans-38" transform="translate(617.054688 0.125)"/>
     <use xlink:href="#DejaVuSans-31" transform="translate(680.677734 0.125)"/>
     <use xlink:href="#DejaVuSans-29" transform="translate(744.300781 0.125)"/>
     <use xlink:href="#DejaVuSans-Oblique-3bc" transform="translate(815.784832 0.125)"/>
     <use xlink:href="#DejaVuSans-Oblique-6d" transform="translate(879.407878 0.125)"/>
    </g>
   </g>
   <g id="text_18">
    <!-- Horizontal Profile -->
    <g transform="translate(143.331875 25.43625) scale(0.24 -0.24)">
     <defs>
      <path id="DejaVuSans-48" d="M 628 4666 
L 1259 4666 
L 1259 2753 
L 3553 2753 
L 3553 4666 
L 4184 4666 
L 4184 0 
L 3553 0 
L 3553 2222 
L 1259 2222 
L 1259 0 
L 628 0 
L 628 4666 
z
" transform="scale(0.015625)"/>
      <path id="DejaVuSans-72" d="M 2631 2963 
Q 2534 3019 2420 3045 
Q 2306 3072 2169 3072 
Q 1681 3072 1420 2755 
Q 1159 2438 1159 1844 
L 1159 0 
L 581 0 
L 581 3500 
L 1159 3500 
L 1159 2956 
Q 1341 3275 1631 3429 
Q 1922 3584 2338 3584 
Q 2397 3584 2469 3576 
Q 2541 3569 2628 3553 
L 2631 2963 
z
" transform="scale(0.015625)"/>
      <path id="DejaVuSans-7a" d="M 353 3500 
L 3084 3500 
L 3084 2975 
L 922 459 
L 3084 459 
L 3084 0 
L 275 0 
L 275 525 
L 2438 3041 
L 353 3041 
L 353 3500 
z
" transform="scale(0.015625)"/>
      <path id="DejaVuSans-61" d="M 2194 1759 
Q 1497 1759 1228 1600 
Q 959 1441 959 1056 
Q 959 750 1161 570 
Q 1363 391 1709 391 
Q 2188 391 2477 730 
Q 2766 1069 2766 1631 
L 2766 1759 
L 2194 1759 
z
M 3341 1997 
L 3341 0 
L 2766 0 
L 2766 531 
Q 2569 213 2275 61 
Q 1981 -91 1556 -91 
Q 1019 -91 701 211 
Q 384 513 384 1019 
Q 384 1609 779 1909 
Q 1175 2209 1959 2209 
L 2766 2209 
L 2766 2266 
Q 2766 2663 2505 2880 
Q 2244 3097 1772 3097 
Q 1472 3097 1187 3025 
Q 903 2953 641 2809 
L 641 3341 
Q 956 3463 1253 3523 
Q 1550 3584 1831 3584 
Q 2591 3584 2966 3190 
Q 3341 2797 3341 1997 
z
" transform="scale(0.015625)"/>
      <path id="DejaVuSans-6c" d="M 603 4863 
L 1178 4863 
L 1178 0 
L 603 0 
L 603 4863 
z
" transform="scale(0.015625)"/>
      <path id="DejaVuSans-66" d="M 2375 4863 
L 2375 4384 
L 1825 4384 
Q 1516 4384 1395 4259 
Q 1275 4134 1275 3809 
L 1275 3500 
L 2222 3500 
L 2222 3053 
L 1275 3053 
L 1275 0 
L 697 0 
L 697 3053 
L 147 3053 
L 147 3500 
L 697 3500 
L 697 3744 
Q 697 4328 969 4595 
Q 1241 4863 1831 4863 
L 2375 4863 
z
" transform="scale(0.015625)"/>
      <path id="DejaVuSans-65" d="M 3597 1894 
L 3597 1613 
L 953 1613 
Q 991 1019 1311 708 
Q 1631 397 2203 397 
Q 2534 397 2845 478 
Q 3156 559 3463 722 
L 3463 178 
Q 3153 47 2828 -22 
Q 2503 -91 2169 -91 
Q 1331 -91 842 396 
Q 353 884 353 1716 
Q 353 2575 817 3079 
Q 1281 3584 2069 3584 
Q 2775 3584 3186 3129 
Q 3597 2675 3597 1894 
z
M 3022 2063 
Q 3016 2534 2758 2815 
Q 2500 3097 2075 3097 
Q 1594 3097 1305 2825 
Q 1016 2553 972 2059 
L 3022 2063 
z
" transform="scale(0.015625)"/>
     </defs>
     <use xlink:href="#DejaVuSans-48"/>
     <use xlink:href="#DejaVuSans-6f" x="75.195312"/>
     <use xlink:href="#DejaVuSans-72" x="136.376953"/>
     <use xlink:href="#DejaVuSans-69" x="177.490234"/>
     <use xlink:href="#DejaVuSans-7a" x="205.273438"/>
     <use xlink:href="#DejaVuSans-6f" x="257.763672"/>
     <use xlink:href="#DejaVuSans-6e" x="318.945312"/>
     <use xlink:href="#DejaVuSans-74" x="382.324219"/>
     <use xlink:href="#DejaVuSans-61" x="421.533203"/>
     <use xlink:href="#DejaVuSans-6c" x="482.8125"/>
     <use xlink:href="#DejaVuSans-20" x="510.595703"/>
     <use xlink:href="#DejaVuSans-50" x="542.382812"/>
     <use xlink:href="#DejaVuSans-72" x="600.935547"/>
     <use xlink:href="#DejaVuSans-6f" x="639.798828"/>
     <use xlink:href="#DejaVuSans-66" x="700.980469"/>
     <use xlink:href="#DejaVuSans-69" x="736.185547"/>
     <use xlink:href="#DejaVuSans-6c" x="763.96875"/>
     <use xlink:href="#DejaVuSans-65" x="791.751953"/>
    </g>
   </g>
  </g>
  <g id="axes_2">
   <g id="patch_7">
    <path d="M 506.64375 263.55625 
L 884.80375 263.55625 
L 884.80375 31.43625 
L 506.64375 31.43625 
L 506.64375 263.55625 
z
" style="fill: none"/>
   </g>
   <g id="matplotlib.axis_3">
    <g id="xtick_5">
     <g id="line2d_31">
      <path d="M 536.420128 263.55625 
L 536.420128 31.43625 
" clip-path="url(#p3da98e6c54)" style="fill: none; stroke: #b0b0b0; stroke-width: 0.8; stroke-linecap: square"/>
     </g>
     <g id="line2d_32">
      <g>
       <use xlink:href="#md39032bed2" x="536.420128" y="263.55625" style="stroke: #000000; stroke-width: 0.8"/>
      </g>
     </g>
     <g id="text_19">
      <!-- 6.43 -->
      <g transform="translate(519.720909 281.953906) scale(0.15 -0.15)">
       <use xlink:href="#DejaVuSans-36"/>
       <use xlink:href="#DejaVuSans-2e" x="63.623047"/>
       <use xlink:href="#DejaVuSans-34" x="95.410156"/>
       <use xlink:href="#DejaVuSans-33" x="159.033203"/>
      </g>
     </g>
    </g>
    <g id="xtick_6">
     <g id="line2d_33">
      <path d="M 595.972884 263.55625 
L 595.972884 31.43625 
" clip-path="url(#p3da98e6c54)" style="fill: none; stroke: #b0b0b0; stroke-width: 0.8; stroke-linecap: square"/>
     </g>
     <g id="line2d_34">
      <g>
       <use xlink:href="#md39032bed2" x="595.972884" y="263.55625" style="stroke: #000000; stroke-width: 0.8"/>
      </g>
     </g>
     <g id="text_20">
      <!-- 6.44 -->
      <g transform="translate(579.273665 281.953906) scale(0.15 -0.15)">
       <use xlink:href="#DejaVuSans-36"/>
       <use xlink:href="#DejaVuSans-2e" x="63.623047"/>
       <use xlink:href="#DejaVuSans-34" x="95.410156"/>
       <use xlink:href="#DejaVuSans-34" x="159.033203"/>
      </g>
     </g>
    </g>
    <g id="xtick_7">
     <g id="line2d_35">
      <path d="M 655.52564 263.55625 
L 655.52564 31.43625 
" clip-path="url(#p3da98e6c54)" style="fill: none; stroke: #b0b0b0; stroke-width: 0.8; stroke-linecap: square"/>
     </g>
     <g id="line2d_36">
      <g>
       <use xlink:href="#md39032bed2" x="655.52564" y="263.55625" style="stroke: #000000; stroke-width: 0.8"/>
      </g>
     </g>
     <g id="text_21">
      <!-- 6.45 -->
      <g transform="translate(638.826421 281.953906) scale(0.15 -0.15)">
       <use xlink:href="#DejaVuSans-36"/>
       <use xlink:href="#DejaVuSans-2e" x="63.623047"/>
       <use xlink:href="#DejaVuSans-34" x="95.410156"/>
       <use xlink:href="#DejaVuSans-35" x="159.033203"/>
      </g>
     </g>
    </g>
    <g id="xtick_8">
     <g id="line2d_37">
      <path d="M 715.078396 263.55625 
L 715.078396 31.43625 
" clip-path="url(#p3da98e6c54)" style="fill: none; stroke: #b0b0b0; stroke-width: 0.8; stroke-linecap: square"/>
     </g>
     <g id="line2d_38">
      <g>
       <use xlink:href="#md39032bed2" x="715.078396" y="263.55625" style="stroke: #000000; stroke-width: 0.8"/>
      </g>
     </g>
     <g id="text_22">
      <!-- 6.46 -->
      <g transform="translate(698.379177 281.953906) scale(0.15 -0.15)">
       <use xlink:href="#DejaVuSans-36"/>
       <use xlink:href="#DejaVuSans-2e" x="63.623047"/>
       <use xlink:href="#DejaVuSans-34" x="95.410156"/>
       <use xlink:href="#DejaVuSans-36" x="159.033203"/>
      </g>
     </g>
    </g>
    <g id="xtick_9">
     <g id="line2d_39">
      <path d="M 774.631152 263.55625 
L 774.631152 31.43625 
" clip-path="url(#p3da98e6c54)" style="fill: none; stroke: #b0b0b0; stroke-width: 0.8; stroke-linecap: square"/>
     </g>
     <g id="line2d_40">
      <g>
       <use xlink:href="#md39032bed2" x="774.631152" y="263.55625" style="stroke: #000000; stroke-width: 0.8"/>
      </g>
     </g>
     <g id="text_23">
      <!-- 6.47 -->
      <g transform="translate(757.931933 281.953906) scale(0.15 -0.15)">
       <use xlink:href="#DejaVuSans-36"/>
       <use xlink:href="#DejaVuSans-2e" x="63.623047"/>
       <use xlink:href="#DejaVuSans-34" x="95.410156"/>
       <use xlink:href="#DejaVuSans-37" x="159.033203"/>
      </g>
     </g>
    </g>
    <g id="xtick_10">
     <g id="line2d_41">
      <path d="M 834.183907 263.55625 
L 834.183907 31.43625 
" clip-path="url(#p3da98e6c54)" style="fill: none; stroke: #b0b0b0; stroke-width: 0.8; stroke-linecap: square"/>
     </g>
     <g id="line2d_42">
      <g>
       <use xlink:href="#md39032bed2" x="834.183907" y="263.55625" style="stroke: #000000; stroke-width: 0.8"/>
      </g>
     </g>
     <g id="text_24">
      <!-- 6.48 -->
      <g transform="translate(817.484689 281.953906) scale(0.15 -0.15)">
       <use xlink:href="#DejaVuSans-36"/>
       <use xlink:href="#DejaVuSans-2e" x="63.623047"/>
       <use xlink:href="#DejaVuSans-34" x="95.410156"/>
       <use xlink:href="#DejaVuSans-38" x="159.033203"/>
      </g>
     </g>
    </g>
    <g id="text_25">
     <!-- Position (mm) -->
     <g transform="translate(626.333125 304.270312) scale(0.2 -0.2)">
      <use xlink:href="#DejaVuSans-50"/>
      <use xlink:href="#DejaVuSans-6f" x="56.677734"/>
      <use xlink:href="#DejaVuSans-73" x="117.859375"/>
      <use xlink:href="#DejaVuSans-69" x="169.958984"/>
      <use xlink:href="#DejaVuSans-74" x="197.742188"/>
      <use xlink:href="#DejaVuSans-69" x="236.951172"/>
      <use xlink:href="#DejaVuSans-6f" x="264.734375"/>
      <use xlink:href="#DejaVuSans-6e" x="325.916016"/>
      <use xlink:href="#DejaVuSans-20" x="389.294922"/>
      <use xlink:href="#DejaVuSans-28" x="421.082031"/>
      <use xlink:href="#DejaVuSans-6d" x="460.095703"/>
      <use xlink:href="#DejaVuSans-6d" x="557.507812"/>
      <use xlink:href="#DejaVuSans-29" x="654.919922"/>
     </g>
    </g>
   </g>
   <g id="matplotlib.axis_4">
    <g id="ytick_6">
     <g id="line2d_43">
      <path d="M 506.64375 231.696642 
L 884.80375 231.696642 
" clip-path="url(#p3da98e6c54)" style="fill: none; stroke: #b0b0b0; stroke-width: 0.8; stroke-linecap: square"/>
     </g>
     <g id="line2d_44">
      <g>
       <use xlink:href="#m6f3f5b6aff" x="506.64375" y="231.696642" style="stroke: #000000; stroke-width: 0.8"/>
      </g>
     </g>
     <g id="text_26">
      <!-- 10 -->
      <g transform="translate(480.55625 237.39547) scale(0.15 -0.15)">
       <use xlink:href="#DejaVuSans-31"/>
       <use xlink:href="#DejaVuSans-30" x="63.623047"/>
      </g>
     </g>
    </g>
    <g id="ytick_7">
     <g id="line2d_45">
      <path d="M 506.64375 186.182917 
L 884.80375 186.182917 
" clip-path="url(#p3da98e6c54)" style="fill: none; stroke: #b0b0b0; stroke-width: 0.8; stroke-linecap: square"/>
     </g>
     <g id="line2d_46">
      <g>
       <use xlink:href="#m6f3f5b6aff" x="506.64375" y="186.182917" style="stroke: #000000; stroke-width: 0.8"/>
      </g>
     </g>
     <g id="text_27">
      <!-- 20 -->
      <g transform="translate(480.55625 191.881745) scale(0.15 -0.15)">
       <use xlink:href="#DejaVuSans-32"/>
       <use xlink:href="#DejaVuSans-30" x="63.623047"/>
      </g>
     </g>
    </g>
    <g id="ytick_8">
     <g id="line2d_47">
      <path d="M 506.64375 140.669191 
L 884.80375 140.669191 
" clip-path="url(#p3da98e6c54)" style="fill: none; stroke: #b0b0b0; stroke-width: 0.8; stroke-linecap: square"/>
     </g>
     <g id="line2d_48">
      <g>
       <use xlink:href="#m6f3f5b6aff" x="506.64375" y="140.669191" style="stroke: #000000; stroke-width: 0.8"/>
      </g>
     </g>
     <g id="text_28">
      <!-- 30 -->
      <g transform="translate(480.55625 146.368019) scale(0.15 -0.15)">
       <use xlink:href="#DejaVuSans-33"/>
       <use xlink:href="#DejaVuSans-30" x="63.623047"/>
      </g>
     </g>
    </g>
    <g id="ytick_9">
     <g id="line2d_49">
      <path d="M 506.64375 95.155466 
L 884.80375 95.155466 
" clip-path="url(#p3da98e6c54)" style="fill: none; stroke: #b0b0b0; stroke-width: 0.8; stroke-linecap: square"/>
     </g>
     <g id="line2d_50">
      <g>
       <use xlink:href="#m6f3f5b6aff" x="506.64375" y="95.155466" style="stroke: #000000; stroke-width: 0.8"/>
      </g>
     </g>
     <g id="text_29">
      <!-- 40 -->
      <g transform="translate(480.55625 100.854294) scale(0.15 -0.15)">
       <use xlink:href="#DejaVuSans-34"/>
       <use xlink:href="#DejaVuSans-30" x="63.623047"/>
      </g>
     </g>
    </g>
    <g id="ytick_10">
     <g id="line2d_51">
      <path d="M 506.64375 49.64174 
L 884.80375 49.64174 
" clip-path="url(#p3da98e6c54)" style="fill: none; stroke: #b0b0b0; stroke-width: 0.8; stroke-linecap: square"/>
     </g>
     <g id="line2d_52">
      <g>
       <use xlink:href="#m6f3f5b6aff" x="506.64375" y="49.64174" style="stroke: #000000; stroke-width: 0.8"/>
      </g>
     </g>
     <g id="text_30">
      <!-- 50 -->
      <g transform="translate(480.55625 55.340568) scale(0.15 -0.15)">
       <use xlink:href="#DejaVuSans-35"/>
       <use xlink:href="#DejaVuSans-30" x="63.623047"/>
      </g>
     </g>
    </g>
    <g id="text_31">
     <!-- Counts -->
     <g transform="translate(472.396875 182.4025) rotate(-90) scale(0.2 -0.2)">
      <use xlink:href="#DejaVuSans-43"/>
      <use xlink:href="#DejaVuSans-6f" x="69.824219"/>
      <use xlink:href="#DejaVuSans-75" x="131.005859"/>
      <use xlink:href="#DejaVuSans-6e" x="194.384766"/>
      <use xlink:href="#DejaVuSans-74" x="257.763672"/>
      <use xlink:href="#DejaVuSans-73" x="296.972656"/>
     </g>
    </g>
   </g>
   <g id="line2d_53">
    <g clip-path="url(#p3da98e6c54)">
     <use xlink:href="#mcceb8b8273" x="697.212569" y="251.722681" style="fill: #1f77b4; stroke: #1f77b4"/>
     <use xlink:href="#mcceb8b8273" x="709.12312" y="250.812407" style="fill: #1f77b4; stroke: #1f77b4"/>
     <use xlink:href="#mcceb8b8273" x="721.033671" y="243.530211" style="fill: #1f77b4; stroke: #1f77b4"/>
     <use xlink:href="#mcceb8b8273" x="732.944222" y="223.959309" style="fill: #1f77b4; stroke: #1f77b4"/>
     <use xlink:href="#mcceb8b8273" x="744.854774" y="184.362368" style="fill: #1f77b4; stroke: #1f77b4"/>
     <use xlink:href="#mcceb8b8273" x="756.765325" y="148.861662" style="fill: #1f77b4; stroke: #1f77b4"/>
     <use xlink:href="#mcceb8b8273" x="768.675876" y="111.540407" style="fill: #1f77b4; stroke: #1f77b4"/>
     <use xlink:href="#mcceb8b8273" x="780.586427" y="103.347936" style="fill: #1f77b4; stroke: #1f77b4"/>
     <use xlink:href="#mcceb8b8273" x="792.496978" y="99.706838" style="fill: #1f77b4; stroke: #1f77b4"/>
     <use xlink:href="#mcceb8b8273" x="804.40753" y="113.816093" style="fill: #1f77b4; stroke: #1f77b4"/>
     <use xlink:href="#mcceb8b8273" x="816.318081" y="128.835623" style="fill: #1f77b4; stroke: #1f77b4"/>
     <use xlink:href="#mcceb8b8273" x="828.228632" y="182.996956" style="fill: #1f77b4; stroke: #1f77b4"/>
     <use xlink:href="#mcceb8b8273" x="840.139183" y="203.478132" style="fill: #1f77b4; stroke: #1f77b4"/>
     <use xlink:href="#mcceb8b8273" x="852.049734" y="224.869583" style="fill: #1f77b4; stroke: #1f77b4"/>
     <use xlink:href="#mcceb8b8273" x="863.960285" y="239.889113" style="fill: #1f77b4; stroke: #1f77b4"/>
     <use xlink:href="#mcceb8b8273" x="875.870837" y="247.626446" style="fill: #1f77b4; stroke: #1f77b4"/>
    </g>
   </g>
   <g id="line2d_54">
    <path d="M 688.279656 256.00671 
L 692.151567 255.1986 
L 695.630392 254.248748 
L 698.8144 253.151978 
L 701.782211 251.897064 
L 704.592787 250.468379 
L 707.285436 248.849805 
L 709.879814 247.030827 
L 712.415228 244.980806 
L 714.911333 242.674833 
L 717.387785 240.081712 
L 719.864236 237.162901 
L 722.360342 233.871549 
L 724.876102 230.182064 
L 727.450825 226.004975 
L 730.084511 221.302621 
L 732.816469 215.962178 
L 735.666353 209.894877 
L 738.693127 202.916036 
L 741.955753 194.819784 
L 745.591813 185.182409 
L 749.93543 173.008443 
L 757.600636 150.706942 
L 762.946626 135.511712 
L 766.523722 125.993358 
L 769.471878 118.756823 
L 772.046601 113.006322 
L 774.346163 108.395804 
L 776.429527 104.697975 
L 778.355656 101.719989 
L 780.124549 99.382463 
L 781.775517 97.560848 
L 783.308558 96.192008 
L 784.743327 95.199927 
L 786.099479 94.523987 
L 787.396668 94.118534 
L 788.674202 93.951389 
L 789.932082 94.012615 
L 791.189962 94.297643 
L 792.487151 94.824738 
L 793.823649 95.613011 
L 795.219109 96.697729 
L 796.712842 98.148951 
L 798.304846 100.016736 
L 800.014777 102.378427 
L 801.862288 105.324376 
L 803.867034 108.955848 
L 806.04867 113.381161 
L 808.466158 118.80154 
L 811.198116 125.490426 
L 814.401779 133.948966 
L 818.45058 145.309433 
L 834.35097 190.619758 
L 837.94772 199.81205 
L 841.190692 207.50765 
L 844.217466 214.13168 
L 847.087005 219.888284 
L 849.838617 224.920749 
L 852.511612 229.353812 
L 855.125644 233.263624 
L 857.680713 236.692523 
L 860.216127 239.728899 
L 862.751541 242.421163 
L 865.286956 244.792209 
L 867.861679 246.896399 
L 870.475711 248.746715 
L 873.16836 250.380557 
L 875.959281 251.814115 
L 878.887783 253.068362 
L 882.012829 254.162966 
L 884.80375 254.958772 
L 884.80375 254.958772 
" clip-path="url(#p3da98e6c54)" style="fill: none; stroke: #1f77b4; stroke-width: 1.5; stroke-linecap: square"/>
   </g>
   <g id="line2d_55">
    <g clip-path="url(#p3da98e6c54)">
     <use xlink:href="#mff6e4f8517" x="673.391467" y="253.54323" style="fill: #ff7f0e; stroke: #ff7f0e"/>
     <use xlink:href="#mff6e4f8517" x="685.302018" y="252.632956" style="fill: #ff7f0e; stroke: #ff7f0e"/>
     <use xlink:href="#mff6e4f8517" x="697.212569" y="251.267544" style="fill: #ff7f0e; stroke: #ff7f0e"/>
     <use xlink:href="#mff6e4f8517" x="709.12312" y="245.805897" style="fill: #ff7f0e; stroke: #ff7f0e"/>
     <use xlink:href="#mff6e4f8517" x="721.033671" y="234.882603" style="fill: #ff7f0e; stroke: #ff7f0e"/>
     <use xlink:href="#mff6e4f8517" x="732.944222" y="197.561348" style="fill: #ff7f0e; stroke: #ff7f0e"/>
     <use xlink:href="#mff6e4f8517" x="744.854774" y="153.868172" style="fill: #ff7f0e; stroke: #ff7f0e"/>
     <use xlink:href="#mff6e4f8517" x="756.765325" y="103.803074" style="fill: #ff7f0e; stroke: #ff7f0e"/>
     <use xlink:href="#mff6e4f8517" x="768.675876" y="77.405113" style="fill: #ff7f0e; stroke: #ff7f0e"/>
     <use xlink:href="#mff6e4f8517" x="780.586427" y="81.046211" style="fill: #ff7f0e; stroke: #ff7f0e"/>
     <use xlink:href="#mff6e4f8517" x="792.496978" y="111.540407" style="fill: #ff7f0e; stroke: #ff7f0e"/>
     <use xlink:href="#mff6e4f8517" x="804.40753" y="152.047623" style="fill: #ff7f0e; stroke: #ff7f0e"/>
     <use xlink:href="#mff6e4f8517" x="816.318081" y="198.471623" style="fill: #ff7f0e; stroke: #ff7f0e"/>
     <use xlink:href="#mff6e4f8517" x="828.228632" y="235.33774" style="fill: #ff7f0e; stroke: #ff7f0e"/>
     <use xlink:href="#mff6e4f8517" x="840.139183" y="252.632956" style="fill: #ff7f0e; stroke: #ff7f0e"/>
    </g>
   </g>
   <g id="line2d_56">
    <path d="M 665.054081 256.635487 
L 675.711993 256.432344 
L 682.095734 256.098551 
L 686.846852 255.63468 
L 690.699109 255.041533 
L 694.001044 254.313248 
L 696.936097 253.440863 
L 699.595989 252.420217 
L 702.054097 251.240926 
L 704.365451 249.887582 
L 706.585085 248.329779 
L 708.731343 246.549625 
L 710.822568 244.524365 
L 712.89545 242.202776 
L 714.949987 239.563315 
L 717.004524 236.558206 
L 719.077406 233.128285 
L 721.186975 229.201498 
L 723.351577 224.691713 
L 725.571211 219.542932 
L 727.882566 213.604847 
L 730.285641 206.805782 
L 732.835468 198.909596 
L 735.587081 189.64447 
L 738.632199 178.58628 
L 742.227639 164.654805 
L 747.71252 142.378403 
L 753.307465 119.936922 
L 756.462647 108.184752 
L 759.030819 99.445664 
L 761.232109 92.713366 
L 763.176582 87.450812 
L 764.937614 83.304743 
L 766.533549 80.099644 
L 767.982732 77.67216 
L 769.303506 75.877905 
L 770.514215 74.594592 
L 771.633204 73.722736 
L 772.678817 73.184921 
L 773.651053 72.927004 
L 774.604946 72.901737 
L 775.558838 73.102184 
L 776.531074 73.537983 
L 777.558343 74.250519 
L 778.658988 75.297944 
L 779.833009 76.733342 
L 781.117095 78.670103 
L 782.511246 81.192277 
L 784.033805 84.423257 
L 785.703116 88.50349 
L 787.555869 93.639025 
L 789.62875 100.062015 
L 791.995137 108.143123 
L 794.820125 118.620191 
L 798.52563 133.283736 
L 809.733865 178.197591 
L 812.999112 190.052285 
L 815.879133 199.698378 
L 818.539025 207.850574 
L 821.03382 214.799147 
L 823.418551 220.798225 
L 825.711562 225.978175 
L 827.931196 230.457271 
L 830.114142 234.37008 
L 832.260399 237.766843 
L 834.388313 240.722493 
L 836.497883 243.278073 
L 838.625796 245.510115 
L 840.772054 247.442904 
L 842.973344 249.127864 
L 845.24801 250.589384 
L 847.632741 251.855921 
L 848.476569 252.246248 
L 848.476569 252.246248 
" clip-path="url(#p3da98e6c54)" style="fill: none; stroke: #ff7f0e; stroke-width: 1.5; stroke-linecap: square"/>
   </g>
   <g id="line2d_57">
    <g clip-path="url(#p3da98e6c54)">
     <use xlink:href="#m5b2af9e1fb" x="673.391467" y="231.241505" style="fill: #2ca02c; stroke: #2ca02c"/>
     <use xlink:href="#m5b2af9e1fb" x="685.302018" y="222.593897" style="fill: #2ca02c; stroke: #2ca02c"/>
     <use xlink:href="#m5b2af9e1fb" x="697.212569" y="206.208956" style="fill: #2ca02c; stroke: #2ca02c"/>
     <use xlink:href="#m5b2af9e1fb" x="709.12312" y="185.272642" style="fill: #2ca02c; stroke: #2ca02c"/>
     <use xlink:href="#m5b2af9e1fb" x="721.033671" y="157.054132" style="fill: #2ca02c; stroke: #2ca02c"/>
     <use xlink:href="#m5b2af9e1fb" x="732.944222" y="114.726368" style="fill: #2ca02c; stroke: #2ca02c"/>
     <use xlink:href="#m5b2af9e1fb" x="744.854774" y="82.411623" style="fill: #2ca02c; stroke: #2ca02c"/>
     <use xlink:href="#m5b2af9e1fb" x="756.765325" y="64.206132" style="fill: #2ca02c; stroke: #2ca02c"/>
     <use xlink:href="#m5b2af9e1fb" x="768.675876" y="48.276328" style="fill: #2ca02c; stroke: #2ca02c"/>
     <use xlink:href="#m5b2af9e1fb" x="780.586427" y="63.750995" style="fill: #2ca02c; stroke: #2ca02c"/>
     <use xlink:href="#m5b2af9e1fb" x="792.496978" y="108.809583" style="fill: #2ca02c; stroke: #2ca02c"/>
     <use xlink:href="#m5b2af9e1fb" x="804.40753" y="162.515779" style="fill: #2ca02c; stroke: #2ca02c"/>
     <use xlink:href="#m5b2af9e1fb" x="816.318081" y="208.029505" style="fill: #2ca02c; stroke: #2ca02c"/>
     <use xlink:href="#m5b2af9e1fb" x="828.228632" y="240.799387" style="fill: #2ca02c; stroke: #2ca02c"/>
     <use xlink:href="#m5b2af9e1fb" x="840.139183" y="253.088093" style="fill: #2ca02c; stroke: #2ca02c"/>
    </g>
   </g>
   <g id="line2d_58">
    <path d="M 665.054081 245.273121 
L 668.411048 244.361152 
L 671.47451 243.301831 
L 674.317843 242.085639 
L 676.996079 240.69947 
L 679.545906 239.130273 
L 682.004014 237.356649 
L 684.407089 235.346077 
L 686.755131 233.089672 
L 689.08483 230.539112 
L 691.396184 227.676282 
L 693.725883 224.431243 
L 696.073925 220.772343 
L 698.458656 216.635978 
L 700.880075 211.984207 
L 703.374871 206.700852 
L 705.943042 200.733338 
L 708.621278 193.938654 
L 711.446267 186.152652 
L 714.473041 177.139903 
L 717.774976 166.587874 
L 721.535513 153.799231 
L 726.378351 136.481772 
L 736.944543 98.458231 
L 740.356542 87.162737 
L 743.199875 78.492474 
L 745.676326 71.632508 
L 747.877616 66.164966 
L 749.877122 61.772464 
L 751.71153 58.263945 
L 753.380841 55.532096 
L 754.921744 53.418585 
L 756.352583 51.819215 
L 757.691701 50.647363 
L 758.939099 49.843684 
L 760.11312 49.344148 
L 761.250453 49.099598 
L 762.351098 49.088082 
L 763.451743 49.298063 
L 764.570732 49.737885 
L 765.744754 50.442997 
L 766.973807 51.445601 
L 768.294581 52.819845 
L 769.707076 54.622494 
L 771.229634 56.939973 
L 772.862258 59.840343 
L 774.641634 63.467168 
L 776.586107 67.951067 
L 778.732364 73.479826 
L 781.117095 80.259412 
L 783.83202 88.675106 
L 787.02389 99.325094 
L 791.169653 113.989317 
L 804.689242 162.413129 
L 808.339715 174.324294 
L 811.586618 184.177616 
L 814.576703 192.558007 
L 817.401692 199.826257 
L 820.098272 206.159683 
L 822.684788 211.67852 
L 825.197927 216.527437 
L 827.656034 220.79537 
L 830.077453 224.559751 
L 832.462184 227.862708 
L 834.846915 230.78911 
L 837.231646 233.365519 
L 839.634721 235.635794 
L 842.074484 237.635517 
L 844.569279 239.393352 
L 847.137451 240.932385 
L 848.476569 241.636811 
L 848.476569 241.636811 
" clip-path="url(#p3da98e6c54)" style="fill: none; stroke: #2ca02c; stroke-width: 1.5; stroke-linecap: square"/>
   </g>
   <g id="line2d_59">
    <g clip-path="url(#p3da98e6c54)">
     <use xlink:href="#m2c75f8ed43" x="613.838711" y="246.261034" style="fill: #d62728; stroke: #d62728"/>
     <use xlink:href="#m2c75f8ed43" x="643.615089" y="238.978838" style="fill: #d62728; stroke: #d62728"/>
     <use xlink:href="#m2c75f8ed43" x="673.391467" y="208.484642" style="fill: #d62728; stroke: #d62728"/>
     <use xlink:href="#m2c75f8ed43" x="703.167844" y="155.233583" style="fill: #d62728; stroke: #d62728"/>
     <use xlink:href="#m2c75f8ed43" x="732.944222" y="99.251701" style="fill: #d62728; stroke: #d62728"/>
     <use xlink:href="#m2c75f8ed43" x="762.7206" y="85.597583" style="fill: #d62728; stroke: #d62728"/>
     <use xlink:href="#m2c75f8ed43" x="792.496978" y="141.579466" style="fill: #d62728; stroke: #d62728"/>
     <use xlink:href="#m2c75f8ed43" x="822.273356" y="213.491152" style="fill: #d62728; stroke: #d62728"/>
     <use xlink:href="#m2c75f8ed43" x="852.049734" y="248.536721" style="fill: #d62728; stroke: #d62728"/>
    </g>
   </g>
   <g id="line2d_60">
    <path d="M 601.928159 250.556065 
L 609.711292 250.100663 
L 616.026898 249.514849 
L 621.425299 248.795216 
L 626.168555 247.942935 
L 630.466312 246.947537 
L 634.397187 245.812238 
L 638.066003 244.524392 
L 641.551379 243.065769 
L 644.87952 241.430797 
L 648.076632 239.61164 
L 651.16892 237.596944 
L 654.208797 235.350089 
L 657.196262 232.864772 
L 660.157521 230.111834 
L 663.11878 227.054252 
L 666.106245 223.646267 
L 669.119916 219.867083 
L 672.185998 215.661151 
L 675.330698 210.963839 
L 678.580222 205.702065 
L 681.960774 199.795959 
L 685.524767 193.111299 
L 689.350819 185.448889 
L 693.543752 176.541017 
L 698.444243 165.58633 
L 705.362583 149.515544 
L 714.613242 128.101323 
L 719.09444 118.306213 
L 722.763256 110.806261 
L 725.934162 104.812858 
L 728.790598 99.874899 
L 731.384975 95.818908 
L 733.795912 92.451881 
L 736.023408 89.711258 
L 738.119874 87.475549 
L 740.085312 85.695874 
L 741.945926 84.302952 
L 743.727923 83.242027 
L 745.431302 82.482634 
L 747.082269 81.987521 
L 748.680825 81.736121 
L 750.279381 81.710061 
L 751.877937 81.909445 
L 753.476493 82.333477 
L 755.12746 83.005428 
L 756.830839 83.94494 
L 758.58663 85.170656 
L 760.447244 86.748137 
L 762.386476 88.688441 
L 764.456737 91.081039 
L 766.658027 93.971857 
L 769.016552 97.442421 
L 771.584723 101.627958 
L 774.388748 106.635957 
L 777.507242 112.676577 
L 781.045029 120.030922 
L 785.290374 129.394715 
L 791.108069 142.814616 
L 803.267576 170.973962 
L 808.089449 181.495977 
L 812.256177 190.067736 
L 816.056022 197.386931 
L 819.620016 203.777341 
L 823.000568 209.391216 
L 826.250091 214.366089 
L 829.420997 218.820252 
L 832.513286 222.787082 
L 835.579368 226.361424 
L 838.619245 229.564602 
L 841.632916 232.420255 
L 844.672792 234.995361 
L 847.738875 237.301428 
L 850.857369 239.368373 
L 854.05448 241.219418 
L 857.356415 242.872226 
L 860.78938 244.340086 
L 863.960285 245.493857 
L 863.960285 245.493857 
" clip-path="url(#p3da98e6c54)" style="fill: none; stroke: #d62728; stroke-width: 1.5; stroke-linecap: square"/>
   </g>
   <g id="line2d_61">
    <g clip-path="url(#p3da98e6c54)">
     <use xlink:href="#ma833c5b6ac" x="595.972884" y="230.786368" style="fill: #9467bd; stroke: #9467bd"/>
     <use xlink:href="#ma833c5b6ac" x="655.52564" y="203.022995" style="fill: #9467bd; stroke: #9467bd"/>
     <use xlink:href="#ma833c5b6ac" x="715.078396" y="169.342838" style="fill: #9467bd; stroke: #9467bd"/>
     <use xlink:href="#ma833c5b6ac" x="774.631152" y="212.580877" style="fill: #9467bd; stroke: #9467bd"/>
     <use xlink:href="#ma833c5b6ac" x="834.183907" y="244.895623" style="fill: #9467bd; stroke: #9467bd"/>
    </g>
   </g>
   <g id="line2d_62">
    <path d="M 584.062333 239.418413 
L 589.617969 238.405204 
L 594.780518 237.240761 
L 599.654803 235.915816 
L 604.319442 234.418882 
L 608.826845 232.739923 
L 613.229425 230.863591 
L 617.579593 228.768172 
L 621.929762 226.424976 
L 626.332342 223.798303 
L 630.813539 220.864124 
L 635.478177 217.541883 
L 640.457286 213.718025 
L 645.960511 209.204467 
L 652.642998 203.420713 
L 672.50702 186.023532 
L 677.302687 182.245012 
L 681.443209 179.258738 
L 685.190643 176.825358 
L 688.649813 174.840621 
L 691.899336 173.229823 
L 694.991625 171.943715 
L 697.952884 170.951372 
L 700.80932 170.22589 
L 703.613344 169.742064 
L 706.364956 169.491707 
L 709.090363 169.465171 
L 711.815769 169.659258 
L 714.567382 170.077237 
L 717.371406 170.728703 
L 720.254048 171.62926 
L 723.215307 172.788689 
L 726.307595 174.239885 
L 729.583324 176.02724 
L 733.0687 178.187085 
L 736.84234 180.791883 
L 741.035273 183.962437 
L 745.909558 187.937926 
L 752.094135 193.287421 
L 772.508479 211.172027 
L 777.985498 215.542982 
L 782.964607 219.236243 
L 787.655451 222.440879 
L 792.162854 225.253049 
L 796.565434 227.740589 
L 800.941808 229.959797 
L 805.344388 231.94313 
L 809.79938 233.706324 
L 814.359195 235.272131 
L 819.10245 236.664123 
L 824.055353 237.884275 
L 829.322725 238.950196 
L 834.983185 239.8658 
L 841.193968 240.641161 
L 846.094459 241.113473 
L 846.094459 241.113473 
" clip-path="url(#p3da98e6c54)" style="fill: none; stroke: #9467bd; stroke-width: 1.5; stroke-linecap: square"/>
   </g>
   <g id="line2d_63">
    <g clip-path="url(#p3da98e6c54)">
     <use xlink:href="#mc8bf80d0e1" x="536.420128" y="241.709662" style="fill: #8c564b; stroke: #8c564b"/>
     <use xlink:href="#mc8bf80d0e1" x="566.196506" y="219.863074" style="fill: #8c564b; stroke: #8c564b"/>
     <use xlink:href="#mc8bf80d0e1" x="595.972884" y="192.099701" style="fill: #8c564b; stroke: #8c564b"/>
     <use xlink:href="#mc8bf80d0e1" x="625.749262" y="168.887701" style="fill: #8c564b; stroke: #8c564b"/>
     <use xlink:href="#mc8bf80d0e1" x="655.52564" y="123.373975" style="fill: #8c564b; stroke: #8c564b"/>
     <use xlink:href="#mc8bf80d0e1" x="685.302018" y="118.822603" style="fill: #8c564b; stroke: #8c564b"/>
     <use xlink:href="#mc8bf80d0e1" x="715.078396" y="147.951387" style="fill: #8c564b; stroke: #8c564b"/>
     <use xlink:href="#mc8bf80d0e1" x="744.854774" y="171.618525" style="fill: #8c564b; stroke: #8c564b"/>
     <use xlink:href="#mc8bf80d0e1" x="774.631152" y="188.003466" style="fill: #8c564b; stroke: #8c564b"/>
     <use xlink:href="#mc8bf80d0e1" x="804.40753" y="212.580877" style="fill: #8c564b; stroke: #8c564b"/>
     <use xlink:href="#mc8bf80d0e1" x="834.183907" y="236.703152" style="fill: #8c564b; stroke: #8c564b"/>
    </g>
   </g>
   <g id="line2d_64">
    <path d="M 521.531939 240.411309 
L 527.002407 238.808619 
L 532.243573 237.042979 
L 537.320953 235.09933 
L 542.267304 232.969226 
L 547.148141 230.62472 
L 551.963463 228.064143 
L 556.746027 225.268717 
L 561.528592 222.215672 
L 566.376671 218.854662 
L 571.290265 215.175285 
L 576.334888 211.117015 
L 581.576054 206.610648 
L 587.079279 201.581058 
L 593.008349 195.854869 
L 599.625322 189.147207 
L 607.74913 180.578791 
L 631.072322 155.774788 
L 636.968634 149.954326 
L 642.046014 145.247 
L 646.599278 141.321798 
L 650.792211 137.995257 
L 654.690329 135.180277 
L 658.391903 132.778017 
L 661.896933 130.764329 
L 665.270934 129.079801 
L 668.513906 127.706327 
L 671.658606 126.612845 
L 674.737791 125.776012 
L 677.751462 125.185795 
L 680.732376 124.827945 
L 683.680532 124.696996 
L 686.628688 124.788495 
L 689.576844 125.101949 
L 692.557758 125.64283 
L 695.571429 126.415535 
L 698.650614 127.435126 
L 701.828071 128.724823 
L 705.1038 130.298698 
L 708.477801 132.168394 
L 712.015589 134.38602 
L 715.74992 136.994584 
L 719.713552 140.040883 
L 723.939243 143.573159 
L 728.558021 147.729174 
L 733.733673 152.694567 
L 739.761015 158.798111 
L 747.524493 166.997747 
L 770.29081 191.238129 
L 777.006055 197.946237 
L 782.967882 203.592662 
L 788.503865 208.533557 
L 793.745031 212.917895 
L 798.822411 216.877909 
L 803.768762 220.455756 
L 808.649599 223.712557 
L 813.464921 226.660613 
L 818.280242 229.35021 
L 823.128322 231.804773 
L 828.041915 234.043679 
L 833.053781 236.082513 
L 838.196676 237.933482 
L 843.503357 239.605961 
L 849.039339 241.115421 
L 849.072096 241.123683 
L 849.072096 241.123683 
" clip-path="url(#p3da98e6c54)" style="fill: none; stroke: #8c564b; stroke-width: 1.5; stroke-linecap: square"/>
   </g>
   <g id="patch_8">
    <path d="M 506.64375 263.55625 
L 506.64375 31.43625 
" style="fill: none; stroke: #000000; stroke-width: 0.8; stroke-linejoin: miter; stroke-linecap: square"/>
   </g>
   <g id="patch_9">
    <path d="M 884.80375 263.55625 
L 884.80375 31.43625 
" style="fill: none; stroke: #000000; stroke-width: 0.8; stroke-linejoin: miter; stroke-linecap: square"/>
   </g>
   <g id="patch_10">
    <path d="M 506.64375 263.55625 
L 884.80375 263.55625 
" style="fill: none; stroke: #000000; stroke-width: 0.8; stroke-linejoin: miter; stroke-linecap: square"/>
   </g>
   <g id="patch_11">
    <path d="M 506.64375 31.43625 
L 884.80375 31.43625 
" style="fill: none; stroke: #000000; stroke-width: 0.8; stroke-linejoin: miter; stroke-linecap: square"/>
   </g>
   <g id="text_32">
    <!-- $w_{10.0}=11.43(55)\ \mu m$ -->
    <g style="fill: #1f77b4" transform="translate(506.64375 49.64174) scale(0.16 -0.16)">
     <use xlink:href="#DejaVuSans-Oblique-77" transform="translate(0 0.125)"/>
     <use xlink:href="#DejaVuSans-31" transform="translate(81.787109 -16.28125) scale(0.7)"/>
     <use xlink:href="#DejaVuSans-30" transform="translate(126.323242 -16.28125) scale(0.7)"/>
     <use xlink:href="#DejaVuSans-2e" transform="translate(170.859375 -16.28125) scale(0.7)"/>
     <use xlink:href="#DejaVuSans-30" transform="translate(193.110352 -16.28125) scale(0.7)"/>
     <use xlink:href="#DejaVuSans-3d" transform="translate(259.863281 0.125)"/>
     <use xlink:href="#DejaVuSans-31" transform="translate(363.134766 0.125)"/>
     <use xlink:href="#DejaVuSans-31" transform="translate(426.757812 0.125)"/>
     <use xlink:href="#DejaVuSans-2e" transform="translate(490.380859 0.125)"/>
     <use xlink:href="#DejaVuSans-34" transform="translate(522.167969 0.125)"/>
     <use xlink:href="#DejaVuSans-33" transform="translate(585.791016 0.125)"/>
     <use xlink:href="#DejaVuSans-28" transform="translate(649.414062 0.125)"/>
     <use xlink:href="#DejaVuSans-35" transform="translate(688.427734 0.125)"/>
     <use xlink:href="#DejaVuSans-35" transform="translate(752.050781 0.125)"/>
     <use xlink:href="#DejaVuSans-29" transform="translate(815.673828 0.125)"/>
     <use xlink:href="#DejaVuSans-Oblique-3bc" transform="translate(887.157878 0.125)"/>
     <use xlink:href="#DejaVuSans-Oblique-6d" transform="translate(950.780925 0.125)"/>
    </g>
   </g>
   <g id="text_33">
    <!-- $w_{10.5}=9.14(19)\ \mu m$ -->
    <g style="fill: #ff7f0e" transform="translate(506.64375 67.84723) scale(0.16 -0.16)">
     <use xlink:href="#DejaVuSans-Oblique-77" transform="translate(0 0.125)"/>
     <use xlink:href="#DejaVuSans-31" transform="translate(81.787109 -16.28125) scale(0.7)"/>
     <use xlink:href="#DejaVuSans-30" transform="translate(126.323242 -16.28125) scale(0.7)"/>
     <use xlink:href="#DejaVuSans-2e" transform="translate(170.859375 -16.28125) scale(0.7)"/>
     <use xlink:href="#DejaVuSans-35" transform="translate(193.110352 -16.28125) scale(0.7)"/>
     <use xlink:href="#DejaVuSans-3d" transform="translate(259.863281 0.125)"/>
     <use xlink:href="#DejaVuSans-39" transform="translate(363.134766 0.125)"/>
     <use xlink:href="#DejaVuSans-2e" transform="translate(426.757812 0.125)"/>
     <use xlink:href="#DejaVuSans-31" transform="translate(458.544922 0.125)"/>
     <use xlink:href="#DejaVuSans-34" transform="translate(522.167969 0.125)"/>
     <use xlink:href="#DejaVuSans-28" transform="translate(585.791016 0.125)"/>
     <use xlink:href="#DejaVuSans-31" transform="translate(624.804688 0.125)"/>
     <use xlink:href="#DejaVuSans-39" transform="translate(688.427734 0.125)"/>
     <use xlink:href="#DejaVuSans-29" transform="translate(752.050781 0.125)"/>
     <use xlink:href="#DejaVuSans-Oblique-3bc" transform="translate(823.534832 0.125)"/>
     <use xlink:href="#DejaVuSans-Oblique-6d" transform="translate(887.157878 0.125)"/>
    </g>
   </g>
   <g id="text_34">
    <!-- $w_{11.0}=11.07(89)\ \mu m$ -->
    <g style="fill: #2ca02c" transform="translate(506.64375 86.052721) scale(0.16 -0.16)">
     <use xlink:href="#DejaVuSans-Oblique-77" transform="translate(0 0.125)"/>
     <use xlink:href="#DejaVuSans-31" transform="translate(81.787109 -16.28125) scale(0.7)"/>
     <use xlink:href="#DejaVuSans-31" transform="translate(126.323242 -16.28125) scale(0.7)"/>
     <use xlink:href="#DejaVuSans-2e" transform="translate(170.859375 -16.28125) scale(0.7)"/>
     <use xlink:href="#DejaVuSans-30" transform="translate(193.110352 -16.28125) scale(0.7)"/>
     <use xlink:href="#DejaVuSans-3d" transform="translate(259.863281 0.125)"/>
     <use xlink:href="#DejaVuSans-31" transform="translate(363.134766 0.125)"/>
     <use xlink:href="#DejaVuSans-31" transform="translate(426.757812 0.125)"/>
     <use xlink:href="#DejaVuSans-2e" transform="translate(490.380859 0.125)"/>
     <use xlink:href="#DejaVuSans-30" transform="translate(522.167969 0.125)"/>
     <use xlink:href="#DejaVuSans-37" transform="translate(585.791016 0.125)"/>
     <use xlink:href="#DejaVuSans-28" transform="translate(649.414062 0.125)"/>
     <use xlink:href="#DejaVuSans-38" transform="translate(688.427734 0.125)"/>
     <use xlink:href="#DejaVuSans-39" transform="translate(752.050781 0.125)"/>
     <use xlink:href="#DejaVuSans-29" transform="translate(815.673828 0.125)"/>
     <use xlink:href="#DejaVuSans-Oblique-3bc" transform="translate(887.157878 0.125)"/>
     <use xlink:href="#DejaVuSans-Oblique-6d" transform="translate(950.780925 0.125)"/>
    </g>
   </g>
   <g id="text_35">
    <!-- $w_{11.5}=14.71(79)\ \mu m$ -->
    <g style="fill: #d62728" transform="translate(506.64375 104.258211) scale(0.16 -0.16)">
     <use xlink:href="#DejaVuSans-Oblique-77" transform="translate(0 0.125)"/>
     <use xlink:href="#DejaVuSans-31" transform="translate(81.787109 -16.28125) scale(0.7)"/>
     <use xlink:href="#DejaVuSans-31" transform="translate(126.323242 -16.28125) scale(0.7)"/>
     <use xlink:href="#DejaVuSans-2e" transform="translate(170.859375 -16.28125) scale(0.7)"/>
     <use xlink:href="#DejaVuSans-35" transform="translate(193.110352 -16.28125) scale(0.7)"/>
     <use xlink:href="#DejaVuSans-3d" transform="translate(259.863281 0.125)"/>
     <use xlink:href="#DejaVuSans-31" transform="translate(363.134766 0.125)"/>
     <use xlink:href="#DejaVuSans-34" transform="translate(426.757812 0.125)"/>
     <use xlink:href="#DejaVuSans-2e" transform="translate(490.380859 0.125)"/>
     <use xlink:href="#DejaVuSans-37" transform="translate(514.417969 0.125)"/>
     <use xlink:href="#DejaVuSans-31" transform="translate(578.041016 0.125)"/>
     <use xlink:href="#DejaVuSans-28" transform="translate(641.664062 0.125)"/>
     <use xlink:href="#DejaVuSans-37" transform="translate(680.677734 0.125)"/>
     <use xlink:href="#DejaVuSans-39" transform="translate(744.300781 0.125)"/>
     <use xlink:href="#DejaVuSans-29" transform="translate(807.923828 0.125)"/>
     <use xlink:href="#DejaVuSans-Oblique-3bc" transform="translate(879.407878 0.125)"/>
     <use xlink:href="#DejaVuSans-Oblique-6d" transform="translate(943.030925 0.125)"/>
    </g>
   </g>
   <g id="text_36">
    <!-- $w_{12.075}=16.7(34)\ \mu m$ -->
    <g style="fill: #9467bd" transform="translate(506.64375 122.463701) scale(0.16 -0.16)">
     <use xlink:href="#DejaVuSans-Oblique-77" transform="translate(0 0.125)"/>
     <use xlink:href="#DejaVuSans-31" transform="translate(81.787109 -16.28125) scale(0.7)"/>
     <use xlink:href="#DejaVuSans-32" transform="translate(126.323242 -16.28125) scale(0.7)"/>
     <use xlink:href="#DejaVuSans-2e" transform="translate(170.859375 -16.28125) scale(0.7)"/>
     <use xlink:href="#DejaVuSans-30" transform="translate(193.110352 -16.28125) scale(0.7)"/>
     <use xlink:href="#DejaVuSans-37" transform="translate(237.646484 -16.28125) scale(0.7)"/>
     <use xlink:href="#DejaVuSans-35" transform="translate(282.182617 -16.28125) scale(0.7)"/>
     <use xlink:href="#DejaVuSans-3d" transform="translate(348.935547 0.125)"/>
     <use xlink:href="#DejaVuSans-31" transform="translate(452.207031 0.125)"/>
     <use xlink:href="#DejaVuSans-36" transform="translate(515.830078 0.125)"/>
     <use xlink:href="#DejaVuSans-2e" transform="translate(579.453125 0.125)"/>
     <use xlink:href="#DejaVuSans-37" transform="translate(603.490234 0.125)"/>
     <use xlink:href="#DejaVuSans-28" transform="translate(667.113281 0.125)"/>
     <use xlink:href="#DejaVuSans-33" transform="translate(706.126953 0.125)"/>
     <use xlink:href="#DejaVuSans-34" transform="translate(769.75 0.125)"/>
     <use xlink:href="#DejaVuSans-29" transform="translate(833.373047 0.125)"/>
     <use xlink:href="#DejaVuSans-Oblique-3bc" transform="translate(904.857097 0.125)"/>
     <use xlink:href="#DejaVuSans-Oblique-6d" transform="translate(968.480144 0.125)"/>
    </g>
   </g>
   <g id="text_37">
    <!-- $w_{12.5}=23.4(31)\ \mu m$ -->
    <g style="fill: #8c564b" transform="translate(506.64375 140.669191) scale(0.16 -0.16)">
     <use xlink:href="#DejaVuSans-Oblique-77" transform="translate(0 0.125)"/>
     <use xlink:href="#DejaVuSans-31" transform="translate(81.787109 -16.28125) scale(0.7)"/>
     <use xlink:href="#DejaVuSans-32" transform="translate(126.323242 -16.28125) scale(0.7)"/>
     <use xlink:href="#DejaVuSans-2e" transform="translate(170.859375 -16.28125) scale(0.7)"/>
     <use xlink:href="#DejaVuSans-35" transform="translate(193.110352 -16.28125) scale(0.7)"/>
     <use xlink:href="#DejaVuSans-3d" transform="translate(259.863281 0.125)"/>
     <use xlink:href="#DejaVuSans-32" transform="translate(363.134766 0.125)"/>
     <use xlink:href="#DejaVuSans-33" transform="translate(426.757812 0.125)"/>
     <use xlink:href="#DejaVuSans-2e" transform="translate(490.380859 0.125)"/>
     <use xlink:href="#DejaVuSans-34" transform="translate(522.167969 0.125)"/>
     <use xlink:href="#DejaVuSans-28" transform="translate(585.791016 0.125)"/>
     <use xlink:href="#DejaVuSans-33" transform="translate(624.804688 0.125)"/>
     <use xlink:href="#DejaVuSans-31" transform="translate(688.427734 0.125)"/>
     <use xlink:href="#DejaVuSans-29" transform="translate(752.050781 0.125)"/>
     <use xlink:href="#DejaVuSans-Oblique-3bc" transform="translate(823.534832 0.125)"/>
     <use xlink:href="#DejaVuSans-Oblique-6d" transform="translate(887.157878 0.125)"/>
    </g>
   </g>
   <g id="text_38">
    <!-- Vertical Profile -->
    <g transform="translate(609.68375 25.43625) scale(0.24 -0.24)">
     <defs>
      <path id="DejaVuSans-56" d="M 1831 0 
L 50 4666 
L 709 4666 
L 2188 738 
L 3669 4666 
L 4325 4666 
L 2547 0 
L 1831 0 
z
" transform="scale(0.015625)"/>
      <path id="DejaVuSans-63" d="M 3122 3366 
L 3122 2828 
Q 2878 2963 2633 3030 
Q 2388 3097 2138 3097 
Q 1578 3097 1268 2742 
Q 959 2388 959 1747 
Q 959 1106 1268 751 
Q 1578 397 2138 397 
Q 2388 397 2633 464 
Q 2878 531 3122 666 
L 3122 134 
Q 2881 22 2623 -34 
Q 2366 -91 2075 -91 
Q 1284 -91 818 406 
Q 353 903 353 1747 
Q 353 2603 823 3093 
Q 1294 3584 2113 3584 
Q 2378 3584 2631 3529 
Q 2884 3475 3122 3366 
z
" transform="scale(0.015625)"/>
     </defs>
     <use xlink:href="#DejaVuSans-56"/>
     <use xlink:href="#DejaVuSans-65" x="60.658203"/>
     <use xlink:href="#DejaVuSans-72" x="122.181641"/>
     <use xlink:href="#DejaVuSans-74" x="163.294922"/>
     <use xlink:href="#DejaVuSans-69" x="202.503906"/>
     <use xlink:href="#DejaVuSans-63" x="230.287109"/>
     <use xlink:href="#DejaVuSans-61" x="285.267578"/>
     <use xlink:href="#DejaVuSans-6c" x="346.546875"/>
     <use xlink:href="#DejaVuSans-20" x="374.330078"/>
     <use xlink:href="#DejaVuSans-50" x="406.117188"/>
     <use xlink:href="#DejaVuSans-72" x="464.669922"/>
     <use xlink:href="#DejaVuSans-6f" x="503.533203"/>
     <use xlink:href="#DejaVuSans-66" x="564.714844"/>
     <use xlink:href="#DejaVuSans-69" x="599.919922"/>
     <use xlink:href="#DejaVuSans-6c" x="627.703125"/>
     <use xlink:href="#DejaVuSans-65" x="655.486328"/>
    </g>
   </g>
  </g>
 </g>
 <defs>
  <clipPath id="p7c22f98d01">
   <rect x="56.64375" y="31.43625" width="378.16" height="232.12"/>
  </clipPath>
  <clipPath id="p3da98e6c54">
   <rect x="506.64375" y="31.43625" width="378.16" height="232.12"/>
  </clipPath>
 </defs>
</svg>
