%TF.GenerationSoftware,KiCad,Pcbnew,(6.0.7)*%
%TF.CreationDate,2022-08-25T15:43:46-04:00*%
%TF.ProjectId,chiller_interlock,6368696c-6c65-4725-9f69-6e7465726c6f,rev?*%
%TF.SameCoordinates,Original*%
%TF.FileFunction,Legend,Top*%
%TF.FilePolarity,Positive*%
%FSLAX46Y46*%
G04 Gerber Fmt 4.6, Leading zero omitted, Abs format (unit mm)*
G04 Created by KiCad (PCBNEW (6.0.7)) date 2022-08-25 15:43:46*
%MOMM*%
%LPD*%
G01*
G04 APERTURE LIST*
%TA.AperFunction,Profile*%
%ADD10C,0.100000*%
%TD*%
%ADD11C,0.150000*%
%ADD12C,0.120000*%
G04 APERTURE END LIST*
D10*
X168000000Y-91000000D02*
X215000000Y-91000000D01*
X215000000Y-50000000D02*
X168000000Y-50000000D01*
X168000000Y-50000000D02*
X168000000Y-91000000D01*
X215000000Y-91000000D02*
X215000000Y-50000000D01*
D11*
X175009523Y-58747619D02*
X175057142Y-58700000D01*
X175152380Y-58652380D01*
X175390476Y-58652380D01*
X175485714Y-58700000D01*
X175533333Y-58747619D01*
X175580952Y-58842857D01*
X175580952Y-58938095D01*
X175533333Y-59080952D01*
X174961904Y-59652380D01*
X175580952Y-59652380D01*
X176438095Y-58985714D02*
X176438095Y-59652380D01*
X176200000Y-58604761D02*
X175961904Y-59319047D01*
X176580952Y-59319047D01*
X176819047Y-58652380D02*
X177152380Y-59652380D01*
X177485714Y-58652380D01*
X206261904Y-82452380D02*
X205928571Y-81976190D01*
X205690476Y-82452380D02*
X205690476Y-81452380D01*
X206071428Y-81452380D01*
X206166666Y-81500000D01*
X206214285Y-81547619D01*
X206261904Y-81642857D01*
X206261904Y-81785714D01*
X206214285Y-81880952D01*
X206166666Y-81928571D01*
X206071428Y-81976190D01*
X205690476Y-81976190D01*
X207071428Y-82404761D02*
X206976190Y-82452380D01*
X206785714Y-82452380D01*
X206690476Y-82404761D01*
X206642857Y-82309523D01*
X206642857Y-81928571D01*
X206690476Y-81833333D01*
X206785714Y-81785714D01*
X206976190Y-81785714D01*
X207071428Y-81833333D01*
X207119047Y-81928571D01*
X207119047Y-82023809D01*
X206642857Y-82119047D01*
X207500000Y-82404761D02*
X207595238Y-82452380D01*
X207785714Y-82452380D01*
X207880952Y-82404761D01*
X207928571Y-82309523D01*
X207928571Y-82261904D01*
X207880952Y-82166666D01*
X207785714Y-82119047D01*
X207642857Y-82119047D01*
X207547619Y-82071428D01*
X207500000Y-81976190D01*
X207500000Y-81928571D01*
X207547619Y-81833333D01*
X207642857Y-81785714D01*
X207785714Y-81785714D01*
X207880952Y-81833333D01*
X208738095Y-82404761D02*
X208642857Y-82452380D01*
X208452380Y-82452380D01*
X208357142Y-82404761D01*
X208309523Y-82309523D01*
X208309523Y-81928571D01*
X208357142Y-81833333D01*
X208452380Y-81785714D01*
X208642857Y-81785714D01*
X208738095Y-81833333D01*
X208785714Y-81928571D01*
X208785714Y-82023809D01*
X208309523Y-82119047D01*
X209071428Y-81785714D02*
X209452380Y-81785714D01*
X209214285Y-81452380D02*
X209214285Y-82309523D01*
X209261904Y-82404761D01*
X209357142Y-82452380D01*
X209452380Y-82452380D01*
X196647619Y-53566666D02*
X197647619Y-53566666D01*
X197647619Y-53947619D01*
X197600000Y-54042857D01*
X197552380Y-54090476D01*
X197457142Y-54138095D01*
X197314285Y-54138095D01*
X197219047Y-54090476D01*
X197171428Y-54042857D01*
X197123809Y-53947619D01*
X197123809Y-53566666D01*
X197314285Y-54995238D02*
X196647619Y-54995238D01*
X197314285Y-54566666D02*
X196790476Y-54566666D01*
X196695238Y-54614285D01*
X196647619Y-54709523D01*
X196647619Y-54852380D01*
X196695238Y-54947619D01*
X196742857Y-54995238D01*
X196647619Y-55471428D02*
X197314285Y-55471428D01*
X197219047Y-55471428D02*
X197266666Y-55519047D01*
X197314285Y-55614285D01*
X197314285Y-55757142D01*
X197266666Y-55852380D01*
X197171428Y-55900000D01*
X196647619Y-55900000D01*
X197171428Y-55900000D02*
X197266666Y-55947619D01*
X197314285Y-56042857D01*
X197314285Y-56185714D01*
X197266666Y-56280952D01*
X197171428Y-56328571D01*
X196647619Y-56328571D01*
X197314285Y-56804761D02*
X196314285Y-56804761D01*
X197266666Y-56804761D02*
X197314285Y-56900000D01*
X197314285Y-57090476D01*
X197266666Y-57185714D01*
X197219047Y-57233333D01*
X197123809Y-57280952D01*
X196838095Y-57280952D01*
X196742857Y-57233333D01*
X196695238Y-57185714D01*
X196647619Y-57090476D01*
X196647619Y-56900000D01*
X196695238Y-56804761D01*
X188566666Y-90100000D02*
X188566666Y-89623809D01*
X188852380Y-90195238D02*
X187852380Y-89861904D01*
X188852380Y-89528571D01*
X188852380Y-89052380D02*
X188804761Y-89147619D01*
X188709523Y-89195238D01*
X187852380Y-89195238D01*
X188852380Y-88242857D02*
X188328571Y-88242857D01*
X188233333Y-88290476D01*
X188185714Y-88385714D01*
X188185714Y-88576190D01*
X188233333Y-88671428D01*
X188804761Y-88242857D02*
X188852380Y-88338095D01*
X188852380Y-88576190D01*
X188804761Y-88671428D01*
X188709523Y-88719047D01*
X188614285Y-88719047D01*
X188519047Y-88671428D01*
X188471428Y-88576190D01*
X188471428Y-88338095D01*
X188423809Y-88242857D01*
X188852380Y-87766666D02*
X188185714Y-87766666D01*
X188376190Y-87766666D02*
X188280952Y-87719047D01*
X188233333Y-87671428D01*
X188185714Y-87576190D01*
X188185714Y-87480952D01*
X188852380Y-87147619D02*
X188185714Y-87147619D01*
X188280952Y-87147619D02*
X188233333Y-87100000D01*
X188185714Y-87004761D01*
X188185714Y-86861904D01*
X188233333Y-86766666D01*
X188328571Y-86719047D01*
X188852380Y-86719047D01*
X188328571Y-86719047D02*
X188233333Y-86671428D01*
X188185714Y-86576190D01*
X188185714Y-86433333D01*
X188233333Y-86338095D01*
X188328571Y-86290476D01*
X188852380Y-86290476D01*
X188852380Y-85052380D02*
X187852380Y-85052380D01*
X188185714Y-84576190D02*
X188852380Y-84576190D01*
X188280952Y-84576190D02*
X188233333Y-84528571D01*
X188185714Y-84433333D01*
X188185714Y-84290476D01*
X188233333Y-84195238D01*
X188328571Y-84147619D01*
X188852380Y-84147619D01*
X204285714Y-66052380D02*
X204857142Y-66052380D01*
X204571428Y-67052380D02*
X204571428Y-66052380D01*
X205047619Y-66052380D02*
X205619047Y-66052380D01*
X205333333Y-67052380D02*
X205333333Y-66052380D01*
X206428571Y-67052380D02*
X205952380Y-67052380D01*
X205952380Y-66052380D01*
X207714285Y-66052380D02*
X207904761Y-66052380D01*
X208000000Y-66100000D01*
X208095238Y-66195238D01*
X208142857Y-66385714D01*
X208142857Y-66719047D01*
X208095238Y-66909523D01*
X208000000Y-67004761D01*
X207904761Y-67052380D01*
X207714285Y-67052380D01*
X207619047Y-67004761D01*
X207523809Y-66909523D01*
X207476190Y-66719047D01*
X207476190Y-66385714D01*
X207523809Y-66195238D01*
X207619047Y-66100000D01*
X207714285Y-66052380D01*
X209000000Y-66385714D02*
X209000000Y-67052380D01*
X208571428Y-66385714D02*
X208571428Y-66909523D01*
X208619047Y-67004761D01*
X208714285Y-67052380D01*
X208857142Y-67052380D01*
X208952380Y-67004761D01*
X209000000Y-66957142D01*
X209333333Y-66385714D02*
X209714285Y-66385714D01*
X209476190Y-66052380D02*
X209476190Y-66909523D01*
X209523809Y-67004761D01*
X209619047Y-67052380D01*
X209714285Y-67052380D01*
X175919047Y-57671428D02*
X176680952Y-57671428D01*
X176300000Y-58052380D02*
X176300000Y-57290476D01*
X187519047Y-58721428D02*
X188280952Y-58721428D01*
X187900000Y-59102380D02*
X187900000Y-58340476D01*
%TO.C,R3*%
X185666852Y-68727586D02*
X185140082Y-68481860D01*
X185171981Y-69013301D02*
X184671981Y-68147275D01*
X185001895Y-67956799D01*
X185108183Y-67950419D01*
X185173232Y-67967849D01*
X185262091Y-68026518D01*
X185333519Y-68150236D01*
X185339899Y-68256524D01*
X185322469Y-68321573D01*
X185263800Y-68410431D01*
X184933886Y-68600907D01*
X185455528Y-67694894D02*
X185991639Y-67385370D01*
X185893440Y-67881951D01*
X186017157Y-67810523D01*
X186123446Y-67804143D01*
X186188494Y-67821573D01*
X186277353Y-67880242D01*
X186396400Y-68086439D01*
X186402780Y-68192727D01*
X186385350Y-68257775D01*
X186326681Y-68346634D01*
X186079245Y-68489491D01*
X185972957Y-68495871D01*
X185907908Y-68478441D01*
%TO.C,J4*%
X200766666Y-65852380D02*
X200766666Y-66566666D01*
X200719047Y-66709523D01*
X200623809Y-66804761D01*
X200480952Y-66852380D01*
X200385714Y-66852380D01*
X201671428Y-66185714D02*
X201671428Y-66852380D01*
X201433333Y-65804761D02*
X201195238Y-66519047D01*
X201814285Y-66519047D01*
%TO.C,J5*%
X213766666Y-89552380D02*
X213766666Y-90266666D01*
X213719047Y-90409523D01*
X213623809Y-90504761D01*
X213480952Y-90552380D01*
X213385714Y-90552380D01*
X214719047Y-89552380D02*
X214242857Y-89552380D01*
X214195238Y-90028571D01*
X214242857Y-89980952D01*
X214338095Y-89933333D01*
X214576190Y-89933333D01*
X214671428Y-89980952D01*
X214719047Y-90028571D01*
X214766666Y-90123809D01*
X214766666Y-90361904D01*
X214719047Y-90457142D01*
X214671428Y-90504761D01*
X214576190Y-90552380D01*
X214338095Y-90552380D01*
X214242857Y-90504761D01*
X214195238Y-90457142D01*
%TO.C,U1*%
X181438095Y-84752380D02*
X181438095Y-85561904D01*
X181485714Y-85657142D01*
X181533333Y-85704761D01*
X181628571Y-85752380D01*
X181819047Y-85752380D01*
X181914285Y-85704761D01*
X181961904Y-85657142D01*
X182009523Y-85561904D01*
X182009523Y-84752380D01*
X183009523Y-85752380D02*
X182438095Y-85752380D01*
X182723809Y-85752380D02*
X182723809Y-84752380D01*
X182628571Y-84895238D01*
X182533333Y-84990476D01*
X182438095Y-85038095D01*
%TO.C,K1*%
X214552380Y-77498095D02*
X213552380Y-77498095D01*
X214552380Y-76926666D02*
X213980952Y-77355238D01*
X213552380Y-76926666D02*
X214123809Y-77498095D01*
X214552380Y-75974285D02*
X214552380Y-76545714D01*
X214552380Y-76260000D02*
X213552380Y-76260000D01*
X213695238Y-76355238D01*
X213790476Y-76450476D01*
X213838095Y-76545714D01*
%TO.C,J2*%
X198666666Y-89652380D02*
X198666666Y-90366666D01*
X198619047Y-90509523D01*
X198523809Y-90604761D01*
X198380952Y-90652380D01*
X198285714Y-90652380D01*
X199095238Y-89747619D02*
X199142857Y-89700000D01*
X199238095Y-89652380D01*
X199476190Y-89652380D01*
X199571428Y-89700000D01*
X199619047Y-89747619D01*
X199666666Y-89842857D01*
X199666666Y-89938095D01*
X199619047Y-90080952D01*
X199047619Y-90652380D01*
X199666666Y-90652380D01*
%TO.C,C2*%
X169433333Y-71557142D02*
X169385714Y-71604761D01*
X169242857Y-71652380D01*
X169147619Y-71652380D01*
X169004761Y-71604761D01*
X168909523Y-71509523D01*
X168861904Y-71414285D01*
X168814285Y-71223809D01*
X168814285Y-71080952D01*
X168861904Y-70890476D01*
X168909523Y-70795238D01*
X169004761Y-70700000D01*
X169147619Y-70652380D01*
X169242857Y-70652380D01*
X169385714Y-70700000D01*
X169433333Y-70747619D01*
X169814285Y-70747619D02*
X169861904Y-70700000D01*
X169957142Y-70652380D01*
X170195238Y-70652380D01*
X170290476Y-70700000D01*
X170338095Y-70747619D01*
X170385714Y-70842857D01*
X170385714Y-70938095D01*
X170338095Y-71080952D01*
X169766666Y-71652380D01*
X170385714Y-71652380D01*
%TO.C,R1*%
X194750561Y-66254236D02*
X194223723Y-66499816D01*
X194651334Y-66816984D02*
X193666526Y-66643335D01*
X193732678Y-66268171D01*
X193796111Y-66182648D01*
X193851276Y-66144022D01*
X193953336Y-66113664D01*
X194094023Y-66138471D01*
X194179545Y-66201904D01*
X194218172Y-66257069D01*
X194248529Y-66359129D01*
X194182378Y-66734294D01*
X194915941Y-65316324D02*
X194816713Y-65879071D01*
X194866327Y-65597698D02*
X193881519Y-65424050D01*
X194005668Y-65542648D01*
X194082921Y-65652977D01*
X194113279Y-65755037D01*
%TO.C,J1*%
X175366666Y-50252380D02*
X175366666Y-50966666D01*
X175319047Y-51109523D01*
X175223809Y-51204761D01*
X175080952Y-51252380D01*
X174985714Y-51252380D01*
X176366666Y-51252380D02*
X175795238Y-51252380D01*
X176080952Y-51252380D02*
X176080952Y-50252380D01*
X175985714Y-50395238D01*
X175890476Y-50490476D01*
X175795238Y-50538095D01*
%TO.C,C4*%
X169433333Y-60757142D02*
X169385714Y-60804761D01*
X169242857Y-60852380D01*
X169147619Y-60852380D01*
X169004761Y-60804761D01*
X168909523Y-60709523D01*
X168861904Y-60614285D01*
X168814285Y-60423809D01*
X168814285Y-60280952D01*
X168861904Y-60090476D01*
X168909523Y-59995238D01*
X169004761Y-59900000D01*
X169147619Y-59852380D01*
X169242857Y-59852380D01*
X169385714Y-59900000D01*
X169433333Y-59947619D01*
X170290476Y-60185714D02*
X170290476Y-60852380D01*
X170052380Y-59804761D02*
X169814285Y-60519047D01*
X170433333Y-60519047D01*
%TO.C,J7*%
X174966666Y-89652380D02*
X174966666Y-90366666D01*
X174919047Y-90509523D01*
X174823809Y-90604761D01*
X174680952Y-90652380D01*
X174585714Y-90652380D01*
X175347619Y-89652380D02*
X176014285Y-89652380D01*
X175585714Y-90652380D01*
%TO.C,R4*%
X199552380Y-69166666D02*
X199076190Y-69500000D01*
X199552380Y-69738095D02*
X198552380Y-69738095D01*
X198552380Y-69357142D01*
X198600000Y-69261904D01*
X198647619Y-69214285D01*
X198742857Y-69166666D01*
X198885714Y-69166666D01*
X198980952Y-69214285D01*
X199028571Y-69261904D01*
X199076190Y-69357142D01*
X199076190Y-69738095D01*
X198885714Y-68309523D02*
X199552380Y-68309523D01*
X198504761Y-68547619D02*
X199219047Y-68785714D01*
X199219047Y-68166666D01*
%TO.C,C1*%
X179857142Y-72066666D02*
X179904761Y-72114285D01*
X179952380Y-72257142D01*
X179952380Y-72352380D01*
X179904761Y-72495238D01*
X179809523Y-72590476D01*
X179714285Y-72638095D01*
X179523809Y-72685714D01*
X179380952Y-72685714D01*
X179190476Y-72638095D01*
X179095238Y-72590476D01*
X179000000Y-72495238D01*
X178952380Y-72352380D01*
X178952380Y-72257142D01*
X179000000Y-72114285D01*
X179047619Y-72066666D01*
X179952380Y-71114285D02*
X179952380Y-71685714D01*
X179952380Y-71400000D02*
X178952380Y-71400000D01*
X179095238Y-71495238D01*
X179190476Y-71590476D01*
X179238095Y-71685714D01*
%TO.C,C3*%
X190357142Y-79866666D02*
X190404761Y-79914285D01*
X190452380Y-80057142D01*
X190452380Y-80152380D01*
X190404761Y-80295238D01*
X190309523Y-80390476D01*
X190214285Y-80438095D01*
X190023809Y-80485714D01*
X189880952Y-80485714D01*
X189690476Y-80438095D01*
X189595238Y-80390476D01*
X189500000Y-80295238D01*
X189452380Y-80152380D01*
X189452380Y-80057142D01*
X189500000Y-79914285D01*
X189547619Y-79866666D01*
X189452380Y-79533333D02*
X189452380Y-78914285D01*
X189833333Y-79247619D01*
X189833333Y-79104761D01*
X189880952Y-79009523D01*
X189928571Y-78961904D01*
X190023809Y-78914285D01*
X190261904Y-78914285D01*
X190357142Y-78961904D01*
X190404761Y-79009523D01*
X190452380Y-79104761D01*
X190452380Y-79390476D01*
X190404761Y-79485714D01*
X190357142Y-79533333D01*
%TO.C,SW1*%
X205795238Y-84366666D02*
X205747619Y-84509523D01*
X205747619Y-84747619D01*
X205795238Y-84842857D01*
X205842857Y-84890476D01*
X205938095Y-84938095D01*
X206033333Y-84938095D01*
X206128571Y-84890476D01*
X206176190Y-84842857D01*
X206223809Y-84747619D01*
X206271428Y-84557142D01*
X206319047Y-84461904D01*
X206366666Y-84414285D01*
X206461904Y-84366666D01*
X206557142Y-84366666D01*
X206652380Y-84414285D01*
X206700000Y-84461904D01*
X206747619Y-84557142D01*
X206747619Y-84795238D01*
X206700000Y-84938095D01*
X206747619Y-85271428D02*
X205747619Y-85509523D01*
X206461904Y-85700000D01*
X205747619Y-85890476D01*
X206747619Y-86128571D01*
X205747619Y-87033333D02*
X205747619Y-86461904D01*
X205747619Y-86747619D02*
X206747619Y-86747619D01*
X206604761Y-86652380D01*
X206509523Y-86557142D01*
X206461904Y-86461904D01*
%TO.C,R2*%
X183833333Y-63022380D02*
X183500000Y-62546190D01*
X183261904Y-63022380D02*
X183261904Y-62022380D01*
X183642857Y-62022380D01*
X183738095Y-62070000D01*
X183785714Y-62117619D01*
X183833333Y-62212857D01*
X183833333Y-62355714D01*
X183785714Y-62450952D01*
X183738095Y-62498571D01*
X183642857Y-62546190D01*
X183261904Y-62546190D01*
X184214285Y-62117619D02*
X184261904Y-62070000D01*
X184357142Y-62022380D01*
X184595238Y-62022380D01*
X184690476Y-62070000D01*
X184738095Y-62117619D01*
X184785714Y-62212857D01*
X184785714Y-62308095D01*
X184738095Y-62450952D01*
X184166666Y-63022380D01*
X184785714Y-63022380D01*
%TO.C,J6*%
X168466666Y-50252380D02*
X168466666Y-50966666D01*
X168419047Y-51109523D01*
X168323809Y-51204761D01*
X168180952Y-51252380D01*
X168085714Y-51252380D01*
X169371428Y-50252380D02*
X169180952Y-50252380D01*
X169085714Y-50300000D01*
X169038095Y-50347619D01*
X168942857Y-50490476D01*
X168895238Y-50680952D01*
X168895238Y-51061904D01*
X168942857Y-51157142D01*
X168990476Y-51204761D01*
X169085714Y-51252380D01*
X169276190Y-51252380D01*
X169371428Y-51204761D01*
X169419047Y-51157142D01*
X169466666Y-51061904D01*
X169466666Y-50823809D01*
X169419047Y-50728571D01*
X169371428Y-50680952D01*
X169276190Y-50633333D01*
X169085714Y-50633333D01*
X168990476Y-50680952D01*
X168942857Y-50728571D01*
X168895238Y-50823809D01*
%TO.C,J3*%
X196352380Y-51733333D02*
X197066666Y-51733333D01*
X197209523Y-51780952D01*
X197304761Y-51876190D01*
X197352380Y-52019047D01*
X197352380Y-52114285D01*
X196352380Y-51352380D02*
X196352380Y-50733333D01*
X196733333Y-51066666D01*
X196733333Y-50923809D01*
X196780952Y-50828571D01*
X196828571Y-50780952D01*
X196923809Y-50733333D01*
X197161904Y-50733333D01*
X197257142Y-50780952D01*
X197304761Y-50828571D01*
X197352380Y-50923809D01*
X197352380Y-51209523D01*
X197304761Y-51304761D01*
X197257142Y-51352380D01*
D12*
%TO.C,R3*%
X180883097Y-66648545D02*
X182253097Y-69021455D01*
X186546903Y-63378545D02*
X180883097Y-66648545D01*
X180901257Y-68220000D02*
X181568097Y-67835000D01*
X187916903Y-65751455D02*
X186546903Y-63378545D01*
X187898743Y-64180000D02*
X187231903Y-64565000D01*
X182253097Y-69021455D02*
X187916903Y-65751455D01*
%TO.C,J4*%
X199500000Y-65550000D02*
X199500000Y-50550000D01*
X214500000Y-50550000D02*
X214500000Y-65550000D01*
X207000000Y-50750000D02*
X206000000Y-51750000D01*
X214500000Y-65550000D02*
X199500000Y-65550000D01*
X199500000Y-50550000D02*
X214500000Y-50550000D01*
X207000000Y-50750000D02*
X208000000Y-51750000D01*
%TO.C,U1*%
X184740000Y-89300000D02*
X184740000Y-86300000D01*
X187530000Y-86300000D02*
X187530000Y-89300000D01*
X176870000Y-86300000D02*
X187530000Y-86300000D01*
X176870000Y-89300000D02*
X176870000Y-86300000D01*
X187530000Y-89300000D02*
X176870000Y-89300000D01*
%TO.C,K1*%
X211200000Y-79860000D02*
X209200000Y-79860000D01*
X211800000Y-76360000D02*
X211800000Y-75260000D01*
X213200000Y-73460000D02*
X213200000Y-74160000D01*
X203600000Y-73560000D02*
X202900000Y-73560000D01*
X212400000Y-77060000D02*
X212400000Y-76360000D01*
X208000000Y-79860000D02*
X207000000Y-79860000D01*
X212400000Y-73460000D02*
X213200000Y-73460000D01*
X213100000Y-79860000D02*
X212400000Y-79860000D01*
X203600000Y-79860000D02*
X202900000Y-79860000D01*
X211800000Y-77060000D02*
X211800000Y-78160000D01*
X212400000Y-73560000D02*
X213100000Y-73560000D01*
X204800000Y-73560000D02*
X205800000Y-73560000D01*
X211600000Y-76360000D02*
X212000000Y-77060000D01*
X202900000Y-79860000D02*
X202900000Y-73560000D01*
X211200000Y-76360000D02*
X211200000Y-77060000D01*
X209200000Y-73560000D02*
X211200000Y-73560000D01*
X212400000Y-76360000D02*
X211200000Y-76360000D01*
X205800000Y-79860000D02*
X204800000Y-79860000D01*
X211200000Y-77060000D02*
X212400000Y-77060000D01*
X213100000Y-73560000D02*
X213100000Y-79860000D01*
X207000000Y-73560000D02*
X208000000Y-73560000D01*
%TO.C,J2*%
X196632500Y-88107500D02*
X195882500Y-88107500D01*
X190132500Y-83807500D02*
X190882500Y-83807500D01*
X192882500Y-88457500D02*
X193132500Y-89457500D01*
X193632500Y-89457500D02*
X193882500Y-88457500D01*
X190882500Y-88107500D02*
X190132500Y-88107500D01*
X196632500Y-83807500D02*
X196632500Y-88107500D01*
X193132500Y-83807500D02*
X193132500Y-88107500D01*
X190382500Y-88457500D02*
X190882500Y-88457500D01*
X195882500Y-88107500D02*
X195882500Y-88457500D01*
X190882500Y-88457500D02*
X190882500Y-88107500D01*
X192382500Y-88107500D02*
X192382500Y-88457500D01*
X189072500Y-82947500D02*
X189072500Y-90417500D01*
X196382500Y-88457500D02*
X196632500Y-89457500D01*
X190132500Y-89457500D02*
X190382500Y-88457500D01*
X198082500Y-90807500D02*
X196082500Y-90807500D01*
X194382500Y-88457500D02*
X194382500Y-88107500D01*
X197692500Y-90417500D02*
X197692500Y-82947500D01*
X197692500Y-82947500D02*
X189072500Y-82947500D01*
X193882500Y-88457500D02*
X194382500Y-88457500D01*
X192382500Y-88457500D02*
X192882500Y-88457500D01*
X193132500Y-89457500D02*
X190132500Y-89457500D01*
X190132500Y-88107500D02*
X190132500Y-83807500D01*
X198082500Y-89557500D02*
X198082500Y-90807500D01*
X193632500Y-83807500D02*
X194382500Y-83807500D01*
X193132500Y-88107500D02*
X192382500Y-88107500D01*
X195882500Y-83807500D02*
X196632500Y-83807500D01*
X196632500Y-89457500D02*
X193632500Y-89457500D01*
X192382500Y-83807500D02*
X193132500Y-83807500D01*
X194382500Y-88107500D02*
X193632500Y-88107500D01*
X189072500Y-90417500D02*
X197692500Y-90417500D01*
X193632500Y-88107500D02*
X193632500Y-83807500D01*
X195882500Y-88457500D02*
X196382500Y-88457500D01*
X194382853Y-83807655D02*
G75*
G03*
X195882500Y-83807500I749647J1700155D01*
G01*
X190882853Y-83807655D02*
G75*
G03*
X192382500Y-83807500I749647J1700155D01*
G01*
%TO.C,C2*%
X174212323Y-70942000D02*
X174212323Y-81058000D01*
X175093323Y-77241000D02*
X175093323Y-80897000D01*
X177933323Y-73111000D02*
X177933323Y-78889000D01*
X178053323Y-73291000D02*
X178053323Y-78709000D01*
X178453323Y-74056000D02*
X178453323Y-77944000D01*
X175733323Y-77241000D02*
X175733323Y-80674000D01*
X178493323Y-74154000D02*
X178493323Y-77846000D01*
X174813323Y-77241000D02*
X174813323Y-80965000D01*
X175253323Y-77241000D02*
X175253323Y-80850000D01*
X173972323Y-70925000D02*
X173972323Y-81075000D01*
X177893323Y-73055000D02*
X177893323Y-78945000D01*
X176653323Y-71834000D02*
X176653323Y-74759000D01*
X175893323Y-77241000D02*
X175893323Y-80603000D01*
X176253323Y-77241000D02*
X176253323Y-80417000D01*
X174453323Y-70970000D02*
X174453323Y-74759000D01*
X175813323Y-71361000D02*
X175813323Y-74759000D01*
X175733323Y-71326000D02*
X175733323Y-74759000D01*
X174533323Y-70982000D02*
X174533323Y-74759000D01*
X174853323Y-77241000D02*
X174853323Y-80956000D01*
X177133323Y-72211000D02*
X177133323Y-79789000D01*
X178133323Y-73421000D02*
X178133323Y-78579000D01*
X178093323Y-73355000D02*
X178093323Y-78645000D01*
X175453323Y-71217000D02*
X175453323Y-74759000D01*
X176493323Y-71727000D02*
X176493323Y-74759000D01*
X176293323Y-77241000D02*
X176293323Y-80395000D01*
X176013323Y-71455000D02*
X176013323Y-74759000D01*
X176613323Y-71806000D02*
X176613323Y-74759000D01*
X175613323Y-71277000D02*
X175613323Y-74759000D01*
X176133323Y-77241000D02*
X176133323Y-80483000D01*
X175293323Y-71163000D02*
X175293323Y-74759000D01*
X175293323Y-77241000D02*
X175293323Y-80837000D01*
X175413323Y-77241000D02*
X175413323Y-80797000D01*
X176573323Y-71779000D02*
X176573323Y-74759000D01*
X175173323Y-77241000D02*
X175173323Y-80874000D01*
X178773323Y-75138000D02*
X178773323Y-76862000D01*
X178333323Y-73791000D02*
X178333323Y-78209000D01*
X176413323Y-71677000D02*
X176413323Y-74759000D01*
X175373323Y-71189000D02*
X175373323Y-74759000D01*
X176533323Y-71753000D02*
X176533323Y-74759000D01*
X177333323Y-72399000D02*
X177333323Y-79601000D01*
X178013323Y-73230000D02*
X178013323Y-78770000D01*
X176333323Y-77241000D02*
X176333323Y-80371000D01*
X178253323Y-73635000D02*
X178253323Y-78365000D01*
X174733323Y-77241000D02*
X174733323Y-80982000D01*
X178733323Y-74938000D02*
X178733323Y-77062000D01*
X177693323Y-72794000D02*
X177693323Y-79206000D01*
X175573323Y-71262000D02*
X175573323Y-74759000D01*
X176333323Y-71629000D02*
X176333323Y-74759000D01*
X174613323Y-70996000D02*
X174613323Y-74759000D01*
X176253323Y-71583000D02*
X176253323Y-74759000D01*
X177493323Y-72564000D02*
X177493323Y-79436000D01*
X175773323Y-71343000D02*
X175773323Y-74759000D01*
X176213323Y-77241000D02*
X176213323Y-80440000D01*
X176693323Y-71862000D02*
X176693323Y-74759000D01*
X174332323Y-77241000D02*
X174332323Y-81045000D01*
X176373323Y-77241000D02*
X176373323Y-80347000D01*
X176093323Y-71496000D02*
X176093323Y-74759000D01*
X174693323Y-71010000D02*
X174693323Y-74759000D01*
X174493323Y-70976000D02*
X174493323Y-74759000D01*
X174012323Y-70927000D02*
X174012323Y-81073000D01*
X177773323Y-72894000D02*
X177773323Y-79106000D01*
X176573323Y-77241000D02*
X176573323Y-80221000D01*
X178213323Y-73561000D02*
X178213323Y-78439000D01*
X177373323Y-72439000D02*
X177373323Y-79561000D01*
X174733323Y-71018000D02*
X174733323Y-74759000D01*
X176173323Y-71538000D02*
X176173323Y-74759000D01*
X173772323Y-70920000D02*
X173772323Y-81080000D01*
X175373323Y-77241000D02*
X175373323Y-80811000D01*
X176053323Y-77241000D02*
X176053323Y-80525000D01*
X174412323Y-70965000D02*
X174412323Y-74759000D01*
X174252323Y-77241000D02*
X174252323Y-81054000D01*
X178293323Y-73711000D02*
X178293323Y-78289000D01*
X176853323Y-71980000D02*
X176853323Y-80020000D01*
X174973323Y-71072000D02*
X174973323Y-74759000D01*
X176413323Y-77241000D02*
X176413323Y-80323000D01*
X174893323Y-77241000D02*
X174893323Y-80947000D01*
X174372323Y-77241000D02*
X174372323Y-81040000D01*
X175973323Y-77241000D02*
X175973323Y-80564000D01*
X175413323Y-71203000D02*
X175413323Y-74759000D01*
X176453323Y-77241000D02*
X176453323Y-80298000D01*
X176733323Y-71890000D02*
X176733323Y-80110000D01*
X174533323Y-77241000D02*
X174533323Y-81018000D01*
X173892323Y-70922000D02*
X173892323Y-81078000D01*
X174332323Y-70955000D02*
X174332323Y-74759000D01*
X177813323Y-72946000D02*
X177813323Y-79054000D01*
X176493323Y-77241000D02*
X176493323Y-80273000D01*
X174453323Y-77241000D02*
X174453323Y-81030000D01*
X175693323Y-71310000D02*
X175693323Y-74759000D01*
X175333323Y-77241000D02*
X175333323Y-80824000D01*
X176613323Y-77241000D02*
X176613323Y-80194000D01*
X176933323Y-72043000D02*
X176933323Y-79957000D01*
X175013323Y-77241000D02*
X175013323Y-80918000D01*
X175613323Y-77241000D02*
X175613323Y-80723000D01*
X173852323Y-70921000D02*
X173852323Y-81079000D01*
X177213323Y-72284000D02*
X177213323Y-79716000D01*
X174933323Y-71062000D02*
X174933323Y-74759000D01*
X175213323Y-71138000D02*
X175213323Y-74759000D01*
X174693323Y-77241000D02*
X174693323Y-80990000D01*
X177573323Y-72653000D02*
X177573323Y-79347000D01*
X177613323Y-72699000D02*
X177613323Y-79301000D01*
X173932323Y-70923000D02*
X173932323Y-81077000D01*
X174292323Y-70950000D02*
X174292323Y-74759000D01*
X174773323Y-77241000D02*
X174773323Y-80974000D01*
X178613323Y-74490000D02*
X178613323Y-77510000D01*
X177973323Y-73170000D02*
X177973323Y-78830000D01*
X175053323Y-71093000D02*
X175053323Y-74759000D01*
X175453323Y-77241000D02*
X175453323Y-80783000D01*
X175693323Y-77241000D02*
X175693323Y-80690000D01*
X174412323Y-77241000D02*
X174412323Y-81035000D01*
X178533323Y-74258000D02*
X178533323Y-77742000D01*
X177413323Y-72480000D02*
X177413323Y-79520000D01*
X175133323Y-71115000D02*
X175133323Y-74759000D01*
X175893323Y-71397000D02*
X175893323Y-74759000D01*
X174653323Y-77241000D02*
X174653323Y-80997000D01*
X176893323Y-72011000D02*
X176893323Y-79989000D01*
X178573323Y-74370000D02*
X178573323Y-77630000D01*
X174613323Y-77241000D02*
X174613323Y-81004000D01*
X174252323Y-70946000D02*
X174252323Y-74759000D01*
X175653323Y-71293000D02*
X175653323Y-74759000D01*
X174292323Y-77241000D02*
X174292323Y-81050000D01*
X175533323Y-77241000D02*
X175533323Y-80754000D01*
X174573323Y-77241000D02*
X174573323Y-81011000D01*
X176373323Y-71653000D02*
X176373323Y-74759000D01*
X177253323Y-72321000D02*
X177253323Y-79679000D01*
X176653323Y-77241000D02*
X176653323Y-80166000D01*
X175333323Y-71176000D02*
X175333323Y-74759000D01*
X175773323Y-77241000D02*
X175773323Y-80657000D01*
X175853323Y-77241000D02*
X175853323Y-80621000D01*
X175533323Y-71246000D02*
X175533323Y-74759000D01*
X174092323Y-70932000D02*
X174092323Y-81068000D01*
X174573323Y-70989000D02*
X174573323Y-74759000D01*
X178693323Y-74770000D02*
X178693323Y-77230000D01*
X174893323Y-71053000D02*
X174893323Y-74759000D01*
X174773323Y-71026000D02*
X174773323Y-74759000D01*
X176013323Y-77241000D02*
X176013323Y-80545000D01*
X174372323Y-70960000D02*
X174372323Y-74759000D01*
X177453323Y-72522000D02*
X177453323Y-79478000D01*
X177293323Y-72360000D02*
X177293323Y-79640000D01*
X176533323Y-77241000D02*
X176533323Y-80247000D01*
X178413323Y-73963000D02*
X178413323Y-78037000D01*
X175813323Y-77241000D02*
X175813323Y-80639000D01*
X176813323Y-71950000D02*
X176813323Y-80050000D01*
X177093323Y-72176000D02*
X177093323Y-79824000D01*
X176213323Y-71560000D02*
X176213323Y-74759000D01*
X178653323Y-74622000D02*
X178653323Y-77378000D01*
X174853323Y-71044000D02*
X174853323Y-74759000D01*
X176693323Y-77241000D02*
X176693323Y-80138000D01*
X176173323Y-77241000D02*
X176173323Y-80462000D01*
X175973323Y-71436000D02*
X175973323Y-74759000D01*
X174973323Y-77241000D02*
X174973323Y-80928000D01*
X176973323Y-72075000D02*
X176973323Y-79925000D01*
X177533323Y-72608000D02*
X177533323Y-79392000D01*
X174493323Y-77241000D02*
X174493323Y-81024000D01*
X175053323Y-77241000D02*
X175053323Y-80907000D01*
X177733323Y-72844000D02*
X177733323Y-79156000D01*
X175013323Y-71082000D02*
X175013323Y-74759000D01*
X176773323Y-71920000D02*
X176773323Y-80080000D01*
X173732323Y-70920000D02*
X173732323Y-81080000D01*
X173812323Y-70920000D02*
X173812323Y-81080000D01*
X168752677Y-72625000D02*
X168752677Y-73625000D01*
X178173323Y-73490000D02*
X178173323Y-78510000D01*
X174653323Y-71003000D02*
X174653323Y-74759000D01*
X176053323Y-71475000D02*
X176053323Y-74759000D01*
X177173323Y-72247000D02*
X177173323Y-79753000D01*
X175853323Y-71379000D02*
X175853323Y-74759000D01*
X175653323Y-77241000D02*
X175653323Y-80707000D01*
X175093323Y-71103000D02*
X175093323Y-74759000D01*
X174052323Y-70930000D02*
X174052323Y-81070000D01*
X177853323Y-73000000D02*
X177853323Y-79000000D01*
X176133323Y-71517000D02*
X176133323Y-74759000D01*
X175253323Y-71150000D02*
X175253323Y-74759000D01*
X176093323Y-77241000D02*
X176093323Y-80504000D01*
X175133323Y-77241000D02*
X175133323Y-80885000D01*
X175173323Y-71126000D02*
X175173323Y-74759000D01*
X177653323Y-72746000D02*
X177653323Y-79254000D01*
X174933323Y-77241000D02*
X174933323Y-80938000D01*
X176453323Y-71702000D02*
X176453323Y-74759000D01*
X168252677Y-73125000D02*
X169252677Y-73125000D01*
X175933323Y-77241000D02*
X175933323Y-80584000D01*
X177053323Y-72142000D02*
X177053323Y-79858000D01*
X176293323Y-71605000D02*
X176293323Y-74759000D01*
X175493323Y-71232000D02*
X175493323Y-74759000D01*
X178373323Y-73875000D02*
X178373323Y-78125000D01*
X174813323Y-71035000D02*
X174813323Y-74759000D01*
X174172323Y-70938000D02*
X174172323Y-81062000D01*
X177013323Y-72108000D02*
X177013323Y-79892000D01*
X175573323Y-77241000D02*
X175573323Y-80738000D01*
X174132323Y-70935000D02*
X174132323Y-81065000D01*
X175213323Y-77241000D02*
X175213323Y-80862000D01*
X178813323Y-75401000D02*
X178813323Y-76599000D01*
X175933323Y-71416000D02*
X175933323Y-74759000D01*
X175493323Y-77241000D02*
X175493323Y-80768000D01*
X178852323Y-76000000D02*
G75*
G03*
X178852323Y-76000000I-5120000J0D01*
G01*
%TO.C,R1*%
X192781357Y-69058220D02*
X193917016Y-62617577D01*
X191218643Y-62141781D02*
X190082984Y-68582424D01*
X190082984Y-68582424D02*
X192781357Y-69058220D01*
X192701539Y-61621377D02*
X192567830Y-62379679D01*
X191298462Y-69578624D02*
X191432171Y-68820322D01*
X193917016Y-62617577D02*
X191218643Y-62141781D01*
%TO.C,J1*%
X178717500Y-52992500D02*
X178717500Y-52642500D01*
X183717500Y-52992500D02*
X184467500Y-52992500D01*
X181717500Y-52642500D02*
X181467500Y-51642500D01*
X176517500Y-51542500D02*
X176517500Y-50292500D01*
X181467500Y-51642500D02*
X184467500Y-51642500D01*
X183717500Y-52642500D02*
X183717500Y-52992500D01*
X184467500Y-57292500D02*
X183717500Y-57292500D01*
X182217500Y-52642500D02*
X181717500Y-52642500D01*
X177967500Y-52992500D02*
X178717500Y-52992500D01*
X182217500Y-52992500D02*
X182217500Y-52642500D01*
X184467500Y-51642500D02*
X184217500Y-52642500D01*
X181467500Y-57292500D02*
X181467500Y-52992500D01*
X184467500Y-52992500D02*
X184467500Y-57292500D01*
X185527500Y-50682500D02*
X176907500Y-50682500D01*
X184217500Y-52642500D02*
X183717500Y-52642500D01*
X181467500Y-52992500D02*
X182217500Y-52992500D01*
X180967500Y-51642500D02*
X180717500Y-52642500D01*
X178717500Y-57292500D02*
X177967500Y-57292500D01*
X176517500Y-50292500D02*
X178517500Y-50292500D01*
X182217500Y-57292500D02*
X181467500Y-57292500D01*
X185527500Y-58152500D02*
X185527500Y-50682500D01*
X178717500Y-52642500D02*
X178217500Y-52642500D01*
X176907500Y-50682500D02*
X176907500Y-58152500D01*
X178217500Y-52642500D02*
X177967500Y-51642500D01*
X176907500Y-58152500D02*
X185527500Y-58152500D01*
X180217500Y-52992500D02*
X180967500Y-52992500D01*
X177967500Y-51642500D02*
X180967500Y-51642500D01*
X180717500Y-52642500D02*
X180217500Y-52642500D01*
X177967500Y-57292500D02*
X177967500Y-52992500D01*
X180967500Y-57292500D02*
X180217500Y-57292500D01*
X180967500Y-52992500D02*
X180967500Y-57292500D01*
X180217500Y-52642500D02*
X180217500Y-52992500D01*
X180217147Y-57292345D02*
G75*
G03*
X178717500Y-57292500I-749647J-1700155D01*
G01*
X183717147Y-57292345D02*
G75*
G03*
X182217500Y-57292500I-749647J-1700155D01*
G01*
%TO.C,C4*%
X175453323Y-60417000D02*
X175453323Y-63959000D01*
X174533323Y-66441000D02*
X174533323Y-70218000D01*
X175973323Y-60636000D02*
X175973323Y-63959000D01*
X174493323Y-66441000D02*
X174493323Y-70224000D01*
X173772323Y-60120000D02*
X173772323Y-70280000D01*
X178453323Y-63256000D02*
X178453323Y-67144000D01*
X178733323Y-64138000D02*
X178733323Y-66262000D01*
X175013323Y-66441000D02*
X175013323Y-70118000D01*
X177373323Y-61639000D02*
X177373323Y-68761000D01*
X175413323Y-66441000D02*
X175413323Y-69997000D01*
X175813323Y-60561000D02*
X175813323Y-63959000D01*
X175213323Y-60338000D02*
X175213323Y-63959000D01*
X176293323Y-66441000D02*
X176293323Y-69595000D01*
X176973323Y-61275000D02*
X176973323Y-69125000D01*
X175693323Y-60510000D02*
X175693323Y-63959000D01*
X175093323Y-60303000D02*
X175093323Y-63959000D01*
X176493323Y-60927000D02*
X176493323Y-63959000D01*
X174733323Y-66441000D02*
X174733323Y-70182000D01*
X176853323Y-61180000D02*
X176853323Y-69220000D01*
X174252323Y-66441000D02*
X174252323Y-70254000D01*
X175733323Y-66441000D02*
X175733323Y-69874000D01*
X178093323Y-62555000D02*
X178093323Y-67845000D01*
X175773323Y-66441000D02*
X175773323Y-69857000D01*
X177133323Y-61411000D02*
X177133323Y-68989000D01*
X177293323Y-61560000D02*
X177293323Y-68840000D01*
X174973323Y-66441000D02*
X174973323Y-70128000D01*
X177853323Y-62200000D02*
X177853323Y-68200000D01*
X174412323Y-60165000D02*
X174412323Y-63959000D01*
X176133323Y-66441000D02*
X176133323Y-69683000D01*
X174853323Y-60244000D02*
X174853323Y-63959000D01*
X178173323Y-62690000D02*
X178173323Y-67710000D01*
X176373323Y-60853000D02*
X176373323Y-63959000D01*
X175333323Y-60376000D02*
X175333323Y-63959000D01*
X174332323Y-60155000D02*
X174332323Y-63959000D01*
X178693323Y-63970000D02*
X178693323Y-66430000D01*
X175973323Y-66441000D02*
X175973323Y-69764000D01*
X178053323Y-62491000D02*
X178053323Y-67909000D01*
X174613323Y-66441000D02*
X174613323Y-70204000D01*
X173932323Y-60123000D02*
X173932323Y-70277000D01*
X176413323Y-60877000D02*
X176413323Y-63959000D01*
X175653323Y-60493000D02*
X175653323Y-63959000D01*
X175573323Y-66441000D02*
X175573323Y-69938000D01*
X175733323Y-60526000D02*
X175733323Y-63959000D01*
X175253323Y-66441000D02*
X175253323Y-70050000D01*
X177053323Y-61342000D02*
X177053323Y-69058000D01*
X178413323Y-63163000D02*
X178413323Y-67237000D01*
X176693323Y-66441000D02*
X176693323Y-69338000D01*
X174372323Y-66441000D02*
X174372323Y-70240000D01*
X173892323Y-60122000D02*
X173892323Y-70278000D01*
X175253323Y-60350000D02*
X175253323Y-63959000D01*
X175333323Y-66441000D02*
X175333323Y-70024000D01*
X175613323Y-60477000D02*
X175613323Y-63959000D01*
X175293323Y-60363000D02*
X175293323Y-63959000D01*
X178533323Y-63458000D02*
X178533323Y-66942000D01*
X174693323Y-60210000D02*
X174693323Y-63959000D01*
X176053323Y-60675000D02*
X176053323Y-63959000D01*
X174453323Y-66441000D02*
X174453323Y-70230000D01*
X176373323Y-66441000D02*
X176373323Y-69547000D01*
X174733323Y-60218000D02*
X174733323Y-63959000D01*
X176893323Y-61211000D02*
X176893323Y-69189000D01*
X174412323Y-66441000D02*
X174412323Y-70235000D01*
X176613323Y-66441000D02*
X176613323Y-69394000D01*
X173972323Y-60125000D02*
X173972323Y-70275000D01*
X177573323Y-61853000D02*
X177573323Y-68547000D01*
X176453323Y-66441000D02*
X176453323Y-69498000D01*
X178573323Y-63570000D02*
X178573323Y-66830000D01*
X174693323Y-66441000D02*
X174693323Y-70190000D01*
X176613323Y-61006000D02*
X176613323Y-63959000D01*
X178213323Y-62761000D02*
X178213323Y-67639000D01*
X176333323Y-60829000D02*
X176333323Y-63959000D01*
X175133323Y-66441000D02*
X175133323Y-70085000D01*
X173852323Y-60121000D02*
X173852323Y-70279000D01*
X176573323Y-66441000D02*
X176573323Y-69421000D01*
X177453323Y-61722000D02*
X177453323Y-68678000D01*
X176453323Y-60902000D02*
X176453323Y-63959000D01*
X175373323Y-60389000D02*
X175373323Y-63959000D01*
X177253323Y-61521000D02*
X177253323Y-68879000D01*
X174813323Y-66441000D02*
X174813323Y-70165000D01*
X176013323Y-66441000D02*
X176013323Y-69745000D01*
X175053323Y-66441000D02*
X175053323Y-70107000D01*
X175933323Y-60616000D02*
X175933323Y-63959000D01*
X178013323Y-62430000D02*
X178013323Y-67970000D01*
X175493323Y-60432000D02*
X175493323Y-63959000D01*
X174132323Y-60135000D02*
X174132323Y-70265000D01*
X177933323Y-62311000D02*
X177933323Y-68089000D01*
X175173323Y-66441000D02*
X175173323Y-70074000D01*
X174933323Y-60262000D02*
X174933323Y-63959000D01*
X177333323Y-61599000D02*
X177333323Y-68801000D01*
X174332323Y-66441000D02*
X174332323Y-70245000D01*
X174573323Y-66441000D02*
X174573323Y-70211000D01*
X176093323Y-66441000D02*
X176093323Y-69704000D01*
X175773323Y-60543000D02*
X175773323Y-63959000D01*
X178373323Y-63075000D02*
X178373323Y-67325000D01*
X175173323Y-60326000D02*
X175173323Y-63959000D01*
X177653323Y-61946000D02*
X177653323Y-68454000D01*
X176573323Y-60979000D02*
X176573323Y-63959000D01*
X175533323Y-60446000D02*
X175533323Y-63959000D01*
X178653323Y-63822000D02*
X178653323Y-66578000D01*
X175013323Y-60282000D02*
X175013323Y-63959000D01*
X176933323Y-61243000D02*
X176933323Y-69157000D01*
X175693323Y-66441000D02*
X175693323Y-69890000D01*
X176813323Y-61150000D02*
X176813323Y-69250000D01*
X174212323Y-60142000D02*
X174212323Y-70258000D01*
X175933323Y-66441000D02*
X175933323Y-69784000D01*
X177813323Y-62146000D02*
X177813323Y-68254000D01*
X178333323Y-62991000D02*
X178333323Y-67409000D01*
X175493323Y-66441000D02*
X175493323Y-69968000D01*
X175893323Y-60597000D02*
X175893323Y-63959000D01*
X174973323Y-60272000D02*
X174973323Y-63959000D01*
X176253323Y-60783000D02*
X176253323Y-63959000D01*
X175373323Y-66441000D02*
X175373323Y-70011000D01*
X175573323Y-60462000D02*
X175573323Y-63959000D01*
X177613323Y-61899000D02*
X177613323Y-68501000D01*
X176533323Y-66441000D02*
X176533323Y-69447000D01*
X178253323Y-62835000D02*
X178253323Y-67565000D01*
X176533323Y-60953000D02*
X176533323Y-63959000D01*
X178293323Y-62911000D02*
X178293323Y-67489000D01*
X178493323Y-63354000D02*
X178493323Y-67046000D01*
X176093323Y-60696000D02*
X176093323Y-63959000D01*
X175853323Y-60579000D02*
X175853323Y-63959000D01*
X177413323Y-61680000D02*
X177413323Y-68720000D01*
X174653323Y-60203000D02*
X174653323Y-63959000D01*
X176053323Y-66441000D02*
X176053323Y-69725000D01*
X174292323Y-66441000D02*
X174292323Y-70250000D01*
X174573323Y-60189000D02*
X174573323Y-63959000D01*
X177493323Y-61764000D02*
X177493323Y-68636000D01*
X176013323Y-60655000D02*
X176013323Y-63959000D01*
X176653323Y-61034000D02*
X176653323Y-63959000D01*
X174813323Y-60235000D02*
X174813323Y-63959000D01*
X174893323Y-60253000D02*
X174893323Y-63959000D01*
X175213323Y-66441000D02*
X175213323Y-70062000D01*
X176693323Y-61062000D02*
X176693323Y-63959000D01*
X177213323Y-61484000D02*
X177213323Y-68916000D01*
X178773323Y-64338000D02*
X178773323Y-66062000D01*
X176293323Y-60805000D02*
X176293323Y-63959000D01*
X173812323Y-60120000D02*
X173812323Y-70280000D01*
X174893323Y-66441000D02*
X174893323Y-70147000D01*
X176213323Y-66441000D02*
X176213323Y-69640000D01*
X176173323Y-60738000D02*
X176173323Y-63959000D01*
X174853323Y-66441000D02*
X174853323Y-70156000D01*
X178133323Y-62621000D02*
X178133323Y-67779000D01*
X174453323Y-60170000D02*
X174453323Y-63959000D01*
X176173323Y-66441000D02*
X176173323Y-69662000D01*
X174172323Y-60138000D02*
X174172323Y-70262000D01*
X176653323Y-66441000D02*
X176653323Y-69366000D01*
X178613323Y-63690000D02*
X178613323Y-66710000D01*
X176133323Y-60717000D02*
X176133323Y-63959000D01*
X176253323Y-66441000D02*
X176253323Y-69617000D01*
X174052323Y-60130000D02*
X174052323Y-70270000D01*
X174292323Y-60150000D02*
X174292323Y-63959000D01*
X175133323Y-60315000D02*
X175133323Y-63959000D01*
X174092323Y-60132000D02*
X174092323Y-70268000D01*
X175613323Y-66441000D02*
X175613323Y-69923000D01*
X177693323Y-61994000D02*
X177693323Y-68406000D01*
X176413323Y-66441000D02*
X176413323Y-69523000D01*
X176773323Y-61120000D02*
X176773323Y-69280000D01*
X175413323Y-60403000D02*
X175413323Y-63959000D01*
X168252677Y-62325000D02*
X169252677Y-62325000D01*
X175533323Y-66441000D02*
X175533323Y-69954000D01*
X174613323Y-60196000D02*
X174613323Y-63959000D01*
X175653323Y-66441000D02*
X175653323Y-69907000D01*
X175293323Y-66441000D02*
X175293323Y-70037000D01*
X176333323Y-66441000D02*
X176333323Y-69571000D01*
X176213323Y-60760000D02*
X176213323Y-63959000D01*
X174493323Y-60176000D02*
X174493323Y-63959000D01*
X177533323Y-61808000D02*
X177533323Y-68592000D01*
X174933323Y-66441000D02*
X174933323Y-70138000D01*
X177733323Y-62044000D02*
X177733323Y-68356000D01*
X174653323Y-66441000D02*
X174653323Y-70197000D01*
X173732323Y-60120000D02*
X173732323Y-70280000D01*
X174773323Y-60226000D02*
X174773323Y-63959000D01*
X174012323Y-60127000D02*
X174012323Y-70273000D01*
X177013323Y-61308000D02*
X177013323Y-69092000D01*
X175813323Y-66441000D02*
X175813323Y-69839000D01*
X174533323Y-60182000D02*
X174533323Y-63959000D01*
X168752677Y-61825000D02*
X168752677Y-62825000D01*
X177973323Y-62370000D02*
X177973323Y-68030000D01*
X174372323Y-60160000D02*
X174372323Y-63959000D01*
X176493323Y-66441000D02*
X176493323Y-69473000D01*
X174252323Y-60146000D02*
X174252323Y-63959000D01*
X175093323Y-66441000D02*
X175093323Y-70097000D01*
X177773323Y-62094000D02*
X177773323Y-68306000D01*
X176733323Y-61090000D02*
X176733323Y-69310000D01*
X175893323Y-66441000D02*
X175893323Y-69803000D01*
X177893323Y-62255000D02*
X177893323Y-68145000D01*
X175453323Y-66441000D02*
X175453323Y-69983000D01*
X175053323Y-60293000D02*
X175053323Y-63959000D01*
X175853323Y-66441000D02*
X175853323Y-69821000D01*
X177093323Y-61376000D02*
X177093323Y-69024000D01*
X174773323Y-66441000D02*
X174773323Y-70174000D01*
X178813323Y-64601000D02*
X178813323Y-65799000D01*
X177173323Y-61447000D02*
X177173323Y-68953000D01*
X178852323Y-65200000D02*
G75*
G03*
X178852323Y-65200000I-5120000J0D01*
G01*
%TO.C,R4*%
X196800000Y-69340000D02*
X196800000Y-68570000D01*
X198170000Y-68570000D02*
X198170000Y-62030000D01*
X198170000Y-62030000D02*
X195430000Y-62030000D01*
X195430000Y-68570000D02*
X198170000Y-68570000D01*
X195430000Y-62030000D02*
X195430000Y-68570000D01*
X196800000Y-61260000D02*
X196800000Y-62030000D01*
%TO.C,C1*%
X189603000Y-76511000D02*
X186241000Y-76511000D01*
X189897000Y-75711000D02*
X186241000Y-75711000D01*
X183759000Y-76951000D02*
X180629000Y-76951000D01*
X183759000Y-75271000D02*
X180003000Y-75271000D01*
X187209000Y-78951000D02*
X182791000Y-78951000D01*
X190080000Y-74350000D02*
X179920000Y-74350000D01*
X186742000Y-79151000D02*
X183258000Y-79151000D01*
X189674000Y-76351000D02*
X186241000Y-76351000D01*
X187365000Y-78871000D02*
X182635000Y-78871000D01*
X186510000Y-79231000D02*
X183490000Y-79231000D01*
X189874000Y-75791000D02*
X186241000Y-75791000D01*
X190080000Y-74430000D02*
X179920000Y-74430000D01*
X190075000Y-74590000D02*
X179925000Y-74590000D01*
X190050000Y-74910000D02*
X186241000Y-74910000D01*
X189525000Y-76671000D02*
X186241000Y-76671000D01*
X185862000Y-79391000D02*
X184138000Y-79391000D01*
X186230000Y-79311000D02*
X183770000Y-79311000D01*
X190011000Y-75191000D02*
X186241000Y-75191000D01*
X187125000Y-78991000D02*
X182875000Y-78991000D01*
X188601000Y-77951000D02*
X181399000Y-77951000D01*
X189918000Y-75631000D02*
X186241000Y-75631000D01*
X189783000Y-76071000D02*
X186241000Y-76071000D01*
X189545000Y-76631000D02*
X186241000Y-76631000D01*
X190040000Y-74990000D02*
X186241000Y-74990000D01*
X189837000Y-75911000D02*
X186241000Y-75911000D01*
X190078000Y-74510000D02*
X179922000Y-74510000D01*
X183759000Y-75951000D02*
X180176000Y-75951000D01*
X183759000Y-75551000D02*
X180062000Y-75551000D01*
X190073000Y-74630000D02*
X179927000Y-74630000D01*
X189298000Y-77071000D02*
X186241000Y-77071000D01*
X183759000Y-75151000D02*
X179982000Y-75151000D01*
X190079000Y-74470000D02*
X179921000Y-74470000D01*
X190024000Y-75111000D02*
X186241000Y-75111000D01*
X189080000Y-77391000D02*
X180920000Y-77391000D01*
X188789000Y-77751000D02*
X181211000Y-77751000D01*
X183759000Y-75591000D02*
X180072000Y-75591000D01*
X189982000Y-75351000D02*
X186241000Y-75351000D01*
X183759000Y-76391000D02*
X180343000Y-76391000D01*
X190054000Y-74870000D02*
X186241000Y-74870000D01*
X183759000Y-76511000D02*
X180397000Y-76511000D01*
X183759000Y-75311000D02*
X180010000Y-75311000D01*
X189166000Y-77271000D02*
X186241000Y-77271000D01*
X183759000Y-75030000D02*
X179965000Y-75030000D01*
X183759000Y-75631000D02*
X180082000Y-75631000D01*
X183759000Y-75391000D02*
X180026000Y-75391000D01*
X189417000Y-76871000D02*
X186241000Y-76871000D01*
X187579000Y-78751000D02*
X182421000Y-78751000D01*
X189885000Y-75751000D02*
X186241000Y-75751000D01*
X183759000Y-76311000D02*
X180310000Y-76311000D01*
X187645000Y-78711000D02*
X182355000Y-78711000D01*
X189690000Y-76311000D02*
X186241000Y-76311000D01*
X189797000Y-76031000D02*
X186241000Y-76031000D01*
X183759000Y-75351000D02*
X180018000Y-75351000D01*
X188301000Y-78231000D02*
X181699000Y-78231000D01*
X183759000Y-76751000D02*
X180517000Y-76751000D01*
X189347000Y-76991000D02*
X186241000Y-76991000D01*
X190045000Y-74950000D02*
X186241000Y-74950000D01*
X187037000Y-79031000D02*
X182963000Y-79031000D01*
X188254000Y-78271000D02*
X181746000Y-78271000D01*
X183759000Y-76831000D02*
X180560000Y-76831000D01*
X183759000Y-77071000D02*
X180702000Y-77071000D01*
X187289000Y-78911000D02*
X182711000Y-78911000D01*
X189947000Y-75511000D02*
X186241000Y-75511000D01*
X189395000Y-76911000D02*
X186241000Y-76911000D01*
X183759000Y-75231000D02*
X179996000Y-75231000D01*
X186944000Y-79071000D02*
X183056000Y-79071000D01*
X188054000Y-78431000D02*
X181946000Y-78431000D01*
X189323000Y-77031000D02*
X186241000Y-77031000D01*
X188824000Y-77711000D02*
X181176000Y-77711000D01*
X188000000Y-78471000D02*
X182000000Y-78471000D01*
X183759000Y-77031000D02*
X180677000Y-77031000D01*
X189768000Y-76111000D02*
X186241000Y-76111000D01*
X190018000Y-75151000D02*
X186241000Y-75151000D01*
X189564000Y-76591000D02*
X186241000Y-76591000D01*
X190065000Y-74750000D02*
X179935000Y-74750000D01*
X188106000Y-78391000D02*
X181894000Y-78391000D01*
X183759000Y-77231000D02*
X180806000Y-77231000D01*
X183759000Y-75111000D02*
X179976000Y-75111000D01*
X183759000Y-76911000D02*
X180605000Y-76911000D01*
X183759000Y-74910000D02*
X179950000Y-74910000D01*
X183759000Y-75831000D02*
X180138000Y-75831000D01*
X189928000Y-75591000D02*
X186241000Y-75591000D01*
X187439000Y-78831000D02*
X182561000Y-78831000D01*
X183759000Y-74990000D02*
X179960000Y-74990000D01*
X189639000Y-76431000D02*
X186241000Y-76431000D01*
X189990000Y-75311000D02*
X186241000Y-75311000D01*
X183759000Y-77151000D02*
X180753000Y-77151000D01*
X188679000Y-77871000D02*
X181321000Y-77871000D01*
X183759000Y-76871000D02*
X180583000Y-76871000D01*
X190068000Y-74710000D02*
X179932000Y-74710000D01*
X183759000Y-76071000D02*
X180217000Y-76071000D01*
X188716000Y-77831000D02*
X181284000Y-77831000D01*
X189862000Y-75831000D02*
X186241000Y-75831000D01*
X189738000Y-76191000D02*
X186241000Y-76191000D01*
X183759000Y-76631000D02*
X180455000Y-76631000D01*
X188156000Y-78351000D02*
X181844000Y-78351000D01*
X190004000Y-75231000D02*
X186241000Y-75231000D01*
X183759000Y-75791000D02*
X180126000Y-75791000D01*
X188478000Y-78071000D02*
X181522000Y-78071000D01*
X183759000Y-75871000D02*
X180150000Y-75871000D01*
X186630000Y-79191000D02*
X183370000Y-79191000D01*
X183759000Y-75431000D02*
X180035000Y-75431000D01*
X189050000Y-77431000D02*
X180950000Y-77431000D01*
X188640000Y-77911000D02*
X181360000Y-77911000D01*
X188957000Y-77551000D02*
X181043000Y-77551000D01*
X183759000Y-76991000D02*
X180653000Y-76991000D01*
X183759000Y-77111000D02*
X180727000Y-77111000D01*
X183759000Y-75671000D02*
X180093000Y-75671000D01*
X189020000Y-77471000D02*
X180980000Y-77471000D01*
X183759000Y-76111000D02*
X180232000Y-76111000D01*
X183759000Y-76191000D02*
X180262000Y-76191000D01*
X189657000Y-76391000D02*
X186241000Y-76391000D01*
X187875000Y-68870354D02*
X187875000Y-69870354D01*
X183759000Y-76591000D02*
X180436000Y-76591000D01*
X185599000Y-79431000D02*
X184401000Y-79431000D01*
X183759000Y-76471000D02*
X180379000Y-76471000D01*
X188753000Y-77791000D02*
X181247000Y-77791000D01*
X190035000Y-75030000D02*
X186241000Y-75030000D01*
X189850000Y-75871000D02*
X186241000Y-75871000D01*
X183759000Y-77271000D02*
X180834000Y-77271000D01*
X189621000Y-76471000D02*
X186241000Y-76471000D01*
X189997000Y-75271000D02*
X186241000Y-75271000D01*
X189273000Y-77111000D02*
X186241000Y-77111000D01*
X190062000Y-74790000D02*
X179938000Y-74790000D01*
X189504000Y-76711000D02*
X186241000Y-76711000D01*
X183759000Y-76351000D02*
X180326000Y-76351000D01*
X189138000Y-77311000D02*
X186241000Y-77311000D01*
X186378000Y-79271000D02*
X183622000Y-79271000D01*
X189110000Y-77351000D02*
X180890000Y-77351000D01*
X189811000Y-75991000D02*
X186241000Y-75991000D01*
X187770000Y-78631000D02*
X182230000Y-78631000D01*
X183759000Y-75911000D02*
X180163000Y-75911000D01*
X187709000Y-78671000D02*
X182291000Y-78671000D01*
X183759000Y-77311000D02*
X180862000Y-77311000D01*
X188375000Y-69370354D02*
X187375000Y-69370354D01*
X189974000Y-75391000D02*
X186241000Y-75391000D01*
X189938000Y-75551000D02*
X186241000Y-75551000D01*
X188206000Y-78311000D02*
X181794000Y-78311000D01*
X189754000Y-76151000D02*
X186241000Y-76151000D01*
X189907000Y-75671000D02*
X186241000Y-75671000D01*
X188892000Y-77631000D02*
X181108000Y-77631000D01*
X188989000Y-77511000D02*
X181011000Y-77511000D01*
X186846000Y-79111000D02*
X183154000Y-79111000D01*
X183759000Y-75471000D02*
X180044000Y-75471000D01*
X183759000Y-76231000D02*
X180277000Y-76231000D01*
X189956000Y-75471000D02*
X186241000Y-75471000D01*
X188925000Y-77591000D02*
X181075000Y-77591000D01*
X183759000Y-77191000D02*
X180779000Y-77191000D01*
X190077000Y-74550000D02*
X179923000Y-74550000D01*
X183759000Y-76551000D02*
X180416000Y-76551000D01*
X189723000Y-76231000D02*
X186241000Y-76231000D01*
X189371000Y-76951000D02*
X186241000Y-76951000D01*
X190080000Y-74390000D02*
X179920000Y-74390000D01*
X188561000Y-77991000D02*
X181439000Y-77991000D01*
X183759000Y-76031000D02*
X180203000Y-76031000D01*
X183759000Y-76151000D02*
X180246000Y-76151000D01*
X189707000Y-76271000D02*
X186241000Y-76271000D01*
X189440000Y-76831000D02*
X186241000Y-76831000D01*
X189584000Y-76551000D02*
X186241000Y-76551000D01*
X189965000Y-75431000D02*
X186241000Y-75431000D01*
X183759000Y-75711000D02*
X180103000Y-75711000D01*
X183759000Y-76711000D02*
X180496000Y-76711000D01*
X183759000Y-76271000D02*
X180293000Y-76271000D01*
X183759000Y-75071000D02*
X179970000Y-75071000D01*
X187510000Y-78791000D02*
X182490000Y-78791000D01*
X183759000Y-76791000D02*
X180538000Y-76791000D01*
X183759000Y-75991000D02*
X180189000Y-75991000D01*
X183759000Y-76671000D02*
X180475000Y-76671000D01*
X187945000Y-78511000D02*
X182055000Y-78511000D01*
X188392000Y-78151000D02*
X181608000Y-78151000D01*
X186062000Y-79351000D02*
X183938000Y-79351000D01*
X190030000Y-75071000D02*
X186241000Y-75071000D01*
X183759000Y-75751000D02*
X180115000Y-75751000D01*
X188858000Y-77671000D02*
X181142000Y-77671000D01*
X183759000Y-74950000D02*
X179955000Y-74950000D01*
X189824000Y-75951000D02*
X186241000Y-75951000D01*
X188347000Y-78191000D02*
X181653000Y-78191000D01*
X189247000Y-77151000D02*
X186241000Y-77151000D01*
X189462000Y-76791000D02*
X186241000Y-76791000D01*
X188436000Y-78111000D02*
X181564000Y-78111000D01*
X187830000Y-78591000D02*
X182170000Y-78591000D01*
X190058000Y-74830000D02*
X179942000Y-74830000D01*
X187889000Y-78551000D02*
X182111000Y-78551000D01*
X189194000Y-77231000D02*
X186241000Y-77231000D01*
X183759000Y-75191000D02*
X179989000Y-75191000D01*
X183759000Y-75511000D02*
X180053000Y-75511000D01*
X190070000Y-74670000D02*
X179930000Y-74670000D01*
X189221000Y-77191000D02*
X186241000Y-77191000D01*
X183759000Y-76431000D02*
X180361000Y-76431000D01*
X189483000Y-76751000D02*
X186241000Y-76751000D01*
X183759000Y-74870000D02*
X179946000Y-74870000D01*
X188520000Y-78031000D02*
X181480000Y-78031000D01*
X190120000Y-74350000D02*
G75*
G03*
X190120000Y-74350000I-5120000J0D01*
G01*
%TO.C,C3*%
X194259000Y-77592323D02*
X190450000Y-77592323D01*
X194259000Y-79913323D02*
X191306000Y-79913323D01*
X198656000Y-81033323D02*
X192344000Y-81033323D01*
X196878000Y-81953323D02*
X194122000Y-81953323D01*
X200579000Y-77152323D02*
X190421000Y-77152323D01*
X200524000Y-77793323D02*
X196741000Y-77793323D01*
X199061000Y-80673323D02*
X191939000Y-80673323D01*
X200447000Y-78193323D02*
X196741000Y-78193323D01*
X200139000Y-79113323D02*
X196741000Y-79113323D01*
X199721000Y-79873323D02*
X196741000Y-79873323D01*
X194259000Y-78473323D02*
X190626000Y-78473323D01*
X194259000Y-79233323D02*
X190916000Y-79233323D01*
X194259000Y-78993323D02*
X190810000Y-78993323D01*
X197346000Y-81793323D02*
X193654000Y-81793323D01*
X194259000Y-79473323D02*
X191038000Y-79473323D01*
X198892000Y-80833323D02*
X192108000Y-80833323D01*
X200550000Y-77592323D02*
X196741000Y-77592323D01*
X196362000Y-82073323D02*
X194638000Y-82073323D01*
X200157000Y-79073323D02*
X196741000Y-79073323D01*
X200374000Y-78473323D02*
X196741000Y-78473323D01*
X200385000Y-78433323D02*
X196741000Y-78433323D01*
X200350000Y-78553323D02*
X196741000Y-78553323D01*
X194259000Y-78353323D02*
X190593000Y-78353323D01*
X194259000Y-79033323D02*
X190826000Y-79033323D01*
X198270000Y-81313323D02*
X192730000Y-81313323D01*
X194259000Y-77993323D02*
X190510000Y-77993323D01*
X200223000Y-78913323D02*
X196741000Y-78913323D01*
X194259000Y-77793323D02*
X190476000Y-77793323D01*
X197625000Y-81673323D02*
X193375000Y-81673323D01*
X194259000Y-77833323D02*
X190482000Y-77833323D01*
X200238000Y-78873323D02*
X196741000Y-78873323D01*
X199798000Y-79753323D02*
X196741000Y-79753323D01*
X200580000Y-77032323D02*
X190420000Y-77032323D01*
X198754000Y-80953323D02*
X192246000Y-80953323D01*
X194259000Y-78033323D02*
X190518000Y-78033323D01*
X200418000Y-78313323D02*
X196741000Y-78313323D01*
X199392000Y-80313323D02*
X191608000Y-80313323D01*
X200064000Y-79273323D02*
X196741000Y-79273323D01*
X197939000Y-81513323D02*
X193061000Y-81513323D01*
X194259000Y-78633323D02*
X190676000Y-78633323D01*
X194259000Y-78433323D02*
X190615000Y-78433323D01*
X200482000Y-78033323D02*
X196741000Y-78033323D01*
X197444000Y-81753323D02*
X193556000Y-81753323D01*
X200362000Y-78513323D02*
X196741000Y-78513323D01*
X194259000Y-78673323D02*
X190689000Y-78673323D01*
X194259000Y-78833323D02*
X190746000Y-78833323D01*
X194259000Y-78793323D02*
X190732000Y-78793323D01*
X196099000Y-82113323D02*
X194901000Y-82113323D01*
X198500000Y-81153323D02*
X192500000Y-81153323D01*
X200324000Y-78633323D02*
X196741000Y-78633323D01*
X194259000Y-78553323D02*
X190650000Y-78553323D01*
X198936000Y-80793323D02*
X192064000Y-80793323D01*
X197709000Y-81633323D02*
X193291000Y-81633323D01*
X194259000Y-78873323D02*
X190762000Y-78873323D01*
X194259000Y-79153323D02*
X190879000Y-79153323D01*
X194259000Y-78513323D02*
X190638000Y-78513323D01*
X200565000Y-77432323D02*
X190435000Y-77432323D01*
X197130000Y-81873323D02*
X193870000Y-81873323D01*
X194259000Y-78393323D02*
X190603000Y-78393323D01*
X199550000Y-80113323D02*
X191450000Y-80113323D01*
X199520000Y-80153323D02*
X191480000Y-80153323D01*
X199962000Y-79473323D02*
X196741000Y-79473323D01*
X200103000Y-79193323D02*
X196741000Y-79193323D01*
X198330000Y-81273323D02*
X192670000Y-81273323D01*
X199179000Y-80553323D02*
X191821000Y-80553323D01*
X198209000Y-81353323D02*
X192791000Y-81353323D01*
X194259000Y-79113323D02*
X190861000Y-79113323D01*
X199940000Y-79513323D02*
X196741000Y-79513323D01*
X198606000Y-81073323D02*
X192394000Y-81073323D01*
X198079000Y-81433323D02*
X192921000Y-81433323D01*
X200490000Y-77993323D02*
X196741000Y-77993323D01*
X198978000Y-80753323D02*
X192022000Y-80753323D01*
X198389000Y-81233323D02*
X192611000Y-81233323D01*
X199610000Y-80033323D02*
X191390000Y-80033323D01*
X200545000Y-77632323D02*
X196741000Y-77632323D01*
X198445000Y-81193323D02*
X192555000Y-81193323D01*
X200465000Y-78113323D02*
X196741000Y-78113323D01*
X198875000Y-72052677D02*
X197875000Y-72052677D01*
X200121000Y-79153323D02*
X196741000Y-79153323D01*
X194259000Y-79513323D02*
X191060000Y-79513323D01*
X199823000Y-79713323D02*
X196741000Y-79713323D01*
X200207000Y-78953323D02*
X196741000Y-78953323D01*
X199917000Y-79553323D02*
X196741000Y-79553323D01*
X194259000Y-77953323D02*
X190503000Y-77953323D01*
X199324000Y-80393323D02*
X191676000Y-80393323D01*
X200535000Y-77712323D02*
X196741000Y-77712323D01*
X194259000Y-79633323D02*
X191129000Y-79633323D01*
X198706000Y-80993323D02*
X192294000Y-80993323D01*
X198375000Y-71552677D02*
X198375000Y-72552677D01*
X194259000Y-77753323D02*
X190470000Y-77753323D01*
X199253000Y-80473323D02*
X191747000Y-80473323D01*
X200297000Y-78713323D02*
X196741000Y-78713323D01*
X199773000Y-79793323D02*
X196741000Y-79793323D01*
X200190000Y-78993323D02*
X196741000Y-78993323D01*
X199425000Y-80273323D02*
X191575000Y-80273323D01*
X194259000Y-78073323D02*
X190526000Y-78073323D01*
X200397000Y-78393323D02*
X196741000Y-78393323D01*
X194259000Y-78233323D02*
X190562000Y-78233323D01*
X194259000Y-79833323D02*
X191253000Y-79833323D01*
X199638000Y-79993323D02*
X196741000Y-79993323D01*
X200254000Y-78833323D02*
X196741000Y-78833323D01*
X200268000Y-78793323D02*
X196741000Y-78793323D01*
X194259000Y-79593323D02*
X191105000Y-79593323D01*
X199216000Y-80513323D02*
X191784000Y-80513323D01*
X200558000Y-77512323D02*
X190442000Y-77512323D01*
X199580000Y-80073323D02*
X191420000Y-80073323D01*
X200428000Y-78273323D02*
X196741000Y-78273323D01*
X194259000Y-78273323D02*
X190572000Y-78273323D01*
X194259000Y-77672323D02*
X190460000Y-77672323D01*
X194259000Y-79873323D02*
X191279000Y-79873323D01*
X199020000Y-80713323D02*
X191980000Y-80713323D01*
X194259000Y-79273323D02*
X190936000Y-79273323D01*
X200575000Y-77272323D02*
X190425000Y-77272323D01*
X200311000Y-78673323D02*
X196741000Y-78673323D01*
X194259000Y-79713323D02*
X191177000Y-79713323D01*
X198801000Y-80913323D02*
X192199000Y-80913323D01*
X194259000Y-79353323D02*
X190975000Y-79353323D01*
X194259000Y-77552323D02*
X190446000Y-77552323D01*
X194259000Y-78193323D02*
X190553000Y-78193323D01*
X199895000Y-79593323D02*
X196741000Y-79593323D01*
X200497000Y-77953323D02*
X196741000Y-77953323D01*
X194259000Y-79313323D02*
X190955000Y-79313323D01*
X199457000Y-80233323D02*
X191543000Y-80233323D01*
X198847000Y-80873323D02*
X192153000Y-80873323D01*
X200511000Y-77873323D02*
X196741000Y-77873323D01*
X200530000Y-77753323D02*
X196741000Y-77753323D01*
X194259000Y-79993323D02*
X191362000Y-79993323D01*
X200570000Y-77352323D02*
X190430000Y-77352323D01*
X200518000Y-77833323D02*
X196741000Y-77833323D01*
X200474000Y-78073323D02*
X196741000Y-78073323D01*
X197537000Y-81713323D02*
X193463000Y-81713323D01*
X200554000Y-77552323D02*
X196741000Y-77552323D01*
X200456000Y-78153323D02*
X196741000Y-78153323D01*
X200562000Y-77472323D02*
X190438000Y-77472323D01*
X194259000Y-79953323D02*
X191334000Y-79953323D01*
X200540000Y-77672323D02*
X196741000Y-77672323D01*
X199871000Y-79633323D02*
X196741000Y-79633323D01*
X200283000Y-78753323D02*
X196741000Y-78753323D01*
X194259000Y-79553323D02*
X191083000Y-79553323D01*
X199747000Y-79833323D02*
X196741000Y-79833323D01*
X199983000Y-79433323D02*
X196741000Y-79433323D01*
X200337000Y-78593323D02*
X196741000Y-78593323D01*
X200025000Y-79353323D02*
X196741000Y-79353323D01*
X200578000Y-77192323D02*
X190422000Y-77192323D01*
X199847000Y-79673323D02*
X196741000Y-79673323D01*
X194259000Y-78753323D02*
X190717000Y-78753323D01*
X194259000Y-79393323D02*
X190996000Y-79393323D01*
X197865000Y-81553323D02*
X193135000Y-81553323D01*
X197789000Y-81593323D02*
X193211000Y-81593323D01*
X199101000Y-80633323D02*
X191899000Y-80633323D01*
X194259000Y-77913323D02*
X190496000Y-77913323D01*
X200580000Y-77112323D02*
X190420000Y-77112323D01*
X194259000Y-79433323D02*
X191017000Y-79433323D01*
X194259000Y-78593323D02*
X190663000Y-78593323D01*
X194259000Y-79193323D02*
X190897000Y-79193323D01*
X194259000Y-77712323D02*
X190465000Y-77712323D01*
X200004000Y-79393323D02*
X196741000Y-79393323D01*
X199140000Y-80593323D02*
X191860000Y-80593323D01*
X200407000Y-78353323D02*
X196741000Y-78353323D01*
X196730000Y-81993323D02*
X194270000Y-81993323D01*
X199694000Y-79913323D02*
X196741000Y-79913323D01*
X194259000Y-78713323D02*
X190703000Y-78713323D01*
X200084000Y-79233323D02*
X196741000Y-79233323D01*
X194259000Y-79073323D02*
X190843000Y-79073323D01*
X194259000Y-77632323D02*
X190455000Y-77632323D01*
X194259000Y-79673323D02*
X191153000Y-79673323D01*
X200438000Y-78233323D02*
X196741000Y-78233323D01*
X198554000Y-81113323D02*
X192446000Y-81113323D01*
X194259000Y-77873323D02*
X190489000Y-77873323D01*
X197010000Y-81913323D02*
X193990000Y-81913323D01*
X197242000Y-81833323D02*
X193758000Y-81833323D01*
X199289000Y-80433323D02*
X191711000Y-80433323D01*
X200577000Y-77232323D02*
X190423000Y-77232323D01*
X200045000Y-79313323D02*
X196741000Y-79313323D01*
X194259000Y-78913323D02*
X190777000Y-78913323D01*
X200573000Y-77312323D02*
X190427000Y-77312323D01*
X200568000Y-77392323D02*
X190432000Y-77392323D01*
X200174000Y-79033323D02*
X196741000Y-79033323D01*
X199489000Y-80193323D02*
X191511000Y-80193323D01*
X200504000Y-77913323D02*
X196741000Y-77913323D01*
X194259000Y-78153323D02*
X190544000Y-78153323D01*
X194259000Y-78113323D02*
X190535000Y-78113323D01*
X194259000Y-79753323D02*
X191202000Y-79753323D01*
X198010000Y-81473323D02*
X192990000Y-81473323D01*
X194259000Y-79793323D02*
X191227000Y-79793323D01*
X198145000Y-81393323D02*
X192855000Y-81393323D01*
X199666000Y-79953323D02*
X196741000Y-79953323D01*
X199358000Y-80353323D02*
X191642000Y-80353323D01*
X200580000Y-77072323D02*
X190420000Y-77072323D01*
X194259000Y-78313323D02*
X190582000Y-78313323D01*
X196562000Y-82033323D02*
X194438000Y-82033323D01*
X194259000Y-78953323D02*
X190793000Y-78953323D01*
X200620000Y-77032323D02*
G75*
G03*
X200620000Y-77032323I-5120000J0D01*
G01*
%TO.C,SW1*%
X203900000Y-88600000D02*
X203300000Y-88600000D01*
X205300000Y-88600000D02*
X205500000Y-88600000D01*
X199900000Y-88600000D02*
X199700000Y-88600000D01*
X205500000Y-88600000D02*
X205500000Y-82800000D01*
X205500000Y-82800000D02*
X205300000Y-82800000D01*
X201900000Y-82800000D02*
X201300000Y-82800000D01*
X201900000Y-88600000D02*
X201300000Y-88600000D01*
X203300000Y-82800000D02*
X203900000Y-82800000D01*
X199900000Y-82800000D02*
X199700000Y-82800000D01*
X199700000Y-82800000D02*
X199700000Y-88600000D01*
%TO.C,R2*%
X187270000Y-58830000D02*
X180730000Y-58830000D01*
X188040000Y-60200000D02*
X187270000Y-60200000D01*
X180730000Y-58830000D02*
X180730000Y-61570000D01*
X179960000Y-60200000D02*
X180730000Y-60200000D01*
X180730000Y-61570000D02*
X187270000Y-61570000D01*
X187270000Y-61570000D02*
X187270000Y-58830000D01*
%TO.C,J3*%
X189317500Y-52992500D02*
X189317500Y-52642500D01*
X192067500Y-52992500D02*
X192817500Y-52992500D01*
X187507500Y-50682500D02*
X187507500Y-58152500D01*
X188567500Y-52992500D02*
X189317500Y-52992500D01*
X192317500Y-52642500D02*
X192067500Y-51642500D01*
X194317500Y-52992500D02*
X195067500Y-52992500D01*
X188567500Y-51642500D02*
X191567500Y-51642500D01*
X187117500Y-51542500D02*
X187117500Y-50292500D01*
X192817500Y-52992500D02*
X192817500Y-52642500D01*
X192067500Y-51642500D02*
X195067500Y-51642500D01*
X191567500Y-51642500D02*
X191317500Y-52642500D01*
X192817500Y-57292500D02*
X192067500Y-57292500D01*
X191317500Y-52642500D02*
X190817500Y-52642500D01*
X187117500Y-50292500D02*
X189117500Y-50292500D01*
X190817500Y-52642500D02*
X190817500Y-52992500D01*
X196127500Y-58152500D02*
X196127500Y-50682500D01*
X188567500Y-57292500D02*
X188567500Y-52992500D01*
X189317500Y-52642500D02*
X188817500Y-52642500D01*
X192817500Y-52642500D02*
X192317500Y-52642500D01*
X191567500Y-57292500D02*
X190817500Y-57292500D01*
X195067500Y-52992500D02*
X195067500Y-57292500D01*
X188817500Y-52642500D02*
X188567500Y-51642500D01*
X195067500Y-51642500D02*
X194817500Y-52642500D01*
X192067500Y-57292500D02*
X192067500Y-52992500D01*
X191567500Y-52992500D02*
X191567500Y-57292500D01*
X194817500Y-52642500D02*
X194317500Y-52642500D01*
X194317500Y-52642500D02*
X194317500Y-52992500D01*
X190817500Y-52992500D02*
X191567500Y-52992500D01*
X196127500Y-50682500D02*
X187507500Y-50682500D01*
X189317500Y-57292500D02*
X188567500Y-57292500D01*
X187507500Y-58152500D02*
X196127500Y-58152500D01*
X195067500Y-57292500D02*
X194317500Y-57292500D01*
X194317147Y-57292345D02*
G75*
G03*
X192817500Y-57292500I-749647J-1700155D01*
G01*
X190817147Y-57292345D02*
G75*
G03*
X189317500Y-57292500I-749647J-1700155D01*
G01*
%TD*%
M02*
