%TF.GenerationSoftware,KiCad,Pcbnew,(6.0.7)*%
%TF.CreationDate,2022-08-25T15:43:46-04:00*%
%TF.ProjectId,chiller_interlock,6368696c-6c65-4725-9f69-6e7465726c6f,rev?*%
%TF.SameCoordinates,Original*%
%TF.FileFunction,Copper,L2,Bot*%
%TF.FilePolarity,Positive*%
%FSLAX46Y46*%
G04 Gerber Fmt 4.6, Leading zero omitted, Abs format (unit mm)*
G04 Created by KiCad (PCBNEW (6.0.7)) date 2022-08-25 15:43:46*
%MOMM*%
%LPD*%
G01*
G04 APERTURE LIST*
G04 Aperture macros list*
%AMRoundRect*
0 Rectangle with rounded corners*
0 $1 Rounding radius*
0 $2 $3 $4 $5 $6 $7 $8 $9 X,Y pos of 4 corners*
0 Add a 4 corners polygon primitive as box body*
4,1,4,$2,$3,$4,$5,$6,$7,$8,$9,$2,$3,0*
0 Add four circle primitives for the rounded corners*
1,1,$1+$1,$2,$3*
1,1,$1+$1,$4,$5*
1,1,$1+$1,$6,$7*
1,1,$1+$1,$8,$9*
0 Add four rect primitives between the rounded corners*
20,1,$1+$1,$2,$3,$4,$5,0*
20,1,$1+$1,$4,$5,$6,$7,0*
20,1,$1+$1,$6,$7,$8,$9,0*
20,1,$1+$1,$8,$9,$2,$3,0*%
%AMHorizOval*
0 Thick line with rounded ends*
0 $1 width*
0 $2 $3 position (X,Y) of the first rounded end (center of the circle)*
0 $4 $5 position (X,Y) of the second rounded end (center of the circle)*
0 Add line between two ends*
20,1,$1,$2,$3,$4,$5,0*
0 Add two circle primitives to create the rounded ends*
1,1,$1,$2,$3*
1,1,$1,$4,$5*%
G04 Aperture macros list end*
%TA.AperFunction,Profile*%
%ADD10C,0.100000*%
%TD*%
%TA.AperFunction,ComponentPad*%
%ADD11C,1.600000*%
%TD*%
%TA.AperFunction,ComponentPad*%
%ADD12HorizOval,1.600000X0.000000X0.000000X0.000000X0.000000X0*%
%TD*%
%TA.AperFunction,ComponentPad*%
%ADD13O,1.600000X2.500000*%
%TD*%
%TA.AperFunction,ComponentPad*%
%ADD14O,3.500000X7.000000*%
%TD*%
%TA.AperFunction,ComponentPad*%
%ADD15C,7.400000*%
%TD*%
%TA.AperFunction,ComponentPad*%
%ADD16O,1.200000X2.000000*%
%TD*%
%TA.AperFunction,ComponentPad*%
%ADD17C,1.400000*%
%TD*%
%TA.AperFunction,ComponentPad*%
%ADD18RoundRect,0.250000X0.650000X1.550000X-0.650000X1.550000X-0.650000X-1.550000X0.650000X-1.550000X0*%
%TD*%
%TA.AperFunction,ComponentPad*%
%ADD19O,1.800000X3.600000*%
%TD*%
%TA.AperFunction,ComponentPad*%
%ADD20R,2.000000X2.000000*%
%TD*%
%TA.AperFunction,ComponentPad*%
%ADD21C,2.000000*%
%TD*%
%TA.AperFunction,ComponentPad*%
%ADD22HorizOval,1.600000X0.000000X0.000000X0.000000X0.000000X0*%
%TD*%
%TA.AperFunction,ComponentPad*%
%ADD23RoundRect,0.250000X-0.650000X-1.550000X0.650000X-1.550000X0.650000X1.550000X-0.650000X1.550000X0*%
%TD*%
%TA.AperFunction,ComponentPad*%
%ADD24O,1.600000X1.600000*%
%TD*%
%TA.AperFunction,SMDPad,CuDef*%
%ADD25R,1.600000X1.300000*%
%TD*%
%TA.AperFunction,SMDPad,CuDef*%
%ADD26R,1.600000X2.000000*%
%TD*%
%TA.AperFunction,SMDPad,CuDef*%
%ADD27RoundRect,0.150000X-0.512500X-0.150000X0.512500X-0.150000X0.512500X0.150000X-0.512500X0.150000X0*%
%TD*%
%TA.AperFunction,SMDPad,CuDef*%
%ADD28RoundRect,0.150000X-0.150000X0.825000X-0.150000X-0.825000X0.150000X-0.825000X0.150000X0.825000X0*%
%TD*%
%TA.AperFunction,ViaPad*%
%ADD29C,0.800000*%
%TD*%
%TA.AperFunction,Conductor*%
%ADD30C,1.270000*%
%TD*%
%TA.AperFunction,Conductor*%
%ADD31C,0.250000*%
%TD*%
%TA.AperFunction,Conductor*%
%ADD32C,0.500000*%
%TD*%
G04 APERTURE END LIST*
D10*
X168000000Y-91000000D02*
X215000000Y-91000000D01*
X215000000Y-50000000D02*
X168000000Y-50000000D01*
X168000000Y-50000000D02*
X168000000Y-91000000D01*
X215000000Y-91000000D02*
X215000000Y-50000000D01*
D11*
%TO.P,R3,1*%
%TO.N,Delayed_Interlock*%
X188799409Y-63660000D03*
D12*
%TO.P,R3,2*%
%TO.N,Net-(R3-Pad2)*%
X180000591Y-68740000D03*
%TD*%
D13*
%TO.P,J4,1,In*%
%TO.N,TTL_Out*%
X207000000Y-63250000D03*
D14*
%TO.P,J4,2,Ext*%
%TO.N,GND*%
X212080000Y-58170000D03*
D13*
X204460000Y-63250000D03*
D14*
X201920000Y-58170000D03*
%TD*%
D15*
%TO.P,J5,1,Pin_1*%
%TO.N,GND*%
X210750000Y-86750000D03*
%TD*%
D16*
%TO.P,U1,1,VOUT*%
%TO.N,6V*%
X186010000Y-87800000D03*
%TO.P,U1,2,GND*%
%TO.N,GND*%
X183470000Y-87800000D03*
%TO.P,U1,3,VIN*%
%TO.N,+24V*%
X180930000Y-87800000D03*
%TO.P,U1,4,SHDN*%
%TO.N,unconnected-(U1-Pad4)*%
X178390000Y-87800000D03*
%TD*%
D17*
%TO.P,K1,1*%
%TO.N,Net-(K1-Pad1)*%
X211800000Y-74160000D03*
%TO.P,K1,2*%
%TO.N,GND*%
X208600000Y-74160000D03*
%TO.P,K1,3*%
%TO.N,TTL_Out*%
X206400000Y-74160000D03*
%TO.P,K1,4*%
%TO.N,5.5V*%
X204200000Y-74160000D03*
%TO.P,K1,5*%
%TO.N,+24V*%
X204200000Y-79240000D03*
%TO.P,K1,6*%
%TO.N,Net-(J3-Pad1)*%
X206400000Y-79240000D03*
%TO.P,K1,7*%
%TO.N,unconnected-(K1-Pad7)*%
X208600000Y-79240000D03*
%TO.P,K1,8*%
%TO.N,Coil-*%
X211800000Y-79240000D03*
%TD*%
D18*
%TO.P,J2,1,Pin_1*%
%TO.N,TTL_Out*%
X195132500Y-86057500D03*
D19*
%TO.P,J2,2,Pin_2*%
%TO.N,Delayed_Interlock*%
X191632500Y-86057500D03*
%TD*%
D20*
%TO.P,C2,1*%
%TO.N,+24V*%
X171982323Y-76000000D03*
D21*
%TO.P,C2,2*%
%TO.N,GND*%
X175482323Y-76000000D03*
%TD*%
D11*
%TO.P,R1,1*%
%TO.N,Delayed_Interlock*%
X192882133Y-60597177D03*
D22*
%TO.P,R1,2*%
%TO.N,GND*%
X191117868Y-70602824D03*
%TD*%
D23*
%TO.P,J1,1,Pin_1*%
%TO.N,+24V*%
X179467500Y-55042500D03*
D19*
%TO.P,J1,2,Pin_2*%
%TO.N,GND*%
X182967500Y-55042500D03*
%TD*%
D20*
%TO.P,C4,1*%
%TO.N,+24V*%
X171982323Y-65200000D03*
D21*
%TO.P,C4,2*%
%TO.N,GND*%
X175482323Y-65200000D03*
%TD*%
D15*
%TO.P,J7,1,Pin_1*%
%TO.N,GND*%
X172200000Y-86750000D03*
%TD*%
D11*
%TO.P,R4,1*%
%TO.N,Net-(K1-Pad1)*%
X196800000Y-60220000D03*
D24*
%TO.P,R4,2*%
%TO.N,6V*%
X196800000Y-70380000D03*
%TD*%
D20*
%TO.P,C1,1*%
%TO.N,Delayed_Interlock*%
X185000000Y-72600000D03*
D21*
%TO.P,C1,2*%
%TO.N,GND*%
X185000000Y-76100000D03*
%TD*%
D20*
%TO.P,C3,1*%
%TO.N,Delayed_Interlock*%
X195500000Y-75282323D03*
D21*
%TO.P,C3,2*%
%TO.N,GND*%
X195500000Y-78782323D03*
%TD*%
D11*
%TO.P,R2,1*%
%TO.N,Threshold*%
X189080000Y-60200000D03*
D24*
%TO.P,R2,2*%
%TO.N,Net-(R2-Pad2)*%
X178920000Y-60200000D03*
%TD*%
D15*
%TO.P,J6,1,Pin_1*%
%TO.N,GND*%
X172200000Y-54200000D03*
%TD*%
D23*
%TO.P,J3,1,Pin_1*%
%TO.N,Net-(J3-Pad1)*%
X190067500Y-55042500D03*
D19*
%TO.P,J3,2,Pin_2*%
%TO.N,GND*%
X193567500Y-55042500D03*
%TD*%
D25*
%TO.P,RV1,1,1*%
%TO.N,5.5V*%
X188400000Y-81950000D03*
D26*
%TO.P,RV1,2,2*%
%TO.N,Threshold*%
X191300000Y-80700000D03*
D25*
%TO.P,RV1,3,3*%
%TO.N,GND*%
X188400000Y-79450000D03*
%TD*%
D27*
%TO.P,U2,1,VIN*%
%TO.N,6V*%
X177062500Y-82150000D03*
%TO.P,U2,2,GND*%
%TO.N,GND*%
X177062500Y-81200000D03*
%TO.P,U2,3,EN*%
%TO.N,6V*%
X177062500Y-80250000D03*
%TO.P,U2,4,ADJ*%
%TO.N,Net-(RV2-Pad2)*%
X179337500Y-80250000D03*
%TO.P,U2,5,VOUT*%
%TO.N,5.5V*%
X179337500Y-82150000D03*
%TD*%
D28*
%TO.P,U3,1,GND*%
%TO.N,GND*%
X178295000Y-71925000D03*
%TO.P,U3,2,+*%
%TO.N,Net-(R2-Pad2)*%
X179565000Y-71925000D03*
%TO.P,U3,3,-*%
%TO.N,Net-(R3-Pad2)*%
X180835000Y-71925000D03*
%TO.P,U3,4,V-*%
%TO.N,GND*%
X182105000Y-71925000D03*
%TO.P,U3,5,BAL*%
%TO.N,unconnected-(U3-Pad5)*%
X182105000Y-76875000D03*
%TO.P,U3,6,STRB*%
%TO.N,unconnected-(U3-Pad6)*%
X180835000Y-76875000D03*
%TO.P,U3,7*%
%TO.N,Coil-*%
X179565000Y-76875000D03*
%TO.P,U3,8,V+*%
%TO.N,6V*%
X178295000Y-76875000D03*
%TD*%
D25*
%TO.P,RV2,1,1*%
%TO.N,GND*%
X185650000Y-80150000D03*
D26*
%TO.P,RV2,2,2*%
%TO.N,Net-(RV2-Pad2)*%
X182750000Y-81400000D03*
D25*
%TO.P,RV2,3,3*%
%TO.N,5.5V*%
X185650000Y-82650000D03*
%TD*%
D29*
%TO.N,GND*%
X207200000Y-72000000D03*
X207200000Y-68000000D03*
X205800000Y-76600000D03*
X175787924Y-80912076D03*
%TO.N,Coil-*%
X202600000Y-84200000D03*
%TD*%
D30*
%TO.N,GND*%
X204460000Y-62770000D02*
X204460000Y-63250000D01*
D31*
X204460000Y-65260000D02*
X204460000Y-63250000D01*
X185650000Y-80150000D02*
X185650000Y-76750000D01*
X185650000Y-80150000D02*
X187700000Y-80150000D01*
X187700000Y-80150000D02*
X188400000Y-79450000D01*
X182105000Y-73205000D02*
X185000000Y-76100000D01*
X178295000Y-72301751D02*
X179218249Y-73225000D01*
X177062500Y-81200000D02*
X176075848Y-81200000D01*
X182105000Y-72301751D02*
X182105000Y-71925000D01*
D30*
X201920000Y-58170000D02*
X212080000Y-58170000D01*
D31*
X206160000Y-76600000D02*
X205800000Y-76600000D01*
D30*
X212080000Y-58170000D02*
X209060000Y-58170000D01*
D31*
X181181751Y-73225000D02*
X182105000Y-72301751D01*
X204460000Y-69822323D02*
X195500000Y-78782323D01*
X207200000Y-72760000D02*
X207200000Y-72000000D01*
X208600000Y-74160000D02*
X207200000Y-72760000D01*
X190225000Y-82025000D02*
X189525000Y-81325000D01*
X207200000Y-68000000D02*
X204460000Y-65260000D01*
X178295000Y-71925000D02*
X178295000Y-72301751D01*
X185650000Y-76750000D02*
X185000000Y-76100000D01*
X189525000Y-81325000D02*
X189525000Y-80575000D01*
D30*
X201920000Y-58170000D02*
X201920000Y-60710000D01*
D31*
X189525000Y-80575000D02*
X188400000Y-79450000D01*
X176075848Y-81200000D02*
X175787924Y-80912076D01*
X195500000Y-78782323D02*
X192257323Y-82025000D01*
D30*
X172200000Y-86750000D02*
X172200000Y-79282323D01*
D31*
X204460000Y-63250000D02*
X204460000Y-69822323D01*
X208600000Y-67390000D02*
X204460000Y-63250000D01*
D30*
X201920000Y-60710000D02*
X204460000Y-63250000D01*
D31*
X208600000Y-74160000D02*
X208600000Y-67390000D01*
D30*
X172200000Y-79282323D02*
X175482323Y-76000000D01*
D31*
X208600000Y-74160000D02*
X206160000Y-76600000D01*
X192257323Y-82025000D02*
X190225000Y-82025000D01*
X179218249Y-73225000D02*
X181181751Y-73225000D01*
X182105000Y-71925000D02*
X182105000Y-73205000D01*
D30*
X209060000Y-58170000D02*
X204460000Y-62770000D01*
D31*
%TO.N,5.5V*%
X179987500Y-82800000D02*
X179337500Y-82150000D01*
X188400000Y-81950000D02*
X186350000Y-81950000D01*
X188925000Y-82475000D02*
X195885000Y-82475000D01*
X185500000Y-82800000D02*
X179987500Y-82800000D01*
X186350000Y-81950000D02*
X185650000Y-82650000D01*
X195885000Y-82475000D02*
X204200000Y-74160000D01*
X188400000Y-81950000D02*
X188925000Y-82475000D01*
X185650000Y-82650000D02*
X185500000Y-82800000D01*
%TO.N,Coil-*%
X202600000Y-84900000D02*
X202600000Y-84200000D01*
X175062924Y-78337076D02*
X175062924Y-83263103D01*
X177400000Y-89058602D02*
X178141398Y-89800000D01*
X179565000Y-76875000D02*
X179565000Y-76498249D01*
X179565000Y-76498249D02*
X178641751Y-75575000D01*
X175062924Y-83263103D02*
X177400000Y-85600179D01*
X197700000Y-89800000D02*
X202600000Y-84900000D01*
X177825000Y-75575000D02*
X175062924Y-78337076D01*
X177400000Y-85600179D02*
X177400000Y-89058602D01*
X178141398Y-89800000D02*
X197700000Y-89800000D01*
X178641751Y-75575000D02*
X177825000Y-75575000D01*
%TO.N,Threshold*%
X189924409Y-79324409D02*
X189924409Y-61044409D01*
X191300000Y-80700000D02*
X189924409Y-79324409D01*
X189924409Y-61044409D02*
X189080000Y-60200000D01*
%TO.N,Net-(R2-Pad2)*%
X178120001Y-60999999D02*
X178120001Y-69920001D01*
X178920000Y-60200000D02*
X178120001Y-60999999D01*
X179565000Y-71365000D02*
X179565000Y-71925000D01*
X178120001Y-69920001D02*
X179565000Y-71365000D01*
%TO.N,Net-(R3-Pad2)*%
X180835000Y-69574409D02*
X180835000Y-71925000D01*
X180000591Y-68740000D02*
X180835000Y-69574409D01*
%TO.N,6V*%
X177446751Y-80250000D02*
X177062500Y-80250000D01*
X178100000Y-81496751D02*
X178100000Y-80903249D01*
X177062500Y-82150000D02*
X181387500Y-86475000D01*
X177446751Y-82150000D02*
X178100000Y-81496751D01*
X184685000Y-86475000D02*
X186010000Y-87800000D01*
X178100000Y-80903249D02*
X177446751Y-80250000D01*
X177062500Y-80250000D02*
X177062500Y-78107500D01*
X177062500Y-82150000D02*
X177446751Y-82150000D01*
X181387500Y-86475000D02*
X184685000Y-86475000D01*
X177062500Y-78107500D02*
X178295000Y-76875000D01*
D32*
%TO.N,Net-(RV2-Pad2)*%
X179337500Y-80250000D02*
X181600000Y-80250000D01*
X181600000Y-80250000D02*
X182750000Y-81400000D01*
%TD*%
%TA.AperFunction,Conductor*%
%TO.N,GND*%
G36*
X210924431Y-50528502D02*
G01*
X210945405Y-50545405D01*
X214454595Y-54054595D01*
X214488621Y-54116907D01*
X214491500Y-54143690D01*
X214491500Y-55734752D01*
X214471498Y-55802873D01*
X214417842Y-55849366D01*
X214347568Y-55859470D01*
X214282988Y-55829976D01*
X214246365Y-55775773D01*
X214167591Y-55546995D01*
X214164350Y-55539284D01*
X214033787Y-55278556D01*
X214029566Y-55271362D01*
X213865659Y-55030180D01*
X213860526Y-55023610D01*
X213666161Y-54806225D01*
X213660205Y-54800392D01*
X213438797Y-54610622D01*
X213432116Y-54605624D01*
X213187563Y-54446809D01*
X213180273Y-54442735D01*
X212916868Y-54317662D01*
X212909100Y-54314586D01*
X212631469Y-54225448D01*
X212623363Y-54223427D01*
X212351830Y-54174571D01*
X212338571Y-54176003D01*
X212334000Y-54190613D01*
X212334000Y-62146367D01*
X212338295Y-62160996D01*
X212350272Y-62163058D01*
X212422053Y-62156778D01*
X212430292Y-62155503D01*
X212714880Y-62091890D01*
X212722877Y-62089536D01*
X212996534Y-61988850D01*
X213004172Y-61985450D01*
X213262115Y-61849451D01*
X213269213Y-61845084D01*
X213506905Y-61676165D01*
X213513372Y-61670892D01*
X213726639Y-61472017D01*
X213732351Y-61465933D01*
X213917437Y-61240607D01*
X213922292Y-61233826D01*
X214075958Y-60985987D01*
X214079871Y-60978627D01*
X214199404Y-60712654D01*
X214202314Y-60704831D01*
X214244751Y-60562480D01*
X214283381Y-60502913D01*
X214348083Y-60473687D01*
X214418315Y-60484080D01*
X214471778Y-60530794D01*
X214491500Y-60598477D01*
X214491500Y-84351160D01*
X214471498Y-84419281D01*
X214417842Y-84465774D01*
X214347568Y-84475878D01*
X214282988Y-84446384D01*
X214260546Y-84420879D01*
X214257331Y-84416039D01*
X214016722Y-84089686D01*
X214012842Y-84084929D01*
X213911935Y-83972859D01*
X213898413Y-83964528D01*
X213898337Y-83964529D01*
X213889053Y-83970158D01*
X211109210Y-86750000D01*
X210750000Y-87109210D01*
X207971055Y-89888156D01*
X207963441Y-89902100D01*
X207963496Y-89902879D01*
X207968850Y-89910929D01*
X208017180Y-89956312D01*
X208021858Y-89960294D01*
X208343106Y-90207688D01*
X208348149Y-90211193D01*
X208424090Y-90258646D01*
X208471260Y-90311707D01*
X208482255Y-90381847D01*
X208453584Y-90446797D01*
X208394350Y-90485936D01*
X208357320Y-90491500D01*
X198213200Y-90491500D01*
X198145079Y-90471498D01*
X198098586Y-90417842D01*
X198088482Y-90347568D01*
X198117976Y-90282988D01*
X198126949Y-90273648D01*
X198130694Y-90270132D01*
X198137107Y-90265472D01*
X198165298Y-90231395D01*
X198173288Y-90222616D01*
X201701639Y-86694265D01*
X206537444Y-86694265D01*
X206551593Y-87099461D01*
X206552108Y-87105595D01*
X206605734Y-87507494D01*
X206606841Y-87513531D01*
X206699429Y-87908283D01*
X206701123Y-87914193D01*
X206831789Y-88298021D01*
X206834057Y-88303746D01*
X207001546Y-88672974D01*
X207004367Y-88678464D01*
X207207094Y-89029596D01*
X207210414Y-89034749D01*
X207446454Y-89364446D01*
X207450263Y-89369251D01*
X207588298Y-89526929D01*
X207601512Y-89535327D01*
X207611307Y-89529482D01*
X210377978Y-86762812D01*
X210385592Y-86748868D01*
X210385461Y-86747035D01*
X210381210Y-86740420D01*
X207612374Y-83971585D01*
X207598430Y-83963971D01*
X207597884Y-83964010D01*
X207589526Y-83969611D01*
X207524692Y-84039625D01*
X207520734Y-84044342D01*
X207275599Y-84367297D01*
X207272121Y-84372375D01*
X207059668Y-84717713D01*
X207056703Y-84723106D01*
X206878966Y-85087521D01*
X206876540Y-85093180D01*
X206735208Y-85473211D01*
X206733350Y-85479068D01*
X206629775Y-85871085D01*
X206628500Y-85877085D01*
X206563674Y-86277331D01*
X206562987Y-86283452D01*
X206537530Y-86688089D01*
X206537444Y-86694265D01*
X201701639Y-86694265D01*
X202992247Y-85403657D01*
X203000537Y-85396113D01*
X203007018Y-85392000D01*
X203053659Y-85342332D01*
X203056413Y-85339491D01*
X203076134Y-85319770D01*
X203078612Y-85316575D01*
X203086318Y-85307553D01*
X203093470Y-85299937D01*
X203116586Y-85275321D01*
X203126346Y-85257568D01*
X203137199Y-85241045D01*
X203144753Y-85231306D01*
X203149613Y-85225041D01*
X203167176Y-85184457D01*
X203172383Y-85173827D01*
X203193695Y-85135060D01*
X203195666Y-85127383D01*
X203195668Y-85127378D01*
X203198732Y-85115442D01*
X203205138Y-85096730D01*
X203205957Y-85094839D01*
X203213181Y-85078145D01*
X203217478Y-85051019D01*
X203220097Y-85034481D01*
X203222504Y-85022860D01*
X203231528Y-84987711D01*
X203231528Y-84987710D01*
X203233500Y-84980030D01*
X203233500Y-84959769D01*
X203235051Y-84940058D01*
X203236979Y-84927885D01*
X203238219Y-84920057D01*
X203237338Y-84910740D01*
X203237553Y-84909634D01*
X203237722Y-84904242D01*
X203238592Y-84904269D01*
X203250840Y-84841041D01*
X203269139Y-84814577D01*
X203339040Y-84736944D01*
X203434527Y-84571556D01*
X203493542Y-84389928D01*
X203495909Y-84367412D01*
X203512814Y-84206565D01*
X203513504Y-84200000D01*
X203496648Y-84039625D01*
X203494232Y-84016635D01*
X203494232Y-84016633D01*
X203493542Y-84010072D01*
X203434527Y-83828444D01*
X203429205Y-83819225D01*
X203360491Y-83700210D01*
X203339040Y-83663056D01*
X203293753Y-83612759D01*
X203283742Y-83601641D01*
X207964661Y-83601641D01*
X207970411Y-83611200D01*
X210737188Y-86377978D01*
X210751132Y-86385592D01*
X210752965Y-86385461D01*
X210759580Y-86381210D01*
X213528030Y-83612759D01*
X213535644Y-83598815D01*
X213535622Y-83598505D01*
X213529769Y-83589836D01*
X213437789Y-83505846D01*
X213433051Y-83501927D01*
X213108391Y-83259050D01*
X213103285Y-83255606D01*
X212756468Y-83045566D01*
X212751072Y-83042649D01*
X212385404Y-82867449D01*
X212379737Y-82865067D01*
X211998739Y-82726396D01*
X211992851Y-82724574D01*
X211600140Y-82623742D01*
X211594117Y-82622506D01*
X211193415Y-82560474D01*
X211187328Y-82559834D01*
X210782483Y-82537200D01*
X210776331Y-82537157D01*
X210371238Y-82554135D01*
X210365112Y-82554692D01*
X209963601Y-82611121D01*
X209957548Y-82612276D01*
X209563463Y-82707615D01*
X209557566Y-82709351D01*
X209174669Y-82842690D01*
X209168956Y-82844998D01*
X208800896Y-83015065D01*
X208795442Y-83017917D01*
X208445731Y-83223091D01*
X208440583Y-83226460D01*
X208112552Y-83464788D01*
X208107782Y-83468623D01*
X207973037Y-83588255D01*
X207964661Y-83601641D01*
X203283742Y-83601641D01*
X203215675Y-83526045D01*
X203215674Y-83526044D01*
X203211253Y-83521134D01*
X203096105Y-83437474D01*
X203062094Y-83412763D01*
X203062093Y-83412762D01*
X203056752Y-83408882D01*
X203050724Y-83406198D01*
X203050722Y-83406197D01*
X202888319Y-83333891D01*
X202888318Y-83333891D01*
X202882288Y-83331206D01*
X202787975Y-83311159D01*
X202701944Y-83292872D01*
X202701939Y-83292872D01*
X202695487Y-83291500D01*
X202504513Y-83291500D01*
X202498061Y-83292872D01*
X202498056Y-83292872D01*
X202412025Y-83311159D01*
X202317712Y-83331206D01*
X202311682Y-83333891D01*
X202311681Y-83333891D01*
X202149278Y-83406197D01*
X202149276Y-83406198D01*
X202143248Y-83408882D01*
X202137907Y-83412762D01*
X202137906Y-83412763D01*
X202103895Y-83437474D01*
X201988747Y-83521134D01*
X201984326Y-83526044D01*
X201984325Y-83526045D01*
X201906248Y-83612759D01*
X201860960Y-83663056D01*
X201839509Y-83700210D01*
X201770796Y-83819225D01*
X201765473Y-83828444D01*
X201706458Y-84010072D01*
X201705768Y-84016633D01*
X201705768Y-84016635D01*
X201703352Y-84039625D01*
X201686496Y-84200000D01*
X201687186Y-84206565D01*
X201704092Y-84367412D01*
X201706458Y-84389928D01*
X201765473Y-84571556D01*
X201814886Y-84657141D01*
X201831623Y-84726134D01*
X201808403Y-84793226D01*
X201794861Y-84809234D01*
X197474500Y-89129595D01*
X197412188Y-89163621D01*
X197385405Y-89166500D01*
X186914380Y-89166500D01*
X186846259Y-89146498D01*
X186799766Y-89092842D01*
X186789662Y-89022568D01*
X186823362Y-88953369D01*
X186879736Y-88894480D01*
X186883881Y-88890150D01*
X186998620Y-88712452D01*
X187077686Y-88516263D01*
X187118228Y-88308663D01*
X187118500Y-88303101D01*
X187118500Y-87347154D01*
X187103452Y-87189434D01*
X187053016Y-87017512D01*
X190224000Y-87017512D01*
X190239117Y-87195675D01*
X190240457Y-87200839D01*
X190240458Y-87200843D01*
X190278434Y-87347154D01*
X190299168Y-87427040D01*
X190301360Y-87431906D01*
X190394918Y-87639596D01*
X190397343Y-87644980D01*
X190530834Y-87843262D01*
X190695826Y-88016218D01*
X190887600Y-88158902D01*
X190892351Y-88161318D01*
X190892355Y-88161320D01*
X191078244Y-88255830D01*
X191100672Y-88267233D01*
X191203139Y-88299050D01*
X191323849Y-88336532D01*
X191323855Y-88336533D01*
X191328952Y-88338116D01*
X191456383Y-88355006D01*
X191560627Y-88368823D01*
X191560631Y-88368823D01*
X191565911Y-88369523D01*
X191571240Y-88369323D01*
X191571241Y-88369323D01*
X191669009Y-88365652D01*
X191804774Y-88360555D01*
X191891684Y-88342319D01*
X192033484Y-88312567D01*
X192033487Y-88312566D01*
X192038711Y-88311470D01*
X192261033Y-88223671D01*
X192465383Y-88099668D01*
X192512854Y-88058475D01*
X192641886Y-87946507D01*
X192641888Y-87946505D01*
X192645919Y-87943007D01*
X192649302Y-87938881D01*
X192649306Y-87938877D01*
X192787608Y-87770204D01*
X192797478Y-87758167D01*
X192854554Y-87657900D01*
X193724000Y-87657900D01*
X193734974Y-87763666D01*
X193790950Y-87931446D01*
X193884022Y-88081848D01*
X194009197Y-88206805D01*
X194015427Y-88210645D01*
X194015428Y-88210646D01*
X194152590Y-88295194D01*
X194159762Y-88299615D01*
X194200334Y-88313072D01*
X194321111Y-88353132D01*
X194321113Y-88353132D01*
X194327639Y-88355297D01*
X194334475Y-88355997D01*
X194334478Y-88355998D01*
X194377531Y-88360409D01*
X194432100Y-88366000D01*
X195832900Y-88366000D01*
X195836146Y-88365663D01*
X195836150Y-88365663D01*
X195931808Y-88355738D01*
X195931812Y-88355737D01*
X195938666Y-88355026D01*
X195945202Y-88352845D01*
X195945204Y-88352845D01*
X196094304Y-88303101D01*
X196106446Y-88299050D01*
X196256848Y-88205978D01*
X196381805Y-88080803D01*
X196385646Y-88074572D01*
X196470775Y-87936468D01*
X196470776Y-87936466D01*
X196474615Y-87930238D01*
X196502184Y-87847121D01*
X196528132Y-87768889D01*
X196528132Y-87768887D01*
X196530297Y-87762361D01*
X196541000Y-87657900D01*
X196541000Y-84457100D01*
X196534682Y-84396206D01*
X196530738Y-84358192D01*
X196530737Y-84358188D01*
X196530026Y-84351334D01*
X196474050Y-84183554D01*
X196380978Y-84033152D01*
X196255803Y-83908195D01*
X196232934Y-83894098D01*
X196111468Y-83819225D01*
X196111466Y-83819224D01*
X196105238Y-83815385D01*
X195993936Y-83778468D01*
X195943889Y-83761868D01*
X195943887Y-83761868D01*
X195937361Y-83759703D01*
X195930525Y-83759003D01*
X195930522Y-83759002D01*
X195884091Y-83754245D01*
X195832900Y-83749000D01*
X194432100Y-83749000D01*
X194428854Y-83749337D01*
X194428850Y-83749337D01*
X194333192Y-83759262D01*
X194333188Y-83759263D01*
X194326334Y-83759974D01*
X194319798Y-83762155D01*
X194319796Y-83762155D01*
X194209446Y-83798971D01*
X194158554Y-83815950D01*
X194008152Y-83909022D01*
X193883195Y-84034197D01*
X193879355Y-84040427D01*
X193879354Y-84040428D01*
X193841007Y-84102639D01*
X193790385Y-84184762D01*
X193785331Y-84200000D01*
X193761537Y-84271738D01*
X193734703Y-84352639D01*
X193724000Y-84457100D01*
X193724000Y-87657900D01*
X192854554Y-87657900D01*
X192915727Y-87550434D01*
X192997284Y-87325747D01*
X193002710Y-87295742D01*
X193039080Y-87094615D01*
X193039081Y-87094607D01*
X193039818Y-87090531D01*
X193041000Y-87065468D01*
X193041000Y-85097488D01*
X193025883Y-84919325D01*
X193024026Y-84912169D01*
X192967173Y-84693125D01*
X192967171Y-84693120D01*
X192965832Y-84687960D01*
X192915974Y-84577279D01*
X192869847Y-84474881D01*
X192869846Y-84474878D01*
X192867657Y-84470020D01*
X192734166Y-84271738D01*
X192569174Y-84098782D01*
X192377400Y-83956098D01*
X192372649Y-83953682D01*
X192372645Y-83953680D01*
X192169086Y-83850186D01*
X192169085Y-83850186D01*
X192164328Y-83847767D01*
X192021862Y-83803530D01*
X191941151Y-83778468D01*
X191941145Y-83778467D01*
X191936048Y-83776884D01*
X191801132Y-83759002D01*
X191704373Y-83746177D01*
X191704369Y-83746177D01*
X191699089Y-83745477D01*
X191693760Y-83745677D01*
X191693759Y-83745677D01*
X191596517Y-83749328D01*
X191460226Y-83754445D01*
X191373316Y-83772681D01*
X191231516Y-83802433D01*
X191231513Y-83802434D01*
X191226289Y-83803530D01*
X191003967Y-83891329D01*
X190799617Y-84015332D01*
X190795587Y-84018829D01*
X190713932Y-84089686D01*
X190619081Y-84171993D01*
X190615698Y-84176119D01*
X190615694Y-84176123D01*
X190537295Y-84271738D01*
X190467522Y-84356833D01*
X190464883Y-84361469D01*
X190464881Y-84361472D01*
X190441896Y-84401851D01*
X190349273Y-84564566D01*
X190267716Y-84789253D01*
X190266767Y-84794502D01*
X190266766Y-84794505D01*
X190225920Y-85020385D01*
X190225919Y-85020393D01*
X190225182Y-85024469D01*
X190224000Y-85049532D01*
X190224000Y-87017512D01*
X187053016Y-87017512D01*
X187043908Y-86986466D01*
X186990368Y-86882511D01*
X186949804Y-86803751D01*
X186949802Y-86803748D01*
X186947058Y-86798420D01*
X186816396Y-86632080D01*
X186811865Y-86628148D01*
X186811862Y-86628145D01*
X186661167Y-86497379D01*
X186656637Y-86493448D01*
X186651451Y-86490448D01*
X186651447Y-86490445D01*
X186478742Y-86390533D01*
X186473546Y-86387527D01*
X186273729Y-86318139D01*
X186267794Y-86317278D01*
X186267792Y-86317278D01*
X186070336Y-86288648D01*
X186070333Y-86288648D01*
X186064396Y-86287787D01*
X185853101Y-86297567D01*
X185721923Y-86329181D01*
X185653299Y-86345719D01*
X185653297Y-86345720D01*
X185647466Y-86347125D01*
X185642008Y-86349607D01*
X185642004Y-86349608D01*
X185622171Y-86358626D01*
X185593299Y-86371753D01*
X185523010Y-86381741D01*
X185458478Y-86352141D01*
X185452053Y-86346148D01*
X185188652Y-86082747D01*
X185181112Y-86074461D01*
X185177000Y-86067982D01*
X185127348Y-86021356D01*
X185124507Y-86018602D01*
X185104770Y-85998865D01*
X185101573Y-85996385D01*
X185092551Y-85988680D01*
X185066100Y-85963841D01*
X185060321Y-85958414D01*
X185053375Y-85954595D01*
X185053372Y-85954593D01*
X185042566Y-85948652D01*
X185026047Y-85937801D01*
X185022097Y-85934737D01*
X185010041Y-85925386D01*
X185002772Y-85922241D01*
X185002768Y-85922238D01*
X184969463Y-85907826D01*
X184958813Y-85902609D01*
X184920060Y-85881305D01*
X184900437Y-85876267D01*
X184881734Y-85869863D01*
X184870420Y-85864967D01*
X184870419Y-85864967D01*
X184863145Y-85861819D01*
X184855322Y-85860580D01*
X184855312Y-85860577D01*
X184819476Y-85854901D01*
X184807856Y-85852495D01*
X184772711Y-85843472D01*
X184772710Y-85843472D01*
X184765030Y-85841500D01*
X184744776Y-85841500D01*
X184725065Y-85839949D01*
X184712886Y-85838020D01*
X184705057Y-85836780D01*
X184697165Y-85837526D01*
X184661039Y-85840941D01*
X184649181Y-85841500D01*
X181702094Y-85841500D01*
X181633973Y-85821498D01*
X181612999Y-85804595D01*
X178982000Y-83173595D01*
X178947974Y-83111283D01*
X178953039Y-83040467D01*
X178995586Y-82983632D01*
X179062106Y-82958821D01*
X179071095Y-82958500D01*
X179197905Y-82958500D01*
X179266026Y-82978502D01*
X179287000Y-82995405D01*
X179483848Y-83192253D01*
X179491388Y-83200539D01*
X179495500Y-83207018D01*
X179501277Y-83212443D01*
X179545151Y-83253643D01*
X179547993Y-83256398D01*
X179567730Y-83276135D01*
X179570927Y-83278615D01*
X179579947Y-83286318D01*
X179612179Y-83316586D01*
X179619125Y-83320405D01*
X179619128Y-83320407D01*
X179629934Y-83326348D01*
X179646453Y-83337199D01*
X179662459Y-83349614D01*
X179669728Y-83352759D01*
X179669732Y-83352762D01*
X179703037Y-83367174D01*
X179713687Y-83372391D01*
X179752440Y-83393695D01*
X179760115Y-83395666D01*
X179760116Y-83395666D01*
X179772062Y-83398733D01*
X179790766Y-83405137D01*
X179799421Y-83408882D01*
X179809355Y-83413181D01*
X179817178Y-83414420D01*
X179817188Y-83414423D01*
X179853024Y-83420099D01*
X179864644Y-83422505D01*
X179899789Y-83431528D01*
X179907470Y-83433500D01*
X179927724Y-83433500D01*
X179947434Y-83435051D01*
X179967443Y-83438220D01*
X179975335Y-83437474D01*
X180011461Y-83434059D01*
X180023319Y-83433500D01*
X184269618Y-83433500D01*
X184337739Y-83453502D01*
X184384232Y-83507158D01*
X184387599Y-83515269D01*
X184396231Y-83538293D01*
X184399385Y-83546705D01*
X184486739Y-83663261D01*
X184603295Y-83750615D01*
X184739684Y-83801745D01*
X184801866Y-83808500D01*
X186498134Y-83808500D01*
X186560316Y-83801745D01*
X186696705Y-83750615D01*
X186813261Y-83663261D01*
X186900615Y-83546705D01*
X186951745Y-83410316D01*
X186958500Y-83348134D01*
X186958500Y-82970226D01*
X186978502Y-82902105D01*
X187032158Y-82855612D01*
X187102432Y-82845508D01*
X187167012Y-82875002D01*
X187185326Y-82894661D01*
X187219660Y-82940472D01*
X187236739Y-82963261D01*
X187353295Y-83050615D01*
X187489684Y-83101745D01*
X187551866Y-83108500D01*
X188865224Y-83108500D01*
X188884934Y-83110051D01*
X188904943Y-83113220D01*
X188912835Y-83112474D01*
X188931580Y-83110702D01*
X188948962Y-83109059D01*
X188960819Y-83108500D01*
X195806233Y-83108500D01*
X195817416Y-83109027D01*
X195824909Y-83110702D01*
X195832835Y-83110453D01*
X195832836Y-83110453D01*
X195892986Y-83108562D01*
X195896945Y-83108500D01*
X195924856Y-83108500D01*
X195928791Y-83108003D01*
X195928856Y-83107995D01*
X195940693Y-83107062D01*
X195972951Y-83106048D01*
X195976970Y-83105922D01*
X195984889Y-83105673D01*
X196004343Y-83100021D01*
X196023700Y-83096013D01*
X196035930Y-83094468D01*
X196035931Y-83094468D01*
X196043797Y-83093474D01*
X196051168Y-83090555D01*
X196051170Y-83090555D01*
X196084912Y-83077196D01*
X196096142Y-83073351D01*
X196130983Y-83063229D01*
X196130984Y-83063229D01*
X196138593Y-83061018D01*
X196145412Y-83056985D01*
X196145417Y-83056983D01*
X196156028Y-83050707D01*
X196173776Y-83042012D01*
X196192617Y-83034552D01*
X196205626Y-83025101D01*
X196228387Y-83008564D01*
X196238307Y-83002048D01*
X196269535Y-82983580D01*
X196269538Y-82983578D01*
X196276362Y-82979542D01*
X196290683Y-82965221D01*
X196305717Y-82952380D01*
X196315694Y-82945131D01*
X196322107Y-82940472D01*
X196350298Y-82906395D01*
X196358288Y-82897616D01*
X200015904Y-79240000D01*
X202986884Y-79240000D01*
X203005314Y-79450655D01*
X203006738Y-79455968D01*
X203006738Y-79455970D01*
X203056255Y-79640768D01*
X203060044Y-79654910D01*
X203062366Y-79659891D01*
X203062367Y-79659892D01*
X203144674Y-79836399D01*
X203149411Y-79846558D01*
X203270699Y-80019776D01*
X203420224Y-80169301D01*
X203593442Y-80290589D01*
X203598420Y-80292910D01*
X203598423Y-80292912D01*
X203771247Y-80373501D01*
X203785090Y-80379956D01*
X203790398Y-80381378D01*
X203790400Y-80381379D01*
X203984030Y-80433262D01*
X203984032Y-80433262D01*
X203989345Y-80434686D01*
X204200000Y-80453116D01*
X204410655Y-80434686D01*
X204415968Y-80433262D01*
X204415970Y-80433262D01*
X204609600Y-80381379D01*
X204609602Y-80381378D01*
X204614910Y-80379956D01*
X204628753Y-80373501D01*
X204801577Y-80292912D01*
X204801580Y-80292910D01*
X204806558Y-80290589D01*
X204979776Y-80169301D01*
X205129301Y-80019776D01*
X205196788Y-79923394D01*
X205252244Y-79879067D01*
X205322863Y-79871758D01*
X205386224Y-79903789D01*
X205403211Y-79923393D01*
X205470699Y-80019776D01*
X205620224Y-80169301D01*
X205793442Y-80290589D01*
X205798420Y-80292910D01*
X205798423Y-80292912D01*
X205971247Y-80373501D01*
X205985090Y-80379956D01*
X205990398Y-80381378D01*
X205990400Y-80381379D01*
X206184030Y-80433262D01*
X206184032Y-80433262D01*
X206189345Y-80434686D01*
X206400000Y-80453116D01*
X206610655Y-80434686D01*
X206615968Y-80433262D01*
X206615970Y-80433262D01*
X206809600Y-80381379D01*
X206809602Y-80381378D01*
X206814910Y-80379956D01*
X206828753Y-80373501D01*
X207001577Y-80292912D01*
X207001580Y-80292910D01*
X207006558Y-80290589D01*
X207179776Y-80169301D01*
X207329301Y-80019776D01*
X207396788Y-79923394D01*
X207452244Y-79879067D01*
X207522863Y-79871758D01*
X207586224Y-79903789D01*
X207603211Y-79923393D01*
X207670699Y-80019776D01*
X207820224Y-80169301D01*
X207993442Y-80290589D01*
X207998420Y-80292910D01*
X207998423Y-80292912D01*
X208171247Y-80373501D01*
X208185090Y-80379956D01*
X208190398Y-80381378D01*
X208190400Y-80381379D01*
X208384030Y-80433262D01*
X208384032Y-80433262D01*
X208389345Y-80434686D01*
X208600000Y-80453116D01*
X208810655Y-80434686D01*
X208815968Y-80433262D01*
X208815970Y-80433262D01*
X209009600Y-80381379D01*
X209009602Y-80381378D01*
X209014910Y-80379956D01*
X209028753Y-80373501D01*
X209201577Y-80292912D01*
X209201580Y-80292910D01*
X209206558Y-80290589D01*
X209379776Y-80169301D01*
X209529301Y-80019776D01*
X209650589Y-79846558D01*
X209655327Y-79836399D01*
X209737633Y-79659892D01*
X209737634Y-79659891D01*
X209739956Y-79654910D01*
X209743746Y-79640768D01*
X209793262Y-79455970D01*
X209793262Y-79455968D01*
X209794686Y-79450655D01*
X209813116Y-79240000D01*
X210586884Y-79240000D01*
X210605314Y-79450655D01*
X210606738Y-79455968D01*
X210606738Y-79455970D01*
X210656255Y-79640768D01*
X210660044Y-79654910D01*
X210662366Y-79659891D01*
X210662367Y-79659892D01*
X210744674Y-79836399D01*
X210749411Y-79846558D01*
X210870699Y-80019776D01*
X211020224Y-80169301D01*
X211193442Y-80290589D01*
X211198420Y-80292910D01*
X211198423Y-80292912D01*
X211371247Y-80373501D01*
X211385090Y-80379956D01*
X211390398Y-80381378D01*
X211390400Y-80381379D01*
X211584030Y-80433262D01*
X211584032Y-80433262D01*
X211589345Y-80434686D01*
X211800000Y-80453116D01*
X212010655Y-80434686D01*
X212015968Y-80433262D01*
X212015970Y-80433262D01*
X212209600Y-80381379D01*
X212209602Y-80381378D01*
X212214910Y-80379956D01*
X212228753Y-80373501D01*
X212401577Y-80292912D01*
X212401580Y-80292910D01*
X212406558Y-80290589D01*
X212579776Y-80169301D01*
X212729301Y-80019776D01*
X212850589Y-79846558D01*
X212855327Y-79836399D01*
X212937633Y-79659892D01*
X212937634Y-79659891D01*
X212939956Y-79654910D01*
X212943746Y-79640768D01*
X212993262Y-79455970D01*
X212993262Y-79455968D01*
X212994686Y-79450655D01*
X213013116Y-79240000D01*
X212994686Y-79029345D01*
X212985450Y-78994877D01*
X212941379Y-78830400D01*
X212941378Y-78830398D01*
X212939956Y-78825090D01*
X212914039Y-78769511D01*
X212852912Y-78638423D01*
X212852910Y-78638420D01*
X212850589Y-78633442D01*
X212729301Y-78460224D01*
X212579776Y-78310699D01*
X212406558Y-78189411D01*
X212401580Y-78187090D01*
X212401577Y-78187088D01*
X212219892Y-78102367D01*
X212219891Y-78102366D01*
X212214910Y-78100044D01*
X212209602Y-78098622D01*
X212209600Y-78098621D01*
X212015970Y-78046738D01*
X212015968Y-78046738D01*
X212010655Y-78045314D01*
X211800000Y-78026884D01*
X211589345Y-78045314D01*
X211584032Y-78046738D01*
X211584030Y-78046738D01*
X211390400Y-78098621D01*
X211390398Y-78098622D01*
X211385090Y-78100044D01*
X211380109Y-78102366D01*
X211380108Y-78102367D01*
X211198423Y-78187088D01*
X211198420Y-78187090D01*
X211193442Y-78189411D01*
X211020224Y-78310699D01*
X210870699Y-78460224D01*
X210749411Y-78633442D01*
X210747090Y-78638420D01*
X210747088Y-78638423D01*
X210685961Y-78769511D01*
X210660044Y-78825090D01*
X210658622Y-78830398D01*
X210658621Y-78830400D01*
X210614550Y-78994877D01*
X210605314Y-79029345D01*
X210586884Y-79240000D01*
X209813116Y-79240000D01*
X209794686Y-79029345D01*
X209785450Y-78994877D01*
X209741379Y-78830400D01*
X209741378Y-78830398D01*
X209739956Y-78825090D01*
X209714039Y-78769511D01*
X209652912Y-78638423D01*
X209652910Y-78638420D01*
X209650589Y-78633442D01*
X209529301Y-78460224D01*
X209379776Y-78310699D01*
X209206558Y-78189411D01*
X209201580Y-78187090D01*
X209201577Y-78187088D01*
X209019892Y-78102367D01*
X209019891Y-78102366D01*
X209014910Y-78100044D01*
X209009602Y-78098622D01*
X209009600Y-78098621D01*
X208815970Y-78046738D01*
X208815968Y-78046738D01*
X208810655Y-78045314D01*
X208600000Y-78026884D01*
X208389345Y-78045314D01*
X208384032Y-78046738D01*
X208384030Y-78046738D01*
X208190400Y-78098621D01*
X208190398Y-78098622D01*
X208185090Y-78100044D01*
X208180109Y-78102366D01*
X208180108Y-78102367D01*
X207998423Y-78187088D01*
X207998420Y-78187090D01*
X207993442Y-78189411D01*
X207820224Y-78310699D01*
X207670699Y-78460224D01*
X207607401Y-78550624D01*
X207603213Y-78556605D01*
X207547756Y-78600933D01*
X207477137Y-78608242D01*
X207413776Y-78576211D01*
X207396787Y-78556605D01*
X207392599Y-78550624D01*
X207329301Y-78460224D01*
X207179776Y-78310699D01*
X207006558Y-78189411D01*
X207001580Y-78187090D01*
X207001577Y-78187088D01*
X206819892Y-78102367D01*
X206819891Y-78102366D01*
X206814910Y-78100044D01*
X206809602Y-78098622D01*
X206809600Y-78098621D01*
X206615970Y-78046738D01*
X206615968Y-78046738D01*
X206610655Y-78045314D01*
X206400000Y-78026884D01*
X206189345Y-78045314D01*
X206184032Y-78046738D01*
X206184030Y-78046738D01*
X205990400Y-78098621D01*
X205990398Y-78098622D01*
X205985090Y-78100044D01*
X205980109Y-78102366D01*
X205980108Y-78102367D01*
X205798423Y-78187088D01*
X205798420Y-78187090D01*
X205793442Y-78189411D01*
X205620224Y-78310699D01*
X205470699Y-78460224D01*
X205407401Y-78550624D01*
X205403213Y-78556605D01*
X205347756Y-78600933D01*
X205277137Y-78608242D01*
X205213776Y-78576211D01*
X205196787Y-78556605D01*
X205192599Y-78550624D01*
X205129301Y-78460224D01*
X204979776Y-78310699D01*
X204806558Y-78189411D01*
X204801580Y-78187090D01*
X204801577Y-78187088D01*
X204619892Y-78102367D01*
X204619891Y-78102366D01*
X204614910Y-78100044D01*
X204609602Y-78098622D01*
X204609600Y-78098621D01*
X204415970Y-78046738D01*
X204415968Y-78046738D01*
X204410655Y-78045314D01*
X204200000Y-78026884D01*
X203989345Y-78045314D01*
X203984032Y-78046738D01*
X203984030Y-78046738D01*
X203790400Y-78098621D01*
X203790398Y-78098622D01*
X203785090Y-78100044D01*
X203780109Y-78102366D01*
X203780108Y-78102367D01*
X203598423Y-78187088D01*
X203598420Y-78187090D01*
X203593442Y-78189411D01*
X203420224Y-78310699D01*
X203270699Y-78460224D01*
X203149411Y-78633442D01*
X203147090Y-78638420D01*
X203147088Y-78638423D01*
X203085961Y-78769511D01*
X203060044Y-78825090D01*
X203058622Y-78830398D01*
X203058621Y-78830400D01*
X203014550Y-78994877D01*
X203005314Y-79029345D01*
X202986884Y-79240000D01*
X200015904Y-79240000D01*
X203868462Y-75387443D01*
X203930774Y-75353417D01*
X203979439Y-75352453D01*
X203984039Y-75353264D01*
X203989345Y-75354686D01*
X203994812Y-75355164D01*
X203994816Y-75355165D01*
X204194525Y-75372637D01*
X204200000Y-75373116D01*
X204410655Y-75354686D01*
X204415968Y-75353262D01*
X204415970Y-75353262D01*
X204609600Y-75301379D01*
X204609602Y-75301378D01*
X204614910Y-75299956D01*
X204620908Y-75297159D01*
X204801577Y-75212912D01*
X204801580Y-75212910D01*
X204806558Y-75210589D01*
X204979776Y-75089301D01*
X205129301Y-74939776D01*
X205196788Y-74843394D01*
X205252244Y-74799067D01*
X205322863Y-74791758D01*
X205386224Y-74823789D01*
X205403211Y-74843393D01*
X205470699Y-74939776D01*
X205620224Y-75089301D01*
X205793442Y-75210589D01*
X205798420Y-75212910D01*
X205798423Y-75212912D01*
X205979092Y-75297159D01*
X205985090Y-75299956D01*
X205990398Y-75301378D01*
X205990400Y-75301379D01*
X206184030Y-75353262D01*
X206184032Y-75353262D01*
X206189345Y-75354686D01*
X206400000Y-75373116D01*
X206610655Y-75354686D01*
X206615968Y-75353262D01*
X206615970Y-75353262D01*
X206809600Y-75301379D01*
X206809602Y-75301378D01*
X206814910Y-75299956D01*
X206820908Y-75297159D01*
X207001577Y-75212912D01*
X207001580Y-75212910D01*
X207006558Y-75210589D01*
X207058440Y-75174261D01*
X207950294Y-75174261D01*
X207959590Y-75186276D01*
X207989189Y-75207001D01*
X207998677Y-75212479D01*
X208180277Y-75297159D01*
X208190571Y-75300907D01*
X208384122Y-75352769D01*
X208394909Y-75354671D01*
X208594525Y-75372135D01*
X208605475Y-75372135D01*
X208805091Y-75354671D01*
X208815878Y-75352769D01*
X209009429Y-75300907D01*
X209019723Y-75297159D01*
X209201323Y-75212479D01*
X209210811Y-75207001D01*
X209241248Y-75185689D01*
X209249623Y-75175212D01*
X209242554Y-75161764D01*
X208612812Y-74532022D01*
X208598868Y-74524408D01*
X208597035Y-74524539D01*
X208590420Y-74528790D01*
X207956724Y-75162486D01*
X207950294Y-75174261D01*
X207058440Y-75174261D01*
X207179776Y-75089301D01*
X207329301Y-74939776D01*
X207402403Y-74835375D01*
X207457860Y-74791046D01*
X207528479Y-74783737D01*
X207584285Y-74809222D01*
X207584787Y-74809623D01*
X207598236Y-74802554D01*
X208227978Y-74172812D01*
X208234356Y-74161132D01*
X208964408Y-74161132D01*
X208964539Y-74162965D01*
X208968790Y-74169580D01*
X209602486Y-74803276D01*
X209614261Y-74809706D01*
X209626276Y-74800410D01*
X209647001Y-74770811D01*
X209652479Y-74761323D01*
X209737159Y-74579723D01*
X209740907Y-74569429D01*
X209792769Y-74375878D01*
X209794671Y-74365091D01*
X209812135Y-74165475D01*
X209812135Y-74160000D01*
X210586884Y-74160000D01*
X210605314Y-74370655D01*
X210606738Y-74375968D01*
X210606738Y-74375970D01*
X210653205Y-74549385D01*
X210660044Y-74574910D01*
X210662366Y-74579891D01*
X210662367Y-74579892D01*
X210746204Y-74759680D01*
X210749411Y-74766558D01*
X210870699Y-74939776D01*
X211020224Y-75089301D01*
X211193442Y-75210589D01*
X211198420Y-75212910D01*
X211198423Y-75212912D01*
X211379092Y-75297159D01*
X211385090Y-75299956D01*
X211390398Y-75301378D01*
X211390400Y-75301379D01*
X211584030Y-75353262D01*
X211584032Y-75353262D01*
X211589345Y-75354686D01*
X211800000Y-75373116D01*
X212010655Y-75354686D01*
X212015968Y-75353262D01*
X212015970Y-75353262D01*
X212209600Y-75301379D01*
X212209602Y-75301378D01*
X212214910Y-75299956D01*
X212220908Y-75297159D01*
X212401577Y-75212912D01*
X212401580Y-75212910D01*
X212406558Y-75210589D01*
X212579776Y-75089301D01*
X212729301Y-74939776D01*
X212850589Y-74766558D01*
X212853797Y-74759680D01*
X212937633Y-74579892D01*
X212937634Y-74579891D01*
X212939956Y-74574910D01*
X212946796Y-74549385D01*
X212993262Y-74375970D01*
X212993262Y-74375968D01*
X212994686Y-74370655D01*
X213013116Y-74160000D01*
X212994686Y-73949345D01*
X212964931Y-73838297D01*
X212941379Y-73750400D01*
X212941378Y-73750398D01*
X212939956Y-73745090D01*
X212894745Y-73648134D01*
X212852912Y-73558423D01*
X212852910Y-73558420D01*
X212850589Y-73553442D01*
X212729301Y-73380224D01*
X212579776Y-73230699D01*
X212406558Y-73109411D01*
X212401580Y-73107090D01*
X212401577Y-73107088D01*
X212219892Y-73022367D01*
X212219891Y-73022366D01*
X212214910Y-73020044D01*
X212209602Y-73018622D01*
X212209600Y-73018621D01*
X212015970Y-72966738D01*
X212015968Y-72966738D01*
X212010655Y-72965314D01*
X211800000Y-72946884D01*
X211589345Y-72965314D01*
X211584032Y-72966738D01*
X211584030Y-72966738D01*
X211390400Y-73018621D01*
X211390398Y-73018622D01*
X211385090Y-73020044D01*
X211380109Y-73022366D01*
X211380108Y-73022367D01*
X211198423Y-73107088D01*
X211198420Y-73107090D01*
X211193442Y-73109411D01*
X211020224Y-73230699D01*
X210870699Y-73380224D01*
X210749411Y-73553442D01*
X210747090Y-73558420D01*
X210747088Y-73558423D01*
X210705255Y-73648134D01*
X210660044Y-73745090D01*
X210658622Y-73750398D01*
X210658621Y-73750400D01*
X210635069Y-73838297D01*
X210605314Y-73949345D01*
X210586884Y-74160000D01*
X209812135Y-74160000D01*
X209812135Y-74154525D01*
X209794671Y-73954909D01*
X209792769Y-73944122D01*
X209740907Y-73750571D01*
X209737159Y-73740277D01*
X209652479Y-73558677D01*
X209647001Y-73549189D01*
X209625689Y-73518752D01*
X209615212Y-73510377D01*
X209601764Y-73517446D01*
X208972022Y-74147188D01*
X208964408Y-74161132D01*
X208234356Y-74161132D01*
X208235592Y-74158868D01*
X208235461Y-74157035D01*
X208231210Y-74150420D01*
X207597514Y-73516724D01*
X207585739Y-73510294D01*
X207582997Y-73512415D01*
X207516879Y-73538278D01*
X207447274Y-73524288D01*
X207402685Y-73485028D01*
X207396787Y-73476605D01*
X207329301Y-73380224D01*
X207179776Y-73230699D01*
X207057082Y-73144788D01*
X207950377Y-73144788D01*
X207957446Y-73158236D01*
X208587188Y-73787978D01*
X208601132Y-73795592D01*
X208602965Y-73795461D01*
X208609580Y-73791210D01*
X209243276Y-73157514D01*
X209249706Y-73145739D01*
X209240410Y-73133724D01*
X209210811Y-73112999D01*
X209201323Y-73107521D01*
X209019723Y-73022841D01*
X209009429Y-73019093D01*
X208815878Y-72967231D01*
X208805091Y-72965329D01*
X208605475Y-72947865D01*
X208594525Y-72947865D01*
X208394909Y-72965329D01*
X208384122Y-72967231D01*
X208190571Y-73019093D01*
X208180277Y-73022841D01*
X207998677Y-73107521D01*
X207989189Y-73112999D01*
X207958752Y-73134311D01*
X207950377Y-73144788D01*
X207057082Y-73144788D01*
X207006558Y-73109411D01*
X207001580Y-73107090D01*
X207001577Y-73107088D01*
X206819892Y-73022367D01*
X206819891Y-73022366D01*
X206814910Y-73020044D01*
X206809602Y-73018622D01*
X206809600Y-73018621D01*
X206615970Y-72966738D01*
X206615968Y-72966738D01*
X206610655Y-72965314D01*
X206400000Y-72946884D01*
X206189345Y-72965314D01*
X206184032Y-72966738D01*
X206184030Y-72966738D01*
X205990400Y-73018621D01*
X205990398Y-73018622D01*
X205985090Y-73020044D01*
X205980109Y-73022366D01*
X205980108Y-73022367D01*
X205798423Y-73107088D01*
X205798420Y-73107090D01*
X205793442Y-73109411D01*
X205620224Y-73230699D01*
X205470699Y-73380224D01*
X205403213Y-73476605D01*
X205347756Y-73520933D01*
X205277137Y-73528242D01*
X205213776Y-73496211D01*
X205196787Y-73476605D01*
X205129301Y-73380224D01*
X204979776Y-73230699D01*
X204806558Y-73109411D01*
X204801580Y-73107090D01*
X204801577Y-73107088D01*
X204619892Y-73022367D01*
X204619891Y-73022366D01*
X204614910Y-73020044D01*
X204609602Y-73018622D01*
X204609600Y-73018621D01*
X204415970Y-72966738D01*
X204415968Y-72966738D01*
X204410655Y-72965314D01*
X204200000Y-72946884D01*
X203989345Y-72965314D01*
X203984032Y-72966738D01*
X203984030Y-72966738D01*
X203790400Y-73018621D01*
X203790398Y-73018622D01*
X203785090Y-73020044D01*
X203780109Y-73022366D01*
X203780108Y-73022367D01*
X203598423Y-73107088D01*
X203598420Y-73107090D01*
X203593442Y-73109411D01*
X203420224Y-73230699D01*
X203270699Y-73380224D01*
X203149411Y-73553442D01*
X203147090Y-73558420D01*
X203147088Y-73558423D01*
X203105255Y-73648134D01*
X203060044Y-73745090D01*
X203058622Y-73750398D01*
X203058621Y-73750400D01*
X203035069Y-73838297D01*
X203005314Y-73949345D01*
X202986884Y-74160000D01*
X202987363Y-74165475D01*
X203004835Y-74365175D01*
X203005314Y-74370655D01*
X203006736Y-74375961D01*
X203007547Y-74380561D01*
X202999679Y-74451121D01*
X202972557Y-74491538D01*
X195659500Y-81804595D01*
X195597188Y-81838621D01*
X195570405Y-81841500D01*
X192734500Y-81841500D01*
X192666379Y-81821498D01*
X192619886Y-81767842D01*
X192608500Y-81715500D01*
X192608500Y-80014993D01*
X194632160Y-80014993D01*
X194637887Y-80022643D01*
X194809042Y-80127528D01*
X194817837Y-80132010D01*
X195027988Y-80219057D01*
X195037373Y-80222106D01*
X195258554Y-80275208D01*
X195268301Y-80276751D01*
X195495070Y-80294598D01*
X195504930Y-80294598D01*
X195731699Y-80276751D01*
X195741446Y-80275208D01*
X195962627Y-80222106D01*
X195972012Y-80219057D01*
X196182163Y-80132010D01*
X196190958Y-80127528D01*
X196358445Y-80024891D01*
X196367907Y-80014433D01*
X196364124Y-80005657D01*
X195512812Y-79154345D01*
X195498868Y-79146731D01*
X195497035Y-79146862D01*
X195490420Y-79151113D01*
X194638920Y-80002613D01*
X194632160Y-80014993D01*
X192608500Y-80014993D01*
X192608500Y-79651866D01*
X192601745Y-79589684D01*
X192550615Y-79453295D01*
X192463261Y-79336739D01*
X192346705Y-79249385D01*
X192210316Y-79198255D01*
X192148134Y-79191500D01*
X190739595Y-79191500D01*
X190671474Y-79171498D01*
X190650500Y-79154595D01*
X190594814Y-79098909D01*
X190560788Y-79036597D01*
X190557909Y-79009814D01*
X190557909Y-78787253D01*
X193987725Y-78787253D01*
X194005572Y-79014022D01*
X194007115Y-79023769D01*
X194060217Y-79244950D01*
X194063266Y-79254335D01*
X194150313Y-79464486D01*
X194154795Y-79473281D01*
X194257432Y-79640768D01*
X194267890Y-79650230D01*
X194276666Y-79646447D01*
X195127978Y-78795135D01*
X195134356Y-78783455D01*
X195864408Y-78783455D01*
X195864539Y-78785288D01*
X195868790Y-78791903D01*
X196720290Y-79643403D01*
X196732670Y-79650163D01*
X196740320Y-79644436D01*
X196845205Y-79473281D01*
X196849687Y-79464486D01*
X196936734Y-79254335D01*
X196939783Y-79244950D01*
X196992885Y-79023769D01*
X196994428Y-79014022D01*
X197012275Y-78787253D01*
X197012275Y-78777393D01*
X196994428Y-78550624D01*
X196992885Y-78540877D01*
X196939783Y-78319696D01*
X196936734Y-78310311D01*
X196849687Y-78100160D01*
X196845205Y-78091365D01*
X196742568Y-77923878D01*
X196732110Y-77914416D01*
X196723334Y-77918199D01*
X195872022Y-78769511D01*
X195864408Y-78783455D01*
X195134356Y-78783455D01*
X195135592Y-78781191D01*
X195135461Y-78779358D01*
X195131210Y-78772743D01*
X194279710Y-77921243D01*
X194267330Y-77914483D01*
X194259680Y-77920210D01*
X194154795Y-78091365D01*
X194150313Y-78100160D01*
X194063266Y-78310311D01*
X194060217Y-78319696D01*
X194007115Y-78540877D01*
X194005572Y-78550624D01*
X193987725Y-78777393D01*
X193987725Y-78787253D01*
X190557909Y-78787253D01*
X190557909Y-77550213D01*
X194632093Y-77550213D01*
X194635876Y-77558989D01*
X195487188Y-78410301D01*
X195501132Y-78417915D01*
X195502965Y-78417784D01*
X195509580Y-78413533D01*
X196361080Y-77562033D01*
X196367840Y-77549653D01*
X196362113Y-77542003D01*
X196190958Y-77437118D01*
X196182163Y-77432636D01*
X195972012Y-77345589D01*
X195962627Y-77342540D01*
X195741446Y-77289438D01*
X195731699Y-77287895D01*
X195504930Y-77270048D01*
X195495070Y-77270048D01*
X195268301Y-77287895D01*
X195258554Y-77289438D01*
X195037373Y-77342540D01*
X195027988Y-77345589D01*
X194817837Y-77432636D01*
X194809042Y-77437118D01*
X194641555Y-77539755D01*
X194632093Y-77550213D01*
X190557909Y-77550213D01*
X190557909Y-76330457D01*
X193991500Y-76330457D01*
X193998255Y-76392639D01*
X194049385Y-76529028D01*
X194136739Y-76645584D01*
X194253295Y-76732938D01*
X194389684Y-76784068D01*
X194451866Y-76790823D01*
X196548134Y-76790823D01*
X196610316Y-76784068D01*
X196746705Y-76732938D01*
X196863261Y-76645584D01*
X196950615Y-76529028D01*
X197001745Y-76392639D01*
X197008500Y-76330457D01*
X197008500Y-74234189D01*
X197001745Y-74172007D01*
X196950615Y-74035618D01*
X196863261Y-73919062D01*
X196746705Y-73831708D01*
X196610316Y-73780578D01*
X196548134Y-73773823D01*
X194451866Y-73773823D01*
X194389684Y-73780578D01*
X194253295Y-73831708D01*
X194136739Y-73919062D01*
X194049385Y-74035618D01*
X193998255Y-74172007D01*
X193991500Y-74234189D01*
X193991500Y-76330457D01*
X190557909Y-76330457D01*
X190557909Y-71940027D01*
X190570944Y-71895633D01*
X191147829Y-71895633D01*
X191149392Y-71909648D01*
X191157599Y-71912344D01*
X191340387Y-71896352D01*
X191351180Y-71894449D01*
X191561629Y-71838060D01*
X191571921Y-71834314D01*
X191769379Y-71742238D01*
X191778875Y-71736755D01*
X191957335Y-71611796D01*
X191965743Y-71604740D01*
X192119784Y-71450699D01*
X192126840Y-71442291D01*
X192251799Y-71263831D01*
X192257282Y-71254335D01*
X192332650Y-71092708D01*
X192334767Y-71078768D01*
X192327536Y-71074039D01*
X191341743Y-70900218D01*
X191325956Y-70901978D01*
X191324529Y-70903138D01*
X191321550Y-70910413D01*
X191147829Y-71895633D01*
X190570944Y-71895633D01*
X190577911Y-71871906D01*
X190632476Y-71825002D01*
X190640949Y-71821213D01*
X190646653Y-71812492D01*
X190899425Y-70378949D01*
X191415262Y-70378949D01*
X191417022Y-70394736D01*
X191418182Y-70396163D01*
X191425457Y-70399142D01*
X192410677Y-70572863D01*
X192424692Y-70571300D01*
X192427388Y-70563093D01*
X192411396Y-70380305D01*
X192411342Y-70380000D01*
X195486502Y-70380000D01*
X195506457Y-70608087D01*
X195565716Y-70829243D01*
X195568039Y-70834224D01*
X195568039Y-70834225D01*
X195660151Y-71031762D01*
X195660154Y-71031767D01*
X195662477Y-71036749D01*
X195793802Y-71224300D01*
X195955700Y-71386198D01*
X195960208Y-71389355D01*
X195960211Y-71389357D01*
X196035809Y-71442291D01*
X196143251Y-71517523D01*
X196148233Y-71519846D01*
X196148238Y-71519849D01*
X196345421Y-71611796D01*
X196350757Y-71614284D01*
X196356065Y-71615706D01*
X196356067Y-71615707D01*
X196566598Y-71672119D01*
X196566600Y-71672119D01*
X196571913Y-71673543D01*
X196800000Y-71693498D01*
X197028087Y-71673543D01*
X197033400Y-71672119D01*
X197033402Y-71672119D01*
X197243933Y-71615707D01*
X197243935Y-71615706D01*
X197249243Y-71614284D01*
X197254579Y-71611796D01*
X197451762Y-71519849D01*
X197451767Y-71519846D01*
X197456749Y-71517523D01*
X197564191Y-71442291D01*
X197639789Y-71389357D01*
X197639792Y-71389355D01*
X197644300Y-71386198D01*
X197806198Y-71224300D01*
X197937523Y-71036749D01*
X197939846Y-71031767D01*
X197939849Y-71031762D01*
X198031961Y-70834225D01*
X198031961Y-70834224D01*
X198034284Y-70829243D01*
X198093543Y-70608087D01*
X198113498Y-70380000D01*
X198093543Y-70151913D01*
X198087978Y-70131143D01*
X198035707Y-69936067D01*
X198035706Y-69936065D01*
X198034284Y-69930757D01*
X198018825Y-69897605D01*
X197939849Y-69728238D01*
X197939846Y-69728233D01*
X197937523Y-69723251D01*
X197806198Y-69535700D01*
X197644300Y-69373802D01*
X197639792Y-69370645D01*
X197639789Y-69370643D01*
X197543720Y-69303375D01*
X197456749Y-69242477D01*
X197451767Y-69240154D01*
X197451762Y-69240151D01*
X197254225Y-69148039D01*
X197254224Y-69148039D01*
X197249243Y-69145716D01*
X197243935Y-69144294D01*
X197243933Y-69144293D01*
X197033402Y-69087881D01*
X197033400Y-69087881D01*
X197028087Y-69086457D01*
X196800000Y-69066502D01*
X196571913Y-69086457D01*
X196566600Y-69087881D01*
X196566598Y-69087881D01*
X196356067Y-69144293D01*
X196356065Y-69144294D01*
X196350757Y-69145716D01*
X196345776Y-69148039D01*
X196345775Y-69148039D01*
X196148238Y-69240151D01*
X196148233Y-69240154D01*
X196143251Y-69242477D01*
X196056280Y-69303375D01*
X195960211Y-69370643D01*
X195960208Y-69370645D01*
X195955700Y-69373802D01*
X195793802Y-69535700D01*
X195662477Y-69723251D01*
X195660154Y-69728233D01*
X195660151Y-69728238D01*
X195581175Y-69897605D01*
X195565716Y-69930757D01*
X195564294Y-69936065D01*
X195564293Y-69936067D01*
X195512022Y-70131143D01*
X195506457Y-70151913D01*
X195486502Y-70380000D01*
X192411342Y-70380000D01*
X192409493Y-70369512D01*
X192353104Y-70159063D01*
X192349358Y-70148771D01*
X192257282Y-69951313D01*
X192251799Y-69941817D01*
X192126840Y-69763357D01*
X192119784Y-69754949D01*
X191965743Y-69600908D01*
X191957335Y-69593852D01*
X191778875Y-69468893D01*
X191769379Y-69463410D01*
X191607752Y-69388042D01*
X191593812Y-69385925D01*
X191589083Y-69393156D01*
X191415262Y-70378949D01*
X190899425Y-70378949D01*
X190911832Y-70308583D01*
X190911835Y-70308569D01*
X191087907Y-69310015D01*
X191086344Y-69296000D01*
X191078137Y-69293304D01*
X190895349Y-69309296D01*
X190884556Y-69311199D01*
X190716520Y-69356224D01*
X190645544Y-69354534D01*
X190586748Y-69314740D01*
X190558800Y-69249476D01*
X190557909Y-69234517D01*
X190557909Y-63754365D01*
X203152000Y-63754365D01*
X203152238Y-63759830D01*
X203166472Y-63922519D01*
X203168375Y-63933312D01*
X203224764Y-64143761D01*
X203228510Y-64154053D01*
X203320586Y-64351511D01*
X203326069Y-64361007D01*
X203451028Y-64539467D01*
X203458084Y-64547875D01*
X203612125Y-64701916D01*
X203620533Y-64708972D01*
X203798993Y-64833931D01*
X203808489Y-64839414D01*
X204005947Y-64931490D01*
X204016239Y-64935236D01*
X204188503Y-64981394D01*
X204202599Y-64981058D01*
X204206000Y-64973116D01*
X204206000Y-64967967D01*
X204714000Y-64967967D01*
X204717973Y-64981498D01*
X204726522Y-64982727D01*
X204903761Y-64935236D01*
X204914053Y-64931490D01*
X205111511Y-64839414D01*
X205121007Y-64833931D01*
X205299467Y-64708972D01*
X205307875Y-64701916D01*
X205461916Y-64547875D01*
X205468972Y-64539467D01*
X205593931Y-64361007D01*
X205599414Y-64351511D01*
X205615529Y-64316951D01*
X205662446Y-64263666D01*
X205730723Y-64244205D01*
X205798683Y-64264747D01*
X205843919Y-64316951D01*
X205860151Y-64351762D01*
X205860154Y-64351767D01*
X205862477Y-64356749D01*
X205865634Y-64361257D01*
X205965794Y-64504300D01*
X205993802Y-64544300D01*
X206155700Y-64706198D01*
X206160208Y-64709355D01*
X206160211Y-64709357D01*
X206186819Y-64727988D01*
X206343251Y-64837523D01*
X206348233Y-64839846D01*
X206348238Y-64839849D01*
X206531836Y-64925461D01*
X206550757Y-64934284D01*
X206556065Y-64935706D01*
X206556067Y-64935707D01*
X206766598Y-64992119D01*
X206766600Y-64992119D01*
X206771913Y-64993543D01*
X207000000Y-65013498D01*
X207228087Y-64993543D01*
X207233400Y-64992119D01*
X207233402Y-64992119D01*
X207443933Y-64935707D01*
X207443935Y-64935706D01*
X207449243Y-64934284D01*
X207468164Y-64925461D01*
X207651762Y-64839849D01*
X207651767Y-64839846D01*
X207656749Y-64837523D01*
X207813181Y-64727988D01*
X207839789Y-64709357D01*
X207839792Y-64709355D01*
X207844300Y-64706198D01*
X208006198Y-64544300D01*
X208034207Y-64504300D01*
X208134366Y-64361257D01*
X208137523Y-64356749D01*
X208139846Y-64351767D01*
X208139849Y-64351762D01*
X208231961Y-64154225D01*
X208231961Y-64154224D01*
X208234284Y-64149243D01*
X208252226Y-64082285D01*
X208292119Y-63933402D01*
X208292119Y-63933400D01*
X208293543Y-63928087D01*
X208308500Y-63757127D01*
X208308500Y-62742873D01*
X208293543Y-62571913D01*
X208292119Y-62566598D01*
X208235707Y-62356067D01*
X208235706Y-62356065D01*
X208234284Y-62350757D01*
X208147197Y-62163997D01*
X208139849Y-62148238D01*
X208139846Y-62148233D01*
X208137523Y-62143251D01*
X208006198Y-61955700D01*
X207844300Y-61793802D01*
X207839792Y-61790645D01*
X207839789Y-61790643D01*
X207676297Y-61676165D01*
X207656749Y-61662477D01*
X207651767Y-61660154D01*
X207651762Y-61660151D01*
X207454225Y-61568039D01*
X207454224Y-61568039D01*
X207449243Y-61565716D01*
X207443935Y-61564294D01*
X207443933Y-61564293D01*
X207233402Y-61507881D01*
X207233400Y-61507881D01*
X207228087Y-61506457D01*
X207000000Y-61486502D01*
X206771913Y-61506457D01*
X206766600Y-61507881D01*
X206766598Y-61507881D01*
X206556067Y-61564293D01*
X206556065Y-61564294D01*
X206550757Y-61565716D01*
X206545776Y-61568039D01*
X206545775Y-61568039D01*
X206348238Y-61660151D01*
X206348233Y-61660154D01*
X206343251Y-61662477D01*
X206323703Y-61676165D01*
X206160211Y-61790643D01*
X206160208Y-61790645D01*
X206155700Y-61793802D01*
X205993802Y-61955700D01*
X205862477Y-62143251D01*
X205860154Y-62148233D01*
X205860151Y-62148238D01*
X205843919Y-62183049D01*
X205797002Y-62236334D01*
X205728725Y-62255795D01*
X205660765Y-62235253D01*
X205615529Y-62183049D01*
X205599414Y-62148489D01*
X205593931Y-62138993D01*
X205468972Y-61960533D01*
X205461916Y-61952125D01*
X205307875Y-61798084D01*
X205299467Y-61791028D01*
X205121007Y-61666069D01*
X205111511Y-61660586D01*
X204914053Y-61568510D01*
X204903761Y-61564764D01*
X204731497Y-61518606D01*
X204717401Y-61518942D01*
X204714000Y-61526884D01*
X204714000Y-64967967D01*
X204206000Y-64967967D01*
X204206000Y-63522115D01*
X204201525Y-63506876D01*
X204200135Y-63505671D01*
X204192452Y-63504000D01*
X203170115Y-63504000D01*
X203154876Y-63508475D01*
X203153671Y-63509865D01*
X203152000Y-63517548D01*
X203152000Y-63754365D01*
X190557909Y-63754365D01*
X190557909Y-62977885D01*
X203152000Y-62977885D01*
X203156475Y-62993124D01*
X203157865Y-62994329D01*
X203165548Y-62996000D01*
X204187885Y-62996000D01*
X204203124Y-62991525D01*
X204204329Y-62990135D01*
X204206000Y-62982452D01*
X204206000Y-61532033D01*
X204202027Y-61518502D01*
X204193478Y-61517273D01*
X204016239Y-61564764D01*
X204005947Y-61568510D01*
X203808489Y-61660586D01*
X203798993Y-61666069D01*
X203620533Y-61791028D01*
X203612125Y-61798084D01*
X203458084Y-61952125D01*
X203451028Y-61960533D01*
X203326069Y-62138993D01*
X203320586Y-62148489D01*
X203228510Y-62345947D01*
X203224764Y-62356239D01*
X203168375Y-62566688D01*
X203166472Y-62577481D01*
X203152238Y-62740170D01*
X203152000Y-62745635D01*
X203152000Y-62977885D01*
X190557909Y-62977885D01*
X190557909Y-61123177D01*
X190558436Y-61111994D01*
X190560111Y-61104501D01*
X190557971Y-61036410D01*
X190557909Y-61032453D01*
X190557909Y-61004553D01*
X190557405Y-61000562D01*
X190556472Y-60988720D01*
X190556445Y-60987834D01*
X190555083Y-60944520D01*
X190549430Y-60925061D01*
X190545421Y-60905702D01*
X190545255Y-60904392D01*
X190542883Y-60885612D01*
X190539967Y-60878246D01*
X190539965Y-60878240D01*
X190526609Y-60844507D01*
X190522764Y-60833277D01*
X190512639Y-60798426D01*
X190512639Y-60798425D01*
X190510428Y-60790816D01*
X190500114Y-60773375D01*
X190491417Y-60755622D01*
X190486881Y-60744167D01*
X190483961Y-60736792D01*
X190457972Y-60701021D01*
X190451456Y-60691101D01*
X190441909Y-60674958D01*
X190428951Y-60653047D01*
X190414630Y-60638726D01*
X190401789Y-60623692D01*
X190394541Y-60613716D01*
X190389881Y-60607302D01*
X190386741Y-60604704D01*
X190382933Y-60597177D01*
X191568635Y-60597177D01*
X191588590Y-60825264D01*
X191590014Y-60830577D01*
X191590014Y-60830579D01*
X191644107Y-61032453D01*
X191647849Y-61046420D01*
X191650172Y-61051401D01*
X191650172Y-61051402D01*
X191742284Y-61248939D01*
X191742287Y-61248944D01*
X191744610Y-61253926D01*
X191804774Y-61339849D01*
X191871895Y-61435707D01*
X191875935Y-61441477D01*
X192037833Y-61603375D01*
X192042341Y-61606532D01*
X192042344Y-61606534D01*
X192085050Y-61636437D01*
X192225384Y-61734700D01*
X192230366Y-61737023D01*
X192230371Y-61737026D01*
X192361312Y-61798084D01*
X192432890Y-61831461D01*
X192438198Y-61832883D01*
X192438200Y-61832884D01*
X192648731Y-61889296D01*
X192648733Y-61889296D01*
X192654046Y-61890720D01*
X192882133Y-61910675D01*
X193110220Y-61890720D01*
X193115533Y-61889296D01*
X193115535Y-61889296D01*
X193326066Y-61832884D01*
X193326068Y-61832883D01*
X193331376Y-61831461D01*
X193402954Y-61798084D01*
X193533895Y-61737026D01*
X193533900Y-61737023D01*
X193538882Y-61734700D01*
X193679216Y-61636437D01*
X193721922Y-61606534D01*
X193721925Y-61606532D01*
X193726433Y-61603375D01*
X193888331Y-61441477D01*
X193892372Y-61435707D01*
X193959492Y-61339849D01*
X194019656Y-61253926D01*
X194021979Y-61248944D01*
X194021982Y-61248939D01*
X194114094Y-61051402D01*
X194114094Y-61051401D01*
X194116417Y-61046420D01*
X194120160Y-61032453D01*
X194174252Y-60830579D01*
X194174252Y-60830577D01*
X194175676Y-60825264D01*
X194195631Y-60597177D01*
X194175676Y-60369090D01*
X194135727Y-60220000D01*
X195486502Y-60220000D01*
X195506457Y-60448087D01*
X195507881Y-60453400D01*
X195507881Y-60453402D01*
X195562959Y-60658952D01*
X195565716Y-60669243D01*
X195568039Y-60674224D01*
X195568039Y-60674225D01*
X195660151Y-60871762D01*
X195660154Y-60871767D01*
X195662477Y-60876749D01*
X195692740Y-60919969D01*
X195784771Y-61051402D01*
X195793802Y-61064300D01*
X195955700Y-61226198D01*
X195960208Y-61229355D01*
X195960211Y-61229357D01*
X196038389Y-61284098D01*
X196143251Y-61357523D01*
X196148233Y-61359846D01*
X196148238Y-61359849D01*
X196310918Y-61435707D01*
X196350757Y-61454284D01*
X196356065Y-61455706D01*
X196356067Y-61455707D01*
X196566598Y-61512119D01*
X196566600Y-61512119D01*
X196571913Y-61513543D01*
X196800000Y-61533498D01*
X197028087Y-61513543D01*
X197033400Y-61512119D01*
X197033402Y-61512119D01*
X197243933Y-61455707D01*
X197243935Y-61455706D01*
X197249243Y-61454284D01*
X197289082Y-61435707D01*
X197451762Y-61359849D01*
X197451767Y-61359846D01*
X197456749Y-61357523D01*
X197561611Y-61284098D01*
X197639789Y-61229357D01*
X197639792Y-61229355D01*
X197644300Y-61226198D01*
X197806198Y-61064300D01*
X197815230Y-61051402D01*
X197907260Y-60919969D01*
X197937523Y-60876749D01*
X197939846Y-60871767D01*
X197939849Y-60871762D01*
X198031961Y-60674225D01*
X198031961Y-60674224D01*
X198034284Y-60669243D01*
X198037042Y-60658952D01*
X198092119Y-60453402D01*
X198092119Y-60453400D01*
X198093543Y-60448087D01*
X198113498Y-60220000D01*
X198093725Y-59993993D01*
X199662000Y-59993993D01*
X199662139Y-59998182D01*
X199676549Y-60215132D01*
X199677653Y-60223403D01*
X199735290Y-60509251D01*
X199737478Y-60517303D01*
X199832409Y-60793005D01*
X199835650Y-60800716D01*
X199966213Y-61061444D01*
X199970434Y-61068638D01*
X200134341Y-61309820D01*
X200139474Y-61316390D01*
X200333839Y-61533775D01*
X200339795Y-61539608D01*
X200561203Y-61729378D01*
X200567884Y-61734376D01*
X200812437Y-61893191D01*
X200819727Y-61897265D01*
X201083132Y-62022338D01*
X201090900Y-62025414D01*
X201368531Y-62114552D01*
X201376637Y-62116573D01*
X201648170Y-62165429D01*
X201661429Y-62163997D01*
X201666000Y-62149387D01*
X201666000Y-62146367D01*
X202174000Y-62146367D01*
X202178295Y-62160996D01*
X202190272Y-62163058D01*
X202262053Y-62156778D01*
X202270292Y-62155503D01*
X202554880Y-62091890D01*
X202562877Y-62089536D01*
X202836534Y-61988850D01*
X202844172Y-61985450D01*
X203102115Y-61849451D01*
X203109213Y-61845084D01*
X203346905Y-61676165D01*
X203353372Y-61670892D01*
X203566639Y-61472017D01*
X203572351Y-61465933D01*
X203757437Y-61240607D01*
X203762292Y-61233826D01*
X203915958Y-60985987D01*
X203919871Y-60978627D01*
X204039404Y-60712654D01*
X204042314Y-60704831D01*
X204125624Y-60425375D01*
X204127469Y-60417254D01*
X204173191Y-60128571D01*
X204173899Y-60121597D01*
X204177936Y-60032714D01*
X204178000Y-60029881D01*
X204178000Y-59993993D01*
X209822000Y-59993993D01*
X209822139Y-59998182D01*
X209836549Y-60215132D01*
X209837653Y-60223403D01*
X209895290Y-60509251D01*
X209897478Y-60517303D01*
X209992409Y-60793005D01*
X209995650Y-60800716D01*
X210126213Y-61061444D01*
X210130434Y-61068638D01*
X210294341Y-61309820D01*
X210299474Y-61316390D01*
X210493839Y-61533775D01*
X210499795Y-61539608D01*
X210721203Y-61729378D01*
X210727884Y-61734376D01*
X210972437Y-61893191D01*
X210979727Y-61897265D01*
X211243132Y-62022338D01*
X211250900Y-62025414D01*
X211528531Y-62114552D01*
X211536637Y-62116573D01*
X211808170Y-62165429D01*
X211821429Y-62163997D01*
X211826000Y-62149387D01*
X211826000Y-58442115D01*
X211821525Y-58426876D01*
X211820135Y-58425671D01*
X211812452Y-58424000D01*
X209840115Y-58424000D01*
X209824876Y-58428475D01*
X209823671Y-58429865D01*
X209822000Y-58437548D01*
X209822000Y-59993993D01*
X204178000Y-59993993D01*
X204178000Y-58442115D01*
X204173525Y-58426876D01*
X204172135Y-58425671D01*
X204164452Y-58424000D01*
X202192115Y-58424000D01*
X202176876Y-58428475D01*
X202175671Y-58429865D01*
X202174000Y-58437548D01*
X202174000Y-62146367D01*
X201666000Y-62146367D01*
X201666000Y-58442115D01*
X201661525Y-58426876D01*
X201660135Y-58425671D01*
X201652452Y-58424000D01*
X199680115Y-58424000D01*
X199664876Y-58428475D01*
X199663671Y-58429865D01*
X199662000Y-58437548D01*
X199662000Y-59993993D01*
X198093725Y-59993993D01*
X198093543Y-59991913D01*
X198092119Y-59986598D01*
X198035707Y-59776067D01*
X198035706Y-59776065D01*
X198034284Y-59770757D01*
X198027434Y-59756067D01*
X197939849Y-59568238D01*
X197939846Y-59568233D01*
X197937523Y-59563251D01*
X197806198Y-59375700D01*
X197644300Y-59213802D01*
X197639792Y-59210645D01*
X197639789Y-59210643D01*
X197561611Y-59155902D01*
X197456749Y-59082477D01*
X197451767Y-59080154D01*
X197451762Y-59080151D01*
X197254225Y-58988039D01*
X197254224Y-58988039D01*
X197249243Y-58985716D01*
X197243935Y-58984294D01*
X197243933Y-58984293D01*
X197033402Y-58927881D01*
X197033400Y-58927881D01*
X197028087Y-58926457D01*
X196800000Y-58906502D01*
X196571913Y-58926457D01*
X196566600Y-58927881D01*
X196566598Y-58927881D01*
X196356067Y-58984293D01*
X196356065Y-58984294D01*
X196350757Y-58985716D01*
X196345776Y-58988039D01*
X196345775Y-58988039D01*
X196148238Y-59080151D01*
X196148233Y-59080154D01*
X196143251Y-59082477D01*
X196038389Y-59155902D01*
X195960211Y-59210643D01*
X195960208Y-59210645D01*
X195955700Y-59213802D01*
X195793802Y-59375700D01*
X195662477Y-59563251D01*
X195660154Y-59568233D01*
X195660151Y-59568238D01*
X195572566Y-59756067D01*
X195565716Y-59770757D01*
X195564294Y-59776065D01*
X195564293Y-59776067D01*
X195507881Y-59986598D01*
X195506457Y-59991913D01*
X195486502Y-60220000D01*
X194135727Y-60220000D01*
X194116417Y-60147934D01*
X194104136Y-60121597D01*
X194021982Y-59945415D01*
X194021979Y-59945410D01*
X194019656Y-59940428D01*
X193900851Y-59770757D01*
X193891490Y-59757388D01*
X193891488Y-59757385D01*
X193888331Y-59752877D01*
X193726433Y-59590979D01*
X193721925Y-59587822D01*
X193721922Y-59587820D01*
X193643744Y-59533079D01*
X193538882Y-59459654D01*
X193533900Y-59457331D01*
X193533895Y-59457328D01*
X193336358Y-59365216D01*
X193336357Y-59365216D01*
X193331376Y-59362893D01*
X193326068Y-59361471D01*
X193326066Y-59361470D01*
X193115535Y-59305058D01*
X193115533Y-59305058D01*
X193110220Y-59303634D01*
X192882133Y-59283679D01*
X192654046Y-59303634D01*
X192648733Y-59305058D01*
X192648731Y-59305058D01*
X192438200Y-59361470D01*
X192438198Y-59361471D01*
X192432890Y-59362893D01*
X192427909Y-59365216D01*
X192427908Y-59365216D01*
X192230371Y-59457328D01*
X192230366Y-59457331D01*
X192225384Y-59459654D01*
X192120522Y-59533079D01*
X192042344Y-59587820D01*
X192042341Y-59587822D01*
X192037833Y-59590979D01*
X191875935Y-59752877D01*
X191872778Y-59757385D01*
X191872776Y-59757388D01*
X191863415Y-59770757D01*
X191744610Y-59940428D01*
X191742287Y-59945410D01*
X191742284Y-59945415D01*
X191660130Y-60121597D01*
X191647849Y-60147934D01*
X191588590Y-60369090D01*
X191568635Y-60597177D01*
X190382933Y-60597177D01*
X190355464Y-60542884D01*
X190357659Y-60487369D01*
X190372118Y-60433409D01*
X190372121Y-60433394D01*
X190373543Y-60428087D01*
X190393498Y-60200000D01*
X190373543Y-59971913D01*
X190314284Y-59750757D01*
X190229175Y-59568238D01*
X190219849Y-59548238D01*
X190219846Y-59548233D01*
X190217523Y-59543251D01*
X190100202Y-59375700D01*
X190089357Y-59360211D01*
X190089355Y-59360208D01*
X190086198Y-59355700D01*
X189924300Y-59193802D01*
X189919792Y-59190645D01*
X189919789Y-59190643D01*
X189841611Y-59135902D01*
X189736749Y-59062477D01*
X189731767Y-59060154D01*
X189731762Y-59060151D01*
X189534225Y-58968039D01*
X189534224Y-58968039D01*
X189529243Y-58965716D01*
X189523935Y-58964294D01*
X189523933Y-58964293D01*
X189313402Y-58907881D01*
X189313400Y-58907881D01*
X189308087Y-58906457D01*
X189080000Y-58886502D01*
X188851913Y-58906457D01*
X188846600Y-58907881D01*
X188846598Y-58907881D01*
X188636067Y-58964293D01*
X188636065Y-58964294D01*
X188630757Y-58965716D01*
X188625776Y-58968039D01*
X188625775Y-58968039D01*
X188428238Y-59060151D01*
X188428233Y-59060154D01*
X188423251Y-59062477D01*
X188318389Y-59135902D01*
X188240211Y-59190643D01*
X188240208Y-59190645D01*
X188235700Y-59193802D01*
X188073802Y-59355700D01*
X188070645Y-59360208D01*
X188070643Y-59360211D01*
X188059798Y-59375700D01*
X187942477Y-59543251D01*
X187940154Y-59548233D01*
X187940151Y-59548238D01*
X187930825Y-59568238D01*
X187845716Y-59750757D01*
X187786457Y-59971913D01*
X187766502Y-60200000D01*
X187786457Y-60428087D01*
X187787881Y-60433400D01*
X187787881Y-60433402D01*
X187841019Y-60631712D01*
X187845716Y-60649243D01*
X187848039Y-60654224D01*
X187848039Y-60654225D01*
X187940151Y-60851762D01*
X187940154Y-60851767D01*
X187942477Y-60856749D01*
X187986744Y-60919969D01*
X188067863Y-61035818D01*
X188073802Y-61044300D01*
X188235700Y-61206198D01*
X188240208Y-61209355D01*
X188240211Y-61209357D01*
X188318389Y-61264098D01*
X188423251Y-61337523D01*
X188428233Y-61339846D01*
X188428238Y-61339849D01*
X188625775Y-61431961D01*
X188630757Y-61434284D01*
X188636065Y-61435706D01*
X188636067Y-61435707D01*
X188846598Y-61492119D01*
X188846600Y-61492119D01*
X188851913Y-61493543D01*
X189080000Y-61513498D01*
X189085475Y-61513019D01*
X189085486Y-61513019D01*
X189153927Y-61507031D01*
X189223532Y-61521019D01*
X189274524Y-61570418D01*
X189290909Y-61632551D01*
X189290909Y-62272832D01*
X189270907Y-62340953D01*
X189217251Y-62387446D01*
X189146977Y-62397550D01*
X189132304Y-62394540D01*
X189027496Y-62366457D01*
X188799409Y-62346502D01*
X188571322Y-62366457D01*
X188566009Y-62367881D01*
X188566007Y-62367881D01*
X188355476Y-62424293D01*
X188355474Y-62424294D01*
X188350166Y-62425716D01*
X188345185Y-62428039D01*
X188345184Y-62428039D01*
X188147647Y-62520151D01*
X188147642Y-62520154D01*
X188142660Y-62522477D01*
X188037798Y-62595902D01*
X187959620Y-62650643D01*
X187959617Y-62650645D01*
X187955109Y-62653802D01*
X187793211Y-62815700D01*
X187661886Y-63003251D01*
X187659563Y-63008233D01*
X187659560Y-63008238D01*
X187567448Y-63205775D01*
X187565125Y-63210757D01*
X187505866Y-63431913D01*
X187485911Y-63660000D01*
X187505866Y-63888087D01*
X187507290Y-63893400D01*
X187507290Y-63893402D01*
X187557902Y-64082285D01*
X187565125Y-64109243D01*
X187567448Y-64114224D01*
X187567448Y-64114225D01*
X187659560Y-64311762D01*
X187659563Y-64311767D01*
X187661886Y-64316749D01*
X187793211Y-64504300D01*
X187955109Y-64666198D01*
X187959617Y-64669355D01*
X187959620Y-64669357D01*
X188006119Y-64701916D01*
X188142660Y-64797523D01*
X188147642Y-64799846D01*
X188147647Y-64799849D01*
X188307908Y-64874579D01*
X188350166Y-64894284D01*
X188355474Y-64895706D01*
X188355476Y-64895707D01*
X188566007Y-64952119D01*
X188566009Y-64952119D01*
X188571322Y-64953543D01*
X188799409Y-64973498D01*
X189027496Y-64953543D01*
X189132299Y-64925461D01*
X189203274Y-64927151D01*
X189262070Y-64966945D01*
X189290018Y-65032209D01*
X189290909Y-65047168D01*
X189290909Y-78166000D01*
X189270907Y-78234121D01*
X189217251Y-78280614D01*
X189164909Y-78292000D01*
X188672115Y-78292000D01*
X188656876Y-78296475D01*
X188655671Y-78297865D01*
X188654000Y-78305548D01*
X188654000Y-79578000D01*
X188633998Y-79646121D01*
X188580342Y-79692614D01*
X188528000Y-79704000D01*
X188272000Y-79704000D01*
X188203879Y-79683998D01*
X188157386Y-79630342D01*
X188146000Y-79578000D01*
X188146000Y-78310116D01*
X188141525Y-78294877D01*
X188140135Y-78293672D01*
X188132452Y-78292001D01*
X187555331Y-78292001D01*
X187548510Y-78292371D01*
X187497648Y-78297895D01*
X187482396Y-78301521D01*
X187361946Y-78346676D01*
X187346351Y-78355214D01*
X187244276Y-78431715D01*
X187231715Y-78444276D01*
X187155214Y-78546351D01*
X187146676Y-78561946D01*
X187101522Y-78682394D01*
X187097895Y-78697649D01*
X187092369Y-78748514D01*
X187092000Y-78755328D01*
X187092000Y-79131275D01*
X187071998Y-79199396D01*
X187018342Y-79245889D01*
X186948068Y-79255993D01*
X186883488Y-79226499D01*
X186865174Y-79206840D01*
X186818285Y-79144276D01*
X186805724Y-79131715D01*
X186703649Y-79055214D01*
X186688054Y-79046676D01*
X186567606Y-79001522D01*
X186552351Y-78997895D01*
X186501486Y-78992369D01*
X186494672Y-78992000D01*
X185922115Y-78992000D01*
X185906876Y-78996475D01*
X185905671Y-78997865D01*
X185904000Y-79005548D01*
X185904000Y-80278000D01*
X185883998Y-80346121D01*
X185830342Y-80392614D01*
X185778000Y-80404000D01*
X184360116Y-80404000D01*
X184344877Y-80408475D01*
X184343672Y-80409865D01*
X184342001Y-80417548D01*
X184342001Y-80844669D01*
X184342371Y-80851490D01*
X184347895Y-80902352D01*
X184351521Y-80917604D01*
X184396676Y-81038054D01*
X184405214Y-81053649D01*
X184481715Y-81155724D01*
X184494276Y-81168285D01*
X184596351Y-81244786D01*
X184611946Y-81253324D01*
X184687774Y-81281751D01*
X184744538Y-81324393D01*
X184769238Y-81390954D01*
X184754030Y-81460303D01*
X184703744Y-81510421D01*
X184687774Y-81517715D01*
X184618787Y-81543577D01*
X184603295Y-81549385D01*
X184486739Y-81636739D01*
X184399385Y-81753295D01*
X184348255Y-81889684D01*
X184341500Y-81951866D01*
X184341500Y-82040500D01*
X184321498Y-82108621D01*
X184267842Y-82155114D01*
X184215500Y-82166500D01*
X184184500Y-82166500D01*
X184116379Y-82146498D01*
X184069886Y-82092842D01*
X184058500Y-82040500D01*
X184058500Y-80351866D01*
X184051745Y-80289684D01*
X184000615Y-80153295D01*
X183913261Y-80036739D01*
X183796705Y-79949385D01*
X183660316Y-79898255D01*
X183598134Y-79891500D01*
X182366371Y-79891500D01*
X182320002Y-79877885D01*
X184342000Y-79877885D01*
X184346475Y-79893124D01*
X184347865Y-79894329D01*
X184355548Y-79896000D01*
X185377885Y-79896000D01*
X185393124Y-79891525D01*
X185394329Y-79890135D01*
X185396000Y-79882452D01*
X185396000Y-79010116D01*
X185391525Y-78994877D01*
X185390135Y-78993672D01*
X185382452Y-78992001D01*
X184805331Y-78992001D01*
X184798510Y-78992371D01*
X184747648Y-78997895D01*
X184732396Y-79001521D01*
X184611946Y-79046676D01*
X184596351Y-79055214D01*
X184494276Y-79131715D01*
X184481715Y-79144276D01*
X184405214Y-79246351D01*
X184396676Y-79261946D01*
X184351522Y-79382394D01*
X184347895Y-79397649D01*
X184342369Y-79448514D01*
X184342000Y-79455328D01*
X184342000Y-79877885D01*
X182320002Y-79877885D01*
X182298250Y-79871498D01*
X182277276Y-79854595D01*
X182183770Y-79761089D01*
X182171384Y-79746677D01*
X182162851Y-79735082D01*
X182162846Y-79735077D01*
X182158508Y-79729182D01*
X182152930Y-79724443D01*
X182152927Y-79724440D01*
X182118232Y-79694965D01*
X182110716Y-79688035D01*
X182105021Y-79682340D01*
X182092711Y-79672601D01*
X182082749Y-79664719D01*
X182079345Y-79661928D01*
X182029297Y-79619409D01*
X182029295Y-79619408D01*
X182023715Y-79614667D01*
X182017199Y-79611339D01*
X182012150Y-79607972D01*
X182007021Y-79604805D01*
X182001284Y-79600266D01*
X181935125Y-79569345D01*
X181931225Y-79567439D01*
X181866192Y-79534231D01*
X181859084Y-79532492D01*
X181853441Y-79530393D01*
X181847678Y-79528476D01*
X181841050Y-79525378D01*
X181769583Y-79510513D01*
X181765299Y-79509543D01*
X181694390Y-79492192D01*
X181688788Y-79491844D01*
X181688785Y-79491844D01*
X181683236Y-79491500D01*
X181683238Y-79491464D01*
X181679245Y-79491225D01*
X181675053Y-79490851D01*
X181667885Y-79489360D01*
X181612622Y-79490855D01*
X181590479Y-79491454D01*
X181587072Y-79491500D01*
X180133754Y-79491500D01*
X180098602Y-79486497D01*
X179960011Y-79446233D01*
X179960007Y-79446232D01*
X179953831Y-79444438D01*
X179947426Y-79443934D01*
X179947421Y-79443933D01*
X179918958Y-79441693D01*
X179918950Y-79441693D01*
X179916502Y-79441500D01*
X178758498Y-79441500D01*
X178756050Y-79441693D01*
X178756042Y-79441693D01*
X178727579Y-79443933D01*
X178727574Y-79443934D01*
X178721169Y-79444438D01*
X178621890Y-79473281D01*
X178569012Y-79488643D01*
X178569010Y-79488644D01*
X178561399Y-79490855D01*
X178554572Y-79494892D01*
X178554573Y-79494892D01*
X178425020Y-79571509D01*
X178425017Y-79571511D01*
X178418193Y-79575547D01*
X178300547Y-79693193D01*
X178298294Y-79697002D01*
X178242004Y-79737655D01*
X178171112Y-79741506D01*
X178109391Y-79706418D01*
X178102724Y-79698724D01*
X178099453Y-79693193D01*
X177981807Y-79575547D01*
X177974983Y-79571511D01*
X177974980Y-79571509D01*
X177845427Y-79494892D01*
X177845428Y-79494892D01*
X177838601Y-79490855D01*
X177830990Y-79488644D01*
X177830988Y-79488643D01*
X177786847Y-79475819D01*
X177727011Y-79437606D01*
X177697334Y-79373110D01*
X177696000Y-79354822D01*
X177696000Y-78422094D01*
X177716002Y-78353973D01*
X177732905Y-78332999D01*
X177734611Y-78331293D01*
X177796923Y-78297267D01*
X177873747Y-78304751D01*
X177874575Y-78305109D01*
X177881399Y-78309145D01*
X177889010Y-78311356D01*
X177889012Y-78311357D01*
X177917716Y-78319696D01*
X178041169Y-78355562D01*
X178047574Y-78356066D01*
X178047579Y-78356067D01*
X178076042Y-78358307D01*
X178076050Y-78358307D01*
X178078498Y-78358500D01*
X178511502Y-78358500D01*
X178513950Y-78358307D01*
X178513958Y-78358307D01*
X178542421Y-78356067D01*
X178542426Y-78356066D01*
X178548831Y-78355562D01*
X178672284Y-78319696D01*
X178700988Y-78311357D01*
X178700990Y-78311356D01*
X178708601Y-78309145D01*
X178851807Y-78224453D01*
X178854489Y-78221771D01*
X178918861Y-78196498D01*
X178988484Y-78210400D01*
X179004312Y-78220572D01*
X179008193Y-78224453D01*
X179151399Y-78309145D01*
X179159010Y-78311356D01*
X179159012Y-78311357D01*
X179187716Y-78319696D01*
X179311169Y-78355562D01*
X179317574Y-78356066D01*
X179317579Y-78356067D01*
X179346042Y-78358307D01*
X179346050Y-78358307D01*
X179348498Y-78358500D01*
X179781502Y-78358500D01*
X179783950Y-78358307D01*
X179783958Y-78358307D01*
X179812421Y-78356067D01*
X179812426Y-78356066D01*
X179818831Y-78355562D01*
X179942284Y-78319696D01*
X179970988Y-78311357D01*
X179970990Y-78311356D01*
X179978601Y-78309145D01*
X180121807Y-78224453D01*
X180124489Y-78221771D01*
X180188861Y-78196498D01*
X180258484Y-78210400D01*
X180274312Y-78220572D01*
X180278193Y-78224453D01*
X180421399Y-78309145D01*
X180429010Y-78311356D01*
X180429012Y-78311357D01*
X180457716Y-78319696D01*
X180581169Y-78355562D01*
X180587574Y-78356066D01*
X180587579Y-78356067D01*
X180616042Y-78358307D01*
X180616050Y-78358307D01*
X180618498Y-78358500D01*
X181051502Y-78358500D01*
X181053950Y-78358307D01*
X181053958Y-78358307D01*
X181082421Y-78356067D01*
X181082426Y-78356066D01*
X181088831Y-78355562D01*
X181212284Y-78319696D01*
X181240988Y-78311357D01*
X181240990Y-78311356D01*
X181248601Y-78309145D01*
X181391807Y-78224453D01*
X181394489Y-78221771D01*
X181458861Y-78196498D01*
X181528484Y-78210400D01*
X181544312Y-78220572D01*
X181548193Y-78224453D01*
X181691399Y-78309145D01*
X181699010Y-78311356D01*
X181699012Y-78311357D01*
X181727716Y-78319696D01*
X181851169Y-78355562D01*
X181857574Y-78356066D01*
X181857579Y-78356067D01*
X181886042Y-78358307D01*
X181886050Y-78358307D01*
X181888498Y-78358500D01*
X182321502Y-78358500D01*
X182323950Y-78358307D01*
X182323958Y-78358307D01*
X182352421Y-78356067D01*
X182352426Y-78356066D01*
X182358831Y-78355562D01*
X182482284Y-78319696D01*
X182510988Y-78311357D01*
X182510990Y-78311356D01*
X182518601Y-78309145D01*
X182547592Y-78292000D01*
X182654980Y-78228491D01*
X182654983Y-78228489D01*
X182661807Y-78224453D01*
X182779453Y-78106807D01*
X182783489Y-78099983D01*
X182783491Y-78099980D01*
X182860108Y-77970427D01*
X182864145Y-77963601D01*
X182875686Y-77923878D01*
X182883740Y-77896155D01*
X182910562Y-77803831D01*
X182913500Y-77766502D01*
X182913500Y-77332670D01*
X184132160Y-77332670D01*
X184137887Y-77340320D01*
X184309042Y-77445205D01*
X184317837Y-77449687D01*
X184527988Y-77536734D01*
X184537373Y-77539783D01*
X184758554Y-77592885D01*
X184768301Y-77594428D01*
X184995070Y-77612275D01*
X185004930Y-77612275D01*
X185231699Y-77594428D01*
X185241446Y-77592885D01*
X185462627Y-77539783D01*
X185472012Y-77536734D01*
X185682163Y-77449687D01*
X185690958Y-77445205D01*
X185858445Y-77342568D01*
X185867907Y-77332110D01*
X185864124Y-77323334D01*
X185012812Y-76472022D01*
X184998868Y-76464408D01*
X184997035Y-76464539D01*
X184990420Y-76468790D01*
X184138920Y-77320290D01*
X184132160Y-77332670D01*
X182913500Y-77332670D01*
X182913500Y-76104930D01*
X183487725Y-76104930D01*
X183505572Y-76331699D01*
X183507115Y-76341446D01*
X183560217Y-76562627D01*
X183563266Y-76572012D01*
X183650313Y-76782163D01*
X183654795Y-76790958D01*
X183757432Y-76958445D01*
X183767890Y-76967907D01*
X183776666Y-76964124D01*
X184627978Y-76112812D01*
X184634356Y-76101132D01*
X185364408Y-76101132D01*
X185364539Y-76102965D01*
X185368790Y-76109580D01*
X186220290Y-76961080D01*
X186232670Y-76967840D01*
X186240320Y-76962113D01*
X186345205Y-76790958D01*
X186349687Y-76782163D01*
X186436734Y-76572012D01*
X186439783Y-76562627D01*
X186492885Y-76341446D01*
X186494428Y-76331699D01*
X186512275Y-76104930D01*
X186512275Y-76095070D01*
X186494428Y-75868301D01*
X186492885Y-75858554D01*
X186439783Y-75637373D01*
X186436734Y-75627988D01*
X186349687Y-75417837D01*
X186345205Y-75409042D01*
X186242568Y-75241555D01*
X186232110Y-75232093D01*
X186223334Y-75235876D01*
X185372022Y-76087188D01*
X185364408Y-76101132D01*
X184634356Y-76101132D01*
X184635592Y-76098868D01*
X184635461Y-76097035D01*
X184631210Y-76090420D01*
X183779710Y-75238920D01*
X183767330Y-75232160D01*
X183759680Y-75237887D01*
X183654795Y-75409042D01*
X183650313Y-75417837D01*
X183563266Y-75627988D01*
X183560217Y-75637373D01*
X183507115Y-75858554D01*
X183505572Y-75868301D01*
X183487725Y-76095070D01*
X183487725Y-76104930D01*
X182913500Y-76104930D01*
X182913500Y-75983498D01*
X182910562Y-75946169D01*
X182864145Y-75786399D01*
X182829595Y-75727978D01*
X182783491Y-75650020D01*
X182783489Y-75650017D01*
X182779453Y-75643193D01*
X182661807Y-75525547D01*
X182654983Y-75521511D01*
X182654980Y-75521509D01*
X182525427Y-75444892D01*
X182525428Y-75444892D01*
X182518601Y-75440855D01*
X182510990Y-75438644D01*
X182510988Y-75438643D01*
X182451643Y-75421402D01*
X182358831Y-75394438D01*
X182352426Y-75393934D01*
X182352421Y-75393933D01*
X182323958Y-75391693D01*
X182323950Y-75391693D01*
X182321502Y-75391500D01*
X181888498Y-75391500D01*
X181886050Y-75391693D01*
X181886042Y-75391693D01*
X181857579Y-75393933D01*
X181857574Y-75393934D01*
X181851169Y-75394438D01*
X181758357Y-75421402D01*
X181699012Y-75438643D01*
X181699010Y-75438644D01*
X181691399Y-75440855D01*
X181548193Y-75525547D01*
X181545511Y-75528229D01*
X181481139Y-75553502D01*
X181411516Y-75539600D01*
X181395688Y-75529428D01*
X181391807Y-75525547D01*
X181248601Y-75440855D01*
X181240990Y-75438644D01*
X181240988Y-75438643D01*
X181181643Y-75421402D01*
X181088831Y-75394438D01*
X181082426Y-75393934D01*
X181082421Y-75393933D01*
X181053958Y-75391693D01*
X181053950Y-75391693D01*
X181051502Y-75391500D01*
X180618498Y-75391500D01*
X180616050Y-75391693D01*
X180616042Y-75391693D01*
X180587579Y-75393933D01*
X180587574Y-75393934D01*
X180581169Y-75394438D01*
X180488357Y-75421402D01*
X180429012Y-75438643D01*
X180429010Y-75438644D01*
X180421399Y-75440855D01*
X180278193Y-75525547D01*
X180275511Y-75528229D01*
X180211139Y-75553502D01*
X180141516Y-75539600D01*
X180125688Y-75529428D01*
X180121807Y-75525547D01*
X179978601Y-75440855D01*
X179970990Y-75438644D01*
X179970988Y-75438643D01*
X179911643Y-75421402D01*
X179818831Y-75394438D01*
X179812426Y-75393934D01*
X179812421Y-75393933D01*
X179783958Y-75391693D01*
X179783950Y-75391693D01*
X179781502Y-75391500D01*
X179406346Y-75391500D01*
X179338225Y-75371498D01*
X179317251Y-75354595D01*
X179145403Y-75182747D01*
X179137863Y-75174461D01*
X179133751Y-75167982D01*
X179127130Y-75161764D01*
X179084100Y-75121357D01*
X179081258Y-75118602D01*
X179061521Y-75098865D01*
X179058324Y-75096385D01*
X179049302Y-75088680D01*
X179035867Y-75076064D01*
X179017072Y-75058414D01*
X179010126Y-75054595D01*
X179010123Y-75054593D01*
X178999317Y-75048652D01*
X178982798Y-75037801D01*
X178982334Y-75037441D01*
X178966792Y-75025386D01*
X178959523Y-75022241D01*
X178959519Y-75022238D01*
X178926214Y-75007826D01*
X178915564Y-75002609D01*
X178876811Y-74981305D01*
X178857188Y-74976267D01*
X178838485Y-74969863D01*
X178827171Y-74964967D01*
X178827170Y-74964967D01*
X178819896Y-74961819D01*
X178812073Y-74960580D01*
X178812063Y-74960577D01*
X178776227Y-74954901D01*
X178764607Y-74952495D01*
X178729462Y-74943472D01*
X178729461Y-74943472D01*
X178721781Y-74941500D01*
X178701527Y-74941500D01*
X178681816Y-74939949D01*
X178679285Y-74939548D01*
X178661808Y-74936780D01*
X178653916Y-74937526D01*
X178617790Y-74940941D01*
X178605932Y-74941500D01*
X177903763Y-74941500D01*
X177892579Y-74940973D01*
X177885091Y-74939299D01*
X177877168Y-74939548D01*
X177817033Y-74941438D01*
X177813075Y-74941500D01*
X177785144Y-74941500D01*
X177781229Y-74941995D01*
X177781225Y-74941995D01*
X177781167Y-74942003D01*
X177781138Y-74942006D01*
X177769296Y-74942939D01*
X177725110Y-74944327D01*
X177707744Y-74949372D01*
X177705658Y-74949978D01*
X177686306Y-74953986D01*
X177679235Y-74954880D01*
X177666203Y-74956526D01*
X177658834Y-74959443D01*
X177658832Y-74959444D01*
X177625097Y-74972800D01*
X177613869Y-74976645D01*
X177571407Y-74988982D01*
X177564585Y-74993016D01*
X177564579Y-74993019D01*
X177553968Y-74999294D01*
X177536218Y-75007990D01*
X177524756Y-75012528D01*
X177524751Y-75012531D01*
X177517383Y-75015448D01*
X177499970Y-75028099D01*
X177481625Y-75041427D01*
X177471707Y-75047943D01*
X177460463Y-75054593D01*
X177433637Y-75070458D01*
X177419313Y-75084782D01*
X177404281Y-75097621D01*
X177387893Y-75109528D01*
X177363578Y-75138920D01*
X177359712Y-75143593D01*
X177351722Y-75152373D01*
X177069107Y-75434988D01*
X177006795Y-75469014D01*
X176935980Y-75463949D01*
X176879144Y-75421402D01*
X176863603Y-75394110D01*
X176832012Y-75317841D01*
X176827528Y-75309042D01*
X176724891Y-75141555D01*
X176714433Y-75132093D01*
X176705657Y-75135876D01*
X174621243Y-77220290D01*
X174614483Y-77232670D01*
X174620210Y-77240320D01*
X174791365Y-77345205D01*
X174800164Y-77349689D01*
X174876433Y-77381280D01*
X174931715Y-77425828D01*
X174954136Y-77493191D01*
X174936578Y-77561982D01*
X174917311Y-77586784D01*
X174670671Y-77833424D01*
X174662385Y-77840964D01*
X174655906Y-77845076D01*
X174650481Y-77850853D01*
X174609281Y-77894727D01*
X174606526Y-77897569D01*
X174586789Y-77917306D01*
X174584309Y-77920503D01*
X174576606Y-77929523D01*
X174546338Y-77961755D01*
X174542519Y-77968701D01*
X174542517Y-77968704D01*
X174536576Y-77979510D01*
X174525725Y-77996029D01*
X174513310Y-78012035D01*
X174510165Y-78019304D01*
X174510162Y-78019308D01*
X174495750Y-78052613D01*
X174490533Y-78063263D01*
X174469229Y-78102016D01*
X174467258Y-78109691D01*
X174467258Y-78109692D01*
X174464191Y-78121638D01*
X174457787Y-78140342D01*
X174449743Y-78158931D01*
X174448504Y-78166754D01*
X174448501Y-78166764D01*
X174442825Y-78202600D01*
X174440419Y-78214220D01*
X174429424Y-78257046D01*
X174429424Y-78277300D01*
X174427873Y-78297010D01*
X174424704Y-78317019D01*
X174425450Y-78324911D01*
X174428865Y-78361037D01*
X174429424Y-78372895D01*
X174429424Y-82956980D01*
X174409422Y-83025101D01*
X174355766Y-83071594D01*
X174285492Y-83081698D01*
X174238152Y-83064755D01*
X174206473Y-83045569D01*
X174201072Y-83042649D01*
X173835404Y-82867449D01*
X173829737Y-82865067D01*
X173448739Y-82726396D01*
X173442851Y-82724574D01*
X173050140Y-82623742D01*
X173044117Y-82622506D01*
X172643415Y-82560474D01*
X172637328Y-82559834D01*
X172232483Y-82537200D01*
X172226331Y-82537157D01*
X171821238Y-82554135D01*
X171815112Y-82554692D01*
X171413601Y-82611121D01*
X171407548Y-82612276D01*
X171013463Y-82707615D01*
X171007566Y-82709351D01*
X170624669Y-82842690D01*
X170618956Y-82844998D01*
X170250896Y-83015065D01*
X170245442Y-83017917D01*
X169895731Y-83223091D01*
X169890583Y-83226460D01*
X169562552Y-83464788D01*
X169557782Y-83468623D01*
X169423037Y-83588255D01*
X169414661Y-83601641D01*
X169420411Y-83611200D01*
X172200000Y-86390790D01*
X175338830Y-89529619D01*
X175352774Y-89537233D01*
X175353789Y-89537161D01*
X175361520Y-89532058D01*
X175387160Y-89505133D01*
X175391172Y-89500485D01*
X175640783Y-89180998D01*
X175644355Y-89175935D01*
X175861593Y-88833621D01*
X175864636Y-88828265D01*
X176047452Y-88466353D01*
X176049947Y-88460749D01*
X176196572Y-88082724D01*
X176198513Y-88076890D01*
X176307553Y-87686351D01*
X176308909Y-87680380D01*
X176379322Y-87281056D01*
X176380089Y-87274982D01*
X176411282Y-86869591D01*
X176411459Y-86865676D01*
X176413047Y-86751974D01*
X176412979Y-86748030D01*
X176393118Y-86341949D01*
X176392517Y-86335825D01*
X176333290Y-85934737D01*
X176332090Y-85928675D01*
X176275768Y-85702780D01*
X176278696Y-85631844D01*
X176319510Y-85573752D01*
X176385252Y-85546947D01*
X176455050Y-85559941D01*
X176487120Y-85583203D01*
X176729595Y-85825678D01*
X176763621Y-85887990D01*
X176766500Y-85914773D01*
X176766500Y-88979835D01*
X176765973Y-88991018D01*
X176764298Y-88998511D01*
X176764547Y-89006437D01*
X176764547Y-89006438D01*
X176766438Y-89066588D01*
X176766500Y-89070547D01*
X176766500Y-89098458D01*
X176766997Y-89102392D01*
X176766997Y-89102393D01*
X176767005Y-89102458D01*
X176767938Y-89114295D01*
X176769327Y-89158491D01*
X176771654Y-89166500D01*
X176774978Y-89177941D01*
X176778987Y-89197302D01*
X176781526Y-89217399D01*
X176784445Y-89224770D01*
X176784445Y-89224772D01*
X176797804Y-89258514D01*
X176801649Y-89269744D01*
X176813982Y-89312195D01*
X176818015Y-89319014D01*
X176818017Y-89319019D01*
X176824293Y-89329630D01*
X176832988Y-89347378D01*
X176840448Y-89366219D01*
X176845110Y-89372635D01*
X176845110Y-89372636D01*
X176866436Y-89401989D01*
X176872952Y-89411909D01*
X176895458Y-89449964D01*
X176909779Y-89464285D01*
X176922619Y-89479318D01*
X176934528Y-89495709D01*
X176945920Y-89505133D01*
X176968593Y-89523890D01*
X176977374Y-89531880D01*
X177637751Y-90192258D01*
X177645285Y-90200537D01*
X177649398Y-90207018D01*
X177670493Y-90226827D01*
X177699049Y-90253643D01*
X177701891Y-90256398D01*
X177721628Y-90276135D01*
X177720277Y-90277486D01*
X177754049Y-90331089D01*
X177753411Y-90402083D01*
X177714493Y-90461462D01*
X177649650Y-90490374D01*
X177632839Y-90491500D01*
X174593443Y-90491500D01*
X174525322Y-90471498D01*
X174478829Y-90417842D01*
X174468725Y-90347568D01*
X174498219Y-90282988D01*
X174520812Y-90262540D01*
X174791315Y-90071721D01*
X174796153Y-90067941D01*
X174977043Y-89911802D01*
X174985458Y-89898762D01*
X174979519Y-89888730D01*
X171840790Y-86750000D01*
X169062374Y-83971585D01*
X169048430Y-83963971D01*
X169047885Y-83964010D01*
X169039525Y-83969612D01*
X168974692Y-84039625D01*
X168970734Y-84044342D01*
X168734863Y-84355091D01*
X168677745Y-84397258D01*
X168606897Y-84401851D01*
X168544813Y-84367412D01*
X168511204Y-84304874D01*
X168508500Y-84278912D01*
X168508500Y-77048134D01*
X170473823Y-77048134D01*
X170480578Y-77110316D01*
X170531708Y-77246705D01*
X170619062Y-77363261D01*
X170735618Y-77450615D01*
X170872007Y-77501745D01*
X170934189Y-77508500D01*
X173030457Y-77508500D01*
X173092639Y-77501745D01*
X173229028Y-77450615D01*
X173345584Y-77363261D01*
X173432938Y-77246705D01*
X173484068Y-77110316D01*
X173490823Y-77048134D01*
X173490823Y-76004930D01*
X173970048Y-76004930D01*
X173987895Y-76231699D01*
X173989438Y-76241446D01*
X174042540Y-76462627D01*
X174045589Y-76472012D01*
X174132636Y-76682163D01*
X174137118Y-76690958D01*
X174239755Y-76858445D01*
X174250213Y-76867907D01*
X174258989Y-76864124D01*
X175110301Y-76012812D01*
X175117915Y-75998868D01*
X175117784Y-75997035D01*
X175113533Y-75990420D01*
X174262033Y-75138920D01*
X174249653Y-75132160D01*
X174242003Y-75137887D01*
X174137118Y-75309042D01*
X174132636Y-75317837D01*
X174045589Y-75527988D01*
X174042540Y-75537373D01*
X173989438Y-75758554D01*
X173987895Y-75768301D01*
X173970048Y-75995070D01*
X173970048Y-76004930D01*
X173490823Y-76004930D01*
X173490823Y-74951866D01*
X173484068Y-74889684D01*
X173438409Y-74767890D01*
X174614416Y-74767890D01*
X174618199Y-74776666D01*
X175469511Y-75627978D01*
X175483455Y-75635592D01*
X175485288Y-75635461D01*
X175491903Y-75631210D01*
X176255223Y-74867890D01*
X184132093Y-74867890D01*
X184135876Y-74876666D01*
X184987188Y-75727978D01*
X185001132Y-75735592D01*
X185002965Y-75735461D01*
X185009580Y-75731210D01*
X185861080Y-74879710D01*
X185867840Y-74867330D01*
X185862113Y-74859680D01*
X185690958Y-74754795D01*
X185682163Y-74750313D01*
X185472012Y-74663266D01*
X185462627Y-74660217D01*
X185241446Y-74607115D01*
X185231699Y-74605572D01*
X185004930Y-74587725D01*
X184995070Y-74587725D01*
X184768301Y-74605572D01*
X184758554Y-74607115D01*
X184537373Y-74660217D01*
X184527988Y-74663266D01*
X184317837Y-74750313D01*
X184309042Y-74754795D01*
X184141555Y-74857432D01*
X184132093Y-74867890D01*
X176255223Y-74867890D01*
X176343403Y-74779710D01*
X176350163Y-74767330D01*
X176344436Y-74759680D01*
X176173281Y-74654795D01*
X176164486Y-74650313D01*
X175954335Y-74563266D01*
X175944950Y-74560217D01*
X175723769Y-74507115D01*
X175714022Y-74505572D01*
X175487253Y-74487725D01*
X175477393Y-74487725D01*
X175250624Y-74505572D01*
X175240877Y-74507115D01*
X175019696Y-74560217D01*
X175010311Y-74563266D01*
X174800160Y-74650313D01*
X174791365Y-74654795D01*
X174623878Y-74757432D01*
X174614416Y-74767890D01*
X173438409Y-74767890D01*
X173432938Y-74753295D01*
X173345584Y-74636739D01*
X173229028Y-74549385D01*
X173092639Y-74498255D01*
X173030457Y-74491500D01*
X170934189Y-74491500D01*
X170872007Y-74498255D01*
X170735618Y-74549385D01*
X170619062Y-74636739D01*
X170531708Y-74753295D01*
X170480578Y-74889684D01*
X170473823Y-74951866D01*
X170473823Y-77048134D01*
X168508500Y-77048134D01*
X168508500Y-73648134D01*
X183491500Y-73648134D01*
X183498255Y-73710316D01*
X183549385Y-73846705D01*
X183636739Y-73963261D01*
X183753295Y-74050615D01*
X183889684Y-74101745D01*
X183951866Y-74108500D01*
X186048134Y-74108500D01*
X186110316Y-74101745D01*
X186246705Y-74050615D01*
X186363261Y-73963261D01*
X186450615Y-73846705D01*
X186501745Y-73710316D01*
X186508500Y-73648134D01*
X186508500Y-71551866D01*
X186501745Y-71489684D01*
X186450615Y-71353295D01*
X186363261Y-71236739D01*
X186246705Y-71149385D01*
X186110316Y-71098255D01*
X186048134Y-71091500D01*
X183951866Y-71091500D01*
X183889684Y-71098255D01*
X183753295Y-71149385D01*
X183636739Y-71236739D01*
X183549385Y-71353295D01*
X183498255Y-71489684D01*
X183491500Y-71551866D01*
X183491500Y-73648134D01*
X168508500Y-73648134D01*
X168508500Y-72813984D01*
X177487001Y-72813984D01*
X177487195Y-72818920D01*
X177489430Y-72847336D01*
X177491730Y-72859931D01*
X177534107Y-73005790D01*
X177540352Y-73020221D01*
X177616911Y-73149678D01*
X177626551Y-73162104D01*
X177732896Y-73268449D01*
X177745322Y-73278089D01*
X177874779Y-73354648D01*
X177889210Y-73360893D01*
X178023605Y-73399939D01*
X178037706Y-73399899D01*
X178041000Y-73392630D01*
X178041000Y-72197115D01*
X178036525Y-72181876D01*
X178035135Y-72180671D01*
X178027452Y-72179000D01*
X177505116Y-72179000D01*
X177489877Y-72183475D01*
X177488672Y-72184865D01*
X177487001Y-72192548D01*
X177487001Y-72813984D01*
X168508500Y-72813984D01*
X168508500Y-66248134D01*
X170473823Y-66248134D01*
X170480578Y-66310316D01*
X170531708Y-66446705D01*
X170619062Y-66563261D01*
X170735618Y-66650615D01*
X170872007Y-66701745D01*
X170934189Y-66708500D01*
X173030457Y-66708500D01*
X173092639Y-66701745D01*
X173229028Y-66650615D01*
X173345584Y-66563261D01*
X173432938Y-66446705D01*
X173438199Y-66432670D01*
X174614483Y-66432670D01*
X174620210Y-66440320D01*
X174791365Y-66545205D01*
X174800160Y-66549687D01*
X175010311Y-66636734D01*
X175019696Y-66639783D01*
X175240877Y-66692885D01*
X175250624Y-66694428D01*
X175477393Y-66712275D01*
X175487253Y-66712275D01*
X175714022Y-66694428D01*
X175723769Y-66692885D01*
X175944950Y-66639783D01*
X175954335Y-66636734D01*
X176164486Y-66549687D01*
X176173281Y-66545205D01*
X176340768Y-66442568D01*
X176350230Y-66432110D01*
X176346447Y-66423334D01*
X175495135Y-65572022D01*
X175481191Y-65564408D01*
X175479358Y-65564539D01*
X175472743Y-65568790D01*
X174621243Y-66420290D01*
X174614483Y-66432670D01*
X173438199Y-66432670D01*
X173484068Y-66310316D01*
X173490823Y-66248134D01*
X173490823Y-65204930D01*
X173970048Y-65204930D01*
X173987895Y-65431699D01*
X173989438Y-65441446D01*
X174042540Y-65662627D01*
X174045589Y-65672012D01*
X174132636Y-65882163D01*
X174137118Y-65890958D01*
X174239755Y-66058445D01*
X174250213Y-66067907D01*
X174258989Y-66064124D01*
X175110301Y-65212812D01*
X175116679Y-65201132D01*
X175846731Y-65201132D01*
X175846862Y-65202965D01*
X175851113Y-65209580D01*
X176702613Y-66061080D01*
X176714993Y-66067840D01*
X176722643Y-66062113D01*
X176827528Y-65890958D01*
X176832010Y-65882163D01*
X176919057Y-65672012D01*
X176922106Y-65662627D01*
X176975208Y-65441446D01*
X176976751Y-65431699D01*
X176994598Y-65204930D01*
X176994598Y-65195070D01*
X176976751Y-64968301D01*
X176975208Y-64958554D01*
X176922106Y-64737373D01*
X176919057Y-64727988D01*
X176832010Y-64517837D01*
X176827528Y-64509042D01*
X176724891Y-64341555D01*
X176714433Y-64332093D01*
X176705657Y-64335876D01*
X175854345Y-65187188D01*
X175846731Y-65201132D01*
X175116679Y-65201132D01*
X175117915Y-65198868D01*
X175117784Y-65197035D01*
X175113533Y-65190420D01*
X174262033Y-64338920D01*
X174249653Y-64332160D01*
X174242003Y-64337887D01*
X174137118Y-64509042D01*
X174132636Y-64517837D01*
X174045589Y-64727988D01*
X174042540Y-64737373D01*
X173989438Y-64958554D01*
X173987895Y-64968301D01*
X173970048Y-65195070D01*
X173970048Y-65204930D01*
X173490823Y-65204930D01*
X173490823Y-64151866D01*
X173484068Y-64089684D01*
X173438409Y-63967890D01*
X174614416Y-63967890D01*
X174618199Y-63976666D01*
X175469511Y-64827978D01*
X175483455Y-64835592D01*
X175485288Y-64835461D01*
X175491903Y-64831210D01*
X176343403Y-63979710D01*
X176350163Y-63967330D01*
X176344436Y-63959680D01*
X176173281Y-63854795D01*
X176164486Y-63850313D01*
X175954335Y-63763266D01*
X175944950Y-63760217D01*
X175723769Y-63707115D01*
X175714022Y-63705572D01*
X175487253Y-63687725D01*
X175477393Y-63687725D01*
X175250624Y-63705572D01*
X175240877Y-63707115D01*
X175019696Y-63760217D01*
X175010311Y-63763266D01*
X174800160Y-63850313D01*
X174791365Y-63854795D01*
X174623878Y-63957432D01*
X174614416Y-63967890D01*
X173438409Y-63967890D01*
X173432938Y-63953295D01*
X173345584Y-63836739D01*
X173229028Y-63749385D01*
X173092639Y-63698255D01*
X173030457Y-63691500D01*
X170934189Y-63691500D01*
X170872007Y-63698255D01*
X170735618Y-63749385D01*
X170619062Y-63836739D01*
X170531708Y-63953295D01*
X170480578Y-64089684D01*
X170473823Y-64151866D01*
X170473823Y-66248134D01*
X168508500Y-66248134D01*
X168508500Y-60979942D01*
X177481781Y-60979942D01*
X177482527Y-60987834D01*
X177485942Y-61023960D01*
X177486501Y-61035818D01*
X177486501Y-69841234D01*
X177485974Y-69852417D01*
X177484299Y-69859910D01*
X177484548Y-69867836D01*
X177484548Y-69867837D01*
X177486439Y-69927987D01*
X177486501Y-69931946D01*
X177486501Y-69959857D01*
X177486998Y-69963791D01*
X177486998Y-69963792D01*
X177487006Y-69963857D01*
X177487939Y-69975694D01*
X177489328Y-70019890D01*
X177494979Y-70039340D01*
X177498988Y-70058701D01*
X177501527Y-70078798D01*
X177504446Y-70086169D01*
X177504446Y-70086171D01*
X177517805Y-70119913D01*
X177521650Y-70131143D01*
X177533983Y-70173594D01*
X177538016Y-70180413D01*
X177538018Y-70180418D01*
X177544294Y-70191029D01*
X177552989Y-70208777D01*
X177560449Y-70227618D01*
X177565111Y-70234034D01*
X177565111Y-70234035D01*
X177586437Y-70263388D01*
X177592953Y-70273308D01*
X177615459Y-70311363D01*
X177629780Y-70325684D01*
X177642620Y-70340717D01*
X177654529Y-70357108D01*
X177680930Y-70378949D01*
X177688606Y-70385299D01*
X177697385Y-70393289D01*
X177720177Y-70416081D01*
X177754203Y-70478393D01*
X177749138Y-70549208D01*
X177720177Y-70594272D01*
X177626547Y-70687901D01*
X177616911Y-70700322D01*
X177540352Y-70829779D01*
X177534107Y-70844210D01*
X177491731Y-70990065D01*
X177489430Y-71002667D01*
X177487193Y-71031084D01*
X177487000Y-71036014D01*
X177487000Y-71652885D01*
X177491475Y-71668124D01*
X177492865Y-71669329D01*
X177500548Y-71671000D01*
X178423000Y-71671000D01*
X178491121Y-71691002D01*
X178537614Y-71744658D01*
X178549000Y-71797000D01*
X178549000Y-73386878D01*
X178552973Y-73400409D01*
X178560871Y-73401544D01*
X178700790Y-73360893D01*
X178715221Y-73354648D01*
X178844676Y-73278090D01*
X178852364Y-73272126D01*
X178918449Y-73246179D01*
X178988072Y-73260080D01*
X179004158Y-73270418D01*
X179008193Y-73274453D01*
X179151399Y-73359145D01*
X179159010Y-73361356D01*
X179159012Y-73361357D01*
X179210547Y-73376329D01*
X179311169Y-73405562D01*
X179317574Y-73406066D01*
X179317579Y-73406067D01*
X179346042Y-73408307D01*
X179346050Y-73408307D01*
X179348498Y-73408500D01*
X179781502Y-73408500D01*
X179783950Y-73408307D01*
X179783958Y-73408307D01*
X179812421Y-73406067D01*
X179812426Y-73406066D01*
X179818831Y-73405562D01*
X179919453Y-73376329D01*
X179970988Y-73361357D01*
X179970990Y-73361356D01*
X179978601Y-73359145D01*
X180121807Y-73274453D01*
X180124489Y-73271771D01*
X180188861Y-73246498D01*
X180258484Y-73260400D01*
X180274312Y-73270572D01*
X180278193Y-73274453D01*
X180421399Y-73359145D01*
X180429010Y-73361356D01*
X180429012Y-73361357D01*
X180480547Y-73376329D01*
X180581169Y-73405562D01*
X180587574Y-73406066D01*
X180587579Y-73406067D01*
X180616042Y-73408307D01*
X180616050Y-73408307D01*
X180618498Y-73408500D01*
X181051502Y-73408500D01*
X181053950Y-73408307D01*
X181053958Y-73408307D01*
X181082421Y-73406067D01*
X181082426Y-73406066D01*
X181088831Y-73405562D01*
X181189453Y-73376329D01*
X181240988Y-73361357D01*
X181240990Y-73361356D01*
X181248601Y-73359145D01*
X181391807Y-73274453D01*
X181394747Y-73271513D01*
X181459271Y-73246179D01*
X181528894Y-73260080D01*
X181547640Y-73272129D01*
X181555323Y-73278089D01*
X181684779Y-73354648D01*
X181699210Y-73360893D01*
X181833605Y-73399939D01*
X181847706Y-73399899D01*
X181851000Y-73392630D01*
X181851000Y-73386878D01*
X182359000Y-73386878D01*
X182362973Y-73400409D01*
X182370871Y-73401544D01*
X182510790Y-73360893D01*
X182525221Y-73354648D01*
X182654678Y-73278089D01*
X182667104Y-73268449D01*
X182773449Y-73162104D01*
X182783089Y-73149678D01*
X182859648Y-73020221D01*
X182865893Y-73005790D01*
X182908269Y-72859935D01*
X182910570Y-72847333D01*
X182912807Y-72818916D01*
X182913000Y-72813986D01*
X182913000Y-72197115D01*
X182908525Y-72181876D01*
X182907135Y-72180671D01*
X182899452Y-72179000D01*
X182377115Y-72179000D01*
X182361876Y-72183475D01*
X182360671Y-72184865D01*
X182359000Y-72192548D01*
X182359000Y-73386878D01*
X181851000Y-73386878D01*
X181851000Y-71652885D01*
X182359000Y-71652885D01*
X182363475Y-71668124D01*
X182364865Y-71669329D01*
X182372548Y-71671000D01*
X182894884Y-71671000D01*
X182910123Y-71666525D01*
X182911328Y-71665135D01*
X182912999Y-71657452D01*
X182912999Y-71036017D01*
X182912805Y-71031080D01*
X182910570Y-71002664D01*
X182908270Y-70990069D01*
X182865893Y-70844210D01*
X182859648Y-70829779D01*
X182783089Y-70700322D01*
X182773449Y-70687896D01*
X182667104Y-70581551D01*
X182654678Y-70571911D01*
X182525221Y-70495352D01*
X182510790Y-70489107D01*
X182376395Y-70450061D01*
X182362294Y-70450101D01*
X182359000Y-70457370D01*
X182359000Y-71652885D01*
X181851000Y-71652885D01*
X181851000Y-70463122D01*
X181847027Y-70449591D01*
X181839129Y-70448456D01*
X181699210Y-70489107D01*
X181684779Y-70495352D01*
X181658639Y-70510811D01*
X181589823Y-70528270D01*
X181522491Y-70505753D01*
X181478022Y-70450409D01*
X181468500Y-70402357D01*
X181468500Y-69653177D01*
X181469027Y-69641994D01*
X181470702Y-69634501D01*
X181469425Y-69593852D01*
X181468562Y-69566411D01*
X181468500Y-69562453D01*
X181468500Y-69534553D01*
X181467996Y-69530562D01*
X181467063Y-69518720D01*
X181465923Y-69482445D01*
X181465674Y-69474520D01*
X181463461Y-69466902D01*
X181460021Y-69455061D01*
X181456012Y-69435702D01*
X181455846Y-69434392D01*
X181453474Y-69415612D01*
X181450558Y-69408246D01*
X181450556Y-69408240D01*
X181437200Y-69374507D01*
X181433355Y-69363277D01*
X181423230Y-69328426D01*
X181423230Y-69328425D01*
X181421019Y-69320816D01*
X181410705Y-69303375D01*
X181402008Y-69285622D01*
X181397472Y-69274167D01*
X181394552Y-69266792D01*
X181368563Y-69231021D01*
X181362047Y-69221101D01*
X181343578Y-69189872D01*
X181339542Y-69183047D01*
X181325221Y-69168726D01*
X181312380Y-69153692D01*
X181300472Y-69137302D01*
X181302464Y-69135855D01*
X181275919Y-69083386D01*
X181278114Y-69027875D01*
X181292710Y-68973401D01*
X181294134Y-68968087D01*
X181314089Y-68740000D01*
X181294134Y-68511913D01*
X181234875Y-68290757D01*
X181232552Y-68285775D01*
X181140440Y-68088238D01*
X181140437Y-68088233D01*
X181138114Y-68083251D01*
X181032196Y-67931985D01*
X181009948Y-67900211D01*
X181009946Y-67900208D01*
X181006789Y-67895700D01*
X180844891Y-67733802D01*
X180840383Y-67730645D01*
X180840380Y-67730643D01*
X180762202Y-67675902D01*
X180657340Y-67602477D01*
X180652358Y-67600154D01*
X180652353Y-67600151D01*
X180454816Y-67508039D01*
X180454815Y-67508039D01*
X180449834Y-67505716D01*
X180444526Y-67504294D01*
X180444524Y-67504293D01*
X180233993Y-67447881D01*
X180233991Y-67447881D01*
X180228678Y-67446457D01*
X180000591Y-67426502D01*
X179772504Y-67446457D01*
X179767191Y-67447881D01*
X179767189Y-67447881D01*
X179556658Y-67504293D01*
X179556656Y-67504294D01*
X179551348Y-67505716D01*
X179546367Y-67508039D01*
X179546366Y-67508039D01*
X179348829Y-67600151D01*
X179348824Y-67600154D01*
X179343842Y-67602477D01*
X179238980Y-67675902D01*
X179160802Y-67730643D01*
X179160799Y-67730645D01*
X179156291Y-67733802D01*
X178994393Y-67895700D01*
X178991234Y-67900212D01*
X178991232Y-67900214D01*
X178982713Y-67912380D01*
X178927256Y-67956708D01*
X178856636Y-67964016D01*
X178793276Y-67931985D01*
X178757292Y-67870783D01*
X178753501Y-67840108D01*
X178753501Y-61636437D01*
X178773503Y-61568316D01*
X178827159Y-61521823D01*
X178890481Y-61510916D01*
X178914522Y-61513019D01*
X178914525Y-61513019D01*
X178920000Y-61513498D01*
X179148087Y-61493543D01*
X179153400Y-61492119D01*
X179153402Y-61492119D01*
X179363933Y-61435707D01*
X179363935Y-61435706D01*
X179369243Y-61434284D01*
X179374225Y-61431961D01*
X179571762Y-61339849D01*
X179571767Y-61339846D01*
X179576749Y-61337523D01*
X179681611Y-61264098D01*
X179759789Y-61209357D01*
X179759792Y-61209355D01*
X179764300Y-61206198D01*
X179926198Y-61044300D01*
X179932138Y-61035818D01*
X180013256Y-60919969D01*
X180057523Y-60856749D01*
X180059846Y-60851767D01*
X180059849Y-60851762D01*
X180151961Y-60654225D01*
X180151961Y-60654224D01*
X180154284Y-60649243D01*
X180158982Y-60631712D01*
X180212119Y-60433402D01*
X180212119Y-60433400D01*
X180213543Y-60428087D01*
X180233498Y-60200000D01*
X180213543Y-59971913D01*
X180154284Y-59750757D01*
X180069175Y-59568238D01*
X180059849Y-59548238D01*
X180059846Y-59548233D01*
X180057523Y-59543251D01*
X179940202Y-59375700D01*
X179929357Y-59360211D01*
X179929355Y-59360208D01*
X179926198Y-59355700D01*
X179764300Y-59193802D01*
X179759792Y-59190645D01*
X179759789Y-59190643D01*
X179681611Y-59135902D01*
X179576749Y-59062477D01*
X179571767Y-59060154D01*
X179571762Y-59060151D01*
X179374225Y-58968039D01*
X179374224Y-58968039D01*
X179369243Y-58965716D01*
X179363935Y-58964294D01*
X179363933Y-58964293D01*
X179153402Y-58907881D01*
X179153400Y-58907881D01*
X179148087Y-58906457D01*
X178920000Y-58886502D01*
X178691913Y-58906457D01*
X178686600Y-58907881D01*
X178686598Y-58907881D01*
X178476067Y-58964293D01*
X178476065Y-58964294D01*
X178470757Y-58965716D01*
X178465776Y-58968039D01*
X178465775Y-58968039D01*
X178268238Y-59060151D01*
X178268233Y-59060154D01*
X178263251Y-59062477D01*
X178158389Y-59135902D01*
X178080211Y-59190643D01*
X178080208Y-59190645D01*
X178075700Y-59193802D01*
X177913802Y-59355700D01*
X177910645Y-59360208D01*
X177910643Y-59360211D01*
X177899798Y-59375700D01*
X177782477Y-59543251D01*
X177780154Y-59548233D01*
X177780151Y-59548238D01*
X177770825Y-59568238D01*
X177685716Y-59750757D01*
X177626457Y-59971913D01*
X177606502Y-60200000D01*
X177626457Y-60428087D01*
X177644174Y-60494206D01*
X177642484Y-60565180D01*
X177614319Y-60613066D01*
X177603415Y-60624678D01*
X177599596Y-60631624D01*
X177599594Y-60631627D01*
X177593653Y-60642433D01*
X177582802Y-60658952D01*
X177570387Y-60674958D01*
X177567242Y-60682227D01*
X177567239Y-60682231D01*
X177552827Y-60715536D01*
X177547610Y-60726186D01*
X177526306Y-60764939D01*
X177524335Y-60772614D01*
X177524335Y-60772615D01*
X177521268Y-60784561D01*
X177514864Y-60803265D01*
X177506820Y-60821854D01*
X177505581Y-60829677D01*
X177505578Y-60829687D01*
X177499902Y-60865523D01*
X177497496Y-60877143D01*
X177490164Y-60905702D01*
X177486501Y-60919969D01*
X177486501Y-60940223D01*
X177484950Y-60959933D01*
X177481781Y-60979942D01*
X168508500Y-60979942D01*
X168508500Y-57352100D01*
X169413441Y-57352100D01*
X169413496Y-57352880D01*
X169418849Y-57360927D01*
X169467180Y-57406312D01*
X169471858Y-57410294D01*
X169793106Y-57657688D01*
X169798149Y-57661193D01*
X170142005Y-57876057D01*
X170147362Y-57879051D01*
X170510542Y-58059336D01*
X170516182Y-58061800D01*
X170895198Y-58205774D01*
X170901070Y-58207682D01*
X171292345Y-58313990D01*
X171298322Y-58315304D01*
X171698133Y-58382927D01*
X171704219Y-58383652D01*
X172108702Y-58411937D01*
X172114838Y-58412065D01*
X172520149Y-58400744D01*
X172526280Y-58400272D01*
X172928528Y-58349456D01*
X172934600Y-58348386D01*
X173329983Y-58258557D01*
X173335898Y-58256905D01*
X173720627Y-58128923D01*
X173726361Y-58126699D01*
X174096781Y-57961778D01*
X174102250Y-57959015D01*
X174209858Y-57897885D01*
X199662000Y-57897885D01*
X199666475Y-57913124D01*
X199667865Y-57914329D01*
X199675548Y-57916000D01*
X201647885Y-57916000D01*
X201663124Y-57911525D01*
X201664329Y-57910135D01*
X201666000Y-57902452D01*
X201666000Y-57897885D01*
X202174000Y-57897885D01*
X202178475Y-57913124D01*
X202179865Y-57914329D01*
X202187548Y-57916000D01*
X204159885Y-57916000D01*
X204175124Y-57911525D01*
X204176329Y-57910135D01*
X204178000Y-57902452D01*
X204178000Y-57897885D01*
X209822000Y-57897885D01*
X209826475Y-57913124D01*
X209827865Y-57914329D01*
X209835548Y-57916000D01*
X211807885Y-57916000D01*
X211823124Y-57911525D01*
X211824329Y-57910135D01*
X211826000Y-57902452D01*
X211826000Y-54193633D01*
X211821705Y-54179004D01*
X211809728Y-54176942D01*
X211737947Y-54183222D01*
X211729708Y-54184497D01*
X211445120Y-54248110D01*
X211437123Y-54250464D01*
X211163466Y-54351150D01*
X211155828Y-54354550D01*
X210897885Y-54490549D01*
X210890787Y-54494916D01*
X210653095Y-54663835D01*
X210646628Y-54669108D01*
X210433361Y-54867983D01*
X210427649Y-54874067D01*
X210242563Y-55099393D01*
X210237708Y-55106174D01*
X210084042Y-55354013D01*
X210080129Y-55361373D01*
X209960596Y-55627346D01*
X209957686Y-55635169D01*
X209874376Y-55914625D01*
X209872531Y-55922746D01*
X209826809Y-56211429D01*
X209826101Y-56218403D01*
X209822064Y-56307286D01*
X209822000Y-56310119D01*
X209822000Y-57897885D01*
X204178000Y-57897885D01*
X204178000Y-56346007D01*
X204177861Y-56341818D01*
X204163451Y-56124868D01*
X204162347Y-56116597D01*
X204104710Y-55830749D01*
X204102522Y-55822697D01*
X204007591Y-55546995D01*
X204004350Y-55539284D01*
X203873787Y-55278556D01*
X203869566Y-55271362D01*
X203705659Y-55030180D01*
X203700526Y-55023610D01*
X203506161Y-54806225D01*
X203500205Y-54800392D01*
X203278797Y-54610622D01*
X203272116Y-54605624D01*
X203027563Y-54446809D01*
X203020273Y-54442735D01*
X202756868Y-54317662D01*
X202749100Y-54314586D01*
X202471469Y-54225448D01*
X202463363Y-54223427D01*
X202191830Y-54174571D01*
X202178571Y-54176003D01*
X202174000Y-54190613D01*
X202174000Y-57897885D01*
X201666000Y-57897885D01*
X201666000Y-54193633D01*
X201661705Y-54179004D01*
X201649728Y-54176942D01*
X201577947Y-54183222D01*
X201569708Y-54184497D01*
X201285120Y-54248110D01*
X201277123Y-54250464D01*
X201003466Y-54351150D01*
X200995828Y-54354550D01*
X200737885Y-54490549D01*
X200730787Y-54494916D01*
X200493095Y-54663835D01*
X200486628Y-54669108D01*
X200273361Y-54867983D01*
X200267649Y-54874067D01*
X200082563Y-55099393D01*
X200077708Y-55106174D01*
X199924042Y-55354013D01*
X199920129Y-55361373D01*
X199800596Y-55627346D01*
X199797686Y-55635169D01*
X199714376Y-55914625D01*
X199712531Y-55922746D01*
X199666809Y-56211429D01*
X199666101Y-56218403D01*
X199662064Y-56307286D01*
X199662000Y-56310119D01*
X199662000Y-57897885D01*
X174209858Y-57897885D01*
X174454810Y-57758733D01*
X174459984Y-57755449D01*
X174791315Y-57521721D01*
X174796153Y-57517941D01*
X174977043Y-57361802D01*
X174985458Y-57348762D01*
X174979519Y-57338730D01*
X172212812Y-54572022D01*
X172198868Y-54564408D01*
X172197035Y-54564539D01*
X172190420Y-54568790D01*
X169421055Y-57338156D01*
X169413441Y-57352100D01*
X168508500Y-57352100D01*
X168508500Y-56665003D01*
X168528502Y-56596882D01*
X168582158Y-56550389D01*
X168652432Y-56540285D01*
X168717012Y-56569779D01*
X168736951Y-56591655D01*
X168896454Y-56814446D01*
X168900263Y-56819251D01*
X169038298Y-56976929D01*
X169051512Y-56985327D01*
X169061307Y-56979482D01*
X171839658Y-54201132D01*
X172564408Y-54201132D01*
X172564539Y-54202965D01*
X172568790Y-54209580D01*
X175338830Y-56979619D01*
X175352774Y-56987233D01*
X175353790Y-56987161D01*
X175361519Y-56982059D01*
X175387160Y-56955133D01*
X175391172Y-56950485D01*
X175631484Y-56642900D01*
X178059000Y-56642900D01*
X178059337Y-56646146D01*
X178059337Y-56646150D01*
X178068893Y-56738245D01*
X178069974Y-56748666D01*
X178125950Y-56916446D01*
X178219022Y-57066848D01*
X178344197Y-57191805D01*
X178350427Y-57195645D01*
X178350428Y-57195646D01*
X178487590Y-57280194D01*
X178494762Y-57284615D01*
X178532364Y-57297087D01*
X178656111Y-57338132D01*
X178656113Y-57338132D01*
X178662639Y-57340297D01*
X178669475Y-57340997D01*
X178669478Y-57340998D01*
X178712531Y-57345409D01*
X178767100Y-57351000D01*
X180167900Y-57351000D01*
X180171146Y-57350663D01*
X180171150Y-57350663D01*
X180266808Y-57340738D01*
X180266812Y-57340737D01*
X180273666Y-57340026D01*
X180280202Y-57337845D01*
X180280204Y-57337845D01*
X180412306Y-57293772D01*
X180441446Y-57284050D01*
X180591848Y-57190978D01*
X180716805Y-57065803D01*
X180759230Y-56996978D01*
X180805775Y-56921468D01*
X180805776Y-56921466D01*
X180809615Y-56915238D01*
X180865297Y-56747361D01*
X180876000Y-56642900D01*
X180876000Y-55999840D01*
X181559500Y-55999840D01*
X181559725Y-56005149D01*
X181574160Y-56175271D01*
X181575952Y-56185759D01*
X181633301Y-56406711D01*
X181636833Y-56416739D01*
X181730585Y-56624863D01*
X181735765Y-56634169D01*
X181863247Y-56823524D01*
X181869906Y-56831807D01*
X182027471Y-56996978D01*
X182035442Y-57004030D01*
X182218582Y-57140290D01*
X182227619Y-57145894D01*
X182431106Y-57249351D01*
X182440959Y-57253352D01*
X182658961Y-57321044D01*
X182669348Y-57323328D01*
X182695543Y-57326800D01*
X182709707Y-57324604D01*
X182713500Y-57311419D01*
X182713500Y-57309782D01*
X183221500Y-57309782D01*
X183225473Y-57323313D01*
X183236080Y-57324838D01*
X183368340Y-57297087D01*
X183378537Y-57294027D01*
X183590840Y-57210185D01*
X183600376Y-57205451D01*
X183795525Y-57087032D01*
X183804118Y-57080766D01*
X183976527Y-56931158D01*
X183983947Y-56923528D01*
X184128680Y-56747012D01*
X184134706Y-56738245D01*
X184188979Y-56642900D01*
X188659000Y-56642900D01*
X188659337Y-56646146D01*
X188659337Y-56646150D01*
X188668893Y-56738245D01*
X188669974Y-56748666D01*
X188725950Y-56916446D01*
X188819022Y-57066848D01*
X188944197Y-57191805D01*
X188950427Y-57195645D01*
X188950428Y-57195646D01*
X189087590Y-57280194D01*
X189094762Y-57284615D01*
X189132364Y-57297087D01*
X189256111Y-57338132D01*
X189256113Y-57338132D01*
X189262639Y-57340297D01*
X189269475Y-57340997D01*
X189269478Y-57340998D01*
X189312531Y-57345409D01*
X189367100Y-57351000D01*
X190767900Y-57351000D01*
X190771146Y-57350663D01*
X190771150Y-57350663D01*
X190866808Y-57340738D01*
X190866812Y-57340737D01*
X190873666Y-57340026D01*
X190880202Y-57337845D01*
X190880204Y-57337845D01*
X191012306Y-57293772D01*
X191041446Y-57284050D01*
X191191848Y-57190978D01*
X191316805Y-57065803D01*
X191359230Y-56996978D01*
X191405775Y-56921468D01*
X191405776Y-56921466D01*
X191409615Y-56915238D01*
X191465297Y-56747361D01*
X191476000Y-56642900D01*
X191476000Y-55999840D01*
X192159500Y-55999840D01*
X192159725Y-56005149D01*
X192174160Y-56175271D01*
X192175952Y-56185759D01*
X192233301Y-56406711D01*
X192236833Y-56416739D01*
X192330585Y-56624863D01*
X192335765Y-56634169D01*
X192463247Y-56823524D01*
X192469906Y-56831807D01*
X192627471Y-56996978D01*
X192635442Y-57004030D01*
X192818582Y-57140290D01*
X192827619Y-57145894D01*
X193031106Y-57249351D01*
X193040959Y-57253352D01*
X193258961Y-57321044D01*
X193269348Y-57323328D01*
X193295543Y-57326800D01*
X193309707Y-57324604D01*
X193313500Y-57311419D01*
X193313500Y-57309782D01*
X193821500Y-57309782D01*
X193825473Y-57323313D01*
X193836080Y-57324838D01*
X193968340Y-57297087D01*
X193978537Y-57294027D01*
X194190840Y-57210185D01*
X194200376Y-57205451D01*
X194395525Y-57087032D01*
X194404118Y-57080766D01*
X194576527Y-56931158D01*
X194583947Y-56923528D01*
X194728680Y-56747012D01*
X194734706Y-56738245D01*
X194847629Y-56539867D01*
X194852095Y-56530203D01*
X194929981Y-56315632D01*
X194932751Y-56305365D01*
X194973581Y-56079568D01*
X194974516Y-56071338D01*
X194975430Y-56051950D01*
X194975500Y-56048974D01*
X194975500Y-55314615D01*
X194971025Y-55299376D01*
X194969635Y-55298171D01*
X194961952Y-55296500D01*
X193839615Y-55296500D01*
X193824376Y-55300975D01*
X193823171Y-55302365D01*
X193821500Y-55310048D01*
X193821500Y-57309782D01*
X193313500Y-57309782D01*
X193313500Y-55314615D01*
X193309025Y-55299376D01*
X193307635Y-55298171D01*
X193299952Y-55296500D01*
X192177615Y-55296500D01*
X192162376Y-55300975D01*
X192161171Y-55302365D01*
X192159500Y-55310048D01*
X192159500Y-55999840D01*
X191476000Y-55999840D01*
X191476000Y-54770385D01*
X192159500Y-54770385D01*
X192163975Y-54785624D01*
X192165365Y-54786829D01*
X192173048Y-54788500D01*
X193295385Y-54788500D01*
X193310624Y-54784025D01*
X193311829Y-54782635D01*
X193313500Y-54774952D01*
X193313500Y-54770385D01*
X193821500Y-54770385D01*
X193825975Y-54785624D01*
X193827365Y-54786829D01*
X193835048Y-54788500D01*
X194957385Y-54788500D01*
X194972624Y-54784025D01*
X194973829Y-54782635D01*
X194975500Y-54774952D01*
X194975500Y-54085160D01*
X194975275Y-54079851D01*
X194960840Y-53909729D01*
X194959048Y-53899241D01*
X194901699Y-53678289D01*
X194898167Y-53668261D01*
X194804415Y-53460137D01*
X194799235Y-53450831D01*
X194671753Y-53261476D01*
X194665094Y-53253193D01*
X194507529Y-53088022D01*
X194499558Y-53080970D01*
X194316418Y-52944710D01*
X194307381Y-52939106D01*
X194103894Y-52835649D01*
X194094041Y-52831648D01*
X193876039Y-52763956D01*
X193865652Y-52761672D01*
X193839457Y-52758200D01*
X193825293Y-52760396D01*
X193821500Y-52773581D01*
X193821500Y-54770385D01*
X193313500Y-54770385D01*
X193313500Y-52775218D01*
X193309527Y-52761687D01*
X193298920Y-52760162D01*
X193166660Y-52787913D01*
X193156463Y-52790973D01*
X192944160Y-52874815D01*
X192934624Y-52879549D01*
X192739475Y-52997968D01*
X192730882Y-53004234D01*
X192558473Y-53153842D01*
X192551053Y-53161472D01*
X192406320Y-53337988D01*
X192400294Y-53346755D01*
X192287371Y-53545133D01*
X192282905Y-53554797D01*
X192205019Y-53769368D01*
X192202249Y-53779635D01*
X192161419Y-54005432D01*
X192160484Y-54013662D01*
X192159570Y-54033050D01*
X192159500Y-54036026D01*
X192159500Y-54770385D01*
X191476000Y-54770385D01*
X191476000Y-53442100D01*
X191475663Y-53438850D01*
X191465738Y-53343192D01*
X191465737Y-53343188D01*
X191465026Y-53336334D01*
X191409050Y-53168554D01*
X191315978Y-53018152D01*
X191190803Y-52893195D01*
X191168665Y-52879549D01*
X191046468Y-52804225D01*
X191046466Y-52804224D01*
X191040238Y-52800385D01*
X190959426Y-52773581D01*
X190878889Y-52746868D01*
X190878887Y-52746868D01*
X190872361Y-52744703D01*
X190865525Y-52744003D01*
X190865522Y-52744002D01*
X190822469Y-52739591D01*
X190767900Y-52734000D01*
X189367100Y-52734000D01*
X189363854Y-52734337D01*
X189363850Y-52734337D01*
X189268192Y-52744262D01*
X189268188Y-52744263D01*
X189261334Y-52744974D01*
X189254798Y-52747155D01*
X189254796Y-52747155D01*
X189123459Y-52790973D01*
X189093554Y-52800950D01*
X188943152Y-52894022D01*
X188818195Y-53019197D01*
X188725385Y-53169762D01*
X188669703Y-53337639D01*
X188659000Y-53442100D01*
X188659000Y-56642900D01*
X184188979Y-56642900D01*
X184247629Y-56539867D01*
X184252095Y-56530203D01*
X184329981Y-56315632D01*
X184332751Y-56305365D01*
X184373581Y-56079568D01*
X184374516Y-56071338D01*
X184375430Y-56051950D01*
X184375500Y-56048974D01*
X184375500Y-55314615D01*
X184371025Y-55299376D01*
X184369635Y-55298171D01*
X184361952Y-55296500D01*
X183239615Y-55296500D01*
X183224376Y-55300975D01*
X183223171Y-55302365D01*
X183221500Y-55310048D01*
X183221500Y-57309782D01*
X182713500Y-57309782D01*
X182713500Y-55314615D01*
X182709025Y-55299376D01*
X182707635Y-55298171D01*
X182699952Y-55296500D01*
X181577615Y-55296500D01*
X181562376Y-55300975D01*
X181561171Y-55302365D01*
X181559500Y-55310048D01*
X181559500Y-55999840D01*
X180876000Y-55999840D01*
X180876000Y-54770385D01*
X181559500Y-54770385D01*
X181563975Y-54785624D01*
X181565365Y-54786829D01*
X181573048Y-54788500D01*
X182695385Y-54788500D01*
X182710624Y-54784025D01*
X182711829Y-54782635D01*
X182713500Y-54774952D01*
X182713500Y-54770385D01*
X183221500Y-54770385D01*
X183225975Y-54785624D01*
X183227365Y-54786829D01*
X183235048Y-54788500D01*
X184357385Y-54788500D01*
X184372624Y-54784025D01*
X184373829Y-54782635D01*
X184375500Y-54774952D01*
X184375500Y-54085160D01*
X184375275Y-54079851D01*
X184360840Y-53909729D01*
X184359048Y-53899241D01*
X184301699Y-53678289D01*
X184298167Y-53668261D01*
X184204415Y-53460137D01*
X184199235Y-53450831D01*
X184071753Y-53261476D01*
X184065094Y-53253193D01*
X183907529Y-53088022D01*
X183899558Y-53080970D01*
X183716418Y-52944710D01*
X183707381Y-52939106D01*
X183503894Y-52835649D01*
X183494041Y-52831648D01*
X183276039Y-52763956D01*
X183265652Y-52761672D01*
X183239457Y-52758200D01*
X183225293Y-52760396D01*
X183221500Y-52773581D01*
X183221500Y-54770385D01*
X182713500Y-54770385D01*
X182713500Y-52775218D01*
X182709527Y-52761687D01*
X182698920Y-52760162D01*
X182566660Y-52787913D01*
X182556463Y-52790973D01*
X182344160Y-52874815D01*
X182334624Y-52879549D01*
X182139475Y-52997968D01*
X182130882Y-53004234D01*
X181958473Y-53153842D01*
X181951053Y-53161472D01*
X181806320Y-53337988D01*
X181800294Y-53346755D01*
X181687371Y-53545133D01*
X181682905Y-53554797D01*
X181605019Y-53769368D01*
X181602249Y-53779635D01*
X181561419Y-54005432D01*
X181560484Y-54013662D01*
X181559570Y-54033050D01*
X181559500Y-54036026D01*
X181559500Y-54770385D01*
X180876000Y-54770385D01*
X180876000Y-53442100D01*
X180875663Y-53438850D01*
X180865738Y-53343192D01*
X180865737Y-53343188D01*
X180865026Y-53336334D01*
X180809050Y-53168554D01*
X180715978Y-53018152D01*
X180590803Y-52893195D01*
X180568665Y-52879549D01*
X180446468Y-52804225D01*
X180446466Y-52804224D01*
X180440238Y-52800385D01*
X180359426Y-52773581D01*
X180278889Y-52746868D01*
X180278887Y-52746868D01*
X180272361Y-52744703D01*
X180265525Y-52744003D01*
X180265522Y-52744002D01*
X180222469Y-52739591D01*
X180167900Y-52734000D01*
X178767100Y-52734000D01*
X178763854Y-52734337D01*
X178763850Y-52734337D01*
X178668192Y-52744262D01*
X178668188Y-52744263D01*
X178661334Y-52744974D01*
X178654798Y-52747155D01*
X178654796Y-52747155D01*
X178523459Y-52790973D01*
X178493554Y-52800950D01*
X178343152Y-52894022D01*
X178218195Y-53019197D01*
X178125385Y-53169762D01*
X178069703Y-53337639D01*
X178059000Y-53442100D01*
X178059000Y-56642900D01*
X175631484Y-56642900D01*
X175640783Y-56630998D01*
X175644355Y-56625935D01*
X175861593Y-56283621D01*
X175864636Y-56278265D01*
X176047452Y-55916353D01*
X176049947Y-55910749D01*
X176196572Y-55532724D01*
X176198513Y-55526890D01*
X176307553Y-55136351D01*
X176308909Y-55130380D01*
X176379322Y-54731056D01*
X176380089Y-54724982D01*
X176411282Y-54319591D01*
X176411459Y-54315676D01*
X176413047Y-54201974D01*
X176412979Y-54198030D01*
X176393118Y-53791949D01*
X176392517Y-53785825D01*
X176333290Y-53384737D01*
X176332090Y-53378675D01*
X176234007Y-52985289D01*
X176232222Y-52979374D01*
X176096214Y-52597421D01*
X176093871Y-52591737D01*
X175921236Y-52224869D01*
X175918347Y-52219435D01*
X175710740Y-51871171D01*
X175707332Y-51866041D01*
X175466722Y-51539686D01*
X175462842Y-51534929D01*
X175361935Y-51422859D01*
X175348413Y-51414528D01*
X175348337Y-51414529D01*
X175339053Y-51420158D01*
X172572022Y-54187188D01*
X172564408Y-54201132D01*
X171839658Y-54201132D01*
X172200000Y-53840790D01*
X174978030Y-51062759D01*
X174985644Y-51048815D01*
X174985622Y-51048506D01*
X174979767Y-51039835D01*
X174887789Y-50955846D01*
X174883051Y-50951927D01*
X174593603Y-50735392D01*
X174551038Y-50678570D01*
X174545951Y-50607756D01*
X174579956Y-50545433D01*
X174642258Y-50511388D01*
X174669080Y-50508500D01*
X210856310Y-50508500D01*
X210924431Y-50528502D01*
G37*
%TD.AperFunction*%
%TA.AperFunction,Conductor*%
G36*
X182313122Y-87128502D02*
G01*
X182359615Y-87182158D01*
X182368665Y-87258650D01*
X182363143Y-87286928D01*
X182362066Y-87295791D01*
X182362000Y-87298500D01*
X182362000Y-87527885D01*
X182366475Y-87543124D01*
X182367865Y-87544329D01*
X182375548Y-87546000D01*
X184559885Y-87546000D01*
X184575124Y-87541525D01*
X184576329Y-87540135D01*
X184576931Y-87537366D01*
X184610955Y-87475054D01*
X184673267Y-87441028D01*
X184744083Y-87446092D01*
X184789147Y-87475053D01*
X184864595Y-87550501D01*
X184898621Y-87612813D01*
X184901500Y-87639596D01*
X184901500Y-88252846D01*
X184916548Y-88410566D01*
X184976092Y-88613534D01*
X184978836Y-88618861D01*
X184978836Y-88618862D01*
X185070057Y-88795978D01*
X185072942Y-88801580D01*
X185138560Y-88885115D01*
X185199478Y-88962667D01*
X185225828Y-89028592D01*
X185212353Y-89098299D01*
X185163332Y-89149654D01*
X185100392Y-89166500D01*
X184373688Y-89166500D01*
X184305567Y-89146498D01*
X184259074Y-89092842D01*
X184248970Y-89022568D01*
X184282670Y-88953369D01*
X184339342Y-88894169D01*
X184346738Y-88884804D01*
X184454921Y-88717259D01*
X184460417Y-88706655D01*
X184534961Y-88521688D01*
X184538355Y-88510230D01*
X184576857Y-88313072D01*
X184577934Y-88304209D01*
X184578000Y-88301500D01*
X184578000Y-88072115D01*
X184573525Y-88056876D01*
X184572135Y-88055671D01*
X184564452Y-88054000D01*
X182380115Y-88054000D01*
X182364876Y-88058475D01*
X182363671Y-88059865D01*
X182362000Y-88067548D01*
X182362000Y-88249832D01*
X182362285Y-88255808D01*
X182376471Y-88404494D01*
X182378730Y-88416228D01*
X182434872Y-88607599D01*
X182439302Y-88618675D01*
X182530619Y-88795978D01*
X182537069Y-88806024D01*
X182660113Y-88962667D01*
X182686463Y-89028593D01*
X182672988Y-89098299D01*
X182623966Y-89149654D01*
X182561027Y-89166500D01*
X181834380Y-89166500D01*
X181766259Y-89146498D01*
X181719766Y-89092842D01*
X181709662Y-89022568D01*
X181743362Y-88953369D01*
X181799736Y-88894480D01*
X181803881Y-88890150D01*
X181918620Y-88712452D01*
X181997686Y-88516263D01*
X182038228Y-88308663D01*
X182038500Y-88303101D01*
X182038500Y-87347154D01*
X182028893Y-87246466D01*
X182042334Y-87176755D01*
X182091331Y-87125376D01*
X182154323Y-87108500D01*
X182245001Y-87108500D01*
X182313122Y-87128502D01*
G37*
%TD.AperFunction*%
%TA.AperFunction,Conductor*%
G36*
X189869200Y-80172238D02*
G01*
X189897725Y-80193629D01*
X189954595Y-80250499D01*
X189988621Y-80312811D01*
X189991500Y-80339594D01*
X189991500Y-81715500D01*
X189971498Y-81783621D01*
X189917842Y-81830114D01*
X189865500Y-81841500D01*
X189834500Y-81841500D01*
X189766379Y-81821498D01*
X189719886Y-81767842D01*
X189708500Y-81715500D01*
X189708500Y-81251866D01*
X189701745Y-81189684D01*
X189650615Y-81053295D01*
X189563261Y-80936739D01*
X189446705Y-80849385D01*
X189431213Y-80843577D01*
X189362226Y-80817715D01*
X189305462Y-80775073D01*
X189280762Y-80708512D01*
X189295970Y-80639163D01*
X189346256Y-80589045D01*
X189362226Y-80581751D01*
X189438054Y-80553324D01*
X189453649Y-80544786D01*
X189555724Y-80468285D01*
X189568285Y-80455724D01*
X189644786Y-80353649D01*
X189653324Y-80338054D01*
X189690648Y-80238494D01*
X189733290Y-80181730D01*
X189799852Y-80157030D01*
X189869200Y-80172238D01*
G37*
%TD.AperFunction*%
%TD*%
M02*
