%TF.GenerationSoftware,KiCad,Pcbnew,(6.0.7)*%
%TF.CreationDate,2022-08-25T15:43:46-04:00*%
%TF.ProjectId,chiller_interlock,6368696c-6c65-4725-9f69-6e7465726c6f,rev?*%
%TF.SameCoordinates,Original*%
%TF.FileFunction,Copper,L1,Top*%
%TF.FilePolarity,Positive*%
%FSLAX46Y46*%
G04 Gerber Fmt 4.6, Leading zero omitted, Abs format (unit mm)*
G04 Created by KiCad (PCBNEW (6.0.7)) date 2022-08-25 15:43:46*
%MOMM*%
%LPD*%
G01*
G04 APERTURE LIST*
G04 Aperture macros list*
%AMRoundRect*
0 Rectangle with rounded corners*
0 $1 Rounding radius*
0 $2 $3 $4 $5 $6 $7 $8 $9 X,Y pos of 4 corners*
0 Add a 4 corners polygon primitive as box body*
4,1,4,$2,$3,$4,$5,$6,$7,$8,$9,$2,$3,0*
0 Add four circle primitives for the rounded corners*
1,1,$1+$1,$2,$3*
1,1,$1+$1,$4,$5*
1,1,$1+$1,$6,$7*
1,1,$1+$1,$8,$9*
0 Add four rect primitives between the rounded corners*
20,1,$1+$1,$2,$3,$4,$5,0*
20,1,$1+$1,$4,$5,$6,$7,0*
20,1,$1+$1,$6,$7,$8,$9,0*
20,1,$1+$1,$8,$9,$2,$3,0*%
%AMHorizOval*
0 Thick line with rounded ends*
0 $1 width*
0 $2 $3 position (X,Y) of the first rounded end (center of the circle)*
0 $4 $5 position (X,Y) of the second rounded end (center of the circle)*
0 Add line between two ends*
20,1,$1,$2,$3,$4,$5,0*
0 Add two circle primitives to create the rounded ends*
1,1,$1,$2,$3*
1,1,$1,$4,$5*%
G04 Aperture macros list end*
%TA.AperFunction,Profile*%
%ADD10C,0.100000*%
%TD*%
%TA.AperFunction,ComponentPad*%
%ADD11C,1.600000*%
%TD*%
%TA.AperFunction,ComponentPad*%
%ADD12HorizOval,1.600000X0.000000X0.000000X0.000000X0.000000X0*%
%TD*%
%TA.AperFunction,ComponentPad*%
%ADD13O,1.600000X2.500000*%
%TD*%
%TA.AperFunction,ComponentPad*%
%ADD14O,3.500000X7.000000*%
%TD*%
%TA.AperFunction,ComponentPad*%
%ADD15C,7.400000*%
%TD*%
%TA.AperFunction,ComponentPad*%
%ADD16O,1.200000X2.000000*%
%TD*%
%TA.AperFunction,ComponentPad*%
%ADD17C,1.400000*%
%TD*%
%TA.AperFunction,ComponentPad*%
%ADD18RoundRect,0.250000X0.650000X1.550000X-0.650000X1.550000X-0.650000X-1.550000X0.650000X-1.550000X0*%
%TD*%
%TA.AperFunction,ComponentPad*%
%ADD19O,1.800000X3.600000*%
%TD*%
%TA.AperFunction,ComponentPad*%
%ADD20R,2.000000X2.000000*%
%TD*%
%TA.AperFunction,ComponentPad*%
%ADD21C,2.000000*%
%TD*%
%TA.AperFunction,ComponentPad*%
%ADD22HorizOval,1.600000X0.000000X0.000000X0.000000X0.000000X0*%
%TD*%
%TA.AperFunction,ComponentPad*%
%ADD23RoundRect,0.250000X-0.650000X-1.550000X0.650000X-1.550000X0.650000X1.550000X-0.650000X1.550000X0*%
%TD*%
%TA.AperFunction,ComponentPad*%
%ADD24O,1.600000X1.600000*%
%TD*%
%TA.AperFunction,SMDPad,CuDef*%
%ADD25R,1.000000X2.350000*%
%TD*%
%TA.AperFunction,ViaPad*%
%ADD26C,0.800000*%
%TD*%
%TA.AperFunction,Conductor*%
%ADD27C,1.270000*%
%TD*%
%TA.AperFunction,Conductor*%
%ADD28C,0.250000*%
%TD*%
G04 APERTURE END LIST*
D10*
X168000000Y-91000000D02*
X215000000Y-91000000D01*
X215000000Y-50000000D02*
X168000000Y-50000000D01*
X168000000Y-50000000D02*
X168000000Y-91000000D01*
X215000000Y-91000000D02*
X215000000Y-50000000D01*
D11*
%TO.P,R3,1*%
%TO.N,Delayed_Interlock*%
X188799409Y-63660000D03*
D12*
%TO.P,R3,2*%
%TO.N,Net-(R3-Pad2)*%
X180000591Y-68740000D03*
%TD*%
D13*
%TO.P,J4,1,In*%
%TO.N,TTL_Out*%
X207000000Y-63250000D03*
D14*
%TO.P,J4,2,Ext*%
%TO.N,GND*%
X212080000Y-58170000D03*
D13*
X204460000Y-63250000D03*
D14*
X201920000Y-58170000D03*
%TD*%
D15*
%TO.P,J5,1,Pin_1*%
%TO.N,GND*%
X210750000Y-86750000D03*
%TD*%
D16*
%TO.P,U1,1,VOUT*%
%TO.N,6V*%
X186010000Y-87800000D03*
%TO.P,U1,2,GND*%
%TO.N,GND*%
X183470000Y-87800000D03*
%TO.P,U1,3,VIN*%
%TO.N,+24V*%
X180930000Y-87800000D03*
%TO.P,U1,4,SHDN*%
%TO.N,unconnected-(U1-Pad4)*%
X178390000Y-87800000D03*
%TD*%
D17*
%TO.P,K1,1*%
%TO.N,Net-(K1-Pad1)*%
X211800000Y-74160000D03*
%TO.P,K1,2*%
%TO.N,GND*%
X208600000Y-74160000D03*
%TO.P,K1,3*%
%TO.N,TTL_Out*%
X206400000Y-74160000D03*
%TO.P,K1,4*%
%TO.N,5.5V*%
X204200000Y-74160000D03*
%TO.P,K1,5*%
%TO.N,+24V*%
X204200000Y-79240000D03*
%TO.P,K1,6*%
%TO.N,Net-(J3-Pad1)*%
X206400000Y-79240000D03*
%TO.P,K1,7*%
%TO.N,unconnected-(K1-Pad7)*%
X208600000Y-79240000D03*
%TO.P,K1,8*%
%TO.N,Coil-*%
X211800000Y-79240000D03*
%TD*%
D18*
%TO.P,J2,1,Pin_1*%
%TO.N,TTL_Out*%
X195132500Y-86057500D03*
D19*
%TO.P,J2,2,Pin_2*%
%TO.N,Delayed_Interlock*%
X191632500Y-86057500D03*
%TD*%
D20*
%TO.P,C2,1*%
%TO.N,+24V*%
X171982323Y-76000000D03*
D21*
%TO.P,C2,2*%
%TO.N,GND*%
X175482323Y-76000000D03*
%TD*%
D11*
%TO.P,R1,1*%
%TO.N,Delayed_Interlock*%
X192882133Y-60597177D03*
D22*
%TO.P,R1,2*%
%TO.N,GND*%
X191117868Y-70602824D03*
%TD*%
D23*
%TO.P,J1,1,Pin_1*%
%TO.N,+24V*%
X179467500Y-55042500D03*
D19*
%TO.P,J1,2,Pin_2*%
%TO.N,GND*%
X182967500Y-55042500D03*
%TD*%
D20*
%TO.P,C4,1*%
%TO.N,+24V*%
X171982323Y-65200000D03*
D21*
%TO.P,C4,2*%
%TO.N,GND*%
X175482323Y-65200000D03*
%TD*%
D15*
%TO.P,J7,1,Pin_1*%
%TO.N,GND*%
X172200000Y-86750000D03*
%TD*%
D11*
%TO.P,R4,1*%
%TO.N,Net-(K1-Pad1)*%
X196800000Y-60220000D03*
D24*
%TO.P,R4,2*%
%TO.N,6V*%
X196800000Y-70380000D03*
%TD*%
D20*
%TO.P,C1,1*%
%TO.N,Delayed_Interlock*%
X185000000Y-72600000D03*
D21*
%TO.P,C1,2*%
%TO.N,GND*%
X185000000Y-76100000D03*
%TD*%
D20*
%TO.P,C3,1*%
%TO.N,Delayed_Interlock*%
X195500000Y-75282323D03*
D21*
%TO.P,C3,2*%
%TO.N,GND*%
X195500000Y-78782323D03*
%TD*%
D25*
%TO.P,SW1,1,A*%
%TO.N,unconnected-(SW1-Pad1)*%
X204600000Y-82375000D03*
%TO.P,SW1,2,B*%
%TO.N,Coil-*%
X202600000Y-82375000D03*
%TO.P,SW1,3,C*%
%TO.N,GND*%
X200600000Y-82375000D03*
%TO.P,SW1,4,C*%
%TO.N,unconnected-(SW1-Pad4)*%
X204600000Y-89025000D03*
%TO.P,SW1,5,B*%
%TO.N,unconnected-(SW1-Pad5)*%
X202600000Y-89025000D03*
%TO.P,SW1,6,A*%
%TO.N,unconnected-(SW1-Pad6)*%
X200600000Y-89025000D03*
%TD*%
D11*
%TO.P,R2,1*%
%TO.N,Threshold*%
X189080000Y-60200000D03*
D24*
%TO.P,R2,2*%
%TO.N,Net-(R2-Pad2)*%
X178920000Y-60200000D03*
%TD*%
D15*
%TO.P,J6,1,Pin_1*%
%TO.N,GND*%
X172200000Y-54200000D03*
%TD*%
D23*
%TO.P,J3,1,Pin_1*%
%TO.N,Net-(J3-Pad1)*%
X190067500Y-55042500D03*
D19*
%TO.P,J3,2,Pin_2*%
%TO.N,GND*%
X193567500Y-55042500D03*
%TD*%
D26*
%TO.N,GND*%
X207200000Y-72000000D03*
X207200000Y-68000000D03*
X205800000Y-76600000D03*
X175787924Y-80912076D03*
%TO.N,Coil-*%
X202600000Y-84200000D03*
%TD*%
D27*
%TO.N,Delayed_Interlock*%
X191632500Y-79149823D02*
X195500000Y-75282323D01*
D28*
X185000000Y-72600000D02*
X185000000Y-67459409D01*
D27*
X191632500Y-86057500D02*
X191632500Y-79149823D01*
X187682323Y-75282323D02*
X185000000Y-72600000D01*
D28*
X185000000Y-67459409D02*
X188799409Y-63660000D01*
D27*
X195500000Y-75282323D02*
X187682323Y-75282323D01*
D28*
X189819310Y-63660000D02*
X188799409Y-63660000D01*
X192882133Y-60597177D02*
X189819310Y-63660000D01*
%TO.N,GND*%
X175100000Y-89650000D02*
X172200000Y-86750000D01*
D27*
X170000000Y-56400000D02*
X170000000Y-84550000D01*
X182967500Y-54142500D02*
X180797500Y-51972500D01*
X193567500Y-55042500D02*
X198792500Y-55042500D01*
X170000000Y-84550000D02*
X172200000Y-86750000D01*
X193567500Y-54808078D02*
X191159422Y-52400000D01*
D28*
X205335000Y-80265000D02*
X206835000Y-80265000D01*
X205800000Y-76600000D02*
X205335000Y-77065000D01*
X193567500Y-58578491D02*
X193567500Y-55042500D01*
X198239009Y-63250000D02*
X193567500Y-58578491D01*
D27*
X193567500Y-55042500D02*
X193567500Y-54808078D01*
D28*
X204460000Y-63250000D02*
X198239009Y-63250000D01*
X207438198Y-78838198D02*
X208600000Y-77676396D01*
D27*
X180797500Y-51972500D02*
X174427500Y-51972500D01*
X172200000Y-54200000D02*
X170000000Y-56400000D01*
D28*
X193470501Y-70602824D02*
X191117868Y-70602824D01*
X202035000Y-80265000D02*
X205335000Y-80265000D01*
X210750000Y-86750000D02*
X213000000Y-84500000D01*
X195189569Y-89650000D02*
X175100000Y-89650000D01*
X207200000Y-72000000D02*
X207200000Y-68000000D01*
D27*
X175482323Y-76000000D02*
X184900000Y-76000000D01*
D28*
X208600000Y-77676396D02*
X208600000Y-74160000D01*
X200600000Y-81700000D02*
X202035000Y-80265000D01*
X198089569Y-86750000D02*
X195189569Y-89650000D01*
X195500000Y-78782323D02*
X196825000Y-77457323D01*
X207438198Y-79661802D02*
X207438198Y-78838198D01*
X200600000Y-83800000D02*
X203550000Y-86750000D01*
X205335000Y-77065000D02*
X205335000Y-80265000D01*
X213000000Y-59090000D02*
X212080000Y-58170000D01*
D27*
X185610000Y-52400000D02*
X182967500Y-55042500D01*
X182967500Y-55042500D02*
X182967500Y-54142500D01*
X183470000Y-77630000D02*
X185000000Y-76100000D01*
D28*
X175482323Y-80606475D02*
X175482323Y-76000000D01*
X200600000Y-82375000D02*
X200600000Y-83800000D01*
D27*
X191159422Y-52400000D02*
X185610000Y-52400000D01*
D28*
X200600000Y-82375000D02*
X200600000Y-81700000D01*
D27*
X174427500Y-51972500D02*
X172200000Y-54200000D01*
X183470000Y-87800000D02*
X183470000Y-77630000D01*
D28*
X196825000Y-77457323D02*
X196825000Y-73957323D01*
X206835000Y-80265000D02*
X207438198Y-79661802D01*
D27*
X175482323Y-76000000D02*
X175482323Y-65200000D01*
D28*
X204150000Y-86750000D02*
X210750000Y-86750000D01*
X204150000Y-86750000D02*
X198089569Y-86750000D01*
X175787924Y-80912076D02*
X175482323Y-80606475D01*
X196825000Y-73957323D02*
X193470501Y-70602824D01*
X203550000Y-86750000D02*
X204150000Y-86750000D01*
D27*
X198792500Y-55042500D02*
X201920000Y-58170000D01*
X184900000Y-76000000D02*
X185000000Y-76100000D01*
D28*
X213000000Y-84500000D02*
X213000000Y-59090000D01*
D27*
%TO.N,+24V*%
X171982323Y-62527677D02*
X171982323Y-65200000D01*
D28*
X195003173Y-89200000D02*
X182330000Y-89200000D01*
D27*
X171982323Y-65200000D02*
X171982323Y-76000000D01*
X171982323Y-78852323D02*
X180930000Y-87800000D01*
X179467500Y-55042500D02*
X171982323Y-62527677D01*
X171982323Y-76000000D02*
X171982323Y-78852323D01*
D28*
X182330000Y-89200000D02*
X180930000Y-87800000D01*
X201410000Y-79240000D02*
X196357500Y-84292500D01*
X204200000Y-79240000D02*
X201410000Y-79240000D01*
X196357500Y-84292500D02*
X196357500Y-87845673D01*
X196357500Y-87845673D02*
X195003173Y-89200000D01*
%TO.N,TTL_Out*%
X195132500Y-84881104D02*
X205853604Y-74160000D01*
X195132500Y-86057500D02*
X195132500Y-84881104D01*
X205853604Y-74160000D02*
X206400000Y-74160000D01*
X206400000Y-74160000D02*
X206400000Y-63850000D01*
X206400000Y-63850000D02*
X207000000Y-63250000D01*
%TO.N,Net-(J3-Pad1)*%
X208125000Y-73035431D02*
X208125000Y-62334010D01*
X207465990Y-61675000D02*
X206325000Y-61675000D01*
X204850990Y-64900000D02*
X199200000Y-64900000D01*
X205700000Y-64050990D02*
X204850990Y-64900000D01*
X207425000Y-73735431D02*
X208125000Y-73035431D01*
X190067500Y-55767500D02*
X190067500Y-55042500D01*
X206400000Y-79240000D02*
X207425000Y-78215000D01*
X207425000Y-78215000D02*
X207425000Y-73735431D01*
X206325000Y-61675000D02*
X205700000Y-62300000D01*
X208125000Y-62334010D02*
X207465990Y-61675000D01*
X205700000Y-62300000D02*
X205700000Y-64050990D01*
X199200000Y-64900000D02*
X190067500Y-55767500D01*
%TO.N,Net-(K1-Pad1)*%
X211800000Y-74160000D02*
X211800000Y-65372614D01*
X198880000Y-62300000D02*
X196800000Y-60220000D01*
X202700000Y-62300000D02*
X198880000Y-62300000D01*
X211800000Y-65372614D02*
X207652386Y-61225000D01*
X207652386Y-61225000D02*
X203775000Y-61225000D01*
X203775000Y-61225000D02*
X202700000Y-62300000D01*
%TO.N,Coil-*%
X203650000Y-84100000D02*
X206940000Y-84100000D01*
X202600000Y-83050000D02*
X203650000Y-84100000D01*
X206940000Y-84100000D02*
X211800000Y-79240000D01*
X202600000Y-82375000D02*
X202600000Y-83050000D01*
X202600000Y-84200000D02*
X202600000Y-82375000D01*
%TO.N,6V*%
X186860000Y-88250000D02*
X192254287Y-88250000D01*
X197300000Y-70880000D02*
X196800000Y-70380000D01*
X186010000Y-87800000D02*
X186410000Y-87800000D01*
X197300000Y-79000000D02*
X197300000Y-70880000D01*
X186410000Y-87800000D02*
X186860000Y-88250000D01*
X193451786Y-87052501D02*
X193451786Y-82848214D01*
X192254287Y-88250000D02*
X193451786Y-87052501D01*
X193451786Y-82848214D02*
X197300000Y-79000000D01*
%TD*%
%TA.AperFunction,Conductor*%
%TO.N,GND*%
G36*
X210924431Y-50528502D02*
G01*
X210945405Y-50545405D01*
X214454595Y-54054595D01*
X214488621Y-54116907D01*
X214491500Y-54143690D01*
X214491500Y-55734752D01*
X214471498Y-55802873D01*
X214417842Y-55849366D01*
X214347568Y-55859470D01*
X214282988Y-55829976D01*
X214246365Y-55775773D01*
X214167591Y-55546995D01*
X214164350Y-55539284D01*
X214033787Y-55278556D01*
X214029566Y-55271362D01*
X213865659Y-55030180D01*
X213860526Y-55023610D01*
X213666161Y-54806225D01*
X213660205Y-54800392D01*
X213438797Y-54610622D01*
X213432116Y-54605624D01*
X213187563Y-54446809D01*
X213180273Y-54442735D01*
X212916868Y-54317662D01*
X212909100Y-54314586D01*
X212631469Y-54225448D01*
X212623363Y-54223427D01*
X212351830Y-54174571D01*
X212338571Y-54176003D01*
X212334000Y-54190613D01*
X212334000Y-62146367D01*
X212338295Y-62160996D01*
X212350272Y-62163058D01*
X212422053Y-62156778D01*
X212430292Y-62155503D01*
X212714880Y-62091890D01*
X212722877Y-62089536D01*
X212996534Y-61988850D01*
X213004172Y-61985450D01*
X213262115Y-61849451D01*
X213269213Y-61845084D01*
X213506905Y-61676165D01*
X213513372Y-61670892D01*
X213726639Y-61472017D01*
X213732351Y-61465933D01*
X213917437Y-61240607D01*
X213922292Y-61233826D01*
X214075958Y-60985987D01*
X214079871Y-60978627D01*
X214199404Y-60712654D01*
X214202314Y-60704831D01*
X214244751Y-60562480D01*
X214283381Y-60502913D01*
X214348083Y-60473687D01*
X214418315Y-60484080D01*
X214471778Y-60530794D01*
X214491500Y-60598477D01*
X214491500Y-84351160D01*
X214471498Y-84419281D01*
X214417842Y-84465774D01*
X214347568Y-84475878D01*
X214282988Y-84446384D01*
X214260546Y-84420879D01*
X214257331Y-84416039D01*
X214016722Y-84089686D01*
X214012842Y-84084929D01*
X213911935Y-83972859D01*
X213898413Y-83964528D01*
X213898337Y-83964529D01*
X213889053Y-83970158D01*
X210750000Y-87109210D01*
X207971055Y-89888156D01*
X207963441Y-89902100D01*
X207963496Y-89902879D01*
X207968850Y-89910929D01*
X208017180Y-89956312D01*
X208021858Y-89960294D01*
X208343106Y-90207688D01*
X208348149Y-90211193D01*
X208424090Y-90258646D01*
X208471260Y-90311707D01*
X208482255Y-90381847D01*
X208453584Y-90446797D01*
X208394350Y-90485936D01*
X208357320Y-90491500D01*
X205715621Y-90491500D01*
X205647500Y-90471498D01*
X205601007Y-90417842D01*
X205590903Y-90347568D01*
X205597637Y-90321275D01*
X205598971Y-90317716D01*
X205598971Y-90317715D01*
X205601745Y-90310316D01*
X205608500Y-90248134D01*
X205608500Y-87801866D01*
X205601745Y-87739684D01*
X205550615Y-87603295D01*
X205463261Y-87486739D01*
X205346705Y-87399385D01*
X205210316Y-87348255D01*
X205148134Y-87341500D01*
X204051866Y-87341500D01*
X203989684Y-87348255D01*
X203853295Y-87399385D01*
X203736739Y-87486739D01*
X203700824Y-87534660D01*
X203643967Y-87577173D01*
X203573149Y-87582199D01*
X203510855Y-87548139D01*
X203499183Y-87534670D01*
X203463261Y-87486739D01*
X203346705Y-87399385D01*
X203210316Y-87348255D01*
X203148134Y-87341500D01*
X202051866Y-87341500D01*
X201989684Y-87348255D01*
X201853295Y-87399385D01*
X201736739Y-87486739D01*
X201700824Y-87534660D01*
X201643967Y-87577173D01*
X201573149Y-87582199D01*
X201510855Y-87548139D01*
X201499183Y-87534670D01*
X201463261Y-87486739D01*
X201346705Y-87399385D01*
X201210316Y-87348255D01*
X201148134Y-87341500D01*
X200051866Y-87341500D01*
X199989684Y-87348255D01*
X199853295Y-87399385D01*
X199736739Y-87486739D01*
X199649385Y-87603295D01*
X199598255Y-87739684D01*
X199591500Y-87801866D01*
X199591500Y-90248134D01*
X199598255Y-90310316D01*
X199601029Y-90317715D01*
X199601029Y-90317716D01*
X199602363Y-90321275D01*
X199602580Y-90324238D01*
X199602856Y-90325400D01*
X199602668Y-90325445D01*
X199607543Y-90392082D01*
X199573620Y-90454450D01*
X199511363Y-90488577D01*
X199484379Y-90491500D01*
X174593443Y-90491500D01*
X174525322Y-90471498D01*
X174478829Y-90417842D01*
X174468725Y-90347568D01*
X174498219Y-90282988D01*
X174520812Y-90262540D01*
X174791315Y-90071721D01*
X174796153Y-90067941D01*
X174977043Y-89911802D01*
X174985458Y-89898762D01*
X174979519Y-89888730D01*
X171840790Y-86750000D01*
X169062374Y-83971585D01*
X169048430Y-83963971D01*
X169047885Y-83964010D01*
X169039525Y-83969612D01*
X168974692Y-84039625D01*
X168970734Y-84044342D01*
X168734863Y-84355091D01*
X168677745Y-84397258D01*
X168606897Y-84401851D01*
X168544813Y-84367412D01*
X168511204Y-84304874D01*
X168508500Y-84278912D01*
X168508500Y-83601641D01*
X169414661Y-83601641D01*
X169420411Y-83611200D01*
X172200000Y-86390790D01*
X175338830Y-89529619D01*
X175352774Y-89537233D01*
X175353789Y-89537161D01*
X175361520Y-89532058D01*
X175387160Y-89505133D01*
X175391172Y-89500485D01*
X175640783Y-89180998D01*
X175644355Y-89175935D01*
X175861593Y-88833621D01*
X175864636Y-88828265D01*
X176047452Y-88466353D01*
X176049947Y-88460749D01*
X176196572Y-88082724D01*
X176198513Y-88076890D01*
X176307553Y-87686351D01*
X176308909Y-87680380D01*
X176379322Y-87281056D01*
X176380089Y-87274982D01*
X176411282Y-86869591D01*
X176411459Y-86865676D01*
X176413047Y-86751974D01*
X176412979Y-86748030D01*
X176393118Y-86341949D01*
X176392517Y-86335825D01*
X176333290Y-85934737D01*
X176332090Y-85928675D01*
X176234007Y-85535289D01*
X176232222Y-85529374D01*
X176096214Y-85147421D01*
X176093871Y-85141737D01*
X175921236Y-84774869D01*
X175918347Y-84769435D01*
X175899160Y-84737249D01*
X175881460Y-84668494D01*
X175903742Y-84601085D01*
X175958931Y-84556423D01*
X176029505Y-84548688D01*
X176096484Y-84583637D01*
X177795267Y-86282420D01*
X177829293Y-86344732D01*
X177824228Y-86415547D01*
X177779072Y-86474285D01*
X177662389Y-86557054D01*
X177516119Y-86709850D01*
X177401380Y-86887548D01*
X177322314Y-87083737D01*
X177281772Y-87291337D01*
X177281500Y-87296899D01*
X177281500Y-88252846D01*
X177296548Y-88410566D01*
X177356092Y-88613534D01*
X177358836Y-88618861D01*
X177358836Y-88618862D01*
X177386706Y-88672974D01*
X177452942Y-88801580D01*
X177583604Y-88967920D01*
X177588135Y-88971852D01*
X177588138Y-88971855D01*
X177674058Y-89046412D01*
X177743363Y-89106552D01*
X177748549Y-89109552D01*
X177748553Y-89109555D01*
X177891241Y-89192102D01*
X177926454Y-89212473D01*
X178126271Y-89281861D01*
X178132206Y-89282722D01*
X178132208Y-89282722D01*
X178329664Y-89311352D01*
X178329667Y-89311352D01*
X178335604Y-89312213D01*
X178546899Y-89302433D01*
X178678077Y-89270819D01*
X178746701Y-89254281D01*
X178746703Y-89254280D01*
X178752534Y-89252875D01*
X178757992Y-89250393D01*
X178757996Y-89250392D01*
X178873041Y-89198084D01*
X178945087Y-89165326D01*
X179117611Y-89042946D01*
X179263881Y-88890150D01*
X179378620Y-88712452D01*
X179437440Y-88566500D01*
X179455442Y-88521832D01*
X179455443Y-88521829D01*
X179457686Y-88516263D01*
X179498228Y-88308663D01*
X179498500Y-88303101D01*
X179498500Y-88289844D01*
X179518502Y-88221723D01*
X179572158Y-88175230D01*
X179642432Y-88165126D01*
X179707012Y-88194620D01*
X179713595Y-88200749D01*
X179795354Y-88282508D01*
X179829380Y-88344820D01*
X179831688Y-88359631D01*
X179836548Y-88410566D01*
X179896092Y-88613534D01*
X179898836Y-88618861D01*
X179898836Y-88618862D01*
X179926706Y-88672974D01*
X179992942Y-88801580D01*
X180123604Y-88967920D01*
X180128135Y-88971852D01*
X180128138Y-88971855D01*
X180214058Y-89046412D01*
X180283363Y-89106552D01*
X180288549Y-89109552D01*
X180288553Y-89109555D01*
X180431241Y-89192102D01*
X180466454Y-89212473D01*
X180666271Y-89281861D01*
X180672206Y-89282722D01*
X180672208Y-89282722D01*
X180869664Y-89311352D01*
X180869667Y-89311352D01*
X180875604Y-89312213D01*
X181086899Y-89302433D01*
X181218077Y-89270819D01*
X181286701Y-89254281D01*
X181286703Y-89254280D01*
X181292534Y-89252875D01*
X181297992Y-89250393D01*
X181297996Y-89250392D01*
X181317829Y-89241374D01*
X181346701Y-89228247D01*
X181416990Y-89218259D01*
X181481522Y-89247859D01*
X181487947Y-89253852D01*
X181826348Y-89592253D01*
X181833888Y-89600539D01*
X181838000Y-89607018D01*
X181843777Y-89612443D01*
X181887651Y-89653643D01*
X181890493Y-89656398D01*
X181910230Y-89676135D01*
X181913427Y-89678615D01*
X181922447Y-89686318D01*
X181954679Y-89716586D01*
X181961625Y-89720405D01*
X181961628Y-89720407D01*
X181972434Y-89726348D01*
X181988953Y-89737199D01*
X182004959Y-89749614D01*
X182012228Y-89752759D01*
X182012232Y-89752762D01*
X182045537Y-89767174D01*
X182056187Y-89772391D01*
X182094940Y-89793695D01*
X182102615Y-89795666D01*
X182102616Y-89795666D01*
X182114562Y-89798733D01*
X182133267Y-89805137D01*
X182151855Y-89813181D01*
X182159678Y-89814420D01*
X182159688Y-89814423D01*
X182195524Y-89820099D01*
X182207144Y-89822505D01*
X182238959Y-89830673D01*
X182249970Y-89833500D01*
X182270224Y-89833500D01*
X182289934Y-89835051D01*
X182309943Y-89838220D01*
X182317835Y-89837474D01*
X182336580Y-89835702D01*
X182353962Y-89834059D01*
X182365819Y-89833500D01*
X194924406Y-89833500D01*
X194935589Y-89834027D01*
X194943082Y-89835702D01*
X194951008Y-89835453D01*
X194951009Y-89835453D01*
X195011159Y-89833562D01*
X195015118Y-89833500D01*
X195043029Y-89833500D01*
X195046964Y-89833003D01*
X195047029Y-89832995D01*
X195058866Y-89832062D01*
X195091124Y-89831048D01*
X195095143Y-89830922D01*
X195103062Y-89830673D01*
X195122516Y-89825021D01*
X195141873Y-89821013D01*
X195154103Y-89819468D01*
X195154104Y-89819468D01*
X195161970Y-89818474D01*
X195169341Y-89815555D01*
X195169343Y-89815555D01*
X195203085Y-89802196D01*
X195214315Y-89798351D01*
X195249156Y-89788229D01*
X195249157Y-89788229D01*
X195256766Y-89786018D01*
X195263585Y-89781985D01*
X195263590Y-89781983D01*
X195274201Y-89775707D01*
X195291949Y-89767012D01*
X195310790Y-89759552D01*
X195346560Y-89733564D01*
X195356480Y-89727048D01*
X195387708Y-89708580D01*
X195387711Y-89708578D01*
X195394535Y-89704542D01*
X195408856Y-89690221D01*
X195423890Y-89677380D01*
X195433867Y-89670131D01*
X195440280Y-89665472D01*
X195468471Y-89631395D01*
X195476461Y-89622616D01*
X196749747Y-88349330D01*
X196758037Y-88341786D01*
X196764518Y-88337673D01*
X196811159Y-88288005D01*
X196813913Y-88285164D01*
X196833635Y-88265442D01*
X196836112Y-88262249D01*
X196843817Y-88253228D01*
X196868659Y-88226773D01*
X196874086Y-88220994D01*
X196879775Y-88210646D01*
X196883846Y-88203241D01*
X196894702Y-88186714D01*
X196902257Y-88176975D01*
X196902258Y-88176973D01*
X196907114Y-88170713D01*
X196924674Y-88130133D01*
X196929891Y-88119485D01*
X196947375Y-88087682D01*
X196947376Y-88087680D01*
X196951195Y-88080733D01*
X196956233Y-88061110D01*
X196962637Y-88042407D01*
X196967533Y-88031093D01*
X196967533Y-88031092D01*
X196970681Y-88023818D01*
X196971920Y-88015995D01*
X196971923Y-88015985D01*
X196977599Y-87980149D01*
X196980005Y-87968529D01*
X196989028Y-87933384D01*
X196989028Y-87933383D01*
X196991000Y-87925703D01*
X196991000Y-87905449D01*
X196992551Y-87885738D01*
X196994480Y-87873559D01*
X196995720Y-87865730D01*
X196991559Y-87821711D01*
X196991000Y-87809854D01*
X196991000Y-84607094D01*
X197011002Y-84538973D01*
X197027905Y-84517999D01*
X197951235Y-83594669D01*
X199592001Y-83594669D01*
X199592371Y-83601490D01*
X199597895Y-83652352D01*
X199601521Y-83667604D01*
X199646676Y-83788054D01*
X199655214Y-83803649D01*
X199731715Y-83905724D01*
X199744276Y-83918285D01*
X199846351Y-83994786D01*
X199861946Y-84003324D01*
X199982394Y-84048478D01*
X199997649Y-84052105D01*
X200048514Y-84057631D01*
X200055328Y-84058000D01*
X200327885Y-84058000D01*
X200343124Y-84053525D01*
X200344329Y-84052135D01*
X200346000Y-84044452D01*
X200346000Y-82647115D01*
X200341525Y-82631876D01*
X200340135Y-82630671D01*
X200332452Y-82629000D01*
X199610116Y-82629000D01*
X199594877Y-82633475D01*
X199593672Y-82634865D01*
X199592001Y-82642548D01*
X199592001Y-83594669D01*
X197951235Y-83594669D01*
X199423145Y-82122759D01*
X199485456Y-82088734D01*
X199556271Y-82093799D01*
X199594752Y-82116631D01*
X199597865Y-82119329D01*
X199605548Y-82121000D01*
X200728000Y-82121000D01*
X200796121Y-82141002D01*
X200842614Y-82194658D01*
X200854000Y-82247000D01*
X200854000Y-84039884D01*
X200858475Y-84055123D01*
X200859865Y-84056328D01*
X200867548Y-84057999D01*
X201144669Y-84057999D01*
X201151490Y-84057629D01*
X201202352Y-84052105D01*
X201217604Y-84048479D01*
X201338054Y-84003324D01*
X201353649Y-83994786D01*
X201455724Y-83918285D01*
X201468285Y-83905724D01*
X201493380Y-83872240D01*
X201550239Y-83829725D01*
X201621058Y-83824699D01*
X201683351Y-83858759D01*
X201717341Y-83921090D01*
X201714039Y-83986740D01*
X201706458Y-84010072D01*
X201705768Y-84016633D01*
X201705768Y-84016635D01*
X201698590Y-84084929D01*
X201686496Y-84200000D01*
X201687186Y-84206565D01*
X201704092Y-84367412D01*
X201706458Y-84389928D01*
X201765473Y-84571556D01*
X201768776Y-84577278D01*
X201768777Y-84577279D01*
X201785991Y-84607094D01*
X201860960Y-84736944D01*
X201988747Y-84878866D01*
X202143248Y-84991118D01*
X202149276Y-84993802D01*
X202149278Y-84993803D01*
X202311681Y-85066109D01*
X202317712Y-85068794D01*
X202405815Y-85087521D01*
X202498056Y-85107128D01*
X202498061Y-85107128D01*
X202504513Y-85108500D01*
X202695487Y-85108500D01*
X202701939Y-85107128D01*
X202701944Y-85107128D01*
X202794185Y-85087521D01*
X202882288Y-85068794D01*
X202888319Y-85066109D01*
X203050722Y-84993803D01*
X203050724Y-84993802D01*
X203056752Y-84991118D01*
X203211253Y-84878866D01*
X203331390Y-84745441D01*
X203391835Y-84708201D01*
X203460180Y-84708755D01*
X203464585Y-84710035D01*
X203471855Y-84713181D01*
X203479679Y-84714420D01*
X203479685Y-84714422D01*
X203515524Y-84720099D01*
X203527144Y-84722505D01*
X203558959Y-84730673D01*
X203569970Y-84733500D01*
X203590224Y-84733500D01*
X203609934Y-84735051D01*
X203629943Y-84738220D01*
X203637835Y-84737474D01*
X203673961Y-84734059D01*
X203685819Y-84733500D01*
X206849991Y-84733500D01*
X206918112Y-84753502D01*
X206964605Y-84807158D01*
X206974709Y-84877432D01*
X206963239Y-84914735D01*
X206878966Y-85087521D01*
X206876540Y-85093180D01*
X206735208Y-85473211D01*
X206733350Y-85479068D01*
X206629775Y-85871085D01*
X206628500Y-85877085D01*
X206563674Y-86277331D01*
X206562987Y-86283452D01*
X206537530Y-86688089D01*
X206537444Y-86694265D01*
X206551593Y-87099461D01*
X206552108Y-87105595D01*
X206605734Y-87507494D01*
X206606841Y-87513531D01*
X206699429Y-87908283D01*
X206701123Y-87914193D01*
X206831789Y-88298021D01*
X206834057Y-88303746D01*
X207001546Y-88672974D01*
X207004367Y-88678464D01*
X207207094Y-89029596D01*
X207210414Y-89034749D01*
X207446454Y-89364446D01*
X207450263Y-89369251D01*
X207588298Y-89526929D01*
X207601512Y-89535327D01*
X207611307Y-89529482D01*
X210750000Y-86390790D01*
X213528030Y-83612759D01*
X213535644Y-83598815D01*
X213535622Y-83598506D01*
X213529767Y-83589835D01*
X213437789Y-83505846D01*
X213433051Y-83501927D01*
X213108391Y-83259050D01*
X213103285Y-83255606D01*
X212756468Y-83045566D01*
X212751072Y-83042649D01*
X212385404Y-82867449D01*
X212379737Y-82865067D01*
X211998739Y-82726396D01*
X211992851Y-82724574D01*
X211600140Y-82623742D01*
X211594117Y-82622506D01*
X211193415Y-82560474D01*
X211187328Y-82559834D01*
X210782483Y-82537200D01*
X210776331Y-82537157D01*
X210371238Y-82554135D01*
X210365112Y-82554692D01*
X209963601Y-82611121D01*
X209957548Y-82612276D01*
X209563463Y-82707615D01*
X209562705Y-82707838D01*
X209562540Y-82707838D01*
X209560474Y-82708338D01*
X209560353Y-82707840D01*
X209491708Y-82707884D01*
X209431958Y-82669539D01*
X209402423Y-82604977D01*
X209412482Y-82534696D01*
X209438034Y-82497870D01*
X209488879Y-82447026D01*
X211468462Y-80467443D01*
X211530774Y-80433417D01*
X211579439Y-80432453D01*
X211584039Y-80433264D01*
X211589345Y-80434686D01*
X211594812Y-80435164D01*
X211594816Y-80435165D01*
X211794525Y-80452637D01*
X211800000Y-80453116D01*
X212010655Y-80434686D01*
X212015968Y-80433262D01*
X212015970Y-80433262D01*
X212209600Y-80381379D01*
X212209602Y-80381378D01*
X212214910Y-80379956D01*
X212219892Y-80377633D01*
X212401577Y-80292912D01*
X212401580Y-80292910D01*
X212406558Y-80290589D01*
X212579776Y-80169301D01*
X212729301Y-80019776D01*
X212850589Y-79846558D01*
X212939956Y-79654910D01*
X212943746Y-79640768D01*
X212993262Y-79455970D01*
X212993262Y-79455968D01*
X212994686Y-79450655D01*
X213013116Y-79240000D01*
X212994686Y-79029345D01*
X212990083Y-79012165D01*
X212941379Y-78830400D01*
X212941378Y-78830398D01*
X212939956Y-78825090D01*
X212937633Y-78820108D01*
X212852912Y-78638423D01*
X212852910Y-78638420D01*
X212850589Y-78633442D01*
X212729301Y-78460224D01*
X212579776Y-78310699D01*
X212406558Y-78189411D01*
X212401580Y-78187090D01*
X212401577Y-78187088D01*
X212219892Y-78102367D01*
X212219891Y-78102366D01*
X212214910Y-78100044D01*
X212209602Y-78098622D01*
X212209600Y-78098621D01*
X212015970Y-78046738D01*
X212015968Y-78046738D01*
X212010655Y-78045314D01*
X211800000Y-78026884D01*
X211589345Y-78045314D01*
X211584032Y-78046738D01*
X211584030Y-78046738D01*
X211390400Y-78098621D01*
X211390398Y-78098622D01*
X211385090Y-78100044D01*
X211380109Y-78102366D01*
X211380108Y-78102367D01*
X211198423Y-78187088D01*
X211198420Y-78187090D01*
X211193442Y-78189411D01*
X211020224Y-78310699D01*
X210870699Y-78460224D01*
X210749411Y-78633442D01*
X210747090Y-78638420D01*
X210747088Y-78638423D01*
X210662367Y-78820108D01*
X210660044Y-78825090D01*
X210658622Y-78830398D01*
X210658621Y-78830400D01*
X210609917Y-79012165D01*
X210605314Y-79029345D01*
X210586884Y-79240000D01*
X210587363Y-79245475D01*
X210604835Y-79445175D01*
X210605314Y-79450655D01*
X210606736Y-79455961D01*
X210607547Y-79460561D01*
X210599679Y-79531121D01*
X210572557Y-79571538D01*
X206714500Y-83429595D01*
X206652188Y-83463621D01*
X206625405Y-83466500D01*
X205734500Y-83466500D01*
X205666379Y-83446498D01*
X205619886Y-83392842D01*
X205608500Y-83340500D01*
X205608500Y-81151866D01*
X205601745Y-81089684D01*
X205550615Y-80953295D01*
X205463261Y-80836739D01*
X205346705Y-80749385D01*
X205210316Y-80698255D01*
X205148134Y-80691500D01*
X204361138Y-80691500D01*
X204293017Y-80671498D01*
X204246524Y-80617842D01*
X204236420Y-80547568D01*
X204265914Y-80482988D01*
X204325640Y-80444604D01*
X204350156Y-80439979D01*
X204350360Y-80439961D01*
X204410655Y-80434686D01*
X204415968Y-80433262D01*
X204415970Y-80433262D01*
X204609600Y-80381379D01*
X204609602Y-80381378D01*
X204614910Y-80379956D01*
X204619892Y-80377633D01*
X204801577Y-80292912D01*
X204801580Y-80292910D01*
X204806558Y-80290589D01*
X204979776Y-80169301D01*
X205129301Y-80019776D01*
X205196788Y-79923394D01*
X205252244Y-79879067D01*
X205322863Y-79871758D01*
X205386224Y-79903789D01*
X205403211Y-79923393D01*
X205470699Y-80019776D01*
X205620224Y-80169301D01*
X205793442Y-80290589D01*
X205798420Y-80292910D01*
X205798423Y-80292912D01*
X205980108Y-80377633D01*
X205985090Y-80379956D01*
X205990398Y-80381378D01*
X205990400Y-80381379D01*
X206184030Y-80433262D01*
X206184032Y-80433262D01*
X206189345Y-80434686D01*
X206400000Y-80453116D01*
X206610655Y-80434686D01*
X206615968Y-80433262D01*
X206615970Y-80433262D01*
X206809600Y-80381379D01*
X206809602Y-80381378D01*
X206814910Y-80379956D01*
X206819892Y-80377633D01*
X207001577Y-80292912D01*
X207001580Y-80292910D01*
X207006558Y-80290589D01*
X207179776Y-80169301D01*
X207329301Y-80019776D01*
X207396788Y-79923394D01*
X207452244Y-79879067D01*
X207522863Y-79871758D01*
X207586224Y-79903789D01*
X207603211Y-79923393D01*
X207670699Y-80019776D01*
X207820224Y-80169301D01*
X207993442Y-80290589D01*
X207998420Y-80292910D01*
X207998423Y-80292912D01*
X208180108Y-80377633D01*
X208185090Y-80379956D01*
X208190398Y-80381378D01*
X208190400Y-80381379D01*
X208384030Y-80433262D01*
X208384032Y-80433262D01*
X208389345Y-80434686D01*
X208600000Y-80453116D01*
X208810655Y-80434686D01*
X208815968Y-80433262D01*
X208815970Y-80433262D01*
X209009600Y-80381379D01*
X209009602Y-80381378D01*
X209014910Y-80379956D01*
X209019892Y-80377633D01*
X209201577Y-80292912D01*
X209201580Y-80292910D01*
X209206558Y-80290589D01*
X209379776Y-80169301D01*
X209529301Y-80019776D01*
X209650589Y-79846558D01*
X209739956Y-79654910D01*
X209743746Y-79640768D01*
X209793262Y-79455970D01*
X209793262Y-79455968D01*
X209794686Y-79450655D01*
X209813116Y-79240000D01*
X209794686Y-79029345D01*
X209790083Y-79012165D01*
X209741379Y-78830400D01*
X209741378Y-78830398D01*
X209739956Y-78825090D01*
X209737633Y-78820108D01*
X209652912Y-78638423D01*
X209652910Y-78638420D01*
X209650589Y-78633442D01*
X209529301Y-78460224D01*
X209379776Y-78310699D01*
X209206558Y-78189411D01*
X209201580Y-78187090D01*
X209201577Y-78187088D01*
X209019892Y-78102367D01*
X209019891Y-78102366D01*
X209014910Y-78100044D01*
X209009602Y-78098622D01*
X209009600Y-78098621D01*
X208815970Y-78046738D01*
X208815968Y-78046738D01*
X208810655Y-78045314D01*
X208600000Y-78026884D01*
X208389345Y-78045314D01*
X208384032Y-78046738D01*
X208384030Y-78046738D01*
X208217111Y-78091464D01*
X208146135Y-78089774D01*
X208087339Y-78049980D01*
X208059391Y-77984716D01*
X208058500Y-77969757D01*
X208058500Y-75429725D01*
X208078502Y-75361604D01*
X208132158Y-75315111D01*
X208202432Y-75305007D01*
X208217112Y-75308019D01*
X208384111Y-75352767D01*
X208394909Y-75354671D01*
X208594525Y-75372135D01*
X208605475Y-75372135D01*
X208805091Y-75354671D01*
X208815878Y-75352769D01*
X209009429Y-75300907D01*
X209019723Y-75297159D01*
X209201323Y-75212479D01*
X209210811Y-75207001D01*
X209241248Y-75185689D01*
X209249623Y-75175212D01*
X209242554Y-75161764D01*
X208329885Y-74249095D01*
X208295859Y-74186783D01*
X208297694Y-74161132D01*
X208964408Y-74161132D01*
X208964539Y-74162965D01*
X208968790Y-74169580D01*
X209602486Y-74803276D01*
X209614261Y-74809706D01*
X209626276Y-74800410D01*
X209647001Y-74770811D01*
X209652479Y-74761323D01*
X209737159Y-74579723D01*
X209740907Y-74569429D01*
X209792769Y-74375878D01*
X209794671Y-74365091D01*
X209812135Y-74165475D01*
X209812135Y-74154525D01*
X209794671Y-73954909D01*
X209792769Y-73944122D01*
X209740907Y-73750571D01*
X209737159Y-73740277D01*
X209652479Y-73558677D01*
X209647001Y-73549189D01*
X209625689Y-73518752D01*
X209615212Y-73510377D01*
X209601764Y-73517446D01*
X208972022Y-74147188D01*
X208964408Y-74161132D01*
X208297694Y-74161132D01*
X208300924Y-74115968D01*
X208329885Y-74070905D01*
X209243276Y-73157514D01*
X209249706Y-73145739D01*
X209240410Y-73133724D01*
X209210811Y-73112999D01*
X209201323Y-73107521D01*
X209019723Y-73022841D01*
X209009429Y-73019093D01*
X208851888Y-72976880D01*
X208791266Y-72939928D01*
X208760244Y-72876067D01*
X208758500Y-72855173D01*
X208758500Y-63531208D01*
X208778502Y-63463087D01*
X208832158Y-63416594D01*
X208902432Y-63406490D01*
X208967012Y-63435984D01*
X208973594Y-63442112D01*
X210193782Y-64662301D01*
X211129595Y-65598114D01*
X211163621Y-65660426D01*
X211166500Y-65687209D01*
X211166500Y-73062685D01*
X211146498Y-73130806D01*
X211112770Y-73165898D01*
X211020224Y-73230699D01*
X210870699Y-73380224D01*
X210749411Y-73553442D01*
X210747090Y-73558420D01*
X210747088Y-73558423D01*
X210705400Y-73647823D01*
X210660044Y-73745090D01*
X210658622Y-73750398D01*
X210658621Y-73750400D01*
X210635069Y-73838297D01*
X210605314Y-73949345D01*
X210586884Y-74160000D01*
X210605314Y-74370655D01*
X210606738Y-74375968D01*
X210606738Y-74375970D01*
X210653205Y-74549385D01*
X210660044Y-74574910D01*
X210662366Y-74579891D01*
X210662367Y-74579892D01*
X210746204Y-74759680D01*
X210749411Y-74766558D01*
X210870699Y-74939776D01*
X211020224Y-75089301D01*
X211193442Y-75210589D01*
X211198420Y-75212910D01*
X211198423Y-75212912D01*
X211262765Y-75242915D01*
X211385090Y-75299956D01*
X211390398Y-75301378D01*
X211390400Y-75301379D01*
X211584030Y-75353262D01*
X211584032Y-75353262D01*
X211589345Y-75354686D01*
X211800000Y-75373116D01*
X212010655Y-75354686D01*
X212015968Y-75353262D01*
X212015970Y-75353262D01*
X212209600Y-75301379D01*
X212209602Y-75301378D01*
X212214910Y-75299956D01*
X212337235Y-75242915D01*
X212401577Y-75212912D01*
X212401580Y-75212910D01*
X212406558Y-75210589D01*
X212579776Y-75089301D01*
X212729301Y-74939776D01*
X212850589Y-74766558D01*
X212853797Y-74759680D01*
X212937633Y-74579892D01*
X212937634Y-74579891D01*
X212939956Y-74574910D01*
X212946796Y-74549385D01*
X212993262Y-74375970D01*
X212993262Y-74375968D01*
X212994686Y-74370655D01*
X213013116Y-74160000D01*
X212994686Y-73949345D01*
X212964931Y-73838297D01*
X212941379Y-73750400D01*
X212941378Y-73750398D01*
X212939956Y-73745090D01*
X212894600Y-73647823D01*
X212852912Y-73558423D01*
X212852910Y-73558420D01*
X212850589Y-73553442D01*
X212729301Y-73380224D01*
X212579776Y-73230699D01*
X212487230Y-73165898D01*
X212442901Y-73110441D01*
X212433500Y-73062685D01*
X212433500Y-65451381D01*
X212434027Y-65440198D01*
X212435702Y-65432705D01*
X212435316Y-65420406D01*
X212433562Y-65364615D01*
X212433500Y-65360657D01*
X212433500Y-65332758D01*
X212432996Y-65328767D01*
X212432063Y-65316925D01*
X212431923Y-65312443D01*
X212430674Y-65272725D01*
X212428462Y-65265111D01*
X212428461Y-65265106D01*
X212425023Y-65253273D01*
X212421012Y-65233909D01*
X212419467Y-65221678D01*
X212418474Y-65213817D01*
X212415557Y-65206450D01*
X212415556Y-65206445D01*
X212402198Y-65172706D01*
X212398354Y-65161479D01*
X212388230Y-65126636D01*
X212386018Y-65119021D01*
X212375707Y-65101586D01*
X212367012Y-65083838D01*
X212359552Y-65064997D01*
X212333564Y-65029227D01*
X212327048Y-65019307D01*
X212308580Y-64988079D01*
X212308578Y-64988076D01*
X212304542Y-64981252D01*
X212290221Y-64966931D01*
X212277380Y-64951897D01*
X212270131Y-64941920D01*
X212265472Y-64935507D01*
X212231395Y-64907316D01*
X212222616Y-64899326D01*
X208156038Y-60832747D01*
X208148498Y-60824461D01*
X208144386Y-60817982D01*
X208094734Y-60771356D01*
X208091893Y-60768602D01*
X208072156Y-60748865D01*
X208068959Y-60746385D01*
X208059937Y-60738680D01*
X208027707Y-60708414D01*
X208020761Y-60704595D01*
X208020758Y-60704593D01*
X208009952Y-60698652D01*
X207993433Y-60687801D01*
X207992969Y-60687441D01*
X207977427Y-60675386D01*
X207970158Y-60672241D01*
X207970154Y-60672238D01*
X207936849Y-60657826D01*
X207926199Y-60652609D01*
X207887446Y-60631305D01*
X207867823Y-60626267D01*
X207849120Y-60619863D01*
X207837806Y-60614967D01*
X207837805Y-60614967D01*
X207830531Y-60611819D01*
X207822708Y-60610580D01*
X207822698Y-60610577D01*
X207786862Y-60604901D01*
X207775242Y-60602495D01*
X207740097Y-60593472D01*
X207740096Y-60593472D01*
X207732416Y-60591500D01*
X207712162Y-60591500D01*
X207692451Y-60589949D01*
X207680272Y-60588020D01*
X207672443Y-60586780D01*
X207664551Y-60587526D01*
X207628425Y-60590941D01*
X207616567Y-60591500D01*
X204245142Y-60591500D01*
X204177021Y-60571498D01*
X204130528Y-60517842D01*
X204120424Y-60447568D01*
X204124394Y-60429500D01*
X204125624Y-60425375D01*
X204127469Y-60417254D01*
X204173191Y-60128571D01*
X204173899Y-60121597D01*
X204177936Y-60032714D01*
X204178000Y-60029881D01*
X204178000Y-59993993D01*
X209822000Y-59993993D01*
X209822139Y-59998182D01*
X209836549Y-60215132D01*
X209837653Y-60223403D01*
X209895290Y-60509251D01*
X209897478Y-60517303D01*
X209992409Y-60793005D01*
X209995650Y-60800716D01*
X210126213Y-61061444D01*
X210130434Y-61068638D01*
X210294341Y-61309820D01*
X210299474Y-61316390D01*
X210493839Y-61533775D01*
X210499795Y-61539608D01*
X210721203Y-61729378D01*
X210727884Y-61734376D01*
X210972437Y-61893191D01*
X210979727Y-61897265D01*
X211243132Y-62022338D01*
X211250900Y-62025414D01*
X211528531Y-62114552D01*
X211536637Y-62116573D01*
X211808170Y-62165429D01*
X211821429Y-62163997D01*
X211826000Y-62149387D01*
X211826000Y-58442115D01*
X211821525Y-58426876D01*
X211820135Y-58425671D01*
X211812452Y-58424000D01*
X209840115Y-58424000D01*
X209824876Y-58428475D01*
X209823671Y-58429865D01*
X209822000Y-58437548D01*
X209822000Y-59993993D01*
X204178000Y-59993993D01*
X204178000Y-58442115D01*
X204173525Y-58426876D01*
X204172135Y-58425671D01*
X204164452Y-58424000D01*
X199680115Y-58424000D01*
X199664876Y-58428475D01*
X199663671Y-58429865D01*
X199662000Y-58437548D01*
X199662000Y-59993993D01*
X199662139Y-59998182D01*
X199676549Y-60215132D01*
X199677653Y-60223403D01*
X199735290Y-60509251D01*
X199737478Y-60517303D01*
X199832409Y-60793005D01*
X199835650Y-60800716D01*
X199966213Y-61061444D01*
X199970434Y-61068638D01*
X200134341Y-61309820D01*
X200139474Y-61316390D01*
X200264762Y-61456517D01*
X200295256Y-61520631D01*
X200286246Y-61591054D01*
X200240593Y-61645426D01*
X200170832Y-61666500D01*
X199194595Y-61666500D01*
X199126474Y-61646498D01*
X199105500Y-61629595D01*
X198109152Y-60633247D01*
X198075126Y-60570935D01*
X198076540Y-60511541D01*
X198086683Y-60473687D01*
X198093543Y-60448087D01*
X198113498Y-60220000D01*
X198093543Y-59991913D01*
X198092119Y-59986598D01*
X198035707Y-59776067D01*
X198035706Y-59776065D01*
X198034284Y-59770757D01*
X198027434Y-59756067D01*
X197939849Y-59568238D01*
X197939846Y-59568233D01*
X197937523Y-59563251D01*
X197806198Y-59375700D01*
X197644300Y-59213802D01*
X197639792Y-59210645D01*
X197639789Y-59210643D01*
X197536004Y-59137972D01*
X197456749Y-59082477D01*
X197451767Y-59080154D01*
X197451762Y-59080151D01*
X197254225Y-58988039D01*
X197254224Y-58988039D01*
X197249243Y-58985716D01*
X197243935Y-58984294D01*
X197243933Y-58984293D01*
X197033402Y-58927881D01*
X197033400Y-58927881D01*
X197028087Y-58926457D01*
X196800000Y-58906502D01*
X196571913Y-58926457D01*
X196566600Y-58927881D01*
X196566598Y-58927881D01*
X196356067Y-58984293D01*
X196356065Y-58984294D01*
X196350757Y-58985716D01*
X196345776Y-58988039D01*
X196345775Y-58988039D01*
X196148238Y-59080151D01*
X196148233Y-59080154D01*
X196143251Y-59082477D01*
X196063996Y-59137972D01*
X195960211Y-59210643D01*
X195960208Y-59210645D01*
X195955700Y-59213802D01*
X195793802Y-59375700D01*
X195662477Y-59563251D01*
X195660154Y-59568233D01*
X195660151Y-59568238D01*
X195572566Y-59756067D01*
X195565716Y-59770757D01*
X195564294Y-59776065D01*
X195564293Y-59776067D01*
X195507881Y-59986598D01*
X195506457Y-59991913D01*
X195505978Y-59997391D01*
X195505977Y-59997395D01*
X195504373Y-60015736D01*
X195478511Y-60081855D01*
X195421008Y-60123496D01*
X195350121Y-60127438D01*
X195289757Y-60093852D01*
X193093790Y-57897885D01*
X199662000Y-57897885D01*
X199666475Y-57913124D01*
X199667865Y-57914329D01*
X199675548Y-57916000D01*
X201647885Y-57916000D01*
X201663124Y-57911525D01*
X201664329Y-57910135D01*
X201666000Y-57902452D01*
X201666000Y-57897885D01*
X202174000Y-57897885D01*
X202178475Y-57913124D01*
X202179865Y-57914329D01*
X202187548Y-57916000D01*
X204159885Y-57916000D01*
X204175124Y-57911525D01*
X204176329Y-57910135D01*
X204178000Y-57902452D01*
X204178000Y-57897885D01*
X209822000Y-57897885D01*
X209826475Y-57913124D01*
X209827865Y-57914329D01*
X209835548Y-57916000D01*
X211807885Y-57916000D01*
X211823124Y-57911525D01*
X211824329Y-57910135D01*
X211826000Y-57902452D01*
X211826000Y-54193633D01*
X211821705Y-54179004D01*
X211809728Y-54176942D01*
X211737947Y-54183222D01*
X211729708Y-54184497D01*
X211445120Y-54248110D01*
X211437123Y-54250464D01*
X211163466Y-54351150D01*
X211155828Y-54354550D01*
X210897885Y-54490549D01*
X210890787Y-54494916D01*
X210653095Y-54663835D01*
X210646628Y-54669108D01*
X210433361Y-54867983D01*
X210427649Y-54874067D01*
X210242563Y-55099393D01*
X210237708Y-55106174D01*
X210084042Y-55354013D01*
X210080129Y-55361373D01*
X209960596Y-55627346D01*
X209957686Y-55635169D01*
X209874376Y-55914625D01*
X209872531Y-55922746D01*
X209826809Y-56211429D01*
X209826101Y-56218403D01*
X209822064Y-56307286D01*
X209822000Y-56310119D01*
X209822000Y-57897885D01*
X204178000Y-57897885D01*
X204178000Y-56346007D01*
X204177861Y-56341818D01*
X204163451Y-56124868D01*
X204162347Y-56116597D01*
X204104710Y-55830749D01*
X204102522Y-55822697D01*
X204007591Y-55546995D01*
X204004350Y-55539284D01*
X203873787Y-55278556D01*
X203869566Y-55271362D01*
X203705659Y-55030180D01*
X203700526Y-55023610D01*
X203506161Y-54806225D01*
X203500205Y-54800392D01*
X203278797Y-54610622D01*
X203272116Y-54605624D01*
X203027563Y-54446809D01*
X203020273Y-54442735D01*
X202756868Y-54317662D01*
X202749100Y-54314586D01*
X202471469Y-54225448D01*
X202463363Y-54223427D01*
X202191830Y-54174571D01*
X202178571Y-54176003D01*
X202174000Y-54190613D01*
X202174000Y-57897885D01*
X201666000Y-57897885D01*
X201666000Y-54193633D01*
X201661705Y-54179004D01*
X201649728Y-54176942D01*
X201577947Y-54183222D01*
X201569708Y-54184497D01*
X201285120Y-54248110D01*
X201277123Y-54250464D01*
X201003466Y-54351150D01*
X200995828Y-54354550D01*
X200737885Y-54490549D01*
X200730787Y-54494916D01*
X200493095Y-54663835D01*
X200486628Y-54669108D01*
X200273361Y-54867983D01*
X200267649Y-54874067D01*
X200082563Y-55099393D01*
X200077708Y-55106174D01*
X199924042Y-55354013D01*
X199920129Y-55361373D01*
X199800596Y-55627346D01*
X199797686Y-55635169D01*
X199714376Y-55914625D01*
X199712531Y-55922746D01*
X199666809Y-56211429D01*
X199666101Y-56218403D01*
X199662064Y-56307286D01*
X199662000Y-56310119D01*
X199662000Y-57897885D01*
X193093790Y-57897885D01*
X191512905Y-56317000D01*
X191478879Y-56254688D01*
X191476000Y-56227905D01*
X191476000Y-55999840D01*
X192159500Y-55999840D01*
X192159725Y-56005149D01*
X192174160Y-56175271D01*
X192175952Y-56185759D01*
X192233301Y-56406711D01*
X192236833Y-56416739D01*
X192330585Y-56624863D01*
X192335765Y-56634169D01*
X192463247Y-56823524D01*
X192469906Y-56831807D01*
X192627471Y-56996978D01*
X192635442Y-57004030D01*
X192818582Y-57140290D01*
X192827619Y-57145894D01*
X193031106Y-57249351D01*
X193040959Y-57253352D01*
X193258961Y-57321044D01*
X193269348Y-57323328D01*
X193295543Y-57326800D01*
X193309707Y-57324604D01*
X193313500Y-57311419D01*
X193313500Y-57309782D01*
X193821500Y-57309782D01*
X193825473Y-57323313D01*
X193836080Y-57324838D01*
X193968340Y-57297087D01*
X193978537Y-57294027D01*
X194190840Y-57210185D01*
X194200376Y-57205451D01*
X194395525Y-57087032D01*
X194404118Y-57080766D01*
X194576527Y-56931158D01*
X194583947Y-56923528D01*
X194728680Y-56747012D01*
X194734706Y-56738245D01*
X194847629Y-56539867D01*
X194852095Y-56530203D01*
X194929981Y-56315632D01*
X194932751Y-56305365D01*
X194973581Y-56079568D01*
X194974516Y-56071338D01*
X194975430Y-56051950D01*
X194975500Y-56048974D01*
X194975500Y-55314615D01*
X194971025Y-55299376D01*
X194969635Y-55298171D01*
X194961952Y-55296500D01*
X193839615Y-55296500D01*
X193824376Y-55300975D01*
X193823171Y-55302365D01*
X193821500Y-55310048D01*
X193821500Y-57309782D01*
X193313500Y-57309782D01*
X193313500Y-55314615D01*
X193309025Y-55299376D01*
X193307635Y-55298171D01*
X193299952Y-55296500D01*
X192177615Y-55296500D01*
X192162376Y-55300975D01*
X192161171Y-55302365D01*
X192159500Y-55310048D01*
X192159500Y-55999840D01*
X191476000Y-55999840D01*
X191476000Y-54770385D01*
X192159500Y-54770385D01*
X192163975Y-54785624D01*
X192165365Y-54786829D01*
X192173048Y-54788500D01*
X193295385Y-54788500D01*
X193310624Y-54784025D01*
X193311829Y-54782635D01*
X193313500Y-54774952D01*
X193313500Y-54770385D01*
X193821500Y-54770385D01*
X193825975Y-54785624D01*
X193827365Y-54786829D01*
X193835048Y-54788500D01*
X194957385Y-54788500D01*
X194972624Y-54784025D01*
X194973829Y-54782635D01*
X194975500Y-54774952D01*
X194975500Y-54085160D01*
X194975275Y-54079851D01*
X194960840Y-53909729D01*
X194959048Y-53899241D01*
X194901699Y-53678289D01*
X194898167Y-53668261D01*
X194804415Y-53460137D01*
X194799235Y-53450831D01*
X194671753Y-53261476D01*
X194665094Y-53253193D01*
X194507529Y-53088022D01*
X194499558Y-53080970D01*
X194316418Y-52944710D01*
X194307381Y-52939106D01*
X194103894Y-52835649D01*
X194094041Y-52831648D01*
X193876039Y-52763956D01*
X193865652Y-52761672D01*
X193839457Y-52758200D01*
X193825293Y-52760396D01*
X193821500Y-52773581D01*
X193821500Y-54770385D01*
X193313500Y-54770385D01*
X193313500Y-52775218D01*
X193309527Y-52761687D01*
X193298920Y-52760162D01*
X193166660Y-52787913D01*
X193156463Y-52790973D01*
X192944160Y-52874815D01*
X192934624Y-52879549D01*
X192739475Y-52997968D01*
X192730882Y-53004234D01*
X192558473Y-53153842D01*
X192551053Y-53161472D01*
X192406320Y-53337988D01*
X192400294Y-53346755D01*
X192287371Y-53545133D01*
X192282905Y-53554797D01*
X192205019Y-53769368D01*
X192202249Y-53779635D01*
X192161419Y-54005432D01*
X192160484Y-54013662D01*
X192159570Y-54033050D01*
X192159500Y-54036026D01*
X192159500Y-54770385D01*
X191476000Y-54770385D01*
X191476000Y-53442100D01*
X191475663Y-53438850D01*
X191465738Y-53343192D01*
X191465737Y-53343188D01*
X191465026Y-53336334D01*
X191409050Y-53168554D01*
X191315978Y-53018152D01*
X191190803Y-52893195D01*
X191168665Y-52879549D01*
X191046468Y-52804225D01*
X191046466Y-52804224D01*
X191040238Y-52800385D01*
X190959426Y-52773581D01*
X190878889Y-52746868D01*
X190878887Y-52746868D01*
X190872361Y-52744703D01*
X190865525Y-52744003D01*
X190865522Y-52744002D01*
X190822469Y-52739591D01*
X190767900Y-52734000D01*
X189367100Y-52734000D01*
X189363854Y-52734337D01*
X189363850Y-52734337D01*
X189268192Y-52744262D01*
X189268188Y-52744263D01*
X189261334Y-52744974D01*
X189254798Y-52747155D01*
X189254796Y-52747155D01*
X189123459Y-52790973D01*
X189093554Y-52800950D01*
X188943152Y-52894022D01*
X188818195Y-53019197D01*
X188725385Y-53169762D01*
X188669703Y-53337639D01*
X188659000Y-53442100D01*
X188659000Y-56642900D01*
X188659337Y-56646146D01*
X188659337Y-56646150D01*
X188668893Y-56738245D01*
X188669974Y-56748666D01*
X188725950Y-56916446D01*
X188819022Y-57066848D01*
X188944197Y-57191805D01*
X188950427Y-57195645D01*
X188950428Y-57195646D01*
X189087590Y-57280194D01*
X189094762Y-57284615D01*
X189132364Y-57297087D01*
X189256111Y-57338132D01*
X189256113Y-57338132D01*
X189262639Y-57340297D01*
X189269475Y-57340997D01*
X189269478Y-57340998D01*
X189312531Y-57345409D01*
X189367100Y-57351000D01*
X190702906Y-57351000D01*
X190771027Y-57371002D01*
X190792001Y-57387905D01*
X192542068Y-59137972D01*
X192576094Y-59200284D01*
X192571029Y-59271099D01*
X192528482Y-59327935D01*
X192485586Y-59348773D01*
X192452463Y-59357648D01*
X192438200Y-59361470D01*
X192438198Y-59361471D01*
X192432890Y-59362893D01*
X192427909Y-59365216D01*
X192427908Y-59365216D01*
X192230371Y-59457328D01*
X192230366Y-59457331D01*
X192225384Y-59459654D01*
X192120522Y-59533079D01*
X192042344Y-59587820D01*
X192042341Y-59587822D01*
X192037833Y-59590979D01*
X191875935Y-59752877D01*
X191872778Y-59757385D01*
X191872776Y-59757388D01*
X191863415Y-59770757D01*
X191744610Y-59940428D01*
X191742287Y-59945410D01*
X191742284Y-59945415D01*
X191657406Y-60127438D01*
X191647849Y-60147934D01*
X191646427Y-60153242D01*
X191646426Y-60153244D01*
X191590014Y-60363775D01*
X191588590Y-60369090D01*
X191568635Y-60597177D01*
X191588590Y-60825264D01*
X191590013Y-60830575D01*
X191590015Y-60830586D01*
X191605592Y-60888718D01*
X191603903Y-60959694D01*
X191572981Y-61010425D01*
X189875751Y-62707654D01*
X189813439Y-62741680D01*
X189742623Y-62736615D01*
X189697561Y-62707654D01*
X189643709Y-62653802D01*
X189639201Y-62650645D01*
X189639198Y-62650643D01*
X189561020Y-62595902D01*
X189456158Y-62522477D01*
X189451176Y-62520154D01*
X189451171Y-62520151D01*
X189253634Y-62428039D01*
X189253633Y-62428039D01*
X189248652Y-62425716D01*
X189243344Y-62424294D01*
X189243342Y-62424293D01*
X189032811Y-62367881D01*
X189032809Y-62367881D01*
X189027496Y-62366457D01*
X188799409Y-62346502D01*
X188571322Y-62366457D01*
X188566009Y-62367881D01*
X188566007Y-62367881D01*
X188355476Y-62424293D01*
X188355474Y-62424294D01*
X188350166Y-62425716D01*
X188345185Y-62428039D01*
X188345184Y-62428039D01*
X188147647Y-62520151D01*
X188147642Y-62520154D01*
X188142660Y-62522477D01*
X188037798Y-62595902D01*
X187959620Y-62650643D01*
X187959617Y-62650645D01*
X187955109Y-62653802D01*
X187793211Y-62815700D01*
X187790054Y-62820208D01*
X187790052Y-62820211D01*
X187741272Y-62889876D01*
X187661886Y-63003251D01*
X187659563Y-63008233D01*
X187659560Y-63008238D01*
X187567448Y-63205775D01*
X187565125Y-63210757D01*
X187505866Y-63431913D01*
X187485911Y-63660000D01*
X187505866Y-63888087D01*
X187507289Y-63893398D01*
X187507291Y-63893409D01*
X187522868Y-63951541D01*
X187521179Y-64022517D01*
X187490257Y-64073248D01*
X186047949Y-65515555D01*
X184607747Y-66955757D01*
X184599461Y-66963297D01*
X184592982Y-66967409D01*
X184587557Y-66973186D01*
X184546357Y-67017060D01*
X184543602Y-67019902D01*
X184523865Y-67039639D01*
X184521385Y-67042836D01*
X184513682Y-67051856D01*
X184483414Y-67084088D01*
X184479595Y-67091034D01*
X184479593Y-67091037D01*
X184473652Y-67101843D01*
X184462801Y-67118362D01*
X184450386Y-67134368D01*
X184447241Y-67141637D01*
X184447238Y-67141641D01*
X184432826Y-67174946D01*
X184427609Y-67185596D01*
X184406305Y-67224349D01*
X184404334Y-67232024D01*
X184404334Y-67232025D01*
X184401267Y-67243971D01*
X184394863Y-67262675D01*
X184386819Y-67281264D01*
X184385580Y-67289087D01*
X184385577Y-67289097D01*
X184379901Y-67324933D01*
X184377495Y-67336553D01*
X184366500Y-67379379D01*
X184366500Y-67399633D01*
X184364949Y-67419343D01*
X184361780Y-67439352D01*
X184362526Y-67447244D01*
X184365941Y-67483370D01*
X184366500Y-67495228D01*
X184366500Y-70965500D01*
X184346498Y-71033621D01*
X184292842Y-71080114D01*
X184240500Y-71091500D01*
X183951866Y-71091500D01*
X183889684Y-71098255D01*
X183753295Y-71149385D01*
X183636739Y-71236739D01*
X183549385Y-71353295D01*
X183498255Y-71489684D01*
X183491500Y-71551866D01*
X183491500Y-73648134D01*
X183498255Y-73710316D01*
X183549385Y-73846705D01*
X183636739Y-73963261D01*
X183753295Y-74050615D01*
X183889684Y-74101745D01*
X183951866Y-74108500D01*
X184839157Y-74108500D01*
X184907278Y-74128502D01*
X184928252Y-74145405D01*
X185160303Y-74377456D01*
X185194329Y-74439768D01*
X185189264Y-74510583D01*
X185146717Y-74567419D01*
X185080197Y-74592230D01*
X185061322Y-74592163D01*
X185004930Y-74587725D01*
X184995070Y-74587725D01*
X184768301Y-74605572D01*
X184758554Y-74607115D01*
X184537373Y-74660217D01*
X184527988Y-74663266D01*
X184317837Y-74750313D01*
X184309042Y-74754795D01*
X184141555Y-74857432D01*
X184132093Y-74867890D01*
X184135876Y-74876666D01*
X186220290Y-76961080D01*
X186232670Y-76967840D01*
X186240320Y-76962113D01*
X186345205Y-76790958D01*
X186349687Y-76782163D01*
X186436734Y-76572012D01*
X186439783Y-76562627D01*
X186492885Y-76341446D01*
X186494428Y-76331699D01*
X186512275Y-76104930D01*
X186512275Y-76095070D01*
X186507837Y-76038678D01*
X186522433Y-75969197D01*
X186572276Y-75918638D01*
X186641540Y-75903052D01*
X186708236Y-75927387D01*
X186722544Y-75939697D01*
X186843474Y-76060627D01*
X186849111Y-76066645D01*
X186891817Y-76115342D01*
X186896352Y-76118917D01*
X186896353Y-76118918D01*
X186961305Y-76170121D01*
X186963870Y-76172199D01*
X187027423Y-76225057D01*
X187027428Y-76225061D01*
X187031863Y-76228749D01*
X187036897Y-76231568D01*
X187039907Y-76233637D01*
X187049177Y-76239831D01*
X187052322Y-76241874D01*
X187056860Y-76245451D01*
X187061968Y-76248139D01*
X187061972Y-76248141D01*
X187135139Y-76286635D01*
X187138029Y-76288205D01*
X187215227Y-76331438D01*
X187220699Y-76333295D01*
X187224099Y-76334809D01*
X187234310Y-76339196D01*
X187237744Y-76340618D01*
X187242850Y-76343305D01*
X187248364Y-76345017D01*
X187248366Y-76345018D01*
X187327322Y-76369535D01*
X187330458Y-76370554D01*
X187383603Y-76388594D01*
X187414235Y-76398992D01*
X187419948Y-76399821D01*
X187423461Y-76400664D01*
X187434474Y-76403156D01*
X187438041Y-76403914D01*
X187443557Y-76405627D01*
X187449285Y-76406305D01*
X187449290Y-76406306D01*
X187501505Y-76412486D01*
X187531422Y-76416027D01*
X187534645Y-76416451D01*
X187570742Y-76421685D01*
X187616507Y-76428321D01*
X187616512Y-76428321D01*
X187622221Y-76429149D01*
X187704392Y-76425920D01*
X187709340Y-76425823D01*
X192435157Y-76425823D01*
X192503278Y-76445825D01*
X192549771Y-76499481D01*
X192559875Y-76569755D01*
X192530381Y-76634335D01*
X192524252Y-76640918D01*
X190854196Y-78310974D01*
X190848178Y-78316611D01*
X190799481Y-78359317D01*
X190795906Y-78363852D01*
X190795905Y-78363853D01*
X190744702Y-78428805D01*
X190742624Y-78431370D01*
X190689766Y-78494923D01*
X190689762Y-78494928D01*
X190686074Y-78499363D01*
X190683255Y-78504397D01*
X190681186Y-78507407D01*
X190674992Y-78516677D01*
X190672949Y-78519822D01*
X190669372Y-78524360D01*
X190629086Y-78600933D01*
X190628188Y-78602639D01*
X190626618Y-78605529D01*
X190583385Y-78682727D01*
X190581528Y-78688199D01*
X190580014Y-78691599D01*
X190575627Y-78701810D01*
X190574205Y-78705244D01*
X190571518Y-78710350D01*
X190569806Y-78715864D01*
X190569805Y-78715866D01*
X190545288Y-78794822D01*
X190544269Y-78797958D01*
X190535059Y-78825090D01*
X190515831Y-78881735D01*
X190515002Y-78887448D01*
X190514159Y-78890961D01*
X190511667Y-78901974D01*
X190510909Y-78905541D01*
X190509196Y-78911057D01*
X190508518Y-78916785D01*
X190508517Y-78916790D01*
X190498797Y-78998921D01*
X190498370Y-79002163D01*
X190485675Y-79089720D01*
X190486977Y-79122860D01*
X190488903Y-79171877D01*
X190489000Y-79176824D01*
X190489000Y-84287255D01*
X190467414Y-84356772D01*
X190467522Y-84356833D01*
X190349273Y-84564566D01*
X190267716Y-84789253D01*
X190266767Y-84794502D01*
X190266766Y-84794505D01*
X190225920Y-85020385D01*
X190225919Y-85020393D01*
X190225182Y-85024469D01*
X190224000Y-85049532D01*
X190224000Y-87017512D01*
X190239117Y-87195675D01*
X190240457Y-87200839D01*
X190240458Y-87200843D01*
X190279216Y-87350168D01*
X190299168Y-87427040D01*
X190301358Y-87431902D01*
X190301361Y-87431910D01*
X190304441Y-87438746D01*
X190314185Y-87509070D01*
X190284362Y-87573499D01*
X190224440Y-87611576D01*
X190189561Y-87616500D01*
X187244500Y-87616500D01*
X187176379Y-87596498D01*
X187129886Y-87542842D01*
X187118500Y-87490500D01*
X187118500Y-87347154D01*
X187103452Y-87189434D01*
X187043908Y-86986466D01*
X186990368Y-86882511D01*
X186949804Y-86803751D01*
X186949802Y-86803748D01*
X186947058Y-86798420D01*
X186816396Y-86632080D01*
X186811865Y-86628148D01*
X186811862Y-86628145D01*
X186661167Y-86497379D01*
X186656637Y-86493448D01*
X186651451Y-86490448D01*
X186651447Y-86490445D01*
X186478742Y-86390533D01*
X186473546Y-86387527D01*
X186273729Y-86318139D01*
X186267794Y-86317278D01*
X186267792Y-86317278D01*
X186070336Y-86288648D01*
X186070333Y-86288648D01*
X186064396Y-86287787D01*
X185853101Y-86297567D01*
X185740466Y-86324712D01*
X185653299Y-86345719D01*
X185653297Y-86345720D01*
X185647466Y-86347125D01*
X185642008Y-86349607D01*
X185642004Y-86349608D01*
X185551430Y-86390790D01*
X185454913Y-86434674D01*
X185282389Y-86557054D01*
X185136119Y-86709850D01*
X185021380Y-86887548D01*
X184942314Y-87083737D01*
X184901772Y-87291337D01*
X184901500Y-87296899D01*
X184901500Y-88252846D01*
X184916548Y-88410566D01*
X184918235Y-88416315D01*
X184918305Y-88416680D01*
X184911542Y-88487354D01*
X184867643Y-88543152D01*
X184794577Y-88566500D01*
X184680353Y-88566500D01*
X184612232Y-88546498D01*
X184565739Y-88492842D01*
X184556689Y-88416351D01*
X184576857Y-88313075D01*
X184577934Y-88304209D01*
X184578000Y-88301500D01*
X184578000Y-88072115D01*
X184573525Y-88056876D01*
X184572135Y-88055671D01*
X184564452Y-88054000D01*
X182380115Y-88054000D01*
X182364876Y-88058475D01*
X182363670Y-88059867D01*
X182363067Y-88062637D01*
X182329042Y-88124949D01*
X182266729Y-88158974D01*
X182195913Y-88153908D01*
X182150852Y-88124948D01*
X182101018Y-88075114D01*
X182066992Y-88012802D01*
X182064383Y-87977778D01*
X182077627Y-87775705D01*
X182078005Y-87769939D01*
X182053303Y-87561235D01*
X182044167Y-87531812D01*
X182043571Y-87527885D01*
X182362000Y-87527885D01*
X182366475Y-87543124D01*
X182367865Y-87544329D01*
X182375548Y-87546000D01*
X183197885Y-87546000D01*
X183213124Y-87541525D01*
X183214329Y-87540135D01*
X183216000Y-87532452D01*
X183216000Y-87527885D01*
X183724000Y-87527885D01*
X183728475Y-87543124D01*
X183729865Y-87544329D01*
X183737548Y-87546000D01*
X184559885Y-87546000D01*
X184575124Y-87541525D01*
X184576329Y-87540135D01*
X184578000Y-87532452D01*
X184578000Y-87350168D01*
X184577715Y-87344192D01*
X184563529Y-87195506D01*
X184561270Y-87183772D01*
X184505128Y-86992401D01*
X184500698Y-86981325D01*
X184409381Y-86804022D01*
X184402931Y-86793976D01*
X184279738Y-86637143D01*
X184271501Y-86628494D01*
X184120877Y-86497788D01*
X184111153Y-86490853D01*
X183938533Y-86390990D01*
X183927669Y-86386016D01*
X183739273Y-86320593D01*
X183738284Y-86320352D01*
X183727992Y-86321820D01*
X183724000Y-86335385D01*
X183724000Y-87527885D01*
X183216000Y-87527885D01*
X183216000Y-86339598D01*
X183212027Y-86326067D01*
X183202601Y-86324712D01*
X183113463Y-86346194D01*
X183102168Y-86350083D01*
X182920618Y-86432629D01*
X182910276Y-86438576D01*
X182747603Y-86553968D01*
X182738575Y-86561761D01*
X182600658Y-86705831D01*
X182593262Y-86715196D01*
X182485079Y-86882741D01*
X182479583Y-86893345D01*
X182405039Y-87078312D01*
X182401645Y-87089770D01*
X182363143Y-87286928D01*
X182362066Y-87295791D01*
X182362000Y-87298500D01*
X182362000Y-87527885D01*
X182043571Y-87527885D01*
X182038500Y-87494448D01*
X182038500Y-87347154D01*
X182023452Y-87189434D01*
X181963908Y-86986466D01*
X181910368Y-86882511D01*
X181869804Y-86803751D01*
X181869802Y-86803748D01*
X181867058Y-86798420D01*
X181736396Y-86632080D01*
X181731865Y-86628148D01*
X181731862Y-86628145D01*
X181581167Y-86497379D01*
X181576637Y-86493448D01*
X181571451Y-86490448D01*
X181571447Y-86490445D01*
X181398742Y-86390533D01*
X181393546Y-86387527D01*
X181193729Y-86318139D01*
X181187794Y-86317278D01*
X181187792Y-86317278D01*
X181149491Y-86311725D01*
X181084930Y-86302364D01*
X181020385Y-86272794D01*
X181013916Y-86266763D01*
X173162728Y-78415575D01*
X173128702Y-78353263D01*
X173125823Y-78326480D01*
X173125823Y-77576633D01*
X173145825Y-77508512D01*
X173199481Y-77462019D01*
X173207592Y-77458652D01*
X173220616Y-77453769D01*
X173220619Y-77453768D01*
X173229028Y-77450615D01*
X173345584Y-77363261D01*
X173432938Y-77246705D01*
X173438199Y-77232670D01*
X174614483Y-77232670D01*
X174620210Y-77240320D01*
X174791365Y-77345205D01*
X174800160Y-77349687D01*
X175010311Y-77436734D01*
X175019696Y-77439783D01*
X175240877Y-77492885D01*
X175250624Y-77494428D01*
X175477393Y-77512275D01*
X175487253Y-77512275D01*
X175714022Y-77494428D01*
X175723769Y-77492885D01*
X175944950Y-77439783D01*
X175954335Y-77436734D01*
X176164486Y-77349687D01*
X176173281Y-77345205D01*
X176193736Y-77332670D01*
X184132160Y-77332670D01*
X184137887Y-77340320D01*
X184309042Y-77445205D01*
X184317837Y-77449687D01*
X184527988Y-77536734D01*
X184537373Y-77539783D01*
X184758554Y-77592885D01*
X184768301Y-77594428D01*
X184995070Y-77612275D01*
X185004930Y-77612275D01*
X185231699Y-77594428D01*
X185241446Y-77592885D01*
X185462627Y-77539783D01*
X185472012Y-77536734D01*
X185682163Y-77449687D01*
X185690958Y-77445205D01*
X185858445Y-77342568D01*
X185867907Y-77332110D01*
X185864124Y-77323334D01*
X185012812Y-76472022D01*
X184998868Y-76464408D01*
X184997035Y-76464539D01*
X184990420Y-76468790D01*
X184138920Y-77320290D01*
X184132160Y-77332670D01*
X176193736Y-77332670D01*
X176340768Y-77242568D01*
X176350230Y-77232110D01*
X176346447Y-77223334D01*
X175495135Y-76372022D01*
X175481191Y-76364408D01*
X175479358Y-76364539D01*
X175472743Y-76368790D01*
X174621243Y-77220290D01*
X174614483Y-77232670D01*
X173438199Y-77232670D01*
X173484068Y-77110316D01*
X173490823Y-77048134D01*
X173490823Y-76004930D01*
X173970048Y-76004930D01*
X173987895Y-76231699D01*
X173989438Y-76241446D01*
X174042540Y-76462627D01*
X174045589Y-76472012D01*
X174132636Y-76682163D01*
X174137118Y-76690958D01*
X174239755Y-76858445D01*
X174250213Y-76867907D01*
X174258989Y-76864124D01*
X175110301Y-76012812D01*
X175116679Y-76001132D01*
X175846731Y-76001132D01*
X175846862Y-76002965D01*
X175851113Y-76009580D01*
X176702613Y-76861080D01*
X176714993Y-76867840D01*
X176722643Y-76862113D01*
X176827528Y-76690958D01*
X176832010Y-76682163D01*
X176919057Y-76472012D01*
X176922106Y-76462627D01*
X176975208Y-76241446D01*
X176976751Y-76231699D01*
X176986728Y-76104930D01*
X183487725Y-76104930D01*
X183505572Y-76331699D01*
X183507115Y-76341446D01*
X183560217Y-76562627D01*
X183563266Y-76572012D01*
X183650313Y-76782163D01*
X183654795Y-76790958D01*
X183757432Y-76958445D01*
X183767890Y-76967907D01*
X183776666Y-76964124D01*
X184627978Y-76112812D01*
X184635592Y-76098868D01*
X184635461Y-76097035D01*
X184631210Y-76090420D01*
X183779710Y-75238920D01*
X183767330Y-75232160D01*
X183759680Y-75237887D01*
X183654795Y-75409042D01*
X183650313Y-75417837D01*
X183563266Y-75627988D01*
X183560217Y-75637373D01*
X183507115Y-75858554D01*
X183505572Y-75868301D01*
X183487725Y-76095070D01*
X183487725Y-76104930D01*
X176986728Y-76104930D01*
X176994598Y-76004930D01*
X176994598Y-75995070D01*
X176976751Y-75768301D01*
X176975208Y-75758554D01*
X176922106Y-75537373D01*
X176919057Y-75527988D01*
X176832010Y-75317837D01*
X176827528Y-75309042D01*
X176724891Y-75141555D01*
X176714433Y-75132093D01*
X176705657Y-75135876D01*
X175854345Y-75987188D01*
X175846731Y-76001132D01*
X175116679Y-76001132D01*
X175117915Y-75998868D01*
X175117784Y-75997035D01*
X175113533Y-75990420D01*
X174262033Y-75138920D01*
X174249653Y-75132160D01*
X174242003Y-75137887D01*
X174137118Y-75309042D01*
X174132636Y-75317837D01*
X174045589Y-75527988D01*
X174042540Y-75537373D01*
X173989438Y-75758554D01*
X173987895Y-75768301D01*
X173970048Y-75995070D01*
X173970048Y-76004930D01*
X173490823Y-76004930D01*
X173490823Y-74951866D01*
X173484068Y-74889684D01*
X173438409Y-74767890D01*
X174614416Y-74767890D01*
X174618199Y-74776666D01*
X175469511Y-75627978D01*
X175483455Y-75635592D01*
X175485288Y-75635461D01*
X175491903Y-75631210D01*
X176343403Y-74779710D01*
X176350163Y-74767330D01*
X176344436Y-74759680D01*
X176173281Y-74654795D01*
X176164486Y-74650313D01*
X175954335Y-74563266D01*
X175944950Y-74560217D01*
X175723769Y-74507115D01*
X175714022Y-74505572D01*
X175487253Y-74487725D01*
X175477393Y-74487725D01*
X175250624Y-74505572D01*
X175240877Y-74507115D01*
X175019696Y-74560217D01*
X175010311Y-74563266D01*
X174800160Y-74650313D01*
X174791365Y-74654795D01*
X174623878Y-74757432D01*
X174614416Y-74767890D01*
X173438409Y-74767890D01*
X173432938Y-74753295D01*
X173345584Y-74636739D01*
X173229028Y-74549385D01*
X173220619Y-74546232D01*
X173220616Y-74546231D01*
X173207592Y-74541348D01*
X173150828Y-74498706D01*
X173126129Y-74432144D01*
X173125823Y-74423367D01*
X173125823Y-68740000D01*
X178687093Y-68740000D01*
X178707048Y-68968087D01*
X178708472Y-68973400D01*
X178708472Y-68973402D01*
X178754263Y-69144293D01*
X178766307Y-69189243D01*
X178768630Y-69194224D01*
X178768630Y-69194225D01*
X178860742Y-69391762D01*
X178860745Y-69391767D01*
X178863068Y-69396749D01*
X178994393Y-69584300D01*
X179156291Y-69746198D01*
X179160799Y-69749355D01*
X179160802Y-69749357D01*
X179238980Y-69804098D01*
X179343842Y-69877523D01*
X179348824Y-69879846D01*
X179348829Y-69879849D01*
X179502086Y-69951313D01*
X179551348Y-69974284D01*
X179556656Y-69975706D01*
X179556658Y-69975707D01*
X179767189Y-70032119D01*
X179767191Y-70032119D01*
X179772504Y-70033543D01*
X180000591Y-70053498D01*
X180228678Y-70033543D01*
X180233991Y-70032119D01*
X180233993Y-70032119D01*
X180444524Y-69975707D01*
X180444526Y-69975706D01*
X180449834Y-69974284D01*
X180499096Y-69951313D01*
X180652353Y-69879849D01*
X180652358Y-69879846D01*
X180657340Y-69877523D01*
X180762202Y-69804098D01*
X180840380Y-69749357D01*
X180840383Y-69749355D01*
X180844891Y-69746198D01*
X181006789Y-69584300D01*
X181138114Y-69396749D01*
X181140437Y-69391767D01*
X181140440Y-69391762D01*
X181232552Y-69194225D01*
X181232552Y-69194224D01*
X181234875Y-69189243D01*
X181246920Y-69144293D01*
X181292710Y-68973402D01*
X181292710Y-68973400D01*
X181294134Y-68968087D01*
X181314089Y-68740000D01*
X181294134Y-68511913D01*
X181234875Y-68290757D01*
X181232552Y-68285775D01*
X181140440Y-68088238D01*
X181140437Y-68088233D01*
X181138114Y-68083251D01*
X181006789Y-67895700D01*
X180844891Y-67733802D01*
X180840383Y-67730645D01*
X180840380Y-67730643D01*
X180762202Y-67675902D01*
X180657340Y-67602477D01*
X180652358Y-67600154D01*
X180652353Y-67600151D01*
X180454816Y-67508039D01*
X180454815Y-67508039D01*
X180449834Y-67505716D01*
X180444526Y-67504294D01*
X180444524Y-67504293D01*
X180233993Y-67447881D01*
X180233991Y-67447881D01*
X180228678Y-67446457D01*
X180000591Y-67426502D01*
X179772504Y-67446457D01*
X179767191Y-67447881D01*
X179767189Y-67447881D01*
X179556658Y-67504293D01*
X179556656Y-67504294D01*
X179551348Y-67505716D01*
X179546367Y-67508039D01*
X179546366Y-67508039D01*
X179348829Y-67600151D01*
X179348824Y-67600154D01*
X179343842Y-67602477D01*
X179238980Y-67675902D01*
X179160802Y-67730643D01*
X179160799Y-67730645D01*
X179156291Y-67733802D01*
X178994393Y-67895700D01*
X178863068Y-68083251D01*
X178860745Y-68088233D01*
X178860742Y-68088238D01*
X178768630Y-68285775D01*
X178766307Y-68290757D01*
X178707048Y-68511913D01*
X178687093Y-68740000D01*
X173125823Y-68740000D01*
X173125823Y-66776633D01*
X173145825Y-66708512D01*
X173199481Y-66662019D01*
X173207592Y-66658652D01*
X173220616Y-66653769D01*
X173220619Y-66653768D01*
X173229028Y-66650615D01*
X173345584Y-66563261D01*
X173432938Y-66446705D01*
X173438199Y-66432670D01*
X174614483Y-66432670D01*
X174620210Y-66440320D01*
X174791365Y-66545205D01*
X174800160Y-66549687D01*
X175010311Y-66636734D01*
X175019696Y-66639783D01*
X175240877Y-66692885D01*
X175250624Y-66694428D01*
X175477393Y-66712275D01*
X175487253Y-66712275D01*
X175714022Y-66694428D01*
X175723769Y-66692885D01*
X175944950Y-66639783D01*
X175954335Y-66636734D01*
X176164486Y-66549687D01*
X176173281Y-66545205D01*
X176340768Y-66442568D01*
X176350230Y-66432110D01*
X176346447Y-66423334D01*
X175495135Y-65572022D01*
X175481191Y-65564408D01*
X175479358Y-65564539D01*
X175472743Y-65568790D01*
X174621243Y-66420290D01*
X174614483Y-66432670D01*
X173438199Y-66432670D01*
X173484068Y-66310316D01*
X173490823Y-66248134D01*
X173490823Y-65204930D01*
X173970048Y-65204930D01*
X173987895Y-65431699D01*
X173989438Y-65441446D01*
X174042540Y-65662627D01*
X174045589Y-65672012D01*
X174132636Y-65882163D01*
X174137118Y-65890958D01*
X174239755Y-66058445D01*
X174250213Y-66067907D01*
X174258989Y-66064124D01*
X175110301Y-65212812D01*
X175116679Y-65201132D01*
X175846731Y-65201132D01*
X175846862Y-65202965D01*
X175851113Y-65209580D01*
X176702613Y-66061080D01*
X176714993Y-66067840D01*
X176722643Y-66062113D01*
X176827528Y-65890958D01*
X176832010Y-65882163D01*
X176919057Y-65672012D01*
X176922106Y-65662627D01*
X176975208Y-65441446D01*
X176976751Y-65431699D01*
X176994598Y-65204930D01*
X176994598Y-65195070D01*
X176976751Y-64968301D01*
X176975208Y-64958554D01*
X176922106Y-64737373D01*
X176919057Y-64727988D01*
X176832010Y-64517837D01*
X176827528Y-64509042D01*
X176724891Y-64341555D01*
X176714433Y-64332093D01*
X176705657Y-64335876D01*
X175854345Y-65187188D01*
X175846731Y-65201132D01*
X175116679Y-65201132D01*
X175117915Y-65198868D01*
X175117784Y-65197035D01*
X175113533Y-65190420D01*
X174262033Y-64338920D01*
X174249653Y-64332160D01*
X174242003Y-64337887D01*
X174137118Y-64509042D01*
X174132636Y-64517837D01*
X174045589Y-64727988D01*
X174042540Y-64737373D01*
X173989438Y-64958554D01*
X173987895Y-64968301D01*
X173970048Y-65195070D01*
X173970048Y-65204930D01*
X173490823Y-65204930D01*
X173490823Y-64151866D01*
X173484068Y-64089684D01*
X173438409Y-63967890D01*
X174614416Y-63967890D01*
X174618199Y-63976666D01*
X175469511Y-64827978D01*
X175483455Y-64835592D01*
X175485288Y-64835461D01*
X175491903Y-64831210D01*
X176343403Y-63979710D01*
X176350163Y-63967330D01*
X176344436Y-63959680D01*
X176173281Y-63854795D01*
X176164486Y-63850313D01*
X175954335Y-63763266D01*
X175944950Y-63760217D01*
X175723769Y-63707115D01*
X175714022Y-63705572D01*
X175487253Y-63687725D01*
X175477393Y-63687725D01*
X175250624Y-63705572D01*
X175240877Y-63707115D01*
X175019696Y-63760217D01*
X175010311Y-63763266D01*
X174800160Y-63850313D01*
X174791365Y-63854795D01*
X174623878Y-63957432D01*
X174614416Y-63967890D01*
X173438409Y-63967890D01*
X173432938Y-63953295D01*
X173345584Y-63836739D01*
X173229028Y-63749385D01*
X173220619Y-63746232D01*
X173220616Y-63746231D01*
X173207592Y-63741348D01*
X173150828Y-63698706D01*
X173126129Y-63632144D01*
X173125823Y-63623367D01*
X173125823Y-63053520D01*
X173145825Y-62985399D01*
X173162728Y-62964425D01*
X175927153Y-60200000D01*
X177606502Y-60200000D01*
X177626457Y-60428087D01*
X177627881Y-60433400D01*
X177627881Y-60433402D01*
X177679560Y-60626267D01*
X177685716Y-60649243D01*
X177688039Y-60654224D01*
X177688039Y-60654225D01*
X177780151Y-60851762D01*
X177780154Y-60851767D01*
X177782477Y-60856749D01*
X177838839Y-60937242D01*
X177878390Y-60993726D01*
X177913802Y-61044300D01*
X178075700Y-61206198D01*
X178080208Y-61209355D01*
X178080211Y-61209357D01*
X178158389Y-61264098D01*
X178263251Y-61337523D01*
X178268233Y-61339846D01*
X178268238Y-61339849D01*
X178465775Y-61431961D01*
X178470757Y-61434284D01*
X178476065Y-61435706D01*
X178476067Y-61435707D01*
X178686598Y-61492119D01*
X178686600Y-61492119D01*
X178691913Y-61493543D01*
X178920000Y-61513498D01*
X179148087Y-61493543D01*
X179153400Y-61492119D01*
X179153402Y-61492119D01*
X179363933Y-61435707D01*
X179363935Y-61435706D01*
X179369243Y-61434284D01*
X179374225Y-61431961D01*
X179571762Y-61339849D01*
X179571767Y-61339846D01*
X179576749Y-61337523D01*
X179681611Y-61264098D01*
X179759789Y-61209357D01*
X179759792Y-61209355D01*
X179764300Y-61206198D01*
X179926198Y-61044300D01*
X179961611Y-60993726D01*
X180001161Y-60937242D01*
X180057523Y-60856749D01*
X180059846Y-60851767D01*
X180059849Y-60851762D01*
X180151961Y-60654225D01*
X180151961Y-60654224D01*
X180154284Y-60649243D01*
X180160441Y-60626267D01*
X180212119Y-60433402D01*
X180212119Y-60433400D01*
X180213543Y-60428087D01*
X180233498Y-60200000D01*
X187766502Y-60200000D01*
X187786457Y-60428087D01*
X187787881Y-60433400D01*
X187787881Y-60433402D01*
X187839560Y-60626267D01*
X187845716Y-60649243D01*
X187848039Y-60654224D01*
X187848039Y-60654225D01*
X187940151Y-60851762D01*
X187940154Y-60851767D01*
X187942477Y-60856749D01*
X187998839Y-60937242D01*
X188038390Y-60993726D01*
X188073802Y-61044300D01*
X188235700Y-61206198D01*
X188240208Y-61209355D01*
X188240211Y-61209357D01*
X188318389Y-61264098D01*
X188423251Y-61337523D01*
X188428233Y-61339846D01*
X188428238Y-61339849D01*
X188625775Y-61431961D01*
X188630757Y-61434284D01*
X188636065Y-61435706D01*
X188636067Y-61435707D01*
X188846598Y-61492119D01*
X188846600Y-61492119D01*
X188851913Y-61493543D01*
X189080000Y-61513498D01*
X189308087Y-61493543D01*
X189313400Y-61492119D01*
X189313402Y-61492119D01*
X189523933Y-61435707D01*
X189523935Y-61435706D01*
X189529243Y-61434284D01*
X189534225Y-61431961D01*
X189731762Y-61339849D01*
X189731767Y-61339846D01*
X189736749Y-61337523D01*
X189841611Y-61264098D01*
X189919789Y-61209357D01*
X189919792Y-61209355D01*
X189924300Y-61206198D01*
X190086198Y-61044300D01*
X190121611Y-60993726D01*
X190161161Y-60937242D01*
X190217523Y-60856749D01*
X190219846Y-60851767D01*
X190219849Y-60851762D01*
X190311961Y-60654225D01*
X190311961Y-60654224D01*
X190314284Y-60649243D01*
X190320441Y-60626267D01*
X190372119Y-60433402D01*
X190372119Y-60433400D01*
X190373543Y-60428087D01*
X190393498Y-60200000D01*
X190373543Y-59971913D01*
X190314284Y-59750757D01*
X190229175Y-59568238D01*
X190219849Y-59548238D01*
X190219846Y-59548233D01*
X190217523Y-59543251D01*
X190100202Y-59375700D01*
X190089357Y-59360211D01*
X190089355Y-59360208D01*
X190086198Y-59355700D01*
X189924300Y-59193802D01*
X189919792Y-59190645D01*
X189919789Y-59190643D01*
X189841611Y-59135902D01*
X189736749Y-59062477D01*
X189731767Y-59060154D01*
X189731762Y-59060151D01*
X189534225Y-58968039D01*
X189534224Y-58968039D01*
X189529243Y-58965716D01*
X189523935Y-58964294D01*
X189523933Y-58964293D01*
X189313402Y-58907881D01*
X189313400Y-58907881D01*
X189308087Y-58906457D01*
X189080000Y-58886502D01*
X188851913Y-58906457D01*
X188846600Y-58907881D01*
X188846598Y-58907881D01*
X188636067Y-58964293D01*
X188636065Y-58964294D01*
X188630757Y-58965716D01*
X188625776Y-58968039D01*
X188625775Y-58968039D01*
X188428238Y-59060151D01*
X188428233Y-59060154D01*
X188423251Y-59062477D01*
X188318389Y-59135902D01*
X188240211Y-59190643D01*
X188240208Y-59190645D01*
X188235700Y-59193802D01*
X188073802Y-59355700D01*
X188070645Y-59360208D01*
X188070643Y-59360211D01*
X188059798Y-59375700D01*
X187942477Y-59543251D01*
X187940154Y-59548233D01*
X187940151Y-59548238D01*
X187930825Y-59568238D01*
X187845716Y-59750757D01*
X187786457Y-59971913D01*
X187766502Y-60200000D01*
X180233498Y-60200000D01*
X180213543Y-59971913D01*
X180154284Y-59750757D01*
X180069175Y-59568238D01*
X180059849Y-59548238D01*
X180059846Y-59548233D01*
X180057523Y-59543251D01*
X179940202Y-59375700D01*
X179929357Y-59360211D01*
X179929355Y-59360208D01*
X179926198Y-59355700D01*
X179764300Y-59193802D01*
X179759792Y-59190645D01*
X179759789Y-59190643D01*
X179681611Y-59135902D01*
X179576749Y-59062477D01*
X179571767Y-59060154D01*
X179571762Y-59060151D01*
X179374225Y-58968039D01*
X179374224Y-58968039D01*
X179369243Y-58965716D01*
X179363935Y-58964294D01*
X179363933Y-58964293D01*
X179153402Y-58907881D01*
X179153400Y-58907881D01*
X179148087Y-58906457D01*
X178920000Y-58886502D01*
X178691913Y-58906457D01*
X178686600Y-58907881D01*
X178686598Y-58907881D01*
X178476067Y-58964293D01*
X178476065Y-58964294D01*
X178470757Y-58965716D01*
X178465776Y-58968039D01*
X178465775Y-58968039D01*
X178268238Y-59060151D01*
X178268233Y-59060154D01*
X178263251Y-59062477D01*
X178158389Y-59135902D01*
X178080211Y-59190643D01*
X178080208Y-59190645D01*
X178075700Y-59193802D01*
X177913802Y-59355700D01*
X177910645Y-59360208D01*
X177910643Y-59360211D01*
X177899798Y-59375700D01*
X177782477Y-59543251D01*
X177780154Y-59548233D01*
X177780151Y-59548238D01*
X177770825Y-59568238D01*
X177685716Y-59750757D01*
X177626457Y-59971913D01*
X177606502Y-60200000D01*
X175927153Y-60200000D01*
X178739248Y-57387905D01*
X178801560Y-57353879D01*
X178828343Y-57351000D01*
X180167900Y-57351000D01*
X180171146Y-57350663D01*
X180171150Y-57350663D01*
X180266808Y-57340738D01*
X180266812Y-57340737D01*
X180273666Y-57340026D01*
X180280202Y-57337845D01*
X180280204Y-57337845D01*
X180412306Y-57293772D01*
X180441446Y-57284050D01*
X180591848Y-57190978D01*
X180716805Y-57065803D01*
X180759230Y-56996978D01*
X180805775Y-56921468D01*
X180805776Y-56921466D01*
X180809615Y-56915238D01*
X180865297Y-56747361D01*
X180876000Y-56642900D01*
X180876000Y-55999840D01*
X181559500Y-55999840D01*
X181559725Y-56005149D01*
X181574160Y-56175271D01*
X181575952Y-56185759D01*
X181633301Y-56406711D01*
X181636833Y-56416739D01*
X181730585Y-56624863D01*
X181735765Y-56634169D01*
X181863247Y-56823524D01*
X181869906Y-56831807D01*
X182027471Y-56996978D01*
X182035442Y-57004030D01*
X182218582Y-57140290D01*
X182227619Y-57145894D01*
X182431106Y-57249351D01*
X182440959Y-57253352D01*
X182658961Y-57321044D01*
X182669348Y-57323328D01*
X182695543Y-57326800D01*
X182709707Y-57324604D01*
X182713500Y-57311419D01*
X182713500Y-57309782D01*
X183221500Y-57309782D01*
X183225473Y-57323313D01*
X183236080Y-57324838D01*
X183368340Y-57297087D01*
X183378537Y-57294027D01*
X183590840Y-57210185D01*
X183600376Y-57205451D01*
X183795525Y-57087032D01*
X183804118Y-57080766D01*
X183976527Y-56931158D01*
X183983947Y-56923528D01*
X184128680Y-56747012D01*
X184134706Y-56738245D01*
X184247629Y-56539867D01*
X184252095Y-56530203D01*
X184329981Y-56315632D01*
X184332751Y-56305365D01*
X184373581Y-56079568D01*
X184374516Y-56071338D01*
X184375430Y-56051950D01*
X184375500Y-56048974D01*
X184375500Y-55314615D01*
X184371025Y-55299376D01*
X184369635Y-55298171D01*
X184361952Y-55296500D01*
X183239615Y-55296500D01*
X183224376Y-55300975D01*
X183223171Y-55302365D01*
X183221500Y-55310048D01*
X183221500Y-57309782D01*
X182713500Y-57309782D01*
X182713500Y-55314615D01*
X182709025Y-55299376D01*
X182707635Y-55298171D01*
X182699952Y-55296500D01*
X181577615Y-55296500D01*
X181562376Y-55300975D01*
X181561171Y-55302365D01*
X181559500Y-55310048D01*
X181559500Y-55999840D01*
X180876000Y-55999840D01*
X180876000Y-54770385D01*
X181559500Y-54770385D01*
X181563975Y-54785624D01*
X181565365Y-54786829D01*
X181573048Y-54788500D01*
X182695385Y-54788500D01*
X182710624Y-54784025D01*
X182711829Y-54782635D01*
X182713500Y-54774952D01*
X182713500Y-54770385D01*
X183221500Y-54770385D01*
X183225975Y-54785624D01*
X183227365Y-54786829D01*
X183235048Y-54788500D01*
X184357385Y-54788500D01*
X184372624Y-54784025D01*
X184373829Y-54782635D01*
X184375500Y-54774952D01*
X184375500Y-54085160D01*
X184375275Y-54079851D01*
X184360840Y-53909729D01*
X184359048Y-53899241D01*
X184301699Y-53678289D01*
X184298167Y-53668261D01*
X184204415Y-53460137D01*
X184199235Y-53450831D01*
X184071753Y-53261476D01*
X184065094Y-53253193D01*
X183907529Y-53088022D01*
X183899558Y-53080970D01*
X183716418Y-52944710D01*
X183707381Y-52939106D01*
X183503894Y-52835649D01*
X183494041Y-52831648D01*
X183276039Y-52763956D01*
X183265652Y-52761672D01*
X183239457Y-52758200D01*
X183225293Y-52760396D01*
X183221500Y-52773581D01*
X183221500Y-54770385D01*
X182713500Y-54770385D01*
X182713500Y-52775218D01*
X182709527Y-52761687D01*
X182698920Y-52760162D01*
X182566660Y-52787913D01*
X182556463Y-52790973D01*
X182344160Y-52874815D01*
X182334624Y-52879549D01*
X182139475Y-52997968D01*
X182130882Y-53004234D01*
X181958473Y-53153842D01*
X181951053Y-53161472D01*
X181806320Y-53337988D01*
X181800294Y-53346755D01*
X181687371Y-53545133D01*
X181682905Y-53554797D01*
X181605019Y-53769368D01*
X181602249Y-53779635D01*
X181561419Y-54005432D01*
X181560484Y-54013662D01*
X181559570Y-54033050D01*
X181559500Y-54036026D01*
X181559500Y-54770385D01*
X180876000Y-54770385D01*
X180876000Y-53442100D01*
X180875663Y-53438850D01*
X180865738Y-53343192D01*
X180865737Y-53343188D01*
X180865026Y-53336334D01*
X180809050Y-53168554D01*
X180715978Y-53018152D01*
X180590803Y-52893195D01*
X180568665Y-52879549D01*
X180446468Y-52804225D01*
X180446466Y-52804224D01*
X180440238Y-52800385D01*
X180359426Y-52773581D01*
X180278889Y-52746868D01*
X180278887Y-52746868D01*
X180272361Y-52744703D01*
X180265525Y-52744003D01*
X180265522Y-52744002D01*
X180222469Y-52739591D01*
X180167900Y-52734000D01*
X178767100Y-52734000D01*
X178763854Y-52734337D01*
X178763850Y-52734337D01*
X178668192Y-52744262D01*
X178668188Y-52744263D01*
X178661334Y-52744974D01*
X178654798Y-52747155D01*
X178654796Y-52747155D01*
X178523459Y-52790973D01*
X178493554Y-52800950D01*
X178343152Y-52894022D01*
X178218195Y-53019197D01*
X178125385Y-53169762D01*
X178069703Y-53337639D01*
X178059000Y-53442100D01*
X178059000Y-54781657D01*
X178038998Y-54849778D01*
X178022095Y-54870752D01*
X171204019Y-61688828D01*
X171198001Y-61694465D01*
X171149304Y-61737171D01*
X171145729Y-61741706D01*
X171145728Y-61741707D01*
X171094525Y-61806659D01*
X171092447Y-61809224D01*
X171039589Y-61872777D01*
X171039585Y-61872782D01*
X171035897Y-61877217D01*
X171033078Y-61882251D01*
X171031009Y-61885261D01*
X171024815Y-61894531D01*
X171022772Y-61897676D01*
X171019195Y-61902214D01*
X171016507Y-61907322D01*
X171016505Y-61907326D01*
X170993466Y-61951117D01*
X170980923Y-61974959D01*
X170978011Y-61980493D01*
X170976441Y-61983383D01*
X170933208Y-62060581D01*
X170931351Y-62066053D01*
X170929837Y-62069453D01*
X170925450Y-62079664D01*
X170924028Y-62083098D01*
X170921341Y-62088204D01*
X170919629Y-62093718D01*
X170919628Y-62093720D01*
X170895111Y-62172676D01*
X170894092Y-62175812D01*
X170865654Y-62259589D01*
X170864825Y-62265302D01*
X170863982Y-62268815D01*
X170861490Y-62279828D01*
X170860732Y-62283395D01*
X170859019Y-62288911D01*
X170858341Y-62294639D01*
X170858340Y-62294644D01*
X170852203Y-62346502D01*
X170849673Y-62367881D01*
X170848620Y-62376775D01*
X170848193Y-62380017D01*
X170835498Y-62467574D01*
X170835725Y-62473342D01*
X170838726Y-62549731D01*
X170838823Y-62554678D01*
X170838823Y-63623367D01*
X170818821Y-63691488D01*
X170765165Y-63737981D01*
X170757054Y-63741348D01*
X170744030Y-63746231D01*
X170744027Y-63746232D01*
X170735618Y-63749385D01*
X170619062Y-63836739D01*
X170531708Y-63953295D01*
X170480578Y-64089684D01*
X170473823Y-64151866D01*
X170473823Y-66248134D01*
X170480578Y-66310316D01*
X170531708Y-66446705D01*
X170619062Y-66563261D01*
X170735618Y-66650615D01*
X170744027Y-66653768D01*
X170744030Y-66653769D01*
X170757054Y-66658652D01*
X170813818Y-66701294D01*
X170838517Y-66767856D01*
X170838823Y-66776633D01*
X170838823Y-74423367D01*
X170818821Y-74491488D01*
X170765165Y-74537981D01*
X170757054Y-74541348D01*
X170744030Y-74546231D01*
X170744027Y-74546232D01*
X170735618Y-74549385D01*
X170619062Y-74636739D01*
X170531708Y-74753295D01*
X170480578Y-74889684D01*
X170473823Y-74951866D01*
X170473823Y-77048134D01*
X170480578Y-77110316D01*
X170531708Y-77246705D01*
X170619062Y-77363261D01*
X170735618Y-77450615D01*
X170744027Y-77453768D01*
X170744030Y-77453769D01*
X170757054Y-77458652D01*
X170813818Y-77501294D01*
X170838517Y-77567856D01*
X170838823Y-77576633D01*
X170838823Y-78809518D01*
X170838553Y-78817759D01*
X170834317Y-78882384D01*
X170844722Y-78970296D01*
X170845059Y-78973509D01*
X170853154Y-79061602D01*
X170854722Y-79067162D01*
X170855384Y-79070735D01*
X170857573Y-79081738D01*
X170858341Y-79085351D01*
X170859020Y-79091088D01*
X170885261Y-79175599D01*
X170886177Y-79178696D01*
X170910200Y-79263872D01*
X170912758Y-79269060D01*
X170914083Y-79272511D01*
X170918224Y-79282889D01*
X170919627Y-79286276D01*
X170921341Y-79291796D01*
X170924032Y-79296910D01*
X170924032Y-79296911D01*
X170962521Y-79370068D01*
X170964018Y-79373004D01*
X171003152Y-79452360D01*
X171006610Y-79456991D01*
X171008573Y-79460194D01*
X171014496Y-79469581D01*
X171016505Y-79472674D01*
X171019194Y-79477786D01*
X171073979Y-79547279D01*
X171075950Y-79549849D01*
X171125439Y-79616124D01*
X171125446Y-79616131D01*
X171128896Y-79620752D01*
X171133130Y-79624666D01*
X171133132Y-79624668D01*
X171189295Y-79676584D01*
X171192861Y-79680014D01*
X174362631Y-82849784D01*
X174396657Y-82912096D01*
X174391592Y-82982911D01*
X174349045Y-83039747D01*
X174282525Y-83064558D01*
X174209255Y-83046894D01*
X174209180Y-83047033D01*
X174208654Y-83046748D01*
X174208262Y-83046654D01*
X174206454Y-83045559D01*
X174201072Y-83042649D01*
X173835404Y-82867449D01*
X173829737Y-82865067D01*
X173448739Y-82726396D01*
X173442851Y-82724574D01*
X173050140Y-82623742D01*
X173044117Y-82622506D01*
X172643415Y-82560474D01*
X172637328Y-82559834D01*
X172232483Y-82537200D01*
X172226331Y-82537157D01*
X171821238Y-82554135D01*
X171815112Y-82554692D01*
X171413601Y-82611121D01*
X171407548Y-82612276D01*
X171013463Y-82707615D01*
X171007566Y-82709351D01*
X170624669Y-82842690D01*
X170618956Y-82844998D01*
X170250896Y-83015065D01*
X170245442Y-83017917D01*
X169895731Y-83223091D01*
X169890583Y-83226460D01*
X169562552Y-83464788D01*
X169557782Y-83468623D01*
X169423037Y-83588255D01*
X169414661Y-83601641D01*
X168508500Y-83601641D01*
X168508500Y-57352100D01*
X169413441Y-57352100D01*
X169413496Y-57352880D01*
X169418849Y-57360927D01*
X169467180Y-57406312D01*
X169471858Y-57410294D01*
X169793106Y-57657688D01*
X169798149Y-57661193D01*
X170142005Y-57876057D01*
X170147362Y-57879051D01*
X170510542Y-58059336D01*
X170516182Y-58061800D01*
X170895198Y-58205774D01*
X170901070Y-58207682D01*
X171292345Y-58313990D01*
X171298322Y-58315304D01*
X171698133Y-58382927D01*
X171704219Y-58383652D01*
X172108702Y-58411937D01*
X172114838Y-58412065D01*
X172520149Y-58400744D01*
X172526280Y-58400272D01*
X172928528Y-58349456D01*
X172934600Y-58348386D01*
X173329983Y-58258557D01*
X173335898Y-58256905D01*
X173720627Y-58128923D01*
X173726361Y-58126699D01*
X174096781Y-57961778D01*
X174102250Y-57959015D01*
X174454810Y-57758733D01*
X174459984Y-57755449D01*
X174791315Y-57521721D01*
X174796153Y-57517941D01*
X174977043Y-57361802D01*
X174985458Y-57348762D01*
X174979519Y-57338730D01*
X172212812Y-54572022D01*
X172198868Y-54564408D01*
X172197035Y-54564539D01*
X172190420Y-54568790D01*
X169421055Y-57338156D01*
X169413441Y-57352100D01*
X168508500Y-57352100D01*
X168508500Y-56665003D01*
X168528502Y-56596882D01*
X168582158Y-56550389D01*
X168652432Y-56540285D01*
X168717012Y-56569779D01*
X168736951Y-56591655D01*
X168896454Y-56814446D01*
X168900263Y-56819251D01*
X169038298Y-56976929D01*
X169051512Y-56985327D01*
X169061307Y-56979482D01*
X171839658Y-54201132D01*
X172564408Y-54201132D01*
X172564539Y-54202965D01*
X172568790Y-54209580D01*
X175338830Y-56979619D01*
X175352774Y-56987233D01*
X175353790Y-56987161D01*
X175361519Y-56982059D01*
X175387160Y-56955133D01*
X175391172Y-56950485D01*
X175640783Y-56630998D01*
X175644355Y-56625935D01*
X175861593Y-56283621D01*
X175864636Y-56278265D01*
X176047452Y-55916353D01*
X176049947Y-55910749D01*
X176196572Y-55532724D01*
X176198513Y-55526890D01*
X176307553Y-55136351D01*
X176308909Y-55130380D01*
X176379322Y-54731056D01*
X176380089Y-54724982D01*
X176411282Y-54319591D01*
X176411459Y-54315676D01*
X176413047Y-54201974D01*
X176412979Y-54198030D01*
X176393118Y-53791949D01*
X176392517Y-53785825D01*
X176333290Y-53384737D01*
X176332090Y-53378675D01*
X176234007Y-52985289D01*
X176232222Y-52979374D01*
X176096214Y-52597421D01*
X176093871Y-52591737D01*
X175921236Y-52224869D01*
X175918347Y-52219435D01*
X175710740Y-51871171D01*
X175707332Y-51866041D01*
X175466722Y-51539686D01*
X175462842Y-51534929D01*
X175361935Y-51422859D01*
X175348413Y-51414528D01*
X175348337Y-51414529D01*
X175339053Y-51420158D01*
X172572022Y-54187188D01*
X172564408Y-54201132D01*
X171839658Y-54201132D01*
X172200000Y-53840790D01*
X174978030Y-51062759D01*
X174985644Y-51048815D01*
X174985622Y-51048506D01*
X174979767Y-51039835D01*
X174887789Y-50955846D01*
X174883051Y-50951927D01*
X174593603Y-50735392D01*
X174551038Y-50678570D01*
X174545951Y-50607756D01*
X174579956Y-50545433D01*
X174642258Y-50511388D01*
X174669080Y-50508500D01*
X210856310Y-50508500D01*
X210924431Y-50528502D01*
G37*
%TD.AperFunction*%
%TA.AperFunction,Conductor*%
G36*
X194301842Y-60910510D02*
G01*
X194341338Y-60937242D01*
X198696343Y-65292247D01*
X198703887Y-65300537D01*
X198708000Y-65307018D01*
X198713777Y-65312443D01*
X198757667Y-65353658D01*
X198760509Y-65356413D01*
X198780230Y-65376134D01*
X198783425Y-65378612D01*
X198792447Y-65386318D01*
X198824679Y-65416586D01*
X198831628Y-65420406D01*
X198842432Y-65426346D01*
X198858956Y-65437199D01*
X198874959Y-65449613D01*
X198915543Y-65467176D01*
X198926173Y-65472383D01*
X198964940Y-65493695D01*
X198972617Y-65495666D01*
X198972622Y-65495668D01*
X198984558Y-65498732D01*
X199003266Y-65505137D01*
X199021855Y-65513181D01*
X199029680Y-65514420D01*
X199029682Y-65514421D01*
X199065519Y-65520097D01*
X199077140Y-65522504D01*
X199108959Y-65530673D01*
X199119970Y-65533500D01*
X199140231Y-65533500D01*
X199159940Y-65535051D01*
X199179943Y-65538219D01*
X199187835Y-65537473D01*
X199193062Y-65536979D01*
X199223954Y-65534059D01*
X199235811Y-65533500D01*
X204772223Y-65533500D01*
X204783406Y-65534027D01*
X204790899Y-65535702D01*
X204798825Y-65535453D01*
X204798826Y-65535453D01*
X204858976Y-65533562D01*
X204862935Y-65533500D01*
X204890846Y-65533500D01*
X204894781Y-65533003D01*
X204894846Y-65532995D01*
X204906683Y-65532062D01*
X204938941Y-65531048D01*
X204942960Y-65530922D01*
X204950879Y-65530673D01*
X204970333Y-65525021D01*
X204989690Y-65521013D01*
X205001920Y-65519468D01*
X205001921Y-65519468D01*
X205009787Y-65518474D01*
X205017158Y-65515555D01*
X205017160Y-65515555D01*
X205050902Y-65502196D01*
X205062132Y-65498351D01*
X205096973Y-65488229D01*
X205096974Y-65488229D01*
X205104583Y-65486018D01*
X205111402Y-65481985D01*
X205111407Y-65481983D01*
X205122018Y-65475707D01*
X205139766Y-65467012D01*
X205158607Y-65459552D01*
X205178977Y-65444753D01*
X205194377Y-65433564D01*
X205204297Y-65427048D01*
X205235525Y-65408580D01*
X205235528Y-65408578D01*
X205242352Y-65404542D01*
X205256673Y-65390221D01*
X205271707Y-65377380D01*
X205273422Y-65376134D01*
X205288097Y-65365472D01*
X205316288Y-65331395D01*
X205324278Y-65322616D01*
X205551405Y-65095489D01*
X205613717Y-65061463D01*
X205684532Y-65066528D01*
X205741368Y-65109075D01*
X205766179Y-65175595D01*
X205766500Y-65184584D01*
X205766500Y-73062685D01*
X205746498Y-73130806D01*
X205712770Y-73165898D01*
X205620224Y-73230699D01*
X205470699Y-73380224D01*
X205418200Y-73455201D01*
X205403213Y-73476605D01*
X205347756Y-73520933D01*
X205277137Y-73528242D01*
X205213776Y-73496211D01*
X205196787Y-73476605D01*
X205181800Y-73455201D01*
X205129301Y-73380224D01*
X204979776Y-73230699D01*
X204806558Y-73109411D01*
X204801580Y-73107090D01*
X204801577Y-73107088D01*
X204619892Y-73022367D01*
X204619891Y-73022366D01*
X204614910Y-73020044D01*
X204609602Y-73018622D01*
X204609600Y-73018621D01*
X204415970Y-72966738D01*
X204415968Y-72966738D01*
X204410655Y-72965314D01*
X204200000Y-72946884D01*
X203989345Y-72965314D01*
X203984032Y-72966738D01*
X203984030Y-72966738D01*
X203790400Y-73018621D01*
X203790398Y-73018622D01*
X203785090Y-73020044D01*
X203780109Y-73022366D01*
X203780108Y-73022367D01*
X203598423Y-73107088D01*
X203598420Y-73107090D01*
X203593442Y-73109411D01*
X203420224Y-73230699D01*
X203270699Y-73380224D01*
X203149411Y-73553442D01*
X203147090Y-73558420D01*
X203147088Y-73558423D01*
X203105400Y-73647823D01*
X203060044Y-73745090D01*
X203058622Y-73750398D01*
X203058621Y-73750400D01*
X203035069Y-73838297D01*
X203005314Y-73949345D01*
X202986884Y-74160000D01*
X203005314Y-74370655D01*
X203006738Y-74375968D01*
X203006738Y-74375970D01*
X203053205Y-74549385D01*
X203060044Y-74574910D01*
X203062366Y-74579891D01*
X203062367Y-74579892D01*
X203146204Y-74759680D01*
X203149411Y-74766558D01*
X203270699Y-74939776D01*
X203420224Y-75089301D01*
X203593442Y-75210589D01*
X203598420Y-75212910D01*
X203598423Y-75212912D01*
X203644273Y-75234292D01*
X203697558Y-75281210D01*
X203717019Y-75349487D01*
X203696477Y-75417447D01*
X203680118Y-75437582D01*
X199531128Y-79586571D01*
X195405604Y-83712095D01*
X195343292Y-83746121D01*
X195316509Y-83749000D01*
X194432100Y-83749000D01*
X194428854Y-83749337D01*
X194428850Y-83749337D01*
X194333192Y-83759262D01*
X194333188Y-83759263D01*
X194326334Y-83759974D01*
X194319800Y-83762154D01*
X194319795Y-83762155D01*
X194251162Y-83785053D01*
X194180212Y-83787637D01*
X194119128Y-83751453D01*
X194087304Y-83687989D01*
X194085286Y-83665529D01*
X194085286Y-83162808D01*
X194105288Y-83094687D01*
X194122191Y-83073713D01*
X197692247Y-79503657D01*
X197700537Y-79496113D01*
X197707018Y-79492000D01*
X197753659Y-79442332D01*
X197756413Y-79439491D01*
X197776134Y-79419770D01*
X197778612Y-79416575D01*
X197786318Y-79407553D01*
X197811158Y-79381101D01*
X197816586Y-79375321D01*
X197826346Y-79357568D01*
X197837199Y-79341045D01*
X197844753Y-79331306D01*
X197849613Y-79325041D01*
X197867176Y-79284457D01*
X197872383Y-79273827D01*
X197893695Y-79235060D01*
X197895666Y-79227383D01*
X197895668Y-79227378D01*
X197898732Y-79215442D01*
X197905138Y-79196730D01*
X197910034Y-79185417D01*
X197913181Y-79178145D01*
X197920097Y-79134481D01*
X197922504Y-79122860D01*
X197931528Y-79087711D01*
X197931528Y-79087710D01*
X197933500Y-79080030D01*
X197933500Y-79059769D01*
X197935051Y-79040058D01*
X197936979Y-79027885D01*
X197938219Y-79020057D01*
X197934059Y-78976046D01*
X197933500Y-78964189D01*
X197933500Y-71073310D01*
X197945305Y-71020060D01*
X198031961Y-70834225D01*
X198031961Y-70834224D01*
X198034284Y-70829243D01*
X198040377Y-70806506D01*
X198092119Y-70613402D01*
X198092119Y-70613400D01*
X198093543Y-70608087D01*
X198113498Y-70380000D01*
X198093543Y-70151913D01*
X198088103Y-70131609D01*
X198035707Y-69936067D01*
X198035706Y-69936065D01*
X198034284Y-69930757D01*
X198031961Y-69925775D01*
X197939849Y-69728238D01*
X197939846Y-69728233D01*
X197937523Y-69723251D01*
X197806198Y-69535700D01*
X197644300Y-69373802D01*
X197639792Y-69370645D01*
X197639789Y-69370643D01*
X197552176Y-69309296D01*
X197456749Y-69242477D01*
X197451767Y-69240154D01*
X197451762Y-69240151D01*
X197254225Y-69148039D01*
X197254224Y-69148039D01*
X197249243Y-69145716D01*
X197243935Y-69144294D01*
X197243933Y-69144293D01*
X197033402Y-69087881D01*
X197033400Y-69087881D01*
X197028087Y-69086457D01*
X196800000Y-69066502D01*
X196571913Y-69086457D01*
X196566600Y-69087881D01*
X196566598Y-69087881D01*
X196356067Y-69144293D01*
X196356065Y-69144294D01*
X196350757Y-69145716D01*
X196345776Y-69148039D01*
X196345775Y-69148039D01*
X196148238Y-69240151D01*
X196148233Y-69240154D01*
X196143251Y-69242477D01*
X196047824Y-69309296D01*
X195960211Y-69370643D01*
X195960208Y-69370645D01*
X195955700Y-69373802D01*
X195793802Y-69535700D01*
X195662477Y-69723251D01*
X195660154Y-69728233D01*
X195660151Y-69728238D01*
X195568039Y-69925775D01*
X195565716Y-69930757D01*
X195564294Y-69936065D01*
X195564293Y-69936067D01*
X195511897Y-70131609D01*
X195506457Y-70151913D01*
X195486502Y-70380000D01*
X195506457Y-70608087D01*
X195507881Y-70613400D01*
X195507881Y-70613402D01*
X195559624Y-70806506D01*
X195565716Y-70829243D01*
X195568039Y-70834224D01*
X195568039Y-70834225D01*
X195660151Y-71031762D01*
X195660154Y-71031767D01*
X195662477Y-71036749D01*
X195793802Y-71224300D01*
X195955700Y-71386198D01*
X195960208Y-71389355D01*
X195960211Y-71389357D01*
X196035809Y-71442291D01*
X196143251Y-71517523D01*
X196148233Y-71519846D01*
X196148238Y-71519849D01*
X196345421Y-71611796D01*
X196350757Y-71614284D01*
X196356065Y-71615706D01*
X196356067Y-71615707D01*
X196571913Y-71673543D01*
X196571307Y-71675805D01*
X196625974Y-71702886D01*
X196662455Y-71763793D01*
X196666500Y-71795461D01*
X196666500Y-73647823D01*
X196646498Y-73715944D01*
X196592842Y-73762437D01*
X196540500Y-73773823D01*
X194451866Y-73773823D01*
X194389684Y-73780578D01*
X194253295Y-73831708D01*
X194136739Y-73919062D01*
X194049385Y-74035618D01*
X194046232Y-74044027D01*
X194046231Y-74044030D01*
X194041348Y-74057054D01*
X193998706Y-74113818D01*
X193932144Y-74138517D01*
X193923367Y-74138823D01*
X188208166Y-74138823D01*
X188140045Y-74118821D01*
X188119071Y-74101918D01*
X186545405Y-72528252D01*
X186511379Y-72465940D01*
X186508500Y-72439157D01*
X186508500Y-71895633D01*
X191147829Y-71895633D01*
X191149392Y-71909648D01*
X191157599Y-71912344D01*
X191340387Y-71896352D01*
X191351180Y-71894449D01*
X191561629Y-71838060D01*
X191571921Y-71834314D01*
X191769379Y-71742238D01*
X191778875Y-71736755D01*
X191957335Y-71611796D01*
X191965743Y-71604740D01*
X192119784Y-71450699D01*
X192126840Y-71442291D01*
X192251799Y-71263831D01*
X192257282Y-71254335D01*
X192332650Y-71092708D01*
X192334767Y-71078768D01*
X192327536Y-71074039D01*
X191341743Y-70900218D01*
X191325956Y-70901978D01*
X191324529Y-70903138D01*
X191321550Y-70910413D01*
X191147829Y-71895633D01*
X186508500Y-71895633D01*
X186508500Y-71551866D01*
X186501745Y-71489684D01*
X186450615Y-71353295D01*
X186363261Y-71236739D01*
X186246705Y-71149385D01*
X186110316Y-71098255D01*
X186048134Y-71091500D01*
X185759500Y-71091500D01*
X185691379Y-71071498D01*
X185644886Y-71017842D01*
X185633500Y-70965500D01*
X185633500Y-70642555D01*
X189808348Y-70642555D01*
X189824340Y-70825343D01*
X189826243Y-70836136D01*
X189882632Y-71046585D01*
X189886378Y-71056877D01*
X189978454Y-71254335D01*
X189983937Y-71263831D01*
X190108896Y-71442291D01*
X190115952Y-71450699D01*
X190269993Y-71604740D01*
X190278401Y-71611796D01*
X190456861Y-71736755D01*
X190466357Y-71742238D01*
X190627984Y-71817606D01*
X190641924Y-71819723D01*
X190646653Y-71812492D01*
X190820474Y-70826699D01*
X190818714Y-70810912D01*
X190817554Y-70809485D01*
X190810279Y-70806506D01*
X189825059Y-70632785D01*
X189811044Y-70634348D01*
X189808348Y-70642555D01*
X185633500Y-70642555D01*
X185633500Y-70378949D01*
X191415262Y-70378949D01*
X191417022Y-70394736D01*
X191418182Y-70396163D01*
X191425457Y-70399142D01*
X192410677Y-70572863D01*
X192424692Y-70571300D01*
X192427388Y-70563093D01*
X192411396Y-70380305D01*
X192409493Y-70369512D01*
X192353104Y-70159063D01*
X192349358Y-70148771D01*
X192257282Y-69951313D01*
X192251799Y-69941817D01*
X192126840Y-69763357D01*
X192119784Y-69754949D01*
X191965743Y-69600908D01*
X191957335Y-69593852D01*
X191778875Y-69468893D01*
X191769379Y-69463410D01*
X191607752Y-69388042D01*
X191593812Y-69385925D01*
X191589083Y-69393156D01*
X191415262Y-70378949D01*
X185633500Y-70378949D01*
X185633500Y-70126880D01*
X189900969Y-70126880D01*
X189908200Y-70131609D01*
X190893993Y-70305430D01*
X190909780Y-70303670D01*
X190911207Y-70302510D01*
X190914186Y-70295235D01*
X191087907Y-69310015D01*
X191086344Y-69296000D01*
X191078137Y-69293304D01*
X190895349Y-69309296D01*
X190884556Y-69311199D01*
X190674107Y-69367588D01*
X190663815Y-69371334D01*
X190466357Y-69463410D01*
X190456861Y-69468893D01*
X190278401Y-69593852D01*
X190269993Y-69600908D01*
X190115952Y-69754949D01*
X190108896Y-69763357D01*
X189983937Y-69941817D01*
X189978454Y-69951313D01*
X189903086Y-70112940D01*
X189900969Y-70126880D01*
X185633500Y-70126880D01*
X185633500Y-67774003D01*
X185653502Y-67705882D01*
X185670405Y-67684908D01*
X188386161Y-64969152D01*
X188448473Y-64935126D01*
X188507868Y-64936541D01*
X188566000Y-64952118D01*
X188566011Y-64952120D01*
X188571322Y-64953543D01*
X188799409Y-64973498D01*
X189027496Y-64953543D01*
X189032809Y-64952119D01*
X189032811Y-64952119D01*
X189243342Y-64895707D01*
X189243344Y-64895706D01*
X189248652Y-64894284D01*
X189253634Y-64891961D01*
X189451171Y-64799849D01*
X189451176Y-64799846D01*
X189456158Y-64797523D01*
X189561020Y-64724098D01*
X189639198Y-64669357D01*
X189639201Y-64669355D01*
X189643709Y-64666198D01*
X189805607Y-64504300D01*
X189921408Y-64338920D01*
X189936537Y-64317314D01*
X189993365Y-64272434D01*
X190019220Y-64262197D01*
X190030452Y-64258351D01*
X190065293Y-64248229D01*
X190065294Y-64248229D01*
X190072903Y-64246018D01*
X190079722Y-64241985D01*
X190079727Y-64241983D01*
X190090338Y-64235707D01*
X190108086Y-64227012D01*
X190126927Y-64219552D01*
X190162697Y-64193564D01*
X190172617Y-64187048D01*
X190203845Y-64168580D01*
X190203848Y-64168578D01*
X190210672Y-64164542D01*
X190224993Y-64150221D01*
X190240027Y-64137380D01*
X190250004Y-64130131D01*
X190256417Y-64125472D01*
X190284608Y-64091395D01*
X190292598Y-64082616D01*
X192468885Y-61906329D01*
X192531197Y-61872303D01*
X192590592Y-61873718D01*
X192648724Y-61889295D01*
X192648735Y-61889297D01*
X192654046Y-61890720D01*
X192882133Y-61910675D01*
X193110220Y-61890720D01*
X193115533Y-61889296D01*
X193115535Y-61889296D01*
X193326066Y-61832884D01*
X193326068Y-61832883D01*
X193331376Y-61831461D01*
X193379064Y-61809224D01*
X193533895Y-61737026D01*
X193533900Y-61737023D01*
X193538882Y-61734700D01*
X193688987Y-61629595D01*
X193721922Y-61606534D01*
X193721925Y-61606532D01*
X193726433Y-61603375D01*
X193888331Y-61441477D01*
X193892372Y-61435707D01*
X193959492Y-61339849D01*
X194019656Y-61253926D01*
X194021979Y-61248944D01*
X194021982Y-61248939D01*
X194114094Y-61051402D01*
X194114094Y-61051401D01*
X194116417Y-61046420D01*
X194130537Y-60993725D01*
X194167487Y-60933104D01*
X194231348Y-60902082D01*
X194301842Y-60910510D01*
G37*
%TD.AperFunction*%
%TA.AperFunction,Conductor*%
G36*
X195544032Y-78483247D02*
G01*
X195589095Y-78512208D01*
X195770115Y-78693228D01*
X195804141Y-78755540D01*
X195799076Y-78826355D01*
X195770115Y-78871418D01*
X194638920Y-80002613D01*
X194632160Y-80014993D01*
X194637887Y-80022643D01*
X194809042Y-80127528D01*
X194817841Y-80132012D01*
X194964821Y-80192892D01*
X195020103Y-80237440D01*
X195042524Y-80304803D01*
X195024966Y-80373594D01*
X195005699Y-80398396D01*
X193059533Y-82344562D01*
X193051247Y-82352102D01*
X193044768Y-82356214D01*
X193039343Y-82361991D01*
X192998143Y-82405865D01*
X192995388Y-82408707D01*
X192991095Y-82413000D01*
X192928783Y-82447026D01*
X192857968Y-82441961D01*
X192801132Y-82399414D01*
X192776321Y-82332894D01*
X192776000Y-82323905D01*
X192776000Y-79675666D01*
X192796002Y-79607545D01*
X192812905Y-79586571D01*
X193777456Y-78622020D01*
X193839768Y-78587994D01*
X193910583Y-78593059D01*
X193967419Y-78635606D01*
X193992230Y-78702126D01*
X193992163Y-78721001D01*
X193987725Y-78777393D01*
X193987725Y-78787253D01*
X194005572Y-79014022D01*
X194007115Y-79023769D01*
X194060217Y-79244950D01*
X194063266Y-79254335D01*
X194150313Y-79464486D01*
X194154795Y-79473281D01*
X194257432Y-79640768D01*
X194267890Y-79650230D01*
X194276666Y-79646447D01*
X195410905Y-78512208D01*
X195473217Y-78478182D01*
X195544032Y-78483247D01*
G37*
%TD.AperFunction*%
%TA.AperFunction,Conductor*%
G36*
X203170806Y-79893502D02*
G01*
X203205898Y-79927230D01*
X203270699Y-80019776D01*
X203420224Y-80169301D01*
X203593442Y-80290589D01*
X203598420Y-80292910D01*
X203598423Y-80292912D01*
X203780108Y-80377633D01*
X203785090Y-80379956D01*
X203790398Y-80381378D01*
X203790400Y-80381379D01*
X203984030Y-80433262D01*
X203984032Y-80433262D01*
X203989345Y-80434686D01*
X204049844Y-80439979D01*
X204054816Y-80440414D01*
X204120934Y-80466278D01*
X204162573Y-80523781D01*
X204166514Y-80594668D01*
X204131505Y-80656433D01*
X204068660Y-80689465D01*
X204052626Y-80691500D01*
X204051866Y-80691500D01*
X203989684Y-80698255D01*
X203853295Y-80749385D01*
X203736739Y-80836739D01*
X203700824Y-80884660D01*
X203643967Y-80927173D01*
X203573149Y-80932199D01*
X203510855Y-80898139D01*
X203499183Y-80884670D01*
X203463261Y-80836739D01*
X203346705Y-80749385D01*
X203210316Y-80698255D01*
X203148134Y-80691500D01*
X202051866Y-80691500D01*
X201989684Y-80698255D01*
X201853295Y-80749385D01*
X201736739Y-80836739D01*
X201731358Y-80843919D01*
X201700514Y-80885074D01*
X201643655Y-80927589D01*
X201572836Y-80932615D01*
X201510543Y-80898555D01*
X201498862Y-80885075D01*
X201468283Y-80844274D01*
X201455724Y-80831715D01*
X201353649Y-80755214D01*
X201338054Y-80746676D01*
X201217606Y-80701522D01*
X201202351Y-80697895D01*
X201151469Y-80692367D01*
X201150764Y-80692329D01*
X201150607Y-80692274D01*
X201148089Y-80692000D01*
X201148153Y-80691406D01*
X201083826Y-80668671D01*
X201040304Y-80612579D01*
X201034016Y-80541861D01*
X201068486Y-80477419D01*
X201635500Y-79910405D01*
X201697812Y-79876379D01*
X201724595Y-79873500D01*
X203102685Y-79873500D01*
X203170806Y-79893502D01*
G37*
%TD.AperFunction*%
%TA.AperFunction,Conductor*%
G36*
X205799720Y-75213954D02*
G01*
X205808938Y-75217815D01*
X205851983Y-75237887D01*
X205985090Y-75299956D01*
X205990398Y-75301378D01*
X205990400Y-75301379D01*
X206184030Y-75353262D01*
X206184032Y-75353262D01*
X206189345Y-75354686D01*
X206400000Y-75373116D01*
X206610655Y-75354686D01*
X206615972Y-75353261D01*
X206615974Y-75353261D01*
X206632887Y-75348729D01*
X206703863Y-75350417D01*
X206762660Y-75390210D01*
X206790609Y-75455474D01*
X206791500Y-75470435D01*
X206791500Y-77900405D01*
X206771498Y-77968526D01*
X206754595Y-77989500D01*
X206731538Y-78012557D01*
X206669226Y-78046583D01*
X206620561Y-78047547D01*
X206615961Y-78046736D01*
X206610655Y-78045314D01*
X206605188Y-78044836D01*
X206605184Y-78044835D01*
X206405475Y-78027363D01*
X206400000Y-78026884D01*
X206189345Y-78045314D01*
X206184032Y-78046738D01*
X206184030Y-78046738D01*
X205990400Y-78098621D01*
X205990398Y-78098622D01*
X205985090Y-78100044D01*
X205980109Y-78102366D01*
X205980108Y-78102367D01*
X205798423Y-78187088D01*
X205798420Y-78187090D01*
X205793442Y-78189411D01*
X205620224Y-78310699D01*
X205470699Y-78460224D01*
X205419852Y-78532842D01*
X205403213Y-78556605D01*
X205347756Y-78600933D01*
X205277137Y-78608242D01*
X205213776Y-78576211D01*
X205196787Y-78556605D01*
X205180148Y-78532842D01*
X205129301Y-78460224D01*
X204979776Y-78310699D01*
X204806558Y-78189411D01*
X204801580Y-78187090D01*
X204801577Y-78187088D01*
X204619892Y-78102367D01*
X204619891Y-78102366D01*
X204614910Y-78100044D01*
X204609602Y-78098622D01*
X204609600Y-78098621D01*
X204415970Y-78046738D01*
X204415968Y-78046738D01*
X204410655Y-78045314D01*
X204200000Y-78026884D01*
X203989345Y-78045314D01*
X203984032Y-78046738D01*
X203984030Y-78046738D01*
X203790400Y-78098621D01*
X203790398Y-78098622D01*
X203785090Y-78100044D01*
X203780109Y-78102366D01*
X203780108Y-78102367D01*
X203598423Y-78187088D01*
X203598420Y-78187090D01*
X203593442Y-78189411D01*
X203420224Y-78310699D01*
X203270699Y-78460224D01*
X203225791Y-78524360D01*
X203205898Y-78552770D01*
X203150441Y-78597099D01*
X203102685Y-78606500D01*
X202607198Y-78606500D01*
X202539077Y-78586498D01*
X202492584Y-78532842D01*
X202482480Y-78462568D01*
X202511974Y-78397988D01*
X202518103Y-78391405D01*
X205666593Y-75242915D01*
X205728905Y-75208889D01*
X205799720Y-75213954D01*
G37*
%TD.AperFunction*%
%TA.AperFunction,Conductor*%
G36*
X207403865Y-64967151D02*
G01*
X207462661Y-65006945D01*
X207490609Y-65072209D01*
X207491500Y-65087168D01*
X207491500Y-72720836D01*
X207471498Y-72788957D01*
X207454595Y-72809931D01*
X207248595Y-73015931D01*
X207186283Y-73049957D01*
X207115468Y-73044892D01*
X207058632Y-73002345D01*
X207033821Y-72935825D01*
X207033500Y-72926836D01*
X207033500Y-65126025D01*
X207053502Y-65057904D01*
X207107158Y-65011411D01*
X207148518Y-65000504D01*
X207172829Y-64998377D01*
X207222606Y-64994023D01*
X207222611Y-64994022D01*
X207228087Y-64993543D01*
X207332890Y-64965461D01*
X207403865Y-64967151D01*
G37*
%TD.AperFunction*%
%TA.AperFunction,Conductor*%
G36*
X197162517Y-61498230D02*
G01*
X197213248Y-61529152D01*
X198376343Y-62692247D01*
X198383887Y-62700537D01*
X198388000Y-62707018D01*
X198393777Y-62712443D01*
X198437667Y-62753658D01*
X198440509Y-62756413D01*
X198460230Y-62776134D01*
X198463425Y-62778612D01*
X198472447Y-62786318D01*
X198504679Y-62816586D01*
X198511628Y-62820406D01*
X198522432Y-62826346D01*
X198538956Y-62837199D01*
X198554959Y-62849613D01*
X198595543Y-62867176D01*
X198606173Y-62872383D01*
X198644940Y-62893695D01*
X198652617Y-62895666D01*
X198652622Y-62895668D01*
X198664558Y-62898732D01*
X198683266Y-62905137D01*
X198701855Y-62913181D01*
X198709683Y-62914421D01*
X198709690Y-62914423D01*
X198745524Y-62920099D01*
X198757144Y-62922505D01*
X198788959Y-62930673D01*
X198799970Y-62933500D01*
X198820224Y-62933500D01*
X198839934Y-62935051D01*
X198859943Y-62938220D01*
X198867835Y-62937474D01*
X198886580Y-62935702D01*
X198903962Y-62934059D01*
X198915819Y-62933500D01*
X202621233Y-62933500D01*
X202632416Y-62934027D01*
X202639909Y-62935702D01*
X202647835Y-62935453D01*
X202647836Y-62935453D01*
X202707986Y-62933562D01*
X202711945Y-62933500D01*
X202739856Y-62933500D01*
X202743791Y-62933003D01*
X202743856Y-62932995D01*
X202755693Y-62932062D01*
X202787951Y-62931048D01*
X202791970Y-62930922D01*
X202799889Y-62930673D01*
X202819343Y-62925021D01*
X202838700Y-62921013D01*
X202850930Y-62919468D01*
X202850931Y-62919468D01*
X202858797Y-62918474D01*
X202866168Y-62915555D01*
X202866170Y-62915555D01*
X202899912Y-62902196D01*
X202911142Y-62898351D01*
X202945983Y-62888229D01*
X202945984Y-62888229D01*
X202953593Y-62886018D01*
X202960412Y-62881985D01*
X202960417Y-62881983D01*
X202961862Y-62881128D01*
X202963143Y-62880803D01*
X202967693Y-62878834D01*
X202968011Y-62879568D01*
X203030678Y-62863669D01*
X203098009Y-62886186D01*
X203142478Y-62941531D01*
X203146274Y-62960685D01*
X203146896Y-62960502D01*
X203156475Y-62993124D01*
X203157865Y-62994329D01*
X203165548Y-62996000D01*
X204588000Y-62996000D01*
X204656121Y-63016002D01*
X204702614Y-63069658D01*
X204714000Y-63122000D01*
X204714000Y-63378000D01*
X204693998Y-63446121D01*
X204640342Y-63492614D01*
X204588000Y-63504000D01*
X203170115Y-63504000D01*
X203154876Y-63508475D01*
X203153671Y-63509865D01*
X203152000Y-63517548D01*
X203152000Y-63754365D01*
X203152238Y-63759830D01*
X203166472Y-63922519D01*
X203168375Y-63933312D01*
X203215152Y-64107889D01*
X203213462Y-64178866D01*
X203173668Y-64237661D01*
X203108403Y-64265609D01*
X203093445Y-64266500D01*
X199514595Y-64266500D01*
X199446474Y-64246498D01*
X199425500Y-64229595D01*
X196926148Y-61730243D01*
X196892122Y-61667931D01*
X196897187Y-61597116D01*
X196939734Y-61540280D01*
X197004263Y-61515627D01*
X197009204Y-61515195D01*
X197022608Y-61514023D01*
X197022615Y-61514022D01*
X197028087Y-61513543D01*
X197033398Y-61512120D01*
X197033409Y-61512118D01*
X197091541Y-61496541D01*
X197162517Y-61498230D01*
G37*
%TD.AperFunction*%
%TD*%
M02*
