%TF.GenerationSoftware,KiCad,Pcbnew,(6.0.7)*%
%TF.CreationDate,2022-08-25T15:43:46-04:00*%
%TF.ProjectId,chiller_interlock,6368696c-6c65-4725-9f69-6e7465726c6f,rev?*%
%TF.SameCoordinates,Original*%
%TF.FileFunction,Soldermask,Top*%
%TF.FilePolarity,Negative*%
%FSLAX46Y46*%
G04 Gerber Fmt 4.6, Leading zero omitted, Abs format (unit mm)*
G04 Created by KiCad (PCBNEW (6.0.7)) date 2022-08-25 15:43:46*
%MOMM*%
%LPD*%
G01*
G04 APERTURE LIST*
G04 Aperture macros list*
%AMRoundRect*
0 Rectangle with rounded corners*
0 $1 Rounding radius*
0 $2 $3 $4 $5 $6 $7 $8 $9 X,Y pos of 4 corners*
0 Add a 4 corners polygon primitive as box body*
4,1,4,$2,$3,$4,$5,$6,$7,$8,$9,$2,$3,0*
0 Add four circle primitives for the rounded corners*
1,1,$1+$1,$2,$3*
1,1,$1+$1,$4,$5*
1,1,$1+$1,$6,$7*
1,1,$1+$1,$8,$9*
0 Add four rect primitives between the rounded corners*
20,1,$1+$1,$2,$3,$4,$5,0*
20,1,$1+$1,$4,$5,$6,$7,0*
20,1,$1+$1,$6,$7,$8,$9,0*
20,1,$1+$1,$8,$9,$2,$3,0*%
%AMHorizOval*
0 Thick line with rounded ends*
0 $1 width*
0 $2 $3 position (X,Y) of the first rounded end (center of the circle)*
0 $4 $5 position (X,Y) of the second rounded end (center of the circle)*
0 Add line between two ends*
20,1,$1,$2,$3,$4,$5,0*
0 Add two circle primitives to create the rounded ends*
1,1,$1,$2,$3*
1,1,$1,$4,$5*%
G04 Aperture macros list end*
%TA.AperFunction,Profile*%
%ADD10C,0.100000*%
%TD*%
%ADD11C,1.600000*%
%ADD12HorizOval,1.600000X0.000000X0.000000X0.000000X0.000000X0*%
%ADD13O,1.600000X2.500000*%
%ADD14O,3.500000X7.000000*%
%ADD15C,7.400000*%
%ADD16O,1.200000X2.000000*%
%ADD17C,1.400000*%
%ADD18RoundRect,0.250000X0.650000X1.550000X-0.650000X1.550000X-0.650000X-1.550000X0.650000X-1.550000X0*%
%ADD19O,1.800000X3.600000*%
%ADD20R,2.000000X2.000000*%
%ADD21C,2.000000*%
%ADD22HorizOval,1.600000X0.000000X0.000000X0.000000X0.000000X0*%
%ADD23RoundRect,0.250000X-0.650000X-1.550000X0.650000X-1.550000X0.650000X1.550000X-0.650000X1.550000X0*%
%ADD24O,1.600000X1.600000*%
%ADD25R,1.000000X2.350000*%
G04 APERTURE END LIST*
D10*
X168000000Y-91000000D02*
X215000000Y-91000000D01*
X215000000Y-50000000D02*
X168000000Y-50000000D01*
X168000000Y-50000000D02*
X168000000Y-91000000D01*
X215000000Y-91000000D02*
X215000000Y-50000000D01*
D11*
%TO.C,R3*%
X188799409Y-63660000D03*
D12*
X180000591Y-68740000D03*
%TD*%
D13*
%TO.C,J4*%
X207000000Y-63250000D03*
D14*
X212080000Y-58170000D03*
D13*
X204460000Y-63250000D03*
D14*
X201920000Y-58170000D03*
%TD*%
D15*
%TO.C,J5*%
X210750000Y-86750000D03*
%TD*%
D16*
%TO.C,U1*%
X186010000Y-87800000D03*
X183470000Y-87800000D03*
X180930000Y-87800000D03*
X178390000Y-87800000D03*
%TD*%
D17*
%TO.C,K1*%
X211800000Y-74160000D03*
X208600000Y-74160000D03*
X206400000Y-74160000D03*
X204200000Y-74160000D03*
X204200000Y-79240000D03*
X206400000Y-79240000D03*
X208600000Y-79240000D03*
X211800000Y-79240000D03*
%TD*%
D18*
%TO.C,J2*%
X195132500Y-86057500D03*
D19*
X191632500Y-86057500D03*
%TD*%
D20*
%TO.C,C2*%
X171982323Y-76000000D03*
D21*
X175482323Y-76000000D03*
%TD*%
D11*
%TO.C,R1*%
X192882133Y-60597177D03*
D22*
X191117868Y-70602824D03*
%TD*%
D23*
%TO.C,J1*%
X179467500Y-55042500D03*
D19*
X182967500Y-55042500D03*
%TD*%
D20*
%TO.C,C4*%
X171982323Y-65200000D03*
D21*
X175482323Y-65200000D03*
%TD*%
D15*
%TO.C,J7*%
X172200000Y-86750000D03*
%TD*%
D11*
%TO.C,R4*%
X196800000Y-60220000D03*
D24*
X196800000Y-70380000D03*
%TD*%
D20*
%TO.C,C1*%
X185000000Y-72600000D03*
D21*
X185000000Y-76100000D03*
%TD*%
D20*
%TO.C,C3*%
X195500000Y-75282323D03*
D21*
X195500000Y-78782323D03*
%TD*%
D25*
%TO.C,SW1*%
X204600000Y-82375000D03*
X202600000Y-82375000D03*
X200600000Y-82375000D03*
X204600000Y-89025000D03*
X202600000Y-89025000D03*
X200600000Y-89025000D03*
%TD*%
D11*
%TO.C,R2*%
X189080000Y-60200000D03*
D24*
X178920000Y-60200000D03*
%TD*%
D15*
%TO.C,J6*%
X172200000Y-54200000D03*
%TD*%
D23*
%TO.C,J3*%
X190067500Y-55042500D03*
D19*
X193567500Y-55042500D03*
%TD*%
M02*
