M48
; DRILL file {KiCad (6.0.7)} date 2022年08月25日 星期四 15时44分05秒
; FORMAT={-:-/ absolute / inch / decimal}
; #@! TF.CreationDate,2022-08-25T15:44:05-04:00
; #@! TF.GenerationSoftware,Kicad,Pcbnew,(6.0.7)
; #@! TF.FileFunction,MixedPlating,1,2
FMAT,2
INCH
; #@! TA.AperFunction,Plated,PTH,ViaDrill
T1C0.0157
; #@! TA.AperFunction,Plated,PTH,ComponentDrill
T2C0.0276
; #@! TA.AperFunction,Plated,PTH,ComponentDrill
T3C0.0315
; #@! TA.AperFunction,Plated,PTH,ComponentDrill
T4C0.0350
; #@! TA.AperFunction,Plated,PTH,ComponentDrill
T5C0.0394
; #@! TA.AperFunction,Plated,PTH,ComponentDrill
T6C0.0472
; #@! TA.AperFunction,Plated,PTH,ComponentDrill
T7C0.0791
; #@! TA.AperFunction,Plated,PTH,ComponentDrill
T8C0.1457
%
G90
G05
T1
X6.9208Y-3.1855
X7.9764Y-3.315
X8.1024Y-3.0157
X8.1575Y-2.6772
X8.1575Y-2.8346
T2
X8.0394Y-2.9197
X8.0394Y-3.1197
X8.126Y-2.9197
X8.126Y-3.1197
X8.2126Y-2.9197
X8.2126Y-3.1197
X8.3386Y-2.9197
X8.3386Y-3.1197
T3
X7.0232Y-3.4567
X7.0441Y-2.3701
X7.0866Y-2.7063
X7.1232Y-3.4567
X7.2232Y-3.4567
X7.3232Y-3.4567
X7.433Y-2.5063
X7.4441Y-2.3701
X7.5243Y-2.7796
X7.5938Y-2.3857
X7.748Y-2.3709
X7.748Y-2.7709
T4
X8.0496Y-2.4902
X8.1496Y-2.4902
T5
X6.771Y-2.5669
X6.771Y-2.9921
X6.9088Y-2.5669
X6.9088Y-2.9921
X7.2835Y-2.8583
X7.2835Y-2.9961
X7.6969Y-2.9639
X7.6969Y-3.1017
T6
X7.0656Y-2.167
X7.2034Y-2.167
X7.483Y-2.167
X7.5446Y-3.3881
X7.6208Y-2.167
X7.6824Y-3.3881
T7
X7.9496Y-2.2902
X8.3496Y-2.2902
T8
X6.7795Y-2.1339
X6.7795Y-3.4154
X8.2972Y-3.4154
T0
M30
