%TF.GenerationSoftware,KiCad,Pcbnew,(6.0.11)*%
%TF.CreationDate,2023-02-04T12:58:05-05:00*%
%TF.ProjectId,h_bridge,685f6272-6964-4676-952e-6b696361645f,rev?*%
%TF.SameCoordinates,Original*%
%TF.FileFunction,Legend,Top*%
%TF.FilePolarity,Positive*%
%FSLAX46Y46*%
G04 Gerber Fmt 4.6, Leading zero omitted, Abs format (unit mm)*
G04 Created by KiCad (PCBNEW (6.0.11)) date 2023-02-04 12:58:05*
%MOMM*%
%LPD*%
G01*
G04 APERTURE LIST*
%ADD10C,0.150000*%
%ADD11C,0.120000*%
G04 APERTURE END LIST*
D10*
%TO.C,SW2*%
X140162761Y-103991333D02*
X140210380Y-103848476D01*
X140210380Y-103610380D01*
X140162761Y-103515142D01*
X140115142Y-103467523D01*
X140019904Y-103419904D01*
X139924666Y-103419904D01*
X139829428Y-103467523D01*
X139781809Y-103515142D01*
X139734190Y-103610380D01*
X139686571Y-103800857D01*
X139638952Y-103896095D01*
X139591333Y-103943714D01*
X139496095Y-103991333D01*
X139400857Y-103991333D01*
X139305619Y-103943714D01*
X139258000Y-103896095D01*
X139210380Y-103800857D01*
X139210380Y-103562761D01*
X139258000Y-103419904D01*
X139210380Y-103086571D02*
X140210380Y-102848476D01*
X139496095Y-102658000D01*
X140210380Y-102467523D01*
X139210380Y-102229428D01*
X139305619Y-101896095D02*
X139258000Y-101848476D01*
X139210380Y-101753238D01*
X139210380Y-101515142D01*
X139258000Y-101419904D01*
X139305619Y-101372285D01*
X139400857Y-101324666D01*
X139496095Y-101324666D01*
X139638952Y-101372285D01*
X140210380Y-101943714D01*
X140210380Y-101324666D01*
%TO.C,SW1*%
X132934761Y-107971333D02*
X132982380Y-107828476D01*
X132982380Y-107590380D01*
X132934761Y-107495142D01*
X132887142Y-107447523D01*
X132791904Y-107399904D01*
X132696666Y-107399904D01*
X132601428Y-107447523D01*
X132553809Y-107495142D01*
X132506190Y-107590380D01*
X132458571Y-107780857D01*
X132410952Y-107876095D01*
X132363333Y-107923714D01*
X132268095Y-107971333D01*
X132172857Y-107971333D01*
X132077619Y-107923714D01*
X132030000Y-107876095D01*
X131982380Y-107780857D01*
X131982380Y-107542761D01*
X132030000Y-107399904D01*
X131982380Y-107066571D02*
X132982380Y-106828476D01*
X132268095Y-106638000D01*
X132982380Y-106447523D01*
X131982380Y-106209428D01*
X132982380Y-105304666D02*
X132982380Y-105876095D01*
X132982380Y-105590380D02*
X131982380Y-105590380D01*
X132125238Y-105685619D01*
X132220476Y-105780857D01*
X132268095Y-105876095D01*
%TO.C,R2*%
X135977333Y-91976380D02*
X135644000Y-91500190D01*
X135405904Y-91976380D02*
X135405904Y-90976380D01*
X135786857Y-90976380D01*
X135882095Y-91024000D01*
X135929714Y-91071619D01*
X135977333Y-91166857D01*
X135977333Y-91309714D01*
X135929714Y-91404952D01*
X135882095Y-91452571D01*
X135786857Y-91500190D01*
X135405904Y-91500190D01*
X136358285Y-91071619D02*
X136405904Y-91024000D01*
X136501142Y-90976380D01*
X136739238Y-90976380D01*
X136834476Y-91024000D01*
X136882095Y-91071619D01*
X136929714Y-91166857D01*
X136929714Y-91262095D01*
X136882095Y-91404952D01*
X136310666Y-91976380D01*
X136929714Y-91976380D01*
%TO.C,R1*%
X135977333Y-118224380D02*
X135644000Y-117748190D01*
X135405904Y-118224380D02*
X135405904Y-117224380D01*
X135786857Y-117224380D01*
X135882095Y-117272000D01*
X135929714Y-117319619D01*
X135977333Y-117414857D01*
X135977333Y-117557714D01*
X135929714Y-117652952D01*
X135882095Y-117700571D01*
X135786857Y-117748190D01*
X135405904Y-117748190D01*
X136929714Y-118224380D02*
X136358285Y-118224380D01*
X136644000Y-118224380D02*
X136644000Y-117224380D01*
X136548761Y-117367238D01*
X136453523Y-117462476D01*
X136358285Y-117510095D01*
%TO.C,J1*%
X123404380Y-110569333D02*
X124118666Y-110569333D01*
X124261523Y-110616952D01*
X124356761Y-110712190D01*
X124404380Y-110855047D01*
X124404380Y-110950285D01*
X124404380Y-109569333D02*
X124404380Y-110140761D01*
X124404380Y-109855047D02*
X123404380Y-109855047D01*
X123547238Y-109950285D01*
X123642476Y-110045523D01*
X123690095Y-110140761D01*
%TO.C,D5*%
X139644380Y-95729095D02*
X138644380Y-95729095D01*
X138644380Y-95491000D01*
X138692000Y-95348142D01*
X138787238Y-95252904D01*
X138882476Y-95205285D01*
X139072952Y-95157666D01*
X139215809Y-95157666D01*
X139406285Y-95205285D01*
X139501523Y-95252904D01*
X139596761Y-95348142D01*
X139644380Y-95491000D01*
X139644380Y-95729095D01*
X138644380Y-94252904D02*
X138644380Y-94729095D01*
X139120571Y-94776714D01*
X139072952Y-94729095D01*
X139025333Y-94633857D01*
X139025333Y-94395761D01*
X139072952Y-94300523D01*
X139120571Y-94252904D01*
X139215809Y-94205285D01*
X139453904Y-94205285D01*
X139549142Y-94252904D01*
X139596761Y-94300523D01*
X139644380Y-94395761D01*
X139644380Y-94633857D01*
X139596761Y-94729095D01*
X139549142Y-94776714D01*
%TO.C,D4*%
X139740380Y-115043095D02*
X138740380Y-115043095D01*
X138740380Y-114805000D01*
X138788000Y-114662142D01*
X138883238Y-114566904D01*
X138978476Y-114519285D01*
X139168952Y-114471666D01*
X139311809Y-114471666D01*
X139502285Y-114519285D01*
X139597523Y-114566904D01*
X139692761Y-114662142D01*
X139740380Y-114805000D01*
X139740380Y-115043095D01*
X139073714Y-113614523D02*
X139740380Y-113614523D01*
X138692761Y-113852619D02*
X139407047Y-114090714D01*
X139407047Y-113471666D01*
%TO.C,D3*%
X135410904Y-108560380D02*
X135410904Y-107560380D01*
X135649000Y-107560380D01*
X135791857Y-107608000D01*
X135887095Y-107703238D01*
X135934714Y-107798476D01*
X135982333Y-107988952D01*
X135982333Y-108131809D01*
X135934714Y-108322285D01*
X135887095Y-108417523D01*
X135791857Y-108512761D01*
X135649000Y-108560380D01*
X135410904Y-108560380D01*
X136315666Y-107560380D02*
X136934714Y-107560380D01*
X136601380Y-107941333D01*
X136744238Y-107941333D01*
X136839476Y-107988952D01*
X136887095Y-108036571D01*
X136934714Y-108131809D01*
X136934714Y-108369904D01*
X136887095Y-108465142D01*
X136839476Y-108512761D01*
X136744238Y-108560380D01*
X136458523Y-108560380D01*
X136363285Y-108512761D01*
X136315666Y-108465142D01*
%TO.C,D2*%
X133548380Y-95739666D02*
X132548380Y-95739666D01*
X132548380Y-95501571D01*
X132596000Y-95358713D01*
X132691238Y-95263475D01*
X132786476Y-95215856D01*
X132976952Y-95168237D01*
X133119809Y-95168237D01*
X133310285Y-95215856D01*
X133405523Y-95263475D01*
X133500761Y-95358713D01*
X133548380Y-95501571D01*
X133548380Y-95739666D01*
X132643619Y-94787285D02*
X132596000Y-94739666D01*
X132548380Y-94644428D01*
X132548380Y-94406332D01*
X132596000Y-94311094D01*
X132643619Y-94263475D01*
X132738857Y-94215856D01*
X132834095Y-94215856D01*
X132976952Y-94263475D01*
X133548380Y-94834904D01*
X133548380Y-94215856D01*
%TO.C,D1*%
X133452380Y-115018095D02*
X132452380Y-115018095D01*
X132452380Y-114780000D01*
X132500000Y-114637142D01*
X132595238Y-114541904D01*
X132690476Y-114494285D01*
X132880952Y-114446666D01*
X133023809Y-114446666D01*
X133214285Y-114494285D01*
X133309523Y-114541904D01*
X133404761Y-114637142D01*
X133452380Y-114780000D01*
X133452380Y-115018095D01*
X133452380Y-113494285D02*
X133452380Y-114065714D01*
X133452380Y-113780000D02*
X132452380Y-113780000D01*
X132595238Y-113875238D01*
X132690476Y-113970476D01*
X132738095Y-114065714D01*
D11*
%TO.C,SW2*%
X140798000Y-109058000D02*
X140488000Y-109058000D01*
X140288000Y-106648000D02*
X139788000Y-106148000D01*
X139788000Y-106148000D02*
X139788000Y-107148000D01*
X145008000Y-109058000D02*
X144698000Y-109058000D01*
X139788000Y-107148000D02*
X140288000Y-106648000D01*
X145008000Y-100238000D02*
X144698000Y-100238000D01*
X140488000Y-100238000D02*
X140798000Y-100238000D01*
X145008000Y-100238000D02*
X145008000Y-109058000D01*
X140488000Y-109058000D02*
X140488000Y-100238000D01*
%TO.C,SW1*%
X131800000Y-100238000D02*
X131800000Y-109058000D01*
X127280000Y-109058000D02*
X127280000Y-100238000D01*
X131800000Y-109058000D02*
X131490000Y-109058000D01*
X127280000Y-109058000D02*
X127590000Y-109058000D01*
X132500000Y-102148000D02*
X132000000Y-102648000D01*
X127280000Y-100238000D02*
X127590000Y-100238000D01*
X132500000Y-103148000D02*
X132500000Y-102148000D01*
X132000000Y-102648000D02*
X132500000Y-103148000D01*
X131490000Y-100238000D02*
X131800000Y-100238000D01*
%TO.C,R2*%
X132874000Y-90524000D02*
X139414000Y-90524000D01*
X139414000Y-87784000D02*
X132874000Y-87784000D01*
X132874000Y-87784000D02*
X132874000Y-90524000D01*
X139414000Y-90524000D02*
X139414000Y-87784000D01*
X140184000Y-89154000D02*
X139414000Y-89154000D01*
X132104000Y-89154000D02*
X132874000Y-89154000D01*
%TO.C,R1*%
X140184000Y-120142000D02*
X139414000Y-120142000D01*
X132104000Y-120142000D02*
X132874000Y-120142000D01*
X132874000Y-118772000D02*
X132874000Y-121512000D01*
X139414000Y-121512000D02*
X139414000Y-118772000D01*
X132874000Y-121512000D02*
X139414000Y-121512000D01*
X139414000Y-118772000D02*
X132874000Y-118772000D01*
%TO.C,J1*%
X123288345Y-102130853D02*
G75*
G03*
X123288500Y-103630500I1700155J-749647D01*
G01*
X123288345Y-105630853D02*
G75*
G03*
X123288500Y-107130500I1700155J-749647D01*
G01*
X123288500Y-107880500D02*
X118988500Y-107880500D01*
X118638500Y-101630500D02*
X118638500Y-102130500D01*
X117638500Y-104380500D02*
X117638500Y-101380500D01*
X118988500Y-104880500D02*
X123288500Y-104880500D01*
X118988500Y-102130500D02*
X118988500Y-101380500D01*
X117638500Y-107880500D02*
X117638500Y-104880500D01*
X118638500Y-104130500D02*
X117638500Y-104380500D01*
X124148500Y-108940500D02*
X124148500Y-100320500D01*
X118638500Y-102130500D02*
X118988500Y-102130500D01*
X118638500Y-103630500D02*
X118638500Y-104130500D01*
X116288500Y-109330500D02*
X116288500Y-107330500D01*
X123288500Y-104380500D02*
X118988500Y-104380500D01*
X117638500Y-104880500D02*
X118638500Y-105130500D01*
X118638500Y-107130500D02*
X118638500Y-107630500D01*
X118988500Y-103630500D02*
X118638500Y-103630500D01*
X123288500Y-101380500D02*
X123288500Y-102130500D01*
X118988500Y-107130500D02*
X118638500Y-107130500D01*
X118988500Y-101380500D02*
X123288500Y-101380500D01*
X123288500Y-104880500D02*
X123288500Y-105630500D01*
X123288500Y-107130500D02*
X123288500Y-107880500D01*
X117638500Y-101380500D02*
X118638500Y-101630500D01*
X116678500Y-108940500D02*
X124148500Y-108940500D01*
X118638500Y-105630500D02*
X118988500Y-105630500D01*
X117538500Y-109330500D02*
X116288500Y-109330500D01*
X123288500Y-103630500D02*
X123288500Y-104380500D01*
X118638500Y-105130500D02*
X118638500Y-105630500D01*
X118638500Y-107630500D02*
X117638500Y-107880500D01*
X118988500Y-105630500D02*
X118988500Y-104880500D01*
X118988500Y-107880500D02*
X118988500Y-107130500D01*
X118988500Y-104380500D02*
X118988500Y-103630500D01*
X124148500Y-100320500D02*
X116678500Y-100320500D01*
X116678500Y-100320500D02*
X116678500Y-108940500D01*
%TO.C,D5*%
X144147000Y-92931000D02*
X143828000Y-92931000D01*
X141668000Y-92931000D02*
X141349000Y-92931000D01*
X143828961Y-96673713D02*
G75*
G03*
X143828000Y-93307670I-1080961J1682713D01*
G01*
X143828724Y-97234242D02*
G75*
G03*
X144146749Y-92931000I-1080724J2243242D01*
G01*
X141668000Y-93307670D02*
G75*
G03*
X141667039Y-96673713I1080000J-1683330D01*
G01*
X141349251Y-92931000D02*
G75*
G03*
X141667276Y-97234242I1398749J-2060000D01*
G01*
%TO.C,D4*%
X144146749Y-116365000D02*
G75*
G03*
X143828724Y-112061758I-1398749J2060000D01*
G01*
X143828000Y-115988330D02*
G75*
G03*
X143828961Y-112622287I-1080000J1683330D01*
G01*
X141667276Y-112061758D02*
G75*
G03*
X141349251Y-116365000I1080724J-2243242D01*
G01*
X141667039Y-112622287D02*
G75*
G03*
X141668000Y-115988330I1080961J-1682713D01*
G01*
X143828000Y-116365000D02*
X144147000Y-116365000D01*
X141349000Y-116365000D02*
X141668000Y-116365000D01*
%TO.C,D3*%
X138209000Y-106047000D02*
X138209000Y-105728000D01*
X138209000Y-103568000D02*
X138209000Y-103249000D01*
X134466287Y-105728961D02*
G75*
G03*
X137832330Y-105728000I1682713J1080961D01*
G01*
X133905758Y-105728724D02*
G75*
G03*
X138209000Y-106046749I2243242J1080724D01*
G01*
X137832330Y-103568000D02*
G75*
G03*
X134466287Y-103567039I-1683330J-1080000D01*
G01*
X138209000Y-103249251D02*
G75*
G03*
X133905758Y-103567276I-2060000J-1398749D01*
G01*
%TO.C,D2*%
X130938749Y-97061000D02*
G75*
G03*
X130620724Y-92757758I-1398749J2060000D01*
G01*
X130620000Y-96684330D02*
G75*
G03*
X130620961Y-93318287I-1080000J1683330D01*
G01*
X128459276Y-92757758D02*
G75*
G03*
X128141251Y-97061000I1080724J-2243242D01*
G01*
X128459039Y-93318287D02*
G75*
G03*
X128460000Y-96684330I1080961J-1682713D01*
G01*
X130620000Y-97061000D02*
X130939000Y-97061000D01*
X128141000Y-97061000D02*
X128460000Y-97061000D01*
%TO.C,D1*%
X128141251Y-112220000D02*
G75*
G03*
X128459276Y-116523242I1398749J-2060000D01*
G01*
X128460000Y-112596670D02*
G75*
G03*
X128459039Y-115962713I1080000J-1683330D01*
G01*
X130620724Y-116523242D02*
G75*
G03*
X130938749Y-112220000I-1080724J2243242D01*
G01*
X130620961Y-115962713D02*
G75*
G03*
X130620000Y-112596670I-1080961J1682713D01*
G01*
X128460000Y-112220000D02*
X128141000Y-112220000D01*
X130939000Y-112220000D02*
X130620000Y-112220000D01*
%TD*%
M02*
