M48
; DRILL file {KiCad (6.0.11)} date 2023年02月04日 星期六 12时58分10秒
; FORMAT={-:-/ absolute / inch / decimal}
; #@! TF.CreationDate,2023-02-04T12:58:10-05:00
; #@! TF.GenerationSoftware,Kicad,Pcbnew,(6.0.11)
; #@! TF.FileFunction,MixedPlating,1,2
FMAT,2
INCH
; #@! TA.AperFunction,Plated,PTH,ComponentDrill
T1C0.0315
; #@! TA.AperFunction,Plated,PTH,ComponentDrill
T2C0.0354
; #@! TA.AperFunction,Plated,PTH,ComponentDrill
T3C0.0472
; #@! TA.AperFunction,Plated,PTH,ComponentDrill
T4C0.0591
%
G90
G05
T1
X5.1Y-4.0413
X5.1Y-4.12
X5.1Y-4.1987
X5.16Y-3.51
X5.16Y-4.73
X5.56Y-3.51
X5.56Y-4.73
X5.62Y-4.0413
X5.62Y-4.12
X5.62Y-4.1987
T2
X5.1Y-3.6902
X5.1Y-3.7902
X5.1Y-4.4492
X5.1Y-4.5492
X5.3102Y-4.12
X5.4102Y-4.12
X5.62Y-3.6898
X5.62Y-3.7898
X5.62Y-4.4502
X5.62Y-4.5502
T3
X4.7653Y-4.0504
X4.7653Y-4.1882
T4
X5.1Y-3.9586
X5.1Y-4.2814
X5.62Y-3.9586
X5.62Y-4.2814
T0
M30
