<?xml version="1.0" encoding="utf-8" standalone="no"?>
<!DOCTYPE svg PUBLIC "-//W3C//DTD SVG 1.1//EN"
  "http://www.w3.org/Graphics/SVG/1.1/DTD/svg11.dtd">
<svg xmlns:xlink="http://www.w3.org/1999/xlink" width="425.730937pt" height="325.385437pt" viewBox="0 0 425.730937 325.385437" xmlns="http://www.w3.org/2000/svg" version="1.1">
 <defs>
  <style type="text/css">*{stroke-linejoin: round; stroke-linecap: butt}</style>
 </defs>
 <g id="figure_1">
  <g id="patch_1">
   <path d="M 0 325.385437 
L 425.730937 325.385437 
L 425.730937 0 
L 0 0 
L 0 325.385437 
z
" style="fill: none"/>
  </g>
  <g id="axes_1">
   <g id="patch_2">
    <path d="M 61.410938 273.312 
L 418.530938 273.312 
L 418.530938 7.2 
L 61.410938 7.2 
L 61.410938 273.312 
z
" style="fill: none"/>
   </g>
   <g id="matplotlib.axis_1">
    <g id="xtick_1">
     <g id="line2d_1">
      <path d="M 141.544641 273.312 
L 141.544641 7.2 
" clip-path="url(#peee9259259)" style="fill: none; stroke: #b0b0b0; stroke-width: 0.8; stroke-linecap: square"/>
     </g>
     <g id="line2d_2">
      <defs>
       <path id="md39032bed2" d="M 0 0 
L 0 3.5 
" style="stroke: #000000; stroke-width: 0.8"/>
      </defs>
      <g>
       <use xlink:href="#md39032bed2" x="141.544641" y="273.312" style="stroke: #000000; stroke-width: 0.8"/>
      </g>
     </g>
     <g id="text_1">
      <!-- −20 -->
      <g transform="translate(125.716126 291.709656) scale(0.15 -0.15)">
       <defs>
        <path id="DejaVuSans-2212" d="M 678 2272 
L 4684 2272 
L 4684 1741 
L 678 1741 
L 678 2272 
z
" transform="scale(0.015625)"/>
        <path id="DejaVuSans-32" d="M 1228 531 
L 3431 531 
L 3431 0 
L 469 0 
L 469 531 
Q 828 903 1448 1529 
Q 2069 2156 2228 2338 
Q 2531 2678 2651 2914 
Q 2772 3150 2772 3378 
Q 2772 3750 2511 3984 
Q 2250 4219 1831 4219 
Q 1534 4219 1204 4116 
Q 875 4013 500 3803 
L 500 4441 
Q 881 4594 1212 4672 
Q 1544 4750 1819 4750 
Q 2544 4750 2975 4387 
Q 3406 4025 3406 3419 
Q 3406 3131 3298 2873 
Q 3191 2616 2906 2266 
Q 2828 2175 2409 1742 
Q 1991 1309 1228 531 
z
" transform="scale(0.015625)"/>
        <path id="DejaVuSans-30" d="M 2034 4250 
Q 1547 4250 1301 3770 
Q 1056 3291 1056 2328 
Q 1056 1369 1301 889 
Q 1547 409 2034 409 
Q 2525 409 2770 889 
Q 3016 1369 3016 2328 
Q 3016 3291 2770 3770 
Q 2525 4250 2034 4250 
z
M 2034 4750 
Q 2819 4750 3233 4129 
Q 3647 3509 3647 2328 
Q 3647 1150 3233 529 
Q 2819 -91 2034 -91 
Q 1250 -91 836 529 
Q 422 1150 422 2328 
Q 422 3509 836 4129 
Q 1250 4750 2034 4750 
z
" transform="scale(0.015625)"/>
       </defs>
       <use xlink:href="#DejaVuSans-2212"/>
       <use xlink:href="#DejaVuSans-32" x="83.789062"/>
       <use xlink:href="#DejaVuSans-30" x="147.412109"/>
      </g>
     </g>
    </g>
    <g id="xtick_2">
     <g id="line2d_3">
      <path d="M 239.924806 273.312 
L 239.924806 7.2 
" clip-path="url(#peee9259259)" style="fill: none; stroke: #b0b0b0; stroke-width: 0.8; stroke-linecap: square"/>
     </g>
     <g id="line2d_4">
      <g>
       <use xlink:href="#md39032bed2" x="239.924806" y="273.312" style="stroke: #000000; stroke-width: 0.8"/>
      </g>
     </g>
     <g id="text_2">
      <!-- 0 -->
      <g transform="translate(235.152931 291.709656) scale(0.15 -0.15)">
       <use xlink:href="#DejaVuSans-30"/>
      </g>
     </g>
    </g>
    <g id="xtick_3">
     <g id="line2d_5">
      <path d="M 338.304972 273.312 
L 338.304972 7.2 
" clip-path="url(#peee9259259)" style="fill: none; stroke: #b0b0b0; stroke-width: 0.8; stroke-linecap: square"/>
     </g>
     <g id="line2d_6">
      <g>
       <use xlink:href="#md39032bed2" x="338.304972" y="273.312" style="stroke: #000000; stroke-width: 0.8"/>
      </g>
     </g>
     <g id="text_3">
      <!-- 20 -->
      <g transform="translate(328.761222 291.709656) scale(0.15 -0.15)">
       <use xlink:href="#DejaVuSans-32"/>
       <use xlink:href="#DejaVuSans-30" x="63.623047"/>
      </g>
     </g>
    </g>
    <g id="text_4">
     <!-- Detuning from resonance (kHz) -->
     <g transform="translate(83.074063 314.026062) scale(0.2 -0.2)">
      <defs>
       <path id="DejaVuSans-44" d="M 1259 4147 
L 1259 519 
L 2022 519 
Q 2988 519 3436 956 
Q 3884 1394 3884 2338 
Q 3884 3275 3436 3711 
Q 2988 4147 2022 4147 
L 1259 4147 
z
M 628 4666 
L 1925 4666 
Q 3281 4666 3915 4102 
Q 4550 3538 4550 2338 
Q 4550 1131 3912 565 
Q 3275 0 1925 0 
L 628 0 
L 628 4666 
z
" transform="scale(0.015625)"/>
       <path id="DejaVuSans-65" d="M 3597 1894 
L 3597 1613 
L 953 1613 
Q 991 1019 1311 708 
Q 1631 397 2203 397 
Q 2534 397 2845 478 
Q 3156 559 3463 722 
L 3463 178 
Q 3153 47 2828 -22 
Q 2503 -91 2169 -91 
Q 1331 -91 842 396 
Q 353 884 353 1716 
Q 353 2575 817 3079 
Q 1281 3584 2069 3584 
Q 2775 3584 3186 3129 
Q 3597 2675 3597 1894 
z
M 3022 2063 
Q 3016 2534 2758 2815 
Q 2500 3097 2075 3097 
Q 1594 3097 1305 2825 
Q 1016 2553 972 2059 
L 3022 2063 
z
" transform="scale(0.015625)"/>
       <path id="DejaVuSans-74" d="M 1172 4494 
L 1172 3500 
L 2356 3500 
L 2356 3053 
L 1172 3053 
L 1172 1153 
Q 1172 725 1289 603 
Q 1406 481 1766 481 
L 2356 481 
L 2356 0 
L 1766 0 
Q 1100 0 847 248 
Q 594 497 594 1153 
L 594 3053 
L 172 3053 
L 172 3500 
L 594 3500 
L 594 4494 
L 1172 4494 
z
" transform="scale(0.015625)"/>
       <path id="DejaVuSans-75" d="M 544 1381 
L 544 3500 
L 1119 3500 
L 1119 1403 
Q 1119 906 1312 657 
Q 1506 409 1894 409 
Q 2359 409 2629 706 
Q 2900 1003 2900 1516 
L 2900 3500 
L 3475 3500 
L 3475 0 
L 2900 0 
L 2900 538 
Q 2691 219 2414 64 
Q 2138 -91 1772 -91 
Q 1169 -91 856 284 
Q 544 659 544 1381 
z
M 1991 3584 
L 1991 3584 
z
" transform="scale(0.015625)"/>
       <path id="DejaVuSans-6e" d="M 3513 2113 
L 3513 0 
L 2938 0 
L 2938 2094 
Q 2938 2591 2744 2837 
Q 2550 3084 2163 3084 
Q 1697 3084 1428 2787 
Q 1159 2491 1159 1978 
L 1159 0 
L 581 0 
L 581 3500 
L 1159 3500 
L 1159 2956 
Q 1366 3272 1645 3428 
Q 1925 3584 2291 3584 
Q 2894 3584 3203 3211 
Q 3513 2838 3513 2113 
z
" transform="scale(0.015625)"/>
       <path id="DejaVuSans-69" d="M 603 3500 
L 1178 3500 
L 1178 0 
L 603 0 
L 603 3500 
z
M 603 4863 
L 1178 4863 
L 1178 4134 
L 603 4134 
L 603 4863 
z
" transform="scale(0.015625)"/>
       <path id="DejaVuSans-67" d="M 2906 1791 
Q 2906 2416 2648 2759 
Q 2391 3103 1925 3103 
Q 1463 3103 1205 2759 
Q 947 2416 947 1791 
Q 947 1169 1205 825 
Q 1463 481 1925 481 
Q 2391 481 2648 825 
Q 2906 1169 2906 1791 
z
M 3481 434 
Q 3481 -459 3084 -895 
Q 2688 -1331 1869 -1331 
Q 1566 -1331 1297 -1286 
Q 1028 -1241 775 -1147 
L 775 -588 
Q 1028 -725 1275 -790 
Q 1522 -856 1778 -856 
Q 2344 -856 2625 -561 
Q 2906 -266 2906 331 
L 2906 616 
Q 2728 306 2450 153 
Q 2172 0 1784 0 
Q 1141 0 747 490 
Q 353 981 353 1791 
Q 353 2603 747 3093 
Q 1141 3584 1784 3584 
Q 2172 3584 2450 3431 
Q 2728 3278 2906 2969 
L 2906 3500 
L 3481 3500 
L 3481 434 
z
" transform="scale(0.015625)"/>
       <path id="DejaVuSans-20" transform="scale(0.015625)"/>
       <path id="DejaVuSans-66" d="M 2375 4863 
L 2375 4384 
L 1825 4384 
Q 1516 4384 1395 4259 
Q 1275 4134 1275 3809 
L 1275 3500 
L 2222 3500 
L 2222 3053 
L 1275 3053 
L 1275 0 
L 697 0 
L 697 3053 
L 147 3053 
L 147 3500 
L 697 3500 
L 697 3744 
Q 697 4328 969 4595 
Q 1241 4863 1831 4863 
L 2375 4863 
z
" transform="scale(0.015625)"/>
       <path id="DejaVuSans-72" d="M 2631 2963 
Q 2534 3019 2420 3045 
Q 2306 3072 2169 3072 
Q 1681 3072 1420 2755 
Q 1159 2438 1159 1844 
L 1159 0 
L 581 0 
L 581 3500 
L 1159 3500 
L 1159 2956 
Q 1341 3275 1631 3429 
Q 1922 3584 2338 3584 
Q 2397 3584 2469 3576 
Q 2541 3569 2628 3553 
L 2631 2963 
z
" transform="scale(0.015625)"/>
       <path id="DejaVuSans-6f" d="M 1959 3097 
Q 1497 3097 1228 2736 
Q 959 2375 959 1747 
Q 959 1119 1226 758 
Q 1494 397 1959 397 
Q 2419 397 2687 759 
Q 2956 1122 2956 1747 
Q 2956 2369 2687 2733 
Q 2419 3097 1959 3097 
z
M 1959 3584 
Q 2709 3584 3137 3096 
Q 3566 2609 3566 1747 
Q 3566 888 3137 398 
Q 2709 -91 1959 -91 
Q 1206 -91 779 398 
Q 353 888 353 1747 
Q 353 2609 779 3096 
Q 1206 3584 1959 3584 
z
" transform="scale(0.015625)"/>
       <path id="DejaVuSans-6d" d="M 3328 2828 
Q 3544 3216 3844 3400 
Q 4144 3584 4550 3584 
Q 5097 3584 5394 3201 
Q 5691 2819 5691 2113 
L 5691 0 
L 5113 0 
L 5113 2094 
Q 5113 2597 4934 2840 
Q 4756 3084 4391 3084 
Q 3944 3084 3684 2787 
Q 3425 2491 3425 1978 
L 3425 0 
L 2847 0 
L 2847 2094 
Q 2847 2600 2669 2842 
Q 2491 3084 2119 3084 
Q 1678 3084 1418 2786 
Q 1159 2488 1159 1978 
L 1159 0 
L 581 0 
L 581 3500 
L 1159 3500 
L 1159 2956 
Q 1356 3278 1631 3431 
Q 1906 3584 2284 3584 
Q 2666 3584 2933 3390 
Q 3200 3197 3328 2828 
z
" transform="scale(0.015625)"/>
       <path id="DejaVuSans-73" d="M 2834 3397 
L 2834 2853 
Q 2591 2978 2328 3040 
Q 2066 3103 1784 3103 
Q 1356 3103 1142 2972 
Q 928 2841 928 2578 
Q 928 2378 1081 2264 
Q 1234 2150 1697 2047 
L 1894 2003 
Q 2506 1872 2764 1633 
Q 3022 1394 3022 966 
Q 3022 478 2636 193 
Q 2250 -91 1575 -91 
Q 1294 -91 989 -36 
Q 684 19 347 128 
L 347 722 
Q 666 556 975 473 
Q 1284 391 1588 391 
Q 1994 391 2212 530 
Q 2431 669 2431 922 
Q 2431 1156 2273 1281 
Q 2116 1406 1581 1522 
L 1381 1569 
Q 847 1681 609 1914 
Q 372 2147 372 2553 
Q 372 3047 722 3315 
Q 1072 3584 1716 3584 
Q 2034 3584 2315 3537 
Q 2597 3491 2834 3397 
z
" transform="scale(0.015625)"/>
       <path id="DejaVuSans-61" d="M 2194 1759 
Q 1497 1759 1228 1600 
Q 959 1441 959 1056 
Q 959 750 1161 570 
Q 1363 391 1709 391 
Q 2188 391 2477 730 
Q 2766 1069 2766 1631 
L 2766 1759 
L 2194 1759 
z
M 3341 1997 
L 3341 0 
L 2766 0 
L 2766 531 
Q 2569 213 2275 61 
Q 1981 -91 1556 -91 
Q 1019 -91 701 211 
Q 384 513 384 1019 
Q 384 1609 779 1909 
Q 1175 2209 1959 2209 
L 2766 2209 
L 2766 2266 
Q 2766 2663 2505 2880 
Q 2244 3097 1772 3097 
Q 1472 3097 1187 3025 
Q 903 2953 641 2809 
L 641 3341 
Q 956 3463 1253 3523 
Q 1550 3584 1831 3584 
Q 2591 3584 2966 3190 
Q 3341 2797 3341 1997 
z
" transform="scale(0.015625)"/>
       <path id="DejaVuSans-63" d="M 3122 3366 
L 3122 2828 
Q 2878 2963 2633 3030 
Q 2388 3097 2138 3097 
Q 1578 3097 1268 2742 
Q 959 2388 959 1747 
Q 959 1106 1268 751 
Q 1578 397 2138 397 
Q 2388 397 2633 464 
Q 2878 531 3122 666 
L 3122 134 
Q 2881 22 2623 -34 
Q 2366 -91 2075 -91 
Q 1284 -91 818 406 
Q 353 903 353 1747 
Q 353 2603 823 3093 
Q 1294 3584 2113 3584 
Q 2378 3584 2631 3529 
Q 2884 3475 3122 3366 
z
" transform="scale(0.015625)"/>
       <path id="DejaVuSans-28" d="M 1984 4856 
Q 1566 4138 1362 3434 
Q 1159 2731 1159 2009 
Q 1159 1288 1364 580 
Q 1569 -128 1984 -844 
L 1484 -844 
Q 1016 -109 783 600 
Q 550 1309 550 2009 
Q 550 2706 781 3412 
Q 1013 4119 1484 4856 
L 1984 4856 
z
" transform="scale(0.015625)"/>
       <path id="DejaVuSans-6b" d="M 581 4863 
L 1159 4863 
L 1159 1991 
L 2875 3500 
L 3609 3500 
L 1753 1863 
L 3688 0 
L 2938 0 
L 1159 1709 
L 1159 0 
L 581 0 
L 581 4863 
z
" transform="scale(0.015625)"/>
       <path id="DejaVuSans-48" d="M 628 4666 
L 1259 4666 
L 1259 2753 
L 3553 2753 
L 3553 4666 
L 4184 4666 
L 4184 0 
L 3553 0 
L 3553 2222 
L 1259 2222 
L 1259 0 
L 628 0 
L 628 4666 
z
" transform="scale(0.015625)"/>
       <path id="DejaVuSans-7a" d="M 353 3500 
L 3084 3500 
L 3084 2975 
L 922 459 
L 3084 459 
L 3084 0 
L 275 0 
L 275 525 
L 2438 3041 
L 353 3041 
L 353 3500 
z
" transform="scale(0.015625)"/>
       <path id="DejaVuSans-29" d="M 513 4856 
L 1013 4856 
Q 1481 4119 1714 3412 
Q 1947 2706 1947 2009 
Q 1947 1309 1714 600 
Q 1481 -109 1013 -844 
L 513 -844 
Q 928 -128 1133 580 
Q 1338 1288 1338 2009 
Q 1338 2731 1133 3434 
Q 928 4138 513 4856 
z
" transform="scale(0.015625)"/>
      </defs>
      <use xlink:href="#DejaVuSans-44"/>
      <use xlink:href="#DejaVuSans-65" x="77.001953"/>
      <use xlink:href="#DejaVuSans-74" x="138.525391"/>
      <use xlink:href="#DejaVuSans-75" x="177.734375"/>
      <use xlink:href="#DejaVuSans-6e" x="241.113281"/>
      <use xlink:href="#DejaVuSans-69" x="304.492188"/>
      <use xlink:href="#DejaVuSans-6e" x="332.275391"/>
      <use xlink:href="#DejaVuSans-67" x="395.654297"/>
      <use xlink:href="#DejaVuSans-20" x="459.130859"/>
      <use xlink:href="#DejaVuSans-66" x="490.917969"/>
      <use xlink:href="#DejaVuSans-72" x="526.123047"/>
      <use xlink:href="#DejaVuSans-6f" x="564.986328"/>
      <use xlink:href="#DejaVuSans-6d" x="626.167969"/>
      <use xlink:href="#DejaVuSans-20" x="723.580078"/>
      <use xlink:href="#DejaVuSans-72" x="755.367188"/>
      <use xlink:href="#DejaVuSans-65" x="794.230469"/>
      <use xlink:href="#DejaVuSans-73" x="855.753906"/>
      <use xlink:href="#DejaVuSans-6f" x="907.853516"/>
      <use xlink:href="#DejaVuSans-6e" x="969.035156"/>
      <use xlink:href="#DejaVuSans-61" x="1032.414062"/>
      <use xlink:href="#DejaVuSans-6e" x="1093.693359"/>
      <use xlink:href="#DejaVuSans-63" x="1157.072266"/>
      <use xlink:href="#DejaVuSans-65" x="1212.052734"/>
      <use xlink:href="#DejaVuSans-20" x="1273.576172"/>
      <use xlink:href="#DejaVuSans-28" x="1305.363281"/>
      <use xlink:href="#DejaVuSans-6b" x="1344.376953"/>
      <use xlink:href="#DejaVuSans-48" x="1402.287109"/>
      <use xlink:href="#DejaVuSans-7a" x="1477.482422"/>
      <use xlink:href="#DejaVuSans-29" x="1529.972656"/>
     </g>
    </g>
   </g>
   <g id="matplotlib.axis_2">
    <g id="ytick_1">
     <g id="line2d_7">
      <path d="M 61.410938 273.312 
L 418.530938 273.312 
" clip-path="url(#peee9259259)" style="fill: none; stroke: #b0b0b0; stroke-width: 0.8; stroke-linecap: square"/>
     </g>
     <g id="line2d_8">
      <defs>
       <path id="m6f3f5b6aff" d="M 0 0 
L -3.5 0 
" style="stroke: #000000; stroke-width: 0.8"/>
      </defs>
      <g>
       <use xlink:href="#m6f3f5b6aff" x="61.410938" y="273.312" style="stroke: #000000; stroke-width: 0.8"/>
      </g>
     </g>
     <g id="text_5">
      <!-- 0.0 -->
      <g transform="translate(30.55625 279.010828) scale(0.15 -0.15)">
       <defs>
        <path id="DejaVuSans-2e" d="M 684 794 
L 1344 794 
L 1344 0 
L 684 0 
L 684 794 
z
" transform="scale(0.015625)"/>
       </defs>
       <use xlink:href="#DejaVuSans-30"/>
       <use xlink:href="#DejaVuSans-2e" x="63.623047"/>
       <use xlink:href="#DejaVuSans-30" x="95.410156"/>
      </g>
     </g>
    </g>
    <g id="ytick_2">
     <g id="line2d_9">
      <path d="M 61.410938 210.697412 
L 418.530938 210.697412 
" clip-path="url(#peee9259259)" style="fill: none; stroke: #b0b0b0; stroke-width: 0.8; stroke-linecap: square"/>
     </g>
     <g id="line2d_10">
      <g>
       <use xlink:href="#m6f3f5b6aff" x="61.410938" y="210.697412" style="stroke: #000000; stroke-width: 0.8"/>
      </g>
     </g>
     <g id="text_6">
      <!-- 0.2 -->
      <g transform="translate(30.55625 216.39624) scale(0.15 -0.15)">
       <use xlink:href="#DejaVuSans-30"/>
       <use xlink:href="#DejaVuSans-2e" x="63.623047"/>
       <use xlink:href="#DejaVuSans-32" x="95.410156"/>
      </g>
     </g>
    </g>
    <g id="ytick_3">
     <g id="line2d_11">
      <path d="M 61.410938 148.082824 
L 418.530938 148.082824 
" clip-path="url(#peee9259259)" style="fill: none; stroke: #b0b0b0; stroke-width: 0.8; stroke-linecap: square"/>
     </g>
     <g id="line2d_12">
      <g>
       <use xlink:href="#m6f3f5b6aff" x="61.410938" y="148.082824" style="stroke: #000000; stroke-width: 0.8"/>
      </g>
     </g>
     <g id="text_7">
      <!-- 0.4 -->
      <g transform="translate(30.55625 153.781652) scale(0.15 -0.15)">
       <defs>
        <path id="DejaVuSans-34" d="M 2419 4116 
L 825 1625 
L 2419 1625 
L 2419 4116 
z
M 2253 4666 
L 3047 4666 
L 3047 1625 
L 3713 1625 
L 3713 1100 
L 3047 1100 
L 3047 0 
L 2419 0 
L 2419 1100 
L 313 1100 
L 313 1709 
L 2253 4666 
z
" transform="scale(0.015625)"/>
       </defs>
       <use xlink:href="#DejaVuSans-30"/>
       <use xlink:href="#DejaVuSans-2e" x="63.623047"/>
       <use xlink:href="#DejaVuSans-34" x="95.410156"/>
      </g>
     </g>
    </g>
    <g id="ytick_4">
     <g id="line2d_13">
      <path d="M 61.410938 85.468235 
L 418.530938 85.468235 
" clip-path="url(#peee9259259)" style="fill: none; stroke: #b0b0b0; stroke-width: 0.8; stroke-linecap: square"/>
     </g>
     <g id="line2d_14">
      <g>
       <use xlink:href="#m6f3f5b6aff" x="61.410938" y="85.468235" style="stroke: #000000; stroke-width: 0.8"/>
      </g>
     </g>
     <g id="text_8">
      <!-- 0.6 -->
      <g transform="translate(30.55625 91.167063) scale(0.15 -0.15)">
       <defs>
        <path id="DejaVuSans-36" d="M 2113 2584 
Q 1688 2584 1439 2293 
Q 1191 2003 1191 1497 
Q 1191 994 1439 701 
Q 1688 409 2113 409 
Q 2538 409 2786 701 
Q 3034 994 3034 1497 
Q 3034 2003 2786 2293 
Q 2538 2584 2113 2584 
z
M 3366 4563 
L 3366 3988 
Q 3128 4100 2886 4159 
Q 2644 4219 2406 4219 
Q 1781 4219 1451 3797 
Q 1122 3375 1075 2522 
Q 1259 2794 1537 2939 
Q 1816 3084 2150 3084 
Q 2853 3084 3261 2657 
Q 3669 2231 3669 1497 
Q 3669 778 3244 343 
Q 2819 -91 2113 -91 
Q 1303 -91 875 529 
Q 447 1150 447 2328 
Q 447 3434 972 4092 
Q 1497 4750 2381 4750 
Q 2619 4750 2861 4703 
Q 3103 4656 3366 4563 
z
" transform="scale(0.015625)"/>
       </defs>
       <use xlink:href="#DejaVuSans-30"/>
       <use xlink:href="#DejaVuSans-2e" x="63.623047"/>
       <use xlink:href="#DejaVuSans-36" x="95.410156"/>
      </g>
     </g>
    </g>
    <g id="ytick_5">
     <g id="line2d_15">
      <path d="M 61.410938 22.853647 
L 418.530938 22.853647 
" clip-path="url(#peee9259259)" style="fill: none; stroke: #b0b0b0; stroke-width: 0.8; stroke-linecap: square"/>
     </g>
     <g id="line2d_16">
      <g>
       <use xlink:href="#m6f3f5b6aff" x="61.410938" y="22.853647" style="stroke: #000000; stroke-width: 0.8"/>
      </g>
     </g>
     <g id="text_9">
      <!-- 0.8 -->
      <g transform="translate(30.55625 28.552475) scale(0.15 -0.15)">
       <defs>
        <path id="DejaVuSans-38" d="M 2034 2216 
Q 1584 2216 1326 1975 
Q 1069 1734 1069 1313 
Q 1069 891 1326 650 
Q 1584 409 2034 409 
Q 2484 409 2743 651 
Q 3003 894 3003 1313 
Q 3003 1734 2745 1975 
Q 2488 2216 2034 2216 
z
M 1403 2484 
Q 997 2584 770 2862 
Q 544 3141 544 3541 
Q 544 4100 942 4425 
Q 1341 4750 2034 4750 
Q 2731 4750 3128 4425 
Q 3525 4100 3525 3541 
Q 3525 3141 3298 2862 
Q 3072 2584 2669 2484 
Q 3125 2378 3379 2068 
Q 3634 1759 3634 1313 
Q 3634 634 3220 271 
Q 2806 -91 2034 -91 
Q 1263 -91 848 271 
Q 434 634 434 1313 
Q 434 1759 690 2068 
Q 947 2378 1403 2484 
z
M 1172 3481 
Q 1172 3119 1398 2916 
Q 1625 2713 2034 2713 
Q 2441 2713 2670 2916 
Q 2900 3119 2900 3481 
Q 2900 3844 2670 4047 
Q 2441 4250 2034 4250 
Q 1625 4250 1398 4047 
Q 1172 3844 1172 3481 
z
" transform="scale(0.015625)"/>
       </defs>
       <use xlink:href="#DejaVuSans-30"/>
       <use xlink:href="#DejaVuSans-2e" x="63.623047"/>
       <use xlink:href="#DejaVuSans-38" x="95.410156"/>
      </g>
     </g>
    </g>
    <g id="text_10">
     <!-- $P_{1}$ -->
     <g transform="translate(22.396875 151.056) rotate(-90) scale(0.2 -0.2)">
      <defs>
       <path id="DejaVuSans-Oblique-50" d="M 1081 4666 
L 2541 4666 
Q 3178 4666 3512 4369 
Q 3847 4072 3847 3500 
Q 3847 2731 3353 2303 
Q 2859 1875 1966 1875 
L 1172 1875 
L 806 0 
L 172 0 
L 1081 4666 
z
M 1613 4147 
L 1275 2394 
L 2069 2394 
Q 2606 2394 2893 2669 
Q 3181 2944 3181 3456 
Q 3181 3784 2986 3965 
Q 2791 4147 2438 4147 
L 1613 4147 
z
" transform="scale(0.015625)"/>
       <path id="DejaVuSans-31" d="M 794 531 
L 1825 531 
L 1825 4091 
L 703 3866 
L 703 4441 
L 1819 4666 
L 2450 4666 
L 2450 531 
L 3481 531 
L 3481 0 
L 794 0 
L 794 531 
z
" transform="scale(0.015625)"/>
      </defs>
      <use xlink:href="#DejaVuSans-Oblique-50" transform="translate(0 0.09375)"/>
      <use xlink:href="#DejaVuSans-31" transform="translate(60.302734 -16.3125) scale(0.7)"/>
     </g>
    </g>
   </g>
   <g id="LineCollection_1">
    <path d="M 92.40069 268.280033 
L 92.40069 262.742325 
" clip-path="url(#peee9259259)" style="fill: none; stroke: #1f77b4; stroke-width: 1.5"/>
    <path d="M 97.319698 264.776267 
L 97.319698 257.925216 
" clip-path="url(#peee9259259)" style="fill: none; stroke: #1f77b4; stroke-width: 1.5"/>
    <path d="M 102.238706 255.575504 
L 102.238706 246.32379 
" clip-path="url(#peee9259259)" style="fill: none; stroke: #1f77b4; stroke-width: 1.5"/>
    <path d="M 107.157714 260.231437 
L 107.157714 252.068952 
" clip-path="url(#peee9259259)" style="fill: none; stroke: #1f77b4; stroke-width: 1.5"/>
    <path d="M 112.076723 262.065677 
L 112.076723 254.395149 
" clip-path="url(#peee9259259)" style="fill: none; stroke: #1f77b4; stroke-width: 1.5"/>
    <path d="M 116.995731 270.762252 
L 116.995731 266.500764 
" clip-path="url(#peee9259259)" style="fill: none; stroke: #1f77b4; stroke-width: 1.5"/>
    <path d="M 121.914739 262.97522 
L 121.914739 255.565825 
" clip-path="url(#peee9259259)" style="fill: none; stroke: #1f77b4; stroke-width: 1.5"/>
    <path d="M 126.833747 269.955598 
L 126.833747 265.227198 
" clip-path="url(#peee9259259)" style="fill: none; stroke: #1f77b4; stroke-width: 1.5"/>
    <path d="M 131.752756 272.267261 
L 131.752756 269.156192 
" clip-path="url(#peee9259259)" style="fill: none; stroke: #1f77b4; stroke-width: 1.5"/>
    <path d="M 136.671764 269.955598 
L 136.671764 265.227198 
" clip-path="url(#peee9259259)" style="fill: none; stroke: #1f77b4; stroke-width: 1.5"/>
    <path d="M 141.590772 269.955598 
L 141.590772 265.227198 
" clip-path="url(#peee9259259)" style="fill: none; stroke: #1f77b4; stroke-width: 1.5"/>
    <path d="M 146.50978 262.065677 
L 146.50978 254.395149 
" clip-path="url(#peee9259259)" style="fill: none; stroke: #1f77b4; stroke-width: 1.5"/>
    <path d="M 151.428789 255.575504 
L 151.428789 246.32379 
" clip-path="url(#peee9259259)" style="fill: none; stroke: #1f77b4; stroke-width: 1.5"/>
    <path d="M 156.347797 243.162678 
L 156.347797 231.693771 
" clip-path="url(#peee9259259)" style="fill: none; stroke: #1f77b4; stroke-width: 1.5"/>
    <path d="M 161.266805 245.093808 
L 161.266805 233.923078 
" clip-path="url(#peee9259259)" style="fill: none; stroke: #1f77b4; stroke-width: 1.5"/>
    <path d="M 166.185814 246.056879 
L 166.185814 235.040226 
" clip-path="url(#peee9259259)" style="fill: none; stroke: #1f77b4; stroke-width: 1.5"/>
    <path d="M 171.104822 241.225314 
L 171.104822 229.470697 
" clip-path="url(#peee9259259)" style="fill: none; stroke: #1f77b4; stroke-width: 1.5"/>
    <path d="M 176.02383 252.744317 
L 176.02383 242.91432 
" clip-path="url(#peee9259259)" style="fill: none; stroke: #1f77b4; stroke-width: 1.5"/>
    <path d="M 180.942838 251.795439 
L 180.942838 241.782979 
" clip-path="url(#peee9259259)" style="fill: none; stroke: #1f77b4; stroke-width: 1.5"/>
    <path d="M 185.861847 262.97522 
L 185.861847 255.565825 
" clip-path="url(#peee9259259)" style="fill: none; stroke: #1f77b4; stroke-width: 1.5"/>
    <path d="M 190.780855 266.54782 
L 190.780855 260.314101 
" clip-path="url(#peee9259259)" style="fill: none; stroke: #1f77b4; stroke-width: 1.5"/>
    <path d="M 195.699863 267.419678 
L 195.699863 261.522462 
" clip-path="url(#peee9259259)" style="fill: none; stroke: #1f77b4; stroke-width: 1.5"/>
    <path d="M 200.618871 261.150922 
L 200.618871 253.229685 
" clip-path="url(#peee9259259)" style="fill: none; stroke: #1f77b4; stroke-width: 1.5"/>
    <path d="M 205.53788 240.254436 
L 205.53788 228.361356 
" clip-path="url(#peee9259259)" style="fill: none; stroke: #1f77b4; stroke-width: 1.5"/>
    <path d="M 210.456888 205.61562 
L 210.456888 190.192512 
" clip-path="url(#peee9259259)" style="fill: none; stroke: #1f77b4; stroke-width: 1.5"/>
    <path d="M 215.375896 173.20992 
L 215.375896 156.031207 
" clip-path="url(#peee9259259)" style="fill: none; stroke: #1f77b4; stroke-width: 1.5"/>
    <path d="M 220.294904 132.031601 
L 220.294904 114.000771 
" clip-path="url(#peee9259259)" style="fill: none; stroke: #1f77b4; stroke-width: 1.5"/>
    <path d="M 225.213913 102.818489 
L 225.213913 84.967754 
" clip-path="url(#peee9259259)" style="fill: none; stroke: #1f77b4; stroke-width: 1.5"/>
    <path d="M 230.132921 54.093767 
L 230.132921 38.002408 
" clip-path="url(#peee9259259)" style="fill: none; stroke: #1f77b4; stroke-width: 1.5"/>
    <path d="M 235.051929 32.559034 
L 235.051929 17.932763 
" clip-path="url(#peee9259259)" style="fill: none; stroke: #1f77b4; stroke-width: 1.5"/>
    <path d="M 239.970938 26.043999 
L 239.970938 11.966485 
" clip-path="url(#peee9259259)" style="fill: none; stroke: #1f77b4; stroke-width: 1.5"/>
    <path d="M 244.889946 33.642163 
L 244.889946 18.929853 
" clip-path="url(#peee9259259)" style="fill: none; stroke: #1f77b4; stroke-width: 1.5"/>
    <path d="M 249.808954 50.87944 
L 249.808954 34.976079 
" clip-path="url(#peee9259259)" style="fill: none; stroke: #1f77b4; stroke-width: 1.5"/>
    <path d="M 254.727962 90.200374 
L 254.727962 72.623243 
" clip-path="url(#peee9259259)" style="fill: none; stroke: #1f77b4; stroke-width: 1.5"/>
    <path d="M 259.646971 143.422063 
L 259.646971 125.492716 
" clip-path="url(#peee9259259)" style="fill: none; stroke: #1f77b4; stroke-width: 1.5"/>
    <path d="M 264.565979 176.270212 
L 264.565979 159.211572 
" clip-path="url(#peee9259259)" style="fill: none; stroke: #1f77b4; stroke-width: 1.5"/>
    <path d="M 269.484987 213.623378 
L 269.484987 198.826504 
" clip-path="url(#peee9259259)" style="fill: none; stroke: #1f77b4; stroke-width: 1.5"/>
    <path d="M 274.403995 226.533427 
L 274.403995 212.959301 
" clip-path="url(#peee9259259)" style="fill: none; stroke: #1f77b4; stroke-width: 1.5"/>
    <path d="M 279.323004 259.307628 
L 279.323004 250.912542 
" clip-path="url(#peee9259259)" style="fill: none; stroke: #1f77b4; stroke-width: 1.5"/>
    <path d="M 284.242012 269.955598 
L 284.242012 265.227198 
" clip-path="url(#peee9259259)" style="fill: none; stroke: #1f77b4; stroke-width: 1.5"/>
    <path d="M 289.16102 266.54782 
L 289.16102 260.314101 
" clip-path="url(#peee9259259)" style="fill: none; stroke: #1f77b4; stroke-width: 1.5"/>
    <path d="M 294.080028 269.126479 
L 294.080028 263.976099 
" clip-path="url(#peee9259259)" style="fill: none; stroke: #1f77b4; stroke-width: 1.5"/>
    <path d="M 298.999037 253.690722 
L 298.999037 244.048135 
" clip-path="url(#peee9259259)" style="fill: none; stroke: #1f77b4; stroke-width: 1.5"/>
    <path d="M 303.918045 245.093808 
L 303.918045 233.923078 
" clip-path="url(#peee9259259)" style="fill: none; stroke: #1f77b4; stroke-width: 1.5"/>
    <path d="M 308.837053 249.890782 
L 308.837053 239.527199 
" clip-path="url(#peee9259259)" style="fill: none; stroke: #1f77b4; stroke-width: 1.5"/>
    <path d="M 313.756061 243.162678 
L 313.756061 231.693771 
" clip-path="url(#peee9259259)" style="fill: none; stroke: #1f77b4; stroke-width: 1.5"/>
    <path d="M 318.67507 244.129052 
L 318.67507 232.807615 
" clip-path="url(#peee9259259)" style="fill: none; stroke: #1f77b4; stroke-width: 1.5"/>
    <path d="M 323.594078 258.379846 
L 323.594078 249.760105 
" clip-path="url(#peee9259259)" style="fill: none; stroke: #1f77b4; stroke-width: 1.5"/>
    <path d="M 328.513086 252.744317 
L 328.513086 242.91432 
" clip-path="url(#peee9259259)" style="fill: none; stroke: #1f77b4; stroke-width: 1.5"/>
    <path d="M 333.432095 265.666232 
L 333.432095 259.115469 
" clip-path="url(#peee9259259)" style="fill: none; stroke: #1f77b4; stroke-width: 1.5"/>
    <path d="M 338.351103 268.280033 
L 338.351103 262.742325 
" clip-path="url(#peee9259259)" style="fill: none; stroke: #1f77b4; stroke-width: 1.5"/>
    <path d="M 343.270111 269.126479 
L 343.270111 263.976099 
" clip-path="url(#peee9259259)" style="fill: none; stroke: #1f77b4; stroke-width: 1.5"/>
    <path d="M 348.189119 272.267261 
L 348.189119 269.156192 
" clip-path="url(#peee9259259)" style="fill: none; stroke: #1f77b4; stroke-width: 1.5"/>
    <path d="M 353.108128 268.280033 
L 353.108128 262.742325 
" clip-path="url(#peee9259259)" style="fill: none; stroke: #1f77b4; stroke-width: 1.5"/>
    <path d="M 358.027136 269.126479 
L 358.027136 263.976099 
" clip-path="url(#peee9259259)" style="fill: none; stroke: #1f77b4; stroke-width: 1.5"/>
    <path d="M 362.946144 262.97522 
L 362.946144 255.565825 
" clip-path="url(#peee9259259)" style="fill: none; stroke: #1f77b4; stroke-width: 1.5"/>
    <path d="M 367.865152 266.54782 
L 367.865152 260.314101 
" clip-path="url(#peee9259259)" style="fill: none; stroke: #1f77b4; stroke-width: 1.5"/>
    <path d="M 372.784161 262.97522 
L 372.784161 255.565825 
" clip-path="url(#peee9259259)" style="fill: none; stroke: #1f77b4; stroke-width: 1.5"/>
    <path d="M 377.703169 261.150922 
L 377.703169 253.229685 
" clip-path="url(#peee9259259)" style="fill: none; stroke: #1f77b4; stroke-width: 1.5"/>
    <path d="M 382.622177 266.54782 
L 382.622177 260.314101 
" clip-path="url(#peee9259259)" style="fill: none; stroke: #1f77b4; stroke-width: 1.5"/>
    <path d="M 387.541185 271.538027 
L 387.541185 267.805207 
" clip-path="url(#peee9259259)" style="fill: none; stroke: #1f77b4; stroke-width: 1.5"/>
   </g>
   <g id="line2d_17">
    <path d="M 77.643665 269.230202 
L 79.851536 269.180378 
L 82.026939 268.907856 
L 84.234811 268.403444 
L 86.540089 267.646004 
L 89.105116 266.564149 
L 92.319518 264.9521 
L 100.306818 260.836365 
L 102.741971 259.899856 
L 104.852437 259.319768 
L 106.800559 259.01027 
L 108.651275 258.936579 
L 110.501991 259.086468 
L 112.352707 259.459092 
L 114.300829 260.079968 
L 116.443763 261.004453 
L 118.943853 262.337859 
L 122.742691 264.655823 
L 126.736341 267.017139 
L 129.00915 268.104222 
L 130.892335 268.766855 
L 132.580708 269.129198 
L 134.139205 269.238596 
L 135.632766 269.120019 
L 137.093857 268.77862 
L 138.554949 268.205993 
L 140.048509 267.378705 
L 141.607007 266.258071 
L 143.295379 264.760173 
L 145.146095 262.80728 
L 147.256561 260.241098 
L 149.886525 256.670606 
L 157.711482 245.801679 
L 159.659605 243.607249 
L 161.315508 242.064211 
L 162.7766 240.996052 
L 164.107817 240.291525 
L 165.341627 239.885849 
L 166.510501 239.732771 
L 167.646905 239.806877 
L 168.78331 240.104518 
L 169.952183 240.64428 
L 171.185994 241.467327 
L 172.484742 242.605216 
L 173.913364 244.159355 
L 175.504331 246.226824 
L 177.387516 249.058978 
L 179.822668 253.158865 
L 185.667034 263.163078 
L 187.387876 265.58026 
L 188.78403 267.179309 
L 189.985372 268.23071 
L 191.02437 268.857996 
L 191.965962 269.173372 
L 192.842617 269.230657 
L 193.654335 269.065383 
L 194.466052 268.677116 
L 195.310239 268.023927 
L 196.219362 267.022044 
L 197.160955 265.643428 
L 198.167484 263.770655 
L 199.27142 261.225915 
L 200.440294 257.955909 
L 201.706573 253.731405 
L 203.070258 248.380092 
L 204.53135 241.725243 
L 206.122316 233.414037 
L 207.875626 223.019042 
L 209.79128 210.281805 
L 211.966683 194.267168 
L 214.53171 173.661136 
L 218.070798 143.248652 
L 224.369726 88.973872 
L 226.902285 69.246336 
L 228.947813 54.964972 
L 230.733592 44.004907 
L 232.29209 35.761228 
L 233.688244 29.526978 
L 234.922054 24.984793 
L 236.02599 21.726414 
L 237.000051 19.503742 
L 237.844238 18.082798 
L 238.591018 17.222359 
L 239.240392 16.779221 
L 239.824828 16.624073 
L 240.409265 16.70013 
L 240.993702 17.007231 
L 241.643076 17.61863 
L 242.357387 18.617771 
L 243.169105 20.164541 
L 244.078228 22.408935 
L 245.084758 25.511403 
L 246.221163 29.770586 
L 247.487442 35.421625 
L 248.916065 42.875285 
L 250.507031 52.41243 
L 252.325278 64.72708 
L 254.435744 80.606374 
L 257.065709 102.17906 
L 261.351577 139.497709 
L 265.864727 178.184416 
L 268.559629 199.409975 
L 270.799969 215.375263 
L 272.78056 227.957403 
L 274.566339 237.933582 
L 276.189774 245.80888 
L 277.715803 252.144477 
L 279.111957 257.027985 
L 280.410705 260.794028 
L 281.612047 263.624531 
L 282.715983 265.688453 
L 283.754981 267.178334 
L 284.696574 268.165399 
L 285.605697 268.806231 
L 286.449884 269.140641 
L 287.29407 269.238097 
L 288.138256 269.113177 
L 289.04738 268.74756 
L 290.021441 268.112105 
L 291.125377 267.118655 
L 292.391656 265.669064 
L 293.917685 263.56192 
L 295.833338 260.509502 
L 299.015271 254.943101 
L 302.424485 249.119105 
L 304.470013 246.05304 
L 306.190854 243.860343 
L 307.684414 242.300172 
L 309.0481 241.183363 
L 310.314379 240.424685 
L 311.515721 239.959987 
L 312.684594 239.748297 
L 313.820999 239.768049 
L 314.989872 240.015046 
L 316.191214 240.499282 
L 317.489962 241.270643 
L 318.886116 242.364267 
L 320.477083 243.9069 
L 322.29533 245.99383 
L 324.53567 248.921137 
L 328.139696 254.057519 
L 332.165815 259.68486 
L 334.53603 262.615905 
L 336.516621 264.723601 
L 338.3024 266.305808 
L 339.925835 267.457121 
L 341.484332 268.293543 
L 342.977893 268.845285 
L 344.438984 269.152122 
L 345.932545 269.237124 
L 347.458574 269.100603 
L 349.082009 268.730887 
L 350.867787 268.092849 
L 352.945784 267.105894 
L 355.640686 265.561645 
L 363.076019 261.166406 
L 365.381297 260.1436 
L 367.426825 259.477468 
L 369.342478 259.087198 
L 371.193194 258.936684 
L 373.04391 259.009761 
L 374.959564 259.31165 
L 377.005092 259.866293 
L 379.277901 260.722634 
L 382.005272 262.001431 
L 386.55089 264.427467 
L 390.706884 266.546698 
L 393.434255 267.692582 
L 395.836939 268.46432 
L 398.077279 268.951366 
L 400.252682 269.197621 
L 402.29821 269.227479 
L 402.29821 269.227479 
" clip-path="url(#peee9259259)" style="fill: none; stroke: #1f77b4; stroke-width: 1.5; stroke-linecap: square"/>
   </g>
   <g id="line2d_18">
    <defs>
     <path id="mcceb8b8273" d="M 0 3 
C 0.795609 3 1.55874 2.683901 2.12132 2.12132 
C 2.683901 1.55874 3 0.795609 3 0 
C 3 -0.795609 2.683901 -1.55874 2.12132 -2.12132 
C 1.55874 -2.683901 0.795609 -3 0 -3 
C -0.795609 -3 -1.55874 -2.683901 -2.12132 -2.12132 
C -2.683901 -1.55874 -3 -0.795609 -3 0 
C -3 0.795609 -2.683901 1.55874 -2.12132 2.12132 
C -1.55874 2.683901 -0.795609 3 0 3 
z
" style="stroke: #1f77b4"/>
    </defs>
    <g clip-path="url(#peee9259259)">
     <use xlink:href="#mcceb8b8273" x="92.40069" y="265.511179" style="fill: #1f77b4; stroke: #1f77b4"/>
     <use xlink:href="#mcceb8b8273" x="97.319698" y="261.350741" style="fill: #1f77b4; stroke: #1f77b4"/>
     <use xlink:href="#mcceb8b8273" x="102.238706" y="250.949647" style="fill: #1f77b4; stroke: #1f77b4"/>
     <use xlink:href="#mcceb8b8273" x="107.157714" y="256.150194" style="fill: #1f77b4; stroke: #1f77b4"/>
     <use xlink:href="#mcceb8b8273" x="112.076723" y="258.230413" style="fill: #1f77b4; stroke: #1f77b4"/>
     <use xlink:href="#mcceb8b8273" x="116.995731" y="268.631508" style="fill: #1f77b4; stroke: #1f77b4"/>
     <use xlink:href="#mcceb8b8273" x="121.914739" y="259.270523" style="fill: #1f77b4; stroke: #1f77b4"/>
     <use xlink:href="#mcceb8b8273" x="126.833747" y="267.591398" style="fill: #1f77b4; stroke: #1f77b4"/>
     <use xlink:href="#mcceb8b8273" x="131.752756" y="270.711726" style="fill: #1f77b4; stroke: #1f77b4"/>
     <use xlink:href="#mcceb8b8273" x="136.671764" y="267.591398" style="fill: #1f77b4; stroke: #1f77b4"/>
     <use xlink:href="#mcceb8b8273" x="141.590772" y="267.591398" style="fill: #1f77b4; stroke: #1f77b4"/>
     <use xlink:href="#mcceb8b8273" x="146.50978" y="258.230413" style="fill: #1f77b4; stroke: #1f77b4"/>
     <use xlink:href="#mcceb8b8273" x="151.428789" y="250.949647" style="fill: #1f77b4; stroke: #1f77b4"/>
     <use xlink:href="#mcceb8b8273" x="156.347797" y="237.428224" style="fill: #1f77b4; stroke: #1f77b4"/>
     <use xlink:href="#mcceb8b8273" x="161.266805" y="239.508443" style="fill: #1f77b4; stroke: #1f77b4"/>
     <use xlink:href="#mcceb8b8273" x="166.185814" y="240.548553" style="fill: #1f77b4; stroke: #1f77b4"/>
     <use xlink:href="#mcceb8b8273" x="171.104822" y="235.348005" style="fill: #1f77b4; stroke: #1f77b4"/>
     <use xlink:href="#mcceb8b8273" x="176.02383" y="247.829319" style="fill: #1f77b4; stroke: #1f77b4"/>
     <use xlink:href="#mcceb8b8273" x="180.942838" y="246.789209" style="fill: #1f77b4; stroke: #1f77b4"/>
     <use xlink:href="#mcceb8b8273" x="185.861847" y="259.270523" style="fill: #1f77b4; stroke: #1f77b4"/>
     <use xlink:href="#mcceb8b8273" x="190.780855" y="263.43096" style="fill: #1f77b4; stroke: #1f77b4"/>
     <use xlink:href="#mcceb8b8273" x="195.699863" y="264.47107" style="fill: #1f77b4; stroke: #1f77b4"/>
     <use xlink:href="#mcceb8b8273" x="200.618871" y="257.190304" style="fill: #1f77b4; stroke: #1f77b4"/>
     <use xlink:href="#mcceb8b8273" x="205.53788" y="234.307896" style="fill: #1f77b4; stroke: #1f77b4"/>
     <use xlink:href="#mcceb8b8273" x="210.456888" y="197.904066" style="fill: #1f77b4; stroke: #1f77b4"/>
     <use xlink:href="#mcceb8b8273" x="215.375896" y="164.620564" style="fill: #1f77b4; stroke: #1f77b4"/>
     <use xlink:href="#mcceb8b8273" x="220.294904" y="123.016186" style="fill: #1f77b4; stroke: #1f77b4"/>
     <use xlink:href="#mcceb8b8273" x="225.213913" y="93.893122" style="fill: #1f77b4; stroke: #1f77b4"/>
     <use xlink:href="#mcceb8b8273" x="230.132921" y="46.048088" style="fill: #1f77b4; stroke: #1f77b4"/>
     <use xlink:href="#mcceb8b8273" x="235.051929" y="25.245899" style="fill: #1f77b4; stroke: #1f77b4"/>
     <use xlink:href="#mcceb8b8273" x="239.970938" y="19.005242" style="fill: #1f77b4; stroke: #1f77b4"/>
     <use xlink:href="#mcceb8b8273" x="244.889946" y="26.286008" style="fill: #1f77b4; stroke: #1f77b4"/>
     <use xlink:href="#mcceb8b8273" x="249.808954" y="42.927759" style="fill: #1f77b4; stroke: #1f77b4"/>
     <use xlink:href="#mcceb8b8273" x="254.727962" y="81.411808" style="fill: #1f77b4; stroke: #1f77b4"/>
     <use xlink:href="#mcceb8b8273" x="259.646971" y="134.45739" style="fill: #1f77b4; stroke: #1f77b4"/>
     <use xlink:href="#mcceb8b8273" x="264.565979" y="167.740892" style="fill: #1f77b4; stroke: #1f77b4"/>
     <use xlink:href="#mcceb8b8273" x="269.484987" y="206.224941" style="fill: #1f77b4; stroke: #1f77b4"/>
     <use xlink:href="#mcceb8b8273" x="274.403995" y="219.746364" style="fill: #1f77b4; stroke: #1f77b4"/>
     <use xlink:href="#mcceb8b8273" x="279.323004" y="255.110085" style="fill: #1f77b4; stroke: #1f77b4"/>
     <use xlink:href="#mcceb8b8273" x="284.242012" y="267.591398" style="fill: #1f77b4; stroke: #1f77b4"/>
     <use xlink:href="#mcceb8b8273" x="289.16102" y="263.43096" style="fill: #1f77b4; stroke: #1f77b4"/>
     <use xlink:href="#mcceb8b8273" x="294.080028" y="266.551289" style="fill: #1f77b4; stroke: #1f77b4"/>
     <use xlink:href="#mcceb8b8273" x="298.999037" y="248.869428" style="fill: #1f77b4; stroke: #1f77b4"/>
     <use xlink:href="#mcceb8b8273" x="303.918045" y="239.508443" style="fill: #1f77b4; stroke: #1f77b4"/>
     <use xlink:href="#mcceb8b8273" x="308.837053" y="244.70899" style="fill: #1f77b4; stroke: #1f77b4"/>
     <use xlink:href="#mcceb8b8273" x="313.756061" y="237.428224" style="fill: #1f77b4; stroke: #1f77b4"/>
     <use xlink:href="#mcceb8b8273" x="318.67507" y="238.468334" style="fill: #1f77b4; stroke: #1f77b4"/>
     <use xlink:href="#mcceb8b8273" x="323.594078" y="254.069975" style="fill: #1f77b4; stroke: #1f77b4"/>
     <use xlink:href="#mcceb8b8273" x="328.513086" y="247.829319" style="fill: #1f77b4; stroke: #1f77b4"/>
     <use xlink:href="#mcceb8b8273" x="333.432095" y="262.390851" style="fill: #1f77b4; stroke: #1f77b4"/>
     <use xlink:href="#mcceb8b8273" x="338.351103" y="265.511179" style="fill: #1f77b4; stroke: #1f77b4"/>
     <use xlink:href="#mcceb8b8273" x="343.270111" y="266.551289" style="fill: #1f77b4; stroke: #1f77b4"/>
     <use xlink:href="#mcceb8b8273" x="348.189119" y="270.711726" style="fill: #1f77b4; stroke: #1f77b4"/>
     <use xlink:href="#mcceb8b8273" x="353.108128" y="265.511179" style="fill: #1f77b4; stroke: #1f77b4"/>
     <use xlink:href="#mcceb8b8273" x="358.027136" y="266.551289" style="fill: #1f77b4; stroke: #1f77b4"/>
     <use xlink:href="#mcceb8b8273" x="362.946144" y="259.270523" style="fill: #1f77b4; stroke: #1f77b4"/>
     <use xlink:href="#mcceb8b8273" x="367.865152" y="263.43096" style="fill: #1f77b4; stroke: #1f77b4"/>
     <use xlink:href="#mcceb8b8273" x="372.784161" y="259.270523" style="fill: #1f77b4; stroke: #1f77b4"/>
     <use xlink:href="#mcceb8b8273" x="377.703169" y="257.190304" style="fill: #1f77b4; stroke: #1f77b4"/>
     <use xlink:href="#mcceb8b8273" x="382.622177" y="263.43096" style="fill: #1f77b4; stroke: #1f77b4"/>
     <use xlink:href="#mcceb8b8273" x="387.541185" y="269.671617" style="fill: #1f77b4; stroke: #1f77b4"/>
    </g>
   </g>
   <g id="patch_3">
    <path d="M 61.410938 273.312 
L 61.410938 7.2 
" style="fill: none; stroke: #000000; stroke-width: 0.8; stroke-linejoin: miter; stroke-linecap: square"/>
   </g>
   <g id="patch_4">
    <path d="M 418.530938 273.312 
L 418.530938 7.2 
" style="fill: none; stroke: #000000; stroke-width: 0.8; stroke-linejoin: miter; stroke-linecap: square"/>
   </g>
   <g id="patch_5">
    <path d="M 61.410938 273.312 
L 418.530938 273.312 
" style="fill: none; stroke: #000000; stroke-width: 0.8; stroke-linejoin: miter; stroke-linecap: square"/>
   </g>
   <g id="patch_6">
    <path d="M 61.410938 7.2 
L 418.530938 7.2 
" style="fill: none; stroke: #000000; stroke-width: 0.8; stroke-linejoin: miter; stroke-linecap: square"/>
   </g>
  </g>
 </g>
 <defs>
  <clipPath id="peee9259259">
   <rect x="61.410938" y="7.2" width="357.12" height="266.112"/>
  </clipPath>
 </defs>
</svg>
