<?xml version="1.0" encoding="utf-8" standalone="no"?>
<!DOCTYPE svg PUBLIC "-//W3C//DTD SVG 1.1//EN"
  "http://www.w3.org/Graphics/SVG/1.1/DTD/svg11.dtd">
<svg xmlns:xlink="http://www.w3.org/1999/xlink" width="425.730937pt" height="325.385437pt" viewBox="0 0 425.730937 325.385437" xmlns="http://www.w3.org/2000/svg" version="1.1">
 <defs>
  <style type="text/css">*{stroke-linejoin: round; stroke-linecap: butt}</style>
 </defs>
 <g id="figure_1">
  <g id="patch_1">
   <path d="M 0 325.385437 
L 425.730937 325.385437 
L 425.730937 0 
L 0 0 
L 0 325.385437 
z
" style="fill: none"/>
  </g>
  <g id="axes_1">
   <g id="patch_2">
    <path d="M 61.410938 273.312 
L 418.530938 273.312 
L 418.530938 7.2 
L 61.410938 7.2 
L 61.410938 273.312 
z
" style="fill: none"/>
   </g>
   <g id="matplotlib.axis_1">
    <g id="xtick_1">
     <g id="line2d_1">
      <path d="M 141.53325 273.312 
L 141.53325 7.2 
" clip-path="url(#peee9259259)" style="fill: none; stroke: #b0b0b0; stroke-width: 0.8; stroke-linecap: square"/>
     </g>
     <g id="line2d_2">
      <defs>
       <path id="md39032bed2" d="M 0 0 
L 0 3.5 
" style="stroke: #000000; stroke-width: 0.8"/>
      </defs>
      <g>
       <use xlink:href="#md39032bed2" x="141.53325" y="273.312" style="stroke: #000000; stroke-width: 0.8"/>
      </g>
     </g>
     <g id="text_1">
      <!-- −20 -->
      <g transform="translate(125.704734 291.709656) scale(0.15 -0.15)">
       <defs>
        <path id="DejaVuSans-2212" d="M 678 2272 
L 4684 2272 
L 4684 1741 
L 678 1741 
L 678 2272 
z
" transform="scale(0.015625)"/>
        <path id="DejaVuSans-32" d="M 1228 531 
L 3431 531 
L 3431 0 
L 469 0 
L 469 531 
Q 828 903 1448 1529 
Q 2069 2156 2228 2338 
Q 2531 2678 2651 2914 
Q 2772 3150 2772 3378 
Q 2772 3750 2511 3984 
Q 2250 4219 1831 4219 
Q 1534 4219 1204 4116 
Q 875 4013 500 3803 
L 500 4441 
Q 881 4594 1212 4672 
Q 1544 4750 1819 4750 
Q 2544 4750 2975 4387 
Q 3406 4025 3406 3419 
Q 3406 3131 3298 2873 
Q 3191 2616 2906 2266 
Q 2828 2175 2409 1742 
Q 1991 1309 1228 531 
z
" transform="scale(0.015625)"/>
        <path id="DejaVuSans-30" d="M 2034 4250 
Q 1547 4250 1301 3770 
Q 1056 3291 1056 2328 
Q 1056 1369 1301 889 
Q 1547 409 2034 409 
Q 2525 409 2770 889 
Q 3016 1369 3016 2328 
Q 3016 3291 2770 3770 
Q 2525 4250 2034 4250 
z
M 2034 4750 
Q 2819 4750 3233 4129 
Q 3647 3509 3647 2328 
Q 3647 1150 3233 529 
Q 2819 -91 2034 -91 
Q 1250 -91 836 529 
Q 422 1150 422 2328 
Q 422 3509 836 4129 
Q 1250 4750 2034 4750 
z
" transform="scale(0.015625)"/>
       </defs>
       <use xlink:href="#DejaVuSans-2212"/>
       <use xlink:href="#DejaVuSans-32" x="83.789062"/>
       <use xlink:href="#DejaVuSans-30" x="147.412109"/>
      </g>
     </g>
    </g>
    <g id="xtick_2">
     <g id="line2d_3">
      <path d="M 239.913415 273.312 
L 239.913415 7.2 
" clip-path="url(#peee9259259)" style="fill: none; stroke: #b0b0b0; stroke-width: 0.8; stroke-linecap: square"/>
     </g>
     <g id="line2d_4">
      <g>
       <use xlink:href="#md39032bed2" x="239.913415" y="273.312" style="stroke: #000000; stroke-width: 0.8"/>
      </g>
     </g>
     <g id="text_2">
      <!-- 0 -->
      <g transform="translate(235.14154 291.709656) scale(0.15 -0.15)">
       <use xlink:href="#DejaVuSans-30"/>
      </g>
     </g>
    </g>
    <g id="xtick_3">
     <g id="line2d_5">
      <path d="M 338.293581 273.312 
L 338.293581 7.2 
" clip-path="url(#peee9259259)" style="fill: none; stroke: #b0b0b0; stroke-width: 0.8; stroke-linecap: square"/>
     </g>
     <g id="line2d_6">
      <g>
       <use xlink:href="#md39032bed2" x="338.293581" y="273.312" style="stroke: #000000; stroke-width: 0.8"/>
      </g>
     </g>
     <g id="text_3">
      <!-- 20 -->
      <g transform="translate(328.749831 291.709656) scale(0.15 -0.15)">
       <use xlink:href="#DejaVuSans-32"/>
       <use xlink:href="#DejaVuSans-30" x="63.623047"/>
      </g>
     </g>
    </g>
    <g id="text_4">
     <!-- Detuning from resonance (kHz) -->
     <g transform="translate(83.074063 314.026062) scale(0.2 -0.2)">
      <defs>
       <path id="DejaVuSans-44" d="M 1259 4147 
L 1259 519 
L 2022 519 
Q 2988 519 3436 956 
Q 3884 1394 3884 2338 
Q 3884 3275 3436 3711 
Q 2988 4147 2022 4147 
L 1259 4147 
z
M 628 4666 
L 1925 4666 
Q 3281 4666 3915 4102 
Q 4550 3538 4550 2338 
Q 4550 1131 3912 565 
Q 3275 0 1925 0 
L 628 0 
L 628 4666 
z
" transform="scale(0.015625)"/>
       <path id="DejaVuSans-65" d="M 3597 1894 
L 3597 1613 
L 953 1613 
Q 991 1019 1311 708 
Q 1631 397 2203 397 
Q 2534 397 2845 478 
Q 3156 559 3463 722 
L 3463 178 
Q 3153 47 2828 -22 
Q 2503 -91 2169 -91 
Q 1331 -91 842 396 
Q 353 884 353 1716 
Q 353 2575 817 3079 
Q 1281 3584 2069 3584 
Q 2775 3584 3186 3129 
Q 3597 2675 3597 1894 
z
M 3022 2063 
Q 3016 2534 2758 2815 
Q 2500 3097 2075 3097 
Q 1594 3097 1305 2825 
Q 1016 2553 972 2059 
L 3022 2063 
z
" transform="scale(0.015625)"/>
       <path id="DejaVuSans-74" d="M 1172 4494 
L 1172 3500 
L 2356 3500 
L 2356 3053 
L 1172 3053 
L 1172 1153 
Q 1172 725 1289 603 
Q 1406 481 1766 481 
L 2356 481 
L 2356 0 
L 1766 0 
Q 1100 0 847 248 
Q 594 497 594 1153 
L 594 3053 
L 172 3053 
L 172 3500 
L 594 3500 
L 594 4494 
L 1172 4494 
z
" transform="scale(0.015625)"/>
       <path id="DejaVuSans-75" d="M 544 1381 
L 544 3500 
L 1119 3500 
L 1119 1403 
Q 1119 906 1312 657 
Q 1506 409 1894 409 
Q 2359 409 2629 706 
Q 2900 1003 2900 1516 
L 2900 3500 
L 3475 3500 
L 3475 0 
L 2900 0 
L 2900 538 
Q 2691 219 2414 64 
Q 2138 -91 1772 -91 
Q 1169 -91 856 284 
Q 544 659 544 1381 
z
M 1991 3584 
L 1991 3584 
z
" transform="scale(0.015625)"/>
       <path id="DejaVuSans-6e" d="M 3513 2113 
L 3513 0 
L 2938 0 
L 2938 2094 
Q 2938 2591 2744 2837 
Q 2550 3084 2163 3084 
Q 1697 3084 1428 2787 
Q 1159 2491 1159 1978 
L 1159 0 
L 581 0 
L 581 3500 
L 1159 3500 
L 1159 2956 
Q 1366 3272 1645 3428 
Q 1925 3584 2291 3584 
Q 2894 3584 3203 3211 
Q 3513 2838 3513 2113 
z
" transform="scale(0.015625)"/>
       <path id="DejaVuSans-69" d="M 603 3500 
L 1178 3500 
L 1178 0 
L 603 0 
L 603 3500 
z
M 603 4863 
L 1178 4863 
L 1178 4134 
L 603 4134 
L 603 4863 
z
" transform="scale(0.015625)"/>
       <path id="DejaVuSans-67" d="M 2906 1791 
Q 2906 2416 2648 2759 
Q 2391 3103 1925 3103 
Q 1463 3103 1205 2759 
Q 947 2416 947 1791 
Q 947 1169 1205 825 
Q 1463 481 1925 481 
Q 2391 481 2648 825 
Q 2906 1169 2906 1791 
z
M 3481 434 
Q 3481 -459 3084 -895 
Q 2688 -1331 1869 -1331 
Q 1566 -1331 1297 -1286 
Q 1028 -1241 775 -1147 
L 775 -588 
Q 1028 -725 1275 -790 
Q 1522 -856 1778 -856 
Q 2344 -856 2625 -561 
Q 2906 -266 2906 331 
L 2906 616 
Q 2728 306 2450 153 
Q 2172 0 1784 0 
Q 1141 0 747 490 
Q 353 981 353 1791 
Q 353 2603 747 3093 
Q 1141 3584 1784 3584 
Q 2172 3584 2450 3431 
Q 2728 3278 2906 2969 
L 2906 3500 
L 3481 3500 
L 3481 434 
z
" transform="scale(0.015625)"/>
       <path id="DejaVuSans-20" transform="scale(0.015625)"/>
       <path id="DejaVuSans-66" d="M 2375 4863 
L 2375 4384 
L 1825 4384 
Q 1516 4384 1395 4259 
Q 1275 4134 1275 3809 
L 1275 3500 
L 2222 3500 
L 2222 3053 
L 1275 3053 
L 1275 0 
L 697 0 
L 697 3053 
L 147 3053 
L 147 3500 
L 697 3500 
L 697 3744 
Q 697 4328 969 4595 
Q 1241 4863 1831 4863 
L 2375 4863 
z
" transform="scale(0.015625)"/>
       <path id="DejaVuSans-72" d="M 2631 2963 
Q 2534 3019 2420 3045 
Q 2306 3072 2169 3072 
Q 1681 3072 1420 2755 
Q 1159 2438 1159 1844 
L 1159 0 
L 581 0 
L 581 3500 
L 1159 3500 
L 1159 2956 
Q 1341 3275 1631 3429 
Q 1922 3584 2338 3584 
Q 2397 3584 2469 3576 
Q 2541 3569 2628 3553 
L 2631 2963 
z
" transform="scale(0.015625)"/>
       <path id="DejaVuSans-6f" d="M 1959 3097 
Q 1497 3097 1228 2736 
Q 959 2375 959 1747 
Q 959 1119 1226 758 
Q 1494 397 1959 397 
Q 2419 397 2687 759 
Q 2956 1122 2956 1747 
Q 2956 2369 2687 2733 
Q 2419 3097 1959 3097 
z
M 1959 3584 
Q 2709 3584 3137 3096 
Q 3566 2609 3566 1747 
Q 3566 888 3137 398 
Q 2709 -91 1959 -91 
Q 1206 -91 779 398 
Q 353 888 353 1747 
Q 353 2609 779 3096 
Q 1206 3584 1959 3584 
z
" transform="scale(0.015625)"/>
       <path id="DejaVuSans-6d" d="M 3328 2828 
Q 3544 3216 3844 3400 
Q 4144 3584 4550 3584 
Q 5097 3584 5394 3201 
Q 5691 2819 5691 2113 
L 5691 0 
L 5113 0 
L 5113 2094 
Q 5113 2597 4934 2840 
Q 4756 3084 4391 3084 
Q 3944 3084 3684 2787 
Q 3425 2491 3425 1978 
L 3425 0 
L 2847 0 
L 2847 2094 
Q 2847 2600 2669 2842 
Q 2491 3084 2119 3084 
Q 1678 3084 1418 2786 
Q 1159 2488 1159 1978 
L 1159 0 
L 581 0 
L 581 3500 
L 1159 3500 
L 1159 2956 
Q 1356 3278 1631 3431 
Q 1906 3584 2284 3584 
Q 2666 3584 2933 3390 
Q 3200 3197 3328 2828 
z
" transform="scale(0.015625)"/>
       <path id="DejaVuSans-73" d="M 2834 3397 
L 2834 2853 
Q 2591 2978 2328 3040 
Q 2066 3103 1784 3103 
Q 1356 3103 1142 2972 
Q 928 2841 928 2578 
Q 928 2378 1081 2264 
Q 1234 2150 1697 2047 
L 1894 2003 
Q 2506 1872 2764 1633 
Q 3022 1394 3022 966 
Q 3022 478 2636 193 
Q 2250 -91 1575 -91 
Q 1294 -91 989 -36 
Q 684 19 347 128 
L 347 722 
Q 666 556 975 473 
Q 1284 391 1588 391 
Q 1994 391 2212 530 
Q 2431 669 2431 922 
Q 2431 1156 2273 1281 
Q 2116 1406 1581 1522 
L 1381 1569 
Q 847 1681 609 1914 
Q 372 2147 372 2553 
Q 372 3047 722 3315 
Q 1072 3584 1716 3584 
Q 2034 3584 2315 3537 
Q 2597 3491 2834 3397 
z
" transform="scale(0.015625)"/>
       <path id="DejaVuSans-61" d="M 2194 1759 
Q 1497 1759 1228 1600 
Q 959 1441 959 1056 
Q 959 750 1161 570 
Q 1363 391 1709 391 
Q 2188 391 2477 730 
Q 2766 1069 2766 1631 
L 2766 1759 
L 2194 1759 
z
M 3341 1997 
L 3341 0 
L 2766 0 
L 2766 531 
Q 2569 213 2275 61 
Q 1981 -91 1556 -91 
Q 1019 -91 701 211 
Q 384 513 384 1019 
Q 384 1609 779 1909 
Q 1175 2209 1959 2209 
L 2766 2209 
L 2766 2266 
Q 2766 2663 2505 2880 
Q 2244 3097 1772 3097 
Q 1472 3097 1187 3025 
Q 903 2953 641 2809 
L 641 3341 
Q 956 3463 1253 3523 
Q 1550 3584 1831 3584 
Q 2591 3584 2966 3190 
Q 3341 2797 3341 1997 
z
" transform="scale(0.015625)"/>
       <path id="DejaVuSans-63" d="M 3122 3366 
L 3122 2828 
Q 2878 2963 2633 3030 
Q 2388 3097 2138 3097 
Q 1578 3097 1268 2742 
Q 959 2388 959 1747 
Q 959 1106 1268 751 
Q 1578 397 2138 397 
Q 2388 397 2633 464 
Q 2878 531 3122 666 
L 3122 134 
Q 2881 22 2623 -34 
Q 2366 -91 2075 -91 
Q 1284 -91 818 406 
Q 353 903 353 1747 
Q 353 2603 823 3093 
Q 1294 3584 2113 3584 
Q 2378 3584 2631 3529 
Q 2884 3475 3122 3366 
z
" transform="scale(0.015625)"/>
       <path id="DejaVuSans-28" d="M 1984 4856 
Q 1566 4138 1362 3434 
Q 1159 2731 1159 2009 
Q 1159 1288 1364 580 
Q 1569 -128 1984 -844 
L 1484 -844 
Q 1016 -109 783 600 
Q 550 1309 550 2009 
Q 550 2706 781 3412 
Q 1013 4119 1484 4856 
L 1984 4856 
z
" transform="scale(0.015625)"/>
       <path id="DejaVuSans-6b" d="M 581 4863 
L 1159 4863 
L 1159 1991 
L 2875 3500 
L 3609 3500 
L 1753 1863 
L 3688 0 
L 2938 0 
L 1159 1709 
L 1159 0 
L 581 0 
L 581 4863 
z
" transform="scale(0.015625)"/>
       <path id="DejaVuSans-48" d="M 628 4666 
L 1259 4666 
L 1259 2753 
L 3553 2753 
L 3553 4666 
L 4184 4666 
L 4184 0 
L 3553 0 
L 3553 2222 
L 1259 2222 
L 1259 0 
L 628 0 
L 628 4666 
z
" transform="scale(0.015625)"/>
       <path id="DejaVuSans-7a" d="M 353 3500 
L 3084 3500 
L 3084 2975 
L 922 459 
L 3084 459 
L 3084 0 
L 275 0 
L 275 525 
L 2438 3041 
L 353 3041 
L 353 3500 
z
" transform="scale(0.015625)"/>
       <path id="DejaVuSans-29" d="M 513 4856 
L 1013 4856 
Q 1481 4119 1714 3412 
Q 1947 2706 1947 2009 
Q 1947 1309 1714 600 
Q 1481 -109 1013 -844 
L 513 -844 
Q 928 -128 1133 580 
Q 1338 1288 1338 2009 
Q 1338 2731 1133 3434 
Q 928 4138 513 4856 
z
" transform="scale(0.015625)"/>
      </defs>
      <use xlink:href="#DejaVuSans-44"/>
      <use xlink:href="#DejaVuSans-65" x="77.001953"/>
      <use xlink:href="#DejaVuSans-74" x="138.525391"/>
      <use xlink:href="#DejaVuSans-75" x="177.734375"/>
      <use xlink:href="#DejaVuSans-6e" x="241.113281"/>
      <use xlink:href="#DejaVuSans-69" x="304.492188"/>
      <use xlink:href="#DejaVuSans-6e" x="332.275391"/>
      <use xlink:href="#DejaVuSans-67" x="395.654297"/>
      <use xlink:href="#DejaVuSans-20" x="459.130859"/>
      <use xlink:href="#DejaVuSans-66" x="490.917969"/>
      <use xlink:href="#DejaVuSans-72" x="526.123047"/>
      <use xlink:href="#DejaVuSans-6f" x="564.986328"/>
      <use xlink:href="#DejaVuSans-6d" x="626.167969"/>
      <use xlink:href="#DejaVuSans-20" x="723.580078"/>
      <use xlink:href="#DejaVuSans-72" x="755.367188"/>
      <use xlink:href="#DejaVuSans-65" x="794.230469"/>
      <use xlink:href="#DejaVuSans-73" x="855.753906"/>
      <use xlink:href="#DejaVuSans-6f" x="907.853516"/>
      <use xlink:href="#DejaVuSans-6e" x="969.035156"/>
      <use xlink:href="#DejaVuSans-61" x="1032.414062"/>
      <use xlink:href="#DejaVuSans-6e" x="1093.693359"/>
      <use xlink:href="#DejaVuSans-63" x="1157.072266"/>
      <use xlink:href="#DejaVuSans-65" x="1212.052734"/>
      <use xlink:href="#DejaVuSans-20" x="1273.576172"/>
      <use xlink:href="#DejaVuSans-28" x="1305.363281"/>
      <use xlink:href="#DejaVuSans-6b" x="1344.376953"/>
      <use xlink:href="#DejaVuSans-48" x="1402.287109"/>
      <use xlink:href="#DejaVuSans-7a" x="1477.482422"/>
      <use xlink:href="#DejaVuSans-29" x="1529.972656"/>
     </g>
    </g>
   </g>
   <g id="matplotlib.axis_2">
    <g id="ytick_1">
     <g id="line2d_7">
      <path d="M 61.410938 273.312 
L 418.530938 273.312 
" clip-path="url(#peee9259259)" style="fill: none; stroke: #b0b0b0; stroke-width: 0.8; stroke-linecap: square"/>
     </g>
     <g id="line2d_8">
      <defs>
       <path id="m6f3f5b6aff" d="M 0 0 
L -3.5 0 
" style="stroke: #000000; stroke-width: 0.8"/>
      </defs>
      <g>
       <use xlink:href="#m6f3f5b6aff" x="61.410938" y="273.312" style="stroke: #000000; stroke-width: 0.8"/>
      </g>
     </g>
     <g id="text_5">
      <!-- 0.0 -->
      <g transform="translate(30.55625 279.010828) scale(0.15 -0.15)">
       <defs>
        <path id="DejaVuSans-2e" d="M 684 794 
L 1344 794 
L 1344 0 
L 684 0 
L 684 794 
z
" transform="scale(0.015625)"/>
       </defs>
       <use xlink:href="#DejaVuSans-30"/>
       <use xlink:href="#DejaVuSans-2e" x="63.623047"/>
       <use xlink:href="#DejaVuSans-30" x="95.410156"/>
      </g>
     </g>
    </g>
    <g id="ytick_2">
     <g id="line2d_9">
      <path d="M 61.410938 214.176 
L 418.530938 214.176 
" clip-path="url(#peee9259259)" style="fill: none; stroke: #b0b0b0; stroke-width: 0.8; stroke-linecap: square"/>
     </g>
     <g id="line2d_10">
      <g>
       <use xlink:href="#m6f3f5b6aff" x="61.410938" y="214.176" style="stroke: #000000; stroke-width: 0.8"/>
      </g>
     </g>
     <g id="text_6">
      <!-- 0.2 -->
      <g transform="translate(30.55625 219.874828) scale(0.15 -0.15)">
       <use xlink:href="#DejaVuSans-30"/>
       <use xlink:href="#DejaVuSans-2e" x="63.623047"/>
       <use xlink:href="#DejaVuSans-32" x="95.410156"/>
      </g>
     </g>
    </g>
    <g id="ytick_3">
     <g id="line2d_11">
      <path d="M 61.410938 155.04 
L 418.530938 155.04 
" clip-path="url(#peee9259259)" style="fill: none; stroke: #b0b0b0; stroke-width: 0.8; stroke-linecap: square"/>
     </g>
     <g id="line2d_12">
      <g>
       <use xlink:href="#m6f3f5b6aff" x="61.410938" y="155.04" style="stroke: #000000; stroke-width: 0.8"/>
      </g>
     </g>
     <g id="text_7">
      <!-- 0.4 -->
      <g transform="translate(30.55625 160.738828) scale(0.15 -0.15)">
       <defs>
        <path id="DejaVuSans-34" d="M 2419 4116 
L 825 1625 
L 2419 1625 
L 2419 4116 
z
M 2253 4666 
L 3047 4666 
L 3047 1625 
L 3713 1625 
L 3713 1100 
L 3047 1100 
L 3047 0 
L 2419 0 
L 2419 1100 
L 313 1100 
L 313 1709 
L 2253 4666 
z
" transform="scale(0.015625)"/>
       </defs>
       <use xlink:href="#DejaVuSans-30"/>
       <use xlink:href="#DejaVuSans-2e" x="63.623047"/>
       <use xlink:href="#DejaVuSans-34" x="95.410156"/>
      </g>
     </g>
    </g>
    <g id="ytick_4">
     <g id="line2d_13">
      <path d="M 61.410938 95.904 
L 418.530938 95.904 
" clip-path="url(#peee9259259)" style="fill: none; stroke: #b0b0b0; stroke-width: 0.8; stroke-linecap: square"/>
     </g>
     <g id="line2d_14">
      <g>
       <use xlink:href="#m6f3f5b6aff" x="61.410938" y="95.904" style="stroke: #000000; stroke-width: 0.8"/>
      </g>
     </g>
     <g id="text_8">
      <!-- 0.6 -->
      <g transform="translate(30.55625 101.602828) scale(0.15 -0.15)">
       <defs>
        <path id="DejaVuSans-36" d="M 2113 2584 
Q 1688 2584 1439 2293 
Q 1191 2003 1191 1497 
Q 1191 994 1439 701 
Q 1688 409 2113 409 
Q 2538 409 2786 701 
Q 3034 994 3034 1497 
Q 3034 2003 2786 2293 
Q 2538 2584 2113 2584 
z
M 3366 4563 
L 3366 3988 
Q 3128 4100 2886 4159 
Q 2644 4219 2406 4219 
Q 1781 4219 1451 3797 
Q 1122 3375 1075 2522 
Q 1259 2794 1537 2939 
Q 1816 3084 2150 3084 
Q 2853 3084 3261 2657 
Q 3669 2231 3669 1497 
Q 3669 778 3244 343 
Q 2819 -91 2113 -91 
Q 1303 -91 875 529 
Q 447 1150 447 2328 
Q 447 3434 972 4092 
Q 1497 4750 2381 4750 
Q 2619 4750 2861 4703 
Q 3103 4656 3366 4563 
z
" transform="scale(0.015625)"/>
       </defs>
       <use xlink:href="#DejaVuSans-30"/>
       <use xlink:href="#DejaVuSans-2e" x="63.623047"/>
       <use xlink:href="#DejaVuSans-36" x="95.410156"/>
      </g>
     </g>
    </g>
    <g id="ytick_5">
     <g id="line2d_15">
      <path d="M 61.410938 36.768 
L 418.530938 36.768 
" clip-path="url(#peee9259259)" style="fill: none; stroke: #b0b0b0; stroke-width: 0.8; stroke-linecap: square"/>
     </g>
     <g id="line2d_16">
      <g>
       <use xlink:href="#m6f3f5b6aff" x="61.410938" y="36.768" style="stroke: #000000; stroke-width: 0.8"/>
      </g>
     </g>
     <g id="text_9">
      <!-- 0.8 -->
      <g transform="translate(30.55625 42.466828) scale(0.15 -0.15)">
       <defs>
        <path id="DejaVuSans-38" d="M 2034 2216 
Q 1584 2216 1326 1975 
Q 1069 1734 1069 1313 
Q 1069 891 1326 650 
Q 1584 409 2034 409 
Q 2484 409 2743 651 
Q 3003 894 3003 1313 
Q 3003 1734 2745 1975 
Q 2488 2216 2034 2216 
z
M 1403 2484 
Q 997 2584 770 2862 
Q 544 3141 544 3541 
Q 544 4100 942 4425 
Q 1341 4750 2034 4750 
Q 2731 4750 3128 4425 
Q 3525 4100 3525 3541 
Q 3525 3141 3298 2862 
Q 3072 2584 2669 2484 
Q 3125 2378 3379 2068 
Q 3634 1759 3634 1313 
Q 3634 634 3220 271 
Q 2806 -91 2034 -91 
Q 1263 -91 848 271 
Q 434 634 434 1313 
Q 434 1759 690 2068 
Q 947 2378 1403 2484 
z
M 1172 3481 
Q 1172 3119 1398 2916 
Q 1625 2713 2034 2713 
Q 2441 2713 2670 2916 
Q 2900 3119 2900 3481 
Q 2900 3844 2670 4047 
Q 2441 4250 2034 4250 
Q 1625 4250 1398 4047 
Q 1172 3844 1172 3481 
z
" transform="scale(0.015625)"/>
       </defs>
       <use xlink:href="#DejaVuSans-30"/>
       <use xlink:href="#DejaVuSans-2e" x="63.623047"/>
       <use xlink:href="#DejaVuSans-38" x="95.410156"/>
      </g>
     </g>
    </g>
    <g id="text_10">
     <!-- $P_{1}$ -->
     <g transform="translate(22.396875 151.056) rotate(-90) scale(0.2 -0.2)">
      <defs>
       <path id="DejaVuSans-Oblique-50" d="M 1081 4666 
L 2541 4666 
Q 3178 4666 3512 4369 
Q 3847 4072 3847 3500 
Q 3847 2731 3353 2303 
Q 2859 1875 1966 1875 
L 1172 1875 
L 806 0 
L 172 0 
L 1081 4666 
z
M 1613 4147 
L 1275 2394 
L 2069 2394 
Q 2606 2394 2893 2669 
Q 3181 2944 3181 3456 
Q 3181 3784 2986 3965 
Q 2791 4147 2438 4147 
L 1613 4147 
z
" transform="scale(0.015625)"/>
       <path id="DejaVuSans-31" d="M 794 531 
L 1825 531 
L 1825 4091 
L 703 3866 
L 703 4441 
L 1819 4666 
L 2450 4666 
L 2450 531 
L 3481 531 
L 3481 0 
L 794 0 
L 794 531 
z
" transform="scale(0.015625)"/>
      </defs>
      <use xlink:href="#DejaVuSans-Oblique-50" transform="translate(0 0.09375)"/>
      <use xlink:href="#DejaVuSans-31" transform="translate(60.302734 -16.3125) scale(0.7)"/>
     </g>
    </g>
   </g>
   <g id="LineCollection_1">
    <path d="M 92.40069 264.403037 
L 92.40069 257.662823 
" clip-path="url(#peee9259259)" style="fill: none; stroke: #1f77b4; stroke-width: 1.5"/>
    <path d="M 97.319698 258.329705 
L 97.319698 249.983598 
" clip-path="url(#peee9259259)" style="fill: none; stroke: #1f77b4; stroke-width: 1.5"/>
    <path d="M 102.238706 253.886966 
L 102.238706 244.60308 
" clip-path="url(#peee9259259)" style="fill: none; stroke: #1f77b4; stroke-width: 1.5"/>
    <path d="M 107.157714 256.560865 
L 107.157714 247.823135 
" clip-path="url(#peee9259259)" style="fill: none; stroke: #1f77b4; stroke-width: 1.5"/>
    <path d="M 112.076723 258.329705 
L 112.076723 249.983598 
" clip-path="url(#peee9259259)" style="fill: none; stroke: #1f77b4; stroke-width: 1.5"/>
    <path d="M 116.995731 266.923607 
L 116.995731 261.036206 
" clip-path="url(#peee9259259)" style="fill: none; stroke: #1f77b4; stroke-width: 1.5"/>
    <path d="M 121.914739 260.958135 
L 121.914739 253.249121 
" clip-path="url(#peee9259259)" style="fill: none; stroke: #1f77b4; stroke-width: 1.5"/>
    <path d="M 126.833747 264.403037 
L 126.833747 257.662823 
" clip-path="url(#peee9259259)" style="fill: none; stroke: #1f77b4; stroke-width: 1.5"/>
    <path d="M 131.752756 264.403037 
L 131.752756 257.662823 
" clip-path="url(#peee9259259)" style="fill: none; stroke: #1f77b4; stroke-width: 1.5"/>
    <path d="M 136.671764 266.090997 
L 136.671764 259.904166 
" clip-path="url(#peee9259259)" style="fill: none; stroke: #1f77b4; stroke-width: 1.5"/>
    <path d="M 141.590772 265.250474 
L 141.590772 258.780037 
" clip-path="url(#peee9259259)" style="fill: none; stroke: #1f77b4; stroke-width: 1.5"/>
    <path d="M 146.50978 259.20941 
L 146.50978 251.068544 
" clip-path="url(#peee9259259)" style="fill: none; stroke: #1f77b4; stroke-width: 1.5"/>
    <path d="M 151.428789 251.191961 
L 151.428789 241.404132 
" clip-path="url(#peee9259259)" style="fill: none; stroke: #1f77b4; stroke-width: 1.5"/>
    <path d="M 156.347797 235.63775 
L 156.347797 223.559273 
" clip-path="url(#peee9259259)" style="fill: none; stroke: #1f77b4; stroke-width: 1.5"/>
    <path d="M 161.266805 227.265195 
L 161.266805 214.249968 
" clip-path="url(#peee9259259)" style="fill: none; stroke: #1f77b4; stroke-width: 1.5"/>
    <path d="M 166.185814 233.78393 
L 166.185814 221.483791 
" clip-path="url(#peee9259259)" style="fill: none; stroke: #1f77b4; stroke-width: 1.5"/>
    <path d="M 171.104822 229.132236 
L 171.104822 216.312229 
" clip-path="url(#peee9259259)" style="fill: none; stroke: #1f77b4; stroke-width: 1.5"/>
    <path d="M 176.02383 240.253175 
L 176.02383 228.767104 
" clip-path="url(#peee9259259)" style="fill: none; stroke: #1f77b4; stroke-width: 1.5"/>
    <path d="M 180.942838 236.563084 
L 180.942838 224.59859 
" clip-path="url(#peee9259259)" style="fill: none; stroke: #1f77b4; stroke-width: 1.5"/>
    <path d="M 185.861847 252.092431 
L 185.861847 242.468313 
" clip-path="url(#peee9259259)" style="fill: none; stroke: #1f77b4; stroke-width: 1.5"/>
    <path d="M 190.780855 253.886966 
L 190.780855 244.60308 
" clip-path="url(#peee9259259)" style="fill: none; stroke: #1f77b4; stroke-width: 1.5"/>
    <path d="M 195.699863 258.329705 
L 195.699863 249.983598 
" clip-path="url(#peee9259259)" style="fill: none; stroke: #1f77b4; stroke-width: 1.5"/>
    <path d="M 200.618871 247.571052 
L 200.618871 237.166436 
" clip-path="url(#peee9259259)" style="fill: none; stroke: #1f77b4; stroke-width: 1.5"/>
    <path d="M 205.53788 228.199149 
L 205.53788 215.280665 
" clip-path="url(#peee9259259)" style="fill: none; stroke: #1f77b4; stroke-width: 1.5"/>
    <path d="M 210.456888 197.960698 
L 210.456888 182.650279 
" clip-path="url(#peee9259259)" style="fill: none; stroke: #1f77b4; stroke-width: 1.5"/>
    <path d="M 215.375896 170.076984 
L 215.375896 153.559109 
" clip-path="url(#peee9259259)" style="fill: none; stroke: #1f77b4; stroke-width: 1.5"/>
    <path d="M 220.294904 124.151206 
L 220.294904 107.146283 
" clip-path="url(#peee9259259)" style="fill: none; stroke: #1f77b4; stroke-width: 1.5"/>
    <path d="M 225.213913 101.36854 
L 225.213913 84.741972 
" clip-path="url(#peee9259259)" style="fill: none; stroke: #1f77b4; stroke-width: 1.5"/>
    <path d="M 230.132921 59.181377 
L 230.132921 44.413786 
" clip-path="url(#peee9259259)" style="fill: none; stroke: #1f77b4; stroke-width: 1.5"/>
    <path d="M 235.051929 42.861028 
L 235.051929 29.299716 
" clip-path="url(#peee9259259)" style="fill: none; stroke: #1f77b4; stroke-width: 1.5"/>
    <path d="M 239.970938 30.49643 
L 239.970938 18.0885 
" clip-path="url(#peee9259259)" style="fill: none; stroke: #1f77b4; stroke-width: 1.5"/>
    <path d="M 244.889946 40.808524 
L 244.889946 27.422918 
" clip-path="url(#peee9259259)" style="fill: none; stroke: #1f77b4; stroke-width: 1.5"/>
    <path d="M 249.808954 55.116662 
L 249.808954 40.619897 
" clip-path="url(#peee9259259)" style="fill: none; stroke: #1f77b4; stroke-width: 1.5"/>
    <path d="M 254.727962 94.392809 
L 254.727962 77.965145 
" clip-path="url(#peee9259259)" style="fill: none; stroke: #1f77b4; stroke-width: 1.5"/>
    <path d="M 259.646971 134.975493 
L 259.646971 117.933158 
" clip-path="url(#peee9259259)" style="fill: none; stroke: #1f77b4; stroke-width: 1.5"/>
    <path d="M 264.565979 170.076984 
L 264.565979 153.559109 
" clip-path="url(#peee9259259)" style="fill: none; stroke: #1f77b4; stroke-width: 1.5"/>
    <path d="M 269.484987 204.629756 
L 269.484987 189.733779 
" clip-path="url(#peee9259259)" style="fill: none; stroke: #1f77b4; stroke-width: 1.5"/>
    <path d="M 274.403995 215.052585 
L 274.403995 200.922113 
" clip-path="url(#peee9259259)" style="fill: none; stroke: #1f77b4; stroke-width: 1.5"/>
    <path d="M 279.323004 255.672144 
L 279.323004 246.747205 
" clip-path="url(#peee9259259)" style="fill: none; stroke: #1f77b4; stroke-width: 1.5"/>
    <path d="M 284.242012 258.329705 
L 284.242012 249.983598 
" clip-path="url(#peee9259259)" style="fill: none; stroke: #1f77b4; stroke-width: 1.5"/>
    <path d="M 289.16102 259.20941 
L 289.16102 251.068544 
" clip-path="url(#peee9259259)" style="fill: none; stroke: #1f77b4; stroke-width: 1.5"/>
    <path d="M 294.080028 257.446783 
L 294.080028 248.901868 
" clip-path="url(#peee9259259)" style="fill: none; stroke: #1f77b4; stroke-width: 1.5"/>
    <path d="M 298.999037 243.007908 
L 298.999037 231.906325 
" clip-path="url(#peee9259259)" style="fill: none; stroke: #1f77b4; stroke-width: 1.5"/>
    <path d="M 303.918045 237.487327 
L 303.918045 225.638998 
" clip-path="url(#peee9259259)" style="fill: none; stroke: #1f77b4; stroke-width: 1.5"/>
    <path d="M 308.837053 235.63775 
L 308.837053 223.559273 
" clip-path="url(#peee9259259)" style="fill: none; stroke: #1f77b4; stroke-width: 1.5"/>
    <path d="M 313.756061 234.711356 
L 313.756061 222.521016 
" clip-path="url(#peee9259259)" style="fill: none; stroke: #1f77b4; stroke-width: 1.5"/>
    <path d="M 318.67507 239.332408 
L 318.67507 227.72322 
" clip-path="url(#peee9259259)" style="fill: none; stroke: #1f77b4; stroke-width: 1.5"/>
    <path d="M 323.594078 251.191961 
L 323.594078 241.404132 
" clip-path="url(#peee9259259)" style="fill: none; stroke: #1f77b4; stroke-width: 1.5"/>
    <path d="M 328.513086 243.007908 
L 328.513086 231.906325 
" clip-path="url(#peee9259259)" style="fill: none; stroke: #1f77b4; stroke-width: 1.5"/>
    <path d="M 333.432095 259.20941 
L 333.432095 251.068544 
" clip-path="url(#peee9259259)" style="fill: none; stroke: #1f77b4; stroke-width: 1.5"/>
    <path d="M 338.351103 263.549486 
L 338.351103 256.551723 
" clip-path="url(#peee9259259)" style="fill: none; stroke: #1f77b4; stroke-width: 1.5"/>
    <path d="M 343.270111 261.826538 
L 343.270111 254.345369 
" clip-path="url(#peee9259259)" style="fill: none; stroke: #1f77b4; stroke-width: 1.5"/>
    <path d="M 348.189119 266.090997 
L 348.189119 259.904166 
" clip-path="url(#peee9259259)" style="fill: none; stroke: #1f77b4; stroke-width: 1.5"/>
    <path d="M 353.108128 258.329705 
L 353.108128 249.983598 
" clip-path="url(#peee9259259)" style="fill: none; stroke: #1f77b4; stroke-width: 1.5"/>
    <path d="M 358.027136 264.403037 
L 358.027136 257.662823 
" clip-path="url(#peee9259259)" style="fill: none; stroke: #1f77b4; stroke-width: 1.5"/>
    <path d="M 362.946144 257.446783 
L 362.946144 248.901868 
" clip-path="url(#peee9259259)" style="fill: none; stroke: #1f77b4; stroke-width: 1.5"/>
    <path d="M 367.865152 264.403037 
L 367.865152 257.662823 
" clip-path="url(#peee9259259)" style="fill: none; stroke: #1f77b4; stroke-width: 1.5"/>
    <path d="M 372.784161 256.560865 
L 372.784161 247.823135 
" clip-path="url(#peee9259259)" style="fill: none; stroke: #1f77b4; stroke-width: 1.5"/>
    <path d="M 377.703169 254.780793 
L 377.703169 245.673905 
" clip-path="url(#peee9259259)" style="fill: none; stroke: #1f77b4; stroke-width: 1.5"/>
    <path d="M 382.622177 260.958135 
L 382.622177 253.249121 
" clip-path="url(#peee9259259)" style="fill: none; stroke: #1f77b4; stroke-width: 1.5"/>
    <path d="M 387.541185 264.403037 
L 387.541185 257.662823 
" clip-path="url(#peee9259259)" style="fill: none; stroke: #1f77b4; stroke-width: 1.5"/>
   </g>
   <g id="line2d_17">
    <path d="M 77.643665 260.735582 
L 79.884005 260.692051 
L 82.059408 260.42916 
L 84.26728 259.938719 
L 86.605026 259.187855 
L 89.202522 258.11262 
L 92.449393 256.512452 
L 100.371756 252.504222 
L 102.839377 251.571802 
L 104.982311 250.996049 
L 106.962902 250.693289 
L 108.846087 250.629502 
L 110.696803 250.788138 
L 112.579987 251.173367 
L 114.560578 251.809063 
L 116.735981 252.748457 
L 119.301009 254.110606 
L 123.554409 256.672789 
L 127.061028 258.673159 
L 129.301369 259.702237 
L 131.184553 260.329619 
L 132.872926 260.661131 
L 134.431424 260.743932 
L 135.924984 260.602548 
L 137.386075 260.242249 
L 138.847167 259.654882 
L 140.373196 258.796704 
L 141.964162 257.640228 
L 143.685003 256.102977 
L 145.568188 254.110603 
L 147.743591 251.469476 
L 150.535899 247.702244 
L 157.354327 238.355342 
L 159.399855 236.009475 
L 161.120696 234.360037 
L 162.614256 233.220636 
L 163.977942 232.449397 
L 165.244221 231.983673 
L 166.445563 231.778003 
L 167.614436 231.806957 
L 168.750841 232.056096 
L 169.919714 232.540692 
L 171.153525 233.30051 
L 172.452273 234.367418 
L 173.880896 235.839881 
L 175.471862 237.814487 
L 177.322578 240.488545 
L 179.660325 244.290417 
L 186.28394 255.313746 
L 187.939843 257.508314 
L 189.303529 258.96462 
L 190.472402 259.903215 
L 191.511401 260.460598 
L 192.452993 260.715044 
L 193.329648 260.718724 
L 194.173834 260.494441 
L 195.01802 260.033044 
L 195.894675 259.289562 
L 196.803799 258.220559 
L 197.77786 256.724181 
L 198.816858 254.712828 
L 199.953263 252.006481 
L 201.154605 248.555867 
L 202.453353 244.132768 
L 203.849507 238.571104 
L 205.375536 231.544196 
L 207.03144 222.829538 
L 208.849687 212.021746 
L 210.862747 198.674829 
L 213.200493 181.612741 
L 216.090208 158.770775 
L 226.415255 75.501 
L 228.558189 60.905198 
L 230.376436 49.974645 
L 231.967403 41.687633 
L 233.396025 35.372735 
L 234.662305 30.732945 
L 235.798709 27.37479 
L 236.805239 25.059541 
L 237.681894 23.559526 
L 238.461143 22.636064 
L 239.142986 22.147414 
L 239.759891 21.963434 
L 240.344328 22.015772 
L 240.928764 22.288513 
L 241.578138 22.849338 
L 242.29245 23.777917 
L 243.104167 25.225767 
L 244.013291 27.336137 
L 245.019821 30.262299 
L 246.156225 34.28834 
L 247.422504 39.638914 
L 248.818659 46.533078 
L 250.409625 55.559216 
L 252.227872 67.229871 
L 254.338338 82.295201 
L 256.968303 102.77971 
L 261.221703 137.9664 
L 265.767321 174.99264 
L 268.462223 195.142704 
L 270.702563 210.283115 
L 272.683154 222.199066 
L 274.468933 231.630992 
L 276.092368 239.060912 
L 277.585928 244.9058 
L 278.982082 249.504499 
L 280.28083 253.038102 
L 281.482172 255.680977 
L 282.586108 257.595082 
L 283.625107 258.963099 
L 284.566699 259.855182 
L 285.475823 260.417697 
L 286.352477 260.696548 
L 287.196664 260.734481 
L 288.073319 260.549709 
L 289.014911 260.115605 
L 290.053909 259.37863 
L 291.222783 258.262249 
L 292.586468 256.631875 
L 294.209903 254.324365 
L 296.352838 250.860919 
L 303.431014 239.104154 
L 305.28173 236.623819 
L 306.872697 234.850179 
L 308.30132 233.578612 
L 309.600068 232.706156 
L 310.833878 232.137487 
L 312.002752 231.836454 
L 313.171625 231.766389 
L 314.340498 231.923379 
L 315.54184 232.313678 
L 316.808119 232.963913 
L 318.171805 233.91902 
L 319.697834 235.270111 
L 321.418675 237.100782 
L 323.496672 239.653081 
L 326.353918 243.550823 
L 332.360627 251.823485 
L 334.665905 254.566784 
L 336.614027 256.553162 
L 338.367337 258.035428 
L 339.990772 259.127173 
L 341.54927 259.911131 
L 343.04283 260.417915 
L 344.53639 260.690003 
L 346.029951 260.737596 
L 347.588448 260.564507 
L 349.276821 260.146276 
L 351.127537 259.452402 
L 353.30294 258.390828 
L 356.29006 256.662076 
L 362.264301 253.161668 
L 364.666985 252.044408 
L 366.777451 251.303397 
L 368.725573 250.852077 
L 370.608758 250.643672 
L 372.459474 250.660713 
L 374.375127 250.903361 
L 376.388186 251.386762 
L 378.596058 252.151016 
L 381.193554 253.295479 
L 384.894986 255.19636 
L 390.479603 258.046441 
L 393.271911 259.206263 
L 395.674595 259.969699 
L 397.914936 260.453956 
L 400.122807 260.703952 
L 402.29821 260.731812 
L 402.29821 260.731812 
" clip-path="url(#peee9259259)" style="fill: none; stroke: #1f77b4; stroke-width: 1.5; stroke-linecap: square"/>
   </g>
   <g id="line2d_18">
    <defs>
     <path id="mcceb8b8273" d="M 0 3 
C 0.795609 3 1.55874 2.683901 2.12132 2.12132 
C 2.683901 1.55874 3 0.795609 3 0 
C 3 -0.795609 2.683901 -1.55874 2.12132 -2.12132 
C 1.55874 -2.683901 0.795609 -3 0 -3 
C -0.795609 -3 -1.55874 -2.683901 -2.12132 -2.12132 
C -2.683901 -1.55874 -3 -0.795609 -3 0 
C -3 0.795609 -2.683901 1.55874 -2.12132 2.12132 
C -1.55874 2.683901 -0.795609 3 0 3 
z
" style="stroke: #1f77b4"/>
    </defs>
    <g clip-path="url(#peee9259259)">
     <use xlink:href="#mcceb8b8273" x="92.40069" y="261.03293" style="fill: #1f77b4; stroke: #1f77b4"/>
     <use xlink:href="#mcceb8b8273" x="97.319698" y="254.156651" style="fill: #1f77b4; stroke: #1f77b4"/>
     <use xlink:href="#mcceb8b8273" x="102.238706" y="249.245023" style="fill: #1f77b4; stroke: #1f77b4"/>
     <use xlink:href="#mcceb8b8273" x="107.157714" y="252.192" style="fill: #1f77b4; stroke: #1f77b4"/>
     <use xlink:href="#mcceb8b8273" x="112.076723" y="254.156651" style="fill: #1f77b4; stroke: #1f77b4"/>
     <use xlink:href="#mcceb8b8273" x="116.995731" y="263.979907" style="fill: #1f77b4; stroke: #1f77b4"/>
     <use xlink:href="#mcceb8b8273" x="121.914739" y="257.103628" style="fill: #1f77b4; stroke: #1f77b4"/>
     <use xlink:href="#mcceb8b8273" x="126.833747" y="261.03293" style="fill: #1f77b4; stroke: #1f77b4"/>
     <use xlink:href="#mcceb8b8273" x="131.752756" y="261.03293" style="fill: #1f77b4; stroke: #1f77b4"/>
     <use xlink:href="#mcceb8b8273" x="136.671764" y="262.997581" style="fill: #1f77b4; stroke: #1f77b4"/>
     <use xlink:href="#mcceb8b8273" x="141.590772" y="262.015256" style="fill: #1f77b4; stroke: #1f77b4"/>
     <use xlink:href="#mcceb8b8273" x="146.50978" y="255.138977" style="fill: #1f77b4; stroke: #1f77b4"/>
     <use xlink:href="#mcceb8b8273" x="151.428789" y="246.298047" style="fill: #1f77b4; stroke: #1f77b4"/>
     <use xlink:href="#mcceb8b8273" x="156.347797" y="229.598512" style="fill: #1f77b4; stroke: #1f77b4"/>
     <use xlink:href="#mcceb8b8273" x="161.266805" y="220.757581" style="fill: #1f77b4; stroke: #1f77b4"/>
     <use xlink:href="#mcceb8b8273" x="166.185814" y="227.63386" style="fill: #1f77b4; stroke: #1f77b4"/>
     <use xlink:href="#mcceb8b8273" x="171.104822" y="222.722233" style="fill: #1f77b4; stroke: #1f77b4"/>
     <use xlink:href="#mcceb8b8273" x="176.02383" y="234.51014" style="fill: #1f77b4; stroke: #1f77b4"/>
     <use xlink:href="#mcceb8b8273" x="180.942838" y="230.580837" style="fill: #1f77b4; stroke: #1f77b4"/>
     <use xlink:href="#mcceb8b8273" x="185.861847" y="247.280372" style="fill: #1f77b4; stroke: #1f77b4"/>
     <use xlink:href="#mcceb8b8273" x="190.780855" y="249.245023" style="fill: #1f77b4; stroke: #1f77b4"/>
     <use xlink:href="#mcceb8b8273" x="195.699863" y="254.156651" style="fill: #1f77b4; stroke: #1f77b4"/>
     <use xlink:href="#mcceb8b8273" x="200.618871" y="242.368744" style="fill: #1f77b4; stroke: #1f77b4"/>
     <use xlink:href="#mcceb8b8273" x="205.53788" y="221.739907" style="fill: #1f77b4; stroke: #1f77b4"/>
     <use xlink:href="#mcceb8b8273" x="210.456888" y="190.305488" style="fill: #1f77b4; stroke: #1f77b4"/>
     <use xlink:href="#mcceb8b8273" x="215.375896" y="161.818047" style="fill: #1f77b4; stroke: #1f77b4"/>
     <use xlink:href="#mcceb8b8273" x="220.294904" y="115.648744" style="fill: #1f77b4; stroke: #1f77b4"/>
     <use xlink:href="#mcceb8b8273" x="225.213913" y="93.055256" style="fill: #1f77b4; stroke: #1f77b4"/>
     <use xlink:href="#mcceb8b8273" x="230.132921" y="51.797581" style="fill: #1f77b4; stroke: #1f77b4"/>
     <use xlink:href="#mcceb8b8273" x="235.051929" y="36.080372" style="fill: #1f77b4; stroke: #1f77b4"/>
     <use xlink:href="#mcceb8b8273" x="239.970938" y="24.292465" style="fill: #1f77b4; stroke: #1f77b4"/>
     <use xlink:href="#mcceb8b8273" x="244.889946" y="34.115721" style="fill: #1f77b4; stroke: #1f77b4"/>
     <use xlink:href="#mcceb8b8273" x="249.808954" y="47.868279" style="fill: #1f77b4; stroke: #1f77b4"/>
     <use xlink:href="#mcceb8b8273" x="254.727962" y="86.178977" style="fill: #1f77b4; stroke: #1f77b4"/>
     <use xlink:href="#mcceb8b8273" x="259.646971" y="126.454326" style="fill: #1f77b4; stroke: #1f77b4"/>
     <use xlink:href="#mcceb8b8273" x="264.565979" y="161.818047" style="fill: #1f77b4; stroke: #1f77b4"/>
     <use xlink:href="#mcceb8b8273" x="269.484987" y="197.181767" style="fill: #1f77b4; stroke: #1f77b4"/>
     <use xlink:href="#mcceb8b8273" x="274.403995" y="207.987349" style="fill: #1f77b4; stroke: #1f77b4"/>
     <use xlink:href="#mcceb8b8273" x="279.323004" y="251.209674" style="fill: #1f77b4; stroke: #1f77b4"/>
     <use xlink:href="#mcceb8b8273" x="284.242012" y="254.156651" style="fill: #1f77b4; stroke: #1f77b4"/>
     <use xlink:href="#mcceb8b8273" x="289.16102" y="255.138977" style="fill: #1f77b4; stroke: #1f77b4"/>
     <use xlink:href="#mcceb8b8273" x="294.080028" y="253.174326" style="fill: #1f77b4; stroke: #1f77b4"/>
     <use xlink:href="#mcceb8b8273" x="298.999037" y="237.457116" style="fill: #1f77b4; stroke: #1f77b4"/>
     <use xlink:href="#mcceb8b8273" x="303.918045" y="231.563163" style="fill: #1f77b4; stroke: #1f77b4"/>
     <use xlink:href="#mcceb8b8273" x="308.837053" y="229.598512" style="fill: #1f77b4; stroke: #1f77b4"/>
     <use xlink:href="#mcceb8b8273" x="313.756061" y="228.616186" style="fill: #1f77b4; stroke: #1f77b4"/>
     <use xlink:href="#mcceb8b8273" x="318.67507" y="233.527814" style="fill: #1f77b4; stroke: #1f77b4"/>
     <use xlink:href="#mcceb8b8273" x="323.594078" y="246.298047" style="fill: #1f77b4; stroke: #1f77b4"/>
     <use xlink:href="#mcceb8b8273" x="328.513086" y="237.457116" style="fill: #1f77b4; stroke: #1f77b4"/>
     <use xlink:href="#mcceb8b8273" x="333.432095" y="255.138977" style="fill: #1f77b4; stroke: #1f77b4"/>
     <use xlink:href="#mcceb8b8273" x="338.351103" y="260.050605" style="fill: #1f77b4; stroke: #1f77b4"/>
     <use xlink:href="#mcceb8b8273" x="343.270111" y="258.085953" style="fill: #1f77b4; stroke: #1f77b4"/>
     <use xlink:href="#mcceb8b8273" x="348.189119" y="262.997581" style="fill: #1f77b4; stroke: #1f77b4"/>
     <use xlink:href="#mcceb8b8273" x="353.108128" y="254.156651" style="fill: #1f77b4; stroke: #1f77b4"/>
     <use xlink:href="#mcceb8b8273" x="358.027136" y="261.03293" style="fill: #1f77b4; stroke: #1f77b4"/>
     <use xlink:href="#mcceb8b8273" x="362.946144" y="253.174326" style="fill: #1f77b4; stroke: #1f77b4"/>
     <use xlink:href="#mcceb8b8273" x="367.865152" y="261.03293" style="fill: #1f77b4; stroke: #1f77b4"/>
     <use xlink:href="#mcceb8b8273" x="372.784161" y="252.192" style="fill: #1f77b4; stroke: #1f77b4"/>
     <use xlink:href="#mcceb8b8273" x="377.703169" y="250.227349" style="fill: #1f77b4; stroke: #1f77b4"/>
     <use xlink:href="#mcceb8b8273" x="382.622177" y="257.103628" style="fill: #1f77b4; stroke: #1f77b4"/>
     <use xlink:href="#mcceb8b8273" x="387.541185" y="261.03293" style="fill: #1f77b4; stroke: #1f77b4"/>
    </g>
   </g>
   <g id="patch_3">
    <path d="M 61.410938 273.312 
L 61.410938 7.2 
" style="fill: none; stroke: #000000; stroke-width: 0.8; stroke-linejoin: miter; stroke-linecap: square"/>
   </g>
   <g id="patch_4">
    <path d="M 418.530938 273.312 
L 418.530938 7.2 
" style="fill: none; stroke: #000000; stroke-width: 0.8; stroke-linejoin: miter; stroke-linecap: square"/>
   </g>
   <g id="patch_5">
    <path d="M 61.410937 273.312 
L 418.530938 273.312 
" style="fill: none; stroke: #000000; stroke-width: 0.8; stroke-linejoin: miter; stroke-linecap: square"/>
   </g>
   <g id="patch_6">
    <path d="M 61.410937 7.2 
L 418.530938 7.2 
" style="fill: none; stroke: #000000; stroke-width: 0.8; stroke-linejoin: miter; stroke-linecap: square"/>
   </g>
  </g>
 </g>
 <defs>
  <clipPath id="peee9259259">
   <rect x="61.410938" y="7.2" width="357.12" height="266.112"/>
  </clipPath>
 </defs>
</svg>
