<?xml version="1.0" encoding="utf-8" standalone="no"?>
<!DOCTYPE svg PUBLIC "-//W3C//DTD SVG 1.1//EN"
  "http://www.w3.org/Graphics/SVG/1.1/DTD/svg11.dtd">
<svg xmlns:xlink="http://www.w3.org/1999/xlink" width="414.682812pt" height="318.839591pt" viewBox="0 0 414.682812 318.839591" xmlns="http://www.w3.org/2000/svg" version="1.1">
 <defs>
  <style type="text/css">*{stroke-linejoin: round; stroke-linecap: butt}</style>
 </defs>
 <g id="figure_1">
  <g id="patch_1">
   <path d="M 0 318.839591 
L 414.682812 318.839591 
L 414.682812 0 
L 0 0 
L 0 318.839591 
z
" style="fill: none"/>
  </g>
  <g id="axes_1">
   <g id="patch_2">
    <path d="M 50.362813 273.540841 
L 407.482813 273.540841 
L 407.482813 7.428841 
L 50.362813 7.428841 
L 50.362813 273.540841 
z
" style="fill: none"/>
   </g>
   <g id="matplotlib.axis_1">
    <g id="xtick_1">
     <g id="line2d_1">
      <path d="M 66.59554 273.540841 
L 66.59554 7.428841 
" clip-path="url(#p3218fb7506)" style="fill: none; stroke: #b0b0b0; stroke-width: 0.8; stroke-linecap: square"/>
     </g>
     <g id="line2d_2">
      <defs>
       <path id="md39032bed2" d="M 0 0 
L 0 3.5 
" style="stroke: #000000; stroke-width: 0.8"/>
      </defs>
      <g>
       <use xlink:href="#md39032bed2" x="66.59554" y="273.540841" style="stroke: #000000; stroke-width: 0.8"/>
      </g>
     </g>
     <g id="text_1">
      <!-- 0 -->
      <g transform="translate(63.41429 288.139278) scale(0.1 -0.1)">
       <defs>
        <path id="DejaVuSans-30" d="M 2034 4250 
Q 1547 4250 1301 3770 
Q 1056 3291 1056 2328 
Q 1056 1369 1301 889 
Q 1547 409 2034 409 
Q 2525 409 2770 889 
Q 3016 1369 3016 2328 
Q 3016 3291 2770 3770 
Q 2525 4250 2034 4250 
z
M 2034 4750 
Q 2819 4750 3233 4129 
Q 3647 3509 3647 2328 
Q 3647 1150 3233 529 
Q 2819 -91 2034 -91 
Q 1250 -91 836 529 
Q 422 1150 422 2328 
Q 422 3509 836 4129 
Q 1250 4750 2034 4750 
z
" transform="scale(0.015625)"/>
       </defs>
       <use xlink:href="#DejaVuSans-30"/>
      </g>
     </g>
    </g>
    <g id="xtick_2">
     <g id="line2d_3">
      <path d="M 147.759176 273.540841 
L 147.759176 7.428841 
" clip-path="url(#p3218fb7506)" style="fill: none; stroke: #b0b0b0; stroke-width: 0.8; stroke-linecap: square"/>
     </g>
     <g id="line2d_4">
      <g>
       <use xlink:href="#md39032bed2" x="147.759176" y="273.540841" style="stroke: #000000; stroke-width: 0.8"/>
      </g>
     </g>
     <g id="text_2">
      <!-- 5 -->
      <g transform="translate(144.577926 288.139278) scale(0.1 -0.1)">
       <defs>
        <path id="DejaVuSans-35" d="M 691 4666 
L 3169 4666 
L 3169 4134 
L 1269 4134 
L 1269 2991 
Q 1406 3038 1543 3061 
Q 1681 3084 1819 3084 
Q 2600 3084 3056 2656 
Q 3513 2228 3513 1497 
Q 3513 744 3044 326 
Q 2575 -91 1722 -91 
Q 1428 -91 1123 -41 
Q 819 9 494 109 
L 494 744 
Q 775 591 1075 516 
Q 1375 441 1709 441 
Q 2250 441 2565 725 
Q 2881 1009 2881 1497 
Q 2881 1984 2565 2268 
Q 2250 2553 1709 2553 
Q 1456 2553 1204 2497 
Q 953 2441 691 2322 
L 691 4666 
z
" transform="scale(0.015625)"/>
       </defs>
       <use xlink:href="#DejaVuSans-35"/>
      </g>
     </g>
    </g>
    <g id="xtick_3">
     <g id="line2d_5">
      <path d="M 228.922813 273.540841 
L 228.922813 7.428841 
" clip-path="url(#p3218fb7506)" style="fill: none; stroke: #b0b0b0; stroke-width: 0.8; stroke-linecap: square"/>
     </g>
     <g id="line2d_6">
      <g>
       <use xlink:href="#md39032bed2" x="228.922813" y="273.540841" style="stroke: #000000; stroke-width: 0.8"/>
      </g>
     </g>
     <g id="text_3">
      <!-- 10 -->
      <g transform="translate(222.560313 288.139278) scale(0.1 -0.1)">
       <defs>
        <path id="DejaVuSans-31" d="M 794 531 
L 1825 531 
L 1825 4091 
L 703 3866 
L 703 4441 
L 1819 4666 
L 2450 4666 
L 2450 531 
L 3481 531 
L 3481 0 
L 794 0 
L 794 531 
z
" transform="scale(0.015625)"/>
       </defs>
       <use xlink:href="#DejaVuSans-31"/>
       <use xlink:href="#DejaVuSans-30" x="63.623047"/>
      </g>
     </g>
    </g>
    <g id="xtick_4">
     <g id="line2d_7">
      <path d="M 310.086449 273.540841 
L 310.086449 7.428841 
" clip-path="url(#p3218fb7506)" style="fill: none; stroke: #b0b0b0; stroke-width: 0.8; stroke-linecap: square"/>
     </g>
     <g id="line2d_8">
      <g>
       <use xlink:href="#md39032bed2" x="310.086449" y="273.540841" style="stroke: #000000; stroke-width: 0.8"/>
      </g>
     </g>
     <g id="text_4">
      <!-- 15 -->
      <g transform="translate(303.723949 288.139278) scale(0.1 -0.1)">
       <use xlink:href="#DejaVuSans-31"/>
       <use xlink:href="#DejaVuSans-35" x="63.623047"/>
      </g>
     </g>
    </g>
    <g id="xtick_5">
     <g id="line2d_9">
      <path d="M 391.250085 273.540841 
L 391.250085 7.428841 
" clip-path="url(#p3218fb7506)" style="fill: none; stroke: #b0b0b0; stroke-width: 0.8; stroke-linecap: square"/>
     </g>
     <g id="line2d_10">
      <g>
       <use xlink:href="#md39032bed2" x="391.250085" y="273.540841" style="stroke: #000000; stroke-width: 0.8"/>
      </g>
     </g>
     <g id="text_5">
      <!-- 20 -->
      <g transform="translate(384.887585 288.139278) scale(0.1 -0.1)">
       <defs>
        <path id="DejaVuSans-32" d="M 1228 531 
L 3431 531 
L 3431 0 
L 469 0 
L 469 531 
Q 828 903 1448 1529 
Q 2069 2156 2228 2338 
Q 2531 2678 2651 2914 
Q 2772 3150 2772 3378 
Q 2772 3750 2511 3984 
Q 2250 4219 1831 4219 
Q 1534 4219 1204 4116 
Q 875 4013 500 3803 
L 500 4441 
Q 881 4594 1212 4672 
Q 1544 4750 1819 4750 
Q 2544 4750 2975 4387 
Q 3406 4025 3406 3419 
Q 3406 3131 3298 2873 
Q 3191 2616 2906 2266 
Q 2828 2175 2409 1742 
Q 1991 1309 1228 531 
z
" transform="scale(0.015625)"/>
       </defs>
       <use xlink:href="#DejaVuSans-32"/>
       <use xlink:href="#DejaVuSans-30" x="63.623047"/>
      </g>
     </g>
    </g>
    <g id="text_6">
     <!-- x -->
     <g transform="translate(223.595938 307.896153) scale(0.18 -0.18)">
      <defs>
       <path id="DejaVuSans-78" d="M 3513 3500 
L 2247 1797 
L 3578 0 
L 2900 0 
L 1881 1375 
L 863 0 
L 184 0 
L 1544 1831 
L 300 3500 
L 978 3500 
L 1906 2253 
L 2834 3500 
L 3513 3500 
z
" transform="scale(0.015625)"/>
      </defs>
      <use xlink:href="#DejaVuSans-78"/>
     </g>
    </g>
   </g>
   <g id="matplotlib.axis_2">
    <g id="ytick_1">
     <g id="line2d_11">
      <path d="M 50.362813 270.96312 
L 407.482813 270.96312 
" clip-path="url(#p3218fb7506)" style="fill: none; stroke: #b0b0b0; stroke-width: 0.8; stroke-linecap: square"/>
     </g>
     <g id="line2d_12">
      <defs>
       <path id="m6f3f5b6aff" d="M 0 0 
L -3.5 0 
" style="stroke: #000000; stroke-width: 0.8"/>
      </defs>
      <g>
       <use xlink:href="#m6f3f5b6aff" x="50.362813" y="270.96312" style="stroke: #000000; stroke-width: 0.8"/>
      </g>
     </g>
     <g id="text_7">
      <!-- −2 -->
      <g transform="translate(28.620625 274.762339) scale(0.1 -0.1)">
       <defs>
        <path id="DejaVuSans-2212" d="M 678 2272 
L 4684 2272 
L 4684 1741 
L 678 1741 
L 678 2272 
z
" transform="scale(0.015625)"/>
       </defs>
       <use xlink:href="#DejaVuSans-2212"/>
       <use xlink:href="#DejaVuSans-32" x="83.789062"/>
      </g>
     </g>
    </g>
    <g id="ytick_2">
     <g id="line2d_13">
      <path d="M 50.362813 205.972145 
L 407.482813 205.972145 
" clip-path="url(#p3218fb7506)" style="fill: none; stroke: #b0b0b0; stroke-width: 0.8; stroke-linecap: square"/>
     </g>
     <g id="line2d_14">
      <g>
       <use xlink:href="#m6f3f5b6aff" x="50.362813" y="205.972145" style="stroke: #000000; stroke-width: 0.8"/>
      </g>
     </g>
     <g id="text_8">
      <!-- −1 -->
      <g transform="translate(28.620625 209.771363) scale(0.1 -0.1)">
       <use xlink:href="#DejaVuSans-2212"/>
       <use xlink:href="#DejaVuSans-31" x="83.789062"/>
      </g>
     </g>
    </g>
    <g id="ytick_3">
     <g id="line2d_15">
      <path d="M 50.362813 140.981169 
L 407.482813 140.981169 
" clip-path="url(#p3218fb7506)" style="fill: none; stroke: #b0b0b0; stroke-width: 0.8; stroke-linecap: square"/>
     </g>
     <g id="line2d_16">
      <g>
       <use xlink:href="#m6f3f5b6aff" x="50.362813" y="140.981169" style="stroke: #000000; stroke-width: 0.8"/>
      </g>
     </g>
     <g id="text_9">
      <!-- 0 -->
      <g transform="translate(37.000313 144.780388) scale(0.1 -0.1)">
       <use xlink:href="#DejaVuSans-30"/>
      </g>
     </g>
    </g>
    <g id="ytick_4">
     <g id="line2d_17">
      <path d="M 50.362813 75.990194 
L 407.482813 75.990194 
" clip-path="url(#p3218fb7506)" style="fill: none; stroke: #b0b0b0; stroke-width: 0.8; stroke-linecap: square"/>
     </g>
     <g id="line2d_18">
      <g>
       <use xlink:href="#m6f3f5b6aff" x="50.362813" y="75.990194" style="stroke: #000000; stroke-width: 0.8"/>
      </g>
     </g>
     <g id="text_10">
      <!-- 1 -->
      <g transform="translate(37.000313 79.789413) scale(0.1 -0.1)">
       <use xlink:href="#DejaVuSans-31"/>
      </g>
     </g>
    </g>
    <g id="ytick_5">
     <g id="line2d_19">
      <path d="M 50.362813 10.999219 
L 407.482813 10.999219 
" clip-path="url(#p3218fb7506)" style="fill: none; stroke: #b0b0b0; stroke-width: 0.8; stroke-linecap: square"/>
     </g>
     <g id="line2d_20">
      <g>
       <use xlink:href="#m6f3f5b6aff" x="50.362813" y="10.999219" style="stroke: #000000; stroke-width: 0.8"/>
      </g>
     </g>
     <g id="text_11">
      <!-- 2 -->
      <g transform="translate(37.000313 14.798438) scale(0.1 -0.1)">
       <use xlink:href="#DejaVuSans-32"/>
      </g>
     </g>
    </g>
    <g id="text_12">
     <!-- Amplitude -->
     <g transform="translate(20.877188 186.605622) rotate(-90) scale(0.18 -0.18)">
      <defs>
       <path id="DejaVuSans-41" d="M 2188 4044 
L 1331 1722 
L 3047 1722 
L 2188 4044 
z
M 1831 4666 
L 2547 4666 
L 4325 0 
L 3669 0 
L 3244 1197 
L 1141 1197 
L 716 0 
L 50 0 
L 1831 4666 
z
" transform="scale(0.015625)"/>
       <path id="DejaVuSans-6d" d="M 3328 2828 
Q 3544 3216 3844 3400 
Q 4144 3584 4550 3584 
Q 5097 3584 5394 3201 
Q 5691 2819 5691 2113 
L 5691 0 
L 5113 0 
L 5113 2094 
Q 5113 2597 4934 2840 
Q 4756 3084 4391 3084 
Q 3944 3084 3684 2787 
Q 3425 2491 3425 1978 
L 3425 0 
L 2847 0 
L 2847 2094 
Q 2847 2600 2669 2842 
Q 2491 3084 2119 3084 
Q 1678 3084 1418 2786 
Q 1159 2488 1159 1978 
L 1159 0 
L 581 0 
L 581 3500 
L 1159 3500 
L 1159 2956 
Q 1356 3278 1631 3431 
Q 1906 3584 2284 3584 
Q 2666 3584 2933 3390 
Q 3200 3197 3328 2828 
z
" transform="scale(0.015625)"/>
       <path id="DejaVuSans-70" d="M 1159 525 
L 1159 -1331 
L 581 -1331 
L 581 3500 
L 1159 3500 
L 1159 2969 
Q 1341 3281 1617 3432 
Q 1894 3584 2278 3584 
Q 2916 3584 3314 3078 
Q 3713 2572 3713 1747 
Q 3713 922 3314 415 
Q 2916 -91 2278 -91 
Q 1894 -91 1617 61 
Q 1341 213 1159 525 
z
M 3116 1747 
Q 3116 2381 2855 2742 
Q 2594 3103 2138 3103 
Q 1681 3103 1420 2742 
Q 1159 2381 1159 1747 
Q 1159 1113 1420 752 
Q 1681 391 2138 391 
Q 2594 391 2855 752 
Q 3116 1113 3116 1747 
z
" transform="scale(0.015625)"/>
       <path id="DejaVuSans-6c" d="M 603 4863 
L 1178 4863 
L 1178 0 
L 603 0 
L 603 4863 
z
" transform="scale(0.015625)"/>
       <path id="DejaVuSans-69" d="M 603 3500 
L 1178 3500 
L 1178 0 
L 603 0 
L 603 3500 
z
M 603 4863 
L 1178 4863 
L 1178 4134 
L 603 4134 
L 603 4863 
z
" transform="scale(0.015625)"/>
       <path id="DejaVuSans-74" d="M 1172 4494 
L 1172 3500 
L 2356 3500 
L 2356 3053 
L 1172 3053 
L 1172 1153 
Q 1172 725 1289 603 
Q 1406 481 1766 481 
L 2356 481 
L 2356 0 
L 1766 0 
Q 1100 0 847 248 
Q 594 497 594 1153 
L 594 3053 
L 172 3053 
L 172 3500 
L 594 3500 
L 594 4494 
L 1172 4494 
z
" transform="scale(0.015625)"/>
       <path id="DejaVuSans-75" d="M 544 1381 
L 544 3500 
L 1119 3500 
L 1119 1403 
Q 1119 906 1312 657 
Q 1506 409 1894 409 
Q 2359 409 2629 706 
Q 2900 1003 2900 1516 
L 2900 3500 
L 3475 3500 
L 3475 0 
L 2900 0 
L 2900 538 
Q 2691 219 2414 64 
Q 2138 -91 1772 -91 
Q 1169 -91 856 284 
Q 544 659 544 1381 
z
M 1991 3584 
L 1991 3584 
z
" transform="scale(0.015625)"/>
       <path id="DejaVuSans-64" d="M 2906 2969 
L 2906 4863 
L 3481 4863 
L 3481 0 
L 2906 0 
L 2906 525 
Q 2725 213 2448 61 
Q 2172 -91 1784 -91 
Q 1150 -91 751 415 
Q 353 922 353 1747 
Q 353 2572 751 3078 
Q 1150 3584 1784 3584 
Q 2172 3584 2448 3432 
Q 2725 3281 2906 2969 
z
M 947 1747 
Q 947 1113 1208 752 
Q 1469 391 1925 391 
Q 2381 391 2643 752 
Q 2906 1113 2906 1747 
Q 2906 2381 2643 2742 
Q 2381 3103 1925 3103 
Q 1469 3103 1208 2742 
Q 947 2381 947 1747 
z
" transform="scale(0.015625)"/>
       <path id="DejaVuSans-65" d="M 3597 1894 
L 3597 1613 
L 953 1613 
Q 991 1019 1311 708 
Q 1631 397 2203 397 
Q 2534 397 2845 478 
Q 3156 559 3463 722 
L 3463 178 
Q 3153 47 2828 -22 
Q 2503 -91 2169 -91 
Q 1331 -91 842 396 
Q 353 884 353 1716 
Q 353 2575 817 3079 
Q 1281 3584 2069 3584 
Q 2775 3584 3186 3129 
Q 3597 2675 3597 1894 
z
M 3022 2063 
Q 3016 2534 2758 2815 
Q 2500 3097 2075 3097 
Q 1594 3097 1305 2825 
Q 1016 2553 972 2059 
L 3022 2063 
z
" transform="scale(0.015625)"/>
      </defs>
      <use xlink:href="#DejaVuSans-41"/>
      <use xlink:href="#DejaVuSans-6d" x="68.408203"/>
      <use xlink:href="#DejaVuSans-70" x="165.820312"/>
      <use xlink:href="#DejaVuSans-6c" x="229.296875"/>
      <use xlink:href="#DejaVuSans-69" x="257.080078"/>
      <use xlink:href="#DejaVuSans-74" x="284.863281"/>
      <use xlink:href="#DejaVuSans-75" x="324.072266"/>
      <use xlink:href="#DejaVuSans-64" x="387.451172"/>
      <use xlink:href="#DejaVuSans-65" x="450.927734"/>
     </g>
    </g>
   </g>
   <g id="line2d_21">
    <path d="M 50.362813 139.936312 
L 50.844925 139.395181 
L 51.166333 139.329857 
L 51.469885 139.517272 
L 51.862717 140.075702 
L 53.291197 142.409033 
L 53.594749 142.435956 
L 53.916157 142.231989 
L 54.433981 141.579326 
L 55.183933 140.700639 
L 55.576765 140.570742 
L 55.969597 140.694862 
L 57.076669 141.204096 
L 57.415933 141.008943 
L 57.826621 140.476279 
L 58.862269 139.007138 
L 59.112253 139.008884 
L 59.362237 139.255015 
L 59.683645 139.941467 
L 60.165757 141.591307 
L 61.040701 144.597506 
L 61.344253 144.963819 
L 61.540669 144.896838 
L 61.754941 144.532948 
L 62.058493 143.521567 
L 62.558461 140.918952 
L 63.415549 136.534844 
L 63.719101 135.919955 
L 63.897661 135.912396 
L 64.076221 136.179052 
L 64.344061 137.067713 
L 64.772604 139.434669 
L 65.647548 144.354635 
L 65.897533 144.730819 
L 66.022525 144.615956 
L 66.201085 144.052247 
L 66.451069 142.407028 
L 66.790333 138.507436 
L 67.254589 130.255085 
L 68.004541 112.167773 
L 69.147325 85.403642 
L 69.754429 76.220409 
L 70.254397 71.662796 
L 70.700797 69.371489 
L 71.111485 68.263495 
L 71.486461 67.799888 
L 71.807869 67.720702 
L 72.075709 67.880678 
L 72.361405 68.324784 
L 72.700669 69.325737 
L 73.075645 71.208965 
L 73.504189 74.603786 
L 74.004157 80.476395 
L 74.629117 90.716552 
L 75.486205 108.91211 
L 77.307517 153.799797 
L 79.325245 201.32397 
L 80.200189 217.202395 
L 80.825149 224.961471 
L 81.307261 228.501996 
L 81.664381 229.720718 
L 81.878653 229.899233 
L 82.039357 229.773928 
L 82.271485 229.220326 
L 82.592893 227.774211 
L 83.039293 224.572968 
L 83.592829 218.838233 
L 84.235645 209.747169 
L 84.949885 196.310804 
L 85.789117 175.925796 
L 87.181885 135.387722 
L 88.967485 85.620348 
L 90.360253 52.273529 
L 91.038781 40.709112 
L 91.485181 36.251638 
L 91.806589 34.868473 
L 91.967293 34.759597 
L 91.985149 34.770963 
L 92.127997 35.026182 
L 92.360125 36.033912 
L 92.699389 38.668632 
L 93.235069 44.894853 
L 94.252861 59.937295 
L 95.127805 75.611363 
L 95.770621 91.345631 
L 96.502717 115.279785 
L 97.984765 165.222186 
L 98.413308 172.294305 
L 98.681149 173.914423 
L 98.770429 173.964669 
L 98.80614 173.917394 
L 98.931133 173.455784 
L 99.145405 171.647731 
L 99.484669 166.526759 
L 100.091773 153.173887 
L 100.913149 136.227561 
L 101.323837 131.674617 
L 101.591677 130.534846 
L 101.716669 130.478911 
L 101.734525 130.49416 
L 101.877373 130.812361 
L 102.109501 131.991051 
L 102.520189 135.484212 
L 103.537981 144.495236 
L 103.895101 145.816554 
L 104.109373 146.002277 
L 104.270077 145.870705 
L 104.52006 145.283969 
L 104.966461 143.51349 
L 105.734269 140.563733 
L 106.091389 139.945487 
L 106.359229 139.857443 
L 106.627069 140.026067 
L 107.180605 140.740665 
L 107.627004 141.140717 
L 107.912701 141.137315 
L 108.216253 140.886 
L 108.680509 140.151032 
L 109.359037 139.152841 
L 109.644733 139.062858 
L 109.894717 139.220861 
L 110.216125 139.747421 
L 110.716093 141.092749 
L 111.537469 143.232267 
L 111.858877 143.552331 
L 112.091005 143.521897 
L 112.358845 143.219778 
L 112.751677 142.358374 
L 114.001597 139.316257 
L 114.323005 139.12889 
L 114.590845 139.222737 
L 114.947965 139.629104 
L 116.305021 141.445644 
L 116.662141 141.473664 
L 117.126396 141.256359 
L 117.912061 140.889601 
L 118.304893 140.96469 
L 118.787005 141.317371 
L 119.679805 142.005421 
L 120.019069 141.990563 
L 120.358333 141.746349 
L 120.822589 141.099011 
L 121.858237 139.577185 
L 122.197501 139.455653 
L 122.501053 139.582434 
L 122.876029 140.011331 
L 124.429501 142.12453 
L 124.768765 142.106015 
L 125.161597 141.842301 
L 126.590077 140.664351 
L 127.054333 140.699346 
L 128.482813 141.004129 
L 129.036349 140.725316 
L 129.947004 140.25526 
L 130.357693 140.315055 
L 130.786237 140.624848 
L 131.661181 141.644716 
L 132.179005 142.037514 
L 132.553981 142.057473 
L 132.928957 141.839049 
L 133.482493 141.211648 
L 134.339581 140.274703 
L 134.768124 140.125463 
L 135.178812 140.228483 
L 135.785917 140.660166 
L 136.571581 141.161639 
L 137.071549 141.221183 
L 137.767933 141.043894 
L 138.500029 140.933236 
L 139.071421 141.094195 
L 140.321341 141.548684 
L 140.767741 141.410711 
L 141.321277 140.978527 
L 142.321213 140.17569 
L 142.749756 140.131584 
L 143.178301 140.332105 
L 143.838973 140.948703 
L 144.588925 141.561459 
L 145.053181 141.659925 
L 145.517437 141.523012 
L 147.231613 140.786767 
L 147.981565 140.933776 
L 148.767229 141.015802 
L 149.410045 140.837917 
L 150.481404 140.513841 
L 150.981373 140.630413 
L 151.588477 141.029393 
L 152.552701 141.6534 
L 152.9991 141.67605 
L 153.463357 141.470417 
L 155.248957 140.415975 
L 155.766781 140.5475 
L 157.409533 141.143969 
L 158.230908 141.010863 
L 159.034429 140.95791 
L 159.78438 141.162661 
L 160.695037 141.37837 
L 161.230717 141.262313 
L 161.9271 140.85035 
L 162.766333 140.405854 
L 163.248445 140.396188 
L 163.766269 140.619806 
L 165.337597 141.463776 
L 165.873277 141.38764 
L 167.837437 140.856649 
L 169.569469 140.94396 
L 171.194365 140.666922 
L 171.801468 140.904449 
L 173.140669 141.50881 
L 173.658493 141.437147 
L 174.319164 141.089449 
L 175.301244 140.5941 
L 175.854781 140.575258 
L 176.569021 140.802547 
L 177.586813 141.095931 
L 178.354621 141.048292 
L 179.515261 140.970785 
L 180.515197 141.207853 
L 181.265149 141.278846 
L 181.890108 141.102269 
L 183.497149 140.510549 
L 184.050684 140.644773 
L 185.996989 141.350117 
L 186.711229 141.162306 
L 187.836157 140.875988 
L 188.693245 140.941317 
L 189.746749 140.987304 
L 191.960892 140.823357 
L 193.907197 141.381914 
L 194.550013 141.155248 
L 195.835645 140.65131 
L 196.460605 140.69003 
L 198.621181 141.05147 
L 200.085373 140.993044 
L 201.995965 141.170943 
L 202.870909 140.843263 
L 203.727997 140.599434 
L 204.335101 140.667649 
L 205.245756 141.047426 
L 206.049277 141.28258 
L 206.709949 141.236634 
L 208.745533 140.909739 
L 210.406141 140.952573 
L 212.084605 140.785003 
L 212.90598 141.041879 
L 213.941629 141.331906 
L 214.566589 141.260804 
L 215.655805 140.841439 
L 216.405757 140.696506 
L 217.137853 140.797457 
L 218.637757 141.06286 
L 221.262589 141.126626 
L 222.173245 141.177506 
L 222.958909 140.978788 
L 224.190973 140.655227 
L 224.851645 140.745446 
L 226.905085 141.228853 
L 228.012157 140.989534 
L 228.940669 140.908392 
L 231.208381 140.890865 
L 232.351165 140.796542 
L 233.17254 140.987402 
L 234.422461 141.284615 
L 235.118845 141.181971 
L 237.011581 140.742595 
L 237.975805 140.922833 
L 239.047165 141.051211 
L 241.725565 141.116301 
L 242.654077 141.142627 
L 243.564733 140.915378 
L 244.618237 140.697892 
L 245.332477 140.797001 
L 247.225213 141.203258 
L 248.260861 141.018196 
L 249.314365 140.917142 
L 251.760637 140.878756 
L 252.831997 140.827175 
L 253.760509 141.041327 
L 254.831869 141.247031 
L 255.581821 141.141294 
L 257.385277 140.770338 
L 258.403069 140.935013 
L 259.510141 141.041361 
L 262.00998 141.084501 
L 263.063485 141.122815 
L 264.063421 140.896166 
L 265.081212 140.730862 
L 265.866876 140.852341 
L 267.509629 141.182576 
L 268.491709 141.045868 
L 269.705917 140.924372 
L 272.259325 140.877164 
L 273.312829 140.852901 
L 274.419901 141.100976 
L 275.348412 141.216173 
L 276.169789 141.076073 
L 277.633981 140.789993 
L 278.580349 140.899584 
L 279.919549 141.03454 
L 282.455101 141.07914 
L 283.52646 141.101189 
L 284.704957 140.84853 
L 285.615612 140.761466 
L 286.490557 140.922678 
L 287.811901 141.162317 
L 288.776125 141.059344 
L 290.151037 140.931371 
L 292.615164 140.892848 
L 293.740093 140.868631 
L 295.025725 141.131032 
L 295.900669 141.184152 
L 296.864892 140.992234 
L 298.025533 140.808851 
L 299.043325 140.917847 
L 300.382525 141.027604 
L 302.775229 141.060672 
L 303.953725 141.086886 
L 306.685693 140.880367 
L 308.364157 141.143382 
L 309.596221 140.989232 
L 310.774717 140.944774 
L 312.721021 140.934082 
L 314.167357 140.881706 
L 316.881468 141.078375 
L 318.595645 140.827337 
L 320.006269 140.997364 
L 321.202621 141.003204 
L 322.809661 141.014523 
L 324.416701 141.070823 
L 327.005821 140.8733 
L 328.898557 141.123302 
L 334.469628 140.880985 
L 335.790973 141.100609 
L 336.755197 141.146511 
L 337.933693 140.934919 
L 338.987196 140.839663 
L 340.540669 141.006904 
L 341.844157 140.987852 
L 343.290493 141.019617 
L 344.843965 141.060686 
L 347.379517 140.87727 
L 349.361533 141.108165 
L 352.593469 140.991738 
L 354.236221 140.882067 
L 355.325437 140.942149 
L 357.218173 141.128551 
L 360.325117 140.942532 
L 361.753597 141.011437 
L 363.896317 141.035828 
L 365.271229 141.051892 
L 367.771069 140.883569 
L 369.806653 141.095844 
L 372.806461 140.988696 
L 374.306364 140.910423 
L 375.538429 140.920467 
L 377.877565 141.088828 
L 380.163133 140.883059 
L 382.555837 140.990977 
L 384.180732 141.022098 
L 385.698493 141.044166 
L 388.162621 140.889037 
L 390.251773 141.084883 
L 393.090877 140.985239 
L 394.626493 140.921264 
L 395.947836 140.92556 
L 398.304828 141.078127 
L 400.554685 140.888831 
L 403.018813 140.987482 
L 404.661565 141.026061 
L 406.143613 141.035425 
L 407.482813 140.858211 
L 407.482813 140.858211 
" clip-path="url(#p3218fb7506)" style="fill: none; stroke: #1f77b4; stroke-width: 1.5; stroke-linecap: square"/>
   </g>
   <g id="line2d_22">
    <path d="M 50.362813 140.672087 
L 50.791357 140.738058 
L 52.059133 141.108631 
L 52.469821 140.863998 
L 53.148349 140.124606 
L 53.684029 139.696375 
L 54.005437 139.702118 
L 54.308989 139.94665 
L 54.701821 140.592007 
L 56.112445 143.240743 
L 56.362429 143.229519 
L 56.630269 142.965936 
L 56.987389 142.256336 
L 58.487293 138.839491 
L 58.755133 138.833791 
L 59.022973 139.074216 
L 59.433661 139.795264 
L 60.362173 141.48648 
L 60.683581 141.646801 
L 60.969277 141.546881 
L 61.379965 141.123657 
L 61.987069 140.550209 
L 62.237053 140.583031 
L 62.487037 140.869745 
L 62.808445 141.639589 
L 63.326269 143.596202 
L 63.933373 145.681413 
L 64.165501 145.899654 
L 64.308349 145.761444 
L 64.504765 145.157558 
L 64.772604 143.439673 
L 65.111868 139.60731 
L 65.558269 131.697498 
L 66.218941 115.343295 
L 67.397437 86.122747 
L 67.843837 80.003781 
L 68.147389 78.2227 
L 68.290237 78.072688 
L 68.308093 78.084474 
L 68.433085 78.353231 
L 68.647357 79.544904 
L 68.968765 82.902836 
L 69.433021 90.413103 
L 70.254397 108.025372 
L 74.414845 201.077147 
L 75.14694 212.39246 
L 75.736189 218.366715 
L 76.200445 221.102604 
L 76.557565 222.115175 
L 76.807549 222.303014 
L 77.003965 222.166519 
L 77.253949 221.644965 
L 77.593213 220.328876 
L 78.021757 217.662965 
L 78.53958 212.875969 
L 79.128829 205.17662 
L 79.807357 193.198115 
L 80.664445 173.753416 
L 82.217917 132.145837 
L 84.16422 82.20214 
L 85.235581 59.67748 
L 85.896253 49.904824 
L 86.378365 45.627446 
L 86.717629 44.207444 
L 86.931901 43.981473 
L 87.074749 44.10754 
L 87.289021 44.689031 
L 87.610429 46.368729 
L 88.056829 50.070839 
L 88.663933 57.12524 
L 89.396028 68.317613 
L 90.128125 82.994967 
L 90.913789 103.500699 
L 92.163709 143.259166 
L 93.627901 187.278138 
L 96.234877 256.479884 
L 96.609853 260.789036 
L 96.824125 261.444008 
L 96.913405 261.282923 
L 97.074109 260.317855 
L 97.324093 257.046902 
L 97.663357 249.196987 
L 98.145469 232.095607 
L 99.091836 188.165307 
L 99.877501 156.843978 
L 100.377469 144.693915 
L 100.770301 139.754435 
L 101.073853 138.247639 
L 101.270269 138.078817 
L 101.430973 138.278939 
L 101.716669 139.096386 
L 102.448765 141.278047 
L 102.698749 141.445012 
L 102.895165 141.29926 
L 103.163004 140.75464 
L 103.698685 139.008664 
L 104.216509 137.64461 
L 104.466493 137.450266 
L 104.645053 137.552833 
L 104.877181 137.992491 
L 105.216445 139.18447 
L 106.662781 144.995876 
L 106.877053 145.063591 
L 107.073469 144.86326 
L 107.359165 144.170636 
L 107.841277 142.26728 
L 108.698365 138.953638 
L 109.055485 138.361709 
L 109.305469 138.313892 
L 109.555453 138.538472 
L 109.930429 139.248989 
L 111.019644 141.482042 
L 111.358909 141.67649 
L 111.680317 141.605517 
L 112.198141 141.204154 
L 112.751677 140.870989 
L 113.108797 140.912457 
L 113.501629 141.217411 
L 114.680125 142.324928 
L 114.983677 142.233753 
L 115.322941 141.855829 
L 115.822909 140.898172 
L 116.679997 139.288818 
L 117.019261 139.072592 
L 117.287101 139.146988 
L 117.608508 139.506478 
L 118.108477 140.473482 
L 118.965564 142.105358 
L 119.340541 142.389644 
L 119.644092 142.364964 
L 120.001213 142.089182 
L 121.554685 140.585862 
L 121.983229 140.652794 
L 123.286717 141.033921 
L 123.750973 140.810464 
L 124.929469 140.121467 
L 125.304445 140.230873 
L 125.715133 140.60628 
L 127.232893 142.253258 
L 127.572157 142.174311 
L 127.964989 141.817447 
L 128.804221 140.62595 
L 129.3399 140.09503 
L 129.732732 139.998473 
L 130.125564 140.148236 
L 130.768381 140.694854 
L 131.464765 141.187628 
L 131.946877 141.258191 
L 132.571837 141.086856 
L 133.339645 140.923807 
L 133.857469 141.056456 
L 135.321661 141.604955 
L 135.750204 141.405084 
L 136.339452 140.845486 
L 137.178685 140.096428 
L 137.589373 140.021013 
L 137.982205 140.187314 
L 138.517885 140.698138 
L 139.482109 141.626828 
L 139.928509 141.738178 
L 140.374909 141.604372 
L 141.303421 140.989864 
L 141.892669 140.773725 
L 142.464061 140.815499 
L 143.749693 141.006705 
L 144.392509 140.784423 
L 145.321021 140.469164 
L 145.803133 140.561664 
L 146.356669 140.925376 
L 147.499453 141.732401 
L 147.927997 141.733739 
L 148.392253 141.492549 
L 150.070717 140.364033 
L 150.552829 140.459699 
L 151.463485 140.950458 
L 152.106301 141.151347 
L 152.731261 141.104256 
L 153.945469 140.957996 
L 154.659709 141.168907 
L 155.570365 141.410522 
L 156.088189 141.302151 
L 156.731005 140.908316 
L 157.659516 140.361414 
L 158.123773 140.345425 
L 158.62374 140.565783 
L 160.266493 141.502587 
L 160.784316 141.413859 
L 162.694908 140.842581 
L 164.516221 140.928513 
L 166.016125 140.630574 
L 166.587517 140.83727 
L 168.140989 141.548445 
L 168.640957 141.433748 
L 169.373053 140.99081 
L 170.194429 140.569625 
L 170.730109 140.544835 
L 171.408637 140.765756 
L 172.462141 141.101319 
L 173.194237 141.062585 
L 174.426301 140.971888 
L 175.390525 141.215533 
L 176.140477 141.299072 
L 176.747581 141.128095 
L 178.426045 140.484527 
L 178.979581 140.638811 
L 180.818749 141.378282 
L 181.479421 141.221023 
L 182.765053 140.868254 
L 183.604285 140.940769 
L 184.639933 140.988274 
L 185.782716 140.731778 
L 186.479101 140.713986 
L 187.139773 140.93168 
L 188.461117 141.425859 
L 189.014653 141.349406 
L 189.800317 140.978332 
L 190.657405 140.645292 
L 191.264509 140.65533 
L 192.264445 140.958045 
L 193.085821 141.084608 
L 194.228605 140.967555 
L 195.085693 141.010738 
L 196.764157 141.208861 
L 197.514108 140.951532 
L 198.603325 140.583229 
L 199.192573 140.640862 
L 199.996093 140.980386 
L 200.888893 141.289623 
L 201.531709 141.264717 
L 203.79942 140.922928 
L 205.156477 140.973939 
L 207.156349 140.814095 
L 208.174141 141.191619 
L 208.924093 141.350296 
L 209.549053 141.247367 
L 211.566781 140.697512 
L 212.477437 140.91191 
L 213.459517 141.066723 
L 214.780861 140.961897 
L 215.709373 141.043735 
L 217.048573 141.188037 
L 217.816381 140.993937 
L 219.102013 140.641915 
L 219.744829 140.734312 
L 221.798269 141.239283 
L 222.833917 141.0073 
L 223.762429 140.903138 
L 226.297981 140.85256 
L 227.262205 140.790876 
L 228.065725 140.985533 
L 229.297789 141.295281 
L 229.976317 141.20153 
L 231.976189 140.73946 
L 233.029693 140.955719 
L 233.993917 141.052783 
L 236.440189 141.090958 
L 237.475837 141.15712 
L 238.315069 140.961708 
L 239.511421 140.688308 
L 240.207805 140.784014 
L 242.154109 141.208507 
L 243.225469 141.005987 
L 244.225405 140.915301 
L 246.600253 140.885021 
L 247.707325 140.819582 
L 248.600125 141.024918 
L 249.725053 141.255466 
L 250.457149 141.153013 
L 252.296317 140.76429 
L 253.314109 140.935875 
L 254.403324 141.043448 
L 256.903165 141.086686 
L 257.956669 141.127837 
L 258.920893 140.905616 
L 259.956541 140.723198 
L 260.724349 140.83697 
L 262.438525 141.187714 
L 263.420605 141.042029 
L 264.599101 140.922517 
L 267.152509 140.875071 
L 268.188157 140.846312 
L 269.223805 141.079694 
L 270.205885 141.224018 
L 271.009405 141.095167 
L 272.580733 140.784889 
L 273.544957 140.909478 
L 274.812733 141.036209 
L 277.348285 141.080945 
L 278.419645 141.105209 
L 279.562429 140.854641 
L 280.490941 140.75425 
L 281.348029 140.909604 
L 282.705084 141.167065 
L 283.651453 141.065756 
L 285.044221 140.929851 
L 287.508349 140.891409 
L 288.633277 140.864979 
L 289.865341 141.122978 
L 290.758141 141.192607 
L 291.686653 141.013067 
L 292.900861 140.804712 
L 293.882941 140.906083 
L 295.275709 141.028993 
L 297.668413 141.061805 
L 298.846909 141.09022 
L 300.221821 140.818487 
L 301.078909 140.790384 
L 302.168125 141.020082 
L 303.185917 141.149107 
L 304.275133 141.02204 
L 305.525053 140.937258 
L 307.810621 140.910936 
L 309.042685 140.876678 
L 311.810364 141.074314 
L 313.453117 140.822324 
L 314.685181 140.971833 
L 315.881533 141.016383 
L 317.827837 141.027957 
L 319.274173 141.077696 
L 321.970429 140.883822 
L 323.720317 141.13061 
L 329.898493 140.950875 
L 331.612669 141.153384 
L 332.701885 140.961151 
L 333.826812 140.835007 
L 335.094589 140.973717 
L 336.344509 141.010355 
L 338.237245 141.025097 
L 339.719293 141.065091 
L 342.326269 140.8835 
L 344.201149 141.114582 
L 349.807932 140.889908 
L 352.754172 141.032334 
L 354.254076 140.846914 
L 355.736125 140.997655 
L 357.039612 140.992854 
L 358.610941 141.019354 
L 360.164413 141.053981 
L 362.664253 140.880652 
L 364.699837 141.098469 
L 367.717501 140.989068 
L 369.199548 140.90971 
L 370.431613 140.918555 
L 372.788605 141.089222 
L 375.038461 140.879061 
L 377.484733 140.989756 
L 379.073916 141.022205 
L 380.591677 141.04601 
L 383.055805 140.886422 
L 385.144957 141.087185 
L 388.001917 140.985636 
L 389.519677 140.920815 
L 390.841021 140.923849 
L 393.198013 141.08068 
L 395.447869 140.886703 
L 397.929853 140.987112 
L 399.554749 141.026221 
L 401.036797 141.037056 
L 403.411644 140.886689 
L 405.643645 141.072907 
L 407.482813 140.950642 
L 407.482813 140.950642 
" clip-path="url(#p3218fb7506)" style="fill: none; stroke-dasharray: 5.55,2.4; stroke-dashoffset: 0; stroke: #1f77b4; stroke-width: 1.5"/>
   </g>
   <g id="line2d_23">
    <path d="M 50.362813 140.562262 
L 51.023485 139.742022 
L 51.380605 139.599753 
L 51.702013 139.711767 
L 52.076989 140.105778 
L 52.934077 141.467885 
L 53.434045 142.005587 
L 53.791165 142.101368 
L 54.148285 141.95487 
L 54.701821 141.426919 
L 55.416061 140.819569 
L 55.826749 140.75121 
L 56.291004 140.92205 
L 57.130237 141.263787 
L 57.487357 141.145863 
L 57.880189 140.759374 
L 59.183677 139.254517 
L 59.433661 139.364155 
L 59.719357 139.755319 
L 60.130045 140.766993 
L 61.362109 144.102276 
L 61.594237 144.18317 
L 61.808509 143.998124 
L 62.076349 143.416715 
L 62.487037 141.892924 
L 63.629821 137.306124 
L 63.897661 137.040885 
L 64.076221 137.141055 
L 64.308349 137.601079 
L 64.647613 138.853433 
L 65.843964 143.766389 
L 66.004669 143.757987 
L 66.165373 143.451221 
L 66.397501 142.427376 
L 66.718909 139.811026 
L 67.147452 134.236153 
L 67.808125 122.226862 
L 69.111613 98.359166 
L 69.700861 91.633314 
L 70.218685 88.040549 
L 70.736508 85.930453 
L 71.290045 84.567542 
L 71.790013 83.839012 
L 72.111421 83.68343 
L 72.343549 83.793294 
L 72.593533 84.183245 
L 72.897085 85.119666 
L 73.272061 87.097943 
L 73.736317 90.920238 
L 74.325565 97.872845 
L 75.14694 110.552808 
L 76.539709 136.03685 
L 79.396669 188.948156 
L 80.218045 199.495413 
L 80.896573 205.643786 
L 81.432253 208.74924 
L 81.825085 209.960902 
L 82.092925 210.228947 
L 82.271485 210.143258 
L 82.485757 209.752166 
L 82.789309 208.647675 
L 83.182141 206.252463 
L 83.682108 201.672114 
L 84.324925 193.500085 
L 85.146301 179.992999 
L 86.235517 158.095746 
L 89.931709 79.889719 
L 90.770941 68.465159 
L 91.413757 62.409105 
L 91.878013 59.863711 
L 92.181565 59.159197 
L 92.360125 59.12386 
L 92.538685 59.376769 
L 92.788668 60.218424 
L 93.127933 62.257289 
L 93.574333 66.422938 
L 94.181437 74.439595 
L 94.984957 88.334711 
L 95.967037 109.386328 
L 97.181245 140.645711 
L 99.216829 193.320305 
L 100.288189 214.737058 
L 101.180989 228.626543 
L 101.788093 235.071972 
L 102.19878 237.441098 
L 102.448765 237.946802 
L 102.591612 237.896774 
L 102.770173 237.480904 
L 103.038013 236.124471 
L 103.395133 233.007602 
L 103.895101 226.446585 
L 104.609341 213.804734 
L 105.627133 191.597638 
L 106.627069 164.961035 
L 107.984125 121.608377 
L 109.144765 87.586435 
L 110.233981 62.716662 
L 112.180284 23.186527 
L 112.537405 19.960653 
L 112.715965 19.524841 
L 112.733821 19.530002 
L 112.840957 19.756788 
L 113.019517 20.910647 
L 113.269501 24.230961 
L 113.626621 32.458026 
L 114.108733 49.395758 
L 115.055101 92.744833 
L 115.822909 123.06487 
L 116.322877 135.181646 
L 116.715709 140.092757 
L 117.019261 141.577717 
L 117.215677 141.739201 
L 117.376381 141.541557 
L 117.679933 140.700306 
L 118.287037 139.055969 
L 118.519165 138.934437 
L 118.697725 139.10748 
L 118.947709 139.726167 
L 119.358397 141.463236 
L 120.215485 145.1472 
L 120.501181 145.547282 
L 120.679741 145.480628 
L 120.894013 145.078377 
L 121.215421 143.893933 
L 121.840381 140.48158 
L 122.447485 137.654299 
L 122.786749 136.954186 
L 123.001021 136.91499 
L 123.197437 137.142984 
L 123.500989 137.917118 
L 124.072381 140.162089 
L 124.733053 142.461227 
L 125.090173 143.036971 
L 125.340157 143.108414 
L 125.590141 142.94025 
L 125.982973 142.343363 
L 126.893629 140.89805 
L 127.250749 140.744347 
L 127.590013 140.845046 
L 128.822077 141.438003 
L 129.16134 141.198585 
L 129.643453 140.528784 
L 130.464829 139.399893 
L 130.786237 139.305942 
L 131.071933 139.470276 
L 131.429053 139.987283 
L 132.071868 141.427948 
L 132.696829 142.611131 
L 133.036092 142.859272 
L 133.303933 142.80893 
L 133.62534 142.483021 
L 134.125309 141.587685 
L 134.96454 140.123862 
L 135.357372 139.856554 
L 135.696637 139.894802 
L 136.12518 140.210263 
L 137.196541 141.086182 
L 137.625085 141.106554 
L 138.232189 140.86944 
L 138.857148 140.700411 
L 139.285693 140.824839 
L 139.803517 141.243188 
L 140.714173 141.996415 
L 141.089149 142.00886 
L 141.446269 141.783636 
L 141.928381 141.180265 
L 142.946173 139.854468 
L 143.321149 139.730067 
L 143.660413 139.85772 
L 144.088957 140.286159 
L 145.356733 141.701974 
L 145.749565 141.765598 
L 146.195965 141.593188 
L 147.588732 140.877064 
L 148.142269 140.966124 
L 149.16006 141.173313 
L 149.660029 141.003501 
L 151.284925 140.224934 
L 151.695613 140.432054 
L 152.284861 141.024602 
L 153.124093 141.824414 
L 153.534781 141.925522 
L 153.927613 141.788118 
L 154.463293 141.325474 
L 155.445373 140.467787 
L 155.909629 140.372555 
L 156.409597 140.517414 
L 157.820221 141.064612 
L 158.480893 140.957602 
L 159.373693 140.833309 
L 159.945085 141.006896 
L 161.391421 141.594975 
L 161.837821 141.44829 
L 162.427069 140.9913 
L 163.355581 140.284673 
L 163.801981 140.225425 
L 164.24838 140.399397 
L 164.998333 140.991051 
L 165.694717 141.421183 
L 166.194684 141.471308 
L 166.801789 141.278435 
L 167.873149 140.918238 
L 168.551677 140.973548 
L 169.676604 141.089976 
L 170.319421 140.88169 
L 171.480061 140.467217 
L 171.980029 140.568399 
L 172.587132 140.947221 
L 173.604925 141.583558 
L 174.087037 141.602292 
L 174.604861 141.379388 
L 176.122621 140.563382 
L 176.676156 140.621291 
L 178.515325 141.02274 
L 180.122365 140.936535 
L 181.086589 141.29762 
L 181.747261 141.421914 
L 182.282941 141.292724 
L 183.050748 140.832315 
L 183.818556 140.456438 
L 184.318525 140.451062 
L 184.889917 140.685755 
L 186.246973 141.336598 
L 186.836221 141.30273 
L 188.836093 140.959175 
L 190.22886 141.038141 
L 191.103805 140.764562 
L 191.907325 140.593953 
L 192.478717 140.707548 
L 193.300093 141.142826 
L 194.067901 141.453341 
L 194.603581 141.429516 
L 195.264253 141.148702 
L 196.353469 140.679805 
L 196.960573 140.682975 
L 199.263997 140.97028 
L 200.371069 140.922378 
L 201.263869 141.162318 
L 202.120957 141.326125 
L 202.728061 141.206507 
L 204.745789 140.568777 
L 205.406461 140.804914 
L 206.602813 141.259282 
L 207.263485 141.231038 
L 209.227645 140.962785 
L 210.709693 141.012562 
L 212.816701 140.74435 
L 213.673789 141.102608 
L 214.513021 141.369451 
L 215.102269 141.320679 
L 215.959357 140.983648 
L 216.834301 140.724989 
L 217.530685 140.766869 
L 219.334141 141.006099 
L 221.030461 140.974551 
L 222.869629 141.229404 
L 223.637437 140.970737 
L 224.708797 140.626574 
L 225.333757 140.679036 
L 226.333693 141.046773 
L 227.137213 141.22292 
L 227.905021 141.143491 
L 229.369213 140.948846 
L 231.511933 140.928176 
L 232.851133 140.726184 
L 233.565373 140.88869 
L 235.083133 141.31469 
L 235.761661 141.196579 
L 237.511549 140.757453 
L 238.440061 140.899625 
L 239.547133 141.011817 
L 241.779133 141.045275 
L 243.046909 141.21725 
L 243.796861 141.055649 
L 245.278909 140.672022 
L 245.975293 140.786001 
L 247.725181 141.188401 
L 248.725117 141.040755 
L 249.814333 140.955144 
L 251.885629 140.940023 
L 253.314109 140.766735 
L 254.117629 140.95133 
L 255.421117 141.268869 
L 256.135357 141.173363 
L 257.992381 140.790744 
L 259.242301 140.973611 
L 260.260093 140.990918 
L 261.849276 140.980283 
L 263.742012 141.152614 
L 264.777661 140.863456 
L 265.67046 140.71133 
L 266.420412 140.82347 
L 268.098877 141.163182 
L 269.170236 141.025713 
L 270.295165 140.96198 
L 272.223613 140.954995 
L 273.794941 140.800691 
L 274.705597 141.011959 
L 275.812669 141.234406 
L 276.580477 141.138974 
L 278.366077 140.812002 
L 279.723133 140.983213 
L 280.830205 140.977512 
L 282.240829 140.979716 
L 284.187133 141.125493 
L 286.704829 140.815765 
L 288.686845 141.134257 
L 291.758077 141.022726 
L 292.865149 140.919148 
L 294.15078 140.816456 
L 295.097149 141.00721 
L 296.257789 141.20792 
L 297.09702 141.095042 
L 298.686205 140.827583 
L 299.918269 140.962485 
L 301.096765 140.986519 
L 302.739517 140.992475 
L 304.525117 141.118944 
L 305.775037 140.841765 
L 306.649981 140.772138 
L 307.614205 140.948842 
L 308.810557 141.127631 
L 309.953341 141.01831 
L 311.203261 140.970911 
L 313.042429 140.956826 
L 314.667325 140.843502 
L 315.827965 141.08341 
L 316.792189 141.183186 
L 317.738557 141.029194 
L 319.024189 140.841612 
L 320.238397 140.955826 
L 321.488317 140.986417 
L 323.202493 140.999443 
L 324.916669 141.106875 
L 326.363004 140.822748 
L 327.237949 140.807845 
L 330.166332 141.036954 
L 331.612669 140.972339 
L 333.487549 140.953017 
L 335.094589 140.858743 
L 336.487357 141.121684 
L 337.398013 141.150954 
L 338.826492 140.89529 
L 339.826429 140.870958 
L 342.326269 140.961877 
L 343.665468 141.005588 
L 345.326076 141.094957 
L 348.111613 140.895012 
L 349.772221 141.100875 
L 356.236093 140.990014 
L 357.575293 141.151165 
L 358.628797 141.002998 
L 359.914429 140.864749 
L 364.735549 141.080455 
L 365.824765 141.074825 
L 368.342461 140.873992 
L 370.378045 141.081829 
L 373.199293 141.007848 
L 374.556349 140.926236 
L 375.913405 140.879281 
L 378.770365 141.047146 
L 380.395261 140.875454 
L 386.751997 140.987817 
L 388.251901 140.832572 
L 389.483965 141.005109 
L 390.662461 141.080571 
L 396.626365 140.923088 
L 398.69766 141.106337 
L 401.501053 140.933314 
L 403.197373 140.980105 
L 404.965117 141.01109 
L 406.590013 141.06536 
L 407.482813 140.931361 
L 407.482813 140.931361 
" clip-path="url(#p3218fb7506)" style="fill: none; stroke: #ff7f0e; stroke-width: 1.5; stroke-linecap: square"/>
   </g>
   <g id="line2d_24">
    <path d="M 50.362813 140.857251 
L 50.827069 140.827676 
L 51.469885 141.054559 
L 52.094845 141.194722 
L 52.523389 141.050336 
L 53.041213 140.602699 
L 53.916157 139.838979 
L 54.255421 139.830984 
L 54.576829 140.057185 
L 54.987517 140.655046 
L 56.308861 142.813816 
L 56.594557 142.828099 
L 56.880253 142.595283 
L 57.273085 141.929095 
L 58.594429 139.395299 
L 58.897981 139.322142 
L 59.183677 139.490434 
L 59.594365 140.031365 
L 60.522877 141.305696 
L 60.862141 141.399931 
L 61.201405 141.24561 
L 62.290621 140.551494 
L 62.558461 140.780345 
L 62.879869 141.402334 
L 63.379837 142.962318 
L 64.022653 144.820065 
L 64.254781 144.984181 
L 64.415485 144.82062 
L 64.629756 144.170089 
L 64.915453 142.413129 
L 65.272573 138.647207 
L 65.754685 130.888555 
L 66.611773 112.536098 
L 67.397437 97.662012 
L 67.843837 92.866943 
L 68.129533 91.613819 
L 68.272381 91.529969 
L 68.290237 91.54442 
L 68.433085 91.854186 
L 68.665213 93.057974 
L 69.004477 96.188904 
L 69.540157 103.577371 
L 70.736508 124.235295 
L 74.521981 188.866943 
L 75.236221 196.490514 
L 75.861181 200.977127 
L 76.379005 203.294794 
L 76.771837 204.219785 
L 77.039677 204.411688 
L 77.236093 204.309021 
L 77.468221 203.904533 
L 77.771773 202.88377 
L 78.164605 200.688232 
L 78.646717 196.61273 
L 79.253821 189.426513 
L 80.057341 177.003671 
L 81.182269 155.813519 
L 84.789181 84.924753 
L 85.610557 74.557266 
L 86.253373 68.959486 
L 86.735485 66.466864 
L 87.056893 65.724185 
L 87.253309 65.657594 
L 87.431869 65.860193 
L 87.681853 66.571039 
L 88.021117 68.332091 
L 88.467517 71.999282 
L 89.038909 78.7255 
L 89.788861 90.434808 
L 90.735229 108.912399 
L 91.949437 137.359998 
L 94.270717 192.664037 
L 95.288509 211.054992 
L 96.109885 222.269692 
L 96.699133 227.616156 
L 97.109821 229.595544 
L 97.359805 229.994975 
L 97.502653 229.934917 
L 97.681213 229.560143 
L 97.949053 228.375197 
L 98.324029 225.503552 
L 98.823997 219.692285 
L 99.502525 208.911006 
L 100.413181 190.632764 
L 101.430973 165.642937 
L 102.841597 124.570167 
L 104.198653 87.455843 
L 105.305725 63.423677 
L 106.359229 44.887818 
L 106.966333 37.538816 
L 107.359165 35.049094 
L 107.591293 34.616631 
L 107.716285 34.727409 
L 107.894845 35.311675 
L 108.162685 37.120294 
L 108.537661 41.413886 
L 109.073341 50.435826 
L 110.05542 71.557264 
L 111.376765 104.05182 
L 112.215997 130.886584 
L 113.894461 186.993274 
L 114.287293 192.805516 
L 114.519421 193.892705 
L 114.608701 193.827076 
L 114.751549 193.167159 
L 114.983677 190.690461 
L 115.322941 184.279553 
L 115.876477 168.889472 
L 116.947837 139.003846 
L 117.376381 132.562052 
L 117.679933 130.595506 
L 117.840637 130.36874 
L 117.858493 130.375368 
L 117.983485 130.586267 
L 118.197757 131.541707 
L 118.572733 134.499634 
L 119.661949 143.682956 
L 120.001213 144.799847 
L 120.215485 144.962719 
L 120.394045 144.82064 
L 120.661885 144.242117 
L 121.340413 141.999984 
L 121.804669 140.898112 
L 122.108221 140.629948 
L 122.358205 140.669755 
L 122.697469 140.987988 
L 123.465277 141.752811 
L 123.733117 141.719343 
L 124.018813 141.433156 
L 124.429501 140.639157 
L 125.393725 138.663981 
L 125.679421 138.548008 
L 125.911549 138.701956 
L 126.215101 139.228366 
L 126.697213 140.620235 
L 127.572157 143.140396 
L 127.911421 143.523037 
L 128.143549 143.509702 
L 128.411389 143.229228 
L 128.804221 142.416423 
L 130.000573 139.707131 
L 130.339837 139.506658 
L 130.625533 139.585997 
L 131.018365 139.966316 
L 132.071868 141.096371 
L 132.464701 141.149941 
L 132.928957 140.959772 
L 133.732477 140.625879 
L 134.107453 140.728457 
L 134.535997 141.097239 
L 135.714493 142.258347 
L 136.035901 142.222763 
L 136.375165 141.937311 
L 136.857277 141.188121 
L 137.821501 139.655372 
L 138.178621 139.480892 
L 138.482172 139.572937 
L 138.857148 139.954146 
L 140.428477 141.895767 
L 140.803453 141.865645 
L 141.267709 141.574523 
L 142.285501 140.893709 
L 142.749756 140.880501 
L 143.535421 141.1461 
L 144.088957 141.201928 
L 144.553213 141.015496 
L 145.356733 140.376436 
L 145.892413 140.100907 
L 146.285245 140.144418 
L 146.695933 140.439478 
L 147.37446 141.271561 
L 148.035133 141.945573 
L 148.427965 142.056457 
L 148.802941 141.918323 
L 149.285053 141.467791 
L 150.374269 140.389127 
L 150.802813 140.294476 
L 151.267068 140.435007 
L 152.766973 141.073707 
L 153.409788 140.946391 
L 154.249021 140.812182 
L 154.784701 140.976247 
L 156.356029 141.655941 
L 156.784573 141.472744 
L 157.391677 140.930681 
L 158.230908 140.22344 
L 158.659453 140.139863 
L 159.087997 140.297247 
L 159.712957 140.816625 
L 160.534333 141.439514 
L 161.016445 141.528151 
L 161.552125 141.378931 
L 162.873469 140.90624 
L 163.551997 140.995746 
L 164.516221 141.109626 
L 165.123325 140.920716 
L 166.426813 140.420433 
L 166.908925 140.543614 
L 167.516029 140.965651 
L 168.480253 141.626758 
L 168.944509 141.664636 
L 169.426621 141.46521 
L 171.140797 140.522851 
L 171.694333 140.629761 
L 173.194237 141.044249 
L 174.122749 140.898657 
L 174.854845 140.894109 
L 175.569085 141.13957 
L 176.533309 141.454117 
L 177.051132 141.372701 
L 177.676093 141.018433 
L 178.711741 140.420491 
L 179.211709 140.410746 
L 179.765245 140.648363 
L 181.158013 141.362617 
L 181.729405 141.327027 
L 183.729277 140.956705 
L 185.122045 141.04373 
L 185.961276 140.767252 
L 186.782653 140.56876 
L 187.336189 140.672269 
L 188.068285 141.070754 
L 188.925373 141.47457 
L 189.443196 141.472458 
L 190.0503 141.224363 
L 191.300221 140.653763 
L 191.907325 140.673507 
L 194.014333 140.99153 
L 195.299965 140.923097 
L 196.192765 141.182056 
L 197.014141 141.346028 
L 197.603389 141.229403 
L 198.531901 140.75879 
L 199.228285 140.527096 
L 199.781821 140.578345 
L 200.531773 140.910387 
L 201.460285 141.267663 
L 202.085245 141.25908 
L 204.317245 140.985246 
L 205.495741 141.033201 
L 206.459965 140.780204 
L 207.281341 140.655841 
L 207.906301 140.796592 
L 209.727613 141.389374 
L 210.352573 141.215272 
L 211.852477 140.703974 
L 212.566717 140.785771 
L 214.048765 141.018872 
L 216.20934 141.039958 
L 217.512829 141.274503 
L 218.173501 141.123453 
L 219.851965 140.604597 
L 220.494781 140.747551 
L 222.137533 141.235662 
L 222.941053 141.120245 
L 224.190973 140.945011 
L 226.547965 140.892324 
L 227.690749 140.711622 
L 228.387133 140.856389 
L 230.065596 141.325904 
L 230.744125 141.177996 
L 232.297597 140.747407 
L 233.118973 140.849001 
L 234.422461 141.013766 
L 236.708029 141.05423 
L 237.922236 141.22805 
L 238.654333 141.073454 
L 240.207805 140.660672 
L 240.904189 140.787243 
L 242.564797 141.197594 
L 243.475453 141.072254 
L 244.653949 140.951849 
L 246.885949 140.917726 
L 248.171581 140.75537 
L 248.939389 140.923577 
L 250.350013 141.2794 
L 251.064253 141.172343 
L 252.849853 140.782045 
L 253.921212 140.940251 
L 254.974717 141.003451 
L 256.921021 141.009056 
L 258.474492 141.182363 
L 259.331581 140.972655 
L 260.492221 140.703656 
L 261.224317 140.792678 
L 263.117052 141.164025 
L 269.188093 140.889915 
L 270.920125 141.237565 
L 271.741501 141.072695 
L 273.062845 140.804489 
L 274.009212 140.896574 
L 275.348412 141.001929 
L 277.401853 141.019647 
L 278.866045 141.159172 
L 279.776701 140.959499 
L 280.937341 140.734883 
L 281.723005 140.838325 
L 283.437181 141.146567 
L 284.704957 140.991336 
L 285.812028 140.976335 
L 287.401213 140.974542 
L 289.222525 140.831293 
L 290.365309 141.105826 
L 291.258109 141.212336 
L 292.115197 141.068718 
L 293.507965 140.822939 
L 294.579325 140.930528 
L 295.829245 140.996172 
L 297.757693 141.009395 
L 299.329021 141.13416 
L 300.364668 140.911988 
L 301.400317 140.76058 
L 302.257405 140.884555 
L 303.757309 141.131215 
L 304.953661 141.006824 
L 306.167869 140.974256 
L 307.882045 140.96452 
L 309.596221 140.843341 
L 310.792573 141.100075 
L 311.721085 141.186737 
L 312.667453 141.023659 
L 313.917373 140.838237 
L 315.095869 140.950149 
L 316.345789 140.98893 
L 318.113533 141.001225 
L 319.791996 141.112797 
L 321.041917 140.857645 
L 321.970429 140.788244 
L 323.006077 140.972232 
L 324.166717 141.117248 
L 325.505917 140.988883 
L 326.755837 140.985805 
L 328.273597 140.966747 
L 330.041341 140.861272 
L 332.755453 141.084595 
L 334.487485 140.854052 
L 340.826365 140.995593 
L 342.272701 140.800136 
L 343.272636 140.945955 
L 344.576124 141.105631 
L 346.147452 140.971569 
L 347.611645 141.007973 
L 348.897276 140.941102 
L 350.379325 140.86502 
L 351.843516 141.121137 
L 352.772029 141.132816 
L 355.593277 140.923286 
L 357.164605 140.986694 
L 359.003773 141.008703 
L 360.628669 141.087729 
L 363.414204 140.900843 
L 365.092669 141.093183 
L 371.449405 140.973353 
L 372.913597 141.140055 
L 374.038524 140.981515 
L 375.270589 140.872679 
L 381.770173 140.96633 
L 383.109373 140.827943 
L 384.270013 140.986438 
L 385.502077 141.084737 
L 391.823101 140.969692 
L 393.358717 141.126799 
L 394.626493 140.951006 
L 395.787132 140.884609 
L 401.626045 141.051428 
L 403.929468 140.872612 
L 406.322173 141.052688 
L 407.482813 140.968803 
L 407.482813 140.968803 
" clip-path="url(#p3218fb7506)" style="fill: none; stroke-dasharray: 5.55,2.4; stroke-dashoffset: 0; stroke: #ff7f0e; stroke-width: 1.5"/>
   </g>
   <g id="line2d_25">
    <path d="M 50.362813 141.008003 
L 51.380605 140.189211 
L 51.791293 140.150384 
L 52.201981 140.339375 
L 52.844797 140.932492 
L 53.594749 141.538158 
L 54.041149 141.623607 
L 54.505405 141.477356 
L 55.898173 140.878625 
L 56.469565 141.006983 
L 57.326653 141.206496 
L 57.755197 141.057067 
L 58.273021 140.610257 
L 59.147965 139.844478 
L 59.487229 139.844411 
L 59.808637 140.093547 
L 60.219325 140.750299 
L 61.522813 143.111552 
L 61.772797 143.1139 
L 62.022781 142.874783 
L 62.362045 142.184975 
L 62.951293 140.348757 
L 63.594109 138.576238 
L 63.915517 138.239804 
L 64.129789 138.300836 
L 64.379773 138.667102 
L 64.736893 139.662964 
L 65.826109 143.015283 
L 66.022525 143.032533 
L 66.201085 142.751233 
L 66.451069 141.82125 
L 66.772477 139.64615 
L 67.218877 134.872702 
L 67.915261 124.593529 
L 69.040188 108.324217 
L 69.611581 103.111514 
L 70.111549 100.426013 
L 70.59366 98.967511 
L 71.218621 97.811776 
L 72.004285 96.766576 
L 72.343549 96.61233 
L 72.593533 96.740831 
L 72.861373 97.190525 
L 73.182781 98.250027 
L 73.575613 100.414484 
L 74.075581 104.563391 
L 74.771965 112.462233 
L 76.057597 130.158483 
L 78.414589 165.726592 
L 79.432381 179.051401 
L 80.182333 186.126668 
L 80.843005 190.419237 
L 81.432253 192.939511 
L 81.896509 194.076482 
L 82.200061 194.360105 
L 82.414333 194.308508 
L 82.646461 193.99098 
L 82.950013 193.126603 
L 83.324989 191.301716 
L 83.789245 187.847878 
L 84.396349 181.476626 
L 85.235581 170.043837 
L 86.556925 148.63958 
L 89.788861 94.792294 
L 90.556669 86.774148 
L 91.235197 81.804776 
L 91.788733 79.192929 
L 92.181565 78.219473 
L 92.431549 78.03747 
L 92.627965 78.158342 
L 92.860093 78.622239 
L 93.163645 79.784132 
L 93.556477 82.257027 
L 94.056445 86.960848 
L 94.717117 95.522868 
L 95.645629 110.768326 
L 97.002685 137.016573 
L 99.734653 191.130305 
L 100.556028 202.138226 
L 101.288125 209.194199 
L 101.877373 213.010804 
L 102.305917 214.585718 
L 102.591612 214.971314 
L 102.770173 214.91041 
L 102.966589 214.555988 
L 103.234429 213.562581 
L 103.591549 211.289958 
L 104.055805 206.728178 
L 104.662909 198.297292 
L 105.50214 183.213462 
L 106.734205 156.709554 
L 108.609085 110.737525 
L 109.751869 85.704841 
L 110.591101 71.883521 
L 111.376765 62.398463 
L 112.037437 56.856205 
L 112.501693 54.566125 
L 112.805245 53.973627 
L 112.965948 53.993631 
L 113.144509 54.308922 
L 113.394493 55.296463 
L 113.733757 57.694936 
L 114.180157 62.694963 
L 114.769405 72.158896 
L 115.608637 89.664755 
L 116.894269 121.562302 
L 118.412029 165.147782 
L 119.715517 200.45228 
L 120.536893 216.936866 
L 121.376125 229.452688 
L 122.215357 238.962662 
L 122.751037 242.957104 
L 123.072445 244.07887 
L 123.251005 244.168702 
L 123.393853 243.931888 
L 123.608125 243.024741 
L 123.911677 240.547161 
L 124.304509 235.255342 
L 124.840189 224.675293 
L 125.715133 202.213097 
L 127.590013 147.757356 
L 128.714941 107.04149 
L 129.607741 77.631692 
L 130.054141 69.23416 
L 130.321981 67.273054 
L 130.411261 67.18267 
L 130.446973 67.22692 
L 130.571965 67.744246 
L 130.786237 69.927186 
L 131.089788 75.660932 
L 131.554045 89.318028 
L 133.268221 144.589341 
L 133.661053 149.483176 
L 133.928893 150.679062 
L 134.053885 150.721281 
L 134.071741 150.703438 
L 134.214589 150.366676 
L 134.464573 149.085428 
L 134.982397 144.915552 
L 135.660925 139.971303 
L 136.035901 138.642756 
L 136.285885 138.381467 
L 136.482301 138.47111 
L 136.767997 138.933392 
L 137.821501 140.934204 
L 138.089341 140.96179 
L 138.375037 140.736383 
L 138.946429 139.892397 
L 139.392829 139.428696 
L 139.660669 139.430247 
L 139.928509 139.692685 
L 140.285629 140.419151 
L 141.660541 143.642817 
L 141.892669 143.643895 
L 142.142652 143.382261 
L 142.481917 142.647958 
L 143.267581 140.199606 
L 143.785405 139.021139 
L 144.106813 138.752538 
L 144.356797 138.812603 
L 144.660348 139.162192 
L 145.178173 140.19175 
L 145.928125 141.590467 
L 146.320957 141.891839 
L 146.660221 141.8736 
L 147.106621 141.578763 
L 147.945853 141.005172 
L 148.356541 141.011604 
L 148.856509 141.273024 
L 149.624317 141.660705 
L 149.999293 141.590014 
L 150.392125 141.267765 
L 151.070652 140.345739 
L 151.659901 139.707453 
L 152.017021 139.620334 
L 152.338429 139.783881 
L 152.749117 140.285308 
L 154.124029 142.195977 
L 154.463293 142.228478 
L 154.820413 142.020674 
L 155.391805 141.366532 
L 156.159613 140.55979 
L 156.588157 140.408706 
L 157.034557 140.495 
L 158.480893 140.971966 
L 159.087997 140.775709 
L 159.891517 140.548217 
L 160.337917 140.662841 
L 160.873597 141.057907 
L 161.909244 141.861994 
L 162.302076 141.874527 
L 162.712764 141.645236 
L 163.319869 140.994427 
L 164.105533 140.220959 
L 164.534077 140.097246 
L 164.944765 140.221806 
L 165.534013 140.681541 
L 166.391101 141.311908 
L 166.891069 141.396269 
L 167.480317 141.245088 
L 168.480253 140.979037 
L 169.123068 141.084306 
L 170.194429 141.290309 
L 170.730109 141.118515 
L 172.479997 140.307266 
L 172.944253 140.513477 
L 173.712061 141.164976 
L 174.372733 141.602478 
L 174.836989 141.652657 
L 175.319101 141.470691 
L 176.961853 140.652054 
L 177.586813 140.749378 
L 178.783164 140.981396 
L 179.586685 140.832875 
L 180.408061 140.740601 
L 180.997309 140.909917 
L 182.604349 141.530111 
L 183.104317 141.369713 
L 183.907837 140.822435 
L 184.60422 140.461926 
L 185.104189 140.446518 
L 185.675581 140.667611 
L 186.979069 141.240969 
L 187.604029 141.210255 
L 189.228925 141.002314 
L 190.943101 141.117905 
L 191.764477 140.779723 
L 192.567996 140.522864 
L 193.103677 140.585185 
L 193.764349 140.91303 
L 194.799997 141.421585 
L 195.353533 141.42179 
L 196.032061 141.167061 
L 197.10342 140.767279 
L 197.781949 140.783304 
L 199.496125 140.954475 
L 201.085309 140.85475 
L 201.942397 141.149941 
L 202.799485 141.377681 
L 203.388733 141.292795 
L 204.210109 140.902631 
L 205.031485 140.592486 
L 205.620733 140.614683 
L 206.424253 140.905626 
L 207.352765 141.174783 
L 208.102717 141.13418 
L 209.584765 140.993631 
L 211.441789 141.055677 
L 213.441661 140.67298 
L 214.173757 140.944461 
L 215.245117 141.327202 
L 215.870077 141.292627 
L 216.887869 140.951397 
L 217.709245 140.800257 
L 218.602045 140.894861 
L 219.726973 140.974097 
L 221.744701 140.94116 
L 223.512445 141.275481 
L 224.244541 141.06334 
L 225.512316 140.664465 
L 226.172989 140.726502 
L 228.279997 141.128037 
L 230.387005 141.032527 
L 231.636925 141.071594 
L 232.708285 140.81023 
L 233.565373 140.703596 
L 234.279613 140.851958 
L 235.868797 141.27222 
L 236.618749 141.148459 
L 238.154365 140.832457 
L 239.279293 140.947456 
L 240.350653 140.958331 
L 241.957693 140.917368 
L 244.207549 141.170274 
L 246.475261 140.754656 
L 248.939389 141.076571 
L 250.528573 141.000493 
L 252.207037 141.031032 
L 254.349757 140.797047 
L 256.796029 141.167516 
L 258.885181 140.869339 
L 261.081469 140.932173 
L 262.331389 140.925454 
L 264.670525 141.12657 
L 266.795389 140.778291 
L 269.616637 141.03275 
L 270.955837 141.000007 
L 272.652157 141.015851 
L 274.705597 140.817373 
L 277.312572 141.119533 
L 279.151741 140.87686 
L 282.044413 140.904234 
L 283.097916 140.988131 
L 284.704957 141.157316 
L 285.704893 140.955841 
L 286.82982 140.782925 
L 287.758333 140.900056 
L 289.204669 141.083428 
L 293.775805 140.890584 
L 294.865021 140.81305 
L 295.864957 140.996399 
L 297.043453 141.167456 
L 298.007677 141.047112 
L 299.418301 140.885096 
L 304.132285 141.091377 
L 305.167933 141.130767 
L 306.364285 140.900528 
L 307.36422 140.808644 
L 308.489149 140.97108 
L 309.685501 141.070342 
L 316.167229 140.975393 
L 317.488573 141.146811 
L 318.577788 141.009136 
L 319.863421 140.896081 
L 326.487997 140.96131 
L 327.702204 140.824283 
L 328.844988 140.966127 
L 330.112765 141.060647 
L 336.487357 140.961844 
L 337.933693 141.129547 
L 339.165757 140.976895 
L 340.397821 140.908527 
L 343.433341 140.925696 
L 344.754685 141.049856 
L 345.986749 141.100147 
L 349.05798 140.940388 
L 350.540029 141.052578 
L 356.807484 140.950778 
L 358.396669 141.114044 
L 359.985853 140.930326 
L 361.235773 140.939144 
L 363.092797 140.951986 
L 364.628412 140.981057 
L 366.503293 141.079045 
L 369.217405 140.911877 
L 371.056573 141.04233 
L 373.895677 141.029637 
L 375.288445 140.927774 
L 376.627644 140.88069 
L 379.591741 141.024804 
L 381.216637 140.920922 
L 387.180541 141.039229 
L 389.216125 140.876959 
L 392.180221 140.99844 
L 393.947965 141.017916 
L 395.412157 140.961574 
L 397.072765 140.892352 
L 399.911869 141.030735 
L 401.679612 140.9278 
L 404.661565 140.938622 
L 406.357885 141.071552 
L 407.482813 141.045966 
L 407.482813 141.045966 
" clip-path="url(#p3218fb7506)" style="fill: none; stroke: #2ca02c; stroke-width: 1.5; stroke-linecap: square"/>
   </g>
   <g id="line2d_26">
    <path d="M 50.362813 140.989107 
L 50.969917 140.926479 
L 51.827005 141.116856 
L 52.451965 141.143807 
L 52.987645 140.927045 
L 54.380413 140.206116 
L 54.773245 140.352546 
L 55.237501 140.795809 
L 56.487421 142.130095 
L 56.826685 142.135654 
L 57.183805 141.900167 
L 57.683773 141.258963 
L 58.594429 140.094078 
L 58.969405 139.951856 
L 59.326525 140.058906 
L 59.826493 140.491691 
L 60.630013 141.162811 
L 61.022845 141.201983 
L 61.469245 140.998396 
L 62.237053 140.632074 
L 62.540605 140.746605 
L 62.862013 141.13047 
L 63.308413 142.071603 
L 64.111933 143.787882 
L 64.344061 143.850369 
L 64.522621 143.640555 
L 64.754749 142.955635 
L 65.058301 141.246694 
L 65.451132 137.554879 
L 65.986812 130.058688 
L 67.683132 104.418407 
L 68.040253 102.422687 
L 68.254525 102.110751 
L 68.379517 102.231151 
L 68.575933 102.849117 
L 68.879485 104.73923 
L 69.325885 109.156976 
L 70.165117 120.209597 
L 74.289853 176.150233 
L 74.986237 182.316488 
L 75.611197 186.004879 
L 76.218301 188.333333 
L 76.736125 189.53851 
L 77.093245 189.914574 
L 77.343229 189.904977 
L 77.575357 189.656751 
L 77.861052 188.988246 
L 78.218173 187.521134 
L 78.664573 184.629588 
L 79.235965 179.268599 
L 80.021629 169.507857 
L 81.325117 150.122921 
L 84.824893 96.687911 
L 85.556989 90.050788 
L 86.217661 85.92853 
L 86.753341 83.827808 
L 87.128317 83.087108 
L 87.378301 82.976373 
L 87.574717 83.127742 
L 87.824701 83.6481 
L 88.146108 84.892265 
L 88.556797 87.464617 
L 89.074621 92.251168 
L 89.753149 100.775139 
L 90.735229 116.20815 
L 92.181565 142.677301 
L 94.467133 184.899556 
L 95.306365 195.951139 
L 96.038461 202.906722 
L 96.663421 206.948444 
L 97.127677 208.714796 
L 97.449085 209.214296 
L 97.645501 209.190804 
L 97.841917 208.897996 
L 98.109757 208.040155 
L 98.466877 206.03855 
L 98.913277 202.151956 
L 99.502525 194.853884 
L 100.306045 181.813598 
L 101.484541 158.704298 
L 103.163004 120.966779 
L 104.52006 92.261145 
L 105.395005 78.28233 
L 106.162813 69.312433 
L 106.823485 63.922895 
L 107.305597 61.528622 
L 107.627004 60.813247 
L 107.823421 60.775099 
L 108.001981 61.025496 
L 108.251965 61.858167 
L 108.591228 63.925137 
L 109.019773 68.084515 
L 109.591165 76.100996 
L 110.376829 90.669081 
L 111.555325 117.132105 
L 113.019517 155.217415 
L 114.626557 196.074463 
L 115.483644 212.275354 
L 116.305021 223.743312 
L 117.037117 231.145627 
L 117.554941 234.45959 
L 117.894205 235.443967 
L 118.072765 235.503454 
L 118.233469 235.258003 
L 118.465597 234.371711 
L 118.787005 232.059649 
L 119.197693 227.266939 
L 119.751229 217.864889 
L 120.572605 199.520142 
L 121.947517 163.216301 
L 123.268861 122.447507 
L 124.715197 78.832366 
L 125.465148 62.890378 
L 126.304381 49.932827 
L 128.072125 26.584649 
L 128.411389 24.65736 
L 128.554237 24.507056 
L 128.572092 24.520082 
L 128.697085 24.822821 
L 128.893501 26.096348 
L 129.16134 29.534676 
L 129.518461 37.309768 
L 130.000573 53.185911 
L 130.875517 91.149097 
L 131.714748 123.55191 
L 132.214717 135.23743 
L 132.589693 139.691513 
L 132.875389 140.955851 
L 133.036092 141.032365 
L 133.196797 140.764746 
L 133.500349 139.656928 
L 134.232444 136.895098 
L 134.464573 136.714012 
L 134.625277 136.872755 
L 134.857405 137.506048 
L 135.214525 139.258985 
L 136.428733 145.87834 
L 136.678717 146.18174 
L 136.839421 146.090593 
L 137.053693 145.637608 
L 137.392957 144.271898 
L 138.857148 137.493331 
L 139.107133 137.332684 
L 139.303549 137.476652 
L 139.589245 138.04266 
L 140.107069 139.70602 
L 140.821309 141.808729 
L 141.178428 142.283184 
L 141.464125 142.338086 
L 141.767676 142.142949 
L 143.106876 140.982617 
L 143.463997 141.133646 
L 144.749629 141.917642 
L 145.071036 141.697407 
L 145.481725 141.104836 
L 146.660221 139.229685 
L 146.963773 139.184257 
L 147.249469 139.389593 
L 147.624445 139.976267 
L 149.052925 142.540701 
L 149.356477 142.579217 
L 149.660029 142.384459 
L 150.124284 141.766942 
L 151.088509 140.449294 
L 151.481341 140.275559 
L 151.874173 140.347744 
L 152.606269 140.788636 
L 153.159805 140.980927 
L 153.624061 140.904427 
L 155.016829 140.48461 
L 155.445373 140.733132 
L 156.106044 141.434757 
L 156.748861 142.004069 
L 157.123837 142.071094 
L 157.480957 141.902324 
L 157.945213 141.398808 
L 159.105853 140.030904 
L 159.480829 139.943932 
L 159.855805 140.088952 
L 160.409341 140.590838 
L 161.284285 141.355194 
L 161.74854 141.463854 
L 162.266365 141.337851 
L 163.427005 140.97898 
L 164.016253 141.096151 
L 165.069757 141.342154 
L 165.551869 141.190206 
L 166.212541 140.712437 
L 166.980349 140.229977 
L 167.408893 140.21744 
L 167.837437 140.435876 
L 168.533821 141.099864 
L 169.248061 141.668171 
L 169.694461 141.746161 
L 170.140861 141.586394 
L 170.980093 140.968808 
L 171.622909 140.64674 
L 172.140733 140.633001 
L 173.033533 140.898385 
L 173.729917 140.978622 
L 174.51558 140.808628 
L 175.301244 140.710344 
L 175.854781 140.876155 
L 177.551101 141.584804 
L 178.033213 141.399453 
L 178.854589 140.776283 
L 179.515261 140.407985 
L 179.997373 140.389448 
L 180.533053 140.607202 
L 181.907965 141.268295 
L 182.515069 141.230517 
L 184.104253 141.00056 
L 185.854141 141.129747 
L 186.639805 140.777593 
L 187.443325 140.485238 
L 187.961149 140.53404 
L 188.568253 140.83942 
L 189.728893 141.463623 
L 190.246717 141.461433 
L 190.889533 141.207819 
L 192.014461 140.749717 
L 192.657277 140.762903 
L 194.425021 140.948603 
L 195.942781 140.834257 
L 196.710589 141.10287 
L 197.674813 141.405761 
L 198.246205 141.332421 
L 198.978301 140.975453 
L 199.906813 140.56997 
L 200.478205 140.578023 
L 201.210301 140.846352 
L 202.210237 141.18224 
L 202.906621 141.161279 
L 204.585085 141.004995 
L 206.209981 141.092821 
L 207.138493 140.786137 
L 207.942013 140.609162 
L 208.549116 140.711002 
L 209.566909 141.176903 
L 210.263293 141.359744 
L 210.870397 141.287353 
L 212.977405 140.807161 
L 215.048701 140.92677 
L 216.280765 140.864015 
L 217.155709 141.096425 
L 218.137788 141.310231 
L 218.780605 141.207703 
L 220.834045 140.663247 
L 221.655421 140.898801 
L 222.691069 141.147949 
L 223.530301 141.089593 
L 224.869501 140.990869 
L 226.797949 141.028775 
L 228.690685 140.713951 
L 229.476349 140.956297 
L 230.583421 141.280272 
L 231.261949 141.224917 
L 233.422525 140.845575 
L 235.422397 140.939424 
L 236.761597 140.898975 
L 237.957949 141.179614 
L 238.761469 141.23845 
L 239.529277 141.053264 
L 240.868477 140.70416 
L 241.600573 140.792004 
L 243.386173 141.120652 
L 248.082301 140.813917 
L 248.939389 140.744493 
L 249.742909 140.921609 
L 251.082109 141.23584 
L 251.849917 141.142109 
L 253.546237 140.851552 
L 258.099517 141.098382 
L 259.081597 141.202654 
L 259.902973 141.046075 
L 261.313597 140.74539 
L 262.134973 140.852678 
L 263.688445 141.10239 
L 268.045309 140.924561 
L 269.277373 140.775831 
L 270.134461 140.930971 
L 271.527228 141.20036 
L 272.384317 141.088839 
L 273.884221 140.868156 
L 278.276797 141.041046 
L 279.508861 141.170673 
L 280.419516 141.004661 
L 281.723005 140.77639 
L 282.615805 140.888019 
L 284.097853 141.086797 
L 288.615421 140.898902 
L 289.740349 140.80585 
L 290.704573 140.98133 
L 291.918781 141.173334 
L 292.847293 141.061574 
L 294.311485 140.88209 
L 298.954045 141.082174 
L 300.007548 141.140894 
L 301.078909 140.939486 
L 302.168125 140.800623 
L 303.168061 140.928951 
L 304.525117 141.074395 
L 309.310525 140.863041 
L 310.310461 140.840193 
L 311.685373 141.09987 
L 312.631741 141.138127 
L 315.863676 140.968072 
L 317.274301 140.940117 
L 318.631357 140.966537 
L 320.595517 141.104915 
L 323.273917 140.886911 
L 325.095229 141.059558 
L 327.987901 141.04087 
L 329.202109 140.944634 
L 330.630589 140.848063 
L 331.898364 141.059336 
L 332.934012 141.128762 
L 334.433917 140.929965 
L 335.594557 140.923622 
L 337.576572 140.949588 
L 339.058621 140.971828 
L 341.022781 141.089304 
L 343.647613 140.892905 
L 345.558204 141.049468 
L 348.236604 141.032333 
L 349.522237 140.957687 
L 351.075709 140.864114 
L 354.200509 141.01455 
L 355.646845 140.911573 
L 361.878588 141.015475 
L 363.521341 140.852321 
L 369.163837 141.02478 
L 372.377916 140.997834 
L 373.699261 141.105603 
L 379.627453 140.954478 
L 382.145149 141.031618 
L 384.055741 140.870377 
L 387.305533 140.988379 
L 389.216125 141.026876 
L 390.662461 140.922397 
L 391.983805 140.891515 
L 394.787197 141.034826 
L 396.572796 140.9265 
L 399.554749 140.937713 
L 401.197501 141.068785 
L 402.375997 141.048064 
L 404.661565 140.894956 
L 407.143549 141.015535 
L 407.482813 140.997257 
L 407.482813 140.997257 
" clip-path="url(#p3218fb7506)" style="fill: none; stroke-dasharray: 5.55,2.4; stroke-dashoffset: 0; stroke: #2ca02c; stroke-width: 1.5"/>
   </g>
   <g id="line2d_27">
    <path d="M 50.362813 141.025526 
L 52.612669 140.912816 
L 55.112509 141.01145 
L 57.273085 141.00821 
L 58.897981 140.933165 
L 60.326461 140.919369 
L 62.772733 141.047997 
L 64.754749 140.911652 
L 66.754621 140.957071 
L 68.093821 140.613643 
L 69.361597 140.394669 
L 73.182781 140.169766 
L 74.932669 140.560191 
L 78.021757 141.343972 
L 79.432381 141.614601 
L 83.164285 141.959464 
L 84.503485 141.637428 
L 90.753084 140.063305 
L 92.877949 139.787438 
L 93.842173 139.95409 
L 97.056253 140.928859 
L 99.823933 141.851824 
L 103.091581 142.366795 
L 104.020093 142.184116 
L 106.698493 141.27062 
L 108.484093 140.47221 
L 109.787581 140.014834 
L 112.733821 139.369123 
L 113.590909 139.411861 
L 114.572989 139.705871 
L 117.554941 140.961598 
L 119.983357 142.114481 
L 122.572477 142.812476 
L 123.447421 142.85845 
L 124.268797 142.672253 
L 125.625853 142.084853 
L 127.911421 140.906629 
L 130.018428 139.715393 
L 131.839741 139.097281 
L 133.161085 138.787755 
L 133.928893 138.842119 
L 134.768124 139.136736 
L 136.607293 140.105749 
L 138.125053 141.078638 
L 140.178493 142.445639 
L 141.696253 143.070635 
L 143.196157 143.52283 
L 143.946109 143.511479 
L 144.696061 143.270494 
L 145.838845 142.628345 
L 147.910141 141.211843 
L 150.767101 139.049146 
L 152.534845 138.253458 
L 153.499069 138.00025 
L 154.195452 138.042609 
L 154.927549 138.3244 
L 155.998909 139.016094 
L 157.891645 140.509285 
L 161.266429 143.430601 
L 162.927037 144.262509 
L 163.766269 144.468092 
L 164.426941 144.399627 
L 165.123325 144.087621 
L 166.105405 143.367292 
L 167.837437 141.799064 
L 169.301628 140.145213 
L 170.658685 138.725089 
L 171.801468 137.877626 
L 173.212093 137.09775 
L 173.962045 136.90873 
L 174.587005 136.979923 
L 175.229821 137.288448 
L 176.086908 137.975065 
L 177.604669 139.520577 
L 178.908157 141.143392 
L 180.908029 143.674809 
L 182.015101 144.641897 
L 183.300733 145.47922 
L 184.050684 145.728319 
L 184.639933 145.696284 
L 185.229181 145.434355 
L 185.943421 144.855262 
L 187.086205 143.597893 
L 188.478972 141.756594 
L 191.764477 137.104149 
L 192.960829 136.063712 
L 193.853629 135.538077 
L 194.460733 135.417012 
L 194.996413 135.529933 
L 195.567805 135.884571 
L 196.299901 136.623072 
L 197.460541 138.154779 
L 198.764028 140.2215 
L 201.817405 145.355917 
L 202.924477 146.544816 
L 203.852989 147.25466 
L 204.477948 147.47539 
L 204.995773 147.429518 
L 205.513597 147.154382 
L 206.138556 146.546215 
L 207.013501 145.343508 
L 208.299133 143.170159 
L 209.602621 140.511809 
L 211.441789 136.759232 
L 212.459581 135.237854 
L 213.495229 134.072341 
L 214.245181 133.522775 
L 214.798717 133.376331 
L 215.280829 133.479425 
L 215.780797 133.825032 
L 216.387901 134.535361 
L 217.244989 135.919561 
L 218.459197 138.326607 
L 219.744829 141.384706 
L 221.673277 145.991192 
L 222.673213 147.74588 
L 223.655293 149.044214 
L 224.387389 149.681874 
L 224.923069 149.872102 
L 225.369469 149.802983 
L 225.833725 149.495419 
L 226.387261 148.834758 
L 227.119357 147.577321 
L 228.190717 145.248744 
L 229.422781 142.030448 
L 232.315453 134.124986 
L 233.297533 132.321988 
L 234.154621 131.171022 
L 234.761725 130.686914 
L 235.225981 130.576572 
L 235.636669 130.699859 
L 236.083069 131.078052 
L 236.636605 131.873853 
L 237.368701 133.361984 
L 238.422205 136.062231 
L 239.636413 139.799805 
L 242.493373 148.967165 
L 243.457597 151.069905 
L 244.296829 152.410191 
L 244.903933 153.000008 
L 245.350333 153.155294 
L 245.743165 153.062175 
L 246.153853 152.722688 
L 246.653821 151.989245 
L 247.296637 150.610826 
L 248.207293 148.071691 
L 249.367932 144.14621 
L 250.885693 138.115083 
L 252.278461 132.90315 
L 253.260541 130.076876 
L 254.153341 128.145916 
L 254.831869 127.152155 
L 255.313981 126.786817 
L 255.706813 126.747904 
L 256.081789 126.949498 
L 256.510333 127.469606 
L 257.028157 128.480909 
L 257.72454 130.377205 
L 258.688765 133.704562 
L 259.867261 138.59696 
L 263.081341 152.594217 
L 264.009853 155.253294 
L 264.759805 156.793511 
L 265.295485 157.458787 
L 265.706173 157.654898 
L 266.045437 157.582332 
L 266.402557 157.264323 
L 266.831101 156.559548 
L 267.384637 155.176201 
L 268.134589 152.630252 
L 269.152381 148.317346 
L 270.366589 142.164405 
L 272.937853 128.753471 
L 273.884221 125.230438 
L 274.687741 123.012246 
L 275.294845 121.910005 
L 275.741244 121.508142 
L 276.080509 121.475512 
L 276.401916 121.679324 
L 276.776893 122.211159 
L 277.241149 123.290056 
L 277.848253 125.311563 
L 278.687484 128.965583 
L 279.776701 134.769392 
L 281.169468 143.516777 
L 282.865789 153.912866 
L 283.830013 158.453267 
L 284.669245 161.433082 
L 285.329917 163.045735 
L 285.794173 163.682872 
L 286.151293 163.838225 
L 286.436989 163.732361 
L 286.758397 163.359225 
L 287.169085 162.494281 
L 287.686909 160.828501 
L 288.383293 157.752147 
L 289.329661 152.454886 
L 290.4903 144.634079 
L 293.632957 122.522019 
L 294.525757 118.297042 
L 295.257853 115.79282 
L 295.793533 114.642843 
L 296.186365 114.252566 
L 296.47206 114.240952 
L 296.757757 114.472466 
L 297.09702 115.068652 
L 297.543421 116.369369 
L 298.114813 118.802904 
L 298.882621 123.150864 
L 299.900413 130.293592 
L 301.168189 140.876422 
L 303.382333 159.581951 
L 304.346557 165.644791 
L 305.150077 169.409709 
L 305.775037 171.385576 
L 306.221437 172.156623 
L 306.524989 172.324939 
L 306.774972 172.229363 
L 307.060669 171.851906 
L 307.435645 170.921393 
L 307.917756 169.034259 
L 308.542716 165.583246 
L 309.381949 159.581347 
L 310.471164 150.072245 
L 311.988925 134.579473 
L 313.488829 119.973668 
L 314.453053 112.67609 
L 315.274428 108.013419 
L 315.899389 105.574907 
L 316.363645 104.537786 
L 316.685052 104.27383 
L 316.917181 104.334624 
L 317.185021 104.677299 
L 317.524285 105.53454 
L 317.970685 107.360541 
L 318.542077 110.737355 
L 319.309885 116.742607 
L 320.327677 126.604302 
L 321.613309 141.404583 
L 323.756029 166.267271 
L 324.720253 174.664833 
L 325.523773 179.8843 
L 326.148733 182.634714 
L 326.595132 183.72675 
L 326.898685 183.985634 
L 327.112956 183.913648 
L 327.362941 183.553445 
L 327.684349 182.648742 
L 328.112893 180.68954 
L 328.666429 177.00136 
L 329.398525 170.494556 
L 330.380605 159.620392 
L 331.612669 143.330976 
L 334.094653 109.774775 
L 335.023165 100.623644 
L 335.808829 94.877017 
L 336.398077 91.990963 
L 336.826621 90.842574 
L 337.112317 90.589908 
L 337.308733 90.671975 
L 337.540861 91.04685 
L 337.862269 92.068338 
L 338.272957 94.203893 
L 338.808637 98.270878 
L 339.522877 105.546207 
L 340.487101 117.842291 
L 341.683453 136.109318 
L 344.397565 178.872159 
L 345.326076 189.255236 
L 346.093885 195.569607 
L 346.665277 198.660689 
L 347.075965 199.828896 
L 347.343805 200.046341 
L 347.522365 199.936058 
L 347.754492 199.477764 
L 348.0759 198.24978 
L 348.486589 195.701891 
L 349.040125 190.687616 
L 349.772221 181.801078 
L 350.7543 166.95418 
L 351.968509 145.037491 
L 354.521917 97.734006 
L 355.450429 85.343699 
L 356.236093 77.532174 
L 356.825341 73.58979 
L 357.236028 72.072031 
L 357.503869 71.717383 
L 357.682429 71.781661 
L 357.896701 72.188377 
L 358.182397 73.298999 
L 358.575229 75.872658 
L 359.093052 80.979064 
L 359.771581 90.102934 
L 360.717949 106.134043 
L 361.878588 129.759008 
L 365.021245 196.678487 
L 365.931901 209.630457 
L 366.681852 217.441251 
L 367.217533 220.997481 
L 367.574653 222.160646 
L 367.788925 222.324909 
L 367.949629 222.167942 
L 368.163901 221.573212 
L 368.467453 219.967694 
L 368.878141 216.407513 
L 369.413821 209.609916 
L 370.163773 196.934768 
L 371.217277 174.993843 
L 372.431485 144.846622 
L 374.824188 83.763801 
L 375.752701 66.811908 
L 376.645501 54.266026 
L 377.288317 47.90684 
L 377.716861 45.536955 
L 377.984701 45.033032 
L 378.127549 45.107708 
L 378.306109 45.554144 
L 378.573949 46.977168 
L 378.931069 50.269745 
L 379.413181 57.031412 
L 380.109565 70.390762 
L 381.234492 96.890158 
L 382.412989 129.66347 
L 385.162813 210.426164 
L 386.127037 228.178343 
L 387.948349 257.648215 
L 388.287613 259.958884 
L 388.43046 260.179589 
L 388.466172 260.155522 
L 388.591165 259.806412 
L 388.78758 258.378484 
L 389.073277 254.26425 
L 389.448253 245.148057 
L 389.966076 226.469112 
L 391.894524 150.654961 
L 392.323068 143.716712 
L 392.644476 141.403424 
L 392.876605 140.94318 
L 393.019453 141.036869 
L 393.233724 141.548529 
L 394.215804 144.360176 
L 394.376508 144.308273 
L 394.572924 143.958469 
L 394.876477 142.854412 
L 395.447869 139.670423 
L 396.054973 136.720735 
L 396.358525 136.095438 
L 396.537085 136.073984 
L 396.715645 136.310841 
L 396.983485 137.10806 
L 397.429885 139.289994 
L 398.376253 143.982846 
L 398.715517 144.660135 
L 398.929788 144.706888 
L 399.144061 144.477093 
L 399.465469 143.70977 
L 400.304701 140.810468 
L 400.786812 139.683925 
L 401.108221 139.405561 
L 401.37606 139.45109 
L 401.715325 139.776053 
L 402.804541 140.988083 
L 403.143805 140.990977 
L 403.554493 140.748235 
L 404.393725 140.213817 
L 404.715132 140.281421 
L 405.072253 140.610935 
L 405.625788 141.501857 
L 406.340029 142.551688 
L 406.679293 142.694679 
L 406.964989 142.566131 
L 407.304253 142.133084 
L 407.482813 141.807627 
L 407.482813 141.807627 
" clip-path="url(#p3218fb7506)" style="fill: none; stroke: #d62728; stroke-width: 1.5; stroke-linecap: square"/>
   </g>
   <g id="line2d_28">
    <path d="M 50.362813 140.994291 
L 52.541245 141.011034 
L 64.040509 141.063691 
L 65.094013 141.056685 
L 65.968957 140.808579 
L 67.700989 140.251551 
L 68.522365 140.28695 
L 70.415101 140.703254 
L 73.004221 141.338052 
L 74.432701 141.582221 
L 78.218173 141.865427 
L 79.914493 141.463278 
L 82.967869 140.636407 
L 84.378493 140.318382 
L 88.038972 139.895399 
L 89.128189 140.133162 
L 93.467197 141.483457 
L 94.806397 141.79794 
L 98.145469 142.253052 
L 99.145405 142.029415 
L 102.591612 140.853259 
L 104.52006 140.129901 
L 107.466301 139.50474 
L 108.376957 139.508003 
L 109.341181 139.75566 
L 112.358845 140.916736 
L 115.019389 142.064914 
L 117.876349 142.724695 
L 118.715581 142.668567 
L 119.679805 142.357917 
L 122.483197 141.097926 
L 125.268733 139.690931 
L 127.822141 138.976286 
L 128.643517 138.967335 
L 129.464893 139.191461 
L 130.929085 139.884421 
L 132.911101 140.994479 
L 135.178812 142.378312 
L 136.982269 143.039928 
L 138.214333 143.346275 
L 138.964285 143.303812 
L 139.767805 143.02338 
L 141.231997 142.213579 
L 142.999741 141.051298 
L 145.446012 139.307663 
L 147.088765 138.595526 
L 148.302973 138.233507 
L 149.035069 138.247655 
L 149.767165 138.493661 
L 150.820669 139.116539 
L 152.838397 140.584387 
L 156.106044 143.207414 
L 157.873789 144.028193 
L 158.713021 144.210748 
L 159.391548 144.128688 
L 160.123645 143.797116 
L 161.230717 143.00874 
L 162.998461 141.485007 
L 166.319677 138.354619 
L 167.873149 137.494155 
L 168.748093 137.224384 
L 169.390909 137.253103 
L 170.033725 137.508985 
L 170.872957 138.109176 
L 172.408573 139.535365 
L 173.729917 141.032819 
L 175.854781 143.512925 
L 176.997565 144.414043 
L 178.318909 145.188217 
L 179.051005 145.382258 
L 179.658109 145.313183 
L 180.283069 145.00479 
L 181.086589 144.334493 
L 182.461501 142.854147 
L 183.782845 141.132794 
L 186.175549 137.884303 
L 187.300477 136.861498 
L 188.461117 136.079418 
L 189.175357 135.845179 
L 189.746749 135.887681 
L 190.318141 136.160295 
L 191.014524 136.759156 
L 192.085885 138.015388 
L 193.460797 139.955473 
L 195.174973 142.849499 
L 196.335613 144.562236 
L 197.406973 145.735453 
L 198.514045 146.637701 
L 199.228285 146.959822 
L 199.781821 146.973757 
L 200.317501 146.754729 
L 200.924605 146.246516 
L 201.763837 145.217553 
L 203.049469 143.255351 
L 204.317245 140.919766 
L 206.442109 136.924608 
L 207.477757 135.54242 
L 208.531261 134.489034 
L 209.263357 134.038824 
L 209.799036 133.950718 
L 210.299005 134.097792 
L 210.834685 134.50468 
L 211.513213 135.329308 
L 212.513149 136.939555 
L 213.780925 139.402693 
L 215.370109 143.064459 
L 216.620029 145.695201 
L 217.619965 147.28941 
L 218.6199 148.48973 
L 219.334141 149.04639 
L 219.869821 149.204596 
L 220.334077 149.113636 
L 220.816189 148.78158 
L 221.405437 148.076448 
L 222.208956 146.723659 
L 223.369597 144.296094 
L 224.619517 141.159172 
L 226.905085 135.276035 
L 227.905021 133.437119 
L 228.851389 132.136507 
L 229.529917 131.538442 
L 230.029885 131.363909 
L 230.458429 131.436865 
L 230.904829 131.745899 
L 231.440508 132.413148 
L 232.154749 133.705417 
L 233.17254 136.056918 
L 234.386749 139.430876 
L 237.582973 148.779417 
L 238.547197 150.613117 
L 239.350717 151.708814 
L 239.922109 152.150257 
L 240.368509 152.231942 
L 240.779197 152.072876 
L 241.225597 151.638972 
L 241.779133 150.754492 
L 242.511229 149.124308 
L 243.546877 146.233567 
L 244.761085 142.169183 
L 247.546621 132.460431 
L 248.510845 130.148117 
L 249.350077 128.671058 
L 249.957181 128.007802 
L 250.403581 127.814889 
L 250.778557 127.880705 
L 251.171389 128.18662 
L 251.635645 128.853428 
L 252.242749 130.161476 
L 253.064125 132.512313 
L 254.171197 136.39382 
L 255.474685 141.822831 
L 257.36742 149.686537 
L 258.3495 152.762096 
L 259.224445 154.824938 
L 259.902973 155.916128 
L 260.385085 156.326699 
L 260.760061 156.388139 
L 261.117181 156.215176 
L 261.510013 155.757842 
L 262.00998 154.792006 
L 262.652797 153.016753 
L 263.545596 149.835986 
L 264.68838 144.897469 
L 266.277565 136.876083 
L 267.634621 130.501619 
L 268.598845 127.005131 
L 269.455933 124.673965 
L 270.098749 123.487473 
L 270.563005 123.025165 
L 270.920125 122.941438 
L 271.241533 123.087906 
L 271.616509 123.532386 
L 272.080764 124.477679 
L 272.670013 126.230885 
L 273.473533 129.381502 
L 274.544893 134.54219 
L 275.866237 142.09174 
L 277.794685 153.068527 
L 278.758909 157.224366 
L 279.59814 159.947703 
L 280.258813 161.413374 
L 280.723069 161.980555 
L 281.080189 162.104075 
L 281.383741 161.97441 
L 281.723005 161.565319 
L 282.151548 160.656862 
L 282.705084 158.895232 
L 283.437181 155.748871 
L 284.437117 150.380579 
L 285.651324 142.579442 
L 288.258301 125.354145 
L 289.186813 120.967057 
L 289.972477 118.216812 
L 290.561725 116.852361 
L 290.990269 116.335534 
L 291.311677 116.253632 
L 291.597373 116.418035 
L 291.936637 116.91123 
L 292.365181 117.987735 
L 292.918717 120.059893 
L 293.650813 123.752641 
L 294.632893 129.936934 
L 295.847101 139.080336 
L 298.454077 159.270552 
L 299.382588 164.427393 
L 300.168252 167.650597 
L 300.7575 169.242576 
L 301.186045 169.843334 
L 301.489597 169.940933 
L 301.757437 169.784327 
L 302.078845 169.287418 
L 302.489532 168.167612 
L 303.007357 166.037147 
L 303.703741 162.121286 
L 304.632253 155.516107 
L 305.792892 145.58042 
L 308.935549 117.537323 
L 309.828349 112.174854 
L 310.542589 109.077717 
L 311.078269 107.612927 
L 311.453244 107.121276 
L 311.721085 107.072502 
L 311.971069 107.26766 
L 312.274621 107.824146 
L 312.667453 109.058554 
L 313.185276 111.511261 
L 313.863805 115.91986 
L 314.774461 123.425861 
L 315.917245 134.78403 
L 319.220605 169.134325 
L 320.095549 175.141003 
L 320.791933 178.563237 
L 321.309757 180.143768 
L 321.666877 180.655639 
L 321.91686 180.701221 
L 322.148989 180.50056 
L 322.434685 179.925242 
L 322.809661 178.624211 
L 323.309629 175.982034 
L 323.970301 171.130214 
L 324.845245 162.900252 
L 325.970172 150.068792 
L 329.630652 106.113604 
L 330.469885 99.806935 
L 331.130557 96.347026 
L 331.612669 94.864042 
L 331.934077 94.453952 
L 332.148349 94.461889 
L 332.380476 94.735592 
L 332.684029 95.516793 
L 333.076861 97.230881 
L 333.594685 100.61854 
L 334.273212 106.690901 
L 335.183869 117.017221 
L 336.326653 132.633505 
L 339.612156 179.5404 
L 340.487101 187.801483 
L 341.183485 192.523697 
L 341.701309 194.71983 
L 342.058428 195.442929 
L 342.290556 195.526382 
L 342.486972 195.346242 
L 342.754813 194.720918 
L 343.111933 193.205044 
L 343.576189 190.119748 
L 344.183292 184.416699 
L 345.004668 174.371491 
L 346.076029 158.326512 
L 347.486652 133.496272 
L 349.165117 104.739058 
L 350.129341 91.998609 
L 350.950716 83.815456 
L 351.593533 79.376577 
L 352.057789 77.525519 
L 352.36134 77.045168 
L 352.557756 77.070452 
L 352.754172 77.370946 
L 353.039869 78.308465 
L 353.414845 80.432054 
L 353.914813 84.7425 
L 354.575485 92.629256 
L 355.468284 106.21181 
L 356.593213 126.872936 
L 360.182268 196.275278 
L 361.039357 206.742967 
L 361.717885 212.644797 
L 362.199996 215.191464 
L 362.521405 215.954909 
L 362.717821 216.011218 
L 362.896381 215.778144 
L 363.146365 214.985417 
L 363.485629 213.036488 
L 363.932029 209.005682 
L 364.521276 201.461306 
L 365.342652 187.783872 
L 366.431869 165.685534 
L 367.753213 134.007753 
L 369.520957 92.116525 
L 370.485181 74.758279 
L 371.360124 62.742762 
L 372.038653 56.114814 
L 372.502908 53.451024 
L 372.806461 52.754712 
L 372.967165 52.761276 
L 373.145725 53.089506 
L 373.395708 54.130988 
L 373.734973 56.630763 
L 374.199229 61.9625 
L 374.824188 72.037926 
L 375.734845 90.69793 
L 376.913341 119.54416 
L 378.306109 159.771845 
L 379.645309 196.453128 
L 380.555965 215.399354 
L 381.573757 231.951515 
L 382.359421 241.674177 
L 382.823677 245.098796 
L 383.109373 245.918642 
L 383.252221 245.896285 
L 383.412925 245.502108 
L 383.645053 244.218874 
L 383.966461 241.042584 
L 384.412861 234.126777 
L 385.073533 219.871852 
L 386.591293 180.698342 
L 387.626941 149.582404 
L 389.841085 78.265364 
L 390.144637 75.505834 
L 390.269629 75.289579 
L 390.305341 75.328453 
L 390.430333 75.816465 
L 390.644605 77.904842 
L 390.966013 83.794361 
L 391.448125 97.512583 
L 392.965885 143.995107 
L 393.376573 149.495297 
L 393.662268 150.946549 
L 393.787261 151.036683 
L 393.822972 151.007906 
L 393.965821 150.673279 
L 394.215804 149.379239 
L 394.697917 145.405939 
L 395.447869 139.6077 
L 395.822845 138.206805 
L 396.072829 137.923805 
L 396.251389 137.996347 
L 396.501373 138.391034 
L 397.09062 139.910455 
L 397.572733 140.84466 
L 397.876284 141.031642 
L 398.144125 140.934668 
L 398.536956 140.490499 
L 399.215485 139.746394 
L 399.501181 139.748857 
L 399.769021 139.998556 
L 400.143996 140.717399 
L 401.411773 143.482092 
L 401.661757 143.510166 
L 401.911741 143.277313 
L 402.251005 142.588819 
L 402.911676 140.582362 
L 403.500924 139.092948 
L 403.840189 138.726692 
L 404.090172 138.735061 
L 404.358013 138.986983 
L 404.768701 139.734858 
L 405.840061 141.816116 
L 406.197181 142.040084 
L 406.518589 141.991623 
L 406.964989 141.656619 
L 407.482813 141.186358 
L 407.482813 141.186358 
" clip-path="url(#p3218fb7506)" style="fill: none; stroke-dasharray: 5.55,2.4; stroke-dashoffset: 0; stroke: #d62728; stroke-width: 1.5"/>
   </g>
   <g id="patch_3">
    <path d="M 50.362813 273.540841 
L 50.362813 7.428841 
" style="fill: none; stroke: #000000; stroke-width: 0.8; stroke-linejoin: miter; stroke-linecap: square"/>
   </g>
   <g id="patch_4">
    <path d="M 407.482813 273.540841 
L 407.482813 7.428841 
" style="fill: none; stroke: #000000; stroke-width: 0.8; stroke-linejoin: miter; stroke-linecap: square"/>
   </g>
   <g id="patch_5">
    <path d="M 50.362813 273.540841 
L 407.482813 273.540841 
" style="fill: none; stroke: #000000; stroke-width: 0.8; stroke-linejoin: miter; stroke-linecap: square"/>
   </g>
   <g id="patch_6">
    <path d="M 50.362813 7.428841 
L 407.482813 7.428841 
" style="fill: none; stroke: #000000; stroke-width: 0.8; stroke-linejoin: miter; stroke-linecap: square"/>
   </g>
   <g id="legend_1">
    <g id="patch_7">
     <path d="M 201.79 268.540841 
L 256.055625 268.540841 
Q 258.055625 268.540841 258.055625 266.540841 
L 258.055625 208.828341 
Q 258.055625 206.828341 256.055625 206.828341 
L 201.79 206.828341 
Q 199.79 206.828341 199.79 208.828341 
L 199.79 266.540841 
Q 199.79 268.540841 201.79 268.540841 
z
" style="fill: #ffffff; opacity: 0.8; stroke: #cccccc; stroke-linejoin: miter"/>
    </g>
    <g id="line2d_29">
     <path d="M 203.79 214.926778 
L 213.79 214.926778 
L 223.79 214.926778 
" style="fill: none; stroke: #1f77b4; stroke-width: 1.5; stroke-linecap: square"/>
    </g>
    <g id="text_13">
     <!-- 0.1 -->
     <g transform="translate(231.79 218.426778) scale(0.1 -0.1)">
      <defs>
       <path id="DejaVuSans-2e" d="M 684 794 
L 1344 794 
L 1344 0 
L 684 0 
L 684 794 
z
" transform="scale(0.015625)"/>
      </defs>
      <use xlink:href="#DejaVuSans-30"/>
      <use xlink:href="#DejaVuSans-2e" x="63.623047"/>
      <use xlink:href="#DejaVuSans-31" x="95.410156"/>
     </g>
    </g>
    <g id="line2d_30">
     <path d="M 203.79 229.604903 
L 213.79 229.604903 
L 223.79 229.604903 
" style="fill: none; stroke: #ff7f0e; stroke-width: 1.5; stroke-linecap: square"/>
    </g>
    <g id="text_14">
     <!-- 0.15 -->
     <g transform="translate(231.79 233.104903) scale(0.1 -0.1)">
      <use xlink:href="#DejaVuSans-30"/>
      <use xlink:href="#DejaVuSans-2e" x="63.623047"/>
      <use xlink:href="#DejaVuSans-31" x="95.410156"/>
      <use xlink:href="#DejaVuSans-35" x="159.033203"/>
     </g>
    </g>
    <g id="line2d_31">
     <path d="M 203.79 244.283028 
L 213.79 244.283028 
L 223.79 244.283028 
" style="fill: none; stroke: #2ca02c; stroke-width: 1.5; stroke-linecap: square"/>
    </g>
    <g id="text_15">
     <!-- 0.2 -->
     <g transform="translate(231.79 247.783028) scale(0.1 -0.1)">
      <use xlink:href="#DejaVuSans-30"/>
      <use xlink:href="#DejaVuSans-2e" x="63.623047"/>
      <use xlink:href="#DejaVuSans-32" x="95.410156"/>
     </g>
    </g>
    <g id="line2d_32">
     <path d="M 203.79 258.961153 
L 213.79 258.961153 
L 223.79 258.961153 
" style="fill: none; stroke: #d62728; stroke-width: 1.5; stroke-linecap: square"/>
    </g>
    <g id="text_16">
     <!-- 1.0 -->
     <g transform="translate(231.79 262.461153) scale(0.1 -0.1)">
      <use xlink:href="#DejaVuSans-31"/>
      <use xlink:href="#DejaVuSans-2e" x="63.623047"/>
      <use xlink:href="#DejaVuSans-30" x="95.410156"/>
     </g>
    </g>
   </g>
  </g>
 </g>
 <defs>
  <clipPath id="p3218fb7506">
   <rect x="50.362813" y="7.428841" width="357.12" height="266.112"/>
  </clipPath>
 </defs>
</svg>
