<?xml version="1.0" encoding="utf-8" standalone="no"?>
<!DOCTYPE svg PUBLIC "-//W3C//DTD SVG 1.1//EN"
  "http://www.w3.org/Graphics/SVG/1.1/DTD/svg11.dtd">
<svg xmlns:xlink="http://www.w3.org/1999/xlink" width="415.84375pt" height="318.61075pt" viewBox="0 0 415.84375 318.61075" xmlns="http://www.w3.org/2000/svg" version="1.1">
 <defs>
  <style type="text/css">*{stroke-linejoin: round; stroke-linecap: butt}</style>
 </defs>
 <g id="figure_1">
  <g id="patch_1">
   <path d="M 0 318.61075 
L 415.84375 318.61075 
L 415.84375 0 
L 0 0 
L 0 318.61075 
z
" style="fill: none"/>
  </g>
  <g id="axes_1">
   <g id="patch_2">
    <path d="M 51.52375 273.312 
L 408.64375 273.312 
L 408.64375 7.2 
L 51.52375 7.2 
L 51.52375 273.312 
z
" style="fill: none"/>
   </g>
   <g id="matplotlib.axis_1">
    <g id="xtick_1">
     <g id="line2d_1">
      <path d="M 67.756477 273.312 
L 67.756477 7.2 
" clip-path="url(#pfc0ed1bca4)" style="fill: none; stroke: #b0b0b0; stroke-width: 0.8; stroke-linecap: square"/>
     </g>
     <g id="line2d_2">
      <defs>
       <path id="md39032bed2" d="M 0 0 
L 0 3.5 
" style="stroke: #000000; stroke-width: 0.8"/>
      </defs>
      <g>
       <use xlink:href="#md39032bed2" x="67.756477" y="273.312" style="stroke: #000000; stroke-width: 0.8"/>
      </g>
     </g>
     <g id="text_1">
      <!-- 0 -->
      <g transform="translate(64.575227 287.910437) scale(0.1 -0.1)">
       <defs>
        <path id="DejaVuSans-30" d="M 2034 4250 
Q 1547 4250 1301 3770 
Q 1056 3291 1056 2328 
Q 1056 1369 1301 889 
Q 1547 409 2034 409 
Q 2525 409 2770 889 
Q 3016 1369 3016 2328 
Q 3016 3291 2770 3770 
Q 2525 4250 2034 4250 
z
M 2034 4750 
Q 2819 4750 3233 4129 
Q 3647 3509 3647 2328 
Q 3647 1150 3233 529 
Q 2819 -91 2034 -91 
Q 1250 -91 836 529 
Q 422 1150 422 2328 
Q 422 3509 836 4129 
Q 1250 4750 2034 4750 
z
" transform="scale(0.015625)"/>
       </defs>
       <use xlink:href="#DejaVuSans-30"/>
      </g>
     </g>
    </g>
    <g id="xtick_2">
     <g id="line2d_3">
      <path d="M 148.920114 273.312 
L 148.920114 7.2 
" clip-path="url(#pfc0ed1bca4)" style="fill: none; stroke: #b0b0b0; stroke-width: 0.8; stroke-linecap: square"/>
     </g>
     <g id="line2d_4">
      <g>
       <use xlink:href="#md39032bed2" x="148.920114" y="273.312" style="stroke: #000000; stroke-width: 0.8"/>
      </g>
     </g>
     <g id="text_2">
      <!-- 5 -->
      <g transform="translate(145.738864 287.910437) scale(0.1 -0.1)">
       <defs>
        <path id="DejaVuSans-35" d="M 691 4666 
L 3169 4666 
L 3169 4134 
L 1269 4134 
L 1269 2991 
Q 1406 3038 1543 3061 
Q 1681 3084 1819 3084 
Q 2600 3084 3056 2656 
Q 3513 2228 3513 1497 
Q 3513 744 3044 326 
Q 2575 -91 1722 -91 
Q 1428 -91 1123 -41 
Q 819 9 494 109 
L 494 744 
Q 775 591 1075 516 
Q 1375 441 1709 441 
Q 2250 441 2565 725 
Q 2881 1009 2881 1497 
Q 2881 1984 2565 2268 
Q 2250 2553 1709 2553 
Q 1456 2553 1204 2497 
Q 953 2441 691 2322 
L 691 4666 
z
" transform="scale(0.015625)"/>
       </defs>
       <use xlink:href="#DejaVuSans-35"/>
      </g>
     </g>
    </g>
    <g id="xtick_3">
     <g id="line2d_5">
      <path d="M 230.08375 273.312 
L 230.08375 7.2 
" clip-path="url(#pfc0ed1bca4)" style="fill: none; stroke: #b0b0b0; stroke-width: 0.8; stroke-linecap: square"/>
     </g>
     <g id="line2d_6">
      <g>
       <use xlink:href="#md39032bed2" x="230.08375" y="273.312" style="stroke: #000000; stroke-width: 0.8"/>
      </g>
     </g>
     <g id="text_3">
      <!-- 10 -->
      <g transform="translate(223.72125 287.910437) scale(0.1 -0.1)">
       <defs>
        <path id="DejaVuSans-31" d="M 794 531 
L 1825 531 
L 1825 4091 
L 703 3866 
L 703 4441 
L 1819 4666 
L 2450 4666 
L 2450 531 
L 3481 531 
L 3481 0 
L 794 0 
L 794 531 
z
" transform="scale(0.015625)"/>
       </defs>
       <use xlink:href="#DejaVuSans-31"/>
       <use xlink:href="#DejaVuSans-30" x="63.623047"/>
      </g>
     </g>
    </g>
    <g id="xtick_4">
     <g id="line2d_7">
      <path d="M 311.247386 273.312 
L 311.247386 7.2 
" clip-path="url(#pfc0ed1bca4)" style="fill: none; stroke: #b0b0b0; stroke-width: 0.8; stroke-linecap: square"/>
     </g>
     <g id="line2d_8">
      <g>
       <use xlink:href="#md39032bed2" x="311.247386" y="273.312" style="stroke: #000000; stroke-width: 0.8"/>
      </g>
     </g>
     <g id="text_4">
      <!-- 15 -->
      <g transform="translate(304.884886 287.910437) scale(0.1 -0.1)">
       <use xlink:href="#DejaVuSans-31"/>
       <use xlink:href="#DejaVuSans-35" x="63.623047"/>
      </g>
     </g>
    </g>
    <g id="xtick_5">
     <g id="line2d_9">
      <path d="M 392.411023 273.312 
L 392.411023 7.2 
" clip-path="url(#pfc0ed1bca4)" style="fill: none; stroke: #b0b0b0; stroke-width: 0.8; stroke-linecap: square"/>
     </g>
     <g id="line2d_10">
      <g>
       <use xlink:href="#md39032bed2" x="392.411023" y="273.312" style="stroke: #000000; stroke-width: 0.8"/>
      </g>
     </g>
     <g id="text_5">
      <!-- 20 -->
      <g transform="translate(386.048523 287.910437) scale(0.1 -0.1)">
       <defs>
        <path id="DejaVuSans-32" d="M 1228 531 
L 3431 531 
L 3431 0 
L 469 0 
L 469 531 
Q 828 903 1448 1529 
Q 2069 2156 2228 2338 
Q 2531 2678 2651 2914 
Q 2772 3150 2772 3378 
Q 2772 3750 2511 3984 
Q 2250 4219 1831 4219 
Q 1534 4219 1204 4116 
Q 875 4013 500 3803 
L 500 4441 
Q 881 4594 1212 4672 
Q 1544 4750 1819 4750 
Q 2544 4750 2975 4387 
Q 3406 4025 3406 3419 
Q 3406 3131 3298 2873 
Q 3191 2616 2906 2266 
Q 2828 2175 2409 1742 
Q 1991 1309 1228 531 
z
" transform="scale(0.015625)"/>
       </defs>
       <use xlink:href="#DejaVuSans-32"/>
       <use xlink:href="#DejaVuSans-30" x="63.623047"/>
      </g>
     </g>
    </g>
    <g id="text_6">
     <!-- x -->
     <g transform="translate(224.756875 307.667312) scale(0.18 -0.18)">
      <defs>
       <path id="DejaVuSans-78" d="M 3513 3500 
L 2247 1797 
L 3578 0 
L 2900 0 
L 1881 1375 
L 863 0 
L 184 0 
L 1544 1831 
L 300 3500 
L 978 3500 
L 1906 2253 
L 2834 3500 
L 3513 3500 
z
" transform="scale(0.015625)"/>
      </defs>
      <use xlink:href="#DejaVuSans-78"/>
     </g>
    </g>
   </g>
   <g id="matplotlib.axis_2">
    <g id="ytick_1">
     <g id="line2d_11">
      <path d="M 51.52375 273.312 
L 408.64375 273.312 
" clip-path="url(#pfc0ed1bca4)" style="fill: none; stroke: #b0b0b0; stroke-width: 0.8; stroke-linecap: square"/>
     </g>
     <g id="line2d_12">
      <defs>
       <path id="m6f3f5b6aff" d="M 0 0 
L -3.5 0 
" style="stroke: #000000; stroke-width: 0.8"/>
      </defs>
      <g>
       <use xlink:href="#m6f3f5b6aff" x="51.52375" y="273.312" style="stroke: #000000; stroke-width: 0.8"/>
      </g>
     </g>
     <g id="text_7">
      <!-- 0.0 -->
      <g transform="translate(28.620625 277.111219) scale(0.1 -0.1)">
       <defs>
        <path id="DejaVuSans-2e" d="M 684 794 
L 1344 794 
L 1344 0 
L 684 0 
L 684 794 
z
" transform="scale(0.015625)"/>
       </defs>
       <use xlink:href="#DejaVuSans-30"/>
       <use xlink:href="#DejaVuSans-2e" x="63.623047"/>
       <use xlink:href="#DejaVuSans-30" x="95.410156"/>
      </g>
     </g>
    </g>
    <g id="ytick_2">
     <g id="line2d_13">
      <path d="M 51.52375 236.352 
L 408.64375 236.352 
" clip-path="url(#pfc0ed1bca4)" style="fill: none; stroke: #b0b0b0; stroke-width: 0.8; stroke-linecap: square"/>
     </g>
     <g id="line2d_14">
      <g>
       <use xlink:href="#m6f3f5b6aff" x="51.52375" y="236.352" style="stroke: #000000; stroke-width: 0.8"/>
      </g>
     </g>
     <g id="text_8">
      <!-- 0.5 -->
      <g transform="translate(28.620625 240.151219) scale(0.1 -0.1)">
       <use xlink:href="#DejaVuSans-30"/>
       <use xlink:href="#DejaVuSans-2e" x="63.623047"/>
       <use xlink:href="#DejaVuSans-35" x="95.410156"/>
      </g>
     </g>
    </g>
    <g id="ytick_3">
     <g id="line2d_15">
      <path d="M 51.52375 199.392 
L 408.64375 199.392 
" clip-path="url(#pfc0ed1bca4)" style="fill: none; stroke: #b0b0b0; stroke-width: 0.8; stroke-linecap: square"/>
     </g>
     <g id="line2d_16">
      <g>
       <use xlink:href="#m6f3f5b6aff" x="51.52375" y="199.392" style="stroke: #000000; stroke-width: 0.8"/>
      </g>
     </g>
     <g id="text_9">
      <!-- 1.0 -->
      <g transform="translate(28.620625 203.191219) scale(0.1 -0.1)">
       <use xlink:href="#DejaVuSans-31"/>
       <use xlink:href="#DejaVuSans-2e" x="63.623047"/>
       <use xlink:href="#DejaVuSans-30" x="95.410156"/>
      </g>
     </g>
    </g>
    <g id="ytick_4">
     <g id="line2d_17">
      <path d="M 51.52375 162.432 
L 408.64375 162.432 
" clip-path="url(#pfc0ed1bca4)" style="fill: none; stroke: #b0b0b0; stroke-width: 0.8; stroke-linecap: square"/>
     </g>
     <g id="line2d_18">
      <g>
       <use xlink:href="#m6f3f5b6aff" x="51.52375" y="162.432" style="stroke: #000000; stroke-width: 0.8"/>
      </g>
     </g>
     <g id="text_10">
      <!-- 1.5 -->
      <g transform="translate(28.620625 166.231219) scale(0.1 -0.1)">
       <use xlink:href="#DejaVuSans-31"/>
       <use xlink:href="#DejaVuSans-2e" x="63.623047"/>
       <use xlink:href="#DejaVuSans-35" x="95.410156"/>
      </g>
     </g>
    </g>
    <g id="ytick_5">
     <g id="line2d_19">
      <path d="M 51.52375 125.472 
L 408.64375 125.472 
" clip-path="url(#pfc0ed1bca4)" style="fill: none; stroke: #b0b0b0; stroke-width: 0.8; stroke-linecap: square"/>
     </g>
     <g id="line2d_20">
      <g>
       <use xlink:href="#m6f3f5b6aff" x="51.52375" y="125.472" style="stroke: #000000; stroke-width: 0.8"/>
      </g>
     </g>
     <g id="text_11">
      <!-- 2.0 -->
      <g transform="translate(28.620625 129.271219) scale(0.1 -0.1)">
       <use xlink:href="#DejaVuSans-32"/>
       <use xlink:href="#DejaVuSans-2e" x="63.623047"/>
       <use xlink:href="#DejaVuSans-30" x="95.410156"/>
      </g>
     </g>
    </g>
    <g id="ytick_6">
     <g id="line2d_21">
      <path d="M 51.52375 88.512 
L 408.64375 88.512 
" clip-path="url(#pfc0ed1bca4)" style="fill: none; stroke: #b0b0b0; stroke-width: 0.8; stroke-linecap: square"/>
     </g>
     <g id="line2d_22">
      <g>
       <use xlink:href="#m6f3f5b6aff" x="51.52375" y="88.512" style="stroke: #000000; stroke-width: 0.8"/>
      </g>
     </g>
     <g id="text_12">
      <!-- 2.5 -->
      <g transform="translate(28.620625 92.311219) scale(0.1 -0.1)">
       <use xlink:href="#DejaVuSans-32"/>
       <use xlink:href="#DejaVuSans-2e" x="63.623047"/>
       <use xlink:href="#DejaVuSans-35" x="95.410156"/>
      </g>
     </g>
    </g>
    <g id="ytick_7">
     <g id="line2d_23">
      <path d="M 51.52375 51.552 
L 408.64375 51.552 
" clip-path="url(#pfc0ed1bca4)" style="fill: none; stroke: #b0b0b0; stroke-width: 0.8; stroke-linecap: square"/>
     </g>
     <g id="line2d_24">
      <g>
       <use xlink:href="#m6f3f5b6aff" x="51.52375" y="51.552" style="stroke: #000000; stroke-width: 0.8"/>
      </g>
     </g>
     <g id="text_13">
      <!-- 3.0 -->
      <g transform="translate(28.620625 55.351219) scale(0.1 -0.1)">
       <defs>
        <path id="DejaVuSans-33" d="M 2597 2516 
Q 3050 2419 3304 2112 
Q 3559 1806 3559 1356 
Q 3559 666 3084 287 
Q 2609 -91 1734 -91 
Q 1441 -91 1130 -33 
Q 819 25 488 141 
L 488 750 
Q 750 597 1062 519 
Q 1375 441 1716 441 
Q 2309 441 2620 675 
Q 2931 909 2931 1356 
Q 2931 1769 2642 2001 
Q 2353 2234 1838 2234 
L 1294 2234 
L 1294 2753 
L 1863 2753 
Q 2328 2753 2575 2939 
Q 2822 3125 2822 3475 
Q 2822 3834 2567 4026 
Q 2313 4219 1838 4219 
Q 1578 4219 1281 4162 
Q 984 4106 628 3988 
L 628 4550 
Q 988 4650 1302 4700 
Q 1616 4750 1894 4750 
Q 2613 4750 3031 4423 
Q 3450 4097 3450 3541 
Q 3450 3153 3228 2886 
Q 3006 2619 2597 2516 
z
" transform="scale(0.015625)"/>
       </defs>
       <use xlink:href="#DejaVuSans-33"/>
       <use xlink:href="#DejaVuSans-2e" x="63.623047"/>
       <use xlink:href="#DejaVuSans-30" x="95.410156"/>
      </g>
     </g>
    </g>
    <g id="ytick_8">
     <g id="line2d_25">
      <path d="M 51.52375 14.592 
L 408.64375 14.592 
" clip-path="url(#pfc0ed1bca4)" style="fill: none; stroke: #b0b0b0; stroke-width: 0.8; stroke-linecap: square"/>
     </g>
     <g id="line2d_26">
      <g>
       <use xlink:href="#m6f3f5b6aff" x="51.52375" y="14.592" style="stroke: #000000; stroke-width: 0.8"/>
      </g>
     </g>
     <g id="text_14">
      <!-- 3.5 -->
      <g transform="translate(28.620625 18.391219) scale(0.1 -0.1)">
       <use xlink:href="#DejaVuSans-33"/>
       <use xlink:href="#DejaVuSans-2e" x="63.623047"/>
       <use xlink:href="#DejaVuSans-35" x="95.410156"/>
      </g>
     </g>
    </g>
    <g id="text_15">
     <!-- Probability density -->
     <g transform="translate(20.877188 223.687406) rotate(-90) scale(0.18 -0.18)">
      <defs>
       <path id="DejaVuSans-50" d="M 1259 4147 
L 1259 2394 
L 2053 2394 
Q 2494 2394 2734 2622 
Q 2975 2850 2975 3272 
Q 2975 3691 2734 3919 
Q 2494 4147 2053 4147 
L 1259 4147 
z
M 628 4666 
L 2053 4666 
Q 2838 4666 3239 4311 
Q 3641 3956 3641 3272 
Q 3641 2581 3239 2228 
Q 2838 1875 2053 1875 
L 1259 1875 
L 1259 0 
L 628 0 
L 628 4666 
z
" transform="scale(0.015625)"/>
       <path id="DejaVuSans-72" d="M 2631 2963 
Q 2534 3019 2420 3045 
Q 2306 3072 2169 3072 
Q 1681 3072 1420 2755 
Q 1159 2438 1159 1844 
L 1159 0 
L 581 0 
L 581 3500 
L 1159 3500 
L 1159 2956 
Q 1341 3275 1631 3429 
Q 1922 3584 2338 3584 
Q 2397 3584 2469 3576 
Q 2541 3569 2628 3553 
L 2631 2963 
z
" transform="scale(0.015625)"/>
       <path id="DejaVuSans-6f" d="M 1959 3097 
Q 1497 3097 1228 2736 
Q 959 2375 959 1747 
Q 959 1119 1226 758 
Q 1494 397 1959 397 
Q 2419 397 2687 759 
Q 2956 1122 2956 1747 
Q 2956 2369 2687 2733 
Q 2419 3097 1959 3097 
z
M 1959 3584 
Q 2709 3584 3137 3096 
Q 3566 2609 3566 1747 
Q 3566 888 3137 398 
Q 2709 -91 1959 -91 
Q 1206 -91 779 398 
Q 353 888 353 1747 
Q 353 2609 779 3096 
Q 1206 3584 1959 3584 
z
" transform="scale(0.015625)"/>
       <path id="DejaVuSans-62" d="M 3116 1747 
Q 3116 2381 2855 2742 
Q 2594 3103 2138 3103 
Q 1681 3103 1420 2742 
Q 1159 2381 1159 1747 
Q 1159 1113 1420 752 
Q 1681 391 2138 391 
Q 2594 391 2855 752 
Q 3116 1113 3116 1747 
z
M 1159 2969 
Q 1341 3281 1617 3432 
Q 1894 3584 2278 3584 
Q 2916 3584 3314 3078 
Q 3713 2572 3713 1747 
Q 3713 922 3314 415 
Q 2916 -91 2278 -91 
Q 1894 -91 1617 61 
Q 1341 213 1159 525 
L 1159 0 
L 581 0 
L 581 4863 
L 1159 4863 
L 1159 2969 
z
" transform="scale(0.015625)"/>
       <path id="DejaVuSans-61" d="M 2194 1759 
Q 1497 1759 1228 1600 
Q 959 1441 959 1056 
Q 959 750 1161 570 
Q 1363 391 1709 391 
Q 2188 391 2477 730 
Q 2766 1069 2766 1631 
L 2766 1759 
L 2194 1759 
z
M 3341 1997 
L 3341 0 
L 2766 0 
L 2766 531 
Q 2569 213 2275 61 
Q 1981 -91 1556 -91 
Q 1019 -91 701 211 
Q 384 513 384 1019 
Q 384 1609 779 1909 
Q 1175 2209 1959 2209 
L 2766 2209 
L 2766 2266 
Q 2766 2663 2505 2880 
Q 2244 3097 1772 3097 
Q 1472 3097 1187 3025 
Q 903 2953 641 2809 
L 641 3341 
Q 956 3463 1253 3523 
Q 1550 3584 1831 3584 
Q 2591 3584 2966 3190 
Q 3341 2797 3341 1997 
z
" transform="scale(0.015625)"/>
       <path id="DejaVuSans-69" d="M 603 3500 
L 1178 3500 
L 1178 0 
L 603 0 
L 603 3500 
z
M 603 4863 
L 1178 4863 
L 1178 4134 
L 603 4134 
L 603 4863 
z
" transform="scale(0.015625)"/>
       <path id="DejaVuSans-6c" d="M 603 4863 
L 1178 4863 
L 1178 0 
L 603 0 
L 603 4863 
z
" transform="scale(0.015625)"/>
       <path id="DejaVuSans-74" d="M 1172 4494 
L 1172 3500 
L 2356 3500 
L 2356 3053 
L 1172 3053 
L 1172 1153 
Q 1172 725 1289 603 
Q 1406 481 1766 481 
L 2356 481 
L 2356 0 
L 1766 0 
Q 1100 0 847 248 
Q 594 497 594 1153 
L 594 3053 
L 172 3053 
L 172 3500 
L 594 3500 
L 594 4494 
L 1172 4494 
z
" transform="scale(0.015625)"/>
       <path id="DejaVuSans-79" d="M 2059 -325 
Q 1816 -950 1584 -1140 
Q 1353 -1331 966 -1331 
L 506 -1331 
L 506 -850 
L 844 -850 
Q 1081 -850 1212 -737 
Q 1344 -625 1503 -206 
L 1606 56 
L 191 3500 
L 800 3500 
L 1894 763 
L 2988 3500 
L 3597 3500 
L 2059 -325 
z
" transform="scale(0.015625)"/>
       <path id="DejaVuSans-20" transform="scale(0.015625)"/>
       <path id="DejaVuSans-64" d="M 2906 2969 
L 2906 4863 
L 3481 4863 
L 3481 0 
L 2906 0 
L 2906 525 
Q 2725 213 2448 61 
Q 2172 -91 1784 -91 
Q 1150 -91 751 415 
Q 353 922 353 1747 
Q 353 2572 751 3078 
Q 1150 3584 1784 3584 
Q 2172 3584 2448 3432 
Q 2725 3281 2906 2969 
z
M 947 1747 
Q 947 1113 1208 752 
Q 1469 391 1925 391 
Q 2381 391 2643 752 
Q 2906 1113 2906 1747 
Q 2906 2381 2643 2742 
Q 2381 3103 1925 3103 
Q 1469 3103 1208 2742 
Q 947 2381 947 1747 
z
" transform="scale(0.015625)"/>
       <path id="DejaVuSans-65" d="M 3597 1894 
L 3597 1613 
L 953 1613 
Q 991 1019 1311 708 
Q 1631 397 2203 397 
Q 2534 397 2845 478 
Q 3156 559 3463 722 
L 3463 178 
Q 3153 47 2828 -22 
Q 2503 -91 2169 -91 
Q 1331 -91 842 396 
Q 353 884 353 1716 
Q 353 2575 817 3079 
Q 1281 3584 2069 3584 
Q 2775 3584 3186 3129 
Q 3597 2675 3597 1894 
z
M 3022 2063 
Q 3016 2534 2758 2815 
Q 2500 3097 2075 3097 
Q 1594 3097 1305 2825 
Q 1016 2553 972 2059 
L 3022 2063 
z
" transform="scale(0.015625)"/>
       <path id="DejaVuSans-6e" d="M 3513 2113 
L 3513 0 
L 2938 0 
L 2938 2094 
Q 2938 2591 2744 2837 
Q 2550 3084 2163 3084 
Q 1697 3084 1428 2787 
Q 1159 2491 1159 1978 
L 1159 0 
L 581 0 
L 581 3500 
L 1159 3500 
L 1159 2956 
Q 1366 3272 1645 3428 
Q 1925 3584 2291 3584 
Q 2894 3584 3203 3211 
Q 3513 2838 3513 2113 
z
" transform="scale(0.015625)"/>
       <path id="DejaVuSans-73" d="M 2834 3397 
L 2834 2853 
Q 2591 2978 2328 3040 
Q 2066 3103 1784 3103 
Q 1356 3103 1142 2972 
Q 928 2841 928 2578 
Q 928 2378 1081 2264 
Q 1234 2150 1697 2047 
L 1894 2003 
Q 2506 1872 2764 1633 
Q 3022 1394 3022 966 
Q 3022 478 2636 193 
Q 2250 -91 1575 -91 
Q 1294 -91 989 -36 
Q 684 19 347 128 
L 347 722 
Q 666 556 975 473 
Q 1284 391 1588 391 
Q 1994 391 2212 530 
Q 2431 669 2431 922 
Q 2431 1156 2273 1281 
Q 2116 1406 1581 1522 
L 1381 1569 
Q 847 1681 609 1914 
Q 372 2147 372 2553 
Q 372 3047 722 3315 
Q 1072 3584 1716 3584 
Q 2034 3584 2315 3537 
Q 2597 3491 2834 3397 
z
" transform="scale(0.015625)"/>
      </defs>
      <use xlink:href="#DejaVuSans-50"/>
      <use xlink:href="#DejaVuSans-72" x="58.552734"/>
      <use xlink:href="#DejaVuSans-6f" x="97.416016"/>
      <use xlink:href="#DejaVuSans-62" x="158.597656"/>
      <use xlink:href="#DejaVuSans-61" x="222.074219"/>
      <use xlink:href="#DejaVuSans-62" x="283.353516"/>
      <use xlink:href="#DejaVuSans-69" x="346.830078"/>
      <use xlink:href="#DejaVuSans-6c" x="374.613281"/>
      <use xlink:href="#DejaVuSans-69" x="402.396484"/>
      <use xlink:href="#DejaVuSans-74" x="430.179688"/>
      <use xlink:href="#DejaVuSans-79" x="469.388672"/>
      <use xlink:href="#DejaVuSans-20" x="528.568359"/>
      <use xlink:href="#DejaVuSans-64" x="560.355469"/>
      <use xlink:href="#DejaVuSans-65" x="623.832031"/>
      <use xlink:href="#DejaVuSans-6e" x="685.355469"/>
      <use xlink:href="#DejaVuSans-73" x="748.734375"/>
      <use xlink:href="#DejaVuSans-69" x="800.833984"/>
      <use xlink:href="#DejaVuSans-74" x="828.617188"/>
      <use xlink:href="#DejaVuSans-79" x="867.826172"/>
     </g>
    </g>
   </g>
   <g id="line2d_27">
    <path d="M 51.52375 273.291222 
L 53.184358 273.305297 
L 54.577126 273.252323 
L 55.916326 273.310235 
L 57.094822 273.230799 
L 58.076902 273.274524 
L 59.058982 273.27802 
L 60.36247 273.201198 
L 61.52311 273.273828 
L 62.898022 273.08474 
L 63.951526 273.269598 
L 64.362214 273.005903 
L 65.130022 272.478111 
L 65.415718 272.579505 
L 65.80855 273.01555 
L 66.183526 273.31128 
L 66.34423 273.186849 
L 66.52279 272.716208 
L 66.754918 271.366277 
L 67.040614 268.171556 
L 67.397734 261.220401 
L 67.844134 247.557013 
L 68.540518 218.108145 
L 69.486886 180.03799 
L 69.951142 169.2207 
L 70.290406 165.436535 
L 70.522534 164.64521 
L 70.62967 164.700027 
L 70.790374 165.201761 
L 71.07607 167.059396 
L 71.736742 173.422137 
L 72.308134 177.916652 
L 72.647398 179.198379 
L 72.86167 179.371078 
L 73.004518 179.210147 
L 73.21879 178.571072 
L 73.540198 176.803541 
L 74.040166 172.594367 
L 75.557926 158.956166 
L 76.004326 157.049343 
L 76.34359 156.419969 
L 76.593574 156.329677 
L 76.861414 156.488226 
L 77.397094 157.16128 
L 77.843494 157.557183 
L 78.093478 157.534179 
L 78.343462 157.262362 
L 78.647014 156.545584 
L 79.039846 154.950327 
L 79.55767 151.77942 
L 80.45047 144.613283 
L 81.34327 138.1152 
L 81.861094 135.81551 
L 82.253926 134.956073 
L 82.557478 134.748446 
L 82.86103 134.823007 
L 83.735974 135.194529 
L 83.985958 134.935715 
L 84.271654 134.248748 
L 84.610918 132.786376 
L 85.039462 129.868697 
L 85.646566 123.993278 
L 86.985766 110.63901 
L 87.396454 108.660348 
L 87.68215 108.166189 
L 87.86071 108.203026 
L 88.074982 108.546883 
L 88.432102 109.63223 
L 89.182054 111.953162 
L 89.396326 112.079737 
L 89.55703 111.895757 
L 89.771302 111.214892 
L 90.056998 109.448266 
L 90.431974 105.583492 
L 90.967654 97.433146 
L 92.271142 76.666393 
L 92.610406 74.546646 
L 92.788966 74.317852 
L 92.913958 74.525534 
L 93.110374 75.43475 
L 93.431782 78.247785 
L 94.146022 87.287612 
L 94.610278 91.599154 
L 94.842406 92.265198 
L 94.931686 92.170177 
L 95.074534 91.564703 
L 95.288806 89.528487 
L 95.592358 84.174802 
L 96.003046 72.360675 
L 96.645862 46.170612 
L 97.377958 18.686207 
L 97.68151 13.979553 
L 97.752934 13.795494 
L 97.806502 13.917489 
L 97.931494 15.116131 
L 98.12791 19.743099 
L 98.413606 32.756799 
L 98.806438 62.379974 
L 99.449254 131.311738 
L 100.395622 229.086228 
L 100.877734 257.850093 
L 101.25271 269.02232 
L 101.556262 272.646055 
L 101.770534 273.303701 
L 101.895526 273.241228 
L 102.109798 272.729847 
L 102.663334 271.369324 
L 102.877606 271.319546 
L 103.091878 271.552455 
L 103.556134 272.527464 
L 104.002534 273.222061 
L 104.28823 273.307105 
L 104.609638 273.134414 
L 105.341734 272.688172 
L 105.698854 272.780261 
L 106.87735 273.302119 
L 107.520166 273.086454 
L 108.073702 273.016503 
L 108.734374 273.208884 
L 109.37719 273.309482 
L 111.484198 273.284287 
L 112.23415 273.282239 
L 113.48407 273.219633 
L 114.876838 273.281936 
L 116.16247 273.256812 
L 117.50167 273.283764 
L 118.858726 273.280984 
L 120.233638 273.278568 
L 121.662118 273.301729 
L 123.30487 273.270131 
L 255.97495 273.310739 
L 408.64375 273.311719 
L 408.64375 273.311719 
" clip-path="url(#pfc0ed1bca4)" style="fill: none; stroke: #1f77b4; stroke-width: 1.5; stroke-linecap: square"/>
   </g>
   <g id="line2d_28">
    <path d="M 51.52375 273.30866 
L 56.07703 273.307591 
L 57.719782 273.251381 
L 62.076646 273.21911 
L 62.933734 273.146345 
L 64.29079 273.214612 
L 65.433574 272.821169 
L 65.844262 273.093135 
L 66.272806 273.308176 
L 66.469222 273.149863 
L 66.683494 272.607029 
L 66.933478 271.279973 
L 67.23703 268.362888 
L 67.629862 262.115159 
L 68.165542 249.435634 
L 69.55831 214.577748 
L 69.968998 209.79611 
L 70.27255 208.376848 
L 70.433254 208.25313 
L 70.45111 208.262708 
L 70.593958 208.488 
L 70.843942 209.406298 
L 71.361766 212.423271 
L 72.022438 215.85773 
L 72.361702 216.663957 
L 72.575974 216.74793 
L 72.754534 216.566772 
L 73.022374 215.897267 
L 73.415206 214.204798 
L 74.37943 208.627469 
L 74.986534 205.96182 
L 75.415078 204.969209 
L 75.754342 204.667007 
L 76.093606 204.65874 
L 77.039974 204.797681 
L 77.361382 204.508082 
L 77.736358 203.824403 
L 78.236326 202.377242 
L 80.307622 195.714075 
L 81.021862 194.595971 
L 81.825382 193.277106 
L 82.432486 191.77028 
L 83.325286 188.829832 
L 84.360934 185.630322 
L 85.110886 184.047068 
L 86.25367 181.756147 
L 86.860774 179.862034 
L 87.700006 176.386032 
L 88.771366 172.148536 
L 89.360614 170.678798 
L 89.967718 169.754143 
L 90.71767 168.610861 
L 91.16407 167.450572 
L 91.664038 165.48038 
L 92.360422 161.684448 
L 93.57463 155.032226 
L 94.074598 153.461725 
L 94.485286 152.811015 
L 94.91383 152.536746 
L 95.485222 152.193406 
L 95.80663 151.687926 
L 96.16375 150.649121 
L 96.592294 148.607138 
L 97.163686 144.627843 
L 98.66359 133.56961 
L 99.074278 132.208 
L 99.37783 131.833165 
L 99.609958 131.842475 
L 99.931366 132.123563 
L 100.520614 132.631221 
L 100.734886 132.54234 
L 100.967014 132.148304 
L 101.25271 131.142901 
L 101.627686 128.854302 
L 102.127654 124.194788 
L 103.788262 107.357608 
L 104.10967 106.34274 
L 104.306086 106.243989 
L 104.46679 106.429115 
L 104.73463 107.171362 
L 105.913126 111.045546 
L 106.055974 110.889972 
L 106.25239 110.262653 
L 106.52023 108.562956 
L 106.895206 104.501612 
L 107.430886 95.823129 
L 108.627238 75.707114 
L 108.966502 73.369295 
L 109.145062 73.10116 
L 109.162918 73.111605 
L 109.28791 73.371142 
L 109.484326 74.409324 
L 109.805734 77.524388 
L 111.109222 91.984908 
L 111.198502 92.047965 
L 111.234214 92.012022 
L 111.359206 91.595203 
L 111.555622 89.966657 
L 111.841318 85.32749 
L 112.216294 75.113512 
L 112.76983 53.091015 
L 113.680486 17.361806 
L 113.966182 13.245531 
L 114.01975 13.136078 
L 114.073318 13.259573 
L 114.19831 14.499045 
L 114.394726 19.300968 
L 114.680422 32.807548 
L 115.073254 63.464516 
L 115.733926 136.275712 
L 116.626726 229.278654 
L 117.108838 258.208067 
L 117.483814 269.258688 
L 117.787366 272.737285 
L 118.001638 273.310535 
L 118.12663 273.21337 
L 118.376614 272.560832 
L 118.858726 271.403519 
L 119.072998 271.345119 
L 119.28727 271.57331 
L 119.751526 272.543747 
L 120.18007 273.214045 
L 120.465766 273.308594 
L 120.787174 273.142555 
L 121.51927 272.702501 
L 121.87639 272.795566 
L 123.03703 273.302835 
L 123.679846 273.09239 
L 124.233382 273.02651 
L 124.929766 273.227297 
L 125.554726 273.307274 
L 127.465318 273.260625 
L 128.250982 273.296123 
L 129.768742 273.245392 
L 130.89367 273.292205 
L 132.357862 273.268532 
L 133.607782 273.284351 
L 134.982694 273.285078 
L 136.357606 273.27799 
L 137.821798 273.305759 
L 140.857318 273.310247 
L 147.374758 273.292651 
L 153.070822 273.30923 
L 159.695398 273.299553 
L 203.996134 273.311277 
L 235.97623 273.310247 
L 313.185574 273.311444 
L 408.64375 273.311954 
L 408.64375 273.311954 
" clip-path="url(#pfc0ed1bca4)" style="fill: none; stroke: #ff7f0e; stroke-width: 1.5; stroke-linecap: square"/>
   </g>
   <g id="line2d_29">
    <path d="M 51.52375 273.311986 
L 64.55863 273.21304 
L 65.469286 273.061579 
L 66.112102 273.29001 
L 66.43351 273.26274 
L 66.665638 272.988746 
L 66.915622 272.294053 
L 67.219174 270.683489 
L 67.59415 267.274461 
L 68.076262 260.574839 
L 69.719014 235.570969 
L 70.076134 233.670664 
L 70.308262 233.313478 
L 70.45111 233.388738 
L 70.665382 233.844906 
L 71.040358 235.315704 
L 72.040294 239.466434 
L 72.361702 239.973373 
L 72.575974 239.990252 
L 72.790246 239.752816 
L 73.093798 239.019266 
L 73.558054 237.210005 
L 74.82583 231.953394 
L 75.200806 231.303689 
L 75.486502 231.184515 
L 75.754342 231.321655 
L 76.16503 231.834305 
L 76.950694 232.811901 
L 77.254246 232.865521 
L 77.522086 232.679553 
L 77.843494 232.153507 
L 78.289894 230.936527 
L 80.075494 225.49642 
L 80.432614 225.207393 
L 80.771878 225.213566 
L 81.271846 225.497836 
L 81.825382 225.739967 
L 82.14679 225.648023 
L 82.468198 225.303081 
L 82.86103 224.511765 
L 83.414566 222.817391 
L 84.789478 218.407554 
L 85.235878 217.744504 
L 85.610854 217.551808 
L 86.039398 217.602037 
L 86.753638 217.706671 
L 87.092902 217.501369 
L 87.450022 216.987664 
L 87.878566 215.937456 
L 88.521382 213.667733 
L 89.64631 209.693626 
L 90.128422 208.763285 
L 90.521254 208.437195 
L 90.931942 208.39218 
L 91.735462 208.380307 
L 92.074726 208.086303 
L 92.431846 207.45255 
L 92.878246 206.158899 
L 93.556774 203.380287 
L 94.610278 199.144097 
L 95.09239 198.044589 
L 95.485222 197.638209 
L 95.860198 197.556215 
L 96.770854 197.486649 
L 97.092262 197.122996 
L 97.449382 196.348189 
L 97.895782 194.798774 
L 98.57431 191.514213 
L 99.609958 186.628662 
L 100.09207 185.341255 
L 100.467046 184.888927 
L 100.80631 184.801759 
L 101.841958 184.765428 
L 102.14551 184.330955 
L 102.50263 183.373489 
L 102.94903 181.472345 
L 103.645414 177.370794 
L 104.627494 171.833469 
L 105.09175 170.353899 
L 105.44887 169.847838 
L 105.752422 169.772513 
L 106.145254 169.951077 
L 106.645222 170.130881 
L 106.913062 169.981154 
L 107.180902 169.545124 
L 107.520166 168.497142 
L 107.94871 166.348057 
L 108.591526 161.789875 
L 109.662886 154.278638 
L 110.109286 152.576002 
L 110.430694 152.053262 
L 110.680678 152.001458 
L 110.966374 152.214577 
L 111.805606 152.992869 
L 112.019878 152.855822 
L 112.269862 152.36966 
L 112.59127 151.147814 
L 113.001958 148.579666 
L 113.609062 143.155652 
L 114.716134 133.278781 
L 115.144678 131.323964 
L 115.430374 130.835017 
L 115.62679 130.844372 
L 115.858918 131.149328 
L 116.287462 132.199695 
L 116.823142 133.330336 
L 117.037414 133.397854 
L 117.215974 133.191428 
L 117.448102 132.505434 
L 117.751654 130.831049 
L 118.162342 127.181767 
L 118.823014 118.919552 
L 119.715814 108.257561 
L 120.126502 105.676926 
L 120.394342 105.102773 
L 120.53719 105.146775 
L 120.71575 105.510347 
L 121.019302 106.760456 
L 122.126374 111.897064 
L 122.269222 111.892436 
L 122.429926 111.554996 
L 122.662054 110.387207 
L 122.983462 107.377149 
L 123.429862 100.692524 
L 125.108326 72.607596 
L 125.340454 71.922011 
L 125.44759 72.024711 
L 125.608294 72.66103 
L 125.876134 74.891041 
L 126.322534 80.9307 
L 127.126054 91.698077 
L 127.393894 92.958457 
L 127.465318 92.969348 
L 127.50103 92.918229 
L 127.626022 92.428072 
L 127.822438 90.623045 
L 128.108134 85.607407 
L 128.500966 74.110014 
L 129.10807 48.378351 
L 129.893734 16.854595 
L 130.17943 12.176825 
L 130.250854 11.948978 
L 130.304422 12.055038 
L 130.411558 13.01525 
L 130.590118 16.956171 
L 130.857958 28.618557 
L 131.232934 56.24575 
L 131.822182 119.360214 
L 132.85783 229.617525 
L 133.339942 258.382496 
L 133.714918 269.31217 
L 134.01847 272.74188 
L 134.232742 273.310137 
L 134.357734 273.219247 
L 134.607718 272.591969 
L 135.08983 271.485745 
L 135.304102 271.435067 
L 135.518374 271.658398 
L 136.000486 272.624485 
L 136.42903 273.235275 
L 136.714726 273.305407 
L 137.05399 273.124663 
L 137.714662 272.750897 
L 138.071782 272.822465 
L 139.321702 273.293658 
L 140.750182 273.117402 
L 141.803686 273.305386 
L 143.607142 273.25553 
L 144.482086 273.29656 
L 145.999846 273.258196 
L 147.196198 273.28759 
L 148.588966 273.278232 
L 149.946022 273.280477 
L 151.374502 273.301006 
L 153.052966 273.272681 
L 185.068774 273.311559 
L 212.442022 273.311316 
L 250.832422 273.311879 
L 374.520934 273.3117 
L 408.64375 273.311922 
L 408.64375 273.311922 
" clip-path="url(#pfc0ed1bca4)" style="fill: none; stroke: #2ca02c; stroke-width: 1.5; stroke-linecap: square"/>
   </g>
   <g id="line2d_30">
    <path d="M 51.52375 273.311963 
L 139.19671 273.215857 
L 150.928102 273.173527 
L 159.677542 273.13122 
L 166.944934 273.100401 
L 173.069542 273.07025 
L 190.050598 272.860713 
L 192.818278 272.849185 
L 195.460966 272.769393 
L 198.050086 272.770107 
L 200.53207 272.678982 
L 202.906918 272.672821 
L 205.192486 272.598972 
L 207.567334 272.552889 
L 209.99575 272.499266 
L 212.549158 272.419789 
L 214.977574 272.369223 
L 217.602406 272.265931 
L 219.99511 272.214233 
L 222.637798 272.085405 
L 225.012646 272.0331 
L 227.708902 271.875091 
L 230.012326 271.823267 
L 232.815718 271.62977 
L 235.029862 271.575785 
L 237.94039 271.34289 
L 240.029542 271.288503 
L 243.11863 271.008274 
L 245.029222 270.95226 
L 248.350438 270.617665 
L 250.028902 270.558577 
L 253.617958 270.160304 
L 255.08215 270.089431 
L 258.796198 269.620557 
L 260.135398 269.54009 
L 261.617446 269.172503 
L 262.831654 268.980014 
L 265.88503 268.722905 
L 267.84919 268.247532 
L 269.402662 268.240239 
L 270.43831 268.098351 
L 271.86679 267.62113 
L 272.93815 267.38537 
L 274.259494 267.370972 
L 275.312998 267.257681 
L 276.366502 266.892862 
L 277.812838 266.407594 
L 278.812774 266.344245 
L 280.25911 266.250966 
L 281.169766 265.929914 
L 283.02679 265.208446 
L 284.00887 265.150864 
L 285.276646 265.053188 
L 286.115878 264.738325 
L 288.258598 263.801329 
L 289.27639 263.751293 
L 290.329894 263.641357 
L 291.115558 263.318563 
L 293.47255 262.157125 
L 294.54391 262.106614 
L 295.43671 261.972073 
L 296.168806 261.627449 
L 298.615078 260.242708 
L 299.668582 260.180295 
L 300.507814 260.028775 
L 301.204198 259.661847 
L 302.31127 258.762544 
L 303.20407 258.173219 
L 303.91831 257.973906 
L 305.846758 257.62513 
L 306.543142 257.109963 
L 308.507302 255.488393 
L 309.203686 255.324523 
L 310.685734 255.072904 
L 311.292838 254.662096 
L 312.114214 253.801601 
L 313.256998 252.649367 
L 313.899814 252.323885 
L 314.667622 252.210803 
L 315.578278 252.03759 
L 316.14967 251.68133 
L 316.810342 250.980662 
L 318.578086 248.943321 
L 319.18519 248.67295 
L 321.095782 248.104798 
L 321.68503 247.459301 
L 322.738534 245.875745 
L 323.524198 244.899094 
L 324.09559 244.516802 
L 324.738406 244.364491 
L 325.70263 244.142792 
L 326.220454 243.751487 
L 326.791846 243.010146 
L 327.809638 241.219282 
L 328.595302 240.057753 
L 329.148838 239.602349 
L 329.738086 239.41389 
L 330.809446 239.134557 
L 331.291558 238.713893 
L 331.827238 237.926579 
L 332.684326 236.185023 
L 333.612838 234.460877 
L 334.166374 233.871961 
L 334.684198 233.631266 
L 336.023398 233.188441 
L 336.487654 232.647465 
L 337.04119 231.616935 
L 339.18391 227.16906 
L 339.666022 226.857933 
L 340.398118 226.705169 
L 340.933798 226.480208 
L 341.362342 226.039139 
L 341.844454 225.181845 
L 342.48727 223.517483 
L 343.862182 219.854004 
L 344.380006 219.130623 
L 344.844262 218.845411 
L 346.23703 218.272657 
L 346.647718 217.628824 
L 347.147686 216.393813 
L 347.951206 213.698894 
L 348.861862 210.866404 
L 349.379686 209.913132 
L 349.80823 209.537729 
L 350.308198 209.41003 
L 350.96887 209.237378 
L 351.343846 208.875625 
L 351.736678 208.159149 
L 352.21879 206.769758 
L 352.968742 203.801643 
L 353.950822 200.106464 
L 354.45079 199.00447 
L 354.861478 198.573862 
L 355.272166 198.453222 
L 356.093542 198.299226 
L 356.432806 197.933099 
L 356.807782 197.159383 
L 357.272038 195.617184 
L 357.950566 192.459656 
L 359.057638 187.390694 
L 359.53975 186.144434 
L 359.932582 185.678634 
L 360.289702 185.582074 
L 361.253926 185.511369 
L 361.557478 185.121914 
L 361.914598 184.2481 
L 362.360998 182.477135 
L 363.003814 178.873595 
L 364.146598 172.462806 
L 364.610854 171.02043 
L 364.967974 170.520819 
L 365.271526 170.438171 
L 365.664358 170.598779 
L 366.182182 170.76046 
L 366.450022 170.598335 
L 366.735718 170.115687 
L 367.074982 169.043408 
L 367.521382 166.777344 
L 368.19991 161.939894 
L 369.217702 154.891076 
L 369.664102 153.170396 
L 370.003366 152.607465 
L 370.25335 152.552731 
L 370.539046 152.758372 
L 371.396134 153.531937 
L 371.610406 153.388935 
L 371.86039 152.900352 
L 372.181798 151.684606 
L 372.592486 149.138847 
L 373.19959 143.759697 
L 374.324518 133.745587 
L 374.753062 131.780194 
L 375.038758 131.274704 
L 375.235174 131.270491 
L 375.449446 131.528276 
L 375.842278 132.449099 
L 376.449382 133.770811 
L 376.663654 133.843195 
L 376.842214 133.644771 
L 377.074342 132.975037 
L 377.377894 131.331228 
L 377.788582 127.733597 
L 378.431398 119.777344 
L 379.377766 108.481714 
L 379.788454 105.953993 
L 380.056294 105.405666 
L 380.199142 105.459519 
L 380.395558 105.885458 
L 380.716966 107.272767 
L 381.734758 112.162352 
L 381.913318 112.247513 
L 382.056166 112.014472 
L 382.270438 111.108284 
L 382.556134 108.79679 
L 382.948966 103.605357 
L 383.573926 91.837986 
L 384.44887 75.980949 
L 384.823846 72.617905 
L 385.038118 72.087404 
L 385.145254 72.215913 
L 385.305958 72.885396 
L 385.573798 75.153524 
L 386.020198 81.208202 
L 386.823718 91.920118 
L 387.091558 93.169576 
L 387.162982 93.180083 
L 387.198694 93.129245 
L 387.323686 92.64274 
L 387.520102 90.852491 
L 387.805798 85.878902 
L 388.19863 74.473072 
L 388.787878 49.715172 
L 389.609254 16.751094 
L 389.89495 12.165772 
L 389.966374 11.956742 
L 390.019942 12.075256 
L 390.144934 13.318206 
L 390.34135 18.164897 
L 390.627046 31.804403 
L 391.019878 62.709396 
L 391.68055 135.856837 
L 392.57335 228.958172 
L 393.055462 257.936887 
L 393.430438 269.082645 
L 393.73399 272.66149 
L 393.948262 273.304126 
L 394.073254 273.242727 
L 394.287526 272.74935 
L 394.823206 271.493484 
L 395.037478 271.441583 
L 395.25175 271.660996 
L 395.716006 272.582405 
L 396.162406 273.230904 
L 396.448102 273.306824 
L 396.787366 273.132553 
L 397.465894 272.754236 
L 397.84087 272.836873 
L 399.019366 273.30254 
L 400.662118 273.165349 
L 401.50135 273.309669 
L 403.661926 273.297194 
L 404.483302 273.270839 
L 405.60823 273.240889 
L 407.054566 273.281131 
L 408.358054 273.278 
L 408.64375 273.29931 
L 408.64375 273.29931 
" clip-path="url(#pfc0ed1bca4)" style="fill: none; stroke: #d62728; stroke-width: 1.5; stroke-linecap: square"/>
   </g>
   <g id="patch_3">
    <path d="M 51.52375 273.312 
L 51.52375 7.2 
" style="fill: none; stroke: #000000; stroke-width: 0.8; stroke-linejoin: miter; stroke-linecap: square"/>
   </g>
   <g id="patch_4">
    <path d="M 408.64375 273.312 
L 408.64375 7.2 
" style="fill: none; stroke: #000000; stroke-width: 0.8; stroke-linejoin: miter; stroke-linecap: square"/>
   </g>
   <g id="patch_5">
    <path d="M 51.52375 273.312 
L 408.64375 273.312 
" style="fill: none; stroke: #000000; stroke-width: 0.8; stroke-linejoin: miter; stroke-linecap: square"/>
   </g>
   <g id="patch_6">
    <path d="M 51.52375 7.2 
L 408.64375 7.2 
" style="fill: none; stroke: #000000; stroke-width: 0.8; stroke-linejoin: miter; stroke-linecap: square"/>
   </g>
  </g>
 </g>
 <defs>
  <clipPath id="pfc0ed1bca4">
   <rect x="51.52375" y="7.2" width="357.12" height="266.112"/>
  </clipPath>
 </defs>
</svg>
