<?xml version="1.0" encoding="utf-8" standalone="no"?>
<!DOCTYPE svg PUBLIC "-//W3C//DTD SVG 1.1//EN"
  "http://www.w3.org/Graphics/SVG/1.1/DTD/svg11.dtd">
<svg xmlns:xlink="http://www.w3.org/1999/xlink" width="435.279375pt" height="502.837187pt" viewBox="0 0 435.279375 502.837187" xmlns="http://www.w3.org/2000/svg" version="1.1">
 <defs>
  <style type="text/css">*{stroke-linejoin: round; stroke-linecap: butt}</style>
 </defs>
 <g id="figure_1">
  <g id="patch_1">
   <path d="M 0 502.837187 
L 435.279375 502.837187 
L 435.279375 0 
L 0 0 
L 0 502.837187 
z
" style="fill: none"/>
  </g>
  <g id="axes_1">
   <g id="patch_2">
    <path d="M 56.64375 450.72 
L 413.76375 450.72 
L 413.76375 7.2 
L 56.64375 7.2 
L 56.64375 450.72 
z
" style="fill: none"/>
   </g>
   <g id="matplotlib.axis_1">
    <g id="xtick_1">
     <g id="line2d_1">
      <path d="M 56.64375 450.72 
L 56.64375 7.2 
" clip-path="url(#p1838bbbaab)" style="fill: none; stroke: #b0b0b0; stroke-width: 0.8; stroke-linecap: square"/>
     </g>
     <g id="line2d_2">
      <defs>
       <path id="md39032bed2" d="M 0 0 
L 0 3.5 
" style="stroke: #000000; stroke-width: 0.8"/>
      </defs>
      <g>
       <use xlink:href="#md39032bed2" x="56.64375" y="450.72" style="stroke: #000000; stroke-width: 0.8"/>
      </g>
     </g>
     <g id="text_1">
      <!-- 0 -->
      <g transform="translate(51.871875 469.117656) scale(0.15 -0.15)">
       <defs>
        <path id="DejaVuSans-30" d="M 2034 4250 
Q 1547 4250 1301 3770 
Q 1056 3291 1056 2328 
Q 1056 1369 1301 889 
Q 1547 409 2034 409 
Q 2525 409 2770 889 
Q 3016 1369 3016 2328 
Q 3016 3291 2770 3770 
Q 2525 4250 2034 4250 
z
M 2034 4750 
Q 2819 4750 3233 4129 
Q 3647 3509 3647 2328 
Q 3647 1150 3233 529 
Q 2819 -91 2034 -91 
Q 1250 -91 836 529 
Q 422 1150 422 2328 
Q 422 3509 836 4129 
Q 1250 4750 2034 4750 
z
" transform="scale(0.015625)"/>
       </defs>
       <use xlink:href="#DejaVuSans-30"/>
      </g>
     </g>
    </g>
    <g id="xtick_2">
     <g id="line2d_3">
      <path d="M 116.16375 450.72 
L 116.16375 7.2 
" clip-path="url(#p1838bbbaab)" style="fill: none; stroke: #b0b0b0; stroke-width: 0.8; stroke-linecap: square"/>
     </g>
     <g id="line2d_4">
      <g>
       <use xlink:href="#md39032bed2" x="116.16375" y="450.72" style="stroke: #000000; stroke-width: 0.8"/>
      </g>
     </g>
     <g id="text_2">
      <!-- 25 -->
      <g transform="translate(106.62 469.117656) scale(0.15 -0.15)">
       <defs>
        <path id="DejaVuSans-32" d="M 1228 531 
L 3431 531 
L 3431 0 
L 469 0 
L 469 531 
Q 828 903 1448 1529 
Q 2069 2156 2228 2338 
Q 2531 2678 2651 2914 
Q 2772 3150 2772 3378 
Q 2772 3750 2511 3984 
Q 2250 4219 1831 4219 
Q 1534 4219 1204 4116 
Q 875 4013 500 3803 
L 500 4441 
Q 881 4594 1212 4672 
Q 1544 4750 1819 4750 
Q 2544 4750 2975 4387 
Q 3406 4025 3406 3419 
Q 3406 3131 3298 2873 
Q 3191 2616 2906 2266 
Q 2828 2175 2409 1742 
Q 1991 1309 1228 531 
z
" transform="scale(0.015625)"/>
        <path id="DejaVuSans-35" d="M 691 4666 
L 3169 4666 
L 3169 4134 
L 1269 4134 
L 1269 2991 
Q 1406 3038 1543 3061 
Q 1681 3084 1819 3084 
Q 2600 3084 3056 2656 
Q 3513 2228 3513 1497 
Q 3513 744 3044 326 
Q 2575 -91 1722 -91 
Q 1428 -91 1123 -41 
Q 819 9 494 109 
L 494 744 
Q 775 591 1075 516 
Q 1375 441 1709 441 
Q 2250 441 2565 725 
Q 2881 1009 2881 1497 
Q 2881 1984 2565 2268 
Q 2250 2553 1709 2553 
Q 1456 2553 1204 2497 
Q 953 2441 691 2322 
L 691 4666 
z
" transform="scale(0.015625)"/>
       </defs>
       <use xlink:href="#DejaVuSans-32"/>
       <use xlink:href="#DejaVuSans-35" transform="translate(63.623047 0)"/>
      </g>
     </g>
    </g>
    <g id="xtick_3">
     <g id="line2d_5">
      <path d="M 175.68375 450.72 
L 175.68375 7.2 
" clip-path="url(#p1838bbbaab)" style="fill: none; stroke: #b0b0b0; stroke-width: 0.8; stroke-linecap: square"/>
     </g>
     <g id="line2d_6">
      <g>
       <use xlink:href="#md39032bed2" x="175.68375" y="450.72" style="stroke: #000000; stroke-width: 0.8"/>
      </g>
     </g>
     <g id="text_3">
      <!-- 50 -->
      <g transform="translate(166.14 469.117656) scale(0.15 -0.15)">
       <use xlink:href="#DejaVuSans-35"/>
       <use xlink:href="#DejaVuSans-30" transform="translate(63.623047 0)"/>
      </g>
     </g>
    </g>
    <g id="xtick_4">
     <g id="line2d_7">
      <path d="M 235.20375 450.72 
L 235.20375 7.2 
" clip-path="url(#p1838bbbaab)" style="fill: none; stroke: #b0b0b0; stroke-width: 0.8; stroke-linecap: square"/>
     </g>
     <g id="line2d_8">
      <g>
       <use xlink:href="#md39032bed2" x="235.20375" y="450.72" style="stroke: #000000; stroke-width: 0.8"/>
      </g>
     </g>
     <g id="text_4">
      <!-- 75 -->
      <g transform="translate(225.66 469.117656) scale(0.15 -0.15)">
       <defs>
        <path id="DejaVuSans-37" d="M 525 4666 
L 3525 4666 
L 3525 4397 
L 1831 0 
L 1172 0 
L 2766 4134 
L 525 4134 
L 525 4666 
z
" transform="scale(0.015625)"/>
       </defs>
       <use xlink:href="#DejaVuSans-37"/>
       <use xlink:href="#DejaVuSans-35" transform="translate(63.623047 0)"/>
      </g>
     </g>
    </g>
    <g id="xtick_5">
     <g id="line2d_9">
      <path d="M 294.72375 450.72 
L 294.72375 7.2 
" clip-path="url(#p1838bbbaab)" style="fill: none; stroke: #b0b0b0; stroke-width: 0.8; stroke-linecap: square"/>
     </g>
     <g id="line2d_10">
      <g>
       <use xlink:href="#md39032bed2" x="294.72375" y="450.72" style="stroke: #000000; stroke-width: 0.8"/>
      </g>
     </g>
     <g id="text_5">
      <!-- 100 -->
      <g transform="translate(280.408125 469.117656) scale(0.15 -0.15)">
       <defs>
        <path id="DejaVuSans-31" d="M 794 531 
L 1825 531 
L 1825 4091 
L 703 3866 
L 703 4441 
L 1819 4666 
L 2450 4666 
L 2450 531 
L 3481 531 
L 3481 0 
L 794 0 
L 794 531 
z
" transform="scale(0.015625)"/>
       </defs>
       <use xlink:href="#DejaVuSans-31"/>
       <use xlink:href="#DejaVuSans-30" transform="translate(63.623047 0)"/>
       <use xlink:href="#DejaVuSans-30" transform="translate(127.246094 0)"/>
      </g>
     </g>
    </g>
    <g id="xtick_6">
     <g id="line2d_11">
      <path d="M 354.24375 450.72 
L 354.24375 7.2 
" clip-path="url(#p1838bbbaab)" style="fill: none; stroke: #b0b0b0; stroke-width: 0.8; stroke-linecap: square"/>
     </g>
     <g id="line2d_12">
      <g>
       <use xlink:href="#md39032bed2" x="354.24375" y="450.72" style="stroke: #000000; stroke-width: 0.8"/>
      </g>
     </g>
     <g id="text_6">
      <!-- 125 -->
      <g transform="translate(339.928125 469.117656) scale(0.15 -0.15)">
       <use xlink:href="#DejaVuSans-31"/>
       <use xlink:href="#DejaVuSans-32" transform="translate(63.623047 0)"/>
       <use xlink:href="#DejaVuSans-35" transform="translate(127.246094 0)"/>
      </g>
     </g>
    </g>
    <g id="xtick_7">
     <g id="line2d_13">
      <path d="M 413.76375 450.72 
L 413.76375 7.2 
" clip-path="url(#p1838bbbaab)" style="fill: none; stroke: #b0b0b0; stroke-width: 0.8; stroke-linecap: square"/>
     </g>
     <g id="line2d_14">
      <g>
       <use xlink:href="#md39032bed2" x="413.76375" y="450.72" style="stroke: #000000; stroke-width: 0.8"/>
      </g>
     </g>
     <g id="text_7">
      <!-- 150 -->
      <g transform="translate(399.448125 469.117656) scale(0.15 -0.15)">
       <use xlink:href="#DejaVuSans-31"/>
       <use xlink:href="#DejaVuSans-35" transform="translate(63.623047 0)"/>
       <use xlink:href="#DejaVuSans-30" transform="translate(127.246094 0)"/>
      </g>
     </g>
    </g>
    <g id="text_8">
     <!-- Time ($\mu s$) -->
     <g transform="translate(187.80375 491.437187) scale(0.2 -0.2)">
      <defs>
       <path id="DejaVuSans-54" d="M -19 4666 
L 3928 4666 
L 3928 4134 
L 2272 4134 
L 2272 0 
L 1638 0 
L 1638 4134 
L -19 4134 
L -19 4666 
z
" transform="scale(0.015625)"/>
       <path id="DejaVuSans-69" d="M 603 3500 
L 1178 3500 
L 1178 0 
L 603 0 
L 603 3500 
z
M 603 4863 
L 1178 4863 
L 1178 4134 
L 603 4134 
L 603 4863 
z
" transform="scale(0.015625)"/>
       <path id="DejaVuSans-6d" d="M 3328 2828 
Q 3544 3216 3844 3400 
Q 4144 3584 4550 3584 
Q 5097 3584 5394 3201 
Q 5691 2819 5691 2113 
L 5691 0 
L 5113 0 
L 5113 2094 
Q 5113 2597 4934 2840 
Q 4756 3084 4391 3084 
Q 3944 3084 3684 2787 
Q 3425 2491 3425 1978 
L 3425 0 
L 2847 0 
L 2847 2094 
Q 2847 2600 2669 2842 
Q 2491 3084 2119 3084 
Q 1678 3084 1418 2786 
Q 1159 2488 1159 1978 
L 1159 0 
L 581 0 
L 581 3500 
L 1159 3500 
L 1159 2956 
Q 1356 3278 1631 3431 
Q 1906 3584 2284 3584 
Q 2666 3584 2933 3390 
Q 3200 3197 3328 2828 
z
" transform="scale(0.015625)"/>
       <path id="DejaVuSans-65" d="M 3597 1894 
L 3597 1613 
L 953 1613 
Q 991 1019 1311 708 
Q 1631 397 2203 397 
Q 2534 397 2845 478 
Q 3156 559 3463 722 
L 3463 178 
Q 3153 47 2828 -22 
Q 2503 -91 2169 -91 
Q 1331 -91 842 396 
Q 353 884 353 1716 
Q 353 2575 817 3079 
Q 1281 3584 2069 3584 
Q 2775 3584 3186 3129 
Q 3597 2675 3597 1894 
z
M 3022 2063 
Q 3016 2534 2758 2815 
Q 2500 3097 2075 3097 
Q 1594 3097 1305 2825 
Q 1016 2553 972 2059 
L 3022 2063 
z
" transform="scale(0.015625)"/>
       <path id="DejaVuSans-20" transform="scale(0.015625)"/>
       <path id="DejaVuSans-28" d="M 1984 4856 
Q 1566 4138 1362 3434 
Q 1159 2731 1159 2009 
Q 1159 1288 1364 580 
Q 1569 -128 1984 -844 
L 1484 -844 
Q 1016 -109 783 600 
Q 550 1309 550 2009 
Q 550 2706 781 3412 
Q 1013 4119 1484 4856 
L 1984 4856 
z
" transform="scale(0.015625)"/>
       <path id="DejaVuSans-Oblique-3bc" d="M -84 -1331 
L 856 3500 
L 1434 3500 
L 1009 1322 
Q 997 1256 987 1175 
Q 978 1094 978 1013 
Q 978 722 1161 565 
Q 1344 409 1684 409 
Q 2147 409 2431 671 
Q 2716 934 2816 1459 
L 3213 3500 
L 3788 3500 
L 3266 809 
Q 3253 750 3248 706 
Q 3244 663 3244 628 
Q 3244 531 3283 486 
Q 3322 441 3406 441 
Q 3438 441 3492 456 
Q 3547 472 3647 513 
L 3559 50 
Q 3422 -19 3297 -55 
Q 3172 -91 3053 -91 
Q 2847 -91 2730 40 
Q 2613 172 2613 403 
Q 2438 153 2195 31 
Q 1953 -91 1625 -91 
Q 1334 -91 1117 43 
Q 900 178 831 397 
L 494 -1331 
L -84 -1331 
z
" transform="scale(0.015625)"/>
       <path id="DejaVuSans-Oblique-73" d="M 3200 3397 
L 3091 2853 
Q 2863 2978 2609 3040 
Q 2356 3103 2088 3103 
Q 1634 3103 1373 2948 
Q 1113 2794 1113 2528 
Q 1113 2219 1719 2053 
Q 1766 2041 1788 2034 
L 1972 1978 
Q 2547 1819 2739 1644 
Q 2931 1469 2931 1166 
Q 2931 609 2489 259 
Q 2047 -91 1331 -91 
Q 1053 -91 747 -37 
Q 441 16 72 128 
L 184 722 
Q 500 559 806 475 
Q 1113 391 1394 391 
Q 1816 391 2080 572 
Q 2344 753 2344 1031 
Q 2344 1331 1650 1516 
L 1591 1531 
L 1394 1581 
Q 956 1697 753 1886 
Q 550 2075 550 2369 
Q 550 2928 970 3256 
Q 1391 3584 2113 3584 
Q 2397 3584 2667 3537 
Q 2938 3491 3200 3397 
z
" transform="scale(0.015625)"/>
       <path id="DejaVuSans-29" d="M 513 4856 
L 1013 4856 
Q 1481 4119 1714 3412 
Q 1947 2706 1947 2009 
Q 1947 1309 1714 600 
Q 1481 -109 1013 -844 
L 513 -844 
Q 928 -128 1133 580 
Q 1338 1288 1338 2009 
Q 1338 2731 1133 3434 
Q 928 4138 513 4856 
z
" transform="scale(0.015625)"/>
      </defs>
      <use xlink:href="#DejaVuSans-54" transform="translate(0 0.015625)"/>
      <use xlink:href="#DejaVuSans-69" transform="translate(61.083984 0.015625)"/>
      <use xlink:href="#DejaVuSans-6d" transform="translate(88.867188 0.015625)"/>
      <use xlink:href="#DejaVuSans-65" transform="translate(186.279297 0.015625)"/>
      <use xlink:href="#DejaVuSans-20" transform="translate(247.802734 0.015625)"/>
      <use xlink:href="#DejaVuSans-28" transform="translate(279.589844 0.015625)"/>
      <use xlink:href="#DejaVuSans-Oblique-3bc" transform="translate(318.603516 0.015625)"/>
      <use xlink:href="#DejaVuSans-Oblique-73" transform="translate(382.226562 0.015625)"/>
      <use xlink:href="#DejaVuSans-29" transform="translate(434.326172 0.015625)"/>
     </g>
    </g>
   </g>
   <g id="matplotlib.axis_2">
    <g id="ytick_1">
     <g id="line2d_15">
      <path d="M 56.64375 420.132414 
L 413.76375 420.132414 
" clip-path="url(#p1838bbbaab)" style="fill: none; stroke: #b0b0b0; stroke-width: 0.8; stroke-linecap: square"/>
     </g>
     <g id="line2d_16">
      <defs>
       <path id="m6f3f5b6aff" d="M 0 0 
L -3.5 0 
" style="stroke: #000000; stroke-width: 0.8"/>
      </defs>
      <g>
       <use xlink:href="#m6f3f5b6aff" x="56.64375" y="420.132414" style="stroke: #000000; stroke-width: 0.8"/>
      </g>
     </g>
     <g id="text_9">
      <!-- 0 -->
      <g transform="translate(40.1 425.831242) scale(0.15 -0.15)">
       <use xlink:href="#DejaVuSans-30"/>
      </g>
     </g>
    </g>
    <g id="ytick_2">
     <g id="line2d_17">
      <path d="M 56.64375 381.897931 
L 413.76375 381.897931 
" clip-path="url(#p1838bbbaab)" style="fill: none; stroke: #b0b0b0; stroke-width: 0.8; stroke-linecap: square"/>
     </g>
     <g id="line2d_18">
      <g>
       <use xlink:href="#m6f3f5b6aff" x="56.64375" y="381.897931" style="stroke: #000000; stroke-width: 0.8"/>
      </g>
     </g>
     <g id="text_10">
      <!-- 1 -->
      <g transform="translate(40.1 387.596759) scale(0.15 -0.15)">
       <use xlink:href="#DejaVuSans-31"/>
      </g>
     </g>
    </g>
    <g id="ytick_3">
     <g id="line2d_19">
      <path d="M 56.64375 343.663448 
L 413.76375 343.663448 
" clip-path="url(#p1838bbbaab)" style="fill: none; stroke: #b0b0b0; stroke-width: 0.8; stroke-linecap: square"/>
     </g>
     <g id="line2d_20">
      <g>
       <use xlink:href="#m6f3f5b6aff" x="56.64375" y="343.663448" style="stroke: #000000; stroke-width: 0.8"/>
      </g>
     </g>
     <g id="text_11">
      <!-- 2 -->
      <g transform="translate(40.1 349.362276) scale(0.15 -0.15)">
       <use xlink:href="#DejaVuSans-32"/>
      </g>
     </g>
    </g>
    <g id="ytick_4">
     <g id="line2d_21">
      <path d="M 56.64375 305.428966 
L 413.76375 305.428966 
" clip-path="url(#p1838bbbaab)" style="fill: none; stroke: #b0b0b0; stroke-width: 0.8; stroke-linecap: square"/>
     </g>
     <g id="line2d_22">
      <g>
       <use xlink:href="#m6f3f5b6aff" x="56.64375" y="305.428966" style="stroke: #000000; stroke-width: 0.8"/>
      </g>
     </g>
     <g id="text_12">
      <!-- 3 -->
      <g transform="translate(40.1 311.127794) scale(0.15 -0.15)">
       <defs>
        <path id="DejaVuSans-33" d="M 2597 2516 
Q 3050 2419 3304 2112 
Q 3559 1806 3559 1356 
Q 3559 666 3084 287 
Q 2609 -91 1734 -91 
Q 1441 -91 1130 -33 
Q 819 25 488 141 
L 488 750 
Q 750 597 1062 519 
Q 1375 441 1716 441 
Q 2309 441 2620 675 
Q 2931 909 2931 1356 
Q 2931 1769 2642 2001 
Q 2353 2234 1838 2234 
L 1294 2234 
L 1294 2753 
L 1863 2753 
Q 2328 2753 2575 2939 
Q 2822 3125 2822 3475 
Q 2822 3834 2567 4026 
Q 2313 4219 1838 4219 
Q 1578 4219 1281 4162 
Q 984 4106 628 3988 
L 628 4550 
Q 988 4650 1302 4700 
Q 1616 4750 1894 4750 
Q 2613 4750 3031 4423 
Q 3450 4097 3450 3541 
Q 3450 3153 3228 2886 
Q 3006 2619 2597 2516 
z
" transform="scale(0.015625)"/>
       </defs>
       <use xlink:href="#DejaVuSans-33"/>
      </g>
     </g>
    </g>
    <g id="ytick_5">
     <g id="line2d_23">
      <path d="M 56.64375 267.194483 
L 413.76375 267.194483 
" clip-path="url(#p1838bbbaab)" style="fill: none; stroke: #b0b0b0; stroke-width: 0.8; stroke-linecap: square"/>
     </g>
     <g id="line2d_24">
      <g>
       <use xlink:href="#m6f3f5b6aff" x="56.64375" y="267.194483" style="stroke: #000000; stroke-width: 0.8"/>
      </g>
     </g>
     <g id="text_13">
      <!-- 4 -->
      <g transform="translate(40.1 272.893311) scale(0.15 -0.15)">
       <defs>
        <path id="DejaVuSans-34" d="M 2419 4116 
L 825 1625 
L 2419 1625 
L 2419 4116 
z
M 2253 4666 
L 3047 4666 
L 3047 1625 
L 3713 1625 
L 3713 1100 
L 3047 1100 
L 3047 0 
L 2419 0 
L 2419 1100 
L 313 1100 
L 313 1709 
L 2253 4666 
z
" transform="scale(0.015625)"/>
       </defs>
       <use xlink:href="#DejaVuSans-34"/>
      </g>
     </g>
    </g>
    <g id="ytick_6">
     <g id="line2d_25">
      <path d="M 56.64375 228.96 
L 413.76375 228.96 
" clip-path="url(#p1838bbbaab)" style="fill: none; stroke: #b0b0b0; stroke-width: 0.8; stroke-linecap: square"/>
     </g>
     <g id="line2d_26">
      <g>
       <use xlink:href="#m6f3f5b6aff" x="56.64375" y="228.96" style="stroke: #000000; stroke-width: 0.8"/>
      </g>
     </g>
     <g id="text_14">
      <!-- 5 -->
      <g transform="translate(40.1 234.658828) scale(0.15 -0.15)">
       <use xlink:href="#DejaVuSans-35"/>
      </g>
     </g>
    </g>
    <g id="ytick_7">
     <g id="line2d_27">
      <path d="M 56.64375 190.725517 
L 413.76375 190.725517 
" clip-path="url(#p1838bbbaab)" style="fill: none; stroke: #b0b0b0; stroke-width: 0.8; stroke-linecap: square"/>
     </g>
     <g id="line2d_28">
      <g>
       <use xlink:href="#m6f3f5b6aff" x="56.64375" y="190.725517" style="stroke: #000000; stroke-width: 0.8"/>
      </g>
     </g>
     <g id="text_15">
      <!-- 6 -->
      <g transform="translate(40.1 196.424345) scale(0.15 -0.15)">
       <defs>
        <path id="DejaVuSans-36" d="M 2113 2584 
Q 1688 2584 1439 2293 
Q 1191 2003 1191 1497 
Q 1191 994 1439 701 
Q 1688 409 2113 409 
Q 2538 409 2786 701 
Q 3034 994 3034 1497 
Q 3034 2003 2786 2293 
Q 2538 2584 2113 2584 
z
M 3366 4563 
L 3366 3988 
Q 3128 4100 2886 4159 
Q 2644 4219 2406 4219 
Q 1781 4219 1451 3797 
Q 1122 3375 1075 2522 
Q 1259 2794 1537 2939 
Q 1816 3084 2150 3084 
Q 2853 3084 3261 2657 
Q 3669 2231 3669 1497 
Q 3669 778 3244 343 
Q 2819 -91 2113 -91 
Q 1303 -91 875 529 
Q 447 1150 447 2328 
Q 447 3434 972 4092 
Q 1497 4750 2381 4750 
Q 2619 4750 2861 4703 
Q 3103 4656 3366 4563 
z
" transform="scale(0.015625)"/>
       </defs>
       <use xlink:href="#DejaVuSans-36"/>
      </g>
     </g>
    </g>
    <g id="ytick_8">
     <g id="line2d_29">
      <path d="M 56.64375 152.491034 
L 413.76375 152.491034 
" clip-path="url(#p1838bbbaab)" style="fill: none; stroke: #b0b0b0; stroke-width: 0.8; stroke-linecap: square"/>
     </g>
     <g id="line2d_30">
      <g>
       <use xlink:href="#m6f3f5b6aff" x="56.64375" y="152.491034" style="stroke: #000000; stroke-width: 0.8"/>
      </g>
     </g>
     <g id="text_16">
      <!-- 7 -->
      <g transform="translate(40.1 158.189863) scale(0.15 -0.15)">
       <use xlink:href="#DejaVuSans-37"/>
      </g>
     </g>
    </g>
    <g id="ytick_9">
     <g id="line2d_31">
      <path d="M 56.64375 114.256552 
L 413.76375 114.256552 
" clip-path="url(#p1838bbbaab)" style="fill: none; stroke: #b0b0b0; stroke-width: 0.8; stroke-linecap: square"/>
     </g>
     <g id="line2d_32">
      <g>
       <use xlink:href="#m6f3f5b6aff" x="56.64375" y="114.256552" style="stroke: #000000; stroke-width: 0.8"/>
      </g>
     </g>
     <g id="text_17">
      <!-- 8 -->
      <g transform="translate(40.1 119.95538) scale(0.15 -0.15)">
       <defs>
        <path id="DejaVuSans-38" d="M 2034 2216 
Q 1584 2216 1326 1975 
Q 1069 1734 1069 1313 
Q 1069 891 1326 650 
Q 1584 409 2034 409 
Q 2484 409 2743 651 
Q 3003 894 3003 1313 
Q 3003 1734 2745 1975 
Q 2488 2216 2034 2216 
z
M 1403 2484 
Q 997 2584 770 2862 
Q 544 3141 544 3541 
Q 544 4100 942 4425 
Q 1341 4750 2034 4750 
Q 2731 4750 3128 4425 
Q 3525 4100 3525 3541 
Q 3525 3141 3298 2862 
Q 3072 2584 2669 2484 
Q 3125 2378 3379 2068 
Q 3634 1759 3634 1313 
Q 3634 634 3220 271 
Q 2806 -91 2034 -91 
Q 1263 -91 848 271 
Q 434 634 434 1313 
Q 434 1759 690 2068 
Q 947 2378 1403 2484 
z
M 1172 3481 
Q 1172 3119 1398 2916 
Q 1625 2713 2034 2713 
Q 2441 2713 2670 2916 
Q 2900 3119 2900 3481 
Q 2900 3844 2670 4047 
Q 2441 4250 2034 4250 
Q 1625 4250 1398 4047 
Q 1172 3844 1172 3481 
z
" transform="scale(0.015625)"/>
       </defs>
       <use xlink:href="#DejaVuSans-38"/>
      </g>
     </g>
    </g>
    <g id="ytick_10">
     <g id="line2d_33">
      <path d="M 56.64375 76.022069 
L 413.76375 76.022069 
" clip-path="url(#p1838bbbaab)" style="fill: none; stroke: #b0b0b0; stroke-width: 0.8; stroke-linecap: square"/>
     </g>
     <g id="line2d_34">
      <g>
       <use xlink:href="#m6f3f5b6aff" x="56.64375" y="76.022069" style="stroke: #000000; stroke-width: 0.8"/>
      </g>
     </g>
     <g id="text_18">
      <!-- 9 -->
      <g transform="translate(40.1 81.720897) scale(0.15 -0.15)">
       <defs>
        <path id="DejaVuSans-39" d="M 703 97 
L 703 672 
Q 941 559 1184 500 
Q 1428 441 1663 441 
Q 2288 441 2617 861 
Q 2947 1281 2994 2138 
Q 2813 1869 2534 1725 
Q 2256 1581 1919 1581 
Q 1219 1581 811 2004 
Q 403 2428 403 3163 
Q 403 3881 828 4315 
Q 1253 4750 1959 4750 
Q 2769 4750 3195 4129 
Q 3622 3509 3622 2328 
Q 3622 1225 3098 567 
Q 2575 -91 1691 -91 
Q 1453 -91 1209 -44 
Q 966 3 703 97 
z
M 1959 2075 
Q 2384 2075 2632 2365 
Q 2881 2656 2881 3163 
Q 2881 3666 2632 3958 
Q 2384 4250 1959 4250 
Q 1534 4250 1286 3958 
Q 1038 3666 1038 3163 
Q 1038 2656 1286 2365 
Q 1534 2075 1959 2075 
z
" transform="scale(0.015625)"/>
       </defs>
       <use xlink:href="#DejaVuSans-39"/>
      </g>
     </g>
    </g>
    <g id="ytick_11">
     <g id="line2d_35">
      <path d="M 56.64375 37.787586 
L 413.76375 37.787586 
" clip-path="url(#p1838bbbaab)" style="fill: none; stroke: #b0b0b0; stroke-width: 0.8; stroke-linecap: square"/>
     </g>
     <g id="line2d_36">
      <g>
       <use xlink:href="#m6f3f5b6aff" x="56.64375" y="37.787586" style="stroke: #000000; stroke-width: 0.8"/>
      </g>
     </g>
     <g id="text_19">
      <!-- 10 -->
      <g transform="translate(30.55625 43.486414) scale(0.15 -0.15)">
       <use xlink:href="#DejaVuSans-31"/>
       <use xlink:href="#DejaVuSans-30" transform="translate(63.623047 0)"/>
      </g>
     </g>
    </g>
    <g id="text_20">
     <!-- Amplitude on each ion (arb. unit) -->
     <g transform="translate(22.396875 394.845937) rotate(-90) scale(0.2 -0.2)">
      <defs>
       <path id="DejaVuSans-41" d="M 2188 4044 
L 1331 1722 
L 3047 1722 
L 2188 4044 
z
M 1831 4666 
L 2547 4666 
L 4325 0 
L 3669 0 
L 3244 1197 
L 1141 1197 
L 716 0 
L 50 0 
L 1831 4666 
z
" transform="scale(0.015625)"/>
       <path id="DejaVuSans-70" d="M 1159 525 
L 1159 -1331 
L 581 -1331 
L 581 3500 
L 1159 3500 
L 1159 2969 
Q 1341 3281 1617 3432 
Q 1894 3584 2278 3584 
Q 2916 3584 3314 3078 
Q 3713 2572 3713 1747 
Q 3713 922 3314 415 
Q 2916 -91 2278 -91 
Q 1894 -91 1617 61 
Q 1341 213 1159 525 
z
M 3116 1747 
Q 3116 2381 2855 2742 
Q 2594 3103 2138 3103 
Q 1681 3103 1420 2742 
Q 1159 2381 1159 1747 
Q 1159 1113 1420 752 
Q 1681 391 2138 391 
Q 2594 391 2855 752 
Q 3116 1113 3116 1747 
z
" transform="scale(0.015625)"/>
       <path id="DejaVuSans-6c" d="M 603 4863 
L 1178 4863 
L 1178 0 
L 603 0 
L 603 4863 
z
" transform="scale(0.015625)"/>
       <path id="DejaVuSans-74" d="M 1172 4494 
L 1172 3500 
L 2356 3500 
L 2356 3053 
L 1172 3053 
L 1172 1153 
Q 1172 725 1289 603 
Q 1406 481 1766 481 
L 2356 481 
L 2356 0 
L 1766 0 
Q 1100 0 847 248 
Q 594 497 594 1153 
L 594 3053 
L 172 3053 
L 172 3500 
L 594 3500 
L 594 4494 
L 1172 4494 
z
" transform="scale(0.015625)"/>
       <path id="DejaVuSans-75" d="M 544 1381 
L 544 3500 
L 1119 3500 
L 1119 1403 
Q 1119 906 1312 657 
Q 1506 409 1894 409 
Q 2359 409 2629 706 
Q 2900 1003 2900 1516 
L 2900 3500 
L 3475 3500 
L 3475 0 
L 2900 0 
L 2900 538 
Q 2691 219 2414 64 
Q 2138 -91 1772 -91 
Q 1169 -91 856 284 
Q 544 659 544 1381 
z
M 1991 3584 
L 1991 3584 
z
" transform="scale(0.015625)"/>
       <path id="DejaVuSans-64" d="M 2906 2969 
L 2906 4863 
L 3481 4863 
L 3481 0 
L 2906 0 
L 2906 525 
Q 2725 213 2448 61 
Q 2172 -91 1784 -91 
Q 1150 -91 751 415 
Q 353 922 353 1747 
Q 353 2572 751 3078 
Q 1150 3584 1784 3584 
Q 2172 3584 2448 3432 
Q 2725 3281 2906 2969 
z
M 947 1747 
Q 947 1113 1208 752 
Q 1469 391 1925 391 
Q 2381 391 2643 752 
Q 2906 1113 2906 1747 
Q 2906 2381 2643 2742 
Q 2381 3103 1925 3103 
Q 1469 3103 1208 2742 
Q 947 2381 947 1747 
z
" transform="scale(0.015625)"/>
       <path id="DejaVuSans-6f" d="M 1959 3097 
Q 1497 3097 1228 2736 
Q 959 2375 959 1747 
Q 959 1119 1226 758 
Q 1494 397 1959 397 
Q 2419 397 2687 759 
Q 2956 1122 2956 1747 
Q 2956 2369 2687 2733 
Q 2419 3097 1959 3097 
z
M 1959 3584 
Q 2709 3584 3137 3096 
Q 3566 2609 3566 1747 
Q 3566 888 3137 398 
Q 2709 -91 1959 -91 
Q 1206 -91 779 398 
Q 353 888 353 1747 
Q 353 2609 779 3096 
Q 1206 3584 1959 3584 
z
" transform="scale(0.015625)"/>
       <path id="DejaVuSans-6e" d="M 3513 2113 
L 3513 0 
L 2938 0 
L 2938 2094 
Q 2938 2591 2744 2837 
Q 2550 3084 2163 3084 
Q 1697 3084 1428 2787 
Q 1159 2491 1159 1978 
L 1159 0 
L 581 0 
L 581 3500 
L 1159 3500 
L 1159 2956 
Q 1366 3272 1645 3428 
Q 1925 3584 2291 3584 
Q 2894 3584 3203 3211 
Q 3513 2838 3513 2113 
z
" transform="scale(0.015625)"/>
       <path id="DejaVuSans-61" d="M 2194 1759 
Q 1497 1759 1228 1600 
Q 959 1441 959 1056 
Q 959 750 1161 570 
Q 1363 391 1709 391 
Q 2188 391 2477 730 
Q 2766 1069 2766 1631 
L 2766 1759 
L 2194 1759 
z
M 3341 1997 
L 3341 0 
L 2766 0 
L 2766 531 
Q 2569 213 2275 61 
Q 1981 -91 1556 -91 
Q 1019 -91 701 211 
Q 384 513 384 1019 
Q 384 1609 779 1909 
Q 1175 2209 1959 2209 
L 2766 2209 
L 2766 2266 
Q 2766 2663 2505 2880 
Q 2244 3097 1772 3097 
Q 1472 3097 1187 3025 
Q 903 2953 641 2809 
L 641 3341 
Q 956 3463 1253 3523 
Q 1550 3584 1831 3584 
Q 2591 3584 2966 3190 
Q 3341 2797 3341 1997 
z
" transform="scale(0.015625)"/>
       <path id="DejaVuSans-63" d="M 3122 3366 
L 3122 2828 
Q 2878 2963 2633 3030 
Q 2388 3097 2138 3097 
Q 1578 3097 1268 2742 
Q 959 2388 959 1747 
Q 959 1106 1268 751 
Q 1578 397 2138 397 
Q 2388 397 2633 464 
Q 2878 531 3122 666 
L 3122 134 
Q 2881 22 2623 -34 
Q 2366 -91 2075 -91 
Q 1284 -91 818 406 
Q 353 903 353 1747 
Q 353 2603 823 3093 
Q 1294 3584 2113 3584 
Q 2378 3584 2631 3529 
Q 2884 3475 3122 3366 
z
" transform="scale(0.015625)"/>
       <path id="DejaVuSans-68" d="M 3513 2113 
L 3513 0 
L 2938 0 
L 2938 2094 
Q 2938 2591 2744 2837 
Q 2550 3084 2163 3084 
Q 1697 3084 1428 2787 
Q 1159 2491 1159 1978 
L 1159 0 
L 581 0 
L 581 4863 
L 1159 4863 
L 1159 2956 
Q 1366 3272 1645 3428 
Q 1925 3584 2291 3584 
Q 2894 3584 3203 3211 
Q 3513 2838 3513 2113 
z
" transform="scale(0.015625)"/>
       <path id="DejaVuSans-72" d="M 2631 2963 
Q 2534 3019 2420 3045 
Q 2306 3072 2169 3072 
Q 1681 3072 1420 2755 
Q 1159 2438 1159 1844 
L 1159 0 
L 581 0 
L 581 3500 
L 1159 3500 
L 1159 2956 
Q 1341 3275 1631 3429 
Q 1922 3584 2338 3584 
Q 2397 3584 2469 3576 
Q 2541 3569 2628 3553 
L 2631 2963 
z
" transform="scale(0.015625)"/>
       <path id="DejaVuSans-62" d="M 3116 1747 
Q 3116 2381 2855 2742 
Q 2594 3103 2138 3103 
Q 1681 3103 1420 2742 
Q 1159 2381 1159 1747 
Q 1159 1113 1420 752 
Q 1681 391 2138 391 
Q 2594 391 2855 752 
Q 3116 1113 3116 1747 
z
M 1159 2969 
Q 1341 3281 1617 3432 
Q 1894 3584 2278 3584 
Q 2916 3584 3314 3078 
Q 3713 2572 3713 1747 
Q 3713 922 3314 415 
Q 2916 -91 2278 -91 
Q 1894 -91 1617 61 
Q 1341 213 1159 525 
L 1159 0 
L 581 0 
L 581 4863 
L 1159 4863 
L 1159 2969 
z
" transform="scale(0.015625)"/>
       <path id="DejaVuSans-2e" d="M 684 794 
L 1344 794 
L 1344 0 
L 684 0 
L 684 794 
z
" transform="scale(0.015625)"/>
      </defs>
      <use xlink:href="#DejaVuSans-41"/>
      <use xlink:href="#DejaVuSans-6d" transform="translate(68.408203 0)"/>
      <use xlink:href="#DejaVuSans-70" transform="translate(165.820312 0)"/>
      <use xlink:href="#DejaVuSans-6c" transform="translate(229.296875 0)"/>
      <use xlink:href="#DejaVuSans-69" transform="translate(257.080078 0)"/>
      <use xlink:href="#DejaVuSans-74" transform="translate(284.863281 0)"/>
      <use xlink:href="#DejaVuSans-75" transform="translate(324.072266 0)"/>
      <use xlink:href="#DejaVuSans-64" transform="translate(387.451172 0)"/>
      <use xlink:href="#DejaVuSans-65" transform="translate(450.927734 0)"/>
      <use xlink:href="#DejaVuSans-20" transform="translate(512.451172 0)"/>
      <use xlink:href="#DejaVuSans-6f" transform="translate(544.238281 0)"/>
      <use xlink:href="#DejaVuSans-6e" transform="translate(605.419922 0)"/>
      <use xlink:href="#DejaVuSans-20" transform="translate(668.798828 0)"/>
      <use xlink:href="#DejaVuSans-65" transform="translate(700.585938 0)"/>
      <use xlink:href="#DejaVuSans-61" transform="translate(762.109375 0)"/>
      <use xlink:href="#DejaVuSans-63" transform="translate(823.388672 0)"/>
      <use xlink:href="#DejaVuSans-68" transform="translate(878.369141 0)"/>
      <use xlink:href="#DejaVuSans-20" transform="translate(941.748047 0)"/>
      <use xlink:href="#DejaVuSans-69" transform="translate(973.535156 0)"/>
      <use xlink:href="#DejaVuSans-6f" transform="translate(1001.318359 0)"/>
      <use xlink:href="#DejaVuSans-6e" transform="translate(1062.5 0)"/>
      <use xlink:href="#DejaVuSans-20" transform="translate(1125.878906 0)"/>
      <use xlink:href="#DejaVuSans-28" transform="translate(1157.666016 0)"/>
      <use xlink:href="#DejaVuSans-61" transform="translate(1196.679688 0)"/>
      <use xlink:href="#DejaVuSans-72" transform="translate(1257.958984 0)"/>
      <use xlink:href="#DejaVuSans-62" transform="translate(1299.072266 0)"/>
      <use xlink:href="#DejaVuSans-2e" transform="translate(1362.548828 0)"/>
      <use xlink:href="#DejaVuSans-20" transform="translate(1394.335938 0)"/>
      <use xlink:href="#DejaVuSans-75" transform="translate(1426.123047 0)"/>
      <use xlink:href="#DejaVuSans-6e" transform="translate(1489.501953 0)"/>
      <use xlink:href="#DejaVuSans-69" transform="translate(1552.880859 0)"/>
      <use xlink:href="#DejaVuSans-74" transform="translate(1580.664062 0)"/>
      <use xlink:href="#DejaVuSans-29" transform="translate(1619.873047 0)"/>
     </g>
    </g>
   </g>
   <g id="line2d_37">
    <path d="M 56.64375 420.132414 
L 63.78615 419.492965 
L 63.78615 419.492965 
L 69.50007 418.403644 
L 69.50007 418.403644 
L 70.92855 418.280938 
L 70.92855 418.280938 
L 76.73749 418.14292 
L 78.07095 418.414942 
L 78.07095 418.414942 
L 81.40407 419.850928 
L 81.40407 419.850928 
L 83.78487 420.752979 
L 83.78487 420.752979 
L 85.21335 421.657518 
L 85.21335 421.657518 
L 91.531438 427.165993 
L 92.866779 428.209319 
L 95.21271 429.889312 
L 95.21271 429.889312 
L 96.83123 431.030588 
L 98.508976 431.819035 
L 99.14103 431.97143 
L 99.14103 431.97143 
L 99.97431 431.855584 
L 99.97431 431.855584 
L 101.64087 431.408361 
L 101.64087 431.408361 
L 103.346388 430.699256 
L 106.64055 428.352289 
L 106.64055 428.352289 
L 109.02135 426.25432 
L 109.02135 426.25432 
L 111.87831 423.430471 
L 113.880759 421.77345 
L 116.689999 420.163562 
L 118.78263 419.165245 
L 120.92535 417.877419 
L 120.92535 417.877419 
L 124.354052 416.046519 
L 131.28183 412.904432 
L 131.28183 412.904432 
L 132.959763 412.494972 
L 134.305542 412.530843 
L 135.56727 412.752575 
L 135.56727 412.752575 
L 137.11479 413.29618 
L 137.11479 413.29618 
L 138.06711 413.673158 
L 138.06711 413.673158 
L 141.365705 414.891578 
L 143.064024 415.693332 
L 145.679098 416.899922 
L 147.35174 417.459567 
L 148.425868 417.55973 
L 150.414538 417.443149 
L 158.42295 416.207626 
L 158.42295 416.207626 
L 161.39895 415.714527 
L 161.39895 415.714527 
L 163.007164 415.720459 
L 168.284353 416.22121 
L 171.765678 416.309455 
L 174.49335 416.253764 
L 174.49335 416.253764 
L 176.777604 416.164983 
L 178.06455 416.045296 
L 178.06455 416.045296 
L 181.04055 416.079526 
L 181.04055 416.079526 
L 183.904104 416.400839 
L 185.56407 417.05882 
L 185.56407 417.05882 
L 189.216966 419.556633 
L 190.20663 420.439828 
L 190.20663 420.439828 
L 191.63511 422.179941 
L 191.63511 422.179941 
L 192.82551 423.77553 
L 192.82551 423.77553 
L 195.588115 427.852372 
L 197.11095 430.580634 
L 197.11095 430.580634 
L 199.49175 435.15708 
L 199.49175 435.15708 
L 202.068941 439.184241 
L 203.423469 440.891129 
L 204.551643 441.975372 
L 205.625069 442.618085 
L 206.63415 443.002578 
L 206.63415 443.002578 
L 208.0851 443.242319 
L 208.53879 443.209384 
L 209.534194 442.891669 
L 210.695758 441.791527 
L 211.552492 440.757639 
L 212.396947 439.411039 
L 214.71461 435.550627 
L 223.29975 422.472966 
L 223.29975 422.472966 
L 226.08766 419.61136 
L 228.06135 417.65807 
L 228.06135 417.65807 
L 230.11069 415.03885 
L 232.724575 411.23536 
L 233.482032 410.3438 
L 236.782496 407.127888 
L 239.48919 405.184222 
L 240.005947 405.055408 
L 241.074114 405.034549 
L 242.503588 405.088523 
L 243.06039 405.310842 
L 243.06039 405.310842 
L 243.796068 405.876233 
L 246.811041 408.487968 
L 248.53623 410.383847 
L 248.53623 410.383847 
L 250.07609 411.894546 
L 252.428991 413.627862 
L 253.854274 414.525827 
L 255.91671 415.311488 
L 255.91671 415.311488 
L 256.63095 415.358765 
L 256.63095 415.358765 
L 257.581152 415.158402 
L 259.858711 414.533108 
L 260.91639 414.03198 
L 260.91639 414.03198 
L 263.29719 412.760526 
L 263.29719 412.760526 
L 265.297285 412.196149 
L 268.77303 411.28333 
L 268.77303 411.28333 
L 269.96343 411.321579 
L 269.96343 411.321579 
L 271.470994 411.613629 
L 274.36791 412.488291 
L 274.36791 412.488291 
L 276.018292 413.39404 
L 278.05815 414.398052 
L 278.05815 414.398052 
L 284.48631 417.044269 
L 286.056268 417.444356 
L 289.629126 418.296885 
L 292.34295 418.761973 
L 292.34295 418.761973 
L 295.961432 419.760055 
L 296.911457 420.226015 
L 300.91383 422.504638 
L 300.91383 422.504638 
L 303.117063 424.071977 
L 309.48471 429.69392 
L 309.48471 429.69392 
L 310.809615 430.375457 
L 312.113987 430.867573 
L 314.48439 431.553468 
L 314.48439 431.553468 
L 316.109307 431.715556 
L 316.84416 431.543201 
L 317.920128 431.049525 
L 322.81719 427.731624 
L 322.81719 427.731624 
L 326.62647 425.081583 
L 326.62647 425.081583 
L 330.55479 422.342047 
L 330.55479 422.342047 
L 334.353641 420.190758 
L 335.91159 419.239279 
L 335.91159 419.239279 
L 338.373069 417.303037 
L 340.55415 415.614707 
L 340.55415 415.614707 
L 341.98263 414.72656 
L 341.98263 414.72656 
L 344.72055 413.388456 
L 344.72055 413.388456 
L 346.427984 412.762979 
L 347.83451 412.515341 
L 348.41079 412.498016 
L 348.41079 412.498016 
L 349.700332 412.690903 
L 351.26775 413.196959 
L 351.26775 413.196959 
L 352.642752 413.81857 
L 358.76727 416.8682 
L 358.76727 416.8682 
L 360.43383 417.411945 
L 362.438566 417.796983 
L 364.747766 417.764451 
L 366.14775 417.587428 
L 366.14775 417.587428 
L 368.267468 417.015476 
L 370.218604 416.501884 
L 373.589234 415.929347 
L 375.733993 415.710758 
L 378.143593 415.757327 
L 380.632467 416.163753 
L 382.381706 416.672398 
L 392.33655 419.518739 
L 392.33655 419.518739 
L 395.90775 420.053908 
L 395.90775 420.053908 
L 400.828636 420.442237 
L 405.520633 420.335105 
L 409.651896 420.242452 
L 413.76375 420.132414 
L 413.76375 420.132414 
" clip-path="url(#p1838bbbaab)" style="fill: none; stroke: #1f77b4; stroke-width: 1.5; stroke-linecap: square"/>
   </g>
   <g id="line2d_38">
    <path d="M 56.64375 381.897931 
L 70.039577 381.95741 
L 78.07095 380.288588 
L 78.07095 380.288588 
L 82.35639 379.2028 
L 82.35639 379.2028 
L 83.78487 379.03477 
L 83.78487 379.03477 
L 85.674459 379.00285 
L 92.35575 379.446255 
L 92.35575 379.446255 
L 94.801756 379.713085 
L 96.83123 379.992676 
L 104.25975 380.10961 
L 106.16439 380.264681 
L 106.16439 380.264681 
L 109.02135 380.197971 
L 109.02135 380.197971 
L 115.56855 379.084179 
L 115.56855 379.084179 
L 118.78263 378.157581 
L 123.622884 376.446806 
L 128.66295 375.21003 
L 128.66295 375.21003 
L 132.431585 373.720787 
L 133.90071 373.146196 
L 133.90071 373.146196 
L 135.12698 372.864827 
L 135.56727 372.752931 
L 135.56727 372.752931 
L 141.63831 371.081405 
L 141.63831 371.081405 
L 143.064024 371.237609 
L 144.97143 371.950114 
L 144.97143 371.950114 
L 146.63799 372.765247 
L 146.63799 372.765247 
L 150.414538 375.272702 
L 153.30423 377.770816 
L 156.720831 380.797944 
L 159.49431 382.396142 
L 159.49431 382.396142 
L 163.007164 383.905122 
L 165.312838 384.513001 
L 168.06519 384.881792 
L 168.06519 384.881792 
L 175.68375 384.573421 
L 176.66652 384.366952 
L 177.477437 383.999042 
L 178.77879 383.432341 
L 178.77879 383.432341 
L 181.04055 382.390066 
L 181.04055 382.390066 
L 183.100438 381.580866 
L 185.56407 379.748183 
L 185.56407 379.748183 
L 188.06391 378.246441 
L 189.598018 377.54618 
L 191.994842 377.249948 
L 192.82551 377.147847 
L 192.82551 377.147847 
L 194.73015 376.844301 
L 194.73015 376.844301 
L 196.27767 376.834639 
L 196.27767 376.834639 
L 198.853191 377.599323 
L 201.797293 378.176385 
L 203.30103 378.290735 
L 203.30103 378.290735 
L 206.63415 378.246788 
L 206.63415 378.246788 
L 208.219421 378.339125 
L 209.96727 378.537269 
L 209.96727 378.537269 
L 215.635443 378.377458 
L 216.76708 378.240914 
L 219.06506 378.111076 
L 220.32375 377.708614 
L 220.32375 377.708614 
L 223.438885 376.24195 
L 225.940703 374.848489 
L 227.166379 374.00744 
L 230.20407 372.525241 
L 230.20407 372.525241 
L 237.758896 367.56764 
L 240.207986 365.503108 
L 243.29847 362.889669 
L 243.29847 362.889669 
L 244.185325 362.166427 
L 246.328782 360.569351 
L 247.433782 360.116677 
L 249.48855 359.714765 
L 249.48855 359.714765 
L 250.126107 359.973227 
L 252.651616 361.445744 
L 253.41687 362.074522 
L 253.41687 362.074522 
L 254.72631 363.601297 
L 254.72631 363.601297 
L 256.270984 365.608699 
L 263.469717 377.728899 
L 265.96988 381.039777 
L 267.34455 382.59794 
L 267.34455 382.59794 
L 268.77303 383.850543 
L 268.77303 383.850543 
L 270.118709 384.652695 
L 273.77271 386.281157 
L 273.77271 386.281157 
L 274.36791 386.450634 
L 274.36791 386.450634 
L 277.58199 386.580737 
L 281.39127 386.60348 
L 281.39127 386.60348 
L 283.29591 386.227027 
L 283.29591 386.227027 
L 285.20055 385.630942 
L 285.20055 385.630942 
L 286.740606 385.075448 
L 289.96215 383.950581 
L 289.96215 383.950581 
L 294.72375 381.546285 
L 296.39031 380.956981 
L 296.39031 380.956981 
L 299.48535 380.27237 
L 299.48535 380.27237 
L 302.954215 379.867215 
L 311.164459 380.236083 
L 316.50807 380.275797 
L 316.50807 380.275797 
L 318.224263 380.268019 
L 325.91223 380.098144 
L 328.525629 379.778615 
L 331.991659 379.021087 
L 336.62583 377.806632 
L 336.62583 377.806632 
L 339.72087 376.925476 
L 342.722794 375.845489 
L 349.188465 373.005099 
L 351.62487 371.714763 
L 351.62487 371.714763 
L 353.459281 370.968138 
L 355.790852 370.60135 
L 356.874993 370.615704 
L 358.76727 370.878538 
L 358.76727 370.878538 
L 360.43383 371.577308 
L 362.438566 372.632738 
L 365.19543 374.788965 
L 365.19543 374.788965 
L 368.76663 377.910695 
L 368.76663 377.910695 
L 370.218604 378.961336 
L 372.78547 380.6705 
L 374.922022 381.822521 
L 375.733993 382.192649 
L 378.143593 382.871697 
L 380.632467 383.391041 
L 384.841506 383.776005 
L 388.471407 383.845803 
L 395.90775 383.34736 
L 395.90775 383.34736 
L 407.81175 382.109608 
L 407.81175 382.109608 
L 413.76375 381.897931 
L 413.76375 381.897931 
" clip-path="url(#p1838bbbaab)" style="fill: none; stroke: #ff7f0e; stroke-width: 1.5; stroke-linecap: square"/>
   </g>
   <g id="line2d_39">
    <path d="M 56.64375 343.663448 
L 63.78615 342.713715 
L 63.78615 342.713715 
L 70.039577 341.066686 
L 70.92855 340.882428 
L 70.92855 340.882428 
L 76.99959 340.258136 
L 76.99959 340.258136 
L 78.07095 340.285549 
L 78.07095 340.285549 
L 84.884402 342.034408 
L 90.002777 344.429101 
L 92.35575 345.63236 
L 92.35575 345.63236 
L 96.674582 347.091331 
L 98.903951 347.430631 
L 99.97431 347.423758 
L 99.97431 347.423758 
L 102.35511 347.177451 
L 105.21207 346.645311 
L 105.21207 346.645311 
L 107.226425 346.077712 
L 110.227057 345.379529 
L 113.880759 344.777513 
L 120.032847 343.036785 
L 122.11575 342.161044 
L 122.11575 342.161044 
L 124.362531 341.041209 
L 127.35351 339.545759 
L 127.35351 339.545759 
L 129.768597 338.828364 
L 132.364425 338.680203 
L 134.305542 338.780845 
L 136.416311 339.363337 
L 138.840597 340.443048 
L 143.30487 342.331676 
L 143.30487 342.331676 
L 145.163432 342.782921 
L 148.425868 343.19081 
L 150.414538 343.196496 
L 153.30423 342.830615 
L 156.359451 342.345216 
L 158.42295 342.312156 
L 158.42295 342.312156 
L 166.16055 342.461524 
L 168.284353 342.527481 
L 170.035122 342.334443 
L 171.765678 341.887894 
L 175.26189 340.754697 
L 176.777604 340.222276 
L 180.550309 338.759209 
L 181.04055 338.616568 
L 181.04055 338.616568 
L 184.13559 338.139972 
L 184.13559 338.139972 
L 185.56407 338.18186 
L 185.56407 338.18186 
L 189.598018 339.135329 
L 190.602018 339.610908 
L 192.081313 340.588172 
L 193.77783 341.939882 
L 195.588115 343.327667 
L 196.751663 344.292185 
L 201.780022 348.723445 
L 204.511186 350.232186 
L 205.625069 350.498607 
L 208.219421 350.726958 
L 210.149579 350.569422 
L 211.594876 350.226109 
L 213.61021 349.234576 
L 214.968798 348.708656 
L 217.393671 347.961107 
L 219.647381 347.377691 
L 223.29975 345.566072 
L 223.29975 345.566072 
L 224.104654 345.075883 
L 226.27575 343.772322 
L 226.27575 343.772322 
L 227.360279 342.83285 
L 230.046367 340.113295 
L 233.482032 336.177602 
L 236.15607 334.23268 
L 236.15607 334.23268 
L 237.666231 333.648174 
L 239.25111 333.247309 
L 239.25111 333.247309 
L 240.005947 333.298218 
L 240.207986 333.351663 
L 243.06039 334.656713 
L 243.06039 334.656713 
L 248.53623 339.549696 
L 248.53623 339.549696 
L 250.096352 340.711922 
L 252.014805 341.707408 
L 253.29783 342.19948 
L 253.29783 342.19948 
L 254.72631 342.502108 
L 254.72631 342.502108 
L 256.270984 342.660992 
L 256.98807 342.526505 
L 256.98807 342.526505 
L 261.39255 341.185754 
L 263.77335 340.712218 
L 263.77335 340.712218 
L 267.34455 340.442257 
L 267.34455 340.442257 
L 269.13015 340.598322 
L 269.13015 340.598322 
L 270.141523 340.810911 
L 271.620119 341.312445 
L 274.36791 342.319471 
L 274.36791 342.319471 
L 278.05815 343.302392 
L 278.05815 343.302392 
L 281.62935 343.853426 
L 281.62935 343.853426 
L 283.083278 343.826438 
L 285.938893 343.448515 
L 292.34295 342.306671 
L 292.34295 342.306671 
L 295.937856 342.054795 
L 296.911457 342.146906 
L 300.91383 342.835531 
L 300.91383 342.835531 
L 303.29463 343.561891 
L 303.29463 343.561891 
L 309.557126 346.028366 
L 312.113987 346.614181 
L 314.812644 347.084601 
L 316.50807 347.173259 
L 316.50807 347.173259 
L 317.920128 346.999616 
L 321.26967 346.574339 
L 321.26967 346.574339 
L 323.515966 346.436091 
L 324.560286 346.327413 
L 325.91223 346.083437 
L 331.329836 344.811859 
L 333.05463 344.172073 
L 333.05463 344.172073 
L 335.338554 343.064538 
L 341.171298 339.669775 
L 342.828797 339.017148 
L 345.416302 338.456099 
L 346.62519 338.397788 
L 348.05367 338.596832 
L 348.05367 338.596832 
L 349.700332 339.073769 
L 353.52951 340.730301 
L 355.790852 341.712366 
L 358.76727 342.628713 
L 358.76727 342.628713 
L 360.43383 342.879765 
L 363.546798 342.935324 
L 365.627706 342.661284 
L 369.95703 342.043217 
L 369.95703 342.043217 
L 372.426397 341.862876 
L 374.24247 341.913183 
L 378.143593 342.254598 
L 387.6757 344.323488 
L 391.565558 344.795236 
L 392.33655 344.878781 
L 392.33655 344.878781 
L 395.90775 344.769156 
L 395.90775 344.769156 
L 401.667767 344.377044 
L 407.81175 343.873414 
L 407.81175 343.873414 
L 413.76375 343.663448 
L 413.76375 343.663448 
" clip-path="url(#p1838bbbaab)" style="fill: none; stroke: #2ca02c; stroke-width: 1.5; stroke-linecap: square"/>
   </g>
   <g id="line2d_40">
    <path d="M 56.64375 305.428966 
L 63.42903 307.599776 
L 63.42903 307.599776 
L 63.78615 307.833468 
L 63.78615 307.833468 
L 69.02391 311.68749 
L 69.02391 311.68749 
L 70.21431 312.249263 
L 70.21431 312.249263 
L 74.85687 314.00193 
L 74.85687 314.00193 
L 75.92823 314.271248 
L 75.92823 314.271248 
L 76.73749 314.280724 
L 77.824239 313.950814 
L 82.83255 311.205722 
L 82.83255 311.205722 
L 84.26103 310.419173 
L 85.21335 309.699547 
L 85.21335 309.699547 
L 90.133317 305.082374 
L 92.866779 303.289629 
L 95.21271 301.835079 
L 95.21271 301.835079 
L 97.35543 300.37603 
L 97.35543 300.37603 
L 99.14103 299.447061 
L 99.14103 299.447061 
L 99.97431 299.310213 
L 99.97431 299.310213 
L 101.64087 299.245359 
L 101.64087 299.245359 
L 105.21207 299.275171 
L 105.21207 299.275171 
L 106.64055 299.27131 
L 106.64055 299.27131 
L 109.02135 299.547984 
L 109.02135 299.547984 
L 113.125053 300.963974 
L 113.880759 301.191376 
L 118.78263 301.851073 
L 123.42519 303.600144 
L 123.42519 303.600144 
L 129.089808 304.434043 
L 130.92471 304.871782 
L 130.92471 304.871782 
L 132.59127 305.135891 
L 132.959763 305.145229 
L 135.21015 304.776823 
L 135.21015 304.776823 
L 137.11479 304.310942 
L 137.11479 304.310942 
L 137.929734 304.148988 
L 141.63831 304.120942 
L 141.63831 304.120942 
L 142.35255 304.145608 
L 142.35255 304.145608 
L 144.85239 303.634979 
L 144.85239 303.634979 
L 147.201323 303.385454 
L 149.492576 303.819737 
L 150.414538 304.0704 
L 152.038766 304.521765 
L 156.720831 304.944791 
L 165.312838 307.501005 
L 166.960443 308.522468 
L 169.01751 310.128917 
L 169.01751 310.128917 
L 170.20791 311.317442 
L 170.20791 311.317442 
L 172.766585 314.467543 
L 177.477437 320.12764 
L 178.77879 321.153732 
L 178.77879 321.153732 
L 181.04055 322.525646 
L 181.04055 322.525646 
L 183.100438 323.349372 
L 183.424352 323.292958 
L 184.378868 322.752626 
L 185.56407 321.968092 
L 185.56407 321.968092 
L 188.06391 319.568968 
L 190.786845 316.4661 
L 194.73015 310.621206 
L 194.73015 310.621206 
L 199.13463 303.511551 
L 199.13463 303.511551 
L 199.49175 302.946485 
L 199.49175 302.946485 
L 202.068941 299.720448 
L 203.997845 297.553887 
L 205.625069 295.92725 
L 208.0851 293.970459 
L 209.01495 293.413058 
L 210.095274 293.187101 
L 211.594876 293.127414 
L 212.396947 293.316233 
L 213.77655 293.796805 
L 213.77655 293.796805 
L 218.18103 294.247123 
L 218.18103 294.247123 
L 218.638109 294.373879 
L 219.647381 294.952889 
L 222.836585 297.057765 
L 223.77591 297.479434 
L 223.77591 297.479434 
L 225.919506 298.189106 
L 228.06135 299.241963 
L 228.06135 299.241963 
L 232.82295 302.916316 
L 233.77527 303.239389 
L 238.059729 304.386614 
L 239.367724 304.772067 
L 240.207986 304.708612 
L 243.06039 304.415702 
L 243.06039 304.415702 
L 245.20311 303.443371 
L 247.433782 302.452288 
L 250.126107 301.891836 
L 253.41687 301.410727 
L 253.41687 301.410727 
L 254.72631 301.428294 
L 254.72631 301.428294 
L 256.270984 301.491091 
L 256.98807 301.732607 
L 256.98807 301.732607 
L 261.802562 303.903634 
L 270.91575 308.195473 
L 270.91575 308.195473 
L 273.34385 309.184843 
L 276.018292 310.387776 
L 281.39127 312.936529 
L 281.39127 312.936529 
L 283.083278 313.697395 
L 285.194707 314.288048 
L 286.902493 314.632315 
L 289.313719 314.77146 
L 290.588623 314.538766 
L 292.34295 313.997165 
L 292.34295 313.997165 
L 295.43799 312.637098 
L 295.43799 312.637098 
L 296.911457 311.7283 
L 311.340566 302.053865 
L 312.113987 301.657775 
L 315.31767 300.248834 
L 315.31767 300.248834 
L 316.84416 299.772684 
L 318.224263 299.611601 
L 323.53143 299.552282 
L 323.53143 299.552282 
L 326.62647 300.040948 
L 326.62647 300.040948 
L 330.91191 300.993336 
L 338.373069 303.483314 
L 340.55415 304.272559 
L 340.55415 304.272559 
L 341.98263 304.666922 
L 341.98263 304.666922 
L 345.91095 305.19749 
L 345.91095 305.19749 
L 348.41079 305.218887 
L 348.41079 305.218887 
L 350.203187 304.969767 
L 352.642752 304.416295 
L 354.416151 303.973837 
L 355.790852 303.71262 
L 358.347886 303.348986 
L 359.761274 303.228361 
L 361.98135 303.200593 
L 361.98135 303.200593 
L 363.29079 303.293178 
L 363.29079 303.293178 
L 366.14775 303.780633 
L 366.14775 303.780633 
L 370.218604 304.902378 
L 373.589234 305.78639 
L 379.71831 307.152058 
L 379.71831 307.152058 
L 383.562214 307.224458 
L 387.6757 307.063437 
L 389.12247 306.864171 
L 389.12247 306.864171 
L 393.944938 306.109386 
L 399.470185 305.534142 
L 401.85975 305.389505 
L 405.520633 305.371983 
L 413.76375 305.428966 
L 413.76375 305.428966 
" clip-path="url(#p1838bbbaab)" style="fill: none; stroke: #d62728; stroke-width: 1.5; stroke-linecap: square"/>
   </g>
   <g id="line2d_41">
    <path d="M 56.64375 267.194483 
L 63.78615 266.50146 
L 63.78615 266.50146 
L 69.73815 265.312752 
L 69.73815 265.312752 
L 70.764076 265.164999 
L 70.92855 265.154418 
L 70.92855 265.154418 
L 77.576363 265.520472 
L 78.07095 265.618924 
L 78.07095 265.618924 
L 82.83255 267.358673 
L 82.83255 267.358673 
L 84.26103 267.808152 
L 85.674459 268.065015 
L 90.92727 268.530932 
L 92.35575 268.474046 
L 92.35575 268.474046 
L 98.78391 267.22318 
L 98.78391 267.22318 
L 102.47415 267.174652 
L 102.47415 267.174652 
L 106.06489 267.549901 
L 108.06903 268.141262 
L 108.06903 268.141262 
L 110.978294 269.168444 
L 115.56855 270.753974 
L 115.56855 270.753974 
L 117.71127 271.404414 
L 117.71127 271.404414 
L 120.92535 272.398939 
L 120.92535 272.398939 
L 124.319296 272.946336 
L 128.06775 273.012952 
L 128.06775 273.012952 
L 130.320797 272.894455 
L 132.59127 272.433024 
L 134.305542 271.836291 
L 138.738079 269.851858 
L 142.35255 267.907163 
L 142.35255 267.907163 
L 147.94743 264.733382 
L 147.94743 264.733382 
L 150.049026 263.864646 
L 153.189073 263.00494 
L 155.486031 262.610746 
L 156.720831 262.635038 
L 162.546194 263.961836 
L 164.131935 264.471284 
L 170.064442 265.662844 
L 171.350009 265.572028 
L 174.25527 265.08493 
L 174.25527 265.08493 
L 176.736247 264.661464 
L 178.77879 264.464925 
L 178.77879 264.464925 
L 183.424352 264.499402 
L 185.56407 265.312189 
L 185.56407 265.312189 
L 189.598018 267.532576 
L 192.82551 268.866431 
L 192.82551 268.866431 
L 195.498695 269.53868 
L 196.751663 269.63753 
L 198.06327 269.499118 
L 198.06327 269.499118 
L 199.49175 269.105339 
L 199.49175 269.105339 
L 202.893445 267.797565 
L 206.63415 267.010579 
L 206.63415 267.010579 
L 208.53879 266.909445 
L 210.695758 267.070138 
L 211.594876 267.292867 
L 212.70519 267.802755 
L 212.70519 267.802755 
L 217.58583 270.542912 
L 217.58583 270.542912 
L 219.647381 271.824335 
L 222.34743 273.640952 
L 222.34743 273.640952 
L 226.27575 275.985679 
L 226.27575 275.985679 
L 231.082192 278.20525 
L 233.147823 278.761741 
L 236.15607 278.949637 
L 236.15607 278.949637 
L 237.758896 278.679222 
L 240.005947 278.040961 
L 241.074114 277.361525 
L 244.185325 275.080025 
L 246.811041 272.637174 
L 250.126107 268.795044 
L 253.854274 264.410126 
L 256.98807 261.346304 
L 256.98807 261.346304 
L 260.153117 259.051879 
L 260.91639 258.704543 
L 260.91639 258.704543 
L 262.34487 258.265951 
L 262.34487 258.265951 
L 263.154682 258.161115 
L 263.77335 258.226035 
L 263.77335 258.226035 
L 267.34455 259.127065 
L 267.34455 259.127065 
L 268.77303 259.767997 
L 268.77303 259.767997 
L 270.141523 260.621585 
L 271.620119 261.658224 
L 275.67735 264.61256 
L 276.813328 265.302832 
L 278.05815 265.848943 
L 278.05815 265.848943 
L 282.666005 267.440752 
L 284.48631 267.714005 
L 285.79575 267.783505 
L 285.79575 267.783505 
L 290.322909 267.687112 
L 295.43799 268.106147 
L 295.43799 268.106147 
L 303.29463 268.437974 
L 303.29463 268.437974 
L 304.670791 268.22445 
L 309.557126 267.378254 
L 311.62743 267.217172 
L 311.62743 267.217172 
L 313.975119 266.943953 
L 316.109307 266.935687 
L 317.390126 267.076158 
L 321.901174 268.062537 
L 327.484959 269.582162 
L 331.991659 270.898589 
L 337.57815 272.309128 
L 337.57815 272.309128 
L 341.62551 272.997361 
L 341.62551 272.997361 
L 343.531382 273.072092 
L 346.62519 272.891531 
L 348.41079 272.533076 
L 348.41079 272.533076 
L 351.62487 271.489871 
L 351.62487 271.489871 
L 353.816967 270.437183 
L 358.64823 267.650659 
L 358.64823 267.650659 
L 361.378266 266.062391 
L 364.36215 264.460235 
L 364.36215 264.460235 
L 366.546001 263.57569 
L 369.086279 262.892846 
L 370.90935 262.743324 
L 370.90935 262.743324 
L 373.589234 262.870414 
L 374.922022 263.088819 
L 376.890409 263.645098 
L 378.143593 264.030587 
L 386.74167 267.280233 
L 386.74167 267.280233 
L 389.12247 267.927588 
L 389.12247 267.927588 
L 392.33655 268.483996 
L 392.33655 268.483996 
L 395.90775 268.506432 
L 395.90775 268.506432 
L 400.828636 268.203077 
L 407.761882 267.492245 
L 413.76375 267.194483 
L 413.76375 267.194483 
" clip-path="url(#p1838bbbaab)" style="fill: none; stroke: #9467bd; stroke-width: 1.5; stroke-linecap: square"/>
   </g>
   <g id="line2d_42">
    <path d="M 56.64375 228.96 
L 63.621288 227.371485 
L 63.78615 227.29443 
L 63.78615 227.29443 
L 69.289419 224.784856 
L 70.92855 224.57057 
L 70.92855 224.57057 
L 75.722753 224.061989 
L 76.99959 224.255864 
L 76.99959 224.255864 
L 78.07095 224.613703 
L 78.07095 224.613703 
L 82.082421 226.061677 
L 85.674459 226.961728 
L 90.133317 228.299088 
L 93.06999 228.844952 
L 93.06999 228.844952 
L 98.508976 229.499331 
L 99.14103 229.496539 
L 99.14103 229.496539 
L 99.97431 229.424879 
L 99.97431 229.424879 
L 101.64087 229.262579 
L 101.64087 229.262579 
L 104.97399 228.602304 
L 109.02135 227.480937 
L 109.02135 227.480937 
L 113.880759 226.913061 
L 116.689999 226.914271 
L 120.511309 227.382771 
L 123.120884 228.212267 
L 124.362531 228.5079 
L 128.66295 229.703435 
L 128.66295 229.703435 
L 130.320797 230.587569 
L 134.305542 232.887141 
L 137.59095 234.327647 
L 139.49559 235.527077 
L 141.365705 236.500846 
L 142.35255 236.861535 
L 142.35255 236.861535 
L 143.735876 236.975963 
L 145.679098 236.932504 
L 148.425868 236.610047 
L 150.414538 236.017186 
L 153.015518 234.71409 
L 155.68503 233.080448 
L 155.68503 233.080448 
L 158.221922 231.376754 
L 165.312838 226.756735 
L 171.117769 222.066038 
L 174.25527 219.543361 
L 174.25527 219.543361 
L 176.777604 217.771494 
L 178.06455 217.34303 
L 178.06455 217.34303 
L 178.77879 217.292621 
L 178.77879 217.292621 
L 181.04055 217.411248 
L 181.04055 217.411248 
L 183.100438 217.896695 
L 184.378868 218.817791 
L 187.434007 221.012499 
L 194.73015 225.890637 
L 194.73015 225.890637 
L 196.706168 226.68903 
L 199.49175 227.52185 
L 199.49175 227.52185 
L 202.34871 228.772939 
L 202.34871 228.772939 
L 204.551643 229.53452 
L 205.529951 229.582026 
L 207.22935 229.387117 
L 207.22935 229.387117 
L 208.41975 229.149182 
L 208.41975 229.149182 
L 209.541158 228.896349 
L 210.91959 228.672126 
L 210.91959 228.672126 
L 212.396947 228.158176 
L 214.968798 226.923837 
L 219.215719 225.102334 
L 221.037444 224.827746 
L 224.104654 224.913419 
L 225.832614 225.13451 
L 228.056967 225.501821 
L 228.354778 225.603871 
L 230.20407 226.255235 
L 230.20407 226.255235 
L 231.721725 227.040557 
L 235.619891 229.525666 
L 236.782496 230.336409 
L 238.059729 231.523594 
L 240.207986 233.973408 
L 246.232596 241.320253 
L 247.433782 242.405214 
L 249.815636 244.388179 
L 252.014805 245.291058 
L 253.028216 245.501817 
L 253.41687 245.498179 
L 253.41687 245.498179 
L 254.328312 245.301953 
L 256.270984 244.441532 
L 257.581152 243.272819 
L 261.802562 239.174544 
L 264.279065 235.82783 
L 266.571972 232.63642 
L 268.77303 229.88066 
L 268.77303 229.88066 
L 270.67767 227.842352 
L 271.620119 226.803974 
L 274.36791 223.614161 
L 274.36791 223.614161 
L 275.67735 222.4554 
L 277.277136 221.54468 
L 280.55799 219.876785 
L 280.55799 219.876785 
L 281.990779 219.245966 
L 283.29591 219.085303 
L 283.29591 219.085303 
L 284.48631 219.177427 
L 286.042845 219.486625 
L 288.05751 220.18977 
L 288.05751 220.18977 
L 290.322909 221.208438 
L 294.12855 223.50829 
L 294.12855 223.50829 
L 296.39031 224.861456 
L 296.39031 224.861456 
L 298.311123 225.711042 
L 300.501703 226.492545 
L 303.436736 227.341556 
L 309.48471 228.503819 
L 309.48471 228.503819 
L 312.113987 228.8489 
L 315.585521 229.013012 
L 317.390126 228.848778 
L 327.518875 227.036008 
L 329.00727 226.89704 
L 329.00727 226.89704 
L 331.991659 226.879757 
L 337.956113 227.39192 
L 341.171298 228.103379 
L 342.828797 228.681464 
L 345.91095 230.060248 
L 345.91095 230.060248 
L 348.05367 231.305602 
L 348.05367 231.305602 
L 350.203187 232.716736 
L 353.816967 235.1084 
L 356.62455 236.420111 
L 356.62455 236.420111 
L 358.64823 237.113085 
L 358.64823 237.113085 
L 359.774505 237.24819 
L 361.378266 237.207122 
L 362.438566 237.119908 
L 364.36215 236.545153 
L 364.36215 236.545153 
L 367.279689 235.233309 
L 369.086279 234.151595 
L 370.90935 232.959467 
L 370.90935 232.959467 
L 373.589234 231.172219 
L 376.844289 229.124384 
L 380.177543 227.370059 
L 381.6939 226.769852 
L 384.00375 226.243294 
L 384.00375 226.243294 
L 387.622198 225.76344 
L 389.12247 225.854861 
L 389.12247 225.854861 
L 392.33655 226.271008 
L 392.33655 226.271008 
L 402.591733 228.322069 
L 408.805399 228.858602 
L 413.76375 228.96 
L 413.76375 228.96 
" clip-path="url(#p1838bbbaab)" style="fill: none; stroke: #8c564b; stroke-width: 1.5; stroke-linecap: square"/>
   </g>
   <g id="line2d_43">
    <path d="M 56.64375 190.725517 
L 63.78615 191.046737 
L 63.78615 191.046737 
L 69.289419 190.468794 
L 70.21431 190.083687 
L 70.21431 190.083687 
L 76.28535 186.442679 
L 76.28535 186.442679 
L 80.45175 183.73509 
L 82.082421 182.924168 
L 83.330972 182.538006 
L 84.816682 182.591994 
L 87.59415 183.131494 
L 87.59415 183.131494 
L 90.002777 183.778893 
L 92.35575 185.056768 
L 92.35575 185.056768 
L 96.53003 187.253489 
L 98.06967 187.685826 
L 99.97431 188.181323 
L 99.97431 188.181323 
L 104.829634 189.408565 
L 106.64055 189.439997 
L 106.64055 189.439997 
L 113.484626 189.32153 
L 114.705167 189.067327 
L 118.78263 188.294555 
L 128.06775 187.693717 
L 128.06775 187.693717 
L 130.320797 187.74755 
L 135.21015 187.818833 
L 135.21015 187.818833 
L 139.49559 188.113446 
L 141.63831 188.620732 
L 141.63831 188.620732 
L 145.163432 189.853113 
L 147.934464 191.052774 
L 149.49495 191.987521 
L 149.49495 191.987521 
L 152.038766 193.406737 
L 157.58967 195.618183 
L 157.58967 195.618183 
L 161.99415 196.800367 
L 161.99415 196.800367 
L 163.392636 196.852414 
L 165.92247 196.95876 
L 165.92247 196.95876 
L 169.335478 197.296686 
L 172.35063 196.478353 
L 172.35063 196.478353 
L 174.25527 195.579733 
L 174.25527 195.579733 
L 176.04087 194.632024 
L 176.04087 194.632024 
L 176.66652 194.119972 
L 178.06455 192.40093 
L 178.06455 192.40093 
L 178.77879 191.342431 
L 178.77879 191.342431 
L 185.56407 180.621993 
L 185.56407 180.621993 
L 189.13527 175.850629 
L 189.13527 175.850629 
L 189.598018 175.358815 
L 190.20663 174.982194 
L 190.20663 174.982194 
L 190.786845 174.9012 
L 192.34935 174.991877 
L 192.34935 174.991877 
L 194.73015 175.711103 
L 194.73015 175.711103 
L 196.27767 176.33123 
L 196.27767 176.33123 
L 198.762396 178.524922 
L 203.423469 182.941793 
L 204.907171 184.010264 
L 205.91991 184.548933 
L 205.91991 184.548933 
L 209.275775 185.886676 
L 210.149579 186.356942 
L 211.967334 187.07635 
L 213.77655 187.45515 
L 213.77655 187.45515 
L 215.44311 187.498886 
L 219.647381 187.41201 
L 221.037444 187.353974 
L 223.438885 186.857577 
L 227.360279 185.554106 
L 229.25175 185.310869 
L 231.721725 185.041068 
L 233.77527 184.663929 
L 241.074114 183.984358 
L 244.185325 184.030618 
L 246.759024 184.343838 
L 247.433782 184.557989 
L 249.734397 185.613481 
L 250.91703 186.615489 
L 250.91703 186.615489 
L 253.854274 189.331004 
L 256.270984 191.844894 
L 257.581152 193.365851 
L 261.39255 197.422548 
L 263.154682 199.095208 
L 264.279065 199.7933 
L 267.314629 201.419284 
L 268.448638 201.852405 
L 269.370578 202.085683 
L 274.983972 202.545093 
L 279.24855 201.101905 
L 279.24855 201.101905 
L 281.62935 199.986762 
L 281.62935 199.986762 
L 282.666005 199.208721 
L 284.48631 197.447808 
L 286.056268 195.729443 
L 294.72375 185.684656 
L 296.095607 184.523035 
L 296.911457 184.140675 
L 299.48535 183.458805 
L 299.48535 183.458805 
L 300.91383 183.335502 
L 300.91383 183.335502 
L 302.915562 183.45627 
L 304.24695 183.997136 
L 304.24695 183.997136 
L 306.62775 185.068581 
L 306.62775 185.068581 
L 309.269868 186.115101 
L 312.113987 186.935452 
L 314.812644 187.695415 
L 317.88904 188.210817 
L 320.91255 188.540447 
L 320.91255 188.540447 
L 325.91223 188.918757 
L 329.84055 188.747313 
L 329.84055 188.747313 
L 331.991659 188.558843 
L 339.050267 187.837151 
L 343.520098 187.404038 
L 352.406082 186.829726 
L 353.816967 186.975432 
L 356.62455 187.560654 
L 356.62455 187.560654 
L 358.76727 188.304293 
L 358.76727 188.304293 
L 360.43383 189.162917 
L 369.086279 194.089079 
L 371.62359 194.997491 
L 371.62359 194.997491 
L 374.351081 195.743469 
L 375.733993 196.00529 
L 380.632467 196.226198 
L 384.841506 195.744563 
L 387.06124 195.445099 
L 392.33655 194.18623 
L 392.33655 194.18623 
L 395.90775 193.136745 
L 395.90775 193.136745 
L 402.591733 191.557855 
L 407.81175 190.933034 
L 407.81175 190.933034 
L 409.651896 190.841812 
L 413.76375 190.725517 
L 413.76375 190.725517 
" clip-path="url(#p1838bbbaab)" style="fill: none; stroke: #e377c2; stroke-width: 1.5; stroke-linecap: square"/>
   </g>
   <g id="line2d_44">
    <path d="M 56.64375 152.491034 
L 63.78615 151.824685 
L 63.78615 151.824685 
L 70.92855 150.660728 
L 70.92855 150.660728 
L 78.07095 149.836663 
L 78.07095 149.836663 
L 82.082421 150.014274 
L 84.178541 150.319574 
L 85.674459 150.717163 
L 90.133317 152.178259 
L 93.06999 153.501969 
L 93.06999 153.501969 
L 95.92695 154.558542 
L 95.92695 154.558542 
L 99.004728 155.282146 
L 100.903591 155.670849 
L 104.941122 156.470129 
L 107.226425 156.491727 
L 113.880759 156.239684 
L 116.924971 154.984716 
L 118.78263 154.082015 
L 120.92535 153.274152 
L 120.92535 153.274152 
L 123.622884 151.975293 
L 129.089808 148.214009 
L 132.959763 146.111196 
L 134.305542 145.080004 
L 137.11479 143.459423 
L 137.11479 143.459423 
L 138.06711 143.119991 
L 138.06711 143.119991 
L 140.20983 142.719478 
L 140.20983 142.719478 
L 141.365705 142.675029 
L 143.37722 142.833468 
L 146.13182 143.253126 
L 147.201323 143.586419 
L 148.425868 144.275466 
L 153.015518 147.311296 
L 157.8091 150.01459 
L 159.899216 151.210838 
L 161.99415 152.123985 
L 161.99415 152.123985 
L 163.392636 152.455675 
L 166.16055 152.817005 
L 168.284353 152.885478 
L 170.92215 152.705686 
L 170.92215 152.705686 
L 172.766585 152.245474 
L 176.51703 151.127876 
L 176.51703 151.127876 
L 178.77879 150.135819 
L 178.77879 150.135819 
L 181.04055 149.548028 
L 181.04055 149.548028 
L 183.100438 149.107538 
L 183.904104 148.807592 
L 185.56407 148.328023 
L 185.56407 148.328023 
L 189.13527 148.044723 
L 189.13527 148.044723 
L 190.08759 148.184767 
L 190.08759 148.184767 
L 192.82551 149.401631 
L 192.82551 149.401631 
L 196.27767 151.089986 
L 196.27767 151.089986 
L 201.797293 155.455784 
L 205.20567 157.616704 
L 205.20567 157.616704 
L 207.603435 158.417444 
L 209.275775 159.02091 
L 210.149579 159.408036 
L 211.967334 160.151267 
L 214.524352 160.763423 
L 216.76708 160.71466 
L 221.037444 160.222529 
L 222.836585 159.537308 
L 223.438885 159.204073 
L 226.08766 156.900937 
L 227.360279 155.508196 
L 229.25175 153.814328 
L 230.20407 152.887729 
L 230.20407 152.887729 
L 232.82295 149.77037 
L 239.25111 140.90782 
L 239.25111 140.90782 
L 243.796068 135.64682 
L 246.328782 133.417641 
L 247.433782 132.955111 
L 249.48855 132.536837 
L 249.48855 132.536837 
L 250.126107 132.701358 
L 253.29783 134.041149 
L 253.29783 134.041149 
L 254.328312 134.773689 
L 256.270984 136.584353 
L 262.69526 144.207384 
L 267.34455 149.143499 
L 267.34455 149.143499 
L 268.77303 150.347322 
L 268.77303 150.347322 
L 270.141523 151.156367 
L 271.620119 151.975635 
L 273.77271 153.194963 
L 273.77271 153.194963 
L 275.20119 153.800239 
L 275.20119 153.800239 
L 276.018292 153.984961 
L 278.05815 154.240039 
L 278.05815 154.240039 
L 282.027205 154.310662 
L 283.805775 154.155607 
L 285.20055 153.905267 
L 285.20055 153.905267 
L 286.902493 153.39187 
L 294.72375 151.529462 
L 296.828744 151.298192 
L 299.48535 151.299131 
L 299.48535 151.299131 
L 302.69943 151.748537 
L 302.69943 151.748537 
L 306.62775 153.072779 
L 306.62775 153.072779 
L 309.557126 154.013451 
L 317.24337 155.904047 
L 325.19799 156.801804 
L 328.316469 156.62178 
L 330.91191 156.103266 
L 333.05463 155.261374 
L 333.05463 155.261374 
L 336.62583 153.597712 
L 336.62583 153.597712 
L 338.875356 152.29169 
L 341.171298 150.803914 
L 343.531382 149.117602 
L 346.950837 146.821756 
L 351.351939 144.024184 
L 352.465155 143.487765 
L 353.816967 143.063515 
L 355.790852 142.729226 
L 357.81495 142.662092 
L 357.81495 142.662092 
L 358.76727 142.703937 
L 358.76727 142.703937 
L 360.43383 143.158359 
L 362.438566 143.951689 
L 369.086279 147.500459 
L 373.589234 149.903885 
L 375.733993 150.793656 
L 381.6939 152.762789 
L 384.58802 153.31525 
L 388.471407 153.815226 
L 392.33655 154.056171 
L 392.33655 154.056171 
L 409.651896 152.667054 
L 413.76375 152.491034 
L 413.76375 152.491034 
" clip-path="url(#p1838bbbaab)" style="fill: none; stroke: #7f7f7f; stroke-width: 1.5; stroke-linecap: square"/>
   </g>
   <g id="line2d_45">
    <path d="M 56.64375 114.256552 
L 63.78615 114.61144 
L 63.78615 114.61144 
L 70.92855 115.628367 
L 70.92855 115.628367 
L 75.722753 116.145124 
L 77.294843 115.979863 
L 79.868317 115.569342 
L 84.73719 114.870462 
L 84.73719 114.870462 
L 86.99895 114.546227 
L 86.99895 114.546227 
L 90.133317 114.314392 
L 100.903591 114.06295 
L 105.21207 113.465462 
L 105.21207 113.465462 
L 106.64055 113.11226 
L 106.64055 113.11226 
L 110.978294 112.042581 
L 114.49719 111.458418 
L 114.49719 111.458418 
L 117.71127 111.125244 
L 117.71127 111.125244 
L 120.240427 111.188342 
L 123.361804 111.442138 
L 130.92471 111.7567 
L 130.92471 111.7567 
L 135.12698 112.132526 
L 136.416311 112.408391 
L 138.66231 113.008355 
L 138.66231 113.008355 
L 145.679098 115.47539 
L 148.30455 116.099549 
L 148.30455 116.099549 
L 149.700343 116.128739 
L 150.414538 116.056478 
L 152.038766 115.790659 
L 155.486031 114.795437 
L 160.20855 112.522224 
L 162.546194 111.567465 
L 164.131935 111.221962 
L 166.16055 111.050413 
L 169.01751 111.143918 
L 169.01751 111.143918 
L 170.064442 111.523946 
L 171.99351 112.613558 
L 171.99351 112.613558 
L 174.49335 114.09807 
L 174.49335 114.09807 
L 178.537556 116.596459 
L 180.44535 117.391983 
L 180.44535 117.391983 
L 183.06423 118.498608 
L 183.06423 118.498608 
L 183.830562 118.469525 
L 185.56407 118.092291 
L 185.56407 118.092291 
L 188.06391 117.387127 
L 190.786845 116.486179 
L 197.50841 114.555728 
L 199.13463 114.542948 
L 199.13463 114.542948 
L 201.903768 114.786013 
L 205.625069 114.422464 
L 210.045446 113.62983 
L 211.15767 113.445536 
L 211.15767 113.445536 
L 211.967334 113.122759 
L 218.18103 110.189587 
L 218.18103 110.189587 
L 223.77591 108.661947 
L 223.77591 108.661947 
L 226.08766 108.429763 
L 228.06135 108.56341 
L 228.06135 108.56341 
L 232.82295 108.824211 
L 236.782496 108.636503 
L 239.797685 108.91302 
L 240.207986 108.973845 
L 242.779725 109.842757 
L 244.185325 110.561911 
L 246.811041 112.064841 
L 250.91703 115.639931 
L 250.91703 115.639931 
L 253.854274 117.473329 
L 254.72631 117.753291 
L 254.72631 117.753291 
L 256.270984 118.043193 
L 256.98807 117.996527 
L 256.98807 117.996527 
L 259.800094 117.380718 
L 260.32119 117.155634 
L 260.32119 117.155634 
L 261.39255 116.362851 
L 265.297285 112.767308 
L 268.05879 110.35746 
L 269.370578 109.365584 
L 270.976979 108.448148 
L 272.947418 107.73701 
L 274.36791 107.423832 
L 274.36791 107.423832 
L 275.508801 107.586395 
L 277.691603 108.649816 
L 281.62935 110.968192 
L 281.62935 110.968192 
L 283.485133 112.52552 
L 285.591788 114.146439 
L 288.41463 115.843543 
L 288.41463 115.843543 
L 289.96215 116.387381 
L 289.96215 116.387381 
L 290.91447 116.507619 
L 293.629808 116.670816 
L 295.43799 116.621101 
L 295.43799 116.621101 
L 296.911457 116.312418 
L 300.91383 115.238668 
L 300.91383 115.238668 
L 304.24695 114.773894 
L 304.24695 114.773894 
L 308.05623 114.577882 
L 310.809615 114.500423 
L 316.84416 114.129394 
L 321.901174 113.125189 
L 324.560286 112.649603 
L 331.62615 111.693031 
L 331.62615 111.693031 
L 340.55415 111.422315 
L 340.55415 111.422315 
L 344.72055 111.29344 
L 344.72055 111.29344 
L 347.57751 111.476699 
L 347.57751 111.476699 
L 350.203187 111.885492 
L 352.459535 112.505894 
L 354.12471 113.226978 
L 354.12471 113.226978 
L 356.874993 114.535566 
L 359.95767 115.578957 
L 359.95767 115.578957 
L 361.378266 115.925979 
L 362.438566 116.136928 
L 364.36215 116.272979 
L 364.36215 116.272979 
L 366.14775 116.052029 
L 366.14775 116.052029 
L 367.33815 115.691794 
L 373.589234 113.111627 
L 375.733993 112.1874 
L 378.143593 111.380442 
L 380.632467 111.005065 
L 381.6939 110.995533 
L 385.19415 111.378632 
L 385.19415 111.378632 
L 387.6757 111.82098 
L 393.944938 113.584561 
L 395.90775 113.956293 
L 395.90775 113.956293 
L 400.828636 114.571805 
L 402.591733 114.59198 
L 413.76375 114.256552 
L 413.76375 114.256552 
" clip-path="url(#p1838bbbaab)" style="fill: none; stroke: #bcbd22; stroke-width: 1.5; stroke-linecap: square"/>
   </g>
   <g id="line2d_46">
    <path d="M 56.64375 76.022069 
L 63.78615 75.521034 
L 63.78615 75.521034 
L 70.92855 74.821543 
L 70.92855 74.821543 
L 77.824239 75.219975 
L 85.674459 76.736352 
L 89.37975 76.845141 
L 89.37975 76.845141 
L 92.35575 76.56375 
L 92.35575 76.56375 
L 99.97431 74.519895 
L 99.97431 74.519895 
L 101.64087 74.298395 
L 101.64087 74.298395 
L 104.046897 74.254619 
L 105.21207 74.231216 
L 105.21207 74.231216 
L 107.226425 74.260778 
L 110.227057 74.438491 
L 113.880759 74.940678 
L 117.015465 74.672206 
L 118.78263 74.46817 
L 123.622884 74.690877 
L 126.419127 74.196654 
L 128.06775 73.897369 
L 128.06775 73.897369 
L 132.431585 73.639741 
L 132.959763 73.525052 
L 135.56727 72.369126 
L 135.56727 72.369126 
L 138.06711 70.971076 
L 138.06711 70.971076 
L 142.35255 69.219447 
L 142.35255 69.219447 
L 146.39991 67.085527 
L 147.35174 66.725321 
L 148.425868 66.536124 
L 150.049026 66.645206 
L 153.30423 67.284596 
L 155.486031 67.729956 
L 156.720831 68.211268 
L 161.39895 71.277789 
L 161.39895 71.277789 
L 164.131935 72.390698 
L 168.06519 73.695025 
L 168.06519 73.695025 
L 169.654878 73.932099 
L 171.117769 73.933305 
L 175.68375 73.654409 
L 178.572727 73.499539 
L 181.04055 73.655291 
L 181.04055 73.655291 
L 183.726683 74.337094 
L 185.56407 75.101543 
L 185.56407 75.101543 
L 188.06391 75.998429 
L 192.82551 77.861986 
L 192.82551 77.861986 
L 194.73015 78.325504 
L 194.73015 78.325504 
L 196.751663 78.307174 
L 197.50841 78.124297 
L 198.835385 77.520535 
L 199.49175 77.171029 
L 199.49175 77.171029 
L 204.551643 75.318396 
L 207.22935 73.649451 
L 207.22935 73.649451 
L 208.53879 73.02359 
L 209.275775 72.854058 
L 211.15767 72.87196 
L 211.15767 72.87196 
L 213.77655 73.430001 
L 213.77655 73.430001 
L 218.638109 73.270615 
L 221.852495 73.840747 
L 222.836585 73.891 
L 223.438885 73.869621 
L 227.360279 72.975439 
L 228.354778 72.964488 
L 230.20407 73.24037 
L 230.20407 73.24037 
L 233.77527 73.108953 
L 236.15607 72.657387 
L 236.15607 72.657387 
L 240.207986 71.433696 
L 242.779725 69.486181 
L 244.185325 68.081146 
L 246.811041 65.284903 
L 248.246427 63.625214 
L 249.833239 61.978142 
L 250.883238 60.999501 
L 253.41687 58.660513 
L 253.41687 58.660513 
L 254.328312 58.087482 
L 256.63095 57.144292 
L 256.63095 57.144292 
L 258.53559 57.368637 
L 258.53559 57.368637 
L 259.858711 57.626735 
L 260.32119 57.803673 
L 260.32119 57.803673 
L 263.461582 59.92754 
L 268.05879 64.690114 
L 270.141523 66.833684 
L 273.34385 69.830187 
L 274.967502 70.955163 
L 277.691603 72.250461 
L 281.62935 73.522776 
L 281.62935 73.522776 
L 290.30704 74.906792 
L 296.113671 76.379753 
L 296.911457 76.602039 
L 300.275715 77.109769 
L 303.420391 77.401927 
L 304.24695 77.314867 
L 304.24695 77.314867 
L 307.34199 76.766859 
L 307.34199 76.766859 
L 316.50807 74.883405 
L 316.50807 74.883405 
L 318.53175 74.810164 
L 318.53175 74.810164 
L 323.53143 74.935496 
L 323.53143 74.935496 
L 325.19799 74.959526 
L 329.84055 74.952607 
L 329.84055 74.952607 
L 330.91191 74.917121 
L 334.532479 74.669679 
L 336.859577 74.672013 
L 339.050267 74.761426 
L 341.62551 74.88278 
L 341.62551 74.88278 
L 342.828797 74.762924 
L 345.416302 74.436193 
L 346.62519 74.242235 
L 348.41079 73.74 
L 348.41079 73.74 
L 350.203187 73.000519 
L 351.62487 72.323515 
L 351.62487 72.323515 
L 358.049853 68.669712 
L 360.43383 67.579358 
L 362.438566 66.878446 
L 364.36215 66.580992 
L 364.36215 66.580992 
L 366.14775 66.684759 
L 366.14775 66.684759 
L 368.267468 67.09757 
L 370.218604 67.618576 
L 374.627136 69.673101 
L 378.143593 71.417258 
L 381.6939 72.896707 
L 383.562214 73.603269 
L 387.585154 74.620764 
L 390.23402 75.074419 
L 395.53157 75.668198 
L 402.591733 75.996964 
L 413.76375 76.022069 
L 413.76375 76.022069 
" clip-path="url(#p1838bbbaab)" style="fill: none; stroke: #17becf; stroke-width: 1.5; stroke-linecap: square"/>
   </g>
   <g id="line2d_47">
    <path d="M 56.64375 37.787586 
L 63.686983 38.937864 
L 69.50007 41.405451 
L 69.50007 41.405451 
L 70.92855 41.963399 
L 70.92855 41.963399 
L 75.92823 43.505766 
L 75.92823 43.505766 
L 76.99959 43.640099 
L 76.99959 43.640099 
L 78.07095 43.537886 
L 78.07095 43.537886 
L 82.83255 42.049929 
L 82.83255 42.049929 
L 85.21335 40.968616 
L 85.21335 40.968616 
L 90.133317 38.103503 
L 92.35575 37.284989 
L 92.35575 37.284989 
L 99.97431 35.400212 
L 99.97431 35.400212 
L 102.47415 34.586077 
L 102.47415 34.586077 
L 104.25975 33.866531 
L 106.16439 32.589113 
L 106.16439 32.589113 
L 111.28311 28.305098 
L 111.28311 28.305098 
L 113.54926 27.003948 
L 114.705167 26.3648 
L 117.015465 25.206123 
L 118.597029 24.740976 
L 120.185216 24.746406 
L 120.92535 24.97926 
L 120.92535 24.97926 
L 126.04407 27.191683 
L 126.04407 27.191683 
L 128.06775 28.059768 
L 128.06775 28.059768 
L 130.033609 29.509653 
L 132.959763 31.95995 
L 134.305542 32.695868 
L 138.66231 34.587962 
L 138.66231 34.587962 
L 141.164152 36.084496 
L 142.35255 36.647258 
L 142.35255 36.647258 
L 143.735876 36.883896 
L 152.038766 37.867909 
L 155.486031 37.139289 
L 158.42295 36.272148 
L 158.42295 36.272148 
L 160.20855 35.836149 
L 161.87511 35.426211 
L 161.87511 35.426211 
L 163.007164 35.074097 
L 164.131935 34.877377 
L 165.92247 34.772098 
L 165.92247 34.772098 
L 167.11287 35.009732 
L 169.654878 35.570972 
L 170.508278 36.199374 
L 172.766585 38.233977 
L 175.68375 41.298168 
L 178.522294 44.250967 
L 180.44535 45.971511 
L 180.44535 45.971511 
L 183.30231 48.741229 
L 183.30231 48.741229 
L 183.712546 48.8141 
L 184.378868 48.825975 
L 185.56407 48.697304 
L 185.56407 48.697304 
L 187.82583 47.733169 
L 190.602018 46.129748 
L 191.63511 45.273744 
L 191.63511 45.273744 
L 194.73015 42.403051 
L 194.73015 42.403051 
L 196.751663 40.139651 
L 198.06327 39.021925 
L 198.06327 39.021925 
L 199.49175 38.077418 
L 199.49175 38.077418 
L 202.916108 37.079877 
L 204.527738 36.302314 
L 207.22935 34.59717 
L 207.22935 34.59717 
L 208.53879 33.653609 
L 209.541158 32.883686 
L 211.15767 31.470921 
L 211.15767 31.470921 
L 211.967334 30.452821 
L 213.77655 27.755319 
L 213.77655 27.755319 
L 218.611927 19.25485 
L 221.037444 16.074099 
L 222.836585 14.339851 
L 225.20439 12.673694 
L 225.20439 12.673694 
L 226.08766 12.453123 
L 227.360279 12.591507 
L 228.354778 12.850455 
L 229.484298 13.44346 
L 231.082192 14.707652 
L 233.77527 17.370541 
L 238.059729 21.936728 
L 242.779725 27.898162 
L 246.780305 31.534366 
L 247.433782 32.128605 
L 250.126107 34.550442 
L 251.86935 35.632427 
L 254.052569 36.514869 
L 256.270984 37.220046 
L 258.744644 37.38418 
L 260.91639 37.349818 
L 260.91639 37.349818 
L 261.907582 37.067458 
L 263.77335 36.246908 
L 263.77335 36.246908 
L 269.360889 32.914255 
L 273.34385 31.051518 
L 274.36791 30.551379 
L 274.36791 30.551379 
L 275.508801 30.407094 
L 276.813328 30.79552 
L 278.05815 31.361362 
L 278.05815 31.361362 
L 282.027205 33.657439 
L 283.485133 34.941006 
L 289.313719 40.367737 
L 290.322909 40.895951 
L 292.34295 41.578824 
L 292.34295 41.578824 
L 295.43799 42.250201 
L 295.43799 42.250201 
L 296.911457 42.079255 
L 299.48535 41.213783 
L 299.48535 41.213783 
L 303.50055 39.695046 
L 308.05623 38.558247 
L 310.809615 37.97586 
L 315.904572 36.642742 
L 317.24337 35.947786 
L 319.00791 34.6683 
L 321.62679 32.525736 
L 321.62679 32.525736 
L 324.286603 30.325607 
L 329.199999 26.580472 
L 330.55479 25.976171 
L 330.55479 25.976171 
L 331.991659 25.655611 
L 333.05463 25.572255 
L 333.05463 25.572255 
L 335.338554 25.68629 
L 336.859577 25.983367 
L 338.373069 26.414724 
L 340.390812 27.273147 
L 343.531382 28.859236 
L 346.62519 30.508389 
L 348.41079 31.377736 
L 348.41079 31.377736 
L 351.62487 33.177402 
L 351.62487 33.177402 
L 355.790852 35.094115 
L 359.52645 36.474347 
L 361.378266 36.956567 
L 363.546798 37.360675 
L 367.33815 37.59493 
L 370.218604 37.236978 
L 373.589234 36.402386 
L 378.143593 35.00624 
L 380.632467 34.212899 
L 382.349617 33.947564 
L 385.19415 33.775826 
L 385.19415 33.775826 
L 387.6757 33.816539 
L 389.12247 34.053 
L 389.12247 34.053 
L 392.33655 34.76175 
L 392.33655 34.76175 
L 395.90775 35.740067 
L 395.90775 35.740067 
L 401.85975 37.067884 
L 402.591733 37.176957 
L 408.805399 37.696444 
L 413.76375 37.787586 
L 413.76375 37.787586 
" clip-path="url(#p1838bbbaab)" style="fill: none; stroke: #1f77b4; stroke-width: 1.5; stroke-linecap: square"/>
   </g>
   <g id="patch_3">
    <path d="M 56.64375 450.72 
L 56.64375 7.2 
" style="fill: none; stroke: #000000; stroke-width: 0.8; stroke-linejoin: miter; stroke-linecap: square"/>
   </g>
   <g id="patch_4">
    <path d="M 413.76375 450.72 
L 413.76375 7.2 
" style="fill: none; stroke: #000000; stroke-width: 0.8; stroke-linejoin: miter; stroke-linecap: square"/>
   </g>
   <g id="patch_5">
    <path d="M 56.64375 450.72 
L 413.76375 450.72 
" style="fill: none; stroke: #000000; stroke-width: 0.8; stroke-linejoin: miter; stroke-linecap: square"/>
   </g>
   <g id="patch_6">
    <path d="M 56.64375 7.2 
L 413.76375 7.2 
" style="fill: none; stroke: #000000; stroke-width: 0.8; stroke-linejoin: miter; stroke-linecap: square"/>
   </g>
  </g>
 </g>
 <defs>
  <clipPath id="p1838bbbaab">
   <rect x="56.64375" y="7.2" width="357.12" height="443.52"/>
  </clipPath>
 </defs>
</svg>
