<?xml version="1.0" encoding="utf-8" standalone="no"?>
<!DOCTYPE svg PUBLIC "-//W3C//DTD SVG 1.1//EN"
  "http://www.w3.org/Graphics/SVG/1.1/DTD/svg11.dtd">
<svg xmlns:xlink="http://www.w3.org/1999/xlink" width="444.818438pt" height="325.385437pt" viewBox="0 0 444.818438 325.385437" xmlns="http://www.w3.org/2000/svg" version="1.1">
 <defs>
  <style type="text/css">*{stroke-linejoin: round; stroke-linecap: butt}</style>
 </defs>
 <g id="figure_1">
  <g id="patch_1">
   <path d="M 0 325.385437 
L 444.818438 325.385437 
L 444.818438 0 
L 0 0 
L 0 325.385437 
z
" style="fill: none"/>
  </g>
  <g id="axes_1">
   <g id="patch_2">
    <path d="M 80.498437 273.312 
L 437.618438 273.312 
L 437.618438 7.2 
L 80.498437 7.2 
L 80.498437 273.312 
z
" style="fill: none"/>
   </g>
   <g id="matplotlib.axis_1">
    <g id="xtick_1">
     <g id="line2d_1">
      <path d="M 80.498437 273.312 
L 80.498437 7.2 
" clip-path="url(#p54e725452c)" style="fill: none; stroke: #b0b0b0; stroke-width: 0.8; stroke-linecap: square"/>
     </g>
     <g id="line2d_2">
      <defs>
       <path id="md39032bed2" d="M 0 0 
L 0 3.5 
" style="stroke: #000000; stroke-width: 0.8"/>
      </defs>
      <g>
       <use xlink:href="#md39032bed2" x="80.498437" y="273.312" style="stroke: #000000; stroke-width: 0.8"/>
      </g>
     </g>
     <g id="text_1">
      <!-- 0 -->
      <g transform="translate(75.726562 291.709656) scale(0.15 -0.15)">
       <defs>
        <path id="DejaVuSans-30" d="M 2034 4250 
Q 1547 4250 1301 3770 
Q 1056 3291 1056 2328 
Q 1056 1369 1301 889 
Q 1547 409 2034 409 
Q 2525 409 2770 889 
Q 3016 1369 3016 2328 
Q 3016 3291 2770 3770 
Q 2525 4250 2034 4250 
z
M 2034 4750 
Q 2819 4750 3233 4129 
Q 3647 3509 3647 2328 
Q 3647 1150 3233 529 
Q 2819 -91 2034 -91 
Q 1250 -91 836 529 
Q 422 1150 422 2328 
Q 422 3509 836 4129 
Q 1250 4750 2034 4750 
z
" transform="scale(0.015625)"/>
       </defs>
       <use xlink:href="#DejaVuSans-30"/>
      </g>
     </g>
    </g>
    <g id="xtick_2">
     <g id="line2d_3">
      <path d="M 179.698438 273.312 
L 179.698438 7.2 
" clip-path="url(#p54e725452c)" style="fill: none; stroke: #b0b0b0; stroke-width: 0.8; stroke-linecap: square"/>
     </g>
     <g id="line2d_4">
      <g>
       <use xlink:href="#md39032bed2" x="179.698438" y="273.312" style="stroke: #000000; stroke-width: 0.8"/>
      </g>
     </g>
     <g id="text_2">
      <!-- 100 -->
      <g transform="translate(165.382812 291.709656) scale(0.15 -0.15)">
       <defs>
        <path id="DejaVuSans-31" d="M 794 531 
L 1825 531 
L 1825 4091 
L 703 3866 
L 703 4441 
L 1819 4666 
L 2450 4666 
L 2450 531 
L 3481 531 
L 3481 0 
L 794 0 
L 794 531 
z
" transform="scale(0.015625)"/>
       </defs>
       <use xlink:href="#DejaVuSans-31"/>
       <use xlink:href="#DejaVuSans-30" x="63.623047"/>
       <use xlink:href="#DejaVuSans-30" x="127.246094"/>
      </g>
     </g>
    </g>
    <g id="xtick_3">
     <g id="line2d_5">
      <path d="M 278.898438 273.312 
L 278.898438 7.2 
" clip-path="url(#p54e725452c)" style="fill: none; stroke: #b0b0b0; stroke-width: 0.8; stroke-linecap: square"/>
     </g>
     <g id="line2d_6">
      <g>
       <use xlink:href="#md39032bed2" x="278.898438" y="273.312" style="stroke: #000000; stroke-width: 0.8"/>
      </g>
     </g>
     <g id="text_3">
      <!-- 200 -->
      <g transform="translate(264.582812 291.709656) scale(0.15 -0.15)">
       <defs>
        <path id="DejaVuSans-32" d="M 1228 531 
L 3431 531 
L 3431 0 
L 469 0 
L 469 531 
Q 828 903 1448 1529 
Q 2069 2156 2228 2338 
Q 2531 2678 2651 2914 
Q 2772 3150 2772 3378 
Q 2772 3750 2511 3984 
Q 2250 4219 1831 4219 
Q 1534 4219 1204 4116 
Q 875 4013 500 3803 
L 500 4441 
Q 881 4594 1212 4672 
Q 1544 4750 1819 4750 
Q 2544 4750 2975 4387 
Q 3406 4025 3406 3419 
Q 3406 3131 3298 2873 
Q 3191 2616 2906 2266 
Q 2828 2175 2409 1742 
Q 1991 1309 1228 531 
z
" transform="scale(0.015625)"/>
       </defs>
       <use xlink:href="#DejaVuSans-32"/>
       <use xlink:href="#DejaVuSans-30" x="63.623047"/>
       <use xlink:href="#DejaVuSans-30" x="127.246094"/>
      </g>
     </g>
    </g>
    <g id="xtick_4">
     <g id="line2d_7">
      <path d="M 378.098438 273.312 
L 378.098438 7.2 
" clip-path="url(#p54e725452c)" style="fill: none; stroke: #b0b0b0; stroke-width: 0.8; stroke-linecap: square"/>
     </g>
     <g id="line2d_8">
      <g>
       <use xlink:href="#md39032bed2" x="378.098438" y="273.312" style="stroke: #000000; stroke-width: 0.8"/>
      </g>
     </g>
     <g id="text_4">
      <!-- 300 -->
      <g transform="translate(363.782813 291.709656) scale(0.15 -0.15)">
       <defs>
        <path id="DejaVuSans-33" d="M 2597 2516 
Q 3050 2419 3304 2112 
Q 3559 1806 3559 1356 
Q 3559 666 3084 287 
Q 2609 -91 1734 -91 
Q 1441 -91 1130 -33 
Q 819 25 488 141 
L 488 750 
Q 750 597 1062 519 
Q 1375 441 1716 441 
Q 2309 441 2620 675 
Q 2931 909 2931 1356 
Q 2931 1769 2642 2001 
Q 2353 2234 1838 2234 
L 1294 2234 
L 1294 2753 
L 1863 2753 
Q 2328 2753 2575 2939 
Q 2822 3125 2822 3475 
Q 2822 3834 2567 4026 
Q 2313 4219 1838 4219 
Q 1578 4219 1281 4162 
Q 984 4106 628 3988 
L 628 4550 
Q 988 4650 1302 4700 
Q 1616 4750 1894 4750 
Q 2613 4750 3031 4423 
Q 3450 4097 3450 3541 
Q 3450 3153 3228 2886 
Q 3006 2619 2597 2516 
z
" transform="scale(0.015625)"/>
       </defs>
       <use xlink:href="#DejaVuSans-33"/>
       <use xlink:href="#DejaVuSans-30" x="63.623047"/>
       <use xlink:href="#DejaVuSans-30" x="127.246094"/>
      </g>
     </g>
    </g>
    <g id="text_5">
     <!-- Direction -->
     <g transform="translate(213.888125 314.026062) scale(0.2 -0.2)">
      <defs>
       <path id="DejaVuSans-44" d="M 1259 4147 
L 1259 519 
L 2022 519 
Q 2988 519 3436 956 
Q 3884 1394 3884 2338 
Q 3884 3275 3436 3711 
Q 2988 4147 2022 4147 
L 1259 4147 
z
M 628 4666 
L 1925 4666 
Q 3281 4666 3915 4102 
Q 4550 3538 4550 2338 
Q 4550 1131 3912 565 
Q 3275 0 1925 0 
L 628 0 
L 628 4666 
z
" transform="scale(0.015625)"/>
       <path id="DejaVuSans-69" d="M 603 3500 
L 1178 3500 
L 1178 0 
L 603 0 
L 603 3500 
z
M 603 4863 
L 1178 4863 
L 1178 4134 
L 603 4134 
L 603 4863 
z
" transform="scale(0.015625)"/>
       <path id="DejaVuSans-72" d="M 2631 2963 
Q 2534 3019 2420 3045 
Q 2306 3072 2169 3072 
Q 1681 3072 1420 2755 
Q 1159 2438 1159 1844 
L 1159 0 
L 581 0 
L 581 3500 
L 1159 3500 
L 1159 2956 
Q 1341 3275 1631 3429 
Q 1922 3584 2338 3584 
Q 2397 3584 2469 3576 
Q 2541 3569 2628 3553 
L 2631 2963 
z
" transform="scale(0.015625)"/>
       <path id="DejaVuSans-65" d="M 3597 1894 
L 3597 1613 
L 953 1613 
Q 991 1019 1311 708 
Q 1631 397 2203 397 
Q 2534 397 2845 478 
Q 3156 559 3463 722 
L 3463 178 
Q 3153 47 2828 -22 
Q 2503 -91 2169 -91 
Q 1331 -91 842 396 
Q 353 884 353 1716 
Q 353 2575 817 3079 
Q 1281 3584 2069 3584 
Q 2775 3584 3186 3129 
Q 3597 2675 3597 1894 
z
M 3022 2063 
Q 3016 2534 2758 2815 
Q 2500 3097 2075 3097 
Q 1594 3097 1305 2825 
Q 1016 2553 972 2059 
L 3022 2063 
z
" transform="scale(0.015625)"/>
       <path id="DejaVuSans-63" d="M 3122 3366 
L 3122 2828 
Q 2878 2963 2633 3030 
Q 2388 3097 2138 3097 
Q 1578 3097 1268 2742 
Q 959 2388 959 1747 
Q 959 1106 1268 751 
Q 1578 397 2138 397 
Q 2388 397 2633 464 
Q 2878 531 3122 666 
L 3122 134 
Q 2881 22 2623 -34 
Q 2366 -91 2075 -91 
Q 1284 -91 818 406 
Q 353 903 353 1747 
Q 353 2603 823 3093 
Q 1294 3584 2113 3584 
Q 2378 3584 2631 3529 
Q 2884 3475 3122 3366 
z
" transform="scale(0.015625)"/>
       <path id="DejaVuSans-74" d="M 1172 4494 
L 1172 3500 
L 2356 3500 
L 2356 3053 
L 1172 3053 
L 1172 1153 
Q 1172 725 1289 603 
Q 1406 481 1766 481 
L 2356 481 
L 2356 0 
L 1766 0 
Q 1100 0 847 248 
Q 594 497 594 1153 
L 594 3053 
L 172 3053 
L 172 3500 
L 594 3500 
L 594 4494 
L 1172 4494 
z
" transform="scale(0.015625)"/>
       <path id="DejaVuSans-6f" d="M 1959 3097 
Q 1497 3097 1228 2736 
Q 959 2375 959 1747 
Q 959 1119 1226 758 
Q 1494 397 1959 397 
Q 2419 397 2687 759 
Q 2956 1122 2956 1747 
Q 2956 2369 2687 2733 
Q 2419 3097 1959 3097 
z
M 1959 3584 
Q 2709 3584 3137 3096 
Q 3566 2609 3566 1747 
Q 3566 888 3137 398 
Q 2709 -91 1959 -91 
Q 1206 -91 779 398 
Q 353 888 353 1747 
Q 353 2609 779 3096 
Q 1206 3584 1959 3584 
z
" transform="scale(0.015625)"/>
       <path id="DejaVuSans-6e" d="M 3513 2113 
L 3513 0 
L 2938 0 
L 2938 2094 
Q 2938 2591 2744 2837 
Q 2550 3084 2163 3084 
Q 1697 3084 1428 2787 
Q 1159 2491 1159 1978 
L 1159 0 
L 581 0 
L 581 3500 
L 1159 3500 
L 1159 2956 
Q 1366 3272 1645 3428 
Q 1925 3584 2291 3584 
Q 2894 3584 3203 3211 
Q 3513 2838 3513 2113 
z
" transform="scale(0.015625)"/>
      </defs>
      <use xlink:href="#DejaVuSans-44"/>
      <use xlink:href="#DejaVuSans-69" x="77.001953"/>
      <use xlink:href="#DejaVuSans-72" x="104.785156"/>
      <use xlink:href="#DejaVuSans-65" x="143.648438"/>
      <use xlink:href="#DejaVuSans-63" x="205.171875"/>
      <use xlink:href="#DejaVuSans-74" x="260.152344"/>
      <use xlink:href="#DejaVuSans-69" x="299.361328"/>
      <use xlink:href="#DejaVuSans-6f" x="327.144531"/>
      <use xlink:href="#DejaVuSans-6e" x="388.326172"/>
     </g>
    </g>
   </g>
   <g id="matplotlib.axis_2">
    <g id="ytick_1">
     <g id="line2d_9">
      <path d="M 80.498437 269.21397 
L 437.618438 269.21397 
" clip-path="url(#p54e725452c)" style="fill: none; stroke: #b0b0b0; stroke-width: 0.8; stroke-linecap: square"/>
     </g>
     <g id="line2d_10">
      <defs>
       <path id="m6f3f5b6aff" d="M 0 0 
L -3.5 0 
" style="stroke: #000000; stroke-width: 0.8"/>
      </defs>
      <g>
       <use xlink:href="#m6f3f5b6aff" x="80.498437" y="269.21397" style="stroke: #000000; stroke-width: 0.8"/>
      </g>
     </g>
     <g id="text_6">
      <!-- 0.045 -->
      <g transform="translate(30.55625 274.912798) scale(0.15 -0.15)">
       <defs>
        <path id="DejaVuSans-2e" d="M 684 794 
L 1344 794 
L 1344 0 
L 684 0 
L 684 794 
z
" transform="scale(0.015625)"/>
        <path id="DejaVuSans-34" d="M 2419 4116 
L 825 1625 
L 2419 1625 
L 2419 4116 
z
M 2253 4666 
L 3047 4666 
L 3047 1625 
L 3713 1625 
L 3713 1100 
L 3047 1100 
L 3047 0 
L 2419 0 
L 2419 1100 
L 313 1100 
L 313 1709 
L 2253 4666 
z
" transform="scale(0.015625)"/>
        <path id="DejaVuSans-35" d="M 691 4666 
L 3169 4666 
L 3169 4134 
L 1269 4134 
L 1269 2991 
Q 1406 3038 1543 3061 
Q 1681 3084 1819 3084 
Q 2600 3084 3056 2656 
Q 3513 2228 3513 1497 
Q 3513 744 3044 326 
Q 2575 -91 1722 -91 
Q 1428 -91 1123 -41 
Q 819 9 494 109 
L 494 744 
Q 775 591 1075 516 
Q 1375 441 1709 441 
Q 2250 441 2565 725 
Q 2881 1009 2881 1497 
Q 2881 1984 2565 2268 
Q 2250 2553 1709 2553 
Q 1456 2553 1204 2497 
Q 953 2441 691 2322 
L 691 4666 
z
" transform="scale(0.015625)"/>
       </defs>
       <use xlink:href="#DejaVuSans-30"/>
       <use xlink:href="#DejaVuSans-2e" x="63.623047"/>
       <use xlink:href="#DejaVuSans-30" x="95.410156"/>
       <use xlink:href="#DejaVuSans-34" x="159.033203"/>
       <use xlink:href="#DejaVuSans-35" x="222.65625"/>
      </g>
     </g>
    </g>
    <g id="ytick_2">
     <g id="line2d_11">
      <path d="M 80.498437 230.290431 
L 437.618438 230.290431 
" clip-path="url(#p54e725452c)" style="fill: none; stroke: #b0b0b0; stroke-width: 0.8; stroke-linecap: square"/>
     </g>
     <g id="line2d_12">
      <g>
       <use xlink:href="#m6f3f5b6aff" x="80.498437" y="230.290431" style="stroke: #000000; stroke-width: 0.8"/>
      </g>
     </g>
     <g id="text_7">
      <!-- 0.050 -->
      <g transform="translate(30.55625 235.989259) scale(0.15 -0.15)">
       <use xlink:href="#DejaVuSans-30"/>
       <use xlink:href="#DejaVuSans-2e" x="63.623047"/>
       <use xlink:href="#DejaVuSans-30" x="95.410156"/>
       <use xlink:href="#DejaVuSans-35" x="159.033203"/>
       <use xlink:href="#DejaVuSans-30" x="222.65625"/>
      </g>
     </g>
    </g>
    <g id="ytick_3">
     <g id="line2d_13">
      <path d="M 80.498437 191.366892 
L 437.618438 191.366892 
" clip-path="url(#p54e725452c)" style="fill: none; stroke: #b0b0b0; stroke-width: 0.8; stroke-linecap: square"/>
     </g>
     <g id="line2d_14">
      <g>
       <use xlink:href="#m6f3f5b6aff" x="80.498437" y="191.366892" style="stroke: #000000; stroke-width: 0.8"/>
      </g>
     </g>
     <g id="text_8">
      <!-- 0.055 -->
      <g transform="translate(30.55625 197.06572) scale(0.15 -0.15)">
       <use xlink:href="#DejaVuSans-30"/>
       <use xlink:href="#DejaVuSans-2e" x="63.623047"/>
       <use xlink:href="#DejaVuSans-30" x="95.410156"/>
       <use xlink:href="#DejaVuSans-35" x="159.033203"/>
       <use xlink:href="#DejaVuSans-35" x="222.65625"/>
      </g>
     </g>
    </g>
    <g id="ytick_4">
     <g id="line2d_15">
      <path d="M 80.498437 152.443353 
L 437.618438 152.443353 
" clip-path="url(#p54e725452c)" style="fill: none; stroke: #b0b0b0; stroke-width: 0.8; stroke-linecap: square"/>
     </g>
     <g id="line2d_16">
      <g>
       <use xlink:href="#m6f3f5b6aff" x="80.498437" y="152.443353" style="stroke: #000000; stroke-width: 0.8"/>
      </g>
     </g>
     <g id="text_9">
      <!-- 0.060 -->
      <g transform="translate(30.55625 158.142181) scale(0.15 -0.15)">
       <defs>
        <path id="DejaVuSans-36" d="M 2113 2584 
Q 1688 2584 1439 2293 
Q 1191 2003 1191 1497 
Q 1191 994 1439 701 
Q 1688 409 2113 409 
Q 2538 409 2786 701 
Q 3034 994 3034 1497 
Q 3034 2003 2786 2293 
Q 2538 2584 2113 2584 
z
M 3366 4563 
L 3366 3988 
Q 3128 4100 2886 4159 
Q 2644 4219 2406 4219 
Q 1781 4219 1451 3797 
Q 1122 3375 1075 2522 
Q 1259 2794 1537 2939 
Q 1816 3084 2150 3084 
Q 2853 3084 3261 2657 
Q 3669 2231 3669 1497 
Q 3669 778 3244 343 
Q 2819 -91 2113 -91 
Q 1303 -91 875 529 
Q 447 1150 447 2328 
Q 447 3434 972 4092 
Q 1497 4750 2381 4750 
Q 2619 4750 2861 4703 
Q 3103 4656 3366 4563 
z
" transform="scale(0.015625)"/>
       </defs>
       <use xlink:href="#DejaVuSans-30"/>
       <use xlink:href="#DejaVuSans-2e" x="63.623047"/>
       <use xlink:href="#DejaVuSans-30" x="95.410156"/>
       <use xlink:href="#DejaVuSans-36" x="159.033203"/>
       <use xlink:href="#DejaVuSans-30" x="222.65625"/>
      </g>
     </g>
    </g>
    <g id="ytick_5">
     <g id="line2d_17">
      <path d="M 80.498437 113.519814 
L 437.618438 113.519814 
" clip-path="url(#p54e725452c)" style="fill: none; stroke: #b0b0b0; stroke-width: 0.8; stroke-linecap: square"/>
     </g>
     <g id="line2d_18">
      <g>
       <use xlink:href="#m6f3f5b6aff" x="80.498437" y="113.519814" style="stroke: #000000; stroke-width: 0.8"/>
      </g>
     </g>
     <g id="text_10">
      <!-- 0.065 -->
      <g transform="translate(30.55625 119.218642) scale(0.15 -0.15)">
       <use xlink:href="#DejaVuSans-30"/>
       <use xlink:href="#DejaVuSans-2e" x="63.623047"/>
       <use xlink:href="#DejaVuSans-30" x="95.410156"/>
       <use xlink:href="#DejaVuSans-36" x="159.033203"/>
       <use xlink:href="#DejaVuSans-35" x="222.65625"/>
      </g>
     </g>
    </g>
    <g id="ytick_6">
     <g id="line2d_19">
      <path d="M 80.498437 74.596274 
L 437.618438 74.596274 
" clip-path="url(#p54e725452c)" style="fill: none; stroke: #b0b0b0; stroke-width: 0.8; stroke-linecap: square"/>
     </g>
     <g id="line2d_20">
      <g>
       <use xlink:href="#m6f3f5b6aff" x="80.498437" y="74.596274" style="stroke: #000000; stroke-width: 0.8"/>
      </g>
     </g>
     <g id="text_11">
      <!-- 0.070 -->
      <g transform="translate(30.55625 80.295103) scale(0.15 -0.15)">
       <defs>
        <path id="DejaVuSans-37" d="M 525 4666 
L 3525 4666 
L 3525 4397 
L 1831 0 
L 1172 0 
L 2766 4134 
L 525 4134 
L 525 4666 
z
" transform="scale(0.015625)"/>
       </defs>
       <use xlink:href="#DejaVuSans-30"/>
       <use xlink:href="#DejaVuSans-2e" x="63.623047"/>
       <use xlink:href="#DejaVuSans-30" x="95.410156"/>
       <use xlink:href="#DejaVuSans-37" x="159.033203"/>
       <use xlink:href="#DejaVuSans-30" x="222.65625"/>
      </g>
     </g>
    </g>
    <g id="ytick_7">
     <g id="line2d_21">
      <path d="M 80.498437 35.672735 
L 437.618438 35.672735 
" clip-path="url(#p54e725452c)" style="fill: none; stroke: #b0b0b0; stroke-width: 0.8; stroke-linecap: square"/>
     </g>
     <g id="line2d_22">
      <g>
       <use xlink:href="#m6f3f5b6aff" x="80.498437" y="35.672735" style="stroke: #000000; stroke-width: 0.8"/>
      </g>
     </g>
     <g id="text_12">
      <!-- 0.075 -->
      <g transform="translate(30.55625 41.371563) scale(0.15 -0.15)">
       <use xlink:href="#DejaVuSans-30"/>
       <use xlink:href="#DejaVuSans-2e" x="63.623047"/>
       <use xlink:href="#DejaVuSans-30" x="95.410156"/>
       <use xlink:href="#DejaVuSans-37" x="159.033203"/>
       <use xlink:href="#DejaVuSans-35" x="222.65625"/>
      </g>
     </g>
    </g>
    <g id="text_13">
     <!-- Crosstalk -->
     <g transform="translate(22.396875 186.279437) rotate(-90) scale(0.2 -0.2)">
      <defs>
       <path id="DejaVuSans-43" d="M 4122 4306 
L 4122 3641 
Q 3803 3938 3442 4084 
Q 3081 4231 2675 4231 
Q 1875 4231 1450 3742 
Q 1025 3253 1025 2328 
Q 1025 1406 1450 917 
Q 1875 428 2675 428 
Q 3081 428 3442 575 
Q 3803 722 4122 1019 
L 4122 359 
Q 3791 134 3420 21 
Q 3050 -91 2638 -91 
Q 1578 -91 968 557 
Q 359 1206 359 2328 
Q 359 3453 968 4101 
Q 1578 4750 2638 4750 
Q 3056 4750 3426 4639 
Q 3797 4528 4122 4306 
z
" transform="scale(0.015625)"/>
       <path id="DejaVuSans-73" d="M 2834 3397 
L 2834 2853 
Q 2591 2978 2328 3040 
Q 2066 3103 1784 3103 
Q 1356 3103 1142 2972 
Q 928 2841 928 2578 
Q 928 2378 1081 2264 
Q 1234 2150 1697 2047 
L 1894 2003 
Q 2506 1872 2764 1633 
Q 3022 1394 3022 966 
Q 3022 478 2636 193 
Q 2250 -91 1575 -91 
Q 1294 -91 989 -36 
Q 684 19 347 128 
L 347 722 
Q 666 556 975 473 
Q 1284 391 1588 391 
Q 1994 391 2212 530 
Q 2431 669 2431 922 
Q 2431 1156 2273 1281 
Q 2116 1406 1581 1522 
L 1381 1569 
Q 847 1681 609 1914 
Q 372 2147 372 2553 
Q 372 3047 722 3315 
Q 1072 3584 1716 3584 
Q 2034 3584 2315 3537 
Q 2597 3491 2834 3397 
z
" transform="scale(0.015625)"/>
       <path id="DejaVuSans-61" d="M 2194 1759 
Q 1497 1759 1228 1600 
Q 959 1441 959 1056 
Q 959 750 1161 570 
Q 1363 391 1709 391 
Q 2188 391 2477 730 
Q 2766 1069 2766 1631 
L 2766 1759 
L 2194 1759 
z
M 3341 1997 
L 3341 0 
L 2766 0 
L 2766 531 
Q 2569 213 2275 61 
Q 1981 -91 1556 -91 
Q 1019 -91 701 211 
Q 384 513 384 1019 
Q 384 1609 779 1909 
Q 1175 2209 1959 2209 
L 2766 2209 
L 2766 2266 
Q 2766 2663 2505 2880 
Q 2244 3097 1772 3097 
Q 1472 3097 1187 3025 
Q 903 2953 641 2809 
L 641 3341 
Q 956 3463 1253 3523 
Q 1550 3584 1831 3584 
Q 2591 3584 2966 3190 
Q 3341 2797 3341 1997 
z
" transform="scale(0.015625)"/>
       <path id="DejaVuSans-6c" d="M 603 4863 
L 1178 4863 
L 1178 0 
L 603 0 
L 603 4863 
z
" transform="scale(0.015625)"/>
       <path id="DejaVuSans-6b" d="M 581 4863 
L 1159 4863 
L 1159 1991 
L 2875 3500 
L 3609 3500 
L 1753 1863 
L 3688 0 
L 2938 0 
L 1159 1709 
L 1159 0 
L 581 0 
L 581 4863 
z
" transform="scale(0.015625)"/>
      </defs>
      <use xlink:href="#DejaVuSans-43"/>
      <use xlink:href="#DejaVuSans-72" x="69.824219"/>
      <use xlink:href="#DejaVuSans-6f" x="108.6875"/>
      <use xlink:href="#DejaVuSans-73" x="169.869141"/>
      <use xlink:href="#DejaVuSans-73" x="221.96875"/>
      <use xlink:href="#DejaVuSans-74" x="274.068359"/>
      <use xlink:href="#DejaVuSans-61" x="313.277344"/>
      <use xlink:href="#DejaVuSans-6c" x="374.556641"/>
      <use xlink:href="#DejaVuSans-6b" x="402.339844"/>
     </g>
    </g>
   </g>
   <g id="LineCollection_1">
    <path d="M 80.498437 210.563876 
L 80.498437 184.353559 
" clip-path="url(#p54e725452c)" style="fill: none; stroke: #1f77b4; stroke-width: 1.5"/>
    <path d="M 82.482437 214.781979 
L 82.482437 188.599357 
" clip-path="url(#p54e725452c)" style="fill: none; stroke: #1f77b4; stroke-width: 1.5"/>
    <path d="M 84.466437 221.87054 
L 84.466437 195.698561 
" clip-path="url(#p54e725452c)" style="fill: none; stroke: #1f77b4; stroke-width: 1.5"/>
    <path d="M 86.450437 225.4657 
L 86.450437 199.283986 
" clip-path="url(#p54e725452c)" style="fill: none; stroke: #1f77b4; stroke-width: 1.5"/>
    <path d="M 88.434438 228.25099 
L 88.434438 202.160538 
" clip-path="url(#p54e725452c)" style="fill: none; stroke: #1f77b4; stroke-width: 1.5"/>
    <path d="M 90.418437 229.157176 
L 90.418437 203.234241 
" clip-path="url(#p54e725452c)" style="fill: none; stroke: #1f77b4; stroke-width: 1.5"/>
    <path d="M 92.402437 230.793712 
L 92.402437 204.917195 
" clip-path="url(#p54e725452c)" style="fill: none; stroke: #1f77b4; stroke-width: 1.5"/>
    <path d="M 94.386437 230.059818 
L 94.386437 204.072412 
" clip-path="url(#p54e725452c)" style="fill: none; stroke: #1f77b4; stroke-width: 1.5"/>
    <path d="M 96.370437 226.97879 
L 96.370437 200.982396 
" clip-path="url(#p54e725452c)" style="fill: none; stroke: #1f77b4; stroke-width: 1.5"/>
    <path d="M 98.354437 227.315105 
L 98.354437 201.201695 
" clip-path="url(#p54e725452c)" style="fill: none; stroke: #1f77b4; stroke-width: 1.5"/>
    <path d="M 100.338437 230.719352 
L 100.338437 204.592642 
" clip-path="url(#p54e725452c)" style="fill: none; stroke: #1f77b4; stroke-width: 1.5"/>
    <path d="M 102.322437 234.851963 
L 102.322437 208.760918 
" clip-path="url(#p54e725452c)" style="fill: none; stroke: #1f77b4; stroke-width: 1.5"/>
    <path d="M 104.306438 240.98339 
L 104.306438 214.941698 
" clip-path="url(#p54e725452c)" style="fill: none; stroke: #1f77b4; stroke-width: 1.5"/>
    <path d="M 106.290437 245.704001 
L 106.290437 219.664678 
" clip-path="url(#p54e725452c)" style="fill: none; stroke: #1f77b4; stroke-width: 1.5"/>
    <path d="M 108.274438 246.799347 
L 108.274438 220.650057 
" clip-path="url(#p54e725452c)" style="fill: none; stroke: #1f77b4; stroke-width: 1.5"/>
    <path d="M 110.258437 248.840869 
L 110.258437 222.619955 
" clip-path="url(#p54e725452c)" style="fill: none; stroke: #1f77b4; stroke-width: 1.5"/>
    <path d="M 112.242437 251.783849 
L 112.242437 225.522694 
" clip-path="url(#p54e725452c)" style="fill: none; stroke: #1f77b4; stroke-width: 1.5"/>
    <path d="M 114.226438 255.012975 
L 114.226438 228.698398 
" clip-path="url(#p54e725452c)" style="fill: none; stroke: #1f77b4; stroke-width: 1.5"/>
    <path d="M 116.210437 257.636671 
L 116.210437 231.283953 
" clip-path="url(#p54e725452c)" style="fill: none; stroke: #1f77b4; stroke-width: 1.5"/>
    <path d="M 118.194437 256.23769 
L 118.194437 229.801091 
" clip-path="url(#p54e725452c)" style="fill: none; stroke: #1f77b4; stroke-width: 1.5"/>
    <path d="M 120.178438 254.683152 
L 120.178438 228.198493 
" clip-path="url(#p54e725452c)" style="fill: none; stroke: #1f77b4; stroke-width: 1.5"/>
    <path d="M 122.162437 253.044866 
L 122.162437 226.535732 
" clip-path="url(#p54e725452c)" style="fill: none; stroke: #1f77b4; stroke-width: 1.5"/>
    <path d="M 124.146437 250.567061 
L 124.146437 224.065179 
" clip-path="url(#p54e725452c)" style="fill: none; stroke: #1f77b4; stroke-width: 1.5"/>
    <path d="M 126.130437 248.643332 
L 126.130437 222.1255 
" clip-path="url(#p54e725452c)" style="fill: none; stroke: #1f77b4; stroke-width: 1.5"/>
    <path d="M 128.114438 248.003586 
L 128.114438 221.44398 
" clip-path="url(#p54e725452c)" style="fill: none; stroke: #1f77b4; stroke-width: 1.5"/>
    <path d="M 130.098437 246.821301 
L 130.098437 220.237749 
" clip-path="url(#p54e725452c)" style="fill: none; stroke: #1f77b4; stroke-width: 1.5"/>
    <path d="M 132.082437 248.266353 
L 132.082437 221.727338 
" clip-path="url(#p54e725452c)" style="fill: none; stroke: #1f77b4; stroke-width: 1.5"/>
    <path d="M 134.066438 248.750937 
L 134.066438 222.248264 
" clip-path="url(#p54e725452c)" style="fill: none; stroke: #1f77b4; stroke-width: 1.5"/>
    <path d="M 136.050437 247.081046 
L 136.050437 220.611862 
" clip-path="url(#p54e725452c)" style="fill: none; stroke: #1f77b4; stroke-width: 1.5"/>
    <path d="M 138.034437 247.045433 
L 138.034437 220.554056 
" clip-path="url(#p54e725452c)" style="fill: none; stroke: #1f77b4; stroke-width: 1.5"/>
    <path d="M 140.018438 251.213524 
L 140.018438 224.691326 
" clip-path="url(#p54e725452c)" style="fill: none; stroke: #1f77b4; stroke-width: 1.5"/>
    <path d="M 142.002437 254.875076 
L 142.002437 228.360491 
" clip-path="url(#p54e725452c)" style="fill: none; stroke: #1f77b4; stroke-width: 1.5"/>
    <path d="M 143.986437 256.967204 
L 143.986437 230.426945 
" clip-path="url(#p54e725452c)" style="fill: none; stroke: #1f77b4; stroke-width: 1.5"/>
    <path d="M 145.970438 257.52298 
L 145.970438 230.880029 
" clip-path="url(#p54e725452c)" style="fill: none; stroke: #1f77b4; stroke-width: 1.5"/>
    <path d="M 147.954437 258.877052 
L 147.954437 232.209462 
" clip-path="url(#p54e725452c)" style="fill: none; stroke: #1f77b4; stroke-width: 1.5"/>
    <path d="M 149.938438 260.385728 
L 149.938438 233.773951 
" clip-path="url(#p54e725452c)" style="fill: none; stroke: #1f77b4; stroke-width: 1.5"/>
    <path d="M 151.922438 257.872919 
L 151.922438 231.289056 
" clip-path="url(#p54e725452c)" style="fill: none; stroke: #1f77b4; stroke-width: 1.5"/>
    <path d="M 153.906437 254.684626 
L 153.906437 228.138558 
" clip-path="url(#p54e725452c)" style="fill: none; stroke: #1f77b4; stroke-width: 1.5"/>
    <path d="M 155.890438 255.560015 
L 155.890438 229.002259 
" clip-path="url(#p54e725452c)" style="fill: none; stroke: #1f77b4; stroke-width: 1.5"/>
    <path d="M 157.874437 260.869214 
L 157.874437 234.43601 
" clip-path="url(#p54e725452c)" style="fill: none; stroke: #1f77b4; stroke-width: 1.5"/>
    <path d="M 159.858438 261.216 
L 159.858438 234.894727 
" clip-path="url(#p54e725452c)" style="fill: none; stroke: #1f77b4; stroke-width: 1.5"/>
    <path d="M 161.842438 256.076166 
L 161.842438 229.870892 
" clip-path="url(#p54e725452c)" style="fill: none; stroke: #1f77b4; stroke-width: 1.5"/>
    <path d="M 163.826437 246.979972 
L 163.826437 220.782045 
" clip-path="url(#p54e725452c)" style="fill: none; stroke: #1f77b4; stroke-width: 1.5"/>
    <path d="M 165.810438 238.172248 
L 165.810438 212.00767 
" clip-path="url(#p54e725452c)" style="fill: none; stroke: #1f77b4; stroke-width: 1.5"/>
    <path d="M 167.794438 229.268298 
L 167.794438 203.132851 
" clip-path="url(#p54e725452c)" style="fill: none; stroke: #1f77b4; stroke-width: 1.5"/>
    <path d="M 169.778437 217.101155 
L 169.778437 190.948566 
" clip-path="url(#p54e725452c)" style="fill: none; stroke: #1f77b4; stroke-width: 1.5"/>
    <path d="M 171.762438 205.7127 
L 171.762438 179.595359 
" clip-path="url(#p54e725452c)" style="fill: none; stroke: #1f77b4; stroke-width: 1.5"/>
    <path d="M 173.746438 192.771532 
L 173.746438 166.625233 
" clip-path="url(#p54e725452c)" style="fill: none; stroke: #1f77b4; stroke-width: 1.5"/>
    <path d="M 175.730437 179.599212 
L 175.730437 153.295558 
" clip-path="url(#p54e725452c)" style="fill: none; stroke: #1f77b4; stroke-width: 1.5"/>
    <path d="M 177.714438 171.682816 
L 177.714438 145.240122 
" clip-path="url(#p54e725452c)" style="fill: none; stroke: #1f77b4; stroke-width: 1.5"/>
    <path d="M 179.698438 160.072253 
L 179.698438 133.423644 
" clip-path="url(#p54e725452c)" style="fill: none; stroke: #1f77b4; stroke-width: 1.5"/>
    <path d="M 181.682437 147.445551 
L 181.682437 120.642146 
" clip-path="url(#p54e725452c)" style="fill: none; stroke: #1f77b4; stroke-width: 1.5"/>
    <path d="M 183.666438 133.922497 
L 183.666438 106.984193 
" clip-path="url(#p54e725452c)" style="fill: none; stroke: #1f77b4; stroke-width: 1.5"/>
    <path d="M 185.650438 125.04638 
L 185.650438 98.13709 
" clip-path="url(#p54e725452c)" style="fill: none; stroke: #1f77b4; stroke-width: 1.5"/>
    <path d="M 187.634437 120.180308 
L 187.634437 93.266786 
" clip-path="url(#p54e725452c)" style="fill: none; stroke: #1f77b4; stroke-width: 1.5"/>
    <path d="M 189.618437 112.406915 
L 189.618437 85.444691 
" clip-path="url(#p54e725452c)" style="fill: none; stroke: #1f77b4; stroke-width: 1.5"/>
    <path d="M 191.602438 102.310545 
L 191.602438 75.281505 
" clip-path="url(#p54e725452c)" style="fill: none; stroke: #1f77b4; stroke-width: 1.5"/>
    <path d="M 193.586437 92.567759 
L 193.586437 65.487615 
" clip-path="url(#p54e725452c)" style="fill: none; stroke: #1f77b4; stroke-width: 1.5"/>
    <path d="M 195.570438 81.637201 
L 195.570438 54.424222 
" clip-path="url(#p54e725452c)" style="fill: none; stroke: #1f77b4; stroke-width: 1.5"/>
    <path d="M 197.554438 69.440113 
L 197.554438 42.093886 
" clip-path="url(#p54e725452c)" style="fill: none; stroke: #1f77b4; stroke-width: 1.5"/>
    <path d="M 199.538437 58.274994 
L 199.538437 30.807422 
" clip-path="url(#p54e725452c)" style="fill: none; stroke: #1f77b4; stroke-width: 1.5"/>
    <path d="M 201.522438 52.558307 
L 201.522438 25.032908 
" clip-path="url(#p54e725452c)" style="fill: none; stroke: #1f77b4; stroke-width: 1.5"/>
    <path d="M 203.506438 47.628285 
L 203.506438 20.007701 
" clip-path="url(#p54e725452c)" style="fill: none; stroke: #1f77b4; stroke-width: 1.5"/>
    <path d="M 205.490438 46.998386 
L 205.490438 19.296 
" clip-path="url(#p54e725452c)" style="fill: none; stroke: #1f77b4; stroke-width: 1.5"/>
    <path d="M 207.474438 49.039576 
L 207.474438 21.309021 
" clip-path="url(#p54e725452c)" style="fill: none; stroke: #1f77b4; stroke-width: 1.5"/>
    <path d="M 209.458438 51.871781 
L 209.458438 24.175234 
" clip-path="url(#p54e725452c)" style="fill: none; stroke: #1f77b4; stroke-width: 1.5"/>
    <path d="M 211.442438 54.98746 
L 211.442438 27.25894 
" clip-path="url(#p54e725452c)" style="fill: none; stroke: #1f77b4; stroke-width: 1.5"/>
    <path d="M 213.426438 58.162573 
L 213.426438 30.429245 
" clip-path="url(#p54e725452c)" style="fill: none; stroke: #1f77b4; stroke-width: 1.5"/>
    <path d="M 215.410438 61.354635 
L 215.410438 33.674282 
" clip-path="url(#p54e725452c)" style="fill: none; stroke: #1f77b4; stroke-width: 1.5"/>
    <path d="M 217.394438 66.136197 
L 217.394438 38.573306 
" clip-path="url(#p54e725452c)" style="fill: none; stroke: #1f77b4; stroke-width: 1.5"/>
    <path d="M 219.378438 73.743962 
L 219.378438 46.308305 
" clip-path="url(#p54e725452c)" style="fill: none; stroke: #1f77b4; stroke-width: 1.5"/>
    <path d="M 221.362437 84.631481 
L 221.362437 57.330182 
" clip-path="url(#p54e725452c)" style="fill: none; stroke: #1f77b4; stroke-width: 1.5"/>
    <path d="M 223.346438 89.991149 
L 223.346438 62.781664 
" clip-path="url(#p54e725452c)" style="fill: none; stroke: #1f77b4; stroke-width: 1.5"/>
    <path d="M 225.330438 93.241818 
L 225.330438 66.114027 
" clip-path="url(#p54e725452c)" style="fill: none; stroke: #1f77b4; stroke-width: 1.5"/>
    <path d="M 227.314437 102.248687 
L 227.314437 75.181804 
" clip-path="url(#p54e725452c)" style="fill: none; stroke: #1f77b4; stroke-width: 1.5"/>
    <path d="M 229.298438 111.183401 
L 229.298438 84.197008 
" clip-path="url(#p54e725452c)" style="fill: none; stroke: #1f77b4; stroke-width: 1.5"/>
    <path d="M 231.282438 120.778566 
L 231.282438 93.891022 
" clip-path="url(#p54e725452c)" style="fill: none; stroke: #1f77b4; stroke-width: 1.5"/>
    <path d="M 233.266438 130.867994 
L 233.266438 104.04647 
" clip-path="url(#p54e725452c)" style="fill: none; stroke: #1f77b4; stroke-width: 1.5"/>
    <path d="M 235.250438 141.221602 
L 235.250438 114.460602 
" clip-path="url(#p54e725452c)" style="fill: none; stroke: #1f77b4; stroke-width: 1.5"/>
    <path d="M 237.234438 153.079585 
L 237.234438 126.41516 
" clip-path="url(#p54e725452c)" style="fill: none; stroke: #1f77b4; stroke-width: 1.5"/>
    <path d="M 239.218438 160.315248 
L 239.218438 133.730952 
" clip-path="url(#p54e725452c)" style="fill: none; stroke: #1f77b4; stroke-width: 1.5"/>
    <path d="M 241.202438 170.005204 
L 241.202438 143.489679 
" clip-path="url(#p54e725452c)" style="fill: none; stroke: #1f77b4; stroke-width: 1.5"/>
    <path d="M 243.186438 178.859249 
L 243.186438 152.452657 
" clip-path="url(#p54e725452c)" style="fill: none; stroke: #1f77b4; stroke-width: 1.5"/>
    <path d="M 245.170438 183.570975 
L 245.170438 157.102555 
" clip-path="url(#p54e725452c)" style="fill: none; stroke: #1f77b4; stroke-width: 1.5"/>
    <path d="M 247.154438 189.584035 
L 247.154438 163.174871 
" clip-path="url(#p54e725452c)" style="fill: none; stroke: #1f77b4; stroke-width: 1.5"/>
    <path d="M 249.138438 196.360137 
L 249.138438 170.019609 
" clip-path="url(#p54e725452c)" style="fill: none; stroke: #1f77b4; stroke-width: 1.5"/>
    <path d="M 251.122438 203.146492 
L 251.122438 176.815135 
" clip-path="url(#p54e725452c)" style="fill: none; stroke: #1f77b4; stroke-width: 1.5"/>
    <path d="M 253.106437 205.567326 
L 253.106437 179.168328 
" clip-path="url(#p54e725452c)" style="fill: none; stroke: #1f77b4; stroke-width: 1.5"/>
    <path d="M 255.090438 211.230521 
L 255.090438 184.879488 
" clip-path="url(#p54e725452c)" style="fill: none; stroke: #1f77b4; stroke-width: 1.5"/>
    <path d="M 257.074438 212.305204 
L 257.074438 185.973279 
" clip-path="url(#p54e725452c)" style="fill: none; stroke: #1f77b4; stroke-width: 1.5"/>
    <path d="M 259.058438 212.805507 
L 259.058438 186.523311 
" clip-path="url(#p54e725452c)" style="fill: none; stroke: #1f77b4; stroke-width: 1.5"/>
    <path d="M 261.042438 212.941823 
L 261.042438 186.715061 
" clip-path="url(#p54e725452c)" style="fill: none; stroke: #1f77b4; stroke-width: 1.5"/>
    <path d="M 263.026438 214.93288 
L 263.026438 188.674919 
" clip-path="url(#p54e725452c)" style="fill: none; stroke: #1f77b4; stroke-width: 1.5"/>
    <path d="M 265.010438 216.954987 
L 265.010438 190.682037 
" clip-path="url(#p54e725452c)" style="fill: none; stroke: #1f77b4; stroke-width: 1.5"/>
    <path d="M 266.994438 218.212106 
L 266.994438 191.946001 
" clip-path="url(#p54e725452c)" style="fill: none; stroke: #1f77b4; stroke-width: 1.5"/>
    <path d="M 268.978438 218.984018 
L 268.978438 192.727112 
" clip-path="url(#p54e725452c)" style="fill: none; stroke: #1f77b4; stroke-width: 1.5"/>
    <path d="M 270.962438 218.878067 
L 270.962438 192.634482 
" clip-path="url(#p54e725452c)" style="fill: none; stroke: #1f77b4; stroke-width: 1.5"/>
    <path d="M 272.946438 215.735472 
L 272.946438 189.46163 
" clip-path="url(#p54e725452c)" style="fill: none; stroke: #1f77b4; stroke-width: 1.5"/>
    <path d="M 274.930438 219.494722 
L 274.930438 193.217545 
" clip-path="url(#p54e725452c)" style="fill: none; stroke: #1f77b4; stroke-width: 1.5"/>
    <path d="M 276.914438 221.434264 
L 276.914438 195.183328 
" clip-path="url(#p54e725452c)" style="fill: none; stroke: #1f77b4; stroke-width: 1.5"/>
    <path d="M 278.898438 223.32059 
L 278.898438 197.155466 
" clip-path="url(#p54e725452c)" style="fill: none; stroke: #1f77b4; stroke-width: 1.5"/>
    <path d="M 280.882438 222.211141 
L 280.882438 196.178031 
" clip-path="url(#p54e725452c)" style="fill: none; stroke: #1f77b4; stroke-width: 1.5"/>
    <path d="M 282.866438 221.452191 
L 282.866438 195.448957 
" clip-path="url(#p54e725452c)" style="fill: none; stroke: #1f77b4; stroke-width: 1.5"/>
    <path d="M 284.850437 220.581905 
L 284.850437 194.585738 
" clip-path="url(#p54e725452c)" style="fill: none; stroke: #1f77b4; stroke-width: 1.5"/>
    <path d="M 286.834438 217.839754 
L 286.834438 191.739216 
" clip-path="url(#p54e725452c)" style="fill: none; stroke: #1f77b4; stroke-width: 1.5"/>
    <path d="M 288.818438 216.093912 
L 288.818438 189.947427 
" clip-path="url(#p54e725452c)" style="fill: none; stroke: #1f77b4; stroke-width: 1.5"/>
    <path d="M 290.802437 215.63966 
L 290.802437 189.457477 
" clip-path="url(#p54e725452c)" style="fill: none; stroke: #1f77b4; stroke-width: 1.5"/>
    <path d="M 292.786438 215.850209 
L 292.786438 189.686574 
" clip-path="url(#p54e725452c)" style="fill: none; stroke: #1f77b4; stroke-width: 1.5"/>
    <path d="M 294.770438 219.210819 
L 294.770438 193.129738 
" clip-path="url(#p54e725452c)" style="fill: none; stroke: #1f77b4; stroke-width: 1.5"/>
    <path d="M 296.754437 220.766909 
L 296.754437 194.74161 
" clip-path="url(#p54e725452c)" style="fill: none; stroke: #1f77b4; stroke-width: 1.5"/>
    <path d="M 298.738438 218.845024 
L 298.738438 192.741031 
" clip-path="url(#p54e725452c)" style="fill: none; stroke: #1f77b4; stroke-width: 1.5"/>
    <path d="M 300.722438 218.131895 
L 300.722438 192.017142 
" clip-path="url(#p54e725452c)" style="fill: none; stroke: #1f77b4; stroke-width: 1.5"/>
    <path d="M 302.706437 220.79624 
L 302.706437 194.720839 
" clip-path="url(#p54e725452c)" style="fill: none; stroke: #1f77b4; stroke-width: 1.5"/>
    <path d="M 304.690438 223.042563 
L 304.690438 196.982016 
" clip-path="url(#p54e725452c)" style="fill: none; stroke: #1f77b4; stroke-width: 1.5"/>
    <path d="M 306.674438 225.235679 
L 306.674438 199.218947 
" clip-path="url(#p54e725452c)" style="fill: none; stroke: #1f77b4; stroke-width: 1.5"/>
    <path d="M 308.658437 228.42441 
L 308.658437 202.506381 
" clip-path="url(#p54e725452c)" style="fill: none; stroke: #1f77b4; stroke-width: 1.5"/>
    <path d="M 310.642438 229.81916 
L 310.642438 203.956671 
" clip-path="url(#p54e725452c)" style="fill: none; stroke: #1f77b4; stroke-width: 1.5"/>
    <path d="M 312.626438 231.00685 
L 312.626438 205.192711 
" clip-path="url(#p54e725452c)" style="fill: none; stroke: #1f77b4; stroke-width: 1.5"/>
    <path d="M 314.610437 230.672844 
L 314.610437 204.910132 
" clip-path="url(#p54e725452c)" style="fill: none; stroke: #1f77b4; stroke-width: 1.5"/>
    <path d="M 316.594438 231.394478 
L 316.594438 205.618385 
" clip-path="url(#p54e725452c)" style="fill: none; stroke: #1f77b4; stroke-width: 1.5"/>
    <path d="M 318.578438 230.864573 
L 318.578438 205.031805 
" clip-path="url(#p54e725452c)" style="fill: none; stroke: #1f77b4; stroke-width: 1.5"/>
    <path d="M 320.562437 230.412134 
L 320.562437 204.55511 
" clip-path="url(#p54e725452c)" style="fill: none; stroke: #1f77b4; stroke-width: 1.5"/>
    <path d="M 322.546438 227.86364 
L 322.546438 201.962823 
" clip-path="url(#p54e725452c)" style="fill: none; stroke: #1f77b4; stroke-width: 1.5"/>
    <path d="M 324.530438 223.079107 
L 324.530438 197.134434 
" clip-path="url(#p54e725452c)" style="fill: none; stroke: #1f77b4; stroke-width: 1.5"/>
    <path d="M 326.514437 216.737363 
L 326.514437 190.795477 
" clip-path="url(#p54e725452c)" style="fill: none; stroke: #1f77b4; stroke-width: 1.5"/>
    <path d="M 328.498438 207.559397 
L 328.498438 181.538028 
" clip-path="url(#p54e725452c)" style="fill: none; stroke: #1f77b4; stroke-width: 1.5"/>
    <path d="M 330.482438 203.366293 
L 330.482438 177.225393 
" clip-path="url(#p54e725452c)" style="fill: none; stroke: #1f77b4; stroke-width: 1.5"/>
    <path d="M 332.466437 201.592668 
L 332.466437 175.410813 
" clip-path="url(#p54e725452c)" style="fill: none; stroke: #1f77b4; stroke-width: 1.5"/>
    <path d="M 334.450438 193.231587 
L 334.450438 167.010917 
" clip-path="url(#p54e725452c)" style="fill: none; stroke: #1f77b4; stroke-width: 1.5"/>
    <path d="M 336.434438 185.437398 
L 336.434438 159.224983 
" clip-path="url(#p54e725452c)" style="fill: none; stroke: #1f77b4; stroke-width: 1.5"/>
    <path d="M 338.418437 178.764842 
L 338.418437 152.511301 
" clip-path="url(#p54e725452c)" style="fill: none; stroke: #1f77b4; stroke-width: 1.5"/>
    <path d="M 340.402438 174.898633 
L 340.402438 148.543335 
" clip-path="url(#p54e725452c)" style="fill: none; stroke: #1f77b4; stroke-width: 1.5"/>
    <path d="M 342.386438 166.363084 
L 342.386438 139.894455 
" clip-path="url(#p54e725452c)" style="fill: none; stroke: #1f77b4; stroke-width: 1.5"/>
    <path d="M 344.370437 164.345184 
L 344.370437 137.857961 
" clip-path="url(#p54e725452c)" style="fill: none; stroke: #1f77b4; stroke-width: 1.5"/>
    <path d="M 346.354438 161.730877 
L 346.354438 135.16396 
" clip-path="url(#p54e725452c)" style="fill: none; stroke: #1f77b4; stroke-width: 1.5"/>
    <path d="M 348.338438 154.748345 
L 348.338438 127.999041 
" clip-path="url(#p54e725452c)" style="fill: none; stroke: #1f77b4; stroke-width: 1.5"/>
    <path d="M 350.322437 147.551351 
L 350.322437 120.70692 
" clip-path="url(#p54e725452c)" style="fill: none; stroke: #1f77b4; stroke-width: 1.5"/>
    <path d="M 352.306438 143.621176 
L 352.306438 116.653474 
" clip-path="url(#p54e725452c)" style="fill: none; stroke: #1f77b4; stroke-width: 1.5"/>
    <path d="M 354.290438 137.306675 
L 354.290438 110.169901 
" clip-path="url(#p54e725452c)" style="fill: none; stroke: #1f77b4; stroke-width: 1.5"/>
    <path d="M 356.274437 131.850638 
L 356.274437 104.600893 
" clip-path="url(#p54e725452c)" style="fill: none; stroke: #1f77b4; stroke-width: 1.5"/>
    <path d="M 358.258438 127.071106 
L 358.258438 99.762754 
" clip-path="url(#p54e725452c)" style="fill: none; stroke: #1f77b4; stroke-width: 1.5"/>
    <path d="M 360.242438 125.439856 
L 360.242438 98.086514 
" clip-path="url(#p54e725452c)" style="fill: none; stroke: #1f77b4; stroke-width: 1.5"/>
    <path d="M 362.226437 122.18627 
L 362.226437 94.725085 
" clip-path="url(#p54e725452c)" style="fill: none; stroke: #1f77b4; stroke-width: 1.5"/>
    <path d="M 364.210438 116.141965 
L 364.210438 88.612322 
" clip-path="url(#p54e725452c)" style="fill: none; stroke: #1f77b4; stroke-width: 1.5"/>
    <path d="M 366.194438 112.395234 
L 366.194438 84.792043 
" clip-path="url(#p54e725452c)" style="fill: none; stroke: #1f77b4; stroke-width: 1.5"/>
    <path d="M 368.178437 110.141058 
L 368.178437 82.558175 
" clip-path="url(#p54e725452c)" style="fill: none; stroke: #1f77b4; stroke-width: 1.5"/>
    <path d="M 370.162438 103.995826 
L 370.162438 76.488259 
" clip-path="url(#p54e725452c)" style="fill: none; stroke: #1f77b4; stroke-width: 1.5"/>
    <path d="M 372.146438 99.518185 
L 372.146438 72.05961 
" clip-path="url(#p54e725452c)" style="fill: none; stroke: #1f77b4; stroke-width: 1.5"/>
    <path d="M 374.130437 96.822485 
L 374.130437 69.397437 
" clip-path="url(#p54e725452c)" style="fill: none; stroke: #1f77b4; stroke-width: 1.5"/>
    <path d="M 376.114438 93.545366 
L 376.114438 66.090063 
" clip-path="url(#p54e725452c)" style="fill: none; stroke: #1f77b4; stroke-width: 1.5"/>
    <path d="M 378.098438 89.989827 
L 378.098438 62.422398 
" clip-path="url(#p54e725452c)" style="fill: none; stroke: #1f77b4; stroke-width: 1.5"/>
    <path d="M 380.082437 89.16285 
L 380.082437 61.543565 
" clip-path="url(#p54e725452c)" style="fill: none; stroke: #1f77b4; stroke-width: 1.5"/>
    <path d="M 382.066438 86.776654 
L 382.066438 59.150469 
" clip-path="url(#p54e725452c)" style="fill: none; stroke: #1f77b4; stroke-width: 1.5"/>
    <path d="M 384.050438 79.620944 
L 384.050438 52.041304 
" clip-path="url(#p54e725452c)" style="fill: none; stroke: #1f77b4; stroke-width: 1.5"/>
    <path d="M 386.034438 76.749797 
L 386.034438 49.217773 
" clip-path="url(#p54e725452c)" style="fill: none; stroke: #1f77b4; stroke-width: 1.5"/>
    <path d="M 388.018438 77.365669 
L 388.018438 49.821719 
" clip-path="url(#p54e725452c)" style="fill: none; stroke: #1f77b4; stroke-width: 1.5"/>
    <path d="M 390.002438 74.985314 
L 390.002438 47.385975 
" clip-path="url(#p54e725452c)" style="fill: none; stroke: #1f77b4; stroke-width: 1.5"/>
    <path d="M 391.986438 75.514464 
L 391.986438 47.912185 
" clip-path="url(#p54e725452c)" style="fill: none; stroke: #1f77b4; stroke-width: 1.5"/>
    <path d="M 393.970438 78.050718 
L 393.970438 50.46243 
" clip-path="url(#p54e725452c)" style="fill: none; stroke: #1f77b4; stroke-width: 1.5"/>
    <path d="M 395.954438 80.626563 
L 395.954438 53.072953 
" clip-path="url(#p54e725452c)" style="fill: none; stroke: #1f77b4; stroke-width: 1.5"/>
    <path d="M 397.938438 85.187845 
L 397.938438 57.699598 
" clip-path="url(#p54e725452c)" style="fill: none; stroke: #1f77b4; stroke-width: 1.5"/>
    <path d="M 399.922438 89.360839 
L 399.922438 62.033755 
" clip-path="url(#p54e725452c)" style="fill: none; stroke: #1f77b4; stroke-width: 1.5"/>
    <path d="M 401.906438 92.132898 
L 401.906438 65.00193 
" clip-path="url(#p54e725452c)" style="fill: none; stroke: #1f77b4; stroke-width: 1.5"/>
    <path d="M 403.890438 96.379677 
L 403.890438 69.385589 
" clip-path="url(#p54e725452c)" style="fill: none; stroke: #1f77b4; stroke-width: 1.5"/>
    <path d="M 405.874437 98.08516 
L 405.874437 71.100345 
" clip-path="url(#p54e725452c)" style="fill: none; stroke: #1f77b4; stroke-width: 1.5"/>
    <path d="M 407.858438 100.355564 
L 407.858438 73.267974 
" clip-path="url(#p54e725452c)" style="fill: none; stroke: #1f77b4; stroke-width: 1.5"/>
    <path d="M 409.842438 107.010296 
L 409.842438 79.908751 
" clip-path="url(#p54e725452c)" style="fill: none; stroke: #1f77b4; stroke-width: 1.5"/>
    <path d="M 411.826437 114.114296 
L 411.826437 87.144855 
" clip-path="url(#p54e725452c)" style="fill: none; stroke: #1f77b4; stroke-width: 1.5"/>
    <path d="M 413.810438 121.353084 
L 413.810438 94.474618 
" clip-path="url(#p54e725452c)" style="fill: none; stroke: #1f77b4; stroke-width: 1.5"/>
    <path d="M 415.794438 126.527958 
L 415.794438 99.714996 
" clip-path="url(#p54e725452c)" style="fill: none; stroke: #1f77b4; stroke-width: 1.5"/>
    <path d="M 417.778437 131.838302 
L 417.778437 105.106622 
" clip-path="url(#p54e725452c)" style="fill: none; stroke: #1f77b4; stroke-width: 1.5"/>
    <path d="M 419.762438 142.586015 
L 419.762438 115.911852 
" clip-path="url(#p54e725452c)" style="fill: none; stroke: #1f77b4; stroke-width: 1.5"/>
    <path d="M 421.746438 151.194868 
L 421.746438 124.611855 
" clip-path="url(#p54e725452c)" style="fill: none; stroke: #1f77b4; stroke-width: 1.5"/>
    <path d="M 423.730437 159.469616 
L 423.730437 132.941895 
" clip-path="url(#p54e725452c)" style="fill: none; stroke: #1f77b4; stroke-width: 1.5"/>
    <path d="M 425.714438 171.487313 
L 425.714438 145.073234 
" clip-path="url(#p54e725452c)" style="fill: none; stroke: #1f77b4; stroke-width: 1.5"/>
    <path d="M 427.698438 180.326126 
L 427.698438 153.945517 
" clip-path="url(#p54e725452c)" style="fill: none; stroke: #1f77b4; stroke-width: 1.5"/>
    <path d="M 429.682437 191.232105 
L 429.682437 164.884948 
" clip-path="url(#p54e725452c)" style="fill: none; stroke: #1f77b4; stroke-width: 1.5"/>
    <path d="M 431.666438 197.284536 
L 431.666438 170.93235 
" clip-path="url(#p54e725452c)" style="fill: none; stroke: #1f77b4; stroke-width: 1.5"/>
    <path d="M 433.650438 202.34284 
L 433.650438 176.038214 
" clip-path="url(#p54e725452c)" style="fill: none; stroke: #1f77b4; stroke-width: 1.5"/>
    <path d="M 435.634437 207.223544 
L 435.634437 180.980784 
" clip-path="url(#p54e725452c)" style="fill: none; stroke: #1f77b4; stroke-width: 1.5"/>
    <path d="M 437.618438 210.563876 
L 437.618438 184.353559 
" clip-path="url(#p54e725452c)" style="fill: none; stroke: #1f77b4; stroke-width: 1.5"/>
   </g>
   <g id="line2d_23">
    <path d="M 80.498437 197.458717 
L 82.482437 201.690668 
L 84.466437 208.784551 
L 86.450437 212.374843 
L 88.434438 215.205764 
L 90.418437 216.195709 
L 92.402437 217.855453 
L 94.386437 217.066115 
L 96.370437 213.980593 
L 98.354437 214.2584 
L 100.338437 217.655997 
L 102.322437 221.80644 
L 104.306438 227.962544 
L 106.290437 232.684339 
L 108.274438 233.724702 
L 110.258437 235.730412 
L 112.242437 238.653271 
L 114.226438 241.855686 
L 116.210437 244.460312 
L 118.194437 243.019391 
L 122.162437 239.790299 
L 124.146437 237.31612 
L 126.130437 235.384416 
L 128.114438 234.723783 
L 130.098437 233.529525 
L 132.082437 234.996846 
L 134.066438 235.4996 
L 136.050437 233.846454 
L 138.034437 233.799744 
L 140.018438 237.952425 
L 142.002437 241.617783 
L 143.986437 243.697074 
L 145.970438 244.201504 
L 147.954437 245.543257 
L 149.938438 247.079839 
L 151.922438 244.580987 
L 153.906437 241.411592 
L 155.890438 242.281137 
L 157.874437 247.652612 
L 159.858438 248.055364 
L 161.842438 242.973529 
L 167.794438 216.200574 
L 169.778437 204.02486 
L 171.762438 192.65403 
L 175.730437 166.447385 
L 177.714438 158.461469 
L 179.698438 146.747948 
L 181.682437 134.043849 
L 183.666438 120.453345 
L 185.650438 111.591735 
L 187.634437 106.723547 
L 189.618437 98.925803 
L 195.570438 68.030712 
L 197.554438 55.767 
L 199.538437 44.541208 
L 201.522438 38.795607 
L 203.506438 33.817993 
L 205.490438 33.147193 
L 207.474438 35.174299 
L 209.458438 38.023508 
L 215.410438 47.514458 
L 217.394438 52.354751 
L 219.378438 60.026134 
L 221.362437 70.980832 
L 223.346438 76.386406 
L 225.330438 79.677923 
L 229.298438 97.690205 
L 233.266438 117.457232 
L 235.250438 127.841102 
L 237.234438 139.747372 
L 239.218438 147.0231 
L 241.202438 156.747441 
L 243.186438 165.655953 
L 245.170438 170.336765 
L 247.154438 176.379453 
L 251.122438 189.980813 
L 253.106437 192.367827 
L 255.090438 198.055004 
L 257.074438 199.139241 
L 259.058438 199.664409 
L 261.042438 199.828442 
L 265.010438 203.818512 
L 266.994438 205.079053 
L 268.978438 205.855565 
L 270.962438 205.756274 
L 272.946438 202.598551 
L 274.930438 206.356134 
L 278.898438 210.238028 
L 280.882438 209.194586 
L 282.866438 208.450574 
L 284.850437 207.583822 
L 286.834438 204.789485 
L 288.818438 203.020669 
L 290.802437 202.548569 
L 292.786438 202.768392 
L 294.770438 206.170278 
L 296.754437 207.754259 
L 298.738438 205.793028 
L 300.722438 205.074518 
L 302.706437 207.75854 
L 306.674438 212.227313 
L 308.658437 215.465395 
L 310.642438 216.887916 
L 312.626438 218.099781 
L 314.610437 217.791488 
L 316.594438 218.506432 
L 320.562437 217.483622 
L 322.546438 214.913232 
L 324.530438 210.106771 
L 326.514437 203.76642 
L 328.498438 194.548712 
L 330.482438 190.295843 
L 332.466437 188.50174 
L 334.450438 180.121252 
L 336.434438 172.33119 
L 338.418437 165.638072 
L 340.402438 161.720984 
L 342.386438 153.12877 
L 344.370437 151.101573 
L 346.354438 148.447418 
L 350.322437 134.129136 
L 352.306438 130.137325 
L 354.290438 123.738288 
L 356.274437 118.225765 
L 358.258438 113.41693 
L 360.242438 111.763185 
L 362.226437 108.455678 
L 364.210438 102.377143 
L 366.194438 98.593638 
L 368.178437 96.349616 
L 370.162438 90.242042 
L 372.146438 85.788897 
L 374.130437 83.109961 
L 376.114438 79.817714 
L 378.098438 76.206113 
L 380.082437 75.353208 
L 382.066438 72.963562 
L 384.050438 65.831124 
L 386.034438 62.983785 
L 388.018438 63.593694 
L 390.002438 61.185645 
L 391.986438 61.713324 
L 395.954438 66.849758 
L 397.938438 71.443722 
L 399.922438 75.697297 
L 401.906438 78.567414 
L 403.890438 82.882633 
L 405.874437 84.592753 
L 407.858438 86.811769 
L 409.842438 93.459523 
L 413.810438 107.913851 
L 417.778437 118.472462 
L 419.762438 129.248933 
L 423.730437 146.205756 
L 425.714438 158.280274 
L 427.698438 167.135821 
L 429.682437 178.058526 
L 431.666438 184.108443 
L 435.634437 194.102164 
L 437.618438 197.458717 
L 437.618438 197.458717 
" clip-path="url(#p54e725452c)" style="fill: none; stroke: #1f77b4; stroke-width: 1.5; stroke-linecap: square"/>
   </g>
   <g id="patch_3">
    <path d="M 80.498437 273.312 
L 80.498437 7.2 
" style="fill: none; stroke: #000000; stroke-width: 0.8; stroke-linejoin: miter; stroke-linecap: square"/>
   </g>
   <g id="patch_4">
    <path d="M 437.618438 273.312 
L 437.618438 7.2 
" style="fill: none; stroke: #000000; stroke-width: 0.8; stroke-linejoin: miter; stroke-linecap: square"/>
   </g>
   <g id="patch_5">
    <path d="M 80.498437 273.312 
L 437.618438 273.312 
" style="fill: none; stroke: #000000; stroke-width: 0.8; stroke-linejoin: miter; stroke-linecap: square"/>
   </g>
   <g id="patch_6">
    <path d="M 80.498437 7.2 
L 437.618438 7.2 
" style="fill: none; stroke: #000000; stroke-width: 0.8; stroke-linejoin: miter; stroke-linecap: square"/>
   </g>
  </g>
 </g>
 <defs>
  <clipPath id="p54e725452c">
   <rect x="80.498437" y="7.2" width="357.12" height="266.112"/>
  </clipPath>
 </defs>
</svg>
