M48
; DRILL file {KiCad 6.0.0} date 2021年12月30日 星期四 08时36分34秒
; FORMAT={-:-/ absolute / inch / decimal}
; #@! TF.CreationDate,2021-12-30T08:36:34-05:00
; #@! TF.GenerationSoftware,Kicad,Pcbnew,6.0.0
; #@! TF.FileFunction,MixedPlating,1,4
FMAT,2
INCH
; #@! TA.AperFunction,Plated,PTH,ViaDrill
T1C0.0079
; #@! TA.AperFunction,Plated,PTH,ComponentDrill
T2C0.0236
; #@! TA.AperFunction,Plated,PTH,ComponentDrill
T3C0.0315
; #@! TA.AperFunction,Plated,PTH,ComponentDrill
T4C0.0551
; #@! TA.AperFunction,Plated,PTH,ComponentDrill
T5C0.0709
; #@! TA.AperFunction,NonPlated,NPTH,ComponentDrill
T6C0.0256
%
G90
G05
T1
X2.1855Y-3.0423
X2.29Y-3.16
X2.4Y-2.97
X2.43Y-3.07
X2.4994Y-3.0611
X2.5006Y-3.2702
X2.51Y-3.04
X2.5479Y-3.4221
X2.5548Y-3.3252
X2.5582Y-3.002
X2.58Y-3.09
X2.58Y-3.12
X2.58Y-3.12
X2.58Y-3.12
X2.6206Y-3.0066
X2.64Y-3.02
X2.74Y-3.32
X2.76Y-3.2294
X2.78Y-3.01
X2.78Y-3.09
X2.78Y-3.17
X2.88Y-3.31
X2.98Y-3.32
X3.8Y-3.28
T3
X3.6938Y-3.42
X3.7725Y-3.42
X3.8513Y-3.42
X3.93Y-3.42
X4.0087Y-3.42
X4.0875Y-3.42
X4.1662Y-3.42
T4
X3.7113Y-2.82
X3.7113Y-3.02
T5
X2.37Y-2.7698
X2.37Y-3.3698
X3.27Y-2.7698
X3.27Y-3.3698
T6
X2.2026Y-2.9862
X2.2026Y-3.2138
T2
G00X2.0695Y-2.9299
M15
G01X2.0459Y-2.9299
M16
G05
G00X2.0695Y-3.2701
M15
G01X2.0459Y-3.2701
M16
G05
G00X2.2439Y-2.9299
M15
G01X2.2006Y-2.9299
M16
G05
G00X2.2439Y-3.2701
M15
G01X2.2006Y-3.2701
M16
G05
T0
M30
