%TF.GenerationSoftware,KiCad,Pcbnew,6.0.0*%
%TF.CreationDate,2021-12-30T08:36:24-05:00*%
%TF.ProjectId,usb_pd_sink_fixed,7573625f-7064-45f7-9369-6e6b5f666978,rev?*%
%TF.SameCoordinates,Original*%
%TF.FileFunction,Copper,L2,Inr*%
%TF.FilePolarity,Positive*%
%FSLAX46Y46*%
G04 Gerber Fmt 4.6, Leading zero omitted, Abs format (unit mm)*
G04 Created by KiCad (PCBNEW 6.0.0) date 2021-12-30 08:36:24*
%MOMM*%
%LPD*%
G01*
G04 APERTURE LIST*
G04 Aperture macros list*
%AMRoundRect*
0 Rectangle with rounded corners*
0 $1 Rounding radius*
0 $2 $3 $4 $5 $6 $7 $8 $9 X,Y pos of 4 corners*
0 Add a 4 corners polygon primitive as box body*
4,1,4,$2,$3,$4,$5,$6,$7,$8,$9,$2,$3,0*
0 Add four circle primitives for the rounded corners*
1,1,$1+$1,$2,$3*
1,1,$1+$1,$4,$5*
1,1,$1+$1,$6,$7*
1,1,$1+$1,$8,$9*
0 Add four rect primitives between the rounded corners*
20,1,$1+$1,$2,$3,$4,$5,0*
20,1,$1+$1,$4,$5,$6,$7,0*
20,1,$1+$1,$6,$7,$8,$9,0*
20,1,$1+$1,$8,$9,$2,$3,0*%
G04 Aperture macros list end*
%TA.AperFunction,ComponentPad*%
%ADD10O,1.600000X1.000000*%
%TD*%
%TA.AperFunction,ComponentPad*%
%ADD11O,2.100000X1.000000*%
%TD*%
%TA.AperFunction,ComponentPad*%
%ADD12RoundRect,0.249999X-1.550001X0.790001X-1.550001X-0.790001X1.550001X-0.790001X1.550001X0.790001X0*%
%TD*%
%TA.AperFunction,ComponentPad*%
%ADD13O,3.600000X2.080000*%
%TD*%
%TA.AperFunction,ComponentPad*%
%ADD14R,3.600000X3.600000*%
%TD*%
%TA.AperFunction,ComponentPad*%
%ADD15C,3.600000*%
%TD*%
%TA.AperFunction,ComponentPad*%
%ADD16R,1.350000X1.350000*%
%TD*%
%TA.AperFunction,ComponentPad*%
%ADD17O,1.350000X1.350000*%
%TD*%
%TA.AperFunction,ViaPad*%
%ADD18C,0.400000*%
%TD*%
%TA.AperFunction,Conductor*%
%ADD19C,0.250000*%
%TD*%
%TA.AperFunction,Conductor*%
%ADD20C,1.000000*%
%TD*%
%TA.AperFunction,Conductor*%
%ADD21C,0.500000*%
%TD*%
G04 APERTURE END LIST*
D10*
%TO.N,GND*%
%TO.C,J1*%
X52265000Y-74420000D03*
D11*
X56445000Y-74420000D03*
D10*
X52265000Y-83060000D03*
D11*
X56445000Y-83060000D03*
%TD*%
D12*
%TO.N,VBUS_OUT*%
%TO.C,J2*%
X94266500Y-71628000D03*
D13*
%TO.N,GND2*%
X94266500Y-76708000D03*
%TD*%
D14*
%TO.N,GND*%
%TO.C,T1*%
X60198000Y-85593000D03*
D15*
%TO.N,GND2*%
X60198000Y-70353000D03*
%TO.N,VBUS_OUT*%
X83058000Y-70353000D03*
%TO.N,VBUS_IN*%
X83058000Y-85593000D03*
%TD*%
D16*
%TO.N,+3V3*%
%TO.C,J3*%
X105822000Y-86868000D03*
D17*
%TO.N,HPI_INT*%
X103822000Y-86868000D03*
%TO.N,GPIO_1*%
X101822000Y-86868000D03*
%TO.N,FLIP*%
X99822000Y-86868000D03*
%TO.N,HPI_SDA*%
X97822000Y-86868000D03*
%TO.N,HPI_SCL*%
X95822000Y-86868000D03*
%TO.N,GND*%
X93822000Y-86868000D03*
%TD*%
D18*
%TO.N,VBUS_IN*%
X63516500Y-83062266D03*
X55510987Y-77273286D03*
X64892734Y-84459266D03*
X60960000Y-75438000D03*
X64716264Y-86921737D03*
%TO.N,GND*%
X65532000Y-79248000D03*
X70612000Y-76454000D03*
X70104000Y-82025500D03*
X73152000Y-84074000D03*
X65532000Y-79248000D03*
X70612000Y-78486000D03*
X65532000Y-78486000D03*
X70612000Y-80518000D03*
X65532000Y-79248000D03*
%TO.N,+3V3*%
X96520000Y-83312000D03*
X75692000Y-84328000D03*
X69596000Y-84328000D03*
%TO.N,CC2*%
X61722000Y-77978000D03*
X58166000Y-80264000D03*
%TO.N,HPI_INT*%
X67056000Y-76708000D03*
%TO.N,GPIO_1*%
X66562797Y-76367185D03*
%TO.N,FLIP*%
X64978873Y-76251498D03*
%TO.N,HPI_SDA*%
X63754000Y-77216000D03*
%TO.N,HPI_SCL*%
X63485894Y-77752211D03*
%TD*%
D19*
%TO.N,VBUS_IN*%
X59124714Y-77273286D02*
X55510987Y-77273286D01*
D20*
X83058000Y-85593000D02*
X66035000Y-85593000D01*
X65931048Y-85593000D02*
X63829024Y-83490976D01*
D21*
X66035000Y-85593000D02*
X63566520Y-83124520D01*
X63566520Y-83124520D02*
X63566520Y-83062266D01*
D19*
X60960000Y-75438000D02*
X59124714Y-77273286D01*
D20*
X66035000Y-85593000D02*
X65931048Y-85593000D01*
D19*
%TO.N,HPI_INT*%
X101923449Y-84969449D02*
X89542885Y-84969449D01*
X89542885Y-84969449D02*
X87123434Y-82550000D01*
X68580000Y-82550000D02*
X66294000Y-80264000D01*
X87123434Y-82550000D02*
X68580000Y-82550000D01*
X66294000Y-77470000D02*
X67056000Y-76708000D01*
X66294000Y-80264000D02*
X66294000Y-77470000D01*
X103822000Y-86868000D02*
X101923449Y-84969449D01*
%TO.N,GPIO_1*%
X65007489Y-80373771D02*
X65007489Y-77922493D01*
X65007489Y-77922493D02*
X66562797Y-76367185D01*
X101822000Y-86868000D02*
X100372969Y-85418969D01*
X89356687Y-85418969D02*
X86956686Y-83018969D01*
X67652687Y-83018969D02*
X65007489Y-80373771D01*
X86956686Y-83018969D02*
X67652687Y-83018969D01*
X100372969Y-85418969D02*
X89356687Y-85418969D01*
%TO.N,FLIP*%
X86770489Y-83468489D02*
X67466489Y-83468489D01*
X64516000Y-76714371D02*
X64978873Y-76251498D01*
X89170489Y-85868489D02*
X86770489Y-83468489D01*
X67466489Y-83468489D02*
X64516000Y-80518000D01*
X64516000Y-80518000D02*
X64516000Y-76714371D01*
X99822000Y-86868000D02*
X98822489Y-85868489D01*
X98822489Y-85868489D02*
X89170489Y-85868489D01*
%TO.N,HPI_SDA*%
X66853314Y-88317031D02*
X62542480Y-84006197D01*
X96372969Y-88317031D02*
X66853314Y-88317031D01*
X62542480Y-77953853D02*
X63280333Y-77216000D01*
X63280333Y-77216000D02*
X63754000Y-77216000D01*
X97822000Y-86868000D02*
X96372969Y-88317031D01*
X62542480Y-84006197D02*
X62542480Y-77953853D01*
%TO.N,HPI_SCL*%
X95822000Y-86868000D02*
X94822489Y-87867511D01*
X62992000Y-78246105D02*
X63485894Y-77752211D01*
X67039511Y-87867511D02*
X62992000Y-83820000D01*
X62992000Y-83820000D02*
X62992000Y-78246105D01*
X94822489Y-87867511D02*
X67039511Y-87867511D01*
%TD*%
%TA.AperFunction,Conductor*%
%TO.N,GND*%
G36*
X66563931Y-73172002D02*
G01*
X66584905Y-73188905D01*
X68326000Y-74930000D01*
X76401810Y-74930000D01*
X76469931Y-74950002D01*
X76490905Y-74966905D01*
X77179095Y-75655095D01*
X77213121Y-75717407D01*
X77216000Y-75744190D01*
X77216000Y-81790500D01*
X77195998Y-81858621D01*
X77142342Y-81905114D01*
X77090000Y-81916500D01*
X68894595Y-81916500D01*
X68826474Y-81896498D01*
X68805500Y-81879595D01*
X66964405Y-80038500D01*
X66930379Y-79976188D01*
X66927500Y-79949405D01*
X66927500Y-77784594D01*
X66947502Y-77716473D01*
X66964405Y-77695499D01*
X67252225Y-77407679D01*
X67295965Y-77379921D01*
X67297759Y-77379510D01*
X67450958Y-77302459D01*
X67456729Y-77297530D01*
X67456732Y-77297528D01*
X67575578Y-77196023D01*
X67581355Y-77191089D01*
X67681424Y-77051830D01*
X67745385Y-76892720D01*
X67766285Y-76745868D01*
X67768966Y-76727031D01*
X67768966Y-76727027D01*
X67769547Y-76722947D01*
X67769704Y-76708000D01*
X67759995Y-76627770D01*
X67750015Y-76545299D01*
X67750014Y-76545296D01*
X67749102Y-76537758D01*
X67741570Y-76517823D01*
X67691171Y-76384447D01*
X67688487Y-76377344D01*
X67662168Y-76339050D01*
X67595659Y-76242278D01*
X67595658Y-76242276D01*
X67591357Y-76236019D01*
X67571928Y-76218708D01*
X67468993Y-76126996D01*
X67468990Y-76126994D01*
X67463321Y-76121943D01*
X67311769Y-76041700D01*
X67304406Y-76039851D01*
X67304402Y-76039849D01*
X67221453Y-76019014D01*
X67160257Y-75983019D01*
X67148308Y-75968178D01*
X67115944Y-75921089D01*
X67098154Y-75895204D01*
X66994889Y-75803198D01*
X66975790Y-75786181D01*
X66975787Y-75786179D01*
X66970118Y-75781128D01*
X66962122Y-75776894D01*
X66847024Y-75715953D01*
X66818566Y-75700885D01*
X66800993Y-75696471D01*
X66659619Y-75660960D01*
X66659615Y-75660960D01*
X66652248Y-75659109D01*
X66644649Y-75659069D01*
X66644647Y-75659069D01*
X66573191Y-75658695D01*
X66480766Y-75658211D01*
X66473386Y-75659983D01*
X66473384Y-75659983D01*
X66321399Y-75696471D01*
X66321395Y-75696472D01*
X66314020Y-75698243D01*
X66161636Y-75776894D01*
X66032412Y-75889624D01*
X65933807Y-76029924D01*
X65931048Y-76037000D01*
X65931045Y-76037006D01*
X65909584Y-76092053D01*
X65866204Y-76148255D01*
X65799325Y-76172082D01*
X65730181Y-76155969D01*
X65680725Y-76105032D01*
X65672106Y-76082339D01*
X65671975Y-76081256D01*
X65611360Y-75920842D01*
X65594175Y-75895838D01*
X65518532Y-75785776D01*
X65518531Y-75785774D01*
X65514230Y-75779517D01*
X65508559Y-75774464D01*
X65391866Y-75670494D01*
X65391863Y-75670492D01*
X65386194Y-75665441D01*
X65378198Y-75661207D01*
X65241354Y-75588752D01*
X65241355Y-75588752D01*
X65234642Y-75585198D01*
X65217069Y-75580784D01*
X65075695Y-75545273D01*
X65075691Y-75545273D01*
X65068324Y-75543422D01*
X65060725Y-75543382D01*
X65060723Y-75543382D01*
X64989267Y-75543008D01*
X64896842Y-75542524D01*
X64889462Y-75544296D01*
X64889460Y-75544296D01*
X64737475Y-75580784D01*
X64737471Y-75580785D01*
X64730096Y-75582556D01*
X64577712Y-75661207D01*
X64448488Y-75773937D01*
X64349883Y-75914237D01*
X64328852Y-75968178D01*
X64314532Y-76004907D01*
X64286234Y-76048232D01*
X64123747Y-76210719D01*
X64115461Y-76218259D01*
X64108982Y-76222371D01*
X64103557Y-76228148D01*
X64062357Y-76272022D01*
X64059602Y-76274864D01*
X64039865Y-76294601D01*
X64037385Y-76297798D01*
X64029682Y-76306818D01*
X63999414Y-76339050D01*
X63995595Y-76345996D01*
X63995593Y-76345999D01*
X63989652Y-76356805D01*
X63978801Y-76373324D01*
X63966386Y-76389330D01*
X63963241Y-76396599D01*
X63963238Y-76396603D01*
X63948826Y-76429908D01*
X63943598Y-76440579D01*
X63942501Y-76442574D01*
X63892151Y-76492628D01*
X63831432Y-76507861D01*
X63800242Y-76507698D01*
X63671969Y-76507026D01*
X63664589Y-76508798D01*
X63664587Y-76508798D01*
X63512602Y-76545286D01*
X63512598Y-76545287D01*
X63505223Y-76547058D01*
X63468276Y-76566128D01*
X63463746Y-76568466D01*
X63405956Y-76582500D01*
X63359101Y-76582500D01*
X63347918Y-76581973D01*
X63340425Y-76580298D01*
X63332499Y-76580547D01*
X63332498Y-76580547D01*
X63272335Y-76582438D01*
X63268377Y-76582500D01*
X63240477Y-76582500D01*
X63236487Y-76583004D01*
X63224653Y-76583936D01*
X63180444Y-76585326D01*
X63172830Y-76587538D01*
X63172825Y-76587539D01*
X63160992Y-76590977D01*
X63141629Y-76594988D01*
X63121536Y-76597526D01*
X63114169Y-76600443D01*
X63114164Y-76600444D01*
X63080425Y-76613802D01*
X63069198Y-76617646D01*
X63026740Y-76629982D01*
X63019914Y-76634019D01*
X63009305Y-76640293D01*
X62991557Y-76648988D01*
X62972716Y-76656448D01*
X62966300Y-76661110D01*
X62966299Y-76661110D01*
X62936946Y-76682436D01*
X62927026Y-76688952D01*
X62895798Y-76707420D01*
X62895795Y-76707422D01*
X62888971Y-76711458D01*
X62874650Y-76725779D01*
X62859617Y-76738619D01*
X62843226Y-76750528D01*
X62816849Y-76782413D01*
X62815045Y-76784593D01*
X62807055Y-76793374D01*
X62246886Y-77353542D01*
X62184574Y-77387567D01*
X62113758Y-77382502D01*
X62098832Y-77375800D01*
X61984481Y-77315254D01*
X61984482Y-77315254D01*
X61977769Y-77311700D01*
X61921348Y-77297528D01*
X61818822Y-77271775D01*
X61818818Y-77271775D01*
X61811451Y-77269924D01*
X61803852Y-77269884D01*
X61803850Y-77269884D01*
X61732394Y-77269510D01*
X61639969Y-77269026D01*
X61632589Y-77270798D01*
X61632587Y-77270798D01*
X61480602Y-77307286D01*
X61480598Y-77307287D01*
X61473223Y-77309058D01*
X61320839Y-77387709D01*
X61191615Y-77500439D01*
X61093010Y-77640739D01*
X61090250Y-77647819D01*
X61037987Y-77781866D01*
X61030718Y-77800509D01*
X61029726Y-77808042D01*
X61029726Y-77808043D01*
X61012172Y-77941384D01*
X61008335Y-77970526D01*
X61027153Y-78140975D01*
X61086085Y-78302015D01*
X61181730Y-78444349D01*
X61308565Y-78559760D01*
X61459268Y-78641585D01*
X61625139Y-78685101D01*
X61784959Y-78687611D01*
X61852757Y-78708680D01*
X61898401Y-78763059D01*
X61908980Y-78813595D01*
X61908980Y-80138000D01*
X61888978Y-80206121D01*
X61835322Y-80252614D01*
X61782980Y-80264000D01*
X58991375Y-80264000D01*
X58923254Y-80243998D01*
X58876761Y-80190342D01*
X58866288Y-80153138D01*
X58860015Y-80101299D01*
X58860014Y-80101296D01*
X58859102Y-80093758D01*
X58798487Y-79933344D01*
X58701357Y-79792019D01*
X58695686Y-79786966D01*
X58578993Y-79682996D01*
X58578990Y-79682994D01*
X58573321Y-79677943D01*
X58565325Y-79673709D01*
X58428481Y-79601254D01*
X58428482Y-79601254D01*
X58421769Y-79597700D01*
X58404196Y-79593286D01*
X58262822Y-79557775D01*
X58262818Y-79557775D01*
X58255451Y-79555924D01*
X58247852Y-79555884D01*
X58247850Y-79555884D01*
X58176394Y-79555510D01*
X58083969Y-79555026D01*
X58076589Y-79556798D01*
X58076587Y-79556798D01*
X57924602Y-79593286D01*
X57924598Y-79593287D01*
X57917223Y-79595058D01*
X57764839Y-79673709D01*
X57635615Y-79786439D01*
X57537010Y-79926739D01*
X57474718Y-80086509D01*
X57473726Y-80094042D01*
X57473726Y-80094043D01*
X57471446Y-80111366D01*
X57452335Y-80256526D01*
X57471153Y-80426975D01*
X57473762Y-80434106D01*
X57473763Y-80434108D01*
X57479979Y-80451093D01*
X57530085Y-80588015D01*
X57534322Y-80594321D01*
X57534324Y-80594324D01*
X57621081Y-80723431D01*
X57625730Y-80730349D01*
X57628145Y-80732547D01*
X57656751Y-80795502D01*
X57658000Y-80813196D01*
X57658000Y-82042000D01*
X57659585Y-82043585D01*
X57659585Y-82100277D01*
X57621202Y-82160004D01*
X57556622Y-82189497D01*
X57486348Y-82179394D01*
X57477988Y-82175194D01*
X57399415Y-82131998D01*
X57388142Y-82127166D01*
X57211462Y-82071120D01*
X57199468Y-82068570D01*
X57055239Y-82052393D01*
X57048215Y-82052000D01*
X56860023Y-82052000D01*
X56791902Y-82031998D01*
X56745409Y-81978342D01*
X56735305Y-81908068D01*
X56743034Y-81879208D01*
X56749995Y-81861803D01*
X56752530Y-81855466D01*
X56753644Y-81848738D01*
X56753645Y-81848734D01*
X56780993Y-81683539D01*
X56780993Y-81683536D01*
X56782108Y-81676802D01*
X56777203Y-81583198D01*
X56772987Y-81502766D01*
X56772630Y-81495953D01*
X56749304Y-81411266D01*
X56726352Y-81327941D01*
X56724539Y-81321359D01*
X56640078Y-81161164D01*
X56635673Y-81155951D01*
X56635670Y-81155947D01*
X56527594Y-81028057D01*
X56527590Y-81028053D01*
X56523187Y-81022843D01*
X56476407Y-80987077D01*
X56384743Y-80916994D01*
X56384739Y-80916991D01*
X56379322Y-80912850D01*
X56235447Y-80845760D01*
X56221369Y-80839195D01*
X56221366Y-80839194D01*
X56215192Y-80836315D01*
X56208544Y-80834829D01*
X56208541Y-80834828D01*
X56043494Y-80797936D01*
X56043495Y-80797936D01*
X56038457Y-80796810D01*
X56032912Y-80796500D01*
X55899756Y-80796500D01*
X55764963Y-80811143D01*
X55646810Y-80850906D01*
X55599796Y-80866728D01*
X55599794Y-80866729D01*
X55593325Y-80868906D01*
X55438095Y-80962177D01*
X55433138Y-80966865D01*
X55433135Y-80966867D01*
X55428658Y-80971101D01*
X55306515Y-81086607D01*
X55302683Y-81092245D01*
X55302680Y-81092249D01*
X55251740Y-81167205D01*
X55204723Y-81236388D01*
X55137470Y-81404534D01*
X55136356Y-81411262D01*
X55136355Y-81411266D01*
X55109007Y-81576461D01*
X55107892Y-81583198D01*
X55108249Y-81590015D01*
X55108249Y-81590019D01*
X55113151Y-81683539D01*
X55117370Y-81764047D01*
X55119181Y-81770620D01*
X55119181Y-81770623D01*
X55142551Y-81855466D01*
X55165461Y-81938641D01*
X55249922Y-82098836D01*
X55254329Y-82104051D01*
X55254331Y-82104054D01*
X55260451Y-82111295D01*
X55289145Y-82176235D01*
X55278175Y-82246378D01*
X55243852Y-82290269D01*
X55186067Y-82337397D01*
X55177363Y-82346041D01*
X55059216Y-82488856D01*
X55052356Y-82499027D01*
X54964196Y-82662076D01*
X54959444Y-82673381D01*
X54923750Y-82788692D01*
X54923544Y-82802795D01*
X54930299Y-82806000D01*
X57952924Y-82806000D01*
X57966455Y-82802027D01*
X57967575Y-82794232D01*
X57935862Y-82686479D01*
X57931269Y-82675111D01*
X57918545Y-82650772D01*
X57904711Y-82581137D01*
X57930721Y-82515076D01*
X57988317Y-82473564D01*
X58059213Y-82469781D01*
X58119302Y-82503302D01*
X58166000Y-82550000D01*
X61782980Y-82550000D01*
X61851101Y-82570002D01*
X61897594Y-82623658D01*
X61908980Y-82676000D01*
X61908980Y-83159000D01*
X61888978Y-83227121D01*
X61835322Y-83273614D01*
X61782980Y-83285000D01*
X60470115Y-83285000D01*
X60454876Y-83289475D01*
X60453671Y-83290865D01*
X60452000Y-83298548D01*
X60452000Y-85320885D01*
X60456475Y-85336124D01*
X60457865Y-85337329D01*
X60465548Y-85339000D01*
X62437324Y-85339000D01*
X62496324Y-85356324D01*
X63966585Y-86826585D01*
X64000611Y-86888897D01*
X64002939Y-86911679D01*
X64002599Y-86914263D01*
X64021417Y-87084712D01*
X64080349Y-87245752D01*
X64175994Y-87388086D01*
X64181610Y-87393196D01*
X64293877Y-87495351D01*
X64302829Y-87503497D01*
X64453532Y-87585322D01*
X64619403Y-87628838D01*
X64720194Y-87630421D01*
X64787992Y-87651490D01*
X64807310Y-87667310D01*
X64987095Y-87847095D01*
X65021121Y-87909407D01*
X65024000Y-87936190D01*
X65024000Y-88339810D01*
X65003998Y-88407931D01*
X64987095Y-88428905D01*
X64806905Y-88609095D01*
X64744593Y-88643121D01*
X64717810Y-88646000D01*
X55932190Y-88646000D01*
X55864069Y-88625998D01*
X55843095Y-88609095D01*
X54671669Y-87437669D01*
X57890001Y-87437669D01*
X57890371Y-87444490D01*
X57895895Y-87495352D01*
X57899521Y-87510604D01*
X57944676Y-87631054D01*
X57953214Y-87646649D01*
X58029715Y-87748724D01*
X58042276Y-87761285D01*
X58144351Y-87837786D01*
X58159946Y-87846324D01*
X58280394Y-87891478D01*
X58295649Y-87895105D01*
X58346514Y-87900631D01*
X58353328Y-87901000D01*
X59925885Y-87901000D01*
X59941124Y-87896525D01*
X59942329Y-87895135D01*
X59944000Y-87887452D01*
X59944000Y-87882884D01*
X60452000Y-87882884D01*
X60456475Y-87898123D01*
X60457865Y-87899328D01*
X60465548Y-87900999D01*
X62042669Y-87900999D01*
X62049490Y-87900629D01*
X62100352Y-87895105D01*
X62115604Y-87891479D01*
X62236054Y-87846324D01*
X62251649Y-87837786D01*
X62353724Y-87761285D01*
X62366285Y-87748724D01*
X62442786Y-87646649D01*
X62451324Y-87631054D01*
X62496478Y-87510606D01*
X62500105Y-87495351D01*
X62505631Y-87444486D01*
X62506000Y-87437672D01*
X62505999Y-85865115D01*
X62501524Y-85849876D01*
X62500134Y-85848671D01*
X62492451Y-85847000D01*
X60470115Y-85847000D01*
X60454876Y-85851475D01*
X60453671Y-85852865D01*
X60452000Y-85860548D01*
X60452000Y-87882884D01*
X59944000Y-87882884D01*
X59944000Y-85865115D01*
X59939525Y-85849876D01*
X59938135Y-85848671D01*
X59930452Y-85847000D01*
X57908116Y-85847000D01*
X57892877Y-85851475D01*
X57891672Y-85852865D01*
X57890001Y-85860548D01*
X57890001Y-87437669D01*
X54671669Y-87437669D01*
X51430699Y-84196699D01*
X51396673Y-84134387D01*
X51401738Y-84063572D01*
X51444285Y-84006736D01*
X51510805Y-83981925D01*
X51565912Y-83991202D01*
X51565985Y-83990971D01*
X51567619Y-83991489D01*
X51569435Y-83991795D01*
X51571862Y-83992835D01*
X51748538Y-84048880D01*
X51760532Y-84051430D01*
X51904761Y-84067607D01*
X51911785Y-84068000D01*
X51992885Y-84068000D01*
X52008124Y-84063525D01*
X52009329Y-84062135D01*
X52011000Y-84054452D01*
X52011000Y-84049885D01*
X52519000Y-84049885D01*
X52523475Y-84065124D01*
X52524865Y-84066329D01*
X52532548Y-84068000D01*
X52611657Y-84068000D01*
X52617805Y-84067699D01*
X52755603Y-84054188D01*
X52767638Y-84051805D01*
X52945076Y-83998233D01*
X52956416Y-83993559D01*
X53120077Y-83906540D01*
X53130294Y-83899751D01*
X53273933Y-83782603D01*
X53282637Y-83773959D01*
X53400784Y-83631144D01*
X53407644Y-83620973D01*
X53495804Y-83457924D01*
X53500556Y-83446619D01*
X53536250Y-83331308D01*
X53536331Y-83325768D01*
X54922425Y-83325768D01*
X54954138Y-83433521D01*
X54958731Y-83444889D01*
X55044607Y-83609154D01*
X55051321Y-83619415D01*
X55167468Y-83763873D01*
X55176046Y-83772632D01*
X55318039Y-83891778D01*
X55328159Y-83898708D01*
X55490585Y-83988002D01*
X55501858Y-83992834D01*
X55678538Y-84048880D01*
X55690532Y-84051430D01*
X55834761Y-84067607D01*
X55841785Y-84068000D01*
X56172885Y-84068000D01*
X56188124Y-84063525D01*
X56189329Y-84062135D01*
X56191000Y-84054452D01*
X56191000Y-84049885D01*
X56699000Y-84049885D01*
X56703475Y-84065124D01*
X56704865Y-84066329D01*
X56712548Y-84068000D01*
X57041657Y-84068000D01*
X57047805Y-84067699D01*
X57185603Y-84054188D01*
X57197638Y-84051805D01*
X57375076Y-83998233D01*
X57386416Y-83993559D01*
X57550077Y-83906540D01*
X57560294Y-83899751D01*
X57684364Y-83798563D01*
X57749796Y-83771009D01*
X57819737Y-83783205D01*
X57871983Y-83831277D01*
X57890000Y-83896206D01*
X57890000Y-85320885D01*
X57894475Y-85336124D01*
X57895865Y-85337329D01*
X57903548Y-85339000D01*
X59925885Y-85339000D01*
X59941124Y-85334525D01*
X59942329Y-85333135D01*
X59944000Y-85325452D01*
X59944000Y-83303116D01*
X59939525Y-83287877D01*
X59938135Y-83286672D01*
X59930452Y-83285001D01*
X58353331Y-83285001D01*
X58346510Y-83285371D01*
X58295648Y-83290895D01*
X58280396Y-83294521D01*
X58159946Y-83339676D01*
X58136483Y-83352522D01*
X58135423Y-83350587D01*
X58080406Y-83371139D01*
X58011024Y-83356084D01*
X57973278Y-83320442D01*
X57959701Y-83314000D01*
X56717115Y-83314000D01*
X56701876Y-83318475D01*
X56700671Y-83319865D01*
X56699000Y-83327548D01*
X56699000Y-84049885D01*
X56191000Y-84049885D01*
X56191000Y-83332115D01*
X56186525Y-83316876D01*
X56185135Y-83315671D01*
X56177452Y-83314000D01*
X54937076Y-83314000D01*
X54923545Y-83317973D01*
X54922425Y-83325768D01*
X53536331Y-83325768D01*
X53536456Y-83317205D01*
X53529701Y-83314000D01*
X52537115Y-83314000D01*
X52521876Y-83318475D01*
X52520671Y-83319865D01*
X52519000Y-83327548D01*
X52519000Y-84049885D01*
X52011000Y-84049885D01*
X52011000Y-82787885D01*
X52519000Y-82787885D01*
X52523475Y-82803124D01*
X52524865Y-82804329D01*
X52532548Y-82806000D01*
X53522924Y-82806000D01*
X53536455Y-82802027D01*
X53537575Y-82794232D01*
X53505862Y-82686479D01*
X53501269Y-82675111D01*
X53415393Y-82510846D01*
X53408679Y-82500585D01*
X53292532Y-82356127D01*
X53283954Y-82347368D01*
X53141961Y-82228222D01*
X53131841Y-82221292D01*
X52969415Y-82131998D01*
X52958142Y-82127166D01*
X52781462Y-82071120D01*
X52769468Y-82068570D01*
X52625239Y-82052393D01*
X52618215Y-82052000D01*
X52537115Y-82052000D01*
X52521876Y-82056475D01*
X52520671Y-82057865D01*
X52519000Y-82065548D01*
X52519000Y-82787885D01*
X52011000Y-82787885D01*
X52011000Y-82070115D01*
X52006525Y-82054876D01*
X52005135Y-82053671D01*
X51997452Y-82052000D01*
X51918343Y-82052000D01*
X51912195Y-82052301D01*
X51774397Y-82065812D01*
X51762362Y-82068195D01*
X51584924Y-82121767D01*
X51573584Y-82126441D01*
X51409923Y-82213460D01*
X51399706Y-82220249D01*
X51256067Y-82337397D01*
X51247363Y-82346041D01*
X51129216Y-82488856D01*
X51122356Y-82499027D01*
X51036836Y-82657193D01*
X50986841Y-82707601D01*
X50917530Y-82722979D01*
X50850908Y-82698443D01*
X50808127Y-82641783D01*
X50800000Y-82597264D01*
X50800000Y-77265812D01*
X54797322Y-77265812D01*
X54802184Y-77309850D01*
X54811331Y-77392698D01*
X54816140Y-77436261D01*
X54875072Y-77597301D01*
X54970717Y-77739635D01*
X54976333Y-77744745D01*
X55081338Y-77840292D01*
X55097552Y-77855046D01*
X55248255Y-77936871D01*
X55414126Y-77980387D01*
X55501573Y-77981760D01*
X55577990Y-77982961D01*
X55577993Y-77982961D01*
X55585589Y-77983080D01*
X55592993Y-77981384D01*
X55592995Y-77981384D01*
X55673285Y-77962995D01*
X55752746Y-77944796D01*
X55801609Y-77920221D01*
X55858222Y-77906786D01*
X59045947Y-77906786D01*
X59057130Y-77907313D01*
X59064623Y-77908988D01*
X59072549Y-77908739D01*
X59072550Y-77908739D01*
X59132700Y-77906848D01*
X59136659Y-77906786D01*
X59164570Y-77906786D01*
X59168505Y-77906289D01*
X59168570Y-77906281D01*
X59180407Y-77905348D01*
X59212665Y-77904334D01*
X59216684Y-77904208D01*
X59224603Y-77903959D01*
X59244057Y-77898307D01*
X59263414Y-77894299D01*
X59275644Y-77892754D01*
X59275645Y-77892754D01*
X59283511Y-77891760D01*
X59290882Y-77888841D01*
X59290884Y-77888841D01*
X59324626Y-77875482D01*
X59335856Y-77871637D01*
X59370697Y-77861515D01*
X59370698Y-77861515D01*
X59378307Y-77859304D01*
X59385126Y-77855271D01*
X59385131Y-77855269D01*
X59395742Y-77848993D01*
X59413490Y-77840298D01*
X59432331Y-77832838D01*
X59468101Y-77806850D01*
X59478021Y-77800334D01*
X59509249Y-77781866D01*
X59509252Y-77781864D01*
X59516076Y-77777828D01*
X59530397Y-77763507D01*
X59545431Y-77750666D01*
X59561821Y-77738758D01*
X59590012Y-77704681D01*
X59598002Y-77695902D01*
X61156224Y-76137680D01*
X61199963Y-76109921D01*
X61201759Y-76109510D01*
X61354958Y-76032459D01*
X61360729Y-76027530D01*
X61360732Y-76027528D01*
X61479578Y-75926023D01*
X61485355Y-75921089D01*
X61570069Y-75803198D01*
X61580992Y-75787998D01*
X61580993Y-75787997D01*
X61585424Y-75781830D01*
X61649385Y-75622720D01*
X61660793Y-75542564D01*
X61672966Y-75457031D01*
X61672966Y-75457027D01*
X61673547Y-75452947D01*
X61673704Y-75438000D01*
X61662813Y-75348002D01*
X61654015Y-75275299D01*
X61654014Y-75275296D01*
X61653102Y-75267758D01*
X61650077Y-75259751D01*
X61595171Y-75114447D01*
X61592487Y-75107344D01*
X61557416Y-75056315D01*
X61499659Y-74972278D01*
X61499658Y-74972276D01*
X61495357Y-74966019D01*
X61489686Y-74960966D01*
X61372993Y-74856996D01*
X61372990Y-74856994D01*
X61367321Y-74851943D01*
X61359325Y-74847709D01*
X61278452Y-74804889D01*
X61215769Y-74771700D01*
X61198196Y-74767286D01*
X61056822Y-74731775D01*
X61056818Y-74731775D01*
X61049451Y-74729924D01*
X61041852Y-74729884D01*
X61041850Y-74729884D01*
X60970394Y-74729510D01*
X60877969Y-74729026D01*
X60870589Y-74730798D01*
X60870587Y-74730798D01*
X60718602Y-74767286D01*
X60718598Y-74767287D01*
X60711223Y-74769058D01*
X60558839Y-74847709D01*
X60429615Y-74960439D01*
X60331010Y-75100739D01*
X60318058Y-75133959D01*
X60295659Y-75191409D01*
X60267361Y-75234734D01*
X58899214Y-76602881D01*
X58836902Y-76636907D01*
X58810119Y-76639786D01*
X56639556Y-76639786D01*
X56571435Y-76619784D01*
X56524942Y-76566128D01*
X56514838Y-76495854D01*
X56544332Y-76431274D01*
X56552982Y-76422239D01*
X56565628Y-76410279D01*
X56583485Y-76393393D01*
X56587317Y-76387755D01*
X56587320Y-76387751D01*
X56681442Y-76249255D01*
X56685277Y-76243612D01*
X56752530Y-76075466D01*
X56753644Y-76068738D01*
X56753645Y-76068734D01*
X56780993Y-75903539D01*
X56780993Y-75903536D01*
X56782108Y-75896802D01*
X56781471Y-75884632D01*
X56772987Y-75722766D01*
X56772630Y-75715953D01*
X56757483Y-75660960D01*
X56746949Y-75622720D01*
X56737237Y-75587459D01*
X56738431Y-75516474D01*
X56777814Y-75457401D01*
X56842881Y-75428999D01*
X56858713Y-75428000D01*
X57041657Y-75428000D01*
X57047805Y-75427699D01*
X57185603Y-75414188D01*
X57197638Y-75411805D01*
X57375076Y-75358233D01*
X57386416Y-75353559D01*
X57550077Y-75266540D01*
X57560294Y-75259751D01*
X57703933Y-75142603D01*
X57712637Y-75133959D01*
X57830784Y-74991144D01*
X57837644Y-74980973D01*
X57925804Y-74817924D01*
X57930556Y-74806619D01*
X57966250Y-74691308D01*
X57966456Y-74677205D01*
X57959701Y-74674000D01*
X54937076Y-74674000D01*
X54923545Y-74677973D01*
X54922425Y-74685768D01*
X54954138Y-74793521D01*
X54958731Y-74804889D01*
X55044607Y-74969154D01*
X55051321Y-74979415D01*
X55167468Y-75123873D01*
X55176046Y-75132632D01*
X55247215Y-75192350D01*
X55286542Y-75251459D01*
X55287668Y-75322447D01*
X55270436Y-75359695D01*
X55227057Y-75423525D01*
X55204723Y-75456388D01*
X55137470Y-75624534D01*
X55136356Y-75631262D01*
X55136355Y-75631266D01*
X55110776Y-75785776D01*
X55107892Y-75803198D01*
X55108249Y-75810015D01*
X55108249Y-75810019D01*
X55114070Y-75921089D01*
X55117370Y-75984047D01*
X55119181Y-75990620D01*
X55119181Y-75990623D01*
X55159687Y-76137680D01*
X55165461Y-76158641D01*
X55249922Y-76318836D01*
X55254327Y-76324049D01*
X55254330Y-76324053D01*
X55321347Y-76403356D01*
X55350039Y-76468297D01*
X55339066Y-76538441D01*
X55291913Y-76591517D01*
X55269325Y-76602636D01*
X55262210Y-76604344D01*
X55255464Y-76607826D01*
X55255461Y-76607827D01*
X55180046Y-76646752D01*
X55109826Y-76682995D01*
X54980602Y-76795725D01*
X54881997Y-76936025D01*
X54879237Y-76943105D01*
X54834442Y-77057998D01*
X54819705Y-77095795D01*
X54818713Y-77103328D01*
X54818713Y-77103329D01*
X54806510Y-77196023D01*
X54797322Y-77265812D01*
X50800000Y-77265812D01*
X50800000Y-74880348D01*
X50820002Y-74812227D01*
X50873658Y-74765734D01*
X50943932Y-74755630D01*
X51008512Y-74785124D01*
X51037662Y-74821973D01*
X51114606Y-74969154D01*
X51121321Y-74979415D01*
X51237468Y-75123873D01*
X51246046Y-75132632D01*
X51388039Y-75251778D01*
X51398159Y-75258708D01*
X51560585Y-75348002D01*
X51571858Y-75352834D01*
X51748538Y-75408880D01*
X51760532Y-75411430D01*
X51904761Y-75427607D01*
X51911785Y-75428000D01*
X51992885Y-75428000D01*
X52008124Y-75423525D01*
X52009329Y-75422135D01*
X52011000Y-75414452D01*
X52011000Y-75409885D01*
X52519000Y-75409885D01*
X52523475Y-75425124D01*
X52524865Y-75426329D01*
X52532548Y-75428000D01*
X52611657Y-75428000D01*
X52617805Y-75427699D01*
X52755603Y-75414188D01*
X52767638Y-75411805D01*
X52945076Y-75358233D01*
X52956416Y-75353559D01*
X53120077Y-75266540D01*
X53130294Y-75259751D01*
X53273933Y-75142603D01*
X53282637Y-75133959D01*
X53400784Y-74991144D01*
X53407644Y-74980973D01*
X53495804Y-74817924D01*
X53500556Y-74806619D01*
X53536250Y-74691308D01*
X53536456Y-74677205D01*
X53529701Y-74674000D01*
X52537115Y-74674000D01*
X52521876Y-74678475D01*
X52520671Y-74679865D01*
X52519000Y-74687548D01*
X52519000Y-75409885D01*
X52011000Y-75409885D01*
X52011000Y-74147885D01*
X52519000Y-74147885D01*
X52523475Y-74163124D01*
X52524865Y-74164329D01*
X52532548Y-74166000D01*
X53522924Y-74166000D01*
X53533839Y-74162795D01*
X54923544Y-74162795D01*
X54930299Y-74166000D01*
X56172885Y-74166000D01*
X56188124Y-74161525D01*
X56189329Y-74160135D01*
X56191000Y-74152452D01*
X56191000Y-74147885D01*
X56699000Y-74147885D01*
X56703475Y-74163124D01*
X56704865Y-74164329D01*
X56712548Y-74166000D01*
X57952924Y-74166000D01*
X57966455Y-74162027D01*
X57967575Y-74154232D01*
X57935862Y-74046479D01*
X57931269Y-74035111D01*
X57845393Y-73870846D01*
X57838679Y-73860585D01*
X57722532Y-73716127D01*
X57713954Y-73707368D01*
X57571961Y-73588222D01*
X57561841Y-73581292D01*
X57399415Y-73491998D01*
X57388142Y-73487166D01*
X57211462Y-73431120D01*
X57199468Y-73428570D01*
X57055239Y-73412393D01*
X57048215Y-73412000D01*
X56717115Y-73412000D01*
X56701876Y-73416475D01*
X56700671Y-73417865D01*
X56699000Y-73425548D01*
X56699000Y-74147885D01*
X56191000Y-74147885D01*
X56191000Y-73430115D01*
X56186525Y-73414876D01*
X56185135Y-73413671D01*
X56177452Y-73412000D01*
X55848343Y-73412000D01*
X55842195Y-73412301D01*
X55704397Y-73425812D01*
X55692362Y-73428195D01*
X55514924Y-73481767D01*
X55503584Y-73486441D01*
X55339923Y-73573460D01*
X55329706Y-73580249D01*
X55186067Y-73697397D01*
X55177363Y-73706041D01*
X55059216Y-73848856D01*
X55052356Y-73859027D01*
X54964196Y-74022076D01*
X54959444Y-74033381D01*
X54923750Y-74148692D01*
X54923544Y-74162795D01*
X53533839Y-74162795D01*
X53536455Y-74162027D01*
X53537575Y-74154232D01*
X53505862Y-74046479D01*
X53501269Y-74035111D01*
X53415393Y-73870846D01*
X53408679Y-73860585D01*
X53292532Y-73716127D01*
X53283954Y-73707368D01*
X53141961Y-73588222D01*
X53131841Y-73581292D01*
X52969415Y-73491998D01*
X52958142Y-73487166D01*
X52781462Y-73431120D01*
X52769468Y-73428570D01*
X52625239Y-73412393D01*
X52618215Y-73412000D01*
X52537115Y-73412000D01*
X52521876Y-73416475D01*
X52520671Y-73417865D01*
X52519000Y-73425548D01*
X52519000Y-74147885D01*
X52011000Y-74147885D01*
X52011000Y-73430115D01*
X52006525Y-73414876D01*
X52005135Y-73413671D01*
X51997452Y-73412000D01*
X51918343Y-73412000D01*
X51912195Y-73412301D01*
X51774397Y-73425812D01*
X51762362Y-73428195D01*
X51584924Y-73481767D01*
X51573584Y-73486441D01*
X51409923Y-73573460D01*
X51399706Y-73580249D01*
X51256067Y-73697397D01*
X51247363Y-73706041D01*
X51129216Y-73848856D01*
X51122356Y-73859027D01*
X51036836Y-74017193D01*
X50986841Y-74067601D01*
X50917530Y-74082979D01*
X50850908Y-74058443D01*
X50808127Y-74001783D01*
X50800000Y-73957264D01*
X50800000Y-73712190D01*
X50820002Y-73644069D01*
X50836905Y-73623095D01*
X51271095Y-73188905D01*
X51333407Y-73154879D01*
X51360190Y-73152000D01*
X66495810Y-73152000D01*
X66563931Y-73172002D01*
G37*
%TD.AperFunction*%
%TD*%
%TA.AperFunction,Conductor*%
%TO.N,VBUS_IN*%
G36*
X63834012Y-82376466D02*
G01*
X63840595Y-82382595D01*
X66294000Y-84836000D01*
X69052758Y-84836000D01*
X69120879Y-84856002D01*
X69137557Y-84868806D01*
X69182565Y-84909760D01*
X69333268Y-84991585D01*
X69499139Y-85035101D01*
X69586586Y-85036474D01*
X69663003Y-85037675D01*
X69663006Y-85037675D01*
X69670602Y-85037794D01*
X69678006Y-85036098D01*
X69678008Y-85036098D01*
X69740846Y-85021706D01*
X69837759Y-84999510D01*
X69990958Y-84922459D01*
X70056842Y-84866189D01*
X70121631Y-84837158D01*
X70138672Y-84836000D01*
X75148758Y-84836000D01*
X75216879Y-84856002D01*
X75233557Y-84868806D01*
X75278565Y-84909760D01*
X75429268Y-84991585D01*
X75595139Y-85035101D01*
X75682586Y-85036474D01*
X75759003Y-85037675D01*
X75759006Y-85037675D01*
X75766602Y-85037794D01*
X75774006Y-85036098D01*
X75774008Y-85036098D01*
X75836846Y-85021706D01*
X75933759Y-84999510D01*
X76086958Y-84922459D01*
X76152842Y-84866189D01*
X76217631Y-84837158D01*
X76234672Y-84836000D01*
X76454000Y-84836000D01*
X77151106Y-84138894D01*
X77213418Y-84104868D01*
X77240201Y-84101989D01*
X81042725Y-84101989D01*
X81110846Y-84121991D01*
X81157339Y-84175647D01*
X81167443Y-84245921D01*
X81147490Y-84297991D01*
X81057219Y-84433091D01*
X81053098Y-84440228D01*
X80922935Y-84704174D01*
X80919785Y-84711778D01*
X80825186Y-84990457D01*
X80823055Y-84998409D01*
X80765640Y-85287056D01*
X80764566Y-85295214D01*
X80745318Y-85588881D01*
X80745318Y-85597119D01*
X80764566Y-85890786D01*
X80765640Y-85898944D01*
X80823055Y-86187591D01*
X80825186Y-86195543D01*
X80919785Y-86474222D01*
X80922935Y-86481826D01*
X81053098Y-86745772D01*
X81057219Y-86752909D01*
X81220719Y-86997605D01*
X81225737Y-87004144D01*
X81243969Y-87024934D01*
X81273846Y-87089338D01*
X81264160Y-87159671D01*
X81217987Y-87213602D01*
X81149237Y-87234011D01*
X67354105Y-87234011D01*
X67285984Y-87214009D01*
X67265010Y-87197106D01*
X63662405Y-83594500D01*
X63628379Y-83532188D01*
X63625500Y-83505405D01*
X63625500Y-82471690D01*
X63645502Y-82403569D01*
X63699158Y-82357076D01*
X63769432Y-82346972D01*
X63834012Y-82376466D01*
G37*
%TD.AperFunction*%
%TD*%
%TA.AperFunction,Conductor*%
%TO.N,GND2*%
G36*
X81601499Y-68346002D02*
G01*
X81647992Y-68399658D01*
X81658096Y-68469932D01*
X81628602Y-68534512D01*
X81616456Y-68546732D01*
X81422142Y-68717142D01*
X81419433Y-68720231D01*
X81225332Y-68941559D01*
X81225328Y-68941565D01*
X81222614Y-68944659D01*
X81054491Y-69196274D01*
X80920648Y-69467680D01*
X80823376Y-69754234D01*
X80822573Y-69758273D01*
X80822571Y-69758279D01*
X80765143Y-70046991D01*
X80764339Y-70051034D01*
X80764070Y-70055145D01*
X80764069Y-70055149D01*
X80752291Y-70234854D01*
X80744547Y-70353000D01*
X80744817Y-70357119D01*
X80755638Y-70522208D01*
X80764339Y-70654966D01*
X80765143Y-70659006D01*
X80765143Y-70659009D01*
X80822546Y-70947591D01*
X80823376Y-70951766D01*
X80920648Y-71238320D01*
X81054491Y-71509726D01*
X81222614Y-71761341D01*
X81225328Y-71764435D01*
X81225332Y-71764441D01*
X81249351Y-71791829D01*
X81422142Y-71988858D01*
X81425231Y-71991567D01*
X81646559Y-72185668D01*
X81646565Y-72185672D01*
X81649659Y-72188386D01*
X81653085Y-72190675D01*
X81653090Y-72190679D01*
X81841371Y-72316484D01*
X81901273Y-72356509D01*
X81904972Y-72358333D01*
X81904977Y-72358336D01*
X81999591Y-72404994D01*
X82172680Y-72490352D01*
X82176585Y-72491677D01*
X82176586Y-72491678D01*
X82455327Y-72586298D01*
X82455330Y-72586299D01*
X82459234Y-72587624D01*
X82463273Y-72588427D01*
X82463279Y-72588429D01*
X82751991Y-72645857D01*
X82751994Y-72645857D01*
X82756034Y-72646661D01*
X82760145Y-72646930D01*
X82760149Y-72646931D01*
X83053881Y-72666183D01*
X83058000Y-72666453D01*
X83062119Y-72666183D01*
X83355851Y-72646931D01*
X83355855Y-72646930D01*
X83359966Y-72646661D01*
X83364006Y-72645857D01*
X83364009Y-72645857D01*
X83652721Y-72588429D01*
X83652727Y-72588427D01*
X83656766Y-72587624D01*
X83660670Y-72586299D01*
X83660673Y-72586298D01*
X83939414Y-72491678D01*
X83939415Y-72491677D01*
X83943320Y-72490352D01*
X84116409Y-72404994D01*
X84211023Y-72358336D01*
X84211028Y-72358333D01*
X84214727Y-72356509D01*
X84274629Y-72316484D01*
X84462910Y-72190679D01*
X84462915Y-72190675D01*
X84466341Y-72188386D01*
X84469435Y-72185672D01*
X84469441Y-72185668D01*
X84690769Y-71991567D01*
X84693858Y-71988858D01*
X84866649Y-71791829D01*
X84890668Y-71764441D01*
X84890672Y-71764435D01*
X84893386Y-71761341D01*
X85061509Y-71509726D01*
X85195352Y-71238320D01*
X85292624Y-70951766D01*
X85293455Y-70947591D01*
X85325279Y-70787599D01*
X91958000Y-70787599D01*
X91958001Y-72468400D01*
X91968974Y-72574167D01*
X91971158Y-72580713D01*
X92022230Y-72733792D01*
X92024950Y-72741946D01*
X92118021Y-72892349D01*
X92243197Y-73017306D01*
X92393761Y-73110115D01*
X92473504Y-73136564D01*
X92555110Y-73163632D01*
X92555112Y-73163632D01*
X92561638Y-73165797D01*
X92568474Y-73166497D01*
X92568477Y-73166498D01*
X92611530Y-73170909D01*
X92666099Y-73176500D01*
X94254158Y-73176500D01*
X95866900Y-73176499D01*
X95972667Y-73165526D01*
X96131847Y-73112419D01*
X96133502Y-73111867D01*
X96133504Y-73111866D01*
X96140446Y-73109550D01*
X96290849Y-73016479D01*
X96415806Y-72891303D01*
X96508615Y-72740739D01*
X96564297Y-72572862D01*
X96575000Y-72468401D01*
X96574999Y-70787600D01*
X96564026Y-70681833D01*
X96552420Y-70647047D01*
X96510367Y-70520998D01*
X96510366Y-70520996D01*
X96508050Y-70514054D01*
X96414979Y-70363651D01*
X96289803Y-70238694D01*
X96139239Y-70145885D01*
X95978764Y-70092658D01*
X95977890Y-70092368D01*
X95977888Y-70092368D01*
X95971362Y-70090203D01*
X95964526Y-70089503D01*
X95964523Y-70089502D01*
X95921470Y-70085091D01*
X95866901Y-70079500D01*
X94278842Y-70079500D01*
X92666100Y-70079501D01*
X92560333Y-70090474D01*
X92553786Y-70092658D01*
X92553787Y-70092658D01*
X92399498Y-70144133D01*
X92399496Y-70144134D01*
X92392554Y-70146450D01*
X92242151Y-70239521D01*
X92117194Y-70364697D01*
X92024385Y-70515261D01*
X92022081Y-70522208D01*
X91979434Y-70650786D01*
X91968703Y-70683138D01*
X91958000Y-70787599D01*
X85325279Y-70787599D01*
X85350857Y-70659009D01*
X85350857Y-70659006D01*
X85351661Y-70654966D01*
X85360363Y-70522208D01*
X85371183Y-70357119D01*
X85371453Y-70353000D01*
X85363709Y-70234854D01*
X85351931Y-70055149D01*
X85351930Y-70055145D01*
X85351661Y-70051034D01*
X85350857Y-70046991D01*
X85293429Y-69758279D01*
X85293427Y-69758273D01*
X85292624Y-69754234D01*
X85195352Y-69467680D01*
X85061509Y-69196274D01*
X84893386Y-68944659D01*
X84890672Y-68941565D01*
X84890668Y-68941559D01*
X84696567Y-68720231D01*
X84693858Y-68717142D01*
X84499544Y-68546732D01*
X84461517Y-68486778D01*
X84461939Y-68415783D01*
X84500678Y-68356286D01*
X84565433Y-68327178D01*
X84582622Y-68326000D01*
X95959810Y-68326000D01*
X96027931Y-68346002D01*
X96048905Y-68362905D01*
X96991095Y-69305095D01*
X97025121Y-69367407D01*
X97028000Y-69394190D01*
X97028000Y-77417810D01*
X97007998Y-77485931D01*
X96991095Y-77506905D01*
X95794905Y-78703095D01*
X95732593Y-78737121D01*
X95705810Y-78740000D01*
X83110190Y-78740000D01*
X83042069Y-78719998D01*
X83021095Y-78703095D01*
X81297114Y-76979114D01*
X91979507Y-76979114D01*
X91982460Y-77004631D01*
X91984419Y-77014521D01*
X92049489Y-77244476D01*
X92053003Y-77253927D01*
X92154006Y-77470528D01*
X92158985Y-77479292D01*
X92293314Y-77676951D01*
X92299638Y-77684815D01*
X92463836Y-77858451D01*
X92471343Y-77865210D01*
X92661188Y-78010357D01*
X92669667Y-78015821D01*
X92880283Y-78128752D01*
X92889529Y-78132792D01*
X93115487Y-78210596D01*
X93125268Y-78213107D01*
X93361834Y-78253969D01*
X93369706Y-78254824D01*
X93394185Y-78255936D01*
X93397018Y-78256000D01*
X93994385Y-78256000D01*
X94009624Y-78251525D01*
X94010829Y-78250135D01*
X94012500Y-78242452D01*
X94012500Y-78237885D01*
X94520500Y-78237885D01*
X94524975Y-78253124D01*
X94526365Y-78254329D01*
X94534048Y-78256000D01*
X95086572Y-78256000D01*
X95091604Y-78255798D01*
X95269759Y-78241464D01*
X95279712Y-78239852D01*
X95511800Y-78182846D01*
X95521370Y-78179663D01*
X95741360Y-78086282D01*
X95750299Y-78081608D01*
X95952524Y-77954261D01*
X95960599Y-77948220D01*
X96139868Y-77790173D01*
X96146871Y-77782921D01*
X96298562Y-77598250D01*
X96304318Y-77589967D01*
X96424531Y-77383421D01*
X96428893Y-77374316D01*
X96514534Y-77151215D01*
X96517385Y-77141526D01*
X96551185Y-76979736D01*
X96550062Y-76965675D01*
X96539954Y-76962000D01*
X94538615Y-76962000D01*
X94523376Y-76966475D01*
X94522171Y-76967865D01*
X94520500Y-76975548D01*
X94520500Y-78237885D01*
X94012500Y-78237885D01*
X94012500Y-76980115D01*
X94008025Y-76964876D01*
X94006635Y-76963671D01*
X93998952Y-76962000D01*
X91995642Y-76962000D01*
X91981556Y-76966136D01*
X91979507Y-76979114D01*
X81297114Y-76979114D01*
X80754264Y-76436264D01*
X91981815Y-76436264D01*
X91982938Y-76450325D01*
X91993046Y-76454000D01*
X93994385Y-76454000D01*
X94009624Y-76449525D01*
X94010829Y-76448135D01*
X94012500Y-76440452D01*
X94012500Y-76435885D01*
X94520500Y-76435885D01*
X94524975Y-76451124D01*
X94526365Y-76452329D01*
X94534048Y-76454000D01*
X96537358Y-76454000D01*
X96551444Y-76449864D01*
X96553493Y-76436886D01*
X96550540Y-76411369D01*
X96548581Y-76401479D01*
X96483511Y-76171524D01*
X96479997Y-76162073D01*
X96378994Y-75945472D01*
X96374015Y-75936708D01*
X96239686Y-75739049D01*
X96233362Y-75731185D01*
X96069164Y-75557549D01*
X96061657Y-75550790D01*
X95871812Y-75405643D01*
X95863333Y-75400179D01*
X95652717Y-75287248D01*
X95643471Y-75283208D01*
X95417513Y-75205404D01*
X95407732Y-75202893D01*
X95171166Y-75162031D01*
X95163294Y-75161176D01*
X95138815Y-75160064D01*
X95135982Y-75160000D01*
X94538615Y-75160000D01*
X94523376Y-75164475D01*
X94522171Y-75165865D01*
X94520500Y-75173548D01*
X94520500Y-76435885D01*
X94012500Y-76435885D01*
X94012500Y-75178115D01*
X94008025Y-75162876D01*
X94006635Y-75161671D01*
X93998952Y-75160000D01*
X93446428Y-75160000D01*
X93441396Y-75160202D01*
X93263241Y-75174536D01*
X93253288Y-75176148D01*
X93021200Y-75233154D01*
X93011630Y-75236337D01*
X92791640Y-75329718D01*
X92782701Y-75334392D01*
X92580476Y-75461739D01*
X92572401Y-75467780D01*
X92393132Y-75625827D01*
X92386129Y-75633079D01*
X92234438Y-75817750D01*
X92228682Y-75826033D01*
X92108469Y-76032579D01*
X92104107Y-76041684D01*
X92018466Y-76264785D01*
X92015615Y-76274474D01*
X91981815Y-76436264D01*
X80754264Y-76436264D01*
X76962000Y-72644000D01*
X61311006Y-72644000D01*
X61242885Y-72623998D01*
X61196392Y-72570342D01*
X61186288Y-72500068D01*
X61215782Y-72435488D01*
X61255278Y-72404994D01*
X61350772Y-72357902D01*
X61357909Y-72353781D01*
X61602605Y-72190281D01*
X61609136Y-72185270D01*
X61628507Y-72168281D01*
X61636903Y-72155044D01*
X61631069Y-72145279D01*
X59927885Y-70442095D01*
X59893859Y-70379783D01*
X59895694Y-70354132D01*
X60562408Y-70354132D01*
X60562539Y-70355965D01*
X60566790Y-70362580D01*
X61988525Y-71784315D01*
X62002286Y-71791829D01*
X62011646Y-71785372D01*
X62030270Y-71764136D01*
X62035281Y-71757605D01*
X62198781Y-71512909D01*
X62202902Y-71505772D01*
X62333065Y-71241826D01*
X62336215Y-71234222D01*
X62430814Y-70955543D01*
X62432945Y-70947591D01*
X62490360Y-70658944D01*
X62491434Y-70650786D01*
X62510682Y-70357119D01*
X62510682Y-70348881D01*
X62491434Y-70055214D01*
X62490360Y-70047056D01*
X62432945Y-69758409D01*
X62430814Y-69750457D01*
X62336215Y-69471778D01*
X62333065Y-69464174D01*
X62202902Y-69200228D01*
X62198781Y-69193091D01*
X62035281Y-68948395D01*
X62030270Y-68941864D01*
X62013281Y-68922493D01*
X62000044Y-68914097D01*
X61990279Y-68919931D01*
X60570022Y-70340188D01*
X60562408Y-70354132D01*
X59895694Y-70354132D01*
X59898924Y-70308968D01*
X59927885Y-70263905D01*
X61629315Y-68562475D01*
X61636829Y-68548714D01*
X61621492Y-68526483D01*
X61624587Y-68524348D01*
X61600757Y-68486775D01*
X61601181Y-68415780D01*
X61639921Y-68356284D01*
X61704677Y-68327178D01*
X61721863Y-68326000D01*
X81533378Y-68326000D01*
X81601499Y-68346002D01*
G37*
%TD.AperFunction*%
%TD*%
M02*
