%TF.GenerationSoftware,KiCad,Pcbnew,6.0.0*%
%TF.CreationDate,2021-12-30T08:36:24-05:00*%
%TF.ProjectId,usb_pd_sink_fixed,7573625f-7064-45f7-9369-6e6b5f666978,rev?*%
%TF.SameCoordinates,Original*%
%TF.FileFunction,Soldermask,Top*%
%TF.FilePolarity,Negative*%
%FSLAX46Y46*%
G04 Gerber Fmt 4.6, Leading zero omitted, Abs format (unit mm)*
G04 Created by KiCad (PCBNEW 6.0.0) date 2021-12-30 08:36:24*
%MOMM*%
%LPD*%
G01*
G04 APERTURE LIST*
G04 Aperture macros list*
%AMRoundRect*
0 Rectangle with rounded corners*
0 $1 Rounding radius*
0 $2 $3 $4 $5 $6 $7 $8 $9 X,Y pos of 4 corners*
0 Add a 4 corners polygon primitive as box body*
4,1,4,$2,$3,$4,$5,$6,$7,$8,$9,$2,$3,0*
0 Add four circle primitives for the rounded corners*
1,1,$1+$1,$2,$3*
1,1,$1+$1,$4,$5*
1,1,$1+$1,$6,$7*
1,1,$1+$1,$8,$9*
0 Add four rect primitives between the rounded corners*
20,1,$1+$1,$2,$3,$4,$5,0*
20,1,$1+$1,$4,$5,$6,$7,0*
20,1,$1+$1,$6,$7,$8,$9,0*
20,1,$1+$1,$8,$9,$2,$3,0*%
G04 Aperture macros list end*
%ADD10C,0.650000*%
%ADD11R,1.150000X0.300000*%
%ADD12O,1.600000X1.000000*%
%ADD13O,2.100000X1.000000*%
%ADD14RoundRect,0.200000X-0.200000X-0.275000X0.200000X-0.275000X0.200000X0.275000X-0.200000X0.275000X0*%
%ADD15RoundRect,0.200000X0.200000X0.275000X-0.200000X0.275000X-0.200000X-0.275000X0.200000X-0.275000X0*%
%ADD16RoundRect,0.200000X-0.275000X0.200000X-0.275000X-0.200000X0.275000X-0.200000X0.275000X0.200000X0*%
%ADD17RoundRect,0.225000X0.225000X0.250000X-0.225000X0.250000X-0.225000X-0.250000X0.225000X-0.250000X0*%
%ADD18RoundRect,0.225000X-0.250000X0.225000X-0.250000X-0.225000X0.250000X-0.225000X0.250000X0.225000X0*%
%ADD19RoundRect,0.218750X-0.256250X0.218750X-0.256250X-0.218750X0.256250X-0.218750X0.256250X0.218750X0*%
%ADD20R,0.681065X0.239283*%
%ADD21RoundRect,0.119642X0.220890X-0.000001X-0.220890X-0.000001X-0.220890X0.000001X0.220890X0.000001X0*%
%ADD22RoundRect,0.119642X-0.000001X0.220890X0.000001X0.220890X0.000001X-0.220890X-0.000001X-0.220890X0*%
%ADD23R,2.850000X2.850000*%
%ADD24RoundRect,0.225000X-0.225000X-0.250000X0.225000X-0.250000X0.225000X0.250000X-0.225000X0.250000X0*%
%ADD25RoundRect,0.225000X0.250000X-0.225000X0.250000X0.225000X-0.250000X0.225000X-0.250000X-0.225000X0*%
%ADD26RoundRect,0.249999X-1.550001X0.790001X-1.550001X-0.790001X1.550001X-0.790001X1.550001X0.790001X0*%
%ADD27O,3.600000X2.080000*%
%ADD28R,3.600000X3.600000*%
%ADD29C,3.600000*%
%ADD30R,1.350000X1.350000*%
%ADD31O,1.350000X1.350000*%
G04 APERTURE END LIST*
D10*
%TO.C,J1*%
X55945000Y-75850000D03*
X55945000Y-81630000D03*
D11*
X57010000Y-75390000D03*
X57010000Y-76190000D03*
X57010000Y-77490000D03*
X57010000Y-78490000D03*
X57010000Y-78990000D03*
X57010000Y-79990000D03*
X57010000Y-81290000D03*
X57010000Y-82090000D03*
X57010000Y-81790000D03*
X57010000Y-80990000D03*
X57010000Y-80490000D03*
X57010000Y-79490000D03*
X57010000Y-77990000D03*
X57010000Y-76990000D03*
X57010000Y-76490000D03*
X57010000Y-75690000D03*
D12*
X52265000Y-74420000D03*
D13*
X56445000Y-74420000D03*
D12*
X52265000Y-83060000D03*
D13*
X56445000Y-83060000D03*
%TD*%
D14*
%TO.C,R13*%
X58802000Y-74168000D03*
X60452000Y-74168000D03*
%TD*%
D15*
%TO.C,R5*%
X75946000Y-82550000D03*
X74296000Y-82550000D03*
%TD*%
%TO.C,R12*%
X72898000Y-76454000D03*
X71248000Y-76454000D03*
%TD*%
D16*
%TO.C,R1*%
X103886000Y-83186000D03*
X103886000Y-84836000D03*
%TD*%
D17*
%TO.C,C6*%
X66066000Y-82296000D03*
X64516000Y-82296000D03*
%TD*%
D18*
%TO.C,C10*%
X89916000Y-73647000D03*
X89916000Y-75197000D03*
%TD*%
D15*
%TO.C,R10*%
X72898000Y-78486000D03*
X71248000Y-78486000D03*
%TD*%
D19*
%TO.C,D1*%
X65786000Y-74117000D03*
X65786000Y-75692000D03*
%TD*%
D18*
%TO.C,C8*%
X88138000Y-73647000D03*
X88138000Y-75197000D03*
%TD*%
%TO.C,C4*%
X58674000Y-81521000D03*
X58674000Y-83071000D03*
%TD*%
D16*
%TO.C,R4*%
X97790000Y-83249000D03*
X97790000Y-84899000D03*
%TD*%
D20*
%TO.C,U1*%
X67447532Y-80498000D03*
D21*
X67447532Y-79998000D03*
X67447532Y-79498000D03*
X67447532Y-78997999D03*
X67447532Y-78497999D03*
X67447532Y-77997999D03*
D22*
X66782000Y-77332467D03*
X66282000Y-77332467D03*
X65782000Y-77332467D03*
X65281999Y-77332467D03*
X64781999Y-77332467D03*
X64281999Y-77332467D03*
D21*
X63616467Y-77997999D03*
X63616467Y-78497999D03*
X63616467Y-78997999D03*
X63616467Y-79498000D03*
X63616467Y-79998000D03*
X63616467Y-80498000D03*
D22*
X64281999Y-81163532D03*
X64781999Y-81163532D03*
X65281999Y-81163532D03*
X65782000Y-81163532D03*
X66282000Y-81163532D03*
X66782000Y-81163532D03*
D23*
X65532000Y-79248000D03*
%TD*%
D18*
%TO.C,C11*%
X91694000Y-73647000D03*
X91694000Y-75197000D03*
%TD*%
D15*
%TO.C,R11*%
X75946000Y-76454000D03*
X74296000Y-76454000D03*
%TD*%
%TO.C,R9*%
X75946000Y-78486000D03*
X74296000Y-78486000D03*
%TD*%
D17*
%TO.C,C7*%
X68326000Y-84328000D03*
X66776000Y-84328000D03*
%TD*%
D15*
%TO.C,R14*%
X63626000Y-74676000D03*
X61976000Y-74676000D03*
%TD*%
%TO.C,R7*%
X75946000Y-80518000D03*
X74296000Y-80518000D03*
%TD*%
%TO.C,R8*%
X72898000Y-80518000D03*
X71248000Y-80518000D03*
%TD*%
D24*
%TO.C,C2*%
X67538000Y-82296000D03*
X69088000Y-82296000D03*
%TD*%
D16*
%TO.C,R2*%
X101854000Y-83186000D03*
X101854000Y-84836000D03*
%TD*%
D18*
%TO.C,C3*%
X60198000Y-81534000D03*
X60198000Y-83084000D03*
%TD*%
D25*
%TO.C,C12*%
X62484000Y-78004000D03*
X62484000Y-76454000D03*
%TD*%
D18*
%TO.C,C1*%
X61722000Y-81521000D03*
X61722000Y-83071000D03*
%TD*%
D24*
%TO.C,C5*%
X71094000Y-84328000D03*
X72644000Y-84328000D03*
%TD*%
D25*
%TO.C,C9*%
X58928000Y-77242000D03*
X58928000Y-75692000D03*
%TD*%
D16*
%TO.C,R3*%
X99822000Y-83186000D03*
X99822000Y-84836000D03*
%TD*%
D15*
%TO.C,R6*%
X72898000Y-82550000D03*
X71248000Y-82550000D03*
%TD*%
D26*
%TO.C,J2*%
X94266500Y-71628000D03*
D27*
X94266500Y-76708000D03*
%TD*%
D28*
%TO.C,T1*%
X60198000Y-85593000D03*
D29*
X60198000Y-70353000D03*
X83058000Y-70353000D03*
X83058000Y-85593000D03*
%TD*%
D30*
%TO.C,J3*%
X105822000Y-86868000D03*
D31*
X103822000Y-86868000D03*
X101822000Y-86868000D03*
X99822000Y-86868000D03*
X97822000Y-86868000D03*
X95822000Y-86868000D03*
X93822000Y-86868000D03*
%TD*%
M02*
